<svg xmlns="http://www.w3.org/2000/svg" width="2048" height="1536" viewBox="0 0 2048 1536"><g fill="none" stroke="#17192D" stroke-width="3"><path d="M841.732 638.61c-.583-3.487 0-6.98 1.164-9.89M840.462 500.223c0-2.327-10.474-13.38-9.892-20.95M794.593 648.503c-24.44 12.223-42.84 12.806-67.863 4.077-32.008-10.478-56.557-39.572-66.453-68.673-9.308-27.35-9.205-54.12 1.275-82.64 11.055-30.842 33.17-45.973 63.43-55.868 13.388-4.073 23.86-6.522 37.83-7.104 13.384-.582 20.144-1.044 33.526.12 23.282 2.328 41.215 6.52 59.837 15.834M796.92 647.923c-1.164-1.165 2.912-1.165 5.822-2.327 8.144-3.494 11.64-8.146 19.782-4.074 7.566 3.492 8.733 11.058 18.044 5.82 4.655-2.328 11.642-11.058 12.223-15.713M788.193 603.112c4.073 6.404 11.057 19.205 11.64 26.77M770.154 607.77c0 12.222-2.33 26.186 10.474 33.17M798.085 623.48c2.91 2.91 6.985-2.326 7.566-5.818 1.164-9.894-12.802-9.894-18.62-15.133M828.346 626.974c2.328-4.077-1.267-7.448 2.804-7.448M853.373 631.628c1.164 2.327 8.727-.583 12.222-1.748 0-6.397 10.47-8.727 15.708-12.216 6.086-4.058 11.947-17.045 20.82-14.103-1.124-8.575-7.854-11.977-16.16-12.684-7.15-.61-10.982.077-15.29 5.706-6.614 8.63-11.18 19.59-7.99 30.973M767.24 516.98c-17.457 2.91-22.695-26.186-8.727-36.08 19.785-13.965 63.435.583 64.595 26.77 0 4.654-1.743 11.64-7.564 11.06M901.676 601.95c2.37-6.434 21.38-11.35 16.77-30.727M767.24 509.998c2.914 1.165-5.817-2.91-6.982-4.072-6.984-8.73.582-22.117 11.058-23.277M777.134 508.253c5.238-4.654 8.73-12.803 16.296-15.714M787.613 514.654c8.144 5.82 22.112 3.49 14.547-9.894M805.07 494.285c.58-3.49-1.164-6.982-4.657-8.73M797.503 639.777c.583-2.327 2.91-4.074 5.24-5.24M2048 0M2048 1536M0 1536M0 0"/></g></svg>