<svg xmlns="http://www.w3.org/2000/svg" width="2048" height="1536" viewBox="0 0 2048 1536"><g fill="none" stroke="#17192D" stroke-width="3"><path d="M1216.41 629.42c5.818-1.75 15.132-9.313 18.625-16.294-2.91-2.327-6.986-9.896-6.986-15.133M1216.025 627.677c7.038-2.11 10.378-7.873 15.732-12.054 5.068-3.96 10.857-2.327 17.022-.26 13.08 4.376 25.55 14.362 30.644 27.444 7.742 19.882 21.88 38.486 32.172 57.63 3.893 7.25 11.672 14.96 10.924 23.263-.823 9.15-3.82 18.707-6.853 27.355-3.793 10.82-10.008 19.687-14.114 30.246-3.595 9.252-5.427 18.863-9.73 27.938-2.654 5.592-3.454 11.388-5.383 16.307M1225.725 809.165c-1.286-5.21-.81-9.88 1.397-15.17 3.316-7.64 4.41-10.576 4.796-19.316.81-15.154 10.098-28.287 14.756-41.67-3.496-1.167-6.988-4.074-9.895-6.4M1255.982 737.664c6.984 0 20.37 4.075 25.026-1.162M1299.63 727.77c-1.163 3.49 8.728-6.4 9.31-9.31M1235.617 727.188c-6.986-9.894-21.535-14.548-32.013-19.785-12.8-6.404-26.77-12.223-38.99-19.788-26.77-15.712-50.63-32.59-53.542-65.76-3.49-34.918 16.878-59.364 39.577-83.804 12.22-13.384 22.113-30.262 38.408-40.155 11.64-6.982 27.936-12.22 41.318-15.713 21.535-5.236 55.286-5.817 76.234 1.747 16.877 6.4 22.7 19.206 27.355 34.334 4.07 12.803 8.73 23.862 2.912 37.245-6.986 15.712-22.117 30.262-33.175 43.647-8.73 10.476-25.024 22.697-38.408 24.442M1232.124 756.287c.58 1.163 1.164 1.745 1.746 2.327-.582-32.59-55.287-46.556-69.255-72.745M1225.73 810.337c.856.828-.737 4.255-1.223 5.4-.438 1.052-.408 2.36-.73 3.323-1.228 3.69-1.593 7.18.925 10.217 1.9 2.292 4.453 3.61 7.51 2.926 1.834-.41 5.184-2.83 4.23-5.133M1241.072 810.996c.195 1.06-1.25 4.014-1.718 5.272-.575 1.546-.93 3.078-1.487 4.61-.863 2.365-1.674 5.493-.105 7.77 1.204 1.755 4.43 4.428 6.752 4.092 2.135-.307 2.678-3.09 3.568-4.615M1252.05 815.344c1.056.64-1.246 4.887-1.472 5.668-.483 1.694-.467 3.163-.638 4.878-.224 2.25.058 3.772 1.543 5.626 1.132 1.41 3.214 4.188 5.327 3.595.858-.238 3.194-3.206 2.91-4.348M1287.626 819.692c.11 3.383-1.64 6.506-3.937 8.7-1.013.968-2.1 1.91-3.105 2.894-1.307 1.276-2.555 3.388-4.586 3.278-1.38-.076-2.737-1.037-3.226-2.306-1.162-3.03 1.324-7.54 2.716-10.09.327-.596.594-1.21.895-1.815M1265.674 817.982c.114 4.946-4.918 9.086-4.08 14.064.355 2.1 2.087 3.335 3.938 3.818 2.085.542 6.604-.44 5.962-3.52M1225.645 808.02c.903.534-1.545 4.07-1.933 5.084-.403 1.06-1.145 2.145-1.683 3.16-.855 1.597-1.964 2.854-2.38 4.644-.35 1.484-.333 2.793-.397 4.317-.155 3.46.35 6.462 3.036 8.97 2.02 1.89 5.917 2.312 8.585 1.705 1.858-.424 2.754-1.793 4.24-2.783 2.188 2.867 5.182 2.587 7.784.558-.466 3.33 10.132 2.277 9.812-.277M1258.662 834.58c-1.4 2.055 4.443 2.75 4.367-.39M2048 0M2048 1536M0 1536M0 0"/></g></svg>