<svg xmlns="http://www.w3.org/2000/svg" width="2048" height="1536" viewBox="0 0 2048 1536"><g fill="none" stroke="#17192D" stroke-width="3"><path d="M970.824 650.954c-9.314 0-15.133-1.165-24.445-3.492-12.805-3.495-19.202 4.654-30.263 4.074M950.652 673.676c.47 5.105.754 13.242-2.493 17.272-4.214 5.232-8.04 10.717-12.595 15.557-4.62 4.91-17.068 27.17-4.783 28.535 6.54.73 8.193-7.26 11.12-12.07 2.553-4.184 6.314-10.086 10.888-12.096 2.683 2.76-.94 6.313-2.497 8.794-1.748 2.79-3.028 5.53-4.505 8.474-2.575 5.123-5.783 10.425-7.187 16.18-.84 3.454-1.003 5.78 1.67 7.81 2.352 1.788 4.206 2.43 6.438.756 4.283-3.214 6.23-11.31 8.647-15.924 1.947-3.712 7.474-12.385 12.168-12.453.314 3.586 2.717 4.275 1.812 8.407-.686 3.135-2.37 6.116-3.33 9.196-1.894 6.073-3.614 12.07-6.155 18.032-1.14 2.668-2.812 5.814-1.565 8.84.89 2.152 4.452 5.062 7.013 4.33 3.69-1.055 7.283-9.42 8.903-12.435 2.88-5.367 8.595-31.47 16.127-29.74 1.25 2.71.61 5.78.798 8.768.224 3.476 1.73 5.95 2.585 9.2 1.6 6.086 1.85 12.715 1.83 19.133-.015 6.77 5.943 11.683 9.2 3.678 2.664-6.542 2.64-13.3 3.31-20.235.61-6.246.807-12.647 1.096-19.05.307-6.753-.057-12.387 3.6-18.106 6.677-10.443 7.773-23.72 15.258-32.38M1027.854 678.305c4.075 2.91 15.716-31.43 17.46-38.992 3.49-16.295 1.745-33.17 3.49-50.048 2.33-26.773 12.224-59.94-6.984-82.64-15.712-18.62-37.827-26.77-57.614-39.573-14.548-9.313-41.897-26.77-59.354-24.44M848.61 501.972c5.82 22.695 31.425 29.096 50.047 38.408 19.205 10.476 36.083 17.46 58.2 17.46M973.15 648.042c4.656-10.476-1.165-32.588-4.076-43.646-4.654-15.13-8.145-30.843-8.728-46.556M976.64 656.773c5.818 6.4 11.06 11.058 17.46 16.295M1002.83 682.38c4.658 2.906 12.222 3.49 16.877 2.326M948.708 671.32c.58-11.637-32.01-3.49-33.752-20.366M960.347 556.092c4.656 5.24 19.784-9.31 22.11-13.385M2048 0M2048 1536M0 1536M0 0"/></g></svg>