<svg xmlns="http://www.w3.org/2000/svg" width="2048" height="1536" viewBox="0 0 2048 1536"><g fill="none" stroke="#17192D" stroke-width="3"><path d="M846.282 488.004c1.747-11.64 0-21.534 8.73-31.428 9.31-11.054 27.93-25.024 40.738-30.844 20.367-9.31 57.03-1.162 78.564 1.745M1048.22 613.707c20.374 4.074 42.487-4.072 61.11-4.654M875.962 534.323c6.98 5.82 11.64 13.968 17.46 20.95 8.146 9.31 16.295 14.548 25.606 22.112 8.728 6.984 16.875 13.388 26.77 19.205 6.982 4.074 18.04 7.57 23.858 12.806M928.92 420.496c8.73.582 19.202-3.493 28.518-4.075 15.13-1.162 30.26 1.166 45.392 1.166 27.932 0 55.867-.583 83.222-1.165 35.5-1.162 73.324-3.49 107.077-3.49M2048 0M2048 1536M0 1536M0 0"/></g></svg>