<?xml version="1.0" encoding="iso-8859-1"?>
<!-- Generator: Adobe Illustrator 15.1.0, SVG Export Plug-In . SVG Version: 6.00 Build 0)  -->
<!DOCTYPE svg PUBLIC "-//W3C//DTD SVG 1.1//EN" "http://www.w3.org/Graphics/SVG/1.1/DTD/svg11.dtd">
<svg version="1.1" xmlns="http://www.w3.org/2000/svg" xmlns:xlink="http://www.w3.org/1999/xlink" x="0px" y="0px" width="2048px"
	 height="1536px" viewBox="0 0 2048 1536" style="enable-background:new 0 0 2048 1536;" xml:space="preserve">
<g id="a1a_x5F_arm_x5F_v">
	<path style="fill:none;stroke:#17192D;stroke-width:3;" d="M970.824,650.954c-9.314,0-15.133-1.165-24.445-3.492
		c-12.804-3.495-19.201,4.654-30.262,4.074"/>
	<g>
		<path style="fill:none;stroke:#17192D;stroke-width:3;" d="M950.652,673.676c0.471,5.105,0.754,13.242-2.493,17.272
			c-4.213,5.232-8.039,10.717-12.594,15.557c-4.62,4.91-17.068,27.17-4.783,28.535c6.541,0.729,8.193-7.26,11.121-12.07
			c2.552-4.184,6.313-10.086,10.887-12.096c2.683,2.761-0.94,6.313-2.497,8.794c-1.748,2.791-3.028,5.529-4.505,8.474
			c-2.575,5.123-5.783,10.425-7.187,16.179c-0.842,3.455-1.004,5.782,1.668,7.81c2.353,1.789,4.207,2.43,6.439,0.757
			c4.283-3.214,6.23-11.309,8.647-15.924c1.947-3.712,7.474-12.385,12.168-12.453c0.314,3.585,2.717,4.274,1.812,8.406
			c-0.686,3.135-2.37,6.116-3.33,9.196c-1.894,6.073-3.614,12.071-6.155,18.032c-1.139,2.668-2.812,5.814-1.565,8.84
			c0.89,2.152,4.452,5.062,7.013,4.331c3.69-1.056,7.283-9.421,8.903-12.436c2.879-5.367,8.594-31.47,16.126-29.741
			c1.25,2.712,0.609,5.782,0.798,8.769c0.224,3.476,1.731,5.951,2.585,9.2c1.599,6.086,1.849,12.715,1.831,19.133
			c-0.016,6.77,5.942,11.682,9.2,3.677c2.663-6.542,2.638-13.299,3.309-20.235c0.61-6.246,0.807-12.647,1.096-19.051
			c0.307-6.752-0.057-12.386,3.599-18.105c6.678-10.443,7.774-23.72,15.259-32.381"/>
		<path style="fill:none;stroke:#17192D;stroke-width:3;" d="M1027.854,678.305c4.075,2.91,15.716-31.429,17.461-38.992
			c3.489-16.295,1.744-33.17,3.489-50.048c2.329-26.773,12.224-59.941-6.984-82.641c-15.712-18.62-37.827-26.769-57.614-39.572
			c-14.548-9.313-41.897-26.769-59.354-24.441"/>
		<path style="fill:none;stroke:#17192D;stroke-width:3;" d="M848.611,501.972c5.818,22.695,31.424,29.096,50.046,38.408
			c19.205,10.476,36.083,17.46,58.199,17.46"/>
		<path style="fill:none;stroke:#17192D;stroke-width:3;" d="M973.151,648.042c4.655-10.476-1.166-32.588-4.077-43.646
			c-4.654-15.131-8.145-30.843-8.728-46.556"/>
		<path style="fill:none;stroke:#17192D;stroke-width:3;" d="M976.639,656.773c5.819,6.399,11.061,11.058,17.462,16.295"/>
		<path style="fill:none;stroke:#17192D;stroke-width:3;" d="M1002.83,682.379c4.658,2.907,12.222,3.49,16.877,2.327"/>
		<path style="fill:none;stroke:#17192D;stroke-width:3;" d="M948.708,671.321c0.581-11.638-32.009-3.49-33.752-20.367"/>
		<path style="fill:none;stroke:#17192D;stroke-width:3;" d="M960.347,556.092c4.656,5.239,19.784-9.311,22.111-13.385"/>
	</g>
	<path style="fill:none;stroke:#17192D;stroke-width:3;" d="M2048,0"/>
	<path style="fill:none;stroke:#17192D;stroke-width:3;" d="M2048,1536"/>
	<path style="fill:none;stroke:#17192D;stroke-width:3;" d="M0,1536"/>
	<path style="fill:none;stroke:#17192D;stroke-width:3;" d="M0,0"/>
</g>
<g id="Layer_1">
</g>
</svg>
