<svg xmlns="http://www.w3.org/2000/svg" width="2048" height="1536" viewBox="0 0 2048 1536"><g fill="none" stroke="#17192D" stroke-width="3"><path d="M1275.188 624.183c-2.91 8.148 29.68 2.33 34.92 1.747 14.547-2.33 28.516-13.388 39.57-23.28 11.06-11.057 20.95-26.188 29.1-39.575 6.402-11.637 16.296-24.443 15.713-37.826-1.16-30.844-15.712-55.868-37.246-77.4-21.53-20.955-46.554-26.77-74.488-30.847-6.985-1.162-12.224 1.166-18.044 1.166-7.566 0-13.965-2.91-20.95-4.076-13.384-2.91-25.604-4.657-38.41-3.492-11.056.582-11.056.582-10.473 11.058.58 6.402 1.16 13.383.58 20.367-1.164 13.386-8.73 25.024-10.473 37.828-.583 5.236-2.33 18.622 3.49 20.367M1235.035 445.522c2.326 5.234 8.143 6.98 12.8 10.474M1315.926 451.92c.583 5.238.583 9.895 2.908 13.967M1342.113 476.365c-2.33-5.82 4.656-11.058 2.912-18.627M1360.737 501.387c2.91-4.655 7.564-8.73 11.637-12.218M1360.737 538.632c-3.494 2.33-8.73 1.165-13.383 0M1370.047 565.402c-2.326-3.488-5.236-6.4-7.564-9.892M1325.818 597.994c4.074-2.91 7.565-17.458 6.404-24.44M2048 0M2048 1536M0 1536M0 0"/></g></svg>