<?xml version="1.0" encoding="iso-8859-1"?>
<!-- Generator: Adobe Illustrator 15.1.0, SVG Export Plug-In . SVG Version: 6.00 Build 0)  -->
<!DOCTYPE svg PUBLIC "-//W3C//DTD SVG 1.1//EN" "http://www.w3.org/Graphics/SVG/1.1/DTD/svg11.dtd">
<svg version="1.1" xmlns="http://www.w3.org/2000/svg" xmlns:xlink="http://www.w3.org/1999/xlink" x="0px" y="0px" width="2048px"
	 height="1536px" viewBox="0 0 2048 1536" style="enable-background:new 0 0 2048 1536;" xml:space="preserve">
<g id="a1a_x5F_kopf">
	<path style="fill:none;stroke:#17192D;stroke-width:3;" d="M841.732,638.61c-0.583-3.487,0-6.981,1.164-9.891"/>
	<g>
		<path style="fill:none;stroke:#17192D;stroke-width:3;" d="M840.462,500.223c0-2.327-10.474-13.381-9.892-20.95"/>
		<path style="fill:none;stroke:#17192D;stroke-width:3;" d="M794.593,648.503c-24.439,12.223-42.841,12.806-67.863,4.077
			c-32.008-10.478-56.557-39.572-66.453-68.673c-9.308-27.351-9.205-54.12,1.275-82.641c11.055-30.841,33.17-45.972,63.431-55.867
			c13.387-4.072,23.86-6.521,37.828-7.103c13.385-0.582,20.145-1.044,33.527,0.121c23.282,2.327,41.215,6.52,59.837,15.833"/>
		<path style="fill:none;stroke:#17192D;stroke-width:3;" d="M796.92,647.923c-1.164-1.165,2.912-1.165,5.822-2.327
			c8.144-3.494,11.64-8.146,19.782-4.074c7.566,3.492,8.733,11.058,18.044,5.819c4.655-2.327,11.642-11.057,12.223-15.712"/>
		<path style="fill:none;stroke:#17192D;stroke-width:3;" d="M788.193,603.112c4.073,6.404,11.057,19.205,11.64,26.769"/>
		<path style="fill:none;stroke:#17192D;stroke-width:3;" d="M770.154,607.769c0,12.223-2.331,26.187,10.474,33.17"/>
		<path style="fill:none;stroke:#17192D;stroke-width:3;" d="M798.085,623.479c2.91,2.91,6.985-2.325,7.566-5.817
			c1.163-9.894-12.803-9.894-18.622-15.133"/>
		<path style="fill:none;stroke:#17192D;stroke-width:3;" d="M828.346,626.974c2.328-4.077-1.267-7.448,2.804-7.448"/>
		<path style="fill:none;stroke:#17192D;stroke-width:3;" d="M853.373,631.628c1.164,2.327,8.727-0.583,12.222-1.748
			c0-6.397,10.47-8.727,15.708-12.216c6.086-4.058,11.947-17.045,20.821-14.103c-1.125-8.576-7.855-11.978-16.16-12.685
			c-7.15-0.61-10.983,0.077-15.292,5.706c-6.613,8.631-11.18,19.59-7.989,30.973"/>
		<path style="fill:none;stroke:#17192D;stroke-width:3;" d="M767.241,516.981c-17.458,2.908-22.696-26.187-8.728-36.082
			c19.785-13.964,63.435,0.584,64.595,26.771c0,4.654-1.743,11.639-7.564,11.059"/>
		<path style="fill:none;stroke:#17192D;stroke-width:3;" d="M901.676,601.95c2.369-6.434,21.381-11.351,16.77-30.727"/>
		<path style="fill:none;stroke:#17192D;stroke-width:3;" d="M767.241,509.998c2.913,1.165-5.818-2.91-6.983-4.072
			c-6.984-8.729,0.582-22.117,11.058-23.277"/>
		<path style="fill:none;stroke:#17192D;stroke-width:3;" d="M777.134,508.253c5.238-4.654,8.731-12.803,16.296-15.714"/>
		<path style="fill:none;stroke:#17192D;stroke-width:3;" d="M787.613,514.654c8.144,5.819,22.112,3.49,14.547-9.894"/>
		<path style="fill:none;stroke:#17192D;stroke-width:3;" d="M805.07,494.285c0.581-3.49-1.164-6.982-4.657-8.731"/>
		<path style="fill:none;stroke:#17192D;stroke-width:3;" d="M797.503,639.777c0.583-2.327,2.911-4.074,5.239-5.239"/>
	</g>
	<path style="fill:none;stroke:#17192D;stroke-width:3;" d="M2048,0"/>
	<path style="fill:none;stroke:#17192D;stroke-width:3;" d="M2048,1536"/>
	<path style="fill:none;stroke:#17192D;stroke-width:3;" d="M0,1536"/>
	<path style="fill:none;stroke:#17192D;stroke-width:3;" d="M0,0"/>
</g>
<g id="Layer_1">
</g>
</svg>
