<?xml version="1.0" encoding="iso-8859-1"?>
<!-- Generator: Adobe Illustrator 15.1.0, SVG Export Plug-In . SVG Version: 6.00 Build 0)  -->
<!DOCTYPE svg PUBLIC "-//W3C//DTD SVG 1.1//EN" "http://www.w3.org/Graphics/SVG/1.1/DTD/svg11.dtd">
<svg version="1.1" xmlns="http://www.w3.org/2000/svg" xmlns:xlink="http://www.w3.org/1999/xlink" x="0px" y="0px" width="2048px"
	 height="1536px" viewBox="0 0 2048 1536" style="enable-background:new 0 0 2048 1536;" xml:space="preserve">
<g id="a1b_x5F_arm_x5F_v">
	<g>
		<path style="fill:none;stroke:#FF0050;stroke-width:3;" d="M950.652,862.325c0.471-5.104,0.754-13.241-2.493-17.271
			c-4.213-5.229-8.039-10.718-12.594-15.558c-4.62-4.909-17.068-27.17-4.783-28.535c6.541-0.728,8.193,7.263,11.121,12.07
			c2.552,4.184,6.313,10.087,10.887,12.096c2.683-2.759-0.94-6.311-2.497-8.794c-1.748-2.791-3.028-5.526-4.505-8.474
			c-2.575-5.121-5.783-10.427-7.187-16.179c-0.842-3.455-1.004-5.782,1.668-7.811c2.353-1.788,4.207-2.427,6.439-0.756
			c4.283,3.214,6.23,11.31,8.647,15.923c1.947,3.714,7.474,12.387,12.168,12.454c0.314-3.585,2.717-4.274,1.812-8.405
			c-0.686-3.136-2.37-6.117-3.33-9.199c-1.894-6.069-3.614-12.069-6.155-18.03c-1.139-2.668-2.812-5.814-1.565-8.841
			c0.89-2.153,4.452-5.065,7.013-4.332c3.69,1.056,7.283,9.423,8.903,12.438c2.879,5.366,8.594,31.469,16.126,29.741
			c1.25-2.715,0.609-5.782,0.798-8.769c0.224-3.476,1.731-5.95,2.585-9.199c1.599-6.086,1.849-12.716,1.831-19.134
			c-0.016-6.771,5.942-11.683,9.2-3.677c2.663,6.544,2.638,13.3,3.309,20.237c0.61,6.244,0.807,12.646,1.096,19.052
			c0.307,6.75-0.057,12.383,3.599,18.103c6.678,10.444,7.774,23.721,15.259,32.382"/>
		<path style="fill:none;stroke:#FF0050;stroke-width:3;" d="M1027.854,857.696c4.075-2.907,15.716,31.429,17.461,38.992
			c3.489,16.296,1.744,33.173,3.489,50.049c2.329,26.771,12.224,59.941-6.984,82.641c-15.712,18.62-37.827,26.769-57.614,39.572
			c-14.548,9.313-41.897,26.769-59.354,24.442"/>
		<path style="fill:none;stroke:#FF0050;stroke-width:3;" d="M848.611,1034.029c5.818-22.694,31.424-29.095,50.046-38.405
			c19.205-10.478,36.083-17.462,58.199-17.462"/>
		<path style="fill:none;stroke:#FF0050;stroke-width:3;" d="M973.151,887.959c4.655,10.477-1.166,32.592-4.077,43.648
			c-4.654,15.13-8.145,30.845-8.728,46.555"/>
		<path style="fill:none;stroke:#FF0050;stroke-width:3;" d="M976.639,879.229c5.819-6.399,11.061-11.056,17.462-16.295"/>
		<path style="fill:none;stroke:#FF0050;stroke-width:3;" d="M1002.83,853.622c4.658-2.907,12.222-3.489,16.877-2.324"/>
		<path style="fill:none;stroke:#FF0050;stroke-width:3;" d="M970.824,885.048c-9.314,0-15.133,1.165-24.445,3.493
			c-12.804,3.493-19.201-4.655-30.262-4.075"/>
		<path style="fill:none;stroke:#FF0050;stroke-width:3;" d="M948.708,864.681c0.581,11.639-32.009,3.492-33.752,20.367"/>
		<path style="fill:none;stroke:#FF0050;stroke-width:3;" d="M960.347,979.91c4.656-5.239,19.784,9.311,22.111,13.385"/>
	</g>
	<path style="fill:none;stroke:#17192D;stroke-width:3;" d="M2048,0"/>
	<path style="fill:none;stroke:#17192D;stroke-width:3;" d="M2048,1536"/>
	<path style="fill:none;stroke:#17192D;stroke-width:3;" d="M0,1536"/>
	<path style="fill:none;stroke:#17192D;stroke-width:3;" d="M0,0"/>
</g>
<g id="Layer_1">
</g>
</svg>
