<svg xmlns="http://www.w3.org/2000/svg" width="2048" height="1536" viewBox="0 0 2048 1536"><g fill="none" stroke-width="3"><path stroke="#FF0050" d="M911.1 700.812l-1.01-135.298M766.17 791.778l126.17-59.81M888.058 551.228L773.052 612.81s-10.39 6.673-16.572 16.47c-7.857 12.338-7.87 21.322-7.87 21.322l-4.728 127.108M1032.258 797.58L929.3 734.096M1060.4 667.83l-3.81 120.245M933.802 555.683l106.06 71.106M1018.04 831.643l15.926-7.886M764.216 814.966l111.61 61.21M932.656 554.748s-16.667-18.166-44.622-3.506M766.848 816.03s-23.736-7.013-22.53-38.34M1033.647 823.278s9.92-5.924 15.575-14.895c7.2-11.302 6.896-19.79 6.896-19.79M877.465 876.227s15.255 14.067 39.647 4.605M1038.574 627.325s22.615 8.79 21.496 39.97"/><path d="M852.068 719.836c5.852 3.587 16.237-2.4 23.198-13.38 6.96-10.978 7.898-22.842 2.092-26.5-5.81-3.656-16.193 2.33-23.2 13.377-7 11.048-7.94 22.914-2.09 26.503zM809.812 743.983c5.89 3.525 16.34-2.566 23.344-13.608 7-11.04 7.938-22.905 2.09-26.502-5.844-3.592-16.294 2.5-23.34 13.608-7.043 11.113-7.983 22.977-2.094 26.503zM769.752 763.84c5.92 3.472 16.435-2.718 23.477-13.824 7.042-11.105 7.985-22.98 2.104-26.52-5.88-3.542-16.393 2.646-23.478 13.82-7.087 11.18-8.03 23.053-2.104 26.525zM855.895 628.83c5.78 3.702 16.17-2.295 23.213-13.4 7.04-11.103 8.104-23.166 2.368-26.938-5.732-3.773-16.123 2.23-23.21 13.402-7.086 11.173-8.146 23.23-2.37 26.935zM813.624 653.008c5.814 3.643 16.273-2.46 23.354-13.63 7.082-11.164 8.143-23.225 2.37-26.935-5.77-3.712-16.23 2.388-23.357 13.627-7.125 11.237-8.185 23.3-2.366 26.938zM773.578 672.835c5.853 3.587 16.368-2.61 23.493-13.843 7.123-11.232 8.19-23.302 2.384-26.96-5.805-3.653-16.327 2.544-23.492 13.844-7.168 11.302-8.235 23.374-2.384 26.96zM936.065 605.288c-4.63 6.972-.245 18.265 9.793 25.212 10.034 6.95 21.885 6.988 26.462.09 4.578-6.89.188-18.177-9.794-25.203-9.984-7.03-21.83-7.075-26.46-.1zM996.587 727.352c-4.785 7.197.1 18.865 10.906 26.052 10.808 7.187 23.407 7.242 28.133.128 4.725-7.105-.16-18.767-10.91-26.04-10.75-7.277-23.34-7.345-28.13-.14zM818.492 796.883c4.33-7.148 16.488-8.12 27.15-2.163 10.663 5.96 15.834 16.53 11.553 23.603-4.275 7.07-16.43 8.032-27.144 2.155-10.712-5.877-15.89-16.442-11.558-23.595zM880.792 837.88c4.093-7.096 16.18-8.22 26.984-2.498s16.28 16.055 12.23 23.076c-4.043 7.015-16.12 8.128-26.976 2.484-10.854-5.64-16.338-15.962-12.238-23.063zM888.648 763.644c4.528-7.485 17.246-8.297 28.4-1.816 11.156 6.485 16.57 17.74 12.094 25.138-4.47 7.39-17.182 8.2-28.393 1.803-11.21-6.39-16.632-17.642-12.102-25.126zM955.18 804.333c2.122-3.598 6.26-5.6 11.238-5.926" stroke="#FF0050"/><path d="M2048 0M2048 1536M0 1536M0 0" stroke="#17192D"/></g></svg>