<?xml version="1.0" encoding="iso-8859-1"?>
<!-- Generator: Adobe Illustrator 15.1.0, SVG Export Plug-In . SVG Version: 6.00 Build 0)  -->
<!DOCTYPE svg PUBLIC "-//W3C//DTD SVG 1.1//EN" "http://www.w3.org/Graphics/SVG/1.1/DTD/svg11.dtd">
<svg version="1.1" xmlns="http://www.w3.org/2000/svg" xmlns:xlink="http://www.w3.org/1999/xlink" x="0px" y="0px" width="2048px"
	 height="1536px" viewBox="0 0 2048 1536" style="enable-background:new 0 0 2048 1536;" xml:space="preserve">
<g id="a1b_x5F_corpus">
	<path style="fill:none;stroke:#FF0050;stroke-width:3;" d="M846.282,1047.998c1.747,11.641,0,21.534,8.73,31.428
		c9.311,11.056,27.931,25.024,40.738,30.844c20.367,9.311,57.031,1.162,78.564-1.745"/>
	<g>
		<path style="fill:none;stroke:#FF0050;stroke-width:3;" d="M1048.221,922.295c20.373-4.074,42.486,4.072,61.108,4.654"/>
		<path style="fill:none;stroke:#FF0050;stroke-width:3;" d="M875.962,1001.679c6.98-5.819,11.639-13.966,17.459-20.95
			c8.147-9.311,16.296-14.548,25.607-22.112c8.728-6.983,16.875-13.388,26.769-19.204c6.983-4.076,18.04-7.569,23.859-12.806"/>
		<path style="fill:none;stroke:#FF0050;stroke-width:3;" d="M928.92,1115.507c8.73-0.581,19.202,3.491,28.518,4.073
			c15.131,1.163,30.261-1.165,45.392-1.165c27.932,0,55.867,0.583,83.222,1.165c35.499,1.163,73.324,3.49,107.077,3.49"/>
	</g>
	<path style="fill:none;stroke:#17192D;stroke-width:3;" d="M2048,0"/>
	<path style="fill:none;stroke:#17192D;stroke-width:3;" d="M2048,1536"/>
	<path style="fill:none;stroke:#17192D;stroke-width:3;" d="M0,1536"/>
	<path style="fill:none;stroke:#17192D;stroke-width:3;" d="M0,0"/>
</g>
<g id="Layer_1">
</g>
</svg>
