<?xml version="1.0" encoding="iso-8859-1"?>
<!-- Generator: Adobe Illustrator 15.1.0, SVG Export Plug-In . SVG Version: 6.00 Build 0)  -->
<!DOCTYPE svg PUBLIC "-//W3C//DTD SVG 1.1//EN" "http://www.w3.org/Graphics/SVG/1.1/DTD/svg11.dtd">
<svg version="1.1" xmlns="http://www.w3.org/2000/svg" xmlns:xlink="http://www.w3.org/1999/xlink" x="0px" y="0px" width="2048px"
	 height="1536px" viewBox="0 0 2048 1536" style="enable-background:new 0 0 2048 1536;" xml:space="preserve">
<g id="a1b_x5F_wurfel">
	<line style="fill:none;stroke:#FF0050;stroke-width:3;" x1="911.1" y1="700.812" x2="910.089" y2="565.514"/>
	<line style="fill:none;stroke:#FF0050;stroke-width:3;" x1="766.171" y1="791.778" x2="892.339" y2="731.967"/>
	<path style="fill:none;stroke:#FF0050;stroke-width:3;" d="M888.058,551.228L773.052,612.81c0,0-10.391,6.673-16.572,16.469
		c-7.857,12.339-7.869,21.323-7.869,21.323l-4.729,127.108"/>
	<line style="fill:none;stroke:#FF0050;stroke-width:3;" x1="1032.258" y1="797.579" x2="929.301" y2="734.097"/>
	<line style="fill:none;stroke:#FF0050;stroke-width:3;" x1="1060.401" y1="667.83" x2="1056.591" y2="788.075"/>
	<line style="fill:none;stroke:#FF0050;stroke-width:3;" x1="933.802" y1="555.683" x2="1039.861" y2="626.789"/>
	<line style="fill:none;stroke:#FF0050;stroke-width:3;" x1="1018.041" y1="831.643" x2="1033.966" y2="823.757"/>
	<line style="fill:none;stroke:#FF0050;stroke-width:3;" x1="764.216" y1="814.966" x2="875.826" y2="876.176"/>
	<path style="fill:none;stroke:#FF0050;stroke-width:3;" d="M932.656,554.748c0,0-16.667-18.166-44.622-3.506"/>
	<path style="fill:none;stroke:#FF0050;stroke-width:3;" d="M766.848,816.029c0,0-23.736-7.012-22.53-38.34"/>
	<path style="fill:none;stroke:#FF0050;stroke-width:3;" d="M1033.647,823.278c0,0,9.919-5.924,15.575-14.895
		c7.201-11.302,6.896-19.789,6.896-19.789"/>
	<path style="fill:none;stroke:#FF0050;stroke-width:3;" d="M877.465,876.227c0,0,15.255,14.067,39.647,4.605"/>
	<path style="fill:none;stroke:#FF0050;stroke-width:3;" d="M1038.574,627.325c0,0,22.615,8.789,21.496,39.971"/>
	<path style="fill:none;stroke:#FF0050;stroke-width:3;" d="M852.068,719.836c5.852,3.587,16.237-2.401,23.198-13.381
		c6.961-10.977,7.898-22.841,2.092-26.498c-5.809-3.657-16.193,2.33-23.199,13.376C847.157,704.381,846.219,716.247,852.068,719.836
		z"/>
	<path style="fill:none;stroke:#FF0050;stroke-width:3;" d="M809.812,743.983c5.89,3.525,16.341-2.566,23.344-13.608
		c7-11.04,7.938-22.905,2.09-26.502c-5.844-3.592-16.294,2.501-23.341,13.608C804.863,728.593,803.923,740.457,809.812,743.983z"/>
	<path style="fill:none;stroke:#FF0050;stroke-width:3;" d="M769.752,763.841c5.921,3.471,16.435-2.719,23.477-13.825
		c7.043-11.105,7.986-22.98,2.105-26.519c-5.88-3.543-16.393,2.645-23.478,13.819C764.769,748.495,763.827,760.369,769.752,763.841z
		"/>
	<path style="fill:none;stroke:#FF0050;stroke-width:3;" d="M855.895,628.829c5.779,3.703,16.17-2.294,23.213-13.399
		c7.041-11.103,8.104-23.166,2.368-26.938c-5.732-3.773-16.123,2.229-23.209,13.402C851.18,613.067,850.12,625.125,855.895,628.829z
		"/>
	<path style="fill:none;stroke:#FF0050;stroke-width:3;" d="M813.624,653.008c5.814,3.643,16.273-2.459,23.354-13.629
		c7.082-11.165,8.143-23.226,2.371-26.936c-5.772-3.712-16.23,2.388-23.358,13.627C808.865,637.307,807.805,649.37,813.624,653.008z
		"/>
	<path style="fill:none;stroke:#FF0050;stroke-width:3;" d="M773.578,672.835c5.853,3.587,16.368-2.61,23.493-13.843
		c7.122-11.232,8.19-23.302,2.383-26.959c-5.805-3.654-16.327,2.543-23.492,13.843C768.794,657.178,767.727,669.25,773.578,672.835z
		"/>
	<path style="fill:none;stroke:#FF0050;stroke-width:3;" d="M936.065,605.288c-4.629,6.972-0.245,18.265,9.793,25.212
		c10.034,6.949,21.885,6.988,26.462,0.09c4.578-6.891,0.188-18.177-9.794-25.203C952.542,598.357,940.697,598.312,936.065,605.288z"
		/>
	<path style="fill:none;stroke:#FF0050;stroke-width:3;" d="M996.587,727.352c-4.785,7.197,0.099,18.865,10.906,26.052
		c10.808,7.187,23.407,7.242,28.133,0.128c4.725-7.105-0.161-18.767-10.91-26.041
		C1013.967,720.215,1001.375,720.147,996.587,727.352z"/>
	<path style="fill:none;stroke:#FF0050;stroke-width:3;" d="M818.492,796.883c4.33-7.148,16.488-8.119,27.149-2.163
		c10.664,5.961,15.835,16.53,11.554,23.603c-4.275,7.07-16.429,8.032-27.144,2.155C819.338,814.601,814.16,804.036,818.492,796.883z
		"/>
	<path style="fill:none;stroke:#FF0050;stroke-width:3;" d="M880.792,837.879c4.093-7.095,16.181-8.218,26.984-2.497
		s16.279,16.055,12.229,23.076c-4.042,7.015-16.12,8.128-26.975,2.484C882.176,855.302,876.692,844.98,880.792,837.879z"/>
	<path style="fill:none;stroke:#FF0050;stroke-width:3;" d="M888.648,763.644c4.528-7.485,17.246-8.297,28.401-1.816
		c11.155,6.485,16.568,17.74,12.093,25.138c-4.471,7.39-17.182,8.2-28.393,1.803C889.541,782.379,884.118,771.128,888.648,763.644z"
		/>
	<path style="fill:none;stroke:#FF0050;stroke-width:3;" d="M955.179,804.333c2.123-3.598,6.262-5.599,11.239-5.926"/>
	<path style="fill:none;stroke:#17192D;stroke-width:3;" d="M2048,0"/>
	<path style="fill:none;stroke:#17192D;stroke-width:3;" d="M2048,1536"/>
	<path style="fill:none;stroke:#17192D;stroke-width:3;" d="M0,1536"/>
	<path style="fill:none;stroke:#17192D;stroke-width:3;" d="M0,0"/>
</g>
<g id="Layer_1">
</g>
</svg>
