<?xml version="1.0" encoding="iso-8859-1"?>
<!-- Generator: Adobe Illustrator 15.1.0, SVG Export Plug-In . SVG Version: 6.00 Build 0)  -->
<!DOCTYPE svg PUBLIC "-//W3C//DTD SVG 1.1//EN" "http://www.w3.org/Graphics/SVG/1.1/DTD/svg11.dtd">
<svg version="1.1" xmlns="http://www.w3.org/2000/svg" xmlns:xlink="http://www.w3.org/1999/xlink" x="0px" y="0px" width="2048px"
	 height="1536px" viewBox="0 0 2048 1536" style="enable-background:new 0 0 2048 1536;" xml:space="preserve">
<g id="a1b_x5F_beine">
	<g>
		<path style="fill:none;stroke:#FF0050;stroke-width:3;" d="M1216.411,906.582c5.817,1.747,15.131,9.312,18.624,16.294
			c-2.911,2.326-6.986,9.896-6.986,15.132"/>
		<path style="fill:none;stroke:#FF0050;stroke-width:3;" d="M1216.025,908.325c7.038,2.113,10.378,7.872,15.732,12.054
			c5.068,3.961,10.857,2.327,17.022,0.26c13.081-4.376,25.552-14.362,30.645-27.444c7.742-19.882,21.88-38.483,32.172-57.631
			c3.893-7.247,11.672-14.958,10.924-23.263c-0.823-9.148-3.82-18.706-6.853-27.353c-3.793-10.818-10.008-19.689-14.114-30.248
			c-3.595-9.251-5.427-18.867-9.73-27.938c-2.654-5.594-3.454-11.391-5.383-16.307"/>
		<path style="fill:none;stroke:#FF0050;stroke-width:3;" d="M1225.725,726.832c-1.286,5.211-0.811,9.88,1.397,15.17
			c3.316,7.644,4.41,10.579,4.796,19.321c0.811,15.151,10.098,28.286,14.756,41.669c-3.496,1.167-6.988,4.074-9.895,6.403"/>
		<path style="fill:none;stroke:#FF0050;stroke-width:3;" d="M1255.982,798.338c6.984,0,20.369-4.075,25.026,1.164"/>
		<path style="fill:none;stroke:#FF0050;stroke-width:3;" d="M1299.631,808.231c-1.164-3.49,8.727,6.401,9.309,9.311"/>
		<path style="fill:none;stroke:#FF0050;stroke-width:3;" d="M1235.617,808.813c-6.986,9.894-21.535,14.548-32.013,19.785
			c-12.801,6.401-26.77,12.223-38.989,19.787c-26.77,15.715-50.631,32.59-53.543,65.761c-3.489,34.918,16.878,59.362,39.577,83.803
			c12.22,13.386,22.114,30.264,38.409,40.157c11.639,6.984,27.936,12.22,41.318,15.713c21.535,5.237,55.286,5.819,76.234-1.747
			c16.877-6.399,22.701-19.207,27.355-34.335c4.07-12.803,8.729-23.859,2.912-37.245c-6.986-15.713-22.117-30.264-33.175-43.648
			c-8.729-10.477-25.024-22.697-38.408-24.442"/>
		<path style="fill:none;stroke:#FF0050;stroke-width:3;" d="M1232.124,779.715c0.581-1.162,1.164-1.745,1.746-2.327
			c-0.582,32.588-55.287,46.556-69.255,72.745"/>
		<path style="fill:none;stroke:#FF0050;stroke-width:3;" d="M1225.73,725.66c0.856-0.828-0.737-4.255-1.223-5.401
			c-0.438-1.051-0.408-2.36-0.729-3.323c-1.229-3.691-1.594-7.179,0.924-10.216c1.9-2.292,4.453-3.608,7.51-2.926
			c1.834,0.411,5.184,2.829,4.23,5.133"/>
		<path style="fill:none;stroke:#FF0050;stroke-width:3;" d="M1241.072,725.001c0.195-1.061-1.25-4.014-1.718-5.271
			c-0.575-1.548-0.931-3.079-1.487-4.61c-0.863-2.367-1.674-5.495-0.105-7.773c1.204-1.752,4.43-4.427,6.752-4.091
			c2.135,0.306,2.678,3.091,3.568,4.615"/>
		<path style="fill:none;stroke:#FF0050;stroke-width:3;" d="M1252.049,720.653c1.057-0.641-1.245-4.887-1.471-5.668
			c-0.483-1.694-0.467-3.163-0.638-4.877c-0.224-2.25,0.058-3.772,1.543-5.624c1.132-1.411,3.214-4.19,5.327-3.597
			c0.858,0.242,3.194,3.207,2.91,4.349"/>
		<path style="fill:none;stroke:#FF0050;stroke-width:3;" d="M1287.626,716.305c0.109-3.383-1.641-6.506-3.937-8.701
			c-1.012-0.965-2.099-1.91-3.104-2.893c-1.307-1.274-2.555-3.388-4.586-3.279c-1.378,0.077-2.736,1.037-3.225,2.306
			c-1.162,3.03,1.324,7.539,2.716,10.089c0.327,0.596,0.594,1.211,0.895,1.816"/>
		<path style="fill:none;stroke:#FF0050;stroke-width:3;" d="M1265.674,718.018c0.114-4.947-4.918-9.089-4.079-14.065
			c0.354-2.103,2.086-3.337,3.937-3.819c2.085-0.541,6.604,0.438,5.962,3.522"/>
		<path style="fill:none;stroke:#FF0050;stroke-width:3;" d="M1225.645,727.979c0.903-0.534-1.545-4.072-1.933-5.084
			c-0.403-1.062-1.145-2.146-1.683-3.163c-0.854-1.594-1.963-2.854-2.38-4.64c-0.35-1.487-0.332-2.796-0.396-4.318
			c-0.155-3.462,0.351-6.464,3.036-8.97c2.02-1.891,5.918-2.313,8.586-1.705c1.858,0.422,2.754,1.791,4.24,2.782
			c2.188-2.868,5.182-2.587,7.784-0.559c-0.465-3.327,10.133-2.276,9.813,0.281"/>
		<path style="fill:none;stroke:#FF0050;stroke-width:3;" d="M1258.662,701.416c-1.401-2.054,4.443-2.75,4.367,0.395"/>
	</g>
	<path style="fill:none;stroke:#17192D;stroke-width:3;" d="M2048,0"/>
	<path style="fill:none;stroke:#17192D;stroke-width:3;" d="M2048,1536"/>
	<path style="fill:none;stroke:#17192D;stroke-width:3;" d="M0,1536"/>
	<path style="fill:none;stroke:#17192D;stroke-width:3;" d="M0,0"/>
</g>
<g id="Layer_1">
</g>
</svg>
