<svg xmlns="http://www.w3.org/2000/svg" width="2048" height="1536" viewBox="0 0 2048 1536"><g fill="none" stroke-width="3"><g stroke="#FF0050"><path d="M1275.188 911.82c-2.91-8.15 29.68-2.33 34.92-1.747 14.547 2.328 28.516 13.387 39.57 23.278 11.06 11.06 20.95 26.19 29.1 39.576 6.402 11.64 16.296 24.44 15.713 37.826-1.16 30.843-15.712 55.867-37.246 77.4-21.53 20.953-46.554 26.772-74.488 30.845-6.985 1.162-12.224-1.165-18.044-1.165-7.566 0-13.965 2.91-20.95 4.074-13.384 2.912-25.604 4.656-38.41 3.493-11.056-.582-11.056-.582-10.473-11.058.58-6.404 1.16-13.386.58-20.37-1.164-13.386-8.73-25.023-10.473-37.827-.583-5.236-2.33-18.622 3.49-20.367M1235.035 1090.48c2.326-5.235 8.143-6.98 12.8-10.475M1315.926 1084.08c.583-5.236.583-9.894 2.908-13.966M1342.113 1059.64c-2.33 5.815 4.656 11.058 2.912 18.624M1360.737 1034.614c2.91 4.654 7.564 8.73 11.637 12.22M1360.737 997.367c-3.494-2.327-8.73-1.163-13.383 0M1370.047 970.6c-2.326 3.49-5.236 6.4-7.564 9.893M1325.818 938.008c4.074 2.91 7.565 17.458 6.404 24.444"/></g><path d="M2048 0M2048 1536M0 1536M0 0" stroke="#17192D"/></g></svg>