<svg xmlns="http://www.w3.org/2000/svg" width="2048" height="1536" viewBox="0 0 2048 1536"><g fill="none" stroke-width="3"><g stroke="#FF0050"><path d="M1216.41 906.582c5.818 1.747 15.132 9.312 18.625 16.294-2.91 2.326-6.986 9.896-6.986 15.132M1216.025 908.325c7.038 2.113 10.378 7.872 15.732 12.054 5.068 3.96 10.857 2.326 17.022.26 13.08-4.377 25.55-14.363 30.644-27.445 7.742-19.882 21.88-38.483 32.172-57.63 3.893-7.248 11.672-14.96 10.924-23.264-.823-9.147-3.82-18.705-6.853-27.352-3.793-10.818-10.008-19.69-14.114-30.248-3.595-9.25-5.427-18.867-9.73-27.938-2.654-5.594-3.454-11.39-5.383-16.307M1225.725 726.832c-1.286 5.21-.81 9.88 1.397 15.17 3.316 7.644 4.41 10.58 4.796 19.32.81 15.152 10.098 28.287 14.756 41.67-3.496 1.167-6.988 4.074-9.895 6.403M1255.982 798.338c6.984 0 20.37-4.075 25.026 1.164M1299.63 808.23c-1.163-3.49 8.728 6.402 9.31 9.312M1235.617 808.813c-6.986 9.894-21.535 14.548-32.013 19.785-12.8 6.4-26.77 12.223-38.99 19.787-26.77 15.715-50.63 32.59-53.542 65.76-3.49 34.92 16.878 59.363 39.577 83.804 12.22 13.385 22.113 30.263 38.408 40.156 11.64 6.984 27.936 12.22 41.318 15.713 21.535 5.236 55.286 5.818 76.234-1.748 16.877-6.4 22.7-19.207 27.355-34.335 4.07-12.803 8.73-23.86 2.912-37.245-6.986-15.713-22.117-30.264-33.175-43.648-8.73-10.477-25.024-22.697-38.408-24.442M1232.124 779.715c.58-1.162 1.164-1.745 1.746-2.327-.582 32.588-55.287 46.556-69.255 72.745M1225.73 725.66c.856-.828-.737-4.255-1.223-5.4-.438-1.052-.408-2.36-.73-3.324-1.228-3.69-1.593-7.18.925-10.216 1.9-2.292 4.453-3.608 7.51-2.926 1.834.41 5.184 2.83 4.23 5.133M1241.072 725c.195-1.06-1.25-4.013-1.718-5.27-.575-1.548-.93-3.08-1.487-4.61-.863-2.367-1.674-5.495-.105-7.773 1.204-1.752 4.43-4.427 6.752-4.09 2.135.305 2.678 3.09 3.568 4.614M1252.05 720.653c1.056-.64-1.246-4.887-1.472-5.668-.483-1.694-.467-3.163-.638-4.877-.224-2.25.058-3.772 1.543-5.624 1.132-1.41 3.214-4.19 5.327-3.597.858.242 3.194 3.207 2.91 4.35M1287.626 716.305c.11-3.383-1.64-6.506-3.937-8.7-1.013-.966-2.1-1.91-3.105-2.894-1.307-1.273-2.555-3.387-4.586-3.278-1.38.077-2.737 1.037-3.226 2.306-1.162 3.03 1.324 7.54 2.716 10.09.327.595.594 1.21.895 1.815M1265.674 718.018c.114-4.947-4.918-9.09-4.08-14.065.355-2.103 2.087-3.337 3.938-3.82 2.085-.54 6.604.44 5.962 3.523M1225.645 727.98c.903-.535-1.545-4.073-1.933-5.085-.403-1.062-1.145-2.146-1.683-3.163-.855-1.594-1.964-2.854-2.38-4.64-.35-1.487-.333-2.796-.397-4.318-.155-3.462.35-6.464 3.036-8.97 2.02-1.89 5.917-2.313 8.585-1.705 1.858.42 2.754 1.79 4.24 2.78 2.188-2.867 5.182-2.586 7.784-.558-.466-3.327 10.132-2.276 9.812.28M1258.662 701.416c-1.4-2.054 4.443-2.75 4.367.395"/></g><path d="M2048 0M2048 1536M0 1536M0 0" stroke="#17192D"/></g></svg>