<svg xmlns="http://www.w3.org/2000/svg" width="2048" height="1536" viewBox="0 0 2048 1536"><g fill="none" stroke-width="3"><g stroke="#FF0050"><path d="M950.652 862.325c.47-5.104.754-13.24-2.493-17.27-4.214-5.23-8.04-10.72-12.595-15.56-4.62-4.908-17.068-27.17-4.783-28.534 6.54-.727 8.193 7.264 11.12 12.07 2.553 4.185 6.314 10.088 10.888 12.097 2.683-2.76-.94-6.31-2.497-8.794-1.748-2.79-3.028-5.526-4.505-8.474-2.575-5.122-5.783-10.428-7.187-16.18-.84-3.455-1.003-5.782 1.67-7.81 2.352-1.79 4.206-2.428 6.438-.757 4.283 3.214 6.23 11.31 8.647 15.923 1.947 3.714 7.474 12.387 12.168 12.454.314-3.585 2.717-4.274 1.812-8.405-.686-3.136-2.37-6.117-3.33-9.2-1.894-6.068-3.614-12.068-6.155-18.03-1.14-2.667-2.812-5.813-1.565-8.84.89-2.153 4.452-5.065 7.013-4.332 3.69 1.056 7.283 9.423 8.903 12.438 2.88 5.367 8.595 31.47 16.127 29.742 1.25-2.715.61-5.782.798-8.77.224-3.475 1.73-5.95 2.585-9.198 1.6-6.086 1.85-12.716 1.83-19.134-.015-6.77 5.943-11.683 9.2-3.677 2.664 6.544 2.64 13.3 3.31 20.237.61 6.244.807 12.646 1.096 19.052.307 6.75-.057 12.383 3.6 18.103 6.677 10.444 7.773 23.72 15.258 32.382M1027.854 857.696c4.075-2.907 15.716 31.43 17.46 38.992 3.49 16.296 1.745 33.173 3.49 50.05 2.33 26.77 12.224 59.94-6.984 82.64-15.712 18.62-37.827 26.77-57.614 39.572-14.548 9.313-41.897 26.77-59.354 24.442M848.61 1034.03c5.82-22.695 31.425-29.096 50.047-38.406 19.205-10.478 36.083-17.462 58.2-17.462M973.15 887.96c4.656 10.476-1.165 32.59-4.076 43.647-4.654 15.13-8.145 30.845-8.728 46.555M976.64 879.23c5.818-6.4 11.06-11.057 17.46-16.296M1002.83 853.622c4.658-2.907 12.222-3.49 16.877-2.324M970.824 885.048c-9.314 0-15.133 1.165-24.445 3.493-12.805 3.494-19.202-4.654-30.263-4.074M948.708 864.68c.58 11.64-32.01 3.493-33.752 20.368M960.347 979.91c4.656-5.24 19.784 9.31 22.11 13.385"/></g><path d="M2048 0M2048 1536M0 1536M0 0" stroke="#17192D"/></g></svg>