<svg xmlns="http://www.w3.org/2000/svg" width="2048" height="1536" viewBox="0 0 2048 1536"><g fill="none" stroke-width="3"><g stroke="#FF0050"><path d="M840.462 1035.78c0 2.326-10.474 13.38-9.892 20.948M794.593 887.498c-24.44-12.223-42.84-12.805-67.863-4.076-32.008 10.477-56.557 39.57-66.453 68.673-9.308 27.35-9.205 54.12 1.275 82.64 11.055 30.842 33.17 45.973 63.43 55.868 13.388 4.072 23.86 6.52 37.83 7.103 13.384.582 20.144 1.044 33.526-.12 23.282-2.328 41.215-6.52 59.837-15.832M796.92 888.078c-1.164 1.165 2.912 1.165 5.822 2.327 8.144 3.493 11.64 8.146 19.782 4.074 7.566-3.492 8.733-11.06 18.044-5.82 4.655 2.328 11.642 11.057 12.223 15.713M788.193 932.89c4.073-6.404 11.057-19.205 11.64-26.77M770.154 928.234c0-12.223-2.33-26.186 10.474-33.172M798.085 912.522c2.91-2.91 6.985 2.327 7.566 5.82 1.164 9.892-12.802 9.892-18.62 15.13M841.732 897.392c-.583 3.487 0 6.98 1.164 9.89M828.346 909.028c2.328 4.076-1.267 7.447 2.804 7.447M853.373 904.373c1.164-2.324 8.727.584 12.222 1.748 0 6.397 10.47 8.73 15.708 12.22 6.086 4.057 11.947 17.044 20.82 14.102-1.124 8.573-7.854 11.976-16.16 12.683-7.15.61-10.982-.076-15.29-5.705-6.614-8.632-11.18-19.59-7.99-30.974M767.24 1019.022c-17.457-2.91-22.695 26.187-8.727 36.08 19.785 13.963 63.435-.582 64.595-26.77 0-4.655-1.743-11.642-7.564-11.06M901.676 934.052c2.37 6.434 21.38 11.35 16.77 30.728M767.24 1026.004c2.914-1.165-5.817 2.91-6.982 4.072-6.984 8.73.582 22.116 11.058 23.276M777.134 1027.75c5.238 4.655 8.73 12.802 16.296 15.714M787.613 1021.348c8.144-5.82 22.112-3.49 14.547 9.894M805.07 1041.717c.58 3.492-1.164 6.98-4.657 8.73M797.503 896.226c.583 2.326 2.91 4.073 5.24 5.24"/></g><path d="M2048 0M2048 1536M0 1536M0 0" stroke="#17192D"/></g></svg>