<?xml version="1.0" encoding="iso-8859-1"?>
<!-- Generator: Adobe Illustrator 15.1.0, SVG Export Plug-In . SVG Version: 6.00 Build 0)  -->
<!DOCTYPE svg PUBLIC "-//W3C//DTD SVG 1.1//EN" "http://www.w3.org/Graphics/SVG/1.1/DTD/svg11.dtd">
<svg version="1.1" xmlns="http://www.w3.org/2000/svg" xmlns:xlink="http://www.w3.org/1999/xlink" x="0px" y="0px" width="2048px"
	 height="1536px" viewBox="0 0 2048 1536" style="enable-background:new 0 0 2048 1536;" xml:space="preserve">
<g id="a2a_x5F_bein_x5F_v">
	<g>
		<path style="fill:none;stroke:#17192D;stroke-width:3;" d="M1460.792,912.389c7.084-11.853,7.084-30.993,11.514-45.576
			c4.43-17.315,17.714-40.104,10.629-57.423c-3.545-9.114-12.399-12.759-16.83-18.228c-6.201-8.202-5.312-13.672-6.201-24.614
			c-2.658-21.872-5.312-42.837-7.972-63.8c-5.315-57.423-15.943-132.163-52.255-176.825"/>
		<path style="fill:none;stroke:#17192D;stroke-width:3;" d="M1396.426,523.464c-2.756-18.388,0.92-38.614-1.836-57.002
			c-2.761-22.067-11.031-43.218-15.629-64.367c-4.598-21.143-16.553-39.53-20.229-60.679c-3.678-22.065-7.355-41.375-22.069-58.845
			c-3.676-3.677-7.354-8.274-11.951-11.95"/>
		<path style="fill:none;stroke:#17192D;stroke-width:3;" d="M1296.211,606.214c-5.517-8.275-14.717-14.713-20.23-24.825
			c-8.273-15.629-9.19-34.938-14.707-52.41c-4.6-16.548-9.194-34.017-14.714-50.57"/>
		<path style="fill:none;stroke:#17192D;stroke-width:3;" d="M1299.488,612.606"/>
		<path style="fill:none;stroke:#17192D;stroke-width:3;" d="M1373.443,817.684c-9.193-43.215-22.066-81.828-40.456-121.368
			c-9.194-20.223-17.469-40.456-25.745-61.601c-2.066-6.206-4.653-14.997-7.754-22.109"/>
		<path style="fill:none;stroke:#17192D;stroke-width:3;" d="M1377.12,920.659c-4.202-27.733,2.351-63.146-2.111-94.307"/>
		<path style="fill:none;stroke:#17192D;stroke-width:3;" d="M1318.203,563.671c-1.533-3.862-0.104-10.643-0.706-15.162
			c-0.555-4.182-2.123-10.6-4.915-13.756"/>
		<path style="fill:none;stroke:#17192D;stroke-width:3;" d="M1304.949,290.15c5.112-0.882,9.386-10.052,14.46-10.041"/>
		<path style="fill:none;stroke:#17192D;stroke-width:3;" d="M1391.303,535.959c0.564,0.256,0.337,0.312,0.061,0.129
			c2.354-2.55,3.692-6.75,3.958-10.17"/>
		<path style="fill:none;stroke:#17192D;stroke-width:3;" d="M1445.124,810.281c1.162-2.523,8.545-15.529,3.215-16.066"/>
		<path style="fill:none;stroke:#17192D;stroke-width:3;" d="M1404.959,798.23c0.32-3.463-3.793-10.528,1.205-12.05"/>
	</g>
	<path style="fill:none;stroke:#17192D;stroke-width:3;" d="M2048,0"/>
	<path style="fill:none;stroke:#17192D;stroke-width:3;" d="M2048,1536"/>
	<path style="fill:none;stroke:#17192D;stroke-width:3;" d="M0,1536"/>
	<path style="fill:none;stroke:#17192D;stroke-width:3;" d="M0,0"/>
</g>
<g id="Layer_1">
</g>
</svg>
