<?xml version="1.0" encoding="iso-8859-1"?>
<!-- Generator: Adobe Illustrator 15.1.0, SVG Export Plug-In . SVG Version: 6.00 Build 0)  -->
<!DOCTYPE svg PUBLIC "-//W3C//DTD SVG 1.1//EN" "http://www.w3.org/Graphics/SVG/1.1/DTD/svg11.dtd">
<svg version="1.1" xmlns="http://www.w3.org/2000/svg" xmlns:xlink="http://www.w3.org/1999/xlink" x="0px" y="0px" width="2048px"
	 height="1536px" viewBox="0 0 2048 1536" style="enable-background:new 0 0 2048 1536;" xml:space="preserve">
<g id="a2a_x5F_teddy">
	<g>
		<path style="fill:none;stroke:#17192D;stroke-width:3;" d="M928.626,701.35c1.102,1.408-1.604,4.335-1.874,6.377
			c0.532-0.589,1.571-0.98,2.155-1.537c0.93,1.928-0.295,4.508-0.781,6.432c3.236-3.936,3.566,1.026,2.501,3.638
			c0.461-0.531,1.183-0.848,1.669-1.295c0.118,2.121-0.689,4.048-0.823,6.109c0.474-0.547,1.216-0.859,1.71-1.343
			c0.577,1.969,0.114,4.312,0.633,6.355c0.541-0.729,1.71-1.372,2.228-2.125c0.56,2.136,0.061,4.705,0.88,6.64
			c0.553-0.765,1.591-1.418,1.963-2.416c0.383,1.957-0.004,4.3,0.951,6.09c0.4-0.396,1.134-0.666,1.533-1.064
			c0.595,1.673,0.784,3.432,1.937,4.795c0.924-0.816,1.819-1.399,2.238-2.645c1.992,1.658,1.415,4.37,2.613,6.263
			c0.34-0.62,1.041-1.087,1.317-1.902c0.32,0.95,1.121,2.317,1.315,3.332c0.921-0.9,1.798-1.897,2.56-2.896
			c1.147,1.832,0.487,4.039,2.127,5.653c1.059-0.85,2.264-1.794,3.395-2.444c1.88,1.771,1.226,5.364,1.816,7.784
			c1.146-0.886,1.583-2.476,1.82-3.843c0.808,1.158,1.069,2.749,1.637,3.993c1.313-0.864,1.688-2.369,2.778-3.444
			c1.08,1.22,2.094,2.587,3.176,3.809c1.523-1.027,2.484-2.51,4.022-3.537c1.626,1.654,2.035,3.981,2.918,6.035
			c1.795-1.172,1.679-3.326,3.052-4.799c1.536,1.507,1.308,3.735,2.423,5.427c1.606-1.423,1.342-3.645,2.83-5.102
			c4.066,4.653,3.28,3.693,7.263-0.26c1.594,1.522,1.638,3.826,2.121,5.653c1.245-1.513,1.882-3.787,3.12-5.335
			c1.464,1.388,1.941,3.418,2.742,5.212c1.885-1.723,2.022-4.881,3.779-6.906c1.206,0.9,1.982,2.457,2.707,3.708
			c1.095-1.174,1.592-2.66,2.921-3.671c1.15,1.065,1.909,2.517,2.305,4.018c2.63-1.396,2.513-5.068,4.173-7.17
			c1.657,1.52,2.421,3.645,3.86,5.32c1.319-1.417,1.113-3.45,1.645-5.238c2.938,1.275,6.682,1.492,9.449-0.09
			c-0.829-0.903-1.44-2.175-2.29-3.067c3.099-0.771,6.454-0.315,9.467-1.092c-5.029-7.093,1.625-2.568,5.548-4.937
			c-2.678-6.678,2.438-2.745,6.071-6.822c-4.179-4.809,3.976-4.68,6.312-6.5c-0.907-0.338-1.275-1.231-2.707-1.192
			c1.324-0.986,2.78-1.73,4.029-2.847c-0.636-0.052-1.916-0.757-2.564-0.808c1.66-1.452,3.36-3.313,5.729-3.163
			c-0.835-0.29-1.575-1.14-2.414-1.458c0.951-1.047,2.302-1.808,3.491-2.413c-0.464-0.153-1.47-1.143-1.934-1.32
			c1.135-1.009,2.413-1.943,3.529-2.973c-5.578,1.621-2.981-2.074-0.051-4.311c-5.42,0.103-3.246-3.758,0.274-4.842
			c-1.277,0.703-2.911,0.907-4.367,0.696c1.097-1.999,3.385-3.392,5.226-4.657c-0.997,1.818-3.549,0.843-4.597-0.868
			c1.46-2.026,3.939-4.397,6.455-4.744c-2.212-1.304-4.926-1.083-6.676-3.083c1.656-1.737,4.023-2.4,5.847-3.782
			c-1.4-2.094-4.003-2.494-5.428-4.517c0.922-0.506,1.667-1.703,2.589-2.206c-1.262-2.024-3.816-1.295-5.008-3.361
			c0.217-0.313,0.52-0.447,0.759-0.747c-1.438-1.698-3.262-2.894-4.608-4.734c0.665,0.041,0.701-0.188,1.528,0.119
			c-1.383-2.404-4.081-2.102-6.143-3.378c0.781-0.317,1.462-1.169,2.239-1.418c-0.815-0.887-2.043-1.512-3.295-1.735
			c1.075-0.638,1.432-1.64,2.097-2.352c-1.829,0.057-3.807,1.05-5.721,1.533c-1.111-1.854,0.854-4.085,0.531-6.208
			c-0.902,0.842-2.191,1.465-3.093,2.302c-0.446-1.909,0.156-4.075-0.699-5.778c-1.147,0.789-2.242,1.753-3.39,2.54
			c-0.267-1.796,0.323-3.894,0.449-5.666c-1.368,0.923-2.659,2.051-4.016,3.007c-0.618-1.803-0.914-4.781-3.333-2.341
			c-0.897-0.986-1.188-2.245-0.953-3.558c-0.446,0.495-1.373,0.812-1.853,1.291c-1.06-1.588-0.589-3.441-1.622-5.042
			c-4.944,3.712-4.354,1.605-5.808-2.988c-1.269,0.475-2.533,1.4-3.588,2.309c-0.022-0.863-0.504-2.125-0.149-3.195
			c-1.464,1-2.855,2.215-4.308,3.236c-0.922-1.917,0.352-4.399-0.33-6.567c-1.344,0.936-2.632,2.068-3.981,3.008
			c-0.895-1.013-1.184-2.287-0.956-3.582c-1.977,1.453-4.541,3.754-4.697-0.264c-6.761,5.737-2.308-3.729-3.399-6.781
			c-1.246,0.868-2.442,1.91-3.69,2.776c-0.092-1.949,0.374-6.45-3.077-4.552c-0.327-0.571-1.166-1.082-1.469-1.663
			c-0.789,0.917-1.698,1.648-1.977,2.929c-0.947,0.388-1.123-0.095-1.98,1.464c-0.792-1.114-1.676-2.199-2.579-3.201
			c-0.9,0.91-1.623,1.137-1.939,2.534c-2.889-1.362-3.333,2.979-4.71,4.594c-0.793-1.056-1.044-2.439-0.889-3.792
			c-0.679,1.646-1.042,3.443-2.545,4.504c-0.434-0.959-1.406-1.835-1.54-3.035c-0.149,1.377-0.746,2.69-1.631,3.569
			c-0.543-0.623-1.749-1.188-2.229-2.118c-0.121,1.042-0.794,2.547-0.916,3.655c-2.25-4.577-3.372,1.484-5.05,2.47
			c-2.011-4.35-3.512-0.511-3.406,2.118c-1.494-1.03-2.378-1.66-3.819-1.721c-1.196-0.047-1.141,3.618-3.481,0.753
			c-0.35,0.855-1.247,1.514-1.332,2.799c-2.511-0.703-3.178-1.296-5.454-0.882c-0.299,0.052-1.456,1.672-3.021,1.348
			c-0.012,1.767,0.965,3.35,2.077,4.633c-2.097-0.82-4.723-1.049-6.848-1.343c1.239,2.494,3.419,2.681,5.195,4.224
			c-3.961,1.52-0.086,3.275-0.982,5.757c-0.963,2.665-2.999,0.673-5.245,0.159c0.318,1.968,1.893,3.782,3.268,5.333
			c-0.653-0.307-1.429-0.384-2.072-0.679c0.25,1.799,4.051,7.742-1.249,6.554c0.724,0.313,1.568,1.269,2.174,1.613
			c-1.205,0.09-2.337,0.822-3.332,1.281c0.946,1.912,2.911,2.424,4.088,4.085c-1.141,1.445-2.979,2.091-4.37,0.702
			c1.094,1.046,2.246,2.033,3.07,3.32c-1.433,0.541-0.972,1.045-2.694,0.344c1.894,1.229,3.255,3.333,4.568,5.162
			c-1.313,0.521-2.759-0.158-3.889-1.302c5.156-0.174,3.901,7.176,0.565,4.378c-0.08,1.165-0.114,10.363-3.277,4.858
			c0.619,0.549,1.075,1.404,1.555,2.05c-1.196,0.145-1.768,0.517-3.147-0.271c-0.22,0.889-1.164,2.036-2.061,2.933
			c-0.34-0.483-1-0.938-1.29-1.457c0.099,0.898-0.343,2.346-0.304,3.205c-0.345-0.597-1.014-1.15-1.378-1.781
			c0.037-0.204,0.043-0.201,0.027,0.002c-0.154,0.199-0.141,1.064-0.124,1.318c-0.431-0.202-0.65-0.675-1.267-0.388
			c-0.204,2.511,1.366,5.583,0.33,7.885c0.134,0.209,0.52,0.613,0.576,0.833c-1.888-2.408-3.601-4.351-3.442-7.436
			c-0.64,1.339-1.496,2.539-2.704,3.38c-0.572-1.121-0.381-2.458,0.396-3.631c-1.97,1.292-4.221,2.757-6.652,2.184
			c0.257-1.803,1.339-3.607,2.499-5.112c-1.568,0.288-3.514,1.247-5.092,1.56c1.037-2.056,2.729-3.878,3.312-6.127
			c-1.565,0.719-3.134,2.371-4.534,2.855c3.038-3.318-2.335-4.847-4.617-5.833c0.692-0.413,1.283-1.378,1.999-1.765
			c-1.776-0.644-3.804,0.029-5.666-0.318c1.301-1.477,3.159-2.303,4.706-3.408c-1.794-0.896-3.993-0.194-5.911-0.623
			c1.201-1.087,2.582-2.102,3.785-3.176c-2.288-0.301-5.607-0.273-7.041-2.249c1.364-1.191,3.246-1.184,4.792-1.942
			c-1.195-1.065-2.853-1.434-3.977-2.69c0.567-0.15,1.349-0.99,1.914-1.174c-0.497-1.317-1.12-2.633-1.899-3.834
			c1-0.391,2.625-0.028,3.698,0.466c-0.779-1.146-1.689-2.283-2.521-3.384c0.979-1.4,2.395-1.621,3.816-0.785
			c-1.212-1.413-2.79-2.773-2.198-4.534c0.83,1.203,1.803,2.437,3.071,2.978c-0.58-1.826-2.027-4.407-2.787-5.823
			c5.402,5.467,2.612-2.528,3.163-5.351c1.116,1.218,2.125,2.614,3.232,3.839c0.201-1.678-0.621-3.874-0.75-5.756
			c1.322,1.598,2.186,3.44,4.353,3.489c0.504-2.66-1.141-5.469,0.027-8.011c0.523,0.918,1.653,1.7,2.235,2.596
			c0.32-0.853,1.114-2.191,1.184-3.313c0.514,0.915,1.653,1.697,2.232,2.587c1.383-0.896,1.951-2.665,2.669-3.968
			c0.873,1.021,1.155,2.552,1.198,3.88c0.966-0.872,1.667-2.06,2.031-3.366c0.188,0.871,0.128,2.729,0.421,3.941
			c1.662-1.5,1.954-3.911,3.698-5.285c1.276,1.323,0.912,3.102,1.708,4.489c0.98-1.3,1.458-3.329,2.973-3.822
			c-0.081,0.923,0.492,2.286,0.424,3.131c0.753-0.96,1.684-2.245,2.344-3.232c0.14,1.197,0.08,2.674-0.156,3.971
			c1.178-0.739,2.074-2.019,2.821-3.096c0.223,0.937,0.767,2.262,0.686,3.416c0.448-0.413,1.083-0.489,1.542-1.208
			c0.694,1.386,0.306,3.072-0.229,4.622"/>
		<path style="fill:none;stroke:#17192D;stroke-width:3;" d="M997.49,622.806c0.408,0.156,0.706,0.195,1.014,0.539
			c0.408-2.711,0.606-5.311,1.555-7.899c1.399,1.329,2.203,3.204,2.994,4.859c1.65-1.641,1.578-7.114,2.2-9.637
			c1.512,1.688,1.164,4.292,2.688,5.914c1.179-1.607,1.705-3.591,2.819-5.247c0.822,1.126,0.958,2.641,0.958,4.099
			c1.975-1.352,1.437-3.876,2.671-5.852c0.24,1.415,0.235,2.938,0.526,4.316c1.042-0.732,2.047-1.661,2.836-2.609
			c0.097,0.579,0.503,1.323,0.583,1.891c1.259-1.168,1.586-2.574,2.967-3.674c-0.01,0.431-0.045,0.989-0.087,1.491
			c0.689-0.99,1.584-1.509,2.133-2.67c0.111,0.781,1.118,2.036,1.344,2.806c0.75-0.84,1.97-1.38,2.526-2.363
			c-0.044,0.906,0.652,1.981,0.776,2.735c0.73-0.837,1.814-1.666,2.251-2.645c0.141,0.818,1.106,2.004,1.357,2.775
			c1.091-0.689,2.075-1.599,2.791-2.573c1.347,1.596,2.985,7.101,4.382,1.112c0.882,1.959,0.378,4.435,1.778,6.356
			c0.703-0.837,1.885-1.372,2.431-2.31c1.002,1.491,0.873,3.567,1.308,5.279c1.381-0.799,2.339-2.03,3.462-3.07
			c0.309,2.281-1.106,4.615,0.023,6.814c0.455-0.496,1.359-0.808,1.823-1.295c1.854,1.655-0.089,4.701,1.143,6.921
			c0.907-0.815,2.086-1.005,3.011-1.729c-0.11,0.947-5.932,7.386,0.922,5.705c-2.309,1.383-4.519,3.801-3.188,6.476
			c1.645-0.187,4.299-2.39,4.402-2.491c-1.426,0.878-2.503,1.797-2.868,3.26c1.58,0.243,3.179-0.591,4.868-0.359
			c-0.763,2.248-3.176,4.179-4.396,5.859c1.412-0.673,2.819-1.483,4.197-1.709c-0.969,1.727-3.146,2.889-4.872,3.94
			c1.062,0.47,0.912,1.003,2.47,0.855c-1.426,1.513-3.396,2.109-4.941,3.496c3.309-1.898,3.307,1.639,0.369,2.337
			c1.271-1.375,1.717-1.236,2.819,0.071c-1.541,1.635-3.535,2.965-5.784,2.67"/>
		<path style="fill:none;stroke:#17192D;stroke-width:3;" d="M924.788,806.65c1.487-0.481,2.843-1.835,4.248-2.815
			c0.878,1.047,1.81,2.154,2.688,3.2c2.104-1.232,2.237-3.892,3.915-5.454c2.233,1.645,1.222,4.367,2.362,6.464
			c2.268-1.144,2.671-3.788,4.755-5.145c1.09,1.232,2.097,2.604,3.19,3.832c1.097-0.817,2.254-1.685,3.346-2.506
			c1.23,1.132,2.104,2.716,2.889,4.078c0.386-1.229,0.583-2.865,1.25-3.875c1.281,1.261,1.669,3.214,1.708,4.98
			c0.699-0.949,1.546-2.128,2.256-3.145c1.002,1.02,1.582,2.455,2.076,3.701c1.529-1.091,1.287-2.964,2.429-4.307
			c1.422,1.154,1.576,3.179,1.96,4.84c1.179-1.348,1.333-3.465,2.818-4.501c0.953,1.488,0.719,3.425,1.56,5.003
			c1.365-1.043,2.024-2.805,3.254-3.934c0.292,0.844,1.189,1.756,1.334,2.778c1.308-1.078,1.399-2.901,2.703-3.981
			c1.201,1.252,1.637,3.033,2.312,4.504c1.273-1.303,1.47-3.144,2.511-4.737c1.763,1.515,1.2,3.943,2.607,5.653
			c2.4-1.779,2.006-5.22,4.151-7.161c1.233,0.968,1.895,2.676,2.319,4.035c1.398-1.449,0.916-3.728,2.034-5.497
			c0.825,1.158,1.29,2.614,1.757,3.979c0.925-0.812,1.418-2.287,1.508-3.574c1.055,0.983,1.754,2.271,2.415,3.465
			c0.887-0.969,1.612-2.226,2.044-3.502c1.026,1.082,2.176,1.395,3.534,0.736c-0.805,2.131-1.684,4.514-1.349,6.856
			c1.672-0.836,2.487-2.621,3.776-3.816c-0.522,2.679-2.779,5.999-2.109,8.492c3.481-1.919,4.335-5.955,7.399-8.213
			c0.165,0.592-4.458,12.146,1.308,7.966c0.723,2.07-0.361,4.809,1.443,6.669c1.558-1.1,3.047-2.399,4.603-3.508
			c0.065,2.961-1.393,5.731-1.582,8.701c2.113-0.571,2.836-3.568,4.238-5.336c0.954,5.941-3.542,12.211,4.222,6.638
			c2.926,2.406-0.708,8.292,2.169,10.21c2.159,1.44,6.262-3.496,7.479-5.504c-1.077,2.504-3.557,6.965-1.81,9.389
			c1.363-0.722,2.421-2.012,2.926-3.457c-0.629,2.021-0.718,4.293-0.227,6.298c1.276-0.918,2.188-2.489,2.95-3.697
			c0.585,1.416,0.515,3.144,0.833,4.663c2.36-1.212,2.813-3.331,4.235-5.189c0.703,1.25,1.507,2.804,2.695,3.696
			c1.509-0.586,2.955-1.555,4.163-2.641c0.242,1.855-1.009,3.962-0.405,5.646c0.65-0.497,1.499-0.582,2.113-0.978
			c-0.056,1.231-1.053,4.229,0.189,5.121c1.579,1.137,3.952-2.291,5.361,0.76c-1.778,1.664-12.639,6.545-9.573,9.175
			c1.517,1.306,7.293-2.134,9.379-2.057c-1.017,0.767-4.859,1.343-5.311,2.772c-0.552,1.747,1.012,2.174,2.402,1.747
			c-1.102,2.164-3.336,3.743-4.807,5.769c1.626,2.087,4.246-0.979,6.363-0.645c-1.596,4.073-6.576,5.929-8.307,10.189
			c1.453,0.308,4.689-2.783,5.668-2.147c1.771,1.147-2.684,5.637-2.749,7.087c1.39-0.33,2.566-1.255,3.643-2.188
			c0.509,2.339-4.262,5.436-1.75,7.709c0.482-0.461,1.351-0.795,1.792-1.271c-0.817,3.642-2.025,8.395-1.581,12.108
			c0.614-1.139,1.354-2.409,2.019-3.479c0.065,2.894-1.852,6.625,0.026,9.301c1.594-0.996,1.863-2.896,1.805-4.711
			c-0.746,4.122-0.017,8.304,1.515,12.088c1.686-2.18,0.703-5.388,1.725-7.804c1.519,3.12,0.82,7.37,2.736,10.219
			c2.298-1.216,2.243-4.413,3.055-6.657c1.179,3.031,0.979,6.588,3.035,9.307c2.695-1.146,1.899-4.232,2.112-6.571
			c1.677,1.91,1.25,4.61,2.805,6.481c0.168-3.233-0.308-7.674,2.368-10.026c0.24,0.931,1.106,2.332,1.259,3.375
			c2.132-2.312,2.267-6.045,3.336-8.911c0.124,0.807,1.047,1.943,1.296,2.702c1.661-1.185,1.744-3.796,3.107-5.309
			c0.815,1.191,1.184,2.685,1.541,4.183c1.656-1.808,1.042-4.649,3.415-6.109c0.294,0.583,1.185,1.09,1.478,1.668
			c1.412-0.81,2.779-2.097,3.712-3.298c0.696,1.203,1.191,2.566,2.074,3.698c2.286-1.26,2.705-4.413,4.312-6.297
			c2.105,1.731,10.104-2.724,12.135-4.251c-0.35-0.164-0.759-0.38-1.195-0.531c5.359-0.981,11.964-4.09,15.965,1.468
			c-0.158-0.198-4.162-4.229-3.724-5.278c0.902-2.165,3.836,0.045,5.224,0.41c-0.345-1.865-2.415-4.189-3.93-5.318
			c1.428-1.256,3.158-1.63,4.764-2.54c-2.016-1.029-4.872,0.824-7.181,0.495c0.555-2.091,2.851-3.139,4.42-4.568
			c-2.28-1.661-6.661,0.77-9.355,0.625c1.289-2.107,4.139-3.141,4.501-5.664c-2.287-0.702-4.609,0.912-6.728,0.969
			c0.77-2.558,2.725-4.696,1.613-7.443c-2.259,0.229-4.214,1.794-5.96,3.202c-0.613-2.173,2.137-4.818,1.079-7.304
			c-1.572,0.591-3.173,1.178-4.57,2.168c4.449-2.87,2.305-6.769-1.354-2.921c1.406-1.327,2.679-2.931,4.418-3.884
			c-2.473-1.918-7.19-1.061-10.195-1.404c2.209-1.971,5.227-2.575,7.559-4.174c-0.774-1.775-2.664-2.436-4.472-1.888
			c0.551-0.414,2.838-2.196,3.965-3.198c-1.985-0.812-4.481-0.972-6.626-1.209c1.978-0.665,3.998-1.389,5.896-2.172
			c-1.327-1.494-3.625-1.973-5.335-3.126c1.113-1.339,2.783-2.226,4.529-2.346c-2.043-0.802-4.4-0.57-6.589-1.002
			c1.788-0.864,4.08-1.452,5.915-2.318c-1.051-1.562-1.92-3.233-3.86-3.282c2.824-2.674,4.939-2.264,4.294-6.846
			c1.847,5.147,4.995,5.633,4.595-0.646c1.911,4.501,3.727,1.244,4.271-1.396c0.493,0.918,1.632,1.651,2.166,2.545
			c1.962-1.133,1.782-3.812,2.293-5.693c0.933,0.589,3.087,3.825,4.308,3.446c2.038-0.632,0.482-4.836,0.046-6.289
			c1.593,2.177,3.521,5.005,6.056,2.101c2.076,1.974,0.457,5.495,1.56,8.11c0.9-0.851,2.142-1.472,3.055-2.289
			c2.901,2.57-0.024,7.343,2.72,10.157c1.414-0.969,1.849-2.695,2.657-3.991c1.521,1.714,1.145,4.151,2.405,5.971
			c0.84-0.907,1.402-2.215,1.561-3.512c0.393,1.219,0.839,2.805,1.732,3.889c0.257-0.742,1.246-2.084,1.429-3.033
			c1.527,1.729,2.887,3.681,4.43,5.383c0.726-1.43,0.206-3.556,0.163-5.382c0.922,1.179,1.839,2.387,2.818,3.496
			c1.471-1.289,0.779-3.35,2.239-4.537c1.422,1.608,2.7,3.408,4.125,5.011c0.672-1.889,0.533-4.155,1.017-6.076
			c0.298,0.554,1.062,1.081,1.426,1.6c3.285-0.614,1.296-5.168,1.386-7.471c1.37,2.018,3.479,2.865,5.891,2.779
			c-1.817-6.159,2.367-3.613,4.495-6.629c0.969-1.378-0.863-3.687,0.98-5.21c0.817-0.676,3.057-0.347,4.134-0.464
			c-0.552-2.757,2.833-5.639,5.226-6.486c-0.42-0.134-0.966-0.582-1.443-0.69c1.293-1.881,3.161-3.756,5.531-3.556
			c-0.59-0.404-0.949-1.15-1.605-1.538c2.006-3.111,5.458-4.289,8.127-6.571c-0.57,0.453-1.142,0.901-1.711,1.354
			c2.186-2.472,6.376-2.778,9.202-3.777c-0.393,0.233-0.811,0.537-1.174,0.793c2.234-4.163,9.68-3.448,13.421-5.599
			c-1.311-2.347-5.291-2.312-7.455-1.927c1.654-1.177,9.241-3.114,9.551-5.634c0.58-4.703-6.136,0.77-7.434,1.872
			c2.062-1.637,5.199-3.532,6.476-5.511c-2.203,0.82-3.896,2.48-5.721,3.914c1.675-1.096,5.237-5.104,4.424-7.39
			c-1.292-3.618-5.722,0.405-7.729,1.918c1.104-1.834,1.771-4.742,1.938-6.91c-1.943,0.25-3.848,1.427-5.407,2.68
			c0.815-2.012,3.183-3.908,1.911-6.427c-2.115,0.43-3.949,2.164-5.721,3.501c-0.787-1.25-1.523-2.892-1.979-4.235
			c-1.596,0.44-2.812,1.554-4.075,2.652c1.13-1.879,2.075-4.409,2.035-6.521c-3.181,1.367-6.407,3.26-9.049,5.501
			c-0.207-1.732-0.604-3.689-1.361-5.262c-1.604,0.99-2.579,2.57-3.719,4.031c0.002-0.093-0.493-0.847-0.689-1.522
			c-1.314,0.922-2.596,2.044-3.918,2.93c0.106-1.375-0.242-2.895-0.953-4.075c-2.39,1.752-5.33,3.57-6.988,6.035
			c0.403-1.181-0.002-2.031-0.033-2.928c-1.516,1.123-2.975,3.254-4.27,3.918c0.712-1.337,0.487-1.876,0.308-3.28
			c-1.54,1.075-3.018,2.38-4.546,3.452c0.228-0.9-0.107-2.095,0.031-2.891c-1.64,1.214-3.486,3.081-5.204,3.579
			c0.114-1.133-0.002-2.766-0.604-3.919c-1.447,0.908-2.249,2.362-3.387,3.642c0.354-2.878-2.325-6.572-5.226-3.942
			c-0.394-1.394-0.619-3.014-1.129-4.457c-0.366,0.296-0.878,0.533-1.236,0.83c-0.641-1.153-1.139-2.378-1.484-3.66
			c-1.42,0.995-2.752,2.18-4.19,3.148c0.407-1.97,1.239-4.05,0.909-6.027c-1.564,1.105-3.068,2.417-4.631,3.518
			c-1.773-2.187-2.501-4.934-2.676-7.67c-0.568,0.696-1.863,1.095-2.465,1.777c-2.092-2.087,0.061-5.432-1.311-7.775
			c-1.242,0.861-2.447,1.897-3.699,2.745c-0.281-1.845,0.177-3.902-1.369-5.21c-1.159,0.639-2.573,1.172-3.748,1.416
			c-1.157-2.693,0.679-5.725-0.683-8.507c-1.882,0.712-3.453,2.354-5.142,3.549c-0.188-2.27,1.618-4.552,1.854-6.979
			c-2.587-1-7.705-3.772-10.302-3.685c3.535,1.773,7.618,2.03,11.512,2.083c-1.286-2.096-5.626-3.334-4.525-5.789
			c2.711,0.488,4.771,3.856,7.423,3.681c-0.199-1.234-0.257-2.72-0.144-3.792c3.742,1.644,12.29,5.326,6.177-1.897
			c2.516-0.41,5.281,1.031,7.188,2.732c-2.924-7.878,1.751-2.335,4.755-0.939c-0.255-1.802-1.09-3.444-1.315-5.244
			c2.868-0.177,5.27,2.583,7.904,3.144c-1.05-1.313-3.496-4.1-2.353-5.593c1.514-1.979,4.279-0.393,5.695,0.852
			c-0.958-1.188-1.947-2.384-2.816-3.616c2.314-0.149,4.309,2.34,6.471,1.29c-0.469-2.322-2.538-4.068-3.145-6.383
			c2.045-1.098,4.73,1.425,6.602,2.158c-1.934-4.264-1.339-3.933,2.854-5.264c-0.618-0.727-0.787-2.041-1.384-2.69
			c1.698-0.257,3.399-0.56,5.071-0.854c-1.327-0.777-3.03-1.229-3.879-2.659c1.24-1.617,3.41-2.274,5.349-1.946
			c-1.579-0.779-3.521-1.165-4.595-2.641c1.688-1.496,3.555-2.835,5.27-4.306c-1.49,0.068-3.115-0.029-4.081-1.1
			c1.574-2.1,3.557-4.183,5.781-5.681c-0.876,0.948-4.379,3.138-5.02,0.95c-0.371-1.263,6.468-5.566,7.618-6.589
			c-2.154-1.345-5.961,1.191-8.283,2.058c1.861-3.537,4.903-7.111,6.235-10.96c-2.214,0.82-4.66,2.467-6.691,3.95
			c2.708-2.222,7.218-7.869,6.793-11.397c-3.086,0.549-6.515,3.569-8.9,5.587c1.702-1.584,4.311-5.826,2.513-7.888
			c-2.074,0.747-3.862,2.201-5.082,4.019c0.226-0.819,0.007-1.83,0.141-2.592c-1.769,1.245-3.467,2.704-4.915,4.231
			c0.271-5.963-3.208-4.503-6.376-0.525c-0.961-1.147-0.621-5.168-2.133-5.655c-1.713-0.543-3.869,3.23-4.341,4.425
			c-0.195-0.821-0.867-1.262-1.163-1.938c-1.024,0.809-2.102,1.442-2.805,2.596c-0.357-0.812-1.182-1.271-1.463-2.207
			c-1.33,0.646-2.262,1.953-2.805,3.081c-0.405-0.818-1.539-1.484-1.965-2.296c-1.077,0.929-1.523,2.601-1.881,3.875
			c-1.594-0.869-2.601-2.79-3.862-4.189c-2.457,1.118-1.414,4.466-1.618,6.666c-1.828-0.548-2.851-2.318-4.063-3.768
			c-1.308,1.285-1.448,8.484-5.109,3.629c0.09,1.793,0.515,3.906-0.636,5.285c-0.842-1.292-1.764-2.446-3.098-2.536
			c-0.798,5.916-6.315-2.601-6.717,5.954c-1.611-0.067-2.806-1.513-3.878-2.898c-1.868,1.263-1.257,3.681-2.617,5.449
			c-0.75-0.619-2.113-0.893-2.839-1.612c-1.606,1.189-1.879,3.279-3.04,4.761c-1.02-1.133-1.955-2.418-2.974-3.553
			c-0.26,1.789-0.439,3.851-0.852,5.617c-1.187-1.055-1.728-2.701-2.366-4.017c-0.654,1.294-0.298,2.975-0.769,4.596
			c-0.856-0.231-3.094-2.125-3.921-1.972c-1.929,0.358-2.001,3.663-2.851,5.146c-1.232-0.937-1.991-2.303-2.389-3.796
			c-0.001,1.299-0.253,2.728-0.683,3.838c-0.687-0.978-1.834-1.468-2.55-2.386c0.201,0.688-0.015,1.55,0.501,2.505
			c-1.423,0.558-2.662,0.072-3.432-1.288c-0.27-0.45-0.017,0.445-0.034,0.597"/>
		<path style="fill:none;stroke:#17192D;stroke-width:3;" d="M894.113,768.308c-1.273,0.351-2.632,0.445-4.11,0.592
			c0.937,1.181,2.366,1.951,3.771,2.376c-1.667,1.539-3.626,2.894-5.318,4.398c11.311-1.561,1.396,5.438-0.497,8.784
			c4.156-0.793,8.3-0.741,5.866,4.873c5.394-4.369,2.926,2.029,2.963,4.494c0.53-0.595,1.607-0.949,2.159-1.535
			c0.698,1.78-0.343,4.158,0.407,6.005c1.999-1.312,3.635-3.111,5.146-4.739c0.491,0.866,0.693,1.798,0.732,2.753"/>
		<path style="fill:none;stroke:#17192D;stroke-width:3;" d="M973.34,762.137c-0.262,0.083-2.884-1.127-4.15-2.625
			c-0.391,0.893-1.386,2.201-1.75,3.267c-1.154-1.1-1.62-2.696-2.323-4.015c-1.227,0.826-1.787,2.549-2.38,3.739
			c-1.723-1.705-2.048-4.069-2.601-6.294c-1.065,1.168-1.531,2.819-1.962,4.314c-1.447-1.562-1.558-3.813-2.943-5.398
			c-1.282,0.78-1.861,2.275-1.992,3.718c-2.099-2.378-4.425-9.669-5.966-2c-1.52-2.963-2.579-0.455-3.807-0.923
			c-1.676-0.631-2.35-1.236-4.029-3.11c-1.439,0.671-2.153,2.203-2.397,3.705c-1.342-1.621-2.521-3.586-4.542-4.386
			c-0.594,1.055-1.354,1.115-1.514,2.535c-3.212-4.381-4.563-3.294-6.155,1.514c-0.949-0.995-1.841-2.143-2.717-3.202
			c-0.271,0.992-1.07,1.254-0.715,2.804c-1.57-2.062-7.05-7.287-4.976-1.401c-2.16-4.048-3.514-1.488-3.791,1.509
			c-0.362-0.46-0.958-0.9-1.282-1.396"/>
		<path style="fill:none;stroke:#17192D;stroke-width:3;" d="M1012.138,707.931c-0.356-1.71-1.519-1.287-4.199-2.153
			c-7.919-3.695-17.536-9.535-4.813-16.13c2.934-1.332,8.37-2.651,11.538-1.17c5.541,2.583,3.273,5.383,1.909,9.953
			c-1.234,3.473-4.613,8.645-5.172,11.085c-0.507,4.391,1.975,9.406,1.468,13.798c0.051,1.952-0.444,3.842-1.184,5.426
			c0.614-0.486,0.677-1.037,0.74-1.584"/>
		<path style="fill:none;stroke:#17192D;stroke-width:3;" d="M979.289,684.114c-0.36-1.709,0.114,1.406-2.145,1.701
			c-8.729,0.941-1.287-12.945,3.991-5.659c-0.125,1.098-1.109,2.375-2.269,2.796"/>
		<path style="fill:none;stroke:#17192D;stroke-width:3;" d="M1014.43,671.204c-0.306,0.245-3.969,0.656-5.424-1.179
			c-3.093-4.529,4.296-5.904,5.985-1.259c1.332,2.935-0.504,4.392-3.188,3.526"/>
		<path style="fill:none;stroke:#17192D;stroke-width:3;" d="M1009.34,734.588c-0.233-2.808,1.769-2.146,0.428-2.582
			c-2.438-0.558-8.124,4.195-10.87,3.877c-3.598-0.137-8.285-2.901-11.454-4.38c-18.261-10.45-24.85-25.673-8.304-41.288
			c10.292-9.656,30.476-20.677,45.034-14.27c17.726,7.886,14.218,28.62,7.083,42.257c-4.552,8.098-11.721,14.78-21.23,12.847
			c0.612-0.484,1.159-0.421,2.016-0.602"/>
		<path style="fill:none;stroke:#17192D;stroke-width:3;" d="M1063.058,830.622c2.077,1.277,2.546,7.373,0.879,9.281"/>
		<path style="fill:none;stroke:#17192D;stroke-width:3;" d="M1074.407,831.098c-0.854,2.155-0.49,4.34,0.095,6.407"/>
		<path style="fill:none;stroke:#17192D;stroke-width:3;" d="M1085.019,818.695c1.281,2.222,2.394,4.357,3.998,6.301"/>
		<path style="fill:none;stroke:#17192D;stroke-width:3;" d="M1093.716,810.798c2.014,1.383,3.396,3.654,4.92,5.573"/>
		<path style="fill:none;stroke:#17192D;stroke-width:3;" d="M1100.621,808.814c0.329,1.747,0.213,3.742,1.625,5.193"/>
		<path style="fill:none;stroke:#17192D;stroke-width:3;" d="M1114.027,813.145c0.703,1.151,1.63,2.112,2.734,2.817"/>
		<path style="fill:none;stroke:#17192D;stroke-width:3;" d="M1114.946,797.953c1.489,0.533,3.305,1.919,5.362,1.73"/>
		<path style="fill:none;stroke:#17192D;stroke-width:3;" d="M1119.93,788.515c0.488,1.058,1.288,1.438,2.375,1.109"/>
		<path style="fill:none;stroke:#17192D;stroke-width:3;" d="M1119.539,779.848c1.504,0.322,3.12-0.188,4.762-0.285"/>
		<path style="fill:none;stroke:#17192D;stroke-width:3;" d="M1118.98,767.825c1.126-1.563,3.038-0.403,5.003,0.02"/>
		<path style="fill:none;stroke:#17192D;stroke-width:3;" d="M1118.905,756.413c0.958,0.437,5.983,2.731,7.919,3.696"/>
		<path style="fill:none;stroke:#17192D;stroke-width:3;" d="M1144.104,800.761c1.428,1.036,3.075,2.319,4.752,2.219"/>
		<path style="fill:none;stroke:#17192D;stroke-width:3;" d="M1150.185,791.45c0.485,0.854,1.237,1.354,2.069,1.353"/>
		<path style="fill:none;stroke:#17192D;stroke-width:3;" d="M1154.238,785.243c0.762,0.108,1.422-0.064,2.017-0.601"/>
		<path style="fill:none;stroke:#17192D;stroke-width:3;" d="M1157.574,775.615c1.538,0.722,3.387,0.46,4.763-0.285"/>
		<path style="fill:none;stroke:#17192D;stroke-width:3;" d="M1097.779,859.939c0.896-1.364,1.34-2.969,1.361-4.571"/>
		<path style="fill:none;stroke:#17192D;stroke-width:3;" d="M1086.938,855.072c0.621,1.806,0.577,3.795,1.626,5.195"/>
		<path style="fill:none;stroke:#17192D;stroke-width:3;" d="M1082.641,860.976c-2.282,1.803-5.157-2.601-6.45-4.362"/>
		<path style="fill:none;stroke:#17192D;stroke-width:3;" d="M1074.376,867.529c-1.905-0.045-3.936-0.469-5.364-1.73"/>
		<path style="fill:none;stroke:#17192D;stroke-width:3;" d="M1053.431,870.673c0.848,2.249,2.562,4.384,4.981,5.025"/>
		<path style="fill:none;stroke:#17192D;stroke-width:3;" d="M1021.488,805.242c2.14-0.845,2.865-3.666,5.026-4.982"/>
		<path style="fill:none;stroke:#17192D;stroke-width:3;" d="M1017.509,793.938c1.902-0.986,3.535-2.281,4.898-3.886"/>
		<path style="fill:none;stroke:#17192D;stroke-width:3;" d="M967.28,795.372c2.329,1.109,2.257,3.689,2.66,5.867"/>
		<path style="fill:none;stroke:#17192D;stroke-width:3;" d="M954.96,793.671c-1.583,1.627-1.914,4.402-1.857,6.458"/>
		<path style="fill:none;stroke:#17192D;stroke-width:3;" d="M938.007,791.159c-1.536,2.046-3.069,4.094-4.602,6.143"/>
		<path style="fill:none;stroke:#17192D;stroke-width:3;" d="M926.016,769.749c-0.737-2.405-0.723-4.811-0.274-7.264"/>
		<path style="fill:none;stroke:#17192D;stroke-width:3;" d="M941.081,771.765c-1.252-1.354-2.476-2.935-2.787-4.771"/>
		<path style="fill:none;stroke:#17192D;stroke-width:3;" d="M981.354,743.316c1.24-0.885,3.508-2.951,4.235-5.352"/>
		<path style="fill:none;stroke:#17192D;stroke-width:3;" d="M975.083,739.812c0.625-0.834,1.035-1.867,1.173-2.926"/>
		<path style="fill:none;stroke:#17192D;stroke-width:3;" d="M969.913,736.433c0.396-1.658,1.09-3.227,1.666-4.814"/>
		<path style="fill:none;stroke:#17192D;stroke-width:3;" d="M964.982,733.362c0.525-1.25,1.036-2.485,1.541-3.717"/>
		<path style="fill:none;stroke:#17192D;stroke-width:3;" d="M958.964,727.661c1.327-1.054,2.654-2.107,3.981-3.159"/>
		<path style="fill:none;stroke:#17192D;stroke-width:3;" d="M1045.625,711.795c1.084,0.83,2.14,1.21,3.229,0.931"/>
		<path style="fill:none;stroke:#17192D;stroke-width:3;" d="M1048.211,706.256c0.801-0.087,1.521-0.502,2.079-1.149"/>
		<path style="fill:none;stroke:#17192D;stroke-width:3;" d="M1049.521,699.729c1.062-0.593,1.989-1.501,2.514-2.492"/>
		<path style="fill:none;stroke:#17192D;stroke-width:3;" d="M1050.037,692.839c1.769-0.372,2.895-1.789,3.188-3.526"/>
		<path style="fill:none;stroke:#17192D;stroke-width:3;" d="M1047.695,684.224c-0.193-1.414,0.277-3.047,0.263-4.698"/>
		<path style="fill:none;stroke:#17192D;stroke-width:3;" d="M1041.583,672.116c0.943-2.551,1.738-5.168,2.292-7.806"/>
		<path style="fill:none;stroke:#17192D;stroke-width:3;" d="M1037.17,662.149c0.123-0.263,0.247-0.526,0.371-0.792"/>
		<path style="fill:none;stroke:#17192D;stroke-width:3;" d="M1019.638,623.69c-0.489,1.089-0.251,1.951,0.844,2.323"/>
		<path style="fill:none;stroke:#17192D;stroke-width:3;" d="M1025.17,628.781c-0.131-1.27,0.103-2.41,0.688-3.54"/>
		<path style="fill:none;stroke:#17192D;stroke-width:3;" d="M1033.487,638.639c0.482-0.392,0.919-1.839,0.93-3.23"/>
		<path style="fill:none;stroke:#17192D;stroke-width:3;" d="M930.211,673.166c-0.248,0.467-0.049,0.786-0.661,0.959
			c-0.48-0.497-1.153-1.127-1.472-1.763"/>
		<path style="fill:none;stroke:#17192D;stroke-width:3;" d="M928.343,667.665c-1.422-0.919-2.737-2.447-2.852-4.22"/>
		<path style="fill:none;stroke:#17192D;stroke-width:3;" d="M931.362,660.782c-1.356-1.105-2.858-2.312-2.85-4.223"/>
		<path style="fill:none;stroke:#17192D;stroke-width:3;" d="M1074.021,916.532c-1.438-1.816,0.844-0.177,2.535-0.531
			c7.305-1.358,14.42-1.086,20.827-4.197c5.498-2.386,28.839-16.462,25.011-23.776"/>
		<path style="fill:none;stroke:#17192D;stroke-width:3;" d="M1171.216,824.666c3.528-6.738,20.433-10.285,27.265-14.72
			c9.799-6.291,22.269-16.675,16.592-29.427"/>
	</g>
	<path style="fill:none;stroke:#17192D;stroke-width:3;" d="M2048,0"/>
	<path style="fill:none;stroke:#17192D;stroke-width:3;" d="M2048,1536"/>
	<path style="fill:none;stroke:#17192D;stroke-width:3;" d="M0,1536"/>
	<path style="fill:none;stroke:#17192D;stroke-width:3;" d="M0,0"/>
</g>
<g id="Layer_1">
</g>
</svg>
