<?xml version="1.0" encoding="iso-8859-1"?>
<!-- Generator: Adobe Illustrator 15.1.0, SVG Export Plug-In . SVG Version: 6.00 Build 0)  -->
<!DOCTYPE svg PUBLIC "-//W3C//DTD SVG 1.1//EN" "http://www.w3.org/Graphics/SVG/1.1/DTD/svg11.dtd">
<svg version="1.1" xmlns="http://www.w3.org/2000/svg" xmlns:xlink="http://www.w3.org/1999/xlink" x="0px" y="0px" width="2048px"
	 height="1536px" viewBox="0 0 2048 1536" style="enable-background:new 0 0 2048 1536;" xml:space="preserve">
<g id="a2a_x5F_zehen_x5F_h">
	<g>
		<path style="fill:none;stroke:#17192D;stroke-width:3;" d="M1011.128,890.849c0,0-4.908,0.576-6.506,2.743
			c-3.969,5.379-10.644,9.055-17.143,10.111c-5.588,0.908-10.935,3.027-16.364,4.773c-5.189,1.669-12.215,3.857-17.694,3.431
			c-5.368-0.423-9.628-1.61-11.872-6.688c-2.127-4.808-2.033-7.719,2.831-10.564c4.318-2.519,9.796-1.98,14.153-4.191
			c2.305-1.168,4.386-2.788,6.793-3.771c1.031-0.426,2.285-0.564,3.392-0.81c2.513-0.556,4.511-1.799,6.924-2.485"/>
		<path style="fill:none;stroke:#17192D;stroke-width:3;" d="M975.747,854.638c-3.967,1.485-15.614,1.983-15.362,8.922"/>
		<path style="fill:none;stroke:#17192D;stroke-width:3;" d="M950.47,889.826c-1.486-3.717,0.25-6.443,3.471-8.426
			c3.716-1.982,7.434-3.221,11.398-3.965c3.222-0.744,5.206-2.231,7.931-3.221"/>
		<path style="fill:none;stroke:#17192D;stroke-width:3;" d="M973.27,862.815c0.246-0.742-5.949,0.496-7.435,0.744
			c-4.215,1.238-8.426,3.715-11.151,7.186"/>
		<path style="fill:none;stroke:#17192D;stroke-width:3;" d="M971.038,869.261c-4.709-0.251-21.062,2.475-18.091,9.663"/>
	</g>
	<path style="fill:none;stroke:#17192D;stroke-width:3;" d="M2048,0"/>
	<path style="fill:none;stroke:#17192D;stroke-width:3;" d="M2048,1536"/>
	<path style="fill:none;stroke:#17192D;stroke-width:3;" d="M0,1536"/>
	<path style="fill:none;stroke:#17192D;stroke-width:3;" d="M0,0"/>
</g>
<g id="Layer_1">
</g>
</svg>
