<svg xmlns="http://www.w3.org/2000/svg" width="2048" height="1536" viewBox="0 0 2048 1536"><g fill="none" stroke="#17192D" stroke-width="3"><path d="M719.34 547.733c17.397-1.84 37.457-8.19 49.94-20.88 4.71-4.912 10.235-9.004 14.944-13.917 2.048-2.046 4.093-3.89 5.937-6.142.818-1.024 2.66-4.093 2.66-4.5M793.845 502.907c7.166-3.07 17.4.204 25.177-1.23 3.48-.61 8.188-2.045 8.802-6.342.614-3.277-2.25-4.71-3.275-7.37M857.502 457.466c1.23 1.23 2.457 4.093 2.253 6.345-.41 6.755-8.6 3.482-12.895 2.868 1.43 6.55 3.683 15.146-5.732 16.17-2.252.202-2.252 0-4.094 1.024-1.64 1.02-2.866 2.25-4.913 3.07-2.25.817-5.936 1.228-7.573.614M832.737 471.384c.407-2.66 8.187-7.573 10.438-9.416 4.914-4.502 8.6-10.85 11.258-16.784M804.49 485.507c-.82-2.66 2.25-8.392 3.275-11.054 1.024-2.456 2.455-13.304 3.886-13.915M712.38 547.934c14.33-11.054 26.61-26.2 35.615-42.167 7.78-13.508 19.246-32.743 11.466-45.84-.408-.823-7.78-5.33-8.597-5.33 4.092-7.778 8.185-13.92 4.91-22.514-4.093-10.646-8.47-18.066-8.47-18.066 19.678 4.836 24.026-3.626 28.532-9.355 6.14-7.78.817-21.296-2.866-28.662 5.727-.41 11.05 1.23 13.917-5.323 1.634-3.684.817-8.597-1.637-11.46M799.167 302.312c4.093-3.682 9.823-2.864 15.146-2.864-4.503-13.1-18.423-21.698-12.69-37.663 2.454-6.14 6.14-11.053 3.685-18.01-2.048-7.372-11.054-11.463-17.604-7.78.817-10.643-13.918-20.88-22.925-22.515-9.416-1.637-22.106 3.684-24.564 13.507-6.958-9.003-21.696-15.965-32.34-10.23-9.007 5.32-15.145 19.238-13.1 28.654M725.48 551.21c-2.864 10.643-15.965 4.503-21.697 1.636-5.728-2.864-7.367-.41-13.918 2.456-4.502 1.64-8.188 1.64-13.098 2.05-9.825.408-20.468-2.052-30.294-3.28-11.874-1.23-27.432-11.465-36.435-18.016-37.254-26.2-51.988-70.813-50.76-114.62.225-8.07 1.698-17.17 3.632-25.05 2.1-8.55 8.884-15.09 11.065-23.582-4.076-.737-9.66-4.025-11.74-7.847-1.812-3.326-2.882-7.58-1.397-11.232 1.592-3.926 6.06-5.923 2.943-10.887M564.71 337.878c-2.58-4.52-6.13-8.065-11.94-6.454 4.193-3.224 5.165-9.03 11.293-9.677 4.515-.323 9.357 3.548 12.257 7.097-1.29-5.16.648-10.32 6.13-12.257 5.164-1.937 10.32 1.61 14.84 4.192-5.164-14.838 3.87-32.905 11.612-45.486 7.745-12.58 23.55-22.26 37.744-26.775 8.39-2.58 17.742-3.228 26.452-2.58 5.165.32 17.424 1.933 20.325 3.223M748.424 415.2c-3.412-4.435-6.142-7.847-11.94-7.506-3.755 0-9.213 1.706-9.554 6.143M751.27 325.648c-2.455-6.14-2.045-13.92-.407-20.467 1.227-4.506 6.957-22.926-3.686-19.65M681.676 533.2c-5.32 1.226-9.005 2.456-14.735-.412M779.926 356.658c-7.062-3.992-12.28-6.754-15.66-14.738-2.762-6.754-3.683-13.508 1.23-19.34 5.22-6.14 12.586-8.905 20.57-10.44 7.982-1.536 13.203 0 20.878 1.842 7.982 1.842 14.736 1.228 19.035 8.597 2.15 3.684 3.99 7.368 3.376 11.666-.613 3.07-3.377 4.913-3.377 7.675M843.79 339.976c1.228-2.046 15.352 15.148 17.193 17.4 5.527 6.96 11.463 16.374 13.103 25.38 2.046 9.415 1.43 19.447 2.66 28.86 1.227 9.62 2.864 19.447 0 29.064-2.255 6.962-8.8 13.305-15.967 14.943 0 .408 0 .82.203 1.228M789.784 348.75v-4.04c-7.504 1.157-17.89-8.653-13.85-15.58 7.5-10.96 24.813 2.885 27.698-4.614M799.015 339.52c1.732-5.195 17.31-8.655 17.31-1.73M812.287 325.094c3.462 0 6.347 1.73 8.654 4.037M824.98 295.667c0-2.884 3.46-7.5 6.922-8.078M794.978 488.386c-1.733-13.846 8.08-21.924 6.923-34.62M2048 0M2048 1536M0 1536M0 0"/></g></svg>