<svg xmlns="http://www.w3.org/2000/svg" width="2048" height="1536" viewBox="0 0 2048 1536"><g fill="none" stroke="#17192D" stroke-width="3"><path d="M876.54 376.9c2.724-1.634 6.537-2.178 9.262-3.266M1230.93 359.81c-2.76-3.68 14.71-47.816 19.308-56.09 11.95-24.826 45.974-46.895 73.556-33.1h.92c-4.598-15.63-9.194-28.503-21.148-40.452-13.79-11.957-30.343-32.187-46.89-39.537-29.422-13.79-61.605-14.71-92.862-14.71M866.26 463.503c16.572.322 28.712 5.406 45.156 2.054 12.8-2.296 34.416-15.036 44.59-13.562M909.58 465.624c23.853-1.778 48.073 6.548 71.934 4.772 32.088-2.994 37.565-29.875 58.072-48.092M810.747 254.987c6.434-4.597 9.192-13.793 14.708-19.31 6.44-5.515 16.55-18.107 25.747-20.865 21.536-7.18 33.007-13.883 56.37-28.484 21.143-13.79 53.964-15.906 79.707-12.23 26.662 3.68 43.21 10.09 66.196 22.964M1165.648 181.43s1.836-.918-1.84-2.755c28.502 11.03 45.974 45.973 54.247 73.555 4.6 17.472 4.6 32.183 1.84 48.728-1.84 11.034-8.273 24.828-9.193 33.104M1167.484 438.874c-10.11-.92-18.382 21.15-26.66 27.583-12.875 12.874-34.94 14.71-52.41 8.276M1116.92 448.072c-9.198 16.547-34.94 29.418-53.328 27.58-11.036 0-17.47-.92-29.42 0-11.954.92-22.99-1.838-32.185-9.196M1086.578 379.11c0-5.517 1.837-10.112 2.76-15.63M1140.824 471.054c14.71 0 34.017 4.598 44.13-5.516M810.618 284.83c10.352-17.434 37.048-21.792 55.025-14.164 25.062 10.354 34.87 33.234 34.324 58.84 0 8.172-1.092 15.8-3.813 23.968-2.727 6.54-8.72 13.075-10.352 19.616M1026.927 177.938c1.696-3.384 38.09 1.69 44.865 8.462M1164.055 179.628c-11.85-13.54-47.4-11.85-63.487-5.074M1120.04 189.79c-18.624-19.468-44.02-12.697-66.024-12.697M1174.217 442.875c-2.542 1.693-3.384 4.23-3.384 7.616M2048 0M2048 1536M0 1536M0 0"/></g></svg>