<?xml version="1.0" encoding="iso-8859-1"?>
<!-- Generator: Adobe Illustrator 15.1.0, SVG Export Plug-In . SVG Version: 6.00 Build 0)  -->
<!DOCTYPE svg PUBLIC "-//W3C//DTD SVG 1.1//EN" "http://www.w3.org/Graphics/SVG/1.1/DTD/svg11.dtd">
<svg version="1.1" xmlns="http://www.w3.org/2000/svg" xmlns:xlink="http://www.w3.org/1999/xlink" x="0px" y="0px" width="2048px"
	 height="1536px" viewBox="0 0 2048 1536" style="enable-background:new 0 0 2048 1536;" xml:space="preserve">
<g id="a2a_x5F_zehen_x5F_v">
	<g>
		<path style="fill:none;stroke:#17192D;stroke-width:3;" d="M1455.518,917.168c0.131-0.194-0.391-0.707,0.688-0.321
			c-2.668,1.904-4.036,5.706-6.023,8.263c-2.03,2.619-4.857,4.218-7.115,6.406c-2.033,1.967-1.378,1.418-2.393,3.718
			c-1.031,2.341-1.732,4.349-3.21,6.443c-1.674,2.37-3.938,5.13-5.927,7.309c-3.843,4.219-13.982,7.773-17.3,1.428
			c-2.006-3.837,2.525-16.271,7.143-16.377"/>
		<path style="fill:none;stroke:#17192D;stroke-width:3;" d="M1372.778,926.406c-1.197,0.191-5.62,5.012-7.716,6.327
			c-2.778,1.735-2.615,2.803-4.586,5.407c-1.754,2.323-4.815,4.779-6.659,7.031c-1.834,2.249-3.789,3.332-5.036,6.147
			c-2.812,6.352-1.17,10.767,5.924,12.849c2.434,0.715,6.396,0.842,8.836,0.1c2.86-0.869,4.978-4.137,8.033-4.124"/>
		<path style="fill:none;stroke:#17192D;stroke-width:3;" d="M1378.804,939.258c-8.717,2.378-9.944,12.544-6.417,18.876
			c1.895,3.405,2.276,3.771,6.816,4.018c3.56,0.194,6.902-2.101,10.045-1.608"/>
		<path style="fill:none;stroke:#17192D;stroke-width:3;" d="M1389.647,942.874c0.282-0.064,0.056-0.698,0.735-0.35
			c-6.844,3.936-4.488,11.401-4.279,17.146c5.65,3.631,15.747,2.707,18.404-4.346"/>
		<path style="fill:none;stroke:#17192D;stroke-width:3;" d="M1402.901,935.645c-2.679,3.512-5.134,16.325-0.711,19.988
			c5.689,4.716,11.505-3.644,15.173-5.935"/>
	</g>
	<path style="fill:none;stroke:#17192D;stroke-width:3;" d="M2048,0"/>
	<path style="fill:none;stroke:#17192D;stroke-width:3;" d="M2048,1536"/>
	<path style="fill:none;stroke:#17192D;stroke-width:3;" d="M0,1536"/>
	<path style="fill:none;stroke:#17192D;stroke-width:3;" d="M0,0"/>
</g>
<g id="Layer_1">
</g>
</svg>
