<svg xmlns="http://www.w3.org/2000/svg" width="2048" height="1536" viewBox="0 0 2048 1536"><g fill="none" stroke="#17192D" stroke-width="3"><path d="M835.12 736.317c-14.715-34.94-30.344-79.07-33.105-117.688-2.753-34.02-11.03-72.637-4.593-106.656M882.85 730.375c3.117-.117 7.65-.065 9.955 2.292M859.656 736.78c-1.038-3.67 15.03-7.69 16.34-4.017M861.803 560.86c1.992-1.26 16.35-2.876 16.6.537M800.483 597.274c-1.653-2.945 4.682-6.006 4.82-8.837M835.804 738.6c4.327 12.075 8.203 23.756 8.815 36.613.302 6.368 1.32 13.116 1.958 19.41.6 5.892.092 11.7 2.88 17.133 6.12 11.92 18.32 12.7 30.436 11.618 11.48-1.026 23.976 5.16 35.158.237 10.448-4.6 12.95-19.767 11.966-30.106-.763-8.062-19.95-16.076-22.467-6.157-1.353 5.328 1.595 8.34 5.188 11.82.312-1.785 2.57-2.392 4.015-3.483-1.51.67-2.547 2.17-3.98 2.983-.61 2.34-1.507 6.603-.13 8.726-.25-.832-.525-1.643-.988-2.504 1.01 2.238 3.064 4.477 4.744 6.15-5.874-7.64-13.564-14.772-23.97-9.855-1.15-4.63-4.627-7.27-7.728-10.64 1.45-8.484-7.475-14.616-10.316-21.992M895.7 743.23c5.793 3.013 8.383 10.803 13.777 14.464 2.926 1.986 5.757 3.933 7.75 7.056 1.838 2.876 3.787 5.02 6.33 7.36 3.723 3.424 15.775 9.742 6.26 13.84-3.44 1.482-6.62 1.988-10.386.462-3.565-1.447-7.437-3.538-10.837-5.433-5.912-3.307-11.275-6.89-16.95-10.397-3.13-1.94-4.777-4.882-7.646-7.008-2.16-1.602-7.466-1.636-10.22-1.81-1.836-.113-3.653-.017-5.378-.278-1.606-.238-3.592-1.018-5.247-.398M866.318 770.806c1.91-.68 3.52-2.726 5.366-3.662 1.725-.877 3.164-1.976 4.804-3.343M859.54 822.114c1.838 6.918 12.6 7.75 18.31 7.465 3.625-.182 7.56-1.93 11.296-1.374 4.19.616 7.797 1.543 12.26 1.367 4.748-.188 10.902-2.598 13.505-7.008M878.296 775.554c1.318-1.98 1.576-4.34 3.22-6.097 1.077-1.15 3.225-2.173 3.593-3.814.292-.05.568-.024.87-.034M887.044 550.253c.987 14.895 6.57 30.836 9.833 45.854 10.113 41.373 4.597 84.59.92 125.964v9.194M891.362 465.55c2.76 24.82 4.597 43.212-2.76 67.117-.808 2.828-1.3 5.733-1.538 8.702M2048 0M2048 1536M0 1536M0 0"/></g></svg>