<?xml version="1.0" encoding="iso-8859-1"?>
<!-- Generator: Adobe Illustrator 15.1.0, SVG Export Plug-In . SVG Version: 6.00 Build 0)  -->
<!DOCTYPE svg PUBLIC "-//W3C//DTD SVG 1.1//EN" "http://www.w3.org/Graphics/SVG/1.1/DTD/svg11.dtd">
<svg version="1.1" xmlns="http://www.w3.org/2000/svg" xmlns:xlink="http://www.w3.org/1999/xlink" x="0px" y="0px" width="2048px"
	 height="1536px" viewBox="0 0 2048 1536" style="enable-background:new 0 0 2048 1536;" xml:space="preserve">
<g id="a2a_x5F_kopf">
	<g>
		<path style="fill:none;stroke:#17192D;stroke-width:3;" d="M719.34,547.733c17.397-1.841,37.457-8.19,49.94-20.879
			c4.711-4.913,10.235-9.005,14.944-13.918c2.048-2.046,4.093-3.889,5.937-6.142c0.817-1.024,2.66-4.093,2.66-4.501"/>
		<path style="fill:none;stroke:#17192D;stroke-width:3;" d="M793.845,502.907c7.166-3.07,17.399,0.204,25.177-1.229
			c3.479-0.612,8.188-2.046,8.802-6.343c0.614-3.277-2.251-4.71-3.275-7.37"/>
		<path style="fill:none;stroke:#17192D;stroke-width:3;" d="M857.502,457.466c1.229,1.229,2.457,4.093,2.253,6.345
			c-0.411,6.754-8.599,3.481-12.895,2.867c1.431,6.549,3.683,15.146-5.732,16.169c-2.252,0.203-2.252,0-4.094,1.025
			c-1.639,1.02-2.866,2.249-4.913,3.069c-2.251,0.818-5.937,1.229-7.574,0.615"/>
		<path style="fill:none;stroke:#17192D;stroke-width:3;" d="M832.737,471.384c0.407-2.66,8.187-7.573,10.438-9.416
			c4.914-4.502,8.599-10.849,11.258-16.784"/>
		<path style="fill:none;stroke:#17192D;stroke-width:3;" d="M804.49,485.507c-0.82-2.66,2.25-8.392,3.275-11.054
			c1.024-2.456,2.455-13.304,3.886-13.915"/>
		<path style="fill:none;stroke:#17192D;stroke-width:3;" d="M712.381,547.934c14.328-11.054,26.608-26.201,35.614-42.167
			c7.779-13.508,19.246-32.743,11.466-45.841c-0.409-0.822-7.781-5.328-8.598-5.328c4.092-7.779,8.185-13.92,4.911-22.515
			c-4.094-10.646-8.472-18.066-8.472-18.066c19.679,4.836,24.027-3.626,28.533-9.355c6.139-7.779,0.817-21.296-2.866-28.662
			c5.728-0.41,11.051,1.229,13.918-5.323c1.634-3.684,0.817-8.597-1.637-11.46"/>
		<path style="fill:none;stroke:#17192D;stroke-width:3;" d="M799.167,302.312c4.093-3.682,9.823-2.864,15.146-2.864
			c-4.503-13.101-18.423-21.698-12.689-37.663c2.453-6.141,6.138-11.053,3.684-18.01c-2.048-7.372-11.054-11.463-17.604-7.78
			c0.817-10.643-13.918-20.879-22.925-22.515c-9.415-1.637-22.105,3.684-24.563,13.507c-6.958-9.003-21.696-15.965-32.339-10.229
			c-9.008,5.318-15.146,19.237-13.101,28.653"/>
		<path style="fill:none;stroke:#17192D;stroke-width:3;" d="M725.479,551.209c-2.863,10.644-15.964,4.504-21.696,1.637
			c-5.728-2.864-7.367-0.409-13.918,2.456c-4.502,1.64-8.188,1.64-13.098,2.049c-9.825,0.409-20.468-2.051-30.294-3.28
			c-11.874-1.23-27.432-11.464-36.435-18.015c-37.254-26.2-51.988-70.813-50.76-114.619c0.225-8.07,1.698-17.172,3.632-25.051
			c2.099-8.549,8.884-15.089,11.065-23.582c-4.076-0.737-9.66-4.025-11.74-7.847c-1.812-3.326-2.882-7.58-1.397-11.232
			c1.592-3.926,6.061-5.923,2.943-10.887"/>
		<path style="fill:none;stroke:#17192D;stroke-width:3;" d="M564.709,337.878c-2.58-4.519-6.13-8.065-11.938-6.454
			c4.192-3.224,5.164-9.031,11.292-9.677c4.515-0.323,9.357,3.548,12.257,7.097c-1.29-5.161,0.648-10.321,6.131-12.257
			c5.163-1.937,10.32,1.611,14.84,4.192c-5.165-14.837,3.87-32.904,11.611-45.485c7.745-12.581,23.55-22.259,37.744-26.775
			c8.39-2.58,17.742-3.227,26.452-2.58c5.165,0.321,17.424,1.934,20.325,3.224"/>
		<path style="fill:none;stroke:#17192D;stroke-width:3;" d="M748.424,415.201c-3.412-4.436-6.142-7.848-11.941-7.507
			c-3.754,0-9.212,1.706-9.553,6.143"/>
		<path style="fill:none;stroke:#17192D;stroke-width:3;" d="M751.27,325.648c-2.455-6.139-2.045-13.919-0.407-20.467
			c1.227-4.507,6.957-22.927-3.686-19.65"/>
		<path style="fill:none;stroke:#17192D;stroke-width:3;" d="M681.676,533.2c-5.32,1.226-9.005,2.456-14.735-0.412"/>
		<path style="fill:none;stroke:#17192D;stroke-width:3;" d="M779.926,356.658c-7.062-3.992-12.28-6.754-15.659-14.738
			c-2.763-6.754-3.684-13.508,1.229-19.341c5.219-6.14,12.586-8.904,20.57-10.439c7.982-1.536,13.203,0,20.878,1.842
			c7.982,1.842,14.736,1.228,19.035,8.597c2.15,3.685,3.992,7.369,3.377,11.667c-0.613,3.07-3.377,4.913-3.377,7.675"/>
		<path style="fill:none;stroke:#17192D;stroke-width:3;" d="M843.79,339.976c1.228-2.046,15.352,15.148,17.193,17.399
			c5.527,6.961,11.463,16.375,13.103,25.382c2.046,9.414,1.431,19.446,2.659,28.86c1.228,9.62,2.865,19.446,0,29.063
			c-2.254,6.962-8.8,13.305-15.966,14.943c0,0.408,0,0.819,0.204,1.228"/>
		<path style="fill:none;stroke:#17192D;stroke-width:3;" d="M789.784,348.751c0-1.154,0-2.884,0-4.041
			c-7.504,1.157-17.889-8.653-13.85-15.579c7.5-10.961,24.813,2.884,27.698-4.615"/>
		<path style="fill:none;stroke:#17192D;stroke-width:3;" d="M799.015,339.519c1.732-5.194,17.31-8.654,17.31-1.73"/>
		<path style="fill:none;stroke:#17192D;stroke-width:3;" d="M812.287,325.094c3.462,0,6.347,1.731,8.654,4.037"/>
		<path style="fill:none;stroke:#17192D;stroke-width:3;" d="M824.981,295.667c0-2.884,3.459-7.499,6.921-8.078"/>
		<path style="fill:none;stroke:#17192D;stroke-width:3;" d="M794.978,488.386c-1.733-13.846,8.079-21.924,6.923-34.619"/>
	</g>
	<path style="fill:none;stroke:#17192D;stroke-width:3;" d="M2048,0"/>
	<path style="fill:none;stroke:#17192D;stroke-width:3;" d="M2048,1536"/>
	<path style="fill:none;stroke:#17192D;stroke-width:3;" d="M0,1536"/>
	<path style="fill:none;stroke:#17192D;stroke-width:3;" d="M0,0"/>
</g>
<g id="Layer_1">
</g>
</svg>
