<?xml version="1.0" encoding="iso-8859-1"?>
<!-- Generator: Adobe Illustrator 15.1.0, SVG Export Plug-In . SVG Version: 6.00 Build 0)  -->
<!DOCTYPE svg PUBLIC "-//W3C//DTD SVG 1.1//EN" "http://www.w3.org/Graphics/SVG/1.1/DTD/svg11.dtd">
<svg version="1.1" xmlns="http://www.w3.org/2000/svg" xmlns:xlink="http://www.w3.org/1999/xlink" x="0px" y="0px" width="2048px"
	 height="1536px" viewBox="0 0 2048 1536" style="enable-background:new 0 0 2048 1536;" xml:space="preserve">
<g id="a2a_x5F_arm_x5F_h">
	<g>
		<path style="fill:none;stroke:#17192D;stroke-width:3;" d="M835.119,736.317c-14.714-34.941-30.343-79.071-33.104-117.688
			c-2.753-34.018-11.031-72.636-4.593-106.655"/>
		<path style="fill:none;stroke:#17192D;stroke-width:3;" d="M882.851,730.375c3.116-0.117,7.648-0.065,9.954,2.292"/>
		<path style="fill:none;stroke:#17192D;stroke-width:3;" d="M859.656,736.78c-1.038-3.671,15.029-7.69,16.339-4.017"/>
		<path style="fill:none;stroke:#17192D;stroke-width:3;" d="M861.803,560.859c1.992-1.259,16.349-2.875,16.601,0.538"/>
		<path style="fill:none;stroke:#17192D;stroke-width:3;" d="M800.483,597.274c-1.653-2.945,4.682-6.006,4.821-8.837"/>
		<path style="fill:none;stroke:#17192D;stroke-width:3;" d="M835.804,738.6c4.327,12.075,8.203,23.756,8.815,36.613
			c0.303,6.368,1.32,13.116,1.959,19.41c0.6,5.892,0.092,11.701,2.88,17.133c6.121,11.921,18.319,12.7,30.436,11.618
			c11.481-1.026,23.976,5.16,35.158,0.237c10.448-4.602,12.949-19.768,11.966-30.107c-0.763-8.062-19.949-16.076-22.467-6.157
			c-1.354,5.328,1.594,8.339,5.187,11.819c0.312-1.784,2.571-2.391,4.015-3.482c-1.511,0.671-2.547,2.169-3.981,2.983
			c-0.609,2.341-1.506,6.603-0.128,8.726c-0.25-0.832-0.526-1.643-0.989-2.504c1.009,2.239,3.064,4.478,4.744,6.15
			c-5.873-7.64-13.563-14.771-23.968-9.854c-1.15-4.631-4.628-7.271-7.729-10.641c1.449-8.483-7.475-14.615-10.316-21.991"/>
		<path style="fill:none;stroke:#17192D;stroke-width:3;" d="M895.7,743.23c5.793,3.013,8.383,10.803,13.777,14.464
			c2.926,1.986,5.757,3.933,7.749,7.056c1.839,2.876,3.788,5.019,6.332,7.359c3.722,3.425,15.774,9.743,6.259,13.841
			c-3.44,1.482-6.621,1.988-10.386,0.462c-3.566-1.447-7.438-3.538-10.838-5.433c-5.912-3.306-11.275-6.89-16.95-10.396
			c-3.131-1.94-4.777-4.882-7.646-7.008c-2.161-1.602-7.466-1.636-10.221-1.81c-1.835-0.113-3.652-0.017-5.377-0.278
			c-1.605-0.238-3.591-1.018-5.246-0.398"/>
		<path style="fill:none;stroke:#17192D;stroke-width:3;" d="M866.318,770.806c1.909-0.679,3.52-2.726,5.366-3.662
			c1.725-0.877,3.164-1.976,4.804-3.343"/>
		<path style="fill:none;stroke:#17192D;stroke-width:3;" d="M859.539,822.114c1.839,6.918,12.6,7.75,18.311,7.465
			c3.625-0.181,7.559-1.928,11.296-1.373c4.189,0.616,7.797,1.543,12.26,1.367c4.748-0.188,10.902-2.598,13.505-7.008"/>
		<path style="fill:none;stroke:#17192D;stroke-width:3;" d="M878.296,775.554c1.318-1.98,1.576-4.34,3.22-6.097
			c1.077-1.149,3.225-2.173,3.593-3.814c0.293-0.051,0.569-0.024,0.871-0.034"/>
		<path style="fill:none;stroke:#17192D;stroke-width:3;" d="M887.044,550.253c0.987,14.895,6.569,30.836,9.833,45.854
			c10.113,41.373,4.597,84.589,0.919,125.964c0,2.758,0,7.353,0,9.193"/>
		<path style="fill:none;stroke:#17192D;stroke-width:3;" d="M891.362,465.549c2.759,24.822,4.597,43.213-2.761,67.118
			c-0.807,2.828-1.3,5.733-1.537,8.702"/>
	</g>
	<path style="fill:none;stroke:#17192D;stroke-width:3;" d="M2048,0"/>
	<path style="fill:none;stroke:#17192D;stroke-width:3;" d="M2048,1536"/>
	<path style="fill:none;stroke:#17192D;stroke-width:3;" d="M0,1536"/>
	<path style="fill:none;stroke:#17192D;stroke-width:3;" d="M0,0"/>
</g>
<g id="Layer_1">
</g>
</svg>
