<?xml version="1.0" encoding="iso-8859-1"?>
<!-- Generator: Adobe Illustrator 15.1.0, SVG Export Plug-In . SVG Version: 6.00 Build 0)  -->
<!DOCTYPE svg PUBLIC "-//W3C//DTD SVG 1.1//EN" "http://www.w3.org/Graphics/SVG/1.1/DTD/svg11.dtd">
<svg version="1.1" xmlns="http://www.w3.org/2000/svg" xmlns:xlink="http://www.w3.org/1999/xlink" x="0px" y="0px" width="2048px"
	 height="1536px" viewBox="0 0 2048 1536" style="enable-background:new 0 0 2048 1536;" xml:space="preserve">
<g id="a2a_x5F_arm_x5F_v">
	<g>
		<path style="fill:none;stroke:#17192D;stroke-width:3;" d="M1160.338,281.52c6.875,1.99,13.894,2.802,19.105,10.249
			c5.514,9.195,5.514,15.63,13.794,24.824c15.629,15.63,28.499,31.262,38.612,50.569c9.194,18.389,12.871,36.776,15.634,56.083
			c0.917,9.2,3.679,19.31,1.838,28.503c-0.921,5.517-0.921,15.636-3.682,11.031"/>
		<path style="fill:none;stroke:#17192D;stroke-width:3;" d="M974.704,245.582c13.164-12.293,42.012-14.495,57.628-14.495
			c20.229,0.918,40.454,11.03,60.686,15.627c24.823,5.516,40.454,22.063,62.52,33.099"/>
		<path style="fill:none;stroke:#17192D;stroke-width:3;" d="M1114.262,370.926c-1.899-0.561-4.294-1.139-7.452-1.926
			c-22.067-5.517-42.296-15.009-63.443-20.524c-25.742-7.361-42.293-11.656-59.764-34.643
			c-11.031-13.792-23.904-45.972-12.873-63.441"/>
		<path style="fill:none;stroke:#17192D;stroke-width:3;" d="M1188.638,470.438c-8.275-22.985-17.47-40.454-34.938-57.923
			c-9.194-10.113-18.39-18.394-25.745-29.422c-3.756-6.262-5.43-9.492-7.512-11.494"/>
		<path style="fill:none;stroke:#17192D;stroke-width:3;" d="M1188.635,475.498c-0.065,2.628,1.432,4.852,2.123,7.32
			c0.863,3.105,0.701,6.813,0.893,10.047c0.359,6.044,0.43,12.095,0.43,18.194c0,3.192,0.191,6.343,0.289,9.514
			c0.059,2.171-0.32,4.571,0.031,6.711c0.546,3.321,2.159,6.29,3.692,9.21c0.958,1.823,1.679,3.667,2.445,5.627
			c1.053,2.671,1.438,5.674,2.613,8.289c1.033,2.294,2.56,4.666,4.274,6.469c2.118,2.223,6.975,5.543,10.044,5.302"/>
		<path style="fill:none;stroke:#17192D;stroke-width:3;" d="M1206.433,541.944c0.647,1.504,1.46,3.031,2.44,4.342
			c0.889,1.184,2.229,2.211,2.877,3.548c1.265,2.62,2.291,5.426,3.896,7.897c2.535,3.89,4.282,8.042,9.869,8.035"/>
		<path style="fill:none;stroke:#17192D;stroke-width:3;" d="M1219.346,543.094c0.607,3.788,3.918,7.364,5.573,10.774
			c1.23,2.537,1.065,5.55,2.895,7.782c1.334,1.63,3.954,3.971,5.849,4.841c3.39,1.561,6.556,1.917,9.651-0.436"/>
		<path style="fill:none;stroke:#17192D;stroke-width:3;" d="M1234.129,544.53c1.344,0.513,2.459,3.386,3.127,4.585
			c0.824,1.499,1.708,2.979,2.506,4.482c1.254,2.364,1.216,5.162,3.229,7.118c2.584,2.517,6.786,3.924,10.398,3.479
			c6.514-0.802,10.411-5.252,13.892-10.483"/>
		<path style="fill:none;stroke:#17192D;stroke-width:3;" d="M1256.803,548.548c1.686-0.825,3.946-1.969,5.885-1.868"/>
		<path style="fill:none;stroke:#17192D;stroke-width:3;" d="M1253.217,554.576c1.541-0.696,1.795-3.145,2.151-4.593"/>
		<path style="fill:none;stroke:#17192D;stroke-width:3;" d="M1246.759,541.944c1.614-0.55,7.853,2.45,8.467,4.02"/>
		<path style="fill:none;stroke:#17192D;stroke-width:3;" d="M1252.785,539.508c0.935-1.444,1.053-3.382,1.754-4.958
			c0.842-1.908,1.54-3.061,1.834-5.101c0.335-2.352,1.506-6.549-0.575-8.454"/>
		<path style="fill:none;stroke:#17192D;stroke-width:3;" d="M1234.558,468.469c1.237,0.68,2.849,0.512,4.273,0.819
			c1.571,0.336,3.798,1.457,4.912,2.624"/>
	</g>
	<path style="fill:none;stroke:#17192D;stroke-width:3;" d="M1246.899,465.884c0.723-0.173,0.718,4.416,0.718,5.336
		c0,1.263,0.152,2.629,0,3.886c-0.119,0.969-0.517,1.794-0.43,2.833"/>
	<path style="fill:none;stroke:#17192D;stroke-width:3;" d="M2048,0"/>
	<path style="fill:none;stroke:#17192D;stroke-width:3;" d="M2048,1536"/>
	<path style="fill:none;stroke:#17192D;stroke-width:3;" d="M0,1536"/>
	<path style="fill:none;stroke:#17192D;stroke-width:3;" d="M0,0"/>
</g>
<g id="Layer_1">
</g>
</svg>
