<svg xmlns="http://www.w3.org/2000/svg" width="2048" height="1536" viewBox="0 0 2048 1536"><g fill="none" stroke="#17192D" stroke-width="3"><path d="M1160.338 281.52c6.875 1.99 13.894 2.802 19.105 10.25 5.514 9.194 5.514 15.63 13.794 24.823 15.63 15.63 28.5 31.262 38.612 50.57 9.193 18.388 12.87 36.775 15.633 56.082.917 9.2 3.68 19.31 1.838 28.503-.92 5.517-.92 15.636-3.68 11.03M974.704 245.582c13.164-12.293 42.012-14.495 57.628-14.495 20.23.918 40.454 11.03 60.686 15.627 24.823 5.516 40.454 22.063 62.52 33.1M1114.262 370.926c-1.9-.56-4.294-1.14-7.452-1.926-22.067-5.517-42.296-15.01-63.443-20.524-25.742-7.36-42.293-11.656-59.764-34.643-11.03-13.792-23.904-45.972-12.873-63.44M1188.638 470.438c-8.275-22.985-17.47-40.454-34.938-57.923-9.194-10.113-18.39-18.394-25.745-29.422-3.756-6.262-5.43-9.492-7.512-11.494M1188.635 475.498c-.065 2.628 1.432 4.852 2.123 7.32.863 3.105.7 6.813.893 10.047.36 6.044.43 12.095.43 18.194 0 3.19.192 6.342.29 9.513.06 2.17-.32 4.57.03 6.71.547 3.322 2.16 6.29 3.693 9.21.958 1.824 1.68 3.668 2.445 5.628 1.053 2.672 1.438 5.675 2.613 8.29 1.034 2.294 2.56 4.666 4.275 6.47 2.118 2.222 6.975 5.542 10.044 5.3M1206.433 541.944c.647 1.504 1.46 3.03 2.44 4.342.89 1.184 2.23 2.21 2.877 3.548 1.265 2.62 2.29 5.426 3.896 7.897 2.535 3.89 4.282 8.043 9.87 8.036M1219.346 543.094c.607 3.788 3.918 7.364 5.573 10.774 1.23 2.537 1.064 5.55 2.894 7.782 1.334 1.63 3.954 3.97 5.85 4.84 3.39 1.562 6.555 1.918 9.65-.435M1234.13 544.53c1.343.513 2.458 3.386 3.126 4.585.824 1.5 1.708 2.98 2.506 4.482 1.254 2.364 1.216 5.162 3.23 7.118 2.583 2.517 6.785 3.924 10.397 3.48 6.513-.803 10.41-5.253 13.89-10.484M1256.803 548.548c1.686-.825 3.946-1.97 5.885-1.868M1253.217 554.576c1.54-.696 1.795-3.145 2.15-4.593M1246.76 541.944c1.613-.55 7.852 2.45 8.466 4.02M1252.785 539.508c.935-1.444 1.053-3.382 1.754-4.958.84-1.908 1.54-3.06 1.833-5.1.335-2.353 1.506-6.55-.575-8.455M1234.558 468.47c1.237.68 2.85.51 4.273.818 1.572.336 3.8 1.457 4.913 2.624M1246.9 465.884c.722-.173.717 4.416.717 5.336 0 1.263.152 2.63 0 3.886-.12.97-.517 1.794-.43 2.833M2048 0M2048 1536M0 1536M0 0"/></g></svg>