<?xml version="1.0" encoding="iso-8859-1"?>
<!-- Generator: Adobe Illustrator 15.1.0, SVG Export Plug-In . SVG Version: 6.00 Build 0)  -->
<!DOCTYPE svg PUBLIC "-//W3C//DTD SVG 1.1//EN" "http://www.w3.org/Graphics/SVG/1.1/DTD/svg11.dtd">
<svg version="1.1" xmlns="http://www.w3.org/2000/svg" xmlns:xlink="http://www.w3.org/1999/xlink" x="0px" y="0px" width="2048px"
	 height="1536px" viewBox="0 0 2048 1536" style="enable-background:new 0 0 2048 1536;" xml:space="preserve">
<g id="a2a_x5F_bein_x5F_h">
	<path style="fill:none;stroke:#17192D;stroke-width:3;" d="M1154.107,658.364c-0.138-4.589-2.382-9.186-1.17-13.757"/>
	<g>
		<path style="fill:none;stroke:#17192D;stroke-width:3;" d="M1048.213,623.6c0.536-2.05,1.07-4.157,1.587-6.352
			c2.762-15.634,0.922-33.102,0.922-47.81c0.922-33.104,6.434-64.363,19.307-93.787"/>
		<path style="fill:none;stroke:#17192D;stroke-width:3;" d="M973.225,854.993c16.928-8.189,31.497-22.216,41.494-37.842"/>
		<path style="fill:none;stroke:#17192D;stroke-width:3;" d="M1155.33,639.805c3.249-4.419,8.581-7.858,11.811-11.893
			c5.888-7.358,9.124-15.838,13.616-23.9c6.82-12.236,20.365-28.58,19.305-43.216"/>
		<path style="fill:none;stroke:#17192D;stroke-width:3;" d="M1155.33,639.805"/>
		<path style="fill:none;stroke:#17192D;stroke-width:3;" d="M1131.832,752.488c5.123-11.598,8.173-21.849,12.225-35.788"/>
		<path style="fill:none;stroke:#17192D;stroke-width:3;" d="M1016.754,889.332c5.537-0.922,30.677-14.091,33.438-15.928"/>
		<path style="fill:none;stroke:#17192D;stroke-width:3;" d="M1134.593,658.302c1.596-2.066,6.079-6.57,8.838-6.428"/>
		<path style="fill:none;stroke:#17192D;stroke-width:3;" d="M1087.732,658.302c2.502-0.847,2.621-2.82,3.742-4.828
			c1.043-1.868,2.472-3.497,3.548-5.35c2.049-3.535,4.12-8.108,3.15-12.317"/>
	</g>
	<path style="fill:none;stroke:#17192D;stroke-width:3;" d="M2048,0"/>
	<path style="fill:none;stroke:#17192D;stroke-width:3;" d="M2048,1536"/>
	<path style="fill:none;stroke:#17192D;stroke-width:3;" d="M0,1536"/>
	<path style="fill:none;stroke:#17192D;stroke-width:3;" d="M0,0"/>
</g>
<g id="Layer_1">
</g>
</svg>
