<svg xmlns="http://www.w3.org/2000/svg" width="2048" height="1536" viewBox="0 0 2048 1536"><g fill="none" stroke="#17192D" stroke-width="3"><path d="M928.626 701.35c1.102 1.408-1.604 4.335-1.874 6.377.532-.59 1.57-.98 2.155-1.537.93 1.928-.295 4.508-.78 6.432 3.235-3.936 3.565 1.026 2.5 3.638.46-.53 1.183-.848 1.67-1.295.117 2.12-.69 4.048-.824 6.11.474-.548 1.216-.86 1.71-1.344.577 1.97.114 4.313.633 6.356.54-.73 1.71-1.372 2.228-2.125.56 2.137.06 4.706.88 6.64.553-.764 1.59-1.417 1.963-2.415.383 1.957-.004 4.3.95 6.09.4-.396 1.135-.666 1.534-1.064.596 1.674.785 3.433 1.938 4.796.924-.816 1.82-1.4 2.238-2.645 1.992 1.66 1.415 4.37 2.613 6.264.34-.62 1.04-1.087 1.316-1.902.32.95 1.12 2.317 1.315 3.332.922-.9 1.8-1.897 2.56-2.896 1.148 1.832.488 4.04 2.128 5.653 1.06-.85 2.264-1.793 3.395-2.443 1.88 1.77 1.226 5.364 1.816 7.784 1.145-.885 1.582-2.475 1.82-3.842.807 1.158 1.068 2.75 1.636 3.993 1.313-.863 1.688-2.368 2.778-3.443 1.08 1.22 2.094 2.587 3.176 3.81 1.523-1.028 2.484-2.51 4.022-3.538 1.626 1.653 2.035 3.98 2.918 6.034 1.795-1.172 1.68-3.326 3.052-4.8 1.536 1.508 1.308 3.736 2.423 5.428 1.606-1.423 1.342-3.645 2.83-5.102 4.066 4.653 3.28 3.693 7.263-.26 1.594 1.522 1.638 3.826 2.12 5.653 1.246-1.513 1.883-3.787 3.12-5.335 1.465 1.388 1.942 3.418 2.743 5.212 1.886-1.723 2.023-4.88 3.78-6.906 1.206.9 1.982 2.457 2.707 3.708 1.095-1.174 1.592-2.66 2.92-3.67 1.15 1.064 1.91 2.516 2.306 4.017 2.63-1.397 2.513-5.07 4.173-7.17 1.657 1.52 2.42 3.644 3.86 5.32 1.32-1.418 1.113-3.45 1.645-5.24 2.94 1.276 6.683 1.493 9.45-.09-.83-.902-1.44-2.174-2.29-3.066 3.1-.77 6.454-.315 9.467-1.092-5.03-7.093 1.625-2.568 5.548-4.937-2.678-6.678 2.438-2.745 6.07-6.822-4.178-4.81 3.977-4.68 6.313-6.5-.907-.338-1.275-1.23-2.707-1.192 1.325-.985 2.78-1.73 4.03-2.846-.636-.052-1.916-.757-2.564-.808 1.66-1.452 3.36-3.313 5.73-3.163-.836-.29-1.576-1.14-2.415-1.458.952-1.047 2.303-1.808 3.492-2.413-.464-.153-1.47-1.143-1.934-1.32 1.135-1.01 2.413-1.943 3.53-2.973-5.58 1.62-2.982-2.075-.052-4.312-5.42.103-3.246-3.758.274-4.842-1.277.703-2.91.907-4.367.696 1.097-2 3.385-3.392 5.226-4.657-.998 1.818-3.55.843-4.598-.868 1.46-2.026 3.94-4.397 6.455-4.744-2.212-1.304-4.926-1.083-6.676-3.083 1.657-1.737 4.024-2.4 5.848-3.782-1.4-2.094-4.003-2.494-5.428-4.517.922-.505 1.667-1.702 2.59-2.205-1.263-2.024-3.817-1.295-5.01-3.36.218-.314.52-.448.76-.748-1.438-1.698-3.262-2.894-4.608-4.734.665.04.7-.188 1.528.12-1.383-2.405-4.08-2.103-6.143-3.38.78-.316 1.462-1.168 2.24-1.417-.816-.887-2.044-1.512-3.296-1.735 1.076-.637 1.433-1.64 2.098-2.35-1.83.056-3.807 1.05-5.72 1.532-1.112-1.854.853-4.085.53-6.208-.902.842-2.19 1.465-3.093 2.302-.446-1.91.156-4.075-.7-5.778-1.146.79-2.24 1.753-3.39 2.54-.266-1.796.324-3.894.45-5.666-1.368.923-2.66 2.05-4.016 3.007-.62-1.804-.915-4.782-3.334-2.342-.897-.986-1.188-2.245-.953-3.558-.446.495-1.373.812-1.853 1.29-1.06-1.587-.59-3.44-1.622-5.04-4.944 3.71-4.354 1.604-5.808-2.99-1.27.476-2.533 1.4-3.588 2.31-.022-.863-.504-2.125-.15-3.195-1.463 1-2.854 2.215-4.307 3.236-.922-1.916.352-4.398-.33-6.566-1.344.936-2.632 2.068-3.98 3.008-.896-1.013-1.185-2.287-.957-3.582-1.977 1.453-4.54 3.754-4.697-.264-6.76 5.737-2.307-3.73-3.398-6.78-1.246.867-2.442 1.91-3.69 2.775-.092-1.948.374-6.45-3.077-4.55-.327-.572-1.166-1.083-1.47-1.664-.788.917-1.697 1.648-1.976 2.93-.948.387-1.124-.096-1.98 1.463-.793-1.115-1.677-2.2-2.58-3.202-.9.91-1.623 1.137-1.94 2.534-2.888-1.362-3.332 2.98-4.71 4.594-.792-1.056-1.043-2.44-.888-3.792-.68 1.646-1.042 3.443-2.545 4.504-.434-.96-1.406-1.835-1.54-3.035-.15 1.377-.746 2.69-1.63 3.57-.544-.624-1.75-1.19-2.23-2.12-.12 1.043-.794 2.548-.916 3.656-2.25-4.578-3.37 1.483-5.05 2.47-2.01-4.35-3.51-.512-3.405 2.117-1.494-1.03-2.378-1.66-3.82-1.72-1.195-.048-1.14 3.617-3.48.752-.35.854-1.247 1.513-1.332 2.798-2.51-.703-3.178-1.296-5.454-.882-.3.052-1.457 1.672-3.022 1.348-.012 1.767.965 3.35 2.077 4.633-2.097-.82-4.723-1.05-6.848-1.343 1.24 2.494 3.42 2.68 5.195 4.224-3.96 1.52-.086 3.275-.982 5.757-.963 2.665-3 .673-5.245.16.318 1.967 1.893 3.78 3.268 5.332-.653-.307-1.43-.384-2.072-.68.25 1.8 4.052 7.743-1.248 6.555.724.313 1.568 1.27 2.174 1.613-1.205.09-2.337.822-3.332 1.28.946 1.913 2.91 2.425 4.088 4.086-1.14 1.446-2.98 2.092-4.37.703 1.094 1.046 2.246 2.033 3.07 3.32-1.433.54-.972 1.045-2.694.344 1.894 1.23 3.255 3.333 4.568 5.162-1.313.52-2.76-.16-3.89-1.303 5.157-.174 3.902 7.176.566 4.378-.08 1.165-.114 10.363-3.277 4.858.62.55 1.075 1.404 1.555 2.05-1.196.145-1.768.517-3.147-.27-.22.888-1.164 2.035-2.06 2.932-.34-.483-1-.938-1.29-1.457.098.898-.344 2.346-.305 3.205-.345-.597-1.014-1.15-1.378-1.78.037-.205.043-.202.027 0-.154.2-.14 1.065-.124 1.32-.43-.203-.65-.676-1.267-.39-.204 2.512 1.366 5.584.33 7.886.134.208.52.612.576.832-1.888-2.408-3.6-4.35-3.442-7.436-.64 1.34-1.496 2.54-2.704 3.38-.572-1.12-.38-2.458.396-3.63-1.97 1.29-4.22 2.756-6.652 2.183.257-1.804 1.34-3.608 2.5-5.113-1.57.288-3.515 1.247-5.093 1.56 1.037-2.056 2.73-3.878 3.312-6.127-1.566.72-3.135 2.37-4.535 2.855 3.038-3.318-2.335-4.847-4.617-5.833.692-.413 1.283-1.378 2-1.765-1.777-.644-3.805.03-5.667-.318 1.302-1.478 3.16-2.304 4.707-3.41-1.794-.895-3.993-.193-5.91-.622 1.2-1.087 2.58-2.102 3.784-3.176-2.287-.3-5.606-.273-7.04-2.25 1.364-1.19 3.246-1.183 4.792-1.94-1.195-1.066-2.853-1.435-3.977-2.69.567-.15 1.35-.99 1.914-1.175-.498-1.317-1.12-2.633-1.9-3.834 1-.39 2.625-.028 3.698.466-.78-1.147-1.69-2.284-2.52-3.385.978-1.4 2.394-1.62 3.815-.785-1.212-1.413-2.79-2.773-2.198-4.534.83 1.203 1.803 2.437 3.07 2.978-.58-1.826-2.026-4.407-2.786-5.823 5.4 5.468 2.61-2.527 3.162-5.35 1.116 1.218 2.125 2.614 3.232 3.84.2-1.68-.62-3.875-.75-5.757 1.322 1.598 2.186 3.44 4.353 3.49.504-2.66-1.14-5.47.027-8.012.523.92 1.653 1.7 2.235 2.597.32-.853 1.113-2.19 1.183-3.313.514.915 1.653 1.697 2.232 2.587 1.383-.895 1.95-2.664 2.67-3.967.872 1.02 1.154 2.552 1.197 3.88.966-.872 1.667-2.06 2.03-3.366.19.87.13 2.73.422 3.94 1.662-1.5 1.954-3.91 3.698-5.284 1.276 1.323.912 3.102 1.708 4.49.98-1.3 1.458-3.33 2.973-3.823-.08.923.492 2.286.424 3.13.753-.96 1.684-2.244 2.344-3.23.14 1.196.08 2.673-.155 3.97 1.178-.74 2.074-2.02 2.82-3.096.224.937.768 2.262.687 3.416.448-.413 1.083-.49 1.542-1.208.694 1.386.306 3.072-.23 4.622M997.49 622.806c.408.156.706.195 1.014.54.408-2.712.606-5.312 1.555-7.9 1.398 1.33 2.202 3.204 2.993 4.86 1.65-1.642 1.578-7.115 2.2-9.638 1.512 1.688 1.164 4.292 2.688 5.914 1.18-1.607 1.706-3.59 2.82-5.247.822 1.126.958 2.64.958 4.1 1.975-1.353 1.437-3.877 2.67-5.853.24 1.415.236 2.938.527 4.316 1.042-.732 2.047-1.66 2.836-2.61.098.58.504 1.324.584 1.892 1.26-1.168 1.586-2.574 2.967-3.674-.01.43-.044.99-.086 1.49.69-.99 1.584-1.508 2.133-2.67.11.782 1.118 2.037 1.344 2.807.75-.84 1.97-1.38 2.527-2.363-.044.906.652 1.98.776 2.735.73-.837 1.814-1.666 2.25-2.645.142.818 1.107 2.004 1.358 2.775 1.092-.69 2.076-1.6 2.792-2.573 1.347 1.596 2.985 7.1 4.382 1.112.882 1.96.378 4.435 1.778 6.356.703-.837 1.885-1.372 2.43-2.31 1.003 1.49.874 3.567 1.31 5.28 1.38-.8 2.338-2.03 3.46-3.07.31 2.28-1.105 4.614.024 6.813.455-.496 1.36-.808 1.823-1.295 1.853 1.655-.09 4.7 1.142 6.92.907-.814 2.086-1.004 3.01-1.728-.11.947-5.93 7.386.923 5.705-2.31 1.383-4.52 3.8-3.188 6.476 1.645-.186 4.3-2.39 4.402-2.49-1.427.878-2.504 1.797-2.87 3.26 1.58.243 3.18-.59 4.87-.36-.764 2.25-3.177 4.18-4.397 5.86 1.412-.673 2.82-1.483 4.197-1.71-.97 1.728-3.146 2.89-4.872 3.94 1.062.47.912 1.004 2.47.856-1.426 1.513-3.396 2.11-4.94 3.496 3.308-1.898 3.306 1.64.368 2.337 1.27-1.376 1.717-1.237 2.82.07-1.542 1.635-3.536 2.965-5.785 2.67M924.788 806.65c1.487-.48 2.843-1.835 4.248-2.815.878 1.047 1.81 2.154 2.688 3.2 2.104-1.232 2.237-3.892 3.915-5.454 2.232 1.646 1.22 4.368 2.36 6.465 2.27-1.144 2.672-3.788 4.756-5.145 1.09 1.232 2.097 2.604 3.19 3.832 1.097-.817 2.254-1.685 3.346-2.506 1.23 1.132 2.104 2.716 2.89 4.078.385-1.23.582-2.865 1.25-3.875 1.28 1.26 1.668 3.213 1.707 4.98.698-.95 1.545-2.13 2.255-3.146 1.002 1.02 1.582 2.455 2.076 3.7 1.53-1.09 1.288-2.963 2.43-4.306 1.422 1.154 1.576 3.18 1.96 4.84 1.18-1.348 1.333-3.465 2.818-4.5.953 1.487.72 3.424 1.56 5.002 1.365-1.043 2.024-2.805 3.254-3.934.292.844 1.19 1.756 1.334 2.778 1.308-1.078 1.4-2.9 2.703-3.98 1.2 1.25 1.636 3.032 2.31 4.503 1.274-1.303 1.47-3.144 2.512-4.737 1.763 1.515 1.2 3.943 2.607 5.653 2.4-1.78 2.005-5.22 4.15-7.16 1.233.967 1.895 2.675 2.32 4.034 1.397-1.45.915-3.728 2.033-5.497.825 1.158 1.29 2.614 1.757 3.98.925-.813 1.418-2.288 1.508-3.575 1.055.983 1.754 2.27 2.415 3.465.887-.97 1.612-2.226 2.044-3.502 1.026 1.082 2.176 1.395 3.534.736-.804 2.13-1.683 4.514-1.348 6.856 1.672-.836 2.487-2.62 3.776-3.816-.522 2.68-2.78 6-2.11 8.492 3.482-1.92 4.336-5.955 7.4-8.213.165.592-4.458 12.146 1.308 7.966.723 2.07-.36 4.808 1.443 6.668 1.557-1.1 3.046-2.4 4.602-3.508.065 2.96-1.393 5.73-1.582 8.7 2.113-.57 2.836-3.567 4.238-5.335.954 5.94-3.542 12.21 4.222 6.638 2.926 2.406-.708 8.292 2.17 10.21 2.158 1.44 6.26-3.496 7.478-5.504-1.077 2.503-3.557 6.964-1.81 9.388 1.363-.722 2.42-2.012 2.926-3.457-.63 2.022-.718 4.294-.227 6.3 1.276-.92 2.188-2.49 2.95-3.698.585 1.416.515 3.144.833 4.663 2.36-1.212 2.813-3.33 4.235-5.19.703 1.25 1.507 2.805 2.695 3.697 1.51-.586 2.955-1.555 4.163-2.64.242 1.854-1.01 3.96-.405 5.645.65-.497 1.5-.582 2.113-.978-.055 1.23-1.052 4.228.19 5.12 1.58 1.137 3.952-2.29 5.36.76-1.777 1.664-12.638 6.545-9.572 9.175 1.517 1.306 7.293-2.134 9.38-2.057-1.018.767-4.86 1.343-5.312 2.772-.552 1.747 1.012 2.174 2.402 1.747-1.102 2.164-3.336 3.743-4.807 5.77 1.627 2.086 4.247-.98 6.364-.646-1.596 4.074-6.576 5.93-8.307 10.19 1.453.308 4.69-2.783 5.668-2.147 1.77 1.147-2.684 5.637-2.75 7.087 1.39-.33 2.567-1.255 3.644-2.188.508 2.34-4.263 5.436-1.75 7.71.48-.462 1.35-.796 1.79-1.272-.816 3.642-2.024 8.395-1.58 12.108.614-1.14 1.354-2.41 2.02-3.48.064 2.895-1.853 6.626.025 9.302 1.594-.996 1.863-2.896 1.805-4.71-.746 4.12-.017 8.303 1.515 12.087 1.686-2.18.703-5.388 1.725-7.804 1.52 3.12.82 7.37 2.736 10.22 2.298-1.217 2.243-4.414 3.055-6.658 1.18 3.03.98 6.588 3.036 9.307 2.695-1.146 1.9-4.232 2.112-6.57 1.677 1.91 1.25 4.61 2.805 6.48.168-3.233-.308-7.674 2.368-10.026.24.93 1.107 2.332 1.26 3.375 2.132-2.31 2.267-6.044 3.336-8.91.124.807 1.047 1.943 1.296 2.702 1.66-1.185 1.744-3.796 3.107-5.31.814 1.192 1.183 2.686 1.54 4.184 1.656-1.808 1.042-4.65 3.415-6.11.294.584 1.185 1.09 1.478 1.67 1.412-.81 2.78-2.098 3.712-3.3.696 1.204 1.19 2.567 2.074 3.7 2.285-1.26 2.704-4.414 4.31-6.298 2.106 1.73 10.105-2.724 12.136-4.25-.35-.165-.76-.38-1.195-.532 5.36-.98 11.965-4.09 15.966 1.468-.158-.198-4.162-4.23-3.724-5.278.902-2.165 3.836.045 5.224.41-.345-1.865-2.415-4.19-3.93-5.318 1.428-1.256 3.158-1.63 4.764-2.54-2.016-1.03-4.872.824-7.18.495.554-2.09 2.85-3.14 4.42-4.568-2.28-1.66-6.662.77-9.356.625 1.29-2.107 4.14-3.14 4.5-5.664-2.286-.702-4.608.912-6.727.97.77-2.56 2.725-4.697 1.613-7.444-2.26.23-4.214 1.794-5.96 3.202-.613-2.173 2.137-4.818 1.08-7.304-1.573.59-3.174 1.178-4.57 2.168 4.448-2.87 2.304-6.77-1.355-2.92 1.406-1.328 2.68-2.932 4.418-3.885-2.473-1.918-7.19-1.06-10.195-1.404 2.21-1.972 5.227-2.576 7.56-4.175-.775-1.775-2.665-2.436-4.473-1.888.55-.414 2.838-2.196 3.965-3.198-1.985-.813-4.48-.973-6.626-1.21 1.978-.665 3.998-1.39 5.896-2.172-1.327-1.494-3.625-1.973-5.335-3.126 1.113-1.34 2.783-2.226 4.53-2.346-2.044-.802-4.4-.57-6.59-1.002 1.788-.864 4.08-1.452 5.915-2.318-1.05-1.562-1.92-3.233-3.86-3.282 2.824-2.674 4.94-2.264 4.294-6.846 1.847 5.147 4.995 5.633 4.595-.646 1.91 4.5 3.726 1.244 4.27-1.396.493.918 1.632 1.65 2.166 2.545 1.962-1.132 1.782-3.81 2.293-5.692.932.59 3.086 3.825 4.307 3.446 2.038-.632.482-4.836.046-6.29 1.593 2.178 3.52 5.006 6.056 2.102 2.075 1.974.456 5.495 1.56 8.11.9-.85 2.14-1.472 3.054-2.29 2.9 2.57-.024 7.344 2.72 10.158 1.414-.97 1.85-2.695 2.657-3.99 1.522 1.713 1.146 4.15 2.406 5.97.84-.907 1.402-2.215 1.56-3.512.394 1.22.84 2.805 1.733 3.89.256-.743 1.245-2.085 1.428-3.034 1.527 1.73 2.887 3.68 4.43 5.383.726-1.43.206-3.555.163-5.38.923 1.178 1.84 2.386 2.82 3.495 1.47-1.29.778-3.35 2.238-4.537 1.422 1.608 2.7 3.408 4.125 5.01.672-1.888.533-4.154 1.017-6.075.298.554 1.062 1.08 1.426 1.6 3.285-.614 1.296-5.168 1.386-7.47 1.37 2.017 3.48 2.864 5.89 2.778-1.816-6.158 2.368-3.612 4.496-6.628.97-1.378-.863-3.687.98-5.21.817-.676 3.057-.347 4.134-.464-.552-2.757 2.833-5.64 5.226-6.486-.42-.134-.966-.582-1.443-.69 1.293-1.88 3.16-3.756 5.53-3.556-.59-.404-.948-1.15-1.604-1.538 2.007-3.11 5.46-4.29 8.128-6.57-.57.452-1.142.9-1.71 1.353 2.185-2.47 6.375-2.777 9.2-3.776-.392.233-.81.537-1.173.793 2.234-4.163 9.68-3.448 13.42-5.6-1.31-2.346-5.29-2.31-7.454-1.926 1.655-1.176 9.242-3.113 9.552-5.633.58-4.703-6.136.77-7.434 1.872 2.062-1.638 5.2-3.533 6.476-5.512-2.203.82-3.896 2.48-5.72 3.914 1.674-1.096 5.236-5.104 4.423-7.39-1.292-3.618-5.722.405-7.73 1.918 1.105-1.834 1.772-4.742 1.94-6.91-1.944.25-3.85 1.427-5.408 2.68.814-2.012 3.182-3.908 1.91-6.427-2.115.43-3.95 2.164-5.72 3.5-.788-1.25-1.524-2.89-1.98-4.234-1.596.44-2.812 1.553-4.075 2.65 1.13-1.878 2.075-4.408 2.035-6.52-3.18 1.367-6.407 3.26-9.05 5.5-.206-1.73-.603-3.688-1.36-5.26-1.604.99-2.58 2.57-3.72 4.03.003-.093-.492-.847-.688-1.522-1.314.922-2.596 2.044-3.918 2.93.106-1.375-.242-2.895-.953-4.075-2.39 1.752-5.33 3.57-6.987 6.035.403-1.18-.002-2.03-.033-2.928-1.516 1.123-2.975 3.254-4.27 3.918.712-1.337.487-1.876.308-3.28-1.54 1.075-3.018 2.38-4.546 3.452.228-.9-.107-2.095.03-2.89-1.64 1.213-3.485 3.08-5.203 3.578.113-1.133-.003-2.766-.605-3.92-1.447.91-2.25 2.363-3.387 3.643.354-2.877-2.325-6.57-5.226-3.94-.394-1.395-.62-3.015-1.13-4.458-.365.296-.877.533-1.235.83-.64-1.153-1.14-2.378-1.484-3.66-1.42.995-2.752 2.18-4.19 3.148.407-1.97 1.24-4.05.91-6.027-1.565 1.105-3.07 2.417-4.632 3.518-1.772-2.186-2.5-4.933-2.675-7.67-.568.697-1.863 1.096-2.465 1.778-2.092-2.087.06-5.432-1.31-7.775-1.243.86-2.448 1.897-3.7 2.745-.28-1.845.177-3.902-1.37-5.21-1.158.64-2.572 1.172-3.747 1.416-1.157-2.693.68-5.725-.683-8.507-1.882.712-3.453 2.354-5.142 3.55-.188-2.27 1.618-4.553 1.854-6.98-2.587-1-7.705-3.772-10.302-3.685 3.535 1.773 7.618 2.03 11.512 2.083-1.286-2.096-5.626-3.334-4.525-5.79 2.71.49 4.77 3.857 7.423 3.682-.2-1.234-.257-2.72-.144-3.792 3.742 1.644 12.29 5.326 6.177-1.897 2.516-.41 5.28 1.03 7.188 2.732-2.923-7.878 1.752-2.335 4.756-.94-.255-1.8-1.09-3.443-1.315-5.243 2.87-.177 5.27 2.583 7.905 3.144-1.05-1.312-3.496-4.1-2.353-5.592 1.514-1.98 4.28-.393 5.695.852-.958-1.188-1.947-2.384-2.816-3.616 2.315-.15 4.31 2.34 6.472 1.29-.47-2.322-2.538-4.068-3.145-6.383 2.045-1.097 4.73 1.426 6.602 2.16-1.935-4.265-1.34-3.934 2.853-5.265-.618-.727-.787-2.04-1.384-2.69 1.697-.257 3.398-.56 5.07-.854-1.327-.776-3.03-1.228-3.88-2.658 1.24-1.617 3.41-2.274 5.35-1.946-1.58-.78-3.52-1.165-4.595-2.64 1.688-1.497 3.555-2.836 5.27-4.307-1.49.067-3.115-.03-4.08-1.1 1.573-2.1 3.556-4.184 5.78-5.682-.876.948-4.38 3.138-5.02.95-.37-1.263 6.468-5.566 7.618-6.59-2.154-1.344-5.96 1.192-8.283 2.06 1.86-3.538 4.903-7.112 6.235-10.96-2.214.82-4.66 2.466-6.69 3.95 2.707-2.223 7.217-7.87 6.792-11.398-3.086.55-6.515 3.57-8.9 5.587 1.702-1.584 4.31-5.826 2.513-7.888-2.074.746-3.862 2.2-5.082 4.018.226-.82.007-1.83.14-2.592-1.768 1.245-3.466 2.704-4.914 4.23.27-5.962-3.208-4.502-6.376-.524-.96-1.147-.62-5.168-2.133-5.655-1.713-.543-3.87 3.23-4.34 4.425-.196-.82-.868-1.262-1.164-1.938-1.023.81-2.1 1.442-2.804 2.596-.357-.812-1.182-1.27-1.463-2.207-1.33.646-2.262 1.953-2.805 3.08-.405-.817-1.54-1.483-1.965-2.295-1.077.93-1.523 2.6-1.88 3.875-1.595-.87-2.602-2.79-3.863-4.19-2.457 1.12-1.414 4.467-1.618 6.667-1.828-.548-2.85-2.318-4.063-3.768-1.31 1.285-1.45 8.484-5.11 3.63.09 1.792.515 3.905-.636 5.284-.842-1.292-1.764-2.446-3.098-2.536-.798 5.916-6.315-2.6-6.717 5.954-1.612-.067-2.807-1.513-3.88-2.898-1.867 1.263-1.256 3.68-2.616 5.45-.75-.62-2.113-.894-2.84-1.613-1.605 1.19-1.878 3.28-3.04 4.76-1.02-1.132-1.954-2.417-2.973-3.552-.26 1.79-.438 3.852-.85 5.618-1.188-1.055-1.73-2.7-2.367-4.017-.654 1.295-.298 2.976-.77 4.597-.855-.23-3.093-2.125-3.92-1.972-1.93.358-2 3.663-2.85 5.146-1.233-.936-1.992-2.302-2.39-3.795 0 1.3-.253 2.728-.683 3.838-.687-.978-1.834-1.468-2.55-2.386.2.688-.015 1.55.5 2.505-1.422.558-2.66.072-3.43-1.288-.27-.45-.018.445-.035.597M894.113 768.308c-1.273.35-2.632.445-4.11.592.937 1.18 2.366 1.95 3.77 2.376-1.666 1.54-3.625 2.894-5.317 4.398 11.31-1.56 1.396 5.438-.497 8.784 4.155-.793 8.3-.74 5.865 4.873 5.394-4.368 2.926 2.03 2.963 4.495.53-.595 1.607-.95 2.16-1.535.697 1.78-.344 4.158.406 6.005 2-1.312 3.635-3.11 5.146-4.74.49.867.693 1.8.732 2.754M973.34 762.137c-.262.083-2.884-1.127-4.15-2.625-.39.893-1.386 2.2-1.75 3.267-1.154-1.1-1.62-2.697-2.323-4.016-1.227.826-1.787 2.55-2.38 3.74-1.723-1.706-2.048-4.07-2.6-6.295-1.066 1.167-1.532 2.818-1.963 4.313-1.447-1.562-1.558-3.813-2.943-5.398-1.28.78-1.86 2.275-1.99 3.718-2.1-2.378-4.426-9.67-5.967-2-1.52-2.963-2.58-.455-3.807-.923-1.676-.63-2.35-1.236-4.03-3.11-1.438.67-2.152 2.203-2.396 3.705-1.342-1.62-2.52-3.586-4.542-4.386-.594 1.054-1.354 1.114-1.514 2.534-3.212-4.38-4.563-3.294-6.155 1.514-.95-.995-1.842-2.143-2.718-3.202-.27.992-1.07 1.254-.715 2.804-1.57-2.062-7.05-7.287-4.976-1.4-2.16-4.05-3.513-1.49-3.79 1.508-.362-.46-.958-.9-1.282-1.396M1012.138 707.93c-.356-1.71-1.52-1.286-4.2-2.152-7.918-3.695-17.535-9.535-4.812-16.13 2.934-1.332 8.37-2.65 11.538-1.17 5.54 2.583 3.273 5.383 1.91 9.953-1.235 3.474-4.614 8.646-5.173 11.086-.506 4.39 1.976 9.406 1.47 13.798.05 1.952-.445 3.842-1.185 5.426.614-.486.677-1.037.74-1.584M979.29 684.114c-.36-1.71.113 1.406-2.146 1.7-8.73.942-1.287-12.944 3.99-5.658-.124 1.098-1.108 2.375-2.268 2.796M1014.43 671.204c-.306.245-3.97.656-5.424-1.18-3.093-4.528 4.296-5.903 5.985-1.258 1.333 2.935-.503 4.392-3.187 3.526M1009.34 734.588c-.233-2.808 1.77-2.146.428-2.582-2.438-.558-8.124 4.195-10.87 3.877-3.598-.137-8.285-2.9-11.454-4.38-18.26-10.45-24.85-25.673-8.304-41.288 10.292-9.656 30.476-20.677 45.034-14.27 17.726 7.886 14.218 28.62 7.083 42.257-4.552 8.098-11.72 14.78-21.23 12.847.612-.485 1.16-.422 2.016-.603M1063.058 830.622c2.077 1.277 2.546 7.373.88 9.28M1074.407 831.098c-.854 2.155-.49 4.34.095 6.407M1085.02 818.695c1.28 2.222 2.393 4.357 3.997 6.3M1093.716 810.798c2.014 1.383 3.396 3.654 4.92 5.573M1100.62 808.814c.33 1.747.214 3.742 1.626 5.193M1114.027 813.145c.703 1.15 1.63 2.112 2.734 2.817M1114.946 797.953c1.49.533 3.305 1.92 5.362 1.73M1119.93 788.515c.488 1.058 1.288 1.438 2.375 1.11M1119.54 779.848c1.503.322 3.12-.188 4.76-.285M1118.98 767.825c1.126-1.563 3.038-.403 5.003.02M1118.905 756.413c.958.437 5.983 2.73 7.92 3.696M1144.104 800.76c1.428 1.037 3.075 2.32 4.752 2.22M1150.185 791.45c.485.854 1.237 1.354 2.07 1.353M1154.238 785.243c.762.108 1.422-.064 2.017-.6M1157.574 775.615c1.538.722 3.387.46 4.763-.285M1097.78 859.94c.895-1.365 1.34-2.97 1.36-4.572M1086.938 855.072c.62 1.806.577 3.795 1.626 5.195M1082.64 860.976c-2.28 1.803-5.156-2.6-6.45-4.362M1074.376 867.53c-1.905-.046-3.936-.47-5.364-1.73M1053.43 870.673c.85 2.25 2.563 4.384 4.982 5.025M1021.488 805.242c2.14-.845 2.865-3.666 5.026-4.982M1017.51 793.938c1.9-.986 3.534-2.28 4.897-3.886M967.28 795.372c2.33 1.11 2.257 3.69 2.66 5.867M954.96 793.67c-1.583 1.628-1.914 4.403-1.857 6.46M938.007 791.16c-1.536 2.045-3.07 4.093-4.602 6.142M926.016 769.75c-.737-2.406-.723-4.812-.274-7.265M941.08 771.765c-1.25-1.354-2.475-2.935-2.786-4.77M981.354 743.316c1.24-.885 3.508-2.95 4.235-5.352M975.083 739.812c.625-.834 1.035-1.867 1.173-2.926M969.913 736.433c.396-1.658 1.09-3.227 1.666-4.814M964.982 733.362c.525-1.25 1.036-2.485 1.54-3.717M958.964 727.66l3.98-3.158M1045.625 711.795c1.084.83 2.14 1.21 3.23.93M1048.21 706.256c.802-.087 1.522-.502 2.08-1.15M1049.52 699.73c1.063-.594 1.99-1.502 2.515-2.493M1050.037 692.84c1.77-.373 2.895-1.79 3.188-3.527M1047.695 684.224c-.193-1.414.277-3.047.263-4.698M1041.583 672.116c.943-2.55 1.738-5.168 2.292-7.806M1037.17 662.15c.123-.264.247-.527.37-.793M1019.638 623.69c-.49 1.09-.25 1.95.844 2.323M1025.17 628.78c-.13-1.27.103-2.41.688-3.54M1033.487 638.64c.482-.393.92-1.84.93-3.23M930.21 673.166c-.247.467-.048.786-.66.96-.48-.498-1.153-1.128-1.472-1.764M928.343 667.665c-1.422-.92-2.737-2.447-2.852-4.22M931.362 660.782c-1.356-1.105-2.858-2.312-2.85-4.223M1074.02 916.532c-1.437-1.816.845-.177 2.536-.53 7.305-1.36 14.42-1.087 20.827-4.198 5.498-2.386 28.84-16.462 25.01-23.776M1171.216 824.666c3.528-6.738 20.433-10.285 27.265-14.72 9.8-6.29 22.27-16.675 16.593-29.427M2048 0M2048 1536M0 1536M0 0"/></g></svg>