<svg xmlns="http://www.w3.org/2000/svg" width="2048" height="1536" viewBox="0 0 2048 1536"><g fill="none" stroke="#17192D" stroke-width="3"><path d="M1460.792 912.39c7.084-11.854 7.084-30.994 11.514-45.577 4.43-17.315 17.714-40.104 10.63-57.423-3.546-9.114-12.4-12.76-16.83-18.228-6.202-8.202-5.313-13.672-6.202-24.614-2.658-21.872-5.312-42.837-7.972-63.8-5.315-57.423-15.943-132.163-52.255-176.825M1396.426 523.464c-2.756-18.388.92-38.614-1.836-57.002-2.76-22.067-11.03-43.218-15.63-64.367-4.597-21.143-16.552-39.53-20.228-60.68-3.678-22.064-7.355-41.374-22.07-58.844-3.675-3.676-7.353-8.273-11.95-11.95M1296.21 606.214c-5.516-8.275-14.716-14.713-20.23-24.825-8.272-15.63-9.19-34.94-14.706-52.41-4.6-16.55-9.194-34.018-14.714-50.57M1299.488 612.606M1373.443 817.684c-9.193-43.215-22.066-81.828-40.456-121.368-9.194-20.223-17.47-40.456-25.745-61.6-2.066-6.207-4.653-14.998-7.754-22.11M1377.12 920.66c-4.202-27.734 2.35-63.147-2.11-94.308M1318.203 563.67c-1.533-3.86-.104-10.642-.706-15.16-.555-4.183-2.123-10.6-4.915-13.757M1304.95 290.15c5.11-.882 9.385-10.052 14.46-10.04M1391.303 535.96c.564.255.337.31.06.128 2.355-2.55 3.693-6.75 3.96-10.17M1445.124 810.28c1.162-2.522 8.545-15.528 3.215-16.065M1404.96 798.23c.32-3.463-3.794-10.528 1.204-12.05M2048 0M2048 1536M0 1536M0 0"/></g></svg>