<svg xmlns="http://www.w3.org/2000/svg" width="2048" height="1536" viewBox="0 0 2048 1536"><g fill="none" stroke="#17192D" stroke-width="3"><path d="M1154.107 658.364c-.138-4.59-2.382-9.186-1.17-13.757M1048.213 623.6c.536-2.05 1.07-4.157 1.587-6.352 2.762-15.634.922-33.102.922-47.81.922-33.104 6.434-64.363 19.307-93.787M973.225 854.993c16.928-8.19 31.497-22.216 41.494-37.842M1155.33 639.805c3.25-4.42 8.58-7.858 11.81-11.893 5.89-7.358 9.125-15.838 13.617-23.9 6.82-12.236 20.365-28.58 19.305-43.216M1155.33 639.805M1131.832 752.488c5.123-11.598 8.173-21.85 12.225-35.788M1016.754 889.332c5.537-.922 30.677-14.09 33.438-15.928M1134.593 658.302c1.596-2.066 6.08-6.57 8.838-6.428M1087.732 658.302c2.502-.847 2.62-2.82 3.742-4.828 1.043-1.868 2.472-3.497 3.548-5.35 2.05-3.535 4.12-8.108 3.15-12.317M2048 0M2048 1536M0 1536M0 0"/></g></svg>