<svg xmlns="http://www.w3.org/2000/svg" width="2048" height="1536" viewBox="0 0 2048 1536"><g fill="none" stroke-width="3"><g stroke="#FF0050"><path d="M1471.044 650.846c7.084 11.852 7.084 30.993 11.517 45.576 4.43 17.317 17.714 40.106 10.627 57.423-3.544 9.115-12.4 12.76-16.828 18.228-6.203 8.203-5.315 13.673-6.203 24.614-2.66 21.873-5.313 42.837-7.972 63.802-5.315 57.422-15.944 132.16-52.255 176.823M1406.68 1039.77c-2.757 18.39.918 38.615-1.838 57.005-2.76 22.067-11.03 43.216-15.628 64.365-4.6 21.143-16.55 39.53-20.23 60.68-3.676 22.065-7.354 41.374-22.068 58.846-3.675 3.676-7.353 8.274-11.95 11.95M1306.464 957.02c-5.518 8.276-14.717 14.713-20.23 24.825-8.272 15.63-9.19 34.938-14.707 52.41-4.602 16.55-9.195 34.016-14.714 50.57M1309.74 950.63M1383.696 745.55c-9.194 43.215-22.067 81.83-40.456 121.368-9.195 20.225-17.468 40.456-25.745 61.603-2.067 6.205-4.653 14.998-7.754 22.11M1387.372 642.576c-4.202 27.733 2.35 63.146-2.108 94.308M1328.455 999.563c-1.533 3.862-.104 10.644-.705 15.163-.554 4.18-2.123 10.598-4.916 13.756M1315.202 1273.084c5.114.883 9.385 10.053 14.46 10.04M1401.555 1027.275c.565-.255.338-.312.062-.13 2.352 2.552 3.69 6.752 3.956 10.172M1455.377 752.955c1.162 2.522 8.544 15.53 3.215 16.067M1415.21 765.003c.32 3.464-3.792 10.53 1.207 12.05"/></g><path d="M2048 0M2048 1536M0 1536M0 0" stroke="#17192D"/></g></svg>