<?xml version="1.0" encoding="iso-8859-1"?>
<!-- Generator: Adobe Illustrator 15.1.0, SVG Export Plug-In . SVG Version: 6.00 Build 0)  -->
<!DOCTYPE svg PUBLIC "-//W3C//DTD SVG 1.1//EN" "http://www.w3.org/Graphics/SVG/1.1/DTD/svg11.dtd">
<svg version="1.1" xmlns="http://www.w3.org/2000/svg" xmlns:xlink="http://www.w3.org/1999/xlink" x="0px" y="0px" width="2048px"
	 height="1536px" viewBox="0 0 2048 1536" style="enable-background:new 0 0 2048 1536;" xml:space="preserve">
<g id="a2b_x5F_corpus">
	<path style="fill:none;stroke:#FF0050;stroke-width:3;" d="M886.793,1186.333c2.724,1.637,6.537,2.179,9.261,3.268"/>
	<g>
		<path style="fill:none;stroke:#FF0050;stroke-width:3;" d="M1241.184,1203.426c-2.761,3.679,14.709,47.816,19.307,56.092
			c11.95,24.823,45.974,46.892,73.555,33.098h0.92c-4.598,15.63-9.192,28.502-21.146,40.452
			c-13.79,11.957-30.345,32.186-46.895,39.536c-29.419,13.792-61.601,14.711-92.858,14.711"/>
		<path style="fill:none;stroke:#FF0050;stroke-width:3;" d="M876.514,1099.732c16.57-0.323,28.71-5.406,45.154-2.055
			c12.798,2.297,34.416,15.035,44.59,13.562"/>
		<path style="fill:none;stroke:#FF0050;stroke-width:3;" d="M919.832,1097.61c23.852,1.778,48.073-6.548,71.934-4.772
			c32.09,2.995,37.565,29.874,58.073,48.092"/>
		<path style="fill:none;stroke:#FF0050;stroke-width:3;" d="M820.998,1308.248c6.435,4.598,9.193,13.792,14.709,19.308
			c6.439,5.516,16.549,18.109,25.746,20.866c21.538,7.182,33.009,13.885,56.369,28.484c21.143,13.79,53.965,15.907,79.708,12.231
			c26.663-3.68,43.213-10.092,66.197-22.966"/>
		<path style="fill:none;stroke:#FF0050;stroke-width:3;" d="M1175.9,1381.805c0,0,1.837,0.918-1.839,2.756
			c28.502-11.03,45.973-45.973,54.249-73.554c4.598-17.473,4.598-32.185,1.837-48.729c-1.837-11.034-8.273-24.828-9.192-33.104"/>
		<path style="fill:none;stroke:#FF0050;stroke-width:3;" d="M1177.737,1124.362c-10.109,0.92-18.382-21.149-26.66-27.585
			c-12.875-12.872-34.938-14.71-52.411-8.276"/>
		<path style="fill:none;stroke:#FF0050;stroke-width:3;" d="M1127.171,1115.164c-9.196-16.549-34.938-29.42-53.327-27.581
			c-11.035,0-17.47,0.918-29.42,0c-11.953-0.919-22.989,1.838-32.184,9.194"/>
		<path style="fill:none;stroke:#FF0050;stroke-width:3;" d="M1096.831,1184.127c0,5.516,1.835,10.11,2.759,15.628"/>
		<path style="fill:none;stroke:#FF0050;stroke-width:3;" d="M1151.077,1092.182c14.71,0,34.016-4.599,44.13,5.516"/>
		<path style="fill:none;stroke:#FF0050;stroke-width:3;" d="M820.873,1278.405c10.35,17.433,37.045,21.791,55.025,14.163
			c25.061-10.354,34.867-33.233,34.321-58.84c0-8.171-1.089-15.799-3.813-23.969c-2.724-6.539-8.719-13.075-10.351-19.614"/>
		<path style="fill:none;stroke:#FF0050;stroke-width:3;" d="M1037.181,1385.297c1.694,3.385,38.088-1.691,44.863-8.463"/>
		<path style="fill:none;stroke:#FF0050;stroke-width:3;" d="M1174.307,1383.605c-11.846,13.54-47.397,11.852-63.487,5.076"/>
		<path style="fill:none;stroke:#FF0050;stroke-width:3;" d="M1130.291,1373.445c-18.621,19.467-44.018,12.697-66.022,12.697"/>
		<path style="fill:none;stroke:#FF0050;stroke-width:3;" d="M1184.47,1120.36c-2.543-1.693-3.383-4.232-3.383-7.616"/>
	</g>
	<path style="fill:none;stroke:#17192D;stroke-width:3;" d="M2048,0"/>
	<path style="fill:none;stroke:#17192D;stroke-width:3;" d="M2048,1536"/>
	<path style="fill:none;stroke:#17192D;stroke-width:3;" d="M0,1536"/>
	<path style="fill:none;stroke:#17192D;stroke-width:3;" d="M0,0"/>
</g>
<g id="Layer_1">
</g>
</svg>
