<?xml version="1.0" encoding="iso-8859-1"?>
<!-- Generator: Adobe Illustrator 15.1.0, SVG Export Plug-In . SVG Version: 6.00 Build 0)  -->
<!DOCTYPE svg PUBLIC "-//W3C//DTD SVG 1.1//EN" "http://www.w3.org/Graphics/SVG/1.1/DTD/svg11.dtd">
<svg version="1.1" xmlns="http://www.w3.org/2000/svg" xmlns:xlink="http://www.w3.org/1999/xlink" x="0px" y="0px" width="2048px"
	 height="1536px" viewBox="0 0 2048 1536" style="enable-background:new 0 0 2048 1536;" xml:space="preserve">
<g id="a2b_x5F_bein_x5F_v">
	<g>
		<path style="fill:none;stroke:#FF0050;stroke-width:3;" d="M1471.044,650.846c7.084,11.852,7.084,30.993,11.517,45.576
			c4.428,17.317,17.713,40.106,10.626,57.423c-3.544,9.115-12.399,12.76-16.828,18.228c-6.202,8.203-5.314,13.673-6.202,24.614
			c-2.659,21.873-5.313,42.837-7.972,63.802c-5.315,57.423-15.944,132.162-52.255,176.824"/>
		<path style="fill:none;stroke:#FF0050;stroke-width:3;" d="M1406.679,1039.771c-2.756,18.389,0.919,38.614-1.837,57.004
			c-2.761,22.067-11.031,43.216-15.628,64.365c-4.599,21.143-16.551,39.531-20.229,60.679c-3.677,22.066-7.355,41.375-22.069,58.847
			c-3.675,3.676-7.353,8.274-11.95,11.95"/>
		<path style="fill:none;stroke:#FF0050;stroke-width:3;" d="M1306.464,957.021c-5.518,8.275-14.717,14.712-20.231,24.824
			c-8.271,15.63-9.189,34.938-14.706,52.409c-4.602,16.55-9.195,34.017-14.714,50.571"/>
		<path style="fill:none;stroke:#FF0050;stroke-width:3;" d="M1309.741,950.629"/>
		<path style="fill:none;stroke:#FF0050;stroke-width:3;" d="M1383.696,745.55c-9.194,43.215-22.067,81.83-40.456,121.368
			c-9.195,20.225-17.468,40.456-25.745,61.603c-2.067,6.204-4.653,14.997-7.754,22.108"/>
		<path style="fill:none;stroke:#FF0050;stroke-width:3;" d="M1387.372,642.576c-4.202,27.733,2.351,63.146-2.108,94.308"/>
		<path style="fill:none;stroke:#FF0050;stroke-width:3;" d="M1328.455,999.563c-1.533,3.862-0.104,10.644-0.705,15.163
			c-0.554,4.18-2.123,10.598-4.916,13.756"/>
		<path style="fill:none;stroke:#FF0050;stroke-width:3;" d="M1315.202,1273.084c5.114,0.883,9.385,10.053,14.459,10.041"/>
		<path style="fill:none;stroke:#FF0050;stroke-width:3;" d="M1401.555,1027.275c0.565-0.255,0.338-0.312,0.062-0.129
			c2.352,2.551,3.69,6.751,3.956,10.171"/>
		<path style="fill:none;stroke:#FF0050;stroke-width:3;" d="M1455.377,752.955c1.162,2.522,8.544,15.529,3.215,16.067"/>
		<path style="fill:none;stroke:#FF0050;stroke-width:3;" d="M1415.211,765.003c0.32,3.464-3.793,10.531,1.206,12.05"/>
	</g>
	<path style="fill:none;stroke:#17192D;stroke-width:3;" d="M2048,0"/>
	<path style="fill:none;stroke:#17192D;stroke-width:3;" d="M2048,1536"/>
	<path style="fill:none;stroke:#17192D;stroke-width:3;" d="M0,1536"/>
	<path style="fill:none;stroke:#17192D;stroke-width:3;" d="M0,0"/>
</g>
<g id="Layer_1">
</g>
</svg>
