<svg xmlns="http://www.w3.org/2000/svg" width="2048" height="1536" viewBox="0 0 2048 1536"><g fill="none" stroke-width="3"><path d="M886.793 1186.333c2.724 1.637 6.537 2.18 9.26 3.268" stroke="#FF0050"/><g stroke="#FF0050"><path d="M1241.184 1203.426c-2.76 3.68 14.71 47.816 19.307 56.092 11.95 24.823 45.975 46.892 73.556 33.098h.92c-4.598 15.63-9.192 28.502-21.146 40.452-13.79 11.957-30.345 32.186-46.895 39.536-29.42 13.792-61.6 14.71-92.858 14.71M876.514 1099.732c16.57-.323 28.71-5.406 45.154-2.055 12.798 2.297 34.416 15.035 44.59 13.562M919.832 1097.61c23.852 1.778 48.073-6.548 71.934-4.772 32.09 2.995 37.565 29.874 58.073 48.092M820.998 1308.248c6.435 4.598 9.193 13.792 14.71 19.308 6.438 5.516 16.548 18.11 25.745 20.866 21.538 7.182 33.01 13.885 56.37 28.484 21.142 13.79 53.964 15.907 79.707 12.23 26.663-3.68 43.213-10.09 66.197-22.965M1175.9 1381.805s1.837.918-1.84 2.756c28.503-11.03 45.974-45.972 54.25-73.553 4.598-17.473 4.598-32.185 1.837-48.73-1.837-11.033-8.273-24.827-9.192-33.103M1177.737 1124.362c-10.11.92-18.382-21.15-26.66-27.585-12.875-12.872-34.938-14.71-52.41-8.276M1127.17 1115.164c-9.195-16.55-34.937-29.42-53.326-27.58-11.035 0-17.47.917-29.42 0-11.953-.92-22.99 1.837-32.184 9.193M1096.83 1184.127c0 5.516 1.836 10.11 2.76 15.628M1151.077 1092.182c14.71 0 34.016-4.6 44.13 5.516M820.873 1278.405c10.35 17.433 37.045 21.79 55.025 14.163 25.06-10.354 34.867-33.233 34.32-58.84 0-8.17-1.088-15.8-3.812-23.97-2.724-6.538-8.72-13.074-10.35-19.613M1037.18 1385.297c1.695 3.385 38.09-1.69 44.864-8.463M1174.307 1383.605c-11.846 13.54-47.397 11.852-63.487 5.076M1130.29 1373.445c-18.62 19.467-44.017 12.697-66.02 12.697M1184.47 1120.36c-2.543-1.693-3.383-4.232-3.383-7.616"/></g><path d="M2048 0M2048 1536M0 1536M0 0" stroke="#17192D"/></g></svg>