<?xml version="1.0" encoding="iso-8859-1"?>
<!-- Generator: Adobe Illustrator 15.1.0, SVG Export Plug-In . SVG Version: 6.00 Build 0)  -->
<!DOCTYPE svg PUBLIC "-//W3C//DTD SVG 1.1//EN" "http://www.w3.org/Graphics/SVG/1.1/DTD/svg11.dtd">
<svg version="1.1" xmlns="http://www.w3.org/2000/svg" xmlns:xlink="http://www.w3.org/1999/xlink" x="0px" y="0px" width="2048px"
	 height="1536px" viewBox="0 0 2048 1536" style="enable-background:new 0 0 2048 1536;" xml:space="preserve">
<g id="a2b_x5F_bein_x5F_h">
	<g>
		<path style="fill:none;stroke:#FF0050;stroke-width:3;" d="M1058.466,939.634c0.536,2.052,1.072,4.157,1.586,6.353
			c2.764,15.634,0.923,33.103,0.923,47.811c0.922,33.104,6.432,64.362,19.306,93.786"/>
		<path style="fill:none;stroke:#FF0050;stroke-width:3;" d="M1045.952,820.471c5.5,28.623,10.633,57.677,8.979,85.43
			c-0.679,11.345-1.358,21.187,1.01,30.603"/>
		<path style="fill:none;stroke:#FF0050;stroke-width:3;" d="M983.476,708.241c15.394,7.446,28.832,19.714,38.66,33.625"/>
		<path style="fill:none;stroke:#FF0050;stroke-width:3;" d="M1165.585,923.43c3.246,4.419,8.579,7.859,11.808,11.894
			c5.891,7.356,9.125,15.838,13.617,23.898c6.82,12.236,20.365,28.582,19.304,43.217"/>
		<path style="fill:none;stroke:#FF0050;stroke-width:3;" d="M1165.585,923.43"/>
		<path style="fill:none;stroke:#FF0050;stroke-width:3;" d="M1141.434,809.289c6.26,13.839,9.447,25.505,14.635,43.283
			c3.723,16.388,8.791,35.43,8.292,52.299c-0.136,4.589-2.383,9.186-1.17,13.757"/>
		<path style="fill:none;stroke:#FF0050;stroke-width:3;" d="M1123.496,777.839c1.608,2.615,3.27,5.242,4.869,7.776"/>
		<path style="fill:none;stroke:#FF0050;stroke-width:3;" d="M1027.007,673.902c5.536,0.922,30.678,14.092,33.44,15.929
			c15.631,11.034,46.081,10.8,55.782,28.163c7.463,13.36,0.24,24.428-2.115,33.439"/>
		<path style="fill:none;stroke:#FF0050;stroke-width:3;" d="M1144.845,904.934c1.599,2.064,6.082,6.568,8.837,6.426"/>
		<path style="fill:none;stroke:#FF0050;stroke-width:3;" d="M1097.986,904.934c2.503,0.847,2.619,2.82,3.74,4.826
			c1.043,1.869,2.475,3.497,3.547,5.35c2.051,3.535,4.122,8.109,3.154,12.317"/>
		<path style="fill:none;stroke:#FF0050;stroke-width:3;" d="M1084.994,738.922c1.723,0.731,3.212,2.151,4.454,3.947"/>
	</g>
	<path style="fill:none;stroke:#17192D;stroke-width:3;" d="M2048,0"/>
	<path style="fill:none;stroke:#17192D;stroke-width:3;" d="M2048,1536"/>
	<path style="fill:none;stroke:#17192D;stroke-width:3;" d="M0,1536"/>
	<path style="fill:none;stroke:#17192D;stroke-width:3;" d="M0,0"/>
</g>
<g id="Layer_1">
</g>
</svg>
