<svg xmlns="http://www.w3.org/2000/svg" width="2048" height="1536" viewBox="0 0 2048 1536"><g fill="none" stroke-width="3"><g stroke="#FF0050"><path d="M845.373 826.918c-14.714 34.94-30.345 79.072-33.104 117.688-2.757 34.018-11.035 72.636-4.596 106.656M893.104 832.86c3.117.114 7.648.065 9.954-2.294M869.907 826.453c-1.038 3.673 15.03 7.692 16.34 4.02M872.055 1002.375c1.99 1.26 16.35 2.875 16.602-.537M810.736 965.96c-1.652 2.945 4.68 6.008 4.82 8.837M846.055 824.636c4.328-12.075 8.205-23.757 8.82-36.614.3-6.367 1.315-13.115 1.954-19.41.6-5.89.094-11.7 2.884-17.132 6.12-11.92 18.317-12.702 30.435-11.618 11.482 1.025 23.975-5.162 35.157-.238 10.448 4.6 12.95 19.768 11.966 30.11-.764 8.06-19.946 16.073-22.465 6.154-1.355-5.328 1.594-8.34 5.185-11.82.313 1.787 2.572 2.392 4.015 3.483-1.51-.67-2.547-2.166-3.98-2.983-.61-2.34-1.507-6.603-.128-8.725-.25.832-.527 1.642-.99 2.503 1.01-2.24 3.065-4.477 4.745-6.15-5.873 7.64-13.564 14.772-23.97 9.854-1.15 4.63-4.625 7.272-7.728 10.64 1.448 8.483-7.475 14.615-10.315 21.992M905.95 820.003c5.794-3.012 8.386-10.802 13.78-14.463 2.925-1.984 5.756-3.933 7.748-7.055 1.84-2.876 3.787-5.02 6.33-7.36 3.724-3.425 15.776-9.743 6.26-13.84-3.44-1.482-6.62-1.988-10.384-.463-3.567 1.447-7.437 3.538-10.838 5.435-5.912 3.304-11.276 6.89-16.95 10.394-3.13 1.942-4.777 4.883-7.646 7.01-2.162 1.602-7.467 1.636-10.22 1.81-1.835.113-3.655.017-5.378.278-1.608.236-3.59 1.018-5.247.398M876.57 792.43c1.91.678 3.522 2.725 5.367 3.66 1.725.88 3.163 1.98 4.802 3.346M869.792 741.122c1.838-6.92 12.598-7.75 18.31-7.466 3.626.182 7.56 1.928 11.297 1.373 4.187-.617 7.794-1.544 12.258-1.368 4.748.19 10.903 2.597 13.508 7.007M888.55 787.683c1.318 1.98 1.576 4.338 3.22 6.097 1.076 1.148 3.223 2.172 3.594 3.812.29.05.566.025.868.033M897.295 1012.982c.99-14.896 6.57-30.838 9.833-45.854 10.115-41.374 4.597-84.59.92-125.966v-9.193M901.614 1097.686c2.757-24.82 4.598-43.213-2.758-67.118-.808-2.827-1.303-5.73-1.538-8.7"/></g><path d="M2048 0M2048 1536M0 1536M0 0" stroke="#17192D"/></g></svg>