<?xml version="1.0" encoding="iso-8859-1"?>
<!-- Generator: Adobe Illustrator 15.1.0, SVG Export Plug-In . SVG Version: 6.00 Build 0)  -->
<!DOCTYPE svg PUBLIC "-//W3C//DTD SVG 1.1//EN" "http://www.w3.org/Graphics/SVG/1.1/DTD/svg11.dtd">
<svg version="1.1" xmlns="http://www.w3.org/2000/svg" xmlns:xlink="http://www.w3.org/1999/xlink" x="0px" y="0px" width="2048px"
	 height="1536px" viewBox="0 0 2048 1536" style="enable-background:new 0 0 2048 1536;" xml:space="preserve">
<g id="a2b_x5F_zehen_x5F_h">
	<g>
		<path style="fill:none;stroke:#FF0050;stroke-width:3;" d="M1021.381,672.386c0,0-4.908-0.576-6.508-2.743
			c-3.968-5.38-10.642-9.055-17.139-10.112c-5.592-0.907-10.935-3.028-16.367-4.773c-5.188-1.668-12.215-3.857-17.693-3.43
			c-5.37,0.423-9.629,1.611-11.873,6.687c-2.127,4.809-2.031,7.72,2.831,10.565c4.318,2.517,9.799,1.98,14.154,4.19
			c2.305,1.169,4.386,2.789,6.793,3.772c1.031,0.425,2.286,0.563,3.391,0.808c2.513,0.556,4.51,1.8,6.924,2.485"/>
		<path style="fill:none;stroke:#FF0050;stroke-width:3;" d="M985.999,708.598c-3.967-1.487-15.612-1.983-15.361-8.923"/>
		<path style="fill:none;stroke:#FF0050;stroke-width:3;" d="M960.722,673.408c-1.487,3.717,0.25,6.443,3.473,8.426
			c3.713,1.983,7.433,3.222,11.396,3.966c3.223,0.743,5.207,2.229,7.932,3.221"/>
		<path style="fill:none;stroke:#FF0050;stroke-width:3;" d="M983.522,700.42c0.245,0.742-5.95-0.496-7.434-0.745
			c-4.213-1.238-8.425-3.714-11.149-7.186"/>
		<path style="fill:none;stroke:#FF0050;stroke-width:3;" d="M981.29,693.975c-4.707,0.251-21.063-2.476-18.09-9.664"/>
	</g>
	<path style="fill:none;stroke:#17192D;stroke-width:3;" d="M2048,0"/>
	<path style="fill:none;stroke:#17192D;stroke-width:3;" d="M2048,1536"/>
	<path style="fill:none;stroke:#17192D;stroke-width:3;" d="M0,1536"/>
	<path style="fill:none;stroke:#17192D;stroke-width:3;" d="M0,0"/>
</g>
<g id="Layer_1">
</g>
</svg>
