<?xml version="1.0" encoding="iso-8859-1"?>
<!-- Generator: Adobe Illustrator 15.1.0, SVG Export Plug-In . SVG Version: 6.00 Build 0)  -->
<!DOCTYPE svg PUBLIC "-//W3C//DTD SVG 1.1//EN" "http://www.w3.org/Graphics/SVG/1.1/DTD/svg11.dtd">
<svg version="1.1" xmlns="http://www.w3.org/2000/svg" xmlns:xlink="http://www.w3.org/1999/xlink" x="0px" y="0px" width="2048px"
	 height="1536px" viewBox="0 0 2048 1536" style="enable-background:new 0 0 2048 1536;" xml:space="preserve">
<g id="a2b_x5F_barbie">
	<g>
		<path style="fill:none;stroke:#FF0050;stroke-width:3;" d="M1005.728,809.381c0,0,5.464,11.213,13.516,11.213
			c0,0,29.615-0.861,35.653-0.861c0,0,6.902,2.877,19.841-0.863c12.938-3.737,18.258-2.444,19.552-3.737
			c1.295-1.294,6.324-3.451,6.324-3.451s7.048-2.156,10.93-6.04c0,0,1.436-2.3,1.436-3.449c0-1.151-1.149-1.725-2.875,0
			c-1.725,1.725-4.024,4.601-5.752,4.601l-5.461-0.287l1.15-2.301c0,0-3.739-1.15-4.889,0c-1.15,1.15-4.313,4.313-4.313,4.313
			h-1.726c0,0-26.885-4.17-31.053,0c0,0-30.479-0.575-35.656,0.863C1022.405,809.381,1012.053,807.08,1005.728,809.381z"/>
		<path style="fill:none;stroke:#FF0050;stroke-width:3;" d="M983.444,787.097c0,0,11.932-4.171,17.108,4.745
			c5.175,8.911,5.175,17.539,5.175,17.539"/>
		<path style="fill:none;stroke:#FF0050;stroke-width:3;" d="M1097.452,750.724l-2.443,2.443c0,0-1.581-3.882-3.882-3.882
			c0,0-23.578,5.175-32.205,2.587c0,0-22.429,0.864-34.217-0.861c0,0-11.788,1.438-15.813,0c0,0-0.863-9.491,12.077-9.491
			c12.938,0,35.653,0,35.653,0s20.704-1.15,33.931,1.726c0,0,13.225-0.862,16.963,2.876c3.738,3.737,5.895,2.587,5.895,5.894
			c0,0-1.293,0.432-3.881,0.432c-2.589,0-5.607-3.021-5.607-3.021L1097.452,750.724z"/>
		<path style="fill:none;stroke:#FF0050;stroke-width:3;" d="M1023.923,809.097l1.974-1.974c0,0,19.511-3.494,28.138-8.958
			c8.625-5.462,11.789-6.036,11.789-6.036s-4.025-12.364,0.863-25.017c0,0-8.627-3.45-16.966-7.477
			c-8.339-4.025-22.715-6.036-22.715-6.036l-2.302-2.587"/>
		<path style="fill:none;stroke:#FF0050;stroke-width:3;" d="M1102.826,810.881c0,0,49.833-1.213,70.823-4.952
			c1.133-0.2,6.613,1.438,13.802,0c0,0,44.279,0,62.395-4.312c18.114-4.313,41.406-0.576,41.406-0.576s4.889,0.289,4.889-4.886
			c0-5.176-5.177-5.176-5.177-5.176s-14.377,1.15-28.751,1.15c-1.726,0-49.123-1.726-66.424-1.726c-1.149,0-7.763,0-11.788,0
			c-4.026,0-58.009-5.751-77.922-5.751c-1.151,0-1.151,0-1.151,0s-9.488,6.038-11.068,11.07h-21.709"/>
		<path style="fill:none;stroke:#FF0050;stroke-width:3;" d="M1072.726,767.112l18.977,0.288c0,0,3.737,8.34,13.226,9.776
			c9.49,1.439,50.031-0.291,61.819-2.303c0,0,12.652,0.578,22.718-3.159c0,0,26.738,1.15,48.594-4.602
			c21.852-5.751,33.64-2.3,38.242-2.3c4.598,0,16.388-0.863,16.388-0.863s6.902-0.287,3.596-3.595c0,0-0.719-7.042-6.182-5.608
			c-5.464,1.439-29.329,1.439-41.98-0.286c-12.652-1.724-32.492-2.299-56.646,1.438l-8.625,1.725c0,0-58.085-7.475-69.441-5.605"/>
		<path style="fill:none;stroke:#FF0050;stroke-width:3;" d="M1065.824,792.129l3.163,0.861c0,0,8.933,14.238,15.394,14.884"/>
		<path style="fill:none;stroke:#FF0050;stroke-width:3;" d="M1066.688,767.112l3.736-0.288c0,0,10.005-15.558,23.261-14.779"/>
		<path style="fill:none;stroke:#FF0050;stroke-width:3;" d="M972.947,794.429c0,0,6.759-2.3,8.627-7.332
			c1.871-5.033-1.149-7.332,1.439-14.232c0,0,13.944-1.007,14.952,0c0,0,6.326-2.302,6.326-10.354
			c0-8.051,3.161-11.213,3.161-11.213"/>
		<path style="fill:none;stroke:#FF0050;stroke-width:3;" d="M962.022,765.1c0,0,10.639-1.438,15.239,3.164s4.601,4.601,4.601,4.601
			"/>
		<path style="fill:none;stroke:#FF0050;stroke-width:3;" d="M955.984,791.553c0,0-4.026-4.025-2.014-8.914"/>
		<path style="fill:none;stroke:#FF0050;stroke-width:3;" d="M953.395,773.439c0,0-3.161-6.615,2.589-7.478"/>
		<path style="fill:none;stroke:#FF0050;stroke-width:3;" d="M966.047,778.327c0,0-1.724-2.3,0-4.025"/>
		<path style="fill:none;stroke:#FF0050;stroke-width:3;" d="M971.511,781.488c0,0-3.306-7.044,0-10.35
			C971.511,771.139,974.385,776.027,971.511,781.488z"/>
		<circle style="fill:none;stroke:#FF0050;stroke-width:3;" cx="959.723" cy="770.563" r="2.012"/>
		<ellipse style="fill:none;stroke:#FF0050;stroke-width:3;" cx="959.291" cy="786.377" rx="1.582" ry="2.013"/>
		<path style="fill:none;stroke:#FF0050;stroke-width:3;" d="M941.088,776.254c2.751-6.131,10.907-16.734,14.032-11.442"/>
		<path style="fill:none;stroke:#FF0050;stroke-width:3;" d="M957.134,796.728c-5.176-1.436-8.051-1.148-11.789-5.462
			c-1.46-1.753-2.846-3.58-3.819-5.592"/>
		<path style="fill:none;stroke:#FF0050;stroke-width:3;" d="M941.321,807.08c1.149,0.287,0.574,4.601-0.576,6.325
			c-3.164,5.177-10.352,3.739-11.216-2.3"/>
		<path style="fill:none;stroke:#FF0050;stroke-width:3;" d="M924.931,813.98c-1.15-0.287-4.6-1.148-6.613-2.875"/>
		<path style="fill:none;stroke:#FF0050;stroke-width:3;" d="M930.105,798.453c2.589-1.15,8.628,1.726,7.764,5.463"/>
		<path style="fill:none;stroke:#FF0050;stroke-width:3;" d="M909.69,773.727c1.149,2.301,3.449,3.449,5.75,2.589"/>
		<path style="fill:none;stroke:#FF0050;stroke-width:3;" d="M907.104,781.488c0.287-5.461-2.013-20.415,6.899-20.415"/>
		<path style="fill:none;stroke:#FF0050;stroke-width:3;" d="M904.04,789.927c-2.587-2.875-4.124-13.324,2.2-14.476"/>
		<path style="fill:none;stroke:#FF0050;stroke-width:3;" d="M920.331,808.518"/>
		<path style="fill:none;stroke:#FF0050;stroke-width:3;" d="M915.441,758.199c2.302-6.038,11.501-10.063,17.539-8.914
			c2.301,0.288,5.463,2.876,6.613,5.175c2.014,4.313-0.286,5.175-3.161,8.051"/>
		<path style="fill:none;stroke:#FF0050;stroke-width:3;" d="M929.244,769.125c-2.302-1.438-6.902-8.626-2.014-8.914"/>
		<path style="fill:none;stroke:#FF0050;stroke-width:3;" d="M934.419,774.014c-0.863,0-1.725,0-2.3,0.288"/>
		<path style="fill:none;stroke:#FF0050;stroke-width:3;" d="M941.896,759.061c6.9-3.164,17.252-1.726,19.552,6.613"/>
		<path style="fill:none;stroke:#FF0050;stroke-width:3;" d="M942.471,805.641c0.861-0.86,2.875-1.725,4.312-2.012
			c2.589-0.575,5.176,0.287,7.478-0.575c2.011-0.862,2.875-2.587,4.888-2.587"/>
		<path style="fill:none;stroke:#FF0050;stroke-width:3;" d="M949.371,808.805c2.3,0.287,3.448,2.301,5.749,3.164
			c2.877,1.149,6.615,0.574,9.203-0.288c3.738-0.863,5.463-2.3,8.052-5.176c1.436-1.438,5.174-3.738,0.86-4.313"/>
		<path style="fill:none;stroke:#FF0050;stroke-width:3;" d="M974.385,797.303c0.289,0,1.439,1.15,1.725,2.013"/>
		<path style="fill:none;stroke:#FF0050;stroke-width:3;" d="M966.336,815.419c-1.438,4.602,2.3,12.363,8.625,10.351"/>
		<path style="fill:none;stroke:#FF0050;stroke-width:3;" d="M973.811,831.232c0.575,1.151,3.164,4.889,6.902,5.465
			c5.175,0.574,17.827-8.915,11.213-11.791"/>
		<path style="fill:none;stroke:#FF0050;stroke-width:3;" d="M981.288,828.07c3.164-0.288,8.913-5.461,3.45-5.749"/>
		<path style="fill:none;stroke:#FF0050;stroke-width:3;" d="M982.438,805.929c6.324-2.875,14.376,3.163,11.788,10.353"/>
		<path style="fill:none;stroke:#FF0050;stroke-width:3;" d="M994.801,822.894c0.863,0,2.875,0.288,4.027-0.284
			c2.875-1.151,2.586-4.603,6.324-3.164"/>
		<path style="fill:none;stroke:#FF0050;stroke-width:3;" d="M998.251,828.357c0.577,0,0.863-0.287,1.438-0.287
			c3.164,6.901,8.917,5.751,14.377,3.162c5.463-2.875,10.927-4.313,14.091-9.199"/>
		<path style="fill:none;stroke:#FF0050;stroke-width:3;" d="M999.114,804.78c-0.286-2.589-5.175-4.313-7.764-4.602"/>
		<path style="fill:none;stroke:#FF0050;stroke-width:3;" d="M998.828,754.46c-2.877,2.3-6.902,2.587-10.066,4.313"/>
		<path style="fill:none;stroke:#FF0050;stroke-width:3;" d="M980.999,753.599c0-1.726-0.575-4.026,0.289-5.751
			c2.014-4.313,5.751-2.3,8.913-4.313c3.165-2.014,4.6-6.899,8.627-8.912c2.875-1.725,8.338-2.301,7.475,2.875"/>
		<path style="fill:none;stroke:#FF0050;stroke-width:3;" d="M1010.617,739.221c-0.289-4.023,8.338-2.586,8.913,0.862"/>
		<path style="fill:none;stroke:#FF0050;stroke-width:3;" d="M979.274,756.473c0.864-2.013-3.164-0.288-4.024,0.575
			c-1.727,1.438-1.727,4.313-2.875,6.327"/>
		<path style="fill:none;stroke:#FF0050;stroke-width:3;" d="M960.009,761.936c2.877-3.737,7.763-2.301,10.927,0"/>
		<path style="fill:none;stroke:#FF0050;stroke-width:3;" d="M947.07,799.027c-1.436,1.151-3.162,1.439-4.888,1.439"/>
		<path style="fill:none;stroke:#FF0050;stroke-width:3;" d="M930.968,804.204c3.162-2.3,5.176,1.15,3.451,4.025"/>
		<path style="fill:none;stroke:#FF0050;stroke-width:3;" d="M922.056,764.523c-1.149-2.874-0.29-7.764,3.45-8.338"/>
		<path style="fill:none;stroke:#FF0050;stroke-width:3;" d="M933.844,754.174c0.86,1.148,0.86,2.586,0,3.736"/>
		<path style="fill:none;stroke:#FF0050;stroke-width:3;" d="M989.626,765.962c6.613-0.862,9.488,0.862,10.063-7.188"/>
		<path style="fill:none;stroke:#FF0050;stroke-width:3;" d="M994.226,746.697c1.726-1.438,2.3-3.45,3.739-4.889
			c4.599-3.736,10.063,1.151,3.738,2.014"/>
		<path style="fill:none;stroke:#FF0050;stroke-width:3;" d="M1003.716,749.573c1.15-0.575,2.3-1.725,2.587-3.45"/>
		<path style="fill:none;stroke:#FF0050;stroke-width:3;" d="M1004.578,824.906c3.164-0.287,6.325,5.178,10.927-0.287"/>
		<path style="fill:none;stroke:#FF0050;stroke-width:3;" d="M999.978,809.381c2.011,0.287,2.875,2.011,2.3,3.737"/>
		<path style="fill:none;stroke:#FF0050;stroke-width:3;" d="M983.876,794.429c-0.574-0.287-1.151-0.287-1.151-0.287
			c3.451,2.3,3.738,0.862,6.326-0.863c2.014-1.149,8.338-5.464,6.325,0.863"/>
		<path style="fill:none;stroke:#FF0050;stroke-width:3;" d="M979.274,811.105c0.864,1.727,5.177,4.313,8.627,4.026"/>
		<path style="fill:none;stroke:#FF0050;stroke-width:3;" d="M974.385,819.445c2.589-2.589,8.917-0.287,8.917,3.736"/>
		<path style="fill:none;stroke:#FF0050;stroke-width:3;" d="M960.585,806.505c2.587-0.576,5.462,0,6.614-3.451"/>
		<path style="fill:none;stroke:#FF0050;stroke-width:3;" d="M957.709,797.878c1.149-0.575,4.888-1.724,6.327-1.437
			c0.287,0,1.149,1.724,2.587,2.012c2.587,0.574,5.462-0.575,5.752-3.449c0.572,0,1.147,0,1.724,0.288"/>
		<path style="fill:none;stroke:#FF0050;stroke-width:3;" d="M943.332,794.142c-1.437,1.15-2.875,1.438-4.599,1.15"/>
		<path style="fill:none;stroke:#FF0050;stroke-width:3;" d="M939.593,787.814"/>
		<path style="fill:none;stroke:#FF0050;stroke-width:3;" d="M941.032,769.988c-0.575-1.15-1.725-1.725-3.164-1.438"/>
		<path style="fill:none;stroke:#FF0050;stroke-width:3;" d="M944.482,764.523c-0.286-1.149-2.011-1.725-3.736-1.437"/>
		<path style="fill:none;stroke:#FF0050;stroke-width:3;" d="M938.443,779.478"/>
		<path style="fill:none;stroke:#FF0050;stroke-width:3;" d="M1024.06,801.24c2.365,0.525,7.094-1.051,8.233-3.328"/>
		<path style="fill:none;stroke:#FF0050;stroke-width:3;" d="M1025.198,757.354c2.189,0,5.431,0.351,6.743,2.102"/>
		<path style="fill:none;stroke:#FF0050;stroke-width:3;" d="M1022.218,780.479c0.177-0.087,0.264,0,0.352-0.174
			c1.05,0,2.365-0.176,3.241,0.35"/>
		<path style="fill:none;stroke:#FF0050;stroke-width:3;" d="M1105.023,783.981c0.384-0.382-0.383-4.601-0.383-5.751"/>
	</g>
	<path style="fill:none;stroke:#17192D;stroke-width:3;" d="M2048,0"/>
	<path style="fill:none;stroke:#17192D;stroke-width:3;" d="M2048,1536"/>
	<path style="fill:none;stroke:#17192D;stroke-width:3;" d="M0,1536"/>
	<path style="fill:none;stroke:#17192D;stroke-width:3;" d="M0,0"/>
</g>
<g id="Layer_1">
</g>
</svg>
