<svg xmlns="http://www.w3.org/2000/svg" width="2048" height="1536" viewBox="0 0 2048 1536"><g fill="none" stroke-width="3"><g stroke="#FF0050"><path d="M1058.466 939.634c.536 2.052 1.072 4.157 1.586 6.353 2.764 15.634.923 33.103.923 47.81.922 33.105 6.432 64.363 19.306 93.787M1045.952 820.47c5.5 28.624 10.633 57.678 8.98 85.43-.68 11.346-1.36 21.188 1.01 30.604M983.476 708.24c15.394 7.447 28.832 19.715 38.66 33.626M1165.585 923.43c3.246 4.42 8.58 7.86 11.808 11.894 5.89 7.356 9.125 15.838 13.617 23.898 6.82 12.236 20.365 28.582 19.304 43.217M1165.585 923.43M1141.434 809.29c6.26 13.838 9.447 25.504 14.635 43.282 3.722 16.388 8.79 35.43 8.29 52.3-.135 4.588-2.382 9.185-1.17 13.756M1123.496 777.84c1.608 2.614 3.27 5.24 4.87 7.775M1027.007 673.902c5.536.922 30.678 14.092 33.44 15.93 15.63 11.033 46.08 10.8 55.782 28.162 7.462 13.36.24 24.428-2.116 33.44M1144.845 904.934c1.6 2.064 6.082 6.568 8.837 6.426M1097.986 904.934c2.503.847 2.62 2.82 3.74 4.826 1.043 1.87 2.475 3.497 3.547 5.35 2.05 3.535 4.122 8.11 3.154 12.317M1084.994 738.922c1.723.73 3.212 2.15 4.454 3.947"/></g><path d="M2048 0M2048 1536M0 1536M0 0" stroke="#17192D"/></g></svg>