<?xml version="1.0" encoding="iso-8859-1"?>
<!-- Generator: Adobe Illustrator 15.1.0, SVG Export Plug-In . SVG Version: 6.00 Build 0)  -->
<!DOCTYPE svg PUBLIC "-//W3C//DTD SVG 1.1//EN" "http://www.w3.org/Graphics/SVG/1.1/DTD/svg11.dtd">
<svg version="1.1" xmlns="http://www.w3.org/2000/svg" xmlns:xlink="http://www.w3.org/1999/xlink" x="0px" y="0px" width="2048px"
	 height="1536px" viewBox="0 0 2048 1536" style="enable-background:new 0 0 2048 1536;" xml:space="preserve">
<g id="a2b_x5F_arm_x5F_v">
	<g>
		<path style="fill:none;stroke:#FF0050;stroke-width:3;" d="M1170.59,1281.716c6.878-1.991,13.895-2.804,19.105-10.249
			c5.515-9.195,5.515-15.63,13.795-24.823c15.628-15.63,28.5-31.264,38.612-50.568c9.192-18.392,12.873-36.777,15.632-56.085
			c0.922-9.198,3.68-19.309,1.84-28.503c-0.918-5.518-0.918-15.635-3.682-11.03"/>
		<path style="fill:none;stroke:#FF0050;stroke-width:3;" d="M1170.59,1281.716"/>
		<path style="fill:none;stroke:#FF0050;stroke-width:3;" d="M984.956,1317.653c13.164,12.292,42.012,14.495,57.631,14.495
			c20.229-0.92,40.454-11.031,60.683-15.629c24.823-5.516,40.457-22.062,62.52-33.098"/>
		<path style="fill:none;stroke:#FF0050;stroke-width:3;" d="M1124.515,1192.309c-1.899,0.561-4.294,1.139-7.453,1.928
			c-22.069,5.516-42.296,15.008-63.443,20.523c-25.74,7.359-42.293,11.656-59.764,34.642c-11.031,13.792-23.903,45.973-12.87,63.442
			"/>
		<path style="fill:none;stroke:#FF0050;stroke-width:3;" d="M1198.89,1092.797c-8.277,22.986-17.47,40.455-34.938,57.923
			c-9.192,10.113-18.387,18.394-25.745,29.423c-3.755,6.262-5.43,9.492-7.511,11.494"/>
		<path style="fill:none;stroke:#FF0050;stroke-width:3;" d="M1198.889,1087.737c-0.064-2.629,1.431-4.853,2.122-7.319
			c0.863-3.106,0.701-6.815,0.895-10.049c0.358-6.045,0.429-12.095,0.429-18.193c0-3.193,0.19-6.343,0.287-9.514
			c0.061-2.172-0.317-4.571,0.029-6.713c0.549-3.321,2.162-6.289,3.697-9.209c0.955-1.823,1.677-3.668,2.443-5.629
			c1.053-2.671,1.438-5.674,2.612-8.288c1.034-2.294,2.56-4.665,4.277-6.468c2.115-2.225,6.974-5.545,10.042-5.303"/>
		<path style="fill:none;stroke:#FF0050;stroke-width:3;" d="M1216.686,1021.291c0.647-1.505,1.46-3.032,2.44-4.344
			c0.888-1.184,2.229-2.21,2.877-3.547c1.264-2.621,2.29-5.427,3.896-7.897c2.535-3.89,4.282-8.043,9.869-8.034"/>
		<path style="fill:none;stroke:#FF0050;stroke-width:3;" d="M1229.599,1020.141c0.609-3.789,3.919-7.365,5.573-10.774
			c1.229-2.535,1.064-5.55,2.892-7.78c1.339-1.631,3.957-3.972,5.854-4.843c3.389-1.56,6.553-1.915,9.648,0.436"/>
		<path style="fill:none;stroke:#FF0050;stroke-width:3;" d="M1244.379,1018.705c1.349-0.515,2.462-3.386,3.129-4.586
			c0.827-1.501,1.708-2.979,2.506-4.483c1.255-2.362,1.216-5.159,3.229-7.117c2.584-2.516,6.786-3.924,10.398-3.478
			c6.514,0.801,10.412,5.252,13.892,10.481"/>
		<path style="fill:none;stroke:#FF0050;stroke-width:3;" d="M1267.055,1014.687c1.687,0.825,3.947,1.969,5.886,1.869"/>
		<path style="fill:none;stroke:#FF0050;stroke-width:3;" d="M1263.469,1008.659c1.543,0.696,1.798,3.144,2.152,4.592"/>
		<path style="fill:none;stroke:#FF0050;stroke-width:3;" d="M1257.011,1021.291c1.616,0.55,7.855-2.45,8.467-4.02"/>
		<path style="fill:none;stroke:#FF0050;stroke-width:3;" d="M1263.037,1023.726c0.937,1.446,1.053,3.382,1.754,4.96
			c0.842,1.908,1.543,3.061,1.834,5.1c0.335,2.354,1.51,6.551-0.574,8.455"/>
		<path style="fill:none;stroke:#FF0050;stroke-width:3;" d="M1244.811,1094.766c1.237-0.679,2.848-0.512,4.274-0.819
			c1.569-0.336,3.799-1.456,4.913-2.623"/>
	</g>
	<path style="fill:none;stroke:#FF0050;stroke-width:3;" d="M1257.151,1097.351c0.724,0.175,0.721-4.416,0.721-5.336
		c0-1.262,0.153-2.629,0-3.886c-0.121-0.969-0.519-1.793-0.432-2.832"/>
	<path style="fill:none;stroke:#17192D;stroke-width:3;" d="M2048,0"/>
	<path style="fill:none;stroke:#17192D;stroke-width:3;" d="M2048,1536"/>
	<path style="fill:none;stroke:#17192D;stroke-width:3;" d="M0,1536"/>
	<path style="fill:none;stroke:#17192D;stroke-width:3;" d="M0,0"/>
</g>
<g id="Layer_1">
</g>
</svg>
