<?xml version="1.0" encoding="iso-8859-1"?>
<!-- Generator: Adobe Illustrator 15.1.0, SVG Export Plug-In . SVG Version: 6.00 Build 0)  -->
<!DOCTYPE svg PUBLIC "-//W3C//DTD SVG 1.1//EN" "http://www.w3.org/Graphics/SVG/1.1/DTD/svg11.dtd">
<svg version="1.1" xmlns="http://www.w3.org/2000/svg" xmlns:xlink="http://www.w3.org/1999/xlink" x="0px" y="0px" width="2048px"
	 height="1536px" viewBox="0 0 2048 1536" style="enable-background:new 0 0 2048 1536;" xml:space="preserve">
<g id="a2b_x5F_arm_x5F_h">
	<g>
		<path style="fill:none;stroke:#FF0050;stroke-width:3;" d="M845.373,826.918c-14.714,34.94-30.345,79.072-33.104,117.688
			c-2.756,34.018-11.034,72.636-4.595,106.656"/>
		<path style="fill:none;stroke:#FF0050;stroke-width:3;" d="M893.104,832.859c3.117,0.115,7.648,0.066,9.954-2.293"/>
		<path style="fill:none;stroke:#FF0050;stroke-width:3;" d="M869.907,826.453c-1.038,3.673,15.03,7.692,16.34,4.019"/>
		<path style="fill:none;stroke:#FF0050;stroke-width:3;" d="M872.055,1002.375c1.991,1.261,16.35,2.875,16.602-0.537"/>
		<path style="fill:none;stroke:#FF0050;stroke-width:3;" d="M810.736,965.961c-1.652,2.944,4.68,6.007,4.821,8.836"/>
		<path style="fill:none;stroke:#FF0050;stroke-width:3;" d="M846.055,824.636c4.328-12.075,8.205-23.757,8.819-36.614
			c0.302-6.367,1.316-13.115,1.955-19.409c0.602-5.892,0.095-11.702,2.885-17.133c6.119-11.92,18.317-12.702,30.435-11.618
			c11.483,1.025,23.976-5.162,35.158-0.238c10.448,4.601,12.949,19.768,11.966,30.109c-0.764,8.061-19.946,16.074-22.465,6.155
			c-1.355-5.328,1.594-8.339,5.185-11.819c0.313,1.786,2.572,2.391,4.015,3.482c-1.511-0.671-2.547-2.167-3.981-2.984
			c-0.609-2.339-1.506-6.603-0.127-8.725c-0.251,0.832-0.527,1.642-0.991,2.503c1.01-2.239,3.066-4.477,4.746-6.149
			c-5.873,7.639-13.564,14.771-23.969,9.853c-1.15,4.632-4.626,7.273-7.729,10.642c1.448,8.482-7.475,14.614-10.315,21.991"/>
		<path style="fill:none;stroke:#FF0050;stroke-width:3;" d="M905.951,820.003c5.793-3.012,8.385-10.802,13.778-14.463
			c2.926-1.984,5.757-3.933,7.749-7.055c1.839-2.876,3.787-5.019,6.331-7.36c3.723-3.425,15.775-9.743,6.26-13.841
			c-3.44-1.481-6.621-1.987-10.385-0.462c-3.567,1.447-7.437,3.538-10.838,5.435c-5.912,3.304-11.276,6.889-16.951,10.394
			c-3.129,1.941-4.776,4.882-7.645,7.01c-2.162,1.601-7.467,1.635-10.221,1.81c-1.834,0.112-3.654,0.016-5.377,0.277
			c-1.608,0.236-3.59,1.018-5.247,0.398"/>
		<path style="fill:none;stroke:#FF0050;stroke-width:3;" d="M876.571,792.43c1.908,0.678,3.521,2.725,5.366,3.661
			c1.725,0.878,3.163,1.978,4.802,3.345"/>
		<path style="fill:none;stroke:#FF0050;stroke-width:3;" d="M869.792,741.122c1.838-6.919,12.598-7.751,18.309-7.466
			c3.627,0.182,7.56,1.928,11.298,1.373c4.188-0.616,7.795-1.543,12.259-1.367c4.748,0.189,10.903,2.597,13.508,7.007"/>
		<path style="fill:none;stroke:#FF0050;stroke-width:3;" d="M888.549,787.683c1.319,1.979,1.577,4.338,3.222,6.097
			c1.075,1.148,3.222,2.172,3.593,3.812c0.291,0.051,0.566,0.025,0.868,0.033"/>
		<path style="fill:none;stroke:#FF0050;stroke-width:3;" d="M897.295,1012.982c0.989-14.896,6.57-30.838,9.833-45.854
			c10.115-41.374,4.597-84.591,0.921-125.966c0-2.758,0-7.354,0-9.193"/>
		<path style="fill:none;stroke:#FF0050;stroke-width:3;" d="M901.614,1097.686c2.757-24.821,4.598-43.213-2.758-67.118
			c-0.808-2.827-1.303-5.731-1.538-8.701"/>
	</g>
	<path style="fill:none;stroke:#17192D;stroke-width:3;" d="M2048,0"/>
	<path style="fill:none;stroke:#17192D;stroke-width:3;" d="M2048,1536"/>
	<path style="fill:none;stroke:#17192D;stroke-width:3;" d="M0,1536"/>
	<path style="fill:none;stroke:#17192D;stroke-width:3;" d="M0,0"/>
</g>
<g id="Layer_1">
</g>
</svg>
