<svg xmlns="http://www.w3.org/2000/svg" width="2048" height="1536" viewBox="0 0 2048 1536"><g fill="none" stroke-width="3"><g stroke="#FF0050"><path d="M1021.38 672.386s-4.907-.576-6.507-2.743c-3.968-5.38-10.642-9.055-17.14-10.112-5.59-.906-10.934-3.027-16.366-4.772-5.188-1.668-12.215-3.857-17.693-3.43-5.37.423-9.63 1.61-11.873 6.687-2.126 4.81-2.03 7.72 2.832 10.565 4.318 2.517 9.8 1.98 14.154 4.19 2.305 1.17 4.386 2.79 6.793 3.772 1.03.425 2.285.563 3.39.808 2.513.556 4.51 1.8 6.924 2.485M986 708.598c-3.968-1.487-15.613-1.983-15.362-8.923M960.722 673.408c-1.487 3.717.25 6.443 3.473 8.426 3.713 1.983 7.433 3.222 11.396 3.966 3.224.743 5.208 2.23 7.933 3.22M983.522 700.42c.245.742-5.95-.496-7.434-.745-4.213-1.238-8.425-3.714-11.15-7.186M981.29 693.975c-4.707.25-21.063-2.476-18.09-9.664"/></g><path d="M2048 0M2048 1536M0 1536M0 0" stroke="#17192D"/></g></svg>