<svg xmlns="http://www.w3.org/2000/svg" width="2048" height="1536" viewBox="0 0 2048 1536"><g fill="none" stroke-width="3"><g stroke="#FF0050"><path d="M1170.59 1281.716c6.878-1.99 13.895-2.804 19.105-10.25 5.515-9.194 5.515-15.63 13.795-24.822 15.628-15.63 28.5-31.264 38.612-50.568 9.192-18.392 12.873-36.777 15.632-56.085.922-9.197 3.68-19.308 1.84-28.502-.918-5.518-.918-15.635-3.682-11.03M1170.59 1281.716M984.956 1317.653c13.164 12.292 42.012 14.495 57.63 14.495 20.23-.92 40.455-11.03 60.684-15.63 24.823-5.515 40.457-22.06 62.52-33.097M1124.515 1192.31c-1.9.56-4.294 1.138-7.453 1.927-22.07 5.516-42.296 15.008-63.443 20.523-25.74 7.36-42.294 11.656-59.765 34.642-11.03 13.792-23.903 45.973-12.87 63.442M1198.89 1092.797c-8.277 22.986-17.47 40.455-34.938 57.923-9.192 10.113-18.387 18.394-25.745 29.423-3.755 6.262-5.43 9.492-7.51 11.494M1198.89 1087.737c-.065-2.63 1.43-4.853 2.12-7.32.864-3.105.702-6.814.896-10.048.358-6.046.43-12.096.43-18.194 0-3.193.19-6.343.286-9.514.06-2.172-.317-4.57.03-6.713.548-3.322 2.16-6.29 3.696-9.21.955-1.823 1.677-3.668 2.443-5.63 1.054-2.67 1.44-5.673 2.613-8.287 1.034-2.294 2.56-4.665 4.277-6.468 2.115-2.225 6.974-5.545 10.042-5.303M1216.686 1021.29c.647-1.504 1.46-3.03 2.44-4.343.888-1.184 2.23-2.21 2.877-3.547 1.264-2.62 2.29-5.427 3.896-7.897 2.534-3.89 4.28-8.043 9.868-8.034M1229.6 1020.14c.608-3.788 3.918-7.364 5.572-10.773 1.23-2.535 1.064-5.55 2.892-7.78 1.34-1.63 3.957-3.972 5.854-4.843 3.39-1.56 6.553-1.915 9.648.436M1244.38 1018.705c1.348-.515 2.46-3.386 3.128-4.586.827-1.502 1.708-2.98 2.506-4.484 1.255-2.362 1.216-5.16 3.23-7.117 2.583-2.517 6.785-3.925 10.397-3.48 6.515.802 10.413 5.253 13.893 10.482M1267.055 1014.687c1.687.825 3.947 1.97 5.886 1.87M1263.47 1008.66c1.542.695 1.797 3.143 2.15 4.59M1257.01 1021.29c1.617.55 7.856-2.45 8.468-4.02M1263.037 1023.726c.937 1.446 1.053 3.382 1.754 4.96.843 1.908 1.544 3.06 1.835 5.1.335 2.354 1.51 6.55-.574 8.455M1244.81 1094.766c1.238-.68 2.85-.512 4.275-.82 1.57-.335 3.8-1.455 4.913-2.622"/></g><path d="M1257.15 1097.35c.725.176.722-4.415.722-5.335 0-1.262.153-2.63 0-3.886-.12-.97-.52-1.794-.432-2.833" stroke="#FF0050"/><path d="M2048 0M2048 1536M0 1536M0 0" stroke="#17192D"/></g></svg>