<svg xmlns="http://www.w3.org/2000/svg" width="2048" height="1536" viewBox="0 0 2048 1536"><g fill="none" stroke-width="3"><path d="M804.1 1060.33c7.163 3.067 17.397-.205 25.174 1.228 3.48.612 8.188 2.047 8.804 6.343.614 3.278-2.253 4.71-3.277 7.37" stroke="#FF0050"/><g stroke="#FF0050"><path d="M729.592 1015.503c17.398 1.84 37.458 8.188 49.94 20.877 4.712 4.913 10.238 9.007 14.943 13.92 2.05 2.046 4.094 3.89 5.938 6.142.817 1.022 2.66 4.093 2.66 4.5M867.756 1105.77c1.228-1.23 2.458-4.094 2.25-6.345-.41-6.756-8.597-3.48-12.893-2.866 1.434-6.55 3.683-15.147-5.733-16.17-2.25-.205-2.25 0-4.092-1.026-1.638-1.02-2.866-2.25-4.914-3.07-2.25-.817-5.935-1.23-7.574-.614M842.99 1091.852c.407 2.66 8.186 7.573 10.438 9.416 4.913 4.502 8.598 10.848 11.258 16.783M814.743 1077.728c-.82 2.66 2.25 8.392 3.273 11.054 1.024 2.457 2.458 13.304 3.887 13.916M722.632 1015.3c14.328 11.055 26.61 26.203 35.615 42.17 7.78 13.506 19.245 32.74 11.467 45.84-.41.82-7.782 5.328-8.6 5.328 4.093 7.777 8.186 13.92 4.912 22.515-4.094 10.645-8.472 18.067-8.472 18.067 19.68-4.838 24.028 3.625 28.53 9.354 6.142 7.78.82 21.295-2.86 28.662 5.728.41 11.05-1.23 13.914 5.323 1.636 3.682.818 8.595-1.637 11.46M809.42 1260.923c4.092 3.683 9.823 2.865 15.145 2.865-4.5 13.1-18.423 21.698-12.688 37.662 2.454 6.14 6.14 11.055 3.683 18.01-2.048 7.37-11.053 11.464-17.604 7.78.817 10.645-13.918 20.88-22.924 22.517-9.415 1.637-22.105-3.686-24.564-13.51-6.957 9.004-21.695 15.967-32.34 10.23-9.004-5.316-15.145-19.237-13.1-28.652M735.732 1012.025c-2.864-10.644-15.966-4.503-21.698-1.637-5.728 2.862-7.368.41-13.916-2.456-4.503-1.64-8.188-1.64-13.1-2.05-9.827-.408-20.47 2.053-30.294 3.282-11.872 1.23-27.43 11.463-36.436 18.015-37.254 26.197-51.987 70.81-50.76 114.616.226 8.07 1.7 17.173 3.632 25.053 2.1 8.548 8.884 15.086 11.065 23.58-4.08.736-9.658 4.026-11.74 7.846-1.81 3.327-2.882 7.58-1.397 11.233 1.59 3.924 6.06 5.922 2.943 10.885M574.963 1225.357c-2.58 4.517-6.133 8.065-11.938 6.453 4.194 3.223 5.162 9.03 11.292 9.678 4.514.32 9.355-3.55 12.258-7.1-1.29 5.162.646 10.322 6.128 12.26 5.164 1.936 10.322-1.61 14.84-4.192-5.162 14.838 3.873 32.904 11.612 45.484 7.744 12.582 23.55 22.26 37.744 26.776 8.39 2.58 17.743 3.226 26.453 2.58 5.163-.32 17.425-1.935 20.326-3.226M758.676 1148.033c-3.41 4.438-6.142 7.848-11.94 7.51-3.754 0-9.212-1.708-9.555-6.145M761.52 1237.587c-2.454 6.14-2.044 13.918-.407 20.466 1.228 4.507 6.958 22.928-3.685 19.65M691.93 1030.035c-5.323-1.227-9.006-2.455-14.738.41M790.178 1206.577c-7.06 3.992-12.28 6.753-15.658 14.737-2.763 6.755-3.684 13.51 1.23 19.342 5.217 6.14 12.587 8.903 20.57 10.438 7.983 1.536 13.202 0 20.878-1.842 7.982-1.84 14.736-1.23 19.036-8.597 2.148-3.685 3.992-7.368 3.377-11.667-.613-3.07-3.376-4.913-3.376-7.675M854.042 1223.26c1.23 2.047 15.352-15.148 17.192-17.4 5.527-6.96 11.466-16.374 13.104-25.38 2.045-9.415 1.43-19.446 2.66-28.86 1.228-9.62 2.866-19.446 0-29.065-2.254-6.96-8.8-13.304-15.966-14.943 0-.406 0-.817.202-1.227M800.035 1214.483v4.042c-7.502-1.158-17.888 8.652-13.848 15.58 7.502 10.96 24.812-2.887 27.698 4.612M809.266 1223.716c1.733 5.195 17.312 8.655 17.312 1.73M822.54 1238.142c3.46 0 6.346-1.732 8.652-4.037M835.23 1267.568c0 2.883 3.462 7.498 6.924 8.077M805.23 1074.85c-1.732 13.845 8.08 21.925 6.923 34.62"/></g><path d="M2048 0M2048 1536M0 1536M0 0" stroke="#17192D"/></g></svg>