<?xml version="1.0" encoding="iso-8859-1"?>
<!-- Generator: Adobe Illustrator 15.1.0, SVG Export Plug-In . SVG Version: 6.00 Build 0)  -->
<!DOCTYPE svg PUBLIC "-//W3C//DTD SVG 1.1//EN" "http://www.w3.org/Graphics/SVG/1.1/DTD/svg11.dtd">
<svg version="1.1" xmlns="http://www.w3.org/2000/svg" xmlns:xlink="http://www.w3.org/1999/xlink" x="0px" y="0px" width="2048px"
	 height="1536px" viewBox="0 0 2048 1536" style="enable-background:new 0 0 2048 1536;" xml:space="preserve">
<g id="a3a_x5F_hand_x5F_h">
	<g>
		<path style="fill:none;stroke:#17192D;stroke-width:3;" d="M1337.498,255.905c-1.129,1.401-3.268,2.022-4.706,3.24
			c-1.448,1.222-3.097,2.666-4.199,4.299c-2.378,3.52-4.004,8.396-5.673,12.318c-4.323,10.177-10.179,19.215-15.437,28.865
			c-1.979,3.636-5.389,9.945-9.038,12.027"/>
		<path style="fill:none;stroke:#17192D;stroke-width:3;" d="M1342.157,250.25c2.621-1.33,4.056-6.128,5.253-8.594
			c2.035-4.184,4.089-7.58,7.006-11.272c4.612-5.86,8.701-12.021,12.915-18.08c4.186-6.033,8.394-11.494,14.015-16.262
			c1.036-0.879,2.927-3.105,4.249-3.347c1.269-0.243,2.462,0.907,3.407,2.204c2.715,3.712,3.755,7.013,1.438,11.224
			c-0.827,1.5-1.866,2.499-3.07,3.762c-1.616,1.7-1.741,2.807-2.468,5.035c-1.164,3.539-3.16,6.713-5.574,9.696
			c-2.404,2.971-5.642,5.796-7.774,8.866c-1.311,1.882-0.34,3.686-0.646,5.958c-0.273,2.053-0.854,4.345-1.57,6.278
			c-0.912,2.496-2.242,5.367-3.736,7.475"/>
		<path style="fill:none;stroke:#17192D;stroke-width:3;" d="M1345.538,273.094c0.942-2.648,3.255-4.357,5.876-5.299"/>
		<path style="fill:none;stroke:#17192D;stroke-width:3;" d="M1361.923,295.865c1.25-3.263,5.272-3.719,8.052-4.796"/>
		<path style="fill:none;stroke:#17192D;stroke-width:3;" d="M1377.035,322.535c0.072-2.422,5.287-4.545,7.338-4.723"/>
		<path style="fill:none;stroke:#17192D;stroke-width:3;" d="M1354.906,377.395c4.998-0.47,10.134,1.479,13.261,5.104"/>
		<path style="fill:none;stroke:#17192D;stroke-width:3;" d="M1292.193,386.523c3.967,7.265,15.251,6.958,21.488,10.035
			c7.542,3.732,15.397,7.221,23.59,8.77c4.238,0.801,7.924,0.674,12.281,0.48c3.808-0.172,6.867,1.475,10.484,2.534
			c3.571,1.043,6.523,3.685,10.18,4.638c4.516,1.174,8.948,2.568,13.507,3.228c3.862,0.564,9.887,0.451,13.244,2.549
			c1.907,1.192,3.317,3.092,5.36,4.239c2.008,1.12,3.858,1.9,5.756,3.174c1.523,1.022,3.338,3.05,5.24,2.798
			c1.54-0.204,3.704-2.452,4.562-3.583c2.342-3.12,1.847-7.059,0-10.332c-2.221-3.962-5.179-6.976-8.325-10.311
			c-3.237-3.425-7.108-5.097-11.179-7.374c-3.466-1.94-6.548-3.945-10.133-5.763c-3.496-1.772-7.028-2.706-10.836-3.908
			c-2.745-0.874-6.719-1.637-9.062-3.326"/>
		<path style="fill:none;stroke:#17192D;stroke-width:3;" d="M1366.463,372.261c3.553-2.838,6.928-5.96,10.555-8.756
			c3.233-2.489,6.33-4.738,9.385-7.593c2.666-2.485,5.037-6.32,7.939-8.332c3.275-2.28,6.982-3.386,10.126-5.879
			c3.321-2.644,4.198-6.665,7.131-9.445c1.443-1.366,3.735-1.608,5.612-2.487c1.892-0.886,3.764-1.825,5.651-2.689
			c3.863-1.77,6.456-4.838,9.873-7.336c3.216-2.354,7.669-2.957,11.182-4.799c3.76-1.969,6.447-5.306,10.004-7.111
			c3.486-1.772,6.494-3.503,9.314-6.323c2.134-2.135,5.937-5.475,5.497-8.636c-0.53-3.806-4.557-6.055-8.148-6.07
			c-8.474-0.033-16.008,4.371-23.786,5.843c-3.753,0.709-7.598,2.286-10.957,4.079c-1.803,0.972-3.558,2.319-5.35,3.176
			c-1.786,0.843-3.664,1.009-5.506,1.888c-3.146,1.503-6.185,3.501-9.177,5.375c-2.643,1.656-6.513,4.446-8.325,6.78"/>
		<path style="fill:none;stroke:#17192D;stroke-width:3;" d="M1362.669,261.981c3.634-1.865,6.968-4.951,9.956-7.76
			c3.033-2.857,5.917-5.137,8.512-8.509c2.248-2.92,4.248-5.875,6.804-8.444c2.876-2.899,6.437-4.702,9.621-7.033
			c3.255-2.377,6.027-5.127,9.109-7.675c1.892-1.554,3.855-2.846,5.411-4.774c1.353-1.683,2.658-2.059,4.206-3.48
			c1.694-1.555,1.247-3.264,3.737-2.263c1.3,0.521,2.942,2.263,3.811,3.373c2.226,2.848,4.525,6.512,3.354,10.311
			c-1.187,3.885-5.273,7.758-8.45,9.989c-1.666,1.166-3.222,1.745-4.604,3.379c-1.692,1.996-3.052,4.128-4.87,6.044
			c-3.007,3.171-6.015,6.127-9.302,8.944c-1.519,1.291-3.306,2.395-4.677,3.569c-1.678,1.429-1.729,3.694-2.876,5.718
			c-1.256,2.223-2.875,4.51-4.439,6.553c-1.456,1.924-5.23,4.278-5.708,6.48"/>
		<path style="fill:none;stroke:#17192D;stroke-width:3;" d="M1381.294,288.317c2.506-3.548,7.785-5.792,11.554-7.55
			c3.8-1.766,6.463-5.257,9.389-8.003c2.98-2.795,6.667-4.924,10.228-6.853c3.579-1.942,6.381-4.651,9.393-7.478
			c5.734-5.388,13.567-7.446,20.516-10.768c1.578-0.762,3.11-1.926,4.568-1.104c1.696,0.963,1.718,3.368,2.19,4.94
			c1.251,4.191,2.322,6.948-0.061,10.935c-2.189,3.678-5.215,6.207-8.77,8.3c-3.298,1.946-5.909,4.248-9.263,6.333
			c-3.619,2.239-6.947,4.725-10.716,6.576c-1.728,0.847-3.525,1.641-5.199,2.52c-2.267,1.2-2.62,2.612-3.97,4.715
			c-1.938,3.009-4.496,5.84-7.081,8.18c-2.471,2.238-6.384,6.306-9.441,7.351"/>
	</g>
	<path style="fill:none;stroke:#17192D;stroke-width:3;" d="M2048,0"/>
	<path style="fill:none;stroke:#17192D;stroke-width:3;" d="M2048,1536"/>
	<path style="fill:none;stroke:#17192D;stroke-width:3;" d="M0,1536"/>
	<path style="fill:none;stroke:#17192D;stroke-width:3;" d="M0,0"/>
</g>
<g id="Layer_1">
</g>
</svg>
