<svg xmlns="http://www.w3.org/2000/svg" width="2048" height="1536" viewBox="0 0 2048 1536"><g fill="none" stroke="#17192D" stroke-width="3"><path d="M1536.523 830.644c.65-.22.87-.433 1.52 0 1.52 2.825 9.34 3.69 12.6 4.343 4.126.868 8.688.653 13.03 1.523 8.69 1.736 17.163 4.125 26.068 2.39 5.213-.872 9.34-3.695 14.335-5.43 2.39-.87 4.346-1.743 6.514-2.608 1.52-.65 6.952-1.736 3.692 1.52.435-.215 1.086 0 1.523-.215-1.09 3.91 2.17 8.252 1.955 12.382-.22 5.86-4.344 5.644-8.906 6.947-1.087.214-2.825.214-3.475.865-1.306.873.214 1.74-.87 2.61-1.52 1.3-4.128 1.3-6.083 1.084-4.562-.436-8.687-2.604-13.25-3.04-6.297-.654-11.513 0-17.376 1.522-4.343 1.082-10.862-.217-15.202-1.304.434-.873 0-1.09.868-1.955-6.084 4.775-14.12 5.214-20.854 7.818-6.516 2.176-13.9 5.213-20.633 5.647M1547.383 818.047c-.22-.433-.22-.654-.22-.87 8.258 1.086 14.775 6.733 23.898 5.863 4.344-.435 8.904-1.736 13.035-3.257 3.473-1.304 9.118-5.215 12.81-3.91-.432.434-.65 1.088-1.517 1.52.65-.217 1.3 0 1.953-.217.653 3.912 1.306 8.69.435 12.598-1.086 5-5.863 5.43-10.427 6.08 4.13 3.696-2.39 4.134-4.778 3.48-3.475-.87-6.298-3.258-9.557-4.13-2.822-.652-6.516-.432-9.556-.218-1.738 0-3.26.218-4.996.653-.434.214-3.477.65-1.738.65M1525.447 911.01c5.646 4.996 5.427 11.948 11.293 16.29 4.127 3.04 2.387 3.258-1.303 5M1530.66 917.092c3.474-2.825 8.036 4.562 1.952 4.562M1538.547 936.92c-.592.532-1.062 1.09-1.372 1.675M1535.22 924.694c8.254-2.822 16.292-5.648 24.548-8.47 4.56-1.737 9.117-3.48 13.03-6.083 1.955-1.52 3.04-3.69 5.212-4.996 1.738-.87 4.344-1.304 2.826 1.52 2.39-.215 2.82 10.646 2.17 13.035-1.736 5.426-8.253 5.644-12.814 8.035 3.474 3.257-4.562 4.127-6.3 3.91-3.475-.22-6.732-.653-9.99-.435-3.728.373-11.77 2.503-15.355 5.71M1547.502 982.12c3.545.797 7.463.83 10.96 1.006 5.864.43 11.292-.652 16.073-3.913 2.39-1.736 14.55-11.077 15.206-2.823-.654.222-1.304.437-1.955.222M1535.438 858.01c-1.085-.865-1.304 2.173-1.522 3.265-.65 4.122-1.303 8.684-1.083 12.812.215 9.56-1.74 18.46-4.345 27.58-1.522 5.517-4.337 10.624-7.312 15.622M1544.453 994.975c.613.085 1.23.187 1.842.312 2.39.438 4.13 1.74 6.52 1.522 2.388-.217 4.343-1.523 6.73-1.085 4.13.65 7.82 3.47 11.948 4.343 3.04.652 7.82-.652 5.43-4.56 5.864-2.178 9.124.217 11.728-6.954.873-2.82 4.13-11.942-1.953-10.858M1425.094 965.313c.216 4.345 9.774 12.6 14.336 14.554 2.17 1.022 4.54 1.93 7.022 2.706M1449.855 751.14c3.474-.21 5.646 2.174 8.035 4.348M1457.456 783.51c-1.735 1.084-3.908 4.126-3.69 6.3 4.125 1.515 4.125-3.694 3.69-6.3M1453.548 751.793c6.515-.216 13.032 5.214 19.333 1.737 3.26-1.737 4.346-5.21 8.255-5.862 3.257-.436 5.646 2.388 8.472 1.737M1483.738 767.65c.435-1.52 1.307-4.995 4.13-4.776.434 2.39-1.522 4.34-3.91 4.56 0-.43-.22-.868-.22-1.305M1481.566 769.17c4.128 2.826 8.47-1.303 8.905-5.645M1483.738 748.102c7.385-1.523 13.25 1.74 14.12 9.56.436 4.56-1.088 8.466-2.388 12.815-1.52 4.996-5.864 5.214-11.08 4.996-.867 0-1.737.218-2.605 0M1464.19 777.208c1.303 0 3.04-.865 4.126-1.734M1451.812 793.064c5.214.65 9.557-.434 13.468-3.476M1496.77 768.304c2.826 3.26-1.52 7.6-1.3 10.86M1450.29 750.708c-.653-3.04 1.303-5.428 0-8.472-1.52-3.908-3.26-9.773-7.17-11.73-7.6-4.34-13.03 13.47-12.16 19.114.433 3.26 3.255 6.084 2.82 9.343M1435.302 742.02c1.086 2.82 8.472 7.6 6.3 10.64M1445.294 803.71c-1.084 3.907-5.212 6.297-6.95 9.774-1.956 4.344 0 8.903.65 13.465M1444.426 735.72c.868 1.955 1.736 3.914 1.736 6.3 0 2.39-3.69 9.34-4.56 8.688M1431.61 760.484c.65-.218.65-.652 1.52-.434-1.085.216-1.52.434-1.954.652-3.693-1.305-6.3 2.822-8.474 4.126-.65 2.175-3.475 10.21-1.083 11.076-.654 1.74-.436 5.647.867 6.518-1.52 3.04.435 9.99 1.522 12.6M1434 803.71c1.083 6.515-2.607 12.163 0 18.678 1.083 2.82 3.91 10.86 6.73 12.382 4.348 2.175 8.038-5.647 9.56-8.47 3.04-5.65 3.258-10.21.867-15.857-1.735-3.478-3.908-9.773-1.302-13.25M1446.38 793.064c-.218.435-.218.872 0 1.086M1425.31 794.366c-.216 0 3.694-1.08 5.215.22 3.91 2.606 1.736 7.167-.652 10.208-4.125 5.648-14.118 8.69-20.2 4.126 7.168-2.607 16.29-4.343 15.637-14.554M1432.045 760.05c-1.954-1.52-3.26-6.737-5.215-9.342-3.908-5.646-12.814-9.122-19.547-9.554 4.346 3.255 8.252 7.166 11.944 11.292 1.523 1.96 2.825 3.69 3.694 5.867.435 1.084 1.954 4.56.868 3.91M1472.445 795.02c-3.04 1.956-15.64 3.91-18.465 1.52M1496.77 776.557c-.432-1.736 2.177 1.306 3.045 1.74 4.125 2.17 7.816 4.125 11.73 6.728 8.035 5.214 17.157 6.955 24.542 13.25 11.078 9.343 13.902 22.595 11.512 36.06M1417.646 960.903c1.48 4.03 4.513 7.424 10.055 9.622M1435.083 826.95c1.74.653 0 4.993-.43 6.52-1.308 4.99-1.524 9.55-1.74 14.55-.217 5.432 0 9.99-1.086 15.423-1.087 4.996-3.258 9.988-4.126 14.987-2.825 19.982-4.562 39.964-8.905 59.514-1.766 7.737-3.616 16.24-1.148 22.96M1487.304 862.023c4.23 1.06 8.197 2.64 12.96 1.848M1511.105 798.543c-.528-1.324-25.654 10.313-29.36 12.167M1458.21 811.498c3.436.532 6.08.798 9.52.268M1461.646 829.753c5.025 3.173 13.224-.53 18.517-1.058M1444.188 806.212c3.705 5.818 4.5 14.812.795 21.423M1442.867 733.208c-2.38 2.646-9.258 5.29-7.937 8.995M1439.693 826.58c.53 1.32.793 2.91.265 4.495 1.585-1.058 3.967-2.116 4.23-4.234M1450.008 781.612c-2.643 2.117-3.968 3.443-5.025 6.35M1476.194 779.496c-1.325 1.323-2.646 2.647-3.702 3.705M1608.744 831.813c.478.573-.38 1.62-.857 2 .477.193 1.048.478 1.432.86-.575 1.145-.956 2.667-.67 3.91.188.762.476.666.67 1.43.284.952-.098 1.907-.194 2.86-.19 1.43 0 2.856.193 4.29.094.764.094 1.43.378 2.1 0 .19.76 1.81.382 1.048M1589.672 818.082c-.19-.19-.097-.287-.284-.382 1.713.476 1.523 1.433 1.332 2.858-.285 1.91.19 3.15.67 4.96.38 1.243 3.526 7.722 2.098 8.294M1573.747 909.336c.57.385.477.86 1.047 1.145-.478 4.482 5.055 9.823 2.77 14.022M1581.566 974.94c.477.67 0 2.29.572 3.245.192.38.763.38.952.668.19.478-.19.954-.19 1.332 0 .956 0 1.912.097 2.86.48 3.147.86 6.87.86 10.206-.19 0-.19-.093-.382-.187M1484.204 774.89c1.67-3.344-5.354-2.173-6.858-2.847-4.35-1.84-4.686-5.352-9.7-3.175-3.85 1.672-7.695 2.007-10.872 4.848-1.673 1.342-2.176 3.014-4.015 4.02-1.676.834-4.016.498-5.688 1.172-8.195 3.678-6.02 14.882-14.05 18.227M1433.357 760.67c2.508-.503 4.35-2.343 6.69-2.506 2.006 0 3.344.665 5.52.163 1.672-.332 3.177-1.004 4.684-1.335 5.855-1.174 13.88 2.004 18.567-2.508M2048 0M2048 1536M0 1536M0 0"/></g></svg>