<svg xmlns="http://www.w3.org/2000/svg" width="2048" height="1536" viewBox="0 0 2048 1536"><g fill="none" stroke="#17192D" stroke-width="3"><path d="M906.8 709.92c.41 4.338-5.544 7.827-7.568 11.377-2.187 3.826-3.674 8.6-5.497 12.587-1.985 4.35-3.476 9.17-5.53 13.57-2.505 5.364-6.577 4.814-9.716 9.01M1273.143 681.675c5.81 36.32-7.265 75.546-17.435 108.958-10.17 39.224-15.98 78.45-26.147 116.22 0-1.45 0-4.357-1.453-5.81M1151.11 742.692c4.358 23.246-7.265 52.3-5.81 76.997 1.452 14.527 5.81 29.056 7.262 42.13 1.455 7.264-1.45 33.414 2.906 24.697M901.52 516.066c4.768-.9 6.513-7.616 9.206-11.035 2.535-3.228 5.963-5.58 8.56-8.72 2.593-3.138 4.194-6.98 7.056-9.92 3.91-4.01 6.58-6.17 9.356-11.1 3.118-5.537 2.772-9.987 2.772-16.326M894.366 542.02c3.79-2.527 12.24-1.147 16.917-1.56 6.283-.546 8.322-4.905 14.612-5.212 5.9-.29 14.665 1.9 20.272.037 5.462-1.818 10.51-9.335 13.296-13.945 4.012-6.63 7.073-13.697 10.772-20.294 11.537-20.57 28.824-45.194 21.602-70.417-2.728-9.534-3.404-20.397-7.892-29.248-4.56-8.998-16.647-14.89-25.255-19.26-9.9-5.032-23.065-9.323-34.074-4.153-1.13.53-3.336 2.984-4.514 3.872-1.53 1.154-3.926 2.513-5.524 3.372-3.898 2.093-9.597 2.013-9.7 8.012M939.43 401.867c-6.346.702-13.645-4.24-20.045-5.182-3.718-.55-7.485-.368-11.23-.578-5.28-.296-9.615.138-14.77.96-4.905.78-10.223 1.484-14.896 3.466-3.337 1.413-6.033 3.865-9.094 5.66-7.544 4.436-17.762 4.68-24.493 10.066M860.255 425.857c2.525 0 5.105.06 7.6-.072-14.626-8.643-42.124-4.575-56.584 3.43-5.742 3.18-12.32 5.935-17.324 10.198-4.42 3.756-9.043 7.755-13.824 10.916M838.662 482.96c1.52 1.957-7.036-2.46-8.58-3.437-6.42-4.063-12.516-8.796-19.73-11.44M803.156 461.365c-3.785-3.544-15.118-2.39-20.153-2.88-4.13-.406-8.914-2.742-12.934-2.405-7.685.645-15.786 10.14-22.106 13.93-9.584 5.755-25.29 13.008-28.3 24.943M887.125 668.655c-.766-.73-1.488-1.38-1.955-2.288 9.933 6.424 20.39 10.44 28.774 19.032 4.313 4.417 9.083 8.324 13.882 12.182 6.474 5.207 13.852 11.22 18.8 18.096M974.936 712.8c-.95-7.184 7.305-11.494 12.022-15.46 2.35-1.98 5.835-4.15 7.683-6.59 2.065-2.73 2.43-6.185 4.29-9.175 2.586-4.16 8.704-12.587 8.635-17.718M998.017 645.387c.166.46.29.926.38 1.41-.327-8.19-6.18-18.165-9.578-25.582-2.538-5.522-6.64-9.803-10.39-14.59-6.05-7.725-12.21-12.002-19.856-17.63-7.3-5.372-14.465-11.21-21.353-17.027-9-7.603-17.624-16.65-29.273-19.984M912.597 558.26c.255.365 1.592.156.495.604-7.424-4.614-3.536-9.25-8.07-15.826M973.017 603.397c12.674 3.867 24.505 2.126 37.43 3.358 10.348.99 10.166 12.243 11.962 20.217 1.108 4.945 3.67 9.976 2.813 15.167-.458 2.805-2.253 5.274-2.688 8.165-1.16 7.754-2.15 15.502-3.937 23.15-2.668 11.44-8.41 23.25-17.848 30.708-5.417 4.28-8.098 8.598-12.378 13.81-2.555 3.11-12.208 6.8-9.6 11.624M1235.488 535.26c-3.215-6.35-13.278-11.82-19.675-14.397M1006.605 604.354c30.566-21.542 66.346-32.205 97.91-51.697 11.007-6.8 23.71-11.89 35.572-16.907 9.975-4.22 17.004-14.486 25.915-20.85 9.698-6.93 20.904-11.624 33.018-10.83M1211.977 667.693c4.4-6.01 8.33-9.797 11.035-17.13 2.947-7.994 9.54-18.88 8.637-27.493M1222.02 682.39c3.293 1.396 29.22 3.61 33.218 2.57 7.48-1.94 25.367-8.054 27.538-14.518 4.412-13.133-3.33-29.905 4.968-41.022 7.365-9.867-.945-29.347.362-42.296 1.742-17.24-6.358-30.787-15.64-43.72-6.98-9.728-14-21.857-24.67-27.727-11.068-6.083-30.385-7.27-42.937-6.655M1161.946 690.97c11.05 4.074 30.248 10.695 41.352 3.65 9.26-5.872 10.18-21.77 6.71-31.112M1201.426 683.247c-9.245 1.02-13.51-3.9-18.023-11.154M1088.548 806.344c1.222 13.414 1.555 24.993 8.474 36.285M1088.783 808.91c-1.587-8.13 1.103-16.785 4.733-23.7M1070.112 817.993c-1.034-6.01-4.153-12.298-1.72-18.026M1152.562 738.333c14.53-21.793 33.413-29.055 50.848-45.037M1217.935 678.77c11.626-2.906 20.34-11.624 24.7-20.34M1096.027 784.62c18.41-22.102 37.215-39.862 60.755-53.677M1126.412 725.258c11.624 0 23.247 2.905 30.508-4.36M2048 0M2048 1536M0 1536M0 0"/></g></svg>