<svg xmlns="http://www.w3.org/2000/svg" width="2048" height="1536" viewBox="0 0 2048 1536"><g fill="none" stroke="#17192D" stroke-width="3"><path d="M1337.498 255.905c-1.13 1.4-3.268 2.022-4.706 3.24-1.448 1.222-3.097 2.666-4.2 4.3-2.377 3.52-4.003 8.395-5.672 12.317-4.323 10.177-10.18 19.215-15.437 28.865-1.98 3.636-5.39 9.945-9.038 12.027M1342.157 250.25c2.62-1.33 4.056-6.128 5.253-8.594 2.035-4.184 4.09-7.58 7.006-11.272 4.612-5.86 8.7-12.02 12.915-18.08 4.187-6.033 8.395-11.494 14.016-16.262 1.036-.88 2.927-3.105 4.25-3.347 1.268-.243 2.46.907 3.406 2.204 2.715 3.71 3.755 7.012 1.438 11.223-.827 1.5-1.866 2.5-3.07 3.762-1.616 1.7-1.74 2.807-2.468 5.035-1.164 3.54-3.16 6.713-5.574 9.696-2.404 2.97-5.642 5.796-7.774 8.866-1.31 1.882-.34 3.686-.646 5.958-.273 2.053-.854 4.345-1.57 6.278-.912 2.496-2.242 5.367-3.736 7.475M1345.538 273.094c.942-2.648 3.255-4.357 5.876-5.3M1361.923 295.865c1.25-3.263 5.272-3.72 8.052-4.796M1377.035 322.535c.072-2.422 5.287-4.545 7.338-4.723M1354.906 377.395c4.998-.47 10.134 1.48 13.26 5.104M1292.193 386.523c3.967 7.265 15.25 6.958 21.488 10.035 7.543 3.732 15.398 7.22 23.59 8.77 4.24.8 7.925.674 12.282.48 3.808-.172 6.867 1.475 10.484 2.534 3.57 1.043 6.523 3.685 10.18 4.638 4.516 1.174 8.948 2.568 13.507 3.228 3.862.564 9.887.45 13.244 2.55 1.907 1.19 3.317 3.09 5.36 4.238 2.008 1.12 3.858 1.9 5.756 3.174 1.523 1.022 3.338 3.05 5.24 2.798 1.54-.204 3.704-2.452 4.562-3.583 2.342-3.12 1.847-7.06 0-10.332-2.22-3.962-5.18-6.976-8.325-10.31-3.237-3.426-7.108-5.098-11.18-7.375-3.465-1.94-6.547-3.945-10.132-5.763-3.496-1.772-7.028-2.706-10.836-3.908-2.745-.874-6.72-1.637-9.062-3.326M1366.463 372.26c3.553-2.837 6.928-5.96 10.555-8.755 3.233-2.49 6.33-4.738 9.385-7.593 2.666-2.485 5.037-6.32 7.94-8.332 3.274-2.28 6.98-3.386 10.125-5.88 3.32-2.643 4.198-6.664 7.13-9.444 1.444-1.366 3.736-1.608 5.613-2.487 1.893-.887 3.765-1.826 5.652-2.69 3.863-1.77 6.456-4.838 9.873-7.336 3.216-2.354 7.67-2.957 11.182-4.8 3.76-1.968 6.447-5.305 10.004-7.11 3.487-1.772 6.495-3.503 9.315-6.323 2.134-2.134 5.937-5.474 5.497-8.635-.53-3.806-4.557-6.055-8.148-6.07-8.474-.033-16.008 4.37-23.786 5.843-3.753.71-7.598 2.286-10.957 4.08-1.802.97-3.557 2.318-5.35 3.175-1.785.843-3.663 1.01-5.505 1.888-3.146 1.504-6.185 3.502-9.177 5.376-2.643 1.656-6.513 4.446-8.325 6.78M1362.67 261.98c3.633-1.864 6.967-4.95 9.955-7.76 3.033-2.856 5.917-5.136 8.512-8.508 2.248-2.92 4.248-5.875 6.804-8.444 2.877-2.9 6.438-4.702 9.622-7.033 3.255-2.377 6.027-5.127 9.11-7.675 1.89-1.554 3.854-2.846 5.41-4.774 1.353-1.683 2.658-2.06 4.206-3.48 1.694-1.555 1.247-3.264 3.737-2.263 1.3.52 2.942 2.263 3.81 3.373 2.227 2.848 4.526 6.512 3.355 10.31-1.187 3.886-5.273 7.76-8.45 9.99-1.666 1.166-3.222 1.745-4.604 3.38-1.692 1.995-3.052 4.127-4.87 6.043-3.007 3.17-6.015 6.126-9.302 8.943-1.52 1.29-3.306 2.395-4.677 3.57-1.678 1.428-1.73 3.693-2.876 5.717-1.255 2.223-2.874 4.51-4.438 6.553-1.456 1.924-5.23 4.278-5.708 6.48M1381.294 288.317c2.506-3.548 7.785-5.792 11.554-7.55 3.8-1.766 6.463-5.257 9.39-8.003 2.98-2.795 6.666-4.924 10.227-6.853 3.58-1.94 6.38-4.65 9.393-7.477 5.734-5.388 13.567-7.446 20.516-10.768 1.578-.762 3.11-1.926 4.568-1.104 1.696.964 1.718 3.37 2.19 4.94 1.25 4.192 2.322 6.95-.06 10.936-2.19 3.678-5.216 6.207-8.77 8.3-3.3 1.946-5.91 4.248-9.264 6.333-3.62 2.238-6.947 4.724-10.716 6.575-1.728.847-3.525 1.64-5.2 2.52-2.266 1.2-2.62 2.612-3.97 4.715-1.937 3.01-4.495 5.84-7.08 8.18-2.47 2.238-6.384 6.306-9.44 7.35M2048 0M2048 1536M0 1536M0 0"/></g></svg>