<?xml version="1.0" encoding="iso-8859-1"?>
<!-- Generator: Adobe Illustrator 15.1.0, SVG Export Plug-In . SVG Version: 6.00 Build 0)  -->
<!DOCTYPE svg PUBLIC "-//W3C//DTD SVG 1.1//EN" "http://www.w3.org/Graphics/SVG/1.1/DTD/svg11.dtd">
<svg version="1.1" xmlns="http://www.w3.org/2000/svg" xmlns:xlink="http://www.w3.org/1999/xlink" x="0px" y="0px" width="2048px"
	 height="1536px" viewBox="0 0 2048 1536" style="enable-background:new 0 0 2048 1536;" xml:space="preserve">
<g id="a3a_x5F_schulter_x5F_v">
	<path style="fill:none;stroke:#17192D;stroke-width:3;" d="M970.618,911.934c4.778,2.067,13.908,3.475,15.837,9.115"/>
	<g>
		<path style="fill:none;stroke:#17192D;stroke-width:3;" d="M862.656,774.222c4.955,7.948,11.853,13.642,15.964,22.552
			c3.716,8.049,8.09,16.515,9.348,25.325c2.14,15.064,5.032,29.509,13.553,42.333"/>
		<path style="fill:none;stroke:#17192D;stroke-width:3;" d="M861.215,863.949c9.522-0.674,20.892,0.778,30.253,2.379
			c5.237,0.894,11.162,3.287,14.958,6.739c8.03,7.297,15.837,17.667,24.845,23.512"/>
		<path style="fill:none;stroke:#17192D;stroke-width:3;" d="M901.042,904.734c0.901-3.941,17.972-2.805,22.203-3.222
			c6.182-0.615,12.335-0.683,18.56-0.615c4.918,0.05,9.732,0.915,14.43,2.517c5.67,1.936,9.265,6.604,14.863,8.999"/>
		<path style="fill:none;stroke:#17192D;stroke-width:3;" d="M947.106,950.801c-0.465-0.43-0.58-0.898-0.335-1.404
			c7.285-0.201,17.734-10.168,21.948-15.512c3.666-4.646,4.854-11.336,10.514-12.836c16.94-4.491,32.703,15.83,44.647,23.033"/>
		<path style="fill:none;stroke:#17192D;stroke-width:3;" d="M1005.646,944.562c4.063,1.227,8.267,0.855,12.453,1.54
			c5.427,0.879,10.391,2.638,15.868,3.258c5.541,0.628,10.8,2.345,16.186,3.96c5.624,1.688,11.132,4.114,16.316,6.705
			c3.778,1.889,7.489,5.699,11.573,6.689c-1.049,3.987-1.717,7.98-1.858,12.266c-0.202,6.109-1.783,8.284-4.811,13.183
			c-4.114,6.663-7.362,12.848-13.315,18.031c-3.886,3.382-7.057,7.092-10.667,10.65c-4.532,4.471-10.189,12.082-15.351,15.367"/>
		<path style="fill:none;stroke:#17192D;stroke-width:3;" d="M707.188,959.438c-6.047-2.828-14.406-7.44-19.349-11.854
			c-4.493-4.011-7.599-9.1-12.347-12.907c-3.487-2.795-7.325-5.254-10.551-8.349c-10.435-9.993-17.062-24.899-23.137-37.79
			c-5.396-11.438-9.024-21.724-11.377-34.185c-0.797-4.214-6.08-24.417-1.935-26.87"/>
		<path style="fill:none;stroke:#17192D;stroke-width:3;" d="M688.476,821.244c11.167,3.521,21.615,12.172,30.708,19.194"/>
		<path style="fill:none;stroke:#17192D;stroke-width:3;" d="M732.141,829.885c4.247-1.24,12.121,3.565,16.499,4.675
			c13.657,3.467,28.032,5.871,42.04,7.319"/>
		<path style="fill:none;stroke:#17192D;stroke-width:3;" d="M1024.358,1038.612c0.506,0.178,1.298-0.023,1.84,0.07
			c0.714,1.595,2.381,1.793,4.29,1.359c-7.916,0.998-15.011,7.634-22.524,10.189c-5.217,1.777-12.098,2.161-17.694,2.294
			c-8.499,0.207-15.544-3.438-23.535-5.66c-6.361-1.768-19.688-4.554-22.508-10.653"/>
		<path style="fill:none;stroke:#17192D;stroke-width:3;" d="M973.017,1034.292c-9.771,0.562-19.447,1.163-29.128,1.941
			c-12.038,0.971-23.752-4.26-34.69-8.656"/>
		<path style="fill:none;stroke:#17192D;stroke-width:3;" d="M919.277,1019.898c0.401,0.254,1.648,0.084,0.503,0.505
			c-11.504-0.151-21.399,1.511-32.617,3.366c-10.066,1.664-18.306-2.139-27.809-3.845c-7.896-1.422-15.772-2.705-23.545-3.867
			c-7.86-1.174-14.274-4.878-21.628-7.676c-6.724-2.561-14.649-9.249-21.583-10.56"/>
		<path style="fill:none;stroke:#17192D;stroke-width:3;" d="M837.222,1003.583c-3.317-1.178-7.376-0.326-10.896-0.579
			c-5.577-0.396-10.822-1.354-16.449-1.341c-9.405,0.027-17.313-1.544-26.363-3.735c-7.573-1.829-15.088-3.998-22.456-6.689
			c-7.654-2.797-15.201-3.98-22.279-8.321c-4.822-2.959-8.668-7.036-13.26-10.188c-2.704-1.848-6.124-2.715-8.743-4.247
			c-7.991-4.684-15.488-11.212-23.983-15.281"/>
		<path style="fill:none;stroke:#17192D;stroke-width:3;" d="M840.103,992.069c4.783,2.046,10.081,1.489,15.188,1.442
			c10.347-0.084,22.395-1.374,32.315-4.322"/>
	</g>
	<path style="fill:none;stroke:#17192D;stroke-width:3;" d="M2048,0"/>
	<path style="fill:none;stroke:#17192D;stroke-width:3;" d="M2048,1536"/>
	<path style="fill:none;stroke:#17192D;stroke-width:3;" d="M0,1536"/>
	<path style="fill:none;stroke:#17192D;stroke-width:3;" d="M0,0"/>
</g>
<g id="Layer_1">
</g>
</svg>
