<?xml version="1.0" encoding="iso-8859-1"?>
<!-- Generator: Adobe Illustrator 15.1.0, SVG Export Plug-In . SVG Version: 6.00 Build 0)  -->
<!DOCTYPE svg PUBLIC "-//W3C//DTD SVG 1.1//EN" "http://www.w3.org/Graphics/SVG/1.1/DTD/svg11.dtd">
<svg version="1.1" xmlns="http://www.w3.org/2000/svg" xmlns:xlink="http://www.w3.org/1999/xlink" x="0px" y="0px" width="2048px"
	 height="1536px" viewBox="0 0 2048 1536" style="enable-background:new 0 0 2048 1536;" xml:space="preserve">
<g id="a3a_x5F_corpus">
	<g>
		<path style="fill:none;stroke:#17192D;stroke-width:3;" d="M906.799,709.919c0.41,4.339-5.543,7.828-7.567,11.378
			c-2.187,3.826-3.674,8.601-5.497,12.587c-1.985,4.35-3.476,9.169-5.531,13.571c-2.504,5.363-6.576,4.813-9.715,9.009"/>
		<path style="fill:none;stroke:#17192D;stroke-width:3;" d="M1273.143,681.675c5.81,36.32-7.265,75.546-17.435,108.958
			c-10.169,39.224-15.98,78.449-26.147,116.221c0-1.452,0-4.358-1.454-5.811"/>
		<path style="fill:none;stroke:#17192D;stroke-width:3;" d="M1151.111,742.692c4.357,23.246-7.266,52.301-5.812,76.997
			c1.453,14.528,5.812,29.057,7.263,42.131c1.455,7.264-1.451,33.414,2.906,24.697"/>
		<path style="fill:none;stroke:#17192D;stroke-width:3;" d="M901.521,516.066c4.767-0.901,6.512-7.616,9.205-11.035
			c2.535-3.229,5.963-5.58,8.56-8.721c2.593-3.138,4.194-6.981,7.056-9.919c3.909-4.012,6.579-6.172,9.356-11.101
			c3.118-5.537,2.772-9.987,2.772-16.326"/>
		<path style="fill:none;stroke:#17192D;stroke-width:3;" d="M894.366,542.021c3.79-2.528,12.239-1.148,16.917-1.561
			c6.283-0.546,8.322-4.905,14.612-5.212c5.9-0.291,14.665,1.9,20.272,0.037c5.462-1.818,10.509-9.335,13.296-13.945
			c4.012-6.63,7.073-13.697,10.772-20.294c11.537-20.57,28.824-45.194,21.602-70.417c-2.728-9.533-3.404-20.396-7.892-29.247
			c-4.561-8.998-16.647-14.889-25.255-19.261c-9.899-5.031-23.065-9.322-34.074-4.152c-1.129,0.532-3.336,2.985-4.514,3.873
			c-1.531,1.154-3.926,2.513-5.524,3.372c-3.898,2.093-9.597,2.013-9.7,8.012"/>
		<path style="fill:none;stroke:#17192D;stroke-width:3;" d="M939.429,401.867c-6.345,0.702-13.644-4.241-20.044-5.182
			c-3.718-0.549-7.485-0.368-11.231-0.578c-5.279-0.296-9.614,0.138-14.768,0.96c-4.906,0.781-10.224,1.484-14.897,3.466
			c-3.336,1.413-6.032,3.865-9.093,5.661c-7.544,4.435-17.762,4.68-24.493,10.065"/>
		<path style="fill:none;stroke:#17192D;stroke-width:3;" d="M860.255,425.857c2.525,0,5.105,0.061,7.6-0.072
			c-14.626-8.643-42.124-4.575-56.584,3.43c-5.743,3.181-12.32,5.935-17.325,10.198c-4.42,3.756-9.043,7.755-13.824,10.916"/>
		<path style="fill:none;stroke:#17192D;stroke-width:3;" d="M838.662,482.959c1.521,1.958-7.036-2.458-8.579-3.436
			c-6.42-4.063-12.517-8.796-19.73-11.441"/>
		<path style="fill:none;stroke:#17192D;stroke-width:3;" d="M803.156,461.365c-3.785-3.544-15.118-2.39-20.153-2.879
			c-4.13-0.407-8.914-2.743-12.934-2.406c-7.684,0.645-15.785,10.139-22.105,13.93c-9.584,5.755-25.29,13.008-28.301,24.943"/>
		<path style="fill:none;stroke:#17192D;stroke-width:3;" d="M887.125,668.655c-0.766-0.729-1.488-1.381-1.955-2.288
			c9.933,6.424,20.391,10.439,28.774,19.032c4.313,4.418,9.083,8.325,13.882,12.183c6.474,5.207,13.852,11.221,18.801,18.096"/>
		<path style="fill:none;stroke:#17192D;stroke-width:3;" d="M974.936,712.8c-0.951-7.184,7.305-11.494,12.022-15.46
			c2.35-1.98,5.835-4.15,7.683-6.59c2.064-2.73,2.43-6.185,4.289-9.175c2.586-4.159,8.704-12.587,8.635-17.718"/>
		<path style="fill:none;stroke:#17192D;stroke-width:3;" d="M998.017,645.387c0.166,0.459,0.291,0.926,0.379,1.41
			c-0.326-8.189-6.18-18.165-9.577-25.582c-2.537-5.522-6.639-9.803-10.388-14.59c-6.05-7.725-12.21-12.002-19.857-17.63
			c-7.299-5.372-14.465-11.211-21.353-17.027c-9.002-7.603-17.625-16.651-29.274-19.984"/>
		<path style="fill:none;stroke:#17192D;stroke-width:3;" d="M912.597,558.261c0.255,0.364,1.592,0.155,0.495,0.603
			c-7.424-4.614-3.536-9.251-8.071-15.826"/>
		<path style="fill:none;stroke:#17192D;stroke-width:3;" d="M973.017,603.397c12.674,3.867,24.505,2.126,37.429,3.358
			c10.349,0.99,10.167,12.243,11.963,20.217c1.109,4.945,3.67,9.976,2.814,15.167c-0.458,2.806-2.253,5.275-2.688,8.166
			c-1.161,7.754-2.15,15.502-3.937,23.149c-2.668,11.44-8.411,23.252-17.848,30.709c-5.417,4.281-8.098,8.598-12.378,13.811
			c-2.555,3.11-12.208,6.8-9.6,11.623"/>
		<path style="fill:none;stroke:#17192D;stroke-width:3;" d="M1235.488,535.26c-3.215-6.35-13.278-11.819-19.675-14.397"/>
		<path style="fill:none;stroke:#17192D;stroke-width:3;" d="M1006.605,604.354c30.566-21.542,66.346-32.205,97.909-51.697
			c11.008-6.801,23.711-11.889,35.573-16.907c9.975-4.219,17.004-14.486,25.915-20.85c9.698-6.93,20.904-11.624,33.018-10.83"/>
		<path style="fill:none;stroke:#17192D;stroke-width:3;" d="M1211.977,667.693c4.401-6.01,8.331-9.797,11.035-17.131
			c2.947-7.993,9.541-18.878,8.637-27.492"/>
		<path style="fill:none;stroke:#17192D;stroke-width:3;" d="M1222.021,682.39c3.292,1.396,29.219,3.61,33.217,2.571
			c7.479-1.942,25.367-8.055,27.538-14.519c4.412-13.133-3.329-29.905,4.968-41.022c7.365-9.867-0.945-29.347,0.362-42.296
			c1.742-17.239-6.358-30.787-15.641-43.721c-6.978-9.727-13.998-21.856-24.67-27.726c-11.067-6.083-30.384-7.269-42.936-6.655"/>
		<path style="fill:none;stroke:#17192D;stroke-width:3;" d="M1161.946,690.971c11.049,4.073,30.248,10.694,41.352,3.649
			c9.259-5.872,10.181-21.771,6.71-31.112"/>
		<path style="fill:none;stroke:#17192D;stroke-width:3;" d="M1201.426,683.247c-9.245,1.021-13.511-3.901-18.023-11.154"/>
		<path style="fill:none;stroke:#17192D;stroke-width:3;" d="M1088.548,806.344c1.222,13.414,1.555,24.993,8.474,36.285"/>
		<path style="fill:none;stroke:#17192D;stroke-width:3;" d="M1088.783,808.909c-1.587-8.128,1.103-16.784,4.733-23.699"/>
		<path style="fill:none;stroke:#17192D;stroke-width:3;" d="M1070.112,817.993c-1.034-6.011-4.153-12.298-1.72-18.026"/>
		<path style="fill:none;stroke:#17192D;stroke-width:3;" d="M1152.562,738.333c14.529-21.793,33.413-29.055,50.848-45.037"/>
		<path style="fill:none;stroke:#17192D;stroke-width:3;" d="M1217.935,678.77c11.626-2.906,20.341-11.624,24.699-20.341"/>
		<path style="fill:none;stroke:#17192D;stroke-width:3;" d="M1096.027,784.62c18.41-22.102,37.215-39.862,60.755-53.677"/>
		<path style="fill:none;stroke:#17192D;stroke-width:3;" d="M1126.412,725.258c11.624,0,23.247,2.905,30.508-4.359"/>
	</g>
	<path style="fill:none;stroke:#17192D;stroke-width:3;" d="M2048,0"/>
	<path style="fill:none;stroke:#17192D;stroke-width:3;" d="M2048,1536"/>
	<path style="fill:none;stroke:#17192D;stroke-width:3;" d="M0,1536"/>
	<path style="fill:none;stroke:#17192D;stroke-width:3;" d="M0,0"/>
</g>
<g id="Layer_1">
</g>
</svg>
