<svg xmlns="http://www.w3.org/2000/svg" width="2048" height="1536" viewBox="0 0 2048 1536"><g fill="none" stroke="#17192D" stroke-width="3"><path d="M970.618 911.934c4.778 2.067 13.908 3.475 15.837 9.115M862.656 774.222c4.955 7.948 11.853 13.642 15.964 22.552 3.716 8.05 8.09 16.515 9.348 25.325 2.14 15.063 5.032 29.508 13.553 42.332M861.215 863.95c9.522-.675 20.892.777 30.253 2.378 5.237.894 11.162 3.287 14.958 6.74 8.03 7.296 15.837 17.666 24.845 23.51M901.042 904.734c.9-3.94 17.972-2.805 22.203-3.222 6.182-.615 12.335-.683 18.56-.615 4.918.05 9.732.915 14.43 2.517 5.67 1.936 9.265 6.604 14.863 9M947.106 950.8c-.465-.43-.58-.897-.335-1.403 7.286-.2 17.735-10.168 21.95-15.512 3.665-4.646 4.853-11.336 10.513-12.836 16.94-4.492 32.703 15.83 44.647 23.032M1005.646 944.562c4.063 1.227 8.267.855 12.453 1.54 5.426.88 10.39 2.638 15.867 3.258 5.54.628 10.8 2.345 16.186 3.96 5.624 1.688 11.132 4.114 16.316 6.705 3.777 1.89 7.488 5.7 11.572 6.69-1.05 3.986-1.717 7.98-1.858 12.265-.202 6.11-1.783 8.284-4.81 13.183-4.115 6.663-7.363 12.848-13.316 18.03-3.886 3.383-7.057 7.093-10.667 10.65-4.53 4.472-10.188 12.083-15.35 15.368M707.188 959.438c-6.047-2.828-14.406-7.44-19.35-11.854-4.492-4.01-7.598-9.1-12.346-12.907-3.487-2.795-7.325-5.254-10.55-8.35-10.436-9.992-17.063-24.898-23.138-37.79-5.396-11.437-9.024-21.723-11.377-34.184-.797-4.214-6.08-24.417-1.935-26.87M688.476 821.244c11.167 3.52 21.615 12.172 30.708 19.194M732.14 829.885c4.248-1.24 12.122 3.565 16.5 4.675 13.657 3.467 28.032 5.87 42.04 7.32M1024.358 1038.612c.506.178 1.298-.023 1.84.07.714 1.595 2.38 1.793 4.29 1.36-7.916.997-15.01 7.633-22.524 10.188-5.217 1.777-12.098 2.16-17.694 2.294-8.5.207-15.544-3.438-23.535-5.66-6.36-1.768-19.688-4.554-22.508-10.653M973.017 1034.292c-9.77.562-19.447 1.163-29.128 1.94-12.04.972-23.753-4.26-34.69-8.655M919.277 1019.898c.4.254 1.648.084.503.505-11.504-.15-21.4 1.51-32.617 3.366-10.066 1.663-18.306-2.14-27.81-3.846-7.895-1.422-15.77-2.705-23.544-3.867-7.86-1.174-14.275-4.878-21.63-7.676-6.723-2.56-14.648-9.248-21.582-10.56M837.222 1003.583c-3.317-1.178-7.376-.326-10.896-.58-5.577-.395-10.822-1.353-16.45-1.34-9.404.027-17.312-1.544-26.362-3.735-7.573-1.83-15.088-3.998-22.456-6.69-7.654-2.796-15.2-3.98-22.28-8.32-4.82-2.96-8.667-7.036-13.26-10.188-2.703-1.848-6.123-2.715-8.742-4.247-7.99-4.684-15.488-11.212-23.983-15.28M840.103 992.07c4.783 2.045 10.08 1.488 15.188 1.44 10.348-.083 22.396-1.373 32.316-4.32M2048 0M2048 1536M0 1536M0 0"/></g></svg>