<svg xmlns="http://www.w3.org/2000/svg" width="2048" height="1536" viewBox="0 0 2048 1536"><g fill="none" stroke="#17192D" stroke-width="3"><path d="M1089.446 1070.79c26.523 4.82 40.475 14.47 69.406 15.675 26.52 1.206 54.247 0 80.768-1.204 56.66-1.21 110.905-13.26 166.36-15.673M1100.984 974.353c19.29 0 43.4 1.203 54.25 18.08M1125.1 1002.08c9.644-19.29 124.166-7.23 147.07-7.23 27.727 0 55.45 1.203 83.18 3.61 10.85 1.21 24.108 3.62 36.165 0M1076.662 969.515c6.32.615 17.318.02 22.074 4.798M1083.577 1068.432c-29.056-5.085-59.564-2.18-86.442-15.255M2048 0M2048 1536M0 1536M0 0"/></g></svg>