<svg xmlns="http://www.w3.org/2000/svg" width="2048" height="1536" viewBox="0 0 2048 1536"><g fill="none" stroke="#17192D" stroke-width="3"><path d="M1166.09 912.865c2.407 1.21 2.407 2.41 4.815 2.41v-1.2c-13.258-20.496-40.984-34.96-60.274-51.838-22.906-20.496-43.397-43.397-61.478-68.716h3.614M907.922 711.68c46.062 0 113.88 35.825 136.914 78.055M1166.393 910.013c7.678-8.955 58.86-1.28 75.497-1.28 21.75-1.276 35.826-10.237 56.3-11.516 15.357-1.277 42.226-7.678 55.02 0M1306.604 927.383c-.136-.226-.27-.455-.398-.686 6.105-.174 12.702-.857 18.55.4 4.64.997 9.317 2.357 14.137 1.936 8.242-.73 16.02-9.188 17.9-16.964.57-2.365.9-5.275-.228-7.543-1.054-2.118-3.98-6.78-6.835-6.126M1307.757 945.094c4.186.145 8.51-.638 12.683 0 2.596.393 5.128 1.02 7.788 1.254 4.463.395 8.574-.535 12.92-.166 4.582.396 9.25-2.037 11.104-6.698 1.463-3.683 1.836-12.45-4.205-11.955M1308.258 963.747c-.214-.11-.43-.193-.66-.254 5.16.11 10.514.067 15.57 1.02 3.295.618 7.404 1.77 10.838 1.13 2.686-.5 5.654-2.398 7.283-4.242 1.62-1.832 6.806-12.938 1.136-11.558M1300.48 978.99c1.42-1.624 7.722-.206 10.12.01 3.21.284 6.443.547 9.614.878 3.423.36 6.66 2.013 10.125 1.938 4.086-.082 6.79-3.598 8.603-6.843 1.134-2.035 2.863-8.632-1.94-8.236M1323.336 994.545c-.232-.162-.453.217-.46-.232 2.838-1.396 5.283-2.358 7.296-4.9 1.64-2.084 1.2-4.73 2.594-6.648M1015.144 920.036c11.26 8.187 26.607 12.278 39.908 16.374M1007.982 777.803c0 7.162 3.07 13.303 5.115 20.466M949.654 856.594c5.118 0 10.233 2.047 14.328 4.093M2048 0M2048 1536M0 1536M0 0"/></g></svg>