<?xml version="1.0" encoding="iso-8859-1"?>
<!-- Generator: Adobe Illustrator 15.1.0, SVG Export Plug-In . SVG Version: 6.00 Build 0)  -->
<!DOCTYPE svg PUBLIC "-//W3C//DTD SVG 1.1//EN" "http://www.w3.org/Graphics/SVG/1.1/DTD/svg11.dtd">
<svg version="1.1" xmlns="http://www.w3.org/2000/svg" xmlns:xlink="http://www.w3.org/1999/xlink" x="0px" y="0px" width="2048px"
	 height="1536px" viewBox="0 0 2048 1536" style="enable-background:new 0 0 2048 1536;" xml:space="preserve">
<g id="a3a_x5F_bein_x5F_v">
	<g>
		<path style="fill:none;stroke:#17192D;stroke-width:3;" d="M1166.089,912.865c2.408,1.21,2.408,2.411,4.816,2.411v-1.201
			c-13.258-20.496-40.984-34.961-60.274-51.838c-22.907-20.496-43.398-43.397-61.479-68.716h3.614"/>
		<path style="fill:none;stroke:#17192D;stroke-width:3;" d="M907.922,711.679c46.062,0,113.879,35.826,136.914,78.056"/>
		<path style="fill:none;stroke:#17192D;stroke-width:3;" d="M1166.393,910.013c7.678-8.955,58.861-1.279,75.497-1.279
			c21.751-1.277,35.826-10.238,56.3-11.517c15.357-1.277,42.226-7.678,55.021,0"/>
		<path style="fill:none;stroke:#17192D;stroke-width:3;" d="M1306.604,927.383c-0.136-0.226-0.271-0.455-0.398-0.686
			c6.105-0.174,12.702-0.857,18.549,0.4c4.64,0.997,9.318,2.357,14.138,1.936c8.242-0.73,16.02-9.188,17.899-16.964
			c0.57-2.364,0.901-5.274-0.227-7.542c-1.054-2.118-3.981-6.781-6.835-6.126"/>
		<path style="fill:none;stroke:#17192D;stroke-width:3;" d="M1307.757,945.094c4.186,0.145,8.511-0.638,12.683,0
			c2.596,0.393,5.128,1.021,7.788,1.254c4.463,0.395,8.574-0.535,12.92-0.166c4.582,0.396,9.251-2.037,11.104-6.698
			c1.463-3.683,1.836-12.449-4.205-11.955"/>
		<path style="fill:none;stroke:#17192D;stroke-width:3;" d="M1308.258,963.747c-0.214-0.11-0.429-0.193-0.659-0.254
			c5.159,0.11,10.513,0.067,15.569,1.021c3.295,0.617,7.404,1.77,10.838,1.128c2.686-0.5,5.654-2.397,7.283-4.241
			c1.62-1.833,6.807-12.939,1.137-11.559"/>
		<path style="fill:none;stroke:#17192D;stroke-width:3;" d="M1300.479,978.991c1.421-1.625,7.723-0.207,10.122,0.008
			c3.21,0.285,6.442,0.548,9.613,0.879c3.423,0.36,6.66,2.013,10.125,1.938c4.087-0.082,6.791-3.598,8.604-6.843
			c1.134-2.035,2.863-8.632-1.941-8.236"/>
		<path style="fill:none;stroke:#17192D;stroke-width:3;" d="M1323.336,994.545c-0.232-0.162-0.453,0.217-0.461-0.232
			c2.839-1.396,5.284-2.358,7.297-4.901c1.641-2.083,1.199-4.729,2.594-6.647"/>
		<path style="fill:none;stroke:#17192D;stroke-width:3;" d="M1015.144,920.036c11.259,8.187,26.607,12.278,39.908,16.374"/>
		<path style="fill:none;stroke:#17192D;stroke-width:3;" d="M1007.982,777.803c0,7.162,3.069,13.303,5.115,20.466"/>
		<path style="fill:none;stroke:#17192D;stroke-width:3;" d="M949.654,856.594c5.118,0,10.233,2.047,14.328,4.093"/>
	</g>
	<path style="fill:none;stroke:#17192D;stroke-width:3;" d="M2048,0"/>
	<path style="fill:none;stroke:#17192D;stroke-width:3;" d="M2048,1536"/>
	<path style="fill:none;stroke:#17192D;stroke-width:3;" d="M0,1536"/>
	<path style="fill:none;stroke:#17192D;stroke-width:3;" d="M0,0"/>
</g>
<g id="Layer_1">
</g>
</svg>
