<svg xmlns="http://www.w3.org/2000/svg" width="2048" height="1536" viewBox="0 0 2048 1536"><g fill="none" stroke="#17192D" stroke-width="3"><path d="M734.83 817.09c2.826 1.89 12.487 1.18 16.496 1.648 7.067.948 14.375.24 21.68.71 16.26.94 31.81-6.835 45.008-15.55 12.724-8.016 26.157-21.916 32.518-35.822M856.518 753.467c1.18-2.358 4.242-2.358 6.362-3.533 2.83-1.65 4.952-4.01 6.836-6.6 3.77-4.713 5.655-9.66 6.598-15.79.943-5.655-1.65-8.956-2.828-14.374-1.18-4.482-2.355-14.85-9.19-14.613M849.47 765.596c3.825-.33 9.027-2.662 12.682-3.723 2.934-.892 5.906-2.253 8.46-4.138 6.3-3.873 8.732-9.32 10.81-15.98 3.482-11.26 5.437-21.488.59-32.382-2.115-4.946-5.71-9.327-6.84-14.645M851.333 745.924c-1.177-2.12-.295-6.526-1.885-8.722M564.195 806.368c23.513 8.64 43.187 16.316 68.14 16.316 18.715 0 36.944-1.44 55.66-3.356 12.475-.96 23.512-5.28 36.468-5.28l-11.72-12.7M691.835 804.448c19.672-1.915 39.825-3.835 59.5-5.275l-5.54-15.802M728.3 781.898c24.953.956 51.822.956 75.816-7.197l-5.842-15.302M786.36 762.225c6.236-2.4 12.956-4.32 19.196-6.718 6.717-2.398 12.953-7.2 20.152-9.116l-5.1-14.594M812.753 731.99c9.115-.477 20.632-8.634 30.228-6.235M848.107 671.646l6.633 9.303c-2.875-17.276-.24-30.53-10.32-44.924-7.2-10.08-15.837-18.713-22.552-28.79-4.8-6.718-7.678-13.918-14.394-19.674-5.277-4.317-11.515-7.676-16.314-13.435l14.396-3.84c-.437-.343-23.5-27.68-37.91-37.908-9.596-6.717-20.152-11.996-29.75-18.714-13.914-9.12-28.79-11.994-43.184-19.193l14.394.48c-4.32-5.28-22.553-7.678-29.748-8.637-12-1.92-22.553-1.438-34.552-.48-35.025 2.88-69.572-3.36-103.163 10.077-14.877 6.237-31.668 15.354-43.663 26.392-13.436 12.475-31.192 23.032-35.99 41.746l-12.477-5.278c-2.396 7.677-3.36 16.316-5.757 23.99l5.278 3.36c-3.358 15.836 2.306 70.492-3.84 54.222-.852-2.253-11.996 3.84-11.996 3.84-1.92-.482-3.36 3.357-2.876 6.715l10.075 4.8c-1.917 16.314 2.88 37.425 8.638 53.262 8.156 20.634 20.153 38.868 36.468 53.742 15.832 14.876 35.028 33.59 55.18 41.267 13.436 5.757 25.91 12.957 38.866 19.673 1.437.484 2.4.962 3.84 1.44 0 0-1.035-13.388-3.213-12.66M845.306 667.875c2.878 10.077 5.353 23.812 6.312 34.848l-12.85-5.07M830.028 672.973M824.562 680.184c11.276 10.566 20.548 29.585 18.15 45.245M827.147 689.765M829.065 701.765M849.22 673.933c-5.278-12.955-15.357-23.513-25.432-32.63M838.394 738.897c-4.796 15.08-15.077 38.386-31.53 42.5M858.272 651.846c0 12.34 5.484 30.844-3.427 41.812M836.34 748.493c1.368 10.97-1.374 20.566-13.71 23.306M861.014 660.237c5.482 10.22 6.168 16.186-1.37 26.403M870.867 695.028c11.018-12.84 5.737-30.492.227-45.737-10.1-28.086-30.526-36.11-55.32-52.963M2048 0M2048 1536M0 1536M0 0"/></g></svg>