<?xml version="1.0" encoding="iso-8859-1"?>
<!-- Generator: Adobe Illustrator 15.1.0, SVG Export Plug-In . SVG Version: 6.00 Build 0)  -->
<!DOCTYPE svg PUBLIC "-//W3C//DTD SVG 1.1//EN" "http://www.w3.org/Graphics/SVG/1.1/DTD/svg11.dtd">
<svg version="1.1" xmlns="http://www.w3.org/2000/svg" xmlns:xlink="http://www.w3.org/1999/xlink" x="0px" y="0px" width="2048px"
	 height="1536px" viewBox="0 0 2048 1536" style="enable-background:new 0 0 2048 1536;" xml:space="preserve">
<g id="a3a_x5F_kopf">
	<g>
		<path style="fill:none;stroke:#17192D;stroke-width:3;" d="M734.831,817.09c2.825,1.889,12.486,1.18,16.495,1.648
			c7.067,0.948,14.375,0.24,21.679,0.709c16.261,0.941,31.812-6.834,45.009-15.55c12.724-8.015,26.157-21.915,32.518-35.821"/>
		<path style="fill:none;stroke:#17192D;stroke-width:3;" d="M856.518,753.467c1.181-2.358,4.242-2.358,6.362-3.533
			c2.829-1.651,4.952-4.009,6.836-6.599c3.77-4.714,5.655-9.661,6.598-15.792c0.943-5.654-1.65-8.955-2.828-14.373
			c-1.18-4.482-2.355-14.849-9.189-14.613"/>
		<path style="fill:none;stroke:#17192D;stroke-width:3;" d="M849.471,765.596c3.824-0.329,9.026-2.662,12.681-3.723
			c2.934-0.892,5.906-2.253,8.46-4.138c6.301-3.873,8.732-9.319,10.811-15.979c3.481-11.261,5.436-21.489,0.589-32.383
			c-2.115-4.946-5.709-9.327-6.84-14.645"/>
		<path style="fill:none;stroke:#17192D;stroke-width:3;" d="M851.333,745.924c-1.177-2.121-0.295-6.526-1.885-8.722"/>
		<path style="fill:none;stroke:#17192D;stroke-width:3;" d="M564.195,806.368c23.513,8.64,43.187,16.316,68.14,16.316
			c18.715,0,36.944-1.44,55.659-3.356c12.476-0.961,23.513-5.281,36.469-5.281l-11.72-12.7"/>
		<path style="fill:none;stroke:#17192D;stroke-width:3;" d="M691.835,804.448c19.672-1.915,39.825-3.835,59.499-5.275l-5.54-15.802
			"/>
		<path style="fill:none;stroke:#17192D;stroke-width:3;" d="M728.301,781.898c24.952,0.956,51.821,0.956,75.815-7.197
			l-5.842-15.303"/>
		<path style="fill:none;stroke:#17192D;stroke-width:3;" d="M786.359,762.225c6.237-2.401,12.957-4.32,19.197-6.718
			c6.717-2.398,12.953-7.2,20.152-9.116l-5.101-14.595"/>
		<path style="fill:none;stroke:#17192D;stroke-width:3;" d="M812.753,731.99c9.115-0.477,20.632-8.634,30.228-6.235"/>
		<path style="fill:none;stroke:#17192D;stroke-width:3;" d="M848.107,671.646l6.633,9.303
			c-2.875-17.275-0.241-30.528-10.319-44.923c-7.2-10.079-15.838-18.713-22.553-28.791c-4.799-6.717-7.678-13.917-14.394-19.673
			c-5.277-4.317-11.515-7.676-16.314-13.435l14.396-3.839c-0.437-0.344-23.499-27.682-37.909-37.909
			c-9.597-6.716-20.153-11.995-29.75-18.713c-13.915-9.119-28.791-11.994-43.185-19.193l14.394,0.479
			c-4.319-5.278-22.553-7.677-29.748-8.636c-11.999-1.921-22.553-1.438-34.552-0.479c-35.025,2.878-69.572-3.362-103.163,10.076
			c-14.877,6.237-31.668,15.354-43.663,26.392c-13.436,12.475-31.192,23.032-35.989,41.746l-12.478-5.279
			c-2.396,7.677-3.36,16.316-5.757,23.991l5.278,3.359c-3.358,15.836,2.306,70.492-3.84,54.222
			c-0.852-2.253-11.996,3.839-11.996,3.839c-1.919-0.481-3.36,3.358-2.876,6.716l10.075,4.801
			c-1.917,16.314,2.879,37.425,8.638,53.262c8.156,20.634,20.153,38.868,36.468,53.742c15.832,14.876,35.028,33.591,55.18,41.267
			c13.436,5.756,25.91,12.956,38.866,19.672c1.438,0.484,2.401,0.962,3.84,1.441c0,0-1.034-13.389-3.212-12.66"/>
		<path style="fill:none;stroke:#17192D;stroke-width:3;" d="M845.306,667.875c2.878,10.077,5.353,23.812,6.312,34.848
			l-12.849-5.069"/>
		<path style="fill:none;stroke:#17192D;stroke-width:3;" d="M830.028,672.973"/>
		<path style="fill:none;stroke:#17192D;stroke-width:3;" d="M824.562,680.184c11.276,10.566,20.548,29.585,18.149,45.245"/>
		<path style="fill:none;stroke:#17192D;stroke-width:3;" d="M827.147,689.765"/>
		<path style="fill:none;stroke:#17192D;stroke-width:3;" d="M829.065,701.765"/>
		<path style="fill:none;stroke:#17192D;stroke-width:3;" d="M849.219,673.933c-5.277-12.955-15.356-23.513-25.431-32.629"/>
		<path style="fill:none;stroke:#17192D;stroke-width:3;" d="M838.394,738.897c-4.796,15.081-15.077,38.386-31.531,42.499"/>
		<path style="fill:none;stroke:#17192D;stroke-width:3;" d="M858.272,651.846c0,12.339,5.484,30.844-3.427,41.812"/>
		<path style="fill:none;stroke:#17192D;stroke-width:3;" d="M836.34,748.493c1.368,10.97-1.374,20.566-13.711,23.306"/>
		<path style="fill:none;stroke:#17192D;stroke-width:3;" d="M861.014,660.237c5.482,10.219,6.168,16.186-1.369,26.403"/>
		<path style="fill:none;stroke:#17192D;stroke-width:3;" d="M870.867,695.028c11.018-12.839,5.737-30.492,0.227-45.737
			c-10.099-28.087-30.526-36.112-55.319-52.964"/>
	</g>
	<path style="fill:none;stroke:#17192D;stroke-width:3;" d="M2048,0"/>
	<path style="fill:none;stroke:#17192D;stroke-width:3;" d="M2048,1536"/>
	<path style="fill:none;stroke:#17192D;stroke-width:3;" d="M0,1536"/>
	<path style="fill:none;stroke:#17192D;stroke-width:3;" d="M0,0"/>
</g>
<g id="Layer_1">
</g>
</svg>
