<?xml version="1.0" encoding="iso-8859-1"?>
<!-- Generator: Adobe Illustrator 15.1.0, SVG Export Plug-In . SVG Version: 6.00 Build 0)  -->
<!DOCTYPE svg PUBLIC "-//W3C//DTD SVG 1.1//EN" "http://www.w3.org/Graphics/SVG/1.1/DTD/svg11.dtd">
<svg version="1.1" xmlns="http://www.w3.org/2000/svg" xmlns:xlink="http://www.w3.org/1999/xlink" x="0px" y="0px" width="2048px"
	 height="1536px" viewBox="0 0 2048 1536" style="enable-background:new 0 0 2048 1536;" xml:space="preserve">
<g id="a3a_x5F_kuh">
	<g>
		<path style="fill:none;stroke:#17192D;stroke-width:3;" d="M1536.523,830.644c0.651-0.219,0.869-0.433,1.519,0
			c1.522,2.825,9.341,3.69,12.601,4.343c4.126,0.868,8.688,0.653,13.031,1.523c8.689,1.736,17.162,4.125,26.067,2.389
			c5.212-0.871,9.34-3.694,14.334-5.43c2.391-0.869,4.346-1.742,6.514-2.607c1.522-0.65,6.953-1.736,3.693,1.52
			c0.435-0.215,1.086,0,1.523-0.215c-1.089,3.91,2.17,8.252,1.955,12.382c-0.219,5.86-4.344,5.645-8.906,6.948
			c-1.087,0.214-2.825,0.214-3.475,0.865c-1.305,0.873,0.215,1.741-0.868,2.611c-1.521,1.3-4.129,1.3-6.084,1.083
			c-4.562-0.436-8.687-2.604-13.249-3.04c-6.298-0.654-11.514,0-17.377,1.522c-4.344,1.082-10.863-0.217-15.203-1.304
			c0.434-0.873,0-1.089,0.868-1.955c-6.084,4.776-14.121,5.215-20.854,7.819c-6.516,2.176-13.9,5.213-20.633,5.647"/>
		<path style="fill:none;stroke:#17192D;stroke-width:3;" d="M1547.383,818.047c-0.219-0.433-0.219-0.654-0.219-0.871
			c8.257,1.087,14.774,6.734,23.897,5.864c4.343-0.435,8.903-1.736,13.034-3.257c3.473-1.304,9.118-5.215,12.811-3.91
			c-0.433,0.434-0.651,1.088-1.518,1.52c0.651-0.217,1.301,0,1.953-0.217c0.652,3.912,1.305,8.689,0.434,12.598
			c-1.086,4.999-5.863,5.431-10.427,6.081c4.129,3.695-2.389,4.133-4.778,3.479c-3.475-0.869-6.298-3.258-9.557-4.13
			c-2.822-0.652-6.516-0.432-9.556-0.218c-1.738,0-3.26,0.218-4.996,0.653c-0.435,0.215-3.478,0.651-1.739,0.651"/>
		<path style="fill:none;stroke:#17192D;stroke-width:3;" d="M1525.447,911.009c5.646,4.997,5.427,11.949,11.293,16.292
			c4.127,3.04,2.387,3.257-1.303,4.998"/>
		<path style="fill:none;stroke:#17192D;stroke-width:3;" d="M1530.659,917.092c3.475-2.825,8.037,4.562,1.953,4.562"/>
		<path style="fill:none;stroke:#17192D;stroke-width:3;" d="M1538.547,936.921c-0.592,0.531-1.062,1.09-1.372,1.674"/>
		<path style="fill:none;stroke:#17192D;stroke-width:3;" d="M1535.22,924.694c8.254-2.822,16.292-5.648,24.548-8.471
			c4.559-1.736,9.117-3.478,13.03-6.082c1.955-1.521,3.041-3.691,5.212-4.997c1.738-0.871,4.344-1.304,2.826,1.521
			c2.389-0.216,2.819,10.645,2.17,13.034c-1.736,5.427-8.253,5.645-12.814,8.036c3.474,3.257-4.562,4.127-6.301,3.909
			c-3.474-0.218-6.731-0.652-9.99-0.434c-3.727,0.373-11.77,2.503-15.354,5.709"/>
		<path style="fill:none;stroke:#17192D;stroke-width:3;" d="M1547.502,982.12c3.545,0.797,7.463,0.83,10.96,1.006
			c5.864,0.431,11.292-0.652,16.073-3.913c2.391-1.736,14.551-11.077,15.206-2.823c-0.655,0.222-1.305,0.437-1.956,0.222"/>
		<path style="fill:none;stroke:#17192D;stroke-width:3;" d="M1535.438,858.011c-1.085-0.866-1.304,2.172-1.522,3.264
			c-0.65,4.122-1.303,8.684-1.083,12.812c0.215,9.559-1.739,18.46-4.345,27.581c-1.522,5.516-4.337,10.623-7.312,15.621"/>
		<path style="fill:none;stroke:#17192D;stroke-width:3;" d="M1544.453,994.975c0.613,0.085,1.23,0.187,1.842,0.312
			c2.391,0.438,4.129,1.74,6.519,1.522c2.389-0.216,4.344-1.522,6.731-1.084c4.129,0.65,7.82,3.471,11.948,4.343
			c3.041,0.652,7.819-0.652,5.43-4.561c5.864-2.177,9.124,0.218,11.728-6.953c0.872-2.821,4.13-11.942-1.954-10.858"/>
		<path style="fill:none;stroke:#17192D;stroke-width:3;" d="M1425.094,965.313c0.216,4.345,9.774,12.599,14.336,14.554
			c2.17,1.022,4.541,1.931,7.022,2.706"/>
		<path style="fill:none;stroke:#17192D;stroke-width:3;" d="M1449.855,751.14c3.474-0.211,5.646,2.174,8.035,4.348"/>
		<path style="fill:none;stroke:#17192D;stroke-width:3;" d="M1457.456,783.511c-1.735,1.083-3.908,4.125-3.69,6.298
			C1457.891,791.325,1457.891,786.116,1457.456,783.511"/>
		<path style="fill:none;stroke:#17192D;stroke-width:3;" d="M1453.548,751.793c6.515-0.216,13.032,5.214,19.333,1.737
			c3.258-1.737,4.345-5.21,8.254-5.862c3.257-0.436,5.646,2.388,8.472,1.737"/>
		<path style="fill:none;stroke:#17192D;stroke-width:3;" d="M1483.738,767.651c0.435-1.522,1.307-4.996,4.129-4.777
			c0.435,2.389-1.521,4.341-3.91,4.559c0-0.429-0.219-0.867-0.219-1.304"/>
		<path style="fill:none;stroke:#17192D;stroke-width:3;" d="M1481.566,769.171c4.128,2.825,8.471-1.304,8.905-5.646"/>
		<path style="fill:none;stroke:#17192D;stroke-width:3;" d="M1483.738,748.102c7.385-1.523,13.249,1.739,14.121,9.559
			c0.435,4.561-1.089,8.467-2.389,12.816c-1.521,4.996-5.864,5.214-11.079,4.996c-0.868,0-1.738,0.218-2.606,0"/>
		<path style="fill:none;stroke:#17192D;stroke-width:3;" d="M1464.191,777.208c1.302,0,3.038-0.865,4.125-1.734"/>
		<path style="fill:none;stroke:#17192D;stroke-width:3;" d="M1451.812,793.064c5.214,0.651,9.557-0.434,13.468-3.476"/>
		<path style="fill:none;stroke:#17192D;stroke-width:3;" d="M1496.771,768.304c2.825,3.261-1.521,7.6-1.3,10.86"/>
		<path style="fill:none;stroke:#17192D;stroke-width:3;" d="M1450.29,750.708c-0.653-3.04,1.303-5.428,0-8.472
			c-1.521-3.908-3.261-9.773-7.169-11.73c-7.602-4.34-13.03,13.471-12.162,19.114c0.434,3.259,3.256,6.084,2.822,9.343"/>
		<path style="fill:none;stroke:#17192D;stroke-width:3;" d="M1435.302,742.02c1.086,2.821,8.472,7.6,6.3,10.64"/>
		<path style="fill:none;stroke:#17192D;stroke-width:3;" d="M1445.294,803.709c-1.084,3.908-5.212,6.298-6.95,9.775
			c-1.956,4.344,0,8.903,0.651,13.465"/>
		<path style="fill:none;stroke:#17192D;stroke-width:3;" d="M1444.426,735.721c0.868,1.954,1.736,3.913,1.736,6.299
			c0,2.389-3.69,9.34-4.561,8.688"/>
		<path style="fill:none;stroke:#17192D;stroke-width:3;" d="M1431.61,760.484c0.65-0.218,0.65-0.652,1.519-0.434l0,0
			c-1.084,0.216-1.519,0.434-1.953,0.652c-3.693-1.305-6.301,2.822-8.474,4.126c-0.649,2.175-3.475,10.209-1.083,11.076
			c-0.653,1.741-0.435,5.647,0.868,6.518c-1.521,3.04,0.435,9.991,1.522,12.599"/>
		<path style="fill:none;stroke:#17192D;stroke-width:3;" d="M1434,803.709c1.083,6.516-2.607,12.164,0,18.679
			c1.083,2.821,3.91,10.859,6.731,12.382c4.347,2.175,8.037-5.647,9.559-8.47c3.039-5.651,3.258-10.21,0.867-15.857
			c-1.735-3.478-3.908-9.773-1.302-13.25"/>
		<path style="fill:none;stroke:#17192D;stroke-width:3;" d="M1446.38,793.064c-0.218,0.435-0.218,0.872,0,1.086"/>
		<path style="fill:none;stroke:#17192D;stroke-width:3;" d="M1425.31,794.366c-0.216,0,3.694-1.081,5.215,0.22
			c3.909,2.606,1.736,7.167-0.652,10.208c-4.125,5.648-14.118,8.69-20.2,4.126C1416.841,806.313,1425.962,804.577,1425.31,794.366"
			/>
		<path style="fill:none;stroke:#17192D;stroke-width:3;" d="M1432.045,760.05c-1.954-1.52-3.26-6.737-5.215-9.342
			c-3.908-5.646-12.814-9.122-19.547-9.554c4.346,3.255,8.252,7.166,11.944,11.292c1.523,1.959,2.825,3.69,3.694,5.867
			c0.434,1.084,1.953,4.56,0.867,3.909"/>
		<path style="fill:none;stroke:#17192D;stroke-width:3;" d="M1472.445,795.021c-3.041,1.955-15.641,3.909-18.465,1.519"/>
		<path style="fill:none;stroke:#17192D;stroke-width:3;" d="M1496.771,776.557c-0.433-1.736,2.176,1.306,3.044,1.739
			c4.125,2.171,7.816,4.126,11.729,6.729c8.036,5.214,17.158,6.955,24.543,13.251c11.078,9.342,13.902,22.594,11.512,36.059"/>
		<path style="fill:none;stroke:#17192D;stroke-width:3;" d="M1417.646,960.903c1.481,4.031,4.513,7.424,10.055,9.622"/>
		<path style="fill:none;stroke:#17192D;stroke-width:3;" d="M1435.083,826.949c1.739,0.654,0,4.994-0.431,6.52
			c-1.307,4.992-1.523,9.552-1.739,14.552c-0.217,5.431,0,9.99-1.086,15.422c-1.087,4.996-3.258,9.988-4.126,14.987
			c-2.826,19.982-4.563,39.964-8.906,59.514c-1.766,7.737-3.616,16.24-1.148,22.96"/>
		<path style="fill:none;stroke:#17192D;stroke-width:3;" d="M1487.304,862.023c4.229,1.06,8.197,2.641,12.96,1.848"/>
		<path style="fill:none;stroke:#17192D;stroke-width:3;" d="M1511.105,798.543c-0.528-1.324-25.654,10.313-29.359,12.167"/>
		<path style="fill:none;stroke:#17192D;stroke-width:3;" d="M1458.209,811.498c3.437,0.532,6.082,0.798,9.521,0.268"/>
		<path style="fill:none;stroke:#17192D;stroke-width:3;" d="M1461.646,829.753c5.025,3.173,13.224-0.531,18.517-1.058"/>
		<path style="fill:none;stroke:#17192D;stroke-width:3;" d="M1444.188,806.212c3.705,5.818,4.5,14.812,0.795,21.423"/>
		<path style="fill:none;stroke:#17192D;stroke-width:3;" d="M1442.867,733.208c-2.381,2.646-9.258,5.291-7.937,8.995"/>
		<path style="fill:none;stroke:#17192D;stroke-width:3;" d="M1439.693,826.58c0.53,1.321,0.793,2.909,0.265,4.495
			c1.585-1.058,3.967-2.116,4.229-4.234"/>
		<path style="fill:none;stroke:#17192D;stroke-width:3;" d="M1450.008,781.612c-2.643,2.117-3.968,3.443-5.025,6.351"/>
		<path style="fill:none;stroke:#17192D;stroke-width:3;" d="M1476.194,779.496c-1.325,1.323-2.646,2.647-3.702,3.705"/>
		<path style="fill:none;stroke:#17192D;stroke-width:3;" d="M1608.744,831.813c0.478,0.573-0.381,1.621-0.857,1.999
			c0.477,0.194,1.048,0.479,1.432,0.86c-0.574,1.146-0.955,2.668-0.669,3.91c0.188,0.763,0.476,0.667,0.669,1.43
			c0.285,0.953-0.097,1.908-0.193,2.862c-0.19,1.43,0,2.855,0.193,4.288c0.095,0.765,0.095,1.43,0.379,2.101
			c0,0.19,0.761,1.811,0.382,1.048"/>
		<path style="fill:none;stroke:#17192D;stroke-width:3;" d="M1589.672,818.082c-0.19-0.189-0.097-0.287-0.284-0.382
			c1.713,0.476,1.523,1.433,1.332,2.858c-0.285,1.909,0.191,3.15,0.669,4.961c0.382,1.242,3.527,7.721,2.099,8.293"/>
		<path style="fill:none;stroke:#17192D;stroke-width:3;" d="M1573.747,909.336c0.569,0.385,0.477,0.861,1.047,1.145
			c-0.478,4.481,5.055,9.822,2.769,14.021"/>
		<path style="fill:none;stroke:#17192D;stroke-width:3;" d="M1581.566,974.94c0.477,0.669,0,2.289,0.572,3.245
			c0.192,0.38,0.763,0.38,0.952,0.668c0.19,0.478-0.189,0.954-0.189,1.332c0,0.956,0,1.912,0.096,2.861
			c0.479,3.146,0.859,6.868,0.859,10.205c-0.189,0-0.189-0.094-0.381-0.188"/>
		<path style="fill:none;stroke:#17192D;stroke-width:3;" d="M1484.204,774.891c1.67-3.345-5.354-2.174-6.858-2.848
			c-4.351-1.839-4.686-5.352-9.7-3.175c-3.849,1.672-7.695,2.007-10.872,4.848c-1.673,1.342-2.176,3.014-4.015,4.019
			c-1.675,0.835-4.015,0.499-5.687,1.173c-8.195,3.678-6.02,14.882-14.049,18.227"/>
		<path style="fill:none;stroke:#17192D;stroke-width:3;" d="M1433.357,760.669c2.508-0.502,4.35-2.342,6.691-2.505
			c2.005,0,3.343,0.665,5.519,0.163c1.672-0.332,3.177-1.004,4.684-1.335c5.854-1.174,13.88,2.004,18.566-2.508"/>
	</g>
	<path style="fill:none;stroke:#17192D;stroke-width:3;" d="M2048,0"/>
	<path style="fill:none;stroke:#17192D;stroke-width:3;" d="M2048,1536"/>
	<path style="fill:none;stroke:#17192D;stroke-width:3;" d="M0,1536"/>
	<path style="fill:none;stroke:#17192D;stroke-width:3;" d="M0,0"/>
</g>
<g id="Layer_1">
</g>
</svg>
