<?xml version="1.0" encoding="iso-8859-1"?>
<!-- Generator: Adobe Illustrator 15.1.0, SVG Export Plug-In . SVG Version: 6.00 Build 0)  -->
<!DOCTYPE svg PUBLIC "-//W3C//DTD SVG 1.1//EN" "http://www.w3.org/Graphics/SVG/1.1/DTD/svg11.dtd">
<svg version="1.1" xmlns="http://www.w3.org/2000/svg" xmlns:xlink="http://www.w3.org/1999/xlink" x="0px" y="0px" width="2048px"
	 height="1536px" viewBox="0 0 2048 1536" style="enable-background:new 0 0 2048 1536;" xml:space="preserve">
<g id="a3a_x5F_hand_x5F_v">
	<path style="fill:none;stroke:#17192D;stroke-width:3;" d="M1434.526,977.188c2.474,3.202,8.063,3.656,11.815,3.656"/>
	<g>
		<path style="fill:none;stroke:#17192D;stroke-width:3;" d="M1392.618,997.438c0.97-2.311,3.846-4.625,5.132-7.311
			c1.155-2.411,1.283-4.847,2.17-7.328c1.665-4.659,3.795-9.4,7.604-12.628c3.514-2.98,6.735-6.206,9.693-9.648"/>
		<path style="fill:none;stroke:#17192D;stroke-width:3;" d="M1447.432,979.862c2.386,0.719,10-3.987,12.141-5.552
			c3.842-2.814,6.914-4.717,11.471-6.278c8.574-2.935,16.389-8.23,21.835-15.613c4.163-5.643,5.016-16.075,5.687-23.381
			c0.644-7.03-9.511-23.408,3.462-25.387c6.19-0.944,7.429,4.842,9.348,9.356c2.198,5.178,4.901,10.25,5.745,15.867
			c0.751,5.01-1.448,9.219-2.277,14.166c-0.905,5.406-0.941,10.57-1.546,15.791c-0.78,6.785-5.756,13.062-9.771,18.139"/>
		<path style="fill:none;stroke:#17192D;stroke-width:3;" d="M1513.31,913.855c4.717,2.644,8.155,0.929,10.769,6.586
			c1.64,3.55,3.567,6.526,5.262,9.922c2.527,5.072,1.792,8.237,1.229,13.625c-0.543,5.167-0.305,10.529-1.122,15.706
			c-0.416,2.645-0.552,5.496-1.387,8.194c-0.962,3.113-3.087,5.089-4.938,7.59c-1.565,2.117-2.688,4.021-3.778,6.479
			c-1.023,2.323-1.45,5.812-3.165,7.885"/>
		<path style="fill:none;stroke:#17192D;stroke-width:3;" d="M1481.704,1056.562c6.713-2.341,12.489-6.619,18.821-9.655
			c5.324-2.553,10.901-5.871,15.002-10.4c7.103-7.84,22.906-21.513,25.048-31.841c1.119-5.394,3.59-9.627,4.911-14.852
			c1.23-4.875,2.268-10.079,2.793-14.988c0.521-4.829-0.605-9.173-0.18-13.778c0.483-5.23,1.799-9.516-1.241-14.297
			c-1.128-1.764-2.52-3.301-3.894-4.854c-1.25-1.415-2.379-4.109-3.906-4.999"/>
		<path style="fill:none;stroke:#17192D;stroke-width:3;" d="M1528.524,925.858c4.982,0.147,6.938,4.698,9.11,8.665
			c2.861,5.223,1.748,9.752,0.862,15.379c-1.551,9.873,0.655,18.605-3.364,27.992c-2.402,5.601-5.601,10.566-7.966,16.359"/>
		<path style="fill:none;stroke:#17192D;stroke-width:3;" d="M1522.9,1008.94c-0.11,2.105-2.474,4.94-4.492,5.477"/>
		<path style="fill:none;stroke:#17192D;stroke-width:3;" d="M1511.248,998.894c-0.481,2.304-2.209,4.887-4.724,5.124"/>
		<path style="fill:none;stroke:#17192D;stroke-width:3;" d="M1496.91,987.069c-2.191,3.117-6.495,6.4-10.707,6.021"/>
		<path style="fill:none;stroke:#17192D;stroke-width:3;" d="M1410.338,1067.201c2.926,1.634,9.312-0.637,12.8-0.816
			c4.76-0.248,7.716,0.561,11.913-1.977c3.387-2.052,8.184-2.74,12.046-3.485c4.584-0.885,9.524-0.97,14.178-1.621
			c5.48-0.766,11.508-0.311,16.323-2.664c-0.275-0.09-0.536,0.013-0.798-0.06"/>
	</g>
	<path style="fill:none;stroke:#17192D;stroke-width:3;" d="M2048,0"/>
	<path style="fill:none;stroke:#17192D;stroke-width:3;" d="M2048,1536"/>
	<path style="fill:none;stroke:#17192D;stroke-width:3;" d="M0,1536"/>
	<path style="fill:none;stroke:#17192D;stroke-width:3;" d="M0,0"/>
</g>
<g id="Layer_1">
</g>
</svg>
