<svg xmlns="http://www.w3.org/2000/svg" width="2048" height="1536" viewBox="0 0 2048 1536"><g fill="none" stroke="#17192D" stroke-width="3"><path d="M960.072 379.502c28.33-4.358 53.755-14.526 80.63-23.244 32.687-10.895 66.1-18.16 100.24-21.79 26.15-2.18 53.026-1.454 78.447-5.812 15.255-2.18 31.96-4.36 46.49-8.717 10.893-2.904 21.79-10.17 34.137-7.265M970.97 501.532c10.168 2.18 21.064.73 30.506-2.18 10.897-2.902 18.887-11.62 28.33-14.525M1298.566 396.21c-13.803 3.63-27.602 7.99-40.677 11.62-21.066 5.813-38.5 18.16-58.112 23.97-34.864 11.624-69.005 23.97-104.597 34.14-20.338 5.814-41.403 12.35-62.468 15.255M1018.91 465.215c5.81-.728 10.17-5.086 15.254-6.536M2048 0M2048 1536M0 1536M0 0"/></g></svg>