<?xml version="1.0" encoding="iso-8859-1"?>
<!-- Generator: Adobe Illustrator 15.1.0, SVG Export Plug-In . SVG Version: 6.00 Build 0)  -->
<!DOCTYPE svg PUBLIC "-//W3C//DTD SVG 1.1//EN" "http://www.w3.org/Graphics/SVG/1.1/DTD/svg11.dtd">
<svg version="1.1" xmlns="http://www.w3.org/2000/svg" xmlns:xlink="http://www.w3.org/1999/xlink" x="0px" y="0px" width="2048px"
	 height="1536px" viewBox="0 0 2048 1536" style="enable-background:new 0 0 2048 1536;" xml:space="preserve">
<g id="a3a_x5F_arm_x5F_h">
	<g>
		<path style="fill:none;stroke:#17192D;stroke-width:3;" d="M960.072,379.502c28.329-4.358,53.755-14.526,80.63-23.244
			c32.687-10.895,66.099-18.159,100.239-21.79c26.15-2.18,53.027-1.454,78.448-5.812c15.256-2.18,31.961-4.359,46.49-8.717
			c10.894-2.903,21.79-10.169,34.138-7.264"/>
		<path style="fill:none;stroke:#17192D;stroke-width:3;" d="M970.969,501.532c10.169,2.18,21.065,0.729,30.507-2.179
			c10.897-2.903,18.887-11.621,28.33-14.526"/>
		<path style="fill:none;stroke:#17192D;stroke-width:3;" d="M1298.566,396.21c-13.803,3.63-27.602,7.99-40.677,11.621
			c-21.065,5.812-38.5,18.159-58.111,23.968c-34.864,11.625-69.005,23.972-104.597,34.142
			c-20.339,5.813-41.404,12.349-62.469,15.254"/>
		<path style="fill:none;stroke:#17192D;stroke-width:3;" d="M1018.909,465.215c5.812-0.728,10.172-5.086,15.255-6.536"/>
	</g>
	<path style="fill:none;stroke:#17192D;stroke-width:3;" d="M2048,0"/>
	<path style="fill:none;stroke:#17192D;stroke-width:3;" d="M2048,1536"/>
	<path style="fill:none;stroke:#17192D;stroke-width:3;" d="M0,1536"/>
	<path style="fill:none;stroke:#17192D;stroke-width:3;" d="M0,0"/>
</g>
<g id="Layer_1">
</g>
</svg>
