<?xml version="1.0" encoding="iso-8859-1"?>
<!-- Generator: Adobe Illustrator 15.1.0, SVG Export Plug-In . SVG Version: 6.00 Build 0)  -->
<!DOCTYPE svg PUBLIC "-//W3C//DTD SVG 1.1//EN" "http://www.w3.org/Graphics/SVG/1.1/DTD/svg11.dtd">
<svg version="1.1" xmlns="http://www.w3.org/2000/svg" xmlns:xlink="http://www.w3.org/1999/xlink" x="0px" y="0px" width="2048px"
	 height="1536px" viewBox="0 0 2048 1536" style="enable-background:new 0 0 2048 1536;" xml:space="preserve">
<g id="a3b_x5F_arm_x5F_v">
	<g>
		<path style="fill:none;stroke:#FF0050;stroke-width:3;" d="M1093.896,477.221c26.524-4.823,40.475-14.473,69.406-15.677
			c26.521-1.206,54.246,0,80.768,1.204c56.659,1.21,110.906,13.26,166.36,15.674"/>
		<path style="fill:none;stroke:#FF0050;stroke-width:3;" d="M1105.436,573.657c19.289,0,43.398-1.204,54.249-18.081"/>
		<path style="fill:none;stroke:#FF0050;stroke-width:3;" d="M1129.549,545.929c9.645,19.289,124.168,7.231,147.071,7.231
			c27.726,0,55.451-1.204,83.184-3.611c10.848-1.21,24.106-3.621,36.161,0"/>
		<path style="fill:none;stroke:#FF0050;stroke-width:3;" d="M1081.113,578.495c6.319-0.616,17.319-0.021,22.076-4.798"/>
		<path style="fill:none;stroke:#FF0050;stroke-width:3;" d="M1088.026,479.578c-29.056,5.084-59.562,2.18-86.438,15.253"/>
	</g>
	<path style="fill:none;stroke:#17192D;stroke-width:3;" d="M2048,0"/>
	<path style="fill:none;stroke:#17192D;stroke-width:3;" d="M2048,1536"/>
	<path style="fill:none;stroke:#17192D;stroke-width:3;" d="M0,1536"/>
	<path style="fill:none;stroke:#17192D;stroke-width:3;" d="M0,0"/>
</g>
<g id="Layer_1">
</g>
</svg>
