<svg xmlns="http://www.w3.org/2000/svg" width="2048" height="1536" viewBox="0 0 2048 1536"><g fill="none" stroke-width="3"><path d="M917.048 989.742c.255-.363 1.593-.155.495-.603-7.423 4.613-3.535 9.25-8.072 15.825" stroke="#FF0050"/><g stroke="#FF0050"><path d="M891.575 879.348c-.766.73-1.487 1.38-1.955 2.287 9.934-6.423 20.39-10.438 28.775-19.03 4.312-4.42 9.084-8.326 13.88-12.185 6.477-5.207 13.854-11.22 18.802-18.094M911.253 838.085c.406-4.34-5.547-7.83-7.57-11.377-2.188-3.826-3.674-8.602-5.497-12.588-1.985-4.35-3.475-9.168-5.53-13.57-2.504-5.36-6.577-4.81-9.715-9.008M905.972 1031.938c4.766.9 6.51 7.615 9.204 11.034 2.536 3.23 5.964 5.58 8.563 8.72 2.593 3.14 4.193 6.98 7.055 9.92 3.907 4.013 6.578 6.172 9.354 11.102 3.12 5.537 2.772 9.986 2.772 16.326M898.818 1005.98c3.79 2.53 12.24 1.15 16.916 1.562 6.285.547 8.322 4.905 14.612 5.212 5.9.29 14.665-1.9 20.272-.037 5.462 1.817 10.51 9.336 13.296 13.944 4.012 6.632 7.074 13.698 10.77 20.295 11.54 20.57 28.828 45.194 21.603 70.418-2.728 9.533-3.4 20.396-7.89 29.247-4.563 8.998-16.648 14.888-25.258 19.262-9.9 5.03-23.065 9.32-34.074 4.15-1.13-.53-3.335-2.985-4.51-3.87-1.533-1.155-3.93-2.516-5.525-3.373-3.9-2.094-9.598-2.014-9.7-8.014M943.88 1146.136c-6.345-.702-13.644 4.242-20.043 5.183-3.717.547-7.486.366-11.23.576-5.278.296-9.613-.138-14.767-.96-4.908-.782-10.226-1.485-14.898-3.466-3.334-1.413-6.033-3.866-9.09-5.662-7.547-4.435-17.768-4.68-24.497-10.065M864.706 1122.146c2.525 0 5.104-.062 7.6.07-14.628 8.646-42.124 4.578-56.584-3.43-5.743-3.18-12.32-5.934-17.322-10.197-4.423-3.758-9.044-7.756-13.827-10.916M843.113 1065.045c1.52-1.96-7.037 2.458-8.58 3.436-6.416 4.063-12.516 8.797-19.73 11.44M807.607 1086.64c-3.785 3.543-15.12 2.388-20.153 2.878-4.13.406-8.914 2.742-12.934 2.405-7.683-.644-15.784-10.14-22.105-13.93-9.583-5.755-25.29-13.008-28.3-24.942M979.39 835.204c-.954 7.183 7.302 11.493 12.018 15.46 2.35 1.978 5.837 4.15 7.685 6.59 2.063 2.73 2.43 6.185 4.29 9.175 2.585 4.16 8.702 12.584 8.633 17.717M1002.467 902.616c.168-.46.294-.926.38-1.41-.325 8.19-6.18 18.165-9.578 25.582-2.536 5.52-6.64 9.803-10.388 14.59-6.05 7.725-12.21 12.002-19.858 17.63-7.3 5.372-14.464 11.212-21.353 17.027-9 7.603-17.624 16.65-29.27 19.984M977.468 944.605c12.674-3.866 24.505-2.125 37.426-3.357 10.352-.99 10.168-12.242 11.97-20.217 1.106-4.943 3.664-9.974 2.813-15.166-.462-2.806-2.257-5.274-2.688-8.165-1.164-7.755-2.154-15.503-3.937-23.15-2.672-11.44-8.415-23.252-17.85-30.71-5.417-4.28-8.1-8.597-12.38-13.81-2.554-3.11-12.206-6.8-9.6-11.62M1239.94 1012.743c-3.217 6.35-13.28 11.818-19.674 14.396M1011.056 943.648c30.57 21.544 66.346 32.206 97.91 51.698 11.01 6.802 23.713 11.89 35.573 16.907 9.974 4.22 17 14.484 25.912 20.85 9.7 6.93 20.905 11.623 33.02 10.83M1216.427 880.31c4.402 6.01 8.33 9.797 11.036 17.13 2.945 7.994 9.54 18.88 8.64 27.494M1226.476 865.613c3.29-1.396 29.215-3.61 33.217-2.57 7.475 1.94 25.366 8.054 27.534 14.52 4.412 13.13-3.33 29.904 4.968 41.02 7.366 9.868-.945 29.348.364 42.297 1.74 17.24-6.362 30.786-15.643 43.72-6.978 9.728-13.997 21.857-24.672 27.727-11.067 6.083-30.38 7.27-42.936 6.655M1166.4 857.032c11.044-4.072 30.248-10.694 41.348-3.65 9.263 5.873 10.18 21.772 6.714 31.113M1205.88 864.756c-9.248-1.02-13.516 3.9-18.027 11.155M1093 741.665c1.22-13.413 1.55-24.992 8.473-36.284M1093.232 739.1c-1.586 8.128 1.104 16.783 4.734 23.7M1074.562 730.017c-1.032 6.01-4.152 12.296-1.717 18.026M1277.594 866.328c5.81-36.32-7.267-75.543-17.432-108.953-10.173-39.224-15.983-78.448-26.15-116.22 0 1.452 0 4.358-1.454 5.81M1155.562 805.314c4.36-23.244-7.264-52.298-5.81-76.994 1.452-14.528 5.81-29.056 7.262-42.13 1.453-7.264-1.452-33.414 2.908-24.697M1157.014 809.672c14.527 21.79 33.415 29.054 50.848 45.035M1222.39 869.233c11.622 2.906 20.338 11.623 24.696 20.34M1100.48 763.39c18.41 22.1 37.21 39.858 60.75 53.67M1130.863 822.746c11.624 0 23.244-2.904 30.51 4.358"/></g><path d="M2048 0M2048 1536M0 1536M0 0" stroke="#17192D"/></g></svg>