<svg xmlns="http://www.w3.org/2000/svg" width="2048" height="1536" viewBox="0 0 2048 1536"><g fill="none" stroke-width="3"><g stroke="#FF0050"><path d="M1341.948 1292.098c-1.128-1.4-3.267-2.022-4.705-3.24-1.45-1.222-3.097-2.665-4.2-4.3-2.38-3.52-4.004-8.395-5.674-12.317-4.32-10.176-10.182-19.214-15.438-28.863-1.977-3.637-5.39-9.945-9.038-12.027M1346.61 1297.753c2.617 1.33 4.054 6.127 5.25 8.594 2.034 4.184 4.09 7.58 7.006 11.273 4.615 5.858 8.7 12.02 12.915 18.08 4.187 6.033 8.395 11.493 14.016 16.26 1.036.88 2.928 3.106 4.25 3.35 1.27.24 2.46-.908 3.405-2.205 2.717-3.712 3.756-7.013 1.44-11.224-.828-1.5-1.868-2.497-3.073-3.76-1.614-1.7-1.736-2.808-2.466-5.035-1.163-3.54-3.16-6.714-5.572-9.696-2.406-2.974-5.644-5.8-7.776-8.867-1.31-1.882-.34-3.686-.644-5.96-.276-2.05-.857-4.344-1.573-6.275-.912-2.495-2.24-5.367-3.734-7.476M1349.99 1274.91c.94 2.647 3.252 4.356 5.873 5.297M1366.373 1252.14c1.253 3.26 5.272 3.717 8.05 4.794M1381.486 1225.468c.07 2.42 5.29 4.544 7.338 4.72M1359.355 1170.608c5.002.47 10.136-1.48 13.264-5.104M1296.644 1161.48c3.968-7.265 15.254-6.958 21.49-10.035 7.54-3.733 15.395-7.222 23.588-8.77 4.238-.802 7.924-.674 12.28-.48 3.808.172 6.87-1.475 10.485-2.534 3.57-1.043 6.522-3.684 10.183-4.636 4.513-1.175 8.944-2.57 13.504-3.23 3.865-.563 9.887-.45 13.243-2.548 1.907-1.192 3.318-3.09 5.36-4.238 2.008-1.12 3.86-1.9 5.757-3.175 1.524-1.023 3.338-3.05 5.238-2.8 1.542.207 3.707 2.455 4.563 3.585 2.342 3.12 1.847 7.06 0 10.333-2.22 3.962-5.18 6.977-8.324 10.31-3.237 3.427-7.108 5.098-11.178 7.374-3.464 1.94-6.547 3.946-10.133 5.765-3.496 1.77-7.03 2.704-10.834 3.907-2.75.87-6.72 1.636-9.065 3.326M1370.913 1175.742c3.553 2.84 6.93 5.96 10.556 8.756 3.233 2.49 6.328 4.738 9.384 7.593 2.664 2.486 5.037 6.32 7.94 8.333 3.272 2.28 6.98 3.386 10.125 5.88 3.32 2.643 4.195 6.663 7.13 9.444 1.445 1.366 3.734 1.608 5.612 2.487 1.894.886 3.762 1.824 5.653 2.688 3.86 1.77 6.453 4.84 9.87 7.336 3.217 2.354 7.668 2.957 11.182 4.8 3.76 1.968 6.447 5.305 10.004 7.11 3.486 1.772 6.498 3.503 9.317 6.323 2.132 2.136 5.934 5.475 5.495 8.636-.53 3.807-4.557 6.057-8.15 6.07-8.47.034-16.007-4.37-23.785-5.842-3.75-.71-7.598-2.286-10.957-4.08-1.803-.97-3.558-2.318-5.35-3.175-1.786-.844-3.663-1.01-5.503-1.89-3.147-1.5-6.187-3.5-9.178-5.374-2.645-1.656-6.514-4.446-8.327-6.78M1367.12 1286.02c3.632 1.866 6.967 4.953 9.956 7.762 3.032 2.856 5.92 5.137 8.513 8.508 2.248 2.92 4.246 5.875 6.803 8.444 2.876 2.9 6.434 4.7 9.62 7.032 3.256 2.378 6.026 5.128 9.106 7.676 1.895 1.553 3.856 2.846 5.414 4.774 1.35 1.683 2.655 2.058 4.204 3.48 1.694 1.555 1.248 3.264 3.738 2.263 1.3-.522 2.94-2.264 3.81-3.374 2.226-2.848 4.526-6.51 3.355-10.31-1.187-3.886-5.27-7.76-8.447-9.99-1.67-1.165-3.224-1.745-4.607-3.38-1.69-1.995-3.048-4.127-4.87-6.042-3.005-3.172-6.013-6.13-9.3-8.944-1.52-1.292-3.303-2.396-4.677-3.57-1.68-1.43-1.732-3.693-2.878-5.718-1.256-2.223-2.874-4.51-4.44-6.553-1.453-1.926-5.23-4.28-5.705-6.48M1385.743 1259.687c2.508 3.547 7.786 5.79 11.555 7.55 3.8 1.765 6.467 5.256 9.39 8.002 2.983 2.794 6.665 4.923 10.227 6.852 3.578 1.942 6.382 4.65 9.393 7.478 5.734 5.39 13.568 7.445 20.515 10.768 1.58.762 3.11 1.926 4.57 1.105 1.695-.965 1.718-3.368 2.19-4.94 1.25-4.192 2.322-6.95-.06-10.936-2.19-3.68-5.217-6.207-8.772-8.3-3.294-1.947-5.904-4.25-9.26-6.334-3.617-2.24-6.948-4.725-10.718-6.576-1.725-.847-3.526-1.64-5.197-2.52-2.268-1.2-2.62-2.613-3.97-4.716-1.94-3.007-4.496-5.838-7.08-8.18-2.474-2.237-6.385-6.305-9.443-7.35"/></g><path d="M2048 0M2048 1536M0 1536M0 0" stroke="#17192D"/></g></svg>