<svg xmlns="http://www.w3.org/2000/svg" width="2048" height="1536" viewBox="0 0 2048 1536"><g fill="none" stroke-width="3"><g stroke="#FF0050"><path d="M1170.538 635.144c2.408-1.21 2.408-2.41 4.816-2.41v1.2c-13.258 20.497-40.983 34.963-60.27 51.84-22.908 20.495-43.4 43.396-61.483 68.713h3.617M912.372 836.325c46.062 0 113.882-35.823 136.915-78.05M1170.844 637.997c7.677 8.954 58.86 1.28 75.496 1.28 21.753 1.276 35.827 10.237 56.3 11.516 15.356 1.277 42.228 7.677 55.02 0M1311.056 620.627c-.137.226-.27.454-.4.685 6.108.173 12.702.857 18.55-.4 4.644-.998 9.32-2.36 14.136-1.937 8.243.73 16.02 9.188 17.9 16.964.57 2.363.9 5.275-.227 7.54-1.053 2.12-3.98 6.783-6.833 6.127M1312.21 602.916c4.186-.144 8.507.637 12.68 0 2.596-.393 5.128-1.02 7.788-1.254 4.462-.394 8.575.535 12.92.165 4.58-.396 9.252 2.037 11.104 6.7 1.463 3.683 1.836 12.45-4.205 11.954M1312.708 584.262c-.21.11-.43.193-.66.254 5.16-.11 10.513-.067 15.573-1.022 3.294-.618 7.4-1.77 10.84-1.128 2.684.5 5.65 2.397 7.278 4.242 1.62 1.833 6.808 12.938 1.137 11.558M1304.93 569.018c1.424 1.626 7.723.207 10.125-.008 3.21-.285 6.438-.548 9.61-.88 3.423-.36 6.662-2.012 10.125-1.937 4.086.083 6.795 3.597 8.603 6.843 1.136 2.035 2.865 8.632-1.94 8.236M1327.787 553.465c-.232.162-.45-.217-.462.232 2.84 1.396 5.286 2.358 7.298 4.9 1.644 2.084 1.197 4.73 2.592 6.648M1019.596 627.974c11.256-8.187 26.603-12.28 39.908-16.375M1012.432 770.207c0-7.164 3.07-13.304 5.117-20.466M954.11 691.416c5.113 0 10.228-2.046 14.324-4.093"/></g><path d="M2048 0M2048 1536M0 1536M0 0" stroke="#17192D"/></g></svg>