<?xml version="1.0" encoding="iso-8859-1"?>
<!-- Generator: Adobe Illustrator 15.1.0, SVG Export Plug-In . SVG Version: 6.00 Build 0)  -->
<!DOCTYPE svg PUBLIC "-//W3C//DTD SVG 1.1//EN" "http://www.w3.org/Graphics/SVG/1.1/DTD/svg11.dtd">
<svg version="1.1" xmlns="http://www.w3.org/2000/svg" xmlns:xlink="http://www.w3.org/1999/xlink" x="0px" y="0px" width="2048px"
	 height="1536px" viewBox="0 0 2048 1536" style="enable-background:new 0 0 2048 1536;" xml:space="preserve">
<g id="a3b_x5F_ferrari">
	<g>
		
			<ellipse transform="matrix(-0.381 0.9246 -0.9246 -0.381 2634.8828 -532.2427)" style="fill:none;stroke:#FF0050;stroke-width:3;" cx="1495.617" cy="615.944" rx="16.252" ry="21.009"/>
		
			<ellipse transform="matrix(-0.3066 0.9518 -0.9518 -0.3066 2541.3291 -618.6621)" style="fill:none;stroke:#FF0050;stroke-width:3;" cx="1496.008" cy="616.33" rx="12.123" ry="14.9"/>
		<path style="fill:none;stroke:#FF0050;stroke-width:3;" d="M1506.418,639.127c0,0,3.539-1.676,4.841,2.42
			c1.306,4.099,18.064,86.224,18.064,86.224s4.843,26.253,4.843,29.793"/>
		<path style="fill:none;stroke:#FF0050;stroke-width:3;" d="M1522.062,884.564c0,0,25.512-17.504,25.512-35.196
			c0-22.394-4.096-42.642-4.096-42.642"/>
		<path style="fill:none;stroke:#FF0050;stroke-width:3;" d="M1436.216,609.4c-4.311,8.255-8.618,17.568-12.107,27.305l1.119,15.272
			"/>
		<path style="fill:none;stroke:#FF0050;stroke-width:3;" d="M1496.921,595.551c0,0-8.007-9.683-10.241-11.917
			s-1.398-4.938-2.234-5.774c-0.84-0.838-2.422-6.33-12.478-4.841l-2.422,2.607l-13.407,1.302c0,0-2.494,3.354-6.229,9.091"/>
		<path style="fill:none;stroke:#FF0050;stroke-width:3;" d="M1445.431,629.229c-1.237,11.652-2.117,23.565-1.77,31.869"/>
		<line style="fill:none;stroke:#FF0050;stroke-width:3;" x1="1424.172" y1="686.792" x2="1442.544" y2="654.026"/>
		<path style="fill:none;stroke:#FF0050;stroke-width:3;" d="M1424.178,694.066c0,0,18.366-29.985,18.926-31.474"/>
		<path style="fill:none;stroke:#FF0050;stroke-width:3;" d="M1456.667,626.837c1.913,10.785,4.49,21.743,7.85,29.423
			c0,0,14.342,40.594,21.79,95.345"/>
		<path style="fill:none;stroke:#FF0050;stroke-width:3;" d="M1485.002,751.605c0,0,0,23.09-12.477,40.036
			c-12.477,16.947-15.27,8.38-15.27,8.38c-8.567-14.34-25.141-45.438-25.141-45.438c-15.828-55.308-3.166-122.16-3.166-122.16"/>
		<path style="fill:none;stroke:#FF0050;stroke-width:3;" d="M1483.327,755.514c-4.284-4.28-30.542-30.912-30.542-30.912
			l-18.437,29.051l22.164,41.899"/>
		<path style="fill:none;stroke:#FF0050;stroke-width:3;" d="M1456.881,799.388c0,0,2.211,40.768,27.871,82.24
			c0.145,0.232,0.291,0.468,0.438,0.701l2.419,1.116c0,0,2.517,5.68,3.354,4.844c0,0,9.606-1.027,17.507-10.987
			c8.566-10.802,10.612-11.358,14.709-27.376"/>
		<path style="fill:none;stroke:#FF0050;stroke-width:3;" d="M1487.237,757.19c0,0,7.262,47.489,31.844,88.269"/>
		<path style="fill:none;stroke:#FF0050;stroke-width:3;" d="M1497.479,880.652c0,0,10.242-5.956,15.644-16.943"/>
		<path style="fill:none;stroke:#FF0050;stroke-width:3;" d="M1487.796,753.095c0.745,0.745,1.861,1.304,3.166,1.304
			c1.303,0,37.245-2.793,37.245-2.793"/>
		<polyline style="fill:none;stroke:#FF0050;stroke-width:3;" points="1474.387,682.146 1482.21,682.146 1484.258,680.096 
			1513.495,678.979 		"/>
		<path style="fill:none;stroke:#FF0050;stroke-width:3;" d="M1456.698,577.489c-0.56,0.557,14.896,72.25,26.907,101.955
			c12.012,29.703,23.56,80.914,23.56,80.914"/>
		<path style="fill:none;stroke:#FF0050;stroke-width:3;" d="M1516.288,803.931c0,0,4.655,27.751,4.655,40.783"/>
		<path style="fill:none;stroke:#FF0050;stroke-width:3;" d="M1534.352,806.909c0,0,4.841,24.022,4.841,35.198
			c0,11.172-1.117,14.15-4.841,20.297c0,0-15.97,23.657-26.966,26.967l-3.725-1.298l-12.699,0.216"/>
		<path style="fill:none;stroke:#FF0050;stroke-width:3;" d="M1495.747,596.726c0,0-28.697-2.271-22.879,20.521
			c5.82,22.79,32.248,21.88,32.248,21.88s26.053,118.99,24.787,118.99c-1.267,0-31.818-2.426-27.938,24.003
			c3.881,26.427,40.249,24.729,40.249,24.729"/>
		<path style="fill:none;stroke:#FF0050;stroke-width:3;" d="M1461.898,576.369c0,1.358,1.001,2.358,1.001,2.358l10.697-0.759
			l-3.119-3.346"/>
		<path style="fill:none;stroke:#FF0050;stroke-width:3;" d="M1505.758,888.804c20.767-9.454,29.666-35.161,29.666-35.161
			c-1.269-4.541-8.244-3.879-8.244-3.879s-9.697,30.064-28.125,38.31"/>
		<path style="fill:none;stroke:#FF0050;stroke-width:3;" d="M1510.926,830.498l-7.751,12.234c0,0,5.297,13.782,10.671,19.155"/>
		<polyline style="fill:none;stroke:#FF0050;stroke-width:3;" points="1476.712,867.237 1485.721,863.1 1495.416,880.652 
			1485.189,882.329 		"/>
		<path style="fill:none;stroke:#FF0050;stroke-width:3;" d="M1483.782,795.456c0,0-6.063,14.546-15.763,19.638"/>
		<path style="fill:none;stroke:#FF0050;stroke-width:3;" d="M1472.629,757.876c-0.729,0.726-4.003,13.698-3.154,12.849
			c0.849-0.848,0,10.666,0,10.666"/>
		<path style="fill:none;stroke:#FF0050;stroke-width:3;" d="M1466.808,781.635c-0.729,0.728-5.332,12.607-5.332,12.607"/>
		<polyline style="fill:none;stroke:#FF0050;stroke-width:3;" points="1461.716,788.183 1460.019,798.364 1460.019,806.605 		"/>
		<path style="fill:none;stroke:#FF0050;stroke-width:3;" d="M1468.507,771.936c0,0,0.483,16.974-0.244,17.7
			c-0.727,0.727,2.425,9.697,2.425,9.697"/>
		<path style="fill:none;stroke:#FF0050;stroke-width:3;" d="M1451.29,686.832h19.397c0,0,11.937,42.797,12.608,59.161
			c0,0-19.154-16.729-21.82-21.579C1458.807,719.565,1451.29,705.019,1451.29,686.832z"/>
		<polygon style="fill:none;stroke:#FF0050;stroke-width:3;" points="1449.835,681.498 1469.23,681.498 1462.687,661.374 
			1448.624,665.254 		"/>
		<line style="fill:none;stroke:#FF0050;stroke-width:3;" x1="1444.502" y1="662.346" x2="1462.199" y2="657.009"/>
		<path style="fill:none;stroke:#FF0050;stroke-width:3;" d="M1446.562,663.193c0,0,1.21,43.403,9.334,57.101"/>
		<path style="fill:none;stroke:#FF0050;stroke-width:3;" d="M1485.991,617.467l3.528-2.482l-1.845-4.966
			c0,0,2.002-1.683,2.884-1.683l4.564,3.123l4.088-2.162c0,0,2.08,0.64,3.281,1.843l-1.28,4.564l4.486,3.124
			c0,0-0.241,2.724-0.882,3.364l-4.728-0.479l-1.761,4.244c0,0-3.124,0.561-3.686,0l-1.922-4.807h-5.366
			C1487.354,621.151,1485.991,619.388,1485.991,617.467z"/>
		<path style="fill:none;stroke:#FF0050;stroke-width:3;" d="M1484.232,619.232c0.279,0.282,3.365,7.063,10.012,7.847
			c6.648,0.789,9.116-0.655,11.969-4.531c2.848-3.877,1.01-10.525-2.197-12.45c-3.204-1.921-5.765-4.802-14.258-3.443
			C1481.268,608.018,1484.232,619.232,1484.232,619.232z"/>
		<path style="fill:none;stroke:#FF0050;stroke-width:3;" d="M1519.637,794.854c10.725,4.424,22.197,1.28,25.617-7.016
			c3.42-8.3-2.506-18.612-13.233-23.033c-10.728-4.422-22.198-1.278-25.618,7.019
			C1502.98,780.121,1508.905,790.432,1519.637,794.854z"/>
		
			<ellipse transform="matrix(-0.3066 0.9518 -0.9518 -0.3066 2736.8228 -433.2562)" style="fill:none;stroke:#FF0050;stroke-width:3;" cx="1526.218" cy="780.214" rx="12.122" ry="14.901"/>
		<path style="fill:none;stroke:#FF0050;stroke-width:3;" d="M1516.203,781.353l3.525-2.482l-1.844-4.967
			c0,0,2.004-1.682,2.883-1.682l4.568,3.124l4.084-2.162c0,0,2.081,0.641,3.283,1.844l-1.282,4.564l4.487,3.124
			c0,0-0.241,2.721-0.883,3.363l-4.725-0.479l-1.764,4.243c0,0-3.122,0.561-3.686,0l-1.922-4.803h-5.366
			C1517.563,785.04,1516.203,783.274,1516.203,781.353z"/>
		<path style="fill:none;stroke:#FF0050;stroke-width:3;" d="M1514.441,783.117c0.281,0.281,3.365,7.064,10.012,7.85
			c6.649,0.785,9.119-0.656,11.969-4.532c2.854-3.876,1.01-10.524-2.195-12.45c-3.203-1.92-5.768-4.803-14.259-3.44
			C1511.478,771.902,1514.441,783.117,1514.441,783.117z"/>
		<path style="fill:none;stroke:#FF0050;stroke-width:3;" d="M1544.827,788.751c0,0-5.968,14.803-7.119,14.803
			c-1.152,0-9.199,2.073-9.199,2.073"/>
		<polyline style="fill:none;stroke:#FF0050;stroke-width:3;" points="1515.48,622.69 1508.592,637.21 1502.434,639.045 		"/>
		<line style="fill:none;stroke:#FF0050;stroke-width:3;" x1="1476.701" y1="606.859" x2="1472.868" y2="617.247"/>
		<line style="fill:none;stroke:#FF0050;stroke-width:3;" x1="1507.205" y1="770.217" x2="1502.174" y2="783.354"/>
		<path style="fill:none;stroke:#FF0050;stroke-width:3;" d="M1497.41,860.133c-0.167,0.167,3.263,5.363,3.263,5.363l-1.612,1.614
			l-3.011-5.266l1.202-1.712C1497.252,860.133,1497.564,859.979,1497.41,860.133z"/>
	</g>
	<path style="fill:none;stroke:#17192D;stroke-width:3;" d="M2048,0"/>
	<path style="fill:none;stroke:#17192D;stroke-width:3;" d="M2048,1536"/>
	<path style="fill:none;stroke:#17192D;stroke-width:3;" d="M0,1536"/>
	<path style="fill:none;stroke:#17192D;stroke-width:3;" d="M0,0"/>
</g>
<g id="Layer_1">
</g>
</svg>
