<svg xmlns="http://www.w3.org/2000/svg" width="2048" height="1536" viewBox="0 0 2048 1536"><g fill="none" stroke-width="3"><g stroke="#FF0050"><path d="M1093.896 477.22c26.524-4.822 40.475-14.472 69.406-15.676 26.52-1.206 54.246 0 80.768 1.204 56.66 1.21 110.906 13.26 166.36 15.674M1105.436 573.657c19.29 0 43.398-1.204 54.25-18.08M1129.55 545.93c9.644 19.288 124.167 7.23 147.07 7.23 27.726 0 55.45-1.204 83.184-3.61 10.848-1.21 24.106-3.622 36.16 0M1081.113 578.495c6.32-.616 17.32-.02 22.076-4.798M1088.026 479.578c-29.056 5.084-59.562 2.18-86.438 15.253"/></g><path d="M2048 0M2048 1536M0 1536M0 0" stroke="#17192D"/></g></svg>