<svg xmlns="http://www.w3.org/2000/svg" width="2048" height="1536" viewBox="0 0 2048 1536"><g fill="none" stroke-width="3"><g stroke="#FF0050"><ellipse transform="matrix(-.381 .925 -.925 -.381 2634.883 -532.243)" cx="1495.617" cy="615.944" rx="16.252" ry="21.009"/><ellipse transform="matrix(-.307 .952 -.952 -.307 2541.329 -618.662)" cx="1496.008" cy="616.33" rx="12.123" ry="14.9"/><path d="M1506.418 639.127s3.54-1.676 4.84 2.42c1.307 4.1 18.065 86.224 18.065 86.224s4.843 26.254 4.843 29.794M1522.062 884.564s25.512-17.504 25.512-35.196c0-22.394-4.096-42.642-4.096-42.642M1436.216 609.4c-4.31 8.255-8.618 17.568-12.107 27.305l1.118 15.272M1496.92 595.55s-8.006-9.682-10.24-11.916-1.398-4.938-2.234-5.774c-.84-.838-2.422-6.33-12.478-4.84l-2.422 2.606-13.407 1.302s-2.495 3.354-6.23 9.09M1445.43 629.23c-1.236 11.65-2.116 23.564-1.77 31.868M1424.172 686.792l18.372-32.766M1424.178 694.066s18.366-29.985 18.926-31.474M1456.667 626.837c1.913 10.785 4.49 21.743 7.85 29.423 0 0 14.342 40.594 21.79 95.345M1485.002 751.605s0 23.09-12.477 40.036c-12.477 16.948-15.27 8.38-15.27 8.38-8.567-14.34-25.14-45.437-25.14-45.437-15.83-55.308-3.167-122.16-3.167-122.16M1483.327 755.514c-4.284-4.28-30.542-30.912-30.542-30.912l-18.437 29.05 22.164 41.9M1456.88 799.388s2.212 40.768 27.872 82.24c.145.232.29.468.438.7l2.42 1.117s2.516 5.68 3.353 4.844c0 0 9.606-1.028 17.507-10.988 8.566-10.802 10.612-11.358 14.71-27.376M1487.237 757.19s7.262 47.49 31.844 88.27M1497.48 880.652s10.24-5.956 15.643-16.943M1487.796 753.095c.745.745 1.86 1.304 3.166 1.304 1.303 0 37.245-2.794 37.245-2.794M1474.387 682.146h7.823l2.048-2.05 29.237-1.117M1456.698 577.49c-.56.556 14.896 72.25 26.907 101.954 12.012 29.703 23.56 80.914 23.56 80.914M1516.288 803.93s4.655 27.752 4.655 40.784M1534.352 806.91s4.84 24.02 4.84 35.197c0 11.172-1.116 14.15-4.84 20.297 0 0-15.97 23.657-26.966 26.967l-3.725-1.297-12.698.216M1495.747 596.726s-28.697-2.27-22.88 20.52c5.82 22.79 32.25 21.88 32.25 21.88s26.052 118.99 24.786 118.99c-1.267 0-31.818-2.425-27.938 24.004 3.88 26.427 40.25 24.73 40.25 24.73M1461.898 576.37c0 1.357 1 2.357 1 2.357l10.698-.76-3.12-3.345M1505.758 888.804c20.767-9.454 29.666-35.16 29.666-35.16-1.27-4.542-8.244-3.88-8.244-3.88s-9.697 30.064-28.125 38.31M1510.926 830.498l-7.75 12.234s5.296 13.782 10.67 19.155M1476.712 867.237l9.01-4.137 9.694 17.552-10.227 1.677M1483.782 795.456s-6.063 14.546-15.763 19.638M1472.63 757.876c-.73.726-4.004 13.698-3.155 12.85.85-.85 0 10.665 0 10.665M1466.808 781.635c-.73.728-5.332 12.607-5.332 12.607M1461.716 788.183l-1.697 10.18v8.242M1468.507 771.936s.483 16.974-.244 17.7c-.727.727 2.425 9.697 2.425 9.697"/><path d="M1451.29 686.832h19.397s11.937 42.797 12.608 59.16c0 0-19.154-16.728-21.82-21.578-2.668-4.85-10.185-19.395-10.185-37.582zM1449.835 681.498h19.395l-6.543-20.124-14.063 3.88zM1444.502 662.346l17.697-5.337M1446.562 663.193s1.21 43.403 9.334 57.1"/><path d="M1485.99 617.467l3.53-2.482-1.846-4.966s2.002-1.684 2.884-1.684l4.564 3.123 4.088-2.163s2.08.64 3.28 1.843l-1.28 4.564 4.487 3.124s-.24 2.724-.882 3.364l-4.728-.48-1.76 4.245s-3.125.56-3.687 0l-1.922-4.807h-5.366c.002 0-1.36-1.762-1.36-3.683zM1484.232 619.232c.28.282 3.365 7.063 10.012 7.847 6.648.788 9.116-.656 11.97-4.532 2.847-3.877 1.01-10.525-2.198-12.45-3.204-1.92-5.765-4.802-14.258-3.443-8.49 1.363-5.526 12.577-5.526 12.577zM1519.637 794.854c10.725 4.424 22.197 1.28 25.617-7.016 3.42-8.3-2.506-18.612-13.233-23.033-10.727-4.422-22.197-1.278-25.617 7.02-3.423 8.296 2.502 18.607 13.234 23.03z"/><ellipse transform="matrix(-.307 .952 -.952 -.307 2736.823 -433.256)" cx="1526.218" cy="780.214" rx="12.122" ry="14.901"/><path d="M1516.203 781.353l3.525-2.482-1.844-4.966s2.004-1.682 2.883-1.682l4.568 3.124 4.084-2.162s2.08.64 3.282 1.844l-1.282 4.564 4.487 3.124s-.24 2.72-.883 3.363l-4.725-.48-1.765 4.243s-3.122.56-3.686 0l-1.923-4.803h-5.366c.003 0-1.357-1.766-1.357-3.687zM1514.44 783.117c.282.28 3.366 7.064 10.013 7.85 6.65.785 9.12-.656 11.97-4.532 2.853-3.876 1.01-10.524-2.196-12.45-3.203-1.92-5.768-4.803-14.26-3.44-8.49 1.357-5.526 12.572-5.526 12.572zM1544.827 788.75s-5.968 14.804-7.12 14.804c-1.15 0-9.198 2.073-9.198 2.073M1515.48 622.69l-6.888 14.52-6.158 1.835M1476.7 606.86l-3.832 10.387M1507.205 770.217l-5.03 13.137"/><path d="M1497.41 860.133c-.167.167 3.263 5.363 3.263 5.363l-1.612 1.614-3.01-5.266 1.202-1.712s.312-.153.158 0z"/></g><path d="M2048 0M2048 1536M0 1536M0 0" stroke="#17192D"/></g></svg>