<?xml version="1.0" encoding="iso-8859-1"?>
<!-- Generator: Adobe Illustrator 15.1.0, SVG Export Plug-In . SVG Version: 6.00 Build 0)  -->
<!DOCTYPE svg PUBLIC "-//W3C//DTD SVG 1.1//EN" "http://www.w3.org/Graphics/SVG/1.1/DTD/svg11.dtd">
<svg version="1.1" xmlns="http://www.w3.org/2000/svg" xmlns:xlink="http://www.w3.org/1999/xlink" x="0px" y="0px" width="2048px"
	 height="1536px" viewBox="0 0 2048 1536" style="enable-background:new 0 0 2048 1536;" xml:space="preserve">
<g id="a3b_x5F_arm_x5F_h">
	<g>
		<path style="fill:none;stroke:#FF0050;stroke-width:3;" d="M964.523,1168.501c28.329,4.358,53.754,14.527,80.629,23.244
			c32.687,10.895,66.102,18.16,100.24,21.79c26.148,2.18,53.028,1.454,78.449,5.812c15.256,2.181,31.96,4.359,46.488,8.718
			c10.896,2.903,21.793,10.168,34.138,7.264"/>
		<path style="fill:none;stroke:#FF0050;stroke-width:3;" d="M975.419,1046.47c10.169-2.178,21.066-0.728,30.508,2.181
			c10.896,2.903,18.887,11.62,28.329,14.525"/>
		<path style="fill:none;stroke:#FF0050;stroke-width:3;" d="M1303.016,1151.793c-13.801-3.63-27.601-7.99-40.676-11.621
			c-21.065-5.812-38.498-18.159-58.111-23.968c-34.865-11.625-69.005-23.972-104.597-34.143
			c-20.34-5.812-41.404-12.349-62.467-15.253"/>
		<path style="fill:none;stroke:#FF0050;stroke-width:3;" d="M1023.36,1082.788c5.812,0.728,10.172,5.085,15.253,6.536"/>
	</g>
	<path style="fill:none;stroke:#17192D;stroke-width:3;" d="M2048,0"/>
	<path style="fill:none;stroke:#17192D;stroke-width:3;" d="M2048,1536"/>
	<path style="fill:none;stroke:#17192D;stroke-width:3;" d="M0,1536"/>
	<path style="fill:none;stroke:#17192D;stroke-width:3;" d="M0,0"/>
</g>
<g id="Layer_1">
</g>
</svg>
