<?xml version="1.0" encoding="iso-8859-1"?>
<!-- Generator: Adobe Illustrator 15.1.0, SVG Export Plug-In . SVG Version: 6.00 Build 0)  -->
<!DOCTYPE svg PUBLIC "-//W3C//DTD SVG 1.1//EN" "http://www.w3.org/Graphics/SVG/1.1/DTD/svg11.dtd">
<svg version="1.1" xmlns="http://www.w3.org/2000/svg" xmlns:xlink="http://www.w3.org/1999/xlink" x="0px" y="0px" width="2048px"
	 height="1536px" viewBox="0 0 2048 1536" style="enable-background:new 0 0 2048 1536;" xml:space="preserve">
<g id="a3b_x5F_corpus">
	<path style="fill:none;stroke:#FF0050;stroke-width:3;" d="M917.048,989.742c0.255-0.363,1.593-0.155,0.495-0.603
		c-7.423,4.614-3.535,9.252-8.072,15.826"/>
	<g>
		<path style="fill:none;stroke:#FF0050;stroke-width:3;" d="M891.575,879.348c-0.766,0.73-1.487,1.381-1.955,2.287
			c9.934-6.423,20.39-10.438,28.775-19.031c4.312-4.419,9.084-8.325,13.881-12.184c6.476-5.207,13.853-11.221,18.801-18.094"/>
		<path style="fill:none;stroke:#FF0050;stroke-width:3;" d="M911.253,838.085c0.406-4.34-5.547-7.829-7.57-11.377
			c-2.188-3.826-3.674-8.602-5.497-12.588c-1.985-4.35-3.475-9.168-5.531-13.569c-2.503-5.362-6.576-4.812-9.714-9.009"/>
		<path style="fill:none;stroke:#FF0050;stroke-width:3;" d="M905.972,1031.938c4.766,0.901,6.511,7.615,9.204,11.034
			c2.536,3.229,5.964,5.579,8.563,8.72c2.594,3.139,4.194,6.981,7.056,9.92c3.907,4.013,6.578,6.172,9.354,11.102
			c3.122,5.537,2.773,9.986,2.773,16.326"/>
		<path style="fill:none;stroke:#FF0050;stroke-width:3;" d="M898.818,1005.981c3.79,2.528,12.241,1.148,16.916,1.561
			c6.285,0.547,8.322,4.905,14.612,5.212c5.901,0.291,14.665-1.9,20.272-0.037c5.462,1.817,10.511,9.336,13.296,13.944
			c4.012,6.631,7.074,13.697,10.771,20.294c11.538,20.57,28.827,45.194,21.602,70.418c-2.728,9.533-3.401,20.396-7.891,29.247
			c-4.562,8.998-16.647,14.888-25.257,19.262c-9.898,5.03-23.064,9.321-34.073,4.151c-1.129-0.531-3.335-2.986-4.511-3.872
			c-1.532-1.154-3.93-2.515-5.524-3.372c-3.901-2.093-9.599-2.013-9.7-8.013"/>
		<path style="fill:none;stroke:#FF0050;stroke-width:3;" d="M943.881,1146.136c-6.346-0.702-13.645,4.242-20.044,5.183
			c-3.717,0.548-7.486,0.367-11.231,0.577c-5.277,0.296-9.612-0.138-14.766-0.961c-4.908-0.781-10.226-1.484-14.898-3.465
			c-3.334-1.413-6.033-3.866-9.091-5.662c-7.546-4.435-17.767-4.679-24.496-10.065"/>
		<path style="fill:none;stroke:#FF0050;stroke-width:3;" d="M864.706,1122.146c2.525,0,5.104-0.062,7.601,0.071
			c-14.629,8.645-42.125,4.577-56.585-3.43c-5.743-3.181-12.32-5.935-17.322-10.198c-4.423-3.757-9.044-7.755-13.827-10.915"/>
		<path style="fill:none;stroke:#FF0050;stroke-width:3;" d="M843.113,1065.045c1.521-1.96-7.037,2.458-8.579,3.436
			c-6.417,4.062-12.517,8.796-19.73,11.44"/>
		<path style="fill:none;stroke:#FF0050;stroke-width:3;" d="M807.607,1086.639c-3.785,3.544-15.119,2.389-20.153,2.879
			c-4.13,0.406-8.914,2.742-12.934,2.405c-7.683-0.644-15.784-10.139-22.105-13.93c-9.583-5.755-25.29-13.008-28.301-24.942"/>
		<path style="fill:none;stroke:#FF0050;stroke-width:3;" d="M979.389,835.204c-0.953,7.183,7.303,11.493,12.019,15.459
			c2.351,1.979,5.837,4.15,7.685,6.591c2.063,2.73,2.43,6.185,4.289,9.175c2.586,4.16,8.703,12.585,8.634,17.718"/>
		<path style="fill:none;stroke:#FF0050;stroke-width:3;" d="M1002.467,902.616c0.168-0.459,0.294-0.926,0.38-1.41
			c-0.325,8.19-6.18,18.165-9.578,25.582c-2.535,5.521-6.638,9.803-10.387,14.59c-6.049,7.725-12.21,12.002-19.858,17.63
			c-7.3,5.372-14.464,11.212-21.353,17.027c-9.001,7.603-17.625,16.651-29.271,19.984"/>
		<path style="fill:none;stroke:#FF0050;stroke-width:3;" d="M977.468,944.605c12.674-3.866,24.505-2.125,37.426-3.357
			c10.352-0.99,10.168-12.242,11.969-20.217c1.107-4.944,3.665-9.975,2.814-15.167c-0.462-2.806-2.257-5.274-2.688-8.165
			c-1.163-7.754-2.153-15.502-3.936-23.149c-2.672-11.44-8.415-23.252-17.849-30.709c-5.418-4.28-8.1-8.598-12.381-13.811
			c-2.554-3.109-12.206-6.8-9.599-11.621"/>
		<path style="fill:none;stroke:#FF0050;stroke-width:3;" d="M1239.939,1012.743c-3.216,6.35-13.279,11.818-19.673,14.396"/>
		<path style="fill:none;stroke:#FF0050;stroke-width:3;" d="M1011.056,943.648c30.569,21.544,66.346,32.206,97.909,51.698
			c11.01,6.802,23.714,11.889,35.574,16.907c9.975,4.22,17.002,14.484,25.913,20.85c9.699,6.93,20.905,11.623,33.019,10.83"/>
		<path style="fill:none;stroke:#FF0050;stroke-width:3;" d="M1216.427,880.31c4.402,6.011,8.33,9.797,11.036,17.131
			c2.945,7.993,9.54,18.879,8.64,27.493"/>
		<path style="fill:none;stroke:#FF0050;stroke-width:3;" d="M1226.476,865.613c3.289-1.396,29.215-3.611,33.217-2.571
			c7.475,1.941,25.366,8.055,27.534,14.52c4.412,13.132-3.329,29.905,4.968,41.022c7.366,9.867-0.945,29.347,0.364,42.296
			c1.742,17.239-6.361,30.786-15.642,43.721c-6.978,9.727-13.997,21.856-24.672,27.726c-11.067,6.083-30.38,7.27-42.936,6.655"/>
		<path style="fill:none;stroke:#FF0050;stroke-width:3;" d="M1166.399,857.032c11.045-4.072,30.249-10.694,41.349-3.649
			c9.263,5.872,10.181,21.771,6.714,31.112"/>
		<path style="fill:none;stroke:#FF0050;stroke-width:3;" d="M1205.879,864.756c-9.247-1.021-13.515,3.9-18.026,11.155"/>
		<path style="fill:none;stroke:#FF0050;stroke-width:3;" d="M1092.999,741.665c1.222-13.413,1.552-24.992,8.474-36.284"/>
		<path style="fill:none;stroke:#FF0050;stroke-width:3;" d="M1093.232,739.101c-1.586,8.127,1.104,16.782,4.734,23.698"/>
		<path style="fill:none;stroke:#FF0050;stroke-width:3;" d="M1074.562,730.017c-1.032,6.009-4.152,12.296-1.717,18.026"/>
		<path style="fill:none;stroke:#FF0050;stroke-width:3;" d="M1277.594,866.328c5.809-36.319-7.267-75.543-17.432-108.953
			c-10.173-39.224-15.983-78.448-26.15-116.219c0,1.451,0,4.357-1.454,5.808"/>
		<path style="fill:none;stroke:#FF0050;stroke-width:3;" d="M1155.562,805.314c4.36-23.244-7.264-52.298-5.811-76.994
			c1.453-14.528,5.811-29.056,7.263-42.131c1.453-7.263-1.452-33.413,2.908-24.696"/>
		<path style="fill:none;stroke:#FF0050;stroke-width:3;" d="M1157.014,809.672c14.527,21.789,33.415,29.054,50.848,45.035"/>
		<path style="fill:none;stroke:#FF0050;stroke-width:3;" d="M1222.389,869.233c11.623,2.906,20.339,11.623,24.697,20.34"/>
		<path style="fill:none;stroke:#FF0050;stroke-width:3;" d="M1100.479,763.389c18.41,22.101,37.212,39.859,60.752,53.672"/>
		<path style="fill:none;stroke:#FF0050;stroke-width:3;" d="M1130.863,822.746c11.624,0,23.244-2.904,30.51,4.358"/>
	</g>
	<path style="fill:none;stroke:#17192D;stroke-width:3;" d="M2048,0"/>
	<path style="fill:none;stroke:#17192D;stroke-width:3;" d="M2048,1536"/>
	<path style="fill:none;stroke:#17192D;stroke-width:3;" d="M0,1536"/>
	<path style="fill:none;stroke:#17192D;stroke-width:3;" d="M0,0"/>
</g>
<g id="Layer_1">
</g>
</svg>
