<?xml version="1.0" encoding="iso-8859-1"?>
<!-- Generator: Adobe Illustrator 15.1.0, SVG Export Plug-In . SVG Version: 6.00 Build 0)  -->
<!DOCTYPE svg PUBLIC "-//W3C//DTD SVG 1.1//EN" "http://www.w3.org/Graphics/SVG/1.1/DTD/svg11.dtd">
<svg version="1.1" xmlns="http://www.w3.org/2000/svg" xmlns:xlink="http://www.w3.org/1999/xlink" x="0px" y="0px" width="2048px"
	 height="1536px" viewBox="0 0 2048 1536" style="enable-background:new 0 0 2048 1536;" xml:space="preserve">
<g id="a3b_x5F_schulter_x5F_v">
	<path style="fill:none;stroke:#FF0050;stroke-width:3;" d="M975.068,636.076c4.778-2.069,13.91-3.474,15.837-9.116"/>
	<g>
		<path style="fill:none;stroke:#FF0050;stroke-width:3;" d="M867.106,773.787c4.955-7.948,11.853-13.641,15.964-22.552
			c3.717-8.048,8.089-16.514,9.348-25.325c2.14-15.064,5.032-29.509,13.554-42.333"/>
		<path style="fill:none;stroke:#FF0050;stroke-width:3;" d="M865.666,684.06c9.522,0.674,20.891-0.778,30.253-2.378
			c5.236-0.894,11.162-3.288,14.958-6.74c8.03-7.297,15.836-17.667,24.845-23.511"/>
		<path style="fill:none;stroke:#FF0050;stroke-width:3;" d="M905.494,643.275c0.901,3.941,17.974,2.805,22.202,3.221
			c6.182,0.615,12.337,0.683,18.561,0.615c4.918-0.049,9.735-0.915,14.43-2.516c5.67-1.936,9.268-6.605,14.864-8.998"/>
		<path style="fill:none;stroke:#FF0050;stroke-width:3;" d="M951.557,597.209c-0.466,0.43-0.582,0.898-0.336,1.404
			c7.286,0.201,17.734,10.168,21.947,15.512c3.669,4.646,4.855,11.336,10.515,12.836c16.94,4.492,32.705-15.83,44.647-23.033"/>
		<path style="fill:none;stroke:#FF0050;stroke-width:3;" d="M1010.1,603.446c4.06-1.226,8.263-0.854,12.451-1.538
			c5.43-0.882,10.391-2.639,15.866-3.259c5.541-0.627,10.8-2.345,16.187-3.959c5.622-1.688,11.129-4.116,16.315-6.707
			c3.779-1.889,7.489-5.699,11.572-6.689c-1.046-3.987-1.717-7.979-1.854-12.265c-0.202-6.11-1.783-8.285-4.814-13.183
			c-4.113-6.663-7.362-12.848-13.312-18.032c-3.888-3.381-7.06-7.09-10.67-10.65c-4.531-4.471-10.188-12.081-15.352-15.367"/>
		<path style="fill:none;stroke:#FF0050;stroke-width:3;" d="M711.639,588.572c-6.047,2.828-14.405,7.441-19.346,11.854
			c-4.496,4.01-7.604,9.1-12.348,12.908c-3.489,2.795-7.327,5.255-10.554,8.348c-10.436,9.994-17.059,24.9-23.136,37.792
			c-5.396,11.437-9.024,21.722-11.377,34.185c-0.796,4.212-6.08,24.416-1.933,26.868"/>
		<path style="fill:none;stroke:#FF0050;stroke-width:3;" d="M692.93,726.766c11.164-3.523,21.614-12.172,30.705-19.193"/>
		<path style="fill:none;stroke:#FF0050;stroke-width:3;" d="M736.592,718.125c4.247,1.239,12.121-3.566,16.499-4.675
			c13.657-3.467,28.032-5.871,42.04-7.318"/>
		<path style="fill:none;stroke:#FF0050;stroke-width:3;" d="M1028.812,509.397c0.504-0.179,1.295,0.023,1.836-0.071
			c0.713-1.593,2.381-1.792,4.29-1.359c-7.912-0.998-15.009-7.635-22.522-10.189c-5.217-1.776-12.099-2.161-17.692-2.293
			c-8.5-0.208-15.55,3.438-23.537,5.66c-6.362,1.768-19.688,4.554-22.509,10.653"/>
		<path style="fill:none;stroke:#FF0050;stroke-width:3;" d="M977.468,513.717c-9.772-0.562-19.448-1.163-29.128-1.941
			c-12.038-0.97-23.754,4.258-34.69,8.657"/>
		<path style="fill:none;stroke:#FF0050;stroke-width:3;" d="M923.727,528.111c0.402-0.254,1.649-0.084,0.504-0.504
			c-11.504,0.151-21.396-1.511-32.617-3.366c-10.064-1.665-18.306,2.138-27.806,3.845c-7.899,1.421-15.775,2.706-23.551,3.866
			c-7.858,1.175-14.272,4.878-21.624,7.677c-6.724,2.56-14.65,9.248-21.586,10.558"/>
		<path style="fill:none;stroke:#FF0050;stroke-width:3;" d="M841.672,544.426c-3.318,1.178-7.373,0.326-10.895,0.579
			c-5.578,0.396-10.822,1.354-16.449,1.341c-9.406-0.027-17.314,1.544-26.363,3.735c-7.572,1.829-15.087,3.999-22.456,6.689
			c-7.653,2.797-15.201,3.98-22.276,8.321c-4.825,2.959-8.672,7.036-13.264,10.187c-2.704,1.848-6.124,2.715-8.743,4.249
			c-7.989,4.684-15.49,11.211-23.981,15.281"/>
		<path style="fill:none;stroke:#FF0050;stroke-width:3;" d="M844.554,555.94c4.786-2.045,10.08-1.488,15.19-1.443
			c10.347,0.084,22.392,1.375,32.312,4.323"/>
	</g>
	<path style="fill:none;stroke:#17192D;stroke-width:3;" d="M2048,0"/>
	<path style="fill:none;stroke:#17192D;stroke-width:3;" d="M2048,1536"/>
	<path style="fill:none;stroke:#17192D;stroke-width:3;" d="M0,1536"/>
	<path style="fill:none;stroke:#17192D;stroke-width:3;" d="M0,0"/>
</g>
<g id="Layer_1">
</g>
</svg>
