<svg xmlns="http://www.w3.org/2000/svg" width="2048" height="1536" viewBox="0 0 2048 1536"><g fill="none" stroke-width="3"><path d="M975.068 636.076c4.778-2.07 13.91-3.474 15.837-9.116" stroke="#FF0050"/><g stroke="#FF0050"><path d="M867.106 773.787c4.955-7.948 11.853-13.64 15.964-22.552 3.717-8.048 8.09-16.514 9.348-25.325 2.14-15.064 5.032-29.51 13.554-42.333M865.666 684.06c9.522.674 20.89-.778 30.253-2.378 5.235-.894 11.16-3.288 14.957-6.74 8.03-7.297 15.836-17.667 24.845-23.51M905.494 643.275c.9 3.94 17.974 2.805 22.202 3.22 6.182.616 12.337.684 18.56.616 4.92-.048 9.736-.914 14.43-2.515 5.67-1.936 9.27-6.605 14.865-8.998M951.557 597.21c-.466.43-.582.897-.336 1.403 7.287.2 17.735 10.168 21.948 15.512 3.67 4.646 4.855 11.336 10.515 12.836 16.94 4.493 32.705-15.83 44.647-23.032M1010.1 603.446c4.06-1.226 8.263-.854 12.45-1.538 5.43-.882 10.392-2.64 15.867-3.26 5.54-.626 10.8-2.344 16.187-3.958 5.622-1.688 11.13-4.116 16.315-6.707 3.778-1.89 7.488-5.7 11.57-6.69-1.045-3.986-1.716-7.978-1.853-12.264-.202-6.11-1.783-8.286-4.814-13.184-4.113-6.663-7.362-12.848-13.312-18.032-3.887-3.38-7.06-7.09-10.67-10.65-4.53-4.47-10.187-12.08-15.35-15.367M711.64 588.572c-6.048 2.828-14.406 7.44-19.347 11.854-4.496 4.01-7.604 9.1-12.348 12.908-3.49 2.795-7.327 5.255-10.554 8.348-10.435 9.994-17.058 24.9-23.135 37.792-5.396 11.437-9.024 21.722-11.377 34.185-.796 4.21-6.08 24.415-1.933 26.867M692.93 726.766c11.164-3.523 21.614-12.172 30.705-19.193M736.592 718.125c4.247 1.24 12.12-3.566 16.5-4.675 13.656-3.467 28.03-5.87 42.04-7.318M1028.812 509.397c.504-.18 1.295.023 1.836-.07.713-1.594 2.38-1.793 4.29-1.36-7.912-.998-15.01-7.635-22.522-10.19-5.217-1.775-12.1-2.16-17.692-2.292-8.5-.208-15.55 3.438-23.537 5.66-6.362 1.768-19.688 4.554-22.51 10.653M977.468 513.717c-9.772-.562-19.448-1.163-29.128-1.94-12.038-.97-23.754 4.257-34.69 8.656M923.727 528.11c.402-.253 1.65-.083.504-.503-11.503.15-21.395-1.51-32.616-3.366-10.064-1.664-18.306 2.14-27.806 3.846-7.9 1.42-15.775 2.706-23.55 3.866-7.86 1.175-14.273 4.878-21.625 7.677-6.724 2.56-14.65 9.247-21.586 10.557M841.672 544.426c-3.318 1.178-7.373.326-10.895.58-5.578.395-10.822 1.353-16.45 1.34-9.405-.027-17.313 1.544-26.362 3.735-7.572 1.83-15.087 4-22.456 6.69-7.654 2.797-15.202 3.98-22.277 8.32-4.825 2.96-8.672 7.037-13.264 10.188-2.705 1.848-6.125 2.715-8.744 4.25-7.99 4.683-15.49 11.21-23.98 15.28M844.554 555.94c4.786-2.045 10.08-1.488 15.19-1.443 10.347.084 22.392 1.375 32.312 4.323"/></g><path d="M2048 0M2048 1536M0 1536M0 0" stroke="#17192D"/></g></svg>