<svg xmlns="http://www.w3.org/2000/svg" xmlns:xlink="http://www.w3.org/1999/xlink" width="2048" height="1536" viewBox="0 0 2048 1536"><defs><path id="a" d="M0 0h2048v1536H0z"/></defs><clipPath id="b"><use xlink:href="#a" overflow="visible"/></clipPath><path d="M1397.065 550.57c.976 2.313 3.85 4.627 5.135 7.314 1.155 2.41 1.284 4.846 2.17 7.328 1.664 4.658 3.793 9.4 7.603 12.63 8.953 7.583 15.996 16.783 21.66 27.03 2.436 4.41 3.758 9.545 6.257 13.76 1.16 1.95 2.646 3.64 3.8 5.633 1.12 1.933 1.41 4.074 2.376 5.916 2.8 5.325 7.4.127 9.303-3.312 2.2-3.98 3.233-8.964 3.236-13.573.006-7.296-3.89-13.8-6.337-20.533-1.227-3.37-3.563-6.12-4.58-9.57-.785-2.677-.785-6.627-1.398-8.713M1440.664 578.416c1.74-.706 2.938-3.338 4.22-4.78 1.233-1.385 2.654-3.04 3.94-3.937M1438.978 570.82c2.475-3.2 8.063-3.655 11.817-3.655M1451.884 568.146c2.387-.717 9.998 3.99 12.138 5.553 3.844 2.814 6.916 4.716 11.47 6.277 8.575 2.935 16.393 8.232 21.836 15.615 4.166 5.642 5.02 16.073 5.688 23.38.645 7.03-9.512 23.408 3.46 25.386 6.19.945 7.432-4.84 9.35-9.357 2.2-5.176 4.9-10.25 5.746-15.866.752-5.01-1.45-9.218-2.28-14.166-.902-5.405-.94-10.57-1.545-15.79-.78-6.787-5.755-13.062-9.77-18.14M1517.762 634.154c4.715-2.643 8.154-.93 10.77-6.586 1.637-3.55 3.563-6.526 5.26-9.922 2.528-5.072 1.793-8.237 1.227-13.624-.543-5.168-.305-10.53-1.12-15.706-.416-2.645-.553-5.497-1.39-8.195-.96-3.112-3.087-5.088-4.935-7.59-1.567-2.116-2.688-4.02-3.776-6.48-1.03-2.32-1.452-5.81-3.17-7.882M1486.154 491.448c6.713 2.34 12.49 6.62 18.82 9.656 5.326 2.552 10.902 5.87 15.005 10.4 7.1 7.84 22.906 21.513 25.046 31.84 1.12 5.394 3.59 9.627 4.91 14.853 1.23 4.874 2.268 10.078 2.793 14.987.52 4.83-.604 9.173-.18 13.78.482 5.23 1.8 9.514-1.242 14.296-1.126 1.763-2.516 3.3-3.894 4.855-1.248 1.414-2.378 4.108-3.907 5M1532.975 622.15c4.98-.146 6.938-4.697 9.11-8.663 2.862-5.224 1.747-9.753.862-15.38-1.548-9.873.656-18.605-3.365-27.993-2.402-5.6-5.596-10.565-7.966-16.36M1527.354 539.07c-.113-2.105-2.48-4.94-4.496-5.478M1515.7 549.116c-.484-2.303-2.21-4.887-4.727-5.125M1501.363 560.94c-2.194-3.116-6.497-6.4-10.708-6.02M1414.787 480.81c2.93-1.635 9.312.635 12.803.816 4.758.247 7.713-.56 11.91 1.975 3.388 2.053 8.184 2.743 12.047 3.487 4.585.884 9.522.97 14.178 1.62 5.48.767 11.508.312 16.324 2.665-.277.09-.538-.013-.8.06" clip-path="url(#b)" fill="none" stroke="#FF0050" stroke-width="3"/></svg>