<?xml version="1.0" encoding="iso-8859-1"?>
<!-- Generator: Adobe Illustrator 15.1.0, SVG Export Plug-In . SVG Version: 6.00 Build 0)  -->
<!DOCTYPE svg PUBLIC "-//W3C//DTD SVG 1.1//EN" "http://www.w3.org/Graphics/SVG/1.1/DTD/svg11.dtd">
<svg version="1.1" xmlns="http://www.w3.org/2000/svg" xmlns:xlink="http://www.w3.org/1999/xlink" x="0px" y="0px" width="2048px"
	 height="1536px" viewBox="0 0 2048 1536" style="enable-background:new 0 0 2048 1536;" xml:space="preserve">
<g id="a3b_x5F_hand_x5F_h">
	<g>
		<path style="fill:none;stroke:#FF0050;stroke-width:3;" d="M1341.948,1292.098c-1.128-1.401-3.267-2.022-4.705-3.24
			c-1.449-1.222-3.097-2.665-4.2-4.299c-2.379-3.52-4.004-8.396-5.674-12.318c-4.32-10.177-10.181-19.215-15.437-28.864
			c-1.977-3.637-5.389-9.945-9.038-12.027"/>
		<path style="fill:none;stroke:#FF0050;stroke-width:3;" d="M1346.609,1297.753c2.618,1.33,4.055,6.127,5.251,8.594
			c2.034,4.184,4.089,7.58,7.006,11.273c4.615,5.858,8.701,12.02,12.915,18.079c4.186,6.034,8.394,11.494,14.015,16.262
			c1.036,0.88,2.928,3.105,4.25,3.348c1.269,0.242,2.46-0.907,3.405-2.204c2.716-3.712,3.755-7.013,1.438-11.224
			c-0.827-1.5-1.867-2.498-3.072-3.762c-1.614-1.7-1.736-2.807-2.466-5.034c-1.164-3.539-3.16-6.714-5.573-9.696
			c-2.406-2.973-5.644-5.798-7.776-8.866c-1.31-1.882-0.339-3.686-0.644-5.959c-0.276-2.052-0.857-4.345-1.573-6.276
			c-0.912-2.495-2.239-5.367-3.734-7.476"/>
		<path style="fill:none;stroke:#FF0050;stroke-width:3;" d="M1349.991,1274.909c0.94,2.648,3.251,4.357,5.872,5.298"/>
		<path style="fill:none;stroke:#FF0050;stroke-width:3;" d="M1366.373,1252.139c1.253,3.262,5.272,3.718,8.051,4.795"/>
		<path style="fill:none;stroke:#FF0050;stroke-width:3;" d="M1381.486,1225.468c0.071,2.421,5.289,4.544,7.338,4.721"/>
		<path style="fill:none;stroke:#FF0050;stroke-width:3;" d="M1359.355,1170.608c5.002,0.47,10.136-1.48,13.264-5.104"/>
		<path style="fill:none;stroke:#FF0050;stroke-width:3;" d="M1296.644,1161.479c3.968-7.264,15.254-6.957,21.489-10.034
			c7.542-3.733,15.396-7.222,23.589-8.771c4.238-0.801,7.924-0.673,12.281-0.479c3.807,0.172,6.868-1.475,10.484-2.534
			c3.571-1.044,6.522-3.685,10.183-4.637c4.513-1.175,8.944-2.569,13.504-3.229c3.865-0.564,9.887-0.45,13.243-2.549
			c1.907-1.192,3.318-3.091,5.359-4.238c2.009-1.12,3.862-1.9,5.758-3.175c1.524-1.023,3.338-3.049,5.238-2.799
			c1.542,0.206,3.707,2.454,4.563,3.584c2.342,3.12,1.847,7.059,0,10.333c-2.22,3.961-5.179,6.976-8.324,10.31
			c-3.238,3.426-7.109,5.097-11.179,7.373c-3.464,1.941-6.547,3.946-10.133,5.765c-3.495,1.771-7.029,2.705-10.833,3.908
			c-2.749,0.871-6.721,1.636-9.065,3.326"/>
		<path style="fill:none;stroke:#FF0050;stroke-width:3;" d="M1370.913,1175.742c3.553,2.839,6.929,5.959,10.556,8.756
			c3.234,2.489,6.329,4.738,9.385,7.593c2.664,2.485,5.037,6.32,7.939,8.332c3.273,2.279,6.982,3.386,10.126,5.879
			c3.32,2.644,4.196,6.664,7.13,9.445c1.446,1.366,3.735,1.608,5.613,2.487c1.894,0.886,3.762,1.824,5.653,2.688
			c3.859,1.77,6.453,4.839,9.87,7.336c3.217,2.354,7.668,2.957,11.182,4.799c3.76,1.969,6.447,5.306,10.004,7.11
			c3.485,1.773,6.497,3.504,9.316,6.324c2.132,2.135,5.934,5.474,5.495,8.635c-0.529,3.807-4.557,6.057-8.149,6.071
			c-8.471,0.033-16.008-4.371-23.786-5.843c-3.751-0.71-7.598-2.286-10.957-4.08c-1.803-0.971-3.558-2.318-5.35-3.175
			c-1.786-0.843-3.663-1.009-5.503-1.888c-3.147-1.502-6.187-3.501-9.178-5.375c-2.644-1.656-6.513-4.446-8.326-6.78"/>
		<path style="fill:none;stroke:#FF0050;stroke-width:3;" d="M1367.12,1286.021c3.632,1.865,6.967,4.952,9.956,7.761
			c3.032,2.856,5.919,5.137,8.513,8.508c2.249,2.92,4.247,5.875,6.804,8.444c2.876,2.899,6.434,4.701,9.619,7.032
			c3.257,2.378,6.027,5.128,9.107,7.676c1.896,1.553,3.857,2.846,5.415,4.774c1.351,1.683,2.655,2.058,4.204,3.48
			c1.694,1.555,1.248,3.264,3.738,2.263c1.299-0.521,2.941-2.263,3.811-3.373c2.225-2.848,4.525-6.511,3.354-10.31
			c-1.188-3.886-5.271-7.76-8.448-9.99c-1.67-1.165-3.224-1.745-4.607-3.379c-1.69-1.996-3.048-4.128-4.87-6.043
			c-3.005-3.172-6.013-6.129-9.301-8.944c-1.519-1.292-3.302-2.396-4.676-3.57c-1.679-1.43-1.731-3.693-2.877-5.718
			c-1.256-2.223-2.874-4.51-4.439-6.553c-1.454-1.925-5.23-4.278-5.706-6.48"/>
		<path style="fill:none;stroke:#FF0050;stroke-width:3;" d="M1385.743,1259.687c2.508,3.547,7.786,5.791,11.555,7.549
			c3.799,1.766,6.467,5.257,9.39,8.003c2.983,2.795,6.665,4.924,10.227,6.853c3.578,1.942,6.382,4.651,9.393,7.478
			c5.734,5.389,13.568,7.445,20.515,10.768c1.579,0.762,3.11,1.926,4.57,1.105c1.695-0.965,1.718-3.368,2.19-4.941
			c1.249-4.191,2.322-6.948-0.061-10.935c-2.189-3.679-5.216-6.207-8.771-8.301c-3.295-1.946-5.905-4.248-9.262-6.333
			c-3.616-2.239-6.947-4.725-10.717-6.576c-1.725-0.847-3.526-1.641-5.197-2.52c-2.268-1.201-2.621-2.613-3.971-4.716
			c-1.938-3.008-4.495-5.839-7.08-8.18c-2.473-2.238-6.384-6.306-9.442-7.351"/>
	</g>
	<path style="fill:none;stroke:#17192D;stroke-width:3;" d="M2048,0"/>
	<path style="fill:none;stroke:#17192D;stroke-width:3;" d="M2048,1536"/>
	<path style="fill:none;stroke:#17192D;stroke-width:3;" d="M0,1536"/>
	<path style="fill:none;stroke:#17192D;stroke-width:3;" d="M0,0"/>
</g>
<g id="Layer_1">
</g>
</svg>
