<?xml version="1.0" encoding="iso-8859-1"?>
<!-- Generator: Adobe Illustrator 15.1.0, SVG Export Plug-In . SVG Version: 6.00 Build 0)  -->
<!DOCTYPE svg PUBLIC "-//W3C//DTD SVG 1.1//EN" "http://www.w3.org/Graphics/SVG/1.1/DTD/svg11.dtd">
<svg version="1.1" xmlns="http://www.w3.org/2000/svg" xmlns:xlink="http://www.w3.org/1999/xlink" x="0px" y="0px" width="2048px"
	 height="1536px" viewBox="0 0 2048 1536" style="enable-background:new 0 0 2048 1536;" xml:space="preserve">
<g id="a3b_x5F_kopf">
	<g>
		<path style="fill:none;stroke:#FF0050;stroke-width:3;" d="M739.282,730.92c2.826-1.889,12.487-1.181,16.495-1.649
			c7.067-0.948,14.375-0.24,21.68-0.709c16.26-0.94,31.81,6.833,45.009,15.55c12.724,8.014,26.156,21.916,32.518,35.82"/>
		<path style="fill:none;stroke:#FF0050;stroke-width:3;" d="M860.968,794.54c1.181,2.358,4.242,2.358,6.363,3.534
			c2.828,1.649,4.951,4.008,6.836,6.598c3.771,4.714,5.656,9.659,6.598,15.791c0.943,5.653-1.65,8.952-2.827,14.371
			c-1.182,4.481-2.358,14.848-9.189,14.611"/>
		<path style="fill:none;stroke:#FF0050;stroke-width:3;" d="M853.924,782.412c3.824,0.329,9.024,2.662,12.682,3.723
			c2.932,0.891,5.903,2.253,8.456,4.137c6.303,3.873,8.733,9.318,10.812,15.979c3.481,11.261,5.438,21.486,0.589,32.382
			c-2.114,4.943-5.709,9.325-6.841,14.643"/>
		<path style="fill:none;stroke:#FF0050;stroke-width:3;" d="M855.784,802.082c-1.178,2.121-0.292,6.526-1.885,8.72"/>
		<path style="fill:none;stroke:#FF0050;stroke-width:3;" d="M568.647,741.64c23.514-8.639,43.186-16.316,68.139-16.316
			c18.715,0,36.946,1.441,55.659,3.357c12.475,0.961,23.512,5.281,36.469,5.281l-11.721,12.7"/>
		<path style="fill:none;stroke:#FF0050;stroke-width:3;" d="M696.286,743.56c19.671,1.916,39.825,3.835,59.5,5.277l-5.543,15.801"
			/>
		<path style="fill:none;stroke:#FF0050;stroke-width:3;" d="M732.751,766.111c24.953-0.957,51.822-0.957,75.815,7.197
			l-5.842,15.302"/>
		<path style="fill:none;stroke:#FF0050;stroke-width:3;" d="M790.811,785.783c6.237,2.401,12.956,4.318,19.196,6.717
			c6.717,2.4,12.955,7.199,20.152,9.115l-5.101,14.594"/>
		<path style="fill:none;stroke:#FF0050;stroke-width:3;" d="M817.204,816.014c9.118,0.479,20.632,8.635,30.231,6.235"/>
		<path style="fill:none;stroke:#FF0050;stroke-width:3;" d="M852.558,876.357l6.633-9.303
			c-2.875,17.274-0.241,30.528-10.318,44.923c-7.2,10.078-15.837,18.713-22.55,28.791c-4.802,6.717-7.678,13.917-14.395,19.671
			c-5.279,4.319-11.517,7.678-16.316,13.437l14.396,3.84c-0.434,0.343-23.497,27.681-37.909,37.908
			c-9.597,6.716-20.154,11.994-29.75,18.713c-13.912,9.118-28.79,11.994-43.184,19.193l14.394-0.479
			c-4.319,5.277-22.553,7.676-29.748,8.636c-11.999,1.921-22.552,1.438-34.551,0.479c-35.026-2.879-69.573,3.362-103.163-10.075
			c-14.877-6.237-31.668-15.355-43.662-26.392c-13.438-12.476-31.194-23.032-35.991-41.746l-12.478,5.278
			c-2.395-7.676-3.359-16.314-5.755-23.99l5.276-3.359c-3.356-15.836,2.306-70.491-3.84-54.221
			c-0.852,2.253-11.996-3.84-11.996-3.84c-1.917,0.481-3.358-3.357-2.877-6.716l10.075-4.802
			c-1.918-16.313,2.879-37.424,8.638-53.262c8.156-20.632,20.153-38.865,36.468-53.736c15.834-14.876,35.028-33.591,55.181-41.266
			c13.435-5.756,25.91-12.956,38.867-19.671c1.439-0.484,2.399-0.962,3.84-1.441c0,0-1.034,13.387-3.213,12.658"/>
		<path style="fill:none;stroke:#FF0050;stroke-width:3;" d="M849.757,880.129c2.881-10.077,5.353-23.813,6.312-34.849
			l-12.848,5.069"/>
		<path style="fill:none;stroke:#FF0050;stroke-width:3;" d="M834.481,875.03"/>
		<path style="fill:none;stroke:#FF0050;stroke-width:3;" d="M803.288,865.916"/>
		<path style="fill:none;stroke:#FF0050;stroke-width:3;" d="M854.631,895.183"/>
		<path style="fill:none;stroke:#FF0050;stroke-width:3;" d="M829.012,867.819c11.278-10.565,20.548-29.586,18.149-45.243"/>
		<path style="fill:none;stroke:#FF0050;stroke-width:3;" d="M780.254,911.978"/>
		<path style="fill:none;stroke:#FF0050;stroke-width:3;" d="M831.598,858.237"/>
		<path style="fill:none;stroke:#FF0050;stroke-width:3;" d="M833.517,846.238"/>
		<path style="fill:none;stroke:#FF0050;stroke-width:3;" d="M853.669,874.07c-5.276,12.954-15.353,23.513-25.431,32.63"/>
		<path style="fill:none;stroke:#FF0050;stroke-width:3;" d="M842.845,809.107c-4.797-15.079-15.076-38.382-31.528-42.495"/>
		<path style="fill:none;stroke:#FF0050;stroke-width:3;" d="M862.724,896.158c0-12.34,5.484-30.846-3.428-41.813"/>
		<path style="fill:none;stroke:#FF0050;stroke-width:3;" d="M840.791,799.514c1.372-10.968-1.375-20.563-13.71-23.304"/>
		<path style="fill:none;stroke:#FF0050;stroke-width:3;" d="M865.464,887.766c5.483-10.219,6.168-16.185-1.369-26.401"/>
		<path style="fill:none;stroke:#FF0050;stroke-width:3;" d="M875.321,852.975c11.015,12.839,5.737,30.492,0.224,45.737
			c-10.1,28.087-30.527,36.112-55.317,52.964"/>
	</g>
	<path style="fill:none;stroke:#17192D;stroke-width:3;" d="M2048,0"/>
	<path style="fill:none;stroke:#17192D;stroke-width:3;" d="M2048,1536"/>
	<path style="fill:none;stroke:#17192D;stroke-width:3;" d="M0,1536"/>
	<path style="fill:none;stroke:#17192D;stroke-width:3;" d="M0,0"/>
</g>
<g id="Layer_1">
</g>
</svg>
