<svg xmlns="http://www.w3.org/2000/svg" width="2048" height="1536" viewBox="0 0 2048 1536"><g><g fill="#FF0050"><path d="M928.758 1436.865c5.514-.447 9.686 1.787 14.754 2.98 1.043.895 2.086.895 2.086.744.3.15 2.236.597 3.875 1.49l.447.15c2.236 1.19 2.385 1.042 4.023 1.19 2.684 1.79 6.11 2.088 8.348 3.727 4.472 3.28 11.03 6.408 15.054 11.178 2.832 3.576 5.664 5.516 8.197 9.092.15.895.745 1.79.15 2.832-1.192 0-.448 1.042-2.237-1.642l-.297-.596c-1.64.447-2.98 1.193-4.025 1.49-2.532 0-6.407 0-9.09.3-1.64-.448-4.32.595-5.81 0-7.452.446-17.14.743-25.34.147-1.935.894-4.618.298-6.407.147-7.75-.447-14.754-2.83-21.76-2.086-4.768-.147-10.434 1.343-15.5-.595-3.576.447-9.24-.447-12.072-.3-.147 0-.296.3-.446.448-7.303-.895-16.69.3-23.697-.447-.744-.297-1.34-1.34-.297-1.49 14.307-1.19 32.34-1.34 47.395-.148 3.428-.3 8.645.447 12.22-.148.15.148.3.297.448.447 5.514 0 9.986 1.043 15.648 1.64.597-.448 1.192-.15 1.64.147 8.348.447 20.12-.744 28.17-.148 4.47-2.086 9.24 1.19 13.562-1.043.447-.746.447 1.49 3.428-.596-.895-.3-1.787-1.79-1.342-1.79-1.19-2.384-4.62-2.087-6.26-6.856-.895.896-.596-.444-1.342-.444 0 0-.744-.447-1.043-.598-.148-.148-.744-.297-.744-1.49-1.49 0-1.79-.447-2.237-.148-1.49-.596-1.49-2.682-3.28-2.682-.743-.3-1.786-.598-2.233-1.193-1.79-.447-2.533-2.236-4.174-2.533-2.385-1.64-5.96-1.342-7.898-2.684-1.64 0-1.79-1.34-3.727-1.49-5.216-2.832-12.07-2.832-17.585-4.023-8.05 0-15.352-1.64-23.55 0-2.68 0-5.067 1.043-7.45 1.49-1.342.895-2.982.596-4.322 1.342-11.03 3.428-22.207 7.898-31.746 15.5-3.875 1.938-5.812 5.96-9.836 7.898-.894.596-.298-.744 0-1.19 2.98-4.026 7.005-8.35 11.18-11.478 4.022-2.98 9.388-5.217 13.86-7.898 4.023-1.79 8.346-2.983 11.773-4.474 4.322-.297 5.215-2.98 9.688-2.533.896-.148 1.64-.746 3.28-.596.744-.596 1.34-.3 2.385-.746 1.342 0 2.832 0 4.47-.446 5.96-.296 13.414-1.19 19.673.15zM974.213 1418.086c.447.148.746.3 1.045.596-1.342 3.428-5.365 1.49-8.496 2.385-2.684.447-5.217 0-7.898.15-7.303.148-14.605-.15-21.61 0-3.728 0-8.646.297-12.52-.15-2.534-.297-5.665 0-8.198.15-6.11.596-11.922 0-18.332.445-.297-.297-.596-.297-.893-.297-2.683 1.342-5.663.148-8.196.596-6.11.3-11.924.896-17.887.896-4.172-1.79-8.494.895-12.816-.148-.595-.15.896-1.79 1.343-1.79 6.557-4.47 14.158 1.79 21.46-.298 8.646-2.385 18.333-1.49 26.83-1.938 8.493-.447 16.542.3 25.187 0 2.383-.297 4.77-.297 7.303-.297.596 0 1.342.148 1.938.148 6.558-.148 13.116-.148 18.93-1.043 4.468 1.192 8.194.448 12.813.596zM974.96 1388.727c-1.49 3.28-5.067 3.576-7.603 5.365-3.428 1.79-7.152 3.576-11.03 4.023-1.04.598-2.532.746-3.724.895-9.986 1.79-19.674 5.812-30.105 6.11-7.154 1.49-15.053.745-22.805.597-6.408 0-14.605-1.79-21.014-4.62-3.132-.745-6.56-1.938-8.794-3.874-3.28-.895-5.812-3.28-8.645-5.068-.595-1.043-1.34-2.088-1.34-3.13 0-.15-.15-.298-.15-.298 2.98.744 5.813 2.98 8.794 4.77 2.385 1.34 3.727 3.13 6.26 3.727 4.322.893 7.75 3.875 12.223 3.576 8.195 2.086 17.137 1.938 26.975 1.342-1.49-3.428 1.043-4.77-.148-6.857.148-.895.297-1.49.596-2.086.447-.448.744-.896 1.34-.448l.746.746c-.3.893.3 1.49.744 1.938-.445 1.938 0 3.875-.297 6.26 7.303.744 12.22-1.342 18.184-1.64 2.533-1.192 6.408-1.49 9.537-2.386 2.832-.893 6.26-.893 8.943-2.533 2.236.3 4.77-.447 6.56-2.682 3.872.148 6.854-2.684 11.325-3.578v-.744c.744-.3 2.234-1.94 4.023-1.342-.148.743-.297 1.34-.596 1.937zM869.14 1314.355c5.07-.297 8.198 4.77 13.563 4.62 2.385 1.343 5.068.747 7.006 2.685 1.638.895 4.917.744 7.003.744 4.62 1.193 8.346 3.875 13.266 4.47 2.98 1.94 6.556 2.983 10.43 1.194 0-1.043.448-.746.448-.148 1.64-.447 4.322.596 7.154-1.045 4.62-.893 9.836-.893 14.01-2.533 3.576-1.49 7.75-1.043 11.178-2.533 1.64-.298 3.428-.448 4.62-1.343 4.472-.148 7.9-1.49 11.624-3.13 3.727-.745 7.9-2.98 11.625-1.64-.446.3-.597.746-.446 1.193-1.938 2.684-7.006 1.19-10.135 3.13-5.665 2.384-11.626 2.683-17.29 5.067-9.54.744-25.486 5.217-25.486 5.217l.15 2.086s5.365.596 8.94.148c4.474 1.193 9.837 1.045 14.905.596 2.83 1.193 6.556-1.043 9.835.15 2.98 0 6.56-1.49 9.54-.598 3.278.896 8.792-1.787 11.028.15 0 0 3.428 1.043.895 1.49-3.28.447-7.303 1.49-10.88 1.19-7.75-.743-16.544-1.19-23.847.15-2.384-.15-4.917-.298-7.153-1.042-2.832.148-5.96-.447-8.94.148-3.58-1.19-7.306.447-10.882-.895-8.346-1.938-16.99 1.79-25.037-.596-4.77.597-9.24-.894-14.012.3-4.172-.598-9.39-1.342-13.115-.15-5.214-.3-10.58-1.342-15.798-1.64-.297-.298-.596-.894-.744-1.192 0-.596-.3-1.043.447-1.19 1.342-.3 2.832 1.042 4.172.296 4.77 1.49 9.986.895 15.055 1.342 2.682-1.19 4.62 1.49 7.45 0 5.665.895 12.968-.744 18.78 1.043 3.28-.446 7.898.15 14.01-1.192-7.006-3.428-12.668-2.832-16.842-5.514-5.066-1.492-9.986-4.174-15.352-4.77-8.793-2.982-16.99-5.812-25.336-9.986-.3 0-.148-.148-.148-.3 1.34-.446 2.533-1.49 4.023-1.19 2.683 2.835 7.005 3.132 10.284 5.217zM982.71 1293.79c-.448.147-1.642 1.042-2.683 1.34-2.832.15-6.857.446-9.688.896-1.642-.598-4.77.596-6.41.148-7.9.746-15.8 1.19-24.74 1.043-1.64 1.043-4.622.3-6.41.3-8.345-.3-15.946-2.386-23.25-1.343-5.216 0-11.177 1.938-16.692 0-3.875.596-9.537-.148-12.668.148-.148.15-.447.3-.596.447-7.75-.745-16.395.894-23.848.298-.596-.148-1.34-1.193-.297-1.342 15.35-1.938 32.788-1.193 49.032-1.938 3.578-.148 8.943.148 12.816-.596l.45.447c5.81 0 11.177.743 16.69 1.19.447-.3 1.49-.148 1.79 0 8.94.3 19.374-1.342 27.868-1.043 4.92-2.385 10.135 1.043 14.607-1.79.596-.892 1.938-.446 2.682-1.19 1.792 1.193 1.643 2.386 1.344 2.982zM876.89 1250.27c1.642 0 4.026-.148 5.813-.3 4.324-2.683 11.03 0 16.098.597 3.13-1.787 8.347-.744 11.626-1.043 4.768-1.19 11.027.3 16.54.3 9.69 0 20.868-.3 30.556-.747 1.49-.148 2.98-1.043 4.322-.445.148.148.297-.15.447-.15-3.427 2.236-7.6 2.385-11.028 3.875-4.918 4.322-10.582 6.56-15.8 9.836-6.26 2.832-12.667 4.918-18.33 9.242-1.788.895-3.43 1.938-5.216 2.83l-4.322 2.088 4.918.297c11.625.746 22.504-2.086 34.428-.447 4.77 0 9.24-1.938 13.86-1.043 1.192-.148 2.683 0 3.726 0-.148.3 0 .895-.148 1.043-1.19 0-2.236.3-3.277 1.045-1.192.596-2.683.596-4.024.893-4.023.448-8.05-.147-12.072.747-10.88.3-21.46-1.043-32.043.148-4.917-.895-9.835 1.64-14.604.3-3.13.743-7.154-.896-9.54.894-7.153-.747-14.157-1.94-21.61-1.94-1.64-.595-4.172 0-4.918-1.788-.15-.148.895-1.64.895-.895 8.047-2.086 14.904 2.684 24.145 1.64 4.77-.597 9.688 0 14.754-1.49 1.49-2.087 3.727-1.94 5.367-3.278 2.98-.448 5.96-1.194 7.897-3.28 7.602-3.727 15.35-5.066 21.46-10.582 1.79-.744 3.577-1.64 5.515-3.28 0-.446 4.322-2.384 4.322-2.83-.148-.298-4.62.745-4.62.15-5.81 0-11.177-1.044-15.798.595-8.346-2.086-16.99-2.236-25.934-.3-6.408-.743-12.965-1.638-19.225-.446-5.217-2.234-11.03 2.385-15.8-1.787-.446-1.342-2.83-.895-2.68-2.535 5.064-.898 9.386 1.936 14.304 2.085zM925.18 1209.73c5.812.447 11.775 1.79 18.033 2.535 7.602.893 15.5 1.787 22.654 5.365 3.727 3.725 8.346 5.662 11.328 10.582.445 2.682 2.385 2.234 1.49 5.514.148.447-.3 0-.3-.596-3.427.148-1.788-.746-4.32-4.174-3.876 1.193-6.708-.596-9.54.596-11.922-.744-22.207 0-33.832 1.193-2.83 1.342-6.408 1.342-9.688.895-2.086-.746-4.322.744-6.855.297-7.75-.447-16.395-.447-23.994.596-5.664-.297-11.178 0-16.992.598-2.234-.446-4.768-1.192-7.898-.298-.895 2.088-1.938 1.64-1.19 3.428-.3.3-.597.746-1.044 1.043-.447-.148-.896 0-1.342-.445.596-4.324 3.428-6.707 6.11-9.986 5.216-4.77 11.923-7.004 17.587-11.625 3.727-2.385 7.6-2.684 11.625-4.322 5.066-.746 10.73-.447 15.648-1.49 4.174 1.042 8.198.743 12.52.295zm-23.547 3.727c-5.814-.3-9.838 2.385-15.352 4.023-.298.3-1.64 1.64-2.384 2.088-4.174 2.98-9.092 4.322-13.562 10.283 5.365-.446 8.047 1.49 10.582.448 3.725.447 7.004-1.49 10.73-1.64 5.365 1.64 11.178.298 16.69 1.044 5.07.596 10.583-.596 15.8-.895 9.24-3.578 19.97-1.043 29.51-2.088 4.62 0 9.984-.745 17.29.15-2.833-5.962-7.9-7.005-11.33-8.944-8.792-2.383-17.585-3.875-26.677-4.77-1.79-.297-4.024.447-5.663-.596-8.198.45-18.034-2.382-25.634.897zM974.96 1181.713c-1.49 3.277-5.067 3.576-7.603 5.365-3.428 1.79-7.152 3.576-11.03 4.023-1.04.6-2.532.747-3.724.896-9.986 1.79-19.674 5.812-30.105 6.11-7.154 1.49-15.053.745-22.805.597-6.408 0-14.605-1.79-21.014-4.62-3.132-.745-6.56-1.94-8.794-3.876-3.28-.895-5.812-3.277-8.645-5.066-.595-1.042-1.34-2.085-1.34-3.13 0-.148-.15-.297-.15-.297 2.98.744 5.813 2.98 8.794 4.77 2.385 1.34 3.727 3.13 6.26 3.725 4.322.895 7.75 3.875 12.223 3.578 8.195 2.086 17.137 1.938 26.975 1.34-1.49-3.426 1.043-4.768-.148-6.854.148-.895.297-1.492.596-2.088.447-.447.744-.895 1.34-.447l.746.746c-.3.895.3 1.49.744 1.938-.445 1.94 0 3.876-.297 6.26 7.303.745 12.22-1.34 18.184-1.64 2.533-1.19 6.408-1.49 9.537-2.385 2.832-.895 6.26-.895 8.943-2.533 2.236.3 4.77-.447 6.56-2.684 3.872.15 6.854-2.682 11.325-3.576v-.746c.744-.297 2.234-1.936 4.023-1.34-.148.744-.297 1.34-.596 1.937zM959.907 1148.48c-5.365 3.874-12.22 3.276-17.14 7.45-1.938.598-4.024 1.64-5.663 2.684-4.62-.15-9.39 2.832-15.65 5.662 4.025 1.64 7.006 1.193 9.092.598 8.793 0 16.545-1.492 25.783-.15 2.534 0 5.663-.744 7.9.3 4.32.147 9.388-1.044 13.114 1.042.148.148.148.148.297.3-3.128.894-7.15.595-10.282.446-2.682-.746-5.514.297-8.494.297-5.812.15-11.924-1.94-17.14.595-4.77.598-9.24-1.64-13.86 0-4.174 1.342-8.348-.744-12.22 1.193-7.157-1.193-16.396.148-24.146-1.193-8.795 0-17.736.598-26.38-.893-4.77-.148-6.708-1.045-11.18-1.938-.147 0 .745-1.043.745-1.342 4.77-2.832 6.41-3.727 11.477-5.664 7.004-2.832 14.457-2.236 21.463-4.174 9.836.15 19.523 1.49 26.676 10.88 13.116-7.9 27.126-8.792 39.794-15.647 5.662-1.79 10.88-4.62 16.543-6.408.895 0 2.385-.6 3.428-.3-4.62 2.68-9.39 4.768-14.158 6.26zm-83.91 9.834c-1.938.596-4.322-.148-6.11 1.043-2.384-.297-4.62 1.043-6.558 1.79l-3.577 2.532c1.342.15 6.557.595 8.05.894 1.935 1.938 5.362 1.043 7.747 1.64 11.03-1.49 23.4.298 36.664-.298-1.936-2.385-3.875-2.98-4.918-4.025-2.086-2.085-7.898-4.32-11.773-5.96-6.708.894-13.862-.596-19.526 2.384zM858.858 1054.285c8.793.445 17.14 3.576 25.783 6.258 5.964.895 12.52 1.342 17.886 3.727 6.11.596 11.328 1.938 17.586 2.236 3.28.148 6.707-.598 9.242 1.19 7.004 1.49 14.01 2.833 20.566 5.218 6.857 3.576 15.5 2.533 22.207 7.303l-.447-.596c-11.03 2.98-21.908 5.962-33.236 7.304-7.154-1.79-13.86 1.49-21.164.895-12.666 2.384-25.037 2.83-37.557 4.17-2.98-1.19-6.408.3-9.537.896-1.79.3-4.174.15-5.664-.895.447-2.98 4.918-.892 6.705-1.638 8.795.895 16.992-3.13 25.486-2.385 4.322-.148 8.197-.148 12.818-.895.597-.746 1.192-.746 1.64-.895 8.94-.744 18.928-1.342 27.424-1.938 6.26-2.534 12.967-3.577 19.97-4.323l.15-2.086c-12.966-4.32-26.38-7.75-40.09-9.388-6.856.297-12.67-1.342-18.78-2.236-9.24-4.322-20.865-2.234-29.658-7.303-5.664 0-11.328-3.13-16.693-3.875-.15 0 .447-.744 1.043-1.193 1.49-.147 2.832 1.194 4.322.45zM978.834 998.246c3.727.447 6.26-.447 7.154 1.342 0 .148-.148.445-.148.596-5.516 3.13-12.67 1.79-19.078 3.576-11.328 1.64-22.953 2.535-33.385 5.217-2.385 3.28-5.068 7.75-3.428 12.072.147.147-.448 0-1.044 1.042 1.043 1.49-.598 2.086-.598 3.28-.596 2.83-.297 6.407-1.49 11.325 8.645 1.94 16.842 1.79 23.996 3.727 5.217 1.49 12.52-.895 17.734 1.79 1.94 0 4.324-.3 5.664 1.34.3.745-1.043.745-1.64.745-6.11-1.044-10.73-.597-16.542-1.343-6.855-2.98-17.29-.447-24.742-3.428-2.682 0-6.854.745-8.94-.745-7.005-1.64-15.35.447-21.91-2.684-12.22.448-22.354-4.618-34.874-4.618-.596-.598-.596-1.64-1.938-1.79-3.578-1.192-8.197 1.044-10.432-1.937.893-1.64 3.277-.895 5.066-2.236 15.053-3.278 28.914-9.837 44.264-12.67 4.322-2.085 9.688-2.68 14.457-4.618 1.642-.15 3.28-.447 4.77.148 2.98-.895 6.26-1.938 9.538-1.938 7.006-.148 13.266-3.428 20.568-2.832 2.236-1.342 5.664-.297 8.05-1.043 4.618-.447 9.388-1.64 13.71-2.832.895-.447 1.342-.744 1.492-1.043 1.34-.596 1.488-.596 2.53-.447.003.15 1.196-.298 1.196 0zm-56.335 12.072c-7.454 3.28-16.1 3.28-23.85 5.516-9.09 2.53-17.585 7.6-27.868 9.537 0 2.534 1.043 3.43 2.832 3.58 4.172 1.49 8.047 3.128 12.816 3.724 8.793 1.193 19.076.447 27.424 2.533 2.234 0 5.514 0 8.494.895 1.49-1.787 1.64-3.576 2.98-4.47 0-1.788.447-3.132.598-4.472.297-2.236.297-4.322.744-5.963.746-2.832 1.193-3.873 1.49-6.258 4.026-7.006-2.98-4.473-5.66-4.622zM966.614 964.71c-.447 3.132.148 5.813 1.19 8.35-.147.743-.743 1.49-1.19 1.638-1.938 2.832 1.787 7.898-3.13 9.39-1.64.446-3.43-.298-4.77.894-5.216 1.938-6.856.447-11.923.895-4.472.3-9.835-1.938-14.16 0-2.384 0-4.32-.895-6.407-1.19-5.664 2.085-12.072-1.044-18.033.446-4.322.297-7.75-1.49-12.072.445-.895.15-1.64.15-2.385.447-8.793 0-17.885-.893-26.53.15-4.32 0-8.493-.15-12.368-2.236-.746-.597.148-1.49.893-1.788 1.045 0 2.535-.3 4.174 1.04 3.13-1.34 5.96.15 8.645-.444 2.236.596 4.77.744 7.154.148 5.067-2.98 10.433.447 15.65.297 5.067-.148 10.134-2.086 15.35-1.488 5.366.744 11.626 1.19 17.14.596 1.79-.595 3.875.298 5.516-.298 1.64.3 3.875.15 5.365 1.19 2.087-.296 4.62-.743 6.708-1.34 1.19.597 2.98.448 4.023.745 5.665.447 6.856 1.193 12.073-.596 3.428 1.192 2.086-2.384 5.068-3.13 1.937-.744.894-1.64.894-2.682-.447-2.385 1.938-4.174.895-6.26-.747-1.938-.15-4.47-1.64-6.56-.148-.595-.148-1.34.596-1.34 1.936-.446 2.235 1.492 3.278 2.683zM928.758 917.615c5.514-.447 9.686 1.79 14.754 2.98 1.043.895 2.086.895 2.086.746.3.15 2.236.597 3.875 1.49l.447.15c2.236 1.19 2.385 1.042 4.023 1.19 2.684 1.79 6.11 2.088 8.348 3.727 4.472 3.28 11.03 6.41 15.054 11.18 2.832 3.576 5.664 5.514 8.197 9.092.15.892.745 1.786.15 2.83-1.192 0-.448 1.042-2.237-1.64l-.297-.596c-1.64.445-2.98 1.19-4.025 1.49-2.532 0-6.407 0-9.09.297-1.64-.446-4.32.6-5.81 0-7.452.448-17.14.747-25.34.15-1.935.894-4.618.298-6.407.15-7.75-.448-14.754-2.833-21.76-2.087-4.768-.15-10.434 1.34-15.5-.596-3.576.445-9.24-.45-12.072-.3-.147 0-.296.3-.446.446-7.303-.893-16.69.3-23.697-.445-.744-.3-1.34-1.342-.297-1.49 14.307-1.193 32.34-1.342 47.395-.15 3.428-.297 8.645.447 12.22-.148.15.148.3.3.448.447 5.514 0 9.986 1.043 15.648 1.64.597-.448 1.192-.15 1.64.147 8.348.45 20.12-.744 28.17-.146 4.47-2.088 9.24 1.19 13.562-1.045.447-.744.447 1.49 3.428-.596-.895-.3-1.787-1.79-1.342-1.79-1.19-2.384-4.62-2.085-6.26-6.854-.895.895-.596-.447-1.342-.447 0 0-.744-.447-1.043-.596-.148-.148-.744-.3-.744-1.49-1.49 0-1.79-.447-2.237-.15-1.49-.596-1.49-2.682-3.28-2.682-.743-.3-1.786-.596-2.233-1.19-1.79-.45-2.533-2.237-4.174-2.536-2.385-1.64-5.96-1.342-7.898-2.682-1.64 0-1.79-1.342-3.727-1.49-5.216-2.832-12.07-2.832-17.585-4.025-8.05 0-15.352-1.64-23.55 0-2.68 0-5.067 1.043-7.45 1.49-1.342.895-2.982.596-4.322 1.342-11.03 3.428-22.207 7.9-31.746 15.5-3.875 1.938-5.812 5.963-9.836 7.898-.894.598-.298-.744 0-1.19 2.98-4.024 7.005-8.347 11.18-11.476 4.022-2.983 9.388-5.218 13.86-7.9 4.023-1.79 8.346-2.98 11.773-4.472 4.322-.3 5.215-2.98 9.688-2.535.896-.148 1.64-.744 3.28-.596.744-.596 1.34-.3 2.385-.744 1.342 0 2.832 0 4.47-.447 5.96-.298 13.414-1.193 19.673.15zM959.907 885.572c-5.365 3.875-12.22 3.28-17.14 7.45-1.938.6-4.024 1.642-5.663 2.685-4.62-.148-9.39 2.832-15.65 5.664 4.025 1.64 7.006 1.192 9.092.597 8.793 0 16.545-1.49 25.783-.148 2.534 0 5.663-.747 7.9.296 4.32.15 9.388-1.043 13.114 1.043.148.15.148.15.297.298-3.128.895-7.15.596-10.282.447-2.682-.746-5.514.297-8.494.297-5.812.15-11.924-1.936-17.14.598-4.77.596-9.24-1.64-13.86 0-4.174 1.342-8.348-.746-12.22 1.19-7.157-1.19-16.396.15-24.146-1.19-8.795 0-17.736.596-26.38-.895-4.77-.148-6.708-1.043-11.18-1.938-.147 0 .745-1.043.745-1.342 4.77-2.832 6.41-3.725 11.477-5.664 7.004-2.83 14.457-2.233 21.463-4.17 9.836.147 19.523 1.49 26.676 10.88 13.116-7.9 27.126-8.795 39.794-15.65 5.662-1.79 10.88-4.62 16.543-6.408.895 0 2.385-.598 3.428-.3-4.62 2.684-9.39 4.77-14.158 6.26zm-83.91 9.836c-1.938.598-4.322-.148-6.11 1.045-2.384-.3-4.62 1.043-6.558 1.787l-3.577 2.535c1.342.148 6.557.596 8.05.895 1.935 1.936 5.362 1.04 7.747 1.64 11.03-1.49 23.4.296 36.664-.3-1.936-2.385-3.875-2.98-4.918-4.023-2.086-2.086-7.898-4.322-11.773-5.963-6.708.894-13.862-.596-19.526 2.384zM978.834 825.21c3.727.448 6.26-.446 7.154 1.343 0 .148-.148.447-.148.596-5.516 3.128-12.67 1.788-19.078 3.575-11.328 1.64-22.953 2.535-33.385 5.217-2.385 3.28-5.068 7.75-3.428 12.072.147.148-.448 0-1.044 1.045 1.043 1.487-.598 2.085-.598 3.276-.596 2.832-.297 6.41-1.49 11.328 8.645 1.938 16.842 1.787 23.996 3.725 5.217 1.49 12.52-.896 17.734 1.788 1.94 0 4.324-.3 5.664 1.342.3.744-1.043.744-1.64.744-6.11-1.043-10.73-.596-16.542-1.34-6.855-2.982-17.29-.45-24.742-3.43-2.682 0-6.854.746-8.94-.744-7.005-1.64-15.35.447-21.91-2.684-12.22.447-22.354-4.62-34.874-4.62-.596-.597-.596-1.638-1.938-1.788-3.578-1.19-8.197 1.043-10.432-1.938.893-1.64 3.277-.895 5.066-2.236 15.053-3.277 28.914-9.836 44.264-12.666 4.322-2.088 9.688-2.684 14.457-4.62 1.642-.15 3.28-.448 4.77.147 2.98-.895 6.26-1.938 9.538-1.938 7.006-.148 13.266-3.428 20.568-2.832 2.236-1.342 5.664-.3 8.05-1.043 4.618-.447 9.388-1.64 13.71-2.832.895-.447 1.342-.744 1.492-1.043 1.34-.596 1.488-.596 2.53-.447.003.15 1.196-.298 1.196 0zM922.5 837.284c-7.454 3.28-16.1 3.28-23.85 5.516-9.09 2.532-17.585 7.6-27.868 9.536 0 2.533 1.043 3.428 2.832 3.578 4.172 1.49 8.047 3.13 12.816 3.725 8.793 1.192 19.076.446 27.424 2.532 2.234 0 5.514 0 8.494.895 1.49-1.787 1.64-3.576 2.98-4.47 0-1.788.447-3.13.598-4.472.297-2.236.297-4.322.744-5.963.746-2.83 1.193-3.873 1.49-6.258 4.026-7.006-2.98-4.472-5.66-4.62zM925.18 787.354c5.812.447 11.775 1.79 18.033 2.535 7.602.892 15.5 1.786 22.654 5.364 3.727 3.725 8.346 5.662 11.328 10.58.445 2.684 2.385 2.236 1.49 5.516.148.447-.3 0-.3-.598-3.427.15-1.788-.744-4.32-4.172-3.876 1.19-6.708-.596-9.54.596-11.922-.744-22.207 0-33.832 1.193-2.83 1.34-6.408 1.34-9.688.894-2.086-.746-4.322.744-6.855.297-7.75-.444-16.395-.444-23.994.597-5.664-.297-11.178 0-16.992.596-2.234-.445-4.768-1.19-7.898-.297-.895 2.088-1.938 1.64-1.19 3.428-.3.3-.597.746-1.044 1.043-.447-.148-.896 0-1.342-.447.596-4.322 3.428-6.707 6.11-9.984 5.216-4.77 11.923-7.006 17.587-11.625 3.727-2.384 7.6-2.683 11.625-4.32 5.066-.747 10.73-.448 15.648-1.49 4.174 1.04 8.198.74 12.52.294zm-23.547 3.726c-5.814-.3-9.838 2.385-15.352 4.023-.298.3-1.64 1.64-2.384 2.088-4.174 2.98-9.092 4.323-13.562 10.284 5.365-.447 8.047 1.49 10.582.447 3.725.448 7.004-1.49 10.73-1.64 5.365 1.64 11.178.3 16.69 1.043 5.07.598 10.583-.596 15.8-.893 9.24-3.578 19.97-1.043 29.51-2.088 4.62 0 9.984-.744 17.29.15-2.833-5.96-7.9-7.006-11.33-8.943-8.792-2.386-17.585-3.876-26.677-4.77-1.79-.298-4.024.446-5.663-.597-8.198.45-18.034-2.382-25.634.897zM968.7 740.26c1.193.595 2.385 0 3.727.297 1.043 0 1.787.298 2.684.895.15.745-.745 1.34-1.192 2.086-1.043 1.34-2.236-.746-2.533-.746-.3-.596-1.79.746-3.28-1.49-2.98.894-5.663.894-7.75.298-4.173.447-8.792-.746-12.817.894-1.64.15-2.533 2.087-3.277 2.98-.15 0-.745 1.79-2.087 2.386-1.938 1.79-4.77 4.62-5.662 5.366-.745.745 0-.894-1.34.596-.747.596-.448.894-1.49 2.534-1.343 1.64-4.026 4.47-4.622 5.215-.895 1.79-1.787 3.876-2.832 6.262 3.13 2.086 6.26 1.49 8.346 2.83 2.684.15 5.963.747 8.795 1.493 1.64-1.342 2.832.297 4.023.297 1.64.893 4.174.744 6.11 1.64 3.726.597 7.005 2.83 11.18 2.087 1.49.296 3.276.892 4.767 1.34-.148.298-.297.595-.596.595-2.532.447-4.77-.893-7.003-.744-.596-.446-1.043-.595-1.64-.446-1.192-.148-2.384-.447-3.427-.447-2.387-.744-4.025.596-7.9-1.938 0 2.235.3.894.3.894-2.237-.596-5.368-1.49-8.35-1.342-1.786-1.19-4.022-.746-5.81-1.19-4.173-.448-7.005-2.087-11.03-1.79 0 0-.148-.148-.297-.148-1.19-.746-2.533-.3-3.28-1.043-9.09-2.533-18.33-5.067-27.423-7.6-2.086-1.044-3.873-1.49-6.11-2.385-2.98-1.043-5.81-2.83-8.94-4.024-3.13-1.19-6.11-3.13-9.69-4.172-.894-.447-2.384.297-2.384-1.192 0-.447-.445-1.49-.148-1.64 1.043-1.638 4.023-1.638 5.514-2.384 3.578-.298 8.645-1.043 12.967-1.938 1.64-1.938 4.173-.447 6.11-1.192 7.303.298 14.904-3.428 23.25-2.385 10.582-1.64 22.355-2.533 32.342-1.64 7.597.594 15.198-.15 22.798.892zm-45.158 2.532c-1.94-.745-4.918 1.043-7.898.447-3.578-.598-7.453.595-11.03 1.192-3.427-.597-6.11 1.49-9.538 1.19-2.236.3-5.96.3-8.943.896-4.918.895-9.39 2.235-15.053 2.683 2.236 2.535 6.26 4.323 6.857 4.472 3.13 1.043 5.662 2.832 8.494 3.726 4.323 1.49 8.048 2.98 12.073 4.172 2.832.745 6.557 1.64 9.092 2.087 2.832-.148 6.855 2.385 10.73 2.98 2.234.3 1.19 1.342 4.322.447 1.19-2.83 2.98-4.77 4.023-7.303 1.342-1.787 2.088-1.937 4.023-4.023 1.342-1.34 2.684-3.427 4.174-5.365 1.342-1.49 3.13-3.13 4.023-4.173 0-.3 1.79-2.237 1.79-3.43-2.087-.446-4.472-.446-5.813-.595-4.023-.594-7.154 0-11.325.597zM955.883 709.854c5.812 1.49 9.984 6.41 15.797 8.197.895 1.64 2.832 2.535 3.727 4.175-1.342.447-2.832-.894-4.023-1.49-1.043-1.044-2.088-1.64-3.578-1.79-3.28-2.385-7.75-3.427-11.178-6.11-2.533-.895-6.26-1.193-9.092-2.534-5.066-.297-10.135-.297-15.053.597-4.77.894-9.39 2.832-13.115 6.11-4.918 2.385-10.582 4.173-15.947 5.366-8.345 4.174-18.927 3.726-27.57.3-5.067 0-7.9-4.324-12.52-4.92-1.343-1.042-2.534-2.085-4.173-2.682-.895-.745-.447-1.937-1.193-2.98 0-.298-.596.15-.297.298 2.086.15 4.32 1.043 6.11 1.937 7.897 6.11 18.48 6.41 28.02 8.496 6.706-.298 12.22-3.428 18.63-4.918 4.023-2.533 9.09-3.428 13.115-5.96 2.98-.3 5.365-3.727 8.494-2.982 6.707-2.385 14.605-2.385 21.016 0 .892.447 1.786.746 2.83.894zM949.325 633.845c-.3-.15 1.342-.448 1.938-.298h1.19c.896.298 2.09.746 2.98.597 2.09.895 4.175.446 5.964 1.34 3.576 1.64 8.346 3.13 12.22 6.41 2.386 2.534 5.515 3.577 7.9 5.812.446 1.34 1.044 1.938.745 3.13-2.385.15-3.576-3.28-5.812-4.173-1.64-1.49-4.023-1.938-5.365-3.875-.3-.15-.895-.745-1.19-.894-.3-.15-.45-.447-.45-.447-.148 0-.744-.3-.744-.448-1.34-1.342-1.786-1.492-1.786-.895-1.045-.3-1.79-1.043-2.834-.895-.447-.15-.893-.447-1.19-.894-1.788.298-2.237-.597-3.132-.746-1.64-.894-4.172 0-5.96-.596-.896.15-1.64-.746-2.683-.597-3.578-1.043-5.068-.15-8.943.15-4.918 1.788-5.066 1.34-8.197 2.533-2.385.895-3.727 1.192-5.96 2.236-2.237 1.043-3.132 2.235-5.366 3.28-2.09.893-3.43.595-5.368 1.34-2.234.894-3.576 1.938-5.662 2.832-2.086 1.043-3.727 1.49-6.11 2.533-2.235 1.343-3.43 2.685-6.11 3.43-.746 0-1.79.148-2.533.148-.746-.15-1.64.15-2.088.15-.448.147-1.192-.15-1.64-.3-2.684.895-4.174-.893-7.006-.595-2.682-.746-5.365-1.044-8.494-2.087-2.98-1.64-6.855-2.384-10.135-4.62-3.428-1.79-6.855-4.47-9.39-7.75-.298-.448-1.49-1.64-.446-1.49 2.68 1.19 5.065 3.874 7.897 4.917 7.6 4.77 15.5 7.6 23.398 8.346.895.446 1.938 0 2.982.446 1.49 0 3.576.447 5.215.15 5.365.596 4.174-1.79 6.408-2.684 2.387-.895 3.877-.746 5.963-1.79 1.49-.893 2.236-1.937 4.023-2.682 1.49-.895 2.533-1.64 4.47-1.937 4.474-.448 4.622-1.34 6.856-3.28 1.045-.596 1.64-1.34 2.832-1.788 1.045-.894 1.938-.447 3.28-.894 1.788-.446 2.683-1.043 4.47-1.64 1.64-.595 3.428-1.34 4.322-1.34 3.13-1.34 4.918-.447 7.9-.746.893.005 1.787.6 1.64.6zM911.917 610.894c2.832 2.234 6.11 4.322 8.643 7.6 11.18-.894 21.463 1.342 31.3 1.044 4.32-.15 7.302-2.832 11.327-2.534.148 1.193 1.043 2.385 2.533 2.832.3.298.3-.894-.148-.746-.15.15-1.045.298-1.193.298-5.366 3.577-13.415 1.043-19.972 1.937-2.385.596-5.812 1.64-7.75 0-8.943-1.64-19.674.746-28.467-1.19-6.407-.3-13.263 1.49-19.374.148-9.24-.746-18.48.297-27.87-1.044-3.13 1.192-5.663 0-8.942-.15-.895-.596-2.684 0-3.13-1.043.597-.745.298-1.938 1.192-2.534 3.428-2.832 8.05-3.577 11.475-5.664 3.43-.597 6.41-1.342 9.392-2.982.297-.447.596-.894.895-1.044 3.875-.297 7.75-2.98 11.922-1.34 9.536 1.043 19.97 1.49 28.167 6.41zm-38.454-3.13c-3.13 2.234-7.154 3.13-10.432 4.022-1.192 1.938-4.77 1.34-6.558 3.13 1.79 2.832 4.322 1.49 6.11 1.79 9.09 1.788 18.48.447 27.87 1.042 3.727 1.49 7.006-.15 10.732.15 4.174.298 8.346-1.64 12.22.298l1.343-1.64c-1.79-2.683-4.322-4.62-7.602-5.514-2.832 0-5.514-1.49-8.346-2.683-5.07-1.343-10.138-1.044-15.5-1.343-3.278-.148-5.962 1.79-9.837.746zM974.213 585.707c.447.15.746.3 1.045.597-1.342 3.427-5.365 1.49-8.496 2.384-2.684.448-5.217 0-7.898.15-7.303.15-14.605-.15-21.61 0-3.728 0-8.646.298-12.52-.15-2.534-.298-5.665 0-8.198.15-6.11.595-11.922 0-18.332.447-.297-.298-.596-.298-.893-.298-2.683 1.34-5.663.15-8.196.596-6.11.298-11.924.895-17.887.895-4.172-1.79-8.494.894-12.816-.15-.595-.15.896-1.788 1.343-1.788 6.557-4.472 14.158 1.79 21.46-.298 8.646-2.384 18.333-1.49 26.83-1.937 8.493-.447 16.542.297 25.187 0 2.383-.298 4.77-.298 7.303-.298.596 0 1.342.15 1.938.15 6.558-.15 13.116-.15 18.93-1.044 4.468 1.19 8.194.445 12.813.594zM974.96 556.348c-1.49 3.28-5.067 3.577-7.603 5.365-3.428 1.79-7.152 3.577-11.03 4.025-1.04.596-2.532.745-3.724.893-9.986 1.79-19.674 5.814-30.105 6.112-7.154 1.49-15.053.746-22.805.596-6.408 0-14.605-1.788-21.014-4.62-3.132-.745-6.56-1.938-8.794-3.875-3.28-.895-5.812-3.28-8.645-5.067-.595-1.044-1.34-2.087-1.34-3.13 0-.15-.15-.298-.15-.298 2.98.745 5.813 2.98 8.794 4.77 2.385 1.34 3.727 3.13 6.26 3.726 4.322.895 7.75 3.875 12.223 3.577 8.195 2.087 17.137 1.94 26.975 1.342-1.49-3.427 1.043-4.77-.148-6.855.148-.895.297-1.49.596-2.087.447-.447.744-.894 1.34-.447.3.298.447.447.746.746-.3.893.3 1.49.744 1.936-.445 1.938 0 3.875-.297 6.26 7.303.745 12.22-1.34 18.184-1.64 2.533-1.192 6.408-1.49 9.537-2.385 2.832-.893 6.26-.893 8.943-2.532 2.236.297 4.77-.448 6.56-2.684 3.872.15 6.854-2.683 11.325-3.577v-.745c.744-.297 2.234-1.937 4.023-1.34-.148.743-.297 1.34-.596 1.936zM966.614 521.026c-.447 3.13.148 5.812 1.19 8.346-.147.746-.743 1.49-1.19 1.64-1.938 2.832 1.787 7.9-3.13 9.39-1.64.446-3.43-.3-4.77.894-5.216 1.937-6.856.447-11.923.894-4.472.298-9.835-1.938-14.16 0-2.384 0-4.32-.894-6.407-1.192-5.664 2.086-12.072-1.043-18.033.447-4.322.298-7.75-1.49-12.072.447-.895.15-1.64.15-2.385.447-8.793 0-17.885-.895-26.53.148-4.32 0-8.493-.15-12.368-2.236-.746-.596.148-1.49.893-1.788 1.045 0 2.535-.298 4.174 1.043 3.13-1.342 5.96.15 8.645-.448 2.236.596 4.77.745 7.154.15 5.067-2.982 10.433.446 15.65.297 5.067-.15 10.134-2.087 15.35-1.49 5.366.744 11.626 1.192 17.14.595 1.79-.596 3.875.298 5.516-.297 1.64.297 3.875.15 5.365 1.192 2.087-.298 4.62-.746 6.708-1.342 1.19.596 2.98.447 4.023.745 5.665.447 6.856 1.192 12.073-.596 3.428 1.192 2.086-2.385 5.068-3.13 1.937-.746.894-1.64.894-2.683-.447-2.384 1.938-4.173.895-6.26-.747-1.936-.15-4.47-1.64-6.557-.148-.596-.148-1.34.596-1.34 1.936-.446 2.235 1.49 3.278 2.683zM872.72 494.647c2.233.298 3.724 2.533 6.26 2.533 4.767 2.385 9.24 3.578 15.052 3.875.895.447 2.385.596 3.428.894 3.277.297 6.26 1.79 9.39 1.79 1.937.595 4.62-.45 6.407 1.936 2.387-.597 4.174-1.192 5.664-1.937.597-1.194 2.237-2.685 2.087-4.325 1.043-1.638.15-2.98.895-5.067.895-2.832.895-4.472 2.385-7.45.746-.598 1.49-1.194 2.385-1.045.598 1.49 0 3.28 0 5.067-1.938 3.875-1.64 5.962-2.98 11.03 1.19.745.746 1.34 1.19 1.64 3.728.595 7.75.15 10.882-.597 1.938.298 3.576-.447 6.557-.447.6-1.788 1.94-.447 2.833-.895 5.365-.445 10.137-3.427 15.65-3.724 2.385-2.087 6.408-1.79 8.793-3.578 2.832.3 4.322-3.428 7.898-2.533 1.79-1.34 3.428-2.98 5.664-2.98.596.446 1.193.893 1.79 1.49-.3 2.235-2.833 2.384-4.474 3.577-2.533.298-4.918.895-6.707 2.534-3.277-.15-5.217 2.682-8.346 2.533-1.19.745-2.384.894-3.278 1.49-1.19-.15-2.234.298-3.13.745-6.854 0-12.22 4.47-19.077 4.023-.893.597-2.533.597-3.426.746-7.306 2.533-15.8 2.086-23.253 1.937-3.428-.893-7.6 0-10.58-1.49-9.24-1.64-18.184-5.364-26.977-7.75-4.174-1.638-8.05-4.172-11.924-6.258-4.322-2.385-9.39-4.024-12.52-8.346 0-.298 0-.746.3-.894 6.706 4.32 13.71 8.195 21.163 11.475zM876.89 442.93c1.642 0 4.026-.148 5.813-.296 4.324-2.684 11.03 0 16.098.596 3.13-1.79 8.347-.745 11.626-1.043 4.768-1.192 11.027.298 16.54.298 9.69 0 20.868-.298 30.556-.745 1.49-.15 2.98-1.043 4.322-.448.148.15.297-.148.447-.148-3.427 2.235-7.6 2.383-11.028 3.874-4.918 4.322-10.582 6.558-15.8 9.837-6.26 2.832-12.667 4.918-18.33 9.24-1.788.894-3.43 1.938-5.216 2.832l-4.322 2.087 4.918.297c11.625.747 22.504-2.085 34.428-.446 4.77 0 9.24-1.938 13.86-1.043 1.192-.148 2.683 0 3.726 0-.148.3 0 .896-.148 1.044-1.19 0-2.236.298-3.277 1.043-1.192.596-2.683.596-4.024.894-4.023.448-8.05-.148-12.072.746-10.88.3-21.46-1.042-32.043.15-4.917-.895-9.835 1.64-14.604.298-3.13.745-7.154-.895-9.54.893-7.153-.745-14.157-1.937-21.61-1.937-1.64-.596-4.172 0-4.918-1.79-.15-.147.895-1.638.895-.893 8.047-2.087 14.904 2.683 24.145 1.64 4.77-.597 9.688 0 14.754-1.49 1.49-2.087 3.727-1.938 5.367-3.28 2.98-.447 5.96-1.19 7.897-3.278 7.602-3.727 15.35-5.068 21.46-10.582 1.79-.746 3.577-1.64 5.515-3.28 0-.446 4.322-2.384 4.322-2.83-.148-.3-4.62.744-4.62.147-5.81 0-11.177-1.043-15.798.597-8.346-2.086-16.99-2.236-25.934-.298-6.408-.746-12.965-1.64-19.225-.447-5.217-2.236-11.03 2.385-15.8-1.79-.446-1.34-2.83-.893-2.68-2.532 5.064-.895 9.386 1.937 14.304 2.086zM969.594 427.58c.148.15.3 0 .3.15-2.685.596-5.368-.447-7.753.596-1.638 1.043-3.724 1.938-5.81.895-.15-1.042-.597-2.234-.298-3.576.297-.596.746.148 1.19-.298 4.474-1.342 8.646.15 12.372 2.235z"/></g><path d="M2048 0M2048 1536M0 1536M0 0" fill="none" stroke="#17192D" stroke-width="3"/></g></svg>