<?xml version="1.0" encoding="iso-8859-1"?>
<!-- Generator: Adobe Illustrator 15.1.0, SVG Export Plug-In . SVG Version: 6.00 Build 0)  -->
<!DOCTYPE svg PUBLIC "-//W3C//DTD SVG 1.1//EN" "http://www.w3.org/Graphics/SVG/1.1/DTD/svg11.dtd">
<svg version="1.1" xmlns="http://www.w3.org/2000/svg" xmlns:xlink="http://www.w3.org/1999/xlink" x="0px" y="0px" width="2048px"
	 height="1536px" viewBox="0 0 2048 1536" style="enable-background:new 0 0 2048 1536;" xml:space="preserve">
<g id="aheadb_x5F_1">
	<g>
		<path style="fill:#FF0050;" d="M928.758,1436.865c5.514-0.447,9.686,1.787,14.754,2.98c1.043,0.895,2.086,0.895,2.086,0.744
			c0.299,0.15,2.236,0.598,3.875,1.49l0.447,0.15c2.236,1.191,2.385,1.043,4.023,1.191c2.684,1.789,6.111,2.088,8.348,3.727
			c4.471,3.279,11.029,6.408,15.053,11.178c2.832,3.576,5.664,5.516,8.197,9.092c0.148,0.895,0.744,1.789,0.148,2.832
			c-1.191,0-0.447,1.043-2.236-1.641l-0.297-0.596c-1.639,0.447-2.98,1.193-4.025,1.49c-2.533,0-6.408,0-9.09,0.299
			c-1.641-0.447-4.322,0.596-5.812,0c-7.451,0.447-17.139,0.744-25.338,0.148c-1.936,0.895-4.619,0.299-6.408,0.148
			c-7.75-0.447-14.754-2.83-21.76-2.086c-4.768-0.148-10.434,1.342-15.5-0.596c-3.576,0.447-9.24-0.447-12.072-0.299
			c-0.148,0-0.297,0.299-0.447,0.447c-7.303-0.895-16.691,0.299-23.697-0.447c-0.744-0.297-1.34-1.34-0.297-1.49
			c14.307-1.191,32.34-1.34,47.395-0.148c3.428-0.299,8.645,0.447,12.221-0.148c0.148,0.148,0.299,0.297,0.447,0.447
			c5.514,0,9.986,1.043,15.648,1.639c0.596-0.447,1.191-0.148,1.639,0.148c8.348,0.447,20.121-0.744,28.17-0.148
			c4.471-2.086,9.24,1.191,13.562-1.043c0.447-0.746,0.447,1.49,3.428-0.596c-0.895-0.299-1.787-1.789-1.342-1.789
			c-1.191-2.385-4.619-2.088-6.26-6.857c-0.895,0.895-0.596-0.445-1.342-0.445c0,0-0.744-0.447-1.043-0.598
			c-0.148-0.148-0.744-0.297-0.744-1.49c-1.49,0-1.789-0.447-2.236-0.148c-1.49-0.596-1.49-2.682-3.279-2.682
			c-0.744-0.299-1.787-0.598-2.234-1.193c-1.789-0.447-2.533-2.236-4.174-2.533c-2.385-1.641-5.961-1.342-7.898-2.684
			c-1.641,0-1.789-1.34-3.727-1.49c-5.217-2.832-12.072-2.832-17.586-4.023c-8.049,0-15.352-1.641-23.549,0
			c-2.682,0-5.068,1.043-7.451,1.49c-1.342,0.895-2.982,0.596-4.322,1.342c-11.029,3.428-22.207,7.898-31.746,15.5
			c-3.875,1.938-5.812,5.961-9.836,7.898c-0.895,0.596-0.299-0.744,0-1.191c2.98-4.025,7.004-8.348,11.178-11.477
			c4.023-2.98,9.389-5.217,13.861-7.898c4.023-1.789,8.346-2.982,11.773-4.473c4.322-0.297,5.215-2.98,9.688-2.533
			c0.895-0.148,1.639-0.746,3.279-0.596c0.744-0.596,1.34-0.299,2.385-0.746c1.342,0,2.832,0,4.471-0.447
			C915.045,1436.418,922.499,1435.523,928.758,1436.865z"/>
		<path style="fill:#FF0050;" d="M974.213,1418.086c0.447,0.148,0.746,0.299,1.045,0.596c-1.342,3.428-5.365,1.49-8.496,2.385
			c-2.684,0.447-5.217,0-7.898,0.15c-7.303,0.148-14.605-0.15-21.611,0c-3.727,0-8.645,0.297-12.52-0.15
			c-2.533-0.297-5.664,0-8.197,0.15c-6.109,0.596-11.922,0-18.332,0.445c-0.297-0.297-0.596-0.297-0.893-0.297
			c-2.684,1.342-5.664,0.148-8.197,0.596c-6.111,0.299-11.924,0.895-17.887,0.895c-4.172-1.789-8.494,0.895-12.816-0.148
			c-0.596-0.15,0.895-1.789,1.342-1.789c6.557-4.471,14.158,1.789,21.461-0.299c8.645-2.385,18.332-1.49,26.828-1.938
			c8.494-0.447,16.543,0.299,25.188,0c2.383-0.297,4.77-0.297,7.303-0.297c0.596,0,1.342,0.148,1.938,0.148
			c6.557-0.148,13.115-0.148,18.928-1.043C965.868,1418.682,969.594,1417.938,974.213,1418.086z"/>
		<path style="fill:#FF0050;" d="M974.959,1388.727c-1.49,3.279-5.066,3.576-7.602,5.365c-3.428,1.789-7.152,3.576-11.029,4.023
			c-1.041,0.598-2.533,0.746-3.725,0.895c-9.986,1.789-19.674,5.812-30.105,6.111c-7.154,1.49-15.053,0.744-22.805,0.596
			c-6.408,0-14.605-1.789-21.014-4.619c-3.131-0.746-6.559-1.939-8.793-3.875c-3.279-0.895-5.812-3.279-8.645-5.068
			c-0.596-1.043-1.342-2.088-1.342-3.131c0-0.148-0.148-0.297-0.148-0.297c2.98,0.744,5.812,2.98,8.793,4.77
			c2.385,1.34,3.727,3.129,6.26,3.727c4.322,0.893,7.75,3.875,12.223,3.576c8.195,2.086,17.137,1.938,26.975,1.342
			c-1.49-3.428,1.043-4.77-0.148-6.857c0.148-0.895,0.297-1.49,0.596-2.086c0.447-0.447,0.744-0.895,1.34-0.447
			c0.299,0.299,0.447,0.447,0.746,0.746c-0.299,0.893,0.299,1.49,0.744,1.938c-0.445,1.938,0,3.875-0.297,6.26
			c7.303,0.744,12.221-1.342,18.184-1.641c2.533-1.191,6.408-1.49,9.537-2.385c2.832-0.893,6.26-0.893,8.943-2.533
			c2.236,0.299,4.77-0.447,6.559-2.682c3.873,0.148,6.855-2.684,11.326-3.578c0-1.191,0-0.744,0-0.744
			c0.744-0.299,2.234-1.939,4.023-1.342C975.407,1387.533,975.258,1388.131,974.959,1388.727z"/>
		<path style="fill:#FF0050;" d="M869.141,1314.355c5.068-0.297,8.197,4.77,13.562,4.621c2.385,1.342,5.068,0.746,7.006,2.684
			c1.639,0.895,4.918,0.744,7.004,0.744c4.621,1.193,8.346,3.875,13.266,4.471c2.98,1.939,6.557,2.982,10.432,1.193
			c0-1.043,0.447-0.746,0.447-0.148c1.641-0.447,4.322,0.596,7.154-1.045c4.619-0.893,9.836-0.893,14.01-2.533
			c3.576-1.49,7.75-1.043,11.178-2.533c1.639-0.297,3.428-0.447,4.621-1.342c4.471-0.148,7.898-1.49,11.623-3.129
			c3.727-0.746,7.9-2.982,11.625-1.641c-0.445,0.299-0.596,0.746-0.445,1.193c-1.938,2.684-7.006,1.191-10.135,3.129
			c-5.664,2.385-11.625,2.684-17.289,5.068c-9.539,0.744-25.486,5.217-25.486,5.217l0.15,2.086c0,0,5.365,0.596,8.941,0.148
			c4.473,1.193,9.836,1.045,14.904,0.596c2.832,1.193,6.557-1.043,9.836,0.15c2.98,0,6.559-1.49,9.539-0.598
			c3.279,0.896,8.793-1.787,11.029,0.15c0,0,3.428,1.043,0.895,1.49c-3.279,0.447-7.303,1.49-10.881,1.191
			c-7.75-0.744-16.543-1.191-23.846,0.15c-2.385-0.15-4.918-0.299-7.154-1.043c-2.832,0.148-5.961-0.447-8.941,0.148
			c-3.578-1.191-7.305,0.447-10.881-0.895c-8.346-1.938-16.99,1.789-25.037-0.596c-4.77,0.596-9.24-0.895-14.012,0.299
			c-4.172-0.598-9.389-1.342-13.115-0.15c-5.215-0.299-10.582-1.342-15.799-1.639c-0.297-0.299-0.596-0.895-0.744-1.193
			c0-0.596-0.299-1.043,0.447-1.191c1.342-0.299,2.832,1.043,4.172,0.297c4.77,1.49,9.986,0.895,15.055,1.342
			c2.682-1.191,4.619,1.49,7.451,0c5.664,0.895,12.967-0.744,18.779,1.043c3.279-0.445,7.898,0.15,14.01-1.191
			c-7.006-3.428-12.668-2.832-16.842-5.514c-5.066-1.492-9.986-4.174-15.352-4.77c-8.793-2.982-16.99-5.812-25.336-9.986
			c-0.299,0-0.148-0.148-0.148-0.299c1.34-0.447,2.533-1.49,4.023-1.191C861.54,1311.973,865.862,1312.27,869.141,1314.355z"/>
		<path style="fill:#FF0050;" d="M982.709,1293.789c-0.447,0.148-1.641,1.043-2.682,1.342c-2.832,0.148-6.857,0.445-9.688,0.895
			c-1.641-0.598-4.77,0.596-6.41,0.148c-7.898,0.746-15.799,1.191-24.74,1.043c-1.639,1.043-4.621,0.299-6.408,0.299
			c-8.346-0.299-15.947-2.385-23.25-1.342c-5.217,0-11.178,1.938-16.693,0c-3.875,0.596-9.537-0.148-12.668,0.148
			c-0.148,0.15-0.447,0.299-0.596,0.447c-7.75-0.744-16.395,0.895-23.848,0.299c-0.596-0.148-1.34-1.193-0.297-1.342
			c15.352-1.938,32.789-1.193,49.033-1.938c3.578-0.148,8.943,0.148,12.816-0.596c0.15,0.148,0.299,0.297,0.449,0.447
			c5.812,0,11.178,0.744,16.691,1.191c0.447-0.299,1.49-0.148,1.789,0c8.941,0.299,19.375-1.342,27.869-1.043
			c4.92-2.385,10.135,1.043,14.607-1.789c0.596-0.893,1.938-0.447,2.682-1.191C983.157,1292,983.008,1293.193,982.709,1293.789z"/>
		<path style="fill:#FF0050;" d="M876.891,1250.27c1.641,0,4.025-0.148,5.812-0.299c4.324-2.684,11.029,0,16.098,0.596
			c3.129-1.787,8.346-0.744,11.625-1.043c4.768-1.191,11.027,0.299,16.541,0.299c9.689,0,20.867-0.299,30.555-0.746
			c1.49-0.148,2.98-1.043,4.322-0.445c0.148,0.148,0.297-0.15,0.447-0.15c-3.428,2.236-7.602,2.385-11.029,3.875
			c-4.918,4.322-10.582,6.559-15.799,9.836c-6.26,2.832-12.668,4.918-18.332,9.242c-1.787,0.895-3.428,1.938-5.215,2.83
			l-4.322,2.088l4.918,0.297c11.625,0.746,22.504-2.086,34.428-0.447c4.77,0,9.24-1.938,13.861-1.043c1.191-0.148,2.682,0,3.725,0
			c-0.148,0.299,0,0.895-0.148,1.043c-1.191,0-2.236,0.299-3.277,1.045c-1.193,0.596-2.684,0.596-4.025,0.893
			c-4.023,0.447-8.049-0.148-12.072,0.746c-10.881,0.299-21.461-1.043-32.043,0.148c-4.918-0.895-9.836,1.639-14.605,0.299
			c-3.131,0.744-7.154-0.895-9.539,0.895c-7.154-0.746-14.158-1.938-21.611-1.938c-1.639-0.596-4.172,0-4.918-1.789
			c-0.15-0.148,0.895-1.639,0.895-0.895c8.047-2.086,14.904,2.684,24.145,1.641c4.77-0.598,9.688,0,14.754-1.492
			c1.49-2.086,3.727-1.938,5.367-3.277c2.98-0.447,5.961-1.193,7.898-3.279c7.602-3.727,15.35-5.066,21.461-10.582
			c1.789-0.744,3.576-1.639,5.514-3.279c0-0.447,4.322-2.385,4.322-2.832c-0.148-0.297-4.619,0.746-4.619,0.15
			c-5.812,0-11.178-1.043-15.799,0.596c-8.346-2.086-16.99-2.236-25.934-0.299c-6.408-0.744-12.965-1.639-19.225-0.447
			c-5.217-2.234-11.029,2.385-15.799-1.787c-0.447-1.342-2.832-0.895-2.682-2.535
			C867.651,1247.287,871.973,1250.121,876.891,1250.27z"/>
		<path style="fill:#FF0050;" d="M925.18,1209.73c5.812,0.447,11.775,1.789,18.033,2.535c7.602,0.893,15.5,1.787,22.654,5.365
			c3.727,3.725,8.346,5.662,11.328,10.582c0.445,2.682,2.385,2.234,1.49,5.514c0.148,0.447-0.299,0-0.299-0.596
			c-3.428,0.148-1.789-0.746-4.322-4.174c-3.875,1.193-6.707-0.596-9.539,0.596c-11.922-0.744-22.207,0-33.832,1.193
			c-2.83,1.342-6.408,1.342-9.688,0.895c-2.086-0.746-4.322,0.744-6.855,0.297c-7.75-0.447-16.395-0.447-23.994,0.596
			c-5.664-0.297-11.178,0-16.992,0.598c-2.234-0.447-4.768-1.193-7.898-0.299c-0.895,2.088-1.938,1.641-1.191,3.428
			c-0.299,0.299-0.596,0.746-1.043,1.043c-0.447-0.148-0.896,0-1.342-0.445c0.596-4.324,3.428-6.707,6.111-9.986
			c5.215-4.77,11.922-7.004,17.586-11.625c3.727-2.385,7.6-2.684,11.625-4.322c5.066-0.746,10.73-0.447,15.648-1.49
			C916.834,1210.477,920.858,1210.178,925.18,1209.73z M901.633,1213.457c-5.814-0.299-9.838,2.385-15.352,4.023
			c-0.299,0.299-1.641,1.641-2.385,2.088c-4.174,2.98-9.092,4.322-13.562,10.283c5.365-0.447,8.047,1.49,10.582,0.447
			c3.725,0.447,7.004-1.49,10.73-1.641c5.365,1.641,11.178,0.299,16.691,1.045c5.068,0.596,10.582-0.596,15.799-0.895
			c9.24-3.578,19.971-1.043,29.51-2.088c4.619,0,9.984-0.744,17.289,0.15c-2.832-5.961-7.9-7.004-11.328-8.943
			c-8.793-2.383-17.586-3.875-26.678-4.77c-1.789-0.297-4.023,0.447-5.662-0.596C919.069,1213.01,909.233,1210.178,901.633,1213.457
			z"/>
		<path style="fill:#FF0050;" d="M974.959,1181.713c-1.49,3.277-5.066,3.576-7.602,5.365c-3.428,1.789-7.152,3.576-11.029,4.023
			c-1.041,0.598-2.533,0.746-3.725,0.895c-9.986,1.789-19.674,5.812-30.105,6.111c-7.154,1.49-15.053,0.744-22.805,0.596
			c-6.408,0-14.605-1.789-21.014-4.621c-3.131-0.744-6.559-1.938-8.793-3.875c-3.279-0.895-5.812-3.277-8.645-5.066
			c-0.596-1.043-1.342-2.086-1.342-3.131c0-0.148-0.148-0.297-0.148-0.297c2.98,0.744,5.812,2.98,8.793,4.77
			c2.385,1.34,3.727,3.129,6.26,3.725c4.322,0.895,7.75,3.875,12.223,3.578c8.195,2.086,17.137,1.938,26.975,1.34
			c-1.49-3.426,1.043-4.768-0.148-6.854c0.148-0.895,0.297-1.492,0.596-2.088c0.447-0.447,0.744-0.895,1.34-0.447
			c0.299,0.299,0.447,0.447,0.746,0.746c-0.299,0.895,0.299,1.49,0.744,1.938c-0.445,1.938,0,3.875-0.297,6.26
			c7.303,0.744,12.221-1.342,18.184-1.641c2.533-1.191,6.408-1.49,9.537-2.385c2.832-0.895,6.26-0.895,8.943-2.533
			c2.236,0.299,4.77-0.447,6.559-2.684c3.873,0.15,6.855-2.682,11.326-3.576c0-1.191,0-0.746,0-0.746
			c0.744-0.297,2.234-1.936,4.023-1.34C975.407,1180.52,975.258,1181.115,974.959,1181.713z"/>
		<path style="fill:#FF0050;" d="M959.907,1148.479c-5.365,3.875-12.221,3.277-17.139,7.451c-1.939,0.598-4.025,1.641-5.664,2.684
			c-4.621-0.15-9.391,2.832-15.65,5.662c4.025,1.641,7.006,1.193,9.092,0.598c8.793,0,16.545-1.492,25.783-0.15
			c2.535,0,5.664-0.744,7.9,0.299c4.32,0.148,9.389-1.043,13.115,1.043c0.148,0.148,0.148,0.148,0.297,0.299
			c-3.129,0.895-7.152,0.596-10.283,0.447c-2.682-0.746-5.514,0.297-8.494,0.297c-5.812,0.15-11.924-1.938-17.141,0.596
			c-4.768,0.598-9.24-1.639-13.859,0c-4.174,1.342-8.348-0.744-12.221,1.193c-7.156-1.193-16.395,0.148-24.145-1.193
			c-8.795,0-17.736,0.598-26.381-0.893c-4.77-0.148-6.707-1.045-11.178-1.938c-0.148,0,0.744-1.043,0.744-1.342
			c4.77-2.832,6.41-3.727,11.477-5.664c7.004-2.832,14.457-2.236,21.463-4.174c9.836,0.15,19.523,1.49,26.676,10.881
			c13.117-7.9,27.127-8.793,39.795-15.648c5.662-1.789,10.879-4.621,16.543-6.408c0.895,0,2.385-0.598,3.428-0.299
			C969.444,1144.9,964.676,1146.988,959.907,1148.479z M875.997,1158.314c-1.938,0.596-4.322-0.148-6.109,1.043
			c-2.385-0.297-4.621,1.043-6.559,1.789l-3.576,2.533c1.342,0.15,6.557,0.596,8.049,0.895c1.936,1.938,5.363,1.043,7.748,1.639
			c11.029-1.49,23.4,0.299,36.664-0.297c-1.936-2.385-3.875-2.98-4.918-4.025c-2.086-2.086-7.898-4.32-11.773-5.961
			C888.815,1156.824,881.661,1155.334,875.997,1158.314z"/>
		<path style="fill:#FF0050;" d="M858.858,1054.285c8.793,0.445,17.139,3.576,25.783,6.258c5.963,0.895,12.52,1.342,17.885,3.727
			c6.111,0.596,11.328,1.938,17.586,2.236c3.279,0.148,6.707-0.598,9.242,1.191c7.004,1.49,14.01,2.832,20.566,5.217
			c6.857,3.576,15.5,2.533,22.207,7.303l-0.447-0.596c-11.029,2.98-21.908,5.961-33.236,7.303
			c-7.154-1.789-13.859,1.49-21.164,0.895c-12.666,2.385-25.037,2.83-37.557,4.172c-2.98-1.191-6.408,0.299-9.537,0.895
			c-1.789,0.299-4.174,0.15-5.664-0.895c0.447-2.98,4.918-0.893,6.705-1.639c8.795,0.895,16.992-3.129,25.486-2.385
			c4.322-0.148,8.197-0.148,12.818-0.895c0.596-0.746,1.191-0.746,1.639-0.895c8.941-0.744,18.928-1.342,27.424-1.938
			c6.26-2.533,12.967-3.576,19.971-4.322l0.148-2.086c-12.965-4.322-26.379-7.75-40.09-9.389
			c-6.855,0.297-12.668-1.342-18.779-2.236c-9.24-4.322-20.865-2.234-29.658-7.303c-5.664,0-11.328-3.129-16.693-3.875
			c-0.15,0,0.447-0.744,1.043-1.193C856.026,1053.688,857.368,1055.029,858.858,1054.285z"/>
		<path style="fill:#FF0050;" d="M978.834,998.246c3.727,0.447,6.26-0.447,7.154,1.342c0,0.148-0.148,0.445-0.148,0.596
			c-5.516,3.131-12.67,1.789-19.078,3.576c-11.328,1.641-22.953,2.535-33.385,5.217c-2.385,3.279-5.068,7.75-3.428,12.072
			c0.148,0.148-0.447,0-1.043,1.043c1.043,1.49-0.598,2.086-0.598,3.279c-0.596,2.832-0.297,6.408-1.49,11.326
			c8.645,1.939,16.842,1.789,23.996,3.727c5.217,1.49,12.52-0.895,17.734,1.789c1.939,0,4.324-0.299,5.664,1.342
			c0.299,0.744-1.043,0.744-1.639,0.744c-6.111-1.043-10.73-0.596-16.543-1.342c-6.855-2.98-17.289-0.447-24.742-3.428
			c-2.682,0-6.854,0.746-8.941-0.744c-7.004-1.641-15.35,0.447-21.908-2.684c-12.221,0.447-22.355-4.619-34.875-4.619
			c-0.596-0.598-0.596-1.639-1.938-1.789c-3.578-1.193-8.197,1.043-10.432-1.938c0.893-1.639,3.277-0.895,5.066-2.236
			c15.053-3.277,28.914-9.836,44.264-12.668c4.322-2.086,9.688-2.682,14.457-4.619c1.641-0.15,3.279-0.447,4.77,0.148
			c2.98-0.895,6.26-1.938,9.537-1.938c7.006-0.148,13.266-3.428,20.568-2.832c2.236-1.342,5.664-0.297,8.049-1.043
			c4.619-0.447,9.389-1.639,13.711-2.832c0.895-0.447,1.342-0.744,1.492-1.043c1.34-0.596,1.488-0.596,2.531-0.447
			C977.641,998.395,978.834,997.947,978.834,998.246z M922.499,1010.318c-7.453,3.279-16.098,3.279-23.848,5.516
			c-9.092,2.531-17.586,7.6-27.869,9.537c0,2.533,1.043,3.428,2.832,3.578c4.172,1.49,8.047,3.129,12.816,3.725
			c8.793,1.193,19.076,0.447,27.424,2.533c2.234,0,5.514,0,8.494,0.895c1.49-1.787,1.639-3.576,2.98-4.471
			c0-1.787,0.447-3.131,0.598-4.471c0.297-2.236,0.297-4.322,0.744-5.963c0.746-2.832,1.193-3.873,1.49-6.258
			C932.186,1007.934,925.18,1010.467,922.499,1010.318z"/>
		<path style="fill:#FF0050;" d="M966.614,964.711c-0.447,3.131,0.148,5.812,1.191,8.348c-0.148,0.744-0.744,1.49-1.191,1.639
			c-1.938,2.832,1.787,7.898-3.131,9.389c-1.639,0.447-3.428-0.297-4.77,0.895c-5.215,1.938-6.855,0.447-11.922,0.895
			c-4.473,0.299-9.836-1.938-14.16,0c-2.385,0-4.322-0.895-6.408-1.191c-5.664,2.086-12.072-1.043-18.033,0.447
			c-4.322,0.297-7.75-1.49-12.072,0.445c-0.895,0.15-1.641,0.15-2.385,0.447c-8.793,0-17.885-0.893-26.529,0.15
			c-4.322,0-8.494-0.15-12.369-2.236c-0.746-0.596,0.148-1.49,0.893-1.787c1.045,0,2.535-0.299,4.174,1.041
			c3.131-1.34,5.961,0.15,8.645-0.445c2.236,0.596,4.77,0.744,7.154,0.148c5.066-2.98,10.432,0.447,15.648,0.297
			c5.068-0.148,10.135-2.086,15.352-1.488c5.365,0.744,11.625,1.191,17.139,0.596c1.789-0.596,3.875,0.297,5.516-0.299
			c1.639,0.299,3.875,0.15,5.365,1.191c2.086-0.297,4.619-0.744,6.707-1.34c1.191,0.596,2.98,0.447,4.023,0.744
			c5.664,0.447,6.855,1.193,12.072-0.596c3.428,1.191,2.086-2.385,5.068-3.131c1.936-0.744,0.893-1.639,0.893-2.682
			c-0.447-2.385,1.938-4.174,0.895-6.26c-0.746-1.938-0.148-4.471-1.639-6.559c-0.148-0.596-0.148-1.34,0.596-1.34
			C965.272,961.582,965.571,963.52,966.614,964.711z"/>
		<path style="fill:#FF0050;" d="M928.758,917.615c5.514-0.447,9.686,1.789,14.754,2.98c1.043,0.895,2.086,0.895,2.086,0.746
			c0.299,0.148,2.236,0.596,3.875,1.49l0.447,0.148c2.236,1.191,2.385,1.043,4.023,1.191c2.684,1.789,6.111,2.088,8.348,3.727
			c4.471,3.279,11.029,6.41,15.053,11.18c2.832,3.576,5.664,5.514,8.197,9.092c0.148,0.893,0.744,1.787,0.148,2.83
			c-1.191,0-0.447,1.043-2.236-1.639l-0.297-0.596c-1.639,0.445-2.98,1.191-4.025,1.49c-2.533,0-6.408,0-9.09,0.297
			c-1.641-0.447-4.322,0.598-5.812,0c-7.451,0.447-17.139,0.746-25.338,0.148c-1.936,0.895-4.619,0.299-6.408,0.15
			c-7.75-0.447-14.754-2.832-21.76-2.086c-4.768-0.15-10.434,1.34-15.5-0.596c-3.576,0.445-9.24-0.449-12.072-0.299
			c-0.148,0-0.297,0.299-0.447,0.445c-7.303-0.893-16.691,0.299-23.697-0.445c-0.744-0.299-1.34-1.342-0.297-1.49
			c14.307-1.193,32.34-1.342,47.395-0.15c3.428-0.297,8.645,0.447,12.221-0.148c0.148,0.148,0.299,0.299,0.447,0.447
			c5.514,0,9.986,1.043,15.648,1.641c0.596-0.449,1.191-0.15,1.639,0.146c8.348,0.449,20.121-0.744,28.17-0.146
			c4.471-2.088,9.24,1.191,13.562-1.045c0.447-0.744,0.447,1.49,3.428-0.596c-0.895-0.299-1.787-1.789-1.342-1.789
			c-1.191-2.385-4.619-2.086-6.26-6.855c-0.895,0.895-0.596-0.447-1.342-0.447c0,0-0.744-0.447-1.043-0.596
			c-0.148-0.148-0.744-0.299-0.744-1.49c-1.49,0-1.789-0.447-2.236-0.15c-1.49-0.596-1.49-2.682-3.279-2.682
			c-0.744-0.299-1.787-0.596-2.234-1.191c-1.789-0.449-2.533-2.236-4.174-2.535c-2.385-1.639-5.961-1.342-7.898-2.682
			c-1.641,0-1.789-1.342-3.727-1.49c-5.217-2.832-12.072-2.832-17.586-4.025c-8.049,0-15.352-1.639-23.549,0
			c-2.682,0-5.068,1.043-7.451,1.49c-1.342,0.895-2.982,0.596-4.322,1.342c-11.029,3.428-22.207,7.9-31.746,15.5
			c-3.875,1.938-5.812,5.963-9.836,7.898c-0.895,0.598-0.299-0.744,0-1.191c2.98-4.023,7.004-8.346,11.178-11.475
			c4.023-2.982,9.389-5.217,13.861-7.9c4.023-1.789,8.346-2.98,11.773-4.471c4.322-0.299,5.215-2.98,9.688-2.535
			c0.895-0.148,1.639-0.744,3.279-0.596c0.744-0.596,1.34-0.299,2.385-0.744c1.342,0,2.832,0,4.471-0.447
			C915.045,917.168,922.499,916.273,928.758,917.615z"/>
		<path style="fill:#FF0050;" d="M959.907,885.572c-5.365,3.875-12.221,3.279-17.139,7.451c-1.939,0.598-4.025,1.641-5.664,2.684
			c-4.621-0.148-9.391,2.832-15.65,5.664c4.025,1.639,7.006,1.191,9.092,0.596c8.793,0,16.545-1.49,25.783-0.148
			c2.535,0,5.664-0.746,7.9,0.297c4.32,0.15,9.389-1.043,13.115,1.043c0.148,0.15,0.148,0.15,0.297,0.299
			c-3.129,0.895-7.152,0.596-10.283,0.447c-2.682-0.746-5.514,0.297-8.494,0.297c-5.812,0.15-11.924-1.936-17.141,0.598
			c-4.768,0.596-9.24-1.641-13.859,0c-4.174,1.342-8.348-0.746-12.221,1.191c-7.156-1.191-16.395,0.15-24.145-1.191
			c-8.795,0-17.736,0.596-26.381-0.895c-4.77-0.148-6.707-1.043-11.178-1.938c-0.148,0,0.744-1.043,0.744-1.342
			c4.77-2.832,6.41-3.725,11.477-5.664c7.004-2.83,14.457-2.234,21.463-4.172c9.836,0.148,19.523,1.49,26.676,10.881
			c13.117-7.9,27.127-8.795,39.795-15.65c5.662-1.789,10.879-4.621,16.543-6.408c0.895,0,2.385-0.598,3.428-0.299
			C969.444,881.996,964.676,884.082,959.907,885.572z M875.997,895.408c-1.938,0.598-4.322-0.148-6.109,1.045
			c-2.385-0.299-4.621,1.043-6.559,1.787l-3.576,2.535c1.342,0.148,6.557,0.596,8.049,0.895c1.936,1.936,5.363,1.041,7.748,1.639
			c11.029-1.49,23.4,0.297,36.664-0.299c-1.936-2.385-3.875-2.98-4.918-4.023c-2.086-2.086-7.898-4.322-11.773-5.963
			C888.815,893.918,881.661,892.428,875.997,895.408z"/>
		<path style="fill:#FF0050;" d="M978.834,825.211c3.727,0.447,6.26-0.447,7.154,1.342c0,0.148-0.148,0.447-0.148,0.596
			c-5.516,3.129-12.67,1.789-19.078,3.576c-11.328,1.641-22.953,2.535-33.385,5.217c-2.385,3.279-5.068,7.75-3.428,12.072
			c0.148,0.148-0.447,0-1.043,1.045c1.043,1.488-0.598,2.086-0.598,3.277c-0.596,2.832-0.297,6.41-1.49,11.328
			c8.645,1.938,16.842,1.787,23.996,3.725c5.217,1.49,12.52-0.895,17.734,1.789c1.939,0,4.324-0.299,5.664,1.342
			c0.299,0.744-1.043,0.744-1.639,0.744c-6.111-1.043-10.73-0.596-16.543-1.34c-6.855-2.982-17.289-0.449-24.742-3.43
			c-2.682,0-6.854,0.746-8.941-0.744c-7.004-1.639-15.35,0.447-21.908-2.684c-12.221,0.447-22.355-4.619-34.875-4.619
			c-0.596-0.598-0.596-1.639-1.938-1.789c-3.578-1.191-8.197,1.043-10.432-1.938c0.893-1.639,3.277-0.895,5.066-2.236
			c15.053-3.277,28.914-9.836,44.264-12.666c4.322-2.088,9.688-2.684,14.457-4.621c1.641-0.15,3.279-0.447,4.77,0.148
			c2.98-0.895,6.26-1.938,9.537-1.938c7.006-0.148,13.266-3.428,20.568-2.832c2.236-1.342,5.664-0.299,8.049-1.043
			c4.619-0.447,9.389-1.639,13.711-2.832c0.895-0.447,1.342-0.744,1.492-1.043c1.34-0.596,1.488-0.596,2.531-0.447
			C977.641,825.359,978.834,824.912,978.834,825.211z M922.499,837.283c-7.453,3.279-16.098,3.279-23.848,5.516
			c-9.092,2.533-17.586,7.6-27.869,9.537c0,2.533,1.043,3.428,2.832,3.578c4.172,1.49,8.047,3.129,12.816,3.725
			c8.793,1.193,19.076,0.447,27.424,2.533c2.234,0,5.514,0,8.494,0.895c1.49-1.787,1.639-3.576,2.98-4.471
			c0-1.787,0.447-3.129,0.598-4.471c0.297-2.236,0.297-4.322,0.744-5.963c0.746-2.83,1.193-3.873,1.49-6.258
			C932.186,834.898,925.18,837.432,922.499,837.283z"/>
		<path style="fill:#FF0050;" d="M925.18,787.354c5.812,0.447,11.775,1.789,18.033,2.535c7.602,0.893,15.5,1.787,22.654,5.365
			c3.727,3.725,8.346,5.662,11.328,10.58c0.445,2.684,2.385,2.236,1.49,5.516c0.148,0.447-0.299,0-0.299-0.598
			c-3.428,0.15-1.789-0.744-4.322-4.172c-3.875,1.191-6.707-0.596-9.539,0.596c-11.922-0.744-22.207,0-33.832,1.193
			c-2.83,1.342-6.408,1.342-9.688,0.895c-2.086-0.746-4.322,0.744-6.855,0.297c-7.75-0.445-16.395-0.445-23.994,0.596
			c-5.664-0.297-11.178,0-16.992,0.596c-2.234-0.445-4.768-1.191-7.898-0.297c-0.895,2.088-1.938,1.641-1.191,3.428
			c-0.299,0.299-0.596,0.746-1.043,1.043c-0.447-0.148-0.896,0-1.342-0.447c0.596-4.322,3.428-6.707,6.111-9.984
			c5.215-4.77,11.922-7.006,17.586-11.625c3.727-2.385,7.6-2.684,11.625-4.322c5.066-0.746,10.73-0.447,15.648-1.49
			C916.834,788.1,920.858,787.801,925.18,787.354z M901.633,791.08c-5.814-0.299-9.838,2.385-15.352,4.023
			c-0.299,0.299-1.641,1.641-2.385,2.088c-4.174,2.98-9.092,4.322-13.562,10.283c5.365-0.447,8.047,1.49,10.582,0.447
			c3.725,0.447,7.004-1.49,10.73-1.641c5.365,1.641,11.178,0.299,16.691,1.043c5.068,0.598,10.582-0.596,15.799-0.893
			c9.24-3.578,19.971-1.043,29.51-2.088c4.619,0,9.984-0.744,17.289,0.15c-2.832-5.961-7.9-7.006-11.328-8.943
			c-8.793-2.385-17.586-3.875-26.678-4.77c-1.789-0.297-4.023,0.447-5.662-0.596C919.069,790.633,909.233,787.801,901.633,791.08z"
			/>
		<path style="fill:#FF0050;" d="M968.7,740.259c1.193,0.596,2.385,0,3.727,0.298c1.043,0,1.787,0.298,2.684,0.895
			c0.148,0.745-0.746,1.341-1.193,2.086c-1.043,1.341-2.236-0.746-2.533-0.746c-0.299-0.596-1.789,0.746-3.279-1.49
			c-2.98,0.894-5.664,0.894-7.75,0.298c-4.174,0.447-8.793-0.746-12.818,0.894c-1.639,0.149-2.533,2.087-3.277,2.981
			c-0.15,0-0.746,1.789-2.088,2.385c-1.938,1.789-4.77,4.621-5.662,5.366c-0.746,0.745,0-0.894-1.342,0.596
			c-0.746,0.596-0.447,0.894-1.49,2.534c-1.342,1.639-4.025,4.47-4.621,5.215c-0.895,1.789-1.787,3.875-2.832,6.261
			c3.131,2.086,6.26,1.491,8.346,2.831c2.684,0.15,5.963,0.746,8.795,1.492c1.639-1.342,2.832,0.297,4.023,0.297
			c1.639,0.893,4.174,0.744,6.111,1.639c3.725,0.598,7.004,2.832,11.178,2.088c1.49,0.297,3.277,0.893,4.768,1.34
			c-0.148,0.299-0.297,0.596-0.596,0.596c-2.533,0.447-4.77-0.893-7.004-0.744c-0.596-0.447-1.043-0.596-1.639-0.447
			c-1.193-0.148-2.385-0.447-3.428-0.447c-2.387-0.744-4.025,0.596-7.9-1.938c0,2.236,0.299,0.895,0.299,0.895
			c-2.236-0.596-5.367-1.49-8.348-1.342c-1.787-1.191-4.023-0.746-5.812-1.191c-4.172-0.447-7.004-2.086-11.029-1.789
			c0,0-0.148-0.148-0.297-0.148c-1.191-0.746-2.533-0.299-3.279-1.043c-9.092-2.534-18.332-5.068-27.424-7.602
			c-2.086-1.043-3.873-1.49-6.109-2.384c-2.98-1.043-5.812-2.831-8.941-4.024c-3.131-1.192-6.111-3.13-9.689-4.173
			c-0.895-0.447-2.385,0.297-2.385-1.192c0-0.447-0.445-1.491-0.148-1.639c1.043-1.639,4.023-1.639,5.514-2.385
			c3.578-0.298,8.645-1.043,12.967-1.938c1.641-1.938,4.174-0.447,6.111-1.192c7.303,0.298,14.904-3.428,23.25-2.385
			c10.582-1.639,22.355-2.533,32.342-1.639C953.499,739.961,961.1,739.216,968.7,740.259z M923.542,742.792
			c-1.939-0.745-4.918,1.043-7.898,0.447c-3.578-0.597-7.453,0.596-11.029,1.193c-3.428-0.597-6.111,1.49-9.539,1.191
			c-2.236,0.299-5.961,0.299-8.943,0.895c-4.918,0.895-9.389,2.235-15.053,2.683c2.236,2.534,6.26,4.322,6.857,4.471
			c3.129,1.043,5.662,2.832,8.494,3.726c4.322,1.49,8.047,2.981,12.072,4.172c2.832,0.745,6.557,1.64,9.092,2.087
			c2.832-0.148,6.855,2.385,10.73,2.981c2.234,0.298,1.191,1.341,4.322,0.446c1.191-2.831,2.98-4.77,4.023-7.303
			c1.342-1.788,2.088-1.938,4.023-4.024c1.342-1.341,2.684-3.427,4.174-5.365c1.342-1.491,3.131-3.13,4.023-4.173
			c0-0.298,1.789-2.236,1.789-3.428c-2.086-0.447-4.471-0.447-5.812-0.596C930.844,741.601,927.713,742.196,923.542,742.792z"/>
		<path style="fill:#FF0050;" d="M955.883,709.854c5.812,1.491,9.984,6.409,15.797,8.197c0.895,1.64,2.832,2.534,3.727,4.174
			c-1.342,0.447-2.832-0.894-4.023-1.491c-1.043-1.043-2.088-1.639-3.578-1.789c-3.279-2.385-7.75-3.427-11.178-6.111
			c-2.533-0.894-6.26-1.192-9.092-2.533c-5.066-0.298-10.135-0.298-15.053,0.596c-4.77,0.894-9.389,2.832-13.115,6.111
			c-4.918,2.384-10.582,4.172-15.947,5.365c-8.346,4.174-18.928,3.726-27.572,0.299c-5.066,0-7.898-4.323-12.52-4.918
			c-1.342-1.043-2.533-2.086-4.172-2.683c-0.895-0.746-0.447-1.938-1.193-2.981c0-0.298-0.596,0.149-0.297,0.298
			c2.086,0.149,4.32,1.043,6.109,1.937c7.898,6.111,18.48,6.409,28.02,8.496c6.707-0.299,12.221-3.429,18.631-4.919
			c4.023-2.533,9.09-3.428,13.115-5.961c2.98-0.299,5.365-3.726,8.494-2.981c6.707-2.385,14.605-2.385,21.016,0
			C953.944,709.407,954.838,709.706,955.883,709.854z"/>
		<path style="fill:#FF0050;" d="M949.325,633.845c-0.299-0.15,1.342-0.448,1.938-0.298c0.447,0,1.043,0,1.191,0
			c0.895,0.298,2.088,0.746,2.98,0.597c2.088,0.895,4.174,0.446,5.963,1.341c3.576,1.64,8.346,3.13,12.221,6.409
			c2.385,2.534,5.514,3.577,7.9,5.812c0.445,1.341,1.043,1.938,0.744,3.13c-2.385,0.149-3.576-3.279-5.812-4.173
			c-1.639-1.49-4.023-1.938-5.365-3.875c-0.299-0.149-0.895-0.745-1.191-0.894c-0.299-0.149-0.449-0.447-0.449-0.447
			c-0.148,0-0.744-0.299-0.744-0.448c-1.342-1.341-1.787-1.491-1.787-0.894c-1.045-0.299-1.789-1.043-2.834-0.895
			c-0.447-0.149-0.893-0.447-1.191-0.894c-1.787,0.298-2.236-0.597-3.131-0.746c-1.639-0.894-4.172,0-5.961-0.596
			c-0.895,0.149-1.639-0.746-2.682-0.597c-3.578-1.043-5.068-0.149-8.943,0.149c-4.918,1.789-5.066,1.341-8.197,2.534
			c-2.385,0.895-3.727,1.192-5.961,2.236c-2.236,1.043-3.131,2.235-5.365,3.279c-2.088,0.894-3.428,0.596-5.367,1.341
			c-2.234,0.894-3.576,1.938-5.662,2.832c-2.086,1.043-3.727,1.49-6.111,2.533c-2.234,1.342-3.428,2.684-6.109,3.428
			c-0.746,0-1.789,0.149-2.533,0.149c-0.746-0.149-1.641,0.149-2.088,0.149c-0.447,0.148-1.191-0.149-1.639-0.298
			c-2.684,0.894-4.174-0.894-7.006-0.596c-2.682-0.746-5.365-1.044-8.494-2.087c-2.98-1.64-6.855-2.384-10.135-4.62
			c-3.428-1.79-6.855-4.471-9.389-7.751c-0.299-0.447-1.492-1.64-0.447-1.49c2.682,1.192,5.066,3.875,7.898,4.918
			c7.6,4.769,15.5,7.601,23.398,8.346c0.895,0.447,1.938,0,2.982,0.447c1.49,0,3.576,0.447,5.215,0.149
			c5.365,0.597,4.174-1.789,6.408-2.683c2.387-0.895,3.877-0.746,5.963-1.789c1.49-0.894,2.236-1.938,4.023-2.683
			c1.49-0.895,2.533-1.64,4.471-1.937c4.473-0.448,4.621-1.341,6.855-3.28c1.045-0.596,1.641-1.341,2.832-1.788
			c1.045-0.894,1.938-0.447,3.279-0.894c1.789-0.447,2.684-1.044,4.471-1.64c1.641-0.596,3.428-1.341,4.322-1.341
			c3.131-1.341,4.918-0.447,7.9-0.746C948.579,633.249,949.473,633.845,949.325,633.845z"/>
		<path style="fill:#FF0050;" d="M911.917,610.894c2.832,2.234,6.109,4.322,8.643,7.601c11.18-0.895,21.463,1.341,31.299,1.043
			c4.322-0.149,7.303-2.832,11.328-2.534c0.148,1.193,1.043,2.385,2.533,2.832c0.299,0.298,0.299-0.894-0.148-0.746
			c-0.15,0.149-1.045,0.298-1.193,0.298c-5.365,3.577-13.414,1.043-19.971,1.937c-2.385,0.596-5.812,1.64-7.75,0
			c-8.943-1.639-19.674,0.746-28.467-1.191c-6.408-0.298-13.264,1.49-19.375,0.149c-9.24-0.746-18.48,0.297-27.871-1.044
			c-3.129,1.193-5.662,0-8.941-0.149c-0.895-0.596-2.684,0-3.129-1.043c0.596-0.745,0.297-1.938,1.191-2.534
			c3.428-2.832,8.049-3.577,11.475-5.664c3.43-0.596,6.41-1.341,9.391-2.981c0.297-0.447,0.596-0.894,0.895-1.044
			c3.875-0.297,7.75-2.98,11.922-1.341C893.286,605.527,903.719,605.975,911.917,610.894z M873.463,607.763
			c-3.129,2.235-7.154,3.13-10.432,4.023c-1.193,1.938-4.77,1.341-6.559,3.13c1.789,2.832,4.322,1.491,6.111,1.789
			c9.09,1.789,18.48,0.448,27.869,1.043c3.727,1.49,7.006-0.149,10.732,0.149c4.174,0.299,8.346-1.64,12.221,0.299l1.342-1.64
			c-1.789-2.683-4.322-4.62-7.602-5.514c-2.832,0-5.514-1.491-8.346-2.683c-5.068-1.342-10.137-1.043-15.5-1.342
			C880.022,606.869,877.338,608.806,873.463,607.763z"/>
		<path style="fill:#FF0050;" d="M974.213,585.707c0.447,0.15,0.746,0.299,1.045,0.597c-1.342,3.427-5.365,1.49-8.496,2.384
			c-2.684,0.448-5.217,0-7.898,0.149c-7.303,0.15-14.605-0.149-21.611,0c-3.727,0-8.645,0.299-12.52-0.149
			c-2.533-0.298-5.664,0-8.197,0.149c-6.109,0.596-11.922,0-18.332,0.448c-0.297-0.298-0.596-0.298-0.893-0.298
			c-2.684,1.341-5.664,0.149-8.197,0.596c-6.111,0.298-11.924,0.895-17.887,0.895c-4.172-1.789-8.494,0.894-12.816-0.149
			c-0.596-0.15,0.895-1.789,1.342-1.789c6.557-4.472,14.158,1.789,21.461-0.298c8.645-2.384,18.332-1.491,26.828-1.937
			c8.494-0.447,16.543,0.297,25.188,0c2.383-0.298,4.77-0.298,7.303-0.298c0.596,0,1.342,0.149,1.938,0.149
			c6.557-0.149,13.115-0.149,18.928-1.043C965.868,586.304,969.594,585.558,974.213,585.707z"/>
		<path style="fill:#FF0050;" d="M974.959,556.348c-1.49,3.279-5.066,3.577-7.602,5.365c-3.428,1.789-7.152,3.577-11.029,4.025
			c-1.041,0.596-2.533,0.745-3.725,0.893c-9.986,1.789-19.674,5.813-30.105,6.111c-7.154,1.491-15.053,0.746-22.805,0.596
			c-6.408,0-14.605-1.788-21.014-4.62c-3.131-0.745-6.559-1.938-8.793-3.875c-3.279-0.895-5.812-3.279-8.645-5.067
			c-0.596-1.044-1.342-2.087-1.342-3.13c0-0.15-0.148-0.298-0.148-0.298c2.98,0.745,5.812,2.981,8.793,4.77
			c2.385,1.341,3.727,3.13,6.26,3.726c4.322,0.895,7.75,3.875,12.223,3.577c8.195,2.086,17.137,1.938,26.975,1.341
			c-1.49-3.427,1.043-4.769-0.148-6.855c0.148-0.895,0.297-1.49,0.596-2.087c0.447-0.447,0.744-0.894,1.34-0.447
			c0.299,0.298,0.447,0.447,0.746,0.746c-0.299,0.894,0.299,1.49,0.744,1.937c-0.445,1.938,0,3.875-0.297,6.26
			c7.303,0.745,12.221-1.341,18.184-1.64c2.533-1.192,6.408-1.49,9.537-2.385c2.832-0.894,6.26-0.894,8.943-2.533
			c2.236,0.297,4.77-0.448,6.559-2.684c3.873,0.149,6.855-2.683,11.326-3.577c0-1.191,0-0.745,0-0.745
			c0.744-0.297,2.234-1.937,4.023-1.341C975.407,555.155,975.258,555.751,974.959,556.348z"/>
		<path style="fill:#FF0050;" d="M966.614,521.026c-0.447,3.13,0.148,5.812,1.191,8.346c-0.148,0.746-0.744,1.491-1.191,1.64
			c-1.938,2.832,1.787,7.899-3.131,9.389c-1.639,0.447-3.428-0.298-4.77,0.895c-5.215,1.937-6.855,0.447-11.922,0.894
			c-4.473,0.298-9.836-1.938-14.16,0c-2.385,0-4.322-0.894-6.408-1.192c-5.664,2.086-12.072-1.043-18.033,0.447
			c-4.322,0.298-7.75-1.49-12.072,0.447c-0.895,0.149-1.641,0.149-2.385,0.447c-8.793,0-17.885-0.894-26.529,0.149
			c-4.322,0-8.494-0.149-12.369-2.236c-0.746-0.596,0.148-1.491,0.893-1.788c1.045,0,2.535-0.298,4.174,1.043
			c3.131-1.342,5.961,0.149,8.645-0.448c2.236,0.597,4.77,0.746,7.154,0.15c5.066-2.981,10.432,0.447,15.648,0.298
			c5.068-0.149,10.135-2.087,15.352-1.491c5.365,0.745,11.625,1.193,17.139,0.596c1.789-0.596,3.875,0.298,5.516-0.297
			c1.639,0.297,3.875,0.149,5.365,1.192c2.086-0.298,4.619-0.746,6.707-1.342c1.191,0.596,2.98,0.447,4.023,0.745
			c5.664,0.447,6.855,1.192,12.072-0.596c3.428,1.192,2.086-2.385,5.068-3.13c1.936-0.746,0.893-1.64,0.893-2.683
			c-0.447-2.385,1.938-4.174,0.895-6.26c-0.746-1.937-0.148-4.471-1.639-6.558c-0.148-0.596-0.148-1.341,0.596-1.341
			C965.272,517.897,965.571,519.834,966.614,521.026z"/>
		<path style="fill:#FF0050;" d="M872.719,494.647c2.234,0.298,3.725,2.533,6.26,2.533c4.768,2.385,9.24,3.578,15.053,3.875
			c0.895,0.447,2.385,0.596,3.428,0.894c3.277,0.298,6.26,1.79,9.389,1.79c1.938,0.596,4.621-0.448,6.408,1.937
			c2.387-0.597,4.174-1.192,5.664-1.937c0.596-1.193,2.236-2.684,2.086-4.324c1.043-1.638,0.15-2.979,0.895-5.067
			c0.895-2.832,0.895-4.472,2.385-7.451c0.746-0.597,1.49-1.193,2.385-1.044c0.598,1.491,0,3.279,0,5.067
			c-1.938,3.875-1.639,5.962-2.98,11.029c1.191,0.746,0.746,1.341,1.191,1.64c3.727,0.596,7.75,0.15,10.881-0.596
			c1.938,0.298,3.576-0.447,6.557-0.447c0.598-1.788,1.939-0.447,2.832-0.895c5.365-0.446,10.137-3.428,15.65-3.725
			c2.385-2.087,6.408-1.79,8.793-3.578c2.832,0.299,4.322-3.428,7.898-2.533c1.789-1.341,3.428-2.981,5.664-2.981
			c0.596,0.447,1.193,0.894,1.789,1.491c-0.299,2.235-2.832,2.384-4.473,3.577c-2.533,0.298-4.918,0.895-6.707,2.534
			c-3.277-0.149-5.217,2.682-8.346,2.533c-1.191,0.746-2.385,0.895-3.279,1.49c-1.191-0.149-2.234,0.299-3.129,0.746
			c-6.855,0-12.221,4.471-19.078,4.023c-0.893,0.597-2.533,0.597-3.426,0.746c-7.305,2.533-15.799,2.086-23.252,1.937
			c-3.428-0.894-7.6,0-10.58-1.49c-9.24-1.64-18.184-5.365-26.977-7.75c-4.174-1.639-8.049-4.173-11.924-6.259
			c-4.322-2.385-9.389-4.024-12.52-8.346c0-0.298,0-0.746,0.299-0.894C858.262,487.493,865.266,491.367,872.719,494.647z"/>
		<path style="fill:#FF0050;" d="M876.891,442.931c1.641,0,4.025-0.149,5.812-0.297c4.324-2.684,11.029,0,16.098,0.596
			c3.129-1.789,8.346-0.745,11.625-1.043c4.768-1.192,11.027,0.298,16.541,0.298c9.689,0,20.867-0.298,30.555-0.745
			c1.49-0.149,2.98-1.043,4.322-0.448c0.148,0.149,0.297-0.148,0.447-0.148c-3.428,2.235-7.602,2.383-11.029,3.874
			c-4.918,4.322-10.582,6.558-15.799,9.837c-6.26,2.832-12.668,4.918-18.332,9.24c-1.787,0.894-3.428,1.938-5.215,2.832
			l-4.322,2.087l4.918,0.297c11.625,0.746,22.504-2.086,34.428-0.447c4.77,0,9.24-1.938,13.861-1.043c1.191-0.149,2.682,0,3.725,0
			c-0.148,0.298,0,0.895-0.148,1.043c-1.191,0-2.236,0.298-3.277,1.043c-1.193,0.596-2.684,0.596-4.025,0.894
			c-4.023,0.447-8.049-0.149-12.072,0.745c-10.881,0.299-21.461-1.042-32.043,0.15c-4.918-0.895-9.836,1.64-14.605,0.298
			c-3.131,0.745-7.154-0.895-9.539,0.893c-7.154-0.745-14.158-1.937-21.611-1.937c-1.639-0.596-4.172,0-4.918-1.789
			c-0.15-0.148,0.895-1.639,0.895-0.894c8.047-2.087,14.904,2.683,24.145,1.64c4.77-0.597,9.688,0,14.754-1.491
			c1.49-2.086,3.727-1.937,5.367-3.278c2.98-0.448,5.961-1.192,7.898-3.279c7.602-3.726,15.35-5.067,21.461-10.581
			c1.789-0.746,3.576-1.641,5.514-3.28c0-0.446,4.322-2.384,4.322-2.831c-0.148-0.299-4.619,0.745-4.619,0.148
			c-5.812,0-11.178-1.043-15.799,0.597c-8.346-2.086-16.99-2.236-25.934-0.298c-6.408-0.746-12.965-1.639-19.225-0.447
			c-5.217-2.236-11.029,2.385-15.799-1.789c-0.447-1.341-2.832-0.894-2.682-2.533C867.651,439.95,871.973,442.782,876.891,442.931z"
			/>
		<path style="fill:#FF0050;" d="M969.594,427.581c0.148,0.149,0.299,0,0.299,0.149c-2.684,0.596-5.367-0.447-7.752,0.596
			c-1.639,1.043-3.725,1.938-5.812,0.895c-0.148-1.043-0.596-2.235-0.297-3.577c0.297-0.596,0.746,0.148,1.191-0.298
			C961.696,424.004,965.868,425.495,969.594,427.581z"/>
	</g>
	<path style="fill:none;stroke:#17192D;stroke-width:3;" d="M2048,0"/>
	<path style="fill:none;stroke:#17192D;stroke-width:3;" d="M2048,1536"/>
	<path style="fill:none;stroke:#17192D;stroke-width:3;" d="M0,1536"/>
	<path style="fill:none;stroke:#17192D;stroke-width:3;" d="M0,0"/>
</g>
<g id="Layer_1">
</g>
</svg>
