<?xml version="1.0" encoding="iso-8859-1"?>
<!-- Generator: Adobe Illustrator 15.1.0, SVG Export Plug-In . SVG Version: 6.00 Build 0)  -->
<!DOCTYPE svg PUBLIC "-//W3C//DTD SVG 1.1//EN" "http://www.w3.org/Graphics/SVG/1.1/DTD/svg11.dtd">
<svg version="1.1" xmlns="http://www.w3.org/2000/svg" xmlns:xlink="http://www.w3.org/1999/xlink" x="0px" y="0px" width="2048px"
	 height="1536px" viewBox="0 0 2048 1536" style="enable-background:new 0 0 2048 1536;" xml:space="preserve">
<g id="aheada_x5F_1">
	<g>
		<path style="fill:#FF0050;" d="M1135.752,1442.877c5.812,0.447,11.775,1.789,18.033,2.533c7.602,0.895,15.5,1.789,22.654,5.365
			c3.727,3.727,8.348,5.664,11.328,10.582c0.445,2.684,2.385,2.236,1.49,5.516c0.148,0.447-0.299,0-0.299-0.598
			c-3.428,0.15-1.789-0.744-4.322-4.172c-3.875,1.191-6.707-0.598-9.537,0.596c-11.924-0.746-22.207,0-33.834,1.191
			c-2.83,1.342-6.408,1.342-9.688,0.895c-2.086-0.744-4.322,0.746-6.855,0.299c-7.75-0.447-16.395-0.447-23.994,0.596
			c-5.664-0.297-11.18,0-16.992,0.596c-2.234-0.447-4.768-1.191-7.898-0.297c-0.895,2.086-1.938,1.639-1.191,3.428
			c-0.299,0.297-0.598,0.744-1.045,1.043c-0.445-0.148-0.893,0-1.34-0.447c0.596-4.322,3.428-6.707,6.109-9.984
			c5.217-4.77,11.924-7.006,17.588-11.625c3.727-2.387,7.6-2.684,11.625-4.324c5.066-0.744,10.73-0.445,15.65-1.49
			C1127.406,1443.623,1131.43,1443.324,1135.752,1442.877z M1112.203,1446.604c-5.812-0.299-9.836,2.385-15.35,4.023
			c-0.299,0.299-1.641,1.639-2.385,2.086c-4.174,2.982-9.092,4.322-13.562,10.285c5.365-0.447,8.047,1.49,10.582,0.445
			c3.725,0.447,7.004-1.49,10.73-1.639c5.365,1.639,11.178,0.299,16.693,1.043c5.066,0.596,10.58-0.596,15.797-0.895
			c9.24-3.576,19.971-1.043,29.51-2.086c4.619,0,9.986-0.744,17.289,0.15c-2.832-5.963-7.9-7.006-11.326-8.943
			c-8.795-2.385-17.588-3.875-26.68-4.77c-1.789-0.299-4.023,0.447-5.662-0.596
			C1129.643,1446.156,1119.805,1443.324,1112.203,1446.604z"/>
		<path style="fill:#FF0050;" d="M1135.305,1401.594c4.621,0.299,9.838,0.148,14.904,0.895c1.342-1.043,2.98,0.596,4.322,0.744
			c3.428-0.596,4.471,1.641,7.75,1.193c1.043,0.447,2.234,0.297,3.578,0.297c1.043,0.598,3.129-0.297,4.471,1.342
			c5.215,0.596,9.09,2.088,13.562,1.789c1.342,1.938-2.088,3.279-2.088,5.217c-1.34,1.789-2.83,2.086-4.023,3.277
			c-9.539,6.41-19.822,10.285-31.148,12.67c-2.832-0.148-4.621,1.043-6.707,1.043c-0.447-0.596-1.342,0.596-2.535,0.447
			c-7.898,0.148-15.797,1.043-23.248,0.895c-0.15,0-0.447-0.299-0.598-0.299c-3.428,0.895-7.602-0.447-10.73-1.191
			c-1.639-1.193-4.174-0.598-5.812-1.641c-2.982-0.744-5.961-1.789-8.941-2.682c-1.193,0-2.832,0.445-4.174-1.342
			c-1.938,0.299-2.98-0.447-3.875-0.447c-3.727-1.043-6.26-3.578-8.793-5.961c0.445-0.746,1.043-1.641,1.639-1.789
			c5.961-4.322,14.01-7.453,21.162-8.197c3.877-1.49,7.752-1.938,11.775-3.279c2.385,0,4.322-1.639,6.707-2.086
			c4.621,0,8.941-1.789,13.859-0.746c1.045-1.938,2.387-0.447,4.77-0.297C1132.623,1401.295,1133.963,1400.848,1135.305,1401.594z
			 M1114.291,1405.021c-3.875,1.342-8.496,1.639-12.072,2.385c-6.707,3.428-14.904,3.428-21.91,6.557
			c-1.639,1.342-3.875,1.641-4.768,4.322c1.787,1.938,4.023,1.938,5.365,3.43c3.576,1.49,7.451,1.938,11.027,2.98
			c2.684,0.744,5.367,1.043,8.197,2.385c4.322,0.893,8.496,1.938,12.967,1.789c16.545-0.449,34.727-2.684,48.588-7.305
			c2.98-1.043,4.023-1.639,7.004-2.533l12.967-9.092c-4.322,0-3.428-0.596-3.279-0.744c-4.471-1.043-9.092-1.342-14.01-2.236
			c-1.787-0.596-3.428,0.299-5.812-1.043c-2.533,0.895-5.066-0.895-7.303-0.596c-6.109-2.088-11.773-0.598-18.629-0.895
			l-0.598-0.596C1125.766,1404.275,1120.104,1404.275,1114.291,1405.021z"/>
		<path style="fill:#FF0050;" d="M1201.031,1358.969c-2.832,3.727-7.303,5.514-10.432,9.537c-4.621,4.77-11.477,7.9-16.246,11.328
			c-2.385,1.342-5.812,1.789-8.645,3.428c-1.789,0-2.98,0.746-4.471,1.193c0-0.15-0.299,0-0.447-0.15
			c-1.938,1.342-3.875,1.639-4.471,1.789c0,0-0.598,0.895-1.789,0.447c-5.812,1.191-10.283,3.129-16.096,2.98
			c-6.707,1.191-14.756-0.148-21.164-0.746c-1.641-0.447-3.129-0.596-4.621-0.596c-0.895-0.596-1.49-0.148-2.98-1.342
			c-1.191,0.895-2.236-0.148-2.98-0.297c-4.77,0.297-5.514-2.684-10.135-2.98c-3.576-1.789-8.049-2.982-12.221-5.068
			c-4.77-2.98-10.285-5.664-14.605-9.092c-4.324-3.428-8.496-7.004-11.477-11.475c-0.299-0.447-1.641-1.938-0.447-1.342
			c4.023,2.236,6.408,5.812,10.58,8.047c10.137,7.752,21.613,13.266,33.387,17.588c1.34,0.744,3.129,0.744,4.471,1.639
			c2.684,0.598,5.068,1.641,7.75,1.789c8.496,1.938,16.395,0.447,24.891,0.744c6.109-1.043,13.562-0.744,19.076-3.576
			c1.938,0,2.086-1.639,4.023-1.342c2.236-1.342,6.26-1.043,8.795-2.832c1.49-0.297,2.385-1.639,4.471-2.086
			c0.596-1.043,1.787-1.043,2.682-1.49c1.49,0.148,2.088-1.639,3.578-2.533c0.744,0.447,1.639-0.148,2.385-0.895
			c0-0.895,0.596-0.746,1.043-0.746c0.299-0.297,0.746-0.893,0.895-1.34c0.297-0.15,0.447-0.15,1.043-0.15
			c1.787-3.725,5.217-4.172,7.152-7.004c2.982-1.789,3.877-6.111,7.453-6.559C1202.225,1357.031,1201.33,1357.926,1201.031,1358.969
			z"/>
		<path style="fill:#FF0050;" d="M1177.93,1310.531c-1.787,1.34-4.172,2.234-5.961,3.727c-7.303,2.086-15.201,4.023-23.102,4.023
			c-5.664,0.895-11.477,2.086-16.99,3.428c-2.98-0.299-6.408-0.895-9.836-0.148c-0.447,1.191-0.447,1.639-2.236,2.086
			c1.639,4.322,5.066,7.303,6.707,10.434c0.895,0.445,1.789,1.639,1.49,2.682c-0.596,1.789,0.299,1.789,1.342,2.832
			c1.34,0,2.533,0.148,3.727,0.744c3.129-1.043,5.514-1.043,8.047-0.148c2.832,1.639,5.217,0.447,8.346,0
			c5.963-0.895,11.627-2.236,17.736-2.533c4.77-0.15,9.539-0.15,14.605-0.15c0.447,0.15,0.895,0.299,0.746,0.746
			c0,0.447-0.596,0.895-1.043,1.043c-7.453,0.447-14.605,0.746-21.164,2.832c-4.918-0.148-8.941,1.342-13.562,0.895
			c-11.029-1.043-22.654,0-33.086,1.342c-4.621-1.043-8.197,0.895-12.67,0.596c-11.625-0.895-23.697-0.895-33.98-4.322
			c-1.49-0.447-0.746-1.639-1.49-2.684c0.148-0.447,0.895,0,1.191-0.148c3.578,0.746,6.707,2.385,10.285,2.236
			c0.148,0.148,0.148,0.148,0.297,0.297c6.111-0.297,11.773,1.641,17.141,1.342c4.023,2.236,8.494-0.596,12.816,0.148
			c5.516,0.895,10.135-1.043,15.5-1.787c0.746-0.596,1.789-1.191,2.832-2.385c-1.787-4.77-7.303-7.75-7.898-11.625
			c0.744,0-1.043-1.193-0.299-3.578c-4.619-1.34-8.346,0.447-11.773-1.191c-2.832-0.746-5.664,0.744-8.645-0.895
			c-4.023,1.938-7.602,0.148-11.477,0.447c-2.236-1.938-3.129,1.938-5.812,0.148c-2.533,0.746-5.961,1.193-8.049,0
			c0.15-0.596,0.15-1.043,0-1.639c2.236-1.342,5.367,0.447,7.602-1.342c3.279-0.297,5.664,1.49,8.943,0.895
			c9.537-1.789,20.119,0.299,29.809-0.299c6.705-0.297,14.008,0.746,20.418-1.49c10.135-1.639,20.717-2.98,30.254-4.918
			c2.385-1.49,5.217-3.129,8.197-2.98C1177.334,1309.637,1177.781,1309.934,1177.93,1310.531z"/>
		<path style="fill:#FF0050;" d="M1166.455,1242.42c5.812,1.49,9.984,6.408,15.797,8.197c0.895,1.639,2.832,2.533,3.727,4.172
			c-1.342,0.447-2.832-0.893-4.023-1.488c-1.043-1.045-2.088-1.641-3.578-1.789c-3.277-2.385-7.75-3.428-11.178-6.111
			c-2.533-0.895-6.26-1.191-9.092-2.533c-5.066-0.299-10.135-0.299-15.053,0.596c-4.77,0.895-9.389,2.832-13.115,6.111
			c-4.918,2.385-10.582,4.172-15.947,5.365c-8.346,4.172-18.928,3.727-27.572,0.297c-5.066,0-7.898-4.32-12.52-4.918
			c-1.34-1.043-2.533-2.086-4.172-2.682c-0.895-0.746-0.447-1.938-1.193-2.98c0-0.299-0.596,0.148-0.297,0.297
			c2.086,0.15,4.322,1.043,6.109,1.938c7.9,6.111,18.48,6.41,28.02,8.496c6.707-0.299,12.221-3.428,18.631-4.918
			c4.023-2.535,9.09-3.43,13.115-5.963c2.98-0.297,5.365-3.727,8.494-2.98c6.707-2.385,14.605-2.385,21.016,0
			C1164.516,1241.973,1165.412,1242.271,1166.455,1242.42z"/>
		<path style="fill:#FF0050;" d="M1196.561,1207.992c1.938,1.641,0,1.49-0.299,2.088c-8.346,7.303-19.971,5.812-28.912,11.625
			c-6.41,2.385-13.266,3.279-19.525,4.77c-4.918,0.148-9.389,2.236-14.01,1.34c-1.49,1.193-3.727,0-5.365,0.596
			c-10.73,0-16.842-2.086-25.188-3.873c-2.832,0.297-5.812-0.598-8.049-2.535c-3.875,0.447-7.004-0.744-9.836-2.234
			c-6.855-2.535-13.713-5.217-18.631-9.986c0,0.15-0.893-0.299-0.447-0.596c1.193-0.746,2.535,0.596,3.727,1.191
			c7.006,0.598,11.477,5.664,17.736,7.154c2.832,1.49,5.961,1.49,8.645,2.533c11.475,2.98,19.076,5.516,31.148,5.664
			c0.15,0,0.447-1.043,0.447,0.148c10.283-0.596,19.078-2.98,28.467-4.023c9.539-2.98,19.076-6.408,28.615-9.389
			c2.533-1.641,5.516-2.982,8.793-4.174c0.895,0,2.535-1.639,2.98-1.043C1197.008,1207.248,1198.051,1207.248,1196.561,1207.992z"/>
		<path style="fill:#FF0050;" d="M1188.959,1155.084c0.148,0.447,0.148,1.043,0,1.49c-0.895,0.447-1.49,0.596-2.682,0.895
			c-0.746,0.148-1.49,0.148-2.236,0.148c-2.684,0.596-4.322,0.895-7.154,1.789c-0.596,0.297-0.895,0.596-1.49,0.895
			c-0.744,0-1.043-0.15-1.789-0.15c-3.129-0.148-7.303,1.045-8.047,0.746c-7.453,1.34-6.408,1.938-14.904,2.385
			c-6.111,0.297-10.582,0.895-16.246,1.49c0,2.98-1.938,5.812-2.385,8.494c-0.148,1.492-0.297,2.236-0.596,3.727
			c-0.596,1.938-1.787,2.832-1.49,4.918c0,4.174,0.299,1.342-2.086,5.516c-0.299,0.447-0.447,1.043-2.088,3.277
			c3.578-0.297,4.77-0.596,6.408-0.893c2.236,1.49,6.262,0.148,9.838,0.297c9.391,0.447,18.332-0.895,26.826-0.447
			c7.9,0.299,15.65-1.191,22.656-0.447c0.148,0.447,0.148,1.045,0.148,1.641c-0.596,3.576-4.77,0.895-6.408,1.639
			c-7.453,0.596-14.309,0.596-22.654,0.596c-10.135,0.299-20.27-0.596-30.555,0.15c-7.004,0.596-13.113-0.447-19.523,0.744
			c-10.881-1.787-21.908,3.578-32.641,1.045c-2.682-0.15-5.365,0.893-8.047,0.148c-1.342-0.746-6.111-0.299-3.576-2.385
			c8.346-0.895,16.99,0.148,25.484-0.148c12.52-0.598,4.918-1.193,8.197-1.49c4.322-0.449,6.855-0.299,11.326-0.299
			c4.025,0,6.262,0.447,10.584,0c0.893-2.088,1.49-3.279,2.383-5.068c1.939-3.725,0.598,1.49,1.492-5.514
			c0.297-2.236,0.447-2.832,0.447-5.066c0-1.939,0.893-2.832,1.34-4.77c0.447-1.342,0.299-2.832,0.596-5.367
			c-1.936,0-2.533,0.15-3.428,0.15c-3.129-0.895-7.451,2.234-10.283-0.447c-3.576-0.299-5.516-0.596-8.496,0.596
			c-2.086-0.148-4.322-0.447-7.004-0.744c-0.596-0.299-1.49,0.445-2.088,0.445c-2.383,1.342-3.873-2.533-6.109-0.744
			c-1.043,0-2.086,1.043-3.131-0.447c-4.918,1.342-8.791,0.895-12.965-1.789c-1.342,0.598-1.938-0.297-2.535-1.043
			c-0.148-0.148-0.297-0.447-0.148-0.744c0.447-1.193,1.191,0.596,1.49,0.445c0,0,0.895,0.746,1.789-0.148
			c0.895-0.744,1.639,1.193,2.533,0.746c5.664,1.342,11.775,1.342,17.588,0.596c5.662,1.342,14.01,0,19.375,1.342
			c1.342-0.15,2.533-1.193,4.619,0c1.789-1.938,4.025-0.447,5.365-1.342c6.857-0.148,13.861-0.744,20.717-0.895
			c6.707,0,4.473-1.043,9.539-1.789c1.043,0.299,2.682-0.445,3.428,0.15c1.938-0.299,3.727-0.299,5.664-0.596
			c4.023-0.598,9.537-0.895,13.115-1.789c0.596,0.297,1.342-0.148,2.385-1.342c-0.596-1.342,1.043-0.596,1.043-0.895
			C1184.191,1154.189,1186.426,1155.68,1188.959,1155.084z"/>
		<path style="fill:#FF0050;" d="M1140.371,1117.08c9.391-1.191,17.736,3.428,26.381,5.365c3.578,1.938,7.75,2.236,11.924,4.918
			c1.342-0.445,1.49,0.596,1.938,1.193c0,0.148-0.148-0.746-0.148-0.746c-5.068,2.982-11.029,6.26-17.289,8.049
			c-3.279,1.49-7.303,1.938-10.582,2.98c-4.023,1.193-7.9,2.533-11.773,3.578c-8.049,0.744-13.266,2.086-21.016,2.83
			c-5.812-1.043-12.668-0.447-17.885-2.682c-3.279,1.191-7.303-0.299-10.432-1.043c-3.877,0.744-7.006-2.832-10.73-3.279
			c-4.025-1.789-9.094-1.49-11.924-4.918c0.148-0.15-1.641-1.193-0.596-2.385c0.297-0.299,0.447-0.598,0.744-0.895
			c2.533-1.789,4.322-4.322,7.451-5.664c6.855-3.875,14.607-7.6,23.252-7.303c4.619,0.895,9.09-2.98,13.711-0.596
			C1121.891,1116.484,1132.025,1115.441,1140.371,1117.08z M1072.709,1129.152c-0.598,1.641-1.938,4.174,1.043,4.174
			c10.432,3.875,20.865,5.961,31.596,7.602c10.434,1.49,20.27,2.385,30.404-0.449c12.967-3.725,26.678-6.109,41.283-12.965
			c-8.494-1.641-13.264-4.174-18.48-5.068c-11.475-0.744-21.908-4.172-33.533-3.875
			C1106.242,1118.869,1087.314,1120.955,1072.709,1129.152z"/>
		<path style="fill:#FF0050;" d="M1087.463,1074.605c1.639,0,4.025-0.15,5.812-0.299c4.322-2.684,11.029,0,16.098,0.596
			c3.129-1.789,8.346-0.744,11.625-1.043c4.768-1.191,11.027,0.299,16.543,0.299c9.688,0,20.865-0.299,30.553-0.746
			c1.49-0.148,2.98-1.043,4.322-0.447c0.148,0.148,0.297-0.148,0.447-0.148c-3.428,2.236-7.602,2.385-11.029,3.875
			c-4.918,4.322-10.582,6.557-15.799,9.836c-6.26,2.832-12.668,4.918-18.33,9.24c-1.789,0.895-3.43,1.938-5.217,2.832l-4.322,2.088
			l4.918,0.297c11.625,0.746,22.504-2.086,34.428-0.447c4.77,0,9.24-1.938,13.861-1.043c1.191-0.148,2.682,0,3.727,0
			c-0.15,0.299,0,0.895-0.15,1.043c-1.191,0-2.236,0.299-3.277,1.043c-1.193,0.598-2.684,0.598-4.025,0.895
			c-4.023,0.447-8.049-0.148-12.072,0.746c-10.881,0.297-21.461-1.043-32.043,0.148c-4.918-0.895-9.836,1.641-14.605,0.299
			c-3.131,0.746-7.154-0.895-9.539,0.895c-7.154-0.746-14.158-1.938-21.611-1.938c-1.639-0.598-4.174,0-4.918-1.789
			c-0.148-0.148,0.895-1.639,0.895-0.895c8.049-2.086,14.904,2.684,24.145,1.639c4.77-0.596,9.688,0,14.754-1.49
			c1.492-2.086,3.727-1.938,5.367-3.277c2.98-0.449,5.961-1.193,7.898-3.279c7.602-3.727,15.35-5.068,21.461-10.582
			c1.789-0.746,3.576-1.639,5.516-3.279c0-0.447,4.32-2.385,4.32-2.832c-0.148-0.299-4.619,0.746-4.619,0.15
			c-5.812,0-11.178-1.045-15.799,0.596c-8.346-2.088-16.99-2.236-25.934-0.299c-6.408-0.746-12.965-1.639-19.225-0.447
			c-5.217-2.234-11.029,2.385-15.799-1.787c-0.447-1.342-2.832-0.895-2.682-2.535
			C1078.223,1071.623,1082.545,1074.455,1087.463,1074.605z"/>
		<path style="fill:#FF0050;" d="M1184.787,1013.35c0.447,0.148,0.744,0.299,1.043,0.598c-1.342,3.426-5.365,1.49-8.496,2.383
			c-2.682,0.447-5.217,0-7.898,0.15c-7.303,0.148-14.605-0.15-21.611,0c-3.727,0-8.645,0.297-12.52-0.15
			c-2.533-0.297-5.662,0-8.197,0.15c-6.109,0.596-11.922,0-18.332,0.447c-0.297-0.299-0.596-0.299-0.895-0.299
			c-2.682,1.342-5.662,0.148-8.195,0.596c-6.111,0.299-11.924,0.895-17.885,0.895c-4.174-1.789-8.496,0.895-12.818-0.148
			c-0.598-0.15,0.895-1.789,1.342-1.789c6.557-4.471,14.158,1.789,21.461-0.299c8.645-2.385,18.332-1.49,26.828-1.936
			c8.494-0.449,16.543,0.297,25.188,0c2.383-0.299,4.77-0.299,7.303-0.299c0.596,0,1.342,0.148,1.938,0.148
			c6.557-0.148,13.115-0.148,18.928-1.043C1176.439,1013.947,1180.166,1013.201,1184.787,1013.35z"/>
		<path style="fill:#FF0050;" d="M1189.705,954.779c-11.775,5.217-21.91,12.072-32.193,18.928c-0.895,0.447-1.191,1.639-3.129,1.639
			c-4.77,4.77-10.73,5.217-15.053,9.539c-3.877,1.938-8.199,4.174-12.67,7.602c0.596,0.447,1.641,0.895,2.088,1.191
			c3.129,1.49,6.26,0.299,9.092,0.447c8.941,0.299,17.139-1.191,25.037-1.342c7.602,0,14.607-1.787,21.314-1.043
			c0.146,0.299,0.146,0.746,0.146,1.342c-0.445,3.428-4.32,1.043-5.961,1.641c-7.152,0.893-13.412,1.041-21.164,1.34
			c-9.537,0.596-18.928,0.148-28.465,1.191c-6.41,0.598-12.223,0-18.332,1.342c-10.135-1.191-20.418,4.025-30.555,1.938
			c-2.383,0-4.77,1.193-7.301,0.598c-1.045-0.746-5.814,0.148-3.43-2.088c7.75-1.191,15.799,0,23.697-1.043
			c11.924-0.447,24.592-1.191,33.385-8.793c1.492-0.447,2.684-1.49,3.727-2.236c3.727-2.236,7.75-3.875,10.881-7.154
			c3.129-1.043,5.961-2.83,8.494-4.619c4.471-4.471,10.434-6.111,15.352-9.539c0-0.596,0.447-0.447,0.746-0.596
			c1.34-0.596,2.383-1.789,4.023-2.98c0-0.596,4.322-1.49,4.172-1.938c-0.148-0.447-5.066-0.299-5.514-0.596
			c-6.855,1.49-15.352,2.086-23.25,2.832c-8.496,0.744-14.16,2.383-22.207,2.531c-2.832-0.596-6.855,2.236-9.688-0.148
			c-3.129,0-4.918-0.148-7.451,0.746c-2.236,0-4.473-0.299-7.154-0.299c-0.598-0.148-1.193,0.447-1.789,0.447
			c-2.535,1.641-3.875-2.234-5.812-0.447c-0.895,0.299-1.789,1.045-2.682-0.299c-4.771,1.344-8.496,0.598-12.52-1.639
			c-1.344,0.598-1.789-0.148-2.385-0.596c0-0.148,0-0.297,0-0.447c0.445-1.043,1.34,0.447,1.34,0.299c0,0,0.895,0.744,1.789-0.148
			c0.596-0.895,1.938,1.043,2.236,0.596c5.066,1.191,11.027,0.895,16.691,0.148c5.217,0.895,13.115-0.596,18.033,0.447
			c1.045-0.148,2.385-1.043,4.174-0.447c1.641-1.49,3.875-0.148,5.068-1.043c6.26-0.447,12.965-1.49,19.373-1.49
			c6.111-0.596,12.818-1.193,17.736-1.938c1.045,0.299,2.236-0.596,3.279,0.148c2.535-0.596,3.578-0.596,5.516-0.895
			c3.875-0.744,8.793-1.34,12.221-2.086c0.596,0,1.342-0.447,2.234-1.49c-0.744-1.342,0.895-0.746,1.045-0.746
			c1.342-0.596,3.576,0.596,5.812-0.148C1189.705,953.885,1189.854,954.332,1189.705,954.779z"/>
		<path style="fill:#FF0050;" d="M1135.752,876.386c5.812,0.447,11.775,1.789,18.033,2.534c7.602,0.895,15.5,1.788,22.654,5.365
			c3.727,3.726,8.348,5.664,11.328,10.582c0.445,2.682,2.385,2.235,1.49,5.515c0.148,0.447-0.299,0-0.299-0.597
			c-3.428,0.148-1.789-0.745-4.322-4.173c-3.875,1.191-6.707-0.597-9.537,0.596c-11.924-0.745-22.207,0-33.834,1.192
			c-2.83,1.342-6.408,1.342-9.688,0.894c-2.086-0.745-4.322,0.746-6.855,0.299c-7.75-0.447-16.395-0.447-23.994,0.597
			c-5.664-0.298-11.18,0-16.992,0.596c-2.234-0.447-4.768-1.192-7.898-0.298c-0.895,2.086-1.938,1.64-1.191,3.428
			c-0.299,0.298-0.598,0.745-1.045,1.044c-0.445-0.149-0.893,0-1.34-0.448c0.596-4.321,3.428-6.707,6.109-9.985
			c5.217-4.77,11.924-7.005,17.588-11.625c3.727-2.385,7.6-2.684,11.625-4.322c5.066-0.745,10.73-0.447,15.65-1.49
			C1127.406,877.131,1131.43,876.833,1135.752,876.386z M1112.203,880.112c-5.812-0.298-9.836,2.385-15.35,4.024
			c-0.299,0.297-1.641,1.639-2.385,2.086c-4.174,2.98-9.092,4.322-13.562,10.284c5.365-0.448,8.047,1.49,10.582,0.446
			c3.725,0.447,7.004-1.49,10.73-1.64c5.365,1.64,11.178,0.299,16.693,1.044c5.066,0.596,10.58-0.597,15.797-0.895
			c9.24-3.577,19.971-1.043,29.51-2.087c4.619,0,9.986-0.745,17.289,0.149c-2.832-5.962-7.9-7.005-11.326-8.942
			c-8.795-2.385-17.588-3.875-26.68-4.769c-1.789-0.299-4.023,0.446-5.662-0.598
			C1129.643,879.665,1119.805,876.833,1112.203,880.112z"/>
		<path style="fill:#FF0050;" d="M1185.531,848.367c-1.49,3.279-5.066,3.577-7.602,5.365c-3.428,1.789-7.152,3.577-11.027,4.024
			c-1.043,0.596-2.535,0.745-3.727,0.894c-9.986,1.789-19.674,5.813-30.105,6.111c-7.154,1.49-15.053,0.745-22.805,0.596
			c-6.408,0-14.605-1.788-21.014-4.619c-3.131-0.746-6.559-1.938-8.793-3.876c-3.279-0.895-5.812-3.279-8.645-5.067
			c-0.596-1.043-1.342-2.086-1.342-3.13c0-0.148-0.148-0.298-0.148-0.298c2.98,0.745,5.812,2.98,8.793,4.77
			c2.385,1.341,3.727,3.13,6.26,3.726c4.32,0.895,7.75,3.876,12.221,3.577c8.197,2.087,17.141,1.938,26.977,1.341
			c-1.49-3.428,1.043-4.769-0.148-6.855c0.148-0.895,0.297-1.49,0.596-2.087c0.447-0.446,0.744-0.894,1.34-0.446
			c0.299,0.298,0.449,0.446,0.746,0.745c-0.297,0.894,0.299,1.49,0.746,1.937c-0.447,1.938,0,3.876-0.299,6.261
			c7.303,0.745,12.221-1.342,18.184-1.64c2.533-1.192,6.408-1.49,9.537-2.385c2.832-0.894,6.26-0.894,8.943-2.533
			c2.236,0.297,4.77-0.447,6.559-2.684c3.875,0.149,6.855-2.683,11.326-3.576c0-1.192,0-0.746,0-0.746
			c0.744-0.298,2.234-1.938,4.023-1.341C1185.979,847.175,1185.83,847.771,1185.531,848.367z"/>
		<path style="fill:#FF0050;" d="M1087.463,805.146c1.639,0,4.025-0.149,5.812-0.298c4.322-2.683,11.029,0,16.098,0.597
			c3.129-1.789,8.346-0.745,11.625-1.044c4.768-1.192,11.027,0.299,16.543,0.299c9.688,0,20.865-0.299,30.553-0.745
			c1.49-0.149,2.98-1.044,4.322-0.448c0.148,0.149,0.297-0.148,0.447-0.148c-3.428,2.235-7.602,2.384-11.029,3.875
			c-4.918,4.322-10.582,6.558-15.799,9.837c-6.26,2.831-12.668,4.918-18.33,9.24c-1.789,0.894-3.43,1.938-5.217,2.831l-4.322,2.088
			l4.918,0.297c11.625,0.746,22.504-2.086,34.428-0.446c4.77,0,9.24-1.938,13.861-1.044c1.191-0.149,2.682,0,3.727,0
			c-0.15,0.299,0,0.895-0.15,1.044c-1.191,0-2.236,0.298-3.277,1.043c-1.193,0.597-2.684,0.597-4.025,0.895
			c-4.023,0.447-8.049-0.149-12.072,0.745c-10.881,0.298-21.461-1.043-32.043,0.149c-4.918-0.895-9.836,1.64-14.605,0.298
			c-3.131,0.745-7.154-0.895-9.539,0.894c-7.154-0.745-14.158-1.937-21.611-1.937c-1.639-0.597-4.174,0-4.918-1.789
			c-0.148-0.148,0.895-1.64,0.895-0.895c8.049-2.087,14.904,2.684,24.145,1.64c4.77-0.597,9.688,0,14.754-1.491
			c1.492-2.086,3.727-1.937,5.367-3.278c2.98-0.447,5.961-1.191,7.898-3.279c7.602-3.726,15.35-5.066,21.461-10.581
			c1.789-0.745,3.576-1.64,5.516-3.279c0-0.446,4.32-2.385,4.32-2.832c-0.148-0.297-4.619,0.746-4.619,0.149
			c-5.812,0-11.178-1.043-15.799,0.597c-8.346-2.087-16.99-2.236-25.934-0.299c-6.408-0.744-12.965-1.639-19.225-0.447
			c-5.217-2.235-11.029,2.386-15.799-1.788c-0.447-1.342-2.832-0.894-2.682-2.533
			C1078.223,802.166,1082.545,804.997,1087.463,805.146z"/>
		<path style="fill:#FF0050;" d="M1176.439,733.012c2.832,2.086,4.174,5.216,4.918,8.644c-0.148,3.429-1.49,6.26-1.787,9.837
			c-0.447,0.895-0.447,1.64-2.385,1.937c-0.746,1.491-1.641,1.491-2.533,1.789c-0.299-0.148-0.447-0.298-0.447-0.596
			c0-0.596-0.447-1.341-0.447-1.938c0.447-0.745,0.895-0.745,0.895-1.192c0.148-0.596,1.787-0.447,1.639-1.49
			c1.639-2.981,1.49-6.856,1.49-10.582c-1.191-4.173-5.961-4.919-9.688-5.068c-3.279,0-7.154,0.149-10.432,0.745
			c-2.236,0.149-4.025-0.447-5.367,0.895c-2.98-0.447-5.961,0.745-8.941,0.596c-1.342,1.193-3.727,0.448-5.365,1.044
			c-9.24,1.639-18.332,2.385-27.871,2.534c-6.707,0.148-14.01,0.148-20.42-0.149c-4.617,0.894-8.791,0.149-12.965-0.895
			c-1.342-0.745-0.148-1.937,0.895-2.683c0.895,0,1.938-0.298,2.682,0.447c1.492-0.149,1.939,0.149,2.535,0.447
			c0,0.149,0,0.298,0,0.447c6.705-0.298,13.264,0.447,18.629-1.044c5.664,0.299,12.371,0.895,17.588,0.149
			c2.086-1.192,5.066,0.149,7.451-0.447c4.023-0.894,9.24-0.894,13.562-1.342c0.297-0.148-0.148-1.192,0.297-0.148
			c3.727-0.745,6.559-1.789,9.242-1.938c7.303-1.491,14.158-1.639,21.908-1.491C1173.311,731.224,1174.652,732.565,1176.439,733.012
			z"/>
		<path style="fill:#FF0050;" d="M1107.137,679.21c4.174,0.746,7.602,1.491,12.072,0.894c7.75,3.279,16.691-1.341,23.994,4.024
			c4.025,0.895,9.092,1.043,12.818,2.981c6.26,2.087,12.816,2.981,18.184,7.303c2.234,2.981,3.875,5.663,5.514,8.793
			c-0.299,2.98-0.148,6.409-2.832,7.75c-5.662,2.235-11.625,3.279-17.139,6.111c-11.924,0.298-22.953,4.62-34.131,2.682
			c-5.365,1.192-10.582-0.148-15.947,0.745c-9.24-0.596-17.736-4.322-26.678-5.961c-1.938-1.639-9.539-2.981-3.428-5.365
			c4.023-0.745,6.557,2.236,10.133,3.129c2.088,0.448,4.025,2.833,6.41,2.833c9.092,1.639,16.99,3.278,26.828,2.086
			c8.494,2.087,17.734,0,26.23-1.789c8.047-0.596,15.35-2.831,22.803-4.918c3.576-1.64,2.236-4.621,3.875-8.496
			c-1.938-1.341-1.342-4.173-2.682-5.365c-2.385-2.684-7.154-4.024-10.137-5.812c-4.918-0.746-9.836,0-13.412-2.832
			c-4.025-0.745-8.645,0.298-11.773-2.832c-13.414-2.236-26.979-1.192-39.496-4.322c-7.303-0.745-13.414-1.043-19.375-4.769
			c0.297-0.894,1.789-0.447,2.385-0.745C1090.594,674.739,1098.045,679.956,1107.137,679.21z"/>
		<path style="fill:#FF0050;" d="M1189.705,618.104c-11.775,5.216-21.91,12.072-32.193,18.928c-0.895,0.447-1.191,1.64-3.129,1.64
			c-4.77,4.77-10.73,5.216-15.053,9.539c-3.877,1.938-8.199,4.173-12.67,7.601c0.596,0.447,1.641,0.895,2.088,1.192
			c3.129,1.491,6.26,0.299,9.092,0.448c8.941,0.297,17.139-1.193,25.037-1.342c7.602,0,14.607-1.788,21.314-1.043
			c0.146,0.299,0.146,0.745,0.146,1.341c-0.445,3.428-4.32,1.044-5.961,1.64c-7.152,0.894-13.412,1.042-21.164,1.341
			c-9.537,0.596-18.928,0.149-28.465,1.192c-6.41,0.597-12.223,0-18.332,1.342c-10.135-1.193-20.418,4.024-30.555,1.937
			c-2.383,0-4.77,1.192-7.301,0.596c-1.045-0.745-5.814,0.149-3.43-2.086c7.75-1.192,15.799,0,23.697-1.043
			c11.924-0.447,24.592-1.192,33.385-8.793c1.492-0.447,2.684-1.49,3.727-2.235c3.727-2.236,7.75-3.875,10.881-7.154
			c3.129-1.043,5.961-2.832,8.494-4.621c4.471-4.47,10.434-6.11,15.352-9.539c0-0.596,0.447-0.447,0.746-0.596
			c1.34-0.596,2.383-1.788,4.023-2.98c0-0.596,4.322-1.491,4.172-1.938c-0.148-0.446-5.066-0.298-5.514-0.596
			c-6.855,1.49-15.352,2.086-23.25,2.832c-8.496,0.745-14.16,2.385-22.207,2.533c-2.832-0.596-6.855,2.236-9.688-0.148
			c-3.129,0-4.918-0.149-7.451,0.745c-2.236,0-4.473-0.298-7.154-0.298c-0.598-0.149-1.193,0.447-1.789,0.447
			c-2.535,1.64-3.875-2.235-5.812-0.447c-0.895,0.298-1.789,1.044-2.682-0.298c-4.771,1.342-8.496,0.597-12.52-1.639
			c-1.344,0.596-1.789-0.149-2.385-0.596c0-0.149,0-0.298,0-0.448c0.445-1.043,1.34,0.448,1.34,0.298c0,0,0.895,0.746,1.789-0.149
			c0.596-0.895,1.938,1.043,2.236,0.596c5.066,1.192,11.027,0.895,16.691,0.149c5.217,0.894,13.115-0.596,18.033,0.447
			c1.045-0.149,2.385-1.043,4.174-0.447c1.641-1.49,3.875-0.149,5.068-1.043c6.26-0.447,12.965-1.491,19.373-1.491
			c6.111-0.596,12.818-1.192,17.736-1.937c1.045,0.298,2.236-0.596,3.279,0.149c2.535-0.596,3.578-0.596,5.516-0.895
			c3.875-0.745,8.793-1.341,12.221-2.086c0.596,0,1.342-0.447,2.234-1.49c-0.744-1.341,0.895-0.745,1.045-0.745
			c1.342-0.597,3.576,0.596,5.812-0.15C1189.705,617.21,1189.854,617.657,1189.705,618.104z"/>
		<path style="fill:#FF0050;" d="M1188.064,581.293c1.939,0.745,3.279-0.298,4.77,0c-0.447,1.042-1.191,1.938-1.191,3.129
			c-0.596,1.64-2.684,1.938-3.875,3.13c-1.193,0.298-1.342,1.938-2.684,2.832c-3.129,1.938-5.961,4.024-9.092,6.26
			c-6.109,1.49-11.625,5.663-18.779,6.408c-5.514,2.534-12.668,2.385-18.777,2.534c-3.727,2.98-9.688,0.298-14.16,1.938
			c-2.234,0.298-3.576-0.596-5.363-0.596c-6.111,1.639-11.627-0.745-17.291-1.64c-4.023-1.789-8.346-2.236-12.221-4.322
			c-1.191-0.895-2.98-0.596-4.172-1.044c-4.77-3.129-10.285-5.067-14.607-8.495c-2.086-0.447-2.682-2.98-4.768-3.427
			c-0.746-1.044-2.236-1.938-1.342-4.174c-1.342-1.043-2.535-3.13,0-2.683c0.596-0.448,0.893-0.149,0.148,0.447
			c4.918,5.961,12.967,11.476,20.865,15.649c2.98,0,5.963,1.639,7.75,3.13c6.111,1.639,11.775,3.875,18.035,3.875
			c2.234,0,4.471,0.448,6.408-0.148c3.875,0.447,7.451,1.49,11.477,0.447c3.875-0.298,7.748-0.746,11.475-1.491
			c11.924-2.385,24.891-2.98,34.727-9.538c3.578-2.385,6.111-4.471,9.24-8.048c-0.445-0.745,1.938-0.596,1.49-1.64
			c-9.24,0.448-20.715,0.746-29.062,1.341c-3.725,1.64-8.049-0.298-12.072,0.298c-3.576,0.447-7.303-0.447-11.029-0.298
			c-1.789,0-3.428-0.298-5.066,0.298c-2.684-0.447-6.111,0.298-8.346-1.192c-1.043-0.895,1.34-0.745,1.639-1.342
			c2.385-0.894,4.77-1.192,7.453-0.149c2.086,0.298,4.172-1.043,6.109-1.043c5.514,0,10.283,1.491,14.01,1.043
			c0-0.448,1.789,0,3.279,0c1.043-0.298,2.086-0.298,2.682-0.149c3.279,0,5.367-0.596,8.348-0.149
			c5.365-1.341,12.072,0,16.395-1.192c1.34-0.298,1.191-0.149,2.533-0.298C1185.234,580.995,1186.277,580.25,1188.064,581.293z"/>
		<path style="fill:#FF0050;" d="M1083.289,555.808c2.236,0.299,3.727,2.534,6.26,2.534c4.771,2.384,9.24,3.577,15.055,3.875
			c0.895,0.448,2.385,0.596,3.428,0.895c3.279,0.298,6.26,1.789,9.389,1.789c1.938,0.596,4.621-0.448,6.41,1.937
			c2.383-0.596,4.172-1.192,5.662-1.937c0.596-1.193,2.236-2.683,2.086-4.322c1.045-1.64,0.15-2.98,0.895-5.067
			c0.895-2.832,0.895-4.472,2.385-7.452c0.746-0.597,1.49-1.193,2.385-1.043c0.598,1.49,0,3.278,0,5.067
			c-1.938,3.875-1.639,5.962-2.98,11.029c1.191,0.745,0.746,1.341,1.191,1.64c3.727,0.596,7.75,0.149,10.881-0.596
			c1.938,0.297,3.576-0.448,6.559-0.448c0.596-1.788,1.938-0.447,2.83-0.894c5.367-0.447,10.137-3.428,15.65-3.726
			c2.385-2.087,6.408-1.789,8.793-3.577c2.832,0.298,4.322-3.428,7.898-2.534c1.789-1.341,3.43-2.98,5.664-2.98
			c0.596,0.447,1.193,0.894,1.789,1.49c-0.299,2.235-2.832,2.385-4.471,3.577c-2.535,0.299-4.92,0.895-6.709,2.534
			c-3.277-0.149-5.215,2.683-8.346,2.533c-1.191,0.745-2.385,0.895-3.279,1.49c-1.191-0.149-2.234,0.298-3.129,0.746
			c-6.855,0-12.221,4.471-19.078,4.024c-0.893,0.596-2.533,0.596-3.426,0.745c-7.305,2.533-15.799,2.086-23.25,1.938
			c-3.43-0.895-7.602,0-10.584-1.491c-9.238-1.64-18.182-5.366-26.975-7.75c-4.174-1.64-8.049-4.173-11.924-6.26
			c-4.322-2.385-9.389-4.024-12.52-8.347c0-0.298,0-0.745,0.299-0.894C1068.834,548.654,1075.838,552.529,1083.289,555.808z"/>
		<path style="fill:#FF0050;" d="M1087.463,504.092c1.639,0,4.025-0.149,5.812-0.298c4.322-2.683,11.029,0,16.098,0.597
			c3.129-1.789,8.346-0.746,11.625-1.044c4.768-1.192,11.027,0.298,16.543,0.298c9.688,0,20.865-0.298,30.553-0.744
			c1.49-0.149,2.98-1.044,4.322-0.448c0.148,0.149,0.297-0.148,0.447-0.148c-3.428,2.236-7.602,2.384-11.029,3.875
			c-4.918,4.321-10.582,6.558-15.799,9.837c-6.26,2.832-12.668,4.918-18.33,9.24c-1.789,0.895-3.43,1.938-5.217,2.832l-4.322,2.087
			l4.918,0.298c11.625,0.745,22.504-2.086,34.428-0.447c4.77,0,9.24-1.938,13.861-1.043c1.191-0.149,2.682,0,3.727,0
			c-0.15,0.298,0,0.894-0.15,1.043c-1.191,0-2.236,0.297-3.277,1.043c-1.193,0.596-2.684,0.596-4.025,0.895
			c-4.023,0.447-8.049-0.149-12.072,0.745c-10.881,0.298-21.461-1.043-32.043,0.149c-4.918-0.894-9.836,1.64-14.605,0.298
			c-3.131,0.745-7.154-0.895-9.539,0.894c-7.154-0.745-14.158-1.938-21.611-1.938c-1.639-0.596-4.174,0-4.918-1.789
			c-0.148-0.148,0.895-1.639,0.895-0.894c8.049-2.087,14.904,2.682,24.145,1.639c4.77-0.596,9.688,0,14.754-1.491
			c1.492-2.086,3.727-1.937,5.367-3.278c2.98-0.447,5.961-1.192,7.898-3.279c7.602-3.726,15.35-5.067,21.461-10.582
			c1.789-0.745,3.576-1.64,5.516-3.279c0-0.447,4.32-2.385,4.32-2.832c-0.148-0.297-4.619,0.745-4.619,0.149
			c-5.812,0-11.178-1.043-15.799,0.596c-8.346-2.086-16.99-2.235-25.934-0.298c-6.408-0.744-12.965-1.639-19.225-0.447
			c-5.217-2.235-11.029,2.385-15.799-1.787c-0.447-1.343-2.832-0.896-2.682-2.535
			C1078.223,501.111,1082.545,503.942,1087.463,504.092z"/>
		<path style="fill:#FF0050;" d="M1105.498,436.429c6.258,1.043,11.475,1.789,17.586,0.745c4.023,0.596,6.855-0.149,10.434-1.043
			c3.426,0.894,8.494,0.447,12.369,1.043c3.279,1.49,6.559,0.447,9.986,0.447c4.172,0,8.047,0.298,12.369,0.298
			c1.342,0.149,2.982-0.895,4.322,0.745c2.236,0,3.875,0.895,5.365,1.341c1.789,1.491,5.217,1.044,7.006,2.832
			c2.98,0.745,4.471,3.875,6.408,5.813c1.342,1.49,2.682,1.639,3.279,3.577c-1.043,0.745-1.342,1.49-2.533,1.341
			c-2.832,0.149-2.236-2.832-4.174-4.024c-3.578-5.663-10.432-8.943-17.586-8.943c-1.193-0.147-2.088-0.893-3.578-1.191
			c-7.451,0.745-15.201,1.789-23.1,1.191c-6.41-2.532-14.457-1.042-21.463-1.341c-5.664,0.448-12.967-0.894-19.227,0.149
			c-4.471-1.49-8.943,0-13.562-0.745c-2.682,0.745-5.365-0.596-7.75,0.596c-4.471,0.149-8.793,0.299-12.816,0.149
			c-1.789,1.64-3.875-0.447-5.664-0.447c-1.043-0.447-1.043-1.49,0-1.938c4.619-0.446,8.494,0.149,12.818,0
			c6.408-0.148,12.965-0.894,19.076-1.49C1098.789,434.641,1101.92,437.174,1105.498,436.429z"/>
		<path style="fill:#FF0050;" d="M1189.406,379.795c3.727,0.447,6.26-0.447,7.154,1.342c0,0.149-0.148,0.446-0.148,0.596
			c-5.516,3.13-12.67,1.789-19.078,3.577c-11.326,1.64-22.951,2.534-33.385,5.217c-2.385,3.278-5.066,7.749-3.428,12.072
			c0.148,0.148-0.447,0-1.043,1.043c1.043,1.49-0.596,2.086-0.596,3.279c-0.598,2.831-0.299,6.408-1.492,11.326
			c8.645,1.938,16.842,1.789,23.996,3.727c5.217,1.49,12.52-0.895,17.736,1.788c1.938,0,4.322-0.298,5.664,1.342
			c0.297,0.745-1.045,0.745-1.641,0.745c-6.111-1.044-10.73-0.596-16.543-1.342c-6.855-2.98-17.289-0.447-24.742-3.428
			c-2.682,0-6.854,0.745-8.941-0.746c-7.004-1.639-15.352,0.448-21.908-2.682c-12.223,0.446-22.355-4.621-34.875-4.621
			c-0.596-0.596-0.596-1.639-1.939-1.787c-3.576-1.193-8.195,1.042-10.432-1.938c0.895-1.639,3.279-0.894,5.068-2.235
			c15.053-3.279,28.912-9.837,44.264-12.668c4.322-2.087,9.688-2.684,14.457-4.62c1.641-0.15,3.279-0.447,4.77,0.148
			c2.98-0.895,6.26-1.938,9.537-1.938c7.006-0.148,13.266-3.428,20.568-2.832c2.236-1.341,5.664-0.298,8.049-1.043
			c4.621-0.447,9.389-1.64,13.713-2.831c0.893-0.447,1.34-0.745,1.49-1.044c1.34-0.596,1.488-0.596,2.531-0.447
			C1188.213,379.943,1189.406,379.497,1189.406,379.795z M1133.07,391.867c-7.453,3.279-16.098,3.279-23.848,5.515
			c-9.092,2.533-17.586,7.601-27.869,9.539c0,2.533,1.043,3.427,2.83,3.576c4.174,1.491,8.049,3.131,12.818,3.727
			c8.793,1.191,19.076,0.446,27.424,2.533c2.234,0,5.514,0,8.494,0.895c1.49-1.789,1.641-3.577,2.98-4.472
			c0-1.788,0.447-3.13,0.598-4.471c0.297-2.235,0.297-4.322,0.744-5.962c0.746-2.832,1.193-3.875,1.492-6.26
			C1142.758,389.482,1135.752,392.017,1133.07,391.867z"/>
		<path style="fill:#FF0050;" d="M1177.93,333.443c-1.787,1.341-4.172,2.235-5.961,3.726c-7.303,2.087-15.201,4.024-23.102,4.024
			c-5.664,0.894-11.477,2.086-16.99,3.428c-2.98-0.298-6.408-0.895-9.836-0.149c-0.447,1.192-0.447,1.64-2.236,2.087
			c1.639,4.322,5.066,7.303,6.707,10.433c0.895,0.447,1.789,1.64,1.49,2.683c-0.596,1.789,0.299,1.789,1.342,2.832
			c1.34,0,2.533,0.149,3.727,0.745c3.129-1.043,5.514-1.043,8.047-0.149c2.832,1.64,5.217,0.447,8.346,0
			c5.963-0.894,11.627-2.235,17.736-2.533c4.77-0.149,9.539-0.149,14.605-0.149c0.447,0.149,0.895,0.299,0.746,0.745
			c0,0.447-0.596,0.895-1.043,1.044c-7.453,0.447-14.605,0.745-21.164,2.832c-4.918-0.149-8.941,1.341-13.562,0.894
			c-11.029-1.043-22.654,0-33.086,1.342c-4.621-1.044-8.197,0.895-12.67,0.596c-11.625-0.894-23.697-0.894-33.98-4.322
			c-1.49-0.447-0.746-1.64-1.49-2.683c0.148-0.447,0.895,0,1.191-0.148c3.578,0.745,6.707,2.384,10.285,2.235
			c0.148,0.148,0.148,0.148,0.297,0.298c6.111-0.298,11.773,1.64,17.141,1.341c4.023,2.236,8.494-0.596,12.816,0.149
			c5.516,0.895,10.135-1.043,15.5-1.788c0.746-0.597,1.789-1.193,2.832-2.385c-1.787-4.77-7.303-7.75-7.898-11.625
			c0.744,0-1.043-1.192-0.299-3.577c-4.619-1.342-8.346,0.447-11.773-1.192c-2.832-0.745-5.664,0.745-8.645-0.895
			c-4.023,1.938-7.602,0.149-11.477,0.447c-2.236-1.938-3.129,1.938-5.812,0.149c-2.533,0.745-5.961,1.191-8.049,0
			c0.15-0.597,0.15-1.043,0-1.64c2.236-1.341,5.367,0.447,7.602-1.341c3.279-0.299,5.664,1.49,8.943,0.894
			c9.537-1.788,20.119,0.298,29.809-0.298c6.705-0.298,14.008,0.745,20.418-1.49c10.135-1.64,20.717-2.981,30.254-4.918
			c2.385-1.49,5.217-3.13,8.197-2.981C1177.334,332.549,1177.781,332.847,1177.93,333.443z"/>
		<path style="fill:#FF0050;" d="M1170.479,301.251c-5.365,3.874-12.221,3.278-17.139,7.451c-1.938,0.597-4.025,1.64-5.664,2.683
			c-4.621-0.148-9.391,2.832-15.65,5.664c4.025,1.64,7.006,1.191,9.092,0.596c8.793,0,16.545-1.49,25.785-0.149
			c2.533,0,5.662-0.745,7.898,0.299c4.322,0.149,9.391-1.044,13.115,1.043c0.148,0.148,0.148,0.148,0.297,0.298
			c-3.129,0.895-7.152,0.597-10.283,0.448c-2.682-0.746-5.514,0.297-8.494,0.297c-5.812,0.149-11.924-1.937-17.141,0.597
			c-4.768,0.597-9.24-1.64-13.859,0c-4.174,1.341-8.348-0.745-12.223,1.192c-7.152-1.192-16.393,0.148-24.145-1.192
			c-8.793,0-17.734,0.597-26.379-0.894c-4.77-0.149-6.707-1.044-11.178-1.938c-0.15,0,0.744-1.043,0.744-1.342
			c4.77-2.831,6.408-3.726,11.477-5.663c7.004-2.831,14.457-2.235,21.461-4.173c9.838,0.148,19.525,1.49,26.678,10.88
			c13.117-7.899,27.127-8.793,39.795-15.649c5.664-1.789,10.879-4.62,16.543-6.408c0.895,0,2.385-0.597,3.428-0.299
			C1180.018,297.673,1175.248,299.76,1170.479,301.251z M1086.57,311.087c-1.939,0.596-4.322-0.149-6.111,1.044
			c-2.385-0.299-4.621,1.043-6.559,1.788l-3.576,2.533c1.34,0.149,6.557,0.597,8.047,0.895c1.938,1.938,5.365,1.043,7.75,1.639
			c11.029-1.49,23.4,0.299,36.664-0.297c-1.938-2.386-3.873-2.981-4.918-4.024c-2.086-2.087-7.898-4.322-11.773-5.962
			C1099.387,309.596,1092.232,308.106,1086.57,311.087z"/>
		<path style="fill:#FF0050;" d="M1185.531,268.907c-1.49,3.279-5.066,3.578-7.602,5.365c-3.428,1.79-7.152,3.578-11.027,4.025
			c-1.043,0.596-2.535,0.745-3.727,0.894c-9.986,1.789-19.674,5.812-30.105,6.11c-7.154,1.491-15.053,0.745-22.805,0.597
			c-6.408,0-14.605-1.788-21.014-4.62c-3.131-0.745-6.559-1.938-8.793-3.875c-3.279-0.895-5.812-3.279-8.645-5.067
			c-0.596-1.044-1.342-2.086-1.342-3.13c0-0.149-0.148-0.299-0.148-0.299c2.98,0.745,5.812,2.981,8.793,4.77
			c2.385,1.342,3.727,3.13,6.26,3.727c4.32,0.895,7.75,3.875,12.221,3.577c8.197,2.086,17.141,1.937,26.977,1.341
			c-1.49-3.428,1.043-4.769-0.148-6.855c0.148-0.895,0.297-1.49,0.596-2.087c0.447-0.447,0.744-0.894,1.34-0.447
			c0.299,0.299,0.449,0.447,0.746,0.745c-0.297,0.895,0.299,1.491,0.746,1.938c-0.447,1.938,0,3.875-0.299,6.261
			c7.303,0.745,12.221-1.342,18.184-1.641c2.533-1.191,6.408-1.49,9.537-2.384c2.832-0.895,6.26-0.895,8.943-2.534
			c2.236,0.298,4.77-0.447,6.559-2.683c3.875,0.149,6.855-2.683,11.326-3.577c0-1.192,0-0.745,0-0.745
			c0.744-0.298,2.234-1.938,4.023-1.342C1185.979,267.716,1185.83,268.312,1185.531,268.907z"/>
		<path style="fill:#FF0050;" d="M1087.463,225.688c1.639,0,4.025-0.149,5.812-0.298c4.322-2.683,11.029,0,16.098,0.596
			c3.129-1.788,8.346-0.744,11.625-1.043c4.768-1.192,11.027,0.299,16.543,0.299c9.688,0,20.865-0.299,30.553-0.746
			c1.49-0.148,2.98-1.043,4.322-0.447c0.148,0.149,0.297-0.148,0.447-0.148c-3.428,2.235-7.602,2.384-11.029,3.874
			c-4.918,4.322-10.582,6.559-15.799,9.838c-6.26,2.831-12.668,4.918-18.33,9.239c-1.789,0.895-3.43,1.938-5.217,2.832l-4.322,2.087
			l4.918,0.298c11.625,0.745,22.504-2.087,34.428-0.447c4.77,0,9.24-1.938,13.861-1.043c1.191-0.149,2.682,0,3.727,0
			c-0.15,0.298,0,0.895-0.15,1.043c-1.191,0-2.236,0.298-3.277,1.043c-1.193,0.598-2.684,0.598-4.025,0.895
			c-4.023,0.448-8.049-0.148-12.072,0.745c-10.881,0.299-21.461-1.042-32.043,0.149c-4.918-0.895-9.836,1.64-14.605,0.299
			c-3.131,0.745-7.154-0.895-9.539,0.894c-7.154-0.745-14.158-1.938-21.611-1.938c-1.639-0.596-4.174,0-4.918-1.789
			c-0.148-0.148,0.895-1.639,0.895-0.894c8.049-2.087,14.904,2.683,24.145,1.639c4.77-0.596,9.688,0,14.754-1.49
			c1.492-2.086,3.727-1.937,5.367-3.278c2.98-0.447,5.961-1.192,7.898-3.279c7.602-3.726,15.35-5.067,21.461-10.581
			c1.789-0.745,3.576-1.64,5.516-3.279c0-0.447,4.32-2.385,4.32-2.832c-0.148-0.298-4.619,0.745-4.619,0.149
			c-5.812,0-11.178-1.044-15.799,0.596c-8.346-2.086-16.99-2.235-25.934-0.298c-6.408-0.745-12.965-1.639-19.225-0.447
			c-5.217-2.235-11.029,2.385-15.799-1.788c-0.447-1.342-2.832-0.894-2.682-2.533
			C1078.223,222.707,1082.545,225.538,1087.463,225.688z"/>
	</g>
	<path style="fill:none;stroke:#17192D;stroke-width:3;" d="M2048,0"/>
	<path style="fill:none;stroke:#17192D;stroke-width:3;" d="M2048,1536"/>
	<path style="fill:none;stroke:#17192D;stroke-width:3;" d="M0,1536"/>
	<path style="fill:none;stroke:#17192D;stroke-width:3;" d="M0,0"/>
</g>
<g id="Layer_1">
</g>
</svg>
