<?xml version="1.0" encoding="iso-8859-1"?>
<!-- Generator: Adobe Illustrator 15.1.0, SVG Export Plug-In . SVG Version: 6.00 Build 0)  -->
<!DOCTYPE svg PUBLIC "-//W3C//DTD SVG 1.1//EN" "http://www.w3.org/Graphics/SVG/1.1/DTD/svg11.dtd">
<svg version="1.1" xmlns="http://www.w3.org/2000/svg" xmlns:xlink="http://www.w3.org/1999/xlink" x="0px" y="0px" width="2048px"
	 height="1536px" viewBox="0 0 2048 1536" style="enable-background:new 0 0 2048 1536;" xml:space="preserve">
<g id="aheadb_x5F_2">
	<g>
		<path style="fill:#17192D;" d="M973.233,1164.678c0.299,0.746,2.684,0.746,1.789,1.939c-4.174,2.83-9.836-0.299-14.307,2.086
			c-15.055,4.621-31.002,1.191-46.352,3.279c-8.943,1.191-17.289,1.191-26.082,2.98l-5.068-0.148l-0.148,0.596l5.068,2.236
			c5.811,1.191,13.264,1.34,18.777,2.682c5.217,1.342,9.688,1.49,14.756,2.98c5.514,1.043,10.879,0.447,17.139,0.596
			c0.447,0.299,1.191,0.15,1.492,0.596c-7.9,3.279-17.588,1.045-25.785,3.43c-2.236,1.938-5.961,1.34-8.645,2.533
			c-9.539,0-18.631,3.279-27.572,3.725c-1.043,0.896-2.832,1.045-4.322,1.641c0,0.596-4.023,1.49-3.875,1.789
			c0.148,0.447,4.77,0.297,4.918,1.043c14.756,2.236,28.168,0,41.732,1.639c8.346-3.129,16.99,1.789,25.039-0.895
			c9.537-3.129,20.268,0.447,28.764-2.83c2.533,0,5.217-1.342,7.451,0c2.684,0.148,7.154-2.535,9.24,0.297
			c0,0.299,0.299,0.148,0.447,0.299c-2.086,1.34-5.365,0.299-7.303,0.596c-11.326,2.832-23.25,3.576-35.023,5.365
			c-4.77,0-9.539,0.746-14.01-0.596c-5.812,0.148-11.775,0.596-17.885-0.447c-14.158-0.447-27.125,2.385-40.391-1.49
			c-4.918-1.49-9.688,0-14.01-1.043c0-0.895-3.277,0.744-2.533-0.596c0.895-0.449,1.49-1.939,3.129-2.236
			c6.709-3.727,15.502-2.684,22.953-5.365c9.092-1.641,19.375-2.684,28.764-4.918l4.918-1.193v-0.596l-4.918-0.895
			c-6.109-1.043-11.922-1.938-18.033-2.682c-7.451-3.428-16.246-3.131-23.697-6.41c-0.447-0.447-1.191-0.744-1.789-1.043
			c1.193-1.787,4.77-0.148,6.559-0.297c6.26-3.279,13.264-0.746,20.121-2.535c15.648-1.639,27.273-0.744,42.625-2.086
			c3.576-1.043,9.092-1.043,13.115-1.639c7.154-1.045,14.756,1.787,20.121-2.684
			C971.446,1163.635,972.338,1163.934,973.233,1164.678z"/>
		<path style="fill:#17192D;" d="M973.68,1117.283c1.193,0.598,2.385,0,3.727,0.299c1.043,0,1.789,0.299,2.684,0.895
			c0.148,0.746-0.746,1.342-1.193,2.088c-1.043,1.34-2.236-0.746-2.533-0.746c-0.299-0.596-1.789,0.746-3.279-1.49
			c-2.98,0.895-5.664,0.895-7.75,0.299c-4.174,0.447-8.793-0.746-12.818,0.893c-1.639,0.15-2.531,2.088-3.277,2.98
			c-0.15,0-0.746,1.789-2.088,2.385c-1.936,1.789-4.768,4.621-5.662,5.367c-0.746,0.744,0-0.895-1.342,0.596
			c-0.746,0.596-0.447,0.895-1.49,2.533c-1.342,1.639-4.025,4.471-4.621,5.217c-0.893,1.789-1.787,3.875-2.83,6.26
			c3.129,2.086,6.26,1.49,8.346,2.832c2.682,0.148,5.961,0.744,8.793,1.49c1.641-1.342,2.832,0.297,4.023,0.297
			c1.639,0.895,4.174,0.746,6.111,1.641c3.727,0.596,7.004,2.832,11.178,2.086c1.49,0.299,3.277,0.895,4.77,1.342
			c-0.15,0.297-0.297,0.596-0.596,0.596c-2.533,0.447-4.77-0.895-7.006-0.746c-0.596-0.445-1.043-0.596-1.639-0.445
			c-1.193-0.15-2.385-0.447-3.428-0.447c-2.385-0.746-4.025,0.596-7.9-1.938c0,2.234,0.299,0.895,0.299,0.895
			c-2.236-0.598-5.365-1.49-8.346-1.342c-1.789-1.193-4.023-0.746-5.814-1.193c-4.172-0.447-7.004-2.086-11.027-1.789
			c0,0-0.15-0.148-0.299-0.148c-1.191-0.744-2.533-0.297-3.279-1.043c-9.092-2.533-18.332-5.068-27.422-7.602
			c-2.088-1.043-3.875-1.49-6.111-2.385c-2.98-1.043-5.812-2.83-8.943-4.023c-3.129-1.191-6.109-3.131-9.688-4.172
			c-0.895-0.449-2.383,0.297-2.383-1.193c0-0.447-0.447-1.49-0.15-1.639c1.043-1.641,4.025-1.641,5.516-2.385
			c3.576-0.299,8.643-1.045,12.965-1.938c1.641-1.938,4.174-0.447,6.111-1.193c7.303,0.299,14.904-3.428,23.25-2.385
			c10.582-1.639,22.357-2.533,32.342-1.639C958.479,1116.986,966.081,1116.242,973.68,1117.283z M928.522,1119.818
			c-1.938-0.744-4.918,1.043-7.898,0.447c-3.578-0.596-7.453,0.596-11.029,1.191c-3.43-0.596-6.111,1.49-9.539,1.193
			c-2.234,0.297-5.961,0.297-8.941,0.895c-4.92,0.895-9.391,2.234-15.055,2.682c2.236,2.535,6.26,4.322,6.855,4.471
			c3.131,1.045,5.664,2.832,8.496,3.727c4.322,1.49,8.049,2.98,12.072,4.174c2.832,0.744,6.559,1.639,9.092,2.086
			c2.832-0.148,6.855,2.385,10.73,2.982c2.236,0.297,1.191,1.34,4.322,0.445c1.191-2.832,2.98-4.77,4.025-7.303
			c1.34-1.789,2.086-1.938,4.021-4.023c1.342-1.342,2.684-3.428,4.174-5.365c1.342-1.49,3.131-3.131,4.025-4.174
			c0-0.299,1.787-2.236,1.787-3.428c-2.086-0.447-4.471-0.447-5.812-0.596C935.825,1118.627,932.696,1119.223,928.522,1119.818z"/>
		<path style="fill:#17192D;" d="M990.969,1082.41c1.938,1.639,0,1.488-0.299,2.086c-8.346,7.303-19.971,5.812-28.912,11.625
			c-6.41,2.385-13.266,3.277-19.525,4.77c-4.918,0.148-9.389,2.234-14.01,1.342c-1.49,1.191-3.727,0-5.365,0.596
			c-10.73,0-16.842-2.086-25.188-3.875c-2.832,0.297-5.812-0.598-8.047-2.535c-3.877,0.447-7.006-0.744-9.838-2.234
			c-6.855-2.533-13.711-5.217-18.629-9.986c0,0.148-0.895-0.299-0.447-0.596c1.191-0.746,2.533,0.596,3.725,1.191
			c7.006,0.596,11.477,5.664,17.736,7.154c2.832,1.49,5.963,1.49,8.645,2.533c11.477,2.982,19.076,5.516,31.15,5.664
			c0.148,0,0.445-1.043,0.445,0.148c10.285-0.596,19.078-2.98,28.467-4.023c9.539-2.98,19.078-6.408,28.615-9.389
			c2.533-1.641,5.516-2.982,8.795-4.174c0.893,0,2.533-1.641,2.98-1.043C991.417,1081.664,992.459,1081.664,990.969,1082.41z"/>
		<path style="fill:#17192D;" d="M983.368,1029.5c0.15,0.447,0.15,1.043,0,1.49c-0.895,0.447-1.49,0.596-2.682,0.895
			c-0.746,0.148-1.49,0.148-2.236,0.148c-2.682,0.598-4.32,0.895-7.152,1.789c-0.598,0.299-0.895,0.596-1.49,0.895
			c-0.746,0-1.045-0.148-1.791-0.148c-3.129-0.15-7.301,1.043-8.047,0.744c-7.453,1.342-6.408,1.938-14.904,2.385
			c-6.109,0.297-10.582,0.895-16.246,1.49c0,2.98-1.936,5.812-2.383,8.494c-0.15,1.492-0.299,2.236-0.598,3.727
			c-0.596,1.938-1.787,2.832-1.49,4.918c0,4.174,0.299,1.344-2.086,5.516c-0.297,0.447-0.447,1.043-2.088,3.279
			c3.578-0.299,4.77-0.598,6.41-0.895c2.234,1.49,6.26,0.148,9.836,0.297c9.391,0.449,18.332-0.893,26.826-0.445
			c7.9,0.297,15.65-1.193,22.656-0.447c0.148,0.447,0.148,1.043,0.148,1.639c-0.596,3.576-4.77,0.895-6.408,1.639
			c-7.453,0.598-14.309,0.598-22.654,0.598c-10.135,0.297-20.27-0.598-30.553,0.148c-7.006,0.596-13.115-0.447-19.525,0.746
			c-10.879-1.789-21.908,3.576-32.639,1.043c-2.684-0.148-5.367,0.893-8.049,0.148c-1.342-0.746-6.111-0.297-3.576-2.385
			c8.346-0.895,16.99,0.148,25.486-0.148c12.518-0.596,4.918-1.193,8.195-1.49c4.322-0.447,6.855-0.299,11.328-0.299
			c4.023,0,6.26,0.447,10.582,0c0.895-2.086,1.49-3.279,2.385-5.068c1.938-3.725,0.596,1.492,1.49-5.514
			c0.297-2.234,0.447-2.832,0.447-5.066c0-1.939,0.895-2.832,1.34-4.77c0.447-1.342,0.299-2.832,0.596-5.365
			c-1.936,0-2.531,0.148-3.428,0.148c-3.129-0.895-7.451,2.236-10.283-0.447c-3.576-0.299-5.514-0.596-8.494,0.596
			c-2.088-0.148-4.322-0.445-7.006-0.744c-0.596-0.299-1.49,0.447-2.086,0.447c-2.385,1.342-3.875-2.533-6.111-0.746
			c-1.043,0-2.086,1.043-3.129-0.447c-4.918,1.342-8.793,0.895-12.967-1.789c-1.342,0.598-1.938-0.297-2.533-1.043
			c-0.15-0.148-0.299-0.447-0.15-0.744c0.447-1.193,1.191,0.596,1.492,0.447c0,0,0.893,0.744,1.787-0.15
			c0.895-0.744,1.639,1.193,2.533,0.746c5.664,1.342,11.775,1.342,17.588,0.596c5.662,1.342,14.01,0,19.375,1.342
			c1.342-0.148,2.533-1.193,4.619,0c1.789-1.938,4.025-0.447,5.365-1.342c6.857-0.148,13.861-0.744,20.719-0.895
			c6.705,0,4.471-1.043,9.537-1.789c1.043,0.299,2.682-0.445,3.428,0.15c1.938-0.299,3.727-0.299,5.664-0.596
			c4.023-0.596,9.539-0.895,13.115-1.789c0.598,0.299,1.342-0.148,2.385-1.342c-0.596-1.342,1.043-0.596,1.043-0.895
			C978.6,1028.605,980.834,1030.096,983.368,1029.5z"/>
		<path style="fill:#17192D;" d="M979.94,1001.631c-1.49,3.279-5.066,3.578-7.602,5.365c-3.426,1.789-7.152,3.576-11.027,4.023
			c-1.043,0.598-2.533,0.746-3.727,0.895c-9.986,1.789-19.674,5.812-30.105,6.111c-7.154,1.49-15.053,0.744-22.805,0.596
			c-6.408,0-14.605-1.787-21.014-4.619c-3.129-0.746-6.559-1.939-8.793-3.875c-3.279-0.895-5.812-3.279-8.645-5.068
			c-0.596-1.043-1.342-2.086-1.342-3.129c0-0.15-0.148-0.299-0.148-0.299c2.98,0.744,5.812,2.98,8.793,4.77
			c2.385,1.342,3.727,3.131,6.26,3.727c4.322,0.893,7.75,3.875,12.221,3.576c8.197,2.086,17.141,1.938,26.977,1.342
			c-1.49-3.428,1.043-4.77-0.148-6.855c0.148-0.895,0.299-1.49,0.596-2.088c0.447-0.447,0.744-0.893,1.342-0.447
			c0.297,0.299,0.447,0.447,0.744,0.746c-0.297,0.895,0.299,1.49,0.746,1.938c-0.447,1.938,0,3.875-0.297,6.26
			c7.301,0.744,12.221-1.342,18.182-1.641c2.533-1.191,6.408-1.49,9.539-2.385c2.83-0.893,6.26-0.893,8.941-2.533
			c2.236,0.299,4.77-0.447,6.559-2.682c3.875,0.148,6.855-2.684,11.326-3.578c0-1.191,0-0.744,0-0.744
			c0.746-0.299,2.236-1.938,4.025-1.342C980.387,1000.438,980.239,1001.035,979.94,1001.631z"/>
		<path style="fill:#17192D;" d="M984.114,942.164c-11.775,5.217-21.908,12.074-32.193,18.928c-0.895,0.449-1.191,1.641-3.129,1.641
			c-4.77,4.77-10.73,5.217-15.053,9.539c-3.875,1.938-8.197,4.174-12.67,7.602c0.598,0.445,1.641,0.895,2.088,1.191
			c3.129,1.49,6.26,0.299,9.092,0.447c8.941,0.299,17.139-1.193,25.037-1.342c7.602,0,14.607-1.789,21.314-1.043
			c0.148,0.299,0.148,0.746,0.148,1.342c-0.447,3.428-4.322,1.043-5.963,1.639c-7.152,0.895-13.412,1.043-21.162,1.342
			c-9.539,0.596-18.928,0.148-28.467,1.191c-6.408,0.598-12.223,0-18.332,1.342c-10.135-1.191-20.418,4.025-30.553,1.938
			c-2.385,0-4.771,1.193-7.303,0.596c-1.045-0.744-5.812,0.15-3.43-2.086c7.752-1.191,15.799,0,23.697-1.043
			c11.924-0.447,24.594-1.193,33.387-8.793c1.49-0.447,2.682-1.492,3.725-2.236c3.727-2.236,7.75-3.875,10.881-7.154
			c3.129-1.043,5.961-2.832,8.494-4.619c4.473-4.471,10.434-6.111,15.352-9.539c0-0.596,0.447-0.447,0.746-0.596
			c1.34-0.598,2.385-1.789,4.023-2.98c0-0.598,4.322-1.492,4.172-1.938c-0.148-0.447-5.066-0.299-5.514-0.598
			c-6.855,1.492-15.352,2.088-23.25,2.832c-8.496,0.746-14.158,2.385-22.207,2.533c-2.832-0.596-6.855,2.236-9.688-0.148
			c-3.129,0-4.918-0.148-7.451,0.746c-2.236,0-4.471-0.299-7.154-0.299c-0.598-0.148-1.193,0.447-1.789,0.447
			c-2.533,1.639-3.875-2.236-5.812-0.447c-0.895,0.299-1.789,1.043-2.682-0.299c-4.77,1.342-8.496,0.598-12.52-1.639
			c-1.342,0.596-1.789-0.148-2.385-0.596c0-0.148,0-0.299,0-0.447c0.445-1.043,1.34,0.447,1.34,0.299c0,0,0.896,0.744,1.789-0.15
			c0.598-0.895,1.938,1.043,2.236,0.598c5.066,1.191,11.029,0.893,16.693,0.148c5.215,0.895,13.115-0.596,18.033,0.447
			c1.043-0.15,2.385-1.043,4.174-0.447c1.639-1.49,3.873-0.148,5.066-1.043c6.26-0.447,12.967-1.492,19.375-1.492
			c6.111-0.596,12.816-1.191,17.734-1.936c1.045,0.297,2.236-0.598,3.279,0.148c2.535-0.596,3.578-0.596,5.516-0.895
			c3.875-0.744,8.793-1.342,12.221-2.086c0.596,0,1.342-0.447,2.236-1.49c-0.746-1.342,0.893-0.746,1.043-0.746
			c1.342-0.596,3.576,0.596,5.812-0.148C984.114,941.271,984.262,941.719,984.114,942.164z"/>
		<path style="fill:#17192D;" d="M960.864,874.65c5.812,1.492,9.984,6.41,15.797,8.199c0.895,1.639,2.832,2.533,3.727,4.172
			c-1.342,0.447-2.832-0.895-4.023-1.49c-1.043-1.043-2.088-1.639-3.578-1.789c-3.277-2.385-7.748-3.426-11.178-6.109
			c-2.533-0.895-6.26-1.193-9.092-2.533c-5.066-0.299-10.133-0.299-15.051,0.596c-4.77,0.895-9.391,2.832-13.117,6.111
			c-4.918,2.383-10.582,4.172-15.947,5.363c-8.346,4.174-18.928,3.727-27.572,0.299c-5.066,0-7.898-4.322-12.52-4.918
			c-1.34-1.043-2.533-2.086-4.172-2.684c-0.895-0.744-0.447-1.936-1.193-2.98c0-0.297-0.596,0.15-0.297,0.299
			c2.086,0.148,4.322,1.043,6.109,1.938c7.9,6.111,18.48,6.408,28.02,8.496c6.707-0.299,12.221-3.43,18.631-4.92
			c4.023-2.533,9.09-3.428,13.115-5.961c2.98-0.299,5.365-3.727,8.494-2.98c6.707-2.385,14.607-2.385,21.016,0
			C958.926,874.205,959.821,874.502,960.864,874.65z"/>
		<path style="fill:#17192D;" d="M979.196,853.488c0.447,0.15,0.744,0.299,1.043,0.598c-1.342,3.428-5.365,1.49-8.496,2.383
			c-2.682,0.449-5.217,0-7.898,0.15c-7.303,0.148-14.605-0.15-21.611,0c-3.727,0-8.645,0.299-12.52-0.15
			c-2.533-0.297-5.662,0-8.197,0.15c-6.109,0.596-11.922,0-18.332,0.447c-0.297-0.299-0.596-0.299-0.893-0.299
			c-2.684,1.342-5.664,0.15-8.197,0.596c-6.111,0.299-11.924,0.895-17.885,0.895c-4.174-1.789-8.496,0.895-12.818-0.148
			c-0.596-0.15,0.895-1.789,1.342-1.789c6.559-4.471,14.158,1.789,21.461-0.297c8.645-2.385,18.332-1.492,26.828-1.938
			c8.494-0.447,16.543,0.297,25.188,0c2.385-0.299,4.77-0.299,7.303-0.299c0.596,0,1.342,0.148,1.938,0.148
			c6.557-0.148,13.115-0.148,18.928-1.043C970.848,854.086,974.575,853.34,979.196,853.488z"/>
		<path style="fill:#17192D;" d="M995.44,810.865c-2.832,3.725-7.303,5.514-10.432,9.539c-4.621,4.768-11.477,7.898-16.246,11.326
			c-2.385,1.342-5.812,1.789-8.645,3.428c-1.789,0-2.98,0.744-4.471,1.193c0-0.15-0.299,0-0.447-0.15
			c-1.938,1.342-3.875,1.641-4.471,1.789c0,0-0.596,0.895-1.789,0.447c-5.812,1.191-10.283,3.131-16.096,2.98
			c-6.707,1.191-14.756-0.148-21.164-0.746c-1.639-0.445-3.129-0.596-4.621-0.596c-0.895-0.596-1.49-0.148-2.98-1.34
			c-1.191,0.893-2.234-0.15-2.98-0.299c-4.77,0.299-5.514-2.684-10.135-2.98c-3.576-1.789-8.049-2.98-12.221-5.068
			c-4.77-2.98-10.283-5.662-14.605-9.092c-4.324-3.428-8.496-7.004-11.477-11.475c-0.299-0.447-1.639-1.938-0.447-1.342
			c4.023,2.236,6.408,5.812,10.582,8.049c10.135,7.748,21.611,13.264,33.385,17.586c1.342,0.746,3.131,0.746,4.471,1.639
			c2.684,0.598,5.068,1.641,7.75,1.789c8.496,1.938,16.395,0.447,24.891,0.744c6.109-1.041,13.562-0.744,19.076-3.576
			c1.939,0,2.086-1.639,4.025-1.342c2.234-1.34,6.258-1.043,8.793-2.83c1.49-0.299,2.385-1.641,4.471-2.088
			c0.596-1.043,1.789-1.043,2.682-1.49c1.492,0.148,2.088-1.639,3.578-2.533c0.744,0.447,1.639-0.15,2.385-0.895
			c0-0.895,0.596-0.744,1.043-0.744c0.299-0.299,0.746-0.895,0.895-1.342c0.299-0.15,0.447-0.15,1.043-0.15
			c1.787-3.725,5.217-4.172,7.154-7.004c2.98-1.789,3.875-6.111,7.451-6.557C996.633,808.928,995.739,809.822,995.44,810.865z"/>
		<path style="fill:#17192D;" d="M983.368,756.467c0.15,0.447,0.15,1.043,0,1.49c-0.895,0.447-1.49,0.596-2.682,0.895
			C979.94,759,979.196,759,978.45,759c-2.682,0.596-4.32,0.895-7.152,1.789c-0.598,0.299-0.895,0.596-1.49,0.895
			c-0.746,0-1.045-0.15-1.791-0.15c-3.129-0.148-7.301,1.045-8.047,0.746c-7.453,1.342-6.408,1.938-14.904,2.385
			c-6.109,0.297-10.582,0.895-16.246,1.49c0,2.98-1.936,5.812-2.383,8.494c-0.15,1.49-0.299,2.236-0.598,3.727
			c-0.596,1.938-1.787,2.832-1.49,4.918c0,4.174,0.299,1.342-2.086,5.516c-0.297,0.447-0.447,1.043-2.088,3.277
			c3.578-0.297,4.77-0.596,6.41-0.893c2.234,1.49,6.26,0.148,9.836,0.297c9.391,0.447,18.332-0.895,26.826-0.447
			c7.9,0.299,15.65-1.191,22.656-0.447c0.148,0.447,0.148,1.043,0.148,1.641c-0.596,3.576-4.77,0.895-6.408,1.639
			c-7.453,0.596-14.309,0.596-22.654,0.596c-10.135,0.299-20.27-0.596-30.553,0.15c-7.006,0.596-13.115-0.447-19.525,0.744
			c-10.879-1.787-21.908,3.578-32.639,1.045c-2.684-0.15-5.367,0.893-8.049,0.148c-1.342-0.746-6.111-0.299-3.576-2.385
			c8.346-0.895,16.99,0.148,25.486-0.148c12.518-0.596,4.918-1.193,8.195-1.492c4.322-0.447,6.855-0.297,11.328-0.297
			c4.023,0,6.26,0.447,10.582,0c0.895-2.088,1.49-3.279,2.385-5.068c1.938-3.727,0.596,1.492,1.49-5.514
			c0.297-2.236,0.447-2.832,0.447-5.066c0-1.939,0.895-2.834,1.34-4.77c0.447-1.342,0.299-2.832,0.596-5.367
			c-1.936,0-2.531,0.15-3.428,0.15c-3.129-0.895-7.451,2.234-10.283-0.447c-3.576-0.299-5.514-0.596-8.494,0.596
			c-2.088-0.148-4.322-0.447-7.006-0.744c-0.596-0.299-1.49,0.445-2.086,0.445c-2.385,1.342-3.875-2.533-6.111-0.744
			c-1.043,0-2.086,1.043-3.129-0.447c-4.918,1.342-8.793,0.895-12.967-1.789c-1.342,0.598-1.938-0.297-2.533-1.043
			c-0.15-0.148-0.299-0.447-0.15-0.744c0.447-1.193,1.191,0.596,1.492,0.445c0,0,0.893,0.746,1.787-0.148
			c0.895-0.746,1.639,1.193,2.533,0.746c5.664,1.342,11.775,1.342,17.588,0.596c5.662,1.342,14.01,0,19.375,1.342
			c1.342-0.15,2.533-1.193,4.619,0c1.789-1.938,4.025-0.447,5.365-1.342c6.857-0.148,13.861-0.744,20.719-0.895
			c6.705,0,4.471-1.043,9.537-1.789c1.043,0.299,2.682-0.445,3.428,0.15c1.938-0.299,3.727-0.299,5.664-0.596
			c4.023-0.598,9.539-0.896,13.115-1.789c0.598,0.297,1.342-0.148,2.385-1.342c-0.596-1.342,1.043-0.596,1.043-0.895
			C978.6,755.573,980.834,757.063,983.368,756.467z"/>
		<path style="fill:#17192D;" d="M877.7,692.231c2.234,0.299,3.725,2.535,6.26,2.535c4.77,2.383,9.24,3.576,15.053,3.875
			c0.895,0.447,2.385,0.596,3.428,0.895c3.279,0.297,6.26,1.787,9.391,1.787c1.936,0.596,4.619-0.447,6.408,1.938
			c2.385-0.596,4.172-1.191,5.662-1.938c0.596-1.191,2.236-2.682,2.086-4.322c1.045-1.639,0.15-2.98,0.896-5.066
			c0.893-2.832,0.893-4.473,2.383-7.451c0.746-0.598,1.49-1.193,2.387-1.045c0.596,1.49,0,3.279,0,5.068
			c-1.939,3.875-1.641,5.961-2.982,11.029c1.193,0.744,0.746,1.34,1.193,1.639c3.725,0.596,7.75,0.148,10.879-0.596
			c1.938,0.297,3.576-0.447,6.559-0.447c0.596-1.789,1.938-0.447,2.832-0.895c5.365-0.447,10.135-3.428,15.648-3.727
			c2.385-2.086,6.408-1.787,8.793-3.576c2.832,0.297,4.322-3.428,7.898-2.533c1.789-1.342,3.43-2.982,5.664-2.982
			c0.598,0.447,1.193,0.895,1.789,1.49c-0.297,2.236-2.832,2.387-4.471,3.578c-2.535,0.299-4.918,0.895-6.707,2.533
			c-3.279-0.148-5.217,2.684-8.346,2.533c-1.193,0.746-2.387,0.895-3.279,1.492c-1.193-0.15-2.236,0.297-3.131,0.744
			c-6.855,0-12.221,4.471-19.078,4.025c-0.893,0.596-2.531,0.596-3.426,0.744c-7.303,2.533-15.799,2.086-23.25,1.938
			c-3.428-0.895-7.602,0-10.582-1.49c-9.24-1.641-18.184-5.365-26.977-7.75c-4.174-1.641-8.049-4.174-11.924-6.26
			c-4.322-2.385-9.389-4.023-12.52-8.348c0-0.297,0-0.744,0.299-0.893C863.243,685.079,870.247,688.954,877.7,692.231z"/>
		<path style="fill:#17192D;" d="M964.887,650.502c-5.365,3.873-12.221,3.277-17.139,7.451c-1.938,0.596-4.025,1.639-5.664,2.684
			c-4.619-0.15-9.389,2.832-15.648,5.662c4.023,1.641,7.004,1.193,9.09,0.598c8.793,0,16.545-1.492,25.785-0.15
			c2.533,0,5.662-0.744,7.898,0.299c4.322,0.148,9.391-1.043,13.115,1.043c0.148,0.148,0.148,0.148,0.299,0.299
			c-3.131,0.895-7.154,0.596-10.285,0.447c-2.682-0.746-5.514,0.297-8.494,0.297c-5.812,0.15-11.924-1.938-17.139,0.596
			c-4.77,0.598-9.24-1.639-13.861,0c-4.174,1.342-8.348-0.744-12.221,1.193c-7.154-1.193-16.395,0.148-24.146-1.193
			c-8.793,0-17.734,0.598-26.379-0.893c-4.77-0.148-6.707-1.045-11.178-1.938c-0.15,0,0.744-1.043,0.744-1.342
			c4.77-2.832,6.41-3.727,11.477-5.664c7.004-2.83,14.457-2.234,21.463-4.174c9.836,0.15,19.523,1.492,26.678,10.881
			c13.115-7.9,27.125-8.793,39.793-15.648c5.664-1.789,10.881-4.621,16.543-6.41c0.895,0,2.385-0.596,3.428-0.297
			C974.426,646.924,969.657,649.012,964.887,650.502z M880.979,660.338c-1.938,0.596-4.322-0.148-6.111,1.043
			c-2.385-0.297-4.621,1.043-6.559,1.789l-3.576,2.533c1.342,0.15,6.559,0.596,8.049,0.895c1.938,1.938,5.363,1.043,7.75,1.639
			c11.027-1.49,23.398,0.299,36.662-0.297c-1.938-2.385-3.873-2.98-4.918-4.023c-2.086-2.088-7.898-4.324-11.773-5.963
			C893.795,658.848,886.641,657.358,880.979,660.338z"/>
		<path style="fill:#17192D;" d="M960.864,619.649c5.812,1.49,9.984,6.41,15.797,8.197c0.895,1.641,2.832,2.535,3.727,4.174
			c-1.342,0.447-2.832-0.895-4.023-1.49c-1.043-1.043-2.088-1.639-3.578-1.789c-3.277-2.385-7.748-3.428-11.178-6.109
			c-2.533-0.895-6.26-1.193-9.092-2.535c-5.066-0.297-10.133-0.297-15.051,0.598c-4.77,0.895-9.391,2.83-13.117,6.111
			c-4.918,2.383-10.582,4.172-15.947,5.363c-8.346,4.174-18.928,3.727-27.572,0.299c-5.066,0-7.898-4.322-12.52-4.918
			c-1.34-1.043-2.533-2.086-4.172-2.684c-0.895-0.746-0.447-1.938-1.193-2.98c0-0.297-0.596,0.148-0.297,0.299
			c2.086,0.148,4.322,1.043,6.109,1.936c7.9,6.111,18.48,6.41,28.02,8.496c6.707-0.297,12.221-3.428,18.631-4.918
			c4.023-2.533,9.09-3.428,13.115-5.961c2.98-0.299,5.365-3.727,8.494-2.98c6.707-2.385,14.607-2.385,21.016,0
			C958.926,619.202,959.821,619.5,960.864,619.649z"/>
		<path style="fill:#17192D;" d="M852.065,574.641c0.297,2.535,1.34,4.322,1.787,7.004c-0.893,4.025-0.148,7.602,1.342,12.52
			c2.088-1.041,3.576-0.744,4.322-0.445c2.832-0.299,6.408,0.445,9.24,0.297c2.684-0.596,5.963-0.893,8.645-0.893
			c4.174-2.088,9.391-2.684,13.562-3.578c2.385,0.596,5.217,0,7.453,0.297c10.135,0,20.566-2.533,30.105-3.873
			c1.787,0.148,4.471-0.299,6.109,0.148c0.299-0.148,1.043-0.148,1.193-0.299c7.453-0.297,13.414-0.447,20.865-0.447
			c3.428,0,6.408,0.598,9.539,0.746h-0.148c-3.875,2.832-9.242,1.789-13.414,2.684c-6.111-1.492-12.52,1.639-19.078-0.895
			c-3.875,4.023-8.494,0.895-12.52,2.234c-3.725-0.447-8.195-0.299-11.326,1.641c-1.49-0.15-2.832,0.445-4.918-0.299
			c-3.578,2.086-8.049,1.043-11.773,1.043c-6.111-1.342-11.029,2.684-16.842,1.938c-4.174,2.086-8.943,1.789-13.713,1.789
			c-1.49-1.639-3.875-0.148-6.855-3.428c-1.043,6.557-0.447,10.432-0.746,14.457c0.746,3.129-0.445,6.557,0,9.984
			c-0.148,0.15-0.148,0.299-0.297,0.447c-1.193-0.148-1.49-1.49-1.938-2.385c0.895-2.98,0.744-5.961,0-8.941
			c-0.596-0.746,0-2.086,0.148-3.576c-1.639-2.236-0.299-5.516-1.49-7.602c0.746-2.385-0.297-4.918-0.148-7.303
			c-1.342-2.385,0.447-5.516-0.895-7.9c0-2.086-2.832-4.174-0.447-5.812c0.148-0.148,0.447-0.297,0.746-0.447
			C851.17,573.897,851.915,574.045,852.065,574.641z"/>
		<path style="fill:#17192D;" d="M979.94,547.813c-1.49,3.279-5.066,3.578-7.602,5.367c-3.426,1.787-7.152,3.576-11.027,4.023
			c-1.043,0.596-2.533,0.746-3.727,0.895c-9.986,1.787-19.674,5.812-30.105,6.109c-7.154,1.492-15.053,0.746-22.805,0.598
			c-6.408,0-14.605-1.789-21.014-4.621c-3.129-0.744-6.559-1.938-8.793-3.875c-3.279-0.895-5.812-3.279-8.645-5.066
			c-0.596-1.045-1.342-2.088-1.342-3.131c0-0.148-0.148-0.299-0.148-0.299c2.98,0.746,5.812,2.98,8.793,4.77
			c2.385,1.342,3.727,3.131,6.26,3.727c4.322,0.895,7.75,3.875,12.221,3.576c8.197,2.088,17.141,1.938,26.977,1.342
			c-1.49-3.428,1.043-4.768-0.148-6.855c0.148-0.895,0.299-1.49,0.596-2.086c0.447-0.447,0.744-0.895,1.342-0.447
			c0.297,0.299,0.447,0.447,0.744,0.744c-0.297,0.895,0.299,1.492,0.746,1.938c-0.447,1.939,0,3.875-0.297,6.262
			c7.301,0.744,12.221-1.342,18.182-1.641c2.533-1.191,6.408-1.49,9.539-2.385c2.83-0.895,6.26-0.895,8.941-2.533
			c2.236,0.297,4.77-0.447,6.559-2.684c3.875,0.15,6.855-2.682,11.326-3.576c0-1.191,0-0.746,0-0.746
			c0.746-0.297,2.236-1.938,4.025-1.342C980.387,546.622,980.239,547.217,979.94,547.813z"/>
		<path style="fill:#17192D;" d="M937.911,452.132c11.477,1.342,22.506,2.087,33.387,3.875c3.129,0.596,5.514,2.534,8.346,3.428
			c0.596,0.447,2.234,0.447,2.98,1.192c2.98,2.384,2.533,5.961,2.682,9.539c-2.086,4.322-4.619,9.538-9.537,11.923
			c-6.707,1.788-13.266,5.663-21.164,5.663c-4.174,2.385-9.689,1.789-14.158,2.682c-8.049,1.491-16.545,1.044-24.146,2.385
			c-5.812-0.447-12.965,1.192-18.479,0.895c-13.861-0.745-27.127,1.49-40.094-1.192c-0.297,0.148-0.596,1.043-0.148,0.745
			c0.596-0.597,2.234-0.745,3.279-0.745c4.172-3.875,9.986,0,15.5-1.193c4.322-0.447,8.346,0.596,12.816,0.299
			c6.857-0.448,13.713-1.044,20.867-0.895c5.811,0.149,12.221-1.192,18.48-1.937c1.342,0.447,3.576-0.149,4.918,0
			c14.158-1.64,29.062-3.13,40.689-10.136c3.576-1.638,6.258-4.47,8.344-8.792c-2.383-1.491-0.148-3.129-1.191-4.769
			c-5.961-6.26-14.904-6.409-22.654-8.645c-2.682-1.341-6.707-0.149-9.986-0.298c-6.705-0.149-13.264-2.087-19.375-1.192
			c-8.941,1.341-17.289-1.341-25.783,0.297c-4.172-1.192-8.793,0.149-12.818-0.446c-7.152,0.298-14.754-0.298-20.863-0.596
			c-0.746-0.298,0.148-1.043,0.148-1.043c0.148-0.149,0.297-0.895,1.342-1.043c3.725-0.894,7.75,0.746,11.475,0.447
			c1.49-0.895,4.322-0.447,6.111-0.596c11.475,1.938,22.207-2.832,33.684,0C927.627,452.431,932.696,451.536,937.911,452.132z"/>
		<path style="fill:#17192D;" d="M881.872,409.656c1.641,0,4.025-0.149,5.812-0.298c4.322-2.683,11.029,0,16.098,0.596
			c3.129-1.789,8.346-0.746,11.625-1.043c4.768-1.192,11.029,0.298,16.543,0.298c9.688,0,20.865-0.298,30.553-0.745
			c1.49-0.149,2.98-1.044,4.322-0.448c0.148,0.149,0.299-0.148,0.447-0.148c-3.428,2.236-7.602,2.384-11.029,3.875
			c-4.918,4.322-10.582,6.558-15.797,9.836c-6.26,2.833-12.67,4.918-18.332,9.241c-1.789,0.895-3.428,1.938-5.217,2.832
			l-4.322,2.087l4.918,0.298c11.625,0.745,22.504-2.087,34.428-0.447c4.77,0,9.24-1.938,13.861-1.043c1.191-0.149,2.682,0,3.727,0
			c-0.148,0.298,0,0.895-0.148,1.043c-1.193,0-2.236,0.298-3.279,1.043c-1.193,0.597-2.684,0.597-4.025,0.895
			c-4.023,0.447-8.049-0.149-12.07,0.745c-10.881,0.299-21.463-1.042-32.045,0.149c-4.918-0.894-9.836,1.64-14.605,0.298
			c-3.131,0.746-7.154-0.894-9.539,0.894c-7.154-0.746-14.158-1.938-21.611-1.938c-1.639-0.596-4.174,0-4.918-1.789
			c-0.148-0.148,0.895-1.639,0.895-0.894c8.049-2.087,14.904,2.683,24.145,1.639c4.77-0.596,9.688,0,14.754-1.491
			c1.492-2.086,3.727-1.937,5.367-3.278c2.98-0.447,5.961-1.192,7.898-3.279c7.602-3.726,15.35-5.067,21.463-10.581
			c1.787-0.745,3.576-1.64,5.514-3.279c0-0.447,4.322-2.385,4.322-2.832c-0.148-0.297-4.621,0.746-4.621,0.149
			c-5.812,0-11.178-1.043-15.797,0.596c-8.348-2.087-16.992-2.236-25.934-0.298c-6.408-0.745-12.967-1.639-19.227-0.447
			c-5.217-2.235-11.029,2.385-15.799-1.788c-0.445-1.342-2.832-0.895-2.682-2.534C872.631,406.675,876.954,409.506,881.872,409.656z
			"/>
		<path style="fill:#17192D;" d="M852.065,364.945c0.297,2.533,1.34,4.321,1.787,7.004c-0.893,4.024-0.148,7.601,1.342,12.52
			c2.088-1.043,3.576-0.745,4.322-0.447c2.832-0.298,6.408,0.447,9.24,0.299c2.684-0.597,5.963-0.895,8.645-0.895
			c4.174-2.087,9.391-2.683,13.562-3.577c2.385,0.596,5.217,0,7.453,0.297c10.135,0,20.566-2.533,30.105-3.875
			c1.787,0.148,4.471-0.298,6.109,0.148c0.299-0.148,1.043-0.148,1.193-0.298c7.453-0.298,13.414-0.447,20.865-0.447
			c3.428,0,6.408,0.597,9.539,0.745h-0.148c-3.875,2.832-9.242,1.789-13.414,2.683c-6.111-1.49-12.52,1.639-19.078-0.894
			c-3.875,4.023-8.494,0.894-12.52,2.235c-3.725-0.447-8.195-0.298-11.326,1.64c-1.49-0.149-2.832,0.447-4.918-0.298
			c-3.578,2.086-8.049,1.043-11.773,1.043c-6.111-1.342-11.029,2.683-16.842,1.938c-4.174,2.086-8.943,1.788-13.713,1.788
			c-1.49-1.638-3.875-0.148-6.855-3.427c-1.043,6.558-0.447,10.433-0.746,14.457c0.746,3.13-0.445,6.558,0,9.986
			c-0.148,0.149-0.148,0.298-0.297,0.447c-1.193-0.149-1.49-1.49-1.938-2.385c0.895-2.98,0.744-5.961,0-8.941
			c-0.596-0.745,0-2.086,0.148-3.577c-1.639-2.235-0.299-5.515-1.49-7.601c0.746-2.385-0.297-4.918-0.148-7.303
			c-1.342-2.385,0.447-5.515-0.895-7.899c0-2.087-2.832-4.173-0.447-5.812c0.148-0.15,0.447-0.299,0.746-0.448
			C851.17,364.199,851.915,364.348,852.065,364.945z"/>
		<path style="fill:#17192D;" d="M979.94,338.117c-1.49,3.279-5.066,3.578-7.602,5.366c-3.426,1.789-7.152,3.577-11.027,4.024
			c-1.043,0.597-2.533,0.746-3.727,0.894c-9.986,1.789-19.674,5.813-30.105,6.111c-7.154,1.491-15.053,0.745-22.805,0.596
			c-6.408,0-14.605-1.788-21.014-4.62c-3.129-0.745-6.559-1.938-8.793-3.875c-3.279-0.895-5.812-3.279-8.645-5.067
			c-0.596-1.043-1.342-2.086-1.342-3.13c0-0.149-0.148-0.299-0.148-0.299c2.98,0.746,5.812,2.981,8.793,4.77
			c2.385,1.341,3.727,3.13,6.26,3.726c4.322,0.894,7.75,3.875,12.221,3.577c8.197,2.086,17.141,1.937,26.977,1.341
			c-1.49-3.427,1.043-4.769-0.148-6.855c0.148-0.894,0.299-1.49,0.596-2.087c0.447-0.447,0.744-0.894,1.342-0.447
			c0.297,0.298,0.447,0.447,0.744,0.745c-0.297,0.895,0.299,1.49,0.746,1.937c-0.447,1.938,0,3.875-0.297,6.26
			c7.301,0.745,12.221-1.341,18.182-1.639c2.533-1.192,6.408-1.491,9.539-2.385c2.83-0.895,6.26-0.895,8.941-2.533
			c2.236,0.297,4.77-0.448,6.559-2.683c3.875,0.149,6.855-2.683,11.326-3.577c0-1.192,0-0.745,0-0.745
			c0.746-0.298,2.236-1.938,4.025-1.341C980.387,336.925,980.239,337.521,979.94,338.117z"/>
		<path style="fill:#17192D;" d="M964.887,304.883c-5.365,3.874-12.221,3.278-17.139,7.451c-1.938,0.597-4.025,1.64-5.664,2.684
			c-4.619-0.149-9.389,2.831-15.648,5.663c4.023,1.64,7.004,1.192,9.09,0.596c8.793,0,16.545-1.491,25.785-0.15
			c2.533,0,5.662-0.745,7.898,0.299c4.322,0.149,9.391-1.043,13.115,1.043c0.148,0.148,0.148,0.148,0.299,0.297
			c-3.131,0.895-7.154,0.596-10.285,0.448c-2.682-0.745-5.514,0.298-8.494,0.298c-5.812,0.149-11.924-1.937-17.139,0.596
			c-4.77,0.597-9.24-1.639-13.861,0c-4.174,1.342-8.348-0.745-12.221,1.193c-7.154-1.193-16.395,0.149-24.146-1.193
			c-8.793,0-17.734,0.597-26.379-0.894c-4.77-0.149-6.707-1.043-11.178-1.938c-0.15,0,0.744-1.043,0.744-1.341
			c4.77-2.832,6.41-3.727,11.477-5.664c7.004-2.832,14.457-2.235,21.463-4.174c9.836,0.149,19.523,1.491,26.678,10.88
			c13.115-7.899,27.125-8.793,39.793-15.649c5.664-1.789,10.881-4.621,16.543-6.409c0.895,0,2.385-0.597,3.428-0.298
			C974.426,301.306,969.657,303.393,964.887,304.883z M880.979,314.719c-1.938,0.596-4.322-0.149-6.111,1.044
			c-2.385-0.298-4.621,1.042-6.559,1.788l-3.576,2.534c1.342,0.149,6.559,0.596,8.049,0.894c1.938,1.938,5.363,1.043,7.75,1.639
			c11.027-1.491,23.398,0.298,36.662-0.297c-1.938-2.385-3.873-2.98-4.918-4.024c-2.086-2.087-7.898-4.322-11.773-5.962
			C893.795,313.229,886.641,311.738,880.979,314.719z"/>
		<path style="fill:#17192D;" d="M960.864,274.031c5.812,1.491,9.984,6.409,15.797,8.197c0.895,1.64,2.832,2.534,3.727,4.174
			c-1.342,0.447-2.832-0.895-4.023-1.491c-1.043-1.043-2.088-1.64-3.578-1.789c-3.277-2.385-7.748-3.427-11.178-6.111
			c-2.533-0.894-6.26-1.192-9.092-2.533c-5.066-0.298-10.133-0.298-15.051,0.596c-4.77,0.895-9.391,2.832-13.117,6.111
			c-4.918,2.384-10.582,4.173-15.947,5.365c-8.346,4.173-18.928,3.726-27.572,0.298c-5.066,0-7.898-4.322-12.52-4.918
			c-1.34-1.044-2.533-2.087-4.172-2.684c-0.895-0.745-0.447-1.937-1.193-2.981c0-0.297-0.596,0.149-0.297,0.298
			c2.086,0.149,4.322,1.044,6.109,1.938c7.9,6.111,18.48,6.409,28.02,8.496c6.707-0.298,12.221-3.428,18.631-4.918
			c4.023-2.534,9.09-3.428,13.115-5.961c2.98-0.298,5.365-3.726,8.494-2.981c6.707-2.385,14.607-2.385,21.016,0
			C958.926,273.584,959.821,273.883,960.864,274.031z"/>
		<path style="fill:#17192D;" d="M990.969,239.605c1.938,1.639,0,1.49-0.299,2.087c-8.346,7.303-19.971,5.812-28.912,11.625
			c-6.41,2.385-13.266,3.279-19.525,4.769c-4.918,0.149-9.389,2.236-14.01,1.342c-1.49,1.192-3.727,0-5.365,0.596
			c-10.73,0-16.842-2.086-25.188-3.875c-2.832,0.299-5.812-0.596-8.047-2.533c-3.877,0.447-7.006-0.746-9.838-2.236
			c-6.855-2.533-13.711-5.215-18.629-9.985c0,0.149-0.895-0.298-0.447-0.596c1.191-0.745,2.533,0.596,3.725,1.192
			c7.006,0.596,11.477,5.665,17.736,7.154c2.832,1.491,5.963,1.491,8.645,2.534c11.477,2.98,19.076,5.515,31.15,5.663
			c0.148,0,0.445-1.043,0.445,0.149c10.285-0.596,19.078-2.981,28.467-4.024c9.539-2.981,19.078-6.409,28.615-9.39
			c2.533-1.639,5.516-2.98,8.795-4.173c0.893,0,2.533-1.64,2.98-1.043C991.417,238.86,992.459,238.86,990.969,239.605z"/>
		<path style="fill:#17192D;" d="M983.368,186.695c0.15,0.447,0.15,1.044,0,1.491c-0.895,0.446-1.49,0.596-2.682,0.895
			c-0.746,0.148-1.49,0.148-2.236,0.148c-2.682,0.597-4.32,0.894-7.152,1.788c-0.598,0.299-0.895,0.597-1.49,0.895
			c-0.746,0-1.045-0.149-1.791-0.149c-3.129-0.148-7.301,1.044-8.047,0.745c-7.453,1.342-6.408,1.938-14.904,2.385
			c-6.109,0.298-10.582,0.895-16.246,1.49c0,2.981-1.936,5.813-2.383,8.496c-0.15,1.49-0.299,2.235-0.598,3.726
			c-0.596,1.938-1.787,2.831-1.49,4.918c0,4.174,0.299,1.342-2.086,5.515c-0.297,0.447-0.447,1.043-2.088,3.278
			c3.578-0.297,4.77-0.596,6.41-0.894c2.234,1.49,6.26,0.148,9.836,0.298c9.391,0.447,18.332-0.895,26.826-0.447
			c7.9,0.298,15.65-1.192,22.656-0.447c0.148,0.447,0.148,1.044,0.148,1.64c-0.596,3.577-4.77,0.895-6.408,1.64
			c-7.453,0.597-14.309,0.597-22.654,0.597c-10.135,0.298-20.27-0.597-30.553,0.148c-7.006,0.596-13.115-0.446-19.525,0.745
			c-10.879-1.789-21.908,3.577-32.639,1.044c-2.684-0.149-5.367,0.894-8.049,0.148c-1.342-0.745-6.111-0.298-3.576-2.384
			c8.346-0.895,16.99,0.148,25.486-0.149c12.518-0.596,4.918-1.192,8.195-1.49c4.322-0.448,6.855-0.299,11.328-0.299
			c4.023,0,6.26,0.447,10.582,0c0.895-2.086,1.49-3.278,2.385-5.067c1.938-3.726,0.596,1.49,1.49-5.514
			c0.297-2.235,0.447-2.832,0.447-5.067c0-1.938,0.895-2.832,1.34-4.77c0.447-1.342,0.299-2.832,0.596-5.366
			c-1.936,0-2.531,0.149-3.428,0.149c-3.129-0.895-7.451,2.235-10.283-0.447c-3.576-0.298-5.514-0.596-8.494,0.597
			c-2.088-0.149-4.322-0.447-7.006-0.745c-0.596-0.299-1.49,0.446-2.086,0.446c-2.385,1.343-3.875-2.533-6.111-0.745
			c-1.043,0-2.086,1.044-3.129-0.446c-4.918,1.341-8.793,0.894-12.967-1.789c-1.342,0.597-1.938-0.298-2.533-1.043
			c-0.15-0.149-0.299-0.447-0.15-0.745c0.447-1.192,1.191,0.596,1.492,0.446c0,0,0.893,0.745,1.787-0.148
			c0.895-0.745,1.639,1.192,2.533,0.745c5.664,1.342,11.775,1.342,17.588,0.597c5.662,1.341,14.01,0,19.375,1.341
			c1.342-0.148,2.533-1.192,4.619,0c1.789-1.938,4.025-0.447,5.365-1.341c6.857-0.149,13.861-0.745,20.719-0.895
			c6.705,0,4.471-1.043,9.537-1.788c1.043,0.298,2.682-0.447,3.428,0.148c1.938-0.298,3.727-0.298,5.664-0.596
			c4.023-0.596,9.539-0.895,13.115-1.789c0.598,0.299,1.342-0.148,2.385-1.341c-0.596-1.342,1.043-0.597,1.043-0.895
			C978.6,185.801,980.834,187.292,983.368,186.695z"/>
		<path style="fill:#17192D;" d="M979.196,169.109c0.447,0.149,0.744,0.299,1.043,0.597c-1.342,3.428-5.365,1.491-8.496,2.385
			c-2.682,0.447-5.217,0-7.898,0.148c-7.303,0.149-14.605-0.148-21.611,0c-3.727,0-8.645,0.299-12.52-0.148
			c-2.533-0.298-5.662,0-8.197,0.148c-6.109,0.597-11.922,0-18.332,0.448c-0.297-0.299-0.596-0.299-0.893-0.299
			c-2.684,1.342-5.664,0.149-8.197,0.597c-6.111,0.298-11.924,0.895-17.885,0.895c-4.174-1.789-8.496,0.894-12.818-0.149
			c-0.596-0.149,0.895-1.788,1.342-1.788c6.559-4.472,14.158,1.788,21.461-0.299c8.645-2.385,18.332-1.49,26.828-1.938
			c8.494-0.447,16.543,0.298,25.188,0c2.385-0.298,4.77-0.298,7.303-0.298c0.596,0,1.342,0.149,1.938,0.149
			c6.557-0.149,13.115-0.149,18.928-1.044C970.848,169.706,974.575,168.961,979.196,169.109z"/>
		<path style="fill:#17192D;" d="M877.7,143.774c2.234,0.299,3.725,2.535,6.26,2.535c4.77,2.384,9.24,3.576,15.053,3.874
			c0.895,0.447,2.385,0.596,3.428,0.894c3.279,0.299,6.26,1.789,9.391,1.789c1.936,0.596,4.619-0.447,6.408,1.938
			c2.385-0.596,4.172-1.192,5.662-1.938c0.596-1.192,2.236-2.683,2.086-4.322c1.045-1.639,0.15-2.98,0.896-5.067
			c0.893-2.832,0.893-4.472,2.383-7.451c0.746-0.597,1.49-1.192,2.387-1.044c0.596,1.49,0,3.278,0,5.067
			c-1.939,3.875-1.641,5.962-2.982,11.028c1.193,0.746,0.746,1.342,1.193,1.64c3.725,0.597,7.75,0.149,10.879-0.596
			c1.938,0.298,3.576-0.447,6.559-0.447c0.596-1.788,1.938-0.446,2.832-0.895c5.365-0.447,10.135-3.428,15.648-3.725
			c2.385-2.088,6.408-1.789,8.793-3.578c2.832,0.298,4.322-3.428,7.898-2.533c1.789-1.342,3.43-2.981,5.664-2.981
			c0.598,0.447,1.193,0.895,1.789,1.49c-0.297,2.236-2.832,2.386-4.471,3.577c-2.535,0.299-4.918,0.895-6.707,2.534
			c-3.279-0.149-5.217,2.683-8.346,2.533c-1.193,0.745-2.387,0.895-3.279,1.49c-1.193-0.148-2.236,0.299-3.131,0.745
			c-6.855,0-12.221,4.472-19.078,4.024c-0.893,0.597-2.531,0.597-3.426,0.745c-7.303,2.534-15.799,2.087-23.25,1.938
			c-3.428-0.894-7.602,0-10.582-1.49c-9.24-1.64-18.184-5.365-26.977-7.75c-4.174-1.64-8.049-4.173-11.924-6.26
			c-4.322-2.385-9.389-4.023-12.52-8.347c0-0.297,0-0.745,0.299-0.894C863.243,136.621,870.247,140.495,877.7,143.774z"/>
		<path style="fill:#17192D;" d="M930.161,95.636c5.814,0.448,11.775,1.789,18.035,2.534c7.602,0.895,15.5,1.788,22.652,5.365
			c3.727,3.726,8.348,5.664,11.328,10.582c0.447,2.683,2.385,2.235,1.49,5.515c0.148,0.447-0.299,0-0.299-0.597
			c-3.428,0.149-1.789-0.745-4.322-4.173c-3.875,1.192-6.707-0.597-9.537,0.596c-11.924-0.745-22.207,0-33.834,1.193
			c-2.83,1.341-6.408,1.341-9.688,0.894c-2.086-0.745-4.32,0.745-6.854,0.298c-7.752-0.446-16.395-0.446-23.996,0.597
			c-5.664-0.298-11.178,0-16.992,0.596c-2.234-0.446-4.768-1.192-7.898-0.298c-0.895,2.087-1.938,1.64-1.191,3.428
			c-0.299,0.299-0.596,0.745-1.045,1.044c-0.445-0.149-0.893,0-1.34-0.448c0.596-4.321,3.428-6.706,6.111-9.985
			c5.215-4.769,11.922-7.005,17.586-11.625c3.727-2.384,7.602-2.683,11.625-4.321c5.066-0.745,10.73-0.448,15.65-1.491
			C921.815,96.381,925.838,96.084,930.161,95.636z M906.614,99.361c-5.812-0.297-9.838,2.386-15.352,4.025
			c-0.299,0.298-1.639,1.639-2.385,2.086c-4.174,2.981-9.092,4.322-13.562,10.284c5.365-0.448,8.047,1.49,10.582,0.446
			c3.727,0.448,7.004-1.49,10.73-1.64c5.365,1.64,11.178,0.299,16.693,1.044c5.066,0.596,10.58-0.597,15.797-0.895
			c9.24-3.576,19.971-1.043,29.51-2.087c4.619,0,9.986-0.744,17.289,0.149c-2.832-5.961-7.9-7.005-11.326-8.942
			c-8.793-2.385-17.588-3.875-26.68-4.769c-1.787-0.298-4.023,0.446-5.662-0.597C924.051,98.915,914.213,96.084,906.614,99.361z"/>
		<path style="fill:#17192D;" d="M979.94,67.617c-1.49,3.279-5.066,3.577-7.602,5.365c-3.426,1.789-7.152,3.577-11.027,4.025
			c-1.043,0.596-2.533,0.744-3.727,0.893c-9.986,1.789-19.674,5.813-30.105,6.111c-7.154,1.49-15.053,0.745-22.805,0.596
			c-6.408,0-14.605-1.788-21.014-4.619c-3.129-0.745-6.559-1.938-8.793-3.876c-3.279-0.895-5.812-3.279-8.645-5.066
			c-0.596-1.044-1.342-2.087-1.342-3.13c0-0.149-0.148-0.299-0.148-0.299c2.98,0.745,5.812,2.98,8.793,4.77
			c2.385,1.341,3.727,3.13,6.26,3.726c4.322,0.896,7.75,3.876,12.221,3.577c8.197,2.087,17.141,1.938,26.977,1.342
			c-1.49-3.428,1.043-4.77-0.148-6.856c0.148-0.894,0.299-1.49,0.596-2.086c0.447-0.447,0.744-0.895,1.342-0.447
			c0.297,0.298,0.447,0.447,0.744,0.745c-0.297,0.895,0.299,1.49,0.746,1.937c-0.447,1.938,0,3.876-0.297,6.261
			c7.301,0.745,12.221-1.341,18.182-1.64c2.533-1.192,6.408-1.49,9.539-2.385c2.83-0.895,6.26-0.895,8.941-2.533
			c2.236,0.297,4.77-0.448,6.559-2.684c3.875,0.149,6.855-2.683,11.326-3.576c0-1.192,0-0.745,0-0.745
			c0.746-0.298,2.236-1.938,4.025-1.342C980.387,66.425,980.239,67.021,979.94,67.617z"/>
	</g>
	<path style="fill:none;stroke:#17192D;stroke-width:3;" d="M2048,0"/>
	<path style="fill:none;stroke:#17192D;stroke-width:3;" d="M2048,1536"/>
	<path style="fill:none;stroke:#17192D;stroke-width:3;" d="M0,1536"/>
	<path style="fill:none;stroke:#17192D;stroke-width:3;" d="M0,0"/>
</g>
<g id="Layer_1">
</g>
</svg>
