<svg xmlns="http://www.w3.org/2000/svg" width="2048" height="1536" viewBox="0 0 2048 1536"><g><g fill="#FF0050"><path d="M1135.752 1442.877c5.812.447 11.775 1.79 18.033 2.533 7.602.895 15.5 1.79 22.654 5.365 3.726 3.727 8.347 5.663 11.326 10.582.445 2.684 2.386 2.235 1.49 5.516.148.447-.3 0-.3-.598-3.427.15-1.788-.744-4.32-4.173-3.876 1.19-6.708-.598-9.538.597-11.924-.747-22.207 0-33.834 1.19-2.83 1.342-6.407 1.342-9.688.895-2.086-.744-4.322.746-6.855.3-7.75-.448-16.394-.448-23.992.595-5.664-.297-11.18 0-16.992.596-2.234-.446-4.77-1.19-7.898-.297-.895 2.085-1.938 1.64-1.19 3.427-.3.298-.6.744-1.046 1.043-.444-.147-.893 0-1.34-.446.597-4.322 3.43-6.707 6.11-9.984 5.216-4.77 11.923-7.006 17.587-11.625 3.727-2.387 7.6-2.684 11.624-4.324 5.066-.742 10.73-.443 15.65-1.488 4.172 1.04 8.196.742 12.518.295zm-23.55 3.727c-5.81-.3-9.835 2.386-15.35 4.023-.3.3-1.64 1.64-2.385 2.086-4.174 2.982-9.092 4.322-13.562 10.285 5.365-.447 8.047 1.49 10.582.445 3.725.446 7.004-1.49 10.73-1.64 5.364 1.64 11.178.3 16.692 1.043 5.064.597 10.58-.596 15.796-.895 9.24-3.575 19.97-1.042 29.51-2.085 4.62 0 9.986-.744 17.29.15-2.833-5.964-7.9-7.007-11.327-8.943-8.796-2.386-17.59-3.875-26.68-4.77-1.79-.3-4.024.446-5.663-.597-8.194.45-18.032-2.38-25.634.9zM1135.305 1401.594c4.62.3 9.838.148 14.904.896 1.34-1.043 2.98.596 4.32.744 3.43-.597 4.472 1.64 7.75 1.192 1.044.447 2.235.297 3.58.297 1.042.6 3.128-.297 4.47 1.343 5.215.596 9.09 2.088 13.562 1.788 1.342 1.938-2.09 3.28-2.09 5.218-1.34 1.79-2.828 2.086-4.02 3.276-9.54 6.41-19.823 10.285-31.15 12.67-2.83-.147-4.62 1.043-6.706 1.043-.446-.595-1.342.598-2.535.448-7.896.148-15.796 1.043-23.247.896-.15 0-.446-.3-.598-.3-3.428.896-7.602-.446-10.73-1.19-1.64-1.193-4.174-.598-5.81-1.64-2.982-.745-5.962-1.79-8.94-2.684-1.194 0-2.833.445-4.176-1.342-1.94.3-2.98-.447-3.876-.447-3.727-1.042-6.26-3.577-8.793-5.96.446-.746 1.044-1.64 1.64-1.79 5.962-4.32 14.01-7.452 21.163-8.196 3.877-1.49 7.752-1.938 11.774-3.278 2.386 0 4.322-1.64 6.707-2.086 4.62 0 8.94-1.79 13.86-.746 1.044-1.938 2.386-.447 4.77-.297 1.49-.152 2.83-.6 4.17.147zm-21.014 3.427c-3.874 1.343-8.495 1.64-12.07 2.386-6.708 3.428-14.905 3.428-21.91 6.557-1.64 1.342-3.876 1.64-4.77 4.322 1.788 1.938 4.024 1.938 5.366 3.43 3.576 1.49 7.45 1.938 11.026 2.98 2.685.744 5.367 1.043 8.197 2.385 4.32.893 8.495 1.938 12.966 1.79 16.546-.45 34.728-2.685 48.59-7.306 2.978-1.043 4.02-1.64 7.003-2.533l12.966-9.09c-4.322 0-3.428-.598-3.28-.745-4.47-1.043-9.09-1.343-14.01-2.236-1.786-.597-3.427.298-5.81-1.044-2.533.895-5.066-.895-7.304-.596-6.11-2.088-11.772-.6-18.63-.896l-.597-.596c-6.26.447-11.92.447-17.734 1.193zM1201.03 1358.97c-2.83 3.727-7.302 5.514-10.432 9.536-4.62 4.77-11.477 7.9-16.245 11.328-2.386 1.342-5.812 1.79-8.646 3.428-1.79 0-2.98.746-4.47 1.193 0-.15-.3 0-.448-.15-1.94 1.342-3.876 1.64-4.472 1.79 0 0-.6.895-1.79.446-5.81 1.192-10.282 3.13-16.095 2.98-6.707 1.19-14.757-.147-21.164-.745-1.643-.447-3.13-.597-4.622-.597-.896-.596-1.49-.147-2.98-1.342-1.19.896-2.235-.147-2.98-.297-4.77.296-5.513-2.686-10.134-2.98-3.576-1.79-8.05-2.982-12.222-5.068-4.77-2.98-10.284-5.664-14.604-9.092-4.324-3.43-8.496-7.005-11.478-11.476-.3-.447-1.64-1.938-.446-1.342 4.022 2.235 6.407 5.812 10.58 8.047 10.137 7.75 21.612 13.265 33.387 17.587 1.34.744 3.13.744 4.472 1.64 2.684.598 5.068 1.64 7.75 1.788 8.496 1.938 16.395.447 24.89.744 6.11-1.044 13.563-.745 19.077-3.577 1.937 0 2.085-1.64 4.022-1.342 2.235-1.34 6.26-1.042 8.795-2.83 1.49-.298 2.385-1.64 4.47-2.087.597-1.043 1.788-1.043 2.683-1.49 1.49.148 2.09-1.64 3.578-2.532.744.447 1.64-.147 2.386-.895 0-.896.596-.746 1.043-.746.3-.298.745-.894.895-1.34.297-.15.447-.15 1.043-.15 1.787-3.726 5.217-4.173 7.152-7.005 2.98-1.79 3.877-6.11 7.453-6.56.745 1.196-.15 2.09-.45 3.134zM1177.93 1310.53c-1.787 1.34-4.172 2.234-5.96 3.728-7.304 2.086-15.202 4.023-23.103 4.023-5.664.896-11.478 2.087-16.99 3.43-2.98-.3-6.408-.896-9.836-.15-.446 1.192-.446 1.64-2.235 2.088 1.64 4.32 5.066 7.303 6.707 10.434.896.445 1.79 1.64 1.49 2.682-.596 1.79.3 1.79 1.342 2.832 1.34 0 2.533.148 3.728.744 3.13-1.043 5.514-1.043 8.047-.147 2.83 1.64 5.216.447 8.345 0 5.963-.896 11.627-2.236 17.736-2.533 4.77-.15 9.54-.15 14.605-.15.447.15.896.3.746.746 0 .447-.595.896-1.042 1.043-7.453.446-14.604.745-21.164 2.83-4.918-.146-8.94 1.343-13.562.897-11.03-1.043-22.654 0-33.086 1.342-4.62-1.044-8.197.895-12.67.595-11.625-.895-23.697-.895-33.98-4.32-1.49-.448-.746-1.64-1.49-2.686.148-.448.896 0 1.19-.148 3.58.746 6.708 2.385 10.286 2.235l.297.297c6.11-.297 11.77 1.642 17.14 1.343 4.023 2.235 8.494-.597 12.816.147 5.516.896 10.135-1.043 15.5-1.787.746-.596 1.79-1.19 2.832-2.385-1.787-4.77-7.303-7.75-7.897-11.625.744 0-1.042-1.193-.3-3.578-4.617-1.34-8.345.446-11.77-1.19-2.833-.747-5.665.742-8.647-.897-4.022 1.938-7.602.147-11.477.447-2.236-1.938-3.13 1.938-5.812.147-2.532.746-5.96 1.193-8.05 0 .15-.596.15-1.043 0-1.64 2.237-1.34 5.368.448 7.604-1.34 3.28-.298 5.664 1.488 8.942.894 9.537-1.788 20.12.3 29.81-.298 6.705-.297 14.008.746 20.418-1.49 10.135-1.64 20.717-2.98 30.254-4.918 2.385-1.49 5.217-3.13 8.197-2.98.444.443.89.74 1.04 1.337zM1166.455 1242.42c5.812 1.49 9.984 6.408 15.797 8.197.895 1.64 2.832 2.533 3.727 4.172-1.343.446-2.833-.894-4.023-1.49-1.043-1.044-2.088-1.64-3.578-1.788-3.277-2.385-7.75-3.428-11.18-6.11-2.532-.896-6.26-1.19-9.09-2.533-5.067-.3-10.137-.3-15.055.595-4.77.896-9.39 2.832-13.114 6.11-4.917 2.386-10.58 4.173-15.946 5.366-8.346 4.173-18.928 3.728-27.572.298-5.065 0-7.897-4.32-12.52-4.918-1.34-1.043-2.533-2.086-4.173-2.683-.896-.746-.447-1.938-1.193-2.98 0-.298-.596.148-.297.298 2.086.15 4.32 1.043 6.108 1.938 7.9 6.11 18.48 6.41 28.02 8.495 6.708-.3 12.222-3.428 18.632-4.918 4.022-2.534 9.09-3.43 13.115-5.963 2.98-.297 5.364-3.727 8.494-2.98 6.706-2.384 14.603-2.384 21.015 0 .89.446 1.787.744 2.83.893zM1196.56 1207.992c1.94 1.64 0 1.49-.298 2.088-8.346 7.303-19.97 5.812-28.912 11.625-6.41 2.385-13.266 3.28-19.524 4.77-4.918.148-9.39 2.236-14.01 1.34-1.49 1.193-3.728 0-5.365.597-10.73 0-16.84-2.086-25.187-3.873-2.832.296-5.812-.6-8.05-2.536-3.874.447-7.003-.744-9.835-2.234-6.854-2.535-13.713-5.217-18.63-9.985 0 .15-.894-.3-.448-.597 1.193-.745 2.535.597 3.728 1.19 7.006.6 11.477 5.665 17.735 7.155 2.832 1.49 5.96 1.49 8.646 2.532 11.474 2.98 19.075 5.517 31.146 5.664.15 0 .447-1.044.447.147 10.283-.596 19.078-2.98 28.467-4.023 9.54-2.98 19.076-6.407 28.615-9.39 2.533-1.64 5.516-2.98 8.793-4.173.896 0 2.535-1.638 2.98-1.042.15 0 1.193 0-.297.744zM1188.96 1155.084c.147.447.147 1.043 0 1.49-.896.447-1.49.596-2.683.895-.746.147-1.49.147-2.236.147-2.683.596-4.32.895-7.153 1.79-.596.296-.895.595-1.49.894-.743 0-1.043-.15-1.788-.15-3.13-.146-7.305 1.047-8.05.747-7.45 1.34-6.406 1.938-14.902 2.386-6.11.297-10.582.895-16.246 1.49 0 2.98-1.938 5.81-2.385 8.493-.148 1.492-.298 2.236-.597 3.728-.596 1.938-1.787 2.832-1.49 4.918 0 4.174.3 1.342-2.086 5.516-.3.447-.446 1.043-2.088 3.277 3.578-.297 4.77-.597 6.408-.894 2.236 1.49 6.262.15 9.838.298 9.392.447 18.332-.895 26.826-.446 7.9.3 15.65-1.19 22.656-.447.147.447.147 1.045.147 1.64-.595 3.577-4.77.897-6.406 1.64-7.453.597-14.31.597-22.654.597-10.135.3-20.27-.596-30.555.15-7.005.596-13.113-.447-19.523.744-10.88-1.787-21.908 3.577-32.64 1.045-2.684-.15-5.366.894-8.048.148-1.343-.746-6.11-.3-3.576-2.385 8.346-.896 16.99.147 25.483-.148 12.522-.598 4.92-1.192 8.198-1.49 4.322-.448 6.854-.298 11.326-.298 4.024 0 6.262.446 10.584 0 .893-2.09 1.49-3.28 2.383-5.068 1.94-3.726.6 1.49 1.493-5.515.297-2.236.447-2.832.447-5.066 0-1.94.893-2.833 1.34-4.772.446-1.342.3-2.832.596-5.366-1.937 0-2.533.15-3.428.15-3.13-.896-7.45 2.233-10.283-.447-3.576-.3-5.516-.597-8.496.596-2.087-.147-4.323-.446-7.005-.743-.596-.3-1.49.445-2.088.445-2.383 1.342-3.873-2.533-6.11-.744-1.042 0-2.085 1.043-3.13-.447-4.918 1.343-8.79.896-12.965-1.788-1.342.598-1.938-.297-2.535-1.043-.147-.15-.297-.448-.147-.745.446-1.193 1.19.596 1.49.445 0 0 .895.746 1.788-.148.896-.744 1.64 1.193 2.533.746 5.665 1.342 11.776 1.342 17.59.596 5.66 1.343 14.01 0 19.374 1.343 1.342-.15 2.533-1.193 4.62 0 1.788-1.938 4.024-.447 5.364-1.343 6.856-.147 13.86-.744 20.717-.895 6.707 0 4.473-1.044 9.54-1.79 1.042.3 2.68-.445 3.427.15 1.938-.3 3.728-.3 5.664-.597 4.022-.598 9.537-.895 13.115-1.788.597.297 1.343-.148 2.386-1.343-.596-1.342 1.043-.596 1.043-.895 1.64-.598 3.876.893 6.41.297zM1140.37 1117.08c9.392-1.19 17.737 3.428 26.382 5.365 3.578 1.938 7.75 2.235 11.924 4.918 1.342-.445 1.49.596 1.938 1.192 0 .148-.148-.746-.148-.746-5.067 2.98-11.03 6.26-17.29 8.05-3.277 1.488-7.302 1.937-10.58 2.978-4.023 1.193-7.9 2.533-11.773 3.578-8.05.744-13.267 2.086-21.017 2.83-5.812-1.043-12.668-.447-17.885-2.683-3.278 1.19-7.302-.3-10.43-1.043-3.878.744-7.007-2.832-10.73-3.278-4.025-1.79-9.095-1.49-11.925-4.918.148-.15-1.64-1.193-.596-2.386.296-.3.446-.598.743-.895 2.532-1.79 4.32-4.322 7.45-5.664 6.855-3.876 14.607-7.6 23.253-7.304 4.618.895 9.09-2.98 13.71-.596 8.495.004 18.63-1.04 26.975.6zm-67.66 12.072c-.6 1.64-1.94 4.174 1.042 4.174 10.432 3.875 20.865 5.96 31.596 7.602 10.435 1.49 20.27 2.385 30.404-.45 12.967-3.724 26.678-6.107 41.283-12.964-8.494-1.64-13.265-4.174-18.48-5.067-11.475-.744-21.908-4.172-33.533-3.875-18.78.297-37.708 2.383-52.313 10.58zM1087.463 1074.605c1.64 0 4.025-.15 5.812-.3 4.32-2.684 11.028 0 16.098.597 3.13-1.79 8.346-.744 11.625-1.043 4.768-1.192 11.027.298 16.543.298 9.69 0 20.866-.3 30.554-.746 1.49-.148 2.98-1.043 4.322-.447.148.148.297-.147.447-.147-3.428 2.235-7.603 2.385-11.03 3.875-4.917 4.32-10.58 6.557-15.798 9.836-6.26 2.83-12.668 4.917-18.33 9.238-1.79.896-3.43 1.938-5.217 2.832l-4.322 2.09 4.918.296c11.625.746 22.504-2.086 34.428-.447 4.77 0 9.24-1.94 13.86-1.044 1.192-.147 2.683 0 3.728 0-.15.3 0 .896-.15 1.043-1.19 0-2.235.298-3.276 1.042-1.192.598-2.684.598-4.024.896-4.023.446-8.05-.148-12.072.745-10.88.298-21.46-1.043-32.043.148-4.918-.895-9.836 1.642-14.605.3-3.13.746-7.154-.896-9.54.896-7.152-.746-14.156-1.938-21.61-1.938-1.64-.598-4.173 0-4.917-1.79-.148-.146.895-1.638.895-.894 8.05-2.087 14.904 2.684 24.146 1.64 4.77-.597 9.688 0 14.754-1.49 1.492-2.087 3.727-1.94 5.367-3.277 2.98-.45 5.96-1.193 7.897-3.28 7.603-3.727 15.35-5.067 21.46-10.58 1.79-.747 3.577-1.64 5.518-3.28 0-.447 4.32-2.385 4.32-2.832-.148-.3-4.62.746-4.62.15-5.812 0-11.178-1.045-15.8.596-8.345-2.087-16.988-2.235-25.933-.298-6.408-.746-12.965-1.64-19.226-.447-5.216-2.234-11.027 2.385-15.798-1.787-.446-1.342-2.832-.895-2.682-2.535 5.063-.9 9.385 1.932 14.303 2.082zM1184.787 1013.35c.447.148.744.3 1.043.6-1.342 3.425-5.365 1.488-8.496 2.382-2.682.447-5.217 0-7.898.15-7.303.147-14.604-.15-21.61 0-3.728 0-8.646.297-12.52-.15-2.533-.297-5.663 0-8.197.15-6.11.596-11.924 0-18.333.446-.298-.3-.597-.3-.896-.3-2.68 1.343-5.66.15-8.194.597-6.11.3-11.924.896-17.885.896-4.173-1.788-8.495.896-12.816-.147-.6-.15.895-1.79 1.342-1.79 6.557-4.47 14.158 1.79 21.46-.298 8.647-2.385 18.333-1.49 26.83-1.936 8.493-.45 16.542.296 25.187 0 2.384-.3 4.77-.3 7.304-.3.596 0 1.342.147 1.938.147 6.557-.147 13.115-.147 18.928-1.043 4.466 1.193 8.193.447 12.814.596zM1189.705 954.78c-11.775 5.216-21.91 12.07-32.193 18.927-.895.447-1.19 1.64-3.13 1.64-4.77 4.77-10.728 5.216-15.052 9.538-3.877 1.938-8.2 4.174-12.67 7.603.596.446 1.64.895 2.088 1.19 3.13 1.49 6.26.3 9.092.447 8.94.3 17.14-1.19 25.037-1.342 7.602 0 14.607-1.787 21.314-1.043.147.3.147.746.147 1.342-.445 3.428-4.32 1.043-5.96 1.64-7.153.895-13.413 1.042-21.165 1.34-9.537.598-18.928.15-28.465 1.192-6.41.598-12.224 0-18.332 1.342-10.135-1.19-20.418 4.025-30.556 1.938-2.384 0-4.77 1.192-7.302.598-1.045-.746-5.813.148-3.43-2.088 7.75-1.19 15.8 0 23.697-1.043 11.924-.446 24.592-1.19 33.385-8.792 1.492-.447 2.684-1.49 3.727-2.236 3.728-2.236 7.75-3.875 10.88-7.154 3.13-1.043 5.963-2.83 8.495-4.618 4.472-4.472 10.435-6.11 15.353-9.54 0-.596.447-.446.746-.596 1.34-.596 2.384-1.79 4.023-2.98 0-.595 4.322-1.49 4.172-1.937-.147-.446-5.065-.3-5.514-.596-6.854 1.49-15.35 2.087-23.25 2.833-8.495.744-14.16 2.383-22.206 2.53-2.832-.596-6.855 2.236-9.688-.147-3.13 0-4.918-.147-7.45.746-2.237 0-4.475-.3-7.155-.3-.597-.147-1.192.448-1.788.448-2.535 1.64-3.875-2.234-5.812-.447-.895.3-1.788 1.045-2.682-.3-4.77 1.345-8.496.6-12.52-1.64-1.345.6-1.79-.146-2.386-.595v-.447c.445-1.042 1.34.448 1.34.3 0 0 .896.744 1.79-.147.596-.896 1.937 1.043 2.235.596 5.066 1.19 11.027.895 16.69.147 5.218.895 13.115-.597 18.033.446 1.045-.147 2.386-1.043 4.174-.446 1.642-1.49 3.875-.148 5.068-1.043 6.26-.447 12.965-1.49 19.373-1.49 6.11-.596 12.818-1.193 17.736-1.938 1.046.3 2.236-.596 3.28.148 2.534-.596 3.577-.596 5.516-.895 3.875-.745 8.793-1.342 12.22-2.088.597 0 1.343-.446 2.235-1.49-.743-1.34.896-.745 1.046-.745 1.342-.596 3.576.596 5.812-.148.007.445.156.892.007 1.34zM1135.752 876.386c5.812.447 11.775 1.79 18.033 2.534 7.602.896 15.5 1.788 22.654 5.365 3.726 3.726 8.347 5.664 11.326 10.582.445 2.682 2.386 2.234 1.49 5.515.148.447-.3 0-.3-.597-3.427.147-1.788-.745-4.32-4.173-3.876 1.19-6.708-.598-9.538.596-11.924-.745-22.207 0-33.834 1.192-2.83 1.342-6.407 1.342-9.688.894-2.086-.745-4.322.746-6.855.3-7.75-.447-16.394-.447-23.992.597-5.664-.298-11.18 0-16.992.597-2.234-.447-4.77-1.192-7.898-.298-.895 2.085-1.938 1.64-1.19 3.427-.3.298-.6.745-1.046 1.044-.444-.148-.893 0-1.34-.447.597-4.32 3.43-6.707 6.11-9.984 5.216-4.772 11.923-7.006 17.587-11.626 3.727-2.386 7.6-2.685 11.624-4.322 5.066-.745 10.73-.447 15.65-1.49 4.172 1.04 8.196.74 12.518.294zm-23.55 3.726c-5.81-.298-9.835 2.385-15.35 4.023-.3.297-1.64 1.64-2.385 2.086-4.174 2.98-9.092 4.323-13.562 10.285 5.365-.448 8.047 1.49 10.582.446 3.725.448 7.004-1.49 10.73-1.64 5.364 1.64 11.178.3 16.692 1.044 5.064.597 10.58-.597 15.796-.895 9.24-3.578 19.97-1.044 29.51-2.088 4.62 0 9.986-.745 17.29.15-2.833-5.964-7.9-7.007-11.327-8.943-8.796-2.386-17.59-3.876-26.68-4.77-1.79-.3-4.024.445-5.663-.6-8.194.455-18.032-2.377-25.634.902zM1185.53 848.367c-1.49 3.28-5.065 3.577-7.602 5.365-3.428 1.79-7.15 3.576-11.026 4.023-1.043.596-2.535.745-3.728.895-9.985 1.79-19.674 5.812-30.104 6.11-7.154 1.49-15.054.745-22.806.597-6.407 0-14.604-1.788-21.014-4.62-3.13-.745-6.56-1.937-8.793-3.875-3.28-.896-5.812-3.28-8.646-5.067-.595-1.043-1.34-2.086-1.34-3.13 0-.148-.148-.298-.148-.298 2.98.745 5.812 2.98 8.793 4.77 2.385 1.342 3.727 3.13 6.26 3.727 4.32.895 7.75 3.876 12.22 3.577 8.198 2.088 17.143 1.94 26.98 1.342-1.49-3.428 1.042-4.77-.15-6.855.15-.895.298-1.49.597-2.087.447-.445.744-.894 1.34-.445.3.298.45.445.746.744-.297.894.3 1.49.746 1.937-.447 1.938 0 3.876-.3 6.26 7.304.746 12.222-1.34 18.185-1.64 2.532-1.19 6.407-1.49 9.536-2.384 2.832-.895 6.26-.895 8.943-2.533 2.235.297 4.77-.447 6.558-2.685 3.875.15 6.855-2.683 11.326-3.576v-.746c.744-.298 2.234-1.938 4.023-1.342-.148.743-.297 1.34-.596 1.935zM1087.463 805.146c1.64 0 4.025-.15 5.812-.3 4.32-2.682 11.028 0 16.098.6 3.13-1.79 8.346-.746 11.625-1.045 4.768-1.19 11.027.3 16.543.3 9.69 0 20.866-.3 30.554-.745 1.49-.15 2.98-1.044 4.322-.448.148.15.297-.147.447-.147-3.428 2.234-7.603 2.384-11.03 3.875-4.917 4.32-10.58 6.558-15.798 9.837-6.26 2.83-12.668 4.918-18.33 9.24-1.79.894-3.43 1.937-5.217 2.83l-4.322 2.09 4.918.296c11.625.746 22.504-2.086 34.428-.446 4.77 0 9.24-1.938 13.86-1.044 1.192-.15 2.683 0 3.728 0-.15.3 0 .895-.15 1.044-1.19 0-2.235.298-3.276 1.043-1.192.597-2.684.597-4.024.896-4.023.447-8.05-.148-12.072.745-10.88.3-21.46-1.043-32.043.15-4.918-.897-9.836 1.64-14.605.297-3.13.745-7.154-.895-9.54.895-7.152-.745-14.156-1.938-21.61-1.938-1.64-.598-4.173 0-4.917-1.79-.148-.148.895-1.64.895-.895 8.05-2.088 14.904 2.684 24.146 1.64 4.77-.597 9.688 0 14.754-1.49 1.492-2.087 3.727-1.938 5.367-3.28 2.98-.445 5.96-1.19 7.897-3.277 7.603-3.727 15.35-5.066 21.46-10.58 1.79-.746 3.577-1.642 5.518-3.28 0-.446 4.32-2.385 4.32-2.832-.148-.297-4.62.746-4.62.15-5.812 0-11.178-1.044-15.8.596-8.345-2.087-16.988-2.236-25.933-.3-6.408-.743-12.965-1.638-19.226-.446-5.216-2.235-11.027 2.386-15.798-1.788-.446-1.342-2.832-.894-2.682-2.533 5.063-.9 9.385 1.932 14.303 2.08zM1345.22 1450.565c2.83 2.086 4.173 5.217 4.917 8.645-.148 3.43-1.49 6.26-1.787 9.837-.447.895-.447 1.64-2.386 1.937-.745 1.49-1.64 1.49-2.532 1.79-.3-.148-.447-.3-.447-.597 0-.596-.447-1.34-.447-1.938.447-.745.896-.745.896-1.192.147-.597 1.786-.447 1.64-1.49 1.638-2.98 1.49-6.856 1.49-10.582-1.192-4.173-5.962-4.92-9.69-5.067-3.278 0-7.153.147-10.43.743-2.237.15-4.026-.446-5.368.896-2.98-.448-5.96.744-8.94.595-1.343 1.193-3.728.448-5.365 1.044-9.24 1.64-18.33 2.384-27.87 2.533-6.707.148-14.01.148-20.42-.15-4.617.896-8.79.15-12.965-.894-1.343-.746-.148-1.94.895-2.684.896 0 1.938-.298 2.683.446 1.49-.148 1.938.15 2.534.447v.446c6.705-.298 13.265.447 18.63-1.044 5.663.3 12.37.895 17.588.148 2.086-1.19 5.065.15 7.45-.446 4.023-.895 9.24-.895 13.563-1.343.297-.146-.147-1.19.297-.146 3.728-.745 6.56-1.79 9.242-1.938 7.303-1.49 14.158-1.64 21.908-1.49 1.785-.3 3.127 1.043 4.914 1.49zM1275.916 1396.764c4.174.746 7.603 1.49 12.072.894 7.75 3.28 16.69-1.34 23.994 4.024 4.025.896 9.092 1.043 12.818 2.98 6.26 2.088 12.815 2.98 18.184 7.304 2.234 2.98 3.875 5.663 5.514 8.793-.3 2.978-.147 6.408-2.832 7.75-5.662 2.234-11.625 3.278-17.14 6.11-11.923.298-22.952 4.62-34.13 2.682-5.365 1.192-10.582-.148-15.947.745-9.24-.596-17.737-4.322-26.68-5.96-1.937-1.64-9.538-2.982-3.427-5.366 4.022-.744 6.557 2.237 10.133 3.13 2.088.448 4.024 2.833 6.41 2.833 9.092 1.64 16.99 3.278 26.828 2.086 8.493 2.086 17.733 0 26.23-1.79 8.046-.596 15.35-2.83 22.802-4.918 3.576-1.64 2.236-4.62 3.875-8.496-1.937-1.34-1.34-4.173-2.68-5.364-2.386-2.685-7.155-4.024-10.138-5.812-4.918-.746-9.837 0-13.412-2.832-4.025-.745-8.646.298-11.773-2.832-13.414-2.235-26.98-1.19-39.496-4.32-7.302-.746-13.412-1.045-19.374-4.77.298-.895 1.79-.448 2.386-.746 9.24-.597 16.692 4.62 25.784 3.874zM1358.484 1335.657c-11.775 5.217-21.91 12.072-32.193 18.93-.894.445-1.19 1.64-3.128 1.64-4.77 4.77-10.73 5.215-15.053 9.538-3.878 1.938-8.2 4.173-12.67 7.602.595.446 1.64.895 2.087 1.19 3.13 1.492 6.26.3 9.092.45 8.94.296 17.138-1.194 25.036-1.343 7.602 0 14.607-1.788 21.314-1.043.146.3.146.746.146 1.342-.445 3.428-4.32 1.044-5.96 1.64-7.153.895-13.413 1.042-21.165 1.34-9.536.598-18.927.15-28.464 1.193-6.41.597-12.224 0-18.332 1.342-10.135-1.192-20.418 4.024-30.556 1.938-2.383 0-4.77 1.19-7.3.596-1.046-.744-5.814.15-3.43-2.085 7.75-1.192 15.798 0 23.696-1.043 11.924-.447 24.592-1.192 33.385-8.793 1.49-.448 2.683-1.49 3.726-2.236 3.728-2.236 7.75-3.875 10.88-7.154 3.13-1.043 5.963-2.83 8.495-4.62 4.473-4.47 10.436-6.11 15.354-9.54 0-.596.447-.446.746-.596 1.34-.596 2.383-1.788 4.022-2.98 0-.595 4.322-1.49 4.172-1.937-.147-.445-5.065-.298-5.514-.596-6.855 1.49-15.352 2.087-23.25 2.833-8.496.745-14.16 2.385-22.207 2.533-2.832-.596-6.855 2.236-9.688-.148-3.13 0-4.918-.148-7.45.745-2.237 0-4.475-.298-7.155-.298-.598-.15-1.193.447-1.79.447-2.534 1.64-3.874-2.235-5.81-.447-.896.298-1.79 1.044-2.683-.298-4.77 1.342-8.496.597-12.52-1.64-1.345.597-1.79-.148-2.386-.596v-.446c.446-1.044 1.342.447 1.342.298 0 0 .895.745 1.788-.15.597-.894 1.938 1.044 2.236.597 5.066 1.19 11.027.895 16.69.148 5.218.894 13.115-.596 18.033.447 1.044-.15 2.385-1.043 4.173-.447 1.642-1.49 3.875-.15 5.068-1.043 6.26-.447 12.966-1.49 19.374-1.49 6.11-.597 12.818-1.193 17.736-1.938 1.045.298 2.235-.597 3.28.148 2.533-.596 3.576-.596 5.515-.895 3.875-.745 8.793-1.342 12.22-2.086.597 0 1.343-.447 2.235-1.49-.744-1.34.895-.745 1.045-.745 1.342-.598 3.576.595 5.812-.15.007.444.156.89.007 1.337zM1356.844 1298.847c1.938.745 3.278-.298 4.77 0-.447 1.042-1.19 1.938-1.19 3.13-.597 1.64-2.685 1.937-3.876 3.13-1.192.297-1.342 1.937-2.684 2.83-3.13 1.94-5.96 4.025-9.092 6.262-6.11 1.488-11.625 5.66-18.78 6.406-5.513 2.534-12.667 2.386-18.776 2.534-3.727 2.98-9.688.298-14.16 1.938-2.233.298-3.575-.597-5.362-.597-6.11 1.64-11.627-.744-17.29-1.64-4.024-1.788-8.348-2.235-12.223-4.32-1.19-.896-2.978-.597-4.17-1.045-4.77-3.13-10.286-5.066-14.607-8.495-2.086-.446-2.683-2.98-4.77-3.427-.745-1.044-2.234-1.938-1.34-4.174-1.343-1.044-2.536-3.13 0-2.685.595-.447.892-.148.147.447 4.918 5.96 12.967 11.477 20.864 15.65 2.98 0 5.964 1.638 7.75 3.13 6.11 1.638 11.775 3.874 18.035 3.874 2.233 0 4.47.448 6.407-.148 3.875.447 7.45 1.49 11.478.447 3.875-.298 7.748-.746 11.475-1.49 11.924-2.386 24.89-2.98 34.727-9.54 3.578-2.384 6.11-4.47 9.24-8.047-.445-.745 1.938-.596 1.49-1.64-9.24.448-20.715.746-29.062 1.34-3.725 1.64-8.05-.297-12.07.3-3.577.446-7.305-.448-11.03-.3-1.79 0-3.428-.297-5.066.3-2.685-.448-6.11.297-8.347-1.192-1.043-.896 1.34-.745 1.64-1.343 2.385-.894 4.77-1.19 7.452-.148 2.086.298 4.172-1.043 6.11-1.043 5.513 0 10.282 1.49 14.01 1.043 0-.448 1.788 0 3.278 0 1.043-.298 2.086-.298 2.682-.15 3.28 0 5.367-.595 8.35-.147 5.363-1.342 12.07 0 16.394-1.192 1.34-.298 1.19-.15 2.532-.298 2.232 0 3.275-.744 5.062.3zM1252.068 1273.36c2.236.3 3.727 2.535 6.26 2.535 4.77 2.384 9.24 3.577 15.055 3.875.896.448 2.386.596 3.43.896 3.277.298 6.26 1.79 9.388 1.79 1.94.595 4.622-.45 6.41 1.936 2.384-.596 4.173-1.19 5.663-1.937.596-1.193 2.235-2.684 2.086-4.322 1.044-1.64.15-2.98.895-5.067.895-2.832.895-4.472 2.385-7.452.746-.597 1.49-1.192 2.385-1.043.598 1.49 0 3.28 0 5.068-1.938 3.875-1.64 5.962-2.98 11.03 1.19.743.746 1.34 1.19 1.64 3.73.595 7.75.148 10.882-.597 1.938.298 3.576-.447 6.56-.447.596-1.788 1.938-.447 2.83-.895 5.366-.446 10.137-3.428 15.65-3.726 2.384-2.087 6.407-1.79 8.792-3.577 2.83.298 4.32-3.428 7.897-2.534 1.79-1.34 3.43-2.978 5.664-2.978.597.447 1.193.894 1.79 1.49-.3 2.234-2.833 2.385-4.472 3.576-2.535.3-4.92.896-6.71 2.534-3.275-.148-5.214 2.684-8.345 2.533-1.19.745-2.385.896-3.28 1.49-1.19-.15-2.232.298-3.128.746-6.854 0-12.22 4.472-19.078 4.024-.893.597-2.533.597-3.426.745-7.305 2.532-15.798 2.085-23.25 1.937-3.43-.896-7.602 0-10.583-1.49-9.238-1.642-18.183-5.367-26.976-7.75-4.173-1.642-8.048-4.174-11.923-6.26-4.32-2.387-9.39-4.025-12.52-8.35 0-.297 0-.744.3-.893 6.706 4.324 13.71 8.2 21.16 11.477zM1256.242 1221.646c1.64 0 4.025-.148 5.812-.298 4.32-2.683 11.028 0 16.098.597 3.13-1.79 8.346-.746 11.625-1.044 4.768-1.19 11.027.3 16.543.3 9.688 0 20.865-.3 30.553-.744 1.49-.15 2.98-1.044 4.322-.448.148.148.297-.148.447-.148-3.428 2.236-7.603 2.385-11.03 3.875-4.917 4.32-10.58 6.56-15.798 9.837-6.26 2.832-12.668 4.918-18.33 9.24-1.79.896-3.43 1.938-5.217 2.832l-4.322 2.087 4.918.3c11.625.744 22.504-2.087 34.428-.447 4.772 0 9.24-1.938 13.862-1.044 1.19-.15 2.682 0 3.727 0-.15.298 0 .894-.15 1.043-1.19 0-2.236.297-3.277 1.043-1.192.596-2.684.596-4.024.895-4.024.448-8.05-.147-12.073.746-10.88.298-21.46-1.043-32.043.15-4.918-.896-9.836 1.64-14.605.297-3.132.745-7.155-.896-9.54.894-7.153-.745-14.157-1.938-21.61-1.938-1.64-.598-4.174 0-4.918-1.79-.148-.148.895-1.64.895-.895 8.05-2.087 14.904 2.683 24.146 1.64 4.77-.597 9.688 0 14.754-1.49 1.492-2.087 3.727-1.94 5.367-3.28 2.98-.446 5.96-1.19 7.897-3.278 7.604-3.726 15.352-5.066 21.462-10.582 1.79-.745 3.576-1.64 5.517-3.278 0-.447 4.318-2.386 4.318-2.832-.147-.297-4.62.745-4.62.148-5.81 0-11.177-1.043-15.798.597-8.346-2.087-16.99-2.235-25.934-.3-6.408-.742-12.965-1.638-19.226-.445-5.217-2.235-11.028 2.385-15.8-1.787-.445-1.343-2.83-.896-2.68-2.535 5.062-.898 9.384 1.933 14.302 2.083zM1274.277 1153.982c6.258 1.043 11.475 1.79 17.586.745 4.023.596 6.855-.148 10.434-1.043 3.427.895 8.494.447 12.37 1.043 3.278 1.49 6.56.447 9.985.447 4.172 0 8.047.298 12.37.298 1.34.15 2.98-.895 4.32.745 2.236 0 3.876.895 5.365 1.34 1.79 1.492 5.218 1.045 7.007 2.833 2.98.745 4.47 3.875 6.407 5.813 1.344 1.49 2.684 1.64 3.28 3.576-1.043.744-1.342 1.49-2.533 1.34-2.832.15-2.235-2.83-4.174-4.023-3.578-5.663-10.432-8.943-17.586-8.943-1.193-.146-2.088-.893-3.578-1.19-7.452.745-15.202 1.79-23.1 1.19-6.41-2.53-14.458-1.042-21.464-1.34-5.664.447-12.968-.895-19.228.148-4.47-1.49-8.943 0-13.562-.745-2.683.745-5.365-.596-7.75.596-4.472.15-8.793.3-12.816.15-1.79 1.64-3.875-.448-5.664-.448-1.043-.447-1.043-1.49 0-1.938 4.62-.446 8.494.148 12.818 0 6.407-.148 12.965-.895 19.076-1.49 3.728-.893 6.86 1.64 10.437.895zM1358.186 1097.35c3.727.446 6.26-.447 7.154 1.342 0 .148-.148.445-.148.596-5.516 3.13-12.67 1.79-19.078 3.576-11.326 1.64-22.95 2.534-33.385 5.217-2.386 3.28-5.067 7.75-3.43 12.073.148.148-.446 0-1.042 1.043 1.043 1.49-.597 2.087-.597 3.28-.597 2.83-.298 6.407-1.49 11.325 8.645 1.94 16.842 1.79 23.996 3.728 5.217 1.49 12.52-.895 17.735 1.788 1.94 0 4.323-.298 5.665 1.342.297.745-1.045.745-1.64.745-6.112-1.044-10.73-.596-16.544-1.342-6.854-2.978-17.288-.446-24.74-3.427-2.684 0-6.855.745-8.942-.746-7.004-1.64-15.352.448-21.907-2.682-12.223.445-22.354-4.62-34.874-4.62-.597-.598-.597-1.64-1.94-1.788-3.575-1.193-8.194 1.042-10.43-1.938.894-1.64 3.277-.895 5.066-2.235 15.054-3.28 28.912-9.837 44.265-12.67 4.32-2.085 9.688-2.683 14.457-4.618 1.64-.15 3.278-.447 4.77.148 2.98-.896 6.26-1.938 9.537-1.938 7.007-.148 13.267-3.43 20.57-2.832 2.234-1.34 5.663-.298 8.048-1.043 4.62-.447 9.39-1.64 13.713-2.83.894-.448 1.34-.746 1.49-1.045 1.34-.597 1.488-.597 2.53-.447.002.146 1.196-.3 1.196 0zm-56.336 12.07c-7.453 3.28-16.1 3.28-23.85 5.516-9.09 2.533-17.585 7.602-27.868 9.54 0 2.532 1.043 3.426 2.83 3.575 4.174 1.492 8.05 3.132 12.818 3.728 8.793 1.19 19.076.446 27.424 2.533 2.234 0 5.514 0 8.494.897 1.49-1.79 1.64-3.577 2.98-4.473 0-1.788.446-3.13.598-4.47.297-2.236.297-4.323.744-5.963.745-2.83 1.192-3.874 1.49-6.26 4.027-7.005-2.98-4.47-5.66-4.62zM1346.71 1050.996c-1.788 1.342-4.173 2.235-5.962 3.727-7.303 2.087-15.2 4.023-23.102 4.023-5.664.895-11.478 2.086-16.99 3.43-2.98-.3-6.408-.897-9.836-.15-.447 1.192-.447 1.64-2.236 2.088 1.64 4.32 5.066 7.303 6.707 10.433.897.446 1.79 1.64 1.49 2.683-.595 1.79.3 1.79 1.343 2.832 1.34 0 2.533.15 3.728.745 3.13-1.043 5.515-1.043 8.048-.15 2.832 1.642 5.217.448 8.346 0 5.963-.893 11.627-2.233 17.736-2.53 4.77-.15 9.54-.15 14.604-.15.447.15.896.3.746.745 0 .447-.596.896-1.043 1.044-7.453.447-14.604.745-21.164 2.832-4.918-.148-8.94 1.34-13.562.895-11.028-1.043-22.653 0-33.085 1.342-4.62-1.044-8.197.895-12.67.596-11.625-.894-23.697-.894-33.98-4.32-1.49-.448-.746-1.64-1.49-2.684.148-.447.896 0 1.19-.147 3.58.743 6.708 2.382 10.286 2.233l.298.298c6.11-.297 11.772 1.64 17.14 1.342 4.024 2.236 8.495-.596 12.817.15 5.516.895 10.135-1.044 15.5-1.79.746-.596 1.79-1.192 2.832-2.384-1.787-4.77-7.303-7.75-7.897-11.625.743 0-1.043-1.192-.3-3.577-4.618-1.342-8.346.446-11.772-1.192-2.832-.744-5.664.745-8.646-.895-4.022 1.937-7.602.147-11.477.446-2.236-1.938-3.13 1.938-5.812.148-2.532.745-5.96 1.19-8.05 0 .15-.597.15-1.043 0-1.64 2.237-1.34 5.368.446 7.604-1.34 3.28-.3 5.664 1.49 8.942.893 9.536-1.788 20.118.298 29.81-.298 6.704-.3 14.007.744 20.417-1.49 10.135-1.64 20.717-2.98 30.254-4.92 2.386-1.49 5.218-3.13 8.198-2.98.445.443.893.74 1.04 1.336zM1339.258 1018.805c-5.364 3.874-12.22 3.278-17.14 7.45-1.937.598-4.024 1.64-5.663 2.684-4.62-.148-9.39 2.83-15.65 5.663 4.025 1.64 7.007 1.19 9.093.597 8.793 0 16.545-1.49 25.785-.15 2.532 0 5.662-.744 7.897.3 4.322.15 9.392-1.044 13.115 1.043l.297.298c-3.13.897-7.152.6-10.283.45-2.683-.747-5.515.296-8.495.296-5.812.15-11.924-1.937-17.14.597-4.77.598-9.24-1.64-13.86 0-4.174 1.342-8.348-.744-12.223 1.192-7.152-1.192-16.393.147-24.145-1.192-8.793 0-17.734.598-26.38-.894-4.77-.15-6.706-1.045-11.178-1.94-.15 0 .743-1.042.743-1.34 4.77-2.83 6.408-3.727 11.478-5.663 7.005-2.832 14.458-2.235 21.462-4.174 9.838.148 19.524 1.49 26.678 10.88 13.117-7.898 27.127-8.792 39.795-15.648 5.664-1.79 10.88-4.62 16.543-6.408.896 0 2.385-.597 3.428-.3-4.62 2.68-9.39 4.766-14.158 6.258zm-83.908 9.836c-1.94.597-4.322-.147-6.11 1.045-2.386-.3-4.622 1.043-6.56 1.788l-3.576 2.533c1.34.148 6.557.597 8.047.895 1.94 1.94 5.366 1.044 7.75 1.64 11.03-1.49 23.4.3 36.665-.297-1.938-2.386-3.873-2.98-4.918-4.023-2.086-2.087-7.898-4.322-11.773-5.962-6.708.892-13.862-.598-19.524 2.383zM1354.31 986.46c-1.49 3.28-5.065 3.58-7.602 5.366-3.428 1.79-7.15 3.578-11.026 4.024-1.043.597-2.535.745-3.728.894-9.985 1.79-19.674 5.812-30.104 6.11-7.154 1.49-15.054.745-22.806.597-6.407 0-14.604-1.786-21.014-4.618-3.13-.745-6.56-1.938-8.793-3.875-3.28-.896-5.812-3.28-8.646-5.067-.595-1.044-1.34-2.086-1.34-3.13 0-.148-.148-.3-.148-.3 2.98.745 5.812 2.98 8.793 4.77 2.385 1.343 3.727 3.132 6.26 3.728 4.32.896 7.75 3.875 12.22 3.578 8.198 2.086 17.143 1.937 26.98 1.34-1.49-3.428 1.042-4.77-.15-6.854.15-.896.298-1.49.597-2.087.447-.447.744-.895 1.34-.447.3.3.45.447.746.745-.297.896.3 1.49.746 1.938-.447 1.94 0 3.876-.3 6.262 7.304.745 12.222-1.342 18.185-1.642 2.532-1.19 6.407-1.49 9.536-2.383 2.832-.896 6.26-.896 8.943-2.535 2.235.3 4.77-.446 6.558-2.683 3.875.148 6.855-2.684 11.326-3.578v-.744c.744-.3 2.234-1.938 4.023-1.343-.15.745-.298 1.34-.596 1.936zM1256.242 943.242c1.64 0 4.025-.15 5.812-.3 4.32-2.682 11.028 0 16.098.597 3.13-1.788 8.346-.744 11.625-1.044 4.768-1.19 11.027.3 16.543.3 9.688 0 20.865-.3 30.553-.746 1.49-.147 2.98-1.043 4.322-.447.148.15.297-.147.447-.147-3.428 2.234-7.603 2.384-11.03 3.873-4.917 4.32-10.58 6.56-15.798 9.837-6.26 2.832-12.668 4.92-18.33 9.24-1.79.895-3.43 1.938-5.217 2.832l-4.322 2.085 4.918.3c11.625.743 22.504-2.09 34.428-.448 4.772 0 9.24-1.938 13.862-1.043 1.19-.148 2.682 0 3.727 0-.15.298 0 .895-.15 1.043-1.19 0-2.236.298-3.277 1.043-1.192.598-2.684.598-4.024.895-4.024.448-8.05-.147-12.073.746-10.88.3-21.46-1.042-32.043.15-4.918-.896-9.836 1.64-14.605.298-3.132.745-7.155-.895-9.54.895-7.153-.746-14.157-1.938-21.61-1.938-1.64-.597-4.174 0-4.918-1.79-.148-.146.895-1.64.895-.893 8.05-2.088 14.904 2.683 24.146 1.64 4.77-.597 9.688 0 14.754-1.49 1.492-2.087 3.727-1.94 5.367-3.278 2.98-.447 5.96-1.192 7.897-3.28 7.604-3.726 15.352-5.066 21.462-10.58 1.79-.745 3.576-1.64 5.517-3.28 0-.445 4.318-2.384 4.318-2.83-.147-.3-4.62.744-4.62.148-5.81 0-11.177-1.045-15.798.596-8.346-2.086-16.99-2.234-25.934-.298-6.408-.745-12.965-1.64-19.226-.447-5.217-2.235-11.028 2.386-15.8-1.788-.445-1.342-2.83-.894-2.68-2.533 5.062-.9 9.384 1.93 14.302 2.08z"/></g><path d="M2048 0M2048 1536M0 1536M0 0" fill="none" stroke="#17192D" stroke-width="3"/></g></svg>