<?xml version="1.0" encoding="iso-8859-1"?>
<!-- Generator: Adobe Illustrator 15.1.0, SVG Export Plug-In . SVG Version: 6.00 Build 0)  -->
<!DOCTYPE svg PUBLIC "-//W3C//DTD SVG 1.1//EN" "http://www.w3.org/Graphics/SVG/1.1/DTD/svg11.dtd">
<svg version="1.1" xmlns="http://www.w3.org/2000/svg" xmlns:xlink="http://www.w3.org/1999/xlink" x="0px" y="0px" width="2048px"
	 height="1536px" viewBox="0 0 2048 1536" style="enable-background:new 0 0 2048 1536;" xml:space="preserve">
<g id="aheada_x5F_2">
	<g>
		<path style="fill:#17192D;" d="M1189.002,949.967c0.447,0.148,0.746,0.299,1.043,0.596c-1.34,3.428-5.365,1.492-8.494,2.385
			c-2.684,0.447-5.217,0-7.9,0.15c-7.303,0.148-14.605-0.15-21.609,0c-3.727,0-8.645,0.297-12.52-0.15
			c-2.533-0.297-5.664,0-8.199,0.15c-6.109,0.596-11.922,0-18.332,0.447c-0.297-0.299-0.596-0.299-0.893-0.299
			c-2.684,1.342-5.664,0.148-8.197,0.596c-6.111,0.299-11.924,0.895-17.885,0.895c-4.174-1.789-8.496,0.895-12.816-0.148
			c-0.598-0.15,0.893-1.789,1.34-1.789c6.559-4.471,14.158,1.789,21.461-0.299c8.646-2.385,18.334-1.49,26.828-1.938
			s16.543,0.299,25.188,0c2.385-0.297,4.77-0.297,7.303-0.297c0.598,0,1.342,0.148,1.938,0.148
			c6.559-0.148,13.117-0.148,18.93-1.043C1180.656,950.562,1184.383,949.818,1189.002,949.967z"/>
		<path style="fill:#17192D;" d="M1193.92,891.395c-11.773,5.217-21.908,12.072-32.191,18.928c-0.895,0.447-1.193,1.641-3.131,1.641
			c-4.77,4.77-10.73,5.217-15.053,9.539c-3.875,1.938-8.197,4.172-12.668,7.6c0.596,0.447,1.639,0.896,2.086,1.193
			c3.129,1.49,6.26,0.297,9.092,0.447c8.943,0.297,17.139-1.193,25.039-1.342c7.6,0,14.605-1.789,21.312-1.043
			c0.148,0.299,0.148,0.744,0.148,1.342c-0.447,3.428-4.322,1.043-5.961,1.639c-7.154,0.895-13.414,1.043-21.164,1.342
			c-9.539,0.596-18.928,0.148-28.467,1.191c-6.408,0.596-12.221,0-18.332,1.342c-10.135-1.193-20.418,4.023-30.553,1.938
			c-2.385,0-4.77,1.191-7.303,0.596c-1.043-0.746-5.812,0.15-3.428-2.086c7.75-1.193,15.797,0,23.697-1.043
			c11.924-0.447,24.592-1.193,33.385-8.795c1.49-0.445,2.682-1.49,3.725-2.234c3.727-2.236,7.752-3.875,10.881-7.154
			c3.129-1.043,5.963-2.832,8.496-4.621c4.471-4.469,10.432-6.109,15.35-9.537c0-0.598,0.447-0.447,0.746-0.598
			c1.342-0.596,2.385-1.787,4.023-2.98c0-0.596,4.322-1.49,4.174-1.938c-0.15-0.445-5.068-0.297-5.516-0.596
			c-6.854,1.49-15.35,2.086-23.25,2.832c-8.494,0.746-14.158,2.385-22.207,2.533c-2.83-0.596-6.855,2.236-9.688-0.148
			c-3.129,0-4.918-0.148-7.451,0.746c-2.236,0-4.471-0.299-7.154-0.299c-0.596-0.15-1.191,0.447-1.789,0.447
			c-2.533,1.639-3.875-2.236-5.811-0.447c-0.896,0.299-1.789,1.043-2.684-0.299c-4.77,1.342-8.496,0.598-12.52-1.639
			c-1.342,0.596-1.789-0.148-2.385-0.596c0-0.15,0-0.299,0-0.447c0.447-1.043,1.342,0.447,1.342,0.297c0,0,0.895,0.746,1.789-0.148
			c0.596-0.895,1.938,1.043,2.234,0.596c5.068,1.193,11.029,0.895,16.693,0.15c5.217,0.895,13.115-0.598,18.033,0.445
			c1.043-0.148,2.385-1.043,4.174-0.445c1.639-1.492,3.873-0.15,5.066-1.045c6.26-0.447,12.967-1.49,19.375-1.49
			c6.111-0.596,12.818-1.191,17.736-1.938c1.043,0.299,2.236-0.596,3.279,0.15c2.533-0.596,3.576-0.596,5.514-0.895
			c3.875-0.746,8.793-1.342,12.221-2.086c0.598,0,1.342-0.449,2.236-1.49c-0.746-1.342,0.895-0.746,1.043-0.746
			c1.342-0.596,3.578,0.596,5.812-0.15C1193.92,890.502,1194.07,890.949,1193.92,891.395z"/>
		<path style="fill:#17192D;" d="M1139.969,813.002c5.812,0.447,11.773,1.789,18.033,2.533c7.602,0.895,15.5,1.789,22.654,5.365
			c3.727,3.727,8.346,5.664,11.326,10.582c0.447,2.684,2.385,2.236,1.492,5.516c0.148,0.447-0.301,0-0.301-0.598
			c-3.426,0.15-1.787-0.744-4.322-4.172c-3.873,1.191-6.705-0.598-9.537,0.596c-11.924-0.746-22.207,0-33.832,1.193
			c-2.832,1.34-6.408,1.34-9.688,0.893c-2.086-0.744-4.322,0.746-6.855,0.299c-7.75-0.447-16.395-0.447-23.996,0.596
			c-5.662-0.297-11.178,0-16.99,0.596c-2.234-0.447-4.77-1.191-7.898-0.297c-0.896,2.086-1.938,1.639-1.193,3.428
			c-0.299,0.299-0.596,0.744-1.043,1.043c-0.447-0.148-0.895,0-1.342-0.447c0.596-4.322,3.428-6.707,6.111-9.986
			c5.217-4.768,11.924-7.004,17.586-11.625c3.727-2.385,7.602-2.682,11.625-4.32c5.068-0.746,10.73-0.449,15.65-1.492
			C1131.621,813.746,1135.645,813.449,1139.969,813.002z M1116.42,816.729c-5.812-0.299-9.838,2.385-15.352,4.023
			c-0.299,0.297-1.639,1.639-2.385,2.086c-4.172,2.98-9.092,4.322-13.562,10.285c5.365-0.449,8.049,1.49,10.582,0.445
			c3.727,0.449,7.004-1.49,10.73-1.639c5.365,1.639,11.178,0.299,16.693,1.043c5.066,0.596,10.582-0.596,15.797-0.895
			c9.24-3.576,19.973-1.043,29.51-2.086c4.621,0,9.986-0.744,17.289,0.148c-2.832-5.961-7.898-7.004-11.326-8.941
			c-8.793-2.385-17.586-3.875-26.678-4.77c-1.789-0.299-4.025,0.447-5.664-0.596C1133.857,816.281,1124.021,813.449,1116.42,816.729
			z"/>
		<path style="fill:#17192D;" d="M1189.748,784.982c-1.492,3.279-5.068,3.578-7.602,5.365c-3.428,1.789-7.154,3.578-11.029,4.025
			c-1.043,0.596-2.533,0.744-3.727,0.893c-9.984,1.789-19.672,5.814-30.105,6.111c-7.154,1.49-15.053,0.746-22.803,0.596
			c-6.41,0-14.605-1.787-21.016-4.619c-3.129-0.744-6.557-1.938-8.793-3.875c-3.279-0.895-5.812-3.279-8.643-5.068
			c-0.598-1.043-1.344-2.086-1.344-3.129c0-0.148-0.148-0.299-0.148-0.299c2.98,0.746,5.812,2.98,8.793,4.77
			c2.387,1.342,3.727,3.131,6.26,3.727c4.322,0.895,7.75,3.875,12.223,3.576c8.195,2.088,17.139,1.938,26.977,1.342
			c-1.49-3.428,1.041-4.77-0.15-6.855c0.15-0.895,0.299-1.49,0.596-2.086c0.447-0.447,0.746-0.895,1.342-0.447
			c0.299,0.299,0.447,0.447,0.744,0.744c-0.297,0.895,0.299,1.49,0.746,1.938c-0.447,1.938,0,3.875-0.297,6.26
			c7.303,0.746,12.221-1.34,18.182-1.639c2.535-1.193,6.41-1.49,9.539-2.385c2.832-0.895,6.26-0.895,8.941-2.533
			c2.236,0.297,4.77-0.447,6.559-2.684c3.875,0.148,6.855-2.682,11.326-3.576c0-1.193,0-0.746,0-0.746
			c0.746-0.297,2.236-1.938,4.025-1.342C1190.195,783.791,1190.045,784.387,1189.748,784.982z"/>
		<path style="fill:#17192D;" d="M1091.68,741.764c1.639,0,4.023-0.149,5.811-0.298c4.324-2.684,11.029,0,16.098,0.596
			c3.129-1.789,8.346-0.745,11.625-1.044c4.77-1.191,11.029,0.299,16.543,0.299c9.688,0,20.867-0.299,30.553-0.745
			c1.49-0.149,2.982-1.044,4.324-0.448c0.148,0.149,0.297-0.147,0.445-0.147c-3.428,2.235-7.602,2.384-11.027,3.874
			c-4.918,4.322-10.584,6.559-15.799,9.837c-6.26,2.832-12.668,4.918-18.332,9.24c-1.789,0.895-3.428,1.939-5.217,2.832l-4.32,2.088
			l4.918,0.297c11.623,0.746,22.504-2.086,34.428-0.447c4.768,0,9.24-1.938,13.859-1.043c1.193-0.148,2.684,0,3.727,0
			c-0.148,0.299,0,0.895-0.148,1.043c-1.193,0-2.236,0.299-3.279,1.043c-1.193,0.597-2.684,0.597-4.023,0.894
			c-4.025,0.447-8.049-0.148-12.072,0.746c-10.881,0.297-21.463-1.043-32.045,0.148c-4.918-0.895-9.836,1.641-14.605,0.299
			c-3.131,0.744-7.154-0.895-9.539,0.893c-7.152-0.744-14.158-1.936-21.609-1.936c-1.641-0.598-4.174,0-4.92-1.789
			c-0.148-0.148,0.895-1.639,0.895-0.895c8.049-2.086,14.904,2.683,24.145,1.639c4.77-0.596,9.688,0,14.756-1.49
			c1.49-2.086,3.725-1.938,5.365-3.279c2.98-0.447,5.961-1.191,7.898-3.278c7.602-3.727,15.352-5.067,21.463-10.582
			c1.787-0.745,3.576-1.639,5.514-3.279c0-0.446,4.322-2.384,4.322-2.831c-0.148-0.298-4.619,0.745-4.619,0.149
			c-5.812,0-11.18-1.044-15.799,0.596c-8.346-2.087-16.99-2.235-25.934-0.298c-6.408-0.745-12.967-1.64-19.225-0.447
			c-5.217-2.235-11.029,2.385-15.799-1.788c-0.447-1.343-2.832-0.895-2.684-2.534C1082.439,738.782,1086.76,741.614,1091.68,741.764
			z"/>
		<path style="fill:#17192D;" d="M1172.906,658.004c1.34,3.13,0.445,7.153,1.043,9.688c-0.299,4.62,0.744,8.793,1.49,13.265
			c-0.148,0.895-0.596,1.938-1.342,2.533c-3.129-0.745-6.408-0.596-9.24-0.894c-2.832,1.042-6.111-0.299-9.391-1.343
			c-5.662,0.598-11.625-0.446-16.84-0.894c-6.408,0.745-12.223-0.447-18.48-1.043c-5.664,0.895-11.178-0.895-16.545-2.533
			c-1.043-1.342-1.49-1.193-2.086-0.149c-8.346-0.745-15.797-3.577-23.549-6.409c-5.217-1.938-4.172-1.639-9.984-3.875
			c-0.746,2.385,0,4.322-0.299,5.515c-0.297,1.64-0.297,3.279,0,4.919c-0.297,3.129,0.148,7.004,1.342,10.134
			c-0.15,0.149-0.15,0.298-0.299,0.447c-1.043-0.149-1.639-1.342-2.086-2.385c-0.596-1.938,0-3.428-1.342-4.918
			c-0.299-2.385,0.148-4.472-0.299-7.154c1.193-3.428-1.49-8.197,2.832-8.793c2.684,2.087,5.367,2.385,8.496,3.577
			c1.789,0.745,4.174,1.341,6.408,1.937c12.52,3.279,24.145,7.006,37.111,7.9c5.514-1.193,11.326,1.341,17.141,0.744
			c6.408,0,12.518,0.447,19.523,1.789c2.533,0.447,5.217-0.149,8.494,1.341c3.131-3.726,8.346,1.64,7.9-4.918
			c-0.895-4.471-1.193-9.688-1.193-14.01c0.15-1.64-0.447-3.726,0.596-4.769C1172.459,657.706,1172.607,657.854,1172.906,658.004z"
			/>
		<path style="fill:#17192D;" d="M1120.592,601.966c9.986,3.577,20.568,2.533,30.107,6.558c9.836,4.173,20.566,5.962,30.701,9.24
			c0.299,0.299,0.746,0.745,1.043,1.191c-3.277,1.343-7.6-1.341-11.475-0.893c-11.775-0.895-22.805,2.98-35.174,4.619l-0.596,2.684
			c13.412,2.683,24.74,8.345,37.109,10.729c0.447,0.299,1.193,0.448,1.641,0.746c2.684,0.149,5.961-1.64,7.898-0.149
			c-0.148,1.044-1.191,1.49-2.234,1.789c-2.385-0.299-4.174,1.341-6.41,1.938c-13.264-0.597-25.039,2.235-38.451,3.13
			c-16.543,1.191-32.938,2.385-48.588,2.235c-8.197,1.191-14.455,1.49-20.865,0.745c-0.596-0.299-1.789,0-2.385-0.149
			c0.447-0.298,0.895-0.745,1.342-1.192c4.918-1.043,9.24-1.043,14.457-1.489c22.654-1.789,47.543,0.148,70.793-3.727
			c4.174-0.745,8.348-0.447,12.818-0.895c2.98-1.044,1.639-4.023-0.596-3.428c-9.688-4.77-21.463-5.515-31.15-9.092
			c-1.787-0.596-4.619-0.149-5.365-1.937c0.297-0.597,0.895-0.895,1.49-1.193c10.135-3.278,21.164-4.472,36.365-8.346
			c-9.389-3.429-14.904-4.024-19.227-6.558c-10.879,0-18.332-4.472-29.211-4.472c-8.346-3.129-18.182-1.788-26.529-5.365
			c-6.855-0.149-12.52-1.64-20.566-2.981c-0.148,0-0.596,0-0.746-0.148c0.15-0.298,0.299-0.597,0.447-1.043
			c1.191,0,1.938-0.596,2.533-0.895C1086.611,594.96,1103.602,599.73,1120.592,601.966z"/>
		<path style="fill:#17192D;" d="M1087.506,570.22c2.236,0.299,3.727,2.534,6.26,2.534c4.77,2.385,9.24,3.577,15.053,3.875
			c0.895,0.447,2.385,0.596,3.428,0.894c3.279,0.299,6.26,1.789,9.391,1.789c1.938,0.597,4.619-0.447,6.408,1.938
			c2.385-0.596,4.174-1.192,5.664-1.938c0.596-1.192,2.234-2.683,2.086-4.322c1.043-1.639,0.148-2.98,0.895-5.067
			c0.895-2.832,0.895-4.472,2.385-7.451c0.744-0.598,1.49-1.193,2.385-1.044c0.596,1.49,0,3.278,0,5.067
			c-1.938,3.875-1.641,5.962-2.98,11.028c1.191,0.746,0.744,1.342,1.191,1.641c3.727,0.596,7.75,0.148,10.879-0.597
			c1.939,0.298,3.578-0.447,6.559-0.447c0.596-1.788,1.938-0.447,2.832-0.895c5.365-0.447,10.135-3.428,15.648-3.726
			c2.385-2.087,6.408-1.789,8.795-3.577c2.83,0.298,4.322-3.428,7.898-2.533c1.789-1.342,3.428-2.981,5.662-2.981
			c0.598,0.447,1.193,0.895,1.789,1.491c-0.297,2.235-2.832,2.385-4.471,3.576c-2.533,0.299-4.918,0.895-6.707,2.534
			c-3.279-0.149-5.217,2.683-8.346,2.533c-1.193,0.745-2.385,0.895-3.279,1.49c-1.191-0.148-2.236,0.299-3.131,0.745
			c-6.855,0-12.221,4.472-19.076,4.025c-0.895,0.596-2.533,0.596-3.428,0.744c-7.303,2.533-15.799,2.087-23.25,1.938
			c-3.428-0.895-7.602,0-10.582-1.49c-9.24-1.64-18.182-5.365-26.977-7.749c-4.172-1.641-8.047-4.175-11.924-6.261
			c-4.322-2.385-9.389-4.023-12.518-8.347c0-0.298,0-0.745,0.297-0.894C1073.049,563.066,1080.055,566.94,1087.506,570.22z"/>
		<path style="fill:#17192D;" d="M1189.002,541.755c0.447,0.148,0.746,0.298,1.043,0.596c-1.34,3.429-5.365,1.491-8.494,2.385
			c-2.684,0.447-5.217,0-7.9,0.148c-7.303,0.149-14.605-0.148-21.609,0c-3.727,0-8.645,0.299-12.52-0.148
			c-2.533-0.298-5.664,0-8.199,0.148c-6.109,0.597-11.922,0-18.332,0.448c-0.297-0.299-0.596-0.299-0.893-0.299
			c-2.684,1.342-5.664,0.149-8.197,0.597c-6.111,0.298-11.924,0.895-17.885,0.895c-4.174-1.789-8.496,0.894-12.816-0.149
			c-0.598-0.149,0.893-1.788,1.34-1.788c6.559-4.472,14.158,1.788,21.461-0.299c8.646-2.385,18.334-1.49,26.828-1.938
			s16.543,0.298,25.188,0c2.385-0.298,4.77-0.298,7.303-0.298c0.598,0,1.342,0.148,1.938,0.148
			c6.559-0.148,13.117-0.148,18.93-1.043C1180.656,542.351,1184.383,541.605,1189.002,541.755z"/>
		<path style="fill:#17192D;" d="M1179.166,473.198c1.938,0.596,4.023,1.489,5.514,2.086c4.621,2.683,9.539,4.771,14.01,7.75
			c0.299,0.298,0.895,0.597,1.49,0.745c0.447,0.149,0.895,0.745,1.49,1.193c0.148,0.297,0.148,0.596-0.148,0.745
			c-3.578,1.341-7.451-0.448-11.029,0.446c-2.385-0.446-5.812,0-8.346-0.446c-4.621,0.297-9.838-1.342-15.053-0.149
			c-10.283-1.64-23.549,0-33.684,0c-0.744-0.149-1.639,0.298-2.385,0.149c-1.193-0.299-2.684,0.895-3.875-0.299
			c-5.812,0.895-12.369-0.597-16.246,0.447c-1.191,0.597-2.682,0.597-3.875,0.746c-3.576-1.64-8.645,0.297-12.221-0.746
			c-1.789,0.447-4.322,1.342-6.408,1.043c-3.131,0.745-5.961,0.448-8.943,1.341c-1.787-0.596-4.172,0.448-5.812,0
			c-2.98,0.746-6.109-0.297-9.24,0c-0.148-0.446-0.297-0.745-0.447-1.191c2.684-5.365,6.857-7.602,10.879-12.222
			c6.41-5.364,17.736-8.346,26.232-2.98c1.043-1.64,1.043,0.596,1.938,0.596c3.131,1.641,4.471,3.577,7.602,4.174
			c2.533,1.341,3.428,3.13,6.557,4.918c2.385-2.533,5.068-4.024,6.559-6.26c2.682-2.534,5.961-3.875,8.645-7.004
			c7.004-3.429,14.158-7.751,21.908-5.068C1163.219,464.106,1172.012,468.429,1179.166,473.198z M1068.428,485.419
			c6.559,1.49,11.477,1.193,16.693-0.149c6.26-1.639,14.756-1.043,21.312-1.49c1.49-0.745,5.068,0,5.812-2.831
			c-2.682-0.447-4.619-2.683-6.109-3.429c-0.15,0-0.15,0-0.15,0c-4.619-2.385-8.645-4.172-13.414-5.216
			C1083.482,470.366,1074.24,476.774,1068.428,485.419z M1140.266,467.981c-0.148,0.597-0.596,0.149-0.744,0.299
			c-1.641,0.745-1.641-0.299-2.385,0.894c0,0.447-0.598,0.596-0.598,0.596c-1.49,0.745-2.98,1.342-2.98,1.49
			c-0.297,0.149-1.043,0.149-1.639,0.597c-1.342,0.298-2.533,1.64-3.578,2.683c-2.682,0.895-4.768,4.918-6.26,8.197
			c4.918,1.043,8.795-0.149,12.223,1.043c1.34,0.299,2.533-1.49,4.023,0c2.086-0.596,3.428-0.298,4.918-0.447
			c2.535,1.044,5.068-0.148,8.197,0.299c4.322-1.49,8.943-1.49,13.562-1.64c6.41,1.49,14.756,0.596,21.016,1.341
			c1.191-0.596,2.98,0.597,5.812-0.745c-1.789-1.49-1.938-1.639-1.938-1.788c-0.299-0.148-0.895,0.298-1.191-0.298
			c0-0.895-1.045-1.341-2.387-1.64c-2.086-1.788-5.363-1.788-7.451-3.577c-0.447-1.043-0.596-0.149-1.043-0.149
			c-0.895-1.787-3.279-1.639-4.473-3.278c-6.557-3.13-13.264-5.664-21.311-5.962c-0.447,0.149-0.598-0.745-1.492-0.148
			C1147.271,465.746,1143.992,466.044,1140.266,467.981z"/>
		<path style="fill:#17192D;" d="M1189.002,443.837c0.447,0.148,0.746,0.298,1.043,0.597c-1.34,3.427-5.365,1.49-8.494,2.384
			c-2.684,0.447-5.217,0-7.9,0.148c-7.303,0.149-14.605-0.148-21.609,0c-3.727,0-8.645,0.299-12.52-0.148
			c-2.533-0.298-5.664,0-8.199,0.148c-6.109,0.597-11.922,0-18.332,0.448c-0.297-0.299-0.596-0.299-0.893-0.299
			c-2.684,1.342-5.664,0.149-8.197,0.596c-6.111,0.299-11.924,0.896-17.885,0.896c-4.174-1.789-8.496,0.894-12.816-0.149
			c-0.598-0.149,0.893-1.788,1.34-1.788c6.559-4.472,14.158,1.788,21.461-0.299c8.646-2.385,18.334-1.489,26.828-1.937
			c8.494-0.448,16.543,0.297,25.188,0c2.385-0.299,4.77-0.299,7.303-0.299c0.598,0,1.342,0.149,1.938,0.149
			c6.559-0.149,13.117-0.149,18.93-1.044C1180.656,444.434,1184.383,443.688,1189.002,443.837z"/>
		<path style="fill:#17192D;" d="M1181.4,409.41c-0.445,3.129,0.15,5.812,1.193,8.346c-0.15,0.745-0.746,1.491-1.193,1.64
			c-1.938,2.832,1.789,7.899-3.129,9.39c-1.639,0.447-3.428-0.298-4.77,0.895c-5.217,1.938-6.855,0.447-11.924,0.895
			c-4.471,0.297-9.836-1.938-14.158,0c-2.385,0-4.322-0.895-6.408-1.192c-5.664,2.086-12.072-1.043-18.033,0.446
			c-4.322,0.299-7.752-1.489-12.074,0.447c-0.895,0.149-1.639,0.149-2.385,0.447c-8.793,0-17.883-0.895-26.527,0.148
			c-4.322,0-8.496-0.148-12.371-2.235c-0.746-0.596,0.148-1.49,0.895-1.788c1.043,0,2.533-0.298,4.172,1.043
			c3.131-1.341,5.963,0.149,8.645-0.447c2.236,0.597,4.77,0.746,7.154,0.15c5.068-2.981,10.434,0.446,15.65,0.297
			c5.066-0.148,10.133-2.086,15.35-1.49c5.365,0.745,11.625,1.193,17.141,0.596c1.787-0.596,3.875,0.299,5.514-0.297
			c1.641,0.297,3.875,0.148,5.365,1.191c2.088-0.297,4.621-0.745,6.707-1.341c1.193,0.596,2.98,0.446,4.023,0.745
			c5.664,0.447,6.857,1.192,12.072-0.596c3.43,1.191,2.088-2.386,5.068-3.131c1.938-0.745,0.895-1.639,0.895-2.682
			c-0.447-2.386,1.938-4.174,0.895-6.261c-0.746-1.938-0.15-4.472-1.641-6.558c-0.148-0.596-0.148-1.341,0.598-1.341
			C1180.061,406.28,1180.357,408.218,1181.4,409.41z"/>
		<path style="fill:#17192D;" d="M1139.969,369.617c5.812,0.446,11.773,1.788,18.033,2.533c7.602,0.895,15.5,1.788,22.654,5.365
			c3.727,3.726,8.346,5.664,11.326,10.582c0.447,2.683,2.385,2.235,1.492,5.515c0.148,0.447-0.301,0-0.301-0.597
			c-3.426,0.149-1.787-0.745-4.322-4.173c-3.873,1.192-6.705-0.596-9.537,0.597c-11.924-0.746-22.207,0-33.832,1.192
			c-2.832,1.341-6.408,1.341-9.688,0.894c-2.086-0.745-4.322,0.745-6.855,0.299c-7.75-0.447-16.395-0.447-23.996,0.596
			c-5.662-0.298-11.178,0-16.99,0.596c-2.234-0.446-4.77-1.191-7.898-0.298c-0.896,2.087-1.938,1.641-1.193,3.428
			c-0.299,0.299-0.596,0.745-1.043,1.044c-0.447-0.149-0.895,0-1.342-0.447c0.596-4.322,3.428-6.707,6.111-9.985
			c5.217-4.77,11.924-7.006,17.586-11.626c3.727-2.385,7.602-2.683,11.625-4.322c5.068-0.745,10.73-0.447,15.65-1.489
			C1131.621,370.361,1135.645,370.063,1139.969,369.617z M1116.42,373.343c-5.812-0.298-9.838,2.385-15.352,4.024
			c-0.299,0.298-1.639,1.639-2.385,2.086c-4.172,2.98-9.092,4.322-13.562,10.284c5.365-0.447,8.049,1.49,10.582,0.447
			c3.727,0.447,7.004-1.491,10.73-1.64c5.365,1.64,11.178,0.298,16.693,1.043c5.066,0.597,10.582-0.596,15.797-0.895
			c9.24-3.576,19.973-1.042,29.51-2.086c4.621,0,9.986-0.745,17.289,0.149c-2.832-5.962-7.898-7.006-11.326-8.942
			c-8.793-2.385-17.586-3.876-26.678-4.77c-1.789-0.299-4.025,0.447-5.664-0.597C1133.857,372.896,1124.021,370.063,1116.42,373.343
			z"/>
		<path style="fill:#17192D;" d="M1189.748,341.598c-1.492,3.279-5.068,3.578-7.602,5.366c-3.428,1.788-7.154,3.576-11.029,4.023
			c-1.043,0.597-2.533,0.746-3.727,0.895c-9.984,1.788-19.672,5.812-30.105,6.11c-7.154,1.49-15.053,0.745-22.803,0.596
			c-6.41,0-14.605-1.788-21.016-4.619c-3.129-0.745-6.557-1.938-8.793-3.875c-3.279-0.895-5.812-3.279-8.643-5.067
			c-0.598-1.044-1.344-2.087-1.344-3.13c0-0.149-0.148-0.299-0.148-0.299c2.98,0.745,5.812,2.98,8.793,4.77
			c2.387,1.342,3.727,3.131,6.26,3.727c4.322,0.894,7.75,3.875,12.223,3.576c8.195,2.087,17.139,1.938,26.977,1.342
			c-1.49-3.428,1.041-4.769-0.15-6.855c0.15-0.895,0.299-1.49,0.596-2.088c0.447-0.446,0.746-0.893,1.342-0.446
			c0.299,0.298,0.447,0.446,0.744,0.745c-0.297,0.895,0.299,1.49,0.746,1.938c-0.447,1.938,0,3.875-0.297,6.26
			c7.303,0.745,12.221-1.341,18.182-1.64c2.535-1.191,6.41-1.49,9.539-2.385c2.832-0.894,6.26-0.894,8.941-2.533
			c2.236,0.298,4.77-0.447,6.559-2.683c3.875,0.148,6.855-2.683,11.326-3.577c0-1.192,0-0.745,0-0.745
			c0.746-0.298,2.236-1.938,4.025-1.342C1190.195,340.405,1190.045,341.002,1189.748,341.598z"/>
		<path style="fill:#17192D;" d="M1174.693,308.364c-5.365,3.874-12.221,3.278-17.139,7.451c-1.938,0.597-4.023,1.64-5.664,2.683
			c-4.619-0.149-9.389,2.832-15.648,5.663c4.023,1.64,7.004,1.192,9.09,0.597c8.795,0,16.545-1.49,25.785-0.149
			c2.533,0,5.664-0.745,7.898,0.299c4.322,0.149,9.391-1.044,13.115,1.043c0.15,0.148,0.15,0.148,0.299,0.298
			c-3.129,0.895-7.154,0.596-10.283,0.447c-2.684-0.745-5.514,0.298-8.496,0.298c-5.812,0.149-11.922-1.937-17.139,0.597
			c-4.77,0.596-9.24-1.64-13.861,0c-4.172,1.341-8.346-0.746-12.221,1.192c-7.154-1.192-16.395,0.148-24.145-1.192
			c-8.795,0-17.736,0.596-26.381-0.895c-4.768-0.148-6.705-1.043-11.178-1.938c-0.148,0,0.746-1.043,0.746-1.342
			c4.768-2.831,6.408-3.726,11.475-5.663c7.006-2.831,14.457-2.235,21.463-4.174c9.836,0.15,19.523,1.491,26.678,10.881
			c13.117-7.899,27.125-8.793,39.793-15.648c5.664-1.789,10.881-4.621,16.545-6.409c0.893,0,2.383-0.597,3.426-0.298
			C1184.232,304.786,1179.463,306.874,1174.693,308.364z M1090.785,318.2c-1.938,0.596-4.322-0.149-6.111,1.043
			c-2.385-0.298-4.619,1.044-6.557,1.788l-3.578,2.534c1.342,0.149,6.559,0.596,8.049,0.895c1.938,1.938,5.365,1.043,7.75,1.639
			c11.029-1.49,23.398,0.299,36.662-0.298c-1.936-2.385-3.873-2.979-4.918-4.023c-2.086-2.087-7.898-4.322-11.773-5.962
			C1103.602,316.709,1096.449,315.22,1090.785,318.2z"/>
		<path style="fill:#17192D;" d="M1091.68,263.055c1.639,0,4.023-0.149,5.811-0.298c4.324-2.683,11.029,0,16.098,0.597
			c3.129-1.789,8.346-0.746,11.625-1.044c4.77-1.192,11.029,0.298,16.543,0.298c9.688,0,20.867-0.298,30.553-0.745
			c1.49-0.149,2.982-1.043,4.324-0.447c0.148,0.149,0.297-0.148,0.445-0.148c-3.428,2.235-7.602,2.384-11.027,3.875
			c-4.918,4.321-10.584,6.558-15.799,9.836c-6.26,2.832-12.668,4.918-18.332,9.24c-1.789,0.895-3.428,1.938-5.217,2.832l-4.32,2.087
			l4.918,0.298c11.623,0.745,22.504-2.087,34.428-0.447c4.768,0,9.24-1.938,13.859-1.043c1.193-0.149,2.684,0,3.727,0
			c-0.148,0.299,0,0.895-0.148,1.043c-1.193,0-2.236,0.298-3.279,1.043c-1.193,0.597-2.684,0.597-4.023,0.896
			c-4.025,0.446-8.049-0.149-12.072,0.744c-10.881,0.299-21.463-1.043-32.045,0.149c-4.918-0.894-9.836,1.64-14.605,0.298
			c-3.131,0.746-7.154-0.894-9.539,0.895c-7.152-0.746-14.158-1.938-21.609-1.938c-1.641-0.596-4.174,0-4.92-1.789
			c-0.148-0.148,0.895-1.639,0.895-0.894c8.049-2.087,14.904,2.683,24.145,1.639c4.77-0.596,9.688,0,14.756-1.49
			c1.49-2.086,3.725-1.937,5.365-3.278c2.98-0.447,5.961-1.192,7.898-3.279c7.602-3.726,15.352-5.067,21.463-10.581
			c1.787-0.745,3.576-1.64,5.514-3.279c0-0.447,4.322-2.385,4.322-2.832c-0.148-0.298-4.619,0.745-4.619,0.149
			c-5.812,0-11.18-1.044-15.799,0.596c-8.346-2.086-16.99-2.235-25.934-0.298c-6.408-0.745-12.967-1.64-19.225-0.447
			c-5.217-2.235-11.029,2.385-15.799-1.788c-0.447-1.342-2.832-0.895-2.684-2.533C1082.439,260.074,1086.76,262.905,1091.68,263.055
			z"/>
		<path style="fill:#17192D;" d="M1183.486,172.438c1.193,0.597,2.387,0,3.727,0.299c1.043,0,1.789,0.298,2.684,0.895
			c0.148,0.745-0.744,1.341-1.191,2.086c-1.045,1.342-2.236-0.745-2.535-0.745c-0.297-0.596-1.787,0.745-3.279-1.49
			c-2.98,0.895-5.662,0.895-7.748,0.299c-4.174,0.446-8.795-0.746-12.818,0.894c-1.641,0.148-2.533,2.087-3.279,2.98
			c-0.148,0-0.744,1.789-2.086,2.385c-1.938,1.789-4.77,4.62-5.664,5.365c-0.746,0.746,0-0.895-1.342,0.597
			c-0.744,0.596-0.447,0.895-1.49,2.534c-1.342,1.639-4.023,4.471-4.621,5.216c-0.893,1.789-1.787,3.875-2.83,6.26
			c3.129,2.086,6.26,1.49,8.346,2.831c2.684,0.149,5.961,0.746,8.793,1.49c1.641-1.341,2.832,0.299,4.023,0.299
			c1.641,0.894,4.174,0.745,6.111,1.64c3.727,0.597,7.006,2.831,11.178,2.087c1.492,0.298,3.279,0.894,4.77,1.341
			c-0.15,0.298-0.297,0.596-0.596,0.596c-2.533,0.447-4.77-0.894-7.004-0.744c-0.598-0.448-1.045-0.597-1.641-0.448
			c-1.193-0.148-2.385-0.446-3.428-0.446c-2.385-0.745-4.023,0.596-7.9-1.938c0,2.235,0.299,0.895,0.299,0.895
			c-2.234-0.598-5.365-1.49-8.346-1.342c-1.789-1.192-4.023-0.746-5.812-1.192c-4.174-0.447-7.004-2.087-11.029-1.789
			c0,0-0.148-0.148-0.297-0.148c-1.193-0.745-2.535-0.299-3.279-1.044c-9.092-2.534-18.332-5.067-27.424-7.601
			c-2.086-1.043-3.875-1.49-6.111-2.385c-2.98-1.043-5.811-2.831-8.941-4.024c-3.131-1.191-6.111-3.13-9.688-4.172
			c-0.895-0.448-2.385,0.298-2.385-1.193c0-0.447-0.447-1.49-0.148-1.639c1.043-1.64,4.023-1.64,5.514-2.385
			c3.576-0.299,8.645-1.044,12.965-1.938c1.641-1.938,4.174-0.448,6.111-1.193c7.303,0.299,14.904-3.427,23.25-2.385
			c10.582-1.639,22.357-2.532,32.342-1.639C1168.285,172.142,1175.887,171.396,1183.486,172.438z M1138.328,174.973
			c-1.938-0.745-4.918,1.044-7.898,0.447c-3.578-0.597-7.451,0.597-11.029,1.192c-3.428-0.596-6.109,1.49-9.539,1.192
			c-2.234,0.298-5.961,0.298-8.941,0.895c-4.92,0.894-9.391,2.235-15.053,2.683c2.234,2.534,6.26,4.321,6.855,4.471
			c3.131,1.044,5.662,2.832,8.494,3.726c4.322,1.491,8.049,2.981,12.074,4.174c2.83,0.745,6.557,1.64,9.092,2.087
			c2.83-0.149,6.854,2.384,10.729,2.98c2.236,0.298,1.193,1.341,4.322,0.447c1.193-2.831,2.98-4.77,4.025-7.304
			c1.342-1.788,2.086-1.937,4.023-4.023c1.342-1.342,2.682-3.429,4.172-5.365c1.344-1.49,3.131-3.13,4.025-4.174
			c0-0.298,1.787-2.235,1.787-3.428c-2.086-0.446-4.469-0.446-5.812-0.596C1145.631,173.781,1142.502,174.377,1138.328,174.973z"/>
		<path style="fill:#17192D;" d="M1111.352,116.997c4.174,0.744,7.602,1.49,12.072,0.893c7.75,3.279,16.693-1.341,23.996,4.025
			c4.023,0.894,9.092,1.042,12.816,2.98c6.26,2.086,12.818,2.98,18.184,7.303c2.236,2.98,3.875,5.663,5.516,8.793
			c-0.299,2.981-0.15,6.408-2.832,7.75c-5.664,2.235-11.627,3.279-17.141,6.11c-11.922,0.299-22.951,4.621-34.131,2.683
			c-5.363,1.193-10.58-0.147-15.945,0.746c-9.24-0.597-17.736-4.322-26.68-5.963c-1.938-1.639-9.537-2.979-3.428-5.364
			c4.025-0.745,6.559,2.236,10.135,3.129c2.086,0.448,4.025,2.833,6.41,2.833c9.09,1.639,16.988,3.278,26.826,2.087
			c8.494,2.086,17.736,0,26.23-1.789c8.049-0.597,15.352-2.832,22.805-4.918c3.576-1.64,2.234-4.621,3.875-8.496
			c-1.938-1.342-1.342-4.173-2.684-5.365c-2.385-2.683-7.154-4.024-10.135-5.812c-4.918-0.745-9.836,0-13.414-2.832
			c-4.023-0.745-8.645,0.298-11.773-2.832c-13.414-2.235-26.977-1.191-39.496-4.321c-7.303-0.746-13.414-1.043-19.375-4.77
			c0.299-0.895,1.789-0.447,2.385-0.745C1094.809,112.525,1102.262,117.741,1111.352,116.997z"/>
		<path style="fill:#17192D;" d="M1071.559,81.377c-0.148,1.787-0.148,5.514-0.744,7.898c-0.299,1.042,0.447,2.98-1.193,4.472
			c0.447,2.98,2.533,1.787,3.428,2.98c4.471,2.831,9.539-0.597,14.457,1.788c8.494-0.298,21.164,1.192,30.105,0.894
			c0.15,0,0.746-0.148,1.641-0.148c0.744-1.192,1.639-2.087,1.49-3.428c1.043-1.64-0.299-2.086,0.447-4.173
			c0.893-2.833,0-1.193,1.49-3.876c0.744-0.596,1.49-1.192,2.385-1.043c0.596,1.49,0,2.832,0,4.62
			c-1.938,4.024-0.299,1.938-1.49,6.856l0.895,0.894c4.172-0.446,7.6-0.745,11.326-0.745l0.744-0.298
			c3.875,0.597,9.242,0.298,12.818,0.447c16.246,0.596,33.832,0,49.184,1.938c1.043,0.148,0.148,1.192-0.447,1.342
			c-7.451,0.596-15.947-1.044-23.697-0.299c-0.15-0.149-0.598-0.298-0.746-0.447c-3.129-0.298-8.793,0.447-12.668-0.148
			c-5.516,1.937-11.477,0-16.691,0c-7.303-1.044-14.904,1.043-23.252,1.341c-1.787,0-4.619,0.745-6.258-0.298
			c-8.943,0.148-19.227-0.298-27.127-1.043c-1.639,0.446-4.77-0.746-6.26-0.149c-2.832-0.447-6.855-0.746-9.686-0.895
			c-1.193-0.298-3.131-1.938-4.621-2.384c-1.49-1.49,0.744-3.577,0.744-5.812c-1.34-1.64,0.15-2.534,0.15-4.174
			c0.297-0.447,0.297-1.192,0.445-1.64c1.193-1.938,0.447-5.067,2.535-6.706C1072.305,78.991,1071.262,81.377,1071.559,81.377z"/>
		<path style="fill:#17192D;" d="M1178.42,67.367c0,0.744-1.043,1.191-1.639,1.341c-2.236,1.49-5.365,0.149-7.75,1.341
			c-0.746,0-1.342-0.298-1.789-0.744c0-0.746,0.299-1.044,0.596-1.342c2.088-0.596,4.174-4.024,6.707-1.491
			C1176.482,66.323,1177.377,66.771,1178.42,67.367z"/>
	</g>
	<path style="fill:none;stroke:#17192D;stroke-width:3;" d="M2048,0"/>
	<path style="fill:none;stroke:#17192D;stroke-width:3;" d="M2048,1536"/>
	<path style="fill:none;stroke:#17192D;stroke-width:3;" d="M0,1536"/>
	<path style="fill:none;stroke:#17192D;stroke-width:3;" d="M0,0"/>
</g>
<g id="Layer_1">
</g>
</svg>
