<svg xmlns="http://www.w3.org/2000/svg" width="2048" height="1536" viewBox="0 0 2048 1536"><g><g fill="#17192D"><path d="M1189.002 949.967c.447.148.746.3 1.043.596-1.34 3.428-5.365 1.492-8.494 2.385-2.683.447-5.216 0-7.9.15-7.302.148-14.604-.15-21.608 0-3.727 0-8.645.297-12.52-.15-2.533-.297-5.664 0-8.2.15-6.108.596-11.92 0-18.33.447-.298-.3-.597-.3-.894-.3-2.684 1.343-5.664.15-8.197.597-6.11.3-11.923.895-17.884.895-4.174-1.79-8.496.895-12.816-.148-.598-.15.893-1.79 1.34-1.79 6.56-4.47 14.158 1.79 21.46-.3 8.647-2.384 18.335-1.49 26.83-1.937s16.542.3 25.187 0c2.385-.297 4.77-.297 7.303-.297.598 0 1.342.148 1.938.148 6.56-.148 13.117-.148 18.93-1.043 4.468 1.192 8.195.448 12.814.597zM1193.92 891.395c-11.773 5.217-21.908 12.072-32.19 18.928-.896.447-1.194 1.64-3.132 1.64-4.77 4.77-10.73 5.218-15.053 9.54-3.875 1.938-8.197 4.172-12.668 7.6.596.447 1.64.896 2.086 1.193 3.13 1.49 6.26.297 9.092.447 8.943.297 17.14-1.193 25.04-1.342 7.6 0 14.604-1.788 21.31-1.042.15.3.15.744.15 1.342-.448 3.428-4.323 1.043-5.962 1.64-7.154.894-13.414 1.042-21.164 1.34-9.54.597-18.93.15-28.468 1.192-6.408.596-12.22 0-18.332 1.342-10.135-1.193-20.418 4.023-30.553 1.938-2.385 0-4.77 1.19-7.303.596-1.043-.746-5.812.15-3.428-2.086 7.75-1.193 15.797 0 23.697-1.043 11.924-.448 24.592-1.194 33.385-8.796 1.49-.445 2.682-1.49 3.725-2.234 3.727-2.236 7.752-3.875 10.88-7.154 3.13-1.043 5.964-2.832 8.497-4.62 4.47-4.47 10.432-6.11 15.35-9.538 0-.598.447-.447.746-.598 1.342-.596 2.385-1.787 4.023-2.98 0-.596 4.32-1.49 4.173-1.938-.15-.445-5.068-.297-5.516-.596-6.854 1.49-15.35 2.086-23.25 2.832-8.494.746-14.158 2.385-22.207 2.533-2.83-.595-6.855 2.237-9.688-.147-3.13 0-4.918-.148-7.45.746-2.237 0-4.472-.3-7.155-.3-.596-.15-1.19.447-1.79.447-2.532 1.64-3.874-2.236-5.81-.447-.896.3-1.79 1.043-2.684-.3-4.77 1.343-8.496.6-12.52-1.638-1.342.596-1.79-.148-2.385-.596v-.447c.447-1.044 1.342.446 1.342.296 0 0 .895.746 1.79-.148.595-.895 1.937 1.043 2.233.596 5.068 1.193 11.03.895 16.693.15 5.217.895 13.115-.598 18.033.445 1.042-.15 2.384-1.044 4.173-.446 1.64-1.492 3.873-.15 5.066-1.045 6.26-.448 12.966-1.49 19.374-1.49 6.11-.597 12.818-1.192 17.736-1.94 1.043.3 2.236-.595 3.28.15 2.532-.595 3.575-.595 5.513-.894 3.875-.746 8.793-1.342 12.22-2.086.6 0 1.343-.45 2.237-1.49-.746-1.342.895-.746 1.043-.746 1.342-.596 3.578.596 5.812-.15.005.448.155.895.005 1.34zM1139.97 813.002c5.81.447 11.772 1.79 18.032 2.533 7.602.895 15.5 1.79 22.654 5.365 3.727 3.727 8.346 5.664 11.326 10.582.447 2.684 2.385 2.236 1.492 5.516.148.447-.3 0-.3-.598-3.427.15-1.788-.744-4.323-4.172-3.872 1.19-6.704-.598-9.536.596-11.924-.746-22.207 0-33.832 1.193-2.832 1.34-6.408 1.34-9.688.893-2.086-.744-4.322.746-6.855.3-7.75-.448-16.396-.448-23.997.595-5.662-.297-11.178 0-16.99.596-2.234-.446-4.77-1.19-7.898-.296-.896 2.086-1.938 1.64-1.193 3.428-.3.3-.596.744-1.043 1.043-.448-.148-.896 0-1.343-.447.596-4.322 3.428-6.707 6.11-9.986 5.218-4.768 11.925-7.004 17.587-11.625 3.727-2.385 7.602-2.682 11.625-4.32 5.067-.746 10.73-.45 15.65-1.492 4.17 1.04 8.195.744 12.52.297zm-23.55 3.727c-5.812-.3-9.838 2.384-15.352 4.022-.3.297-1.64 1.64-2.385 2.086-4.172 2.98-9.092 4.322-13.562 10.285 5.366-.45 8.05 1.49 10.583.445 3.727.45 7.004-1.49 10.73-1.64 5.365 1.64 11.178.3 16.693 1.044 5.066.596 10.582-.596 15.797-.895 9.24-3.576 19.973-1.043 29.51-2.086 4.62 0 9.986-.743 17.29.15-2.833-5.962-7.9-7.005-11.327-8.942-8.793-2.385-17.586-3.875-26.678-4.77-1.79-.3-4.025.447-5.664-.596-8.197.45-18.033-2.383-25.634.897zM1189.748 784.982c-1.492 3.28-5.068 3.578-7.602 5.365-3.428 1.79-7.154 3.578-11.03 4.025-1.042.596-2.532.744-3.726.893-9.984 1.79-19.672 5.814-30.105 6.11-7.154 1.49-15.053.747-22.803.597-6.41 0-14.605-1.787-21.016-4.62-3.13-.743-6.557-1.937-8.793-3.874-3.28-.895-5.812-3.28-8.643-5.068-.598-1.043-1.344-2.086-1.344-3.13 0-.147-.148-.298-.148-.298 2.98.746 5.812 2.98 8.793 4.77 2.388 1.342 3.728 3.13 6.26 3.727 4.323.894 7.75 3.874 12.224 3.575 8.195 2.088 17.14 1.938 26.977 1.342-1.49-3.428 1.042-4.77-.15-6.855.15-.895.3-1.49.597-2.086.447-.447.746-.895 1.342-.447l.743.743c-.297.895.3 1.49.746 1.938-.448 1.94 0 3.876-.298 6.26 7.303.747 12.22-1.34 18.182-1.638 2.535-1.193 6.41-1.49 9.54-2.385 2.83-.895 6.26-.895 8.94-2.533 2.236.297 4.77-.447 6.56-2.684 3.874.148 6.854-2.682 11.325-3.576v-.746c.745-.297 2.235-1.938 4.024-1.342-.15.745-.3 1.34-.596 1.936zM1091.68 741.764c1.64 0 4.023-.15 5.81-.298 4.325-2.684 11.03 0 16.1.596 3.128-1.79 8.345-.745 11.624-1.044 4.77-1.19 11.03.3 16.543.3 9.688 0 20.867-.3 30.553-.746 1.49-.15 2.982-1.044 4.324-.448.148.15.297-.147.445-.147-3.43 2.235-7.603 2.384-11.028 3.874-4.918 4.323-10.584 6.56-15.8 9.838-6.26 2.832-12.667 4.918-18.33 9.24-1.79.895-3.43 1.94-5.218 2.832l-4.32 2.088 4.918.297c11.623.746 22.504-2.086 34.428-.447 4.768 0 9.24-1.938 13.86-1.043 1.192-.148 2.683 0 3.726 0-.148.3 0 .895-.148 1.043-1.193 0-2.236.3-3.28 1.043-1.192.598-2.683.598-4.022.895-4.025.447-8.05-.148-12.072.746-10.88.298-21.463-1.042-32.045.15-4.92-.896-9.837 1.64-14.606.298-3.13.744-7.154-.895-9.54.893-7.15-.743-14.157-1.935-21.608-1.935-1.64-.598-4.174 0-4.92-1.79-.148-.147.895-1.638.895-.894 8.05-2.085 14.905 2.684 24.146 1.64 4.77-.596 9.688 0 14.756-1.49 1.49-2.086 3.725-1.938 5.365-3.28 2.98-.446 5.96-1.19 7.898-3.277 7.602-3.727 15.352-5.067 21.463-10.582 1.787-.744 3.576-1.638 5.514-3.278 0-.446 4.322-2.384 4.322-2.83-.148-.3-4.62.744-4.62.148-5.81 0-11.18-1.044-15.798.596-8.346-2.087-16.99-2.235-25.934-.298-6.408-.745-12.967-1.64-19.225-.447-5.217-2.234-11.03 2.386-15.8-1.787-.446-1.343-2.83-.895-2.683-2.534 5.065-.898 9.386 1.934 14.306 2.084zM1172.906 658.004c1.34 3.13.445 7.153 1.043 9.688-.3 4.62.743 8.793 1.49 13.265-.15.895-.597 1.938-1.343 2.533-3.13-.745-6.408-.596-9.24-.894-2.832 1.042-6.11-.3-9.39-1.343-5.663.598-11.626-.446-16.84-.894-6.41.744-12.224-.448-18.48-1.044-5.665.895-11.18-.895-16.546-2.533-1.042-1.342-1.49-1.193-2.085-.15-8.346-.744-15.797-3.576-23.55-6.408-5.216-1.938-4.17-1.64-9.983-3.875-.746 2.385 0 4.322-.3 5.515-.296 1.64-.296 3.28 0 4.92-.296 3.128.15 7.003 1.343 10.133-.15.15-.15.298-.3.447-1.042-.15-1.638-1.342-2.085-2.385-.596-1.938 0-3.428-1.342-4.918-.3-2.385.148-4.472-.3-7.154 1.194-3.428-1.49-8.197 2.833-8.793 2.685 2.087 5.368 2.385 8.497 3.577 1.79.745 4.174 1.34 6.408 1.937 12.52 3.278 24.145 7.005 37.11 7.9 5.515-1.194 11.327 1.34 17.142.743 6.408 0 12.518.447 19.523 1.79 2.533.446 5.217-.15 8.494 1.34 3.13-3.726 8.346 1.64 7.9-4.918-.895-4.47-1.193-9.688-1.193-14.01.15-1.64-.446-3.726.597-4.77.152 0 .3.15.6.3zM1120.592 601.966c9.986 3.577 20.568 2.533 30.107 6.558 9.835 4.173 20.565 5.962 30.7 9.24.3.3.746.745 1.043 1.19-3.277 1.344-7.6-1.34-11.475-.892-11.775-.895-22.805 2.98-35.174 4.62l-.596 2.683c13.412 2.683 24.74 8.345 37.11 10.73.446.298 1.192.447 1.64.745 2.684.15 5.96-1.64 7.898-.15-.148 1.045-1.19 1.49-2.234 1.79-2.385-.3-4.174 1.34-6.41 1.938-13.264-.597-25.04 2.235-38.45 3.13-16.544 1.19-32.94 2.385-48.59 2.235-8.196 1.19-14.454 1.49-20.864.745-.596-.3-1.79 0-2.385-.15.447-.297.895-.744 1.342-1.19 4.918-1.044 9.24-1.044 14.457-1.49 22.654-1.79 47.543.148 70.793-3.727 4.174-.744 8.348-.446 12.818-.894 2.98-1.044 1.64-4.023-.596-3.428-9.688-4.77-21.463-5.515-31.15-9.092-1.787-.596-4.62-.15-5.365-1.937.297-.598.895-.896 1.49-1.194 10.135-3.278 21.164-4.472 36.365-8.346-9.39-3.43-14.904-4.024-19.227-6.558-10.88 0-18.332-4.472-29.21-4.472-8.347-3.13-18.183-1.788-26.53-5.365-6.855-.15-12.52-1.64-20.566-2.98-.148 0-.596 0-.746-.15.15-.297.3-.596.447-1.042 1.19 0 1.938-.596 2.533-.895 16.843 1.342 33.834 6.112 50.824 8.348zM1087.506 570.22c2.236.3 3.727 2.534 6.26 2.534 4.77 2.385 9.24 3.577 15.053 3.875.894.446 2.384.595 3.427.893 3.28.3 6.26 1.79 9.39 1.79 1.94.596 4.62-.448 6.41 1.937 2.384-.596 4.173-1.192 5.663-1.938.596-1.192 2.234-2.683 2.086-4.322 1.043-1.64.148-2.98.895-5.067.896-2.832.896-4.472 2.386-7.45.744-.6 1.49-1.194 2.385-1.045.597 1.49 0 3.278 0 5.067-1.937 3.875-1.64 5.962-2.98 11.028 1.192.746.745 1.342 1.192 1.64 3.727.597 7.75.15 10.88-.596 1.938.298 3.577-.447 6.558-.447.596-1.788 1.938-.447 2.832-.895 5.365-.447 10.135-3.428 15.648-3.726 2.385-2.088 6.408-1.79 8.795-3.578 2.83.298 4.322-3.428 7.898-2.533 1.79-1.343 3.428-2.982 5.662-2.982.598.447 1.193.895 1.79 1.49-.298 2.236-2.833 2.386-4.472 3.577-2.533.3-4.918.895-6.707 2.534-3.28-.15-5.217 2.682-8.346 2.532-1.193.745-2.385.895-3.28 1.49-1.19-.148-2.235.3-3.13.745-6.855 0-12.22 4.472-19.076 4.025-.895.596-2.533.596-3.428.744-7.303 2.533-15.8 2.087-23.25 1.938-3.428-.895-7.602 0-10.582-1.49-9.24-1.64-18.182-5.365-26.977-7.75-4.172-1.64-8.047-4.174-11.924-6.26-4.322-2.385-9.39-4.023-12.518-8.347 0-.298 0-.745.297-.894 6.707 4.323 13.713 8.197 21.164 11.477zM1189.002 541.755c.447.148.746.298 1.043.596-1.34 3.43-5.365 1.492-8.494 2.386-2.683.447-5.216 0-7.9.148-7.302.15-14.604-.148-21.608 0-3.727 0-8.645.3-12.52-.148-2.533-.298-5.664 0-8.2.148-6.108.597-11.92 0-18.33.448-.298-.3-.597-.3-.894-.3-2.684 1.343-5.664.15-8.197.598-6.11.298-11.923.895-17.884.895-4.174-1.79-8.496.894-12.816-.15-.598-.148.893-1.787 1.34-1.787 6.56-4.472 14.158 1.788 21.46-.3 8.647-2.384 18.335-1.49 26.83-1.937s16.542.3 25.187 0c2.385-.297 4.77-.297 7.303-.297.598 0 1.342.148 1.938.148 6.56-.147 13.117-.147 18.93-1.042 4.468 1.193 8.195.447 12.814.597zM1179.166 473.198c1.938.596 4.023 1.49 5.514 2.086 4.62 2.683 9.54 4.77 14.01 7.75.3.298.895.597 1.49.745.447.148.895.744 1.49 1.192.148.297.148.596-.148.745-3.578 1.34-7.45-.448-11.03.446-2.384-.446-5.81 0-8.345-.446-4.62.297-9.838-1.342-15.053-.15-10.283-1.64-23.55 0-33.684 0-.744-.148-1.64.3-2.385.15-1.193-.3-2.684.895-3.875-.3-5.812.896-12.37-.596-16.246.448-1.19.597-2.682.597-3.875.746-3.577-1.64-8.646.298-12.222-.745-1.79.447-4.322 1.342-6.408 1.043-3.13.745-5.96.448-8.943 1.34-1.787-.595-4.172.45-5.812 0-2.98.747-6.11-.296-9.24 0-.148-.445-.297-.744-.447-1.19 2.684-5.365 6.857-7.602 10.88-12.222 6.41-5.364 17.735-8.346 26.23-2.98 1.044-1.64 1.044.596 1.94.596 3.13 1.64 4.47 3.577 7.6 4.174 2.534 1.34 3.43 3.13 6.558 4.918 2.385-2.533 5.068-4.024 6.56-6.26 2.68-2.534 5.96-3.875 8.644-7.004 7.004-3.43 14.158-7.75 21.908-5.068 8.94.894 17.734 5.217 24.888 9.986zm-110.738 12.22c6.56 1.49 11.477 1.194 16.693-.148 6.26-1.64 14.757-1.043 21.313-1.49 1.49-.745 5.068 0 5.812-2.83-2.682-.448-4.62-2.684-6.11-3.43h-.15c-4.618-2.385-8.644-4.172-13.413-5.216-9.09-1.938-18.332 4.47-24.144 13.115zm71.838-17.437c-.148.598-.596.15-.744.3-1.64.745-1.64-.3-2.385.894 0 .447-.598.596-.598.596-1.49.745-2.98 1.342-2.98 1.49-.298.15-1.044.15-1.64.597-1.342.298-2.533 1.64-3.578 2.683-2.682.895-4.768 4.918-6.26 8.197 4.918 1.043 8.795-.15 12.223 1.043 1.34.3 2.533-1.49 4.023 0 2.086-.596 3.428-.298 4.918-.447 2.535 1.044 5.068-.148 8.197.3 4.322-1.49 8.943-1.49 13.562-1.64 6.41 1.49 14.756.595 21.016 1.34 1.192-.596 2.98.597 5.813-.745-1.79-1.49-1.938-1.64-1.938-1.788-.3-.148-.895.298-1.19-.298 0-.895-1.046-1.34-2.388-1.64-2.086-1.788-5.363-1.788-7.45-3.577-.448-1.043-.597-.15-1.044-.15-.895-1.786-3.28-1.638-4.473-3.277-6.557-3.13-13.264-5.664-21.31-5.962-.448.15-.6-.745-1.493-.148-3.276-.002-6.555.296-10.28 2.233zM1189.002 443.837c.447.148.746.298 1.043.597-1.34 3.427-5.365 1.49-8.494 2.384-2.683.447-5.216 0-7.9.148-7.302.15-14.604-.148-21.608 0-3.727 0-8.645.3-12.52-.148-2.533-.298-5.664 0-8.2.148-6.108.597-11.92 0-18.33.448-.298-.3-.597-.3-.894-.3-2.684 1.343-5.664.15-8.197.597-6.11.3-11.923.897-17.884.897-4.174-1.79-8.496.894-12.816-.15-.598-.148.893-1.787 1.34-1.787 6.56-4.472 14.158 1.788 21.46-.3 8.647-2.384 18.335-1.488 26.83-1.936 8.493-.448 16.542.297 25.187 0 2.385-.3 4.77-.3 7.303-.3.598 0 1.342.15 1.938.15 6.56-.15 13.117-.15 18.93-1.044 4.468 1.194 8.195.448 12.814.597zM1181.4 409.41c-.445 3.13.15 5.812 1.193 8.346-.15.745-.746 1.49-1.193 1.64-1.938 2.832 1.79 7.9-3.13 9.39-1.638.447-3.427-.298-4.77.895-5.216 1.94-6.854.448-11.923.896-4.47.297-9.836-1.938-14.158 0-2.386 0-4.323-.895-6.41-1.192-5.663 2.086-12.07-1.043-18.032.446-4.322.3-7.752-1.49-12.074.447-.895.15-1.64.15-2.385.447-8.794 0-17.884-.895-26.528.148-4.322 0-8.496-.148-12.37-2.235-.747-.596.147-1.49.894-1.788 1.043 0 2.533-.3 4.172 1.042 3.13-1.34 5.963.15 8.645-.447 2.236.597 4.77.746 7.154.15 5.068-2.98 10.434.446 15.65.297 5.066-.148 10.133-2.086 15.35-1.49 5.365.745 11.625 1.193 17.14.596 1.788-.596 3.876.3 5.515-.297 1.64.298 3.875.15 5.365 1.192 2.088-.297 4.62-.745 6.707-1.34 1.193.595 2.98.445 4.023.744 5.664.447 6.857 1.192 12.072-.596 3.43 1.19 2.087-2.386 5.067-3.13 1.938-.746.895-1.64.895-2.683-.447-2.386 1.938-4.174.895-6.26-.746-1.94-.15-4.473-1.64-6.56-.15-.595-.15-1.34.597-1.34 1.937-.447 2.233 1.49 3.276 2.683zM1139.97 369.617c5.81.446 11.772 1.788 18.032 2.533 7.602.895 15.5 1.788 22.654 5.365 3.727 3.726 8.346 5.664 11.326 10.582.447 2.683 2.385 2.235 1.492 5.515.148.447-.3 0-.3-.597-3.427.15-1.788-.745-4.323-4.173-3.872 1.192-6.704-.596-9.536.597-11.924-.747-22.207 0-33.832 1.19-2.832 1.342-6.408 1.342-9.688.895-2.086-.745-4.322.745-6.855.3-7.75-.448-16.396-.448-23.997.595-5.662-.298-11.178 0-16.99.596-2.234-.446-4.77-1.19-7.898-.298-.896 2.087-1.938 1.64-1.193 3.428-.3.3-.596.745-1.043 1.044-.448-.15-.896 0-1.343-.447.596-4.322 3.428-6.707 6.11-9.985 5.218-4.77 11.925-7.006 17.587-11.626 3.727-2.385 7.602-2.683 11.625-4.322 5.067-.745 10.73-.447 15.65-1.49 4.17 1.04 8.195.743 12.52.297zm-23.55 3.726c-5.812-.298-9.838 2.385-15.352 4.024-.3.298-1.64 1.64-2.385 2.086-4.172 2.98-9.092 4.322-13.562 10.284 5.366-.447 8.05 1.49 10.583.447 3.727.447 7.004-1.49 10.73-1.64 5.365 1.64 11.178.298 16.693 1.043 5.066.597 10.582-.596 15.797-.895 9.24-3.576 19.973-1.042 29.51-2.086 4.62 0 9.986-.745 17.29.15-2.833-5.963-7.9-7.007-11.327-8.943-8.793-2.385-17.586-3.876-26.678-4.77-1.79-.3-4.025.447-5.664-.597-8.197.45-18.033-2.383-25.634.897zM1189.748 341.598c-1.492 3.28-5.068 3.578-7.602 5.366-3.428 1.788-7.154 3.576-11.03 4.023-1.042.597-2.532.746-3.726.895-9.984 1.788-19.672 5.812-30.105 6.11-7.154 1.49-15.053.745-22.803.596-6.41 0-14.605-1.788-21.016-4.62-3.13-.744-6.557-1.937-8.793-3.874-3.28-.895-5.812-3.28-8.643-5.067-.598-1.044-1.344-2.087-1.344-3.13 0-.15-.148-.3-.148-.3 2.98.746 5.812 2.98 8.793 4.77 2.388 1.343 3.728 3.132 6.26 3.728 4.323.894 7.75 3.875 12.224 3.576 8.195 2.088 17.14 1.94 26.977 1.343-1.49-3.428 1.042-4.77-.15-6.855.15-.895.3-1.49.597-2.088.447-.446.746-.893 1.342-.446l.743.745c-.297.894.3 1.49.746 1.937-.448 1.938 0 3.875-.298 6.26 7.303.745 12.22-1.34 18.182-1.64 2.535-1.19 6.41-1.49 9.54-2.385 2.83-.894 6.26-.894 8.94-2.533 2.236.297 4.77-.448 6.56-2.684 3.874.148 6.854-2.683 11.325-3.577v-.746c.745-.298 2.235-1.938 4.024-1.342-.15.743-.3 1.34-.596 1.936zM1174.693 308.364c-5.365 3.874-12.22 3.278-17.14 7.45-1.937.598-4.022 1.64-5.663 2.684-4.62-.15-9.39 2.832-15.648 5.663 4.023 1.64 7.004 1.193 9.09.598 8.795 0 16.545-1.49 25.785-.15 2.533 0 5.664-.744 7.898.3 4.322.15 9.39-1.044 13.115 1.043l.3.3c-3.13.894-7.155.595-10.284.446-2.684-.745-5.514.298-8.496.298-5.812.15-11.922-1.937-17.14.597-4.77.597-9.24-1.64-13.86 0-4.172 1.342-8.346-.745-12.22 1.193-7.155-1.192-16.396.148-24.146-1.192-8.795 0-17.736.597-26.38-.894-4.77-.148-6.706-1.043-11.18-1.938-.147 0 .747-1.043.747-1.342 4.77-2.83 6.41-3.726 11.476-5.663 7.006-2.83 14.457-2.235 21.463-4.174 9.835.15 19.522 1.49 26.677 10.88 13.117-7.9 27.125-8.793 39.793-15.648 5.664-1.79 10.88-4.62 16.545-6.41.893 0 2.383-.596 3.426-.297-4.618 2.68-9.387 4.77-14.157 6.26zm-83.908 9.836c-1.938.596-4.322-.15-6.11 1.043-2.386-.298-4.62 1.044-6.558 1.788l-3.578 2.535c1.34.15 6.558.596 8.048.895 1.938 1.938 5.365 1.043 7.75 1.64 11.03-1.49 23.398.298 36.662-.3-1.936-2.384-3.873-2.978-4.918-4.022-2.086-2.087-7.898-4.322-11.773-5.962-6.708.893-13.86-.596-19.525 2.384zM1091.68 263.055c1.64 0 4.023-.15 5.81-.298 4.325-2.683 11.03 0 16.1.597 3.128-1.79 8.345-.746 11.624-1.044 4.77-1.192 11.03.298 16.543.298 9.688 0 20.867-.298 30.553-.745 1.49-.15 2.982-1.043 4.324-.447.148.15.297-.148.445-.148-3.43 2.235-7.603 2.384-11.028 3.875-4.918 4.32-10.584 6.558-15.8 9.836-6.26 2.83-12.667 4.917-18.33 9.24-1.79.894-3.43 1.937-5.218 2.83l-4.32 2.088 4.918.298c11.623.745 22.504-2.087 34.428-.447 4.768 0 9.24-1.94 13.86-1.044 1.192-.15 2.683 0 3.726 0-.148.3 0 .895-.148 1.043-1.193 0-2.236.297-3.28 1.042-1.192.597-2.683.597-4.022.896-4.025.446-8.05-.15-12.072.744-10.88.3-21.463-1.043-32.045.15-4.92-.895-9.837 1.64-14.606.297-3.13.745-7.154-.895-9.54.894-7.15-.746-14.157-1.938-21.608-1.938-1.64-.596-4.174 0-4.92-1.79-.148-.147.895-1.638.895-.893 8.05-2.087 14.905 2.683 24.146 1.64 4.77-.597 9.688 0 14.756-1.49 1.49-2.087 3.725-1.938 5.365-3.28 2.98-.446 5.96-1.19 7.898-3.278 7.602-3.726 15.352-5.067 21.463-10.58 1.787-.746 3.576-1.64 5.514-3.28 0-.447 4.322-2.385 4.322-2.832-.148-.298-4.62.745-4.62.15-5.81 0-11.18-1.045-15.798.595-8.346-2.086-16.99-2.235-25.934-.298-6.408-.745-12.967-1.64-19.225-.447-5.217-2.235-11.03 2.385-15.8-1.788-.446-1.342-2.83-.895-2.683-2.533 5.065-.898 9.386 1.933 14.306 2.083zM1183.486 172.438c1.193.597 2.387 0 3.727.3 1.043 0 1.79.297 2.684.894.148.745-.744 1.34-1.19 2.086-1.046 1.342-2.237-.745-2.536-.745-.296-.596-1.786.745-3.278-1.49-2.98.895-5.662.895-7.748.3-4.174.445-8.795-.747-12.818.893-1.64.148-2.533 2.087-3.28 2.98-.147 0-.743 1.79-2.085 2.385-1.937 1.79-4.77 4.62-5.663 5.366-.746.746 0-.895-1.342.597-.744.596-.447.895-1.49 2.534-1.342 1.64-4.023 4.47-4.62 5.216-.894 1.79-1.788 3.875-2.83 6.26 3.128 2.086 6.26 1.49 8.345 2.83 2.684.15 5.96.747 8.793 1.49 1.64-1.34 2.832.3 4.023.3 1.64.894 4.174.745 6.11 1.64 3.728.597 7.007 2.83 11.18 2.087 1.49.298 3.278.894 4.77 1.34-.15.3-.298.597-.597.597-2.534.447-4.77-.894-7.005-.744-.598-.448-1.045-.597-1.64-.448-1.194-.148-2.386-.446-3.43-.446-2.384-.746-4.022.595-7.9-1.94 0 2.236.3.896.3.896-2.234-.598-5.365-1.49-8.346-1.342-1.79-1.192-4.024-.746-5.813-1.192-4.174-.447-7.004-2.087-11.03-1.79 0 0-.147-.147-.296-.147-1.192-.745-2.534-.3-3.278-1.044-9.092-2.533-18.332-5.066-27.424-7.6-2.086-1.043-3.875-1.49-6.11-2.385-2.98-1.043-5.812-2.83-8.942-4.024-3.13-1.19-6.11-3.13-9.688-4.17-.895-.45-2.385.297-2.385-1.194 0-.447-.447-1.49-.148-1.64 1.043-1.64 4.023-1.64 5.514-2.384 3.575-.3 8.644-1.044 12.964-1.938 1.64-1.938 4.174-.448 6.11-1.193 7.304.3 14.905-3.426 23.25-2.384 10.583-1.64 22.358-2.532 32.343-1.64 7.598.596 15.2-.15 22.8.892zm-45.158 2.535c-1.938-.745-4.918 1.044-7.898.447-3.578-.597-7.45.597-11.03 1.192-3.427-.596-6.108 1.49-9.538 1.192-2.234.298-5.96.298-8.94.895-4.92.893-9.392 2.234-15.054 2.682 2.234 2.534 6.26 4.32 6.855 4.47 3.13 1.045 5.662 2.833 8.494 3.727 4.322 1.49 8.05 2.98 12.074 4.173 2.83.745 6.558 1.64 9.093 2.087 2.83-.15 6.854 2.384 10.73 2.98 2.235.298 1.192 1.34 4.32.447 1.194-2.83 2.98-4.77 4.026-7.304 1.34-1.788 2.085-1.937 4.022-4.023 1.342-1.342 2.682-3.43 4.172-5.365 1.344-1.49 3.13-3.13 4.025-4.174 0-.297 1.786-2.234 1.786-3.427-2.086-.446-4.47-.446-5.812-.596-4.023-.596-7.152 0-11.326.596zM1111.352 116.997c4.174.744 7.602 1.49 12.072.893 7.75 3.28 16.693-1.34 23.996 4.025 4.023.894 9.092 1.042 12.816 2.98 6.26 2.086 12.818 2.98 18.184 7.303 2.236 2.98 3.875 5.663 5.516 8.793-.3 2.982-.15 6.41-2.832 7.75-5.664 2.236-11.627 3.28-17.14 6.11-11.923.3-22.952 4.622-34.132 2.684-5.363 1.193-10.58-.147-15.945.746-9.24-.597-17.736-4.322-26.68-5.963-1.938-1.64-9.537-2.98-3.428-5.364 4.024-.745 6.558 2.236 10.134 3.13 2.086.447 4.025 2.832 6.41 2.832 9.09 1.64 16.988 3.278 26.826 2.087 8.494 2.086 17.736 0 26.23-1.79 8.05-.596 15.352-2.83 22.805-4.917 3.576-1.64 2.234-4.62 3.875-8.496-1.938-1.343-1.342-4.174-2.684-5.366-2.385-2.683-7.154-4.024-10.135-5.812-4.917-.745-9.835 0-13.413-2.832-4.023-.745-8.645.298-11.773-2.832-13.414-2.235-26.977-1.19-39.496-4.32-7.303-.747-13.414-1.044-19.375-4.77.3-.896 1.79-.448 2.385-.746 9.24-.597 16.694 4.62 25.784 3.875zM1071.56 81.377c-.15 1.787-.15 5.514-.745 7.898-.3 1.042.447 2.98-1.193 4.472.447 2.98 2.533 1.787 3.428 2.98 4.47 2.83 9.54-.597 14.457 1.788 8.494-.298 21.164 1.192 30.105.894.15 0 .746-.15 1.64-.15.745-1.19 1.64-2.086 1.49-3.427 1.044-1.64-.298-2.086.448-4.173.893-2.833 0-1.193 1.49-3.876.744-.596 1.49-1.192 2.385-1.043.596 1.49 0 2.833 0 4.62-1.938 4.025-.3 1.94-1.49 6.857l.895.894c4.172-.445 7.6-.744 11.326-.744l.744-.298c3.875.597 9.242.298 12.818.447 16.246.596 33.832 0 49.184 1.938 1.043.148.148 1.192-.447 1.342-7.45.596-15.947-1.044-23.697-.3-.15-.148-.598-.297-.746-.446-3.13-.3-8.793.446-12.668-.15-5.516 1.938-11.477 0-16.69 0-7.304-1.043-14.905 1.044-23.253 1.342-1.786 0-4.618.745-6.257-.298-8.943.148-19.227-.298-27.127-1.043-1.64.447-4.77-.745-6.26-.148-2.832-.447-6.855-.746-9.686-.895-1.193-.298-3.13-1.938-4.62-2.384-1.49-1.49.743-3.577.743-5.812-1.34-1.64.15-2.533.15-4.173.297-.447.297-1.192.445-1.64 1.193-1.938.447-5.067 2.535-6.706 1.342-.15.3 2.237.596 2.237zM1178.42 67.367c0 .744-1.043 1.19-1.64 1.34-2.235 1.49-5.364.15-7.75 1.342-.745 0-1.34-.3-1.788-.745 0-.746.3-1.044.596-1.342 2.088-.596 4.174-4.024 6.707-1.49 1.937-.15 2.832.298 3.875.894z"/></g><path d="M2048 0M2048 1536M0 1536M0 0" fill="none" stroke="#17192D" stroke-width="3"/></g></svg>