<svg xmlns="http://www.w3.org/2000/svg" width="2048" height="1536" viewBox="0 0 2048 1536"><g><g fill="#17192D"><path d="M973.233 1164.678c.3.746 2.684.746 1.79 1.94-4.175 2.83-9.837-.3-14.308 2.085-15.055 4.62-31.002 1.19-46.352 3.28-8.943 1.19-17.29 1.19-26.082 2.98l-5.067-.15-.148.597 5.068 2.236c5.81 1.19 13.264 1.34 18.777 2.682 5.217 1.342 9.688 1.49 14.756 2.98 5.514 1.043 10.88.447 17.14.596.446.3 1.19.15 1.49.596-7.9 3.28-17.587 1.045-25.784 3.43-2.236 1.938-5.96 1.34-8.645 2.533-9.54 0-18.63 3.28-27.572 3.725-1.043.896-2.832 1.045-4.322 1.64 0 .597-4.023 1.49-3.875 1.79.148.447 4.77.297 4.918 1.043 14.756 2.237 28.168 0 41.732 1.64 8.346-3.13 16.99 1.79 25.04-.895 9.536-3.13 20.267.447 28.763-2.83 2.534 0 5.218-1.342 7.452 0 2.684.148 7.154-2.535 9.24.297 0 .3.3.148.447.3-2.087 1.34-5.366.298-7.304.595-11.326 2.832-23.25 3.576-35.023 5.365-4.77 0-9.54.746-14.01-.596-5.812.148-11.775.596-17.885-.447-14.158-.448-27.125 2.384-40.39-1.49-4.92-1.49-9.69 0-14.01-1.044 0-.895-3.278.744-2.534-.596.895-.45 1.49-1.94 3.13-2.236 6.708-3.727 15.5-2.684 22.952-5.365 9.092-1.642 19.375-2.685 28.764-4.92l4.918-1.192v-.596l-4.918-.895c-6.11-1.043-11.922-1.938-18.033-2.682-7.45-3.428-16.246-3.13-23.697-6.41-.447-.447-1.19-.744-1.79-1.043 1.194-1.787 4.77-.148 6.56-.297 6.26-3.28 13.264-.746 20.12-2.535 15.65-1.64 27.274-.744 42.626-2.086 3.576-1.043 9.092-1.043 13.115-1.64 7.155-1.044 14.757 1.788 20.122-2.683 1.044-.745 1.936-.446 2.83.298zM973.68 1117.283c1.193.598 2.385 0 3.727.3 1.043 0 1.79.298 2.684.894.15.746-.745 1.342-1.192 2.088-1.043 1.34-2.236-.746-2.533-.746-.3-.597-1.79.745-3.28-1.49-2.98.894-5.663.894-7.75.298-4.173.447-8.792-.746-12.817.893-1.64.15-2.53 2.09-3.277 2.98-.15 0-.745 1.79-2.087 2.386-1.936 1.79-4.768 4.62-5.662 5.367-.745.744 0-.895-1.34.596-.747.595-.448.894-1.49 2.532-1.343 1.64-4.026 4.47-4.622 5.217-.893 1.788-1.787 3.874-2.83 6.26 3.13 2.085 6.26 1.49 8.346 2.83 2.682.15 5.96.745 8.793 1.49 1.64-1.34 2.832.298 4.023.298 1.64.895 4.174.746 6.11 1.64 3.728.597 7.005 2.833 11.18 2.087 1.49.3 3.276.895 4.77 1.342-.15.297-.298.596-.597.596-2.533.447-4.77-.895-7.006-.746-.596-.445-1.043-.596-1.64-.445-1.192-.15-2.384-.447-3.427-.447-2.385-.746-4.025.596-7.9-1.938 0 2.234.3.895.3.895-2.237-.598-5.366-1.49-8.347-1.342-1.79-1.193-4.023-.746-5.814-1.193-4.173-.447-7.005-2.086-11.028-1.79 0 0-.15-.147-.3-.147-1.19-.744-2.532-.297-3.278-1.043-9.092-2.533-18.332-5.068-27.422-7.602-2.088-1.043-3.875-1.49-6.11-2.385-2.98-1.043-5.813-2.83-8.944-4.023-3.13-1.19-6.11-3.13-9.688-4.172-.895-.45-2.383.297-2.383-1.193 0-.447-.447-1.49-.15-1.64 1.043-1.64 4.025-1.64 5.516-2.384 3.576-.3 8.643-1.045 12.965-1.938 1.64-1.938 4.174-.447 6.11-1.193 7.304.3 14.905-3.428 23.25-2.385 10.583-1.64 22.358-2.533 32.343-1.64 7.6.594 15.2-.15 22.8.89zm-45.158 2.535c-1.938-.744-4.918 1.043-7.898.447-3.578-.596-7.453.596-11.03 1.19-3.43-.595-6.11 1.49-9.538 1.194-2.234.296-5.96.296-8.94.894-4.92.895-9.392 2.234-15.056 2.682 2.236 2.535 6.26 4.322 6.855 4.47 3.13 1.046 5.664 2.833 8.496 3.728 4.323 1.49 8.05 2.98 12.073 4.174 2.832.744 6.56 1.64 9.092 2.086 2.832-.148 6.855 2.385 10.73 2.982 2.236.297 1.19 1.34 4.322.445 1.19-2.83 2.98-4.77 4.025-7.302 1.34-1.79 2.086-1.938 4.02-4.023 1.343-1.342 2.685-3.428 4.175-5.365 1.342-1.49 3.13-3.13 4.025-4.174 0-.3 1.787-2.236 1.787-3.428-2.087-.447-4.472-.447-5.813-.596-4.022-.595-7.15 0-11.325.596zM990.97 1082.41c1.937 1.64 0 1.488-.3 2.086-8.346 7.303-19.97 5.812-28.912 11.625-6.41 2.386-13.266 3.278-19.525 4.77-4.918.15-9.39 2.235-14.01 1.343-1.49 1.19-3.727 0-5.365.596-10.73 0-16.842-2.087-25.188-3.876-2.832.297-5.812-.598-8.047-2.535-3.877.446-7.006-.745-9.838-2.235-6.855-2.533-13.71-5.217-18.63-9.986 0 .147-.894-.3-.446-.597 1.19-.746 2.532.596 3.724 1.19 7.006.597 11.477 5.665 17.736 7.155 2.832 1.49 5.963 1.49 8.645 2.533 11.477 2.983 19.076 5.517 31.15 5.665.148 0 .445-1.043.445.148 10.285-.596 19.078-2.98 28.467-4.023 9.54-2.98 19.078-6.408 28.615-9.39 2.533-1.64 5.516-2.98 8.795-4.173.893 0 2.533-1.64 2.98-1.043.15 0 1.192 0-.298.746zM983.368 1029.5c.15.447.15 1.043 0 1.49-.895.447-1.49.596-2.682.895-.746.148-1.49.148-2.236.148-2.682.598-4.32.895-7.152 1.79-.598.298-.895.595-1.49.894-.746 0-1.045-.148-1.79-.148-3.13-.15-7.302 1.042-8.048.743-7.453 1.342-6.408 1.938-14.904 2.385-6.11.297-10.582.895-16.246 1.49 0 2.98-1.936 5.812-2.383 8.494-.15 1.492-.3 2.236-.598 3.727-.597 1.937-1.788 2.83-1.49 4.917 0 4.174.298 1.344-2.087 5.516-.297.447-.447 1.043-2.088 3.28 3.578-.3 4.77-.6 6.41-.896 2.234 1.49 6.26.148 9.836.297 9.392.45 18.333-.893 26.827-.445 7.9.296 15.65-1.194 22.656-.448.148.447.148 1.043.148 1.64-.595 3.575-4.77.894-6.407 1.638-7.453.598-14.31.598-22.654.598-10.136.297-20.27-.598-30.554.148-7.006.596-13.115-.447-19.525.746-10.878-1.79-21.907 3.576-32.638 1.043-2.684-.148-5.367.893-8.05.148-1.34-.746-6.11-.297-3.575-2.385 8.346-.895 16.99.148 25.486-.148 12.518-.596 4.918-1.193 8.195-1.49 4.322-.447 6.855-.3 11.328-.3 4.023 0 6.26.448 10.582 0 .895-2.085 1.49-3.278 2.385-5.067 1.938-3.725.596 1.492 1.49-5.514.297-2.235.447-2.833.447-5.067 0-1.94.895-2.832 1.34-4.77.447-1.342.3-2.832.596-5.365-1.936 0-2.53.148-3.428.148-3.13-.895-7.45 2.236-10.283-.447-3.576-.3-5.514-.597-8.494.595-2.087-.148-4.32-.445-7.005-.744-.596-.298-1.49.448-2.086.448-2.386 1.342-3.876-2.533-6.112-.746-1.043 0-2.086 1.043-3.13-.447-4.917 1.342-8.792.895-12.966-1.79-1.342.6-1.938-.296-2.533-1.042-.15-.148-.3-.447-.15-.744.446-1.194 1.19.595 1.49.446 0 0 .894.744 1.788-.15.895-.744 1.64 1.193 2.533.746 5.665 1.342 11.776 1.342 17.59.596 5.66 1.342 14.01 0 19.374 1.342 1.342-.148 2.533-1.193 4.62 0 1.788-1.938 4.024-.447 5.364-1.342 6.857-.148 13.86-.744 20.72-.895 6.704 0 4.47-1.043 9.536-1.79 1.043.3 2.682-.444 3.428.15 1.938-.298 3.727-.298 5.664-.595 4.023-.596 9.54-.895 13.115-1.79.6.3 1.343-.147 2.386-1.34-.596-1.343 1.043-.597 1.043-.896 1.64-.597 3.874.894 6.408.298zM979.94 1001.63c-1.49 3.28-5.066 3.58-7.602 5.366-3.426 1.79-7.152 3.576-11.027 4.023-1.042.597-2.532.745-3.726.894-9.986 1.79-19.674 5.812-30.105 6.11-7.155 1.49-15.054.745-22.806.597-6.408 0-14.605-1.786-21.014-4.618-3.13-.746-6.56-1.94-8.793-3.875-3.28-.895-5.812-3.28-8.645-5.068-.596-1.044-1.342-2.087-1.342-3.13 0-.15-.148-.3-.148-.3 2.98.745 5.812 2.98 8.793 4.77 2.385 1.343 3.727 3.132 6.26 3.728 4.322.893 7.75 3.875 12.22 3.576 8.198 2.086 17.142 1.938 26.978 1.342-1.49-3.428 1.043-4.77-.148-6.855.148-.894.3-1.49.596-2.087.448-.447.745-.893 1.343-.447.297.3.447.447.744.746-.297.895.3 1.49.746 1.938-.447 1.938 0 3.875-.297 6.26 7.3.744 12.22-1.342 18.182-1.64 2.533-1.192 6.408-1.49 9.54-2.386 2.83-.893 6.26-.893 8.94-2.533 2.236.3 4.77-.446 6.56-2.68 3.874.147 6.854-2.685 11.325-3.58v-.743c.746-.3 2.236-1.938 4.025-1.342-.15.743-.3 1.34-.598 1.936zM984.114 942.164c-11.775 5.217-21.908 12.074-32.193 18.928-.894.45-1.19 1.64-3.128 1.64-4.77 4.77-10.73 5.218-15.053 9.54-3.876 1.938-8.198 4.174-12.67 7.602.597.445 1.64.895 2.087 1.19 3.13 1.49 6.26.3 9.092.448 8.94.3 17.138-1.193 25.036-1.342 7.602 0 14.607-1.79 21.314-1.043.148.3.148.746.148 1.342-.447 3.427-4.322 1.042-5.963 1.638-7.152.895-13.412 1.043-21.162 1.342-9.54.596-18.928.148-28.467 1.19-6.408.6-12.223 0-18.332 1.343-10.135-1.19-20.418 4.025-30.553 1.938-2.384 0-4.77 1.194-7.302.597-1.045-.744-5.812.15-3.43-2.086 7.752-1.19 15.8 0 23.697-1.042 11.924-.447 24.594-1.193 33.387-8.793 1.49-.447 2.682-1.492 3.725-2.236 3.727-2.237 7.75-3.876 10.88-7.155 3.13-1.043 5.962-2.832 8.495-4.62 4.473-4.47 10.434-6.11 15.352-9.538 0-.596.447-.447.746-.596 1.34-.597 2.385-1.788 4.023-2.98 0-.597 4.322-1.49 4.172-1.937-.148-.447-5.066-.3-5.514-.598-6.854 1.492-15.35 2.088-23.25 2.832-8.495.746-14.157 2.385-22.206 2.533-2.832-.596-6.855 2.236-9.688-.148-3.13 0-4.918-.148-7.45.746-2.237 0-4.472-.3-7.155-.3-.597-.147-1.192.448-1.788.448-2.533 1.64-3.875-2.236-5.812-.447-.895.298-1.79 1.042-2.682-.3-4.77 1.342-8.496.598-12.52-1.64-1.342.597-1.79-.147-2.385-.595v-.447c.445-1.043 1.34.447 1.34.3 0 0 .896.743 1.79-.15.597-.896 1.937 1.042 2.235.597 5.066 1.19 11.03.893 16.693.148 5.216.895 13.116-.596 18.034.447 1.043-.15 2.385-1.043 4.174-.447 1.64-1.49 3.873-.148 5.066-1.043 6.26-.447 12.967-1.492 19.375-1.492 6.11-.596 12.815-1.19 17.733-1.936 1.045.297 2.236-.598 3.28.148 2.534-.596 3.577-.596 5.515-.895 3.875-.744 8.793-1.342 12.22-2.086.597 0 1.343-.448 2.237-1.49-.746-1.343.893-.747 1.043-.747 1.342-.596 3.576.596 5.812-.148.004.446.152.894.004 1.34zM960.864 874.65c5.812 1.492 9.984 6.41 15.797 8.2.896 1.638 2.833 2.532 3.728 4.17-1.342.448-2.832-.894-4.023-1.49-1.043-1.042-2.088-1.638-3.578-1.788-3.277-2.385-7.748-3.426-11.178-6.11-2.534-.894-6.26-1.192-9.093-2.532-5.066-.3-10.133-.3-15.05.596-4.77.895-9.392 2.832-13.118 6.11-4.92 2.384-10.583 4.173-15.948 5.364-8.346 4.174-18.928 3.727-27.572.3-5.066 0-7.898-4.323-12.52-4.92-1.34-1.042-2.533-2.085-4.172-2.683-.895-.744-.447-1.936-1.193-2.98 0-.297-.596.15-.297.3 2.086.147 4.322 1.042 6.11 1.937 7.9 6.11 18.48 6.408 28.02 8.496 6.706-.3 12.22-3.43 18.63-4.92 4.023-2.533 9.09-3.428 13.115-5.96 2.98-.3 5.365-3.728 8.494-2.98 6.707-2.386 14.607-2.386 21.016 0 .893.445 1.788.742 2.83.89zM979.196 853.488c.447.15.744.3 1.043.598-1.343 3.428-5.366 1.49-8.497 2.383-2.682.448-5.217 0-7.898.15-7.303.147-14.605-.15-21.61 0-3.728 0-8.646.298-12.52-.15-2.534-.298-5.663 0-8.198.15-6.11.595-11.922 0-18.332.446-.297-.3-.596-.3-.893-.3-2.684 1.343-5.664.15-8.197.597-6.11.3-11.924.895-17.885.895-4.174-1.79-8.496.895-12.818-.148-.596-.15.895-1.79 1.342-1.79 6.56-4.47 14.158 1.79 21.46-.296 8.646-2.385 18.333-1.492 26.83-1.938 8.493-.447 16.542.297 25.187 0 2.386-.3 4.77-.3 7.304-.3.596 0 1.342.15 1.938.15 6.557-.15 13.115-.15 18.928-1.044 4.468 1.194 8.195.448 12.816.596zM995.44 810.865c-2.832 3.725-7.303 5.514-10.432 9.54-4.62 4.767-11.477 7.897-16.246 11.325-2.385 1.342-5.812 1.79-8.645 3.428-1.79 0-2.98.744-4.47 1.193 0-.15-.3 0-.448-.15-1.94 1.343-3.876 1.642-4.472 1.79 0 0-.596.895-1.79.447-5.81 1.19-10.282 3.13-16.095 2.98-6.707 1.19-14.756-.148-21.164-.746-1.64-.444-3.13-.595-4.622-.595-.895-.596-1.49-.148-2.98-1.34-1.19.893-2.234-.15-2.98-.3-4.77.3-5.514-2.683-10.135-2.98-3.576-1.788-8.05-2.98-12.22-5.067-4.77-2.98-10.284-5.662-14.606-9.092-4.324-3.428-8.496-7.004-11.477-11.475-.3-.446-1.64-1.937-.447-1.34 4.023 2.235 6.408 5.81 10.582 8.048 10.135 7.748 21.61 13.264 33.385 17.586 1.342.746 3.13.746 4.47 1.64 2.685.597 5.07 1.64 7.75 1.788 8.497 1.938 16.396.447 24.892.744 6.11-1.04 13.562-.744 19.076-3.576 1.94 0 2.086-1.64 4.025-1.342 2.234-1.34 6.258-1.043 8.793-2.83 1.49-.3 2.385-1.64 4.47-2.088.597-1.043 1.79-1.043 2.683-1.49 1.49.148 2.087-1.64 3.577-2.533.744.447 1.64-.15 2.385-.895 0-.895.596-.744 1.043-.744.3-.3.746-.895.895-1.342.3-.15.447-.15 1.043-.15 1.787-3.725 5.217-4.172 7.154-7.004 2.98-1.79 3.875-6.11 7.45-6.557.746 1.193-.148 2.087-.447 3.13zM983.368 756.467c.15.447.15 1.043 0 1.49-.895.447-1.49.596-2.682.895-.746.148-1.49.148-2.236.148-2.682.596-4.32.895-7.152 1.79-.598.298-.895.595-1.49.894-.746 0-1.045-.15-1.79-.15-3.13-.148-7.302 1.045-8.048.746-7.453 1.342-6.408 1.938-14.904 2.385-6.11.297-10.582.895-16.246 1.49 0 2.98-1.936 5.812-2.383 8.494-.15 1.49-.3 2.235-.598 3.726-.597 1.938-1.788 2.832-1.49 4.918 0 4.174.298 1.342-2.087 5.516-.297.447-.447 1.043-2.088 3.277 3.578-.297 4.77-.596 6.41-.893 2.234 1.49 6.26.148 9.836.297 9.392.448 18.333-.894 26.827-.446 7.9.3 15.65-1.19 22.656-.447.148.447.148 1.043.148 1.64-.595 3.577-4.77.896-6.407 1.64-7.453.596-14.31.596-22.654.596-10.136.3-20.27-.596-30.554.15-7.006.596-13.115-.447-19.525.744-10.878-1.787-21.907 3.578-32.638 1.045-2.684-.15-5.367.893-8.05.148-1.34-.746-6.11-.3-3.575-2.385 8.346-.895 16.99.148 25.486-.148 12.518-.596 4.918-1.193 8.195-1.492 4.322-.447 6.855-.297 11.328-.297 4.023 0 6.26.447 10.582 0 .895-2.088 1.49-3.28 2.385-5.068 1.938-3.727.596 1.492 1.49-5.514.297-2.236.447-2.832.447-5.066 0-1.94.895-2.834 1.34-4.77.447-1.342.3-2.832.596-5.367-1.936 0-2.53.15-3.428.15-3.13-.895-7.45 2.234-10.283-.447-3.576-.3-5.514-.596-8.494.596-2.087-.148-4.32-.447-7.005-.744-.596-.3-1.49.445-2.086.445-2.386 1.342-3.876-2.533-6.112-.744-1.043 0-2.086 1.042-3.13-.448-4.917 1.342-8.792.895-12.966-1.79-1.342.6-1.938-.296-2.533-1.042-.15-.148-.3-.447-.15-.744.446-1.193 1.19.596 1.49.445 0 0 .894.747 1.788-.147.895-.746 1.64 1.193 2.533.746 5.665 1.34 11.776 1.34 17.59.595 5.66 1.342 14.01 0 19.374 1.342 1.342-.15 2.533-1.193 4.62 0 1.788-1.938 4.024-.447 5.364-1.342 6.857-.148 13.86-.744 20.72-.895 6.704 0 4.47-1.043 9.536-1.79 1.043.3 2.682-.444 3.428.15 1.938-.298 3.727-.298 5.664-.595 4.023-.598 9.54-.896 13.115-1.79.6.298 1.343-.147 2.386-1.34-.596-1.343 1.043-.597 1.043-.896 1.64-.597 3.874.893 6.408.297zM877.7 692.23c2.234.3 3.725 2.536 6.26 2.536 4.77 2.383 9.24 3.576 15.053 3.875.895.448 2.385.597 3.428.896 3.28.297 6.26 1.787 9.392 1.787 1.936.596 4.62-.447 6.408 1.938 2.385-.595 4.172-1.19 5.662-1.937.596-1.19 2.236-2.682 2.086-4.322 1.045-1.638.15-2.98.896-5.065.893-2.832.893-4.473 2.383-7.45.746-.6 1.49-1.194 2.387-1.046.596 1.49 0 3.278 0 5.067-1.94 3.875-1.64 5.96-2.982 11.03 1.193.743.746 1.34 1.193 1.638 3.725.596 7.75.148 10.88-.596 1.937.296 3.575-.448 6.558-.448.596-1.79 1.938-.447 2.832-.895 5.365-.447 10.135-3.428 15.648-3.727 2.385-2.086 6.408-1.787 8.793-3.576 2.832.297 4.322-3.428 7.898-2.533 1.79-1.34 3.43-2.98 5.664-2.98.598.446 1.193.894 1.79 1.49-.298 2.235-2.833 2.386-4.472 3.577-2.535.3-4.918.895-6.707 2.533-3.28-.148-5.218 2.684-8.347 2.533-1.193.746-2.387.895-3.28 1.492-1.192-.15-2.235.297-3.13.744-6.855 0-12.22 4.47-19.078 4.024-.893.596-2.53.596-3.426.744-7.304 2.533-15.8 2.086-23.25 1.938-3.43-.895-7.603 0-10.583-1.49-9.24-1.64-18.184-5.365-26.977-7.75-4.174-1.64-8.05-4.174-11.924-6.26-4.322-2.385-9.39-4.023-12.52-8.348 0-.297 0-.744.3-.893 6.707 4.324 13.71 8.2 21.164 11.476zM964.887 650.502c-5.365 3.873-12.22 3.277-17.14 7.45-1.937.597-4.024 1.64-5.663 2.685-4.62-.15-9.39 2.832-15.648 5.662 4.023 1.64 7.004 1.192 9.09.597 8.793 0 16.545-1.492 25.785-.15 2.534 0 5.663-.744 7.9.3 4.32.147 9.39-1.044 13.114 1.042l.3.298c-3.132.895-7.155.596-10.286.447-2.682-.746-5.514.297-8.494.297-5.812.15-11.924-1.938-17.14.596-4.77.598-9.24-1.64-13.86 0-4.174 1.342-8.348-.744-12.22 1.193-7.155-1.192-16.396.15-24.147-1.192-8.793 0-17.734.598-26.38-.893-4.77-.148-6.706-1.045-11.177-1.938-.15 0 .744-1.043.744-1.342 4.77-2.832 6.41-3.727 11.477-5.664 7.005-2.83 14.458-2.233 21.464-4.173 9.836.15 19.523 1.492 26.678 10.88 13.115-7.9 27.125-8.792 39.793-15.647 5.664-1.79 10.88-4.62 16.543-6.41.895 0 2.385-.596 3.428-.297-4.62 2.68-9.39 4.77-14.16 6.26zm-83.908 9.836c-1.94.596-4.323-.148-6.112 1.043-2.385-.296-4.62 1.044-6.56 1.79l-3.575 2.533c1.342.15 6.56.596 8.05.895 1.937 1.938 5.362 1.043 7.75 1.64 11.026-1.49 23.397.298 36.66-.298-1.937-2.385-3.872-2.98-4.917-4.023-2.086-2.088-7.898-4.324-11.773-5.963-6.708.894-13.862-.596-19.524 2.384zM960.864 619.65c5.812 1.49 9.984 6.41 15.797 8.196.896 1.64 2.833 2.535 3.728 4.174-1.342.447-2.832-.895-4.023-1.49-1.043-1.043-2.088-1.64-3.578-1.79-3.277-2.384-7.748-3.427-11.178-6.108-2.534-.895-6.26-1.193-9.093-2.535-5.066-.297-10.133-.297-15.05.598-4.77.895-9.392 2.83-13.118 6.11-4.92 2.384-10.583 4.173-15.948 5.364-8.346 4.173-18.928 3.726-27.572.298-5.066 0-7.898-4.322-12.52-4.918-1.34-1.043-2.533-2.086-4.172-2.684-.895-.746-.447-1.938-1.193-2.98 0-.297-.596.148-.297.3 2.086.147 4.322 1.042 6.11 1.935 7.9 6.112 18.48 6.41 28.02 8.497 6.706-.297 12.22-3.428 18.63-4.918 4.023-2.534 9.09-3.43 13.115-5.962 2.98-.3 5.365-3.727 8.494-2.98 6.707-2.385 14.607-2.385 21.016 0 .893.444 1.788.742 2.83.89zM852.065 574.64c.297 2.536 1.34 4.323 1.787 7.005-.893 4.025-.148 7.602 1.342 12.52 2.088-1.04 3.576-.744 4.322-.445 2.832-.3 6.408.445 9.24.297 2.684-.596 5.963-.893 8.645-.893 4.175-2.088 9.392-2.684 13.563-3.578 2.385.596 5.217 0 7.453.297 10.135 0 20.566-2.533 30.105-3.873 1.788.148 4.472-.3 6.11.148.3-.148 1.043-.148 1.193-.3 7.453-.296 13.414-.446 20.865-.446 3.428 0 6.408.598 9.54.746h-.15c-3.874 2.832-9.24 1.79-13.413 2.684-6.11-1.492-12.52 1.64-19.078-.895-3.875 4.023-8.494.895-12.52 2.234-3.725-.446-8.195-.298-11.326 1.642-1.49-.15-2.83.445-4.917-.3-3.578 2.087-8.05 1.044-11.773 1.044-6.11-1.342-11.03 2.684-16.842 1.938-4.174 2.086-8.943 1.79-13.713 1.79-1.49-1.64-3.875-.15-6.855-3.43-1.043 6.558-.447 10.433-.746 14.458.746 3.13-.445 6.557 0 9.984-.148.15-.148.3-.297.447-1.193-.148-1.49-1.49-1.938-2.385.894-2.98.743-5.96 0-8.94-.597-.747 0-2.087.147-3.577-1.64-2.235-.3-5.515-1.49-7.6.746-2.386-.297-4.92-.148-7.304-1.343-2.385.446-5.516-.896-7.9 0-2.086-2.832-4.174-.447-5.812.148-.148.447-.297.746-.447.597.15 1.342.298 1.492.894zM979.94 547.813c-1.49 3.28-5.066 3.578-7.602 5.367-3.426 1.787-7.152 3.576-11.027 4.023-1.042.596-2.532.746-3.726.895-9.986 1.787-19.674 5.812-30.105 6.11-7.155 1.49-15.054.745-22.806.597-6.408 0-14.605-1.79-21.014-4.62-3.13-.745-6.56-1.94-8.793-3.876-3.28-.896-5.812-3.28-8.645-5.067-.596-1.045-1.342-2.088-1.342-3.13 0-.15-.148-.3-.148-.3 2.98.746 5.812 2.98 8.793 4.77 2.385 1.342 3.727 3.13 6.26 3.727 4.322.895 7.75 3.875 12.22 3.576 8.198 2.088 17.142 1.938 26.978 1.342-1.49-3.428 1.043-4.768-.148-6.855.148-.895.3-1.49.596-2.086.448-.447.745-.895 1.343-.447.297.3.447.447.744.744-.297.895.3 1.492.746 1.938-.447 1.94 0 3.875-.297 6.262 7.3.744 12.22-1.342 18.182-1.64 2.533-1.192 6.408-1.49 9.54-2.386 2.83-.895 6.26-.895 8.94-2.533 2.236.297 4.77-.447 6.56-2.684 3.874.15 6.854-2.68 11.325-3.575v-.746c.746-.298 2.236-1.94 4.025-1.343-.15.745-.3 1.34-.598 1.936zM937.91 452.132c11.478 1.342 22.507 2.087 33.388 3.875 3.13.596 5.514 2.534 8.346 3.428.596.447 2.234.447 2.98 1.192 2.98 2.384 2.533 5.96 2.682 9.54-2.086 4.32-4.62 9.537-9.537 11.922-6.708 1.787-13.267 5.662-21.165 5.662-4.174 2.385-9.69 1.79-14.158 2.682-8.05 1.49-16.545 1.044-24.146 2.385-5.81-.448-12.964 1.19-18.478.894-13.86-.745-27.127 1.49-40.094-1.192-.297.148-.596 1.043-.148.745.596-.597 2.234-.745 3.28-.745 4.17-3.875 9.985 0 15.5-1.193 4.32-.448 8.345.595 12.815.298 6.857-.448 13.713-1.044 20.867-.895 5.81.15 12.22-1.192 18.48-1.937 1.342.447 3.576-.15 4.918 0 14.158-1.64 29.062-3.13 40.69-10.136 3.575-1.638 6.257-4.47 8.343-8.792-2.383-1.49-.148-3.13-1.19-4.77-5.962-6.26-14.905-6.408-22.655-8.644-2.682-1.34-6.707-.15-9.986-.298-6.705-.15-13.264-2.087-19.375-1.192-8.94 1.34-17.29-1.34-25.783.297-4.172-1.19-8.793.15-12.818-.445-7.152.298-14.754-.298-20.863-.596-.746-.3.148-1.044.148-1.044.15-.15.298-.895 1.343-1.043 3.725-.894 7.75.746 11.475.447 1.49-.895 4.322-.447 6.11-.596 11.476 1.938 22.208-2.832 33.685 0 5.064.447 10.133-.448 15.348.148zM881.872 409.656c1.64 0 4.025-.15 5.812-.298 4.322-2.683 11.03 0 16.098.596 3.13-1.79 8.346-.746 11.625-1.043 4.768-1.19 11.03.3 16.543.3 9.688 0 20.865-.3 30.553-.746 1.49-.15 2.98-1.044 4.322-.448.148.15.3-.148.447-.148-3.428 2.236-7.602 2.384-11.03 3.875-4.917 4.322-10.58 6.558-15.796 9.836-6.26 2.832-12.67 4.917-18.332 9.24-1.79.895-3.428 1.938-5.217 2.832l-4.322 2.087 4.918.297c11.625.745 22.504-2.087 34.428-.447 4.77 0 9.24-1.938 13.862-1.043 1.19-.15 2.682 0 3.727 0-.15.298 0 .895-.15 1.043-1.192 0-2.235.298-3.278 1.043-1.193.597-2.684.597-4.025.895-4.023.447-8.05-.15-12.07.745-10.88.3-21.463-1.042-32.045.15-4.918-.895-9.836 1.64-14.605.297-3.13.746-7.154-.894-9.54.894-7.153-.746-14.157-1.938-21.61-1.938-1.64-.596-4.174 0-4.918-1.79-.15-.147.894-1.638.894-.893 8.05-2.087 14.904 2.683 24.145 1.64 4.77-.597 9.687 0 14.753-1.492 1.492-2.085 3.727-1.936 5.367-3.277 2.98-.447 5.96-1.192 7.898-3.28 7.602-3.725 15.35-5.066 21.463-10.58 1.788-.745 3.577-1.64 5.515-3.28 0-.446 4.322-2.384 4.322-2.83-.148-.298-4.62.745-4.62.148-5.813 0-11.18-1.042-15.798.597-8.35-2.087-16.993-2.236-25.935-.298-6.408-.746-12.967-1.64-19.227-.448-5.217-2.235-11.03 2.385-15.8-1.788-.444-1.342-2.83-.895-2.68-2.534 5.063-.895 9.386 1.936 14.304 2.086zM852.065 364.945c.297 2.533 1.34 4.32 1.787 7.004-.893 4.023-.148 7.6 1.342 12.52 2.088-1.044 3.576-.746 4.322-.448 2.832-.298 6.408.447 9.24.3 2.684-.598 5.963-.896 8.645-.896 4.175-2.087 9.392-2.683 13.563-3.577 2.385.595 5.217 0 7.453.296 10.135 0 20.566-2.533 30.105-3.875 1.788.15 4.472-.297 6.11.15.3-.15 1.043-.15 1.193-.3 7.453-.297 13.414-.446 20.865-.446 3.428 0 6.408.597 9.54.745h-.15c-3.874 2.83-9.24 1.788-13.413 2.682-6.11-1.49-12.52 1.64-19.078-.894-3.875 4.023-8.494.894-12.52 2.235-3.725-.447-8.195-.298-11.326 1.64-1.49-.15-2.83.447-4.917-.298-3.578 2.086-8.05 1.043-11.773 1.043-6.11-1.342-11.03 2.683-16.842 1.938-4.174 2.086-8.943 1.788-13.713 1.788-1.49-1.638-3.875-.148-6.855-3.427-1.043 6.558-.447 10.433-.746 14.457.746 3.13-.445 6.558 0 9.986-.148.15-.148.298-.297.447-1.193-.15-1.49-1.49-1.938-2.385.894-2.98.743-5.96 0-8.94-.597-.746 0-2.087.147-3.578-1.64-2.235-.3-5.515-1.49-7.6.746-2.386-.297-4.92-.148-7.304-1.343-2.385.446-5.515-.896-7.9 0-2.086-2.832-4.172-.447-5.81.148-.15.447-.3.746-.45.597.15 1.342.298 1.492.895zM979.94 338.117c-1.49 3.28-5.066 3.578-7.602 5.366-3.426 1.79-7.152 3.577-11.027 4.024-1.042.597-2.532.746-3.726.894-9.986 1.79-19.674 5.814-30.105 6.112-7.155 1.49-15.054.745-22.806.596-6.408 0-14.605-1.788-21.014-4.62-3.13-.745-6.56-1.938-8.793-3.875-3.28-.895-5.812-3.28-8.645-5.067-.596-1.043-1.342-2.086-1.342-3.13 0-.15-.148-.3-.148-.3 2.98.747 5.812 2.982 8.793 4.77 2.385 1.342 3.727 3.13 6.26 3.727 4.322.894 7.75 3.875 12.22 3.577 8.198 2.086 17.142 1.937 26.978 1.34-1.49-3.426 1.043-4.768-.148-6.854.148-.894.3-1.49.596-2.087.448-.448.745-.895 1.343-.448l.744.745c-.297.895.3 1.49.746 1.937-.447 1.938 0 3.875-.297 6.26 7.3.745 12.22-1.34 18.182-1.64 2.533-1.19 6.408-1.49 9.54-2.384 2.83-.895 6.26-.895 8.94-2.533 2.236.297 4.77-.448 6.56-2.683 3.874.15 6.854-2.683 11.325-3.577v-.745c.746-.298 2.236-1.938 4.025-1.34-.15.743-.3 1.34-.598 1.935zM964.887 304.883c-5.365 3.874-12.22 3.278-17.14 7.45-1.937.598-4.024 1.64-5.663 2.685-4.62-.15-9.39 2.83-15.648 5.663 4.023 1.64 7.004 1.193 9.09.597 8.793 0 16.545-1.49 25.785-.15 2.534 0 5.663-.745 7.9.3 4.32.148 9.39-1.044 13.114 1.042l.3.296c-3.132.895-7.155.596-10.286.448-2.682-.745-5.514.298-8.494.298-5.812.15-11.924-1.937-17.14.596-4.77.597-9.24-1.64-13.86 0-4.174 1.342-8.348-.745-12.22 1.193-7.155-1.192-16.396.15-24.147-1.192-8.793 0-17.734.597-26.38-.894-4.77-.15-6.706-1.043-11.177-1.938-.15 0 .744-1.043.744-1.34 4.77-2.833 6.41-3.728 11.477-5.665 7.005-2.83 14.458-2.234 21.464-4.173 9.836.15 19.523 1.49 26.678 10.88 13.115-7.9 27.125-8.793 39.793-15.65 5.664-1.788 10.88-4.62 16.543-6.408.895 0 2.385-.598 3.428-.3-4.62 2.686-9.39 4.773-14.16 6.263zm-83.908 9.836c-1.94.595-4.323-.15-6.112 1.043-2.385-.298-4.62 1.042-6.56 1.788l-3.575 2.535c1.342.15 6.56.596 8.05.894 1.937 1.937 5.362 1.042 7.75 1.638 11.026-1.49 23.397.298 36.66-.297-1.937-2.384-3.872-2.98-4.917-4.023-2.086-2.087-7.898-4.322-11.773-5.962-6.708.894-13.862-.597-19.524 2.384zM960.864 274.03c5.812 1.492 9.984 6.41 15.797 8.198.896 1.64 2.833 2.534 3.728 4.174-1.342.447-2.832-.895-4.023-1.49-1.043-1.044-2.088-1.64-3.578-1.79-3.277-2.385-7.748-3.427-11.178-6.11-2.534-.895-6.26-1.193-9.093-2.534-5.066-.298-10.133-.298-15.05.596-4.77.895-9.392 2.832-13.118 6.11-4.92 2.385-10.583 4.174-15.948 5.366-8.346 4.173-18.928 3.726-27.572.298-5.066 0-7.898-4.322-12.52-4.918-1.34-1.044-2.533-2.087-4.172-2.684-.895-.745-.447-1.937-1.193-2.98 0-.298-.596.148-.297.297 2.086.15 4.322 1.044 6.11 1.938 7.9 6.112 18.48 6.41 28.02 8.497 6.706-.298 12.22-3.428 18.63-4.918 4.023-2.535 9.09-3.43 13.115-5.962 2.98-.298 5.365-3.726 8.494-2.98 6.707-2.386 14.607-2.386 21.016 0 .893.446 1.788.745 2.83.893zM990.97 239.605c1.937 1.64 0 1.49-.3 2.087-8.346 7.303-19.97 5.812-28.912 11.625-6.41 2.385-13.266 3.28-19.525 4.77-4.918.148-9.39 2.235-14.01 1.34-1.49 1.193-3.727 0-5.365.597-10.73 0-16.842-2.086-25.188-3.875-2.832.298-5.812-.597-8.047-2.534-3.877.447-7.006-.746-9.838-2.236-6.855-2.533-13.71-5.215-18.63-9.985 0 .15-.894-.298-.446-.596 1.19-.746 2.532.595 3.724 1.19 7.006.597 11.477 5.666 17.736 7.155 2.832 1.49 5.963 1.49 8.645 2.534 11.477 2.98 19.076 5.514 31.15 5.662.148 0 .445-1.043.445.15 10.285-.597 19.078-2.982 28.467-4.025 9.54-2.98 19.078-6.41 28.615-9.39 2.533-1.64 5.516-2.98 8.795-4.173.893 0 2.533-1.64 2.98-1.043.15 0 1.192 0-.298.745zM983.368 186.695c.15.447.15 1.044 0 1.49-.895.447-1.49.597-2.682.896-.746.15-1.49.15-2.236.15-2.682.596-4.32.893-7.152 1.787-.598.3-.895.597-1.49.895-.746 0-1.045-.15-1.79-.15-3.13-.147-7.302 1.045-8.048.746-7.453 1.342-6.408 1.938-14.904 2.385-6.11.298-10.582.895-16.246 1.49 0 2.98-1.936 5.813-2.383 8.496-.15 1.49-.3 2.234-.598 3.725-.597 1.938-1.788 2.83-1.49 4.918 0 4.174.298 1.342-2.087 5.515-.297.447-.447 1.043-2.088 3.278 3.578-.297 4.77-.596 6.41-.894 2.234 1.49 6.26.148 9.836.298 9.392.447 18.333-.895 26.827-.447 7.9.298 15.65-1.192 22.656-.447.148.447.148 1.044.148 1.64-.595 3.577-4.77.895-6.407 1.64-7.453.597-14.31.597-22.654.597-10.136.298-20.27-.597-30.554.148-7.006.597-13.115-.445-19.525.746-10.878-1.79-21.907 3.577-32.638 1.044-2.684-.15-5.367.894-8.05.148-1.34-.745-6.11-.298-3.575-2.384 8.346-.895 16.99.148 25.486-.15 12.518-.595 4.918-1.19 8.195-1.49 4.322-.447 6.855-.298 11.328-.298 4.023 0 6.26.447 10.582 0 .895-2.086 1.49-3.278 2.385-5.067 1.938-3.727.596 1.49 1.49-5.515.297-2.235.447-2.832.447-5.067 0-1.938.895-2.832 1.34-4.77.447-1.342.3-2.832.596-5.366-1.936 0-2.53.15-3.428.15-3.13-.896-7.45 2.234-10.283-.448-3.576-.298-5.514-.596-8.494.597-2.087-.148-4.32-.446-7.005-.744-.596-.3-1.49.446-2.086.446-2.386 1.343-3.876-2.533-6.112-.745-1.043 0-2.086 1.044-3.13-.446-4.917 1.342-8.792.895-12.966-1.788-1.342.597-1.938-.298-2.533-1.043-.15-.15-.3-.448-.15-.746.446-1.192 1.19.596 1.49.446 0 0 .894.745 1.788-.148.895-.745 1.64 1.192 2.533.745 5.665 1.342 11.776 1.342 17.59.597 5.66 1.34 14.01 0 19.374 1.34 1.342-.147 2.533-1.19 4.62 0 1.788-1.937 4.024-.446 5.364-1.34 6.857-.15 13.86-.745 20.72-.895 6.704 0 4.47-1.044 9.536-1.79 1.043.3 2.682-.446 3.428.15 1.938-.3 3.727-.3 5.664-.597 4.023-.596 9.54-.895 13.115-1.79.6.3 1.343-.147 2.386-1.34-.596-1.342 1.043-.597 1.043-.895 1.64-.597 3.874.894 6.408.297zM979.196 169.11c.447.148.744.298 1.043.596-1.343 3.428-5.366 1.49-8.497 2.385-2.682.448-5.217 0-7.898.15-7.303.148-14.605-.15-21.61 0-3.728 0-8.646.298-12.52-.15-2.534-.297-5.663 0-8.198.15-6.11.596-11.922 0-18.332.447-.297-.3-.596-.3-.893-.3-2.684 1.343-5.664.15-8.197.598-6.11.298-11.924.895-17.885.895-4.174-1.79-8.496.894-12.818-.15-.596-.148.895-1.787 1.342-1.787 6.56-4.472 14.158 1.788 21.46-.3 8.646-2.384 18.333-1.49 26.83-1.937 8.493-.447 16.542.298 25.187 0 2.386-.298 4.77-.298 7.304-.298.596 0 1.342.15 1.938.15 6.557-.15 13.115-.15 18.928-1.045 4.468 1.193 8.195.448 12.816.596zM877.7 143.774c2.234.3 3.725 2.535 6.26 2.535 4.77 2.383 9.24 3.575 15.053 3.873.895.447 2.385.596 3.428.894 3.28.3 6.26 1.79 9.392 1.79 1.936.595 4.62-.448 6.408 1.937 2.385-.596 4.172-1.192 5.662-1.938.596-1.192 2.236-2.683 2.086-4.322 1.045-1.64.15-2.98.896-5.067.893-2.832.893-4.472 2.383-7.45.746-.598 1.49-1.193 2.387-1.045.596 1.49 0 3.278 0 5.067-1.94 3.874-1.64 5.96-2.982 11.027 1.193.746.746 1.342 1.193 1.64 3.725.597 7.75.15 10.88-.596 1.937.3 3.575-.446 6.558-.446.596-1.788 1.938-.446 2.832-.895 5.365-.448 10.135-3.43 15.648-3.726 2.385-2.088 6.408-1.79 8.793-3.578 2.832.298 4.322-3.428 7.898-2.533 1.79-1.342 3.43-2.98 5.664-2.98.598.446 1.193.894 1.79 1.49-.298 2.235-2.833 2.385-4.472 3.576-2.535.298-4.918.894-6.707 2.533-3.28-.15-5.218 2.683-8.347 2.533-1.193.745-2.387.895-3.28 1.49-1.192-.148-2.235.3-3.13.745-6.855 0-12.22 4.473-19.078 4.025-.893.597-2.53.597-3.426.745-7.304 2.534-15.8 2.087-23.25 1.938-3.43-.894-7.603 0-10.583-1.49-9.24-1.64-18.184-5.365-26.977-7.75-4.174-1.64-8.05-4.173-11.924-6.26-4.322-2.385-9.39-4.023-12.52-8.347 0-.296 0-.744.3-.893 6.707 4.324 13.71 8.198 21.164 11.477zM930.16 95.636c5.815.448 11.776 1.79 18.036 2.534 7.602.895 15.5 1.788 22.652 5.365 3.727 3.726 8.348 5.664 11.328 10.582.447 2.683 2.385 2.235 1.49 5.515.148.447-.3 0-.3-.597-3.427.15-1.788-.745-4.32-4.173-3.876 1.192-6.708-.597-9.538.596-11.924-.745-22.207 0-33.834 1.193-2.83 1.342-6.408 1.342-9.688.895-2.086-.745-4.32.745-6.854.298-7.752-.446-16.395-.446-23.996.597-5.664-.298-11.178 0-16.992.596-2.234-.446-4.768-1.192-7.898-.298-.895 2.087-1.938 1.64-1.19 3.428-.3.3-.597.745-1.046 1.044-.445-.15-.893 0-1.34-.448.596-4.32 3.428-6.706 6.11-9.985 5.216-4.77 11.923-7.005 17.587-11.625 3.727-2.384 7.602-2.683 11.625-4.32 5.066-.746 10.73-.45 15.65-1.492 4.173 1.04 8.196.744 12.52.296zm-23.546 3.725c-5.812-.296-9.838 2.387-15.352 4.026-.3.298-1.64 1.64-2.385 2.086-4.174 2.98-9.092 4.322-13.562 10.284 5.365-.448 8.047 1.49 10.582.446 3.727.448 7.004-1.49 10.73-1.64 5.365 1.64 11.178.3 16.693 1.044 5.066.596 10.58-.597 15.797-.895 9.24-3.575 19.97-1.042 29.51-2.086 4.62 0 9.986-.744 17.29.15-2.833-5.962-7.9-7.006-11.327-8.943-8.793-2.384-17.588-3.874-26.68-4.768-1.787-.298-4.023.446-5.662-.597-8.197.45-18.035-2.38-25.634.896zM979.94 67.617c-1.49 3.28-5.066 3.577-7.602 5.365-3.426 1.79-7.152 3.577-11.027 4.025-1.042.596-2.532.744-3.726.893-9.986 1.79-19.674 5.813-30.105 6.11-7.155 1.49-15.054.746-22.806.597-6.408 0-14.605-1.788-21.014-4.62-3.13-.744-6.56-1.937-8.793-3.875-3.28-.895-5.812-3.28-8.645-5.066-.596-1.044-1.342-2.087-1.342-3.13 0-.15-.148-.3-.148-.3 2.98.746 5.812 2.98 8.793 4.77 2.385 1.342 3.727 3.13 6.26 3.727 4.322.896 7.75 3.876 12.22 3.577 8.198 2.087 17.142 1.938 26.978 1.342-1.49-3.428 1.043-4.77-.148-6.856.148-.894.3-1.49.596-2.086.448-.447.745-.895 1.343-.447l.744.745c-.297.895.3 1.49.746 1.937-.447 1.938 0 3.876-.297 6.26 7.3.746 12.22-1.34 18.182-1.64 2.533-1.19 6.408-1.49 9.54-2.384 2.83-.894 6.26-.894 8.94-2.532 2.236.297 4.77-.448 6.56-2.684 3.874.15 6.854-2.683 11.325-3.576v-.745c.746-.298 2.236-1.938 4.025-1.342-.15.745-.3 1.34-.598 1.937z"/></g><path d="M2048 0M2048 1536M0 1536M0 0" fill="none" stroke="#17192D" stroke-width="3"/></g></svg>