<svg xmlns="http://www.w3.org/2000/svg" width="2048" height="1536" viewBox="0 0 2048 1536"><g><g fill="#FF0050"><path d="M1135.752 1442.877c5.812.447 11.775 1.79 18.033 2.533 7.602.895 15.5 1.79 22.654 5.365 3.726 3.727 8.347 5.664 11.327 10.582.445 2.684 2.385 2.236 1.49 5.516.148.447-.3 0-.3-.598-3.427.15-1.788-.744-4.32-4.172-3.876 1.19-6.708-.598-9.538.596-11.925-.747-22.208 0-33.835 1.19-2.83 1.342-6.408 1.342-9.688.895-2.086-.744-4.322.746-6.855.3-7.75-.448-16.395-.448-23.994.595-5.664-.297-11.18 0-16.992.596-2.234-.447-4.768-1.19-7.898-.297-.895 2.085-1.938 1.638-1.19 3.427-.3.297-.6.744-1.046 1.043-.445-.148-.893 0-1.34-.447.596-4.322 3.428-6.707 6.11-9.984 5.216-4.77 11.923-7.007 17.587-11.626 3.726-2.387 7.6-2.684 11.624-4.324 5.066-.744 10.73-.445 15.65-1.49 4.172 1.043 8.196.744 12.518.297zm-23.55 3.727c-5.81-.3-9.835 2.385-15.35 4.023-.298.3-1.64 1.64-2.384 2.086-4.174 2.982-9.092 4.322-13.562 10.285 5.365-.447 8.047 1.49 10.582.445 3.725.447 7.004-1.49 10.73-1.64 5.365 1.64 11.178.3 16.693 1.044 5.067.596 10.58-.596 15.798-.895 9.24-3.576 19.97-1.043 29.51-2.086 4.62 0 9.986-.744 17.29.15-2.833-5.963-7.9-7.006-11.327-8.943-8.794-2.385-17.587-3.875-26.68-4.77-1.788-.3-4.022.447-5.66-.596-8.197.45-18.035-2.383-25.637.897zM1135.305 1401.594c4.62.3 9.838.148 14.904.895 1.34-1.044 2.98.595 4.32.743 3.43-.596 4.472 1.64 7.75 1.193 1.044.447 2.235.297 3.58.297 1.042.598 3.128-.297 4.47 1.342 5.215.596 9.09 2.088 13.562 1.79 1.342 1.937-2.088 3.278-2.088 5.216-1.34 1.79-2.83 2.087-4.023 3.278-9.538 6.41-19.82 10.285-31.147 12.67-2.832-.148-4.62 1.043-6.707 1.043-.447-.595-1.342.597-2.535.448-7.897.148-15.796 1.043-23.247.895-.15 0-.447-.3-.598-.3-3.428.896-7.602-.446-10.73-1.19-1.64-1.193-4.174-.598-5.812-1.64-2.982-.745-5.96-1.79-8.94-2.683-1.194 0-2.833.445-4.175-1.342-1.938.3-2.98-.447-3.875-.447-3.727-1.042-6.26-3.577-8.793-5.96.445-.746 1.043-1.64 1.64-1.79 5.96-4.32 14.01-7.452 21.16-8.196 3.878-1.49 7.753-1.938 11.776-3.28 2.385 0 4.322-1.638 6.707-2.085 4.62 0 8.94-1.79 13.86-.747 1.044-1.938 2.386-.447 4.77-.297 1.49-.15 2.83-.598 4.172.148zm-21.014 3.427c-3.874 1.343-8.495 1.64-12.07 2.386-6.708 3.428-14.905 3.428-21.91 6.557-1.64 1.342-3.876 1.64-4.77 4.322 1.788 1.938 4.024 1.938 5.366 3.43 3.576 1.49 7.45 1.938 11.027 2.98 2.684.744 5.367 1.043 8.197 2.385 4.322.893 8.496 1.938 12.967 1.79 16.545-.45 34.727-2.685 48.588-7.306 2.98-1.043 4.023-1.64 7.004-2.533l12.966-9.09c-4.322 0-3.428-.597-3.28-.745-4.47-1.043-9.09-1.342-14.01-2.236-1.786-.597-3.427.298-5.81-1.044-2.534.895-5.067-.895-7.304-.596-6.11-2.088-11.773-.598-18.63-.895l-.597-.596c-6.26.445-11.92.445-17.734 1.19zM1201.03 1358.97c-2.83 3.726-7.302 5.513-10.43 9.536-4.622 4.77-11.478 7.9-16.247 11.328-2.385 1.342-5.812 1.79-8.645 3.428-1.79 0-2.98.746-4.47 1.193 0-.15-.3 0-.448-.15-1.938 1.342-3.875 1.64-4.47 1.79 0 0-.6.894-1.79.446-5.812 1.192-10.283 3.13-16.096 2.98-6.707 1.192-14.756-.147-21.164-.745-1.64-.447-3.13-.596-4.62-.596-.896-.597-1.49-.15-2.98-1.343-1.192.895-2.237-.148-2.98-.297-4.77.297-5.515-2.684-10.136-2.98-3.576-1.79-8.05-2.982-12.22-5.068-4.77-2.98-10.286-5.664-14.606-9.092-4.324-3.428-8.496-7.004-11.477-11.475-.298-.447-1.64-1.938-.446-1.342 4.023 2.236 6.408 5.812 10.58 8.047 10.137 7.752 21.613 13.266 33.387 17.588 1.34.744 3.13.744 4.472 1.64 2.684.597 5.068 1.64 7.75 1.788 8.496 1.938 16.395.447 24.89.744 6.11-1.043 13.563-.744 19.077-3.576 1.937 0 2.085-1.64 4.022-1.342 2.236-1.342 6.26-1.043 8.795-2.832 1.49-.297 2.385-1.64 4.47-2.086.597-1.043 1.788-1.043 2.683-1.49 1.49.148 2.088-1.64 3.578-2.533.744.448 1.64-.147 2.385-.894 0-.895.596-.746 1.043-.746.3-.297.746-.893.895-1.34.298-.15.448-.15 1.044-.15 1.787-3.725 5.217-4.172 7.152-7.004 2.982-1.79 3.877-6.11 7.453-6.56.745 1.195-.15 2.09-.45 3.133zM1177.93 1310.53c-1.787 1.34-4.172 2.235-5.96 3.728-7.304 2.086-15.202 4.023-23.103 4.023-5.664.896-11.477 2.087-16.99 3.43-2.98-.3-6.408-.896-9.836-.15-.446 1.192-.446 1.64-2.235 2.087 1.64 4.322 5.066 7.303 6.707 10.434.895.446 1.79 1.64 1.49 2.683-.596 1.79.3 1.79 1.342 2.832 1.34 0 2.533.148 3.727.744 3.13-1.044 5.515-1.044 8.048-.15 2.832 1.64 5.217.448 8.346 0 5.963-.894 11.627-2.235 17.736-2.532 4.77-.15 9.54-.15 14.605-.15.447.15.895.3.746.746 0 .447-.595.895-1.042 1.043-7.453.447-14.605.746-21.164 2.832-4.918-.15-8.94 1.34-13.562.894-11.03-1.043-22.654 0-33.086 1.342-4.62-1.043-8.197.895-12.67.596-11.625-.895-23.697-.895-33.98-4.322-1.49-.447-.746-1.64-1.49-2.684.148-.447.895 0 1.19-.148 3.58.746 6.708 2.385 10.286 2.236l.297.297c6.11-.296 11.772 1.642 17.14 1.343 4.023 2.236 8.494-.596 12.816.148 5.516.896 10.135-1.042 15.5-1.786.746-.596 1.79-1.19 2.832-2.385-1.787-4.77-7.303-7.75-7.898-11.626.744 0-1.043-1.193-.3-3.578-4.618-1.34-8.345.447-11.772-1.19-2.832-.747-5.664.743-8.645-.896-4.023 1.938-7.602.148-11.477.447-2.236-1.938-3.13 1.938-5.812.148-2.533.746-5.96 1.193-8.05 0 .15-.596.15-1.043 0-1.64 2.237-1.34 5.368.448 7.603-1.34 3.28-.298 5.664 1.49 8.943.894 9.537-1.79 20.12.298 29.81-.3 6.704-.297 14.007.746 20.417-1.49 10.135-1.64 20.717-2.98 30.254-4.918 2.386-1.49 5.218-3.13 8.198-2.98.446.445.893.742 1.042 1.34zM1166.455 1242.42c5.812 1.49 9.984 6.408 15.797 8.197.895 1.64 2.832 2.533 3.727 4.172-1.343.446-2.833-.894-4.024-1.49-1.043-1.044-2.088-1.64-3.578-1.788-3.277-2.385-7.75-3.428-11.178-6.11-2.533-.896-6.26-1.192-9.092-2.534-5.066-.3-10.135-.3-15.053.596-4.77.895-9.39 2.832-13.115 6.11-4.918 2.386-10.582 4.173-15.947 5.366-8.346 4.172-18.928 3.727-27.572.297-5.065 0-7.897-4.32-12.52-4.918-1.34-1.044-2.532-2.087-4.17-2.683-.896-.746-.448-1.938-1.194-2.98 0-.3-.596.148-.297.297 2.085.15 4.32 1.043 6.108 1.938 7.9 6.11 18.48 6.41 28.02 8.496 6.707-.3 12.22-3.428 18.63-4.918 4.024-2.535 9.09-3.43 13.116-5.963 2.98-.297 5.365-3.727 8.494-2.98 6.707-2.385 14.605-2.385 21.016 0 .892.446 1.788.744 2.83.893zM1196.56 1207.992c1.94 1.64 0 1.49-.298 2.088-8.346 7.303-19.97 5.812-28.912 11.625-6.41 2.385-13.266 3.28-19.525 4.77-4.918.148-9.39 2.236-14.01 1.34-1.49 1.193-3.727 0-5.365.596-10.73 0-16.842-2.085-25.188-3.872-2.832.297-5.812-.598-8.05-2.535-3.874.447-7.003-.744-9.835-2.234-6.855-2.536-13.713-5.218-18.63-9.987 0 .15-.894-.3-.448-.596 1.192-.746 2.534.596 3.726 1.19 7.006.6 11.477 5.665 17.736 7.155 2.832 1.49 5.96 1.49 8.645 2.533 11.475 2.98 19.076 5.516 31.148 5.664.15 0 .447-1.044.447.147 10.283-.596 19.078-2.98 28.467-4.023 9.538-2.98 19.075-6.408 28.614-9.39 2.533-1.64 5.516-2.98 8.793-4.173.895 0 2.535-1.638 2.98-1.042.15 0 1.194 0-.296.744zM1188.96 1155.084c.147.447.147 1.043 0 1.49-.896.447-1.49.596-2.683.895-.746.147-1.49.147-2.236.147-2.683.596-4.32.895-7.153 1.79-.596.296-.895.595-1.49.894-.744 0-1.043-.15-1.79-.15-3.128-.147-7.302 1.046-8.046.747-7.452 1.34-6.407 1.938-14.903 2.385-6.11.297-10.582.895-16.246 1.49 0 2.98-1.937 5.812-2.384 8.494-.148 1.492-.297 2.236-.596 3.727-.596 1.938-1.787 2.832-1.49 4.918 0 4.175.3 1.343-2.086 5.517-.3.447-.447 1.043-2.088 3.277 3.578-.297 4.77-.596 6.408-.893 2.236 1.49 6.262.15 9.838.298 9.39.447 18.332-.895 26.826-.447 7.9.3 15.65-1.19 22.656-.446.148.447.148 1.045.148 1.64-.596 3.577-4.77.896-6.408 1.64-7.453.596-14.31.596-22.654.596-10.135.3-20.27-.596-30.555.15-7.004.596-13.113-.447-19.523.744-10.88-1.787-21.908 3.578-32.64 1.045-2.683-.15-5.366.892-8.048.147-1.342-.746-6.11-.3-3.576-2.385 8.346-.895 16.99.148 25.484-.148 12.52-.598 4.918-1.193 8.197-1.49 4.32-.45 6.854-.3 11.325-.3 4.025 0 6.262.448 10.584 0 .892-2.087 1.49-3.278 2.382-5.067 1.94-3.725.598 1.49 1.492-5.514.297-2.236.447-2.832.447-5.066 0-1.94.894-2.832 1.34-4.77.448-1.342.3-2.832.597-5.367-1.936 0-2.533.15-3.428.15-3.13-.895-7.452 2.234-10.284-.447-3.576-.3-5.516-.596-8.496.596-2.086-.15-4.322-.448-7.004-.745-.596-.3-1.49.445-2.088.445-2.383 1.342-3.873-2.533-6.11-.744-1.042 0-2.085 1.043-3.13-.447-4.918 1.34-8.79.894-12.965-1.79-1.342.598-1.938-.297-2.535-1.043-.148-.148-.297-.447-.148-.744.447-1.193 1.19.596 1.49.445 0 0 .895.746 1.79-.148.894-.744 1.638 1.193 2.532.746 5.664 1.342 11.775 1.342 17.588.596 5.662 1.342 14.01 0 19.375 1.342 1.342-.15 2.533-1.193 4.62 0 1.788-1.938 4.024-.447 5.364-1.342 6.856-.148 13.86-.744 20.716-.895 6.707 0 4.473-1.043 9.54-1.79 1.042.3 2.68-.444 3.427.15 1.938-.298 3.727-.298 5.664-.595 4.023-.598 9.537-.895 13.115-1.79.596.298 1.342-.147 2.385-1.34-.596-1.343 1.043-.597 1.043-.896 1.64-.597 3.876.894 6.41.298zM1140.37 1117.08c9.392-1.19 17.737 3.428 26.382 5.365 3.578 1.938 7.75 2.236 11.924 4.918 1.342-.445 1.49.596 1.938 1.193 0 .148-.148-.746-.148-.746-5.068 2.982-11.03 6.26-17.29 8.05-3.278 1.49-7.302 1.937-10.58 2.98-4.024 1.192-7.9 2.532-11.774 3.577-8.05.744-13.266 2.086-21.016 2.83-5.812-1.043-12.668-.447-17.885-2.682-3.278 1.19-7.302-.3-10.43-1.043-3.878.744-7.007-2.832-10.73-3.28-4.026-1.788-9.095-1.49-11.925-4.917.148-.15-1.64-1.193-.596-2.385.296-.3.446-.598.743-.895 2.533-1.79 4.322-4.322 7.45-5.664 6.856-3.874 14.608-7.6 23.253-7.302 4.62.895 9.09-2.98 13.71-.596 8.495.002 18.63-1.04 26.975.598zm-67.66 12.072c-.6 1.64-1.94 4.174 1.042 4.174 10.432 3.875 20.865 5.96 31.596 7.602 10.434 1.49 20.27 2.385 30.404-.45 12.967-3.724 26.678-6.108 41.283-12.964-8.494-1.64-13.264-4.174-18.48-5.068-11.475-.744-21.908-4.172-33.533-3.875-18.78.3-37.708 2.385-52.313 10.582zM1087.463 1074.605c1.64 0 4.025-.15 5.812-.3 4.322-2.683 11.03 0 16.098.597 3.13-1.79 8.346-.744 11.625-1.043 4.768-1.192 11.027.298 16.543.298 9.69 0 20.866-.3 30.554-.746 1.49-.148 2.98-1.043 4.322-.447.148.148.297-.148.447-.148-3.428 2.236-7.602 2.385-11.03 3.875-4.917 4.322-10.58 6.557-15.798 9.836-6.26 2.832-12.668 4.918-18.33 9.24-1.79.895-3.43 1.938-5.217 2.832l-4.322 2.088 4.918.297c11.625.746 22.504-2.086 34.428-.447 4.77 0 9.24-1.938 13.86-1.043 1.192-.148 2.683 0 3.728 0-.15.3 0 .895-.15 1.043-1.19 0-2.236.3-3.277 1.043-1.193.6-2.684.6-4.025.896-4.023.447-8.05-.148-12.072.746-10.88.297-21.46-1.043-32.043.148-4.918-.895-9.836 1.64-14.605.3-3.13.745-7.154-.896-9.54.894-7.153-.746-14.157-1.938-21.61-1.938-1.64-.598-4.174 0-4.918-1.79-.148-.147.895-1.638.895-.894 8.05-2.086 14.904 2.684 24.145 1.64 4.77-.597 9.688 0 14.754-1.49 1.492-2.087 3.727-1.94 5.367-3.278 2.98-.45 5.962-1.193 7.9-3.28 7.6-3.726 15.35-5.067 21.46-10.58 1.79-.747 3.576-1.64 5.516-3.28 0-.447 4.32-2.385 4.32-2.832-.148-.3-4.62.746-4.62.15-5.81 0-11.177-1.045-15.798.596-8.346-2.088-16.99-2.236-25.934-.3-6.408-.745-12.965-1.638-19.225-.446-5.218-2.234-11.03 2.385-15.8-1.787-.447-1.342-2.832-.895-2.682-2.535 5.065-.897 9.387 1.935 14.305 2.085zM1184.787 1013.35c.447.148.744.3 1.043.598-1.342 3.426-5.365 1.49-8.496 2.383-2.682.448-5.217 0-7.898.15-7.303.15-14.605-.15-21.61 0-3.728 0-8.646.298-12.52-.15-2.534-.296-5.663 0-8.198.15-6.11.597-11.922 0-18.332.448-.297-.3-.596-.3-.895-.3-2.68 1.343-5.66.15-8.194.597-6.11.3-11.924.895-17.885.895-4.173-1.79-8.495.895-12.817-.148-.598-.15.895-1.79 1.342-1.79 6.557-4.47 14.158 1.79 21.46-.298 8.646-2.385 18.333-1.49 26.83-1.936 8.493-.45 16.542.297 25.187 0 2.383-.3 4.77-.3 7.303-.3.596 0 1.342.15 1.938.15 6.557-.15 13.115-.15 18.928-1.044 4.47 1.193 8.196.447 12.817.596zM1189.705 954.78c-11.775 5.216-21.91 12.07-32.193 18.927-.895.447-1.19 1.64-3.13 1.64-4.77 4.77-10.73 5.216-15.052 9.538-3.877 1.938-8.2 4.174-12.67 7.602.596.447 1.64.895 2.088 1.19 3.13 1.49 6.26.3 9.092.448 8.94.3 17.14-1.19 25.037-1.342 7.602 0 14.607-1.787 21.314-1.043.147.3.147.746.147 1.342-.445 3.428-4.32 1.043-5.96 1.64-7.153.894-13.413 1.042-21.165 1.34-9.537.597-18.928.15-28.465 1.192-6.41.598-12.223 0-18.332 1.342-10.135-1.19-20.418 4.025-30.555 1.938-2.383 0-4.77 1.193-7.3.598-1.046-.746-5.815.148-3.43-2.088 7.75-1.19 15.798 0 23.696-1.043 11.924-.446 24.592-1.19 33.385-8.792 1.493-.447 2.685-1.49 3.728-2.236 3.727-2.236 7.75-3.875 10.88-7.154 3.13-1.043 5.962-2.83 8.495-4.62 4.47-4.47 10.434-6.11 15.352-9.538 0-.596.447-.447.746-.596 1.34-.596 2.384-1.79 4.024-2.98 0-.596 4.322-1.49 4.172-1.938-.148-.447-5.066-.3-5.514-.596-6.855 1.49-15.352 2.086-23.25 2.832-8.496.744-14.16 2.383-22.207 2.53-2.832-.595-6.855 2.237-9.688-.147-3.13 0-4.918-.148-7.45.746-2.237 0-4.474-.298-7.155-.298-.598-.148-1.193.447-1.79.447-2.534 1.64-3.874-2.235-5.81-.448-.896.3-1.79 1.045-2.683-.3-4.772 1.345-8.497.6-12.52-1.638-1.345.598-1.79-.148-2.386-.596v-.447c.445-1.042 1.34.448 1.34.3 0 0 .895.744 1.79-.148.595-.895 1.937 1.043 2.235.596 5.065 1.19 11.026.895 16.69.148 5.217.895 13.115-.596 18.033.447 1.045-.148 2.385-1.043 4.174-.447 1.64-1.49 3.875-.148 5.068-1.043 6.26-.447 12.965-1.49 19.373-1.49 6.11-.596 12.818-1.193 17.736-1.938 1.045.3 2.236-.596 3.28.148 2.534-.596 3.577-.596 5.515-.895 3.874-.744 8.792-1.34 12.22-2.086.596 0 1.342-.447 2.234-1.49-.744-1.342.895-.746 1.045-.746 1.34-.596 3.575.596 5.81-.148.005.447.154.894.005 1.34zM1135.752 876.386c5.812.447 11.775 1.79 18.033 2.534 7.602.895 15.5 1.788 22.654 5.365 3.726 3.726 8.347 5.664 11.327 10.582.445 2.682 2.385 2.235 1.49 5.515.148.447-.3 0-.3-.597-3.427.148-1.788-.745-4.32-4.173-3.876 1.19-6.708-.597-9.538.596-11.925-.745-22.208 0-33.835 1.192-2.83 1.342-6.408 1.342-9.688.894-2.086-.745-4.322.746-6.855.3-7.75-.448-16.395-.448-23.994.596-5.664-.298-11.18 0-16.992.596-2.234-.447-4.768-1.192-7.898-.298-.895 2.086-1.938 1.64-1.19 3.428-.3.298-.6.745-1.046 1.044-.445-.15-.893 0-1.34-.448.596-4.32 3.428-6.707 6.11-9.985 5.216-4.77 11.923-7.005 17.587-11.625 3.726-2.385 7.6-2.684 11.624-4.322 5.066-.745 10.73-.447 15.65-1.49 4.172 1.04 8.196.743 12.518.296zm-23.55 3.726c-5.81-.298-9.835 2.385-15.35 4.024-.298.297-1.64 1.64-2.384 2.086-4.174 2.98-9.092 4.322-13.562 10.284 5.365-.448 8.047 1.49 10.582.446 3.725.447 7.004-1.49 10.73-1.64 5.365 1.64 11.178.3 16.693 1.044 5.067.596 10.58-.597 15.798-.895 9.24-3.576 19.97-1.042 29.51-2.086 4.62 0 9.986-.745 17.29.15-2.833-5.963-7.9-7.006-11.327-8.943-8.794-2.384-17.587-3.874-26.68-4.768-1.788-.3-4.022.446-5.66-.598-8.197.45-18.035-2.38-25.637.898zM1185.53 848.367c-1.49 3.28-5.065 3.577-7.6 5.365-3.43 1.79-7.153 3.577-11.028 4.024-1.043.596-2.535.745-3.727.894-9.986 1.79-19.674 5.813-30.105 6.11-7.154 1.49-15.053.746-22.805.597-6.408 0-14.605-1.788-21.014-4.62-3.13-.745-6.558-1.937-8.792-3.875-3.28-.895-5.812-3.28-8.645-5.067-.596-1.043-1.342-2.086-1.342-3.13 0-.148-.147-.298-.147-.298 2.98.745 5.812 2.98 8.793 4.77 2.385 1.34 3.727 3.13 6.26 3.726 4.32.895 7.75 3.876 12.22 3.577 8.198 2.087 17.142 1.938 26.978 1.34-1.49-3.427 1.043-4.768-.148-6.854.148-.895.297-1.49.596-2.087.447-.447.744-.895 1.34-.447.3.298.45.446.746.745-.297.894.3 1.49.746 1.937-.447 1.938 0 3.876-.3 6.26 7.304.746 12.222-1.34 18.185-1.64 2.532-1.19 6.407-1.49 9.536-2.384 2.832-.893 6.26-.893 8.943-2.532 2.235.297 4.77-.447 6.558-2.684 3.875.15 6.855-2.683 11.326-3.576v-.746c.744-.298 2.234-1.938 4.023-1.34-.148.743-.297 1.34-.596 1.935zM1087.463 805.146c1.64 0 4.025-.15 5.812-.298 4.322-2.683 11.03 0 16.098.597 3.13-1.79 8.346-.745 11.625-1.044 4.768-1.19 11.027.3 16.543.3 9.69 0 20.866-.3 30.554-.745 1.49-.15 2.98-1.044 4.322-.448.148.15.297-.148.447-.148-3.428 2.234-7.602 2.383-11.03 3.874-4.917 4.322-10.58 6.558-15.798 9.837-6.26 2.832-12.668 4.92-18.33 9.24-1.79.895-3.43 1.94-5.217 2.832l-4.322 2.088 4.918.297c11.625.746 22.504-2.086 34.428-.446 4.77 0 9.24-1.937 13.86-1.043 1.192-.15 2.683 0 3.728 0-.15.3 0 .895-.15 1.044-1.19 0-2.236.3-3.277 1.044-1.193.597-2.684.597-4.025.895-4.023.446-8.05-.15-12.072.744-10.88.298-21.46-1.043-32.043.15-4.918-.896-9.836 1.64-14.605.297-3.13.746-7.154-.894-9.54.895-7.153-.745-14.157-1.937-21.61-1.937-1.64-.597-4.174 0-4.918-1.79-.148-.147.895-1.64.895-.894 8.05-2.087 14.904 2.684 24.145 1.64 4.77-.597 9.688 0 14.754-1.49 1.492-2.087 3.727-1.938 5.367-3.28 2.98-.446 5.962-1.19 7.9-3.278 7.6-3.726 15.35-5.066 21.46-10.58 1.79-.746 3.576-1.64 5.516-3.28 0-.446 4.32-2.385 4.32-2.832-.148-.297-4.62.746-4.62.15-5.81 0-11.177-1.044-15.798.596-8.346-2.087-16.99-2.236-25.934-.3-6.408-.743-12.965-1.638-19.225-.446-5.218-2.235-11.03 2.386-15.8-1.788-.447-1.342-2.832-.894-2.682-2.533 5.065-.897 9.387 1.934 14.305 2.083zM1176.44 733.012c2.83 2.086 4.173 5.216 4.917 8.644-.148 3.43-1.49 6.26-1.787 9.837-.447.895-.447 1.64-2.385 1.937-.746 1.49-1.64 1.49-2.533 1.79-.3-.15-.447-.3-.447-.597 0-.596-.447-1.34-.447-1.938.447-.745.895-.745.895-1.192.148-.596 1.787-.447 1.64-1.49 1.638-2.98 1.49-6.856 1.49-10.582-1.192-4.172-5.962-4.918-9.69-5.067-3.278 0-7.153.15-10.43.745-2.237.15-4.026-.447-5.368.895-2.98-.447-5.96.745-8.94.596-1.343 1.192-3.728.447-5.366 1.043-9.24 1.64-18.333 2.385-27.872 2.534-6.707.148-14.01.148-20.42-.15-4.617.895-8.79.15-12.965-.894-1.342-.745-.148-1.937.895-2.683.895 0 1.938-.298 2.682.447 1.492-.15 1.94.15 2.535.447v.447c6.705-.297 13.264.448 18.63-1.043 5.663.3 12.37.895 17.587.15 2.086-1.193 5.066.148 7.45-.448 4.024-.895 9.24-.895 13.563-1.343.297-.148-.148-1.192.297-.148 3.727-.746 6.56-1.79 9.242-1.94 7.303-1.49 14.158-1.638 21.908-1.49 1.79-.296 3.13 1.045 4.917 1.492zM1107.137 679.21c4.174.746 7.602 1.49 12.072.894 7.75 3.28 16.69-1.34 23.993 4.024 4.025.895 9.092 1.043 12.818 2.98 6.26 2.088 12.817 2.982 18.185 7.304 2.234 2.98 3.875 5.663 5.514 8.793-.3 2.98-.15 6.41-2.833 7.75-5.662 2.235-11.625 3.28-17.14 6.11-11.923.3-22.952 4.62-34.13 2.683-5.365 1.192-10.582-.148-15.947.745-9.24-.596-17.736-4.322-26.678-5.96-1.938-1.64-9.54-2.982-3.428-5.366 4.023-.745 6.557 2.236 10.133 3.13 2.088.447 4.025 2.832 6.41 2.832 9.092 1.638 16.99 3.277 26.828 2.085 8.494 2.087 17.734 0 26.23-1.79 8.047-.595 15.35-2.83 22.803-4.917 3.576-1.64 2.236-4.62 3.875-8.496-1.938-1.34-1.342-4.173-2.682-5.365-2.384-2.684-7.153-4.024-10.136-5.812-4.918-.746-9.836 0-13.412-2.832-4.025-.745-8.645.298-11.773-2.832-13.415-2.235-26.98-1.19-39.497-4.32-7.303-.746-13.414-1.044-19.375-4.77.297-.894 1.79-.447 2.385-.745 9.24-.596 16.692 4.62 25.784 3.875zM1189.705 618.104c-11.775 5.216-21.91 12.072-32.193 18.928-.895.447-1.19 1.64-3.13 1.64-4.77 4.77-10.73 5.216-15.052 9.54-3.877 1.937-8.2 4.172-12.67 7.6.596.447 1.64.895 2.088 1.192 3.13 1.49 6.26.3 9.092.448 8.94.297 17.14-1.193 25.037-1.342 7.602 0 14.607-1.788 21.314-1.043.147.3.147.745.147 1.34-.445 3.43-4.32 1.045-5.96 1.64-7.153.895-13.413 1.043-21.165 1.342-9.537.595-18.928.148-28.465 1.19-6.41.598-12.223 0-18.332 1.343-10.135-1.193-20.418 4.024-30.555 1.937-2.383 0-4.77 1.192-7.3.596-1.046-.745-5.815.15-3.43-2.086 7.75-1.192 15.798 0 23.696-1.043 11.924-.447 24.592-1.192 33.385-8.793 1.493-.447 2.685-1.49 3.728-2.235 3.727-2.237 7.75-3.876 10.88-7.155 3.13-1.043 5.962-2.832 8.495-4.62 4.47-4.47 10.434-6.11 15.352-9.54 0-.596.447-.447.746-.596 1.34-.597 2.384-1.79 4.024-2.98 0-.597 4.322-1.492 4.172-1.94-.148-.445-5.066-.297-5.514-.595-6.855 1.49-15.352 2.086-23.25 2.832-8.496.745-14.16 2.385-22.207 2.533-2.832-.596-6.855 2.236-9.688-.148-3.13 0-4.918-.15-7.45.745-2.237 0-4.474-.298-7.155-.298-.598-.15-1.193.446-1.79.446-2.534 1.64-3.874-2.235-5.81-.447-.896.297-1.79 1.043-2.683-.3-4.772 1.343-8.497.598-12.52-1.638-1.345.596-1.79-.15-2.386-.596v-.448c.445-1.043 1.34.448 1.34.298 0 0 .895.746 1.79-.15.595-.894 1.937 1.044 2.235.597 5.065 1.192 11.026.895 16.69.15 5.217.893 13.115-.597 18.033.446 1.045-.15 2.385-1.044 4.174-.448 1.64-1.49 3.875-.15 5.068-1.043 6.26-.448 12.965-1.492 19.373-1.492 6.11-.596 12.818-1.192 17.736-1.937 1.045.3 2.236-.595 3.28.15 2.534-.596 3.577-.596 5.515-.895 3.874-.745 8.792-1.34 12.22-2.086.596 0 1.342-.448 2.234-1.49-.744-1.342.895-.746 1.045-.746 1.34-.597 3.575.596 5.81-.15.005.446.154.893.005 1.34zM1188.064 581.293c1.94.745 3.28-.298 4.77 0-.447 1.042-1.19 1.938-1.19 3.13-.597 1.64-2.685 1.937-3.876 3.13-1.193.297-1.342 1.937-2.684 2.83-3.13 1.94-5.96 4.025-9.092 6.26-6.11 1.49-11.625 5.664-18.78 6.41-5.513 2.533-12.667 2.384-18.776 2.533-3.727 2.98-9.688.298-14.16 1.938-2.234.298-3.576-.596-5.363-.596-6.11 1.64-11.627-.745-17.29-1.64-4.024-1.79-8.347-2.236-12.222-4.322-1.19-.895-2.98-.596-4.17-1.044-4.77-3.13-10.286-5.067-14.608-8.495-2.086-.447-2.682-2.98-4.768-3.427-.746-1.044-2.236-1.938-1.342-4.174-1.342-1.043-2.535-3.13 0-2.683.596-.448.893-.15.148.447 4.918 5.96 12.967 11.476 20.865 15.65 2.98 0 5.963 1.638 7.75 3.13 6.11 1.638 11.775 3.874 18.035 3.874 2.234 0 4.47.448 6.408-.148 3.875.447 7.45 1.49 11.477.447 3.875-.298 7.748-.746 11.475-1.49 11.924-2.386 24.89-2.98 34.727-9.54 3.578-2.384 6.11-4.47 9.24-8.047-.445-.745 1.938-.596 1.49-1.64-9.24.448-20.715.746-29.062 1.34-3.725 1.64-8.05-.297-12.072.3-3.576.446-7.303-.448-11.03-.3-1.788 0-3.427-.297-5.065.3-2.684-.448-6.11.297-8.346-1.193-1.043-.895 1.34-.745 1.64-1.342 2.384-.893 4.77-1.19 7.452-.148 2.086.298 4.172-1.043 6.11-1.043 5.513 0 10.282 1.49 14.01 1.042 0-.448 1.788 0 3.278 0 1.043-.298 2.086-.298 2.682-.15 3.28 0 5.367-.595 8.348-.148 5.365-1.34 12.072 0 16.395-1.192 1.34-.298 1.19-.15 2.533-.298 2.234 0 3.277-.744 5.064.3zM1083.29 555.808c2.235.3 3.726 2.534 6.26 2.534 4.77 2.384 9.24 3.577 15.054 3.875.895.448 2.385.596 3.428.895 3.28.298 6.26 1.79 9.39 1.79 1.937.595 4.62-.45 6.41 1.936 2.382-.596 4.17-1.192 5.66-1.937.597-1.192 2.237-2.682 2.087-4.32 1.044-1.64.15-2.98.894-5.068.895-2.832.895-4.472 2.385-7.452.745-.597 1.49-1.193 2.384-1.043.598 1.49 0 3.278 0 5.067-1.938 3.875-1.64 5.962-2.98 11.03 1.19.744.746 1.34 1.19 1.64 3.728.595 7.75.148 10.882-.597 1.938.297 3.576-.448 6.56-.448.595-1.79 1.937-.448 2.83-.895 5.366-.447 10.136-3.428 15.65-3.726 2.384-2.088 6.407-1.79 8.792-3.578 2.832.298 4.322-3.428 7.898-2.534 1.79-1.34 3.43-2.98 5.664-2.98.596.447 1.193.894 1.79 1.49-.3 2.235-2.833 2.385-4.472 3.577-2.535.3-4.92.895-6.71 2.534-3.276-.15-5.214 2.682-8.345 2.532-1.19.745-2.385.895-3.28 1.49-1.19-.15-2.233.298-3.128.746-6.855 0-12.22 4.47-19.078 4.024-.893.596-2.533.596-3.426.745-7.304 2.533-15.798 2.086-23.25 1.938-3.43-.895-7.6 0-10.583-1.49-9.238-1.64-18.182-5.367-26.975-7.75-4.174-1.64-8.05-4.174-11.924-6.26-4.322-2.386-9.39-4.025-12.52-8.348 0-.298 0-.745.3-.894 6.706 4.32 13.71 8.196 21.16 11.475zM1087.463 504.092c1.64 0 4.025-.15 5.812-.298 4.322-2.683 11.03 0 16.098.597 3.13-1.788 8.346-.745 11.625-1.043 4.768-1.192 11.027.298 16.543.298 9.69 0 20.866-.298 30.554-.744 1.49-.148 2.98-1.043 4.322-.447.148.15.297-.148.447-.148-3.428 2.236-7.602 2.384-11.03 3.875-4.917 4.32-10.58 6.558-15.798 9.837-6.26 2.832-12.668 4.918-18.33 9.24-1.79.895-3.43 1.938-5.217 2.832l-4.322 2.086 4.918.298c11.625.745 22.504-2.086 34.428-.447 4.77 0 9.24-1.938 13.86-1.043 1.192-.15 2.683 0 3.728 0-.15.298 0 .894-.15 1.043-1.19 0-2.236.297-3.277 1.043-1.193.596-2.684.596-4.025.895-4.023.447-8.05-.15-12.072.745-10.88.298-21.46-1.043-32.043.15-4.918-.895-9.836 1.64-14.605.297-3.13.745-7.154-.895-9.54.894-7.153-.744-14.157-1.937-21.61-1.937-1.64-.596-4.174 0-4.918-1.79-.148-.147.895-1.638.895-.893 8.05-2.087 14.904 2.682 24.145 1.64 4.77-.597 9.688 0 14.754-1.492 1.492-2.086 3.727-1.937 5.367-3.278 2.98-.447 5.962-1.192 7.9-3.28 7.6-3.725 15.35-5.066 21.46-10.58 1.79-.746 3.576-1.64 5.516-3.28 0-.447 4.32-2.385 4.32-2.832-.148-.297-4.62.745-4.62.15-5.81 0-11.177-1.044-15.798.595-8.346-2.086-16.99-2.235-25.934-.298-6.408-.744-12.965-1.64-19.225-.447-5.218-2.235-11.03 2.385-15.8-1.787-.447-1.342-2.832-.895-2.682-2.534 5.065-.895 9.387 1.936 14.305 2.086zM1105.498 436.43c6.258 1.042 11.475 1.788 17.586.744 4.023.596 6.855-.15 10.434-1.043 3.426.895 8.494.448 12.37 1.044 3.278 1.49 6.558.447 9.985.447 4.172 0 8.047.3 12.37.3 1.34.148 2.98-.896 4.32.744 2.237 0 3.876.895 5.366 1.34 1.788 1.492 5.216 1.045 7.005 2.833 2.98.745 4.47 3.875 6.408 5.813 1.342 1.49 2.682 1.64 3.28 3.577-1.044.745-1.343 1.49-2.534 1.34-2.833.15-2.237-2.83-4.175-4.023-3.578-5.663-10.432-8.943-17.586-8.943-1.194-.146-2.09-.892-3.58-1.19-7.45.745-15.2 1.79-23.1 1.19-6.41-2.53-14.456-1.04-21.462-1.34-5.664.448-12.967-.894-19.227.15-4.47-1.49-8.942 0-13.56-.746-2.683.745-5.366-.596-7.75.596-4.472.15-8.794.3-12.817.15-1.79 1.64-3.875-.448-5.664-.448-1.044-.447-1.044-1.49 0-1.938 4.618-.446 8.493.15 12.817 0 6.408-.148 12.965-.894 19.076-1.49 3.726-.893 6.857 1.64 10.435.895zM1189.406 379.795c3.727.447 6.26-.447 7.154 1.342 0 .15-.148.446-.148.596-5.516 3.13-12.67 1.79-19.078 3.577-11.326 1.64-22.95 2.534-33.385 5.217-2.386 3.278-5.067 7.75-3.43 12.072.15.147-.446 0-1.042 1.042 1.043 1.49-.596 2.086-.596 3.28-.598 2.83-.3 6.407-1.492 11.325 8.645 1.938 16.842 1.79 23.996 3.727 5.217 1.49 12.52-.895 17.736 1.788 1.938 0 4.322-.298 5.664 1.342.297.745-1.045.745-1.64.745-6.112-1.045-10.73-.597-16.544-1.343-6.855-2.98-17.29-.447-24.742-3.428-2.682 0-6.854.744-8.94-.747-7.005-1.64-15.353.448-21.91-2.682-12.222.447-22.354-4.62-34.874-4.62-.596-.596-.596-1.64-1.94-1.787-3.575-1.193-8.194 1.042-10.43-1.938.894-1.64 3.278-.894 5.067-2.235 15.053-3.28 28.912-9.837 44.264-12.668 4.322-2.087 9.688-2.684 14.457-4.62 1.64-.15 3.28-.447 4.77.148 2.98-.895 6.26-1.938 9.537-1.938 7.007-.148 13.267-3.428 20.57-2.832 2.235-1.34 5.663-.298 8.048-1.043 4.62-.447 9.39-1.64 13.713-2.83.894-.448 1.34-.746 1.49-1.045 1.34-.596 1.49-.596 2.532-.447 0 .148 1.194-.298 1.194 0zm-56.336 12.072c-7.453 3.28-16.098 3.28-23.848 5.515-9.092 2.533-17.586 7.6-27.87 9.54 0 2.532 1.044 3.426 2.83 3.575 4.175 1.49 8.05 3.13 12.82 3.727 8.792 1.19 19.075.446 27.423 2.533 2.234 0 5.514 0 8.494.895 1.49-1.79 1.64-3.577 2.98-4.472 0-1.788.446-3.13.597-4.47.297-2.236.297-4.323.744-5.963.747-2.832 1.194-3.875 1.493-6.26 4.025-7.005-2.98-4.47-5.663-4.62zM1177.93 333.443c-1.787 1.34-4.172 2.235-5.96 3.726-7.304 2.086-15.202 4.023-23.103 4.023-5.664.894-11.477 2.086-16.99 3.428-2.98-.297-6.408-.894-9.836-.148-.446 1.192-.446 1.64-2.235 2.087 1.64 4.32 5.066 7.302 6.707 10.432.895.447 1.79 1.64 1.49 2.683-.596 1.79.3 1.79 1.342 2.832 1.34 0 2.533.15 3.727.745 3.13-1.043 5.515-1.043 8.048-.15 2.832 1.64 5.217.448 8.346 0 5.963-.893 11.627-2.234 17.736-2.532 4.77-.15 9.54-.15 14.605-.15.447.15.895.3.746.746 0 .447-.595.895-1.042 1.044-7.453.447-14.605.745-21.164 2.832-4.918-.15-8.94 1.34-13.562.894-11.03-1.043-22.654 0-33.086 1.342-4.62-1.044-8.197.895-12.67.596-11.625-.894-23.697-.894-33.98-4.322-1.49-.447-.746-1.64-1.49-2.683.148-.448.895 0 1.19-.15 3.58.746 6.708 2.385 10.286 2.236l.297.298c6.11-.298 11.772 1.64 17.14 1.34 4.023 2.237 8.494-.595 12.816.15 5.516.895 10.135-1.043 15.5-1.788.746-.597 1.79-1.193 2.832-2.385-1.787-4.77-7.303-7.75-7.898-11.624.744 0-1.043-1.192-.3-3.577-4.618-1.343-8.345.446-11.772-1.193-2.832-.745-5.664.745-8.645-.895-4.023 1.938-7.602.15-11.477.447-2.236-1.94-3.13 1.937-5.812.148-2.533.745-5.96 1.19-8.05 0 .15-.597.15-1.043 0-1.64 2.237-1.34 5.368.447 7.603-1.34 3.28-.3 5.664 1.49 8.943.893 9.537-1.787 20.12.3 29.81-.297 6.704-.298 14.007.745 20.417-1.49 10.135-1.64 20.717-2.98 30.254-4.918 2.386-1.49 5.218-3.13 8.198-2.98.446.444.893.742 1.042 1.338zM1170.48 301.25c-5.366 3.875-12.222 3.28-17.14 7.452-1.938.597-4.025 1.64-5.664 2.683-4.62-.148-9.39 2.832-15.65 5.664 4.025 1.64 7.006 1.19 9.092.595 8.793 0 16.545-1.49 25.785-.15 2.533 0 5.662-.744 7.898.3 4.323.15 9.392-1.044 13.116 1.043l.297.298c-3.13.895-7.152.597-10.283.448-2.682-.746-5.514.297-8.494.297-5.812.15-11.924-1.936-17.14.598-4.77.597-9.24-1.64-13.86 0-4.174 1.34-8.348-.745-12.223 1.192-7.152-1.192-16.393.148-24.145-1.192-8.793 0-17.734.597-26.38-.894-4.77-.15-6.706-1.044-11.177-1.938-.15 0 .745-1.043.745-1.342 4.77-2.83 6.408-3.726 11.477-5.663 7.004-2.83 14.457-2.234 21.46-4.172 9.84.148 19.526 1.49 26.68 10.88 13.116-7.9 27.126-8.793 39.794-15.65 5.664-1.788 10.88-4.62 16.543-6.407.894 0 2.384-.596 3.427-.298-4.62 2.68-9.39 4.768-14.158 6.26zm-83.91 9.837c-1.94.596-4.322-.15-6.11 1.044-2.386-.298-4.622 1.044-6.56 1.79l-3.576 2.532c1.34.15 6.557.597 8.047.895 1.94 1.938 5.366 1.043 7.75 1.64 11.03-1.49 23.4.298 36.665-.298-1.938-2.387-3.873-2.982-4.918-4.025-2.086-2.087-7.898-4.322-11.773-5.962-6.707.893-13.862-.597-19.524 2.384zM1185.53 268.907c-1.49 3.28-5.065 3.578-7.6 5.365-3.43 1.79-7.153 3.578-11.028 4.025-1.043.596-2.535.745-3.727.894-9.986 1.79-19.674 5.813-30.105 6.11-7.154 1.492-15.053.746-22.805.598-6.408 0-14.605-1.788-21.014-4.62-3.13-.745-6.558-1.938-8.792-3.875-3.28-.895-5.812-3.28-8.645-5.067-.596-1.044-1.342-2.086-1.342-3.13 0-.15-.147-.3-.147-.3 2.98.746 5.812 2.982 8.793 4.77 2.385 1.343 3.727 3.13 6.26 3.728 4.32.895 7.75 3.875 12.22 3.577 8.198 2.087 17.142 1.938 26.978 1.342-1.49-3.428 1.043-4.77-.148-6.855.148-.895.297-1.49.596-2.087.447-.447.744-.894 1.34-.447.3.3.45.447.746.745-.297.895.3 1.49.746 1.938-.447 1.938 0 3.875-.3 6.26 7.304.746 12.222-1.34 18.185-1.64 2.532-1.19 6.407-1.49 9.536-2.384 2.832-.895 6.26-.895 8.943-2.534 2.235.298 4.77-.447 6.558-2.683 3.875.15 6.855-2.683 11.326-3.577v-.745c.744-.298 2.234-1.938 4.023-1.342-.148.746-.297 1.342-.596 1.937zM1087.463 225.688c1.64 0 4.025-.15 5.812-.298 4.322-2.683 11.03 0 16.098.596 3.13-1.788 8.346-.744 11.625-1.043 4.768-1.192 11.027.3 16.543.3 9.69 0 20.866-.3 30.554-.747 1.49-.148 2.98-1.043 4.322-.447.148.148.297-.15.447-.15-3.428 2.236-7.602 2.385-11.03 3.875-4.917 4.322-10.58 6.56-15.798 9.838-6.26 2.83-12.668 4.918-18.33 9.24-1.79.894-3.43 1.937-5.217 2.83l-4.322 2.088 4.918.3c11.625.744 22.504-2.088 34.428-.448 4.77 0 9.24-1.938 13.86-1.043 1.192-.15 2.683 0 3.728 0-.15.297 0 .894-.15 1.042-1.19 0-2.236.298-3.277 1.043-1.193.598-2.684.598-4.025.895-4.023.448-8.05-.148-12.072.745-10.88.3-21.46-1.042-32.043.15-4.918-.896-9.836 1.64-14.605.298-3.13.745-7.154-.895-9.54.894-7.153-.745-14.157-1.938-21.61-1.938-1.64-.597-4.174 0-4.918-1.79-.148-.148.895-1.64.895-.894 8.05-2.087 14.904 2.683 24.145 1.64 4.77-.597 9.688 0 14.754-1.49 1.492-2.087 3.727-1.938 5.367-3.28 2.98-.446 5.962-1.19 7.9-3.278 7.6-3.726 15.35-5.067 21.46-10.58 1.79-.746 3.576-1.64 5.516-3.28 0-.447 4.32-2.385 4.32-2.832-.148-.298-4.62.745-4.62.15-5.81 0-11.177-1.045-15.798.595-8.346-2.085-16.99-2.234-25.934-.297-6.408-.745-12.965-1.64-19.225-.447-5.218-2.235-11.03 2.385-15.8-1.788-.447-1.342-2.832-.894-2.682-2.533 5.065-.898 9.387 1.933 14.305 2.083z"/></g><path d="M2048 0M2048 1536M0 1536M0 0" fill="none" stroke="#17192D" stroke-width="3"/></g></svg>