<?xml version="1.0" encoding="iso-8859-1"?>
<!-- Generator: Adobe Illustrator 13.0.0, SVG Export Plug-In . SVG Version: 6.00 Build 14948)  -->
<!DOCTYPE svg PUBLIC "-//W3C//DTD SVG 1.1//EN" "http://www.w3.org/Graphics/SVG/1.1/DTD/svg11.dtd">
<svg version="1.1" id="Ebene_1" xmlns="http://www.w3.org/2000/svg" xmlns:xlink="http://www.w3.org/1999/xlink" x="0px" y="0px"
	 width="2048px" height="1536px" viewBox="0 0 2048 1536" style="enable-background:new 0 0 2048 1536;" xml:space="preserve">
<g id="atxtb_x5F_3">
	<g>
		<path style="fill:#FF0050;" d="M1011.658,1482.067c4.051,0.675,7.426,1.156,11.379,0.48c2.604,0.386,4.436-0.097,6.75-0.675
			c2.219,0.578,5.496,0.289,8.004,0.675c2.121,0.965,4.244,0.29,6.461,0.29c2.701,0,5.207,0.192,8.004,0.192
			c0.867,0.097,1.931-0.579,2.797,0.481c1.447,0,2.509,0.578,3.474,0.867c1.156,0.965,3.375,0.676,4.531,1.833
			c1.928,0.482,2.893,2.507,4.146,3.761c0.867,0.965,1.736,1.062,2.121,2.314c-0.674,0.482-0.867,0.965-1.639,0.868
			c-1.832,0.097-1.445-1.832-2.701-2.604c-2.312-3.665-6.748-5.786-11.379-5.786c-0.771-0.098-1.351-0.579-2.314-0.771
			c-4.82,0.48-9.836,1.156-14.945,0.771c-4.146-1.64-9.354-0.676-13.887-0.868c-3.664,0.289-8.39-0.577-12.439,0.098
			c-2.895-0.965-5.786,0-8.774-0.482c-1.736,0.482-3.473-0.386-5.016,0.387c-2.894,0.097-5.689,0.191-8.293,0.097
			c-1.157,1.061-2.509-0.29-3.664-0.29c-0.677-0.289-0.677-0.964,0-1.254c2.989-0.289,5.495,0.097,8.293,0
			c4.146-0.096,8.39-0.578,12.344-0.964C1007.318,1480.91,1009.343,1482.549,1011.658,1482.067z"/>
		<path style="fill:#FF0050;" d="M1063.441,1463.553c-0.963,2.122-3.277,2.314-4.916,3.473c-2.22,1.156-4.629,2.313-7.138,2.604
			c-0.676,0.386-1.639,0.482-2.411,0.579c-6.462,1.157-12.729,3.761-19.479,3.953c-4.629,0.965-9.74,0.481-14.754,0.387
			c-4.146,0-9.451-1.157-13.599-2.99c-2.023-0.481-4.241-1.254-5.688-2.507c-2.121-0.579-3.76-2.122-5.593-3.277
			c-0.387-0.677-0.868-1.352-0.868-2.025c0-0.097-0.097-0.193-0.097-0.193c1.929,0.482,3.762,1.93,5.689,3.086
			c1.543,0.868,2.41,2.025,4.05,2.411c2.796,0.578,5.016,2.507,7.907,2.314c5.305,1.35,11.09,1.254,17.455,0.867
			c-0.965-2.219,0.674-3.087-0.097-4.437c0.097-0.578,0.191-0.964,0.386-1.351c0.289-0.289,0.482-0.578,0.868-0.289
			c0.192,0.192,0.289,0.289,0.481,0.481c-0.192,0.579,0.193,0.966,0.482,1.255c-0.289,1.253,0,2.507-0.193,4.05
			c4.728,0.482,7.908-0.868,11.767-1.062c1.639-0.771,4.146-0.964,6.172-1.543c1.832-0.577,4.049-0.577,5.785-1.64
			c1.447,0.193,3.086-0.289,4.244-1.735c2.506,0.098,4.436-1.735,7.328-2.313c0-0.771,0-0.481,0-0.481
			c0.481-0.192,1.446-1.254,2.604-0.868C1063.732,1462.781,1063.635,1463.168,1063.441,1463.553z"/>
		<path style="fill:#FF0050;" d="M1031.234,1437.902c3.76,0.289,7.616,1.156,11.668,1.64c4.918,0.578,10.028,1.157,14.657,3.472
			c2.41,2.41,5.4,3.664,7.328,6.847c0.289,1.736,1.543,1.446,0.965,3.567c0.097,0.289-0.192,0-0.192-0.385
			c-2.219,0.096-1.158-0.482-2.797-2.701c-2.509,0.772-4.338-0.385-6.172,0.387c-7.716-0.481-14.367,0-21.89,0.771
			c-1.834,0.869-4.146,0.869-6.27,0.579c-1.351-0.481-2.798,0.481-4.437,0.191c-5.014-0.288-10.607-0.288-15.525,0.388
			c-3.664-0.193-7.231,0-10.993,0.386c-1.445-0.29-3.085-0.772-5.11-0.193c-0.579,1.351-1.253,1.062-0.771,2.218
			c-0.192,0.193-0.387,0.482-0.676,0.677c-0.289-0.099-0.578,0-0.867-0.289c0.386-2.797,2.218-4.34,3.953-6.462
			c3.375-3.086,7.715-4.532,11.379-7.521c2.411-1.543,4.918-1.734,7.521-2.797c3.279-0.482,6.943-0.289,10.126-0.965
			C1025.834,1438.385,1028.438,1438.191,1031.234,1437.902z M1015.998,1440.312c-3.762-0.192-6.365,1.543-9.934,2.604
			c-0.192,0.193-1.062,1.062-1.543,1.351c-2.699,1.93-5.883,2.797-8.775,6.653c3.473-0.289,5.208,0.965,6.848,0.289
			c2.41,0.289,4.531-0.964,6.943-1.062c3.471,1.062,7.232,0.192,10.801,0.676c3.278,0.386,6.846-0.386,10.221-0.578
			c5.979-2.315,12.922-0.676,19.095-1.352c2.989,0,6.461-0.481,11.186,0.098c-1.832-3.857-5.108-4.532-7.328-5.786
			c-5.688-1.542-11.379-2.507-17.262-3.086c-1.156-0.192-2.604,0.29-3.664-0.386
			C1027.279,1440.024,1020.916,1438.191,1015.998,1440.312z"/>
		<path style="fill:#FF0050;" d="M997.289,1422.377c1.447,0.193,2.412,1.64,4.051,1.64c3.086,1.543,5.979,2.314,9.74,2.507
			c0.578,0.291,1.543,0.387,2.217,0.579c2.122,0.193,4.051,1.157,6.076,1.157c1.254,0.386,2.989-0.289,4.146,1.254
			c1.543-0.386,2.699-0.771,3.664-1.254c0.386-0.771,1.447-1.736,1.351-2.797c0.676-1.061,0.098-1.929,0.578-3.278
			c0.579-1.832,0.579-2.893,1.545-4.82c0.479-0.388,0.963-0.771,1.543-0.677c0.385,0.965,0,2.122,0,3.279
			c-1.254,2.507-1.062,3.857-1.931,7.136c0.771,0.482,0.482,0.868,0.771,1.062c2.41,0.386,5.014,0.097,7.039-0.385
			c1.254,0.191,2.313-0.29,4.244-0.29c0.385-1.157,1.254-0.289,1.832-0.579c3.471-0.289,6.557-2.219,10.125-2.41
			c1.543-1.35,4.146-1.157,5.688-2.314c1.832,0.192,2.797-2.218,5.111-1.64c1.157-0.868,2.217-1.929,3.664-1.929
			c0.387,0.289,0.771,0.578,1.157,0.965c-0.192,1.446-1.834,1.542-2.895,2.313c-1.639,0.192-3.182,0.578-4.338,1.64
			c-2.123-0.096-3.377,1.735-5.4,1.64c-0.771,0.482-1.543,0.579-2.123,0.965c-0.771-0.097-1.445,0.192-2.025,0.481
			c-4.436,0-7.905,2.894-12.342,2.604c-0.578,0.387-1.641,0.387-2.219,0.481c-4.725,1.64-10.221,1.35-15.043,1.254
			c-2.218-0.579-4.918,0-6.847-0.964c-5.979-1.062-11.766-3.474-17.454-5.017c-2.7-1.06-5.208-2.698-7.715-4.05
			c-2.797-1.543-6.076-2.604-8.102-5.4c0-0.191,0-0.481,0.192-0.577C987.936,1417.748,992.467,1420.256,997.289,1422.377z"/>
		<path style="fill:#FF0050;" d="M1062.961,1377.826c0.289,0.097,0.48,0.191,0.674,0.386c-0.867,2.218-3.471,0.965-5.496,1.543
			c-1.735,0.29-3.375,0-5.11,0.097c-4.726,0.097-9.449-0.097-13.982,0c-2.41,0-5.594,0.193-8.1-0.097
			c-1.642-0.192-3.666,0-5.306,0.097c-3.953,0.387-7.714,0-11.861,0.289c-0.192-0.192-0.385-0.192-0.578-0.192
			c-1.736,0.869-3.664,0.098-5.305,0.387c-3.953,0.192-7.715,0.578-11.571,0.578c-2.7-1.157-5.497,0.579-8.293-0.096
			c-0.386-0.098,0.577-1.158,0.868-1.158c4.241-2.894,9.159,1.158,13.886-0.192c5.594-1.543,11.862-0.965,17.357-1.254
			c5.497-0.289,10.704,0.193,16.298,0c1.543-0.193,3.086-0.193,4.725-0.193c0.387,0,0.869,0.099,1.254,0.099
			c4.244-0.099,8.486-0.099,12.246-0.676C1057.561,1378.212,1059.971,1377.729,1062.961,1377.826z"/>
		<path style="fill:#FF0050;" d="M1058.525,1347.258c-1.158,0.868-2.701,1.446-3.859,2.411c-4.725,1.351-9.836,2.604-14.945,2.604
			c-3.666,0.578-7.426,1.35-10.994,2.218c-1.928-0.192-4.146-0.578-6.364-0.097c-0.289,0.771-0.289,1.062-1.446,1.351
			c1.061,2.797,3.278,4.726,4.34,6.75c0.578,0.289,1.156,1.061,0.963,1.735c-0.385,1.157,0.193,1.157,0.869,1.832
			c0.867,0,1.64,0.097,2.41,0.482c2.025-0.676,3.568-0.676,5.207-0.097c1.832,1.061,3.375,0.29,5.4,0
			c3.856-0.579,7.521-1.447,11.477-1.64c3.084-0.098,6.172-0.098,9.449-0.098c0.289,0.098,0.58,0.193,0.482,0.482
			c0,0.289-0.386,0.578-0.677,0.675c-4.819,0.289-9.448,0.481-13.692,1.833c-3.183-0.098-5.785,0.867-8.775,0.578
			c-7.135-0.676-14.658,0-21.407,0.867c-2.989-0.675-5.305,0.578-8.196,0.387c-7.521-0.578-15.334-0.578-21.987-2.796
			c-0.964-0.29-0.481-1.062-0.964-1.737c0.096-0.289,0.578,0,0.771-0.096c2.314,0.481,4.339,1.543,6.654,1.445
			c0.096,0.098,0.096,0.098,0.19,0.193c3.955-0.193,7.619,1.061,11.092,0.867c2.603,1.445,5.496-0.385,8.293,0.097
			c3.566,0.578,6.558-0.675,10.027-1.157c0.482-0.386,1.158-0.771,1.832-1.542c-1.155-3.087-4.725-5.016-5.109-7.522
			c0.482,0-0.675-0.771-0.192-2.313c-2.989-0.868-5.399,0.289-7.618-0.771c-1.832-0.482-3.664,0.482-5.594-0.579
			c-2.603,1.254-4.917,0.097-7.425,0.29c-1.447-1.254-2.025,1.254-3.761,0.097c-1.641,0.481-3.857,0.771-5.208,0
			c0.097-0.387,0.097-0.676,0-1.062c1.446-0.867,3.473,0.29,4.918-0.867c2.122-0.193,3.665,0.964,5.786,0.578
			c6.172-1.157,13.019,0.192,19.287-0.193c4.339-0.191,9.063,0.482,13.21-0.964c6.559-1.061,13.403-1.929,19.575-3.183
			c1.543-0.965,3.375-2.024,5.306-1.929C1058.139,1346.679,1058.428,1346.872,1058.525,1347.258z"/>
		<path style="fill:#FF0050;" d="M1063.441,1316.207c-3.761,2.7-3.472,0.964-5.304,2.024c-1.35,0.676-2.604,0.29-3.856,0.771
			c-2.025,0.675-2.025,0.868-3.568,1.641c-0.867,0.577-1.543,1.061-2.506,1.445c-1.93,0.868,0,2.122-4.822,2.024
			c-0.481,0.098-2.508,3.279-3.182,1.929c-2.412,0.29-0.965,0.482-2.896,1.254c-0.096,0.193-0.192-0.289-0.385-0.289
			c-0.965,0.387-1.158-0.191-1.543,0.771c-0.192,0.386,0.289,0.868-0.771,0.29c-1.062,0.48-2.025,0.867-2.025,0.964
			c-0.289,0.289-0.867,0.192-0.867,0.192c-0.676,0-1.543,0.965-2.313,1.735c-1.736,0.482-2.894,2.604-3.857,4.437
			c3.183,0.676,5.4,0.192,7.617,0.965c0.869,0.192,1.735-0.965,2.701,0c1.35-0.386,2.121-0.193,3.086-0.289
			c1.639,0.675,2.41-0.097,4.436,0.192c2.798-0.771,2.699-0.868,5.689-0.868c4.049,0.771,6.074,0.097,10.125,0.481
			c0.771-0.386,2.412,0.098,3.184,0.579c1.64-0.579,4.437-0.481,4.627-0.386c0.289,0.096,0.771,0.578,1.158,0.771
			c0.096,0.192,0.096,0.288-0.098,0.387c-2.312,0.867-2.988,0.096-5.207,0.675c-1.543-0.29-3.761,0-5.4-0.29
			c-2.988,0.193-3.76-0.867-7.135-0.096c-7.619,0-11.188,0-17.84,0c-0.482-0.098-0.966,0.192-1.447,0.096
			c-0.771-0.192-1.736,0.579-2.508-0.192c-3.761,0.579-8.005-0.386-10.512,0.29c-0.771,0.386-1.734,0.386-2.507,0.481
			c-2.313-1.062-5.688,0.097-7.908-0.481c-1.155,0.289-2.698,0.771-4.049,0.578c-2.123,0.387-3.955,0.289-5.883,0.771
			c-1.157-0.385-2.7,0.29-3.762,0c-1.928,0.481-4.051-0.192-6.074,0c-0.098-0.192-0.193-0.385-0.289-0.676
			c1.734-3.277,4.338-4.53,6.942-7.425c4.243-3.086,11.476-4.821,16.876-1.833c0.964-0.675,1.061,0.482,1.639,0.482
			c1.93,1.157,2.797,2.122,4.822,2.508c1.639,0.867,2.218,1.832,4.242,2.989c1.543-1.64,3.086-2.314,4.051-3.761
			c1.735-1.641,3.953-2.411,5.785-4.243c4.438-1.929,0.771,0.675,6.076-1.735c5.303-1.544,3.276-1.64,5.399-2.411
			c1.64-0.579,3.471-0.964,4.146-1.446c0.577-0.481,1.061-0.578,1.639-1.062c3.953-2.41,0.482-1.832,5.305-2.7
			c0.867-0.191,4.918-1.156,5.304-1.445c0.676-0.482,0.481-0.289,2.123-0.965C1062.479,1315.146,1064.213,1315.82,1063.441,1316.207
			z M990.539,1337.422c4.34,0.868,7.329,0.482,10.705-0.097c4.049-1.157,9.547-0.675,13.789-0.964c0.965-0.482,2.797,0,3.279-1.832
			c-1.736-0.29-2.509-1.352-3.474-1.833c-0.096,0-0.289-0.097-0.385,0c-2.7-1.351-5.306-2.604-8.294-3.183
			C1000.279,1328.357,994.493,1332.118,990.539,1337.422z"/>
		<path style="fill:#FF0050;" d="M1063.441,1297.499c-0.963,2.121-3.277,2.313-4.916,3.472c-2.22,1.157-4.629,2.314-7.138,2.604
			c-0.676,0.386-1.639,0.481-2.411,0.578c-6.462,1.157-12.729,3.762-19.479,3.954c-4.629,0.965-9.74,0.481-14.754,0.386
			c-4.146,0-9.451-1.157-13.599-2.989c-2.023-0.482-4.241-1.254-5.688-2.508c-2.121-0.578-3.76-2.121-5.593-3.278
			c-0.387-0.675-0.868-1.35-0.868-2.024c0-0.098-0.097-0.192-0.097-0.192c1.929,0.482,3.762,1.929,5.689,3.086
			c1.543,0.867,2.41,2.025,4.05,2.41c2.796,0.579,5.016,2.508,7.907,2.313c5.305,1.352,11.09,1.255,17.455,0.868
			c-0.965-2.218,0.674-3.086-0.097-4.436c0.097-0.579,0.191-0.964,0.386-1.351c0.289-0.289,0.482-0.578,0.868-0.289
			c0.192,0.192,0.289,0.289,0.481,0.481c-0.192,0.578,0.193,0.964,0.482,1.254c-0.289,1.253,0,2.507-0.193,4.051
			c4.728,0.481,7.908-0.868,11.767-1.062c1.639-0.771,4.146-0.965,6.172-1.543c1.832-0.579,4.049-0.579,5.785-1.64
			c1.447,0.192,3.086-0.289,4.244-1.735c2.506,0.096,4.436-1.736,7.328-2.314c0-0.771,0-0.481,0-0.481
			c0.481-0.192,1.446-1.254,2.604-0.868C1063.732,1296.729,1063.635,1297.113,1063.441,1297.499z"/>
		<path style="fill:#FF0050;" d="M1053.703,1275.995c-3.473,2.507-7.908,2.121-11.09,4.821c-1.254,0.387-2.604,1.061-3.664,1.735
			c-2.99-0.097-6.076,1.832-10.127,3.664c2.604,1.062,4.533,0.771,5.883,0.386c5.689,0,10.705-0.964,16.684-0.097
			c1.64,0,3.664-0.482,5.111,0.193c2.795,0.097,6.074-0.677,8.484,0.675c0.098,0.097,0.098,0.097,0.192,0.193
			c-2.024,0.577-4.629,0.385-6.651,0.288c-1.736-0.481-3.568,0.192-5.498,0.192c-3.76,0.097-7.715-1.253-11.09,0.386
			c-3.086,0.388-5.979-1.061-8.97,0c-2.698,0.868-5.399-0.481-7.905,0.771c-4.629-0.771-10.608,0.097-15.624-0.771
			c-5.689,0-11.476,0.388-17.068-0.578c-3.086-0.097-4.339-0.675-7.231-1.254c-0.097,0,0.481-0.675,0.481-0.868
			c3.086-1.832,4.146-2.41,7.426-3.664c4.531-1.832,9.354-1.445,13.888-2.699c6.362,0.097,12.632,0.964,17.261,7.04
			c8.485-5.111,17.55-5.689,25.748-10.126c3.664-1.157,7.039-2.989,10.705-4.146c0.578,0,1.543-0.386,2.217-0.191
			C1059.875,1273.681,1056.789,1275.031,1053.703,1275.995z M999.412,1282.359c-1.255,0.386-2.797-0.098-3.955,0.676
			c-1.543-0.193-2.989,0.675-4.242,1.156l-2.314,1.64c0.867,0.097,4.242,0.386,5.207,0.579c1.255,1.253,3.472,0.675,5.016,1.061
			c7.136-0.965,15.14,0.192,23.722-0.191c-1.253-1.544-2.506-1.93-3.182-2.604c-1.351-1.35-5.111-2.797-7.618-3.856
			C1007.705,1281.396,1003.076,1280.431,999.412,1282.359z"/>
		<path style="fill:#FF0050;" d="M1046.855,1226.235c-0.191-0.098,0.868-0.289,1.254-0.192c0.289,0,0.676,0,0.771,0
			c0.578,0.192,1.351,0.482,1.931,0.386c1.35,0.578,2.698,0.289,3.854,0.867c2.313,1.062,5.4,2.025,7.908,4.146
			c1.543,1.641,3.567,2.314,5.11,3.763c0.289,0.866,0.674,1.254,0.482,2.023c-1.543,0.098-2.314-2.12-3.762-2.698
			c-1.062-0.965-2.604-1.254-3.471-2.509c-0.193-0.097-0.58-0.481-0.771-0.579c-0.193-0.096-0.289-0.288-0.289-0.288
			c-0.098,0-0.482-0.192-0.482-0.289c-0.866-0.868-1.155-0.965-1.155-0.578c-0.677-0.193-1.158-0.676-1.834-0.579
			c-0.289-0.097-0.578-0.289-0.771-0.578c-1.155,0.192-1.444-0.386-2.024-0.482c-1.062-0.578-2.699,0-3.855-0.386
			c-0.58,0.098-1.062-0.481-1.736-0.386c-2.313-0.675-3.278-0.097-5.786,0.096c-3.183,1.158-3.277,0.869-5.304,1.641
			c-1.543,0.578-2.41,0.771-3.856,1.446c-1.447,0.676-2.025,1.446-3.474,2.121c-1.35,0.578-2.217,0.386-3.471,0.868
			c-1.448,0.578-2.314,1.253-3.665,1.832c-1.35,0.675-2.411,0.965-3.954,1.639c-1.445,0.869-2.218,1.736-3.953,2.22
			c-0.481,0-1.156,0.097-1.64,0.097c-0.481-0.097-1.061,0.096-1.351,0.096c-0.289,0.098-0.771-0.096-1.062-0.191
			c-1.734,0.578-2.7-0.579-4.532-0.387c-1.735-0.481-3.472-0.675-5.496-1.351c-1.93-1.061-4.437-1.542-6.559-2.989
			c-2.217-1.156-4.436-2.893-6.074-5.015c-0.192-0.289-0.965-1.062-0.289-0.964c1.734,0.771,3.277,2.507,5.11,3.183
			c4.917,3.085,10.028,4.918,15.14,5.399c0.579,0.29,1.255,0,1.93,0.29c0.964,0,2.313,0.289,3.376,0.096
			c3.471,0.387,2.698-1.156,4.146-1.735c1.543-0.578,2.508-0.481,3.857-1.156c0.964-0.578,1.445-1.254,2.603-1.736
			c0.964-0.578,1.641-1.061,2.895-1.253c2.893-0.29,2.988-0.868,4.436-2.122c0.677-0.386,1.062-0.867,1.832-1.156
			c0.677-0.578,1.255-0.29,2.121-0.578c1.158-0.291,1.736-0.676,2.896-1.062c1.061-0.386,2.217-0.868,2.795-0.868
			c2.025-0.868,3.184-0.289,5.111-0.482C1046.373,1225.85,1046.953,1226.235,1046.855,1226.235z"/>
		<path style="fill:#FF0050;" d="M1062.961,1213.796c0.289,0.096,0.48,0.192,0.674,0.386c-0.867,2.219-3.471,0.965-5.496,1.543
			c-1.735,0.289-3.375,0-5.11,0.097c-4.726,0.097-9.449-0.097-13.982,0c-2.41,0-5.594,0.192-8.1-0.097
			c-1.642-0.192-3.666,0-5.306,0.097c-3.953,0.386-7.714,0-11.861,0.29c-0.192-0.193-0.385-0.193-0.578-0.193
			c-1.736,0.868-3.664,0.097-5.305,0.386c-3.953,0.193-7.715,0.579-11.571,0.579c-2.7-1.157-5.497,0.578-8.293-0.097
			c-0.386-0.098,0.577-1.157,0.868-1.157c4.241-2.893,9.159,1.157,13.886-0.192c5.594-1.544,11.862-0.965,17.357-1.254
			c5.497-0.29,10.704,0.192,16.298,0c1.543-0.192,3.086-0.192,4.725-0.192c0.387,0,0.869,0.097,1.254,0.097
			c4.244-0.097,8.486-0.097,12.246-0.675C1057.561,1214.182,1059.971,1213.699,1062.961,1213.796z"/>
		<path style="fill:#FF0050;" d="M980.703,1191.345c0.193,1.641,0.868,2.797,1.158,4.532c-0.58,2.604-0.099,4.918,0.867,8.101
			c1.35-0.675,2.313-0.481,2.797-0.288c1.832-0.193,4.146,0.288,5.979,0.192c1.736-0.387,3.857-0.579,5.593-0.579
			c2.7-1.35,6.075-1.735,8.775-2.313c1.543,0.386,3.376,0,4.821,0.191c6.559,0,13.309-1.639,19.48-2.507
			c1.156,0.098,2.894-0.192,3.953,0.098c0.193-0.098,0.676-0.098,0.771-0.193c4.821-0.192,8.68-0.289,13.5-0.289
			c2.219,0,4.146,0.386,6.172,0.482h-0.096c-2.509,1.832-5.979,1.156-8.681,1.734c-3.953-0.964-8.1,1.062-12.344-0.578
			c-2.506,2.604-5.496,0.578-8.101,1.446c-2.41-0.29-5.304-0.192-7.33,1.062c-0.963-0.098-1.831,0.289-3.183-0.192
			c-2.312,1.351-5.207,0.675-7.617,0.675c-3.954-0.867-7.137,1.735-10.896,1.254c-2.7,1.351-5.786,1.157-8.872,1.157
			c-0.964-1.062-2.507-0.097-4.436-2.219c-0.676,4.243-0.289,6.751-0.482,9.354c0.482,2.023-0.289,4.242,0,6.461
			c-0.096,0.097-0.096,0.191-0.192,0.289c-0.771-0.098-0.964-0.966-1.254-1.543c0.579-1.93,0.482-3.857,0-5.786
			c-0.386-0.481,0-1.351,0.097-2.313c-1.061-1.447-0.192-3.568-0.965-4.919c0.482-1.543-0.192-3.182-0.096-4.725
			c-0.868-1.543,0.289-3.568-0.579-5.111c0-1.351-1.832-2.7-0.289-3.761c0.097-0.098,0.289-0.193,0.481-0.289
			C980.125,1190.862,980.605,1190.959,980.703,1191.345z"/>
		<path style="fill:#FF0050;" d="M1012.718,1158.751c2.7,0.481,4.918,0.964,7.812,0.578c5.016,2.121,10.801-0.868,15.525,2.604
			c2.605,0.579,5.883,0.676,8.295,1.93c4.049,1.351,8.293,1.929,11.765,4.726c1.446,1.929,2.508,3.664,3.567,5.689
			c-0.192,1.929-0.096,4.146-1.832,5.015c-3.664,1.446-7.521,2.121-11.09,3.953c-7.715,0.192-14.852,2.989-22.084,1.735
			c-3.471,0.771-6.846-0.097-10.316,0.481c-5.979-0.386-11.477-2.796-17.263-3.857c-1.253-1.06-6.172-1.929-2.218-3.471
			c2.604-0.482,4.243,1.446,6.557,2.024c1.352,0.29,2.604,1.833,4.147,1.833c5.882,1.061,10.993,2.12,17.358,1.35
			c5.496,1.351,11.475,0,16.971-1.157c5.207-0.386,9.934-1.832,14.754-3.183c2.313-1.062,1.447-2.989,2.508-5.496
			c-1.254-0.868-0.867-2.7-1.734-3.472c-1.543-1.736-4.629-2.604-6.559-3.762c-3.182-0.481-6.365,0-8.678-1.832
			c-2.605-0.481-5.594,0.192-7.619-1.833c-8.679-1.445-17.456-0.771-25.555-2.796c-4.726-0.481-8.68-0.675-12.536-3.086
			c0.192-0.579,1.157-0.29,1.543-0.482C1002.014,1155.857,1006.835,1159.232,1012.718,1158.751z"/>
		<path style="fill:#FF0050;" d="M1059.393,1125.771c0.771,0.386,1.543,0,2.41,0.192c0.676,0,1.158,0.192,1.736,0.578
			c0.096,0.482-0.482,0.868-0.771,1.351c-0.674,0.867-1.446-0.481-1.639-0.481c-0.193-0.386-1.158,0.481-2.123-0.965
			c-1.928,0.579-3.664,0.579-5.014,0.192c-2.701,0.289-5.689-0.481-8.293,0.578c-1.062,0.098-1.64,1.352-2.121,1.929
			c-0.099,0-0.482,1.157-1.353,1.543c-1.254,1.157-3.086,2.99-3.664,3.473c-0.481,0.481,0-0.578-0.866,0.386
			c-0.482,0.386-0.289,0.579-0.965,1.64c-0.867,1.062-2.604,2.894-2.99,3.375c-0.578,1.157-1.156,2.507-1.832,4.051
			c2.024,1.351,4.051,0.965,5.399,1.833c1.736,0.096,3.857,0.48,5.689,0.964c1.062-0.868,1.832,0.192,2.604,0.192
			c1.062,0.578,2.701,0.481,3.955,1.062c2.41,0.386,4.531,1.832,7.232,1.35c0.965,0.193,2.121,0.579,3.086,0.868
			c-0.098,0.192-0.193,0.386-0.387,0.386c-1.64,0.289-3.086-0.579-4.531-0.481c-0.387-0.289-0.676-0.387-1.062-0.289
			c-0.772-0.098-1.543-0.289-2.219-0.289c-1.543-0.482-2.604,0.386-5.11-1.254c0,1.446,0.192,0.579,0.192,0.579
			c-1.447-0.388-3.473-0.965-5.399-0.868c-1.156-0.771-2.604-0.482-3.763-0.771c-2.698-0.289-4.53-1.351-7.135-1.156
			c0,0-0.098-0.098-0.193-0.098c-0.771-0.481-1.639-0.191-2.12-0.675c-5.884-1.64-11.862-3.279-17.745-4.918
			c-1.351-0.675-2.508-0.965-3.953-1.543c-1.93-0.675-3.762-1.832-5.786-2.604c-2.025-0.771-3.954-2.024-6.269-2.699
			c-0.578-0.29-1.543,0.191-1.543-0.772c0-0.289-0.289-0.964-0.097-1.06c0.674-1.062,2.604-1.062,3.567-1.543
			c2.313-0.193,5.593-0.676,8.39-1.254c1.062-1.254,2.7-0.29,3.954-0.771c4.727,0.192,9.645-2.218,15.043-1.543
			c6.848-1.061,14.466-1.64,20.927-1.061C1049.557,1125.578,1054.475,1125.096,1059.393,1125.771z M1030.174,1127.41
			c-1.254-0.482-3.184,0.675-5.111,0.289c-2.314-0.387-4.822,0.386-7.136,0.771c-2.218-0.386-3.954,0.965-6.172,0.771
			c-1.446,0.192-3.856,0.192-5.786,0.579c-3.183,0.578-6.074,1.445-9.74,1.734c1.447,1.641,4.052,2.796,4.438,2.894
			c2.023,0.676,3.664,1.832,5.496,2.411c2.798,0.965,5.208,1.929,7.812,2.699c1.832,0.482,4.243,1.062,5.884,1.352
			c1.832-0.098,4.436,1.542,6.943,1.929c1.445,0.192,0.771,0.867,2.795,0.289c0.771-1.832,1.931-3.086,2.605-4.727
			c0.867-1.156,1.35-1.254,2.604-2.604c0.867-0.868,1.734-2.218,2.699-3.472c0.867-0.965,2.025-2.025,2.604-2.7
			c0-0.192,1.155-1.446,1.155-2.218c-1.35-0.289-2.893-0.289-3.76-0.387C1034.898,1126.639,1032.873,1127.024,1030.174,1127.41z"/>
		<path style="fill:#FF0050;" d="M978.582,1102.145c0,2.989-0.097,5.883,0.675,9.161c7.232,0.481,14.175,0.481,19.769-1.351
			c1.544-0.289,3.087-0.482,4.341-0.964c6.073-1.736,10.606-0.482,16.586-2.604c3.761-0.29,7.137-1.062,10.706-1.64
			c5.014-0.868,10.221-0.289,14.85-1.351c2.99,0,6.559-0.386,9.74-1.254c2.604,0.098,5.303-1.061,7.906-1.543
			c0.387,0.192,0.869,0.579,1.061,0.867c-0.385,2.895-4.627,1.254-6.459,2.123c-6.559,1.253-12.924,1.93-18.998,2.12
			c-3.664,0.097-7.521,1.062-11.283,1.543c-3.761,0.482-6.557,0.771-10.318,0.771c-1.062,0.579-2.506,0.771-3.857,0.481
			c-1.253,1.157-2.506,0.482-3.471,1.157c-3.184,0.482-6.559,1.351-10.029,1.832c-3.086,0-6.461,1.832-9.258,1.351
			c0,0-0.482,0.192-0.578,0.289c-2.797-0.097-6.172,0.289-10.029-1.156c-0.771,2.218-0.192,4.437-0.386,6.074
			c-0.578,6.075,1.254,11.669,0.29,17.358c0,0.481,0.578,1.156,0.191,1.639c-0.385,0.386-0.771,0.098-1.156,0
			c-1.061-1.446-0.771-3.761-0.771-5.398c-0.675-0.772,0.097-2.315-0.192-3.279c0.579-5.979-0.386-11.861-0.386-17.262
			c0-5.016-0.965-11.091-1.254-16.2c-0.387-0.868,0.387-1.446,0.867-1.832c0.098,0,0-0.193,0.098-0.098
			C978.195,1095.877,978.582,1098.962,978.582,1102.145z"/>
		<path style="fill:#FF0050;" d="M1062.961,1089.319c0.289,0.097,0.48,0.192,0.674,0.386c-0.867,2.218-3.471,0.965-5.496,1.543
			c-1.735,0.289-3.375,0-5.11,0.097c-4.726,0.098-9.449-0.097-13.982,0c-2.41,0-5.594,0.192-8.1-0.097
			c-1.642-0.192-3.666,0-5.306,0.097c-3.953,0.386-7.714,0-11.861,0.289c-0.192-0.192-0.385-0.192-0.578-0.192
			c-1.736,0.868-3.664,0.097-5.305,0.387c-3.953,0.191-7.715,0.578-11.571,0.578c-2.7-1.157-5.497,0.578-8.293-0.097
			c-0.386-0.098,0.577-1.156,0.868-1.156c4.241-2.895,9.159,1.156,13.886-0.193c5.594-1.543,11.862-0.965,17.357-1.254
			c5.497-0.289,10.704,0.192,16.298,0c1.543-0.192,3.086-0.192,4.725-0.192c0.387,0,0.869,0.096,1.254,0.096
			c4.244-0.096,8.486-0.096,12.246-0.674C1057.561,1089.705,1059.971,1089.224,1062.961,1089.319z"/>
		<path style="fill:#FF0050;" d="M1034.223,1063.765c6.076-0.771,11.478,2.22,17.068,3.473c2.314,1.255,5.016,1.446,7.715,3.184
			c0.869-0.29,0.965,0.385,1.254,0.771c0,0.097-0.096-0.481-0.096-0.481c-3.279,1.929-7.137,4.05-11.188,5.206
			c-2.121,0.965-4.726,1.255-6.847,1.929c-2.604,0.772-5.11,1.641-7.616,2.315c-5.209,0.481-8.584,1.351-13.599,1.832
			c-3.762-0.676-8.197-0.29-11.572-1.736c-2.12,0.772-4.725-0.191-6.75-0.674c-2.508,0.481-4.532-1.833-6.942-2.122
			c-2.604-1.156-5.883-0.965-7.715-3.183c0.097-0.097-1.062-0.771-0.386-1.543c0.191-0.193,0.289-0.385,0.481-0.578
			c1.64-1.157,2.796-2.797,4.82-3.664c4.437-2.508,9.451-4.918,15.045-4.727c2.988,0.579,5.882-1.929,8.871-0.387
			C1022.265,1063.379,1028.822,1062.705,1034.223,1063.765z M990.443,1071.576c-0.388,1.062-1.254,2.7,0.675,2.7
			c6.75,2.508,13.501,3.856,20.442,4.918c6.752,0.965,13.114,1.543,19.674-0.289c8.389-2.411,17.262-3.954,26.711-8.391
			c-5.496-1.061-8.582-2.699-11.957-3.278c-7.426-0.482-14.176-2.699-21.698-2.508
			C1012.14,1064.923,999.893,1066.271,990.443,1071.576z"/>
		<path style="fill:#FF0050;" d="M1066.143,1025.771c-7.616,3.375-14.176,7.812-20.83,12.246c-0.577,0.29-0.771,1.062-2.024,1.062
			c-3.084,3.086-6.941,3.375-9.738,6.171c-2.508,1.255-5.305,2.701-8.197,4.919c0.386,0.289,1.062,0.578,1.351,0.771
			c2.024,0.965,4.051,0.191,5.883,0.288c5.785,0.193,11.09-0.771,16.201-0.868c4.918,0,9.451-1.156,13.789-0.675
			c0.098,0.192,0.098,0.482,0.098,0.868c-0.289,2.218-2.797,0.675-3.857,1.062c-4.629,0.579-8.68,0.675-13.694,0.868
			c-6.17,0.386-12.246,0.096-18.418,0.771c-4.147,0.387-7.907,0-11.862,0.869c-6.557-0.771-13.211,2.604-19.768,1.253
			c-1.543,0-3.086,0.771-4.727,0.386c-0.675-0.48-3.761,0.098-2.218-1.35c5.014-0.771,10.222,0,15.332-0.676
			c7.715-0.289,15.912-0.771,21.603-5.688c0.965-0.29,1.735-0.965,2.409-1.447c2.41-1.445,5.017-2.507,7.041-4.629
			c2.023-0.675,3.855-1.832,5.496-2.988c2.894-2.894,6.75-3.954,9.933-6.173c0-0.386,0.289-0.288,0.481-0.386
			c0.867-0.386,1.543-1.157,2.604-1.929c0-0.386,2.797-0.964,2.701-1.253c-0.099-0.289-3.279-0.193-3.568-0.387
			c-4.436,0.965-9.934,1.351-15.045,1.832c-5.496,0.482-9.16,1.543-14.368,1.64c-1.832-0.386-4.436,1.446-6.268-0.096
			c-2.025,0-3.185-0.098-4.822,0.481c-1.446,0-2.894-0.192-4.629-0.192c-0.386-0.098-0.771,0.288-1.157,0.288
			c-1.64,1.062-2.507-1.445-3.761-0.288c-0.578,0.192-1.157,0.675-1.735-0.193c-3.087,0.868-5.497,0.387-8.101-1.062
			c-0.868,0.387-1.157-0.096-1.543-0.386c0-0.096,0-0.191,0-0.289c0.288-0.675,0.866,0.289,0.866,0.193c0,0,0.579,0.481,1.158-0.097
			c0.385-0.579,1.253,0.675,1.446,0.386c3.278,0.771,7.136,0.578,10.8,0.097c3.376,0.578,8.486-0.386,11.669,0.289
			c0.675-0.097,1.543-0.675,2.7-0.289c1.061-0.965,2.507-0.097,3.279-0.676c4.049-0.289,8.389-0.964,12.535-0.964
			c3.953-0.386,8.293-0.771,11.478-1.254c0.674,0.192,1.445-0.386,2.121,0.097c1.639-0.386,2.313-0.386,3.567-0.579
			c2.507-0.48,5.689-0.866,7.906-1.35c0.387,0,0.869-0.29,1.447-0.965c-0.482-0.867,0.578-0.481,0.676-0.481
			c0.867-0.386,2.312,0.387,3.76-0.097C1066.143,1025.192,1066.24,1025.48,1066.143,1025.771z"/>
		<path style="fill:#FF0050;" d="M1063.441,1007.257c-0.963,2.122-3.277,2.314-4.916,3.472c-2.22,1.157-4.629,2.314-7.138,2.604
			c-0.676,0.386-1.639,0.482-2.411,0.579c-6.462,1.157-12.729,3.761-19.479,3.953c-4.629,0.965-9.74,0.481-14.754,0.386
			c-4.146,0-9.451-1.156-13.599-2.989c-2.023-0.48-4.241-1.254-5.688-2.507c-2.121-0.579-3.76-2.122-5.593-3.278
			c-0.387-0.676-0.868-1.351-0.868-2.024c0-0.098-0.097-0.193-0.097-0.193c1.929,0.482,3.762,1.929,5.689,3.086
			c1.543,0.868,2.41,2.025,4.05,2.411c2.796,0.578,5.016,2.507,7.907,2.314c5.305,1.35,11.09,1.253,17.455,0.866
			c-0.965-2.218,0.674-3.085-0.097-4.436c0.097-0.578,0.191-0.964,0.386-1.351c0.289-0.289,0.482-0.578,0.868-0.289
			c0.192,0.192,0.289,0.289,0.481,0.481c-0.192,0.579,0.193,0.965,0.482,1.254c-0.289,1.254,0,2.507-0.193,4.05
			c4.728,0.482,7.908-0.866,11.767-1.061c1.639-0.771,4.146-0.964,6.172-1.543c1.832-0.578,4.049-0.578,5.785-1.64
			c1.447,0.192,3.086-0.289,4.244-1.735c2.506,0.097,4.436-1.736,7.328-2.314c0-0.771,0-0.481,0-0.481
			c0.481-0.192,1.446-1.253,2.604-0.868C1063.732,1006.485,1063.635,1006.871,1063.441,1007.257z"/>
		<path style="fill:#FF0050;" d="M999.99,979.292c1.061,0,2.604-0.097,3.76-0.192c2.797-1.735,7.137,0,10.416,0.387
			c2.023-1.157,5.398-0.482,7.521-0.677c3.086-0.771,7.135,0.193,10.703,0.193c6.271,0,13.502-0.193,19.771-0.482
			c0.963-0.096,1.928-0.675,2.797-0.288c0.096,0.097,0.191-0.097,0.289-0.097c-2.219,1.446-4.918,1.542-7.137,2.507
			c-3.183,2.797-6.849,4.243-10.222,6.364c-4.051,1.832-8.196,3.183-11.86,5.979c-1.159,0.578-2.22,1.254-3.375,1.832l-2.797,1.351
			l3.182,0.192c7.522,0.481,14.562-1.351,22.276-0.289c3.086,0,5.979-1.254,8.969-0.676c0.771-0.097,1.736,0,2.41,0
			c-0.096,0.193,0,0.579-0.096,0.676c-0.771,0-1.447,0.192-2.121,0.675c-0.771,0.387-1.736,0.387-2.604,0.579
			c-2.604,0.29-5.207-0.098-7.811,0.481c-7.041,0.192-13.888-0.675-20.735,0.098c-3.182-0.579-6.363,1.061-9.45,0.191
			c-2.023,0.482-4.628-0.578-6.171,0.578c-4.629-0.48-9.162-1.253-13.982-1.253c-1.062-0.386-2.7,0-3.184-1.157
			c-0.096-0.097,0.579-1.061,0.579-0.578c5.207-1.351,9.644,1.735,15.622,1.061c3.086-0.386,6.268,0,9.547-0.964
			c0.965-1.351,2.41-1.254,3.472-2.121c1.93-0.29,3.857-0.771,5.11-2.122c4.918-2.411,9.934-3.278,13.887-6.847
			c1.156-0.481,2.314-1.062,3.568-2.121c0-0.289,2.795-1.543,2.795-1.832c-0.096-0.193-2.988,0.48-2.988,0.096
			c-3.762,0-7.231-0.675-10.223,0.386c-5.398-1.35-10.993-1.445-16.78-0.191c-4.146-0.482-8.389-1.062-12.438-0.289
			c-3.375-1.447-7.136,1.543-10.223-1.157c-0.289-0.868-1.832-0.579-1.734-1.64C994.01,977.363,996.807,979.195,999.99,979.292z"/>
		<path style="fill:#FF0050;" d="M1018.697,914.876c6.461,2.314,13.309,1.639,19.48,4.242c6.363,2.7,13.308,3.856,19.865,5.979
			c0.193,0.192,0.482,0.481,0.674,0.771c-2.121,0.869-4.918-0.867-7.426-0.578c-7.617-0.578-14.754,1.929-22.758,2.989l-0.386,1.735
			c8.679,1.735,16.009,5.399,24.013,6.943c0.289,0.192,0.771,0.289,1.061,0.481c1.736,0.097,3.857-1.062,5.111-0.097
			c-0.096,0.675-0.771,0.964-1.447,1.157c-1.543-0.193-2.699,0.867-4.146,1.253c-8.582-0.386-16.2,1.446-24.879,2.025
			c-10.705,0.771-21.312,1.543-31.438,1.445c-5.305,0.771-9.354,0.966-13.501,0.482c-0.386-0.193-1.157,0-1.542-0.097
			c0.289-0.192,0.578-0.482,0.867-0.771c3.182-0.675,5.979-0.675,9.354-0.964c14.658-1.157,30.764,0.097,45.807-2.411
			c2.699-0.481,5.4-0.289,8.293-0.578c1.929-0.676,1.062-2.604-0.387-2.219c-6.268-3.086-13.887-3.567-20.154-5.882
			c-1.156-0.386-2.988-0.097-3.471-1.254c0.192-0.387,0.578-0.578,0.965-0.771c6.558-2.121,13.694-2.894,23.53-5.399
			c-6.076-2.219-9.645-2.604-12.44-4.243c-7.039,0-11.861-2.894-18.901-2.894c-5.4-2.024-11.765-1.156-17.164-3.472
			c-4.437-0.097-8.103-1.061-13.31-1.929c-0.096,0-0.385,0-0.481-0.098c0.098-0.191,0.192-0.386,0.29-0.675
			c0.771,0,1.253-0.386,1.64-0.578C996.71,910.343,1007.705,913.429,1018.697,914.876z"/>
		<path style="fill:#FF0050;" d="M1062.961,898.386c0.289,0.097,0.48,0.192,0.674,0.386c-0.867,2.219-3.471,0.965-5.496,1.543
			c-1.735,0.289-3.375,0-5.11,0.097c-4.726,0.097-9.449-0.097-13.982,0c-2.41,0-5.594,0.192-8.1-0.097
			c-1.642-0.192-3.666,0-5.306,0.097c-3.953,0.386-7.714,0-11.861,0.29c-0.192-0.193-0.385-0.193-0.578-0.193
			c-1.736,0.868-3.664,0.097-5.305,0.386c-3.953,0.193-7.715,0.579-11.571,0.579c-2.7-1.158-5.497,0.578-8.293-0.097
			c-0.386-0.097,0.577-1.157,0.868-1.157c4.241-2.893,9.159,1.157,13.886-0.192c5.594-1.544,11.862-0.965,17.357-1.253
			c5.497-0.29,10.704,0.191,16.298,0c1.543-0.193,3.086-0.193,4.725-0.193c0.387,0,0.869,0.097,1.254,0.097
			c4.244-0.097,8.486-0.097,12.246-0.675C1057.561,898.771,1059.971,898.289,1062.961,898.386z"/>
		<path style="fill:#FF0050;" d="M1063.441,867.238c-3.761,2.699-3.472,0.965-5.304,2.025c-1.35,0.674-2.604,0.289-3.856,0.771
			c-2.025,0.676-2.025,0.868-3.568,1.64c-0.867,0.578-1.543,1.062-2.506,1.447c-1.93,0.867,0,2.12-4.822,2.024
			c-0.481,0.096-2.508,3.277-3.182,1.929c-2.412,0.289-0.965,0.481-2.896,1.253c-0.096,0.193-0.192-0.289-0.385-0.289
			c-0.965,0.386-1.158-0.192-1.543,0.771c-0.192,0.387,0.289,0.868-0.771,0.289c-1.062,0.482-2.025,0.868-2.025,0.966
			c-0.289,0.289-0.867,0.191-0.867,0.191c-0.676,0-1.543,0.965-2.313,1.736c-1.736,0.48-2.894,2.604-3.857,4.437
			c3.183,0.675,5.4,0.191,7.617,0.964c0.869,0.192,1.735-0.964,2.701,0c1.35-0.386,2.121-0.192,3.086-0.289
			c1.639,0.676,2.41-0.097,4.436,0.192c2.798-0.771,2.699-0.867,5.689-0.867c4.049,0.771,6.074,0.097,10.125,0.481
			c0.771-0.386,2.412,0.097,3.184,0.578c1.64-0.578,4.437-0.481,4.627-0.386c0.289,0.097,0.771,0.578,1.158,0.771
			c0.096,0.192,0.096,0.289-0.098,0.385c-2.312,0.868-2.988,0.099-5.207,0.677c-1.543-0.289-3.761,0-5.4-0.289
			c-2.988,0.191-3.76-0.868-7.135-0.099c-7.619,0-11.188,0-17.84,0c-0.482-0.096-0.966,0.193-1.447,0.099
			c-0.771-0.193-1.736,0.578-2.508-0.193c-3.761,0.578-8.005-0.386-10.512,0.289c-0.771,0.386-1.734,0.386-2.507,0.482
			c-2.313-1.062-5.688,0.097-7.908-0.482c-1.155,0.289-2.698,0.771-4.049,0.579c-2.123,0.386-3.955,0.289-5.883,0.771
			c-1.157-0.386-2.7,0.289-3.762,0c-1.928,0.482-4.051-0.192-6.074,0c-0.098-0.192-0.193-0.386-0.289-0.675
			c1.734-3.279,4.338-4.533,6.942-7.426c4.243-3.086,11.476-4.822,16.876-1.832c0.964-0.675,1.061,0.481,1.639,0.481
			c1.93,1.156,2.797,2.12,4.822,2.508c1.639,0.867,2.218,1.832,4.242,2.988c1.543-1.639,3.086-2.313,4.051-3.761
			c1.735-1.64,3.953-2.411,5.785-4.243c4.438-1.929,0.771,0.676,6.076-1.735c5.303-1.542,3.276-1.64,5.399-2.41
			c1.64-0.578,3.471-0.965,4.146-1.447c0.577-0.48,1.061-0.578,1.639-1.06c3.953-2.411,0.482-1.833,5.305-2.7
			c0.867-0.193,4.918-1.157,5.304-1.446c0.676-0.481,0.481-0.29,2.123-0.965C1062.479,866.178,1064.213,866.854,1063.441,867.238z
			 M990.539,888.454c4.34,0.868,7.329,0.481,10.705-0.096c4.049-1.158,9.547-0.677,13.789-0.966c0.965-0.481,2.797,0,3.279-1.832
			c-1.736-0.289-2.509-1.351-3.474-1.833c-0.096,0-0.289-0.096-0.385,0c-2.7-1.35-5.306-2.603-8.294-3.183
			C1000.279,879.389,994.493,883.15,990.539,888.454z"/>
		<path style="fill:#FF0050;" d="M1031.234,842.456c3.76,0.289,7.616,1.157,11.668,1.639c4.918,0.579,10.028,1.157,14.657,3.473
			c2.41,2.41,5.4,3.665,7.328,6.847c0.289,1.736,1.543,1.447,0.965,3.568c0.097,0.288-0.192,0-0.192-0.387
			c-2.219,0.098-1.158-0.48-2.797-2.7c-2.509,0.771-4.338-0.386-6.172,0.387c-7.716-0.482-14.367,0-21.89,0.771
			c-1.834,0.867-4.146,0.867-6.27,0.578c-1.351-0.482-2.798,0.482-4.437,0.192c-5.014-0.288-10.607-0.288-15.525,0.386
			c-3.664-0.192-7.231,0-10.993,0.386c-1.445-0.289-3.085-0.771-5.11-0.191c-0.579,1.35-1.253,1.061-0.771,2.218
			c-0.192,0.191-0.387,0.48-0.676,0.675c-0.289-0.097-0.578,0-0.867-0.289c0.386-2.797,2.218-4.34,3.953-6.461
			c3.375-3.086,7.715-4.533,11.379-7.521c2.411-1.543,4.918-1.735,7.521-2.798c3.279-0.48,6.943-0.289,10.126-0.964
			C1025.834,842.938,1028.438,842.745,1031.234,842.456z M1015.998,844.866c-3.762-0.192-6.365,1.544-9.934,2.604
			c-0.192,0.192-1.062,1.062-1.543,1.352c-2.699,1.929-5.883,2.796-8.775,6.652c3.473-0.288,5.208,0.965,6.848,0.289
			c2.41,0.29,4.531-0.965,6.943-1.061c3.471,1.061,7.232,0.192,10.801,0.675c3.278,0.386,6.846-0.386,10.221-0.579
			c5.979-2.313,12.922-0.674,19.095-1.35c2.989,0,6.461-0.482,11.186,0.097c-1.832-3.856-5.108-4.533-7.328-5.786
			c-5.688-1.543-11.379-2.508-17.262-3.086c-1.156-0.191-2.604,0.29-3.664-0.386
			C1027.279,844.577,1020.916,842.745,1015.998,844.866z"/>
		<path style="fill:#FF0050;" d="M1033.549,787.393c3.566-0.289,6.268,1.157,9.547,1.93c0.674,0.579,1.351,0.579,1.351,0.481
			c0.192,0.098,1.446,0.386,2.508,0.966l0.289,0.096c1.444,0.771,1.543,0.675,2.604,0.771c1.736,1.157,3.953,1.352,5.4,2.41
			c2.893,2.123,7.137,4.147,9.738,7.233c1.834,2.313,3.666,3.566,5.305,5.883c0.098,0.578,0.482,1.157,0.098,1.831
			c-0.771,0-0.288,0.676-1.446-1.061l-0.193-0.387c-1.061,0.29-1.928,0.772-2.604,0.965c-1.642,0-4.146,0-5.884,0.192
			c-1.061-0.289-2.797,0.387-3.76,0c-4.822,0.289-11.09,0.481-16.396,0.097c-1.254,0.579-2.989,0.192-4.146,0.097
			c-5.014-0.288-9.547-1.831-14.08-1.351c-3.085-0.096-6.751,0.868-10.028-0.385c-2.313,0.289-5.979-0.29-7.812-0.193
			c-0.097,0-0.192,0.193-0.29,0.289c-4.725-0.578-10.8,0.193-15.332-0.289c-0.482-0.192-0.867-0.868-0.193-0.964
			c9.258-0.771,20.927-0.869,30.666-0.097c2.22-0.192,5.595,0.289,7.909-0.098c0.097,0.098,0.191,0.193,0.289,0.289
			c3.568,0,6.461,0.676,10.125,1.062c0.385-0.29,0.771-0.097,1.062,0.096c5.399,0.289,13.018-0.481,18.227-0.096
			c2.893-1.352,5.979,0.771,8.775-0.676c0.289-0.481,0.289,0.965,2.217-0.387c-0.578-0.191-1.156-1.156-0.867-1.156
			c-0.771-1.543-2.99-1.351-4.051-4.437c-0.578,0.578-0.385-0.289-0.867-0.289c0,0-0.481-0.289-0.676-0.387
			c-0.096-0.096-0.482-0.192-0.482-0.964c-0.963,0-1.155-0.289-1.444-0.097c-0.965-0.387-0.965-1.735-2.123-1.735
			c-0.48-0.193-1.156-0.386-1.445-0.771c-1.158-0.29-1.639-1.445-2.701-1.639c-1.543-1.062-3.856-0.868-5.108-1.736
			c-1.062,0-1.158-0.868-2.412-0.964c-3.375-1.832-7.812-1.832-11.379-2.604c-5.207,0-9.933-1.062-15.237,0
			c-1.734,0-3.278,0.676-4.821,0.965c-0.867,0.578-1.929,0.385-2.796,0.867c-7.137,2.219-14.369,5.11-20.541,10.028
			c-2.507,1.255-3.761,3.857-6.364,5.111c-0.578,0.386-0.191-0.481,0-0.771c1.93-2.604,4.532-5.4,7.232-7.426
			c2.604-1.929,6.075-3.376,8.969-5.11c2.604-1.157,5.399-1.93,7.618-2.894c2.797-0.192,3.375-1.929,6.269-1.64
			c0.577-0.097,1.061-0.482,2.12-0.386c0.482-0.387,0.869-0.193,1.544-0.482c0.868,0,1.832,0,2.894-0.29
			C1024.675,787.104,1029.498,786.525,1033.549,787.393z"/>
		<path style="fill:#FF0050;" d="M1012.718,753.354c2.7,0.481,4.918,0.964,7.812,0.577c5.016,2.122,10.801-0.867,15.525,2.604
			c2.605,0.579,5.883,0.675,8.295,1.929c4.049,1.351,8.293,1.929,11.765,4.726c1.446,1.929,2.508,3.664,3.567,5.688
			c-0.192,1.929-0.096,4.147-1.832,5.015c-3.664,1.446-7.521,2.122-11.09,3.954c-7.715,0.192-14.852,2.989-22.084,1.735
			c-3.471,0.771-6.846-0.096-10.316,0.482c-5.979-0.387-11.477-2.798-17.263-3.857c-1.253-1.061-6.172-1.929-2.218-3.472
			c2.604-0.482,4.243,1.446,6.557,2.024c1.352,0.289,2.604,1.832,4.147,1.832c5.882,1.062,10.993,2.121,17.358,1.352
			c5.496,1.35,11.475,0,16.971-1.158c5.207-0.386,9.934-1.832,14.754-3.182c2.313-1.062,1.447-2.989,2.508-5.498
			c-1.254-0.868-0.867-2.7-1.734-3.472c-1.543-1.735-4.629-2.604-6.559-3.761c-3.182-0.482-6.365,0-8.678-1.833
			c-2.605-0.482-5.594,0.193-7.619-1.833c-8.679-1.446-17.456-0.771-25.555-2.796c-4.726-0.482-8.68-0.675-12.536-3.085
			c0.192-0.579,1.157-0.29,1.543-0.482C1002.014,750.459,1006.835,753.835,1012.718,753.354z"/>
		<path style="fill:#FF0050;" d="M1053.703,730.788c-3.473,2.507-7.908,2.121-11.09,4.821c-1.254,0.386-2.604,1.061-3.664,1.735
			c-2.99-0.096-6.076,1.833-10.127,3.665c2.604,1.062,4.533,0.771,5.883,0.387c5.689,0,10.705-0.965,16.684-0.098
			c1.64,0,3.664-0.481,5.111,0.193c2.795,0.097,6.074-0.675,8.484,0.675c0.098,0.096,0.098,0.096,0.192,0.193
			c-2.024,0.579-4.629,0.386-6.651,0.29c-1.736-0.482-3.568,0.191-5.498,0.191c-3.76,0.098-7.715-1.253-11.09,0.386
			c-3.086,0.387-5.979-1.061-8.97,0c-2.698,0.868-5.399-0.481-7.905,0.772c-4.629-0.772-10.608,0.096-15.624-0.772
			c-5.689,0-11.476,0.387-17.068-0.577c-3.086-0.098-4.339-0.676-7.231-1.255c-0.097,0,0.481-0.675,0.481-0.867
			c3.086-1.832,4.146-2.411,7.426-3.664c4.531-1.832,9.354-1.447,13.888-2.701c6.362,0.097,12.632,0.964,17.261,7.04
			c8.485-5.111,17.55-5.689,25.748-10.125c3.664-1.157,7.039-2.99,10.705-4.146c0.578,0,1.543-0.386,2.217-0.192
			C1059.875,728.473,1056.789,729.823,1053.703,730.788z M999.412,737.152c-1.255,0.386-2.797-0.098-3.955,0.675
			c-1.543-0.193-2.989,0.675-4.242,1.157l-2.314,1.64c0.867,0.097,4.242,0.386,5.207,0.579c1.255,1.253,3.472,0.675,5.016,1.061
			c7.136-0.964,15.14,0.193,23.722-0.191c-1.253-1.543-2.506-1.93-3.182-2.604c-1.351-1.35-5.111-2.796-7.618-3.856
			C1007.705,736.188,1003.076,735.223,999.412,737.152z"/>
		<path style="fill:#FF0050;" d="M1070.578,707.933c1.254,1.062,0,0.964-0.191,1.351c-5.401,4.725-12.924,3.761-18.709,7.521
			c-4.146,1.543-8.582,2.121-12.633,3.085c-3.182,0.098-6.076,1.447-9.064,0.868c-0.965,0.771-2.411,0-3.471,0.386
			c-6.945,0-10.898-1.35-16.298-2.507c-1.832,0.193-3.761-0.386-5.208-1.64c-2.507,0.29-4.532-0.482-6.364-1.446
			c-4.436-1.639-8.872-3.375-12.054-6.461c0,0.097-0.578-0.193-0.289-0.386c0.771-0.482,1.639,0.386,2.41,0.771
			c4.533,0.387,7.426,3.665,11.476,4.629c1.832,0.965,3.857,0.965,5.594,1.64c7.426,1.929,12.344,3.567,20.154,3.665
			c0.099,0,0.289-0.676,0.289,0.096c6.654-0.385,12.345-1.929,18.42-2.604c6.173-1.929,12.343-4.146,18.515-6.075
			c1.641-1.061,3.567-1.93,5.688-2.7c0.58,0,1.642-1.062,1.931-0.675C1070.867,707.451,1071.543,707.451,1070.578,707.933z"/>
		<path style="fill:#FF0050;" d="M1058.525,677.557c-1.158,0.868-2.701,1.446-3.859,2.411c-4.725,1.351-9.836,2.604-14.945,2.604
			c-3.666,0.579-7.426,1.35-10.994,2.218c-1.928-0.193-4.146-0.579-6.364-0.097c-0.289,0.771-0.289,1.061-1.446,1.35
			c1.061,2.796,3.278,4.725,4.34,6.75c0.578,0.289,1.156,1.061,0.963,1.735c-0.385,1.157,0.193,1.157,0.869,1.833
			c0.867,0,1.64,0.096,2.41,0.481c2.025-0.675,3.568-0.675,5.207-0.096c1.832,1.061,3.375,0.29,5.4,0
			c3.856-0.579,7.521-1.447,11.477-1.639c3.084-0.098,6.172-0.098,9.449-0.098c0.289,0.098,0.58,0.193,0.482,0.482
			c0,0.289-0.386,0.579-0.677,0.675c-4.819,0.289-9.448,0.482-13.692,1.833c-3.183-0.097-5.785,0.868-8.775,0.579
			c-7.135-0.675-14.658,0-21.407,0.868c-2.989-0.675-5.305,0.579-8.196,0.386c-7.521-0.579-15.334-0.579-21.987-2.796
			c-0.964-0.29-0.481-1.062-0.964-1.736c0.096-0.289,0.578,0,0.771-0.096c2.314,0.481,4.339,1.543,6.654,1.447
			c0.096,0.096,0.096,0.096,0.19,0.191c3.955-0.191,7.619,1.062,11.092,0.868c2.603,1.446,5.496-0.386,8.293,0.096
			c3.566,0.579,6.558-0.675,10.027-1.156c0.482-0.387,1.158-0.772,1.832-1.543c-1.155-3.086-4.725-5.016-5.109-7.522
			c0.482,0-0.675-0.771-0.192-2.313c-2.989-0.869-5.399,0.288-7.618-0.772c-1.832-0.482-3.664,0.482-5.594-0.579
			c-2.603,1.254-4.917,0.097-7.425,0.29c-1.447-1.254-2.025,1.253-3.761,0.096c-1.641,0.482-3.857,0.771-5.208,0
			c0.097-0.386,0.097-0.675,0-1.061c1.446-0.868,3.473,0.289,4.918-0.868c2.122-0.193,3.665,0.964,5.786,0.578
			c6.172-1.157,13.019,0.193,19.287-0.193c4.339-0.192,9.063,0.482,13.21-0.964c6.559-1.061,13.403-1.928,19.575-3.182
			c1.543-0.964,3.375-2.025,5.306-1.929C1058.139,676.979,1058.428,677.171,1058.525,677.557z"/>
		<path style="fill:#FF0050;" d="M1156.813,1486.09c3.761,0.965,6.461,4.146,10.222,5.305c0.579,1.061,1.832,1.639,2.411,2.701
			c-0.868,0.289-1.832-0.58-2.604-0.965c-0.676-0.676-1.352-1.061-2.314-1.158c-2.123-1.543-5.016-2.217-7.231-3.953
			c-1.642-0.578-4.051-0.771-5.883-1.639c-3.279-0.193-6.56-0.193-9.74,0.385c-3.086,0.58-6.076,1.832-8.486,3.955
			c-3.182,1.543-6.846,2.699-10.318,3.471c-5.399,2.701-12.246,2.412-17.841,0.193c-3.277,0-5.109-2.795-8.1-3.182
			c-0.868-0.676-1.641-1.35-2.7-1.736c-0.579-0.482-0.29-1.252-0.771-1.93c0-0.191-0.386,0.098-0.191,0.193
			c1.351,0.096,2.796,0.676,3.953,1.254c5.111,3.953,11.957,4.146,18.129,5.496c4.34-0.193,7.908-2.217,12.056-3.182
			c2.604-1.641,5.881-2.219,8.486-3.857c1.928-0.193,3.471-2.41,5.496-1.928c4.34-1.543,9.449-1.543,13.598,0
			C1155.56,1485.801,1156.138,1485.994,1156.813,1486.09z"/>
		<path style="fill:#FF0050;" d="M1169.155,1465.744c-0.963,2.121-3.277,2.314-4.916,3.473c-2.22,1.156-4.629,2.312-7.138,2.604
			c-0.676,0.385-1.639,0.482-2.411,0.578c-6.462,1.158-12.729,3.762-19.479,3.955c-4.629,0.963-9.74,0.48-14.754,0.385
			c-4.146,0-9.451-1.156-13.599-2.988c-2.023-0.482-4.241-1.254-5.688-2.508c-2.121-0.578-3.76-2.121-5.593-3.277
			c-0.387-0.676-0.868-1.35-0.868-2.025c0-0.096-0.097-0.193-0.097-0.193c1.929,0.482,3.762,1.93,5.689,3.086
			c1.543,0.869,2.41,2.025,4.05,2.412c2.796,0.578,5.016,2.506,7.907,2.314c5.305,1.35,11.09,1.252,17.455,0.867
			c-0.965-2.219,0.674-3.084-0.097-4.436c0.097-0.58,0.191-0.965,0.386-1.352c0.289-0.289,0.482-0.578,0.868-0.289
			c0.192,0.193,0.289,0.289,0.481,0.482c-0.192,0.578,0.193,0.963,0.482,1.252c-0.289,1.256,0,2.508-0.193,4.051
			c4.728,0.482,7.908-0.867,11.767-1.061c1.639-0.771,4.146-0.965,6.172-1.543c1.832-0.578,4.049-0.578,5.785-1.639
			c1.447,0.191,3.086-0.289,4.244-1.736c2.506,0.096,4.436-1.736,7.328-2.314c0-0.771,0-0.482,0-0.482
			c0.481-0.193,1.446-1.252,2.604-0.867C1169.446,1464.973,1169.349,1465.357,1169.155,1465.744z"/>
		<path style="fill:#FF0050;" d="M1168.675,1452.822c0.289,0.098,0.48,0.193,0.674,0.385c-0.867,2.219-3.471,0.965-5.496,1.543
			c-1.735,0.289-3.375,0-5.11,0.098c-4.726,0.096-9.449-0.098-13.982,0c-2.41,0-5.594,0.191-8.1-0.098
			c-1.642-0.193-3.666,0-5.306,0.098c-3.953,0.385-7.714,0-11.861,0.289c-0.192-0.193-0.385-0.193-0.578-0.193
			c-1.736,0.869-3.664,0.098-5.305,0.387c-3.953,0.193-7.715,0.578-11.571,0.578c-2.7-1.156-5.497,0.58-8.293-0.096
			c-0.386-0.096,0.577-1.156,0.868-1.156c4.241-2.893,9.159,1.156,13.886-0.193c5.594-1.543,11.862-0.965,17.357-1.254
			c5.497-0.289,10.704,0.193,16.298,0c1.543-0.191,3.086-0.191,4.725-0.191c0.387,0,0.869,0.096,1.254,0.096
			c4.244-0.096,8.486-0.096,12.246-0.674C1163.274,1453.207,1165.685,1452.727,1168.675,1452.822z"/>
		<path style="fill:#FF0050;" d="M1105.704,1425.438c1.061,0,2.604-0.098,3.76-0.193c2.797-1.734,7.137,0,10.416,0.387
			c2.023-1.158,5.398-0.482,7.521-0.676c3.086-0.771,7.135,0.193,10.703,0.193c6.271,0,13.502-0.193,19.771-0.482
			c0.963-0.098,1.928-0.676,2.797-0.289c0.096,0.096,0.191-0.098,0.289-0.098c-2.219,1.447-4.918,1.543-7.137,2.508
			c-3.183,2.797-6.849,4.242-10.222,6.365c-4.051,1.832-8.196,3.182-11.86,5.979c-1.159,0.578-2.22,1.254-3.375,1.832l-2.797,1.352
			l3.182,0.191c7.522,0.482,14.562-1.35,22.276-0.289c3.086,0,5.979-1.252,8.969-0.674c0.771-0.098,1.736,0,2.41,0
			c-0.096,0.191,0,0.578-0.096,0.674c-0.771,0-1.447,0.193-2.121,0.676c-0.771,0.385-1.736,0.385-2.604,0.578
			c-2.604,0.289-5.207-0.096-7.811,0.48c-7.041,0.193-13.888-0.674-20.735,0.098c-3.182-0.578-6.363,1.061-9.45,0.193
			c-2.023,0.482-4.628-0.58-6.171,0.578c-4.629-0.482-9.162-1.254-13.982-1.254c-1.062-0.385-2.7,0-3.184-1.158
			c-0.096-0.096,0.579-1.059,0.579-0.578c5.207-1.35,9.644,1.736,15.622,1.062c3.086-0.387,6.268,0,9.547-0.965
			c0.965-1.352,2.41-1.252,3.472-2.121c1.93-0.289,3.857-0.771,5.11-2.123c4.918-2.41,9.934-3.277,13.887-6.846
			c1.156-0.482,2.314-1.061,3.568-2.121c0-0.289,2.795-1.543,2.795-1.832c-0.096-0.193-2.988,0.48-2.988,0.096
			c-3.762,0-7.231-0.676-10.223,0.385c-5.398-1.35-10.993-1.445-16.78-0.191c-4.146-0.482-8.389-1.062-12.438-0.289
			c-3.375-1.447-7.136,1.541-10.223-1.158c-0.289-0.867-1.832-0.578-1.734-1.639
			C1099.724,1423.508,1102.521,1425.34,1105.704,1425.438z"/>
		<path style="fill:#FF0050;" d="M1152.569,1376.449c-0.191-0.098,0.868-0.291,1.254-0.193c0.289,0,0.676,0,0.771,0
			c0.578,0.193,1.351,0.482,1.931,0.387c1.35,0.578,2.698,0.289,3.854,0.867c2.313,1.061,5.4,2.025,7.908,4.146
			c1.543,1.641,3.567,2.314,5.11,3.76c0.289,0.869,0.674,1.256,0.482,2.025c-1.543,0.098-2.314-2.121-3.762-2.699
			c-1.062-0.965-2.604-1.254-3.471-2.508c-0.193-0.096-0.58-0.482-0.771-0.578c-0.193-0.098-0.289-0.289-0.289-0.289
			c-0.098,0-0.482-0.193-0.482-0.291c-0.866-0.867-1.155-0.963-1.155-0.578c-0.677-0.191-1.158-0.674-1.834-0.578
			c-0.289-0.096-0.578-0.289-0.771-0.578c-1.155,0.191-1.444-0.387-2.024-0.482c-1.062-0.578-2.699,0-3.855-0.385
			c-0.58,0.096-1.062-0.482-1.736-0.387c-2.313-0.676-3.278-0.098-5.786,0.098c-3.183,1.156-3.277,0.867-5.304,1.639
			c-1.543,0.578-2.41,0.771-3.856,1.447c-1.447,0.674-2.025,1.445-3.474,2.121c-1.35,0.578-2.217,0.385-3.471,0.867
			c-1.448,0.578-2.314,1.254-3.665,1.834c-1.35,0.674-2.411,0.963-3.954,1.639c-1.445,0.867-2.218,1.736-3.953,2.219
			c-0.481,0-1.156,0.096-1.64,0.096c-0.481-0.096-1.061,0.096-1.351,0.096c-0.289,0.098-0.771-0.096-1.062-0.191
			c-1.734,0.578-2.7-0.58-4.532-0.387c-1.735-0.482-3.472-0.674-5.496-1.35c-1.93-1.061-4.437-1.543-6.559-2.99
			c-2.217-1.158-4.436-2.893-6.074-5.016c-0.192-0.289-0.965-1.061-0.289-0.963c1.734,0.771,3.277,2.508,5.11,3.184
			c4.917,3.086,10.028,4.918,15.14,5.398c0.579,0.291,1.255,0,1.93,0.291c0.964,0,2.313,0.289,3.376,0.096
			c3.471,0.387,2.698-1.156,4.146-1.734c1.543-0.58,2.508-0.482,3.857-1.158c0.964-0.578,1.445-1.254,2.603-1.736
			c0.964-0.578,1.641-1.061,2.895-1.252c2.893-0.291,2.988-0.867,4.436-2.123c0.677-0.385,1.062-0.865,1.832-1.156
			c0.677-0.578,1.255-0.289,2.121-0.578c1.158-0.289,1.736-0.676,2.896-1.062c1.061-0.385,2.217-0.867,2.795-0.867
			c2.025-0.867,3.184-0.289,5.111-0.482C1152.087,1376.062,1152.667,1376.449,1152.569,1376.449z"/>
		<path style="fill:#FF0050;" d="M1128.366,1361.6c1.832,1.445,3.953,2.795,5.592,4.916c7.232-0.578,13.887,0.869,20.252,0.676
			c2.795-0.096,4.725-1.832,7.328-1.639c0.096,0.771,0.676,1.543,1.639,1.832c0.193,0.193,0.193-0.578-0.096-0.482
			c-0.096,0.098-0.676,0.193-0.771,0.193c-3.473,2.314-8.68,0.676-12.922,1.254c-1.543,0.385-3.762,1.061-5.014,0
			c-5.787-1.061-12.73,0.48-18.42-0.771c-4.146-0.193-8.582,0.963-12.535,0.096c-5.979-0.482-11.959,0.193-18.033-0.676
			c-2.025,0.771-3.664,0-5.787-0.096c-0.578-0.387-1.733,0-2.022-0.676c0.385-0.482,0.19-1.252,0.771-1.639
			c2.219-1.832,5.208-2.314,7.426-3.664c2.219-0.387,4.146-0.869,6.075-1.93c0.192-0.289,0.386-0.58,0.578-0.676
			c2.508-0.191,5.015-1.928,7.715-0.867C1116.311,1358.125,1123.061,1358.416,1128.366,1361.6z M1103.485,1359.572
			c-2.025,1.447-4.63,2.025-6.75,2.605c-0.771,1.254-3.086,0.867-4.243,2.023c1.157,1.834,2.796,0.965,3.954,1.158
			c5.883,1.158,11.957,0.289,18.032,0.676c2.41,0.963,4.531-0.098,6.943,0.096c2.699,0.193,5.4-1.061,7.907,0.193l0.868-1.062
			c-1.158-1.734-2.798-2.988-4.919-3.568c-1.832,0-3.567-0.963-5.399-1.736c-3.279-0.865-6.56-0.674-10.029-0.865
			C1107.728,1358.994,1105.993,1360.248,1103.485,1359.572z"/>
		<path style="fill:#FF0050;" d="M1174.171,1346.17c-0.289,0.096-1.061,0.676-1.736,0.867c-1.832,0.098-4.436,0.289-6.268,0.578
			c-1.061-0.385-3.086,0.387-4.146,0.098c-5.11,0.48-10.223,0.771-16.008,0.674c-1.061,0.676-2.99,0.193-4.146,0.193
			c-5.4-0.193-10.318-1.543-15.043-0.867c-3.376,0-7.233,1.254-10.802,0c-2.508,0.385-6.172-0.098-8.196,0.096
			c-0.098,0.096-0.289,0.193-0.386,0.291c-5.016-0.482-10.607,0.578-15.43,0.191c-0.387-0.098-0.869-0.771-0.193-0.867
			c9.934-1.254,21.216-0.771,31.728-1.254c2.313-0.096,5.786,0.096,8.293-0.387c0.096,0.098,0.193,0.193,0.289,0.291
			c3.762,0,7.231,0.482,10.801,0.771c0.289-0.193,0.965-0.098,1.156,0c5.787,0.191,12.537-0.869,18.033-0.676
			c3.184-1.541,6.559,0.676,9.45-1.156c0.388-0.58,1.255-0.289,1.734-0.771C1174.46,1345.014,1174.364,1345.783,1174.171,1346.17z"
			/>
		<path style="fill:#FF0050;" d="M1103.003,1329.006c1.447,0.191,2.412,1.639,4.051,1.639c3.086,1.543,5.979,2.314,9.74,2.508
			c0.578,0.289,1.543,0.385,2.217,0.578c2.122,0.193,4.051,1.158,6.076,1.158c1.254,0.385,2.989-0.289,4.146,1.254
			c1.543-0.387,2.699-0.771,3.664-1.254c0.386-0.771,1.447-1.736,1.351-2.797c0.676-1.061,0.098-1.93,0.578-3.279
			c0.579-1.832,0.579-2.893,1.545-4.82c0.479-0.387,0.963-0.771,1.543-0.676c0.385,0.965,0,2.121,0,3.279
			c-1.254,2.508-1.062,3.855-1.931,7.135c0.771,0.482,0.482,0.869,0.771,1.061c2.41,0.387,5.014,0.098,7.039-0.385
			c1.254,0.191,2.313-0.291,4.244-0.291c0.385-1.154,1.254-0.289,1.832-0.578c3.471-0.289,6.557-2.217,10.125-2.41
			c1.543-1.352,4.146-1.158,5.688-2.314c1.832,0.193,2.797-2.219,5.111-1.639c1.157-0.869,2.217-1.93,3.664-1.93
			c0.387,0.289,0.771,0.578,1.157,0.963c-0.192,1.447-1.834,1.543-2.895,2.314c-1.639,0.193-3.182,0.58-4.338,1.641
			c-2.123-0.096-3.377,1.734-5.4,1.639c-0.771,0.482-1.543,0.58-2.123,0.965c-0.771-0.098-1.445,0.191-2.025,0.48
			c-4.436,0-7.905,2.895-12.342,2.605c-0.578,0.385-1.641,0.385-2.219,0.48c-4.725,1.641-10.221,1.352-15.043,1.254
			c-2.218-0.578-4.918,0-6.847-0.965c-5.979-1.061-11.766-3.471-17.454-5.014c-2.7-1.061-5.208-2.701-7.715-4.051
			c-2.797-1.543-6.076-2.604-8.102-5.4c0-0.191,0-0.48,0.192-0.578C1093.649,1324.375,1098.181,1326.883,1103.003,1329.006z"/>
		<path style="fill:#FF0050;" d="M1170.796,1298.631c1.254,0.48,2.121-0.195,3.086,0c-0.289,0.674-0.771,1.252-0.771,2.023
			c-0.388,1.061-1.736,1.254-2.509,2.025c-0.771,0.191-0.866,1.252-1.735,1.832c-2.023,1.254-3.857,2.604-5.881,4.049
			c-3.955,0.965-7.521,3.666-12.152,4.146c-3.566,1.641-8.195,1.543-12.15,1.641c-2.409,1.928-6.268,0.191-9.161,1.254
			c-1.445,0.191-2.313-0.387-3.471-0.387c-3.955,1.061-7.521-0.482-11.188-1.061c-2.604-1.158-5.4-1.447-7.906-2.797
			c-0.771-0.578-1.93-0.385-2.701-0.674c-3.086-2.025-6.654-3.279-9.45-5.498c-1.351-0.289-1.734-1.928-3.085-2.217
			c-0.481-0.676-1.447-1.254-0.869-2.701c-0.867-0.674-1.639-2.025,0-1.736c0.388-0.289,0.579-0.096,0.098,0.289
			c3.183,3.857,8.39,7.426,13.501,10.125c1.929,0,3.856,1.062,5.014,2.025c3.955,1.062,7.619,2.508,11.669,2.508
			c1.446,0,2.895,0.289,4.146-0.096c2.508,0.289,4.82,0.965,7.425,0.289c2.508-0.193,5.016-0.482,7.426-0.965
			c7.715-1.543,16.104-1.93,22.469-6.172c2.314-1.543,3.953-2.893,5.979-5.207c-0.289-0.482,1.254-0.385,0.965-1.061
			c-5.979,0.291-13.404,0.482-18.805,0.869c-2.41,1.061-5.207-0.193-7.812,0.191c-2.313,0.289-4.725-0.289-7.137-0.191
			c-1.156,0-2.218-0.193-3.277,0.191c-1.735-0.289-3.956,0.193-5.401-0.771c-0.676-0.578,0.867-0.482,1.062-0.869
			c1.543-0.578,3.086-0.77,4.821-0.096c1.352,0.191,2.701-0.676,3.955-0.676c3.567,0,6.653,0.965,9.063,0.676
			c0-0.289,1.156,0,2.121,0c0.676-0.193,1.35-0.193,1.735-0.098c2.121,0,3.472-0.385,5.4-0.096c3.471-0.867,7.812,0,10.607-0.771
			c0.867-0.193,0.771-0.098,1.639-0.193C1168.964,1298.436,1169.638,1297.953,1170.796,1298.631z"/>
		<path style="fill:#FF0050;" d="M1169.155,1279.537c-0.963,2.121-3.277,2.314-4.916,3.473c-2.22,1.156-4.629,2.312-7.138,2.604
			c-0.676,0.385-1.639,0.482-2.411,0.578c-6.462,1.156-12.729,3.762-19.479,3.953c-4.629,0.965-9.74,0.482-14.754,0.387
			c-4.146,0-9.451-1.158-13.599-2.99c-2.023-0.48-4.241-1.254-5.688-2.508c-2.121-0.578-3.76-2.121-5.593-3.277
			c-0.387-0.676-0.868-1.352-0.868-2.025c0-0.098-0.097-0.193-0.097-0.193c1.929,0.482,3.762,1.93,5.689,3.086
			c1.543,0.867,2.41,2.025,4.05,2.41c2.796,0.58,5.016,2.508,7.907,2.314c5.305,1.35,11.09,1.254,17.455,0.869
			c-0.965-2.219,0.674-3.086-0.097-4.438c0.097-0.578,0.191-0.963,0.386-1.35c0.289-0.289,0.482-0.578,0.868-0.289
			c0.192,0.191,0.289,0.289,0.481,0.48c-0.192,0.58,0.193,0.965,0.482,1.254c-0.289,1.254,0,2.508-0.193,4.051
			c4.728,0.48,7.908-0.867,11.767-1.062c1.639-0.77,4.146-0.965,6.172-1.543c1.832-0.578,4.049-0.578,5.785-1.637
			c1.447,0.191,3.086-0.291,4.244-1.738c2.506,0.096,4.436-1.736,7.328-2.312c0-0.771,0-0.482,0-0.482
			c0.481-0.193,1.446-1.254,2.604-0.869C1169.446,1278.766,1169.349,1279.15,1169.155,1279.537z"/>
		<path style="fill:#FF0050;" d="M1163.757,1256.684c-0.289,2.023,0.096,3.76,0.771,5.398c-0.099,0.482-0.482,0.965-0.771,1.062
			c-1.254,1.832,1.156,5.111-2.025,6.074c-1.061,0.289-2.219-0.193-3.086,0.58c-3.375,1.252-4.436,0.289-7.715,0.578
			c-2.893,0.191-6.365-1.254-9.162,0c-1.541,0-2.795-0.578-4.146-0.771c-3.664,1.35-7.812-0.674-11.668,0.289
			c-2.796,0.193-5.015-0.963-7.812,0.291c-0.578,0.096-1.061,0.096-1.543,0.289c-5.688,0-11.572-0.58-17.165,0.096
			c-2.797,0-5.497-0.096-8.004-1.447c-0.481-0.385,0.097-0.963,0.579-1.156c0.675,0,1.639-0.193,2.699,0.674
			c2.024-0.867,3.856,0.098,5.594-0.289c1.446,0.387,3.086,0.482,4.629,0.098c3.278-1.93,6.75,0.289,10.125,0.191
			c3.279-0.096,6.559-1.35,9.934-0.963c3.472,0.48,7.522,0.77,11.089,0.385c1.157-0.385,2.508,0.193,3.567-0.193
			c1.062,0.193,2.508,0.098,3.474,0.771c1.35-0.191,2.987-0.482,4.338-0.867c0.771,0.385,1.93,0.289,2.604,0.482
			c3.664,0.289,4.437,0.77,7.812-0.387c2.217,0.771,1.35-1.543,3.278-2.025c1.252-0.482,0.578-1.061,0.578-1.734
			c-0.289-1.543,1.254-2.701,0.578-4.051c-0.481-1.254-0.096-2.895-1.061-4.242c-0.096-0.387-0.096-0.869,0.385-0.869
			C1162.888,1254.658,1163.081,1255.912,1163.757,1256.684z"/>
		<path style="fill:#FF0050;" d="M1164.72,1234.311c1.736,2.025,2.896,4.051,4.629,6.461c0.289,2.314,1.931,2.314,1.543,4.147
			c-1.543,2.121-2.41,1.06-4.242,1.156c-5.979-0.771-13.02,0.481-18.805,0.868c-5.207-0.385-8.1,0.387-15.236,0.578
			c-1.832,0.772-4.436,0.291-6.461,0c-2.121,0.869-5.688,0.482-8.004-0.191c-7.715,0.964-14.078,0.191-21.602,0.578
			c-0.578-0.096-1.445,0.386-1.061-0.289c0-0.098,0.097-0.482,0.097-0.579c0.191-0.192,0.29-0.481,0.481-0.868
			c-0.097-0.675-0.191,0.29,0.289,0.29c0.868-1.062,1.253-2.989,2.7-2.989c0.771-1.061,1.543-1.64,2.41-1.929
			c1.735-1.64,2.701-3.086,5.016-3.086c3.953-3.183,8.968-2.796,13.5-2.796c4.533,1.543,8.293,3.954,12.151,8.968
			c1.639-1.833,1.543-4.339,2.604-4.821c0.677-1.639,1.931-2.99,3.474-4.629c3.084-2.121,5.785-2.507,9.063-3.76
			c3.76-2.604,7.812,1.253,11.57-0.193C1160.767,1231.611,1162.503,1233.637,1164.72,1234.311z M1107.825,1239.133
			c-2.121,2.797-4.051,1.254-5.786,5.11c-0.289,0.192-0.579,0.386-1.062,0.097c-3.664,1.639,0.29,1.832,1.832,1.928
			c3.184-1.061,4.727,0.193,7.907,0.098c3.279-1.061,7.04,0.385,10.512-0.579c1.062-0.289,1.832-0.097,2.798-0.097
			c2.12-0.481,3.566,0.482,7.811,0c-2.99-2.508-3.665-3.182-5.208-4.242c-2.219-0.965-4.243-2.508-6.269-3.666
			C1116.021,1236.818,1111.489,1237.589,1107.825,1239.133z M1139.358,1236.336c-2.604,2.508-3.567,4.244-6.075,9.45
			c2.7,0,4.051-0.867,5.209-0.481c4.819-2.025,9.258,0.867,14.271-0.386c3.182-1.157,6.557,0,9.836-1.157
			c1.158,0.578,4.629,0.578,5.498,0.192c0.096-0.192-0.869-1.158-0.58-2.411c-1.35-1.93-2.604-4.051-3.664-6.365
			c-2.12-0.191-3.375-0.578-4.821-1.445c-3.086-0.578-6.461-2.314-9.836-1.158
			C1145.819,1233.732,1142.54,1234.695,1139.358,1236.336z"/>
		<path style="fill:#FF0050;" d="M1168.675,1219.268c0.289,0.096,0.48,0.193,0.674,0.387c-0.867,2.217-3.471,0.964-5.496,1.541
			c-1.735,0.289-3.375,0-5.11,0.097c-4.726,0.097-9.449-0.097-13.982,0c-2.41,0-5.594,0.192-8.1-0.097
			c-1.642-0.192-3.666,0-5.306,0.097c-3.953,0.386-7.714,0-11.861,0.29c-0.192-0.193-0.385-0.193-0.578-0.193
			c-1.736,0.868-3.664,0.096-5.305,0.385c-3.953,0.193-7.715,0.58-11.571,0.58c-2.7-1.158-5.497,0.578-8.293-0.097
			c-0.386-0.096,0.577-1.157,0.868-1.157c4.241-2.893,9.159,1.157,13.886-0.193c5.594-1.543,11.862-0.963,17.357-1.252
			c5.497-0.291,10.704,0.191,16.298,0c1.543-0.193,3.086-0.193,4.725-0.193c0.387,0,0.869,0.096,1.254,0.096
			c4.244-0.096,8.486-0.096,12.246-0.674C1163.274,1219.654,1165.685,1219.171,1168.675,1219.268z"/>
		<path style="fill:#FF0050;" d="M1176.101,1200.561c0.096,0.096,0.096,0.385,0.191,0.674c-0.289,1.254,1.061,1.736,0.098,3.086
			c0,1.351,0.289,3.375-0.771,4.34c-0.677,0.096-1.062,0.771-1.736,0.964c-1.832,0.097-4.436,0.29-6.268,0.579
			c-1.062-0.385-3.086,0.386-4.146,0.097c-5.11,0.481-11.67,0.771-17.455,0.675c-1.061,0.676-2.989,0.192-4.146,0.192
			c-5.4-0.192-10.318-1.542-15.043-0.867c-3.376,0-7.233,1.253-10.801,0c-2.509,0.386-6.172-0.097-8.197,0.097
			c-0.098,0-0.193,0.192-0.387,0.289c-5.015-0.482-10.606,0.578-15.429,0.192c-0.481-0.192-0.965-0.964-0.192-1.06
			c9.933-1.254,21.215-0.772,31.727-1.254c2.314-0.098,5.882,0.096,8.389-0.387c0.099,0.096,0.193,0.193,0.291,0.289
			c3.761,0,7.136,0.482,10.703,0.771c0.385-0.192,0.771-0.192,1.156,0c5.787,0.193,13.984-0.867,19.48-0.674
			c3.182-1.543,6.557,0.674,9.354-1.062c0.482-0.675,1.832,0,2.219-1.832c-1.062-0.964-0.58-2.218-0.771-2.894
			c-0.388-1.543-0.482-3.953-0.58-5.207c0.192,0-0.385-1.639,0.481-1.543C1175.618,1197.088,1175.231,1199.402,1176.101,1200.561z"
			/>
		<path style="fill:#FF0050;" d="M1136.948,1173.463c3.76,0.289,7.616,1.157,11.668,1.639c4.918,0.58,10.028,1.158,14.657,3.473
			c2.41,2.41,5.4,3.664,7.328,6.847c0.289,1.735,1.543,1.447,0.965,3.567c0.097,0.289-0.192,0-0.192-0.385
			c-2.219,0.097-1.158-0.482-2.797-2.701c-2.509,0.771-4.338-0.385-6.172,0.387c-7.716-0.482-14.367,0-21.89,0.771
			c-1.834,0.867-4.146,0.867-6.27,0.578c-1.351-0.482-2.798,0.481-4.437,0.192c-5.014-0.289-10.607-0.289-15.525,0.386
			c-3.664-0.193-7.231,0-10.993,0.385c-1.445-0.289-3.085-0.771-5.11-0.191c-0.579,1.35-1.253,1.061-0.771,2.217
			c-0.192,0.193-0.387,0.482-0.676,0.676c-0.289-0.097-0.578,0-0.867-0.289c0.386-2.797,2.218-4.341,3.953-6.461
			c3.375-3.087,7.715-4.533,11.379-7.521c2.411-1.543,4.918-1.736,7.521-2.797c3.279-0.481,6.943-0.289,10.126-0.963
			C1131.548,1173.945,1134.151,1173.752,1136.948,1173.463z M1121.712,1175.874c-3.762-0.192-6.365,1.542-9.934,2.604
			c-0.192,0.191-1.062,1.06-1.543,1.35c-2.699,1.929-5.883,2.797-8.775,6.654c3.473-0.291,5.208,0.963,6.848,0.289
			c2.41,0.289,4.531-0.965,6.943-1.062c3.471,1.062,7.232,0.192,10.801,0.675c3.278,0.387,6.846-0.385,10.221-0.578
			c5.979-2.314,12.922-0.676,19.095-1.351c2.989,0,6.461-0.481,11.186,0.097c-1.832-3.857-5.108-4.533-7.328-5.785
			c-5.688-1.543-11.379-2.509-17.262-3.086c-1.156-0.193-2.604,0.289-3.664-0.387
			C1132.993,1175.584,1126.63,1173.752,1121.712,1175.874z"/>
		<path style="fill:#FF0050;" d="M1169.155,1117.051c-3.761,2.699-3.472,0.963-5.304,2.025c-1.35,0.674-2.604,0.289-3.856,0.771
			c-2.025,0.676-2.025,0.867-3.568,1.641c-0.867,0.578-1.543,1.06-2.506,1.445c-1.93,0.867,0,2.121-4.822,2.024
			c-0.481,0.097-2.508,3.278-3.182,1.929c-2.412,0.289-0.965,0.482-2.896,1.254c-0.096,0.193-0.192-0.289-0.385-0.289
			c-0.965,0.385-1.158-0.192-1.543,0.771c-0.192,0.386,0.289,0.867-0.771,0.289c-1.062,0.482-2.025,0.869-2.025,0.964
			c-0.289,0.289-0.867,0.192-0.867,0.192c-0.676,0-1.543,0.965-2.313,1.736c-1.736,0.481-2.894,2.604-3.857,4.436
			c3.183,0.675,5.4,0.193,7.617,0.964c0.869,0.192,1.735-0.964,2.701,0c1.35-0.386,2.121-0.192,3.086-0.29
			c1.639,0.675,2.41-0.096,4.436,0.193c2.798-0.771,2.699-0.869,5.689-0.869c4.049,0.772,6.074,0.097,10.125,0.482
			c0.771-0.386,2.412,0.096,3.184,0.578c1.64-0.578,4.437-0.482,4.627-0.386c0.289,0.097,0.771,0.579,1.158,0.772
			c0.096,0.191,0.096,0.289-0.098,0.385c-2.312,0.869-2.988,0.097-5.207,0.676c-1.543-0.289-3.761,0-5.4-0.289
			c-2.988,0.193-3.76-0.868-7.135-0.098c-7.619,0-11.188,0-17.84,0c-0.482-0.096-0.966,0.193-1.447,0.098
			c-0.771-0.193-1.736,0.578-2.508-0.193c-3.761,0.579-8.005-0.386-10.512,0.291c-0.771,0.385-1.734,0.385-2.507,0.48
			c-2.313-1.059-5.688,0.098-7.908-0.48c-1.155,0.288-2.698,0.77-4.049,0.578c-2.123,0.387-3.955,0.29-5.883,0.771
			c-1.157-0.385-2.7,0.289-3.762,0c-1.928,0.482-4.051-0.193-6.074,0c-0.098-0.193-0.193-0.385-0.289-0.676
			c1.734-3.279,4.338-4.531,6.942-7.424c4.243-3.087,11.476-4.822,16.876-1.832c0.964-0.676,1.061,0.481,1.639,0.481
			c1.93,1.157,2.797,2.122,4.822,2.507c1.639,0.868,2.218,1.833,4.242,2.988c1.543-1.639,3.086-2.312,4.051-3.76
			c1.735-1.64,3.953-2.41,5.785-4.244c4.438-1.928,0.771,0.676,6.076-1.734c5.303-1.543,3.276-1.641,5.399-2.411
			c1.64-0.579,3.471-0.964,4.146-1.446c0.577-0.481,1.061-0.578,1.639-1.061c3.953-2.411,0.482-1.832,5.305-2.7
			c0.867-0.192,4.918-1.157,5.304-1.446c0.676-0.481,0.481-0.289,2.123-0.963
			C1168.192,1115.988,1169.927,1116.665,1169.155,1117.051z M1096.253,1138.266c4.34,0.867,7.329,0.481,10.705-0.097
			c4.049-1.157,9.547-0.675,13.789-0.964c0.965-0.482,2.797,0,3.279-1.833c-1.736-0.289-2.509-1.351-3.474-1.832
			c-0.096,0-0.289-0.097-0.385,0c-2.7-1.351-5.306-2.604-8.294-3.183C1105.993,1129.2,1100.207,1132.961,1096.253,1138.266z"/>
		<path style="fill:#FF0050;" d="M1169.155,1098.342c-0.963,2.122-3.277,2.314-4.916,3.473c-2.22,1.158-4.629,2.313-7.138,2.604
			c-0.676,0.385-1.639,0.482-2.411,0.578c-6.462,1.156-12.729,3.761-19.479,3.954c-4.629,0.964-9.74,0.481-14.754,0.386
			c-4.146,0-9.451-1.158-13.599-2.988c-2.023-0.482-4.241-1.254-5.688-2.509c-2.121-0.579-3.76-2.122-5.593-3.278
			c-0.387-0.676-0.868-1.351-0.868-2.025c0-0.096-0.097-0.193-0.097-0.193c1.929,0.482,3.762,1.93,5.689,3.086
			c1.543,0.868,2.41,2.026,4.05,2.411c2.796,0.579,5.016,2.509,7.907,2.313c5.305,1.351,11.09,1.254,17.455,0.869
			c-0.965-2.219,0.674-3.086-0.097-4.437c0.097-0.578,0.191-0.964,0.386-1.351c0.289-0.289,0.482-0.578,0.868-0.289
			c0.192,0.193,0.289,0.289,0.481,0.482c-0.192,0.579,0.193,0.965,0.482,1.254c-0.289,1.254,0,2.506-0.193,4.051
			c4.728,0.481,7.908-0.869,11.767-1.062c1.639-0.771,4.146-0.964,6.172-1.543c1.832-0.578,4.049-0.578,5.785-1.64
			c1.447,0.193,3.086-0.289,4.244-1.735c2.506,0.097,4.436-1.735,7.328-2.313c0-0.771,0-0.482,0-0.482
			c0.481-0.191,1.446-1.253,2.604-0.868C1169.446,1097.57,1169.349,1097.957,1169.155,1098.342z"/>
		<path style="fill:#FF0050;" d="M1092.01,1079.152c0.867,0.387,0.867,1.64,1.351,2.314c-0.771,3.086,2.024,1.35,1.156,5.014
			c0.676,1.062,1.641,0.771,3.278,1.158c0-0.676,0.192-0.58,0.192-0.482c5.4-0.098,15.525,1.736,20.927,0
			c2.508,0.289,5.399-0.772,8.485,0.482c0.482-3.568,0.966-2.123,0.676-4.533c0.386-0.674,0.386-1.639,1.254-1.735
			c-0.098,0.192-0.098,0.289,0,0.386c0.096,0.965,0-0.386,0.386,0.096c0.674,2.895-0.29,1.93-0.192,5.787
			c9.547,0,19.094-1.641,27.676,0.096c3.086,0,5.688-1.351,8.68-1.254c1.832,0.965,4.049-0.963,6.076,0.291
			c0.096,0.385,0.385,0.771-0.098,0.963c-4.822,0.578-9.836,0.771-14.369,1.64c-4.34-1.735-9.354-0.097-13.982-0.579
			c-2.699,1.157-7.617-0.964-10.125,0.965c-0.867,0.096-1.736-0.387-2.508-0.482c-2.989-0.578-6.364-0.385-9.547-0.482
			c-4.437,1.832-14.367,0.579-19.286,0.579c-3.183,0.579-6.269-0.289-9.064-1.157c-0.771-1.158-1.062-2.797-1.157-4.438
			c-0.192-2.604-0.288-0.481-0.676-2.604c-0.096,0.193-0.385-0.386-0.289-0.482c0.193-0.385-0.578-1.35-0.289-1.639
			C1091.141,1079.25,1091.335,1078.671,1092.01,1079.152z"/>
		<path style="fill:#FF0050;" d="M1163.757,1057.746c-0.289,2.025,0.096,3.761,0.771,5.4c-0.099,0.481-0.482,0.963-0.771,1.061
			c-1.254,1.832,1.156,5.111-2.025,6.074c-1.061,0.289-2.219-0.192-3.086,0.58c-3.375,1.252-4.436,0.289-7.715,0.578
			c-2.893,0.193-6.365-1.254-9.162,0c-1.541,0-2.795-0.578-4.146-0.771c-3.664,1.35-7.812-0.674-11.668,0.29
			c-2.796,0.192-5.015-0.964-7.812,0.289c-0.578,0.097-1.061,0.097-1.543,0.289c-5.688,0-11.572-0.578-17.165,0.097
			c-2.797,0-5.497-0.097-8.004-1.447c-0.481-0.386,0.097-0.963,0.579-1.156c0.675,0,1.639-0.193,2.699,0.675
			c2.024-0.868,3.856,0.096,5.594-0.289c1.446,0.385,3.086,0.481,4.629,0.097c3.278-1.93,6.75,0.288,10.125,0.192
			c3.279-0.097,6.559-1.351,9.934-0.966c3.472,0.482,7.522,0.773,11.089,0.387c1.157-0.387,2.508,0.193,3.567-0.191
			c1.062,0.191,2.508,0.096,3.474,0.771c1.35-0.192,2.987-0.481,4.338-0.868c0.771,0.387,1.93,0.289,2.604,0.482
			c3.664,0.289,4.437,0.771,7.812-0.387c2.217,0.771,1.35-1.543,3.278-2.025c1.252-0.481,0.578-1.061,0.578-1.734
			c-0.289-1.543,1.254-2.701,0.578-4.051c-0.481-1.253-0.096-2.893-1.061-4.243c-0.096-0.386-0.096-0.868,0.385-0.868
			C1162.888,1055.721,1163.081,1056.975,1163.757,1057.746z"/>
		<path style="fill:#FF0050;" d="M1103.003,1040.678c1.447,0.192,2.412,1.639,4.051,1.639c3.086,1.543,5.979,2.315,9.74,2.508
			c0.578,0.289,1.543,0.386,2.217,0.578c2.122,0.193,4.051,1.158,6.076,1.158c1.254,0.385,2.989-0.289,4.146,1.254
			c1.543-0.387,2.699-0.771,3.664-1.254c0.386-0.771,1.447-1.736,1.351-2.797c0.676-1.06,0.098-1.928,0.578-3.279
			c0.579-1.832,0.579-2.893,1.545-4.82c0.479-0.387,0.963-0.771,1.543-0.676c0.385,0.965,0,2.121,0,3.279
			c-1.254,2.508-1.062,3.856-1.931,7.135c0.771,0.482,0.482,0.869,0.771,1.062c2.41,0.386,5.014,0.097,7.039-0.385
			c1.254,0.192,2.313-0.29,4.244-0.29c0.385-1.157,1.254-0.29,1.832-0.579c3.471-0.289,6.557-2.218,10.125-2.409
			c1.543-1.352,4.146-1.158,5.688-2.316c1.832,0.193,2.797-2.217,5.111-1.639c1.157-0.867,2.217-1.929,3.664-1.929
			c0.387,0.289,0.771,0.579,1.157,0.964c-0.192,1.447-1.834,1.543-2.895,2.314c-1.639,0.193-3.182,0.578-4.338,1.64
			c-2.123-0.097-3.377,1.735-5.4,1.64c-0.771,0.481-1.543,0.578-2.123,0.963c-0.771-0.097-1.445,0.193-2.025,0.482
			c-4.436,0-7.905,2.893-12.342,2.604c-0.578,0.386-1.641,0.386-2.219,0.482c-4.725,1.639-10.221,1.35-15.043,1.254
			c-2.218-0.58-4.918,0-6.847-0.966c-5.979-1.062-11.766-3.472-17.454-5.015c-2.7-1.059-5.208-2.699-7.715-4.049
			c-2.797-1.543-6.076-2.604-8.102-5.4c0-0.191,0-0.482,0.192-0.578C1093.649,1036.049,1098.181,1038.557,1103.003,1040.678z"/>
		<path style="fill:#FF0050;" d="M1092.782,1009.434c2.604,0.194,4.725,1.736,7.328,2.219c2.989,2.699,7.039,2.988,10.125,5.4
			c2.411,0.867,5.016,1.832,7.426,2.893c0.965,0.578,1.447,0.964,2.701,2.121c3.373-3.086,7.714-2.699,10.896-4.146
			c3.086-0.868,5.979-1.929,9.064-3.086c2.987-1.157,6.172-1.735,9.45-2.508c1.252-1.062,3.084-1.062,4.627-1.64
			c2.123,0.098,2.99-3.277,4.63-1.735c0.098,0,1.446,0.676,0.579,0.964c-3.567,3.279-8.969,2.219-12.635,4.822
			c-3.373,0.771-6.651,1.061-9.354,2.988c-1.832,0.289-3.566,0.965-5.109,1.832c-2.026,0.482-3.956,0.098-5.498,1.062
			c-1.157,0.097-1.929,0.964-3.183,1.351c-0.192,0.481-1.736,1.445-1.543,1.639c0.192,0.289,2.024-0.193,2.313,0.193
			c4.437,0.578,7.522-0.193,11.284,0.674c2.604-0.192,5.979,0,8.582,0.482c0.289-0.193,1.156,0,1.639-0.193
			c2.894-0.289,5.689-1.832,8.486-0.674c1.736-0.289,3.857-0.964,5.594-0.289c0.096,0.289,0.096,0.674,0,1.061
			c-0.771,0.964-2.121,0.676-3.184,0.867c-4.531,0.291-9.16,0.482-13.5,1.352c-2.121-0.098-3.664,0.096-5.592-0.675
			c-4.533-1.253-9.258-1.062-13.888-0.579c-3.567-0.191-7.618,0.386-11.477-0.191c-3.277-1.158-6.942-0.58-10.896-1.158
			c-1.061,0.963-2.313,0.385-3.182,0.289c-0.771-0.482-1.93-0.578-2.797-0.192c-2.894,1.446-4.533,0.481-6.558-0.386
			c0,0.386-1.641-0.193-1.735-0.387c-0.193-0.867,0.675-1.252,1.35-1.541c0.578-0.291,1.351,1.061,1.929,0.577
			c2.797,0.481,5.979,0.29,8.969,0c4.533,0.675,8.872,0.579,13.404,0.772c0.867,0.191,4.146,0.964,5.207-0.387
			c-1.543-0.771-3.953-1.929-4.437-3.086c-2.313-1.061-3.761-1.156-5.496-2.699c-1.832,0.289-2.604-1.062-4.051-1.062
			c-2.894-0.868-5.4-3.278-8.486-4.243c-1.735-0.096-3.182-1.156-4.629-2.025c-0.096-0.192-0.867-0.385-0.867-0.578
			c-0.289-0.289,0.193-0.867,0.193-1.061C1091.335,1007.794,1091.721,1009.627,1092.782,1009.434z"/>
		<path style="fill:#FF0050;" d="M1086.417,981.564c0.193,1.641,0.868,2.797,1.158,4.533c-0.58,2.604-0.099,4.918,0.867,8.1
			c1.35-0.674,2.313-0.481,2.797-0.288c1.832-0.193,4.146,0.288,5.979,0.192c1.736-0.386,3.857-0.578,5.593-0.578
			c2.7-1.351,6.075-1.736,8.775-2.314c1.543,0.387,3.376,0,4.821,0.193c6.559,0,13.309-1.639,19.48-2.508
			c1.156,0.096,2.894-0.191,3.953,0.096c0.193-0.096,0.676-0.096,0.771-0.191c4.821-0.193,8.68-0.289,13.5-0.289
			c2.219,0,4.146,0.385,6.172,0.48h-0.096c-2.509,1.834-5.979,1.158-8.681,1.736c-3.953-0.963-8.1,1.061-12.344-0.578
			c-2.506,2.604-5.496,0.578-8.101,1.447c-2.41-0.291-5.304-0.193-7.33,1.061c-0.963-0.096-1.831,0.289-3.183-0.193
			c-2.312,1.35-5.207,0.676-7.617,0.676c-3.954-0.869-7.137,1.735-10.896,1.254c-2.7,1.35-5.786,1.156-8.872,1.156
			c-0.964-1.061-2.507-0.096-4.436-2.218c-0.676,4.243-0.289,6.75-0.482,9.354c0.482,2.024-0.289,4.242,0,6.461
			c-0.096,0.097-0.096,0.191-0.192,0.289c-0.771-0.098-0.964-0.965-1.254-1.543c0.579-1.929,0.482-3.856,0-5.785
			c-0.386-0.482,0-1.35,0.097-2.314c-1.061-1.445-0.192-3.568-0.965-4.918c0.482-1.543-0.192-3.182-0.096-4.725
			c-0.868-1.543,0.289-3.569-0.579-5.111c0-1.352-1.832-2.701-0.289-3.762c0.097-0.096,0.289-0.192,0.481-0.289
			C1085.839,981.083,1086.319,981.18,1086.417,981.564z"/>
		<path style="fill:#FF0050;" d="M1168.675,970.861c0.289,0.096,0.48,0.193,0.674,0.385c-0.867,2.218-3.471,0.964-5.496,1.543
			c-1.735,0.289-3.375,0-5.11,0.096c-4.726,0.098-9.449-0.096-13.982,0c-2.41,0-5.594,0.193-8.1-0.096
			c-1.642-0.193-3.666,0-5.306,0.096c-3.953,0.387-7.714,0-11.861,0.289c-0.192-0.191-0.385-0.191-0.578-0.191
			c-1.736,0.867-3.664,0.096-5.305,0.385c-3.953,0.193-7.715,0.578-11.571,0.578c-2.7-1.156-5.497,0.58-8.293-0.096
			c-0.386-0.096,0.577-1.158,0.868-1.158c4.241-2.893,9.159,1.158,13.886-0.191c5.594-1.543,11.862-0.964,17.357-1.254
			c5.497-0.289,10.704,0.193,16.298,0c1.543-0.191,3.086-0.191,4.725-0.191c0.387,0,0.869,0.096,1.254,0.096
			c4.244-0.096,8.486-0.096,12.246-0.676C1163.274,971.247,1165.685,970.764,1168.675,970.861z"/>
		<path style="fill:#FF0050;" d="M1169.155,951.865c-0.963,2.121-3.277,2.314-4.916,3.471c-2.22,1.158-4.629,2.314-7.138,2.605
			c-0.676,0.385-1.639,0.481-2.411,0.578c-6.462,1.156-12.729,3.76-19.479,3.953c-4.629,0.963-9.74,0.481-14.754,0.385
			c-4.146,0-9.451-1.156-13.599-2.988c-2.023-0.482-4.241-1.256-5.688-2.508c-2.121-0.58-3.76-2.123-5.593-3.278
			c-0.387-0.677-0.868-1.351-0.868-2.026c0-0.097-0.097-0.193-0.097-0.193c1.929,0.482,3.762,1.93,5.689,3.086
			c1.543,0.867,2.41,2.025,4.05,2.412c2.796,0.58,5.016,2.508,7.907,2.314c5.305,1.35,11.09,1.254,17.455,0.867
			c-0.965-2.219,0.674-3.085-0.097-4.436c0.097-0.578,0.191-0.965,0.386-1.352c0.289-0.289,0.482-0.578,0.868-0.289
			c0.192,0.193,0.289,0.289,0.481,0.482c-0.192,0.578,0.193,0.964,0.482,1.253c-0.289,1.254,0,2.507-0.193,4.05
			c4.728,0.482,7.908-0.867,11.767-1.061c1.639-0.771,4.146-0.965,6.172-1.543c1.832-0.578,4.049-0.578,5.785-1.639
			c1.447,0.192,3.086-0.289,4.244-1.736c2.506,0.096,4.436-1.736,7.328-2.315c0-0.771,0-0.481,0-0.481
			c0.481-0.192,1.446-1.252,2.604-0.869C1169.446,951.094,1169.349,951.479,1169.155,951.865z"/>
		<path style="fill:#FF0050;" d="M1159.417,930.361c-3.473,2.507-7.908,2.121-11.09,4.82c-1.254,0.387-2.604,1.062-3.664,1.736
			c-2.99-0.098-6.076,1.832-10.127,3.664c2.604,1.061,4.533,0.771,5.883,0.387c5.689,0,10.705-0.965,16.684-0.097
			c1.64,0,3.664-0.481,5.111,0.192c2.795,0.097,6.074-0.676,8.484,0.676c0.098,0.096,0.098,0.096,0.192,0.191
			c-2.024,0.58-4.629,0.387-6.651,0.291c-1.736-0.482-3.568,0.191-5.498,0.191c-3.76,0.098-7.715-1.253-11.09,0.387
			c-3.086,0.385-5.979-1.062-8.97,0c-2.698,0.866-5.399-0.482-7.905,0.77c-4.629-0.77-10.608,0.097-15.624-0.77
			c-5.689,0-11.476,0.385-17.068-0.578c-3.086-0.098-4.339-0.677-7.231-1.254c-0.097,0,0.481-0.675,0.481-0.869
			c3.086-1.832,4.146-2.41,7.426-3.664c4.531-1.832,9.354-1.447,13.888-2.701c6.362,0.098,12.632,0.965,17.261,7.041
			c8.485-5.111,17.55-5.689,25.748-10.125c3.664-1.157,7.039-2.989,10.705-4.146c0.578,0,1.543-0.386,2.217-0.193
			C1165.589,928.046,1162.503,929.396,1159.417,930.361z M1105.126,936.727c-1.255,0.385-2.797-0.098-3.955,0.676
			c-1.543-0.194-2.989,0.674-4.242,1.156l-2.314,1.639c0.867,0.098,4.242,0.387,5.207,0.58c1.255,1.252,3.472,0.674,5.016,1.061
			c7.136-0.964,15.14,0.191,23.722-0.193c-1.253-1.543-2.506-1.928-3.182-2.604c-1.351-1.35-5.111-2.796-7.618-3.857
			C1113.419,935.762,1108.79,934.797,1105.126,936.727z"/>
		<path style="fill:#FF0050;" d="M1084.296,906.445c0,2.988-0.097,5.882,0.675,9.16c7.232,0.482,14.175,0.482,19.769-1.35
			c1.544-0.289,3.087-0.482,4.341-0.965c6.073-1.734,10.606-0.482,16.586-2.604c3.761-0.289,7.137-1.062,10.706-1.64
			c5.014-0.868,10.221-0.29,14.85-1.351c2.99,0,6.559-0.387,9.74-1.254c2.604,0.098,5.303-1.061,7.906-1.543
			c0.387,0.193,0.869,0.58,1.061,0.869c-0.385,2.893-4.627,1.254-6.459,2.121c-6.559,1.254-12.924,1.93-18.998,2.123
			c-3.664,0.096-7.521,1.059-11.283,1.541c-3.761,0.482-6.557,0.771-10.318,0.771c-1.062,0.578-2.506,0.771-3.857,0.482
			c-1.253,1.156-2.506,0.481-3.471,1.156c-3.184,0.482-6.559,1.352-10.029,1.833c-3.086,0-6.461,1.832-9.258,1.351
			c0,0-0.482,0.193-0.578,0.289c-2.797-0.096-6.172,0.289-10.029-1.156c-0.771,2.217-0.192,4.436-0.386,6.074
			c-0.578,6.076,1.254,11.668,0.29,17.358c0,0.481,0.578,1.157,0.191,1.64c-0.385,0.385-0.771,0.096-1.156,0
			c-1.061-1.447-0.771-3.762-0.771-5.4c-0.675-0.771,0.097-2.314-0.192-3.277c0.579-5.98-0.386-11.863-0.386-17.263
			c0-5.015-0.965-11.091-1.254-16.201c-0.387-0.866,0.387-1.446,0.867-1.832c0.098,0,0-0.192,0.098-0.097
			C1083.909,900.178,1084.296,903.264,1084.296,906.445z"/>
		<path style="fill:#FF0050;" d="M1161.827,896.609c0,0.482-0.674,0.771-1.062,0.869c-1.446,0.963-3.471,0.096-5.014,0.867
			c-0.482,0-0.869-0.191-1.158-0.48c0-0.482,0.193-0.676,0.387-0.868c1.351-0.386,2.699-2.604,4.339-0.966
			C1160.573,895.936,1161.153,896.225,1161.827,896.609z"/>
	</g>
	<path style="fill:none;stroke:#17192D;stroke-width:3;" d="M2048,0"/>
	<path style="fill:none;stroke:#17192D;stroke-width:3;" d="M2048,1536"/>
	<path style="fill:none;stroke:#17192D;stroke-width:3;" d="M0,1536"/>
	<path style="fill:none;stroke:#17192D;stroke-width:3;" d="M0,0"/>
</g>
<g id="Layer_1">
</g>
</svg>
