<svg xmlns="http://www.w3.org/2000/svg" width="2048" height="1536" viewBox="0 0 2048 1536"><g><g fill="#17192D"><path d="M1457.995 808.77c-7.618 3.376-14.176 7.813-20.83 12.247-.577.29-.77 1.062-2.024 1.062-3.084 3.085-6.94 3.374-9.738 6.17-2.507 1.255-5.304 2.7-8.195 4.92.385.288 1.06.578 1.35.77 2.025.964 4.05.19 5.883.29 5.785.19 11.09-.772 16.2-.87 4.918 0 9.45-1.156 13.79-.675.096.193.096.482.096.868-.29 2.22-2.796.676-3.857 1.062-4.628.58-8.68.675-13.693.868-6.172.386-12.246.097-18.418.77-4.147.388-7.908 0-11.862.87-6.558-.772-13.21 2.604-19.77 1.253-1.542 0-3.085.77-4.726.386-.675-.48-3.76.097-2.218-1.35 5.016-.77 10.223 0 15.333-.676 7.715-.29 15.912-.77 21.603-5.69.964-.288 1.734-.963 2.41-1.445 2.41-1.444 5.015-2.506 7.038-4.628 2.025-.674 3.857-1.83 5.497-2.99 2.895-2.892 6.75-3.95 9.934-6.17 0-.386.288-.29.48-.386.867-.387 1.543-1.158 2.604-1.93 0-.387 2.797-.964 2.7-1.253-.098-.29-3.278-.193-3.568-.387-4.436.965-9.933 1.352-15.044 1.832-5.496.482-9.16 1.543-14.368 1.64-1.832-.386-4.436 1.446-6.268-.097-2.025 0-3.184-.095-4.82.483-1.448 0-2.895-.193-4.63-.193-.387-.096-.77.29-1.158.29-1.64 1.06-2.507-1.446-3.76-.29-.58.193-1.158.675-1.736-.192-3.086.867-5.497.387-8.1-1.062-.87.387-1.158-.096-1.544-.385v-.29c.29-.673.868.29.868.194 0 0 .578.48 1.157-.098.386-.58 1.253.675 1.445.387 3.28.77 7.137.578 10.8.097 3.376.578 8.487-.386 11.67.29.676-.1 1.542-.676 2.7-.29 1.06-.964 2.506-.097 3.278-.675 4.05-.29 8.39-.966 12.536-.966 3.953-.387 8.293-.772 11.475-1.254.676.192 1.447-.387 2.123.097 1.64-.385 2.313-.385 3.566-.578 2.508-.482 5.69-.868 7.908-1.352.386 0 .867-.29 1.445-.964-.48-.87.578-.482.675-.482.867-.387 2.313.386 3.762-.098-.002.293.095.583-.002.87zM1454.813 796.912c.29.096.482.19.676.386-.868 2.218-3.473.964-5.497 1.543-1.736.29-3.375 0-5.11.098-4.726.097-9.45-.097-13.983 0-2.41 0-5.594.192-8.1-.097-1.64-.19-3.666 0-5.305.098-3.954.386-7.715 0-11.86.29-.194-.193-.387-.193-.58-.193-1.734.868-3.664.097-5.304.386-3.952.193-7.714.58-11.57.58-2.7-1.157-5.497.578-8.294-.097-.386-.098.578-1.157.868-1.157 4.243-2.894 9.16 1.157 13.886-.192 5.594-1.544 11.862-.965 17.358-1.254 5.497-.29 10.704.192 16.298 0 1.542-.193 3.086-.193 4.725-.193.388 0 .87.098 1.255.098 4.242-.098 8.486-.098 12.246-.675 2.893.768 5.303.285 8.293.382zM1462.432 775.986c1.254 1.06 0 .964-.192 1.35-5.4 4.728-12.922 3.762-18.707 7.522-4.146 1.544-8.584 2.122-12.634 3.086-3.184.096-6.077 1.445-9.065.868-.964.77-2.41 0-3.473.386-6.942 0-10.896-1.35-16.297-2.508-1.832.192-3.76-.387-5.207-1.64-2.508.29-4.532-.48-6.364-1.447-4.437-1.64-8.87-3.375-12.055-6.46 0 .097-.58-.193-.29-.386.77-.48 1.64.385 2.41.77 4.533.387 7.427 3.666 11.477 4.63 1.832.965 3.856.965 5.594 1.64 7.427 1.93 12.345 3.568 20.155 3.664.097 0 .288-.674.288.098 6.654-.386 12.345-1.93 18.42-2.604 6.17-1.93 12.343-4.147 18.515-6.076 1.64-1.06 3.568-1.93 5.688-2.7.58 0 1.642-1.06 1.93-.674.095 0 .77 0-.194.482zM1450.377 745.61c-1.156.867-2.7 1.445-3.857 2.41-4.725 1.35-9.836 2.605-14.946 2.605-3.665.578-7.426 1.35-10.992 2.218-1.93-.192-4.146-.578-6.365-.097-.29.77-.29 1.062-1.446 1.35 1.063 2.8 3.28 4.728 4.34 6.75.58.29 1.158 1.063.965 1.736-.386 1.158.193 1.158.868 1.833.868 0 1.64.096 2.41.48 2.026-.675 3.57-.675 5.208-.097 1.833 1.062 3.376.29 5.4 0 3.857-.578 7.522-1.445 11.477-1.64 3.085-.096 6.172-.096 9.45-.096.29.097.578.192.482.48 0 .29-.388.58-.678.676-4.82.29-9.45.482-13.692 1.833-3.183-.096-5.785.868-8.775.58-7.135-.676-14.658 0-21.408.867-2.988-.676-5.303.578-8.196.386-7.52-.58-15.332-.58-21.985-2.797-.964-.29-.482-1.06-.964-1.736.098-.288.58 0 .772-.096 2.314.482 4.34 1.542 6.654 1.446l.192.192c3.953-.192 7.617 1.062 11.09.867 2.604 1.445 5.496-.387 8.293.097 3.568.578 6.56-.676 10.03-1.157.48-.386 1.156-.77 1.83-1.543-1.154-3.086-4.724-5.016-5.11-7.52.482 0-.673-.772-.19-2.314-2.99-.868-5.4.29-7.62-.77-1.83-.482-3.663.48-5.593-.58-2.604 1.255-4.917.098-7.425.29-1.446-1.254-2.024 1.254-3.76.097-1.642.48-3.858.77-5.208 0 .096-.387.096-.676 0-1.062 1.445-.868 3.472.29 4.918-.868 2.12-.19 3.663.966 5.784.58 6.173-1.157 13.02.19 19.287-.193 4.34-.192 9.064.48 13.21-.964 6.56-1.062 13.405-1.93 19.577-3.184 1.543-.965 3.375-2.026 5.306-1.93.285.29.576.484.67.87zM1372.557 717.933c.192 1.64.867 2.798 1.156 4.532-.578 2.604-.096 4.918.87 8.102 1.35-.676 2.31-.482 2.795-.29 1.832-.192 4.146.29 5.98.193 1.735-.387 3.856-.58 5.593-.58 2.702-1.35 6.077-1.734 8.775-2.312 1.543.386 3.376 0 4.822.19 6.557 0 13.308-1.638 19.48-2.506 1.155.098 2.893-.19 3.952.098.19-.098.673-.098.77-.193 4.82-.192 8.68-.29 13.5-.29 2.22 0 4.146.387 6.172.483h-.096c-2.508 1.832-5.98 1.156-8.68 1.734-3.955-.964-8.102 1.062-12.345-.578-2.506 2.604-5.495.578-8.1 1.446-2.41-.29-5.305-.193-7.33 1.06-.963-.095-1.83.29-3.182-.19-2.313 1.35-5.207.675-7.617.675-3.953-.868-7.136 1.735-10.896 1.254-2.7 1.35-5.785 1.157-8.87 1.157-.966-1.06-2.51-.096-4.437-2.218-.677 4.24-.29 6.75-.482 9.353.482 2.025-.29 4.243 0 6.46-.097.098-.097.193-.192.29-.77-.097-.965-.964-1.255-1.543.58-1.928.482-3.856 0-5.785-.385-.48 0-1.35.098-2.313-1.062-1.446-.192-3.568-.964-4.92.48-1.542-.193-3.182-.098-4.725-.868-1.543.29-3.567-.58-5.11 0-1.35-1.83-2.7-.287-3.762.097-.097.288-.19.48-.29.39.097.872.192.97.578zM1460.31 681.964c-.288.096-1.06.675-1.734.867-1.832.098-4.437.29-6.27.58-1.06-.387-3.085.386-4.145.096-5.11.482-10.223.772-16.01.676-1.06.676-2.987.192-4.145.192-5.4-.192-10.318-1.543-15.044-.868-3.374 0-7.23 1.254-10.8 0-2.506.387-6.172-.096-8.195.098-.098.097-.29.192-.387.29-5.015-.482-10.607.577-15.43.19-.386-.096-.867-.77-.19-.867 9.93-1.253 21.214-.77 31.726-1.253 2.313-.097 5.785.097 8.293-.387l.29.29c3.76 0 7.23.48 10.8.77.29-.19.964-.096 1.156 0 5.786.193 12.537-.867 18.033-.674 3.183-1.543 6.558.675 9.45-1.158.386-.578 1.254-.29 1.735-.77 1.16.77 1.063 1.543.87 1.93zM1391.843 653.805c1.06 0 2.604-.097 3.76-.19 2.798-1.737 7.137 0 10.416.385 2.023-1.157 5.398-.482 7.52-.675 3.086-.77 7.136.19 10.704.19 6.268 0 13.5-.19 19.77-.48.963-.097 1.93-.675 2.796-.29.098.098.192-.095.29-.095-2.22 1.445-4.92 1.542-7.137 2.507-3.183 2.796-6.85 4.243-10.222 6.363-4.05 1.832-8.196 3.184-11.86 5.98-1.157.578-2.218 1.253-3.375 1.83l-2.797 1.352 3.183.193c7.522.48 14.563-1.35 22.276-.29 3.086 0 5.98-1.254 8.97-.675.77-.097 1.734 0 2.41 0-.098.193 0 .58-.098.675-.77 0-1.446.193-2.12.675-.772.388-1.736.388-2.604.58-2.604.29-5.208-.098-7.812.48-7.04.192-13.886-.674-20.732.098-3.183-.58-6.365 1.06-9.45.192-2.025.48-4.63-.578-6.173.577-4.628-.48-9.16-1.253-13.98-1.253-1.063-.386-2.7 0-3.184-1.156-.098-.098.578-1.062.578-.578 5.208-1.352 9.645 1.734 15.623 1.06 3.087-.385 6.27 0 9.547-.964.964-1.35 2.41-1.254 3.472-2.12 1.93-.29 3.857-.772 5.11-2.123 4.92-2.41 9.933-3.277 13.888-6.847 1.156-.48 2.314-1.06 3.567-2.12 0-.29 2.796-1.544 2.796-1.833-.096-.192-2.988.48-2.988.097-3.762 0-7.23-.676-10.223.386-5.4-1.35-10.993-1.446-16.78-.192-4.145-.48-8.39-1.06-12.437-.29-3.375-1.446-7.138 1.544-10.224-1.156-.288-.867-1.83-.578-1.733-1.64 3.277-.582 6.072 1.25 9.256 1.347zM1423.088 601.443c3.76.29 7.617 1.156 11.668 1.64 4.918.578 10.028 1.156 14.657 3.472 2.41 2.41 5.4 3.664 7.328 6.848.29 1.734 1.544 1.445.966 3.566.097.29-.192 0-.192-.387-2.218.097-1.158-.482-2.797-2.7-2.51.77-4.34-.386-6.172.386-7.715-.482-14.368 0-21.892.77-1.832.868-4.146.868-6.268.58-1.35-.483-2.797.48-4.436.19-5.017-.29-10.608-.29-15.526.387-3.665-.192-7.232 0-10.994.386-1.445-.29-3.086-.77-5.11-.192-.58 1.352-1.254 1.063-.772 2.22-.192.192-.385.48-.674.675-.29-.098-.58 0-.87-.29.388-2.796 2.22-4.34 3.956-6.46 3.375-3.086 7.715-4.532 11.38-7.52 2.41-1.544 4.917-1.736 7.52-2.798 3.278-.48 6.943-.29 10.125-.964 2.702.672 5.305.48 8.103.19zm-15.237 2.41c-3.76-.19-6.363 1.545-9.932 2.605-.193.192-1.062 1.06-1.543 1.35-2.7 1.93-5.884 2.798-8.775 6.654 3.472-.29 5.207.964 6.847.29 2.41.288 4.532-.966 6.943-1.062 3.473 1.06 7.232.19 10.8.675 3.28.386 6.85-.387 10.224-.58 5.98-2.312 12.922-.673 19.094-1.35 2.99 0 6.46-.48 11.186.098-1.832-3.857-5.11-4.532-7.328-5.786-5.688-1.543-11.38-2.508-17.262-3.086-1.156-.19-2.604.29-3.664-.385-5.307.29-11.67-1.543-16.59.58zM1455.296 583.314c-.964 2.12-3.278 2.313-4.92 3.472-2.217 1.157-4.627 2.313-7.135 2.604-.675.387-1.64.482-2.41.578-6.46 1.157-12.73 3.763-19.48 3.954-4.628.965-9.74.482-14.754.385-4.146 0-9.45-1.155-13.597-2.987-2.026-.482-4.244-1.254-5.69-2.507-2.122-.58-3.762-2.122-5.594-3.28-.385-.674-.867-1.35-.867-2.024 0-.097-.098-.192-.098-.192 1.93.48 3.76 1.93 5.688 3.086 1.544.866 2.41 2.024 4.05 2.41 2.798.578 5.017 2.508 7.908 2.313 5.304 1.35 11.09 1.253 17.454.868-.964-2.218.676-3.086-.097-4.437.097-.58.192-.964.386-1.35.29-.29.483-.58.87-.29l.48.482c-.192.577.192.964.482 1.253-.29 1.254 0 2.508-.192 4.05 4.725.482 7.906-.867 11.765-1.06 1.64-.772 4.146-.966 6.172-1.544 1.832-.58 4.05-.58 5.786-1.64 1.446.19 3.086-.29 4.243-1.737 2.507.098 4.438-1.734 7.33-2.312v-.48c.48-.192 1.443-1.255 2.603-.87-.095.482-.19.868-.384 1.254zM1450.956 549.562c.19.482 1.734.482 1.156 1.255-2.7 1.832-6.363-.193-9.258 1.35-9.74 2.99-20.058.77-29.99 2.122-5.785.77-11.186.77-16.876 1.928l-3.277-.097-.097.387 3.278 1.446c3.763.77 8.584.868 12.15 1.736 3.376.865 6.27.963 9.548 1.928 3.567.675 7.04.29 11.09.386.29.192.77.096.965.385-5.11 2.12-11.38.676-16.684 2.22-1.446 1.252-3.858.866-5.594 1.638-6.172 0-12.055 2.122-17.84 2.41-.676.58-1.833.677-2.798 1.062 0 .387-2.603.965-2.507 1.157.097.29 3.087.193 3.183.676 9.548 1.446 18.228 0 27.002 1.062 5.4-2.025 10.993 1.156 16.2-.58 6.173-2.024 13.115.29 18.612-1.83 1.64 0 3.375-.868 4.82 0 1.735.096 4.63-1.64 5.98.19 0 .193.19.098.29.193-1.353.868-3.474.193-4.728.386-7.33 1.832-15.044 2.314-22.66 3.473-3.088 0-6.173.48-9.066-.387-3.76.098-7.618.387-11.57-.29-9.162-.287-17.553 1.545-26.136-.964-3.182-.964-6.268 0-9.063-.675 0-.577-2.12.483-1.64-.385.578-.29.965-1.254 2.025-1.446 4.34-2.412 10.03-1.736 14.85-3.473 5.884-1.062 12.537-1.735 18.612-3.184l3.183-.77v-.387l-3.183-.578c-3.954-.675-7.715-1.254-11.67-1.736-4.82-2.218-10.51-2.023-15.33-4.146-.29-.29-.772-.48-1.16-.675.772-1.156 3.087-.097 4.245-.19 4.05-2.123 8.582-.483 13.018-1.64 10.127-1.063 17.647-.483 27.58-1.353 2.314-.675 5.884-.675 8.486-1.06 4.63-.677 9.548 1.155 13.02-1.736.68-.482 1.257-.29 1.836.192zM1457.803 486.98c2.41.288 4.05-.29 4.63.866 0 .1-.097.29-.097.388-3.568 2.023-8.197 1.156-12.345 2.312-7.328 1.062-14.85 1.64-21.6 3.375-1.544 2.123-3.28 5.016-2.22 7.813.098.097-.288 0-.674.675.675.964-.388 1.35-.388 2.122-.385 1.832-.19 4.146-.964 7.328 5.594 1.255 10.897 1.156 15.526 2.41 3.375.965 8.1-.577 11.475 1.157 1.255 0 2.798-.192 3.665.868.192.482-.675.482-1.06.482-3.955-.677-6.944-.387-10.705-.868-4.437-1.93-11.188-.29-16.008-2.22-1.736 0-4.437.482-5.787-.48-4.53-1.062-9.933.29-14.175-1.735-7.907.29-14.466-2.99-22.565-2.99-.385-.385-.385-1.06-1.254-1.155-2.314-.772-5.303.674-6.75-1.255.578-1.062 2.12-.578 3.28-1.446 9.737-2.12 18.706-6.364 28.64-8.196 2.797-1.35 6.268-1.735 9.354-2.99 1.06-.096 2.12-.288 3.086.1 1.93-.58 4.05-1.256 6.172-1.256 4.53-.097 8.582-2.22 13.308-1.83 1.446-.87 3.664-.194 5.207-.677 2.99-.29 6.075-1.062 8.872-1.83.578-.292.868-.483.965-.678.867-.387.963-.387 1.64-.29.002.095.773-.194.773 0zm-36.45 7.81c-4.823 2.122-10.416 2.122-15.43 3.568-5.885 1.64-11.38 4.918-18.034 6.172 0 1.64.675 2.218 1.83 2.313 2.702.964 5.21 2.024 8.294 2.41 5.688.772 12.344.29 17.744 1.64 1.447 0 3.567 0 5.496.58.965-1.158 1.062-2.315 1.93-2.895 0-1.157.29-2.025.386-2.894.192-1.445.192-2.797.482-3.856.48-1.833.77-2.507.964-4.05 2.603-4.53-1.928-2.892-3.664-2.988zM1391.843 460.17c1.06 0 2.604-.097 3.76-.193 2.798-1.735 7.137 0 10.416.387 2.023-1.157 5.398-.482 7.52-.676 3.086-.77 7.136.192 10.704.192 6.268 0 13.5-.192 19.77-.48.963-.098 1.93-.677 2.796-.29.098.097.192-.097.29-.097-2.22 1.446-4.92 1.542-7.137 2.507-3.183 2.797-6.85 4.242-10.222 6.364-4.05 1.833-8.196 3.184-11.86 5.98-1.157.577-2.218 1.252-3.375 1.83l-2.797 1.35 3.183.194c7.522.48 14.563-1.352 22.276-.29 3.086 0 5.98-1.254 8.97-.675.77-.098 1.734 0 2.41 0-.098.192 0 .577-.098.676-.77 0-1.446.19-2.12.673-.772.387-1.736.387-2.604.58-2.604.288-5.208-.098-7.812.48-7.04.193-13.886-.675-20.732.097-3.183-.578-6.365 1.062-9.45.192-2.025.482-4.63-.578-6.173.578-4.628-.48-9.16-1.253-13.98-1.253-1.063-.386-2.7 0-3.184-1.158-.098-.097.578-1.06.578-.578 5.208-1.35 9.645 1.735 15.623 1.06 3.087-.384 6.27 0 9.547-.963.964-1.352 2.41-1.255 3.472-2.122 1.93-.29 3.857-.772 5.11-2.122 4.92-2.41 9.933-3.278 13.888-6.846 1.156-.482 2.314-1.062 3.567-2.122 0-.29 2.796-1.544 2.796-1.833-.096-.192-2.988.48-2.988.098-3.762 0-7.23-.676-10.223.385-5.4-1.35-10.993-1.445-16.78-.192-4.145-.48-8.39-1.06-12.437-.29-3.375-1.445-7.138 1.545-10.224-1.155-.288-.867-1.83-.578-1.733-1.64 3.277-.58 6.072 1.254 9.256 1.35zM1423.088 433.94c3.76.29 7.617 1.156 11.668 1.64 4.918.58 10.028 1.156 14.657 3.472 2.41 2.41 5.4 3.664 7.328 6.847.29 1.734 1.544 1.445.966 3.567.097.288-.192 0-.192-.387-2.218.097-1.158-.48-2.797-2.7-2.51.77-4.34-.385-6.172.387-7.715-.48-14.368 0-21.892.77-1.832.868-4.146.868-6.268.58-1.35-.483-2.797.48-4.436.19-5.017-.288-10.608-.288-15.526.388-3.665-.193-7.232 0-10.994.385-1.445-.29-3.086-.77-5.11-.192-.58 1.35-1.254 1.062-.772 2.218-.192.193-.385.482-.674.677-.29-.1-.58 0-.87-.29.388-2.796 2.22-4.34 3.956-6.46 3.375-3.087 7.715-4.533 11.38-7.522 2.41-1.542 4.917-1.734 7.52-2.795 3.278-.48 6.943-.29 10.125-.965 2.702.672 5.305.48 8.103.19zm-15.237 2.41c-3.76-.19-6.363 1.545-9.932 2.605-.193.19-1.062 1.06-1.543 1.35-2.7 1.93-5.884 2.797-8.775 6.654 3.472-.29 5.207.964 6.847.288 2.41.29 4.532-.964 6.943-1.06 3.473 1.06 7.232.19 10.8.674 3.28.386 6.85-.386 10.224-.578 5.98-2.314 12.922-.675 19.094-1.352 2.99 0 6.46-.48 11.186.098-1.832-3.857-5.11-4.532-7.328-5.786-5.688-1.543-11.38-2.508-17.262-3.085-1.156-.194-2.604.288-3.664-.39-5.307.292-11.67-1.54-16.59.58zM1389.143 418.415c1.446.194 2.41 1.64 4.05 1.64 3.088 1.544 5.98 2.314 9.74 2.508.58.29 1.543.386 2.218.578 2.122.194 4.053 1.158 6.077 1.158 1.253.386 2.988-.29 4.146 1.254 1.543-.387 2.698-.77 3.664-1.254.385-.77 1.445-1.735 1.35-2.797.676-1.06.097-1.927.578-3.277.58-1.832.58-2.893 1.543-4.82.48-.388.965-.772 1.544-.677.386.966 0 2.122 0 3.278-1.254 2.508-1.062 3.857-1.93 7.137.772.483.482.87.772 1.063 2.41.386 5.014.097 7.04-.386 1.253.192 2.313-.29 4.242-.29.386-1.156 1.254-.29 1.832-.578 3.472-.29 6.558-2.22 10.126-2.41 1.543-1.352 4.146-1.158 5.69-2.315 1.83.192 2.796-2.22 5.11-1.64 1.155-.867 2.217-1.93 3.663-1.93.386.29.77.58 1.155.966-.19 1.447-1.832 1.544-2.893 2.313-1.64.194-3.183.58-4.34 1.642-2.122-.098-3.376 1.733-5.4 1.64-.77.48-1.542.577-2.122.964-.77-.098-1.445.19-2.024.48-4.437 0-7.906 2.894-12.343 2.604-.577.386-1.64.386-2.218.482-4.726 1.64-10.222 1.35-15.043 1.253-2.22-.58-4.92 0-6.85-.965-5.978-1.062-11.764-3.472-17.453-5.017-2.7-1.06-5.208-2.698-7.715-4.05-2.796-1.543-6.075-2.604-8.1-5.4 0-.19 0-.48.19-.577 4.347 2.797 8.878 5.303 13.7 7.425zM1445.556 391.415c-3.472 2.507-7.907 2.12-11.09 4.82-1.253.388-2.603 1.063-3.665 1.737-2.987-.097-6.073 1.832-10.124 3.664 2.604 1.062 4.533.77 5.883.386 5.688 0 10.703-.964 16.683-.097 1.64 0 3.665-.48 5.11.193 2.797.097 6.075-.675 8.485.675.098.097.098.097.192.193-2.024.578-4.63.385-6.653.29-1.735-.483-3.567.19-5.496.19-3.76.098-7.714-1.253-11.09.386-3.085.388-5.978-1.06-8.97 0-2.697.868-5.398-.48-7.904.772-4.63-.772-10.608.096-15.623-.772-5.69 0-11.476.388-17.068-.577-3.086-.098-4.34-.676-7.23-1.254-.1 0 .48-.675.48-.866 3.086-1.833 4.146-2.41 7.425-3.665 4.532-1.833 9.354-1.447 13.888-2.7 6.363.096 12.632.963 17.26 7.04 8.487-5.112 17.552-5.69 25.75-10.127 3.663-1.157 7.038-2.99 10.703-4.146.58 0 1.544-.386 2.22-.192-2.992 1.735-6.078 3.086-9.164 4.05zm-54.292 6.364c-1.254.385-2.796-.1-3.953.675-1.542-.193-2.99.675-4.242 1.156l-2.313 1.64c.868.098 4.243.387 5.208.58 1.253 1.253 3.47.675 5.014 1.06 7.137-.964 15.14.193 23.723-.19-1.254-1.543-2.507-1.93-3.182-2.604-1.35-1.35-5.11-2.796-7.62-3.856-4.34.575-8.97-.39-12.634 1.54zM1455.296 370.49c-.964 2.12-3.278 2.312-4.92 3.47-2.217 1.158-4.627 2.314-7.135 2.605-.675.386-1.64.482-2.41.578-6.46 1.157-12.73 3.762-19.48 3.954-4.628.964-9.74.482-14.754.386-4.146 0-9.45-1.157-13.597-2.99-2.026-.48-4.244-1.253-5.69-2.507-2.122-.578-3.762-2.12-5.594-3.278-.385-.675-.867-1.35-.867-2.025 0-.097-.098-.192-.098-.192 1.93.482 3.76 1.93 5.688 3.087 1.544.867 2.41 2.025 4.05 2.41 2.798.58 5.017 2.508 7.908 2.314 5.304 1.352 11.09 1.255 17.454.87-.964-2.22.676-3.087-.097-4.437.097-.58.192-.965.386-1.35.29-.29.483-.58.87-.29l.48.482c-.192.578.192.964.482 1.253-.29 1.254 0 2.508-.192 4.05 4.725.483 7.906-.867 11.765-1.06 1.64-.77 4.146-.965 6.172-1.544 1.832-.578 4.05-.578 5.786-1.64 1.446.193 3.086-.288 4.243-1.735 2.507.096 4.438-1.736 7.33-2.315v-.48c.48-.194 1.443-1.255 2.603-.87-.095.482-.19.868-.384 1.254zM1391.843 342.524c1.06 0 2.604-.097 3.76-.192 2.798-1.736 7.137 0 10.416.386 2.023-1.158 5.398-.482 7.52-.676 3.086-.77 7.136.193 10.704.193 6.268 0 13.5-.193 19.77-.482.963-.097 1.93-.675 2.796-.29.098.097.192-.096.29-.096-2.22 1.446-4.92 1.543-7.137 2.507-3.183 2.797-6.85 4.243-10.222 6.365-4.05 1.83-8.196 3.18-11.86 5.978-1.157.578-2.218 1.254-3.375 1.832l-2.797 1.35 3.183.193c7.522.482 14.563-1.35 22.276-.29 3.086 0 5.98-1.253 8.97-.674.77-.098 1.734 0 2.41 0-.098.19 0 .577-.098.674-.77 0-1.446.192-2.12.675-.772.385-1.736.385-2.604.578-2.604.29-5.208-.097-7.812.48-7.04.194-13.886-.674-20.732.098-3.183-.578-6.365 1.06-9.45.193-2.025.48-4.63-.58-6.173.577-4.628-.482-9.16-1.254-13.98-1.254-1.063-.385-2.7 0-3.184-1.157-.098-.096.578-1.06.578-.578 5.208-1.35 9.645 1.735 15.623 1.06 3.087-.385 6.27 0 9.547-.963.964-1.35 2.41-1.254 3.472-2.122 1.93-.29 3.857-.77 5.11-2.12 4.92-2.412 9.933-3.28 13.888-6.848 1.156-.482 2.314-1.06 3.567-2.122 0-.29 2.796-1.543 2.796-1.832-.096-.19-2.988.483-2.988.098-3.762 0-7.23-.676-10.223.386-5.4-1.35-10.993-1.446-16.78-.193-4.145-.48-8.39-1.06-12.437-.288-3.375-1.446-7.138 1.543-10.224-1.157-.288-.868-1.83-.578-1.733-1.64 3.277-.58 6.072 1.252 9.256 1.35zM1410.55 278.107c6.462 2.314 13.31 1.64 19.48 4.243 6.363 2.7 13.308 3.857 19.864 5.98.192.192.48.48.675.77-2.122.868-4.92-.868-7.427-.578-7.617-.58-14.754 1.93-22.758 2.99l-.386 1.735c8.678 1.736 16.007 5.4 24.01 6.943.29.193.773.29 1.063.482 1.735.096 3.857-1.06 5.11-.097-.097.675-.77.964-1.446 1.157-1.543-.193-2.7.868-4.146 1.254-8.582-.386-16.2 1.446-24.88 2.025-10.703.772-21.31 1.544-31.437 1.448-5.305.77-9.354.964-13.502.482-.384-.193-1.155 0-1.54-.097.288-.192.577-.482.867-.77 3.182-.676 5.98-.676 9.354-.965 14.658-1.158 30.763.096 45.807-2.41 2.7-.483 5.4-.29 8.293-.58 1.93-.675 1.062-2.604-.386-2.218-6.27-3.086-13.888-3.568-20.154-5.882-1.157-.386-2.99-.097-3.472-1.253.19-.386.578-.58.965-.772 6.558-2.12 13.692-2.893 23.53-5.4-6.076-2.218-9.646-2.604-12.44-4.243-7.04 0-11.862-2.893-18.9-2.893-5.4-2.025-11.766-1.157-17.166-3.472-4.436-.097-8.1-1.06-13.308-1.93-.097 0-.387 0-.483-.096.098-.193.193-.386.29-.675.77 0 1.253-.386 1.64-.58 10.897.87 21.89 3.956 32.884 5.402zM1454.813 261.617c.29.097.482.193.676.386-.868 2.218-3.473.964-5.497 1.542-1.736.29-3.375 0-5.11.097-4.726.097-9.45-.097-13.983 0-2.41 0-5.594.193-8.1-.097-1.64-.192-3.666 0-5.305.097-3.954.386-7.715 0-11.86.29-.194-.193-.387-.193-.58-.193-1.734.867-3.664.095-5.304.384-3.952.193-7.714.58-11.57.58-2.7-1.158-5.497.578-8.294-.097-.386-.097.578-1.157.868-1.157 4.243-2.893 9.16 1.157 13.886-.193 5.594-1.543 11.862-.964 17.358-1.253 5.497-.29 10.704.192 16.298 0 1.542-.193 3.086-.193 4.725-.193.388 0 .87.097 1.255.097 4.242-.096 8.486-.096 12.246-.675 2.893.77 5.303.29 8.293.385zM1389.143 245.224c1.446.193 2.41 1.64 4.05 1.64 3.088 1.542 5.98 2.315 9.74 2.507.58.29 1.543.387 2.218.58 2.122.193 4.053 1.158 6.077 1.158 1.253.385 2.988-.29 4.146 1.253 1.543-.385 2.698-.77 3.664-1.252.385-.772 1.445-1.737 1.35-2.797.676-1.06.097-1.928.578-3.278.58-1.832.58-2.893 1.543-4.82.48-.387.965-.773 1.544-.676.386.964 0 2.12 0 3.278-1.254 2.508-1.062 3.857-1.93 7.136.772.482.482.868.772 1.06 2.41.387 5.014.098 7.04-.384 1.253.192 2.313-.29 4.242-.29.386-1.156 1.254-.29 1.832-.578 3.472-.29 6.558-2.218 10.126-2.41 1.543-1.352 4.146-1.16 5.69-2.316 1.83.193 2.796-2.218 5.11-1.64 1.155-.867 2.217-1.928 3.663-1.928.386.29.77.578 1.155.964-.19 1.447-1.832 1.542-2.893 2.314-1.64.193-3.183.58-4.34 1.64-2.122-.096-3.376 1.735-5.4 1.64-.77.482-1.542.578-2.122.964-.77-.097-1.445.193-2.024.482-4.437 0-7.906 2.893-12.343 2.604-.577.385-1.64.385-2.218.482-4.726 1.64-10.222 1.35-15.043 1.253-2.22-.58-4.92 0-6.85-.964-5.978-1.062-11.764-3.473-17.453-5.015-2.7-1.06-5.208-2.7-7.715-4.05-2.796-1.542-6.075-2.603-8.1-5.4 0-.193 0-.482.19-.578 4.347 2.796 8.878 5.303 13.7 7.424zM1423.088 214.077c3.76.29 7.617 1.157 11.668 1.64 4.918.58 10.028 1.157 14.657 3.47 2.41 2.412 5.4 3.665 7.328 6.848.29 1.736 1.544 1.447.966 3.568.097.29-.192 0-.192-.385-2.218.096-1.158-.482-2.797-2.7-2.51.77-4.34-.386-6.172.386-7.715-.482-14.368 0-21.892.77-1.832.87-4.146.87-6.268.58-1.35-.48-2.797.483-4.436.193-5.017-.29-10.608-.29-15.526.386-3.665-.193-7.232 0-10.994.386-1.445-.29-3.086-.772-5.11-.194-.58 1.35-1.254 1.06-.772 2.218-.192.193-.385.482-.674.675-.29-.098-.58 0-.87-.29.388-2.797 2.22-4.34 3.956-6.46 3.375-3.087 7.715-4.534 11.38-7.522 2.41-1.543 4.917-1.736 7.52-2.796 3.278-.482 6.943-.29 10.125-.965 2.702.672 5.305.48 8.103.19zm-15.237 2.41c-3.76-.19-6.363 1.544-9.932 2.605-.193.193-1.062 1.06-1.543 1.35-2.7 1.93-5.884 2.797-8.775 6.654 3.472-.29 5.207.964 6.847.29 2.41.288 4.532-.965 6.943-1.06 3.473 1.06 7.232.19 10.8.673 3.28.385 6.85-.386 10.224-.58 5.98-2.314 12.922-.675 19.094-1.35 2.99 0 6.46-.482 11.186.096-1.832-3.857-5.11-4.533-7.328-5.786-5.688-1.543-11.38-2.507-17.262-3.085-1.156-.193-2.604.29-3.664-.386-5.307.29-11.67-1.543-16.59.578zM1455.296 195.948c-.964 2.122-3.278 2.313-4.92 3.472-2.217 1.157-4.627 2.314-7.135 2.604-.675.386-1.64.482-2.41.578-6.46 1.157-12.73 3.76-19.48 3.954-4.628.964-9.74.482-14.754.385-4.146 0-9.45-1.155-13.597-2.988-2.026-.482-4.244-1.254-5.69-2.507-2.122-.58-3.762-2.122-5.594-3.28-.385-.674-.867-1.35-.867-2.024 0-.096-.098-.192-.098-.192 1.93.482 3.76 1.93 5.688 3.086 1.544.867 2.41 2.025 4.05 2.41 2.798.58 5.017 2.508 7.908 2.315 5.304 1.35 11.09 1.252 17.454.867-.964-2.218.676-3.086-.097-4.437.097-.578.192-.964.386-1.35.29-.29.483-.58.87-.29l.48.483c-.192.578.192.964.482 1.253-.29 1.254 0 2.507-.192 4.05 4.725.483 7.906-.867 11.765-1.06 1.64-.77 4.146-.964 6.172-1.543 1.832-.58 4.05-.58 5.786-1.64 1.446.193 3.086-.29 4.243-1.735 2.507.097 4.438-1.735 7.33-2.314v-.482c.48-.193 1.443-1.253 2.603-.867-.095.482-.19.867-.384 1.253zM1445.556 174.445c-3.472 2.507-7.907 2.12-11.09 4.82-1.253.387-2.603 1.062-3.665 1.737-2.987-.097-6.073 1.832-10.124 3.664 2.604 1.06 4.533.77 5.883.386 5.688 0 10.703-.964 16.683-.097 1.64 0 3.665-.482 5.11.193 2.797.096 6.075-.675 8.485.675.098.096.098.096.192.193-2.024.58-4.63.385-6.653.29-1.735-.482-3.567.192-5.496.192-3.76.097-7.714-1.253-11.09.386-3.085.386-5.978-1.06-8.97 0-2.697.868-5.398-.482-7.904.772-4.63-.772-10.608.096-15.623-.772-5.69 0-11.476.386-17.068-.578-3.086-.097-4.34-.675-7.23-1.254-.1 0 .48-.675.48-.868 3.086-1.832 4.146-2.41 7.425-3.664 4.532-1.832 9.354-1.446 13.888-2.7 6.363.096 12.632.964 17.26 7.04 8.487-5.11 17.552-5.69 25.75-10.125 3.663-1.157 7.038-2.99 10.703-4.146.58 0 1.544-.387 2.22-.194-2.992 1.734-6.078 3.084-9.164 4.05zm-54.292 6.364c-1.254.385-2.796-.098-3.953.674-1.542-.193-2.99.675-4.242 1.157l-2.313 1.64c.868.098 4.243.387 5.208.58 1.253 1.253 3.47.675 5.014 1.06 7.137-.963 15.14.194 23.723-.19-1.254-1.544-2.507-1.93-3.182-2.605-1.35-1.35-5.11-2.796-7.62-3.857-4.34.577-8.97-.388-12.634 1.54zM1450.377 141.947c-1.156.868-2.7 1.446-3.857 2.41-4.725 1.35-9.836 2.605-14.946 2.605-3.665.58-7.426 1.35-10.992 2.218-1.93-.193-4.146-.58-6.365-.097-.29.77-.29 1.06-1.446 1.35 1.063 2.796 3.28 4.725 4.34 6.75.58.29 1.158 1.06.965 1.736-.386 1.156.193 1.156.868 1.83.868 0 1.64.098 2.41.483 2.026-.675 3.57-.675 5.208-.096 1.833 1.06 3.376.29 5.4 0 3.857-.58 7.522-1.447 11.477-1.64 3.085-.096 6.172-.096 9.45-.096.29.098.578.194.482.483 0 .29-.388.58-.678.675-4.82.29-9.45.482-13.692 1.833-3.183-.096-5.785.87-8.775.58-7.135-.675-14.658 0-21.408.868-2.988-.675-5.303.58-8.196.386-7.52-.58-15.332-.58-21.985-2.796-.964-.29-.482-1.06-.964-1.736.098-.29.58 0 .772-.096 2.314.482 4.34 1.542 6.654 1.446l.192.192c3.953-.192 7.617 1.06 11.09.868 2.604 1.446 5.496-.386 8.293.096 3.568.58 6.56-.674 10.03-1.157.48-.385 1.156-.77 1.83-1.542-1.154-3.086-4.724-5.015-5.11-7.522.482 0-.673-.77-.19-2.314-2.99-.87-5.4.29-7.62-.772-1.83-.482-3.663.482-5.593-.58-2.604 1.255-4.917.098-7.425.29-1.446-1.253-2.024 1.254-3.76.098-1.642.482-3.858.77-5.208 0 .096-.386.096-.675 0-1.062 1.445-.868 3.472.29 4.918-.868 2.12-.193 3.663.964 5.784.578 6.173-1.157 13.02.193 19.287-.193 4.34-.193 9.064.482 13.21-.964 6.56-1.062 13.405-1.93 19.577-3.184 1.543-.964 3.375-2.025 5.306-1.93.285.292.576.485.67.87zM1426.075 116.488c6.075-.77 11.477 2.218 17.068 3.472 2.314 1.253 5.016 1.446 7.715 3.182.868-.29.965.386 1.254.77 0 .097-.096-.48-.096-.48-3.28 1.928-7.137 4.05-11.188 5.207-2.12.963-4.726 1.252-6.847 1.928-2.603.77-5.11 1.64-7.617 2.314-5.207.482-8.582 1.35-13.598 1.833-3.76-.675-8.196-.29-11.57-1.736-2.123.77-4.727-.194-6.752-.676-2.507.482-4.53-1.832-6.94-2.122-2.605-1.157-5.884-.964-7.716-3.182.096-.097-1.062-.77-.388-1.543.192-.193.29-.386.48-.58 1.64-1.156 2.798-2.796 4.823-3.664 4.436-2.507 9.45-4.918 15.043-4.725 2.99.58 5.883-1.93 8.872-.386 5.5 0 12.058-.674 17.457.386zm-43.78 7.81c-.386 1.062-1.253 2.7.676 2.7 6.75 2.508 13.502 3.858 20.444 4.92 6.75.963 13.114 1.542 19.674-.29 8.39-2.412 17.26-3.955 26.71-8.39-5.495-1.062-8.58-2.7-11.956-3.28-7.426-.48-14.176-2.7-21.698-2.506-12.15.194-24.398 1.544-33.85 6.847zM1449.896 94.116c-.29 2.025.098 3.76.77 5.4-.095.482-.48.964-.77 1.06-1.254 1.834 1.157 5.112-2.025 6.076-1.06.29-2.216-.193-3.083.58-3.376 1.252-4.438.288-7.715.578-2.895.192-6.365-1.254-9.162 0-1.543 0-2.797-.58-4.146-.772-3.664 1.35-7.81-.675-11.668.29-2.797.193-5.015-.964-7.812.29-.58.096-1.062.096-1.543.288-5.688 0-11.57-.578-17.164.097-2.797 0-5.496-.097-8.004-1.446-.482-.386.097-.964.577-1.157.676 0 1.64-.193 2.7.675 2.025-.868 3.857.097 5.593-.29 1.446.387 3.087.483 4.63.098 3.277-1.93 6.75.29 10.126.192 3.276-.097 6.556-1.35 9.93-.964 3.473.483 7.522.773 11.09.387 1.16-.386 2.51.193 3.57-.192 1.06.192 2.507.096 3.47.77 1.352-.19 2.99-.48 4.34-.867.77.386 1.93.29 2.604.482 3.664.29 4.437.77 7.81-.385 2.22.77 1.352-1.543 3.28-2.025 1.253-.482.578-1.062.578-1.736-.29-1.543 1.254-2.7.58-4.05-.483-1.253-.1-2.893-1.063-4.243-.097-.384-.097-.867.386-.867 1.252-.292 1.445.962 2.12 1.733zM1372.557 65.67c.192 1.638.867 2.795 1.156 4.53-.578 2.605-.096 4.92.87 8.102 1.35-.675 2.31-.482 2.795-.29 1.832-.192 4.146.29 5.98.194 1.735-.386 3.856-.58 5.593-.58 2.702-1.35 6.077-1.735 8.775-2.313 1.543.386 3.376 0 4.822.193 6.557 0 13.308-1.64 19.48-2.507 1.155.096 2.893-.194 3.952.096.19-.097.673-.097.77-.193 4.82-.193 8.68-.29 13.5-.29 2.22 0 4.146.386 6.172.48h-.096c-2.508 1.833-5.98 1.158-8.68 1.737-3.955-.964-8.102 1.06-12.345-.58-2.506 2.605-5.495.58-8.1 1.447-2.41-.29-5.305-.193-7.33 1.06-.963-.096-1.83.29-3.182-.192-2.313 1.35-5.207.675-7.617.675-3.953-.868-7.136 1.736-10.896 1.254-2.7 1.35-5.785 1.157-8.87 1.157-.966-1.06-2.51-.096-4.437-2.217-.677 4.243-.29 6.75-.482 9.354.482 2.025-.29 4.243 0 6.46-.097.098-.097.194-.192.29-.77-.096-.965-.964-1.255-1.542.58-1.93.482-3.857 0-5.786-.385-.483 0-1.35.098-2.315-1.062-1.447-.192-3.568-.964-4.918.48-1.543-.193-3.182-.098-4.725-.868-1.543.29-3.568-.58-5.11 0-1.35-1.83-2.7-.287-3.762.097-.097.288-.193.48-.29.39.097.872.193.97.58zM1447.967 57.954c0 .482-.675.772-1.062.867-1.447.965-3.472.098-5.015.87-.482 0-.868-.193-1.157-.48 0-.483.193-.677.387-.87 1.35-.385 2.7-2.603 4.338-.964 1.255-.096 1.834.192 2.51.578z"/></g><path d="M2048 0M2048 1536M0 1536M0 0" fill="none" stroke="#17192D" stroke-width="3"/></g></svg>