<svg xmlns="http://www.w3.org/2000/svg" width="2048" height="1536" viewBox="0 0 2048 1536"><g><g fill="#FF0050"><path d="M893.135 1460.586c3.568-.29 6.268 1.158 9.547 1.93.675.578 1.35.578 1.35.482.193.096 1.447.385 2.508.965l.29.096c1.446.77 1.542.675 2.603.77 1.735 1.156 3.954 1.35 5.4 2.41 2.894 2.123 7.136 4.146 9.74 7.232 1.83 2.314 3.664 3.568 5.304 5.883.096.58.482 1.158.096 1.832-.77 0-.29.676-1.446-1.06l-.192-.386c-1.06.29-1.93.772-2.604.964-1.64 0-4.145 0-5.882.193-1.06-.29-2.797.385-3.76 0-4.822.29-11.09.482-16.395.096-1.253.58-2.99.193-4.146.098-5.015-.288-9.547-1.83-14.08-1.35-3.085-.097-6.75.868-10.028-.386-2.315.29-5.98-.29-7.812-.193-.096 0-.192.194-.29.292-4.724-.58-10.8.19-15.332-.29-.482-.192-.868-.868-.193-.964 9.257-.773 20.926-.87 30.666-.098 2.217-.193 5.592.29 7.907-.096l.29.29c3.568 0 6.46.675 10.125 1.06.386-.29.772-.096 1.06.098 5.4.29 13.02-.482 18.227-.098 2.892-1.35 5.978.77 8.774-.676.29-.48.29.965 2.218-.385-.578-.193-1.157-1.158-.868-1.158-.77-1.54-2.99-1.35-4.05-4.436-.578.577-.386-.29-.868-.29 0 0-.48-.29-.675-.385-.096-.098-.48-.193-.48-.965-.966 0-1.158-.29-1.447-.096-.964-.387-.964-1.736-2.122-1.736-.48-.193-1.155-.387-1.444-.77-1.158-.29-1.64-1.448-2.7-1.64-1.544-1.062-3.858-.87-5.11-1.736-1.062 0-1.158-.867-2.412-.965-3.375-1.832-7.81-1.832-11.38-2.604-5.207 0-9.932-1.06-15.235 0-1.737 0-3.28.674-4.823.965-.868.578-1.93.385-2.797.867-7.136 2.22-14.368 5.11-20.54 10.03-2.507 1.253-3.76 3.856-6.365 5.11-.578.385-.193-.482 0-.77 1.93-2.605 4.532-5.4 7.233-7.427 2.604-1.928 6.075-3.375 8.968-5.11 2.604-1.157 5.4-1.93 7.62-2.894 2.795-.193 3.374-1.928 6.267-1.64.58-.097 1.06-.48 2.122-.386.482-.385.868-.193 1.542-.482.868 0 1.833 0 2.893-.29 3.853-.19 8.675-.767 12.725.1zM922.546 1448.438c.29.096.482.19.676.385-.868 2.22-3.472.965-5.496 1.543-1.736.29-3.376 0-5.11.096-4.727.098-9.452-.096-13.984 0-2.41 0-5.593.193-8.1-.096-1.64-.193-3.665 0-5.305.096-3.954.387-7.715 0-11.86.29-.194-.192-.387-.192-.58-.192-1.736.867-3.664.096-5.304.385-3.954.193-7.714.58-11.572.58-2.7-1.158-5.496.578-8.292-.098-.386-.096.58-1.156.868-1.156 4.244-2.894 9.162 1.157 13.887-.192 5.593-1.543 11.86-.965 17.358-1.254s10.705.193 16.298 0c1.543-.193 3.086-.193 4.726-.193.386 0 .868.1 1.253.1 4.243-.1 8.486-.1 12.247-.677 2.893.77 5.304.287 8.292.385zM923.03 1429.44c-.965 2.122-3.28 2.313-4.92 3.472-2.216 1.156-4.628 2.314-7.135 2.604-.675.387-1.64.482-2.41.578-6.462 1.156-12.73 3.762-19.48 3.955-4.63.962-9.74.48-14.754.384-4.145 0-9.45-1.158-13.596-2.99-2.025-.482-4.243-1.252-5.69-2.506-2.122-.58-3.76-2.123-5.593-3.28-.384-.675-.867-1.35-.867-2.024 0-.096-.097-.193-.097-.193 1.93.483 3.76 1.93 5.69 3.087 1.543.867 2.41 2.025 4.05 2.412 2.797.577 5.015 2.505 7.908 2.31 5.304 1.353 11.09 1.255 17.455.87-.965-2.217.674-3.086-.098-4.436.097-.58.193-.965.386-1.35.29-.29.482-.58.868-.29l.482.48c-.193.58.193.966.482 1.255-.29 1.253 0 2.507-.193 4.05 4.726.482 7.908-.87 11.765-1.06 1.64-.772 4.146-.966 6.172-1.544 1.832-.58 4.05-.58 5.786-1.64 1.446.192 3.086-.29 4.242-1.735 2.508.097 4.437-1.735 7.33-2.313v-.482c.48-.193 1.445-1.254 2.604-.867-.098.48-.194.867-.387 1.25zM846.654 1377.56c2.604.192 4.725 1.737 7.33 2.218 2.988 2.7 7.04 2.99 10.124 5.4 2.41.87 5.015 1.832 7.425 2.893.964.58 1.446.966 2.7 2.124 3.375-3.086 7.715-2.7 10.897-4.146 3.085-.87 5.98-1.93 9.064-3.086 2.99-1.158 6.172-1.736 9.45-2.508 1.254-1.06 3.086-1.06 4.63-1.64 2.12.097 2.99-3.278 4.628-1.735.097 0 1.446.673.578.964-3.567 3.277-8.968 2.217-12.632 4.82-3.375.77-6.654 1.06-9.354 2.99-1.832.29-3.568.965-5.11 1.832-2.026.482-3.955.096-5.498 1.06-1.157.097-1.93.966-3.183 1.35-.193.483-1.735 1.448-1.542 1.642.194.29 2.026-.193 2.315.19 4.436.58 7.522-.19 11.283.677 2.604-.193 5.98 0 8.582.482.29-.193 1.158 0 1.64-.193 2.893-.29 5.69-1.832 8.486-.676 1.736-.29 3.858-.963 5.593-.29.096.29.096.677 0 1.062-.772.965-2.123.676-3.184.87-4.532.288-9.16.48-13.5 1.35-2.122-.097-3.665.097-5.593-.677-4.533-1.252-9.258-1.06-13.886-.578-3.568-.19-7.618.387-11.476-.19-3.278-1.16-6.942-.58-10.896-1.16-1.06.966-2.314.386-3.183.29-.77-.482-1.928-.578-2.795-.193-2.893 1.447-4.532.482-6.557-.385 0 .385-1.64-.193-1.736-.387-.193-.867.675-1.252 1.35-1.543.58-.29 1.35 1.062 1.93.58 2.796.482 5.978.29 8.967 0 4.53.674 8.87.578 13.403.77.868.192 4.146.964 5.208-.386-1.542-.77-3.953-1.927-4.435-3.085-2.314-1.06-3.76-1.156-5.497-2.7-1.832.29-2.604-1.06-4.05-1.06-2.893-.87-5.4-3.28-8.486-4.244-1.736-.095-3.183-1.155-4.63-2.024-.095-.19-.867-.385-.867-.578-.29-.29.193-.867.193-1.06.87-.678 1.256 1.154 2.316.963zM893.81 1351.91c6.075-.773 11.476 2.217 17.068 3.47 2.314 1.255 5.016 1.446 7.715 3.183.868-.29.965.387 1.254.77 0 .1-.097-.48-.097-.48-3.278 1.93-7.136 4.05-11.186 5.208-2.122.964-4.726 1.253-6.847 1.93-2.604.77-5.11 1.638-7.62 2.313-5.206.482-8.582 1.35-13.596 1.832-3.76-.676-8.196-.29-11.57-1.736-2.123.77-4.726-.192-6.75-.675-2.508.482-4.533-1.832-6.944-2.123-2.604-1.156-5.882-.963-7.714-3.182.096-.096-1.06-.77-.386-1.543.193-.193.29-.385.482-.578 1.64-1.16 2.796-2.798 4.822-3.665 4.436-2.508 9.45-4.918 15.043-4.725 2.99.578 5.882-1.93 8.872-.387 5.498 0 12.055-.675 17.455.387zm-43.78 7.81c-.386 1.062-1.254 2.7.675 2.7 6.75 2.508 13.5 3.857 20.444 4.918 6.75.965 13.114 1.543 19.67-.29 8.39-2.41 17.262-3.952 26.713-8.39-5.496-1.06-8.583-2.7-11.958-3.277-7.425-.48-14.175-2.7-21.697-2.507-12.15.193-24.398 1.543-33.848 6.848zM918.69 1318.64c.192.483 1.735.483 1.157 1.255-2.7 1.832-6.365-.193-9.258 1.35-9.74 2.988-20.06.77-29.992 2.12-5.786.772-11.186.772-16.875 1.93l-3.28-.097-.095.385 3.278 1.447c3.76.77 8.583.87 12.15 1.736 3.376.867 6.27.965 9.547 1.928 3.568.676 7.04.29 11.09.387.29.194.77.097.964.388-5.11 2.12-11.38.674-16.683 2.217-1.447 1.254-3.857.867-5.593 1.64-6.17 0-12.053 2.12-17.84 2.41-.674.58-1.832.675-2.796 1.062 0 .385-2.604.965-2.507 1.156.096.29 3.085.193 3.182.676 9.546 1.444 18.225 0 27 1.06 5.4-2.025 10.994 1.158 16.2-.578 6.173-2.025 13.116.29 18.613-1.832 1.64 0 3.375-.87 4.82 0 1.736.096 4.63-1.64 5.98.193 0 .19.192.096.29.19-1.35.868-3.473.194-4.727.388-7.328 1.833-15.042 2.315-22.66 3.472-3.086 0-6.172.482-9.065-.385-3.76.096-7.617.385-11.57-.29-9.163-.29-17.552 1.542-26.135-.964-3.182-.965-6.268 0-9.064-.676 0-.578-2.12.482-1.638-.387.578-.29.964-1.252 2.025-1.445 4.34-2.412 10.03-1.736 14.85-3.47 5.883-1.063 12.537-1.737 18.612-3.185l3.182-.77v-.386l-3.183-.578c-3.955-.676-7.715-1.254-11.67-1.736-4.82-2.22-10.51-2.025-15.332-4.146-.29-.29-.77-.482-1.157-.676.772-1.156 3.087-.096 4.244-.193 4.05-2.12 8.583-.48 13.018-1.64 10.126-1.06 17.647-.48 27.58-1.35 2.314-.675 5.882-.675 8.486-1.06 4.63-.676 9.547 1.156 13.018-1.736.677-.485 1.255-.292 1.834.19zM882.238 1304.56c1.832 1.448 3.954 2.798 5.593 4.92 7.233-.58 13.887.868 20.25.675 2.797-.096 4.727-1.832 7.33-1.64.097.772.676 1.544 1.64 1.833.193.19.193-.578-.096-.482-.098.098-.676.193-.77.193-3.474 2.31-8.68.675-12.923 1.253-1.542.385-3.76 1.06-5.014 0-5.786-1.06-12.73.48-18.42-.773-4.145-.19-8.58.965-12.535.098-5.978-.482-11.957.193-18.032-.674-2.025.77-3.664 0-5.786-.098-.58-.385-1.736 0-2.025-.676.386-.482.193-1.254.77-1.64 2.22-1.83 5.21-2.313 7.427-3.663 2.218-.387 4.146-.867 6.075-1.928.192-.292.385-.58.578-.677 2.507-.193 5.014-1.93 7.714-.87 6.172.677 12.923.966 18.226 4.148zm-24.88-2.023c-2.025 1.445-4.628 2.023-6.75 2.604-.77 1.255-3.086.868-4.243 2.026 1.157 1.832 2.796.963 3.954 1.156 5.88 1.158 11.957.29 18.032.676 2.41.965 4.532-.098 6.943.096 2.7.193 5.4-1.06 7.908.193l.868-1.062c-1.156-1.734-2.795-2.988-4.917-3.566-1.832 0-3.568-.966-5.4-1.737-3.28-.867-6.557-.674-10.03-.867-2.12-.097-3.857 1.155-6.365.48zM917.628 1278.332c-.29 2.025.098 3.762.77 5.4-.095.482-.48.965-.77 1.06-1.253 1.833 1.158 5.112-2.024 6.077-1.062.288-2.218-.194-3.086.577-3.375 1.254-4.436.29-7.715.578-2.893.193-6.364-1.254-9.16 0-1.544 0-2.798-.578-4.148-.77-3.664 1.35-7.81-.675-11.668.29-2.796.19-5.014-.965-7.81.287-.58.098-1.062.098-1.544.29-5.69 0-11.572-.577-17.165.097-2.796 0-5.497-.097-8.004-1.448-.482-.385.097-.963.58-1.156.674 0 1.64-.193 2.7.676 2.024-.87 3.856.096 5.592-.29 1.446.386 3.086.48 4.63.097 3.277-1.93 6.75.288 10.124.192 3.28-.098 6.558-1.352 9.933-.965 3.47.482 7.52.77 11.09.385 1.156-.385 2.506.193 3.567-.19 1.06.19 2.507.095 3.47.77 1.35-.193 2.99-.482 4.34-.87.772.388 1.93.29 2.605.483 3.665.29 4.436.77 7.81-.385 2.22.77 1.352-1.545 3.28-2.027 1.253-.48.578-1.06.578-1.734-.29-1.544 1.253-2.702.58-4.052-.483-1.254-.098-2.893-1.062-4.242-.097-.387-.097-.87.386-.87 1.255-.287 1.45.965 2.122 1.736zM856.876 1261.264c1.446.193 2.41 1.64 4.05 1.64 3.086 1.544 5.98 2.315 9.74 2.507.58.292 1.543.388 2.218.58 2.122.192 4.05 1.157 6.075 1.157 1.252.387 2.99-.29 4.145 1.254 1.543-.384 2.7-.77 3.665-1.253.386-.77 1.446-1.736 1.35-2.797.675-1.06.096-1.928.58-3.28.578-1.83.578-2.892 1.542-4.82.482-.386.964-.77 1.543-.675.385.965 0 2.123 0 3.28-1.254 2.507-1.06 3.856-1.93 7.136.772.48.483.868.772 1.062 2.41.385 5.015.096 7.04-.387 1.253.193 2.314-.29 4.243-.29.386-1.155 1.253-.288 1.832-.577 3.472-.29 6.558-2.22 10.126-2.41 1.543-1.352 4.146-1.158 5.69-2.316 1.83.193 2.795-2.217 5.11-1.64 1.156-.866 2.217-1.927 3.664-1.927.385.29.77.578 1.156.963-.192 1.447-1.832 1.543-2.893 2.316-1.64.19-3.182.578-4.34 1.64-2.12-.1-3.375 1.735-5.4 1.638-.77.482-1.542.58-2.12.965-.772-.098-1.447.193-2.026.482-4.436 0-7.908 2.892-12.344 2.603-.58.387-1.64.387-2.218.482-4.725 1.64-10.222 1.35-15.043 1.254-2.218-.58-4.918 0-6.847-.966-5.98-1.06-11.765-3.473-17.454-5.016-2.7-1.06-5.208-2.7-7.715-4.05-2.798-1.542-6.076-2.603-8.1-5.4 0-.192 0-.48.192-.577 4.34 2.795 8.873 5.303 13.694 7.424zM838.168 1233.203c0 2.988-.097 5.883.675 9.16 7.232.482 14.176.482 19.77-1.35 1.54-.29 3.084-.482 4.338-.965 6.076-1.734 10.608-.482 16.587-2.604 3.76-.29 7.136-1.06 10.704-1.64 5.015-.866 10.223-.288 14.852-1.35 2.99 0 6.557-.386 9.74-1.253 2.604.097 5.304-1.06 7.907-1.542.386.193.867.578 1.06.867-.385 2.893-4.63 1.254-6.46 2.123-6.558 1.252-12.922 1.928-18.998 2.12-3.664.097-7.52 1.062-11.282 1.544-3.76.482-6.558.77-10.32.77-1.06.58-2.506.772-3.856.48-1.254 1.16-2.507.483-3.472 1.16-3.182.48-6.558 1.35-10.03 1.83-3.085 0-6.46 1.833-9.257 1.35 0 0-.482.194-.58.292-2.795-.098-6.17.29-10.028-1.158-.77 2.22-.192 4.436-.385 6.076-.58 6.074 1.253 11.668.29 17.357 0 .48.578 1.155.192 1.638-.386.387-.77.098-1.157 0-1.06-1.445-.77-3.76-.77-5.4-.676-.77.096-2.314-.194-3.277.58-5.98-.386-11.86-.386-17.26 0-5.017-.964-11.09-1.253-16.202-.386-.867.386-1.447.868-1.832.097 0 0-.193.097-.098.963 2.898 1.348 5.982 1.348 9.165zM840.29 1204.95c.192 1.638.868 2.796 1.157 4.53-.578 2.604-.096 4.918.868 8.102 1.35-.676 2.314-.482 2.796-.29 1.834-.192 4.147.29 5.98.194 1.736-.387 3.857-.58 5.593-.58 2.7-1.35 6.075-1.736 8.775-2.314 1.542.387 3.375 0 4.822.193 6.557 0 13.308-1.64 19.48-2.508 1.156.098 2.892-.193 3.953.098.193-.098.675-.098.77-.193 4.822-.193 8.68-.29 13.5-.29 2.22 0 4.147.386 6.173.483h-.097c-2.508 1.832-5.98 1.156-8.68 1.734-3.954-.964-8.1 1.06-12.344-.58-2.507 2.605-5.497.58-8.1 1.448-2.41-.29-5.304-.193-7.33 1.06-.963-.097-1.83.29-3.18-.192-2.315 1.35-5.21.676-7.62.676-3.954-.87-7.136 1.734-10.896 1.254-2.7 1.35-5.786 1.156-8.872 1.156-.964-1.06-2.507-.096-4.436-2.22-.675 4.245-.29 6.753-.482 9.356.482 2.023-.29 4.242 0 6.46-.096.097-.096.192-.193.29-.77-.098-.964-.965-1.254-1.543.58-1.93.482-3.857 0-5.787-.385-.48 0-1.35.097-2.312-1.06-1.447-.193-3.568-.964-4.92.482-1.543-.193-3.182-.097-4.725-.87-1.542.29-3.567-.58-5.11 0-1.35-1.832-2.7-.29-3.76.098-.098.29-.193.483-.29.388.097.87.192.967.58zM923.03 1187.59c-.965 2.123-3.28 2.316-4.92 3.473-2.216 1.158-4.628 2.314-7.135 2.604-.675.387-1.64.482-2.41.578-6.462 1.158-12.73 3.762-19.48 3.955-4.63.963-9.74.48-14.754.385-4.145 0-9.45-1.156-13.596-2.988-2.025-.482-4.243-1.254-5.69-2.508-2.122-.58-3.76-2.122-5.593-3.28-.384-.676-.867-1.35-.867-2.025 0-.096-.097-.193-.097-.193 1.93.482 3.76 1.93 5.69 3.088 1.543.867 2.41 2.023 4.05 2.41 2.797.578 5.015 2.508 7.908 2.314 5.304 1.35 11.09 1.254 17.455.867-.965-2.216.674-3.085-.098-4.435.097-.578.193-.965.386-1.35.29-.29.482-.578.868-.29l.482.483c-.193.578.193.963.482 1.252-.29 1.254 0 2.508-.193 4.05 4.726.483 7.908-.866 11.765-1.06 1.64-.77 4.146-.965 6.172-1.543 1.832-.578 4.05-.578 5.786-1.64 1.446.192 3.086-.29 4.242-1.735 2.508.096 4.437-1.736 7.33-2.314v-.482c.48-.193 1.445-1.254 2.604-.867-.098.48-.194.865-.387 1.25zM906.443 1139.182c-.193-.096.868-.29 1.253-.19h.77c.58.19 1.35.48 1.93.384 1.35.578 2.7.29 3.857.867 2.314 1.062 5.4 2.025 7.908 4.148 1.544 1.64 3.57 2.313 5.112 3.76.29.868.674 1.255.48 2.026-1.542.096-2.313-2.12-3.76-2.7-1.06-.964-2.604-1.253-3.472-2.507-.192-.1-.58-.483-.77-.58-.193-.097-.29-.29-.29-.29-.097 0-.482-.19-.482-.29-.868-.866-1.157-.964-1.157-.577-.674-.193-1.156-.676-1.83-.578-.29-.098-.58-.29-.772-.578-1.157.19-1.447-.387-2.025-.482-1.06-.58-2.7 0-3.857-.387-.58.098-1.06-.482-1.736-.385-2.314-.676-3.28-.098-5.786.096-3.182 1.157-3.278.868-5.304 1.638-1.543.58-2.41.77-3.857 1.447s-2.025 1.447-3.472 2.12c-1.35.58-2.217.388-3.47.87-1.447.578-2.315 1.252-3.665 1.832-1.35.674-2.41.965-3.954 1.64-1.446.868-2.217 1.735-3.953 2.218-.482 0-1.157.096-1.64.096-.48-.095-1.06.097-1.35.097-.29.098-.77-.096-1.06-.19-1.736.577-2.7-.58-4.533-.388-1.736-.483-3.472-.675-5.497-1.35-1.93-1.062-4.436-1.544-6.558-2.99-2.22-1.157-4.437-2.894-6.076-5.015-.193-.29-.964-1.06-.29-.965 1.737.77 3.28 2.508 5.112 3.184 4.918 3.084 10.03 4.918 15.14 5.398.578.29 1.253 0 1.93.29.963 0 2.313.29 3.374.097 3.472.386 2.7-1.157 4.146-1.737 1.543-.578 2.507-.482 3.857-1.156.964-.578 1.446-1.254 2.604-1.736.964-.577 1.64-1.06 2.893-1.253 2.893-.29 2.99-.867 4.436-2.12.675-.388 1.06-.868 1.832-1.157.675-.58 1.254-.29 2.122-.58 1.157-.29 1.736-.674 2.893-1.06 1.06-.386 2.218-.868 2.796-.868 2.024-.87 3.182-.29 5.11-.482.58-.003 1.16.382 1.063.382zM840.29 1111.312c.192 1.64.868 2.797 1.157 4.533-.578 2.604-.096 4.918.868 8.1 1.35-.674 2.314-.482 2.796-.29 1.834-.192 4.147.29 5.98.194 1.736-.388 3.857-.58 5.593-.58 2.7-1.35 6.075-1.735 8.775-2.313 1.542.385 3.375 0 4.822.19 6.557 0 13.308-1.638 19.48-2.505 1.156.096 2.892-.193 3.953.096.193-.096.675-.096.77-.193 4.822-.19 8.68-.29 13.5-.29 2.22 0 4.147.388 6.173.483h-.097c-2.508 1.832-5.98 1.158-8.68 1.736-3.954-.965-8.1 1.06-12.344-.578-2.507 2.604-5.497.578-8.1 1.445-2.41-.288-5.304-.192-7.33 1.062-.963-.096-1.83.29-3.18-.19-2.315 1.35-5.21.673-7.62.673-3.954-.867-7.136 1.736-10.896 1.254-2.7 1.35-5.786 1.155-8.872 1.155-.964-1.06-2.507-.096-4.436-2.217-.675 4.242-.29 6.75-.482 9.354.482 2.025-.29 4.244 0 6.46-.096.1-.096.194-.193.29-.77-.096-.964-.963-1.254-1.543.58-1.93.482-3.856 0-5.786-.385-.482 0-1.35.097-2.314-1.06-1.445-.193-3.568-.964-4.918.482-1.543-.193-3.182-.097-4.725-.87-1.543.29-3.568-.58-5.11 0-1.35-1.832-2.702-.29-3.763.098-.096.29-.19.483-.29.388.098.87.194.967.578zM918.98 1085.096c.77.387 1.542 0 2.41.193.675 0 1.156.192 1.736.577.096.482-.482.87-.772 1.352-.675.866-1.446-.483-1.64-.483-.192-.387-1.156.482-2.12-.965-1.93.578-3.665.578-5.016.193-2.7.29-5.69-.482-8.293.578-1.06.096-1.64 1.35-2.122 1.928-.096 0-.482 1.16-1.35 1.544-1.253 1.158-3.086 2.99-3.665 3.473-.482.482 0-.578-.868.385-.482.387-.29.58-.964 1.64-.868 1.062-2.604 2.894-2.99 3.376-.578 1.156-1.157 2.506-1.832 4.05 2.025 1.35 4.05.964 5.4 1.833 1.736.097 3.857.48 5.69.964 1.06-.867 1.832.193 2.603.193 1.06.578 2.7.482 3.954 1.06 2.412.388 4.533 1.833 7.233 1.353.964.19 2.122.578 3.086.867-.098.19-.193.385-.387.385-1.64.29-3.086-.578-4.533-.482-.385-.29-.674-.385-1.06-.29-.772-.095-1.544-.288-2.218-.288-1.543-.482-2.604.387-5.11-1.254 0 1.447.192.58.192.58-1.447-.387-3.472-.965-5.4-.87-1.157-.77-2.604-.48-3.76-.77-2.7-.29-4.533-1.35-7.137-1.156 0 0-.097-.098-.193-.098-.77-.48-1.64-.19-2.122-.674-5.882-1.64-11.86-3.28-17.744-4.918-1.35-.676-2.507-.965-3.954-1.543-1.93-.677-3.76-1.833-5.786-2.605-2.025-.77-3.954-2.025-6.268-2.7-.58-.29-1.543.192-1.543-.772 0-.29-.29-.965-.097-1.06.675-1.062 2.604-1.062 3.568-1.544 2.314-.194 5.593-.677 8.39-1.255 1.06-1.254 2.7-.29 3.954-.77 4.725.192 9.644-2.218 15.043-1.544 6.847-1.06 14.465-1.638 20.926-1.06 4.923.384 9.84-.098 14.76.576zm-29.22 1.64c-1.254-.482-3.183.674-5.11.29-2.315-.388-4.823.384-7.137.77-2.218-.387-3.954.965-6.17.77-1.448.194-3.858.194-5.787.58-3.182.577-6.075 1.446-9.74 1.735 1.447 1.64 4.05 2.796 4.436 2.894 2.025.676 3.665 1.832 5.497 2.41 2.796.965 5.207 1.93 7.81 2.7 1.833.483 4.243 1.062 5.882 1.35 1.833-.095 4.436 1.544 6.943 1.93 1.447.192.77.868 2.796.29.772-1.832 1.93-3.086 2.605-4.727.868-1.156 1.35-1.252 2.604-2.604.867-.867 1.735-2.217 2.7-3.47.867-.966 2.024-2.026 2.603-2.702 0-.19 1.157-1.444 1.157-2.216-1.35-.29-2.893-.29-3.76-.387-2.605-.382-4.63.003-7.33.39zM890.82 1058.385c3.762.29 7.62 1.156 11.67 1.64 4.917.577 10.028 1.155 14.657 3.47 2.41 2.412 5.4 3.666 7.33 6.848.288 1.736 1.542 1.447.963 3.568.097.29-.192 0-.192-.386-2.22.098-1.157-.482-2.797-2.7-2.507.772-4.34-.386-6.17.386-7.715-.482-14.37 0-21.89.77-1.833.87-4.147.87-6.27.58-1.35-.48-2.796.48-4.435.192-5.015-.29-10.607-.29-15.525.387-3.665-.194-7.233 0-10.994.384-1.446-.29-3.086-.77-5.11-.19-.58 1.35-1.254 1.06-.772 2.216-.193.193-.386.482-.675.676-.29-.098-.58 0-.87-.29.387-2.796 2.22-4.34 3.955-6.46 3.375-3.086 7.714-4.533 11.38-7.52 2.41-1.544 4.917-1.737 7.52-2.798 3.28-.482 6.943-.29 10.125-.965 2.7.674 5.304.48 8.1.192zm-15.236 2.41c-3.76-.193-6.364 1.543-9.932 2.604-.193.192-1.06 1.06-1.543 1.35-2.7 1.93-5.884 2.796-8.776 6.653 3.472-.29 5.208.965 6.847.29 2.412.288 4.533-.966 6.944-1.062 3.47 1.062 7.232.194 10.8.677 3.28.385 6.847-.387 10.222-.58 5.98-2.312 12.922-.674 19.094-1.35 2.99 0 6.46-.482 11.186.098-1.832-3.857-5.11-4.533-7.328-5.787-5.69-1.543-11.38-2.508-17.262-3.086-1.157-.19-2.604.29-3.665-.385-5.303.29-11.668-1.543-16.586.578zM838.168 1037.266c0 2.99-.097 5.883.675 9.162 7.232.48 14.176.48 19.77-1.352 1.54-.29 3.084-.482 4.338-.963 6.076-1.736 10.608-.482 16.587-2.604 3.76-.292 7.136-1.063 10.704-1.642 5.015-.867 10.223-.29 14.852-1.35 2.99 0 6.557-.387 9.74-1.254 2.604.098 5.304-1.06 7.907-1.543.386.194.867.58 1.06.868-.385 2.895-4.63 1.254-6.46 2.123-6.558 1.255-12.922 1.93-18.998 2.122-3.664.096-7.52 1.06-11.282 1.543-3.76.482-6.558.77-10.32.77-1.06.58-2.506.772-3.856.483-1.254 1.156-2.507.482-3.472 1.156-3.182.482-6.558 1.35-10.03 1.832-3.085 0-6.46 1.832-9.257 1.352 0 0-.482.19-.58.29-2.795-.1-6.17.288-10.028-1.16-.77 2.22-.192 4.437-.385 6.077-.58 6.074 1.253 11.668.29 17.357 0 .482.578 1.156.192 1.64-.386.386-.77.097-1.157 0-1.06-1.446-.77-3.76-.77-5.4-.676-.772.096-2.315-.194-3.278.58-5.98-.386-11.86-.386-17.262 0-5.016-.964-11.09-1.253-16.2-.386-.868.386-1.448.868-1.833.097 0 0-.194.097-.1.963 2.898 1.348 5.984 1.348 9.166zM910.686 992.617c3.76.965 6.46 4.148 10.222 5.305.578 1.06 1.832 1.64 2.41 2.7-.867.29-1.832-.58-2.604-.964-.674-.676-1.35-1.06-2.314-1.158-2.12-1.543-5.014-2.217-7.232-3.953-1.64-.578-4.05-.77-5.882-1.64-3.28-.192-6.558-.192-9.74.386-3.086.578-6.075 1.832-8.486 3.955-3.183 1.54-6.847 2.7-10.32 3.47-5.4 2.7-12.246 2.41-17.84.194-3.278 0-5.11-2.797-8.1-3.184-.867-.674-1.64-1.35-2.7-1.736-.578-.48-.29-1.252-.77-1.928 0-.193-.386.096-.193.193 1.35.096 2.796.676 3.954 1.254 5.112 3.954 11.96 4.147 18.13 5.497 4.34-.193 7.908-2.22 12.054-3.182 2.604-1.64 5.882-2.22 8.486-3.857 1.928-.193 3.47-2.412 5.496-1.93 4.34-1.543 9.45-1.543 13.597 0 .58.29 1.158.483 1.833.58zM882.238 976.514c1.832 1.447 3.954 2.797 5.593 4.918 7.233-.578 13.887.87 20.25.676 2.797-.096 4.727-1.832 7.33-1.64.097.772.676 1.544 1.64 1.833.193.194.193-.577-.096-.48-.098.095-.676.192-.77.192-3.474 2.314-8.68.674-12.923 1.252-1.542.387-3.76 1.062-5.014 0-5.786-1.06-12.73.482-18.42-.77-4.145-.193-8.58.963-12.535.096-5.978-.482-11.957.193-18.032-.676-2.025.77-3.664 0-5.786-.096-.58-.387-1.736 0-2.025-.676.386-.482.193-1.254.77-1.64 2.22-1.83 5.21-2.313 7.427-3.663 2.218-.388 4.146-.87 6.075-1.93.192-.29.385-.58.578-.675 2.507-.193 5.014-1.93 7.714-.87 6.172.678 12.923.967 18.226 4.15zm-24.88-2.024c-2.025 1.445-4.628 2.023-6.75 2.604-.77 1.254-3.086.867-4.243 2.023 1.157 1.834 2.796.965 3.954 1.158 5.88 1.156 11.957.29 18.032.676 2.41.964 4.532-.097 6.943.097 2.7.193 5.4-1.06 7.908.193l.868-1.06c-1.156-1.737-2.795-2.99-4.917-3.57-1.832 0-3.568-.964-5.4-1.735-3.28-.867-6.557-.676-10.03-.867-2.12-.098-3.857 1.156-6.365.482zM922.546 960.22c.29.095.482.192.676.386-.868 2.217-3.472.963-5.496 1.54-1.736.29-3.376 0-5.11.1-4.727.095-9.452-.1-13.984 0-2.41 0-5.593.19-8.1-.1-1.64-.19-3.665 0-5.305.1-3.954.384-7.715 0-11.86.288-.194-.193-.387-.193-.58-.193-1.736.868-3.664.097-5.304.388-3.954.19-7.714.578-11.572.578-2.7-1.158-5.496.578-8.292-.098-.386-.096.58-1.156.868-1.156 4.244-2.893 9.162 1.156 13.887-.193 5.593-1.544 11.86-.966 17.358-1.253 5.498-.29 10.705.19 16.298 0 1.543-.193 3.086-.193 4.726-.193.386 0 .868.096 1.253.096 4.243-.096 8.486-.096 12.247-.676 2.893.77 5.304.29 8.292.385zM856.876 943.826c1.446.193 2.41 1.64 4.05 1.64 3.086 1.542 5.98 2.313 9.74 2.507.58.29 1.543.387 2.218.578 2.122.194 4.05 1.16 6.075 1.16 1.252.384 2.99-.292 4.145 1.25 1.543-.384 2.7-.77 3.665-1.25.386-.772 1.446-1.737 1.35-2.798.675-1.06.096-1.93.58-3.28.578-1.83.578-2.892 1.542-4.82.482-.386.964-.772 1.543-.675.385.965 0 2.12 0 3.277-1.254 2.508-1.06 3.857-1.93 7.137.772.483.483.868.772 1.062 2.41.387 5.015.098 7.04-.385 1.253.19 2.314-.29 4.243-.29.386-1.157 1.253-.288 1.832-.577 3.472-.29 6.558-2.22 10.126-2.412 1.543-1.35 4.146-1.156 5.69-2.314 1.83.193 2.795-2.22 5.11-1.64 1.156-.868 2.217-1.93 3.664-1.93.385.29.77.58 1.156.966-.192 1.447-1.832 1.543-2.893 2.314-1.64.193-3.182.578-4.34 1.64-2.12-.097-3.375 1.735-5.4 1.64-.77.48-1.542.578-2.12.963-.772-.096-1.447.193-2.026.482-4.436 0-7.908 2.892-12.344 2.604-.58.385-1.64.385-2.218.482-4.725 1.64-10.222 1.35-15.043 1.252-2.218-.578-4.918 0-6.847-.965-5.98-1.06-11.765-3.47-17.454-5.014-2.7-1.062-5.208-2.702-7.715-4.052-2.798-1.543-6.076-2.604-8.1-5.4 0-.19 0-.482.192-.578 4.34 2.797 8.873 5.303 13.694 7.426zM924.67 913.45c1.252.48 2.12-.192 3.084 0-.29.675-.77 1.253-.77 2.024-.387 1.06-1.736 1.254-2.508 2.025-.77.192-.868 1.253-1.736 1.83-2.025 1.255-3.857 2.605-5.883 4.052-3.953.965-7.52 3.664-12.15 4.146-3.568 1.64-8.197 1.543-12.15 1.64-2.41 1.93-6.27.192-9.162 1.253-1.446.194-2.314-.384-3.47-.384-3.955 1.06-7.523-.482-11.188-1.06-2.604-1.16-5.4-1.448-7.907-2.798-.77-.578-1.93-.387-2.7-.676-3.086-2.025-6.654-3.28-9.45-5.496-1.35-.29-1.736-1.93-3.086-2.22-.482-.673-1.447-1.253-.868-2.698-.868-.676-1.64-2.025 0-1.736.386-.29.58-.096.097.29 3.182 3.856 8.39 7.425 13.5 10.126 1.93 0 3.857 1.06 5.015 2.023 3.954 1.062 7.618 2.51 11.668 2.51 1.446 0 2.893.288 4.146-.097 2.507.29 4.822.965 7.425.29 2.507-.194 5.015-.483 7.425-.966 7.715-1.543 16.104-1.928 22.47-6.172 2.313-1.543 3.952-2.893 5.978-5.207-.29-.482 1.254-.385.965-1.06-5.98.288-13.405.48-18.805.866-2.41 1.06-5.208-.19-7.812.193-2.314.29-4.725-.29-7.136-.193-1.157 0-2.218-.19-3.28.193-1.735-.29-3.953.193-5.4-.77-.674-.58.87-.483 1.062-.868 1.543-.58 3.086-.772 4.822-.1 1.35.194 2.7-.673 3.954-.673 3.568 0 6.654.963 9.064.674 0-.288 1.157 0 2.122 0 .675-.192 1.35-.192 1.736-.095 2.122 0 3.472-.387 5.4-.098 3.472-.867 7.812 0 10.607-.77.867-.193.77-.098 1.64-.193 1.446.004 2.12-.48 3.28.197zM923.03 894.357c-.965 2.12-3.28 2.314-4.92 3.47-2.216 1.16-4.628 2.315-7.135 2.606-.675.385-1.64.48-2.41.578-6.462 1.157-12.73 3.76-19.48 3.954-4.63.965-9.74.482-14.754.385-4.145 0-9.45-1.157-13.596-2.99-2.025-.48-4.243-1.253-5.69-2.507-2.122-.578-3.76-2.12-5.593-3.277-.384-.676-.867-1.352-.867-2.025 0-.097-.097-.192-.097-.192 1.93.482 3.76 1.928 5.69 3.086 1.543.867 2.41 2.025 4.05 2.41 2.797.58 5.015 2.508 7.908 2.314 5.304 1.35 11.09 1.254 17.455.867-.965-2.217.674-3.084-.098-4.436.097-.58.193-.964.386-1.35.29-.29.482-.58.868-.29l.482.482c-.193.578.193.965.482 1.254-.29 1.254 0 2.506-.193 4.05 4.726.48 7.908-.868 11.765-1.062 1.64-.77 4.146-.963 6.172-1.543 1.832-.577 4.05-.577 5.786-1.638 1.446.193 3.086-.29 4.242-1.736 2.508.098 4.437-1.734 7.33-2.314v-.482c.48-.19 1.445-1.252 2.604-.867-.098.483-.194.868-.387 1.254zM917.628 871.504c-.29 2.025.098 3.76.77 5.4-.095.482-.48.963-.77 1.06-1.253 1.833 1.158 5.112-2.024 6.075-1.062.288-2.218-.192-3.086.58-3.375 1.25-4.436.288-7.715.577-2.893.193-6.364-1.254-9.16 0-1.544 0-2.798-.578-4.148-.77-3.664 1.35-7.81-.677-11.668.288-2.796.193-5.014-.965-7.81.29-.58.097-1.062.097-1.544.288-5.69 0-11.572-.578-17.165.098-2.796 0-5.497-.097-8.004-1.446-.482-.387.097-.965.58-1.156.674 0 1.64-.193 2.7.674 2.024-.867 3.856.096 5.592-.29 1.446.386 3.086.483 4.63.097 3.277-1.93 6.75.288 10.124.192 3.28-.096 6.558-1.35 9.933-.965 3.47.482 7.52.77 11.09.387 1.156-.387 2.506.193 3.567-.193 1.06.194 2.507.1 3.47.772 1.35-.193 2.99-.482 4.34-.867.772.385 1.93.29 2.605.482 3.665.29 4.436.77 7.81-.387 2.22.77 1.352-1.543 3.28-2.025 1.253-.482.578-1.06.578-1.734-.29-1.542 1.253-2.7.58-4.05-.483-1.254-.098-2.893-1.062-4.244-.097-.385-.097-.867.386-.867 1.255-.29 1.45.962 2.122 1.734zM840.29 843.057c.192 1.64.868 2.797 1.157 4.53-.578 2.605-.096 4.92.868 8.1 1.35-.673 2.314-.48 2.796-.286 1.834-.194 4.147.288 5.98.192 1.736-.387 3.857-.578 5.593-.578 2.7-1.35 6.075-1.736 8.775-2.314 1.542.387 3.375 0 4.822.193 6.557 0 13.308-1.64 19.48-2.508 1.156.096 2.892-.193 3.953.096.193-.095.675-.095.77-.19 4.822-.193 8.68-.29 13.5-.29 2.22 0 4.147.386 6.173.48h-.097c-2.508 1.833-5.98 1.16-8.68 1.737-3.954-.963-8.1 1.06-12.344-.578-2.507 2.603-5.497.577-8.1 1.446-2.41-.29-5.304-.193-7.33 1.06-.963-.097-1.83.29-3.18-.192-2.315 1.35-5.21.676-7.62.676-3.954-.87-7.136 1.734-10.896 1.252-2.7 1.352-5.786 1.158-8.872 1.158-.964-1.06-2.507-.096-4.436-2.22-.675 4.243-.29 6.75-.482 9.355.482 2.025-.29 4.244 0 6.46-.096.1-.096.194-.193.292-.77-.098-.964-.965-1.254-1.543.58-1.93.482-3.857 0-5.787-.385-.482 0-1.35.097-2.314-1.06-1.445-.193-3.568-.964-4.918.482-1.543-.193-3.182-.097-4.725-.87-1.543.29-3.568-.58-5.11 0-1.35-1.832-2.7-.29-3.76.098-.1.29-.194.483-.292.388.096.87.192.967.58zM906.443 796.865c-.193-.098.868-.29 1.253-.193h.77c.58.193 1.35.482 1.93.385 1.35.58 2.7.29 3.857.87 2.314 1.06 5.4 2.024 7.908 4.145 1.544 1.64 3.57 2.314 5.112 3.76.29.87.674 1.254.48 2.025-1.542.098-2.313-2.12-3.76-2.7-1.06-.964-2.604-1.253-3.472-2.507-.192-.096-.58-.482-.77-.578-.193-.098-.29-.29-.29-.29-.097 0-.482-.192-.482-.288-.868-.87-1.157-.965-1.157-.58-.674-.19-1.156-.674-1.83-.578-.29-.096-.58-.29-.772-.578-1.157.193-1.447-.387-2.025-.482-1.06-.578-2.7 0-3.857-.385-.58.097-1.06-.48-1.736-.386-2.314-.676-3.28-.096-5.786.098-3.182 1.156-3.278.867-5.304 1.64-1.543.577-2.41.77-3.857 1.444-1.446.676-2.025 1.447-3.472 2.123-1.35.577-2.217.384-3.47.866-1.447.578-2.315 1.254-3.665 1.832-1.35.676-2.41.965-3.954 1.64-1.446.868-2.217 1.735-3.953 2.218-.482 0-1.157.096-1.64.096-.48-.096-1.06.098-1.35.098-.29.096-.77-.098-1.06-.193-1.736.578-2.7-.578-4.533-.385-1.736-.482-3.472-.676-5.497-1.352-1.93-1.06-4.436-1.543-6.558-2.988-2.22-1.158-4.437-2.893-6.076-5.016-.193-.29-.964-1.06-.29-.965 1.737.774 3.28 2.51 5.112 3.185 4.918 3.086 10.03 4.918 15.14 5.4.578.29 1.253 0 1.93.29.963 0 2.313.288 3.374.095 3.472.387 2.7-1.156 4.146-1.734 1.543-.58 2.507-.482 3.857-1.158.964-.578 1.446-1.254 2.604-1.736.964-.578 1.64-1.06 2.893-1.252 2.893-.29 2.99-.87 4.436-2.123.675-.385 1.06-.867 1.832-1.156.675-.577 1.254-.288 2.122-.577 1.157-.29 1.736-.676 2.893-1.062 1.06-.384 2.218-.866 2.796-.866 2.024-.867 3.182-.29 5.11-.482.58-.003 1.16.383 1.063.383zM922.546 784.424c.29.098.482.193.676.387-.868 2.22-3.472.966-5.496 1.544-1.736.29-3.376 0-5.11.096-4.727.098-9.452-.096-13.984 0-2.41 0-5.593.193-8.1-.096-1.64-.193-3.665 0-5.305.096-3.954.387-7.715 0-11.86.29-.194-.192-.387-.192-.58-.192-1.736.867-3.664.096-5.304.385-3.954.193-7.714.578-11.572.578-2.7-1.155-5.496.58-8.292-.095-.386-.096.58-1.156.868-1.156 4.244-2.896 9.162 1.155 13.887-.194 5.593-1.543 11.86-.965 17.358-1.254s10.705.193 16.298 0c1.543-.193 3.086-.193 4.726-.193.386 0 .868.097 1.253.097 4.243-.098 8.486-.098 12.247-.676 2.893.77 5.304.288 8.292.384zM930.166 763.5c1.254 1.06 0 .963-.193 1.35-5.4 4.724-12.922 3.76-18.707 7.52-4.147 1.544-8.583 2.122-12.633 3.087-3.182.096-6.075 1.447-9.065.87-.964.77-2.41 0-3.47.384-6.944 0-10.898-1.35-16.298-2.507-1.833.193-3.76-.385-5.208-1.64-2.507.29-4.532-.48-6.365-1.446-4.436-1.64-8.872-3.375-12.054-6.46 0 .097-.58-.193-.29-.386.77-.48 1.64.387 2.41.772 4.534.386 7.427 3.664 11.477 4.63 1.832.962 3.857.962 5.593 1.638 7.425 1.93 12.343 3.568 20.154 3.664.097 0 .29-.674.29.096 6.654-.385 12.343-1.928 18.42-2.602 6.17-1.93 12.342-4.148 18.514-6.077 1.64-1.06 3.57-1.928 5.69-2.7.58 0 1.64-1.06 1.93-.673.095 0 .77 0-.194.483zM918.11 733.123c-1.155.87-2.698 1.447-3.856 2.41-4.725 1.35-9.835 2.605-14.947 2.605-3.664.578-7.425 1.35-10.993 2.218-1.93-.193-4.146-.58-6.364-.096-.29.77-.29 1.06-1.447 1.35 1.06 2.797 3.28 4.726 4.34 6.75.578.29 1.156 1.06.963 1.735-.386 1.157.193 1.157.868 1.833.868 0 1.64.096 2.41.482 2.026-.675 3.57-.675 5.21-.097 1.83 1.062 3.374.29 5.4 0 3.856-.578 7.52-1.446 11.474-1.64 3.086-.096 6.172-.096 9.45-.096.29.097.58.193.483.482 0 .288-.386.578-.675.674-4.82.29-9.45.482-13.693 1.833-3.182-.097-5.786.868-8.775.578-7.136-.675-14.658 0-21.408.87-2.99-.676-5.304.577-8.197.384-7.522-.58-15.333-.58-21.987-2.797-.964-.29-.482-1.062-.964-1.736.096-.29.58 0 .77-.096 2.315.483 4.34 1.543 6.655 1.447l.193.193c3.954-.193 7.618 1.06 11.09.867 2.604 1.447 5.497-.385 8.293.097 3.568.578 6.558-.675 10.03-1.158.48-.386 1.156-.77 1.83-1.542-1.156-3.086-4.724-5.015-5.11-7.52.482 0-.675-.773-.193-2.316-2.99-.868-5.4.29-7.618-.77-1.832-.483-3.665.48-5.593-.58-2.605 1.253-4.92.096-7.426.29-1.446-1.255-2.025 1.252-3.76.095-1.64.482-3.858.77-5.21 0 .097-.386.097-.675 0-1.06 1.448-.87 3.473.288 4.92-.87 2.12-.192 3.664.965 5.785.58 6.17-1.157 13.018.192 19.286-.193 4.34-.193 9.064.482 13.21-.964 6.558-1.062 13.405-1.93 19.577-3.182 1.543-.964 3.375-2.026 5.304-1.93.29.29.578.484.674.87zM890.82 682.014c3.762.29 7.62 1.157 11.67 1.64 4.917.578 10.028 1.157 14.657 3.47 2.41 2.412 5.4 3.666 7.33 6.848.288 1.735 1.542 1.446.963 3.568.097.29-.192 0-.192-.386-2.22.097-1.157-.482-2.797-2.7-2.507.77-4.34-.385-6.17.386-7.715-.482-14.37 0-21.89.772-1.833.868-4.147.868-6.27.578-1.35-.482-2.796.482-4.435.193-5.015-.29-10.607-.29-15.525.386-3.665-.193-7.233 0-10.994.385-1.446-.29-3.086-.77-5.11-.192-.58 1.35-1.254 1.06-.772 2.217-.193.193-.386.482-.675.675-.29-.097-.58 0-.87-.29.387-2.796 2.22-4.34 3.955-6.46 3.375-3.087 7.714-4.533 11.38-7.523 2.41-1.542 4.917-1.735 7.52-2.796 3.28-.482 6.943-.29 10.125-.964 2.7.674 5.304.48 8.1.192zm-15.236 2.41c-3.76-.192-6.364 1.543-9.932 2.604-.193.193-1.06 1.06-1.543 1.35-2.7 1.93-5.884 2.798-8.776 6.655 3.472-.29 5.208.964 6.847.29 2.412.29 4.533-.965 6.944-1.062 3.47 1.062 7.232.194 10.8.676 3.28.386 6.847-.385 10.222-.58 5.98-2.313 12.922-.674 19.094-1.35 2.99 0 6.46-.48 11.186.098-1.832-3.857-5.11-4.533-7.328-5.786-5.69-1.543-11.38-2.508-17.262-3.086-1.157-.193-2.604.29-3.665-.386-5.303.29-11.668-1.543-16.586.58zM925.537 645.755c2.41.29 4.05-.29 4.63.868 0 .097-.098.29-.098.385-3.568 2.026-8.197 1.158-12.344 2.315-7.33 1.06-14.852 1.64-21.602 3.375-1.543 2.122-3.28 5.015-2.218 7.81.096.098-.29 0-.675.676.676.964-.385 1.35-.385 2.122-.386 1.832-.193 4.146-.964 7.33 5.594 1.253 10.898 1.156 15.527 2.41 3.375.965 8.1-.58 11.475 1.158 1.254 0 2.797-.193 3.664.868.193.482-.674.482-1.06.482-3.954-.675-6.944-.386-10.704-.868-4.436-1.93-11.187-.29-16.008-2.218-1.736 0-4.436.482-5.786-.482-4.532-1.06-9.932.29-14.175-1.735-7.908.29-14.465-2.99-22.565-2.99-.386-.384-.386-1.06-1.253-1.156-2.314-.77-5.304.675-6.75-1.254.58-1.06 2.122-.578 3.28-1.446 9.74-2.122 18.707-6.364 28.64-8.197 2.796-1.35 6.268-1.735 9.354-2.99 1.06-.096 2.12-.288 3.085.097 1.928-.578 4.05-1.253 6.17-1.253 4.533-.095 8.584-2.217 13.31-1.83 1.446-.87 3.664-.193 5.207-.676 2.99-.29 6.075-1.06 8.872-1.832.578-.29.867-.482.965-.676.866-.385.963-.385 1.638-.29-.003.096.77-.194.77 0zm-36.452 7.81c-4.822 2.123-10.415 2.123-15.43 3.57-5.882 1.64-11.378 4.918-18.032 6.17 0 1.64.675 2.22 1.833 2.315 2.7.964 5.207 2.025 8.293 2.41 5.688.773 12.343.29 17.743 1.64 1.447 0 3.568 0 5.497.58.964-1.158 1.06-2.315 1.93-2.894 0-1.157.29-2.025.385-2.893.193-1.446.193-2.797.482-3.857.482-1.833.77-2.508.964-4.05 2.603-4.533-1.93-2.893-3.665-2.99zM913.29 625.408c-3.472 2.507-7.907 2.12-11.09 4.822-1.253.385-2.604 1.06-3.664 1.735-2.99-.096-6.076 1.833-10.126 3.665 2.604 1.06 4.533.77 5.883.386 5.69 0 10.704-.964 16.683-.097 1.64 0 3.665-.483 5.11.192 2.797.097 6.076-.675 8.486.675.098.096.098.096.193.193-2.025.578-4.63.385-6.654.29-1.734-.483-3.567.192-5.495.192-3.76.096-7.715-1.254-11.09.385-3.086.386-5.98-1.06-8.968 0-2.7.868-5.4-.482-7.908.77-4.63-.77-10.608.098-15.623-.77-5.69 0-11.476.386-17.068-.578-3.087-.098-4.34-.676-7.234-1.255-.096 0 .482-.675.482-.868 3.085-1.832 4.146-2.41 7.425-3.664 4.532-1.833 9.354-1.447 13.886-2.7 6.364.096 12.632.964 17.26 7.04 8.487-5.11 17.552-5.69 25.75-10.125 3.663-1.157 7.038-2.99 10.703-4.146.58 0 1.543-.386 2.218-.193-2.99 1.733-6.075 3.083-9.16 4.048zm-54.292 6.364c-1.253.386-2.796-.096-3.954.675-1.543-.193-2.99.675-4.243 1.157l-2.314 1.64c.868.096 4.244.385 5.208.578 1.253 1.253 3.47.675 5.014 1.06 7.136-.963 15.14.194 23.723-.192-1.253-1.543-2.506-1.93-3.182-2.604-1.35-1.35-5.11-2.797-7.618-3.857-4.34.578-8.968-.387-12.632 1.542zM922.546 611.135c.29.096.482.192.676.386-.868 2.218-3.472.965-5.496 1.544-1.736.29-3.376 0-5.11.096-4.727.096-9.452-.096-13.984 0-2.41 0-5.593.193-8.1-.096-1.64-.193-3.665 0-5.305.096-3.954.386-7.715 0-11.86.29-.194-.193-.387-.193-.58-.193-1.736.868-3.664.097-5.304.386-3.954.193-7.714.578-11.572.578-2.7-1.156-5.496.58-8.292-.095-.386-.097.58-1.157.868-1.157 4.244-2.893 9.162 1.157 13.887-.194 5.593-1.542 11.86-.964 17.358-1.253 5.498-.29 10.705.194 16.298 0 1.543-.192 3.086-.192 4.726-.192.386 0 .868.097 1.253.097 4.243-.097 8.486-.097 12.247-.675 2.893.77 5.304.29 8.292.385zM859.577 583.75c1.06 0 2.604-.097 3.76-.193 2.797-1.736 7.137 0 10.416.386 2.025-1.158 5.4-.482 7.522-.675 3.086-.77 7.136.193 10.704.193 6.267 0 13.5-.192 19.768-.48.964-.098 1.93-.676 2.796-.29.098.096.193-.097.29-.097-2.218 1.446-4.918 1.542-7.136 2.507-3.182 2.796-6.847 4.243-10.222 6.365-4.05 1.832-8.197 3.182-11.86 5.98-1.158.578-2.22 1.253-3.376 1.832l-2.797 1.35 3.183.193c7.52.482 14.56-1.35 22.276-.29 3.086 0 5.98-1.253 8.97-.674.77-.097 1.734 0 2.41 0-.097.193 0 .58-.097.675-.77 0-1.447.193-2.122.676-.77.386-1.735.386-2.604.58-2.605.29-5.21-.098-7.812.48-7.04.194-13.886-.674-20.733.098-3.182-.58-6.365 1.06-9.45.193-2.025.482-4.63-.58-6.172.58-4.63-.483-9.16-1.255-13.983-1.255-1.06-.385-2.7 0-3.182-1.157-.096-.096.58-1.06.58-.578 5.207-1.35 9.643 1.735 15.62 1.06 3.087-.385 6.27 0 9.548-.964.964-1.35 2.41-1.253 3.472-2.12 1.93-.29 3.857-.772 5.11-2.123 4.92-2.41 9.934-3.28 13.887-6.847 1.158-.482 2.314-1.06 3.568-2.122 0-.288 2.796-1.542 2.796-1.83-.097-.194-2.99.48-2.99.095-3.76 0-7.232-.675-10.222.386-5.4-1.35-10.993-1.445-16.78-.192-4.145-.482-8.39-1.06-12.44-.29-3.374-1.446-7.135 1.544-10.22-1.156-.29-.868-1.834-.58-1.737-1.64 3.278-.582 6.074 1.25 9.257 1.347zM915.7 573.238c0 .482-.675.772-1.06.868-1.447.964-3.473.097-5.015.87-.482 0-.868-.194-1.157-.483 0-.482.193-.675.386-.868 1.35-.386 2.7-2.604 4.34-.964 1.253-.097 1.83.193 2.507.578z"/></g><path d="M2048 0M2048 1536M0 1536M0 0" fill="none" stroke="#17192D" stroke-width="3"/></g></svg>