<?xml version="1.0" encoding="iso-8859-1"?>
<!-- Generator: Adobe Illustrator 13.0.0, SVG Export Plug-In . SVG Version: 6.00 Build 14948)  -->
<!DOCTYPE svg PUBLIC "-//W3C//DTD SVG 1.1//EN" "http://www.w3.org/Graphics/SVG/1.1/DTD/svg11.dtd">
<svg version="1.1" id="Ebene_1" xmlns="http://www.w3.org/2000/svg" xmlns:xlink="http://www.w3.org/1999/xlink" x="0px" y="0px"
	 width="2048px" height="1536px" viewBox="0 0 2048 1536" style="enable-background:new 0 0 2048 1536;" xml:space="preserve">
<g id="atxta_x5F_2">
	<g>
		<path style="fill:#17192D;" d="M1093.972,741.037c-7.617,3.375-14.176,7.812-20.828,12.247c-0.58,0.289-0.771,1.061-2.025,1.061
			c-3.086,3.087-6.942,3.375-9.74,6.173c-2.508,1.254-5.303,2.699-8.196,4.918c0.387,0.288,1.061,0.577,1.35,0.771
			c2.025,0.964,4.051,0.192,5.883,0.289c5.787,0.192,11.091-0.771,16.201-0.867c4.918,0,9.451-1.158,13.791-0.676
			c0.097,0.193,0.097,0.482,0.097,0.868c-0.289,2.218-2.798,0.675-3.857,1.061c-4.629,0.578-8.68,0.677-13.693,0.868
			c-6.172,0.387-12.248,0.098-18.42,0.771c-4.146,0.385-7.906,0-11.859,0.867c-6.559-0.771-13.213,2.604-19.77,1.254
			c-1.543,0-3.086,0.771-4.725,0.386c-0.677-0.482-3.763,0.097-2.22-1.351c5.017-0.771,10.224,0,15.332-0.675
			c7.716-0.29,15.912-0.771,21.603-5.689c0.965-0.289,1.736-0.964,2.41-1.446c2.412-1.446,5.016-2.507,7.041-4.629
			c2.024-0.675,3.856-1.832,5.496-2.989c2.893-2.893,6.75-3.953,9.934-6.172c0-0.385,0.289-0.289,0.48-0.385
			c0.868-0.388,1.543-1.158,2.604-1.929c0-0.388,2.795-0.966,2.699-1.255c-0.097-0.29-3.279-0.192-3.568-0.386
			c-4.436,0.964-9.932,1.35-15.043,1.832c-5.496,0.482-9.162,1.543-14.369,1.639c-1.832-0.385-4.436,1.447-6.268-0.096
			c-2.025,0-3.185-0.097-4.822,0.482c-1.444,0-2.893-0.193-4.629-0.193c-0.385-0.096-0.771,0.289-1.156,0.289
			c-1.641,1.062-2.508-1.446-3.762-0.289c-0.578,0.193-1.156,0.676-1.734-0.192c-3.086,0.868-5.498,0.387-8.102-1.062
			c-0.867,0.386-1.156-0.096-1.543-0.386c0-0.096,0-0.192,0-0.289c0.289-0.675,0.867,0.289,0.867,0.193c0,0,0.579,0.48,1.157-0.098
			c0.388-0.579,1.254,0.675,1.447,0.386c3.277,0.771,7.135,0.578,10.799,0.098c3.377,0.578,8.486-0.386,11.67,0.289
			c0.674-0.098,1.543-0.676,2.699-0.289c1.062-0.965,2.508-0.098,3.279-0.675c4.049-0.29,8.389-0.966,12.535-0.966
			c3.955-0.386,8.295-0.771,11.477-1.254c0.676,0.192,1.445-0.386,2.121,0.098c1.639-0.387,2.314-0.387,3.568-0.579
			c2.508-0.481,5.688-0.867,7.906-1.351c0.387,0,0.868-0.288,1.446-0.964c-0.481-0.868,0.578-0.481,0.677-0.481
			c0.866-0.387,2.313,0.386,3.76-0.098C1093.972,740.458,1094.069,740.748,1093.972,741.037z"/>
		<path style="fill:#17192D;" d="M1090.79,729.177c0.289,0.097,0.482,0.192,0.677,0.387c-0.869,2.218-3.474,0.964-5.498,1.543
			c-1.734,0.289-3.375,0-5.109,0.096c-4.728,0.097-9.451-0.096-13.984,0c-2.409,0-5.592,0.193-8.1-0.096
			c-1.639-0.193-3.664,0-5.305,0.096c-3.953,0.386-7.714,0-11.861,0.29c-0.191-0.193-0.385-0.193-0.578-0.193
			c-1.735,0.867-3.664,0.098-5.303,0.387c-3.955,0.191-7.715,0.579-11.572,0.579c-2.701-1.157-5.496,0.577-8.293-0.099
			c-0.387-0.096,0.578-1.156,0.867-1.156c4.244-2.894,9.16,1.156,13.887-0.191c5.594-1.544,11.861-0.965,17.357-1.254
			c5.496-0.29,10.705,0.191,16.297,0c1.543-0.193,3.086-0.193,4.727-0.193c0.386,0,0.867,0.097,1.252,0.097
			c4.244-0.097,8.486-0.097,12.248-0.675C1085.39,729.562,1087.8,729.08,1090.79,729.177z"/>
		<path style="fill:#17192D;" d="M1098.409,708.251c1.252,1.062,0,0.964-0.192,1.352c-5.4,4.725-12.923,3.76-18.709,7.521
			c-4.146,1.543-8.582,2.122-12.634,3.086c-3.182,0.098-6.073,1.446-9.063,0.867c-0.965,0.772-2.41,0-3.471,0.387
			c-6.943,0-10.898-1.351-16.298-2.508c-1.832,0.192-3.762-0.386-5.209-1.639c-2.506,0.288-4.53-0.482-6.362-1.447
			c-4.437-1.64-8.873-3.375-12.056-6.461c0,0.096-0.578-0.193-0.289-0.386c0.771-0.482,1.64,0.386,2.41,0.771
			c4.533,0.386,7.427,3.665,11.478,4.629c1.832,0.965,3.856,0.965,5.592,1.64c7.426,1.93,12.344,3.567,20.156,3.664
			c0.096,0,0.289-0.675,0.289,0.098c6.651-0.387,12.342-1.93,18.418-2.604c6.172-1.929,12.344-4.146,18.516-6.075
			c1.64-1.06,3.568-1.929,5.689-2.698c0.577,0,1.639-1.062,1.928-0.677C1098.698,707.769,1099.372,707.769,1098.409,708.251z"/>
		<path style="fill:#17192D;" d="M1093.489,674.018c0.098,0.288,0.098,0.675,0,0.965c-0.578,0.289-0.963,0.385-1.734,0.578
			c-0.481,0.097-0.965,0.097-1.446,0.097c-1.736,0.385-2.797,0.578-4.629,1.157c-0.386,0.191-0.578,0.386-0.964,0.578
			c-0.481,0-0.676-0.098-1.157-0.098c-2.025-0.096-4.726,0.675-5.207,0.482c-4.822,0.868-4.146,1.254-9.646,1.543
			c-3.953,0.192-6.846,0.578-10.51,0.965c0,1.929-1.254,3.761-1.543,5.496c-0.098,0.965-0.193,1.446-0.387,2.411
			c-0.385,1.254-1.156,1.832-0.965,3.183c0,2.7,0.192,0.867-1.351,3.567c-0.19,0.29-0.289,0.675-1.35,2.121
			c2.313-0.192,3.086-0.386,4.146-0.578c1.447,0.965,4.052,0.097,6.365,0.192c6.074,0.289,11.861-0.579,17.357-0.29
			c5.11,0.193,10.125-0.771,14.658-0.289c0.096,0.289,0.096,0.676,0.096,1.062c-0.385,2.313-3.086,0.579-4.146,1.062
			c-4.822,0.386-9.258,0.386-14.658,0.386c-6.557,0.192-13.112-0.386-19.768,0.097c-4.533,0.386-8.486-0.289-12.633,0.482
			c-7.041-1.157-14.176,2.313-21.119,0.676c-1.736-0.098-3.473,0.578-5.207,0.096c-0.867-0.481-3.955-0.192-2.314-1.543
			c5.4-0.578,10.992,0.098,16.49-0.097c8.101-0.385,3.183-0.771,5.303-0.964c2.798-0.29,4.437-0.193,7.33-0.193
			c2.604,0,4.049,0.29,6.847,0c0.579-1.35,0.965-2.121,1.543-3.277c1.254-2.411,0.387,0.964,0.965-3.568
			c0.192-1.446,0.289-1.832,0.289-3.278c0-1.254,0.577-1.833,0.866-3.086c0.289-0.868,0.193-1.832,0.388-3.472
			c-1.255,0-1.64,0.097-2.22,0.097c-2.024-0.578-4.819,1.446-6.651-0.289c-2.314-0.192-3.568-0.387-5.498,0.386
			c-1.351-0.097-2.797-0.289-4.531-0.481c-0.387-0.192-0.965,0.289-1.353,0.289c-1.543,0.868-2.506-1.641-3.952-0.481
			c-0.675,0-1.351,0.676-2.025-0.29c-3.182,0.868-5.688,0.579-8.389-1.157c-0.869,0.387-1.255-0.191-1.642-0.675
			c-0.096-0.097-0.19-0.289-0.096-0.481c0.289-0.771,0.771,0.386,0.965,0.289c0,0,0.578,0.481,1.156-0.097
			c0.578-0.481,1.061,0.771,1.641,0.482c3.664,0.867,7.617,0.867,11.379,0.385c3.664,0.868,9.064,0,12.535,0.868
			c0.869-0.097,1.642-0.771,2.99,0c1.156-1.253,2.604-0.289,3.471-0.868c4.438-0.096,8.969-0.481,13.404-0.578
			c4.34,0,2.895-0.675,6.172-1.157c0.676,0.192,1.736-0.288,2.219,0.098c1.254-0.193,2.41-0.193,3.664-0.386
			c2.604-0.388,6.172-0.579,8.486-1.157c0.385,0.191,0.867-0.098,1.543-0.868c-0.387-0.868,0.674-0.386,0.674-0.579
			C1090.405,673.438,1091.851,674.403,1093.489,674.018z"/>
		<path style="fill:#17192D;" d="M1008.532,647.21c0.193,1.641,0.869,2.797,1.158,4.532c-0.578,2.604-0.098,4.918,0.867,8.101
			c1.35-0.675,2.313-0.481,2.797-0.289c1.832-0.192,4.146,0.289,5.979,0.192c1.736-0.386,3.857-0.578,5.594-0.578
			c2.699-1.351,6.074-1.735,8.775-2.313c1.543,0.386,3.375,0,4.822,0.192c6.557,0,13.307-1.64,19.479-2.508
			c1.156,0.097,2.894-0.192,3.953,0.097c0.193-0.097,0.676-0.097,0.771-0.192c4.822-0.193,8.68-0.289,13.502-0.289
			c2.217,0,4.146,0.386,6.17,0.482h-0.096c-2.509,1.832-5.979,1.156-8.679,1.734c-3.954-0.964-8.102,1.062-12.344-0.578
			c-2.508,2.604-5.498,0.578-8.102,1.446c-2.41-0.289-5.304-0.191-7.328,1.062c-0.965-0.097-1.832,0.288-3.183-0.193
			c-2.313,1.351-5.209,0.676-7.619,0.676c-3.952-0.868-7.137,1.735-10.896,1.253c-2.701,1.352-5.787,1.158-8.873,1.158
			c-0.963-1.062-2.506-0.097-4.437-2.218c-0.674,4.242-0.288,6.75-0.481,9.354c0.481,2.025-0.289,4.243,0,6.462
			c-0.096,0.097-0.096,0.191-0.191,0.288c-0.771-0.097-0.965-0.964-1.254-1.543c0.578-1.929,0.482-3.856,0-5.786
			c-0.387-0.48,0-1.35,0.096-2.313c-1.061-1.446-0.192-3.567-0.965-4.918c0.482-1.542-0.19-3.182-0.096-4.725
			c-0.867-1.544,0.289-3.568-0.578-5.111c0-1.35-1.832-2.7-0.289-3.761c0.097-0.096,0.289-0.193,0.482-0.289
			C1007.954,646.728,1008.437,646.825,1008.532,647.21z"/>
		<path style="fill:#17192D;" d="M1078.929,630.816c3.762,0.965,6.461,4.146,10.223,5.304c0.578,1.062,1.832,1.641,2.41,2.7
			c-0.867,0.29-1.832-0.578-2.604-0.964c-0.676-0.676-1.35-1.062-2.313-1.157c-2.121-1.543-5.014-2.219-7.232-3.954
			c-1.639-0.578-4.051-0.771-5.883-1.639c-3.279-0.193-6.557-0.193-9.74,0.385c-3.086,0.579-6.074,1.833-8.485,3.954
			c-3.183,1.543-6.847,2.7-10.318,3.472c-5.397,2.7-12.246,2.411-17.84,0.193c-3.277,0-5.109-2.797-8.101-3.184
			c-0.866-0.675-1.639-1.351-2.698-1.735c-0.58-0.481-0.291-1.254-0.771-1.929c0-0.192-0.387,0.097-0.192,0.192
			c1.35,0.098,2.797,0.675,3.953,1.254c5.11,3.953,11.957,4.146,18.129,5.496c4.34-0.192,7.907-2.218,12.055-3.183
			c2.604-1.639,5.883-2.218,8.486-3.856c1.93-0.192,3.473-2.411,5.496-1.929c4.34-1.543,9.45-1.543,13.598,0
			C1077.675,630.527,1078.253,630.72,1078.929,630.816z"/>
		<path style="fill:#17192D;" d="M1091.272,584.336c-0.965,2.122-3.279,2.315-4.918,3.474c-2.219,1.156-4.629,2.312-7.137,2.604
			c-0.674,0.386-1.64,0.482-2.41,0.579c-6.461,1.157-12.729,3.761-19.48,3.953c-4.629,0.964-9.738,0.481-14.754,0.386
			c-4.146,0-9.449-1.157-13.596-2.989c-2.025-0.481-4.244-1.254-5.691-2.508c-2.121-0.578-3.76-2.121-5.592-3.278
			c-0.387-0.675-0.867-1.35-0.867-2.024c0-0.096-0.098-0.193-0.098-0.193c1.93,0.482,3.762,1.929,5.688,3.087
			c1.543,0.868,2.412,2.024,4.052,2.41c2.797,0.579,5.014,2.508,7.907,2.315c5.304,1.35,11.089,1.253,17.453,0.866
			c-0.965-2.218,0.677-3.086-0.096-4.436c0.096-0.579,0.193-0.965,0.385-1.351c0.289-0.289,0.482-0.578,0.867-0.289
			c0.193,0.192,0.291,0.289,0.482,0.481c-0.191,0.578,0.192,0.965,0.481,1.254c-0.289,1.254,0,2.508-0.19,4.051
			c4.725,0.481,7.905-0.868,11.764-1.062c1.641-0.771,4.146-0.965,6.172-1.544c1.832-0.578,4.051-0.578,5.787-1.639
			c1.445,0.191,3.084-0.29,4.242-1.736c2.508,0.099,4.436-1.734,7.328-2.312c0-0.771,0-0.482,0-0.482
			c0.481-0.193,1.446-1.254,2.604-0.868C1091.562,583.565,1091.466,583.951,1091.272,584.336z"/>
		<path style="fill:#17192D;" d="M1081.437,555.601c0,0.097,0.096-0.098,0.193,0c-0.677,0.289-1.158,0.771-1.834,1.061
			c-2.507,0.965-5.304,1.446-8.005,2.121c-2.217,0.482-4.241,1.351-6.461,1.736c-1.35,0.289-2.893-0.192-4.241-0.097
			c-1.351,0.288-2.121,1.542-3.087,2.313c-2.12,1.157-4.241,1.351-7.231,3.375c3.086,1.447,5.785,1.254,7.908,1.929
			c5.399,0.193,10.51,2.218,15.043,5.111c1.254,0.289,2.797,1.253,4.241,1.061c1.736,0.675,3.666,1.254,5.595,0.482
			c1.157-0.386,1.832,0.386,2.604,0.965c-0.385,0.289-0.965,0.385-1.445,0.578c-2.508-0.097-0.481,0.867-3.086,0.48
			c-1.641-0.191-8.004-0.675-9.162-2.604c-1.93-0.481-4.436-1.64-7.521-2.41c-4.34-1.062-9.451-1.929-12.15-2.7
			c-3.955-1.156-2.121-1.061-6.461-1.445c-2.024-1.543-4.146,0.771-6.076,1.253c-8.004,1.929-15.813,2.699-23.625,4.629
			c-1.543-0.192-3.664-0.771-5.11,0.097c-1.642,0-3.953,1.062-4.822-0.579c2.121-1.061,5.111-0.289,7.328-1.061
			c3.856,0.676,8.584-0.771,12.344-1.641c1.158-1.156,3.184-1.253,4.727-1.445c2.699-0.387,5.4-1.253,8.101-1.832
			c0.289-0.289,1.639,0.191,1.35-0.387c-2.121-0.771-5.496-1.734-7.905-2.12c-4.146-1.64-8.486-2.121-12.826-2.509
			c-3.472-1.06-7.039-2.121-10.896-2.313c-2.025-0.964-4.244-0.771-6.172-1.735c-0.289,0-0.869-0.867-0.676-1.062
			c5.305,1.446,10.994,1.351,16.008,3.473c5.689,0.385,11.766,1.543,16.877,2.989c4.531,1.253,9.738,2.7,14.367,0.964
			c1.254-0.675,2.412-2.024,3.955-2.121c0.385,0.289,1.061,0.193,1.444,0c2.025-1.447,4.34-2.218,6.461-3.279
			c3.279-0.578,7.232,0,10.029-2.121c3.183-0.965,6.56-1.832,9.74-2.41C1081.437,554.636,1081.339,555.119,1081.437,555.601z"/>
		<path style="fill:#17192D;" d="M1090.79,543.064c0.289,0.097,0.482,0.192,0.677,0.386c-0.869,2.218-3.474,0.965-5.498,1.543
			c-1.734,0.29-3.375,0-5.109,0.097c-4.728,0.098-9.451-0.097-13.984,0c-2.409,0-5.592,0.193-8.1-0.097
			c-1.639-0.192-3.664,0-5.305,0.097c-3.953,0.387-7.714,0-11.861,0.289c-0.191-0.191-0.385-0.191-0.578-0.191
			c-1.735,0.866-3.664,0.097-5.303,0.386c-3.955,0.191-7.715,0.578-11.572,0.578c-2.701-1.157-5.496,0.579-8.293-0.098
			c-0.387-0.096,0.578-1.155,0.867-1.155c4.244-2.895,9.16,1.155,13.887-0.193c5.594-1.543,11.861-0.964,17.357-1.254
			c5.496-0.289,10.705,0.192,16.297,0c1.543-0.192,3.086-0.192,4.727-0.192c0.386,0,0.867,0.098,1.252,0.098
			c4.244-0.098,8.486-0.098,12.248-0.677C1085.39,543.45,1087.8,542.97,1090.79,543.064z"/>
		<path style="fill:#17192D;" d="M1074.687,521.368c-0.193-0.097,0.867-0.29,1.252-0.193c0.291,0,0.676,0,0.771,0
			c0.58,0.193,1.353,0.482,1.931,0.387c1.35,0.579,2.699,0.289,3.856,0.868c2.314,1.061,5.4,2.024,7.908,4.146
			c1.541,1.641,3.566,2.314,5.109,3.761c0.289,0.868,0.676,1.255,0.481,2.025c-1.543,0.097-2.313-2.122-3.76-2.7
			c-1.061-0.964-2.604-1.254-3.473-2.508c-0.193-0.096-0.578-0.48-0.771-0.578c-0.192-0.097-0.289-0.289-0.289-0.289
			c-0.096,0-0.481-0.192-0.481-0.29c-0.867-0.866-1.156-0.964-1.156-0.578c-0.676-0.192-1.158-0.675-1.832-0.577
			c-0.291-0.098-0.58-0.291-0.771-0.579c-1.158,0.192-1.447-0.387-2.025-0.482c-1.062-0.578-2.701,0-3.857-0.386
			c-0.578,0.097-1.061-0.481-1.735-0.387c-2.314-0.675-3.279-0.096-5.785,0.098c-3.185,1.157-3.279,0.868-5.306,1.64
			c-1.543,0.578-2.41,0.771-3.856,1.446c-1.445,0.675-2.025,1.446-3.472,2.122c-1.35,0.578-2.219,0.386-3.473,0.867
			c-1.445,0.577-2.313,1.254-3.664,1.832c-1.35,0.675-2.41,0.965-3.953,1.64c-1.446,0.868-2.219,1.736-3.953,2.218
			c-0.481,0-1.157,0.098-1.641,0.098c-0.482-0.098-1.061,0.097-1.35,0.097c-0.289,0.096-0.771-0.097-1.062-0.193
			c-1.735,0.579-2.701-0.578-4.532-0.386c-1.736-0.48-3.472-0.675-5.496-1.35c-1.931-1.062-4.437-1.543-6.56-2.989
			c-2.217-1.157-4.436-2.895-6.073-5.015c-0.193-0.289-0.966-1.062-0.289-0.966c1.735,0.771,3.278,2.509,5.11,3.184
			c4.918,3.086,10.029,4.918,15.14,5.4c0.58,0.288,1.254,0,1.93,0.288c0.965,0,2.314,0.289,3.375,0.098
			c3.471,0.386,2.699-1.157,4.146-1.736c1.543-0.578,2.508-0.48,3.856-1.157c0.965-0.578,1.445-1.253,2.604-1.734
			c0.965-0.579,1.639-1.062,2.893-1.254c2.893-0.289,2.99-0.867,4.436-2.121c0.677-0.387,1.062-0.868,1.832-1.157
			c0.677-0.579,1.255-0.29,2.123-0.579c1.156-0.289,1.734-0.675,2.894-1.061c1.061-0.387,2.217-0.868,2.797-0.868
			c2.022-0.867,3.182-0.289,5.111-0.481C1074.204,520.982,1074.782,521.368,1074.687,521.368z"/>
		<path style="fill:#17192D;" d="M1008.532,493.499c0.193,1.641,0.869,2.796,1.158,4.532c-0.578,2.604-0.098,4.918,0.867,8.1
			c1.35-0.675,2.313-0.48,2.797-0.288c1.832-0.192,4.146,0.288,5.979,0.192c1.736-0.386,3.857-0.579,5.594-0.579
			c2.699-1.35,6.074-1.734,8.775-2.312c1.543,0.385,3.375,0,4.822,0.191c6.557,0,13.307-1.64,19.479-2.507
			c1.156,0.097,2.894-0.192,3.953,0.097c0.193-0.097,0.676-0.097,0.771-0.192c4.822-0.193,8.68-0.29,13.502-0.29
			c2.217,0,4.146,0.387,6.17,0.482h-0.096c-2.509,1.832-5.979,1.156-8.679,1.735c-3.954-0.965-8.102,1.062-12.344-0.579
			c-2.508,2.604-5.498,0.579-8.102,1.446c-2.41-0.289-5.304-0.192-7.328,1.062c-0.965-0.097-1.832,0.289-3.183-0.192
			c-2.313,1.351-5.209,0.676-7.619,0.676c-3.952-0.869-7.137,1.735-10.896,1.253c-2.701,1.351-5.787,1.157-8.873,1.157
			c-0.963-1.062-2.506-0.097-4.437-2.218c-0.674,4.243-0.288,6.75-0.481,9.354c0.481,2.025-0.289,4.243,0,6.461
			c-0.096,0.098-0.096,0.193-0.191,0.29c-0.771-0.097-0.965-0.965-1.254-1.543c0.578-1.929,0.482-3.856,0-5.786
			c-0.387-0.481,0-1.35,0.096-2.313c-1.061-1.446-0.192-3.568-0.965-4.918c0.482-1.543-0.19-3.183-0.096-4.726
			c-0.867-1.543,0.289-3.568-0.578-5.11c0-1.351-1.832-2.701-0.289-3.761c0.097-0.098,0.289-0.193,0.482-0.29
			C1007.954,493.017,1008.437,493.113,1008.532,493.499z"/>
		<path style="fill:#17192D;" d="M1090.79,482.794c0.289,0.098,0.482,0.193,0.677,0.387c-0.869,2.219-3.474,0.965-5.498,1.543
			c-1.734,0.289-3.375,0-5.109,0.097c-4.728,0.097-9.451-0.097-13.984,0c-2.409,0-5.592,0.192-8.1-0.097
			c-1.639-0.192-3.664,0-5.305,0.097c-3.953,0.386-7.714,0-11.861,0.29c-0.191-0.193-0.385-0.193-0.578-0.193
			c-1.735,0.868-3.664,0.098-5.303,0.387c-3.955,0.192-7.715,0.578-11.572,0.578c-2.701-1.157-5.496,0.578-8.293-0.097
			c-0.387-0.097,0.578-1.157,0.867-1.157c4.244-2.893,9.16,1.157,13.887-0.192c5.594-1.543,11.861-0.964,17.357-1.253
			c5.496-0.291,10.705,0.191,16.297,0c1.543-0.193,3.086-0.193,4.727-0.193c0.386,0,0.867,0.097,1.252,0.097
			c4.244-0.097,8.486-0.097,12.248-0.675C1085.39,483.181,1087.8,482.698,1090.79,482.794z"/>
		<path style="fill:#17192D;" d="M1091.272,463.798c-0.965,2.122-3.279,2.315-4.918,3.473c-2.219,1.156-4.629,2.313-7.137,2.604
			c-0.674,0.387-1.64,0.481-2.41,0.578c-6.461,1.157-12.729,3.761-19.48,3.954c-4.629,0.964-9.738,0.481-14.754,0.385
			c-4.146,0-9.449-1.155-13.596-2.987c-2.025-0.482-4.244-1.255-5.691-2.509c-2.121-0.579-3.76-2.122-5.592-3.277
			c-0.387-0.677-0.867-1.352-0.867-2.025c0-0.097-0.098-0.193-0.098-0.193c1.93,0.482,3.762,1.93,5.688,3.087
			c1.543,0.867,2.412,2.024,4.052,2.41c2.797,0.579,5.014,2.509,7.907,2.314c5.304,1.35,11.089,1.254,17.453,0.868
			c-0.965-2.218,0.677-3.086-0.096-4.437c0.096-0.579,0.193-0.965,0.385-1.351c0.289-0.289,0.482-0.578,0.867-0.289
			c0.193,0.192,0.291,0.289,0.482,0.481c-0.191,0.578,0.192,0.965,0.481,1.254c-0.289,1.254,0,2.507-0.19,4.051
			c4.725,0.48,7.905-0.868,11.764-1.062c1.641-0.771,4.146-0.964,6.172-1.543c1.832-0.578,4.051-0.578,5.787-1.639
			c1.445,0.192,3.084-0.29,4.242-1.736c2.508,0.098,4.436-1.734,7.328-2.313c0-0.771,0-0.482,0-0.482
			c0.481-0.191,1.446-1.253,2.604-0.866C1091.562,463.026,1091.466,463.412,1091.272,463.798z"/>
		<path style="fill:#17192D;" d="M1081.532,442.295c-3.471,2.507-7.906,2.121-11.09,4.821c-1.254,0.386-2.604,1.061-3.664,1.736
			c-2.99-0.098-6.076,1.832-10.125,3.664c2.604,1.061,4.531,0.771,5.881,0.386c5.691,0,10.705-0.965,16.685-0.098
			c1.641,0,3.663-0.481,5.11,0.193c2.797,0.096,6.076-0.676,8.486,0.675c0.096,0.096,0.096,0.096,0.193,0.192
			c-2.025,0.579-4.63,0.386-6.654,0.29c-1.736-0.482-3.568,0.191-5.496,0.191c-3.762,0.098-7.715-1.254-11.09,0.387
			c-3.086,0.386-5.98-1.062-8.969,0c-2.701,0.867-5.4-0.482-7.908,0.771c-4.629-0.771-10.607,0.097-15.621-0.771
			c-5.691,0-11.478,0.386-17.07-0.578c-3.084-0.098-4.338-0.676-7.229-1.254c-0.099,0,0.479-0.676,0.479-0.868
			c3.086-1.832,4.146-2.411,7.426-3.664c4.533-1.832,9.354-1.446,13.888-2.7c6.362,0.096,12.633,0.964,17.262,7.04
			c8.486-5.11,17.551-5.689,25.748-10.126c3.664-1.156,7.039-2.988,10.703-4.146c0.578,0,1.543-0.388,2.219-0.193
			C1087.704,439.979,1084.618,441.33,1081.532,442.295z M1027.241,448.659c-1.254,0.386-2.797-0.097-3.955,0.675
			c-1.543-0.191-2.987,0.675-4.241,1.157l-2.314,1.64c0.867,0.098,4.244,0.387,5.207,0.579c1.254,1.253,3.474,0.674,5.017,1.061
			c7.135-0.964,15.139,0.192,23.723-0.192c-1.254-1.543-2.508-1.929-3.184-2.604c-1.351-1.352-5.109-2.798-7.617-3.857
			C1035.534,447.694,1030.905,446.73,1027.241,448.659z"/>
		<path style="fill:#17192D;" d="M1006.411,418.379c0,2.989-0.096,5.882,0.676,9.16c7.232,0.482,14.177,0.482,19.769-1.35
			c1.543-0.289,3.086-0.482,4.34-0.964c6.076-1.736,10.607-0.482,16.586-2.604c3.762-0.29,7.137-1.062,10.705-1.64
			c5.014-0.868,10.221-0.289,14.853-1.352c2.987,0,6.557-0.386,9.737-1.253c2.604,0.098,5.306-1.061,7.908-1.543
			c0.385,0.192,0.867,0.578,1.062,0.867c-0.388,2.894-4.63,1.254-6.462,2.122c-6.557,1.254-12.922,1.929-18.998,2.121
			c-3.663,0.097-7.521,1.062-11.282,1.543c-3.761,0.481-6.558,0.771-10.318,0.771c-1.061,0.579-2.506,0.771-3.857,0.482
			c-1.252,1.157-2.506,0.481-3.471,1.157c-3.182,0.481-6.557,1.35-10.029,1.832c-3.086,0-6.461,1.832-9.258,1.351
			c0,0-0.482,0.192-0.578,0.289c-2.797-0.097-6.172,0.289-10.029-1.157c-0.771,2.219-0.19,4.437-0.385,6.075
			c-0.578,6.075,1.254,11.669,0.289,17.358c0,0.48,0.578,1.155,0.193,1.639c-0.387,0.386-0.771,0.097-1.158,0
			c-1.061-1.446-0.771-3.761-0.771-5.399c-0.674-0.771,0.097-2.314-0.192-3.278c0.58-5.979-0.385-11.861-0.385-17.263
			c0-5.015-0.966-11.09-1.255-16.2c-0.385-0.867,0.388-1.446,0.869-1.831c0.097,0,0-0.193,0.097-0.098
			C1006.024,412.11,1006.411,415.196,1006.411,418.379z"/>
		<path style="fill:#17192D;" d="M1062.054,366.209c6.073-0.771,11.475,2.22,17.067,3.474c2.314,1.253,5.015,1.445,7.715,3.182
			c0.867-0.289,0.964,0.385,1.252,0.771c0,0.096-0.096-0.482-0.096-0.482c-3.276,1.929-7.135,4.051-11.186,5.208
			c-2.121,0.964-4.726,1.254-6.849,1.929c-2.604,0.771-5.11,1.64-7.617,2.313c-5.207,0.481-8.582,1.351-13.598,1.833
			c-3.762-0.676-8.197-0.29-11.572-1.735c-2.121,0.771-4.725-0.192-6.75-0.676c-2.508,0.481-4.532-1.832-6.942-2.122
			c-2.604-1.157-5.884-0.964-7.715-3.182c0.098-0.098-1.062-0.771-0.386-1.543c0.193-0.192,0.289-0.387,0.482-0.579
			c1.639-1.157,2.797-2.798,4.82-3.664c4.438-2.507,9.451-4.918,15.045-4.727c2.988,0.579,5.881-1.929,8.871-0.385
			C1050.095,365.824,1056.653,365.148,1062.054,366.209z M1018.272,374.021c-0.387,1.061-1.254,2.699,0.676,2.699
			c6.75,2.508,13.5,3.857,20.443,4.919c6.75,0.964,13.115,1.543,19.672-0.29c8.391-2.41,17.262-3.952,26.713-8.391
			c-5.498-1.06-8.584-2.699-11.959-3.276c-7.426-0.482-14.176-2.7-21.697-2.509C1039.97,367.366,1027.724,368.717,1018.272,374.021z
			"/>
		<path style="fill:#17192D;" d="M1059.063,341.041c3.762,0.289,7.619,1.157,11.668,1.64c4.918,0.578,10.029,1.156,14.658,3.472
			c2.41,2.411,5.399,3.665,7.33,6.847c0.288,1.736,1.541,1.446,0.963,3.568c0.098,0.289-0.193,0-0.193-0.387
			c-2.217,0.098-1.156-0.481-2.795-2.699c-2.508,0.771-4.34-0.386-6.172,0.386c-7.715-0.481-14.369,0-21.892,0.771
			c-1.832,0.868-4.146,0.868-6.268,0.578c-1.353-0.48-2.797,0.482-4.437,0.193c-5.016-0.289-10.608-0.289-15.526,0.386
			c-3.664-0.191-7.232,0-10.992,0.386c-1.447-0.289-3.086-0.771-5.11-0.191c-0.578,1.35-1.255,1.061-0.771,2.218
			c-0.193,0.193-0.387,0.482-0.676,0.675c-0.289-0.097-0.578,0-0.867-0.29c0.385-2.796,2.217-4.339,3.953-6.46
			c3.375-3.086,7.715-4.531,11.379-7.521c2.412-1.543,4.918-1.735,7.521-2.796c3.278-0.482,6.942-0.289,10.127-0.966
			C1053.663,341.523,1056.267,341.33,1059.063,341.041z M1043.827,343.452c-3.76-0.193-6.365,1.542-9.932,2.604
			c-0.193,0.191-1.062,1.061-1.543,1.35c-2.701,1.929-5.883,2.797-8.777,6.654c3.474-0.29,5.209,0.965,6.849,0.289
			c2.409,0.288,4.532-0.965,6.942-1.062c3.471,1.062,7.232,0.193,10.801,0.676c3.279,0.387,6.847-0.386,10.222-0.578
			c5.979-2.314,12.924-0.676,19.096-1.351c2.988,0,6.459-0.482,11.187,0.097c-1.832-3.856-5.111-4.531-7.33-5.786
			c-5.689-1.543-11.379-2.508-17.261-3.086c-1.157-0.192-2.604,0.289-3.666-0.386C1055.11,343.162,1048.745,341.33,1043.827,343.452
			z"/>
		<path style="fill:#17192D;" d="M1091.272,322.911c-0.965,2.122-3.279,2.315-4.918,3.473c-2.219,1.157-4.629,2.313-7.137,2.604
			c-0.674,0.386-1.64,0.482-2.41,0.578c-6.461,1.158-12.729,3.761-19.48,3.954c-4.629,0.964-9.738,0.48-14.754,0.386
			c-4.146,0-9.449-1.157-13.596-2.989c-2.025-0.481-4.244-1.254-5.691-2.508c-2.121-0.578-3.76-2.121-5.592-3.278
			c-0.387-0.675-0.867-1.351-0.867-2.024c0-0.097-0.098-0.193-0.098-0.193c1.93,0.482,3.762,1.929,5.688,3.087
			c1.543,0.868,2.412,2.024,4.052,2.41c2.797,0.579,5.014,2.508,7.907,2.315c5.304,1.349,11.089,1.253,17.453,0.866
			c-0.965-2.218,0.677-3.086-0.096-4.436c0.096-0.579,0.193-0.965,0.385-1.351c0.289-0.289,0.482-0.578,0.867-0.289
			c0.193,0.191,0.291,0.289,0.482,0.481c-0.191,0.578,0.192,0.964,0.481,1.253c-0.289,1.254,0,2.508-0.19,4.051
			c4.725,0.481,7.905-0.867,11.764-1.061c1.641-0.771,4.146-0.965,6.172-1.544c1.832-0.578,4.051-0.578,5.787-1.639
			c1.445,0.191,3.084-0.29,4.242-1.736c2.508,0.097,4.436-1.735,7.328-2.313c0-0.771,0-0.481,0-0.481
			c0.481-0.193,1.446-1.254,2.604-0.868C1091.562,322.141,1091.466,322.526,1091.272,322.911z"/>
		<path style="fill:#17192D;" d="M1081.532,301.408c-3.471,2.507-7.906,2.121-11.09,4.821c-1.254,0.386-2.604,1.061-3.664,1.735
			c-2.99-0.097-6.076,1.832-10.125,3.664c2.604,1.062,4.531,0.771,5.881,0.387c5.691,0,10.705-0.966,16.685-0.098
			c1.641,0,3.663-0.481,5.11,0.193c2.797,0.097,6.076-0.676,8.486,0.675c0.096,0.097,0.096,0.097,0.193,0.192
			c-2.025,0.579-4.63,0.386-6.654,0.29c-1.736-0.482-3.568,0.191-5.496,0.191c-3.762,0.098-7.715-1.253-11.09,0.387
			c-3.086,0.386-5.98-1.062-8.969,0c-2.701,0.867-5.4-0.482-7.908,0.771c-4.629-0.771-10.607,0.097-15.621-0.771
			c-5.691,0-11.478,0.386-17.07-0.578c-3.084-0.098-4.338-0.677-7.229-1.254c-0.099,0,0.479-0.676,0.479-0.868
			c3.086-1.832,4.146-2.411,7.426-3.664c4.533-1.832,9.354-1.446,13.888-2.7c6.362,0.097,12.633,0.964,17.262,7.04
			c8.486-5.111,17.551-5.689,25.748-10.126c3.664-1.157,7.039-2.989,10.703-4.146c0.578,0,1.543-0.386,2.219-0.192
			C1087.704,299.095,1084.618,300.443,1081.532,301.408z M1027.241,307.772c-1.254,0.386-2.797-0.098-3.955,0.675
			c-1.543-0.192-2.987,0.675-4.241,1.157l-2.314,1.64c0.867,0.097,4.244,0.386,5.207,0.579c1.254,1.253,3.474,0.675,5.017,1.061
			c7.135-0.965,15.139,0.192,23.723-0.192c-1.254-1.543-2.508-1.93-3.184-2.604c-1.351-1.351-5.109-2.797-7.617-3.856
			C1035.534,306.809,1030.905,305.845,1027.241,307.772z"/>
		<path style="fill:#17192D;" d="M1092.911,249.045c1.254,0.481,2.123-0.192,3.086,0c-0.289,0.675-0.771,1.253-0.771,2.024
			c-0.385,1.061-1.736,1.254-2.506,2.025c-0.773,0.191-0.869,1.253-1.736,1.831c-2.024,1.255-3.856,2.604-5.883,4.051
			c-3.953,0.965-7.521,3.665-12.15,4.146c-3.567,1.641-8.196,1.544-12.149,1.641c-2.412,1.929-6.271,0.192-9.162,1.254
			c-1.445,0.191-2.314-0.387-3.471-0.387c-3.953,1.062-7.521-0.481-11.188-1.061c-2.603-1.157-5.4-1.447-7.906-2.797
			c-0.771-0.578-1.93-0.386-2.701-0.675c-3.086-2.025-6.651-3.279-9.448-5.497c-1.351-0.289-1.736-1.93-3.086-2.219
			c-0.482-0.675-1.447-1.254-0.867-2.699c-0.869-0.676-1.642-2.025,0-1.735c0.385-0.29,0.578-0.097,0.096,0.289
			c3.182,3.856,8.389,7.426,13.5,10.125c1.93,0,3.857,1.062,5.014,2.025c3.955,1.061,7.619,2.507,11.67,2.507
			c1.445,0,2.894,0.29,4.146-0.097c2.508,0.289,4.822,0.965,7.426,0.289c2.506-0.192,5.015-0.481,7.424-0.965
			c7.715-1.543,16.105-1.928,22.472-6.171c2.313-1.543,3.952-2.894,5.979-5.208c-0.289-0.481,1.252-0.386,0.963-1.061
			c-5.979,0.29-13.403,0.481-18.803,0.867c-2.412,1.062-5.209-0.192-7.812,0.192c-2.314,0.289-4.726-0.289-7.136-0.192
			c-1.157,0-2.219-0.192-3.278,0.192c-1.736-0.289-3.953,0.193-5.4-0.771c-0.676-0.579,0.867-0.482,1.061-0.869
			c1.543-0.578,3.086-0.771,4.822-0.097c1.35,0.192,2.699-0.675,3.953-0.675c3.568,0,6.654,0.964,9.064,0.675c0-0.29,1.157,0,2.12,0
			c0.677-0.192,1.353-0.192,1.736-0.097c2.121,0,3.473-0.386,5.4-0.097c3.473-0.867,7.811,0,10.606-0.771
			c0.869-0.192,0.771-0.097,1.64-0.192C1091.079,248.852,1091.755,248.369,1092.911,249.045z"/>
		<path style="fill:#17192D;" d="M1091.272,229.951c-0.965,2.122-3.279,2.314-4.918,3.472c-2.219,1.157-4.629,2.314-7.137,2.604
			c-0.674,0.386-1.64,0.481-2.41,0.579c-6.461,1.156-12.729,3.761-19.48,3.953c-4.629,0.965-9.738,0.481-14.754,0.386
			c-4.146,0-9.449-1.156-13.596-2.989c-2.025-0.48-4.244-1.254-5.691-2.507c-2.121-0.579-3.76-2.122-5.592-3.278
			c-0.387-0.676-0.867-1.351-0.867-2.024c0-0.098-0.098-0.193-0.098-0.193c1.93,0.482,3.762,1.929,5.688,3.086
			c1.543,0.868,2.412,2.025,4.052,2.411c2.797,0.578,5.014,2.507,7.907,2.314c5.304,1.35,11.089,1.253,17.453,0.866
			c-0.965-2.218,0.677-3.085-0.096-4.436c0.096-0.578,0.193-0.964,0.385-1.352c0.289-0.288,0.482-0.577,0.867-0.288
			c0.193,0.192,0.291,0.288,0.482,0.481c-0.191,0.579,0.192,0.965,0.481,1.254c-0.289,1.254,0,2.507-0.19,4.05
			c4.725,0.482,7.905-0.866,11.764-1.061c1.641-0.771,4.146-0.964,6.172-1.543c1.832-0.578,4.051-0.578,5.787-1.641
			c1.445,0.193,3.084-0.288,4.242-1.734c2.508,0.097,4.436-1.736,7.328-2.314c0-0.771,0-0.481,0-0.481
			c0.481-0.192,1.446-1.253,2.604-0.868C1091.562,229.179,1091.466,229.565,1091.272,229.951z"/>
		<path style="fill:#17192D;" d="M1078.929,211.341c3.762,0.965,6.461,4.146,10.223,5.305c0.578,1.061,1.832,1.64,2.41,2.7
			c-0.867,0.288-1.832-0.579-2.604-0.965c-0.676-0.676-1.35-1.062-2.313-1.157c-2.121-1.543-5.014-2.219-7.232-3.953
			c-1.639-0.579-4.051-0.771-5.883-1.641c-3.279-0.192-6.557-0.192-9.74,0.387c-3.086,0.578-6.074,1.832-8.485,3.953
			c-3.183,1.543-6.847,2.7-10.318,3.472c-5.397,2.701-12.246,2.411-17.84,0.192c-3.277,0-5.109-2.797-8.101-3.182
			c-0.866-0.676-1.639-1.351-2.698-1.736c-0.58-0.481-0.291-1.254-0.771-1.929c0-0.192-0.387,0.097-0.192,0.193
			c1.35,0.096,2.797,0.675,3.953,1.253c5.11,3.954,11.957,4.146,18.129,5.497c4.34-0.193,7.907-2.22,12.055-3.184
			c2.604-1.64,5.883-2.218,8.486-3.856c1.93-0.192,3.473-2.41,5.496-1.93c4.34-1.543,9.45-1.543,13.598,0
			C1077.675,211.052,1078.253,211.244,1078.929,211.341z"/>
		<path style="fill:#17192D;" d="M1098.409,189.065c1.252,1.061,0,0.964-0.192,1.351c-5.4,4.726-12.923,3.761-18.709,7.521
			c-4.146,1.543-8.582,2.121-12.634,3.086c-3.182,0.097-6.073,1.446-9.063,0.868c-0.965,0.771-2.41,0-3.471,0.386
			c-6.943,0-10.898-1.352-16.298-2.508c-1.832,0.192-3.762-0.387-5.209-1.641c-2.506,0.29-4.53-0.48-6.362-1.445
			c-4.437-1.64-8.873-3.375-12.056-6.461c0,0.097-0.578-0.193-0.289-0.387c0.771-0.48,1.64,0.387,2.41,0.771
			c4.533,0.386,7.427,3.665,11.478,4.629c1.832,0.965,3.856,0.965,5.592,1.64c7.426,1.93,12.344,3.568,20.156,3.664
			c0.096,0,0.289-0.675,0.289,0.098c6.651-0.387,12.342-1.93,18.418-2.604c6.172-1.929,12.344-4.146,18.516-6.076
			c1.64-1.06,3.568-1.929,5.689-2.698c0.577,0,1.639-1.062,1.928-0.676C1098.698,188.584,1099.372,188.584,1098.409,189.065z"/>
		<path style="fill:#17192D;" d="M1093.489,154.831c0.098,0.289,0.098,0.676,0,0.965c-0.578,0.289-0.963,0.386-1.734,0.578
			c-0.481,0.098-0.965,0.098-1.446,0.098c-1.736,0.386-2.797,0.577-4.629,1.156c-0.386,0.192-0.578,0.387-0.964,0.578
			c-0.481,0-0.676-0.097-1.157-0.097c-2.025-0.096-4.726,0.676-5.207,0.481c-4.822,0.868-4.146,1.255-9.646,1.543
			c-3.953,0.192-6.846,0.579-10.51,0.966c0,1.929-1.254,3.761-1.543,5.496c-0.098,0.965-0.193,1.445-0.387,2.41
			c-0.385,1.253-1.156,1.832-0.965,3.183c0,2.701,0.192,0.869-1.351,3.567c-0.19,0.289-0.289,0.676-1.35,2.121
			c2.313-0.191,3.086-0.385,4.146-0.578c1.447,0.966,4.052,0.098,6.365,0.193c6.074,0.289,11.861-0.579,17.357-0.289
			c5.11,0.192,10.125-0.771,14.658-0.29c0.096,0.29,0.096,0.675,0.096,1.062c-0.385,2.313-3.086,0.579-4.146,1.062
			c-4.822,0.386-9.258,0.386-14.658,0.386c-6.557,0.192-13.112-0.386-19.768,0.097c-4.533,0.386-8.486-0.289-12.633,0.481
			c-7.041-1.157-14.176,2.314-21.119,0.677c-1.736-0.098-3.473,0.577-5.207,0.096c-0.867-0.482-3.955-0.192-2.314-1.543
			c5.4-0.578,10.992,0.097,16.49-0.098c8.101-0.385,3.183-0.771,5.303-0.964c2.798-0.29,4.437-0.192,7.33-0.192
			c2.604,0,4.049,0.29,6.847,0c0.579-1.351,0.965-2.121,1.543-3.278c1.254-2.411,0.387,0.964,0.965-3.568
			c0.192-1.445,0.289-1.832,0.289-3.277c0-1.254,0.577-1.832,0.866-3.086c0.289-0.868,0.193-1.832,0.388-3.473
			c-1.255,0-1.64,0.098-2.22,0.098c-2.024-0.579-4.819,1.445-6.651-0.289c-2.314-0.193-3.568-0.387-5.498,0.386
			c-1.351-0.097-2.797-0.289-4.531-0.482c-0.387-0.192-0.965,0.289-1.353,0.289c-1.543,0.868-2.506-1.639-3.952-0.481
			c-0.675,0-1.351,0.676-2.025-0.289c-3.182,0.868-5.688,0.579-8.389-1.157c-0.869,0.386-1.255-0.192-1.642-0.675
			c-0.096-0.097-0.19-0.289-0.096-0.482c0.289-0.771,0.771,0.387,0.965,0.289c0,0,0.578,0.482,1.156-0.096
			c0.578-0.482,1.061,0.771,1.641,0.481c3.664,0.867,7.617,0.867,11.379,0.387c3.664,0.867,9.064,0,12.535,0.867
			c0.869-0.098,1.642-0.771,2.99,0c1.156-1.254,2.604-0.289,3.471-0.867c4.438-0.098,8.969-0.482,13.404-0.579
			c4.34,0,2.895-0.675,6.172-1.157c0.676,0.193,1.736-0.289,2.219,0.098c1.254-0.193,2.41-0.193,3.664-0.387
			c2.604-0.386,6.172-0.579,8.486-1.156c0.385,0.191,0.867-0.098,1.543-0.868c-0.387-0.868,0.674-0.387,0.674-0.579
			C1090.405,154.253,1091.851,155.217,1093.489,154.831z"/>
		<path style="fill:#17192D;" d="M1090.79,143.453c0.289,0.096,0.482,0.193,0.677,0.386c-0.869,2.219-3.474,0.966-5.498,1.543
			c-1.734,0.289-3.375,0-5.109,0.097c-4.728,0.098-9.451-0.097-13.984,0c-2.409,0-5.592,0.192-8.1-0.097
			c-1.639-0.192-3.664,0-5.305,0.097c-3.953,0.387-7.714,0-11.861,0.29c-0.191-0.192-0.385-0.192-0.578-0.192
			c-1.735,0.867-3.664,0.096-5.303,0.385c-3.955,0.193-7.715,0.579-11.572,0.579c-2.701-1.157-5.496,0.578-8.293-0.097
			c-0.387-0.097,0.578-1.156,0.867-1.156c4.244-2.894,9.16,1.156,13.887-0.192c5.594-1.545,11.861-0.966,17.357-1.255
			c5.496-0.29,10.705,0.192,16.297,0c1.543-0.191,3.086-0.191,4.727-0.191c0.386,0,0.867,0.096,1.252,0.096
			c4.244-0.096,8.486-0.096,12.248-0.675C1085.39,143.839,1087.8,143.357,1090.79,143.453z"/>
		<path style="fill:#17192D;" d="M1025.12,127.061c1.445,0.192,2.41,1.64,4.049,1.64c3.086,1.543,5.979,2.314,9.74,2.507
			c0.578,0.29,1.543,0.386,2.217,0.58c2.123,0.192,4.052,1.156,6.076,1.156c1.254,0.386,2.99-0.289,4.146,1.254
			c1.543-0.386,2.701-0.771,3.664-1.254c0.387-0.771,1.446-1.736,1.352-2.797c0.674-1.062,0.096-1.928,0.578-3.278
			c0.578-1.832,0.578-2.894,1.543-4.821c0.482-0.386,0.965-0.771,1.543-0.676c0.385,0.965,0,2.122,0,3.279
			c-1.254,2.507-1.061,3.856-1.93,7.137c0.771,0.481,0.481,0.867,0.771,1.061c2.412,0.387,5.017,0.097,7.041-0.386
			c1.254,0.192,2.314-0.29,4.242-0.29c0.385-1.156,1.254-0.288,1.832-0.578c3.473-0.288,6.559-2.218,10.125-2.41
			c1.543-1.352,4.146-1.157,5.688-2.314c1.832,0.192,2.797-2.218,5.111-1.64c1.158-0.867,2.219-1.93,3.666-1.93
			c0.385,0.29,0.77,0.579,1.156,0.966c-0.193,1.445-1.832,1.543-2.894,2.313c-1.641,0.192-3.184,0.578-4.34,1.641
			c-2.121-0.098-3.375,1.734-5.399,1.64c-0.771,0.481-1.543,0.578-2.121,0.964c-0.771-0.097-1.447,0.192-2.025,0.482
			c-4.436,0-7.908,2.893-12.344,2.604c-0.578,0.386-1.639,0.386-2.219,0.482c-4.726,1.639-10.222,1.35-15.043,1.254
			c-2.218-0.58-4.918,0-6.847-0.965c-5.979-1.062-11.766-3.474-17.454-5.016c-2.699-1.061-5.207-2.699-7.716-4.051
			c-2.797-1.542-6.073-2.603-8.1-5.398c0-0.193,0-0.482,0.193-0.578C1015.765,122.433,1020.298,124.939,1025.12,127.061z"/>
		<path style="fill:#17192D;" d="M1086.354,90.416c-1.158,0.868-2.701,1.447-3.857,2.411c-4.725,1.35-9.836,2.604-14.947,2.604
			c-3.663,0.578-7.426,1.351-10.993,2.219c-1.929-0.193-4.146-0.579-6.363-0.097c-0.289,0.771-0.289,1.061-1.447,1.35
			c1.062,2.797,3.279,4.726,4.34,6.751c0.578,0.289,1.156,1.061,0.965,1.735c-0.387,1.156,0.191,1.156,0.867,1.831
			c0.867,0,1.64,0.098,2.41,0.482c2.025-0.675,3.568-0.675,5.207-0.097c1.834,1.061,3.377,0.289,5.4,0
			c3.856-0.578,7.522-1.446,11.477-1.641c3.086-0.096,6.172-0.096,9.451-0.096c0.289,0.096,0.578,0.192,0.479,0.482
			c0,0.287-0.385,0.577-0.674,0.675c-4.821,0.289-9.451,0.481-13.692,1.832c-3.185-0.097-5.787,0.868-8.775,0.578
			c-7.137-0.675-14.658,0-21.408,0.867c-2.989-0.675-5.305,0.579-8.196,0.387c-7.521-0.579-15.332-0.579-21.986-2.798
			c-0.965-0.288-0.482-1.061-0.965-1.734c0.096-0.289,0.578,0,0.771-0.097c2.314,0.481,4.341,1.543,6.654,1.446
			c0.096,0.097,0.096,0.097,0.193,0.192c3.953-0.192,7.616,1.062,11.09,0.867c2.604,1.446,5.496-0.386,8.293,0.097
			c3.567,0.579,6.557-0.675,10.029-1.156c0.479-0.387,1.155-0.771,1.832-1.544c-1.158-3.086-4.728-5.015-5.111-7.521
			c0.482,0-0.676-0.771-0.193-2.314c-2.987-0.867-5.399,0.289-7.616-0.771c-1.834-0.482-3.666,0.481-5.595-0.578
			c-2.604,1.253-4.918,0.096-7.426,0.289c-1.444-1.254-2.024,1.253-3.76,0.097c-1.642,0.482-3.857,0.771-5.209,0
			c0.098-0.386,0.098-0.676,0-1.061c1.447-0.868,3.473,0.289,4.92-0.868c2.121-0.193,3.664,0.964,5.785,0.578
			c6.172-1.157,13.018,0.192,19.287-0.192c4.34-0.193,9.063,0.482,13.211-0.965c6.557-1.062,13.404-1.929,19.576-3.182
			c1.543-0.966,3.375-2.025,5.303-1.93C1085.968,89.838,1086.257,90.031,1086.354,90.416z"/>
		<path style="fill:#17192D;" d="M1008.532,62.74c0.193,1.64,0.869,2.796,1.158,4.532c-0.578,2.604-0.098,4.918,0.867,8.1
			c1.35-0.674,2.313-0.48,2.797-0.289c1.832-0.191,4.146,0.289,5.979,0.193c1.736-0.386,3.857-0.578,5.594-0.578
			c2.699-1.352,6.074-1.736,8.775-2.314c1.543,0.387,3.375,0,4.822,0.192c6.557,0,13.307-1.64,19.479-2.507
			c1.156,0.096,2.894-0.193,3.953,0.096c0.193-0.096,0.676-0.096,0.771-0.191c4.822-0.193,8.68-0.29,13.502-0.29
			c2.217,0,4.146,0.387,6.17,0.481h-0.096c-2.509,1.832-5.979,1.157-8.679,1.736c-3.954-0.965-8.102,1.061-12.344-0.579
			c-2.508,2.604-5.498,0.579-8.102,1.447c-2.41-0.29-5.304-0.193-7.328,1.061c-0.965-0.097-1.832,0.289-3.183-0.192
			c-2.313,1.351-5.209,0.676-7.619,0.676c-3.952-0.868-7.137,1.734-10.896,1.253c-2.701,1.351-5.787,1.157-8.873,1.157
			c-0.963-1.062-2.506-0.098-4.437-2.219c-0.674,4.243-0.288,6.75-0.481,9.354c0.481,2.024-0.289,4.244,0,6.462
			c-0.096,0.096-0.096,0.191-0.191,0.289c-0.771-0.098-0.965-0.965-1.254-1.543c0.578-1.93,0.482-3.857,0-5.786
			c-0.387-0.482,0-1.351,0.096-2.314c-1.061-1.445-0.192-3.567-0.965-4.918c0.482-1.543-0.19-3.183-0.096-4.726
			c-0.867-1.543,0.289-3.568-0.578-5.11c0-1.351-1.832-2.7-0.289-3.761c0.097-0.097,0.289-0.193,0.482-0.29
			C1007.954,62.258,1008.437,62.355,1008.532,62.74z"/>
		<path style="fill:#17192D;" d="M1204.432,611.496c0.289,0.097,0.482,0.191,0.677,0.386c-0.869,2.218-3.474,0.965-5.498,1.543
			c-1.734,0.289-3.375,0-5.109,0.097c-4.728,0.097-9.451-0.097-13.984,0c-2.409,0-5.592,0.192-8.1-0.097
			c-1.639-0.191-3.664,0-5.305,0.097c-3.953,0.386-7.714,0-11.861,0.289c-0.191-0.192-0.385-0.192-0.578-0.192
			c-1.735,0.868-3.664,0.097-5.303,0.386c-3.955,0.193-7.715,0.579-11.572,0.579c-2.701-1.157-5.496,0.579-8.293-0.097
			c-0.387-0.098,0.578-1.157,0.867-1.157c4.244-2.894,9.16,1.157,13.887-0.192c5.594-1.543,11.861-0.965,17.357-1.254
			s10.705,0.192,16.297,0c1.543-0.193,3.086-0.193,4.727-0.193c0.386,0,0.867,0.098,1.252,0.098
			c4.244-0.098,8.486-0.098,12.248-0.675C1199.031,611.881,1201.441,611.399,1204.432,611.496z"/>
		<path style="fill:#17192D;" d="M1141.461,584.11c1.062,0,2.604-0.098,3.76-0.193c2.799-1.735,7.138,0,10.416,0.386
			c2.025-1.156,5.4-0.48,7.521-0.675c3.086-0.771,7.137,0.193,10.705,0.193c6.268,0,13.5-0.193,19.768-0.482
			c0.965-0.097,1.93-0.676,2.797-0.29c0.096,0.098,0.193-0.096,0.289-0.096c-2.217,1.446-4.918,1.543-7.137,2.507
			c-3.182,2.797-6.846,4.243-10.221,6.365c-4.052,1.832-8.197,3.182-11.861,5.979c-1.158,0.578-2.219,1.254-3.375,1.832
			l-2.797,1.352l3.182,0.191c7.521,0.482,14.562-1.351,22.277-0.289c3.086,0,5.979-1.254,8.967-0.676c0.771-0.096,1.736,0,2.412,0
			c-0.098,0.193,0,0.579-0.098,0.676c-0.771,0-1.445,0.192-2.121,0.676c-0.771,0.386-1.736,0.386-2.604,0.577
			c-2.604,0.29-5.207-0.096-7.811,0.482c-7.041,0.193-13.888-0.675-20.734,0.097c-3.182-0.579-6.363,1.062-9.449,0.193
			c-2.024,0.481-4.629-0.579-6.172,0.578c-4.629-0.482-9.162-1.254-13.981-1.254c-1.062-0.387-2.701,0-3.185-1.157
			c-0.096-0.096,0.58-1.061,0.58-0.578c5.207-1.351,9.644,1.735,15.621,1.061c3.086-0.386,6.268,0,9.547-0.965
			c0.965-1.35,2.412-1.253,3.474-2.121c1.928-0.289,3.856-0.771,5.108-2.121c4.92-2.41,9.935-3.278,13.887-6.847
			c1.158-0.481,2.314-1.062,3.568-2.122c0-0.289,2.797-1.543,2.797-1.832c-0.096-0.191-2.99,0.482-2.99,0.098
			c-3.76,0-7.231-0.677-10.221,0.386c-5.399-1.352-10.994-1.447-16.779-0.193c-4.146-0.48-8.391-1.061-12.438-0.289
			c-3.377-1.445-7.137,1.543-10.223-1.156c-0.289-0.868-1.832-0.578-1.736-1.641C1135.482,582.181,1138.279,584.013,1141.461,584.11
			z"/>
		<path style="fill:#17192D;" d="M1172.705,531.747c3.762,0.29,7.619,1.157,11.668,1.64c4.918,0.579,10.029,1.157,14.658,3.473
			c2.41,2.409,5.399,3.664,7.33,6.847c0.288,1.735,1.541,1.446,0.963,3.568c0.098,0.288-0.193,0-0.193-0.388
			c-2.217,0.098-1.156-0.48-2.795-2.699c-2.508,0.771-4.34-0.386-6.172,0.387c-7.715-0.482-14.369,0-21.892,0.771
			c-1.832,0.867-4.146,0.867-6.268,0.578c-1.353-0.481-2.797,0.482-4.437,0.193c-5.016-0.289-10.608-0.289-15.526,0.386
			c-3.664-0.193-7.232,0-10.992,0.385c-1.447-0.289-3.086-0.771-5.11-0.191c-0.578,1.351-1.255,1.062-0.771,2.218
			c-0.193,0.192-0.387,0.481-0.676,0.676c-0.289-0.097-0.578,0-0.867-0.29c0.385-2.796,2.217-4.34,3.953-6.461
			c3.375-3.086,7.715-4.532,11.379-7.521c2.412-1.543,4.918-1.736,7.521-2.798c3.278-0.48,6.942-0.288,10.127-0.964
			C1167.305,532.229,1169.908,532.037,1172.705,531.747z M1157.469,534.158c-3.76-0.192-6.365,1.543-9.932,2.604
			c-0.193,0.192-1.062,1.062-1.543,1.352c-2.701,1.929-5.883,2.796-8.777,6.652c3.474-0.289,5.209,0.966,6.849,0.289
			c2.409,0.29,4.532-0.964,6.942-1.061c3.471,1.061,7.232,0.193,10.801,0.675c3.279,0.386,6.847-0.386,10.222-0.578
			c5.979-2.313,12.924-0.675,19.096-1.351c2.988,0,6.459-0.481,11.187,0.097c-1.832-3.856-5.111-4.532-7.33-5.786
			c-5.689-1.543-11.379-2.507-17.261-3.085c-1.157-0.192-2.604,0.289-3.666-0.387
			C1168.752,533.868,1162.387,532.037,1157.469,534.158z"/>
		<path style="fill:#17192D;" d="M1138.762,516.221c1.445,0.193,2.41,1.641,4.049,1.641c3.086,1.543,5.979,2.313,9.74,2.507
			c0.578,0.29,1.543,0.386,2.217,0.579c2.123,0.192,4.052,1.156,6.076,1.156c1.254,0.387,2.99-0.288,4.146,1.255
			c1.543-0.387,2.701-0.771,3.664-1.255c0.387-0.771,1.446-1.735,1.352-2.797c0.674-1.061,0.096-1.928,0.578-3.277
			c0.578-1.832,0.578-2.895,1.543-4.821c0.482-0.387,0.965-0.771,1.543-0.676c0.385,0.965,0,2.122,0,3.278
			c-1.254,2.508-1.061,3.857-1.93,7.137c0.771,0.481,0.481,0.867,0.771,1.061c2.412,0.386,5.017,0.097,7.041-0.386
			c1.254,0.192,2.314-0.289,4.242-0.289c0.385-1.157,1.254-0.289,1.832-0.579c3.473-0.289,6.559-2.218,10.125-2.41
			c1.543-1.351,4.146-1.156,5.688-2.313c1.832,0.191,2.797-2.219,5.111-1.641c1.158-0.866,2.219-1.929,3.666-1.929
			c0.385,0.289,0.77,0.579,1.156,0.965c-0.193,1.446-1.832,1.543-2.894,2.314c-1.641,0.191-3.184,0.578-4.34,1.64
			c-2.121-0.097-3.375,1.735-5.399,1.639c-0.771,0.482-1.543,0.579-2.121,0.966c-0.771-0.098-1.447,0.191-2.025,0.48
			c-4.436,0-7.908,2.895-12.344,2.604c-0.578,0.386-1.639,0.386-2.219,0.48c-4.726,1.641-10.222,1.352-15.043,1.254
			c-2.218-0.579-4.918,0-6.847-0.964c-5.979-1.062-11.766-3.473-17.454-5.015c-2.699-1.062-5.207-2.7-7.716-4.051
			c-2.797-1.543-6.073-2.604-8.1-5.4c0-0.192,0-0.481,0.193-0.578C1129.406,511.593,1133.939,514.1,1138.762,516.221z"/>
		<path style="fill:#17192D;" d="M1200.574,476.974c0.192,0.482,1.735,0.482,1.156,1.255c-2.699,1.832-6.363-0.193-9.257,1.351
			c-9.739,2.989-20.059,0.771-29.991,2.12c-5.785,0.771-11.187,0.771-16.875,1.929l-3.279-0.096l-0.096,0.386l3.278,1.447
			c3.761,0.771,8.582,0.867,12.15,1.734c3.375,0.867,6.268,0.965,9.547,1.93c3.568,0.675,7.039,0.289,11.09,0.385
			c0.289,0.193,0.771,0.098,0.965,0.387c-5.11,2.121-11.381,0.675-16.684,2.218c-1.447,1.253-3.857,0.868-5.594,1.641
			c-6.172,0-12.056,2.121-17.84,2.41c-0.675,0.579-1.832,0.676-2.798,1.061c0,0.387-2.604,0.965-2.508,1.157
			c0.099,0.29,3.086,0.193,3.185,0.676c9.547,1.446,18.225,0,27,1.061c5.399-2.024,10.993,1.157,16.2-0.577
			c6.173-2.026,13.115,0.289,18.611-1.833c1.641,0,3.375-0.867,4.822,0c1.736,0.097,4.629-1.641,5.979,0.192
			c0,0.192,0.193,0.097,0.289,0.192c-1.35,0.868-3.471,0.193-4.725,0.386c-7.328,1.832-15.043,2.314-22.662,3.472
			c-3.086,0-6.172,0.482-9.064-0.386c-3.76,0.097-7.616,0.386-11.571-0.289c-9.16-0.289-17.552,1.543-26.134-0.965
			c-3.182-0.964-6.268,0-9.063-0.675c0-0.578-2.121,0.482-1.639-0.385c0.577-0.29,0.963-1.256,2.022-1.447
			c4.34-2.41,10.029-1.736,14.853-3.472c5.883-1.062,12.534-1.735,18.61-3.184l3.183-0.771v-0.388l-3.183-0.577
			c-3.953-0.676-7.715-1.254-11.668-1.735c-4.822-2.218-10.512-2.026-15.334-4.146c-0.289-0.29-0.771-0.481-1.156-0.676
			c0.771-1.157,3.087-0.097,4.242-0.191c4.051-2.122,8.582-0.482,13.021-1.641c10.125-1.061,17.646-0.481,27.58-1.35
			c2.313-0.676,5.883-0.676,8.485-1.062c4.627-0.675,9.547,1.157,13.019-1.734C1199.418,476.299,1199.996,476.493,1200.574,476.974z
			"/>
		<path style="fill:#17192D;" d="M1204.914,432.52c-0.965,2.12-3.279,2.313-4.918,3.472c-2.219,1.157-4.629,2.312-7.137,2.604
			c-0.674,0.386-1.64,0.482-2.41,0.578c-6.461,1.158-12.729,3.762-19.48,3.954c-4.629,0.964-9.738,0.482-14.754,0.386
			c-4.146,0-9.449-1.157-13.596-2.988c-2.025-0.482-4.244-1.255-5.691-2.509c-2.121-0.578-3.76-2.121-5.592-3.277
			c-0.387-0.676-0.867-1.351-0.867-2.025c0-0.096-0.098-0.191-0.098-0.191c1.93,0.48,3.762,1.929,5.688,3.086
			c1.543,0.867,2.412,2.024,4.052,2.409c2.797,0.579,5.014,2.509,7.907,2.315c5.304,1.35,11.089,1.253,17.453,0.867
			c-0.965-2.218,0.677-3.086-0.096-4.437c0.096-0.579,0.193-0.965,0.385-1.351c0.289-0.289,0.482-0.578,0.867-0.289
			c0.193,0.193,0.291,0.289,0.482,0.482c-0.191,0.577,0.192,0.964,0.481,1.253c-0.289,1.254,0,2.508-0.19,4.051
			c4.725,0.481,7.905-0.868,11.764-1.062c1.641-0.771,4.146-0.964,6.172-1.544c1.832-0.578,4.051-0.578,5.787-1.639
			c1.445,0.192,3.084-0.29,4.242-1.736c2.508,0.099,4.436-1.734,7.328-2.312c0-0.771,0-0.482,0-0.482
			c0.481-0.192,1.446-1.254,2.604-0.868C1205.203,431.748,1205.107,432.133,1204.914,432.52z"/>
		<path style="fill:#17192D;" d="M1204.432,419.597c0.289,0.098,0.482,0.193,0.677,0.388c-0.869,2.218-3.474,0.964-5.498,1.542
			c-1.734,0.29-3.375,0-5.109,0.097c-4.728,0.097-9.451-0.097-13.984,0c-2.409,0-5.592,0.193-8.1-0.097
			c-1.639-0.192-3.664,0-5.305,0.097c-3.953,0.386-7.714,0-11.861,0.29c-0.191-0.193-0.385-0.193-0.578-0.193
			c-1.735,0.868-3.664,0.098-5.303,0.386c-3.955,0.193-7.715,0.579-11.572,0.579c-2.701-1.157-5.496,0.578-8.293-0.097
			c-0.387-0.097,0.578-1.157,0.867-1.157c4.244-2.894,9.16,1.157,13.887-0.191c5.594-1.544,11.861-0.965,17.357-1.254
			c5.496-0.29,10.705,0.191,16.297,0c1.543-0.193,3.086-0.193,4.727-0.193c0.386,0,0.867,0.097,1.252,0.097
			c4.244-0.097,8.486-0.097,12.248-0.676C1199.031,419.984,1201.441,419.501,1204.432,419.597z"/>
		<path style="fill:#17192D;" d="M1207.613,381.701c-7.617,3.375-14.176,7.811-20.828,12.246c-0.58,0.29-0.771,1.062-2.025,1.062
			c-3.086,3.086-6.942,3.375-9.74,6.172c-2.508,1.254-5.303,2.7-8.196,4.918c0.387,0.289,1.061,0.578,1.35,0.771
			c2.025,0.964,4.051,0.192,5.883,0.289c5.787,0.191,11.091-0.771,16.201-0.868c4.918,0,9.451-1.157,13.791-0.675
			c0.097,0.192,0.097,0.481,0.097,0.868c-0.289,2.218-2.798,0.675-3.857,1.061c-4.629,0.579-8.68,0.675-13.693,0.868
			c-6.172,0.386-12.248,0.097-18.42,0.771c-4.146,0.387-7.906,0-11.859,0.868c-6.559-0.771-13.213,2.604-19.77,1.253
			c-1.543,0-3.086,0.771-4.725,0.387c-0.677-0.482-3.763,0.097-2.22-1.351c5.017-0.771,10.224,0,15.332-0.676
			c7.716-0.289,15.912-0.771,21.603-5.689c0.965-0.288,1.736-0.964,2.41-1.445c2.412-1.446,5.016-2.507,7.041-4.629
			c2.024-0.676,3.856-1.833,5.496-2.989c2.893-2.893,6.75-3.953,9.934-6.172c0-0.386,0.289-0.289,0.48-0.386
			c0.868-0.386,1.543-1.157,2.604-1.929c0-0.386,2.795-0.964,2.699-1.253c-0.097-0.289-3.279-0.193-3.568-0.386
			c-4.436,0.964-9.932,1.35-15.043,1.832c-5.496,0.482-9.162,1.543-14.369,1.639c-1.832-0.386-4.436,1.447-6.268-0.096
			c-2.025,0-3.185-0.097-4.822,0.482c-1.444,0-2.893-0.193-4.629-0.193c-0.385-0.097-0.771,0.289-1.156,0.289
			c-1.641,1.061-2.508-1.446-3.762-0.289c-0.578,0.193-1.156,0.675-1.734-0.193c-3.086,0.868-5.498,0.387-8.102-1.061
			c-0.867,0.386-1.156-0.096-1.543-0.385c0-0.097,0-0.193,0-0.29c0.289-0.675,0.867,0.29,0.867,0.193c0,0,0.579,0.481,1.157-0.097
			c0.388-0.579,1.254,0.675,1.447,0.386c3.277,0.771,7.135,0.578,10.799,0.097c3.377,0.578,8.486-0.386,11.67,0.289
			c0.674-0.097,1.543-0.675,2.699-0.289c1.062-0.965,2.508-0.097,3.279-0.676c4.049-0.289,8.389-0.964,12.535-0.964
			c3.955-0.386,8.295-0.771,11.477-1.254c0.676,0.193,1.445-0.386,2.121,0.097c1.639-0.386,2.314-0.386,3.568-0.579
			c2.508-0.481,5.688-0.867,7.906-1.35c0.387,0,0.868-0.29,1.446-0.964c-0.481-0.868,0.578-0.482,0.677-0.482
			c0.866-0.386,2.313,0.386,3.76-0.097C1207.613,381.122,1207.711,381.412,1207.613,381.701z"/>
		<path style="fill:#17192D;" d="M1138.762,365.79c1.445,0.194,2.41,1.641,4.049,1.641c3.086,1.542,5.979,2.313,9.74,2.506
			c0.578,0.29,1.543,0.386,2.217,0.579c2.123,0.193,4.052,1.157,6.076,1.157c1.254,0.386,2.99-0.289,4.146,1.254
			c1.543-0.386,2.701-0.771,3.664-1.254c0.387-0.771,1.446-1.736,1.352-2.797c0.674-1.061,0.096-1.928,0.578-3.279
			c0.578-1.831,0.578-2.893,1.543-4.82c0.482-0.387,0.965-0.771,1.543-0.676c0.385,0.965,0,2.122,0,3.279
			c-1.254,2.507-1.061,3.857-1.93,7.136c0.771,0.482,0.481,0.868,0.771,1.061c2.412,0.386,5.017,0.097,7.041-0.385
			c1.254,0.192,2.314-0.29,4.242-0.29c0.385-1.157,1.254-0.289,1.832-0.579c3.473-0.289,6.559-2.218,10.125-2.409
			c1.543-1.352,4.146-1.158,5.688-2.316c1.832,0.193,2.797-2.217,5.111-1.639c1.158-0.867,2.219-1.929,3.666-1.929
			c0.385,0.289,0.77,0.579,1.156,0.965c-0.193,1.446-1.832,1.543-2.894,2.314c-1.641,0.193-3.184,0.578-4.34,1.64
			c-2.121-0.097-3.375,1.735-5.399,1.639c-0.771,0.482-1.543,0.579-2.121,0.965c-0.771-0.097-1.447,0.192-2.025,0.481
			c-4.436,0-7.908,2.894-12.344,2.604c-0.578,0.386-1.639,0.386-2.219,0.481c-4.726,1.64-10.222,1.351-15.043,1.254
			c-2.218-0.579-4.918,0-6.847-0.964c-5.979-1.062-11.766-3.473-17.454-5.016c-2.699-1.06-5.207-2.699-7.716-4.05
			c-2.797-1.543-6.073-2.604-8.1-5.4c0-0.192,0-0.482,0.193-0.578C1129.406,361.162,1133.939,363.667,1138.762,365.79z"/>
		<path style="fill:#17192D;" d="M1141.461,332.329c1.062,0,2.604-0.097,3.76-0.192c2.799-1.736,7.138,0,10.416,0.386
			c2.025-1.158,5.4-0.482,7.521-0.676c3.086-0.771,7.137,0.193,10.705,0.193c6.268,0,13.5-0.193,19.768-0.482
			c0.965-0.097,1.93-0.675,2.797-0.29c0.096,0.097,0.193-0.096,0.289-0.096c-2.217,1.446-4.918,1.543-7.137,2.507
			c-3.182,2.797-6.846,4.243-10.221,6.365c-4.052,1.832-8.197,3.182-11.861,5.978c-1.158,0.579-2.219,1.255-3.375,1.833
			l-2.797,1.351l3.182,0.192c7.521,0.481,14.562-1.35,22.277-0.289c3.086,0,5.979-1.254,8.967-0.676c0.771-0.096,1.736,0,2.412,0
			c-0.098,0.193,0,0.579-0.098,0.676c-0.771,0-1.445,0.192-2.121,0.675c-0.771,0.386-1.736,0.386-2.604,0.578
			c-2.604,0.29-5.207-0.096-7.811,0.482c-7.041,0.193-13.888-0.675-20.734,0.097c-3.182-0.579-6.363,1.062-9.449,0.193
			c-2.024,0.482-4.629-0.579-6.172,0.578c-4.629-0.482-9.162-1.254-13.981-1.254c-1.062-0.385-2.701,0-3.185-1.157
			c-0.096-0.096,0.58-1.061,0.58-0.578c5.207-1.351,9.644,1.735,15.621,1.062c3.086-0.386,6.268,0,9.547-0.964
			c0.965-1.351,2.412-1.254,3.474-2.122c1.928-0.289,3.856-0.771,5.108-2.122c4.92-2.411,9.935-3.278,13.887-6.846
			c1.158-0.482,2.314-1.061,3.568-2.122c0-0.289,2.797-1.543,2.797-1.832c-0.096-0.193-2.99,0.482-2.99,0.097
			c-3.76,0-7.231-0.676-10.221,0.386c-5.399-1.351-10.994-1.446-16.779-0.193c-4.146-0.482-8.391-1.061-12.438-0.289
			c-3.377-1.446-7.137,1.543-10.223-1.157c-0.289-0.868-1.832-0.578-1.736-1.64C1135.482,330.4,1138.279,332.232,1141.461,332.329z"
			/>
		<path style="fill:#17192D;" d="M1129.793,272.155c5.689,0.289,11.09,2.313,16.682,4.05c3.857,0.579,8.103,0.868,11.572,2.411
			c3.955,0.386,7.33,1.254,11.379,1.446c2.123,0.097,4.34-0.386,5.98,0.771c4.531,0.965,9.063,1.833,13.307,3.376
			c4.437,2.313,10.029,1.639,14.369,4.725l-0.289-0.386c-7.137,1.929-14.176,3.857-21.506,4.726
			c-4.629-1.157-8.967,0.964-13.693,0.579c-8.194,1.542-16.201,1.831-24.301,2.699c-1.928-0.771-4.146,0.193-6.172,0.578
			c-1.156,0.193-2.699,0.098-3.664-0.578c0.289-1.929,3.182-0.578,4.34-1.061c5.689,0.578,10.992-2.025,16.49-1.543
			c2.795-0.096,5.303-0.096,8.293-0.578c0.385-0.482,0.771-0.482,1.061-0.579c5.785-0.482,12.246-0.867,17.744-1.254
			c4.049-1.64,8.39-2.314,12.922-2.796l0.097-1.351c-8.39-2.796-17.068-5.015-25.939-6.075c-4.438,0.192-8.196-0.868-12.149-1.446
			c-5.98-2.797-13.502-1.446-19.191-4.726c-3.664,0-7.328-2.024-10.801-2.507c-0.096,0,0.291-0.481,0.676-0.771
			C1127.961,271.769,1128.828,272.637,1129.793,272.155z"/>
		<path style="fill:#17192D;" d="M1207.422,235.897c2.41,0.289,4.049-0.289,4.629,0.867c0,0.097-0.098,0.29-0.098,0.386
			c-3.568,2.025-8.197,1.158-12.344,2.315c-7.328,1.061-14.851,1.639-21.601,3.375c-1.543,2.121-3.278,5.014-2.219,7.811
			c0.096,0.097-0.289,0-0.674,0.675c0.674,0.965-0.387,1.351-0.387,2.122c-0.388,1.832-0.193,4.146-0.966,7.329
			c5.595,1.253,10.896,1.157,15.525,2.411c3.377,0.964,8.103-0.579,11.478,1.156c1.254,0,2.797-0.192,3.663,0.868
			c0.193,0.482-0.676,0.482-1.061,0.482c-3.953-0.676-6.943-0.386-10.703-0.868c-4.438-1.929-11.188-0.29-16.01-2.218
			c-1.734,0-4.437,0.481-5.785-0.482c-4.533-1.061-9.934,0.289-14.176-1.736c-7.908,0.29-14.465-2.988-22.564-2.988
			c-0.387-0.387-0.387-1.061-1.254-1.158c-2.313-0.771-5.305,0.676-6.75-1.253c0.578-1.061,2.121-0.578,3.277-1.446
			c9.74-2.122,18.709-6.364,28.641-8.197c2.797-1.35,6.271-1.736,9.355-2.989c1.061-0.097,2.121-0.289,3.084,0.097
			c1.93-0.579,4.051-1.254,6.172-1.254c4.533-0.097,8.584-2.218,13.309-1.833c1.447-0.867,3.664-0.192,5.207-0.675
			c2.99-0.289,6.076-1.061,8.873-1.832c0.578-0.289,0.867-0.481,0.963-0.675c0.869-0.386,0.965-0.386,1.642-0.289
			C1206.65,235.993,1207.422,235.704,1207.422,235.897z M1170.969,243.708c-4.819,2.122-10.414,2.122-15.428,3.568
			c-5.883,1.639-11.379,4.918-18.033,6.172c0,1.639,0.674,2.218,1.832,2.313c2.699,0.964,5.207,2.025,8.293,2.41
			c5.689,0.771,12.344,0.29,17.744,1.64c1.445,0,3.566,0,5.496,0.578c0.965-1.157,1.061-2.313,1.928-2.893
			c0-1.156,0.291-2.024,0.387-2.893c0.193-1.447,0.193-2.797,0.482-3.857c0.482-1.833,0.771-2.507,0.965-4.05
			C1177.238,242.165,1172.705,243.804,1170.969,243.708z"/>
		<path style="fill:#17192D;" d="M1199.514,214.199c-0.289,2.025,0.097,3.761,0.771,5.4c-0.096,0.482-0.482,0.964-0.771,1.062
			c-1.254,1.831,1.158,5.11-2.024,6.074c-1.062,0.29-2.218-0.192-3.086,0.579c-3.375,1.253-4.437,0.289-7.716,0.579
			c-2.893,0.192-6.362-1.255-9.159,0c-1.543,0-2.798-0.579-4.146-0.772c-3.664,1.351-7.811-0.674-11.668,0.29
			c-2.797,0.192-5.016-0.964-7.812,0.289c-0.578,0.097-1.062,0.097-1.543,0.289c-5.689,0-11.572-0.578-17.164,0.097
			c-2.797,0-5.498-0.097-8.004-1.447c-0.482-0.386,0.096-0.964,0.578-1.156c0.676,0,1.639-0.193,2.7,0.675
			c2.023-0.868,3.855,0.096,5.593-0.289c1.446,0.385,3.086,0.481,4.629,0.097c3.279-1.929,6.75,0.288,10.125,0.192
			c3.279-0.097,6.559-1.351,9.934-0.965c3.471,0.482,7.521,0.772,11.09,0.387c1.156-0.387,2.506,0.192,3.568-0.193
			c1.061,0.193,2.506,0.097,3.471,0.771c1.35-0.192,2.99-0.482,4.34-0.868c0.771,0.386,1.928,0.29,2.604,0.482
			c3.664,0.289,4.436,0.771,7.811-0.386c2.22,0.771,1.351-1.543,3.279-2.025c1.254-0.482,0.578-1.061,0.578-1.735
			c-0.289-1.543,1.254-2.701,0.578-4.051c-0.482-1.253-0.097-2.893-1.062-4.243c-0.096-0.385-0.096-0.867,0.387-0.867
			C1198.646,212.174,1198.838,213.428,1199.514,214.199z"/>
		<path style="fill:#17192D;" d="M1175.02,183.726c3.568-0.289,6.269,1.157,9.548,1.929c0.676,0.579,1.35,0.579,1.35,0.481
			c0.193,0.097,1.447,0.385,2.508,0.964l0.289,0.098c1.447,0.77,1.543,0.674,2.604,0.77c1.735,1.159,3.955,1.351,5.399,2.411
			c2.894,2.123,7.138,4.147,9.74,7.232c1.832,2.315,3.664,3.568,5.303,5.884c0.099,0.578,0.482,1.157,0.099,1.831
			c-0.771,0-0.289,0.676-1.447-1.061l-0.191-0.386c-1.062,0.29-1.93,0.772-2.604,0.965c-1.64,0-4.146,0-5.884,0.192
			c-1.059-0.289-2.795,0.387-3.76,0c-4.822,0.289-11.09,0.482-16.395,0.098c-1.252,0.578-2.988,0.191-4.146,0.096
			c-5.014-0.289-9.547-1.833-14.078-1.351c-3.086-0.096-6.75,0.868-10.028-0.385c-2.314,0.289-5.979-0.289-7.812-0.193
			c-0.098,0-0.193,0.193-0.291,0.289c-4.725-0.578-10.799,0.193-15.332-0.289c-0.482-0.193-0.867-0.868-0.193-0.965
			c9.259-0.771,20.927-0.868,30.666-0.096c2.22-0.193,5.595,0.289,7.908-0.097c0.096,0.097,0.193,0.192,0.289,0.289
			c3.568,0,6.461,0.675,10.125,1.062c0.387-0.289,0.771-0.098,1.062,0.096c5.399,0.289,13.02-0.482,18.227-0.096
			c2.894-1.351,5.979,0.771,8.775-0.676c0.289-0.482,0.289,0.965,2.219-0.386c-0.58-0.192-1.158-1.156-0.869-1.156
			c-0.771-1.544-2.988-1.351-4.049-4.436c-0.58,0.578-0.387-0.29-0.869-0.29c0,0-0.481-0.29-0.674-0.387
			c-0.098-0.096-0.482-0.192-0.482-0.964c-0.965,0-1.157-0.288-1.446-0.097c-0.965-0.386-0.965-1.735-2.121-1.735
			c-0.482-0.193-1.158-0.385-1.447-0.771c-1.156-0.29-1.639-1.446-2.699-1.64c-1.543-1.062-3.856-0.867-5.11-1.735
			c-1.062,0-1.158-0.868-2.41-0.965c-3.375-1.832-7.812-1.832-11.379-2.604c-5.209,0-9.935-1.062-15.236,0
			c-1.736,0-3.279,0.676-4.822,0.965c-0.869,0.579-1.93,0.385-2.797,0.867c-7.137,2.219-14.369,5.111-20.541,10.029
			c-2.506,1.255-3.76,3.857-6.363,5.11c-0.577,0.387-0.192-0.481,0-0.771c1.929-2.604,4.531-5.4,7.232-7.425
			c2.604-1.929,6.074-3.375,8.969-5.112c2.604-1.156,5.398-1.929,7.617-2.893c2.797-0.192,3.375-1.929,6.268-1.639
			c0.58-0.097,1.062-0.482,2.123-0.386c0.48-0.386,0.867-0.193,1.543-0.482c0.867,0,1.832,0,2.894-0.29
			C1166.148,183.437,1170.969,182.859,1175.02,183.726z"/>
		<path style="fill:#17192D;" d="M1195.174,162.994c-3.471,2.507-7.906,2.121-11.09,4.822c-1.254,0.385-2.604,1.06-3.664,1.735
			c-2.99-0.097-6.076,1.832-10.125,3.664c2.604,1.061,4.531,0.771,5.881,0.386c5.691,0,10.705-0.964,16.685-0.097
			c1.641,0,3.663-0.482,5.11,0.193c2.797,0.097,6.076-0.676,8.486,0.675c0.096,0.097,0.096,0.097,0.193,0.193
			c-2.025,0.578-4.63,0.385-6.654,0.289c-1.736-0.482-3.568,0.193-5.496,0.193c-3.762,0.096-7.715-1.254-11.09,0.385
			c-3.086,0.386-5.98-1.061-8.969,0c-2.701,0.868-5.4-0.482-7.908,0.771c-4.629-0.771-10.607,0.097-15.621-0.771
			c-5.691,0-11.478,0.386-17.07-0.578c-3.084-0.097-4.338-0.675-7.229-1.254c-0.099,0,0.479-0.675,0.479-0.868
			c3.086-1.832,4.146-2.41,7.426-3.664c4.533-1.833,9.354-1.446,13.888-2.7c6.362,0.097,12.633,0.965,17.262,7.04
			c8.486-5.111,17.551-5.69,25.748-10.126c3.664-1.157,7.039-2.989,10.703-4.146c0.578,0,1.543-0.386,2.219-0.193
			C1201.346,160.679,1198.26,162.03,1195.174,162.994z M1140.883,169.358c-1.254,0.386-2.797-0.096-3.955,0.676
			c-1.543-0.193-2.987,0.675-4.241,1.157l-2.314,1.639c0.867,0.097,4.244,0.386,5.207,0.579c1.254,1.253,3.474,0.675,5.017,1.061
			c7.135-0.965,15.139,0.192,23.723-0.193c-1.254-1.543-2.508-1.929-3.184-2.604c-1.351-1.35-5.109-2.797-7.617-3.856
			C1149.176,168.394,1144.547,167.429,1140.883,169.358z"/>
		<path style="fill:#17192D;" d="M1207.422,123.938c2.41,0.29,4.049-0.289,4.629,0.868c0,0.097-0.098,0.289-0.098,0.386
			c-3.568,2.025-8.197,1.157-12.344,2.314c-7.328,1.061-14.851,1.64-21.601,3.375c-1.543,2.122-3.278,5.014-2.219,7.812
			c0.096,0.096-0.289,0-0.674,0.675c0.674,0.964-0.387,1.349-0.387,2.121c-0.388,1.832-0.193,4.146-0.966,7.329
			c5.595,1.254,10.896,1.157,15.525,2.411c3.377,0.964,8.103-0.579,11.478,1.157c1.254,0,2.797-0.193,3.663,0.867
			c0.193,0.482-0.676,0.482-1.061,0.482c-3.953-0.675-6.943-0.386-10.703-0.868c-4.438-1.929-11.188-0.289-16.01-2.218
			c-1.734,0-4.437,0.482-5.785-0.482c-4.533-1.061-9.934,0.29-14.176-1.736c-7.908,0.29-14.465-2.988-22.564-2.988
			c-0.387-0.387-0.387-1.061-1.254-1.157c-2.313-0.771-5.305,0.675-6.75-1.254c0.578-1.061,2.121-0.578,3.277-1.446
			c9.74-2.122,18.709-6.364,28.641-8.196c2.797-1.351,6.271-1.736,9.355-2.99c1.061-0.097,2.121-0.289,3.084,0.097
			c1.93-0.579,4.051-1.254,6.172-1.254c4.533-0.096,8.584-2.218,13.309-1.832c1.447-0.868,3.664-0.192,5.207-0.675
			c2.99-0.29,6.076-1.061,8.873-1.832c0.578-0.29,0.867-0.482,0.963-0.675c0.869-0.387,0.965-0.387,1.642-0.29
			C1206.65,124.035,1207.422,123.746,1207.422,123.938z M1170.969,131.75c-4.819,2.122-10.414,2.122-15.428,3.568
			c-5.883,1.639-11.379,4.917-18.033,6.171c0,1.639,0.674,2.218,1.832,2.313c2.699,0.965,5.207,2.025,8.293,2.411
			c5.689,0.771,12.344,0.288,17.744,1.639c1.445,0,3.566,0,5.496,0.578c0.965-1.156,1.061-2.313,1.928-2.893
			c0-1.156,0.291-2.024,0.387-2.894c0.193-1.446,0.193-2.796,0.482-3.856c0.482-1.832,0.771-2.507,0.965-4.05
			C1177.238,130.206,1172.705,131.845,1170.969,131.75z"/>
		<path style="fill:#17192D;" d="M1172.705,99.444c3.762,0.289,7.619,1.157,11.668,1.64c4.918,0.578,10.029,1.156,14.658,3.472
			c2.41,2.409,5.399,3.664,7.33,6.846c0.288,1.736,1.541,1.447,0.963,3.568c0.098,0.289-0.193,0-0.193-0.386
			c-2.217,0.096-1.156-0.482-2.795-2.7c-2.508,0.771-4.34-0.386-6.172,0.386c-7.715-0.482-14.369,0-21.892,0.771
			c-1.832,0.868-4.146,0.868-6.268,0.578c-1.353-0.481-2.797,0.482-4.437,0.193c-5.016-0.289-10.608-0.289-15.526,0.386
			c-3.664-0.192-7.232,0-10.992,0.386c-1.447-0.289-3.086-0.771-5.11-0.192c-0.578,1.35-1.255,1.061-0.771,2.217
			c-0.193,0.193-0.387,0.482-0.676,0.676c-0.289-0.097-0.578,0-0.867-0.289c0.385-2.797,2.217-4.34,3.953-6.461
			c3.375-3.087,7.715-4.533,11.379-7.521c2.412-1.544,4.918-1.736,7.521-2.797c3.278-0.482,6.942-0.29,10.127-0.965
			C1167.305,99.925,1169.908,99.733,1172.705,99.444z M1157.469,101.854c-3.76-0.192-6.365,1.543-9.932,2.604
			c-0.193,0.192-1.062,1.06-1.543,1.35c-2.701,1.929-5.883,2.797-8.777,6.654c3.474-0.29,5.209,0.964,6.849,0.288
			c2.409,0.29,4.532-0.964,6.942-1.061c3.471,1.061,7.232,0.193,10.801,0.676c3.279,0.385,6.847-0.386,10.222-0.579
			c5.979-2.314,12.924-0.675,19.096-1.35c2.988,0,6.459-0.482,11.187,0.097c-1.832-3.857-5.111-4.533-7.33-5.786
			c-5.689-1.543-11.379-2.508-17.261-3.086c-1.157-0.193-2.604,0.289-3.666-0.386
			C1168.752,101.566,1162.387,99.733,1157.469,101.854z"/>
		<path style="fill:#17192D;" d="M1200.863,68.971c0.771,0.386,1.543,0,2.41,0.193c0.676,0,1.157,0.192,1.735,0.578
			c0.099,0.482-0.479,0.868-0.771,1.351c-0.674,0.868-1.445-0.482-1.64-0.482c-0.192-0.386-1.157,0.482-2.12-0.965
			c-1.931,0.579-3.664,0.579-5.017,0.193c-2.699,0.289-5.688-0.482-8.293,0.578c-1.061,0.097-1.639,1.351-2.121,1.929
			c-0.096,0-0.481,1.157-1.35,1.544c-1.254,1.156-3.086,2.988-3.666,3.471c-0.48,0.482,0-0.578-0.867,0.387
			c-0.481,0.385-0.289,0.578-0.965,1.639c-0.867,1.062-2.604,2.894-2.988,3.375c-0.578,1.157-1.157,2.507-1.832,4.05
			c2.025,1.351,4.049,0.965,5.4,1.833c1.733,0.096,3.856,0.481,5.688,0.964c1.062-0.868,1.832,0.193,2.604,0.193
			c1.061,0.578,2.699,0.482,3.953,1.062c2.41,0.386,4.532,1.832,7.231,1.351c0.965,0.192,2.121,0.578,3.086,0.867
			c-0.096,0.193-0.192,0.386-0.385,0.386c-1.641,0.29-3.086-0.579-4.533-0.482c-0.387-0.289-0.676-0.386-1.061-0.289
			c-0.771-0.097-1.543-0.289-2.219-0.289c-1.543-0.482-2.604,0.386-5.111-1.254c0,1.446,0.193,0.579,0.193,0.579
			c-1.445-0.386-3.471-0.964-5.4-0.868c-1.156-0.771-2.604-0.482-3.76-0.771c-2.701-0.289-4.533-1.351-7.137-1.157
			c0,0-0.097-0.096-0.193-0.096c-0.771-0.482-1.639-0.193-2.121-0.676c-5.883-1.64-11.861-3.279-17.744-4.918
			c-1.35-0.675-2.506-0.965-3.953-1.543c-1.928-0.676-3.76-1.832-5.785-2.604c-2.024-0.772-3.954-2.025-6.27-2.7
			c-0.578-0.29-1.543,0.192-1.543-0.772c0-0.288-0.289-0.964-0.096-1.06c0.676-1.062,2.604-1.062,3.567-1.543
			c2.314-0.193,5.593-0.676,8.39-1.254c1.061-1.254,2.701-0.289,3.955-0.771c4.725,0.192,9.643-2.218,15.043-1.543
			c6.846-1.061,14.465-1.64,20.926-1.061C1191.027,68.779,1195.945,68.296,1200.863,68.971z M1171.645,70.611
			c-1.254-0.482-3.182,0.675-5.11,0.289c-2.314-0.386-4.82,0.386-7.135,0.771c-2.22-0.386-3.955,0.965-6.173,0.771
			c-1.446,0.193-3.856,0.193-5.786,0.579c-3.183,0.578-6.074,1.446-9.74,1.735c1.447,1.64,4.051,2.796,4.438,2.893
			c2.025,0.676,3.664,1.832,5.496,2.411c2.797,0.964,5.207,1.929,7.812,2.7c1.832,0.482,4.244,1.062,5.883,1.351
			c1.832-0.097,4.436,1.542,6.943,1.929c1.446,0.192,0.771,0.868,2.797,0.289c0.771-1.832,1.928-3.086,2.604-4.725
			c0.867-1.158,1.351-1.255,2.604-2.604c0.866-0.868,1.735-2.218,2.698-3.472c0.869-0.964,2.025-2.025,2.604-2.7
			c0-0.192,1.158-1.446,1.158-2.218c-1.351-0.289-2.894-0.289-3.763-0.386C1176.369,69.839,1174.344,70.225,1171.645,70.611z"/>
		<path style="fill:#17192D;" d="M1201.441,58.556c0.098,0.097,0.192,0,0.192,0.097c-1.735,0.386-3.471-0.29-5.014,0.386
			c-1.062,0.675-2.412,1.253-3.762,0.579c-0.097-0.675-0.386-1.447-0.191-2.314c0.191-0.387,0.479,0.096,0.771-0.193
			C1196.332,56.242,1199.031,57.207,1201.441,58.556z"/>
	</g>
	<path style="fill:none;stroke:#17192D;stroke-width:3;" d="M2048,0"/>
	<path style="fill:none;stroke:#17192D;stroke-width:3;" d="M2048,1536"/>
	<path style="fill:none;stroke:#17192D;stroke-width:3;" d="M0,1536"/>
	<path style="fill:none;stroke:#17192D;stroke-width:3;" d="M0,0"/>
</g>
<g id="Layer_1">
</g>
</svg>
