<svg xmlns="http://www.w3.org/2000/svg" width="2048" height="1536" viewBox="0 0 2048 1536"><g><g fill="#17192D"><path d="M908.568 646.665c-.192-.096.87-.29 1.254-.192h.77c.58.192 1.352.48 1.93.386 1.35.577 2.7.288 3.857.867 2.313 1.06 5.4 2.024 7.906 4.146 1.543 1.64 3.568 2.313 5.11 3.76.29.87.677 1.254.483 2.025-1.544.097-2.315-2.12-3.763-2.7-1.06-.964-2.604-1.253-3.47-2.507-.194-.096-.58-.48-.772-.577-.193-.097-.29-.29-.29-.29-.096 0-.48-.192-.48-.29-.87-.867-1.16-.964-1.16-.577-.673-.193-1.155-.676-1.83-.58-.29-.096-.58-.288-.772-.577-1.156.19-1.445-.387-2.024-.483-1.063-.578-2.7 0-3.858-.386-.58.098-1.06-.48-1.735-.385-2.314-.675-3.28-.097-5.786.096-3.182 1.16-3.277.87-5.303 1.64-1.543.58-2.41.772-3.857 1.448-1.447.675-2.025 1.446-3.472 2.12-1.35.58-2.218.387-3.472.868-1.446.58-2.314 1.255-3.664 1.833-1.35.675-2.41.964-3.954 1.64-1.446.866-2.218 1.734-3.954 2.217-.482 0-1.157.096-1.64.096-.48-.096-1.06.098-1.35.098-.29.097-.77-.097-1.06-.192-1.736.578-2.7-.58-4.533-.386-1.735-.482-3.47-.675-5.496-1.35-1.93-1.062-4.437-1.544-6.558-2.99-2.218-1.157-4.436-2.893-6.075-5.015-.19-.29-.963-1.06-.288-.964 1.735.77 3.278 2.507 5.11 3.183 4.918 3.086 10.03 4.918 15.14 5.4.58.288 1.255 0 1.93.288.964 0 2.314.29 3.375.098 3.472.385 2.7-1.157 4.146-1.736 1.543-.58 2.507-.482 3.857-1.157.964-.58 1.446-1.255 2.604-1.736.964-.58 1.64-1.062 2.893-1.254 2.893-.29 2.99-.868 4.436-2.122.676-.386 1.06-.867 1.832-1.156.676-.58 1.254-.29 2.12-.58 1.16-.29 1.737-.674 2.895-1.06 1.062-.386 2.218-.868 2.796-.868 2.025-.868 3.184-.29 5.11-.482.58-.003 1.16.383 1.062.383zM895.937 621.014c6.075-.77 11.476 2.218 17.068 3.472 2.314 1.254 5.015 1.446 7.715 3.183.868-.29.964.385 1.253.77 0 .097-.096-.482-.096-.482-3.28 1.93-7.137 4.05-11.187 5.207-2.122.965-4.726 1.254-6.847 1.93-2.604.77-5.11 1.64-7.618 2.313-5.208.482-8.583 1.35-13.597 1.832-3.762-.675-8.197-.29-11.572-1.735-2.12.77-4.726-.193-6.75-.675-2.508.48-4.533-1.832-6.943-2.122-2.604-1.156-5.883-.964-7.715-3.183.096-.096-1.06-.77-.386-1.542.192-.193.29-.387.48-.58 1.642-1.155 2.798-2.795 4.823-3.663 4.436-2.508 9.45-4.918 15.043-4.726 2.99.578 5.883-1.93 8.873-.386 5.5 0 12.056-.675 17.457.386zm-43.78 7.81c-.388 1.062-1.255 2.7.673 2.7 6.75 2.508 13.5 3.857 20.444 4.92 6.75.963 13.115 1.542 19.673-.29 8.39-2.41 17.26-3.954 26.71-8.39-5.495-1.062-8.58-2.7-11.956-3.28-7.425-.48-14.175-2.7-21.696-2.506-12.15.194-24.4 1.543-33.848 6.847zM925.155 575.787c-.964 2.12-3.278 2.314-4.918 3.472-2.218 1.156-4.628 2.313-7.136 2.603-.675.386-1.64.482-2.41.58-6.46 1.156-12.73 3.76-19.48 3.952-4.628.965-9.74.482-14.753.387-4.146 0-9.45-1.158-13.598-2.99-2.026-.482-4.243-1.253-5.69-2.507-2.12-.578-3.76-2.122-5.593-3.278-.386-.676-.868-1.35-.868-2.026 0-.095-.097-.19-.097-.19 1.928.48 3.76 1.928 5.69 3.085 1.542.868 2.41 2.025 4.05 2.41 2.795.58 5.014 2.508 7.906 2.315 5.304 1.35 11.09 1.254 17.454.867-.965-2.218.675-3.086-.098-4.436.098-.578.193-.963.387-1.35.29-.29.482-.578.867-.29l.482.483c-.192.578.193.964.482 1.254-.29 1.253 0 2.508-.193 4.05 4.727.482 7.91-.868 11.767-1.06 1.64-.772 4.146-.965 6.172-1.544 1.83-.578 4.05-.578 5.784-1.64 1.447.193 3.086-.29 4.244-1.735 2.506.097 4.436-1.736 7.328-2.314v-.482c.482-.192 1.447-1.253 2.604-.868-.095.482-.19.867-.385 1.253zM861.703 547.823c1.06 0 2.604-.097 3.76-.193 2.797-1.735 7.137 0 10.416.386 2.023-1.157 5.398-.482 7.52-.675 3.086-.77 7.136.193 10.703.193 6.27 0 13.5-.192 19.77-.48.964-.1 1.928-.677 2.797-.29.096.096.192-.098.29-.098-2.22 1.447-4.92 1.543-7.138 2.508-3.182 2.797-6.846 4.243-10.222 6.364-4.05 1.832-8.196 3.183-11.86 5.98-1.158.577-2.22 1.252-3.376 1.83l-2.796 1.35 3.182.193c7.52.482 14.562-1.35 22.275-.29 3.086 0 5.98-1.252 8.97-.674.77-.097 1.735 0 2.41 0-.097.192 0 .58-.097.675-.77 0-1.446.194-2.12.677-.772.385-1.737.385-2.605.578-2.604.29-5.208-.097-7.812.482-7.04.192-13.885-.676-20.732.097-3.182-.58-6.364 1.06-9.45.192-2.024.48-4.63-.58-6.172.58-4.628-.483-9.16-1.255-13.982-1.255-1.062-.385-2.7 0-3.183-1.156-.095-.097.58-1.062.58-.58 5.207-1.35 9.644 1.737 15.622 1.063 3.086-.387 6.268 0 9.547-.965.963-1.35 2.41-1.253 3.47-2.12 1.93-.29 3.857-.772 5.11-2.123 4.92-2.41 9.934-3.28 13.888-6.848 1.157-.482 2.314-1.06 3.568-2.122 0-.29 2.796-1.542 2.796-1.83-.097-.194-2.99.48-2.99.095-3.76 0-7.23-.675-10.222.386-5.4-1.35-10.992-1.445-16.78-.19-4.145-.483-8.388-1.063-12.438-.29-3.375-1.446-7.136 1.542-10.222-1.157-.29-.868-1.832-.58-1.735-1.64 3.28-.578 6.075 1.254 9.258 1.35zM840.295 524.68c0 2.99-.098 5.882.674 9.16 7.232.483 14.175.483 19.77-1.35 1.542-.29 3.085-.482 4.34-.964 6.073-1.736 10.606-.482 16.585-2.604 3.762-.29 7.137-1.062 10.704-1.64 5.014-.868 10.22-.29 14.85-1.35 2.99 0 6.558-.387 9.74-1.254 2.604.096 5.304-1.062 7.907-1.543.386.192.868.578 1.06.867-.385 2.894-4.627 1.254-6.46 2.122-6.558 1.254-12.922 1.93-18.997 2.12-3.664.098-7.52 1.063-11.283 1.544-3.76.482-6.557.77-10.318.77-1.062.58-2.508.772-3.858.483-1.253 1.158-2.507.483-3.47 1.158-3.184.482-6.56 1.35-10.03 1.832-3.086 0-6.46 1.832-9.258 1.35 0 0-.482.193-.578.29-2.797-.097-6.172.29-10.03-1.157-.77 2.218-.192 4.436-.385 6.075-.578 6.075 1.255 11.67.29 17.357 0 .482.58 1.157.192 1.64-.385.386-.77.097-1.156 0-1.06-1.446-.77-3.76-.77-5.4-.677-.77.095-2.314-.194-3.278.578-5.98-.386-11.86-.386-17.262 0-5.015-.964-11.09-1.253-16.2-.387-.868.385-1.447.867-1.833.097 0 0-.192.097-.096.96 2.895 1.348 5.98 1.348 9.164zM912.812 506.165c3.76.965 6.46 4.146 10.22 5.304.58 1.06 1.834 1.64 2.413 2.7-.87.29-1.833-.58-2.604-.965-.674-.675-1.35-1.062-2.312-1.157-2.122-1.543-5.016-2.22-7.233-3.954-1.64-.578-4.05-.77-5.882-1.64-3.28-.192-6.558-.192-9.74.386-3.086.58-6.075 1.833-8.486 3.954-3.182 1.543-6.846 2.7-10.318 3.472-5.4 2.7-12.247 2.41-17.84.193-3.28 0-5.112-2.798-8.1-3.184-.87-.675-1.64-1.35-2.702-1.736-.578-.48-.29-1.254-.77-1.93 0-.19-.386.098-.193.194 1.35.097 2.796.675 3.954 1.254 5.11 3.953 11.956 4.146 18.128 5.496 4.34-.193 7.908-2.218 12.055-3.182 2.604-1.64 5.882-2.218 8.486-3.857 1.927-.193 3.47-2.41 5.495-1.93 4.34-1.542 9.45-1.542 13.598 0 .576.29 1.154.483 1.83.58zM842.416 477.043c.193 1.64.867 2.797 1.157 4.533-.58 2.604-.097 4.918.868 8.1 1.35-.675 2.315-.482 2.798-.29 1.832-.192 4.146.29 5.98.194 1.734-.387 3.856-.58 5.592-.58 2.7-1.35 6.075-1.735 8.775-2.313 1.543.386 3.375 0 4.82.193 6.56 0 13.31-1.64 19.48-2.507 1.157.096 2.894-.193 3.954.096.192-.097.674-.097.77-.194 4.82-.192 8.68-.29 13.5-.29 2.22 0 4.146.388 6.172.483h-.096c-2.508 1.83-5.98 1.156-8.68 1.734-3.953-.964-8.1 1.06-12.343-.578-2.508 2.604-5.497.578-8.1 1.446-2.41-.29-5.305-.192-7.33 1.06-.964-.095-1.832.29-3.183-.19-2.314 1.35-5.207.674-7.617.674-3.954-.868-7.137 1.735-10.897 1.254-2.7 1.35-5.786 1.157-8.872 1.157-.964-1.06-2.507-.097-4.436-2.218-.676 4.24-.29 6.75-.482 9.353.482 2.025-.29 4.243 0 6.46-.096.097-.096.194-.193.29-.77-.096-.964-.964-1.253-1.542.58-1.928.48-3.856 0-5.785-.386-.482 0-1.35.097-2.315-1.06-1.446-.193-3.567-.965-4.918.482-1.542-.193-3.182-.096-4.725-.87-1.543.29-3.568-.58-5.11 0-1.35-1.83-2.7-.29-3.762.1-.096.29-.192.483-.29.388.097.87.193.966.578zM859.002 462.29c1.447.192 2.41 1.64 4.05 1.64 3.087 1.54 5.98 2.313 9.74 2.506.58.29 1.544.386 2.218.58 2.122.19 4.05 1.156 6.076 1.156 1.254.386 2.99-.29 4.146 1.254 1.543-.387 2.7-.772 3.664-1.254.386-.772 1.447-1.736 1.35-2.797.676-1.06.098-1.93.58-3.28.578-1.83.578-2.892 1.542-4.82.482-.386.964-.77 1.543-.675.387.964 0 2.12 0 3.278-1.253 2.508-1.06 3.857-1.928 7.137.77.482.482.867.77 1.06 2.412.387 5.016.098 7.04-.385 1.254.192 2.314-.29 4.244-.29.385-1.156 1.253-.29 1.832-.578 3.47-.29 6.557-2.218 10.125-2.41 1.543-1.35 4.146-1.158 5.69-2.315 1.83.193 2.796-2.218 5.11-1.64 1.157-.867 2.218-1.928 3.664-1.928.386.288.77.577 1.157.963-.192 1.447-1.832 1.543-2.894 2.314-1.64.193-3.182.58-4.338 1.64-2.122-.097-3.376 1.735-5.4 1.64-.772.482-1.543.578-2.122.965-.77-.098-1.446.192-2.025.48-4.436 0-7.907 2.895-12.343 2.605-.58.386-1.64.386-2.22.482-4.724 1.638-10.22 1.35-15.042 1.253-2.22-.58-4.918 0-6.847-.965-5.98-1.06-11.765-3.472-17.454-5.015-2.702-1.06-5.21-2.7-7.716-4.05-2.797-1.543-6.076-2.604-8.1-5.4 0-.193 0-.482.19-.58 4.344 2.797 8.877 5.304 13.698 7.426zM920.237 425.646c-1.157.867-2.7 1.447-3.857 2.41-4.726 1.35-9.836 2.604-14.947 2.604-3.664.58-7.425 1.35-10.993 2.22-1.93-.194-4.146-.58-6.364-.098-.29.77-.29 1.062-1.446 1.35 1.06 2.797 3.278 4.726 4.34 6.75.578.29 1.156 1.062.963 1.737-.385 1.155.193 1.155.87 1.83.866 0 1.638.098 2.41.482 2.024-.675 3.567-.675 5.206-.097 1.83 1.062 3.374.29 5.4 0 3.856-.578 7.52-1.446 11.475-1.64 3.086-.096 6.172-.096 9.45-.096.29.096.58.192.482.48 0 .29-.386.58-.675.676-4.82.29-9.45.482-13.693 1.832-3.184-.096-5.787.868-8.776.58-7.136-.676-14.657 0-21.408.866-2.99-.675-5.304.58-8.196.387-7.522-.578-15.334-.578-21.987-2.796-.964-.29-.482-1.06-.964-1.736.095-.29.577 0 .77-.096 2.314.48 4.34 1.542 6.653 1.446l.192.192c3.955-.192 7.62 1.062 11.09.868 2.604 1.446 5.497-.386 8.294.097 3.566.58 6.557-.675 10.027-1.157.482-.386 1.158-.77 1.833-1.543-1.157-3.086-4.726-5.015-5.11-7.52.48 0-.676-.772-.193-2.315-2.99-.868-5.4.29-7.62-.772-1.83-.48-3.663.482-5.59-.578-2.605 1.254-4.92.097-7.427.29-1.447-1.254-2.025 1.253-3.762.097-1.64.48-3.857.77-5.207 0 .098-.387.098-.676 0-1.062 1.448-.867 3.473.29 4.92-.867 2.12-.193 3.664.964 5.785.578 6.172-1.157 13.02.192 19.286-.193 4.34-.193 9.066.482 13.213-.964 6.558-1.063 13.404-1.93 19.575-3.184 1.543-.964 3.376-2.024 5.305-1.93.29.29.578.484.674.87zM925.155 406.744c-.964 2.122-3.278 2.314-4.918 3.472-2.218 1.157-4.628 2.314-7.136 2.604-.675.386-1.64.482-2.41.58-6.46 1.156-12.73 3.76-19.48 3.952-4.628.965-9.74.482-14.753.386-4.146 0-9.45-1.157-13.598-2.99-2.026-.48-4.243-1.253-5.69-2.506-2.12-.578-3.76-2.122-5.593-3.28-.386-.674-.868-1.35-.868-2.023 0-.098-.097-.194-.097-.194 1.928.482 3.76 1.93 5.69 3.086 1.542.868 2.41 2.025 4.05 2.41 2.795.58 5.014 2.508 7.906 2.315 5.304 1.35 11.09 1.253 17.454.867-.965-2.218.675-3.085-.098-4.436.098-.578.193-.964.387-1.35.29-.29.482-.58.867-.29l.482.482c-.192.58.193.965.482 1.254-.29 1.254 0 2.508-.193 4.05 4.727.482 7.91-.867 11.767-1.06 1.64-.772 4.146-.965 6.172-1.544 1.83-.578 4.05-.578 5.784-1.64 1.447.193 3.086-.29 4.244-1.735 2.506.097 4.436-1.736 7.328-2.314v-.48c.482-.193 1.447-1.255 2.604-.87-.095.483-.19.87-.385 1.254zM927.855 368.27c-7.618 3.374-14.176 7.81-20.83 12.246-.578.29-.77 1.06-2.024 1.06-3.085 3.087-6.942 3.376-9.738 6.173-2.508 1.253-5.305 2.7-8.197 4.917.386.29 1.06.58 1.35.77 2.025.965 4.05.193 5.883.29 5.786.192 11.09-.77 16.2-.868 4.92 0 9.45-1.158 13.79-.676.098.193.098.482.098.868-.29 2.218-2.797.675-3.857 1.06-4.63.58-8.68.676-13.695.87-6.17.385-12.247.096-18.42.77-4.145.386-7.906 0-11.86.868-6.557-.772-13.21 2.604-19.77 1.253-1.54 0-3.084.77-4.725.386-.674-.483-3.76.096-2.217-1.35 5.014-.772 10.222 0 15.332-.677 7.715-.29 15.912-.77 21.602-5.69.964-.288 1.735-.963 2.41-1.445 2.41-1.446 5.016-2.507 7.04-4.63 2.024-.674 3.857-1.83 5.497-2.988 2.893-2.893 6.75-3.953 9.932-6.172 0-.386.29-.29.482-.386.868-.386 1.543-1.156 2.604-1.93 0-.385 2.797-.963 2.7-1.252-.097-.29-3.278-.193-3.567-.386-4.436.964-9.933 1.35-15.044 1.832-5.496.482-9.16 1.543-14.367 1.64-1.832-.387-4.436 1.446-6.27-.097-2.023 0-3.182-.098-4.82.48-1.447 0-2.893-.192-4.63-.192-.385-.097-.77.29-1.156.29-1.64 1.06-2.507-1.447-3.76-.29-.58.193-1.158.676-1.737-.193-3.086.87-5.496.387-8.1-1.06-.868.385-1.158-.097-1.543-.386v-.29c.29-.676.867.29.867.192 0 0 .58.482 1.158-.097.385-.58 1.253.675 1.445.386 3.28.772 7.137.58 10.8.098 3.376.578 8.487-.386 11.67.29.675-.098 1.542-.676 2.7-.29 1.06-.965 2.507-.097 3.278-.676 4.05-.29 8.39-.964 12.536-.964 3.955-.386 8.294-.77 11.477-1.254.675.193 1.446-.386 2.122.097 1.638-.385 2.313-.385 3.566-.578 2.508-.48 5.69-.867 7.907-1.35.387 0 .868-.29 1.447-.964-.482-.868.578-.482.675-.482.868-.386 2.314.386 3.76-.097 0 .29.097.58 0 .87zM914.258 315.713c.87 2.025.29 4.63.676 6.27-.193 2.988.482 5.688.965 8.58-.1.58-.388 1.255-.87 1.64-2.024-.48-4.146-.385-5.98-.577-1.83.675-3.952-.193-6.073-.868-3.665.386-7.522-.29-10.897-.578-4.147.482-7.907-.29-11.958-.676-3.664.578-7.232-.578-10.704-1.64-.675-.867-.964-.77-1.35-.096-5.4-.482-10.222-2.314-15.237-4.146-3.374-1.254-2.698-1.06-6.46-2.508-.482 1.544 0 2.797-.192 3.568-.192 1.06-.192 2.122 0 3.183-.192 2.024.097 4.532.868 6.557-.097.097-.097.193-.193.29-.675-.097-1.06-.868-1.35-1.543-.386-1.255 0-2.22-.868-3.184-.192-1.543.097-2.893-.192-4.63.77-2.217-.965-5.303 1.832-5.688 1.735 1.35 3.47 1.543 5.496 2.314 1.16.482 2.702.867 4.147 1.254 8.102 2.12 15.623 4.532 24.012 5.11 3.567-.77 7.33.868 11.09.482 4.146 0 8.1.29 12.632 1.157 1.64.29 3.375-.097 5.497.868 2.023-2.41 5.4 1.06 5.11-3.183-.58-2.894-.772-6.27-.772-9.064.097-1.062-.29-2.41.386-3.086.095 0 .19.096.384.193zM880.41 279.455c6.46 2.314 13.31 1.64 19.48 4.243 6.363 2.7 13.307 3.857 19.865 5.98.19.192.48.48.674.77-2.122.868-4.92-.868-7.426-.578-7.618-.58-14.755 1.93-22.76 2.99l-.384 1.735c8.68 1.735 16.008 5.4 24.012 6.942.29.193.77.29 1.06.482 1.737.096 3.858-1.062 5.112-.098-.098.675-.77.965-1.447 1.157-1.543-.193-2.7.867-4.146 1.253-8.58-.386-16.2 1.446-24.878 2.025-10.705.77-21.312 1.543-31.438 1.446-5.305.77-9.354.964-13.5.482-.387-.193-1.158 0-1.544-.097.29-.193.58-.483.868-.772 3.182-.675 5.98-.675 9.354-.965 14.658-1.157 30.763.097 45.807-2.41 2.698-.482 5.398-.29 8.292-.58 1.928-.674 1.06-2.603-.387-2.217-6.268-3.086-13.886-3.568-20.154-5.883-1.155-.386-2.988-.097-3.47-1.253.192-.386.578-.58.964-.77 6.558-2.123 13.693-2.895 23.53-5.4-6.076-2.22-9.645-2.605-12.44-4.244-7.04 0-11.86-2.893-18.9-2.893-5.4-2.025-11.765-1.158-17.165-3.472-4.438-.096-8.102-1.06-13.31-1.928-.096 0-.385 0-.482-.097.098-.192.193-.386.29-.675.77 0 1.253-.386 1.64-.58 10.896.873 21.89 3.96 32.882 5.405zM859.002 258.915c1.447.193 2.41 1.64 4.05 1.64 3.087 1.542 5.98 2.314 9.74 2.507.58.29 1.544.386 2.218.58 2.122.19 4.05 1.156 6.076 1.156 1.254.386 2.99-.29 4.146 1.253 1.543-.385 2.7-.77 3.664-1.252.386-.772 1.447-1.736 1.35-2.797.676-1.06.098-1.928.58-3.278.578-1.832.578-2.893 1.542-4.82.482-.387.964-.772 1.543-.676.387.964 0 2.12 0 3.278-1.253 2.508-1.06 3.857-1.928 7.137.77.482.482.868.77 1.062 2.412.386 5.016.097 7.04-.386 1.254.192 2.314-.29 4.244-.29.385-1.156 1.253-.29 1.832-.578 3.47-.29 6.557-2.218 10.125-2.41 1.543-1.35 4.146-1.158 5.69-2.315 1.83.193 2.796-2.218 5.11-1.64 1.157-.867 2.218-1.928 3.664-1.928.386.29.77.578 1.157.964-.192 1.446-1.832 1.542-2.894 2.313-1.64.193-3.182.58-4.338 1.64-2.122-.097-3.376 1.735-5.4 1.64-.772.48-1.543.578-2.122.964-.77-.097-1.446.193-2.025.482-4.436 0-7.907 2.892-12.343 2.603-.58.386-1.64.386-2.22.482-4.724 1.64-10.22 1.35-15.042 1.253-2.22-.578-4.918 0-6.847-.964-5.98-1.06-11.765-3.472-17.454-5.015-2.702-1.062-5.21-2.7-7.716-4.05-2.797-1.544-6.076-2.605-8.1-5.4 0-.194 0-.483.19-.58 4.344 2.796 8.877 5.303 13.698 7.425zM924.674 240.497c.29.097.48.193.675.387-.87 2.218-3.473.964-5.498 1.542-1.736.29-3.375 0-5.11.097-4.726.097-9.45-.097-13.983 0-2.41 0-5.594.192-8.102-.097-1.64-.192-3.664 0-5.304.097-3.953.386-7.715 0-11.86.29-.194-.193-.387-.193-.58-.193-1.735.867-3.663.096-5.304.385-3.953.193-7.714.58-11.57.58-2.7-1.158-5.498.578-8.295-.098-.385-.096.58-1.156.87-1.156 4.24-2.893 9.16 1.157 13.885-.192 5.593-1.543 11.86-.964 17.358-1.253 5.496-.29 10.703.19 16.297 0 1.543-.193 3.086-.193 4.725-.193.387 0 .87.096 1.254.096 4.243-.096 8.486-.096 12.247-.675 2.893.77 5.304.288 8.294.384zM908.568 192.667c-.192-.096.87-.29 1.254-.192h.77c.58.192 1.352.482 1.93.386 1.35.58 2.7.29 3.857.868 2.313 1.062 5.4 2.025 7.906 4.147 1.543 1.64 3.568 2.313 5.11 3.76.29.868.677 1.255.483 2.026-1.544.097-2.315-2.12-3.763-2.7-1.06-.964-2.604-1.253-3.47-2.507-.194-.096-.58-.482-.772-.578-.193-.097-.29-.29-.29-.29-.096 0-.48-.192-.48-.29-.87-.866-1.16-.964-1.16-.577-.673-.193-1.155-.676-1.83-.58-.29-.096-.58-.288-.772-.577-1.156.193-1.445-.385-2.024-.48-1.063-.58-2.7 0-3.858-.387-.58.097-1.06-.482-1.735-.386-2.314-.675-3.28-.097-5.786.096-3.182 1.158-3.277.87-5.303 1.64-1.543.58-2.41.77-3.857 1.447-1.447.675-2.025 1.446-3.472 2.12-1.35.58-2.218.387-3.472.87-1.446.577-2.314 1.253-3.664 1.83-1.35.676-2.41.966-3.954 1.64-1.446.87-2.218 1.736-3.954 2.22-.482 0-1.157.096-1.64.096-.48-.097-1.06.096-1.35.096-.29.097-.77-.096-1.06-.192-1.736.578-2.7-.578-4.533-.386-1.735-.482-3.47-.675-5.496-1.35-1.93-1.062-4.437-1.543-6.558-2.99-2.218-1.156-4.436-2.893-6.075-5.014-.19-.29-.963-1.062-.288-.965 1.735.77 3.278 2.507 5.11 3.183 4.918 3.086 10.03 4.918 15.14 5.4.58.29 1.255 0 1.93.29.964 0 2.314.288 3.375.095 3.472.387 2.7-1.156 4.146-1.735 1.543-.58 2.507-.48 3.857-1.157.964-.577 1.446-1.252 2.604-1.734.964-.58 1.64-1.062 2.893-1.254 2.893-.29 2.99-.868 4.436-2.12.676-.388 1.06-.87 1.832-1.158.676-.58 1.254-.29 2.12-.58 1.16-.29 1.737-.674 2.895-1.06 1.062-.386 2.218-.868 2.796-.868 2.025-.868 3.184-.29 5.11-.482.58-.003 1.16.383 1.062.383zM840.295 170.584c0 2.99-.098 5.883.674 9.16 7.232.482 14.175.482 19.77-1.35 1.542-.29 3.085-.48 4.34-.964 6.073-1.735 10.606-.482 16.585-2.604 3.762-.29 7.137-1.06 10.704-1.64 5.014-.867 10.22-.29 14.85-1.35 2.99 0 6.558-.386 9.74-1.254 2.604.097 5.304-1.06 7.907-1.543.386.192.868.578 1.06.867-.385 2.893-4.627 1.254-6.46 2.122-6.558 1.252-12.922 1.927-18.997 2.12-3.664.096-7.52 1.06-11.283 1.543-3.76.482-6.557.77-10.318.77-1.062.58-2.508.772-3.858.482-1.253 1.157-2.507.482-3.47 1.157-3.184.482-6.56 1.35-10.03 1.833-3.086 0-6.46 1.832-9.258 1.35 0 0-.482.193-.578.29-2.797-.097-6.172.29-10.03-1.157-.77 2.217-.192 4.436-.385 6.074-.578 6.076 1.255 11.67.29 17.358 0 .482.58 1.157.192 1.64-.385.385-.77.097-1.156 0-1.06-1.447-.77-3.76-.77-5.4-.677-.77.095-2.314-.194-3.278.578-5.98-.386-11.862-.386-17.262 0-5.015-.964-11.09-1.253-16.2-.387-.87.385-1.447.867-1.833.097 0 0-.193.097-.097.96 2.896 1.348 5.982 1.348 9.164zM922.938 136.834c.096.48-.386 1.06-.578 1.445-.29.77-1.06.386-1.736.192-.482-.58-1.157.29-2.314-.77-1.735 1.06-3.568 1.253-4.82 1.156-2.605.675-7.234.77-9.645 2.025-.965.097-.867 1.446-1.736 2.314-.193.097-.097 1.06-.868 1.64-2.41 3.47-4.34 6.364-6.558 10.125-.29 1.446-.77 2.893-.77 4.436 1.83.868 5.303.193 6.75.77 1.734-.095 3.856-.095 5.69 0 .866-1.06 1.83-.19 2.603-.385 1.253.386 2.797 0 4.05.386 2.314-.193 4.918.77 7.425 0 .965-.193 2.41.096 3.375.192-.096.29-.192.578-.48.675-1.544.578-3.184 0-4.727.29-.192-.098-.385-.193-.867 0-.676 0-1.447.096-2.12.192-1.737-.387-2.413.77-5.21-.387v.675c-1.35-.29-3.567-.386-5.4 0-1.252-.386-2.7.097-3.76 0-2.604.29-5.207-.58-7.52.29-.1 0-.29-.097-.29-.097-.387-.48-1.062.097-1.833-.386-6.075-.386-12.247-.77-18.42-1.253-1.445-.578-2.892-1.253-4.24-.77-1.93-.386-4.052-.965-6.077-1.446-2.025-.482-4.146-1.254-6.653-1.446-.58-.193-1.64.48-1.735-.58-.098-.385-.77-.867-.193-1.156.578-1.447 2.218-1.543 3.182-2.12 2.122-.58 5.305-1.737 7.715-2.798.964-1.446 2.603-.965 3.76-1.543 4.92-.675 9.16-4.145 14.658-4.436 6.364-2.41 13.886-4.243 20.444-5.014 4.725-.482 10.125-1.64 14.56-2.314.58.192 1.448-.29 2.412-.193.574 0 1.25.098 1.924.29zM851.77 160.17c.29.386-.578.676-.964.77-1.254.87-2.7-.385-4.05.194-.387-.097-.58-.193-.87-.386-.095-.386.1-.675.388-.868 1.157-.193 2.025-1.832 3.182-.193 1.35-.095 1.832.194 2.314.483zm36.933-15.332c-3.76-.482-7.04 1.64-10.317 2.7-2.218-.193-3.76 1.542-5.98 1.928-3.76 1.254-8.967 1.64-12.053 5.594 1.253.867 1.64 1.157 1.93 1.35 4.628 1.93 9.74 1.64 14.56 1.93 1.833.096 4.05.867 5.787.867 3.182-1.06 4.532 1.735 8.196.29.29-2.123 1.446-3.665 1.832-5.4 2.122-2.99 3.28-6.944 6.27-10.32-.29-.288-.194-.385-.194-1.156-3.955-.193-6.752.675-10.03 2.218zm-37.897 6.942c.097.29-.675.58-.964.676-1.254.867-2.122 0-3.375.578-.482 0-1.254.097-1.64-.29-.097-.288-.097-.48.192-.675 1.35 0 1.928-2.41 3.47-.868 1.158-.097 1.834.193 2.316.578zM892.947 112.147c3.76.29 7.617 1.157 11.668 1.64 4.918.578 10.03 1.156 14.658 3.47 2.41 2.412 5.4 3.666 7.328 6.85.29 1.734 1.544 1.445.966 3.566.096.29-.193 0-.193-.386-2.218.097-1.156-.482-2.797-2.7-2.507.77-4.34-.386-6.17.386-7.716-.482-14.37 0-21.892.77-1.832.87-4.146.87-6.27.58-1.35-.482-2.795.48-4.435.192-5.015-.29-10.608-.29-15.526.386-3.664-.19-7.232 0-10.994.387-1.445-.29-3.085-.77-5.11-.192-.58 1.35-1.253 1.06-.77 2.218-.193.193-.387.482-.676.675-.29-.097-.578 0-.868-.29.386-2.796 2.218-4.34 3.954-6.46 3.375-3.086 7.715-4.532 11.38-7.52 2.41-1.544 4.917-1.737 7.52-2.798 3.28-.482 6.943-.29 10.125-.964 2.702.673 5.305.48 8.102.19zm-15.236 2.412c-3.76-.194-6.364 1.542-9.933 2.603-.192.192-1.06 1.06-1.543 1.35-2.7 1.93-5.882 2.797-8.775 6.654 3.472-.29 5.207.964 6.847.29 2.41.288 4.532-.966 6.943-1.062 3.47 1.06 7.232.192 10.8.675 3.278.386 6.847-.386 10.222-.58 5.98-2.312 12.922-.673 19.094-1.35 2.99 0 6.46-.48 11.187.098-1.832-3.857-5.11-4.532-7.33-5.786-5.688-1.543-11.378-2.508-17.26-3.086-1.157-.192-2.605.29-3.665-.386-5.305.29-11.67-1.543-16.587.58zM842.416 85.243c.193 1.64.867 2.796 1.157 4.532-.58 2.604-.097 4.918.868 8.1 1.35-.674 2.315-.482 2.798-.288 1.832-.194 4.146.288 5.98.192 1.734-.388 3.856-.58 5.592-.58 2.7-1.35 6.075-1.736 8.775-2.313 1.543.386 3.375 0 4.82.192 6.56 0 13.31-1.64 19.48-2.508 1.157.096 2.894-.193 3.954.096.192-.096.674-.096.77-.192 4.82-.193 8.68-.29 13.5-.29 2.22 0 4.146.387 6.172.482h-.096c-2.508 1.832-5.98 1.157-8.68 1.736-3.953-.964-8.1 1.06-12.343-.58-2.508 2.605-5.497.58-8.1 1.448-2.41-.29-5.305-.193-7.33 1.06-.964-.096-1.832.29-3.183-.192-2.314 1.35-5.207.676-7.617.676-3.954-.87-7.137 1.735-10.897 1.253-2.7 1.35-5.786 1.156-8.872 1.156-.964-1.06-2.507-.096-4.436-2.218-.676 4.242-.29 6.75-.482 9.354.482 2.025-.29 4.244 0 6.46-.096.1-.096.194-.193.29-.77-.096-.964-.964-1.253-1.542.58-1.93.48-3.857 0-5.786-.386-.482 0-1.35.097-2.314-1.06-1.446-.193-3.568-.965-4.918.482-1.543-.193-3.182-.096-4.726-.87-1.543.29-3.567-.58-5.11 0-1.35-1.83-2.7-.29-3.76.1-.098.29-.194.483-.29.388.095.87.19.966.577zM925.155 67.885c-.964 2.122-3.278 2.314-4.918 3.472-2.218 1.157-4.628 2.314-7.136 2.604-.675.386-1.64.482-2.41.58-6.46 1.156-12.73 3.76-19.48 3.952-4.628.965-9.74.482-14.753.386-4.146 0-9.45-1.156-13.598-2.988-2.026-.482-4.243-1.255-5.69-2.508-2.12-.58-3.76-2.122-5.593-3.278-.386-.676-.868-1.35-.868-2.025 0-.098-.097-.194-.097-.194 1.928.482 3.76 1.93 5.69 3.086 1.542.868 2.41 2.025 4.05 2.41 2.795.58 5.014 2.51 7.906 2.315 5.304 1.35 11.09 1.253 17.454.868-.965-2.22.675-3.086-.098-4.437.098-.578.193-.964.387-1.35.29-.29.482-.58.867-.29l.482.482c-.192.58.193.965.482 1.254-.29 1.254 0 2.507-.193 4.05 4.727.482 7.91-.867 11.767-1.06 1.64-.772 4.146-.965 6.172-1.544 1.83-.58 4.05-.58 5.784-1.64 1.447.193 3.086-.29 4.244-1.735 2.506.097 4.436-1.735 7.328-2.314v-.48c.482-.193 1.447-1.254 2.604-.868-.095.48-.19.867-.385 1.253zM917.826 57.953c0 .482-.675.77-1.06.868-1.447.965-3.473.098-5.015.87-.48 0-.868-.194-1.157-.483 0-.482.193-.675.387-.868 1.35-.387 2.7-2.605 4.34-.965 1.253-.097 1.83.192 2.506.578z"/></g><path d="M2048 0M2048 1536M0 1536M0 0" fill="none" stroke="#17192D" stroke-width="3"/></g></svg>