<svg xmlns="http://www.w3.org/2000/svg" width="2048" height="1536" viewBox="0 0 2048 1536"><g><g fill="#FF0050"><path d="M1011.658 1482.067c4.05.675 7.426 1.157 11.38.48 2.603.387 4.435-.096 6.75-.674 2.218.578 5.495.29 8.003.675 2.122.965 4.245.29 6.462.29 2.7 0 5.207.192 8.004.192.867.097 1.93-.58 2.797.482 1.447 0 2.508.578 3.473.867 1.156.964 3.375.675 4.53 1.832 1.93.482 2.894 2.507 4.147 3.76.867.965 1.736 1.062 2.12 2.315-.673.482-.866.965-1.638.868-1.832.097-1.445-1.832-2.7-2.604-2.313-3.664-6.75-5.785-11.38-5.785-.77-.098-1.35-.58-2.314-.77-4.82.48-9.835 1.155-14.944.77-4.146-1.64-9.355-.676-13.887-.868-3.665.29-8.39-.578-12.44.097-2.895-.965-5.787 0-8.775-.482-1.736.482-3.473-.386-5.016.386-2.894.097-5.69.192-8.294.097-1.157 1.06-2.508-.29-3.664-.29-.676-.29-.676-.964 0-1.254 2.99-.288 5.496.098 8.293 0 4.146-.095 8.39-.577 12.344-.963 2.408-.577 4.433 1.062 6.748.58zM1063.44 1463.553c-.962 2.122-3.276 2.314-4.915 3.472-2.22 1.157-4.63 2.314-7.137 2.604-.676.385-1.64.48-2.412.578-6.46 1.157-12.73 3.76-19.48 3.953-4.628.966-9.74.483-14.753.388-4.146 0-9.45-1.157-13.598-2.99-2.024-.482-4.242-1.254-5.69-2.507-2.12-.578-3.76-2.12-5.592-3.277-.386-.676-.868-1.35-.868-2.025 0-.097-.096-.193-.096-.193 1.927.482 3.76 1.93 5.688 3.086 1.543.87 2.41 2.026 4.05 2.412 2.796.578 5.015 2.507 7.907 2.314 5.305 1.35 11.09 1.254 17.455.867-.965-2.218.674-3.086-.097-4.436.097-.578.192-.964.386-1.35.288-.29.48-.58.867-.29l.482.482c-.194.578.192.964.48 1.253-.288 1.253 0 2.507-.192 4.05 4.727.482 7.908-.868 11.766-1.06 1.64-.772 4.146-.965 6.172-1.544 1.832-.58 4.05-.58 5.785-1.64 1.448.192 3.087-.29 4.245-1.736 2.506.097 4.436-1.736 7.328-2.314v-.48c.482-.194 1.447-1.255 2.604-.87-.095.48-.192.868-.386 1.253zM1031.234 1437.902c3.76.29 7.617 1.157 11.668 1.64 4.918.578 10.03 1.157 14.658 3.472 2.41 2.41 5.4 3.664 7.328 6.846.29 1.737 1.543 1.447.965 3.568.096.29-.193 0-.193-.385-2.22.096-1.158-.482-2.797-2.7-2.508.77-4.338-.386-6.172.386-7.714-.483-14.366 0-21.888.77-1.834.87-4.146.87-6.27.58-1.35-.482-2.797.48-4.436.19-5.014-.288-10.607-.288-15.525.388-3.663-.193-7.23 0-10.993.386-1.445-.29-3.085-.772-5.11-.193-.58 1.35-1.253 1.062-.77 2.22-.194.192-.388.48-.677.675-.29-.098-.578 0-.867-.29.385-2.796 2.217-4.34 3.953-6.46 3.375-3.087 7.715-4.533 11.38-7.522 2.41-1.543 4.917-1.735 7.52-2.797 3.28-.482 6.943-.29 10.126-.965 2.702.675 5.306.48 8.102.192zm-15.236 2.41c-3.762-.192-6.365 1.544-9.933 2.605-.193.193-1.062 1.06-1.543 1.35-2.7 1.93-5.883 2.797-8.776 6.654 3.473-.288 5.208.966 6.848.29 2.41.29 4.53-.964 6.943-1.06 3.47 1.06 7.232.19 10.8.674 3.28.386 6.847-.385 10.222-.578 5.978-2.315 12.92-.676 19.093-1.35 2.99 0 6.46-.483 11.186.096-1.833-3.857-5.11-4.532-7.33-5.786-5.688-1.542-11.378-2.507-17.26-3.086-1.157-.192-2.605.29-3.665-.385-5.306.29-11.67-1.544-16.587.578zM997.29 1422.377c1.446.193 2.41 1.64 4.05 1.64 3.086 1.543 5.98 2.314 9.74 2.507.578.29 1.543.386 2.217.58 2.122.192 4.05 1.156 6.076 1.156 1.254.386 2.99-.29 4.146 1.254 1.542-.386 2.7-.77 3.664-1.254.385-.77 1.447-1.736 1.35-2.797.676-1.06.098-1.93.578-3.278.58-1.832.58-2.893 1.545-4.82.48-.388.963-.772 1.543-.677.385.965 0 2.122 0 3.28-1.254 2.506-1.062 3.856-1.93 7.135.77.482.482.868.77 1.06 2.41.387 5.015.098 7.04-.384 1.254.19 2.314-.29 4.244-.29.385-1.158 1.254-.29 1.832-.58 3.47-.29 6.557-2.218 10.125-2.41 1.544-1.35 4.147-1.157 5.69-2.314 1.832.192 2.797-2.218 5.11-1.64 1.16-.868 2.218-1.93 3.665-1.93.387.29.77.58 1.158.966-.193 1.446-1.834 1.542-2.895 2.314-1.64.192-3.182.578-4.338 1.64-2.123-.097-3.377 1.735-5.4 1.64-.77.48-1.543.578-2.123.964-.77-.097-1.445.192-2.025.48-4.436 0-7.906 2.895-12.342 2.605-.578.386-1.64.386-2.22.48-4.724 1.64-10.22 1.35-15.042 1.255-2.218-.58-4.918 0-6.847-.964-5.978-1.062-11.764-3.473-17.453-5.016-2.7-1.06-5.208-2.7-7.715-4.05-2.797-1.543-6.076-2.604-8.1-5.4 0-.192 0-.482.19-.578 4.343 2.796 8.875 5.304 13.697 7.425zM1062.96 1377.826c.29.097.48.192.675.386-.867 2.218-3.47.965-5.496 1.543-1.737.29-3.376 0-5.112.097-4.725.096-9.45-.097-13.982 0-2.41 0-5.594.193-8.1-.097-1.64-.192-3.666 0-5.305.097-3.953.386-7.713 0-11.86.29-.193-.194-.386-.194-.58-.194-1.735.87-3.663.098-5.303.387-3.954.192-7.715.578-11.572.578-2.7-1.157-5.497.58-8.293-.096-.386-.097.578-1.158.868-1.158 4.242-2.894 9.16 1.157 13.886-.193 5.594-1.543 11.862-.965 17.358-1.254 5.497-.29 10.704.193 16.297 0 1.544-.193 3.087-.193 4.726-.193.387 0 .87.098 1.254.098 4.244-.098 8.486-.098 12.246-.676 2.895.77 5.305.287 8.295.384zM1058.525 1347.258c-1.158.868-2.7 1.446-3.86 2.41-4.724 1.35-9.835 2.605-14.944 2.605-3.665.578-7.425 1.35-10.993 2.218-1.928-.19-4.147-.577-6.365-.096-.29.772-.29 1.062-1.446 1.35 1.06 2.798 3.278 4.727 4.34 6.75.578.29 1.156 1.062.963 1.736-.386 1.158.192 1.158.868 1.833.867 0 1.64.096 2.41.482 2.025-.676 3.568-.676 5.207-.097 1.832 1.06 3.375.29 5.4 0 3.857-.58 7.52-1.447 11.477-1.64 3.084-.097 6.172-.097 9.45-.097.288.1.58.194.48.483 0 .29-.384.58-.675.675-4.82.29-9.45.482-13.693 1.833-3.182-.096-5.785.868-8.775.58-7.136-.676-14.66 0-21.408.866-2.99-.674-5.305.58-8.197.387-7.52-.578-15.334-.578-21.987-2.796-.964-.29-.48-1.062-.964-1.737.096-.29.578 0 .77-.096 2.315.482 4.34 1.543 6.655 1.446l.19.193c3.955-.193 7.62 1.06 11.09.867 2.604 1.446 5.497-.385 8.294.097 3.567.578 6.558-.675 10.028-1.157.482-.386 1.158-.77 1.832-1.542-1.156-3.087-4.725-5.016-5.11-7.523.482 0-.675-.77-.192-2.313-2.99-.868-5.4.29-7.618-.77-1.833-.483-3.665.48-5.594-.58-2.603 1.254-4.917.097-7.425.29-1.447-1.254-2.025 1.254-3.76.097-1.64.48-3.858.77-5.21 0 .098-.388.098-.677 0-1.063 1.448-.867 3.474.29 4.92-.867 2.12-.193 3.664.964 5.785.578 6.172-1.157 13.02.192 19.287-.193 4.34-.192 9.064.482 13.21-.964 6.56-1.06 13.404-1.928 19.576-3.182 1.543-.965 3.375-2.024 5.305-1.93.29.29.58.484.677.87zM1063.44 1316.207c-3.76 2.7-3.47.964-5.302 2.024-1.35.677-2.604.29-3.857.772-2.024.675-2.024.868-3.567 1.64-.867.578-1.543 1.06-2.506 1.446-1.93.868 0 2.122-4.822 2.024-.482.098-2.508 3.28-3.182 1.93-2.412.29-.965.48-2.895 1.253-.096.193-.193-.29-.385-.29-.965.387-1.158-.19-1.543.772-.193.386.29.868-.77.29-1.062.48-2.026.867-2.026.964-.29.29-.867.193-.867.193-.676 0-1.543.965-2.314 1.736-1.736.48-2.893 2.603-3.857 4.435 3.182.676 5.4.193 7.617.965.87.192 1.736-.965 2.7 0 1.35-.386 2.122-.193 3.087-.29 1.64.676 2.41-.096 4.436.193 2.797-.77 2.7-.868 5.69-.868 4.048.77 6.073.097 10.124.482.77-.386 2.412.097 3.184.58 1.64-.58 4.436-.483 4.627-.387.29.096.772.578 1.16.77.095.194.095.29-.1.388-2.31.867-2.987.096-5.206.675-1.543-.29-3.76 0-5.4-.29-2.988.193-3.76-.867-7.135-.096h-17.84c-.483-.097-.966.193-1.448.096-.77-.192-1.736.58-2.508-.192-3.76.58-8.004-.385-10.51.29-.772.386-1.736.386-2.508.482-2.314-1.062-5.69.097-7.908-.48-1.156.288-2.7.77-4.05.577-2.122.385-3.954.288-5.882.77-1.157-.385-2.7.29-3.762 0-1.928.482-4.05-.192-6.074 0-.098-.192-.193-.385-.29-.675 1.735-3.278 4.34-4.53 6.943-7.425 4.243-3.086 11.476-4.82 16.876-1.833.963-.675 1.06.482 1.638.482 1.93 1.156 2.797 2.12 4.822 2.507 1.64.867 2.218 1.832 4.243 2.99 1.543-1.64 3.085-2.315 4.05-3.762 1.736-1.64 3.953-2.41 5.785-4.243 4.438-1.93.77.675 6.076-1.735 5.303-1.544 3.277-1.64 5.4-2.41 1.64-.58 3.47-.965 4.146-1.447.578-.482 1.06-.58 1.64-1.062 3.952-2.41.48-1.832 5.304-2.7.867-.192 4.918-1.156 5.303-1.446.676-.482.482-.29 2.123-.964.58-.192 2.313.482 1.54.87zm-72.9 21.215c4.34.868 7.328.482 10.704-.097 4.05-1.157 9.547-.675 13.79-.964.964-.48 2.796 0 3.278-1.83-1.736-.29-2.508-1.352-3.473-1.834-.097 0-.29-.096-.386 0-2.7-1.35-5.305-2.604-8.294-3.182-5.88-1.157-11.667 2.604-15.62 7.908zM1063.44 1297.5c-.962 2.12-3.276 2.313-4.915 3.47-2.22 1.158-4.63 2.315-7.137 2.605-.676.386-1.64.482-2.412.578-6.46 1.157-12.73 3.762-19.48 3.954-4.628.965-9.74.482-14.753.386-4.146 0-9.45-1.157-13.598-2.99-2.024-.48-4.242-1.253-5.69-2.507-2.12-.578-3.76-2.12-5.592-3.278-.386-.675-.868-1.35-.868-2.025 0-.097-.096-.192-.096-.192 1.927.483 3.76 1.93 5.688 3.087 1.543.867 2.41 2.025 4.05 2.41 2.796.58 5.015 2.508 7.907 2.314 5.305 1.352 11.09 1.255 17.455.87-.965-2.22.674-3.087-.097-4.437.097-.58.192-.964.386-1.35.288-.29.48-.58.867-.29l.482.482c-.194.578.192.964.48 1.254-.288 1.252 0 2.506-.192 4.05 4.727.48 7.908-.87 11.766-1.062 1.64-.77 4.146-.965 6.172-1.543 1.832-.58 4.05-.58 5.785-1.64 1.448.193 3.087-.29 4.245-1.735 2.506.096 4.436-1.736 7.328-2.315v-.48c.482-.193 1.447-1.255 2.604-.87-.095.483-.192.868-.386 1.254zM1053.703 1275.995c-3.473 2.507-7.908 2.12-11.09 4.82-1.254.388-2.604 1.062-3.664 1.737-2.99-.097-6.077 1.832-10.128 3.664 2.604 1.062 4.533.77 5.883.386 5.69 0 10.705-.964 16.684-.097 1.638 0 3.663-.482 5.11.193 2.795.097 6.074-.676 8.484.675l.193.193c-2.025.578-4.63.385-6.652.29-1.736-.483-3.568.19-5.498.19-3.76.098-7.715-1.252-11.09.387-3.086.387-5.98-1.06-8.97 0-2.698.868-5.4-.482-7.905.77-4.63-.77-10.608.098-15.624-.77-5.69 0-11.475.387-17.068-.578-3.086-.097-4.34-.675-7.232-1.254-.096 0 .482-.674.482-.867 3.086-1.832 4.146-2.41 7.426-3.664 4.53-1.833 9.354-1.447 13.887-2.7 6.363.096 12.632.963 17.26 7.04 8.487-5.112 17.55-5.69 25.75-10.127 3.663-1.157 7.038-2.99 10.704-4.146.578 0 1.543-.386 2.217-.192-2.99 1.736-6.075 3.086-9.16 4.05zm-54.29 6.364c-1.256.385-2.798-.098-3.956.675-1.543-.193-2.99.675-4.242 1.156l-2.314 1.64c.868.098 4.243.387 5.208.58 1.254 1.253 3.47.675 5.015 1.06 7.136-.964 15.14.193 23.722-.19-1.253-1.545-2.506-1.93-3.182-2.605-1.35-1.35-5.11-2.797-7.618-3.857-4.34.578-8.97-.387-12.633 1.54zM1046.855 1226.235c-.19-.097.87-.29 1.254-.192h.77c.578.192 1.35.482 1.93.386 1.35.577 2.7.288 3.855.866 2.314 1.062 5.4 2.025 7.908 4.146 1.543 1.64 3.568 2.314 5.11 3.762.29.867.675 1.254.483 2.024-1.543.097-2.314-2.12-3.762-2.7-1.06-.964-2.604-1.253-3.47-2.507-.194-.096-.58-.48-.772-.578-.193-.096-.29-.29-.29-.29-.097 0-.48-.19-.48-.288-.868-.868-1.157-.965-1.157-.578-.676-.193-1.158-.676-1.834-.58-.288-.096-.577-.288-.77-.577-1.156.19-1.445-.387-2.025-.483-1.06-.58-2.7 0-3.855-.386-.58.098-1.062-.48-1.736-.385-2.314-.675-3.28-.097-5.787.096-3.182 1.16-3.277.87-5.303 1.64-1.543.58-2.41.772-3.857 1.448-1.447.675-2.025 1.446-3.473 2.12-1.35.58-2.217.387-3.47.87-1.45.577-2.316 1.252-3.666 1.83-1.35.676-2.41.966-3.954 1.64-1.446.87-2.218 1.736-3.954 2.22-.48 0-1.156.096-1.64.096-.48-.097-1.06.096-1.35.096-.29.097-.77-.096-1.06-.192-1.736.578-2.7-.58-4.533-.386-1.736-.482-3.472-.675-5.497-1.35-1.93-1.062-4.436-1.543-6.558-2.99-2.217-1.157-4.436-2.893-6.074-5.015-.193-.29-.965-1.06-.29-.964 1.735.77 3.278 2.507 5.11 3.183 4.918 3.085 10.03 4.918 15.14 5.4.58.29 1.255 0 1.93.29.964 0 2.314.288 3.376.095 3.47.388 2.7-1.155 4.146-1.734 1.543-.58 2.507-.482 3.857-1.157.964-.58 1.445-1.255 2.603-1.737.964-.578 1.64-1.06 2.894-1.253 2.893-.29 2.988-.868 4.436-2.122.676-.386 1.06-.867 1.832-1.156.676-.58 1.254-.29 2.12-.58 1.16-.29 1.737-.674 2.896-1.06 1.06-.386 2.217-.868 2.795-.868 2.025-.868 3.184-.29 5.11-.482.58-.002 1.16.383 1.062.383zM1062.96 1213.796c.29.096.48.192.675.386-.867 2.218-3.47.964-5.496 1.543-1.737.29-3.376 0-5.112.096-4.725.098-9.45-.095-13.982 0-2.41 0-5.594.194-8.1-.095-1.64-.193-3.666 0-5.305.096-3.953.387-7.713 0-11.86.29-.193-.192-.386-.192-.58-.192-1.735.868-3.663.097-5.303.386-3.954.193-7.715.58-11.572.58-2.7-1.158-5.497.577-8.293-.098-.386-.097.578-1.157.868-1.157 4.242-2.894 9.16 1.156 13.886-.193 5.594-1.544 11.862-.965 17.358-1.254 5.497-.29 10.704.192 16.297 0 1.544-.193 3.087-.193 4.726-.193.387 0 .87.097 1.254.097 4.244-.097 8.486-.097 12.246-.675 2.895.77 5.305.287 8.295.384zM980.703 1191.345c.193 1.64.868 2.797 1.158 4.532-.58 2.604-.097 4.918.868 8.1 1.35-.674 2.314-.48 2.797-.288 1.832-.194 4.146.288 5.98.192 1.735-.387 3.856-.58 5.592-.58 2.7-1.35 6.075-1.735 8.775-2.313 1.543.385 3.376 0 4.82.19 6.56 0 13.31-1.638 19.482-2.506 1.156.097 2.893-.193 3.953.097.193-.096.676-.096.77-.192 4.823-.192 8.68-.29 13.5-.29 2.22 0 4.147.387 6.173.483h-.096c-2.508 1.833-5.98 1.158-8.68 1.736-3.953-.964-8.1 1.06-12.344-.578-2.506 2.604-5.496.578-8.1 1.446-2.41-.29-5.304-.193-7.33 1.06-.964-.096-1.832.29-3.183-.19-2.313 1.35-5.207.674-7.617.674-3.954-.868-7.137 1.735-10.897 1.254-2.7 1.35-5.786 1.157-8.872 1.157-.963-1.063-2.506-.098-4.435-2.22-.675 4.243-.29 6.75-.482 9.354.482 2.024-.29 4.243 0 6.46-.096.098-.096.193-.192.29-.77-.097-.963-.965-1.253-1.543.58-1.928.482-3.856 0-5.785-.386-.48 0-1.35.097-2.313-1.06-1.447-.193-3.568-.965-4.92.48-1.542-.194-3.18-.097-4.724-.868-1.543.29-3.568-.58-5.11 0-1.352-1.83-2.7-.288-3.762.097-.097.29-.193.48-.29.39.096.87.193.968.58zM1012.718 1158.75c2.7.482 4.918.965 7.81.58 5.017 2.12 10.802-.87 15.527 2.603 2.605.58 5.883.675 8.295 1.93 4.05 1.35 8.293 1.928 11.764 4.725 1.447 1.93 2.508 3.664 3.568 5.69-.193 1.928-.096 4.145-1.832 5.014-3.664 1.446-7.52 2.12-11.09 3.953-7.715.193-14.852 2.99-22.084 1.736-3.47.772-6.846-.096-10.317.482-5.98-.386-11.477-2.796-17.263-3.857-1.253-1.06-6.172-1.93-2.218-3.47 2.603-.483 4.242 1.445 6.556 2.023 1.35.29 2.604 1.833 4.147 1.833 5.882 1.062 10.993 2.122 17.358 1.35 5.498 1.352 11.476 0 16.972-1.156 5.207-.386 9.934-1.832 14.754-3.183 2.314-1.06 1.447-2.988 2.508-5.495-1.254-.868-.867-2.7-1.734-3.472-1.543-1.736-4.63-2.604-6.56-3.76-3.18-.483-6.364 0-8.677-1.833-2.605-.482-5.594.192-7.62-1.833-8.678-1.446-17.455-.77-25.554-2.796-4.726-.48-8.68-.674-12.537-3.085.192-.58 1.157-.29 1.543-.482 5.978-.386 10.8 2.99 16.682 2.508zM1059.393 1125.77c.77.387 1.543 0 2.41.194.676 0 1.158.192 1.736.578.095.482-.483.868-.772 1.35-.674.868-1.447-.48-1.64-.48-.192-.387-1.157.48-2.122-.966-1.928.58-3.664.58-5.014.193-2.7.288-5.69-.483-8.293.577-1.062.097-1.64 1.35-2.122 1.93-.098 0-.482 1.156-1.352 1.542-1.254 1.156-3.086 2.99-3.664 3.47-.482.483 0-.577-.867.387-.482.386-.29.58-.965 1.64-.867 1.06-2.604 2.893-2.99 3.375-.578 1.157-1.156 2.507-1.832 4.05 2.025 1.35 4.05.965 5.4 1.833 1.736.096 3.857.48 5.69.964 1.06-.87 1.83.192 2.603.192 1.063.578 2.702.48 3.956 1.06 2.41.387 4.53 1.833 7.232 1.35.965.194 2.12.58 3.086.87-.098.19-.193.385-.387.385-1.64.29-3.086-.58-4.53-.482-.388-.29-.677-.386-1.062-.29-.773-.096-1.543-.288-2.22-.288-1.542-.482-2.603.386-5.11-1.254 0 1.446.193.58.193.58-1.447-.388-3.473-.966-5.4-.87-1.156-.77-2.604-.48-3.762-.77-2.7-.29-4.53-1.35-7.135-1.157 0 0-.097-.097-.192-.097-.77-.483-1.64-.193-2.12-.676-5.884-1.64-11.863-3.28-17.746-4.918-1.35-.675-2.507-.965-3.953-1.543-1.93-.675-3.763-1.832-5.787-2.604-2.025-.772-3.954-2.026-6.27-2.7-.577-.29-1.542.19-1.542-.773 0-.29-.288-.964-.095-1.06.674-1.062 2.604-1.062 3.567-1.543 2.314-.193 5.593-.676 8.39-1.254 1.06-1.254 2.7-.29 3.954-.77 4.726.19 9.644-2.22 15.043-1.544 6.846-1.06 14.465-1.64 20.926-1.06 4.92.382 9.84-.1 14.757.575zm-29.22 1.64c-1.253-.482-3.183.675-5.11.29-2.315-.387-4.823.385-7.136.77-2.218-.386-3.954.965-6.172.77-1.446.194-3.857.194-5.786.58-3.184.578-6.076 1.446-9.74 1.735 1.446 1.64 4.05 2.796 4.436 2.893 2.024.676 3.664 1.832 5.496 2.41 2.798.966 5.208 1.93 7.812 2.7 1.832.483 4.243 1.062 5.883 1.352 1.832-.097 4.436 1.542 6.944 1.93 1.446.19.77.866 2.796.288.77-1.832 1.93-3.086 2.605-4.726.868-1.157 1.35-1.254 2.605-2.604.867-.868 1.734-2.218 2.7-3.472.866-.964 2.024-2.025 2.603-2.7 0-.192 1.156-1.446 1.156-2.218-1.35-.29-2.893-.29-3.76-.386-2.606-.383-4.63.002-7.33.388zM978.582 1102.145c0 2.99-.097 5.882.675 9.16 7.232.482 14.175.482 19.77-1.35 1.542-.29 3.085-.482 4.34-.964 6.073-1.735 10.606-.48 16.585-2.603 3.76-.29 7.137-1.062 10.706-1.64 5.014-.868 10.22-.29 14.85-1.35 2.99 0 6.56-.386 9.74-1.254 2.604.097 5.303-1.06 7.906-1.543.387.192.87.58 1.06.867-.384 2.894-4.626 1.254-6.458 2.123-6.56 1.253-12.924 1.93-18.998 2.12-3.664.097-7.52 1.062-11.283 1.543-3.76.482-6.557.77-10.32.77-1.06.58-2.505.772-3.856.483-1.254 1.157-2.507.482-3.472 1.157-3.183.482-6.558 1.35-10.03 1.832-3.085 0-6.46 1.832-9.257 1.35 0 0-.48.193-.577.29-2.797-.097-6.172.29-10.03-1.157-.77 2.218-.192 4.437-.385 6.075-.578 6.075 1.254 11.67.29 17.358 0 .483.578 1.157.19 1.64-.384.386-.77.097-1.155 0-1.06-1.446-.77-3.76-.77-5.4-.676-.77.095-2.314-.194-3.278.578-5.98-.386-11.86-.386-17.262 0-5.015-.965-11.09-1.254-16.2-.387-.868.386-1.446.867-1.832.097 0 0-.193.097-.097.96 2.897 1.348 5.982 1.348 9.165zM1062.96 1089.32c.29.096.48.192.675.385-.867 2.218-3.47.965-5.496 1.543-1.737.29-3.376 0-5.112.097-4.725.097-9.45-.097-13.982 0-2.41 0-5.594.192-8.1-.097-1.64-.192-3.666 0-5.305.097-3.953.386-7.713 0-11.86.29-.193-.193-.386-.193-.58-.193-1.735.868-3.663.096-5.303.386-3.954.192-7.715.578-11.572.578-2.7-1.157-5.497.58-8.293-.096-.386-.098.578-1.157.868-1.157 4.242-2.894 9.16 1.157 13.886-.193 5.594-1.543 11.862-.965 17.358-1.254 5.497-.29 10.704.193 16.297 0 1.544-.192 3.087-.192 4.726-.192.387 0 .87.096 1.254.096 4.244-.096 8.486-.096 12.246-.674 2.895.77 5.305.288 8.295.383zM1034.223 1063.765c6.076-.77 11.477 2.22 17.068 3.472 2.315 1.255 5.017 1.446 7.716 3.184.87-.29.965.386 1.254.772 0 .097-.096-.48-.096-.48-3.28 1.928-7.137 4.05-11.188 5.205-2.12.965-4.725 1.255-6.846 1.93-2.604.77-5.11 1.64-7.617 2.314-5.21.483-8.584 1.352-13.598 1.833-3.762-.676-8.197-.29-11.572-1.736-2.12.772-4.725-.192-6.75-.674-2.508.48-4.533-1.833-6.943-2.122-2.604-1.156-5.883-.964-7.715-3.182.097-.097-1.06-.77-.385-1.543.19-.193.29-.385.48-.578 1.64-1.157 2.797-2.797 4.822-3.664 4.436-2.508 9.45-4.918 15.044-4.727 2.99.58 5.882-1.928 8.872-.386 5.497 0 12.054-.675 17.455.385zm-43.78 7.81c-.387 1.063-1.254 2.7.675 2.7 6.75 2.51 13.5 3.858 20.443 4.92 6.752.964 13.115 1.542 19.674-.29 8.39-2.41 17.262-3.954 26.71-8.39-5.495-1.06-8.58-2.7-11.956-3.28-7.426-.48-14.176-2.698-21.698-2.506-12.15.193-24.397 1.542-33.847 6.846zM1066.143 1025.77c-7.617 3.377-14.176 7.813-20.83 12.248-.578.29-.77 1.062-2.025 1.062-3.084 3.086-6.94 3.375-9.738 6.17-2.508 1.256-5.305 2.702-8.197 4.92.385.29 1.06.578 1.35.77 2.025.966 4.05.193 5.883.29 5.785.193 11.09-.77 16.2-.868 4.92 0 9.452-1.157 13.79-.675.098.192.098.482.098.868-.29 2.218-2.797.675-3.857 1.06-4.63.58-8.68.676-13.695.87-6.17.385-12.246.095-18.418.77-4.147.387-7.907 0-11.862.87-6.557-.772-13.21 2.603-19.768 1.252-1.543 0-3.086.77-4.726.386-.675-.48-3.76.097-2.218-1.35 5.014-.77 10.222 0 15.332-.676 7.715-.29 15.912-.77 21.602-5.688.965-.29 1.736-.966 2.41-1.448 2.41-1.446 5.016-2.507 7.04-4.63 2.024-.674 3.856-1.83 5.497-2.988 2.894-2.893 6.75-3.954 9.933-6.172 0-.386.29-.29.482-.386.867-.386 1.543-1.157 2.604-1.93 0-.385 2.796-.963 2.7-1.252-.098-.29-3.28-.193-3.568-.386-4.436.964-9.934 1.35-15.045 1.832-5.496.482-9.16 1.543-14.368 1.64-1.833-.387-4.437 1.445-6.27-.097-2.024 0-3.183-.097-4.82.482-1.447 0-2.894-.193-4.63-.193-.386-.097-.77.29-1.157.29-1.64 1.06-2.507-1.447-3.76-.29-.58.193-1.158.675-1.736-.193-3.087.867-5.497.386-8.1-1.062-.87.386-1.158-.096-1.544-.386v-.29c.29-.674.867.29.867.194 0 0 .58.48 1.158-.097.385-.58 1.253.674 1.446.385 3.278.77 7.136.578 10.8.097 3.376.578 8.486-.386 11.67.29.674-.098 1.542-.676 2.7-.29 1.06-.965 2.506-.097 3.278-.676 4.05-.29 8.39-.964 12.536-.964 3.953-.386 8.293-.77 11.477-1.254.674.193 1.445-.386 2.12.097 1.64-.386 2.315-.386 3.57-.58 2.505-.48 5.688-.866 7.905-1.35.387 0 .87-.29 1.447-.964-.482-.866.578-.48.676-.48.867-.386 2.312.386 3.76-.097 0 .29.097.578 0 .868zM1063.44 1007.257c-.962 2.122-3.276 2.314-4.915 3.472-2.22 1.156-4.63 2.313-7.137 2.603-.676.386-1.64.482-2.412.58-6.46 1.156-12.73 3.76-19.48 3.952-4.628.965-9.74.482-14.753.386-4.146 0-9.45-1.155-13.598-2.988-2.024-.48-4.242-1.254-5.69-2.507-2.12-.58-3.76-2.122-5.592-3.278-.386-.676-.868-1.35-.868-2.025 0-.097-.096-.193-.096-.193 1.927.48 3.76 1.928 5.688 3.085 1.543.868 2.41 2.025 4.05 2.41 2.796.58 5.015 2.508 7.907 2.315 5.305 1.35 11.09 1.253 17.455.867-.965-2.218.674-3.085-.097-4.436.097-.577.192-.963.386-1.35.288-.29.48-.578.867-.29l.482.483c-.194.58.192.965.48 1.254-.288 1.254 0 2.507-.192 4.05 4.727.482 7.908-.867 11.766-1.06 1.64-.772 4.146-.965 6.172-1.544 1.832-.578 4.05-.578 5.785-1.64 1.448.193 3.087-.29 4.245-1.735 2.506.097 4.436-1.736 7.328-2.314v-.482c.482-.192 1.447-1.253 2.604-.868-.095.48-.192.867-.386 1.253zM999.99 979.292c1.06 0 2.604-.097 3.76-.192 2.797-1.736 7.137 0 10.416.386 2.024-1.157 5.4-.482 7.52-.676 3.087-.77 7.136.193 10.705.193 6.27 0 13.503-.193 19.77-.482.964-.095 1.93-.674 2.798-.288.096.097.19-.096.29-.096-2.22 1.446-4.92 1.542-7.138 2.507-3.182 2.796-6.848 4.243-10.22 6.364-4.052 1.832-8.198 3.183-11.862 5.98-1.16.578-2.22 1.253-3.375 1.83l-2.797 1.352 3.182.19c7.522.483 14.56-1.35 22.276-.288 3.086 0 5.98-1.254 8.97-.675.77-.097 1.735 0 2.41 0-.097.193 0 .58-.097.675-.77 0-1.447.193-2.12.675-.772.387-1.737.387-2.605.58-2.604.29-5.207-.098-7.81.48-7.042.193-13.888-.674-20.736.098-3.182-.58-6.363 1.06-9.45.192-2.024.482-4.628-.578-6.17.578-4.63-.48-9.163-1.253-13.984-1.253-1.06-.386-2.7 0-3.183-1.157-.097-.097.578-1.06.578-.578 5.207-1.35 9.644 1.735 15.622 1.06 3.086-.386 6.268 0 9.547-.964.965-1.35 2.41-1.254 3.472-2.12 1.928-.29 3.856-.772 5.11-2.123 4.917-2.41 9.933-3.278 13.886-6.847 1.156-.48 2.314-1.06 3.568-2.12 0-.29 2.795-1.544 2.795-1.833-.097-.193-2.99.48-2.99.096-3.76 0-7.23-.675-10.222.386-5.398-1.35-10.993-1.446-16.78-.192-4.146-.482-8.39-1.06-12.44-.29-3.374-1.446-7.134 1.544-10.22-1.156-.29-.868-1.833-.58-1.736-1.64 3.278-.58 6.075 1.25 9.258 1.348zM1018.697 914.876c6.46 2.314 13.31 1.64 19.48 4.242 6.364 2.7 13.308 3.857 19.866 5.98.193.19.482.48.674.77-2.12.87-4.918-.867-7.426-.578-7.616-.578-14.753 1.93-22.757 2.99l-.385 1.735c8.678 1.735 16.008 5.4 24.012 6.943.29.192.77.29 1.06.48 1.737.098 3.858-1.06 5.112-.095-.096.675-.77.964-1.447 1.157-1.543-.193-2.7.867-4.146 1.253-8.583-.386-16.202 1.446-24.88 2.025-10.706.77-21.313 1.543-31.438 1.446-5.304.77-9.354.965-13.5.482-.387-.193-1.158 0-1.543-.097.288-.193.577-.483.866-.772 3.182-.675 5.98-.675 9.354-.964 14.658-1.157 30.763.097 45.807-2.41 2.7-.483 5.4-.29 8.293-.58 1.928-.675 1.06-2.603-.387-2.218-6.268-3.086-13.887-3.567-20.154-5.882-1.158-.386-2.99-.097-3.472-1.254.192-.386.578-.578.965-.77 6.557-2.122 13.694-2.895 23.53-5.4-6.076-2.22-9.645-2.605-12.44-4.244-7.04 0-11.862-2.893-18.902-2.893-5.4-2.025-11.763-1.157-17.163-3.472-4.436-.096-8.102-1.06-13.31-1.928-.095 0-.384 0-.48-.097.097-.192.192-.386.29-.675.77 0 1.252-.386 1.64-.578 10.893.87 21.888 3.957 32.88 5.404zM1062.96 898.386c.29.096.48.192.675.386-.867 2.218-3.47.964-5.496 1.542-1.737.29-3.376 0-5.112.097-4.725.098-9.45-.096-13.982 0-2.41 0-5.594.194-8.1-.096-1.64-.192-3.666 0-5.305.097-3.953.387-7.713 0-11.86.29-.193-.192-.386-.192-.58-.192-1.735.868-3.663.097-5.303.386-3.954.193-7.715.58-11.572.58-2.7-1.16-5.497.577-8.293-.098-.386-.097.578-1.157.868-1.157 4.242-2.894 9.16 1.156 13.886-.194 5.594-1.543 11.862-.964 17.358-1.253 5.497-.29 10.704.192 16.297 0 1.544-.193 3.087-.193 4.726-.193.387 0 .87.097 1.254.097 4.244-.097 8.486-.097 12.246-.675 2.895.77 5.305.287 8.295.384zM1063.44 867.238c-3.76 2.7-3.47.965-5.302 2.026-1.35.674-2.604.29-3.857.77-2.024.677-2.024.87-3.567 1.64-.867.58-1.543 1.062-2.506 1.448-1.93.867 0 2.12-4.822 2.024-.482.096-2.508 3.278-3.182 1.93-2.412.288-.965.48-2.895 1.252-.096.193-.193-.29-.385-.29-.965.387-1.158-.19-1.543.772-.193.386.29.868-.77.29-1.062.48-2.026.867-2.026.964-.29.29-.867.192-.867.192-.676 0-1.543.965-2.314 1.736-1.736.48-2.893 2.604-3.857 4.437 3.182.673 5.4.19 7.617.963.87.192 1.736-.964 2.7 0 1.35-.386 2.122-.193 3.087-.29 1.64.676 2.41-.096 4.436.193 2.797-.77 2.7-.867 5.69-.867 4.048.77 6.073.095 10.124.48.77-.386 2.412.097 3.184.578 1.64-.578 4.436-.48 4.627-.386.29.097.772.58 1.16.772.095.192.095.29-.1.385-2.31.867-2.987.097-5.206.675-1.543-.29-3.76 0-5.4-.29-2.988.193-3.76-.867-7.135-.097h-17.84c-.483-.096-.966.193-1.448.098-.77-.193-1.736.578-2.508-.193-3.76.578-8.004-.386-10.51.29-.772.385-1.736.385-2.508.48-2.314-1.06-5.69.098-7.908-.48-1.156.288-2.7.77-4.05.578-2.122.387-3.954.29-5.882.772-1.157-.386-2.7.29-3.762 0-1.928.482-4.05-.193-6.074 0-.098-.193-.193-.386-.29-.675 1.735-3.28 4.34-4.533 6.943-7.426 4.243-3.085 11.476-4.82 16.876-1.83.963-.676 1.06.48 1.638.48 1.93 1.157 2.797 2.12 4.822 2.508 1.64.868 2.218 1.832 4.243 2.99 1.543-1.64 3.085-2.315 4.05-3.762 1.736-1.64 3.953-2.41 5.785-4.243 4.438-1.93.77.675 6.076-1.736 5.303-1.542 3.277-1.64 5.4-2.41 1.64-.578 3.47-.965 4.146-1.447.578-.48 1.06-.578 1.64-1.06 3.952-2.41.48-1.833 5.304-2.7.867-.193 4.918-1.157 5.303-1.446.676-.482.482-.29 2.123-.965.58-.192 2.313.484 1.54.868zm-72.9 21.216c4.34.868 7.328.482 10.704-.096 4.05-1.158 9.547-.676 13.79-.965.964-.482 2.796 0 3.278-1.832-1.736-.288-2.508-1.35-3.473-1.832-.097 0-.29-.096-.386 0-2.7-1.35-5.305-2.603-8.294-3.183-5.88-1.156-11.667 2.605-15.62 7.91zM1031.234 842.456c3.76.29 7.617 1.157 11.668 1.64 4.918.578 10.03 1.156 14.658 3.47 2.41 2.412 5.4 3.666 7.328 6.848.29 1.736 1.543 1.447.965 3.57.096.287-.193 0-.193-.388-2.22.097-1.158-.48-2.797-2.7-2.508.77-4.338-.386-6.172.386-7.714-.482-14.366 0-21.888.772-1.834.867-4.146.867-6.27.578-1.35-.482-2.797.482-4.436.192-5.014-.288-10.607-.288-15.525.386-3.663-.192-7.23 0-10.993.386-1.445-.29-3.085-.77-5.11-.192-.58 1.35-1.253 1.06-.77 2.218-.194.192-.388.48-.677.675-.29-.097-.578 0-.867-.29.385-2.796 2.217-4.34 3.953-6.46 3.375-3.086 7.715-4.533 11.38-7.52 2.41-1.544 4.917-1.737 7.52-2.8 3.28-.48 6.943-.288 10.126-.963 2.702.674 5.306.48 8.102.192zm-15.236 2.41c-3.762-.192-6.365 1.544-9.933 2.604-.193.192-1.062 1.06-1.543 1.35-2.7 1.93-5.883 2.797-8.776 6.654 3.473-.29 5.208.964 6.848.29 2.41.29 4.53-.966 6.943-1.062 3.47 1.06 7.232.192 10.8.675 3.28.386 6.847-.386 10.222-.58 5.978-2.313 12.92-.673 19.093-1.35 2.99 0 6.46-.48 11.186.098-1.833-3.857-5.11-4.533-7.33-5.786-5.688-1.544-11.378-2.51-17.26-3.087-1.157-.192-2.605.29-3.665-.386-5.306.29-11.67-1.542-16.587.58zM1033.55 787.393c3.565-.29 6.267 1.157 9.546 1.93.674.578 1.35.578 1.35.48.193.098 1.447.386 2.508.966l.29.095c1.444.77 1.542.675 2.603.77 1.736 1.158 3.953 1.352 5.4 2.41 2.893 2.124 7.137 4.148 9.738 7.234 1.834 2.313 3.666 3.566 5.305 5.882.098.578.482 1.157.098 1.83-.77 0-.29.677-1.447-1.06l-.192-.386c-1.06.29-1.928.772-2.604.965-1.64 0-4.146 0-5.883.193-1.06-.29-2.796.387-3.76 0-4.82.29-11.09.482-16.394.097-1.254.58-2.99.192-4.146.097-5.014-.29-9.547-1.832-14.08-1.35-3.085-.097-6.75.867-10.028-.386-2.314.29-5.98-.29-7.812-.192-.097 0-.192.193-.29.29-4.725-.58-10.8.192-15.332-.29-.482-.193-.867-.868-.193-.964 9.258-.77 20.926-.87 30.666-.097 2.22-.192 5.595.29 7.91-.097.096.097.19.193.29.29 3.567 0 6.46.674 10.124 1.06.385-.29.77-.096 1.06.097 5.4.29 13.02-.482 18.228-.096 2.893-1.35 5.98.772 8.775-.675.29-.48.29.965 2.217-.386-.578-.193-1.156-1.158-.867-1.158-.77-1.543-2.99-1.35-4.05-4.436-.58.578-.386-.29-.868-.29 0 0-.483-.288-.677-.386-.096-.096-.482-.192-.482-.964-.962 0-1.155-.29-1.444-.096-.965-.387-.965-1.736-2.123-1.736-.48-.193-1.156-.386-1.445-.77-1.158-.29-1.64-1.447-2.7-1.64-1.544-1.062-3.858-.868-5.11-1.736-1.06 0-1.158-.868-2.412-.964-3.375-1.832-7.81-1.832-11.38-2.604-5.206 0-9.93-1.06-15.236 0-1.734 0-3.278.676-4.82.965-.87.578-1.93.385-2.797.867-7.137 2.22-14.37 5.11-20.54 10.03-2.508 1.253-3.762 3.856-6.365 5.11-.58.386-.192-.482 0-.77 1.93-2.605 4.532-5.4 7.232-7.426 2.604-1.93 6.075-3.376 8.97-5.11 2.602-1.158 5.398-1.93 7.617-2.894 2.797-.193 3.375-1.93 6.268-1.64.578-.097 1.06-.482 2.12-.386.483-.386.87-.193 1.545-.482.868 0 1.832 0 2.893-.29 3.852-.19 8.675-.77 12.726.1zM1012.718 753.353c2.7.482 4.918.964 7.81.578 5.017 2.123 10.802-.867 15.527 2.605 2.605.58 5.883.675 8.295 1.93 4.05 1.35 8.293 1.928 11.764 4.724 1.447 1.928 2.508 3.663 3.568 5.688-.193 1.93-.096 4.147-1.832 5.015-3.664 1.446-7.52 2.122-11.09 3.954-7.715.192-14.852 2.99-22.084 1.735-3.47.77-6.846-.096-10.317.482-5.98-.386-11.477-2.797-17.263-3.857-1.253-1.06-6.172-1.93-2.218-3.472 2.603-.482 4.242 1.447 6.556 2.025 1.35.29 2.604 1.832 4.147 1.832 5.882 1.06 10.993 2.12 17.358 1.35 5.498 1.35 11.476 0 16.972-1.157 5.207-.386 9.934-1.832 14.754-3.182 2.314-1.06 1.447-2.99 2.508-5.498-1.254-.868-.867-2.7-1.734-3.47-1.543-1.737-4.63-2.605-6.56-3.762-3.18-.482-6.364 0-8.677-1.833-2.605-.482-5.594.193-7.62-1.833-8.678-1.446-17.455-.77-25.554-2.796-4.726-.48-8.68-.674-12.537-3.084.192-.58 1.157-.29 1.543-.482 5.978-.385 10.8 2.99 16.682 2.51zM1053.703 730.788c-3.473 2.507-7.908 2.12-11.09 4.82-1.254.387-2.604 1.062-3.664 1.737-2.99-.096-6.077 1.833-10.128 3.665 2.604 1.06 4.533.77 5.883.386 5.69 0 10.705-.964 16.684-.097 1.638 0 3.663-.483 5.11.192 2.795.097 6.074-.675 8.484.675.098.096.098.096.193.193-2.025.58-4.63.386-6.652.29-1.736-.482-3.568.192-5.498.192-3.76.097-7.715-1.253-11.09.386-3.086.386-5.98-1.06-8.97 0-2.698.868-5.4-.482-7.905.772-4.63-.772-10.608.096-15.624-.772-5.69 0-11.475.386-17.068-.578-3.086-.097-4.34-.675-7.232-1.254-.096 0 .482-.675.482-.868 3.086-1.832 4.146-2.41 7.426-3.664 4.53-1.832 9.354-1.447 13.887-2.7 6.363.096 12.632.963 17.26 7.04 8.487-5.112 17.55-5.69 25.75-10.126 3.663-1.157 7.038-2.99 10.704-4.146.578 0 1.543-.386 2.217-.193-2.99 1.733-6.075 3.083-9.16 4.048zm-54.29 6.364c-1.256.386-2.798-.097-3.956.675-1.543-.193-2.99.675-4.242 1.157l-2.314 1.64c.868.097 4.243.386 5.208.58 1.254 1.252 3.47.674 5.015 1.06 7.136-.964 15.14.193 23.722-.192-1.253-1.543-2.506-1.93-3.182-2.604-1.35-1.35-5.11-2.796-7.618-3.857-4.34.578-8.97-.387-12.633 1.542zM1070.578 707.933c1.254 1.06 0 .964-.19 1.35-5.403 4.725-12.925 3.76-18.71 7.522-4.146 1.543-8.582 2.12-12.633 3.085-3.182.097-6.076 1.447-9.064.868-.964.77-2.41 0-3.47.386-6.945 0-10.9-1.35-16.298-2.507-1.832.193-3.76-.386-5.208-1.64-2.507.29-4.532-.482-6.364-1.446-4.436-1.638-8.872-3.374-12.054-6.46 0 .097-.578-.193-.29-.386.772-.482 1.64.386 2.41.77 4.534.387 7.427 3.666 11.477 4.63 1.832.964 3.857.964 5.593 1.64 7.426 1.928 12.344 3.567 20.155 3.664.1 0 .29-.675.29.096 6.654-.385 12.344-1.93 18.42-2.603 6.172-1.928 12.342-4.146 18.514-6.075 1.64-1.06 3.568-1.93 5.69-2.7.58 0 1.64-1.06 1.93-.675.093 0 .77 0-.196.483zM1058.525 677.557c-1.158.868-2.7 1.446-3.86 2.41-4.724 1.35-9.835 2.605-14.944 2.605-3.665.58-7.425 1.35-10.993 2.218-1.928-.193-4.147-.58-6.365-.097-.29.77-.29 1.06-1.446 1.35 1.06 2.796 3.278 4.725 4.34 6.75.578.29 1.156 1.06.963 1.735-.386 1.158.192 1.158.868 1.833.867 0 1.64.097 2.41.483 2.025-.675 3.568-.675 5.207-.096 1.832 1.06 3.375.29 5.4 0 3.857-.58 7.52-1.447 11.477-1.64 3.084-.096 6.172-.096 9.45-.096.288.098.58.194.48.483 0 .29-.384.58-.675.675-4.82.29-9.45.482-13.693 1.833-3.182-.096-5.785.87-8.775.58-7.136-.675-14.66 0-21.408.868-2.99-.675-5.305.58-8.197.386-7.52-.58-15.334-.58-21.987-2.796-.964-.29-.48-1.06-.964-1.736.096-.29.578 0 .77-.096 2.315.482 4.34 1.543 6.655 1.447l.19.192c3.955-.192 7.62 1.06 11.09.868 2.604 1.446 5.497-.386 8.294.096 3.567.578 6.558-.676 10.028-1.158.482-.386 1.158-.772 1.832-1.543-1.156-3.087-4.725-5.016-5.11-7.523.482 0-.675-.77-.192-2.314-2.99-.87-5.4.29-7.618-.772-1.833-.48-3.665.483-5.594-.578-2.603 1.254-4.917.097-7.425.29-1.447-1.254-2.025 1.253-3.76.096-1.64.482-3.858.77-5.21 0 .098-.386.098-.675 0-1.06 1.448-.87 3.474.288 4.92-.87 2.12-.192 3.664.965 5.785.58 6.172-1.158 13.02.192 19.287-.194 4.34-.193 9.064.482 13.21-.964 6.56-1.06 13.404-1.928 19.576-3.182 1.543-.964 3.375-2.025 5.305-1.93.29.29.58.483.677.87zM1051.1 633.486c3.76.964 6.46 4.147 10.22 5.304.58 1.06 1.833 1.64 2.413 2.7-.87.29-1.832-.578-2.604-.963-.677-.675-1.353-1.06-2.315-1.158-2.123-1.544-5.016-2.22-7.232-3.955-1.64-.578-4.05-.77-5.883-1.64-3.28-.192-6.56-.192-9.74.387-3.086.58-6.076 1.832-8.486 3.954-3.182 1.543-6.846 2.7-10.32 3.472-5.398 2.7-12.245 2.41-17.84.193-3.277 0-5.11-2.795-8.1-3.18-.867-.676-1.64-1.35-2.7-1.737-.578-.482-.29-1.253-.77-1.93 0-.19-.386.098-.192.194 1.35.096 2.796.675 3.953 1.253 5.11 3.954 11.957 4.147 18.13 5.497 4.34-.193 7.907-2.218 12.054-3.183 2.603-1.64 5.88-2.218 8.486-3.856 1.928-.193 3.47-2.41 5.496-1.93 4.34-1.542 9.45-1.542 13.598 0 .576.29 1.154.482 1.83.578zM1063.44 613.14c-.962 2.122-3.276 2.314-4.915 3.472-2.22 1.157-4.63 2.314-7.137 2.604-.676.386-1.64.482-2.412.58-6.46 1.156-12.73 3.76-19.48 3.953-4.628.963-9.74.48-14.753.385-4.146 0-9.45-1.157-13.598-2.99-2.024-.48-4.242-1.253-5.69-2.506-2.12-.58-3.76-2.123-5.592-3.28-.386-.674-.868-1.35-.868-2.024 0-.097-.096-.193-.096-.193 1.927.482 3.76 1.93 5.688 3.086 1.543.867 2.41 2.024 4.05 2.41 2.796.58 5.015 2.507 7.907 2.314 5.305 1.35 11.09 1.253 17.455.868-.965-2.218.674-3.085-.097-4.436.097-.58.192-.964.386-1.35.288-.29.48-.58.867-.29l.482.482c-.194.58.192.964.48 1.253-.288 1.255 0 2.508-.192 4.05 4.727.483 7.908-.867 11.766-1.06 1.64-.77 4.146-.964 6.172-1.543 1.832-.578 4.05-.578 5.785-1.64 1.448.194 3.087-.288 4.245-1.735 2.506.097 4.436-1.736 7.328-2.314v-.482c.482-.193 1.447-1.253 2.604-.868-.095.48-.192.866-.386 1.252zM1062.96 600.218c.29.097.48.193.675.386-.867 2.218-3.47.964-5.496 1.542-1.737.29-3.376 0-5.112.097-4.725.096-9.45-.097-13.982 0-2.41 0-5.594.193-8.1-.097-1.64-.193-3.666 0-5.305.097-3.953.385-7.713 0-11.86.29-.193-.193-.386-.193-.58-.193-1.735.868-3.663.097-5.303.386-3.954.193-7.715.58-11.572.58-2.7-1.158-5.497.578-8.293-.097-.386-.098.578-1.158.868-1.158 4.242-2.893 9.16 1.157 13.886-.193 5.594-1.544 11.862-.965 17.358-1.254 5.497-.29 10.704.192 16.297 0 1.544-.193 3.087-.193 4.726-.193.387 0 .87.097 1.254.097 4.244-.097 8.486-.097 12.246-.675 2.895.77 5.305.287 8.295.383zM999.99 572.833c1.06 0 2.604-.097 3.76-.193 2.797-1.735 7.137 0 10.416.386 2.024-1.157 5.4-.482 7.52-.675 3.087-.77 7.136.194 10.705.194 6.27 0 13.503-.193 19.77-.482.964-.097 1.93-.675 2.798-.29.096.097.19-.096.29-.096-2.22 1.447-4.92 1.542-7.138 2.507-3.182 2.797-6.848 4.243-10.22 6.365-4.052 1.832-8.198 3.182-11.862 5.978-1.16.58-2.22 1.254-3.375 1.833l-2.797 1.35 3.182.192c7.522.482 14.56-1.35 22.276-.29 3.086 0 5.98-1.252 8.97-.674.77-.096 1.735 0 2.41 0-.097.193 0 .58-.097.675-.77 0-1.447.193-2.12.675-.772.386-1.737.386-2.605.578-2.604.29-5.207-.096-7.81.482-7.042.193-13.888-.674-20.736.097-3.182-.58-6.363 1.06-9.45.193-2.024.482-4.628-.58-6.17.578-4.63-.482-9.163-1.253-13.984-1.253-1.06-.386-2.7 0-3.183-1.158-.097-.096.578-1.06.578-.578 5.207-1.35 9.644 1.736 15.622 1.06 3.086-.385 6.268 0 9.547-.963.965-1.35 2.41-1.253 3.472-2.122 1.928-.29 3.856-.77 5.11-2.122 4.917-2.41 9.933-3.278 13.886-6.846 1.156-.482 2.314-1.06 3.568-2.122 0-.29 2.795-1.542 2.795-1.832-.097-.193-2.99.482-2.99.096-3.76 0-7.23-.675-10.222.386-5.398-1.35-10.993-1.447-16.78-.193-4.146-.483-8.39-1.062-12.44-.29-3.374-1.446-7.134 1.542-10.22-1.157-.29-.868-1.833-.578-1.736-1.64 3.278-.58 6.075 1.253 9.258 1.35zM1046.855 523.845c-.19-.097.87-.29 1.254-.193h.77c.578.193 1.35.482 1.93.386 1.35.58 2.7.29 3.855.868 2.314 1.06 5.4 2.025 7.908 4.146 1.543 1.64 3.568 2.314 5.11 3.76.29.87.675 1.255.483 2.026-1.543.097-2.314-2.122-3.762-2.7-1.06-.964-2.604-1.254-3.47-2.507-.194-.096-.58-.48-.772-.578-.193-.097-.29-.29-.29-.29-.097 0-.48-.192-.48-.29-.868-.867-1.157-.963-1.157-.577-.676-.193-1.158-.675-1.834-.58-.288-.095-.577-.29-.77-.577-1.156.192-1.445-.386-2.025-.482-1.06-.58-2.7 0-3.855-.386-.58.097-1.062-.482-1.736-.386-2.314-.675-3.28-.097-5.787.097-3.182 1.158-3.277.87-5.303 1.64-1.543.58-2.41.772-3.857 1.447s-2.025 1.446-3.473 2.12c-1.35.58-2.217.387-3.47.87-1.45.577-2.316 1.252-3.666 1.832-1.35.673-2.41.963-3.954 1.638-1.446.868-2.218 1.736-3.954 2.22-.48 0-1.156.095-1.64.095-.48-.096-1.06.096-1.35.096-.29.096-.77-.097-1.06-.193-1.736.578-2.7-.58-4.533-.386-1.736-.48-3.472-.674-5.497-1.35-1.93-1.06-4.436-1.542-6.558-2.99-2.217-1.157-4.436-2.892-6.074-5.014-.193-.29-.965-1.06-.29-.964 1.735.772 3.278 2.508 5.11 3.183 4.918 3.086 10.03 4.918 15.14 5.4.58.29 1.255 0 1.93.29.964 0 2.314.29 3.376.096 3.47.387 2.7-1.155 4.146-1.734 1.543-.58 2.507-.482 3.857-1.158.964-.578 1.445-1.253 2.603-1.735.964-.58 1.64-1.06 2.894-1.253 2.893-.29 2.988-.868 4.436-2.122.676-.385 1.06-.867 1.832-1.157.676-.578 1.254-.29 2.12-.578 1.16-.29 1.737-.675 2.896-1.06 1.06-.387 2.217-.87 2.795-.87 2.025-.867 3.184-.288 5.11-.48.58-.003 1.16.383 1.062.383zM1022.652 508.995c1.832 1.446 3.954 2.796 5.592 4.917 7.232-.58 13.887.868 20.252.675 2.795-.096 4.725-1.832 7.328-1.64.096.773.676 1.544 1.64 1.834.192.194.192-.578-.097-.48-.096.096-.676.192-.77.192-3.474 2.314-8.68.675-12.923 1.253-1.543.386-3.762 1.06-5.014 0-5.787-1.06-12.73.482-18.42-.77-4.146-.194-8.582.963-12.535.095-5.98-.482-11.96.193-18.033-.675-2.025.77-3.664 0-5.787-.097-.578-.386-1.734 0-2.023-.675.385-.482.19-1.253.77-1.64 2.22-1.83 5.21-2.313 7.426-3.664 2.22-.386 4.147-.87 6.076-1.93.192-.29.386-.58.578-.675 2.508-.193 5.015-1.928 7.715-.868 6.17.675 12.92.965 18.225 4.148zm-24.88-2.026c-2.026 1.446-4.63 2.024-6.75 2.603-.772 1.254-3.087.868-4.244 2.025 1.157 1.833 2.796.965 3.954 1.158 5.883 1.157 11.957.29 18.033.675 2.41.965 4.53-.096 6.943.097 2.7.193 5.4-1.06 7.907.193l.868-1.062c-1.158-1.735-2.797-2.99-4.92-3.568-1.83 0-3.566-.964-5.398-1.736-3.28-.867-6.56-.675-10.03-.867-2.12-.097-3.856 1.157-6.364.482zM1068.457 493.566c-.29.096-1.06.675-1.736.868-1.83.096-4.435.29-6.267.578-1.06-.386-3.086.386-4.146.096-5.11.482-10.223.772-16.008.675-1.062.675-2.99.193-4.147.193-5.4-.193-10.318-1.542-15.043-.868-3.376 0-7.233 1.254-10.8 0-2.51.386-6.173-.096-8.198.097-.097.096-.29.193-.386.29-5.015-.482-10.607.578-15.43.192-.386-.097-.868-.77-.192-.868 9.933-1.254 21.215-.772 31.727-1.254 2.315-.096 5.787.096 8.294-.386l.29.29c3.76 0 7.23.482 10.8.77.29-.192.965-.096 1.156 0 5.787.194 12.537-.867 18.033-.674 3.184-1.542 6.56.675 9.45-1.157.388-.58 1.255-.29 1.735-.772 1.158.77 1.062 1.542.87 1.928zM997.29 476.4c1.446.194 2.41 1.64 4.05 1.64 3.086 1.543 5.98 2.315 9.74 2.508.578.29 1.543.386 2.217.58 2.122.192 4.05 1.157 6.076 1.157 1.254.385 2.99-.29 4.146 1.253 1.542-.386 2.7-.77 3.664-1.253.385-.772 1.447-1.736 1.35-2.797.676-1.06.098-1.93.578-3.28.58-1.83.58-2.892 1.545-4.82.48-.386.963-.77 1.543-.675.385.964 0 2.12 0 3.278-1.254 2.51-1.062 3.858-1.93 7.137.77.482.482.868.77 1.06 2.41.386 5.015.098 7.04-.385 1.254.192 2.314-.29 4.244-.29.385-1.156 1.254-.29 1.832-.578 3.47-.29 6.557-2.218 10.125-2.41 1.544-1.352 4.147-1.16 5.69-2.316 1.832.193 2.797-2.218 5.11-1.64 1.16-.867 2.218-1.928 3.665-1.928.387.29.77.578 1.158.964-.193 1.447-1.834 1.542-2.895 2.314-1.64.193-3.182.58-4.338 1.64-2.123-.096-3.377 1.735-5.4 1.64-.77.48-1.543.578-2.123.963-.77-.096-1.445.194-2.025.483-4.436 0-7.906 2.893-12.342 2.604-.578.385-1.64.385-2.22.482-4.724 1.638-10.22 1.35-15.042 1.252-2.218-.58-4.918 0-6.847-.964-5.978-1.06-11.764-3.472-17.453-5.015-2.7-1.06-5.208-2.7-7.715-4.05-2.797-1.543-6.076-2.604-8.1-5.4 0-.192 0-.482.19-.578 4.343 2.797 8.875 5.304 13.697 7.426zM1065.082 446.026c1.254.482 2.12-.194 3.086 0-.29.674-.77 1.253-.77 2.024-.388 1.06-1.737 1.254-2.51 2.025-.77.193-.866 1.253-1.735 1.832-2.023 1.254-3.857 2.604-5.88 4.05-3.956.964-7.522 3.665-12.153 4.146-3.566 1.64-8.195 1.543-12.15 1.64-2.41 1.93-6.268.193-9.16 1.254-1.447.192-2.315-.386-3.472-.386-3.955 1.062-7.522-.48-11.188-1.06-2.604-1.157-5.4-1.447-7.906-2.796-.772-.58-1.93-.386-2.7-.675-3.087-2.026-6.655-3.28-9.45-5.498-1.352-.29-1.736-1.93-3.086-2.218-.482-.675-1.447-1.253-.87-2.7-.866-.675-1.638-2.025 0-1.736.388-.29.58-.097.098.29 3.183 3.856 8.39 7.425 13.5 10.124 1.93 0 3.858 1.06 5.015 2.025 3.956 1.062 7.62 2.508 11.67 2.508 1.446 0 2.894.29 4.146-.097 2.508.29 4.82.965 7.425.29 2.51-.193 5.017-.482 7.427-.965 7.715-1.543 16.104-1.93 22.47-6.17 2.313-1.544 3.952-2.894 5.978-5.21-.29-.48 1.254-.384.965-1.06-5.98.29-13.404.483-18.805.87-2.41 1.06-5.207-.194-7.81.19-2.315.29-4.726-.288-7.138-.19-1.156 0-2.217-.194-3.277.19-1.736-.288-3.956.195-5.4-.77-.677-.58.866-.482 1.06-.87 1.543-.577 3.086-.77 4.82-.095 1.353.192 2.702-.676 3.956-.676 3.568 0 6.654.964 9.064.676 0-.29 1.156 0 2.12 0 .677-.194 1.35-.194 1.737-.097 2.12 0 3.47-.385 5.4-.096 3.47-.867 7.81 0 10.607-.77.867-.195.77-.098 1.64-.195 1.446.002 2.12-.48 3.278.196zM1063.44 426.933c-.962 2.122-3.276 2.314-4.915 3.472-2.22 1.158-4.63 2.314-7.137 2.604-.676.384-1.64.48-2.412.577-6.46 1.157-12.73 3.762-19.48 3.954-4.628.965-9.74.483-14.753.387-4.146 0-9.45-1.157-13.598-2.99-2.024-.48-4.242-1.253-5.69-2.507-2.12-.58-3.76-2.122-5.592-3.278-.386-.676-.868-1.35-.868-2.026 0-.097-.096-.193-.096-.193 1.927.482 3.76 1.93 5.688 3.086 1.543.867 2.41 2.024 4.05 2.41 2.796.58 5.015 2.508 7.907 2.314 5.305 1.35 11.09 1.253 17.455.868-.965-2.218.674-3.085-.097-4.436.097-.578.192-.964.386-1.35.288-.29.48-.58.867-.29l.482.482c-.194.58.192.964.48 1.253-.288 1.255 0 2.508-.192 4.05 4.727.483 7.908-.866 11.766-1.06 1.64-.77 4.146-.965 6.172-1.543 1.832-.578 4.05-.578 5.785-1.638 1.448.19 3.087-.29 4.245-1.738 2.506.096 4.436-1.736 7.328-2.314v-.482c.482-.193 1.447-1.253 2.604-.868-.095.483-.192.87-.386 1.255zM1058.043 404.08c-.29 2.024.096 3.76.77 5.4-.097.48-.48.963-.77 1.06-1.254 1.832 1.156 5.11-2.025 6.075-1.06.29-2.22-.193-3.086.58-3.375 1.252-4.436.288-7.715.578-2.893.192-6.365-1.254-9.162 0-1.54 0-2.795-.58-4.146-.77-3.665 1.35-7.812-.676-11.67.288-2.795.194-5.013-.963-7.81.29-.578.097-1.06.097-1.543.29-5.69 0-11.572-.58-17.165.096-2.797 0-5.497-.096-8.004-1.446-.482-.386.097-.964.58-1.157.674 0 1.638-.193 2.698.674 2.025-.868 3.857.097 5.594-.29 1.446.387 3.086.483 4.63.098 3.277-1.93 6.75.29 10.124.192 3.28-.096 6.558-1.35 9.933-.964 3.472.482 7.523.77 11.09.385 1.157-.385 2.507.193 3.567-.192 1.06.192 2.508.097 3.473.77 1.35-.19 2.988-.48 4.338-.867.77.385 1.93.288 2.605.48 3.664.29 4.436.772 7.81-.385 2.218.77 1.35-1.543 3.28-2.025 1.252-.482.578-1.06.578-1.735-.29-1.543 1.254-2.7.578-4.05-.482-1.254-.096-2.894-1.06-4.243-.097-.386-.097-.868.384-.868 1.254-.29 1.447.964 2.123 1.735zM1059.006 381.707c1.736 2.025 2.895 4.05 4.63 6.46.288 2.315 1.93 2.315 1.542 4.148-1.543 2.12-2.41 1.06-4.242 1.156-5.98-.77-13.02.483-18.805.87-5.206-.386-8.1.386-15.235.578-1.832.772-4.436.29-6.46 0-2.122.868-5.69.482-8.005-.192-7.715.964-14.08.192-21.602.578-.578-.096-1.445.386-1.06-.29 0-.096.096-.48.096-.578.192-.192.29-.482.482-.868-.097-.675-.192.29.29.29.867-1.06 1.252-2.99 2.7-2.99.77-1.06 1.542-1.64 2.41-1.928 1.735-1.64 2.7-3.086 5.015-3.086 3.954-3.182 8.97-2.796 13.5-2.796 4.534 1.543 8.294 3.954 12.152 8.968 1.64-1.833 1.543-4.34 2.604-4.82.676-1.64 1.93-2.99 3.473-4.63 3.083-2.12 5.784-2.507 9.063-3.76 3.76-2.604 7.81 1.253 11.57-.193 1.93.384 3.666 2.41 5.883 3.084zm-56.895 4.822c-2.12 2.795-4.05 1.252-5.785 5.11-.29.192-.58.385-1.06.096-3.666 1.64.29 1.832 1.83 1.928 3.184-1.06 4.727.193 7.908.097 3.28-1.06 7.04.386 10.512-.578 1.06-.29 1.832-.096 2.797-.096 2.12-.482 3.567.482 7.81 0-2.99-2.508-3.664-3.182-5.207-4.243-2.22-.964-4.243-2.508-6.268-3.665-4.34-.964-8.872-.193-12.536 1.35zm31.535-2.798c-2.604 2.507-3.568 4.244-6.076 9.45 2.7 0 4.05-.867 5.208-.482 4.82-2.025 9.258.868 14.27-.385 3.183-1.158 6.558 0 9.837-1.158 1.158.58 4.63.58 5.498.193.096-.193-.87-1.158-.58-2.41-1.35-1.93-2.604-4.052-3.664-6.366-2.122-.192-3.376-.578-4.823-1.446-3.086-.578-6.46-2.314-9.836-1.157-3.375 1.158-6.654 2.122-9.835 3.762zM1062.96 366.664c.29.096.48.193.675.386-.867 2.217-3.47.964-5.496 1.542-1.737.29-3.376 0-5.112.096-4.725.097-9.45-.096-13.982 0-2.41 0-5.594.193-8.1-.096-1.64-.193-3.666 0-5.305.096-3.953.386-7.713 0-11.86.29-.193-.193-.386-.193-.58-.193-1.735.868-3.663.096-5.303.385-3.954.193-7.715.58-11.572.58-2.7-1.158-5.497.578-8.293-.097-.386-.096.578-1.157.868-1.157 4.242-2.893 9.16 1.157 13.886-.193 5.594-1.543 11.862-.964 17.358-1.253 5.497-.29 10.704.192 16.297 0 1.544-.193 3.087-.193 4.726-.193.387 0 .87.096 1.254.096 4.244-.096 8.486-.096 12.246-.675 2.895.772 5.305.29 8.295.386zM1070.387 347.956c.096.097.096.386.19.675-.288 1.254 1.062 1.736.1 3.087 0 1.35.288 3.375-.772 4.34-.676.095-1.062.77-1.736.963-1.833.096-4.437.29-6.27.58-1.06-.386-3.085.385-4.145.096-5.11.482-11.67.77-17.455.675-1.06.676-2.99.193-4.146.193-5.4-.192-10.318-1.542-15.043-.867-3.375 0-7.232 1.253-10.8 0-2.508.385-6.172-.097-8.197.096-.097 0-.193.193-.386.29-5.015-.483-10.607.578-15.43.192-.48-.193-.964-.964-.192-1.06 9.933-1.254 21.215-.772 31.727-1.254 2.314-.097 5.882.096 8.39-.386l.29.29c3.76 0 7.135.48 10.703.77.385-.192.77-.192 1.156 0 5.788.193 13.985-.867 19.48-.674 3.183-1.543 6.558.674 9.355-1.06.482-.676 1.832 0 2.22-1.833-1.063-.964-.58-2.218-.772-2.893-.387-1.543-.482-3.954-.58-5.208.193 0-.385-1.64.482-1.543 1.35 1.06.963 3.376 1.832 4.533zM1031.234 320.86c3.76.288 7.617 1.156 11.668 1.638 4.918.58 10.03 1.157 14.658 3.472 2.41 2.41 5.4 3.665 7.328 6.847.29 1.736 1.543 1.447.965 3.568.096.29-.193 0-.193-.386-2.22.096-1.158-.483-2.797-2.7-2.508.77-4.338-.386-6.172.385-7.714-.482-14.366 0-21.888.77-1.834.87-4.146.87-6.27.58-1.35-.483-2.797.48-4.436.192-5.014-.29-10.607-.29-15.525.386-3.663-.193-7.23 0-10.993.385-1.445-.29-3.085-.77-5.11-.192-.58 1.35-1.253 1.06-.77 2.217-.194.193-.388.482-.677.676-.29-.098-.578 0-.867-.29.385-2.797 2.217-4.34 3.953-6.46 3.375-3.088 7.715-4.534 11.38-7.523 2.41-1.543 4.917-1.736 7.52-2.796 3.28-.48 6.943-.288 10.126-.963 2.702.674 5.306.48 8.102.192zm-15.236 2.41c-3.762-.193-6.365 1.542-9.933 2.604-.193.192-1.062 1.06-1.543 1.35-2.7 1.93-5.883 2.797-8.776 6.654 3.473-.29 5.208.964 6.848.29 2.41.29 4.53-.965 6.943-1.062 3.47 1.06 7.232.193 10.8.675 3.28.387 6.847-.384 10.222-.578 5.978-2.314 12.92-.675 19.093-1.35 2.99 0 6.46-.482 11.186.097-1.833-3.858-5.11-4.534-7.33-5.787-5.688-1.543-11.378-2.508-17.26-3.086-1.157-.193-2.605.29-3.665-.386-5.306.29-11.67-1.542-16.587.58zM1063.44 264.446c-3.76 2.7-3.47.964-5.302 2.026-1.35.674-2.604.29-3.857.77-2.024.677-2.024.87-3.567 1.642-.867.578-1.543 1.06-2.506 1.446-1.93.867 0 2.12-4.822 2.024-.482.096-2.508 3.278-3.182 1.93-2.412.288-.965.48-2.895 1.253-.096.193-.193-.29-.385-.29-.965.386-1.158-.192-1.543.772-.193.385.29.867-.77.288-1.062.482-2.026.87-2.026.964-.29.29-.867.193-.867.193-.676 0-1.543.964-2.314 1.735-1.736.482-2.893 2.604-3.857 4.436 3.182.675 5.4.193 7.617.964.87.192 1.736-.964 2.7 0 1.35-.386 2.122-.192 3.087-.29 1.64.675 2.41-.096 4.436.193 2.797-.77 2.7-.868 5.69-.868 4.048.772 6.073.096 10.124.482.77-.386 2.412.096 3.184.578 1.64-.578 4.436-.482 4.627-.386.29.096.772.578 1.16.77.095.193.095.29-.1.387-2.31.868-2.987.096-5.206.675-1.543-.29-3.76 0-5.4-.29-2.988.194-3.76-.867-7.135-.096h-17.84c-.483-.097-.966.193-1.448.097-.77-.193-1.736.578-2.508-.193-3.76.58-8.004-.386-10.51.29-.772.386-1.736.386-2.508.482-2.314-1.06-5.69.097-7.908-.482-1.156.29-2.7.77-4.05.58-2.122.385-3.954.29-5.882.77-1.157-.385-2.7.29-3.762 0-1.928.483-4.05-.193-6.074 0-.098-.193-.193-.385-.29-.675 1.735-3.28 4.34-4.532 6.943-7.425 4.243-3.086 11.476-4.822 16.876-1.832.963-.675 1.06.482 1.638.482 1.93 1.157 2.797 2.122 4.822 2.507 1.64.868 2.218 1.833 4.243 2.99 1.543-1.64 3.085-2.315 4.05-3.76 1.736-1.64 3.953-2.412 5.785-4.245 4.438-1.93.77.675 6.076-1.735 5.303-1.543 3.277-1.64 5.4-2.41 1.64-.58 3.47-.965 4.146-1.447.578-.482 1.06-.58 1.64-1.06 3.952-2.412.48-1.833 5.304-2.7.867-.194 4.918-1.16 5.303-1.447.676-.482.482-.29 2.123-.964.58-.195 2.313.48 1.54.866zm-72.9 21.215c4.34.87 7.328.483 10.704-.095 4.05-1.157 9.547-.675 13.79-.964.964-.48 2.796 0 3.278-1.832-1.736-.29-2.508-1.35-3.473-1.832-.097 0-.29-.096-.386 0-2.7-1.35-5.305-2.604-8.294-3.182-5.88-1.158-11.667 2.603-15.62 7.907zM1063.44 245.738c-.962 2.122-3.276 2.315-4.915 3.472-2.22 1.158-4.63 2.314-7.137 2.604-.676.385-1.64.482-2.412.578-6.46 1.157-12.73 3.76-19.48 3.954-4.628.964-9.74.482-14.753.386-4.146 0-9.45-1.158-13.598-2.99-2.024-.48-4.242-1.253-5.69-2.507-2.12-.58-3.76-2.122-5.592-3.278-.386-.676-.868-1.35-.868-2.026 0-.095-.096-.192-.096-.192 1.927.482 3.76 1.93 5.688 3.086 1.543.868 2.41 2.026 4.05 2.41 2.796.58 5.015 2.51 7.907 2.315 5.305 1.35 11.09 1.253 17.455.867-.965-2.218.674-3.085-.097-4.436.097-.577.192-.963.386-1.35.288-.288.48-.577.867-.288l.482.482c-.194.58.192.964.48 1.253-.288 1.254 0 2.507-.192 4.05 4.727.483 7.908-.867 11.766-1.06 1.64-.77 4.146-.964 6.172-1.543 1.832-.578 4.05-.578 5.785-1.64 1.448.193 3.087-.29 4.245-1.735 2.506.095 4.436-1.737 7.328-2.315v-.482c.482-.192 1.447-1.253 2.604-.868-.095.482-.192.868-.386 1.253zM986.296 226.55c.867.385.867 1.638 1.35 2.313-.77 3.085 2.025 1.35 1.157 5.014.675 1.06 1.64.77 3.278 1.157 0-.675.194-.58.194-.482 5.4-.097 15.525 1.736 20.926 0 2.508.29 5.4-.772 8.486.482.482-3.568.965-2.122.675-4.532.387-.675.387-1.64 1.255-1.736-.097.193-.097.29 0 .386.096.964 0-.386.386.096.675 2.894-.29 1.93-.192 5.786 9.547 0 19.094-1.64 27.676.097 3.086 0 5.69-1.35 8.68-1.253 1.832.964 4.05-.964 6.076.29.096.386.385.77-.098.964-4.822.58-9.836.772-14.37 1.64-4.34-1.736-9.353-.097-13.98-.58-2.7 1.158-7.618-.963-10.126.965-.867.096-1.736-.386-2.508-.482-2.99-.578-6.364-.385-9.547-.482-4.435 1.833-14.366.58-19.285.58-3.183.58-6.27-.29-9.064-1.157-.77-1.158-1.06-2.797-1.156-4.437-.193-2.604-.29-.482-.676-2.604-.096.193-.385-.386-.29-.482.194-.386-.577-1.35-.288-1.64.577.196.77-.383 1.446.1zM1058.043 205.142c-.29 2.025.096 3.76.77 5.4-.097.482-.48.964-.77 1.06-1.254 1.833 1.156 5.112-2.025 6.076-1.06.29-2.22-.193-3.086.58-3.375 1.252-4.436.288-7.715.578-2.893.193-6.365-1.254-9.162 0-1.54 0-2.795-.58-4.146-.772-3.665 1.35-7.812-.674-11.67.29-2.795.192-5.013-.964-7.81.29-.578.096-1.06.096-1.543.288-5.69 0-11.572-.578-17.165.097-2.797 0-5.497-.098-8.004-1.448-.482-.386.097-.964.58-1.157.674 0 1.638-.193 2.698.675 2.025-.868 3.857.096 5.594-.29 1.446.386 3.086.483 4.63.097 3.277-1.93 6.75.29 10.124.193 3.28-.097 6.558-1.35 9.933-.965 3.472.482 7.523.772 11.09.386 1.157-.385 2.507.194 3.567-.19 1.06.19 2.508.096 3.473.77 1.35-.193 2.988-.482 4.338-.868.77.386 1.93.29 2.605.482 3.664.29 4.436.77 7.81-.386 2.218.77 1.35-1.543 3.28-2.025 1.252-.482.578-1.06.578-1.735-.29-1.543 1.254-2.7.578-4.05-.482-1.254-.096-2.894-1.06-4.244-.097-.386-.097-.868.384-.868 1.254-.29 1.447.964 2.123 1.736zM997.29 188.073c1.446.193 2.41 1.64 4.05 1.64 3.086 1.543 5.98 2.315 9.74 2.507.578.29 1.543.386 2.217.58 2.122.192 4.05 1.157 6.076 1.157 1.254.385 2.99-.29 4.146 1.253 1.542-.386 2.7-.77 3.664-1.253.385-.772 1.447-1.737 1.35-2.797.676-1.06.098-1.928.578-3.28.58-1.83.58-2.892 1.545-4.82.48-.386.963-.772 1.543-.675.385.964 0 2.12 0 3.278-1.254 2.508-1.062 3.857-1.93 7.136.77.48.482.867.77 1.06 2.41.386 5.015.097 7.04-.385 1.254.192 2.314-.29 4.244-.29.385-1.157 1.254-.29 1.832-.58 3.47-.288 6.557-2.217 10.125-2.41 1.544-1.35 4.147-1.156 5.69-2.314 1.832.194 2.797-2.217 5.11-1.638 1.16-.868 2.218-1.93 3.665-1.93.387.29.77.58 1.158.965-.193 1.447-1.834 1.543-2.895 2.314-1.64.194-3.182.58-4.338 1.64-2.123-.095-3.377 1.737-5.4 1.64-.77.482-1.543.58-2.123.964-.77-.097-1.445.193-2.025.482-4.436 0-7.906 2.893-12.342 2.604-.578.385-1.64.385-2.22.482-4.724 1.64-10.22 1.35-15.042 1.253-2.218-.58-4.918 0-6.847-.965-5.978-1.06-11.764-3.472-17.453-5.014-2.7-1.06-5.208-2.7-7.715-4.05-2.797-1.543-6.076-2.604-8.1-5.4 0-.192 0-.482.19-.578 4.343 2.797 8.875 5.304 13.697 7.425zM987.068 156.83c2.604.194 4.725 1.736 7.328 2.218 2.99 2.7 7.04 2.99 10.126 5.4 2.41.868 5.015 1.833 7.425 2.893.965.58 1.447.965 2.7 2.123 3.375-3.086 7.715-2.7 10.898-4.146 3.086-.868 5.98-1.93 9.064-3.086 2.987-1.156 6.17-1.735 9.45-2.507 1.252-1.06 3.084-1.06 4.627-1.64 2.123.098 2.99-3.277 4.63-1.735.097 0 1.446.676.58.964-3.57 3.28-8.97 2.218-12.636 4.822-3.372.77-6.65 1.06-9.353 2.99-1.832.288-3.566.963-5.11 1.83-2.025.483-3.955.098-5.497 1.062-1.157.097-1.93.964-3.183 1.35-.192.482-1.736 1.446-1.543 1.64.193.29 2.025-.194 2.314.192 4.436.58 7.522-.192 11.284.675 2.604-.193 5.98 0 8.582.482.29-.193 1.156 0 1.64-.193 2.892-.29 5.688-1.832 8.485-.674 1.735-.29 3.856-.964 5.593-.29.096.29.096.675 0 1.06-.77.965-2.12.677-3.184.87-4.532.29-9.16.48-13.5 1.35-2.122-.097-3.665.096-5.593-.675-4.533-1.253-9.258-1.06-13.887-.58-3.568-.19-7.62.387-11.477-.19-3.277-1.16-6.942-.58-10.896-1.16-1.06.965-2.314.387-3.182.29-.77-.482-1.93-.578-2.797-.192-2.893 1.447-4.533.483-6.558-.385 0 .386-1.64-.193-1.735-.386-.193-.87.675-1.254 1.35-1.543.578-.29 1.35 1.06 1.93.578 2.795.482 5.978.29 8.967 0 4.533.675 8.872.58 13.404.772.868.192 4.146.964 5.208-.386-1.544-.77-3.954-1.928-4.437-3.085-2.314-1.06-3.76-1.157-5.496-2.7-1.83.29-2.603-1.06-4.05-1.06-2.893-.87-5.4-3.28-8.486-4.244-1.735-.095-3.182-1.156-4.63-2.024-.095-.193-.866-.386-.866-.58-.29-.288.193-.866.193-1.06.87-.676 1.257 1.157 2.318.964zM980.703 128.96c.193 1.64.868 2.798 1.158 4.533-.58 2.604-.097 4.918.868 8.1 1.35-.673 2.314-.48 2.797-.288 1.832-.193 4.146.29 5.98.193 1.735-.386 3.856-.578 5.592-.578 2.7-1.35 6.075-1.737 8.775-2.315 1.543.386 3.376 0 4.82.193 6.56 0 13.31-1.64 19.482-2.507 1.156.097 2.893-.19 3.953.097.193-.096.676-.096.77-.192 4.823-.193 8.68-.29 13.5-.29 2.22 0 4.147.386 6.173.482h-.096c-2.508 1.833-5.98 1.158-8.68 1.736-3.953-.964-8.1 1.06-12.344-.578-2.506 2.603-5.496.578-8.1 1.446-2.41-.29-5.304-.192-7.33 1.062-.964-.096-1.832.29-3.183-.193-2.313 1.35-5.207.674-7.617.674-3.954-.868-7.137 1.736-10.897 1.254-2.7 1.35-5.786 1.157-8.872 1.157-.963-1.06-2.506-.096-4.435-2.218-.675 4.243-.29 6.75-.482 9.354.482 2.026-.29 4.244 0 6.462-.096.097-.096.192-.192.29-.77-.098-.963-.965-1.253-1.543.58-1.93.482-3.858 0-5.787-.386-.482 0-1.35.097-2.314-1.06-1.447-.193-3.57-.965-4.92.48-1.542-.194-3.18-.097-4.724-.868-1.543.29-3.57-.58-5.11 0-1.352-1.83-2.702-.288-3.762.097-.096.29-.193.48-.29.39.095.87.192.968.577zM1062.96 118.257c.29.096.48.193.675.385-.867 2.218-3.47.964-5.496 1.543-1.737.29-3.376 0-5.112.096-4.725.098-9.45-.095-13.982 0-2.41 0-5.594.194-8.1-.095-1.64-.193-3.666 0-5.305.096-3.953.387-7.713 0-11.86.29-.193-.192-.386-.192-.58-.192-1.735.868-3.663.096-5.303.385-3.954.193-7.715.58-11.572.58-2.7-1.158-5.497.578-8.293-.097-.386-.096.578-1.158.868-1.158 4.242-2.893 9.16 1.158 13.886-.192 5.594-1.543 11.862-.964 17.358-1.254 5.497-.29 10.704.193 16.297 0 1.544-.192 3.087-.192 4.726-.192.387 0 .87.096 1.254.096 4.244-.096 8.486-.096 12.246-.675 2.895.773 5.305.29 8.295.387zM1063.44 99.26c-.962 2.123-3.276 2.315-4.915 3.472-2.22 1.158-4.63 2.315-7.137 2.605-.676.385-1.64.482-2.412.578-6.46 1.156-12.73 3.76-19.48 3.953-4.628.964-9.74.482-14.753.386-4.146 0-9.45-1.157-13.598-2.99-2.024-.48-4.242-1.254-5.69-2.507-2.12-.58-3.76-2.122-5.592-3.278-.386-.677-.868-1.352-.868-2.027 0-.097-.096-.193-.096-.193 1.927.482 3.76 1.93 5.688 3.086 1.543.867 2.41 2.025 4.05 2.41 2.796.58 5.015 2.51 7.907 2.315 5.305 1.352 11.09 1.255 17.455.87-.965-2.22.674-3.086-.097-4.437.097-.578.192-.964.386-1.35.288-.29.48-.58.867-.29l.482.482c-.194.58.192.964.48 1.253-.288 1.254 0 2.507-.192 4.05 4.727.482 7.908-.867 11.766-1.06 1.64-.772 4.146-.965 6.172-1.543 1.832-.58 4.05-.58 5.785-1.64 1.448.193 3.087-.29 4.245-1.736 2.506.095 4.436-1.737 7.328-2.316v-.482c.482-.192 1.447-1.252 2.604-.868-.095.485-.192.87-.386 1.257zM1053.703 77.757c-3.473 2.507-7.908 2.12-11.09 4.82-1.254.387-2.604 1.062-3.664 1.737-2.99-.097-6.077 1.832-10.128 3.664 2.604 1.06 4.533.772 5.883.386 5.69 0 10.705-.964 16.684-.096 1.638 0 3.663-.482 5.11.192 2.795.097 6.074-.675 8.484.676.098.096.098.096.193.192-2.025.58-4.63.386-6.652.29-1.736-.482-3.568.192-5.498.192-3.76.097-7.715-1.253-11.09.386-3.086.386-5.98-1.06-8.97 0-2.698.867-5.4-.482-7.905.77-4.63-.77-10.608.097-15.624-.77-5.69 0-11.475.386-17.068-.578-3.086-.097-4.34-.676-7.232-1.254-.096 0 .482-.674.482-.868 3.086-1.833 4.146-2.41 7.426-3.664 4.53-1.833 9.354-1.447 13.887-2.7 6.363.096 12.632.963 17.26 7.04 8.487-5.112 17.55-5.69 25.75-10.125 3.663-1.158 7.038-2.99 10.704-4.147.578 0 1.543-.386 2.217-.193-2.99 1.735-6.075 3.086-9.16 4.05zm-54.29 6.365c-1.256.386-2.798-.097-3.956.676-1.543-.194-2.99.674-4.242 1.156l-2.314 1.64c.868.097 4.243.386 5.208.58 1.254 1.252 3.47.673 5.015 1.06 7.136-.964 15.14.192 23.722-.193-1.253-1.542-2.506-1.928-3.182-2.603-1.35-1.35-5.11-2.796-7.618-3.857-4.34.577-8.97-.387-12.633 1.542zM978.582 53.84c0 2.99-.097 5.883.675 9.162 7.232.482 14.175.482 19.77-1.35 1.542-.29 3.085-.482 4.34-.965 6.073-1.735 10.606-.482 16.585-2.604 3.76-.29 7.137-1.06 10.706-1.64 5.014-.867 10.22-.29 14.85-1.35 2.99 0 6.56-.386 9.74-1.253 2.604.097 5.303-1.06 7.906-1.543.387.193.87.58 1.06.868-.384 2.893-4.626 1.254-6.458 2.122-6.56 1.253-12.924 1.93-18.998 2.122-3.664.095-7.52 1.06-11.283 1.54-3.76.483-6.557.772-10.32.772-1.06.58-2.505.77-3.856.482-1.254 1.157-2.507.482-3.472 1.157-3.183.483-6.558 1.352-10.03 1.834-3.085 0-6.46 1.832-9.257 1.35 0 0-.48.193-.577.29-2.797-.097-6.172.29-10.03-1.157-.77 2.217-.192 4.436-.385 6.075-.578 6.076 1.254 11.668.29 17.358 0 .482.578 1.157.19 1.64-.384.384-.77.096-1.155 0-1.06-1.448-.77-3.762-.77-5.4-.676-.772.095-2.315-.194-3.28.578-5.98-.386-11.86-.386-17.26 0-5.016-.965-11.09-1.254-16.202-.387-.867.386-1.446.867-1.832.097 0 0-.193.097-.097.96 2.893 1.348 5.98 1.348 9.16zM1056.113 44.006c0 .482-.674.77-1.06.868-1.448.964-3.472.096-5.015.868-.482 0-.87-.192-1.158-.48 0-.483.193-.676.387-.87 1.35-.385 2.7-2.603 4.338-.964 1.254-.097 1.834.193 2.508.578z"/></g><path d="M2048 0M2048 1536M0 1536M0 0" fill="none" stroke="#17192D" stroke-width="3"/></g></svg>