<?xml version="1.0" encoding="iso-8859-1"?>
<!-- Generator: Adobe Illustrator 15.1.0, SVG Export Plug-In . SVG Version: 6.00 Build 0)  -->
<!DOCTYPE svg PUBLIC "-//W3C//DTD SVG 1.1//EN" "http://www.w3.org/Graphics/SVG/1.1/DTD/svg11.dtd">
<svg version="1.1" xmlns="http://www.w3.org/2000/svg" xmlns:xlink="http://www.w3.org/1999/xlink" x="0px" y="0px" width="2048px"
	 height="1536px" viewBox="0 0 2048 1536" style="enable-background:new 0 0 2048 1536;" xml:space="preserve">
<g id="atxta_x5F_2">
	<g>
		<path style="fill:#17192D;" d="M1207.613,1326.63c-7.617,3.375-14.176,7.811-20.828,12.247c-0.58,0.289-0.771,1.061-2.025,1.061
			c-3.086,3.086-6.943,3.375-9.74,6.172c-2.508,1.254-5.303,2.7-8.197,4.918c0.387,0.289,1.061,0.578,1.35,0.771
			c2.025,0.964,4.051,0.192,5.883,0.289c5.787,0.192,11.09-0.771,16.201-0.867c4.918,0,9.451-1.158,13.791-0.676
			c0.096,0.193,0.096,0.482,0.096,0.868c-0.289,2.218-2.797,0.675-3.857,1.061c-4.629,0.578-8.68,0.676-13.693,0.868
			c-6.172,0.386-12.248,0.097-18.42,0.771c-4.146,0.385-7.906,0-11.859,0.867c-6.559-0.771-13.213,2.604-19.77,1.254
			c-1.543,0-3.086,0.771-4.725,0.386c-0.676-0.482-3.762,0.097-2.219-1.35c5.016-0.772,10.223,0,15.332-0.675
			c7.715-0.29,15.912-0.772,21.602-5.69c0.965-0.289,1.736-0.964,2.41-1.446c2.412-1.446,5.016-2.507,7.041-4.629
			c2.025-0.675,3.857-1.832,5.496-2.989c2.893-2.893,6.75-3.953,9.934-6.172c0-0.385,0.289-0.289,0.48-0.385
			c0.869-0.387,1.543-1.158,2.605-1.929c0-0.387,2.795-0.965,2.699-1.254c-0.096-0.29-3.279-0.193-3.568-0.386
			c-4.436,0.964-9.932,1.35-15.043,1.832c-5.496,0.482-9.162,1.543-14.369,1.639c-1.832-0.385-4.436,1.447-6.268-0.096
			c-2.025,0-3.184-0.097-4.822,0.482c-1.445,0-2.893-0.193-4.629-0.193c-0.385-0.096-0.771,0.289-1.156,0.289
			c-1.641,1.061-2.508-1.446-3.762-0.289c-0.578,0.193-1.156,0.675-1.734-0.193c-3.086,0.868-5.498,0.387-8.102-1.061
			c-0.867,0.386-1.156-0.096-1.543-0.386c0-0.096,0-0.192,0-0.289c0.289-0.675,0.867,0.289,0.867,0.193c0,0,0.58,0.481,1.158-0.097
			c0.387-0.579,1.254,0.675,1.447,0.386c3.277,0.771,7.135,0.578,10.799,0.097c3.377,0.578,8.486-0.386,11.67,0.289
			c0.674-0.097,1.543-0.675,2.699-0.289c1.061-0.965,2.508-0.097,3.279-0.675c4.049-0.29,8.389-0.965,12.535-0.965
			c3.955-0.386,8.295-0.771,11.477-1.254c0.676,0.192,1.445-0.386,2.121,0.097c1.639-0.386,2.314-0.386,3.568-0.579
			c2.508-0.481,5.689-0.867,7.906-1.35c0.387,0,0.869-0.289,1.447-0.964c-0.482-0.869,0.578-0.482,0.676-0.482
			c0.867-0.387,2.314,0.386,3.76-0.097C1207.613,1326.051,1207.711,1326.341,1207.613,1326.63z"/>
		<path style="fill:#17192D;" d="M1204.432,1314.77c0.289,0.096,0.482,0.192,0.676,0.386c-0.869,2.218-3.473,0.964-5.498,1.543
			c-1.734,0.289-3.375,0-5.109,0.096c-4.727,0.097-9.451-0.096-13.984,0c-2.41,0-5.592,0.193-8.1-0.096
			c-1.639-0.193-3.664,0-5.305,0.096c-3.953,0.386-7.713,0-11.861,0.29c-0.191-0.193-0.385-0.193-0.578-0.193
			c-1.736,0.867-3.664,0.097-5.303,0.386c-3.955,0.192-7.715,0.579-11.572,0.579c-2.701-1.157-5.496,0.578-8.293-0.098
			c-0.387-0.096,0.578-1.156,0.867-1.156c4.244-2.894,9.16,1.156,13.887-0.192c5.594-1.544,11.861-0.965,17.357-1.254
			c5.496-0.29,10.705,0.192,16.297,0c1.543-0.193,3.086-0.193,4.727-0.193c0.385,0,0.867,0.097,1.252,0.097
			c4.244-0.097,8.486-0.097,12.248-0.675C1199.031,1315.155,1201.441,1314.673,1204.432,1314.77z"/>
		<path style="fill:#17192D;" d="M1212.051,1293.844c1.252,1.062,0,0.964-0.193,1.351c-5.4,4.725-12.922,3.76-18.709,7.521
			c-4.146,1.543-8.582,2.122-12.633,3.086c-3.182,0.097-6.074,1.446-9.064,0.867c-0.965,0.772-2.41,0-3.471,0.387
			c-6.943,0-10.898-1.351-16.297-2.508c-1.832,0.192-3.762-0.386-5.209-1.639c-2.506,0.289-4.531-0.482-6.363-1.447
			c-4.436-1.639-8.873-3.375-12.055-6.461c0,0.096-0.578-0.193-0.289-0.386c0.771-0.482,1.639,0.386,2.41,0.771
			c4.533,0.386,7.426,3.665,11.477,4.629c1.832,0.965,3.857,0.965,5.592,1.64c7.426,1.929,12.344,3.567,20.156,3.664
			c0.096,0,0.289-0.675,0.289,0.097c6.652-0.386,12.342-1.929,18.418-2.604c6.172-1.929,12.344-4.146,18.516-6.075
			c1.639-1.06,3.568-1.929,5.689-2.699c0.578,0,1.639-1.061,1.928-0.676C1212.34,1293.361,1213.014,1293.361,1212.051,1293.844z"/>
		<path style="fill:#17192D;" d="M1207.131,1259.61c0.098,0.289,0.098,0.675,0,0.965c-0.578,0.289-0.963,0.385-1.734,0.578
			c-0.482,0.097-0.965,0.097-1.447,0.097c-1.736,0.385-2.797,0.578-4.629,1.157c-0.385,0.192-0.578,0.386-0.963,0.578
			c-0.482,0-0.676-0.097-1.158-0.097c-2.025-0.096-4.725,0.675-5.207,0.482c-4.822,0.868-4.146,1.254-9.645,1.543
			c-3.953,0.193-6.846,0.578-10.51,0.965c0,1.929-1.254,3.761-1.543,5.496c-0.098,0.965-0.193,1.446-0.387,2.411
			c-0.385,1.254-1.156,1.832-0.965,3.183c0,2.7,0.193,0.867-1.35,3.567c-0.191,0.29-0.289,0.675-1.35,2.121
			c2.314-0.192,3.086-0.385,4.146-0.578c1.447,0.965,4.051,0.097,6.365,0.193c6.074,0.289,11.861-0.579,17.357-0.29
			c5.111,0.193,10.125-0.771,14.658-0.289c0.096,0.289,0.096,0.675,0.096,1.061c-0.385,2.314-3.086,0.579-4.146,1.062
			c-4.822,0.385-9.258,0.385-14.658,0.385c-6.557,0.193-13.113-0.385-19.768,0.097c-4.533,0.386-8.486-0.289-12.633,0.482
			c-7.041-1.157-14.176,2.314-21.119,0.676c-1.736-0.098-3.473,0.578-5.207,0.096c-0.867-0.482-3.955-0.193-2.314-1.543
			c5.4-0.578,10.992,0.097,16.49-0.097c8.1-0.385,3.182-0.771,5.303-0.964c2.797-0.29,4.436-0.193,7.33-0.193
			c2.604,0,4.049,0.29,6.846,0c0.58-1.35,0.965-2.121,1.543-3.278c1.254-2.411,0.387,0.964,0.965-3.568
			c0.193-1.446,0.289-1.832,0.289-3.278c0-1.254,0.578-1.833,0.867-3.086c0.289-0.868,0.193-1.832,0.387-3.472
			c-1.254,0-1.639,0.097-2.219,0.097c-2.025-0.578-4.82,1.446-6.652-0.289c-2.314-0.193-3.568-0.387-5.498,0.386
			c-1.35-0.097-2.797-0.29-4.531-0.482c-0.387-0.192-0.965,0.289-1.352,0.289c-1.543,0.868-2.506-1.64-3.953-0.481
			c-0.674,0-1.35,0.675-2.025-0.29c-3.182,0.868-5.689,0.579-8.389-1.157c-0.869,0.386-1.254-0.192-1.641-0.675
			c-0.096-0.097-0.191-0.289-0.096-0.482c0.289-0.771,0.771,0.386,0.965,0.289c0,0,0.578,0.482,1.156-0.096
			c0.578-0.482,1.061,0.771,1.641,0.482c3.664,0.867,7.617,0.867,11.379,0.385c3.664,0.868,9.064,0,12.535,0.868
			c0.869-0.097,1.641-0.771,2.99,0c1.156-1.253,2.604-0.289,3.471-0.868c4.438-0.096,8.969-0.482,13.404-0.578
			c4.34,0,2.895-0.675,6.172-1.157c0.676,0.192,1.736-0.289,2.219,0.097c1.254-0.193,2.41-0.193,3.664-0.386
			c2.604-0.387,6.172-0.579,8.486-1.157c0.385,0.192,0.867-0.097,1.543-0.868c-0.387-0.868,0.674-0.386,0.674-0.579
			C1204.047,1259.031,1205.492,1259.996,1207.131,1259.61z"/>
		<path style="fill:#17192D;" d="M1122.174,1232.803c0.193,1.64,0.869,2.797,1.158,4.532c-0.578,2.604-0.098,4.918,0.867,8.101
			c1.35-0.675,2.314-0.482,2.797-0.289c1.832-0.193,4.146,0.289,5.979,0.192c1.736-0.386,3.857-0.578,5.594-0.578
			c2.699-1.351,6.074-1.736,8.775-2.314c1.543,0.386,3.375,0,4.822,0.193c6.557,0,13.307-1.64,19.479-2.508
			c1.156,0.097,2.893-0.192,3.953,0.097c0.193-0.097,0.676-0.097,0.771-0.193c4.822-0.193,8.68-0.289,13.502-0.289
			c2.217,0,4.146,0.386,6.17,0.482h-0.096c-2.508,1.832-5.979,1.157-8.678,1.735c-3.955-0.964-8.102,1.061-12.344-0.578
			c-2.508,2.604-5.498,0.578-8.102,1.446c-2.41-0.289-5.303-0.192-7.328,1.061c-0.965-0.096-1.832,0.289-3.182-0.193
			c-2.314,1.351-5.209,0.676-7.619,0.676c-3.953-0.868-7.137,1.735-10.896,1.253c-2.701,1.351-5.787,1.158-8.873,1.158
			c-0.963-1.062-2.506-0.097-4.436-2.218c-0.674,4.242-0.289,6.75-0.482,9.354c0.482,2.025-0.289,4.243,0,6.461
			c-0.096,0.097-0.096,0.192-0.191,0.289c-0.771-0.097-0.965-0.964-1.254-1.543c0.578-1.929,0.482-3.857,0-5.786
			c-0.387-0.481,0-1.35,0.096-2.314c-1.061-1.446-0.193-3.567-0.965-4.918c0.482-1.542-0.191-3.182-0.096-4.725
			c-0.867-1.544,0.289-3.568-0.578-5.111c0-1.35-1.832-2.7-0.289-3.761c0.096-0.096,0.289-0.193,0.482-0.289
			C1121.596,1232.32,1122.078,1232.418,1122.174,1232.803z"/>
		<path style="fill:#17192D;" d="M1192.57,1216.409c3.762,0.965,6.461,4.146,10.223,5.304c0.578,1.062,1.832,1.64,2.41,2.7
			c-0.867,0.29-1.832-0.578-2.604-0.964c-0.676-0.675-1.35-1.062-2.314-1.157c-2.121-1.543-5.014-2.219-7.232-3.954
			c-1.639-0.578-4.051-0.771-5.883-1.639c-3.279-0.193-6.557-0.193-9.74,0.385c-3.086,0.579-6.074,1.833-8.486,3.954
			c-3.182,1.543-6.846,2.7-10.318,3.472c-5.398,2.7-12.246,2.411-17.84,0.193c-3.277,0-5.109-2.797-8.1-3.183
			c-0.867-0.675-1.639-1.351-2.699-1.736c-0.58-0.481-0.291-1.254-0.771-1.929c0-0.192-0.387,0.097-0.193,0.193
			c1.35,0.097,2.797,0.675,3.953,1.254c5.111,3.953,11.957,4.146,18.129,5.496c4.34-0.193,7.908-2.218,12.055-3.183
			c2.604-1.639,5.883-2.218,8.486-3.856c1.93-0.193,3.473-2.411,5.496-1.929c4.34-1.543,9.451-1.543,13.598,0
			C1191.316,1216.12,1191.895,1216.312,1192.57,1216.409z"/>
		<path style="fill:#17192D;" d="M1204.914,1169.929c-0.965,2.122-3.279,2.315-4.918,3.473c-2.219,1.157-4.629,2.313-7.137,2.604
			c-0.674,0.386-1.639,0.482-2.41,0.579c-6.461,1.157-12.729,3.761-19.48,3.953c-4.629,0.964-9.738,0.482-14.754,0.386
			c-4.146,0-9.449-1.157-13.596-2.989c-2.025-0.482-4.244-1.254-5.691-2.508c-2.121-0.578-3.76-2.121-5.592-3.278
			c-0.387-0.675-0.867-1.35-0.867-2.025c0-0.096-0.098-0.193-0.098-0.193c1.93,0.482,3.762,1.929,5.689,3.087
			c1.543,0.868,2.412,2.024,4.051,2.41c2.797,0.579,5.014,2.508,7.908,2.315c5.303,1.35,11.088,1.253,17.453,0.867
			c-0.965-2.218,0.676-3.086-0.096-4.436c0.096-0.579,0.193-0.965,0.385-1.351c0.289-0.289,0.482-0.578,0.867-0.289
			c0.193,0.193,0.291,0.289,0.482,0.482c-0.191,0.578,0.193,0.964,0.482,1.253c-0.289,1.254,0,2.508-0.191,4.051
			c4.725,0.482,7.906-0.868,11.764-1.061c1.641-0.771,4.146-0.965,6.172-1.544c1.832-0.578,4.051-0.578,5.787-1.639
			c1.445,0.192,3.084-0.29,4.242-1.736c2.508,0.098,4.436-1.735,7.328-2.313c0-0.771,0-0.482,0-0.482
			c0.482-0.193,1.447-1.254,2.604-0.868C1205.203,1169.158,1205.107,1169.544,1204.914,1169.929z"/>
		<path style="fill:#17192D;" d="M1195.078,1141.193c0,0.097,0.096-0.097,0.193,0c-0.676,0.289-1.158,0.771-1.834,1.061
			c-2.506,0.965-5.303,1.446-8.004,2.121c-2.217,0.482-4.242,1.351-6.461,1.736c-1.35,0.289-2.893-0.192-4.242-0.096
			c-1.35,0.288-2.121,1.542-3.086,2.313c-2.121,1.157-4.242,1.351-7.232,3.375c3.086,1.447,5.785,1.254,7.908,1.929
			c5.4,0.193,10.51,2.218,15.043,5.111c1.254,0.289,2.797,1.253,4.242,1.061c1.736,0.675,3.666,1.254,5.594,0.482
			c1.158-0.386,1.832,0.386,2.604,0.965c-0.385,0.289-0.965,0.385-1.445,0.578c-2.508-0.097-0.482,0.867-3.086,0.481
			c-1.641-0.192-8.004-0.675-9.162-2.604c-1.93-0.481-4.436-1.639-7.521-2.41c-4.34-1.061-9.451-1.929-12.15-2.7
			c-3.955-1.157-2.121-1.061-6.461-1.446c-2.025-1.543-4.146,0.771-6.076,1.253c-8.004,1.929-15.814,2.7-23.625,4.629
			c-1.543-0.192-3.664-0.771-5.111,0.097c-1.641,0-3.953,1.061-4.822-0.579c2.121-1.061,5.111-0.289,7.328-1.061
			c3.857,0.676,8.584-0.771,12.344-1.64c1.158-1.157,3.184-1.253,4.727-1.446c2.699-0.386,5.4-1.253,8.1-1.832
			c0.289-0.289,1.639,0.192,1.35-0.386c-2.121-0.771-5.496-1.735-7.906-2.121c-4.146-1.639-8.486-2.121-12.826-2.508
			c-3.471-1.06-7.039-2.121-10.896-2.314c-2.025-0.964-4.244-0.771-6.172-1.735c-0.289,0-0.869-0.867-0.676-1.062
			c5.305,1.447,10.994,1.351,16.008,3.473c5.689,0.385,11.766,1.543,16.877,2.989c4.531,1.253,9.738,2.7,14.367,0.964
			c1.254-0.675,2.412-2.024,3.955-2.121c0.385,0.289,1.061,0.193,1.445,0c2.025-1.447,4.34-2.218,6.461-3.279
			c3.279-0.578,7.232,0,10.029-2.121c3.182-0.965,6.559-1.832,9.74-2.411C1195.078,1140.229,1194.98,1140.712,1195.078,1141.193z"/>
		<path style="fill:#17192D;" d="M1204.432,1128.657c0.289,0.097,0.482,0.193,0.676,0.386c-0.869,2.218-3.473,0.965-5.498,1.543
			c-1.734,0.29-3.375,0-5.109,0.097c-4.727,0.097-9.451-0.097-13.984,0c-2.41,0-5.592,0.193-8.1-0.097
			c-1.639-0.192-3.664,0-5.305,0.097c-3.953,0.386-7.713,0-11.861,0.289c-0.191-0.192-0.385-0.192-0.578-0.192
			c-1.736,0.867-3.664,0.097-5.303,0.386c-3.955,0.192-7.715,0.578-11.572,0.578c-2.701-1.157-5.496,0.579-8.293-0.097
			c-0.387-0.096,0.578-1.156,0.867-1.156c4.244-2.894,9.16,1.156,13.887-0.193c5.594-1.543,11.861-0.964,17.357-1.254
			c5.496-0.289,10.705,0.193,16.297,0c1.543-0.192,3.086-0.192,4.727-0.192c0.385,0,0.867,0.097,1.252,0.097
			c4.244-0.097,8.486-0.097,12.248-0.676C1199.031,1129.043,1201.441,1128.562,1204.432,1128.657z"/>
		<path style="fill:#17192D;" d="M1188.328,1106.961c-0.193-0.097,0.867-0.29,1.252-0.193c0.291,0,0.676,0,0.771,0
			c0.58,0.193,1.352,0.482,1.93,0.386c1.35,0.579,2.699,0.289,3.857,0.868c2.314,1.061,5.4,2.025,7.908,4.146
			c1.541,1.64,3.566,2.314,5.109,3.761c0.289,0.868,0.676,1.254,0.482,2.025c-1.543,0.097-2.314-2.122-3.76-2.7
			c-1.061-0.964-2.605-1.254-3.473-2.508c-0.193-0.096-0.578-0.481-0.771-0.578s-0.289-0.289-0.289-0.289
			c-0.096,0-0.482-0.193-0.482-0.29c-0.867-0.867-1.156-0.964-1.156-0.578c-0.676-0.193-1.158-0.675-1.832-0.578
			c-0.291-0.097-0.58-0.29-0.771-0.579c-1.158,0.193-1.447-0.386-2.025-0.482c-1.061-0.578-2.701,0-3.857-0.386
			c-0.578,0.097-1.061-0.481-1.736-0.386c-2.314-0.675-3.279-0.096-5.785,0.097c-3.184,1.157-3.279,0.868-5.305,1.64
			c-1.543,0.578-2.41,0.771-3.857,1.446c-1.445,0.675-2.025,1.446-3.471,2.122c-1.35,0.578-2.219,0.386-3.473,0.867
			c-1.445,0.578-2.314,1.254-3.664,1.832c-1.35,0.675-2.41,0.965-3.953,1.64c-1.447,0.868-2.219,1.736-3.953,2.218
			c-0.482,0-1.158,0.097-1.641,0.097c-0.482-0.097-1.061,0.097-1.35,0.097c-0.289,0.096-0.771-0.097-1.061-0.193
			c-1.736,0.579-2.701-0.578-4.533-0.386c-1.736-0.481-3.471-0.675-5.496-1.35c-1.93-1.061-4.436-1.543-6.559-2.989
			c-2.217-1.157-4.436-2.894-6.074-5.015c-0.193-0.289-0.965-1.062-0.289-0.965c1.736,0.771,3.279,2.508,5.111,3.183
			c4.918,3.086,10.029,4.918,15.139,5.4c0.58,0.289,1.254,0,1.93,0.289c0.965,0,2.314,0.289,3.375,0.097
			c3.471,0.386,2.699-1.157,4.146-1.736c1.543-0.578,2.508-0.481,3.857-1.157c0.965-0.578,1.445-1.253,2.604-1.735
			c0.965-0.579,1.639-1.061,2.893-1.254c2.893-0.289,2.99-0.867,4.436-2.121c0.676-0.386,1.062-0.868,1.832-1.157
			c0.676-0.579,1.254-0.29,2.123-0.579c1.156-0.289,1.734-0.675,2.893-1.061c1.061-0.386,2.217-0.868,2.797-0.868
			c2.023-0.867,3.182-0.289,5.111-0.481C1187.846,1106.575,1188.424,1106.961,1188.328,1106.961z"/>
		<path style="fill:#17192D;" d="M1122.174,1079.092c0.193,1.64,0.869,2.796,1.158,4.532c-0.578,2.604-0.098,4.918,0.867,8.1
			c1.35-0.675,2.314-0.481,2.797-0.289c1.832-0.192,4.146,0.289,5.979,0.193c1.736-0.386,3.857-0.579,5.594-0.579
			c2.699-1.35,6.074-1.735,8.775-2.313c1.543,0.385,3.375,0,4.822,0.192c6.557,0,13.307-1.64,19.479-2.507
			c1.156,0.096,2.893-0.193,3.953,0.096c0.193-0.096,0.676-0.096,0.771-0.192c4.822-0.193,8.68-0.29,13.502-0.29
			c2.217,0,4.146,0.387,6.17,0.482h-0.096c-2.508,1.832-5.979,1.157-8.678,1.736c-3.955-0.965-8.102,1.061-12.344-0.579
			c-2.508,2.604-5.498,0.579-8.102,1.446c-2.41-0.289-5.303-0.192-7.328,1.062c-0.965-0.097-1.832,0.289-3.182-0.193
			c-2.314,1.351-5.209,0.676-7.619,0.676c-3.953-0.869-7.137,1.735-10.896,1.253c-2.701,1.35-5.787,1.157-8.873,1.157
			c-0.963-1.061-2.506-0.097-4.436-2.218c-0.674,4.243-0.289,6.75-0.482,9.354c0.482,2.025-0.289,4.243,0,6.461
			c-0.096,0.097-0.096,0.193-0.191,0.29c-0.771-0.097-0.965-0.965-1.254-1.543c0.578-1.929,0.482-3.857,0-5.786
			c-0.387-0.482,0-1.35,0.096-2.314c-1.061-1.446-0.193-3.568-0.965-4.918c0.482-1.543-0.191-3.183-0.096-4.726
			c-0.867-1.543,0.289-3.568-0.578-5.11c0-1.351-1.832-2.701-0.289-3.761c0.096-0.097,0.289-0.193,0.482-0.29
			C1121.596,1078.609,1122.078,1078.706,1122.174,1079.092z"/>
		<path style="fill:#17192D;" d="M1204.432,1068.387c0.289,0.097,0.482,0.193,0.676,0.387c-0.869,2.218-3.473,0.964-5.498,1.542
			c-1.734,0.29-3.375,0-5.109,0.097c-4.727,0.097-9.451-0.097-13.984,0c-2.41,0-5.592,0.193-8.1-0.097
			c-1.639-0.192-3.664,0-5.305,0.097c-3.953,0.386-7.713,0-11.861,0.29c-0.191-0.193-0.385-0.193-0.578-0.193
			c-1.736,0.868-3.664,0.097-5.303,0.386c-3.955,0.193-7.715,0.579-11.572,0.579c-2.701-1.158-5.496,0.578-8.293-0.097
			c-0.387-0.097,0.578-1.157,0.867-1.157c4.244-2.893,9.16,1.157,13.887-0.193c5.594-1.543,11.861-0.964,17.357-1.253
			c5.496-0.29,10.705,0.192,16.297,0c1.543-0.193,3.086-0.193,4.727-0.193c0.385,0,0.867,0.097,1.252,0.097
			c4.244-0.097,8.486-0.097,12.248-0.675C1199.031,1068.773,1201.441,1068.291,1204.432,1068.387z"/>
		<path style="fill:#17192D;" d="M1204.914,1049.391c-0.965,2.122-3.279,2.315-4.918,3.472c-2.219,1.157-4.629,2.314-7.137,2.604
			c-0.674,0.386-1.639,0.481-2.41,0.578c-6.461,1.157-12.729,3.761-19.48,3.954c-4.629,0.964-9.738,0.481-14.754,0.385
			c-4.146,0-9.449-1.156-13.596-2.988c-2.025-0.482-4.244-1.254-5.691-2.508c-2.121-0.579-3.76-2.122-5.592-3.278
			c-0.387-0.676-0.867-1.351-0.867-2.025c0-0.097-0.098-0.193-0.098-0.193c1.93,0.482,3.762,1.929,5.689,3.086
			c1.543,0.868,2.412,2.025,4.051,2.411c2.797,0.579,5.014,2.508,7.908,2.314c5.303,1.35,11.088,1.254,17.453,0.868
			c-0.965-2.218,0.676-3.086-0.096-4.436c0.096-0.579,0.193-0.965,0.385-1.351c0.289-0.289,0.482-0.578,0.867-0.289
			c0.193,0.192,0.291,0.289,0.482,0.481c-0.191,0.579,0.193,0.965,0.482,1.254c-0.289,1.254,0,2.507-0.191,4.051
			c4.725,0.481,7.906-0.868,11.764-1.062c1.641-0.771,4.146-0.964,6.172-1.543c1.832-0.578,4.051-0.578,5.787-1.639
			c1.445,0.192,3.084-0.29,4.242-1.736c2.508,0.097,4.436-1.735,7.328-2.314c0-0.771,0-0.482,0-0.482
			c0.482-0.192,1.447-1.253,2.604-0.867C1205.203,1048.619,1205.107,1049.005,1204.914,1049.391z"/>
		<path style="fill:#17192D;" d="M1195.174,1027.888c-3.471,2.507-7.906,2.121-11.09,4.821c-1.254,0.386-2.604,1.061-3.664,1.736
			c-2.99-0.097-6.076,1.832-10.125,3.664c2.604,1.061,4.531,0.771,5.881,0.386c5.691,0,10.705-0.965,16.684-0.097
			c1.641,0,3.664-0.482,5.111,0.193c2.797,0.096,6.076-0.676,8.486,0.675c0.096,0.096,0.096,0.096,0.193,0.192
			c-2.025,0.579-4.629,0.386-6.654,0.29c-1.736-0.482-3.568,0.192-5.496,0.192c-3.762,0.097-7.715-1.254-11.09,0.386
			c-3.086,0.386-5.98-1.061-8.969,0c-2.701,0.867-5.4-0.482-7.908,0.771c-4.629-0.771-10.607,0.096-15.621-0.771
			c-5.691,0-11.477,0.386-17.07-0.578c-3.084-0.097-4.338-0.676-7.23-1.254c-0.098,0,0.48-0.675,0.48-0.868
			c3.086-1.832,4.146-2.411,7.426-3.664c4.533-1.832,9.354-1.446,13.887-2.7c6.363,0.096,12.633,0.964,17.262,7.04
			c8.486-5.111,17.551-5.69,25.748-10.126c3.664-1.157,7.039-2.989,10.703-4.146c0.578,0,1.543-0.387,2.219-0.193
			C1201.346,1025.572,1198.26,1026.923,1195.174,1027.888z M1140.883,1034.252c-1.254,0.386-2.797-0.097-3.955,0.675
			c-1.543-0.192-2.988,0.675-4.242,1.157l-2.314,1.64c0.867,0.097,4.244,0.386,5.207,0.579c1.254,1.253,3.473,0.674,5.016,1.06
			c7.135-0.964,15.139,0.193,23.723-0.192c-1.254-1.543-2.508-1.929-3.184-2.604c-1.35-1.351-5.109-2.797-7.617-3.857
			C1149.176,1033.287,1144.547,1032.323,1140.883,1034.252z"/>
		<path style="fill:#17192D;" d="M1120.053,1003.972c0,2.989-0.096,5.882,0.676,9.16c7.232,0.482,14.176,0.482,19.768-1.35
			c1.543-0.289,3.086-0.482,4.34-0.964c6.076-1.736,10.607-0.482,16.586-2.604c3.762-0.29,7.137-1.062,10.705-1.64
			c5.014-0.868,10.221-0.289,14.852-1.351c2.988,0,6.557-0.386,9.738-1.253c2.604,0.097,5.305-1.061,7.908-1.543
			c0.385,0.192,0.867,0.578,1.061,0.867c-0.387,2.894-4.629,1.254-6.461,2.122c-6.557,1.254-12.922,1.929-18.998,2.121
			c-3.664,0.097-7.521,1.062-11.283,1.543c-3.76,0.482-6.557,0.771-10.318,0.771c-1.061,0.579-2.506,0.771-3.857,0.482
			c-1.252,1.157-2.506,0.482-3.471,1.157c-3.182,0.482-6.557,1.35-10.029,1.832c-3.086,0-6.461,1.832-9.258,1.351
			c0,0-0.482,0.192-0.578,0.289c-2.797-0.097-6.172,0.289-10.029-1.157c-0.771,2.218-0.191,4.436-0.385,6.075
			c-0.578,6.075,1.254,11.669,0.289,17.358c0,0.481,0.578,1.156,0.193,1.639c-0.387,0.386-0.771,0.097-1.158,0
			c-1.061-1.446-0.771-3.761-0.771-5.399c-0.674-0.772,0.096-2.315-0.193-3.279c0.58-5.979-0.385-11.861-0.385-17.262
			c0-5.015-0.965-11.09-1.254-16.2c-0.385-0.868,0.387-1.447,0.869-1.832c0.096,0,0-0.193,0.096-0.097
			C1119.666,997.703,1120.053,1000.789,1120.053,1003.972z"/>
		<path style="fill:#17192D;" d="M1175.695,951.802c6.074-0.771,11.475,2.219,17.068,3.473c2.314,1.253,5.014,1.446,7.715,3.182
			c0.867-0.289,0.963,0.385,1.252,0.771c0,0.096-0.096-0.482-0.096-0.482c-3.277,1.929-7.135,4.051-11.186,5.208
			c-2.121,0.964-4.725,1.254-6.848,1.929c-2.604,0.771-5.111,1.639-7.617,2.313c-5.207,0.482-8.582,1.351-13.598,1.833
			c-3.762-0.676-8.197-0.29-11.572-1.735c-2.121,0.771-4.725-0.193-6.75-0.676c-2.508,0.482-4.533-1.832-6.943-2.122
			c-2.604-1.157-5.883-0.964-7.715-3.182c0.098-0.097-1.061-0.771-0.385-1.543c0.193-0.192,0.289-0.386,0.482-0.579
			c1.639-1.157,2.797-2.797,4.82-3.664c4.438-2.507,9.451-4.918,15.045-4.726c2.988,0.579,5.881-1.929,8.871-0.385
			C1163.736,951.417,1170.295,950.741,1175.695,951.802z M1131.914,959.613c-0.387,1.061-1.254,2.7,0.676,2.7
			c6.75,2.507,13.5,3.857,20.443,4.918c6.75,0.964,13.115,1.543,19.672-0.29c8.391-2.41,17.262-3.952,26.713-8.39
			c-5.498-1.06-8.584-2.699-11.959-3.277c-7.426-0.482-14.176-2.7-21.697-2.508C1153.611,952.959,1141.365,954.31,1131.914,959.613z
			"/>
		<path style="fill:#17192D;" d="M1172.705,926.634c3.762,0.289,7.619,1.157,11.668,1.639c4.918,0.579,10.029,1.157,14.658,3.472
			c2.41,2.411,5.4,3.665,7.33,6.847c0.289,1.736,1.541,1.446,0.963,3.568c0.098,0.289-0.193,0-0.193-0.386
			c-2.217,0.097-1.156-0.482-2.795-2.7c-2.508,0.771-4.34-0.385-6.172,0.386c-7.715-0.481-14.369,0-21.891,0.771
			c-1.832,0.868-4.146,0.868-6.268,0.578c-1.352-0.481-2.797,0.482-4.436,0.193c-5.016-0.289-10.609-0.289-15.527,0.386
			c-3.664-0.192-7.232,0-10.992,0.386c-1.447-0.289-3.086-0.771-5.111-0.192c-0.578,1.35-1.254,1.061-0.771,2.218
			c-0.193,0.193-0.387,0.482-0.676,0.675c-0.289-0.097-0.578,0-0.867-0.29c0.385-2.796,2.217-4.339,3.953-6.46
			c3.375-3.086,7.715-4.532,11.379-7.522c2.412-1.543,4.918-1.735,7.521-2.796c3.279-0.482,6.943-0.289,10.127-0.965
			C1167.305,927.116,1169.908,926.923,1172.705,926.634z M1157.469,929.045c-3.76-0.193-6.365,1.542-9.932,2.604
			c-0.193,0.192-1.062,1.061-1.543,1.35c-2.701,1.929-5.883,2.797-8.777,6.654c3.473-0.29,5.209,0.965,6.848,0.289
			c2.41,0.289,4.533-0.964,6.943-1.062c3.471,1.062,7.232,0.193,10.801,0.676c3.279,0.386,6.846-0.386,10.221-0.578
			c5.98-2.315,12.924-0.676,19.096-1.351c2.988,0,6.459-0.482,11.186,0.097c-1.832-3.857-5.111-4.532-7.33-5.786
			c-5.689-1.543-11.379-2.508-17.26-3.086c-1.158-0.193-2.604,0.289-3.666-0.386
			C1168.752,928.755,1162.387,926.923,1157.469,929.045z"/>
		<path style="fill:#17192D;" d="M1204.914,908.504c-0.965,2.122-3.279,2.315-4.918,3.473c-2.219,1.157-4.629,2.313-7.137,2.604
			c-0.674,0.386-1.639,0.482-2.41,0.578c-6.461,1.158-12.729,3.761-19.48,3.954c-4.629,0.964-9.738,0.481-14.754,0.386
			c-4.146,0-9.449-1.157-13.596-2.989c-2.025-0.482-4.244-1.254-5.691-2.508c-2.121-0.578-3.76-2.121-5.592-3.278
			c-0.387-0.675-0.867-1.351-0.867-2.025c0-0.096-0.098-0.193-0.098-0.193c1.93,0.482,3.762,1.929,5.689,3.087
			c1.543,0.868,2.412,2.024,4.051,2.41c2.797,0.579,5.014,2.508,7.908,2.315c5.303,1.349,11.088,1.253,17.453,0.867
			c-0.965-2.218,0.676-3.086-0.096-4.436c0.096-0.579,0.193-0.965,0.385-1.351c0.289-0.289,0.482-0.578,0.867-0.289
			c0.193,0.192,0.291,0.289,0.482,0.482c-0.191,0.578,0.193,0.964,0.482,1.253c-0.289,1.254,0,2.508-0.191,4.051
			c4.725,0.481,7.906-0.868,11.764-1.061c1.641-0.771,4.146-0.965,6.172-1.544c1.832-0.578,4.051-0.578,5.787-1.639
			c1.445,0.192,3.084-0.29,4.242-1.736c2.508,0.097,4.436-1.735,7.328-2.313c0-0.772,0-0.482,0-0.482
			c0.482-0.193,1.447-1.254,2.604-0.868C1205.203,907.733,1205.107,908.119,1204.914,908.504z"/>
		<path style="fill:#17192D;" d="M1195.174,887.001c-3.471,2.507-7.906,2.121-11.09,4.821c-1.254,0.386-2.604,1.061-3.664,1.736
			c-2.99-0.097-6.076,1.832-10.125,3.664c2.604,1.061,4.531,0.771,5.881,0.386c5.691,0,10.705-0.965,16.684-0.097
			c1.641,0,3.664-0.482,5.111,0.193c2.797,0.097,6.076-0.676,8.486,0.675c0.096,0.097,0.096,0.097,0.193,0.192
			c-2.025,0.579-4.629,0.386-6.654,0.29c-1.736-0.482-3.568,0.192-5.496,0.192c-3.762,0.097-7.715-1.253-11.09,0.386
			c-3.086,0.386-5.98-1.061-8.969,0c-2.701,0.868-5.4-0.482-7.908,0.771c-4.629-0.771-10.607,0.097-15.621-0.771
			c-5.691,0-11.477,0.386-17.07-0.578c-3.084-0.097-4.338-0.676-7.23-1.254c-0.098,0,0.48-0.675,0.48-0.868
			c3.086-1.832,4.146-2.411,7.426-3.664c4.533-1.832,9.354-1.446,13.887-2.7c6.363,0.097,12.633,0.964,17.262,7.04
			c8.486-5.111,17.551-5.689,25.748-10.126c3.664-1.157,7.039-2.989,10.703-4.146c0.578,0,1.543-0.386,2.219-0.193
			C1201.346,884.687,1198.26,886.036,1195.174,887.001z M1140.883,893.365c-1.254,0.386-2.797-0.097-3.955,0.675
			c-1.543-0.192-2.988,0.675-4.242,1.157l-2.314,1.64c0.867,0.097,4.244,0.386,5.207,0.579c1.254,1.253,3.473,0.675,5.016,1.061
			c7.135-0.965,15.139,0.192,23.723-0.193c-1.254-1.543-2.508-1.929-3.184-2.604c-1.35-1.351-5.109-2.797-7.617-3.857
			C1149.176,892.401,1144.547,891.437,1140.883,893.365z"/>
		<path style="fill:#17192D;" d="M1206.553,834.638c1.254,0.481,2.123-0.193,3.086,0c-0.289,0.674-0.771,1.253-0.771,2.024
			c-0.385,1.061-1.736,1.254-2.506,2.025c-0.773,0.192-0.869,1.253-1.736,1.832c-2.025,1.254-3.857,2.604-5.883,4.05
			c-3.953,0.965-7.521,3.665-12.15,4.146c-3.568,1.64-8.197,1.544-12.15,1.64c-2.412,1.929-6.27,0.193-9.162,1.254
			c-1.445,0.192-2.314-0.386-3.471-0.386c-3.953,1.061-7.521-0.482-11.188-1.061c-2.602-1.157-5.4-1.447-7.906-2.797
			c-0.771-0.578-1.93-0.386-2.701-0.675c-3.086-2.025-6.652-3.279-9.449-5.497c-1.35-0.289-1.736-1.929-3.086-2.218
			c-0.482-0.675-1.447-1.254-0.867-2.7c-0.869-0.675-1.641-2.025,0-1.735c0.385-0.29,0.578-0.097,0.096,0.289
			c3.182,3.857,8.389,7.426,13.5,10.125c1.93,0,3.857,1.062,5.014,2.025c3.955,1.061,7.619,2.507,11.67,2.507
			c1.445,0,2.893,0.29,4.146-0.096c2.508,0.289,4.822,0.964,7.426,0.289c2.506-0.193,5.014-0.482,7.424-0.965
			c7.715-1.543,16.105-1.928,22.471-6.171c2.314-1.543,3.953-2.894,5.979-5.208c-0.289-0.481,1.252-0.386,0.963-1.061
			c-5.979,0.29-13.404,0.482-18.803,0.868c-2.412,1.061-5.209-0.193-7.812,0.192c-2.314,0.289-4.725-0.289-7.135-0.192
			c-1.158,0-2.219-0.193-3.279,0.192c-1.736-0.289-3.953,0.193-5.4-0.771c-0.676-0.579,0.867-0.482,1.061-0.869
			c1.543-0.578,3.086-0.771,4.822-0.096c1.35,0.192,2.699-0.675,3.953-0.675c3.568,0,6.654,0.964,9.064,0.675
			c0-0.29,1.158,0,2.121,0c0.676-0.193,1.352-0.193,1.736-0.097c2.121,0,3.473-0.386,5.4-0.097c3.473-0.867,7.811,0,10.607-0.771
			c0.869-0.193,0.771-0.097,1.639-0.193C1204.721,834.444,1205.396,833.962,1206.553,834.638z"/>
		<path style="fill:#17192D;" d="M1204.914,815.544c-0.965,2.122-3.279,2.314-4.918,3.472c-2.219,1.157-4.629,2.314-7.137,2.604
			c-0.674,0.386-1.639,0.482-2.41,0.579c-6.461,1.157-12.729,3.761-19.48,3.953c-4.629,0.965-9.738,0.482-14.754,0.386
			c-4.146,0-9.449-1.156-13.596-2.989c-2.025-0.481-4.244-1.254-5.691-2.507c-2.121-0.579-3.76-2.122-5.592-3.278
			c-0.387-0.676-0.867-1.351-0.867-2.025c0-0.097-0.098-0.193-0.098-0.193c1.93,0.482,3.762,1.929,5.689,3.086
			c1.543,0.868,2.412,2.025,4.051,2.411c2.797,0.578,5.014,2.507,7.908,2.314c5.303,1.35,11.088,1.253,17.453,0.867
			c-0.965-2.218,0.676-3.085-0.096-4.436c0.096-0.578,0.193-0.964,0.385-1.351c0.289-0.289,0.482-0.578,0.867-0.289
			c0.193,0.193,0.291,0.289,0.482,0.482c-0.191,0.579,0.193,0.965,0.482,1.254c-0.289,1.254,0,2.507-0.191,4.05
			c4.725,0.482,7.906-0.867,11.764-1.061c1.641-0.771,4.146-0.964,6.172-1.543c1.832-0.578,4.051-0.578,5.787-1.64
			c1.445,0.193,3.084-0.289,4.242-1.735c2.508,0.097,4.436-1.736,7.328-2.314c0-0.771,0-0.482,0-0.482
			c0.482-0.192,1.447-1.253,2.604-0.868C1205.203,814.772,1205.107,815.158,1204.914,815.544z"/>
		<path style="fill:#17192D;" d="M1192.57,796.934c3.762,0.964,6.461,4.146,10.223,5.304c0.578,1.061,1.832,1.64,2.41,2.7
			c-0.867,0.289-1.832-0.579-2.604-0.964c-0.676-0.676-1.35-1.062-2.314-1.158c-2.121-1.543-5.014-2.218-7.232-3.953
			c-1.639-0.579-4.051-0.771-5.883-1.64c-3.279-0.193-6.557-0.193-9.74,0.386c-3.086,0.579-6.074,1.832-8.486,3.954
			c-3.182,1.542-6.846,2.7-10.318,3.471c-5.398,2.701-12.246,2.411-17.84,0.193c-3.277,0-5.109-2.797-8.1-3.182
			c-0.867-0.676-1.639-1.351-2.699-1.736c-0.58-0.482-0.291-1.254-0.771-1.929c0-0.192-0.387,0.097-0.193,0.193
			c1.35,0.096,2.797,0.675,3.953,1.253c5.111,3.954,11.957,4.147,18.129,5.497c4.34-0.193,7.908-2.219,12.055-3.183
			c2.604-1.64,5.883-2.218,8.486-3.857c1.93-0.192,3.473-2.41,5.496-1.929c4.34-1.543,9.451-1.543,13.598,0
			C1191.316,796.645,1191.895,796.837,1192.57,796.934z"/>
		<path style="fill:#17192D;" d="M1212.051,774.658c1.252,1.061,0,0.964-0.193,1.351c-5.4,4.725-12.922,3.761-18.709,7.521
			c-4.146,1.543-8.582,2.121-12.633,3.086c-3.182,0.097-6.074,1.446-9.064,0.868c-0.965,0.771-2.41,0-3.471,0.386
			c-6.943,0-10.898-1.351-16.297-2.508c-1.832,0.193-3.762-0.386-5.209-1.64c-2.506,0.29-4.531-0.481-6.363-1.446
			c-4.436-1.639-8.873-3.375-12.055-6.461c0,0.097-0.578-0.193-0.289-0.386c0.771-0.481,1.639,0.386,2.41,0.771
			c4.533,0.386,7.426,3.665,11.477,4.629c1.832,0.965,3.857,0.965,5.592,1.64c7.426,1.929,12.344,3.568,20.156,3.664
			c0.096,0,0.289-0.675,0.289,0.097c6.652-0.386,12.342-1.929,18.418-2.604c6.172-1.929,12.344-4.147,18.516-6.076
			c1.639-1.06,3.568-1.929,5.689-2.699c0.578,0,1.639-1.062,1.928-0.675C1212.34,774.177,1213.014,774.177,1212.051,774.658z"/>
		<path style="fill:#17192D;" d="M1207.131,740.424c0.098,0.289,0.098,0.676,0,0.965c-0.578,0.289-0.963,0.385-1.734,0.578
			c-0.482,0.097-0.965,0.097-1.447,0.097c-1.736,0.386-2.797,0.578-4.629,1.157c-0.385,0.192-0.578,0.386-0.963,0.578
			c-0.482,0-0.676-0.097-1.158-0.097c-2.025-0.096-4.725,0.676-5.207,0.482c-4.822,0.868-4.146,1.254-9.645,1.543
			c-3.953,0.192-6.846,0.579-10.51,0.965c0,1.929-1.254,3.761-1.543,5.496c-0.098,0.965-0.193,1.446-0.387,2.411
			c-0.385,1.253-1.156,1.832-0.965,3.182c0,2.701,0.193,0.869-1.35,3.568c-0.191,0.289-0.289,0.675-1.35,2.121
			c2.314-0.192,3.086-0.385,4.146-0.578c1.447,0.965,4.051,0.097,6.365,0.193c6.074,0.289,11.861-0.579,17.357-0.289
			c5.111,0.192,10.125-0.772,14.658-0.29c0.096,0.29,0.096,0.675,0.096,1.061c-0.385,2.314-3.086,0.579-4.146,1.062
			c-4.822,0.386-9.258,0.386-14.658,0.386c-6.557,0.192-13.113-0.386-19.768,0.096c-4.533,0.386-8.486-0.289-12.633,0.482
			c-7.041-1.157-14.176,2.314-21.119,0.676c-1.736-0.097-3.473,0.578-5.207,0.096c-0.867-0.482-3.955-0.192-2.314-1.543
			c5.4-0.578,10.992,0.097,16.49-0.097c8.1-0.385,3.182-0.771,5.303-0.964c2.797-0.29,4.436-0.193,7.33-0.193
			c2.604,0,4.049,0.29,6.846,0c0.58-1.35,0.965-2.121,1.543-3.278c1.254-2.411,0.387,0.964,0.965-3.568
			c0.193-1.446,0.289-1.832,0.289-3.278c0-1.254,0.578-1.832,0.867-3.086c0.289-0.868,0.193-1.832,0.387-3.472
			c-1.254,0-1.639,0.097-2.219,0.097c-2.025-0.579-4.82,1.446-6.652-0.289c-2.314-0.193-3.568-0.386-5.498,0.386
			c-1.35-0.097-2.797-0.289-4.531-0.482c-0.387-0.193-0.965,0.289-1.352,0.289c-1.543,0.868-2.506-1.639-3.953-0.482
			c-0.674,0-1.35,0.676-2.025-0.289c-3.182,0.868-5.689,0.579-8.389-1.157c-0.869,0.386-1.254-0.192-1.641-0.675
			c-0.096-0.097-0.191-0.289-0.096-0.482c0.289-0.771,0.771,0.386,0.965,0.289c0,0,0.578,0.482,1.156-0.096
			c0.578-0.482,1.061,0.771,1.641,0.481c3.664,0.868,7.617,0.868,11.379,0.387c3.664,0.867,9.064,0,12.535,0.867
			c0.869-0.097,1.641-0.771,2.99,0c1.156-1.254,2.604-0.289,3.471-0.867c4.438-0.097,8.969-0.482,13.404-0.579
			c4.34,0,2.895-0.675,6.172-1.157c0.676,0.193,1.736-0.289,2.219,0.097c1.254-0.193,2.41-0.193,3.664-0.386
			c2.604-0.386,6.172-0.579,8.486-1.157c0.385,0.192,0.867-0.097,1.543-0.868c-0.387-0.868,0.674-0.386,0.674-0.579
			C1204.047,739.846,1205.492,740.81,1207.131,740.424z"/>
		<path style="fill:#17192D;" d="M1204.432,729.046c0.289,0.096,0.482,0.193,0.676,0.386c-0.869,2.218-3.473,0.965-5.498,1.543
			c-1.734,0.289-3.375,0-5.109,0.096c-4.727,0.098-9.451-0.096-13.984,0c-2.41,0-5.592,0.193-8.1-0.096
			c-1.639-0.193-3.664,0-5.305,0.096c-3.953,0.387-7.713,0-11.861,0.29c-0.191-0.192-0.385-0.192-0.578-0.192
			c-1.736,0.867-3.664,0.096-5.303,0.385c-3.955,0.193-7.715,0.579-11.572,0.579c-2.701-1.157-5.496,0.578-8.293-0.097
			c-0.387-0.097,0.578-1.156,0.867-1.156c4.244-2.894,9.16,1.156,13.887-0.193c5.594-1.544,11.861-0.965,17.357-1.254
			c5.496-0.29,10.705,0.192,16.297,0c1.543-0.192,3.086-0.192,4.727-0.192c0.385,0,0.867,0.096,1.252,0.096
			c4.244-0.096,8.486-0.096,12.248-0.675C1199.031,729.432,1201.441,728.95,1204.432,729.046z"/>
		<path style="fill:#17192D;" d="M1138.762,712.653c1.445,0.193,2.41,1.64,4.049,1.64c3.086,1.543,5.979,2.314,9.74,2.507
			c0.578,0.29,1.543,0.386,2.217,0.58c2.123,0.192,4.051,1.156,6.076,1.156c1.254,0.386,2.99-0.289,4.146,1.254
			c1.543-0.386,2.701-0.771,3.664-1.254c0.387-0.771,1.447-1.736,1.352-2.797c0.674-1.061,0.096-1.928,0.578-3.278
			c0.578-1.832,0.578-2.894,1.543-4.821c0.482-0.386,0.965-0.771,1.543-0.676c0.385,0.965,0,2.122,0,3.279
			c-1.254,2.507-1.061,3.857-1.93,7.137c0.771,0.481,0.482,0.867,0.771,1.06c2.412,0.387,5.016,0.097,7.041-0.385
			c1.254,0.192,2.314-0.29,4.242-0.29c0.385-1.157,1.254-0.289,1.832-0.579c3.473-0.288,6.559-2.217,10.125-2.41
			c1.543-1.351,4.146-1.157,5.689-2.314c1.832,0.192,2.797-2.218,5.111-1.64c1.158-0.867,2.219-1.929,3.666-1.929
			c0.385,0.29,0.77,0.579,1.156,0.965c-0.193,1.446-1.832,1.543-2.893,2.314c-1.641,0.192-3.184,0.578-4.34,1.64
			c-2.121-0.097-3.375,1.735-5.4,1.64c-0.771,0.481-1.543,0.578-2.121,0.964c-0.771-0.097-1.447,0.192-2.025,0.482
			c-4.436,0-7.908,2.893-12.344,2.604c-0.578,0.386-1.639,0.386-2.219,0.482c-4.725,1.639-10.221,1.35-15.043,1.254
			c-2.217-0.58-4.918,0-6.846-0.965c-5.979-1.062-11.766-3.473-17.455-5.015c-2.699-1.061-5.207-2.7-7.715-4.051
			c-2.797-1.542-6.074-2.603-8.1-5.399c0-0.193,0-0.482,0.193-0.578C1129.406,708.025,1133.939,710.532,1138.762,712.653z"/>
		<path style="fill:#17192D;" d="M1199.996,676.009c-1.158,0.868-2.701,1.447-3.857,2.411c-4.725,1.35-9.836,2.604-14.947,2.604
			c-3.664,0.579-7.426,1.351-10.994,2.219c-1.928-0.193-4.146-0.579-6.363-0.097c-0.289,0.771-0.289,1.061-1.447,1.35
			c1.061,2.797,3.279,4.726,4.34,6.751c0.578,0.289,1.156,1.061,0.965,1.735c-0.387,1.157,0.191,1.157,0.867,1.832
			c0.867,0,1.639,0.097,2.41,0.482c2.025-0.675,3.568-0.675,5.207-0.097c1.834,1.061,3.377,0.289,5.4,0
			c3.857-0.578,7.523-1.446,11.477-1.64c3.086-0.096,6.172-0.096,9.451-0.096c0.289,0.096,0.578,0.192,0.48,0.482
			c0,0.288-0.385,0.578-0.674,0.675c-4.822,0.289-9.451,0.482-13.693,1.832c-3.184-0.096-5.787,0.868-8.775,0.578
			c-7.137-0.674-14.658,0-21.408,0.868c-2.99-0.675-5.305,0.579-8.197,0.386c-7.521-0.579-15.332-0.579-21.986-2.797
			c-0.965-0.289-0.482-1.061-0.965-1.735c0.096-0.289,0.578,0,0.771-0.097c2.314,0.482,4.34,1.543,6.654,1.447
			c0.096,0.096,0.096,0.096,0.193,0.192c3.953-0.192,7.617,1.062,11.09,0.867c2.604,1.447,5.496-0.386,8.293,0.097
			c3.568,0.579,6.557-0.675,10.029-1.156c0.48-0.387,1.156-0.772,1.832-1.544c-1.158-3.086-4.727-5.015-5.111-7.521
			c0.482,0-0.676-0.771-0.193-2.314c-2.988-0.867-5.4,0.289-7.617-0.771c-1.834-0.482-3.666,0.482-5.594-0.578
			c-2.604,1.253-4.918,0.096-7.426,0.289c-1.445-1.254-2.025,1.253-3.76,0.097c-1.641,0.482-3.857,0.771-5.209,0
			c0.098-0.386,0.098-0.676,0-1.061c1.447-0.868,3.473,0.289,4.92-0.868c2.121-0.193,3.664,0.964,5.785,0.578
			c6.172-1.157,13.018,0.193,19.287-0.192c4.34-0.193,9.064,0.482,13.211-0.965c6.557-1.061,13.404-1.929,19.576-3.182
			c1.543-0.965,3.375-2.025,5.303-1.929C1199.609,675.431,1199.898,675.624,1199.996,676.009z"/>
		<path style="fill:#17192D;" d="M1122.174,648.333c0.193,1.64,0.869,2.796,1.158,4.532c-0.578,2.604-0.098,4.918,0.867,8.1
			c1.35-0.674,2.314-0.481,2.797-0.289c1.832-0.192,4.146,0.289,5.979,0.193c1.736-0.386,3.857-0.578,5.594-0.578
			c2.699-1.351,6.074-1.736,8.775-2.314c1.543,0.386,3.375,0,4.822,0.192c6.557,0,13.307-1.64,19.479-2.507
			c1.156,0.096,2.893-0.193,3.953,0.096c0.193-0.096,0.676-0.096,0.771-0.192c4.822-0.193,8.68-0.29,13.502-0.29
			c2.217,0,4.146,0.387,6.17,0.482h-0.096c-2.508,1.832-5.979,1.157-8.678,1.736c-3.955-0.965-8.102,1.061-12.344-0.579
			c-2.508,2.604-5.498,0.579-8.102,1.447c-2.41-0.29-5.303-0.193-7.328,1.061c-0.965-0.097-1.832,0.289-3.182-0.193
			c-2.314,1.351-5.209,0.676-7.619,0.676c-3.953-0.868-7.137,1.735-10.896,1.253c-2.701,1.351-5.787,1.157-8.873,1.157
			c-0.963-1.061-2.506-0.097-4.436-2.218c-0.674,4.243-0.289,6.75-0.482,9.354c0.482,2.025-0.289,4.244,0,6.462
			c-0.096,0.096-0.096,0.192-0.191,0.289c-0.771-0.097-0.965-0.965-1.254-1.543c0.578-1.929,0.482-3.857,0-5.786
			c-0.387-0.482,0-1.35,0.096-2.314c-1.061-1.446-0.193-3.568-0.965-4.918c0.482-1.543-0.191-3.183-0.096-4.726
			c-0.867-1.543,0.289-3.568-0.578-5.11c0-1.351-1.832-2.7-0.289-3.761c0.096-0.097,0.289-0.193,0.482-0.29
			C1121.596,647.851,1122.078,647.948,1122.174,648.333z"/>
		<path style="fill:#17192D;" d="M1204.432,611.496c0.289,0.097,0.482,0.192,0.676,0.386c-0.869,2.218-3.473,0.965-5.498,1.543
			c-1.734,0.289-3.375,0-5.109,0.097c-4.727,0.096-9.451-0.097-13.984,0c-2.41,0-5.592,0.192-8.1-0.097
			c-1.639-0.192-3.664,0-5.305,0.097c-3.953,0.385-7.713,0-11.861,0.289c-0.191-0.193-0.385-0.193-0.578-0.193
			c-1.736,0.868-3.664,0.097-5.303,0.386c-3.955,0.193-7.715,0.579-11.572,0.579c-2.701-1.157-5.496,0.579-8.293-0.097
			c-0.387-0.097,0.578-1.157,0.867-1.157c4.244-2.893,9.16,1.157,13.887-0.192c5.594-1.543,11.861-0.965,17.357-1.254
			s10.705,0.192,16.297,0c1.543-0.193,3.086-0.193,4.727-0.193c0.385,0,0.867,0.097,1.252,0.097
			c4.244-0.097,8.486-0.097,12.248-0.675C1199.031,611.881,1201.441,611.399,1204.432,611.496z"/>
		<path style="fill:#17192D;" d="M1141.461,584.11c1.061,0,2.604-0.097,3.76-0.193c2.799-1.735,7.137,0,10.416,0.386
			c2.025-1.157,5.4-0.481,7.521-0.675c3.086-0.771,7.137,0.193,10.705,0.193c6.268,0,13.5-0.193,19.768-0.482
			c0.965-0.097,1.93-0.676,2.797-0.29c0.096,0.097,0.193-0.096,0.289-0.096c-2.217,1.446-4.918,1.543-7.137,2.507
			c-3.182,2.797-6.846,4.243-10.221,6.365c-4.051,1.832-8.197,3.182-11.861,5.979c-1.158,0.578-2.219,1.254-3.375,1.832
			l-2.797,1.351l3.182,0.192c7.521,0.482,14.562-1.351,22.277-0.289c3.086,0,5.979-1.254,8.967-0.676c0.771-0.096,1.736,0,2.412,0
			c-0.098,0.193,0,0.579-0.098,0.676c-0.771,0-1.445,0.192-2.121,0.675c-0.771,0.386-1.736,0.386-2.604,0.578
			c-2.604,0.29-5.207-0.096-7.811,0.482c-7.041,0.193-13.887-0.675-20.734,0.097c-3.182-0.579-6.363,1.061-9.449,0.193
			c-2.025,0.481-4.629-0.579-6.172,0.578c-4.629-0.482-9.162-1.254-13.982-1.254c-1.061-0.386-2.701,0-3.184-1.157
			c-0.096-0.096,0.58-1.061,0.58-0.578c5.207-1.351,9.643,1.735,15.621,1.061c3.086-0.386,6.268,0,9.547-0.965
			c0.965-1.35,2.412-1.253,3.473-2.121c1.928-0.289,3.857-0.771,5.109-2.122c4.92-2.41,9.934-3.278,13.887-6.846
			c1.158-0.482,2.314-1.062,3.568-2.122c0-0.289,2.797-1.543,2.797-1.832c-0.096-0.192-2.99,0.482-2.99,0.097
			c-3.76,0-7.232-0.676-10.221,0.386c-5.4-1.351-10.994-1.447-16.779-0.193c-4.146-0.481-8.391-1.061-12.439-0.289
			c-3.377-1.446-7.137,1.543-10.223-1.157c-0.289-0.868-1.832-0.578-1.736-1.64C1135.482,582.181,1138.279,584.013,1141.461,584.11z
			"/>
		<path style="fill:#17192D;" d="M1172.705,531.747c3.762,0.29,7.619,1.157,11.668,1.64c4.918,0.579,10.029,1.157,14.658,3.472
			c2.41,2.41,5.4,3.664,7.33,6.847c0.289,1.735,1.541,1.446,0.963,3.568c0.098,0.289-0.193,0-0.193-0.387
			c-2.217,0.097-1.156-0.481-2.795-2.699c-2.508,0.771-4.34-0.386-6.172,0.386c-7.715-0.482-14.369,0-21.891,0.771
			c-1.832,0.867-4.146,0.867-6.268,0.578c-1.352-0.482-2.797,0.482-4.436,0.193c-5.016-0.289-10.609-0.289-15.527,0.386
			c-3.664-0.193-7.232,0-10.992,0.385c-1.447-0.289-3.086-0.771-5.111-0.192c-0.578,1.351-1.254,1.062-0.771,2.218
			c-0.193,0.193-0.387,0.482-0.676,0.676c-0.289-0.097-0.578,0-0.867-0.29c0.385-2.796,2.217-4.34,3.953-6.461
			c3.375-3.086,7.715-4.532,11.379-7.521c2.412-1.543,4.918-1.736,7.521-2.797c3.279-0.481,6.943-0.289,10.127-0.964
			C1167.305,532.229,1169.908,532.037,1172.705,531.747z M1157.469,534.158c-3.76-0.192-6.365,1.543-9.932,2.604
			c-0.193,0.192-1.062,1.061-1.543,1.351c-2.701,1.929-5.883,2.796-8.777,6.653c3.473-0.289,5.209,0.965,6.848,0.289
			c2.41,0.29,4.533-0.964,6.943-1.061c3.471,1.061,7.232,0.193,10.801,0.675c3.279,0.386,6.846-0.386,10.221-0.578
			c5.98-2.314,12.924-0.675,19.096-1.351c2.988,0,6.459-0.481,11.186,0.097c-1.832-3.857-5.111-4.532-7.33-5.786
			c-5.689-1.543-11.379-2.507-17.26-3.085c-1.158-0.193-2.604,0.289-3.666-0.387
			C1168.752,533.868,1162.387,532.037,1157.469,534.158z"/>
		<path style="fill:#17192D;" d="M1138.762,516.221c1.445,0.193,2.41,1.64,4.049,1.64c3.086,1.543,5.979,2.314,9.74,2.507
			c0.578,0.29,1.543,0.386,2.217,0.579c2.123,0.193,4.051,1.157,6.076,1.157c1.254,0.386,2.99-0.289,4.146,1.254
			c1.543-0.386,2.701-0.771,3.664-1.254c0.387-0.771,1.447-1.736,1.352-2.797c0.674-1.061,0.096-1.928,0.578-3.278
			c0.578-1.832,0.578-2.894,1.543-4.821c0.482-0.387,0.965-0.771,1.543-0.676c0.385,0.965,0,2.122,0,3.279
			c-1.254,2.507-1.061,3.857-1.93,7.136c0.771,0.482,0.482,0.868,0.771,1.061c2.412,0.386,5.016,0.097,7.041-0.386
			c1.254,0.193,2.314-0.289,4.242-0.289c0.385-1.157,1.254-0.289,1.832-0.579c3.473-0.289,6.559-2.218,10.125-2.41
			c1.543-1.351,4.146-1.157,5.689-2.314c1.832,0.192,2.797-2.218,5.111-1.64c1.158-0.867,2.219-1.929,3.666-1.929
			c0.385,0.289,0.77,0.579,1.156,0.965c-0.193,1.446-1.832,1.543-2.893,2.314c-1.641,0.192-3.184,0.578-4.34,1.64
			c-2.121-0.097-3.375,1.735-5.4,1.639c-0.771,0.482-1.543,0.579-2.121,0.965c-0.771-0.097-1.447,0.192-2.025,0.481
			c-4.436,0-7.908,2.894-12.344,2.604c-0.578,0.386-1.639,0.386-2.219,0.481c-4.725,1.64-10.221,1.351-15.043,1.254
			c-2.217-0.579-4.918,0-6.846-0.964c-5.979-1.062-11.766-3.473-17.455-5.015c-2.699-1.061-5.207-2.7-7.715-4.051
			c-2.797-1.543-6.074-2.604-8.1-5.4c0-0.192,0-0.482,0.193-0.578C1129.406,511.593,1133.939,514.1,1138.762,516.221z"/>
		<path style="fill:#17192D;" d="M1200.574,476.974c0.193,0.482,1.736,0.482,1.156,1.254c-2.699,1.833-6.363-0.193-9.256,1.351
			c-9.74,2.989-20.059,0.771-29.992,2.12c-5.785,0.772-11.186,0.772-16.875,1.929l-3.279-0.096l-0.096,0.386l3.279,1.447
			c3.76,0.771,8.582,0.867,12.15,1.735c3.375,0.867,6.268,0.965,9.547,1.929c3.568,0.675,7.039,0.289,11.09,0.385
			c0.289,0.193,0.771,0.098,0.965,0.387c-5.111,2.121-11.381,0.675-16.684,2.218c-1.447,1.253-3.857,0.868-5.594,1.64
			c-6.172,0-12.055,2.121-17.84,2.41c-0.674,0.579-1.832,0.676-2.797,1.061c0,0.387-2.604,0.965-2.508,1.157
			c0.098,0.29,3.086,0.193,3.184,0.676c9.547,1.446,18.225,0,27,1.061c5.4-2.025,10.994,1.157,16.201-0.578
			c6.172-2.026,13.115,0.289,18.611-1.833c1.641,0,3.375-0.867,4.822,0c1.736,0.097,4.629-1.64,5.979,0.193
			c0,0.192,0.193,0.096,0.289,0.192c-1.35,0.868-3.471,0.193-4.725,0.386c-7.328,1.832-15.043,2.314-22.662,3.472
			c-3.086,0-6.172,0.482-9.064-0.386c-3.76,0.097-7.617,0.386-11.572-0.289c-9.16-0.289-17.551,1.543-26.133-0.965
			c-3.182-0.964-6.268,0-9.064-0.675c0-0.578-2.121,0.482-1.639-0.385c0.578-0.29,0.963-1.255,2.023-1.447
			c4.34-2.41,10.029-1.736,14.852-3.472c5.883-1.061,12.535-1.735,18.611-3.183l3.182-0.771v-0.387l-3.182-0.578
			c-3.953-0.675-7.715-1.253-11.668-1.735c-4.822-2.218-10.512-2.026-15.334-4.146c-0.289-0.29-0.771-0.482-1.156-0.676
			c0.771-1.157,3.086-0.097,4.242-0.192c4.051-2.122,8.582-0.482,13.02-1.64c10.125-1.061,17.646-0.482,27.58-1.35
			c2.314-0.676,5.883-0.676,8.486-1.062c4.627-0.675,9.547,1.157,13.018-1.735C1199.418,476.299,1199.996,476.493,1200.574,476.974z
			"/>
		<path style="fill:#17192D;" d="M1204.914,432.519c-0.965,2.121-3.279,2.314-4.918,3.472c-2.219,1.157-4.629,2.313-7.137,2.604
			c-0.674,0.386-1.639,0.482-2.41,0.578c-6.461,1.158-12.729,3.762-19.48,3.954c-4.629,0.964-9.738,0.482-14.754,0.386
			c-4.146,0-9.449-1.157-13.596-2.989c-2.025-0.482-4.244-1.254-5.691-2.508c-2.121-0.578-3.76-2.121-5.592-3.278
			c-0.387-0.675-0.867-1.35-0.867-2.025c0-0.096-0.098-0.192-0.098-0.192c1.93,0.481,3.762,1.929,5.689,3.086
			c1.543,0.868,2.412,2.025,4.051,2.41c2.797,0.579,5.014,2.508,7.908,2.315c5.303,1.35,11.088,1.253,17.453,0.867
			c-0.965-2.218,0.676-3.086-0.096-4.436c0.096-0.579,0.193-0.965,0.385-1.351c0.289-0.289,0.482-0.578,0.867-0.289
			c0.193,0.193,0.291,0.289,0.482,0.482c-0.191,0.578,0.193,0.964,0.482,1.253c-0.289,1.254,0,2.508-0.191,4.051
			c4.725,0.482,7.906-0.868,11.764-1.061c1.641-0.771,4.146-0.964,6.172-1.544c1.832-0.578,4.051-0.578,5.787-1.639
			c1.445,0.192,3.084-0.29,4.242-1.736c2.508,0.098,4.436-1.735,7.328-2.313c0-0.771,0-0.482,0-0.482
			c0.482-0.193,1.447-1.254,2.604-0.868C1205.203,431.748,1205.107,432.133,1204.914,432.519z"/>
		<path style="fill:#17192D;" d="M1204.432,419.597c0.289,0.097,0.482,0.193,0.676,0.387c-0.869,2.218-3.473,0.964-5.498,1.542
			c-1.734,0.29-3.375,0-5.109,0.097c-4.727,0.097-9.451-0.097-13.984,0c-2.41,0-5.592,0.193-8.1-0.097
			c-1.639-0.192-3.664,0-5.305,0.097c-3.953,0.386-7.713,0-11.861,0.29c-0.191-0.193-0.385-0.193-0.578-0.193
			c-1.736,0.868-3.664,0.097-5.303,0.386c-3.955,0.193-7.715,0.579-11.572,0.579c-2.701-1.158-5.496,0.578-8.293-0.097
			c-0.387-0.097,0.578-1.157,0.867-1.157c4.244-2.894,9.16,1.157,13.887-0.192c5.594-1.544,11.861-0.965,17.357-1.254
			c5.496-0.29,10.705,0.192,16.297,0c1.543-0.193,3.086-0.193,4.727-0.193c0.385,0,0.867,0.097,1.252,0.097
			c4.244-0.097,8.486-0.097,12.248-0.676C1199.031,419.984,1201.441,419.501,1204.432,419.597z"/>
		<path style="fill:#17192D;" d="M1207.613,381.701c-7.617,3.375-14.176,7.811-20.828,12.246c-0.58,0.29-0.771,1.062-2.025,1.062
			c-3.086,3.086-6.943,3.375-9.74,6.172c-2.508,1.254-5.303,2.7-8.197,4.918c0.387,0.289,1.061,0.578,1.35,0.771
			c2.025,0.964,4.051,0.192,5.883,0.289c5.787,0.192,11.09-0.771,16.201-0.868c4.918,0,9.451-1.157,13.791-0.675
			c0.096,0.193,0.096,0.482,0.096,0.868c-0.289,2.218-2.797,0.675-3.857,1.061c-4.629,0.579-8.68,0.675-13.693,0.868
			c-6.172,0.386-12.248,0.097-18.42,0.771c-4.146,0.386-7.906,0-11.859,0.868c-6.559-0.772-13.213,2.604-19.77,1.253
			c-1.543,0-3.086,0.771-4.725,0.386c-0.676-0.482-3.762,0.097-2.219-1.35c5.016-0.771,10.223,0,15.332-0.676
			c7.715-0.289,15.912-0.771,21.602-5.689c0.965-0.289,1.736-0.964,2.41-1.446c2.412-1.446,5.016-2.507,7.041-4.629
			c2.025-0.675,3.857-1.832,5.496-2.989c2.893-2.893,6.75-3.953,9.934-6.172c0-0.386,0.289-0.289,0.48-0.386
			c0.869-0.386,1.543-1.157,2.605-1.929c0-0.386,2.795-0.964,2.699-1.253s-3.279-0.193-3.568-0.386
			c-4.436,0.964-9.932,1.35-15.043,1.832c-5.496,0.482-9.162,1.543-14.369,1.639c-1.832-0.386-4.436,1.447-6.268-0.096
			c-2.025,0-3.184-0.097-4.822,0.482c-1.445,0-2.893-0.193-4.629-0.193c-0.385-0.097-0.771,0.289-1.156,0.289
			c-1.641,1.061-2.508-1.446-3.762-0.289c-0.578,0.193-1.156,0.675-1.734-0.193c-3.086,0.868-5.498,0.387-8.102-1.061
			c-0.867,0.386-1.156-0.096-1.543-0.385c0-0.097,0-0.193,0-0.29c0.289-0.675,0.867,0.29,0.867,0.193c0,0,0.58,0.481,1.158-0.097
			c0.387-0.579,1.254,0.675,1.447,0.386c3.277,0.771,7.135,0.578,10.799,0.097c3.377,0.578,8.486-0.386,11.67,0.289
			c0.674-0.097,1.543-0.675,2.699-0.289c1.061-0.965,2.508-0.097,3.279-0.676c4.049-0.289,8.389-0.964,12.535-0.964
			c3.955-0.386,8.295-0.771,11.477-1.254c0.676,0.193,1.445-0.386,2.121,0.097c1.639-0.386,2.314-0.386,3.568-0.579
			c2.508-0.481,5.689-0.867,7.906-1.35c0.387,0,0.869-0.29,1.447-0.964c-0.482-0.868,0.578-0.482,0.676-0.482
			c0.867-0.386,2.314,0.386,3.76-0.097C1207.613,381.122,1207.711,381.412,1207.613,381.701z"/>
		<path style="fill:#17192D;" d="M1138.762,365.79c1.445,0.194,2.41,1.641,4.049,1.641c3.086,1.542,5.979,2.313,9.74,2.506
			c0.578,0.29,1.543,0.386,2.217,0.579c2.123,0.193,4.051,1.157,6.076,1.157c1.254,0.386,2.99-0.289,4.146,1.254
			c1.543-0.386,2.701-0.771,3.664-1.254c0.387-0.771,1.447-1.736,1.352-2.797c0.674-1.061,0.096-1.928,0.578-3.279
			c0.578-1.831,0.578-2.893,1.543-4.82c0.482-0.387,0.965-0.771,1.543-0.676c0.385,0.965,0,2.122,0,3.279
			c-1.254,2.507-1.061,3.857-1.93,7.136c0.771,0.482,0.482,0.868,0.771,1.061c2.412,0.386,5.016,0.097,7.041-0.385
			c1.254,0.192,2.314-0.29,4.242-0.29c0.385-1.157,1.254-0.289,1.832-0.579c3.473-0.289,6.559-2.218,10.125-2.409
			c1.543-1.352,4.146-1.158,5.689-2.316c1.832,0.193,2.797-2.217,5.111-1.639c1.158-0.867,2.219-1.929,3.666-1.929
			c0.385,0.289,0.77,0.579,1.156,0.965c-0.193,1.446-1.832,1.543-2.893,2.314c-1.641,0.193-3.184,0.578-4.34,1.64
			c-2.121-0.097-3.375,1.735-5.4,1.639c-0.771,0.482-1.543,0.579-2.121,0.965c-0.771-0.097-1.447,0.192-2.025,0.481
			c-4.436,0-7.908,2.894-12.344,2.604c-0.578,0.386-1.639,0.386-2.219,0.481c-4.725,1.64-10.221,1.351-15.043,1.254
			c-2.217-0.579-4.918,0-6.846-0.964c-5.979-1.062-11.766-3.473-17.455-5.016c-2.699-1.06-5.207-2.699-7.715-4.05
			c-2.797-1.543-6.074-2.604-8.1-5.4c0-0.192,0-0.482,0.193-0.578C1129.406,361.162,1133.939,363.667,1138.762,365.79z"/>
		<path style="fill:#17192D;" d="M1141.461,332.329c1.061,0,2.604-0.097,3.76-0.192c2.799-1.736,7.137,0,10.416,0.386
			c2.025-1.158,5.4-0.482,7.521-0.676c3.086-0.771,7.137,0.193,10.705,0.193c6.268,0,13.5-0.193,19.768-0.482
			c0.965-0.097,1.93-0.675,2.797-0.29c0.096,0.097,0.193-0.096,0.289-0.096c-2.217,1.446-4.918,1.543-7.137,2.507
			c-3.182,2.797-6.846,4.243-10.221,6.365c-4.051,1.832-8.197,3.182-11.861,5.978c-1.158,0.579-2.219,1.255-3.375,1.833
			l-2.797,1.351l3.182,0.192c7.521,0.481,14.562-1.35,22.277-0.289c3.086,0,5.979-1.254,8.967-0.676c0.771-0.096,1.736,0,2.412,0
			c-0.098,0.193,0,0.579-0.098,0.676c-0.771,0-1.445,0.192-2.121,0.675c-0.771,0.386-1.736,0.386-2.604,0.578
			c-2.604,0.29-5.207-0.096-7.811,0.482c-7.041,0.193-13.887-0.675-20.734,0.097c-3.182-0.579-6.363,1.062-9.449,0.193
			c-2.025,0.482-4.629-0.579-6.172,0.578c-4.629-0.482-9.162-1.254-13.982-1.254c-1.061-0.385-2.701,0-3.184-1.157
			c-0.096-0.096,0.58-1.061,0.58-0.578c5.207-1.351,9.643,1.735,15.621,1.061c3.086-0.386,6.268,0,9.547-0.964
			c0.965-1.351,2.412-1.254,3.473-2.122c1.928-0.289,3.857-0.771,5.109-2.122c4.92-2.411,9.934-3.278,13.887-6.846
			c1.158-0.482,2.314-1.061,3.568-2.122c0-0.289,2.797-1.543,2.797-1.832c-0.096-0.193-2.99,0.482-2.99,0.097
			c-3.76,0-7.232-0.676-10.221,0.386c-5.4-1.351-10.994-1.446-16.779-0.193c-4.146-0.482-8.391-1.061-12.439-0.289
			c-3.377-1.446-7.137,1.543-10.223-1.157c-0.289-0.868-1.832-0.578-1.736-1.64C1135.482,330.4,1138.279,332.232,1141.461,332.329z"
			/>
		<path style="fill:#17192D;" d="M1129.793,272.155c5.689,0.289,11.09,2.314,16.682,4.05c3.857,0.579,8.102,0.868,11.572,2.411
			c3.955,0.386,7.33,1.254,11.379,1.446c2.123,0.097,4.34-0.386,5.98,0.771c4.531,0.965,9.064,1.833,13.307,3.376
			c4.436,2.313,10.029,1.639,14.369,4.725l-0.289-0.386c-7.137,1.929-14.176,3.857-21.506,4.726
			c-4.629-1.157-8.967,0.964-13.693,0.579c-8.195,1.542-16.201,1.831-24.301,2.699c-1.928-0.771-4.146,0.193-6.172,0.578
			c-1.156,0.193-2.699,0.098-3.664-0.578c0.289-1.929,3.182-0.578,4.34-1.061c5.689,0.578,10.992-2.025,16.49-1.543
			c2.795-0.096,5.303-0.096,8.293-0.578c0.385-0.482,0.771-0.482,1.061-0.579c5.785-0.482,12.246-0.867,17.744-1.254
			c4.049-1.64,8.389-2.314,12.922-2.796l0.096-1.351c-8.389-2.796-17.068-5.015-25.939-6.075c-4.438,0.192-8.197-0.868-12.15-1.446
			c-5.98-2.797-13.502-1.446-19.191-4.726c-3.664,0-7.328-2.024-10.801-2.507c-0.096,0,0.291-0.482,0.676-0.771
			C1127.961,271.769,1128.828,272.637,1129.793,272.155z"/>
		<path style="fill:#17192D;" d="M1207.422,235.897c2.41,0.289,4.049-0.289,4.629,0.867c0,0.097-0.098,0.29-0.098,0.386
			c-3.568,2.025-8.197,1.158-12.344,2.315c-7.328,1.061-14.85,1.639-21.6,3.375c-1.543,2.121-3.279,5.014-2.219,7.811
			c0.096,0.097-0.289,0-0.674,0.675c0.674,0.965-0.387,1.351-0.387,2.122c-0.387,1.832-0.193,4.146-0.965,7.329
			c5.594,1.253,10.896,1.157,15.525,2.411c3.377,0.964,8.102-0.579,11.477,1.156c1.254,0,2.797-0.192,3.664,0.868
			c0.193,0.482-0.676,0.482-1.061,0.482c-3.953-0.676-6.943-0.386-10.703-0.868c-4.438-1.929-11.188-0.29-16.01-2.218
			c-1.734,0-4.436,0.481-5.785-0.482c-4.533-1.061-9.934,0.289-14.176-1.736c-7.908,0.29-14.465-2.988-22.564-2.988
			c-0.387-0.387-0.387-1.061-1.254-1.158c-2.314-0.771-5.305,0.676-6.75-1.253c0.578-1.061,2.121-0.578,3.277-1.446
			c9.74-2.122,18.709-6.364,28.641-8.197c2.797-1.35,6.27-1.736,9.355-2.989c1.061-0.097,2.121-0.289,3.084,0.097
			c1.93-0.579,4.051-1.254,6.172-1.254c4.533-0.097,8.584-2.218,13.309-1.833c1.447-0.867,3.664-0.192,5.207-0.675
			c2.99-0.289,6.076-1.061,8.873-1.832c0.578-0.289,0.867-0.481,0.963-0.675c0.869-0.386,0.965-0.386,1.641-0.289
			C1206.65,235.993,1207.422,235.704,1207.422,235.897z M1170.969,243.708c-4.82,2.122-10.414,2.122-15.428,3.568
			c-5.883,1.639-11.379,4.918-18.033,6.172c0,1.639,0.674,2.218,1.832,2.314c2.699,0.964,5.207,2.025,8.293,2.41
			c5.689,0.771,12.344,0.29,17.744,1.64c1.445,0,3.566,0,5.496,0.578c0.965-1.157,1.061-2.313,1.928-2.893
			c0-1.156,0.291-2.024,0.387-2.893c0.193-1.447,0.193-2.797,0.482-3.857c0.482-1.833,0.771-2.507,0.965-4.05
			C1177.238,242.165,1172.705,243.804,1170.969,243.708z"/>
		<path style="fill:#17192D;" d="M1199.514,214.199c-0.289,2.025,0.096,3.761,0.771,5.4c-0.096,0.482-0.482,0.964-0.771,1.062
			c-1.254,1.831,1.158,5.11-2.025,6.074c-1.061,0.29-2.217-0.192-3.086,0.579c-3.375,1.253-4.436,0.289-7.715,0.579
			c-2.893,0.192-6.363-1.255-9.16,0c-1.543,0-2.797-0.579-4.146-0.772c-3.664,1.351-7.811-0.674-11.668,0.29
			c-2.797,0.192-5.016-0.964-7.812,0.289c-0.578,0.097-1.061,0.097-1.543,0.289c-5.689,0-11.572-0.578-17.164,0.097
			c-2.797,0-5.498-0.097-8.004-1.447c-0.482-0.386,0.096-0.964,0.578-1.156c0.676,0,1.639-0.193,2.701,0.675
			c2.023-0.868,3.855,0.096,5.592-0.289c1.447,0.385,3.086,0.481,4.629,0.097c3.279-1.929,6.75,0.288,10.125,0.192
			c3.279-0.097,6.559-1.351,9.934-0.965c3.471,0.482,7.521,0.772,11.09,0.387c1.156-0.387,2.506,0.192,3.568-0.193
			c1.061,0.193,2.506,0.097,3.471,0.771c1.35-0.192,2.99-0.482,4.34-0.868c0.771,0.386,1.928,0.29,2.604,0.482
			c3.664,0.289,4.436,0.771,7.811-0.386c2.219,0.771,1.35-1.543,3.279-2.025c1.254-0.482,0.578-1.061,0.578-1.735
			c-0.289-1.543,1.254-2.701,0.578-4.051c-0.482-1.253-0.096-2.893-1.061-4.243c-0.096-0.385-0.096-0.867,0.387-0.867
			C1198.646,212.174,1198.838,213.428,1199.514,214.199z"/>
		<path style="fill:#17192D;" d="M1175.02,183.726c3.568-0.289,6.268,1.157,9.547,1.929c0.676,0.579,1.35,0.579,1.35,0.482
			c0.193,0.097,1.447,0.385,2.508,0.964l0.289,0.098c1.447,0.77,1.543,0.674,2.604,0.77c1.736,1.159,3.955,1.351,5.4,2.411
			c2.893,2.123,7.137,4.147,9.74,7.232c1.832,2.315,3.664,3.568,5.303,5.884c0.098,0.578,0.482,1.157,0.098,1.831
			c-0.771,0-0.289,0.676-1.447-1.061l-0.191-0.386c-1.062,0.29-1.93,0.772-2.605,0.965c-1.639,0-4.146,0-5.883,0.192
			c-1.059-0.289-2.795,0.387-3.76,0c-4.822,0.289-11.09,0.482-16.395,0.098c-1.252,0.578-2.988,0.191-4.146,0.096
			c-5.014-0.289-9.547-1.833-14.078-1.351c-3.086-0.096-6.75,0.868-10.029-0.385c-2.314,0.289-5.979-0.289-7.811-0.193
			c-0.098,0-0.193,0.193-0.291,0.289c-4.725-0.578-10.799,0.193-15.332-0.289c-0.482-0.193-0.867-0.868-0.193-0.965
			c9.258-0.771,20.926-0.868,30.666-0.096c2.219-0.193,5.594,0.289,7.908-0.097c0.096,0.097,0.193,0.192,0.289,0.289
			c3.568,0,6.461,0.675,10.125,1.062c0.387-0.289,0.771-0.098,1.061,0.096c5.4,0.289,13.02-0.482,18.227-0.096
			c2.893-1.351,5.979,0.771,8.775-0.676c0.289-0.482,0.289,0.965,2.219-0.386c-0.58-0.192-1.158-1.156-0.869-1.156
			c-0.771-1.544-2.988-1.351-4.049-4.436c-0.58,0.578-0.387-0.29-0.869-0.29c0,0-0.482-0.29-0.674-0.387
			c-0.098-0.096-0.482-0.192-0.482-0.964c-0.965,0-1.158-0.288-1.447-0.097c-0.965-0.386-0.965-1.735-2.121-1.735
			c-0.482-0.193-1.158-0.385-1.447-0.771c-1.156-0.29-1.639-1.446-2.699-1.64c-1.543-1.062-3.857-0.867-5.111-1.735
			c-1.061,0-1.158-0.868-2.41-0.965c-3.375-1.832-7.812-1.832-11.379-2.604c-5.209,0-9.934-1.062-15.236,0
			c-1.736,0-3.279,0.676-4.822,0.965c-0.869,0.579-1.93,0.385-2.797,0.867c-7.137,2.219-14.369,5.111-20.541,10.029
			c-2.506,1.255-3.76,3.857-6.363,5.11c-0.578,0.387-0.193-0.481,0-0.771c1.928-2.604,4.531-5.4,7.232-7.425
			c2.604-1.929,6.074-3.375,8.969-5.112c2.604-1.156,5.398-1.929,7.617-2.893c2.797-0.192,3.375-1.929,6.268-1.639
			c0.58-0.097,1.061-0.482,2.123-0.386c0.48-0.386,0.867-0.193,1.543-0.482c0.867,0,1.832,0,2.893-0.29
			C1166.148,183.437,1170.969,182.859,1175.02,183.726z"/>
		<path style="fill:#17192D;" d="M1195.174,162.994c-3.471,2.507-7.906,2.121-11.09,4.822c-1.254,0.385-2.604,1.06-3.664,1.735
			c-2.99-0.097-6.076,1.832-10.125,3.664c2.604,1.061,4.531,0.771,5.881,0.386c5.691,0,10.705-0.964,16.684-0.097
			c1.641,0,3.664-0.482,5.111,0.193c2.797,0.097,6.076-0.676,8.486,0.675c0.096,0.097,0.096,0.097,0.193,0.193
			c-2.025,0.578-4.629,0.385-6.654,0.289c-1.736-0.482-3.568,0.193-5.496,0.193c-3.762,0.096-7.715-1.254-11.09,0.385
			c-3.086,0.386-5.98-1.061-8.969,0c-2.701,0.868-5.4-0.482-7.908,0.771c-4.629-0.771-10.607,0.097-15.621-0.771
			c-5.691,0-11.477,0.386-17.07-0.578c-3.084-0.097-4.338-0.675-7.23-1.254c-0.098,0,0.48-0.675,0.48-0.868
			c3.086-1.832,4.146-2.41,7.426-3.664c4.533-1.833,9.354-1.446,13.887-2.7c6.363,0.097,12.633,0.965,17.262,7.04
			c8.486-5.111,17.551-5.69,25.748-10.126c3.664-1.157,7.039-2.989,10.703-4.146c0.578,0,1.543-0.386,2.219-0.193
			C1201.346,160.679,1198.26,162.03,1195.174,162.994z M1140.883,169.358c-1.254,0.386-2.797-0.096-3.955,0.676
			c-1.543-0.193-2.988,0.675-4.242,1.157l-2.314,1.639c0.867,0.097,4.244,0.386,5.207,0.579c1.254,1.253,3.473,0.675,5.016,1.061
			c7.135-0.965,15.139,0.192,23.723-0.193c-1.254-1.543-2.508-1.929-3.184-2.604c-1.35-1.35-5.109-2.797-7.617-3.856
			C1149.176,168.394,1144.547,167.429,1140.883,169.358z"/>
		<path style="fill:#17192D;" d="M1207.422,123.938c2.41,0.29,4.049-0.289,4.629,0.868c0,0.097-0.098,0.289-0.098,0.386
			c-3.568,2.025-8.197,1.157-12.344,2.314c-7.328,1.061-14.85,1.64-21.6,3.375c-1.543,2.122-3.279,5.014-2.219,7.812
			c0.096,0.096-0.289,0-0.674,0.675c0.674,0.964-0.387,1.349-0.387,2.121c-0.387,1.832-0.193,4.146-0.965,7.329
			c5.594,1.254,10.896,1.157,15.525,2.411c3.377,0.964,8.102-0.579,11.477,1.157c1.254,0,2.797-0.193,3.664,0.867
			c0.193,0.482-0.676,0.482-1.061,0.482c-3.953-0.675-6.943-0.386-10.703-0.868c-4.438-1.929-11.188-0.289-16.01-2.218
			c-1.734,0-4.436,0.482-5.785-0.482c-4.533-1.061-9.934,0.29-14.176-1.736c-7.908,0.29-14.465-2.988-22.564-2.988
			c-0.387-0.387-0.387-1.061-1.254-1.157c-2.314-0.771-5.305,0.675-6.75-1.254c0.578-1.061,2.121-0.578,3.277-1.446
			c9.74-2.122,18.709-6.364,28.641-8.196c2.797-1.351,6.27-1.736,9.355-2.99c1.061-0.097,2.121-0.289,3.084,0.097
			c1.93-0.579,4.051-1.254,6.172-1.254c4.533-0.096,8.584-2.218,13.309-1.832c1.447-0.868,3.664-0.192,5.207-0.675
			c2.99-0.29,6.076-1.061,8.873-1.832c0.578-0.29,0.867-0.482,0.963-0.675c0.869-0.387,0.965-0.387,1.641-0.29
			C1206.65,124.035,1207.422,123.746,1207.422,123.938z M1170.969,131.75c-4.82,2.122-10.414,2.122-15.428,3.568
			c-5.883,1.639-11.379,4.917-18.033,6.171c0,1.639,0.674,2.218,1.832,2.314c2.699,0.965,5.207,2.025,8.293,2.411
			c5.689,0.771,12.344,0.288,17.744,1.639c1.445,0,3.566,0,5.496,0.578c0.965-1.156,1.061-2.313,1.928-2.893
			c0-1.156,0.291-2.024,0.387-2.894c0.193-1.446,0.193-2.796,0.482-3.856c0.482-1.832,0.771-2.507,0.965-4.05
			C1177.238,130.206,1172.705,131.845,1170.969,131.75z"/>
		<path style="fill:#17192D;" d="M1172.705,99.444c3.762,0.289,7.619,1.157,11.668,1.64c4.918,0.578,10.029,1.156,14.658,3.472
			c2.41,2.409,5.4,3.664,7.33,6.846c0.289,1.736,1.541,1.447,0.963,3.568c0.098,0.289-0.193,0-0.193-0.386
			c-2.217,0.096-1.156-0.482-2.795-2.7c-2.508,0.771-4.34-0.386-6.172,0.386c-7.715-0.482-14.369,0-21.891,0.771
			c-1.832,0.868-4.146,0.868-6.268,0.578c-1.352-0.481-2.797,0.482-4.436,0.193c-5.016-0.289-10.609-0.289-15.527,0.386
			c-3.664-0.192-7.232,0-10.992,0.386c-1.447-0.289-3.086-0.771-5.111-0.192c-0.578,1.35-1.254,1.061-0.771,2.217
			c-0.193,0.193-0.387,0.482-0.676,0.676c-0.289-0.097-0.578,0-0.867-0.289c0.385-2.797,2.217-4.34,3.953-6.461
			c3.375-3.087,7.715-4.533,11.379-7.521c2.412-1.544,4.918-1.736,7.521-2.797c3.279-0.482,6.943-0.29,10.127-0.965
			C1167.305,99.925,1169.908,99.733,1172.705,99.444z M1157.469,101.854c-3.76-0.192-6.365,1.543-9.932,2.604
			c-0.193,0.192-1.062,1.06-1.543,1.35c-2.701,1.929-5.883,2.797-8.777,6.654c3.473-0.29,5.209,0.964,6.848,0.288
			c2.41,0.29,4.533-0.964,6.943-1.061c3.471,1.061,7.232,0.193,10.801,0.676c3.279,0.385,6.846-0.386,10.221-0.579
			c5.98-2.314,12.924-0.675,19.096-1.35c2.988,0,6.459-0.482,11.186,0.097c-1.832-3.857-5.111-4.533-7.33-5.786
			c-5.689-1.543-11.379-2.508-17.26-3.086c-1.158-0.193-2.604,0.289-3.666-0.386C1168.752,101.566,1162.387,99.733,1157.469,101.854
			z"/>
		<path style="fill:#17192D;" d="M1200.863,68.971c0.771,0.386,1.543,0,2.41,0.193c0.676,0,1.158,0.192,1.736,0.578
			c0.098,0.482-0.48,0.868-0.771,1.351c-0.674,0.868-1.445-0.482-1.639-0.482c-0.193-0.386-1.158,0.482-2.121-0.965
			c-1.93,0.579-3.664,0.579-5.016,0.193c-2.699,0.289-5.689-0.482-8.293,0.578c-1.061,0.097-1.639,1.351-2.121,1.929
			c-0.096,0-0.482,1.157-1.35,1.544c-1.254,1.156-3.086,2.988-3.666,3.471c-0.48,0.482,0-0.578-0.867,0.387
			c-0.482,0.385-0.289,0.578-0.965,1.639c-0.867,1.061-2.604,2.893-2.988,3.375c-0.578,1.157-1.158,2.507-1.832,4.05
			c2.025,1.351,4.049,0.965,5.4,1.833c1.734,0.096,3.857,0.481,5.689,0.964c1.061-0.868,1.832,0.193,2.604,0.193
			c1.061,0.578,2.699,0.482,3.953,1.061c2.41,0.386,4.533,1.832,7.232,1.351c0.965,0.192,2.121,0.578,3.086,0.867
			c-0.096,0.193-0.193,0.386-0.385,0.386c-1.641,0.29-3.086-0.579-4.533-0.482c-0.387-0.289-0.676-0.386-1.061-0.289
			c-0.771-0.097-1.543-0.289-2.219-0.289c-1.543-0.482-2.604,0.386-5.111-1.254c0,1.446,0.193,0.579,0.193,0.579
			c-1.445-0.386-3.471-0.964-5.4-0.868c-1.156-0.771-2.604-0.482-3.76-0.771c-2.701-0.289-4.533-1.351-7.137-1.157
			c0,0-0.096-0.096-0.193-0.096c-0.771-0.482-1.639-0.193-2.121-0.676c-5.883-1.64-11.861-3.279-17.744-4.918
			c-1.35-0.675-2.506-0.965-3.953-1.543c-1.928-0.676-3.76-1.832-5.785-2.604s-3.955-2.025-6.27-2.7
			c-0.578-0.29-1.543,0.192-1.543-0.772c0-0.288-0.289-0.964-0.096-1.06c0.676-1.062,2.604-1.062,3.568-1.543
			c2.314-0.193,5.592-0.676,8.389-1.254c1.061-1.254,2.701-0.289,3.955-0.771c4.725,0.192,9.643-2.218,15.043-1.543
			c6.846-1.061,14.465-1.64,20.926-1.061C1191.027,68.779,1195.945,68.296,1200.863,68.971z M1171.645,70.611
			c-1.254-0.482-3.182,0.675-5.111,0.289c-2.314-0.386-4.82,0.386-7.135,0.771c-2.219-0.386-3.955,0.965-6.172,0.771
			c-1.447,0.193-3.857,0.193-5.787,0.579c-3.182,0.578-6.074,1.446-9.74,1.735c1.447,1.64,4.051,2.796,4.438,2.893
			c2.025,0.676,3.664,1.832,5.496,2.411c2.797,0.964,5.207,1.929,7.811,2.7c1.832,0.482,4.244,1.061,5.883,1.351
			c1.832-0.097,4.436,1.542,6.943,1.929c1.447,0.192,0.771,0.868,2.797,0.289c0.771-1.832,1.928-3.086,2.604-4.725
			c0.867-1.158,1.35-1.255,2.604-2.604c0.867-0.868,1.736-2.218,2.699-3.472c0.869-0.964,2.025-2.025,2.604-2.7
			c0-0.192,1.158-1.446,1.158-2.218c-1.35-0.289-2.893-0.289-3.762-0.386C1176.369,69.839,1174.344,70.225,1171.645,70.611z"/>
		<path style="fill:#17192D;" d="M1201.441,58.556c0.098,0.097,0.193,0,0.193,0.097c-1.736,0.386-3.471-0.29-5.014,0.386
			c-1.061,0.675-2.412,1.253-3.762,0.579c-0.096-0.675-0.385-1.447-0.191-2.314c0.191-0.387,0.48,0.096,0.77-0.193
			C1196.332,56.242,1199.031,57.207,1201.441,58.556z"/>
	</g>
	<path style="fill:none;stroke:#17192D;stroke-width:3;" d="M2048,0"/>
	<path style="fill:none;stroke:#17192D;stroke-width:3;" d="M2048,1536"/>
	<path style="fill:none;stroke:#17192D;stroke-width:3;" d="M0,1536"/>
	<path style="fill:none;stroke:#17192D;stroke-width:3;" d="M0,0"/>
</g>
<g id="Layer_1">
</g>
</svg>
