<?xml version="1.0" encoding="iso-8859-1"?>
<!-- Generator: Adobe Illustrator 15.1.0, SVG Export Plug-In . SVG Version: 6.00 Build 0)  -->
<!DOCTYPE svg PUBLIC "-//W3C//DTD SVG 1.1//EN" "http://www.w3.org/Graphics/SVG/1.1/DTD/svg11.dtd">
<svg version="1.1" xmlns="http://www.w3.org/2000/svg" xmlns:xlink="http://www.w3.org/1999/xlink" x="0px" y="0px" width="2048px"
	 height="1536px" viewBox="0 0 2048 1536" style="enable-background:new 0 0 2048 1536;" xml:space="preserve">
<g id="atxtb_x5F_2">
	<g>
		<path style="fill:#17192D;" d="M908.568,646.665c-0.192-0.096,0.869-0.289,1.254-0.192c0.289,0,0.676,0,0.771,0
			c0.578,0.192,1.351,0.481,1.93,0.386c1.35,0.578,2.699,0.289,3.856,0.868c2.314,1.061,5.4,2.024,7.907,4.146
			c1.543,1.639,3.568,2.313,5.111,3.761c0.289,0.868,0.676,1.253,0.482,2.024c-1.543,0.097-2.314-2.121-3.762-2.7
			c-1.061-0.964-2.604-1.253-3.471-2.507c-0.193-0.097-0.579-0.482-0.771-0.578c-0.193-0.097-0.289-0.289-0.289-0.289
			c-0.097,0-0.482-0.193-0.482-0.29c-0.868-0.868-1.158-0.965-1.158-0.578c-0.674-0.193-1.156-0.676-1.832-0.579
			c-0.289-0.097-0.578-0.289-0.771-0.578c-1.156,0.192-1.445-0.386-2.024-0.482c-1.062-0.578-2.7,0-3.857-0.386
			c-0.579,0.097-1.061-0.482-1.735-0.386c-2.314-0.675-3.279-0.097-5.786,0.096c-3.183,1.158-3.278,0.869-5.304,1.64
			c-1.543,0.579-2.411,0.771-3.857,1.447c-1.447,0.675-2.025,1.446-3.472,2.121c-1.351,0.578-2.218,0.386-3.472,0.867
			c-1.446,0.58-2.314,1.255-3.664,1.833c-1.351,0.676-2.411,0.965-3.954,1.64c-1.446,0.867-2.218,1.735-3.954,2.218
			c-0.482,0-1.157,0.096-1.639,0.096c-0.482-0.096-1.061,0.098-1.351,0.098c-0.289,0.096-0.771-0.098-1.061-0.193
			c-1.735,0.578-2.7-0.579-4.532-0.386c-1.736-0.482-3.472-0.675-5.497-1.35c-1.929-1.062-4.437-1.544-6.558-2.99
			c-2.218-1.157-4.436-2.893-6.075-5.015c-0.192-0.289-0.964-1.061-0.289-0.964c1.735,0.771,3.278,2.507,5.11,3.183
			c4.918,3.086,10.029,4.918,15.141,5.399c0.578,0.289,1.254,0,1.929,0.289c0.964,0,2.314,0.29,3.375,0.098
			c3.472,0.385,2.7-1.157,4.146-1.736c1.543-0.579,2.507-0.482,3.857-1.157c0.964-0.579,1.446-1.254,2.604-1.735
			c0.964-0.579,1.639-1.062,2.893-1.254c2.893-0.29,2.989-0.868,4.436-2.122c0.676-0.386,1.061-0.867,1.832-1.156
			c0.676-0.579,1.254-0.289,2.121-0.579c1.158-0.29,1.736-0.675,2.894-1.061c1.062-0.386,2.218-0.868,2.796-0.868
			c2.025-0.868,3.184-0.289,5.111-0.482C908.087,646.279,908.666,646.665,908.568,646.665z"/>
		<path style="fill:#17192D;" d="M895.937,621.014c6.075-0.771,11.476,2.218,17.068,3.472c2.314,1.254,5.015,1.446,7.715,3.183
			c0.868-0.29,0.964,0.386,1.253,0.771c0,0.097-0.096-0.482-0.096-0.482c-3.279,1.929-7.137,4.05-11.187,5.207
			c-2.122,0.965-4.726,1.254-6.847,1.929c-2.604,0.771-5.111,1.64-7.618,2.314c-5.208,0.482-8.583,1.351-13.597,1.832
			c-3.762-0.675-8.197-0.289-11.572-1.735c-2.121,0.771-4.726-0.193-6.75-0.675c-2.508,0.481-4.533-1.832-6.943-2.122
			c-2.604-1.156-5.883-0.964-7.715-3.183c0.096-0.096-1.061-0.771-0.386-1.542c0.192-0.193,0.289-0.387,0.481-0.579
			c1.641-1.156,2.797-2.796,4.822-3.664c4.436-2.508,9.451-4.918,15.043-4.726c2.99,0.578,5.883-1.929,8.873-0.386
			C883.979,620.628,890.536,619.953,895.937,621.014z M852.156,628.825c-0.387,1.061-1.254,2.699,0.674,2.699
			c6.751,2.508,13.501,3.857,20.444,4.919c6.751,0.964,13.115,1.543,19.673-0.289c8.389-2.411,17.261-3.954,26.711-8.39
			c-5.496-1.062-8.582-2.7-11.957-3.279c-7.426-0.482-14.176-2.7-21.697-2.507C873.854,622.172,861.605,623.521,852.156,628.825z"/>
		<path style="fill:#17192D;" d="M925.155,575.787c-0.964,2.121-3.278,2.314-4.918,3.472c-2.218,1.157-4.628,2.314-7.136,2.604
			c-0.676,0.386-1.64,0.482-2.411,0.579c-6.461,1.157-12.729,3.761-19.479,3.953c-4.629,0.965-9.74,0.482-14.754,0.387
			c-4.146,0-9.451-1.158-13.598-2.99c-2.025-0.482-4.242-1.253-5.689-2.507c-2.121-0.578-3.761-2.122-5.593-3.278
			c-0.386-0.676-0.868-1.351-0.868-2.026c0-0.096-0.096-0.192-0.096-0.192c1.928,0.482,3.76,1.929,5.689,3.086
			c1.543,0.868,2.41,2.025,4.05,2.411c2.796,0.578,5.015,2.507,7.907,2.314c5.305,1.35,11.09,1.254,17.455,0.867
			c-0.965-2.218,0.675-3.086-0.098-4.436c0.098-0.579,0.193-0.964,0.387-1.35c0.289-0.29,0.482-0.579,0.867-0.29
			c0.193,0.193,0.29,0.29,0.482,0.482c-0.192,0.578,0.193,0.964,0.482,1.254c-0.289,1.253,0,2.508-0.193,4.05
			c4.726,0.482,7.908-0.868,11.766-1.061c1.639-0.771,4.146-0.964,6.172-1.543c1.832-0.578,4.05-0.578,5.785-1.64
			c1.447,0.193,3.086-0.289,4.244-1.735c2.506,0.097,4.436-1.736,7.328-2.314c0-0.771,0-0.482,0-0.482
			c0.482-0.192,1.447-1.253,2.604-0.868C925.445,575.016,925.349,575.401,925.155,575.787z"/>
		<path style="fill:#17192D;" d="M861.703,547.823c1.061,0,2.604-0.097,3.76-0.193c2.797-1.735,7.137,0,10.416,0.386
			c2.024-1.157,5.399-0.482,7.521-0.675c3.086-0.771,7.136,0.192,10.703,0.192c6.269,0,13.501-0.192,19.77-0.481
			c0.964-0.098,1.928-0.676,2.797-0.29c0.096,0.097,0.192-0.097,0.289-0.097c-2.219,1.447-4.918,1.543-7.137,2.508
			c-3.182,2.797-6.846,4.243-10.222,6.364c-4.05,1.832-8.196,3.183-11.861,5.979c-1.157,0.578-2.218,1.253-3.375,1.832l-2.796,1.35
			l3.182,0.192c7.521,0.482,14.562-1.35,22.275-0.289c3.086,0,5.979-1.253,8.969-0.675c0.771-0.097,1.736,0,2.411,0
			c-0.097,0.192,0,0.579-0.097,0.675c-0.771,0-1.446,0.193-2.121,0.676c-0.771,0.385-1.736,0.385-2.604,0.578
			c-2.604,0.289-5.208-0.097-7.812,0.482c-7.04,0.192-13.886-0.676-20.733,0.097c-3.182-0.579-6.364,1.061-9.45,0.192
			c-2.024,0.481-4.629-0.579-6.172,0.579c-4.628-0.482-9.161-1.254-13.982-1.254c-1.062-0.386-2.7,0-3.183-1.157
			c-0.096-0.097,0.578-1.062,0.578-0.579c5.208-1.35,9.645,1.736,15.623,1.062c3.086-0.387,6.268,0,9.547-0.965
			c0.964-1.35,2.41-1.253,3.471-2.121c1.93-0.29,3.857-0.771,5.111-2.122c4.918-2.41,9.933-3.278,13.887-6.847
			c1.157-0.482,2.314-1.061,3.568-2.122c0-0.289,2.796-1.542,2.796-1.831c-0.097-0.193-2.989,0.481-2.989,0.096
			c-3.761,0-7.232-0.675-10.223,0.386c-5.399-1.35-10.992-1.446-16.779-0.192c-4.146-0.482-8.389-1.062-12.439-0.289
			c-3.375-1.446-7.136,1.542-10.222-1.157c-0.289-0.868-1.832-0.579-1.735-1.64C855.724,545.895,858.52,547.727,861.703,547.823z"/>
		<path style="fill:#17192D;" d="M840.295,524.68c0,2.989-0.098,5.882,0.674,9.161c7.233,0.482,14.176,0.482,19.77-1.351
			c1.543-0.289,3.086-0.482,4.34-0.964c6.074-1.736,10.607-0.482,16.586-2.604c3.762-0.29,7.137-1.062,10.704-1.64
			c5.015-0.868,10.222-0.289,14.851-1.351c2.989,0,6.558-0.386,9.74-1.253c2.604,0.096,5.304-1.062,7.907-1.543
			c0.386,0.192,0.868,0.578,1.061,0.867c-0.386,2.894-4.628,1.254-6.461,2.122c-6.558,1.254-12.922,1.929-18.997,2.121
			c-3.664,0.097-7.521,1.062-11.283,1.543c-3.76,0.482-6.557,0.771-10.318,0.771c-1.061,0.579-2.507,0.771-3.857,0.482
			c-1.253,1.157-2.507,0.482-3.471,1.157c-3.183,0.482-6.558,1.35-10.029,1.832c-3.086,0-6.461,1.832-9.258,1.35
			c0,0-0.482,0.193-0.578,0.29c-2.797-0.097-6.172,0.289-10.029-1.157c-0.771,2.218-0.193,4.436-0.386,6.075
			c-0.579,6.075,1.254,11.669,0.29,17.357c0,0.482,0.578,1.157,0.191,1.64c-0.385,0.386-0.771,0.097-1.156,0
			c-1.061-1.446-0.771-3.761-0.771-5.399c-0.676-0.772,0.096-2.315-0.193-3.279c0.578-5.979-0.386-11.861-0.386-17.262
			c0-5.015-0.964-11.09-1.253-16.2c-0.387-0.868,0.385-1.447,0.867-1.833c0.097,0,0-0.192,0.097-0.096
			C839.908,518.411,840.295,521.497,840.295,524.68z"/>
		<path style="fill:#17192D;" d="M912.812,506.165c3.761,0.965,6.461,4.146,10.221,5.304c0.579,1.062,1.833,1.64,2.412,2.7
			c-0.869,0.29-1.833-0.578-2.604-0.964c-0.675-0.675-1.35-1.062-2.313-1.157c-2.122-1.543-5.016-2.219-7.233-3.954
			c-1.64-0.578-4.05-0.771-5.882-1.639c-3.279-0.193-6.558-0.193-9.74,0.385c-3.086,0.579-6.075,1.833-8.486,3.954
			c-3.182,1.543-6.846,2.7-10.318,3.472c-5.4,2.7-12.246,2.411-17.84,0.193c-3.279,0-5.111-2.797-8.1-3.183
			c-0.869-0.675-1.64-1.351-2.701-1.736c-0.578-0.481-0.289-1.254-0.771-1.929c0-0.192-0.385,0.097-0.192,0.193
			c1.351,0.097,2.796,0.675,3.954,1.254c5.11,3.953,11.957,4.146,18.129,5.496c4.34-0.193,7.908-2.218,12.055-3.182
			c2.604-1.64,5.882-2.218,8.486-3.857c1.928-0.193,3.471-2.411,5.496-1.929c4.34-1.543,9.45-1.543,13.598,0
			C911.559,505.876,912.137,506.068,912.812,506.165z"/>
		<path style="fill:#17192D;" d="M842.416,477.043c0.193,1.64,0.867,2.797,1.157,4.533c-0.579,2.604-0.097,4.918,0.868,8.1
			c1.35-0.675,2.314-0.482,2.797-0.289c1.832-0.193,4.146,0.289,5.979,0.193c1.735-0.387,3.857-0.579,5.593-0.579
			c2.7-1.35,6.075-1.736,8.775-2.314c1.543,0.386,3.375,0,4.821,0.193c6.558,0,13.309-1.64,19.48-2.507
			c1.156,0.096,2.893-0.193,3.953,0.096c0.193-0.096,0.675-0.096,0.771-0.193c4.821-0.192,8.679-0.289,13.5-0.289
			c2.219,0,4.146,0.387,6.172,0.482h-0.096c-2.508,1.832-5.979,1.157-8.68,1.735c-3.953-0.964-8.1,1.061-12.343-0.578
			c-2.508,2.604-5.497,0.578-8.101,1.446c-2.41-0.289-5.304-0.192-7.329,1.061c-0.964-0.096-1.832,0.289-3.183-0.192
			c-2.314,1.351-5.207,0.675-7.617,0.675c-3.954-0.868-7.137,1.735-10.897,1.254c-2.7,1.351-5.786,1.157-8.872,1.157
			c-0.964-1.061-2.507-0.097-4.436-2.218c-0.676,4.242-0.289,6.75-0.482,9.354c0.482,2.025-0.289,4.243,0,6.461
			c-0.096,0.096-0.096,0.193-0.193,0.289c-0.771-0.096-0.964-0.964-1.253-1.542c0.579-1.929,0.481-3.857,0-5.786
			c-0.386-0.482,0-1.351,0.097-2.315c-1.061-1.446-0.193-3.567-0.965-4.918c0.482-1.542-0.193-3.182-0.096-4.725
			c-0.869-1.543,0.289-3.568-0.579-5.11c0-1.351-1.832-2.701-0.29-3.762c0.098-0.096,0.29-0.192,0.482-0.289
			C841.838,476.562,842.319,476.658,842.416,477.043z"/>
		<path style="fill:#17192D;" d="M859.002,462.289c1.447,0.193,2.411,1.64,4.051,1.64c3.086,1.542,5.979,2.314,9.74,2.507
			c0.578,0.289,1.543,0.386,2.217,0.579c2.122,0.192,4.051,1.157,6.076,1.157c1.254,0.386,2.989-0.29,4.146,1.254
			c1.543-0.387,2.699-0.772,3.664-1.254c0.386-0.772,1.447-1.736,1.35-2.797c0.676-1.061,0.098-1.929,0.579-3.279
			c0.579-1.831,0.579-2.893,1.543-4.821c0.482-0.386,0.964-0.771,1.543-0.675c0.386,0.964,0,2.121,0,3.278
			c-1.254,2.508-1.061,3.857-1.929,7.137c0.771,0.482,0.482,0.867,0.771,1.061c2.411,0.386,5.015,0.097,7.039-0.386
			c1.254,0.192,2.314-0.29,4.244-0.29c0.385-1.156,1.253-0.289,1.832-0.578c3.471-0.289,6.557-2.218,10.125-2.41
			c1.543-1.351,4.146-1.158,5.689-2.315c1.832,0.193,2.797-2.218,5.111-1.639c1.157-0.868,2.218-1.929,3.664-1.929
			c0.386,0.289,0.771,0.578,1.157,0.964c-0.192,1.447-1.832,1.543-2.894,2.314c-1.639,0.193-3.182,0.579-4.338,1.64
			c-2.122-0.097-3.376,1.735-5.401,1.64c-0.771,0.482-1.542,0.578-2.121,0.965c-0.771-0.098-1.446,0.192-2.025,0.481
			c-4.436,0-7.907,2.894-12.343,2.604c-0.579,0.386-1.64,0.386-2.219,0.482c-4.725,1.639-10.222,1.35-15.043,1.254
			c-2.219-0.579-4.918,0-6.847-0.965c-5.979-1.061-11.765-3.472-17.454-5.015c-2.701-1.061-5.208-2.699-7.715-4.05
			c-2.797-1.543-6.076-2.604-8.101-5.4c0-0.193,0-0.482,0.192-0.579C849.648,457.66,854.181,460.167,859.002,462.289z"/>
		<path style="fill:#17192D;" d="M920.237,425.646c-1.157,0.867-2.7,1.447-3.857,2.411c-4.726,1.35-9.836,2.603-14.947,2.603
			c-3.664,0.579-7.425,1.351-10.993,2.219c-1.929-0.193-4.146-0.579-6.364-0.097c-0.29,0.771-0.29,1.062-1.446,1.351
			c1.061,2.796,3.278,4.725,4.339,6.75c0.579,0.289,1.157,1.061,0.964,1.736c-0.385,1.156,0.193,1.156,0.869,1.831
			c0.867,0,1.639,0.098,2.41,0.482c2.025-0.675,3.568-0.675,5.207-0.097c1.832,1.062,3.375,0.29,5.4,0
			c3.857-0.578,7.521-1.446,11.476-1.639c3.086-0.097,6.172-0.097,9.45-0.097c0.289,0.097,0.579,0.193,0.482,0.482
			c0,0.289-0.386,0.578-0.675,0.675c-4.821,0.29-9.45,0.482-13.693,1.832c-3.183-0.096-5.786,0.868-8.775,0.579
			c-7.136-0.675-14.657,0-21.408,0.867c-2.989-0.675-5.304,0.579-8.196,0.387c-7.522-0.579-15.334-0.579-21.987-2.797
			c-0.964-0.29-0.482-1.061-0.964-1.736c0.096-0.289,0.578,0,0.771-0.096c2.314,0.481,4.339,1.542,6.653,1.446
			c0.097,0.096,0.097,0.096,0.192,0.192c3.955-0.192,7.619,1.062,11.09,0.868c2.604,1.446,5.497-0.386,8.294,0.097
			c3.567,0.579,6.558-0.675,10.028-1.157c0.482-0.386,1.158-0.771,1.833-1.543c-1.157-3.086-4.726-5.015-5.111-7.521
			c0.482,0-0.675-0.771-0.192-2.314c-2.99-0.868-5.4,0.289-7.619-0.772c-1.832-0.481-3.664,0.482-5.592-0.578
			c-2.604,1.254-4.919,0.097-7.426,0.289c-1.447-1.253-2.025,1.254-3.762,0.098c-1.639,0.481-3.857,0.771-5.207,0
			c0.097-0.387,0.097-0.676,0-1.062c1.447-0.867,3.472,0.289,4.918-0.867c2.121-0.193,3.665,0.964,5.786,0.578
			c6.172-1.157,13.019,0.192,19.286-0.193c4.34-0.193,9.065,0.482,13.212-0.964c6.558-1.062,13.404-1.929,19.575-3.183
			c1.543-0.964,3.376-2.024,5.305-1.929C919.852,425.066,920.141,425.26,920.237,425.646z"/>
		<path style="fill:#17192D;" d="M925.155,406.744c-0.964,2.122-3.278,2.314-4.918,3.472c-2.218,1.157-4.628,2.314-7.136,2.604
			c-0.676,0.386-1.64,0.482-2.411,0.579c-6.461,1.157-12.729,3.761-19.479,3.953c-4.629,0.965-9.74,0.482-14.754,0.386
			c-4.146,0-9.451-1.157-13.598-2.989c-2.025-0.481-4.242-1.254-5.689-2.507c-2.121-0.578-3.761-2.122-5.593-3.279
			c-0.386-0.675-0.868-1.35-0.868-2.024c0-0.097-0.096-0.193-0.096-0.193c1.928,0.482,3.76,1.929,5.689,3.086
			c1.543,0.868,2.41,2.025,4.05,2.411c2.796,0.578,5.015,2.507,7.907,2.314c5.305,1.35,11.09,1.253,17.455,0.867
			c-0.965-2.218,0.675-3.085-0.098-4.436c0.098-0.578,0.193-0.964,0.387-1.351c0.289-0.289,0.482-0.578,0.867-0.289
			c0.193,0.193,0.29,0.289,0.482,0.482c-0.192,0.579,0.193,0.965,0.482,1.254c-0.289,1.254,0,2.508-0.193,4.05
			c4.726,0.482,7.908-0.867,11.766-1.061c1.639-0.771,4.146-0.964,6.172-1.543c1.832-0.578,4.05-0.578,5.785-1.64
			c1.447,0.193,3.086-0.289,4.244-1.735c2.506,0.097,4.436-1.736,7.328-2.314c0-0.771,0-0.481,0-0.481
			c0.482-0.193,1.447-1.255,2.604-0.869C925.445,405.973,925.349,406.359,925.155,406.744z"/>
		<path style="fill:#17192D;" d="M927.855,368.269c-7.618,3.375-14.176,7.811-20.83,12.247c-0.578,0.289-0.771,1.061-2.024,1.061
			c-3.086,3.086-6.943,3.375-9.739,6.172c-2.508,1.254-5.305,2.7-8.197,4.918c0.386,0.289,1.061,0.579,1.35,0.771
			c2.025,0.964,4.051,0.192,5.883,0.289c5.786,0.192,11.09-0.771,16.201-0.868c4.918,0,9.449-1.157,13.789-0.675
			c0.098,0.193,0.098,0.482,0.098,0.868c-0.29,2.218-2.797,0.675-3.857,1.061c-4.629,0.579-8.68,0.675-13.694,0.868
			c-6.171,0.386-12.247,0.097-18.419,0.771c-4.146,0.386-7.907,0-11.861,0.868c-6.557-0.772-13.211,2.604-19.769,1.253
			c-1.542,0-3.085,0.771-4.726,0.386c-0.674-0.482-3.76,0.097-2.217-1.35c5.014-0.771,10.222,0,15.332-0.676
			c7.715-0.289,15.912-0.771,21.602-5.689c0.964-0.289,1.735-0.964,2.41-1.446c2.411-1.446,5.016-2.507,7.04-4.629
			c2.024-0.675,3.857-1.832,5.497-2.989c2.893-2.893,6.75-3.953,9.932-6.172c0-0.386,0.29-0.289,0.482-0.386
			c0.868-0.386,1.543-1.156,2.604-1.929c0-0.386,2.797-0.964,2.701-1.253c-0.098-0.289-3.279-0.193-3.568-0.386
			c-4.436,0.964-9.933,1.35-15.044,1.832c-5.497,0.482-9.161,1.543-14.368,1.639c-1.832-0.386-4.436,1.447-6.269-0.096
			c-2.024,0-3.183-0.097-4.821,0.482c-1.447,0-2.893-0.193-4.629-0.193c-0.386-0.097-0.771,0.289-1.157,0.289
			c-1.64,1.061-2.507-1.446-3.761-0.289c-0.578,0.193-1.157,0.676-1.736-0.193c-3.086,0.869-5.496,0.387-8.1-1.06
			c-0.868,0.385-1.158-0.097-1.543-0.386c0-0.097,0-0.193,0-0.29c0.289-0.675,0.867,0.29,0.867,0.193c0,0,0.579,0.482,1.158-0.097
			c0.385-0.579,1.253,0.675,1.445,0.386c3.279,0.771,7.137,0.578,10.801,0.097c3.375,0.578,8.486-0.386,11.669,0.289
			c0.675-0.097,1.542-0.675,2.7-0.289c1.061-0.965,2.507-0.097,3.278-0.676c4.05-0.289,8.39-0.964,12.536-0.964
			c3.954-0.386,8.293-0.771,11.476-1.254c0.675,0.193,1.446-0.386,2.122,0.097c1.639-0.386,2.314-0.386,3.567-0.579
			c2.508-0.481,5.69-0.867,7.907-1.35c0.387,0,0.868-0.289,1.447-0.964c-0.482-0.868,0.578-0.482,0.675-0.482
			c0.868-0.386,2.314,0.386,3.761-0.097C927.855,367.69,927.952,367.979,927.855,368.269z"/>
		<path style="fill:#17192D;" d="M914.258,315.713c0.869,2.025,0.29,4.629,0.676,6.269c-0.193,2.989,0.482,5.689,0.965,8.582
			c-0.098,0.579-0.387,1.254-0.869,1.64c-2.024-0.482-4.146-0.386-5.979-0.578c-1.832,0.675-3.953-0.193-6.074-0.868
			c-3.665,0.386-7.522-0.289-10.897-0.578c-4.147,0.482-7.907-0.29-11.958-0.676c-3.664,0.578-7.232-0.578-10.704-1.639
			c-0.675-0.868-0.964-0.771-1.351-0.097c-5.399-0.482-10.221-2.314-15.236-4.146c-3.375-1.254-2.699-1.061-6.461-2.508
			c-0.482,1.544,0,2.797-0.192,3.568c-0.192,1.061-0.192,2.122,0,3.183c-0.192,2.024,0.097,4.532,0.868,6.557
			c-0.097,0.097-0.097,0.193-0.193,0.29c-0.675-0.097-1.061-0.868-1.35-1.543c-0.386-1.254,0-2.218-0.868-3.183
			c-0.192-1.543,0.097-2.893-0.192-4.629c0.771-2.218-0.965-5.304,1.832-5.689c1.735,1.351,3.471,1.543,5.496,2.314
			c1.158,0.482,2.701,0.867,4.146,1.254c8.102,2.121,15.623,4.532,24.012,5.111c3.568-0.772,7.33,0.867,11.09,0.481
			c4.147,0,8.102,0.289,12.633,1.157c1.64,0.289,3.375-0.097,5.497,0.868c2.024-2.411,5.4,1.061,5.11-3.183
			c-0.578-2.894-0.771-6.269-0.771-9.064c0.097-1.062-0.29-2.411,0.386-3.086C913.969,315.521,914.065,315.616,914.258,315.713z"/>
		<path style="fill:#17192D;" d="M880.41,279.455c6.461,2.314,13.309,1.64,19.48,4.243c6.363,2.7,13.307,3.857,19.865,5.979
			c0.191,0.193,0.481,0.482,0.674,0.771c-2.121,0.868-4.918-0.868-7.425-0.578c-7.618-0.579-14.755,1.929-22.759,2.989l-0.385,1.736
			c8.679,1.735,16.008,5.399,24.012,6.942c0.289,0.193,0.771,0.29,1.061,0.482c1.736,0.097,3.857-1.061,5.111-0.097
			c-0.098,0.675-0.771,0.965-1.447,1.157c-1.543-0.192-2.699,0.868-4.146,1.254c-8.582-0.386-16.201,1.446-24.879,2.025
			c-10.705,0.771-21.312,1.543-31.438,1.446c-5.305,0.771-9.354,0.964-13.501,0.482c-0.386-0.193-1.157,0-1.543-0.097
			c0.29-0.192,0.579-0.482,0.868-0.771c3.182-0.675,5.979-0.675,9.354-0.965c14.658-1.157,30.763,0.097,45.807-2.41
			c2.699-0.482,5.399-0.29,8.293-0.579c1.928-0.675,1.061-2.604-0.387-2.218c-6.268-3.086-13.886-3.568-20.154-5.883
			c-1.156-0.386-2.989-0.097-3.471-1.253c0.192-0.386,0.578-0.579,0.964-0.771c6.558-2.122,13.693-2.894,23.53-5.4
			c-6.076-2.219-9.645-2.604-12.44-4.243c-7.04,0-11.861-2.893-18.901-2.893c-5.4-2.025-11.764-1.158-17.164-3.472
			c-4.437-0.097-8.101-1.062-13.309-1.929c-0.096,0-0.385,0-0.482-0.097c0.098-0.192,0.193-0.386,0.289-0.675
			c0.772,0,1.254-0.386,1.641-0.579C858.424,274.923,869.417,278.009,880.41,279.455z"/>
		<path style="fill:#17192D;" d="M859.002,258.915c1.447,0.193,2.411,1.64,4.051,1.64c3.086,1.542,5.979,2.314,9.74,2.507
			c0.578,0.289,1.543,0.386,2.217,0.579c2.122,0.192,4.051,1.157,6.076,1.157c1.254,0.386,2.989-0.29,4.146,1.253
			c1.543-0.386,2.699-0.771,3.664-1.253c0.386-0.772,1.447-1.736,1.35-2.797c0.676-1.061,0.098-1.929,0.579-3.279
			c0.579-1.832,0.579-2.893,1.543-4.821c0.482-0.386,0.964-0.771,1.543-0.675c0.386,0.964,0,2.121,0,3.278
			c-1.254,2.508-1.061,3.857-1.929,7.137c0.771,0.481,0.482,0.867,0.771,1.061c2.411,0.386,5.015,0.097,7.039-0.386
			c1.254,0.192,2.314-0.29,4.244-0.29c0.385-1.156,1.253-0.289,1.832-0.578c3.471-0.289,6.557-2.218,10.125-2.41
			c1.543-1.351,4.146-1.158,5.689-2.315c1.832,0.193,2.797-2.218,5.111-1.639c1.157-0.868,2.218-1.929,3.664-1.929
			c0.386,0.289,0.771,0.578,1.157,0.964c-0.192,1.447-1.832,1.543-2.894,2.314c-1.639,0.193-3.182,0.579-4.338,1.64
			c-2.122-0.097-3.376,1.735-5.401,1.64c-0.771,0.481-1.542,0.578-2.121,0.964c-0.771-0.097-1.446,0.193-2.025,0.482
			c-4.436,0-7.907,2.893-12.343,2.604c-0.579,0.386-1.64,0.386-2.219,0.482c-4.725,1.639-10.222,1.35-15.043,1.253
			c-2.219-0.578-4.918,0-6.847-0.964c-5.979-1.061-11.765-3.472-17.454-5.015c-2.701-1.061-5.208-2.7-7.715-4.05
			c-2.797-1.543-6.076-2.604-8.101-5.4c0-0.193,0-0.482,0.192-0.578C849.648,254.286,854.181,256.793,859.002,258.915z"/>
		<path style="fill:#17192D;" d="M924.674,240.497c0.289,0.097,0.481,0.193,0.675,0.387c-0.868,2.218-3.472,0.964-5.497,1.542
			c-1.736,0.289-3.375,0-5.111,0.097c-4.725,0.097-9.45-0.097-13.982,0c-2.41,0-5.593,0.192-8.101-0.097
			c-1.64-0.192-3.664,0-5.304,0.097c-3.953,0.386-7.715,0-11.861,0.29c-0.193-0.193-0.386-0.193-0.578-0.193
			c-1.736,0.867-3.664,0.096-5.305,0.385c-3.953,0.193-7.714,0.579-11.571,0.579c-2.7-1.157-5.497,0.579-8.294-0.097
			c-0.385-0.096,0.58-1.156,0.869-1.156c4.242-2.894,9.16,1.156,13.886-0.193c5.593-1.543,11.861-0.964,17.358-1.253
			c5.496-0.29,10.703,0.191,16.297,0c1.543-0.193,3.086-0.193,4.725-0.193c0.387,0,0.869,0.096,1.254,0.096
			c4.243-0.096,8.486-0.096,12.247-0.675C919.273,240.884,921.684,240.401,924.674,240.497z"/>
		<path style="fill:#17192D;" d="M908.568,192.667c-0.192-0.096,0.869-0.289,1.254-0.192c0.289,0,0.676,0,0.771,0
			c0.578,0.192,1.351,0.482,1.93,0.386c1.35,0.579,2.699,0.289,3.856,0.867c2.314,1.062,5.4,2.025,7.907,4.147
			c1.543,1.639,3.568,2.313,5.111,3.761c0.289,0.867,0.676,1.254,0.482,2.025c-1.543,0.096-2.314-2.122-3.762-2.7
			c-1.061-0.965-2.604-1.254-3.471-2.508c-0.193-0.096-0.579-0.482-0.771-0.578c-0.193-0.097-0.289-0.29-0.289-0.29
			c-0.097,0-0.482-0.192-0.482-0.289c-0.868-0.867-1.158-0.965-1.158-0.578c-0.674-0.193-1.156-0.676-1.832-0.579
			c-0.289-0.097-0.578-0.289-0.771-0.578c-1.156,0.192-1.445-0.386-2.024-0.482c-1.062-0.578-2.7,0-3.857-0.386
			c-0.579,0.097-1.061-0.482-1.735-0.386c-2.314-0.675-3.279-0.097-5.786,0.096c-3.183,1.158-3.278,0.869-5.304,1.64
			c-1.543,0.579-2.411,0.771-3.857,1.447c-1.447,0.675-2.025,1.446-3.472,2.121c-1.351,0.578-2.218,0.386-3.472,0.868
			c-1.446,0.578-2.314,1.254-3.664,1.832c-1.351,0.675-2.411,0.965-3.954,1.639c-1.446,0.869-2.218,1.736-3.954,2.219
			c-0.482,0-1.157,0.097-1.639,0.097c-0.482-0.097-1.061,0.096-1.351,0.096c-0.289,0.097-0.771-0.096-1.061-0.192
			c-1.735,0.578-2.7-0.578-4.532-0.386c-1.736-0.482-3.472-0.675-5.497-1.351c-1.929-1.061-4.437-1.542-6.558-2.989
			c-2.218-1.156-4.436-2.893-6.075-5.014c-0.192-0.29-0.964-1.062-0.289-0.965c1.735,0.771,3.278,2.507,5.11,3.183
			c4.918,3.086,10.029,4.918,15.141,5.399c0.578,0.29,1.254,0,1.929,0.29c0.964,0,2.314,0.289,3.375,0.096
			c3.472,0.387,2.7-1.156,4.146-1.735c1.543-0.579,2.507-0.481,3.857-1.157c0.964-0.578,1.446-1.253,2.604-1.735
			c0.964-0.579,1.639-1.062,2.893-1.254c2.893-0.29,2.989-0.868,4.436-2.121c0.676-0.387,1.061-0.868,1.832-1.157
			c0.676-0.579,1.254-0.289,2.121-0.579c1.158-0.29,1.736-0.675,2.894-1.061c1.062-0.386,2.218-0.868,2.796-0.868
			c2.025-0.868,3.184-0.289,5.111-0.482C908.087,192.281,908.666,192.667,908.568,192.667z"/>
		<path style="fill:#17192D;" d="M840.295,170.584c0,2.989-0.098,5.883,0.674,9.16c7.233,0.482,14.176,0.482,19.77-1.35
			c1.543-0.289,3.086-0.481,4.34-0.964c6.074-1.735,10.607-0.482,16.586-2.604c3.762-0.289,7.137-1.061,10.704-1.639
			c5.015-0.868,10.222-0.29,14.851-1.351c2.989,0,6.558-0.386,9.74-1.254c2.604,0.097,5.304-1.061,7.907-1.543
			c0.386,0.193,0.868,0.579,1.061,0.868c-0.386,2.893-4.628,1.254-6.461,2.122c-6.558,1.253-12.922,1.928-18.997,2.121
			c-3.664,0.096-7.521,1.061-11.283,1.543c-3.76,0.482-6.557,0.771-10.318,0.771c-1.061,0.579-2.507,0.771-3.857,0.481
			c-1.253,1.157-2.507,0.482-3.471,1.157c-3.183,0.482-6.558,1.351-10.029,1.833c-3.086,0-6.461,1.832-9.258,1.35
			c0,0-0.482,0.193-0.578,0.29c-2.797-0.097-6.172,0.289-10.029-1.157c-0.771,2.217-0.193,4.436-0.386,6.074
			c-0.579,6.076,1.254,11.669,0.29,17.358c0,0.482,0.578,1.157,0.191,1.64c-0.385,0.385-0.771,0.097-1.156,0
			c-1.061-1.447-0.771-3.761-0.771-5.4c-0.676-0.771,0.096-2.314-0.193-3.278c0.578-5.979-0.386-11.862-0.386-17.262
			c0-5.015-0.964-11.09-1.253-16.201c-0.387-0.868,0.385-1.446,0.867-1.832c0.097,0,0-0.193,0.097-0.097
			C839.908,164.316,840.295,167.402,840.295,170.584z"/>
		<path style="fill:#17192D;" d="M922.938,136.834c0.096,0.481-0.386,1.06-0.578,1.445c-0.29,0.772-1.061,0.387-1.736,0.193
			c-0.482-0.579-1.157,0.289-2.314-0.771c-1.735,1.061-3.568,1.254-4.821,1.157c-2.604,0.675-7.233,0.771-9.644,2.025
			c-0.965,0.097-0.867,1.446-1.736,2.314c-0.192,0.097-0.096,1.061-0.867,1.64c-2.411,3.471-4.34,6.364-6.558,10.125
			c-0.289,1.446-0.771,2.893-0.771,4.436c1.832,0.868,5.304,0.193,6.751,0.771c1.734-0.096,3.856-0.096,5.689,0
			c0.867-1.061,1.832-0.192,2.604-0.386c1.253,0.386,2.797,0,4.05,0.386c2.314-0.192,4.918,0.771,7.425,0
			c0.965-0.192,2.411,0.097,3.375,0.193c-0.096,0.289-0.192,0.578-0.481,0.675c-1.543,0.578-3.183,0-4.726,0.289
			c-0.192-0.097-0.385-0.192-0.867,0c-0.676,0-1.447,0.097-2.121,0.193c-1.736-0.386-2.412,0.771-5.208-0.386c0,0,0,0.868,0,0.675
			c-1.351-0.289-3.568-0.386-5.4,0c-1.253-0.386-2.7,0.097-3.761,0c-2.604,0.289-5.207-0.579-7.521,0.289
			c-0.098,0-0.289-0.096-0.289-0.096c-0.387-0.482-1.062,0.096-1.833-0.387c-6.075-0.386-12.247-0.771-18.419-1.253
			c-1.446-0.579-2.893-1.254-4.242-0.771c-1.93-0.386-4.051-0.965-6.076-1.446c-2.025-0.482-4.146-1.254-6.653-1.446
			c-0.579-0.193-1.64,0.481-1.735-0.579c-0.098-0.386-0.771-0.868-0.193-1.157c0.578-1.447,2.218-1.543,3.182-2.121
			c2.122-0.579,5.305-1.736,7.715-2.797c0.965-1.446,2.604-0.965,3.762-1.543c4.918-0.676,9.16-4.146,14.657-4.437
			c6.364-2.41,13.886-4.243,20.444-5.014c4.725-0.482,10.125-1.64,14.561-2.314c0.579,0.192,1.447-0.29,2.411-0.193
			C921.588,136.544,922.263,136.641,922.938,136.834z M851.77,160.17c0.289,0.386-0.578,0.676-0.964,0.771
			c-1.254,0.868-2.7-0.386-4.05,0.193c-0.387-0.097-0.579-0.193-0.869-0.386c-0.096-0.386,0.098-0.675,0.387-0.868
			c1.157-0.193,2.025-1.832,3.182-0.193C850.806,159.592,851.288,159.881,851.77,160.17z M888.703,144.838
			c-3.76-0.482-7.039,1.639-10.317,2.699c-2.218-0.192-3.761,1.543-5.979,1.929c-3.76,1.254-8.968,1.64-12.054,5.594
			c1.253,0.867,1.64,1.157,1.929,1.35c4.629,1.929,9.74,1.64,14.561,1.929c1.833,0.097,4.051,0.868,5.787,0.868
			c3.182-1.061,4.532,1.735,8.196,0.289c0.29-2.122,1.446-3.664,1.832-5.4c2.122-2.989,3.279-6.943,6.269-10.318
			c-0.289-0.289-0.193-0.386-0.193-1.157C894.779,142.427,891.982,143.295,888.703,144.838z M850.806,151.78
			c0.097,0.289-0.675,0.579-0.964,0.676c-1.254,0.867-2.122,0-3.375,0.578c-0.482,0-1.254,0.097-1.641-0.289
			c-0.096-0.289-0.096-0.482,0.193-0.676c1.35,0,1.929-2.41,3.472-0.867C849.648,151.105,850.324,151.395,850.806,151.78z"/>
		<path style="fill:#17192D;" d="M892.947,112.147c3.76,0.289,7.617,1.157,11.668,1.64c4.918,0.578,10.029,1.156,14.658,3.471
			c2.41,2.411,5.4,3.665,7.328,6.848c0.289,1.735,1.543,1.446,0.965,3.567c0.096,0.29-0.193,0-0.193-0.386
			c-2.218,0.097-1.156-0.482-2.797-2.7c-2.507,0.771-4.339-0.386-6.171,0.386c-7.715-0.482-14.368,0-21.891,0.771
			c-1.832,0.868-4.146,0.868-6.269,0.579c-1.35-0.482-2.796,0.481-4.436,0.192c-5.014-0.289-10.607-0.289-15.525,0.386
			c-3.664-0.192-7.232,0-10.994,0.386c-1.445-0.289-3.085-0.771-5.11-0.192c-0.579,1.35-1.253,1.061-0.771,2.218
			c-0.192,0.193-0.386,0.482-0.675,0.675c-0.289-0.097-0.578,0-0.868-0.289c0.386-2.797,2.218-4.34,3.954-6.461
			c3.375-3.086,7.715-4.532,11.379-7.521c2.41-1.543,4.918-1.736,7.521-2.797c3.279-0.482,6.943-0.29,10.125-0.964
			C887.547,112.629,890.15,112.437,892.947,112.147z M877.711,114.559c-3.762-0.193-6.365,1.543-9.934,2.604
			c-0.192,0.192-1.061,1.061-1.543,1.35c-2.699,1.929-5.882,2.797-8.775,6.654c3.473-0.29,5.208,0.964,6.848,0.289
			c2.41,0.289,4.532-0.965,6.943-1.061c3.471,1.061,7.232,0.192,10.8,0.675c3.278,0.386,6.847-0.386,10.222-0.579
			c5.979-2.313,12.922-0.674,19.094-1.35c2.99,0,6.461-0.482,11.187,0.097c-1.832-3.857-5.11-4.532-7.329-5.786
			c-5.689-1.543-11.379-2.508-17.262-3.086c-1.156-0.192-2.604,0.289-3.664-0.386C888.993,114.269,882.629,112.437,877.711,114.559z
			"/>
		<path style="fill:#17192D;" d="M842.416,85.243c0.193,1.639,0.867,2.796,1.157,4.532c-0.579,2.604-0.097,4.918,0.868,8.1
			c1.35-0.674,2.314-0.482,2.797-0.288c1.832-0.194,4.146,0.288,5.979,0.192c1.735-0.387,3.857-0.578,5.593-0.578
			c2.7-1.351,6.075-1.737,8.775-2.314c1.543,0.386,3.375,0,4.821,0.192c6.558,0,13.309-1.639,19.48-2.507
			c1.156,0.096,2.893-0.193,3.953,0.096c0.193-0.096,0.675-0.096,0.771-0.192c4.821-0.193,8.679-0.29,13.5-0.29
			c2.219,0,4.146,0.387,6.172,0.482h-0.096c-2.508,1.832-5.979,1.157-8.68,1.736c-3.953-0.964-8.1,1.06-12.343-0.579
			c-2.508,2.604-5.497,0.579-8.101,1.447c-2.41-0.29-5.304-0.193-7.329,1.061c-0.964-0.097-1.832,0.289-3.183-0.193
			c-2.314,1.351-5.207,0.676-7.617,0.676c-3.954-0.869-7.137,1.735-10.897,1.253c-2.7,1.351-5.786,1.157-8.872,1.157
			c-0.964-1.061-2.507-0.096-4.436-2.218c-0.676,4.242-0.289,6.75-0.482,9.354c0.482,2.025-0.289,4.244,0,6.461
			c-0.096,0.098-0.096,0.193-0.193,0.29c-0.771-0.097-0.964-0.965-1.253-1.543c0.579-1.929,0.481-3.857,0-5.786
			c-0.386-0.482,0-1.35,0.097-2.314c-1.061-1.446-0.193-3.568-0.965-4.918c0.482-1.543-0.193-3.182-0.096-4.726
			c-0.869-1.543,0.289-3.567-0.579-5.11c0-1.351-1.832-2.7-0.29-3.761c0.098-0.097,0.29-0.193,0.482-0.29
			C841.838,84.761,842.319,84.857,842.416,85.243z"/>
		<path style="fill:#17192D;" d="M925.155,67.885c-0.964,2.122-3.278,2.314-4.918,3.472c-2.218,1.157-4.628,2.314-7.136,2.604
			c-0.676,0.385-1.64,0.481-2.411,0.578c-6.461,1.157-12.729,3.761-19.479,3.953c-4.629,0.965-9.74,0.482-14.754,0.386
			c-4.146,0-9.451-1.156-13.598-2.988c-2.025-0.482-4.242-1.255-5.689-2.508c-2.121-0.579-3.761-2.122-5.593-3.278
			c-0.386-0.676-0.868-1.351-0.868-2.025c0-0.097-0.096-0.193-0.096-0.193c1.928,0.482,3.76,1.929,5.689,3.086
			c1.543,0.868,2.41,2.025,4.05,2.411c2.796,0.579,5.015,2.508,7.907,2.314c5.305,1.35,11.09,1.253,17.455,0.868
			c-0.965-2.219,0.675-3.086-0.098-4.437c0.098-0.578,0.193-0.964,0.387-1.35c0.289-0.29,0.482-0.579,0.867-0.29
			c0.193,0.193,0.29,0.29,0.482,0.482c-0.192,0.579,0.193,0.965,0.482,1.254c-0.289,1.254,0,2.507-0.193,4.05
			c4.726,0.482,7.908-0.867,11.766-1.061c1.639-0.771,4.146-0.964,6.172-1.543c1.832-0.579,4.05-0.579,5.785-1.639
			c1.447,0.192,3.086-0.29,4.244-1.736c2.506,0.097,4.436-1.735,7.328-2.314c0-0.771,0-0.482,0-0.482
			c0.482-0.192,1.447-1.253,2.604-0.867C925.445,67.113,925.349,67.499,925.155,67.885z"/>
		<path style="fill:#17192D;" d="M917.826,57.953c0,0.482-0.675,0.771-1.061,0.868c-1.446,0.964-3.472,0.097-5.014,0.868
			c-0.482,0-0.869-0.193-1.158-0.482c0-0.482,0.193-0.675,0.387-0.868c1.35-0.386,2.699-2.604,4.339-0.964
			C916.573,57.278,917.151,57.567,917.826,57.953z"/>
	</g>
	<path style="fill:none;stroke:#17192D;stroke-width:3;" d="M2048,0"/>
	<path style="fill:none;stroke:#17192D;stroke-width:3;" d="M2048,1536"/>
	<path style="fill:none;stroke:#17192D;stroke-width:3;" d="M0,1536"/>
	<path style="fill:none;stroke:#17192D;stroke-width:3;" d="M0,0"/>
</g>
<g id="Layer_1">
</g>
</svg>
