<svg xmlns="http://www.w3.org/2000/svg" width="2048" height="1536" viewBox="0 0 2048 1536"><g><g fill="#17192D"><path d="M1093.972 741.037c-7.617 3.375-14.176 7.812-20.828 12.247-.58.29-.77 1.06-2.025 1.06-3.087 3.088-6.943 3.376-9.74 6.174-2.51 1.254-5.304 2.7-8.197 4.918.387.288 1.06.577 1.35.77 2.025.965 4.05.193 5.883.29 5.787.192 11.09-.77 16.2-.867 4.92 0 9.452-1.16 13.792-.677.097.193.097.482.097.868-.29 2.22-2.798.676-3.857 1.062-4.63.578-8.68.677-13.693.868-6.172.387-12.248.098-18.42.77-4.146.386-7.906 0-11.86.868-6.558-.77-13.212 2.604-19.77 1.254-1.542 0-3.085.77-4.724.386-.676-.482-3.762.097-2.22-1.35 5.018-.772 10.225 0 15.333-.676 7.716-.29 15.912-.77 21.603-5.69.965-.288 1.736-.963 2.41-1.445 2.412-1.446 5.016-2.507 7.04-4.63 2.025-.674 3.857-1.83 5.497-2.988 2.893-2.894 6.75-3.954 9.934-6.173 0-.385.29-.29.48-.385.868-.388 1.543-1.158 2.604-1.93 0-.387 2.796-.965 2.7-1.254-.097-.29-3.28-.192-3.568-.386-4.436.964-9.932 1.35-15.043 1.832-5.497.482-9.163 1.543-14.37 1.64-1.832-.386-4.436 1.446-6.268-.097-2.025 0-3.185-.097-4.822.482-1.444 0-2.893-.194-4.63-.194-.384-.096-.77.29-1.155.29-1.64 1.06-2.508-1.447-3.762-.29-.578.193-1.156.676-1.734-.192-3.087.868-5.5.387-8.103-1.062-.867.386-1.156-.096-1.543-.386v-.29c.29-.674.867.29.867.194 0 0 .58.48 1.158-.098.388-.58 1.254.675 1.447.386 3.277.77 7.135.578 10.8.098 3.376.578 8.485-.386 11.67.29.673-.1 1.542-.677 2.698-.29 1.062-.965 2.508-.098 3.28-.675 4.048-.29 8.388-.965 12.534-.965 3.955-.386 8.295-.77 11.477-1.254.676.193 1.445-.385 2.12.1 1.64-.388 2.315-.388 3.57-.58 2.507-.48 5.687-.867 7.905-1.35.386 0 .867-.29 1.445-.965-.48-.868.578-.48.677-.48.866-.388 2.313.385 3.76-.1 0 .293.097.583 0 .872zM1090.79 729.177c.29.097.482.192.677.387-.87 2.218-3.474.964-5.498 1.543-1.735.29-3.376 0-5.11.096-4.728.097-9.45-.096-13.984 0-2.41 0-5.592.193-8.1-.096-1.64-.193-3.664 0-5.305.096-3.952.386-7.713 0-11.86.29-.19-.193-.385-.193-.578-.193-1.735.867-3.664.098-5.303.387-3.956.19-7.716.58-11.573.58-2.7-1.158-5.496.576-8.293-.1-.387-.096.578-1.156.867-1.156 4.245-2.893 9.16 1.157 13.888-.19 5.594-1.544 11.86-.965 17.357-1.254 5.496-.29 10.705.19 16.297 0 1.543-.193 3.086-.193 4.727-.193.385 0 .866.097 1.25.097 4.245-.097 8.487-.097 12.25-.675 2.89.767 5.3.285 8.29.382zM1098.41 708.25c1.25 1.063 0 .965-.193 1.353-5.4 4.725-12.923 3.76-18.71 7.52-4.145 1.544-8.58 2.123-12.633 3.087-3.182.098-6.073 1.446-9.063.867-.964.772-2.41 0-3.47.387-6.943 0-10.898-1.35-16.298-2.508-1.832.192-3.762-.386-5.21-1.64-2.505.29-4.53-.48-6.36-1.446-4.438-1.64-8.874-3.375-12.057-6.46 0 .095-.578-.194-.29-.387.772-.482 1.64.386 2.41.77 4.534.387 7.428 3.666 11.48 4.63 1.83.965 3.855.965 5.59 1.64 7.427 1.93 12.345 3.567 20.157 3.664.096 0 .29-.675.29.098 6.65-.387 12.34-1.93 18.417-2.604 6.17-1.928 12.343-4.145 18.515-6.074 1.64-1.06 3.568-1.93 5.69-2.698.576 0 1.638-1.062 1.927-.677.096 0 .77 0-.193.48zM1093.49 674.018c.097.288.097.675 0 .965-.58.29-.964.385-1.735.578-.48.098-.965.098-1.446.098-1.737.385-2.798.578-4.63 1.157-.386.19-.578.386-.964.578-.48 0-.676-.098-1.157-.098-2.026-.096-4.727.675-5.208.482-4.822.868-4.146 1.254-9.646 1.543-3.953.192-6.846.578-10.51.965 0 1.93-1.254 3.76-1.543 5.496-.098.966-.193 1.447-.387 2.412-.385 1.254-1.156 1.832-.965 3.183 0 2.7.193.867-1.35 3.567-.19.29-.29.675-1.35 2.12 2.313-.19 3.086-.385 4.146-.577 1.447.965 4.052.097 6.365.192 6.075.29 11.862-.58 17.358-.29 5.11.193 10.125-.77 14.658-.29.096.29.096.677.096 1.063-.385 2.313-3.086.58-4.146 1.062-4.822.386-9.258.386-14.658.386-6.557.192-13.112-.386-19.768.097-4.533.386-8.486-.29-12.633.482-7.04-1.157-14.176 2.313-21.12.676-1.735-.098-3.472.578-5.206.096-.866-.482-3.954-.193-2.313-1.544 5.4-.578 10.992.098 16.49-.097 8.1-.386 3.183-.772 5.303-.965 2.798-.29 4.437-.193 7.33-.193 2.604 0 4.05.29 6.847 0 .58-1.35.965-2.12 1.543-3.277 1.254-2.41.387.964.965-3.568.192-1.446.29-1.832.29-3.278 0-1.255.576-1.834.865-3.087.29-.868.193-1.832.388-3.472-1.255 0-1.64.098-2.22.098-2.024-.578-4.82 1.446-6.65-.29-2.315-.19-3.57-.386-5.5.387-1.35-.097-2.796-.29-4.53-.48-.387-.193-.965.288-1.353.288-1.543.868-2.506-1.64-3.952-.48-.675 0-1.35.675-2.025-.29-3.182.867-5.688.578-8.39-1.158-.868.387-1.254-.19-1.64-.675-.097-.097-.19-.29-.097-.48.29-.772.772.385.966.288 0 0 .578.48 1.156-.097.578-.48 1.06.772 1.64.483 3.665.867 7.618.867 11.38.385 3.664.868 9.064 0 12.535.868.87-.097 1.642-.77 2.99 0 1.156-1.253 2.604-.29 3.47-.868 4.44-.096 8.97-.48 13.405-.578 4.34 0 2.895-.675 6.172-1.157.676.192 1.736-.288 2.22.098 1.253-.192 2.41-.192 3.663-.385 2.604-.388 6.172-.58 8.486-1.157.385.19.867-.098 1.543-.868-.387-.868.674-.386.674-.58 1.065-.392 2.51.573 4.15.188zM1008.532 647.21c.193 1.64.87 2.797 1.158 4.532-.578 2.604-.098 4.918.867 8.1 1.35-.674 2.313-.48 2.797-.288 1.832-.192 4.146.29 5.98.192 1.735-.386 3.856-.578 5.593-.578 2.7-1.35 6.074-1.735 8.775-2.313 1.543.386 3.375 0 4.822.192 6.557 0 13.307-1.64 19.48-2.508 1.155.096 2.893-.193 3.952.096.193-.097.676-.097.77-.192 4.823-.193 8.68-.29 13.503-.29 2.216 0 4.145.387 6.17.483h-.097c-2.51 1.832-5.98 1.156-8.68 1.734-3.953-.963-8.1 1.063-12.343-.577-2.508 2.604-5.498.578-8.102 1.446-2.41-.29-5.304-.192-7.328 1.06-.965-.096-1.832.29-3.183-.192-2.313 1.35-5.21.676-7.62.676-3.95-.868-7.136 1.735-10.895 1.253-2.7 1.352-5.787 1.158-8.873 1.158-.964-1.062-2.507-.097-4.438-2.218-.674 4.242-.288 6.75-.48 9.354.48 2.026-.29 4.244 0 6.463-.097.097-.097.19-.192.288-.77-.096-.965-.963-1.254-1.542.578-1.93.482-3.856 0-5.786-.387-.48 0-1.35.096-2.313-1.06-1.447-.192-3.568-.965-4.92.482-1.54-.19-3.18-.096-4.724-.866-1.544.29-3.568-.577-5.11 0-1.35-1.832-2.7-.29-3.762.098-.096.29-.193.483-.29.388.094.87.19.966.576zM1078.93 630.816c3.76.965 6.46 4.146 10.222 5.304.578 1.062 1.832 1.64 2.41 2.7-.867.29-1.832-.578-2.604-.964-.676-.676-1.35-1.062-2.313-1.157-2.12-1.544-5.014-2.22-7.232-3.955-1.64-.578-4.05-.77-5.883-1.64-3.28-.192-6.557-.192-9.74.386-3.086.58-6.074 1.834-8.485 3.955-3.183 1.543-6.847 2.7-10.318 3.472-5.397 2.7-12.246 2.41-17.84.193-3.277 0-5.11-2.797-8.1-3.184-.867-.675-1.64-1.35-2.7-1.735-.58-.48-.29-1.253-.77-1.928 0-.192-.387.097-.192.192 1.35.098 2.797.675 3.953 1.254 5.11 3.953 11.957 4.146 18.13 5.496 4.34-.192 7.906-2.218 12.054-3.183 2.604-1.638 5.883-2.217 8.486-3.855 1.93-.192 3.473-2.41 5.496-1.93 4.34-1.542 9.45-1.542 13.598 0 .573.292 1.15.485 1.827.58zM1091.272 584.336c-.965 2.122-3.28 2.315-4.918 3.474-2.22 1.156-4.63 2.312-7.137 2.604-.674.386-1.64.482-2.41.58-6.46 1.156-12.73 3.76-19.48 3.952-4.63.964-9.738.48-14.754.386-4.146 0-9.45-1.157-13.596-2.99-2.025-.48-4.244-1.253-5.69-2.507-2.122-.578-3.76-2.12-5.593-3.278-.387-.675-.867-1.35-.867-2.024 0-.096-.098-.193-.098-.193 1.93.482 3.76 1.93 5.687 3.087 1.543.868 2.412 2.024 4.052 2.41 2.796.58 5.013 2.508 7.906 2.315 5.304 1.35 11.09 1.253 17.453.866-.966-2.218.676-3.086-.097-4.436.096-.58.193-.965.385-1.35.29-.29.482-.58.867-.29l.482.48c-.19.58.192.966.48 1.255-.288 1.254 0 2.508-.19 4.05 4.726.482 7.906-.867 11.765-1.06 1.64-.772 4.146-.966 6.172-1.545 1.832-.578 4.05-.578 5.787-1.64 1.446.192 3.085-.29 4.243-1.735 2.508.1 4.436-1.734 7.328-2.312v-.482c.482-.193 1.447-1.254 2.605-.868-.093.48-.19.866-.383 1.25zM1081.437 555.6c0 .098.096-.097.193 0-.677.29-1.158.772-1.834 1.062-2.507.965-5.304 1.446-8.005 2.12-2.216.483-4.24 1.352-6.46 1.737-1.35.288-2.893-.193-4.24-.098-1.352.288-2.122 1.542-3.088 2.313-2.12 1.157-4.24 1.35-7.23 3.375 3.085 1.447 5.784 1.254 7.907 1.93 5.398.192 10.51 2.217 15.042 5.11 1.254.29 2.797 1.253 4.24 1.06 1.737.676 3.667 1.255 5.596.483 1.157-.386 1.832.386 2.604.965-.385.29-.965.385-1.445.578-2.508-.097-.48.867-3.086.48-1.64-.19-8.003-.675-9.16-2.604-1.93-.48-4.437-1.64-7.522-2.41-4.34-1.062-9.45-1.93-12.15-2.7-3.955-1.156-2.12-1.06-6.46-1.445-2.025-1.543-4.147.77-6.077 1.253-8.003 1.93-15.812 2.7-23.624 4.63-1.543-.193-3.664-.772-5.11.096-1.642 0-3.953 1.062-4.822-.58 2.12-1.06 5.11-.288 7.328-1.06 3.856.676 8.584-.77 12.344-1.64 1.158-1.157 3.184-1.254 4.727-1.446 2.7-.387 5.4-1.253 8.1-1.832.29-.29 1.64.19 1.35-.387-2.12-.77-5.495-1.733-7.904-2.12-4.147-1.64-8.487-2.12-12.827-2.508-3.472-1.06-7.04-2.12-10.896-2.313-2.025-.965-4.244-.772-6.172-1.736-.29 0-.87-.867-.676-1.062 5.304 1.446 10.993 1.35 16.007 3.473 5.69.385 11.766 1.543 16.877 2.99 4.53 1.252 9.738 2.7 14.367.963 1.255-.675 2.413-2.024 3.956-2.12.385.288 1.06.192 1.444 0 2.025-1.448 4.34-2.22 6.46-3.28 3.28-.578 7.233 0 10.03-2.12 3.183-.966 6.56-1.833 9.74-2.41.477.288.38.77.477 1.253zM1090.79 543.064c.29.097.482.192.677.386-.87 2.218-3.474.965-5.498 1.543-1.735.29-3.376 0-5.11.097-4.728.098-9.45-.097-13.984 0-2.41 0-5.592.193-8.1-.097-1.64-.192-3.664 0-5.305.097-3.952.387-7.713 0-11.86.29-.19-.192-.385-.192-.578-.192-1.735.866-3.664.097-5.303.386-3.956.19-7.716.578-11.573.578-2.7-1.157-5.496.58-8.293-.098-.387-.096.578-1.155.867-1.155 4.245-2.896 9.16 1.154 13.888-.194 5.594-1.543 11.86-.964 17.357-1.254 5.496-.29 10.705.192 16.297 0 1.543-.192 3.086-.192 4.727-.192.385 0 .866.098 1.25.098 4.245-.098 8.487-.098 12.25-.677 2.89.77 5.3.29 8.29.384zM1074.687 521.368c-.193-.097.867-.29 1.252-.193h.77c.58.193 1.353.482 1.93.387 1.35.58 2.7.29 3.857.868 2.314 1.06 5.4 2.024 7.908 4.146 1.54 1.64 3.566 2.314 5.11 3.76.288.87.675 1.256.48 2.026-1.543.097-2.313-2.122-3.76-2.7-1.06-.964-2.604-1.254-3.473-2.508-.193-.096-.578-.48-.77-.578-.193-.097-.29-.29-.29-.29-.096 0-.48-.19-.48-.29-.868-.865-1.157-.963-1.157-.577-.676-.193-1.158-.676-1.832-.578-.29-.098-.58-.29-.77-.58-1.16.193-1.448-.386-2.026-.48-1.062-.58-2.7 0-3.857-.387-.578.097-1.06-.48-1.735-.387-2.314-.675-3.28-.096-5.785.098-3.185 1.157-3.28.868-5.306 1.64-1.543.578-2.41.77-3.856 1.446-1.445.675-2.025 1.446-3.472 2.122-1.35.578-2.22.386-3.473.867-1.445.578-2.313 1.255-3.664 1.833-1.35.675-2.41.965-3.954 1.64-1.446.868-2.22 1.736-3.953 2.218-.48 0-1.157.1-1.64.1-.483-.1-1.062.096-1.35.096-.29.096-.772-.097-1.063-.193-1.735.58-2.7-.578-4.532-.386-1.736-.48-3.472-.675-5.496-1.35-1.93-1.062-4.437-1.543-6.56-2.99-2.217-1.156-4.436-2.894-6.073-5.014-.194-.29-.967-1.062-.29-.966 1.735.77 3.278 2.51 5.11 3.184 4.918 3.087 10.03 4.92 15.14 5.4.58.29 1.254 0 1.93.29.965 0 2.314.288 3.375.097 3.47.386 2.7-1.157 4.146-1.736 1.544-.577 2.51-.48 3.857-1.156.965-.578 1.445-1.253 2.604-1.734.966-.58 1.64-1.062 2.894-1.254 2.893-.29 2.99-.867 4.436-2.12.677-.388 1.062-.87 1.832-1.158.677-.58 1.255-.29 2.123-.58 1.156-.288 1.734-.674 2.894-1.06 1.06-.387 2.216-.868 2.796-.868 2.022-.867 3.182-.29 5.11-.48.578-.008 1.156.378 1.06.378zM1008.532 493.5c.193 1.64.87 2.795 1.158 4.53-.578 2.605-.098 4.92.867 8.1 1.35-.674 2.313-.48 2.797-.287 1.832-.192 4.146.288 5.98.192 1.735-.386 3.856-.58 5.593-.58 2.7-1.35 6.074-1.733 8.775-2.31 1.543.384 3.375 0 4.822.19 6.557 0 13.307-1.64 19.48-2.507 1.155.097 2.893-.192 3.952.097.193-.097.676-.097.77-.192 4.823-.193 8.68-.29 13.503-.29 2.216 0 4.145.387 6.17.482h-.097c-2.51 1.832-5.98 1.156-8.68 1.735-3.953-.965-8.1 1.062-12.343-.58-2.508 2.605-5.498.58-8.102 1.447-2.41-.29-5.304-.192-7.328 1.062-.965-.098-1.832.288-3.183-.193-2.313 1.35-5.21.676-7.62.676-3.95-.87-7.136 1.735-10.895 1.253-2.7 1.35-5.787 1.157-8.873 1.157-.964-1.062-2.507-.097-4.438-2.218-.674 4.243-.288 6.75-.48 9.354.48 2.024-.29 4.242 0 6.46-.097.098-.097.193-.192.29-.77-.097-.965-.965-1.254-1.543.578-1.93.482-3.856 0-5.786-.387-.48 0-1.35.096-2.312-1.06-1.446-.192-3.568-.965-4.918.482-1.543-.19-3.183-.096-4.726-.866-1.543.29-3.568-.577-5.11 0-1.35-1.832-2.7-.29-3.76.098-.1.29-.194.483-.29.388.093.87.19.966.575zM1090.79 482.794c.29.098.482.193.677.387-.87 2.22-3.474.966-5.498 1.544-1.735.29-3.376 0-5.11.097-4.728.098-9.45-.096-13.984 0-2.41 0-5.592.193-8.1-.096-1.64-.192-3.664 0-5.305.097-3.952.387-7.713 0-11.86.29-.19-.192-.385-.192-.578-.192-1.735.868-3.664.098-5.303.387-3.956.192-7.716.578-11.573.578-2.7-1.157-5.496.578-8.293-.097-.387-.097.578-1.157.867-1.157 4.245-2.894 9.16 1.156 13.888-.193 5.594-1.543 11.86-.964 17.357-1.253 5.496-.29 10.705.19 16.297 0 1.543-.193 3.086-.193 4.727-.193.385 0 .866.098 1.25.098 4.245-.097 8.487-.097 12.25-.675 2.89.768 5.3.285 8.29.38zM1091.272 463.798c-.965 2.122-3.28 2.315-4.918 3.473-2.22 1.157-4.63 2.314-7.137 2.605-.674.387-1.64.48-2.41.578-6.46 1.157-12.73 3.76-19.48 3.954-4.63.964-9.738.48-14.754.385-4.146 0-9.45-1.155-13.596-2.987-2.025-.482-4.244-1.255-5.69-2.51-2.122-.578-3.76-2.12-5.593-3.276-.387-.678-.867-1.353-.867-2.026 0-.097-.098-.193-.098-.193 1.93.483 3.76 1.93 5.687 3.088 1.543.867 2.412 2.024 4.052 2.41 2.796.58 5.013 2.51 7.906 2.314 5.304 1.35 11.09 1.254 17.453.868-.966-2.218.676-3.086-.097-4.437.096-.58.193-.965.385-1.35.29-.29.482-.58.867-.29l.482.48c-.19.58.192.966.48 1.255-.288 1.254 0 2.507-.19 4.05 4.726.48 7.906-.867 11.765-1.06 1.64-.772 4.146-.965 6.172-1.544 1.832-.578 4.05-.578 5.787-1.64 1.446.193 3.085-.29 4.243-1.735 2.508.097 4.436-1.735 7.328-2.314v-.482c.482-.19 1.447-1.253 2.605-.866-.093.478-.19.864-.383 1.25zM1081.532 442.295c-3.47 2.507-7.906 2.12-11.09 4.82-1.254.387-2.604 1.062-3.664 1.737-2.99-.098-6.076 1.832-10.125 3.664 2.604 1.06 4.53.77 5.88.386 5.692 0 10.706-.965 16.686-.098 1.64 0 3.662-.48 5.11.193 2.796.096 6.075-.676 8.485.675l.193.192c-2.025.58-4.63.386-6.654.29-1.736-.482-3.568.19-5.496.19-3.762.1-7.715-1.253-11.09.388-3.086.386-5.98-1.062-8.97 0-2.7.867-5.4-.482-7.907.77-4.628-.77-10.606.098-15.62-.77-5.69 0-11.478.386-17.07-.578-3.084-.098-4.338-.676-7.23-1.254-.098 0 .48-.676.48-.868 3.086-1.832 4.146-2.41 7.426-3.664 4.533-1.832 9.354-1.446 13.888-2.7 6.362.096 12.633.964 17.262 7.04 8.486-5.11 17.55-5.69 25.748-10.126 3.664-1.156 7.04-2.988 10.703-4.146.578 0 1.543-.388 2.22-.193-2.993 1.736-6.08 3.087-9.165 4.052zm-54.29 6.364c-1.255.385-2.798-.098-3.956.674-1.543-.19-2.987.675-4.24 1.157l-2.315 1.64c.868.1 4.245.388 5.208.58 1.254 1.253 3.474.674 5.017 1.06 7.135-.963 15.14.193 23.723-.19-1.254-1.544-2.508-1.93-3.184-2.605-1.35-1.352-5.11-2.798-7.617-3.857-4.343.576-8.972-.388-12.636 1.54zM1006.41 418.38c0 2.988-.095 5.88.677 9.16 7.232.48 14.177.48 19.77-1.35 1.542-.29 3.085-.483 4.34-.965 6.075-1.736 10.606-.482 16.585-2.604 3.762-.29 7.137-1.06 10.705-1.64 5.014-.867 10.22-.288 14.853-1.35 2.987 0 6.557-.387 9.737-1.254 2.604.098 5.306-1.06 7.908-1.543.385.192.867.578 1.062.867-.388 2.894-4.63 1.254-6.462 2.122-6.557 1.254-12.922 1.93-18.998 2.12-3.663.098-7.52 1.063-11.282 1.544-3.76.48-6.558.77-10.318.77-1.06.58-2.506.772-3.857.483-1.252 1.156-2.506.48-3.47 1.156-3.183.48-6.558 1.35-10.03 1.832-3.086 0-6.46 1.832-9.258 1.35 0 0-.482.193-.578.29-2.797-.097-6.172.29-10.03-1.157-.77 2.22-.19 4.438-.384 6.076-.578 6.075 1.254 11.67.29 17.358 0 .48.577 1.155.192 1.64-.387.385-.77.096-1.158 0-1.06-1.447-.77-3.762-.77-5.4-.675-.77.096-2.314-.193-3.278.58-5.98-.384-11.86-.384-17.263 0-5.015-.966-11.09-1.255-16.2-.384-.867.39-1.446.87-1.83.097 0 0-.194.097-.1.957 2.897 1.344 5.983 1.344 9.166zM1062.054 366.21c6.073-.772 11.475 2.22 17.067 3.473 2.315 1.253 5.016 1.445 7.716 3.182.867-.29.964.385 1.252.77 0 .097-.096-.48-.096-.48-3.276 1.928-7.135 4.05-11.186 5.207-2.12.964-4.726 1.254-6.85 1.93-2.603.77-5.11 1.64-7.616 2.312-5.207.48-8.582 1.35-13.598 1.833-3.762-.676-8.197-.29-11.572-1.735-2.12.77-4.725-.192-6.75-.676-2.508.48-4.532-1.832-6.942-2.122-2.604-1.157-5.884-.964-7.715-3.182.098-.098-1.062-.77-.386-1.543.193-.193.29-.388.482-.58 1.638-1.157 2.796-2.798 4.82-3.664 4.437-2.507 9.45-4.918 15.044-4.727 2.988.578 5.88-1.93 8.87-.386 5.5 0 12.06-.676 17.46.385zm-43.782 7.81c-.387 1.062-1.254 2.7.676 2.7 6.75 2.508 13.5 3.857 20.443 4.92 6.75.963 13.116 1.542 19.673-.29 8.39-2.41 17.262-3.953 26.713-8.392-5.498-1.06-8.584-2.7-11.96-3.276-7.425-.482-14.175-2.7-21.696-2.51-12.15.194-24.396 1.545-33.848 6.85zM1059.063 341.04c3.762.29 7.62 1.158 11.668 1.64 4.92.58 10.03 1.157 14.66 3.473 2.41 2.41 5.398 3.665 7.33 6.847.287 1.736 1.54 1.446.962 3.568.098.29-.193 0-.193-.387-2.218.1-1.157-.48-2.796-2.698-2.508.77-4.34-.386-6.172.386-7.715-.48-14.37 0-21.892.77-1.832.87-4.146.87-6.268.58-1.353-.48-2.797.48-4.437.192-5.016-.29-10.608-.29-15.526.386-3.665-.19-7.233 0-10.993.386-1.447-.29-3.086-.77-5.11-.19-.578 1.35-1.255 1.06-.77 2.217-.194.192-.388.48-.677.674-.29-.097-.578 0-.867-.29.385-2.796 2.217-4.34 3.953-6.46 3.375-3.086 7.715-4.53 11.38-7.52 2.41-1.544 4.917-1.736 7.52-2.797 3.278-.482 6.942-.29 10.127-.966 2.7.673 5.304.48 8.1.19zm-15.236 2.412c-3.76-.193-6.365 1.542-9.932 2.604-.193.19-1.062 1.06-1.543 1.35-2.7 1.93-5.883 2.797-8.777 6.654 3.474-.29 5.21.965 6.85.29 2.408.287 4.53-.966 6.94-1.063 3.472 1.062 7.233.193 10.802.676 3.28.387 6.847-.386 10.222-.578 5.978-2.314 12.923-.676 19.095-1.35 2.988 0 6.46-.483 11.187.096-1.832-3.855-5.11-4.53-7.33-5.785-5.69-1.543-11.38-2.508-17.26-3.086-1.158-.193-2.605.288-3.667-.387-5.305.29-11.67-1.543-16.588.58zM1091.272 322.91c-.965 2.123-3.28 2.316-4.918 3.474-2.22 1.157-4.63 2.313-7.137 2.604-.674.386-1.64.482-2.41.578-6.46 1.158-12.73 3.76-19.48 3.954-4.63.964-9.738.48-14.754.386-4.146 0-9.45-1.157-13.596-2.99-2.025-.48-4.244-1.253-5.69-2.507-2.122-.58-3.76-2.122-5.593-3.28-.387-.674-.867-1.35-.867-2.023 0-.097-.098-.193-.098-.193 1.93.482 3.76 1.93 5.687 3.087 1.543.87 2.412 2.025 4.052 2.41 2.796.58 5.013 2.51 7.906 2.316 5.304 1.35 11.09 1.253 17.453.866-.966-2.218.676-3.086-.097-4.436.096-.58.193-.965.385-1.35.29-.29.482-.58.867-.29.193.19.29.29.482.48-.19.58.192.965.48 1.254-.288 1.254 0 2.508-.19 4.05 4.726.482 7.906-.866 11.765-1.06 1.64-.77 4.146-.965 6.172-1.544 1.832-.578 4.05-.578 5.787-1.64 1.446.192 3.085-.29 4.243-1.735 2.508.098 4.436-1.734 7.328-2.312v-.48c.482-.194 1.447-1.255 2.605-.87-.093.483-.19.868-.383 1.253zM1081.532 301.408c-3.47 2.507-7.906 2.12-11.09 4.82-1.254.387-2.604 1.062-3.664 1.736-2.99-.097-6.076 1.832-10.125 3.664 2.604 1.062 4.53.77 5.88.387 5.692 0 10.706-.966 16.686-.098 1.64 0 3.662-.48 5.11.193 2.796.097 6.075-.676 8.485.675.096.097.096.097.193.192-2.025.58-4.63.386-6.654.29-1.736-.482-3.568.19-5.496.19-3.762.1-7.715-1.252-11.09.388-3.086.386-5.98-1.062-8.97 0-2.7.867-5.4-.482-7.907.77-4.628-.77-10.606.098-15.62-.77-5.69 0-11.478.386-17.07-.578-3.084-.098-4.338-.677-7.23-1.254-.098 0 .48-.676.48-.868 3.086-1.832 4.146-2.41 7.426-3.664 4.533-1.83 9.354-1.445 13.888-2.7 6.362.098 12.633.965 17.262 7.04 8.486-5.11 17.55-5.688 25.748-10.125 3.664-1.157 7.04-2.99 10.703-4.146.578 0 1.543-.387 2.22-.193-2.993 1.738-6.08 3.086-9.165 4.05zm-54.29 6.364c-1.255.386-2.798-.098-3.956.675-1.543-.192-2.987.675-4.24 1.157l-2.315 1.64c.868.097 4.245.386 5.208.58 1.254 1.252 3.474.674 5.017 1.06 7.135-.965 15.14.192 23.723-.192-1.254-1.543-2.508-1.93-3.184-2.604-1.35-1.35-5.11-2.797-7.617-3.856-4.343.577-8.972-.387-12.636 1.54zM1092.91 249.045c1.255.48 2.124-.192 3.087 0-.29.675-.77 1.253-.77 2.024-.386 1.06-1.737 1.253-2.507 2.024-.773.19-.87 1.253-1.736 1.83-2.024 1.256-3.856 2.605-5.883 4.052-3.952.965-7.52 3.665-12.15 4.146-3.566 1.64-8.195 1.544-12.148 1.64-2.412 1.93-6.27.193-9.162 1.255-1.445.19-2.314-.387-3.47-.387-3.954 1.062-7.522-.48-11.19-1.06-2.602-1.158-5.4-1.448-7.905-2.798-.77-.578-1.93-.386-2.7-.675-3.087-2.025-6.652-3.28-9.45-5.497-1.35-.29-1.735-1.93-3.085-2.22-.482-.674-1.447-1.253-.867-2.698-.87-.676-1.642-2.025 0-1.735.385-.29.578-.097.096.29 3.18 3.855 8.388 7.425 13.5 10.124 1.93 0 3.856 1.063 5.013 2.026 3.955 1.06 7.62 2.507 11.67 2.507 1.445 0 2.894.29 4.146-.097 2.507.29 4.82.965 7.425.29 2.506-.193 5.015-.482 7.424-.966 7.714-1.543 16.104-1.928 22.47-6.17 2.314-1.544 3.953-2.895 5.98-5.21-.29-.48 1.252-.385.963-1.06-5.98.29-13.403.48-18.803.867-2.412 1.062-5.21-.192-7.812.192-2.314.288-4.726-.29-7.136-.193-1.157 0-2.22-.192-3.278.192-1.736-.29-3.953.192-5.4-.772-.676-.58.867-.482 1.06-.87 1.544-.577 3.087-.77 4.823-.096 1.35.192 2.7-.675 3.953-.675 3.568 0 6.654.964 9.064.675 0-.29 1.157 0 2.12 0 .677-.192 1.353-.192 1.736-.097 2.12 0 3.473-.386 5.4-.097 3.473-.867 7.81 0 10.606-.77.87-.193.77-.098 1.64-.193 1.443.007 2.12-.476 3.275.2zM1091.272 229.95c-.965 2.123-3.28 2.315-4.918 3.473-2.22 1.157-4.63 2.314-7.137 2.604-.674.386-1.64.48-2.41.58-6.46 1.155-12.73 3.76-19.48 3.952-4.63.964-9.738.48-14.754.385-4.146 0-9.45-1.156-13.596-2.99-2.025-.48-4.244-1.253-5.69-2.506-2.122-.58-3.76-2.123-5.593-3.28-.387-.675-.867-1.35-.867-2.023 0-.098-.098-.193-.098-.193 1.93.482 3.76 1.93 5.687 3.086 1.543.868 2.412 2.025 4.052 2.41 2.796.58 5.013 2.508 7.906 2.315 5.304 1.35 11.09 1.253 17.453.866-.966-2.217.676-3.084-.097-4.435.096-.578.193-.964.385-1.352.29-.288.482-.577.867-.288l.482.48c-.19.58.192.966.48 1.255-.288 1.254 0 2.507-.19 4.05 4.726.482 7.906-.866 11.765-1.06 1.64-.772 4.146-.965 6.172-1.544 1.832-.578 4.05-.578 5.787-1.64 1.446.192 3.085-.29 4.243-1.735 2.508.098 4.436-1.735 7.328-2.313v-.48c.482-.193 1.447-1.254 2.605-.87-.093.482-.19.868-.383 1.254zM1078.93 211.34c3.76.966 6.46 4.147 10.222 5.306.578 1.06 1.832 1.64 2.41 2.7-.867.288-1.832-.58-2.604-.965-.676-.675-1.35-1.06-2.313-1.156-2.12-1.543-5.014-2.22-7.232-3.953-1.64-.578-4.05-.77-5.883-1.64-3.28-.192-6.557-.192-9.74.387-3.086.578-6.074 1.832-8.485 3.953-3.183 1.543-6.847 2.7-10.318 3.472-5.397 2.7-12.246 2.41-17.84.192-3.277 0-5.11-2.797-8.1-3.182-.867-.676-1.64-1.35-2.7-1.736-.58-.48-.29-1.254-.77-1.93 0-.19-.387.098-.192.194 1.35.096 2.797.675 3.953 1.253 5.11 3.954 11.957 4.146 18.13 5.497 4.34-.193 7.906-2.22 12.054-3.184 2.604-1.64 5.883-2.218 8.486-3.856 1.93-.192 3.473-2.41 5.496-1.93 4.34-1.543 9.45-1.543 13.598 0 .573.292 1.15.484 1.827.58zM1098.41 189.065c1.25 1.06 0 .964-.193 1.35-5.4 4.727-12.923 3.762-18.71 7.522-4.145 1.543-8.58 2.12-12.633 3.086-3.182.097-6.073 1.446-9.063.868-.964.772-2.41 0-3.47.387-6.943 0-10.898-1.352-16.298-2.508-1.832.19-3.762-.388-5.21-1.642-2.505.29-4.53-.48-6.36-1.445-4.438-1.64-8.874-3.375-12.057-6.46 0 .096-.578-.194-.29-.388.772-.48 1.64.387 2.41.77 4.534.387 7.428 3.666 11.48 4.63 1.83.965 3.855.965 5.59 1.64 7.427 1.93 12.345 3.568 20.157 3.664.096 0 .29-.676.29.097 6.65-.387 12.34-1.93 18.417-2.604 6.17-1.93 12.343-4.146 18.515-6.076 1.64-1.06 3.568-1.93 5.69-2.698.576 0 1.638-1.063 1.927-.677.096 0 .77 0-.193.482zM1093.49 154.83c.097.29.097.677 0 .966-.58.29-.964.386-1.735.578-.48.098-.965.098-1.446.098-1.737.386-2.798.577-4.63 1.156-.386.192-.578.387-.964.578-.48 0-.676-.097-1.157-.097-2.026-.097-4.727.675-5.208.48-4.822.868-4.146 1.255-9.646 1.543-3.953.192-6.846.58-10.51.966 0 1.928-1.254 3.76-1.543 5.495-.098.965-.193 1.445-.387 2.41-.385 1.253-1.156 1.832-.965 3.183 0 2.7.193.87-1.35 3.567-.19.29-.29.676-1.35 2.12 2.313-.19 3.086-.384 4.146-.577 1.447.966 4.052.098 6.365.193 6.075.29 11.862-.578 17.358-.288 5.11.192 10.125-.77 14.658-.29.096.29.096.675.096 1.062-.385 2.313-3.086.58-4.146 1.062-4.822.386-9.258.386-14.658.386-6.557.192-13.112-.386-19.768.097-4.533.385-8.486-.29-12.633.48-7.04-1.157-14.176 2.314-21.12.677-1.735-.098-3.472.577-5.206.096-.866-.482-3.954-.192-2.313-1.543 5.4-.578 10.992.097 16.49-.098 8.1-.385 3.183-.77 5.303-.964 2.798-.29 4.437-.192 7.33-.192 2.604 0 4.05.29 6.847 0 .58-1.35.965-2.12 1.543-3.278 1.254-2.41.387.964.965-3.568.192-1.445.29-1.832.29-3.277 0-1.254.576-1.832.865-3.086.29-.868.193-1.832.388-3.473-1.255 0-1.64.098-2.22.098-2.024-.58-4.82 1.445-6.65-.29-2.315-.192-3.57-.386-5.5.387-1.35-.098-2.796-.29-4.53-.483-.387-.192-.965.29-1.353.29-1.543.867-2.506-1.64-3.952-.482-.675 0-1.35.676-2.025-.29-3.182.87-5.688.58-8.39-1.156-.868.385-1.254-.193-1.64-.676-.097-.097-.19-.29-.097-.482.29-.77.772.387.966.29 0 0 .578.48 1.156-.097.578-.482 1.06.77 1.64.48 3.665.868 7.618.868 11.38.388 3.664.867 9.064 0 12.535.867.87-.098 1.642-.77 2.99 0 1.156-1.254 2.604-.29 3.47-.867 4.44-.098 8.97-.482 13.405-.58 4.34 0 2.895-.674 6.172-1.156.676.193 1.736-.29 2.22.098 1.253-.193 2.41-.193 3.663-.387 2.604-.386 6.172-.58 8.486-1.156.385.19.867-.098 1.543-.868-.387-.868.674-.387.674-.58 1.065-.39 2.51.573 4.15.187zM1090.79 143.453c.29.096.482.193.677.386-.87 2.218-3.474.965-5.498 1.542-1.735.29-3.376 0-5.11.097-4.728.097-9.45-.098-13.984 0-2.41 0-5.592.19-8.1-.098-1.64-.192-3.664 0-5.305.097-3.952.386-7.713 0-11.86.29-.19-.193-.385-.193-.578-.193-1.735.867-3.664.096-5.303.385-3.956.193-7.716.58-11.573.58-2.7-1.158-5.496.577-8.293-.098-.387-.097.578-1.156.867-1.156 4.245-2.894 9.16 1.156 13.888-.192 5.594-1.545 11.86-.966 17.357-1.255 5.496-.29 10.705.193 16.297 0 1.543-.19 3.086-.19 4.727-.19.385 0 .866.096 1.25.096 4.245-.096 8.487-.096 12.25-.675 2.89.77 5.3.287 8.29.383zM1025.12 127.06c1.445.193 2.41 1.64 4.05 1.64 3.085 1.544 5.978 2.315 9.74 2.508.577.29 1.542.386 2.216.58 2.123.192 4.052 1.156 6.076 1.156 1.254.386 2.99-.29 4.146 1.254 1.543-.386 2.7-.77 3.664-1.254.387-.77 1.446-1.736 1.352-2.797.674-1.062.096-1.928.578-3.278.578-1.833.578-2.895 1.543-4.822.482-.386.965-.77 1.543-.676.385.965 0 2.122 0 3.28-1.254 2.506-1.06 3.855-1.93 7.136.77.48.48.867.77 1.06 2.413.388 5.018.098 7.042-.385 1.254.192 2.314-.29 4.242-.29.385-1.156 1.254-.288 1.832-.578 3.473-.288 6.56-2.218 10.125-2.41 1.542-1.352 4.145-1.157 5.687-2.314 1.832.193 2.797-2.217 5.11-1.64 1.16-.866 2.22-1.93 3.667-1.93.385.29.77.58 1.156.967-.193 1.445-1.832 1.543-2.894 2.313-1.64.192-3.184.578-4.34 1.64-2.12-.097-3.375 1.735-5.4 1.64-.77.482-1.542.58-2.12.965-.77-.097-1.447.192-2.025.482-4.435 0-7.907 2.893-12.343 2.604-.578.387-1.64.387-2.22.483-4.725 1.64-10.22 1.35-15.042 1.254-2.218-.58-4.918 0-6.847-.965-5.98-1.062-11.766-3.474-17.454-5.016-2.7-1.06-5.207-2.7-7.716-4.05-2.797-1.543-6.073-2.604-8.1-5.4 0-.192 0-.48.193-.577 4.345 2.793 8.878 5.3 13.7 7.42zM1086.354 90.416c-1.158.868-2.7 1.447-3.857 2.41-4.725 1.35-9.836 2.605-14.947 2.605-3.663.58-7.426 1.352-10.993 2.22-1.93-.193-4.146-.58-6.363-.097-.29.77-.29 1.06-1.447 1.35 1.062 2.797 3.28 4.726 4.34 6.75.578.29 1.156 1.062.965 1.736-.387 1.155.19 1.155.867 1.83.866 0 1.64.098 2.41.482 2.024-.675 3.567-.675 5.206-.097 1.834 1.06 3.377.29 5.4 0 3.856-.578 7.522-1.446 11.477-1.64 3.086-.097 6.172-.097 9.45-.097.29.096.58.192.48.482 0 .287-.385.577-.674.675-4.822.29-9.452.48-13.693 1.832-3.185-.097-5.787.868-8.775.578-7.137-.675-14.658 0-21.408.867-2.99-.675-5.305.58-8.196.387-7.52-.58-15.332-.58-21.986-2.8-.965-.287-.482-1.06-.965-1.733.096-.29.578 0 .77-.097 2.315.48 4.342 1.543 6.655 1.446.096.097.096.097.193.192 3.953-.192 7.616 1.062 11.09.867 2.604 1.446 5.496-.386 8.293.097 3.567.58 6.557-.675 10.03-1.156.478-.387 1.154-.77 1.83-1.544-1.157-3.086-4.727-5.015-5.11-7.52.482 0-.676-.772-.193-2.315-2.987-.867-5.4.29-7.616-.77-1.835-.483-3.667.48-5.596-.58-2.604 1.254-4.918.097-7.426.29-1.444-1.254-2.024 1.253-3.76.097-1.642.482-3.857.77-5.21 0 .1-.386.1-.676 0-1.06 1.448-.87 3.474.288 4.92-.87 2.122-.192 3.665.965 5.786.58 6.172-1.158 13.018.19 19.287-.193 4.34-.192 9.064.483 13.212-.964 6.557-1.062 13.404-1.93 19.576-3.182 1.543-.966 3.375-2.025 5.303-1.93.288.294.577.487.674.872zM1008.532 62.74c.193 1.64.87 2.796 1.158 4.532-.578 2.604-.098 4.918.867 8.1 1.35-.674 2.313-.48 2.797-.29 1.832-.19 4.146.29 5.98.194 1.735-.386 3.856-.578 5.593-.578 2.7-1.352 6.074-1.736 8.775-2.314 1.543.387 3.375 0 4.822.192 6.557 0 13.307-1.64 19.48-2.507 1.155.095 2.893-.194 3.952.095.193-.096.676-.096.77-.19 4.823-.194 8.68-.29 13.503-.29 2.216 0 4.145.386 6.17.48h-.097c-2.51 1.832-5.98 1.157-8.68 1.736-3.953-.964-8.1 1.062-12.343-.578-2.508 2.604-5.498.58-8.102 1.447-2.41-.29-5.304-.194-7.328 1.06-.965-.097-1.832.29-3.183-.192-2.313 1.35-5.21.676-7.62.676-3.95-.868-7.136 1.734-10.895 1.253-2.7 1.35-5.787 1.157-8.873 1.157-.964-1.062-2.507-.098-4.438-2.22-.674 4.244-.288 6.75-.48 9.355.48 2.023-.29 4.243 0 6.46-.097.097-.097.192-.192.29-.77-.098-.965-.965-1.254-1.543.578-1.93.482-3.857 0-5.786-.387-.48 0-1.35.096-2.313-1.06-1.445-.192-3.567-.965-4.918.482-1.544-.19-3.184-.096-4.727-.866-1.543.29-3.568-.577-5.11 0-1.35-1.832-2.7-.29-3.76.098-.098.29-.194.483-.29.388.095.87.192.966.577zM1204.432 611.496c.29.097.482.19.677.386-.87 2.218-3.475.965-5.5 1.543-1.733.29-3.374 0-5.108.097-4.728.097-9.45-.097-13.984 0-2.41 0-5.592.192-8.1-.097-1.64-.19-3.664 0-5.305.097-3.953.386-7.714 0-11.86.29-.192-.193-.386-.193-.58-.193-1.734.867-3.663.096-5.302.385-3.954.193-7.714.58-11.57.58-2.702-1.158-5.497.578-8.294-.098-.387-.098.578-1.157.867-1.157 4.244-2.894 9.16 1.157 13.887-.192 5.594-1.543 11.86-.965 17.357-1.254s10.705.192 16.297 0c1.543-.193 3.086-.193 4.727-.193.387 0 .868.1 1.253.1 4.244-.1 8.486-.1 12.248-.676 2.89.767 5.3.285 8.292.382zM1141.46 584.11c1.063 0 2.605-.098 3.76-.193 2.8-1.735 7.14 0 10.417.386 2.025-1.156 5.4-.48 7.52-.675 3.087-.77 7.138.193 10.706.193 6.268 0 13.5-.192 19.768-.48.966-.098 1.93-.677 2.798-.29.096.097.193-.097.29-.097-2.218 1.446-4.92 1.543-7.138 2.507-3.182 2.797-6.846 4.243-10.22 6.365-4.053 1.832-8.198 3.182-11.862 5.98-1.158.577-2.22 1.253-3.375 1.83l-2.797 1.353 3.182.19c7.52.483 14.562-1.35 22.277-.288 3.086 0 5.98-1.254 8.967-.676.77-.096 1.736 0 2.412 0-.098.193 0 .58-.098.676-.77 0-1.445.192-2.12.676-.772.386-1.737.386-2.605.577-2.603.29-5.206-.096-7.81.482-7.04.193-13.888-.675-20.734.097-3.182-.58-6.363 1.062-9.45.193-2.023.48-4.628-.58-6.17.578-4.63-.482-9.163-1.254-13.982-1.254-1.062-.388-2.7 0-3.185-1.158-.097-.096.58-1.06.58-.578 5.206-1.35 9.643 1.735 15.62 1.06 3.086-.385 6.268 0 9.547-.964.965-1.35 2.412-1.253 3.474-2.12 1.93-.29 3.857-.772 5.11-2.122 4.92-2.41 9.934-3.278 13.886-6.847 1.158-.48 2.314-1.06 3.568-2.12 0-.29 2.797-1.544 2.797-1.833-.095-.19-2.99.482-2.99.098-3.76 0-7.23-.677-10.22.386-5.4-1.35-10.994-1.446-16.78-.192-4.145-.48-8.39-1.06-12.437-.29-3.377-1.444-7.137 1.544-10.223-1.155-.29-.868-1.832-.578-1.736-1.64 3.278-.582 6.075 1.25 9.257 1.347zM1172.705 531.747c3.762.29 7.62 1.157 11.668 1.64 4.918.58 10.03 1.157 14.658 3.473 2.41 2.41 5.4 3.664 7.33 6.847.29 1.735 1.542 1.446.964 3.568.098.288-.193 0-.193-.388-2.216.098-1.155-.48-2.794-2.7-2.508.772-4.34-.385-6.172.388-7.715-.482-14.37 0-21.892.77-1.832.868-4.146.868-6.268.58-1.353-.482-2.797.48-4.437.192-5.016-.29-10.608-.29-15.526.386-3.663-.193-7.23 0-10.99.385-1.448-.29-3.087-.77-5.11-.19-.58 1.35-1.256 1.06-.772 2.217-.193.192-.387.48-.676.676-.29-.096-.578 0-.867-.29.385-2.795 2.217-4.34 3.953-6.46 3.375-3.086 7.715-4.532 11.38-7.52 2.41-1.544 4.917-1.737 7.52-2.8 3.278-.48 6.942-.287 10.127-.963 2.7.672 5.303.48 8.1.19zm-15.236 2.41c-3.76-.19-6.366 1.544-9.933 2.605-.193.192-1.062 1.062-1.543 1.352-2.7 1.93-5.883 2.796-8.777 6.652 3.474-.29 5.21.966 6.85.29 2.408.29 4.53-.965 6.94-1.062 3.472 1.06 7.233.193 10.802.675 3.278.385 6.846-.387 10.22-.58 5.98-2.312 12.925-.674 19.097-1.35 2.988 0 6.46-.48 11.187.097-1.832-3.856-5.11-4.532-7.33-5.786-5.69-1.542-11.38-2.506-17.26-3.084-1.158-.192-2.605.29-3.667-.387-5.305.288-11.67-1.543-16.588.578zM1138.762 516.22c1.445.194 2.41 1.642 4.05 1.642 3.085 1.543 5.978 2.313 9.74 2.507.577.29 1.542.385 2.216.578 2.123.192 4.052 1.156 6.076 1.156 1.254.387 2.99-.288 4.146 1.255 1.543-.388 2.7-.772 3.664-1.256.387-.77 1.446-1.735 1.352-2.797.674-1.06.096-1.928.578-3.277.578-1.832.578-2.895 1.543-4.82.482-.388.965-.772 1.543-.677.385.965 0 2.122 0 3.278-1.254 2.51-1.06 3.858-1.93 7.138.77.48.48.867.77 1.06 2.413.387 5.018.098 7.042-.385 1.254.192 2.314-.29 4.242-.29.385-1.156 1.254-.288 1.832-.578 3.473-.29 6.56-2.218 10.125-2.41 1.544-1.35 4.147-1.156 5.69-2.313 1.83.19 2.796-2.22 5.11-1.64 1.158-.867 2.22-1.93 3.666-1.93.385.29.77.58 1.156.965-.193 1.446-1.832 1.543-2.894 2.314-1.64.192-3.184.58-4.34 1.64-2.12-.096-3.375 1.736-5.4 1.64-.77.482-1.542.58-2.12.966-.77-.098-1.447.19-2.025.48-4.436 0-7.908 2.895-12.344 2.604-.58.386-1.64.386-2.22.48-4.726 1.64-10.222 1.352-15.043 1.254-2.218-.58-4.918 0-6.847-.964-5.98-1.062-11.766-3.473-17.454-5.015-2.7-1.062-5.207-2.7-7.716-4.05-2.797-1.544-6.073-2.605-8.1-5.4 0-.193 0-.482.193-.58 4.343 2.798 8.876 5.305 13.7 7.426zM1200.574 476.974c.192.482 1.735.482 1.156 1.255-2.7 1.83-6.363-.194-9.257 1.35-9.74 2.99-20.06.77-29.99 2.12-5.786.77-11.188.77-16.876 1.93l-3.28-.097-.095.386 3.278 1.446c3.76.77 8.582.867 12.15 1.734 3.375.867 6.268.965 9.547 1.93 3.568.675 7.04.29 11.09.385.29.193.77.098.965.387-5.11 2.12-11.38.675-16.684 2.218-1.447 1.253-3.857.868-5.594 1.64-6.172 0-12.056 2.122-17.84 2.41-.675.58-1.832.677-2.798 1.062 0 .387-2.604.965-2.508 1.157.1.29 3.086.192 3.185.675 9.547 1.446 18.225 0 27 1.06 5.4-2.023 10.993 1.158 16.2-.576 6.173-2.027 13.115.288 18.61-1.834 1.642 0 3.376-.867 4.823 0 1.736.097 4.63-1.64 5.98.192 0 .192.192.097.288.192-1.35.868-3.47.193-4.725.386-7.33 1.832-15.044 2.314-22.663 3.472-3.086 0-6.172.482-9.064-.386-3.76.097-7.616.386-11.57-.29-9.16-.288-17.553 1.544-26.135-.964-3.182-.964-6.268 0-9.063-.675 0-.578-2.12.482-1.64-.385.578-.29.964-1.256 2.023-1.447 4.34-2.41 10.03-1.735 14.853-3.47 5.884-1.063 12.535-1.736 18.61-3.185l3.184-.77v-.39l-3.183-.576c-3.952-.677-7.714-1.255-11.667-1.736-4.822-2.218-10.512-2.026-15.334-4.146-.29-.29-.772-.48-1.157-.676.77-1.157 3.087-.097 4.242-.19 4.05-2.123 8.582-.483 13.02-1.642 10.126-1.06 17.647-.48 27.58-1.35 2.314-.676 5.884-.676 8.486-1.062 4.628-.675 9.548 1.157 13.02-1.734.678-.485 1.256-.29 1.834.19zM1204.914 432.52c-.965 2.12-3.28 2.313-4.918 3.472-2.22 1.157-4.63 2.312-7.137 2.604-.675.386-1.64.482-2.41.578-6.462 1.158-12.73 3.762-19.48 3.954-4.63.964-9.74.482-14.755.386-4.146 0-9.45-1.157-13.596-2.988-2.026-.482-4.245-1.255-5.692-2.51-2.12-.577-3.76-2.12-5.592-3.276-.387-.676-.867-1.35-.867-2.025 0-.096-.1-.19-.1-.19 1.93.48 3.763 1.928 5.69 3.085 1.542.867 2.41 2.024 4.05 2.41 2.798.578 5.015 2.508 7.908 2.314 5.304 1.35 11.09 1.253 17.453.867-.964-2.217.678-3.085-.095-4.436.096-.58.193-.965.385-1.35.29-.29.482-.58.867-.29l.482.482c-.192.577.19.964.48 1.253-.29 1.253 0 2.507-.19 4.05 4.725.48 7.905-.868 11.764-1.062 1.64-.77 4.146-.964 6.172-1.544 1.832-.578 4.05-.578 5.787-1.64 1.445.193 3.084-.29 4.242-1.735 2.508.098 4.436-1.735 7.328-2.313v-.482c.48-.192 1.446-1.254 2.604-.868-.094.48-.19.866-.383 1.253zM1204.432 419.597c.29.098.482.193.677.388-.87 2.218-3.475.964-5.5 1.542-1.733.29-3.374 0-5.108.097-4.728.097-9.45-.097-13.984 0-2.41 0-5.592.193-8.1-.097-1.64-.192-3.664 0-5.305.097-3.953.386-7.714 0-11.86.29-.192-.193-.386-.193-.58-.193-1.734.87-3.663.1-5.302.387-3.954.193-7.714.58-11.57.58-2.702-1.158-5.497.577-8.294-.098-.387-.098.578-1.158.867-1.158 4.244-2.894 9.16 1.157 13.887-.19 5.594-1.545 11.86-.966 17.357-1.255 5.496-.29 10.705.19 16.297 0 1.543-.193 3.086-.193 4.727-.193.387 0 .868.097 1.253.097 4.244-.096 8.486-.096 12.248-.675 2.89.77 5.3.286 8.292.382zM1207.613 381.7c-7.617 3.376-14.176 7.812-20.828 12.247-.58.29-.77 1.062-2.025 1.062-3.086 3.085-6.942 3.374-9.74 6.17-2.508 1.255-5.303 2.7-8.196 4.92.387.288 1.06.577 1.35.77 2.025.964 4.05.192 5.883.29 5.787.19 11.09-.772 16.2-.87 4.92 0 9.452-1.156 13.792-.674.096.192.096.48.096.868-.29 2.218-2.798.675-3.857 1.06-4.63.58-8.68.676-13.694.87-6.172.385-12.248.096-18.42.77-4.146.387-7.906 0-11.86.868-6.558-.77-13.212 2.604-19.77 1.253-1.542 0-3.085.77-4.724.387-.677-.482-3.763.097-2.22-1.35 5.017-.772 10.224 0 15.332-.677 7.716-.29 15.912-.77 21.603-5.69.965-.287 1.736-.963 2.41-1.444 2.412-1.445 5.016-2.506 7.04-4.628 2.025-.676 3.857-1.833 5.497-2.99 2.893-2.892 6.75-3.952 9.934-6.17 0-.387.29-.29.48-.387.868-.386 1.543-1.157 2.604-1.93 0-.385 2.795-.963 2.7-1.252-.098-.29-3.28-.193-3.57-.386-4.435.964-9.93 1.35-15.042 1.832-5.496.48-9.162 1.542-14.37 1.638-1.83-.386-4.435 1.447-6.267-.096-2.025 0-3.185-.097-4.822.482-1.443 0-2.892-.193-4.628-.193-.385-.096-.77.29-1.156.29-1.64 1.06-2.508-1.446-3.762-.29-.578.194-1.156.676-1.734-.192-3.086.868-5.498.387-8.102-1.06-.867.385-1.156-.097-1.543-.386v-.29c.29-.675.867.29.867.193 0 0 .58.48 1.157-.097.387-.58 1.253.675 1.446.386 3.277.77 7.135.578 10.8.097 3.376.58 8.485-.385 11.67.29.673-.097 1.542-.675 2.698-.29 1.062-.964 2.508-.096 3.28-.675 4.048-.29 8.388-.964 12.534-.964 3.955-.385 8.295-.77 11.477-1.253.676.193 1.445-.386 2.12.097 1.64-.386 2.315-.386 3.57-.58 2.507-.48 5.687-.866 7.905-1.35.387 0 .868-.29 1.446-.963-.48-.867.578-.48.677-.48.866-.387 2.313.385 3.76-.098 0 .29.098.58 0 .87zM1138.762 365.79c1.445.194 2.41 1.64 4.05 1.64 3.085 1.543 5.978 2.314 9.74 2.507.577.29 1.542.386 2.216.58 2.123.192 4.052 1.156 6.076 1.156 1.254.386 2.99-.29 4.146 1.254 1.543-.386 2.7-.77 3.664-1.254.387-.77 1.446-1.736 1.352-2.797.674-1.06.096-1.928.578-3.28.578-1.83.578-2.892 1.543-4.82.482-.386.965-.77 1.543-.675.385.966 0 2.123 0 3.28-1.254 2.507-1.06 3.857-1.93 7.136.77.482.48.868.77 1.06 2.413.387 5.018.098 7.042-.384 1.254.192 2.314-.29 4.242-.29.385-1.157 1.254-.29 1.832-.58 3.473-.288 6.56-2.217 10.125-2.408 1.544-1.352 4.147-1.158 5.69-2.316 1.83.193 2.796-2.217 5.11-1.64 1.158-.866 2.22-1.928 3.666-1.928.385.29.77.58 1.156.965-.193 1.446-1.832 1.543-2.894 2.314-1.64.192-3.184.577-4.34 1.64-2.12-.098-3.375 1.734-5.4 1.638-.77.482-1.542.58-2.12.965-.77-.097-1.447.192-2.025.48-4.436 0-7.908 2.895-12.344 2.605-.58.386-1.64.386-2.22.48-4.726 1.64-10.222 1.352-15.043 1.255-2.218-.58-4.918 0-6.847-.964-5.98-1.063-11.766-3.474-17.454-5.017-2.7-1.06-5.207-2.7-7.716-4.05-2.797-1.543-6.073-2.604-8.1-5.4 0-.192 0-.482.193-.578 4.343 2.797 8.876 5.302 13.7 7.425zM1141.46 332.33c1.063 0 2.605-.098 3.76-.193 2.8-1.736 7.14 0 10.417.386 2.025-1.158 5.4-.482 7.52-.676 3.087-.77 7.138.193 10.706.193 6.268 0 13.5-.193 19.768-.482.966-.097 1.93-.675 2.798-.29.096.097.193-.096.29-.096-2.218 1.446-4.92 1.543-7.138 2.507-3.182 2.796-6.846 4.242-10.22 6.364-4.053 1.832-8.198 3.182-11.862 5.978-1.158.58-2.22 1.255-3.375 1.833l-2.797 1.35 3.182.193c7.52.48 14.562-1.35 22.277-.29 3.086 0 5.98-1.253 8.967-.675.77-.096 1.736 0 2.412 0-.098.193 0 .58-.098.676-.77 0-1.445.19-2.12.674-.772.386-1.737.386-2.605.578-2.603.29-5.206-.096-7.81.482-7.04.193-13.888-.675-20.734.097-3.182-.578-6.363 1.063-9.45.194-2.023.482-4.628-.58-6.17.578-4.63-.482-9.163-1.254-13.982-1.254-1.062-.385-2.7 0-3.185-1.157-.097-.095.58-1.06.58-.577 5.206-1.35 9.643 1.735 15.62 1.062 3.086-.386 6.268 0 9.547-.964.965-1.35 2.412-1.253 3.474-2.12 1.93-.29 3.857-.772 5.11-2.123 4.92-2.41 9.934-3.278 13.886-6.846 1.158-.48 2.314-1.06 3.568-2.12 0-.29 2.797-1.544 2.797-1.833-.095-.193-2.99.482-2.99.097-3.76 0-7.23-.676-10.22.386-5.4-1.35-10.994-1.446-16.78-.193-4.145-.482-8.39-1.06-12.437-.29-3.377-1.445-7.137 1.544-10.223-1.156-.29-.867-1.832-.577-1.736-1.64 3.278-.58 6.075 1.252 9.257 1.35zM1129.793 272.155c5.69.29 11.09 2.313 16.682 4.05 3.857.58 8.103.868 11.572 2.41 3.955.387 7.33 1.255 11.38 1.447 2.122.097 4.34-.386 5.98.77 4.53.966 9.062 1.834 13.306 3.377 4.437 2.312 10.03 1.638 14.37 4.724l-.29-.386c-7.137 1.93-14.176 3.857-21.506 4.726-4.63-1.157-8.967.964-13.693.58-8.194 1.54-16.2 1.83-24.3 2.698-1.93-.77-4.147.193-6.173.578-1.155.193-2.698.098-3.663-.578.29-1.93 3.182-.578 4.34-1.06 5.69.577 10.992-2.026 16.49-1.544 2.795-.096 5.303-.096 8.293-.578.385-.482.77-.482 1.06-.58 5.786-.48 12.247-.866 17.745-1.253 4.05-1.64 8.39-2.314 12.922-2.796l.097-1.35c-8.39-2.796-17.068-5.015-25.94-6.075-4.437.192-8.195-.868-12.148-1.446-5.98-2.798-13.502-1.447-19.19-4.727-3.665 0-7.33-2.024-10.802-2.507-.096 0 .29-.48.676-.77.96-.097 1.828.77 2.793.29zM1207.422 235.897c2.41.29 4.05-.29 4.63.867 0 .097-.1.29-.1.386-3.567 2.025-8.196 1.158-12.343 2.315-7.33 1.06-14.852 1.64-21.602 3.375-1.543 2.12-3.278 5.014-2.22 7.81.097.098-.288 0-.673.676.674.965-.387 1.35-.387 2.122-.388 1.832-.193 4.146-.966 7.33 5.595 1.252 10.896 1.156 15.525 2.41 3.377.964 8.103-.58 11.478 1.156 1.254 0 2.797-.192 3.663.868.193.482-.676.482-1.06.482-3.954-.676-6.944-.386-10.704-.868-4.438-1.93-11.188-.29-16.01-2.218-1.734 0-4.437.48-5.785-.482-4.534-1.06-9.935.29-14.177-1.736-7.908.29-14.465-2.988-22.564-2.988-.388-.387-.388-1.06-1.255-1.158-2.313-.77-5.305.676-6.75-1.253.578-1.06 2.12-.577 3.277-1.445 9.74-2.122 18.71-6.364 28.64-8.197 2.798-1.35 6.272-1.736 9.356-2.99 1.06-.096 2.12-.288 3.084.098 1.93-.58 4.05-1.254 6.172-1.254 4.533-.097 8.584-2.218 13.31-1.833 1.446-.868 3.663-.193 5.206-.676 2.99-.29 6.076-1.06 8.873-1.832.578-.29.867-.48.963-.675.87-.386.965-.386 1.642-.29.002.096.774-.193.774 0zm-36.453 7.81c-4.82 2.123-10.415 2.123-15.43 3.57-5.882 1.638-11.378 4.917-18.032 6.17 0 1.64.674 2.22 1.832 2.314 2.7.965 5.207 2.026 8.293 2.41 5.69.772 12.344.29 17.744 1.64 1.445 0 3.566 0 5.496.58.965-1.158 1.06-2.314 1.928-2.894 0-1.156.292-2.024.388-2.893.193-1.447.193-2.797.482-3.857.482-1.833.77-2.507.965-4.05 2.603-4.53-1.93-2.892-3.666-2.988zM1199.514 214.2c-.29 2.024.097 3.76.77 5.4-.095.48-.48.963-.77 1.06-1.254 1.832 1.158 5.11-2.024 6.075-1.062.29-2.218-.192-3.086.58-3.375 1.252-4.437.288-7.716.578-2.893.192-6.362-1.255-9.16 0-1.542 0-2.797-.58-4.145-.772-3.664 1.352-7.81-.673-11.668.29-2.797.193-5.016-.963-7.812.29-.578.097-1.062.097-1.543.29-5.69 0-11.572-.58-17.164.096-2.797 0-5.498-.097-8.004-1.447-.482-.387.096-.965.578-1.157.676 0 1.64-.193 2.7.675 2.023-.868 3.855.096 5.593-.29 1.446.386 3.086.482 4.63.098 3.278-1.93 6.75.288 10.124.192 3.28-.097 6.56-1.35 9.934-.965 3.472.482 7.522.772 11.09.387 1.157-.387 2.507.192 3.57-.193 1.06.193 2.505.097 3.47.77 1.35-.19 2.99-.48 4.34-.867.77.386 1.928.29 2.604.482 3.664.29 4.436.77 7.81-.386 2.22.77 1.352-1.543 3.28-2.025 1.254-.48.578-1.06.578-1.734-.29-1.543 1.254-2.7.578-4.05-.482-1.254-.097-2.894-1.062-4.244-.096-.385-.096-.867.387-.867 1.25-.29 1.443.963 2.12 1.734zM1175.02 183.726c3.568-.29 6.27 1.157 9.548 1.93.676.578 1.35.578 1.35.48.193.097 1.447.385 2.508.964l.29.098c1.446.77 1.542.674 2.603.77 1.734 1.16 3.954 1.35 5.398 2.41 2.894 2.124 7.138 4.148 9.74 7.233 1.832 2.316 3.664 3.57 5.303 5.885.1.578.483 1.157.1 1.83-.77 0-.29.677-1.447-1.06l-.19-.386c-1.063.29-1.93.77-2.605.964-1.64 0-4.146 0-5.884.192-1.06-.29-2.795.387-3.76 0-4.822.29-11.09.482-16.395.098-1.253.578-2.99.19-4.147.096-5.014-.29-9.547-1.833-14.078-1.35-3.086-.097-6.75.867-10.028-.386-2.314.29-5.98-.29-7.812-.193-.098 0-.193.194-.29.29-4.726-.578-10.8.193-15.333-.29-.482-.192-.867-.867-.193-.964 9.258-.77 20.926-.868 30.665-.096 2.22-.193 5.595.29 7.908-.097l.29.29c3.567 0 6.46.674 10.124 1.06.387-.288.77-.097 1.062.097 5.398.29 13.02-.482 18.226-.096 2.894-1.35 5.98.77 8.775-.676.29-.482.29.965 2.22-.386-.58-.192-1.158-1.156-.87-1.156-.77-1.544-2.987-1.35-4.048-4.436-.58.578-.387-.29-.87-.29 0 0-.48-.29-.673-.387-.1-.096-.483-.192-.483-.964-.965 0-1.157-.29-1.446-.098-.964-.386-.964-1.735-2.12-1.735-.482-.193-1.158-.385-1.447-.77-1.156-.29-1.64-1.447-2.7-1.64-1.542-1.063-3.855-.868-5.11-1.736-1.06 0-1.157-.867-2.41-.964-3.374-1.832-7.81-1.832-11.378-2.604-5.21 0-9.935-1.062-15.236 0-1.737 0-3.28.676-4.823.965-.87.58-1.93.385-2.797.867-7.137 2.22-14.37 5.11-20.54 10.03-2.507 1.254-3.76 3.856-6.364 5.11-.577.386-.192-.482 0-.772 1.93-2.604 4.53-5.4 7.232-7.425 2.604-1.93 6.074-3.375 8.97-5.112 2.603-1.156 5.397-1.93 7.616-2.893 2.797-.192 3.375-1.93 6.268-1.64.58-.096 1.062-.48 2.123-.385.48-.386.867-.193 1.543-.482.867 0 1.832 0 2.894-.29 3.846-.188 8.667-.766 12.718.1zM1195.174 162.994c-3.47 2.507-7.906 2.12-11.09 4.822-1.254.385-2.604 1.06-3.664 1.735-2.99-.096-6.076 1.833-10.125 3.665 2.604 1.06 4.53.77 5.88.386 5.692 0 10.706-.963 16.686-.096 1.642 0 3.664-.482 5.11.193 2.798.097 6.077-.676 8.487.675l.193.193c-2.025.578-4.63.385-6.654.29-1.736-.483-3.568.192-5.496.192-3.762.096-7.715-1.254-11.09.385-3.086.386-5.98-1.06-8.97 0-2.7.868-5.4-.482-7.907.77-4.63-.77-10.607.098-15.62-.77-5.692 0-11.48.386-17.07-.578-3.085-.097-4.34-.675-7.23-1.254-.1 0 .48-.675.48-.868 3.085-1.832 4.145-2.41 7.425-3.664 4.533-1.833 9.354-1.446 13.888-2.7 6.362.097 12.633.965 17.262 7.04 8.486-5.11 17.55-5.69 25.748-10.126 3.664-1.157 7.04-2.99 10.703-4.146.577 0 1.542-.386 2.218-.193-2.992 1.736-6.078 3.087-9.164 4.05zm-54.29 6.364c-1.255.386-2.798-.096-3.956.676-1.543-.193-2.987.675-4.24 1.157l-2.315 1.64c.867.097 4.244.386 5.207.58 1.254 1.252 3.474.674 5.017 1.06 7.135-.965 15.14.192 23.723-.193-1.254-1.543-2.508-1.93-3.184-2.604-1.35-1.35-5.11-2.797-7.617-3.856-4.344.577-8.973-.388-12.637 1.54zM1207.422 123.938c2.41.29 4.05-.29 4.63.868 0 .097-.1.29-.1.386-3.567 2.025-8.196 1.157-12.343 2.314-7.33 1.06-14.852 1.64-21.602 3.375-1.543 2.123-3.278 5.015-2.22 7.813.097.096-.288 0-.673.675.674.964-.387 1.35-.387 2.12-.388 1.833-.193 4.147-.966 7.33 5.595 1.254 10.896 1.157 15.525 2.41 3.377.965 8.103-.578 11.478 1.158 1.254 0 2.797-.193 3.663.867.193.482-.676.482-1.06.482-3.954-.675-6.944-.386-10.704-.868-4.438-1.93-11.188-.29-16.01-2.218-1.734 0-4.437.48-5.785-.483-4.534-1.06-9.935.29-14.177-1.736-7.908.29-14.465-2.987-22.564-2.987-.388-.387-.388-1.06-1.255-1.157-2.313-.77-5.305.675-6.75-1.254.578-1.06 2.12-.578 3.277-1.446 9.74-2.122 18.71-6.364 28.64-8.196 2.798-1.35 6.272-1.736 9.356-2.99 1.06-.097 2.12-.29 3.084.097 1.93-.58 4.05-1.254 6.172-1.254 4.533-.096 8.584-2.218 13.31-1.832 1.446-.867 3.663-.19 5.206-.674 2.99-.29 6.076-1.06 8.873-1.832.578-.29.867-.482.963-.675.87-.388.965-.388 1.642-.29.002.095.774-.194.774-.002zm-36.453 7.812c-4.82 2.122-10.415 2.122-15.43 3.568-5.882 1.64-11.378 4.917-18.032 6.17 0 1.64.674 2.22 1.832 2.314 2.7.965 5.207 2.025 8.293 2.41 5.69.772 12.344.29 17.744 1.64 1.445 0 3.566 0 5.496.578.965-1.156 1.06-2.313 1.928-2.893 0-1.156.292-2.024.388-2.894.193-1.446.193-2.796.482-3.856.482-1.832.77-2.507.965-4.05 2.603-4.53-1.93-2.892-3.666-2.987zM1172.705 99.444c3.762.29 7.62 1.157 11.668 1.64 4.918.578 10.03 1.156 14.658 3.472 2.41 2.41 5.4 3.664 7.33 6.846.29 1.736 1.542 1.447.964 3.568.098.29-.193 0-.193-.386-2.216.096-1.155-.482-2.794-2.7-2.508.77-4.34-.386-6.172.386-7.715-.482-14.37 0-21.892.77-1.832.87-4.146.87-6.268.58-1.353-.482-2.797.48-4.437.192-5.016-.29-10.608-.29-15.526.386-3.663-.192-7.23 0-10.99.386-1.448-.29-3.087-.77-5.11-.192-.58 1.35-1.256 1.06-.772 2.217-.193.192-.387.48-.676.675-.29-.097-.578 0-.867-.29.385-2.796 2.217-4.34 3.953-6.46 3.375-3.087 7.715-4.533 11.38-7.52 2.41-1.545 4.917-1.737 7.52-2.798 3.278-.482 6.942-.29 10.127-.965 2.7.673 5.303.48 8.1.192zm-15.236 2.41c-3.76-.192-6.366 1.543-9.933 2.604-.193.192-1.062 1.06-1.543 1.35-2.7 1.93-5.883 2.797-8.777 6.654 3.474-.29 5.21.964 6.85.288 2.408.29 4.53-.964 6.94-1.06 3.472 1.06 7.233.192 10.802.675 3.278.385 6.846-.386 10.22-.58 5.98-2.313 12.925-.674 19.097-1.35 2.988 0 6.46-.48 11.187.098-1.832-3.857-5.11-4.533-7.33-5.786-5.69-1.543-11.38-2.508-17.26-3.086-1.158-.192-2.605.29-3.667-.385-5.305.29-11.67-1.542-16.588.58zM1200.863 68.97c.77.387 1.543 0 2.41.194.676 0 1.157.192 1.735.578.1.482-.48.868-.77 1.35-.675.87-1.446-.48-1.64-.48-.193-.387-1.158.48-2.12-.966-1.932.58-3.665.58-5.018.193-2.7.288-5.688-.483-8.293.577-1.06.097-1.64 1.35-2.12 1.93-.097 0-.482 1.156-1.35 1.543-1.255 1.156-3.087 2.988-3.667 3.47-.48.483 0-.577-.867.388-.48.385-.29.578-.965 1.64-.867 1.06-2.604 2.893-2.988 3.374-.578 1.157-1.157 2.507-1.832 4.05 2.025 1.35 4.05.965 5.4 1.833 1.733.096 3.856.48 5.688.964 1.062-.87 1.832.192 2.604.192 1.06.578 2.7.482 3.953 1.062 2.41.386 4.532 1.832 7.23 1.35.966.193 2.122.58 3.087.868-.096.193-.192.386-.385.386-1.64.29-3.086-.58-4.533-.482-.387-.29-.676-.386-1.06-.29-.772-.096-1.544-.288-2.22-.288-1.543-.482-2.604.386-5.11-1.254 0 1.446.192.58.192.58-1.445-.387-3.47-.965-5.4-.87-1.156-.77-2.604-.48-3.76-.77-2.7-.29-4.533-1.35-7.137-1.157 0 0-.097-.096-.193-.096-.77-.48-1.64-.192-2.12-.675-5.884-1.64-11.862-3.28-17.745-4.918-1.35-.675-2.507-.965-3.954-1.543-1.928-.676-3.76-1.832-5.785-2.604-2.023-.772-3.953-2.025-6.27-2.7-.577-.29-1.542.192-1.542-.772 0-.288-.29-.964-.096-1.06.676-1.062 2.604-1.062 3.567-1.543 2.313-.193 5.592-.676 8.39-1.254 1.06-1.253 2.7-.288 3.954-.77 4.725.192 9.643-2.218 15.043-1.543 6.846-1.06 14.465-1.64 20.926-1.06 4.924.382 9.842-.1 14.76.574zm-29.218 1.64c-1.254-.48-3.182.676-5.11.29-2.314-.386-4.82.386-7.135.77-2.22-.385-3.955.966-6.173.772-1.446.193-3.856.193-5.786.58-3.182.577-6.073 1.445-9.74 1.734 1.448 1.64 4.052 2.796 4.44 2.893 2.024.675 3.663 1.83 5.495 2.41 2.797.964 5.207 1.93 7.812 2.7 1.832.482 4.244 1.062 5.883 1.35 1.832-.096 4.436 1.543 6.943 1.93 1.446.192.77.868 2.797.29.77-1.833 1.928-3.087 2.604-4.726.867-1.158 1.35-1.255 2.604-2.604.866-.868 1.735-2.218 2.698-3.472.87-.964 2.025-2.025 2.604-2.7 0-.192 1.158-1.446 1.158-2.218-1.35-.29-2.894-.29-3.763-.386-2.606-.385-4.63 0-7.33.387zM1201.44 58.556c.1.097.193 0 .193.097-1.735.386-3.47-.29-5.014.386-1.063.674-2.413 1.252-3.763.578-.097-.675-.386-1.447-.19-2.314.19-.387.478.096.77-.193 2.895-.868 5.594.097 8.004 1.446z"/></g><path d="M2048 0M2048 1536M0 1536M0 0" fill="none" stroke="#17192D" stroke-width="3"/></g></svg>