<svg xmlns="http://www.w3.org/2000/svg" width="2048" height="1536" viewBox="0 0 2048 1536"><g><g fill="#17192D"><path d="M1309.743 1035.773c3.76.29 7.617 1.157 11.668 1.64 4.92.578 10.03 1.157 14.658 3.47 2.41 2.412 5.4 3.666 7.33 6.85.288 1.735 1.542 1.445.964 3.566.096.29-.193 0-.193-.386-2.22.096-1.16-.482-2.798-2.7-2.508.77-4.34-.386-6.172.385-7.715-.482-14.368 0-21.89.77-1.833.868-4.147.868-6.27.58-1.35-.482-2.796.48-4.435.19-5.015-.288-10.607-.288-15.525.387-3.665-.192-7.232 0-10.994.387-1.445-.29-3.086-.772-5.11-.193-.58 1.35-1.254 1.062-.772 2.22-.192.192-.385.48-.674.675-.29-.097-.58 0-.87-.29.388-2.797 2.22-4.34 3.956-6.46 3.375-3.087 7.715-4.533 11.38-7.522 2.41-1.543 4.917-1.735 7.52-2.797 3.278-.482 6.943-.29 10.125-.965 2.702.676 5.305.482 8.103.193zm-15.237 2.412c-3.76-.193-6.364 1.543-9.933 2.604-.193.192-1.06 1.06-1.543 1.35-2.7 1.93-5.883 2.796-8.775 6.653 3.472-.29 5.207.965 6.847.29 2.41.288 4.532-.965 6.943-1.062 3.472 1.062 7.232.194 10.8.676 3.28.386 6.848-.386 10.223-.578 5.98-2.314 12.922-.676 19.094-1.35 2.99 0 6.46-.482 11.186.096-1.832-3.857-5.11-4.532-7.328-5.786-5.69-1.542-11.38-2.507-17.262-3.086-1.157-.192-2.604.29-3.664-.385-5.306.29-11.67-1.545-16.588.578zM1337.9 1005.302c.772.385 1.543 0 2.41.192.677 0 1.158.192 1.737.58.096.48-.482.866-.77 1.35-.677.867-1.448-.483-1.64-.483-.194-.385-1.158.483-2.123-.963-1.928.578-3.664.578-5.014.192-2.7.288-5.69-.483-8.294.578-1.06.096-1.64 1.35-2.12 1.93-.098 0-.483 1.156-1.352 1.542-1.254 1.157-3.086 2.99-3.664 3.472-.482.48 0-.58-.868.385-.48.386-.29.58-.964 1.64-.868 1.06-2.604 2.894-2.99 3.376-.578 1.156-1.156 2.507-1.832 4.05 2.025 1.35 4.05.964 5.4 1.832 1.736.097 3.857.482 5.69.964 1.06-.868 1.83.192 2.603.192 1.06.578 2.7.482 3.953 1.06 2.41.387 4.532 1.834 7.232 1.352.965.192 2.122.578 3.086.867-.096.194-.19.387-.385.387-1.64.29-3.086-.578-4.532-.48-.386-.29-.675-.388-1.06-.29-.773-.098-1.545-.29-2.22-.29-1.542-.482-2.603.386-5.11-1.254 0 1.446.193.58.193.58-1.447-.387-3.473-.965-5.4-.87-1.157-.77-2.604-.48-3.762-.77-2.7-.29-4.53-1.35-7.136-1.157 0 0-.097-.096-.192-.096-.77-.482-1.64-.193-2.122-.676-5.882-1.64-11.86-3.278-17.743-4.918-1.35-.675-2.507-.964-3.953-1.543-1.93-.675-3.76-1.832-5.786-2.604s-3.952-2.026-6.267-2.7c-.58-.29-1.543.19-1.543-.772 0-.29-.29-.965-.097-1.06.675-1.062 2.604-1.062 3.567-1.544 2.314-.192 5.594-.675 8.39-1.254 1.062-1.254 2.7-.29 3.954-.77 4.726.192 9.644-2.22 15.043-1.544 6.848-1.06 14.466-1.64 20.927-1.06 4.92.382 9.84-.1 14.756.576zm-29.218 1.638c-1.254-.482-3.183.675-5.11.29-2.315-.387-4.822.385-7.137.77-2.22-.385-3.953.966-6.172.772-1.446.193-3.857.193-5.785.58-3.184.577-6.076 1.445-9.74 1.735 1.446 1.64 4.05 2.796 4.436 2.893 2.025.675 3.664 1.832 5.496 2.41 2.797.965 5.208 1.93 7.812 2.7 1.832.482 4.242 1.06 5.882 1.35 1.832-.096 4.436 1.544 6.943 1.93 1.446.192.77.868 2.796.29.77-1.833 1.93-3.087 2.604-4.727.868-1.157 1.35-1.253 2.603-2.604.87-.87 1.736-2.22 2.7-3.473.868-.964 2.026-2.024 2.605-2.7 0-.192 1.156-1.446 1.156-2.218-1.35-.29-2.892-.29-3.76-.387-2.603-.384-4.628.002-7.328.387zM1329.607 985.63c3.76.964 6.46 4.145 10.222 5.303.578 1.062 1.83 1.64 2.41 2.7-.868.29-1.832-.58-2.604-.964-.675-.676-1.35-1.063-2.315-1.158-2.12-1.543-5.013-2.22-7.23-3.954-1.64-.58-4.05-.77-5.883-1.64-3.278-.192-6.558-.192-9.74.386-3.085.58-6.075 1.833-8.485 3.954-3.183 1.543-6.847 2.7-10.318 3.472-5.4 2.7-12.247 2.41-17.84.193-3.28 0-5.11-2.798-8.1-3.183-.87-.675-1.64-1.35-2.7-1.736-.58-.48-.29-1.254-.772-1.93 0-.19-.386.098-.193.193 1.35.098 2.796.676 3.953 1.255 5.11 3.953 11.958 4.146 18.13 5.496 4.34-.193 7.907-2.218 12.054-3.183 2.604-1.64 5.882-2.218 8.486-3.857 1.93-.192 3.472-2.41 5.497-1.93 4.34-1.54 9.45-1.54 13.597 0 .577.29 1.156.484 1.83.58zM1325.364 936.45c-.193-.098.868-.29 1.254-.194h.77c.58.193 1.35.482 1.93.386 1.35.578 2.7.29 3.856.868 2.314 1.06 5.4 2.025 7.908 4.146 1.543 1.64 3.568 2.314 5.11 3.76.29.87.675 1.255.483 2.026-1.543.097-2.314-2.12-3.762-2.7-1.06-.965-2.604-1.254-3.472-2.508-.19-.096-.578-.48-.77-.578-.193-.097-.29-.29-.29-.29-.097 0-.482-.192-.482-.29-.868-.866-1.157-.963-1.157-.577-.674-.193-1.155-.676-1.83-.58-.29-.096-.58-.29-.772-.578-1.156.193-1.446-.386-2.025-.482-1.06-.578-2.7 0-3.856-.386-.58.097-1.062-.48-1.736-.386-2.313-.675-3.277-.096-5.785.097-3.182 1.157-3.28.868-5.303 1.64-1.543.578-2.412.77-3.857 1.446-1.447.676-2.025 1.447-3.473 2.123-1.35.578-2.217.385-3.47.867-1.448.58-2.315 1.254-3.666 1.832-1.35.676-2.41.965-3.954 1.64-1.446.868-2.218 1.736-3.953 2.218-.483 0-1.158.097-1.64.097-.483-.097-1.063.097-1.352.097-.29.096-.77-.097-1.06-.193-1.736.58-2.7-.577-4.532-.385-1.736-.482-3.473-.675-5.498-1.35-1.928-1.062-4.436-1.543-6.557-2.99-2.218-1.156-4.435-2.893-6.074-5.014-.193-.288-.964-1.06-.29-.963 1.736.77 3.28 2.507 5.11 3.182 4.92 3.085 10.03 4.917 15.142 5.4.578.288 1.253 0 1.928.288.965 0 2.314.29 3.375.097 3.474.386 2.702-1.157 4.147-1.736 1.544-.58 2.508-.482 3.857-1.157.965-.58 1.447-1.254 2.604-1.736.965-.58 1.64-1.06 2.894-1.254 2.894-.29 2.99-.867 4.437-2.12.674-.387 1.06-.87 1.83-1.158.676-.58 1.255-.29 2.122-.58 1.157-.288 1.736-.674 2.894-1.06 1.06-.386 2.218-.868 2.796-.868 2.025-.867 3.183-.29 5.11-.48.58-.004 1.158.382 1.062.382zM1341.47 924.01c.288.096.48.19.674.385-.867 2.218-3.47.964-5.496 1.543-1.736.29-3.375 0-5.11.097-4.726.096-9.45-.097-13.983 0-2.41 0-5.594.193-8.1-.097-1.64-.192-3.666 0-5.305.097-3.954.386-7.715 0-11.86.29-.194-.194-.387-.194-.58-.194-1.735.87-3.664.1-5.304.388-3.953.192-7.715.578-11.572.578-2.7-1.157-5.496.578-8.293-.097-.385-.097.58-1.158.87-1.158 4.242-2.893 9.16 1.157 13.885-.193 5.594-1.543 11.862-.965 17.358-1.254 5.497-.29 10.704.193 16.298 0 1.543-.193 3.087-.193 4.726-.193.386 0 .868.098 1.254.098 4.242-.097 8.486-.097 12.246-.675 2.892.77 5.303.287 8.293.384zM1349.087 903.084c1.254 1.06 0 .964-.193 1.35-5.4 4.726-12.922 3.76-18.707 7.52-4.146 1.544-8.583 2.123-12.633 3.087-3.183.098-6.076 1.447-9.065.87-.965.77-2.412 0-3.473.385-6.943 0-10.896-1.35-16.297-2.507-1.832.192-3.76-.386-5.207-1.64-2.508.29-4.533-.482-6.365-1.447-4.436-1.638-8.87-3.374-12.054-6.46 0 .097-.58-.192-.29-.385.772-.482 1.64.385 2.412.77 4.532.388 7.426 3.666 11.475 4.63 1.833.965 3.858.965 5.595 1.64 7.426 1.93 12.344 3.568 20.154 3.664.096 0 .288-.676.288.096 6.654-.386 12.344-1.93 18.42-2.604 6.17-1.93 12.342-4.146 18.514-6.075 1.64-1.062 3.568-1.93 5.69-2.7.578 0 1.64-1.06 1.93-.675.094 0 .77 0-.195.482zM1337.032 872.707c-1.156.868-2.7 1.447-3.857 2.41-4.725 1.35-9.836 2.605-14.946 2.605-3.666.58-7.427 1.35-10.994 2.22-1.93-.194-4.146-.58-6.365-.098-.288.77-.288 1.06-1.445 1.35 1.062 2.797 3.278 4.726 4.34 6.75.578.29 1.157 1.062.964 1.736-.387 1.157.192 1.157.867 1.832.868 0 1.64.097 2.41.482 2.026-.676 3.57-.676 5.208-.097 1.832 1.06 3.375.29 5.4 0 3.857-.58 7.52-1.446 11.476-1.64 3.086-.096 6.173-.096 9.45-.096.29.097.58.193.483.482 0 .29-.386.58-.676.675-4.82.29-9.45.482-13.693 1.833-3.182-.097-5.785.867-8.775.578-7.136-.675-14.66 0-21.41.868-2.987-.675-5.302.578-8.195.386-7.52-.58-15.333-.58-21.987-2.797-.964-.29-.482-1.06-.964-1.735.097-.29.58 0 .77-.097 2.315.482 4.34 1.543 6.655 1.446l.19.192c3.955-.193 7.62 1.06 11.09.868 2.605 1.446 5.497-.387 8.294.096 3.568.58 6.56-.675 10.03-1.157.48-.386 1.156-.772 1.83-1.544-1.155-3.086-4.724-5.015-5.11-7.52.482 0-.674-.772-.19-2.315-2.99-.867-5.4.29-7.62-.77-1.832-.482-3.664.482-5.594-.58-2.604 1.255-4.917.098-7.425.29-1.446-1.253-2.024 1.254-3.76.098-1.64.482-3.858.77-5.208 0 .096-.387.096-.676 0-1.062 1.446-.867 3.472.29 4.918-.867 2.12-.194 3.664.963 5.785.577 6.172-1.157 13.02.193 19.287-.192 4.34-.193 9.064.48 13.21-.965 6.56-1.06 13.405-1.93 19.577-3.182 1.543-.965 3.375-2.025 5.305-1.93.287.29.577.483.672.87zM1344.65 808.772c-7.618 3.375-14.175 7.812-20.83 12.246-.577.29-.77 1.062-2.024 1.062-3.085 3.086-6.942 3.375-9.74 6.172-2.506 1.254-5.303 2.7-8.195 4.918.386.29 1.062.58 1.35.77 2.026.965 4.052.193 5.884.29 5.785.192 11.09-.77 16.2-.868 4.918 0 9.45-1.157 13.79-.675.096.193.096.482.096.868-.29 2.218-2.796.676-3.857 1.06-4.628.58-8.678.676-13.693.87-6.172.385-12.246.096-18.418.77-4.146.387-7.907 0-11.86.87-6.56-.773-13.212 2.603-19.77 1.252-1.543 0-3.086.77-4.726.386-.675-.482-3.76.097-2.218-1.35 5.015-.77 10.222 0 15.333-.676 7.716-.29 15.913-.77 21.603-5.69.964-.288 1.735-.963 2.41-1.445 2.41-1.446 5.015-2.507 7.04-4.63 2.024-.673 3.856-1.83 5.496-2.988 2.893-2.893 6.75-3.953 9.932-6.172 0-.385.29-.29.482-.385.867-.387 1.543-1.158 2.604-1.93 0-.386 2.797-.964 2.7-1.253s-3.278-.193-3.568-.386c-4.436.964-9.933 1.35-15.044 1.832-5.496.482-9.16 1.543-14.368 1.64-1.832-.386-4.436 1.446-6.268-.097-2.025 0-3.183-.096-4.82.482-1.448 0-2.895-.193-4.63-.193-.387-.096-.77.29-1.158.29-1.64 1.06-2.507-1.447-3.76-.29-.58.193-1.158.675-1.736-.193-3.086.867-5.497.386-8.1-1.062-.87.387-1.158-.096-1.544-.385v-.29c.29-.674.868.29.868.193 0 0 .578.48 1.157-.097.386-.58 1.253.674 1.446.385 3.28.77 7.137.58 10.8.097 3.376.578 8.487-.386 11.67.29.675-.098 1.542-.676 2.7-.29 1.06-.964 2.506-.097 3.278-.675 4.05-.29 8.39-.965 12.537-.965 3.953-.386 8.293-.77 11.475-1.253.676.19 1.447-.388 2.123.095 1.64-.385 2.313-.385 3.566-.578 2.51-.482 5.69-.868 7.91-1.35.385 0 .867-.29 1.445-.965-.48-.868.58-.482.675-.482.868-.386 2.314.386 3.762-.097 0 .29.095.58 0 .87zM1341.47 796.912c.288.096.48.192.674.386-.867 2.218-3.47.964-5.496 1.543-1.736.29-3.375 0-5.11.097-4.726.097-9.45-.096-13.983 0-2.41 0-5.594.193-8.1-.096-1.64-.192-3.666 0-5.305.097-3.954.386-7.715 0-11.86.29-.194-.193-.387-.193-.58-.193-1.735.868-3.664.097-5.304.386-3.953.192-7.715.58-11.572.58-2.7-1.158-5.496.577-8.293-.098-.385-.097.58-1.157.87-1.157 4.242-2.893 9.16 1.157 13.885-.192 5.594-1.544 11.862-.965 17.358-1.254 5.497-.29 10.704.19 16.298 0 1.543-.194 3.087-.194 4.726-.194.386 0 .868.097 1.254.097 4.242-.097 8.486-.097 12.246-.675 2.892.77 5.303.287 8.293.384zM1349.087 775.986c1.254 1.06 0 .964-.193 1.35-5.4 4.727-12.922 3.762-18.707 7.522-4.146 1.544-8.583 2.122-12.633 3.086-3.183.096-6.076 1.446-9.065.868-.965.77-2.412 0-3.473.386-6.943 0-10.896-1.35-16.297-2.508-1.832.193-3.76-.386-5.207-1.64-2.508.29-4.533-.48-6.365-1.446-4.436-1.64-8.87-3.375-12.054-6.46 0 .096-.58-.194-.29-.386.772-.482 1.64.385 2.412.77 4.532.387 7.426 3.666 11.475 4.63 1.833.965 3.858.965 5.595 1.64 7.426 1.93 12.344 3.568 20.154 3.664.096 0 .288-.675.288.097 6.654-.387 12.344-1.93 18.42-2.605 6.17-1.93 12.342-4.147 18.514-6.076 1.64-1.062 3.568-1.93 5.69-2.7.578 0 1.64-1.062 1.93-.675.094 0 .77 0-.195.48zM1337.032 745.61c-1.156.868-2.7 1.446-3.857 2.41-4.725 1.35-9.836 2.605-14.946 2.605-3.666.578-7.427 1.35-10.994 2.218-1.93-.193-4.146-.578-6.365-.097-.288.772-.288 1.062-1.445 1.35 1.062 2.798 3.278 4.727 4.34 6.75.578.29 1.157 1.062.964 1.736-.387 1.158.192 1.158.867 1.833.868 0 1.64.096 2.41.48 2.026-.674 3.57-.674 5.208-.096 1.832 1.06 3.375.29 5.4 0 3.857-.58 7.52-1.447 11.476-1.64 3.086-.097 6.173-.097 9.45-.097.29.097.58.193.483.482 0 .29-.386.58-.676.675-4.82.29-9.45.482-13.693 1.833-3.182-.097-5.785.867-8.775.578-7.136-.674-14.66 0-21.41.87-2.987-.677-5.302.577-8.195.385-7.52-.58-15.333-.58-21.987-2.797-.964-.29-.482-1.06-.964-1.736.097-.29.58 0 .77-.096 2.315.482 4.34 1.542 6.655 1.446l.19.192c3.955-.192 7.62 1.062 11.09.868 2.605 1.446 5.497-.386 8.294.097 3.568.577 6.56-.676 10.03-1.158.48-.386 1.156-.77 1.83-1.543-1.155-3.087-4.724-5.016-5.11-7.522.482 0-.674-.772-.19-2.314-2.99-.868-5.4.29-7.62-.77-1.832-.483-3.664.48-5.594-.58-2.604 1.254-4.917.097-7.425.29-1.446-1.254-2.024 1.254-3.76.096-1.64.482-3.858.77-5.208 0 .096-.386.096-.675 0-1.06 1.446-.87 3.472.29 4.918-.87 2.12-.19 3.664.966 5.785.58 6.172-1.157 13.02.192 19.287-.193 4.34-.192 9.064.482 13.21-.964 6.56-1.062 13.405-1.93 19.577-3.183 1.543-.964 3.375-2.025 5.305-1.93.287.29.577.484.672.87zM1259.212 717.933c.192 1.64.867 2.797 1.156 4.532-.578 2.604-.096 4.918.87 8.1 1.35-.674 2.312-.48 2.795-.288 1.832-.193 4.146.29 5.98.193 1.735-.387 3.856-.58 5.592-.58 2.7-1.35 6.076-1.735 8.775-2.313 1.543.386 3.376 0 4.822.192 6.557 0 13.308-1.64 19.48-2.508 1.156.097 2.893-.192 3.953.097.192-.098.674-.098.77-.194 4.822-.192 8.68-.29 13.5-.29 2.22 0 4.147.387 6.173.483h-.096c-2.508 1.83-5.98 1.156-8.68 1.734-3.954-.964-8.1 1.06-12.344-.578-2.507 2.604-5.496.578-8.1 1.446-2.41-.29-5.305-.193-7.33 1.06-.964-.095-1.832.29-3.182-.19-2.314 1.35-5.207.674-7.618.674-3.954-.868-7.136 1.735-10.897 1.254-2.698 1.35-5.784 1.156-8.87 1.156-.965-1.06-2.508-.096-4.436-2.218-.676 4.243-.29 6.75-.482 9.354.482 2.025-.29 4.243 0 6.46-.097.098-.097.193-.193.29-.772-.097-.965-.964-1.255-1.543.58-1.93.482-3.857 0-5.786-.385-.482 0-1.35.097-2.314-1.06-1.446-.192-3.568-.964-4.92.482-1.542-.193-3.18-.097-4.724-.867-1.543.29-3.568-.578-5.11 0-1.35-1.832-2.7-.29-3.762.098-.097.29-.192.483-.29.388.098.87.193.967.58zM1346.966 681.964c-.29.096-1.062.675-1.736.867-1.832.098-4.436.29-6.268.58-1.062-.387-3.086.386-4.146.096-5.11.482-10.223.772-16.01.676-1.06.675-2.988.192-4.145.192-5.398-.192-10.317-1.543-15.043-.868-3.375 0-7.232 1.254-10.8 0-2.507.387-6.172-.096-8.196.097-.097.097-.288.193-.386.29-5.014-.482-10.607.578-15.43.192-.385-.097-.867-.77-.19-.868 9.93-1.253 21.214-.77 31.726-1.253 2.313-.097 5.785.096 8.293-.387l.29.29c3.76 0 7.23.482 10.8.77.29-.192.964-.096 1.156 0 5.785.193 12.536-.867 18.032-.674 3.183-1.543 6.558.675 9.45-1.158.386-.578 1.254-.29 1.736-.77 1.157.77 1.06 1.543.868 1.93zM1278.498 653.805c1.06 0 2.604-.097 3.76-.192 2.798-1.736 7.137 0 10.416.386 2.024-1.158 5.4-.483 7.52-.676 3.087-.77 7.137.192 10.705.192 6.267 0 13.5-.192 19.768-.482.964-.096 1.93-.675 2.797-.29.097.098.192-.095.29-.095-2.22 1.445-4.92 1.54-7.137 2.506-3.182 2.796-6.848 4.243-10.222 6.364-4.05 1.832-8.197 3.183-11.86 5.98-1.158.578-2.22 1.253-3.376 1.83l-2.797 1.352 3.183.193c7.52.48 14.56-1.35 22.275-.29 3.087 0 5.98-1.254 8.97-.675.77-.097 1.735 0 2.41 0-.096.193 0 .58-.096.675-.77 0-1.447.193-2.12.675-.773.387-1.737.387-2.605.58-2.605.29-5.21-.098-7.813.48-7.04.193-13.886-.674-20.732.098-3.183-.58-6.365 1.06-9.45.192-2.026.482-4.63-.578-6.173.578-4.628-.48-9.16-1.253-13.982-1.253-1.06-.386-2.7 0-3.182-1.157-.098-.097.578-1.06.578-.578 5.207-1.35 9.644 1.735 15.622 1.06 3.087-.385 6.27 0 9.547-.964.964-1.35 2.41-1.254 3.472-2.12 1.93-.29 3.857-.772 5.11-2.123 4.92-2.41 9.933-3.278 13.888-6.847 1.156-.48 2.314-1.06 3.567-2.12 0-.29 2.796-1.544 2.796-1.833-.096-.193-2.988.48-2.988.096-3.762 0-7.232-.676-10.223.385-5.4-1.35-10.993-1.446-16.78-.192-4.145-.482-8.39-1.06-12.438-.29-3.376-1.446-7.138 1.544-10.224-1.156-.29-.868-1.832-.58-1.735-1.64 3.28-.58 6.075 1.25 9.258 1.348zM1309.743 601.443c3.76.29 7.617 1.157 11.668 1.64 4.92.578 10.03 1.156 14.658 3.472 2.41 2.41 5.4 3.664 7.33 6.847.288 1.735 1.542 1.446.964 3.567.096.29-.193 0-.193-.387-2.22.097-1.16-.482-2.798-2.7-2.508.77-4.34-.386-6.172.386-7.715-.483-14.368 0-21.89.77-1.833.868-4.147.868-6.27.58-1.35-.483-2.796.48-4.435.19-5.015-.288-10.607-.288-15.525.387-3.665-.192-7.232 0-10.994.386-1.445-.29-3.086-.77-5.11-.192-.58 1.35-1.254 1.062-.772 2.22-.192.192-.385.48-.674.674-.29-.097-.58 0-.87-.29.388-2.796 2.22-4.34 3.956-6.46 3.375-3.086 7.715-4.532 11.38-7.52 2.41-1.544 4.917-1.737 7.52-2.798 3.278-.482 6.943-.29 10.125-.964 2.702.673 5.305.48 8.103.19zm-15.237 2.41c-3.76-.192-6.364 1.544-9.933 2.605-.193.192-1.06 1.06-1.543 1.35-2.7 1.93-5.883 2.797-8.775 6.654 3.472-.29 5.207.964 6.847.29 2.41.288 4.532-.966 6.943-1.062 3.472 1.06 7.232.192 10.8.675 3.28.386 6.848-.386 10.223-.58 5.98-2.312 12.922-.673 19.094-1.35 2.99 0 6.46-.48 11.186.098-1.832-3.857-5.11-4.532-7.328-5.786-5.69-1.543-11.38-2.508-17.262-3.086-1.157-.19-2.604.29-3.664-.385-5.306.29-11.67-1.543-16.588.58zM1341.95 583.314c-.963 2.12-3.277 2.314-4.918 3.472-2.217 1.157-4.628 2.314-7.136 2.604-.675.386-1.64.482-2.41.578-6.462 1.157-12.73 3.762-19.48 3.954-4.63.965-9.74.482-14.755.385-4.145 0-9.45-1.156-13.596-2.988-2.025-.483-4.243-1.255-5.69-2.508-2.12-.58-3.76-2.122-5.593-3.28-.384-.674-.866-1.35-.866-2.024 0-.096-.097-.192-.097-.192 1.93.48 3.76 1.93 5.69 3.086 1.543.867 2.41 2.025 4.05 2.41 2.796.58 5.015 2.508 7.907 2.314 5.303 1.35 11.09 1.253 17.454.868-.964-2.218.675-3.086-.097-4.436.098-.58.194-.964.387-1.35.29-.29.482-.58.868-.29l.482.482c-.193.578.192.964.482 1.253-.29 1.254 0 2.508-.194 4.05 4.725.483 7.907-.867 11.765-1.06 1.64-.77 4.147-.965 6.173-1.543 1.832-.578 4.05-.578 5.786-1.64 1.445.192 3.085-.29 4.242-1.736 2.507.097 4.437-1.735 7.33-2.313v-.48c.48-.193 1.444-1.255 2.603-.87-.095.482-.19.868-.384 1.254zM1337.61 549.563c.193.482 1.736.482 1.158 1.254-2.7 1.832-6.364-.193-9.258 1.35-9.74 2.99-20.058.77-29.99 2.122-5.786.77-11.186.77-16.876 1.928l-3.278-.097-.097.387 3.277 1.446c3.762.77 8.583.868 12.15 1.736 3.375.866 6.27.963 9.547 1.928 3.568.675 7.04.29 11.09.386.29.192.77.096.965.385-5.112 2.12-11.38.675-16.685 2.218-1.445 1.253-3.857.868-5.592 1.64-6.172 0-12.055 2.12-17.84 2.41-.676.58-1.833.676-2.798 1.06 0 .387-2.603.966-2.507 1.158.096.29 3.086.193 3.182.676 9.547 1.446 18.227 0 27.002 1.06 5.4-2.024 10.993 1.158 16.2-.578 6.173-2.025 13.115.29 18.612-1.832 1.64 0 3.375-.867 4.82 0 1.736.097 4.63-1.64 5.98.192 0 .193.19.097.29.193-1.352.868-3.474.193-4.727.386-7.33 1.832-15.044 2.314-22.66 3.472-3.088 0-6.173.482-9.066-.386-3.76.096-7.617.385-11.57-.29-9.162-.29-17.552 1.543-26.135-.965-3.182-.964-6.268 0-9.064-.675 0-.578-2.12.482-1.638-.386.578-.29.965-1.254 2.025-1.446 4.34-2.41 10.03-1.736 14.85-3.472 5.883-1.06 12.537-1.735 18.612-3.183l3.182-.77v-.387l-3.183-.578c-3.955-.675-7.716-1.254-11.67-1.736-4.82-2.218-10.51-2.024-15.332-4.146-.29-.29-.77-.48-1.158-.675.77-1.156 3.086-.096 4.244-.19 4.05-2.123 8.582-.483 13.018-1.64 10.126-1.063 17.647-.483 27.58-1.352 2.314-.675 5.883-.675 8.486-1.06 4.63-.676 9.547 1.156 13.02-1.736.676-.484 1.254-.29 1.833.19zM1344.458 486.98c2.41.288 4.05-.29 4.63.866 0 .098-.097.29-.097.387-3.567 2.024-8.196 1.157-12.343 2.313-7.33 1.062-14.852 1.64-21.602 3.375-1.543 2.123-3.28 5.016-2.218 7.813.097.097-.29 0-.675.675.675.964-.387 1.35-.387 2.122-.385 1.832-.19 4.146-.964 7.328 5.595 1.255 10.898 1.157 15.527 2.41 3.375.965 8.1-.577 11.475 1.158 1.254 0 2.797-.193 3.665.868.192.482-.675.482-1.06.482-3.955-.676-6.944-.386-10.705-.868-4.436-1.93-11.187-.29-16.008-2.218-1.736 0-4.436.48-5.787-.482-4.53-1.06-9.932.29-14.175-1.735-7.907.29-14.465-2.99-22.565-2.99-.385-.385-.385-1.06-1.254-1.156-2.314-.772-5.303.674-6.75-1.255.578-1.06 2.12-.578 3.28-1.446 9.738-2.12 18.706-6.364 28.64-8.196 2.797-1.35 6.268-1.736 9.354-2.99 1.06-.096 2.12-.29 3.086.098 1.93-.58 4.05-1.255 6.172-1.255 4.532-.096 8.582-2.218 13.308-1.83 1.446-.87 3.664-.194 5.207-.677 2.99-.29 6.075-1.06 8.872-1.83.578-.292.868-.483.965-.677.867-.387.963-.387 1.64-.29 0 .095.77-.194.77 0zm-36.45 7.81c-4.823 2.122-10.416 2.122-15.43 3.568-5.884 1.64-11.38 4.918-18.034 6.172 0 1.64.676 2.218 1.832 2.314 2.7.964 5.208 2.024 8.293 2.41 5.688.772 12.343.29 17.743 1.64 1.447 0 3.568 0 5.496.58.964-1.16 1.06-2.316 1.93-2.895 0-1.158.288-2.026.385-2.894.192-1.446.192-2.797.482-3.857.48-1.834.77-2.508.964-4.052 2.604-4.53-1.927-2.892-3.663-2.988zM1278.498 460.17c1.06 0 2.604-.097 3.76-.193 2.798-1.736 7.137 0 10.416.386 2.024-1.157 5.4-.482 7.52-.676 3.087-.77 7.137.193 10.705.193 6.267 0 13.5-.193 19.768-.482.964-.096 1.93-.675 2.797-.29.097.098.192-.095.29-.095-2.22 1.446-4.92 1.542-7.137 2.507-3.182 2.796-6.848 4.242-10.222 6.364-4.05 1.833-8.197 3.183-11.86 5.98-1.158.577-2.22 1.252-3.376 1.83l-2.797 1.35 3.183.194c7.52.482 14.56-1.35 22.275-.29 3.087 0 5.98-1.254 8.97-.675.77-.097 1.735 0 2.41 0-.096.193 0 .578-.096.676-.77 0-1.447.19-2.12.673-.773.387-1.737.387-2.605.58-2.605.288-5.21-.098-7.813.48-7.04.194-13.886-.674-20.732.097-3.183-.578-6.365 1.062-9.45.193-2.026.482-4.63-.578-6.173.578-4.628-.48-9.16-1.252-13.982-1.252-1.06-.386-2.7 0-3.182-1.158-.098-.096.578-1.06.578-.578 5.207-1.35 9.644 1.736 15.622 1.06 3.087-.384 6.27 0 9.547-.963.964-1.35 2.41-1.255 3.472-2.122 1.93-.29 3.857-.772 5.11-2.122 4.92-2.41 9.933-3.278 13.888-6.846 1.156-.482 2.314-1.062 3.567-2.122 0-.29 2.796-1.544 2.796-1.833-.096-.192-2.988.482-2.988.098-3.762 0-7.232-.676-10.223.385-5.4-1.35-10.993-1.446-16.78-.193-4.145-.48-8.39-1.06-12.438-.29-3.376-1.445-7.138 1.545-10.224-1.155-.29-.868-1.832-.58-1.735-1.64 3.28-.58 6.075 1.254 9.258 1.35zM1309.743 433.94c3.76.29 7.617 1.157 11.668 1.64 4.92.58 10.03 1.156 14.658 3.472 2.41 2.41 5.4 3.664 7.33 6.846.288 1.736 1.542 1.447.964 3.57.096.287-.193 0-.193-.388-2.22.097-1.16-.48-2.798-2.7-2.508.77-4.34-.385-6.172.387-7.715-.482-14.368 0-21.89.77-1.833.868-4.147.868-6.27.58-1.35-.483-2.796.48-4.435.19-5.015-.287-10.607-.287-15.525.388-3.665-.193-7.232 0-10.994.385-1.445-.29-3.086-.77-5.11-.192-.58 1.35-1.254 1.062-.772 2.218-.192.193-.385.482-.674.676-.29-.098-.58 0-.87-.29.388-2.796 2.22-4.34 3.956-6.46 3.375-3.087 7.715-4.533 11.38-7.522 2.41-1.543 4.917-1.736 7.52-2.796 3.278-.482 6.943-.29 10.125-.965 2.702.672 5.305.48 8.103.19zm-15.237 2.41c-3.76-.19-6.364 1.544-9.933 2.605-.193.192-1.06 1.06-1.543 1.35-2.7 1.93-5.883 2.797-8.775 6.654 3.472-.29 5.207.964 6.847.288 2.41.29 4.532-.964 6.943-1.06 3.472 1.06 7.232.19 10.8.674 3.28.386 6.848-.385 10.223-.578 5.98-2.314 12.922-.675 19.094-1.35 2.99 0 6.46-.483 11.186.096-1.832-3.857-5.11-4.532-7.328-5.786-5.69-1.543-11.38-2.508-17.262-3.085-1.157-.194-2.604.288-3.664-.388-5.306.29-11.67-1.542-16.588.58zM1275.798 418.415c1.446.194 2.41 1.64 4.05 1.64 3.087 1.544 5.98 2.314 9.74 2.508.58.29 1.543.385 2.218.578 2.12.194 4.05 1.158 6.076 1.158 1.253.386 2.988-.29 4.146 1.254 1.543-.387 2.7-.77 3.664-1.254.385-.77 1.446-1.735 1.35-2.797.676-1.06.097-1.927.578-3.277.58-1.832.58-2.893 1.543-4.82.482-.388.965-.773 1.544-.677.386.965 0 2.122 0 3.278-1.254 2.508-1.062 3.857-1.93 7.137.772.483.483.87.772 1.062 2.41.386 5.013.097 7.038-.386 1.254.193 2.314-.29 4.243-.29.387-1.156 1.255-.29 1.833-.578 3.472-.29 6.558-2.218 10.126-2.41 1.542-1.35 4.145-1.157 5.688-2.314 1.832.192 2.797-2.22 5.11-1.64 1.157-.867 2.22-1.93 3.665-1.93.386.29.77.58 1.156.966-.192 1.446-1.833 1.543-2.894 2.313-1.64.194-3.182.58-4.34 1.64-2.12-.096-3.375 1.735-5.4 1.64-.77.482-1.542.578-2.12.965-.772-.097-1.447.192-2.026.48-4.436 0-7.906 2.895-12.343 2.605-.578.385-1.64.385-2.218.482-4.727 1.64-10.223 1.35-15.044 1.253-2.22-.578-4.92 0-6.848-.964-5.98-1.06-11.765-3.472-17.454-5.016-2.7-1.06-5.208-2.7-7.715-4.05-2.797-1.543-6.076-2.604-8.102-5.4 0-.192 0-.482.193-.578 4.344 2.797 8.876 5.303 13.698 7.425zM1332.21 391.415c-3.47 2.507-7.906 2.12-11.088 4.82-1.254.388-2.604 1.063-3.666 1.737-2.988-.097-6.074 1.832-10.125 3.664 2.605 1.062 4.534.77 5.884.386 5.69 0 10.704-.964 16.683-.097 1.64 0 3.665-.48 5.11.193 2.797.097 6.076-.675 8.486.675l.193.193c-2.025.578-4.63.385-6.654.29-1.735-.483-3.567.19-5.496.19-3.76.098-7.715-1.252-11.09.387-3.086.387-5.98-1.06-8.97 0-2.698.868-5.4-.482-7.905.772-4.63-.772-10.607.096-15.622-.772-5.69 0-11.475.387-17.068-.578-3.086-.097-4.34-.675-7.232-1.254-.097 0 .482-.674.482-.866 3.086-1.833 4.146-2.41 7.425-3.665 4.532-1.833 9.354-1.447 13.887-2.7 6.364.096 12.632.963 17.26 7.04 8.487-5.112 17.552-5.69 25.75-10.127 3.663-1.157 7.038-2.99 10.703-4.146.58 0 1.543-.386 2.218-.192-2.99 1.735-6.076 3.086-9.162 4.05zm-54.29 6.364c-1.255.385-2.797-.098-3.954.675-1.543-.193-2.99.675-4.243 1.156l-2.314 1.64c.867.098 4.242.387 5.207.58 1.253 1.253 3.47.675 5.014 1.06 7.138-.964 15.142.193 23.724-.19-1.254-1.544-2.507-1.93-3.182-2.605-1.35-1.35-5.11-2.796-7.62-3.857-4.34.577-8.968-.388-12.633 1.54zM1341.95 370.49c-.963 2.12-3.277 2.313-4.918 3.47-2.217 1.158-4.628 2.314-7.136 2.605-.675.386-1.64.482-2.41.578-6.462 1.157-12.73 3.762-19.48 3.954-4.63.964-9.74.482-14.755.386-4.145 0-9.45-1.157-13.596-2.99-2.025-.48-4.243-1.253-5.69-2.507-2.12-.578-3.76-2.12-5.593-3.278-.384-.675-.866-1.35-.866-2.025 0-.097-.097-.192-.097-.192 1.93.482 3.76 1.93 5.69 3.087 1.543.867 2.41 2.025 4.05 2.41 2.796.58 5.015 2.508 7.907 2.314 5.303 1.352 11.09 1.255 17.454.87-.964-2.22.675-3.087-.097-4.437.098-.58.194-.965.387-1.35.29-.29.482-.58.868-.29l.482.482c-.193.578.192.964.482 1.253-.29 1.254 0 2.508-.194 4.05 4.725.483 7.907-.867 11.765-1.06 1.64-.77 4.147-.965 6.173-1.544 1.832-.578 4.05-.578 5.786-1.64 1.445.193 3.085-.288 4.242-1.735 2.507.096 4.437-1.736 7.33-2.315v-.48c.48-.194 1.444-1.255 2.603-.87-.095.482-.19.868-.384 1.254zM1278.498 342.524c1.06 0 2.604-.097 3.76-.192 2.798-1.736 7.137 0 10.416.386 2.024-1.158 5.4-.482 7.52-.676 3.087-.77 7.137.193 10.705.193 6.267 0 13.5-.193 19.768-.482.964-.097 1.93-.675 2.797-.29.097.097.192-.096.29-.096-2.22 1.446-4.92 1.543-7.137 2.507-3.182 2.797-6.848 4.243-10.222 6.365-4.05 1.83-8.197 3.18-11.86 5.978-1.158.578-2.22 1.254-3.376 1.832l-2.797 1.35 3.183.193c7.52.482 14.56-1.35 22.275-.29 3.087 0 5.98-1.253 8.97-.674.77-.098 1.735 0 2.41 0-.096.19 0 .577-.096.674-.77 0-1.447.192-2.12.675-.773.385-1.737.385-2.605.578-2.605.29-5.21-.097-7.813.48-7.04.194-13.886-.674-20.732.098-3.183-.578-6.365 1.06-9.45.193-2.026.48-4.63-.58-6.173.577-4.628-.482-9.16-1.254-13.982-1.254-1.06-.385-2.7 0-3.182-1.157-.098-.096.578-1.06.578-.578 5.207-1.35 9.644 1.735 15.622 1.06 3.087-.385 6.27 0 9.547-.963.964-1.35 2.41-1.254 3.472-2.122 1.93-.29 3.857-.77 5.11-2.12 4.92-2.412 9.933-3.28 13.888-6.848 1.156-.482 2.314-1.06 3.567-2.122 0-.29 2.796-1.543 2.796-1.832-.096-.19-2.988.483-2.988.098-3.762 0-7.232-.676-10.223.386-5.4-1.35-10.993-1.446-16.78-.193-4.145-.48-8.39-1.06-12.438-.288-3.376-1.446-7.138 1.543-10.224-1.157-.29-.868-1.832-.578-1.735-1.64 3.28-.58 6.075 1.252 9.258 1.35zM1297.206 278.107c6.46 2.314 13.308 1.64 19.48 4.243 6.363 2.7 13.307 3.857 19.864 5.98.192.192.48.48.675.77-2.12.868-4.918-.868-7.426-.578-7.618-.58-14.755 1.93-22.76 2.99l-.385 1.735c8.68 1.736 16.008 5.4 24.012 6.943.29.193.772.29 1.062.482 1.734.096 3.856-1.06 5.11-.097-.098.675-.772.964-1.447 1.157-1.543-.193-2.7.868-4.146 1.254-8.583-.386-16.2 1.446-24.88 2.025-10.704.772-21.312 1.544-31.437 1.448-5.305.77-9.354.964-13.502.482-.385-.193-1.156 0-1.542-.097.29-.192.578-.482.868-.77 3.182-.676 5.98-.676 9.354-.965 14.658-1.158 30.762.096 45.806-2.41 2.7-.483 5.4-.29 8.293-.58 1.93-.675 1.062-2.604-.386-2.218-6.267-3.086-13.886-3.568-20.153-5.882-1.157-.386-2.99-.097-3.472-1.253.192-.386.58-.58.965-.772 6.558-2.12 13.693-2.893 23.53-5.4-6.076-2.218-9.645-2.604-12.44-4.243-7.04 0-11.862-2.893-18.9-2.893-5.4-2.025-11.766-1.157-17.166-3.472-4.436-.097-8.1-1.06-13.308-1.93-.096 0-.386 0-.482-.096.097-.193.193-.386.29-.675.77 0 1.253-.386 1.64-.58 10.896.87 21.888 3.956 32.882 5.402zM1341.47 261.617c.288.097.48.193.674.386-.867 2.218-3.47.964-5.496 1.542-1.736.29-3.375 0-5.11.097-4.726.097-9.45-.097-13.983 0-2.41 0-5.594.193-8.1-.097-1.64-.192-3.666 0-5.305.097-3.954.386-7.715 0-11.86.29-.194-.193-.387-.193-.58-.193-1.735.867-3.664.095-5.304.384-3.953.193-7.715.58-11.572.58-2.7-1.158-5.496.578-8.293-.097-.385-.097.58-1.157.87-1.157 4.242-2.893 9.16 1.157 13.885-.193 5.594-1.543 11.862-.964 17.358-1.253 5.497-.29 10.704.192 16.298 0 1.543-.193 3.087-.193 4.726-.193.386 0 .868.097 1.254.097 4.242-.096 8.486-.096 12.246-.675 2.892.77 5.303.29 8.293.385zM1275.798 245.224c1.446.193 2.41 1.64 4.05 1.64 3.087 1.542 5.98 2.315 9.74 2.507.58.29 1.543.387 2.218.58 2.12.193 4.05 1.158 6.076 1.158 1.253.385 2.988-.29 4.146 1.253 1.543-.385 2.7-.77 3.664-1.252.385-.772 1.446-1.737 1.35-2.797.676-1.06.097-1.928.578-3.278.58-1.832.58-2.893 1.543-4.82.482-.387.965-.773 1.544-.676.386.964 0 2.12 0 3.278-1.254 2.508-1.062 3.857-1.93 7.136.772.482.483.868.772 1.06 2.41.387 5.013.098 7.038-.384 1.254.192 2.314-.29 4.243-.29.387-1.156 1.255-.29 1.833-.578 3.472-.29 6.558-2.218 10.126-2.41 1.542-1.352 4.145-1.16 5.688-2.316 1.832.193 2.797-2.218 5.11-1.64 1.157-.867 2.22-1.928 3.665-1.928.386.29.77.578 1.156.964-.192 1.447-1.833 1.542-2.894 2.314-1.64.193-3.182.58-4.34 1.64-2.12-.096-3.375 1.735-5.4 1.64-.77.482-1.542.578-2.12.964-.772-.097-1.447.193-2.026.482-4.436 0-7.906 2.893-12.343 2.604-.578.385-1.64.385-2.218.482-4.727 1.64-10.223 1.35-15.044 1.253-2.22-.58-4.92 0-6.848-.964-5.98-1.062-11.765-3.473-17.454-5.015-2.7-1.06-5.208-2.7-7.715-4.05-2.797-1.542-6.076-2.603-8.102-5.4 0-.193 0-.482.193-.578 4.344 2.796 8.876 5.303 13.698 7.424zM1309.743 214.077c3.76.29 7.617 1.157 11.668 1.64 4.92.58 10.03 1.157 14.658 3.47 2.41 2.412 5.4 3.665 7.33 6.848.288 1.736 1.542 1.447.964 3.568.096.29-.193 0-.193-.385-2.22.096-1.16-.482-2.798-2.7-2.508.77-4.34-.386-6.172.386-7.715-.482-14.368 0-21.89.77-1.833.87-4.147.87-6.27.58-1.35-.48-2.796.483-4.435.193-5.015-.29-10.607-.29-15.525.386-3.665-.193-7.232 0-10.994.386-1.445-.29-3.086-.772-5.11-.194-.58 1.35-1.254 1.06-.772 2.218-.192.193-.385.482-.674.675-.29-.098-.58 0-.87-.29.388-2.797 2.22-4.34 3.956-6.46 3.375-3.087 7.715-4.534 11.38-7.522 2.41-1.543 4.917-1.736 7.52-2.796 3.278-.482 6.943-.29 10.125-.965 2.702.672 5.305.48 8.103.19zm-15.237 2.41c-3.76-.19-6.364 1.544-9.933 2.605-.193.193-1.06 1.06-1.543 1.35-2.7 1.93-5.883 2.797-8.775 6.654 3.472-.29 5.207.964 6.847.29 2.41.288 4.532-.965 6.943-1.06 3.472 1.06 7.232.19 10.8.673 3.28.385 6.848-.386 10.223-.58 5.98-2.314 12.922-.675 19.094-1.35 2.99 0 6.46-.482 11.186.096-1.832-3.857-5.11-4.533-7.328-5.786-5.69-1.543-11.38-2.507-17.262-3.085-1.157-.193-2.604.29-3.664-.386-5.306.29-11.67-1.543-16.588.578zM1341.95 195.948c-.963 2.122-3.277 2.314-4.918 3.472-2.217 1.157-4.628 2.314-7.136 2.604-.675.386-1.64.482-2.41.578-6.462 1.157-12.73 3.76-19.48 3.954-4.63.964-9.74.482-14.755.385-4.145 0-9.45-1.155-13.596-2.988-2.025-.482-4.243-1.254-5.69-2.507-2.12-.58-3.76-2.122-5.593-3.28-.384-.674-.866-1.35-.866-2.024 0-.096-.097-.192-.097-.192 1.93.482 3.76 1.93 5.69 3.086 1.543.867 2.41 2.025 4.05 2.41 2.796.58 5.015 2.508 7.907 2.315 5.303 1.35 11.09 1.252 17.454.867-.964-2.218.675-3.086-.097-4.437.098-.578.194-.964.387-1.35.29-.29.482-.58.868-.29l.482.483c-.193.578.192.964.482 1.253-.29 1.254 0 2.507-.194 4.05 4.725.483 7.907-.867 11.765-1.06 1.64-.77 4.147-.964 6.173-1.543 1.832-.58 4.05-.58 5.786-1.64 1.445.193 3.085-.29 4.242-1.735 2.507.097 4.437-1.735 7.33-2.314v-.482c.48-.193 1.444-1.253 2.603-.867-.095.482-.19.867-.384 1.253zM1332.21 174.445c-3.47 2.507-7.906 2.12-11.088 4.82-1.254.387-2.604 1.062-3.666 1.737-2.988-.097-6.074 1.832-10.125 3.664 2.605 1.06 4.534.77 5.884.386 5.69 0 10.704-.964 16.683-.097 1.64 0 3.665-.482 5.11.193 2.797.096 6.076-.675 8.486.675.098.096.098.096.193.193-2.025.58-4.63.385-6.654.29-1.735-.482-3.567.192-5.496.192-3.76.097-7.715-1.253-11.09.386-3.086.386-5.98-1.06-8.97 0-2.698.868-5.4-.482-7.905.772-4.63-.772-10.607.096-15.622-.772-5.69 0-11.475.386-17.068-.578-3.086-.097-4.34-.675-7.232-1.254-.097 0 .482-.675.482-.868 3.086-1.832 4.146-2.41 7.425-3.664 4.532-1.832 9.354-1.446 13.887-2.7 6.364.096 12.632.964 17.26 7.04 8.487-5.11 17.552-5.69 25.75-10.125 3.663-1.157 7.038-2.99 10.703-4.146.58 0 1.543-.387 2.218-.194-2.99 1.734-6.076 3.084-9.162 4.05zm-54.29 6.364c-1.255.385-2.797-.098-3.954.674-1.543-.193-2.99.675-4.243 1.157l-2.314 1.64c.867.098 4.242.387 5.207.58 1.253 1.253 3.47.675 5.014 1.06 7.138-.963 15.142.194 23.724-.19-1.254-1.544-2.507-1.93-3.182-2.605-1.35-1.35-5.11-2.796-7.62-3.857-4.34.577-8.968-.388-12.633 1.54zM1337.032 141.947c-1.156.868-2.7 1.446-3.857 2.41-4.725 1.35-9.836 2.605-14.946 2.605-3.666.58-7.427 1.35-10.994 2.218-1.93-.193-4.146-.58-6.365-.097-.288.77-.288 1.06-1.445 1.35 1.062 2.796 3.278 4.725 4.34 6.75.578.29 1.157 1.06.964 1.736-.387 1.156.192 1.156.867 1.83.868 0 1.64.098 2.41.483 2.026-.675 3.57-.675 5.208-.096 1.832 1.06 3.375.29 5.4 0 3.857-.58 7.52-1.447 11.476-1.64 3.086-.096 6.173-.096 9.45-.096.29.098.58.194.483.483 0 .29-.386.58-.676.675-4.82.29-9.45.482-13.693 1.833-3.182-.096-5.785.87-8.775.58-7.136-.675-14.66 0-21.41.868-2.987-.675-5.302.58-8.195.386-7.52-.58-15.333-.58-21.987-2.796-.964-.29-.482-1.06-.964-1.736.097-.29.58 0 .77-.096 2.315.482 4.34 1.542 6.655 1.446l.19.192c3.955-.192 7.62 1.06 11.09.868 2.605 1.446 5.497-.386 8.294.096 3.568.58 6.56-.674 10.03-1.157.48-.385 1.156-.77 1.83-1.542-1.155-3.086-4.724-5.015-5.11-7.522.482 0-.674-.77-.19-2.314-2.99-.87-5.4.29-7.62-.772-1.832-.482-3.664.482-5.594-.58-2.604 1.255-4.917.098-7.425.29-1.446-1.253-2.024 1.254-3.76.098-1.64.482-3.858.77-5.208 0 .096-.386.096-.675 0-1.06 1.446-.87 3.472.288 4.918-.87 2.12-.192 3.664.965 5.785.58 6.172-1.158 13.02.192 19.287-.194 4.34-.193 9.064.482 13.21-.964 6.56-1.06 13.405-1.93 19.577-3.183 1.543-.964 3.375-2.025 5.305-1.93.287.29.577.484.672.87zM1312.73 116.488c6.076-.77 11.477 2.218 17.07 3.472 2.313 1.253 5.015 1.446 7.714 3.182.868-.29.965.386 1.254.77 0 .097-.096-.48-.096-.48-3.28 1.928-7.137 4.05-11.188 5.207-2.12.963-4.725 1.252-6.846 1.928-2.604.77-5.11 1.64-7.62 2.314-5.206.482-8.58 1.35-13.596 1.833-3.76-.675-8.196-.29-11.57-1.736-2.123.77-4.727-.194-6.752-.676-2.507.482-4.532-1.832-6.942-2.122-2.604-1.157-5.883-.964-7.715-3.182.096-.097-1.06-.77-.387-1.543.193-.193.29-.386.482-.58 1.64-1.156 2.797-2.796 4.822-3.664 4.436-2.507 9.45-4.918 15.043-4.725 2.99.58 5.883-1.93 8.872-.386 5.5 0 12.056-.674 17.456.386zm-43.78 7.81c-.385 1.062-1.253 2.7.676 2.7 6.75 2.508 13.5 3.858 20.443 4.92 6.75.963 13.114 1.542 19.673-.29 8.39-2.412 17.26-3.955 26.71-8.39-5.495-1.06-8.58-2.7-11.956-3.28-7.426-.48-14.176-2.7-21.698-2.506-12.152.194-24.4 1.544-33.85 6.847zM1336.55 94.116c-.288 2.025.098 3.76.772 5.4-.096.482-.48.964-.77 1.06-1.255 1.834 1.156 5.112-2.026 6.076-1.06.29-2.218-.193-3.085.58-3.375 1.252-4.436.288-7.714.578-2.894.192-6.365-1.254-9.162 0-1.543 0-2.797-.58-4.146-.772-3.664 1.35-7.81-.675-11.668.29-2.797.193-5.015-.964-7.812.29-.58.096-1.06.096-1.543.288-5.69 0-11.57-.578-17.165.097-2.797 0-5.496-.097-8.004-1.446-.482-.386.097-.964.578-1.157.676 0 1.64-.193 2.7.675 2.026-.868 3.858.097 5.594-.29 1.446.387 3.086.483 4.63.098 3.277-1.93 6.75.29 10.125.192 3.278-.097 6.557-1.35 9.932-.964 3.472.483 7.522.773 11.09.387 1.158-.386 2.508.193 3.568-.192 1.06.192 2.508.096 3.472.77 1.35-.19 2.99-.48 4.34-.867.77.386 1.93.29 2.603.482 3.664.29 4.437.77 7.81-.385 2.22.77 1.352-1.543 3.28-2.025 1.253-.482.578-1.06.578-1.736-.29-1.543 1.254-2.7.58-4.05-.483-1.253-.1-2.893-1.063-4.243-.096-.384-.096-.867.386-.867 1.253-.292 1.446.962 2.12 1.733zM1259.212 65.67c.192 1.638.867 2.795 1.156 4.53-.578 2.605-.096 4.92.87 8.102 1.35-.675 2.312-.482 2.795-.29 1.832-.192 4.146.29 5.98.194 1.735-.386 3.856-.58 5.592-.58 2.7-1.35 6.076-1.735 8.775-2.313 1.543.386 3.376 0 4.822.193 6.557 0 13.308-1.64 19.48-2.507 1.156.096 2.893-.194 3.953.096.192-.097.674-.097.77-.193 4.822-.193 8.68-.29 13.5-.29 2.22 0 4.147.386 6.173.482h-.096c-2.508 1.832-5.98 1.157-8.68 1.736-3.954-.963-8.1 1.062-12.344-.578-2.507 2.604-5.496.58-8.1 1.446-2.41-.29-5.305-.193-7.33 1.06-.964-.096-1.832.29-3.182-.192-2.314 1.35-5.207.675-7.618.675-3.954-.867-7.136 1.737-10.897 1.255-2.698 1.35-5.784 1.157-8.87 1.157-.965-1.06-2.508-.097-4.436-2.218-.676 4.243-.29 6.75-.482 9.354.482 2.025-.29 4.243 0 6.46-.097.098-.097.194-.193.29-.772-.096-.965-.964-1.255-1.542.58-1.93.482-3.857 0-5.786-.385-.482 0-1.35.097-2.314-1.06-1.447-.192-3.568-.964-4.918.482-1.543-.193-3.182-.097-4.725-.867-1.543.29-3.568-.578-5.11 0-1.35-1.832-2.7-.29-3.762.098-.096.29-.192.483-.288.388.095.87.19.967.577zM1334.622 57.954c0 .482-.675.772-1.06.867-1.448.965-3.473.098-5.016.87-.482 0-.868-.193-1.157-.48 0-.483.192-.677.385-.87 1.35-.385 2.7-2.603 4.34-.964 1.253-.096 1.832.192 2.507.578z"/></g><path d="M2048 0M2048 1536M0 1536M0 0" fill="none" stroke="#17192D" stroke-width="3"/></g></svg>