<?xml version="1.0" encoding="iso-8859-1"?>
<!-- Generator: Adobe Illustrator 15.1.0, SVG Export Plug-In . SVG Version: 6.00 Build 0)  -->
<!DOCTYPE svg PUBLIC "-//W3C//DTD SVG 1.1//EN" "http://www.w3.org/Graphics/SVG/1.1/DTD/svg11.dtd">
<svg version="1.1" xmlns="http://www.w3.org/2000/svg" xmlns:xlink="http://www.w3.org/1999/xlink" x="0px" y="0px" width="2048px"
	 height="1536px" viewBox="0 0 2048 1536" style="enable-background:new 0 0 2048 1536;" xml:space="preserve">
<g id="atxta_x5F_3">
	<g>
		<path style="fill:#17192D;" d="M1309.743,1035.773c3.76,0.289,7.617,1.157,11.668,1.64c4.918,0.578,10.029,1.157,14.657,3.471
			c2.411,2.411,5.4,3.665,7.329,6.848c0.289,1.736,1.543,1.446,0.965,3.567c0.096,0.29-0.193,0-0.193-0.385
			c-2.218,0.096-1.158-0.482-2.797-2.7c-2.508,0.771-4.34-0.386-6.172,0.385c-7.715-0.481-14.368,0-21.891,0.771
			c-1.832,0.868-4.146,0.868-6.268,0.579c-1.35-0.481-2.797,0.482-4.436,0.192c-5.015-0.289-10.607-0.289-15.525,0.386
			c-3.665-0.192-7.232,0-10.994,0.387c-1.445-0.29-3.086-0.772-5.111-0.193c-0.578,1.35-1.253,1.061-0.771,2.218
			c-0.192,0.193-0.385,0.482-0.674,0.676c-0.29-0.097-0.58,0-0.869-0.29c0.387-2.797,2.219-4.339,3.955-6.461
			c3.375-3.086,7.715-4.532,11.379-7.521c2.41-1.543,4.918-1.735,7.521-2.797c3.278-0.482,6.943-0.289,10.125-0.965
			C1304.342,1036.256,1306.945,1036.062,1309.743,1035.773z M1294.506,1038.185c-3.761-0.193-6.364,1.543-9.933,2.604
			c-0.193,0.193-1.061,1.061-1.543,1.351c-2.699,1.929-5.883,2.796-8.775,6.653c3.472-0.289,5.207,0.965,6.847,0.289
			c2.411,0.289,4.532-0.964,6.943-1.061c3.472,1.061,7.232,0.193,10.801,0.675c3.278,0.386,6.847-0.386,10.222-0.578
			c5.979-2.314,12.922-0.676,19.094-1.351c2.989,0,6.461-0.481,11.186,0.097c-1.832-3.857-5.11-4.532-7.328-5.786
			c-5.689-1.542-11.379-2.507-17.262-3.086c-1.157-0.192-2.604,0.29-3.664-0.385
			C1305.788,1037.896,1299.424,1036.062,1294.506,1038.185z"/>
		<path style="fill:#17192D;" d="M1337.9,1005.302c0.772,0.385,1.543,0,2.411,0.192c0.676,0,1.157,0.192,1.736,0.579
			c0.096,0.481-0.482,0.867-0.771,1.35c-0.676,0.868-1.447-0.482-1.64-0.482c-0.193-0.386-1.157,0.482-2.122-0.964
			c-1.928,0.578-3.664,0.578-5.014,0.192c-2.701,0.289-5.689-0.482-8.294,0.579c-1.061,0.096-1.64,1.35-2.121,1.929
			c-0.097,0-0.482,1.157-1.351,1.543c-1.254,1.157-3.086,2.989-3.664,3.472c-0.482,0.481,0-0.579-0.868,0.385
			c-0.481,0.386-0.289,0.579-0.964,1.64c-0.868,1.061-2.604,2.894-2.99,3.376c-0.578,1.156-1.156,2.507-1.832,4.05
			c2.025,1.35,4.051,0.964,5.4,1.832c1.736,0.097,3.857,0.482,5.689,0.964c1.061-0.867,1.832,0.193,2.604,0.193
			c1.061,0.578,2.701,0.482,3.954,1.061c2.411,0.386,4.532,1.833,7.232,1.351c0.965,0.192,2.122,0.578,3.086,0.867
			c-0.097,0.193-0.192,0.386-0.386,0.386c-1.639,0.289-3.086-0.578-4.532-0.481c-0.386-0.289-0.675-0.387-1.061-0.289
			c-0.772-0.098-1.544-0.29-2.218-0.29c-1.543-0.482-2.604,0.386-5.111-1.254c0,1.446,0.193,0.579,0.193,0.579
			c-1.447-0.386-3.473-0.964-5.4-0.868c-1.157-0.771-2.604-0.482-3.762-0.771c-2.699-0.289-4.531-1.35-7.136-1.157
			c0,0-0.097-0.096-0.192-0.096c-0.771-0.482-1.64-0.193-2.122-0.676c-5.882-1.64-11.861-3.278-17.743-4.918
			c-1.351-0.675-2.508-0.964-3.954-1.543c-1.929-0.675-3.761-1.832-5.786-2.604s-3.953-2.025-6.268-2.7
			c-0.579-0.289-1.543,0.192-1.543-0.771c0-0.289-0.289-0.965-0.097-1.061c0.675-1.061,2.604-1.061,3.567-1.543
			c2.314-0.192,5.594-0.675,8.391-1.254c1.061-1.254,2.699-0.289,3.953-0.771c4.726,0.193,9.644-2.218,15.043-1.543
			c6.848-1.061,14.466-1.639,20.927-1.061C1328.064,1005.108,1332.983,1004.626,1337.9,1005.302z M1308.682,1006.94
			c-1.254-0.482-3.183,0.675-5.11,0.29c-2.315-0.387-4.822,0.385-7.137,0.771c-2.219-0.386-3.953,0.965-6.172,0.771
			c-1.446,0.193-3.857,0.193-5.785,0.579c-3.184,0.578-6.076,1.446-9.74,1.736c1.446,1.639,4.051,2.796,4.436,2.893
			c2.025,0.675,3.664,1.832,5.496,2.41c2.797,0.965,5.208,1.929,7.812,2.701c1.832,0.481,4.242,1.06,5.882,1.35
			c1.832-0.097,4.436,1.543,6.943,1.928c1.446,0.193,0.771,0.869,2.796,0.29c0.771-1.832,1.93-3.086,2.604-4.726
			c0.868-1.157,1.35-1.253,2.603-2.604c0.869-0.868,1.736-2.218,2.701-3.472c0.867-0.964,2.025-2.024,2.604-2.699
			c0-0.193,1.156-1.447,1.156-2.219c-1.35-0.289-2.893-0.289-3.76-0.386C1313.407,1006.169,1311.382,1006.555,1308.682,1006.94z"/>
		<path style="fill:#17192D;" d="M1329.607,985.629c3.761,0.965,6.461,4.146,10.222,5.304c0.579,1.062,1.832,1.64,2.411,2.7
			c-0.868,0.29-1.832-0.579-2.604-0.964c-0.675-0.675-1.351-1.062-2.315-1.157c-2.121-1.543-5.014-2.219-7.231-3.954
			c-1.64-0.579-4.05-0.771-5.883-1.639c-3.278-0.193-6.558-0.193-9.739,0.385c-3.086,0.579-6.076,1.833-8.486,3.954
			c-3.183,1.543-6.847,2.7-10.318,3.472c-5.4,2.7-12.247,2.411-17.84,0.193c-3.279,0-5.111-2.798-8.101-3.183
			c-0.868-0.675-1.64-1.351-2.7-1.736c-0.578-0.481-0.289-1.254-0.771-1.929c0-0.192-0.386,0.097-0.193,0.192
			c1.351,0.098,2.797,0.676,3.954,1.255c5.111,3.953,11.958,4.146,18.13,5.496c4.34-0.193,7.907-2.218,12.054-3.183
			c2.604-1.64,5.882-2.218,8.486-3.857c1.929-0.192,3.472-2.41,5.497-1.929c4.339-1.542,9.449-1.542,13.597,0
			C1328.354,985.339,1328.933,985.532,1329.607,985.629z"/>
		<path style="fill:#17192D;" d="M1325.364,936.449c-0.193-0.097,0.868-0.29,1.254-0.193c0.289,0,0.676,0,0.771,0
			c0.578,0.193,1.35,0.482,1.928,0.386c1.351,0.578,2.701,0.289,3.857,0.868c2.314,1.061,5.4,2.025,7.908,4.146
			c1.543,1.639,3.568,2.314,5.111,3.761c0.289,0.868,0.674,1.254,0.482,2.025c-1.543,0.097-2.314-2.121-3.762-2.7
			c-1.061-0.965-2.604-1.254-3.472-2.508c-0.192-0.096-0.579-0.481-0.771-0.578c-0.193-0.097-0.29-0.289-0.29-0.289
			c-0.097,0-0.482-0.193-0.482-0.29c-0.868-0.867-1.157-0.964-1.157-0.578c-0.675-0.192-1.156-0.675-1.832-0.578
			c-0.289-0.097-0.578-0.29-0.771-0.579c-1.156,0.193-1.446-0.386-2.025-0.482c-1.061-0.578-2.699,0-3.856-0.386
			c-0.579,0.097-1.062-0.481-1.736-0.386c-2.314-0.675-3.278-0.096-5.786,0.097c-3.182,1.157-3.279,0.868-5.303,1.64
			c-1.543,0.578-2.412,0.771-3.857,1.446c-1.447,0.675-2.025,1.446-3.473,2.122c-1.35,0.578-2.217,0.385-3.471,0.867
			c-1.447,0.579-2.314,1.254-3.665,1.832c-1.351,0.676-2.411,0.965-3.954,1.64c-1.446,0.868-2.218,1.736-3.953,2.218
			c-0.482,0-1.157,0.097-1.64,0.097c-0.482-0.097-1.062,0.097-1.351,0.097c-0.289,0.096-0.771-0.097-1.061-0.193
			c-1.735,0.579-2.699-0.578-4.531-0.386c-1.736-0.482-3.473-0.675-5.498-1.35c-1.928-1.062-4.436-1.543-6.557-2.99
			c-2.219-1.156-4.436-2.893-6.075-5.014c-0.193-0.289-0.964-1.062-0.29-0.964c1.736,0.771,3.279,2.507,5.111,3.182
			c4.918,3.086,10.029,4.918,15.141,5.4c0.578,0.289,1.253,0,1.928,0.289c0.965,0,2.314,0.289,3.375,0.097
			c3.473,0.386,2.701-1.157,4.146-1.736c1.544-0.578,2.508-0.481,3.857-1.156c0.965-0.579,1.447-1.254,2.604-1.736
			c0.965-0.579,1.641-1.061,2.894-1.254c2.894-0.289,2.989-0.867,4.437-2.121c0.675-0.386,1.061-0.868,1.832-1.157
			c0.675-0.579,1.254-0.289,2.121-0.579c1.157-0.289,1.736-0.675,2.894-1.061c1.06-0.386,2.218-0.868,2.796-0.868
			c2.025-0.867,3.183-0.289,5.111-0.481C1324.882,936.063,1325.46,936.449,1325.364,936.449z"/>
		<path style="fill:#17192D;" d="M1341.469,924.009c0.289,0.097,0.482,0.192,0.675,0.386c-0.867,2.218-3.471,0.964-5.496,1.543
			c-1.736,0.29-3.375,0-5.111,0.097c-4.725,0.096-9.45-0.097-13.982,0c-2.411,0-5.594,0.193-8.101-0.097
			c-1.64-0.192-3.665,0-5.304,0.097c-3.954,0.386-7.715,0-11.861,0.289c-0.193-0.193-0.386-0.193-0.578-0.193
			c-1.736,0.868-3.665,0.098-5.305,0.387c-3.953,0.192-7.715,0.578-11.572,0.578c-2.699-1.157-5.496,0.578-8.293-0.097
			c-0.386-0.096,0.578-1.157,0.868-1.157c4.243-2.893,9.161,1.157,13.886-0.193c5.594-1.542,11.862-0.964,17.358-1.253
			c5.497-0.289,10.704,0.193,16.298,0c1.542-0.193,3.086-0.193,4.725-0.193c0.386,0,0.868,0.098,1.254,0.098
			c4.242-0.098,8.486-0.098,12.246-0.676C1336.068,924.395,1338.479,923.912,1341.469,924.009z"/>
		<path style="fill:#17192D;" d="M1349.087,903.084c1.254,1.061,0,0.964-0.193,1.35c-5.4,4.726-12.922,3.761-18.707,7.521
			c-4.146,1.543-8.583,2.122-12.633,3.086c-3.183,0.097-6.076,1.446-9.065,0.868c-0.964,0.771-2.411,0-3.472,0.386
			c-6.943,0-10.896-1.35-16.297-2.507c-1.832,0.192-3.761-0.386-5.207-1.64c-2.508,0.289-4.533-0.482-6.365-1.447
			c-4.436-1.639-8.871-3.375-12.054-6.461c0,0.097-0.579-0.192-0.29-0.385c0.772-0.482,1.641,0.385,2.412,0.771
			c4.532,0.387,7.426,3.665,11.475,4.629c1.832,0.965,3.857,0.965,5.594,1.64c7.426,1.929,12.344,3.568,20.154,3.664
			c0.097,0,0.289-0.675,0.289,0.097c6.654-0.386,12.344-1.929,18.419-2.604c6.171-1.929,12.343-4.146,18.515-6.075
			c1.64-1.062,3.568-1.929,5.689-2.7c0.579,0,1.641-1.061,1.93-0.675C1349.376,902.602,1350.052,902.602,1349.087,903.084z"/>
		<path style="fill:#17192D;" d="M1337.032,872.707c-1.156,0.868-2.699,1.447-3.857,2.411c-4.725,1.35-9.836,2.604-14.946,2.604
			c-3.665,0.579-7.426,1.35-10.993,2.219c-1.929-0.193-4.146-0.579-6.365-0.097c-0.289,0.771-0.289,1.061-1.446,1.35
			c1.062,2.797,3.278,4.726,4.339,6.751c0.579,0.289,1.158,1.061,0.965,1.735c-0.386,1.157,0.193,1.157,0.868,1.832
			c0.868,0,1.64,0.097,2.411,0.482c2.025-0.676,3.568-0.676,5.207-0.097c1.832,1.061,3.375,0.289,5.4,0
			c3.857-0.579,7.521-1.446,11.476-1.64c3.085-0.096,6.172-0.096,9.45-0.096c0.289,0.096,0.578,0.192,0.482,0.481
			c0,0.29-0.386,0.579-0.676,0.675c-4.821,0.29-9.45,0.482-13.693,1.833c-3.182-0.097-5.785,0.867-8.775,0.578
			c-7.135-0.675-14.658,0-21.408,0.868c-2.988-0.675-5.303,0.578-8.196,0.386c-7.521-0.579-15.333-0.579-21.987-2.797
			c-0.964-0.289-0.482-1.061-0.964-1.735c0.097-0.289,0.579,0,0.771-0.097c2.314,0.482,4.339,1.543,6.654,1.446
			c0.096,0.097,0.096,0.097,0.192,0.193c3.954-0.193,7.618,1.061,11.09,0.868c2.604,1.446,5.496-0.387,8.293,0.096
			c3.568,0.579,6.559-0.675,10.029-1.157c0.482-0.385,1.157-0.771,1.832-1.543c-1.156-3.086-4.725-5.015-5.111-7.521
			c0.482,0-0.674-0.771-0.191-2.314c-2.99-0.868-5.4,0.289-7.619-0.771c-1.832-0.482-3.664,0.482-5.594-0.579
			c-2.604,1.254-4.917,0.097-7.425,0.29c-1.446-1.254-2.024,1.253-3.761,0.097c-1.64,0.482-3.857,0.771-5.207,0
			c0.096-0.387,0.096-0.676,0-1.062c1.446-0.867,3.472,0.29,4.918-0.867c2.121-0.193,3.664,0.964,5.785,0.578
			c6.172-1.157,13.02,0.193,19.287-0.192c4.34-0.193,9.064,0.481,13.211-0.965c6.559-1.061,13.404-1.929,19.576-3.182
			c1.543-0.965,3.375-2.025,5.305-1.929C1336.647,872.129,1336.937,872.321,1337.032,872.707z"/>
		<path style="fill:#17192D;" d="M1344.651,808.772c-7.619,3.375-14.176,7.812-20.83,12.246c-0.578,0.29-0.771,1.062-2.025,1.062
			c-3.085,3.086-6.942,3.375-9.739,6.172c-2.507,1.254-5.304,2.7-8.196,4.918c0.385,0.289,1.061,0.579,1.35,0.771
			c2.025,0.964,4.051,0.192,5.883,0.29c5.785,0.191,11.09-0.772,16.201-0.869c4.917,0,9.449-1.157,13.789-0.675
			c0.096,0.193,0.096,0.482,0.096,0.868c-0.289,2.218-2.796,0.676-3.857,1.061c-4.628,0.579-8.678,0.675-13.693,0.868
			c-6.172,0.386-12.246,0.097-18.418,0.771c-4.146,0.387-7.907,0-11.861,0.869c-6.558-0.772-13.211,2.604-19.769,1.253
			c-1.543,0-3.086,0.771-4.726,0.386c-0.675-0.482-3.761,0.097-2.218-1.35c5.015-0.771,10.222,0,15.333-0.676
			c7.715-0.289,15.912-0.771,21.602-5.689c0.964-0.289,1.735-0.964,2.41-1.446c2.41-1.446,5.015-2.507,7.039-4.629
			c2.025-0.674,3.857-1.831,5.497-2.989c2.894-2.893,6.751-3.953,9.933-6.172c0-0.385,0.289-0.289,0.482-0.385
			c0.867-0.387,1.543-1.158,2.604-1.929c0-0.387,2.797-0.965,2.7-1.254s-3.278-0.193-3.568-0.386
			c-4.436,0.964-9.933,1.351-15.044,1.832c-5.496,0.482-9.16,1.543-14.368,1.639c-1.832-0.385-4.436,1.447-6.268-0.096
			c-2.025,0-3.183-0.096-4.821,0.482c-1.447,0-2.894-0.193-4.629-0.193c-0.387-0.096-0.771,0.289-1.158,0.289
			c-1.639,1.062-2.507-1.446-3.76-0.289c-0.579,0.193-1.158,0.675-1.736-0.193c-3.086,0.868-5.497,0.387-8.1-1.061
			c-0.869,0.387-1.158-0.096-1.544-0.385c0-0.097,0-0.193,0-0.29c0.29-0.674,0.868,0.29,0.868,0.193c0,0,0.578,0.481,1.157-0.097
			c0.386-0.579,1.253,0.675,1.446,0.386c3.279,0.771,7.137,0.579,10.801,0.097c3.375,0.578,8.486-0.386,11.668,0.289
			c0.676-0.097,1.543-0.675,2.701-0.289c1.06-0.964,2.506-0.097,3.278-0.675c4.05-0.289,8.39-0.965,12.536-0.965
			c3.953-0.386,8.293-0.771,11.475-1.253c0.676,0.192,1.447-0.387,2.123,0.096c1.639-0.385,2.313-0.385,3.566-0.578
			c2.508-0.482,5.69-0.868,7.908-1.351c0.386,0,0.868-0.289,1.446-0.964c-0.481-0.868,0.579-0.482,0.675-0.482
			c0.868-0.386,2.314,0.386,3.762-0.097C1344.651,808.193,1344.747,808.483,1344.651,808.772z"/>
		<path style="fill:#17192D;" d="M1341.469,796.912c0.289,0.096,0.482,0.192,0.675,0.386c-0.867,2.218-3.471,0.964-5.496,1.543
			c-1.736,0.289-3.375,0-5.111,0.096c-4.725,0.097-9.45-0.096-13.982,0c-2.411,0-5.594,0.193-8.101-0.096
			c-1.64-0.193-3.665,0-5.304,0.096c-3.954,0.386-7.715,0-11.861,0.29c-0.193-0.193-0.386-0.193-0.578-0.193
			c-1.736,0.868-3.665,0.097-5.305,0.386c-3.953,0.192-7.715,0.579-11.572,0.579c-2.699-1.157-5.496,0.578-8.293-0.097
			c-0.386-0.097,0.578-1.157,0.868-1.157c4.243-2.893,9.161,1.157,13.886-0.192c5.594-1.544,11.862-0.965,17.358-1.254
			c5.497-0.29,10.704,0.192,16.298,0c1.542-0.193,3.086-0.193,4.725-0.193c0.386,0,0.868,0.097,1.254,0.097
			c4.242-0.097,8.486-0.097,12.246-0.675C1336.068,797.298,1338.479,796.815,1341.469,796.912z"/>
		<path style="fill:#17192D;" d="M1349.087,775.986c1.254,1.061,0,0.964-0.193,1.351c-5.4,4.726-12.922,3.761-18.707,7.521
			c-4.146,1.544-8.583,2.122-12.633,3.086c-3.183,0.096-6.076,1.446-9.065,0.868c-0.964,0.771-2.411,0-3.472,0.386
			c-6.943,0-10.896-1.35-16.297-2.508c-1.832,0.193-3.761-0.386-5.207-1.639c-2.508,0.289-4.533-0.482-6.365-1.447
			c-4.436-1.639-8.871-3.375-12.054-6.461c0,0.097-0.579-0.193-0.29-0.385c0.772-0.482,1.641,0.385,2.412,0.771
			c4.532,0.386,7.426,3.665,11.475,4.629c1.832,0.965,3.857,0.965,5.594,1.64c7.426,1.929,12.344,3.568,20.154,3.664
			c0.097,0,0.289-0.675,0.289,0.097c6.654-0.386,12.344-1.929,18.419-2.604c6.171-1.929,12.343-4.147,18.515-6.076
			c1.64-1.061,3.568-1.929,5.689-2.699c0.579,0,1.641-1.062,1.93-0.675C1349.376,775.505,1350.052,775.505,1349.087,775.986z"/>
		<path style="fill:#17192D;" d="M1337.032,745.61c-1.156,0.868-2.699,1.446-3.857,2.411c-4.725,1.35-9.836,2.604-14.946,2.604
			c-3.665,0.578-7.426,1.35-10.993,2.218c-1.929-0.193-4.146-0.578-6.365-0.097c-0.289,0.772-0.289,1.062-1.446,1.351
			c1.062,2.797,3.278,4.726,4.339,6.75c0.579,0.289,1.158,1.061,0.965,1.735c-0.386,1.158,0.193,1.158,0.868,1.833
			c0.868,0,1.64,0.096,2.411,0.481c2.025-0.675,3.568-0.675,5.207-0.097c1.832,1.062,3.375,0.29,5.4,0
			c3.857-0.578,7.521-1.446,11.476-1.639c3.085-0.097,6.172-0.097,9.45-0.097c0.289,0.097,0.578,0.193,0.482,0.482
			c0,0.289-0.386,0.579-0.676,0.675c-4.821,0.289-9.45,0.482-13.693,1.833c-3.182-0.097-5.785,0.867-8.775,0.578
			c-7.135-0.675-14.658,0-21.408,0.868c-2.988-0.676-5.303,0.578-8.196,0.386c-7.521-0.579-15.333-0.579-21.987-2.797
			c-0.964-0.29-0.482-1.061-0.964-1.736c0.097-0.289,0.579,0,0.771-0.096c2.314,0.482,4.339,1.542,6.654,1.446
			c0.096,0.096,0.096,0.096,0.192,0.192c3.954-0.192,7.618,1.062,11.09,0.868c2.604,1.446,5.496-0.386,8.293,0.097
			c3.568,0.578,6.559-0.675,10.029-1.157c0.482-0.386,1.157-0.771,1.832-1.543c-1.156-3.086-4.725-5.015-5.111-7.521
			c0.482,0-0.674-0.772-0.191-2.314c-2.99-0.868-5.4,0.289-7.619-0.771c-1.832-0.482-3.664,0.482-5.594-0.579
			c-2.604,1.254-4.917,0.097-7.425,0.29c-1.446-1.254-2.024,1.254-3.761,0.096c-1.64,0.482-3.857,0.771-5.207,0
			c0.096-0.386,0.096-0.675,0-1.061c1.446-0.868,3.472,0.29,4.918-0.868c2.121-0.192,3.664,0.965,5.785,0.579
			c6.172-1.157,13.02,0.192,19.287-0.193c4.34-0.192,9.064,0.482,13.211-0.964c6.559-1.062,13.404-1.929,19.576-3.183
			c1.543-0.964,3.375-2.025,5.305-1.929C1336.647,745.031,1336.937,745.224,1337.032,745.61z"/>
		<path style="fill:#17192D;" d="M1259.212,717.933c0.192,1.64,0.867,2.797,1.156,4.532c-0.578,2.604-0.096,4.918,0.869,8.101
			c1.35-0.675,2.313-0.482,2.796-0.289c1.832-0.193,4.146,0.289,5.979,0.193c1.736-0.387,3.857-0.579,5.593-0.579
			c2.701-1.35,6.076-1.736,8.775-2.314c1.543,0.386,3.376,0,4.822,0.192c6.557,0,13.308-1.639,19.479-2.507
			c1.157,0.097,2.894-0.192,3.954,0.097c0.192-0.097,0.674-0.097,0.771-0.193c4.821-0.192,8.679-0.289,13.5-0.289
			c2.219,0,4.146,0.386,6.172,0.482h-0.096c-2.508,1.832-5.979,1.157-8.68,1.735c-3.954-0.964-8.101,1.061-12.344-0.578
			c-2.507,2.604-5.496,0.578-8.1,1.446c-2.411-0.289-5.305-0.193-7.33,1.061c-0.964-0.096-1.832,0.289-3.182-0.192
			c-2.314,1.35-5.207,0.675-7.618,0.675c-3.954-0.868-7.136,1.735-10.897,1.254c-2.699,1.35-5.785,1.156-8.871,1.156
			c-0.965-1.06-2.508-0.096-4.436-2.218c-0.676,4.243-0.289,6.751-0.482,9.354c0.482,2.025-0.289,4.243,0,6.461
			c-0.097,0.097-0.097,0.192-0.193,0.29c-0.771-0.098-0.964-0.965-1.254-1.544c0.579-1.928,0.482-3.856,0-5.785
			c-0.385-0.482,0-1.351,0.097-2.314c-1.061-1.446-0.192-3.568-0.964-4.919c0.482-1.543-0.193-3.182-0.097-4.725
			c-0.868-1.543,0.29-3.568-0.579-5.111c0-1.35-1.832-2.7-0.289-3.761c0.097-0.097,0.289-0.192,0.482-0.289
			C1258.633,717.452,1259.114,717.547,1259.212,717.933z"/>
		<path style="fill:#17192D;" d="M1346.966,681.964c-0.289,0.096-1.062,0.675-1.736,0.867c-1.832,0.097-4.436,0.289-6.268,0.579
			c-1.062-0.387-3.086,0.386-4.146,0.096c-5.111,0.482-10.223,0.772-16.009,0.676c-1.061,0.675-2.989,0.192-4.146,0.192
			c-5.399-0.192-10.318-1.543-15.044-0.868c-3.375,0-7.232,1.254-10.8,0c-2.507,0.387-6.172-0.096-8.196,0.097
			c-0.098,0.097-0.289,0.193-0.387,0.29c-5.014-0.482-10.607,0.578-15.43,0.192c-0.385-0.097-0.867-0.771-0.191-0.868
			c9.932-1.253,21.215-0.771,31.727-1.253c2.313-0.097,5.785,0.096,8.293-0.387c0.096,0.097,0.192,0.193,0.289,0.29
			c3.761,0,7.232,0.482,10.801,0.771c0.289-0.193,0.964-0.097,1.156,0c5.786,0.192,12.537-0.868,18.033-0.675
			c3.183-1.543,6.558,0.675,9.451-1.158c0.385-0.578,1.253-0.289,1.735-0.771C1347.255,680.806,1347.158,681.578,1346.966,681.964z"
			/>
		<path style="fill:#17192D;" d="M1278.498,653.805c1.061,0,2.604-0.097,3.761-0.192c2.797-1.736,7.136,0,10.415,0.386
			c2.024-1.157,5.399-0.482,7.521-0.675c3.086-0.771,7.136,0.192,10.704,0.192c6.268,0,13.501-0.192,19.769-0.482
			c0.964-0.096,1.929-0.675,2.797-0.289c0.097,0.097,0.192-0.096,0.289-0.096c-2.218,1.446-4.918,1.542-7.136,2.507
			c-3.182,2.796-6.848,4.243-10.222,6.364c-4.051,1.832-8.197,3.183-11.861,5.979c-1.157,0.579-2.218,1.254-3.375,1.832
			l-2.797,1.351l3.183,0.193c7.521,0.481,14.561-1.351,22.275-0.29c3.086,0,5.979-1.254,8.969-0.675c0.771-0.097,1.735,0,2.41,0
			c-0.096,0.193,0,0.579-0.096,0.675c-0.771,0-1.447,0.193-2.121,0.675c-0.772,0.387-1.736,0.387-2.604,0.579
			c-2.604,0.29-5.208-0.097-7.812,0.482c-7.039,0.192-13.886-0.675-20.732,0.097c-3.183-0.579-6.365,1.061-9.451,0.192
			c-2.025,0.482-4.628-0.578-6.172,0.578c-4.628-0.481-9.16-1.253-13.982-1.253c-1.061-0.386-2.699,0-3.182-1.157
			c-0.098-0.097,0.578-1.061,0.578-0.578c5.207-1.351,9.644,1.735,15.622,1.06c3.087-0.385,6.269,0,9.547-0.964
			c0.964-1.35,2.411-1.254,3.472-2.121c1.929-0.29,3.857-0.771,5.111-2.122c4.918-2.411,9.932-3.278,13.887-6.847
			c1.156-0.481,2.314-1.061,3.567-2.121c0-0.289,2.796-1.543,2.796-1.832c-0.096-0.193-2.988,0.481-2.988,0.096
			c-3.762,0-7.232-0.675-10.223,0.386c-5.4-1.35-10.993-1.446-16.779-0.192c-4.146-0.482-8.39-1.061-12.439-0.289
			c-3.375-1.447-7.137,1.543-10.223-1.157c-0.289-0.868-1.832-0.579-1.735-1.64C1272.519,651.876,1275.315,653.708,1278.498,653.805
			z"/>
		<path style="fill:#17192D;" d="M1309.743,601.443c3.76,0.289,7.617,1.157,11.668,1.64c4.918,0.578,10.029,1.156,14.657,3.472
			c2.411,2.41,5.4,3.664,7.329,6.847c0.289,1.735,1.543,1.446,0.965,3.567c0.096,0.29-0.193,0-0.193-0.386
			c-2.218,0.097-1.158-0.482-2.797-2.7c-2.508,0.771-4.34-0.386-6.172,0.386c-7.715-0.482-14.368,0-21.891,0.771
			c-1.832,0.868-4.146,0.868-6.268,0.579c-1.35-0.482-2.797,0.481-4.436,0.192c-5.015-0.289-10.607-0.289-15.525,0.386
			c-3.665-0.192-7.232,0-10.994,0.386c-1.445-0.289-3.086-0.771-5.111-0.192c-0.578,1.35-1.253,1.061-0.771,2.218
			c-0.192,0.193-0.385,0.482-0.674,0.675c-0.29-0.097-0.58,0-0.869-0.289c0.387-2.797,2.219-4.34,3.955-6.461
			c3.375-3.086,7.715-4.532,11.379-7.521c2.41-1.543,4.918-1.736,7.521-2.797c3.278-0.482,6.943-0.289,10.125-0.964
			C1304.342,601.925,1306.945,601.732,1309.743,601.443z M1294.506,603.854c-3.761-0.193-6.364,1.543-9.933,2.604
			c-0.193,0.192-1.061,1.061-1.543,1.35c-2.699,1.929-5.883,2.797-8.775,6.654c3.472-0.29,5.207,0.964,6.847,0.289
			c2.411,0.289,4.532-0.965,6.943-1.061c3.472,1.061,7.232,0.192,10.801,0.675c3.278,0.386,6.847-0.386,10.222-0.579
			c5.979-2.313,12.922-0.674,19.094-1.35c2.989,0,6.461-0.482,11.186,0.097c-1.832-3.857-5.11-4.532-7.328-5.786
			c-5.689-1.543-11.379-2.508-17.262-3.086c-1.157-0.192-2.604,0.289-3.664-0.386
			C1305.788,603.564,1299.424,601.732,1294.506,603.854z"/>
		<path style="fill:#17192D;" d="M1341.951,583.314c-0.964,2.121-3.278,2.314-4.919,3.472c-2.217,1.157-4.628,2.314-7.136,2.604
			c-0.675,0.386-1.639,0.482-2.411,0.578c-6.461,1.157-12.729,3.762-19.479,3.954c-4.629,0.965-9.74,0.482-14.755,0.385
			c-4.146,0-9.45-1.156-13.597-2.988c-2.025-0.482-4.243-1.254-5.689-2.507c-2.122-0.579-3.762-2.122-5.594-3.279
			c-0.385-0.675-0.867-1.35-0.867-2.025c0-0.096-0.097-0.192-0.097-0.192c1.929,0.481,3.761,1.929,5.689,3.086
			c1.544,0.867,2.411,2.025,4.05,2.411c2.797,0.578,5.016,2.507,7.908,2.313c5.303,1.351,11.09,1.253,17.454,0.868
			c-0.964-2.218,0.675-3.086-0.097-4.436c0.097-0.579,0.193-0.964,0.386-1.351c0.29-0.289,0.482-0.578,0.868-0.289
			c0.193,0.193,0.289,0.289,0.482,0.482c-0.193,0.578,0.192,0.964,0.482,1.253c-0.29,1.254,0,2.508-0.193,4.051
			c4.725,0.482,7.907-0.868,11.765-1.061c1.64-0.771,4.146-0.965,6.172-1.543c1.832-0.578,4.05-0.578,5.786-1.64
			c1.446,0.192,3.086-0.289,4.243-1.736c2.507,0.097,4.437-1.735,7.329-2.313c0-0.771,0-0.482,0-0.482
			c0.481-0.192,1.445-1.254,2.604-0.868C1342.24,582.542,1342.144,582.928,1341.951,583.314z"/>
		<path style="fill:#17192D;" d="M1337.611,549.563c0.192,0.482,1.735,0.482,1.157,1.254c-2.7,1.832-6.364-0.193-9.258,1.35
			c-9.74,2.99-20.058,0.771-29.99,2.122c-5.786,0.771-11.186,0.771-16.876,1.929l-3.278-0.097l-0.097,0.386l3.278,1.446
			c3.762,0.771,8.583,0.868,12.15,1.736c3.375,0.867,6.269,0.964,9.547,1.929c3.568,0.675,7.04,0.289,11.09,0.386
			c0.289,0.192,0.771,0.096,0.965,0.385c-5.111,2.122-11.379,0.676-16.684,2.219c-1.445,1.253-3.857,0.868-5.592,1.639
			c-6.172,0-12.055,2.122-17.841,2.411c-0.675,0.579-1.832,0.676-2.797,1.061c0,0.386-2.603,0.965-2.507,1.157
			c0.096,0.29,3.086,0.193,3.182,0.676c9.547,1.446,18.227,0,27.002,1.061c5.4-2.025,10.993,1.157,16.201-0.579
			c6.172-2.025,13.114,0.289,18.611-1.832c1.639,0,3.375-0.867,4.821,0c1.735,0.097,4.629-1.64,5.979,0.192
			c0,0.193,0.191,0.097,0.289,0.193c-1.351,0.868-3.473,0.193-4.726,0.386c-7.329,1.832-15.044,2.314-22.661,3.472
			c-3.087,0-6.172,0.482-9.065-0.386c-3.761,0.097-7.618,0.386-11.572-0.289c-9.161-0.289-17.551,1.543-26.134-0.965
			c-3.182-0.964-6.268,0-9.064-0.675c0-0.578-2.121,0.482-1.639-0.386c0.578-0.289,0.965-1.254,2.025-1.446
			c4.34-2.411,10.029-1.736,14.85-3.472c5.883-1.061,12.537-1.735,18.612-3.183l3.183-0.771v-0.386l-3.183-0.578
			c-3.954-0.675-7.715-1.254-11.669-1.736c-4.821-2.218-10.511-2.024-15.332-4.146c-0.289-0.289-0.771-0.481-1.158-0.675
			c0.771-1.157,3.086-0.097,4.244-0.192c4.05-2.122,8.582-0.482,13.018-1.64c10.126-1.062,17.647-0.482,27.58-1.351
			c2.314-0.675,5.883-0.675,8.486-1.061c4.629-0.675,9.547,1.157,13.019-1.735C1336.454,548.888,1337.032,549.081,1337.611,549.563z
			"/>
		<path style="fill:#17192D;" d="M1344.458,486.979c2.41,0.289,4.051-0.29,4.629,0.867c0,0.098-0.096,0.289-0.096,0.387
			c-3.568,2.024-8.197,1.157-12.344,2.313c-7.33,1.062-14.852,1.64-21.602,3.375c-1.543,2.122-3.279,5.015-2.218,7.812
			c0.097,0.097-0.289,0-0.675,0.675c0.675,0.964-0.387,1.351-0.387,2.122c-0.385,1.832-0.191,4.146-0.964,7.328
			c5.594,1.255,10.897,1.157,15.526,2.411c3.375,0.964,8.1-0.578,11.475,1.157c1.254,0,2.797-0.193,3.665,0.868
			c0.192,0.482-0.675,0.482-1.061,0.482c-3.954-0.676-6.943-0.386-10.704-0.868c-4.436-1.929-11.187-0.289-16.008-2.218
			c-1.736,0-4.436,0.481-5.787-0.482c-4.531-1.061-9.932,0.289-14.175-1.735c-7.907,0.289-14.465-2.99-22.565-2.99
			c-0.385-0.385-0.385-1.061-1.254-1.156c-2.314-0.772-5.303,0.674-6.75-1.255c0.578-1.061,2.121-0.578,3.279-1.446
			c9.739-2.121,18.707-6.364,28.641-8.196c2.797-1.351,6.268-1.736,9.354-2.99c1.061-0.096,2.121-0.289,3.086,0.098
			c1.929-0.579,4.051-1.255,6.172-1.255c4.532-0.096,8.582-2.218,13.308-1.831c1.446-0.868,3.664-0.193,5.207-0.676
			c2.989-0.289,6.075-1.061,8.872-1.831c0.578-0.291,0.868-0.482,0.965-0.676c0.867-0.386,0.963-0.386,1.639-0.289
			C1343.687,487.075,1344.458,486.786,1344.458,486.979z M1308.007,494.79c-4.822,2.122-10.415,2.122-15.43,3.568
			c-5.883,1.639-11.379,4.918-18.033,6.172c0,1.639,0.676,2.218,1.832,2.314c2.701,0.964,5.208,2.024,8.293,2.411
			c5.689,0.771,12.344,0.289,17.744,1.639c1.447,0,3.568,0,5.496,0.579c0.965-1.158,1.062-2.315,1.93-2.894
			c0-1.157,0.289-2.025,0.386-2.893c0.192-1.446,0.192-2.797,0.482-3.857c0.481-1.833,0.771-2.507,0.964-4.051
			C1314.274,493.247,1309.743,494.886,1308.007,494.79z"/>
		<path style="fill:#17192D;" d="M1278.498,460.169c1.061,0,2.604-0.096,3.761-0.192c2.797-1.736,7.136,0,10.415,0.386
			c2.024-1.157,5.399-0.482,7.521-0.676c3.086-0.771,7.136,0.193,10.704,0.193c6.268,0,13.501-0.193,19.769-0.482
			c0.964-0.096,1.929-0.675,2.797-0.289c0.097,0.097,0.192-0.096,0.289-0.096c-2.218,1.446-4.918,1.542-7.136,2.507
			c-3.182,2.796-6.848,4.242-10.222,6.364c-4.051,1.833-8.197,3.183-11.861,5.979c-1.157,0.578-2.218,1.253-3.375,1.831
			l-2.797,1.351l3.183,0.193c7.521,0.482,14.561-1.351,22.275-0.289c3.086,0,5.979-1.255,8.969-0.676c0.771-0.097,1.735,0,2.41,0
			c-0.096,0.193,0,0.578-0.096,0.676c-0.771,0-1.447,0.191-2.121,0.674c-0.772,0.387-1.736,0.387-2.604,0.579
			c-2.604,0.289-5.208-0.097-7.812,0.482c-7.039,0.193-13.886-0.675-20.732,0.096c-3.183-0.578-6.365,1.062-9.451,0.193
			c-2.025,0.482-4.628-0.578-6.172,0.578c-4.628-0.481-9.16-1.253-13.982-1.253c-1.061-0.386-2.699,0-3.182-1.158
			c-0.098-0.096,0.578-1.06,0.578-0.578c5.207-1.35,9.644,1.736,15.622,1.061c3.087-0.385,6.269,0,9.547-0.964
			c0.964-1.35,2.411-1.254,3.472-2.121c1.929-0.29,3.857-0.772,5.111-2.122c4.918-2.41,9.932-3.278,13.887-6.846
			c1.156-0.482,2.314-1.062,3.567-2.122c0-0.289,2.796-1.544,2.796-1.833c-0.096-0.192-2.988,0.482-2.988,0.098
			c-3.762,0-7.232-0.676-10.223,0.385c-5.4-1.35-10.993-1.446-16.779-0.193c-4.146-0.481-8.39-1.06-12.439-0.289
			c-3.375-1.446-7.137,1.544-10.223-1.156c-0.289-0.868-1.832-0.579-1.735-1.64C1272.519,458.241,1275.315,460.074,1278.498,460.169
			z"/>
		<path style="fill:#17192D;" d="M1309.743,433.94c3.76,0.29,7.617,1.157,11.668,1.64c4.918,0.579,10.029,1.156,14.657,3.472
			c2.411,2.41,5.4,3.664,7.329,6.846c0.289,1.736,1.543,1.447,0.965,3.569c0.096,0.288-0.193,0-0.193-0.387
			c-2.218,0.097-1.158-0.481-2.797-2.7c-2.508,0.771-4.34-0.385-6.172,0.387c-7.715-0.482-14.368,0-21.891,0.771
			c-1.832,0.867-4.146,0.867-6.268,0.578c-1.35-0.482-2.797,0.482-4.436,0.192c-5.015-0.288-10.607-0.288-15.525,0.387
			c-3.665-0.193-7.232,0-10.994,0.385c-1.445-0.289-3.086-0.771-5.111-0.192c-0.578,1.35-1.253,1.062-0.771,2.218
			c-0.192,0.193-0.385,0.482-0.674,0.676c-0.29-0.098-0.58,0-0.869-0.29c0.387-2.796,2.219-4.34,3.955-6.461
			c3.375-3.086,7.715-4.532,11.379-7.521c2.41-1.543,4.918-1.736,7.521-2.796c3.278-0.482,6.943-0.29,10.125-0.965
			C1304.342,434.422,1306.945,434.23,1309.743,433.94z M1294.506,436.351c-3.761-0.192-6.364,1.543-9.933,2.604
			c-0.193,0.192-1.061,1.061-1.543,1.351c-2.699,1.929-5.883,2.796-8.775,6.653c3.472-0.289,5.207,0.965,6.847,0.289
			c2.411,0.29,4.532-0.964,6.943-1.061c3.472,1.061,7.232,0.192,10.801,0.675c3.278,0.386,6.847-0.385,10.222-0.578
			c5.979-2.314,12.922-0.675,19.094-1.351c2.989,0,6.461-0.482,11.186,0.097c-1.832-3.857-5.11-4.532-7.328-5.786
			c-5.689-1.543-11.379-2.508-17.262-3.085c-1.157-0.193-2.604,0.289-3.664-0.387
			C1305.788,436.062,1299.424,434.23,1294.506,436.351z"/>
		<path style="fill:#17192D;" d="M1275.798,418.415c1.446,0.194,2.41,1.641,4.051,1.641c3.086,1.543,5.979,2.313,9.739,2.507
			c0.579,0.289,1.543,0.385,2.218,0.578c2.121,0.193,4.051,1.157,6.076,1.157c1.253,0.386,2.988-0.289,4.146,1.254
			c1.543-0.387,2.699-0.771,3.664-1.254c0.385-0.771,1.446-1.735,1.35-2.797c0.676-1.061,0.097-1.928,0.578-3.278
			c0.579-1.832,0.579-2.893,1.543-4.821c0.482-0.387,0.965-0.772,1.544-0.676c0.386,0.965,0,2.122,0,3.278
			c-1.254,2.508-1.062,3.857-1.929,7.137c0.771,0.482,0.482,0.868,0.771,1.061c2.41,0.386,5.014,0.097,7.039-0.386
			c1.254,0.193,2.314-0.289,4.243-0.289c0.386-1.157,1.254-0.29,1.832-0.579c3.472-0.289,6.558-2.218,10.126-2.409
			c1.543-1.351,4.146-1.158,5.689-2.315c1.832,0.192,2.797-2.219,5.111-1.64c1.156-0.867,2.218-1.929,3.664-1.929
			c0.386,0.289,0.771,0.579,1.156,0.965c-0.191,1.446-1.832,1.543-2.893,2.313c-1.639,0.194-3.182,0.579-4.34,1.641
			c-2.121-0.097-3.375,1.734-5.399,1.639c-0.772,0.482-1.543,0.578-2.122,0.965c-0.771-0.097-1.446,0.192-2.025,0.481
			c-4.436,0-7.906,2.894-12.343,2.604c-0.578,0.385-1.64,0.385-2.218,0.482c-4.726,1.639-10.222,1.349-15.043,1.253
			c-2.219-0.578-4.919,0-6.848-0.964c-5.979-1.061-11.765-3.472-17.454-5.016c-2.7-1.06-5.208-2.699-7.715-4.05
			c-2.796-1.543-6.075-2.604-8.101-5.4c0-0.192,0-0.482,0.193-0.578C1266.444,413.787,1270.976,416.293,1275.798,418.415z"/>
		<path style="fill:#17192D;" d="M1332.211,391.415c-3.472,2.507-7.907,2.121-11.089,4.821c-1.254,0.387-2.604,1.062-3.666,1.736
			c-2.988-0.097-6.074,1.832-10.125,3.664c2.604,1.062,4.533,0.771,5.883,0.386c5.689,0,10.704-0.964,16.683-0.097
			c1.64,0,3.665-0.481,5.11,0.193c2.797,0.097,6.076-0.675,8.486,0.675c0.098,0.097,0.098,0.097,0.193,0.193
			c-2.025,0.578-4.629,0.385-6.654,0.289c-1.735-0.482-3.567,0.192-5.496,0.192c-3.761,0.097-7.715-1.253-11.09,0.386
			c-3.086,0.387-5.979-1.061-8.969,0c-2.699,0.868-5.4-0.482-7.906,0.772c-4.63-0.772-10.608,0.096-15.623-0.772
			c-5.689,0-11.475,0.387-17.068-0.578c-3.086-0.097-4.34-0.675-7.232-1.254c-0.097,0,0.482-0.675,0.482-0.867
			c3.086-1.833,4.146-2.411,7.425-3.665c4.532-1.832,9.354-1.446,13.887-2.7c6.364,0.097,12.632,0.964,17.261,7.04
			c8.486-5.111,17.551-5.689,25.748-10.126c3.664-1.157,7.039-2.989,10.704-4.146c0.579,0,1.543-0.386,2.218-0.192
			C1338.383,389.1,1335.297,390.451,1332.211,391.415z M1277.919,397.779c-1.254,0.386-2.796-0.097-3.953,0.676
			c-1.543-0.193-2.99,0.675-4.243,1.156l-2.314,1.64c0.868,0.097,4.243,0.386,5.208,0.579c1.253,1.253,3.471,0.675,5.014,1.061
			c7.137-0.965,15.141,0.192,23.723-0.192c-1.254-1.543-2.507-1.929-3.182-2.604c-1.351-1.35-5.111-2.796-7.619-3.857
			C1286.212,396.815,1281.584,395.85,1277.919,397.779z"/>
		<path style="fill:#17192D;" d="M1341.951,370.489c-0.964,2.121-3.278,2.314-4.919,3.472c-2.217,1.157-4.628,2.313-7.136,2.604
			c-0.675,0.386-1.639,0.482-2.411,0.578c-6.461,1.157-12.729,3.762-19.479,3.954c-4.629,0.964-9.74,0.482-14.755,0.386
			c-4.146,0-9.45-1.157-13.597-2.989c-2.025-0.482-4.243-1.254-5.689-2.508c-2.122-0.578-3.762-2.121-5.594-3.278
			c-0.385-0.675-0.867-1.35-0.867-2.025c0-0.097-0.097-0.192-0.097-0.192c1.929,0.481,3.761,1.928,5.689,3.086
			c1.544,0.867,2.411,2.025,4.05,2.41c2.797,0.579,5.016,2.508,7.908,2.314c5.303,1.351,11.09,1.254,17.454,0.868
			c-0.964-2.218,0.675-3.086-0.097-4.436c0.097-0.579,0.193-0.965,0.386-1.351c0.29-0.289,0.482-0.578,0.868-0.289
			c0.193,0.193,0.289,0.289,0.482,0.482c-0.193,0.578,0.192,0.964,0.482,1.253c-0.29,1.254,0,2.508-0.193,4.051
			c4.725,0.482,7.907-0.868,11.765-1.061c1.64-0.771,4.146-0.965,6.172-1.544c1.832-0.578,4.05-0.578,5.786-1.639
			c1.446,0.192,3.086-0.289,4.243-1.736c2.507,0.097,4.437-1.735,7.329-2.314c0-0.771,0-0.481,0-0.481
			c0.481-0.193,1.445-1.254,2.604-0.868C1342.24,369.717,1342.144,370.103,1341.951,370.489z"/>
		<path style="fill:#17192D;" d="M1278.498,342.524c1.061,0,2.604-0.097,3.761-0.192c2.797-1.736,7.136,0,10.415,0.386
			c2.024-1.158,5.399-0.482,7.521-0.676c3.086-0.771,7.136,0.193,10.704,0.193c6.268,0,13.501-0.193,19.769-0.482
			c0.964-0.097,1.929-0.675,2.797-0.289c0.097,0.096,0.192-0.097,0.289-0.097c-2.218,1.446-4.918,1.543-7.136,2.507
			c-3.182,2.797-6.848,4.243-10.222,6.365c-4.051,1.832-8.197,3.182-11.861,5.979c-1.157,0.578-2.218,1.254-3.375,1.832
			l-2.797,1.351l3.183,0.192c7.521,0.482,14.561-1.35,22.275-0.289c3.086,0,5.979-1.254,8.969-0.675c0.771-0.097,1.735,0,2.41,0
			c-0.096,0.192,0,0.578-0.096,0.675c-0.771,0-1.447,0.192-2.121,0.675c-0.772,0.386-1.736,0.386-2.604,0.579
			c-2.604,0.289-5.208-0.097-7.812,0.481c-7.039,0.193-13.886-0.675-20.732,0.097c-3.183-0.578-6.365,1.061-9.451,0.193
			c-2.025,0.482-4.628-0.579-6.172,0.578c-4.628-0.482-9.16-1.254-13.982-1.254c-1.061-0.385-2.699,0-3.182-1.157
			c-0.098-0.096,0.578-1.061,0.578-0.578c5.207-1.351,9.644,1.735,15.622,1.061c3.087-0.386,6.269,0,9.547-0.964
			c0.964-1.351,2.411-1.254,3.472-2.122c1.929-0.289,3.857-0.771,5.111-2.121c4.918-2.411,9.932-3.279,13.887-6.847
			c1.156-0.482,2.314-1.061,3.567-2.122c0-0.289,2.796-1.543,2.796-1.832c-0.096-0.192-2.988,0.482-2.988,0.097
			c-3.762,0-7.232-0.676-10.223,0.386c-5.4-1.351-10.993-1.446-16.779-0.193c-4.146-0.481-8.39-1.061-12.439-0.289
			c-3.375-1.446-7.137,1.543-10.223-1.157c-0.289-0.868-1.832-0.578-1.735-1.64C1272.519,340.595,1275.315,342.427,1278.498,342.524
			z"/>
		<path style="fill:#17192D;" d="M1297.206,278.107c6.461,2.314,13.308,1.639,19.479,4.243c6.364,2.7,13.308,3.857,19.865,5.979
			c0.192,0.193,0.481,0.482,0.675,0.771c-2.121,0.868-4.918-0.868-7.426-0.578c-7.617-0.579-14.754,1.929-22.758,2.989l-0.386,1.736
			c8.679,1.736,16.008,5.4,24.012,6.943c0.29,0.193,0.772,0.29,1.062,0.482c1.735,0.096,3.857-1.061,5.111-0.097
			c-0.098,0.675-0.772,0.964-1.447,1.157c-1.543-0.193-2.7,0.868-4.146,1.254c-8.583-0.386-16.201,1.446-24.88,2.025
			c-10.704,0.771-21.312,1.543-31.437,1.447c-5.305,0.771-9.354,0.964-13.502,0.482c-0.385-0.193-1.156,0-1.542-0.097
			c0.289-0.192,0.578-0.482,0.868-0.771c3.182-0.675,5.979-0.675,9.354-0.964c14.658-1.158,30.762,0.096,45.806-2.411
			c2.7-0.482,5.399-0.29,8.293-0.579c1.929-0.675,1.062-2.604-0.386-2.218c-6.268-3.086-13.887-3.568-20.154-5.882
			c-1.157-0.386-2.989-0.097-3.472-1.253c0.192-0.386,0.579-0.579,0.965-0.772c6.558-2.121,13.693-2.893,23.529-5.4
			c-6.075-2.218-9.644-2.604-12.44-4.243c-7.039,0-11.861-2.893-18.9-2.893c-5.4-2.025-11.765-1.157-17.165-3.472
			c-4.436-0.097-8.101-1.061-13.308-1.929c-0.096,0-0.386,0-0.482-0.097c0.097-0.192,0.193-0.385,0.289-0.674
			c0.771,0,1.254-0.386,1.64-0.579C1275.22,273.575,1286.212,276.661,1297.206,278.107z"/>
		<path style="fill:#17192D;" d="M1341.469,261.617c0.289,0.097,0.482,0.193,0.675,0.386c-0.867,2.218-3.471,0.964-5.496,1.542
			c-1.736,0.29-3.375,0-5.111,0.097c-4.725,0.097-9.45-0.097-13.982,0c-2.411,0-5.594,0.193-8.101-0.097
			c-1.64-0.192-3.665,0-5.304,0.097c-3.954,0.386-7.715,0-11.861,0.29c-0.193-0.193-0.386-0.193-0.578-0.193
			c-1.736,0.868-3.665,0.096-5.305,0.385c-3.953,0.193-7.715,0.579-11.572,0.579c-2.699-1.157-5.496,0.579-8.293-0.096
			c-0.386-0.097,0.578-1.157,0.868-1.157c4.243-2.893,9.161,1.157,13.886-0.193c5.594-1.543,11.862-0.964,17.358-1.253
			c5.497-0.29,10.704,0.192,16.298,0c1.542-0.193,3.086-0.193,4.725-0.193c0.386,0,0.868,0.096,1.254,0.096
			c4.242-0.096,8.486-0.096,12.246-0.675C1336.068,262.003,1338.479,261.521,1341.469,261.617z"/>
		<path style="fill:#17192D;" d="M1275.798,245.224c1.446,0.193,2.41,1.64,4.051,1.64c3.086,1.542,5.979,2.315,9.739,2.507
			c0.579,0.29,1.543,0.386,2.218,0.579c2.121,0.193,4.051,1.158,6.076,1.158c1.253,0.385,2.988-0.29,4.146,1.253
			c1.543-0.386,2.699-0.771,3.664-1.253c0.385-0.772,1.446-1.737,1.35-2.797c0.676-1.061,0.097-1.929,0.578-3.279
			c0.579-1.832,0.579-2.893,1.543-4.821c0.482-0.386,0.965-0.772,1.544-0.675c0.386,0.964,0,2.121,0,3.278
			c-1.254,2.508-1.062,3.857-1.929,7.136c0.771,0.482,0.482,0.868,0.771,1.061c2.41,0.386,5.014,0.097,7.039-0.385
			c1.254,0.192,2.314-0.29,4.243-0.29c0.386-1.156,1.254-0.289,1.832-0.578c3.472-0.289,6.558-2.218,10.126-2.411
			c1.543-1.351,4.146-1.158,5.689-2.315c1.832,0.193,2.797-2.218,5.111-1.639c1.156-0.868,2.218-1.929,3.664-1.929
			c0.386,0.289,0.771,0.578,1.156,0.964c-0.191,1.447-1.832,1.542-2.893,2.314c-1.639,0.193-3.182,0.579-4.34,1.64
			c-2.121-0.096-3.375,1.735-5.399,1.64c-0.772,0.482-1.543,0.578-2.122,0.964c-0.771-0.097-1.446,0.193-2.025,0.482
			c-4.436,0-7.906,2.893-12.343,2.604c-0.578,0.385-1.64,0.385-2.218,0.482c-4.726,1.639-10.222,1.35-15.043,1.253
			c-2.219-0.579-4.919,0-6.848-0.964c-5.979-1.062-11.765-3.473-17.454-5.015c-2.7-1.06-5.208-2.7-7.715-4.05
			c-2.796-1.542-6.075-2.603-8.101-5.4c0-0.193,0-0.482,0.193-0.578C1266.444,240.596,1270.976,243.103,1275.798,245.224z"/>
		<path style="fill:#17192D;" d="M1309.743,214.077c3.76,0.29,7.617,1.157,11.668,1.64c4.918,0.579,10.029,1.157,14.657,3.471
			c2.411,2.411,5.4,3.664,7.329,6.847c0.289,1.736,1.543,1.447,0.965,3.568c0.096,0.29-0.193,0-0.193-0.385
			c-2.218,0.096-1.158-0.482-2.797-2.7c-2.508,0.771-4.34-0.386-6.172,0.386c-7.715-0.482-14.368,0-21.891,0.771
			c-1.832,0.869-4.146,0.869-6.268,0.58c-1.35-0.482-2.797,0.482-4.436,0.192c-5.015-0.29-10.607-0.29-15.525,0.386
			c-3.665-0.193-7.232,0-10.994,0.386c-1.445-0.29-3.086-0.771-5.111-0.193c-0.578,1.35-1.253,1.061-0.771,2.218
			c-0.192,0.193-0.385,0.482-0.674,0.675c-0.29-0.097-0.58,0-0.869-0.289c0.387-2.797,2.219-4.34,3.955-6.461
			c3.375-3.086,7.715-4.533,11.379-7.521c2.41-1.543,4.918-1.736,7.521-2.796c3.278-0.482,6.943-0.29,10.125-0.965
			C1304.342,214.559,1306.945,214.367,1309.743,214.077z M1294.506,216.488c-3.761-0.192-6.364,1.543-9.933,2.604
			c-0.193,0.193-1.061,1.061-1.543,1.35c-2.699,1.929-5.883,2.797-8.775,6.654c3.472-0.289,5.207,0.964,6.847,0.289
			c2.411,0.289,4.532-0.964,6.943-1.06c3.472,1.06,7.232,0.192,10.801,0.674c3.278,0.386,6.847-0.385,10.222-0.579
			c5.979-2.314,12.922-0.675,19.094-1.35c2.989,0,6.461-0.482,11.186,0.096c-1.832-3.857-5.11-4.533-7.328-5.786
			c-5.689-1.543-11.379-2.507-17.262-3.085c-1.157-0.193-2.604,0.289-3.664-0.386
			C1305.788,216.199,1299.424,214.367,1294.506,216.488z"/>
		<path style="fill:#17192D;" d="M1341.951,195.948c-0.964,2.122-3.278,2.314-4.919,3.472c-2.217,1.157-4.628,2.314-7.136,2.604
			c-0.675,0.386-1.639,0.482-2.411,0.578c-6.461,1.157-12.729,3.761-19.479,3.954c-4.629,0.964-9.74,0.482-14.755,0.385
			c-4.146,0-9.45-1.156-13.597-2.989c-2.025-0.482-4.243-1.254-5.689-2.507c-2.122-0.579-3.762-2.122-5.594-3.279
			c-0.385-0.675-0.867-1.351-0.867-2.025c0-0.097-0.097-0.193-0.097-0.193c1.929,0.482,3.761,1.929,5.689,3.086
			c1.544,0.867,2.411,2.025,4.05,2.411c2.797,0.579,5.016,2.507,7.908,2.314c5.303,1.35,11.09,1.253,17.454,0.868
			c-0.964-2.218,0.675-3.086-0.097-4.437c0.097-0.578,0.193-0.964,0.386-1.35c0.29-0.289,0.482-0.579,0.868-0.289
			c0.193,0.192,0.289,0.289,0.482,0.482c-0.193,0.578,0.192,0.964,0.482,1.253c-0.29,1.254,0,2.507-0.193,4.051
			c4.725,0.482,7.907-0.868,11.765-1.061c1.64-0.771,4.146-0.964,6.172-1.543c1.832-0.579,4.05-0.579,5.786-1.639
			c1.446,0.192,3.086-0.29,4.243-1.736c2.507,0.097,4.437-1.735,7.329-2.314c0-0.771,0-0.482,0-0.482
			c0.481-0.193,1.445-1.253,2.604-0.867C1342.24,195.177,1342.144,195.562,1341.951,195.948z"/>
		<path style="fill:#17192D;" d="M1332.211,174.445c-3.472,2.507-7.907,2.121-11.089,4.821c-1.254,0.386-2.604,1.061-3.666,1.736
			c-2.988-0.097-6.074,1.832-10.125,3.664c2.604,1.061,4.533,0.771,5.883,0.386c5.689,0,10.704-0.964,16.683-0.097
			c1.64,0,3.665-0.482,5.11,0.193c2.797,0.096,6.076-0.675,8.486,0.675c0.098,0.096,0.098,0.096,0.193,0.193
			c-2.025,0.579-4.629,0.385-6.654,0.29c-1.735-0.482-3.567,0.192-5.496,0.192c-3.761,0.097-7.715-1.253-11.09,0.386
			c-3.086,0.386-5.979-1.061-8.969,0c-2.699,0.868-5.4-0.482-7.906,0.772c-4.63-0.772-10.608,0.096-15.623-0.772
			c-5.689,0-11.475,0.386-17.068-0.578c-3.086-0.097-4.34-0.675-7.232-1.254c-0.097,0,0.482-0.675,0.482-0.868
			c3.086-1.832,4.146-2.411,7.425-3.664c4.532-1.832,9.354-1.446,13.887-2.7c6.364,0.096,12.632,0.964,17.261,7.04
			c8.486-5.111,17.551-5.689,25.748-10.125c3.664-1.157,7.039-2.989,10.704-4.146c0.579,0,1.543-0.386,2.218-0.193
			C1338.383,172.13,1335.297,173.48,1332.211,174.445z M1277.919,180.809c-1.254,0.386-2.796-0.097-3.953,0.675
			c-1.543-0.193-2.99,0.675-4.243,1.157l-2.314,1.64c0.868,0.097,4.243,0.386,5.208,0.579c1.253,1.253,3.471,0.675,5.014,1.061
			c7.137-0.964,15.141,0.193,23.723-0.192c-1.254-1.543-2.507-1.929-3.182-2.604c-1.351-1.35-5.111-2.796-7.619-3.857
			C1286.212,179.845,1281.584,178.88,1277.919,180.809z"/>
		<path style="fill:#17192D;" d="M1337.032,141.947c-1.156,0.868-2.699,1.446-3.857,2.411c-4.725,1.35-9.836,2.604-14.946,2.604
			c-3.665,0.579-7.426,1.35-10.993,2.218c-1.929-0.193-4.146-0.579-6.365-0.097c-0.289,0.771-0.289,1.061-1.446,1.35
			c1.062,2.796,3.278,4.725,4.339,6.75c0.579,0.289,1.158,1.061,0.965,1.736c-0.386,1.157,0.193,1.157,0.868,1.832
			c0.868,0,1.64,0.097,2.411,0.482c2.025-0.675,3.568-0.675,5.207-0.096c1.832,1.061,3.375,0.29,5.4,0
			c3.857-0.579,7.521-1.447,11.476-1.639c3.085-0.097,6.172-0.097,9.45-0.097c0.289,0.097,0.578,0.193,0.482,0.482
			c0,0.289-0.386,0.579-0.676,0.675c-4.821,0.29-9.45,0.482-13.693,1.833c-3.182-0.097-5.785,0.868-8.775,0.579
			c-7.135-0.675-14.658,0-21.408,0.868c-2.988-0.675-5.303,0.579-8.196,0.386c-7.521-0.579-15.333-0.579-21.987-2.796
			c-0.964-0.29-0.482-1.061-0.964-1.736c0.097-0.289,0.579,0,0.771-0.096c2.314,0.482,4.339,1.542,6.654,1.446
			c0.096,0.096,0.096,0.096,0.192,0.192c3.954-0.192,7.618,1.061,11.09,0.868c2.604,1.446,5.496-0.386,8.293,0.096
			c3.568,0.579,6.559-0.674,10.029-1.157c0.482-0.386,1.157-0.772,1.832-1.543c-1.156-3.086-4.725-5.015-5.111-7.522
			c0.482,0-0.674-0.771-0.191-2.314c-2.99-0.869-5.4,0.289-7.619-0.772c-1.832-0.482-3.664,0.482-5.594-0.579
			c-2.604,1.254-4.917,0.097-7.425,0.29c-1.446-1.254-2.024,1.253-3.761,0.097c-1.64,0.482-3.857,0.771-5.207,0
			c0.096-0.386,0.096-0.675,0-1.061c1.446-0.868,3.472,0.289,4.918-0.868c2.121-0.193,3.664,0.964,5.785,0.578
			c6.172-1.157,13.02,0.193,19.287-0.193c4.34-0.193,9.064,0.482,13.211-0.964c6.559-1.061,13.404-1.929,19.576-3.183
			c1.543-0.964,3.375-2.025,5.305-1.929C1336.647,141.368,1336.937,141.561,1337.032,141.947z"/>
		<path style="fill:#17192D;" d="M1312.731,116.488c6.075-0.771,11.476,2.218,17.068,3.472c2.314,1.253,5.016,1.446,7.715,3.182
			c0.868-0.289,0.965,0.386,1.254,0.771c0,0.096-0.096-0.482-0.096-0.482c-3.279,1.929-7.137,4.05-11.188,5.208
			c-2.121,0.964-4.725,1.253-6.846,1.929c-2.604,0.771-5.111,1.639-7.619,2.314c-5.207,0.482-8.582,1.35-13.597,1.833
			c-3.761-0.675-8.196-0.29-11.571-1.736c-2.122,0.771-4.726-0.193-6.751-0.675c-2.507,0.482-4.532-1.832-6.942-2.122
			c-2.604-1.157-5.883-0.964-7.715-3.182c0.096-0.097-1.061-0.771-0.387-1.543c0.193-0.193,0.29-0.386,0.482-0.579
			c1.64-1.157,2.797-2.797,4.822-3.665c4.436-2.507,9.45-4.918,15.043-4.725c2.989,0.579,5.883-1.929,8.872-0.386
			C1300.774,116.103,1307.331,115.428,1312.731,116.488z M1268.95,124.299c-0.385,1.061-1.253,2.7,0.676,2.7
			c6.75,2.507,13.501,3.857,20.443,4.918c6.751,0.964,13.115,1.543,19.674-0.29c8.389-2.411,17.261-3.954,26.711-8.389
			c-5.496-1.061-8.582-2.7-11.957-3.279c-7.426-0.482-14.176-2.7-21.698-2.507C1290.648,117.646,1278.401,118.996,1268.95,124.299z"
			/>
		<path style="fill:#17192D;" d="M1336.551,94.116c-0.289,2.025,0.097,3.761,0.771,5.4c-0.096,0.482-0.48,0.964-0.771,1.061
			c-1.254,1.833,1.157,5.111-2.025,6.075c-1.061,0.29-2.218-0.193-3.085,0.579c-3.376,1.253-4.437,0.289-7.715,0.579
			c-2.894,0.192-6.365-1.254-9.162,0c-1.543,0-2.797-0.579-4.146-0.772c-3.664,1.35-7.811-0.675-11.668,0.29
			c-2.797,0.193-5.015-0.964-7.812,0.289c-0.579,0.097-1.061,0.097-1.543,0.289c-5.689,0-11.571-0.578-17.165,0.097
			c-2.797,0-5.496-0.097-8.004-1.446c-0.482-0.386,0.097-0.964,0.578-1.157c0.676,0,1.641-0.193,2.701,0.675
			c2.025-0.868,3.857,0.097,5.593-0.289c1.446,0.386,3.086,0.482,4.629,0.097c3.278-1.929,6.751,0.289,10.126,0.192
			c3.278-0.097,6.557-1.35,9.932-0.964c3.472,0.482,7.522,0.772,11.09,0.386c1.158-0.386,2.508,0.193,3.568-0.192
			c1.061,0.192,2.508,0.096,3.472,0.771c1.351-0.192,2.989-0.482,4.339-0.868c0.771,0.386,1.93,0.289,2.604,0.482
			c3.664,0.289,4.437,0.771,7.811-0.385c2.218,0.771,1.351-1.543,3.279-2.025c1.253-0.482,0.578-1.061,0.578-1.736
			c-0.289-1.543,1.254-2.7,0.579-4.05c-0.482-1.253-0.098-2.893-1.062-4.243c-0.096-0.385-0.096-0.868,0.386-0.868
			C1335.683,92.091,1335.876,93.345,1336.551,94.116z"/>
		<path style="fill:#17192D;" d="M1259.212,65.669c0.192,1.639,0.867,2.796,1.156,4.532c-0.578,2.604-0.096,4.918,0.869,8.101
			c1.35-0.675,2.313-0.482,2.796-0.289c1.832-0.193,4.146,0.289,5.979,0.193c1.736-0.386,3.857-0.579,5.593-0.579
			c2.701-1.35,6.076-1.736,8.775-2.314c1.543,0.386,3.376,0,4.822,0.193c6.557,0,13.308-1.639,19.479-2.507
			c1.157,0.097,2.894-0.193,3.954,0.097c0.192-0.097,0.674-0.097,0.771-0.193c4.821-0.193,8.679-0.29,13.5-0.29
			c2.219,0,4.146,0.386,6.172,0.482h-0.096c-2.508,1.832-5.979,1.157-8.68,1.736c-3.954-0.964-8.101,1.061-12.344-0.579
			c-2.507,2.604-5.496,0.579-8.1,1.446c-2.411-0.29-5.305-0.193-7.33,1.061c-0.964-0.097-1.832,0.289-3.182-0.193
			c-2.314,1.35-5.207,0.675-7.618,0.675c-3.954-0.868-7.136,1.736-10.897,1.254c-2.699,1.35-5.785,1.157-8.871,1.157
			c-0.965-1.061-2.508-0.097-4.436-2.218c-0.676,4.243-0.289,6.75-0.482,9.354c0.482,2.025-0.289,4.243,0,6.461
			c-0.097,0.097-0.097,0.193-0.193,0.289c-0.771-0.096-0.964-0.964-1.254-1.542c0.579-1.929,0.482-3.857,0-5.786
			c-0.385-0.482,0-1.35,0.097-2.314c-1.061-1.447-0.192-3.568-0.964-4.918c0.482-1.543-0.193-3.182-0.097-4.725
			c-0.868-1.543,0.29-3.568-0.579-5.111c0-1.35-1.832-2.7-0.289-3.761c0.097-0.097,0.289-0.193,0.482-0.289
			C1258.633,65.187,1259.114,65.283,1259.212,65.669z"/>
		<path style="fill:#17192D;" d="M1334.622,57.954c0,0.482-0.675,0.772-1.061,0.867c-1.447,0.964-3.472,0.097-5.015,0.869
			c-0.482,0-0.868-0.193-1.157-0.481c0-0.482,0.193-0.676,0.386-0.869c1.351-0.385,2.7-2.603,4.339-0.964
			C1333.368,57.28,1333.947,57.568,1334.622,57.954z"/>
	</g>
	<path style="fill:none;stroke:#17192D;stroke-width:3;" d="M2048,0"/>
	<path style="fill:none;stroke:#17192D;stroke-width:3;" d="M2048,1536"/>
	<path style="fill:none;stroke:#17192D;stroke-width:3;" d="M0,1536"/>
	<path style="fill:none;stroke:#17192D;stroke-width:3;" d="M0,0"/>
</g>
<g id="Layer_1">
</g>
</svg>
