<svg xmlns="http://www.w3.org/2000/svg" width="2048" height="1536" viewBox="0 0 2048 1536"><g><g fill="#FF0050"><path d="M1011.658 1482.067c4.05.675 7.426 1.156 11.38.48 2.603.386 4.435-.097 6.75-.675 2.218.578 5.495.29 8.003.675 2.122.965 4.245.29 6.462.29 2.7 0 5.207.192 8.004.192.867.096 1.93-.58 2.797.48 1.447 0 2.51.578 3.474.867 1.156.965 3.375.676 4.53 1.833 1.93.482 2.894 2.507 4.147 3.76.867.966 1.736 1.063 2.12 2.315-.673.482-.866.965-1.638.868-1.832.097-1.445-1.832-2.7-2.604-2.313-3.666-6.75-5.787-11.38-5.787-.77-.098-1.35-.58-2.314-.77-4.82.48-9.836 1.155-14.945.77-4.146-1.64-9.354-.676-13.887-.868-3.664.29-8.39-.577-12.44.098-2.894-.965-5.785 0-8.773-.482-1.736.483-3.473-.385-5.016.388-2.893.097-5.688.19-8.292.097-1.157 1.06-2.51-.29-3.664-.29-.677-.29-.677-.964 0-1.254 2.99-.288 5.495.098 8.293 0 4.146-.095 8.39-.577 12.344-.963 2.408-.577 4.433 1.062 6.748.58zM1063.44 1463.553c-.962 2.122-3.276 2.314-4.915 3.473-2.22 1.156-4.63 2.313-7.138 2.604-.676.386-1.64.482-2.41.58-6.463 1.156-12.73 3.76-19.48 3.952-4.63.965-9.74.48-14.754.387-4.146 0-9.45-1.158-13.6-2.99-2.022-.482-4.24-1.255-5.687-2.508-2.12-.58-3.76-2.122-5.593-3.277-.387-.677-.868-1.352-.868-2.025 0-.097-.097-.193-.097-.193 1.93.482 3.762 1.93 5.69 3.086 1.542.868 2.41 2.025 4.05 2.41 2.795.58 5.015 2.508 7.906 2.315 5.305 1.35 11.09 1.254 17.455.867-.966-2.22.673-3.087-.098-4.437.097-.578.19-.964.386-1.35.29-.29.482-.58.868-.29l.48.48c-.19.58.194.967.483 1.256-.29 1.253 0 2.507-.194 4.05 4.728.482 7.908-.868 11.767-1.062 1.64-.77 4.146-.964 6.172-1.543 1.832-.578 4.05-.578 5.785-1.64 1.447.192 3.086-.29 4.244-1.736 2.506.098 4.436-1.735 7.328-2.313v-.48c.48-.192 1.446-1.254 2.604-.868-.094.48-.19.866-.385 1.25zM1031.234 1437.902c3.76.29 7.616 1.156 11.668 1.64 4.918.578 10.028 1.157 14.657 3.472 2.41 2.41 5.4 3.664 7.327 6.847.29 1.737 1.543 1.447.965 3.568.097.29-.192 0-.192-.385-2.22.096-1.158-.482-2.797-2.7-2.51.77-4.338-.386-6.172.386-7.715-.482-14.366 0-21.89.77-1.833.87-4.145.87-6.27.58-1.35-.482-2.797.48-4.436.19-5.014-.288-10.607-.288-15.525.388-3.665-.193-7.232 0-10.994.386-1.445-.29-3.085-.772-5.11-.193-.58 1.352-1.253 1.063-.77 2.22-.193.192-.388.48-.677.676-.29-.1-.58 0-.868-.29.386-2.796 2.218-4.34 3.953-6.46 3.375-3.087 7.715-4.533 11.38-7.522 2.41-1.543 4.917-1.734 7.52-2.797 3.28-.482 6.943-.29 10.126-.965 2.704.673 5.308.48 8.104.19zm-15.236 2.41c-3.762-.192-6.365 1.543-9.934 2.604-.192.193-1.062 1.062-1.543 1.35-2.698 1.93-5.882 2.798-8.774 6.654 3.473-.29 5.208.965 6.848.29 2.41.288 4.53-.965 6.943-1.063 3.47 1.062 7.232.192 10.8.676 3.28.386 6.847-.386 10.222-.578 5.978-2.315 12.92-.676 19.094-1.352 2.99 0 6.46-.48 11.186.098-1.832-3.856-5.108-4.53-7.328-5.785-5.688-1.542-11.38-2.507-17.262-3.086-1.156-.193-2.604.29-3.664-.387-5.307.29-11.67-1.542-16.588.58zM997.29 1422.377c1.446.193 2.41 1.64 4.05 1.64 3.086 1.543 5.98 2.314 9.74 2.507.578.29 1.543.387 2.217.58 2.122.192 4.05 1.156 6.076 1.156 1.254.386 2.99-.29 4.146 1.254 1.542-.386 2.698-.77 3.663-1.254.386-.77 1.447-1.736 1.35-2.797.677-1.06.1-1.93.58-3.278.578-1.832.578-2.893 1.544-4.82.48-.388.963-.77 1.543-.677.385.965 0 2.122 0 3.28-1.254 2.506-1.062 3.856-1.93 7.135.77.482.48.868.77 1.062 2.41.386 5.014.097 7.04-.385 1.253.19 2.312-.29 4.243-.29.385-1.157 1.254-.29 1.832-.58 3.47-.288 6.557-2.218 10.125-2.41 1.543-1.35 4.146-1.156 5.688-2.313 1.832.192 2.797-2.218 5.11-1.64 1.158-.868 2.218-1.93 3.665-1.93.387.29.77.58 1.157.966-.192 1.446-1.834 1.542-2.895 2.313-1.64.192-3.182.578-4.338 1.64-2.123-.096-3.377 1.735-5.4 1.64-.77.482-1.543.58-2.123.965-.77-.096-1.445.193-2.025.482-4.437 0-7.906 2.894-12.343 2.604-.578.387-1.64.387-2.22.48-4.724 1.64-10.22 1.35-15.042 1.255-2.218-.578-4.918 0-6.847-.963-5.98-1.062-11.766-3.474-17.454-5.017-2.7-1.06-5.208-2.698-7.715-4.05-2.798-1.543-6.077-2.604-8.103-5.4 0-.19 0-.48.192-.577 4.346 2.795 8.877 5.303 13.7 7.424zM1062.96 1377.826c.29.097.48.19.675.386-.867 2.218-3.47.965-5.496 1.543-1.736.29-3.376 0-5.11.097-4.727.097-9.45-.097-13.983 0-2.41 0-5.594.193-8.1-.097-1.642-.192-3.666 0-5.306.097-3.952.387-7.713 0-11.86.29-.192-.193-.385-.193-.578-.193-1.736.868-3.664.097-5.305.386-3.953.192-7.715.578-11.57.578-2.7-1.157-5.498.58-8.294-.096-.386-.098.577-1.158.868-1.158 4.242-2.894 9.16 1.158 13.887-.192 5.594-1.543 11.862-.965 17.357-1.254 5.497-.29 10.704.193 16.298 0 1.543-.193 3.086-.193 4.725-.193.387 0 .87.1 1.254.1 4.245-.1 8.487-.1 12.247-.676 2.894.768 5.304.285 8.294.382zM1058.525 1347.258c-1.158.868-2.7 1.446-3.86 2.41-4.724 1.352-9.835 2.605-14.944 2.605-3.665.578-7.425 1.35-10.993 2.218-1.928-.19-4.146-.577-6.364-.096-.29.77-.29 1.062-1.446 1.35 1.06 2.798 3.278 4.727 4.34 6.75.578.29 1.156 1.062.963 1.736-.385 1.157.193 1.157.87 1.832.866 0 1.64.097 2.41.482 2.024-.676 3.567-.676 5.206-.097 1.832 1.06 3.375.29 5.4 0 3.856-.58 7.52-1.447 11.477-1.64 3.084-.098 6.172-.098 9.45-.098.288.097.58.192.48.48 0 .29-.385.58-.676.676-4.82.29-9.448.48-13.692 1.833-3.183-.1-5.785.866-8.775.577-7.135-.676-14.658 0-21.407.867-2.99-.675-5.305.578-8.196.387-7.52-.577-15.334-.577-21.987-2.795-.964-.29-.48-1.062-.964-1.737.096-.29.578 0 .77-.096 2.315.48 4.34 1.543 6.655 1.445l.19.193c3.956-.193 7.62 1.06 11.093.867 2.603 1.445 5.496-.385 8.293.097 3.566.578 6.558-.675 10.027-1.157.482-.386 1.158-.77 1.832-1.542-1.155-3.087-4.725-5.016-5.11-7.522.483 0-.674-.77-.19-2.313-2.99-.868-5.4.29-7.62-.77-1.83-.483-3.663.48-5.593-.58-2.603 1.254-4.917.097-7.425.29-1.447-1.254-2.025 1.254-3.76.097-1.642.48-3.858.77-5.21 0 .098-.387.098-.676 0-1.062 1.447-.867 3.474.29 4.92-.867 2.12-.193 3.664.964 5.785.578 6.172-1.157 13.02.192 19.287-.193 4.338-.19 9.062.482 13.21-.964 6.558-1.062 13.402-1.93 19.574-3.184 1.543-.965 3.375-2.024 5.306-1.93.29.293.578.486.675.872zM1063.44 1316.207c-3.76 2.7-3.47.964-5.303 2.024-1.35.677-2.604.29-3.856.772-2.024.675-2.024.868-3.567 1.64-.867.578-1.543 1.062-2.506 1.446-1.93.868 0 2.122-4.822 2.024-.48.098-2.508 3.28-3.182 1.93-2.412.29-.965.48-2.896 1.253-.096.193-.192-.29-.385-.29-.965.388-1.158-.19-1.543.772-.193.386.288.868-.772.29-1.062.48-2.025.867-2.025.964-.29.29-.867.193-.867.193-.676 0-1.543.965-2.313 1.735-1.736.482-2.894 2.604-3.857 4.437 3.183.676 5.4.192 7.617.965.87.192 1.735-.965 2.7 0 1.35-.386 2.122-.193 3.087-.29 1.64.676 2.41-.096 4.436.193 2.798-.77 2.7-.868 5.69-.868 4.048.77 6.073.097 10.124.48.77-.385 2.412.1 3.184.58 1.64-.58 4.437-.48 4.627-.386.29.095.772.577 1.16.77.095.192.095.288-.1.387-2.31.867-2.987.096-5.206.675-1.543-.29-3.76 0-5.4-.29-2.988.193-3.76-.867-7.135-.096h-17.84c-.483-.098-.967.192-1.448.096-.77-.192-1.736.58-2.508-.192-3.76.58-8.005-.386-10.512.29-.77.386-1.734.386-2.507.48-2.313-1.06-5.688.098-7.908-.48-1.155.29-2.698.77-4.05.578-2.122.387-3.954.29-5.882.77-1.157-.384-2.7.29-3.762 0-1.928.482-4.05-.19-6.074 0-.1-.19-.194-.384-.29-.675 1.734-3.277 4.338-4.53 6.942-7.425 4.243-3.086 11.476-4.82 16.876-1.833.964-.675 1.06.482 1.64.482 1.93 1.157 2.796 2.122 4.82 2.508 1.64.867 2.22 1.832 4.243 2.99 1.544-1.64 3.087-2.315 4.052-3.762 1.735-1.64 3.953-2.41 5.785-4.243 4.438-1.93.77.675 6.076-1.735 5.303-1.544 3.276-1.64 5.4-2.41 1.64-.58 3.47-.965 4.145-1.447.577-.48 1.06-.578 1.64-1.062 3.952-2.41.48-1.832 5.304-2.7.867-.19 4.918-1.156 5.304-1.445.676-.48.48-.288 2.123-.964.58-.19 2.313.484 1.54.87zm-72.9 21.215c4.34.868 7.328.482 10.704-.097 4.05-1.157 9.547-.675 13.79-.964.964-.48 2.796 0 3.278-1.83-1.736-.29-2.51-1.353-3.474-1.834-.096 0-.29-.097-.385 0-2.7-1.35-5.306-2.604-8.294-3.183-5.88-1.156-11.667 2.605-15.62 7.91zM1063.44 1297.5c-.962 2.12-3.276 2.312-4.915 3.47-2.22 1.158-4.63 2.315-7.138 2.605-.676.386-1.64.48-2.41.578-6.463 1.157-12.73 3.762-19.48 3.954-4.63.965-9.74.48-14.754.386-4.146 0-9.45-1.157-13.6-2.99-2.022-.48-4.24-1.253-5.687-2.507-2.12-.578-3.76-2.12-5.593-3.278-.387-.675-.868-1.35-.868-2.024 0-.098-.097-.192-.097-.192 1.93.482 3.762 1.93 5.69 3.086 1.542.867 2.41 2.025 4.05 2.41 2.795.58 5.015 2.508 7.906 2.313 5.305 1.353 11.09 1.256 17.455.87-.966-2.22.673-3.087-.098-4.437.097-.58.19-.964.386-1.35.29-.29.482-.58.868-.29l.48.48c-.19.58.194.965.483 1.255-.29 1.253 0 2.507-.194 4.05 4.728.482 7.908-.867 11.767-1.06 1.64-.772 4.146-.966 6.172-1.544 1.832-.58 4.05-.58 5.785-1.64 1.447.192 3.086-.29 4.244-1.735 2.506.095 4.436-1.737 7.328-2.315v-.48c.48-.193 1.446-1.255 2.604-.87-.094.484-.19.868-.385 1.254zM1053.703 1275.995c-3.473 2.507-7.908 2.12-11.09 4.82-1.254.388-2.604 1.062-3.664 1.736-2.99-.096-6.077 1.833-10.128 3.665 2.604 1.062 4.533.77 5.883.386 5.69 0 10.705-.963 16.684-.096 1.64 0 3.663-.482 5.11.193 2.795.097 6.074-.677 8.484.675.098.097.098.097.192.193-2.024.577-4.63.385-6.65.288-1.737-.48-3.57.192-5.5.192-3.76.097-7.714-1.253-11.09.386-3.085.39-5.978-1.06-8.97 0-2.697.87-5.398-.48-7.904.772-4.63-.77-10.608.097-15.624-.77-5.69 0-11.476.387-17.068-.58-3.086-.096-4.34-.674-7.23-1.253-.098 0 .48-.676.48-.87 3.086-1.83 4.146-2.41 7.426-3.663 4.53-1.832 9.354-1.445 13.888-2.7 6.362.098 12.632.965 17.26 7.04 8.486-5.11 17.55-5.688 25.75-10.125 3.663-1.157 7.038-2.99 10.704-4.146.578 0 1.543-.386 2.217-.19-2.99 1.735-6.076 3.085-9.162 4.05zm-54.29 6.364c-1.256.385-2.798-.1-3.956.675-1.543-.193-2.99.675-4.242 1.156l-2.314 1.64c.868.098 4.243.387 5.208.58 1.255 1.253 3.472.675 5.016 1.06 7.136-.964 15.14.193 23.722-.19-1.253-1.544-2.506-1.93-3.182-2.604-1.35-1.35-5.11-2.797-7.618-3.856-4.34.576-8.97-.39-12.634 1.54zM1046.855 1226.235c-.19-.098.868-.29 1.254-.192h.77c.578.192 1.35.482 1.93.386 1.35.577 2.7.288 3.855.866 2.313 1.062 5.4 2.025 7.908 4.146 1.543 1.64 3.567 2.314 5.11 3.763.29.866.674 1.254.482 2.023-1.543.098-2.314-2.12-3.762-2.698-1.062-.965-2.604-1.254-3.47-2.51-.194-.096-.58-.48-.772-.578-.192-.096-.288-.288-.288-.288-.098 0-.482-.192-.482-.29-.866-.867-1.155-.964-1.155-.577-.677-.193-1.158-.676-1.834-.58-.288-.096-.577-.288-.77-.577-1.155.192-1.444-.386-2.024-.482-1.062-.578-2.7 0-3.855-.386-.58.098-1.06-.48-1.735-.386-2.313-.675-3.278-.097-5.786.096-3.184 1.158-3.278.87-5.305 1.64-1.543.58-2.41.772-3.856 1.447-1.448.675-2.026 1.445-3.475 2.12-1.35.578-2.217.386-3.47.868-1.45.578-2.315 1.253-3.666 1.832-1.35.675-2.412.965-3.955 1.64-1.445.868-2.218 1.735-3.953 2.22-.48 0-1.156.096-1.64.096-.48-.097-1.06.096-1.35.096-.29.098-.772-.096-1.063-.19-1.735.577-2.7-.58-4.533-.388-1.735-.48-3.472-.675-5.496-1.35-1.93-1.062-4.436-1.543-6.558-2.99-2.217-1.156-4.436-2.893-6.074-5.015-.192-.29-.965-1.063-.29-.965 1.735.77 3.278 2.507 5.11 3.183 4.918 3.085 10.03 4.918 15.14 5.4.58.29 1.256 0 1.93.29.965 0 2.314.288 3.377.095 3.47.387 2.698-1.156 4.146-1.735 1.544-.578 2.51-.48 3.858-1.156.964-.578 1.445-1.254 2.603-1.736.965-.578 1.642-1.06 2.896-1.253 2.893-.29 2.988-.868 4.436-2.122.677-.385 1.062-.866 1.832-1.155.677-.578 1.255-.29 2.12-.578 1.16-.29 1.737-.676 2.897-1.062 1.062-.386 2.218-.868 2.796-.868 2.025-.868 3.184-.29 5.11-.482.577-.005 1.157.38 1.06.38zM1062.96 1213.796c.29.096.48.192.675.386-.867 2.22-3.47.965-5.496 1.543-1.736.29-3.376 0-5.11.097-4.727.097-9.45-.097-13.983 0-2.41 0-5.594.192-8.1-.097-1.642-.192-3.666 0-5.306.097-3.952.386-7.713 0-11.86.29-.192-.193-.385-.193-.578-.193-1.736.867-3.664.096-5.305.385-3.953.193-7.715.58-11.57.58-2.7-1.158-5.498.577-8.294-.098-.386-.098.577-1.157.868-1.157 4.242-2.893 9.16 1.157 13.887-.192 5.594-1.544 11.862-.965 17.357-1.254 5.497-.29 10.704.192 16.298 0 1.543-.192 3.086-.192 4.725-.192.387 0 .87.097 1.254.097 4.245-.098 8.487-.098 12.247-.676 2.894.768 5.304.285 8.294.382zM980.703 1191.345c.193 1.64.868 2.797 1.158 4.532-.58 2.604-.098 4.918.868 8.1 1.35-.674 2.313-.48 2.797-.287 1.832-.193 4.146.288 5.98.192 1.735-.387 3.856-.58 5.592-.58 2.7-1.35 6.075-1.734 8.775-2.312 1.543.386 3.376 0 4.82.19 6.56 0 13.31-1.638 19.48-2.506 1.157.098 2.895-.192 3.954.098.193-.098.676-.098.77-.193 4.822-.193 8.68-.29 13.5-.29 2.22 0 4.147.386 6.173.482h-.097c-2.51 1.832-5.98 1.156-8.68 1.734-3.954-.964-8.1 1.062-12.345-.578-2.506 2.604-5.496.578-8.1 1.446-2.41-.29-5.305-.192-7.33 1.062-.964-.098-1.832.29-3.184-.192-2.312 1.35-5.207.675-7.617.675-3.954-.868-7.137 1.734-10.896 1.253-2.7 1.35-5.785 1.157-8.87 1.157-.965-1.062-2.508-.097-4.437-2.22-.676 4.244-.29 6.752-.482 9.355.483 2.023-.288 4.242 0 6.46-.095.098-.095.192-.19.29-.772-.098-.965-.966-1.255-1.543.58-1.93.482-3.857 0-5.786-.386-.48 0-1.35.097-2.313-1.06-1.447-.192-3.568-.965-4.92.482-1.542-.192-3.18-.096-4.724-.867-1.544.29-3.57-.578-5.112 0-1.35-1.832-2.7-.29-3.76.098-.1.29-.194.482-.29.39.094.87.19.97.577zM1012.718 1158.75c2.7.482 4.918.965 7.812.58 5.016 2.12 10.8-.87 15.525 2.603 2.605.58 5.883.676 8.295 1.93 4.05 1.35 8.293 1.93 11.765 4.726 1.446 1.928 2.508 3.663 3.567 5.688-.192 1.93-.096 4.146-1.832 5.015-3.664 1.446-7.52 2.12-11.09 3.953-7.715.192-14.852 2.99-22.084 1.735-3.47.772-6.846-.096-10.316.482-5.98-.386-11.477-2.796-17.263-3.857-1.253-1.06-6.172-1.93-2.218-3.47 2.603-.483 4.242 1.445 6.556 2.023 1.352.29 2.604 1.833 4.147 1.833 5.882 1.062 10.993 2.12 17.358 1.35 5.497 1.352 11.476 0 16.972-1.156 5.207-.386 9.934-1.832 14.754-3.183 2.313-1.06 1.447-2.988 2.508-5.495-1.254-.868-.867-2.7-1.734-3.472-1.543-1.736-4.63-2.604-6.56-3.762-3.18-.48-6.364 0-8.677-1.83-2.605-.482-5.594.19-7.62-1.834-8.678-1.445-17.455-.77-25.554-2.796-4.727-.48-8.68-.675-12.537-3.086.192-.58 1.157-.29 1.543-.482 5.978-.385 10.8 2.99 16.682 2.51zM1059.393 1125.77c.77.387 1.543 0 2.41.193.676 0 1.158.192 1.736.578.095.483-.483.87-.772 1.352-.674.867-1.446-.48-1.64-.48-.192-.387-1.157.48-2.122-.966-1.928.58-3.664.58-5.014.192-2.7.29-5.69-.48-8.293.578-1.063.098-1.64 1.352-2.122 1.93-.1 0-.482 1.156-1.353 1.542-1.254 1.157-3.086 2.99-3.664 3.473-.48.482 0-.577-.865.387-.482.386-.29.58-.965 1.64-.867 1.062-2.604 2.894-2.99 3.375-.578 1.157-1.156 2.507-1.832 4.05 2.024 1.352 4.05.966 5.4 1.834 1.735.096 3.856.48 5.688.964 1.062-.868 1.832.192 2.604.192 1.062.578 2.7.48 3.955 1.062 2.41.386 4.53 1.832 7.232 1.35.965.193 2.12.58 3.086.868-.098.192-.193.386-.387.386-1.64.29-3.086-.58-4.53-.48-.388-.29-.677-.388-1.063-.29-.772-.098-1.543-.29-2.22-.29-1.542-.48-2.603.387-5.11-1.253 0 1.446.193.58.193.58-1.447-.39-3.473-.966-5.4-.87-1.155-.77-2.603-.48-3.762-.77-2.698-.29-4.53-1.35-7.135-1.156 0 0-.1-.1-.194-.1-.77-.48-1.64-.19-2.12-.674-5.884-1.64-11.862-3.28-17.745-4.918-1.35-.675-2.507-.965-3.952-1.543-1.93-.675-3.762-1.832-5.786-2.604-2.025-.77-3.954-2.023-6.27-2.698-.577-.29-1.542.19-1.542-.772 0-.29-.29-.964-.097-1.06.674-1.062 2.604-1.062 3.567-1.543 2.313-.193 5.593-.676 8.39-1.254 1.062-1.254 2.7-.29 3.954-.77 4.727.19 9.645-2.22 15.043-1.544 6.848-1.062 14.466-1.64 20.927-1.062 4.923.38 9.84-.102 14.76.573zm-29.22 1.64c-1.253-.482-3.183.675-5.11.29-2.314-.388-4.822.385-7.136.77-2.218-.386-3.954.965-6.172.77-1.446.193-3.856.193-5.786.58-3.184.578-6.075 1.445-9.74 1.734 1.446 1.64 4.05 2.796 4.437 2.894 2.023.676 3.664 1.832 5.496 2.41 2.798.966 5.208 1.93 7.812 2.7 1.832.482 4.243 1.062 5.884 1.352 1.83-.098 4.435 1.542 6.942 1.93 1.445.19.77.866 2.795.288.77-1.832 1.93-3.086 2.605-4.727.867-1.155 1.35-1.253 2.604-2.603.867-.868 1.734-2.218 2.7-3.472.866-.965 2.024-2.025 2.603-2.7 0-.192 1.154-1.446 1.154-2.218-1.35-.29-2.893-.29-3.76-.387-2.606-.38-4.63.004-7.33.39zM978.582 1102.145c0 2.99-.097 5.883.675 9.16 7.232.482 14.175.482 19.77-1.35 1.543-.29 3.086-.482 4.34-.964 6.073-1.735 10.606-.48 16.586-2.603 3.76-.29 7.137-1.062 10.706-1.64 5.013-.868 10.22-.29 14.85-1.35 2.99 0 6.558-.387 9.74-1.255 2.603.098 5.302-1.06 7.905-1.543.387.19.87.578 1.06.866-.384 2.895-4.626 1.254-6.458 2.123-6.56 1.252-12.924 1.93-18.998 2.12-3.665.096-7.522 1.06-11.284 1.542-3.76.482-6.557.77-10.318.77-1.062.58-2.506.772-3.857.482-1.252 1.157-2.505.482-3.47 1.157-3.184.483-6.56 1.352-10.03 1.833-3.085 0-6.46 1.832-9.257 1.35 0 0-.482.193-.578.29-2.797-.097-6.172.29-10.03-1.156-.77 2.218-.19 4.437-.385 6.074-.578 6.076 1.254 11.67.29 17.36 0 .48.578 1.155.19 1.638-.384.386-.77.098-1.155 0-1.06-1.446-.77-3.76-.77-5.398-.676-.772.096-2.315-.193-3.28.58-5.978-.386-11.86-.386-17.26 0-5.017-.965-11.092-1.254-16.2-.387-.87.387-1.447.867-1.833.097 0 0-.193.097-.098.958 2.897 1.345 5.982 1.345 9.165zM1062.96 1089.32c.29.096.48.19.675.385-.867 2.218-3.47.965-5.496 1.543-1.736.29-3.376 0-5.11.097-4.727.098-9.45-.097-13.983 0-2.41 0-5.594.192-8.1-.097-1.642-.192-3.666 0-5.306.097-3.952.386-7.713 0-11.86.29-.192-.193-.385-.193-.578-.193-1.736.868-3.664.097-5.305.387-3.953.19-7.715.577-11.57.577-2.7-1.157-5.498.578-8.294-.097-.386-.098.577-1.156.868-1.156 4.242-2.895 9.16 1.156 13.887-.193 5.594-1.542 11.862-.964 17.357-1.253 5.497-.29 10.704.192 16.298 0 1.543-.192 3.086-.192 4.725-.192.387 0 .87.096 1.254.096 4.245-.095 8.487-.095 12.247-.673 2.894.768 5.304.287 8.294.382zM1034.223 1063.765c6.076-.77 11.478 2.22 17.068 3.473 2.315 1.255 5.017 1.446 7.716 3.184.87-.29.965.385 1.254.77 0 .098-.096-.48-.096-.48-3.28 1.93-7.137 4.05-11.188 5.206-2.12.965-4.726 1.255-6.847 1.93-2.605.77-5.11 1.64-7.617 2.314-5.21.48-8.584 1.35-13.6 1.832-3.76-.676-8.196-.29-11.57-1.736-2.12.772-4.726-.19-6.75-.674-2.51.48-4.533-1.833-6.943-2.122-2.604-1.156-5.883-.965-7.715-3.183.097-.098-1.062-.772-.386-1.544.19-.193.288-.385.48-.578 1.64-1.157 2.796-2.797 4.82-3.664 4.437-2.508 9.45-4.918 15.045-4.727 2.988.58 5.882-1.93 8.87-.387 5.5 0 12.057-.675 17.458.385zm-43.78 7.81c-.388 1.063-1.254 2.7.675 2.7 6.75 2.51 13.5 3.857 20.442 4.92 6.752.964 13.114 1.542 19.674-.29 8.39-2.41 17.262-3.954 26.71-8.39-5.495-1.062-8.58-2.7-11.956-3.28-7.426-.48-14.176-2.698-21.698-2.507-12.15.195-24.397 1.543-33.847 6.848zM1066.143 1025.77c-7.616 3.376-14.176 7.813-20.83 12.247-.577.29-.77 1.062-2.024 1.062-3.085 3.085-6.942 3.374-9.74 6.17-2.507 1.255-5.304 2.7-8.196 4.92.386.288 1.062.577 1.35.77 2.025.965 4.052.19 5.884.288 5.785.193 11.09-.77 16.2-.868 4.92 0 9.452-1.156 13.79-.675.098.192.098.482.098.868-.29 2.218-2.797.675-3.857 1.062-4.63.58-8.68.675-13.695.868-6.17.386-12.246.096-18.418.77-4.147.388-7.907 0-11.862.87-6.557-.77-13.21 2.604-19.768 1.253-1.543 0-3.086.77-4.727.386-.675-.48-3.76.098-2.218-1.35 5.014-.77 10.222 0 15.332-.676 7.715-.29 15.912-.77 21.603-5.688.965-.29 1.735-.965 2.41-1.447 2.41-1.444 5.016-2.506 7.04-4.628 2.023-.675 3.855-1.832 5.496-2.988 2.894-2.894 6.75-3.954 9.933-6.173 0-.385.29-.287.48-.385.868-.386 1.544-1.157 2.605-1.93 0-.385 2.798-.963 2.702-1.252-.1-.29-3.28-.193-3.568-.387-4.436.965-9.934 1.35-15.045 1.832-5.497.482-9.16 1.543-14.37 1.64-1.83-.386-4.435 1.446-6.267-.096-2.025 0-3.185-.098-4.822.48-1.445 0-2.893-.19-4.628-.19-.386-.1-.77.287-1.157.287-1.64 1.06-2.507-1.446-3.76-.29-.58.193-1.158.676-1.736-.192-3.088.868-5.498.387-8.102-1.062-.868.387-1.157-.096-1.543-.386v-.29c.288-.674.866.29.866.194 0 0 .58.48 1.16-.097.384-.58 1.252.675 1.445.386 3.278.77 7.136.578 10.8.097 3.376.578 8.486-.386 11.67.29.674-.098 1.542-.676 2.7-.29 1.06-.965 2.506-.097 3.278-.676 4.05-.29 8.39-.964 12.535-.964 3.953-.386 8.293-.77 11.478-1.254.674.192 1.445-.386 2.12.097 1.64-.386 2.314-.386 3.568-.58 2.507-.48 5.69-.865 7.906-1.35.387 0 .87-.29 1.447-.964-.482-.868.578-.482.676-.482.867-.386 2.312.387 3.76-.097 0 .292.097.58 0 .87zM1063.44 1007.257c-.962 2.122-3.276 2.314-4.915 3.472-2.22 1.156-4.63 2.313-7.138 2.603-.676.386-1.64.482-2.41.58-6.463 1.156-12.73 3.76-19.48 3.952-4.63.965-9.74.48-14.754.386-4.146 0-9.45-1.155-13.6-2.988-2.022-.48-4.24-1.254-5.687-2.507-2.12-.58-3.76-2.122-5.593-3.278-.387-.676-.868-1.35-.868-2.024 0-.098-.097-.193-.097-.193 1.93.482 3.762 1.93 5.69 3.086 1.542.868 2.41 2.025 4.05 2.41 2.795.58 5.015 2.508 7.906 2.315 5.305 1.35 11.09 1.254 17.455.867-.966-2.218.673-3.085-.098-4.436.097-.577.19-.963.386-1.35.29-.29.482-.578.868-.29l.48.482c-.19.58.194.965.483 1.254-.29 1.254 0 2.507-.194 4.05 4.728.482 7.908-.866 11.767-1.06 1.64-.772 4.146-.965 6.172-1.544 1.832-.578 4.05-.578 5.785-1.64 1.447.192 3.086-.29 4.244-1.735 2.506.097 4.436-1.736 7.328-2.314v-.48c.48-.193 1.446-1.254 2.604-.87-.094.482-.19.868-.385 1.254zM999.99 979.292c1.06 0 2.604-.097 3.76-.192 2.797-1.735 7.137 0 10.416.387 2.023-1.157 5.398-.482 7.52-.677 3.087-.77 7.136.193 10.704.193 6.27 0 13.502-.193 19.77-.482.964-.095 1.93-.674 2.798-.287.096.097.19-.097.29-.097-2.22 1.446-4.92 1.542-7.138 2.507-3.183 2.797-6.85 4.243-10.222 6.364-4.05 1.832-8.196 3.183-11.86 5.98-1.16.577-2.22 1.253-3.375 1.83l-2.797 1.352 3.182.19c7.522.482 14.562-1.35 22.276-.288 3.086 0 5.98-1.254 8.97-.676.77-.097 1.735 0 2.41 0-.097.193 0 .58-.097.676-.77 0-1.447.192-2.12.675-.772.387-1.737.387-2.605.58-2.604.29-5.207-.1-7.81.48-7.042.192-13.89-.675-20.736.098-3.182-.58-6.363 1.06-9.45.19-2.023.483-4.628-.577-6.17.58-4.63-.48-9.163-1.254-13.983-1.254-1.062-.385-2.7 0-3.184-1.156-.097-.097.578-1.06.578-.578 5.207-1.35 9.644 1.735 15.622 1.06 3.086-.385 6.268 0 9.547-.963.965-1.35 2.41-1.254 3.472-2.12 1.93-.29 3.856-.772 5.11-2.123 4.917-2.41 9.933-3.278 13.886-6.847 1.156-.48 2.314-1.062 3.568-2.12 0-.29 2.795-1.544 2.795-1.833-.097-.193-2.99.48-2.99.096-3.76 0-7.23-.675-10.222.386-5.398-1.35-10.993-1.445-16.78-.19-4.146-.483-8.39-1.063-12.438-.29-3.375-1.447-7.136 1.543-10.223-1.157-.29-.868-1.832-.58-1.734-1.64 3.277-.582 6.074 1.25 9.257 1.347zM1018.697 914.876c6.46 2.314 13.31 1.64 19.48 4.242 6.363 2.7 13.308 3.856 19.865 5.98.193.19.482.48.674.77-2.12.87-4.918-.867-7.426-.578-7.617-.578-14.754 1.93-22.758 2.99l-.386 1.734c8.68 1.735 16.01 5.4 24.013 6.943.288.192.77.29 1.06.48 1.736.098 3.857-1.06 5.11-.096-.095.676-.77.965-1.446 1.158-1.543-.193-2.7.867-4.146 1.253-8.582-.385-16.2 1.447-24.88 2.026-10.704.77-21.31 1.543-31.437 1.445-5.304.772-9.353.967-13.5.483-.386-.193-1.157 0-1.542-.097.29-.192.578-.482.867-.77 3.182-.676 5.98-.676 9.354-.965 14.657-1.156 30.763.098 45.806-2.41 2.7-.48 5.4-.29 8.293-.578 1.928-.676 1.06-2.604-.388-2.22-6.268-3.085-13.887-3.566-20.154-5.88-1.156-.387-2.988-.098-3.47-1.255.19-.387.577-.578.964-.77 6.558-2.122 13.694-2.895 23.53-5.4-6.076-2.22-9.645-2.604-12.44-4.243-7.04 0-11.86-2.894-18.9-2.894-5.4-2.024-11.766-1.156-17.165-3.472-4.437-.097-8.103-1.06-13.31-1.93-.096 0-.385 0-.48-.097.097-.19.19-.385.29-.674.77 0 1.252-.386 1.64-.578 10.893.875 21.888 3.96 32.88 5.408zM1062.96 898.386c.29.097.48.192.675.386-.867 2.22-3.47.965-5.496 1.543-1.736.29-3.376 0-5.11.097-4.727.097-9.45-.097-13.983 0-2.41 0-5.594.192-8.1-.097-1.642-.192-3.666 0-5.306.097-3.952.386-7.713 0-11.86.29-.192-.193-.385-.193-.578-.193-1.736.867-3.664.096-5.305.385-3.953.193-7.715.58-11.57.58-2.7-1.16-5.498.577-8.294-.098-.386-.097.577-1.157.868-1.157 4.242-2.893 9.16 1.157 13.887-.192 5.594-1.544 11.862-.965 17.357-1.253 5.497-.29 10.704.19 16.298 0 1.543-.193 3.086-.193 4.725-.193.387 0 .87.097 1.254.097 4.245-.098 8.487-.098 12.247-.676 2.894.767 5.304.285 8.294.382zM1063.44 867.238c-3.76 2.7-3.47.965-5.303 2.025-1.35.674-2.604.29-3.856.77-2.024.677-2.024.87-3.567 1.64-.867.58-1.543 1.063-2.506 1.448-1.93.868 0 2.12-4.822 2.025-.48.096-2.508 3.277-3.182 1.93-2.412.288-.965.48-2.896 1.252-.096.193-.192-.29-.385-.29-.965.387-1.158-.19-1.543.772-.193.386.288.867-.772.288-1.062.482-2.025.868-2.025.966-.29.29-.867.19-.867.19-.676 0-1.543.966-2.313 1.737-1.736.48-2.894 2.605-3.857 4.438 3.183.675 5.4.19 7.617.964.87.192 1.735-.964 2.7 0 1.35-.386 2.122-.192 3.087-.29 1.64.677 2.41-.096 4.436.193 2.798-.77 2.7-.867 5.69-.867 4.048.77 6.073.097 10.124.48.77-.385 2.412.098 3.184.58 1.64-.58 4.437-.482 4.627-.387.29.098.772.58 1.16.772.095.192.095.29-.1.385-2.31.868-2.987.1-5.206.677-1.543-.29-3.76 0-5.4-.29-2.988.192-3.76-.867-7.135-.098h-17.84c-.483-.096-.967.193-1.448.1-.77-.194-1.736.577-2.508-.194-3.76.578-8.005-.386-10.512.29-.77.385-1.734.385-2.507.48-2.313-1.06-5.688.098-7.908-.48-1.155.288-2.698.77-4.05.578-2.122.386-3.954.29-5.882.77-1.157-.385-2.7.29-3.762 0-1.928.483-4.05-.19-6.074 0-.1-.19-.194-.385-.29-.674 1.734-3.28 4.338-4.533 6.942-7.426 4.243-3.086 11.476-4.822 16.876-1.832.964-.675 1.06.48 1.64.48 1.93 1.157 2.796 2.12 4.82 2.51 1.64.866 2.22 1.83 4.243 2.987 1.544-1.64 3.087-2.313 4.052-3.76 1.735-1.64 3.953-2.412 5.785-4.244 4.438-1.928.77.677 6.076-1.734 5.303-1.542 3.276-1.64 5.4-2.41 1.64-.578 3.47-.965 4.145-1.447.577-.48 1.06-.58 1.64-1.06 3.952-2.412.48-1.834 5.304-2.7.867-.194 4.918-1.158 5.304-1.447.676-.48.48-.29 2.123-.965.58-.19 2.313.486 1.54.87zm-72.9 21.216c4.34.868 7.328.48 10.704-.096 4.05-1.158 9.547-.677 13.79-.966.964-.48 2.796 0 3.278-1.832-1.736-.29-2.51-1.35-3.474-1.833-.096 0-.29-.096-.385 0-2.7-1.35-5.306-2.603-8.294-3.183-5.88-1.155-11.667 2.606-15.62 7.91zM1031.234 842.456c3.76.29 7.616 1.157 11.668 1.64 4.918.578 10.028 1.156 14.657 3.472 2.41 2.41 5.4 3.665 7.327 6.847.29 1.736 1.543 1.447.965 3.568.097.288-.192 0-.192-.387-2.22.098-1.158-.48-2.797-2.7-2.51.77-4.338-.386-6.172.387-7.715-.482-14.366 0-21.89.77-1.833.868-4.145.868-6.27.58-1.35-.483-2.797.48-4.436.19-5.014-.287-10.607-.287-15.525.387-3.665-.192-7.232 0-10.994.386-1.445-.29-3.085-.77-5.11-.19-.58 1.35-1.253 1.06-.77 2.217-.193.19-.388.48-.677.675-.29-.097-.58 0-.868-.29.386-2.796 2.218-4.34 3.953-6.46 3.375-3.086 7.715-4.533 11.38-7.52 2.41-1.544 4.917-1.736 7.52-2.8 3.28-.48 6.943-.288 10.126-.963 2.704.673 5.308.48 8.104.19zm-15.236 2.41c-3.762-.192-6.365 1.544-9.934 2.604-.192.192-1.062 1.062-1.543 1.352-2.698 1.93-5.882 2.796-8.774 6.652 3.473-.288 5.208.965 6.848.29 2.41.29 4.53-.966 6.943-1.062 3.47 1.06 7.232.192 10.8.675 3.28.386 6.847-.386 10.222-.58 5.978-2.312 12.92-.673 19.094-1.35 2.99 0 6.46-.48 11.186.098-1.832-3.856-5.108-4.533-7.328-5.786-5.688-1.544-11.38-2.51-17.262-3.087-1.156-.19-2.604.29-3.664-.386-5.307.29-11.67-1.542-16.588.58zM1033.55 787.393c3.565-.29 6.267 1.157 9.546 1.93.674.58 1.35.58 1.35.48.193.1 1.447.387 2.51.967l.288.096c1.444.77 1.543.675 2.604.77 1.736 1.158 3.953 1.353 5.4 2.41 2.893 2.124 7.137 4.148 9.738 7.234 1.834 2.313 3.666 3.566 5.305 5.883.1.578.483 1.157.1 1.83-.772 0-.29.677-1.447-1.06l-.193-.387c-1.06.29-1.928.772-2.604.965-1.642 0-4.146 0-5.884.193-1.06-.29-2.797.387-3.76 0-4.822.29-11.09.48-16.396.097-1.254.58-2.99.192-4.146.097-5.014-.288-9.547-1.83-14.08-1.35-3.085-.097-6.75.867-10.028-.386-2.313.29-5.98-.29-7.812-.192-.097 0-.192.193-.29.29-4.725-.58-10.8.192-15.332-.29-.482-.192-.867-.868-.193-.964 9.258-.77 20.927-.87 30.666-.097 2.22-.192 5.596.29 7.91-.098.097.097.19.192.29.288 3.567 0 6.46.676 10.124 1.062.385-.29.77-.097 1.062.096 5.4.29 13.018-.48 18.227-.096 2.893-1.352 5.98.77 8.775-.676.29-.48.29.965 2.217-.387-.578-.19-1.156-1.156-.867-1.156-.77-1.542-2.99-1.35-4.05-4.436-.58.578-.386-.29-.868-.29 0 0-.48-.288-.676-.386-.096-.096-.482-.192-.482-.964-.963 0-1.155-.29-1.444-.097-.965-.387-.965-1.735-2.123-1.735-.48-.193-1.156-.386-1.445-.77-1.158-.29-1.64-1.446-2.7-1.64-1.544-1.062-3.857-.868-5.11-1.736-1.06 0-1.157-.868-2.41-.964-3.376-1.832-7.813-1.832-11.38-2.604-5.207 0-9.933-1.062-15.237 0-1.734 0-3.278.676-4.82.965-.868.578-1.93.385-2.797.867-7.137 2.22-14.37 5.11-20.54 10.028-2.508 1.255-3.762 3.857-6.365 5.11-.577.387-.19-.48 0-.77 1.93-2.604 4.533-5.4 7.233-7.426 2.604-1.93 6.075-3.376 8.97-5.11 2.603-1.157 5.398-1.93 7.617-2.894 2.797-.192 3.375-1.93 6.27-1.64.576-.097 1.06-.482 2.12-.386.48-.387.868-.193 1.543-.482.868 0 1.832 0 2.894-.29 3.848-.186 8.67-.765 12.722.103zM1012.718 753.354c2.7.48 4.918.964 7.812.577 5.016 2.123 10.8-.866 15.525 2.605 2.605.58 5.883.675 8.295 1.93 4.05 1.35 8.293 1.928 11.765 4.725 1.446 1.93 2.508 3.664 3.567 5.688-.192 1.93-.096 4.147-1.832 5.015-3.664 1.446-7.52 2.122-11.09 3.954-7.715.192-14.852 2.99-22.084 1.735-3.47.77-6.846-.096-10.316.482-5.98-.387-11.477-2.798-17.263-3.857-1.253-1.06-6.172-1.93-2.218-3.472 2.603-.482 4.242 1.446 6.556 2.024 1.352.288 2.604 1.83 4.147 1.83 5.882 1.063 10.993 2.122 17.358 1.353 5.497 1.35 11.476 0 16.972-1.158 5.207-.386 9.934-1.832 14.754-3.182 2.313-1.062 1.447-2.99 2.508-5.498-1.254-.868-.867-2.7-1.734-3.472-1.543-1.735-4.63-2.604-6.56-3.76-3.18-.483-6.364 0-8.677-1.834-2.605-.483-5.594.192-7.62-1.834-8.678-1.446-17.455-.77-25.554-2.796-4.727-.482-8.68-.675-12.537-3.085.192-.58 1.157-.29 1.543-.482 5.978-.384 10.8 2.992 16.682 2.51zM1053.703 730.788c-3.473 2.507-7.908 2.12-11.09 4.82-1.254.387-2.604 1.062-3.664 1.736-2.99-.096-6.077 1.833-10.128 3.665 2.604 1.06 4.533.77 5.883.386 5.69 0 10.705-.965 16.684-.098 1.64 0 3.663-.48 5.11.193 2.795.098 6.074-.674 8.484.676.098.096.098.096.192.193-2.024.578-4.63.385-6.65.29-1.737-.483-3.57.19-5.5.19-3.76.098-7.714-1.253-11.09.386-3.085.387-5.978-1.06-8.97 0-2.697.868-5.398-.48-7.904.772-4.63-.772-10.608.096-15.624-.772-5.69 0-11.476.387-17.068-.577-3.086-.1-4.34-.677-7.23-1.256-.098 0 .48-.675.48-.867 3.086-1.832 4.146-2.41 7.426-3.664 4.53-1.832 9.354-1.447 13.888-2.7 6.362.096 12.632.963 17.26 7.04 8.486-5.112 17.55-5.69 25.75-10.126 3.663-1.157 7.038-2.99 10.704-4.146.578 0 1.543-.385 2.217-.19-2.99 1.733-6.076 3.083-9.162 4.048zm-54.29 6.364c-1.256.386-2.798-.098-3.956.675-1.543-.193-2.99.675-4.242 1.157l-2.314 1.64c.868.097 4.243.386 5.208.58 1.255 1.252 3.472.674 5.016 1.06 7.136-.964 15.14.193 23.722-.19-1.253-1.544-2.506-1.93-3.182-2.605-1.35-1.35-5.11-2.797-7.618-3.857-4.34.575-8.97-.39-12.634 1.54zM1070.578 707.933c1.254 1.062 0 .964-.19 1.35-5.402 4.726-12.925 3.762-18.71 7.522-4.146 1.543-8.582 2.12-12.633 3.085-3.182.098-6.076 1.447-9.064.868-.964.77-2.41 0-3.47.386-6.945 0-10.898-1.35-16.298-2.507-1.832.193-3.76-.386-5.208-1.64-2.507.29-4.532-.482-6.364-1.446-4.436-1.638-8.872-3.374-12.054-6.46 0 .097-.578-.193-.29-.386.772-.482 1.64.386 2.41.77 4.534.388 7.427 3.666 11.477 4.63 1.832.965 3.857.965 5.594 1.64 7.426 1.93 12.344 3.567 20.154 3.665.1 0 .29-.677.29.095 6.654-.385 12.345-1.93 18.42-2.604 6.173-1.928 12.343-4.145 18.515-6.074 1.64-1.06 3.567-1.93 5.688-2.7.58 0 1.642-1.062 1.93-.675.094 0 .77 0-.195.483zM1058.525 677.557c-1.158.868-2.7 1.446-3.86 2.41-4.724 1.352-9.835 2.605-14.944 2.605-3.665.58-7.425 1.35-10.993 2.218-1.928-.193-4.146-.58-6.364-.097-.29.77-.29 1.06-1.446 1.35 1.06 2.796 3.278 4.725 4.34 6.75.578.29 1.156 1.06.963 1.735-.385 1.157.193 1.157.87 1.833.866 0 1.64.097 2.41.482 2.024-.675 3.567-.675 5.206-.096 1.832 1.06 3.375.29 5.4 0 3.856-.58 7.52-1.447 11.477-1.64 3.084-.097 6.172-.097 9.45-.097.288.097.58.192.48.48 0 .29-.385.58-.676.676-4.82.29-9.448.482-13.692 1.833-3.183-.098-5.785.867-8.775.578-7.135-.675-14.658 0-21.407.868-2.99-.675-5.305.58-8.196.386-7.52-.58-15.334-.58-21.987-2.796-.964-.29-.48-1.062-.964-1.736.096-.29.578 0 .77-.096 2.315.48 4.34 1.543 6.655 1.447l.19.192c3.956-.19 7.62 1.062 11.093.868 2.603 1.446 5.496-.386 8.293.096 3.566.58 6.558-.675 10.027-1.156.482-.387 1.158-.772 1.832-1.543-1.155-3.086-4.725-5.016-5.11-7.522.483 0-.674-.77-.19-2.313-2.99-.87-5.4.288-7.62-.772-1.83-.482-3.663.482-5.593-.58-2.603 1.255-4.917.098-7.425.29-1.447-1.253-2.025 1.254-3.76.097-1.642.482-3.858.77-5.21 0 .098-.386.098-.675 0-1.06 1.447-.87 3.474.288 4.92-.87 2.12-.192 3.664.965 5.785.58 6.172-1.158 13.02.192 19.287-.194 4.338-.192 9.062.482 13.21-.964 6.558-1.062 13.402-1.93 19.574-3.183 1.543-.964 3.375-2.025 5.306-1.93.29.292.578.484.675.87zM1156.813 1486.09c3.76.965 6.46 4.146 10.222 5.305.58 1.06 1.832 1.64 2.41 2.7-.867.29-1.83-.58-2.603-.964-.676-.675-1.352-1.06-2.314-1.157-2.123-1.543-5.016-2.217-7.23-3.953-1.643-.578-4.052-.77-5.884-1.64-3.28-.192-6.56-.192-9.74.386-3.086.58-6.076 1.832-8.486 3.955-3.182 1.544-6.846 2.7-10.318 3.472-5.4 2.7-12.246 2.412-17.84.193-3.278 0-5.11-2.795-8.1-3.182-.87-.676-1.642-1.35-2.7-1.736-.58-.482-.29-1.252-.772-1.93 0-.19-.386.098-.19.193 1.35.096 2.795.676 3.952 1.254 5.11 3.953 11.957 4.146 18.13 5.496 4.34-.193 7.907-2.217 12.055-3.182 2.604-1.64 5.88-2.22 8.486-3.857 1.93-.192 3.472-2.41 5.497-1.927 4.34-1.543 9.45-1.543 13.598 0 .575.288 1.153.48 1.828.577zM1169.155 1465.744c-.963 2.12-3.277 2.314-4.916 3.473-2.22 1.156-4.63 2.312-7.14 2.604-.675.386-1.638.483-2.41.58-6.462 1.157-12.73 3.76-19.48 3.954-4.628.963-9.74.48-14.753.385-4.146 0-9.45-1.157-13.6-2.99-2.022-.48-4.24-1.253-5.687-2.507-2.12-.578-3.76-2.12-5.593-3.277-.387-.676-.868-1.35-.868-2.025 0-.095-.098-.192-.098-.192 1.93.482 3.762 1.93 5.69 3.086 1.542.87 2.41 2.025 4.05 2.412 2.795.578 5.015 2.506 7.906 2.314 5.305 1.35 11.09 1.252 17.455.867-.965-2.22.674-3.084-.097-4.436.097-.58.19-.964.386-1.35.29-.29.482-.58.868-.29l.48.482c-.19.578.194.963.483 1.252-.29 1.256 0 2.508-.193 4.05 4.728.483 7.908-.866 11.767-1.06 1.64-.77 4.146-.965 6.172-1.543 1.83-.577 4.048-.577 5.784-1.638 1.447.19 3.086-.29 4.244-1.736 2.506.096 4.436-1.736 7.328-2.314v-.482c.48-.193 1.446-1.252 2.604-.867-.094.48-.19.864-.385 1.25zM1168.675 1452.822c.29.098.48.193.674.385-.868 2.22-3.472.965-5.497 1.543-1.735.29-3.375 0-5.11.098-4.726.096-9.45-.098-13.982 0-2.41 0-5.593.19-8.1-.098-1.64-.193-3.665 0-5.305.098-3.953.385-7.714 0-11.86.29-.193-.194-.386-.194-.58-.194-1.735.87-3.663.098-5.304.387-3.952.194-7.714.58-11.57.58-2.7-1.157-5.497.58-8.293-.097-.386-.096.577-1.156.868-1.156 4.24-2.893 9.16 1.156 13.886-.193 5.595-1.543 11.863-.965 17.358-1.254 5.497-.29 10.704.193 16.298 0 1.543-.19 3.086-.19 4.725-.19.388 0 .87.095 1.255.095 4.244-.096 8.486-.096 12.246-.674 2.894.767 5.305.287 8.295.382zM1105.704 1425.438c1.06 0 2.604-.098 3.76-.193 2.797-1.734 7.137 0 10.416.387 2.023-1.158 5.398-.482 7.52-.676 3.087-.77 7.136.193 10.704.193 6.27 0 13.502-.194 19.77-.483.964-.098 1.93-.676 2.798-.29.096.097.19-.097.29-.097-2.22 1.447-4.92 1.543-7.138 2.508-3.183 2.797-6.85 4.242-10.222 6.365-4.05 1.832-8.196 3.182-11.86 5.98-1.16.577-2.22 1.253-3.375 1.83l-2.797 1.353 3.182.19c7.522.483 14.562-1.35 22.276-.288 3.086 0 5.98-1.252 8.97-.674.77-.098 1.735 0 2.41 0-.097.19 0 .578-.097.674-.77 0-1.446.193-2.12.676-.77.385-1.736.385-2.604.578-2.604.29-5.207-.096-7.81.48-7.042.193-13.89-.674-20.736.098-3.182-.578-6.363 1.06-9.45.193-2.023.482-4.628-.58-6.17.578-4.63-.48-9.163-1.253-13.983-1.253-1.062-.385-2.7 0-3.184-1.158-.096-.097.58-1.06.58-.58 5.206-1.35 9.643 1.737 15.62 1.063 3.087-.387 6.27 0 9.548-.965.966-1.352 2.41-1.252 3.473-2.12 1.93-.29 3.857-.772 5.11-2.124 4.918-2.41 9.934-3.277 13.887-6.846 1.156-.482 2.314-1.06 3.568-2.12 0-.29 2.795-1.544 2.795-1.833-.096-.193-2.988.48-2.988.096-3.762 0-7.23-.675-10.223.386-5.398-1.35-10.993-1.445-16.78-.19-4.146-.483-8.39-1.063-12.438-.29-3.375-1.447-7.136 1.54-10.223-1.158-.288-.867-1.83-.578-1.733-1.64 3.277-.58 6.074 1.252 9.257 1.35zM1152.57 1376.45c-.192-.1.867-.292 1.253-.194h.77c.58.193 1.352.482 1.932.387 1.35.578 2.698.29 3.854.867 2.312 1.06 5.4 2.025 7.907 4.146 1.543 1.64 3.567 2.314 5.11 3.76.29.87.674 1.256.482 2.025-1.544.1-2.315-2.12-3.763-2.698-1.062-.965-2.604-1.254-3.47-2.508-.194-.096-.58-.482-.772-.578-.193-.098-.29-.29-.29-.29-.097 0-.48-.192-.48-.29-.867-.867-1.156-.963-1.156-.578-.678-.19-1.16-.674-1.835-.578-.29-.096-.578-.29-.77-.578-1.156.19-1.445-.387-2.025-.482-1.062-.578-2.7 0-3.855-.385-.58.096-1.062-.482-1.736-.387-2.314-.676-3.28-.098-5.787.098-3.183 1.156-3.277.867-5.304 1.64-1.544.577-2.41.77-3.857 1.446-1.447.674-2.025 1.445-3.474 2.12-1.35.58-2.218.386-3.472.868-1.448.578-2.314 1.254-3.665 1.834-1.35.674-2.41.963-3.954 1.64-1.446.866-2.22 1.735-3.954 2.218-.48 0-1.156.096-1.64.096-.48-.096-1.06.096-1.35.096-.29.098-.772-.096-1.063-.19-1.734.577-2.7-.58-4.532-.388-1.734-.482-3.47-.674-5.495-1.35-1.93-1.06-4.437-1.543-6.56-2.99-2.216-1.158-4.435-2.893-6.073-5.016-.192-.29-.965-1.06-.29-.963 1.735.77 3.278 2.508 5.11 3.184 4.918 3.087 10.03 4.92 15.14 5.4.58.29 1.256 0 1.93.29.965 0 2.314.29 3.377.096 3.47.387 2.697-1.156 4.145-1.734 1.543-.58 2.508-.482 3.857-1.158.964-.578 1.445-1.254 2.603-1.736.964-.578 1.64-1.06 2.895-1.252 2.893-.29 2.988-.867 4.436-2.123.677-.385 1.062-.865 1.832-1.156.677-.578 1.255-.29 2.12-.578 1.16-.29 1.737-.677 2.897-1.063 1.06-.385 2.217-.867 2.795-.867 2.025-.867 3.184-.29 5.11-.482.577-.006 1.157.38 1.06.38zM1128.366 1361.6c1.832 1.445 3.953 2.795 5.592 4.916 7.232-.578 13.887.87 20.252.676 2.795-.096 4.725-1.832 7.328-1.64.096.772.676 1.544 1.64 1.833.192.193.192-.578-.097-.482-.095.098-.675.193-.77.193-3.473 2.314-8.68.676-12.922 1.254-1.543.385-3.762 1.06-5.014 0-5.787-1.06-12.73.48-18.42-.77-4.146-.194-8.582.962-12.535.095-5.98-.482-11.96.193-18.034-.676-2.025.77-3.664 0-5.787-.097-.58-.387-1.734 0-2.023-.676.385-.482.19-1.252.77-1.64 2.22-1.83 5.21-2.313 7.427-3.663 2.22-.387 4.146-.87 6.075-1.93.19-.29.385-.58.577-.676 2.508-.19 5.015-1.928 7.715-.867 6.17.675 12.92.966 18.224 4.15zm-24.88-2.028c-2.026 1.447-4.63 2.025-6.75 2.605-.772 1.254-3.087.867-4.244 2.023 1.157 1.834 2.796.965 3.954 1.158 5.883 1.158 11.957.29 18.032.676 2.41.963 4.53-.098 6.943.096 2.7.193 5.4-1.06 7.908.193l.868-1.062c-1.158-1.733-2.798-2.987-4.92-3.567-1.83 0-3.566-.963-5.398-1.736-3.28-.865-6.56-.674-10.03-.865-2.12-.098-3.855 1.156-6.363.48zM1174.17 1346.17c-.288.096-1.06.676-1.735.867-1.832.098-4.436.29-6.268.578-1.06-.385-3.086.387-4.146.098-5.11.48-10.222.77-16.007.674-1.06.676-2.99.193-4.146.193-5.4-.193-10.318-1.543-15.043-.867-3.376 0-7.233 1.254-10.802 0-2.508.385-6.172-.098-8.196.096-.098.095-.29.192-.386.29-5.016-.482-10.607.578-15.43.19-.387-.097-.87-.77-.193-.866 9.934-1.254 21.216-.77 31.728-1.254 2.313-.096 5.786.096 8.293-.387.096.098.193.193.29.29 3.76 0 7.23.483 10.8.772.29-.193.965-.098 1.156 0 5.787.19 12.537-.87 18.033-.676 3.184-1.542 6.56.675 9.45-1.157.388-.58 1.255-.29 1.734-.77 1.16.77 1.064 1.54.87 1.927zM1103.003 1329.006c1.447.19 2.412 1.64 4.05 1.64 3.087 1.542 5.98 2.313 9.74 2.507.58.29 1.544.385 2.218.578 2.123.194 4.052 1.16 6.077 1.16 1.254.384 2.99-.29 4.146 1.253 1.543-.387 2.7-.77 3.664-1.254.386-.772 1.447-1.737 1.35-2.798.677-1.06.1-1.93.58-3.28.578-1.83.578-2.892 1.544-4.82.48-.386.964-.77 1.544-.675.385.965 0 2.12 0 3.28-1.254 2.507-1.062 3.854-1.93 7.134.77.483.48.87.77 1.062 2.41.387 5.014.098 7.04-.385 1.253.19 2.312-.29 4.243-.29.385-1.155 1.254-.29 1.832-.58 3.47-.288 6.556-2.216 10.124-2.41 1.543-1.35 4.146-1.157 5.688-2.313 1.832.193 2.797-2.22 5.11-1.64 1.158-.868 2.218-1.93 3.665-1.93.387.29.77.58 1.157.964-.192 1.447-1.834 1.543-2.895 2.314-1.64.193-3.183.58-4.34 1.64-2.122-.095-3.376 1.735-5.4 1.64-.77.482-1.542.58-2.122.965-.77-.098-1.445.19-2.025.48-4.436 0-7.905 2.895-12.342 2.605-.577.385-1.64.385-2.218.48-4.725 1.64-10.22 1.352-15.043 1.254-2.22-.578-4.92 0-6.848-.965-5.98-1.06-11.766-3.47-17.454-5.013-2.7-1.06-5.208-2.7-7.715-4.05-2.797-1.544-6.076-2.605-8.102-5.4 0-.192 0-.48.193-.58 4.346 2.798 8.878 5.306 13.7 7.43zM1170.796 1298.63c1.254.48 2.12-.194 3.086 0-.29.675-.77 1.253-.77 2.024-.39 1.06-1.737 1.254-2.51 2.025-.77.19-.866 1.25-1.735 1.83-2.023 1.255-3.857 2.605-5.88 4.05-3.956.965-7.522 3.666-12.153 4.146-3.566 1.64-8.195 1.543-12.15 1.64-2.41 1.93-6.268.192-9.16 1.255-1.446.192-2.314-.386-3.472-.386-3.955 1.06-7.52-.482-11.188-1.06-2.604-1.16-5.4-1.448-7.906-2.798-.77-.578-1.93-.385-2.7-.674-3.087-2.025-6.655-3.28-9.45-5.498-1.352-.29-1.735-1.928-3.086-2.217-.48-.676-1.447-1.254-.87-2.7-.866-.675-1.638-2.026 0-1.737.39-.29.58-.096.1.29 3.182 3.856 8.39 7.425 13.5 10.124 1.93 0 3.856 1.062 5.014 2.025 3.955 1.06 7.62 2.507 11.67 2.507 1.445 0 2.894.29 4.145-.096 2.51.29 4.82.966 7.426.29 2.508-.193 5.016-.482 7.426-.965 7.715-1.543 16.104-1.93 22.47-6.172 2.313-1.543 3.952-2.893 5.978-5.207-.29-.482 1.254-.385.965-1.06-5.98.29-13.404.48-18.805.868-2.41 1.06-5.207-.193-7.812.19-2.313.29-4.725-.288-7.137-.19-1.155 0-2.217-.193-3.276.19-1.735-.288-3.956.194-5.4-.77-.677-.578.866-.482 1.06-.87 1.544-.577 3.087-.77 4.822-.095 1.352.19 2.7-.677 3.955-.677 3.568 0 6.654.965 9.064.676 0-.29 1.156 0 2.12 0 .677-.194 1.35-.194 1.736-.1 2.12 0 3.472-.384 5.4-.095 3.47-.867 7.812 0 10.607-.77.867-.194.77-.1 1.64-.194 1.447.006 2.12-.477 3.28.2zM1169.155 1279.537c-.963 2.12-3.277 2.314-4.916 3.473-2.22 1.156-4.63 2.312-7.14 2.604-.675.385-1.638.482-2.41.578-6.462 1.156-12.73 3.762-19.48 3.953-4.628.965-9.74.482-14.753.387-4.146 0-9.45-1.158-13.6-2.99-2.022-.48-4.24-1.254-5.687-2.508-2.12-.578-3.76-2.12-5.593-3.277-.387-.676-.868-1.352-.868-2.025 0-.098-.098-.193-.098-.193 1.93.48 3.762 1.93 5.69 3.085 1.542.867 2.41 2.025 4.05 2.41 2.795.58 5.015 2.508 7.906 2.314 5.305 1.35 11.09 1.253 17.455.868-.965-2.22.674-3.086-.097-4.438.097-.578.19-.963.386-1.35.29-.29.482-.578.868-.29l.48.48c-.19.58.194.966.483 1.255-.29 1.254 0 2.508-.193 4.05 4.728.48 7.908-.866 11.767-1.06 1.64-.77 4.146-.966 6.172-1.544 1.83-.577 4.048-.577 5.784-1.636 1.447.19 3.086-.29 4.244-1.738 2.506.096 4.436-1.736 7.328-2.312v-.482c.48-.193 1.446-1.254 2.604-.87-.094.484-.19.868-.385 1.255zM1163.757 1256.684c-.29 2.023.096 3.76.77 5.398-.098.482-.48.965-.77 1.062-1.254 1.832 1.156 5.11-2.025 6.074-1.06.29-2.22-.193-3.086.58-3.375 1.252-4.436.29-7.715.578-2.892.19-6.364-1.254-9.16 0-1.542 0-2.796-.578-4.147-.77-3.664 1.35-7.812-.675-11.668.288-2.796.193-5.015-.963-7.812.29-.578.097-1.06.097-1.543.29-5.688 0-11.572-.58-17.165.096-2.797 0-5.497-.096-8.004-1.447-.48-.385.098-.963.58-1.156.675 0 1.64-.193 2.7.674 2.023-.866 3.855.1 5.593-.288 1.446.387 3.086.482 4.63.098 3.277-1.93 6.75.29 10.124.19 3.28-.095 6.56-1.35 9.934-.962 3.473.48 7.523.77 11.09.385 1.157-.385 2.508.193 3.567-.193 1.062.193 2.508.098 3.474.77 1.35-.19 2.988-.48 4.34-.866.77.385 1.93.29 2.603.482 3.664.29 4.437.77 7.812-.387 2.217.77 1.35-1.544 3.278-2.026 1.252-.482.578-1.06.578-1.734-.288-1.543 1.255-2.7.58-4.05-.482-1.255-.097-2.896-1.062-4.243-.096-.387-.096-.87.385-.87 1.255-.29 1.448.965 2.124 1.737zM1164.72 1234.31c1.736 2.026 2.896 4.052 4.63 6.462.288 2.314 1.93 2.314 1.542 4.147-1.543 2.12-2.41 1.06-4.242 1.155-5.98-.77-13.02.48-18.805.868-5.207-.385-8.1.387-15.236.578-1.833.773-4.437.292-6.462 0-2.12.87-5.688.483-8.004-.19-7.715.964-14.078.19-21.602.578-.578-.096-1.445.386-1.06-.29 0-.097.096-.48.096-.578.19-.192.29-.48.48-.868-.096-.675-.19.29.29.29.868-1.062 1.253-2.99 2.7-2.99.77-1.06 1.543-1.64 2.41-1.928 1.735-1.64 2.7-3.086 5.016-3.086 3.953-3.183 8.968-2.796 13.5-2.796 4.533 1.543 8.293 3.954 12.15 8.968 1.64-1.833 1.544-4.34 2.605-4.82.676-1.64 1.93-2.99 3.473-4.63 3.084-2.12 5.785-2.507 9.063-3.76 3.76-2.604 7.812 1.253 11.57-.193 1.93.384 3.667 2.41 5.884 3.084zm-56.895 4.823c-2.12 2.797-4.05 1.254-5.786 5.11-.29.192-.58.386-1.063.097-3.664 1.64.29 1.832 1.832 1.928 3.183-1.06 4.726.193 7.906.098 3.28-1.06 7.04.385 10.512-.58 1.062-.288 1.832-.096 2.798-.096 2.12-.48 3.566.482 7.81 0-2.99-2.508-3.664-3.182-5.207-4.242-2.22-.965-4.244-2.508-6.27-3.666-4.34-.964-8.87-.193-12.535 1.35zm31.533-2.797c-2.604 2.508-3.567 4.244-6.075 9.45 2.7 0 4.05-.867 5.21-.48 4.818-2.026 9.257.866 14.27-.387 3.182-1.158 6.557 0 9.836-1.158 1.157.578 4.628.578 5.497.192.096-.192-.87-1.158-.58-2.41-1.35-1.93-2.604-4.052-3.664-6.366-2.12-.19-3.375-.578-4.82-1.445-3.087-.578-6.462-2.314-9.837-1.158-3.377 1.157-6.656 2.12-9.838 3.76zM1168.675 1219.268c.29.096.48.193.674.387-.868 2.217-3.472.964-5.497 1.54-1.735.29-3.375 0-5.11.098-4.726.097-9.45-.097-13.982 0-2.41 0-5.593.192-8.1-.097-1.64-.192-3.665 0-5.305.097-3.953.386-7.714 0-11.86.29-.193-.193-.386-.193-.58-.193-1.735.868-3.663.096-5.304.385-3.952.193-7.714.58-11.57.58-2.7-1.158-5.497.578-8.293-.097-.386-.096.577-1.157.868-1.157 4.24-2.892 9.16 1.158 13.886-.192 5.595-1.543 11.863-.963 17.358-1.252 5.497-.29 10.704.19 16.298 0 1.543-.193 3.086-.193 4.725-.193.388 0 .87.096 1.255.096 4.244-.097 8.486-.097 12.246-.675 2.894.77 5.305.286 8.295.383zM1176.1 1200.56c.097.097.097.386.192.675-.29 1.254 1.06 1.736.098 3.086 0 1.352.29 3.376-.77 4.34-.678.097-1.063.772-1.737.965-1.832.097-4.436.29-6.268.58-1.062-.386-3.086.385-4.146.096-5.11.482-11.67.772-17.456.676-1.06.676-2.99.192-4.146.192-5.4-.192-10.318-1.542-15.043-.867-3.376 0-7.233 1.254-10.8 0-2.51.387-6.173-.096-8.198.098-.098 0-.193.192-.387.29-5.015-.483-10.606.577-15.43.19-.48-.19-.964-.963-.19-1.06 9.932-1.253 21.214-.77 31.726-1.253 2.314-.098 5.882.096 8.39-.387.098.096.192.193.29.29 3.76 0 7.136.48 10.703.77.384-.192.77-.192 1.155 0 5.787.193 13.984-.867 19.48-.674 3.182-1.543 6.557.674 9.354-1.062.48-.675 1.83 0 2.218-1.832-1.062-.964-.58-2.218-.77-2.894-.39-1.543-.483-3.953-.58-5.207.19 0-.386-1.64.48-1.544 1.35 1.062.963 3.376 1.833 4.535zM1136.948 1173.463c3.76.29 7.616 1.157 11.668 1.64 4.918.58 10.028 1.157 14.657 3.472 2.41 2.41 5.4 3.664 7.328 6.847.29 1.735 1.544 1.447.966 3.567.097.288-.192 0-.192-.386-2.22.097-1.158-.482-2.797-2.7-2.51.77-4.338-.386-6.172.386-7.716-.482-14.367 0-21.89.77-1.834.868-4.146.868-6.27.58-1.35-.483-2.798.48-4.437.19-5.014-.288-10.607-.288-15.525.387-3.664-.193-7.23 0-10.993.385-1.445-.29-3.085-.77-5.11-.19-.58 1.35-1.253 1.06-.77 2.216-.193.193-.388.482-.677.676-.29-.097-.578 0-.867-.29.386-2.796 2.218-4.34 3.953-6.46 3.374-3.087 7.714-4.533 11.378-7.52 2.41-1.544 4.918-1.737 7.52-2.798 3.28-.48 6.944-.29 10.127-.963 2.703.672 5.306.48 8.103.19zm-15.236 2.41c-3.762-.19-6.365 1.543-9.934 2.605-.192.19-1.062 1.06-1.543 1.35-2.7 1.93-5.883 2.797-8.775 6.654 3.473-.29 5.208.963 6.848.29 2.41.288 4.53-.966 6.943-1.063 3.472 1.06 7.233.19 10.802.674 3.278.387 6.846-.385 10.22-.578 5.98-2.314 12.923-.676 19.096-1.35 2.99 0 6.46-.482 11.186.096-1.832-3.857-5.108-4.533-7.328-5.785-5.688-1.543-11.38-2.51-17.262-3.086-1.156-.192-2.604.29-3.664-.386-5.307.29-11.67-1.542-16.588.58zM1169.155 1117.05c-3.76 2.7-3.472.964-5.304 2.026-1.35.674-2.603.29-3.855.77-2.025.677-2.025.868-3.568 1.642-.867.578-1.543 1.06-2.506 1.445-1.93.867 0 2.12-4.82 2.024-.482.097-2.51 3.278-3.183 1.93-2.412.288-.965.48-2.896 1.253-.095.193-.19-.29-.384-.29-.965.386-1.158-.19-1.543.772-.192.386.29.867-.77.29-1.063.48-2.026.868-2.026.963-.29.29-.867.192-.867.192-.676 0-1.543.965-2.313 1.736-1.736.48-2.894 2.604-3.857 4.436 3.183.674 5.4.192 7.617.963.87.192 1.735-.964 2.7 0 1.35-.386 2.122-.192 3.087-.29 1.64.675 2.41-.096 4.436.193 2.798-.77 2.7-.87 5.69-.87 4.048.773 6.073.098 10.124.483.77-.387 2.412.095 3.184.577 1.64-.578 4.437-.482 4.627-.386.29.098.77.58 1.158.773.096.19.096.29-.098.385-2.312.87-2.988.097-5.207.676-1.543-.29-3.76 0-5.4-.29-2.988.194-3.76-.867-7.135-.097h-17.84c-.482-.096-.966.193-1.447.098-.77-.193-1.736.578-2.508-.193-3.76.58-8.005-.386-10.512.29-.77.386-1.734.386-2.507.48-2.314-1.058-5.69.1-7.91-.48-1.154.29-2.697.77-4.048.58-2.123.386-3.955.29-5.883.77-1.158-.385-2.7.29-3.763 0-1.928.482-4.05-.193-6.074 0-.098-.193-.193-.385-.29-.676 1.735-3.28 4.34-4.53 6.943-7.424 4.243-3.087 11.476-4.822 16.876-1.832.964-.676 1.06.48 1.64.48 1.93 1.158 2.796 2.123 4.82 2.508 1.64.868 2.22 1.833 4.243 2.988 1.543-1.64 3.086-2.312 4.05-3.76 1.736-1.64 3.954-2.41 5.786-4.244 4.44-1.928.772.676 6.077-1.734 5.303-1.543 3.276-1.64 5.4-2.41 1.64-.58 3.47-.965 4.145-1.447.577-.48 1.06-.577 1.64-1.06 3.952-2.41.48-1.832 5.304-2.7.867-.192 4.918-1.157 5.304-1.446.676-.48.48-.29 2.123-.963.58-.192 2.314.485 1.542.87zm-72.902 21.216c4.34.867 7.33.48 10.705-.097 4.05-1.158 9.547-.676 13.79-.965.964-.482 2.796 0 3.278-1.833-1.736-.29-2.51-1.35-3.474-1.832-.096 0-.29-.097-.385 0-2.7-1.35-5.306-2.604-8.294-3.183-5.88-1.157-11.666 2.604-15.62 7.91zM1169.155 1098.342c-.963 2.122-3.277 2.314-4.916 3.473-2.22 1.158-4.63 2.313-7.14 2.604-.675.384-1.638.48-2.41.577-6.462 1.156-12.73 3.76-19.48 3.954-4.628.965-9.74.482-14.753.387-4.146 0-9.45-1.158-13.6-2.988-2.022-.483-4.24-1.255-5.687-2.51-2.12-.58-3.76-2.122-5.593-3.278-.387-.676-.868-1.35-.868-2.025 0-.096-.098-.193-.098-.193 1.93.482 3.762 1.93 5.69 3.086 1.542.868 2.41 2.026 4.05 2.41 2.795.58 5.015 2.51 7.906 2.314 5.305 1.35 11.09 1.254 17.455.87-.965-2.22.674-3.087-.097-4.438.097-.578.19-.964.386-1.35.29-.29.482-.58.868-.29l.48.482c-.19.58.194.965.483 1.254-.29 1.254 0 2.506-.193 4.05 4.728.482 7.908-.868 11.767-1.06 1.64-.772 4.146-.965 6.172-1.544 1.83-.578 4.048-.578 5.784-1.64 1.447.193 3.086-.29 4.244-1.735 2.506.097 4.436-1.735 7.328-2.313v-.482c.48-.19 1.446-1.253 2.604-.868-.094.48-.19.867-.385 1.252zM1092.01 1079.152c.867.387.867 1.64 1.35 2.314-.77 3.086 2.025 1.35 1.157 5.014.676 1.062 1.64.77 3.278 1.158 0-.676.192-.58.192-.482 5.4-.098 15.525 1.736 20.927 0 2.508.29 5.4-.772 8.485.482.48-3.568.965-2.123.675-4.533.386-.674.386-1.64 1.254-1.735-.1.192-.1.29 0 .386.095.965 0-.386.385.096.674 2.895-.29 1.93-.192 5.787 9.547 0 19.094-1.642 27.676.095 3.085 0 5.687-1.35 8.68-1.254 1.83.966 4.048-.962 6.075.292.096.385.385.77-.098.963-4.822.578-9.836.77-14.37 1.64-4.34-1.735-9.353-.097-13.98-.58-2.7 1.158-7.618-.963-10.126.966-.866.097-1.735-.386-2.507-.48-2.99-.58-6.364-.386-9.547-.483-4.437 1.832-14.367.58-19.286.58-3.183.578-6.27-.29-9.064-1.158-.77-1.16-1.062-2.798-1.157-4.44-.193-2.603-.29-.48-.677-2.603-.096.193-.385-.386-.29-.482.194-.385-.577-1.35-.288-1.64.576.195.77-.384 1.445.097zM1163.757 1057.746c-.29 2.025.096 3.76.77 5.4-.098.48-.48.963-.77 1.06-1.254 1.833 1.156 5.112-2.025 6.075-1.06.29-2.22-.19-3.086.58-3.375 1.253-4.436.29-7.715.58-2.892.192-6.364-1.255-9.16 0-1.542 0-2.796-.58-4.147-.772-3.664 1.35-7.812-.674-11.668.29-2.796.192-5.015-.964-7.812.29-.578.096-1.06.096-1.543.288-5.688 0-11.572-.578-17.165.097-2.797 0-5.497-.097-8.004-1.447-.48-.386.098-.963.58-1.156.675 0 1.64-.193 2.7.675 2.023-.868 3.855.096 5.593-.29 1.446.386 3.086.482 4.63.098 3.277-1.93 6.75.288 10.124.192 3.28-.097 6.56-1.35 9.934-.966 3.473.48 7.523.772 11.09.386 1.157-.387 2.508.193 3.567-.19 1.062.19 2.508.095 3.474.77 1.35-.192 2.988-.48 4.34-.868.77.387 1.93.29 2.603.482 3.664.29 4.437.77 7.812-.387 2.217.77 1.35-1.543 3.278-2.025 1.252-.48.578-1.06.578-1.734-.288-1.543 1.255-2.7.58-4.05-.482-1.254-.097-2.894-1.062-4.244-.096-.386-.096-.868.385-.868 1.255-.29 1.448.963 2.124 1.734zM1103.003 1040.678c1.447.192 2.412 1.64 4.05 1.64 3.087 1.542 5.98 2.314 9.74 2.507.58.29 1.544.386 2.218.578 2.123.193 4.052 1.158 6.077 1.158 1.254.386 2.99-.288 4.146 1.255 1.543-.387 2.7-.77 3.664-1.254.386-.77 1.447-1.735 1.35-2.796.677-1.06.1-1.928.58-3.28.578-1.83.578-2.892 1.544-4.82.48-.386.964-.77 1.544-.675.385.964 0 2.12 0 3.278-1.254 2.508-1.062 3.856-1.93 7.135.77.482.48.87.77 1.062 2.41.386 5.014.097 7.04-.385 1.253.192 2.312-.29 4.243-.29.385-1.157 1.254-.29 1.832-.58 3.47-.288 6.556-2.217 10.124-2.408 1.543-1.352 4.146-1.158 5.688-2.316 1.832.193 2.797-2.217 5.11-1.64 1.158-.866 2.218-1.928 3.665-1.928.387.29.77.58 1.157.964-.192 1.447-1.834 1.543-2.895 2.314-1.64.193-3.183.578-4.34 1.64-2.122-.097-3.376 1.735-5.4 1.64-.77.48-1.542.578-2.122.963-.77-.098-1.445.192-2.025.48-4.436 0-7.905 2.894-12.342 2.605-.577.386-1.64.386-2.218.482-4.725 1.64-10.22 1.35-15.043 1.254-2.22-.58-4.92 0-6.848-.965-5.98-1.062-11.766-3.472-17.454-5.015-2.7-1.06-5.208-2.7-7.715-4.05-2.797-1.542-6.076-2.603-8.102-5.4 0-.19 0-.48.193-.577 4.346 2.796 8.878 5.304 13.7 7.425zM1092.782 1009.434c2.604.194 4.725 1.736 7.328 2.22 2.99 2.698 7.04 2.987 10.125 5.4 2.41.866 5.016 1.83 7.426 2.892.966.578 1.448.964 2.702 2.12 3.373-3.085 7.714-2.698 10.896-4.145 3.086-.867 5.98-1.928 9.064-3.085 2.987-1.157 6.172-1.735 9.45-2.508 1.252-1.062 3.084-1.062 4.627-1.64 2.122.098 2.99-3.277 4.63-1.735.097 0 1.445.676.578.964-3.567 3.28-8.97 2.22-12.635 4.822-3.373.77-6.65 1.06-9.354 2.988-1.833.29-3.567.965-5.11 1.832-2.026.482-3.956.098-5.498 1.062-1.157.097-1.93.964-3.183 1.35-.193.482-1.737 1.446-1.544 1.64.192.29 2.024-.193 2.313.193 4.436.578 7.52-.193 11.283.674 2.604-.192 5.98 0 8.582.482.29-.194 1.156 0 1.64-.194 2.893-.29 5.688-1.832 8.485-.674 1.736-.29 3.857-.964 5.594-.29.096.29.096.675 0 1.062-.77.964-2.12.676-3.184.867-4.53.292-9.16.483-13.5 1.353-2.12-.098-3.664.096-5.592-.675-4.533-1.253-9.258-1.062-13.888-.58-3.567-.19-7.618.387-11.477-.19-3.277-1.158-6.942-.58-10.896-1.158-1.06.963-2.313.385-3.182.29-.77-.483-1.93-.58-2.797-.193-2.894 1.446-4.533.48-6.558-.386 0 .387-1.64-.192-1.735-.386-.193-.867.675-1.252 1.35-1.54.578-.292 1.35 1.06 1.93.576 2.796.48 5.978.29 8.968 0 4.533.675 8.872.58 13.404.772.867.19 4.146.964 5.207-.387-1.543-.77-3.953-1.93-4.437-3.086-2.313-1.062-3.76-1.157-5.496-2.7-1.83.29-2.603-1.062-4.05-1.062-2.894-.868-5.4-3.278-8.486-4.243-1.735-.096-3.182-1.156-4.63-2.025-.095-.192-.866-.385-.866-.578-.29-.29.193-.867.193-1.06.875-.678 1.26 1.155 2.322.962zM1086.417 981.564c.193 1.64.868 2.797 1.158 4.533-.58 2.604-.1 4.918.867 8.1 1.35-.674 2.313-.48 2.797-.288 1.83-.194 4.145.287 5.978.19 1.736-.385 3.857-.577 5.593-.577 2.7-1.35 6.076-1.736 8.776-2.314 1.543.386 3.376 0 4.82.192 6.56 0 13.31-1.64 19.48-2.508 1.157.096 2.895-.19 3.954.096.193-.096.676-.096.77-.19 4.822-.194 8.68-.29 13.5-.29 2.22 0 4.147.385 6.173.48h-.096c-2.51 1.834-5.98 1.158-8.68 1.736-3.954-.963-8.1 1.06-12.345-.578-2.506 2.604-5.496.578-8.1 1.447-2.41-.29-5.305-.193-7.33 1.06-.964-.095-1.832.29-3.184-.192-2.312 1.35-5.207.676-7.617.676-3.953-.87-7.136 1.734-10.895 1.253-2.7 1.35-5.786 1.156-8.872 1.156-.964-1.062-2.507-.097-4.436-2.22-.676 4.244-.29 6.75-.482 9.355.482 2.024-.29 4.242 0 6.46-.096.098-.096.192-.192.29-.77-.098-.964-.965-1.254-1.543.578-1.93.48-3.856 0-5.785-.387-.482 0-1.35.096-2.314-1.06-1.445-.192-3.568-.965-4.918.483-1.543-.19-3.182-.095-4.725-.868-1.543.29-3.57-.58-5.11 0-1.353-1.83-2.702-.288-3.763.097-.096.29-.192.48-.29.392.096.872.193.97.577zM1168.675 970.86c.29.097.48.194.674.386-.868 2.218-3.472.964-5.497 1.543-1.735.288-3.375 0-5.11.095-4.726.098-9.45-.096-13.982 0-2.41 0-5.593.193-8.1-.096-1.64-.194-3.665 0-5.305.095-3.953.387-7.714 0-11.86.29-.193-.192-.386-.192-.58-.192-1.735.867-3.663.096-5.304.385-3.952.193-7.714.578-11.57.578-2.7-1.156-5.497.58-8.293-.096-.386-.096.577-1.158.868-1.158 4.24-2.893 9.16 1.158 13.886-.19 5.595-1.544 11.863-.965 17.358-1.255 5.497-.29 10.704.193 16.298 0 1.543-.19 3.086-.19 4.725-.19.388 0 .87.095 1.255.095 4.244-.096 8.486-.096 12.246-.676 2.894.77 5.305.288 8.295.385zM1169.155 951.865c-.963 2.12-3.277 2.314-4.916 3.47-2.22 1.16-4.63 2.315-7.14 2.606-.675.386-1.638.482-2.41.58-6.462 1.155-12.73 3.76-19.48 3.952-4.628.963-9.74.48-14.753.385-4.146 0-9.45-1.156-13.6-2.988-2.022-.483-4.24-1.257-5.687-2.51-2.12-.58-3.76-2.122-5.593-3.277-.387-.677-.868-1.35-.868-2.026 0-.097-.098-.193-.098-.193 1.93.482 3.762 1.93 5.69 3.086 1.542.867 2.41 2.025 4.05 2.412 2.795.58 5.015 2.508 7.906 2.314 5.305 1.35 11.09 1.254 17.455.867-.965-2.22.674-3.085-.097-4.436.097-.578.19-.965.386-1.352.29-.29.482-.578.868-.29.192.194.29.29.48.483-.19.578.194.964.483 1.253-.29 1.255 0 2.508-.193 4.05 4.728.483 7.908-.866 11.767-1.06 1.64-.77 4.146-.965 6.172-1.543 1.83-.578 4.048-.578 5.784-1.64 1.447.193 3.086-.288 4.244-1.735 2.506.096 4.436-1.736 7.328-2.315v-.48c.48-.193 1.446-1.253 2.604-.87-.094.487-.19.872-.385 1.258zM1159.417 930.36c-3.473 2.508-7.908 2.122-11.09 4.82-1.254.388-2.604 1.063-3.664 1.737-2.99-.098-6.076 1.832-10.127 3.664 2.604 1.062 4.533.772 5.883.388 5.688 0 10.704-.965 16.683-.097 1.64 0 3.664-.48 5.11.193 2.796.097 6.075-.676 8.485.676.098.095.098.095.192.19-2.024.58-4.63.387-6.65.29-1.737-.48-3.57.192-5.5.192-3.76.098-7.714-1.253-11.09.387-3.085.384-5.978-1.063-8.97 0-2.697.865-5.398-.483-7.904.77-4.63-.77-10.608.096-15.624-.77-5.69 0-11.476.384-17.068-.58-3.086-.097-4.34-.676-7.23-1.253-.098 0 .48-.675.48-.87 3.086-1.83 4.146-2.41 7.426-3.663 4.53-1.832 9.354-1.447 13.888-2.7 6.362.097 12.632.964 17.26 7.04 8.486-5.11 17.55-5.69 25.75-10.125 3.663-1.158 7.038-2.99 10.704-4.147.578 0 1.543-.386 2.217-.193-2.99 1.736-6.077 3.086-9.163 4.05zm-54.29 6.367c-1.256.385-2.798-.098-3.956.676-1.542-.194-2.988.674-4.24 1.156l-2.315 1.638c.867.098 4.242.387 5.207.58 1.255 1.252 3.472.674 5.016 1.06 7.136-.963 15.14.192 23.722-.192-1.253-1.543-2.506-1.928-3.182-2.604-1.35-1.35-5.11-2.796-7.618-3.857-4.34.577-8.97-.388-12.634 1.542zM1084.296 906.445c0 2.988-.097 5.882.675 9.16 7.233.482 14.176.482 19.77-1.35 1.544-.29 3.087-.482 4.34-.965 6.074-1.734 10.607-.482 16.587-2.604 3.76-.29 7.137-1.062 10.706-1.64 5.014-.868 10.22-.29 14.85-1.35 2.99 0 6.56-.388 9.74-1.255 2.604.1 5.303-1.06 7.906-1.542.386.193.868.58 1.06.87-.385 2.892-4.627 1.253-6.46 2.12-6.558 1.254-12.923 1.93-18.997 2.123-3.664.097-7.52 1.06-11.283 1.542-3.76.482-6.557.77-10.318.77-1.062.58-2.506.772-3.857.483-1.253 1.156-2.506.48-3.47 1.156-3.185.483-6.56 1.353-10.03 1.834-3.086 0-6.46 1.832-9.258 1.35 0 0-.482.194-.578.29-2.798-.096-6.173.29-10.03-1.156-.77 2.217-.192 4.436-.386 6.074-.578 6.076 1.254 11.668.29 17.358 0 .48.578 1.157.19 1.64-.384.385-.77.096-1.155 0-1.062-1.447-.772-3.762-.772-5.4-.675-.77.097-2.314-.192-3.277.58-5.98-.386-11.863-.386-17.263 0-5.015-.965-11.09-1.254-16.2-.387-.867.387-1.447.867-1.833.098 0 0-.192.098-.097.96 2.898 1.346 5.984 1.346 9.165zM1161.827 896.61c0 .48-.674.77-1.062.868-1.446.963-3.47.096-5.014.867-.48 0-.868-.19-1.157-.48 0-.482.193-.676.387-.868 1.35-.386 2.7-2.604 4.34-.966 1.253-.094 1.833.195 2.507.58z"/></g><path d="M2048 0M2048 1536M0 1536M0 0" fill="none" stroke="#17192D" stroke-width="3"/></g></svg>