<svg xmlns="http://www.w3.org/2000/svg" width="2048" height="1536" viewBox="0 0 2048 1536"><g><g fill="#17192D"><path d="M1207.613 1326.63c-7.617 3.375-14.176 7.81-20.828 12.247-.58.29-.77 1.06-2.025 1.06-3.086 3.087-6.943 3.376-9.74 6.173-2.508 1.254-5.303 2.7-8.197 4.918.387.29 1.06.578 1.35.77 2.025.965 4.05.193 5.883.29 5.787.192 11.09-.77 16.2-.867 4.92 0 9.452-1.157 13.792-.675.096.193.096.482.096.868-.29 2.218-2.797.675-3.857 1.06-4.63.58-8.68.677-13.693.87-6.172.385-12.248.096-18.42.77-4.146.385-7.906 0-11.86.867-6.558-.77-13.212 2.604-19.77 1.254-1.542 0-3.085.77-4.724.386-.676-.482-3.762.097-2.22-1.35 5.017-.772 10.224 0 15.333-.675 7.715-.29 15.912-.772 21.602-5.69.965-.29 1.736-.964 2.41-1.446 2.412-1.447 5.016-2.508 7.04-4.63 2.026-.675 3.858-1.832 5.497-2.99 2.893-2.892 6.75-3.952 9.934-6.17 0-.386.29-.29.48-.386.87-.387 1.543-1.158 2.605-1.93 0-.386 2.796-.964 2.7-1.253-.096-.29-3.28-.192-3.568-.385-4.436.964-9.932 1.35-15.043 1.832-5.497.482-9.163 1.543-14.37 1.64-1.832-.386-4.436 1.446-6.268-.097-2.025 0-3.184-.097-4.822.482-1.445 0-2.893-.193-4.63-.193-.384-.097-.77.288-1.155.288-1.64 1.06-2.508-1.446-3.762-.29-.578.194-1.156.676-1.734-.192-3.087.868-5.5.387-8.103-1.06-.867.385-1.156-.097-1.543-.387v-.29c.29-.675.867.29.867.193 0 0 .58.48 1.16-.097.386-.58 1.253.675 1.446.386 3.277.77 7.135.578 10.8.097 3.376.577 8.485-.387 11.67.288.673-.097 1.542-.675 2.698-.29 1.06-.964 2.508-.096 3.28-.674 4.048-.29 8.388-.965 12.534-.965 3.955-.387 8.295-.772 11.477-1.255.676.192 1.445-.386 2.12.097 1.64-.386 2.315-.386 3.57-.58 2.507-.48 5.688-.866 7.905-1.35.387 0 .87-.288 1.447-.963-.482-.87.578-.483.676-.483.867-.387 2.314.386 3.76-.097 0 .29.098.58 0 .87zM1204.432 1314.77c.29.096.482.192.676.386-.87 2.218-3.473.964-5.498 1.543-1.734.288-3.375 0-5.11.095-4.726.097-9.45-.096-13.983 0-2.41 0-5.592.193-8.1-.096-1.64-.194-3.664 0-5.305.095-3.953.386-7.713 0-11.86.29-.192-.193-.386-.193-.58-.193-1.735.867-3.663.097-5.302.386-3.955.192-7.715.58-11.572.58-2.7-1.158-5.496.577-8.293-.1-.387-.095.578-1.155.867-1.155 4.244-2.894 9.16 1.156 13.887-.192 5.593-1.543 11.86-.964 17.356-1.253 5.496-.29 10.705.192 16.297 0 1.543-.193 3.086-.193 4.727-.193.385 0 .867.097 1.252.097 4.244-.096 8.486-.096 12.248-.674 2.89.77 5.3.287 8.292.384zM1212.05 1293.844c1.253 1.062 0 .964-.192 1.35-5.4 4.726-12.922 3.76-18.71 7.522-4.145 1.543-8.58 2.122-12.632 3.086-3.182.097-6.074 1.446-9.064.867-.965.77-2.41 0-3.47.386-6.944 0-10.9-1.35-16.298-2.508-1.832.192-3.762-.386-5.21-1.64-2.505.29-4.53-.48-6.362-1.446-4.436-1.64-8.873-3.375-12.055-6.46 0 .095-.578-.194-.29-.387.772-.482 1.64.386 2.41.77 4.534.387 7.427 3.666 11.478 4.63 1.832.965 3.857.965 5.592 1.64 7.426 1.93 12.344 3.567 20.156 3.664.096 0 .29-.676.29.096 6.65-.386 12.34-1.93 18.417-2.604 6.172-1.93 12.344-4.146 18.516-6.075 1.64-1.06 3.568-1.93 5.69-2.7.577 0 1.638-1.06 1.927-.675.097 0 .77 0-.192.482zM1207.13 1259.61c.1.29.1.675 0 .965-.577.29-.962.385-1.733.578-.482.097-.965.097-1.447.097-1.736.385-2.797.578-4.63 1.157-.384.192-.577.386-.962.578-.482 0-.676-.097-1.158-.097-2.025-.096-4.725.675-5.207.482-4.822.868-4.146 1.254-9.645 1.543-3.953.193-6.846.578-10.51.965 0 1.93-1.254 3.76-1.543 5.496-.098.965-.193 1.446-.387 2.41-.385 1.255-1.156 1.833-.965 3.184 0 2.7.193.867-1.35 3.567-.19.29-.29.675-1.35 2.12 2.314-.19 3.086-.384 4.146-.577 1.446.965 4.05.097 6.364.193 6.074.29 11.86-.578 17.357-.29 5.112.194 10.126-.77 14.66-.288.095.29.095.675.095 1.06-.385 2.315-3.086.58-4.146 1.063-4.823.385-9.26.385-14.66.385-6.556.193-13.112-.385-19.767.097-4.533.386-8.486-.29-12.633.482-7.04-1.158-14.176 2.313-21.12.675-1.735-.098-3.472.578-5.206.096-.867-.48-3.955-.192-2.314-1.542 5.4-.578 10.992.097 16.49-.097 8.1-.384 3.182-.77 5.303-.963 2.797-.29 4.436-.193 7.33-.193 2.604 0 4.05.29 6.846 0 .58-1.35.964-2.12 1.542-3.278 1.254-2.41.387.964.965-3.568.193-1.446.29-1.832.29-3.278 0-1.254.577-1.833.866-3.086.29-.868.193-1.832.387-3.472-1.254 0-1.64.097-2.22.097-2.024-.58-4.82 1.445-6.65-.29-2.315-.193-3.57-.387-5.5.386-1.35-.097-2.796-.29-4.53-.482-.387-.192-.965.29-1.352.29-1.543.867-2.506-1.64-3.953-.482-.674 0-1.35.675-2.025-.29-3.182.868-5.69.58-8.39-1.157-.868.386-1.253-.192-1.64-.675-.096-.097-.19-.29-.096-.482.29-.77.77.386.965.29 0 0 .577.48 1.155-.097.578-.48 1.06.772 1.64.483 3.665.867 7.618.867 11.38.385 3.664.868 9.064 0 12.535.868.87-.097 1.64-.77 2.99 0 1.156-1.253 2.604-.29 3.47-.868 4.44-.096 8.97-.482 13.405-.578 4.34 0 2.895-.675 6.172-1.157.676.192 1.736-.29 2.22.097 1.253-.193 2.41-.193 3.663-.386 2.604-.387 6.172-.58 8.486-1.157.385.192.867-.097 1.543-.868-.388-.87.673-.387.673-.58 1.064-.39 2.51.576 4.148.19zM1122.174 1232.803c.193 1.64.87 2.797 1.158 4.532-.578 2.604-.098 4.918.867 8.1 1.35-.674 2.313-.48 2.796-.288 1.832-.193 4.146.29 5.98.192 1.735-.387 3.856-.58 5.593-.58 2.698-1.35 6.073-1.735 8.774-2.313 1.543.386 3.375 0 4.822.193 6.557 0 13.307-1.64 19.48-2.508 1.155.097 2.892-.192 3.952.097.193-.098.676-.098.77-.194 4.823-.193 8.68-.29 13.503-.29 2.218 0 4.147.387 6.17.483h-.095c-2.508 1.83-5.98 1.156-8.678 1.734-3.955-.964-8.102 1.06-12.344-.578-2.508 2.604-5.498.578-8.102 1.446-2.41-.29-5.302-.192-7.327 1.06-.965-.095-1.832.29-3.182-.192-2.313 1.35-5.208.676-7.618.676-3.953-.868-7.137 1.735-10.896 1.253-2.7 1.35-5.787 1.157-8.873 1.157-.963-1.062-2.506-.097-4.436-2.218-.674 4.24-.29 6.75-.482 9.353.482 2.025-.29 4.243 0 6.46-.096.098-.096.193-.19.29-.772-.097-.966-.964-1.255-1.543.578-1.93.482-3.857 0-5.786-.387-.48 0-1.35.096-2.314-1.06-1.446-.193-3.567-.965-4.918.483-1.542-.19-3.182-.095-4.725-.867-1.544.29-3.568-.578-5.11 0-1.35-1.832-2.7-.29-3.762.097-.096.29-.193.483-.29.386.095.868.193.964.578zM1192.57 1216.41c3.762.964 6.46 4.145 10.223 5.303.578 1.062 1.832 1.64 2.41 2.7-.867.29-1.832-.578-2.604-.964-.677-.676-1.35-1.063-2.315-1.158-2.12-1.543-5.014-2.22-7.232-3.954-1.64-.578-4.05-.77-5.883-1.64-3.28-.192-6.557-.192-9.74.386-3.086.58-6.074 1.833-8.486 3.954-3.182 1.543-6.846 2.7-10.318 3.472-5.398 2.7-12.246 2.41-17.84.193-3.277 0-5.11-2.797-8.1-3.183-.867-.675-1.64-1.35-2.7-1.736-.58-.48-.29-1.254-.77-1.93 0-.19-.387.098-.193.194 1.35.097 2.797.675 3.953 1.254 5.11 3.953 11.957 4.146 18.13 5.496 4.34-.193 7.907-2.218 12.054-3.183 2.604-1.64 5.883-2.218 8.486-3.856 1.93-.194 3.473-2.412 5.496-1.93 4.34-1.543 9.45-1.543 13.598 0 .576.29 1.155.482 1.83.58zM1204.914 1169.93c-.965 2.12-3.28 2.314-4.918 3.472-2.22 1.157-4.63 2.313-7.137 2.604-.675.386-1.64.482-2.41.58-6.462 1.156-12.73 3.76-19.48 3.952-4.63.964-9.74.482-14.755.386-4.146 0-9.45-1.157-13.596-2.99-2.026-.48-4.245-1.253-5.692-2.507-2.12-.578-3.76-2.12-5.592-3.278-.387-.676-.867-1.35-.867-2.026 0-.096-.1-.193-.1-.193 1.93.483 3.763 1.93 5.69 3.088 1.543.868 2.412 2.024 4.05 2.41 2.798.58 5.015 2.508 7.91 2.315 5.302 1.35 11.087 1.253 17.452.867-.965-2.218.676-3.086-.096-4.436.096-.58.193-.965.385-1.35.29-.29.483-.58.868-.29l.482.482c-.19.578.193.964.482 1.253-.29 1.253 0 2.507-.19 4.05 4.724.482 7.905-.868 11.763-1.06 1.64-.772 4.146-.966 6.172-1.545 1.832-.578 4.05-.578 5.787-1.64 1.445.193 3.084-.29 4.242-1.735 2.508.098 4.436-1.735 7.328-2.313v-.482c.482-.193 1.447-1.254 2.604-.868-.095.48-.19.867-.384 1.252zM1195.078 1141.193c0 .097.096-.097.193 0-.675.29-1.157.77-1.833 1.06-2.506.966-5.303 1.447-8.004 2.122-2.217.482-4.242 1.35-6.46 1.736-1.35.29-2.894-.19-4.243-.095-1.35.288-2.12 1.542-3.086 2.313-2.12 1.157-4.242 1.35-7.232 3.375 3.086 1.447 5.785 1.254 7.908 1.93 5.4.192 10.51 2.217 15.043 5.11 1.254.29 2.797 1.253 4.242 1.06 1.736.676 3.666 1.255 5.594.483 1.157-.386 1.83.386 2.603.965-.385.29-.965.386-1.445.58-2.508-.098-.482.866-3.086.48-1.64-.192-8.004-.675-9.162-2.604-1.93-.48-4.436-1.64-7.52-2.41-4.34-1.06-9.452-1.93-12.15-2.7-3.956-1.157-2.122-1.06-6.462-1.446-2.025-1.543-4.146.77-6.076 1.253-8.004 1.93-15.814 2.7-23.625 4.63-1.543-.193-3.664-.772-5.11.096-1.642 0-3.954 1.06-4.823-.58 2.12-1.06 5.11-.29 7.328-1.06 3.857.675 8.584-.772 12.344-1.64 1.158-1.158 3.184-1.254 4.727-1.447 2.7-.386 5.4-1.253 8.1-1.832.29-.288 1.64.193 1.35-.385-2.12-.77-5.496-1.735-7.906-2.12-4.146-1.64-8.486-2.122-12.826-2.51-3.47-1.06-7.038-2.12-10.895-2.313-2.025-.964-4.244-.77-6.172-1.735-.29 0-.87-.867-.676-1.062 5.305 1.447 10.994 1.35 16.008 3.473 5.69.385 11.766 1.543 16.877 2.99 4.53 1.252 9.738 2.7 14.367.963 1.253-.674 2.41-2.023 3.954-2.12.385.29 1.06.193 1.445 0 2.024-1.447 4.34-2.218 6.46-3.28 3.28-.577 7.232 0 10.03-2.12 3.18-.965 6.558-1.832 9.74-2.41.478.29.38.772.478 1.253zM1204.432 1128.657c.29.097.482.193.676.386-.87 2.218-3.473.965-5.498 1.543-1.734.29-3.375 0-5.11.097-4.726.097-9.45-.097-13.983 0-2.41 0-5.592.193-8.1-.097-1.64-.192-3.664 0-5.305.097-3.953.386-7.713 0-11.86.29-.192-.193-.386-.193-.58-.193-1.735.867-3.663.097-5.302.386-3.955.192-7.715.578-11.572.578-2.7-1.157-5.496.58-8.293-.097-.387-.096.578-1.156.867-1.156 4.244-2.893 9.16 1.157 13.887-.192 5.593-1.543 11.86-.964 17.356-1.254 5.496-.29 10.705.193 16.297 0 1.543-.192 3.086-.192 4.727-.192.385 0 .867.097 1.252.097 4.244-.098 8.486-.098 12.248-.677 2.89.77 5.3.29 8.292.384zM1188.328 1106.96c-.193-.096.867-.29 1.252-.192h.77c.58.193 1.353.482 1.93.386 1.35.58 2.7.29 3.858.868 2.314 1.06 5.4 2.025 7.908 4.146 1.54 1.64 3.566 2.314 5.11 3.76.288.87.675 1.255.48 2.026-1.542.097-2.313-2.122-3.76-2.7-1.06-.964-2.604-1.254-3.472-2.508-.193-.096-.578-.48-.77-.578s-.29-.29-.29-.29c-.096 0-.482-.192-.482-.29-.867-.866-1.156-.963-1.156-.577-.676-.192-1.158-.674-1.832-.577-.29-.097-.58-.29-.77-.58-1.16.194-1.448-.385-2.026-.48-1.06-.58-2.7 0-3.857-.387-.577.097-1.06-.48-1.735-.386-2.314-.675-3.28-.096-5.785.097-3.184 1.157-3.28.868-5.305 1.64-1.543.578-2.41.77-3.857 1.446-1.445.675-2.025 1.446-3.47 2.122-1.35.578-2.22.386-3.474.867-1.445.578-2.314 1.254-3.664 1.832-1.35.675-2.41.965-3.953 1.64-1.447.868-2.22 1.736-3.953 2.218-.482 0-1.158.097-1.64.097-.483-.098-1.062.096-1.35.096-.29.096-.772-.097-1.062-.193-1.736.58-2.7-.578-4.533-.386-1.737-.48-3.472-.675-5.497-1.35-1.93-1.06-4.436-1.543-6.56-2.99-2.216-1.156-4.435-2.893-6.073-5.014-.193-.29-.965-1.062-.29-.965 1.737.77 3.28 2.508 5.112 3.183 4.918 3.087 10.03 4.92 15.14 5.4.58.29 1.253 0 1.93.29.964 0 2.313.29 3.374.097 3.47.386 2.7-1.157 4.146-1.736 1.543-.577 2.508-.48 3.857-1.156.964-.578 1.444-1.253 2.603-1.735.965-.58 1.64-1.062 2.893-1.255 2.893-.29 2.99-.867 4.436-2.12.676-.387 1.062-.87 1.832-1.158.676-.58 1.254-.29 2.123-.58 1.156-.288 1.734-.674 2.893-1.06 1.06-.386 2.217-.868 2.797-.868 2.023-.868 3.182-.29 5.11-.482.58-.003 1.157.383 1.06.383zM1122.174 1079.092c.193 1.64.87 2.796 1.158 4.532-.578 2.604-.098 4.918.867 8.1 1.35-.675 2.313-.48 2.796-.29 1.832-.19 4.146.29 5.98.194 1.735-.386 3.856-.58 5.593-.58 2.698-1.35 6.073-1.734 8.774-2.312 1.543.385 3.375 0 4.822.192 6.557 0 13.307-1.64 19.48-2.507 1.155.097 2.892-.192 3.952.097.193-.096.676-.096.77-.192 4.823-.193 8.68-.29 13.503-.29 2.218 0 4.147.387 6.17.482h-.095c-2.508 1.832-5.98 1.157-8.678 1.736-3.955-.965-8.102 1.06-12.344-.58-2.508 2.605-5.498.58-8.102 1.447-2.41-.29-5.302-.192-7.327 1.062-.965-.097-1.832.29-3.182-.193-2.313 1.35-5.208.675-7.618.675-3.953-.87-7.137 1.735-10.896 1.253-2.7 1.35-5.787 1.157-8.873 1.157-.963-1.06-2.506-.097-4.436-2.218-.674 4.243-.29 6.75-.482 9.354.482 2.026-.29 4.244 0 6.462-.096.097-.096.193-.19.29-.772-.097-.966-.965-1.255-1.543.578-1.93.482-3.858 0-5.787-.387-.482 0-1.35.096-2.314-1.06-1.447-.193-3.57-.965-4.92.483-1.542-.19-3.182-.095-4.725-.867-1.543.29-3.568-.578-5.11 0-1.35-1.832-2.7-.29-3.76.097-.098.29-.194.483-.29.386.094.868.19.964.577zM1204.432 1068.387c.29.097.482.193.676.387-.87 2.218-3.473.964-5.498 1.542-1.734.29-3.375 0-5.11.097-4.726.097-9.45-.097-13.983 0-2.41 0-5.592.193-8.1-.097-1.64-.192-3.664 0-5.305.097-3.953.386-7.713 0-11.86.29-.192-.193-.386-.193-.58-.193-1.735.868-3.663.097-5.302.386-3.955.193-7.715.58-11.572.58-2.7-1.16-5.496.577-8.293-.098-.387-.097.578-1.157.867-1.157 4.244-2.892 9.16 1.158 13.887-.192 5.593-1.543 11.86-.964 17.356-1.253 5.496-.29 10.705.192 16.297 0 1.543-.193 3.086-.193 4.727-.193.385 0 .867.097 1.252.097 4.244-.098 8.486-.098 12.248-.676 2.89.77 5.3.287 8.292.383zM1204.914 1049.39c-.965 2.123-3.28 2.316-4.918 3.473-2.22 1.157-4.63 2.314-7.137 2.604-.675.386-1.64.48-2.41.578-6.462 1.157-12.73 3.76-19.48 3.954-4.63.963-9.74.48-14.755.384-4.146 0-9.45-1.156-13.596-2.988-2.026-.482-4.245-1.254-5.692-2.508-2.12-.58-3.76-2.122-5.592-3.278-.387-.676-.867-1.35-.867-2.025 0-.097-.1-.193-.1-.193 1.93.482 3.763 1.93 5.69 3.086 1.543.868 2.412 2.025 4.05 2.41 2.798.58 5.015 2.51 7.91 2.315 5.302 1.35 11.087 1.254 17.452.868-.965-2.217.676-3.085-.096-4.435.096-.58.193-.965.385-1.35.29-.29.483-.58.868-.29l.482.48c-.19.58.193.966.482 1.255-.29 1.254 0 2.507-.19 4.05 4.724.482 7.905-.867 11.763-1.06 1.64-.772 4.146-.965 6.172-1.544 1.832-.578 4.05-.578 5.787-1.64 1.445.193 3.084-.29 4.242-1.735 2.508.098 4.436-1.734 7.328-2.313v-.482c.482-.192 1.447-1.253 2.604-.867-.095.48-.19.867-.384 1.253zM1195.174 1027.888c-3.47 2.507-7.906 2.12-11.09 4.82-1.254.387-2.604 1.062-3.664 1.737-2.99-.097-6.076 1.832-10.125 3.664 2.604 1.06 4.53.77 5.88.385 5.692 0 10.706-.965 16.685-.097 1.64 0 3.664-.482 5.11.193 2.798.097 6.077-.675 8.487.676l.193.192c-2.025.58-4.63.386-6.654.29-1.736-.482-3.568.192-5.496.192-3.762.097-7.715-1.254-11.09.386-3.086.386-5.98-1.06-8.97 0-2.7.867-5.4-.482-7.907.77-4.63-.77-10.607.097-15.62-.77-5.692 0-11.478.386-17.07-.578-3.085-.097-4.34-.676-7.23-1.254-.1 0 .48-.675.48-.868 3.085-1.832 4.145-2.41 7.425-3.664 4.533-1.832 9.354-1.446 13.887-2.7 6.363.096 12.633.964 17.262 7.04 8.486-5.11 17.55-5.69 25.748-10.126 3.664-1.157 7.04-2.99 10.703-4.146.578 0 1.543-.387 2.22-.193-2.992 1.735-6.078 3.086-9.164 4.05zm-54.29 6.364c-1.255.386-2.798-.097-3.956.675-1.543-.192-2.988.675-4.242 1.157l-2.314 1.64c.867.097 4.244.386 5.207.58 1.253 1.252 3.472.673 5.015 1.06 7.135-.965 15.14.192 23.723-.193-1.254-1.542-2.508-1.928-3.184-2.603-1.35-1.35-5.11-2.797-7.617-3.857-4.34.577-8.97-.387-12.634 1.542zM1120.053 1003.972c0 2.99-.096 5.882.676 9.16 7.23.482 14.175.482 19.767-1.35 1.543-.29 3.086-.482 4.34-.964 6.076-1.736 10.607-.482 16.586-2.604 3.762-.29 7.137-1.062 10.705-1.64 5.014-.868 10.22-.29 14.852-1.35 2.988 0 6.557-.387 9.738-1.254 2.604.097 5.305-1.06 7.908-1.543.385.192.867.578 1.06.867-.386 2.894-4.628 1.254-6.46 2.122-6.557 1.254-12.922 1.93-18.998 2.12-3.664.098-7.52 1.063-11.283 1.544-3.76.482-6.557.77-10.318.77-1.06.58-2.506.772-3.857.483-1.252 1.157-2.506.482-3.47 1.157-3.183.482-6.558 1.35-10.03 1.832-3.086 0-6.46 1.832-9.258 1.35 0 0-.482.193-.578.29-2.797-.097-6.172.29-10.03-1.157-.77 2.218-.19 4.436-.384 6.075-.578 6.075 1.254 11.67.29 17.358 0 .48.577 1.156.192 1.64-.387.385-.77.096-1.158 0-1.06-1.447-.77-3.762-.77-5.4-.675-.772.095-2.315-.194-3.28.58-5.978-.385-11.86-.385-17.26 0-5.016-.965-11.09-1.254-16.2-.384-.87.388-1.448.87-1.833.096 0 0-.193.096-.097.96 2.895 1.347 5.98 1.347 9.164zM1175.695 951.802c6.074-.77 11.475 2.22 17.068 3.473 2.314 1.253 5.014 1.446 7.715 3.182.867-.29.963.385 1.252.77 0 .097-.096-.48-.096-.48-3.277 1.928-7.135 4.05-11.186 5.207-2.12.964-4.725 1.254-6.848 1.93-2.604.77-5.11 1.638-7.617 2.312-5.207.482-8.582 1.35-13.598 1.833-3.762-.677-8.197-.29-11.572-1.736-2.12.77-4.725-.193-6.75-.676-2.508.482-4.533-1.832-6.943-2.122-2.604-1.157-5.883-.964-7.715-3.182.098-.097-1.06-.77-.385-1.543.193-.19.29-.385.482-.578 1.64-1.157 2.797-2.797 4.82-3.664 4.438-2.507 9.45-4.918 15.045-4.726 2.988.58 5.88-1.93 8.87-.385 5.5 0 12.058-.676 17.458.385zm-43.78 7.81c-.388 1.062-1.255 2.7.675 2.7 6.75 2.508 13.5 3.858 20.443 4.92 6.75.963 13.115 1.542 19.672-.29 8.39-2.41 17.262-3.953 26.713-8.39-5.498-1.06-8.584-2.7-11.96-3.278-7.425-.482-14.175-2.7-21.696-2.508-12.15.193-24.397 1.544-33.848 6.847zM1172.705 926.634c3.762.29 7.62 1.157 11.668 1.64 4.918.578 10.03 1.156 14.658 3.47 2.41 2.412 5.4 3.666 7.33 6.848.29 1.736 1.542 1.446.964 3.568.098.29-.193 0-.193-.386-2.216.097-1.155-.482-2.794-2.7-2.508.77-4.34-.385-6.172.386-7.715-.48-14.37 0-21.89.77-1.833.87-4.147.87-6.27.58-1.35-.482-2.796.48-4.435.192-5.017-.29-10.61-.29-15.528.386-3.664-.192-7.232 0-10.992.386-1.447-.29-3.086-.77-5.11-.192-.58 1.35-1.255 1.06-.772 2.218-.193.193-.387.482-.676.675-.29-.097-.578 0-.867-.29.385-2.796 2.217-4.34 3.953-6.46 3.375-3.086 7.715-4.532 11.38-7.522 2.41-1.543 4.917-1.735 7.52-2.796 3.28-.482 6.943-.29 10.127-.965 2.7.674 5.303.48 8.1.192zm-15.236 2.41c-3.76-.192-6.366 1.543-9.933 2.605-.193.19-1.062 1.06-1.543 1.35-2.7 1.928-5.883 2.796-8.777 6.653 3.473-.29 5.21.965 6.848.29 2.41.288 4.533-.965 6.943-1.063 3.47 1.062 7.232.193 10.8.676 3.28.386 6.847-.386 10.222-.578 5.98-2.315 12.924-.676 19.096-1.35 2.988 0 6.46-.483 11.186.096-1.832-3.857-5.11-4.532-7.33-5.786-5.69-1.543-11.38-2.508-17.26-3.086-1.158-.193-2.604.29-3.666-.386-5.304.29-11.67-1.543-16.587.58zM1204.914 908.504c-.965 2.122-3.28 2.315-4.918 3.473-2.22 1.157-4.63 2.313-7.137 2.604-.675.387-1.64.483-2.41.58-6.462 1.157-12.73 3.76-19.48 3.953-4.63.964-9.74.48-14.755.386-4.146 0-9.45-1.158-13.596-2.99-2.026-.482-4.245-1.254-5.692-2.508-2.12-.578-3.76-2.12-5.592-3.278-.387-.675-.867-1.35-.867-2.025 0-.097-.1-.194-.1-.194 1.93.482 3.763 1.93 5.69 3.087 1.543.868 2.412 2.024 4.05 2.41 2.798.58 5.015 2.508 7.91 2.315 5.302 1.35 11.087 1.253 17.452.867-.965-2.218.676-3.086-.096-4.436.096-.58.193-.966.385-1.352.29-.29.483-.578.868-.29l.482.483c-.19.58.193.965.482 1.254-.29 1.254 0 2.508-.19 4.05 4.724.482 7.905-.867 11.763-1.06 1.64-.77 4.146-.965 6.172-1.544 1.832-.578 4.05-.578 5.787-1.64 1.445.193 3.084-.29 4.242-1.735 2.508.097 4.436-1.735 7.328-2.313v-.482c.482-.193 1.447-1.254 2.604-.868-.095.48-.19.867-.384 1.252zM1195.174 887c-3.47 2.508-7.906 2.122-11.09 4.822-1.254.386-2.604 1.06-3.664 1.736-2.99-.097-6.076 1.832-10.125 3.664 2.604 1.06 4.53.77 5.88.386 5.692 0 10.706-.965 16.685-.097 1.64 0 3.664-.48 5.11.194 2.798.097 6.077-.676 8.487.675.096.096.096.096.193.19-2.025.58-4.63.387-6.654.29-1.736-.48-3.568.193-5.496.193-3.762.097-7.715-1.253-11.09.386-3.086.385-5.98-1.062-8.97 0-2.7.867-5.4-.483-7.907.77-4.63-.77-10.607.097-15.62-.77-5.692 0-11.478.385-17.07-.58-3.085-.096-4.34-.675-7.23-1.253-.1 0 .48-.675.48-.868 3.085-1.833 4.145-2.412 7.425-3.665 4.533-1.832 9.354-1.446 13.887-2.7 6.363.097 12.633.964 17.262 7.04 8.486-5.11 17.55-5.69 25.748-10.126 3.664-1.158 7.04-2.99 10.703-4.147.578 0 1.543-.386 2.22-.193-2.992 1.737-6.078 3.086-9.164 4.05zm-54.29 6.365c-1.255.386-2.798-.097-3.956.675-1.543-.192-2.988.675-4.242 1.157l-2.314 1.64c.867.097 4.244.386 5.207.58 1.253 1.252 3.472.674 5.015 1.06 7.135-.965 15.14.192 23.723-.193-1.254-1.543-2.508-1.93-3.184-2.604-1.35-1.35-5.11-2.797-7.617-3.857-4.34.578-8.97-.386-12.634 1.542zM1206.553 834.638c1.254.48 2.123-.193 3.086 0-.29.674-.772 1.253-.772 2.024-.385 1.06-1.736 1.254-2.506 2.025-.773.192-.87 1.253-1.736 1.832-2.025 1.253-3.857 2.603-5.883 4.05-3.953.964-7.52 3.664-12.15 4.145-3.568 1.64-8.197 1.544-12.15 1.64-2.412 1.93-6.27.193-9.162 1.254-1.444.19-2.313-.387-3.47-.387-3.953 1.06-7.52-.482-11.188-1.06-2.602-1.158-5.4-1.448-7.906-2.798-.77-.578-1.93-.386-2.7-.675-3.087-2.025-6.653-3.28-9.45-5.497-1.35-.29-1.736-1.93-3.086-2.218-.482-.675-1.447-1.254-.867-2.7-.87-.675-1.64-2.025 0-1.735.385-.29.578-.097.096.29 3.18 3.856 8.388 7.425 13.5 10.124 1.93 0 3.856 1.062 5.013 2.025 3.955 1.06 7.62 2.506 11.67 2.506 1.445 0 2.893.29 4.146-.096 2.507.29 4.82.964 7.425.29 2.506-.194 5.014-.483 7.424-.966 7.714-1.543 16.104-1.928 22.47-6.17 2.314-1.544 3.953-2.895 5.98-5.21-.29-.48 1.25-.385.962-1.06-5.98.29-13.404.482-18.803.868-2.413 1.06-5.21-.193-7.813.192-2.314.29-4.725-.29-7.135-.192-1.158 0-2.22-.193-3.28.192-1.735-.29-3.952.193-5.4-.77-.675-.58.868-.483 1.062-.87 1.543-.578 3.086-.77 4.822-.096 1.35.192 2.7-.675 3.953-.675 3.567 0 6.653.964 9.063.675 0-.29 1.158 0 2.12 0 .677-.193 1.353-.193 1.737-.097 2.12 0 3.473-.385 5.4-.096 3.473-.867 7.81 0 10.607-.77.87-.194.77-.098 1.64-.194 1.444.004 2.12-.478 3.276.198zM1204.914 815.544c-.965 2.122-3.28 2.314-4.918 3.472-2.22 1.157-4.63 2.314-7.137 2.604-.675.386-1.64.482-2.41.58-6.462 1.156-12.73 3.76-19.48 3.952-4.63.965-9.74.482-14.755.386-4.146 0-9.45-1.156-13.596-2.99-2.026-.48-4.245-1.253-5.692-2.506-2.12-.58-3.76-2.122-5.592-3.278-.387-.676-.867-1.35-.867-2.025 0-.098-.1-.194-.1-.194 1.93.482 3.763 1.93 5.69 3.086 1.543.868 2.412 2.025 4.05 2.41 2.798.58 5.015 2.508 7.91 2.315 5.302 1.35 11.087 1.253 17.452.867-.965-2.218.676-3.085-.096-4.436.096-.578.193-.964.385-1.35.29-.29.483-.58.868-.29l.482.482c-.19.58.193.965.482 1.254-.29 1.254 0 2.507-.19 4.05 4.724.482 7.905-.867 11.763-1.06 1.64-.772 4.146-.965 6.172-1.544 1.832-.578 4.05-.578 5.787-1.64 1.445.193 3.084-.29 4.242-1.735 2.508.097 4.436-1.736 7.328-2.314v-.48c.482-.193 1.447-1.254 2.604-.87-.095.482-.19.868-.384 1.254zM1192.57 796.934c3.762.964 6.46 4.146 10.223 5.304.578 1.06 1.832 1.64 2.41 2.7-.867.29-1.832-.58-2.604-.964-.677-.676-1.35-1.062-2.315-1.158-2.12-1.543-5.014-2.218-7.232-3.953-1.64-.58-4.05-.77-5.883-1.64-3.28-.193-6.557-.193-9.74.386-3.086.578-6.074 1.83-8.486 3.953-3.182 1.542-6.846 2.7-10.318 3.47-5.398 2.702-12.246 2.412-17.84.194-3.277 0-5.11-2.797-8.1-3.182-.867-.676-1.64-1.35-2.7-1.736-.58-.483-.29-1.255-.77-1.93 0-.192-.387.097-.193.193 1.35.096 2.797.675 3.953 1.253 5.11 3.954 11.957 4.147 18.13 5.497 4.34-.193 7.907-2.22 12.054-3.183 2.604-1.64 5.883-2.218 8.486-3.857 1.93-.192 3.473-2.41 5.496-1.93 4.34-1.542 9.45-1.542 13.598 0 .576.292 1.155.484 1.83.58zM1212.05 774.658c1.253 1.06 0 .964-.192 1.35-5.4 4.726-12.922 3.762-18.71 7.522-4.145 1.543-8.58 2.12-12.632 3.086-3.182.097-6.074 1.446-9.064.868-.965.77-2.41 0-3.47.386-6.944 0-10.9-1.35-16.298-2.508-1.832.193-3.762-.386-5.21-1.64-2.505.29-4.53-.48-6.362-1.446-4.436-1.64-8.873-3.375-12.055-6.46 0 .096-.578-.194-.29-.387.772-.482 1.64.385 2.41.77 4.534.386 7.427 3.665 11.478 4.63 1.832.964 3.857.964 5.592 1.64 7.426 1.928 12.344 3.567 20.156 3.663.096 0 .29-.675.29.097 6.65-.386 12.34-1.93 18.417-2.604 6.172-1.93 12.344-4.147 18.516-6.076 1.64-1.06 3.568-1.93 5.69-2.7.577 0 1.638-1.06 1.927-.674.097 0 .77 0-.192.482zM1207.13 740.424c.1.29.1.676 0 .965-.577.288-.962.384-1.733.577-.482.097-.965.097-1.447.097-1.736.386-2.797.578-4.63 1.157-.384.193-.577.387-.962.58-.482 0-.676-.098-1.158-.098-2.025-.096-4.725.676-5.207.482-4.822.868-4.146 1.254-9.645 1.543-3.953.192-6.846.58-10.51.965 0 1.93-1.254 3.76-1.543 5.496-.098.965-.193 1.446-.387 2.41-.385 1.254-1.156 1.833-.965 3.183 0 2.702.193.87-1.35 3.57-.19.288-.29.674-1.35 2.12 2.314-.192 3.086-.385 4.146-.578 1.446.965 4.05.097 6.364.193 6.074.29 11.86-.58 17.357-.29 5.112.193 10.126-.77 14.66-.29.095.29.095.676.095 1.062-.385 2.314-3.086.58-4.146 1.062-4.823.385-9.26.385-14.66.385-6.556.192-13.112-.386-19.767.096-4.533.387-8.486-.288-12.633.483-7.04-1.157-14.176 2.314-21.12.676-1.735-.098-3.472.577-5.206.095-.867-.482-3.955-.192-2.314-1.543 5.4-.578 10.992.097 16.49-.097 8.1-.385 3.182-.77 5.303-.964 2.797-.29 4.436-.192 7.33-.192 2.604 0 4.05.29 6.846 0 .58-1.35.964-2.12 1.542-3.278 1.254-2.41.387.964.965-3.568.193-1.446.29-1.832.29-3.278 0-1.254.577-1.832.866-3.086.29-.868.193-1.832.387-3.472-1.254 0-1.64.097-2.22.097-2.024-.58-4.82 1.446-6.65-.29-2.315-.192-3.57-.385-5.5.387-1.35-.097-2.796-.29-4.53-.482-.387-.193-.965.29-1.352.29-1.543.867-2.506-1.64-3.953-.483-.674 0-1.35.676-2.025-.29-3.182.87-5.69.58-8.39-1.156-.868.385-1.253-.193-1.64-.676-.096-.097-.19-.29-.096-.482.29-.77.77.386.965.29 0 0 .577.48 1.155-.097.578-.482 1.06.77 1.64.48 3.665.87 7.618.87 11.38.388 3.664.867 9.064 0 12.535.867.87-.097 1.64-.77 2.99 0 1.156-1.254 2.604-.29 3.47-.867 4.44-.097 8.97-.482 13.405-.58 4.34 0 2.895-.674 6.172-1.156.676.193 1.736-.29 2.22.097 1.253-.193 2.41-.193 3.663-.386 2.604-.386 6.172-.58 8.486-1.157.385.193.867-.096 1.543-.867-.388-.868.673-.386.673-.58 1.064-.387 2.51.577 4.148.19zM1204.432 729.046c.29.096.482.193.676.386-.87 2.218-3.473.965-5.498 1.543-1.734.29-3.375 0-5.11.096-4.726.1-9.45-.095-13.983 0-2.41 0-5.592.194-8.1-.095-1.64-.193-3.664 0-5.305.096-3.953.388-7.713 0-11.86.29-.192-.19-.386-.19-.58-.19-1.735.866-3.663.095-5.302.384-3.955.193-7.715.58-11.572.58-2.7-1.158-5.496.577-8.293-.098-.387-.097.578-1.156.867-1.156 4.244-2.894 9.16 1.156 13.887-.193 5.593-1.544 11.86-.965 17.356-1.254 5.496-.29 10.705.192 16.297 0 1.543-.192 3.086-.192 4.727-.192.385 0 .867.097 1.252.097 4.244-.096 8.486-.096 12.248-.675 2.89.77 5.3.288 8.292.384zM1138.762 712.653c1.445.193 2.41 1.64 4.05 1.64 3.085 1.543 5.978 2.314 9.74 2.507.577.29 1.542.386 2.216.58 2.123.192 4.05 1.156 6.076 1.156 1.254.386 2.99-.29 4.146 1.254 1.543-.386 2.7-.77 3.664-1.254.387-.77 1.447-1.736 1.352-2.797.674-1.062.096-1.93.578-3.28.578-1.83.578-2.893 1.543-4.82.482-.386.965-.77 1.543-.676.385.965 0 2.122 0 3.28-1.254 2.506-1.06 3.856-1.93 7.136.77.48.482.867.77 1.06 2.413.387 5.017.097 7.042-.385 1.254.192 2.314-.29 4.242-.29.385-1.157 1.254-.29 1.832-.58 3.473-.287 6.56-2.216 10.125-2.41 1.544-1.35 4.147-1.156 5.69-2.313 1.832.192 2.797-2.218 5.11-1.64 1.16-.867 2.22-1.93 3.667-1.93.385.29.77.58 1.156.966-.193 1.446-1.832 1.543-2.893 2.314-1.64.192-3.184.578-4.34 1.64-2.12-.097-3.375 1.735-5.4 1.64-.77.48-1.543.578-2.12.964-.772-.097-1.448.192-2.026.482-4.436 0-7.908 2.893-12.344 2.604-.578.386-1.64.386-2.22.482-4.724 1.64-10.22 1.35-15.042 1.254-2.217-.58-4.918 0-6.846-.965-5.98-1.062-11.766-3.473-17.455-5.015-2.7-1.06-5.207-2.7-7.715-4.05-2.797-1.543-6.074-2.604-8.1-5.4 0-.193 0-.482.193-.578 4.34 2.795 8.874 5.302 13.697 7.423zM1199.996 676.01c-1.158.867-2.7 1.446-3.857 2.41-4.726 1.35-9.837 2.604-14.948 2.604-3.664.58-7.426 1.35-10.994 2.22-1.928-.194-4.146-.58-6.363-.098-.29.77-.29 1.06-1.447 1.35 1.06 2.797 3.28 4.726 4.34 6.75.578.29 1.156 1.062.965 1.736-.387 1.157.19 1.157.867 1.832.867 0 1.64.097 2.41.482 2.025-.675 3.568-.675 5.207-.097 1.834 1.06 3.377.288 5.4 0 3.857-.58 7.523-1.447 11.477-1.64 3.086-.097 6.172-.097 9.45-.097.29.096.58.192.48.482 0 .288-.384.578-.673.675-4.82.29-9.45.482-13.692 1.832-3.184-.096-5.787.868-8.775.578-7.137-.674-14.658 0-21.408.868-2.99-.675-5.305.58-8.197.386-7.52-.58-15.332-.58-21.986-2.797-.965-.29-.482-1.06-.965-1.735.096-.29.578 0 .77-.097 2.315.482 4.34 1.543 6.655 1.447l.193.192c3.953-.192 7.617 1.062 11.09.867 2.604 1.448 5.496-.385 8.293.098 3.568.58 6.557-.675 10.03-1.156.48-.387 1.155-.772 1.83-1.544-1.157-3.086-4.726-5.015-5.11-7.52.482 0-.676-.772-.193-2.315-2.988-.867-5.4.29-7.617-.77-1.834-.483-3.666.48-5.594-.58-2.604 1.254-4.918.097-7.426.29-1.445-1.254-2.025 1.253-3.76.097-1.64.482-3.857.77-5.21 0 .1-.386.1-.676 0-1.06 1.448-.87 3.474.288 4.92-.87 2.122-.192 3.665.965 5.786.58 6.172-1.158 13.018.192 19.287-.193 4.34-.193 9.065.482 13.212-.965 6.557-1.06 13.404-1.93 19.576-3.182 1.543-.965 3.375-2.025 5.303-1.93.29.29.578.484.676.87zM1122.174 648.333c.193 1.64.87 2.796 1.158 4.532-.578 2.604-.098 4.918.867 8.1 1.35-.674 2.313-.48 2.796-.29 1.832-.19 4.146.29 5.98.194 1.735-.387 3.856-.58 5.593-.58 2.698-1.35 6.073-1.735 8.774-2.313 1.543.386 3.375 0 4.822.192 6.557 0 13.307-1.64 19.48-2.508 1.155.096 2.892-.193 3.952.096.193-.096.676-.096.77-.192 4.823-.193 8.68-.29 13.503-.29 2.218 0 4.147.387 6.17.482h-.095c-2.508 1.832-5.98 1.157-8.678 1.736-3.955-.965-8.102 1.06-12.344-.58-2.508 2.605-5.498.58-8.102 1.448-2.41-.29-5.302-.193-7.327 1.06-.965-.096-1.832.29-3.182-.192-2.313 1.35-5.208.676-7.618.676-3.953-.868-7.137 1.735-10.896 1.253-2.7 1.35-5.787 1.156-8.873 1.156-.963-1.06-2.506-.097-4.436-2.218-.674 4.243-.29 6.75-.482 9.354.482 2.025-.29 4.244 0 6.462-.096.096-.096.192-.19.29-.772-.098-.966-.966-1.255-1.544.578-1.93.482-3.857 0-5.786-.387-.482 0-1.35.096-2.314-1.06-1.446-.193-3.568-.965-4.918.483-1.543-.19-3.183-.095-4.726-.867-1.543.29-3.568-.578-5.11 0-1.35-1.832-2.7-.29-3.76.097-.098.29-.194.483-.29.386.095.868.192.964.577zM1204.432 611.496c.29.097.482.192.676.386-.87 2.218-3.473.965-5.498 1.543-1.734.29-3.375 0-5.11.097-4.726.096-9.45-.097-13.983 0-2.41 0-5.592.192-8.1-.097-1.64-.192-3.664 0-5.305.097-3.953.385-7.713 0-11.86.29-.192-.194-.386-.194-.58-.194-1.735.868-3.663.097-5.302.386-3.955.193-7.715.58-11.572.58-2.7-1.158-5.496.578-8.293-.098-.387-.097.578-1.157.867-1.157 4.244-2.894 9.16 1.156 13.887-.193 5.593-1.543 11.86-.965 17.356-1.254s10.705.192 16.297 0c1.543-.193 3.086-.193 4.727-.193.385 0 .867.097 1.252.097 4.244-.097 8.486-.097 12.248-.675 2.89.77 5.3.287 8.292.384zM1141.46 584.11c1.062 0 2.605-.097 3.76-.193 2.8-1.735 7.138 0 10.417.386 2.025-1.157 5.4-.48 7.52-.675 3.087-.77 7.138.193 10.706.193 6.268 0 13.5-.192 19.768-.48.966-.098 1.93-.677 2.798-.29.096.096.193-.097.29-.097-2.218 1.446-4.92 1.543-7.138 2.507-3.182 2.797-6.846 4.243-10.22 6.365-4.052 1.832-8.198 3.182-11.862 5.98-1.158.577-2.22 1.253-3.375 1.83l-2.797 1.352 3.182.192c7.52.48 14.562-1.352 22.277-.29 3.086 0 5.98-1.254 8.967-.676.77-.096 1.736 0 2.412 0-.098.193 0 .58-.098.676-.77 0-1.445.192-2.12.675-.772.386-1.737.386-2.605.578-2.603.29-5.206-.096-7.81.482-7.04.193-13.887-.675-20.734.097-3.182-.58-6.363 1.06-9.45.193-2.024.48-4.628-.58-6.17.578-4.63-.482-9.163-1.254-13.983-1.254-1.06-.387-2.7 0-3.184-1.158-.097-.096.58-1.06.58-.578 5.206-1.35 9.642 1.735 15.62 1.06 3.086-.385 6.268 0 9.547-.964.965-1.35 2.412-1.253 3.473-2.12 1.928-.29 3.857-.772 5.11-2.123 4.92-2.41 9.933-3.278 13.886-6.846 1.158-.48 2.314-1.06 3.568-2.12 0-.29 2.797-1.544 2.797-1.833-.095-.192-2.99.482-2.99.097-3.76 0-7.23-.676-10.22.386-5.4-1.35-10.994-1.447-16.78-.193-4.145-.48-8.39-1.06-12.438-.29-3.377-1.445-7.137 1.544-10.223-1.156-.29-.867-1.833-.577-1.737-1.64 3.28-.58 6.076 1.253 9.258 1.35zM1172.705 531.747c3.762.29 7.62 1.157 11.668 1.64 4.918.58 10.03 1.157 14.658 3.472 2.41 2.41 5.4 3.663 7.33 6.846.29 1.735 1.542 1.446.964 3.568.098.29-.193 0-.193-.387-2.216.097-1.155-.48-2.794-2.7-2.508.772-4.34-.385-6.172.387-7.715-.482-14.37 0-21.89.77-1.833.868-4.147.868-6.27.58-1.35-.483-2.796.48-4.435.192-5.017-.29-10.61-.29-15.528.386-3.664-.193-7.232 0-10.992.385-1.447-.29-3.086-.77-5.11-.192-.58 1.35-1.255 1.062-.772 2.218-.193.193-.387.482-.676.676-.29-.098-.578 0-.867-.29.385-2.797 2.217-4.34 3.953-6.462 3.375-3.086 7.715-4.532 11.38-7.52 2.41-1.544 4.917-1.737 7.52-2.798 3.28-.48 6.943-.29 10.127-.964 2.7.673 5.303.48 8.1.19zm-15.236 2.41c-3.76-.19-6.366 1.544-9.933 2.605-.193.192-1.062 1.06-1.543 1.35-2.7 1.93-5.883 2.797-8.777 6.654 3.473-.29 5.21.965 6.848.29 2.41.29 4.533-.965 6.943-1.062 3.47 1.06 7.232.193 10.8.675 3.28.385 6.847-.387 10.222-.58 5.98-2.313 12.924-.674 19.096-1.35 2.988 0 6.46-.48 11.186.097-1.832-3.857-5.11-4.532-7.33-5.786-5.69-1.542-11.38-2.506-17.26-3.084-1.158-.193-2.604.29-3.666-.387-5.304.288-11.67-1.543-16.587.578zM1138.762 516.22c1.445.194 2.41 1.64 4.05 1.64 3.085 1.544 5.978 2.315 9.74 2.508.577.29 1.542.386 2.216.58 2.123.192 4.05 1.156 6.076 1.156 1.254.386 2.99-.29 4.146 1.254 1.543-.386 2.7-.77 3.664-1.254.387-.77 1.447-1.736 1.352-2.797.674-1.06.096-1.928.578-3.278.578-1.833.578-2.895 1.543-4.822.482-.387.965-.77 1.543-.676.385.965 0 2.122 0 3.28-1.254 2.506-1.06 3.856-1.93 7.135.77.482.482.868.77 1.06 2.413.387 5.017.098 7.042-.385 1.254.193 2.314-.29 4.242-.29.385-1.156 1.254-.288 1.832-.578 3.473-.29 6.56-2.218 10.125-2.41 1.544-1.35 4.147-1.157 5.69-2.314 1.832.192 2.797-2.218 5.11-1.64 1.16-.867 2.22-1.93 3.667-1.93.385.29.77.58 1.156.966-.193 1.446-1.832 1.543-2.893 2.314-1.64.192-3.184.578-4.34 1.64-2.12-.097-3.375 1.735-5.4 1.64-.77.48-1.543.578-2.12.964-.772-.097-1.448.192-2.026.48-4.436 0-7.908 2.895-12.344 2.605-.578.385-1.64.385-2.22.48-4.724 1.64-10.22 1.35-15.042 1.254-2.217-.58-4.918 0-6.846-.964-5.98-1.062-11.766-3.473-17.455-5.015-2.7-1.06-5.207-2.7-7.715-4.05-2.797-1.544-6.074-2.605-8.1-5.4 0-.193 0-.483.193-.58 4.34 2.798 8.874 5.305 13.697 7.426zM1200.574 476.974c.193.482 1.736.482 1.156 1.254-2.7 1.833-6.363-.193-9.256 1.35-9.74 2.99-20.06.772-29.992 2.12-5.785.773-11.186.773-16.875 1.93l-3.28-.096-.095.386 3.28 1.447c3.76.77 8.58.867 12.15 1.735 3.374.867 6.267.965 9.546 1.93 3.568.674 7.04.288 11.09.384.29.193.77.098.965.387-5.11 2.122-11.38.676-16.684 2.22-1.448 1.252-3.858.867-5.595 1.64-6.172 0-12.055 2.12-17.84 2.41-.674.578-1.832.675-2.797 1.06 0 .387-2.604.965-2.508 1.157.098.29 3.086.193 3.184.676 9.547 1.446 18.225 0 27 1.06 5.4-2.024 10.994 1.158 16.2-.577 6.173-2.026 13.116.29 18.612-1.833 1.64 0 3.375-.867 4.822 0 1.736.097 4.63-1.64 5.98.193 0 .192.192.096.288.192-1.35.868-3.47.193-4.725.386-7.327 1.832-15.042 2.314-22.66 3.472-3.087 0-6.173.482-9.065-.386-3.76.097-7.617.386-11.572-.29-9.16-.288-17.55 1.544-26.133-.964-3.182-.964-6.268 0-9.064-.675 0-.577-2.12.483-1.64-.384.58-.29.964-1.255 2.024-1.447 4.34-2.41 10.03-1.737 14.852-3.473 5.883-1.06 12.535-1.735 18.61-3.183l3.183-.77v-.388l-3.182-.578c-3.953-.675-7.715-1.253-11.668-1.735-4.822-2.218-10.512-2.026-15.334-4.146-.288-.29-.77-.482-1.155-.676.77-1.156 3.086-.096 4.242-.19 4.05-2.123 8.582-.483 13.02-1.64 10.125-1.062 17.646-.483 27.58-1.35 2.314-.677 5.883-.677 8.486-1.063 4.627-.675 9.547 1.157 13.018-1.735.678-.483 1.256-.29 1.834.192zM1204.914 432.52c-.965 2.12-3.28 2.313-4.918 3.47-2.22 1.158-4.63 2.314-7.137 2.605-.675.386-1.64.482-2.41.578-6.462 1.158-12.73 3.762-19.48 3.954-4.63.964-9.74.482-14.755.386-4.146 0-9.45-1.157-13.596-2.99-2.026-.48-4.245-1.253-5.692-2.507-2.12-.578-3.76-2.12-5.592-3.278-.387-.675-.867-1.35-.867-2.025 0-.096-.1-.192-.1-.192 1.93.482 3.763 1.93 5.69 3.087 1.543.868 2.412 2.025 4.05 2.41 2.798.58 5.015 2.508 7.91 2.315 5.302 1.35 11.087 1.253 17.452.867-.965-2.22.676-3.087-.096-4.437.096-.58.193-.965.385-1.35.29-.29.483-.58.868-.29l.482.482c-.19.578.193.964.482 1.253-.29 1.254 0 2.508-.19 4.05 4.724.483 7.905-.867 11.763-1.06 1.64-.77 4.146-.964 6.172-1.544 1.832-.578 4.05-.578 5.787-1.64 1.445.193 3.084-.29 4.242-1.735 2.508.097 4.436-1.736 7.328-2.314v-.482c.482-.193 1.447-1.254 2.604-.868-.095.482-.19.867-.384 1.253zM1204.432 419.597c.29.097.482.193.676.387-.87 2.218-3.473.964-5.498 1.542-1.734.29-3.375 0-5.11.097-4.726.097-9.45-.097-13.983 0-2.41 0-5.592.193-8.1-.097-1.64-.192-3.664 0-5.305.097-3.953.386-7.713 0-11.86.29-.192-.193-.386-.193-.58-.193-1.735.868-3.663.097-5.302.386-3.955.193-7.715.58-11.572.58-2.7-1.16-5.496.577-8.293-.098-.387-.097.578-1.157.867-1.157 4.244-2.893 9.16 1.158 13.887-.19 5.593-1.545 11.86-.966 17.356-1.255 5.496-.29 10.705.192 16.297 0 1.543-.193 3.086-.193 4.727-.193.385 0 .867.097 1.252.097 4.244-.098 8.486-.098 12.248-.677 2.89.77 5.3.288 8.292.384zM1207.613 381.7c-7.617 3.376-14.176 7.812-20.828 12.247-.58.29-.77 1.062-2.025 1.062-3.086 3.085-6.943 3.374-9.74 6.17-2.508 1.255-5.303 2.7-8.197 4.92.387.288 1.06.577 1.35.77 2.025.964 4.05.192 5.883.29 5.787.19 11.09-.772 16.2-.87 4.92 0 9.452-1.156 13.792-.674.096.193.096.482.096.868-.29 2.218-2.797.675-3.857 1.06-4.63.58-8.68.676-13.693.87-6.172.385-12.248.096-18.42.77-4.146.386-7.906 0-11.86.868-6.558-.772-13.212 2.604-19.77 1.253-1.542 0-3.085.77-4.724.386-.676-.48-3.762.098-2.22-1.35 5.017-.77 10.224 0 15.333-.675 7.715-.29 15.912-.77 21.602-5.69.965-.288 1.736-.963 2.41-1.445 2.412-1.446 5.016-2.507 7.04-4.63 2.026-.674 3.858-1.83 5.497-2.988 2.893-2.893 6.75-3.953 9.934-6.172 0-.386.29-.29.48-.386.87-.386 1.543-1.157 2.605-1.93 0-.385 2.796-.963 2.7-1.252s-3.28-.193-3.568-.386c-4.436.964-9.932 1.35-15.043 1.832-5.497.482-9.163 1.543-14.37 1.64-1.832-.387-4.436 1.446-6.268-.097-2.025 0-3.184-.096-4.822.483-1.445 0-2.893-.193-4.63-.193-.384-.097-.77.29-1.155.29-1.64 1.06-2.508-1.447-3.762-.29-.578.193-1.156.675-1.734-.193-3.087.868-5.5.387-8.103-1.06-.867.385-1.156-.097-1.543-.386v-.29c.29-.674.867.29.867.194 0 0 .58.48 1.16-.097.386-.58 1.253.675 1.446.386 3.277.77 7.135.578 10.8.097 3.376.578 8.485-.386 11.67.29.673-.098 1.542-.676 2.698-.29 1.06-.965 2.508-.097 3.28-.676 4.048-.29 8.388-.964 12.534-.964 3.955-.386 8.295-.77 11.477-1.254.676.193 1.445-.386 2.12.097 1.64-.386 2.315-.386 3.57-.58 2.507-.48 5.688-.866 7.905-1.35.387 0 .87-.29 1.447-.963-.482-.868.578-.482.676-.482.867-.386 2.314.386 3.76-.097 0 .292.098.582 0 .87zM1138.762 365.79c1.445.194 2.41 1.64 4.05 1.64 3.085 1.543 5.978 2.314 9.74 2.507.577.29 1.542.386 2.216.58 2.123.192 4.05 1.156 6.076 1.156 1.254.386 2.99-.29 4.146 1.254 1.543-.386 2.7-.77 3.664-1.254.387-.77 1.447-1.736 1.352-2.797.674-1.06.096-1.928.578-3.28.578-1.83.578-2.892 1.543-4.82.482-.386.965-.77 1.543-.675.385.966 0 2.123 0 3.28-1.254 2.507-1.06 3.857-1.93 7.136.77.482.482.868.77 1.06 2.413.387 5.017.098 7.042-.384 1.254.192 2.314-.29 4.242-.29.385-1.157 1.254-.29 1.832-.58 3.473-.288 6.56-2.217 10.125-2.408 1.544-1.352 4.147-1.158 5.69-2.316 1.832.193 2.797-2.217 5.11-1.64 1.16-.866 2.22-1.928 3.667-1.928.385.29.77.58 1.156.965-.193 1.446-1.832 1.543-2.893 2.314-1.64.192-3.184.577-4.34 1.64-2.12-.098-3.375 1.734-5.4 1.638-.77.482-1.543.58-2.12.965-.772-.097-1.448.192-2.026.48-4.436 0-7.908 2.895-12.344 2.605-.578.386-1.64.386-2.22.48-4.724 1.64-10.22 1.352-15.042 1.255-2.217-.58-4.918 0-6.846-.964-5.98-1.063-11.766-3.474-17.455-5.017-2.7-1.06-5.207-2.7-7.715-4.05-2.797-1.543-6.074-2.604-8.1-5.4 0-.192 0-.482.193-.578 4.34 2.797 8.874 5.302 13.697 7.425zM1141.46 332.33c1.062 0 2.605-.098 3.76-.193 2.8-1.736 7.138 0 10.417.386 2.025-1.158 5.4-.482 7.52-.676 3.087-.77 7.138.193 10.706.193 6.268 0 13.5-.193 19.768-.482.966-.097 1.93-.675 2.798-.29.096.097.193-.096.29-.096-2.218 1.446-4.92 1.543-7.138 2.507-3.182 2.796-6.846 4.242-10.22 6.364-4.052 1.832-8.198 3.182-11.862 5.978-1.158.58-2.22 1.255-3.375 1.833l-2.797 1.35 3.182.193c7.52.48 14.562-1.35 22.277-.29 3.086 0 5.98-1.253 8.967-.675.77-.096 1.736 0 2.412 0-.098.193 0 .58-.098.676-.77 0-1.445.19-2.12.674-.772.386-1.737.386-2.605.578-2.603.29-5.206-.096-7.81.482-7.04.193-13.887-.675-20.734.097-3.182-.578-6.363 1.063-9.45.194-2.024.482-4.628-.58-6.17.578-4.63-.482-9.163-1.254-13.983-1.254-1.06-.385-2.7 0-3.184-1.157-.097-.095.58-1.06.58-.577 5.206-1.35 9.642 1.735 15.62 1.06 3.086-.385 6.268 0 9.547-.963.965-1.35 2.412-1.254 3.473-2.122 1.928-.29 3.857-.77 5.11-2.122 4.92-2.41 9.933-3.278 13.886-6.846 1.158-.482 2.314-1.06 3.568-2.122 0-.29 2.797-1.543 2.797-1.832-.095-.193-2.99.482-2.99.097-3.76 0-7.23-.676-10.22.386-5.4-1.352-10.994-1.447-16.78-.194-4.145-.482-8.39-1.06-12.438-.29-3.377-1.445-7.137 1.544-10.223-1.156-.29-.868-1.833-.578-1.737-1.64 3.28-.58 6.076 1.252 9.258 1.35zM1129.793 272.155c5.69.29 11.09 2.314 16.682 4.05 3.857.58 8.102.868 11.572 2.41 3.955.387 7.33 1.255 11.38 1.447 2.122.097 4.34-.386 5.98.77 4.53.966 9.063 1.834 13.306 3.377 4.436 2.312 10.03 1.638 14.37 4.724l-.29-.386c-7.137 1.93-14.176 3.857-21.506 4.726-4.63-1.157-8.967.964-13.693.58-8.195 1.54-16.2 1.83-24.3 2.698-1.93-.77-4.147.193-6.173.578-1.155.193-2.698.098-3.663-.578.29-1.93 3.182-.578 4.34-1.06 5.69.577 10.992-2.026 16.49-1.544 2.795-.096 5.303-.096 8.293-.578.385-.482.77-.482 1.06-.58 5.786-.48 12.247-.866 17.745-1.253 4.05-1.64 8.39-2.314 12.922-2.796l.096-1.35c-8.39-2.796-17.068-5.015-25.94-6.075-4.437.192-8.196-.868-12.15-1.446-5.98-2.798-13.5-1.447-19.19-4.727-3.664 0-7.328-2.024-10.8-2.507-.097 0 .29-.482.675-.77.963-.097 1.83.77 2.795.29zM1207.422 235.897c2.41.29 4.05-.29 4.63.867 0 .097-.1.29-.1.386-3.567 2.025-8.196 1.158-12.343 2.315-7.33 1.06-14.85 1.64-21.6 3.375-1.544 2.12-3.28 5.014-2.22 7.81.096.098-.29 0-.674.676.674.965-.387 1.35-.387 2.122-.388 1.832-.194 4.146-.966 7.33 5.594 1.252 10.896 1.156 15.525 2.41 3.376.964 8.1-.58 11.476 1.156 1.254 0 2.797-.192 3.664.868.193.482-.676.482-1.06.482-3.954-.676-6.944-.386-10.704-.868-4.438-1.93-11.188-.29-16.01-2.218-1.734 0-4.436.48-5.785-.482-4.532-1.06-9.933.29-14.175-1.736-7.908.29-14.465-2.988-22.564-2.988-.386-.387-.386-1.06-1.253-1.158-2.314-.77-5.305.676-6.75-1.253.578-1.06 2.12-.577 3.277-1.445 9.74-2.122 18.71-6.364 28.64-8.197 2.798-1.35 6.27-1.736 9.356-2.99 1.06-.096 2.12-.288 3.084.098 1.93-.58 4.05-1.254 6.172-1.254 4.533-.097 8.584-2.218 13.31-1.833 1.446-.868 3.663-.193 5.206-.676 2.99-.29 6.076-1.06 8.873-1.832.578-.29.867-.48.963-.675.87-.386.965-.386 1.64-.29.002.096.774-.193.774 0zm-36.453 7.81c-4.82 2.123-10.415 2.123-15.43 3.57-5.882 1.638-11.378 4.917-18.032 6.17 0 1.64.674 2.22 1.832 2.315 2.7.964 5.207 2.025 8.293 2.41 5.69.77 12.344.29 17.744 1.64 1.445 0 3.566 0 5.496.578.965-1.157 1.06-2.313 1.928-2.893 0-1.156.292-2.024.388-2.893.193-1.447.193-2.797.482-3.857.482-1.833.77-2.507.965-4.05 2.603-4.532-1.93-2.893-3.666-2.99zM1199.514 214.2c-.29 2.024.096 3.76.77 5.4-.095.48-.48.963-.77 1.06-1.254 1.832 1.158 5.11-2.025 6.075-1.062.29-2.218-.192-3.087.58-3.375 1.252-4.436.288-7.715.578-2.893.192-6.363-1.255-9.16 0-1.543 0-2.797-.58-4.146-.772-3.664 1.352-7.81-.673-11.668.29-2.797.193-5.016-.963-7.812.29-.578.097-1.06.097-1.543.29-5.69 0-11.573-.58-17.165.096-2.797 0-5.498-.097-8.004-1.447-.48-.387.097-.965.58-1.157.675 0 1.638-.193 2.7.675 2.023-.868 3.855.096 5.592-.29 1.447.386 3.086.482 4.63.098 3.278-1.93 6.75.288 10.124.192 3.28-.097 6.56-1.35 9.934-.965 3.47.482 7.52.772 11.09.387 1.156-.387 2.506.192 3.568-.193 1.06.193 2.506.097 3.47.77 1.35-.19 2.99-.48 4.34-.867.772.386 1.93.29 2.605.482 3.664.29 4.436.77 7.81-.386 2.22.77 1.35-1.543 3.28-2.025 1.254-.48.578-1.06.578-1.734-.288-1.543 1.255-2.7.58-4.05-.483-1.254-.097-2.894-1.062-4.244-.096-.385-.096-.867.387-.867 1.25-.29 1.443.963 2.12 1.734zM1175.02 183.726c3.568-.29 6.268 1.157 9.547 1.93.676.578 1.35.578 1.35.48.193.098 1.447.386 2.508.965l.29.1c1.446.77 1.542.673 2.603.77 1.736 1.158 3.955 1.35 5.4 2.41 2.893 2.123 7.137 4.147 9.74 7.232 1.832 2.315 3.664 3.568 5.303 5.884.1.578.483 1.157.1 1.83-.772 0-.29.677-1.448-1.06l-.19-.386c-1.063.29-1.93.772-2.606.965-1.64 0-4.146 0-5.883.192-1.06-.29-2.795.387-3.76 0-4.822.29-11.09.482-16.395.098-1.252.578-2.988.19-4.146.096-5.014-.288-9.547-1.832-14.078-1.35-3.086-.096-6.75.868-10.03-.385-2.313.29-5.978-.29-7.81-.193-.098 0-.193.193-.29.29-4.726-.58-10.8.192-15.333-.29-.48-.193-.866-.868-.192-.965 9.258-.77 20.926-.868 30.666-.096 2.22-.192 5.594.29 7.908-.096l.29.29c3.567 0 6.46.674 10.124 1.06.387-.288.77-.097 1.06.097 5.4.29 13.02-.48 18.228-.095 2.893-1.35 5.98.77 8.775-.676.288-.483.288.964 2.218-.387-.58-.192-1.158-1.156-.87-1.156-.77-1.544-2.987-1.35-4.048-4.436-.58.58-.387-.29-.87-.29 0 0-.48-.29-.673-.386-.098-.096-.482-.192-.482-.964-.965 0-1.158-.288-1.447-.097-.965-.386-.965-1.735-2.12-1.735-.483-.193-1.16-.385-1.448-.77-1.156-.29-1.64-1.447-2.7-1.64-1.542-1.063-3.856-.868-5.11-1.736-1.06 0-1.158-.868-2.41-.965-3.375-1.832-7.812-1.832-11.38-2.604-5.208 0-9.933-1.062-15.235 0-1.736 0-3.28.676-4.822.965-.87.58-1.93.385-2.797.867-7.137 2.22-14.37 5.11-20.54 10.03-2.507 1.254-3.76 3.856-6.364 5.11-.578.386-.193-.482 0-.772 1.928-2.604 4.53-5.4 7.232-7.425 2.604-1.93 6.074-3.375 8.97-5.112 2.603-1.156 5.397-1.93 7.616-2.893 2.797-.192 3.375-1.93 6.268-1.64.58-.096 1.06-.48 2.123-.385.48-.386.868-.193 1.544-.482.867 0 1.832 0 2.893-.29 3.85-.19 8.672-.767 12.723.1zM1195.174 162.994c-3.47 2.507-7.906 2.12-11.09 4.822-1.254.385-2.604 1.06-3.664 1.735-2.99-.096-6.076 1.833-10.125 3.665 2.604 1.06 4.53.77 5.88.386 5.692 0 10.706-.963 16.685-.096 1.64 0 3.664-.482 5.11.193 2.798.097 6.077-.676 8.487.675l.193.193c-2.025.578-4.63.385-6.654.29-1.736-.483-3.568.192-5.496.192-3.762.096-7.715-1.254-11.09.385-3.086.386-5.98-1.06-8.97 0-2.7.868-5.4-.482-7.907.77-4.63-.77-10.607.098-15.62-.77-5.692 0-11.478.386-17.07-.578-3.085-.097-4.34-.675-7.23-1.254-.1 0 .48-.675.48-.868 3.085-1.832 4.145-2.41 7.425-3.664 4.533-1.833 9.354-1.446 13.887-2.7 6.363.097 12.633.965 17.262 7.04 8.486-5.11 17.55-5.69 25.748-10.126 3.664-1.157 7.04-2.99 10.703-4.146.578 0 1.543-.386 2.22-.193-2.992 1.736-6.078 3.087-9.164 4.05zm-54.29 6.364c-1.255.386-2.798-.096-3.956.676-1.543-.193-2.988.675-4.242 1.157l-2.314 1.64c.867.097 4.244.386 5.207.58 1.253 1.252 3.472.674 5.015 1.06 7.135-.965 15.14.192 23.723-.193-1.254-1.543-2.508-1.93-3.184-2.604-1.35-1.35-5.11-2.797-7.617-3.856-4.34.577-8.97-.388-12.634 1.54zM1207.422 123.938c2.41.29 4.05-.29 4.63.868 0 .097-.1.29-.1.386-3.567 2.025-8.196 1.157-12.343 2.314-7.33 1.06-14.85 1.64-21.6 3.375-1.544 2.123-3.28 5.015-2.22 7.813.096.096-.29 0-.674.675.674.964-.387 1.35-.387 2.12-.388 1.833-.194 4.147-.966 7.33 5.594 1.254 10.896 1.157 15.525 2.41 3.376.965 8.1-.578 11.476 1.158 1.254 0 2.797-.193 3.664.867.193.482-.676.482-1.06.482-3.954-.675-6.944-.386-10.704-.868-4.438-1.93-11.188-.29-16.01-2.218-1.734 0-4.436.48-5.785-.483-4.532-1.06-9.933.29-14.175-1.736-7.908.29-14.465-2.987-22.564-2.987-.386-.387-.386-1.06-1.253-1.157-2.314-.77-5.305.675-6.75-1.254.578-1.06 2.12-.578 3.277-1.446 9.74-2.122 18.71-6.364 28.64-8.196 2.798-1.35 6.27-1.736 9.356-2.99 1.06-.097 2.12-.29 3.084.097 1.93-.58 4.05-1.254 6.172-1.254 4.533-.096 8.584-2.218 13.31-1.832 1.446-.867 3.663-.19 5.206-.674 2.99-.29 6.076-1.06 8.873-1.832.578-.29.867-.482.963-.675.87-.388.965-.388 1.64-.29.002.095.774-.194.774-.002zm-36.453 7.812c-4.82 2.122-10.415 2.122-15.43 3.568-5.882 1.64-11.378 4.917-18.032 6.17 0 1.64.674 2.22 1.832 2.315 2.7.965 5.207 2.025 8.293 2.41 5.69.772 12.344.29 17.744 1.64 1.445 0 3.566 0 5.496.578.965-1.155 1.06-2.312 1.928-2.892 0-1.156.292-2.024.388-2.894.193-1.446.193-2.796.482-3.856.482-1.832.77-2.507.965-4.05 2.603-4.532-1.93-2.893-3.666-2.988zM1172.705 99.444c3.762.29 7.62 1.157 11.668 1.64 4.918.578 10.03 1.156 14.658 3.472 2.41 2.41 5.4 3.664 7.33 6.846.29 1.736 1.542 1.447.964 3.568.098.29-.193 0-.193-.386-2.216.096-1.155-.482-2.794-2.7-2.508.77-4.34-.386-6.172.386-7.715-.482-14.37 0-21.89.77-1.833.87-4.147.87-6.27.58-1.35-.482-2.796.48-4.435.192-5.017-.29-10.61-.29-15.528.386-3.664-.192-7.232 0-10.992.386-1.447-.29-3.086-.77-5.11-.192-.58 1.35-1.255 1.06-.772 2.217-.193.192-.387.48-.676.675-.29-.097-.578 0-.867-.29.385-2.796 2.217-4.34 3.953-6.46 3.375-3.087 7.715-4.533 11.38-7.52 2.41-1.545 4.917-1.737 7.52-2.798 3.28-.482 6.943-.29 10.127-.965 2.7.673 5.303.48 8.1.192zm-15.236 2.41c-3.76-.192-6.366 1.543-9.933 2.604-.193.192-1.062 1.06-1.543 1.35-2.7 1.93-5.883 2.797-8.777 6.654 3.473-.29 5.21.964 6.848.288 2.41.29 4.533-.964 6.943-1.06 3.47 1.06 7.232.192 10.8.675 3.28.385 6.847-.386 10.222-.58 5.98-2.313 12.924-.674 19.096-1.35 2.988 0 6.46-.48 11.186.098-1.832-3.857-5.11-4.533-7.33-5.786-5.69-1.543-11.38-2.508-17.26-3.086-1.158-.192-2.604.29-3.666-.385-5.304.29-11.67-1.542-16.587.58zM1200.863 68.97c.77.387 1.543 0 2.41.194.676 0 1.158.192 1.736.578.097.482-.48.868-.772 1.35-.674.87-1.445-.48-1.64-.48-.192-.387-1.157.48-2.12-.966-1.93.58-3.664.58-5.016.193-2.7.288-5.69-.483-8.293.577-1.062.097-1.64 1.35-2.122 1.93-.096 0-.482 1.156-1.35 1.543-1.254 1.156-3.086 2.988-3.666 3.47-.48.483 0-.577-.867.388-.482.385-.29.578-.965 1.64-.867 1.06-2.604 2.892-2.988 3.374-.578 1.157-1.158 2.507-1.832 4.05 2.025 1.35 4.05.965 5.4 1.833 1.734.096 3.857.48 5.69.964 1.06-.87 1.83.192 2.603.192 1.06.578 2.7.482 3.953 1.06 2.41.387 4.533 1.833 7.232 1.352.965.192 2.12.578 3.086.867-.096.194-.193.387-.385.387-1.642.29-3.087-.58-4.534-.482-.387-.29-.676-.386-1.06-.29-.772-.096-1.544-.288-2.22-.288-1.543-.482-2.604.386-5.11-1.254 0 1.446.192.58.192.58-1.445-.387-3.47-.965-5.4-.87-1.156-.77-2.604-.48-3.76-.77-2.7-.29-4.533-1.35-7.137-1.157 0 0-.095-.096-.192-.096-.77-.482-1.64-.193-2.12-.676-5.884-1.64-11.862-3.28-17.745-4.918-1.35-.675-2.506-.965-3.953-1.543-1.928-.676-3.76-1.832-5.785-2.604s-3.955-2.026-6.27-2.7c-.578-.29-1.543.19-1.543-.773 0-.288-.29-.964-.096-1.06.676-1.062 2.604-1.062 3.568-1.543 2.314-.193 5.592-.676 8.39-1.254 1.06-1.254 2.7-.29 3.954-.77 4.725.19 9.643-2.22 15.043-1.544 6.847-1.06 14.466-1.64 20.927-1.06 4.92.383 9.838-.1 14.756.575zm-29.218 1.64c-1.254-.48-3.182.676-5.11.29-2.315-.386-4.82.386-7.136.77-2.22-.385-3.956.966-6.173.772-1.447.193-3.857.193-5.787.58-3.182.577-6.074 1.445-9.74 1.734 1.447 1.64 4.05 2.796 4.438 2.893 2.025.675 3.664 1.83 5.496 2.41 2.797.964 5.207 1.93 7.81 2.7 1.833.482 4.245 1.06 5.884 1.35 1.832-.096 4.436 1.543 6.943 1.93 1.448.192.772.868 2.798.29.77-1.833 1.928-3.087 2.604-4.726.867-1.158 1.35-1.255 2.604-2.604.867-.868 1.736-2.218 2.7-3.472.868-.964 2.024-2.025 2.603-2.7 0-.192 1.157-1.446 1.157-2.218-1.35-.29-2.893-.29-3.762-.386-2.606-.385-4.63 0-7.33.387zM1201.44 58.556c.1.097.194 0 .194.097-1.736.386-3.47-.29-5.014.386-1.06.674-2.412 1.252-3.762.578-.096-.675-.385-1.447-.19-2.314.19-.387.48.096.77-.193 2.894-.868 5.593.097 8.003 1.446z"/></g><path d="M2048 0M2048 1536M0 1536M0 0" fill="none" stroke="#17192D" stroke-width="3"/></g></svg>