<?xml version="1.0" encoding="iso-8859-1"?>
<!-- Generator: Adobe Illustrator 15.1.0, SVG Export Plug-In . SVG Version: 6.00 Build 0)  -->
<!DOCTYPE svg PUBLIC "-//W3C//DTD SVG 1.1//EN" "http://www.w3.org/Graphics/SVG/1.1/DTD/svg11.dtd">
<svg version="1.1" xmlns="http://www.w3.org/2000/svg" xmlns:xlink="http://www.w3.org/1999/xlink" x="0px" y="0px" width="2048px"
	 height="1536px" viewBox="0 0 2048 1536" style="enable-background:new 0 0 2048 1536;" xml:space="preserve">
<g id="atxta_x5F_1">
	<g>
		<path style="fill:#FF0050;" d="M893.135,1460.586c3.568-0.289,6.268,1.158,9.547,1.93c0.675,0.578,1.35,0.578,1.35,0.482
			c0.193,0.096,1.447,0.385,2.508,0.965l0.289,0.096c1.447,0.771,1.543,0.676,2.604,0.771c1.735,1.156,3.954,1.35,5.4,2.41
			c2.894,2.123,7.136,4.146,9.739,7.232c1.832,2.314,3.665,3.568,5.305,5.883c0.096,0.58,0.482,1.158,0.096,1.832
			c-0.771,0-0.289,0.676-1.446-1.061l-0.192-0.385c-1.061,0.289-1.93,0.771-2.604,0.963c-1.64,0-4.146,0-5.883,0.193
			c-1.061-0.289-2.797,0.385-3.761,0c-4.821,0.289-11.09,0.482-16.394,0.096c-1.253,0.58-2.989,0.193-4.146,0.098
			c-5.015-0.289-9.547-1.832-14.079-1.35c-3.086-0.098-6.75,0.867-10.029-0.387c-2.314,0.289-5.979-0.289-7.811-0.193
			c-0.096,0-0.192,0.193-0.289,0.291c-4.725-0.58-10.801,0.191-15.333-0.291c-0.482-0.191-0.868-0.867-0.193-0.963
			c9.257-0.773,20.926-0.869,30.666-0.098c2.218-0.193,5.593,0.289,7.908-0.096c0.096,0.096,0.193,0.193,0.29,0.289
			c3.568,0,6.461,0.676,10.125,1.061c0.386-0.289,0.772-0.096,1.061,0.098c5.4,0.289,13.018-0.482,18.226-0.098
			c2.893-1.35,5.979,0.771,8.775-0.676c0.289-0.48,0.289,0.965,2.218-0.385c-0.578-0.193-1.157-1.158-0.868-1.158
			c-0.771-1.541-2.989-1.35-4.05-4.436c-0.578,0.578-0.386-0.289-0.868-0.289c0,0-0.481-0.289-0.675-0.385
			c-0.097-0.098-0.482-0.193-0.482-0.965c-0.965,0-1.157-0.289-1.446-0.096c-0.964-0.387-0.964-1.736-2.122-1.736
			c-0.481-0.193-1.156-0.387-1.445-0.771c-1.158-0.289-1.641-1.447-2.701-1.639c-1.543-1.062-3.857-0.869-5.11-1.736
			c-1.061,0-1.157-0.867-2.411-0.965c-3.375-1.832-7.811-1.832-11.379-2.604c-5.208,0-9.933-1.061-15.236,0
			c-1.736,0-3.279,0.674-4.822,0.965c-0.868,0.578-1.929,0.385-2.797,0.867c-7.136,2.219-14.368,5.111-20.54,10.029
			c-2.507,1.254-3.761,3.857-6.365,5.111c-0.578,0.385-0.193-0.482,0-0.771c1.929-2.604,4.532-5.4,7.233-7.426
			c2.604-1.928,6.075-3.375,8.968-5.111c2.604-1.156,5.4-1.928,7.619-2.893c2.796-0.193,3.375-1.928,6.268-1.639
			c0.579-0.098,1.061-0.482,2.122-0.387c0.482-0.385,0.868-0.193,1.542-0.482c0.868,0,1.833,0,2.893-0.289
			C884.263,1460.297,889.085,1459.719,893.135,1460.586z"/>
		<path style="fill:#FF0050;" d="M922.546,1448.438c0.29,0.096,0.482,0.191,0.676,0.385c-0.868,2.219-3.472,0.965-5.496,1.543
			c-1.736,0.289-3.376,0-5.111,0.096c-4.726,0.098-9.451-0.096-13.983,0c-2.411,0-5.593,0.193-8.101-0.096
			c-1.639-0.193-3.664,0-5.304,0.096c-3.954,0.387-7.715,0-11.861,0.289c-0.193-0.191-0.386-0.191-0.579-0.191
			c-1.736,0.867-3.664,0.096-5.304,0.385c-3.954,0.193-7.714,0.58-11.572,0.58c-2.7-1.158-5.497,0.578-8.293-0.098
			c-0.386-0.096,0.579-1.156,0.868-1.156c4.244-2.895,9.162,1.156,13.887-0.193c5.593-1.543,11.861-0.965,17.358-1.254
			s10.704,0.193,16.297,0c1.543-0.193,3.086-0.193,4.726-0.193c0.386,0,0.868,0.098,1.253,0.098
			c4.243-0.098,8.486-0.098,12.247-0.676C917.147,1448.822,919.558,1448.34,922.546,1448.438z"/>
		<path style="fill:#FF0050;" d="M923.029,1429.439c-0.964,2.123-3.278,2.314-4.918,3.473c-2.217,1.156-4.629,2.314-7.136,2.604
			c-0.675,0.387-1.639,0.482-2.411,0.578c-6.461,1.156-12.729,3.762-19.479,3.955c-4.629,0.963-9.74,0.48-14.754,0.385
			c-4.146,0-9.45-1.158-13.597-2.99c-2.025-0.482-4.243-1.252-5.69-2.506c-2.122-0.58-3.761-2.123-5.593-3.279
			c-0.385-0.676-0.868-1.35-0.868-2.025c0-0.096-0.097-0.193-0.097-0.193c1.929,0.482,3.761,1.93,5.69,3.086
			c1.543,0.867,2.411,2.025,4.05,2.412c2.797,0.578,5.015,2.506,7.908,2.312c5.304,1.352,11.09,1.254,17.455,0.869
			c-0.964-2.217,0.675-3.086-0.097-4.436c0.097-0.58,0.193-0.965,0.386-1.35c0.29-0.289,0.482-0.58,0.868-0.289
			c0.193,0.191,0.289,0.289,0.482,0.48c-0.193,0.578,0.193,0.965,0.482,1.254c-0.29,1.254,0,2.508-0.193,4.051
			c4.726,0.482,7.908-0.869,11.765-1.061c1.639-0.771,4.146-0.965,6.172-1.543c1.832-0.58,4.05-0.58,5.786-1.641
			c1.446,0.193,3.086-0.289,4.242-1.734c2.508,0.096,4.437-1.736,7.33-2.314c0-0.771,0-0.482,0-0.482
			c0.481-0.193,1.445-1.254,2.604-0.867C923.318,1428.668,923.222,1429.055,923.029,1429.439z"/>
		<path style="fill:#FF0050;" d="M846.654,1377.561c2.604,0.191,4.725,1.736,7.329,2.217c2.989,2.701,7.04,2.99,10.125,5.4
			c2.411,0.869,5.015,1.832,7.425,2.893c0.964,0.58,1.446,0.965,2.7,2.123c3.375-3.086,7.715-2.701,10.897-4.146
			c3.085-0.869,5.979-1.93,9.064-3.086c2.989-1.158,6.172-1.736,9.451-2.508c1.253-1.061,3.085-1.061,4.629-1.639
			c2.121,0.096,2.99-3.279,4.628-1.736c0.097,0,1.446,0.674,0.578,0.965c-3.567,3.277-8.968,2.217-12.632,4.82
			c-3.375,0.771-6.654,1.061-9.354,2.99c-1.832,0.289-3.568,0.965-5.111,1.832c-2.025,0.482-3.954,0.096-5.497,1.061
			c-1.157,0.096-1.929,0.965-3.183,1.35c-0.193,0.482-1.735,1.447-1.542,1.641c0.193,0.289,2.025-0.193,2.314,0.191
			c4.436,0.578,7.522-0.191,11.283,0.676c2.604-0.193,5.979,0,8.582,0.482c0.29-0.193,1.158,0,1.64-0.193
			c2.893-0.289,5.689-1.832,8.486-0.676c1.736-0.289,3.858-0.963,5.593-0.289c0.097,0.289,0.097,0.676,0,1.061
			c-0.771,0.965-2.122,0.676-3.183,0.869c-4.532,0.289-9.161,0.482-13.5,1.35c-2.122-0.096-3.665,0.098-5.593-0.676
			c-4.533-1.252-9.258-1.061-13.886-0.578c-3.568-0.191-7.618,0.387-11.476-0.191c-3.279-1.158-6.943-0.58-10.897-1.158
			c-1.061,0.965-2.314,0.385-3.183,0.289c-0.771-0.482-1.929-0.578-2.796-0.193c-2.893,1.447-4.532,0.482-6.557-0.385
			c0,0.385-1.64-0.193-1.736-0.387c-0.193-0.867,0.675-1.252,1.35-1.543c0.579-0.289,1.351,1.062,1.929,0.58
			c2.797,0.482,5.979,0.289,8.968,0c4.532,0.674,8.872,0.578,13.404,0.771c0.868,0.191,4.146,0.963,5.208-0.387
			c-1.543-0.771-3.954-1.928-4.436-3.086c-2.314-1.061-3.761-1.156-5.497-2.699c-1.832,0.289-2.604-1.061-4.05-1.061
			c-2.893-0.869-5.4-3.279-8.486-4.244c-1.736-0.096-3.183-1.156-4.629-2.025c-0.096-0.191-0.868-0.385-0.868-0.578
			c-0.289-0.289,0.193-0.867,0.193-1.061C845.208,1375.92,845.594,1377.752,846.654,1377.561z"/>
		<path style="fill:#FF0050;" d="M893.81,1351.91c6.075-0.773,11.476,2.217,17.068,3.471c2.314,1.254,5.016,1.445,7.715,3.182
			c0.868-0.289,0.965,0.387,1.254,0.771c0,0.098-0.097-0.482-0.097-0.482c-3.278,1.93-7.136,4.051-11.186,5.209
			c-2.122,0.963-4.726,1.252-6.847,1.928c-2.604,0.771-5.111,1.639-7.619,2.314c-5.207,0.482-8.583,1.35-13.597,1.832
			c-3.761-0.676-8.197-0.289-11.572-1.736c-2.122,0.771-4.725-0.191-6.75-0.674c-2.507,0.482-4.532-1.832-6.943-2.123
			c-2.604-1.156-5.882-0.963-7.714-3.182c0.096-0.096-1.061-0.771-0.386-1.543c0.193-0.193,0.289-0.385,0.482-0.578
			c1.639-1.158,2.796-2.797,4.822-3.664c4.436-2.508,9.45-4.918,15.043-4.725c2.989,0.578,5.882-1.93,8.872-0.387
			C881.853,1351.523,888.41,1350.848,893.81,1351.91z M850.03,1359.721c-0.386,1.061-1.254,2.699,0.675,2.699
			c6.75,2.508,13.5,3.857,20.444,4.918c6.75,0.965,13.115,1.543,19.672-0.289c8.39-2.41,17.261-3.953,26.712-8.391
			c-5.496-1.061-8.583-2.699-11.958-3.277c-7.425-0.482-14.175-2.701-21.697-2.508
			C871.727,1353.066,859.48,1354.416,850.03,1359.721z"/>
		<path style="fill:#FF0050;" d="M918.69,1318.641c0.192,0.482,1.735,0.482,1.157,1.254c-2.7,1.832-6.365-0.193-9.258,1.35
			c-9.74,2.988-20.058,0.771-29.991,2.121c-5.786,0.771-11.186,0.771-16.875,1.928l-3.279-0.096l-0.096,0.385l3.278,1.447
			c3.761,0.771,8.583,0.869,12.151,1.736c3.375,0.867,6.268,0.965,9.546,1.928c3.568,0.676,7.04,0.291,11.09,0.387
			c0.289,0.193,0.771,0.096,0.964,0.387c-5.111,2.121-11.379,0.674-16.683,2.217c-1.447,1.254-3.857,0.867-5.593,1.639
			c-6.172,0-12.054,2.121-17.84,2.412c-0.675,0.578-1.833,0.674-2.797,1.061c0,0.385-2.604,0.965-2.507,1.156
			c0.096,0.289,3.085,0.193,3.182,0.676c9.547,1.445,18.226,0,27.001,1.061c5.4-2.025,10.994,1.158,16.201-0.578
			c6.172-2.025,13.115,0.289,18.612-1.832c1.639,0,3.375-0.869,4.821,0c1.735,0.096,4.628-1.641,5.979,0.193
			c0,0.191,0.192,0.096,0.29,0.191c-1.351,0.867-3.473,0.193-4.727,0.387c-7.328,1.832-15.042,2.314-22.661,3.471
			c-3.085,0-6.171,0.482-9.064-0.385c-3.761,0.096-7.618,0.385-11.572-0.289c-9.162-0.291-17.551,1.541-26.134-0.965
			c-3.182-0.965-6.268,0-9.064-0.676c0-0.578-2.122,0.482-1.639-0.387c0.578-0.289,0.964-1.252,2.025-1.445
			c4.339-2.412,10.029-1.736,14.851-3.471c5.882-1.062,12.536-1.736,18.611-3.184l3.183-0.771v-0.385l-3.183-0.578
			c-3.954-0.676-7.714-1.254-11.668-1.736c-4.821-2.219-10.511-2.025-15.333-4.146c-0.29-0.289-0.771-0.482-1.157-0.676
			c0.771-1.156,3.086-0.096,4.243-0.193c4.05-2.121,8.583-0.48,13.018-1.639c10.126-1.061,17.647-0.482,27.58-1.35
			c2.314-0.676,5.882-0.676,8.486-1.061c4.629-0.676,9.547,1.156,13.018-1.736C917.533,1317.965,918.111,1318.158,918.69,1318.641z"
			/>
		<path style="fill:#FF0050;" d="M882.238,1304.561c1.832,1.447,3.954,2.797,5.593,4.92c7.232-0.58,13.886,0.867,20.25,0.674
			c2.796-0.096,4.726-1.832,7.33-1.639c0.096,0.771,0.675,1.543,1.639,1.832c0.193,0.191,0.193-0.578-0.096-0.482
			c-0.098,0.098-0.676,0.193-0.771,0.193c-3.473,2.312-8.68,0.676-12.922,1.254c-1.543,0.385-3.761,1.059-5.015,0
			c-5.786-1.061-12.729,0.48-18.419-0.773c-4.146-0.191-8.582,0.965-12.536,0.098c-5.979-0.482-11.958,0.193-18.033-0.674
			c-2.025,0.771-3.664,0-5.786-0.098c-0.579-0.385-1.736,0-2.025-0.676c0.386-0.482,0.193-1.254,0.771-1.639
			c2.218-1.832,5.208-2.314,7.426-3.664c2.218-0.387,4.146-0.867,6.075-1.928c0.193-0.291,0.386-0.58,0.579-0.676
			c2.507-0.193,5.014-1.93,7.714-0.869C870.184,1301.09,876.935,1301.379,882.238,1304.561z M857.358,1302.537
			c-2.025,1.445-4.628,2.023-6.75,2.604c-0.771,1.254-3.086,0.867-4.243,2.025c1.157,1.832,2.796,0.963,3.954,1.156
			c5.882,1.158,11.958,0.289,18.033,0.676c2.411,0.965,4.532-0.098,6.943,0.096c2.7,0.193,5.4-1.061,7.908,0.193l0.868-1.062
			c-1.157-1.734-2.796-2.988-4.918-3.566c-1.832,0-3.568-0.965-5.4-1.736c-3.279-0.867-6.557-0.674-10.029-0.867
			C861.602,1301.959,859.866,1303.211,857.358,1302.537z"/>
		<path style="fill:#FF0050;" d="M917.628,1278.332c-0.289,2.025,0.098,3.762,0.771,5.4c-0.096,0.482-0.481,0.965-0.771,1.061
			c-1.253,1.832,1.158,5.111-2.024,6.076c-1.062,0.289-2.218-0.193-3.086,0.578c-3.375,1.254-4.436,0.289-7.715,0.578
			c-2.893,0.193-6.364-1.254-9.161,0c-1.543,0-2.797-0.578-4.147-0.771c-3.664,1.35-7.811-0.674-11.668,0.291
			c-2.796,0.191-5.014-0.965-7.811,0.287c-0.579,0.098-1.061,0.098-1.543,0.291c-5.689,0-11.572-0.578-17.165,0.096
			c-2.796,0-5.497-0.096-8.004-1.447c-0.482-0.385,0.097-0.963,0.579-1.156c0.675,0,1.64-0.193,2.7,0.676
			c2.025-0.869,3.857,0.096,5.593-0.291c1.446,0.387,3.086,0.482,4.629,0.098c3.278-1.93,6.75,0.289,10.125,0.193
			c3.279-0.098,6.558-1.352,9.933-0.965c3.471,0.482,7.521,0.771,11.089,0.385c1.157-0.385,2.507,0.193,3.568-0.191
			c1.061,0.191,2.507,0.096,3.471,0.771c1.35-0.193,2.99-0.482,4.34-0.869c0.771,0.387,1.929,0.289,2.604,0.482
			c3.665,0.289,4.436,0.771,7.811-0.385c2.218,0.771,1.351-1.545,3.278-2.027c1.254-0.48,0.579-1.059,0.579-1.734
			c-0.289-1.543,1.253-2.701,0.579-4.051c-0.482-1.254-0.097-2.893-1.061-4.242c-0.098-0.387-0.098-0.869,0.385-0.869
			C916.761,1276.309,916.955,1277.561,917.628,1278.332z"/>
		<path style="fill:#FF0050;" d="M856.876,1261.264c1.446,0.193,2.411,1.641,4.05,1.641c3.086,1.543,5.979,2.314,9.74,2.506
			c0.579,0.291,1.543,0.387,2.218,0.58c2.122,0.191,4.05,1.156,6.075,1.156c1.253,0.387,2.99-0.289,4.146,1.254
			c1.543-0.385,2.7-0.771,3.665-1.254c0.386-0.771,1.446-1.736,1.35-2.797c0.675-1.061,0.096-1.928,0.579-3.279
			c0.579-1.832,0.579-2.893,1.543-4.82c0.482-0.387,0.964-0.771,1.543-0.676c0.385,0.965,0,2.123,0,3.279
			c-1.254,2.508-1.061,3.857-1.929,7.137c0.771,0.48,0.482,0.867,0.771,1.061c2.411,0.385,5.015,0.096,7.04-0.387
			c1.253,0.193,2.314-0.289,4.243-0.289c0.386-1.156,1.253-0.289,1.832-0.578c3.472-0.289,6.558-2.219,10.126-2.41
			c1.543-1.352,4.146-1.158,5.689-2.316c1.832,0.193,2.796-2.217,5.111-1.639c1.156-0.867,2.217-1.928,3.664-1.928
			c0.385,0.289,0.771,0.578,1.156,0.963c-0.192,1.447-1.832,1.543-2.893,2.316c-1.639,0.191-3.182,0.578-4.34,1.639
			c-2.121-0.098-3.375,1.736-5.4,1.639c-0.771,0.482-1.542,0.58-2.121,0.965c-0.771-0.098-1.446,0.193-2.025,0.482
			c-4.435,0-7.907,2.893-12.343,2.604c-0.579,0.387-1.64,0.387-2.218,0.482c-4.725,1.639-10.222,1.35-15.043,1.254
			c-2.218-0.58-4.918,0-6.847-0.965c-5.979-1.061-11.765-3.473-17.454-5.016c-2.7-1.061-5.208-2.699-7.715-4.049
			c-2.797-1.543-6.075-2.604-8.1-5.4c0-0.193,0-0.482,0.193-0.578C847.522,1256.635,852.055,1259.143,856.876,1261.264z"/>
		<path style="fill:#FF0050;" d="M838.168,1233.203c0,2.988-0.097,5.883,0.675,9.16c7.232,0.482,14.176,0.482,19.769-1.35
			c1.542-0.289,3.085-0.482,4.339-0.965c6.075-1.734,10.607-0.482,16.586-2.604c3.761-0.289,7.136-1.061,10.704-1.639
			c5.014-0.867,10.222-0.289,14.851-1.35c2.989,0,6.557-0.387,9.74-1.254c2.604,0.096,5.304-1.061,7.907-1.543
			c0.387,0.193,0.868,0.578,1.061,0.867c-0.385,2.893-4.629,1.254-6.461,2.123c-6.557,1.252-12.921,1.928-18.997,2.121
			c-3.664,0.096-7.521,1.061-11.282,1.543c-3.761,0.482-6.558,0.771-10.319,0.771c-1.061,0.578-2.507,0.771-3.857,0.48
			c-1.254,1.158-2.507,0.482-3.472,1.158c-3.182,0.482-6.558,1.35-10.029,1.832c-3.086,0-6.461,1.832-9.258,1.35
			c0,0-0.482,0.193-0.579,0.291c-2.796-0.098-6.172,0.289-10.029-1.158c-0.771,2.219-0.192,4.436-0.385,6.076
			c-0.579,6.074,1.253,11.668,0.289,17.357c0,0.482,0.579,1.156,0.193,1.639c-0.386,0.387-0.771,0.098-1.157,0
			c-1.061-1.445-0.771-3.76-0.771-5.4c-0.675-0.771,0.097-2.314-0.193-3.277c0.579-5.98-0.386-11.861-0.386-17.262
			c0-5.016-0.964-11.09-1.253-16.201c-0.386-0.867,0.386-1.447,0.868-1.832c0.097,0,0-0.193,0.097-0.098
			C837.783,1226.936,838.168,1230.02,838.168,1233.203z"/>
		<path style="fill:#FF0050;" d="M840.29,1204.949c0.192,1.639,0.868,2.797,1.157,4.531c-0.578,2.604-0.096,4.918,0.868,8.102
			c1.35-0.676,2.314-0.482,2.796-0.289c1.833-0.193,4.146,0.289,5.979,0.193c1.736-0.387,3.857-0.58,5.593-0.58
			c2.7-1.35,6.075-1.736,8.775-2.314c1.542,0.387,3.375,0,4.822,0.193c6.557,0,13.308-1.639,19.479-2.508
			c1.157,0.098,2.893-0.193,3.954,0.098c0.193-0.098,0.675-0.098,0.771-0.193c4.821-0.193,8.679-0.289,13.5-0.289
			c2.218,0,4.146,0.385,6.172,0.482h-0.097c-2.507,1.832-5.979,1.156-8.679,1.734c-3.954-0.963-8.101,1.061-12.344-0.578
			c-2.507,2.604-5.497,0.578-8.1,1.447c-2.411-0.291-5.304-0.193-7.329,1.061c-0.964-0.098-1.832,0.289-3.182-0.193
			c-2.314,1.35-5.208,0.676-7.619,0.676c-3.954-0.869-7.136,1.734-10.896,1.254c-2.7,1.35-5.786,1.156-8.872,1.156
			c-0.964-1.061-2.507-0.096-4.436-2.219c-0.675,4.244-0.289,6.752-0.482,9.355c0.482,2.023-0.289,4.242,0,6.461
			c-0.096,0.096-0.096,0.191-0.193,0.289c-0.771-0.098-0.964-0.965-1.254-1.543c0.579-1.93,0.482-3.857,0-5.787
			c-0.385-0.48,0-1.35,0.097-2.312c-1.061-1.447-0.193-3.568-0.964-4.92c0.482-1.543-0.193-3.182-0.097-4.725
			c-0.868-1.543,0.29-3.568-0.578-5.111c0-1.35-1.833-2.699-0.29-3.76c0.097-0.098,0.29-0.193,0.482-0.289
			C839.711,1204.467,840.193,1204.562,840.29,1204.949z"/>
		<path style="fill:#FF0050;" d="M923.029,1187.59c-0.964,2.123-3.278,2.316-4.918,3.473c-2.217,1.158-4.629,2.314-7.136,2.604
			c-0.675,0.387-1.639,0.482-2.411,0.578c-6.461,1.158-12.729,3.762-19.479,3.955c-4.629,0.963-9.74,0.48-14.754,0.385
			c-4.146,0-9.45-1.156-13.597-2.988c-2.025-0.482-4.243-1.254-5.69-2.508c-2.122-0.578-3.761-2.121-5.593-3.279
			c-0.385-0.676-0.868-1.35-0.868-2.025c0-0.096-0.097-0.193-0.097-0.193c1.929,0.482,3.761,1.93,5.69,3.088
			c1.543,0.867,2.411,2.023,4.05,2.41c2.797,0.578,5.015,2.508,7.908,2.314c5.304,1.35,11.09,1.254,17.455,0.867
			c-0.964-2.217,0.675-3.086-0.097-4.436c0.097-0.578,0.193-0.965,0.386-1.35c0.29-0.289,0.482-0.578,0.868-0.289
			c0.193,0.191,0.289,0.289,0.482,0.482c-0.193,0.578,0.193,0.963,0.482,1.252c-0.29,1.254,0,2.508-0.193,4.051
			c4.726,0.482,7.908-0.867,11.765-1.061c1.639-0.771,4.146-0.965,6.172-1.543c1.832-0.578,4.05-0.578,5.786-1.639
			c1.446,0.191,3.086-0.291,4.242-1.736c2.508,0.096,4.437-1.736,7.33-2.314c0-0.771,0-0.482,0-0.482
			c0.481-0.193,1.445-1.254,2.604-0.867C923.318,1186.82,923.222,1187.205,923.029,1187.59z"/>
		<path style="fill:#FF0050;" d="M906.443,1139.182c-0.193-0.096,0.868-0.289,1.253-0.191c0.29,0,0.675,0,0.771,0
			c0.579,0.191,1.35,0.482,1.929,0.385c1.35,0.578,2.701,0.289,3.857,0.867c2.314,1.062,5.4,2.025,7.908,4.148
			c1.543,1.639,3.568,2.312,5.111,3.76c0.289,0.867,0.674,1.254,0.481,2.025c-1.543,0.096-2.314-2.121-3.761-2.699
			c-1.061-0.965-2.604-1.254-3.472-2.508c-0.192-0.098-0.579-0.482-0.771-0.578c-0.192-0.098-0.289-0.291-0.289-0.291
			c-0.097,0-0.482-0.191-0.482-0.289c-0.868-0.867-1.157-0.965-1.157-0.578c-0.675-0.193-1.157-0.676-1.832-0.578
			c-0.289-0.098-0.578-0.289-0.771-0.578c-1.157,0.191-1.447-0.387-2.025-0.482c-1.061-0.58-2.7,0-3.857-0.387
			c-0.579,0.098-1.061-0.482-1.736-0.385c-2.314-0.676-3.279-0.098-5.786,0.096c-3.182,1.158-3.278,0.869-5.304,1.639
			c-1.543,0.58-2.411,0.771-3.857,1.447s-2.025,1.447-3.472,2.121c-1.35,0.578-2.218,0.387-3.471,0.869
			c-1.447,0.578-2.315,1.252-3.665,1.832c-1.35,0.674-2.411,0.965-3.954,1.639c-1.447,0.869-2.218,1.736-3.954,2.219
			c-0.482,0-1.157,0.096-1.639,0.096c-0.482-0.096-1.061,0.096-1.35,0.096c-0.29,0.098-0.771-0.096-1.061-0.191
			c-1.736,0.578-2.7-0.58-4.533-0.387c-1.736-0.482-3.472-0.674-5.497-1.35c-1.929-1.061-4.436-1.543-6.558-2.99
			c-2.218-1.156-4.436-2.893-6.075-5.014c-0.193-0.289-0.964-1.061-0.289-0.965c1.736,0.771,3.278,2.508,5.111,3.184
			c4.918,3.084,10.029,4.918,15.14,5.398c0.578,0.291,1.253,0,1.929,0.291c0.964,0,2.314,0.289,3.375,0.096
			c3.472,0.387,2.7-1.156,4.146-1.736c1.543-0.578,2.507-0.482,3.857-1.156c0.964-0.578,1.446-1.254,2.604-1.736
			c0.964-0.578,1.64-1.061,2.893-1.254c2.893-0.289,2.989-0.867,4.436-2.121c0.675-0.387,1.061-0.867,1.832-1.156
			c0.675-0.58,1.254-0.291,2.122-0.58c1.157-0.289,1.736-0.674,2.893-1.061c1.061-0.385,2.218-0.867,2.796-0.867
			c2.025-0.869,3.183-0.289,5.111-0.482C905.96,1138.797,906.54,1139.182,906.443,1139.182z"/>
		<path style="fill:#FF0050;" d="M840.29,1111.312c0.192,1.641,0.868,2.797,1.157,4.533c-0.578,2.604-0.096,4.918,0.868,8.1
			c1.35-0.674,2.314-0.482,2.796-0.289c1.833-0.193,4.146,0.289,5.979,0.193c1.736-0.387,3.857-0.578,5.593-0.578
			c2.7-1.35,6.075-1.736,8.775-2.314c1.542,0.385,3.375,0,4.822,0.191c6.557,0,13.308-1.639,19.479-2.506
			c1.157,0.096,2.893-0.193,3.954,0.096c0.193-0.096,0.675-0.096,0.771-0.193c4.821-0.191,8.679-0.289,13.5-0.289
			c2.218,0,4.146,0.387,6.172,0.482h-0.097c-2.507,1.832-5.979,1.158-8.679,1.736c-3.954-0.965-8.101,1.061-12.344-0.578
			c-2.507,2.604-5.497,0.578-8.1,1.445c-2.411-0.289-5.304-0.193-7.329,1.061c-0.964-0.096-1.832,0.289-3.182-0.191
			c-2.314,1.35-5.208,0.674-7.619,0.674c-3.954-0.867-7.136,1.736-10.896,1.254c-2.7,1.35-5.786,1.156-8.872,1.156
			c-0.964-1.059-2.507-0.096-4.436-2.217c-0.675,4.242-0.289,6.75-0.482,9.354c0.482,2.025-0.289,4.244,0,6.461
			c-0.096,0.098-0.096,0.193-0.193,0.289c-0.771-0.096-0.964-0.963-1.254-1.543c0.579-1.928,0.482-3.855,0-5.785
			c-0.385-0.482,0-1.35,0.097-2.314c-1.061-1.445-0.193-3.568-0.964-4.918c0.482-1.543-0.193-3.182-0.097-4.725
			c-0.868-1.543,0.29-3.568-0.578-5.111c0-1.35-1.833-2.701-0.29-3.762c0.097-0.096,0.29-0.191,0.482-0.289
			C839.711,1110.832,840.193,1110.928,840.29,1111.312z"/>
		<path style="fill:#FF0050;" d="M918.979,1085.096c0.771,0.387,1.543,0,2.411,0.193c0.675,0,1.156,0.193,1.736,0.578
			c0.096,0.482-0.482,0.869-0.772,1.352c-0.675,0.867-1.446-0.482-1.64-0.482c-0.192-0.387-1.156,0.482-2.121-0.965
			c-1.929,0.578-3.664,0.578-5.015,0.193c-2.7,0.289-5.689-0.482-8.293,0.578c-1.061,0.096-1.639,1.35-2.122,1.928
			c-0.096,0-0.482,1.158-1.35,1.543c-1.253,1.158-3.086,2.99-3.665,3.473c-0.482,0.482,0-0.578-0.868,0.385
			c-0.482,0.387-0.29,0.58-0.964,1.641c-0.868,1.061-2.604,2.893-2.989,3.375c-0.579,1.156-1.158,2.506-1.833,4.049
			c2.025,1.352,4.05,0.965,5.4,1.834c1.736,0.096,3.857,0.48,5.689,0.963c1.061-0.867,1.833,0.193,2.604,0.193
			c1.061,0.578,2.7,0.482,3.954,1.061c2.411,0.387,4.532,1.832,7.232,1.352c0.964,0.191,2.122,0.578,3.086,0.867
			c-0.097,0.191-0.192,0.385-0.386,0.385c-1.64,0.289-3.086-0.578-4.533-0.482c-0.385-0.289-0.674-0.385-1.061-0.289
			c-0.771-0.096-1.543-0.289-2.217-0.289c-1.543-0.482-2.604,0.387-5.111-1.254c0,1.447,0.193,0.58,0.193,0.58
			c-1.447-0.387-3.472-0.965-5.4-0.869c-1.157-0.771-2.604-0.482-3.761-0.771c-2.7-0.289-4.532-1.35-7.136-1.156
			c0,0-0.097-0.098-0.193-0.098c-0.771-0.48-1.64-0.191-2.122-0.674c-5.882-1.641-11.861-3.279-17.744-4.918
			c-1.35-0.676-2.507-0.965-3.954-1.543c-1.929-0.676-3.761-1.832-5.786-2.604c-2.025-0.771-3.954-2.025-6.268-2.701
			c-0.579-0.289-1.543,0.193-1.543-0.771c0-0.289-0.29-0.965-0.097-1.061c0.675-1.061,2.604-1.061,3.568-1.543
			c2.314-0.193,5.593-0.676,8.39-1.254c1.061-1.254,2.7-0.289,3.954-0.771c4.725,0.193,9.644-2.217,15.043-1.543
			c6.847-1.061,14.465-1.639,20.926-1.061C909.143,1084.904,914.061,1084.422,918.979,1085.096z M889.76,1086.736
			c-1.254-0.482-3.183,0.674-5.111,0.289c-2.314-0.387-4.822,0.385-7.136,0.771c-2.218-0.387-3.954,0.965-6.171,0.771
			c-1.447,0.193-3.857,0.193-5.786,0.578c-3.182,0.578-6.075,1.447-9.74,1.736c1.447,1.639,4.05,2.795,4.436,2.893
			c2.025,0.676,3.665,1.832,5.497,2.41c2.797,0.965,5.208,1.93,7.811,2.701c1.833,0.482,4.243,1.061,5.882,1.35
			c1.833-0.096,4.436,1.543,6.943,1.93c1.447,0.191,0.771,0.867,2.796,0.289c0.771-1.832,1.929-3.086,2.604-4.727
			c0.868-1.156,1.35-1.252,2.604-2.604c0.868-0.867,1.736-2.217,2.7-3.471c0.868-0.965,2.025-2.025,2.604-2.701
			c0-0.191,1.157-1.445,1.157-2.217c-1.35-0.289-2.893-0.289-3.761-0.387C894.485,1085.965,892.46,1086.35,889.76,1086.736z"/>
		<path style="fill:#FF0050;" d="M890.821,1058.385c3.761,0.289,7.618,1.156,11.668,1.639c4.918,0.578,10.029,1.156,14.658,3.471
			c2.411,2.412,5.399,3.666,7.329,6.848c0.289,1.736,1.543,1.447,0.964,3.568c0.097,0.289-0.192,0-0.192-0.387
			c-2.219,0.098-1.157-0.482-2.797-2.699c-2.508,0.771-4.34-0.387-6.172,0.385c-7.714-0.482-14.368,0-21.89,0.771
			c-1.832,0.869-4.146,0.869-6.268,0.58c-1.35-0.482-2.797,0.48-4.436,0.191c-5.015-0.289-10.607-0.289-15.525,0.387
			c-3.665-0.193-7.233,0-10.994,0.385c-1.446-0.289-3.086-0.771-5.111-0.191c-0.579,1.35-1.253,1.061-0.771,2.217
			c-0.193,0.193-0.386,0.482-0.675,0.676c-0.29-0.098-0.579,0-0.868-0.289c0.386-2.797,2.218-4.34,3.954-6.461
			c3.375-3.086,7.714-4.533,11.379-7.521c2.411-1.543,4.918-1.736,7.521-2.797c3.279-0.482,6.943-0.289,10.125-0.965
			C885.42,1058.867,888.024,1058.674,890.821,1058.385z M875.584,1060.795c-3.761-0.193-6.364,1.543-9.932,2.604
			c-0.193,0.193-1.061,1.061-1.543,1.35c-2.7,1.93-5.883,2.797-8.775,6.654c3.472-0.289,5.208,0.965,6.847,0.289
			c2.411,0.289,4.532-0.965,6.943-1.061c3.471,1.061,7.232,0.193,10.8,0.676c3.279,0.385,6.847-0.387,10.222-0.58
			c5.979-2.312,12.922-0.674,19.094-1.35c2.989,0,6.461-0.482,11.186,0.098c-1.832-3.857-5.11-4.533-7.328-5.787
			c-5.69-1.543-11.379-2.508-17.262-3.086c-1.157-0.191-2.604,0.289-3.665-0.385
			C886.867,1060.506,880.502,1058.674,875.584,1060.795z"/>
		<path style="fill:#FF0050;" d="M838.168,1037.266c0,2.99-0.097,5.883,0.675,9.162c7.232,0.48,14.176,0.48,19.769-1.352
			c1.542-0.289,3.085-0.482,4.339-0.963c6.075-1.736,10.607-0.482,16.586-2.604c3.761-0.291,7.136-1.062,10.704-1.641
			c5.014-0.867,10.222-0.289,14.851-1.35c2.989,0,6.557-0.387,9.74-1.254c2.604,0.098,5.304-1.061,7.907-1.543
			c0.387,0.193,0.868,0.578,1.061,0.867c-0.385,2.895-4.629,1.254-6.461,2.123c-6.557,1.254-12.921,1.928-18.997,2.121
			c-3.664,0.096-7.521,1.061-11.282,1.543c-3.761,0.482-6.558,0.771-10.319,0.771c-1.061,0.578-2.507,0.771-3.857,0.482
			c-1.254,1.156-2.507,0.482-3.472,1.156c-3.182,0.482-6.558,1.35-10.029,1.832c-3.086,0-6.461,1.832-9.258,1.352
			c0,0-0.482,0.191-0.579,0.289c-2.796-0.098-6.172,0.289-10.029-1.158c-0.771,2.219-0.192,4.436-0.385,6.076
			c-0.579,6.074,1.253,11.668,0.289,17.357c0,0.482,0.579,1.156,0.193,1.639c-0.386,0.387-0.771,0.098-1.157,0
			c-1.061-1.445-0.771-3.76-0.771-5.398c-0.675-0.773,0.097-2.316-0.193-3.279c0.579-5.979-0.386-11.861-0.386-17.262
			c0-5.016-0.964-11.09-1.253-16.201c-0.386-0.867,0.386-1.447,0.868-1.832c0.097,0,0-0.193,0.097-0.098
			C837.783,1030.998,838.168,1034.084,838.168,1037.266z"/>
		<path style="fill:#FF0050;" d="M910.686,992.617c3.761,0.965,6.461,4.148,10.222,5.305c0.578,1.061,1.832,1.639,2.41,2.701
			c-0.867,0.289-1.832-0.58-2.604-0.965c-0.674-0.676-1.35-1.061-2.314-1.158c-2.121-1.543-5.014-2.217-7.232-3.953
			c-1.639-0.578-4.049-0.771-5.882-1.639c-3.279-0.193-6.558-0.193-9.74,0.385c-3.086,0.578-6.075,1.832-8.486,3.955
			c-3.183,1.541-6.847,2.699-10.319,3.471c-5.4,2.699-12.247,2.41-17.84,0.193c-3.279,0-5.111-2.797-8.1-3.184
			c-0.868-0.674-1.64-1.35-2.7-1.736c-0.579-0.48-0.29-1.252-0.771-1.928c0-0.193-0.386,0.096-0.193,0.193
			c1.35,0.096,2.796,0.676,3.954,1.254c5.111,3.953,11.958,4.146,18.129,5.496c4.339-0.193,7.908-2.219,12.054-3.182
			c2.604-1.641,5.882-2.219,8.486-3.857c1.928-0.193,3.471-2.412,5.496-1.93c4.34-1.543,9.451-1.543,13.597,0
			C909.432,992.328,910.011,992.521,910.686,992.617z"/>
		<path style="fill:#FF0050;" d="M882.238,976.514c1.832,1.447,3.954,2.797,5.593,4.918c7.232-0.578,13.886,0.869,20.25,0.676
			c2.796-0.096,4.726-1.832,7.33-1.639c0.096,0.771,0.675,1.543,1.639,1.832c0.193,0.193,0.193-0.578-0.096-0.482
			c-0.098,0.096-0.676,0.193-0.771,0.193c-3.473,2.314-8.68,0.674-12.922,1.252c-1.543,0.387-3.761,1.062-5.015,0
			c-5.786-1.059-12.729,0.482-18.419-0.77c-4.146-0.193-8.582,0.963-12.536,0.096c-5.979-0.482-11.958,0.193-18.033-0.676
			c-2.025,0.771-3.664,0-5.786-0.096c-0.579-0.387-1.736,0-2.025-0.676c0.386-0.482,0.193-1.254,0.771-1.639
			c2.218-1.832,5.208-2.314,7.426-3.664c2.218-0.387,4.146-0.869,6.075-1.93c0.193-0.289,0.386-0.578,0.579-0.674
			c2.507-0.193,5.014-1.93,7.714-0.869C870.184,973.043,876.935,973.332,882.238,976.514z M857.358,974.49
			c-2.025,1.445-4.628,2.023-6.75,2.604c-0.771,1.254-3.086,0.867-4.243,2.023c1.157,1.834,2.796,0.965,3.954,1.158
			c5.882,1.156,11.958,0.289,18.033,0.676c2.411,0.963,4.532-0.098,6.943,0.096c2.7,0.193,5.4-1.061,7.908,0.193l0.868-1.061
			c-1.157-1.736-2.796-2.99-4.918-3.568c-1.832,0-3.568-0.965-5.4-1.736c-3.279-0.867-6.557-0.676-10.029-0.867
			C861.602,973.91,859.866,975.164,857.358,974.49z"/>
		<path style="fill:#FF0050;" d="M922.546,960.219c0.29,0.096,0.482,0.193,0.676,0.387c-0.868,2.217-3.472,0.963-5.496,1.541
			c-1.736,0.289-3.376,0-5.111,0.098c-4.726,0.096-9.451-0.098-13.983,0c-2.411,0-5.593,0.191-8.101-0.098
			c-1.639-0.191-3.664,0-5.304,0.098c-3.954,0.385-7.715,0-11.861,0.289c-0.193-0.193-0.386-0.193-0.579-0.193
			c-1.736,0.867-3.664,0.096-5.304,0.387c-3.954,0.191-7.714,0.578-11.572,0.578c-2.7-1.158-5.497,0.578-8.293-0.098
			c-0.386-0.096,0.579-1.156,0.868-1.156c4.244-2.893,9.162,1.156,13.887-0.193c5.593-1.543,11.861-0.965,17.358-1.252
			c5.497-0.291,10.704,0.191,16.297,0c1.543-0.193,3.086-0.193,4.726-0.193c0.386,0,0.868,0.096,1.253,0.096
			c4.243-0.096,8.486-0.096,12.247-0.676C917.147,960.605,919.558,960.123,922.546,960.219z"/>
		<path style="fill:#FF0050;" d="M856.876,943.826c1.446,0.193,2.411,1.639,4.05,1.639c3.086,1.543,5.979,2.314,9.74,2.508
			c0.579,0.289,1.543,0.387,2.218,0.578c2.122,0.193,4.05,1.158,6.075,1.158c1.253,0.385,2.99-0.291,4.146,1.252
			c1.543-0.385,2.7-0.77,3.665-1.252c0.386-0.771,1.446-1.736,1.35-2.797c0.675-1.061,0.096-1.93,0.579-3.279
			c0.579-1.832,0.579-2.893,1.543-4.822c0.482-0.385,0.964-0.771,1.543-0.674c0.385,0.965,0,2.121,0,3.277
			c-1.254,2.508-1.061,3.857-1.929,7.137c0.771,0.482,0.482,0.867,0.771,1.061c2.411,0.387,5.015,0.098,7.04-0.385
			c1.253,0.191,2.314-0.289,4.243-0.289c0.386-1.158,1.253-0.289,1.832-0.578c3.472-0.291,6.558-2.219,10.126-2.412
			c1.543-1.35,4.146-1.156,5.689-2.314c1.832,0.193,2.796-2.219,5.111-1.639c1.156-0.869,2.217-1.93,3.664-1.93
			c0.385,0.289,0.771,0.58,1.156,0.965c-0.192,1.447-1.832,1.543-2.893,2.314c-1.639,0.193-3.182,0.578-4.34,1.639
			c-2.121-0.096-3.375,1.736-5.4,1.641c-0.771,0.48-1.542,0.578-2.121,0.963c-0.771-0.096-1.446,0.193-2.025,0.482
			c-4.435,0-7.907,2.893-12.343,2.605c-0.579,0.385-1.64,0.385-2.218,0.482c-4.725,1.639-10.222,1.35-15.043,1.252
			c-2.218-0.578-4.918,0-6.847-0.965c-5.979-1.061-11.765-3.471-17.454-5.014c-2.7-1.061-5.208-2.701-7.715-4.051
			c-2.797-1.543-6.075-2.604-8.1-5.4c0-0.191,0-0.482,0.193-0.578C847.522,939.197,852.055,941.703,856.876,943.826z"/>
		<path style="fill:#FF0050;" d="M924.669,913.451c1.253,0.48,2.121-0.193,3.085,0c-0.289,0.674-0.771,1.252-0.771,2.023
			c-0.386,1.061-1.735,1.254-2.507,2.025c-0.771,0.193-0.868,1.254-1.736,1.832c-2.025,1.254-3.857,2.604-5.883,4.051
			c-3.953,0.965-7.521,3.664-12.15,4.146c-3.568,1.641-8.197,1.543-12.15,1.641c-2.411,1.928-6.269,0.191-9.162,1.252
			c-1.446,0.193-2.314-0.385-3.471-0.385c-3.954,1.061-7.522-0.482-11.187-1.061c-2.604-1.158-5.4-1.447-7.907-2.797
			c-0.771-0.578-1.929-0.387-2.7-0.676c-3.086-2.025-6.654-3.279-9.45-5.496c-1.35-0.289-1.736-1.93-3.086-2.219
			c-0.482-0.674-1.447-1.254-0.868-2.699c-0.868-0.676-1.639-2.025,0-1.736c0.386-0.289,0.579-0.096,0.097,0.289
			c3.182,3.857,8.39,7.426,13.5,10.127c1.929,0,3.857,1.061,5.015,2.023c3.954,1.061,7.618,2.508,11.668,2.508
			c1.446,0,2.893,0.289,4.146-0.096c2.507,0.289,4.822,0.965,7.425,0.289c2.507-0.193,5.015-0.482,7.425-0.965
			c7.715-1.543,16.104-1.928,22.469-6.172c2.314-1.543,3.953-2.893,5.979-5.207c-0.289-0.482,1.254-0.385,0.965-1.061
			c-5.979,0.289-13.405,0.482-18.805,0.867c-2.411,1.061-5.208-0.191-7.812,0.193c-2.314,0.289-4.725-0.289-7.136-0.193
			c-1.157,0-2.218-0.191-3.279,0.193c-1.736-0.289-3.954,0.193-5.4-0.771c-0.675-0.578,0.868-0.482,1.061-0.867
			c1.543-0.58,3.086-0.771,4.822-0.098c1.35,0.193,2.7-0.674,3.954-0.674c3.568,0,6.654,0.963,9.064,0.674c0-0.289,1.157,0,2.122,0
			c0.675-0.193,1.35-0.193,1.736-0.096c2.122,0,3.472-0.387,5.4-0.098c3.472-0.867,7.812,0,10.607-0.77
			c0.868-0.193,0.771-0.098,1.64-0.193C922.836,913.258,923.511,912.775,924.669,913.451z"/>
		<path style="fill:#FF0050;" d="M923.029,894.357c-0.964,2.121-3.278,2.314-4.918,3.471c-2.217,1.158-4.629,2.314-7.136,2.605
			c-0.675,0.385-1.639,0.48-2.411,0.578c-6.461,1.156-12.729,3.76-19.479,3.953c-4.629,0.965-9.74,0.482-14.754,0.385
			c-4.146,0-9.45-1.156-13.597-2.988c-2.025-0.482-4.243-1.254-5.69-2.508c-2.122-0.578-3.761-2.121-5.593-3.277
			c-0.385-0.676-0.868-1.352-0.868-2.025c0-0.098-0.097-0.193-0.097-0.193c1.929,0.482,3.761,1.928,5.69,3.086
			c1.543,0.867,2.411,2.025,4.05,2.41c2.797,0.58,5.015,2.508,7.908,2.314c5.304,1.35,11.09,1.254,17.455,0.867
			c-0.964-2.217,0.675-3.084-0.097-4.436c0.097-0.578,0.193-0.963,0.386-1.35c0.29-0.289,0.482-0.578,0.868-0.289
			c0.193,0.193,0.289,0.289,0.482,0.482c-0.193,0.578,0.193,0.965,0.482,1.254c-0.29,1.254,0,2.506-0.193,4.049
			c4.726,0.482,7.908-0.867,11.765-1.061c1.639-0.771,4.146-0.963,6.172-1.543c1.832-0.578,4.05-0.578,5.786-1.639
			c1.446,0.193,3.086-0.289,4.242-1.736c2.508,0.098,4.437-1.734,7.33-2.314c0-0.771,0-0.482,0-0.482
			c0.481-0.191,1.445-1.252,2.604-0.867C923.318,893.586,923.222,893.971,923.029,894.357z"/>
		<path style="fill:#FF0050;" d="M917.628,871.504c-0.289,2.025,0.098,3.76,0.771,5.4c-0.096,0.482-0.481,0.963-0.771,1.061
			c-1.253,1.832,1.158,5.111-2.024,6.074c-1.062,0.289-2.218-0.191-3.086,0.58c-3.375,1.252-4.436,0.289-7.715,0.578
			c-2.893,0.193-6.364-1.254-9.161,0c-1.543,0-2.797-0.578-4.147-0.771c-3.664,1.35-7.811-0.676-11.668,0.289
			c-2.796,0.193-5.014-0.965-7.811,0.289c-0.579,0.098-1.061,0.098-1.543,0.289c-5.689,0-11.572-0.578-17.165,0.098
			c-2.796,0-5.497-0.098-8.004-1.447c-0.482-0.387,0.097-0.965,0.579-1.156c0.675,0,1.64-0.193,2.7,0.674
			c2.025-0.867,3.857,0.096,5.593-0.289c1.446,0.385,3.086,0.482,4.629,0.096c3.278-1.928,6.75,0.289,10.125,0.193
			c3.279-0.096,6.558-1.35,9.933-0.965c3.471,0.482,7.521,0.771,11.089,0.387c1.157-0.387,2.507,0.193,3.568-0.193
			c1.061,0.193,2.507,0.098,3.471,0.771c1.35-0.193,2.99-0.482,4.34-0.867c0.771,0.385,1.929,0.289,2.604,0.482
			c3.665,0.289,4.436,0.771,7.811-0.387c2.218,0.771,1.351-1.543,3.278-2.025c1.254-0.482,0.579-1.061,0.579-1.734
			c-0.289-1.543,1.253-2.701,0.579-4.051c-0.482-1.254-0.097-2.893-1.061-4.244c-0.098-0.385-0.098-0.867,0.385-0.867
			C916.761,869.479,916.955,870.732,917.628,871.504z"/>
		<path style="fill:#FF0050;" d="M840.29,843.057c0.192,1.639,0.868,2.797,1.157,4.531c-0.578,2.604-0.096,4.918,0.868,8.1
			c1.35-0.674,2.314-0.482,2.796-0.287c1.833-0.195,4.146,0.287,5.979,0.191c1.736-0.387,3.857-0.578,5.593-0.578
			c2.7-1.35,6.075-1.736,8.775-2.314c1.542,0.387,3.375,0,4.822,0.193c6.557,0,13.308-1.639,19.479-2.508
			c1.157,0.096,2.893-0.193,3.954,0.096c0.193-0.096,0.675-0.096,0.771-0.191c4.821-0.193,8.679-0.289,13.5-0.289
			c2.218,0,4.146,0.385,6.172,0.48h-0.097c-2.507,1.832-5.979,1.158-8.679,1.736c-3.954-0.963-8.101,1.061-12.344-0.578
			c-2.507,2.604-5.497,0.578-8.1,1.447c-2.411-0.291-5.304-0.193-7.329,1.061c-0.964-0.098-1.832,0.289-3.182-0.193
			c-2.314,1.35-5.208,0.676-7.619,0.676c-3.954-0.869-7.136,1.734-10.896,1.252c-2.7,1.352-5.786,1.158-8.872,1.158
			c-0.964-1.061-2.507-0.096-4.436-2.219c-0.675,4.242-0.289,6.75-0.482,9.354c0.482,2.025-0.289,4.244,0,6.461
			c-0.096,0.098-0.096,0.193-0.193,0.291c-0.771-0.098-0.964-0.965-1.254-1.543c0.579-1.93,0.482-3.857,0-5.787
			c-0.385-0.482,0-1.35,0.097-2.314c-1.061-1.445-0.193-3.568-0.964-4.918c0.482-1.543-0.193-3.182-0.097-4.725
			c-0.868-1.543,0.29-3.568-0.578-5.111c0-1.35-1.833-2.699-0.29-3.76c0.097-0.098,0.29-0.193,0.482-0.291
			C839.711,842.574,840.193,842.67,840.29,843.057z"/>
		<path style="fill:#FF0050;" d="M906.443,796.865c-0.193-0.098,0.868-0.289,1.253-0.193c0.29,0,0.675,0,0.771,0
			c0.579,0.193,1.35,0.482,1.929,0.385c1.35,0.58,2.701,0.291,3.857,0.869c2.314,1.061,5.4,2.025,7.908,4.146
			c1.543,1.639,3.568,2.314,5.111,3.76c0.289,0.869,0.674,1.254,0.481,2.025c-1.543,0.098-2.314-2.121-3.761-2.699
			c-1.061-0.965-2.604-1.254-3.472-2.508c-0.192-0.096-0.579-0.482-0.771-0.578c-0.192-0.098-0.289-0.289-0.289-0.289
			c-0.097,0-0.482-0.193-0.482-0.289c-0.868-0.869-1.157-0.965-1.157-0.58c-0.675-0.191-1.157-0.674-1.832-0.578
			c-0.289-0.096-0.578-0.289-0.771-0.578c-1.157,0.193-1.447-0.387-2.025-0.482c-1.061-0.578-2.7,0-3.857-0.385
			c-0.579,0.096-1.061-0.482-1.736-0.387c-2.314-0.676-3.279-0.096-5.786,0.098c-3.182,1.156-3.278,0.867-5.304,1.639
			c-1.543,0.578-2.411,0.771-3.857,1.445c-1.446,0.676-2.025,1.447-3.472,2.123c-1.35,0.578-2.218,0.385-3.471,0.867
			c-1.447,0.578-2.315,1.254-3.665,1.832c-1.35,0.676-2.411,0.965-3.954,1.639c-1.447,0.869-2.218,1.736-3.954,2.219
			c-0.482,0-1.157,0.096-1.639,0.096c-0.482-0.096-1.061,0.098-1.35,0.098c-0.29,0.096-0.771-0.098-1.061-0.193
			c-1.736,0.578-2.7-0.578-4.533-0.385c-1.736-0.482-3.472-0.676-5.497-1.352c-1.929-1.061-4.436-1.543-6.558-2.988
			c-2.218-1.158-4.436-2.893-6.075-5.016c-0.193-0.289-0.964-1.061-0.289-0.965c1.736,0.773,3.278,2.508,5.111,3.184
			c4.918,3.086,10.029,4.918,15.14,5.4c0.578,0.289,1.253,0,1.929,0.289c0.964,0,2.314,0.289,3.375,0.096
			c3.472,0.387,2.7-1.156,4.146-1.734c1.543-0.58,2.507-0.482,3.857-1.158c0.964-0.578,1.446-1.254,2.604-1.736
			c0.964-0.578,1.64-1.061,2.893-1.252c2.893-0.291,2.989-0.869,4.436-2.123c0.675-0.385,1.061-0.867,1.832-1.156
			c0.675-0.578,1.254-0.289,2.122-0.578c1.157-0.289,1.736-0.676,2.893-1.062c1.061-0.385,2.218-0.867,2.796-0.867
			c2.025-0.867,3.183-0.289,5.111-0.482C905.96,796.479,906.54,796.865,906.443,796.865z"/>
		<path style="fill:#FF0050;" d="M922.546,784.424c0.29,0.098,0.482,0.193,0.676,0.387c-0.868,2.219-3.472,0.965-5.496,1.543
			c-1.736,0.289-3.376,0-5.111,0.096c-4.726,0.098-9.451-0.096-13.983,0c-2.411,0-5.593,0.193-8.101-0.096
			c-1.639-0.193-3.664,0-5.304,0.096c-3.954,0.387-7.715,0-11.861,0.291c-0.193-0.193-0.386-0.193-0.579-0.193
			c-1.736,0.867-3.664,0.096-5.304,0.385c-3.954,0.193-7.714,0.578-11.572,0.578c-2.7-1.156-5.497,0.58-8.293-0.096
			c-0.386-0.096,0.579-1.156,0.868-1.156c4.244-2.895,9.162,1.156,13.887-0.193c5.593-1.543,11.861-0.965,17.358-1.254
			s10.704,0.193,16.297,0c1.543-0.193,3.086-0.193,4.726-0.193c0.386,0,0.868,0.098,1.253,0.098
			c4.243-0.098,8.486-0.098,12.247-0.676C917.147,784.811,919.558,784.328,922.546,784.424z"/>
		<path style="fill:#FF0050;" d="M930.166,763.5c1.254,1.06,0,0.963-0.193,1.349c-5.4,4.725-12.922,3.762-18.707,7.522
			c-4.147,1.543-8.583,2.121-12.633,3.086c-3.182,0.096-6.075,1.447-9.065,0.869c-0.964,0.771-2.411,0-3.471,0.385
			c-6.943,0-10.897-1.35-16.297-2.508c-1.833,0.193-3.761-0.385-5.208-1.639c-2.507,0.289-4.532-0.482-6.365-1.447
			c-4.436-1.639-8.872-3.375-12.054-6.46c0,0.097-0.579-0.193-0.29-0.386c0.771-0.481,1.64,0.386,2.411,0.771
			c4.533,0.386,7.426,3.664,11.476,4.629c1.832,0.963,3.857,0.963,5.593,1.639c7.425,1.93,12.343,3.568,20.154,3.664
			c0.097,0,0.29-0.674,0.29,0.096c6.654-0.385,12.343-1.928,18.419-2.602c6.171-1.93,12.343-4.148,18.515-6.077
			c1.64-1.061,3.568-1.929,5.689-2.7c0.579,0,1.64-1.061,1.93-0.674C930.455,763.018,931.129,763.018,930.166,763.5z"/>
		<path style="fill:#FF0050;" d="M918.111,733.123c-1.156,0.869-2.699,1.447-3.857,2.411c-4.725,1.35-9.835,2.604-14.947,2.604
			c-3.664,0.578-7.425,1.349-10.993,2.218c-1.929-0.193-4.146-0.579-6.364-0.096c-0.29,0.771-0.29,1.06-1.447,1.35
			c1.061,2.797,3.279,4.726,4.339,6.75c0.579,0.289,1.157,1.061,0.964,1.735c-0.386,1.157,0.193,1.157,0.868,1.833
			c0.868,0,1.639,0.096,2.411,0.482c2.025-0.675,3.568-0.675,5.208-0.097c1.832,1.062,3.375,0.29,5.4,0
			c3.857-0.578,7.522-1.446,11.475-1.639c3.086-0.097,6.172-0.097,9.451-0.097c0.289,0.097,0.578,0.193,0.482,0.482
			c0,0.289-0.387,0.579-0.676,0.675c-4.821,0.289-9.45,0.482-13.693,1.833c-3.182-0.097-5.786,0.868-8.775,0.578
			c-7.136-0.675-14.658,0-21.408,0.869c-2.989-0.675-5.303,0.578-8.196,0.385c-7.522-0.578-15.333-0.578-21.987-2.796
			c-0.964-0.29-0.482-1.062-0.964-1.736c0.096-0.289,0.579,0,0.771-0.096c2.314,0.482,4.339,1.542,6.654,1.446
			c0.096,0.096,0.096,0.096,0.193,0.193c3.954-0.193,7.618,1.06,11.09,0.867c2.604,1.447,5.497-0.385,8.293,0.097
			c3.568,0.578,6.558-0.675,10.029-1.158c0.482-0.386,1.157-0.771,1.832-1.542c-1.157-3.086-4.725-5.015-5.111-7.521
			c0.482,0-0.675-0.772-0.193-2.315c-2.989-0.868-5.4,0.289-7.618-0.771c-1.832-0.482-3.665,0.482-5.593-0.58
			c-2.604,1.254-4.918,0.097-7.425,0.29c-1.446-1.254-2.025,1.253-3.761,0.096c-1.64,0.482-3.857,0.771-5.208,0
			c0.096-0.386,0.096-0.675,0-1.061c1.447-0.868,3.472,0.289,4.918-0.868c2.122-0.193,3.665,0.964,5.786,0.578
			c6.172-1.156,13.019,0.193,19.287-0.192c4.339-0.193,9.064,0.482,13.211-0.964c6.557-1.062,13.404-1.929,19.576-3.182
			c1.543-0.964,3.375-2.026,5.304-1.929C917.726,732.545,918.015,732.738,918.111,733.123z"/>
		<path style="fill:#FF0050;" d="M890.821,682.014c3.761,0.29,7.618,1.157,11.668,1.639c4.918,0.579,10.029,1.158,14.658,3.472
			c2.411,2.411,5.399,3.665,7.329,6.847c0.289,1.735,1.543,1.446,0.964,3.568c0.097,0.289-0.192,0-0.192-0.386
			c-2.219,0.097-1.157-0.482-2.797-2.7c-2.508,0.771-4.34-0.385-6.172,0.386c-7.714-0.482-14.368,0-21.89,0.772
			c-1.832,0.868-4.146,0.868-6.268,0.578c-1.35-0.482-2.797,0.482-4.436,0.193c-5.015-0.289-10.607-0.289-15.525,0.386
			c-3.665-0.192-7.233,0-10.994,0.386c-1.446-0.289-3.086-0.771-5.111-0.192c-0.579,1.349-1.253,1.06-0.771,2.217
			c-0.193,0.193-0.386,0.482-0.675,0.675c-0.29-0.097-0.579,0-0.868-0.29c0.386-2.796,2.218-4.339,3.954-6.46
			c3.375-3.087,7.714-4.533,11.379-7.523c2.411-1.542,4.918-1.735,7.521-2.796c3.279-0.482,6.943-0.289,10.125-0.964
			C885.42,682.496,888.024,682.303,890.821,682.014z M875.584,684.425c-3.761-0.193-6.364,1.542-9.932,2.603
			c-0.193,0.193-1.061,1.061-1.543,1.351c-2.7,1.928-5.883,2.797-8.775,6.654c3.472-0.29,5.208,0.964,6.847,0.289
			c2.411,0.29,4.532-0.964,6.943-1.061c3.471,1.061,7.232,0.193,10.8,0.675c3.279,0.386,6.847-0.385,10.222-0.579
			c5.979-2.314,12.922-0.675,19.094-1.35c2.989,0,6.461-0.482,11.186,0.097c-1.832-3.857-5.11-4.533-7.328-5.786
			c-5.69-1.543-11.379-2.508-17.262-3.086c-1.157-0.193-2.604,0.29-3.665-0.386C886.867,684.135,880.502,682.303,875.584,684.425z"
			/>
		<path style="fill:#FF0050;" d="M925.537,645.755c2.41,0.289,4.051-0.29,4.629,0.868c0,0.097-0.097,0.289-0.097,0.385
			c-3.567,2.026-8.196,1.158-12.343,2.315c-7.33,1.06-14.852,1.64-21.602,3.375c-1.543,2.122-3.279,5.015-2.218,7.811
			c0.096,0.097-0.29,0-0.675,0.675c0.675,0.964-0.386,1.35-0.386,2.122c-0.386,1.832-0.193,4.146-0.964,7.329
			c5.593,1.254,10.897,1.157,15.526,2.411c3.375,0.965,8.1-0.579,11.475,1.158c1.254,0,2.797-0.193,3.664,0.868
			c0.193,0.482-0.674,0.482-1.061,0.482c-3.953-0.675-6.943-0.386-10.703-0.868c-4.436-1.929-11.187-0.29-16.008-2.218
			c-1.736,0-4.436,0.482-5.786-0.482c-4.532-1.061-9.932,0.29-14.175-1.735c-7.908,0.289-14.465-2.99-22.565-2.99
			c-0.386-0.385-0.386-1.061-1.253-1.157c-2.314-0.771-5.304,0.675-6.75-1.254c0.579-1.06,2.122-0.578,3.279-1.446
			c9.74-2.122,18.708-6.364,28.641-8.197c2.796-1.349,6.268-1.735,9.354-2.989c1.061-0.097,2.122-0.289,3.086,0.096
			c1.928-0.578,4.05-1.253,6.171-1.253c4.532-0.096,8.583-2.218,13.308-1.832c1.447-0.868,3.665-0.192,5.208-0.675
			c2.989-0.29,6.075-1.061,8.872-1.832c0.578-0.29,0.867-0.482,0.965-0.676c0.867-0.385,0.964-0.385,1.639-0.289
			C924.765,645.852,925.537,645.562,925.537,645.755z M889.085,653.566c-4.822,2.122-10.415,2.122-15.429,3.568
			c-5.883,1.64-11.379,4.919-18.033,6.172c0,1.64,0.675,2.218,1.833,2.314c2.7,0.964,5.207,2.025,8.293,2.411
			c5.689,0.772,12.344,0.29,17.744,1.639c1.447,0,3.568,0,5.497,0.579c0.964-1.157,1.061-2.314,1.929-2.893
			c0-1.157,0.29-2.025,0.386-2.893c0.193-1.446,0.193-2.797,0.482-3.857c0.482-1.833,0.771-2.508,0.964-4.05
			C895.353,652.023,890.821,653.663,889.085,653.566z"/>
		<path style="fill:#FF0050;" d="M913.29,625.408c-3.472,2.507-7.907,2.121-11.09,4.822c-1.253,0.385-2.604,1.06-3.664,1.735
			c-2.99-0.096-6.076,1.833-10.126,3.665c2.604,1.061,4.533,0.771,5.883,0.386c5.689,0,10.704-0.964,16.683-0.097
			c1.64,0,3.665-0.482,5.111,0.193c2.796,0.097,6.075-0.675,8.485,0.675c0.098,0.096,0.098,0.096,0.193,0.193
			c-2.025,0.578-4.629,0.385-6.654,0.289c-1.735-0.482-3.568,0.193-5.496,0.193c-3.761,0.096-7.715-1.254-11.09,0.385
			c-3.086,0.386-5.979-1.061-8.968,0c-2.7,0.868-5.4-0.482-7.908,0.771c-4.628-0.771-10.607,0.097-15.622-0.771
			c-5.689,0-11.476,0.386-17.068-0.578c-3.086-0.097-4.34-0.675-7.233-1.254c-0.096,0,0.482-0.675,0.482-0.868
			c3.085-1.832,4.146-2.411,7.425-3.664c4.532-1.833,9.354-1.447,13.886-2.7c6.365,0.096,12.633,0.964,17.262,7.04
			c8.486-5.111,17.551-5.69,25.748-10.125c3.664-1.157,7.039-2.99,10.704-4.146c0.579,0,1.543-0.386,2.218-0.193
			C919.461,623.093,916.375,624.443,913.29,625.408z M858.998,631.772c-1.253,0.386-2.796-0.096-3.954,0.675
			c-1.543-0.193-2.989,0.675-4.243,1.157l-2.315,1.639c0.868,0.097,4.244,0.386,5.208,0.579c1.253,1.253,3.471,0.675,5.014,1.061
			c7.136-0.964,15.14,0.193,23.723-0.193c-1.254-1.543-2.507-1.929-3.183-2.604c-1.35-1.35-5.111-2.797-7.618-3.857
			C867.291,630.808,862.662,629.843,858.998,631.772z"/>
		<path style="fill:#FF0050;" d="M922.546,611.135c0.29,0.096,0.482,0.192,0.676,0.386c-0.868,2.217-3.472,0.964-5.496,1.543
			c-1.736,0.289-3.376,0-5.111,0.096c-4.726,0.096-9.451-0.096-13.983,0c-2.411,0-5.593,0.193-8.101-0.096
			c-1.639-0.193-3.664,0-5.304,0.096c-3.954,0.386-7.715,0-11.861,0.29c-0.193-0.193-0.386-0.193-0.579-0.193
			c-1.736,0.868-3.664,0.097-5.304,0.386c-3.954,0.193-7.714,0.578-11.572,0.578c-2.7-1.157-5.497,0.579-8.293-0.096
			c-0.386-0.097,0.579-1.157,0.868-1.157c4.244-2.893,9.162,1.157,13.887-0.194c5.593-1.542,11.861-0.964,17.358-1.253
			c5.497-0.29,10.704,0.193,16.297,0c1.543-0.193,3.086-0.193,4.726-0.193c0.386,0,0.868,0.097,1.253,0.097
			c4.243-0.097,8.486-0.097,12.247-0.675C917.147,611.521,919.558,611.039,922.546,611.135z"/>
		<path style="fill:#FF0050;" d="M859.577,583.749c1.061,0,2.604-0.096,3.761-0.192c2.796-1.736,7.136,0,10.415,0.386
			c2.025-1.158,5.4-0.482,7.522-0.675c3.086-0.771,7.136,0.193,10.704,0.193c6.268,0,13.5-0.193,19.769-0.482
			c0.964-0.097,1.929-0.675,2.796-0.29c0.098,0.097,0.193-0.096,0.29-0.096c-2.218,1.446-4.918,1.542-7.136,2.507
			c-3.182,2.796-6.847,4.243-10.222,6.365c-4.05,1.832-8.197,3.182-11.861,5.979c-1.157,0.579-2.218,1.254-3.375,1.833l-2.797,1.35
			l3.183,0.193c7.521,0.482,14.561-1.35,22.276-0.289c3.086,0,5.979-1.254,8.969-0.675c0.771-0.097,1.735,0,2.41,0
			c-0.096,0.193,0,0.579-0.096,0.675c-0.771,0-1.447,0.192-2.122,0.675c-0.771,0.386-1.735,0.386-2.604,0.579
			c-2.604,0.29-5.208-0.097-7.811,0.482c-7.04,0.193-13.886-0.675-20.733,0.097c-3.182-0.579-6.365,1.061-9.45,0.193
			c-2.025,0.482-4.629-0.579-6.172,0.579c-4.629-0.482-9.161-1.254-13.983-1.254c-1.061-0.385-2.7,0-3.182-1.157
			c-0.096-0.096,0.579-1.061,0.579-0.578c5.208-1.351,9.644,1.735,15.622,1.061c3.086-0.386,6.268,0,9.547-0.965
			c0.964-1.35,2.411-1.253,3.472-2.121c1.929-0.29,3.857-0.771,5.111-2.122c4.918-2.411,9.933-3.279,13.886-6.847
			c1.158-0.482,2.314-1.061,3.568-2.122c0-0.289,2.796-1.543,2.796-1.832c-0.096-0.193-2.989,0.482-2.989,0.096
			c-3.761,0-7.232-0.675-10.222,0.386c-5.4-1.35-10.993-1.446-16.779-0.193c-4.146-0.482-8.39-1.061-12.44-0.289
			c-3.375-1.447-7.136,1.543-10.222-1.157c-0.289-0.868-1.833-0.579-1.736-1.64C853.598,581.82,856.394,583.653,859.577,583.749z"/>
		<path style="fill:#FF0050;" d="M915.701,573.238c0,0.482-0.676,0.772-1.061,0.868c-1.447,0.964-3.473,0.097-5.015,0.869
			c-0.482,0-0.868-0.193-1.157-0.482c0-0.482,0.193-0.675,0.386-0.868c1.35-0.386,2.701-2.604,4.339-0.964
			C914.447,572.563,915.025,572.853,915.701,573.238z"/>
	</g>
	<path style="fill:none;stroke:#17192D;stroke-width:3;" d="M2048,0"/>
	<path style="fill:none;stroke:#17192D;stroke-width:3;" d="M2048,1536"/>
	<path style="fill:none;stroke:#17192D;stroke-width:3;" d="M0,1536"/>
	<path style="fill:none;stroke:#17192D;stroke-width:3;" d="M0,0"/>
</g>
<g id="Layer_1">
</g>
</svg>
