<svg xmlns="http://www.w3.org/2000/svg" width="2048" height="1536" viewBox="0 0 2048 1536"><g><g fill="#FF0050"><path d="M708.045 1457.254c5.69.29 11.09 2.314 16.683 4.05 3.857.578 8.1.868 11.572 2.41 3.953.387 7.33 1.255 11.38 1.447 2.12.098 4.34-.385 5.978.772 4.533.965 9.065 1.832 13.31 3.375 4.435 2.314 10.027 1.64 14.367 4.725l-.29-.385c-7.136 1.93-14.175 3.857-21.504 4.725-4.628-1.157-8.967.965-13.692.58-8.197 1.542-16.2 1.83-24.3 2.7-1.93-.772-4.147.19-6.173.577-1.157.192-2.7.096-3.665-.58.29-1.928 3.182-.578 4.34-1.06 5.69.578 10.993-2.025 16.49-1.543 2.795-.097 5.303-.097 8.292-.58.386-.48.77-.48 1.06-.578 5.787-.482 12.248-.868 17.745-1.254 4.05-1.64 8.39-2.314 12.922-2.797l.096-1.35c-8.39-2.798-17.07-5.016-25.94-6.076-4.437.192-8.197-.868-12.15-1.446-5.98-2.797-13.5-1.447-19.19-4.726-3.666 0-7.33-2.025-10.8-2.508-.098 0 .288-.48.674-.77.963-.097 1.83.77 2.795.29zM785.675 1420.995c2.41.29 4.05-.29 4.628.87 0 .095-.096.288-.096.384-3.568 2.024-8.197 1.156-12.344 2.313-7.33 1.06-14.85 1.64-21.6 3.376-1.544 2.12-3.28 5.013-2.22 7.81.097.097-.29 0-.675.675.675.965-.386 1.35-.386 2.122-.386 1.832-.192 4.146-.964 7.33 5.593 1.252 10.896 1.156 15.525 2.41 3.375.964 8.1-.58 11.476 1.156 1.253 0 2.796-.192 3.663.868.193.482-.675.482-1.06.482-3.954-.675-6.944-.386-10.705-.867-4.436-1.93-11.187-.29-16.008-2.218-1.735 0-4.436.48-5.786-.482-4.532-1.06-9.933.29-14.175-1.736-7.91.29-14.467-2.99-22.567-2.99-.386-.386-.386-1.06-1.254-1.157-2.315-.77-5.305.676-6.75-1.253.578-1.062 2.12-.58 3.278-1.447 9.74-2.12 18.708-6.364 28.64-8.196 2.798-1.35 6.27-1.736 9.355-2.99 1.062-.096 2.122-.29 3.086.097 1.928-.578 4.05-1.253 6.17-1.253 4.533-.096 8.584-2.217 13.31-1.83 1.445-.87 3.664-.194 5.207-.676 2.99-.29 6.075-1.062 8.87-1.833.58-.288.87-.48.966-.674.867-.386.964-.386 1.64-.29 0 .096.772-.193.772 0zm-36.452 7.812c-4.82 2.12-10.415 2.12-15.43 3.568-5.882 1.64-11.38 4.918-18.033 6.172 0 1.64.675 2.218 1.833 2.313 2.7.965 5.207 2.025 8.293 2.41 5.69.772 12.344.29 17.744 1.64 1.446 0 3.567 0 5.496.58.965-1.158 1.06-2.314 1.93-2.894 0-1.157.29-2.025.385-2.893.194-1.447.194-2.797.483-3.857.482-1.832.77-2.508.964-4.05 2.604-4.532-1.93-2.893-3.664-2.99zM777.767 1399.298c-.29 2.025.097 3.762.77 5.4-.096.482-.48.965-.77 1.06-1.254 1.833 1.157 5.112-2.024 6.076-1.062.29-2.22-.192-3.086.58-3.375 1.252-4.437.288-7.715.578-2.894.192-6.364-1.254-9.16 0-1.544 0-2.798-.58-4.147-.772-3.665 1.35-7.812-.675-11.67.29-2.795.192-5.013-.965-7.81.29-.58.095-1.06.095-1.543.288-5.69 0-11.572-.578-17.165.097-2.796 0-5.497-.097-8.004-1.446-.482-.387.097-.966.58-1.158.674 0 1.64-.193 2.7.675 2.024-.868 3.856.097 5.592-.29 1.446.387 3.086.482 4.628.098 3.28-1.93 6.75.29 10.125.192 3.28-.097 6.558-1.35 9.933-.965 3.473.482 7.522.772 11.09.386 1.158-.386 2.508.193 3.568-.192 1.062.192 2.508.097 3.472.77 1.35-.19 2.99-.48 4.34-.867.77.385 1.93.288 2.604.48 3.664.29 4.436.772 7.812-.385 2.218.77 1.35-1.543 3.278-2.025 1.254-.482.58-1.06.58-1.735-.29-1.543 1.252-2.7.577-4.05-.48-1.254-.096-2.894-1.06-4.244-.097-.385-.097-.866.386-.866 1.253-.29 1.446.962 2.12 1.734zM753.272 1368.826c3.568-.29 6.27 1.157 9.547 1.93.675.577 1.35.577 1.35.48.192.097 1.446.386 2.507.965l.29.097c1.446.772 1.542.676 2.604.772 1.736 1.155 3.954 1.35 5.4 2.41 2.894 2.12 7.137 4.145 9.74 7.23 1.832 2.315 3.665 3.57 5.304 5.884.097.578.482 1.156.097 1.832-.77 0-.288.675-1.445-1.06l-.193-.387c-1.06.288-1.93.77-2.604.963-1.64 0-4.146 0-5.883.193-1.06-.29-2.796.386-3.76 0-4.822.29-11.09.482-16.395.096-1.253.58-2.99.193-4.146.098-5.015-.29-9.547-1.833-14.08-1.35-3.085-.098-6.75.867-10.028-.387-2.314.29-5.98-.29-7.81-.192-.097 0-.194.193-.29.29-4.726-.58-10.8.192-15.333-.29-.482-.192-.868-.868-.193-.964 9.257-.77 20.926-.868 30.666-.097 2.218-.193 5.593.288 7.907-.098l.29.29c3.567 0 6.46.675 10.125 1.06.386-.29.77-.096 1.06.098 5.4.29 13.02-.482 18.227-.097 2.894-1.35 5.98.77 8.775-.675.29-.482.29.964 2.218-.387-.578-.19-1.157-1.155-.867-1.155-.77-1.543-2.988-1.35-4.05-4.437-.578.58-.386-.29-.867-.29 0 0-.482-.288-.675-.385-.097-.097-.482-.192-.482-.965-.965 0-1.157-.29-1.446-.096-.965-.386-.965-1.735-2.122-1.735-.482-.193-1.157-.387-1.446-.772-1.157-.29-1.64-1.446-2.7-1.64-1.543-1.06-3.857-.867-5.11-1.735-1.062 0-1.158-.868-2.41-.964-3.377-1.833-7.813-1.833-11.38-2.604-5.208 0-9.933-1.062-15.237 0-1.735 0-3.278.675-4.82.964-.87.578-1.93.386-2.798.868-7.136 2.218-14.368 5.11-20.54 10.03-2.507 1.252-3.76 3.856-6.365 5.11-.58.385-.193-.483 0-.772 1.93-2.604 4.532-5.4 7.232-7.426 2.604-1.93 6.075-3.375 8.968-5.11 2.604-1.157 5.4-1.93 7.618-2.894 2.797-.192 3.375-1.928 6.27-1.64.577-.096 1.06-.48 2.12-.385.482-.386.868-.193 1.543-.482.868 0 1.832 0 2.894-.29 3.854-.188 8.676-.767 12.725.1zM773.428 1348.093c-3.472 2.508-7.908 2.12-11.09 4.822-1.254.386-2.604 1.06-3.665 1.735-2.99-.097-6.075 1.832-10.125 3.665 2.604 1.06 4.532.77 5.883.385 5.69 0 10.704-.964 16.684-.096 1.64 0 3.664-.482 5.11.192 2.797.097 6.075-.675 8.486.675l.193.194c-2.025.58-4.63.386-6.654.29-1.737-.483-3.57.19-5.498.19-3.76.1-7.714-1.252-11.09.388-3.085.386-5.98-1.062-8.968 0-2.7.867-5.4-.482-7.907.77-4.63-.77-10.608.098-15.623-.77-5.69 0-11.476.386-17.07-.58-3.085-.096-4.338-.674-7.23-1.253-.097 0 .48-.676.48-.868 3.087-1.833 4.148-2.41 7.427-3.665 4.533-1.832 9.355-1.446 13.887-2.7 6.365.097 12.633.965 17.262 7.04 8.485-5.11 17.55-5.69 25.746-10.125 3.665-1.157 7.04-2.99 10.704-4.147.58 0 1.543-.386 2.22-.192-2.99 1.735-6.077 3.086-9.162 4.05zm-54.293 6.365c-1.253.386-2.796-.097-3.954.675-1.542-.193-2.99.675-4.242 1.157l-2.314 1.64c.868.096 4.243.386 5.208.578 1.253 1.254 3.472.675 5.015 1.06 7.136-.963 15.14.194 23.723-.19-1.254-1.544-2.508-1.93-3.183-2.605-1.35-1.35-5.11-2.797-7.62-3.857-4.338.577-8.967-.387-12.632 1.542zM785.675 1309.037c2.41.29 4.05-.29 4.628.868 0 .097-.096.29-.096.386-3.568 2.026-8.197 1.158-12.344 2.315-7.33 1.06-14.85 1.64-21.6 3.375-1.544 2.12-3.28 5.015-2.22 7.812.097.096-.29 0-.675.675.675.964-.386 1.35-.386 2.12-.386 1.834-.192 4.147-.964 7.33 5.593 1.254 10.896 1.157 15.525 2.41 3.375.965 8.1-.578 11.476 1.157 1.253 0 2.796-.192 3.663.868.193.482-.675.482-1.06.482-3.954-.675-6.944-.386-10.705-.868-4.436-1.928-11.187-.29-16.008-2.218-1.735 0-4.436.482-5.786-.482-4.532-1.06-9.933.29-14.175-1.735-7.91.29-14.467-2.988-22.567-2.988-.386-.386-.386-1.062-1.254-1.157-2.315-.77-5.305.675-6.75-1.254.578-1.06 2.12-.578 3.278-1.445 9.74-2.12 18.708-6.364 28.64-8.196 2.798-1.352 6.27-1.737 9.355-2.99 1.062-.098 2.122-.29 3.086.096 1.928-.578 4.05-1.253 6.17-1.253 4.533-.098 8.584-2.22 13.31-1.833 1.445-.868 3.664-.192 5.207-.675 2.99-.29 6.075-1.06 8.87-1.832.58-.29.87-.482.966-.676.867-.385.964-.385 1.64-.29 0 .097.772-.192.772 0zm-36.452 7.812c-4.82 2.12-10.415 2.12-15.43 3.567-5.882 1.64-11.38 4.917-18.033 6.17 0 1.64.675 2.22 1.833 2.315 2.7.965 5.207 2.025 8.293 2.41 5.69.772 12.344.29 17.744 1.64 1.446 0 3.567 0 5.496.58.965-1.158 1.06-2.315 1.93-2.894 0-1.158.29-2.025.385-2.894.194-1.446.194-2.797.483-3.857.482-1.832.77-2.507.964-4.05 2.604-4.53-1.93-2.893-3.664-2.988zM750.958 1284.543c3.762.29 7.62 1.157 11.67 1.64 4.917.578 10.028 1.156 14.656 3.47 2.41 2.412 5.4 3.666 7.33 6.85.29 1.734 1.542 1.445.964 3.566.097.29-.193 0-.193-.387-2.218.097-1.157-.482-2.796-2.7-2.51.77-4.34-.386-6.173.386-7.715-.483-14.37 0-21.89.77-1.833.868-4.147.868-6.27.58-1.35-.483-2.796.48-4.436.19-5.014-.288-10.606-.288-15.525.387-3.665-.192-7.232 0-10.993.386-1.447-.29-3.086-.77-5.11-.192-.58 1.35-1.254 1.062-.772 2.22-.193.192-.386.48-.675.674-.29-.097-.58 0-.868-.29.386-2.796 2.218-4.34 3.954-6.46 3.376-3.086 7.716-4.532 11.38-7.52 2.41-1.544 4.918-1.737 7.52-2.798 3.28-.482 6.944-.29 10.127-.964 2.702.673 5.305.48 8.1.19zm-15.236 2.41c-3.76-.192-6.364 1.544-9.933 2.605-.194.192-1.062 1.06-1.543 1.35-2.7 1.93-5.883 2.797-8.775 6.654 3.47-.29 5.207.964 6.847.29 2.41.288 4.53-.966 6.942-1.062 3.472 1.06 7.232.192 10.8.675 3.28.386 6.848-.386 10.223-.58 5.98-2.312 12.923-.674 19.094-1.35 2.988 0 6.46-.48 11.186.098-1.832-3.857-5.11-4.532-7.33-5.786-5.688-1.543-11.378-2.508-17.26-3.086-1.158-.19-2.605.29-3.665-.385-5.305.29-11.67-1.543-16.588.58zM779.117 1254.07c.77.386 1.543 0 2.41.193.676 0 1.157.192 1.736.578.097.483-.482.87-.77 1.352-.676.867-1.447-.482-1.64-.482-.193-.386-1.158.482-2.122-.965-1.928.58-3.664.58-5.014.193-2.7.29-5.69-.482-8.293.578-1.062.097-1.64 1.35-2.122 1.93-.095 0-.48 1.156-1.35 1.542-1.253 1.157-3.085 2.99-3.664 3.472-.482.482 0-.578-.867.386-.483.386-.29.58-.966 1.64-.868 1.06-2.604 2.893-2.99 3.375-.578 1.158-1.156 2.508-1.83 4.052 2.023 1.35 4.05.964 5.4 1.832 1.734.097 3.855.48 5.688.964 1.06-.867 1.832.193 2.604.193 1.06.58 2.7.483 3.954 1.062 2.41.386 4.532 1.832 7.23 1.35.966.193 2.123.58 3.088.868-.097.192-.193.386-.387.386-1.638.29-3.084-.578-4.53-.482-.387-.29-.676-.386-1.062-.29-.77-.096-1.543-.288-2.218-.288-1.543-.482-2.604.386-5.11-1.254 0 1.446.192.58.192.58-1.446-.388-3.472-.966-5.4-.87-1.157-.77-2.604-.48-3.76-.77-2.7-.29-4.533-1.35-7.138-1.157 0 0-.096-.097-.192-.097-.77-.48-1.64-.192-2.12-.675-5.884-1.64-11.862-3.278-17.745-4.918-1.35-.675-2.507-.965-3.954-1.543-1.93-.675-3.76-1.832-5.786-2.604-2.025-.77-3.954-2.025-6.27-2.7-.577-.29-1.54.192-1.54-.77 0-.29-.29-.966-.098-1.062.674-1.062 2.603-1.062 3.567-1.543 2.314-.193 5.593-.676 8.39-1.254 1.06-1.255 2.7-.29 3.954-.772 4.726.193 9.644-2.218 15.044-1.543 6.847-1.06 14.465-1.64 20.926-1.06 4.92.383 9.84-.1 14.757.575zm-29.22 1.64c-1.253-.482-3.182.675-5.11.29-2.314-.387-4.822.385-7.137.77-2.218-.386-3.953.965-6.172.77-1.446.194-3.857.194-5.786.58-3.182.578-6.075 1.446-9.74 1.735 1.447 1.64 4.05 2.797 4.436 2.893 2.025.676 3.665 1.833 5.497 2.41 2.796.966 5.208 1.93 7.812 2.7 1.832.483 4.243 1.062 5.882 1.352 1.83-.097 4.436 1.542 6.942 1.93 1.446.19.77.866 2.797.288.77-1.832 1.928-3.086 2.603-4.726.868-1.157 1.35-1.253 2.604-2.604.868-.868 1.736-2.218 2.7-3.472.868-.964 2.025-2.025 2.604-2.7 0-.192 1.158-1.446 1.158-2.218-1.35-.29-2.893-.29-3.76-.386-2.605-.384-4.63.002-7.33.388zM738.422 1189.172c6.46 2.313 13.308 1.64 19.48 4.242 6.364 2.7 13.307 3.857 19.864 5.98.193.19.482.48.675.77-2.12.87-4.917-.868-7.424-.578-7.618-.58-14.754 1.93-22.758 2.99l-.386 1.734c8.68 1.736 16.008 5.4 24.012 6.943.29.193.77.29 1.06.482 1.736.097 3.858-1.062 5.112-.097-.097.675-.772.964-1.447 1.157-1.544-.193-2.7.868-4.147 1.254-8.582-.387-16.2 1.445-24.88 2.024-10.704.77-21.312 1.543-31.437 1.446-5.304.77-9.354.964-13.5.482-.386-.193-1.157 0-1.543-.097.29-.192.58-.482.868-.77 3.183-.677 5.98-.677 9.355-.966 14.658-1.158 30.763.097 45.806-2.41 2.7-.483 5.4-.29 8.295-.58 1.93-.675 1.06-2.604-.386-2.217-6.27-3.087-13.888-3.57-20.156-5.884-1.156-.386-2.99-.098-3.472-1.254.193-.386.58-.578.965-.772 6.558-2.12 13.693-2.893 23.53-5.4-6.076-2.218-9.644-2.603-12.44-4.242-7.04 0-11.86-2.893-18.9-2.893-5.4-2.026-11.766-1.16-17.166-3.473-4.435-.097-8.1-1.062-13.307-1.93-.096 0-.386 0-.482-.096.097-.19.194-.385.29-.674.77 0 1.253-.386 1.64-.58 10.896.873 21.89 3.96 32.882 5.406zM732.443 1150.79c2.7.483 4.918.965 7.81.58 5.016 2.12 10.802-.868 15.527 2.603 2.604.58 5.882.676 8.293 1.93 4.05 1.35 8.293 1.928 11.765 4.725 1.446 1.93 2.508 3.665 3.568 5.69-.193 1.928-.097 4.145-1.832 5.014-3.665 1.446-7.52 2.122-11.09 3.953-7.715.193-14.85 2.99-22.083 1.736-3.47.772-6.846-.096-10.317.482-5.98-.385-11.476-2.796-17.262-3.856-1.252-1.06-6.17-1.93-2.217-3.472 2.604-.482 4.243 1.446 6.558 2.024 1.35.29 2.605 1.833 4.147 1.833 5.882 1.062 10.994 2.123 17.358 1.352 5.497 1.35 11.476 0 16.973-1.157 5.207-.387 9.933-1.833 14.754-3.183 2.314-1.062 1.446-2.99 2.508-5.497-1.254-.868-.868-2.7-1.736-3.47-1.543-1.738-4.63-2.605-6.558-3.763-3.182-.482-6.364 0-8.68-1.832-2.603-.482-5.592.192-7.617-1.832-8.68-1.446-17.455-.77-25.556-2.797-4.725-.48-8.68-.674-12.536-3.085.193-.58 1.157-.29 1.543-.482 5.98-.386 10.8 2.99 16.683 2.508zM773.428 1128.226c-3.472 2.507-7.908 2.12-11.09 4.822-1.254.385-2.604 1.06-3.665 1.735-2.99-.097-6.075 1.832-10.125 3.664 2.604 1.06 4.532.77 5.883.386 5.69 0 10.704-.964 16.684-.097 1.64 0 3.664-.482 5.11.193 2.797.096 6.075-.677 8.486.674l.193.193c-2.025.578-4.63.385-6.654.29-1.737-.483-3.57.192-5.498.192-3.76.095-7.714-1.255-11.09.384-3.085.387-5.98-1.06-8.968 0-2.7.868-5.4-.482-7.907.77-4.63-.77-10.608.098-15.623-.77-5.69 0-11.476.387-17.07-.578-3.085-.097-4.338-.675-7.23-1.254-.097 0 .48-.675.48-.868 3.087-1.832 4.148-2.41 7.427-3.664 4.533-1.833 9.355-1.446 13.887-2.7 6.365.097 12.633.965 17.262 7.04 8.485-5.11 17.55-5.69 25.746-10.126 3.665-1.157 7.04-2.99 10.704-4.146.58 0 1.543-.386 2.22-.193-2.99 1.736-6.077 3.087-9.162 4.05zm-54.293 6.364c-1.253.387-2.796-.096-3.954.676-1.542-.193-2.99.675-4.242 1.157l-2.314 1.64c.868.096 4.243.385 5.208.578 1.253 1.254 3.472.676 5.015 1.062 7.136-.965 15.14.192 23.723-.193-1.254-1.544-2.508-1.93-3.183-2.604-1.35-1.35-5.11-2.798-7.62-3.857-4.338.576-8.967-.39-12.632 1.54zM750.958 1101.224c3.762.29 7.62 1.158 11.67 1.64 4.917.58 10.028 1.157 14.656 3.472 2.41 2.41 5.4 3.665 7.33 6.847.29 1.735 1.542 1.446.964 3.568.097.29-.193 0-.193-.385-2.218.097-1.157-.482-2.796-2.7-2.51.77-4.34-.386-6.173.386-7.715-.48-14.37 0-21.89.772-1.833.868-4.147.868-6.27.578-1.35-.482-2.796.482-4.436.192-5.014-.288-10.606-.288-15.525.387-3.665-.193-7.232 0-10.993.385-1.447-.29-3.086-.772-5.11-.192-.58 1.35-1.254 1.06-.772 2.218-.193.193-.386.482-.675.676-.29-.097-.58 0-.868-.29.386-2.796 2.218-4.34 3.954-6.46 3.376-3.087 7.716-4.533 11.38-7.522 2.41-1.543 4.918-1.736 7.52-2.796 3.28-.482 6.944-.29 10.127-.964 2.702.672 5.305.48 8.1.19zm-15.236 2.41c-3.76-.19-6.364 1.544-9.933 2.605-.194.19-1.062 1.06-1.543 1.35-2.7 1.928-5.883 2.796-8.775 6.653 3.47-.29 5.207.964 6.847.29 2.41.288 4.53-.966 6.942-1.063 3.472 1.062 7.232.192 10.8.675 3.28.387 6.848-.385 10.223-.578 5.98-2.314 12.923-.675 19.094-1.35 2.988 0 6.46-.482 11.186.097-1.832-3.857-5.11-4.533-7.33-5.786-5.688-1.544-11.378-2.508-17.26-3.086-1.158-.193-2.605.29-3.665-.387-5.305.29-11.67-1.54-16.588.58zM783.167 1083.096c-.964 2.12-3.278 2.314-4.918 3.47-2.22 1.16-4.63 2.316-7.137 2.605-.676.387-1.64.483-2.41.58-6.462 1.156-12.73 3.76-19.48 3.953-4.63.965-9.74.482-14.754.386-4.148 0-9.452-1.158-13.6-2.99-2.024-.482-4.242-1.254-5.688-2.508-2.122-.578-3.76-2.12-5.593-3.278-.387-.676-.87-1.35-.87-2.025 0-.098-.096-.193-.096-.193 1.93.482 3.76 1.93 5.69 3.085 1.542.868 2.41 2.025 4.05 2.41 2.797.58 5.015 2.51 7.908 2.315 5.304 1.35 11.09 1.254 17.455.868-.965-2.218.675-3.086-.097-4.436.097-.58.192-.965.386-1.352.29-.29.48-.578.867-.29l.482.482c-.192.58.193.965.482 1.255-.29 1.253 0 2.507-.193 4.05 4.726.48 7.908-.868 11.766-1.062 1.64-.77 4.146-.964 6.17-1.542 1.834-.578 4.052-.578 5.787-1.64 1.446.194 3.086-.288 4.243-1.734 2.508.096 4.437-1.736 7.33-2.315v-.48c.48-.192 1.445-1.254 2.603-.868-.097.482-.193.867-.386 1.254zM779.117 1025.043c.77.387 1.543 0 2.41.193.676 0 1.157.193 1.736.58.097.48-.482.866-.77 1.35-.676.867-1.447-.483-1.64-.483-.193-.386-1.158.482-2.122-.964-1.928.577-3.664.577-5.014.19-2.7.29-5.69-.48-8.293.58-1.062.096-1.64 1.35-2.122 1.928-.095 0-.48 1.158-1.35 1.544-1.253 1.157-3.085 2.99-3.664 3.472-.482.48 0-.58-.867.386-.483.385-.29.578-.966 1.64-.868 1.06-2.604 2.892-2.99 3.374-.578 1.157-1.156 2.508-1.83 4.05 2.023 1.35 4.05.965 5.4 1.833 1.734.097 3.855.482 5.688.964 1.06-.866 1.832.194 2.604.194 1.06.578 2.7.482 3.954 1.06 2.41.387 4.532 1.834 7.23 1.352.966.192 2.123.578 3.088.867-.097.193-.193.386-.387.386-1.638.288-3.084-.58-4.53-.482-.387-.29-.676-.386-1.062-.29-.77-.096-1.543-.29-2.218-.29-1.543-.48-2.604.387-5.11-1.252 0 1.446.192.578.192.578-1.446-.386-3.472-.964-5.4-.868-1.157-.77-2.604-.482-3.76-.77-2.7-.29-4.533-1.35-7.138-1.158 0 0-.096-.096-.192-.096-.77-.482-1.64-.193-2.12-.676-5.884-1.64-11.862-3.278-17.745-4.918-1.35-.675-2.507-.965-3.954-1.543-1.93-.675-3.76-1.832-5.786-2.604-2.025-.77-3.954-2.024-6.27-2.7-.577-.288-1.54.193-1.54-.77 0-.29-.29-.965-.098-1.06.674-1.062 2.603-1.062 3.567-1.544 2.314-.193 5.593-.676 8.39-1.254 1.06-1.254 2.7-.29 3.954-.77 4.726.192 9.644-2.22 15.044-1.544 6.847-1.06 14.465-1.64 20.926-1.06 4.92.383 9.84-.1 14.757.575zm-29.22 1.64c-1.253-.482-3.182.676-5.11.29-2.314-.387-4.822.386-7.137.77-2.218-.385-3.953.965-6.172.77-1.446.194-3.857.194-5.786.58-3.182.58-6.075 1.446-9.74 1.735 1.447 1.64 4.05 2.797 4.436 2.894 2.025.675 3.665 1.832 5.497 2.41 2.796.965 5.208 1.93 7.812 2.7 1.832.482 4.243 1.06 5.882 1.35 1.83-.096 4.436 1.544 6.942 1.93 1.446.192.77.868 2.797.29.77-1.833 1.928-3.087 2.603-4.727.868-1.157 1.35-1.253 2.604-2.604.868-.867 1.736-2.217 2.7-3.47.868-.965 2.025-2.025 2.604-2.7 0-.193 1.158-1.447 1.158-2.22-1.35-.288-2.893-.288-3.76-.385-2.605-.384-4.63.002-7.33.388zM778.828 990.23c.192.482 1.735.482 1.156 1.254-2.7 1.833-6.364-.192-9.257 1.35-9.74 2.99-20.06.772-29.99 2.122-5.786.77-11.188.77-16.877 1.93l-3.278-.098-.097.386 3.28 1.447c3.76.772 8.582.868 12.15 1.736 3.375.868 6.268.964 9.547 1.93 3.567.674 7.04.288 11.09.385.29.194.77.098.964.387-5.11 2.12-11.38.675-16.683 2.218-1.446 1.254-3.857.868-5.593 1.64-6.172 0-12.055 2.12-17.84 2.41-.675.58-1.833.676-2.797 1.062 0 .386-2.604.964-2.507 1.156.096.29 3.086.193 3.182.676 9.547 1.445 18.226 0 27 1.06 5.4-2.025 10.994 1.157 16.202-.578 6.172-2.025 13.114.29 18.61-1.832 1.64 0 3.376-.868 4.822 0 1.736.096 4.63-1.64 5.98.192 0 .192.19.097.288.192-1.35.868-3.472.193-4.726.386-7.328 1.832-15.043 2.314-22.66 3.472-3.087 0-6.173.482-9.066-.386-3.76.097-7.618.386-11.57-.29-9.163-.288-17.552 1.544-26.135-.964-3.182-.964-6.268 0-9.064-.675 0-.578-2.123.482-1.64-.385.578-.29.963-1.254 2.024-1.447 4.34-2.41 10.03-1.735 14.85-3.472 5.883-1.06 12.537-1.735 18.612-3.182l3.183-.77v-.386l-3.184-.58c-3.953-.674-7.714-1.253-11.668-1.734-4.82-2.218-10.51-2.025-15.333-4.146-.29-.29-.77-.482-1.157-.676.77-1.156 3.086-.097 4.243-.192 4.05-2.122 8.584-.482 13.02-1.64 10.125-1.06 17.648-.482 27.58-1.35 2.314-.676 5.883-.676 8.486-1.062 4.63-.675 9.547 1.158 13.02-1.735.675-.484 1.253-.29 1.832.19zM729.357 928.225c3.857.097 7.52.675 11.38 1.06s8.003.194 11.765.387c.385 0 .675.482 1.06.482 2.7.193 5.305.482 7.908.29 7.33.674 14.272.578 21.408 1.542.675.482 0 .868.29 1.543-1.062.48-1.35.578-2.605.675-4.436-.868-7.812 2.893-12.15 2.218-3.28.964-6.847.77-10.222 1.735-3.182 2.7-8.293.578-14.85 2.604 4.82 2.025 7.04 1.93 9.064 2.314 3.472.77 6.557.77 10.028 1.35 3.183.482 6.75 1.544 9.74 1.544 1.35.29 2.604.578 4.146.675.29.386.964.29 1.446.386 1.736-.29 3.76-.385 5.497-.48.193.096.29.19.387.288-.965 1.35-3.183.58-4.437 1.254-5.014 2.025-10.896 2.604-16.875 3.086-5.11.386-10.223.77-14.947 1.543-4.34.483-8.775 2.026-13.212 2.026-.578.386-1.735.29-2.314.386-8.004 1.93-16.876 1.543-25.458 1.93-1.157-.387-5.4 1.638-4.146-.773.675-.097 1.157-.675 1.832-.965 9.258-1.06 18.61.58 27.966-1.543 4.436.29 8.293-1.543 12.344-2.218.867-.097 1.735.193 2.604 0 6.558-1.06 14.368-1.93 21.12-3.086l4.05-.675c-3.473-.868-10.32-1.735-13.02-2.7-6.46 0-11.86-2.218-18.226-2.893-2.99-.29-5.594-.868-7.812-1.062-.096-.192-1.06.386-1.253 0 1.157-1.06 2.796-.192 3.857-1.253 1.64-.29 3.376-.482 5.208-.772 2.7-.48 5.496-1.06 8.196-1.35 1.736-.192 3.568 0 5.11-.192 2.122-.29 2.894-.867 4.92-1.156 1.542-.193 2.217-.097 3.76-.29.482-.096.675-.385 1.157-.385 3.087-.483 6.56-.388 9.45-1.544l3.762-1.447c-3.856-.58-12.054-.29-15.718-.676-7.426-.868-15.912-.675-23.337-1.06-.482-.29-1.254-.194-1.93-.966-7.618-.386-13.886-2.7-21.504-1.93-2.314-.77-4.532.388-6.75-.19-1.35-.387-2.7 0-3.954-.772-.194-.193-.676-.29-.87-.482 5.016-2.218 10.898-.192 16.105 0 3.57.094 6.85.77 10.032 1.54zM779.117 894.858c.77.387 1.543 0 2.41.193.676 0 1.157.194 1.736.58.097.48-.482.867-.77 1.35-.676.868-1.447-.482-1.64-.482-.193-.386-1.158.482-2.122-.964-1.928.578-3.664.578-5.014.192-2.7.29-5.69-.48-8.293.578-1.062.097-1.64 1.35-2.122 1.93-.095 0-.48 1.157-1.35 1.542-1.253 1.158-3.085 2.99-3.664 3.473-.482.48 0-.58-.867.384-.483.386-.29.58-.966 1.64-.868 1.06-2.604 2.893-2.99 3.375-.578 1.156-1.156 2.507-1.83 4.05 2.023 1.35 4.05.964 5.4 1.832 1.734.096 3.855.482 5.688.964 1.06-.868 1.832.193 2.604.193 1.06.577 2.7.48 3.954 1.06 2.41.386 4.532 1.833 7.23 1.35.966.193 2.123.58 3.088.868-.097.193-.193.386-.387.386-1.638.29-3.084-.578-4.53-.48-.387-.29-.676-.388-1.062-.29-.77-.098-1.543-.29-2.218-.29-1.543-.482-2.604.386-5.11-1.254 0 1.446.192.58.192.58-1.446-.387-3.472-.965-5.4-.87-1.157-.77-2.604-.48-3.76-.77-2.7-.29-4.533-1.35-7.138-1.157 0 0-.096-.096-.192-.096-.77-.482-1.64-.193-2.12-.676-5.884-1.64-11.862-3.278-17.745-4.917-1.35-.675-2.507-.965-3.954-1.543-1.93-.676-3.76-1.832-5.786-2.604-2.025-.77-3.954-2.024-6.27-2.7-.577-.288-1.54.193-1.54-.77 0-.29-.29-.965-.098-1.06.674-1.062 2.603-1.062 3.567-1.544 2.314-.193 5.593-.676 8.39-1.254 1.06-1.254 2.7-.29 3.954-.77 4.726.192 9.644-2.22 15.044-1.544 6.847-1.06 14.465-1.64 20.926-1.06 4.92.382 9.84-.1 14.757.574zm-29.22 1.64c-1.253-.482-3.182.676-5.11.29-2.314-.387-4.822.386-7.137.77-2.218-.385-3.953.965-6.172.772-1.446.193-3.857.193-5.786.58-3.182.577-6.075 1.445-9.74 1.734 1.447 1.64 4.05 2.797 4.436 2.893 2.025.676 3.665 1.833 5.497 2.41 2.796.965 5.208 1.93 7.812 2.7 1.832.483 4.243 1.062 5.882 1.352 1.83-.098 4.436 1.542 6.942 1.928 1.446.192.77.868 2.797.29.77-1.833 1.928-3.087 2.603-4.727.868-1.156 1.35-1.252 2.604-2.603.868-.868 1.736-2.218 2.7-3.472.868-.964 2.025-2.024 2.604-2.7 0-.192 1.158-1.447 1.158-2.218-1.35-.29-2.893-.29-3.76-.386-2.605-.383-4.63.002-7.33.388zM766.58 871.52c-.192-.096.868-.288 1.254-.19h.77c.58.19 1.352.48 1.93.385 1.35.58 2.7.29 3.857.868 2.315 1.06 5.4 2.024 7.908 4.146 1.543 1.64 3.568 2.313 5.11 3.76.29.867.676 1.254.483 2.025-1.542.096-2.313-2.123-3.76-2.7-1.062-.965-2.605-1.254-3.472-2.508-.193-.097-.58-.482-.77-.578-.194-.098-.29-.29-.29-.29-.097 0-.482-.193-.482-.29-.868-.868-1.157-.964-1.157-.578-.677-.193-1.158-.675-1.833-.58-.29-.095-.58-.288-.772-.577-1.156.192-1.446-.386-2.024-.482-1.06-.58-2.7 0-3.856-.386-.578.097-1.06-.482-1.736-.386-2.313-.674-3.278-.096-5.785.098-3.183 1.157-3.28.868-5.304 1.64-1.544.578-2.412.77-3.858 1.446-1.446.675-2.025 1.446-3.472 2.12-1.35.58-2.218.387-3.472.87-1.446.577-2.314 1.253-3.665 1.83-1.35.676-2.41.966-3.953 1.64-1.446.87-2.218 1.736-3.954 2.22-.482 0-1.157.096-1.64.096-.482-.097-1.06.096-1.35.096-.29.097-.77-.096-1.06-.192-1.737.578-2.7-.578-4.533-.386-1.736-.48-3.472-.675-5.497-1.35-1.93-1.062-4.436-1.543-6.558-2.99-2.218-1.157-4.436-2.893-6.075-5.015-.193-.29-.964-1.06-.29-.964 1.736.77 3.28 2.506 5.11 3.182 4.92 3.086 10.03 4.918 15.14 5.4.58.29 1.255 0 1.93.29.964 0 2.314.288 3.375.095 3.472.387 2.7-1.156 4.146-1.735 1.543-.58 2.507-.482 3.857-1.158.966-.577 1.447-1.253 2.605-1.734.965-.58 1.64-1.062 2.894-1.254 2.892-.29 2.988-.868 4.435-2.122.675-.385 1.06-.867 1.832-1.156.675-.58 1.254-.29 2.122-.58 1.156-.288 1.734-.674 2.892-1.06 1.06-.386 2.218-.868 2.797-.868 2.023-.867 3.18-.29 5.11-.482.58-.002 1.157.383 1.06.383zM770.823 853.393c3.762.964 6.46 4.146 10.223 5.304.578 1.06 1.832 1.64 2.41 2.7-.867.29-1.832-.578-2.604-.964-.675-.676-1.35-1.062-2.314-1.158-2.12-1.543-5.015-2.218-7.232-3.953-1.64-.578-4.05-.77-5.882-1.64-3.28-.192-6.558-.192-9.74.386-3.086.58-6.075 1.832-8.486 3.954-3.182 1.543-6.847 2.7-10.318 3.472-5.4 2.7-12.247 2.41-17.84.192-3.28 0-5.11-2.796-8.1-3.182-.87-.676-1.64-1.35-2.7-1.736-.58-.482-.29-1.254-.772-1.93 0-.19-.386.098-.193.194 1.35.096 2.797.675 3.954 1.253 5.11 3.954 11.957 4.147 18.128 5.497 4.34-.193 7.907-2.218 12.054-3.183 2.604-1.64 5.883-2.22 8.486-3.857 1.93-.193 3.472-2.41 5.497-1.93 4.34-1.543 9.45-1.543 13.597 0 .578.29 1.156.483 1.83.58zM783.167 833.046c-.964 2.122-3.278 2.314-4.918 3.473-2.22 1.156-4.63 2.312-7.137 2.603-.676.385-1.64.482-2.41.578-6.462 1.158-12.73 3.763-19.48 3.954-4.63.965-9.74.482-14.754.386-4.148 0-9.452-1.156-13.6-2.988-2.024-.482-4.242-1.255-5.688-2.508-2.122-.578-3.76-2.122-5.593-3.278-.387-.675-.87-1.35-.87-2.025 0-.096-.096-.192-.096-.192 1.93.482 3.76 1.93 5.69 3.086 1.542.868 2.41 2.025 4.05 2.41 2.797.58 5.015 2.51 7.908 2.315 5.304 1.35 11.09 1.252 17.455.866-.965-2.218.675-3.085-.097-4.436.097-.578.192-.964.386-1.35.29-.29.48-.58.867-.29l.482.482c-.192.58.193.965.482 1.254-.29 1.254 0 2.508-.193 4.05 4.726.482 7.908-.867 11.766-1.06 1.64-.77 4.146-.965 6.17-1.544 1.834-.578 4.052-.578 5.787-1.64 1.446.193 3.086-.29 4.243-1.735 2.508.097 4.437-1.735 7.33-2.314v-.48c.48-.194 1.445-1.255 2.603-.87-.097.48-.193.868-.386 1.253zM773.428 811.542c-3.472 2.508-7.908 2.122-11.09 4.822-1.254.386-2.604 1.06-3.665 1.735-2.99-.097-6.075 1.832-10.125 3.664 2.604 1.06 4.532.77 5.883.386 5.69 0 10.704-.965 16.684-.097 1.64 0 3.664-.482 5.11.193 2.797.096 6.075-.676 8.486.675l.193.193c-2.025.58-4.63.386-6.654.29-1.737-.482-3.57.192-5.498.192-3.76.097-7.714-1.254-11.09.386-3.085.387-5.98-1.06-8.968 0-2.7.868-5.4-.48-7.907.772-4.63-.77-10.608.096-15.623-.77-5.69 0-11.476.385-17.07-.58-3.085-.096-4.338-.674-7.23-1.253-.097 0 .48-.676.48-.87 3.087-1.83 4.148-2.41 7.427-3.663 4.533-1.832 9.355-1.447 13.887-2.7 6.365.097 12.633.964 17.262 7.04 8.485-5.112 17.55-5.69 25.746-10.126 3.665-1.156 7.04-2.99 10.704-4.146.58 0 1.543-.385 2.22-.192-2.99 1.737-6.077 3.086-9.162 4.05zm-54.293 6.365c-1.253.386-2.796-.097-3.954.675-1.542-.192-2.99.675-4.242 1.157l-2.314 1.64c.868.096 4.243.385 5.208.577 1.253 1.254 3.472.675 5.015 1.062 7.136-.966 15.14.19 23.723-.194-1.254-1.543-2.508-1.93-3.183-2.604-1.35-1.35-5.11-2.797-7.62-3.857-4.338.578-8.967-.386-12.632 1.542zM783.167 764.482c-.964 2.122-3.278 2.314-4.918 3.472-2.22 1.158-4.63 2.315-7.137 2.604-.676.386-1.64.482-2.41.58-6.462 1.156-12.73 3.76-19.48 3.952-4.63.965-9.74.482-14.754.387-4.148 0-9.452-1.157-13.6-2.99-2.024-.482-4.242-1.254-5.688-2.507-2.122-.58-3.76-2.123-5.593-3.28-.387-.675-.87-1.35-.87-2.024 0-.097-.096-.193-.096-.193 1.93.482 3.76 1.93 5.69 3.086 1.542.867 2.41 2.024 4.05 2.41 2.797.58 5.015 2.508 7.908 2.315 5.304 1.35 11.09 1.254 17.455.867-.965-2.218.675-3.086-.097-4.436.097-.58.192-.964.386-1.35.29-.29.48-.58.867-.29l.482.482c-.192.578.193.965.482 1.254-.29 1.253 0 2.507-.193 4.05 4.726.482 7.908-.868 11.766-1.06 1.64-.772 4.146-.966 6.17-1.544 1.834-.578 4.052-.578 5.787-1.64 1.446.193 3.086-.29 4.243-1.735 2.508.096 4.437-1.736 7.33-2.314v-.483c.48-.192 1.445-1.254 2.603-.868-.097.48-.193.866-.386 1.252zM773.428 742.98c-3.472 2.505-7.908 2.12-11.09 4.82-1.254.386-2.604 1.06-3.665 1.737-2.99-.097-6.075 1.832-10.125 3.663 2.604 1.062 4.532.772 5.883.386 5.69 0 10.704-.964 16.684-.096 1.64 0 3.664-.482 5.11.192 2.797.097 6.075-.674 8.486.676l.193.192c-2.025.578-4.63.386-6.654.29-1.737-.482-3.57.192-5.498.192-3.76.096-7.714-1.253-11.09.386-3.085.386-5.98-1.06-8.968 0-2.7.867-5.4-.482-7.907.77-4.63-.77-10.608.097-15.623-.77-5.69 0-11.476.386-17.07-.578-3.085-.097-4.338-.676-7.23-1.254-.097 0 .48-.674.48-.868 3.087-1.832 4.148-2.41 7.427-3.664 4.533-1.833 9.355-1.446 13.887-2.7 6.365.095 12.633.963 17.262 7.04 8.485-5.112 17.55-5.69 25.746-10.126 3.665-1.158 7.04-2.99 10.704-4.147.58 0 1.543-.385 2.22-.19-2.99 1.734-6.077 3.084-9.162 4.05zm-54.293 6.362c-1.253.386-2.796-.096-3.954.676-1.542-.194-2.99.674-4.242 1.157l-2.314 1.64c.868.096 4.243.384 5.208.58 1.253 1.25 3.472.673 5.015 1.06 7.136-.965 15.14.19 23.723-.194-1.254-1.542-2.508-1.928-3.183-2.603-1.35-1.35-5.11-2.797-7.62-3.857-4.338.578-8.967-.386-12.632 1.542zM778.73 719.352c1.736 2.025 2.894 4.05 4.63 6.46.29 2.315 1.93 2.315 1.543 4.147-1.543 2.12-2.41 1.06-4.243 1.156-5.98-.77-13.02.482-18.805.868-5.207-.386-8.1.386-15.236.58-1.833.77-4.438.29-6.462 0-2.122.867-5.69.48-8.004-.193-7.714.965-14.08.193-21.6.58-.58-.097-1.447.385-1.062-.29 0-.097.096-.482.096-.58.193-.19.29-.48.482-.867-.097-.675-.193.29.29.29.867-1.06 1.253-2.99 2.7-2.99.77-1.06 1.542-1.64 2.41-1.93 1.735-1.64 2.7-3.085 5.014-3.085 3.954-3.182 8.968-2.796 13.5-2.796 4.533 1.542 8.294 3.954 12.15 8.968 1.64-1.832 1.544-4.34 2.605-4.82.675-1.64 1.928-2.99 3.47-4.63 3.087-2.12 5.787-2.506 9.066-3.76 3.76-2.604 7.81 1.253 11.57-.193 1.93.385 3.667 2.41 5.885 3.085zm-56.895 4.82c-2.122 2.798-4.05 1.254-5.786 5.112-.29.193-.58.386-1.062.097-3.665 1.64.29 1.833 1.832 1.93 3.183-1.062 4.726.192 7.908.096 3.28-1.06 7.04.386 10.512-.578 1.06-.29 1.832-.097 2.796-.097 2.122-.48 3.568.483 7.812 0-2.99-2.507-3.665-3.18-5.207-4.242-2.218-.964-4.242-2.508-6.268-3.666-4.34-.964-8.872-.19-12.537 1.35zm31.534-2.796c-2.605 2.508-3.568 4.244-6.076 9.45 2.7 0 4.05-.867 5.208-.48 4.82-2.027 9.257.866 14.27-.387 3.184-1.158 6.56 0 9.837-1.158 1.156.58 4.628.58 5.496.193.097-.193-.868-1.157-.58-2.41-1.35-1.93-2.603-4.052-3.663-6.365-2.12-.193-3.375-.58-4.82-1.447-3.087-.578-6.463-2.315-9.837-1.157-3.376 1.157-6.654 2.122-9.837 3.76zM785.675 679.526c2.41.29 4.05-.29 4.628.868 0 .097-.096.29-.096.386-3.568 2.025-8.197 1.157-12.344 2.314-7.33 1.06-14.85 1.64-21.6 3.375-1.544 2.12-3.28 5.013-2.22 7.81.097.097-.29 0-.675.676.675.964-.386 1.35-.386 2.122-.386 1.832-.192 4.146-.964 7.33 5.593 1.253 10.896 1.156 15.525 2.41 3.375.965 8.1-.58 11.476 1.158 1.253 0 2.796-.193 3.663.868.193.482-.675.482-1.06.482-3.954-.675-6.944-.386-10.705-.868-4.436-1.93-11.187-.29-16.008-2.218-1.735 0-4.436.482-5.786-.482-4.532-1.06-9.933.29-14.175-1.736-7.91.29-14.467-2.99-22.567-2.99-.386-.385-.386-1.06-1.254-1.156-2.315-.77-5.305.675-6.75-1.254.578-1.06 2.12-.578 3.278-1.446 9.74-2.122 18.708-6.364 28.64-8.197 2.798-1.35 6.27-1.737 9.355-2.99 1.062-.097 2.122-.29 3.086.097 1.928-.58 4.05-1.254 6.17-1.254 4.533-.096 8.584-2.218 13.31-1.832 1.445-.867 3.664-.19 5.207-.674 2.99-.29 6.075-1.06 8.87-1.832.58-.29.87-.482.966-.675.867-.387.964-.387 1.64-.29 0 .092.772-.197.772-.004zm-36.452 7.81c-4.82 2.122-10.415 2.122-15.43 3.568-5.882 1.64-11.38 4.918-18.033 6.172 0 1.64.675 2.218 1.833 2.314 2.7.964 5.207 2.025 8.293 2.41 5.69.772 12.344.29 17.744 1.64 1.446 0 3.567 0 5.496.58.965-1.158 1.06-2.315 1.93-2.894 0-1.157.29-2.025.385-2.893.194-1.446.194-2.796.483-3.857.482-1.833.77-2.507.964-4.05 2.604-4.533-1.93-2.893-3.664-2.99zM732.443 645.87c2.7.483 4.918.965 7.81.58 5.016 2.12 10.802-.87 15.527 2.603 2.604.58 5.882.675 8.293 1.93 4.05 1.35 8.293 1.928 11.765 4.725 1.446 1.93 2.508 3.664 3.568 5.69-.193 1.928-.097 4.145-1.832 5.013-3.665 1.448-7.52 2.123-11.09 3.955-7.715.193-14.85 2.99-22.083 1.735-3.47.772-6.846-.096-10.317.482-5.98-.386-11.476-2.796-17.262-3.857-1.252-1.06-6.17-1.93-2.217-3.47 2.604-.483 4.243 1.445 6.558 2.023 1.35.29 2.605 1.833 4.147 1.833 5.882 1.06 10.994 2.122 17.358 1.35 5.497 1.35 11.476 0 16.973-1.156 5.207-.386 9.933-1.832 14.754-3.182 2.314-1.06 1.446-2.99 2.508-5.497-1.254-.868-.868-2.7-1.736-3.47-1.543-1.737-4.63-2.605-6.558-3.762-3.182-.482-6.364 0-8.68-1.832-2.603-.48-5.592.193-7.617-1.832-8.68-1.446-17.455-.77-25.556-2.796-4.725-.482-8.68-.675-12.536-3.085.193-.58 1.157-.29 1.543-.482 5.98-.388 10.8 2.988 16.683 2.506zM700.427 616.458c.193 1.64.868 2.796 1.157 4.532-.58 2.604-.096 4.918.868 8.1 1.35-.674 2.315-.48 2.797-.288 1.83-.193 4.145.29 5.978.193 1.736-.386 3.857-.58 5.593-.58 2.7-1.35 6.076-1.735 8.776-2.313 1.543.386 3.375 0 4.822.193 6.558 0 13.31-1.64 19.48-2.507 1.156.096 2.893-.193 3.953.096.193-.096.676-.096.772-.192 4.82-.193 8.68-.29 13.5-.29 2.22 0 4.147.386 6.172.482h-.096c-2.508 1.833-5.98 1.158-8.68 1.736-3.953-.964-8.1 1.06-12.343-.58-2.508 2.605-5.497.58-8.1 1.447-2.412-.29-5.305-.193-7.33 1.06-.964-.096-1.832.29-3.183-.192-2.314 1.35-5.207.675-7.618.675-3.954-.868-7.136 1.736-10.897 1.253-2.7 1.35-5.786 1.157-8.872 1.157-.964-1.06-2.507-.096-4.436-2.218-.676 4.243-.29 6.75-.483 9.354.482 2.025-.29 4.244 0 6.46-.097.098-.097.194-.193.29-.77-.096-.964-.964-1.254-1.543.58-1.928.482-3.857 0-5.786-.386-.482 0-1.35.097-2.314-1.06-1.446-.193-3.568-.964-4.918.482-1.543-.193-3.182-.097-4.725-.868-1.543.29-3.568-.58-5.11 0-1.352-1.83-2.702-.288-3.762.096-.097.29-.193.482-.29.39.098.87.195.967.58zM775.838 608.744c0 .482-.675.77-1.06.868-1.447.964-3.473.097-5.016.868-.48 0-.867-.193-1.157-.482 0-.482.193-.675.386-.868 1.352-.386 2.7-2.604 4.34-.964 1.255-.097 1.833.192 2.508.578z"/></g><path d="M2048 0M2048 1536M0 1536M0 0" fill="none" stroke="#17192D" stroke-width="3"/></g></svg>