<?xml version="1.0" encoding="iso-8859-1"?>
<!-- Generator: Adobe Illustrator 15.1.0, SVG Export Plug-In . SVG Version: 6.00 Build 0)  -->
<!DOCTYPE svg PUBLIC "-//W3C//DTD SVG 1.1//EN" "http://www.w3.org/Graphics/SVG/1.1/DTD/svg11.dtd">
<svg version="1.1" xmlns="http://www.w3.org/2000/svg" xmlns:xlink="http://www.w3.org/1999/xlink" x="0px" y="0px" width="2048px"
	 height="1536px" viewBox="0 0 2048 1536" style="enable-background:new 0 0 2048 1536;" xml:space="preserve">
<g id="atxtb_x5F_1">
	<g>
		<path style="fill:#FF0050;" d="M708.045,1457.254c5.69,0.289,11.09,2.314,16.683,4.05c3.857,0.578,8.101,0.868,11.572,2.411
			c3.953,0.386,7.329,1.254,11.379,1.446c2.122,0.097,4.34-0.386,5.979,0.771c4.533,0.965,9.065,1.832,13.309,3.375
			c4.436,2.314,10.028,1.64,14.368,4.725l-0.289-0.385c-7.137,1.929-14.176,3.857-21.505,4.725
			c-4.629-1.157-8.968,0.965-13.693,0.579c-8.197,1.543-16.201,1.832-24.301,2.7c-1.929-0.771-4.146,0.192-6.172,0.578
			c-1.157,0.193-2.7,0.097-3.665-0.578c0.289-1.929,3.182-0.579,4.339-1.062c5.69,0.579,10.994-2.024,16.49-1.542
			c2.796-0.097,5.304-0.097,8.293-0.579c0.386-0.482,0.771-0.482,1.061-0.579c5.786-0.481,12.247-0.867,17.744-1.253
			c4.05-1.64,8.39-2.314,12.922-2.797l0.097-1.35c-8.39-2.797-17.069-5.015-25.94-6.075c-4.437,0.192-8.197-0.868-12.151-1.446
			c-5.979-2.797-13.5-1.447-19.19-4.726c-3.665,0-7.329-2.025-10.8-2.508c-0.097,0,0.289-0.481,0.675-0.771
			C706.213,1456.867,707.081,1457.735,708.045,1457.254z"/>
		<path style="fill:#FF0050;" d="M785.675,1420.995c2.41,0.29,4.05-0.289,4.628,0.869c0,0.096-0.096,0.289-0.096,0.385
			c-3.568,2.025-8.197,1.157-12.344,2.314c-7.329,1.061-14.851,1.64-21.601,3.376c-1.543,2.121-3.279,5.014-2.219,7.811
			c0.097,0.097-0.289,0-0.675,0.675c0.675,0.965-0.386,1.351-0.386,2.122c-0.386,1.832-0.192,4.146-0.964,7.329
			c5.593,1.253,10.896,1.157,15.525,2.41c3.375,0.965,8.101-0.578,11.476,1.157c1.254,0,2.797-0.192,3.664,0.868
			c0.193,0.481-0.675,0.481-1.061,0.481c-3.953-0.675-6.943-0.386-10.704-0.867c-4.436-1.929-11.187-0.289-16.008-2.218
			c-1.735,0-4.436,0.481-5.786-0.482c-4.532-1.061-9.933,0.289-14.175-1.736c-7.908,0.29-14.466-2.989-22.566-2.989
			c-0.386-0.386-0.386-1.061-1.254-1.157c-2.314-0.771-5.304,0.676-6.75-1.253c0.579-1.062,2.122-0.579,3.279-1.447
			c9.74-2.121,18.708-6.364,28.641-8.196c2.797-1.351,6.269-1.736,9.354-2.989c1.062-0.097,2.122-0.29,3.086,0.096
			c1.929-0.578,4.051-1.253,6.172-1.253c4.532-0.097,8.583-2.218,13.308-1.832c1.446-0.868,3.665-0.193,5.208-0.675
			c2.989-0.29,6.075-1.062,8.871-1.833c0.579-0.289,0.868-0.482,0.965-0.675c0.867-0.386,0.964-0.386,1.64-0.29
			C784.903,1421.092,785.675,1420.803,785.675,1420.995z M749.223,1428.807c-4.821,2.121-10.415,2.121-15.43,3.568
			c-5.882,1.64-11.379,4.918-18.033,6.172c0,1.639,0.675,2.218,1.833,2.313c2.7,0.965,5.207,2.025,8.293,2.411
			c5.689,0.771,12.344,0.289,17.744,1.64c1.446,0,3.567,0,5.496,0.578c0.965-1.157,1.061-2.313,1.929-2.893
			c0-1.157,0.29-2.025,0.386-2.893c0.193-1.447,0.193-2.797,0.482-3.857c0.482-1.832,0.771-2.508,0.964-4.05
			C755.491,1427.264,750.958,1428.903,749.223,1428.807z"/>
		<path style="fill:#FF0050;" d="M777.767,1399.298c-0.289,2.025,0.097,3.762,0.771,5.4c-0.097,0.482-0.481,0.965-0.771,1.061
			c-1.254,1.832,1.157,5.111-2.024,6.075c-1.062,0.289-2.219-0.192-3.086,0.579c-3.375,1.253-4.437,0.289-7.715,0.579
			c-2.894,0.192-6.364-1.254-9.161,0c-1.543,0-2.797-0.579-4.146-0.772c-3.665,1.351-7.812-0.675-11.669,0.29
			c-2.796,0.192-5.014-0.965-7.811,0.289c-0.579,0.096-1.061,0.096-1.543,0.289c-5.689,0-11.572-0.578-17.165,0.097
			c-2.796,0-5.497-0.097-8.004-1.446c-0.482-0.386,0.097-0.965,0.579-1.157c0.675,0,1.64-0.193,2.7,0.675
			c2.025-0.868,3.857,0.097,5.593-0.289c1.446,0.386,3.086,0.481,4.628,0.097c3.279-1.929,6.75,0.289,10.125,0.192
			c3.279-0.097,6.558-1.351,9.933-0.965c3.472,0.482,7.521,0.772,11.09,0.386c1.157-0.386,2.507,0.193,3.567-0.192
			c1.062,0.192,2.508,0.097,3.472,0.771c1.351-0.192,2.99-0.482,4.34-0.868c0.771,0.386,1.929,0.289,2.604,0.482
			c3.664,0.289,4.436,0.771,7.812-0.386c2.218,0.771,1.35-1.543,3.278-2.025c1.254-0.482,0.579-1.061,0.579-1.735
			c-0.29-1.543,1.253-2.7,0.578-4.051c-0.482-1.253-0.097-2.893-1.061-4.243c-0.097-0.386-0.097-0.867,0.386-0.867
			C776.899,1397.273,777.092,1398.526,777.767,1399.298z"/>
		<path style="fill:#FF0050;" d="M753.272,1368.826c3.568-0.289,6.269,1.157,9.547,1.929c0.676,0.578,1.351,0.578,1.351,0.481
			c0.192,0.097,1.446,0.386,2.507,0.965l0.29,0.096c1.446,0.772,1.542,0.676,2.604,0.772c1.735,1.156,3.953,1.35,5.4,2.41
			c2.893,2.121,7.136,4.146,9.739,7.232c1.832,2.314,3.665,3.568,5.304,5.883c0.097,0.578,0.482,1.156,0.097,1.832
			c-0.771,0-0.289,0.675-1.446-1.061l-0.193-0.386c-1.061,0.289-1.929,0.771-2.604,0.964c-1.64,0-4.146,0-5.883,0.193
			c-1.061-0.289-2.796,0.386-3.761,0c-4.821,0.289-11.09,0.482-16.394,0.096c-1.253,0.579-2.989,0.193-4.146,0.098
			c-5.015-0.29-9.547-1.833-14.079-1.351c-3.086-0.097-6.75,0.868-10.029-0.386c-2.314,0.289-5.979-0.29-7.811-0.192
			c-0.096,0-0.193,0.192-0.289,0.289c-4.726-0.579-10.801,0.192-15.333-0.289c-0.482-0.193-0.868-0.869-0.193-0.965
			c9.257-0.771,20.926-0.868,30.666-0.097c2.218-0.192,5.593,0.289,7.907-0.097c0.097,0.097,0.193,0.193,0.289,0.289
			c3.568,0,6.461,0.676,10.126,1.062c0.386-0.29,0.771-0.097,1.061,0.097c5.4,0.289,13.019-0.482,18.226-0.097
			c2.894-1.351,5.979,0.771,8.775-0.675c0.29-0.482,0.29,0.964,2.218-0.387c-0.578-0.192-1.157-1.156-0.867-1.156
			c-0.771-1.543-2.989-1.351-4.051-4.437c-0.578,0.579-0.386-0.289-0.867-0.289c0,0-0.482-0.289-0.675-0.386
			c-0.097-0.097-0.482-0.192-0.482-0.965c-0.965,0-1.157-0.289-1.446-0.096c-0.965-0.386-0.965-1.735-2.122-1.735
			c-0.482-0.193-1.157-0.387-1.446-0.772c-1.157-0.289-1.64-1.446-2.7-1.639c-1.543-1.062-3.857-0.868-5.111-1.736
			c-1.061,0-1.157-0.868-2.41-0.964c-3.376-1.833-7.812-1.833-11.38-2.604c-5.207,0-9.932-1.062-15.236,0
			c-1.735,0-3.278,0.675-4.821,0.964c-0.868,0.578-1.929,0.386-2.797,0.868c-7.136,2.218-14.368,5.11-20.54,10.029
			c-2.507,1.253-3.761,3.857-6.365,5.11c-0.579,0.386-0.193-0.482,0-0.771c1.929-2.604,4.532-5.4,7.232-7.426
			c2.604-1.929,6.075-3.375,8.968-5.11c2.604-1.157,5.4-1.929,7.618-2.894c2.797-0.192,3.375-1.928,6.269-1.639
			c0.578-0.097,1.061-0.482,2.121-0.386c0.482-0.386,0.868-0.193,1.543-0.482c0.868,0,1.832,0,2.894-0.289
			C744.401,1368.537,749.223,1367.958,753.272,1368.826z"/>
		<path style="fill:#FF0050;" d="M773.428,1348.093c-3.472,2.508-7.908,2.121-11.09,4.822c-1.254,0.386-2.604,1.061-3.665,1.735
			c-2.989-0.097-6.075,1.832-10.125,3.665c2.604,1.061,4.532,0.771,5.883,0.385c5.689,0,10.703-0.964,16.683-0.096
			c1.639,0,3.664-0.482,5.11,0.192c2.797,0.097,6.075-0.675,8.486,0.675c0.097,0.097,0.097,0.097,0.193,0.193
			c-2.025,0.579-4.629,0.386-6.654,0.289c-1.736-0.482-3.568,0.192-5.497,0.192c-3.761,0.098-7.714-1.253-11.09,0.387
			c-3.085,0.386-5.979-1.062-8.968,0c-2.7,0.867-5.4-0.482-7.907,0.771c-4.629-0.771-10.608,0.097-15.623-0.771
			c-5.689,0-11.476,0.386-17.069-0.579c-3.086-0.097-4.339-0.675-7.232-1.254c-0.096,0,0.482-0.675,0.482-0.867
			c3.086-1.833,4.147-2.411,7.426-3.665c4.532-1.832,9.354-1.446,13.886-2.7c6.365,0.097,12.633,0.965,17.262,7.04
			c8.486-5.111,17.551-5.689,25.747-10.125c3.665-1.157,7.04-2.99,10.704-4.147c0.579,0,1.543-0.386,2.219-0.192
			C779.6,1345.778,776.513,1347.129,773.428,1348.093z M719.135,1354.458c-1.253,0.386-2.796-0.097-3.954,0.675
			c-1.543-0.193-2.99,0.675-4.243,1.157l-2.314,1.639c0.868,0.097,4.243,0.387,5.208,0.579c1.253,1.254,3.472,0.675,5.015,1.061
			c7.136-0.964,15.14,0.193,23.723-0.192c-1.254-1.543-2.508-1.929-3.183-2.604c-1.351-1.351-5.111-2.797-7.619-3.857
			C727.429,1353.493,722.8,1352.529,719.135,1354.458z"/>
		<path style="fill:#FF0050;" d="M785.675,1309.037c2.41,0.289,4.05-0.289,4.628,0.868c0,0.097-0.096,0.289-0.096,0.386
			c-3.568,2.025-8.197,1.157-12.344,2.314c-7.329,1.061-14.851,1.639-21.601,3.375c-1.543,2.121-3.279,5.015-2.219,7.812
			c0.097,0.096-0.289,0-0.675,0.675c0.675,0.964-0.386,1.35-0.386,2.121c-0.386,1.833-0.192,4.146-0.964,7.329
			c5.593,1.254,10.896,1.157,15.525,2.411c3.375,0.964,8.101-0.579,11.476,1.156c1.254,0,2.797-0.192,3.664,0.868
			c0.193,0.482-0.675,0.482-1.061,0.482c-3.953-0.675-6.943-0.386-10.704-0.868c-4.436-1.928-11.187-0.289-16.008-2.218
			c-1.735,0-4.436,0.482-5.786-0.482c-4.532-1.061-9.933,0.29-14.175-1.735c-7.908,0.289-14.466-2.989-22.566-2.989
			c-0.386-0.386-0.386-1.062-1.254-1.157c-2.314-0.771-5.304,0.675-6.75-1.254c0.579-1.061,2.122-0.579,3.279-1.446
			c9.74-2.121,18.708-6.364,28.641-8.196c2.797-1.351,6.269-1.736,9.354-2.99c1.062-0.097,2.122-0.289,3.086,0.097
			c1.929-0.578,4.051-1.253,6.172-1.253c4.532-0.098,8.583-2.219,13.308-1.833c1.446-0.868,3.665-0.192,5.208-0.675
			c2.989-0.29,6.075-1.061,8.871-1.832c0.579-0.29,0.868-0.482,0.965-0.676c0.867-0.385,0.964-0.385,1.64-0.289
			C784.903,1309.134,785.675,1308.845,785.675,1309.037z M749.223,1316.849c-4.821,2.121-10.415,2.121-15.43,3.568
			c-5.882,1.639-11.379,4.917-18.033,6.171c0,1.64,0.675,2.218,1.833,2.314c2.7,0.965,5.207,2.025,8.293,2.411
			c5.689,0.771,12.344,0.289,17.744,1.64c1.446,0,3.567,0,5.496,0.578c0.965-1.157,1.061-2.314,1.929-2.893
			c0-1.158,0.29-2.025,0.386-2.894c0.193-1.446,0.193-2.797,0.482-3.857c0.482-1.832,0.771-2.507,0.964-4.05
			C755.491,1315.306,750.958,1316.944,749.223,1316.849z"/>
		<path style="fill:#FF0050;" d="M750.958,1284.543c3.762,0.289,7.619,1.157,11.669,1.64c4.918,0.578,10.029,1.156,14.657,3.471
			c2.411,2.411,5.4,3.665,7.329,6.848c0.29,1.735,1.543,1.446,0.965,3.567c0.097,0.29-0.193,0-0.193-0.386
			c-2.218,0.097-1.157-0.482-2.796-2.7c-2.508,0.771-4.34-0.386-6.172,0.386c-7.715-0.482-14.369,0-21.891,0.771
			c-1.832,0.868-4.146,0.868-6.268,0.579c-1.351-0.482-2.797,0.481-4.437,0.192c-5.015-0.289-10.607-0.289-15.526,0.386
			c-3.665-0.192-7.232,0-10.993,0.386c-1.447-0.289-3.086-0.771-5.111-0.192c-0.578,1.35-1.253,1.061-0.771,2.218
			c-0.193,0.193-0.386,0.482-0.675,0.675c-0.289-0.097-0.579,0-0.868-0.289c0.386-2.797,2.218-4.34,3.954-6.461
			c3.375-3.086,7.715-4.532,11.379-7.521c2.411-1.543,4.918-1.736,7.521-2.797c3.279-0.482,6.943-0.289,10.126-0.964
			C745.559,1285.025,748.162,1284.832,750.958,1284.543z M735.722,1286.954c-3.761-0.193-6.364,1.543-9.933,2.604
			c-0.193,0.192-1.061,1.061-1.542,1.35c-2.7,1.929-5.883,2.797-8.775,6.654c3.471-0.29,5.207,0.964,6.847,0.289
			c2.411,0.289,4.532-0.965,6.943-1.061c3.472,1.061,7.232,0.192,10.801,0.675c3.278,0.386,6.847-0.386,10.222-0.579
			c5.979-2.313,12.923-0.675,19.094-1.35c2.989,0,6.461-0.482,11.187,0.097c-1.832-3.857-5.111-4.532-7.329-5.786
			c-5.689-1.543-11.379-2.508-17.262-3.086c-1.157-0.192-2.604,0.289-3.664-0.386
			C747.005,1286.664,740.641,1284.832,735.722,1286.954z"/>
		<path style="fill:#FF0050;" d="M779.117,1254.07c0.771,0.386,1.543,0,2.41,0.193c0.676,0,1.157,0.192,1.736,0.578
			c0.097,0.482-0.482,0.868-0.771,1.351c-0.675,0.867-1.446-0.482-1.64-0.482c-0.192-0.386-1.157,0.482-2.121-0.965
			c-1.929,0.579-3.665,0.579-5.015,0.193c-2.7,0.289-5.689-0.482-8.293,0.578c-1.062,0.097-1.64,1.351-2.122,1.929
			c-0.096,0-0.482,1.157-1.35,1.543c-1.254,1.157-3.086,2.99-3.665,3.472c-0.482,0.482,0-0.578-0.867,0.386
			c-0.482,0.386-0.29,0.579-0.965,1.64c-0.868,1.061-2.604,2.893-2.989,3.375c-0.579,1.157-1.157,2.507-1.832,4.051
			c2.024,1.35,4.05,0.964,5.4,1.832c1.735,0.097,3.856,0.481,5.689,0.964c1.061-0.867,1.832,0.193,2.604,0.193
			c1.061,0.578,2.7,0.482,3.954,1.061c2.41,0.386,4.532,1.832,7.231,1.351c0.965,0.192,2.122,0.578,3.087,0.867
			c-0.097,0.192-0.193,0.386-0.387,0.386c-1.639,0.289-3.085-0.578-4.532-0.482c-0.386-0.289-0.675-0.386-1.061-0.289
			c-0.771-0.097-1.543-0.289-2.218-0.289c-1.543-0.482-2.604,0.386-5.111-1.254c0,1.446,0.193,0.579,0.193,0.579
			c-1.446-0.387-3.472-0.965-5.4-0.868c-1.157-0.771-2.604-0.482-3.761-0.771c-2.7-0.289-4.532-1.35-7.137-1.157
			c0,0-0.096-0.097-0.192-0.097c-0.771-0.481-1.64-0.192-2.121-0.675c-5.883-1.64-11.861-3.278-17.744-4.918
			c-1.35-0.675-2.507-0.965-3.954-1.543c-1.929-0.675-3.761-1.832-5.786-2.604c-2.025-0.771-3.954-2.025-6.269-2.7
			c-0.578-0.29-1.542,0.192-1.542-0.771c0-0.289-0.29-0.965-0.097-1.061c0.675-1.062,2.604-1.062,3.568-1.543
			c2.314-0.193,5.593-0.676,8.39-1.254c1.061-1.254,2.7-0.289,3.954-0.771c4.725,0.193,9.643-2.218,15.043-1.543
			c6.847-1.061,14.465-1.64,20.926-1.061C769.281,1253.878,774.199,1253.396,779.117,1254.07z M749.897,1255.71
			c-1.253-0.482-3.182,0.675-5.11,0.289c-2.314-0.386-4.822,0.386-7.137,0.771c-2.218-0.386-3.953,0.965-6.172,0.771
			c-1.446,0.193-3.857,0.193-5.786,0.579c-3.182,0.578-6.075,1.446-9.74,1.735c1.447,1.64,4.05,2.797,4.436,2.893
			c2.025,0.676,3.665,1.833,5.497,2.411c2.796,0.965,5.208,1.929,7.812,2.7c1.832,0.482,4.243,1.061,5.882,1.351
			c1.832-0.097,4.437,1.542,6.943,1.929c1.446,0.192,0.771,0.867,2.797,0.289c0.771-1.832,1.929-3.086,2.604-4.726
			c0.868-1.157,1.35-1.253,2.604-2.604c0.868-0.868,1.736-2.218,2.7-3.472c0.868-0.964,2.025-2.025,2.604-2.7
			c0-0.192,1.157-1.446,1.157-2.218c-1.35-0.289-2.893-0.289-3.761-0.386C754.623,1254.938,752.598,1255.324,749.897,1255.71z"/>
		<path style="fill:#FF0050;" d="M738.422,1189.172c6.461,2.313,13.308,1.639,19.479,4.242c6.365,2.7,13.308,3.857,19.865,5.979
			c0.193,0.192,0.482,0.481,0.675,0.771c-2.121,0.869-4.918-0.868-7.425-0.578c-7.618-0.579-14.754,1.929-22.758,2.989l-0.386,1.735
			c8.679,1.736,16.008,5.4,24.012,6.943c0.289,0.193,0.771,0.29,1.061,0.482c1.735,0.097,3.857-1.062,5.111-0.097
			c-0.097,0.675-0.772,0.964-1.447,1.157c-1.543-0.193-2.7,0.868-4.146,1.254c-8.582-0.386-16.2,1.446-24.88,2.025
			c-10.704,0.771-21.312,1.543-31.437,1.446c-5.304,0.771-9.354,0.964-13.5,0.482c-0.386-0.193-1.157,0-1.543-0.097
			c0.289-0.192,0.579-0.482,0.868-0.771c3.182-0.676,5.979-0.676,9.354-0.965c14.658-1.157,30.763,0.098,45.806-2.41
			c2.7-0.482,5.4-0.29,8.294-0.579c1.929-0.675,1.061-2.604-0.386-2.217c-6.269-3.087-13.887-3.569-20.155-5.884
			c-1.156-0.385-2.989-0.097-3.472-1.253c0.193-0.386,0.579-0.578,0.965-0.772c6.558-2.121,13.693-2.893,23.529-5.399
			c-6.075-2.219-9.643-2.604-12.439-4.243c-7.04,0-11.861-2.893-18.901-2.893c-5.4-2.025-11.765-1.158-17.165-3.472
			c-4.436-0.097-8.101-1.062-13.308-1.929c-0.096,0-0.386,0-0.482-0.097c0.096-0.192,0.193-0.386,0.289-0.675
			c0.771,0,1.253-0.386,1.64-0.579C716.436,1184.639,727.429,1187.725,738.422,1189.172z"/>
		<path style="fill:#FF0050;" d="M732.443,1150.791c2.7,0.482,4.918,0.964,7.811,0.578c5.015,2.122,10.801-0.867,15.526,2.604
			c2.604,0.579,5.882,0.676,8.293,1.929c4.051,1.351,8.293,1.929,11.765,4.726c1.446,1.929,2.508,3.665,3.568,5.689
			c-0.193,1.929-0.097,4.146-1.832,5.015c-3.665,1.446-7.521,2.122-11.09,3.953c-7.715,0.193-14.851,2.99-22.083,1.736
			c-3.472,0.771-6.847-0.097-10.318,0.481c-5.979-0.385-11.476-2.796-17.262-3.856c-1.253-1.061-6.171-1.929-2.218-3.472
			c2.604-0.482,4.243,1.446,6.558,2.024c1.35,0.29,2.604,1.833,4.146,1.833c5.882,1.061,10.994,2.122,17.358,1.351
			c5.497,1.35,11.476,0,16.973-1.157c5.207-0.387,9.933-1.833,14.754-3.183c2.314-1.062,1.446-2.99,2.508-5.497
			c-1.254-0.868-0.868-2.7-1.736-3.471c-1.543-1.737-4.629-2.604-6.558-3.762c-3.182-0.482-6.364,0-8.679-1.832
			c-2.604-0.482-5.593,0.192-7.618-1.832c-8.679-1.446-17.454-0.771-25.555-2.797c-4.725-0.482-8.679-0.675-12.536-3.086
			c0.193-0.579,1.157-0.29,1.543-0.482C721.739,1147.897,726.561,1151.273,732.443,1150.791z"/>
		<path style="fill:#FF0050;" d="M773.428,1128.226c-3.472,2.507-7.908,2.121-11.09,4.822c-1.254,0.385-2.604,1.06-3.665,1.735
			c-2.989-0.097-6.075,1.832-10.125,3.664c2.604,1.061,4.532,0.771,5.883,0.386c5.689,0,10.703-0.964,16.683-0.097
			c1.639,0,3.664-0.482,5.11,0.193c2.797,0.097,6.075-0.676,8.486,0.675c0.097,0.097,0.097,0.097,0.193,0.193
			c-2.025,0.578-4.629,0.385-6.654,0.289c-1.736-0.482-3.568,0.193-5.497,0.193c-3.761,0.096-7.714-1.254-11.09,0.385
			c-3.085,0.387-5.979-1.061-8.968,0c-2.7,0.868-5.4-0.482-7.907,0.771c-4.629-0.771-10.608,0.097-15.623-0.771
			c-5.689,0-11.476,0.387-17.069-0.578c-3.086-0.097-4.339-0.675-7.232-1.254c-0.096,0,0.482-0.675,0.482-0.868
			c3.086-1.832,4.147-2.41,7.426-3.664c4.532-1.833,9.354-1.446,13.886-2.7c6.365,0.097,12.633,0.965,17.262,7.04
			c8.486-5.111,17.551-5.69,25.747-10.126c3.665-1.157,7.04-2.989,10.704-4.146c0.579,0,1.543-0.386,2.219-0.193
			C779.6,1125.911,776.513,1127.262,773.428,1128.226z M719.135,1134.59c-1.253,0.387-2.796-0.096-3.954,0.676
			c-1.543-0.193-2.99,0.675-4.243,1.157l-2.314,1.639c0.868,0.097,4.243,0.386,5.208,0.579c1.253,1.253,3.472,0.675,5.015,1.061
			c7.136-0.965,15.14,0.192,23.723-0.193c-1.254-1.543-2.508-1.929-3.183-2.603c-1.351-1.351-5.111-2.798-7.619-3.857
			C727.429,1133.626,722.8,1132.661,719.135,1134.59z"/>
		<path style="fill:#FF0050;" d="M750.958,1101.224c3.762,0.29,7.619,1.158,11.669,1.64c4.918,0.579,10.029,1.157,14.657,3.472
			c2.411,2.411,5.4,3.665,7.329,6.847c0.29,1.735,1.543,1.446,0.965,3.568c0.097,0.289-0.193,0-0.193-0.386
			c-2.218,0.097-1.157-0.482-2.796-2.701c-2.508,0.772-4.34-0.385-6.172,0.387c-7.715-0.482-14.369,0-21.891,0.771
			c-1.832,0.868-4.146,0.868-6.268,0.578c-1.351-0.482-2.797,0.482-4.437,0.192c-5.015-0.288-10.607-0.288-15.526,0.387
			c-3.665-0.192-7.232,0-10.993,0.386c-1.447-0.29-3.086-0.772-5.111-0.192c-0.578,1.349-1.253,1.061-0.771,2.218
			c-0.193,0.192-0.386,0.481-0.675,0.675c-0.289-0.097-0.579,0-0.868-0.29c0.386-2.796,2.218-4.339,3.954-6.46
			c3.375-3.087,7.715-4.533,11.379-7.522c2.411-1.543,4.918-1.736,7.521-2.796c3.279-0.482,6.943-0.29,10.126-0.964
			C745.559,1101.706,748.162,1101.514,750.958,1101.224z M735.722,1103.635c-3.761-0.192-6.364,1.543-9.933,2.604
			c-0.193,0.191-1.061,1.06-1.542,1.35c-2.7,1.929-5.883,2.797-8.775,6.654c3.471-0.29,5.207,0.964,6.847,0.289
			c2.411,0.289,4.532-0.965,6.943-1.062c3.472,1.062,7.232,0.192,10.801,0.675c3.278,0.387,6.847-0.385,10.222-0.578
			c5.979-2.314,12.923-0.675,19.094-1.351c2.989,0,6.461-0.481,11.187,0.098c-1.832-3.857-5.111-4.533-7.329-5.786
			c-5.689-1.544-11.379-2.508-17.262-3.086c-1.157-0.193-2.604,0.289-3.664-0.387
			C747.005,1103.346,740.641,1101.514,735.722,1103.635z"/>
		<path style="fill:#FF0050;" d="M783.167,1083.096c-0.964,2.121-3.278,2.314-4.918,3.471c-2.218,1.158-4.629,2.315-7.136,2.604
			c-0.676,0.386-1.64,0.482-2.411,0.578c-6.461,1.157-12.729,3.762-19.479,3.954c-4.629,0.965-9.74,0.482-14.754,0.386
			c-4.147,0-9.451-1.157-13.598-2.989c-2.025-0.482-4.243-1.254-5.689-2.508c-2.122-0.578-3.761-2.121-5.593-3.278
			c-0.386-0.676-0.868-1.35-0.868-2.025c0-0.097-0.097-0.192-0.097-0.192c1.929,0.482,3.761,1.929,5.69,3.085
			c1.542,0.868,2.411,2.025,4.05,2.411c2.797,0.579,5.015,2.508,7.908,2.314c5.304,1.351,11.09,1.254,17.455,0.868
			c-0.965-2.218,0.675-3.086-0.097-4.436c0.097-0.579,0.192-0.964,0.386-1.351c0.289-0.289,0.481-0.578,0.867-0.289
			c0.193,0.193,0.29,0.289,0.482,0.481c-0.192,0.579,0.193,0.965,0.482,1.255c-0.289,1.253,0,2.507-0.193,4.05
			c4.726,0.481,7.908-0.868,11.766-1.062c1.639-0.771,4.146-0.964,6.171-1.542c1.833-0.579,4.051-0.579,5.786-1.64
			c1.446,0.193,3.086-0.289,4.243-1.735c2.508,0.096,4.437-1.736,7.329-2.315c0-0.771,0-0.482,0-0.482
			c0.482-0.191,1.446-1.253,2.604-0.867C783.456,1082.324,783.36,1082.709,783.167,1083.096z"/>
		<path style="fill:#FF0050;" d="M779.117,1025.043c0.771,0.387,1.543,0,2.41,0.193c0.676,0,1.157,0.193,1.736,0.579
			c0.097,0.481-0.482,0.867-0.771,1.35c-0.675,0.868-1.446-0.482-1.64-0.482c-0.192-0.386-1.157,0.482-2.121-0.964
			c-1.929,0.578-3.665,0.578-5.015,0.192c-2.7,0.289-5.689-0.481-8.293,0.578c-1.062,0.097-1.64,1.351-2.122,1.929
			c-0.096,0-0.482,1.158-1.35,1.544c-1.254,1.157-3.086,2.989-3.665,3.472c-0.482,0.481,0-0.579-0.867,0.386
			c-0.482,0.385-0.29,0.578-0.965,1.639c-0.868,1.061-2.604,2.893-2.989,3.375c-0.579,1.157-1.157,2.508-1.832,4.051
			c2.024,1.35,4.05,0.964,5.4,1.832c1.735,0.097,3.856,0.482,5.689,0.964c1.061-0.867,1.832,0.193,2.604,0.193
			c1.061,0.578,2.7,0.482,3.954,1.061c2.41,0.386,4.532,1.833,7.231,1.351c0.965,0.192,2.122,0.578,3.087,0.867
			c-0.097,0.193-0.193,0.386-0.387,0.386c-1.639,0.289-3.085-0.578-4.532-0.481c-0.386-0.289-0.675-0.386-1.061-0.289
			c-0.771-0.097-1.543-0.29-2.218-0.29c-1.543-0.482-2.604,0.386-5.111-1.253c0,1.446,0.193,0.578,0.193,0.578
			c-1.446-0.386-3.472-0.964-5.4-0.868c-1.157-0.771-2.604-0.482-3.761-0.771c-2.7-0.289-4.532-1.35-7.137-1.157
			c0,0-0.096-0.096-0.192-0.096c-0.771-0.482-1.64-0.193-2.121-0.676c-5.883-1.64-11.861-3.278-17.744-4.918
			c-1.35-0.675-2.507-0.965-3.954-1.543c-1.929-0.675-3.761-1.832-5.786-2.604c-2.025-0.771-3.954-2.025-6.269-2.7
			c-0.578-0.289-1.542,0.192-1.542-0.771c0-0.289-0.29-0.965-0.097-1.061c0.675-1.061,2.604-1.061,3.568-1.543
			c2.314-0.193,5.593-0.676,8.39-1.254c1.061-1.254,2.7-0.289,3.954-0.771c4.725,0.193,9.643-2.218,15.043-1.543
			c6.847-1.061,14.465-1.639,20.926-1.061C769.281,1024.851,774.199,1024.368,779.117,1025.043z M749.897,1026.683
			c-1.253-0.482-3.182,0.676-5.11,0.289c-2.314-0.386-4.822,0.387-7.137,0.771c-2.218-0.385-3.953,0.965-6.172,0.771
			c-1.446,0.193-3.857,0.193-5.786,0.579c-3.182,0.579-6.075,1.446-9.74,1.735c1.447,1.64,4.05,2.797,4.436,2.894
			c2.025,0.675,3.665,1.832,5.497,2.41c2.796,0.965,5.208,1.929,7.812,2.7c1.832,0.482,4.243,1.061,5.882,1.351
			c1.832-0.097,4.437,1.543,6.943,1.929c1.446,0.192,0.771,0.868,2.797,0.289c0.771-1.832,1.929-3.086,2.604-4.726
			c0.868-1.157,1.35-1.253,2.604-2.604c0.868-0.868,1.736-2.218,2.7-3.472c0.868-0.964,2.025-2.024,2.604-2.7
			c0-0.192,1.157-1.446,1.157-2.218c-1.35-0.289-2.893-0.289-3.761-0.386C754.623,1025.911,752.598,1026.297,749.897,1026.683z"/>
		<path style="fill:#FF0050;" d="M778.828,990.23c0.192,0.482,1.735,0.482,1.156,1.254c-2.7,1.833-6.364-0.192-9.257,1.351
			c-9.74,2.989-20.059,0.771-29.991,2.121c-5.785,0.771-11.187,0.771-16.876,1.929l-3.278-0.097l-0.097,0.386l3.279,1.447
			c3.761,0.771,8.583,0.867,12.151,1.735c3.375,0.868,6.268,0.964,9.547,1.929c3.567,0.675,7.04,0.289,11.09,0.386
			c0.289,0.193,0.771,0.097,0.964,0.386c-5.11,2.121-11.379,0.675-16.683,2.218c-1.446,1.254-3.857,0.868-5.593,1.64
			c-6.172,0-12.055,2.121-17.84,2.41c-0.675,0.579-1.833,0.676-2.797,1.062c0,0.386-2.604,0.964-2.507,1.156
			c0.096,0.29,3.086,0.193,3.182,0.676c9.547,1.446,18.226,0,27.001,1.061c5.4-2.025,10.993,1.157,16.201-0.578
			c6.172-2.025,13.114,0.289,18.611-1.832c1.64,0,3.375-0.868,4.821,0c1.736,0.096,4.629-1.64,5.979,0.192
			c0,0.192,0.192,0.097,0.289,0.192c-1.35,0.868-3.472,0.193-4.726,0.386c-7.328,1.832-15.043,2.314-22.661,3.472
			c-3.086,0-6.172,0.482-9.065-0.386c-3.761,0.097-7.618,0.386-11.571-0.289c-9.162-0.289-17.551,1.543-26.134-0.965
			c-3.182-0.964-6.268,0-9.064-0.675c0-0.578-2.122,0.482-1.64-0.385c0.579-0.29,0.964-1.254,2.025-1.447
			c4.34-2.41,10.029-1.735,14.851-3.472c5.882-1.061,12.536-1.735,18.611-3.182l3.183-0.772v-0.385l-3.183-0.579
			c-3.953-0.675-7.714-1.254-11.668-1.735c-4.821-2.218-10.511-2.025-15.333-4.146c-0.29-0.29-0.771-0.482-1.157-0.676
			c0.771-1.156,3.086-0.097,4.243-0.192c4.05-2.122,8.583-0.482,13.019-1.64c10.125-1.061,17.648-0.482,27.581-1.35
			c2.313-0.676,5.882-0.676,8.485-1.062c4.629-0.675,9.547,1.158,13.019-1.735C777.671,989.556,778.249,989.749,778.828,990.23z"/>
		<path style="fill:#FF0050;" d="M729.357,928.225c3.857,0.097,7.521,0.675,11.379,1.061s8.004,0.193,11.766,0.386
			c0.385,0,0.675,0.482,1.061,0.482c2.7,0.193,5.304,0.482,7.907,0.289c7.329,0.675,14.272,0.579,21.408,1.543
			c0.675,0.482,0,0.868,0.289,1.543c-1.061,0.482-1.35,0.579-2.604,0.676c-4.436-0.868-7.812,2.893-12.15,2.218
			c-3.279,0.964-6.847,0.771-10.222,1.735c-3.183,2.7-8.294,0.578-14.852,2.604c4.822,2.025,7.04,1.929,9.065,2.314
			c3.472,0.771,6.557,0.771,10.028,1.351c3.183,0.481,6.751,1.543,9.74,1.543c1.35,0.289,2.604,0.578,4.146,0.675
			c0.289,0.386,0.964,0.289,1.446,0.386c1.736-0.29,3.761-0.386,5.497-0.482c0.192,0.097,0.289,0.192,0.386,0.289
			c-0.965,1.351-3.183,0.579-4.437,1.254c-5.014,2.025-10.896,2.604-16.875,3.086c-5.111,0.386-10.223,0.771-14.947,1.543
			c-4.34,0.482-8.775,2.025-13.212,2.025c-0.578,0.386-1.735,0.289-2.314,0.386c-8.004,1.929-16.876,1.543-25.458,1.929
			c-1.157-0.386-5.4,1.639-4.146-0.772c0.675-0.096,1.157-0.674,1.832-0.964c9.258-1.061,18.611,0.579,27.966-1.543
			c4.436,0.289,8.293-1.543,12.344-2.218c0.867-0.097,1.735,0.193,2.604,0c6.558-1.061,14.368-1.929,21.119-3.086l4.05-0.675
			c-3.472-0.868-10.318-1.735-13.019-2.7c-6.461,0-11.861-2.218-18.226-2.893c-2.989-0.289-5.594-0.868-7.812-1.062
			c-0.096-0.192-1.061,0.386-1.253,0c1.157-1.061,2.796-0.192,3.857-1.253c1.64-0.29,3.376-0.482,5.208-0.772
			c2.7-0.481,5.496-1.06,8.196-1.35c1.736-0.192,3.568,0,5.111-0.192c2.121-0.29,2.893-0.868,4.918-1.157
			c1.543-0.193,2.218-0.097,3.761-0.289c0.482-0.097,0.675-0.386,1.157-0.386c3.086-0.482,6.558-0.387,9.45-1.543l3.761-1.447
			c-3.856-0.578-12.054-0.289-15.718-0.675c-7.426-0.868-15.912-0.675-23.337-1.061c-0.482-0.29-1.254-0.193-1.929-0.965
			c-7.619-0.386-13.887-2.7-21.505-1.929c-2.314-0.771-4.532,0.387-6.75-0.192c-1.35-0.386-2.7,0-3.954-0.771
			c-0.193-0.193-0.675-0.289-0.868-0.482c5.015-2.218,10.897-0.192,16.104,0C722.896,926.778,726.175,927.453,729.357,928.225z"/>
		<path style="fill:#FF0050;" d="M779.117,894.858c0.771,0.387,1.543,0,2.41,0.193c0.676,0,1.157,0.193,1.736,0.578
			c0.097,0.482-0.482,0.868-0.771,1.351c-0.675,0.868-1.446-0.482-1.64-0.482c-0.192-0.386-1.157,0.482-2.121-0.964
			c-1.929,0.578-3.665,0.578-5.015,0.192c-2.7,0.289-5.689-0.481-8.293,0.578c-1.062,0.097-1.64,1.351-2.122,1.929
			c-0.096,0-0.482,1.158-1.35,1.543c-1.254,1.158-3.086,2.99-3.665,3.473c-0.482,0.481,0-0.579-0.867,0.385
			c-0.482,0.386-0.29,0.579-0.965,1.64c-0.868,1.061-2.604,2.893-2.989,3.375c-0.579,1.157-1.157,2.508-1.832,4.05
			c2.024,1.351,4.05,0.965,5.4,1.833c1.735,0.096,3.856,0.482,5.689,0.964c1.061-0.868,1.832,0.193,2.604,0.193
			c1.061,0.578,2.7,0.482,3.954,1.061c2.41,0.386,4.532,1.833,7.231,1.351c0.965,0.192,2.122,0.578,3.087,0.867
			c-0.097,0.193-0.193,0.386-0.387,0.386c-1.639,0.289-3.085-0.578-4.532-0.481c-0.386-0.289-0.675-0.387-1.061-0.289
			c-0.771-0.098-1.543-0.29-2.218-0.29c-1.543-0.482-2.604,0.386-5.111-1.254c0,1.446,0.193,0.579,0.193,0.579
			c-1.446-0.386-3.472-0.964-5.4-0.868c-1.157-0.771-2.604-0.482-3.761-0.771c-2.7-0.289-4.532-1.351-7.137-1.157
			c0,0-0.096-0.096-0.192-0.096c-0.771-0.482-1.64-0.193-2.121-0.676c-5.883-1.64-11.861-3.279-17.744-4.918
			c-1.35-0.675-2.507-0.965-3.954-1.543c-1.929-0.676-3.761-1.832-5.786-2.604c-2.025-0.771-3.954-2.024-6.269-2.699
			c-0.578-0.289-1.542,0.192-1.542-0.771c0-0.289-0.29-0.965-0.097-1.061c0.675-1.061,2.604-1.061,3.568-1.543
			c2.314-0.193,5.593-0.676,8.39-1.254c1.061-1.254,2.7-0.289,3.954-0.771c4.725,0.193,9.643-2.218,15.043-1.543
			c6.847-1.061,14.465-1.639,20.926-1.061C769.281,894.666,774.199,894.184,779.117,894.858z M749.897,896.498
			c-1.253-0.482-3.182,0.676-5.11,0.289c-2.314-0.386-4.822,0.387-7.137,0.772c-2.218-0.386-3.953,0.964-6.172,0.771
			c-1.446,0.193-3.857,0.193-5.786,0.579c-3.182,0.578-6.075,1.446-9.74,1.735c1.447,1.64,4.05,2.797,4.436,2.893
			c2.025,0.676,3.665,1.833,5.497,2.411c2.796,0.964,5.208,1.929,7.812,2.7c1.832,0.482,4.243,1.061,5.882,1.351
			c1.832-0.097,4.437,1.543,6.943,1.929c1.446,0.192,0.771,0.868,2.797,0.289c0.771-1.832,1.929-3.086,2.604-4.726
			c0.868-1.157,1.35-1.253,2.604-2.604c0.868-0.868,1.736-2.218,2.7-3.472c0.868-0.964,2.025-2.024,2.604-2.7
			c0-0.192,1.157-1.447,1.157-2.218c-1.35-0.289-2.893-0.289-3.761-0.386C754.623,895.727,752.598,896.112,749.897,896.498z"/>
		<path style="fill:#FF0050;" d="M766.58,871.521c-0.192-0.097,0.868-0.289,1.254-0.192c0.29,0,0.675,0,0.771,0
			c0.579,0.192,1.351,0.482,1.929,0.386c1.351,0.579,2.7,0.289,3.857,0.868c2.314,1.061,5.4,2.024,7.907,4.146
			c1.543,1.64,3.568,2.314,5.111,3.761c0.289,0.867,0.675,1.254,0.482,2.025c-1.543,0.096-2.314-2.123-3.762-2.7
			c-1.061-0.965-2.604-1.254-3.471-2.508c-0.193-0.097-0.579-0.482-0.771-0.578c-0.193-0.097-0.289-0.289-0.289-0.289
			c-0.097,0-0.482-0.193-0.482-0.29c-0.868-0.868-1.157-0.964-1.157-0.578c-0.676-0.193-1.157-0.675-1.832-0.579
			c-0.29-0.096-0.579-0.289-0.772-0.578c-1.156,0.192-1.446-0.386-2.024-0.482c-1.061-0.579-2.7,0-3.857-0.386
			c-0.578,0.097-1.061-0.482-1.736-0.386c-2.313-0.675-3.278-0.097-5.785,0.097c-3.183,1.157-3.279,0.868-5.304,1.64
			c-1.543,0.578-2.411,0.771-3.857,1.446c-1.446,0.675-2.025,1.446-3.472,2.121c-1.351,0.579-2.218,0.386-3.472,0.868
			c-1.446,0.578-2.314,1.254-3.665,1.832c-1.35,0.675-2.41,0.965-3.953,1.639c-1.446,0.869-2.218,1.736-3.954,2.219
			c-0.482,0-1.157,0.097-1.64,0.097c-0.482-0.097-1.061,0.096-1.35,0.096c-0.29,0.097-0.771-0.096-1.061-0.192
			c-1.736,0.578-2.7-0.578-4.532-0.386c-1.736-0.481-3.472-0.675-5.497-1.351c-1.929-1.061-4.436-1.542-6.558-2.988
			c-2.218-1.158-4.436-2.894-6.075-5.016c-0.193-0.289-0.964-1.061-0.29-0.964c1.736,0.771,3.279,2.507,5.111,3.183
			c4.918,3.086,10.029,4.918,15.14,5.4c0.579,0.289,1.254,0,1.929,0.289c0.964,0,2.314,0.289,3.375,0.096
			c3.472,0.387,2.7-1.156,4.146-1.735c1.543-0.579,2.507-0.482,3.857-1.158c0.965-0.577,1.446-1.253,2.604-1.734
			c0.965-0.579,1.64-1.062,2.894-1.254c2.893-0.289,2.989-0.868,4.436-2.122c0.675-0.385,1.061-0.867,1.832-1.156
			c0.675-0.579,1.254-0.29,2.122-0.579c1.157-0.289,1.735-0.675,2.893-1.061c1.061-0.386,2.218-0.868,2.797-0.868
			c2.024-0.867,3.182-0.289,5.11-0.482C766.099,871.136,766.677,871.521,766.58,871.521z"/>
		<path style="fill:#FF0050;" d="M770.823,853.393c3.762,0.964,6.461,4.146,10.223,5.304c0.578,1.061,1.832,1.64,2.41,2.7
			c-0.867,0.289-1.832-0.578-2.604-0.964c-0.675-0.676-1.35-1.062-2.314-1.158c-2.121-1.543-5.015-2.218-7.232-3.953
			c-1.64-0.578-4.05-0.771-5.882-1.64c-3.279-0.192-6.558-0.192-9.74,0.386c-3.086,0.579-6.075,1.832-8.486,3.954
			c-3.182,1.543-6.847,2.7-10.318,3.472c-5.4,2.7-12.247,2.41-17.84,0.192c-3.279,0-5.111-2.796-8.101-3.182
			c-0.868-0.676-1.639-1.351-2.7-1.736c-0.578-0.482-0.289-1.254-0.771-1.929c0-0.192-0.386,0.097-0.193,0.193
			c1.35,0.096,2.797,0.675,3.954,1.253c5.111,3.954,11.958,4.147,18.129,5.497c4.34-0.193,7.907-2.218,12.054-3.183
			c2.604-1.639,5.883-2.218,8.486-3.856c1.929-0.193,3.472-2.411,5.497-1.929c4.339-1.544,9.45-1.544,13.597,0
			C769.57,853.104,770.148,853.296,770.823,853.393z"/>
		<path style="fill:#FF0050;" d="M783.167,833.046c-0.964,2.122-3.278,2.314-4.918,3.473c-2.218,1.157-4.629,2.313-7.136,2.604
			c-0.676,0.385-1.64,0.482-2.411,0.578c-6.461,1.157-12.729,3.762-19.479,3.953c-4.629,0.965-9.74,0.482-14.754,0.386
			c-4.147,0-9.451-1.156-13.598-2.988c-2.025-0.482-4.243-1.255-5.689-2.508c-2.122-0.578-3.761-2.122-5.593-3.278
			c-0.386-0.675-0.868-1.351-0.868-2.025c0-0.097-0.097-0.193-0.097-0.193c1.929,0.482,3.761,1.929,5.69,3.086
			c1.542,0.868,2.411,2.025,4.05,2.411c2.797,0.579,5.015,2.508,7.908,2.314c5.304,1.35,11.09,1.253,17.455,0.867
			c-0.965-2.218,0.675-3.085-0.097-4.436c0.097-0.578,0.192-0.964,0.386-1.351c0.289-0.289,0.481-0.578,0.867-0.289
			c0.193,0.193,0.29,0.289,0.482,0.482c-0.192,0.579,0.193,0.965,0.482,1.254c-0.289,1.254,0,2.508-0.193,4.05
			c4.726,0.482,7.908-0.867,11.766-1.06c1.639-0.771,4.146-0.965,6.171-1.544c1.833-0.578,4.051-0.578,5.786-1.639
			c1.446,0.192,3.086-0.29,4.243-1.736c2.508,0.097,4.437-1.735,7.329-2.314c0-0.771,0-0.481,0-0.481
			c0.482-0.193,1.446-1.254,2.604-0.869C783.456,832.274,783.36,832.661,783.167,833.046z"/>
		<path style="fill:#FF0050;" d="M773.428,811.542c-3.472,2.508-7.908,2.122-11.09,4.822c-1.254,0.386-2.604,1.061-3.665,1.735
			c-2.989-0.096-6.075,1.833-10.125,3.665c2.604,1.061,4.532,0.771,5.883,0.386c5.689,0,10.703-0.965,16.683-0.097
			c1.639,0,3.664-0.482,5.11,0.193c2.797,0.096,6.075-0.676,8.486,0.675c0.097,0.097,0.097,0.097,0.193,0.192
			c-2.025,0.579-4.629,0.386-6.654,0.29c-1.736-0.482-3.568,0.192-5.497,0.192c-3.761,0.097-7.714-1.254-11.09,0.386
			c-3.085,0.386-5.979-1.061-8.968,0c-2.7,0.867-5.4-0.482-7.907,0.771c-4.629-0.771-10.608,0.096-15.623-0.771
			c-5.689,0-11.476,0.386-17.069-0.578c-3.086-0.097-4.339-0.675-7.232-1.254c-0.096,0,0.482-0.675,0.482-0.868
			c3.086-1.832,4.147-2.41,7.426-3.664c4.532-1.832,9.354-1.447,13.886-2.701c6.365,0.098,12.633,0.965,17.262,7.04
			c8.486-5.111,17.551-5.689,25.747-10.125c3.665-1.157,7.04-2.99,10.704-4.147c0.579,0,1.543-0.385,2.219-0.192
			C779.6,809.229,776.513,810.578,773.428,811.542z M719.135,817.907c-1.253,0.386-2.796-0.097-3.954,0.675
			c-1.543-0.192-2.99,0.675-4.243,1.157l-2.314,1.64c0.868,0.097,4.243,0.386,5.208,0.578c1.253,1.254,3.472,0.675,5.015,1.062
			c7.136-0.965,15.14,0.192,23.723-0.193c-1.254-1.543-2.508-1.929-3.183-2.604c-1.351-1.35-5.111-2.797-7.619-3.857
			C727.429,816.943,722.8,815.979,719.135,817.907z"/>
		<path style="fill:#FF0050;" d="M783.167,764.482c-0.964,2.122-3.278,2.314-4.918,3.472c-2.218,1.158-4.629,2.315-7.136,2.604
			c-0.676,0.386-1.64,0.482-2.411,0.579c-6.461,1.157-12.729,3.761-19.479,3.953c-4.629,0.965-9.74,0.482-14.754,0.387
			c-4.147,0-9.451-1.157-13.598-2.99c-2.025-0.482-4.243-1.254-5.689-2.507c-2.122-0.579-3.761-2.123-5.593-3.28
			c-0.386-0.675-0.868-1.35-0.868-2.024c0-0.097-0.097-0.193-0.097-0.193c1.929,0.482,3.761,1.929,5.69,3.086
			c1.542,0.868,2.411,2.025,4.05,2.412c2.797,0.578,5.015,2.507,7.908,2.314c5.304,1.35,11.09,1.254,17.455,0.867
			c-0.965-2.218,0.675-3.086-0.097-4.436c0.097-0.579,0.192-0.964,0.386-1.351c0.289-0.289,0.481-0.578,0.867-0.289
			c0.193,0.193,0.29,0.289,0.482,0.482c-0.192,0.578,0.193,0.965,0.482,1.254c-0.289,1.253,0,2.507-0.193,4.05
			c4.726,0.482,7.908-0.868,11.766-1.061c1.639-0.771,4.146-0.965,6.171-1.543c1.833-0.578,4.051-0.578,5.786-1.64
			c1.446,0.193,3.086-0.289,4.243-1.735c2.508,0.096,4.437-1.736,7.329-2.314c0-0.771,0-0.482,0-0.482
			c0.482-0.192,1.446-1.254,2.604-0.868C783.456,763.71,783.36,764.096,783.167,764.482z"/>
		<path style="fill:#FF0050;" d="M773.428,742.979c-3.472,2.506-7.908,2.122-11.09,4.821c-1.254,0.386-2.604,1.061-3.665,1.737
			c-2.989-0.097-6.075,1.832-10.125,3.663c2.604,1.062,4.532,0.772,5.883,0.386c5.689,0,10.703-0.964,16.683-0.096
			c1.639,0,3.664-0.482,5.11,0.192c2.797,0.097,6.075-0.674,8.486,0.676c0.097,0.096,0.097,0.096,0.193,0.192
			c-2.025,0.578-4.629,0.386-6.654,0.29c-1.736-0.482-3.568,0.192-5.497,0.192c-3.761,0.096-7.714-1.253-11.09,0.386
			c-3.085,0.386-5.979-1.061-8.968,0c-2.7,0.867-5.4-0.482-7.907,0.771c-4.629-0.771-10.608,0.096-15.623-0.771
			c-5.689,0-11.476,0.386-17.069-0.578c-3.086-0.097-4.339-0.676-7.232-1.254c-0.096,0,0.482-0.674,0.482-0.868
			c3.086-1.832,4.147-2.411,7.426-3.664c4.532-1.833,9.354-1.446,13.886-2.701c6.365,0.096,12.633,0.964,17.262,7.041
			c8.486-5.112,17.551-5.69,25.747-10.126c3.665-1.158,7.04-2.99,10.704-4.147c0.579,0,1.543-0.386,2.219-0.192
			C779.6,740.664,776.513,742.014,773.428,742.979z M719.135,749.342c-1.253,0.386-2.796-0.096-3.954,0.676
			c-1.543-0.194-2.99,0.674-4.243,1.157l-2.314,1.639c0.868,0.097,4.243,0.385,5.208,0.58c1.253,1.252,3.472,0.674,5.015,1.06
			c7.136-0.964,15.14,0.192,23.723-0.193c-1.254-1.543-2.508-1.929-3.183-2.604c-1.351-1.351-5.111-2.797-7.619-3.857
			C727.429,748.378,722.8,747.414,719.135,749.342z"/>
		<path style="fill:#FF0050;" d="M778.731,719.352c1.735,2.025,2.893,4.05,4.629,6.461c0.289,2.314,1.929,2.314,1.543,4.146
			c-1.543,2.121-2.411,1.061-4.243,1.157c-5.979-0.771-13.019,0.482-18.805,0.868c-5.207-0.386-8.101,0.386-15.236,0.579
			c-1.832,0.771-4.437,0.29-6.461,0c-2.122,0.868-5.689,0.482-8.004-0.192c-7.714,0.964-14.079,0.192-21.601,0.578
			c-0.579-0.096-1.446,0.386-1.061-0.289c0-0.097,0.096-0.482,0.096-0.579c0.193-0.192,0.29-0.482,0.482-0.868
			c-0.097-0.675-0.193,0.289,0.289,0.289c0.868-1.06,1.254-2.989,2.7-2.989c0.771-1.061,1.543-1.64,2.411-1.929
			c1.735-1.64,2.7-3.086,5.014-3.086c3.954-3.182,8.968-2.796,13.501-2.796c4.532,1.542,8.293,3.954,12.15,8.968
			c1.64-1.832,1.543-4.339,2.604-4.821c0.676-1.64,1.929-2.99,3.472-4.628c3.086-2.122,5.786-2.507,9.065-3.762
			c3.761-2.603,7.811,1.254,11.571-0.192C774.777,716.652,776.513,718.677,778.731,719.352z M721.835,724.173
			c-2.122,2.797-4.05,1.253-5.786,5.111c-0.289,0.193-0.578,0.386-1.061,0.097c-3.665,1.639,0.289,1.832,1.832,1.929
			c3.183-1.062,4.726,0.192,7.908,0.096c3.279-1.06,7.04,0.386,10.512-0.578c1.061-0.29,1.832-0.097,2.796-0.097
			c2.122-0.482,3.568,0.482,7.812,0c-2.989-2.508-3.665-3.182-5.207-4.243c-2.219-0.964-4.243-2.508-6.269-3.666
			C730.032,721.858,725.5,722.631,721.835,724.173z M753.369,721.376c-2.604,2.508-3.567,4.244-6.075,9.451
			c2.7,0,4.051-0.868,5.208-0.482c4.821-2.026,9.257,0.867,14.271-0.386c3.183-1.157,6.558,0,9.836-1.157
			c1.157,0.579,4.629,0.579,5.497,0.193c0.097-0.193-0.868-1.157-0.579-2.411c-1.35-1.929-2.604-4.051-3.664-6.364
			c-2.121-0.193-3.375-0.579-4.821-1.447c-3.086-0.578-6.462-2.315-9.836-1.157C759.83,718.773,756.552,719.738,753.369,721.376z"/>
		<path style="fill:#FF0050;" d="M785.675,679.526c2.41,0.289,4.05-0.29,4.628,0.868c0,0.097-0.096,0.289-0.096,0.386
			c-3.568,2.025-8.197,1.157-12.344,2.314c-7.329,1.061-14.851,1.64-21.601,3.375c-1.543,2.122-3.279,5.014-2.219,7.812
			c0.097,0.096-0.289,0-0.675,0.675c0.675,0.964-0.386,1.35-0.386,2.122c-0.386,1.832-0.192,4.146-0.964,7.329
			c5.593,1.254,10.896,1.157,15.525,2.411c3.375,0.965,8.101-0.579,11.476,1.158c1.254,0,2.797-0.193,3.664,0.868
			c0.193,0.482-0.675,0.482-1.061,0.482c-3.953-0.675-6.943-0.386-10.704-0.868c-4.436-1.929-11.187-0.29-16.008-2.218
			c-1.735,0-4.436,0.482-5.786-0.482c-4.532-1.061-9.933,0.29-14.175-1.736c-7.908,0.289-14.466-2.989-22.566-2.989
			c-0.386-0.386-0.386-1.061-1.254-1.157c-2.314-0.771-5.304,0.675-6.75-1.254c0.579-1.06,2.122-0.578,3.279-1.446
			c9.74-2.122,18.708-6.364,28.641-8.197c2.797-1.35,6.269-1.736,9.354-2.989c1.062-0.097,2.122-0.289,3.086,0.097
			c1.929-0.579,4.051-1.254,6.172-1.254c4.532-0.096,8.583-2.218,13.308-1.832c1.446-0.868,3.665-0.192,5.208-0.675
			c2.989-0.29,6.075-1.061,8.871-1.832c0.579-0.29,0.868-0.482,0.965-0.675c0.867-0.386,0.964-0.386,1.64-0.289
			C784.903,679.622,785.675,679.333,785.675,679.526z M749.223,687.336c-4.821,2.122-10.415,2.122-15.43,3.568
			c-5.882,1.639-11.379,4.918-18.033,6.172c0,1.639,0.675,2.218,1.833,2.314c2.7,0.964,5.207,2.025,8.293,2.411
			c5.689,0.771,12.344,0.289,17.744,1.639c1.446,0,3.567,0,5.496,0.579c0.965-1.157,1.061-2.314,1.929-2.893
			c0-1.157,0.29-2.025,0.386-2.893c0.193-1.446,0.193-2.796,0.482-3.857c0.482-1.833,0.771-2.507,0.964-4.05
			C755.491,685.793,750.958,687.433,749.223,687.336z"/>
		<path style="fill:#FF0050;" d="M732.443,645.871c2.7,0.482,4.918,0.964,7.811,0.578c5.015,2.122,10.801-0.868,15.526,2.604
			c2.604,0.579,5.882,0.675,8.293,1.929c4.051,1.35,8.293,1.929,11.765,4.726c1.446,1.929,2.508,3.664,3.568,5.689
			c-0.193,1.929-0.097,4.146-1.832,5.014c-3.665,1.447-7.521,2.122-11.09,3.954c-7.715,0.193-14.851,2.989-22.083,1.735
			c-3.472,0.772-6.847-0.096-10.318,0.482c-5.979-0.386-11.476-2.796-17.262-3.857c-1.253-1.061-6.171-1.929-2.218-3.471
			c2.604-0.482,4.243,1.446,6.558,2.024c1.35,0.29,2.604,1.833,4.146,1.833c5.882,1.06,10.994,2.121,17.358,1.35
			c5.497,1.35,11.476,0,16.973-1.157c5.207-0.386,9.933-1.832,14.754-3.182c2.314-1.061,1.446-2.99,2.508-5.497
			c-1.254-0.868-0.868-2.7-1.736-3.471c-1.543-1.736-4.629-2.604-6.558-3.761c-3.182-0.482-6.364,0-8.679-1.832
			c-2.604-0.482-5.593,0.192-7.618-1.833c-8.679-1.446-17.454-0.771-25.555-2.796c-4.725-0.482-8.679-0.675-12.536-3.085
			c0.193-0.579,1.157-0.29,1.543-0.482C721.739,642.977,726.561,646.353,732.443,645.871z"/>
		<path style="fill:#FF0050;" d="M700.427,616.458c0.193,1.639,0.868,2.796,1.157,4.532c-0.579,2.604-0.096,4.918,0.868,8.101
			c1.351-0.675,2.315-0.482,2.797-0.289c1.832-0.193,4.146,0.289,5.979,0.193c1.736-0.386,3.857-0.579,5.593-0.579
			c2.7-1.35,6.075-1.736,8.775-2.314c1.543,0.386,3.375,0,4.822,0.193c6.558,0,13.309-1.639,19.479-2.507
			c1.157,0.096,2.894-0.193,3.954,0.096c0.192-0.096,0.675-0.096,0.771-0.192c4.821-0.193,8.679-0.29,13.501-0.29
			c2.218,0,4.146,0.386,6.171,0.482h-0.096c-2.508,1.833-5.979,1.158-8.68,1.736c-3.953-0.964-8.1,1.061-12.343-0.579
			c-2.508,2.604-5.497,0.579-8.101,1.446c-2.411-0.29-5.304-0.193-7.329,1.061c-0.964-0.097-1.832,0.289-3.183-0.193
			c-2.314,1.35-5.207,0.675-7.618,0.675c-3.954-0.868-7.136,1.736-10.897,1.253c-2.7,1.35-5.786,1.157-8.872,1.157
			c-0.964-1.061-2.507-0.096-4.436-2.218c-0.675,4.243-0.29,6.75-0.482,9.354c0.482,2.025-0.29,4.244,0,6.461
			c-0.097,0.097-0.097,0.193-0.193,0.289c-0.771-0.096-0.964-0.964-1.254-1.543c0.579-1.928,0.482-3.857,0-5.786
			c-0.386-0.482,0-1.35,0.097-2.314c-1.061-1.446-0.193-3.568-0.964-4.918c0.482-1.543-0.193-3.182-0.097-4.725
			c-0.868-1.543,0.29-3.568-0.579-5.111c0-1.351-1.832-2.701-0.289-3.761c0.096-0.097,0.289-0.193,0.482-0.29
			C699.849,615.976,700.331,616.073,700.427,616.458z"/>
		<path style="fill:#FF0050;" d="M775.838,608.744c0,0.482-0.675,0.771-1.061,0.868c-1.446,0.964-3.472,0.097-5.015,0.868
			c-0.481,0-0.867-0.193-1.157-0.482c0-0.482,0.193-0.675,0.386-0.868c1.351-0.386,2.7-2.604,4.34-0.964
			C774.585,608.069,775.163,608.358,775.838,608.744z"/>
	</g>
	<path style="fill:none;stroke:#17192D;stroke-width:3;" d="M2048,0"/>
	<path style="fill:none;stroke:#17192D;stroke-width:3;" d="M2048,1536"/>
	<path style="fill:none;stroke:#17192D;stroke-width:3;" d="M0,1536"/>
	<path style="fill:none;stroke:#17192D;stroke-width:3;" d="M0,0"/>
</g>
<g id="Layer_1">
</g>
</svg>
