<?xml version="1.0" encoding="iso-8859-1"?>
<!-- Generator: Adobe Illustrator 15.1.0, SVG Export Plug-In . SVG Version: 6.00 Build 0)  -->
<!DOCTYPE svg PUBLIC "-//W3C//DTD SVG 1.1//EN" "http://www.w3.org/Graphics/SVG/1.1/DTD/svg11.dtd">
<svg version="1.1" xmlns="http://www.w3.org/2000/svg" xmlns:xlink="http://www.w3.org/1999/xlink" x="0px" y="0px" width="2048px"
	 height="1536px" viewBox="0 0 2048 1536" style="enable-background:new 0 0 2048 1536;" xml:space="preserve">
<g id="b1a_x5F_hand_x5F_v">
	<g>
		<g>
			<path style="fill:none;stroke:#17192D;stroke-width:3;" d="M1016.697,376.765c-6.705,14.654-18.074,17.937-31.12,24.53
				c-10.548,5.775-20.571,17.37-26.683,22.608"/>
			<path style="fill:none;stroke:#17192D;stroke-width:3;" d="M1111.389,388.497c-8.078,10.498-17.531,19.602-22.016,32.603
				c-4.756,13.558-6.207,28.786-9.864,42.895c-4.748,15.65-13.181,29.1-23.225,41.462c-4.215,5.204-8.986,9.982-13.735,14.761
				c-5.218,5.241-11.567,9.669-17.287,14.514c-4.219,3.572-8.743,7.207-13.411,10.372c-4.92,3.333-8.859,3.114-12.617-1.874"/>
			<path style="fill:none;stroke:#17192D;stroke-width:3;" d="M1015.1,500.858c-1.11,1.712-3.211,2.902-4.434,4.868
				c-1.262,2.021-2.278,4.22-3.644,6.173c-2.842,4.106-6.439,8.039-9.725,11.834c-6.754,7.822-13.984,14.456-22.089,21.073
				c-2.324,1.903-4.862,3.565-7.309,5.325c-2.431,1.748-2.646,1.918-5.36,0.437c-4.152-2.255-6.258-6.09-5.247-10.979"/>
			<path style="fill:none;stroke:#17192D;stroke-width:3;" d="M995.168,496.349c-8.914,13.542-19.491,26.237-32.279,36.436
				c-5.006,4.201-9.115,9.233-14.502,13.015c-2.947,2.062-7.358,0.784-8.428-2.876c-0.94-3.232,3.274-8.052,4.99-10.451
				c2.293-3.219,4.951-6.253,7.624-9.074c3.006-3.156,4.969-7.756,7.608-11.331c2.786-3.778,6.194-6.49,8.513-10.614
				c2.359-4.183,5.569-7.792,7.925-11.962c2.664-4.731,4.15-10.008,6.093-15.045c2.581-6.681,10.684-24.651,11.811-27.16
				c1.278-2.851,3.609-13.075,3.456-15.276c-0.271-3.93-2.241-5.771-7.596-5.906"/>
			<path style="fill:none;stroke:#17192D;stroke-width:3;" d="M1035.024,503.996c-0.108,1.933-2.682,4.521-3.839,6.042
				c-1.521,2.018-3.105,4.016-4.7,5.931c-2.914,3.498-5.816,6.708-9.356,9.715c-3.547,3.022-6.926,5.802-10.044,9.183
				c-3.111,3.37-6.798,6.938-10.716,9.271c-4.137,2.451-9.402,5.103-14.066,6.637c-2.186,0.723-4.176,0.702-6.239-0.291
				c-1.662-0.801-2.858-2.779-4.075-3.335"/>
		</g>
		<path style="fill:none;stroke:#17192D;stroke-width:3;" d="M1017.756,492.482c-0.622-0.417-3.727-2.359-2.849-1.855"/>
		<path style="fill:none;stroke:#17192D;stroke-width:3;" d="M1042.677,506.344c1.53,3.151,4.117,5.79,7.747,7.921"/>
	</g>
	<path style="fill:none;stroke:#17192D;stroke-width:3;" d="M2048,0"/>
	<path style="fill:none;stroke:#17192D;stroke-width:3;" d="M2048,1536"/>
	<path style="fill:none;stroke:#17192D;stroke-width:3;" d="M0,1536"/>
	<path style="fill:none;stroke:#17192D;stroke-width:3;" d="M0,0"/>
</g>
<g id="Layer_1">
</g>
</svg>
