<svg xmlns="http://www.w3.org/2000/svg" width="2048" height="1536" viewBox="0 0 2048 1536"><g fill="none" stroke="#17192D" stroke-width="3"><path d="M581.023 422.79c6.33-7.25 6.398-16.625 9.582-25.397 3.69-9.866 8.826-16.36 18.843-19.61M550.555 483.382c.172-14.24 8.534-25.008 14.982-37.13M512.232 468.366c14.272-17.646 22.808-34.83 30.753-57.43 8.208-23.14 16.914-46.036 31.925-65.274 1.23-1.346 4.18-5.086 4.433-5.607M540.754 333.18c10.298 4.288 26.577 6.274 37.345 8.21M498.172 345.64c-14.51 18.188-18.493 40.135-18.946 62.455-.65 28.05 10.557 45.014 30.525 61.658M547.962 330.83c11.285 2.175 23.28 1.467 34.575 4.95 2.342-11.767 14.884-8.338 22.568-13.03 6.948-4.403 12.307-14.73 15.48-21.585M500.82 337.24c16.537-35.894 61.147-66.08 102.067-52.287M603.256 296.095c5.77.817 11.045 2.7 15.824 4.344M494.076 338.528c-.494-.235 3.28 2.213 4.79 2.938M607.653 425.147c7.588-13.777 19.76-18.893 16.035-37.435M587.962 449.22c-5.346 11.62-27.22 20.474-18.265 37.002M578.14 482.533c7.183-4.938 15.046-15.337 12.674-26.152M633.248 471.892c1.945 1.755 5.12-.858 6.22-2.813 2.042-3.158.565-5.515 1.333-8.873M620.943 470.35c.123 3.155 2.622 4.145 4.5 6.074M592.327 446.08c9.537 6.222 20.522 11.902 28.726 20.176M632.65 450.095c1.478-2.397 5.75-1.797 8.163-1.06M642.522 456.475c.936-1.623 1.475-3.227 1.623-4.816M659.066 489.015c5.774-5.3 6.02-11.39 9.07-17.994M650.793 482.984c-2.18 5.577 2.564 12.397 2.55 17.973M660.665 464.536c1.08-4.442 6.647-7.568 9.82-10.607 3.887-3.715 7.623-6.27 12.078-9.11M668.284 469.842c3.28-7.11 14.883-15.624 13.822-23.58M657.17 492.242c.115 2.322-.34 5.01-1.276 7.043M651.656 481.114c1.98-1.747 3.903-2.052 5.082-4.6 1.25-2.704 1.604-6.05 2.93-8.93M657.77 501.634c8.62-4.15 13.68-10.004 17.827-18.565 1.887-3.655 3.427-7.874 4.657-11.833 1.385-4.714.99-10.7 3.096-15.266M516.06 468.31c2.606 3.313 8.82 6.087 12.222 8.962 4.54 3.824 8.86 8.168 13.703 11.31 8.26 5.195 17.75 7.268 27.223 7.657 1.604-.052 3.126.053 4.578.324M639.636 348.96c6.776 3.25 12.876 8.86 19.333 12.778 8.405 4.857 15.38 10.264 21.738 17.863M627.59 316.938c2.275-4.09 10.752-6.65 15.164-6.397 5.38.3 11.674 3.307 16.058 6.644 4.85 3.575 7.815 8.715 13.218 11.513 5.252 2.727 10.37 7.032 11.882 13.135.42 1.646.198 3.405.787 5.134M642.204 324.135c5.035-1.936 12.215.88 14.035 6.303M664.24 334.48c3.188-2.205 7.57 2.802 9.373 5.314M648.32 332.225c7.347 2.487 15.737 7.34 21.59 12.21M617.54 315.63c1.708.606 3.553 1.294 5.184 2.473M605.51 289.585c19.073 5.205 36.374 14.73 53.033 25.188.882.638 1.698 1.018 2.428 1.577M682.59 350.708c26.55 12.944 51.834 26.71 79.383 37.288M708.042 410.485c1.85 6.254.81 12.372 1.208 18.763.49 6.65 1.856 13.522 2.505 20.244 1.61 12.762 4.243 24.982-1.453 37.36-1.097 2.372-2.588 4.76-3.758 7.297M579.088 497.975c9.524 4.324 18.68 9.428 28.75 12.558 10.44 3.31 20.56 2.357 31.348 3.413 18.298 1.76 43.357 11.336 58.52-5.08 2.677-2.82 5.616-7.697 7.363-10.49M714.542 487.312c-1.713-1.28.758.36 1.14.545 2.922 1.64 5.85 3.273 8.872 4.724 3.394 1.62 7.07 3.15 10.47 4.767 7.717 3.715 17.47 9.558 22.485 16.637M617.884 386.706c-2.986 2.727-6.53 4.64-8.895 8.28-1.567 2.32-2.83 5.593-2.936 8.423-.062 3.492-.153 6.874-.563 10.37-.22 2.147-.583 6.3-1.643 8.226M570.456 482.37c.702 1.062.687 2.402 1.095 3.588M599.936 423.205c.524-.737 1.284-1.643 2.044-2.36M679.162 487.656c1.29-1.31 2.4-2.952 2.983-4.728M598.25 431.585c.54 1.474 1.744 2.004 3.026 2.746M603.254 294.8c-.535-2.84-1.312-5.145-1.35-7.734M2048 0M2048 1536M0 1536M0 0"/></g></svg>