<svg xmlns="http://www.w3.org/2000/svg" width="2048" height="1536" viewBox="0 0 2048 1536"><g fill="none" stroke="#17192D" stroke-width="3"><path d="M795.57 443.963c-17.417-15.32-.203-42.022 20.608-40.827 21.93 2.688 25.928 24.278 21.394 42.478-8.68 33.802-41.854 53.372-44.977 90.92-.752 1.484-.758 3.34-.76 5.2M751.1 592.883c9.772-26.73 9.154-56.854 19.293-84.326 8.273-21.902 19.873-41.2 31.85-61.22M794.318 545.587c30.214-7.075 73.523 9.64 103.65 15.35 43.173 7.477 85.35 19.88 126.614 24.47M823.982 402.43c53.53 6.53 111.102 19.77 162.767 24.442M752.576 595.488c71.694 16.647 151.572 33.695 227.752 43.294 12.268 1.534 24.898 2.33 37.922 2.382M810.478 434.72c2.966 1.498 5.19 4.487 5.918 6.717M782.513 547.27c5.62-11.128 6.427-25.62 9.44-37.144 4.897-15.23 13.135-29.69 20.26-43.792 5.622-11.135 19.815-28.18 13.916-40.47-9.232-16.773-29.382.994-16.774 11.086M766.025 595.733c24.73-47.12 20.494-105.135 54.136-149.63M812.718 432.13c-1.117 2.23-1.15 7.808 1.065 12.644M1052.23 510.892c-13.89 32.944-19.66 98.186-33.987 130.045M1041.415 524.442c-5.62 12.844-11.238 44.417-15.25 57.26M2048 0M2048 1536M0 1536M0 0"/></g></svg>