<?xml version="1.0" encoding="iso-8859-1"?>
<!-- Generator: Adobe Illustrator 15.1.0, SVG Export Plug-In . SVG Version: 6.00 Build 0)  -->
<!DOCTYPE svg PUBLIC "-//W3C//DTD SVG 1.1//EN" "http://www.w3.org/Graphics/SVG/1.1/DTD/svg11.dtd">
<svg version="1.1" xmlns="http://www.w3.org/2000/svg" xmlns:xlink="http://www.w3.org/1999/xlink" x="0px" y="0px" width="2048px"
	 height="1536px" viewBox="0 0 2048 1536" style="enable-background:new 0 0 2048 1536;" xml:space="preserve">
<g id="b1a_x5F_zeitung">
	<g>
		<path style="fill:none;stroke:#17192D;stroke-width:3;" d="M795.57,443.963c-17.417-15.32-0.203-42.022,20.608-40.827
			c21.93,2.688,25.928,24.278,21.394,42.478c-8.679,33.802-41.854,53.372-44.977,90.92c-0.752,1.484-0.758,3.339-0.76,5.201"/>
		<path style="fill:none;stroke:#17192D;stroke-width:3;" d="M751.1,592.883c9.772-26.729,9.154-56.854,19.293-84.326
			c8.273-21.902,19.873-41.2,31.85-61.221"/>
		<path style="fill:none;stroke:#17192D;stroke-width:3;" d="M794.318,545.587c30.214-7.075,73.523,9.64,103.649,15.349
			c43.174,7.478,85.351,19.882,126.615,24.47"/>
		<path style="fill:none;stroke:#17192D;stroke-width:3;" d="M823.982,402.429c53.529,6.531,111.102,19.77,162.767,24.443"/>
		<path style="fill:none;stroke:#17192D;stroke-width:3;" d="M752.576,595.488c71.694,16.647,151.572,33.695,227.752,43.294
			c12.268,1.534,24.898,2.329,37.922,2.382"/>
		<path style="fill:none;stroke:#17192D;stroke-width:3;" d="M810.478,434.721c2.966,1.497,5.189,4.486,5.918,6.716"/>
		<path style="fill:none;stroke:#17192D;stroke-width:3;" d="M782.513,547.271c5.621-11.129,6.427-25.622,9.441-37.145
			c4.896-15.23,13.134-29.69,20.258-43.792c5.623-11.135,19.816-28.179,13.917-40.47c-9.231-16.773-29.381,0.994-16.773,11.086"/>
		<path style="fill:none;stroke:#17192D;stroke-width:3;" d="M766.025,595.733c24.731-47.121,20.494-105.135,54.136-149.629"/>
		<path style="fill:none;stroke:#17192D;stroke-width:3;" d="M812.718,432.129c-1.117,2.231-1.151,7.809,1.065,12.645"/>
		<path style="fill:none;stroke:#17192D;stroke-width:3;" d="M1052.231,510.892c-13.89,32.944-19.661,98.186-33.988,130.045"/>
		<path style="fill:none;stroke:#17192D;stroke-width:3;" d="M1041.415,524.442c-5.619,12.844-11.238,44.417-15.251,57.26"/>
	</g>
	<path style="fill:none;stroke:#17192D;stroke-width:3;" d="M2048,0"/>
	<path style="fill:none;stroke:#17192D;stroke-width:3;" d="M2048,1536"/>
	<path style="fill:none;stroke:#17192D;stroke-width:3;" d="M0,1536"/>
	<path style="fill:none;stroke:#17192D;stroke-width:3;" d="M0,0"/>
</g>
<g id="Layer_1">
</g>
</svg>
