<?xml version="1.0" encoding="iso-8859-1"?>
<!-- Generator: Adobe Illustrator 15.1.0, SVG Export Plug-In . SVG Version: 6.00 Build 0)  -->
<!DOCTYPE svg PUBLIC "-//W3C//DTD SVG 1.1//EN" "http://www.w3.org/Graphics/SVG/1.1/DTD/svg11.dtd">
<svg version="1.1" xmlns="http://www.w3.org/2000/svg" xmlns:xlink="http://www.w3.org/1999/xlink" x="0px" y="0px" width="2048px"
	 height="1536px" viewBox="0 0 2048 1536" style="enable-background:new 0 0 2048 1536;" xml:space="preserve">
<g id="b1a_x5F_hand_x5F_h">
	<g>
		<path style="fill:none;stroke:#17192D;stroke-width:3;" d="M760.346,821.958c-49.849,6.904-135.585-45.345-168.562,10.042
			c-8.998,15.347-10.229,34.883-18.42,49.771"/>
		<path style="fill:none;stroke:#17192D;stroke-width:3;" d="M773.768,910.596c-46.478-7.928-92.314-15.678-137.576-28.067"/>
		<path style="fill:none;stroke:#17192D;stroke-width:3;" d="M583.539,849.609c-10.502,10.834-38.326,14.867-38.229,32.024"/>
		<path style="fill:none;stroke:#17192D;stroke-width:3;" d="M632.662,882.93c-20.484,19.746-29.984,79.494-66.62,83.168"/>
		<path style="fill:none;stroke:#17192D;stroke-width:3;" d="M615.022,839.73c-7.551,15.059-21.763,26.932-25.66,43.68"/>
		<path style="fill:none;stroke:#17192D;stroke-width:3;" d="M568.486,949.646c2.872-9.058-10.193-5.318-13.626-4.347
			c0.906-0.839,2.183-1.861,3.076-2.542c-0.268,0.075-2.25,0.283-1.419,0.187c5.07,0.992,28.163-3.968,18.023-12.924
			c-3.605-3.196-25.796-1.267-30.294,0.489c-7.661,2.988-10.88,17.351-11.012,24.717c-0.194,11.508,11.236,12.767,21.404,12.541
			c2.821-0.066,6.267-0.248,8.67-1.717"/>
		<path style="fill:none;stroke:#17192D;stroke-width:3;" d="M572.836,883.693c-4.717,0.422-9.413-2.613-14.199-3.199
			c-4.515-0.553-7.652,0.955-11.996,1.343c-8.646,0.772-16.778-2.819-25.557-1.192c-8.938,1.652-17.188-1.809-25.879-1.068
			c-7.648,0.646-21.003,5.848-19.291,15.271"/>
		<path style="fill:none;stroke:#17192D;stroke-width:3;" d="M571.468,923.742c13.052-12.869-21.11-14.137-27.622-11.855
			c-5.492,1.926-9.441,9.336-12.019,14.027c-4.084,7.457-3.998,10.957,0.554,17.963"/>
		<path style="fill:none;stroke:#17192D;stroke-width:3;" d="M531.914,885.51c0.715,0.717,1.192,1.601,1.389,2.438"/>
		<path style="fill:none;stroke:#17192D;stroke-width:3;" d="M589.31,903.619c-2.946,4.435-6.624,9.136-5.463,14.954"/>
		<path style="fill:none;stroke:#17192D;stroke-width:3;" d="M562.965,902.235c-5.537,0.492-10.417-3.455-15.933-4.356
			c-5.125-0.842-10.5,0.918-15.349,0.431c-5.987-0.595-9.845-2.04-15.906-1.267c-5.872,0.747-10.279,0.422-16.159-1.189
			c-6.551-1.792-26.598-4.279-27.732,6.129c-1.245,11.408,18.113,10.339,24.295,11.432c6.096,1.07,11.577,2.562,17.454,3.258
			c5.714,0.67,12.367,4.103,18.304,3.789"/>
		<path style="fill:none;stroke:#17192D;stroke-width:3;" d="M569.001,890.184c0.3,1.688,0.013,3.577-0.752,5.273"/>
		<path style="fill:none;stroke:#17192D;stroke-width:3;" d="M567.713,904.902c-0.174,0.636-0.348,1.275-0.524,1.913"/>
		<path style="fill:none;stroke:#17192D;stroke-width:3;" d="M497.152,894.52c-0.604-0.248-1.044,0.147-1.009-0.207
			c0.586-4.111,3.371-6.535,4.511-10.368c1.862-0.052,8.939-0.469,8.709,2.796c-0.268,3.734-7.643,2.449-8.758-0.304
			c1.685,2.075,5.477,3.456,7.805,1.841c-1.628,2.578-3.513,4.711-4.239,7.639"/>
		<path style="fill:none;stroke:#17192D;stroke-width:3;" d="M489.867,913.507c-2.173,7.972-7.18,17.752-6.532,26.142
			c1.344,0.635,3.277,1.166,4.756,1.303c4.069-8.12,7.109-19.994,10.19-27.262"/>
	</g>
	<path style="fill:none;stroke:#17192D;stroke-width:3;" d="M2048,0"/>
	<path style="fill:none;stroke:#17192D;stroke-width:3;" d="M2048,1536"/>
	<path style="fill:none;stroke:#17192D;stroke-width:3;" d="M0,1536"/>
	<path style="fill:none;stroke:#17192D;stroke-width:3;" d="M0,0"/>
</g>
<g id="Layer_1">
</g>
</svg>
