<?xml version="1.0" encoding="iso-8859-1"?>
<!-- Generator: Adobe Illustrator 15.1.0, SVG Export Plug-In . SVG Version: 6.00 Build 0)  -->
<!DOCTYPE svg PUBLIC "-//W3C//DTD SVG 1.1//EN" "http://www.w3.org/Graphics/SVG/1.1/DTD/svg11.dtd">
<svg version="1.1" xmlns="http://www.w3.org/2000/svg" xmlns:xlink="http://www.w3.org/1999/xlink" x="0px" y="0px" width="2048px"
	 height="1536px" viewBox="0 0 2048 1536" style="enable-background:new 0 0 2048 1536;" xml:space="preserve">
<g id="b1a_x5F_kimono">
	<g>
		<path style="fill:none;stroke:#17192D;stroke-width:3;" d="M739.305,335.937c9.575-16.212,31.453-17.932,47.034-24.792
			c21.448-9.542,34.508-29.089,50.096-45.372c12.329-13.755,25.603-34.094,42.414-42.338c13.985-7.308,36.441-8.004,52.884-8.644
			c63.822-4.796,134.222,0.78,197.085,11.988c25.35,4.37,66.628,13.101,82.184,34.488c13.243,17.323-0.133,59.901-13.907,75.829"/>
		<path style="fill:none;stroke:#17192D;stroke-width:3;" d="M1160.811,328.882c5.719,4.133,34.111,6.769,35.631,10.602
			c2.452,6.669-20.956,23.379-24.652,27.507"/>
		<path style="fill:none;stroke:#17192D;stroke-width:3;" d="M1095.211,407.926c7.453-0.913,14.793-3.022,21.926-7.09
			c18.265-10.413,36.388-23.435,54.652-33.846"/>
		<path style="fill:none;stroke:#17192D;stroke-width:3;" d="M1112.409,271.103c-48.325,10.746-71.9,43.681-99.389,81.543
			c-8.048,10.639-26.902,29.452-13.364,42.579"/>
		<path style="fill:none;stroke:#17192D;stroke-width:3;" d="M1081.104,282.225c-1.767-12.957,12.994-23.618,24.092-26.716
			c-0.5,0.902-1.223,1.255-1.902,1.963"/>
		<path style="fill:none;stroke:#17192D;stroke-width:3;" d="M954.169,314.267c17.516,14.219,37.061,27.273,59.662,29.176"/>
		<path style="fill:none;stroke:#17192D;stroke-width:3;" d="M932.86,326.418c12.168,2.476,25.568,3.575,37.016,2.428"/>
		<path style="fill:none;stroke:#17192D;stroke-width:3;" d="M885.217,234.59c3.025,17.106,21.183,38.343,33.559,49.438"/>
		<path style="fill:none;stroke:#17192D;stroke-width:3;" d="M1120.231,423.944c10.998,9.863,17.22,18.417,23.146,31.173
			c3.399,9.488,5.342,21.152,13.015,27.536"/>
		<path style="fill:none;stroke:#17192D;stroke-width:3;" d="M1016.347,354.549c30.555-9.907,71.909-13.368,102.317-3.784"/>
		<path style="fill:none;stroke:#17192D;stroke-width:3;" d="M1131.922,393.752c3.765,1.888,32.163-4.894,43.174-4.445
			c17.239-0.421,36.219,2.206,53.385,5.189c35.919,6.408,73.138,17.451,103.183,35.951c10.28,6.24,19.328,13.855,27.36,22.05"/>
		<path style="fill:none;stroke:#17192D;stroke-width:3;" d="M1125.281,521.228c-31.386,23.951-50.912,63.991-58.986,102.881"/>
		<path style="fill:none;stroke:#17192D;stroke-width:3;" d="M998.83,640.518c0.179,8.246,0.714,16.477,1.438,24.6"/>
		<path style="fill:none;stroke:#17192D;stroke-width:3;" d="M984.049,639.22c2.639,11.939,6.027,23.65,10.417,34.584"/>
		<path style="fill:none;stroke:#17192D;stroke-width:3;" d="M867.491,620.313c7.281,7.034,14.873,13.776,23.133,19.929
			c22.661,17.332,68.993,42.004,98.042,42.249c3.403,0.073,0.219-0.798,1.231-1.378"/>
		<path style="fill:none;stroke:#17192D;stroke-width:3;" d="M737.857,338.115c20.899,33.12,33.326,69.062,46.548,105.22
			c2.726,7.455,4.869,15.066,6.767,22.741"/>
		<path style="fill:none;stroke:#17192D;stroke-width:3;" d="M893.052,625.143c7.1,4.837,14.722,9.293,22.858,13.453
			c20.2,10.67,51.476,27.794,74.292,28.904"/>
		<path style="fill:none;stroke:#17192D;stroke-width:3;" d="M746.626,331.097c16.479,28.903,33.348,54.713,46.565,83.665"/>
		<path style="fill:none;stroke:#17192D;stroke-width:3;" d="M767.575,517.164c-17.436-2.336-34.82-4.688-48.419-13.769"/>
		<path style="fill:none;stroke:#17192D;stroke-width:3;" d="M765.222,526.222c-2.986-0.599-6.005-1.13-9.07-1.57
			c-18.978-2.625-28.61-1.842-37.432-19.671"/>
		<path style="fill:none;stroke:#17192D;stroke-width:3;" d="M799.519,700.924c15.789,1.757,33,29.584,45.595,39.888
			c18.89,15.444,43.009,21.187,66.622,22.51"/>
		<path style="fill:none;stroke:#17192D;stroke-width:3;" d="M792.484,710.991c8.107,4.787,17.886,6.601,27.442,9.218"/>
		<path style="fill:none;stroke:#17192D;stroke-width:3;" d="M725.522,514.55c-2.41,18.186-0.399,35.856-5.995,53.167
			c-5.371,16.512-13.356,33.161-18.733,49.67c-13.51,39.972-10.274,65.691,10.551,102.22c16.2,28.408,39.145,50.952,61.07,74.085"/>
		<path style="fill:none;stroke:#17192D;stroke-width:3;" d="M848.397,791.37c-34.688-7.78-83.144-9.063-100.778,27.214
			c25.159-32.5,60.963,24.395,73.7,37.306"/>
		<path style="fill:none;stroke:#17192D;stroke-width:3;" d="M722.477,904.187c5.052,15.938-5.398,35.344,8.206,54.479
			c10.851,16.669,30.107,24.507,49.441,28.946"/>
		<path style="fill:none;stroke:#17192D;stroke-width:3;" d="M1038.551,628.501c-30.232,25.978-55.037,60.286-82.731,89.524
			c-30.384,32.779-65.683,61.651-96.286,95.234c-35.747,39.882-67.219,76.648-81.394,128.424"/>
		<path style="fill:none;stroke:#17192D;stroke-width:3;" d="M773.718,951.6c-6.306,76.201,39.339,140.928,83.764,197.608
			c19.679,25.085,41.386,49.009,55.772,77.782c12.292,23.915,20.013,55.137,33.394,75.068"/>
		<path style="fill:none;stroke:#17192D;stroke-width:3;" d="M975.318,931.437c36.352,14.237,76.56,8.116,114.651,15.974
			c36.718,6.63,68.287,19.543,96.586,44.423"/>
		<path style="fill:none;stroke:#17192D;stroke-width:3;" d="M925.688,946.964c18.456,17.042,34.955,31.834,56.531,43.729"/>
		<path style="fill:none;stroke:#17192D;stroke-width:3;" d="M975.118,913.4c4.27,6.309,8.539,12.613,14.256,16.748"/>
		<path style="fill:none;stroke:#17192D;stroke-width:3;" d="M1084.806,891.197c-9.416-0.008-21.44,0.124-29.773,5.549"/>
		<path style="fill:none;stroke:#17192D;stroke-width:3;" d="M1184.668,995.6c-5.448,19.912-6.485,39.323-12.513,58.227
			c-6.03,18.896-16.405,34.896-23.229,53.575c-14.094,38.958-36.22,79.144-62.98,111.203
			c-29.443,35.605-90.185,82.347-138.14,85.485"/>
		<path style="fill:none;stroke:#17192D;stroke-width:3;" d="M1172.008,979.287c-5.652,1.879-18.534,67.709-22.602,79.438
			c-14.45,37.149-32.883,73.201-57.032,105.122c-42.716,55.95-90.853,94.148-154.623,123.792"/>
		<path style="fill:none;stroke:#17192D;stroke-width:3;" d="M1335.142,733.665c-33.752,76.387-136.203,106.573-191.238,166.858
			c-7.177,7.455-14.573,15.706-20.95,23.374"/>
		<path style="fill:none;stroke:#17192D;stroke-width:3;" d="M1241.128,880.044c13.572-24.539,38.226-52.044,67.709-53.394
			c6.989,37.023-7.098,75.979-14.306,111.685c-6.985,34.901-7.814,72.353-21.395,106.312c-7.406,17.665-15.393,43.735-29.897,56.038
			"/>
		<path style="fill:none;stroke:#17192D;stroke-width:3;" d="M1230.812,839.539c-1.379-1.229-3.77-1.881-3.77-1.881
			c11.949,3.272,22.669,7.915,31.933,14.73"/>
		<path style="fill:none;stroke:#17192D;stroke-width:3;" d="M1292.315,830.688c2.933,39.336-9.125,77.138-17.562,114.212
			c-8.874,38.673-13.546,77.642-28.576,113.774c-4.643,10.712-9.443,28.242-17.636,36.277"/>
		<path style="fill:none;stroke:#17192D;stroke-width:3;" d="M1182.046,1086.502c20.859-1.14,41.278,8.73,61.413,13.382"/>
		<path style="fill:none;stroke:#17192D;stroke-width:3;" d="M1141.803,1130.286c24.421,7.601,33.352-7.175,51.524-21.671
			c10.03-7.994,21.005-10.521,32.823-14.321"/>
		<path style="fill:none;stroke:#17192D;stroke-width:3;" d="M1239.619,1101.402c-39.192,5.544-54.445,51.884-95.428,29.539"/>
		<path style="fill:none;stroke:#17192D;stroke-width:3;" d="M737.218,339.239c-6.624,7.231-9.554,15.821-10.703,25.288
			c-0.18,1.476-1.264,4.427-0.433,5.407"/>
		<path style="fill:none;stroke:#17192D;stroke-width:3;" d="M717.312,499.736"/>
		<path style="fill:none;stroke:#17192D;stroke-width:3;" d="M718.414,502.224c-3.063-4.374-5.127-8.86-3.705-12.539"/>
		<path style="fill:none;stroke:#17192D;stroke-width:3;" d="M1016.326,373.605c40.952-12.495,72.518,2.074,109.951,2.442"/>
		<path style="fill:none;" d="M734.561,337.966"/>
		<path style="fill:none;stroke:#17192D;stroke-width:3;" d="M1375.841,424.729c-9.07,14.571-16.388,30.709-16.009,47.866
			c0.445,18.264,3.345,36.83,4.893,55.036c1.948,19.396-0.189,39.129,0.988,58.679c1.301,21.764,6.955,42.182,14.491,62.381
			c1.987,5.989,5.511,11.668,7.933,17.411"/>
		<path style="fill:none;stroke:#17192D;stroke-width:3;" d="M1340.212,778.879c0.47-9.668,1.98-16.512,0.576-25.968
			c-1.252-8.68-1.152-17.002,0.055-25.382c2.869-18.439,8.292-36.913,13.282-55.135c4.527-16.541,9.238-33.757,17.626-48.51"/>
	</g>
	<path style="fill:none;stroke:#17192D;stroke-width:3;" d="M2048,0"/>
	<path style="fill:none;stroke:#17192D;stroke-width:3;" d="M2048,1536"/>
	<path style="fill:none;stroke:#17192D;stroke-width:3;" d="M0,1536"/>
	<path style="fill:none;stroke:#17192D;stroke-width:3;" d="M0,0"/>
</g>
<g id="Layer_1">
</g>
</svg>
