<svg xmlns="http://www.w3.org/2000/svg" width="2048" height="1536" viewBox="0 0 2048 1536"><g fill="none" stroke="#17192D" stroke-width="3"><path d="M1056.98 1248.845c1.32 15.34 22.8 20.438 33.663 29.72 16.135 13.093 27.322 32.718 20.033 53.594-4.955 15.206-17.445 29.14-25.33 43.536-7.484 12.94-12.232 27.414-18.248 40.756-10.497 23.938-18.797 48.482-29.295 72.424-4.478 10.604-14.1 28.473-26.182 32.27-15.618 5.186-15.067-11.228-4.918-19.488M974.56 1486.545c-.696 4.424-7.31 10.96-8.488 16.606-1.147 5.522 2.558 14.584 9.13 12.752M986.702 1488.293c-.73 6.393-19.335 26.166-2.7 30.018M999.103 1494.84c-2.39 6.81-9.64 7.947-10.686 16.005-.682 5.216 4.675 17.078 11.195 10.955M978.206 1297.47c8.728 14.222 17.39 22.905 15.103 42.784-1.614 14.546-3.96 28.88-5.043 44.363-2.234 34.086-5.805 70.178-23.647 100.783-4.614 8.202-18.034 22.67-2.298 28.553M2048 0M2048 1536M0 1536M0 0"/></g></svg>