<svg xmlns="http://www.w3.org/2000/svg" width="2048" height="1536" viewBox="0 0 2048 1536"><g fill="none" stroke="#17192D" stroke-width="3"><path d="M1293.15 968.05c18.414 1.89 38.16 1.776 56.772 2.927 18.814.416 37.158 5.436 56.907 5.322 15.144-.593 34.83-6.24 49.907-3.69 14.346 2.348 28.938 18.173 41.875 25.655 18.732 12.228 60.948 30.878 62.594 56.57M1265.163 1073.173c37.228 2.305 77.062-4.934 115.292-6.298 41.37-1.295 71.18 10.812 108.988 28.26 14.808 6.414 37.15 14.11 39.336 32.062M1561.597 1057.988c2.818 3.19 4.565 7.826 7.54 10.686 2.328 2.227 5.93 5.612 6.78 9.604 1.227 5.763-2.383 6.7-5.397 5.75-2.54-.81-6.09-4.764-7.812-7.79-.06-.147-.116-.272-.174-.413M1558.375 1091.102c-.412-.334-.635-.065-.925-.69 4.627 3.117 7.448 14.278 13.323 11.825 2.078-.866 4.95-3.848 4.172-7.908-.352-1.857-1.49-2.31-2.25-3.425-1.02-1.507-1.84-3.48-3.03-4.63M1549.357 1108.433c3.932 4.165 7.994 9.983 12.828 10.965 3.914.805 11.254-10.232 5.65-15.354M1537.307 1093.54c1.82 1.882 3.193 4.853 5.156 6.472M1543.626 1075.52c1.103 2.402 3.48 4.214 4.975 6.072M1547.29 1063.3c.976 1.94 2.523 2.824 3.616 4.598M1532.157 1105.687c.053 1.835 1.4 3.38 3.195 3.92M1528.78 1127.197c5.498 6.61 9.786 20.696 17.625 20.847M1542.19 1118.194c.705 3.715 7.92 11.542 10.314 14.254 4.253 4.606 13.758 4.063 9.83-7.057M1548.754 1148.846c3.234-.16 6.424-4.754 7.02-9.6M2048 0M2048 1536M0 1536M0 0"/></g></svg>