<?xml version="1.0" encoding="iso-8859-1"?>
<!-- Generator: Adobe Illustrator 15.1.0, SVG Export Plug-In . SVG Version: 6.00 Build 0)  -->
<!DOCTYPE svg PUBLIC "-//W3C//DTD SVG 1.1//EN" "http://www.w3.org/Graphics/SVG/1.1/DTD/svg11.dtd">
<svg version="1.1" xmlns="http://www.w3.org/2000/svg" xmlns:xlink="http://www.w3.org/1999/xlink" x="0px" y="0px" width="2048px"
	 height="1536px" viewBox="0 0 2048 1536" style="enable-background:new 0 0 2048 1536;" xml:space="preserve">
<g id="b1a_x5F_fuss_x5F_v">
	<g>
		<path style="fill:none;stroke:#17192D;stroke-width:3;" d="M1056.979,1248.845c1.321,15.34,22.8,20.438,33.664,29.72
			c16.135,13.093,27.322,32.718,20.033,53.594c-4.955,15.207-17.445,29.142-25.331,43.537
			c-7.483,12.941-12.231,27.414-18.247,40.756c-10.497,23.938-18.797,48.482-29.295,72.424c-4.478,10.604-14.1,28.473-26.182,32.271
			c-15.619,5.185-15.068-11.229-4.919-19.489"/>
		<path style="fill:none;stroke:#17192D;stroke-width:3;" d="M974.56,1486.545c-0.696,4.424-7.311,10.961-8.488,16.606
			c-1.147,5.521,2.558,14.583,9.13,12.751"/>
		<path style="fill:none;stroke:#17192D;stroke-width:3;" d="M986.702,1488.293c-0.731,6.393-19.335,26.166-2.699,30.018"/>
		<path style="fill:none;stroke:#17192D;stroke-width:3;" d="M999.103,1494.839c-2.391,6.812-9.64,7.948-10.686,16.006
			c-0.682,5.216,4.675,17.078,11.195,10.955"/>
		<path style="fill:none;stroke:#17192D;stroke-width:3;" d="M978.206,1297.471c8.728,14.221,17.391,22.904,15.103,42.783
			c-1.613,14.546-3.96,28.881-5.042,44.363c-2.234,34.086-5.805,70.178-23.647,100.783c-4.614,8.202-18.034,22.669-2.298,28.553"/>
	</g>
	<path style="fill:none;stroke:#17192D;stroke-width:3;" d="M2048,0"/>
	<path style="fill:none;stroke:#17192D;stroke-width:3;" d="M2048,1536"/>
	<path style="fill:none;stroke:#17192D;stroke-width:3;" d="M0,1536"/>
	<path style="fill:none;stroke:#17192D;stroke-width:3;" d="M0,0"/>
</g>
<g id="Layer_1">
</g>
</svg>
