<svg xmlns="http://www.w3.org/2000/svg" width="2048" height="1536" viewBox="0 0 2048 1536"><g fill="none" stroke="#17192D" stroke-width="3"><path d="M760.346 821.958c-49.85 6.904-135.585-45.345-168.562 10.042-8.998 15.347-10.23 34.883-18.42 49.77M773.768 910.596c-46.478-7.928-92.314-15.678-137.576-28.067M583.54 849.61c-10.503 10.833-38.327 14.866-38.23 32.023M632.662 882.93c-20.484 19.746-29.984 79.494-66.62 83.168M615.022 839.73c-7.55 15.06-21.763 26.932-25.66 43.68M568.486 949.646c2.872-9.058-10.193-5.318-13.626-4.347.906-.84 2.183-1.862 3.076-2.543-.268.075-2.25.283-1.42.187 5.07.992 28.164-3.968 18.024-12.924-3.605-3.196-25.796-1.267-30.294.49-7.66 2.987-10.88 17.35-11.012 24.716-.194 11.508 11.236 12.767 21.404 12.54 2.82-.065 6.267-.247 8.67-1.716M572.836 883.693c-4.717.422-9.413-2.613-14.2-3.2-4.514-.552-7.65.956-11.995 1.344-8.645.772-16.777-2.82-25.556-1.192-8.938 1.652-17.188-1.81-25.88-1.068-7.647.646-21.002 5.848-19.29 15.27M571.468 923.742c13.052-12.87-21.11-14.137-27.622-11.855-5.492 1.926-9.44 9.336-12.02 14.027-4.083 7.457-3.997 10.957.555 17.963M531.914 885.51c.715.717 1.192 1.6 1.39 2.438M589.31 903.62c-2.946 4.434-6.624 9.135-5.463 14.953M562.965 902.235c-5.537.492-10.417-3.455-15.933-4.356-5.125-.843-10.5.917-15.35.43-5.986-.595-9.844-2.04-15.905-1.267-5.872.747-10.28.422-16.16-1.19-6.55-1.79-26.597-4.278-27.73 6.13-1.246 11.408 18.112 10.34 24.294 11.432 6.097 1.07 11.578 2.562 17.455 3.258 5.714.67 12.367 4.103 18.304 3.79M569 890.184c.3 1.688.014 3.577-.75 5.273M567.713 904.902c-.174.636-.348 1.275-.524 1.913M497.152 894.52c-.604-.248-1.044.147-1.01-.207.587-4.11 3.372-6.535 4.512-10.368 1.862-.052 8.94-.47 8.71 2.796-.27 3.735-7.644 2.45-8.76-.303 1.686 2.075 5.478 3.456 7.806 1.84-1.628 2.58-3.513 4.712-4.24 7.64M489.867 913.507c-2.173 7.972-7.18 17.752-6.532 26.142 1.344.634 3.277 1.165 4.756 1.302 4.07-8.12 7.11-19.994 10.19-27.262M2048 0M2048 1536M0 1536M0 0"/></g></svg>