<svg xmlns="http://www.w3.org/2000/svg" width="2048" height="1536" viewBox="0 0 2048 1536"><g fill="none"><path d="M739.305 335.937c9.575-16.212 31.453-17.932 47.034-24.792 21.447-9.542 34.507-29.09 50.095-45.372 12.33-13.755 25.603-34.094 42.414-42.338 13.984-7.308 36.44-8.004 52.883-8.644 63.822-4.795 134.222.78 197.085 11.99 25.35 4.37 66.628 13.1 82.184 34.487 13.243 17.323-.133 59.9-13.907 75.83M1160.81 328.882c5.72 4.133 34.112 6.77 35.632 10.602 2.452 6.67-20.956 23.38-24.652 27.507M1095.21 407.926c7.454-.913 14.794-3.022 21.927-7.09 18.265-10.413 36.388-23.435 54.652-33.846M1112.41 271.103c-48.326 10.746-71.9 43.68-99.39 81.543-8.048 10.64-26.902 29.452-13.364 42.58M1081.104 282.225c-1.767-12.957 12.994-23.618 24.092-26.716-.5.9-1.223 1.254-1.902 1.962M954.17 314.267c17.515 14.22 37.06 27.273 59.66 29.176M932.86 326.418c12.168 2.476 25.568 3.575 37.016 2.428M885.217 234.59c3.025 17.106 21.183 38.343 33.56 49.438M1120.23 423.944c11 9.863 17.22 18.417 23.147 31.173 3.4 9.488 5.342 21.152 13.015 27.536M1016.347 354.55c30.555-9.908 71.91-13.37 102.317-3.785M1131.922 393.752c3.765 1.888 32.163-4.894 43.174-4.445 17.24-.42 36.22 2.206 53.385 5.19 35.92 6.407 73.14 17.45 103.184 35.95 10.28 6.24 19.328 13.855 27.36 22.05M1125.28 521.228c-31.385 23.95-50.91 63.99-58.985 102.88M998.83 640.518c.18 8.246.714 16.477 1.438 24.6M984.05 639.22c2.638 11.94 6.026 23.65 10.416 34.584M867.49 620.313c7.282 7.034 14.874 13.776 23.134 19.93 22.66 17.33 68.993 42.003 98.042 42.248 3.403.074.22-.797 1.23-1.377M737.857 338.115c20.9 33.12 33.326 69.062 46.548 105.22 2.726 7.455 4.87 15.066 6.767 22.74M893.052 625.143c7.1 4.837 14.722 9.293 22.858 13.453 20.2 10.67 51.476 27.794 74.292 28.904M746.626 331.097c16.48 28.903 33.348 54.713 46.565 83.665M767.575 517.164c-17.436-2.336-34.82-4.688-48.42-13.77M765.222 526.222c-2.986-.6-6.005-1.13-9.07-1.57-18.978-2.625-28.61-1.842-37.432-19.67M799.52 700.924c15.788 1.757 33 29.584 45.594 39.888 18.89 15.444 43.01 21.187 66.622 22.51M792.484 710.99c8.107 4.788 17.886 6.602 27.442 9.22M725.522 514.55c-2.41 18.186-.4 35.856-5.995 53.167-5.37 16.512-13.356 33.16-18.733 49.67-13.51 39.972-10.274 65.69 10.55 102.22 16.2 28.408 39.146 50.952 61.07 74.085M848.397 791.37c-34.688-7.78-83.144-9.063-100.778 27.214 25.158-32.5 60.962 24.395 73.7 37.306M722.477 904.187c5.052 15.938-5.398 35.344 8.206 54.48 10.85 16.668 30.107 24.506 49.44 28.945M1038.55 628.5c-30.23 25.98-55.036 60.287-82.73 89.525-30.384 32.78-65.683 61.65-96.286 95.234-35.747 39.88-67.22 76.647-81.394 128.423M773.718 951.6c-6.306 76.2 39.34 140.928 83.764 197.608 19.68 25.085 41.386 49.01 55.772 77.782 12.292 23.915 20.013 55.137 33.394 75.068M975.318 931.437c36.352 14.237 76.56 8.116 114.65 15.974 36.72 6.63 68.288 19.544 96.587 44.424M925.688 946.964c18.456 17.042 34.955 31.834 56.53 43.73M975.118 913.4c4.27 6.31 8.54 12.613 14.256 16.748M1084.806 891.197c-9.416-.008-21.44.124-29.773 5.55M1184.668 995.6c-5.448 19.912-6.485 39.323-12.513 58.227-6.03 18.896-16.405 34.896-23.23 53.575-14.093 38.958-36.22 79.144-62.98 111.203-29.442 35.605-90.184 82.347-138.14 85.485M1172.008 979.287c-5.652 1.88-18.534 67.71-22.602 79.438-14.45 37.15-32.883 73.2-57.032 105.122-42.716 55.95-90.853 94.148-154.623 123.792M1335.142 733.665c-33.752 76.387-136.203 106.573-191.238 166.858-7.177 7.455-14.573 15.706-20.95 23.374M1241.128 880.044c13.572-24.54 38.226-52.044 67.71-53.394 6.988 37.023-7.1 75.98-14.307 111.685-6.984 34.9-7.813 72.353-21.394 106.312-7.406 17.665-15.393 43.735-29.897 56.038M1230.812 839.54c-1.38-1.23-3.77-1.882-3.77-1.882 11.95 3.272 22.67 7.915 31.933 14.73M1292.315 830.688c2.933 39.336-9.125 77.138-17.562 114.212-8.874 38.673-13.546 77.642-28.576 113.774-4.643 10.712-9.443 28.242-17.636 36.277M1182.046 1086.502c20.86-1.14 41.278 8.73 61.413 13.382M1141.803 1130.286c24.42 7.6 33.352-7.175 51.524-21.67 10.03-7.995 21.005-10.522 32.823-14.322M1239.62 1101.402c-39.193 5.544-54.446 51.884-95.43 29.54M737.218 339.24c-6.624 7.23-9.554 15.82-10.703 25.287-.18 1.476-1.264 4.427-.433 5.407M717.312 499.736M718.414 502.224c-3.063-4.374-5.127-8.86-3.705-12.54M1016.326 373.605c40.952-12.495 72.518 2.074 109.95 2.442" stroke="#17192D" stroke-width="3"/><path d="M734.56 337.966"/><path d="M1375.84 424.73c-9.07 14.57-16.387 30.708-16.008 47.865.445 18.264 3.345 36.83 4.893 55.036 1.948 19.397-.19 39.13.988 58.68 1.3 21.764 6.955 42.182 14.49 62.38 1.988 5.99 5.512 11.67 7.934 17.412M1340.212 778.88c.47-9.67 1.98-16.513.576-25.97-1.252-8.68-1.152-17 .055-25.38 2.87-18.44 8.292-36.914 13.282-55.136 4.527-16.54 9.238-33.757 17.626-48.51M2048 0M2048 1536M0 1536M0 0" stroke="#17192D" stroke-width="3"/></g></svg>