<svg xmlns="http://www.w3.org/2000/svg" width="2048" height="1536" viewBox="0 0 2048 1536"><g fill="none" stroke="#17192D" stroke-width="3"><path d="M1016.697 376.765c-6.705 14.654-18.074 17.937-31.12 24.53-10.548 5.775-20.57 17.37-26.683 22.608M1111.39 388.497c-8.08 10.498-17.532 19.602-22.017 32.603-4.756 13.558-6.207 28.786-9.864 42.895-4.75 15.65-13.182 29.1-23.226 41.462-4.215 5.204-8.986 9.982-13.735 14.76-5.22 5.242-11.568 9.67-17.288 14.515-4.22 3.572-8.743 7.207-13.41 10.372-4.92 3.333-8.86 3.114-12.618-1.874M1015.1 500.858c-1.11 1.712-3.21 2.902-4.434 4.868-1.262 2.02-2.278 4.22-3.644 6.173-2.842 4.105-6.44 8.038-9.725 11.833-6.754 7.822-13.984 14.456-22.09 21.073-2.323 1.903-4.86 3.565-7.308 5.325-2.432 1.75-2.647 1.92-5.36.438-4.153-2.255-6.26-6.09-5.248-10.98M995.168 496.35c-8.914 13.54-19.49 26.236-32.28 36.435-5.005 4.2-9.114 9.233-14.5 13.015-2.948 2.062-7.36.784-8.43-2.876-.94-3.232 3.275-8.052 4.99-10.45 2.294-3.22 4.952-6.254 7.625-9.075 3.006-3.157 4.97-7.757 7.608-11.332 2.787-3.778 6.195-6.49 8.514-10.614 2.36-4.183 5.57-7.792 7.925-11.962 2.663-4.73 4.15-10.008 6.092-15.045 2.58-6.68 10.684-24.65 11.81-27.16 1.28-2.85 3.61-13.075 3.457-15.276-.272-3.93-2.242-5.77-7.597-5.905M1035.024 503.996c-.108 1.933-2.682 4.52-3.84 6.042-1.52 2.018-3.104 4.016-4.7 5.93-2.913 3.5-5.815 6.71-9.355 9.716-3.548 3.022-6.927 5.802-10.045 9.183-3.11 3.37-6.798 6.938-10.716 9.27-4.138 2.452-9.403 5.104-14.067 6.638-2.186.723-4.176.702-6.24-.29-1.66-.802-2.857-2.78-4.074-3.336M1017.756 492.482c-.622-.417-3.727-2.36-2.85-1.855M1042.677 506.344c1.53 3.15 4.117 5.79 7.747 7.92M2048 0M2048 1536M0 1536M0 0"/></g></svg>