<?xml version="1.0" encoding="iso-8859-1"?>
<!-- Generator: Adobe Illustrator 15.1.0, SVG Export Plug-In . SVG Version: 6.00 Build 0)  -->
<!DOCTYPE svg PUBLIC "-//W3C//DTD SVG 1.1//EN" "http://www.w3.org/Graphics/SVG/1.1/DTD/svg11.dtd">
<svg version="1.1" xmlns="http://www.w3.org/2000/svg" xmlns:xlink="http://www.w3.org/1999/xlink" x="0px" y="0px" width="2048px"
	 height="1536px" viewBox="0 0 2048 1536" style="enable-background:new 0 0 2048 1536;" xml:space="preserve">
<g id="b1b_x5F_kopf">
	<g>
		<path style="fill:none;stroke:#FF0050;stroke-width:3;" d="M581.028,1113.22c6.327,7.25,6.397,16.623,9.582,25.394
			c3.689,9.865,8.825,16.361,18.843,19.609"/>
		<path style="fill:none;stroke:#FF0050;stroke-width:3;" d="M550.559,1052.627c0.172,14.241,8.535,25.008,14.982,37.128"/>
		<path style="fill:none;stroke:#FF0050;stroke-width:3;" d="M512.239,1067.643c14.27,17.646,22.808,34.827,30.751,57.427
			c8.208,23.141,16.913,46.037,31.925,65.274c1.228,1.346,4.182,5.086,4.435,5.608"/>
		<path style="fill:none;stroke:#FF0050;stroke-width:3;" d="M540.761,1202.826c10.295-4.29,26.575-6.275,37.343-8.21"/>
		<path style="fill:none;stroke:#FF0050;stroke-width:3;" d="M498.177,1190.365c-14.511-18.188-18.496-40.131-18.949-62.451
			c-0.648-28.049,10.557-45.015,30.527-61.658"/>
		<path style="fill:none;stroke:#FF0050;stroke-width:3;" d="M547.967,1205.174c11.286-2.174,23.279-1.467,34.575-4.951
			c2.342,11.768,14.882,8.34,22.568,13.033c6.948,4.402,12.309,14.729,15.479,21.58"/>
		<path style="fill:none;stroke:#FF0050;stroke-width:3;" d="M500.823,1198.764c16.539,35.893,61.15,66.075,102.071,52.284"/>
		<path style="fill:none;stroke:#FF0050;stroke-width:3;" d="M603.262,1239.905c5.768-0.814,11.042-2.695,15.824-4.341"/>
		<path style="fill:none;stroke:#FF0050;stroke-width:3;" d="M494.083,1197.476c-0.496,0.236,3.277-2.211,4.789-2.937"/>
		<path style="fill:none;stroke:#FF0050;stroke-width:3;" d="M603.257,1241.204c-0.532,2.838-1.311,5.143-1.346,7.734"/>
		<path style="fill:none;stroke:#FF0050;stroke-width:3;" d="M607.657,1110.861c7.59,13.775,19.762,18.893,16.036,37.434"/>
		<path style="fill:none;stroke:#FF0050;stroke-width:3;" d="M587.968,1086.789c-5.347-11.619-27.223-20.475-18.267-37.003"/>
		<path style="fill:none;stroke:#FF0050;stroke-width:3;" d="M578.145,1053.476c7.184,4.937,15.045,15.337,12.673,26.152"/>
		<path style="fill:none;stroke:#FF0050;stroke-width:3;" d="M633.254,1064.117c1.942-1.756,5.115,0.857,6.219,2.812
			c2.043,3.158,0.566,5.514,1.332,8.872"/>
		<path style="fill:none;stroke:#FF0050;stroke-width:3;" d="M620.949,1065.66c0.122-3.157,2.621-4.147,4.498-6.075"/>
		<path style="fill:none;stroke:#FF0050;stroke-width:3;" d="M592.331,1089.928c9.539-6.223,20.521-11.902,28.728-20.176"/>
		<path style="fill:none;stroke:#FF0050;stroke-width:3;" d="M632.655,1085.913c1.479,2.397,5.754,1.798,8.161,1.061"/>
		<path style="fill:none;stroke:#FF0050;stroke-width:3;" d="M642.527,1079.533c0.933,1.623,1.474,3.227,1.623,4.816"/>
		<path style="fill:none;stroke:#FF0050;stroke-width:3;" d="M659.071,1046.994c5.774,5.299,6.023,11.389,9.07,17.994"/>
		<path style="fill:none;stroke:#FF0050;stroke-width:3;" d="M650.798,1053.024c-2.179-5.577,2.562-12.397,2.551-17.974"/>
		<path style="fill:none;stroke:#FF0050;stroke-width:3;" d="M660.673,1071.473c1.077,4.44,6.645,7.568,9.819,10.607
			c3.886,3.713,7.62,6.269,12.075,9.107"/>
		<path style="fill:none;stroke:#FF0050;stroke-width:3;" d="M668.289,1066.167c3.282,7.109,14.883,15.624,13.822,23.579"/>
		<path style="fill:none;stroke:#FF0050;stroke-width:3;" d="M657.173,1043.766c0.116-2.322-0.338-5.01-1.274-7.042"/>
		<path style="fill:none;stroke:#FF0050;stroke-width:3;" d="M651.661,1054.895c1.979,1.747,3.902,2.051,5.082,4.599
			c1.247,2.705,1.604,6.049,2.93,8.931"/>
		<path style="fill:none;stroke:#FF0050;stroke-width:3;" d="M657.775,1034.374c8.618,4.149,13.678,10.005,17.825,18.566
			c1.889,3.653,3.429,7.872,4.657,11.831c1.389,4.715,0.988,10.7,3.097,15.267"/>
		<path style="fill:none;stroke:#FF0050;stroke-width:3;" d="M516.064,1067.699c2.605-3.314,8.82-6.088,12.223-8.963
			c4.541-3.824,8.855-8.168,13.701-11.311c8.258-5.193,17.754-7.266,27.225-7.655c1.602,0.051,3.124-0.054,4.574-0.327"/>
		<path style="fill:none;stroke:#FF0050;stroke-width:3;" d="M639.641,1187.047c6.774-3.252,12.875-8.861,19.331-12.779
			c8.41-4.857,15.385-10.263,21.741-17.863"/>
		<path style="fill:none;stroke:#FF0050;stroke-width:3;" d="M627.595,1219.064c2.274,4.092,10.753,6.65,15.164,6.398
			c5.38-0.3,11.675-3.306,16.057-6.644c4.85-3.575,7.814-8.712,13.218-11.511c5.25-2.725,10.368-7.031,11.884-13.134
			c0.42-1.646,0.197-3.404,0.785-5.135"/>
		<path style="fill:none;stroke:#FF0050;stroke-width:3;" d="M642.21,1211.87c5.033,1.937,12.213-0.881,14.036-6.306"/>
		<path style="fill:none;stroke:#FF0050;stroke-width:3;" d="M664.246,1201.524c3.188,2.206,7.57-2.799,9.372-5.312"/>
		<path style="fill:none;stroke:#FF0050;stroke-width:3;" d="M648.327,1203.78c7.343-2.487,15.737-7.339,21.587-12.21"/>
		<path style="fill:none;stroke:#FF0050;stroke-width:3;" d="M617.544,1220.373c1.705-0.607,3.554-1.295,5.183-2.471"/>
		<path style="fill:none;stroke:#FF0050;stroke-width:3;" d="M605.514,1246.415c19.073-5.204,36.374-14.726,53.035-25.186
			c0.879-0.638,1.696-1.018,2.426-1.575"/>
		<path style="fill:none;stroke:#FF0050;stroke-width:3;" d="M682.596,1185.299c26.55-12.945,51.83-26.711,79.38-37.286"/>
		<path style="fill:none;stroke:#FF0050;stroke-width:3;" d="M708.047,1125.522c1.849-6.253,0.809-12.371,1.206-18.763
			c0.492-6.651,1.856-13.522,2.506-20.244c1.609-12.762,4.243-24.982-1.454-37.36c-1.097-2.371-2.588-4.759-3.757-7.297"/>
		<path style="fill:none;stroke:#FF0050;stroke-width:3;" d="M579.092,1038.033c9.523-4.323,18.682-9.427,28.749-12.559
			c10.442-3.307,20.561-2.355,31.348-3.412c18.3-1.76,43.359-11.335,58.522,5.081c2.679,2.819,5.617,7.696,7.364,10.49"/>
		<path style="fill:none;stroke:#FF0050;stroke-width:3;" d="M714.546,1048.696c-1.712,1.281,0.758-0.36,1.142-0.544
			c2.922-1.64,5.848-3.273,8.87-4.726c3.394-1.618,7.07-3.147,10.473-4.765c7.714-3.714,17.465-9.557,22.482-16.636"/>
		<path style="fill:none;stroke:#FF0050;stroke-width:3;" d="M617.89,1149.301c-2.987-2.726-6.529-4.637-8.893-8.278
			c-1.57-2.319-2.832-5.593-2.935-8.424c-0.063-3.493-0.157-6.876-0.568-10.37c-0.22-2.148-0.583-6.301-1.644-8.226"/>
		<path style="fill:none;stroke:#FF0050;stroke-width:3;" d="M570.461,1053.64c0.7-1.063,0.686-2.403,1.091-3.589"/>
		<path style="fill:none;stroke:#FF0050;stroke-width:3;" d="M599.942,1112.803c0.522,0.738,1.282,1.644,2.044,2.36"/>
		<path style="fill:none;stroke:#FF0050;stroke-width:3;" d="M679.166,1048.353c1.29,1.309,2.401,2.952,2.984,4.728"/>
		<path style="fill:none;stroke:#FF0050;stroke-width:3;" d="M598.253,1104.422c0.541-1.472,1.747-2.002,3.029-2.744"/>
	</g>
	<path style="fill:none;stroke:#17192D;stroke-width:3;" d="M2048,0"/>
	<path style="fill:none;stroke:#17192D;stroke-width:3;" d="M2048,1536"/>
	<path style="fill:none;stroke:#17192D;stroke-width:3;" d="M0,1536"/>
	<path style="fill:none;stroke:#17192D;stroke-width:3;" d="M0,0"/>
</g>
<g id="Layer_1">
</g>
</svg>
