<svg xmlns="http://www.w3.org/2000/svg" width="2048" height="1536" viewBox="0 0 2048 1536"><g fill="none" stroke-width="3"><g stroke="#FF0050"><path d="M1017.897 1043.527c-.623.416-3.73 2.355-2.853 1.852M1042.832 1029.697c1.536-3.15 4.125-5.788 7.76-7.916M1111.407 1147.62c-8.063-10.504-17.505-19.62-21.974-32.625-4.743-13.563-6.176-28.794-9.816-42.907-4.73-15.656-13.146-29.115-23.178-41.49-4.21-5.208-8.976-9.99-13.72-14.775-5.21-5.246-11.556-9.683-17.27-14.534-4.212-3.578-8.735-7.22-13.4-10.39-4.915-3.338-8.855-3.122-12.62 1.86M1015.25 1035.148c-1.11-1.714-3.21-2.906-4.43-4.873-1.256-2.023-2.272-4.225-3.636-6.178-2.835-4.11-6.43-8.044-9.708-11.845-6.746-7.83-13.97-14.476-22.068-21.1-2.32-1.905-4.855-3.57-7.3-5.33-2.43-1.753-2.645-1.924-5.357-.447-4.158 2.253-6.265 6.083-5.263 10.976M995.314 1039.635c-8.9-13.553-19.463-26.26-32.237-36.47-5-4.21-9.104-9.247-14.49-13.034-2.942-2.063-7.355-.79-8.43 2.867-.943 3.23 3.268 8.056 4.977 10.456 2.29 3.222 4.946 6.26 7.614 9.082 3.004 3.16 4.96 7.766 7.596 11.342 2.78 3.782 6.184 6.5 8.5 10.625 2.354 4.184 5.56 7.797 7.913 11.97 2.66 4.732 4.137 10.013 6.073 15.053 2.574 6.685 10.658 24.664 11.78 27.172 1.274 2.853 1.966 6.564 1.81 8.768-.277 3.925-2.79 8.535-6.994 11.654M1035.178 1032.035c-.103-1.936-2.676-4.525-3.83-6.05-1.52-2.017-3.103-4.017-4.693-5.935-2.91-3.502-5.81-6.715-9.346-9.726-3.544-3.026-6.92-5.81-10.034-9.193-3.107-3.373-6.79-6.944-10.707-9.28-4.132-2.46-9.394-5.115-14.06-6.655-2.185-.725-4.173-.707-6.238.283-1.663.8-2.86 2.777-4.08 3.33M988.673 1109.87c-6.096 3.385-14.92 1.998-21.658 3.847-6.578 2.002-17.81 6.465-19.895 13.545-.48 1.538-.32 3.54.16 4.926.64 2.462 1.124 2.31 3.53 2 3.53-.615 7.1-2.475 10.108-2.97M960.92 1131.22c8.978-3.085 22.136-1.325 30.735-2.184 4.507-.43 9.42-2.146 13.722-.644 4.504 1.287 9.42 4.937 13.31 7.725 6.144 4.078 10.444 9.872 15.153 15.666 3.277 4.078 7.167 8.585 9.625 13.306"/></g><path d="M2048 0M2048 1536M0 1536M0 0" stroke="#17192D"/></g></svg>