<?xml version="1.0" encoding="iso-8859-1"?>
<!-- Generator: Adobe Illustrator 15.1.0, SVG Export Plug-In . SVG Version: 6.00 Build 0)  -->
<!DOCTYPE svg PUBLIC "-//W3C//DTD SVG 1.1//EN" "http://www.w3.org/Graphics/SVG/1.1/DTD/svg11.dtd">
<svg version="1.1" xmlns="http://www.w3.org/2000/svg" xmlns:xlink="http://www.w3.org/1999/xlink" x="0px" y="0px" width="2048px"
	 height="1536px" viewBox="0 0 2048 1536" style="enable-background:new 0 0 2048 1536;" xml:space="preserve">
<g id="b1b_x5F_buch">
	<g>
		<path style="fill:none;stroke:#FF0050;stroke-width:3;" d="M827.125,977.993c52.911-12.22,107.597-21.435,162.115-31.124
			c9.067-1.611,18.836-3.146,28.251-4.184"/>
		<path style="fill:none;stroke:#FF0050;stroke-width:3;" d="M827.125,977.992c13.688,33,29.338,85.455,42.618,113.102"/>
		<path style="fill:none;stroke:#FF0050;stroke-width:3;" d="M1045.398,1019.273c-11.979-23.791-15.654-53.629-27.907-76.588"/>
		<path style="fill:none;stroke:#FF0050;stroke-width:3;" d="M869.734,1094.46c12.898-3.093,27.242-4.799,41.082-7.152
			c9.638-1.713,19.711-3.337,29.821-4.681c15.139-2.225,33.735-4.153,48.32-7.445"/>
		<path style="fill:none;stroke:#FF0050;stroke-width:3;" d="M868.002,1116.131c3.33,0.045,7.315-0.669,10.95-1.206
			c10.188-1.396,20.741-2.832,31.311-4.134c17.503-2.063,34.871-5.347,51.934-8.048c10.89-1.747,21.353-3.996,31.468-6.069"/>
		<path style="fill:none;stroke:#FF0050;stroke-width:3;" d="M862.41,1115.374c-10.306,10.28-20.613,20.193-30.208,31.576
			c-6.751,8.077-16.348,19.906-18.479,30.555c14.927,0,30.919-5.301,44.422-6.769c0,0,19.547-4.12,29.143-5.956
			c22.389-4.405,44.777-8.651,66.812-14.158c4.975-1.102,12.29-2.364,17.265-3.833c0,0,6.19-5.713,10.1-10.487"/>
		<path style="fill:none;stroke:#FF0050;stroke-width:3;" d="M864.39,1115.615c9.179,1.469,11.382-18.357,4.039-19.826"/>
		<path style="fill:none;stroke:#FF0050;stroke-width:3;" d="M816.293,1168.98c-1.469-2.57-4.04-4.039-5.508-6.609
			c8.443-12.851,20.019-26.803,30.299-38.186c8.443-9.179,15.595-22.396,28.812-17.255c-9.545-5.142-12.322-8.651-16.361-18.933
			c-2.937-8.077-5.667-18.151-8.972-25.861c-6.608-16.522-11.6-33.385-16.889-50.301c-1.952-6.242-6.77-17.818-7.871-24.061
			c0,0,2.73-0.539,7.503-3.844"/>
	</g>
	<path style="fill:none;stroke:#17192D;stroke-width:3;" d="M2048,0"/>
	<path style="fill:none;stroke:#17192D;stroke-width:3;" d="M2048,1536"/>
	<path style="fill:none;stroke:#17192D;stroke-width:3;" d="M0,1536"/>
	<path style="fill:none;stroke:#17192D;stroke-width:3;" d="M0,0"/>
</g>
<g id="Layer_1">
</g>
</svg>
