<svg xmlns="http://www.w3.org/2000/svg" width="2048" height="1536" viewBox="0 0 2048 1536"><g fill="none" stroke-width="3"><g stroke="#FF0050"><path d="M827.125 977.993c52.91-12.22 107.597-21.435 162.115-31.124 9.067-1.612 18.836-3.147 28.25-4.185M827.125 977.992c13.688 33 29.338 85.455 42.618 113.102M1045.398 1019.273c-11.98-23.79-15.654-53.63-27.907-76.588M869.734 1094.46c12.898-3.093 27.242-4.8 41.082-7.152 9.638-1.713 19.71-3.337 29.82-4.68 15.14-2.226 33.736-4.154 48.32-7.446M868.002 1116.13c3.33.046 7.315-.668 10.95-1.205 10.188-1.396 20.74-2.832 31.31-4.134 17.504-2.062 34.872-5.346 51.935-8.047 10.89-1.747 21.353-3.996 31.468-6.07M862.41 1115.374c-10.306 10.28-20.613 20.193-30.208 31.576-6.75 8.077-16.348 19.906-18.48 30.555 14.928 0 30.92-5.3 44.423-6.77 0 0 19.547-4.12 29.143-5.955 22.39-4.405 44.777-8.65 66.812-14.158 4.975-1.102 12.29-2.364 17.265-3.833 0 0 6.19-5.714 10.1-10.488M864.39 1115.615c9.18 1.47 11.382-18.357 4.04-19.826M816.293 1168.98c-1.47-2.57-4.04-4.04-5.508-6.61 8.443-12.85 20.02-26.802 30.3-38.185 8.442-9.18 15.594-22.396 28.81-17.255-9.544-5.142-12.32-8.65-16.36-18.933-2.937-8.077-5.667-18.15-8.972-25.86-6.608-16.523-11.6-33.386-16.89-50.302-1.95-6.242-6.77-17.818-7.87-24.06 0 0 2.73-.54 7.503-3.845"/></g><path d="M2048 0M2048 1536M0 1536M0 0" stroke="#17192D"/></g></svg>