<?xml version="1.0" encoding="iso-8859-1"?>
<!-- Generator: Adobe Illustrator 15.1.0, SVG Export Plug-In . SVG Version: 6.00 Build 0)  -->
<!DOCTYPE svg PUBLIC "-//W3C//DTD SVG 1.1//EN" "http://www.w3.org/Graphics/SVG/1.1/DTD/svg11.dtd">
<svg version="1.1" xmlns="http://www.w3.org/2000/svg" xmlns:xlink="http://www.w3.org/1999/xlink" x="0px" y="0px" width="2048px"
	 height="1536px" viewBox="0 0 2048 1536" style="enable-background:new 0 0 2048 1536;" xml:space="preserve">
<g id="b1b_x5F_hand_x5F_h">
	<g>
		<path style="fill:none;stroke:#FF0050;stroke-width:3;" d="M760.352,714.05c-49.851-6.903-148.36,45.346-181.338-10.041"/>
		<path style="fill:none;stroke:#FF0050;stroke-width:3;" d="M773.773,625.413c-46.479,7.926-92.315,15.677-137.576,28.066"/>
		<g>
			<path style="fill:none;stroke:#FF0050;stroke-width:3;" d="M640.473,671.42c0-4.857-2.699-10.256-5.13-14.034
				c-1.889-3.24-6.207-6.209-7.557-9.179"/>
			<path style="fill:none;stroke:#FF0050;stroke-width:3;" d="M633.454,700.574c-4.318-4.86-7.288-8.908-7.559-15.656
				c0-6.21,1.35-12.146,1.619-18.355c0.541-14.037,0.541-25.645-5.396-38.33c-2.971-6.749-7.56-12.687-8.1-20.246
				c-0.538-6.746,0.642-12.686,1.452-19.435c0.81-7.827,4.217-31.312-6.31-33.2c-12.958-2.16-13.057,22.132-14.676,30.503
				c-1.082,5.667-2.87,11.336-3.139,17.546c-0.27,7.017-4.589,12.146-7.289,18.625c-1.889,3.776-4.292,8.637-4.024,12.685"/>
			<path style="fill:none;stroke:#FF0050;stroke-width:3;" d="M565.971,625.802c6.208-1.078,12.687-6.746,16.466-11.064"/>
			<path style="fill:none;stroke:#FF0050;stroke-width:3;" d="M561.112,617.435c7.828,1.351,19.706-1.619,25.914-6.479"/>
			<path style="fill:none;stroke:#FF0050;stroke-width:3;" d="M568.67,613.386c1.351-5.669,0.27-13.226-3.779-17.276"/>
			<path style="fill:none;stroke:#FF0050;stroke-width:3;" d="M548.696,596.379c3.78-1.889,8.368-3.238,13.227-3.238"/>
			<path style="fill:none;stroke:#FF0050;stroke-width:3;" d="M546.806,572.085c5.398,3.512,12.417,5.398,18.895,5.67"/>
			<path style="fill:none;stroke:#FF0050;stroke-width:3;" d="M562.973,594.556c1.917-1.646,3.56-5.489,4.107-7.958
				c0.822-2.197,0-7.686,1.096-9.334c1.368-1.921,8.215-3.293,10.405-4.39c3.011-1.374,5.75-2.744,8.488-4.667
				c5.75-3.843,11.775-9.881,14.787-16.193c2.739-6.039,0.273-10.508-7.119-8.31c-5.751,1.918-10.954,5.759-16.978,7.408
				c-6.023,1.922-12.049,3.766-18.074,4.864c-5.477,1.096-13.729,1.921-17.288,6.585c-3.285,4.119-3.322,10.272-4.144,15.486
				c-0.822,5.764-1.88,11.019-2.975,16.783c-1.094,6.86-4.07,12.076-6.809,18.663c-5.75,14.546,8.214,24.977,16.43,34.858
				c7.118,9.057,12.046,18.661,17.25,28.817c5.751,11.255,14.374,22.926,21.145,32.317"/>
			<path style="fill:none;stroke:#FF0050;stroke-width:3;" d="M532.894,601.929c0-10.193,1.623-20.155,0.926-30.581
				c-0.69-11.541,5.823-21.262,7.648-32.203c0.927-5.329,1.389-10.89,2.78-16.217c1.159-5.562,2.338-9.501,2.338-15.291
				c0-4.403,1.391-10.89,7.182-7.646c4.402,2.085,6.486,9.961,6.95,14.363c0.695,6.72-1.198,12.51-1.198,18.997
				c0,3.476-0.751,7.646-0.288,11.352c0.463,3.477-1.486,6.905-1.486,10.379"/>
			<path style="fill:none;stroke:#FF0050;stroke-width:3;" d="M530.56,576.675c0.27,0.54-0.27,0.809,0.541,0.809h-0.786
				c-1-0.666-6.083-13.907-7.287-16.464c-2.581-5.681-3.431-11.079-5.4-17.546c-0.781-2.863-2.312-5.635-3.212-8.637
				c-0.811-2.161-4.32-6.479-4.05-8.638c0.271-7.02,10.528-3.51,13.766-0.811c7.019,6.479,7.019,15.655,11.878,22.944"/>
			<path style="fill:none;stroke:#FF0050;stroke-width:3;" d="M582.707,612.575c-0.27-4.858-3.509-9.715-5.938-13.497
				c-1.351-2.158-9.448-11.876-9.448-11.876"/>
			<path style="fill:none;stroke:#FF0050;stroke-width:3;" d="M591.567,554.106c3.143-8.245,11.816-16.754,12.664-25.354
				c0.663-8.023-2.057-11.807,8.234-13.081c5.718-0.835,19.348,5.293,7.34,6.779c-2.667,0.415-5.916,0.266-8.781,0.11
				c2.754,6.456,0.907,11.442-2.456,17.21c-2.616,4.613-4.645,10.175-6.303,14.968"/>
			<path style="fill:none;stroke:#FF0050;stroke-width:3;" d="M596.874,566.449c-3.038,1.185-6.12-1.069-8.238-2.764
				c3.605-5.034,5.651-25.662,16.379-17.952"/>
			<path style="fill:none;stroke:#FF0050;stroke-width:3;" d="M603.344,549.379c-1.928-1.503-4.058-3.959-6.335-2.782"/>
			<path style="fill:none;stroke:#FF0050;stroke-width:3;" d="M597.634,566.059c-2.324-2.646-4.463-5.862-7.488-3.533"/>
		</g>
	</g>
	<path style="fill:none;stroke:#17192D;stroke-width:3;" d="M2048,0"/>
	<path style="fill:none;stroke:#17192D;stroke-width:3;" d="M2048,1536"/>
	<path style="fill:none;stroke:#17192D;stroke-width:3;" d="M0,1536"/>
	<path style="fill:none;stroke:#17192D;stroke-width:3;" d="M0,0"/>
</g>
<g id="Layer_1">
</g>
</svg>
