<?xml version="1.0" encoding="iso-8859-1"?>
<!-- Generator: Adobe Illustrator 15.1.0, SVG Export Plug-In . SVG Version: 6.00 Build 0)  -->
<!DOCTYPE svg PUBLIC "-//W3C//DTD SVG 1.1//EN" "http://www.w3.org/Graphics/SVG/1.1/DTD/svg11.dtd">
<svg version="1.1" xmlns="http://www.w3.org/2000/svg" xmlns:xlink="http://www.w3.org/1999/xlink" x="0px" y="0px" width="2048px"
	 height="1536px" viewBox="0 0 2048 1536" style="enable-background:new 0 0 2048 1536;" xml:space="preserve">
<g id="b1b_x5F_kimono">
	<g>
		<path style="fill:none;stroke:#FF0050;stroke-width:3;" d="M739.31,1200.067c9.576,16.212,31.453,17.931,47.034,24.792
			c21.449,9.543,34.508,29.088,50.097,45.37c12.331,13.753,25.602,34.093,42.415,42.337c13.984,7.306,36.441,8.002,52.882,8.639
			c63.822,4.799,134.226-0.778,197.087-11.984c25.352-4.371,66.629-13.102,82.186-34.488c13.24-17.32-0.133-59.896-13.907-75.825"/>
		<path style="fill:none;stroke:#FF0050;stroke-width:3;" d="M1160.818,1207.124c5.717-4.134,34.109-6.768,35.629-10.604
			c2.456-6.667-20.954-23.377-24.653-27.503"/>
		<path style="fill:none;stroke:#FF0050;stroke-width:3;" d="M1081.111,1253.775c-1.768,12.957,12.992,23.617,24.09,26.717
			c-0.498-0.903-1.225-1.254-1.904-1.963"/>
		<path style="fill:none;stroke:#FF0050;stroke-width:3;" d="M954.173,1221.734c17.516-14.217,37.063-27.271,59.663-29.173"/>
		<path style="fill:none;stroke:#FF0050;stroke-width:3;" d="M932.865,1209.589c12.168-2.478,25.568-3.577,37.016-2.429"/>
		<path style="fill:none;stroke:#FF0050;stroke-width:3;" d="M885.222,1301.409c3.024-17.104,21.182-38.342,33.558-49.435"/>
		<path style="fill:none;stroke:#FF0050;stroke-width:3;" d="M1120.238,1112.063c10.999-9.863,17.221-18.416,23.145-31.172
			c3.401-9.488,5.344-21.154,13.015-27.536"/>
		<path style="fill:none;stroke:#FF0050;stroke-width:3;" d="M1015.131,1176.428c29.76,12.093,70.757,18.534,101.776,11.176"/>
		<path style="fill:none;stroke:#FF0050;stroke-width:3;" d="M1131.928,1142.256c3.766-1.889,32.164,4.895,43.174,4.445
			c17.239,0.42,36.219-2.207,53.385-5.189c35.919-6.409,73.139-17.451,103.185-35.95c10.278-6.241,19.328-13.856,27.359-22.05"/>
		<path style="fill:none;stroke:#FF0050;stroke-width:3;" d="M1125.289,1014.779c-31.388-23.949-50.912-63.989-58.989-102.879"/>
		<path style="fill:none;stroke:#FF0050;stroke-width:3;" d="M976.23,948.303c2.75-27.654,7.622-59.234,18.081-86.141"/>
		<path style="fill:none;stroke:#FF0050;stroke-width:3;" d="M737.861,1197.892c20.9-33.12,33.329-69.062,46.551-105.219
			c9.404-25.723,11.856-53.319,21.338-78.968c8.91-24.103,12.655-47.799,31.23-66.752c17.351-17.697,33.522-36.193,53.65-51.187
			c22.659-17.333,68.991-42.005,98.039-42.249c3.403-0.073,0.219,0.797,1.233,1.377"/>
		<path style="fill:none;stroke:#FF0050;stroke-width:3;" d="M844.679,964.449c15.763-30.229,39.594-50.859,71.235-67.037
			c20.2-10.67,51.476-27.793,74.292-28.904"/>
		<path style="fill:none;stroke:#FF0050;stroke-width:3;" d="M746.632,1204.908c22.561-39.569,45.856-73.346,59.507-117.324
			c8.531-25.674,13.63-51.666,21.059-77.211"/>
		<path style="fill:none;stroke:#FF0050;stroke-width:3;" d="M805.628,1010.66c-27.009,10.814-62.579,6-86.468,21.953"/>
		<path style="fill:none;stroke:#FF0050;stroke-width:3;" d="M813.15,997.472c-19.338,4.431-37.22,11.042-56.993,13.885
			c-18.978,2.626-28.612,1.843-37.433,19.67"/>
		<path style="fill:none;stroke:#FF0050;stroke-width:3;" d="M799.524,835.085c15.788-1.757,33.001-29.585,45.597-39.888
			c18.889-15.444,43.007-21.188,66.619-22.51"/>
		<path style="fill:none;stroke:#FF0050;stroke-width:3;" d="M792.488,825.018c8.104-4.788,17.887-6.601,27.443-9.219"/>
		<path style="fill:none;stroke:#FF0050;stroke-width:3;" d="M725.529,1021.458c-2.412-18.185-0.4-35.856-5.995-53.167
			c-5.374-16.512-13.358-33.16-18.734-49.67c-13.514-39.971-10.276-65.691,10.551-102.221c16.198-28.406,39.142-50.95,61.07-74.084"
			/>
		<path style="fill:none;stroke:#FF0050;stroke-width:3;" d="M848.401,744.638c-34.686,7.781-83.142,9.062-100.777-27.214
			c25.16,32.501,60.965-24.395,73.701-37.306"/>
		<path style="fill:none;stroke:#FF0050;stroke-width:3;" d="M722.48,631.821c5.056-15.938-5.396-35.343,8.208-54.479
			c10.849-16.67,30.107-24.507,49.44-28.946"/>
		<path style="fill:none;stroke:#FF0050;stroke-width:3;" d="M1038.559,907.508c-30.233-25.979-55.037-60.286-82.733-89.525
			c-30.384-32.779-65.685-61.651-96.285-95.233c-35.747-39.883-67.221-76.648-81.394-128.425"/>
		<path style="fill:none;stroke:#FF0050;stroke-width:3;" d="M773.724,584.407c-6.306-76.199,39.339-140.927,83.764-197.607
			c19.678-25.086,41.386-49.009,55.772-77.781c12.292-23.915,20.011-55.139,33.395-75.069"/>
		<path style="fill:none;stroke:#FF0050;stroke-width:3;" d="M975.324,604.571c36.35-14.236,76.56-8.115,114.652-15.973
			c36.717-6.63,68.286-19.544,96.587-44.423"/>
		<path style="fill:none;stroke:#FF0050;stroke-width:3;" d="M925.69,589.044c18.458-17.041,34.959-31.833,56.534-43.729"/>
		<path style="fill:none;stroke:#FF0050;stroke-width:3;" d="M975.124,622.608c4.27-6.31,8.537-12.614,14.255-16.749"/>
		<path style="fill:none;stroke:#FF0050;stroke-width:3;" d="M1084.812,644.811c-9.415,0.008-21.438-0.123-29.774-5.548"/>
		<path style="fill:none;stroke:#FF0050;stroke-width:3;" d="M1184.674,540.409c-5.45-19.912-6.483-39.323-12.513-58.227
			c-6.032-18.897-16.404-34.896-23.229-53.575c-14.095-38.959-36.221-79.144-62.978-111.203
			c-29.444-35.606-90.189-82.348-138.146-85.485"/>
		<path style="fill:none;stroke:#FF0050;stroke-width:3;" d="M1172.016,556.72c-5.651-1.877-18.534-67.707-22.602-79.438
			c-14.45-37.148-32.884-73.2-57.035-105.122c-42.715-55.95-90.853-94.149-154.621-123.792"/>
		<path style="fill:none;stroke:#FF0050;stroke-width:3;" d="M1335.148,802.344c-33.751-76.388-136.202-106.574-191.237-166.858
			c-7.179-7.457-14.574-15.707-20.953-23.374"/>
		<path style="fill:none;stroke:#FF0050;stroke-width:3;" d="M1241.134,655.965c13.572,24.539,38.226,52.044,67.711,53.394
			c6.989-37.023-7.1-75.98-14.308-111.686c-6.985-34.901-7.816-72.352-21.396-106.311c-7.404-17.666-15.391-43.736-29.894-56.038"/>
		<path style="fill:none;stroke:#FF0050;stroke-width:3;" d="M1230.818,696.468c-1.377,1.229-3.768,1.883-3.768,1.883
			c11.949-3.273,22.669-7.915,31.931-14.73"/>
		<path style="fill:none;stroke:#FF0050;stroke-width:3;" d="M1292.321,705.319c2.933-39.334-9.125-77.137-17.563-114.211
			c-8.874-38.673-13.546-77.641-28.576-113.773c-4.642-10.712-9.44-28.243-17.634-36.278"/>
		<path style="fill:none;stroke:#FF0050;stroke-width:3;" d="M1182.054,449.506c20.858,1.14,41.278-8.73,61.412-13.382"/>
		<path style="fill:none;stroke:#FF0050;stroke-width:3;" d="M1141.809,405.722c24.423-7.6,33.352,7.174,51.524,21.671
			c10.03,7.995,21.007,10.521,32.823,14.321"/>
		<path style="fill:none;stroke:#FF0050;stroke-width:3;" d="M1239.625,434.606c-39.192-5.544-54.447-51.886-95.426-29.54"/>
		<path style="fill:none;stroke:#FF0050;stroke-width:3;" d="M734.564,1198.04"/>
		<path style="fill:none;stroke:#FF0050;stroke-width:3;" d="M736.625,1196.765c-6.624-7.23-9.558-15.816-10.706-25.286
			c-0.179-1.475-1.261-4.426-0.43-5.407"/>
		<path style="fill:none;" d="M717.316,1036.272"/>
		<path style="fill:none;stroke:#FF0050;stroke-width:3;" d="M718.147,1033.287c-3.333,4.766-5.583,9.655-4.038,13.66"/>
		<path style="fill:none;stroke:#FF0050;stroke-width:3;" d="M1375.847,1111.278c-9.071-14.571-16.388-30.708-16.008-47.865
			c0.444-18.264,3.343-36.83,4.894-55.036c1.946-19.396-0.191-39.13,0.986-58.68c1.303-21.764,6.957-42.181,14.49-62.381
			c1.988-5.988,5.513-11.668,7.935-17.41"/>
		<path style="fill:none;stroke:#FF0050;stroke-width:3;" d="M1340.22,757.13c0.468,9.668,1.978,16.512,0.574,25.967
			c-1.25,8.681-1.151,17.002,0.053,25.381c2.871,18.44,8.297,36.914,13.283,55.137c4.528,16.541,9.243,33.755,17.629,48.51"/>
		<path style="fill:none;stroke:#FF0050;stroke-width:3;" d="M1016.331,1162.402c40.95,12.492,72.52-2.075,109.951-2.444"/>
		<path style="fill:none;stroke:#FF0050;stroke-width:3;" d="M1003.922,946.297c-6.328-24.407-5.877-50.412-3.65-75.406"/>
		<path style="fill:none;stroke:#FF0050;stroke-width:3;" d="M1112.414,1264.9c-48.324-10.749-71.899-43.68-99.387-81.539
			c-8.051-10.64-26.904-29.451-13.366-42.577c0.211-0.214,0.446-0.413,0.68-0.615"/>
		<path style="fill:none;stroke:#FF0050;stroke-width:3;" d="M1095.653,1128.138c7.305,0.943,14.496,3.045,21.491,7.034
			c18.263,10.412,36.385,23.432,54.649,33.845"/>
	</g>
	<path style="fill:none;stroke:#17192D;stroke-width:3;" d="M2048,0"/>
	<path style="fill:none;stroke:#17192D;stroke-width:3;" d="M2048,1536"/>
	<path style="fill:none;stroke:#17192D;stroke-width:3;" d="M0,1536"/>
	<path style="fill:none;stroke:#17192D;stroke-width:3;" d="M0,0"/>
</g>
<g id="Layer_1">
</g>
</svg>
