<svg xmlns="http://www.w3.org/2000/svg" width="2048" height="1536" viewBox="0 0 2048 1536"><g fill="none" stroke-width="3"><g stroke="#FF0050"><path d="M1293.156 567.96c18.412-1.89 38.163-1.778 56.77-2.93 18.818-.415 37.16-5.436 56.908-5.32 15.146.592 34.836 6.24 49.91 3.687 14.344-2.347 28.938-18.172 41.874-25.654 18.734-12.23 60.95-30.878 62.594-56.57M1265.17 462.834c37.227-2.304 77.063 4.935 115.292 6.298 41.368 1.296 71.18-10.81 108.99-28.257 14.805-6.417 37.15-14.113 39.334-32.063M1561.604 478.02c2.817-3.19 4.565-7.825 7.542-10.686 2.326-2.226 5.93-5.61 6.78-9.604 1.225-5.764-2.384-6.7-5.4-5.75-2.54.81-6.092 4.764-7.81 7.79-.06.146-.118.272-.176.41M1558.38 444.906c-.41.334-.632.065-.922.69 4.625-3.118 7.446-14.278 13.323-11.825 2.078.867 4.95 3.85 4.173 7.91-.352 1.855-1.49 2.307-2.25 3.423-1.02 1.507-1.84 3.48-3.034 4.63M1549.364 427.576c3.935-4.167 7.994-9.983 12.83-10.965 3.91-.804 11.252 10.232 5.648 15.354M1537.312 442.47c1.82-1.883 3.195-4.854 5.156-6.473M1543.63 460.49c1.105-2.404 3.482-4.217 4.98-6.074M1547.298 472.71c.976-1.942 2.523-2.826 3.616-4.6M1532.163 430.322c.054-1.836 1.4-3.38 3.196-3.92M1528.786 408.812c5.497-6.61 9.788-20.698 17.627-20.847M1542.197 417.813c.706-3.714 7.918-11.542 10.313-14.254 4.255-4.607 13.76-4.064 9.833 7.057M1548.762 387.163c3.234.16 6.424 4.753 7.02 9.598"/></g><path d="M2048 0M2048 1536M0 1536M0 0" stroke="#17192D"/></g></svg>