<?xml version="1.0" encoding="iso-8859-1"?>
<!-- Generator: Adobe Illustrator 15.1.0, SVG Export Plug-In . SVG Version: 6.00 Build 0)  -->
<!DOCTYPE svg PUBLIC "-//W3C//DTD SVG 1.1//EN" "http://www.w3.org/Graphics/SVG/1.1/DTD/svg11.dtd">
<svg version="1.1" xmlns="http://www.w3.org/2000/svg" xmlns:xlink="http://www.w3.org/1999/xlink" x="0px" y="0px" width="2048px"
	 height="1536px" viewBox="0 0 2048 1536" style="enable-background:new 0 0 2048 1536;" xml:space="preserve">
<g id="b1b_x5F_hand_x5F_v">
	<g>
		<path style="fill:none;stroke:#FF0050;stroke-width:3;" d="M1017.897,1043.527c-0.623,0.416-3.729,2.355-2.853,1.852"/>
		<path style="fill:none;stroke:#FF0050;stroke-width:3;" d="M1042.832,1029.697c1.536-3.151,4.125-5.788,7.76-7.916"/>
		<g>
			<path style="fill:none;stroke:#FF0050;stroke-width:3;" d="M1111.407,1147.621c-8.063-10.505-17.505-19.62-21.974-32.626
				c-4.743-13.563-6.176-28.794-9.816-42.907c-4.729-15.656-13.146-29.115-23.178-41.49c-4.208-5.208-8.975-9.991-13.718-14.775
				c-5.211-5.246-11.557-9.683-17.27-14.534c-4.213-3.577-8.736-7.218-13.4-10.388c-4.916-3.339-8.856-3.123-12.62,1.859"/>
			<path style="fill:none;stroke:#FF0050;stroke-width:3;" d="M1015.249,1035.148c-1.108-1.714-3.208-2.906-4.429-4.873
				c-1.256-2.023-2.272-4.225-3.636-6.178c-2.835-4.109-6.429-8.044-9.708-11.845c-6.746-7.829-13.969-14.476-22.068-21.1
				c-2.321-1.905-4.855-3.569-7.3-5.331c-2.43-1.752-2.645-1.923-5.357-0.446c-4.159,2.253-6.266,6.083-5.264,10.976"/>
			<path style="fill:none;stroke:#FF0050;stroke-width:3;" d="M995.314,1039.635c-8.9-13.553-19.463-26.26-32.237-36.471
				c-5-4.209-9.104-9.246-14.489-13.033c-2.943-2.064-7.356-0.792-8.431,2.866c-0.943,3.231,3.268,8.056,4.977,10.456
				c2.291,3.222,4.946,6.26,7.614,9.082c3.004,3.16,4.96,7.766,7.596,11.342c2.781,3.782,6.184,6.499,8.5,10.625
				c2.354,4.184,5.559,7.797,7.913,11.971c2.659,4.731,4.137,10.012,6.073,15.052c2.574,6.685,10.658,24.664,11.781,27.172
				c1.273,2.853,1.965,6.564,1.81,8.768c-0.278,3.925-2.791,8.535-6.995,11.654"/>
			<path style="fill:none;stroke:#FF0050;stroke-width:3;" d="M1035.178,1032.035c-0.103-1.936-2.676-4.525-3.829-6.049
				c-1.521-2.018-3.104-4.018-4.694-5.936c-2.911-3.502-5.811-6.715-9.346-9.726c-3.543-3.026-6.918-5.81-10.033-9.193
				c-3.107-3.374-6.791-6.945-10.707-9.282c-4.131-2.459-9.393-5.114-14.059-6.654c-2.185-0.725-4.173-0.707-6.238,0.283
				c-1.663,0.801-2.861,2.777-4.08,3.33"/>
			<path style="fill:none;stroke:#FF0050;stroke-width:3;" d="M988.673,1109.869c-6.096,3.386-14.92,1.999-21.658,3.848
				c-6.578,2.002-17.81,6.465-19.895,13.545c-0.481,1.538-0.32,3.54,0.159,4.926c0.642,2.462,1.125,2.309,3.53,2
				c3.53-0.615,7.1-2.475,10.109-2.969"/>
			<path style="fill:none;stroke:#FF0050;stroke-width:3;" d="M960.919,1131.219c8.979-3.084,22.137-1.324,30.736-2.183
				c4.507-0.429,9.42-2.146,13.722-0.644c4.504,1.287,9.419,4.937,13.311,7.725c6.143,4.078,10.443,9.872,15.152,15.666
				c3.277,4.078,7.167,8.585,9.625,13.306"/>
		</g>
	</g>
	<path style="fill:none;stroke:#17192D;stroke-width:3;" d="M2048,0"/>
	<path style="fill:none;stroke:#17192D;stroke-width:3;" d="M2048,1536"/>
	<path style="fill:none;stroke:#17192D;stroke-width:3;" d="M0,1536"/>
	<path style="fill:none;stroke:#17192D;stroke-width:3;" d="M0,0"/>
</g>
<g id="Layer_1">
</g>
</svg>
