<?xml version="1.0" encoding="iso-8859-1"?>
<!-- Generator: Adobe Illustrator 15.1.0, SVG Export Plug-In . SVG Version: 6.00 Build 0)  -->
<!DOCTYPE svg PUBLIC "-//W3C//DTD SVG 1.1//EN" "http://www.w3.org/Graphics/SVG/1.1/DTD/svg11.dtd">
<svg version="1.1" xmlns="http://www.w3.org/2000/svg" xmlns:xlink="http://www.w3.org/1999/xlink" x="0px" y="0px" width="2048px"
	 height="1536px" viewBox="0 0 2048 1536" style="enable-background:new 0 0 2048 1536;" xml:space="preserve">
<g id="b1b_x5F_fuss_x5F_v">
	<g>
		<path style="fill:none;stroke:#FF0050;stroke-width:3;" d="M1056.986,287.164c1.317-15.341,22.798-20.438,33.663-29.72
			c16.133-13.094,27.324-32.719,20.032-53.597c-4.955-15.204-17.443-29.143-25.331-43.539
			c-7.483-12.939-12.229-27.412-18.248-40.755c-10.496-23.938-18.794-48.485-29.295-72.427c-4.476-10.606-14.1-28.473-26.181-32.269
			c-15.62-5.188-15.07,11.227-4.921,19.486"/>
		<path style="fill:none;stroke:#FF0050;stroke-width:3;" d="M974.564,49.457c-0.694-4.426-7.311-10.963-8.487-16.607
			c-1.149-5.521,2.556-14.583,9.131-12.751"/>
		<path style="fill:none;stroke:#FF0050;stroke-width:3;" d="M986.706,47.705c-0.73-6.389-19.335-26.165-2.695-30.014"/>
		<path style="fill:none;stroke:#FF0050;stroke-width:3;" d="M999.108,41.16c-2.392-6.812-9.641-7.944-10.688-16.004
			c-0.679-5.217,4.678-17.08,11.197-10.953"/>
		<path style="fill:none;stroke:#FF0050;stroke-width:3;" d="M978.21,238.537c8.73-14.22,17.391-22.904,15.105-42.782
			c-1.614-14.548-3.963-28.884-5.043-44.365c-2.234-34.089-5.805-70.186-23.647-100.788c-4.614-8.204-18.035-22.667-2.297-28.556"/>
	</g>
	<path style="fill:none;stroke:#17192D;stroke-width:3;" d="M2048,0"/>
	<path style="fill:none;stroke:#17192D;stroke-width:3;" d="M2048,1536"/>
	<path style="fill:none;stroke:#17192D;stroke-width:3;" d="M0,1536"/>
	<path style="fill:none;stroke:#17192D;stroke-width:3;" d="M0,0"/>
</g>
<g id="Layer_1">
</g>
</svg>
