<svg xmlns="http://www.w3.org/2000/svg" width="2048" height="1536" viewBox="0 0 2048 1536"><g fill="none" stroke-width="3"><g stroke="#FF0050"><path d="M581.028 1113.22c6.327 7.25 6.397 16.623 9.582 25.394 3.69 9.865 8.825 16.36 18.843 19.61M550.56 1052.627c.17 14.24 8.534 25.008 14.98 37.128M512.24 1067.643c14.27 17.646 22.807 34.827 30.75 57.427 8.208 23.14 16.913 46.037 31.925 65.274 1.228 1.346 4.182 5.086 4.435 5.608M540.76 1202.826c10.296-4.29 26.576-6.275 37.344-8.21M498.177 1190.365c-14.51-18.188-18.496-40.13-18.95-62.45-.647-28.05 10.558-45.016 30.528-61.66M547.967 1205.174c11.286-2.174 23.28-1.467 34.575-4.95 2.342 11.767 14.882 8.34 22.568 13.032 6.948 4.402 12.31 14.73 15.48 21.58M500.823 1198.764c16.54 35.893 61.15 66.075 102.07 52.284M603.262 1239.905c5.768-.814 11.042-2.695 15.824-4.34M494.083 1197.476c-.496.236 3.277-2.21 4.79-2.937M603.257 1241.204c-.532 2.838-1.31 5.143-1.346 7.734M607.657 1110.86c7.59 13.776 19.762 18.894 16.036 37.435M587.968 1086.79c-5.347-11.62-27.223-20.476-18.267-37.004M578.145 1053.476c7.184 4.937 15.045 15.337 12.673 26.152M633.254 1064.117c1.942-1.756 5.115.857 6.22 2.812 2.042 3.157.565 5.513 1.33 8.87M620.95 1065.66c.12-3.157 2.62-4.147 4.497-6.075M592.33 1089.928c9.54-6.223 20.522-11.902 28.73-20.176M632.655 1085.913c1.48 2.397 5.754 1.798 8.16 1.06M642.527 1079.533c.933 1.623 1.474 3.227 1.623 4.816M659.07 1046.994c5.775 5.3 6.024 11.39 9.07 17.994M650.798 1053.024c-2.18-5.577 2.562-12.397 2.55-17.974M660.673 1071.473c1.077 4.44 6.645 7.568 9.82 10.607 3.885 3.713 7.62 6.27 12.074 9.107M668.29 1066.167c3.28 7.11 14.882 15.624 13.82 23.58M657.173 1043.766c.116-2.322-.338-5.01-1.274-7.042M651.66 1054.895c1.98 1.747 3.903 2.05 5.083 4.6 1.247 2.704 1.604 6.048 2.93 8.93M657.775 1034.374c8.618 4.15 13.678 10.005 17.825 18.566 1.89 3.653 3.43 7.872 4.657 11.83 1.39 4.716.988 10.7 3.097 15.268M516.064 1067.7c2.605-3.315 8.82-6.09 12.223-8.964 4.54-3.824 8.855-8.168 13.7-11.31 8.26-5.194 17.755-7.267 27.226-7.656 1.602.05 3.124-.054 4.574-.327M639.64 1187.047c6.775-3.252 12.876-8.86 19.332-12.78 8.41-4.856 15.385-10.262 21.74-17.862M627.595 1219.064c2.274 4.092 10.753 6.65 15.164 6.398 5.38-.3 11.674-3.306 16.056-6.644 4.85-3.575 7.814-8.712 13.218-11.51 5.25-2.726 10.368-7.032 11.884-13.135.42-1.646.197-3.404.785-5.135M642.21 1211.87c5.033 1.937 12.213-.88 14.036-6.306M664.246 1201.524c3.188 2.206 7.57-2.8 9.372-5.312M648.327 1203.78c7.343-2.487 15.737-7.34 21.587-12.21M617.544 1220.373c1.705-.607 3.554-1.295 5.183-2.47M605.514 1246.415c19.073-5.204 36.374-14.726 53.035-25.186.878-.64 1.695-1.02 2.425-1.576M682.596 1185.3c26.55-12.946 51.83-26.712 79.38-37.287M708.047 1125.522c1.85-6.253.81-12.37 1.206-18.763.492-6.652 1.856-13.523 2.506-20.245 1.608-12.762 4.242-24.982-1.455-37.36-1.097-2.37-2.588-4.76-3.757-7.297M579.092 1038.033c9.523-4.323 18.682-9.427 28.75-12.56 10.44-3.306 20.56-2.354 31.347-3.41 18.3-1.76 43.358-11.336 58.52 5.08 2.68 2.82 5.618 7.696 7.365 10.49M714.546 1048.696c-1.712 1.28.758-.36 1.142-.544 2.922-1.64 5.848-3.273 8.87-4.726 3.394-1.618 7.07-3.147 10.473-4.765 7.715-3.713 17.466-9.556 22.483-16.635M617.89 1149.3c-2.987-2.725-6.53-4.636-8.893-8.277-1.57-2.32-2.832-5.593-2.935-8.424-.063-3.494-.157-6.877-.568-10.37-.22-2.15-.583-6.302-1.644-8.227M570.46 1053.64c.7-1.063.687-2.403 1.092-3.59M599.942 1112.803c.522.738 1.282 1.644 2.044 2.36M679.166 1048.353c1.29 1.31 2.4 2.952 2.984 4.728M598.253 1104.422c.54-1.472 1.747-2.002 3.03-2.744"/></g><path d="M2048 0M2048 1536M0 1536M0 0" stroke="#17192D"/></g></svg>