<svg xmlns="http://www.w3.org/2000/svg" width="2048" height="1536" viewBox="0 0 2048 1536"><g fill="none"><path d="M739.31 1200.067c9.576 16.212 31.453 17.93 47.034 24.792 21.45 9.542 34.508 29.087 50.097 45.37 12.332 13.752 25.603 34.092 42.416 42.336 13.984 7.306 36.44 8.002 52.882 8.64 63.822 4.798 134.226-.78 197.087-11.985 25.352-4.37 66.63-13.1 82.186-34.487 13.24-17.32-.132-59.896-13.906-75.825M1160.818 1207.124c5.717-4.134 34.11-6.768 35.63-10.604 2.455-6.667-20.955-23.377-24.654-27.503M1081.11 1253.775c-1.767 12.957 12.993 23.617 24.09 26.717-.497-.903-1.224-1.254-1.903-1.963M954.173 1221.734c17.516-14.217 37.063-27.27 59.663-29.173M932.865 1209.59c12.168-2.48 25.568-3.578 37.016-2.43M885.222 1301.41c3.024-17.105 21.182-38.343 33.558-49.436M1120.238 1112.063c11-9.863 17.22-18.416 23.145-31.172 3.4-9.487 5.344-21.153 13.015-27.535M1015.13 1176.428c29.76 12.093 70.758 18.534 101.777 11.176M1131.928 1142.256c3.766-1.89 32.164 4.895 43.174 4.445 17.24.42 36.22-2.206 53.385-5.188 35.92-6.41 73.14-17.45 103.185-35.95 10.278-6.24 19.328-13.856 27.36-22.05M1125.29 1014.78c-31.39-23.95-50.913-63.99-58.99-102.88M976.23 948.303c2.75-27.654 7.622-59.234 18.08-86.14M737.86 1197.892c20.9-33.12 33.33-69.062 46.552-105.22 9.404-25.722 11.856-53.318 21.338-78.967 8.91-24.103 12.655-47.8 31.23-66.752 17.35-17.697 33.522-36.193 53.65-51.187 22.66-17.333 68.99-42.005 98.04-42.25 3.402-.072.218.798 1.232 1.378M844.68 964.45c15.762-30.23 39.593-50.86 71.234-67.038 20.2-10.67 51.476-27.793 74.292-28.904M746.632 1204.908c22.56-39.57 45.856-73.346 59.507-117.324 8.53-25.674 13.63-51.666 21.058-77.21M805.628 1010.66c-27.01 10.814-62.58 6-86.468 21.953M813.15 997.472c-19.338 4.43-37.22 11.042-56.993 13.885-18.978 2.626-28.612 1.843-37.433 19.67M799.524 835.085c15.788-1.757 33-29.585 45.597-39.888 18.89-15.444 43.008-21.188 66.62-22.51M792.488 825.018c8.104-4.788 17.887-6.6 27.443-9.22M725.53 1021.458c-2.413-18.185-.4-35.856-5.996-53.167-5.374-16.51-13.358-33.16-18.734-49.67-13.514-39.97-10.276-65.69 10.55-102.22 16.2-28.406 39.143-50.95 61.07-74.084M848.4 744.638c-34.685 7.78-83.14 9.062-100.776-27.214 25.16 32.5 60.965-24.395 73.7-37.306M722.48 631.82c5.056-15.937-5.396-35.342 8.208-54.478 10.85-16.67 30.107-24.507 49.44-28.946M1038.56 907.508c-30.234-25.98-55.038-60.286-82.734-89.525-30.384-32.78-65.685-61.65-96.285-95.233-35.746-39.883-67.22-76.648-81.393-128.425M773.724 584.407c-6.306-76.2 39.34-140.927 83.764-197.607 19.678-25.086 41.386-49.01 55.772-77.78 12.292-23.916 20.01-55.14 33.395-75.07M975.324 604.57c36.35-14.235 76.56-8.114 114.652-15.972 36.717-6.63 68.286-19.544 96.587-44.423M925.69 589.044c18.458-17.04 34.96-31.833 56.534-43.73M975.124 622.608c4.27-6.31 8.537-12.614 14.255-16.75M1084.812 644.81c-9.415.01-21.438-.122-29.774-5.547M1184.674 540.41c-5.45-19.913-6.483-39.324-12.513-58.228-6.03-18.897-16.403-34.896-23.228-53.575-14.095-38.96-36.22-79.144-62.978-111.203-29.444-35.606-90.19-82.348-138.146-85.485M1172.016 556.72c-5.65-1.877-18.534-67.707-22.602-79.438-14.45-37.148-32.884-73.2-57.035-105.122-42.716-55.95-90.854-94.15-154.622-123.792M1335.148 802.344c-33.75-76.388-136.202-106.574-191.237-166.858-7.178-7.457-14.573-15.707-20.952-23.374M1241.134 655.965c13.572 24.54 38.226 52.044 67.71 53.394 6.99-37.024-7.1-75.98-14.307-111.687-6.985-34.9-7.816-72.352-21.396-106.31-7.403-17.667-15.39-43.737-29.893-56.04M1230.818 696.468c-1.377 1.23-3.768 1.883-3.768 1.883 11.95-3.272 22.67-7.914 31.93-14.73M1292.32 705.32c2.934-39.335-9.124-77.138-17.562-114.212-8.874-38.673-13.546-77.64-28.576-113.773-4.642-10.712-9.44-28.243-17.634-36.278M1182.054 449.506c20.858 1.14 41.278-8.73 61.412-13.382M1141.81 405.722c24.422-7.6 33.35 7.174 51.523 21.67 10.03 7.996 21.007 10.522 32.823 14.322M1239.625 434.606c-39.192-5.544-54.447-51.886-95.426-29.54M734.564 1198.04M736.625 1196.765c-6.624-7.23-9.558-15.816-10.706-25.286-.18-1.476-1.262-4.427-.43-5.408" stroke="#FF0050" stroke-width="3"/><path d="M717.316 1036.272"/><path d="M718.147 1033.287c-3.333 4.766-5.583 9.655-4.038 13.66M1375.847 1111.278c-9.07-14.57-16.388-30.708-16.008-47.865.443-18.264 3.342-36.83 4.893-55.036 1.946-19.396-.19-39.13.986-58.68 1.302-21.764 6.956-42.18 14.49-62.38 1.987-5.99 5.512-11.67 7.934-17.41M1340.22 757.13c.468 9.668 1.978 16.512.574 25.967-1.25 8.68-1.15 17.002.053 25.38 2.87 18.44 8.297 36.915 13.283 55.138 4.528 16.54 9.243 33.755 17.63 48.51M1016.33 1162.402c40.95 12.492 72.52-2.075 109.952-2.444M1003.922 946.297c-6.328-24.407-5.877-50.412-3.65-75.406M1112.414 1264.9c-48.324-10.75-71.9-43.68-99.387-81.54-8.05-10.64-26.904-29.45-13.366-42.576.212-.214.447-.413.68-.615M1095.653 1128.138c7.305.943 14.496 3.045 21.49 7.034 18.264 10.412 36.386 23.432 54.65 33.845" stroke="#FF0050" stroke-width="3"/><path d="M2048 0M2048 1536M0 1536M0 0" stroke="#17192D" stroke-width="3"/></g></svg>