<svg xmlns="http://www.w3.org/2000/svg" width="2048" height="1536" viewBox="0 0 2048 1536"><g fill="none" stroke-width="3"><g stroke="#FF0050"><path d="M1056.986 287.164c1.317-15.34 22.798-20.438 33.663-29.72 16.132-13.094 27.323-32.72 20.03-53.597-4.954-15.204-17.442-29.143-25.33-43.54-7.483-12.938-12.23-27.41-18.248-40.754-10.496-23.938-18.794-48.485-29.295-72.427-4.476-10.606-14.1-28.473-26.18-32.27-15.62-5.187-15.07 11.228-4.922 19.487M974.564 49.457c-.694-4.426-7.31-10.963-8.487-16.607-1.15-5.52 2.556-14.583 9.13-12.75M986.706 47.705c-.73-6.39-19.335-26.165-2.695-30.014M999.108 41.16c-2.392-6.812-9.64-7.944-10.688-16.004-.68-5.217 4.678-17.08 11.197-10.953M978.21 238.537c8.73-14.22 17.39-22.904 15.105-42.782-1.614-14.548-3.963-28.884-5.043-44.365-2.234-34.09-5.805-70.186-23.647-100.788-4.614-8.204-18.035-22.667-2.297-28.556"/></g><path d="M2048 0M2048 1536M0 1536M0 0" stroke="#17192D"/></g></svg>