<?xml version="1.0" encoding="iso-8859-1"?>
<!-- Generator: Adobe Illustrator 15.1.0, SVG Export Plug-In . SVG Version: 6.00 Build 0)  -->
<!DOCTYPE svg PUBLIC "-//W3C//DTD SVG 1.1//EN" "http://www.w3.org/Graphics/SVG/1.1/DTD/svg11.dtd">
<svg version="1.1" xmlns="http://www.w3.org/2000/svg" xmlns:xlink="http://www.w3.org/1999/xlink" x="0px" y="0px" width="2048px"
	 height="1536px" viewBox="0 0 2048 1536" style="enable-background:new 0 0 2048 1536;" xml:space="preserve">
<g id="b1b_x5F_fuss_x5F_h">
	<g>
		<path style="fill:none;stroke:#FF0050;stroke-width:3;" d="M1293.156,567.959c18.412-1.89,38.163-1.777,56.771-2.928
			c18.817-0.416,37.158-5.437,56.907-5.322c15.146,0.593,34.836,6.241,49.909,3.688c14.345-2.347,28.939-18.172,41.875-25.654
			c18.734-12.229,60.95-30.878,62.594-56.57"/>
		<path style="fill:none;stroke:#FF0050;stroke-width:3;" d="M1265.171,462.834c37.226-2.304,77.062,4.935,115.291,6.298
			c41.368,1.296,71.18-10.811,108.989-28.257c14.806-6.417,37.15-14.113,39.335-32.063"/>
		<g>
			<path style="fill:none;stroke:#FF0050;stroke-width:3;" d="M1561.604,478.02c2.817-3.189,4.565-7.825,7.542-10.686
				c2.326-2.226,5.93-5.611,6.779-9.604c1.226-5.764-2.383-6.701-5.398-5.749c-2.54,0.808-6.093,4.763-7.811,7.789
				c-0.06,0.146-0.118,0.272-0.176,0.411"/>
			<path style="fill:none;stroke:#FF0050;stroke-width:3;" d="M1558.381,444.906c-0.41,0.334-0.633,0.065-0.923,0.691
				c4.625-3.119,7.446-14.279,13.323-11.826c2.077,0.866,4.949,3.849,4.172,7.908c-0.352,1.856-1.49,2.308-2.25,3.424
				c-1.021,1.507-1.84,3.479-3.034,4.631"/>
			<path style="fill:none;stroke:#FF0050;stroke-width:3;" d="M1549.364,427.576c3.935-4.167,7.994-9.983,12.831-10.965
				c3.91-0.805,11.251,10.231,5.647,15.353"/>
			<path style="fill:none;stroke:#FF0050;stroke-width:3;" d="M1537.312,442.469c1.821-1.882,3.195-4.853,5.156-6.472"/>
			<path style="fill:none;stroke:#FF0050;stroke-width:3;" d="M1543.631,460.489c1.104-2.403,3.481-4.216,4.978-6.073"/>
			<path style="fill:none;stroke:#FF0050;stroke-width:3;" d="M1547.298,472.71c0.976-1.942,2.523-2.826,3.616-4.599"/>
			<path style="fill:none;stroke:#FF0050;stroke-width:3;" d="M1532.163,430.322c0.054-1.836,1.401-3.379,3.196-3.92"/>
			<path style="fill:none;stroke:#FF0050;stroke-width:3;" d="M1528.786,408.812c5.497-6.611,9.788-20.698,17.627-20.847"/>
			<path style="fill:none;stroke:#FF0050;stroke-width:3;" d="M1542.197,417.813c0.706-3.714,7.918-11.542,10.313-14.254
				c4.255-4.606,13.76-4.063,9.833,7.058"/>
			<path style="fill:none;stroke:#FF0050;stroke-width:3;" d="M1548.762,387.163c3.234,0.159,6.424,4.753,7.02,9.598"/>
		</g>
	</g>
	<path style="fill:none;stroke:#17192D;stroke-width:3;" d="M2048,0"/>
	<path style="fill:none;stroke:#17192D;stroke-width:3;" d="M2048,1536"/>
	<path style="fill:none;stroke:#17192D;stroke-width:3;" d="M0,1536"/>
	<path style="fill:none;stroke:#17192D;stroke-width:3;" d="M0,0"/>
</g>
<g id="Layer_1">
</g>
</svg>
