<svg xmlns="http://www.w3.org/2000/svg" xmlns:xlink="http://www.w3.org/1999/xlink" width="2048" height="1536" viewBox="0 0 2048 1536"><g><path d="M1406.192 479.18l-55.39 158.547-66.04 173.222-52.307 159.38-30.09 79.04c-8.023 22.465-35.553 35.94-61.478 26.674l-233.7-83.484-65.022-26.007c-25.927-9.262-47.04-28.385-32.415-57.445l2.833-8.46 39.384-117.488 77.245-208.465 49.798-143.927 3.118-11.96 37.227-96.44c8.027-28.986 35.557-33.166 61.48-23.903l94.412 30.952 117.738 44.407" fill="none"/><g fill="none" stroke="#17192D" stroke-width="3"><path d="M1165.25 1078.155c-.5-.107-1.004-.206-1.507-.35M1421.42 468.577l-201.048 562.78c-6.8 19.04-30.82 52.01-55.122 46.8M1030.64 303.186c2.582-.66 5.136-1.268 7.542-1.874-2.407.606-4.96 1.215-7.542 1.874.024-.04.053-.08.08-.124 12.933-17.874 47.26-30.06 68.12-22.608l199.76 71.363M1335.663 389.495M812.58 900.643l39.385-117.485 77.247-208.465 49.798-143.925 3.116-11.96 37.228-96.44c8.027-28.986 35.557-33.17 61.48-23.908l94.41 30.956 117.737 44.405M1406.192 479.176l-55.39 158.55-66.04 173.22-52.304 159.382-30.092 79.036c-8.024 22.47-35.554 35.94-61.48 26.68l-233.7-83.49-65.022-26c-25.927-9.265-47.042-28.39-32.418-57.448l2.834-8.463M930.74 971.774"/><path d="M1213.808 366.45c-18.808 0-34.05 15.246-34.05 34.052 0 18.807 15.242 34.05 34.05 34.05 18.803 0 34.05-15.243 34.05-34.05 0-18.806-15.248-34.052-34.05-34.052zM1210.99 385.868c-2.38-.864-5.005.367-5.867 2.746l-5.514 15.22c-.864 2.378.368 5.004 2.745 5.866l15.51 5.624c2.377.86 5.004-.367 5.865-2.748l5.517-15.22c.86-2.376-.372-5.006-2.746-5.866l-15.51-5.622zM975.228 954.128c-1.143 3.224.542 6.76 3.764 7.908l64.19 22.75c3.217 1.142 6.76-.54 7.902-3.768 1.143-3.22-.546-6.758-3.77-7.9l-64.185-22.757c-3.224-1.136-6.766.548-7.902 3.768zM957.917 938.547c-4.89 0-8.85 3.96-8.85 8.845 0 4.88 3.96 8.843 8.85 8.843 4.882 0 8.844-3.962 8.844-8.843 0-4.885-3.962-8.845-8.843-8.845zM957.917 942.964c-2.444 0-4.426 1.984-4.426 4.428 0 2.44 1.983 4.42 4.427 4.42 2.44 0 4.418-1.98 4.418-4.42 0-2.444-1.977-4.428-4.418-4.428zM1251.77 467.367l-232.924-83.04-36.763 110.92-50.903 135.004L911.8 692.4 847.638 864.6l62.578 19.542c0-.004 128.3 49.733 214.317 81.218 43.37 15.876 75.993 25.043 75.993 25.043l28.234-71.417 78.854-236.78 64.118-172.08M1154.063 679.34M1222.005 702.86M1313.693 609.86c3.805-1.712 6.923-4.93 8.395-9.188l2.546-7.352"/></g><defs><path id="a" d="M879.146 838.777c-2.81 8.217 1.572 17.15 9.79 19.966l294.248 100.637c8.218 2.82 17.156-1.566 19.968-9.785l128.465-367.23-36.873 54.647c1.008-2.95-17.618 22.15-34.732 39.263-10.065 10.065-31.32 24.08-41.273 27.18-9.355 2.915-4.48 3.71-13.592 6.546-10.34 3.213-41.274-10.57-50.336-27.686-12.585-10.066 34.34-96.922 32.214-97.65l9.193-21.023 11.948-18.236 35.11-66.06-198.145-67.772c-8.216-2.81-17.156 1.572-19.966 9.79l-146.02 417.415z"/></defs><clipPath id="b"><use xlink:href="#a" overflow="visible"/></clipPath><g clip-path="url(#b)"><path d="M996.6 650.506c-10.818 22.042-21.802 43.91-33.287 65.352-6.917 12.88-20.38 34.34-21.508 47.268M1200.828 330.947c-8.875 2.985-22.338 24.444-29.905 33.432-13.744 15.04-26.48 31.455-38.538 48.194-24.105 31.677-48.57 65.887-67.592 100.87-8.258 15.434-16.242 31.047-24.076 46.75M1234.836 455.608c-2.416 3.346 6.054 48.633 10.753 56.238M1230.543 796.2c5.638 23.706 16.526 47.48 31.487 63.54M1230.338 603.278c-3.94 21.648-5.16 44.13-2.107 68.18 1.42 12.787 4.21 22.688 4.16 34.152M1285.627 448.205c-13.366 36.793-29.753 70.888-41.883 105.73M1365.05 636.513c15.814-17.655 66.79-46.51 89.26-46.657M1285.05 795.234c12.133-25.673 38.56-49.978 57.112-69.927 22.343-24.438 56.96-52.05 87.347-61.918M1256.16 789.656c.254 9.992 7.294 23.19 15.07 29.56M1245.46 807.035c3.977 12.65 8.3 24.562 18.788 32.21M1236.19 959.728M1270.218 955.304c1.83 1.404 4.078 1.927 6.53 2.006M1148.328 891.216c-2.4 17.755-1.912 32.555.396 49.835M984.346 865.518c32.948 2.08 66.977 20.865 84.758 48.695M1070.335 913.716c7.536 5.18 21.255 4.648 30.247 6.74 12.462 3.196 21.83 8.7 31.594 16.554 7.143 6.2 19.417 19.674 19.417 19.674s8.887-.96 11.826-.525c12.26 2.555 18.932 3.483 30.15 8.248 7.14 2.836 15.487 8.397 21 10.463M946.734 762.47c19.032 25.184 42.64 66.024 34.772 100.62M1014.467 838.735c4.726-1.546 12.15-7.75 16.073-11.83M968.14 773.127c3.626 7.107 6.237 13.2 6.782 21.553M930.12 933.795c12.434 6.417 25.295 10.875 32.766 23.58M943.67 953.688c5.302 2.508 9.772 6.778 13.622 11.297M1029.613 1007.266c1.812 3.55 4.435 8.57 6.252 11.05M1070.467 1042.23c12.955-30.58 41.302-65.21 69.48-80.497M992.987 980.242c14.535-23.352 42.29-60.965 70.583-65.938M919.115 927.516c17.417-25.23 30.714-48.09 57.46-63.508M942.197 760.727c-11.556 10.722-20.26 22.81-26.117 37.31-3.136 7.687-4.25 18.494-8.196 24.724-7.57 6.588-18.08 7.648-25.125 17.268M906.792 836.416c5.907 3.334 8.934 8.543 12.987 13.695M894.627 846.318c9.77 6.775 19.777 9.885 29.755 16.22M931.874 872.018c.413.195.818.39.61.83M1044.084 895.366c.388 2.342.16 4.936-.26 6.895M1083.89 750.346c7.353 5.184 14.608 10.475 21.693 15.963 12 9.445 23.79 19.334 33.514 31.49 9.32 10.706 13.78 22.72 17.933 35.896M994.884 686.997c11.39 9.453 23.358 18.25 35.558 26.783M1129.643 676.056c6.34 7.42 12.39 15.167 18.194 23.028M1272.342 787.89c2.83 3.55 3.434 11.82 3.557 16.757-2.607 9.853-4.384 20.545-5.14 30.83-8.388 16.875-7.717 36.264-15.26 53.098-7.898 18.44-15.253 33.144-16.603 53.347-.218 5.663.247 10.762.87 16.375-.167-.518-.157-1.405-.486-2.448" fill="none" stroke="#17192D" stroke-width="3"/><defs><path id="c" d="M1231.858 639.564l-19.32-53.718c9.96-1.543 19.068 2.02 24.247 10.33.927 1.49 1.728 3.14 2.38 4.952 4.123 11.507 1.57 28.327-7.307 38.436zm-81.32-135.356l21.968 60.61c-13.143 5.21-27.583 2.827-34.796-8.804-.947-1.52-1.77-3.208-2.46-5.065-6.056-16.945 1.392-36.353 15.287-46.742zm-42.368 62.44c1.613 4.47 3.527 8.454 5.714 11.976 7.664 12.356 18.718 19.033 31.08 21.09 11.965 1.998 25.136-.233 37.932-5.476l22.39 62.187c-4.19 1.578-8.192 2.125-13.695 1.282-6.003-.934-13.775-3.614-25.06-8.625l-1.246-.554-12.2 30.1 1.033.563c18.068 9.84 40.475 14.363 61.202 4.58l11.746 32.956 26.675-16.573-11.747-32.962c21.255-19.005 34.71-52.997 24.337-80.858-1.46-4.063-3.23-7.73-5.264-11.002-12.803-20.64-35.944-25.06-59.093-18.488l-24.743-69.13c7.37-2.935 13.99-2.425 20.443-.21 6.772 2.33 13.27 6.628 19.744 10.828l1.258.813 14.42-29.914-.9-.647c-18.215-13.142-42.547-19.932-65.002-8.255l-11.727-32.9-26.678 16.575 11.697 32.823c-26.933 17.848-44.08 56.635-32.315 89.82zm30.406 129.34l-.52-.042-27.91 21.954 3.543.17c22.874 1.078 48.546 8.214 72.573 28.206 17.513 14.585 26.308 30.354 27.43 46.534 1.115 16.184-5.458 32.966-19.245 49.54-1.137 1.366-2.324 2.73-3.562 4.09l-80.6-67.077-28.328 9.735 91.327 76.006c-2.92 2.37-6.682 5.717-10.87 9.1-3.767 2.76-7.75 5.773-10.86 7.79l-99.437-82.758-27.977 10.03 104.014 86.562c-37.016 21.04-83.683 25.064-122.647-7.35-24.343-20.264-33.157-42.375-33.27-59.085l-.017-2.68-2.116 1.644-24.776 19.266.082.733c1.706 15.167 13.085 39.094 39.15 60.802 54.106 45.058 116.927 36.92 168.763 7.617l16.897 14.062 27.97-10.03-22.446-18.685c3.056-2.008 6.593-4.614 10.32-7.443 3.938-3 8.475-6.71 11.194-9.62l15.043 12.516 27.977-10.027-24.663-20.53c2.093-2.284 4.085-4.562 5.977-6.836 19.818-23.804 28.647-46.932 26.752-68.878-1.896-21.95-14.496-42.485-36.927-61.147-27.33-22.725-56.048-32.72-72.84-34.172zm-118.66-27.017l-158.7 23.062 8.465 26.527 160.883-25.863-83.296 112.92 28.606 15.245 78.47-113.32 32.91 36.86 24.254-13.74-39.87-44.664 97.235-55.475-20.098-22.51-97.235 55.477-40.14-44.964-24.255 13.74 1.092 1.218 31.68 35.487z"/></defs><clipPath><use xlink:href="#c" overflow="visible"/></clipPath><use xlink:href="#c" overflow="visible" fill="none" stroke="#17192D" stroke-width="3"/></g><path d="M1242.94 481.35l-197.81-67.654c-8.215-2.81-17.155 1.57-19.965 9.79L879.145 840.9c-2.81 8.218 1.573 17.152 9.79 19.967l294.25 100.64c8.217 2.816 17.155-1.57 19.967-9.788l129.235-369.433M2048 0M2048 1536M0 1536M0 0" fill="none" stroke="#17192D" stroke-width="3"/></g></svg>