<svg xmlns="http://www.w3.org/2000/svg" xmlns:xlink="http://www.w3.org/1999/xlink" width="2048" height="1536" viewBox="0 0 2048 1536"><defs><path id="a" d="M0 0h2048v1536H0z"/></defs><clipPath id="b"><use xlink:href="#a" overflow="visible"/></clipPath><path d="M475.218 671.55c-6.31 19.904-14.198 35.26-25.235 52.32M660.82 726.143c-35.755-14.215-80.97-11.37-113.566 9.102M546.2 734.108c-10.518 1.707-24.71-5.688-35.23-7.965-14.72-2.842-27.34-1.705-41.537 1.708-10.616 2.976-30.258 11.06-30.258 11.06s-8.89-5.435-12.204-6.442c-14.192-3.413-21.685-5.757-35.88-6.325-8.94-.567-20.503 1.14-27.34.568M751.782 636.287c-32.6 17.062-77.82 48.34-86.757 88.718M642.42 682.92c-4.208-3.98-8.943-14.22-11.043-20.47M723.916 636.855c-7.36 5.684-13.146 10.804-17.88 19.338M683.957 825.103c-16.298.57-32.073-1.138-46.27 8.528M659.77 839.318c-6.837 0-13.672 2.275-19.982 5.117M542.518 852.97c-3.678 2.84-8.937 6.822-12.09 8.527M464.704 876.858c-26.82-3.41-49.43 3.415-74.66 13.083M482.056 869.465c1.574-38.674-11.044-89.286-33.125-119.428M594.575 842.736c-3.686-31.85-14.195-85.307-41.538-104.642M698.68 823.97c-5.784-35.263-8.412-65.975-28.92-95.546M757.43 636.71c6.84 17.056 9.99 34.128 8.94 52.323-.524 9.665-4.733 21.612-3.68 30.14 4.697 10.71 15.243 17.064 17.876 30.712M757.042 734.108c-7.887.568-13.673 4.55-20.51 7.96M764.927 750.598c-13.67 2.276-25.76.57-39.435 2.276M712.88 759.13c-.534 0-1.06 0-1.06.57M700.257 831.356c19.452 9.1 35.224 35.83 44.162 55.737M599.305 853.54c15.77 14.784 35.23 24.456 51.527 38.103 13.143 10.805 35.23 29.574 41.012 47.206 15.248 1.706 31.022 11.374 44.688 19.335 25.762 15.354 45.222 28.435 46.797 62.558M486.26 880.27c28.394-1.14 52.58 29.572 67.3 51.75 7.89 12.517 14.722 25.595 25.24 32.418 14.19 9.67 27.337 16.492 39.428 29.575 9.995 11.373 17.35 23.885 22.613 38.1M564.075 965.575c-9.464 1.707-18.4.57-27.862 3.412-9.468 2.844-17.356 9.104-26.294 13.082M664.5 944.536c-19.978 3.41-44.69 1.136-62.04 17.63M334.83 828.516c1.057 25.592 8.418 60.854 19.457 83.033 15.25 30.142 44.164 40.944 65.724 63.126 14.2 14.788 29.445 31.277 45.744 41.517M713.397 921.777c4.208-9.1 17.882-11.372 26.292-13.646M583.002 727.845c-1.575 2.273-2.623 5.122-3.158 7.396M744.935 888.098c1.712 5.547 5.13 9.244 6.84 14.793 18.595 1.49 35.524 12.882 50.01 28.617M780.833 747.57c19.155 30.386 33.9 68.39 40.54 99.82 1.91 2.067 4.016 4.536 6.18 7.24M804.762 849.27c-8.546 0-27.347 5.547-39.313 12.94M640.618 1037.16c6.938 11.102-.926 26.83-6.48 36.082-8.324 3.237-20.812 7.86-30.063 7.86-10.177 0-22.668-6.938-31.916-10.638-27.295-10.64-54.586-14.8-79.1-31.916-8.33-5.553-18.968-12.025-24.053-20.817M636.917 1026.06c9.836 13.288 32.34 14.28 47.09 16.188 20.98 2.708 40.71 8.79 62.075 8.787 9.236 0 19.343-.738 27.292-5.446 2.973-1.762 6.432-3.465 8.79-6.107 3.696-4.138 2.313-10.716 2.313-16.2M843.876 1029.048c-5.145 4.12-13.722 5.34-21.47 6.723-13.876 2.313-23.59-3.234-36.544-6.938M802.467 930.54c16.157 7.346 37.212 27.91 44.556 44.066 6.855 13.71 16.157 40.64.49 50.92M828.906 856.118c16.688 16.69 37.308 42.443 47.59 62.027 10.77 20.565 26.342 45.69 6.757 67.234-7.344 8.322-17.136 9.79-25.95 13.707" clip-path="url(#b)" fill="none" stroke="#17192D" stroke-width="3"/></svg>