<?xml version="1.0" encoding="iso-8859-1"?>
<!-- Generator: Adobe Illustrator 13.0.0, SVG Export Plug-In . SVG Version: 6.00 Build 14948)  -->
<!DOCTYPE svg PUBLIC "-//W3C//DTD SVG 1.1//EN" "http://www.w3.org/Graphics/SVG/1.1/DTD/svg11.dtd">
<svg version="1.1" id="Ebene_1" xmlns="http://www.w3.org/2000/svg" xmlns:xlink="http://www.w3.org/1999/xlink" x="0px" y="0px"
	 width="2048px" height="1536px" viewBox="0 0 2048 1536" style="enable-background:new 0 0 2048 1536;" xml:space="preserve">
<g>
	<defs>
		<rect id="SVGID_1_" width="2048" height="1536"/>
	</defs>
	<clipPath id="SVGID_2_">
		<use xlink:href="#SVGID_1_"  style="overflow:visible;"/>
	</clipPath>
	<path style="clip-path:url(#SVGID_2_);fill:none;stroke:#17192D;stroke-width:3;" d="M1505.425,585.853
		c-44.498-19.463-68.136-62.57-76.478-107.063"/>
	<path style="clip-path:url(#SVGID_2_);fill:none;stroke:#17192D;stroke-width:3;" d="M1465.1,645.646
		c-44.495-9.735-65.355-51.449-72.305-93.162"/>
	<path style="clip-path:url(#SVGID_2_);fill:none;stroke:#17192D;stroke-width:3;" d="M1384.455,613.665
		c-1.188-1.185-6.141-4.129-11.979-8.083"/>
	<path style="clip-path:url(#SVGID_2_);fill:none;stroke:#17192D;stroke-width:3;" d="M1406.7,616.446
		c-31.979,18.077-51.449,59.787-75.087,86.208"/>
	<path style="clip-path:url(#SVGID_2_);fill:none;stroke:#17192D;stroke-width:3;" d="M1352.473,752.721
		c-4.304-15.299-10.906-27.309-19.245-37.276"/>
	<path style="clip-path:url(#SVGID_2_);fill:none;stroke:#17192D;stroke-width:3;" d="M1847.476,10.208
		c-8.341,38.931-40.323,68.13-54.228,105.668c-11.12,30.593-19.468,65.353-29.197,97.331
		c-18.075,68.132-48.669,130.707-69.524,197.445c-19.47,62.574-44.495,122.361-76.478,179.373
		c-34.76,61.18-91.766,98.72-144.607,144.605c-28.523,24.774-52.514,54.852-85.552,74.176c-15.009,8.777-32.849,16.133-50.539,12.38
		c-10.175-2.159-15.662-8.315-24.153-13.21c-3.123-1.799-6.29-3.172-9.506-4.275"/>
</g>
</svg>
