<svg xmlns="http://www.w3.org/2000/svg" xmlns:xlink="http://www.w3.org/1999/xlink" width="2048" height="1536" viewBox="0 0 2048 1536"><defs><path id="a" d="M0 0h2048v1536H0z"/></defs><clipPath id="b"><use xlink:href="#a" overflow="visible"/></clipPath><path d="M698.952 55.006c7.863 7.564 11.364 36.878 14.862 50.12 6.994 22.695 12.237 46.337 16.61 69.976 9.62 45.392 18.36 93.623 20.984 139.964 4.373 87.948 1.75 176.843 6.122 263.846.87 17.02 4.37 46.338-.88 60.524M601.026 169.43c.875 4.727-30.6 48.227-39.345 53.9M551.19 136.33c-8.742 93.622 1.75 181.57-50.716 263.848-10.485 17.022-20.976 27.424-26.226 47.284-5.242 19.862-9.613 37.827-20.108 55.796-17.483 32.152-49.832 65.25-83.06 78.493M373.7 295.205c-7.87-26.48-47.21-82.278-70.82-93.627M378.95 502.307c0-33.094-15.74-71.87-25.356-102.133-11.37-36.88-34.1-83.218-61.204-108.755M412.17 510.823c-5.24 10.403-19.234 20.8-30.598 23.64M414.794 534.463c-10.493 11.348-20.98 21.75-35.843 24.588M326.424 681.217c6.835 5.12 17.35 10.808 20.508 19.904 3.677 10.237.525 29.006 0 39.813-1.58 25.59-3.16 51.752-9.996 76.776-6.31 22.178-23.127 39.808-39.434 54.024-9.463 7.39-45.74 28.438-47.84 2.844M314.852 678.373c-2.626.57-5.255 0-7.88-1.137M228.628 654.488c-1.05 0-6.836 1.138-9.464 1.707M242.298 681.788c-6.31-1.14-12.62-2.846-18.405 0M240.723 704.533c-2.63 1.14-5.26 1.708-7.89 2.276M224.95 539.608c1.05 26.157-7.894 52.888-7.894 79.62 0 24.452-1.576 50.043 5.26 72.79 4.21 14.788 10.516 27.87 14.197 42.086 3.677 13.65 6.31 32.42 10.515 42.652M232.312 871.164c23.13 3.98 26.812-7.96 29.962-31.276 2.103-15.923 9.466-60.855-13.67-63.695M223.894 537.903c1.577-12.512-6.313-29.574-9.463-41.52-3.153-14.782-5.254-29.57-7.363-44.356-3.676-24.454-9.986-51.183-4.2-75.07 4.728-18.767 7.884-38.104 12.613-56.872M300.136 50.525c-10.52 25.59-24.19 48.905-33.655 75.065-9.986 27.297-16.826 56.3-25.237 84.733-15.773 52.893-26.288 109.763-29.966 165.497-.526 8.53-2.107 17.06-1.056 25.024M738.634 532.776c-51 13.083-104.634 17.064-156.156 28.435-17.35 3.984-34.7 8.534-50.998 16.497-19.46 8.528-31.55 23.316-46.273 39.238M711.296 424.722c-10.514 4.55-24.71 3.982-36.277 6.256-15.25 3.413-29.973 6.822-44.696 11.94-26.813 9.103-53.1 22.748-77.817 36.97-15.775 8.53-29.968 17.626-43.638 29.57-14.725 12.514-31.024 29.006-48.9 36.398M597.2 429.266c13.674-32.417 25.236-61.987 32.074-96.11M248.007 777.286c-5.296 14.983-8.958 33.493-11.813 48.923-2.44 14.098-5.706 31.726-5.297 44.508M396.002 500.9c-4.75 2.334-9.507 10.748-12.095 15.887-2.162 11.68-5.618 23.83-9.94 35.05.434 21.96-9.935 42.052-10.37 63.55-.86 23.364-.432 42.526-9.07 64.487-2.59 6.076-5.617 11.218-9.076 16.822.436-.464.87-1.402 1.736-2.34" clip-path="url(#b)" fill="none" stroke="#17192D" stroke-width="3"/></svg>