<?xml version="1.0" encoding="iso-8859-1"?>
<!-- Generator: Adobe Illustrator 15.1.0, SVG Export Plug-In . SVG Version: 6.00 Build 0)  -->
<!DOCTYPE svg PUBLIC "-//W3C//DTD SVG 1.1//EN" "http://www.w3.org/Graphics/SVG/1.1/DTD/svg11.dtd">
<svg version="1.1" xmlns="http://www.w3.org/2000/svg" xmlns:xlink="http://www.w3.org/1999/xlink" x="0px" y="0px" width="2048px"
	 height="1536px" viewBox="0 0 2048 1536" style="enable-background:new 0 0 2048 1536;" xml:space="preserve">
<g id="b2a_x5F_phone">
	<g>
		<path style="fill:none;" d="M1406.192,479.179l-55.39,158.548l-66.039,173.222c0,0.002-52.308,159.381-52.308,159.381
			l-30.089,79.039c-8.024,22.466-35.554,35.941-61.479,26.675L907.187,992.56l0,0l-65.022-26.007
			c-25.927-9.262-47.04-28.385-32.415-57.445l2.833-8.459l39.384-117.489l77.245-208.465l49.798-143.927l3.118-11.959l37.227-96.441
			c8.027-28.986,35.557-33.166,61.48-23.903l94.412,30.952l117.738,44.407"/>
		<g>
			<g>
				<path style="fill:none;stroke:#17192D;stroke-width:3;" d="M1165.25,1078.155c-0.5-0.107-1.004-0.206-1.507-0.35"/>
				<path style="fill:none;stroke:#17192D;stroke-width:3;" d="M1421.419,468.577l-201.047,562.781
					c-6.799,19.039-30.819,52.009-55.122,46.798"/>
				<path style="fill:none;stroke:#17192D;stroke-width:3;" d="M1030.64,303.186c2.582-0.659,5.136-1.268,7.542-1.874
					C1035.775,301.918,1033.222,302.527,1030.64,303.186c0.024-0.041,0.053-0.079,0.079-0.124
					c12.934-17.874,47.26-30.061,68.121-22.608l199.759,71.363"/>
				<path style="fill:none;stroke:#17192D;stroke-width:3;" d="M1335.663,389.495"/>
				<path style="fill:none;stroke:#17192D;stroke-width:3;" d="M812.581,900.643l39.384-117.485l77.247-208.465l49.798-143.925
					l3.116-11.96l37.228-96.441c8.027-28.985,35.557-33.17,61.48-23.907l94.41,30.956l117.737,44.405"/>
				<path style="fill:none;stroke:#17192D;stroke-width:3;" d="M1406.192,479.176l-55.39,158.551l-66.041,173.218l-52.303,159.383
					l-30.092,79.036c-8.024,22.469-35.554,35.941-61.479,26.68l-233.701-83.489l0,0l-65.022-26.002
					c-25.927-9.264-47.042-28.388-32.418-57.447l2.834-8.463"/>
				<path style="fill:none;stroke:#17192D;stroke-width:3;" d="M930.74,971.774"/>
				<path style="fill:none;stroke:#17192D;stroke-width:3;" d="M1213.808,366.45c-18.808,0-34.051,15.246-34.051,34.052
					c0,18.807,15.243,34.05,34.051,34.05c18.803,0,34.05-15.243,34.05-34.05C1247.857,381.696,1232.61,366.45,1213.808,366.45z"/>
				<path style="fill:none;stroke:#17192D;stroke-width:3;" d="M1210.989,385.868c-2.378-0.864-5.004,0.367-5.866,2.746
					l-5.514,15.221c-0.863,2.377,0.369,5.003,2.746,5.865l15.51,5.624c2.377,0.861,5.004-0.367,5.865-2.748l5.517-15.221
					c0.859-2.375-0.372-5.005-2.746-5.865L1210.989,385.868z"/>
				<path style="fill:none;stroke:#17192D;stroke-width:3;" d="M975.228,954.128c-1.143,3.224,0.542,6.761,3.764,7.908
					l64.189,22.749c3.218,1.143,6.76-0.54,7.903-3.767l0,0c1.143-3.221-0.546-6.758-3.769-7.899l-64.186-22.758
					C979.906,949.224,976.364,950.908,975.228,954.128L975.228,954.128z"/>
				<path style="fill:none;stroke:#17192D;stroke-width:3;" d="M957.917,938.547c-4.889,0-8.849,3.96-8.849,8.845
					c0,4.881,3.96,8.843,8.849,8.843c4.882,0,8.844-3.962,8.844-8.843C966.761,942.507,962.798,938.547,957.917,938.547z"/>
				<path style="fill:none;stroke:#17192D;stroke-width:3;" d="M957.917,942.964c-2.444,0-4.426,1.984-4.426,4.428
					c0,2.439,1.982,4.421,4.426,4.421c2.441,0,4.418-1.981,4.418-4.421C962.334,944.948,960.358,942.964,957.917,942.964z"/>
				<path style="fill:none;stroke:#17192D;stroke-width:3;" d="M1251.77,467.367l-232.924-83.04l-36.763,110.921L931.18,630.251
					l-19.379,62.147l-64.164,172.202l62.578,19.542c0-0.004,128.301,49.733,214.317,81.218
					c43.371,15.876,75.993,25.043,75.993,25.043l28.234-71.417l78.855-236.78l64.118-172.079"/>
				<path style="fill:none;stroke:#17192D;stroke-width:3;" d="M1154.063,679.34"/>
				<path style="fill:none;stroke:#17192D;stroke-width:3;" d="M1222.005,702.86"/>
				<path style="fill:none;stroke:#17192D;stroke-width:3;" d="M1313.693,609.861c3.805-1.713,6.923-4.932,8.395-9.189l2.546-7.352"
					/>
			</g>
			<g>
				<defs>
					<path id="SVGID_1_" d="M879.146,838.777c-2.811,8.217,1.572,17.151,9.79,19.966l294.248,100.637
						c8.218,2.819,17.156-1.566,19.968-9.785l128.465-367.229l-36.873,54.646c1.008-2.95-17.618,22.149-34.732,39.263
						c-10.065,10.065-31.319,24.081-41.273,27.18c-9.354,2.915-4.478,3.711-13.591,6.546c-10.34,3.212-41.274-10.572-50.336-27.687
						c-12.585-10.066,34.341-96.922,32.214-97.65l9.193-21.023l11.949-18.237l35.111-66.061l-198.146-67.771
						c-8.216-2.81-17.156,1.572-19.966,9.79L879.146,838.777z"/>
				</defs>
				<clipPath id="SVGID_2_">
					<use xlink:href="#SVGID_1_"  style="overflow:visible;"/>
				</clipPath>
				<g style="clip-path:url(#SVGID_2_);">
					<path style="fill:none;stroke:#17192D;stroke-width:3;" d="M996.599,650.506c-10.817,22.042-21.801,43.911-33.286,65.352
						c-6.917,12.881-20.38,34.339-21.508,47.268"/>
					<path style="fill:none;stroke:#17192D;stroke-width:3;" d="M1200.828,330.947c-8.875,2.985-22.338,24.444-29.905,33.432
						c-13.744,15.04-26.48,31.456-38.538,48.195c-24.105,31.677-48.57,65.887-67.592,100.87
						c-8.258,15.434-16.242,31.047-24.076,46.749"/>
					<path style="fill:none;stroke:#17192D;stroke-width:3;" d="M1234.836,455.608c-2.416,3.346,6.054,48.633,10.753,56.238"/>
					<path style="fill:none;stroke:#17192D;stroke-width:3;" d="M1230.543,796.201c5.638,23.705,16.526,47.48,31.487,63.54"/>
					<path style="fill:none;stroke:#17192D;stroke-width:3;" d="M1230.338,603.278c-3.941,21.648-5.16,44.13-2.107,68.181
						c1.419,12.786,4.21,22.687,4.16,34.151"/>
					<path style="fill:none;stroke:#17192D;stroke-width:3;" d="M1285.627,448.205c-13.366,36.793-29.753,70.888-41.883,105.729"/>
					<path style="fill:none;stroke:#17192D;stroke-width:3;" d="M1365.051,636.513c15.813-17.655,66.789-46.511,89.259-46.657"/>
					<path style="fill:none;stroke:#17192D;stroke-width:3;" d="M1285.05,795.234c12.133-25.673,38.561-49.978,57.112-69.927
						c22.343-24.438,56.961-52.049,87.347-61.918"/>
					<path style="fill:none;stroke:#17192D;stroke-width:3;" d="M1256.16,789.656c0.254,9.992,7.294,23.191,15.069,29.559"/>
					<path style="fill:none;stroke:#17192D;stroke-width:3;" d="M1245.46,807.035c3.977,12.649,8.299,24.562,18.788,32.211"/>
					<path style="fill:none;stroke:#17192D;stroke-width:3;" d="M1236.191,959.728"/>
					<path style="fill:none;stroke:#17192D;stroke-width:3;" d="M1270.218,955.304c1.831,1.404,4.078,1.927,6.531,2.006"/>
					<path style="fill:none;stroke:#17192D;stroke-width:3;" d="M1148.328,891.216c-2.401,17.755-1.912,32.555,0.396,49.835"/>
					<path style="fill:none;stroke:#17192D;stroke-width:3;" d="M984.346,865.518c32.948,2.08,66.977,20.865,84.758,48.695"/>
					<path style="fill:none;stroke:#17192D;stroke-width:3;" d="M1070.335,913.716c7.536,5.18,21.255,4.648,30.247,6.741
						c12.462,3.195,21.829,8.699,31.594,16.553c7.143,6.201,19.417,19.674,19.417,19.674s8.887-0.961,11.826-0.525
						c12.26,2.556,18.933,3.484,30.152,8.249c7.14,2.836,15.486,8.397,20.999,10.463"/>
					<path style="fill:none;stroke:#17192D;stroke-width:3;" d="M946.734,762.469c19.032,25.185,42.641,66.025,34.772,100.621"/>
					<path style="fill:none;stroke:#17192D;stroke-width:3;" d="M1014.467,838.735c4.726-1.546,12.149-7.751,16.073-11.829"/>
					<path style="fill:none;stroke:#17192D;stroke-width:3;" d="M968.141,773.127c3.625,7.107,6.236,13.2,6.781,21.553"/>
					<path style="fill:none;stroke:#17192D;stroke-width:3;" d="M930.12,933.795c12.434,6.417,25.295,10.875,32.766,23.579"/>
					<path style="fill:none;stroke:#17192D;stroke-width:3;" d="M943.671,953.688c5.301,2.508,9.771,6.778,13.621,11.297"/>
					<path style="fill:none;stroke:#17192D;stroke-width:3;" d="M1029.613,1007.266c1.812,3.551,4.435,8.57,6.252,11.049"/>
					<path style="fill:none;stroke:#17192D;stroke-width:3;" d="M1070.467,1042.229c12.955-30.578,41.302-65.209,69.479-80.496"/>
					<path style="fill:none;stroke:#17192D;stroke-width:3;" d="M992.987,980.242c14.535-23.352,42.291-60.965,70.583-65.938"/>
					<path style="fill:none;stroke:#17192D;stroke-width:3;" d="M919.115,927.516c17.417-25.229,30.714-48.089,57.461-63.508"/>
					<path style="fill:none;stroke:#17192D;stroke-width:3;" d="M942.197,760.727c-11.556,10.722-20.26,22.81-26.117,37.309
						c-3.136,7.688-4.25,18.495-8.196,24.725c-7.57,6.587-18.08,7.647-25.125,17.267"/>
					<path style="fill:none;stroke:#17192D;stroke-width:3;" d="M906.792,836.416c5.907,3.334,8.934,8.543,12.987,13.695"/>
					<path style="fill:none;stroke:#17192D;stroke-width:3;" d="M894.627,846.318c9.771,6.775,19.777,9.885,29.755,16.221"/>
					<path style="fill:none;stroke:#17192D;stroke-width:3;" d="M931.874,872.018c0.413,0.195,0.818,0.389,0.61,0.829"/>
					<path style="fill:none;stroke:#17192D;stroke-width:3;" d="M1044.084,895.366c0.388,2.342,0.16,4.936-0.261,6.895"/>
					<path style="fill:none;stroke:#17192D;stroke-width:3;" d="M1083.891,750.346c7.352,5.184,14.607,10.475,21.692,15.963
						c11.999,9.446,23.789,19.335,33.514,31.49c9.319,10.707,13.78,22.722,17.933,35.897"/>
					<path style="fill:none;stroke:#17192D;stroke-width:3;" d="M994.884,686.997c11.39,9.453,23.358,18.249,35.558,26.783"/>
					<path style="fill:none;stroke:#17192D;stroke-width:3;" d="M1129.643,676.056c6.339,7.419,12.391,15.167,18.194,23.028"/>
					<path style="fill:none;stroke:#17192D;stroke-width:3;" d="M1272.342,787.889c2.829,3.551,3.434,11.82,3.557,16.758l0,0
						c-2.606,9.853-4.383,20.545-5.14,30.829c-8.387,16.876-7.716,36.265-15.258,53.099c-7.899,18.44-15.254,33.144-16.604,53.347
						c-0.218,5.663,0.247,10.762,0.871,16.375l0,0c-0.168-0.518-0.158-1.405-0.487-2.448"/>
					<g>
						<defs>
							<path id="SVGID_3_" d="M1231.858,639.564l-19.321-53.718c9.962-1.543,19.069,2.019,24.248,10.331
								c0.927,1.49,1.728,3.14,2.379,4.951C1243.288,612.635,1240.736,629.455,1231.858,639.564z M1150.537,504.208l21.969,60.609
								c-13.143,5.21-27.583,2.828-34.796-8.803c-0.947-1.521-1.771-3.208-2.459-5.065
								C1129.194,534.005,1136.642,514.597,1150.537,504.208z M1108.17,566.647c1.613,4.47,3.527,8.455,5.714,11.977
								c7.664,12.356,18.718,19.033,31.081,21.089c11.964,1.999,25.135-0.232,37.931-5.475l22.391,62.187
								c-4.19,1.578-8.193,2.125-13.696,1.282c-6.004-0.934-13.776-3.614-25.062-8.625l-1.245-0.554l-12.2,30.099l1.033,0.564
								c18.068,9.838,40.475,14.362,61.202,4.58l11.747,32.955l26.675-16.573l-11.748-32.962
								c21.255-19.006,34.71-52.998,24.337-80.859c-1.46-4.063-3.231-7.731-5.264-11.002
								c-12.803-20.641-35.944-25.059-59.093-18.488l-24.743-69.131c7.369-2.934,13.99-2.424,20.443-0.21
								c6.772,2.33,13.271,6.629,19.744,10.829l1.258,0.813l14.419-29.914l-0.898-0.646c-18.216-13.142-42.548-19.932-65.003-8.255
								l-11.727-32.899l-26.678,16.574l11.697,32.823C1113.552,494.674,1096.404,533.461,1108.17,566.647z M1138.576,695.988
								l-0.52-0.042l-27.91,21.954l3.543,0.17c22.875,1.078,48.547,8.214,72.574,28.206c17.513,14.585,26.308,30.354,27.43,46.534
								c1.115,16.184-5.458,32.966-19.245,49.539c-1.137,1.367-2.324,2.73-3.562,4.091l-80.601-67.077l-28.327,9.735l91.327,76.006
								c-2.919,2.369-6.682,5.717-10.87,9.1c-3.767,2.76-7.749,5.773-10.861,7.791l-99.436-82.759l-27.977,10.03l104.013,86.562
								c-37.016,21.041-83.683,25.064-122.647-7.349c-24.343-20.265-33.157-42.376-33.27-59.086l-0.017-2.679l-2.116,1.643
								l-24.776,19.266l0.082,0.733c1.706,15.167,13.085,39.094,39.151,60.802c54.105,45.058,116.926,36.92,168.762,7.617
								l16.897,14.062l27.971-10.03l-22.447-18.685c3.056-2.008,6.593-4.614,10.319-7.443c3.939-3,8.476-6.709,11.195-9.62
								l15.043,12.517l27.976-10.027l-24.663-20.529c2.093-2.284,4.085-4.562,5.977-6.836
								c19.817-23.804,28.646-46.932,26.751-68.878c-1.896-21.95-14.496-42.485-36.927-61.147
								C1184.085,707.435,1155.367,697.441,1138.576,695.988z M1019.916,668.971l-158.701,23.061l8.466,26.527l160.882-25.862
								l-83.296,112.92l28.606,15.245l78.469-113.321l32.912,36.862l24.253-13.742l-39.87-44.663l97.235-55.475l-20.098-22.511
								l-97.235,55.478l-40.139-44.964l-24.255,13.741l1.092,1.217L1019.916,668.971z"/>
						</defs>
						<clipPath id="SVGID_4_">
							<use xlink:href="#SVGID_3_"  style="overflow:visible;"/>
						</clipPath>
						<use xlink:href="#SVGID_3_"  style="overflow:visible;fill:none;stroke:#17192D;stroke-width:3;"/>
					</g>
				</g>
			</g>
			<path style="fill:none;stroke:#17192D;stroke-width:3;" d="M1242.939,481.35l-197.808-67.654
				c-8.216-2.811-17.156,1.571-19.966,9.789L879.146,840.901c-2.811,8.217,1.572,17.151,9.79,19.966l294.248,100.639
				c8.218,2.817,17.156-1.569,19.968-9.787l129.235-369.432"/>
		</g>
	</g>
	<path style="fill:none;stroke:#17192D;stroke-width:3;" d="M2048,0"/>
	<path style="fill:none;stroke:#17192D;stroke-width:3;" d="M2048,1536"/>
	<path style="fill:none;stroke:#17192D;stroke-width:3;" d="M0,1536"/>
	<path style="fill:none;stroke:#17192D;stroke-width:3;" d="M0,0"/>
</g>
<g id="Layer_1">
</g>
</svg>
