<?xml version="1.0" encoding="iso-8859-1"?>
<!-- Generator: Adobe Illustrator 13.0.0, SVG Export Plug-In . SVG Version: 6.00 Build 14948)  -->
<!DOCTYPE svg PUBLIC "-//W3C//DTD SVG 1.1//EN" "http://www.w3.org/Graphics/SVG/1.1/DTD/svg11.dtd">
<svg version="1.1" id="Ebene_1" xmlns="http://www.w3.org/2000/svg" xmlns:xlink="http://www.w3.org/1999/xlink" x="0px" y="0px"
	 width="2048px" height="1536px" viewBox="0 0 2048 1536" style="enable-background:new 0 0 2048 1536;" xml:space="preserve">
<g>
	<defs>
		<rect id="SVGID_1_" width="2048" height="1536"/>
	</defs>
	<clipPath id="SVGID_2_">
		<use xlink:href="#SVGID_1_"  style="overflow:visible;"/>
	</clipPath>
	<path style="clip-path:url(#SVGID_2_);fill:none;stroke:#17192D;stroke-width:3;" d="M1538.795,378.676
		c-19.471,11.122-36.152,25.027-54.23,34.759"/>
	<path style="clip-path:url(#SVGID_2_);fill:none;stroke:#17192D;stroke-width:3;" d="M1519.324,435.686
		c-12.514,16.684-48.661,25.029-70.91,20.854"/>
	<path style="clip-path:url(#SVGID_2_);fill:none;stroke:#17192D;stroke-width:3;" d="M1469.424,10.006
		c-31.98,25.024-48.664,68.127-72.305,101.499c-23.64,34.758-40.324,68.129-57.008,107.057
		c-25.031,58.402-37.543,120.973-54.227,182.157c-11.936,41.755-42.777,73.434-60.84,112.964
		c-7.155,15.671-17.083,28.841-25.062,44.188c-5.285,10.167-16.157,28.316-16.996,37.51"/>
	<path style="clip-path:url(#SVGID_2_);fill:none;stroke:#17192D;stroke-width:3;" d="M1525.043,353.441
		c-22.246,30.588-40.324,62.568-68.132,88.99c-23.642,20.856-55.622,36.152-77.87,59.789c-20.854,23.64-29.196,54.228-47.273,80.65
		c-18.078,27.804-37.545,55.617-58.402,79.255c-15.033,17.043-34.662,37.155-57.119,42.228"/>
	<path style="clip-path:url(#SVGID_2_);fill:none;stroke:#17192D;stroke-width:3;" d="M1310.907,580.086
		c-9.733-12.515-20.853-26.421-34.758-34.762"/>
	<path style="clip-path:url(#SVGID_2_);fill:none;stroke:#17192D;stroke-width:3;" d="M1260.853,518.905
		c2.78,1.391-9.734-4.167-11.12-4.167"/>
	<path style="clip-path:url(#SVGID_2_);fill:none;stroke:#17192D;stroke-width:3;" d="M1263.633,556.448
		c-9.729-8.341-22.247-15.292-33.369-19.464"/>
	<path style="clip-path:url(#SVGID_2_);fill:none;stroke:#17192D;stroke-width:3;" d="M1245.558,603.723
		c-5.56-2.777-9.729-5.559-13.902-8.341"/>
	<path style="clip-path:url(#SVGID_2_);fill:none;stroke:#17192D;stroke-width:3;" d="M1194.948,581.592
		c-14.569,15.428-23.999,36.856-31.285,56.574c-6.857,19.712-18.857,40.711,0.427,56.143c9.859,7.712,35.573,19.283,48.43,13.282
		c7.288-3.428,12.003-14.571,16.288-21.427c5.571-9.429,11.144-19.285,14.144-30c5.997-21.428-24.857-33.427-41.146-40.713
		c-11.998-5.142-16.283,2.997-22.713,12.425c-6.431,8.574-11.57,17.572-16.715,27.002c-2.999,4.716-5.999,9.427-8.572,14.57"/>
	<path style="clip-path:url(#SVGID_2_);fill:none;stroke:#17192D;stroke-width:3;" d="M1240.804,643.306
		c-20.569-1.714-30.853-17.57-45.854-28.286"/>
	<path style="clip-path:url(#SVGID_2_);fill:none;stroke:#17192D;stroke-width:3;" d="M1242.091,653.162
		c-11.574-1.712-21.427,1.288-32.572-4.284c-10.282-4.716-18.857-14.998-23.144-25.713"/>
	<path style="clip-path:url(#SVGID_2_);fill:none;stroke:#17192D;stroke-width:3;" d="M1217.237,704.164
		c-21.859-2.143-60.005-7.287-60.859-36.857"/>
</g>
</svg>
