<?xml version="1.0" encoding="iso-8859-1"?>
<!-- Generator: Adobe Illustrator 13.0.0, SVG Export Plug-In . SVG Version: 6.00 Build 14948)  -->
<!DOCTYPE svg PUBLIC "-//W3C//DTD SVG 1.1//EN" "http://www.w3.org/Graphics/SVG/1.1/DTD/svg11.dtd">
<svg version="1.1" id="Ebene_1" xmlns="http://www.w3.org/2000/svg" xmlns:xlink="http://www.w3.org/1999/xlink" x="0px" y="0px"
	 width="2048px" height="1536px" viewBox="0 0 2048 1536" style="enable-background:new 0 0 2048 1536;" xml:space="preserve">
<g>
	<defs>
		<rect id="SVGID_1_" width="2048" height="1536"/>
	</defs>
	<clipPath id="SVGID_2_">
		<use xlink:href="#SVGID_1_"  style="overflow:visible;"/>
	</clipPath>
	<path style="clip-path:url(#SVGID_2_);fill:none;stroke:#17192D;stroke-width:3;" d="M698.952,55.006
		c7.863,7.564,11.364,36.878,14.862,50.12c6.994,22.695,12.237,46.337,16.61,69.976c9.62,45.392,18.361,93.623,20.984,139.964
		c4.373,87.948,1.749,176.843,6.122,263.846c0.87,17.021,4.37,46.338-0.88,60.524"/>
	<path style="clip-path:url(#SVGID_2_);fill:none;stroke:#17192D;stroke-width:3;" d="M601.026,169.43
		c0.875,4.727-30.6,48.227-39.345,53.901"/>
	<path style="clip-path:url(#SVGID_2_);fill:none;stroke:#17192D;stroke-width:3;" d="M551.191,136.329
		c-8.743,93.623,1.75,181.57-50.717,263.849c-10.485,17.022-20.976,27.424-26.226,47.284c-5.242,19.862-9.613,37.827-20.108,55.796
		c-17.483,32.152-49.832,65.25-83.06,78.493"/>
	<path style="clip-path:url(#SVGID_2_);fill:none;stroke:#17192D;stroke-width:3;" d="M373.701,295.205
		c-7.871-26.481-47.212-82.278-70.822-93.627"/>
	<path style="clip-path:url(#SVGID_2_);fill:none;stroke:#17192D;stroke-width:3;" d="M378.951,502.307
		c0-33.094-15.742-71.869-25.357-102.133c-11.369-36.881-34.101-83.218-61.204-108.755"/>
	<path style="clip-path:url(#SVGID_2_);fill:none;stroke:#17192D;stroke-width:3;" d="M412.171,510.823
		c-5.242,10.403-19.235,20.801-30.599,23.64"/>
	<path style="clip-path:url(#SVGID_2_);fill:none;stroke:#17192D;stroke-width:3;" d="M414.794,534.463
		c-10.493,11.348-20.98,21.75-35.843,24.588"/>
	<path style="clip-path:url(#SVGID_2_);fill:none;stroke:#17192D;stroke-width:3;" d="M326.424,681.217
		c6.835,5.12,17.349,10.808,20.508,19.904c3.677,10.236,0.525,29.005,0,39.812c-1.58,25.59-3.159,51.752-9.996,76.776
		c-6.31,22.179-23.127,39.809-39.434,54.025c-9.463,7.391-45.74,28.438-47.841,2.844"/>
	<path style="clip-path:url(#SVGID_2_);fill:none;stroke:#17192D;stroke-width:3;" d="M314.852,678.373
		c-2.626,0.57-5.255,0-7.881-1.137"/>
	<path style="clip-path:url(#SVGID_2_);fill:none;stroke:#17192D;stroke-width:3;" d="M228.628,654.488
		c-1.05,0-6.836,1.138-9.464,1.707"/>
	<path style="clip-path:url(#SVGID_2_);fill:none;stroke:#17192D;stroke-width:3;" d="M242.298,681.788
		c-6.31-1.14-12.621-2.846-18.405,0"/>
	<path style="clip-path:url(#SVGID_2_);fill:none;stroke:#17192D;stroke-width:3;" d="M240.723,704.533
		c-2.631,1.14-5.26,1.708-7.891,2.276"/>
	<path style="clip-path:url(#SVGID_2_);fill:none;stroke:#17192D;stroke-width:3;" d="M224.949,539.608
		c1.05,26.157-7.893,52.888-7.893,79.619c0,24.453-1.576,50.044,5.26,72.792c4.211,14.787,10.516,27.87,14.197,42.085
		c3.677,13.65,6.311,32.419,10.515,42.652"/>
	<path style="clip-path:url(#SVGID_2_);fill:none;stroke:#17192D;stroke-width:3;" d="M232.312,871.164
		c23.129,3.98,26.812-7.959,29.962-31.276c2.103-15.923,9.466-60.855-13.67-63.695"/>
	<path style="clip-path:url(#SVGID_2_);fill:none;stroke:#17192D;stroke-width:3;" d="M223.894,537.903
		c1.577-12.512-6.313-29.574-9.463-41.519c-3.154-14.783-5.255-29.571-7.364-44.357c-3.676-24.454-9.986-51.183-4.201-75.069
		c4.729-18.768,7.885-38.105,12.614-56.873"/>
	<path style="clip-path:url(#SVGID_2_);fill:none;stroke:#17192D;stroke-width:3;" d="M300.136,50.525
		c-10.521,25.59-24.189,48.905-33.655,75.065c-9.987,27.297-16.827,56.301-25.238,84.733
		c-15.773,52.893-26.288,109.763-29.966,165.497c-0.526,8.531-2.107,17.059-1.056,25.024"/>
	<path style="clip-path:url(#SVGID_2_);fill:none;stroke:#17192D;stroke-width:3;" d="M738.634,532.776
		C687.635,545.859,634,549.84,582.478,561.211c-17.35,3.983-34.699,8.533-50.998,16.496c-19.46,8.528-31.55,23.316-46.273,39.238"/>
	<path style="clip-path:url(#SVGID_2_);fill:none;stroke:#17192D;stroke-width:3;" d="M711.296,424.722
		c-10.514,4.55-24.71,3.982-36.277,6.256c-15.248,3.413-29.972,6.822-44.695,11.94c-26.813,9.103-53.101,22.748-77.817,36.97
		c-15.775,8.531-29.968,17.626-43.638,29.571c-14.724,12.513-31.023,29.005-48.9,36.397"/>
	<path style="clip-path:url(#SVGID_2_);fill:none;stroke:#17192D;stroke-width:3;" d="M597.201,429.266
		c13.673-32.417,25.235-61.987,32.073-96.111"/>
	<path style="clip-path:url(#SVGID_2_);fill:none;stroke:#17192D;stroke-width:3;" d="M248.007,777.286
		c-5.296,14.983-8.958,33.493-11.813,48.923c-2.441,14.099-5.706,31.727-5.297,44.509"/>
	<path style="clip-path:url(#SVGID_2_);fill:none;stroke:#17192D;stroke-width:3;" d="M396.002,500.899
		c-4.751,2.335-9.507,10.749-12.095,15.888c-2.162,11.681-5.618,23.829-9.94,35.049c0.434,21.961-9.935,42.053-10.37,63.55
		c-0.86,23.365-0.432,42.527-9.071,64.488c-2.589,6.076-5.616,11.218-9.075,16.822c0.435-0.464,0.87-1.402,1.735-2.339"/>
</g>
</svg>
