<svg xmlns="http://www.w3.org/2000/svg" xmlns:xlink="http://www.w3.org/1999/xlink" width="2048" height="1536" viewBox="0 0 2048 1536"><defs><path id="a" d="M0 0h2048v1536H0z"/></defs><clipPath id="b"><use xlink:href="#a" overflow="visible"/></clipPath><path d="M1538.795 378.676c-19.47 11.122-36.152 25.027-54.23 34.76M1519.324 435.686c-12.514 16.684-48.66 25.03-70.91 20.854M1469.424 10.006c-31.98 25.024-48.664 68.127-72.305 101.5-23.64 34.757-40.325 68.128-57.01 107.056-25.03 58.402-37.542 120.973-54.226 182.157-11.936 41.754-42.777 73.433-60.84 112.963-7.155 15.67-17.083 28.84-25.062 44.188-5.285 10.168-16.157 28.317-16.996 37.51M1525.043 353.44c-22.246 30.59-40.324 62.57-68.132 88.99-23.64 20.857-55.62 36.153-77.87 59.79-20.853 23.64-29.195 54.228-47.272 80.65-18.078 27.804-37.545 55.617-58.402 79.255-15.033 17.043-34.662 37.155-57.12 42.228M1310.907 580.086c-9.733-12.515-20.853-26.42-34.758-34.762M1260.853 518.905c2.78 1.39-9.734-4.167-11.12-4.167M1263.633 556.448c-9.73-8.34-22.247-15.292-33.37-19.464M1245.558 603.723c-5.56-2.777-9.73-5.56-13.902-8.34M1194.948 581.592c-14.57 15.428-24 36.856-31.285 56.574-6.857 19.712-18.857 40.71.427 56.143 9.86 7.71 35.573 19.282 48.43 13.28 7.288-3.427 12.003-14.57 16.288-21.426 5.57-9.43 11.144-19.285 14.144-30 5.997-21.428-24.857-33.427-41.146-40.713-11.998-5.14-16.283 2.998-22.713 12.426-6.43 8.574-11.57 17.572-16.715 27.002-3 4.716-6 9.427-8.572 14.57M1240.804 643.306c-20.57-1.714-30.853-17.57-45.854-28.286M1242.09 653.162c-11.573-1.712-21.426 1.288-32.57-4.284-10.283-4.716-18.858-14.998-23.145-25.713M1217.237 704.164c-21.86-2.143-60.005-7.287-60.86-36.857" clip-path="url(#b)" fill="none" stroke="#17192D" stroke-width="3"/></svg>