<?xml version="1.0" encoding="iso-8859-1"?>
<!-- Generator: Adobe Illustrator 13.0.0, SVG Export Plug-In . SVG Version: 6.00 Build 14948)  -->
<!DOCTYPE svg PUBLIC "-//W3C//DTD SVG 1.1//EN" "http://www.w3.org/Graphics/SVG/1.1/DTD/svg11.dtd">
<svg version="1.1" id="Ebene_1" xmlns="http://www.w3.org/2000/svg" xmlns:xlink="http://www.w3.org/1999/xlink" x="0px" y="0px"
	 width="2048px" height="1536px" viewBox="0 0 2048 1536" style="enable-background:new 0 0 2048 1536;" xml:space="preserve">
<g>
	<defs>
		<rect id="SVGID_1_" width="2048" height="1536"/>
	</defs>
	<clipPath id="SVGID_2_">
		<use xlink:href="#SVGID_1_"  style="overflow:visible;"/>
	</clipPath>
	<path style="clip-path:url(#SVGID_2_);fill:none;stroke:#FF0050;stroke-width:3;" d="M488.854,892.309
		c-6.31-19.906-14.196-35.261-25.238-52.32"/>
	<path style="clip-path:url(#SVGID_2_);fill:none;stroke:#FF0050;stroke-width:3;" d="M674.458,837.711
		c-35.757,14.218-80.972,11.375-113.57-9.1"/>
	<path style="clip-path:url(#SVGID_2_);fill:none;stroke:#FF0050;stroke-width:3;" d="M559.837,829.75
		c-10.521-1.706-24.712,5.688-35.231,7.961c-14.724,2.842-27.339,1.705-41.537-1.705c-10.617-2.977-30.26-11.061-30.26-11.061
		s-8.887,5.438-12.202,6.441c-14.193,3.416-21.683,5.757-35.881,6.324c-8.939,0.57-20.503-1.135-27.341-0.567"/>
	<path style="clip-path:url(#SVGID_2_);fill:none;stroke:#FF0050;stroke-width:3;" d="M765.418,927.57
		c-32.599-17.061-77.818-48.339-86.759-88.717"/>
	<path style="clip-path:url(#SVGID_2_);fill:none;stroke:#FF0050;stroke-width:3;" d="M656.056,880.937
		c-4.21,3.981-8.945,14.219-11.046,20.472"/>
	<path style="clip-path:url(#SVGID_2_);fill:none;stroke:#FF0050;stroke-width:3;" d="M737.552,927.002
		c-7.361-5.687-13.148-10.806-17.88-19.336"/>
	<path style="clip-path:url(#SVGID_2_);fill:none;stroke:#FF0050;stroke-width:3;" d="M697.591,738.754
		c-16.297-0.569-32.07,1.136-46.271-8.53"/>
	<path style="clip-path:url(#SVGID_2_);fill:none;stroke:#FF0050;stroke-width:3;" d="M673.407,724.54
		c-6.837,0-13.673-2.277-19.983-5.12"/>
	<path style="clip-path:url(#SVGID_2_);fill:none;stroke:#FF0050;stroke-width:3;" d="M556.153,710.888
		c-3.679-2.843-8.94-6.823-12.09-8.53"/>
	<path style="clip-path:url(#SVGID_2_);fill:none;stroke:#FF0050;stroke-width:3;" d="M478.34,687
		c-26.818,3.408-49.43-3.415-74.66-13.084"/>
	<path style="clip-path:url(#SVGID_2_);fill:none;stroke:#FF0050;stroke-width:3;" d="M495.69,694.389
		c1.577,38.676-11.046,89.291-33.125,119.433"/>
	<path style="clip-path:url(#SVGID_2_);fill:none;stroke:#FF0050;stroke-width:3;" d="M608.208,721.121
		c-3.684,31.847-14.198,85.309-41.537,104.643"/>
	<path style="clip-path:url(#SVGID_2_);fill:none;stroke:#FF0050;stroke-width:3;" d="M712.317,739.889
		c-5.789,35.259-8.416,65.972-28.924,95.542"/>
	<path style="clip-path:url(#SVGID_2_);fill:none;stroke:#FF0050;stroke-width:3;" d="M771.067,927.145
		c6.833-17.053,9.987-34.126,8.936-52.321c-0.524-9.667-4.733-21.609-3.677-30.139c4.697-10.713,15.242-17.064,17.876-30.71"/>
	<path style="clip-path:url(#SVGID_2_);fill:none;stroke:#FF0050;stroke-width:3;" d="M770.675,829.75
		c-7.885-0.57-13.669-4.552-20.506-7.961"/>
	<path style="clip-path:url(#SVGID_2_);fill:none;stroke:#FF0050;stroke-width:3;" d="M778.563,813.26
		c-13.672-2.276-25.763-0.57-39.436-2.276"/>
	<path style="clip-path:url(#SVGID_2_);fill:none;stroke:#FF0050;stroke-width:3;" d="M726.514,804.725
		c-0.532,0-1.057,0-1.057-0.567"/>
	<path style="clip-path:url(#SVGID_2_);fill:none;stroke:#FF0050;stroke-width:3;" d="M713.891,732.501
		c19.452-9.102,35.229-35.831,44.167-55.736"/>
	<path style="clip-path:url(#SVGID_2_);fill:none;stroke:#FF0050;stroke-width:3;" d="M612.94,710.315
		c15.772-14.786,35.229-24.455,51.525-38.102c13.144-10.808,35.228-29.575,41.012-47.204c15.251-1.709,31.024-11.375,44.692-19.336
		c25.763-15.354,45.218-28.438,46.796-62.56"/>
	<path style="clip-path:url(#SVGID_2_);fill:none;stroke:#FF0050;stroke-width:3;" d="M499.894,683.589
		c28.396,1.137,52.581-29.574,67.299-51.755c7.894-12.513,14.723-25.593,25.244-32.417c14.191-9.67,27.336-16.491,39.429-29.573
		c9.994-11.371,17.349-23.886,22.609-38.102"/>
	<path style="clip-path:url(#SVGID_2_);fill:none;stroke:#FF0050;stroke-width:3;" d="M577.713,598.281
		c-9.462-1.708-18.4-0.57-27.867-3.413c-9.466-2.844-17.354-9.102-26.293-13.084"/>
	<path style="clip-path:url(#SVGID_2_);fill:none;stroke:#FF0050;stroke-width:3;" d="M678.136,619.321
		c-19.981-3.411-44.69-1.136-62.04-17.63"/>
	<path style="clip-path:url(#SVGID_2_);fill:none;stroke:#FF0050;stroke-width:3;" d="M348.466,735.339
		c1.056-25.592,8.418-60.853,19.455-83.028c15.249-30.146,44.164-40.95,65.727-63.129c14.196-14.787,29.441-31.281,45.742-41.517"/>
	<path style="clip-path:url(#SVGID_2_);fill:none;stroke:#FF0050;stroke-width:3;" d="M727.033,642.077
		c4.207,9.102,17.882,11.374,26.293,13.65"/>
	<path style="clip-path:url(#SVGID_2_);fill:none;stroke:#FF0050;stroke-width:3;" d="M596.639,836.012
		c-1.575-2.273-2.629-5.118-3.159-7.395"/>
	<path style="clip-path:url(#SVGID_2_);fill:none;stroke:#FF0050;stroke-width:3;" d="M758.571,675.757
		c1.709-5.547,5.13-9.241,6.84-14.794c17.309-1.383,31.699-12.825,48.469-23.909"/>
	<path style="clip-path:url(#SVGID_2_);fill:none;stroke:#FF0050;stroke-width:3;" d="M794.466,816.286
		c19.155-30.387,33.9-68.387,40.542-99.82c1.099-1.185,2.257-2.502,3.455-3.923"/>
	<path style="clip-path:url(#SVGID_2_);fill:none;stroke:#FF0050;stroke-width:3;" d="M818.399,714.586
		c-8.548,0-27.351-5.545-39.316-12.942"/>
	<path style="clip-path:url(#SVGID_2_);fill:none;stroke:#FF0050;stroke-width:3;" d="M654.794,527.847
		c6.938-11.103-0.923-26.828-6.476-36.081c-8.325-3.238-20.815-7.862-30.066-7.862c-10.173,0-22.666,6.937-31.917,10.639
		c-27.29,10.637-54.585,14.801-79.099,31.917c-8.328,5.549-18.966,12.026-24.052,20.816"/>
	<path style="clip-path:url(#SVGID_2_);fill:none;stroke:#FF0050;stroke-width:3;" d="M651.094,538.949
		c9.837-13.291,32.339-14.282,47.089-16.188c20.981-2.711,40.71-8.792,62.078-8.792c9.234,0.003,19.341,0.74,27.292,5.45
		c2.976,1.759,6.433,3.465,8.788,6.105c3.696,4.14,2.316,10.714,2.316,16.2"/>
	<path style="clip-path:url(#SVGID_2_);fill:none;stroke:#FF0050;stroke-width:3;" d="M861.302,539.828
		c-3.865-7.368-14.949-8.849-24.717-10.591c-13.876-2.316-23.592,3.236-36.544,6.937"/>
	<path style="clip-path:url(#SVGID_2_);fill:none;stroke:#FF0050;stroke-width:3;" d="M816.416,636.481
		c16.157-7.343,37.212-27.906,44.556-44.065c6.854-13.707,16.157-40.638,0.488-50.921"/>
	<path style="clip-path:url(#SVGID_2_);fill:none;stroke:#FF0050;stroke-width:3;" d="M841.463,709.511
		c16.687-16.688,37.308-42.44,47.59-62.022c10.77-20.567,26.341-45.693,6.757-67.237c-7.344-8.325-17.138-9.791-25.951-13.708"/>
</g>
</svg>
