<svg xmlns="http://www.w3.org/2000/svg" xmlns:xlink="http://www.w3.org/1999/xlink" width="2048" height="1536" viewBox="0 0 2048 1536"><defs><path id="a" d="M0 0h2048v1536H0z"/></defs><clipPath id="b"><use xlink:href="#a" overflow="visible"/></clipPath><path d="M1469.273 1525.788c-31.98-25.024-48.665-68.13-72.307-101.502-23.64-34.763-40.323-68.135-57.01-107.066-25.026-58.4-37.54-120.973-54.227-182.154-11.935-41.757-42.775-73.438-60.833-112.966-7.165-15.67-17.086-28.84-25.067-44.188-5.286-10.165-16.16-28.314-16.997-37.51M1524.892 1182.343c-22.25-30.588-40.327-62.57-68.132-88.99-23.64-20.855-55.622-36.152-77.87-59.79-20.854-23.638-29.2-54.227-47.276-80.647-18.078-27.806-37.542-55.616-58.396-79.256-15.04-17.043-34.662-37.15-57.123-42.23M1310.756 955.698c-9.732 12.516-20.854 26.42-34.76 34.762M1260.703 1016.878c2.777-1.39-9.734 4.17-11.124 4.17M1263.48 979.336c-9.732 8.343-22.246 15.293-33.37 19.465M1245.403 932.06c-5.562 2.777-9.73 5.563-13.9 8.343M1538.795 1157.316c-19.465-11.127-36.152-25.028-54.23-34.76M1194.79 954.19c-14.568-15.425-23.993-36.855-31.276-56.57-6.858-19.714-18.86-40.712.424-56.142 9.858-7.716 35.574-19.283 48.43-13.285 7.287 3.43 11.998 14.57 16.287 21.43 5.568 9.426 11.143 19.282 14.14 29.997 6 21.43-24.854 33.427-41.142 40.712-11.998 5.143-16.282-2.996-22.713-12.425-6.43-8.57-11.57-17.57-16.716-27.003-3-4.712-5.995-9.428-8.572-14.568M1240.655 892.478c-20.574 1.714-30.86 17.57-45.864 28.286M1241.938 882.622c-11.57 1.712-21.426-1.288-32.57 4.285-10.285 4.715-18.858 15-23.143 25.714M1217.083 831.622c-21.858 2.14-60 7.285-60.854 36.854" clip-path="url(#b)" fill="none" stroke="#FF0050" stroke-width="3"/><path d="M1260.732 1015.317c-1.637.245-3.454 1.398-4.97 2.022-1.245.51-2.492 1.013-3.755 1.493-.658.25-2.176.808-2.43.83-1.772.126-1.785 2.898 0 2.77 2.09-.147 4.244-1.335 6.15-2.104 1.512-.615 3.263-1.65 4.923-2.122.24.02.487-.002.75-.136.35-.175.697-.354.9-.72.627-1.153-.397-2.21-1.568-2.035zM1232.202 941.6c4.51-3.005 9.063-5.888 13.902-8.343 1.596-.81.193-3.2-1.4-2.393-4.84 2.454-9.392 5.332-13.904 8.34-1.48.987-.092 3.394 1.402 2.397zM1230.48 1000.14c12.34-4.776 23.814-11.335 33.98-19.823 1.378-1.146-.6-3.1-1.96-1.962-3.134 2.618-6.417 5.027-9.807 7.276l-11.446 6.673c-3.74 1.907-7.578 3.643-11.503 5.16-1.65.64-.934 3.32.736 2.676zM1469.424 1525.994c-31.98-25.026-48.664-68.13-72.305-101.502-23.64-34.762-40.323-68.138-57.01-107.064-25.028-58.404-37.542-120.976-54.228-182.158-11.93-41.755-42.774-73.432-60.832-112.964-7.163-15.67-17.088-28.84-25.067-44.188-5.285-10.167-16.157-28.314-16.994-37.51M1525.043 1182.55c-22.246-30.59-40.324-62.57-68.132-88.99-23.64-20.855-55.62-36.15-77.866-59.792-20.854-23.64-29.202-54.227-47.276-80.646-18.075-27.807-37.54-55.618-58.4-79.26-15.035-17.038-34.662-37.15-57.12-42.225M1310.91 955.9c-9.732 12.518-20.854 26.422-34.76 34.766M1260.853 1017.083c2.78-1.388-9.734 4.172-11.12 4.172M1263.633 979.54c-9.73 8.344-22.245 15.295-33.37 19.467M1245.558 932.27c-5.562 2.774-9.73 5.56-13.9 8.34M1194.948 954.398c-14.57-15.428-24-36.857-31.285-56.574-6.857-19.713-18.854-40.71.43-56.14 9.856-7.717 35.572-19.285 48.427-13.286 7.288 3.428 12.003 14.57 16.283 21.43 5.574 9.426 11.146 19.284 14.148 29.998 5.998 21.43-24.86 33.424-41.143 40.714-12 5.143-16.286-3-22.72-12.428-6.423-8.57-11.566-17.572-16.706-27-3-4.715-6.003-9.428-8.576-14.57M1240.806 892.683c-20.57 1.714-30.854 17.575-45.857 28.286M1242.09 882.828c-11.57 1.714-21.426-1.288-32.57 4.284-10.285 4.715-18.854 15-23.142 25.714M1217.237 831.826c-21.86 2.142-60.005 7.283-60.86 36.856" clip-path="url(#b)" fill="none" stroke="#FF0050" stroke-width="3"/></svg>