<svg xmlns="http://www.w3.org/2000/svg" xmlns:xlink="http://www.w3.org/1999/xlink" width="2048" height="1536" viewBox="0 0 2048 1536"><defs><path id="a" d="M0 0h2048v1536H0z"/></defs><clipPath id="b"><use xlink:href="#a" overflow="visible"/></clipPath><path d="M768.638 1070.39c.42-28.616 1.102-57.13 2.526-85.445.872-17.02 4.372-46.336-.877-60.523M712.586 1508.86c7.866-7.567 11.364-36.884 14.864-50.124 6.99-22.696 12.238-46.34 16.605-69.982 9.625-45.39 18.368-93.626 20.988-139.963 1.013-20.377 1.652-40.806 2.085-61.253M614.66 1394.43c.88-4.727-30.6-48.23-39.343-53.906M449.543 1033.38c-17.748-22.174-41.065-41.802-64.828-51.274M545.85 1236.58c-6.63-24.776-16.542-49.076-31.737-72.9-7.866-12.765-15.737-21.81-21.395-33.912M564.825 1427.53c-4.24-45.43-3.955-89.52-8.528-132.278M387.337 1268.652c-7.87 26.48-47.214 82.278-70.822 93.625M392.587 1061.546c0 33.1-15.743 71.874-25.355 102.136-11.373 36.88-34.1 83.22-61.207 108.754M425.808 1053.035c-5.245-10.403-19.238-20.803-30.602-23.64M428.428 1029.395c-10.49-11.35-20.98-21.75-35.84-24.588M340.058 882.64c6.836-5.12 17.35-10.806 20.508-19.906 3.677-10.235.525-29.002 0-39.81-1.58-25.59-3.16-51.753-9.992-76.777-6.312-22.18-23.13-39.806-39.435-54.026-9.465-7.392-45.742-28.436-47.842-2.844M328.49 885.482c-2.628-.567-5.257 0-7.885 1.14M242.262 909.37c-1.05 0-6.835-1.137-9.464-1.71M255.934 882.07c-6.31 1.14-12.623 2.845-18.407 0M254.36 859.323c-2.634-1.14-5.26-1.708-7.895-2.275M238.585 1024.25c1.05-26.16-7.894-52.888-7.894-79.622 0-24.452-1.577-50.044 5.26-72.79 4.21-14.787 10.515-27.868 14.197-42.084 3.68-13.652 6.313-32.417 10.516-42.654M245.948 692.692c23.13-3.98 26.81 7.958 29.964 31.275 2.104 15.93 9.463 60.856-13.672 63.7M237.527 1025.955c1.576 12.51-6.31 29.57-9.463 41.516-3.15 14.786-5.253 29.575-7.362 44.36-3.676 24.454-9.988 51.182-4.2 75.068 4.726 18.766 7.884 38.107 12.61 56.873M313.77 1513.34c-10.52-25.59-24.187-48.907-33.653-75.07-9.99-27.297-16.825-56.3-25.237-84.734-15.777-52.893-26.29-109.764-29.966-165.498-.527-8.53-2.11-17.062-1.057-25.025M626.924 1008.656c-10.33-1.798-20.61-3.76-30.81-6.014-17.352-3.98-34.7-8.53-51-16.492-15.156-6.643-25.838-17.08-36.78-28.896M752.27 1031.082c-16.71-4.287-33.704-7.595-50.81-10.51M615.71 1109.73c-10.372-4.66-20.61-9.812-30.642-15.203M261.644 786.568c-5.3-14.982-8.96-33.492-11.814-48.92-2.443-14.103-5.704-31.728-5.298-44.51M409.64 1062.957c-4.75-2.33-9.51-10.745-12.098-15.885-2.16-11.683-5.614-23.834-9.94-35.05.434-21.96-9.933-42.056-10.365-63.552-.863-23.367-.436-42.524-9.074-64.488-2.592-6.073-5.62-11.215-9.075-16.82.435.464.867 1.402 1.735 2.336" clip-path="url(#b)" fill="none" stroke="#FF0050" stroke-width="3"/></svg>