<?xml version="1.0" encoding="iso-8859-1"?>
<!-- Generator: Adobe Illustrator 15.1.0, SVG Export Plug-In . SVG Version: 6.00 Build 0)  -->
<!DOCTYPE svg PUBLIC "-//W3C//DTD SVG 1.1//EN" "http://www.w3.org/Graphics/SVG/1.1/DTD/svg11.dtd">
<svg version="1.1" xmlns="http://www.w3.org/2000/svg" xmlns:xlink="http://www.w3.org/1999/xlink" x="0px" y="0px" width="2048px"
	 height="1536px" viewBox="0 0 2048 1536" style="enable-background:new 0 0 2048 1536;" xml:space="preserve">
<g id="b2b_x5F_money">
	<g>
		<defs>
			<path id="SVGID_1_" d="M537.616,1243.24c1.59,1.587,3.259,2.923,4.978,4.034c9.594,6.178,20.968,5.396,30.696-1.192
				l-47.116-46.984C521.854,1214.172,527.539,1233.166,537.616,1243.24z"/>
		</defs>
		<defs>
			<path id="SVGID_2_" d="M672.115,1244.361c-1.649-1.615-3.361-2.979-5.116-4.113c-13.391-8.664-29.796-3.982-41.05,8.057
				l53.338,52.924C688.753,1283.363,686.935,1259.197,672.115,1244.361z"/>
		</defs>
		<defs>
			<path id="SVGID_3_" d="M703.518,1325.077l28.676,28.762l-19.856,30.755l-28.745-28.825
				c-17.846,23.487-46.868,28.449-72.61,23.674l-1.269-0.234l0.295-38.703l1.732,0.231c8.912,1.203,17.901,2.495,26.199,1.577
				c7.904-0.879,15.132-3.644,21.436-10.402l-60.507-60.525c-21.119,18.452-47.707,25.324-71.478,9.949
				c-3.773-2.433-7.464-5.418-11.027-8.973c-24.809-24.191-27.559-66.714-14.629-97.329l-28.797-28.886l19.855-30.748l28.794,28.876
				c16.971-20.632,42.831-27.025,66.771-25.658l1.371,0.08l2.135,37.796l-1.588,0.035c-14.389,0.343-23.914,1.388-30.707,3.396
				c-6.22,1.85-10.166,4.422-13.793,8.172l54.569,54.379c10.874-11.899,23.638-20.81,37.242-24.662
				c14.054-3.989,29.026-2.463,43.259,6.746c4.06,2.62,8.062,5.864,11.985,9.77C721.759,1243.441,723.01,1292.854,703.518,1325.077z
				"/>
		</defs>
		<defs>
			<path id="SVGID_4_" d="M502.595,1093.448c-32.935-8.493-56.44-23.856-69.371-46.043c-12.928-22.184-15.144-50.955-6.116-85.907
				c0.861-3.338,1.823-6.733,2.891-10.182l-36.216-9.348l24.488-24.499l22.085,5.701c1.417-4.428,4.351-10.594,7.008-15.718
				c2.516-4.837,4.944-9.349,7.167-12.985l-32.964-8.508l24.483-24.501l24.81,6.401c40.028-56.697,102.173-96.562,181.632-76.028
				c38.279,9.894,62.185,29.438,71.539,44.569l0.452,0.733l-16.515,32.641l-1.408,2.786l-1.352-2.812
				c-8.443-17.555-28.743-36.464-64.487-45.691c-57.206-14.75-104.383,12.731-132.905,53.339l152.719,39.414l-24.485,24.501
				l-146.001-37.678c-2.277,3.676-4.972,8.833-7.569,13.616c-2.727,5.651-5.025,11.052-6.918,15.004l134.095,34.604l-25.002,24.368
				l-118.346-30.539c-0.625,2.051-1.2,4.081-1.717,6.087c-6.273,24.332-4.842,45.29,4.395,61.788
				c9.241,16.492,26.364,28.729,52.08,35.375c35.28,9.101,65.887,3.832,90.531-6.422l3.815-1.589l-18.476,37.037l-0.572,0.212
				C577.951,1100.009,542.712,1103.782,502.595,1093.448z"/>
		</defs>
		<defs>
			<polygon id="SVGID_5_" points="785.929,1084.16 787.683,1084.903 768.969,1111.463 704.272,1084.073 629.44,1190.965 
				597.052,1177.252 671.885,1070.36 607.625,1043.158 626.34,1016.596 679.38,1039.048 705.629,880.548 743.366,882.366 
				711.833,1042.847 868.486,935.461 890.619,959.197 734.87,1062.544 			"/>
		</defs>
		<clipPath id="SVGID_6_">
			<use xlink:href="#SVGID_1_"  style="overflow:visible;"/>
		</clipPath>
		<clipPath id="SVGID_7_" style="clip-path:url(#SVGID_6_);">
			<use xlink:href="#SVGID_2_"  style="overflow:visible;"/>
		</clipPath>
		<clipPath id="SVGID_8_" style="clip-path:url(#SVGID_7_);">
			<use xlink:href="#SVGID_3_"  style="overflow:visible;"/>
		</clipPath>
		<clipPath id="SVGID_9_" style="clip-path:url(#SVGID_8_);">
			<use xlink:href="#SVGID_4_"  style="overflow:visible;"/>
		</clipPath>
		<clipPath id="SVGID_10_" style="clip-path:url(#SVGID_9_);">
			<use xlink:href="#SVGID_5_"  style="overflow:visible;"/>
		</clipPath>
		<use xlink:href="#SVGID_1_"  style="overflow:visible;fill:none;stroke:#FF0050;stroke-width:3;"/>
		<use xlink:href="#SVGID_2_"  style="overflow:visible;fill:none;stroke:#FF0050;stroke-width:3;"/>
		<use xlink:href="#SVGID_3_"  style="overflow:visible;fill:none;stroke:#FF0050;stroke-width:3;"/>
		<use xlink:href="#SVGID_4_"  style="overflow:visible;fill:none;stroke:#FF0050;stroke-width:3;"/>
		<use xlink:href="#SVGID_5_"  style="overflow:visible;fill:none;stroke:#FF0050;stroke-width:3;"/>
	</g>
	<path style="fill:none;stroke:#17192D;stroke-width:3;" d="M2048,0"/>
	<path style="fill:none;stroke:#17192D;stroke-width:3;" d="M2048,1536"/>
	<path style="fill:none;stroke:#17192D;stroke-width:3;" d="M0,1536"/>
	<path style="fill:none;stroke:#17192D;stroke-width:3;" d="M0,0"/>
</g>
<g id="Layer_1">
</g>
</svg>
