<svg xmlns="http://www.w3.org/2000/svg" width="2048" height="1536" viewBox="0 0 2048 1536"><g fill="none" stroke-width="3"><g stroke="#FF0050"><path d="M1165.25 457.833c-.503.11-1 .208-1.504.347M1421.42 1067.415L1220.373 504.63c-6.804-19.036-30.824-52.01-55.124-46.797M1030.638 1232.805c2.584.66 5.134 1.273 7.546 1.874-2.413-.602-4.962-1.216-7.546-1.875.03.04.054.078.078.122 12.938 17.877 47.265 30.062 68.124 22.604l199.76-71.355M1335.666 1146.494M812.583 635.344l39.384 117.49 77.245 208.464 49.798 143.928 3.118 11.958 37.227 96.44c8.027 28.987 35.557 33.167 61.48 23.903l94.412-30.95 117.738-44.406M1406.192 1056.813l-55.39-158.55-66.04-173.22-52.307-159.38-30.09-79.04c-8.023-22.466-35.553-35.94-61.478-26.676l-233.7 83.486-65.023 26.005c-25.927 9.263-47.04 28.387-32.415 57.446l2.832 8.46M930.743 564.214"/><path d="M1213.808 1169.54c-18.808 0-34.05-15.245-34.05-34.05 0-18.81 15.242-34.055 34.05-34.055 18.803 0 34.052 15.245 34.052 34.054 0 18.805-15.25 34.05-34.052 34.05zM1210.99 1150.122c-2.38.863-5.005-.37-5.865-2.744l-5.515-15.225c-.86-2.377.37-5.003 2.747-5.866l15.508-5.62c2.377-.86 5.004.365 5.865 2.743l5.514 15.223c.862 2.378-.37 5.008-2.745 5.868l-15.51 5.622zM975.228 581.86c-1.143-3.223.542-6.76 3.764-7.905l64.19-22.753c3.22-1.144 6.76.543 7.904 3.764 1.144 3.23-.55 6.765-3.772 7.908l-64.182 22.75c-3.224 1.143-6.766-.54-7.904-3.765zM957.915 597.444c-4.886 0-8.846-3.96-8.846-8.845 0-4.882 3.96-8.844 8.845-8.844 4.886 0 8.846 3.962 8.846 8.843 0 4.884-3.96 8.844-8.845 8.844zM957.915 593.023c-2.443 0-4.427-1.983-4.427-4.424 0-2.44 1.984-4.422 4.427-4.422s4.42 1.98 4.42 4.42c0 2.442-1.977 4.425-4.42 4.425zM1251.77 1068.626l-232.925 83.033-36.766-110.92-50.9-135s-19.383-62.146-19.38-62.146L847.637 671.39l62.58-19.534s128.3-49.742 214.315-81.228c43.373-15.877 75.993-25.04 75.993-25.04L1228.757 617l78.86 236.78 64.12 172.08M1154.07 856.65M1222.006 833.13M1154.07 856.65l-182.21 63.094c-8.21 2.84-17.163-1.507-20.006-9.714l-22.377-64.63c-2.843-8.206 1.505-17.162 9.712-20l292.64-101.333c8.206-2.84 17.16 1.508 19.998 9.713l22.382 64.632c2.84 8.207-1.507 17.16-9.71 20.004l-42.494 14.713"/><path d="M1032.902 835.486c-2.303-1.03-5.044-1.288-7.677-.35-1.976.707-4.377 2.866-3.92 5.297.48 2.553 3.573 2.5 5.56 2.47l2.906-.11c6.1-.264 11.12 1.22 12.45 8.29.822 4.347.675 9.163-2.06 13.294-2.688 4.055-6.792 6.82-10.96 8.31-5.212 1.864-10.662 1.83-15.477.212l2.882-10.806c3.158 1.532 6.723 2.424 10.396 1.11 2.526-.9 4.962-3.196 4.383-6.267-.6-3.188-5.03-2.777-7.467-2.652-7.13.385-11.923.115-13.517-8.343-1.673-8.866 3.215-16.8 11.497-19.76 4.167-1.49 9.53-1.922 13.622-1.033l-2.618 10.336zM1071.31 827.76l-3.178-16.865 10.75-3.844 8.238 43.698-10.753 3.844-3.375-17.908-15.522 5.547 3.374 17.91-10.747 3.842-8.238-43.696 10.752-3.842 3.176 16.864 15.522-5.55zM1103.234 836.887l-1.42 8.61-11.408 4.076 7.67-49.38 11.737-4.197 23.813 38.13-11.465 4.097-4.116-6.63-14.81 5.294zm3.254-25.288l-.11.037-1.817 15.498 8.94-3.197-7.012-12.34zM1171.36 820.64l-13.385 4.784-13.316-13.18-.108.04 3.167 16.806-10.75 3.84-8.237-43.693 16.07-5.746c8.173-2.917 15.146-1.02 16.904 8.31 1.137 6.026-1.062 12.38-6.723 15.58l16.375 13.26zm-28.188-15.658l1.046-.375c3.51-1.254 7.327-3.36 6.432-8.113s-4.977-4.034-8.487-2.78l-1.04.372 2.05 10.896zM1178.59 781.684l1.375 7.303 12.124-4.332 1.81 9.62-12.12 4.33 1.418 7.536 12.78-4.568 1.815 9.62-23.532 8.413-8.236-43.7 23.533-8.408 1.81 9.62-12.777 4.567z"/></g><path d="M2048 0M2048 1536M0 1536M0 0" stroke="#17192D"/></g></svg>