<svg xmlns="http://www.w3.org/2000/svg" xmlns:xlink="http://www.w3.org/1999/xlink" width="2048" height="1536" viewBox="0 0 2048 1536"><g><defs><path id="a" d="M537.616 1243.24c1.59 1.587 3.26 2.923 4.978 4.034 9.594 6.178 20.968 5.396 30.696-1.192l-47.116-46.984c-4.32 15.074 1.365 34.068 11.442 44.142z"/></defs><defs><path id="c" d="M672.115 1244.36c-1.65-1.614-3.36-2.978-5.116-4.112-13.392-8.664-29.797-3.982-41.05 8.057l53.337 52.924c9.466-17.867 7.648-42.033-7.172-56.87z"/></defs><defs><path id="e" d="M703.518 1325.077l28.676 28.762-19.856 30.754-28.745-28.825c-17.846 23.486-46.868 28.448-72.61 23.673l-1.27-.234.296-38.704 1.73.23c8.913 1.204 17.902 2.496 26.2 1.578 7.904-.88 15.132-3.644 21.436-10.402l-60.507-60.525c-21.12 18.452-47.708 25.324-71.48 9.95-3.772-2.434-7.463-5.42-11.026-8.974-24.81-24.19-27.56-66.714-14.63-97.33l-28.796-28.885 19.855-30.748 28.794 28.876c16.97-20.632 42.83-27.025 66.77-25.658l1.372.08 2.134 37.796-1.588.035c-14.39.342-23.914 1.387-30.707 3.395-6.22 1.85-10.167 4.422-13.794 8.172l54.57 54.38c10.873-11.9 23.637-20.81 37.24-24.663 14.055-3.99 29.027-2.463 43.26 6.746 4.06 2.62 8.062 5.864 11.985 9.77 28.93 29.11 30.18 78.524 10.688 110.747z"/></defs><defs><path id="g" d="M502.595 1093.448c-32.935-8.493-56.44-23.856-69.37-46.043-12.93-22.184-15.145-50.955-6.117-85.907.86-3.338 1.823-6.733 2.89-10.182l-36.215-9.348 24.488-24.5 22.086 5.702c1.417-4.428 4.35-10.594 7.008-15.718 2.516-4.837 4.944-9.35 7.167-12.985l-32.963-8.508 24.483-24.502 24.81 6.4c40.028-56.696 102.173-96.56 181.632-76.027 38.28 9.895 62.185 29.44 71.54 44.57l.45.733-16.514 32.64-1.408 2.787-1.352-2.812c-8.443-17.555-28.743-36.464-64.487-45.69-57.205-14.75-104.382 12.73-132.904 53.338l152.72 39.414-24.486 24.5-146-37.677c-2.278 3.676-4.973 8.833-7.57 13.616-2.727 5.65-5.025 11.05-6.918 15.003l134.095 34.604-25.002 24.368-118.346-30.54c-.626 2.052-1.2 4.082-1.718 6.088-6.273 24.332-4.842 45.29 4.395 61.788 9.24 16.493 26.364 28.73 52.08 35.376 35.28 9.1 65.887 3.832 90.53-6.422l3.816-1.59-18.476 37.038-.572.212c-18.414 6.835-53.653 10.608-93.77.274z"/></defs><defs><path id="i" d="M785.93 1084.16l1.753.743-18.714 26.56-64.698-27.39-74.832 106.892-32.388-13.713 74.833-106.892-64.26-27.202 18.715-26.562 53.04 22.452 26.25-158.5 37.736 1.818-31.533 160.48 156.653-107.385 22.133 23.737-155.75 103.347z"/></defs><clipPath id="b"><use xlink:href="#a" overflow="visible"/></clipPath><clipPath id="d" clip-path="url(#b)"><use xlink:href="#c" overflow="visible"/></clipPath><clipPath id="f" clip-path="url(#d)"><use xlink:href="#e" overflow="visible"/></clipPath><clipPath id="h" clip-path="url(#f)"><use xlink:href="#g" overflow="visible"/></clipPath><clipPath clip-path="url(#h)"><use xlink:href="#i" overflow="visible"/></clipPath><use xlink:href="#a" overflow="visible" fill="none" stroke="#FF0050" stroke-width="3"/><use xlink:href="#c" overflow="visible" fill="none" stroke="#FF0050" stroke-width="3"/><use xlink:href="#e" overflow="visible" fill="none" stroke="#FF0050" stroke-width="3"/><use xlink:href="#g" overflow="visible" fill="none" stroke="#FF0050" stroke-width="3"/><use xlink:href="#i" overflow="visible" fill="none" stroke="#FF0050" stroke-width="3"/><path d="M2048 0M2048 1536M0 1536M0 0" fill="none" stroke="#17192D" stroke-width="3"/></g></svg>