<svg xmlns="http://www.w3.org/2000/svg" xmlns:xlink="http://www.w3.org/1999/xlink" width="2048" height="1536" viewBox="0 0 2048 1536"><defs><path id="a" d="M0 0h2048v1536H0z"/></defs><clipPath id="b"><use xlink:href="#a" overflow="visible"/></clipPath><path d="M488.854 892.31c-6.31-19.907-14.196-35.262-25.238-52.32M674.458 837.71c-35.757 14.22-80.972 11.376-113.57-9.1M559.837 829.75c-10.52-1.706-24.712 5.688-35.23 7.96-14.725 2.843-27.34 1.706-41.538-1.704-10.618-2.977-30.26-11.06-30.26-11.06s-8.888 5.437-12.203 6.44c-14.193 3.416-21.683 5.757-35.88 6.324-8.94.57-20.504-1.135-27.342-.567M765.418 927.57c-32.6-17.06-77.818-48.34-86.76-88.717M656.056 880.937c-4.21 3.98-8.945 14.22-11.046 20.472M737.552 927.002c-7.36-5.687-13.148-10.806-17.88-19.336M697.59 738.754c-16.296-.57-32.07 1.136-46.27-8.53M673.407 724.54c-6.837 0-13.673-2.277-19.983-5.12M556.153 710.888c-3.68-2.843-8.94-6.823-12.09-8.53M478.34 687c-26.818 3.408-49.43-3.415-74.66-13.084M495.69 694.39c1.577 38.675-11.046 89.29-33.125 119.432M608.208 721.12c-3.684 31.848-14.198 85.31-41.537 104.644M712.317 739.89c-5.79 35.258-8.416 65.97-28.924 95.54M771.067 927.145c6.833-17.053 9.987-34.126 8.936-52.32-.524-9.668-4.733-21.61-3.677-30.14 4.697-10.713 15.242-17.064 17.876-30.71M770.675 829.75c-7.885-.57-13.67-4.552-20.506-7.96M778.563 813.26c-13.672-2.276-25.763-.57-39.436-2.276M726.514 804.725c-.532 0-1.057 0-1.057-.567M713.89 732.5c19.453-9.1 35.23-35.83 44.168-55.735M612.94 710.315c15.772-14.786 35.23-24.455 51.525-38.102 13.144-10.808 35.228-29.575 41.012-47.204 15.25-1.71 31.024-11.376 44.692-19.337 25.762-15.354 45.217-28.438 46.795-62.56M499.894 683.59c28.396 1.136 52.58-29.575 67.3-51.756 7.893-12.513 14.722-25.593 25.243-32.417 14.19-9.67 27.336-16.49 39.43-29.573 9.993-11.37 17.348-23.886 22.608-38.102M577.713 598.28c-9.462-1.707-18.4-.57-27.867-3.412-9.466-2.844-17.354-9.102-26.293-13.084M678.136 619.32c-19.98-3.41-44.69-1.135-62.04-17.63M348.466 735.34c1.056-25.593 8.418-60.854 19.455-83.03 15.25-30.145 44.165-40.95 65.728-63.128 14.196-14.787 29.44-31.28 45.742-41.517M727.033 642.077c4.207 9.102 17.882 11.374 26.293 13.65M596.64 836.012c-1.576-2.273-2.63-5.118-3.16-7.395M758.57 675.757c1.71-5.547 5.13-9.24 6.84-14.794 17.31-1.383 31.7-12.825 48.47-23.91M794.466 816.286c19.155-30.387 33.9-68.387 40.542-99.82 1.1-1.185 2.257-2.502 3.455-3.923M818.4 714.586c-8.55 0-27.352-5.545-39.317-12.942M654.794 527.847c6.938-11.103-.923-26.828-6.476-36.08-8.325-3.24-20.815-7.863-30.066-7.863-10.173 0-22.666 6.937-31.917 10.64-27.29 10.636-54.585 14.8-79.1 31.916-8.327 5.55-18.965 12.026-24.05 20.816M651.094 538.95c9.837-13.292 32.34-14.283 47.09-16.19 20.98-2.71 40.71-8.79 62.077-8.79 9.235.002 19.342.74 27.293 5.45 2.976 1.758 6.433 3.464 8.788 6.104 3.697 4.14 2.317 10.714 2.317 16.2M861.302 539.828c-3.865-7.368-14.95-8.85-24.717-10.59-13.876-2.317-23.592 3.235-36.544 6.936M816.416 636.48c16.157-7.342 37.212-27.905 44.556-44.064 6.854-13.707 16.157-40.638.488-50.92M841.463 709.51c16.687-16.687 37.308-42.44 47.59-62.02 10.77-20.568 26.34-45.694 6.757-67.238-7.344-8.325-17.138-9.79-25.95-13.708" clip-path="url(#b)" fill="none" stroke="#FF0050" stroke-width="3"/></svg>