<?xml version="1.0" encoding="iso-8859-1"?>
<!-- Generator: Adobe Illustrator 13.0.0, SVG Export Plug-In . SVG Version: 6.00 Build 14948)  -->
<!DOCTYPE svg PUBLIC "-//W3C//DTD SVG 1.1//EN" "http://www.w3.org/Graphics/SVG/1.1/DTD/svg11.dtd">
<svg version="1.1" id="Ebene_1" xmlns="http://www.w3.org/2000/svg" xmlns:xlink="http://www.w3.org/1999/xlink" x="0px" y="0px"
	 width="2048px" height="1536px" viewBox="0 0 2048 1536" style="enable-background:new 0 0 2048 1536;" xml:space="preserve">
<g>
	<defs>
		<rect id="SVGID_1_" width="2048" height="1536"/>
	</defs>
	<clipPath id="SVGID_2_">
		<use xlink:href="#SVGID_1_"  style="overflow:visible;"/>
	</clipPath>
	<path style="clip-path:url(#SVGID_2_);fill:none;stroke:#FF0050;stroke-width:3;" d="M768.638,1070.39
		c0.42-28.616,1.102-57.13,2.526-85.445c0.872-17.02,4.372-46.336-0.877-60.523"/>
	<path style="clip-path:url(#SVGID_2_);fill:none;stroke:#FF0050;stroke-width:3;" d="M712.586,1508.86
		c7.866-7.567,11.364-36.884,14.864-50.124c6.991-22.696,12.238-46.34,16.605-69.982c9.625-45.391,18.368-93.626,20.988-139.963
		c1.013-20.378,1.652-40.807,2.085-61.254"/>
	<path style="clip-path:url(#SVGID_2_);fill:none;stroke:#FF0050;stroke-width:3;" d="M614.66,1394.431
		c0.879-4.728-30.6-48.231-39.343-53.907"/>
	<path style="clip-path:url(#SVGID_2_);fill:none;stroke:#FF0050;stroke-width:3;" d="M449.543,1033.38
		c-17.748-22.174-41.065-41.802-64.828-51.274"/>
	<path style="clip-path:url(#SVGID_2_);fill:none;stroke:#FF0050;stroke-width:3;" d="M545.851,1236.58
		c-6.63-24.776-16.543-49.076-31.738-72.9c-7.866-12.765-15.737-21.809-21.395-33.912"/>
	<path style="clip-path:url(#SVGID_2_);fill:none;stroke:#FF0050;stroke-width:3;" d="M564.825,1427.531
		c-4.241-45.431-3.955-89.521-8.528-132.279"/>
	<path style="clip-path:url(#SVGID_2_);fill:none;stroke:#FF0050;stroke-width:3;" d="M387.337,1268.652
		c-7.871,26.479-47.214,82.278-70.822,93.625"/>
	<path style="clip-path:url(#SVGID_2_);fill:none;stroke:#FF0050;stroke-width:3;" d="M392.587,1061.546
		c0,33.099-15.743,71.874-25.355,102.136c-11.373,36.881-34.101,83.221-61.207,108.754"/>
	<path style="clip-path:url(#SVGID_2_);fill:none;stroke:#FF0050;stroke-width:3;" d="M425.808,1053.035
		c-5.245-10.403-19.238-20.803-30.602-23.641"/>
	<path style="clip-path:url(#SVGID_2_);fill:none;stroke:#FF0050;stroke-width:3;" d="M428.428,1029.395
		c-10.491-11.351-20.979-21.751-35.841-24.588"/>
	<path style="clip-path:url(#SVGID_2_);fill:none;stroke:#FF0050;stroke-width:3;" d="M340.058,882.64
		c6.836-5.119,17.349-10.806,20.508-19.906c3.677-10.235,0.525-29.002,0-39.809c-1.58-25.592-3.159-51.754-9.992-76.778
		c-6.312-22.179-23.131-39.806-39.435-54.026c-9.464-7.393-45.741-28.437-47.841-2.845"/>
	<path style="clip-path:url(#SVGID_2_);fill:none;stroke:#FF0050;stroke-width:3;" d="M328.489,885.482
		c-2.627-0.567-5.256,0-7.884,1.14"/>
	<path style="clip-path:url(#SVGID_2_);fill:none;stroke:#FF0050;stroke-width:3;" d="M242.262,909.369
		c-1.05,0-6.835-1.136-9.464-1.708"/>
	<path style="clip-path:url(#SVGID_2_);fill:none;stroke:#FF0050;stroke-width:3;" d="M255.934,882.071
		c-6.31,1.139-12.623,2.844-18.407,0"/>
	<path style="clip-path:url(#SVGID_2_);fill:none;stroke:#FF0050;stroke-width:3;" d="M254.359,859.323
		c-2.633-1.139-5.259-1.708-7.894-2.275"/>
	<path style="clip-path:url(#SVGID_2_);fill:none;stroke:#FF0050;stroke-width:3;" d="M238.585,1024.25
		c1.05-26.159-7.894-52.888-7.894-79.622c0-24.452-1.578-50.044,5.26-72.791c4.209-14.786,10.514-27.867,14.196-42.083
		c3.681-13.652,6.313-32.417,10.516-42.654"/>
	<path style="clip-path:url(#SVGID_2_);fill:none;stroke:#FF0050;stroke-width:3;" d="M245.948,692.692
		c23.129-3.981,26.811,7.958,29.964,31.275c2.104,15.929,9.463,60.856-13.672,63.7"/>
	<path style="clip-path:url(#SVGID_2_);fill:none;stroke:#FF0050;stroke-width:3;" d="M237.527,1025.955
		c1.576,12.511-6.311,29.571-9.463,41.516c-3.151,14.785-5.253,29.574-7.362,44.358c-3.676,24.455-9.988,51.183-4.201,75.069
		c4.727,18.766,7.885,38.107,12.612,56.873"/>
	<path style="clip-path:url(#SVGID_2_);fill:none;stroke:#FF0050;stroke-width:3;" d="M313.77,1513.341
		c-10.519-25.592-24.187-48.908-33.653-75.071c-9.989-27.297-16.825-56.3-25.237-84.734
		c-15.777-52.893-26.29-109.764-29.966-165.498c-0.527-8.53-2.11-17.062-1.057-25.025"/>
	<path style="clip-path:url(#SVGID_2_);fill:none;stroke:#FF0050;stroke-width:3;" d="M626.924,1008.656
		c-10.329-1.798-20.611-3.761-30.81-6.014c-17.352-3.979-34.701-8.529-51-16.492c-15.156-6.643-25.838-17.081-36.78-28.896"/>
	<path style="clip-path:url(#SVGID_2_);fill:none;stroke:#FF0050;stroke-width:3;" d="M752.269,1031.082
		c-16.71-4.287-33.703-7.595-50.808-10.511"/>
	<path style="clip-path:url(#SVGID_2_);fill:none;stroke:#FF0050;stroke-width:3;" d="M615.71,1109.731
		c-10.372-4.661-20.61-9.813-30.642-15.204"/>
	<path style="clip-path:url(#SVGID_2_);fill:none;stroke:#FF0050;stroke-width:3;" d="M261.644,786.568
		c-5.299-14.982-8.961-33.492-11.814-48.92c-2.443-14.103-5.704-31.728-5.298-44.509"/>
	<path style="clip-path:url(#SVGID_2_);fill:none;stroke:#FF0050;stroke-width:3;" d="M409.639,1062.957
		c-4.75-2.331-9.508-10.745-12.097-15.885c-2.16-11.683-5.614-23.834-9.94-35.049c0.434-21.961-9.933-42.057-10.365-63.553
		c-0.863-23.367-0.436-42.524-9.074-64.488c-2.592-6.073-5.619-11.215-9.075-16.82c0.435,0.464,0.867,1.402,1.735,2.336"/>
</g>
</svg>
