<?xml version="1.0" encoding="iso-8859-1"?>
<!-- Generator: Adobe Illustrator 15.1.0, SVG Export Plug-In . SVG Version: 6.00 Build 0)  -->
<!DOCTYPE svg PUBLIC "-//W3C//DTD SVG 1.1//EN" "http://www.w3.org/Graphics/SVG/1.1/DTD/svg11.dtd">
<svg version="1.1" xmlns="http://www.w3.org/2000/svg" xmlns:xlink="http://www.w3.org/1999/xlink" x="0px" y="0px" width="2048px"
	 height="1536px" viewBox="0 0 2048 1536" style="enable-background:new 0 0 2048 1536;" xml:space="preserve">
<g id="b2b_x5F_phone">
	<g>
		<path style="fill:none;stroke:#FF0050;stroke-width:3;" d="M1165.25,457.833c-0.503,0.109-1,0.208-1.504,0.347"/>
		<path style="fill:none;stroke:#FF0050;stroke-width:3;" d="M1421.419,1067.415l-201.045-562.786
			c-6.804-19.035-30.824-52.008-55.124-46.796"/>
		<path style="fill:none;stroke:#FF0050;stroke-width:3;" d="M1030.638,1232.805c2.584,0.659,5.134,1.273,7.546,1.874
			C1035.771,1234.078,1033.222,1233.464,1030.638,1232.805c0.029,0.039,0.054,0.078,0.078,0.122
			c12.938,17.877,47.265,30.062,68.124,22.604l199.759-71.356"/>
		<path style="fill:none;stroke:#FF0050;stroke-width:3;" d="M1335.666,1146.494"/>
		<path style="fill:none;stroke:#FF0050;stroke-width:3;" d="M812.583,635.344l39.384,117.489l77.245,208.465l49.798,143.928
			l3.118,11.958l37.227,96.441c8.027,28.986,35.557,33.166,61.48,23.902l94.412-30.95l117.738-44.406"/>
		<path style="fill:none;stroke:#FF0050;stroke-width:3;" d="M1406.192,1056.813l-55.39-158.549l-66.039-173.222l-52.308-159.379
			l-30.089-79.04c-8.024-22.466-35.554-35.941-61.479-26.676l-233.701,83.486l0,0l-65.022,26.005
			c-25.927,9.263-47.04,28.387-32.415,57.446l2.833,8.459"/>
		<path style="fill:none;stroke:#FF0050;stroke-width:3;" d="M930.743,564.214"/>
		<path style="fill:none;stroke:#FF0050;stroke-width:3;" d="M1213.808,1169.54c-18.808,0-34.049-15.245-34.049-34.051
			c0-18.809,15.241-34.054,34.049-34.054c18.803,0,34.052,15.245,34.052,34.054C1247.859,1154.295,1232.61,1169.54,1213.808,1169.54
			z"/>
		<path style="fill:none;stroke:#FF0050;stroke-width:3;" d="M1210.99,1150.122c-2.379,0.863-5.005-0.369-5.865-2.744l-5.515-15.225
			c-0.861-2.377,0.37-5.003,2.747-5.866l15.508-5.621c2.377-0.86,5.004,0.366,5.865,2.744l5.514,15.223
			c0.862,2.378-0.369,5.008-2.745,5.868L1210.99,1150.122z"/>
		<path style="fill:none;stroke:#FF0050;stroke-width:3;" d="M975.228,581.859c-1.143-3.222,0.542-6.759,3.764-7.904l64.189-22.753
			c3.22-1.144,6.76,0.543,7.905,3.764l0,0c1.144,3.229-0.55,6.765-3.772,7.908l-64.182,22.751
			C979.908,586.767,976.366,585.083,975.228,581.859L975.228,581.859z"/>
		<path style="fill:none;stroke:#FF0050;stroke-width:3;" d="M957.915,597.444c-4.886,0-8.846-3.96-8.846-8.845
			c0-4.881,3.96-8.843,8.846-8.843c4.886,0,8.846,3.962,8.846,8.843C966.761,593.484,962.801,597.444,957.915,597.444z"/>
		<path style="fill:none;stroke:#FF0050;stroke-width:3;" d="M957.915,593.023c-2.443,0-4.427-1.983-4.427-4.424
			c0-2.44,1.984-4.421,4.427-4.421s4.419,1.981,4.419,4.421C962.334,591.04,960.358,593.023,957.915,593.023z"/>
		<path style="fill:none;stroke:#FF0050;stroke-width:3;" d="M1251.771,1068.626l-232.926,83.033l-36.766-110.92l-50.9-134.998
			c0,0-19.382-62.147-19.379-62.147L847.637,671.39l62.58-19.534c0,0,128.301-49.742,214.315-81.228
			c43.373-15.877,75.993-25.041,75.993-25.041l28.232,71.415l78.859,236.78l64.12,172.079"/>
		<path style="fill:none;stroke:#FF0050;stroke-width:3;" d="M1154.069,856.651"/>
		<path style="fill:none;stroke:#FF0050;stroke-width:3;" d="M1222.006,833.13"/>
		<path style="fill:none;stroke:#FF0050;stroke-width:3;" d="M1154.069,856.651l-182.21,63.093
			c-8.208,2.839-17.162-1.507-20.005-9.714l-22.377-64.631c-2.843-8.205,1.505-17.161,9.712-20l292.64-101.332
			c8.207-2.84,17.161,1.508,19.999,9.713l22.382,64.632c2.84,8.207-1.507,17.161-9.711,20.004l-42.493,14.713"/>
		<g>
			<path style="fill:none;stroke:#FF0050;stroke-width:3;" d="M1032.902,835.486c-2.303-1.029-5.044-1.288-7.677-0.349
				c-1.976,0.706-4.377,2.865-3.921,5.296c0.481,2.553,3.574,2.5,5.56,2.469l2.907-0.109c6.098-0.264,11.118,1.221,12.45,8.291
				c0.821,4.346,0.674,9.162-2.06,13.293c-2.689,4.055-6.793,6.82-10.961,8.309c-5.212,1.865-10.662,1.832-15.477,0.213
				l2.882-10.805c3.158,1.532,6.723,2.424,10.396,1.109c2.525-0.9,4.961-3.195,4.382-6.266c-0.6-3.188-5.029-2.777-7.467-2.652
				c-7.131,0.385-11.923,0.115-13.517-8.343c-1.672-8.866,3.216-16.8,11.498-19.761c4.167-1.488,9.531-1.921,13.622-1.032
				L1032.902,835.486z"/>
			<path style="fill:none;stroke:#FF0050;stroke-width:3;" d="M1071.31,827.759l-3.178-16.864l10.751-3.844l8.237,43.697
				l-10.753,3.844l-3.375-17.908l-15.522,5.547l3.374,17.908l-10.747,3.843l-8.238-43.696l10.753-3.842l3.176,16.864
				L1071.31,827.759z"/>
			<path style="fill:none;stroke:#FF0050;stroke-width:3;" d="M1103.234,836.887l-1.419,8.609l-11.409,4.077l7.67-49.38
				l11.737-4.197l23.813,38.131l-11.465,4.096l-4.117-6.631L1103.234,836.887z M1106.488,811.599l-0.109,0.038l-1.818,15.498
				l8.939-3.197L1106.488,811.599z"/>
			<path style="fill:none;stroke:#FF0050;stroke-width:3;" d="M1171.359,820.641l-13.384,4.783l-13.316-13.18l-0.107,0.041
				l3.167,16.805l-10.75,3.84l-8.236-43.693l16.07-5.746c8.173-2.918,15.146-1.021,16.904,8.309
				c1.137,6.026-1.062,12.38-6.723,15.58L1171.359,820.641z M1143.172,804.982l1.046-0.375c3.509-1.254,7.327-3.361,6.432-8.113
				s-4.977-4.034-8.487-2.78l-1.041,0.372L1143.172,804.982z"/>
			<path style="fill:none;stroke:#FF0050;stroke-width:3;" d="M1178.59,781.684l1.375,7.303l12.124-4.332l1.811,9.619l-12.12,4.332
				l1.418,7.535l12.781-4.569l1.814,9.62l-23.532,8.413l-8.237-43.699l23.533-8.409l1.811,9.619L1178.59,781.684z"/>
		</g>
	</g>
	<path style="fill:none;stroke:#17192D;stroke-width:3;" d="M2048,0"/>
	<path style="fill:none;stroke:#17192D;stroke-width:3;" d="M2048,1536"/>
	<path style="fill:none;stroke:#17192D;stroke-width:3;" d="M0,1536"/>
	<path style="fill:none;stroke:#17192D;stroke-width:3;" d="M0,0"/>
</g>
<g id="Layer_1">
</g>
</svg>
