<?xml version="1.0" encoding="iso-8859-1"?>
<!-- Generator: Adobe Illustrator 15.1.0, SVG Export Plug-In . SVG Version: 6.00 Build 0)  -->
<!DOCTYPE svg PUBLIC "-//W3C//DTD SVG 1.1//EN" "http://www.w3.org/Graphics/SVG/1.1/DTD/svg11.dtd">
<svg version="1.1" xmlns="http://www.w3.org/2000/svg" xmlns:xlink="http://www.w3.org/1999/xlink" x="0px" y="0px" width="2048px"
	 height="1536px" viewBox="0 0 2048 1536" style="enable-background:new 0 0 2048 1536;" xml:space="preserve">
<g id="b3a_x5F_decke">
	<g>
		<path style="fill:none;stroke:#17192D;stroke-width:3;" d="M974.991,489.216c60.467-56.265,81.797,144.375,93.253,174.015
			c35.55-22.77,114.856-13.4,123.615,35.502c-19.569,5.643-42.362,3.317-38.069,32.526c15.254-1.618,21.721-18.919,39.568-18.446
			c11.858-0.072,24.963,11.586,31.702,19.181"/>
		<path style="fill:none;stroke:#17192D;stroke-width:3;" d="M1151.317,730.338c-4.268-6.666-6.189-13.582-5.889-21.92"/>
		<path style="fill:none;stroke:#17192D;stroke-width:3;" d="M1191.61,696.384c10.59-34.343,2.227-57.189,4.602-90.668"/>
		<path style="fill:none;stroke:#17192D;stroke-width:3;" d="M1295.667,681.764c31.555-4.542,38.391,37.452,50.023,57.571"/>
		<path style="fill:none;stroke:#17192D;stroke-width:3;" d="M1407.82,854.953c32.13,12.012,38.468,49.311,68.374,62.74"/>
		<path style="fill:none;stroke:#17192D;stroke-width:3;" d="M1610.448,662.537c30.805-11.58,30.906-32.951,48.733-55.019"/>
		<path style="fill:none;stroke:#17192D;stroke-width:3;" d="M926.844,511.389c43.782-21.229,67.335-42.147,118.702-43.926
			c40.25-2.438,84.064,11.316,119.545,33.324c35.098,18.361,71.742,51.295,86.541,86.553c3.176,12.551,12.974,35.447,8.674,46.949
			c-6.975,21-30.646,23.518-35.991,42.498c-1.437,3.836-1.05,7.479-0.66,11.121"/>
		<path style="fill:none;stroke:#17192D;stroke-width:3;" d="M1261.624,612.055c33.161,0.158,78.794,13.715,111.186,6.593
			c42.925-11.93,61.868-41.563,113.238-43.344"/>
		<path style="fill:none;stroke:#17192D;stroke-width:3;" d="M1443.159,622.216c39.089-13.364,47.19-58.417,87.714-75.612
			c42.345-17.393,78.487-6.507,121.337-1.855c25.746,2.172,54.203-10.686,79.211-3.094c28.514,8.646,51.998,48.717,51.525,77.525
			c-0.48,29.275-24.121,63.217-35.55,89.413c-17.456,40.024-45.284,72.626-72.401,106.312
			c-40.602,50.437-30.307,105.911-46.238,163.225c-3.498,12.584-8.637,25.24-12.984,37.551
			c-25.42-28.965-46.784-57.178-86.274-66.089c-40.606-9.159-62.135-13.136-91.396-43.335
			c-57.277-59.125-137.738,36.543-198.484,52.576c-34.199,9.026-66.561-1.025-100.145-2.385
			c-18.625-0.749-37.895-0.342-56.782,2.402c-18.999,2.754-36.573,12.207-55.306,13.244c-32.14,1.771-57.413-29.596-64.957-57.639
			c-6.479-24.082-6.451-70.641,20.336-84.926"/>
		<path style="fill:none;stroke:#17192D;stroke-width:3;" d="M946.17,892.344c-13.944-1.278-99.655-28.08-63.164-48.527
			c15.519-9.936,55.671,29.988,72.638,33.709"/>
		<path style="fill:none;stroke:#17192D;stroke-width:3;" d="M876.336,842.764c12.958-24.053,56.075-22.673,76.618-42.762"/>
		<path style="fill:none;stroke:#17192D;stroke-width:3;" d="M1032.573,953.865c2.961-17.025,6.051-32.867,5.475-49.518"/>
		<path style="fill:none;stroke:#17192D;stroke-width:3;" d="M1112.902,901.16c17.653,8.87,50.222,23.311,76.309,21.727"/>
		<path style="fill:none;stroke:#17192D;stroke-width:3;" d="M1358.661,658.818c33.162,0.158,64.117-3.131,95.264-4.603
			c31.147-1.47,62.41,15.462,91.351,10.543"/>
		<path style="fill:none;stroke:#17192D;stroke-width:3;" d="M1374.892,690.238c42.344-17.395,81.277,2.408,119.823,18.564"/>
		<path style="fill:none;stroke:#17192D;stroke-width:3;" d="M1638.743,868.424c-9.803-22.895,7.518-50.514,1.166-75.624"/>
	</g>
	<path style="fill:none;stroke:#17192D;stroke-width:3;" d="M2048,0"/>
	<path style="fill:none;stroke:#17192D;stroke-width:3;" d="M2048,1536"/>
	<path style="fill:none;stroke:#17192D;stroke-width:3;" d="M0,1536"/>
	<path style="fill:none;stroke:#17192D;stroke-width:3;" d="M0,0"/>
</g>
<g id="Layer_1">
</g>
</svg>
