<svg xmlns="http://www.w3.org/2000/svg" width="2048" height="1536" viewBox="0 0 2048 1536"><g fill="none" stroke="#17192D" stroke-width="3"><path d="M1702.004 673.594c2.056-.406 4.237.146 6.228.05 2.348-.127 4.693-.42 7.05-.4 3.364.032 7.726.057 10.51 2.4 2.695 2.265 2.142 6.773.862 9.596-1.646 3.632-3.728 4.92-7.645 5.866-7.466 1.795-14.644 2.387-22.362 2.124M1695.774 703.216c4.102-.65 8.826-.777 12.988-.774 2.633.01 5.53.59 8.04-.296 2.592-.92 5.347-2.546 7.12-4.677 2.195-2.618 1.487-3.993-.197-6.603M1693.2 712.908c1.938-.893 6.016-.457 8.277-.568 2.418-.12 4.645-.148 6.95-.938 3.262-1.113 9.938-4.024 7.736-8.52M1689.195 720.207c4.023-.518 7.98 1.1 11.942.06 3.24-.84 6.968-2.895 7.352-6.504M1685.704 730.22c4.273.597 9.955 1.243 13.938-.815 3.505-1.807 8.67-6.483 5.807-10.52M1678.992 713.348c1.386-.465 3.534-.34 5.177-.498M1673.786 720.526c1.336-.095 3.01-.286 4.473-.423M1680.807 705.57c1.317-.127 4.132-.007 5.905-.334M1678.185 693.84c1.6-.285 5.26-.028 7.385.213M2048 0M2048 1536M0 1536M0 0"/></g></svg>