<?xml version="1.0" encoding="iso-8859-1"?>
<!-- Generator: Adobe Illustrator 15.1.0, SVG Export Plug-In . SVG Version: 6.00 Build 0)  -->
<!DOCTYPE svg PUBLIC "-//W3C//DTD SVG 1.1//EN" "http://www.w3.org/Graphics/SVG/1.1/DTD/svg11.dtd">
<svg version="1.1" xmlns="http://www.w3.org/2000/svg" xmlns:xlink="http://www.w3.org/1999/xlink" x="0px" y="0px" width="2048px"
	 height="1536px" viewBox="0 0 2048 1536" style="enable-background:new 0 0 2048 1536;" xml:space="preserve">
<g id="b3a_x5F_zehen_x5F_h">
	<g>
		<path style="fill:none;stroke:#17192D;stroke-width:3;" d="M1702.004,673.594c2.056-0.406,4.237,0.146,6.228,0.05
			c2.348-0.127,4.693-0.419,7.051-0.401c3.363,0.033,7.725,0.058,10.508,2.4c2.696,2.266,2.143,6.774,0.863,9.597
			c-1.646,3.632-3.728,4.921-7.645,5.866c-7.465,1.795-14.643,2.387-22.361,2.124"/>
		<path style="fill:none;stroke:#17192D;stroke-width:3;" d="M1695.774,703.216c4.102-0.651,8.826-0.777,12.988-0.774
			c2.633,0.01,5.529,0.59,8.041-0.296c2.591-0.919,5.346-2.546,7.119-4.677c2.195-2.617,1.487-3.992-0.197-6.602"/>
		<path style="fill:none;stroke:#17192D;stroke-width:3;" d="M1693.2,712.908c1.938-0.893,6.016-0.457,8.277-0.568
			c2.418-0.119,4.645-0.148,6.949-0.938c3.263-1.113,9.939-4.024,7.737-8.52"/>
		<path style="fill:none;stroke:#17192D;stroke-width:3;" d="M1689.195,720.207c4.023-0.518,7.981,1.1,11.942,0.061
			c3.241-0.841,6.968-2.896,7.352-6.505"/>
		<path style="fill:none;stroke:#17192D;stroke-width:3;" d="M1685.704,730.221c4.273,0.596,9.955,1.242,13.938-0.816
			c3.505-1.807,8.67-6.483,5.807-10.521"/>
		<path style="fill:none;stroke:#17192D;stroke-width:3;" d="M1678.992,713.348c1.386-0.465,3.534-0.341,5.177-0.498"/>
		<path style="fill:none;stroke:#17192D;stroke-width:3;" d="M1673.786,720.526c1.336-0.095,3.009-0.286,4.473-0.423"/>
		<path style="fill:none;stroke:#17192D;stroke-width:3;" d="M1680.807,705.57c1.317-0.127,4.132-0.007,5.905-0.334"/>
		<path style="fill:none;stroke:#17192D;stroke-width:3;" d="M1678.185,693.84c1.6-0.285,5.261-0.028,7.385,0.213"/>
	</g>
	<path style="fill:none;stroke:#17192D;stroke-width:3;" d="M2048,0"/>
	<path style="fill:none;stroke:#17192D;stroke-width:3;" d="M2048,1536"/>
	<path style="fill:none;stroke:#17192D;stroke-width:3;" d="M0,1536"/>
	<path style="fill:none;stroke:#17192D;stroke-width:3;" d="M0,0"/>
</g>
<g id="Layer_1">
</g>
</svg>
