<?xml version="1.0" encoding="iso-8859-1"?>
<!-- Generator: Adobe Illustrator 15.1.0, SVG Export Plug-In . SVG Version: 6.00 Build 0)  -->
<!DOCTYPE svg PUBLIC "-//W3C//DTD SVG 1.1//EN" "http://www.w3.org/Graphics/SVG/1.1/DTD/svg11.dtd">
<svg version="1.1" xmlns="http://www.w3.org/2000/svg" xmlns:xlink="http://www.w3.org/1999/xlink" x="0px" y="0px" width="2048px"
	 height="1536px" viewBox="0 0 2048 1536" style="enable-background:new 0 0 2048 1536;" xml:space="preserve">
<g id="b3a_x5F_corpus">
	<g>
		<path style="fill:none;stroke:#17192D;stroke-width:3;" d="M440.352,669.611c18.897-5.973,34.261-2.679,52.707-9.553"/>
		<path style="fill:none;stroke:#17192D;stroke-width:3;" d="M539.924,782.134c1.35,37.999,31.304,58.058,46.409,65.473
			c9.975,4.901,18.525,7.407,28.633,11.827c8.739,3.818,18.707,8.455,28.167,11.061c12.968,3.58,22.33,5.58,30.578,7.211"/>
		<path style="fill:none;stroke:#17192D;stroke-width:3;" d="M645.374,796.816c23.728,9.49,58.733,19.994,83.874,11.885
			c33.745-10.85,42.532-43.5,37.536-75.387"/>
		<path style="fill:none;stroke:#17192D;stroke-width:3;" d="M770.528,708.411c-0.253,2.813,0.067,4.851,0.49,7.562"/>
		<path style="fill:none;stroke:#17192D;stroke-width:3;" d="M641.985,669.341c-2.81-0.88-6.501-0.493-9.856,0.521"/>
		<path style="fill:none;stroke:#17192D;stroke-width:3;" d="M624.83,561.218c42.207-1.377,74.214-8.399,111.375-15.787
			c25.291-5.024,50.362-10.286,76.51-14.022"/>
		<path style="fill:none;stroke:#17192D;stroke-width:3;" d="M879.54,481.699c0.167,3.756,4.883,14.711,6.021,18.334"/>
		<path style="fill:none;stroke:#17192D;stroke-width:3;" d="M668.145,687.197c9.281,5.481,25.307,7.668,41.084,3.404
			c41.955-11.368,55.073-45.139,50.962-72.696c-1.312-8.82-5.949-21.157-9.84-29.056"/>
		<path style="fill:none;stroke:#17192D;stroke-width:3;" d="M742.339,575.324c0.069,1.711,0.753,3.219,1.112,4.846"/>
		<path style="fill:none;stroke:#17192D;stroke-width:3;" d="M715.104,637.314c5.287-4.104,9.854,6.612,1.703,7.615"/>
		<path style="fill:none;stroke:#17192D;stroke-width:3;" d="M715.508,629.494c-4.698,2.77-7.969,5.885-7.118,11.92
			c0.723,5.088,3.461,10.117,8.987,9.623c10.921-0.984,10.362-21.025-0.201-20.982c-0.506,0.008-0.884-0.066-1.485,0.12"/>
		<path style="fill:none;stroke:#17192D;stroke-width:3;" d="M728.621,775.584c-0.048-0.306-0.101-0.616-0.164-0.924
			c1.819,0.996,4.194,2.797,5.236,0.144c1.006-2.567-1.966-3.585-3.533-5.075"/>
		<path style="fill:none;stroke:#17192D;stroke-width:3;" d="M724.954,765.629c9.144-8.477,19.859,9.307,10.531,15.811
			c-9.387,6.543-19.46-8.99-11.221-15.703"/>
		<path style="fill:none;stroke:#17192D;stroke-width:3;" d="M931.604,780.67c7.794,6.143,23.811,14.458,31.941,20.026
			c6.679,4.579,12.213,8.089,17.736,10.72"/>
		<path style="fill:none;stroke:#17192D;stroke-width:3;" d="M1103.757,881.932c-1.903,0.967-3.312,2.923-5.164,4.105"/>
		<path style="fill:none;stroke:#17192D;stroke-width:3;" d="M981.651,634.675c1.385,34.368,1.733,85.86-0.855,120.271
			c-2.637,34.83-1.777,70.002,8.909,103.987c2.11,5.334,3.299,11.02,4.972,16.309"/>
		<path style="fill:none;stroke:#17192D;stroke-width:3;" d="M995.364,876.06c6.219,10.548,23.258,15.403,34.543,18.415
			c12.909,3.17,25.465,6.633,38.997,6.98c7.571,0.404,14.972-0.809,22.341-1.704"/>
		<path style="fill:none;stroke:#17192D;stroke-width:3;" d="M1120.091,808.125c6.609-11.575,9.039-26.068,11.854-38.896
			c2.977-13.759,7.357-27.95,8.703-41.972c0.973-11.727,3.625-23.605,5.32-35.723c1.154-8.877,4.994-21.863,3.988-29.787"/>
		<path style="fill:none;stroke:#17192D;stroke-width:3;" d="M1321.624,765.062c-15.133-5.344-29.305-11.795-44.254-17.561
			c-15.504-6.217-32.378-9.77-48.541-15.016c-13.482-4.111-27.717-6.461-41.812-9.228"/>
		<path style="fill:none;stroke:#17192D;stroke-width:3;" d="M1126.101,793.771c21.602-6.154,46.494-8.375,67.516-10.65
			c30.775-3.246,60.873,0.609,91.396,1.867c25.221,1.072,53.425-1.32,76.789,1.188"/>
		<path style="fill:none;stroke:#17192D;stroke-width:3;" d="M1414.995,840.038c17.408,2.368,33.311,9.999,49.637,15.026
			c12.93,4.042,33.876,8.982,45.87,17.275"/>
		<path style="fill:none;stroke:#17192D;stroke-width:3;" d="M1097.206,899.686c11.212-0.307,23.327-5.182,34.359-7.404
			c13.002-2.383,26.005-4.768,39.004-7.151c27.315-4.882,54.037-9.075,81.24-15.231c26.541-6.09,53.264-10.279,79.924-15.107
			c24.691-4.657,51.603-14,76.646-14.84c0.658-0.057,0.598-0.692,1.258-0.748"/>
		<path style="fill:none;stroke:#17192D;stroke-width:3;" d="M1446.46,780.895c5.904,2.27,10.106,6.744,16.011,9.002
			c4.938,2.119,10.225,2.816,15.374,4.682c10.844,4.377,22.774,7.734,34.48,8.586c13.375,0.934,30.103,4.814,39.154,15.561"/>
		<path style="fill:none;stroke:#17192D;stroke-width:3;" d="M1361.284,784.033c9.707-3.864,19.118-8.16,28.562-12.229
			c11.453-5.04,19.543-5.217,31.566-2.916c5.381,0.895,10.654,2.713,15.125,5.58"/>
		<path style="fill:none;stroke:#17192D;stroke-width:3;" d="M1575.417,703.873c2.83,0.715,6.365-1.129,8.801-2.217"/>
		<path style="fill:none;stroke:#17192D;stroke-width:3;" d="M1535.721,694.305c11.202-6.605,17.323-16.404,31.128-18.41
			c11.462-1.789,22.962-0.814,34.229,0.189c25.611,1.934,50.545-2.748,75.902-3.322c7.34-0.242,14.561,0.676,21.73,1.151"/>
		<path style="fill:none;stroke:#17192D;stroke-width:3;" d="M1684.067,730.111c-6.018-0.328-18.023,1.348-24.105,2.195
			c-24.012,3.352-46.027,1.83-70.131,5.188c-12.64,1.768-25.145,4.439-37.211,8.434c-6.59,2.309-13.249,4.172-19.699,7.381
			c-5.584,2.626-10.568,6.106-16.154,8.741"/>
		<path style="fill:none;stroke:#17192D;stroke-width:3;" d="M1323.083,765.514c5.251-4.423,16.07-10.702,21.567-14.721
			c20.995-15.316,48.886-22.375,70.081-25.566c16.877-2.545,31.002-0.688,47.021-4.291c12.799-2.595,25.973-3.85,38.392-7.81
			c9.437-2.972,28.116-8.196,33.843-17.272"/>
		<path style="fill:none;stroke:#17192D;stroke-width:3;" d="M525.833,879.9c11.276,0.271,22.221,3.996,32.926,5.678
			c9.913,1.556,17.591,1.434,29.954,2.091c0,0,22.846-0.667,40.026-2.735c16.999-2.036,86.032-14.1,117.989-8.771
			c0,0,10.4,3.14,14.312,6.163"/>
		<path style="fill:none;stroke:#17192D;stroke-width:3;" d="M938.313,769c0.199-3.18,2.16-6.075,4.117-8.596"/>
		<path style="fill:none;stroke:#17192D;stroke-width:3;" d="M1093.628,819.892c2.516,4.448,6.278,10.46,6.95,15.796"/>
		<path style="fill:none;stroke:#17192D;stroke-width:3;" d="M1411.05,789.699c4.279-2.344,9.695-3.913,14.852-3.822"/>
		<path style="fill:none;stroke:#17192D;stroke-width:3;" d="M886.402,506.025c0.695,4.58,1.798,9.178,2.063,14.153
			c2.938,40.287-1.375,64.263-3.423,104.817c-1.972,38.059-15.799,90.775-9.253,128.926c0,0,8.649,32.441,6.714,47.666
			c-1.904,14.973-7.034,26.735-14.188,29.334c-7.153,2.602-14.982,0.277-14.982,0.277"/>
		<path style="fill:none;stroke:#17192D;stroke-width:3;" d="M524.778,933.746c2.676-0.146,14.217-2.203,16.983-2.371
			c7.682-0.48,25.302,0.188,32.753,0.74c24.845,1.861,64.288,10.162,88.659,11.613c24.636,1.467,51.241,4.787,75.919,4.867
			c29.593,0.374,64.978-6.639,86.298-23.184"/>
		<path style="fill:none;stroke:#17192D;stroke-width:3;" d="M493.059,660.059c27.81-11.436,33.536-47.551,37.933-77.75
			c5.876-40.354,26.121-72.703,52.147-82.785c20.604-7.979,51.311-20.486,86.426-25.043c15.868-2.064,32.392-2.773,48.592-3.557
			c13.312-0.631,47.938-1.182,61.255-0.363c15.011,0.926,48.62-0.371,62.138-2.086c14.713-1.872,33.321,4.984,37.991,13.225"/>
		<path style="fill:none;stroke:#17192D;stroke-width:3;" d="M755.109,795.555c18.785-2.943,34.674-5.924,49.445-10.652"/>
		<path style="fill:none;stroke:#17192D;stroke-width:3;" d="M1237.715,874.569c5.662,1.329,49.694,4.892,68.479,4.737
			c42.034-0.338,57.56-11.771,67.771-19.176c10.168-7.359,28.018-19.5,28.018-19.5"/>
		<path style="fill:none;stroke:#17192D;stroke-width:3;" d="M1285.394,946.531"/>
		<path style="fill:none;stroke:#17192D;stroke-width:3;" d="M865.043,825.045c-4.041,3.82-7.731,2.949-12.223,6.217
			c-2.009,1.32-3.923,2.193-6.357,1.783c-2.164-0.398-3.582-1.775-5.559-2.632c-0.534-0.188-0.446-0.274-0.987-0.198"/>
		<path style="fill:none;stroke:#17192D;stroke-width:3;" d="M850.426,818.738c-5.27,1.537-8.46,8.079-13.119,10.805
			c-1.736,0.953-3.824,1.552-5.807,1.156c-1.801-0.396-6.876-3.705-8.77-3.827"/>
		<path style="fill:none;stroke:#17192D;stroke-width:3;" d="M831.623,819.311c-4.988-0.281-6.28,4.936-10.498,6.452"/>
		<path style="fill:none;stroke:#17192D;stroke-width:3;" d="M806.6,805.699c-0.523,6.168-4.506,10.635-0.568,16.182
			c3.226,4.475,10.198,7.27,15.094,3.882"/>
		<path style="fill:none;stroke:#17192D;stroke-width:3;" d="M816.928,531.986c-16.551,58.592,9.036,109.613,7.062,175.379
			c-0.295,9.85-1.009,30.018-3.879,39.062c0,0-6.685,11.019-10.214,22.502c-3.527,11.475-3.466,15.195-5.592,21.445
			c-2.128,6.238-5.265,11.75-5.265,11.75s10.263,6.283,14.561-4.961c4.302-11.248,7.876-18.755,10.805-21.778l-4.508,20.181
			c0,0-4.657,10.432-4.848,15.227"/>
		<path style="fill:none;stroke:#17192D;stroke-width:3;" d="M809.748,814.375c1.413-0.767,2.819-1.346,4.038-2.521"/>
		<path style="fill:none;stroke:#17192D;stroke-width:3;" d="M815.315,815.675c-0.779-1.214-1.158-2.405-0.934-3.604"/>
		<path style="fill:none;stroke:#17192D;stroke-width:3;" d="M836.233,806.963c1.508,1.562,1.458,4.291,0.576,6.157"/>
		<path style="fill:none;stroke:#17192D;stroke-width:3;" d="M855.706,806.451c1.862,1.064,1.81,3.964,0.587,5.477"/>
		<path style="fill:none;stroke:#17192D;stroke-width:3;" d="M870.703,808.262c0.309,1.711,0.446,3.588-0.091,5.291"/>
		<path style="fill:none;stroke:#17192D;stroke-width:3;" d="M814.318,797.768c1.377-0.438,2.511,0.27,3.178,1.425"/>
		<path style="fill:none;stroke:#17192D;stroke-width:3;" d="M544.296,798.957"/>
		<path style="fill:none;stroke:#17192D;stroke-width:3;" d="M550.397,701.074c3.229,2.666,3.021,5.873,1.095,9.341"/>
		<path style="fill:none;stroke:#17192D;stroke-width:3;" d="M934.509,727.197c5.605-2.69,9.637-8.658,12.26-13.967"/>
		<path style="fill:none;stroke:#17192D;stroke-width:3;" d="M892.327,680.838c6.763-2.379,11.144-2.973,18.787-1.04"/>
		<path style="fill:none;stroke:#17192D;stroke-width:3;" d="M906.038,680.928c-2.837,3.877-8.723,3.525-12.565,1.012"/>
		<path style="fill:none;stroke:#17192D;stroke-width:3;" d="M537.872,738.625c4.099-0.723,7.17-1.273,10.239-1.814"/>
		<path style="fill:none;stroke:#17192D;stroke-width:3;" d="M534.305,757.088c3.312,5.168,5.258,10.487,4.617,17.461"/>
		<path style="fill:none;stroke:#17192D;stroke-width:3;" d="M1470.005,790.384c14.248-10.071,29.087-18.86,44.416-27.25"/>
		<path style="fill:none;stroke:#17192D;stroke-width:3;" d="M708.107,810.707c36.966,16.596,70.2,27.779,105.39,54.984
			c5.184,4.002,10.875,7.469,15.297,11.895c13.942,13.961,19.278,31.867-1.365,47.901"/>
		<path style="fill:none;stroke:#17192D;stroke-width:3;" d="M698.729,555.918c7.284-0.771,14.958,2.098,20.998,6.979"/>
		<path style="fill:none;stroke:#17192D;stroke-width:3;" d="M623.057,570.746c4.177-1.785,7.46-5.656,8.742-8.092"/>
		<path style="fill:none;stroke:#17192D;stroke-width:3;" d="M554.217,611.285c-0.561,9.599-2.572,20.486-4.422,28.633"/>
		<path style="fill:none;stroke:#17192D;stroke-width:3;" d="M653.576,803.147c-3.81,3.165-9.125,5.111-14.588,5.693"/>
		<path style="fill:none;stroke:#17192D;stroke-width:3;" d="M739.128,875.309c3.894-1.891,7.601-5.105,10.132-6.8"/>
		<path style="fill:none;stroke:#17192D;stroke-width:3;" d="M816.532,530.328c2.443-3.02,5.027-4.674,9.125-5.112"/>
		<path style="fill:none;stroke:#17192D;stroke-width:3;" d="M580.447,777.777c1.007,0.812,5.944,3.973,8.868,5.503"/>
		<path style="fill:none;stroke:#17192D;stroke-width:3;" d="M811.915,547.5c-7.351,0.779-17.185,1.406-24.165,1.161
			c-16.81-0.593-32.338,0.696-48.785-3.181"/>
		<path style="fill:none;stroke:#17192D;stroke-width:3;" d="M800.908,573.886c3.642-0.388,5.463-0.581,7.284-0.774"/>
		<path style="fill:none;stroke:#17192D;stroke-width:3;" d="M890.553,533.759c13.082-2.8,30.886-14.808,44.8-21.257
			c4.528-2.094,8.97-4.457,13.325-6.987c59.432-34.515,114.575-33.655,168.37,9.212"/>
		<path style="fill:none;stroke:#17192D;stroke-width:3;" d="M516.104,657.559c3.833,1.434,7.671,2.869,9.685,4.494"/>
		<path style="fill:none;stroke:#17192D;stroke-width:3;" d="M882.122,774.858c14.431,5.831,30.719,3.179,45.577,4.36"/>
		<path style="fill:none;stroke:#17192D;stroke-width:3;" d="M973.62,622.711c3.682,1.926,5.191,5.24,5.678,9.828"/>
		<path style="fill:none;stroke:#17192D;stroke-width:3;" d="M919.458,567.035c1.93-3.686,3.976-6.219,7.293-7.73"/>
		<path style="fill:none;stroke:#17192D;stroke-width:3;" d="M608.656,588.49c2.441-3.022,3.518-5.899,5.959-8.92"/>
		<path style="fill:none;stroke:#17192D;stroke-width:3;" d="M666.634,835.062c1.657,2.58,3.166,3.805,6.045,4.877"/>
	</g>
	<path style="fill:none;stroke:#17192D;stroke-width:3;" d="M2048,0"/>
	<path style="fill:none;stroke:#17192D;stroke-width:3;" d="M2048,1536"/>
	<path style="fill:none;stroke:#17192D;stroke-width:3;" d="M0,1536"/>
	<path style="fill:none;stroke:#17192D;stroke-width:3;" d="M0,0"/>
</g>
<g id="Layer_1">
</g>
</svg>
