<svg xmlns="http://www.w3.org/2000/svg" width="2048" height="1536" viewBox="0 0 2048 1536"><g fill="none" stroke="#17192D" stroke-width="3"><path d="M413.6 766.996c-3.54-6.664-3.334-12.822-5.303-19.71-2.146-7.817-1.803-14.21 3.233-20.88M430.12 817.924c-7.81-7.71-9.028-18.188-12.108-28.32M399.177 829.514c-.54-17.566-4.306-31.857-11.23-48.926-7.05-17.508-13.68-35.145-14.6-54.003.047-1.405-.11-5.093-.238-5.52M346.232 737.422c8.448-2.977 19.316-10.39 26.83-14.947M326.98 766.925c.66 17.995 9.656 32.59 20.966 45.568 14.17 16.336 29.75 20.126 50.446 19.12M349.38 732.288c7.934-4.683 14.816-11.38 23.443-15.34-4.687-7.942 4.67-12.573 6.878-19.298 1.91-6.167-.2-14.862-1.858-20.44M324.213 760.742c-8.636-29.162 2.64-69.83 34.52-83.473M364.755 683.41c3.902-2.557 8.065-4.254 11.802-5.826M320.813 765.014c-.428.135 3.13-.456 4.42-.844M364.07 682.687c-1.793-1.335-3.464-2.253-4.83-3.703M434.393 754.69c-2.572-11.837 2.135-21.16-9.753-29.766M435.278 779.965c.966 9.438-5.192 23.88 7.887 29.504M446.355 802.938c1.778-6.597 1.133-16.664-5.93-21.58M474.118 767.9c2.09-.03 2.65-3.19 2.3-4.883-.41-2.875-2.523-3.438-3.8-5.757M465.884 773.48c1.714 1.743 3.737.985 5.873 1.104M435.99 774.695c9.007-1.47 18.586-4.004 27.843-3.596M462.438 755.784c-.338-2.157 2.548-4.05 4.39-4.903M471.714 754.23c-.272-1.417-.774-2.612-1.515-3.597M498.598 764.088c.748-6.066-2.264-9.66-3.857-15.033M490.478 764.992c1.582 4.328 7.986 5.72 10.873 8.904M486.874 749.29c-1.667-3.103.08-7.813.423-11.212.41-4.168 1.345-7.588 2.57-11.543M494.22 748.307c-1.714-5.78.882-16.732-3.89-20.716M499.135 766.92c1.277 1.276 2.396 3.043 2.89 4.69M490.028 763.486c.294-2.038 1.29-3.24.68-5.3-.653-2.2-2.174-4.3-2.87-6.646M504.378 771.97c3.046-6.905 3.062-12.9 1.12-19.966-.757-3.062-2.015-6.295-3.323-9.2-1.608-3.41-4.96-6.61-6.06-10.335M401.46 827.466c3.3.52 8.492-1.17 12.043-1.315 4.73-.206 9.584 0 14.148-.755 7.687-1.377 14.486-5.197 20.418-9.94.938-.884 1.92-1.62 2.93-2.23M414.166 694.438c5.778-1.71 12.362-1.713 18.314-2.88 7.598-1.648 14.613-2.234 22.392-1.248M390.266 682.51c-.746-3.526 3.04-9.447 5.836-11.613 3.412-2.66 8.782-4.254 13.158-4.657 4.782-.51 9.233.872 13.953-.394 4.586-1.19 9.91-1.434 14 1.25 1.11.715 1.897 1.83 3.14 2.516M402.832 678.934c2.03-3.746 7.83-5.91 11.76-3.785M421.512 673.24c.782-2.923 6.033-2.372 8.425-1.89M410.734 680.33c5.717-2.44 13.31-4.096 19.363-4.39M383.52 687.047c1.34-.54 2.81-1.127 4.406-1.295M362.725 678.533c14.227-7.07 29.622-10.73 45.12-13.525.86-.104 1.552-.3 2.28-.377M487.432 693.555c4.36 2.6 6.907 6.633 10.477 10.068 3.735 3.546 8.13 6.734 12.01 10.225 7.596 6.43 15.54 12.023 18.515 22.06.576 1.94.916 4.084 1.52 6.142M454.938 811.238c7.997-2.545 16.182-4.44 23.89-7.947 8.027-3.607 13.64-9.47 20.707-14.538 11.97-8.616 32.083-16.324 32.718-33.658.156-3.017-.604-7.348-.995-9.854M420.612 727.41c-.378 3.113-1.53 6.062-1.064 9.38.245 2.153 2.212 9.957 7.097 13.1 1.398.897 2.307 3.362 2.667 5.017M441.62 806.88c.983.233 1.667 1.015 2.524 1.48M428.726 757.652c-.076-.703-.083-1.61 0-2.424M510.043 752.75c.096-1.434-.088-2.955-.653-4.268M432.05 763.318c1.094.546 2.093.225 3.26-.036M517.5 732.496M2048 0M2048 1536M0 1536M0 0"/></g></svg>