<svg xmlns="http://www.w3.org/2000/svg" width="2048" height="1536" viewBox="0 0 2048 1536"><g fill="none" stroke="#17192D" stroke-width="3"><path d="M974.99 489.216c60.468-56.265 81.798 144.375 93.254 174.015 35.55-22.77 114.856-13.4 123.615 35.503-19.57 5.643-42.363 3.317-38.07 32.526 15.254-1.62 21.72-18.92 39.568-18.447 11.858-.072 24.963 11.586 31.702 19.18M1151.317 730.338c-4.268-6.666-6.19-13.582-5.89-21.92M1191.61 696.384c10.59-34.343 2.227-57.19 4.602-90.668M1295.667 681.764c31.555-4.542 38.39 37.452 50.023 57.57M1407.82 854.953c32.13 12.012 38.468 49.31 68.374 62.74M1610.448 662.537c30.805-11.58 30.906-32.95 48.733-55.02M926.844 511.39c43.782-21.23 67.335-42.148 118.702-43.927 40.25-2.438 84.064 11.316 119.545 33.324 35.1 18.36 71.743 51.295 86.542 86.553 3.176 12.55 12.974 35.447 8.674 46.95-6.975 21-30.646 23.517-35.99 42.497-1.438 3.836-1.05 7.48-.66 11.12M1261.624 612.055c33.16.158 78.794 13.715 111.186 6.593 42.925-11.93 61.868-41.563 113.238-43.344M1443.16 622.216c39.088-13.364 47.19-58.417 87.713-75.612 42.345-17.393 78.487-6.507 121.337-1.855 25.746 2.17 54.203-10.687 79.21-3.095 28.515 8.646 52 48.717 51.526 77.525-.48 29.275-24.12 63.217-35.55 89.413-17.456 40.024-45.284 72.626-72.4 106.312-40.603 50.437-30.308 105.91-46.24 163.225-3.497 12.584-8.636 25.24-12.983 37.55-25.42-28.964-46.784-57.177-86.274-66.088-40.607-9.16-62.136-13.136-91.397-43.335-57.277-59.125-137.738 36.543-198.484 52.576-34.2 9.026-66.562-1.025-100.146-2.385-18.625-.75-37.895-.342-56.782 2.402-19 2.754-36.573 12.207-55.306 13.244-32.14 1.77-57.413-29.596-64.957-57.64-6.48-24.08-6.452-70.64 20.335-84.925M946.17 892.344c-13.944-1.278-99.655-28.08-63.164-48.527 15.52-9.936 55.67 29.988 72.638 33.71M876.336 842.764c12.958-24.053 56.075-22.673 76.618-42.762M1032.573 953.865c2.96-17.025 6.05-32.867 5.475-49.518M1112.902 901.16c17.653 8.87 50.222 23.31 76.31 21.727M1358.66 658.818c33.163.158 64.118-3.13 95.265-4.603 31.147-1.47 62.41 15.462 91.35 10.543M1374.892 690.238c42.344-17.395 81.277 2.408 119.823 18.564M1638.743 868.424c-9.803-22.895 7.518-50.514 1.166-75.624M2048 0M2048 1536M0 1536M0 0"/></g></svg>