<svg xmlns="http://www.w3.org/2000/svg" width="2048" height="1536" viewBox="0 0 2048 1536"><g fill="none" stroke="#17192D" stroke-width="3"><path d="M1554.362 821.705c3.577 1.21 6.236 3.815 9.928 4.74 2.884.717 7.346 1.783 8.928 4.26 2.277 3.578-1.475 5.527-4.896 5.945-2.88.35-7.38-1.13-9.74-2.625-.09-.08-.172-.146-.26-.226M1556.345 845.94c-.5-.082-.697.183-1.115-.147 5.523.512 10.422 7.278 16.376 3.46 2.106-1.35 4.72-4.46 3.208-7.01-.69-1.17-1.994-1.075-3-1.58-1.353-.685-2.564-1.764-4.047-2.137M1549.446 861.26c4.947 1.49 10.305 4.088 15.7 3.036 4.366-.843 10.49-11.17 3.578-12.73M1533.944 855.204c2.28.655 4.258 2.237 6.647 2.66M1537.806 840.374c1.59 1.278 4.463 1.69 6.39 2.448M1539.755 830.54c1.376 1.005 3.2 1.063 4.673 1.91M1530.376 865.52c.36 1.26 2.072 1.854 4.107 1.584M1513.065 874.756c-1.363-.082 4.64 3.34 5.826 3.89 3.583 1.877 7.624 1.67 11.382 3.08 7.045 2.632 14.015 10.913 22.523 8.204M1543.302 870.634c1.377 2.337 10.48 5.205 13.52 6.235 5.365 1.685 15.564-2.106 9.476-8.45M1555.47 889.643c3.477-1.27 6.17-5.62 6.016-9.21M2048 0M2048 1536M0 1536M0 0"/></g></svg>