<?xml version="1.0" encoding="iso-8859-1"?>
<!-- Generator: Adobe Illustrator 15.1.0, SVG Export Plug-In . SVG Version: 6.00 Build 0)  -->
<!DOCTYPE svg PUBLIC "-//W3C//DTD SVG 1.1//EN" "http://www.w3.org/Graphics/SVG/1.1/DTD/svg11.dtd">
<svg version="1.1" xmlns="http://www.w3.org/2000/svg" xmlns:xlink="http://www.w3.org/1999/xlink" x="0px" y="0px" width="2048px"
	 height="1536px" viewBox="0 0 2048 1536" style="enable-background:new 0 0 2048 1536;" xml:space="preserve">
<g id="b3a_x5F_zehen_x5F_v">
	<g>
		<path style="fill:none;stroke:#17192D;stroke-width:3;" d="M1554.362,821.705c3.577,1.21,6.236,3.815,9.928,4.74
			c2.884,0.717,7.346,1.783,8.928,4.26c2.277,3.578-1.475,5.527-4.896,5.945c-2.881,0.35-7.38-1.131-9.74-2.625
			c-0.09-0.08-0.172-0.146-0.26-0.226"/>
		<path style="fill:none;stroke:#17192D;stroke-width:3;" d="M1556.345,845.941c-0.5-0.083-0.697,0.182-1.115-0.148
			c5.523,0.512,10.422,7.278,16.376,3.459c2.106-1.35,4.72-4.459,3.208-7.01c-0.689-1.168-1.994-1.074-2.999-1.578
			c-1.354-0.686-2.565-1.765-4.048-2.138"/>
		<path style="fill:none;stroke:#17192D;stroke-width:3;" d="M1549.446,861.261c4.947,1.489,10.305,4.087,15.699,3.035
			c4.367-0.843,10.49-11.171,3.579-12.73"/>
		<path style="fill:none;stroke:#17192D;stroke-width:3;" d="M1533.944,855.204c2.281,0.655,4.258,2.237,6.647,2.66"/>
		<path style="fill:none;stroke:#17192D;stroke-width:3;" d="M1537.806,840.374c1.59,1.278,4.463,1.69,6.391,2.448"/>
		<path style="fill:none;stroke:#17192D;stroke-width:3;" d="M1539.755,830.541c1.376,1.004,3.199,1.062,4.673,1.908"/>
		<path style="fill:none;stroke:#17192D;stroke-width:3;" d="M1530.376,865.52c0.359,1.26,2.072,1.854,4.107,1.584"/>
		<path style="fill:none;stroke:#17192D;stroke-width:3;" d="M1513.065,874.756c-1.363-0.082,4.639,3.34,5.826,3.891
			c3.582,1.876,7.623,1.668,11.381,3.078c7.045,2.633,14.015,10.914,22.523,8.205"/>
		<path style="fill:none;stroke:#17192D;stroke-width:3;" d="M1543.302,870.634c1.377,2.337,10.479,5.205,13.519,6.235
			c5.366,1.686,15.565-2.105,9.477-8.449"/>
		<path style="fill:none;stroke:#17192D;stroke-width:3;" d="M1555.47,889.643c3.477-1.271,6.17-5.619,6.016-9.209"/>
	</g>
	<path style="fill:none;stroke:#17192D;stroke-width:3;" d="M2048,0"/>
	<path style="fill:none;stroke:#17192D;stroke-width:3;" d="M2048,1536"/>
	<path style="fill:none;stroke:#17192D;stroke-width:3;" d="M0,1536"/>
	<path style="fill:none;stroke:#17192D;stroke-width:3;" d="M0,0"/>
</g>
<g id="Layer_1">
</g>
</svg>
