<svg xmlns="http://www.w3.org/2000/svg" width="2048" height="1536" viewBox="0 0 2048 1536"><g fill="none" stroke="#17192D" stroke-width="3"><path d="M440.352 669.61c18.897-5.972 34.26-2.678 52.707-9.552M539.924 782.134c1.35 38 31.304 58.058 46.41 65.473 9.974 4.9 18.524 7.407 28.632 11.827 8.74 3.818 18.707 8.455 28.167 11.06 12.968 3.58 22.33 5.58 30.578 7.212M645.374 796.816c23.728 9.49 58.733 19.994 83.874 11.885 33.745-10.85 42.532-43.5 37.536-75.386M770.528 708.41c-.253 2.814.067 4.852.49 7.563M641.985 669.34c-2.81-.88-6.5-.492-9.856.522M624.83 561.218c42.207-1.377 74.214-8.4 111.375-15.787 25.29-5.023 50.362-10.285 76.51-14.02M879.54 481.7c.167 3.755 4.883 14.71 6.02 18.333M668.145 687.197c9.28 5.48 25.307 7.668 41.084 3.404 41.954-11.367 55.072-45.138 50.96-72.695-1.31-8.82-5.948-21.157-9.84-29.056M742.34 575.324c.068 1.71.752 3.22 1.11 4.846M715.104 637.314c5.287-4.104 9.854 6.612 1.703 7.615M715.508 629.494c-4.698 2.77-7.97 5.885-7.118 11.92.723 5.088 3.46 10.117 8.987 9.623 10.92-.984 10.362-21.025-.2-20.982-.507.008-.885-.066-1.486.12M728.62 775.584c-.047-.306-.1-.616-.163-.924 1.82.996 4.194 2.797 5.236.144 1.006-2.567-1.966-3.585-3.533-5.075M724.954 765.63c9.144-8.478 19.86 9.306 10.53 15.81-9.386 6.543-19.46-8.99-11.22-15.703M931.604 780.67c7.794 6.143 23.81 14.458 31.94 20.026 6.68 4.58 12.214 8.09 17.737 10.72M1103.757 881.932c-1.903.967-3.312 2.923-5.164 4.105M981.65 634.675c1.386 34.368 1.734 85.86-.854 120.27-2.637 34.83-1.777 70.003 8.91 103.988 2.11 5.334 3.298 11.02 4.97 16.31M995.364 876.06c6.22 10.548 23.258 15.403 34.543 18.415 12.91 3.17 25.465 6.633 38.997 6.98 7.57.404 14.972-.81 22.34-1.704M1120.09 808.125c6.61-11.575 9.04-26.068 11.855-38.896 2.977-13.76 7.357-27.95 8.703-41.973.973-11.727 3.625-23.605 5.32-35.723 1.154-8.877 4.994-21.863 3.988-29.787M1321.624 765.062c-15.133-5.344-29.305-11.795-44.254-17.56-15.504-6.218-32.378-9.77-48.54-15.017-13.483-4.11-27.718-6.46-41.813-9.228M1126.1 793.77c21.603-6.153 46.495-8.374 67.517-10.65 30.775-3.245 60.873.61 91.396 1.868 25.22 1.072 53.425-1.32 76.79 1.188M1414.995 840.038c17.408 2.368 33.31 10 49.637 15.026 12.93 4.042 33.876 8.982 45.87 17.275M1097.206 899.686c11.212-.307 23.327-5.182 34.36-7.404l39.003-7.15c27.314-4.883 54.036-9.076 81.24-15.232 26.54-6.09 53.263-10.28 79.923-15.107 24.69-4.657 51.603-14 76.646-14.84.657-.057.597-.692 1.257-.748M1446.46 780.895c5.904 2.27 10.106 6.744 16.01 9.002 4.94 2.12 10.226 2.816 15.375 4.682 10.844 4.376 22.774 7.733 34.48 8.585 13.375.934 30.103 4.814 39.154 15.56M1361.284 784.033c9.707-3.864 19.118-8.16 28.562-12.23 11.453-5.04 19.543-5.216 31.566-2.915 5.38.895 10.654 2.713 15.125 5.58M1575.417 703.873c2.83.715 6.365-1.13 8.8-2.217M1535.72 694.305c11.203-6.605 17.324-16.404 31.13-18.41 11.46-1.79 22.96-.814 34.228.19 25.61 1.933 50.545-2.75 75.902-3.323 7.34-.242 14.56.676 21.73 1.15M1684.067 730.11c-6.018-.327-18.023 1.35-24.105 2.196-24.012 3.352-46.027 1.83-70.13 5.188-12.64 1.768-25.146 4.44-37.212 8.434-6.59 2.31-13.25 4.172-19.7 7.38-5.583 2.627-10.567 6.107-16.153 8.742M1323.083 765.514c5.25-4.423 16.07-10.702 21.567-14.72 20.995-15.317 48.886-22.376 70.08-25.567 16.878-2.545 31.003-.688 47.022-4.29 12.8-2.596 25.973-3.85 38.392-7.81 9.437-2.973 28.116-8.197 33.843-17.273M525.833 879.9c11.276.27 22.22 3.996 32.926 5.678 9.912 1.556 17.59 1.434 29.953 2.09 0 0 22.846-.666 40.026-2.734 16.998-2.036 86.03-14.1 117.988-8.77 0 0 10.4 3.14 14.312 6.162M938.313 769c.2-3.18 2.16-6.075 4.117-8.596M1093.628 819.892c2.516 4.448 6.278 10.46 6.95 15.796M1411.05 789.7c4.28-2.345 9.695-3.914 14.852-3.823M886.402 506.025c.695 4.58 1.798 9.178 2.063 14.153 2.938 40.287-1.375 64.263-3.423 104.817-1.972 38.06-15.8 90.775-9.253 128.926 0 0 8.648 32.442 6.713 47.667-1.904 14.973-7.034 26.735-14.188 29.334-7.153 2.603-14.982.278-14.982.278M524.778 933.746c2.676-.146 14.217-2.203 16.983-2.37 7.683-.48 25.303.187 32.754.74 24.845 1.86 64.288 10.16 88.66 11.612 24.635 1.467 51.24 4.787 75.918 4.867 29.593.374 64.978-6.64 86.298-23.184M493.06 660.06c27.81-11.437 33.535-47.552 37.932-77.75 5.876-40.355 26.12-72.704 52.147-82.786 20.603-7.98 51.31-20.486 86.425-25.043 15.868-2.063 32.392-2.772 48.592-3.556 13.312-.63 47.938-1.182 61.255-.363 15.01.927 48.62-.37 62.138-2.085 14.713-1.872 33.32 4.984 37.99 13.225M755.11 795.555c18.784-2.943 34.673-5.924 49.444-10.652M1237.715 874.57c5.662 1.328 49.694 4.89 68.48 4.736 42.033-.338 57.56-11.77 67.77-19.176 10.168-7.36 28.018-19.5 28.018-19.5M1285.394 946.53M865.043 825.045c-4.04 3.82-7.73 2.95-12.223 6.217-2.01 1.32-3.923 2.193-6.357 1.783-2.164-.398-3.582-1.775-5.56-2.632-.533-.188-.445-.274-.986-.198M850.426 818.738c-5.27 1.537-8.46 8.08-13.12 10.805-1.735.953-3.823 1.552-5.806 1.156-1.8-.397-6.876-3.706-8.77-3.828M831.623 819.31c-4.988-.28-6.28 4.937-10.498 6.453M806.6 805.7c-.523 6.167-4.506 10.634-.568 16.18 3.226 4.476 10.198 7.27 15.094 3.883M816.928 531.986c-16.55 58.592 9.036 109.613 7.062 175.38-.295 9.85-1.01 30.017-3.88 39.06 0 0-6.684 11.02-10.213 22.503-3.527 11.474-3.466 15.194-5.592 21.444-2.128 6.238-5.265 11.75-5.265 11.75s10.263 6.283 14.56-4.96c4.303-11.25 7.877-18.756 10.806-21.78l-4.508 20.182s-4.657 10.432-4.848 15.227M809.748 814.375c1.413-.767 2.82-1.346 4.038-2.52M815.315 815.675c-.78-1.214-1.158-2.405-.934-3.604M836.233 806.963c1.508 1.562 1.458 4.29.576 6.157M855.706 806.45c1.862 1.065 1.81 3.965.587 5.478M870.703 808.262c.31 1.71.446 3.588-.09 5.29M814.318 797.768c1.377-.438 2.51.27 3.178 1.425M544.296 798.957M550.397 701.074c3.23 2.666 3.02 5.873 1.095 9.34M934.51 727.197c5.604-2.69 9.636-8.658 12.26-13.967M892.327 680.838c6.763-2.38 11.144-2.973 18.787-1.04M906.038 680.928c-2.837 3.877-8.723 3.525-12.565 1.012M537.872 738.625c4.1-.723 7.17-1.273 10.24-1.814M534.305 757.088c3.312 5.168 5.258 10.487 4.617 17.46M1470.005 790.384c14.248-10.07 29.087-18.86 44.416-27.25M708.107 810.707c36.966 16.596 70.2 27.78 105.39 54.984 5.184 4.003 10.875 7.47 15.297 11.896 13.942 13.96 19.278 31.867-1.365 47.9M698.73 555.918c7.283-.77 14.957 2.098 20.997 6.98M623.057 570.746c4.177-1.785 7.46-5.656 8.742-8.092M554.217 611.285c-.56 9.6-2.572 20.486-4.422 28.633M653.576 803.147c-3.81 3.165-9.125 5.11-14.588 5.693M739.128 875.31c3.894-1.892 7.6-5.106 10.132-6.8M816.532 530.328c2.443-3.02 5.027-4.674 9.125-5.112M580.447 777.777c1.007.812 5.944 3.973 8.868 5.503M811.915 547.5c-7.35.78-17.185 1.406-24.165 1.16-16.81-.592-32.338.697-48.785-3.18M800.908 573.886l7.284-.774M890.553 533.76c13.082-2.8 30.886-14.81 44.8-21.258 4.528-2.094 8.97-4.457 13.325-6.987 59.432-34.515 114.575-33.655 168.37 9.212M516.104 657.56c3.833 1.433 7.67 2.868 9.685 4.493M882.122 774.858c14.43 5.83 30.72 3.18 45.577 4.36M973.62 622.71c3.682 1.927 5.19 5.24 5.678 9.83M919.458 567.035c1.93-3.686 3.976-6.22 7.293-7.73M608.656 588.49c2.44-3.022 3.518-5.9 5.96-8.92M666.634 835.062c1.657 2.58 3.166 3.805 6.045 4.877M2048 0M2048 1536M0 1536M0 0"/></g></svg>