<svg xmlns="http://www.w3.org/2000/svg" width="2048" height="1536" viewBox="0 0 2048 1536"><g fill="none" stroke="#17192D" stroke-width="3"><path d="M433.772 827.13c12.747-1.355 25.88.933 37.578 7.054M419.432 952.026c4.88-6.046 7.942-11.896 8.795-21.19M246.92 957.477c-7.67-2.87-10.46-11.777-7.977-23.09M366.403 834.294c-21.85 2.32-34.672 20.256-51.912 31.297M334.56 811.896c-14.68-16.855-37.11-19.994-54.658-29.176M303.227 725.002c-1.822.19 8.253 8.33 12.28 11.58M516.987 781.34c-8.656 34.617 16.387 75.76 13.586 111.785-2.954 34.996-19.975 66.406-31.145 99.22-57.424 1.532-105.133 39.71-162.704 40.208-55.2 1.27-93.172-19.447-138.4-43.504 40.777-15.313 72.897-35.905 118.324-42.32 35.424-5.23 67.43-2.716 102.912.45M289.655 654.848c-45.302 74.938-52.017 136.634-79.237 196.398-23.038 47.303-22.98 89.705-15.85 139.975M436.584 952.73c21.62 9.257 38.738 25.797 60.997 26.543M376.37 988.917c-25.31 2.507-49.198-1.397-73.097-.165M290.674 651.928c.655-7.143 5.65-13.326 6.157-21.865 9.133 6.1 14.574 4.107 24.507 4.466M306.792 657.28c2.353-4.49 6.1-9.132 9.998-12.374M322.586 632.982c19.363 9.248 59.515-11.982 83.277-14.51 30.754-3.272 79.467 2.86 106.113 14.16M2048 0M2048 1536M0 1536M0 0"/></g></svg>