<?xml version="1.0" encoding="iso-8859-1"?>
<!-- Generator: Adobe Illustrator 15.1.0, SVG Export Plug-In . SVG Version: 6.00 Build 0)  -->
<!DOCTYPE svg PUBLIC "-//W3C//DTD SVG 1.1//EN" "http://www.w3.org/Graphics/SVG/1.1/DTD/svg11.dtd">
<svg version="1.1" xmlns="http://www.w3.org/2000/svg" xmlns:xlink="http://www.w3.org/1999/xlink" x="0px" y="0px" width="2048px"
	 height="1536px" viewBox="0 0 2048 1536" style="enable-background:new 0 0 2048 1536;" xml:space="preserve">
<g id="b3a_x5F_kopf">
	<g>
		<path style="fill:none;stroke:#17192D;stroke-width:3;" d="M413.601,766.996c-3.541-6.664-3.335-12.822-5.304-19.709
			c-2.146-7.818-1.803-14.211,3.233-20.881"/>
		<path style="fill:none;stroke:#17192D;stroke-width:3;" d="M430.12,817.924c-7.811-7.709-9.028-18.188-12.108-28.32"/>
		<path style="fill:none;stroke:#17192D;stroke-width:3;" d="M399.177,829.514c-0.539-17.566-4.306-31.857-11.229-48.926
			c-7.052-17.508-13.681-35.145-14.6-54.003c0.046-1.405-0.111-5.093-0.239-5.52"/>
		<path style="fill:none;stroke:#17192D;stroke-width:3;" d="M346.232,737.422c8.448-2.977,19.316-10.391,26.83-14.947"/>
		<path style="fill:none;stroke:#17192D;stroke-width:3;" d="M326.981,766.925c0.66,17.995,9.655,32.591,20.965,45.568
			c14.17,16.336,29.751,20.126,50.446,19.12"/>
		<path style="fill:none;stroke:#17192D;stroke-width:3;" d="M349.379,732.288c7.935-4.683,14.817-11.38,23.444-15.339
			c-4.687-7.943,4.669-12.574,6.878-19.299c1.909-6.167-0.202-14.862-1.859-20.441"/>
		<path style="fill:none;stroke:#17192D;stroke-width:3;" d="M324.213,760.742c-8.636-29.162,2.639-69.83,34.52-83.473"/>
		<path style="fill:none;stroke:#17192D;stroke-width:3;" d="M364.755,683.41c3.902-2.557,8.065-4.254,11.802-5.826"/>
		<path style="fill:none;stroke:#17192D;stroke-width:3;" d="M320.813,765.014c-0.428,0.135,3.131-0.456,4.42-0.844"/>
		<path style="fill:none;stroke:#17192D;stroke-width:3;" d="M364.069,682.687c-1.792-1.335-3.463-2.253-4.829-3.703"/>
		<path style="fill:none;stroke:#17192D;stroke-width:3;" d="M434.393,754.689c-2.572-11.836,2.135-21.158-9.753-29.765"/>
		<path style="fill:none;stroke:#17192D;stroke-width:3;" d="M435.278,779.965c0.966,9.438-5.192,23.879,7.887,29.504"/>
		<path style="fill:none;stroke:#17192D;stroke-width:3;" d="M446.355,802.938c1.778-6.597,1.133-16.664-5.929-21.581"/>
		<path style="fill:none;stroke:#17192D;stroke-width:3;" d="M474.118,767.899c2.09-0.03,2.649-3.188,2.299-4.882
			c-0.408-2.875-2.522-3.438-3.8-5.757"/>
		<path style="fill:none;stroke:#17192D;stroke-width:3;" d="M465.884,773.479c1.714,1.744,3.737,0.986,5.873,1.105"/>
		<path style="fill:none;stroke:#17192D;stroke-width:3;" d="M435.991,774.695c9.006-1.469,18.585-4.004,27.842-3.596"/>
		<path style="fill:none;stroke:#17192D;stroke-width:3;" d="M462.438,755.784c-0.338-2.157,2.548-4.05,4.391-4.903"/>
		<path style="fill:none;stroke:#17192D;stroke-width:3;" d="M471.714,754.229c-0.272-1.416-0.774-2.611-1.515-3.596"/>
		<path style="fill:none;stroke:#17192D;stroke-width:3;" d="M498.598,764.088c0.748-6.066-2.264-9.66-3.857-15.033"/>
		<path style="fill:none;stroke:#17192D;stroke-width:3;" d="M490.478,764.992c1.582,4.328,7.986,5.719,10.873,8.904"/>
		<path style="fill:none;stroke:#17192D;stroke-width:3;" d="M486.874,749.289c-1.667-3.102,0.079-7.812,0.423-11.211
			c0.409-4.168,1.345-7.588,2.57-11.543"/>
		<path style="fill:none;stroke:#17192D;stroke-width:3;" d="M494.22,748.307c-1.714-5.781,0.882-16.732-3.89-20.716"/>
		<path style="fill:none;stroke:#17192D;stroke-width:3;" d="M499.135,766.92c1.277,1.276,2.396,3.043,2.89,4.689"/>
		<path style="fill:none;stroke:#17192D;stroke-width:3;" d="M490.028,763.486c0.294-2.038,1.29-3.239,0.68-5.301
			c-0.653-2.199-2.174-4.298-2.869-6.645"/>
		<path style="fill:none;stroke:#17192D;stroke-width:3;" d="M504.378,771.969c3.046-6.904,3.062-12.898,1.121-19.965
			c-0.758-3.062-2.016-6.295-3.324-9.199c-1.608-3.412-4.96-6.611-6.059-10.336"/>
		<path style="fill:none;stroke:#17192D;stroke-width:3;" d="M401.46,827.466c3.299,0.519,8.492-1.169,12.043-1.315
			c4.731-0.207,9.584-0.002,14.148-0.756c7.686-1.377,14.485-5.197,20.417-9.941c0.938-0.883,1.921-1.619,2.931-2.23"/>
		<path style="fill:none;stroke:#17192D;stroke-width:3;" d="M414.166,694.438c5.778-1.71,12.362-1.713,18.314-2.881
			c7.598-1.647,14.613-2.233,22.392-1.247"/>
		<path style="fill:none;stroke:#17192D;stroke-width:3;" d="M390.266,682.509c-0.746-3.525,3.04-9.446,5.836-11.612
			c3.412-2.66,8.782-4.254,13.158-4.657c4.782-0.509,9.233,0.872,13.953-0.394c4.586-1.191,9.911-1.434,14.001,1.25
			c1.109,0.715,1.896,1.829,3.138,2.516"/>
		<path style="fill:none;stroke:#17192D;stroke-width:3;" d="M402.832,678.934c2.031-3.746,7.831-5.91,11.76-3.785"/>
		<path style="fill:none;stroke:#17192D;stroke-width:3;" d="M421.512,673.24c0.782-2.923,6.033-2.372,8.425-1.889"/>
		<path style="fill:none;stroke:#17192D;stroke-width:3;" d="M410.734,680.33c5.717-2.441,13.31-4.096,19.363-4.391"/>
		<path style="fill:none;stroke:#17192D;stroke-width:3;" d="M383.521,687.047c1.339-0.541,2.81-1.127,4.405-1.295"/>
		<path style="fill:none;stroke:#17192D;stroke-width:3;" d="M362.725,678.533c14.227-7.07,29.622-10.73,45.119-13.525
			c0.862-0.104,1.553-0.301,2.282-0.377"/>
		<path style="fill:none;stroke:#17192D;stroke-width:3;" d="M487.432,693.555c4.361,2.6,6.907,6.633,10.477,10.068
			c3.736,3.546,8.13,6.734,12.011,10.225c7.596,6.43,15.541,12.023,18.515,22.061c0.576,1.938,0.916,4.083,1.521,6.141"/>
		<path style="fill:none;stroke:#17192D;stroke-width:3;" d="M454.938,811.238c7.997-2.545,16.182-4.44,23.891-7.947
			c8.026-3.608,13.639-9.471,20.706-14.539c11.971-8.616,32.083-16.324,32.718-33.658c0.156-3.017-0.604-7.348-0.995-9.854"/>
		<path style="fill:none;stroke:#17192D;stroke-width:3;" d="M420.612,727.409c-0.378,3.114-1.529,6.063-1.064,9.38
			c0.245,2.154,2.212,9.958,7.097,13.1c1.398,0.898,2.307,3.363,2.667,5.018"/>
		<path style="fill:none;stroke:#17192D;stroke-width:3;" d="M441.619,806.881c0.984,0.232,1.668,1.014,2.525,1.48"/>
		<path style="fill:none;stroke:#17192D;stroke-width:3;" d="M428.726,757.652c-0.076-0.703-0.083-1.611,0-2.424"/>
		<path style="fill:none;stroke:#17192D;stroke-width:3;" d="M510.043,752.75c0.096-1.434-0.088-2.955-0.653-4.268"/>
		<path style="fill:none;stroke:#17192D;stroke-width:3;" d="M432.05,763.318c1.094,0.546,2.093,0.225,3.259-0.036"/>
		<path style="fill:none;stroke:#17192D;stroke-width:3;" d="M517.499,732.496"/>
	</g>
	<path style="fill:none;stroke:#17192D;stroke-width:3;" d="M2048,0"/>
	<path style="fill:none;stroke:#17192D;stroke-width:3;" d="M2048,1536"/>
	<path style="fill:none;stroke:#17192D;stroke-width:3;" d="M0,1536"/>
	<path style="fill:none;stroke:#17192D;stroke-width:3;" d="M0,0"/>
</g>
<g id="Layer_1">
</g>
</svg>
