<svg xmlns="http://www.w3.org/2000/svg" width="2048" height="1536" viewBox="0 0 2048 1536"><g fill="none" stroke-width="3"><g stroke="#FF0050"><path d="M1706.57 850.088c2.062.365 4.233-.227 6.224-.164 2.352.074 4.7.324 7.06.266 3.358-.098 7.72-.2 10.46-2.6 2.647-2.314 2.014-6.813.684-9.61-1.717-3.6-3.822-4.855-7.754-5.724-7.494-1.658-14.687-2.11-22.398-1.703M1699.784 820.586c4.113.578 8.84.61 13.004.522 2.63-.054 5.514-.683 8.047.155 2.605.865 5.387 2.44 7.2 4.54 2.244 2.575 1.562 3.967-.077 6.603M1697.032 810.94c1.95.855 6.02.35 8.29.417 2.415.07 4.64.062 6.962.805 3.285 1.053 10.012 3.836 7.895 8.37M1692.89 803.725c4.033.44 7.957-1.254 11.938-.295 3.257.79 7.025 2.773 7.476 6.37M1689.216 793.773c4.256-.678 9.92-1.426 13.943.557 3.542 1.744 8.792 6.316 6.007 10.404M1682.817 810.768c1.393.445 3.54.275 5.184.4M1677.478 803.69c1.332.067 3.012.23 4.48.34M1684.776 818.513c1.32.103 4.133-.073 5.912.22M1682.376 830.285c1.605.258 5.26-.063 7.377-.348"/></g><path d="M2048 0M2048 1536M0 1536M0 0" stroke="#17192D"/></g></svg>