<?xml version="1.0" encoding="iso-8859-1"?>
<!-- Generator: Adobe Illustrator 15.1.0, SVG Export Plug-In . SVG Version: 6.00 Build 0)  -->
<!DOCTYPE svg PUBLIC "-//W3C//DTD SVG 1.1//EN" "http://www.w3.org/Graphics/SVG/1.1/DTD/svg11.dtd">
<svg version="1.1" xmlns="http://www.w3.org/2000/svg" xmlns:xlink="http://www.w3.org/1999/xlink" x="0px" y="0px" width="2048px"
	 height="1536px" viewBox="0 0 2048 1536" style="enable-background:new 0 0 2048 1536;" xml:space="preserve">
<g id="b3b_x5F_corpusm">
	<g>
		<path style="fill:none;stroke:#FF0050;stroke-width:3;" d="M569.121,1047.669c0,9.306,0.373,18.61-0.372,27.544"/>
		<path style="fill:none;stroke:#FF0050;stroke-width:3;" d="M822.519,1116.389c4.306-1.746,8.734-4.901,11.911-9.572"/>
		<path style="fill:none;stroke:#FF0050;stroke-width:3;" d="M835.45,1118.928c1.681-3.384,4.795-7.359,7.102-9.982"/>
		<path style="fill:none;stroke:#FF0050;stroke-width:3;" d="M847.753,1120.711c-0.872,2.051,5.424-6.598,6.231-7.939"/>
		<path style="fill:none;stroke:#FF0050;stroke-width:3;" d="M571.007,1087.6"/>
		<path style="fill:none;stroke:#FF0050;stroke-width:3;" d="M969.41,1150.314c0.736,2.305,2.778,4.721,2.478,7.273"/>
		<path style="fill:none;stroke:#FF0050;stroke-width:3;" d="M791.765,1105.799c-0.052-1.719,0.532-3.281,0.778-4.934"/>
		<path style="fill:none;stroke:#FF0050;stroke-width:3;" d="M938.878,1161.852c8.547,0.471,16.6-1.543,24.925-2.137
			c9.116-0.393,9.616,0.248,18.165,0.709"/>
		<polygon style="fill:none;" points="396.265,941.907 399.188,957.969 399.683,967.502 397.933,973.342 394.815,978.504 
			389.791,976.998 386.609,969.881 385.907,961.617 388.192,953.207 392.017,942.92 		"/>
		<polygon style="fill:none;" points="394.148,912.639 398.21,901.043 397.927,890.82 395.613,885.031 390.761,880.039 
			388.562,877.395 385.203,884.43 384.29,892.676 386.365,901.138 389.927,911.521 		"/>
		<path style="fill:none;stroke:#FF0050;stroke-width:3;" d="M374.064,933.184c2.296,8.385-1.229,15.969-2.019,24.316
			c-0.807,9.434,0.816,16.713,7.597,23.34"/>
		<path style="fill:none;stroke:#FF0050;stroke-width:3;" d="M372.776,872.135c-5.293,11.562-2.695,23.588-2.17,35.941"/>
		<path style="fill:none;stroke:#FF0050;stroke-width:3;" d="M396.265,941.907c0.81,14.14,8.603,23.126-1.449,36.597"/>
		<path style="fill:none;stroke:#FF0050;stroke-width:3;" d="M394.526,883.828c3.866,6.844,6.191,18.383,0.165,26.154"/>
		<path style="fill:none;stroke:#FF0050;stroke-width:3;" d="M434.54,914.389c2.231-0.645,3.774,2.739,3.908,4.754
			c0.432,3.361-1.646,4.678-2.317,7.693"/>
		<path style="fill:none;stroke:#FF0050;stroke-width:3;" d="M424.119,910.732c1.299-2.502,3.68-2.303,5.906-3.109"/>
		<path style="fill:none;stroke:#FF0050;stroke-width:3;" d="M391.972,918.895c10.011-1.215,20.958-1.418,30.676-4.816"/>
		<path style="fill:none;stroke:#FF0050;stroke-width:3;" d="M425.761,931.744c0.279,2.522,3.915,3.744,6.135,4.109"/>
		<path style="fill:none;stroke:#FF0050;stroke-width:3;" d="M436.085,930.533c0.136,1.679-0.043,3.184-0.537,4.527"/>
		<path style="fill:none;stroke:#FF0050;stroke-width:3;" d="M461.717,910.881c2.611,6.578,0.484,11.584,0.403,18.129"/>
		<path style="fill:none;stroke:#FF0050;stroke-width:3;" d="M452.811,912.439c0.382-5.37,6.777-8.984,8.894-13.492"/>
		<path style="fill:none;stroke:#FF0050;stroke-width:3;" d="M453.681,931.258c-0.844,4.02,2.43,8.759,3.811,12.475
			c1.69,4.555,3.706,8.107,6.191,12.166"/>
		<path style="fill:none;stroke:#FF0050;stroke-width:3;" d="M461.788,930.014c-0.088,7.055,5.952,18.549,2.072,24.548"/>
		<path style="fill:none;stroke:#FF0050;stroke-width:3;" d="M461.438,907.512c0.976-1.842,1.64-4.18,1.661-6.193"/>
		<path style="fill:none;stroke:#FF0050;stroke-width:3;" d="M452.785,914.286c0.928,2.196,2.342,3.224,2.31,5.743
			c-0.037,2.682-1.023,5.523-1.061,8.379"/>
		<path style="fill:none;stroke:#FF0050;stroke-width:3;" d="M465.495,900.176c5.305,6.781,7.127,13.523,7.177,22.088
			c0.112,3.691-0.255,7.725-0.779,11.4c-0.688,4.365-3.284,9.035-3.343,13.565"/>
		<path style="fill:none;stroke:#FF0050;stroke-width:3;" d="M339.439,870.607c3.355-1.544,9.377-1.307,13.197-2.215
			c1.003-0.236,2.006-0.492,3.01-0.754"/>
		<path style="fill:none;stroke:#FF0050;stroke-width:3;" d="M393.291,1013.275c6.657,0.084,13.66-1.891,20.333-2.439
			c8.57-0.529,16.204-2.015,24.181-5.408"/>
		<path style="fill:none;stroke:#FF0050;stroke-width:3;" d="M371.08,1028.059c0.272,3.977,6.073,9.125,9.704,10.596
			c4.417,1.797,10.606,1.88,15.379,0.989c5.242-0.886,9.561-3.688,14.952-3.778c5.238-0.096,10.967-1.451,14.509-5.527
			c0.965-1.095,1.459-2.52,2.584-3.619"/>
		<path style="fill:none;stroke:#FF0050;stroke-width:3;" d="M385.519,1028.082c3.289,3.375,10.104,3.936,13.637,0.49"/>
		<path style="fill:none;stroke:#FF0050;stroke-width:3;" d="M407.086,1028.518c1.71,2.877,7.128,0.721,9.527-0.516"/>
		<path style="fill:none;stroke:#FF0050;stroke-width:3;" d="M393.502,1024.225c6.807,0.877,15.379,0.348,21.899-1.156"/>
		<path style="fill:none;stroke:#FF0050;stroke-width:3;" d="M343.009,1040.568c17.248,3.23,34.707,2.498,52.019,0.816
			c0.952-0.148,1.745-0.137,2.54-0.29"/>
		<path style="fill:none;stroke:#FF0050;stroke-width:3;" d="M427.938,1023.076c21.765,2.293,43.418,2.818,64.905,6.193
			c8.789,1.312,20.666,2.173,28.241,7.174"/>
		<path style="fill:none;stroke:#FF0050;stroke-width:3;" d="M470.977,993.779c3.86-4.312,5.356-9.662,8.116-14.67
			c2.921-5.172,6.636-10.162,9.71-15.323c6.15-9.659,12.924-18.481,13.08-30.731c0.027-2.354-0.259-4.873-0.226-7.391"/>
		<path style="fill:none;stroke:#FF0050;stroke-width:3;" d="M444.774,877.981c3.445,1.45,6.893,2.984,10.557,4.308
			c15.311,5.562,39.005,7.719,44.892,25.953c1.071,3.169,1.566,7.992,1.9,10.776"/>
		<path style="fill:none;stroke:#FF0050;stroke-width:3;" d="M504.924,923.404c-1.859,0.334,0.742,0.01,1.11,0.012
			c2.97-0.143,5.936-0.285,8.901-0.248c3.333,0.041,6.856,0.268,10.188,0.307c1.112,0.014,2.276,0.01,3.475-0.02"/>
		<path style="fill:none;stroke:#FF0050;stroke-width:3;" d="M389.355,940.396c0.127,0.803,0.392,1.836,0.724,2.713"/>
		<path style="fill:none;stroke:#FF0050;stroke-width:3;" d="M477.28,919.979c0.533,1.574,0.791,3.345,0.584,5.011"/>
		<path style="fill:none;stroke:#FF0050;stroke-width:3;" d="M573.902,1085.463c0.5-5.732-0.87,9.93-0.428,4.914"/>
		<path style="fill:none;stroke:#FF0050;stroke-width:3;" d="M391.191,932.961c0.995-0.975,2.155-0.928,3.47-1.013"/>
		<path style="fill:none;stroke:#FF0050;stroke-width:3;" d="M810.396,1074.818c-0.187-1.676-0.373-3.354-0.504-5.076"/>
		<path style="fill:none;stroke:#FF0050;stroke-width:3;" d="M740.293,1123.388c11.12-0.72,20.149-6.739,30.715-10.917"/>
		<path style="fill:none;stroke:#FF0050;stroke-width:3;" d="M338.31,870.229c4.703,18.84,4.991,35.146,2.757,55.381
			c-2.234,20.73-3.981,41.463,0.703,61.783c0.478,1.494,1.415,5.457,1.408,5.95"/>
		<path style="fill:none;stroke:#FF0050;stroke-width:3;" d="M309.69,984.021c9.876,0.621,23.656,5.24,33.012,7.83"/>
		<path style="fill:none;stroke:#FF0050;stroke-width:3;" d="M280.366,958.453c-4.703-19.332,0.472-37.553,8.595-54.749
			c10.155-21.616,25.587-30.323,47.892-35.474"/>
		<path style="fill:none;stroke:#FF0050;stroke-width:3;" d="M314.577,988.532c9.851,2.595,19.175,7.653,29.533,9.271
			c-2.596,9.848,8.744,11.973,13.11,18.449c3.877,5.98,4.247,15.866,4.164,22.295"/>
		<path style="fill:none;stroke:#FF0050;stroke-width:3;" d="M279.279,965.848c-0.423,33.602,23.785,73.436,61.773,78.369"/>
		<path style="fill:none;stroke:#FF0050;stroke-width:3;" d="M345.606,1035.877c4.922,1.545,9.855,2.094,14.298,2.646"/>
		<path style="fill:none;stroke:#FF0050;stroke-width:3;" d="M274.386,962.324c-0.498-0.002,3.463-0.446,4.944-0.428"/>
		<path style="fill:none;stroke:#FF0050;stroke-width:3;" d="M523.613,1028.945c-1.038,2.854-0.26,9.861-0.519,13.754
			c-0.26,8.305,0.259,16.352,1.298,24.396c1.816,14.016,6.747,26.992,11.419,39.969c1.298,3.114,3.374,5.969,4.153,8.824
			c0.777,2.854,0,5.969,0.518,8.824c0.779,6.488,4.932,11.159,4.672,17.908c-0.259,11.419,2.103,15.406,6.774,26.047"/>
		<path style="fill:none;stroke:#FF0050;stroke-width:3;" d="M503.919,993.47c10.071-0.313,19.512-3.212,28.515-6.081"/>
		<path style="fill:none;stroke:#FF0050;stroke-width:3;" d="M525.994,935.26c1.313,1.752,3.939,3.939,5.69,4.814"/>
	</g>
	<path style="fill:none;stroke:#17192D;stroke-width:3;" d="M2048,0"/>
	<path style="fill:none;stroke:#17192D;stroke-width:3;" d="M2048,1536"/>
	<path style="fill:none;stroke:#17192D;stroke-width:3;" d="M0,1536"/>
	<path style="fill:none;stroke:#17192D;stroke-width:3;" d="M0,0"/>
</g>
<g id="Layer_1">
</g>
</svg>
