<svg xmlns="http://www.w3.org/2000/svg" width="2048" height="1536" viewBox="0 0 2048 1536"><g fill="none" stroke-width="3"><g stroke="#FF0050"><path d="M1556.175 704.762c3.558-1.273 6.166-3.928 9.836-4.926 2.878-.762 7.322-1.908 8.85-4.42 2.212-3.62-1.573-5.504-5.007-5.85-2.887-.297-7.354 1.27-9.686 2.803-.086.08-.17.15-.258.23M1557.71 680.504c-.504.09-.704-.18-1.113.168 5.51-.62 10.28-7.476 16.306-3.766 2.132 1.305 4.804 4.36 3.34 6.94-.665 1.188-1.974 1.116-2.972 1.64-1.34.71-2.53 1.81-4.01 2.212M1550.522 665.312c4.92-1.58 10.225-4.277 15.64-3.33 4.384.758 10.696 10.973 3.816 12.662M1535.134 671.658c2.27-.703 4.22-2.318 6.6-2.787M1539.276 686.414c1.566-1.31 4.428-1.773 6.342-2.568M1541.407 696.205c1.362-1.03 3.178-1.12 4.64-1.992M1531.374 661.41c.336-1.268 2.04-1.896 4.08-1.664M1513.897 652.494c-1.362.11 4.574-3.424 5.75-3.996 3.547-1.947 7.59-1.817 11.322-3.29 6.993-2.763 13.808-11.175 22.363-8.626M1544.202 656.05c1.334-2.366 10.38-5.405 13.4-6.49 5.336-1.784 15.6 1.815 9.635 8.272M1556.016 636.814c3.496 1.202 6.274 5.504 6.187 9.096"/></g><path d="M2048 0M2048 1536M0 1536M0 0" stroke="#17192D"/></g></svg>