<svg xmlns="http://www.w3.org/2000/svg" width="2048" height="1536" viewBox="0 0 2048 1536"><g fill="none" stroke-width="3"><g stroke="#FF0050"><path d="M1064.636 948.586c.184 3.184 2.126 6.088 4.07 8.625M1154.915 803.67c-4.14 6.744-5.932 13.697-5.48 22.02M1195.84 836.857c11.23 34.15 3.297 57.143 6.3 90.57M1409.04 674.268c31.897-12.613 37.54-50.023 67.186-64.014M1615.237 862.854c31.016 11.002 31.52 32.367 49.756 54.098M934.585 1026.783c11.32 5.23 21.304 10.46 30.77 15.367M1788.515 902.973c-1.027-29.26-25.303-62.757-37.216-88.727-18.206-39.697-46.64-71.77-74.383-104.943-41.537-49.663-32.285-105.324-49.29-162.332-3.73-12.517-9.104-25.073-13.684-37.306-24.87 29.44-45.704 58.05-85.02 67.697-40.43 9.92-61.882 14.298-90.57 45.045-56.16 60.194-138.4-33.956-199.436-48.85-34.36-8.38-66.527 2.27-100.082 4.26-18.608 1.1-37.878 1.05-56.813-1.333-19.047-2.402-36.795-11.523-55.547-12.213-32.168-1.175-56.846 30.665-63.865 58.845-6.028 24.203-5.128 70.762 21.927 84.543M946.77 645.533c-13.92 1.54-99.112 29.94-62.242 49.703 15.7 9.646 55.1-31.03 71.99-35.06M877.877 696.416c13.407 23.812 56.49 21.617 77.41 41.315M1032.003 582.4c3.283 16.97 6.668 32.748 6.4 49.405M1113.31 633.59c17.482-9.193 49.77-24.246 75.887-23.15M1367.48 825.254c32.792 4.953 62.864 12.973 93.418 19.216 30.554 6.25 64.048-5.673 91.884 3.64M1639.667 656.47c-9.37 23.08 8.465 50.372 2.584 75.593M992.938 1057.395c63.92 52.3 72.452-149.29 82-179.592 36.92 20.454 115.476 6.068 121.11-43.295-19.895-4.386-42.49-.617-40.066-30.04 15.324.647 22.877 17.495 40.664 15.892 11.837-.682 24.174-13.15 30.418-21.152M1199.417 943.605c-.05-1.145-.102-2.287-.148-3.435-4.02 39.14-9.653 93.813-48.286 114.413M1474.067 947.318c17.415 13.076 37.723 19.287 56.16 27.48M1224.833 809.41c-4.098 14.344-10.244 24.584-20.486 34.828M1067.093 1092.127c18.44 0 38.924-6.15 55.31-14.346M1204.347 1012.225c14.342-22.53 53.264-36.873 81.947-47.117M1213.192 848.93c41.058-92.506 161.89-49.166 211.06-24.582M1478.467 949.047c-54.122 11.418-139.633 19.12-206.24 2.365M1784.106 903.648c-88.088 38.926-141.35 112.676-245.832 71.703M1700.116 983.545c20.488-20.486 49.166-34.826 49.166-67.604M1790.253 899.55c8.193-6.144 10.243-16.388 4.098-26.63M1501.446 817.246c-6.516 1.74-12.163 6.083-18.244 8.258M977.603 1057.64c-3.53 11.042-12.254 21.164-13.492 32.104-1.217 11.51 6.097 21.506 10.55 31.62 4.526 11.84 10.856 64.85-14.11 44.17M1694.603 986.127c-28.34 20.145-38.08 59.533-68.86 76.35-43.133 22.514-92.84-.525-137.5.277-18.323.234-96.886-.914-113.743 6.697M962.066 1163.11c28.196 2.775 56.838 11.16 85.06 14.513 15.567 2.186 30.04 3.863 46.075 3.738 25.19-.524 53.66.757 77.476-4.876 28.37-6.393 50.1-18.285 79.472-29.174 15.365-5.703 32.608-14.262 47.15-22.348 26.328-13.754 49.072-30.795 76.646-42.314 18.598-7.11 36.693-12.49 55.368-17.89"/></g><path d="M2048 0M2048 1536M0 1536M0 0" stroke="#17192D"/></g></svg>