<svg xmlns="http://www.w3.org/2000/svg" width="2048" height="1536" viewBox="0 0 2048 1536"><g fill="none" stroke-width="3"><g stroke="#FF0050"><path d="M892.304 1149.717c-1.762 4.066-2.006 6.86-2.25 9.652M820.235 921.908c4.206 8.902 10.433 16.36 15.38 24.574M834.885 943.04c2.146 9.147 3.967 17.653 4.827 25.77 1.99 18.84 4.326 43.538 4.847 61.77.35 34.427 1.76 69.202 8.972 101.722 1.144 3.393 1.46 7.11 2.602 10.508M901.377 938.955c-2.103 43.287 21.166 112.926 28.51 143.896 6.776 28.573 7.798 60.524 7.034 89.57-.02 9.886-5.022 13.472-4.577 22.58.354 11.948-1.41 6.343-7.29 15.276M846.526 963.38c-.318-2.034-1.21-3.284-2.104-4.536M817.972 916.762c-1.912-5.76-4.157-11.436-5.42-17.682-1.298-6.398-2.87-12.633-3.903-19.215-.945-6.03-2.29-11.956-3.524-17.98-.55-2.7-1.87-5.533.317-7.917 2.08-2.267 4.993-1.063 6.427 1.476 1.385 2.46 2.068 5.463 3.11 8.08 1.12 2.818 2.16 5.55 3.07 8.506 1.61 5.254 2.555 11.973 5.58 16.758.975 1.54 2.09 2.975 3.33 4.303 1.12 1.193 2.975 2.39 3.494 3.942M832.77 892.902c-1.553-11.014-.52-22.293-2.32-33.69-1.824-11.543-3.467-22.817-4.73-34.355-1.213-11.126-3.362-21.985-5.476-32.854-.78-4.014-3.53-12.17.42-14.578 5.366-3.275 7.933 4.912 9.213 8.48 2.376 6.615 3.688 14.202 5.216 21.153.84 3.827 1.936 7.297 2.715 11.04.712 3.44.053 7.823 1.743 10.784 10.535.17 5.94-20.467 4.897-27.117-.877-5.59-2.242-11.16-3.58-16.465-.853-3.373-3.523-12.367 1.143-13.738 5.195-1.53 9.982 19.682 11.056 23.918 1.224 4.824 2.438 9.643 3.188 14.52.563 3.65 2.77 12.47.68 14.837M878.38 822.025c-2.386-3.864-2.48-10.89-3.592-15.355-1.288-5.19-2.435-10.473-3.756-15.604-1.19-4.617-2.244-10.732-4.683-14.715-2.795-4.572-9.227-7.347-9.124.005.07 5.322 2.104 11.33 2.95 16.74.848 5.426 1.145 10.674 2.477 15.812 1.036 3.992 2.734 11.27.8 15.066-1.717 3.365-5.16 1.102-5.357-2.212M878.264 791.227c.23 1.45.464 2.666.545 3.343.558 4.694 1.964 9.263 2.728 13.937.594 3.62 3.15 9.56 1.408 12.996-1.3 2.566-2.933 2.984-4.402.78-.056-.085-.11-.17-.164-.257M902.96 927.768c.462-5.092.174-10.354-.118-15.494-.612-10.824-1.46-21.54-2.125-32.398-.913-14.963-1.854-29.922-3.644-44.81-1.79-14.864-5.085-28.48-9.413-42.84-.746-2.474-3.57-12.175-7.165-12.1-3.638.083-2.94 6.68-2.23 11.1M889.438 962.223c-1.568-1.152.08-8.36 2.37-11.494"/></g><path d="M2048 0M2048 1536M0 1536M0 0" stroke="#17192D"/></g></svg>