<svg xmlns="http://www.w3.org/2000/svg" width="2048" height="1536" viewBox="0 0 2048 1536"><g fill="none" stroke-width="3"><path d="M422.866 780.414c-.297 7.47-5.368 12.605-8.306 19.137-3.24 7.442-3.812 13.813.218 21.132M435.288 728.93c-6.437 8.885-5.904 19.42-7.268 29.92M401.05 718.604c-.21 17.57-3.71 31.924-10.312 49.123-6.722 17.635-13.02 35.39-13.583 54.268.07 1.406-.017 5.098-.138 5.525M349.837 811.67c8.505 2.818 19.514 10.023 27.107 14.44M330.036 782.53c.328-18.003 9.045-32.768 20.11-45.95 13.863-16.596 29.37-20.683 50.082-20.068M353.082 816.743c8.02 4.54 15.026 11.106 23.73 14.897-4.54 8.025 4.9 12.49 7.236 19.168 2.025 6.122.074 14.865-1.48 20.47M327.386 788.764c-8.09 29.314 3.952 69.773 36.082 82.814M369.372 865.32c3.95 2.49 8.142 4.107 11.906 5.605M323.908 784.557c-.428-.12 3.14.403 4.433.764M368.702 866.06c-1.77 1.366-3.42 2.317-4.764 3.796M437.662 792.754c-2.354 11.877 2.528 21.115-9.195 29.943M437.816 768.656c2.618-9.482-6.317-25.868 7.587-30.842M448.717 744.3c1.9 6.55 1.443 16.63-5.522 21.675M477.13 778.804c2.092-.012 2.707 3.136 2.39 4.833-.353 2.883-2.454 3.486-3.69 5.83M468.797 773.38c1.68-1.78 3.716-1.062 5.848-1.214M438.884 772.723c9.03 1.298 18.658 3.654 27.902 3.07M465.682 791.137c-.3 2.157 2.624 3.998 4.48 4.816M474.986 792.512c-.247 1.426-.73 2.63-1.446 3.625M499.18 779.178c.86 6.047-2.083 9.696-3.575 15.098M491.048 778.424c1.495-4.357 4.217-5.078 6.108-8.936M487.736 794.194c-1.608 3.128.23 7.807.632 11.2.49 4.153-1.976 6.713-1.04 10.746M495.1 795.037c-1.604 5.81-2.184 16.457-7.232 20.082M499.662 776.334c1.256-1.302-1.245-3.105-1.224-4.83M490.622 779.938c.335 2.035 1.354 3.21.78 5.287-.61 2.213-2.09 4.34-2.742 6.7M500.602 770.508c4.838 5.797 7.513 13.516 5.705 20.62-.702 3.08-1.896 6.33-3.15 9.26-1.547 3.437-7.8 6.65-9.164 10.284M403.374 720.61c3.287-.58 8.507 1.01 12.058 1.09 4.74.116 9.588-.175 14.165.493 7.71 1.232 14.58 4.918 20.6 9.56.95.858 1.95 1.573 2.974 2.165M418.564 853.37c5.812 1.606 12.394 1.48 18.367 2.538 7.627 1.507 14.652 1.963 22.412.83M394.895 865.754c-.68 3.53 3.216 9.383 6.054 11.498 3.458 2.594 8.856 4.082 13.24 4.41 4.79.42 9.214-1.047 13.958.13 4.606 1.103 9.938 1.245 13.976-1.515 1.09-.736 1.86-1.865 3.09-2.578M407.527 869.09c2.1 3.71 7.938 5.764 11.823 3.564M426.308 874.428c.84 2.906 6.078 2.265 8.46 1.74M415.4 867.545c5.76 2.332 13.384 3.842 19.442 4.024M388.066 861.336c1.347.516 2.828 1.072 4.427 1.217M367.437 870.242c14.354 6.8 29.814 10.164 45.36 12.673.865.09 1.555.27 2.29.335M445.213 877.7c19.008 5.616 34.306 2.04 52.876 8.568M491.836 852.89c4.312-2.683 6.78-6.767 10.286-10.272 3.67-3.61 8.002-6.885 11.815-10.447 7.48-6.567 15.315-12.304 18.1-22.4.54-1.948.84-4.1 1.407-6.165M457.144 735.824c8.042 2.396 16.264 4.14 24.035 7.504 8.09 3.453 13.814 9.213 20.976 14.145 12.13 8.392 32.382 15.72 33.34 33.04.213 3.017-.466 7.355-.81 9.87M424.397 820.285c-.44-3.11-1.646-6.035-1.242-9.354.204-2.16 1.1-4.71 2.476-6.403 1.736-2.053 3.4-4.062 4.922-6.305.962-1.357 2.845-3.95 3.176-5.615M443.907 740.434c.978-.25 1.648-1.043 2.5-1.52M431.94 789.898c-.063.705-.052 1.61.046 2.422M513.333 793.275c.12 1.426-.033 2.955-.575 4.273M435.16 784.168c1.08-.564 2.085-.264 3.255-.025M521.17 813.383M542.657 763.336c.64-38.012 30.213-58.633 45.177-66.332 9.883-5.082 18.385-7.754 28.405-12.363 8.666-3.976 18.547-8.804 27.954-11.58 12.898-3.825 22.222-6.004 30.435-7.788M647.814 746.68c23.544-9.936 58.35-21.088 83.642-13.457 33.94 10.22 43.336 42.693 38.94 74.68M774.602 832.73c-.304-2.81-.022-4.855.352-7.576M646.814 874.2c-2.792.93-6.49.612-9.862-.34M631.69 982.62c42.224.586 74.357 7.012 111.65 13.698 25.383 4.55 50.547 9.34 76.76 12.588M672.636 855.854c9.175-5.654 25.16-8.14 41.01-4.172 42.162 10.572 55.914 44.098 52.318 71.73-1.15 8.842-5.553 21.264-9.293 29.228M748.914 966.324c.035-1.72.692-3.242 1.02-4.88M720.52 904.848c5.367 4.006 9.73-6.797 1.563-7.64M721.072 912.662c-4.75-2.68-8.08-5.738-7.34-11.787.624-5.104 3.267-10.182 8.802-9.79 10.938.78 10.756 20.823.196 20.98-.506.003-.884.085-1.488-.09M731.447 766.342c-.04.318-.088.627-.147.935 1.8-1.032 4.14-2.874 5.232-.245 1.055 2.55-1.897 3.625-3.437 5.143M727.966 776.373c9.3 8.3 19.677-9.68 10.234-16.008-9.506-6.365-19.288 9.354-10.922 15.908M934.297 757.463c7.68-6.283 23.537-14.898 31.563-20.622 6.594-4.7 12.057-8.31 17.53-11.05M1104.524 652.99c-1.922-.936-3.365-2.857-5.243-4.01M987.07 902.495c.74-34.39.13-85.876-3.104-120.235-3.29-34.773-3.092-69.957 6.96-104.14 2.005-5.37 3.087-11.08 4.663-16.398M996.263 660.895c6.018-10.664 22.965-15.84 34.19-19.063 12.847-3.41 25.335-7.116 38.86-7.712 7.56-.54 14.98.53 22.365 1.29M1122.237 726.483c6.827 11.444 9.525 25.89 12.58 38.657 3.23 13.705 7.878 27.812 9.484 41.81 1.197 11.706 4.075 23.526 5.992 35.612 1.32 8.855 5.407 21.768 4.548 29.71M1324.542 765.754c-15.028 5.635-29.078 12.346-43.92 18.393-15.385 6.506-32.19 10.37-48.248 15.926-13.402 4.36-27.594 6.97-41.635 10.004M1128.515 740.72c21.713 5.75 46.64 7.505 67.703 9.386 30.833 2.668 60.848-1.754 91.348-3.584 25.193-1.545 53.44.324 76.754-2.624M1416.494 689.055c17.358-2.7 33.116-10.624 49.345-15.96 12.85-4.28 33.7-9.618 45.538-18.138M1097.643 635.36c11.215.093 23.42 4.745 34.49 6.76 13.046 2.136 26.09 4.282 39.132 6.418 27.402 4.374 54.197 8.062 81.513 13.706 26.647 5.6 53.446 9.29 80.192 13.615 24.777 4.19 51.854 13.03 76.908 13.403.662.04.61.672 1.272.72M1449.06 747.594c5.86-2.383 9.977-6.936 15.84-9.305 4.895-2.21 10.168-3.003 15.285-4.968 10.76-4.584 22.622-8.162 34.31-9.225 13.357-1.193 30.01-5.387 38.856-16.298M1363.84 746.048c9.78 3.683 19.27 7.8 28.79 11.688 11.54 4.828 19.632 4.85 31.613 2.32 5.363-.986 10.6-2.902 15.016-5.854M1579.437 822.185c2.816-.772 6.39 1.01 8.842 2.05M1539.925 832.492c11.328 6.398 17.63 16.072 31.47 17.826 11.492 1.57 22.974.383 34.216-.835 25.573-2.417 50.594 1.803 75.956 1.907 7.345.1 14.545-.945 21.703-1.56M1687.577 793.912c-6.01.447-18.047-1.006-24.146-1.74-24.067-2.904-46.05-.968-70.214-3.873-12.666-1.534-25.22-3.972-37.363-7.737-6.63-2.19-13.32-3.918-19.83-7.016-5.635-2.52-10.684-5.91-16.316-8.434M1325.995 765.277c5.328 4.32 16.266 10.403 21.836 14.318 21.274 14.92 49.298 21.46 70.55 24.252 16.918 2.225 31.01.104 47.094 3.402 12.844 2.356 26.042 3.366 38.53 7.09 9.49 2.798 28.267 7.67 34.157 16.636M526.737 665.853c11.27-.483 22.144-4.415 32.812-6.3 9.885-1.744 17.56-1.762 29.915-2.652 0 0 22.85.245 40.068 1.99 17.033 1.72 86.283 12.49 118.13 6.558 0 0 10.343-3.332 14.197-6.433M941.223 769c.26 3.178 2.274 6.035 4.278 8.523M1095.558 715.216c2.434-4.5 6.084-10.57 6.652-15.93M1413.49 739.456c4.324 2.26 9.77 3.728 14.92 3.542M880.167 780.16c2.14-9.773 6.327-31.213 4.646-42.695-2.185-14.93-7.533-26.596-14.732-29.066-7.202-2.463-14.988.015-14.988.015M524.676 612.03c2.68.1 14.258 1.935 17.024 2.056 7.69.334 25.295-.666 32.735-1.36 24.806-2.327 64.084-11.362 88.427-13.272 24.604-1.926 51.14-5.742 75.812-6.29 29.577-.925 65.088 5.423 86.716 21.57M498.09 886.27c28.02 10.912 34.42 46.91 39.385 77.023 6.627 40.24 27.478 72.197 53.684 81.793 20.75 7.594 51.688 19.518 86.882 23.42 15.91 1.768 32.44 2.168 48.65 2.645 13.318.376 47.95.286 61.25-.78 13.567-1.094 42.403-.654 57.796.524M757.554 745.89c18.84 2.583 34.783 5.274 49.635 9.72M1238.594 657.842c5.64-1.433 49.6-5.82 68.38-6.025 42.03-.447 57.768 10.697 68.116 17.912 10.303 7.167 28.375 18.976 28.375 18.976M1284.92 584.994M866.92 714.346c-4.117-3.742-7.787-2.813-12.34-5.99-2.032-1.28-3.96-2.117-6.39-1.664-2.157.438-3.548 1.848-5.51 2.735-.53.202-.438.286-.982.222M852.417 720.922c-5.292-1.438-8.61-7.918-13.31-10.55-1.76-.928-3.86-1.485-5.832-1.054-1.793.427-6.807 3.826-8.697 3.986M833.608 720.705c-4.982.37-6.37-4.82-10.614-6.26M808.846 734.78c-.637-6.157-4.704-10.548-.87-16.17 3.14-4.532 10.06-7.462 15.02-4.164M819.553 786.912c-2.19-4.152-4.85-9.73-6.722-15.436-3.737-11.407-3.747-15.122-5.993-21.332-2.242-6.193-5.48-11.646-5.48-11.646s10.14-6.48 14.647 4.684c4.514 11.17 8.23 18.604 11.21 21.572l-4.885-20.094s-4.85-10.344-5.133-15.13M825.07 890.847c1.813-14.552 3.266-29.57 3.297-45.374M824.3 1008.248c-8.82-29.135-7.075-56.576-3.525-84.947M811.832 726.045c1.425.742 2.845 1.293 4.085 2.443M817.378 724.64c-.76 1.23-1.117 2.433-.87 3.625M838.453 732.955c1.476-1.588 1.374-4.314.46-6.16M857.932 733.107c1.84-1.104 1.733-3.996.484-5.488M872.89 731.014c.278-1.717.38-3.595-.19-5.288M816.712 742.564c1.388.41 2.504-.318 3.152-1.488M546.716 746.438M554.647 844.182c3.18-2.723 2.914-5.924.92-9.354M938.204 810.877c5.652 2.58 9.795 8.467 12.52 13.727M896.897 858.012c6.81 2.254 11.2 2.764 18.8.686M910.604 857.662c-2.907-3.825-8.785-3.355-12.58-.775M541.425 806.88c4.106.64 7.19 1.134 10.27 1.614M537.51 788.488c3.212-5.232 5.063-10.59 4.29-17.553M1472.423 737.658c14.438 9.812 29.436 18.318 44.92 26.414M710.275 731.617c36.652-17.287 69.668-29.086 104.343-56.947 5.107-4.1 10.736-7.676 15.073-12.184 13.677-14.224 18.68-32.226-2.262-47.863M629.74 973.13c4.208 1.706 7.563 5.517 8.894 7.925M560.15 933.885c-.742-9.578-2.953-20.436-4.957-28.54M655.896 740.197c-3.865-3.093-9.216-4.94-14.692-5.424M740.085 666.447c3.924 1.814 7.693 4.957 10.256 6.606M823.94 1009.914c2.493 2.973 5.11 4.584 9.215 4.943M583.254 766.934c.994-.832 5.872-4.082 8.768-5.672M819 992.83c-7.363-.64-17.21-1.082-24.184-.707-16.796.908-32.344-.09-48.718 4.096M807.495 966.656c3.65.322 5.472.482 7.298.64M910.635 1009.4c10.727 4.695 22.568 11.758 32.436 16.11 4.564 2.015 9.053 4.29 13.453 6.735 3.1 1.725 6.184 3.348 9.254 4.88M521.177 888.334c3.81-1.506 7.617-3.01 9.6-4.672M884.934 764.197c14.32-6.096 30.657-3.753 45.49-5.21M979.262 914.604c3.648-1.998 5.1-5.338 5.5-9.934M926.16 971.283c1.993 3.65 4.09 6.148 7.434 7.596M615.01 955.654c2.496 2.982 3.626 5.836 6.122 8.81M668.355 708.05c1.608-2.62 3.098-3.87 5.954-4.997M594.868 866.168c3.02 1.39 5.102 4.328 8.536 4.885M981.767 1159.605M878.12 796.094c-.486 3.283-.85 6.566-.972 9.85-.122 4.744-.486 3.527-.85 8.272" stroke="#FF0050"/><path d="M2048 0M2048 1536M0 1536M0 0" stroke="#17192D"/></g></svg>