<?xml version="1.0" encoding="iso-8859-1"?>
<!-- Generator: Adobe Illustrator 15.1.0, SVG Export Plug-In . SVG Version: 6.00 Build 0)  -->
<!DOCTYPE svg PUBLIC "-//W3C//DTD SVG 1.1//EN" "http://www.w3.org/Graphics/SVG/1.1/DTD/svg11.dtd">
<svg version="1.1" xmlns="http://www.w3.org/2000/svg" xmlns:xlink="http://www.w3.org/1999/xlink" x="0px" y="0px" width="2048px"
	 height="1536px" viewBox="0 0 2048 1536" style="enable-background:new 0 0 2048 1536;" xml:space="preserve">
<g id="b3b_x5F_zehen_x5F_v">
	<g>
		<path style="fill:none;stroke:#FF0050;stroke-width:3;" d="M1556.175,704.762c3.558-1.273,6.166-3.928,9.836-4.926
			c2.877-0.762,7.321-1.908,8.85-4.42c2.211-3.619-1.574-5.504-5.008-5.85c-2.887-0.297-7.354,1.27-9.686,2.803
			c-0.086,0.082-0.171,0.152-0.258,0.232"/>
		<path style="fill:none;stroke:#FF0050;stroke-width:3;" d="M1557.709,680.504c-0.503,0.09-0.703-0.18-1.112,0.168
			c5.51-0.619,10.279-7.476,16.306-3.766c2.132,1.305,4.804,4.36,3.341,6.939c-0.666,1.189-1.975,1.117-2.973,1.641
			c-1.34,0.709-2.531,1.811-4.01,2.212"/>
		<path style="fill:none;stroke:#FF0050;stroke-width:3;" d="M1550.522,665.312c4.92-1.58,10.225-4.277,15.639-3.33
			c4.385,0.758,10.697,10.973,3.817,12.662"/>
		<path style="fill:none;stroke:#FF0050;stroke-width:3;" d="M1535.134,671.658c2.27-0.703,4.221-2.318,6.6-2.787"/>
		<path style="fill:none;stroke:#FF0050;stroke-width:3;" d="M1539.276,686.414c1.566-1.309,4.428-1.773,6.342-2.568"/>
		<path style="fill:none;stroke:#FF0050;stroke-width:3;" d="M1541.407,696.205c1.362-1.029,3.178-1.119,4.639-1.992"/>
		<path style="fill:none;stroke:#FF0050;stroke-width:3;" d="M1531.374,661.41c0.336-1.268,2.04-1.896,4.08-1.664"/>
		<path style="fill:none;stroke:#FF0050;stroke-width:3;" d="M1513.897,652.494c-1.362,0.109,4.574-3.424,5.751-3.996
			c3.546-1.947,7.589-1.817,11.321-3.289c6.994-2.764,13.809-11.176,22.364-8.627"/>
		<path style="fill:none;stroke:#FF0050;stroke-width:3;" d="M1544.202,656.049c1.334-2.365,10.379-5.404,13.4-6.488
			c5.336-1.785,15.6,1.814,9.635,8.271"/>
		<path style="fill:none;stroke:#FF0050;stroke-width:3;" d="M1556.016,636.814c3.496,1.202,6.274,5.504,6.187,9.096"/>
	</g>
	<path style="fill:none;stroke:#17192D;stroke-width:3;" d="M2048,0"/>
	<path style="fill:none;stroke:#17192D;stroke-width:3;" d="M2048,1536"/>
	<path style="fill:none;stroke:#17192D;stroke-width:3;" d="M0,1536"/>
	<path style="fill:none;stroke:#17192D;stroke-width:3;" d="M0,0"/>
</g>
<g id="Layer_1">
</g>
</svg>
