<?xml version="1.0" encoding="iso-8859-1"?>
<!-- Generator: Adobe Illustrator 15.1.0, SVG Export Plug-In . SVG Version: 6.00 Build 0)  -->
<!DOCTYPE svg PUBLIC "-//W3C//DTD SVG 1.1//EN" "http://www.w3.org/Graphics/SVG/1.1/DTD/svg11.dtd">
<svg version="1.1" xmlns="http://www.w3.org/2000/svg" xmlns:xlink="http://www.w3.org/1999/xlink" x="0px" y="0px" width="2048px"
	 height="1536px" viewBox="0 0 2048 1536" style="enable-background:new 0 0 2048 1536;" xml:space="preserve">
<g id="b3b_x5F_kissen">
	<g>
		<path style="fill:none;stroke:#FF0050;stroke-width:3;" d="M515.055,770.206c-10.083-34.226,13.235-76.374,8.941-112.259
			c-4.402-34.846-22.713-65.523-35.233-97.844l0,0c-57.439,0.848-106.688-35.314-164.229-33.428
			c-55.206,1.02-92.288,23.295-136.479,49.211c41.378,13.607,74.318,32.852,119.979,37.372c35.609,3.76,67.48-0.087,102.807-4.717"
			/>
		<path style="fill:none;stroke:#FF0050;stroke-width:3;" d="M293.163,906.023c-48.37-73.002-57.636-134.366-87.312-192.951
			c-24.98-46.311-26.674-88.68-21.642-139.201"/>
		<path style="fill:none;stroke:#FF0050;stroke-width:3;" d="M435.684,720.34c12.771,1.12,25.857-1.419,37.441-7.756"/>
		<path style="fill:none;stroke:#FF0050;stroke-width:3;" d="M427.613,602.298c21.219-10.151,37.638-27.39,59.846-29.058"/>
		<path style="fill:none;stroke:#FF0050;stroke-width:3;" d="M420.148,621.9c4.974,5.42,8.119,10.699,9.113,19.18"/>
		<path style="fill:none;stroke:#FF0050;stroke-width:3;" d="M247.604,620.515c-7.626,2.784-10.281,10.985-7.633,21.273"/>
		<path style="fill:none;stroke:#FF0050;stroke-width:3;" d="M368.192,714.441c-21.889-1.916-35.049-19.607-52.49-30.324"/>
		<path style="fill:none;stroke:#FF0050;stroke-width:3;" d="M336.772,737.426c-14.362,17.126-36.727,20.682-54.103,30.191"/>
		<path style="fill:none;stroke:#FF0050;stroke-width:3;" d="M307.074,824.9c-1.824-0.168,8.094-8.49,12.059-11.818"/>
		<path style="fill:none;stroke:#FF0050;stroke-width:3;" d="M365.955,568.635c-25.391-1.463-49.098,3.434-73.027,3.191"/>
		<path style="fill:none;stroke:#FF0050;stroke-width:3;" d="M320.391,858.646c-8.334-3.051-14.121-10.32-21.805-14.086"/>
	</g>
	<path style="fill:none;stroke:#17192D;stroke-width:3;" d="M2048,0"/>
	<path style="fill:none;stroke:#17192D;stroke-width:3;" d="M2048,1536"/>
	<path style="fill:none;stroke:#17192D;stroke-width:3;" d="M0,1536"/>
	<path style="fill:none;stroke:#17192D;stroke-width:3;" d="M0,0"/>
</g>
<g id="Layer_1">
</g>
</svg>
