<?xml version="1.0" encoding="iso-8859-1"?>
<!-- Generator: Adobe Illustrator 15.1.0, SVG Export Plug-In . SVG Version: 6.00 Build 0)  -->
<!DOCTYPE svg PUBLIC "-//W3C//DTD SVG 1.1//EN" "http://www.w3.org/Graphics/SVG/1.1/DTD/svg11.dtd">
<svg version="1.1" xmlns="http://www.w3.org/2000/svg" xmlns:xlink="http://www.w3.org/1999/xlink" x="0px" y="0px" width="2048px"
	 height="1536px" viewBox="0 0 2048 1536" style="enable-background:new 0 0 2048 1536;" xml:space="preserve">
<g id="b3b_x5F_zehen_x5F_h">
	<g>
		<path style="fill:none;stroke:#FF0050;stroke-width:3;" d="M1706.569,850.088c2.063,0.365,4.234-0.227,6.225-0.164
			c2.352,0.074,4.699,0.324,7.059,0.266c3.359-0.098,7.721-0.199,10.46-2.6c2.648-2.314,2.015-6.813,0.685-9.609
			c-1.717-3.602-3.822-4.856-7.754-5.725c-7.494-1.658-14.687-2.111-22.398-1.703"/>
		<path style="fill:none;stroke:#FF0050;stroke-width:3;" d="M1699.784,820.586c4.113,0.578,8.84,0.609,13.004,0.522
			c2.629-0.054,5.514-0.683,8.047,0.155c2.605,0.865,5.387,2.439,7.201,4.539c2.243,2.576,1.561,3.968-0.078,6.604"/>
		<path style="fill:none;stroke:#FF0050;stroke-width:3;" d="M1697.032,810.939c1.949,0.856,6.021,0.35,8.289,0.418
			c2.416,0.07,4.642,0.062,6.963,0.805c3.285,1.053,10.012,3.836,7.895,8.371"/>
		<path style="fill:none;stroke:#FF0050;stroke-width:3;" d="M1692.889,803.725c4.034,0.439,7.958-1.254,11.939-0.295
			c3.257,0.791,7.025,2.773,7.476,6.369"/>
		<path style="fill:none;stroke:#FF0050;stroke-width:3;" d="M1689.216,793.773c4.256-0.678,9.92-1.426,13.943,0.557
			c3.543,1.744,8.793,6.316,6.008,10.404"/>
		<path style="fill:none;stroke:#FF0050;stroke-width:3;" d="M1682.817,810.768c1.393,0.445,3.539,0.275,5.184,0.401"/>
		<path style="fill:none;stroke:#FF0050;stroke-width:3;" d="M1677.478,803.689c1.332,0.068,3.012,0.23,4.48,0.342"/>
		<path style="fill:none;stroke:#FF0050;stroke-width:3;" d="M1684.776,818.513c1.32,0.103,4.133-0.073,5.912,0.221"/>
		<path style="fill:none;stroke:#FF0050;stroke-width:3;" d="M1682.376,830.285c1.605,0.258,5.259-0.063,7.377-0.348"/>
	</g>
	<path style="fill:none;stroke:#17192D;stroke-width:3;" d="M2048,0"/>
	<path style="fill:none;stroke:#17192D;stroke-width:3;" d="M2048,1536"/>
	<path style="fill:none;stroke:#17192D;stroke-width:3;" d="M0,1536"/>
	<path style="fill:none;stroke:#17192D;stroke-width:3;" d="M0,0"/>
</g>
<g id="Layer_1">
</g>
</svg>
