<?xml version="1.0" encoding="iso-8859-1"?>
<!-- Generator: Adobe Illustrator 15.1.0, SVG Export Plug-In . SVG Version: 6.00 Build 0)  -->
<!DOCTYPE svg PUBLIC "-//W3C//DTD SVG 1.1//EN" "http://www.w3.org/Graphics/SVG/1.1/DTD/svg11.dtd">
<svg version="1.1" xmlns="http://www.w3.org/2000/svg" xmlns:xlink="http://www.w3.org/1999/xlink" x="0px" y="0px" width="2048px"
	 height="1536px" viewBox="0 0 2048 1536" style="enable-background:new 0 0 2048 1536;" xml:space="preserve">
<g id="b3b_x5F_fussm_x5F_h">
	<g>
		<path style="fill:none;stroke:#FF0050;stroke-width:3;" d="M1714.192,996.866c1.525-0.075,10.547-3.87,5.962-3.671"/>
		<path style="fill:none;stroke:#FF0050;stroke-width:3;" d="M1766.466,961.048c10.215-3.796,20.613-8.358,27.885-14.157"/>
		<path style="fill:none;stroke:#FF0050;stroke-width:3;" d="M1726.521,1059.523c6.41-2.871,10.9-8.406,17.315-11.262
			c5.356-2.664,11.134-3.611,16.732-5.969c11.773-5.531,24.763-9.838,37.569-11.07c14.637-1.386,32.871-6.408,42.518-19.662"/>
		<path style="fill:none;stroke:#FF0050;stroke-width:3;" d="M1633.072,1057.182c10.741,4.545,21.169,9.617,31.628,14.414
			c12.682,5.951,21.553,6.018,34.675,3c5.876-1.178,11.612-3.486,16.435-7.062"/>
		<path style="fill:none;stroke:#FF0050;stroke-width:3;" d="M1843.733,1007.875c3.894-1.538,6.74-4.765,10.764-5.955
			c3.145-0.924,8.005-2.299,9.67-5.351c2.406-4.407-1.753-6.72-5.518-7.163c-3.166-0.375-8.059,1.506-10.605,3.369
			c-0.097,0.102-0.185,0.186-0.281,0.281"/>
		<path style="fill:none;stroke:#FF0050;stroke-width:3;" d="M1845.282,978.285c-0.547,0.107-0.77-0.209-1.221,0.199
			c6.043-0.719,11.234-9.053,17.863-4.504c2.344,1.607,5.289,5.351,3.695,8.49c-0.721,1.436-2.156,1.348-3.244,1.979
			c-1.467,0.861-2.766,2.193-4.383,2.678"/>
		<path style="fill:none;stroke:#FF0050;stroke-width:3;" d="M1837.321,959.723c5.385-1.902,11.189-5.158,17.131-3.974
			c4.811,0.95,11.787,13.437,4.254,15.458"/>
		<path style="fill:none;stroke:#FF0050;stroke-width:3;" d="M1820.485,967.377c2.486-0.836,4.615-2.803,7.221-3.36"/>
		<path style="fill:none;stroke:#FF0050;stroke-width:3;" d="M1825.104,985.398c1.709-1.592,4.846-2.141,6.941-3.092"/>
		<path style="fill:none;stroke:#FF0050;stroke-width:3;" d="M1827.493,997.357c1.486-1.246,3.48-1.354,5.078-2.404"/>
		<path style="fill:none;stroke:#FF0050;stroke-width:3;" d="M1687.478,1049.405c4.752,2.78,10.727,4.606,16.377,4.399"/>
		<path style="fill:none;stroke:#FF0050;stroke-width:3;" d="M1816.308,954.863c0.363-1.545,2.227-2.297,4.463-1.998"/>
		<path style="fill:none;stroke:#FF0050;stroke-width:3;" d="M1797.097,943.904c-1.492,0.121,4.996-4.16,6.285-4.85
			c3.877-2.35,8.309-2.172,12.391-3.951c7.658-3.337,15.08-13.555,24.478-10.401"/>
		<path style="fill:none;stroke:#FF0050;stroke-width:3;" d="M1830.345,948.396c1.447-2.872,11.348-6.529,14.655-7.84
			c5.839-2.15,17.116,2.301,10.608,10.145"/>
		<path style="fill:none;stroke:#FF0050;stroke-width:3;" d="M1843.192,925c3.84,1.486,6.906,6.75,6.83,11.129"/>
		<path style="fill:none;stroke:#FF0050;stroke-width:3;" d="M1761.809,960.553c-11.45,10.018-31.487,8.586-45.8,6.439"/>
	</g>
	<path style="fill:none;stroke:#17192D;stroke-width:3;" d="M2048,0"/>
	<path style="fill:none;stroke:#17192D;stroke-width:3;" d="M2048,1536"/>
	<path style="fill:none;stroke:#17192D;stroke-width:3;" d="M0,1536"/>
	<path style="fill:none;stroke:#17192D;stroke-width:3;" d="M0,0"/>
</g>
<g id="Layer_1">
</g>
</svg>
