<?xml version="1.0" encoding="iso-8859-1"?>
<!-- Generator: Adobe Illustrator 15.1.0, SVG Export Plug-In . SVG Version: 6.00 Build 0)  -->
<!DOCTYPE svg PUBLIC "-//W3C//DTD SVG 1.1//EN" "http://www.w3.org/Graphics/SVG/1.1/DTD/svg11.dtd">
<svg version="1.1" xmlns="http://www.w3.org/2000/svg" xmlns:xlink="http://www.w3.org/1999/xlink" x="0px" y="0px" width="2048px"
	 height="1536px" viewBox="0 0 2048 1536" style="enable-background:new 0 0 2048 1536;" xml:space="preserve">
<g id="b3b_x5F_frau">
	<path style="fill:none;stroke:#FF0050;stroke-width:3;" d="M422.866,780.414c-0.297,7.47-5.368,12.605-8.306,19.137
		c-3.239,7.441-3.812,13.812,0.218,21.131"/>
	<path style="fill:none;stroke:#FF0050;stroke-width:3;" d="M435.288,728.93c-6.437,8.885-5.904,19.421-7.268,29.92"/>
	<path style="fill:none;stroke:#FF0050;stroke-width:3;" d="M401.049,718.604c-0.21,17.57-3.71,31.924-10.311,49.123
		c-6.722,17.635-13.021,35.39-13.583,54.268c0.071,1.406-0.017,5.098-0.138,5.525"/>
	<path style="fill:none;stroke:#FF0050;stroke-width:3;" d="M349.837,811.67c8.505,2.818,19.514,10.023,27.107,14.44"/>
	<path style="fill:none;stroke:#FF0050;stroke-width:3;" d="M330.036,782.529c0.328-18.002,9.045-32.767,20.109-45.949
		c13.864-16.596,29.37-20.683,50.083-20.068"/>
	<path style="fill:none;stroke:#FF0050;stroke-width:3;" d="M353.082,816.743c8.021,4.54,15.026,11.106,23.729,14.897
		c-4.54,8.025,4.902,12.49,7.237,19.168c2.025,6.122,0.074,14.865-1.479,20.471"/>
	<path style="fill:none;stroke:#FF0050;stroke-width:3;" d="M327.386,788.764c-8.09,29.314,3.952,69.773,36.082,82.814"/>
	<path style="fill:none;stroke:#FF0050;stroke-width:3;" d="M369.372,865.32c3.95,2.489,8.142,4.107,11.906,5.605"/>
	<path style="fill:none;stroke:#FF0050;stroke-width:3;" d="M323.908,784.557c-0.428-0.121,3.141,0.403,4.433,0.764"/>
	<path style="fill:none;stroke:#FF0050;stroke-width:3;" d="M368.702,866.061c-1.77,1.365-3.42,2.316-4.764,3.795"/>
	<path style="fill:none;stroke:#FF0050;stroke-width:3;" d="M437.662,792.754c-2.354,11.877,2.528,21.115-9.195,29.943"/>
	<path style="fill:none;stroke:#FF0050;stroke-width:3;" d="M437.816,768.656c2.618-9.482-6.317-25.868,7.587-30.842"/>
	<path style="fill:none;stroke:#FF0050;stroke-width:3;" d="M448.717,744.301c1.899,6.549,1.443,16.629-5.522,21.674"/>
	<path style="fill:none;stroke:#FF0050;stroke-width:3;" d="M477.13,778.804c2.092-0.012,2.707,3.136,2.391,4.833
		c-0.354,2.883-2.455,3.486-3.692,5.831"/>
	<path style="fill:none;stroke:#FF0050;stroke-width:3;" d="M468.797,773.379c1.68-1.779,3.716-1.061,5.848-1.213"/>
	<path style="fill:none;stroke:#FF0050;stroke-width:3;" d="M438.884,772.723c9.03,1.298,18.658,3.654,27.902,3.069"/>
	<path style="fill:none;stroke:#FF0050;stroke-width:3;" d="M465.682,791.137c-0.299,2.157,2.624,3.998,4.479,4.816"/>
	<path style="fill:none;stroke:#FF0050;stroke-width:3;" d="M474.986,792.512c-0.247,1.426-0.729,2.631-1.446,3.625"/>
	<path style="fill:none;stroke:#FF0050;stroke-width:3;" d="M499.18,779.178c0.861,6.047-2.083,9.696-3.575,15.098"/>
	<path style="fill:none;stroke:#FF0050;stroke-width:3;" d="M491.048,778.424c1.495-4.357,4.217-5.078,6.108-8.936"/>
	<path style="fill:none;stroke:#FF0050;stroke-width:3;" d="M487.736,794.194c-1.608,3.128,0.229,7.807,0.632,11.2
		c0.489,4.153-1.976,6.713-1.04,10.746"/>
	<path style="fill:none;stroke:#FF0050;stroke-width:3;" d="M495.1,795.037c-1.604,5.81-2.184,16.457-7.232,20.082"/>
	<path style="fill:none;stroke:#FF0050;stroke-width:3;" d="M499.662,776.334c1.256-1.302-1.245-3.105-1.224-4.831"/>
	<path style="fill:none;stroke:#FF0050;stroke-width:3;" d="M490.622,779.938c0.335,2.035,1.354,3.209,0.781,5.287
		c-0.612,2.213-2.092,4.34-2.743,6.699"/>
	<path style="fill:none;stroke:#FF0050;stroke-width:3;" d="M500.602,770.508c4.838,5.797,7.513,13.516,5.705,20.62
		c-0.702,3.079-1.896,6.329-3.151,9.261c-1.546,3.436-7.8,6.65-9.163,10.283"/>
	<path style="fill:none;stroke:#FF0050;stroke-width:3;" d="M403.374,720.609c3.287-0.58,8.507,1.01,12.058,1.09
		c4.739,0.117,9.588-0.174,14.165,0.494c7.71,1.232,14.579,4.918,20.6,9.559c0.95,0.859,1.949,1.574,2.974,2.166"/>
	<path style="fill:none;stroke:#FF0050;stroke-width:3;" d="M418.564,853.369c5.812,1.607,12.394,1.482,18.367,2.539
		c7.626,1.507,14.651,1.963,22.411,0.83"/>
	<path style="fill:none;stroke:#FF0050;stroke-width:3;" d="M394.895,865.754c-0.68,3.531,3.216,9.383,6.054,11.498
		c3.459,2.594,8.857,4.082,13.241,4.409c4.789,0.421,9.214-1.046,13.958,0.13c4.606,1.104,9.938,1.246,13.976-1.514
		c1.091-0.736,1.859-1.865,3.09-2.578"/>
	<path style="fill:none;stroke:#FF0050;stroke-width:3;" d="M407.527,869.09c2.101,3.709,7.938,5.764,11.823,3.564"/>
	<path style="fill:none;stroke:#FF0050;stroke-width:3;" d="M426.308,874.428c0.839,2.906,6.078,2.265,8.46,1.74"/>
	<path style="fill:none;stroke:#FF0050;stroke-width:3;" d="M415.401,867.545c5.759,2.332,13.383,3.842,19.441,4.024"/>
	<path style="fill:none;stroke:#FF0050;stroke-width:3;" d="M388.066,861.336c1.347,0.516,2.828,1.072,4.427,1.217"/>
	<path style="fill:none;stroke:#FF0050;stroke-width:3;" d="M367.437,870.242c14.354,6.799,29.814,10.164,45.361,12.673
		c0.864,0.091,1.554,0.27,2.288,0.335"/>
	<path style="fill:none;stroke:#FF0050;stroke-width:3;" d="M445.213,877.699c19.008,5.617,34.306,2.041,52.876,8.569"/>
	<path style="fill:none;stroke:#FF0050;stroke-width:3;" d="M491.836,852.889c4.312-2.682,6.781-6.766,10.286-10.271
		c3.67-3.609,8.002-6.885,11.815-10.447c7.479-6.568,15.315-12.305,18.101-22.402c0.539-1.947,0.839-4.098,1.406-6.164"/>
	<path style="fill:none;stroke:#FF0050;stroke-width:3;" d="M457.144,735.824c8.042,2.396,16.264,4.141,24.035,7.504
		c8.092,3.453,13.815,9.213,20.977,14.145c12.129,8.392,32.382,15.721,33.341,33.041c0.212,3.016-0.467,7.354-0.81,9.87"/>
	<path style="fill:none;stroke:#FF0050;stroke-width:3;" d="M424.397,820.285c-0.439-3.109-1.646-6.035-1.242-9.354
		c0.204-2.162,1.101-4.71,2.476-6.404c1.735-2.053,3.398-4.062,4.921-6.305c0.962-1.357,2.845-3.95,3.176-5.615"/>
	<path style="fill:none;stroke:#FF0050;stroke-width:3;" d="M443.907,740.434c0.978-0.251,1.648-1.043,2.501-1.521"/>
	<path style="fill:none;stroke:#FF0050;stroke-width:3;" d="M431.941,789.898c-0.064,0.705-0.053,1.609,0.045,2.422"/>
	<path style="fill:none;stroke:#FF0050;stroke-width:3;" d="M513.333,793.275c0.121,1.426-0.033,2.955-0.575,4.273"/>
	<path style="fill:none;stroke:#FF0050;stroke-width:3;" d="M435.159,784.168c1.081-0.564,2.086-0.264,3.256-0.025"/>
	<path style="fill:none;stroke:#FF0050;stroke-width:3;" d="M521.17,813.383"/>
	<path style="fill:none;stroke:#FF0050;stroke-width:3;" d="M542.657,763.336c0.64-38.012,30.213-58.633,45.177-66.332
		c9.883-5.082,18.385-7.754,28.405-12.363c8.667-3.977,18.548-8.805,27.955-11.582c12.898-3.824,22.222-6.003,30.435-7.787"/>
	<path style="fill:none;stroke:#FF0050;stroke-width:3;" d="M647.814,746.68c23.544-9.936,58.35-21.088,83.642-13.457
		c33.94,10.219,43.336,42.693,38.939,74.68"/>
	<path style="fill:none;stroke:#FF0050;stroke-width:3;" d="M774.602,832.73c-0.304-2.811-0.022-4.855,0.352-7.576"/>
	<path style="fill:none;stroke:#FF0050;stroke-width:3;" d="M646.814,874.201c-2.792,0.928-6.489,0.611-9.862-0.342"/>
	<path style="fill:none;stroke:#FF0050;stroke-width:3;" d="M631.691,982.621c42.223,0.585,74.356,7.011,111.65,13.697
		c25.382,4.55,50.546,9.34,76.758,12.588"/>
	<path style="fill:none;stroke:#FF0050;stroke-width:3;" d="M672.636,855.854c9.175-5.654,25.161-8.141,41.011-4.172
		c42.161,10.572,55.913,44.098,52.317,71.729c-1.149,8.843-5.553,21.265-9.293,29.229"/>
	<path style="fill:none;stroke:#FF0050;stroke-width:3;" d="M748.914,966.324c0.035-1.721,0.692-3.242,1.021-4.879"/>
	<path style="fill:none;stroke:#FF0050;stroke-width:3;" d="M720.521,904.848c5.366,4.006,9.729-6.797,1.562-7.641"/>
	<path style="fill:none;stroke:#FF0050;stroke-width:3;" d="M721.072,912.662c-4.75-2.681-8.079-5.738-7.341-11.787
		c0.625-5.104,3.268-10.182,8.803-9.791c10.938,0.781,10.756,20.824,0.196,20.98c-0.506,0.004-0.884,0.086-1.488-0.09"/>
	<path style="fill:none;stroke:#FF0050;stroke-width:3;" d="M731.447,766.342c-0.041,0.318-0.088,0.627-0.147,0.935
		c1.801-1.032,4.14-2.874,5.232-0.245c1.055,2.551-1.897,3.625-3.437,5.143"/>
	<path style="fill:none;stroke:#FF0050;stroke-width:3;" d="M727.966,776.373c9.301,8.299,19.677-9.68,10.234-16.008
		c-9.506-6.365-19.288,9.354-10.922,15.908"/>
	<path style="fill:none;stroke:#FF0050;stroke-width:3;" d="M934.297,757.463c7.681-6.283,23.537-14.898,31.563-20.622
		c6.594-4.7,12.057-8.312,17.529-11.05"/>
	<path style="fill:none;stroke:#FF0050;stroke-width:3;" d="M1104.524,652.99c-1.922-0.936-3.365-2.857-5.243-4.01"/>
	<path style="fill:none;stroke:#FF0050;stroke-width:3;" d="M987.071,902.495c0.738-34.39,0.128-85.876-3.105-120.235
		c-3.289-34.773-3.092-69.957,6.959-104.139c2.006-5.371,3.088-11.081,4.664-16.399"/>
	<path style="fill:none;stroke:#FF0050;stroke-width:3;" d="M996.263,660.895c6.018-10.664,22.965-15.84,34.189-19.063
		c12.848-3.411,25.336-7.116,38.86-7.712c7.562-0.539,14.982,0.531,22.366,1.289"/>
	<path style="fill:none;stroke:#FF0050;stroke-width:3;" d="M1122.237,726.483c6.827,11.444,9.525,25.89,12.58,38.657
		c3.23,13.705,7.878,27.812,9.484,41.811c1.196,11.705,4.074,23.525,5.991,35.611c1.319,8.855,5.407,21.768,4.548,29.709"/>
	<path style="fill:none;stroke:#FF0050;stroke-width:3;" d="M1324.542,765.754c-15.028,5.635-29.078,12.346-43.919,18.393
		c-15.386,6.506-32.19,10.369-48.249,15.926c-13.402,4.361-27.594,6.971-41.635,10.004"/>
	<path style="fill:none;stroke:#FF0050;stroke-width:3;" d="M1128.515,740.721c21.713,5.748,46.641,7.504,67.703,9.385
		c30.833,2.668,60.848-1.754,91.348-3.584c25.193-1.545,53.439,0.324,76.754-2.624"/>
	<path style="fill:none;stroke:#FF0050;stroke-width:3;" d="M1416.494,689.055c17.358-2.699,33.116-10.624,49.345-15.959
		c12.852-4.281,33.702-9.619,45.539-18.139"/>
	<path style="fill:none;stroke:#FF0050;stroke-width:3;" d="M1097.643,635.361c11.215,0.092,23.419,4.744,34.491,6.76
		c13.045,2.135,26.088,4.281,39.131,6.417c27.402,4.374,54.197,8.062,81.513,13.706c26.647,5.6,53.446,9.289,80.192,13.615
		c24.777,4.191,51.854,13.031,76.908,13.404c0.662,0.039,0.611,0.672,1.272,0.719"/>
	<path style="fill:none;stroke:#FF0050;stroke-width:3;" d="M1449.06,747.594c5.859-2.383,9.977-6.936,15.839-9.305
		c4.896-2.209,10.169-3.002,15.286-4.967c10.761-4.584,22.622-8.162,34.31-9.225c13.357-1.193,30.011-5.387,38.856-16.298"/>
	<path style="fill:none;stroke:#FF0050;stroke-width:3;" d="M1363.839,746.048c9.781,3.683,19.27,7.8,28.791,11.688
		c11.541,4.828,19.632,4.851,31.613,2.32c5.363-0.986,10.601-2.902,15.016-5.854"/>
	<path style="fill:none;stroke:#FF0050;stroke-width:3;" d="M1579.437,822.185c2.816-0.772,6.389,1.011,8.842,2.05"/>
	<path style="fill:none;stroke:#FF0050;stroke-width:3;" d="M1539.925,832.492c11.328,6.398,17.629,16.072,31.469,17.826
		c11.493,1.57,22.975,0.383,34.217-0.835c25.572-2.417,50.593,1.803,75.955,1.907c7.345,0.1,14.545-0.945,21.703-1.561"/>
	<path style="fill:none;stroke:#FF0050;stroke-width:3;" d="M1687.577,793.912c-6.011,0.447-18.047-1.006-24.146-1.739
		c-24.068-2.905-46.051-0.969-70.215-3.874c-12.666-1.533-25.221-3.971-37.363-7.736c-6.63-2.189-13.32-3.918-19.83-7.016
		c-5.635-2.521-10.684-5.91-16.316-8.434"/>
	<path style="fill:none;stroke:#FF0050;stroke-width:3;" d="M1325.995,765.277c5.328,4.32,16.266,10.403,21.836,14.318
		c21.273,14.92,49.297,21.459,70.549,24.252c16.918,2.225,31.009,0.104,47.094,3.402c12.844,2.357,26.042,3.367,38.529,7.092
		c9.49,2.797,28.268,7.668,34.158,16.635"/>
	<path style="fill:none;stroke:#FF0050;stroke-width:3;" d="M526.737,665.853c11.271-0.483,22.144-4.415,32.812-6.299
		c9.886-1.745,17.562-1.763,29.916-2.653c0,0,22.851,0.244,40.068,1.988c17.033,1.721,86.283,12.492,118.129,6.559
		c0,0,10.344-3.332,14.198-6.433"/>
	<path style="fill:none;stroke:#FF0050;stroke-width:3;" d="M941.223,769c0.261,3.178,2.274,6.035,4.278,8.523"/>
	<path style="fill:none;stroke:#FF0050;stroke-width:3;" d="M1095.558,715.216c2.434-4.499,6.084-10.571,6.652-15.931"/>
	<path style="fill:none;stroke:#FF0050;stroke-width:3;" d="M1413.489,739.456c4.325,2.259,9.77,3.728,14.921,3.542"/>
	<path style="fill:none;stroke:#FF0050;stroke-width:3;" d="M880.167,780.16c2.141-9.773,6.327-31.213,4.646-42.695
		c-2.185-14.93-7.533-26.596-14.732-29.066c-7.203-2.462-14.989,0.016-14.989,0.016"/>
	<path style="fill:none;stroke:#FF0050;stroke-width:3;" d="M524.676,612.029c2.68,0.1,14.258,1.936,17.024,2.057
		c7.69,0.334,25.295-0.666,32.735-1.361c24.806-2.326,64.084-11.361,88.427-13.271c24.604-1.926,51.141-5.742,75.812-6.291
		c29.577-0.924,65.088,5.424,86.716,21.57"/>
	<path style="fill:none;stroke:#FF0050;stroke-width:3;" d="M498.089,886.269c28.02,10.913,34.42,46.911,39.386,77.024
		c6.627,40.24,27.478,72.197,53.684,81.793c20.752,7.594,51.689,19.518,86.883,23.42c15.909,1.768,32.441,2.168,48.649,2.645
		c13.319,0.375,47.95,0.285,61.25-0.78c13.568-1.095,42.404-0.655,57.797,0.523"/>
	<path style="fill:none;stroke:#FF0050;stroke-width:3;" d="M757.554,745.891c18.839,2.582,34.783,5.273,49.635,9.719"/>
	<path style="fill:none;stroke:#FF0050;stroke-width:3;" d="M1238.594,657.842c5.64-1.433,49.599-5.82,68.381-6.025
		c42.03-0.447,57.767,10.697,68.115,17.912c10.303,7.168,28.375,18.977,28.375,18.977"/>
	<path style="fill:none;stroke:#FF0050;stroke-width:3;" d="M1284.919,584.994"/>
	<path style="fill:none;stroke:#FF0050;stroke-width:3;" d="M866.919,714.346c-4.116-3.742-7.786-2.813-12.338-5.991
		c-2.033-1.278-3.962-2.116-6.39-1.663c-2.158,0.438-3.549,1.848-5.51,2.735c-0.53,0.202-0.439,0.286-0.983,0.222"/>
	<path style="fill:none;stroke:#FF0050;stroke-width:3;" d="M852.417,720.922c-5.292-1.438-8.609-7.918-13.311-10.551
		c-1.758-0.927-3.858-1.484-5.831-1.053c-1.793,0.427-6.807,3.826-8.697,3.986"/>
	<path style="fill:none;stroke:#FF0050;stroke-width:3;" d="M833.608,720.705c-4.982,0.371-6.369-4.819-10.614-6.259"/>
	<path style="fill:none;stroke:#FF0050;stroke-width:3;" d="M808.846,734.779c-0.637-6.156-4.704-10.547-0.871-16.168
		c3.14-4.533,10.061-7.463,15.02-4.165"/>
	<path style="fill:none;stroke:#FF0050;stroke-width:3;" d="M819.553,786.912c-2.191-4.152-4.85-9.73-6.722-15.436
		c-3.738-11.407-3.748-15.122-5.994-21.332c-2.242-6.193-5.481-11.646-5.481-11.646s10.141-6.48,14.648,4.684
		c4.514,11.17,8.23,18.604,11.211,21.572l-4.886-20.094c0,0-4.85-10.344-5.132-15.129"/>
	<path style="fill:none;stroke:#FF0050;stroke-width:3;" d="M825.069,890.847c1.814-14.552,3.267-29.57,3.298-45.374"/>
	<path style="fill:none;stroke:#FF0050;stroke-width:3;" d="M824.301,1008.248c-8.822-29.135-7.076-56.576-3.526-84.947"/>
	<path style="fill:none;stroke:#FF0050;stroke-width:3;" d="M811.832,726.045c1.425,0.742,2.845,1.293,4.085,2.443"/>
	<path style="fill:none;stroke:#FF0050;stroke-width:3;" d="M817.378,724.641c-0.759,1.23-1.117,2.432-0.87,3.624"/>
	<path style="fill:none;stroke:#FF0050;stroke-width:3;" d="M838.453,732.955c1.476-1.588,1.374-4.314,0.461-6.16"/>
	<path style="fill:none;stroke:#FF0050;stroke-width:3;" d="M857.932,733.107c1.841-1.104,1.733-3.996,0.484-5.488"/>
	<path style="fill:none;stroke:#FF0050;stroke-width:3;" d="M872.89,731.014c0.278-1.717,0.38-3.595-0.19-5.288"/>
	<path style="fill:none;stroke:#FF0050;stroke-width:3;" d="M816.712,742.564c1.388,0.41,2.504-0.318,3.152-1.488"/>
	<path style="fill:none;stroke:#FF0050;stroke-width:3;" d="M546.716,746.438"/>
	<path style="fill:none;stroke:#FF0050;stroke-width:3;" d="M554.647,844.182c3.18-2.723,2.914-5.924,0.919-9.354"/>
	<path style="fill:none;stroke:#FF0050;stroke-width:3;" d="M938.204,810.877c5.652,2.579,9.795,8.467,12.521,13.727"/>
	<path style="fill:none;stroke:#FF0050;stroke-width:3;" d="M896.897,858.012c6.809,2.254,11.2,2.764,18.801,0.686"/>
	<path style="fill:none;stroke:#FF0050;stroke-width:3;" d="M910.604,857.662c-2.907-3.825-8.785-3.355-12.58-0.775"/>
	<path style="fill:none;stroke:#FF0050;stroke-width:3;" d="M541.425,806.879c4.106,0.641,7.189,1.135,10.27,1.615"/>
	<path style="fill:none;stroke:#FF0050;stroke-width:3;" d="M537.511,788.488c3.211-5.232,5.062-10.59,4.29-17.553"/>
	<path style="fill:none;stroke:#FF0050;stroke-width:3;" d="M1472.423,737.658c14.438,9.812,29.436,18.318,44.92,26.414"/>
	<path style="fill:none;stroke:#FF0050;stroke-width:3;" d="M710.275,731.617c36.652-17.287,69.668-29.086,104.343-56.947
		c5.107-4.101,10.736-7.676,15.073-12.184c13.676-14.224,18.678-32.226-2.263-47.863"/>
	<path style="fill:none;stroke:#FF0050;stroke-width:3;" d="M629.741,973.131c4.207,1.705,7.562,5.516,8.893,7.924"/>
	<path style="fill:none;stroke:#FF0050;stroke-width:3;" d="M560.15,933.885c-0.742-9.578-2.953-20.436-4.957-28.541"/>
	<path style="fill:none;stroke:#FF0050;stroke-width:3;" d="M655.896,740.197c-3.865-3.093-9.216-4.94-14.692-5.424"/>
	<path style="fill:none;stroke:#FF0050;stroke-width:3;" d="M740.085,666.447c3.924,1.814,7.693,4.957,10.256,6.606"/>
	<path style="fill:none;stroke:#FF0050;stroke-width:3;" d="M823.939,1009.914c2.494,2.973,5.111,4.584,9.216,4.943"/>
	<path style="fill:none;stroke:#FF0050;stroke-width:3;" d="M583.254,766.934c0.994-0.832,5.872-4.082,8.768-5.672"/>
	<path style="fill:none;stroke:#FF0050;stroke-width:3;" d="M818.999,992.83c-7.362-0.639-17.21-1.082-24.183-0.707
		c-16.796,0.908-32.344-0.09-48.718,4.096"/>
	<path style="fill:none;stroke:#FF0050;stroke-width:3;" d="M807.495,966.656c3.65,0.322,5.472,0.482,7.298,0.641"/>
	<path style="fill:none;stroke:#FF0050;stroke-width:3;" d="M910.635,1009.4c10.727,4.695,22.568,11.758,32.436,16.109
		c4.563,2.016,9.052,4.291,13.452,6.736c3.1,1.725,6.184,3.348,9.254,4.879"/>
	<path style="fill:none;stroke:#FF0050;stroke-width:3;" d="M521.177,888.334c3.81-1.506,7.617-3.011,9.599-4.672"/>
	<path style="fill:none;stroke:#FF0050;stroke-width:3;" d="M884.934,764.197c14.319-6.096,30.657-3.753,45.489-5.211"/>
	<path style="fill:none;stroke:#FF0050;stroke-width:3;" d="M979.262,914.604c3.648-1.998,5.1-5.338,5.501-9.934"/>
	<path style="fill:none;stroke:#FF0050;stroke-width:3;" d="M926.159,971.283c1.994,3.65,4.09,6.148,7.435,7.596"/>
	<path style="fill:none;stroke:#FF0050;stroke-width:3;" d="M615.01,955.654c2.496,2.982,3.626,5.836,6.122,8.811"/>
	<path style="fill:none;stroke:#FF0050;stroke-width:3;" d="M668.355,708.049c1.608-2.618,3.098-3.868,5.954-4.996"/>
	<path style="fill:none;stroke:#FF0050;stroke-width:3;" d="M594.868,866.168c3.019,1.391,5.102,4.328,8.536,4.885"/>
	<path style="fill:none;stroke:#FF0050;stroke-width:3;" d="M981.767,1159.605"/>
	<path style="fill:none;stroke:#FF0050;stroke-width:3;" d="M878.121,796.094c-0.487,3.283-0.852,6.566-0.973,9.851
		c-0.122,4.743-0.486,3.526-0.851,8.271"/>
	<path style="fill:none;stroke:#17192D;stroke-width:3;" d="M2048,0"/>
	<path style="fill:none;stroke:#17192D;stroke-width:3;" d="M2048,1536"/>
	<path style="fill:none;stroke:#17192D;stroke-width:3;" d="M0,1536"/>
	<path style="fill:none;stroke:#17192D;stroke-width:3;" d="M0,0"/>
</g>
<g id="Layer_1">
</g>
</svg>
