<?xml version="1.0" encoding="iso-8859-1"?>
<!-- Generator: Adobe Illustrator 15.1.0, SVG Export Plug-In . SVG Version: 6.00 Build 0)  -->
<!DOCTYPE svg PUBLIC "-//W3C//DTD SVG 1.1//EN" "http://www.w3.org/Graphics/SVG/1.1/DTD/svg11.dtd">
<svg version="1.1" xmlns="http://www.w3.org/2000/svg" xmlns:xlink="http://www.w3.org/1999/xlink" x="0px" y="0px" width="2048px"
	 height="1536px" viewBox="0 0 2048 1536" style="enable-background:new 0 0 2048 1536;" xml:space="preserve">
<g id="b3b_x5F_unterarmm">
	<g>
		<path style="fill:none;stroke:#FF0050;stroke-width:3;" d="M892.304,1149.717c-1.762,4.066-2.006,6.861-2.25,9.652"/>
		<path style="fill:none;stroke:#FF0050;stroke-width:3;" d="M820.235,921.908c4.206,8.902,10.433,16.36,15.379,24.574"/>
		<path style="fill:none;stroke:#FF0050;stroke-width:3;" d="M834.885,943.041c2.146,9.146,3.967,17.652,4.827,25.768
			c1.99,18.84,4.326,43.539,4.847,61.77c0.352,34.428,1.762,69.203,8.973,101.723c1.144,3.393,1.46,7.111,2.602,10.508"/>
		<path style="fill:none;stroke:#FF0050;stroke-width:3;" d="M901.377,938.955c-2.103,43.287,21.166,112.926,28.511,143.896
			c6.775,28.572,7.797,60.523,7.033,89.57c-0.02,9.885-5.023,13.471-4.578,22.58c0.354,11.947-1.409,6.342-7.289,15.275"/>
		<path style="fill:none;stroke:#FF0050;stroke-width:3;" d="M846.526,963.381c-0.318-2.035-1.209-3.285-2.104-4.537"/>
		<path style="fill:none;stroke:#FF0050;stroke-width:3;" d="M817.972,916.762c-1.912-5.76-4.157-11.436-5.421-17.682
			c-1.297-6.398-2.868-12.633-3.902-19.215c-0.944-6.029-2.289-11.956-3.523-17.98c-0.55-2.701-1.87-5.533,0.317-7.917
			c2.081-2.267,4.993-1.063,6.427,1.476c1.385,2.459,2.068,5.463,3.109,8.079c1.121,2.819,2.161,5.551,3.07,8.507
			c1.611,5.254,2.556,11.973,5.582,16.758c0.974,1.541,2.088,2.975,3.33,4.303c1.12,1.192,2.974,2.389,3.493,3.941"/>
		<path style="fill:none;stroke:#FF0050;stroke-width:3;" d="M832.771,892.902c-1.554-11.014-0.522-22.293-2.321-33.69
			c-1.824-11.543-3.467-22.817-4.729-34.355c-1.214-11.126-3.363-21.985-5.477-32.854c-0.779-4.014-3.531-12.171,0.42-14.578
			c5.366-3.275,7.933,4.912,9.213,8.479c2.376,6.616,3.688,14.203,5.216,21.154c0.839,3.827,1.936,7.297,2.715,11.041
			c0.712,3.438,0.053,7.822,1.743,10.783c10.534,0.17,5.938-20.467,4.896-27.117c-0.877-5.59-2.242-11.16-3.58-16.465
			c-0.853-3.373-3.523-12.367,1.143-13.738c5.195-1.529,9.982,19.682,11.056,23.918c1.224,4.824,2.438,9.643,3.188,14.52
			c0.563,3.65,2.771,12.471,0.68,14.837"/>
		<path style="fill:none;stroke:#FF0050;stroke-width:3;" d="M878.379,822.025c-2.385-3.864-2.479-10.891-3.591-15.355
			c-1.288-5.189-2.435-10.473-3.756-15.604c-1.191-4.617-2.244-10.732-4.683-14.715c-2.794-4.573-9.226-7.348-9.123,0.004
			c0.071,5.322,2.104,11.331,2.95,16.74c0.848,5.426,1.145,10.674,2.477,15.812c1.036,3.992,2.734,11.27,0.801,15.066
			c-1.718,3.365-5.161,1.102-5.358-2.212"/>
		<path style="fill:none;stroke:#FF0050;stroke-width:3;" d="M878.264,791.227c0.231,1.449,0.464,2.666,0.545,3.343
			c0.559,4.694,1.965,9.263,2.729,13.937c0.594,3.619,3.15,9.559,1.408,12.996c-1.299,2.566-2.933,2.984-4.402,0.779
			c-0.056-0.084-0.11-0.168-0.164-0.256"/>
		<path style="fill:none;stroke:#FF0050;stroke-width:3;" d="M902.961,927.768c0.461-5.092,0.173-10.354-0.119-15.494
			c-0.612-10.824-1.461-21.539-2.125-32.398c-0.913-14.963-1.854-29.922-3.644-44.809c-1.791-14.865-5.085-28.482-9.413-42.84
			c-0.746-2.475-3.571-12.176-7.165-12.1c-3.638,0.082-2.939,6.678-2.231,11.1"/>
		<path style="fill:none;stroke:#FF0050;stroke-width:3;" d="M889.438,962.223c-1.568-1.152,0.08-8.359,2.369-11.494"/>
	</g>
	<path style="fill:none;stroke:#17192D;stroke-width:3;" d="M2048,0"/>
	<path style="fill:none;stroke:#17192D;stroke-width:3;" d="M2048,1536"/>
	<path style="fill:none;stroke:#17192D;stroke-width:3;" d="M0,1536"/>
	<path style="fill:none;stroke:#17192D;stroke-width:3;" d="M0,0"/>
</g>
<g id="Layer_1">
</g>
</svg>
