<svg xmlns="http://www.w3.org/2000/svg" width="2048" height="1536" viewBox="0 0 2048 1536"><g fill="none" stroke-width="3"><g stroke="#FF0050"><path d="M1714.192 996.866c1.525-.075 10.547-3.87 5.962-3.67M1766.466 961.048c10.215-3.796 20.613-8.358 27.885-14.157M1726.52 1059.523c6.41-2.87 10.9-8.406 17.316-11.262 5.356-2.663 11.134-3.61 16.732-5.968 11.773-5.53 24.763-9.838 37.57-11.07 14.636-1.386 32.87-6.408 42.517-19.662M1633.072 1057.182c10.74 4.545 21.17 9.617 31.628 14.414 12.682 5.95 21.553 6.018 34.675 3 5.876-1.178 11.612-3.486 16.435-7.062M1843.733 1007.875c3.894-1.538 6.74-4.765 10.764-5.955 3.145-.924 8.005-2.3 9.67-5.35 2.406-4.408-1.753-6.72-5.518-7.164-3.167-.375-8.06 1.506-10.606 3.37-.097.1-.185.185-.28.28M1845.282 978.285c-.547.107-.77-.21-1.22.2 6.042-.72 11.233-9.054 17.862-4.505 2.344 1.607 5.29 5.35 3.695 8.49-.722 1.436-2.157 1.348-3.245 1.98-1.467.86-2.766 2.192-4.383 2.677M1837.32 959.723c5.386-1.902 11.19-5.158 17.132-3.974 4.81.95 11.787 13.436 4.254 15.457M1820.485 967.377c2.486-.836 4.615-2.803 7.22-3.36M1825.104 985.398c1.71-1.592 4.846-2.14 6.94-3.092M1827.493 997.357c1.486-1.246 3.48-1.354 5.078-2.404M1687.478 1049.405c4.752 2.78 10.727 4.606 16.377 4.4M1816.308 954.863c.363-1.545 2.227-2.297 4.463-1.998M1797.097 943.904c-1.492.12 4.996-4.16 6.285-4.85 3.877-2.35 8.31-2.172 12.39-3.95 7.66-3.338 15.08-13.556 24.48-10.402M1830.345 948.396c1.447-2.872 11.348-6.53 14.655-7.84 5.84-2.15 17.116 2.3 10.608 10.145M1843.192 925c3.84 1.486 6.906 6.75 6.83 11.13M1761.81 960.553c-11.45 10.018-31.488 8.586-45.8 6.44"/></g><path d="M2048 0M2048 1536M0 1536M0 0" stroke="#17192D"/></g></svg>