<svg xmlns="http://www.w3.org/2000/svg" width="2048" height="1536" viewBox="0 0 2048 1536"><g fill="none" stroke-width="3"><g stroke="#FF0050"><path d="M1802.575 867.668c2.455-.31 4.652-1.83 6.916-2.49 2.66-.776 5.388-1.334 8.01-2.268 3.728-1.356 8.58-3.094 10.712-7.062 2.074-3.825-.38-9.134-2.957-12.083-3.314-3.812-6.162-4.584-10.912-4.2-9.04.722-17.27 2.806-25.756 6.142M1783.542 833.82c4.828-.8 10.135-2.504 14.766-4.137 2.928-1.043 5.912-2.875 9.08-2.776 3.252.104 6.98 1.02 9.824 2.94 3.518 2.35 3.287 4.307 2.48 8.168M1776.717 822.955c2.52.338 6.878-1.79 9.445-2.537 2.736-.8 5.228-1.64 8.113-1.57 4.088.092 12.706 1.037 12.09 7.394M1769.276 815.59c4.69-.94 8.43-4.475 13.267-4.75 3.95-.234 8.938.824 10.84 5.086M1761.3 804.686c4.51-2.404 10.57-5.41 15.846-4.445 4.643.843 12.293 4.543 10.763 10.606M1760.722 827.98c1.736.023 4.07-.97 5.965-1.418M1765.92 836.79c1.518-.357 4.597-1.61 6.707-1.903M1772.96 850.41c1.09-.47 2.14-.963 2.966-1.38M1781.163 878.637c6.01-3.127 11.78-7.525 17.617-10.066M1759.524 805.464c-2.168.91-5.157 1.812-8.44 2.65"/></g><path d="M2048 0M2048 1536M0 1536M0 0" stroke="#17192D"/></g></svg>