<svg xmlns="http://www.w3.org/2000/svg" width="2048" height="1536" viewBox="0 0 2048 1536"><g fill="none" stroke-width="3"><g stroke="#FF0050"><path d="M930.892 1222.037c3.576-3.275 4.932-5.547 5.604-10.156.55-3.743-.222-9.483 1.282-12.99M584.39 1203.496c38.1 11.068 74.348 26.795 110.422 13.038M709.004 1159.385c-3.208 2.51-8.86 3.955-12.57 5.467M694.942 1216.67c18.676 10.217 44.644 5.536 63.294 1.71M855.205 1136.098c-38.085-10.443-85.475-17.31-125.187-1.54M821.34 1176.748c-15.953-.086-29.71.78-44.85-3.686M901.348 1220.398c-27.19-1.373-44.628 7.887-75.35 9.21-28.378 1.224-56.94-1.323-85.07-7.68M727.21 1133.066c-13.633-9.14-31.595-16.11-48.327-20.852M904.085 1220.678c6.603-1.305 14.734.412 19.28-5.22M551.93 1168.668c5.252 16.33 16.936 28.896 32.46 34.828M667.016 1103.502c2.605 2.977 5.955 5.21 8.188 8.188M664.782 1109.828c2.233.746 4.466 1.49 7.07 1.862"/></g><path d="M2048 0M2048 1536M0 1536M0 0" stroke="#17192D"/></g></svg>