<?xml version="1.0" encoding="iso-8859-1"?>
<!-- Generator: Adobe Illustrator 15.1.0, SVG Export Plug-In . SVG Version: 6.00 Build 0)  -->
<!DOCTYPE svg PUBLIC "-//W3C//DTD SVG 1.1//EN" "http://www.w3.org/Graphics/SVG/1.1/DTD/svg11.dtd">
<svg version="1.1" xmlns="http://www.w3.org/2000/svg" xmlns:xlink="http://www.w3.org/1999/xlink" x="0px" y="0px" width="2048px"
	 height="1536px" viewBox="0 0 2048 1536" style="enable-background:new 0 0 2048 1536;" xml:space="preserve">
<g id="b3b_x5F_fussm_x5F_v">
	<g>
		<path style="fill:none;stroke:#FF0050;stroke-width:3;" d="M1802.575,867.668c2.455-0.311,4.652-1.83,6.916-2.49
			c2.659-0.776,5.387-1.334,8.01-2.268c3.727-1.356,8.578-3.094,10.711-7.062c2.074-3.825-0.381-9.134-2.957-12.083
			c-3.314-3.812-6.162-4.584-10.912-4.199c-9.041,0.721-17.27,2.805-25.756,6.141"/>
		<path style="fill:none;stroke:#FF0050;stroke-width:3;" d="M1783.542,833.82c4.828-0.801,10.135-2.504,14.766-4.137
			c2.928-1.043,5.912-2.875,9.08-2.776c3.252,0.104,6.979,1.021,9.824,2.94c3.518,2.35,3.287,4.307,2.479,8.168"/>
		<path style="fill:none;stroke:#FF0050;stroke-width:3;" d="M1776.717,822.955c2.519,0.338,6.878-1.789,9.445-2.537
			c2.736-0.801,5.228-1.639,8.113-1.57c4.088,0.092,12.706,1.037,12.091,7.394"/>
		<path style="fill:none;stroke:#FF0050;stroke-width:3;" d="M1769.276,815.59c4.689-0.941,8.431-4.475,13.267-4.751
			c3.95-0.233,8.938,0.825,10.839,5.087"/>
		<path style="fill:none;stroke:#FF0050;stroke-width:3;" d="M1761.3,804.686c4.51-2.404,10.57-5.41,15.846-4.445
			c4.643,0.842,12.293,4.542,10.763,10.605"/>
		<path style="fill:none;stroke:#FF0050;stroke-width:3;" d="M1760.722,827.98c1.736,0.023,4.07-0.969,5.965-1.418"/>
		<path style="fill:none;stroke:#FF0050;stroke-width:3;" d="M1765.919,836.79c1.519-0.357,4.598-1.61,6.708-1.903"/>
		<path style="fill:none;stroke:#FF0050;stroke-width:3;" d="M1772.96,850.411c1.09-0.472,2.141-0.964,2.966-1.38"/>
		<path style="fill:none;stroke:#FF0050;stroke-width:3;" d="M1781.163,878.637c6.01-3.127,11.779-7.525,17.617-10.066"/>
		<path style="fill:none;stroke:#FF0050;stroke-width:3;" d="M1759.524,805.464c-2.168,0.911-5.157,1.812-8.441,2.651"/>
	</g>
	<path style="fill:none;stroke:#17192D;stroke-width:3;" d="M2048,0"/>
	<path style="fill:none;stroke:#17192D;stroke-width:3;" d="M2048,1536"/>
	<path style="fill:none;stroke:#17192D;stroke-width:3;" d="M0,1536"/>
	<path style="fill:none;stroke:#17192D;stroke-width:3;" d="M0,0"/>
</g>
<g id="Layer_1">
</g>
</svg>
