<svg xmlns="http://www.w3.org/2000/svg" width="2048" height="1536" viewBox="0 0 2048 1536"><g><g fill="#FF0050"><path d="M1139.304 1447.13c5.812.446 11.774 1.788 18.033 2.532 7.602.895 15.5 1.79 22.654 5.365 3.728 3.727 8.347 5.664 11.33 10.582.444 2.683 2.382 2.235 1.487 5.515.148.447-.297 0-.297-.598-3.428.15-1.79-.744-4.322-4.172-3.875 1.19-6.707-.596-9.54.596-11.923-.745-22.206 0-33.83 1.194-2.832 1.34-6.41 1.34-9.69.893-2.085-.744-4.32.746-6.854.3-7.75-.448-16.395-.448-23.996.595-5.663-.297-11.177 0-16.99.596-2.235-.445-4.77-1.19-7.9-.297-.894 2.087-1.936 1.64-1.19 3.43-.3.296-.597.745-1.044 1.042-.447-.148-.895 0-1.34-.447.595-4.322 3.427-6.707 6.11-9.986 5.216-4.77 11.923-7.005 17.586-11.626 3.726-2.385 7.6-2.682 11.625-4.32 5.067-.746 10.73-.45 15.65-1.49 4.17 1.04 8.196.742 12.52.295zm-23.55 3.725c-5.81-.3-9.836 2.385-15.35 4.023-.298.297-1.64 1.64-2.385 2.086-4.174 2.982-9.093 4.322-13.564 10.285 5.366-.45 8.048 1.49 10.582.444 3.727.45 7.005-1.49 10.73-1.64 5.366 1.64 11.178.3 16.693 1.044 5.068.596 10.583-.596 15.8-.895 9.24-3.576 19.97-1.04 29.51-2.086 4.62 0 9.984-.746 17.287.148-2.83-5.96-7.898-7.004-11.326-8.94-8.792-2.386-17.585-3.876-26.677-4.77-1.79-.3-4.024.446-5.664-.597-8.198.45-18.035-2.382-25.635.897zM1182.823 1400.033c1.19.596 2.383 0 3.725.3 1.045 0 1.79.296 2.684.892.148.746-.744 1.342-1.19 2.088-1.044 1.34-2.237-.746-2.536-.746-.3-.596-1.787.746-3.277-1.49-2.983.895-5.665.895-7.75.3-4.175.446-8.795-.747-12.82.892-1.64.15-2.532 2.087-3.278 2.98-.148 0-.744 1.788-2.086 2.386-1.938 1.79-4.77 4.62-5.664 5.365-.744.745 0-.894-1.342.597-.744.596-.445.895-1.49 2.533-1.34 1.64-4.023 4.47-4.62 5.217-.894 1.79-1.788 3.875-2.83 6.26 3.13 2.086 6.26 1.49 8.345 2.832 2.684.147 5.963.745 8.794 1.49 1.64-1.343 2.83.298 4.022.298 1.64.893 4.174.744 6.11 1.64 3.727.595 7.006 2.83 11.178 2.087 1.49.297 3.28.893 4.77 1.34-.148.3-.297.596-.596.596-2.533.448-4.77-.894-7.004-.743-.598-.447-1.045-.596-1.64-.447-1.192-.148-2.386-.447-3.43-.447-2.384-.746-4.022.596-7.897-1.938 0 2.236.3.895.3.895-2.237-.598-5.368-1.49-8.35-1.342-1.786-1.193-4.022-.746-5.81-1.193-4.173-.445-7.005-2.086-11.03-1.79 0 0-.148-.147-.297-.147-1.193-.744-2.535-.297-3.28-1.043-9.09-2.533-18.33-5.066-27.423-7.6-2.086-1.045-3.875-1.492-6.11-2.385-2.98-1.045-5.812-2.832-8.942-4.025-3.13-1.19-6.11-3.13-9.687-4.172-.896-.45-2.386.297-2.386-1.193 0-.447-.446-1.49-.148-1.64 1.042-1.64 4.023-1.64 5.514-2.384 3.577-.3 8.645-1.043 12.966-1.938 1.64-1.938 4.174-.447 6.11-1.193 7.304.3 14.905-3.428 23.25-2.385 10.583-1.64 22.357-2.533 32.343-1.64 7.597.594 15.2-.15 22.8.893zm-45.16 2.533c-1.937-.744-4.918 1.043-7.898.447-3.578-.596-7.452.596-11.028 1.193-3.43-.598-6.11 1.49-9.54 1.19-2.234.3-5.96.3-8.94.896-4.92.895-9.39 2.236-15.055 2.682 2.235 2.535 6.26 4.322 6.856 4.473 3.13 1.043 5.663 2.83 8.495 3.725 4.323 1.49 8.048 2.98 12.072 4.174 2.832.746 6.558 1.64 9.092 2.086 2.83-.148 6.855 2.385 10.73 2.982 2.235.297 1.192 1.34 4.322.447 1.19-2.83 2.98-4.77 4.023-7.304 1.342-1.787 2.086-1.936 4.023-4.023 1.342-1.342 2.683-3.428 4.174-5.365 1.342-1.49 3.13-3.13 4.023-4.174 0-.297 1.79-2.234 1.79-3.428-2.088-.447-4.472-.447-5.813-.596-4.022-.595-7.153 0-11.326.596zM1170.005 1369.63c5.812 1.49 9.986 6.407 15.8 8.196.894 1.64 2.83 2.533 3.726 4.174-1.34.445-2.83-.895-4.024-1.49-1.043-1.045-2.086-1.64-3.576-1.79-3.28-2.384-7.75-3.427-11.178-6.11-2.533-.895-6.26-1.19-9.092-2.533-5.067-.3-10.135-.3-15.053.596-4.77.895-9.39 2.832-13.116 6.11-4.917 2.384-10.58 4.173-15.946 5.366-8.346 4.17-18.928 3.724-27.572.296-5.067 0-7.898-4.322-12.52-4.918-1.34-1.043-2.533-2.086-4.173-2.682-.896-.746-.448-1.938-1.193-2.982 0-.297-.596.15-.298.3 2.085.15 4.32 1.042 6.11 1.937 7.898 6.112 18.48 6.41 28.02 8.497 6.706-.3 12.22-3.43 18.63-4.92 4.023-2.533 9.09-3.428 13.115-5.96 2.98-.298 5.365-3.726 8.495-2.98 6.707-2.386 14.605-2.386 21.016 0 .89.445 1.786.742 2.83.892zM1170.005 1339.672c5.812 1.492 9.986 6.41 15.8 8.197.894 1.64 2.83 2.534 3.726 4.173-1.34.447-2.83-.893-4.024-1.49-1.043-1.043-2.086-1.64-3.576-1.79-3.28-2.384-7.75-3.425-11.178-6.108-2.533-.895-6.26-1.193-9.092-2.533-5.067-.3-10.135-.3-15.053.596-4.77.895-9.39 2.832-13.116 6.11-4.917 2.384-10.58 4.173-15.946 5.364-8.346 4.174-18.928 3.727-27.572.3-5.067 0-7.898-4.323-12.52-4.92-1.34-1.042-2.533-2.085-4.173-2.683-.896-.745-.448-1.94-1.193-2.98 0-.298-.596.15-.298.298 2.085.148 4.32 1.043 6.11 1.938 7.898 6.11 18.48 6.408 28.02 8.496 6.706-.3 12.22-3.43 18.63-4.92 4.023-2.533 9.09-3.428 13.115-5.96 2.98-.3 5.365-3.728 8.495-2.98 6.707-2.386 14.605-2.386 21.016 0 .89.445 1.786.74 2.83.89zM1179.99 1267.24c2.833 2.088 4.173 5.217 4.92 8.646-.15 3.428-1.49 6.258-1.788 9.836-.45.895-.45 1.64-2.387 1.938-.744 1.49-1.64 1.49-2.533 1.79-.297-.15-.447-.3-.447-.6 0-.595-.445-1.34-.445-1.937.445-.744.893-.744.893-1.19.148-.597 1.79-.448 1.64-1.49 1.64-2.983 1.49-6.858 1.49-10.583-1.192-4.174-5.962-4.918-9.69-5.068-3.276 0-7.15.15-10.43.746-2.237.148-4.024-.447-5.366.895-2.98-.447-5.96.744-8.942.596-1.34 1.19-3.727.446-5.365 1.042-9.24 1.64-18.332 2.385-27.87 2.535-6.707.148-14.01.148-20.42-.15-4.62.895-8.793.15-12.966-.895-1.34-.744-.15-1.938.895-2.682.894 0 1.936-.3 2.682.447 1.49-.15 1.938.148 2.534.445v.447c6.707-.298 13.264.446 18.63-1.044 5.663.3 12.37.895 17.586.15 2.086-1.193 5.067.148 7.452-.447 4.024-.896 9.24-.896 13.563-1.343.297-.148-.148-1.193.297-.148 3.727-.747 6.56-1.79 9.242-1.94 7.302-1.49 14.157-1.64 21.908-1.49 1.786-.297 3.128 1.045 4.917 1.49zM1189.083 1236.988c-1.49 3.28-5.068 3.576-7.602 5.365-3.427 1.79-7.153 3.576-11.028 4.023-1.043.596-2.533.746-3.727.895-9.984 1.79-19.672 5.813-30.105 6.11-7.154 1.492-15.053.746-22.804.598-6.408 0-14.605-1.79-21.014-4.62-3.13-.745-6.558-1.938-8.793-3.876-3.28-.895-5.814-3.28-8.646-5.066-.596-1.043-1.34-2.086-1.34-3.13 0-.15-.15-.298-.15-.298 2.98.744 5.812 2.98 8.793 4.77 2.385 1.34 3.727 3.13 6.26 3.725 4.322.895 7.75 3.877 12.222 3.578 8.195 2.087 17.138 1.94 26.975 1.34-1.49-3.427 1.043-4.767-.148-6.854.148-.895.298-1.49.596-2.086.447-.447.745-.895 1.34-.447l.747.746c-.3.892.297 1.49.745 1.935-.448 1.94 0 3.877-.298 6.262 7.303.744 12.22-1.342 18.182-1.64 2.534-1.192 6.408-1.49 9.538-2.386 2.832-.894 6.26-.894 8.943-2.532 2.235.297 4.77-.447 6.558-2.684 3.875.15 6.855-2.682 11.326-3.576v-.746c.746-.297 2.236-1.936 4.025-1.34-.15.743-.3 1.34-.597 1.936zM1139.304 1197.344c5.812.447 11.774 1.79 18.033 2.535 7.602.894 15.5 1.786 22.654 5.364 3.728 3.725 8.347 5.664 11.33 10.582.444 2.682 2.382 2.234 1.487 5.514.148.447-.297 0-.297-.596-3.428.148-1.79-.746-4.322-4.174-3.875 1.19-6.707-.596-9.54.596-11.923-.744-22.206 0-33.83 1.193-2.832 1.34-6.41 1.34-9.69.892-2.085-.744-4.32.746-6.854.3-7.75-.448-16.395-.448-23.996.597-5.663-.3-11.177 0-16.99.595-2.235-.447-4.77-1.193-7.9-.3-.894 2.087-1.936 1.642-1.19 3.43-.3.298-.597.745-1.044 1.044-.447-.15-.895 0-1.34-.448.595-4.322 3.427-6.71 6.11-9.986 5.216-4.77 11.923-7.006 17.586-11.625 3.726-2.384 7.6-2.683 11.625-4.32 5.067-.747 10.73-.448 15.65-1.49 4.17 1.04 8.196.74 12.52.294zm-23.55 3.726c-5.81-.297-9.836 2.385-15.35 4.025-.298.297-1.64 1.64-2.385 2.086-4.174 2.98-9.093 4.323-13.564 10.284 5.366-.447 8.048 1.49 10.582.447 3.727.448 7.005-1.49 10.73-1.64 5.366 1.64 11.178.3 16.693 1.045 5.068.596 10.583-.596 15.8-.895 9.24-3.578 19.97-1.043 29.51-2.088 4.62 0 9.984-.744 17.287.15-2.83-5.963-7.898-7.006-11.326-8.943-8.792-2.386-17.585-3.876-26.677-4.77-1.79-.298-4.024.446-5.664-.597-8.198.45-18.035-2.382-25.635.897zM1086.84 1173.35c2.237.3 3.727 2.533 6.262 2.533 4.77 2.385 9.24 3.578 15.052 3.875.895.447 2.385.596 3.428.895 3.28.3 6.26 1.79 9.39 1.79 1.938.595 4.62-.448 6.41 1.937 2.384-.596 4.173-1.19 5.663-1.938.596-1.19 2.234-2.684 2.086-4.322 1.045-1.64.15-2.98.896-5.068.895-2.832.895-4.47 2.385-7.45.747-.597 1.49-1.192 2.386-1.044.596 1.49 0 3.28 0 5.066-1.938 3.875-1.64 5.963-2.98 11.03 1.19.745.746 1.34 1.19 1.64 3.728.596 7.75.148 10.882-.596 1.938.297 3.576-.447 6.557-.447.596-1.788 1.938-.448 2.832-.895 5.366-.445 10.135-3.426 15.648-3.725 2.387-2.088 6.408-1.79 8.795-3.578 2.83.3 4.322-3.428 7.898-2.533 1.79-1.34 3.428-2.98 5.664-2.98.596.446 1.19.894 1.787 1.49-.298 2.235-2.83 2.384-4.472 3.577-2.533.297-4.918.893-6.707 2.533-3.278-.148-5.216 2.682-8.345 2.533-1.193.746-2.385.895-3.28 1.49-1.19-.148-2.235.3-3.128.746-6.856 0-12.222 4.47-19.078 4.022-.894.596-2.534.596-3.43.746-7.302 2.533-15.796 2.086-23.25 1.938-3.427-.896-7.6 0-10.58-1.492-9.24-1.64-18.184-5.365-26.977-7.748-4.174-1.64-8.048-4.174-11.924-6.262-4.323-2.385-9.39-4.023-12.52-8.346 0-.297 0-.746.298-.895 6.706 4.322 13.71 8.197 21.163 11.477zM1188.337 1104.494c.447.148.746.3 1.043.598-1.34 3.428-5.365 1.49-8.494 2.383-2.684.447-5.217 0-7.898.15-7.304.148-14.607-.15-21.61 0-3.728 0-8.646.297-12.52-.15-2.534-.297-5.665 0-8.198.15-6.11.596-11.923 0-18.333.447-.297-.3-.596-.3-.894-.3-2.683 1.343-5.664.15-8.197.597-6.11.298-11.923.894-17.885.894-4.172-1.79-8.494.895-12.815-.148-.598-.15.893-1.79 1.34-1.79 6.56-4.47 14.16 1.79 21.462-.298 8.645-2.385 18.332-1.49 26.828-1.936 8.495-.45 16.543.297 25.188 0 2.384-.3 4.77-.3 7.304-.3.596 0 1.34.15 1.937.15 6.558-.15 13.116-.15 18.927-1.044 4.47 1.194 8.198.448 12.817.596zM1181.48 1057.25c-1.788 1.342-4.17 2.236-5.962 3.727-7.3 2.086-15.2 4.023-23.1 4.023-5.664.895-11.477 2.086-16.99 3.428-2.98-.297-6.41-.893-9.838-.148-.446 1.19-.446 1.64-2.235 2.086 1.64 4.322 5.067 7.303 6.707 10.434.894.447 1.79 1.64 1.49 2.682-.597 1.79.3 1.79 1.342 2.832 1.34 0 2.534.15 3.726.746 3.13-1.043 5.516-1.043 8.05-.148 2.83 1.64 5.216.447 8.345 0 5.96-.895 11.626-2.236 17.736-2.535 4.77-.148 9.538-.148 14.606-.148.447.147.895.298.744.745 0 .445-.596.895-1.043 1.043-7.45.447-14.605.744-21.162 2.832-4.92-.15-8.943 1.342-13.562.895-11.03-1.045-22.655 0-33.087 1.34-4.62-1.043-8.198.895-12.67.596-11.624-.892-23.697-.892-33.98-4.32-1.49-.446-.745-1.64-1.49-2.683.15-.447.895 0 1.192-.148 3.576.743 6.706 2.384 10.284 2.233l.297.3c6.11-.3 11.773 1.638 17.14 1.34 4.023 2.235 8.495-.597 12.816.15 5.515.894 10.136-1.044 15.5-1.79.746-.596 1.79-1.19 2.832-2.385-1.788-4.77-7.304-7.75-7.9-11.625.746 0-1.042-1.19-.296-3.576-4.62-1.342-8.347.447-11.774-1.193-2.832-.744-5.664.746-8.645-.895-4.024 1.938-7.6.15-11.476.448-2.236-1.94-3.13 1.936-5.812.148-2.534.744-5.962 1.19-8.05 0 .15-.598.15-1.043 0-1.64 2.237-1.34 5.367.446 7.603-1.34 3.278-.3 5.663 1.49 8.94.892 9.54-1.787 20.122.3 29.81-.297 6.707-.298 14.01.747 20.42-1.49 10.133-1.638 20.715-2.98 30.254-4.917 2.385-1.49 5.217-3.13 8.197-2.982.446.445.89.744 1.04 1.34zM1189.083 1009.26c-5.812 4.172-5.365 1.49-8.197 3.13-2.088 1.042-4.025.446-5.963 1.192-3.13 1.043-3.13 1.342-5.514 2.533-1.343.895-2.386 1.64-3.876 2.236-2.98 1.343 0 3.278-7.45 3.13-.747.148-3.878 5.066-4.92 2.98-3.726.447-1.49.746-4.472 1.938-.148.3-.297-.447-.596-.447-1.49.597-1.79-.296-2.385 1.194-.297.596.448 1.342-1.192.447-1.64.745-3.13 1.343-3.13 1.49-.446.448-1.34.3-1.34.3-1.044 0-2.385 1.49-3.577 2.682-2.683.744-4.47 4.025-5.96 6.855 4.918 1.043 8.346.3 11.773 1.49 1.342.3 2.684-1.49 4.173 0 2.087-.596 3.278-.297 4.77-.447 2.534 1.045 3.726-.148 6.856.3 4.32-1.194 4.172-1.343 8.793-1.343 6.26 1.193 9.39.148 15.648.746 1.193-.598 3.727.148 4.918.895 2.536-.895 6.858-.746 7.155-.598.447.15 1.193.895 1.79 1.193.147.297.147.447-.15.596-3.577 1.34-4.62.147-8.048 1.042-2.385-.447-5.812 0-8.348-.447-4.62.3-5.813-1.34-11.028-.148h-27.572c-.745-.15-1.49.3-2.236.148-1.19-.3-2.682.895-3.875-.3-5.813.897-12.37-.595-16.246.45-1.192.596-2.683.596-3.875.744-3.578-1.64-8.794.15-12.223-.745-1.788.447-4.173 1.19-6.26.895-3.278.596-6.11.445-9.092 1.19-1.788-.595-4.172.448-5.812 0-2.98.747-6.26-.298-9.39 0-.15-.298-.3-.595-.447-1.042 2.683-5.068 6.706-7.006 10.73-11.477 6.56-4.77 17.736-7.45 26.082-2.83 1.49-1.044 1.64.745 2.534.745 2.98 1.787 4.322 3.28 7.452 3.875 2.533 1.342 3.427 2.832 6.558 4.62 2.385-2.534 4.77-3.577 6.26-5.813 2.683-2.533 6.11-3.725 8.942-6.557 6.855-2.982 1.192 1.043 9.39-2.684 8.196-2.385 5.067-2.533 8.347-3.725 2.534-.895 5.366-1.49 6.41-2.235.894-.746 1.64-.895 2.532-1.64 6.11-3.726.746-2.83 8.197-4.173 1.34-.3 7.6-1.79 8.196-2.236 1.043-.744.744-.447 3.28-1.49.897-.297 3.578.748 2.387 1.344zm-112.675 32.787c6.706 1.344 11.327.746 16.544-.148 6.26-1.788 14.755-1.044 21.312-1.49 1.49-.745 4.322 0 5.067-2.833-2.683-.447-3.874-2.086-5.364-2.832-.15 0-.447-.148-.597 0-4.174-2.086-8.198-4.023-12.818-4.918-9.09-1.79-18.033 4.025-24.144 12.22zM1189.083 980.346c-1.49 3.28-5.068 3.578-7.602 5.367-3.427 1.787-7.153 3.576-11.028 4.023-1.043.596-2.533.746-3.727.895-9.984 1.788-19.672 5.813-30.105 6.11-7.154 1.49-15.053.746-22.804.598-6.408 0-14.605-1.79-21.014-4.62-3.13-.745-6.558-1.94-8.793-3.876-3.28-.895-5.814-3.28-8.646-5.066-.596-1.045-1.34-2.088-1.34-3.13 0-.15-.15-.3-.15-.3 2.98.746 5.812 2.98 8.793 4.77 2.385 1.342 3.727 3.13 6.26 3.727 4.322.895 7.75 3.875 12.222 3.576 8.195 2.085 17.138 1.937 26.975 1.34-1.49-3.427 1.043-4.77-.148-6.854.148-.895.298-1.49.596-2.088.447-.445.745-.893 1.34-.445.3.297.448.445.747.744-.3.895.297 1.49.745 1.938-.448 1.938 0 3.875-.298 6.26 7.303.746 12.22-1.34 18.182-1.64 2.534-1.19 6.408-1.49 9.538-2.384 2.832-.894 6.26-.894 8.943-2.532 2.235.297 4.77-.447 6.558-2.684 3.875.148 6.855-2.682 11.326-3.578v-.744c.746-.297 2.236-1.938 4.025-1.342-.15.744-.3 1.34-.597 1.936zM1174.028 947.113c-5.363 3.873-12.22 3.277-17.14 7.45-1.937.597-4.022 1.64-5.662 2.683-4.62-.148-9.39 2.832-15.65 5.664 4.024 1.64 7.006 1.19 9.093.596 8.792 0 16.542-1.49 25.782-.148 2.535 0 5.664-.746 7.898.3 4.322.147 9.39-1.046 13.117 1.042l.297.297c-3.13.895-7.154.598-10.283.45-2.683-.747-5.513.296-8.493.296-5.812.148-11.924-1.938-17.14.596-4.77.597-9.24-1.64-13.86 0-4.174 1.34-8.348-.745-12.223 1.192-7.154-1.193-16.395.148-24.145-1.193-8.795 0-17.736.597-26.38-.894-4.77-.15-6.707-1.045-11.18-1.94-.148 0 .746-1.042.746-1.34 4.77-2.83 6.408-3.726 11.476-5.663 7.005-2.832 14.457-2.236 21.462-4.174 9.836.147 19.523 1.49 26.678 10.88 13.116-7.9 27.125-8.793 39.795-15.65 5.662-1.79 10.88-4.62 16.543-6.408.893 0 2.385-.596 3.428-.3-4.62 2.683-9.39 4.77-14.16 6.26zm-83.908 9.836c-1.938.595-4.322-.15-6.11 1.042-2.385-.3-4.62 1.043-6.558 1.787l-3.578 2.534c1.342.148 6.56.596 8.05.895 1.937 1.937 5.364 1.042 7.75 1.638 11.028-1.49 23.398.3 36.663-.3-1.938-2.382-3.875-2.98-4.92-4.022-2.085-2.086-7.897-4.322-11.773-5.96-6.706.89-13.86-.6-19.524 2.383zM1192.51 850.533c.15.447.15 1.043 0 1.49-.894.447-1.49.596-2.683.895-.744.15-1.49.15-2.234.15-2.684.596-4.322.893-7.154 1.787-.6.3-.896.596-1.49.895-.747 0-1.044-.15-1.79-.15-3.13-.148-7.303 1.045-8.05.746-7.45 1.342-6.407 1.938-14.903 2.385-6.11.298-10.58.896-16.244 1.49 0 2.98-1.938 5.813-2.385 8.497-.148 1.49-.3 2.234-.596 3.725-.598 1.938-1.79 2.832-1.49 4.918 0 4.174.297 1.342-2.087 5.516-.298.447-.448 1.043-2.087 3.28 3.577-.3 4.77-.597 6.408-.896 2.236 1.49 6.26.148 9.838.3 9.39.446 18.332-.897 26.826-.448 7.898.297 15.65-1.193 22.654-.45.148.45.148 1.046.148 1.642-.596 3.576-4.77.895-6.408 1.64-7.453.597-14.307.597-22.653.597-10.134.298-20.27-.595-30.553.15-7.005.595-13.115-.448-19.524.743-10.88-1.787-21.908 3.578-32.64 1.045-2.683-.148-5.365.895-8.048.148-1.34-.746-6.11-.297-3.577-2.385 8.346-.894 16.99.15 25.485-.147 12.52-.596 4.92-1.193 8.198-1.49 4.323-.447 6.855-.3 11.327-.3 4.024 0 6.26.448 10.582 0 .894-2.085 1.49-3.278 2.384-5.065 1.938-3.727.596 1.49 1.49-5.516.3-2.234.447-2.832.447-5.066 0-1.938.896-2.832 1.343-4.77.446-1.342.298-2.832.596-5.367-1.94 0-2.534.15-3.43.15-3.13-.896-7.45 2.235-10.283-.448-3.577-.3-5.515-.596-8.495.596-2.087-.148-4.322-.447-7.005-.744-.596-.3-1.49.445-2.087.445-2.385 1.343-3.875-2.532-6.11-.745-1.043 0-2.086 1.043-3.13-.447-4.918 1.342-8.793.895-12.967-1.79-1.342.6-1.938-.296-2.533-1.042-.148-.148-.298-.447-.148-.744.446-1.193 1.19.596 1.49.447 0 0 .894.743 1.788-.15.895-.745 1.64 1.192 2.534.745 5.663 1.342 11.773 1.342 17.586.596 5.664 1.343 14.01 0 19.375 1.343 1.342-.148 2.534-1.193 4.62 0 1.79-1.938 4.024-.447 5.366-1.342 6.856-.147 13.862-.743 20.718-.894 6.707 0 4.47-1.043 9.538-1.787 1.043.296 2.683-.448 3.43.147 1.936-.3 3.724-.3 5.66-.596 4.026-.595 9.54-.894 13.116-1.788.598.3 1.342-.148 2.385-1.342-.596-1.34 1.043-.596 1.043-.895 1.64-.596 3.878.894 6.41.298zM1182.823 803.588c1.19.596 2.383 0 3.725.298 1.045 0 1.79.298 2.684.894.148.746-.744 1.342-1.19 2.088-1.044 1.34-2.237-.746-2.536-.746-.3-.596-1.787.746-3.277-1.49-2.983.895-5.665.895-7.75.298-4.175.448-8.795-.745-12.82.894-1.64.15-2.532 2.088-3.278 2.98-.148 0-.744 1.79-2.086 2.387-1.938 1.79-4.77 4.62-5.664 5.366-.744.745 0-.895-1.342.596-.744.596-.445.895-1.49 2.533-1.34 1.64-4.023 4.47-4.62 5.217-.894 1.79-1.788 3.875-2.83 6.26 3.13 2.086 6.26 1.49 8.345 2.832 2.684.148 5.963.744 8.794 1.49 1.64-1.342 2.83.3 4.022.3 1.64.892 4.174.743 6.11 1.638 3.727.596 7.006 2.832 11.178 2.086 1.49.3 3.28.895 4.77 1.342-.148.297-.297.596-.596.596-2.533.447-4.77-.895-7.004-.744-.598-.447-1.045-.598-1.64-.447-1.192-.15-2.386-.447-3.43-.447-2.384-.746-4.022.596-7.897-1.938 0 2.234.3.895.3.895-2.237-.598-5.368-1.49-8.35-1.342-1.786-1.193-4.022-.746-5.81-1.193-4.173-.445-7.005-2.086-11.03-1.787 0 0-.148-.15-.297-.15-1.193-.744-2.535-.297-3.28-1.043-9.09-2.533-18.33-5.066-27.423-7.602-2.086-1.043-3.875-1.49-6.11-2.383-2.98-1.044-5.812-2.832-8.942-4.025-3.13-1.19-6.11-3.13-9.687-4.172-.896-.448-2.386.297-2.386-1.193 0-.447-.446-1.49-.148-1.64 1.042-1.64 4.023-1.64 5.514-2.384 3.577-.298 8.645-1.043 12.966-1.937 1.64-1.938 4.174-.447 6.11-1.193 7.304.3 14.905-3.428 23.25-2.385 10.583-1.64 22.357-2.533 32.343-1.64 7.597.594 15.2-.15 22.8.893zm-45.16 2.533c-1.937-.743-4.918 1.045-7.898.448-3.578-.596-7.452.597-11.028 1.193-3.43-.596-6.11 1.49-9.54 1.192-2.234.298-5.96.298-8.94.895-4.92.895-9.39 2.235-15.055 2.682 2.235 2.534 6.26 4.32 6.856 4.47 3.13 1.045 5.663 2.832 8.495 3.727 4.323 1.49 8.048 2.98 12.072 4.174 2.832.745 6.558 1.64 9.092 2.087 2.83-.148 6.855 2.385 10.73 2.982 2.235.296 1.192 1.34 4.322.444 1.19-2.83 2.98-4.77 4.023-7.303 1.342-1.787 2.086-1.937 4.023-4.022 1.342-1.342 2.683-3.428 4.174-5.365 1.342-1.49 3.13-3.13 4.023-4.174 0-.3 1.79-2.236 1.79-3.43-2.088-.446-4.472-.446-5.813-.595-4.022-.596-7.153 0-11.326.596zM1091.014 758.727c1.64 0 4.024-.15 5.812-.298 4.323-2.684 11.03 0 16.098.595 3.13-1.79 8.345-.746 11.624-1.044 4.77-1.19 11.03.3 16.544.3 9.688 0 20.866-.3 30.552-.746 1.492-.15 2.982-1.043 4.324-.448.148.15.297-.148.445-.148-3.426 2.236-7.6 2.384-11.027 3.875-4.92 4.322-10.582 6.557-15.8 9.836-6.26 2.83-12.667 4.917-18.33 9.24-1.79.894-3.43 1.937-5.218 2.83l-4.32 2.088 4.917.298c11.625.745 22.505-2.087 34.43-.447 4.768 0 9.24-1.94 13.858-1.044 1.193-.15 2.684 0 3.727 0-.148.298 0 .894-.148 1.043-1.19 0-2.236.297-3.28 1.042-1.192.597-2.683.597-4.022.894-4.023.45-8.05-.148-12.072.746-10.88.3-21.462-1.043-32.044.148-4.918-.895-9.836 1.64-14.605.3-3.132.745-7.155-.896-9.54.894-7.154-.746-14.16-1.938-21.61-1.938-1.64-.597-4.174 0-4.92-1.79-.148-.147.896-1.638.896-.893 8.048-2.087 14.903 2.683 24.144 1.64 4.77-.597 9.688 0 14.756-1.49 1.49-2.088 3.726-1.938 5.365-3.28 2.98-.446 5.963-1.192 7.9-3.278 7.6-3.727 15.35-5.067 21.462-10.582 1.788-.745 3.576-1.64 5.514-3.28 0-.446 4.322-2.384 4.322-2.83-.148-.3-4.62.744-4.62.148-5.81 0-11.177-1.042-15.798.597-8.346-2.086-16.99-2.235-25.934-.298-6.41-.746-12.967-1.64-19.226-.448-5.217-2.235-11.03 2.385-15.8-1.788-.445-1.342-2.83-.895-2.682-2.534 5.066-.894 9.388 1.937 14.306 2.087zM1139.304 718.188c5.812.448 11.774 1.79 18.033 2.534 7.602.894 15.5 1.788 22.654 5.365 3.728 3.726 8.347 5.664 11.33 10.582.444 2.682 2.382 2.235 1.487 5.514.148.446-.297 0-.297-.597-3.428.15-1.79-.745-4.322-4.172-3.875 1.192-6.707-.597-9.54.596-11.923-.744-22.206 0-33.83 1.194-2.832 1.34-6.41 1.34-9.69.894-2.085-.745-4.32.745-6.854.3-7.75-.448-16.395-.448-23.996.595-5.663-.298-11.177 0-16.99.596-2.235-.448-4.77-1.192-7.9-.298-.894 2.087-1.936 1.64-1.19 3.428-.3.298-.597.745-1.044 1.043-.447-.15-.895 0-1.34-.447.595-4.322 3.427-6.707 6.11-9.986 5.216-4.77 11.923-7.005 17.586-11.625 3.726-2.385 7.6-2.684 11.625-4.322 5.067-.745 10.73-.448 15.65-1.49 4.17 1.04 8.196.743 12.52.295zm-23.55 3.726c-5.81-.298-9.836 2.385-15.35 4.024-.298.298-1.64 1.64-2.385 2.087-4.174 2.98-9.093 4.322-13.564 10.284 5.366-.45 8.048 1.49 10.582.446 3.727.447 7.005-1.49 10.73-1.64 5.366 1.64 11.178.3 16.693 1.043 5.068.596 10.583-.597 15.8-.895 9.24-3.577 19.97-1.043 29.51-2.087 4.62 0 9.984-.745 17.287.15-2.83-5.963-7.898-7.006-11.326-8.943-8.792-2.385-17.585-3.875-26.677-4.77-1.79-.297-4.024.448-5.664-.596-8.198.447-18.035-2.384-25.635.894zM1180.735 685.102c-.447 3.13.15 5.812 1.193 8.346-.148.746-.746 1.49-1.193 1.64-1.938 2.832 1.79 7.9-3.13 9.39-1.638.447-3.427-.3-4.77.894-5.216 1.937-6.854.447-11.922.895-4.472.298-9.836-1.938-14.16 0-2.384 0-4.32-.895-6.407-1.192-5.664 2.086-12.072-1.043-18.034.447-4.322.298-7.75-1.49-12.072.446-.895.15-1.64.15-2.385.447-8.793 0-17.885-.894-26.528.15-4.323 0-8.496-.15-12.37-2.237-.746-.596.147-1.49.894-1.788 1.044 0 2.534-.298 4.175 1.043 3.13-1.34 5.96.15 8.644-.447 2.234.596 4.768.745 7.153.15 5.066-2.982 10.433.445 15.65.296 5.065-.15 10.133-2.087 15.35-1.49 5.364.745 11.626 1.193 17.14.596 1.79-.596 3.875.298 5.516-.298 1.638.298 3.873.15 5.364 1.192 2.086-.297 4.62-.746 6.705-1.34 1.192.595 2.98.446 4.024.744 5.663.447 6.855 1.192 12.07-.596 3.43 1.192 2.088-2.385 5.068-3.13 1.938-.745.895-1.64.895-2.683-.447-2.384 1.938-4.173.895-6.26-.746-1.938-.15-4.472-1.64-6.558-.15-.597-.15-1.342.597-1.342 1.936-.445 2.232 1.492 3.275 2.684zM1110.688 631.15c4.173.746 7.6 1.49 12.072.894 7.75 3.28 16.692-1.34 23.995 4.025 4.024.893 9.092 1.04 12.818 2.98 6.26 2.085 12.816 2.98 18.182 7.302 2.236 2.98 3.875 5.663 5.516 8.793-.298 2.98-.147 6.408-2.83 7.75-5.665 2.235-11.626 3.28-17.14 6.11-11.924.3-22.953 4.62-34.132 2.683-5.364 1.193-10.58-.148-15.947.746-9.24-.596-17.735-4.322-26.677-5.96-1.938-1.64-9.54-2.982-3.43-5.367 4.026-.745 6.56 2.236 10.137 3.13 2.086.447 4.023 2.832 6.408 2.832 9.092 1.638 16.99 3.277 26.828 2.085 8.495 2.087 17.735 0 26.23-1.79 8.048-.595 15.35-2.83 22.802-4.917 3.578-1.64 2.236-4.62 3.877-8.496-1.938-1.34-1.342-4.173-2.684-5.365-2.384-2.684-7.153-4.025-10.134-5.812-4.918-.745-9.836 0-13.412-2.83-4.025-.747-8.646.296-11.775-2.834-13.414-2.235-26.978-1.19-39.496-4.32-7.303-.747-13.414-1.044-19.376-4.77.3-.895 1.79-.448 2.385-.745 9.242-.596 16.694 4.62 25.785 3.876zM1193.255 570.044c-11.773 5.216-21.908 12.073-32.19 18.928-.896.447-1.193 1.64-3.132 1.64-4.768 4.77-10.73 5.216-15.053 9.538-3.875 1.938-8.197 4.173-12.668 7.6.596.448 1.64.895 2.086 1.193 3.13 1.49 6.262.298 9.092.448 8.943.298 17.14-1.192 25.04-1.34 7.6 0 14.604-1.79 21.31-1.044.15.3.15.746.15 1.34-.448 3.43-4.323 1.045-5.962 1.64-7.154.896-13.414 1.044-21.164 1.342-9.538.596-18.928.15-28.467 1.192-6.408.596-12.22 0-18.33 1.342-10.136-1.193-20.42 4.023-30.555 1.937-2.385 0-4.77 1.19-7.303.595-1.045-.745-5.813.15-3.43-2.086 7.75-1.193 15.8 0 23.698-1.045 11.923-.446 24.592-1.192 33.385-8.793 1.49-.447 2.684-1.49 3.726-2.236 3.725-2.235 7.75-3.875 10.88-7.153 3.13-1.043 5.962-2.832 8.495-4.62 4.47-4.47 10.434-6.11 15.352-9.54 0-.596.447-.446.744-.596 1.343-.596 2.386-1.788 4.026-2.98 0-.596 4.322-1.49 4.172-1.938-.148-.448-5.066-.3-5.516-.597-6.854 1.49-15.35 2.086-23.248 2.832-8.496.746-14.16 2.385-22.21 2.533-2.83-.596-6.853 2.236-9.686-.148-3.13 0-4.92-.15-7.452.746-2.235 0-4.472-.298-7.153-.298-.597-.15-1.192.446-1.788.446-2.535 1.64-3.876-2.235-5.813-.446-.895.298-1.79 1.044-2.683-.3-4.77 1.344-8.497.598-12.52-1.638-1.343.596-1.79-.15-2.386-.596v-.447c.447-1.043 1.342.447 1.342.298 0 0 .895.745 1.788-.15.597-.893 1.938 1.044 2.236.597 5.067 1.192 11.03.895 16.692.15 5.216.893 13.115-.597 18.033.446 1.044-.15 2.385-1.043 4.174-.447 1.638-1.49 3.873-.148 5.065-1.042 6.26-.447 12.967-1.49 19.376-1.49 6.11-.597 12.818-1.193 17.736-1.94 1.044.3 2.236-.595 3.28.15 2.532-.596 3.575-.596 5.513-.895 3.874-.745 8.792-1.34 12.22-2.086.598 0 1.342-.447 2.236-1.49-.746-1.34.895-.745 1.043-.745 1.34-.596 3.577.596 5.81-.15.005.448.155.895.005 1.342zM1191.616 533.233c1.938.746 3.28-.298 4.77 0-.447 1.043-1.193 1.938-1.193 3.13-.596 1.64-2.682 1.937-3.873 3.13-1.193.298-1.342 1.937-2.684 2.83-3.13 1.94-5.963 4.025-9.092 6.26-6.11 1.492-11.625 5.665-18.78 6.41-5.513 2.534-12.667 2.385-18.777 2.534-3.727 2.98-9.688.297-14.16 1.938-2.235.297-3.576-.596-5.364-.596-6.11 1.638-11.626-.747-17.29-1.64-4.022-1.79-8.346-2.237-12.22-4.323-1.193-.895-2.98-.596-4.174-1.044-4.77-3.13-10.285-5.067-14.606-8.495-2.087-.447-2.683-2.98-4.77-3.427-.745-1.043-2.235-1.937-1.34-4.173-1.343-1.043-2.535-3.13 0-2.683.595-.448.893-.15.147.447 4.92 5.962 12.968 11.478 20.867 15.65 2.98 0 5.96 1.64 7.75 3.13 6.11 1.64 11.773 3.874 18.033 3.874 2.235 0 4.472.447 6.408-.148 3.876.447 7.453 1.49 11.477.447 3.875-.298 7.75-.745 11.477-1.49 11.924-2.385 24.89-2.98 34.727-9.54 3.575-2.383 6.108-4.47 9.24-8.047-.448-.745 1.937-.596 1.49-1.64-9.24.448-20.718.746-29.063 1.342-3.727 1.64-8.05-.298-12.072.298-3.576.447-7.303-.447-11.03-.298-1.788 0-3.427-.298-5.065.298-2.684-.447-6.11.298-8.348-1.192-1.043-.894 1.342-.745 1.64-1.342 2.385-.894 4.77-1.192 7.452-.148 2.086.297 4.174-1.043 6.11-1.043 5.515 0 10.284 1.492 14.01 1.044 0-.448 1.79 0 3.28 0 1.043-.298 2.086-.298 2.682-.15 3.28 0 5.366-.595 8.346-.148 5.367-1.34 12.072 0 16.395-1.192 1.342-.298 1.19-.15 2.533-.298 2.234 0 3.277-.747 5.066.297zM1189.083 503.723c-1.49 3.28-5.068 3.578-7.602 5.366-3.427 1.788-7.153 3.576-11.028 4.023-1.043.597-2.533.746-3.727.894-9.984 1.79-19.672 5.813-30.105 6.11-7.154 1.492-15.053.747-22.804.597-6.408 0-14.605-1.788-21.014-4.62-3.13-.745-6.558-1.938-8.793-3.875-3.28-.896-5.814-3.28-8.646-5.068-.596-1.044-1.34-2.087-1.34-3.13 0-.15-.15-.3-.15-.3 2.98.747 5.812 2.98 8.793 4.77 2.385 1.342 3.727 3.13 6.26 3.727 4.322.893 7.75 3.874 12.222 3.576 8.195 2.086 17.138 1.938 26.975 1.342-1.49-3.428 1.043-4.77-.148-6.855.148-.895.298-1.49.596-2.087.447-.447.745-.894 1.34-.447.3.297.448.446.747.744-.3.895.297 1.49.745 1.938-.448 1.938 0 3.875-.298 6.26 7.303.745 12.22-1.34 18.182-1.64 2.534-1.192 6.408-1.49 9.538-2.385 2.832-.894 6.26-.894 8.943-2.533 2.235.298 4.77-.447 6.558-2.683 3.875.15 6.855-2.68 11.326-3.576v-.745c.746-.3 2.236-1.94 4.025-1.343-.15.744-.3 1.34-.597 1.936zM1091.014 460.503c1.64 0 4.024-.15 5.812-.297 4.323-2.684 11.03 0 16.098.596 3.13-1.79 8.345-.745 11.624-1.043 4.77-1.193 11.03.297 16.544.297 9.688 0 20.866-.298 30.552-.745 1.492-.15 2.982-1.044 4.324-.448.148.15.297-.148.445-.148-3.426 2.236-7.6 2.385-11.027 3.875-4.92 4.323-10.582 6.56-15.8 9.837-6.26 2.832-12.667 4.918-18.33 9.24-1.79.895-3.43 1.938-5.218 2.832l-4.32 2.086 4.917.298c11.625.745 22.505-2.086 34.43-.447 4.768 0 9.24-1.938 13.858-1.043 1.193-.15 2.684 0 3.727 0-.148.298 0 .895-.148 1.043-1.19 0-2.236.298-3.28 1.043-1.192.596-2.683.596-4.022.894-4.023.447-8.05-.15-12.072.745-10.88.297-21.462-1.044-32.044.148-4.918-.895-9.836 1.64-14.605.298-3.132.745-7.155-.895-9.54.894-7.154-.745-14.16-1.938-21.61-1.938-1.64-.596-4.174 0-4.92-1.79-.148-.147.896-1.638.896-.893 8.048-2.088 14.903 2.68 24.144 1.638 4.77-.596 9.688 0 14.756-1.49 1.49-2.088 3.726-1.94 5.365-3.28 2.98-.447 5.963-1.19 7.9-3.278 7.6-3.726 15.35-5.067 21.462-10.582 1.788-.746 3.576-1.64 5.514-3.28 0-.446 4.322-2.384 4.322-2.83-.148-.3-4.62.744-4.62.148-5.81 0-11.177-1.044-15.798.596-8.346-2.086-16.99-2.235-25.934-.298-6.41-.745-12.967-1.64-19.226-.447-5.217-2.236-11.03 2.385-15.8-1.788-.445-1.343-2.83-.896-2.682-2.536 5.066-.892 9.388 1.94 14.306 2.09z"/></g><path d="M2048 0M2048 1536M0 1536M0 0" fill="none" stroke="#17192D" stroke-width="3"/></g></svg>