<?xml version="1.0" encoding="iso-8859-1"?>
<!-- Generator: Adobe Illustrator 15.1.0, SVG Export Plug-In . SVG Version: 6.00 Build 0)  -->
<!DOCTYPE svg PUBLIC "-//W3C//DTD SVG 1.1//EN" "http://www.w3.org/Graphics/SVG/1.1/DTD/svg11.dtd">
<svg version="1.1" xmlns="http://www.w3.org/2000/svg" xmlns:xlink="http://www.w3.org/1999/xlink" x="0px" y="0px" width="2048px"
	 height="1536px" viewBox="0 0 2048 1536" style="enable-background:new 0 0 2048 1536;" xml:space="preserve">
<g id="bheada_x5F_2">
	<g>
		<path style="fill:#17192D;" d="M1102.548,864.635c4.174,0.746,7.602,1.492,12.072,0.895c7.75,3.279,16.692-1.342,23.997,4.025
			c4.023,0.895,9.092,1.043,12.814,2.98c6.26,2.086,12.818,2.98,18.184,7.303c2.236,2.98,3.875,5.662,5.516,8.793
			c-0.299,2.98-0.15,6.408-2.832,7.75c-5.664,2.236-11.627,3.279-17.141,6.111c-11.922,0.297-22.952,4.619-34.13,2.682
			c-5.364,1.193-10.58-0.148-15.946,0.746c-9.24-0.598-17.735-4.322-26.679-5.961c-1.938-1.641-9.539-2.982-3.428-5.367
			c4.024-0.744,6.558,2.236,10.135,3.131c2.087,0.447,4.024,2.832,6.409,2.832c9.091,1.639,16.989,3.277,26.827,2.086
			c8.495,2.086,17.735,0,26.231-1.789c8.047-0.596,15.35-2.832,22.803-4.918c3.576-1.639,2.234-4.621,3.875-8.494
			c-1.939-1.342-1.342-4.174-2.684-5.365c-2.385-2.684-7.154-4.025-10.135-5.814c-4.918-0.744-9.836,0-13.412-2.83
			c-4.025-0.746-8.646,0.297-11.774-2.832c-13.414-2.236-26.977-1.193-39.496-4.322c-7.303-0.746-13.414-1.043-19.375-4.77
			c0.299-0.895,1.789-0.447,2.385-0.746C1086.005,860.164,1093.456,865.381,1102.548,864.635z"/>
		<path style="fill:#17192D;" d="M1082.874,819.775c1.641,0,4.025-0.15,5.813-0.299c4.322-2.682,11.028,0,16.097,0.596
			c3.129-1.787,8.346-0.746,11.625-1.043c4.769-1.191,11.029,0.297,16.543,0.297c9.688,0,20.866-0.297,30.552-0.744
			c1.49-0.148,2.98-1.043,4.324-0.447c0.148,0.15,0.297-0.148,0.445-0.148c-3.428,2.234-7.602,2.385-11.027,3.875
			c-4.918,4.322-10.582,6.557-15.797,9.836c-6.261,2.832-12.67,4.918-18.333,9.24c-1.789,0.895-3.429,1.938-5.217,2.832
			l-4.322,2.086l4.918,0.299c11.625,0.746,22.505-2.086,34.429-0.447c4.768,0,9.24-1.938,13.859-1.043c1.193-0.148,2.684,0,3.727,0
			c-0.15,0.299,0,0.895-0.15,1.043c-1.191,0-2.234,0.299-3.277,1.043c-1.193,0.596-2.684,0.596-4.023,0.895
			c-4.025,0.447-8.049-0.148-12.072,0.746c-10.879,0.297-21.462-1.045-32.044,0.148c-4.918-0.895-9.836,1.639-14.605,0.299
			c-3.13,0.744-7.154-0.895-9.539,0.895c-7.153-0.746-14.158-1.938-21.609-1.938c-1.641-0.596-4.175,0-4.92-1.789
			c-0.148-0.15,0.895-1.641,0.895-0.895c8.049-2.086,14.904,2.684,24.145,1.639c4.77-0.596,9.688,0,14.755-1.49
			c1.491-2.086,3.727-1.938,5.366-3.277c2.98-0.449,5.961-1.193,7.898-3.279c7.602-3.727,15.352-5.068,21.464-10.582
			c1.787-0.744,3.576-1.639,5.514-3.279c0-0.447,4.32-2.385,4.32-2.832c-0.148-0.297-4.619,0.746-4.619,0.15
			c-5.812,0-11.179-1.045-15.8,0.596c-8.345-2.086-16.989-2.236-25.932-0.299c-6.408-0.744-12.967-1.639-19.226-0.447
			c-5.217-2.234-11.03,2.385-15.8-1.789c-0.445-1.34-2.831-0.895-2.682-2.533C1073.635,816.795,1077.956,819.625,1082.874,819.775z"
			/>
		<path style="fill:#17192D;" d="M1131.164,779.236c5.814,0.447,11.775,1.789,18.035,2.533c7.598,0.895,15.498,1.789,22.652,5.367
			c3.725,3.725,8.346,5.662,11.326,10.58c0.447,2.684,2.385,2.236,1.49,5.516c0.148,0.447-0.299,0-0.299-0.596
			c-3.426,0.148-1.787-0.746-4.32-4.174c-3.875,1.193-6.707-0.596-9.539,0.596c-11.924-0.744-22.205,0-33.831,1.193
			c-2.832,1.342-6.408,1.342-9.688,0.895c-2.087-0.746-4.323,0.744-6.855,0.297c-7.751-0.447-16.396-0.447-23.996,0.596
			c-5.663-0.297-11.178,0-16.991,0.598c-2.234-0.447-4.769-1.193-7.899-0.299c-0.895,2.086-1.937,1.639-1.191,3.428
			c-0.299,0.299-0.596,0.746-1.044,1.043c-0.446-0.148-0.894,0-1.341-0.445c0.596-4.324,3.428-6.707,6.111-9.986
			c5.216-4.77,11.924-7.006,17.586-11.625c3.727-2.385,7.601-2.684,11.625-4.322c5.067-0.746,10.73-0.447,15.65-1.49
			C1122.817,779.982,1126.842,779.684,1131.164,779.236z M1107.616,782.963c-5.812-0.299-9.838,2.385-15.352,4.023
			c-0.298,0.299-1.639,1.641-2.385,2.088c-4.172,2.98-9.091,4.32-13.562,10.283c5.365-0.447,8.048,1.49,10.582,0.447
			c3.727,0.447,7.004-1.49,10.73-1.641c5.365,1.641,11.178,0.299,16.693,1.043c5.066,0.598,10.581-0.596,15.797-0.893
			c9.241-3.578,19.974-1.043,29.509-2.088c4.621,0,9.986-0.744,17.289,0.15c-2.832-5.963-7.898-7.006-11.326-8.943
			c-8.795-2.385-17.586-3.875-26.678-4.77c-1.789-0.297-4.024,0.447-5.663-0.596
			C1125.054,782.516,1115.217,779.684,1107.616,782.963z"/>
		<path style="fill:#17192D;" d="M1180.197,721.112c0.447,0.149,0.746,0.298,1.043,0.597c-1.342,3.428-5.365,1.49-8.494,2.384
			c-2.684,0.448-5.217,0-7.9,0.149c-7.303,0.149-14.605-0.149-21.609,0c-3.725,0-8.645,0.299-12.52-0.149
			c-2.534-0.298-5.663,0-8.198,0.149c-6.109,0.597-11.922,0-18.332,0.447c-0.297-0.298-0.596-0.298-0.893-0.298
			c-2.684,1.341-5.664,0.149-8.197,0.596c-6.111,0.298-11.924,0.895-17.885,0.895c-4.174-1.789-8.496,0.895-12.817-0.149
			c-0.597-0.148,0.894-1.788,1.341-1.788c6.559-4.471,14.158,1.788,21.462-0.299c8.645-2.384,18.332-1.49,26.827-1.937
			c8.494-0.447,16.543,0.297,25.188,0c2.385-0.299,4.77-0.299,7.303-0.299c0.596,0,1.342,0.149,1.938,0.149
			c6.557-0.149,13.113-0.149,18.928-1.043C1171.852,721.708,1175.576,720.963,1180.197,721.112z"/>
		<path style="fill:#17192D;" d="M1173.342,673.868c-1.789,1.342-4.174,2.235-5.961,3.726c-7.305,2.087-15.203,4.024-23.102,4.024
			c-5.662,0.895-11.476,2.086-16.991,3.428c-2.979-0.298-6.408-0.894-9.836-0.148c-0.447,1.192-0.447,1.639-2.235,2.086
			c1.64,4.322,5.067,7.303,6.706,10.433c0.895,0.447,1.789,1.64,1.49,2.683c-0.596,1.788,0.299,1.788,1.342,2.832
			c1.342,0,2.533,0.149,3.727,0.745c3.129-1.044,5.515-1.044,8.048-0.149c2.832,1.64,5.217,0.448,8.348,0
			c5.959-0.895,11.623-2.235,17.734-2.533c4.77-0.149,9.539-0.149,14.605-0.149c0.447,0.149,0.895,0.298,0.744,0.746
			c0,0.446-0.596,0.894-1.043,1.042c-7.451,0.448-14.605,0.746-21.164,2.833c-4.918-0.149-8.939,1.341-13.561,0.894
			c-11.029-1.043-22.655,0-33.087,1.342c-4.621-1.044-8.197,0.895-12.669,0.596c-11.625-0.895-23.697-0.895-33.98-4.321
			c-1.491-0.448-0.745-1.64-1.491-2.684c0.15-0.447,0.895,0,1.193-0.149c3.576,0.745,6.705,2.385,10.283,2.236
			c0.148,0.148,0.148,0.148,0.298,0.298c6.11-0.298,11.774,1.64,17.14,1.341c4.023,2.236,8.495-0.596,12.816,0.149
			c5.516,0.895,10.136-1.044,15.502-1.788c0.744-0.596,1.788-1.192,2.83-2.385c-1.787-4.77-7.303-7.75-7.898-11.625
			c0.746,0-1.043-1.192-0.298-3.577c-4.62-1.341-8.347,0.447-11.774-1.192c-2.832-0.745-5.663,0.745-8.645-0.895
			c-4.023,1.938-7.601,0.149-11.477,0.448c-2.234-1.938-3.129,1.938-5.812,0.148c-2.534,0.745-5.962,1.192-8.048,0
			c0.149-0.597,0.149-1.043,0-1.639c2.235-1.343,5.365,0.446,7.602-1.343c3.277-0.297,5.662,1.49,8.941,0.895
			c9.538-1.788,20.12,0.299,29.809-0.298c6.707-0.298,14.01,0.746,20.418-1.49c10.136-1.64,20.716-2.98,30.255-4.919
			c2.383-1.49,5.215-3.129,8.197-2.98C1172.746,672.973,1173.191,673.271,1173.342,673.868z"/>
		<path style="fill:#17192D;" d="M1165.889,641.675c-5.365,3.874-12.221,3.278-17.137,7.452c-1.938,0.596-4.025,1.639-5.664,2.683
			c-4.619-0.149-9.391,2.831-15.649,5.663c4.023,1.64,7.004,1.192,9.091,0.597c8.793,0,16.543-1.491,25.783-0.149
			c2.533,0,5.664-0.744,7.898,0.298c4.322,0.149,9.391-1.042,13.115,1.043c0.15,0.149,0.15,0.149,0.299,0.298
			c-3.131,0.895-7.152,0.598-10.283,0.448c-2.684-0.746-5.514,0.298-8.496,0.298c-5.812,0.148-11.922-1.938-17.137,0.597
			c-4.77,0.596-9.24-1.641-13.862,0c-4.173,1.341-8.346-0.745-12.221,1.191c-7.154-1.191-16.395,0.149-24.146-1.191
			c-8.793,0-17.735,0.596-26.38-0.895c-4.77-0.149-6.706-1.044-11.178-1.938c-0.148,0,0.745-1.044,0.745-1.342
			c4.769-2.832,6.409-3.727,11.477-5.663c7.004-2.832,14.456-2.235,21.461-4.173c9.837,0.147,19.524,1.49,26.679,10.88
			c13.115-7.899,27.126-8.794,39.792-15.65c5.664-1.788,10.881-4.62,16.545-6.408c0.893,0,2.383-0.596,3.428-0.298
			C1175.428,638.098,1170.658,640.185,1165.889,641.675z M1081.981,651.511c-1.938,0.597-4.322-0.148-6.111,1.044
			c-2.385-0.299-4.621,1.044-6.558,1.788l-3.577,2.534c1.342,0.148,6.559,0.596,8.049,0.895c1.938,1.938,5.364,1.042,7.749,1.639
			c11.029-1.49,23.399,0.299,36.665-0.298c-1.938-2.385-3.875-2.981-4.918-4.024c-2.088-2.087-7.9-4.322-11.775-5.961
			C1094.798,650.021,1087.645,648.531,1081.981,651.511z"/>
		<path style="fill:#17192D;" d="M1155.309,564.77c-0.299-0.149,1.34-0.447,1.938-0.298c0.445,0,1.043,0,1.191,0
			c0.895,0.298,2.086,0.745,2.98,0.596c2.086,0.895,4.174,0.447,5.963,1.341c3.576,1.639,8.346,3.13,12.221,6.408
			c2.385,2.534,5.514,3.577,7.898,5.812c0.447,1.341,1.043,1.938,0.746,3.13c-2.385,0.149-3.578-3.279-5.812-4.173
			c-1.641-1.49-4.025-1.938-5.365-3.875c-0.299-0.149-0.895-0.746-1.193-0.895s-0.447-0.447-0.447-0.447
			c-0.148,0-0.746-0.298-0.746-0.447c-1.34-1.341-1.787-1.49-1.787-0.894c-1.043-0.298-1.789-1.043-2.832-0.894
			c-0.447-0.149-0.895-0.448-1.191-0.895c-1.789,0.298-2.236-0.596-3.131-0.746c-1.639-0.894-4.174,0-5.961-0.596
			c-0.895,0.149-1.641-0.745-2.684-0.596c-3.576-1.044-5.066-0.149-8.941,0.148c-4.918,1.789-5.066,1.342-8.195,2.534
			c-2.385,0.895-3.728,1.192-5.963,2.236c-2.236,1.044-3.13,2.236-5.366,3.279c-2.086,0.894-3.428,0.596-5.365,1.342
			c-2.236,0.894-3.577,1.937-5.664,2.832c-2.086,1.043-3.725,1.49-6.11,2.533c-2.235,1.342-3.428,2.684-6.11,3.429
			c-0.744,0-1.789,0.149-2.533,0.149c-0.746-0.149-1.64,0.148-2.086,0.148c-0.447,0.149-1.192-0.148-1.641-0.298
			c-2.683,0.894-4.174-0.895-7.004-0.596c-2.684-0.745-5.366-1.043-8.496-2.087c-2.98-1.639-6.855-2.384-10.135-4.62
			c-3.428-1.789-6.855-4.471-9.39-7.75c-0.298-0.447-1.489-1.64-0.446-1.49c2.682,1.193,5.066,3.875,7.898,4.918
			c7.601,4.769,15.501,7.601,23.398,8.346c0.896,0.448,1.938,0,2.982,0.448c1.49,0,3.576,0.447,5.216,0.148
			c5.364,0.597,4.173-1.788,6.409-2.683c2.385-0.894,3.875-0.745,5.961-1.789c1.49-0.894,2.235-1.937,4.023-2.683
			c1.49-0.894,2.534-1.64,4.472-1.937c4.472-0.448,4.62-1.341,6.856-3.279c1.043-0.596,1.639-1.341,2.831-1.788
			c1.044-0.895,1.938-0.448,3.281-0.895c1.787-0.447,2.682-1.044,4.471-1.64c1.639-0.596,3.428-1.341,4.32-1.341
			c3.131-1.341,4.918-0.447,7.898-0.745C1154.562,564.174,1155.457,564.77,1155.309,564.77z"/>
		<path style="fill:#17192D;" d="M1117.899,541.818c2.832,2.235,6.11,4.322,8.645,7.601c11.179-0.895,21.462,1.341,31.298,1.044
			c4.322-0.15,7.303-2.832,11.326-2.535c0.148,1.193,1.043,2.385,2.533,2.832c0.299,0.298,0.299-0.894-0.148-0.746
			c-0.148,0.149-1.043,0.298-1.193,0.298c-5.365,3.577-13.412,1.044-19.971,1.938c-2.383,0.596-5.811,1.64-7.748,0
			c-8.943-1.639-19.673,0.745-28.467-1.192c-6.409-0.298-13.265,1.49-19.376,0.149c-9.239-0.745-18.48,0.298-27.87-1.043
			c-3.13,1.193-5.663,0-8.942-0.149c-0.894-0.596-2.684,0-3.13-1.042c0.597-0.745,0.298-1.938,1.192-2.534
			c3.428-2.832,8.048-3.577,11.477-5.663c3.428-0.596,6.408-1.341,9.39-2.98c0.298-0.448,0.596-0.895,0.894-1.044
			c3.875-0.297,7.751-2.981,11.923-1.341C1099.269,536.453,1109.702,536.899,1117.899,541.818z M1079.447,538.688
			c-3.13,2.235-7.153,3.13-10.434,4.024c-1.191,1.938-4.769,1.341-6.557,3.13c1.788,2.832,4.321,1.49,6.11,1.789
			c9.092,1.788,18.481,0.447,27.87,1.043c3.727,1.49,7.005-0.149,10.73,0.149c4.174,0.298,8.347-1.64,12.222,0.298l1.342-1.639
			c-1.789-2.684-4.322-4.621-7.602-5.515c-2.832,0-5.514-1.491-8.346-2.683c-5.068-1.341-10.136-1.043-15.5-1.341
			C1086.005,537.794,1083.322,539.731,1079.447,538.688z"/>
		<path style="fill:#17192D;" d="M1180.197,516.631c0.447,0.149,0.746,0.298,1.043,0.597c-1.342,3.428-5.365,1.49-8.494,2.384
			c-2.684,0.447-5.217,0-7.9,0.149c-7.303,0.149-14.605-0.149-21.609,0c-3.725,0-8.645,0.298-12.52-0.149
			c-2.534-0.297-5.663,0-8.198,0.149c-6.109,0.596-11.922,0-18.332,0.448c-0.297-0.298-0.596-0.298-0.893-0.298
			c-2.684,1.341-5.664,0.149-8.197,0.596c-6.111,0.298-11.924,0.895-17.885,0.895c-4.174-1.789-8.496,0.895-12.817-0.149
			c-0.597-0.149,0.894-1.789,1.341-1.789c6.559-4.471,14.158,1.789,21.462-0.298c8.645-2.385,18.332-1.491,26.827-1.938
			c8.494-0.447,16.543,0.298,25.188,0c2.385-0.298,4.77-0.298,7.303-0.298c0.596,0,1.342,0.149,1.938,0.149
			c6.557-0.149,13.113-0.149,18.928-1.043C1171.852,517.228,1175.576,516.483,1180.197,516.631z"/>
		<path style="fill:#17192D;" d="M1078.702,491.296c2.234,0.298,3.726,2.534,6.26,2.534c4.769,2.384,9.24,3.577,15.053,3.875
			c0.895,0.447,2.385,0.596,3.428,0.894c3.279,0.299,6.26,1.789,9.39,1.789c1.938,0.596,4.62-0.448,6.409,1.937
			c2.385-0.596,4.172-1.192,5.663-1.937c0.597-1.193,2.235-2.683,2.087-4.323c1.043-1.639,0.148-2.98,0.895-5.068
			c0.894-2.831,0.894-4.471,2.385-7.451c0.744-0.597,1.489-1.193,2.385-1.043c0.596,1.491,0,3.279,0,5.067
			c-1.938,3.875-1.641,5.962-2.981,11.029c1.192,0.745,0.745,1.341,1.192,1.64c3.726,0.596,7.751,0.149,10.88-0.596
			c1.938,0.297,3.576-0.448,6.559-0.448c0.596-1.788,1.936-0.447,2.83-0.895c5.365-0.447,10.135-3.427,15.648-3.725
			c2.385-2.087,6.408-1.789,8.793-3.578c2.832,0.299,4.322-3.427,7.9-2.533c1.787-1.341,3.428-2.98,5.664-2.98
			c0.596,0.447,1.191,0.894,1.787,1.491c-0.297,2.235-2.832,2.384-4.471,3.577c-2.533,0.298-4.918,0.894-6.707,2.534
			c-3.277-0.149-5.217,2.682-8.346,2.533c-1.193,0.746-2.385,0.895-3.279,1.491c-1.191-0.149-2.236,0.298-3.131,0.745
			c-6.855,0-12.221,4.471-19.076,4.024c-0.893,0.596-2.531,0.596-3.426,0.746c-7.304,2.533-15.8,2.086-23.251,1.937
			c-3.428-0.895-7.602,0-10.583-1.491c-9.239-1.639-18.182-5.365-26.976-7.75c-4.173-1.64-8.048-4.173-11.924-6.26
			c-4.322-2.385-9.389-4.023-12.52-8.346c0-0.298,0-0.746,0.299-0.894C1064.245,484.143,1071.249,488.017,1078.702,491.296z"/>
		<path style="fill:#17192D;" d="M1183.477,444.35c1.938,0.745,3.279-0.298,4.77,0c-0.447,1.043-1.193,1.938-1.193,3.129
			c-0.596,1.64-2.684,1.938-3.875,3.13c-1.191,0.298-1.34,1.937-2.684,2.832c-3.129,1.938-5.961,4.024-9.09,6.26
			c-6.111,1.491-11.625,5.664-18.779,6.409c-5.514,2.534-12.666,2.385-18.778,2.534c-3.727,2.98-9.688,0.297-14.159,1.937
			c-2.235,0.297-3.577-0.596-5.364-0.596c-6.111,1.639-11.627-0.745-17.289-1.64c-4.024-1.789-8.347-2.235-12.222-4.322
			c-1.192-0.895-2.98-0.596-4.173-1.043c-4.77-3.129-10.285-5.067-14.605-8.495c-2.088-0.447-2.684-2.981-4.77-3.428
			c-0.746-1.043-2.236-1.938-1.342-4.173c-1.341-1.043-2.533-3.13,0-2.683c0.596-0.448,0.894-0.149,0.148,0.447
			c4.919,5.961,12.967,11.477,20.865,15.649c2.981,0,5.963,1.64,7.751,3.13c6.11,1.639,11.774,3.875,18.034,3.875
			c2.236,0,4.471,0.448,6.408-0.148c3.875,0.446,7.452,1.49,11.477,0.446c3.875-0.298,7.75-0.745,11.476-1.49
			c11.924-2.385,24.889-2.981,34.727-9.539c3.576-2.385,6.109-4.471,9.24-8.048c-0.447-0.745,1.938-0.596,1.49-1.639
			c-9.24,0.447-20.717,0.745-29.062,1.341c-3.725,1.639-8.047-0.298-12.072,0.298c-3.577,0.447-7.304-0.447-11.028-0.298
			c-1.79,0-3.428-0.298-5.067,0.298c-2.683-0.447-6.11,0.299-8.347-1.192c-1.043-0.894,1.341-0.745,1.639-1.342
			c2.386-0.894,4.77-1.192,7.453-0.148c2.086,0.297,4.173-1.044,6.11-1.044c5.515,0,10.285,1.491,14.01,1.044
			c0-0.448,1.789,0,3.279,0c1.043-0.298,2.086-0.298,2.682-0.149c3.279,0,5.365-0.596,8.346-0.149
			c5.365-1.341,12.072,0,16.395-1.192c1.342-0.298,1.193-0.149,2.533-0.298C1180.645,444.052,1181.688,443.307,1183.477,444.35z"/>
		<path style="fill:#17192D;" d="M1180.943,414.841c-1.492,3.279-5.068,3.577-7.602,5.365c-3.428,1.789-7.154,3.577-11.029,4.024
			c-1.043,0.596-2.533,0.745-3.727,0.894c-9.984,1.789-19.672,5.813-30.104,6.111c-7.154,1.49-15.053,0.745-22.803,0.596
			c-6.41,0-14.606-1.788-21.016-4.62c-3.13-0.745-6.557-1.938-8.793-3.875c-3.279-0.895-5.812-3.279-8.644-5.068
			c-0.597-1.043-1.341-2.086-1.341-3.13c0-0.149-0.15-0.298-0.15-0.298c2.98,0.745,5.812,2.98,8.794,4.77
			c2.385,1.341,3.726,3.13,6.26,3.726c4.321,0.894,7.749,3.875,12.221,3.577c8.197,2.086,17.14,1.937,26.977,1.341
			c-1.491-3.428,1.042-4.769-0.149-6.855c0.149-0.895,0.299-1.491,0.596-2.087c0.447-0.447,0.745-0.894,1.342-0.447
			c0.298,0.299,0.447,0.447,0.744,0.746c-0.297,0.894,0.299,1.49,0.746,1.937c-0.447,1.938,0,3.875-0.297,6.26
			c7.303,0.745,12.221-1.341,18.183-1.64c2.533-1.192,6.408-1.491,9.537-2.385c2.832-0.894,6.26-0.894,8.941-2.533
			c2.236,0.298,4.77-0.448,6.559-2.683c3.875,0.149,6.855-2.683,11.326-3.577c0-1.192,0-0.745,0-0.745
			c0.746-0.298,2.236-1.937,4.025-1.341C1181.391,413.649,1181.24,414.245,1180.943,414.841z"/>
		<path style="fill:#17192D;" d="M1172.596,379.52c-0.445,3.13,0.15,5.812,1.193,8.347c-0.148,0.745-0.746,1.49-1.193,1.639
			c-1.938,2.832,1.789,7.899-3.129,9.389c-1.639,0.447-3.428-0.298-4.77,0.895c-5.217,1.938-6.855,0.447-11.924,0.895
			c-4.469,0.298-9.834-1.938-14.156,0c-2.386,0-4.323-0.895-6.411-1.193c-5.662,2.087-12.07-1.043-18.032,0.448
			c-4.322,0.298-7.751-1.491-12.073,0.447c-0.894,0.149-1.639,0.149-2.385,0.447c-8.793,0-17.884-0.894-26.527,0.149
			c-4.324,0-8.496-0.149-12.372-2.236c-0.745-0.596,0.149-1.49,0.896-1.788c1.043,0,2.533-0.298,4.174,1.043
			c3.128-1.341,5.959,0.149,8.644-0.447c2.235,0.596,4.769,0.745,7.153,0.149c5.067-2.981,10.434,0.446,15.649,0.297
			c5.067-0.149,10.134-2.086,15.351-1.491c5.365,0.746,11.626,1.193,17.14,0.596c1.788-0.596,3.875,0.299,5.515-0.298
			c1.642,0.298,3.876,0.149,5.366,1.192c2.088-0.297,4.619-0.745,6.707-1.341c1.191,0.596,2.979,0.447,4.021,0.746
			c5.664,0.447,6.857,1.192,12.072-0.597c3.43,1.192,2.088-2.384,5.068-3.13c1.938-0.745,0.895-1.64,0.895-2.682
			c-0.447-2.385,1.938-4.174,0.893-6.26c-0.744-1.938-0.148-4.471-1.639-6.558c-0.148-0.596-0.148-1.341,0.596-1.341
			C1171.256,376.391,1171.553,378.328,1172.596,379.52z"/>
		<path style="fill:#17192D;" d="M1174.086,344.943c2.684,3.13,4.473,6.26,7.154,9.986c0.447,3.577,2.98,3.577,2.385,6.409
			c-2.385,3.278-3.727,1.639-6.557,1.788c-9.24-1.192-20.121,0.745-29.062,1.342c-8.047-0.597-12.52,0.596-23.548,0.894
			c-2.832,1.192-6.857,0.447-9.986,0c-3.279,1.342-8.793,0.745-12.371-0.298c-11.924,1.49-21.76,0.298-33.385,0.894
			c-0.894-0.149-2.234,0.596-1.639-0.447c0-0.149,0.149-0.745,0.149-0.894c0.298-0.298,0.446-0.746,0.745-1.342
			c-0.149-1.042-0.299,0.448,0.446,0.448c1.341-1.64,1.937-4.621,4.173-4.621c1.193-1.64,2.385-2.535,3.727-2.981
			c2.683-2.534,4.174-4.77,7.75-4.77c6.109-4.918,13.861-4.322,20.865-4.322c7.006,2.385,12.817,6.111,18.779,13.86
			c2.533-2.832,2.385-6.706,4.023-7.451c1.044-2.534,2.981-4.621,5.365-7.154c4.771-3.278,8.944-3.875,14.011-5.812
			c5.812-4.024,12.07,1.938,17.883-0.298C1167.977,340.771,1170.658,343.9,1174.086,344.943z M1086.154,352.396
			c-3.28,4.322-6.261,1.937-8.942,7.899c-0.447,0.298-0.895,0.596-1.641,0.149c-5.663,2.534,0.447,2.832,2.832,2.981
			c4.919-1.64,7.305,0.299,12.223,0.149c5.066-1.64,10.879,0.596,16.244-0.895c1.639-0.447,2.832-0.149,4.322-0.149
			c3.279-0.745,5.515,0.745,12.072,0c-4.619-3.875-5.664-4.918-8.048-6.558c-3.428-1.49-6.559-3.875-9.688-5.663
			C1098.822,348.818,1091.817,350.011,1086.154,352.396z M1134.89,348.073c-4.023,3.875-5.514,6.558-9.389,14.606
			c4.173,0,6.259-1.341,8.047-0.745c7.452-3.13,14.31,1.341,22.058-0.596c4.918-1.789,10.135,0,15.203-1.789
			c1.787,0.894,7.152,0.894,8.494,0.298c0.148-0.298-1.342-1.789-0.895-3.726c-2.086-2.981-4.023-6.26-5.662-9.837
			c-3.279-0.298-5.217-0.894-7.453-2.236c-4.77-0.894-9.984-3.577-15.199-1.788C1144.877,344.049,1139.809,345.54,1134.89,348.073z"
			/>
		<path style="fill:#17192D;" d="M1180.197,321.693c0.447,0.149,0.746,0.298,1.043,0.597c-1.342,3.428-5.365,1.491-8.494,2.384
			c-2.684,0.447-5.217,0-7.9,0.149c-7.303,0.149-14.605-0.149-21.609,0c-3.725,0-8.645,0.298-12.52-0.149
			c-2.534-0.298-5.663,0-8.198,0.149c-6.109,0.596-11.922,0-18.332,0.448c-0.297-0.299-0.596-0.299-0.893-0.299
			c-2.684,1.342-5.664,0.149-8.197,0.596c-6.111,0.299-11.924,0.895-17.885,0.895c-4.174-1.789-8.496,0.894-12.817-0.149
			c-0.597-0.149,0.894-1.788,1.341-1.788c6.559-4.472,14.158,1.788,21.462-0.299c8.645-2.385,18.332-1.49,26.827-1.937
			c8.494-0.448,16.543,0.297,25.188,0c2.385-0.298,4.77-0.298,7.303-0.298c0.596,0,1.342,0.149,1.938,0.149
			c6.557-0.149,13.113-0.149,18.928-1.044C1171.852,322.29,1175.576,321.545,1180.197,321.693z"/>
		<path style="fill:#17192D;" d="M1191.674,292.782c0.148,0.149,0.148,0.596,0.297,1.042c-0.447,1.938,1.641,2.683,0.15,4.77
			c0,2.086,0.447,5.217-1.193,6.707c-1.043,0.149-1.639,1.192-2.682,1.491c-2.832,0.149-6.855,0.446-9.688,0.894
			c-1.641-0.597-4.77,0.596-6.408,0.149c-7.9,0.745-18.035,1.192-26.977,1.043c-1.639,1.043-4.619,0.299-6.408,0.299
			c-8.347-0.299-15.948-2.385-23.251-1.342c-5.217,0-11.178,1.938-16.692,0c-3.876,0.597-9.538-0.149-12.668,0.149
			c-0.149,0-0.298,0.298-0.596,0.448c-7.751-0.746-16.396,0.894-23.847,0.297c-0.746-0.297-1.491-1.491-0.299-1.64
			c15.352-1.937,32.789-1.192,49.035-1.937c3.576-0.149,9.09,0.149,12.965-0.596c0.15,0.149,0.299,0.298,0.448,0.447
			c5.812,0,11.028,0.745,16.543,1.193c0.596-0.298,1.193-0.298,1.789,0c8.941,0.298,21.609-1.342,30.105-1.043
			c4.918-2.385,10.135,1.043,14.457-1.64c0.744-1.043,2.83,0,3.428-2.832c-1.641-1.49-0.895-3.427-1.193-4.471
			c-0.596-2.385-0.744-6.11-0.895-8.048c0.299,0-0.596-2.534,0.746-2.385C1190.928,287.416,1190.332,290.993,1191.674,292.782z"/>
		<path style="fill:#17192D;" d="M1131.164,250.901c5.814,0.448,11.775,1.789,18.035,2.534c7.598,0.895,15.498,1.788,22.652,5.366
			c3.725,3.725,8.346,5.663,11.326,10.581c0.447,2.683,2.385,2.235,1.49,5.515c0.148,0.447-0.299,0-0.299-0.597
			c-3.426,0.149-1.787-0.745-4.32-4.173c-3.875,1.192-6.707-0.596-9.539,0.596c-11.924-0.746-22.205,0-33.831,1.193
			c-2.832,1.341-6.408,1.341-9.688,0.894c-2.087-0.745-4.323,0.745-6.855,0.298c-7.751-0.447-16.396-0.447-23.996,0.596
			c-5.663-0.298-11.178,0-16.991,0.596c-2.234-0.447-4.769-1.192-7.899-0.297c-0.895,2.086-1.937,1.639-1.191,3.428
			c-0.299,0.298-0.596,0.745-1.044,1.043c-0.446-0.149-0.894,0-1.341-0.448c0.596-4.322,3.428-6.707,6.111-9.985
			c5.216-4.77,11.924-7.006,17.586-11.625c3.727-2.385,7.601-2.683,11.625-4.322c5.067-0.745,10.73-0.448,15.65-1.491
			C1122.817,251.646,1126.842,251.349,1131.164,250.901z M1107.616,254.627c-5.812-0.298-9.838,2.385-15.352,4.024
			c-0.298,0.298-1.639,1.639-2.385,2.086c-4.172,2.981-9.091,4.322-13.562,10.284c5.365-0.448,8.048,1.49,10.582,0.447
			c3.727,0.448,7.004-1.491,10.73-1.64c5.365,1.64,11.178,0.298,16.693,1.043c5.066,0.596,10.581-0.596,15.797-0.895
			c9.241-3.576,19.974-1.042,29.509-2.086c4.621,0,9.986-0.746,17.289,0.149c-2.832-5.962-7.898-7.006-11.326-8.943
			c-8.795-2.385-17.586-3.875-26.678-4.769c-1.789-0.298-4.024,0.447-5.663-0.597
			C1125.054,254.181,1115.217,251.349,1107.616,254.627z"/>
		<path style="fill:#17192D;" d="M1155.309,178.32c-0.299-0.149,1.34-0.447,1.938-0.298c0.445,0,1.043,0,1.191,0
			c0.895,0.298,2.086,0.745,2.98,0.596c2.086,0.895,4.174,0.447,5.963,1.341c3.576,1.64,8.346,3.13,12.221,6.408
			c2.385,2.534,5.514,3.577,7.898,5.812c0.447,1.341,1.043,1.938,0.746,3.13c-2.385,0.149-3.578-3.279-5.812-4.173
			c-1.641-1.49-4.025-1.938-5.365-3.875c-0.299-0.149-0.895-0.745-1.193-0.895s-0.447-0.447-0.447-0.447
			c-0.148,0-0.746-0.298-0.746-0.447c-1.34-1.341-1.787-1.491-1.787-0.894c-1.043-0.299-1.789-1.044-2.832-0.895
			c-0.447-0.149-0.895-0.447-1.191-0.894c-1.789,0.298-2.236-0.596-3.131-0.746c-1.639-0.894-4.174,0-5.961-0.596
			c-0.895,0.149-1.641-0.745-2.684-0.596c-3.576-1.044-5.066-0.149-8.941,0.148c-4.918,1.789-5.066,1.342-8.195,2.534
			c-2.385,0.895-3.728,1.192-5.963,2.236c-2.236,1.043-3.13,2.235-5.366,3.279c-2.086,0.894-3.428,0.596-5.365,1.341
			c-2.236,0.894-3.577,1.938-5.664,2.832c-2.086,1.043-3.725,1.491-6.11,2.534c-2.235,1.342-3.428,2.683-6.11,3.428
			c-0.744,0-1.789,0.149-2.533,0.149c-0.746-0.149-1.64,0.148-2.086,0.148c-0.447,0.149-1.192-0.148-1.641-0.297
			c-2.683,0.894-4.174-0.895-7.004-0.596c-2.684-0.746-5.366-1.044-8.496-2.087c-2.98-1.639-6.855-2.384-10.135-4.62
			c-3.428-1.789-6.855-4.471-9.39-7.75c-0.298-0.447-1.489-1.64-0.446-1.491c2.682,1.193,5.066,3.875,7.898,4.919
			c7.601,4.769,15.501,7.6,23.398,8.345c0.896,0.448,1.938,0,2.982,0.448c1.49,0,3.576,0.447,5.216,0.148
			c5.364,0.597,4.173-1.788,6.409-2.682c2.385-0.895,3.875-0.746,5.961-1.789c1.49-0.894,2.235-1.937,4.023-2.683
			c1.49-0.895,2.534-1.639,4.472-1.937c4.472-0.448,4.62-1.342,6.856-3.279c1.043-0.596,1.639-1.341,2.831-1.788
			c1.044-0.895,1.938-0.448,3.281-0.895c1.787-0.447,2.682-1.043,4.471-1.64c1.639-0.596,3.428-1.341,4.32-1.341
			c3.131-1.342,4.918-0.447,7.898-0.746C1154.562,177.724,1155.457,178.32,1155.309,178.32z"/>
		<path style="fill:#17192D;" d="M1180.197,159.093c0.447,0.149,0.746,0.299,1.043,0.597c-1.342,3.428-5.365,1.491-8.494,2.384
			c-2.684,0.448-5.217,0-7.9,0.149c-7.303,0.149-14.605-0.149-21.609,0c-3.725,0-8.645,0.299-12.52-0.149
			c-2.534-0.297-5.663,0-8.198,0.149c-6.109,0.596-11.922,0-18.332,0.448c-0.297-0.298-0.596-0.298-0.893-0.298
			c-2.684,1.341-5.664,0.149-8.197,0.596c-6.111,0.298-11.924,0.894-17.885,0.894c-4.174-1.789-8.496,0.895-12.817-0.149
			c-0.597-0.149,0.894-1.788,1.341-1.788c6.559-4.471,14.158,1.788,21.462-0.298c8.645-2.385,18.332-1.491,26.827-1.938
			c8.494-0.447,16.543,0.298,25.188,0c2.385-0.298,4.77-0.298,7.303-0.298c0.596,0,1.342,0.149,1.938,0.149
			c6.557-0.149,13.113-0.149,18.928-1.043C1171.852,159.69,1175.576,158.945,1180.197,159.093z"/>
		<path style="fill:#17192D;" d="M1082.874,116.768c1.641,0,4.025-0.149,5.813-0.297c4.322-2.683,11.028,0,16.097,0.596
			c3.129-1.788,8.346-0.745,11.625-1.043c4.769-1.192,11.029,0.298,16.543,0.298c9.688,0,20.866-0.298,30.552-0.745
			c1.49-0.149,2.98-1.044,4.324-0.448c0.148,0.15,0.297-0.148,0.445-0.148c-3.428,2.235-7.602,2.384-11.027,3.874
			c-4.918,4.322-10.582,6.558-15.797,9.837c-6.261,2.832-12.67,4.918-18.333,9.24c-1.789,0.895-3.429,1.938-5.217,2.832
			l-4.322,2.087l4.918,0.298c11.625,0.745,22.505-2.086,34.429-0.447c4.768,0,9.24-1.938,13.859-1.043c1.193-0.149,2.684,0,3.727,0
			c-0.15,0.298,0,0.894-0.15,1.043c-1.191,0-2.234,0.298-3.277,1.043c-1.193,0.597-2.684,0.597-4.023,0.895
			c-4.025,0.447-8.049-0.149-12.072,0.745c-10.879,0.298-21.462-1.043-32.044,0.149c-4.918-0.895-9.836,1.64-14.605,0.298
			c-3.13,0.745-7.154-0.895-9.539,0.894c-7.153-0.745-14.158-1.937-21.609-1.937c-1.641-0.596-4.175,0-4.92-1.789
			c-0.148-0.148,0.895-1.639,0.895-0.894c8.049-2.087,14.904,2.683,24.145,1.639c4.77-0.596,9.688,0,14.755-1.49
			c1.491-2.086,3.727-1.938,5.366-3.278c2.98-0.448,5.961-1.192,7.898-3.279c7.602-3.726,15.352-5.067,21.464-10.582
			c1.787-0.745,3.576-1.64,5.514-3.279c0-0.447,4.32-2.385,4.32-2.832c-0.148-0.298-4.619,0.745-4.619,0.149
			c-5.812,0-11.179-1.043-15.8,0.596c-8.345-2.086-16.989-2.236-25.932-0.298c-6.408-0.745-12.967-1.639-19.226-0.447
			c-5.217-2.236-11.03,2.385-15.8-1.788c-0.445-1.342-2.831-0.895-2.682-2.534C1073.635,113.787,1077.956,116.619,1082.874,116.768z
			"/>
		<path style="fill:#17192D;" d="M1131.164,76.229c5.814,0.447,11.775,1.789,18.035,2.534c7.598,0.895,15.498,1.788,22.652,5.366
			c3.725,3.725,8.346,5.663,11.326,10.581c0.447,2.683,2.385,2.236,1.49,5.515c0.148,0.447-0.299,0-0.299-0.597
			c-3.426,0.149-1.787-0.745-4.32-4.173c-3.875,1.192-6.707-0.596-9.539,0.596c-11.924-0.745-22.205,0-33.831,1.193
			c-2.832,1.341-6.408,1.341-9.688,0.894c-2.087-0.746-4.323,0.745-6.855,0.298c-7.751-0.447-16.396-0.447-23.996,0.596
			c-5.663-0.298-11.178,0-16.991,0.596c-2.234-0.447-4.769-1.191-7.899-0.297c-0.895,2.086-1.937,1.64-1.191,3.427
			c-0.299,0.299-0.596,0.746-1.044,1.044c-0.446-0.149-0.894,0-1.341-0.447c0.596-4.322,3.428-6.707,6.111-9.986
			c5.216-4.77,11.924-7.005,17.586-11.625c3.727-2.385,7.601-2.684,11.625-4.322c5.067-0.746,10.73-0.448,15.65-1.491
			C1122.817,76.975,1126.842,76.677,1131.164,76.229z M1107.616,79.956c-5.812-0.298-9.838,2.385-15.352,4.024
			c-0.298,0.298-1.639,1.639-2.385,2.086c-4.172,2.981-9.091,4.322-13.562,10.284c5.365-0.447,8.048,1.49,10.582,0.447
			c3.727,0.447,7.004-1.491,10.73-1.64c5.365,1.64,11.178,0.298,16.693,1.043c5.066,0.596,10.581-0.596,15.797-0.895
			c9.241-3.577,19.974-1.043,29.509-2.086c4.621,0,9.986-0.745,17.289,0.149c-2.832-5.961-7.898-7.005-11.326-8.942
			c-8.795-2.385-17.586-3.876-26.678-4.77c-1.789-0.298-4.024,0.447-5.663-0.597C1125.054,79.509,1115.217,76.677,1107.616,79.956z"
			/>
		<path style="fill:#17192D;" d="M1169.615,63.115c0,0.745-1.043,1.193-1.639,1.341c-2.236,1.49-5.365,0.149-7.75,1.341
			c-0.746,0-1.342-0.298-1.789-0.745c0-0.745,0.299-1.043,0.596-1.342c2.088-0.596,4.174-4.023,6.707-1.49
			C1167.678,62.072,1168.572,62.519,1169.615,63.115z"/>
	</g>
	<path style="fill:none;stroke:#17192D;stroke-width:3;" d="M2048,0"/>
	<path style="fill:none;stroke:#17192D;stroke-width:3;" d="M2048,1536"/>
	<path style="fill:none;stroke:#17192D;stroke-width:3;" d="M0,1536"/>
	<path style="fill:none;stroke:#17192D;stroke-width:3;" d="M0,0"/>
</g>
<g id="Layer_1">
</g>
</svg>
