<?xml version="1.0" encoding="iso-8859-1"?>
<!-- Generator: Adobe Illustrator 15.1.0, SVG Export Plug-In . SVG Version: 6.00 Build 0)  -->
<!DOCTYPE svg PUBLIC "-//W3C//DTD SVG 1.1//EN" "http://www.w3.org/Graphics/SVG/1.1/DTD/svg11.dtd">
<svg version="1.1" xmlns="http://www.w3.org/2000/svg" xmlns:xlink="http://www.w3.org/1999/xlink" x="0px" y="0px" width="2048px"
	 height="1536px" viewBox="0 0 2048 1536" style="enable-background:new 0 0 2048 1536;" xml:space="preserve">
<g id="bheadb_x5F_1">
	<g>
		<path style="fill:#FF0050;" d="M929.563,1441.117c5.515-0.447,9.688,1.789,14.755,2.98c1.043,0.895,2.086,0.895,2.086,0.744
			c0.299,0.15,2.236,0.598,3.875,1.492l0.447,0.148c2.236,1.193,2.385,1.043,4.023,1.193c2.685,1.787,6.111,2.086,8.348,3.725
			c4.471,3.279,11.029,6.41,15.053,11.178c2.832,3.578,5.664,5.516,8.197,9.092c0.148,0.895,0.744,1.789,0.148,2.832
			c-1.191,0-0.446,1.043-2.236-1.641l-0.297-0.596c-1.639,0.447-2.98,1.193-4.023,1.49c-2.535,0-6.408,0-9.092,0.299
			c-1.639-0.447-4.322,0.596-5.812,0c-7.452,0.447-17.14,0.746-25.337,0.148c-1.937,0.895-4.62,0.299-6.409,0.148
			c-7.75-0.445-14.754-2.83-21.76-2.086c-4.769-0.148-10.433,1.342-15.5-0.596c-3.577,0.447-9.239-0.447-12.072-0.299
			c-0.149,0-0.298,0.299-0.447,0.447c-7.303-0.893-16.692,0.299-23.697-0.447c-0.746-0.297-1.341-1.34-0.298-1.49
			c14.308-1.191,32.342-1.34,47.395-0.148c3.428-0.299,8.645,0.447,12.222-0.148c0.149,0.148,0.298,0.297,0.447,0.447
			c5.514,0,9.985,1.043,15.648,1.639c0.596-0.447,1.193-0.148,1.641,0.148c8.346,0.447,20.119-0.744,28.168-0.148
			c4.471-2.086,9.24,1.191,13.562-1.043c0.447-0.746,0.447,1.49,3.428-0.596c-0.895-0.299-1.788-1.789-1.342-1.789
			c-1.191-2.385-4.62-2.086-6.26-6.855c-0.893,0.895-0.596-0.447-1.342-0.447c0,0-0.744-0.447-1.042-0.598
			c-0.149-0.148-0.745-0.297-0.745-1.49c-1.49,0-1.789-0.445-2.236-0.148c-1.49-0.596-1.49-2.682-3.278-2.682
			c-0.745-0.299-1.788-0.598-2.236-1.193c-1.788-0.447-2.532-2.234-4.173-2.533c-2.385-1.641-5.962-1.342-7.898-2.684
			c-1.641,0-1.789-1.34-3.727-1.49c-5.216-2.832-12.072-2.832-17.586-4.023c-8.049,0-15.352-1.639-23.549,0
			c-2.682,0-5.067,1.043-7.452,1.49c-1.341,0.895-2.981,0.598-4.323,1.342c-11.029,3.428-22.207,7.898-31.746,15.5
			c-3.874,1.938-5.812,5.961-9.836,7.898c-0.895,0.598-0.299-0.744,0-1.191c2.981-4.023,7.004-8.346,11.177-11.477
			c4.025-2.98,9.39-5.217,13.861-7.898c4.023-1.789,8.346-2.98,11.774-4.473c4.322-0.297,5.216-2.98,9.688-2.533
			c0.895-0.148,1.64-0.744,3.279-0.596c0.745-0.596,1.341-0.299,2.385-0.744c1.341,0,2.831,0,4.471-0.447
			C915.852,1440.67,923.304,1439.775,929.563,1441.117z"/>
		<path style="fill:#FF0050;" d="M975.021,1422.338c0.446,0.148,0.744,0.299,1.042,0.598c-1.341,3.426-5.364,1.49-8.495,2.383
			c-2.682,0.447-5.216,0-7.898,0.148c-7.303,0.15-14.606-0.148-21.611,0c-3.727,0-8.645,0.299-12.52-0.148
			c-2.533-0.297-5.663,0-8.197,0.148c-6.11,0.598-11.922,0-18.332,0.449c-0.297-0.299-0.596-0.299-0.893-0.299
			c-2.684,1.342-5.665,0.148-8.198,0.596c-6.111,0.299-11.923,0.895-17.885,0.895c-4.173-1.789-8.496,0.895-12.817-0.148
			c-0.597-0.15,0.893-1.789,1.341-1.789c6.558-4.471,14.159,1.789,21.462-0.299c8.645-2.385,18.332-1.49,26.827-1.936
			c8.495-0.449,16.543,0.297,25.188,0c2.385-0.299,4.769-0.299,7.303-0.299c0.596,0,1.342,0.148,1.938,0.148
			c6.557-0.148,13.115-0.148,18.928-1.043C966.674,1422.936,970.4,1422.189,975.021,1422.338z"/>
		<path style="fill:#FF0050;" d="M975.766,1392.979c-1.49,3.279-5.066,3.576-7.602,5.365c-3.428,1.789-7.152,3.576-11.028,4.023
			c-1.042,0.598-2.534,0.746-3.727,0.895c-9.985,1.789-19.673,5.812-30.105,6.111c-7.154,1.49-15.053,0.746-22.803,0.596
			c-6.409,0-14.606-1.789-21.014-4.619c-3.13-0.746-6.558-1.938-8.793-3.875c-3.279-0.895-5.812-3.279-8.644-5.068
			c-0.597-1.043-1.342-2.086-1.342-3.129c0-0.15-0.149-0.299-0.149-0.299c2.98,0.746,5.812,2.98,8.793,4.77
			c2.385,1.342,3.727,3.129,6.259,3.727c4.322,0.893,7.75,3.875,12.222,3.576c8.196,2.086,17.139,1.938,26.976,1.342
			c-1.49-3.428,1.043-4.77-0.148-6.855c0.148-0.895,0.298-1.492,0.596-2.088c0.447-0.447,0.744-0.895,1.341-0.447
			c0.298,0.299,0.448,0.447,0.745,0.746c-0.297,0.895,0.299,1.49,0.746,1.938c-0.447,1.938,0,3.875-0.299,6.26
			c7.303,0.746,12.221-1.342,18.184-1.639c2.533-1.193,6.408-1.49,9.537-2.387c2.832-0.893,6.261-0.893,8.943-2.533
			c2.236,0.299,4.769-0.447,6.559-2.682c3.875,0.148,6.855-2.684,11.326-3.578c0-1.191,0-0.744,0-0.744
			c0.744-0.299,2.234-1.938,4.024-1.342C976.213,1391.787,976.063,1392.383,975.766,1392.979z"/>
		<path style="fill:#FF0050;" d="M873.524,1326.359c2.236,0.297,3.726,2.533,6.26,2.533c4.769,2.385,9.24,3.576,15.052,3.875
			c0.895,0.447,2.385,0.596,3.428,0.895c3.279,0.297,6.26,1.787,9.39,1.787c1.937,0.598,4.62-0.445,6.409,1.939
			c2.385-0.596,4.173-1.193,5.663-1.939c0.596-1.191,2.236-2.682,2.086-4.32c1.045-1.641,0.15-2.982,0.895-5.068
			c0.895-2.832,0.895-4.471,2.385-7.451c0.746-0.596,1.492-1.193,2.386-1.043c0.596,1.49,0,3.277,0,5.066
			c-1.938,3.875-1.64,5.963-2.981,11.029c1.192,0.746,0.746,1.342,1.192,1.639c3.726,0.598,7.749,0.148,10.88-0.596
			c1.938,0.299,3.576-0.447,6.558-0.447c0.596-1.789,1.938-0.447,2.831-0.895c5.367-0.447,10.137-3.428,15.65-3.727
			c2.385-2.086,6.408-1.787,8.793-3.576c2.831,0.299,4.322-3.428,7.898-2.533c1.789-1.342,3.429-2.98,5.664-2.98
			c0.597,0.447,1.192,0.893,1.788,1.49c-0.298,2.236-2.831,2.385-4.471,3.576c-2.534,0.299-4.918,0.895-6.708,2.533
			c-3.277-0.148-5.215,2.684-8.345,2.535c-1.192,0.744-2.384,0.895-3.279,1.49c-1.192-0.148-2.235,0.297-3.13,0.744
			c-6.855,0-12.221,4.473-19.076,4.025c-0.895,0.596-2.534,0.596-3.429,0.744c-7.304,2.533-15.798,2.086-23.25,1.938
			c-3.428-0.895-7.602,0-10.583-1.49c-9.24-1.639-18.183-5.365-26.976-7.75c-4.173-1.639-8.048-4.172-11.923-6.26
			c-4.322-2.385-9.389-4.023-12.52-8.346c0-0.299,0-0.746,0.298-0.895C859.067,1319.205,866.072,1323.08,873.524,1326.359z"/>
		<path style="fill:#FF0050;" d="M960.713,1284.629c-5.365,3.875-12.222,3.279-17.14,7.453c-1.938,0.596-4.024,1.639-5.663,2.682
			c-4.621-0.148-9.391,2.832-15.65,5.664c4.024,1.639,7.006,1.193,9.092,0.596c8.793,0,16.544-1.49,25.784-0.148
			c2.534,0,5.663-0.746,7.899,0.297c4.322,0.15,9.389-1.043,13.115,1.045c0.148,0.148,0.148,0.148,0.299,0.297
			c-3.131,0.895-7.154,0.598-10.285,0.447c-2.682-0.744-5.514,0.299-8.494,0.299c-5.812,0.148-11.924-1.938-17.14,0.596
			c-4.769,0.596-9.241-1.639-13.86,0c-4.174,1.342-8.348-0.744-12.222,1.191c-7.154-1.191-16.395,0.15-24.145-1.191
			c-8.793,0-17.735,0.596-26.38-0.895c-4.769-0.148-6.706-1.043-11.177-1.938c-0.149,0,0.745-1.043,0.745-1.342
			c4.769-2.83,6.409-3.727,11.477-5.662c7.004-2.832,14.456-2.236,21.462-4.174c9.836,0.148,19.523,1.49,26.677,10.881
			c13.116-7.9,27.125-8.793,39.794-15.65c5.662-1.787,10.88-4.619,16.543-6.408c0.895,0,2.385-0.596,3.428-0.299
			C970.252,1281.053,965.482,1283.139,960.713,1284.629z M876.804,1294.465c-1.938,0.598-4.322-0.146-6.111,1.045
			c-2.384-0.299-4.621,1.043-6.558,1.789l-3.577,2.533c1.341,0.148,6.558,0.596,8.048,0.895c1.937,1.938,5.365,1.041,7.75,1.639
			c11.029-1.49,23.399,0.299,36.664-0.299c-1.938-2.385-3.875-2.98-4.918-4.023c-2.086-2.088-7.899-4.322-11.774-5.961
			C889.621,1292.975,882.466,1291.484,876.804,1294.465z"/>
		<path style="fill:#FF0050;" d="M906.611,1224.268c9.985,3.578,20.568,2.533,30.105,6.557c9.838,4.174,20.568,5.963,30.703,9.242
			c0.298,0.297,0.744,0.746,1.043,1.191c-3.279,1.342-7.602-1.342-11.477-0.895c-11.773-0.893-22.803,2.98-35.174,4.621
			l-0.596,2.684c13.414,2.682,24.74,8.346,37.111,10.73c0.447,0.297,1.191,0.445,1.639,0.744c2.684,0.15,5.963-1.639,7.9-0.148
			c-0.149,1.043-1.193,1.49-2.236,1.789c-2.385-0.299-4.173,1.342-6.409,1.938c-13.265-0.596-25.038,2.234-38.452,3.129
			c-16.543,1.193-32.937,2.385-48.586,2.236c-8.197,1.191-14.457,1.49-20.866,0.746c-0.596-0.299-1.788,0-2.384-0.15
			c0.447-0.299,0.894-0.746,1.342-1.193c4.918-1.041,9.24-1.041,14.456-1.488c22.654-1.789,47.544,0.148,70.794-3.727
			c4.173-0.746,8.346-0.447,12.816-0.895c2.982-1.043,1.641-4.023-0.596-3.428c-9.688-4.77-21.462-5.516-31.149-9.092
			c-1.788-0.596-4.62-0.148-5.365-1.938c0.298-0.596,0.894-0.895,1.491-1.191c10.135-3.279,21.164-4.473,36.366-8.348
			c-9.39-3.428-14.904-4.023-19.227-6.559c-10.88,0-18.332-4.469-29.211-4.469c-8.347-3.131-18.184-1.789-26.53-5.367
			c-6.855-0.148-12.519-1.639-20.567-2.98c-0.148,0-0.597,0-0.746-0.148c0.149-0.299,0.299-0.596,0.448-1.043
			c1.192,0,1.938-0.598,2.533-0.895C872.63,1217.264,889.621,1222.031,906.611,1224.268z"/>
		<path style="fill:#FF0050;" d="M969.506,1169.42c1.193,0.598,2.385,0,3.726,0.299c1.044,0,1.79,0.299,2.685,0.895
			c0.147,0.744-0.746,1.342-1.193,2.086c-1.043,1.342-2.236-0.744-2.533-0.744c-0.299-0.598-1.789,0.744-3.279-1.49
			c-2.98,0.893-5.664,0.893-7.75,0.297c-4.174,0.447-8.793-0.744-12.818,0.895c-1.639,0.148-2.533,2.086-3.278,2.98
			c-0.149,0-0.745,1.789-2.087,2.385c-1.938,1.789-4.769,4.621-5.663,5.365c-0.745,0.746,0-0.895-1.341,0.596
			c-0.746,0.598-0.447,0.896-1.491,2.535c-1.341,1.639-4.024,4.471-4.62,5.215c-0.894,1.789-1.788,3.877-2.832,6.262
			c3.131,2.086,6.26,1.49,8.347,2.83c2.683,0.15,5.962,0.746,8.794,1.49c1.639-1.34,2.831,0.299,4.023,0.299
			c1.639,0.895,4.174,0.746,6.11,1.639c3.726,0.598,7.005,2.832,11.179,2.088c1.49,0.297,3.279,0.893,4.77,1.342
			c-0.15,0.297-0.299,0.596-0.598,0.596c-2.532,0.447-4.768-0.895-7.004-0.746c-0.597-0.447-1.043-0.596-1.639-0.447
			c-1.193-0.148-2.386-0.447-3.429-0.447c-2.384-0.744-4.024,0.596-7.899-1.936c0,2.234,0.299,0.893,0.299,0.893
			c-2.236-0.596-5.366-1.49-8.348-1.342c-1.787-1.191-4.022-0.744-5.812-1.191c-4.172-0.447-7.004-2.086-11.028-1.789
			c0,0-0.149-0.148-0.298-0.148c-1.192-0.744-2.533-0.299-3.279-1.043c-9.091-2.535-18.332-5.068-27.423-7.602
			c-2.086-1.043-3.875-1.49-6.11-2.385c-2.981-1.043-5.813-2.832-8.943-4.023s-6.111-3.131-9.688-4.174
			c-0.895-0.447-2.385,0.299-2.385-1.191c0-0.447-0.446-1.492-0.148-1.641c1.043-1.639,4.024-1.639,5.515-2.385
			c3.577-0.297,8.645-1.043,12.966-1.938c1.64-1.938,4.174-0.447,6.111-1.191c7.303,0.299,14.904-3.428,23.25-2.385
			c10.582-1.639,22.355-2.533,32.342-1.639C954.304,1169.123,961.905,1168.377,969.506,1169.42z M924.348,1171.955
			c-1.939-0.746-4.919,1.043-7.899,0.445c-3.578-0.596-7.452,0.598-11.029,1.193c-3.428-0.596-6.111,1.49-9.539,1.193
			c-2.235,0.297-5.961,0.297-8.942,0.893c-4.918,0.895-9.39,2.236-15.053,2.684c2.235,2.533,6.26,4.322,6.855,4.471
			c3.13,1.045,5.664,2.832,8.495,3.727c4.323,1.49,8.048,2.98,12.073,4.172c2.832,0.746,6.558,1.641,9.091,2.088
			c2.832-0.15,6.856,2.385,10.731,2.98c2.235,0.299,1.191,1.342,4.322,0.447c1.191-2.832,2.98-4.77,4.024-7.303
			c1.341-1.789,2.086-1.938,4.024-4.025c1.34-1.34,2.682-3.428,4.172-5.363c1.342-1.492,3.13-3.131,4.024-4.174
			c0-0.299,1.788-2.236,1.788-3.428c-2.086-0.447-4.471-0.447-5.812-0.598C931.65,1170.762,928.52,1171.357,924.348,1171.955z"/>
		<path style="fill:#FF0050;" d="M986.795,1134.545c1.938,1.639,0,1.49-0.299,2.088c-8.346,7.303-19.971,5.812-28.913,11.625
			c-6.409,2.385-13.265,3.277-19.524,4.768c-4.918,0.15-9.389,2.236-14.01,1.342c-1.49,1.193-3.727,0-5.365,0.596
			c-10.731,0-16.842-2.086-25.188-3.875c-2.832,0.299-5.812-0.596-8.048-2.533c-3.875,0.447-7.006-0.746-9.837-2.236
			c-6.855-2.533-13.711-5.215-18.629-9.984c0,0.148-0.895-0.299-0.448-0.598c1.192-0.744,2.534,0.598,3.726,1.193
			c7.005,0.596,11.477,5.664,17.736,7.154c2.832,1.49,5.961,1.49,8.644,2.533c11.477,2.98,19.078,5.516,31.149,5.664
			c0.15,0,0.447-1.043,0.447,0.148c10.283-0.596,19.077-2.98,28.467-4.023c9.539-2.98,19.077-6.41,28.615-9.391
			c2.534-1.639,5.515-2.98,8.793-4.172c0.895,0,2.534-1.641,2.98-1.043C987.242,1133.801,988.285,1133.801,986.795,1134.545z"/>
		<path style="fill:#FF0050;" d="M968.164,1087.598c-1.787,1.342-4.172,2.236-5.961,3.727c-7.303,2.086-15.202,4.023-23.101,4.023
			c-5.665,0.895-11.478,2.086-16.991,3.428c-2.98-0.297-6.408-0.895-9.836-0.148c-0.447,1.191-0.447,1.639-2.236,2.086
			c1.64,4.322,5.068,7.303,6.708,10.434c0.895,0.447,1.789,1.639,1.49,2.682c-0.596,1.789,0.299,1.789,1.342,2.832
			c1.34,0,2.533,0.148,3.726,0.746c3.13-1.043,5.515-1.043,8.048-0.15c2.832,1.641,5.217,0.449,8.347,0
			c5.962-0.893,11.626-2.234,17.736-2.533c4.769-0.148,9.538-0.148,14.605-0.148c0.446,0.148,0.894,0.299,0.745,0.744
			c0,0.447-0.596,0.895-1.044,1.045c-7.452,0.445-14.605,0.744-21.163,2.83c-4.918-0.148-8.943,1.342-13.562,0.896
			c-11.029-1.045-22.654,0-33.086,1.34c-4.621-1.043-8.198,0.895-12.669,0.598c-11.625-0.896-23.697-0.896-33.981-4.322
			c-1.49-0.449-0.745-1.641-1.49-2.684c0.149-0.447,0.895,0,1.193-0.148c3.577,0.744,6.706,2.383,10.284,2.234
			c0.148,0.148,0.148,0.148,0.298,0.299c6.111-0.299,11.774,1.639,17.14,1.34c4.024,2.236,8.495-0.596,12.817,0.15
			c5.515,0.895,10.135-1.043,15.5-1.789c0.745-0.596,1.789-1.191,2.832-2.385c-1.788-4.77-7.303-7.75-7.899-11.625
			c0.745,0-1.043-1.191-0.298-3.576c-4.62-1.342-8.346,0.447-11.774-1.193c-2.832-0.744-5.664,0.746-8.645-0.895
			c-4.024,1.939-7.601,0.15-11.475,0.447c-2.236-1.938-3.131,1.938-5.813,0.15c-2.534,0.744-5.961,1.191-8.048,0
			c0.15-0.598,0.15-1.043,0-1.641c2.236-1.34,5.366,0.447,7.601-1.34c3.278-0.299,5.664,1.49,8.942,0.893
			c9.539-1.787,20.121,0.299,29.808-0.297c6.708-0.299,14.009,0.744,20.419-1.49c10.134-1.641,20.716-2.982,30.254-4.918
			c2.385-1.492,5.217-3.131,8.198-2.982C967.568,1086.703,968.016,1087.002,968.164,1087.598z"/>
		<path style="fill:#FF0050;" d="M956.689,1059.875c5.812,1.492,9.984,6.41,15.797,8.199c0.895,1.639,2.832,2.533,3.727,4.172
			c-1.342,0.447-2.832-0.893-4.023-1.49c-1.044-1.043-2.088-1.639-3.578-1.789c-3.277-2.385-7.75-3.426-11.177-6.109
			c-2.534-0.895-6.261-1.193-9.093-2.533c-5.066-0.299-10.134-0.299-15.053,0.596c-4.77,0.895-9.39,2.832-13.115,6.111
			c-4.918,2.383-10.582,4.172-15.947,5.363c-8.346,4.174-18.928,3.727-27.572,0.299c-5.068,0-7.899-4.322-12.52-4.918
			c-1.341-1.043-2.534-2.086-4.173-2.684c-0.895-0.744-0.448-1.938-1.193-2.98c0-0.297-0.596,0.15-0.297,0.299
			c2.086,0.148,4.322,1.043,6.11,1.938c7.899,6.111,18.481,6.408,28.02,8.496c6.707-0.299,12.221-3.43,18.63-4.92
			c4.024-2.533,9.091-3.428,13.116-5.961c2.98-0.299,5.365-3.727,8.494-2.98c6.707-2.385,14.606-2.385,21.016,0
			C954.75,1059.43,955.645,1059.727,956.689,1059.875z"/>
		<path style="fill:#FF0050;" d="M873.524,1032.453c2.236,0.299,3.726,2.535,6.26,2.535c4.769,2.385,9.24,3.576,15.052,3.873
			c0.895,0.449,2.385,0.598,3.428,0.895c3.279,0.299,6.26,1.789,9.39,1.789c1.937,0.596,4.62-0.447,6.409,1.938
			c2.385-0.596,4.173-1.191,5.663-1.938c0.596-1.191,2.236-2.684,2.086-4.322c1.045-1.639,0.15-2.98,0.895-5.066
			c0.895-2.832,0.895-4.473,2.385-7.451c0.746-0.598,1.492-1.193,2.386-1.045c0.596,1.49,0,3.279,0,5.068
			c-1.938,3.875-1.64,5.961-2.981,11.027c1.192,0.746,0.746,1.342,1.192,1.641c3.726,0.596,7.749,0.148,10.88-0.596
			c1.938,0.297,3.576-0.447,6.558-0.447c0.596-1.789,1.938-0.447,2.831-0.895c5.367-0.447,10.137-3.428,15.65-3.727
			c2.385-2.086,6.408-1.789,8.793-3.576c2.831,0.297,4.322-3.428,7.898-2.533c1.789-1.342,3.429-2.982,5.664-2.982
			c0.597,0.447,1.192,0.895,1.788,1.492c-0.298,2.234-2.831,2.383-4.471,3.576c-2.534,0.299-4.918,0.895-6.708,2.533
			c-3.277-0.148-5.215,2.684-8.345,2.533c-1.192,0.746-2.384,0.895-3.279,1.49c-1.192-0.148-2.235,0.299-3.13,0.746
			c-6.855,0-12.221,4.471-19.076,4.023c-0.895,0.598-2.534,0.598-3.429,0.746c-7.304,2.533-15.798,2.086-23.25,1.938
			c-3.428-0.895-7.602,0-10.583-1.49c-9.24-1.641-18.183-5.367-26.976-7.75c-4.173-1.641-8.048-4.174-11.923-6.26
			c-4.322-2.385-9.389-4.023-12.52-8.348c0-0.297,0-0.744,0.298-0.893C859.067,1025.301,866.072,1029.174,873.524,1032.453z"/>
		<path style="fill:#FF0050;" d="M877.697,980.738c1.641,0,4.025-0.148,5.813-0.297c4.323-2.684,11.029,0,16.097,0.596
			c3.129-1.789,8.346-0.746,11.625-1.045c4.769-1.191,11.028,0.299,16.544,0.299c9.688,0,20.865-0.299,30.553-0.744
			c1.49-0.15,2.98-1.045,4.322-0.447c0.148,0.148,0.298-0.148,0.447-0.148c-3.428,2.234-7.602,2.383-11.029,3.873
			c-4.918,4.322-10.582,6.559-15.797,9.838c-6.262,2.83-12.67,4.918-18.332,9.24c-1.79,0.895-3.429,1.938-5.217,2.83l-4.322,2.088
			l4.918,0.297c11.625,0.746,22.504-2.086,34.428-0.445c4.77,0,9.24-1.939,13.861-1.045c1.191-0.148,2.682,0,3.727,0
			c-0.15,0.299,0,0.895-0.15,1.045c-1.191,0-2.235,0.297-3.278,1.043c-1.192,0.596-2.684,0.596-4.024,0.895
			c-4.023,0.447-8.049-0.15-12.072,0.744c-10.881,0.299-21.461-1.043-32.043,0.148c-4.918-0.893-9.836,1.641-14.605,0.299
			c-3.131,0.746-7.154-0.895-9.539,0.895c-7.155-0.746-14.16-1.938-21.611-1.938c-1.64-0.596-4.173,0-4.919-1.789
			c-0.149-0.148,0.895-1.639,0.895-0.893c8.048-2.088,14.903,2.682,24.144,1.639c4.771-0.598,9.688,0,14.755-1.49
			c1.491-2.088,3.726-1.938,5.365-3.279c2.981-0.447,5.962-1.191,7.899-3.279c7.602-3.727,15.353-5.066,21.463-10.582
			c1.788-0.744,3.577-1.639,5.514-3.279c0-0.445,4.322-2.385,4.322-2.832c-0.148-0.297-4.62,0.746-4.62,0.15
			c-5.812,0-11.178-1.043-15.799,0.596c-8.346-2.086-16.991-2.234-25.933-0.299c-6.409-0.744-12.967-1.639-19.226-0.447
			c-5.216-2.234-11.029,2.387-15.798-1.787c-0.447-1.342-2.832-0.895-2.683-2.533C868.458,977.758,872.779,980.59,877.697,980.738z"
			/>
		<path style="fill:#FF0050;" d="M975.766,949.59c-1.49,3.279-5.066,3.576-7.602,5.365c-3.428,1.789-7.152,3.576-11.028,4.023
			c-1.042,0.596-2.534,0.746-3.727,0.895c-9.985,1.789-19.673,5.812-30.105,6.111c-7.154,1.49-15.053,0.744-22.803,0.596
			c-6.409,0-14.606-1.789-21.014-4.619c-3.13-0.746-6.558-1.939-8.793-3.875c-3.279-0.896-5.812-3.281-8.644-5.068
			c-0.597-1.043-1.342-2.086-1.342-3.131c0-0.148-0.149-0.297-0.149-0.297c2.98,0.744,5.812,2.98,8.793,4.77
			c2.385,1.34,3.727,3.129,6.259,3.727c4.322,0.893,7.75,3.875,12.222,3.576c8.196,2.086,17.139,1.938,26.976,1.342
			c-1.49-3.43,1.043-4.77-0.148-6.855c0.148-0.895,0.298-1.492,0.596-2.088c0.447-0.447,0.744-0.895,1.341-0.447
			c0.298,0.299,0.448,0.447,0.745,0.746c-0.297,0.895,0.299,1.49,0.746,1.938c-0.447,1.938,0,3.875-0.299,6.26
			c7.303,0.744,12.221-1.342,18.184-1.641c2.533-1.191,6.408-1.49,9.537-2.385c2.832-0.895,6.261-0.895,8.943-2.533
			c2.236,0.299,4.769-0.447,6.559-2.684c3.875,0.15,6.855-2.682,11.326-3.576c0-1.191,0-0.744,0-0.744
			c0.744-0.299,2.234-1.938,4.024-1.342C976.213,948.396,976.063,948.994,975.766,949.59z"/>
		<path style="fill:#FF0050;" d="M979.939,890.123c-11.775,5.217-21.91,12.074-32.193,18.928c-0.895,0.449-1.191,1.641-3.13,1.641
			c-4.769,4.77-10.73,5.217-15.053,9.539c-3.875,1.938-8.197,4.174-12.669,7.6c0.596,0.447,1.641,0.895,2.087,1.193
			c3.13,1.49,6.261,0.299,9.092,0.447c8.942,0.297,17.14-1.193,25.038-1.342c7.602,0,14.606-1.787,21.312-1.043
			c0.148,0.297,0.148,0.744,0.148,1.342c-0.445,3.428-4.32,1.043-5.961,1.639c-7.153,0.895-13.412,1.043-21.163,1.342
			c-9.538,0.596-18.929,0.148-28.467,1.191c-6.409,0.598-12.221,0-18.332,1.342c-10.135-1.191-20.419,4.023-30.554,1.938
			c-2.384,0-4.77,1.193-7.302,0.596c-1.044-0.744-5.812,0.15-3.429-2.086c7.751-1.191,15.799,0,23.698-1.043
			c11.923-0.447,24.592-1.193,33.385-8.793c1.491-0.447,2.683-1.492,3.726-2.236c3.726-2.236,7.75-3.875,10.881-7.154
			c3.129-1.043,5.961-2.832,8.494-4.619c4.472-4.471,10.434-6.111,15.352-9.539c0-0.596,0.447-0.447,0.744-0.596
			c1.342-0.596,2.385-1.789,4.025-2.98c0-0.598,4.322-1.492,4.174-1.938c-0.15-0.447-5.068-0.299-5.516-0.596
			c-6.855,1.488-15.352,2.086-23.25,2.83c-8.494,0.746-14.16,2.385-22.208,2.533c-2.832-0.596-6.855,2.236-9.687-0.148
			c-3.13,0-4.918-0.148-7.452,0.746c-2.235,0-4.471-0.299-7.153-0.299c-0.597-0.148-1.193,0.447-1.789,0.447
			c-2.534,1.639-3.875-2.234-5.813-0.447c-0.895,0.299-1.789,1.043-2.683-0.299c-4.77,1.342-8.496,0.598-12.519-1.639
			c-1.342,0.596-1.789-0.148-2.385-0.596c0-0.148,0-0.299,0-0.447c0.447-1.043,1.341,0.447,1.341,0.299c0,0,0.895,0.744,1.789-0.15
			c0.597-0.895,1.938,1.045,2.236,0.596c5.067,1.193,11.029,0.895,16.692,0.15c5.216,0.895,13.115-0.596,18.033,0.447
			c1.044-0.148,2.385-1.043,4.174-0.447c1.639-1.49,3.875-0.15,5.067-1.043c6.259-0.447,12.966-1.492,19.375-1.492
			c6.11-0.596,12.816-1.191,17.734-1.936c1.045,0.297,2.236-0.598,3.279,0.148c2.533-0.596,3.578-0.596,5.515-0.895
			c3.876-0.746,8.794-1.342,12.222-2.086c0.596,0,1.342-0.447,2.234-1.49c-0.744-1.342,0.895-0.746,1.045-0.746
			c1.341-0.596,3.576,0.596,5.812-0.148C979.939,889.229,980.088,889.678,979.939,890.123z"/>
		<path style="fill:#FF0050;" d="M906.611,793.102c9.985,3.576,20.568,2.533,30.105,6.557c9.838,4.174,20.568,5.963,30.703,9.24
			c0.298,0.299,0.744,0.746,1.043,1.193c-3.279,1.342-7.602-1.342-11.477-0.895c-11.773-0.895-22.803,2.98-35.174,4.619
			l-0.596,2.684c13.414,2.684,24.74,8.346,37.111,10.73c0.447,0.299,1.191,0.447,1.639,0.746c2.684,0.148,5.963-1.641,7.9-0.15
			c-0.149,1.045-1.193,1.49-2.236,1.789c-2.385-0.299-4.173,1.342-6.409,1.938c-13.265-0.596-25.038,2.236-38.452,3.131
			c-16.543,1.191-32.937,2.385-48.586,2.234c-8.197,1.193-14.457,1.49-20.866,0.746c-0.596-0.299-1.788,0-2.384-0.15
			c0.447-0.297,0.894-0.744,1.342-1.191c4.918-1.043,9.24-1.043,14.456-1.49c22.654-1.789,47.544,0.148,70.794-3.727
			c4.173-0.744,8.346-0.447,12.816-0.895c2.982-1.043,1.641-4.023-0.596-3.428c-9.688-4.77-21.462-5.514-31.149-9.092
			c-1.788-0.596-4.62-0.148-5.365-1.936c0.298-0.596,0.894-0.895,1.491-1.193c10.135-3.279,21.164-4.471,36.366-8.346
			c-9.39-3.428-14.904-4.025-19.227-6.559c-10.88,0-18.332-4.471-29.211-4.471c-8.347-3.131-18.184-1.789-26.53-5.365
			c-6.855-0.15-12.519-1.641-20.567-2.98c-0.148,0-0.597,0-0.746-0.15c0.149-0.297,0.299-0.596,0.448-1.043
			c1.192,0,1.938-0.596,2.533-0.895C872.63,786.096,889.621,790.865,906.611,793.102z"/>
		<path style="fill:#FF0050;" d="M975.021,767.614c0.446,0.149,0.744,0.299,1.042,0.597c-1.341,3.427-5.364,1.49-8.495,2.384
			c-2.682,0.447-5.216,0-7.898,0.149c-7.303,0.149-14.606-0.149-21.611,0c-3.727,0-8.645,0.298-12.52-0.149
			c-2.533-0.297-5.663,0-8.197,0.149c-6.11,0.597-11.922,0-18.332,0.447c-0.297-0.298-0.596-0.298-0.893-0.298
			c-2.684,1.341-5.665,0.148-8.198,0.596c-6.111,0.299-11.923,0.895-17.885,0.895c-4.173-1.789-8.496,0.895-12.817-0.149
			c-0.597-0.149,0.893-1.788,1.341-1.788c6.558-4.471,14.159,1.788,21.462-0.298c8.645-2.385,18.332-1.491,26.827-1.938
			c8.495-0.447,16.543,0.298,25.188,0c2.385-0.298,4.769-0.298,7.303-0.298c0.596,0,1.342,0.148,1.938,0.148
			c6.557-0.148,13.115-0.148,18.928-1.043C966.674,768.211,970.4,767.466,975.021,767.614z"/>
		<path style="fill:#FF0050;" d="M956.689,739.744c5.812,1.491,9.984,6.41,15.797,8.198c0.895,1.639,2.832,2.534,3.727,4.174
			c-1.342,0.446-2.832-0.895-4.023-1.491c-1.044-1.044-2.088-1.64-3.578-1.789c-3.277-2.385-7.75-3.428-11.177-6.111
			c-2.534-0.894-6.261-1.192-9.093-2.533c-5.066-0.298-10.134-0.298-15.053,0.596c-4.77,0.895-9.39,2.832-13.115,6.111
			c-4.918,2.384-10.582,4.173-15.947,5.365c-8.346,4.173-18.928,3.726-27.572,0.298c-5.068,0-7.899-4.322-12.52-4.918
			c-1.341-1.043-2.534-2.086-4.173-2.683c-0.895-0.745-0.448-1.937-1.193-2.981c0-0.297-0.596,0.149-0.297,0.298
			c2.086,0.149,4.322,1.044,6.11,1.938c7.899,6.111,18.481,6.409,28.02,8.496c6.707-0.298,12.221-3.428,18.63-4.919
			c4.024-2.533,9.091-3.427,13.116-5.961c2.98-0.298,5.365-3.726,8.494-2.981c6.707-2.385,14.606-2.385,21.016,0
			C954.75,739.297,955.645,739.596,956.689,739.744z"/>
		<path style="fill:#FF0050;" d="M950.131,704.125c-0.299-0.149,1.342-0.447,1.938-0.297c0.447,0,1.043,0,1.192,0
			c0.894,0.297,2.087,0.745,2.981,0.596c2.086,0.894,4.172,0.447,5.961,1.341c3.577,1.64,8.346,3.13,12.221,6.408
			c2.385,2.534,5.516,3.577,7.9,5.812c0.446,1.341,1.043,1.938,0.744,3.13c-2.385,0.149-3.576-3.279-5.812-4.173
			c-1.639-1.49-4.024-1.938-5.365-3.875c-0.299-0.149-0.895-0.745-1.191-0.894c-0.299-0.149-0.447-0.447-0.447-0.447
			c-0.15,0-0.746-0.298-0.746-0.448c-1.342-1.341-1.788-1.49-1.788-0.894c-1.044-0.298-1.788-1.043-2.831-0.895
			c-0.447-0.149-0.895-0.447-1.193-0.894c-1.788,0.298-2.235-0.596-3.131-0.746c-1.639-0.894-4.172,0-5.961-0.596
			c-0.894,0.149-1.639-0.746-2.682-0.596c-3.578-1.043-5.068-0.149-8.943,0.148c-4.918,1.789-5.066,1.342-8.197,2.534
			c-2.384,0.894-3.725,1.192-5.961,2.235c-2.234,1.043-3.13,2.236-5.365,3.279c-2.087,0.894-3.428,0.596-5.365,1.341
			c-2.236,0.894-3.577,1.938-5.664,2.832c-2.086,1.042-3.727,1.49-6.111,2.533c-2.235,1.342-3.428,2.683-6.11,3.428
			c-0.745,0-1.789,0.149-2.534,0.149c-0.745-0.149-1.64,0.149-2.086,0.149c-0.447,0.149-1.192-0.149-1.64-0.298
			c-2.683,0.894-4.173-0.894-7.004-0.596c-2.683-0.745-5.366-1.043-8.496-2.087c-2.981-1.639-6.855-2.384-10.134-4.62
			c-3.428-1.789-6.856-4.471-9.39-7.75c-0.298-0.447-1.491-1.64-0.447-1.491c2.683,1.193,5.067,3.875,7.899,4.919
			c7.601,4.769,15.5,7.601,23.399,8.346c0.895,0.447,1.938,0,2.981,0.447c1.49,0,3.577,0.447,5.217,0.149
			c5.365,0.597,4.173-1.789,6.409-2.683c2.384-0.895,3.875-0.745,5.961-1.789c1.491-0.894,2.235-1.937,4.024-2.682
			c1.49-0.895,2.533-1.64,4.471-1.938c4.472-0.448,4.621-1.341,6.856-3.279c1.044-0.596,1.64-1.341,2.831-1.789
			c1.044-0.894,1.938-0.447,3.279-0.894c1.789-0.448,2.683-1.044,4.473-1.64c1.639-0.596,3.427-1.341,4.32-1.341
			c3.13-1.341,4.918-0.447,7.899-0.746C949.386,703.529,950.279,704.125,950.131,704.125z"/>
		<path style="fill:#FF0050;" d="M975.766,674.616c-1.49,3.279-5.066,3.578-7.602,5.366c-3.428,1.789-7.152,3.577-11.028,4.024
			c-1.042,0.596-2.534,0.745-3.727,0.894c-9.985,1.789-19.673,5.813-30.105,6.111c-7.154,1.49-15.053,0.745-22.803,0.596
			c-6.409,0-14.606-1.788-21.014-4.62c-3.13-0.745-6.558-1.938-8.793-3.875c-3.279-0.895-5.812-3.279-8.644-5.067
			c-0.597-1.044-1.342-2.086-1.342-3.13c0-0.149-0.149-0.298-0.149-0.298c2.98,0.745,5.812,2.981,8.793,4.77
			c2.385,1.341,3.727,3.13,6.259,3.726c4.322,0.895,7.75,3.875,12.222,3.577c8.196,2.086,17.139,1.937,26.976,1.341
			c-1.49-3.428,1.043-4.769-0.148-6.855c0.148-0.894,0.298-1.49,0.596-2.087c0.447-0.447,0.744-0.894,1.341-0.447
			c0.298,0.298,0.448,0.447,0.745,0.745c-0.297,0.895,0.299,1.491,0.746,1.938c-0.447,1.938,0,3.875-0.299,6.26
			c7.303,0.746,12.221-1.341,18.184-1.639c2.533-1.192,6.408-1.491,9.537-2.385c2.832-0.894,6.261-0.894,8.943-2.533
			c2.236,0.298,4.769-0.447,6.559-2.683c3.875,0.149,6.855-2.683,11.326-3.577c0-1.191,0-0.745,0-0.745
			c0.744-0.297,2.234-1.937,4.024-1.341C976.213,673.424,976.063,674.02,975.766,674.616z"/>
		<path style="fill:#FF0050;" d="M877.697,631.396c1.641,0,4.025-0.149,5.813-0.298c4.323-2.683,11.029,0,16.097,0.596
			c3.129-1.789,8.346-0.745,11.625-1.043c4.769-1.192,11.028,0.298,16.544,0.298c9.688,0,20.865-0.298,30.553-0.745
			c1.49-0.15,2.98-1.044,4.322-0.448c0.148,0.149,0.298-0.148,0.447-0.148c-3.428,2.235-7.602,2.384-11.029,3.875
			c-4.918,4.322-10.582,6.558-15.797,9.837c-6.262,2.831-12.67,4.918-18.332,9.24c-1.79,0.895-3.429,1.938-5.217,2.832l-4.322,2.087
			l4.918,0.297c11.625,0.746,22.504-2.086,34.428-0.447c4.77,0,9.24-1.938,13.861-1.043c1.191-0.149,2.682,0,3.727,0
			c-0.15,0.298,0,0.894-0.15,1.043c-1.191,0-2.235,0.298-3.278,1.043c-1.192,0.597-2.684,0.597-4.024,0.895
			c-4.023,0.448-8.049-0.149-12.072,0.745c-10.881,0.298-21.461-1.043-32.043,0.149c-4.918-0.894-9.836,1.64-14.605,0.299
			c-3.131,0.745-7.154-0.895-9.539,0.894c-7.155-0.745-14.16-1.937-21.611-1.937c-1.64-0.596-4.173,0-4.919-1.789
			c-0.149-0.148,0.895-1.639,0.895-0.894c8.048-2.087,14.903,2.683,24.144,1.639c4.771-0.596,9.688,0,14.755-1.49
			c1.491-2.086,3.726-1.937,5.365-3.278c2.981-0.448,5.962-1.192,7.899-3.279c7.602-3.726,15.353-5.067,21.463-10.582
			c1.788-0.745,3.577-1.64,5.514-3.279c0-0.447,4.322-2.385,4.322-2.832c-0.148-0.297-4.62,0.745-4.62,0.149
			c-5.812,0-11.178-1.043-15.799,0.596c-8.346-2.086-16.991-2.235-25.933-0.298c-6.409-0.744-12.967-1.639-19.226-0.447
			c-5.216-2.236-11.029,2.385-15.798-1.788c-0.447-1.342-2.832-0.895-2.683-2.534C868.458,628.415,872.779,631.247,877.697,631.396z
			"/>
		<path style="fill:#FF0050;" d="M970.4,616.045c0.148,0.149,0.299,0,0.299,0.149c-2.684,0.596-5.365-0.448-7.751,0.596
			c-1.64,1.044-3.727,1.937-5.812,0.895c-0.149-1.043-0.596-2.236-0.298-3.577c0.298-0.596,0.745,0.149,1.191-0.298
			C962.502,612.468,966.674,613.959,970.4,616.045z"/>
	</g>
	<path style="fill:none;stroke:#17192D;stroke-width:3;" d="M2048,0"/>
	<path style="fill:none;stroke:#17192D;stroke-width:3;" d="M2048,1536"/>
	<path style="fill:none;stroke:#17192D;stroke-width:3;" d="M0,1536"/>
	<path style="fill:none;stroke:#17192D;stroke-width:3;" d="M0,0"/>
</g>
<g id="Layer_1">
</g>
</svg>
