<svg xmlns="http://www.w3.org/2000/svg" width="2048" height="1536" viewBox="0 0 2048 1536"><g><g fill="#FF0050"><path d="M929.563 1441.117c5.515-.447 9.688 1.79 14.755 2.98 1.043.895 2.086.895 2.086.744.3.15 2.236.6 3.875 1.493l.446.148c2.236 1.194 2.385 1.044 4.023 1.194 2.684 1.787 6.11 2.086 8.347 3.725 4.47 3.278 11.03 6.41 15.053 11.177 2.832 3.578 5.664 5.516 8.197 9.092.148.894.744 1.788.148 2.83-1.19 0-.446 1.044-2.236-1.64l-.298-.596c-1.64.447-2.98 1.193-4.023 1.49-2.536 0-6.41 0-9.093.3-1.64-.448-4.322.595-5.812 0-7.452.446-17.14.745-25.337.147-1.937.896-4.62.3-6.41.15-7.75-.446-14.753-2.83-21.76-2.087-4.768-.148-10.432 1.342-15.5-.596-3.576.447-9.238-.447-12.07-.3-.15 0-.3.3-.448.448-7.303-.893-16.692.3-23.697-.447-.746-.297-1.34-1.34-.298-1.49 14.308-1.19 32.342-1.34 47.395-.148 3.428-.3 8.645.447 12.222-.148.15.148.298.297.447.447 5.513 0 9.984 1.042 15.647 1.638.596-.447 1.193-.148 1.64.148 8.347.447 20.12-.744 28.17-.148 4.47-2.086 9.24 1.19 13.56-1.043.448-.746.448 1.49 3.43-.596-.896-.3-1.79-1.79-1.343-1.79-1.19-2.385-4.62-2.086-6.26-6.855-.893.895-.596-.447-1.342-.447 0 0-.744-.447-1.042-.598-.15-.148-.745-.297-.745-1.49-1.49 0-1.79-.445-2.236-.148-1.49-.596-1.49-2.682-3.28-2.682-.744-.3-1.787-.598-2.235-1.193-1.788-.447-2.532-2.234-4.173-2.533-2.385-1.64-5.962-1.342-7.898-2.684-1.64 0-1.79-1.34-3.727-1.49-5.216-2.832-12.072-2.832-17.586-4.023-8.048 0-15.35-1.64-23.548 0-2.682 0-5.067 1.043-7.452 1.49-1.34.895-2.98.598-4.323 1.342-11.03 3.427-22.207 7.897-31.746 15.5-3.873 1.937-5.81 5.96-9.835 7.897-.895.598-.3-.744 0-1.19 2.98-4.024 7.004-8.347 11.177-11.478 4.025-2.98 9.39-5.218 13.86-7.9 4.024-1.788 8.347-2.98 11.775-4.472 4.322-.297 5.216-2.98 9.688-2.533.895-.148 1.64-.744 3.28-.596.744-.597 1.34-.3 2.384-.745 1.34 0 2.83 0 4.47-.447 5.962-.298 13.414-1.193 19.673.15zM975.02 1422.338c.447.148.745.3 1.043.598-1.34 3.426-5.364 1.49-8.495 2.383-2.682.446-5.216 0-7.898.147-7.303.15-14.606-.148-21.61 0-3.728 0-8.646.3-12.52-.148-2.534-.298-5.664 0-8.198.147-6.11.598-11.922 0-18.332.45-.297-.3-.596-.3-.893-.3-2.684 1.342-5.665.148-8.198.596-6.112.3-11.924.895-17.886.895-4.173-1.79-8.496.895-12.817-.148-.597-.15.893-1.79 1.34-1.79 6.56-4.47 14.16 1.79 21.463-.298 8.645-2.385 18.332-1.49 26.827-1.936 8.495-.45 16.543.297 25.188 0 2.385-.3 4.77-.3 7.303-.3.596 0 1.342.15 1.938.15 6.557-.15 13.115-.15 18.928-1.044 4.47 1.194 8.196.447 12.817.596zM975.766 1392.98c-1.49 3.278-5.066 3.575-7.602 5.364-3.428 1.79-7.152 3.576-11.028 4.023-1.042.598-2.534.746-3.727.895-9.986 1.79-19.674 5.812-30.106 6.11-7.154 1.49-15.053.747-22.803.597-6.408 0-14.605-1.79-21.013-4.62-3.13-.746-6.558-1.938-8.793-3.875-3.28-.895-5.812-3.28-8.644-5.068-.597-1.043-1.342-2.086-1.342-3.13 0-.15-.15-.298-.15-.298 2.98.745 5.813 2.98 8.794 4.77 2.385 1.34 3.727 3.128 6.26 3.726 4.32.893 7.75 3.875 12.22 3.576 8.197 2.086 17.14 1.938 26.977 1.342-1.49-3.428 1.042-4.77-.15-6.855.15-.896.3-1.493.597-2.09.447-.446.744-.894 1.34-.446.3.3.45.447.746.746-.297.895.3 1.49.746 1.938-.448 1.938 0 3.875-.3 6.26 7.303.746 12.22-1.342 18.184-1.64 2.533-1.192 6.408-1.49 9.537-2.386 2.833-.893 6.262-.893 8.944-2.533 2.236.298 4.77-.448 6.56-2.683 3.874.148 6.854-2.684 11.325-3.578v-.745c.743-.3 2.233-1.938 4.023-1.342-.15.744-.3 1.34-.597 1.936zM873.524 1326.36c2.236.296 3.726 2.532 6.26 2.532 4.77 2.385 9.24 3.576 15.052 3.875.895.447 2.385.596 3.428.895 3.28.297 6.26 1.787 9.39 1.787 1.937.597 4.62-.446 6.41 1.938 2.384-.596 4.172-1.193 5.662-1.94.596-1.19 2.236-2.68 2.086-4.32 1.045-1.64.15-2.98.895-5.067.895-2.83.895-4.47 2.385-7.45.746-.596 1.492-1.193 2.386-1.043.596 1.49 0 3.277 0 5.066-1.938 3.875-1.64 5.963-2.98 11.03 1.19.745.745 1.34 1.19 1.638 3.727.6 7.75.15 10.88-.595 1.94.3 3.577-.447 6.56-.447.595-1.79 1.937-.447 2.83-.895 5.367-.447 10.137-3.428 15.65-3.727 2.385-2.086 6.408-1.787 8.793-3.576 2.832.3 4.323-3.428 7.9-2.533 1.788-1.342 3.428-2.98 5.663-2.98.597.447 1.192.893 1.788 1.49-.297 2.236-2.83 2.385-4.47 3.576-2.534.3-4.918.895-6.708 2.533-3.277-.148-5.215 2.684-8.345 2.535-1.192.745-2.384.896-3.28 1.49-1.19-.147-2.234.298-3.13.745-6.854 0-12.22 4.473-19.075 4.025-.895.596-2.534.596-3.43.744-7.303 2.533-15.797 2.086-23.25 1.938-3.427-.895-7.6 0-10.582-1.49-9.24-1.64-18.183-5.365-26.976-7.75-4.173-1.64-8.048-4.172-11.923-6.26-4.32-2.385-9.388-4.023-12.52-8.346 0-.3 0-.746.3-.895 6.707 4.325 13.712 8.2 21.164 11.48zM960.713 1284.63c-5.365 3.874-12.222 3.278-17.14 7.452-1.938.596-4.024 1.64-5.663 2.682-4.62-.148-9.39 2.832-15.65 5.664 4.024 1.64 7.006 1.193 9.092.596 8.793 0 16.544-1.49 25.784-.148 2.534 0 5.663-.746 7.9.297 4.32.15 9.388-1.043 13.114 1.045.148.148.148.148.3.297-3.132.895-7.155.598-10.286.447-2.682-.744-5.514.3-8.494.3-5.812.147-11.924-1.94-17.14.595-4.77.596-9.24-1.64-13.86 0-4.174 1.342-8.348-.744-12.222 1.19-7.154-1.19-16.395.15-24.145-1.19-8.793 0-17.735.596-26.38-.895-4.77-.148-6.706-1.043-11.177-1.938-.15 0 .745-1.043.745-1.342 4.77-2.83 6.41-3.727 11.478-5.662 7.004-2.832 14.456-2.236 21.462-4.174 9.836.148 19.523 1.49 26.677 10.88 13.116-7.9 27.125-8.792 39.794-15.65 5.663-1.786 10.88-4.618 16.544-6.407.895 0 2.385-.597 3.428-.3-4.62 2.683-9.39 4.77-14.16 6.26zm-83.91 9.835c-1.937.598-4.32-.146-6.11 1.045-2.384-.3-4.62 1.043-6.558 1.79l-3.577 2.532c1.34.148 6.558.596 8.048.895 1.937 1.938 5.365 1.04 7.75 1.64 11.03-1.49 23.4.298 36.664-.3-1.938-2.385-3.875-2.98-4.918-4.023-2.086-2.088-7.9-4.322-11.774-5.96-6.707.89-13.862-.6-19.524 2.38zM906.61 1224.268c9.986 3.578 20.57 2.533 30.106 6.557 9.838 4.174 20.568 5.963 30.703 9.242.297.297.743.746 1.042 1.19-3.28 1.343-7.602-1.34-11.477-.894-11.773-.893-22.803 2.98-35.174 4.62l-.595 2.685c13.414 2.682 24.74 8.346 37.11 10.73.448.297 1.192.445 1.64.744 2.684.15 5.963-1.64 7.9-.148-.15 1.043-1.193 1.49-2.236 1.79-2.386-.3-4.174 1.34-6.41 1.937-13.265-.595-25.038 2.235-38.452 3.13-16.543 1.193-32.937 2.385-48.586 2.236-8.197 1.19-14.457 1.49-20.866.746-.596-.3-1.788 0-2.384-.15.447-.3.894-.746 1.342-1.193 4.918-1.042 9.24-1.042 14.456-1.49 22.654-1.788 47.544.15 70.794-3.726 4.173-.746 8.346-.447 12.816-.895 2.982-1.044 1.64-4.024-.596-3.43-9.688-4.77-21.462-5.515-31.15-9.09-1.787-.597-4.62-.15-5.364-1.94.298-.595.894-.894 1.49-1.19 10.136-3.28 21.165-4.473 36.367-8.348-9.39-3.428-14.904-4.023-19.227-6.56-10.88 0-18.332-4.468-29.21-4.468-8.348-3.13-18.185-1.79-26.53-5.367-6.856-.148-12.52-1.64-20.568-2.98-.148 0-.597 0-.746-.148.15-.3.3-.597.448-1.044 1.192 0 1.938-.598 2.533-.895 16.843 1.344 33.834 6.11 50.824 8.348zM969.506 1169.42c1.193.598 2.385 0 3.726.3 1.044 0 1.79.298 2.685.894.147.744-.746 1.342-1.193 2.086-1.043 1.342-2.236-.744-2.533-.744-.298-.598-1.788.744-3.278-1.49-2.98.893-5.664.893-7.75.297-4.174.447-8.793-.744-12.818.895-1.64.148-2.533 2.086-3.278 2.98-.15 0-.745 1.79-2.087 2.385-1.94 1.79-4.77 4.62-5.664 5.365-.745.746 0-.895-1.34.596-.747.598-.448.896-1.492 2.535-1.34 1.638-4.024 4.47-4.62 5.214-.894 1.79-1.788 3.877-2.832 6.262 3.13 2.086 6.26 1.49 8.347 2.83 2.682.15 5.96.746 8.793 1.49 1.64-1.34 2.83.3 4.023.3 1.64.894 4.174.745 6.11 1.638 3.726.598 7.005 2.832 11.18 2.088 1.49.297 3.278.893 4.77 1.342-.15.297-.3.596-.6.596-2.53.447-4.767-.895-7.003-.746-.597-.447-1.043-.596-1.64-.447-1.192-.148-2.385-.447-3.428-.447-2.384-.744-4.024.596-7.9-1.936 0 2.234.3.893.3.893-2.236-.596-5.366-1.49-8.348-1.342-1.787-1.19-4.022-.744-5.812-1.19-4.172-.448-7.004-2.087-11.028-1.79 0 0-.15-.148-.298-.148-1.193-.744-2.534-.3-3.28-1.043-9.09-2.535-18.332-5.068-27.423-7.602-2.086-1.043-3.875-1.49-6.11-2.385-2.98-1.043-5.813-2.832-8.943-4.023s-6.11-3.13-9.688-4.174c-.895-.447-2.385.3-2.385-1.19 0-.448-.445-1.493-.147-1.642 1.043-1.64 4.024-1.64 5.515-2.385 3.577-.297 8.645-1.043 12.966-1.938 1.64-1.938 4.174-.447 6.11-1.19 7.304.298 14.905-3.43 23.25-2.386 10.583-1.64 22.356-2.534 32.343-1.64 7.597.593 15.198-.153 22.8.89zm-45.158 2.535c-1.94-.746-4.92 1.043-7.9.445-3.577-.596-7.45.598-11.028 1.193-3.428-.596-6.11 1.49-9.54 1.193-2.234.297-5.96.297-8.94.893-4.92.894-9.39 2.235-15.054 2.683 2.235 2.533 6.26 4.322 6.855 4.47 3.13 1.046 5.665 2.833 8.496 3.728 4.323 1.49 8.048 2.98 12.073 4.173 2.83.746 6.557 1.64 9.09 2.088 2.832-.15 6.856 2.386 10.73 2.98 2.236.3 1.192 1.343 4.323.448 1.19-2.832 2.98-4.77 4.024-7.303 1.34-1.79 2.086-1.938 4.024-4.025 1.34-1.34 2.683-3.428 4.173-5.363 1.342-1.492 3.13-3.13 4.024-4.174 0-.3 1.788-2.236 1.788-3.428-2.086-.447-4.47-.447-5.812-.598-4.023-.595-7.153 0-11.325.598zM986.795 1134.545c1.938 1.64 0 1.49-.3 2.088-8.345 7.303-19.97 5.812-28.912 11.625-6.41 2.385-13.265 3.277-19.524 4.768-4.92.15-9.39 2.236-14.01 1.342-1.49 1.193-3.728 0-5.366.596-10.73 0-16.842-2.086-25.188-3.875-2.832.298-5.812-.597-8.048-2.534-3.875.447-7.006-.746-9.837-2.236-6.854-2.533-13.71-5.215-18.628-9.984 0 .148-.895-.3-.448-.598 1.192-.744 2.534.598 3.726 1.193 7.005.597 11.477 5.665 17.736 7.155 2.832 1.49 5.96 1.49 8.644 2.533 11.477 2.98 19.078 5.516 31.15 5.664.15 0 .446-1.043.446.148 10.283-.596 19.077-2.98 28.467-4.023 9.54-2.98 19.077-6.41 28.615-9.39 2.534-1.64 5.515-2.98 8.793-4.173.896 0 2.535-1.64 2.98-1.043.152 0 1.195 0-.295.745zM968.164 1087.598c-1.787 1.342-4.172 2.236-5.96 3.727-7.304 2.086-15.203 4.023-23.102 4.023-5.665.895-11.478 2.086-16.99 3.428-2.98-.297-6.41-.895-9.837-.148-.447 1.19-.447 1.64-2.236 2.086 1.64 4.322 5.067 7.303 6.707 10.434.895.447 1.79 1.64 1.49 2.682-.596 1.79.3 1.79 1.342 2.832 1.34 0 2.532.148 3.725.746 3.13-1.043 5.515-1.043 8.048-.15 2.832 1.64 5.217.45 8.347 0 5.962-.893 11.626-2.234 17.736-2.533 4.77-.148 9.538-.148 14.605-.148.447.148.895.3.746.744 0 .448-.596.896-1.044 1.046-7.452.445-14.605.744-21.163 2.83-4.92-.148-8.944 1.342-13.563.896-11.03-1.045-22.654 0-33.086 1.34-4.62-1.043-8.197.895-12.668.598-11.625-.896-23.697-.896-33.98-4.322-1.49-.45-.746-1.64-1.49-2.684.148-.447.894 0 1.192-.148 3.577.744 6.706 2.383 10.284 2.234l.298.3c6.11-.3 11.774 1.638 17.14 1.34 4.024 2.235 8.495-.597 12.817.15 5.515.894 10.135-1.044 15.5-1.79.745-.596 1.79-1.19 2.832-2.385-1.788-4.77-7.303-7.75-7.9-11.625.746 0-1.042-1.19-.297-3.576-4.62-1.342-8.346.447-11.774-1.193-2.832-.743-5.664.747-8.645-.894-4.025 1.94-7.602.15-11.476.447-2.236-1.938-3.13 1.938-5.813.15-2.533.744-5.96 1.19-8.047 0 .15-.598.15-1.043 0-1.64 2.236-1.34 5.366.446 7.6-1.34 3.28-.3 5.665 1.49 8.943.892 9.54-1.787 20.12.3 29.808-.297 6.708-.3 14.01.744 20.42-1.49 10.133-1.64 20.715-2.982 30.253-4.918 2.385-1.492 5.217-3.13 8.198-2.982.443.445.89.744 1.04 1.34zM956.69 1059.875c5.81 1.492 9.983 6.41 15.796 8.2.895 1.638 2.832 2.532 3.727 4.17-1.342.448-2.832-.892-4.023-1.49-1.044-1.042-2.088-1.638-3.578-1.788-3.277-2.385-7.75-3.426-11.177-6.11-2.534-.894-6.26-1.192-9.093-2.532-5.066-.3-10.134-.3-15.053.596-4.77.896-9.39 2.833-13.116 6.112-4.918 2.383-10.582 4.172-15.947 5.363-8.346 4.174-18.928 3.727-27.572.3-5.068 0-7.9-4.323-12.52-4.92-1.34-1.042-2.534-2.085-4.173-2.683-.895-.744-.448-1.938-1.193-2.98 0-.297-.597.15-.298.3 2.086.147 4.322 1.042 6.11 1.937 7.9 6.11 18.48 6.407 28.02 8.495 6.707-.3 12.22-3.43 18.63-4.92 4.024-2.533 9.09-3.428 13.116-5.96 2.98-.3 5.365-3.728 8.494-2.98 6.707-2.386 14.606-2.386 21.016 0 .892.445 1.787.742 2.83.89zM873.524 1032.453c2.236.3 3.726 2.535 6.26 2.535 4.77 2.385 9.24 3.576 15.052 3.873.895.45 2.385.6 3.428.896 3.28.3 6.26 1.79 9.39 1.79 1.937.595 4.62-.448 6.41 1.937 2.384-.596 4.172-1.19 5.662-1.938.596-1.19 2.236-2.684 2.086-4.322 1.045-1.64.15-2.98.895-5.066.895-2.832.895-4.473 2.385-7.45.746-.6 1.492-1.194 2.386-1.046.596 1.49 0 3.28 0 5.07-1.938 3.874-1.64 5.96-2.98 11.026 1.19.746.745 1.342 1.19 1.64 3.727.597 7.75.15 10.88-.595 1.94.298 3.577-.446 6.56-.446.595-1.79 1.937-.447 2.83-.895 5.367-.448 10.137-3.43 15.65-3.728 2.385-2.086 6.408-1.79 8.793-3.576 2.832.297 4.323-3.428 7.9-2.533 1.788-1.342 3.428-2.982 5.663-2.982.597.448 1.192.896 1.788 1.493-.297 2.234-2.83 2.383-4.47 3.576-2.534.298-4.918.894-6.708 2.532-3.277-.148-5.215 2.684-8.345 2.533-1.192.746-2.384.895-3.28 1.49-1.19-.148-2.234.3-3.13.746-6.854 0-12.22 4.472-19.075 4.024-.895.598-2.534.598-3.43.746-7.303 2.533-15.797 2.086-23.25 1.938-3.427-.895-7.6 0-10.582-1.49-9.24-1.64-18.183-5.367-26.976-7.75-4.173-1.64-8.048-4.174-11.923-6.26-4.32-2.385-9.388-4.023-12.52-8.348 0-.297 0-.744.3-.893 6.707 4.324 13.712 8.197 21.164 11.476zM877.697 980.738c1.64 0 4.025-.148 5.813-.297 4.323-2.683 11.03 0 16.097.597 3.13-1.79 8.346-.746 11.625-1.045 4.77-1.19 11.028.3 16.544.3 9.688 0 20.865-.3 30.553-.745 1.49-.15 2.98-1.045 4.32-.447.15.148.3-.148.448-.148-3.428 2.234-7.602 2.383-11.03 3.873-4.917 4.322-10.58 6.56-15.796 9.838-6.262 2.83-12.67 4.918-18.332 9.24-1.79.895-3.43 1.938-5.217 2.83l-4.322 2.088 4.92.298c11.624.746 22.503-2.086 34.427-.445 4.77 0 9.24-1.94 13.86-1.045 1.192-.148 2.683 0 3.728 0-.15.3 0 .895-.15 1.045-1.19 0-2.235.297-3.278 1.043-1.192.596-2.684.596-4.024.895-4.023.448-8.05-.15-12.072.745-10.88.3-21.46-1.043-32.042.148-4.918-.893-9.836 1.64-14.605.3-3.13.745-7.154-.896-9.54.894-7.154-.746-14.16-1.938-21.61-1.938-1.64-.597-4.173 0-4.92-1.79-.148-.148.896-1.64.896-.893 8.047-2.088 14.902 2.682 24.143 1.64 4.77-.6 9.688 0 14.755-1.49 1.49-2.09 3.726-1.94 5.365-3.28 2.98-.447 5.962-1.19 7.9-3.28 7.6-3.726 15.352-5.065 21.462-10.58 1.788-.745 3.577-1.64 5.514-3.28 0-.445 4.32-2.385 4.32-2.832-.147-.297-4.62.746-4.62.15-5.81 0-11.177-1.043-15.798.596-8.346-2.085-16.99-2.233-25.933-.298-6.41-.744-12.968-1.64-19.227-.447-5.216-2.234-11.03 2.387-15.798-1.787-.447-1.342-2.832-.895-2.683-2.533 5.066-.897 9.387 1.935 14.305 2.083zM975.766 949.59c-1.49 3.28-5.066 3.576-7.602 5.365-3.428 1.79-7.152 3.576-11.028 4.023-1.042.596-2.534.746-3.727.895-9.986 1.79-19.674 5.812-30.106 6.11-7.154 1.49-15.053.745-22.803.597-6.408 0-14.605-1.79-21.013-4.62-3.13-.745-6.558-1.938-8.793-3.874-3.28-.896-5.812-3.28-8.644-5.068-.597-1.043-1.342-2.086-1.342-3.13 0-.15-.15-.298-.15-.298 2.98.744 5.813 2.98 8.794 4.77 2.385 1.34 3.727 3.13 6.26 3.727 4.32.893 7.75 3.875 12.22 3.576 8.197 2.086 17.14 1.938 26.977 1.342-1.49-3.43 1.042-4.77-.15-6.855.15-.895.3-1.492.597-2.088.447-.447.744-.895 1.34-.447.3.3.45.447.746.746-.297.896.3 1.49.746 1.94-.448 1.937 0 3.874-.3 6.26 7.303.743 12.22-1.343 18.184-1.642 2.533-1.19 6.408-1.49 9.537-2.385 2.833-.895 6.262-.895 8.944-2.533 2.236.3 4.77-.447 6.56-2.684 3.874.15 6.854-2.682 11.325-3.576v-.744c.743-.3 2.233-1.938 4.023-1.342-.15.742-.3 1.34-.597 1.936zM979.94 890.123c-11.776 5.217-21.91 12.074-32.194 18.928-.895.45-1.19 1.642-3.13 1.642-4.77 4.77-10.73 5.217-15.053 9.54-3.875 1.937-8.197 4.173-12.67 7.6.597.446 1.642.894 2.088 1.192 3.13 1.49 6.262.3 9.093.447 8.942.298 17.14-1.192 25.038-1.34 7.603 0 14.607-1.788 21.313-1.044.148.297.148.744.148 1.342-.444 3.428-4.32 1.043-5.96 1.64-7.153.894-13.412 1.042-21.163 1.34-9.538.597-18.93.15-28.467 1.192-6.41.598-12.22 0-18.332 1.342-10.135-1.19-20.42 4.023-30.554 1.938-2.384 0-4.77 1.193-7.302.596-1.044-.744-5.812.15-3.43-2.086 7.752-1.19 15.8 0 23.7-1.043 11.922-.447 24.59-1.193 33.384-8.793 1.49-.447 2.683-1.492 3.726-2.236 3.726-2.236 7.75-3.875 10.88-7.154 3.13-1.043 5.962-2.832 8.495-4.62 4.472-4.47 10.434-6.11 15.352-9.538 0-.596.446-.447.743-.596 1.342-.596 2.385-1.79 4.025-2.98 0-.598 4.322-1.492 4.174-1.938-.15-.447-5.068-.3-5.516-.596-6.855 1.488-15.352 2.086-23.25 2.83-8.494.746-14.16 2.385-22.208 2.533-2.832-.597-6.855 2.235-9.687-.15-3.13 0-4.917-.147-7.45.747-2.236 0-4.472-.3-7.154-.3-.597-.147-1.193.448-1.79.448-2.533 1.64-3.874-2.234-5.812-.447-.895.3-1.79 1.043-2.683-.3-4.77 1.343-8.495.6-12.518-1.638-1.342.596-1.79-.148-2.385-.596v-.447c.447-1.043 1.34.447 1.34.3 0 0 .896.743 1.79-.15.597-.896 1.938 1.044 2.236.595 5.067 1.193 11.03.895 16.692.15 5.216.895 13.115-.596 18.033.447 1.044-.15 2.385-1.044 4.174-.448 1.64-1.49 3.875-.15 5.067-1.043 6.258-.448 12.965-1.493 19.374-1.493 6.11-.596 12.816-1.19 17.734-1.936 1.045.298 2.236-.597 3.28.15 2.532-.597 3.577-.597 5.514-.896 3.876-.746 8.794-1.342 12.222-2.086.596 0 1.342-.447 2.234-1.49-.744-1.342.895-.746 1.045-.746 1.34-.596 3.576.596 5.812-.148.004.445.153.894.004 1.34zM906.61 793.102c9.986 3.576 20.57 2.533 30.106 6.557 9.838 4.173 20.568 5.962 30.703 9.24.297.298.743.745 1.042 1.192-3.28 1.342-7.602-1.342-11.477-.895-11.773-.895-22.803 2.98-35.174 4.62l-.595 2.683c13.414 2.684 24.74 8.346 37.11 10.73.448.3 1.192.447 1.64.746 2.684.148 5.963-1.64 7.9-.15-.15 1.045-1.193 1.49-2.236 1.79-2.386-.3-4.174 1.34-6.41 1.937-13.265-.596-25.038 2.236-38.452 3.13-16.543 1.192-32.937 2.386-48.586 2.235-8.197 1.193-14.457 1.49-20.866.746-.596-.3-1.788 0-2.384-.15.447-.297.894-.744 1.342-1.19 4.918-1.044 9.24-1.044 14.456-1.49 22.654-1.79 47.544.147 70.794-3.728 4.173-.744 8.346-.447 12.816-.895 2.982-1.042 1.64-4.022-.596-3.427-9.688-4.77-21.462-5.514-31.15-9.092-1.787-.595-4.62-.147-5.364-1.935.298-.596.894-.895 1.49-1.193 10.136-3.28 21.165-4.47 36.367-8.346-9.39-3.428-14.904-4.025-19.227-6.56-10.88 0-18.332-4.47-29.21-4.47-8.348-3.13-18.185-1.79-26.53-5.365-6.856-.15-12.52-1.64-20.568-2.98-.148 0-.597 0-.746-.15.15-.296.3-.595.448-1.042 1.192 0 1.938-.596 2.533-.895 16.843 1.343 33.834 6.112 50.824 8.35zM975.02 767.614c.447.15.745.3 1.043.597-1.34 3.428-5.364 1.49-8.495 2.385-2.682.447-5.216 0-7.898.15-7.303.148-14.606-.15-21.61 0-3.728 0-8.646.297-12.52-.15-2.534-.297-5.664 0-8.198.15-6.11.596-11.922 0-18.332.446-.297-.297-.596-.297-.893-.297-2.684 1.34-5.665.148-8.198.596-6.112.298-11.924.894-17.886.894-4.173-1.79-8.496.895-12.817-.15-.597-.148.893-1.787 1.34-1.787 6.56-4.47 14.16 1.788 21.463-.298 8.645-2.386 18.332-1.492 26.827-1.94 8.495-.446 16.543.3 25.188 0 2.385-.297 4.77-.297 7.303-.297.596 0 1.342.148 1.938.148 6.557-.147 13.115-.147 18.928-1.042 4.47 1.193 8.196.448 12.817.596zM956.69 739.744c5.81 1.49 9.983 6.41 15.796 8.198.895 1.64 2.832 2.534 3.727 4.174-1.342.446-2.832-.895-4.023-1.49-1.044-1.045-2.088-1.64-3.578-1.79-3.277-2.385-7.75-3.428-11.177-6.11-2.534-.895-6.26-1.193-9.093-2.534-5.066-.298-10.134-.298-15.053.596-4.77.895-9.39 2.832-13.116 6.11-4.918 2.385-10.582 4.174-15.947 5.366-8.346 4.173-18.928 3.726-27.572.298-5.068 0-7.9-4.322-12.52-4.918-1.34-1.043-2.534-2.086-4.173-2.683-.895-.744-.448-1.936-1.193-2.98 0-.297-.597.15-.298.298 2.086.15 4.322 1.044 6.11 1.938 7.9 6.11 18.48 6.41 28.02 8.496 6.707-.298 12.22-3.428 18.63-4.92 4.024-2.532 9.09-3.426 13.116-5.96 2.98-.298 5.365-3.726 8.494-2.98 6.707-2.386 14.606-2.386 21.016 0 .892.445 1.787.744 2.83.892zM950.13 704.125c-.298-.15 1.343-.447 1.94-.297h1.19c.895.297 2.088.745 2.982.596 2.086.894 4.172.447 5.96 1.34 3.578 1.64 8.347 3.13 12.222 6.41 2.385 2.533 5.516 3.576 7.9 5.81.446 1.342 1.043 1.94.744 3.13-2.385.15-3.576-3.278-5.812-4.172-1.64-1.49-4.024-1.938-5.365-3.875-.298-.15-.894-.745-1.19-.894-.3-.15-.447-.447-.447-.447-.15 0-.746-.298-.746-.448-1.342-1.34-1.788-1.49-1.788-.894-1.045-.298-1.79-1.043-2.832-.895-.447-.15-.895-.448-1.193-.895-1.788.298-2.235-.596-3.13-.746-1.64-.895-4.173 0-5.962-.597-.894.15-1.64-.746-2.682-.596-3.577-1.043-5.067-.15-8.942.148-4.918 1.79-5.066 1.342-8.197 2.534-2.383.893-3.724 1.19-5.96 2.234-2.234 1.043-3.13 2.236-5.365 3.28-2.087.893-3.428.595-5.365 1.34-2.236.894-3.577 1.938-5.664 2.832-2.086 1.042-3.727 1.49-6.11 2.533-2.236 1.34-3.43 2.682-6.11 3.427-.746 0-1.79.15-2.535.15-.744-.15-1.64.148-2.085.148-.447.15-1.192-.15-1.64-.298-2.683.894-4.173-.894-7.004-.596-2.682-.744-5.365-1.042-8.495-2.086-2.98-1.64-6.855-2.384-10.134-4.62-3.427-1.79-6.855-4.47-9.39-7.75-.297-.447-1.49-1.64-.446-1.49 2.683 1.192 5.067 3.874 7.9 4.918 7.6 4.77 15.5 7.6 23.398 8.346.895.447 1.938 0 2.98.447 1.49 0 3.578.447 5.218.15 5.365.596 4.173-1.79 6.41-2.684 2.383-.894 3.874-.744 5.96-1.788 1.49-.894 2.235-1.937 4.024-2.682 1.49-.895 2.533-1.64 4.47-1.938 4.473-.448 4.622-1.34 6.857-3.28 1.045-.595 1.64-1.34 2.832-1.788 1.044-.894 1.938-.447 3.28-.894 1.788-.448 2.682-1.044 4.472-1.64 1.64-.596 3.427-1.34 4.32-1.34 3.13-1.342 4.918-.448 7.9-.747.892.006 1.785.602 1.637.602zM975.766 674.616c-1.49 3.28-5.066 3.578-7.602 5.366-3.428 1.79-7.152 3.577-11.028 4.024-1.042.596-2.534.745-3.727.894-9.986 1.79-19.674 5.813-30.106 6.11-7.154 1.49-15.053.746-22.803.597-6.408 0-14.605-1.788-21.013-4.62-3.13-.745-6.558-1.938-8.793-3.875-3.28-.895-5.812-3.28-8.644-5.067-.597-1.044-1.342-2.086-1.342-3.13 0-.15-.15-.298-.15-.298 2.98.745 5.813 2.98 8.794 4.77 2.385 1.34 3.727 3.13 6.26 3.726 4.32.895 7.75 3.875 12.22 3.577 8.197 2.086 17.14 1.937 26.977 1.34-1.49-3.427 1.042-4.768-.15-6.854.15-.894.3-1.49.597-2.087.447-.448.744-.895 1.34-.448.3.298.45.447.746.745-.297.895.3 1.49.746 1.938-.448 1.938 0 3.875-.3 6.26 7.303.746 12.22-1.34 18.184-1.64 2.533-1.19 6.408-1.49 9.537-2.384 2.833-.893 6.262-.893 8.944-2.532 2.236.298 4.77-.447 6.56-2.683 3.874.15 6.854-2.683 11.325-3.577v-.745c.743-.297 2.233-1.937 4.023-1.34-.15.74-.3 1.337-.597 1.933zM877.697 631.396c1.64 0 4.025-.15 5.813-.298 4.323-2.683 11.03 0 16.097.596 3.13-1.79 8.346-.745 11.625-1.043 4.77-1.19 11.028.3 16.544.3 9.688 0 20.865-.3 30.553-.746 1.49-.15 2.98-1.044 4.32-.448.15.15.3-.148.448-.148-3.428 2.235-7.602 2.384-11.03 3.875-4.917 4.322-10.58 6.558-15.796 9.837-6.262 2.83-12.67 4.918-18.332 9.24-1.79.895-3.43 1.938-5.217 2.832l-4.322 2.087 4.92.296c11.624.746 22.503-2.086 34.427-.447 4.77 0 9.24-1.94 13.86-1.044 1.192-.15 2.683 0 3.728 0-.15.298 0 .894-.15 1.043-1.19 0-2.235.297-3.278 1.042-1.192.597-2.684.597-4.024.895-4.023.448-8.05-.15-12.072.745-10.88.298-21.46-1.043-32.042.15-4.918-.895-9.836 1.64-14.605.298-3.13.745-7.154-.895-9.54.894-7.154-.745-14.16-1.937-21.61-1.937-1.64-.596-4.173 0-4.92-1.79-.148-.147.896-1.638.896-.893 8.047-2.087 14.902 2.683 24.143 1.64 4.77-.597 9.688 0 14.755-1.49 1.49-2.087 3.726-1.938 5.365-3.28 2.98-.447 5.962-1.19 7.9-3.278 7.6-3.726 15.352-5.067 21.462-10.582 1.788-.745 3.577-1.64 5.514-3.28 0-.446 4.32-2.384 4.32-2.83-.147-.298-4.62.744-4.62.148-5.81 0-11.177-1.043-15.798.596-8.346-2.086-16.99-2.235-25.933-.298-6.41-.744-12.968-1.64-19.227-.447-5.216-2.236-11.03 2.385-15.798-1.788-.447-1.342-2.832-.895-2.683-2.534 5.066-.895 9.387 1.937 14.305 2.086zM970.4 616.045c.148.15.3 0 .3.15-2.685.595-5.366-.45-7.752.595-1.64 1.044-3.727 1.937-5.812.895-.15-1.043-.596-2.236-.298-3.577.298-.596.745.15 1.19-.298 4.474-1.342 8.646.15 12.372 2.235z"/></g><path d="M2048 0M2048 1536M0 1536M0 0" fill="none" stroke="#17192D" stroke-width="3"/></g></svg>