<?xml version="1.0" encoding="iso-8859-1"?>
<!-- Generator: Adobe Illustrator 15.1.0, SVG Export Plug-In . SVG Version: 6.00 Build 0)  -->
<!DOCTYPE svg PUBLIC "-//W3C//DTD SVG 1.1//EN" "http://www.w3.org/Graphics/SVG/1.1/DTD/svg11.dtd">
<svg version="1.1" xmlns="http://www.w3.org/2000/svg" xmlns:xlink="http://www.w3.org/1999/xlink" x="0px" y="0px" width="2048px"
	 height="1536px" viewBox="0 0 2048 1536" style="enable-background:new 0 0 2048 1536;" xml:space="preserve">
<g id="bheada_x5F_1">
	<g>
		<path style="fill:#FF0050;" d="M1139.304,1447.129c5.812,0.447,11.774,1.789,18.033,2.533c7.602,0.895,15.5,1.789,22.654,5.365
			c3.727,3.727,8.346,5.664,11.328,10.582c0.445,2.684,2.383,2.236,1.488,5.516c0.148,0.447-0.297,0-0.297-0.598
			c-3.428,0.15-1.789-0.744-4.322-4.172c-3.875,1.191-6.707-0.596-9.539,0.596c-11.924-0.746-22.207,0-33.832,1.193
			c-2.831,1.34-6.408,1.34-9.688,0.893c-2.086-0.744-4.322,0.746-6.855,0.299c-7.75-0.447-16.395-0.447-23.996,0.596
			c-5.663-0.297-11.177,0-16.99,0.596c-2.235-0.445-4.77-1.191-7.899-0.297c-0.895,2.086-1.937,1.639-1.192,3.428
			c-0.298,0.297-0.596,0.746-1.043,1.043c-0.447-0.148-0.895,0-1.341-0.447c0.596-4.322,3.428-6.707,6.11-9.986
			c5.217-4.77,11.924-7.004,17.587-11.625c3.726-2.385,7.601-2.682,11.625-4.32c5.067-0.746,10.729-0.449,15.649-1.49
			C1130.956,1447.873,1134.981,1447.576,1139.304,1447.129z M1115.755,1450.855c-5.812-0.299-9.837,2.385-15.351,4.023
			c-0.298,0.297-1.64,1.639-2.385,2.086c-4.173,2.982-9.092,4.322-13.563,10.285c5.366-0.449,8.048,1.49,10.582,0.445
			c3.727,0.449,7.005-1.49,10.73-1.639c5.366,1.639,11.178,0.299,16.693,1.043c5.067,0.596,10.582-0.596,15.798-0.895
			c9.24-3.576,19.972-1.041,29.511-2.086c4.619,0,9.984-0.746,17.287,0.148c-2.83-5.961-7.898-7.004-11.326-8.941
			c-8.793-2.385-17.586-3.875-26.678-4.77c-1.789-0.299-4.024,0.447-5.664-0.596
			C1133.192,1450.408,1123.355,1447.576,1115.755,1450.855z"/>
		<path style="fill:#FF0050;" d="M1182.823,1400.033c1.191,0.596,2.383,0,3.725,0.299c1.045,0,1.789,0.297,2.684,0.893
			c0.148,0.746-0.744,1.342-1.191,2.088c-1.043,1.34-2.236-0.746-2.535-0.746c-0.299-0.596-1.787,0.746-3.277-1.49
			c-2.982,0.895-5.664,0.895-7.75,0.299c-4.174,0.447-8.794-0.746-12.818,0.893c-1.64,0.15-2.533,2.088-3.279,2.982
			c-0.148,0-0.744,1.787-2.086,2.385c-1.938,1.789-4.77,4.619-5.664,5.365c-0.744,0.744,0-0.895-1.342,0.596
			c-0.744,0.596-0.445,0.895-1.49,2.533c-1.341,1.641-4.023,4.471-4.62,5.217c-0.894,1.789-1.788,3.875-2.831,6.26
			c3.131,2.086,6.26,1.49,8.346,2.832c2.684,0.148,5.963,0.746,8.794,1.49c1.64-1.342,2.831,0.299,4.023,0.299
			c1.64,0.893,4.174,0.744,6.11,1.639c3.727,0.596,7.006,2.832,11.178,2.088c1.49,0.297,3.279,0.893,4.77,1.34
			c-0.148,0.299-0.297,0.596-0.596,0.596c-2.533,0.447-4.77-0.895-7.004-0.744c-0.598-0.447-1.045-0.596-1.641-0.447
			c-1.191-0.148-2.385-0.447-3.428-0.447c-2.385-0.746-4.023,0.596-7.898-1.938c0,2.236,0.299,0.895,0.299,0.895
			c-2.236-0.598-5.367-1.49-8.348-1.342c-1.787-1.193-4.023-0.746-5.812-1.193c-4.172-0.445-7.004-2.086-11.029-1.789
			c0,0-0.148-0.148-0.297-0.148c-1.193-0.744-2.535-0.297-3.279-1.043c-9.092-2.533-18.332-5.066-27.424-7.6
			c-2.086-1.045-3.875-1.492-6.11-2.385c-2.98-1.045-5.812-2.832-8.942-4.025c-3.13-1.191-6.111-3.129-9.688-4.172
			c-0.896-0.449-2.386,0.297-2.386-1.193c0-0.447-0.446-1.49-0.148-1.639c1.043-1.641,4.024-1.641,5.515-2.385
			c3.577-0.299,8.645-1.043,12.966-1.938c1.64-1.938,4.174-0.447,6.111-1.193c7.303,0.299,14.904-3.428,23.25-2.385
			c10.582-1.639,22.356-2.533,32.342-1.639C1167.62,1399.734,1175.222,1398.99,1182.823,1400.033z M1137.664,1402.566
			c-1.938-0.744-4.919,1.043-7.899,0.447c-3.578-0.596-7.452,0.596-11.028,1.193c-3.429-0.598-6.111,1.49-9.539,1.191
			c-2.235,0.299-5.962,0.299-8.942,0.895c-4.919,0.895-9.39,2.236-15.054,2.682c2.235,2.535,6.261,4.322,6.856,4.473
			c3.13,1.043,5.663,2.83,8.495,3.725c4.323,1.49,8.048,2.98,12.072,4.174c2.832,0.746,6.558,1.639,9.092,2.086
			c2.831-0.148,6.855,2.385,10.731,2.982c2.234,0.297,1.191,1.34,4.321,0.447c1.192-2.832,2.981-4.77,4.024-7.305
			c1.342-1.787,2.086-1.936,4.023-4.023c1.342-1.342,2.683-3.428,4.174-5.365c1.342-1.49,3.129-3.131,4.023-4.174
			c0-0.297,1.789-2.234,1.789-3.428c-2.087-0.447-4.471-0.447-5.812-0.596C1144.968,1401.375,1141.837,1401.971,1137.664,1402.566z"
			/>
		<path style="fill:#FF0050;" d="M1170.005,1369.629c5.812,1.49,9.986,6.408,15.799,8.197c0.895,1.639,2.832,2.533,3.727,4.174
			c-1.342,0.445-2.832-0.895-4.025-1.49c-1.043-1.045-2.086-1.641-3.576-1.789c-3.279-2.385-7.75-3.428-11.178-6.111
			c-2.533-0.895-6.26-1.191-9.092-2.533c-5.067-0.299-10.135-0.299-15.053,0.596c-4.77,0.895-9.391,2.832-13.116,6.111
			c-4.918,2.383-10.582,4.172-15.947,5.365c-8.346,4.172-18.928,3.725-27.572,0.297c-5.067,0-7.898-4.322-12.519-4.918
			c-1.342-1.043-2.534-2.086-4.174-2.682c-0.895-0.746-0.447-1.938-1.192-2.982c0-0.297-0.596,0.15-0.298,0.299
			c2.086,0.15,4.322,1.043,6.11,1.938c7.899,6.111,18.481,6.41,28.02,8.496c6.707-0.299,12.221-3.43,18.63-4.92
			c4.024-2.533,9.092-3.428,13.116-5.961c2.981-0.297,5.365-3.725,8.495-2.98c6.707-2.385,14.605-2.385,21.016,0
			C1168.067,1369.182,1168.962,1369.479,1170.005,1369.629z"/>
		<path style="fill:#FF0050;" d="M1170.005,1339.672c5.812,1.492,9.986,6.41,15.799,8.197c0.895,1.641,2.832,2.535,3.727,4.174
			c-1.342,0.447-2.832-0.893-4.025-1.49c-1.043-1.043-2.086-1.639-3.576-1.789c-3.279-2.385-7.75-3.426-11.178-6.109
			c-2.533-0.895-6.26-1.193-9.092-2.533c-5.067-0.299-10.135-0.299-15.053,0.596c-4.77,0.895-9.391,2.832-13.116,6.111
			c-4.918,2.383-10.582,4.172-15.947,5.363c-8.346,4.174-18.928,3.727-27.572,0.299c-5.067,0-7.898-4.322-12.519-4.918
			c-1.342-1.043-2.534-2.086-4.174-2.684c-0.895-0.744-0.447-1.938-1.192-2.98c0-0.297-0.596,0.15-0.298,0.299
			c2.086,0.148,4.322,1.043,6.11,1.938c7.899,6.111,18.481,6.408,28.02,8.496c6.707-0.299,12.221-3.43,18.63-4.92
			c4.024-2.533,9.092-3.428,13.116-5.961c2.981-0.299,5.365-3.727,8.495-2.98c6.707-2.385,14.605-2.385,21.016,0
			C1168.067,1339.227,1168.962,1339.523,1170.005,1339.672z"/>
		<path style="fill:#FF0050;" d="M1179.991,1267.24c2.832,2.088,4.172,5.217,4.918,8.646c-0.148,3.428-1.49,6.258-1.787,9.836
			c-0.449,0.895-0.449,1.639-2.387,1.938c-0.744,1.49-1.639,1.49-2.533,1.789c-0.297-0.15-0.447-0.299-0.447-0.598
			c0-0.596-0.445-1.34-0.445-1.938c0.445-0.744,0.893-0.744,0.893-1.191c0.148-0.596,1.789-0.447,1.639-1.49
			c1.641-2.982,1.49-6.857,1.49-10.582c-1.191-4.174-5.961-4.918-9.688-5.068c-3.277,0-7.152,0.15-10.432,0.746
			c-2.236,0.148-4.023-0.447-5.365,0.895c-2.98-0.447-5.961,0.744-8.942,0.596c-1.341,1.191-3.727,0.447-5.365,1.043
			c-9.241,1.641-18.332,2.385-27.871,2.535c-6.706,0.148-14.01,0.148-20.418-0.15c-4.62,0.895-8.794,0.15-12.967-0.895
			c-1.341-0.744-0.149-1.938,0.895-2.682c0.895,0,1.937-0.299,2.683,0.447c1.49-0.15,1.938,0.148,2.534,0.445
			c0,0.15,0,0.299,0,0.447c6.707-0.297,13.264,0.447,18.63-1.043c5.663,0.299,12.37,0.895,17.586,0.15
			c2.086-1.193,5.067,0.148,7.452-0.447c4.024-0.895,9.241-0.895,13.563-1.342c0.297-0.148-0.148-1.193,0.297-0.148
			c3.727-0.746,6.559-1.789,9.242-1.939c7.302-1.49,14.157-1.639,21.908-1.49C1176.86,1265.453,1178.202,1266.795,1179.991,1267.24z
			"/>
		<path style="fill:#FF0050;" d="M1189.083,1236.988c-1.49,3.279-5.068,3.576-7.602,5.365c-3.428,1.789-7.154,3.576-11.029,4.023
			c-1.043,0.596-2.533,0.746-3.727,0.895c-9.984,1.789-19.672,5.812-30.105,6.109c-7.154,1.492-15.053,0.746-22.804,0.598
			c-6.408,0-14.605-1.789-21.014-4.619c-3.13-0.746-6.558-1.939-8.793-3.877c-3.279-0.895-5.813-3.279-8.645-5.066
			c-0.596-1.043-1.341-2.086-1.341-3.131c0-0.148-0.15-0.297-0.15-0.297c2.981,0.744,5.813,2.98,8.794,4.77
			c2.385,1.34,3.727,3.129,6.26,3.725c4.322,0.895,7.75,3.877,12.222,3.578c8.196,2.086,17.139,1.938,26.976,1.34
			c-1.49-3.428,1.043-4.768-0.148-6.855c0.148-0.895,0.298-1.49,0.596-2.086c0.447-0.447,0.745-0.895,1.341-0.447
			c0.299,0.299,0.447,0.447,0.746,0.746c-0.299,0.893,0.297,1.49,0.745,1.936c-0.448,1.939,0,3.877-0.298,6.262
			c7.303,0.744,12.221-1.342,18.182-1.641c2.535-1.191,6.409-1.49,9.539-2.385c2.832-0.895,6.26-0.895,8.943-2.533
			c2.234,0.297,4.768-0.447,6.557-2.684c3.875,0.15,6.855-2.682,11.326-3.576c0-1.191,0-0.746,0-0.746
			c0.746-0.297,2.236-1.936,4.025-1.34C1189.53,1235.795,1189.38,1236.391,1189.083,1236.988z"/>
		<path style="fill:#FF0050;" d="M1139.304,1197.344c5.812,0.447,11.774,1.789,18.033,2.535c7.602,0.895,15.5,1.787,22.654,5.365
			c3.727,3.725,8.346,5.664,11.328,10.582c0.445,2.682,2.383,2.234,1.488,5.514c0.148,0.447-0.297,0-0.297-0.596
			c-3.428,0.148-1.789-0.746-4.322-4.174c-3.875,1.191-6.707-0.596-9.539,0.596c-11.924-0.744-22.207,0-33.832,1.193
			c-2.831,1.342-6.408,1.342-9.688,0.893c-2.086-0.744-4.322,0.746-6.855,0.299c-7.75-0.447-16.395-0.447-23.996,0.598
			c-5.663-0.299-11.177,0-16.99,0.596c-2.235-0.447-4.77-1.193-7.899-0.299c-0.895,2.086-1.937,1.641-1.192,3.428
			c-0.298,0.299-0.596,0.746-1.043,1.045c-0.447-0.15-0.895,0-1.341-0.447c0.596-4.322,3.428-6.709,6.11-9.986
			c5.217-4.77,11.924-7.006,17.587-11.625c3.726-2.385,7.601-2.684,11.625-4.322c5.067-0.746,10.729-0.447,15.649-1.49
			C1130.956,1198.09,1134.981,1197.791,1139.304,1197.344z M1115.755,1201.07c-5.812-0.297-9.837,2.385-15.351,4.025
			c-0.298,0.297-1.64,1.639-2.385,2.086c-4.173,2.98-9.092,4.322-13.563,10.283c5.366-0.447,8.048,1.49,10.582,0.447
			c3.727,0.447,7.005-1.49,10.73-1.641c5.366,1.641,11.178,0.299,16.693,1.045c5.067,0.596,10.582-0.596,15.798-0.895
			c9.24-3.578,19.972-1.043,29.511-2.088c4.619,0,9.984-0.744,17.287,0.15c-2.83-5.963-7.898-7.006-11.326-8.943
			c-8.793-2.385-17.586-3.875-26.678-4.768c-1.789-0.299-4.024,0.445-5.664-0.598
			C1133.192,1200.623,1123.355,1197.791,1115.755,1201.07z"/>
		<path style="fill:#FF0050;" d="M1086.841,1173.35c2.236,0.299,3.726,2.533,6.261,2.533c4.769,2.385,9.239,3.578,15.052,3.875
			c0.895,0.447,2.385,0.596,3.428,0.895c3.279,0.299,6.261,1.789,9.391,1.789c1.937,0.596,4.619-0.447,6.408,1.938
			c2.385-0.596,4.174-1.191,5.664-1.938c0.596-1.191,2.234-2.684,2.086-4.322c1.044-1.639,0.148-2.98,0.895-5.068
			c0.895-2.832,0.895-4.471,2.385-7.451c0.746-0.596,1.49-1.191,2.385-1.043c0.596,1.49,0,3.279,0,5.066
			c-1.938,3.875-1.639,5.963-2.98,11.029c1.191,0.746,0.746,1.342,1.191,1.641c3.727,0.596,7.75,0.148,10.881-0.596
			c1.938,0.297,3.576-0.447,6.557-0.447c0.596-1.789,1.938-0.449,2.832-0.896c5.366-0.445,10.135-3.426,15.648-3.725
			c2.387-2.088,6.408-1.789,8.795-3.578c2.83,0.299,4.322-3.428,7.898-2.533c1.789-1.34,3.428-2.98,5.664-2.98
			c0.596,0.447,1.191,0.895,1.787,1.49c-0.297,2.236-2.83,2.385-4.471,3.578c-2.533,0.297-4.918,0.893-6.707,2.533
			c-3.279-0.148-5.217,2.682-8.346,2.533c-1.193,0.746-2.385,0.895-3.279,1.49c-1.191-0.148-2.236,0.299-3.129,0.746
			c-6.856,0-12.222,4.471-19.078,4.023c-0.893,0.596-2.533,0.596-3.428,0.746c-7.303,2.533-15.797,2.086-23.25,1.938
			c-3.428-0.896-7.602,0-10.582-1.492c-9.24-1.639-18.183-5.365-26.976-7.748c-4.174-1.641-8.048-4.174-11.924-6.262
			c-4.322-2.385-9.39-4.023-12.52-8.346c0-0.297,0-0.746,0.299-0.895C1072.384,1166.195,1079.389,1170.07,1086.841,1173.35z"/>
		<path style="fill:#FF0050;" d="M1188.337,1104.494c0.447,0.148,0.746,0.299,1.043,0.598c-1.34,3.428-5.365,1.49-8.494,2.383
			c-2.684,0.447-5.217,0-7.898,0.15c-7.304,0.148-14.607-0.15-21.611,0c-3.727,0-8.645,0.297-12.52-0.15
			c-2.533-0.297-5.664,0-8.197,0.15c-6.111,0.596-11.923,0-18.333,0.447c-0.297-0.299-0.596-0.299-0.894-0.299
			c-2.683,1.342-5.664,0.148-8.197,0.596c-6.111,0.299-11.923,0.895-17.885,0.895c-4.173-1.789-8.495,0.895-12.816-0.148
			c-0.598-0.15,0.893-1.789,1.34-1.789c6.559-4.471,14.159,1.789,21.462-0.299c8.645-2.385,18.332-1.49,26.828-1.936
			c8.495-0.449,16.543,0.297,25.188,0c2.384-0.299,4.769-0.299,7.304-0.299c0.596,0,1.341,0.148,1.937,0.148
			c6.558-0.148,13.116-0.148,18.927-1.043C1179.991,1105.092,1183.718,1104.346,1188.337,1104.494z"/>
		<path style="fill:#FF0050;" d="M1181.481,1057.25c-1.789,1.342-4.172,2.236-5.963,3.727c-7.301,2.086-15.201,4.023-23.1,4.023
			c-5.664,0.895-11.477,2.086-16.99,3.428c-2.98-0.297-6.409-0.893-9.838-0.148c-0.446,1.191-0.446,1.641-2.235,2.086
			c1.64,4.322,5.067,7.303,6.707,10.434c0.894,0.447,1.789,1.641,1.491,2.682c-0.598,1.789,0.298,1.789,1.341,2.832
			c1.341,0,2.534,0.15,3.726,0.746c3.131-1.043,5.516-1.043,8.049-0.148c2.831,1.639,5.217,0.447,8.346,0
			c5.961-0.895,11.626-2.236,17.736-2.535c4.768-0.148,9.537-0.148,14.605-0.148c0.447,0.148,0.895,0.299,0.744,0.746
			c0,0.445-0.596,0.895-1.043,1.043c-7.451,0.447-14.605,0.744-21.162,2.832c-4.92-0.15-8.943,1.342-13.562,0.895
			c-11.029-1.045-22.655,0-33.087,1.34c-4.621-1.043-8.198,0.895-12.67,0.596c-11.624-0.893-23.697-0.893-33.98-4.32
			c-1.491-0.447-0.745-1.641-1.491-2.684c0.15-0.447,0.896,0,1.193-0.148c3.576,0.744,6.706,2.385,10.284,2.234
			c0.148,0.15,0.148,0.15,0.297,0.299c6.111-0.299,11.774,1.639,17.141,1.34c4.023,2.236,8.495-0.596,12.816,0.15
			c5.515,0.895,10.136-1.043,15.501-1.789c0.745-0.596,1.788-1.191,2.831-2.385c-1.788-4.77-7.304-7.75-7.899-11.625
			c0.745,0-1.043-1.191-0.297-3.576c-4.621-1.342-8.347,0.447-11.774-1.193c-2.832-0.744-5.664,0.746-8.645-0.895
			c-4.024,1.939-7.601,0.15-11.476,0.449c-2.236-1.939-3.131,1.936-5.812,0.148c-2.534,0.744-5.962,1.191-8.049,0
			c0.149-0.598,0.149-1.043,0-1.639c2.236-1.342,5.366,0.445,7.602-1.342c3.278-0.299,5.663,1.49,8.941,0.893
			c9.539-1.787,20.121,0.299,29.809-0.297c6.707-0.299,14.01,0.746,20.419-1.49c10.134-1.639,20.716-2.98,30.255-4.918
			c2.385-1.49,5.217-3.131,8.197-2.982C1180.886,1056.355,1181.331,1056.654,1181.481,1057.25z"/>
		<path style="fill:#FF0050;" d="M1189.083,1009.26c-5.812,4.172-5.365,1.49-8.197,3.129c-2.088,1.043-4.025,0.447-5.963,1.193
			c-3.129,1.043-3.129,1.342-5.514,2.533c-1.342,0.895-2.385,1.639-3.875,2.236c-2.98,1.342,0,3.277-7.451,3.129
			c-0.746,0.148-3.877,5.066-4.918,2.98c-3.727,0.447-1.491,0.746-4.473,1.938c-0.148,0.299-0.297-0.447-0.596-0.447
			c-1.49,0.596-1.789-0.297-2.385,1.193c-0.298,0.596,0.447,1.342-1.193,0.447c-1.639,0.744-3.129,1.342-3.129,1.49
			c-0.447,0.447-1.34,0.299-1.34,0.299c-1.045,0-2.386,1.49-3.578,2.682c-2.684,0.744-4.471,4.025-5.961,6.855
			c4.918,1.043,8.346,0.299,11.773,1.49c1.342,0.299,2.684-1.49,4.173,0c2.087-0.596,3.278-0.297,4.77-0.447
			c2.534,1.045,3.726-0.148,6.856,0.299c4.321-1.193,4.172-1.342,8.793-1.342c6.26,1.193,9.389,0.148,15.648,0.746
			c1.193-0.598,3.727,0.148,4.918,0.895c2.535-0.895,6.857-0.746,7.154-0.598c0.447,0.15,1.193,0.895,1.789,1.193
			c0.148,0.297,0.148,0.447-0.148,0.596c-3.578,1.342-4.621,0.148-8.049,1.043c-2.385-0.447-5.812,0-8.348-0.447
			c-4.619,0.299-5.812-1.34-11.027-0.148c-11.775,0-17.289,0-27.572,0c-0.745-0.15-1.49,0.299-2.236,0.148
			c-1.191-0.299-2.682,0.895-3.875-0.299c-5.812,0.896-12.37-0.596-16.245,0.449c-1.192,0.596-2.683,0.596-3.875,0.744
			c-3.577-1.639-8.793,0.15-12.222-0.744c-1.788,0.447-4.173,1.191-6.26,0.895c-3.278,0.596-6.11,0.445-9.092,1.191
			c-1.788-0.596-4.172,0.447-5.812,0c-2.981,0.746-6.26-0.299-9.39,0c-0.149-0.299-0.299-0.596-0.447-1.043
			c2.683-5.068,6.706-7.006,10.73-11.477c6.559-4.77,17.736-7.451,26.082-2.832c1.49-1.043,1.64,0.746,2.534,0.746
			c2.98,1.787,4.322,3.279,7.452,3.875c2.533,1.342,3.427,2.832,6.558,4.619c2.385-2.533,4.769-3.576,6.26-5.812
			c2.683-2.533,6.11-3.725,8.942-6.557c6.855-2.982,1.192,1.043,9.389-2.684c8.197-2.385,5.068-2.533,8.348-3.725
			c2.533-0.896,5.365-1.492,6.408-2.236c0.895-0.746,1.64-0.895,2.533-1.641c6.111-3.725,0.746-2.83,8.197-4.172
			c1.342-0.299,7.602-1.789,8.197-2.236c1.043-0.744,0.744-0.447,3.279-1.49C1187.593,1007.619,1190.274,1008.664,1189.083,1009.26z
			 M1076.408,1042.047c6.706,1.344,11.327,0.746,16.544-0.148c6.259-1.787,14.755-1.043,21.312-1.49c1.49-0.744,4.322,0,5.067-2.832
			c-2.684-0.447-3.875-2.086-5.365-2.832c-0.15,0-0.447-0.148-0.597,0c-4.173-2.086-8.197-4.023-12.817-4.918
			C1091.462,1028.037,1082.519,1033.852,1076.408,1042.047z"/>
		<path style="fill:#FF0050;" d="M1189.083,980.346c-1.49,3.279-5.068,3.578-7.602,5.367c-3.428,1.787-7.154,3.576-11.029,4.023
			c-1.043,0.596-2.533,0.746-3.727,0.895c-9.984,1.787-19.672,5.812-30.105,6.109c-7.154,1.49-15.053,0.746-22.804,0.598
			c-6.408,0-14.605-1.789-21.014-4.621c-3.13-0.744-6.558-1.938-8.793-3.875c-3.279-0.895-5.813-3.279-8.645-5.066
			c-0.596-1.045-1.341-2.088-1.341-3.131c0-0.15-0.15-0.299-0.15-0.299c2.981,0.746,5.813,2.98,8.794,4.77
			c2.385,1.342,3.727,3.131,6.26,3.727c4.322,0.895,7.75,3.875,12.222,3.576c8.196,2.086,17.139,1.938,26.976,1.342
			c-1.49-3.428,1.043-4.77-0.148-6.855c0.148-0.895,0.298-1.49,0.596-2.088c0.447-0.445,0.745-0.893,1.341-0.445
			c0.299,0.297,0.447,0.445,0.746,0.744c-0.299,0.895,0.297,1.49,0.745,1.938c-0.448,1.938,0,3.875-0.298,6.26
			c7.303,0.746,12.221-1.34,18.182-1.639c2.535-1.191,6.409-1.49,9.539-2.385c2.832-0.895,6.26-0.895,8.943-2.533
			c2.234,0.297,4.768-0.447,6.557-2.684c3.875,0.148,6.855-2.682,11.326-3.578c0-1.191,0-0.744,0-0.744
			c0.746-0.297,2.236-1.938,4.025-1.342C1189.53,979.154,1189.38,979.75,1189.083,980.346z"/>
		<path style="fill:#FF0050;" d="M1174.028,947.113c-5.363,3.873-12.221,3.277-17.139,7.451c-1.938,0.596-4.023,1.639-5.663,2.682
			c-4.62-0.148-9.39,2.832-15.649,5.664c4.023,1.639,7.005,1.191,9.092,0.596c8.793,0,16.543-1.49,25.783-0.148
			c2.535,0,5.664-0.746,7.898,0.299c4.322,0.148,9.391-1.045,13.117,1.043c0.148,0.148,0.148,0.148,0.297,0.297
			c-3.129,0.895-7.154,0.598-10.283,0.449c-2.684-0.746-5.514,0.297-8.494,0.297c-5.812,0.148-11.924-1.938-17.141,0.596
			c-4.769,0.598-9.24-1.639-13.86,0c-4.173,1.342-8.347-0.744-12.222,1.193c-7.154-1.193-16.395,0.148-24.145-1.193
			c-8.794,0-17.735,0.598-26.38-0.893c-4.77-0.15-6.706-1.045-11.178-1.939c-0.149,0,0.745-1.043,0.745-1.34
			c4.769-2.832,6.408-3.727,11.476-5.664c7.005-2.832,14.457-2.236,21.462-4.174c9.836,0.148,19.523,1.49,26.678,10.881
			c13.116-7.9,27.125-8.793,39.795-15.65c5.662-1.789,10.879-4.619,16.543-6.408c0.893,0,2.385-0.596,3.428-0.299
			C1183.567,943.535,1178.798,945.621,1174.028,947.113z M1090.12,956.949c-1.938,0.596-4.322-0.15-6.11,1.043
			c-2.385-0.299-4.621,1.043-6.558,1.787l-3.578,2.535c1.342,0.148,6.559,0.596,8.049,0.895c1.938,1.938,5.365,1.043,7.75,1.639
			c11.029-1.49,23.399,0.299,36.664-0.299c-1.938-2.383-3.875-2.98-4.919-4.023c-2.086-2.086-7.898-4.322-11.774-5.961
			C1102.938,955.457,1095.783,953.967,1090.12,956.949z"/>
		<path style="fill:#FF0050;" d="M1192.511,850.533c0.148,0.447,0.148,1.043,0,1.49c-0.895,0.447-1.49,0.596-2.684,0.895
			c-0.744,0.15-1.49,0.15-2.234,0.15c-2.684,0.596-4.322,0.893-7.154,1.787c-0.598,0.299-0.895,0.596-1.49,0.895
			c-0.746,0-1.043-0.15-1.789-0.15c-3.131-0.148-7.303,1.045-8.049,0.746c-7.451,1.342-6.408,1.938-14.904,2.385
			c-6.109,0.297-10.58,0.895-16.244,1.49c0,2.98-1.938,5.812-2.385,8.496c-0.148,1.49-0.299,2.234-0.596,3.725
			c-0.598,1.938-1.789,2.832-1.491,4.918c0,4.174,0.298,1.342-2.086,5.516c-0.298,0.447-0.448,1.043-2.087,3.279
			c3.577-0.299,4.77-0.596,6.408-0.895c2.236,1.49,6.261,0.148,9.838,0.299c9.389,0.447,18.332-0.896,26.826-0.447
			c7.898,0.297,15.65-1.193,22.654-0.449c0.148,0.449,0.148,1.045,0.148,1.641c-0.596,3.576-4.77,0.895-6.408,1.641
			c-7.453,0.596-14.307,0.596-22.653,0.596c-10.135,0.297-20.27-0.596-30.554,0.148c-7.005,0.596-13.115-0.447-19.524,0.744
			c-10.88-1.787-21.908,3.578-32.64,1.045c-2.683-0.148-5.365,0.895-8.048,0.148c-1.341-0.746-6.11-0.297-3.577-2.385
			c8.346-0.895,16.99,0.148,25.485-0.148c12.521-0.596,4.919-1.193,8.198-1.49c4.322-0.447,6.854-0.299,11.326-0.299
			c4.024,0,6.26,0.447,10.582,0c0.895-2.086,1.49-3.279,2.385-5.066c1.938-3.727,0.596,1.49,1.491-5.516
			c0.298-2.234,0.446-2.832,0.446-5.066c0-1.938,0.895-2.832,1.342-4.77c0.446-1.342,0.298-2.832,0.596-5.367
			c-1.938,0-2.533,0.15-3.428,0.15c-3.13-0.895-7.452,2.236-10.284-0.447c-3.577-0.299-5.515-0.596-8.495,0.596
			c-2.087-0.148-4.322-0.447-7.005-0.744c-0.596-0.299-1.49,0.445-2.087,0.445c-2.385,1.344-3.875-2.531-6.11-0.744
			c-1.043,0-2.086,1.043-3.129-0.447c-4.919,1.342-8.794,0.895-12.968-1.789c-1.342,0.598-1.938-0.297-2.533-1.043
			c-0.148-0.148-0.298-0.447-0.148-0.744c0.446-1.193,1.191,0.596,1.49,0.447c0,0,0.894,0.744,1.788-0.15
			c0.895-0.744,1.64,1.193,2.534,0.746c5.663,1.342,11.773,1.342,17.586,0.596c5.664,1.342,14.01,0,19.375,1.342
			c1.342-0.148,2.534-1.193,4.62,0c1.789-1.938,4.024-0.447,5.366-1.342c6.855-0.148,13.861-0.744,20.717-0.895
			c6.707,0,4.471-1.043,9.538-1.787c1.043,0.297,2.683-0.447,3.429,0.148c1.937-0.299,3.725-0.299,5.662-0.596
			c4.025-0.596,9.539-0.895,13.115-1.789c0.598,0.299,1.342-0.148,2.385-1.342c-0.596-1.34,1.043-0.596,1.043-0.895
			C1187.741,849.639,1189.978,851.129,1192.511,850.533z"/>
		<path style="fill:#FF0050;" d="M1182.823,803.588c1.191,0.596,2.383,0,3.725,0.298c1.045,0,1.789,0.298,2.684,0.894
			c0.148,0.746-0.744,1.342-1.191,2.088c-1.043,1.341-2.236-0.746-2.535-0.746c-0.299-0.596-1.787,0.746-3.277-1.49
			c-2.982,0.895-5.664,0.895-7.75,0.298c-4.174,0.448-8.794-0.745-12.818,0.894c-1.64,0.15-2.533,2.088-3.279,2.981
			c-0.148,0-0.744,1.788-2.086,2.386c-1.938,1.788-4.77,4.619-5.664,5.365c-0.744,0.745,0-0.895-1.342,0.596
			c-0.744,0.596-0.445,0.895-1.49,2.533c-1.341,1.64-4.023,4.471-4.62,5.217c-0.894,1.789-1.788,3.875-2.831,6.26
			c3.131,2.086,6.26,1.49,8.346,2.832c2.684,0.148,5.963,0.744,8.794,1.49c1.64-1.342,2.831,0.299,4.023,0.299
			c1.64,0.893,4.174,0.744,6.11,1.639c3.727,0.596,7.006,2.832,11.178,2.086c1.49,0.299,3.279,0.895,4.77,1.342
			c-0.148,0.297-0.297,0.596-0.596,0.596c-2.533,0.447-4.77-0.895-7.004-0.744c-0.598-0.447-1.045-0.598-1.641-0.447
			c-1.191-0.15-2.385-0.447-3.428-0.447c-2.385-0.746-4.023,0.596-7.898-1.938c0,2.234,0.299,0.895,0.299,0.895
			c-2.236-0.598-5.367-1.49-8.348-1.342c-1.787-1.193-4.023-0.746-5.812-1.193c-4.172-0.445-7.004-2.086-11.029-1.787
			c0,0-0.148-0.15-0.297-0.15c-1.193-0.744-2.535-0.297-3.279-1.043c-9.092-2.533-18.332-5.066-27.424-7.602
			c-2.086-1.043-3.875-1.49-6.11-2.383c-2.98-1.044-5.812-2.832-8.942-4.025c-3.13-1.191-6.111-3.129-9.688-4.172
			c-0.896-0.448-2.386,0.297-2.386-1.193c0-0.447-0.446-1.49-0.148-1.639c1.043-1.641,4.024-1.641,5.515-2.385
			c3.577-0.299,8.645-1.044,12.966-1.938c1.64-1.938,4.174-0.447,6.111-1.193c7.303,0.299,14.904-3.428,23.25-2.385
			c10.582-1.639,22.356-2.533,32.342-1.639C1167.62,803.289,1175.222,802.545,1182.823,803.588z M1137.664,806.121
			c-1.938-0.744-4.919,1.044-7.899,0.447c-3.578-0.596-7.452,0.597-11.028,1.193c-3.429-0.597-6.111,1.489-9.539,1.191
			c-2.235,0.298-5.962,0.298-8.942,0.895c-4.919,0.895-9.39,2.235-15.054,2.682c2.235,2.535,6.261,4.322,6.856,4.472
			c3.13,1.044,5.663,2.831,8.495,3.726c4.323,1.491,8.048,2.981,12.072,4.174c2.832,0.744,6.558,1.639,9.092,2.086
			c2.831-0.148,6.855,2.385,10.731,2.982c2.234,0.297,1.191,1.34,4.321,0.445c1.192-2.83,2.981-4.77,4.024-7.303
			c1.342-1.788,2.086-1.938,4.023-4.023c1.342-1.342,2.683-3.428,4.174-5.365c1.342-1.49,3.129-3.131,4.023-4.174
			c0-0.298,1.789-2.235,1.789-3.428c-2.087-0.447-4.471-0.447-5.812-0.596C1144.968,804.929,1141.837,805.525,1137.664,806.121z"/>
		<path style="fill:#FF0050;" d="M1091.014,758.727c1.64,0,4.024-0.149,5.812-0.298c4.323-2.683,11.029,0,16.098,0.596
			c3.129-1.789,8.345-0.746,11.624-1.044c4.77-1.192,11.029,0.298,16.544,0.298c9.688,0,20.866-0.298,30.552-0.745
			c1.492-0.149,2.982-1.043,4.324-0.448c0.148,0.149,0.297-0.148,0.445-0.148c-3.426,2.236-7.6,2.384-11.027,3.875
			c-4.919,4.322-10.582,6.557-15.799,9.836c-6.26,2.831-12.668,4.918-18.331,9.24c-1.79,0.895-3.429,1.938-5.218,2.831l-4.321,2.088
			l4.918,0.298c11.625,0.745,22.505-2.087,34.429-0.447c4.769,0,9.24-1.938,13.859-1.043c1.193-0.149,2.684,0,3.727,0
			c-0.148,0.298,0,0.894-0.148,1.043c-1.191,0-2.236,0.298-3.279,1.043c-1.193,0.597-2.684,0.597-4.023,0.894
			c-4.023,0.449-8.049-0.148-12.072,0.746c-10.881,0.299-21.462-1.043-32.044,0.148c-4.918-0.895-9.836,1.641-14.605,0.299
			c-3.131,0.746-7.154-0.895-9.539,0.895c-7.154-0.746-14.159-1.938-21.61-1.938c-1.64-0.597-4.174,0-4.919-1.789
			c-0.149-0.148,0.895-1.639,0.895-0.894c8.048-2.087,14.903,2.683,24.144,1.639c4.771-0.596,9.688,0,14.756-1.49
			c1.49-2.087,3.726-1.937,5.365-3.278c2.98-0.447,5.962-1.193,7.898-3.279c7.602-3.727,15.352-5.067,21.463-10.582
			c1.788-0.745,3.576-1.64,5.514-3.279c0-0.447,4.322-2.385,4.322-2.832c-0.148-0.298-4.619,0.745-4.619,0.149
			c-5.812,0-11.178-1.043-15.799,0.596c-8.346-2.086-16.991-2.235-25.934-0.298c-6.409-0.745-12.967-1.639-19.226-0.447
			c-5.217-2.235-11.029,2.385-15.799-1.788c-0.446-1.342-2.832-0.895-2.683-2.534
			C1081.774,755.746,1086.096,758.577,1091.014,758.727z"/>
		<path style="fill:#FF0050;" d="M1139.304,718.188c5.812,0.448,11.774,1.789,18.033,2.534c7.602,0.894,15.5,1.788,22.654,5.365
			c3.727,3.726,8.346,5.664,11.328,10.582c0.445,2.683,2.383,2.236,1.488,5.515c0.148,0.446-0.297,0-0.297-0.597
			c-3.428,0.149-1.789-0.745-4.322-4.172c-3.875,1.192-6.707-0.597-9.539,0.596c-11.924-0.745-22.207,0-33.832,1.193
			c-2.831,1.341-6.408,1.341-9.688,0.894c-2.086-0.745-4.322,0.745-6.855,0.299c-7.75-0.447-16.395-0.447-23.996,0.596
			c-5.663-0.298-11.177,0-16.99,0.596c-2.235-0.447-4.77-1.191-7.899-0.297c-0.895,2.087-1.937,1.639-1.192,3.428
			c-0.298,0.298-0.596,0.745-1.043,1.043c-0.447-0.149-0.895,0-1.341-0.447c0.596-4.322,3.428-6.707,6.11-9.986
			c5.217-4.77,11.924-7.005,17.587-11.625c3.726-2.385,7.601-2.684,11.625-4.322c5.067-0.745,10.729-0.448,15.649-1.491
			C1130.956,718.933,1134.981,718.636,1139.304,718.188z M1115.755,721.914c-5.812-0.298-9.837,2.385-15.351,4.024
			c-0.298,0.298-1.64,1.639-2.385,2.087c-4.173,2.981-9.092,4.322-13.563,10.284c5.366-0.448,8.048,1.49,10.582,0.447
			c3.727,0.447,7.005-1.491,10.73-1.64c5.366,1.64,11.178,0.299,16.693,1.043c5.067,0.597,10.582-0.596,15.798-0.894
			c9.24-3.577,19.972-1.043,29.511-2.087c4.619,0,9.984-0.745,17.287,0.149c-2.83-5.962-7.898-7.005-11.326-8.942
			c-8.793-2.385-17.586-3.875-26.678-4.769c-1.789-0.298-4.024,0.447-5.664-0.597
			C1133.192,721.467,1123.355,718.636,1115.755,721.914z"/>
		<path style="fill:#FF0050;" d="M1180.735,685.102c-0.447,3.13,0.15,5.812,1.193,8.346c-0.148,0.746-0.746,1.49-1.193,1.64
			c-1.938,2.832,1.789,7.899-3.129,9.39c-1.639,0.447-3.428-0.299-4.77,0.894c-5.217,1.937-6.855,0.447-11.923,0.895
			c-4.472,0.298-9.836-1.938-14.159,0c-2.385,0-4.322-0.895-6.408-1.192c-5.664,2.086-12.072-1.043-18.034,0.447
			c-4.322,0.298-7.75-1.491-12.072,0.446c-0.895,0.149-1.64,0.149-2.385,0.447c-8.793,0-17.885-0.894-26.528,0.149
			c-4.323,0-8.496-0.149-12.371-2.236c-0.745-0.596,0.148-1.49,0.895-1.788c1.043,0,2.533-0.298,4.174,1.043
			c3.129-1.341,5.96,0.149,8.644-0.447c2.235,0.596,4.769,0.745,7.154,0.149c5.066-2.981,10.433,0.446,15.649,0.297
			c5.066-0.149,10.134-2.087,15.351-1.49c5.364,0.745,11.626,1.193,17.14,0.596c1.789-0.596,3.875,0.298,5.516-0.298
			c1.639,0.298,3.874,0.149,5.365,1.192c2.086-0.297,4.619-0.746,6.705-1.341c1.193,0.596,2.982,0.447,4.025,0.745
			c5.663,0.447,6.855,1.192,12.07-0.596c3.43,1.192,2.088-2.385,5.068-3.13c1.938-0.745,0.895-1.64,0.895-2.683
			c-0.447-2.384,1.938-4.173,0.895-6.26c-0.746-1.938-0.15-4.472-1.641-6.558c-0.148-0.596-0.148-1.341,0.598-1.341
			C1179.396,681.973,1179.692,683.91,1180.735,685.102z"/>
		<path style="fill:#FF0050;" d="M1110.688,631.151c4.173,0.745,7.601,1.49,12.072,0.893c7.751,3.279,16.692-1.341,23.995,4.025
			c4.024,0.894,9.092,1.042,12.818,2.98c6.259,2.086,12.816,2.981,18.182,7.303c2.236,2.98,3.875,5.663,5.516,8.793
			c-0.299,2.98-0.148,6.408-2.832,7.749c-5.664,2.236-11.625,3.28-17.139,6.111c-11.924,0.299-22.953,4.621-34.132,2.683
			c-5.364,1.193-10.581-0.148-15.947,0.746c-9.24-0.596-17.736-4.322-26.678-5.961c-1.938-1.639-9.539-2.981-3.429-5.366
			c4.025-0.745,6.559,2.236,10.136,3.129c2.086,0.448,4.023,2.833,6.408,2.833c9.092,1.639,16.99,3.278,26.828,2.086
			c8.495,2.087,17.735,0,26.23-1.789c8.048-0.596,15.351-2.832,22.802-4.918c3.578-1.64,2.236-4.621,3.877-8.496
			c-1.938-1.341-1.342-4.173-2.684-5.365c-2.385-2.684-7.154-4.025-10.135-5.812c-4.918-0.745-9.836,0-13.412-2.831
			c-4.025-0.746-8.646,0.297-11.775-2.833c-13.413-2.236-26.977-1.192-39.495-4.322c-7.303-0.746-13.414-1.043-19.376-4.769
			c0.299-0.895,1.789-0.448,2.385-0.745C1094.145,626.679,1101.597,631.896,1110.688,631.151z"/>
		<path style="fill:#FF0050;" d="M1193.255,570.044c-11.773,5.216-21.908,12.073-32.191,18.928
			c-0.895,0.447-1.192,1.639-3.131,1.639c-4.768,4.77-10.73,5.217-15.053,9.539c-3.875,1.938-8.197,4.173-12.668,7.601
			c0.596,0.447,1.64,0.894,2.086,1.192c3.131,1.491,6.262,0.298,9.092,0.448c8.943,0.297,17.141-1.193,25.039-1.342
			c7.6,0,14.605-1.788,21.312-1.043c0.148,0.299,0.148,0.746,0.148,1.341c-0.447,3.428-4.322,1.044-5.961,1.64
			c-7.154,0.895-13.414,1.043-21.164,1.341c-9.538,0.596-18.928,0.149-28.467,1.192c-6.408,0.596-12.221,0-18.331,1.342
			c-10.135-1.193-20.419,4.023-30.554,1.937c-2.385,0-4.77,1.192-7.303,0.596c-1.044-0.745-5.812,0.149-3.429-2.086
			c7.751-1.192,15.799,0,23.698-1.044c11.923-0.446,24.592-1.192,33.385-8.793c1.491-0.447,2.684-1.49,3.726-2.236
			c3.726-2.235,7.751-3.875,10.88-7.153c3.13-1.043,5.963-2.832,8.496-4.621c4.471-4.47,10.434-6.11,15.352-9.539
			c0-0.596,0.447-0.446,0.744-0.596c1.342-0.596,2.385-1.788,4.025-2.98c0-0.596,4.322-1.491,4.172-1.938
			c-0.148-0.447-5.066-0.298-5.516-0.596c-6.854,1.491-15.35,2.086-23.248,2.832c-8.496,0.746-14.16,2.385-22.209,2.533
			c-2.831-0.596-6.854,2.236-9.687-0.148c-3.13,0-4.919-0.149-7.452,0.746c-2.235,0-4.472-0.298-7.153-0.298
			c-0.597-0.149-1.192,0.446-1.788,0.446c-2.535,1.64-3.876-2.235-5.813-0.446c-0.895,0.298-1.789,1.044-2.683-0.299
			c-4.77,1.343-8.496,0.597-12.519-1.639c-1.343,0.596-1.789-0.149-2.386-0.596c0-0.149,0-0.298,0-0.447
			c0.447-1.043,1.342,0.447,1.342,0.298c0,0,0.895,0.745,1.788-0.149c0.597-0.894,1.938,1.043,2.236,0.596
			c5.067,1.192,11.029,0.895,16.692,0.149c5.216,0.894,13.115-0.596,18.033,0.447c1.044-0.149,2.385-1.043,4.174-0.447
			c1.639-1.491,3.874-0.149,5.066-1.043c6.26-0.447,12.967-1.491,19.376-1.491c6.11-0.596,12.817-1.192,17.735-1.938
			c1.044,0.299,2.236-0.596,3.279,0.149c2.533-0.596,3.576-0.596,5.514-0.895c3.875-0.745,8.793-1.341,12.221-2.086
			c0.598,0,1.342-0.447,2.236-1.49c-0.746-1.341,0.895-0.745,1.043-0.745c1.342-0.596,3.578,0.596,5.812-0.149
			C1193.255,569.15,1193.405,569.597,1193.255,570.044z"/>
		<path style="fill:#FF0050;" d="M1191.616,533.233c1.938,0.746,3.279-0.298,4.77,0c-0.447,1.043-1.193,1.938-1.193,3.129
			c-0.596,1.64-2.682,1.938-3.873,3.13c-1.193,0.299-1.342,1.938-2.684,2.832c-3.131,1.938-5.963,4.024-9.092,6.26
			c-6.111,1.491-11.625,5.664-18.779,6.409c-5.514,2.534-12.668,2.385-18.778,2.534c-3.727,2.98-9.688,0.297-14.159,1.938
			c-2.236,0.297-3.577-0.596-5.365-0.596c-6.111,1.639-11.626-0.746-17.289-1.64c-4.023-1.789-8.347-2.236-12.221-4.322
			c-1.193-0.895-2.981-0.596-4.174-1.044c-4.769-3.129-10.284-5.067-14.605-8.495c-2.087-0.447-2.683-2.98-4.77-3.427
			c-0.745-1.044-2.235-1.938-1.341-4.174c-1.342-1.043-2.534-3.13,0-2.683c0.596-0.448,0.894-0.149,0.148,0.447
			c4.919,5.961,12.967,11.477,20.866,15.649c2.98,0,5.961,1.64,7.749,3.13c6.111,1.639,11.774,3.874,18.034,3.874
			c2.235,0,4.472,0.447,6.408-0.148c3.876,0.447,7.453,1.491,11.477,0.447c3.875-0.298,7.751-0.745,11.477-1.49
			c11.924-2.385,24.889-2.981,34.727-9.539c3.576-2.384,6.109-4.471,9.24-8.048c-0.447-0.745,1.938-0.596,1.49-1.639
			c-9.24,0.447-20.717,0.745-29.062,1.341c-3.727,1.64-8.049-0.298-12.072,0.298c-3.576,0.447-7.303-0.447-11.029-0.298
			c-1.789,0-3.428-0.298-5.066,0.298c-2.684-0.447-6.111,0.298-8.348-1.192c-1.043-0.894,1.342-0.745,1.64-1.342
			c2.385-0.894,4.771-1.192,7.452-0.148c2.086,0.297,4.174-1.043,6.111-1.043c5.514,0,10.283,1.491,14.01,1.043
			c0-0.448,1.788,0,3.278,0c1.044-0.298,2.087-0.298,2.683-0.149c3.279,0,5.366-0.596,8.346-0.149
			c5.367-1.341,12.072,0,16.395-1.192c1.342-0.298,1.191-0.149,2.533-0.298C1188.784,532.935,1189.827,532.189,1191.616,533.233z"/>
		<path style="fill:#FF0050;" d="M1189.083,503.723c-1.49,3.279-5.068,3.578-7.602,5.366c-3.428,1.789-7.154,3.577-11.029,4.024
			c-1.043,0.597-2.533,0.746-3.727,0.894c-9.984,1.789-19.672,5.813-30.105,6.111c-7.154,1.491-15.053,0.746-22.804,0.596
			c-6.408,0-14.605-1.788-21.014-4.62c-3.13-0.745-6.558-1.938-8.793-3.875c-3.279-0.895-5.813-3.279-8.645-5.067
			c-0.596-1.044-1.341-2.087-1.341-3.131c0-0.149-0.15-0.298-0.15-0.298c2.981,0.746,5.813,2.98,8.794,4.77
			c2.385,1.341,3.727,3.13,6.26,3.726c4.322,0.894,7.75,3.875,12.222,3.577c8.196,2.086,17.139,1.938,26.976,1.342
			c-1.49-3.428,1.043-4.769-0.148-6.855c0.148-0.895,0.298-1.491,0.596-2.087c0.447-0.447,0.745-0.894,1.341-0.447
			c0.299,0.298,0.447,0.447,0.746,0.745c-0.299,0.895,0.297,1.49,0.745,1.938c-0.448,1.938,0,3.875-0.298,6.26
			c7.303,0.745,12.221-1.341,18.182-1.64c2.535-1.192,6.409-1.491,9.539-2.385c2.832-0.894,6.26-0.894,8.943-2.533
			c2.234,0.298,4.768-0.447,6.557-2.683c3.875,0.149,6.855-2.682,11.326-3.577c0-1.191,0-0.745,0-0.745
			c0.746-0.298,2.236-1.938,4.025-1.342C1189.53,502.531,1189.38,503.127,1189.083,503.723z"/>
		<path style="fill:#FF0050;" d="M1091.014,460.503c1.64,0,4.024-0.149,5.812-0.297c4.323-2.684,11.029,0,16.098,0.596
			c3.129-1.789,8.345-0.745,11.624-1.043c4.77-1.192,11.029,0.298,16.544,0.298c9.688,0,20.866-0.298,30.552-0.745
			c1.492-0.149,2.982-1.044,4.324-0.448c0.148,0.149,0.297-0.148,0.445-0.148c-3.426,2.236-7.6,2.385-11.027,3.875
			c-4.919,4.322-10.582,6.558-15.799,9.836c-6.26,2.832-12.668,4.918-18.331,9.24c-1.79,0.895-3.429,1.938-5.218,2.832l-4.321,2.087
			l4.918,0.298c11.625,0.745,22.505-2.086,34.429-0.447c4.769,0,9.24-1.938,13.859-1.043c1.193-0.149,2.684,0,3.727,0
			c-0.148,0.298,0,0.895-0.148,1.043c-1.191,0-2.236,0.298-3.279,1.043c-1.193,0.596-2.684,0.596-4.023,0.894
			c-4.023,0.447-8.049-0.149-12.072,0.745c-10.881,0.298-21.462-1.043-32.044,0.149c-4.918-0.895-9.836,1.64-14.605,0.298
			c-3.131,0.745-7.154-0.895-9.539,0.894c-7.154-0.745-14.159-1.938-21.61-1.938c-1.64-0.596-4.174,0-4.919-1.789
			c-0.149-0.148,0.895-1.639,0.895-0.894c8.048-2.087,14.903,2.682,24.144,1.639c4.771-0.596,9.688,0,14.756-1.491
			c1.49-2.087,3.726-1.938,5.365-3.278c2.98-0.448,5.962-1.192,7.898-3.279c7.602-3.726,15.352-5.067,21.463-10.582
			c1.788-0.746,3.576-1.639,5.514-3.28c0-0.446,4.322-2.384,4.322-2.831c-0.148-0.298-4.619,0.745-4.619,0.149
			c-5.812,0-11.178-1.044-15.799,0.596c-8.346-2.086-16.991-2.235-25.934-0.298c-6.409-0.745-12.967-1.639-19.226-0.447
			c-5.217-2.236-11.029,2.385-15.799-1.788c-0.446-1.342-2.832-0.895-2.683-2.535
			C1081.774,457.522,1086.096,460.354,1091.014,460.503z"/>
	</g>
	<path style="fill:none;stroke:#17192D;stroke-width:3;" d="M2048,0"/>
	<path style="fill:none;stroke:#17192D;stroke-width:3;" d="M2048,1536"/>
	<path style="fill:none;stroke:#17192D;stroke-width:3;" d="M0,1536"/>
	<path style="fill:none;stroke:#17192D;stroke-width:3;" d="M0,0"/>
</g>
<g id="Layer_1">
</g>
</svg>
