<?xml version="1.0" encoding="iso-8859-1"?>
<!-- Generator: Adobe Illustrator 15.1.0, SVG Export Plug-In . SVG Version: 6.00 Build 0)  -->
<!DOCTYPE svg PUBLIC "-//W3C//DTD SVG 1.1//EN" "http://www.w3.org/Graphics/SVG/1.1/DTD/svg11.dtd">
<svg version="1.1" xmlns="http://www.w3.org/2000/svg" xmlns:xlink="http://www.w3.org/1999/xlink" x="0px" y="0px" width="2048px"
	 height="1536px" viewBox="0 0 2048 1536" style="enable-background:new 0 0 2048 1536;" xml:space="preserve">
<g id="bheadb_x5F_2">
	<g>
		<path style="fill:#17192D;" d="M979.253,1261.104c0.447,0.148,0.746,0.297,1.043,0.596c-1.34,3.428-5.363,1.49-8.494,2.385
			c-2.684,0.447-5.217,0-7.898,0.148c-7.303,0.15-14.607-0.148-21.611,0c-3.727,0-8.645,0.299-12.52-0.148
			c-2.533-0.299-5.662,0-8.197,0.148c-6.109,0.596-11.922,0-18.332,0.447c-0.297-0.297-0.596-0.297-0.893-0.297
			c-2.684,1.34-5.664,0.148-8.199,0.596c-6.109,0.297-11.922,0.895-17.883,0.895c-4.174-1.789-8.496,0.895-12.818-0.15
			c-0.596-0.148,0.895-1.787,1.342-1.787c6.559-4.473,14.158,1.787,21.461-0.299c8.645-2.385,18.332-1.49,26.828-1.938
			c8.494-0.447,16.543,0.299,25.188,0c2.383-0.299,4.768-0.299,7.303-0.299c0.596,0,1.342,0.15,1.938,0.15
			c6.557-0.15,13.115-0.15,18.928-1.045C970.908,1261.699,974.634,1260.953,979.253,1261.104z"/>
		<path style="fill:#17192D;" d="M973.292,1209.834c0.297,0.744,2.682,0.744,1.789,1.938c-4.174,2.832-9.836-0.299-14.309,2.088
			c-15.053,4.619-31,1.191-46.35,3.277c-8.943,1.193-17.289,1.193-26.082,2.98l-5.068-0.148l-0.148,0.596l5.066,2.236
			c5.812,1.191,13.266,1.342,18.779,2.684c5.217,1.34,9.688,1.488,14.754,2.98c5.516,1.043,10.881,0.445,17.141,0.596
			c0.447,0.299,1.191,0.148,1.49,0.596c-7.898,3.279-17.586,1.043-25.783,3.428c-2.236,1.938-5.963,1.342-8.645,2.533
			c-9.539,0-18.631,3.279-27.572,3.727c-1.043,0.895-2.832,1.043-4.322,1.639c0,0.598-4.023,1.492-3.875,1.789
			c0.148,0.447,4.77,0.299,4.918,1.043c14.756,2.236,28.168,0,41.73,1.641c8.346-3.131,16.992,1.787,25.039-0.895
			c9.539-3.131,20.27,0.447,28.766-2.832c2.533,0,5.215-1.342,7.451,0c2.684,0.15,7.154-2.533,9.24,0.299
			c0,0.297,0.297,0.148,0.447,0.297c-2.086,1.342-5.365,0.299-7.303,0.598c-11.328,2.83-23.25,3.576-35.025,5.365
			c-4.77,0-9.537,0.744-14.008-0.596c-5.812,0.148-11.775,0.596-17.887-0.449c-14.158-0.445-27.125,2.385-40.389-1.49
			c-4.918-1.49-9.688,0-14.01-1.043c0-0.895-3.279,0.746-2.533-0.596c0.895-0.447,1.49-1.938,3.129-2.234
			c6.707-3.727,15.5-2.684,22.953-5.367c9.092-1.639,19.375-2.682,28.764-4.918l4.918-1.191v-0.598l-4.918-0.895
			c-6.109-1.041-11.924-1.938-18.033-2.682c-7.451-3.428-16.246-3.129-23.697-6.408c-0.447-0.447-1.191-0.746-1.789-1.043
			c1.193-1.789,4.77-0.15,6.559-0.299c6.26-3.279,13.264-0.744,20.119-2.533c15.65-1.641,27.275-0.746,42.625-2.086
			c3.578-1.045,9.092-1.045,13.115-1.641c7.154-1.043,14.756,1.789,20.121-2.682C971.503,1208.791,972.398,1209.09,973.292,1209.834
			z"/>
		<path style="fill:#17192D;" d="M865.537,1161.1c2.684,0.744,4.918,2.383,7.75,1.938c1.49,0.445,3.131,0.297,4.77,0.445
			c1.342-0.445,2.982,0.447,4.621,0.299c3.129-0.895,5.961-0.148,9.092-0.895c3.129-0.447,5.365,0.299,8.346,0.299
			c2.086,0.744,3.875-0.746,6.26-0.299c4.023,0,9.836-0.148,14.01,0.15c6.408-2.236,13.264-0.746,19.82-0.895
			c1.193-0.299,2.684-0.15,3.877-0.15c0.893,0.15,1.787-0.596,2.682-0.596c9.986-0.297,20.568,0.447,29.957-0.744
			c2.086,1.043,4.174-1.492,5.664,0.744c1.191,2.533-2.533,1.342-4.322,2.086c-3.727,0-7.303,1.045-11.178,0.596
			c-4.473,1.045-8.793-0.596-13.414-0.148c-2.385-0.893-4.918,0.299-7.602,0.148c-3.428-1.787-6.408,0.15-9.537,0.895
			c-7.006-1.191-15.947,0-22.953-0.445c-5.066,2.234-10.73,0.297-15.5,1.639c-4.619-1.49-10.283,0.299-18.332-1.043
			c0.895,0.895-4.918-0.299-4.322,0.148c1.342,1.193,8.496,3.428,8.943,3.875c2.234,0.744,5.066,1.043,7.006,2.236
			c5.662,1.938,12.369,1.639,17.586,4.918c7.303,1.49,14.01,3.279,21.609,4.174c0.746,0.297,1.789,0,2.684,0.297
			c2.832-0.297,4.77,2.684,7.6,2.385c0.447,0.148,0.447,0.447,0.299,0.895c-1.043,0.447-2.086,0.596-2.98,0.299
			c-4.023-0.598-8.197,0.744-12.221,1.342c-4.77,1.49-9.836,2.383-14.904,3.277l-0.895,0.598c-4.322,1.191-8.346,1.191-12.52,2.682
			c-1.49,1.191-5.662,1.342-5.662,1.342l-7.453,1.789l7.154,0.297c7.451,1.938,16.543,0,23.996,0.447
			c3.129-1.49,6.855,0.297,9.984,0.297c4.473,0.15,9.391-1.787,13.562-0.744c4.322-0.148,7.451-0.148,11.477-0.746
			c3.576-0.445,8.047,0.598,12.072,0.299c6.557,0.15,13.562-1.193,20.566,0.447c1.193,1.639,5.514-1.641,5.365,0.895
			c-3.725,1.191-7.748,0.148-11.773,1.342c-1.191-0.299-2.682-0.598-3.875,0.148c-5.365,0.596-12.371-1.191-18.033,0
			c-1.641,0.148-2.684-0.299-4.322-0.299c-5.812,1.193-11.328,0.598-17.287,1.043c-2.834-1.191-6.262-0.744-9.242,0
			c-6.855,0-13.115-1.936-19.971-0.148c-7.303,0.148-15.203-0.895-23.102-0.596c-1.639,0.744-3.279-0.148-5.068,0
			c-1.938,0-4.023-0.148-5.961,0.596c-1.34,0-2.682,0.447-3.576-0.596c-0.447,0.447-0.596,0.148-1.342-0.148
			c-0.299-0.895,0.895-0.447,0.895-0.746c1.639-0.447,4.023,0.299,6.26-0.895c2.086,0,2.385-3.129,5.066-2.385
			c1.789,0.895,3.727-1.043,5.664-0.744c7.154-1.342,13.266-4.473,20.865-4.92c1.193-1.191,4.322-0.893,5.814-1.34
			c4.619-1.641,9.836-1.641,18.031-4.621c-9.389-3.875-17.586-1.639-22.803-5.664c-3.277-0.893-7.303-1.041-10.135-2.83
			c-1.191-0.299-2.682-0.596-4.023-0.15c-3.279-0.297-5.664-2.98-9.092-2.98c-1.938,0-3.279-2.234-5.215-2.234
			c-1.492-1.043-3.428-1.193-4.918-3.131c-4.322,0-7.602-0.744-10.584-2.385c-0.596-0.299-0.447-0.895-0.895-1.49
			c0-0.596-0.148-1.191,0.598-1.49C862.259,1160.354,863.451,1161.547,865.537,1161.1z"/>
		<path style="fill:#17192D;" d="M980,1132.037c-1.49,3.279-5.066,3.576-7.602,5.365c-3.428,1.789-7.152,3.576-11.029,4.025
			c-1.041,0.596-2.533,0.744-3.727,0.893c-9.984,1.789-19.672,5.812-30.105,6.111c-7.152,1.49-15.053,0.744-22.803,0.596
			c-6.408,0-14.605-1.787-21.014-4.619c-3.131-0.746-6.559-1.939-8.793-3.877c-3.279-0.893-5.812-3.277-8.645-5.066
			c-0.596-1.043-1.342-2.086-1.342-3.129c0-0.15-0.148-0.299-0.148-0.299c2.98,0.744,5.812,2.98,8.793,4.77
			c2.385,1.342,3.727,3.129,6.26,3.725c4.322,0.896,7.75,3.877,12.221,3.578c8.197,2.086,17.139,1.938,26.977,1.342
			c-1.49-3.428,1.043-4.77-0.148-6.855c0.148-0.895,0.299-1.49,0.596-2.088c0.447-0.447,0.744-0.895,1.342-0.447
			c0.297,0.299,0.447,0.447,0.744,0.746c-0.297,0.895,0.299,1.49,0.746,1.938c-0.447,1.938,0,3.875-0.299,6.26
			c7.303,0.744,12.221-1.342,18.182-1.641c2.535-1.191,6.408-1.49,9.539-2.385c2.832-0.895,6.26-0.895,8.943-2.533
			c2.236,0.299,4.768-0.447,6.559-2.684c3.873,0.15,6.855-2.682,11.326-3.576c0-1.191,0-0.746,0-0.746
			c0.744-0.297,2.234-1.936,4.023-1.34C980.447,1130.844,980.296,1131.439,980,1132.037z"/>
		<path style="fill:#17192D;" d="M964.945,1098.803c-5.363,3.875-12.221,3.277-17.139,7.451c-1.938,0.598-4.023,1.641-5.662,2.684
			c-4.621-0.15-9.391,2.832-15.65,5.662c4.025,1.641,7.006,1.193,9.092,0.598c8.793,0,16.543-1.49,25.783-0.15
			c2.535,0,5.664-0.744,7.898,0.299c4.322,0.148,9.391-1.043,13.117,1.043c0.148,0.148,0.148,0.148,0.297,0.299
			c-3.129,0.895-7.152,0.596-10.283,0.447c-2.684-0.746-5.514,0.297-8.494,0.297c-5.812,0.15-11.924-1.938-17.141,0.598
			c-4.768,0.596-9.24-1.641-13.859,0c-4.174,1.342-8.348-0.746-12.221,1.191c-7.156-1.191-16.396,0.15-24.146-1.191
			c-8.793,0-17.734,0.596-26.379-0.895c-4.77-0.148-6.707-1.043-11.178-1.938c-0.148,0,0.744-1.043,0.744-1.342
			c4.77-2.832,6.408-3.727,11.477-5.664c7.004-2.83,14.457-2.234,21.463-4.174c9.836,0.15,19.523,1.492,26.678,10.881
			c13.115-7.898,27.123-8.793,39.793-15.648c5.662-1.789,10.879-4.621,16.543-6.408c0.895,0,2.385-0.598,3.428-0.299
			C974.484,1095.225,969.714,1097.312,964.945,1098.803z M881.039,1108.639c-1.939,0.596-4.322-0.148-6.111,1.043
			c-2.385-0.297-4.621,1.043-6.559,1.789l-3.576,2.533c1.34,0.15,6.559,0.596,8.049,0.895c1.936,1.938,5.363,1.043,7.748,1.639
			c11.029-1.49,23.4,0.299,36.664-0.297c-1.938-2.385-3.875-2.98-4.918-4.025c-2.086-2.086-7.898-4.32-11.773-5.961
			C893.855,1107.148,886.701,1105.658,881.039,1108.639z"/>
		<path style="fill:#17192D;" d="M982.533,1017.875c1.938,0.744,3.279-0.299,4.77,0c-0.447,1.041-1.193,1.936-1.193,3.129
			c-0.596,1.639-2.682,1.938-3.873,3.129c-1.193,0.299-1.342,1.938-2.684,2.832c-3.129,1.938-5.963,4.023-9.092,6.26
			c-6.111,1.49-11.625,5.664-18.779,6.408c-5.514,2.535-12.668,2.385-18.777,2.535c-3.727,2.98-9.689,0.297-14.158,1.938
			c-2.236,0.297-3.578-0.598-5.367-0.598c-6.109,1.641-11.625-0.744-17.287-1.639c-4.025-1.789-8.348-2.236-12.223-4.322
			c-1.191-0.895-2.98-0.596-4.174-1.043c-4.768-3.129-10.283-5.068-14.605-8.496c-2.086-0.447-2.682-2.98-4.77-3.428
			c-0.744-1.043-2.234-1.938-1.34-4.174c-1.342-1.043-2.535-3.129,0-2.682c0.596-0.447,0.893-0.148,0.148,0.447
			c4.918,5.961,12.967,11.477,20.865,15.648c2.98,0,5.963,1.641,7.75,3.131c6.111,1.639,11.773,3.875,18.035,3.875
			c2.234,0,4.471,0.447,6.408-0.148c3.875,0.445,7.451,1.49,11.477,0.445c3.873-0.297,7.75-0.744,11.475-1.49
			c11.924-2.385,24.889-2.98,34.727-9.537c3.576-2.385,6.109-4.473,9.24-8.049c-0.447-0.746,1.938-0.596,1.49-1.641
			c-9.24,0.449-20.717,0.746-29.062,1.342c-3.727,1.641-8.049-0.297-12.072,0.299c-3.576,0.447-7.303-0.447-11.027-0.299
			c-1.791,0-3.43-0.297-5.068,0.299c-2.682-0.447-6.111,0.299-8.346-1.191c-1.045-0.895,1.34-0.746,1.639-1.342
			c2.385-0.895,4.77-1.193,7.453-0.15c2.086,0.299,4.172-1.043,6.109-1.043c5.516,0,10.283,1.49,14.01,1.043
			c0-0.447,1.787,0,3.279,0c1.043-0.297,2.086-0.297,2.682-0.148c3.279,0,5.365-0.596,8.346-0.148
			c5.367-1.342,12.074,0,16.396-1.191c1.34-0.299,1.191-0.15,2.531-0.299C979.701,1017.576,980.746,1016.83,982.533,1017.875z"/>
		<path style="fill:#17192D;" d="M971.654,983.297c-0.447,3.131,0.148,5.812,1.191,8.348c-0.148,0.744-0.744,1.49-1.191,1.639
			c-1.939,2.832,1.787,7.898-3.131,9.391c-1.639,0.445-3.428-0.299-4.77,0.893c-5.217,1.938-6.855,0.447-11.922,0.895
			c-4.473,0.299-9.836-1.938-14.16,0c-2.383,0-4.32-0.895-6.408-1.191c-5.662,2.086-12.07-1.043-18.033,0.447
			c-4.322,0.297-7.75-1.49-12.072,0.447c-0.895,0.148-1.641,0.148-2.385,0.445c-8.793,0-17.885-0.893-26.529,0.15
			c-4.322,0-8.494-0.15-12.371-2.236c-0.744-0.596,0.15-1.49,0.895-1.787c1.043,0,2.535-0.299,4.174,1.043
			c3.131-1.342,5.961,0.148,8.645-0.447c2.234,0.596,4.77,0.744,7.154,0.148c5.066-2.98,10.434,0.447,15.648,0.299
			c5.068-0.15,10.135-2.088,15.352-1.492c5.365,0.746,11.625,1.193,17.139,0.598c1.789-0.598,3.875,0.297,5.516-0.299
			c1.639,0.299,3.875,0.15,5.365,1.193c2.086-0.299,4.619-0.746,6.705-1.342c1.193,0.596,2.982,0.447,4.025,0.744
			c5.664,0.447,6.855,1.193,12.072-0.596c3.428,1.193,2.086-2.385,5.066-3.129c1.938-0.746,0.895-1.641,0.895-2.684
			c-0.447-2.385,1.938-4.174,0.895-6.26c-0.746-1.938-0.15-4.471-1.641-6.557c-0.148-0.598-0.148-1.342,0.598-1.342
			C970.312,980.168,970.611,982.105,971.654,983.297z"/>
		<path style="fill:#17192D;" d="M980,952.895c-1.49,3.279-5.066,3.576-7.602,5.365c-3.428,1.789-7.152,3.576-11.029,4.023
			c-1.041,0.596-2.533,0.746-3.727,0.895c-9.984,1.789-19.672,5.812-30.105,6.109c-7.152,1.492-15.053,0.746-22.803,0.598
			c-6.408,0-14.605-1.789-21.014-4.621c-3.131-0.744-6.559-1.938-8.793-3.875c-3.279-0.895-5.812-3.279-8.645-5.066
			c-0.596-1.043-1.342-2.086-1.342-3.131c0-0.148-0.148-0.297-0.148-0.297c2.98,0.744,5.812,2.98,8.793,4.77
			c2.385,1.34,3.727,3.129,6.26,3.725c4.322,0.895,7.75,3.875,12.221,3.578c8.197,2.086,17.139,1.936,26.977,1.34
			c-1.49-3.428,1.043-4.768-0.148-6.855c0.148-0.895,0.299-1.49,0.596-2.086c0.447-0.447,0.744-0.895,1.342-0.447
			c0.297,0.299,0.447,0.447,0.744,0.746c-0.297,0.893,0.299,1.49,0.746,1.936c-0.447,1.939,0,3.877-0.299,6.262
			c7.303,0.744,12.221-1.342,18.182-1.641c2.535-1.191,6.408-1.49,9.539-2.385c2.832-0.895,6.26-0.895,8.943-2.533
			c2.236,0.297,4.768-0.447,6.559-2.684c3.873,0.15,6.855-2.682,11.326-3.576c0-1.191,0-0.746,0-0.746
			c0.744-0.297,2.234-1.936,4.023-1.34C980.447,951.701,980.296,952.297,980,952.895z"/>
		<path style="fill:#17192D;" d="M979.253,932.924c0.447,0.148,0.746,0.299,1.043,0.596c-1.34,3.428-5.363,1.49-8.494,2.385
			c-2.684,0.447-5.217,0-7.898,0.15c-7.303,0.148-14.607-0.15-21.611,0c-3.727,0-8.645,0.297-12.52-0.15
			c-2.533-0.297-5.662,0-8.197,0.15c-6.109,0.596-11.922,0-18.332,0.447c-0.297-0.299-0.596-0.299-0.893-0.299
			c-2.684,1.34-5.664,0.148-8.199,0.596c-6.109,0.299-11.922,0.895-17.883,0.895c-4.174-1.789-8.496,0.895-12.818-0.15
			c-0.596-0.148,0.895-1.787,1.342-1.787c6.559-4.471,14.158,1.787,21.461-0.299c8.645-2.385,18.332-1.49,26.828-1.938
			c8.494-0.447,16.543,0.299,25.188,0c2.383-0.297,4.768-0.297,7.303-0.297c0.596,0,1.342,0.148,1.938,0.148
			c6.557-0.148,13.115-0.148,18.928-1.043C970.908,933.52,974.634,932.775,979.253,932.924z"/>
		<path style="fill:#17192D;" d="M991.029,900.584c1.938,1.639,0,1.49-0.299,2.086c-8.346,7.303-19.971,5.812-28.914,11.625
			c-6.408,2.385-13.264,3.277-19.523,4.77c-4.918,0.148-9.389,2.234-14.01,1.342c-1.49,1.191-3.727,0-5.365,0.596
			c-10.73,0-16.842-2.086-25.188-3.875c-2.832,0.297-5.812-0.596-8.049-2.535c-3.875,0.447-7.004-0.744-9.836-2.234
			c-6.855-2.533-13.713-5.217-18.631-9.986c0,0.15-0.895-0.297-0.447-0.596c1.193-0.746,2.535,0.596,3.727,1.191
			c7.006,0.598,11.477,5.664,17.736,7.154c2.832,1.492,5.961,1.492,8.645,2.533c11.477,2.982,19.076,5.516,31.148,5.664
			c0.15,0,0.447-1.043,0.447,0.148c10.283-0.596,19.076-2.98,28.465-4.023c9.539-2.98,19.078-6.408,28.617-9.389
			c2.533-1.639,5.514-2.98,8.793-4.174c0.895,0,2.533-1.639,2.98-1.043C991.476,899.838,992.519,899.838,991.029,900.584z"/>
		<path style="fill:#17192D;" d="M972.398,853.635c-1.787,1.342-4.172,2.236-5.961,3.727c-7.303,2.088-15.203,4.023-23.102,4.023
			c-5.664,0.895-11.477,2.088-16.99,3.43c-2.98-0.299-6.408-0.895-9.836-0.15c-0.447,1.193-0.447,1.641-2.236,2.088
			c1.641,4.32,5.068,7.303,6.707,10.432c0.895,0.447,1.789,1.641,1.49,2.684c-0.596,1.789,0.299,1.789,1.342,2.83
			c1.34,0,2.533,0.15,3.725,0.746c3.131-1.043,5.516-1.043,8.049-0.148c2.832,1.639,5.217,0.447,8.346,0
			c5.961-0.895,11.625-2.236,17.736-2.533c4.77-0.15,9.539-0.15,14.605-0.15c0.447,0.15,0.895,0.299,0.746,0.746
			c0,0.447-0.596,0.895-1.045,1.043c-7.451,0.447-14.605,0.746-21.162,2.832c-4.92-0.15-8.943,1.342-13.562,0.895
			c-11.029-1.045-22.654,0-33.086,1.342c-4.621-1.045-8.197,0.895-12.67,0.596c-11.625-0.895-23.697-0.895-33.98-4.322
			c-1.49-0.447-0.746-1.641-1.49-2.684c0.148-0.447,0.895,0,1.191-0.148c3.578,0.746,6.707,2.385,10.285,2.236
			c0.148,0.148,0.148,0.148,0.297,0.297c6.111-0.297,11.775,1.639,17.141,1.342c4.023,2.234,8.494-0.596,12.816,0.148
			c5.516,0.895,10.135-1.043,15.5-1.787c0.746-0.598,1.789-1.193,2.832-2.385c-1.789-4.77-7.303-7.752-7.898-11.625
			c0.744,0-1.043-1.193-0.299-3.578c-4.619-1.342-8.346,0.447-11.773-1.191c-2.832-0.746-5.664,0.744-8.645-0.895
			c-4.023,1.938-7.602,0.148-11.477,0.447c-2.234-1.938-3.129,1.938-5.812,0.148c-2.533,0.746-5.961,1.193-8.049,0
			c0.15-0.596,0.15-1.043,0-1.639c2.236-1.342,5.367,0.445,7.602-1.342c3.279-0.299,5.664,1.49,8.943,0.895
			c9.537-1.789,20.119,0.297,29.807-0.299c6.709-0.299,14.01,0.746,20.42-1.49c10.133-1.639,20.715-2.98,30.254-4.918
			c2.385-1.49,5.217-3.131,8.197-2.98C971.802,852.742,972.25,853.039,972.398,853.635z"/>
		<path style="fill:#17192D;" d="M963.158,812.203c1.342,3.129,0.447,7.152,1.043,9.688c-0.297,4.621,0.744,8.793,1.49,13.264
			c-0.148,0.895-0.596,1.938-1.342,2.533c-3.129-0.744-6.408-0.596-9.24-0.893c-2.83,1.043-6.109-0.299-9.389-1.344
			c-5.664,0.598-11.625-0.445-16.842-0.893c-6.408,0.744-12.221-0.447-18.48-1.043c-5.664,0.895-11.178-0.895-16.543-2.533
			c-1.043-1.342-1.49-1.193-2.086-0.148c-8.348-0.746-15.799-3.578-23.549-6.41c-5.217-1.938-4.174-1.639-9.986-3.875
			c-0.744,2.385,0,4.322-0.297,5.514c-0.299,1.641-0.299,3.279,0,4.92c-0.299,3.129,0.148,7.004,1.34,10.135
			c-0.148,0.148-0.148,0.297-0.297,0.445c-1.043-0.148-1.639-1.342-2.088-2.385c-0.596-1.936,0-3.426-1.342-4.918
			c-0.297-2.385,0.15-4.471-0.297-7.152c1.191-3.43-1.49-8.197,2.832-8.795c2.682,2.088,5.365,2.385,8.494,3.578
			c1.789,0.744,4.174,1.34,6.41,1.938c12.52,3.279,24.145,7.006,37.111,7.898c5.514-1.193,11.326,1.342,17.139,0.746
			c6.408,0,12.52,0.447,19.523,1.787c2.533,0.447,5.217-0.148,8.494,1.342c3.131-3.727,8.348,1.641,7.9-4.918
			c-0.895-4.471-1.191-9.688-1.191-14.01c0.148-1.641-0.447-3.727,0.596-4.77C962.71,811.904,962.859,812.053,963.158,812.203z"/>
		<path style="fill:#17192D;" d="M877.759,788.209c2.234,0.297,3.725,2.533,6.26,2.533c4.768,2.385,9.24,3.576,15.051,3.875
			c0.896,0.447,2.387,0.596,3.43,0.895c3.279,0.297,6.26,1.789,9.389,1.789c1.938,0.596,4.621-0.449,6.408,1.936
			c2.387-0.596,4.174-1.191,5.664-1.936c0.596-1.193,2.236-2.684,2.086-4.324c1.045-1.639,0.15-2.98,0.895-5.066
			c0.895-2.832,0.895-4.471,2.385-7.451c0.746-0.598,1.492-1.193,2.385-1.045c0.596,1.49,0,3.279,0,5.068
			c-1.938,3.875-1.639,5.961-2.98,11.029c1.193,0.744,0.746,1.34,1.193,1.639c3.725,0.596,7.748,0.15,10.879-0.596
			c1.938,0.297,3.576-0.447,6.557-0.447c0.596-1.789,1.938-0.447,2.832-0.895c5.365-0.447,10.137-3.428,15.65-3.727
			c2.385-2.086,6.408-1.787,8.793-3.576c2.83,0.299,4.322-3.428,7.898-2.533c1.789-1.342,3.428-2.982,5.664-2.982
			c0.596,0.447,1.191,0.896,1.787,1.492c-0.297,2.234-2.83,2.383-4.471,3.576c-2.533,0.299-4.918,0.895-6.707,2.533
			c-3.277-0.148-5.217,2.684-8.346,2.533c-1.193,0.746-2.385,0.895-3.279,1.492c-1.191-0.15-2.236,0.297-3.129,0.744
			c-6.855,0-12.221,4.471-19.078,4.025c-0.893,0.596-2.533,0.596-3.428,0.744c-7.303,2.533-15.797,2.086-23.25,1.938
			c-3.426-0.895-7.6,0-10.582-1.49c-9.24-1.641-18.182-5.365-26.975-7.75c-4.174-1.639-8.049-4.174-11.924-6.26
			c-4.322-2.385-9.389-4.023-12.52-8.348c0-0.297,0-0.744,0.299-0.893C863.302,781.055,870.306,784.93,877.759,788.209z"/>
		<path style="fill:#17192D;" d="M987.75,761.084c-0.447,0.148-1.641,1.043-2.684,1.342c-2.83,0.148-6.855,0.445-9.688,0.895
			c-1.639-0.598-4.768,0.596-6.408,0.148c-7.898,0.744-15.799,1.191-24.74,1.043c-1.639,1.043-4.621,0.299-6.408,0.299
			c-8.346-0.299-15.947-2.385-23.25-1.342c-5.217,0-11.178,1.938-16.693,0c-3.875,0.596-9.537-0.148-12.668,0.148
			c-0.148,0.15-0.447,0.299-0.596,0.447c-7.75-0.744-16.395,0.895-23.848,0.299c-0.596-0.15-1.34-1.191-0.297-1.342
			c15.35-1.938,32.789-1.191,49.035-1.938c3.576-0.148,8.941,0.148,12.816-0.596c0.148,0.148,0.297,0.297,0.447,0.447
			c5.812,0,11.178,0.744,16.691,1.191c0.447-0.297,1.49-0.148,1.789,0c8.941,0.299,19.375-1.342,27.869-1.043
			c4.92-2.385,10.135,1.043,14.605-1.789c0.598-0.895,1.939-0.445,2.684-1.191C988.197,759.295,988.046,760.488,987.75,761.084z"/>
		<path style="fill:#17192D;" d="M852.123,722.354c0.299,2.533,1.342,4.322,1.789,7.004c-0.893,4.025-0.148,7.602,1.342,12.52
			c2.088-1.043,3.578-0.744,4.322-0.447c2.832-0.297,6.408,0.447,9.24,0.299c2.684-0.596,5.961-0.895,8.645-0.895
			c4.174-2.086,9.389-2.682,13.562-3.576c2.385,0.596,5.217,0,7.451,0.297c10.135,0,20.568-2.533,30.107-3.873
			c1.787,0.148,4.471-0.299,6.109,0.148c0.299-0.148,1.045-0.148,1.193-0.299c7.451-0.297,13.412-0.447,20.865-0.447
			c3.428,0,6.408,0.598,9.537,0.746h-0.148c-3.875,2.83-9.24,1.787-13.414,2.682c-6.111-1.49-12.52,1.641-19.076-0.895
			c-3.875,4.025-8.496,0.895-12.52,2.236c-3.725-0.447-8.197-0.299-11.326,1.641c-1.49-0.15-2.832,0.445-4.918-0.299
			c-3.578,2.086-8.049,1.043-11.775,1.043c-6.111-1.342-11.029,2.684-16.84,1.938c-4.174,2.086-8.943,1.789-13.713,1.789
			c-1.49-1.639-3.875-0.148-6.855-3.43c-1.043,6.559-0.447,10.434-0.746,14.457c0.746,3.131-0.445,6.559,0,9.986
			c-0.148,0.148-0.148,0.299-0.297,0.447c-1.193-0.148-1.49-1.49-1.938-2.385c0.895-2.98,0.744-5.961,0-8.941
			c-0.598-0.746,0-2.086,0.148-3.578c-1.639-2.234-0.299-5.514-1.49-7.6c0.744-2.387-0.299-4.918-0.148-7.305
			c-1.342-2.383,0.447-5.514-0.895-7.898c0-2.086-2.832-4.172-0.447-5.812c0.148-0.148,0.447-0.299,0.744-0.447
			C851.23,721.607,851.974,721.758,852.123,722.354z"/>
		<path style="fill:#17192D;" d="M979.253,705.811c0.447,0.148,0.746,0.297,1.043,0.596c-1.34,3.428-5.363,1.49-8.494,2.385
			c-2.684,0.447-5.217,0-7.898,0.148c-7.303,0.148-14.607-0.148-21.611,0c-3.727,0-8.645,0.299-12.52-0.148
			c-2.533-0.299-5.662,0-8.197,0.148c-6.109,0.596-11.922,0-18.332,0.447c-0.297-0.299-0.596-0.299-0.893-0.299
			c-2.684,1.342-5.664,0.15-8.199,0.598c-6.109,0.299-11.922,0.895-17.883,0.895c-4.174-1.789-8.496,0.895-12.818-0.15
			c-0.596-0.148,0.895-1.787,1.342-1.787c6.559-4.473,14.158,1.787,21.461-0.299c8.645-2.385,18.332-1.49,26.828-1.938
			c8.494-0.447,16.543,0.299,25.188,0c2.383-0.299,4.768-0.299,7.303-0.299c0.596,0,1.342,0.15,1.938,0.15
			c6.557-0.15,13.115-0.15,18.928-1.043C970.908,706.406,974.634,705.662,979.253,705.811z"/>
		<path style="fill:#17192D;" d="M982.533,668.254c1.938,0.744,3.279-0.299,4.77,0c-0.447,1.043-1.193,1.938-1.193,3.129
			c-0.596,1.641-2.682,1.938-3.873,3.131c-1.193,0.297-1.342,1.938-2.684,2.832c-3.129,1.938-5.963,4.023-9.092,6.26
			c-6.111,1.49-11.625,5.664-18.779,6.408c-5.514,2.533-12.668,2.385-18.777,2.533c-3.727,2.98-9.689,0.299-14.158,1.938
			c-2.236,0.299-3.578-0.596-5.367-0.596c-6.109,1.639-11.625-0.746-17.287-1.641c-4.025-1.787-8.348-2.234-12.223-4.32
			c-1.191-0.895-2.98-0.598-4.174-1.045c-4.768-3.129-10.283-5.066-14.605-8.494c-2.086-0.447-2.682-2.98-4.77-3.43
			c-0.744-1.043-2.234-1.936-1.34-4.172c-1.342-1.043-2.535-3.131,0-2.682c0.596-0.449,0.893-0.15,0.148,0.445
			c4.918,5.963,12.967,11.477,20.865,15.65c2.98,0,5.963,1.639,7.75,3.129c6.111,1.639,11.773,3.875,18.035,3.875
			c2.234,0,4.471,0.447,6.408-0.148c3.875,0.447,7.451,1.49,11.477,0.447c3.873-0.299,7.75-0.746,11.475-1.49
			c11.924-2.385,24.889-2.98,34.727-9.539c3.576-2.385,6.109-4.471,9.24-8.047c-0.447-0.746,1.938-0.598,1.49-1.641
			c-9.24,0.447-20.717,0.746-29.062,1.342c-3.727,1.639-8.049-0.299-12.072,0.299c-3.576,0.445-7.303-0.447-11.027-0.299
			c-1.791,0-3.43-0.299-5.068,0.299c-2.682-0.447-6.111,0.297-8.346-1.193c-1.045-0.895,1.34-0.744,1.639-1.342
			c2.385-0.895,4.77-1.191,7.453-0.148c2.086,0.297,4.172-1.043,6.109-1.043c5.516,0,10.283,1.49,14.01,1.043
			c0-0.447,1.787,0,3.279,0c1.043-0.299,2.086-0.299,2.682-0.148c3.279,0,5.365-0.598,8.346-0.15c5.367-1.34,12.074,0,16.396-1.191
			c1.34-0.299,1.191-0.148,2.531-0.299C979.701,667.955,980.746,667.211,982.533,668.254z"/>
		<path style="fill:#17192D;" d="M930.22,588.965c5.812,0.449,11.775,1.789,18.033,2.535c7.602,0.895,15.5,1.787,22.654,5.363
			c3.727,3.727,8.346,5.666,11.328,10.584c0.445,2.682,2.383,2.234,1.488,5.514c0.148,0.447-0.297,0-0.297-0.596
			c-3.428,0.148-1.789-0.746-4.322-4.174c-3.875,1.193-6.707-0.596-9.539,0.596c-11.924-0.744-22.207,0-33.83,1.193
			c-2.832,1.342-6.41,1.342-9.689,0.895c-2.086-0.746-4.322,0.744-6.854,0.299c-7.752-0.447-16.396-0.447-23.998,0.596
			c-5.662-0.299-11.176,0-16.99,0.596c-2.234-0.447-4.768-1.191-7.898-0.299c-0.895,2.088-1.938,1.641-1.191,3.428
			c-0.299,0.299-0.596,0.746-1.043,1.045c-0.447-0.15-0.895,0-1.342-0.449c0.596-4.32,3.428-6.705,6.111-9.984
			c5.215-4.77,11.922-7.006,17.586-11.625c3.725-2.385,7.6-2.684,11.625-4.322c5.066-0.744,10.73-0.447,15.648-1.49
			C921.875,589.711,925.898,589.414,930.22,588.965z M906.671,592.691c-5.811-0.297-9.836,2.385-15.35,4.023
			c-0.299,0.299-1.641,1.641-2.385,2.088c-4.174,2.98-9.092,4.322-13.564,10.283c5.367-0.447,8.049,1.49,10.584,0.447
			c3.725,0.447,7.004-1.49,10.73-1.639c5.365,1.639,11.178,0.297,16.691,1.043c5.068,0.596,10.582-0.596,15.799-0.895
			c9.24-3.576,19.971-1.043,29.51-2.088c4.619,0,9.984-0.744,17.287,0.15c-2.83-5.961-7.898-7.006-11.326-8.941
			c-8.793-2.387-17.586-3.877-26.678-4.77c-1.789-0.299-4.023,0.447-5.664-0.598C924.111,592.246,914.273,589.414,906.671,592.691z"
			/>
		<path style="fill:#17192D;" d="M979.253,571.23c0.447,0.148,0.746,0.299,1.043,0.596c-1.34,3.428-5.363,1.492-8.494,2.385
			c-2.684,0.447-5.217,0-7.898,0.15c-7.303,0.148-14.607-0.15-21.611,0c-3.727,0-8.645,0.297-12.52-0.15
			c-2.533-0.297-5.662,0-8.197,0.15c-6.109,0.596-11.922,0-18.332,0.447c-0.297-0.299-0.596-0.299-0.893-0.299
			c-2.684,1.342-5.664,0.148-8.199,0.596c-6.109,0.299-11.922,0.895-17.883,0.895c-4.174-1.789-8.496,0.895-12.818-0.148
			c-0.596-0.15,0.895-1.789,1.342-1.789c6.559-4.471,14.158,1.789,21.461-0.297c8.645-2.387,18.332-1.492,26.828-1.939
			c8.494-0.447,16.543,0.299,25.188,0c2.383-0.297,4.768-0.297,7.303-0.297c0.596,0,1.342,0.148,1.938,0.148
			c6.557-0.148,13.115-0.148,18.928-1.043C970.908,571.826,974.634,571.082,979.253,571.23z"/>
		<path style="fill:#17192D;" d="M877.759,545.894c2.234,0.299,3.725,2.534,6.26,2.534c4.768,2.385,9.24,3.577,15.051,3.875
			c0.896,0.447,2.387,0.596,3.43,0.894c3.279,0.299,6.26,1.789,9.389,1.789c1.938,0.597,4.621-0.447,6.408,1.938
			c2.387-0.596,4.174-1.191,5.664-1.938c0.596-1.192,2.236-2.683,2.086-4.322c1.045-1.639,0.15-2.98,0.895-5.067
			c0.895-2.832,0.895-4.472,2.385-7.451c0.746-0.597,1.492-1.193,2.385-1.043c0.596,1.49,0,3.278,0,5.067
			c-1.938,3.875-1.639,5.962-2.98,11.029c1.193,0.746,0.746,1.341,1.193,1.64c3.725,0.596,7.748,0.148,10.879-0.596
			c1.938,0.297,3.576-0.447,6.557-0.447c0.596-1.789,1.938-0.448,2.832-0.895c5.365-0.446,10.137-3.427,15.65-3.725
			c2.385-2.087,6.408-1.789,8.793-3.578c2.83,0.298,4.322-3.428,7.898-2.533c1.789-1.341,3.428-2.98,5.664-2.98
			c0.596,0.446,1.191,0.894,1.787,1.49c-0.297,2.235-2.83,2.384-4.471,3.577c-2.533,0.298-4.918,0.895-6.707,2.534
			c-3.277-0.15-5.217,2.682-8.346,2.533c-1.193,0.746-2.385,0.895-3.279,1.491c-1.191-0.149-2.236,0.298-3.129,0.746
			c-6.855,0-12.221,4.471-19.078,4.023c-0.893,0.597-2.533,0.597-3.428,0.746c-7.303,2.533-15.797,2.086-23.25,1.938
			c-3.426-0.896-7.6,0-10.582-1.491c-9.24-1.64-18.182-5.365-26.975-7.75c-4.174-1.64-8.049-4.174-11.924-6.26
			c-4.322-2.384-9.389-4.024-12.52-8.346c0-0.298,0-0.746,0.299-0.894C863.302,538.74,870.306,542.615,877.759,545.894z"/>
		<path style="fill:#17192D;" d="M960.923,508.635c5.812,1.49,9.984,6.41,15.797,8.198c0.895,1.639,2.832,2.534,3.727,4.173
			c-1.342,0.447-2.832-0.894-4.023-1.491c-1.045-1.043-2.088-1.64-3.578-1.789c-3.279-2.384-7.75-3.428-11.178-6.111
			c-2.533-0.893-6.26-1.191-9.092-2.533c-5.066-0.299-10.135-0.299-15.053,0.596c-4.77,0.895-9.391,2.832-13.115,6.111
			c-4.918,2.384-10.582,4.173-15.947,5.365c-8.346,4.174-18.928,3.726-27.572,0.299c-5.068,0-7.898-4.322-12.52-4.918
			c-1.34-1.044-2.533-2.087-4.172-2.684c-0.895-0.745-0.447-1.937-1.193-2.981c0-0.297-0.596,0.149-0.297,0.298
			c2.086,0.149,4.322,1.044,6.109,1.938c7.9,6.11,18.48,6.408,28.02,8.495c6.707-0.298,12.221-3.429,18.631-4.918
			c4.023-2.534,9.09-3.428,13.115-5.961c2.98-0.298,5.365-3.727,8.494-2.981c6.707-2.385,14.605-2.385,21.016,0
			C958.984,508.188,959.878,508.486,960.923,508.635z"/>
		<path style="fill:#17192D;" d="M980,477.189c-1.49,3.279-5.066,3.577-7.602,5.366c-3.428,1.789-7.152,3.577-11.029,4.024
			c-1.041,0.597-2.533,0.746-3.727,0.894c-9.984,1.789-19.672,5.813-30.105,6.111c-7.152,1.491-15.053,0.745-22.803,0.596
			c-6.408,0-14.605-1.788-21.014-4.62c-3.131-0.746-6.559-1.938-8.793-3.875c-3.279-0.894-5.812-3.278-8.645-5.067
			c-0.596-1.043-1.342-2.086-1.342-3.13c0-0.149-0.148-0.298-0.148-0.298c2.98,0.745,5.812,2.98,8.793,4.77
			c2.385,1.341,3.727,3.13,6.26,3.726c4.322,0.895,7.75,3.875,12.221,3.577c8.197,2.086,17.139,1.937,26.977,1.341
			c-1.49-3.427,1.043-4.768-0.148-6.854c0.148-0.895,0.299-1.49,0.596-2.087c0.447-0.447,0.744-0.894,1.342-0.447
			c0.297,0.298,0.447,0.447,0.744,0.745c-0.297,0.895,0.299,1.49,0.746,1.938c-0.447,1.938,0,3.875-0.299,6.259
			c7.303,0.746,12.221-1.341,18.182-1.639c2.535-1.192,6.408-1.491,9.539-2.385c2.832-0.894,6.26-0.894,8.943-2.533
			c2.236,0.297,4.768-0.448,6.559-2.684c3.873,0.15,6.855-2.683,11.326-3.577c0-1.192,0-0.745,0-0.745
			c0.744-0.298,2.234-1.938,4.023-1.341C980.447,475.997,980.296,476.593,980,477.189z"/>
		<path style="fill:#17192D;" d="M983.427,382.7c0.148,0.447,0.148,1.044,0,1.491c-0.895,0.446-1.49,0.596-2.682,0.894
			c-0.746,0.149-1.492,0.149-2.236,0.149c-2.684,0.596-4.322,0.894-7.154,1.788c-0.596,0.299-0.895,0.596-1.49,0.895
			c-0.746,0-1.043-0.149-1.789-0.149c-3.131-0.149-7.303,1.044-8.049,0.745c-7.451,1.341-6.408,1.938-14.904,2.385
			c-6.109,0.297-10.58,0.895-16.244,1.49c0,2.981-1.938,5.812-2.385,8.495c-0.148,1.491-0.297,2.236-0.596,3.727
			c-0.596,1.938-1.787,2.832-1.49,4.918c0,4.174,0.299,1.342-2.086,5.515c-0.299,0.447-0.447,1.042-2.088,3.278
			c3.578-0.297,4.77-0.596,6.408-0.893c2.236,1.49,6.262,0.148,9.838,0.297c9.389,0.447,18.332-0.895,26.826-0.447
			c7.9,0.298,15.65-1.193,22.654-0.447c0.148,0.447,0.148,1.043,0.148,1.639c-0.596,3.577-4.768,0.894-6.408,1.64
			c-7.451,0.596-14.307,0.596-22.652,0.596c-10.135,0.299-20.27-0.596-30.555,0.15c-7.004,0.596-13.115-0.447-19.523,0.745
			c-10.879-1.789-21.908,3.577-32.641,1.043c-2.682-0.148-5.365,0.894-8.047,0.149c-1.342-0.745-6.111-0.297-3.576-2.384
			c8.344-0.894,16.988,0.148,25.484-0.149c12.52-0.596,4.918-1.192,8.197-1.491c4.322-0.447,6.855-0.298,11.326-0.298
			c4.025,0,6.26,0.448,10.582,0c0.896-2.086,1.492-3.278,2.387-5.067c1.936-3.727,0.596,1.491,1.49-5.514
			c0.297-2.235,0.445-2.833,0.445-5.067c0-1.938,0.896-2.833,1.342-4.77c0.447-1.341,0.299-2.831,0.596-5.366
			c-1.938,0-2.533,0.15-3.428,0.15c-3.129-0.895-7.451,2.235-10.283-0.447c-3.576-0.298-5.514-0.596-8.494,0.597
			c-2.088-0.149-4.324-0.447-7.006-0.746c-0.596-0.298-1.49,0.446-2.086,0.446c-2.385,1.342-3.877-2.533-6.111-0.745
			c-1.043,0-2.086,1.044-3.129-0.447c-4.92,1.341-8.795,0.894-12.969-1.789c-1.34,0.597-1.936-0.298-2.531-1.042
			c-0.15-0.15-0.299-0.448-0.15-0.746c0.447-1.193,1.191,0.596,1.49,0.447c0,0,0.895,0.746,1.789-0.149
			c0.895-0.745,1.639,1.193,2.533,0.746c5.664,1.342,11.775,1.342,17.588,0.597c5.662,1.341,14.01,0,19.375,1.341
			c1.34-0.149,2.533-1.193,4.619,0c1.789-1.938,4.025-0.447,5.365-1.341c6.855-0.149,13.861-0.745,20.717-0.894
			c6.707,0,4.471-1.044,9.539-1.79c1.043,0.298,2.682-0.446,3.428,0.149c1.938-0.298,3.725-0.298,5.662-0.596
			c4.025-0.596,9.539-0.895,13.115-1.789c0.598,0.298,1.344-0.148,2.385-1.341c-0.596-1.341,1.045-0.596,1.045-0.895
			C978.658,381.805,980.894,383.295,983.427,382.7z"/>
		<path style="fill:#17192D;" d="M973.74,335.753c1.193,0.597,2.385,0,3.725,0.299c1.045,0,1.789,0.298,2.686,0.894
			c0.146,0.746-0.746,1.341-1.193,2.086c-1.043,1.342-2.236-0.745-2.533-0.745c-0.299-0.596-1.789,0.745-3.279-1.491
			c-2.98,0.895-5.664,0.895-7.75,0.298c-4.174,0.447-8.793-0.745-12.818,0.894c-1.641,0.149-2.533,2.087-3.279,2.981
			c-0.148,0-0.744,1.789-2.086,2.384c-1.938,1.789-4.77,4.621-5.664,5.366c-0.744,0.745,0-0.895-1.342,0.596
			c-0.744,0.597-0.445,0.895-1.488,2.534c-1.342,1.639-4.025,4.471-4.621,5.216c-0.893,1.788-1.789,3.875-2.832,6.26
			c3.131,2.085,6.26,1.49,8.346,2.831c2.684,0.149,5.963,0.746,8.795,1.491c1.639-1.341,2.83,0.298,4.023,0.298
			c1.639,0.894,4.174,0.745,6.109,1.639c3.727,0.597,7.006,2.832,11.178,2.087c1.492,0.298,3.279,0.894,4.77,1.342
			c-0.148,0.297-0.297,0.596-0.596,0.596c-2.533,0.446-4.77-0.895-7.004-0.746c-0.598-0.448-1.043-0.596-1.639-0.448
			c-1.193-0.148-2.387-0.446-3.43-0.446c-2.385-0.746-4.023,0.596-7.898-1.938c0,2.236,0.299,0.895,0.299,0.895
			c-2.236-0.598-5.367-1.491-8.348-1.342c-1.787-1.191-4.023-0.745-5.812-1.191c-4.172-0.447-7.004-2.087-11.027-1.79
			c0,0-0.15-0.148-0.299-0.148c-1.193-0.745-2.533-0.298-3.279-1.044c-9.092-2.533-18.332-5.067-27.424-7.601
			c-2.086-1.042-3.875-1.49-6.109-2.384c-2.98-1.044-5.812-2.832-8.943-4.024c-3.129-1.192-6.109-3.131-9.688-4.173
			c-0.895-0.448-2.385,0.297-2.385-1.193c0-0.446-0.447-1.49-0.148-1.639c1.043-1.64,4.023-1.64,5.516-2.384
			c3.576-0.299,8.643-1.044,12.965-1.938c1.641-1.938,4.174-0.447,6.111-1.192c7.303,0.298,14.904-3.428,23.25-2.385
			c10.582-1.639,22.355-2.534,32.34-1.639C958.537,335.456,966.138,334.711,973.74,335.753z M928.582,338.288
			c-1.939-0.745-4.918,1.043-7.898,0.447c-3.578-0.596-7.453,0.596-11.029,1.192c-3.428-0.596-6.111,1.49-9.539,1.192
			c-2.236,0.298-5.963,0.298-8.941,0.895c-4.92,0.894-9.391,2.235-15.055,2.682c2.236,2.535,6.26,4.322,6.855,4.471
			c3.131,1.044,5.664,2.832,8.496,3.726c4.322,1.49,8.047,2.981,12.072,4.173c2.832,0.745,6.559,1.639,9.092,2.087
			c2.832-0.15,6.855,2.384,10.73,2.981c2.236,0.297,1.191,1.341,4.322,0.446c1.191-2.832,2.98-4.77,4.023-7.303
			c1.342-1.789,2.088-1.938,4.025-4.024c1.34-1.341,2.682-3.428,4.172-5.365c1.342-1.49,3.129-3.13,4.023-4.174
			c0-0.297,1.789-2.235,1.789-3.427c-2.086-0.447-4.471-0.447-5.812-0.596C935.884,337.095,932.753,337.692,928.582,338.288z"/>
		<path style="fill:#17192D;" d="M881.931,290.892c1.641,0,4.025-0.149,5.812-0.297c4.322-2.683,11.029,0,16.098,0.596
			c3.129-1.789,8.346-0.745,11.625-1.043c4.768-1.192,11.027,0.298,16.543,0.298c9.686,0,20.865-0.298,30.553-0.746
			c1.49-0.149,2.98-1.043,4.322-0.447c0.148,0.149,0.297-0.148,0.447-0.148c-3.428,2.236-7.602,2.384-11.029,3.875
			c-4.918,4.322-10.582,6.558-15.799,9.837c-6.26,2.832-12.668,4.918-18.33,9.24c-1.789,0.895-3.428,1.938-5.217,2.832l-4.322,2.087
			l4.918,0.298c11.625,0.745,22.504-2.086,34.428-0.447c4.77,0,9.24-1.938,13.861-1.044c1.191-0.149,2.682,0,3.725,0
			c-0.148,0.299,0,0.895-0.148,1.044c-1.191,0-2.236,0.297-3.279,1.043c-1.193,0.596-2.684,0.596-4.023,0.894
			c-4.023,0.447-8.049-0.149-12.072,0.745c-10.881,0.299-21.461-1.043-32.043,0.149c-4.918-0.895-9.836,1.64-14.605,0.298
			c-3.131,0.745-7.154-0.895-9.539,0.893c-7.154-0.745-14.16-1.937-21.611-1.937c-1.639-0.596-4.172,0-4.918-1.789
			c-0.148-0.148,0.895-1.639,0.895-0.893c8.049-2.087,14.904,2.682,24.145,1.639c4.77-0.596,9.688,0,14.754-1.491
			c1.49-2.086,3.727-1.938,5.365-3.278c2.982-0.447,5.963-1.193,7.9-3.28c7.6-3.726,15.352-5.067,21.461-10.581
			c1.789-0.746,3.576-1.64,5.514-3.28c0-0.447,4.322-2.384,4.322-2.831c-0.148-0.298-4.619,0.745-4.619,0.148
			c-5.812,0-11.178-1.043-15.799,0.596c-8.346-2.086-16.99-2.235-25.932-0.298c-6.41-0.745-12.967-1.639-19.227-0.447
			c-5.217-2.236-11.029,2.384-15.799-1.788c-0.447-1.343-2.832-0.895-2.682-2.534C872.691,287.912,877.013,290.743,881.931,290.892z
			"/>
		<path style="fill:#17192D;" d="M930.22,250.354c5.812,0.447,11.775,1.788,18.033,2.534c7.602,0.894,15.5,1.787,22.654,5.364
			c3.727,3.727,8.346,5.665,11.328,10.583c0.445,2.683,2.383,2.235,1.488,5.514c0.148,0.447-0.297,0-0.297-0.596
			c-3.428,0.149-1.789-0.745-4.322-4.173c-3.875,1.192-6.707-0.596-9.539,0.597c-11.924-0.746-22.207,0-33.83,1.193
			c-2.832,1.341-6.41,1.341-9.689,0.893c-2.086-0.745-4.322,0.746-6.854,0.299c-7.752-0.447-16.396-0.447-23.998,0.596
			c-5.662-0.297-11.176,0-16.99,0.596c-2.234-0.447-4.768-1.192-7.898-0.298c-0.895,2.086-1.938,1.64-1.191,3.428
			c-0.299,0.298-0.596,0.746-1.043,1.043c-0.447-0.149-0.895,0-1.342-0.447c0.596-4.322,3.428-6.707,6.111-9.985
			c5.215-4.77,11.922-7.005,17.586-11.625c3.725-2.384,7.6-2.683,11.625-4.322c5.066-0.745,10.73-0.448,15.648-1.49
			C921.875,251.099,925.898,250.802,930.22,250.354z M906.671,254.08c-5.811-0.298-9.836,2.385-15.35,4.024
			c-0.299,0.298-1.641,1.639-2.385,2.087c-4.174,2.98-9.092,4.322-13.564,10.283c5.367-0.447,8.049,1.491,10.584,0.447
			c3.725,0.448,7.004-1.49,10.73-1.64c5.365,1.64,11.178,0.298,16.691,1.044c5.068,0.596,10.582-0.596,15.799-0.895
			c9.24-3.577,19.971-1.043,29.51-2.086c4.619,0,9.984-0.746,17.287,0.149c-2.83-5.961-7.898-7.005-11.326-8.943
			c-8.793-2.385-17.586-3.875-26.678-4.769c-1.789-0.298-4.023,0.447-5.664-0.596C924.111,253.633,914.273,250.802,906.671,254.08z"
			/>
		<path style="fill:#17192D;" d="M971.654,217.268c-0.447,3.131,0.148,5.812,1.191,8.347c-0.148,0.746-0.744,1.491-1.191,1.64
			c-1.939,2.832,1.787,7.899-3.131,9.39c-1.639,0.446-3.428-0.298-4.77,0.895c-5.217,1.937-6.855,0.447-11.922,0.894
			c-4.473,0.298-9.836-1.938-14.16,0c-2.383,0-4.32-0.894-6.408-1.193c-5.662,2.087-12.07-1.042-18.033,0.448
			c-4.322,0.297-7.75-1.491-12.072,0.446c-0.895,0.149-1.641,0.149-2.385,0.447c-8.793,0-17.885-0.893-26.529,0.15
			c-4.322,0-8.494-0.15-12.371-2.236c-0.744-0.596,0.15-1.49,0.895-1.788c1.043,0,2.535-0.298,4.174,1.042
			c3.131-1.34,5.961,0.149,8.645-0.446c2.234,0.596,4.77,0.746,7.154,0.149c5.066-2.98,10.434,0.447,15.648,0.297
			c5.068-0.148,10.135-2.086,15.352-1.49c5.365,0.745,11.625,1.192,17.139,0.596c1.789-0.596,3.875,0.298,5.516-0.297
			c1.639,0.297,3.875,0.149,5.365,1.191c2.086-0.297,4.619-0.745,6.705-1.34c1.193,0.596,2.982,0.446,4.025,0.745
			c5.664,0.448,6.855,1.192,12.072-0.596c3.428,1.191,2.086-2.385,5.066-3.13c1.938-0.746,0.895-1.64,0.895-2.683
			c-0.447-2.384,1.938-4.174,0.895-6.26c-0.746-1.937-0.15-4.471-1.641-6.558c-0.148-0.596-0.148-1.341,0.598-1.341
			C970.312,214.138,970.611,216.076,971.654,217.268z"/>
		<path style="fill:#17192D;" d="M901.605,163.316c4.174,0.746,7.6,1.49,12.072,0.894c7.75,3.279,16.691-1.341,23.994,4.024
			c4.023,0.895,9.092,1.043,12.818,2.98c6.26,2.086,12.816,2.981,18.182,7.303c2.236,2.981,3.875,5.663,5.516,8.793
			c-0.299,2.981-0.148,6.409-2.832,7.75c-5.664,2.235-11.625,3.279-17.139,6.111c-11.924,0.298-22.953,4.621-34.131,2.683
			c-5.365,1.193-10.58-0.148-15.947,0.745c-9.24-0.596-17.736-4.322-26.678-5.962c-1.938-1.639-9.539-2.98-3.428-5.365
			c4.023-0.745,6.557,2.236,10.135,3.129c2.086,0.447,4.023,2.833,6.408,2.833c9.092,1.639,16.99,3.278,26.828,2.086
			c8.494,2.086,17.734,0,26.23-1.789c8.047-0.596,15.35-2.832,22.803-4.918c3.576-1.639,2.234-4.62,3.875-8.496
			c-1.938-1.342-1.342-4.173-2.684-5.365c-2.383-2.684-7.154-4.025-10.135-5.813c-4.918-0.745-9.836,0-13.412-2.832
			c-4.025-0.745-8.645,0.297-11.775-2.832c-13.412-2.236-26.975-1.192-39.494-4.323c-7.303-0.745-13.414-1.042-19.375-4.769
			c0.297-0.894,1.787-0.447,2.383-0.745C885.062,158.846,892.513,164.062,901.605,163.316z"/>
		<path style="fill:#17192D;" d="M984.171,102.21c-11.773,5.216-21.908,12.073-32.191,18.927c-0.895,0.448-1.193,1.64-3.131,1.64
			c-4.768,4.77-10.729,5.217-15.051,9.539c-3.875,1.938-8.197,4.174-12.67,7.601c0.596,0.448,1.641,0.895,2.086,1.192
			c3.131,1.491,6.262,0.298,9.092,0.448c8.943,0.297,17.141-1.193,25.039-1.343c7.6,0,14.605-1.788,21.312-1.042
			c0.148,0.298,0.148,0.745,0.148,1.341c-0.447,3.428-4.322,1.044-5.961,1.64c-7.154,0.895-13.414,1.043-21.164,1.341
			c-9.537,0.596-18.928,0.149-28.467,1.192c-6.408,0.596-12.221,0-18.33,1.341c-10.135-1.193-20.42,4.024-30.555,1.938
			c-2.383,0-4.77,1.191-7.301,0.596c-1.045-0.745-5.814,0.149-3.43-2.086c7.752-1.192,15.799,0,23.697-1.044
			c11.924-0.447,24.592-1.192,33.387-8.793c1.49-0.447,2.682-1.491,3.725-2.235c3.725-2.235,7.75-3.874,10.881-7.154
			c3.129-1.043,5.961-2.832,8.494-4.621c4.471-4.47,10.434-6.11,15.352-9.539c0-0.596,0.447-0.447,0.744-0.596
			c1.342-0.596,2.385-1.788,4.025-2.98c0-0.597,4.322-1.491,4.172-1.938c-0.148-0.447-5.066-0.298-5.514-0.596
			c-6.855,1.49-15.352,2.086-23.25,2.832c-8.494,0.745-14.16,2.385-22.207,2.533c-2.832-0.596-6.855,2.236-9.688-0.148
			c-3.131,0-4.918-0.149-7.451,0.745c-2.236,0-4.473-0.299-7.154-0.299c-0.598-0.149-1.193,0.447-1.789,0.447
			c-2.533,1.64-3.875-2.235-5.812-0.447c-0.895,0.299-1.789,1.044-2.682-0.298c-4.77,1.342-8.496,0.597-12.52-1.639
			c-1.342,0.596-1.789-0.149-2.385-0.596c0-0.149,0-0.298,0-0.447c0.447-1.043,1.34,0.447,1.34,0.298c0,0,0.895,0.745,1.789-0.149
			c0.598-0.895,1.938,1.043,2.236,0.596c5.066,1.192,11.029,0.894,16.691,0.149c5.217,0.895,13.115-0.596,18.033,0.447
			c1.045-0.149,2.387-1.043,4.174-0.447c1.639-1.491,3.875-0.149,5.068-1.043c6.258-0.448,12.967-1.491,19.375-1.491
			c6.109-0.596,12.816-1.192,17.734-1.937c1.043,0.297,2.236-0.597,3.279,0.148c2.533-0.596,3.578-0.596,5.514-0.894
			c3.877-0.745,8.795-1.341,12.223-2.086c0.596,0,1.342-0.448,2.234-1.49c-0.744-1.341,0.895-0.746,1.043-0.746
			c1.342-0.596,3.578,0.596,5.812-0.149C984.171,101.316,984.322,101.764,984.171,102.21z"/>
		<path style="fill:#17192D;" d="M949.892,62.567c4.174,0,9.242-1.49,13.713,0c3.131-0.447,6.855,0.448,9.24,0
			c0.148,0,0.447,0,0.744-0.148c6.111,0.596,4.473-1.044,10.582-0.596c0.299,0.148,0.598,0.596,0.746,0.596
			c0.148,0.148,0.148,0.447,0,0.297c0-0.297,0.447,0.15,0.447,0.299c0.447,0.895-0.895,1.639-0.895,2.533
			c-2.234,3.13-5.664,4.62-8.197,7.602c-3.428,4.173-9.389,6.557-13.115,9.389c-1.789,1.043-4.621,1.639-6.707,2.683
			c-1.49,0-2.98,0.894-4.322,1.49c-0.297,1.043,0,0.447-0.297,0.298c-0.896,0.298-2.236,0.298-3.578,0.895
			c-0.447-0.299-0.744,0.298-1.49-0.149c-4.619,1.193-7.898,2.832-12.369,2.534c-5.365,0.446-12.072-0.149-17.141-0.596
			c-1.34-0.448-2.682-0.745-4.023-0.745c-0.596-0.15-1.342-0.299-1.789-0.448c-0.744,0.149-1.787-0.596-2.533-0.596
			c-3.725,0.149-5.514-1.789-9.24-1.938c-2.832-1.491-8.793-4.173-12.072-5.812c-3.875-2.684-7.9-4.77-11.477-7.602
			c-3.576-2.683-6.855-5.366-9.389-8.942c-0.299-0.745-1.193-2.683,0.148-1.937c3.279,1.639,4.918,5.067,8.346,6.855
			c7.75,6.409,19.227,12.967,28.914,15.5c1.193,0.596,3.428,0.447,4.471,1.193c2.088,0.447,4.025,0.894,6.111,1.042
			c6.707,1.938,13.115,0.448,19.971,0.596c4.621-0.745,10.582-0.596,15.053-2.832c1.342,0,2.088-1.043,3.131-1.043
			c1.787-1.043,5.217-0.745,7.453-2.086c1.041-0.298,1.936-1.49,2.979-1.789c0.447-0.596,1.789-0.746,2.385-1.043
			c1.193-0.298,2.086-1.789,3.279-2.236h0.297c0.746-0.148,1.492-0.895,1.641-1.192c0.447-0.298,0.299,0.746,0.596-0.298
			c0.299-0.596,0.746-1.341,1.193-1.043c-0.596,0.447-0.15,0,0.148-0.298c1.193-2.384,4.023-2.981,5.812-5.067
			c0.447-0.297,0.746-1.043,1.492-1.49l-0.896-1.937c-8.793,0.894-14.309,1.191-25.336,0.745c-2.832,0.447-7.004,0-10.135,0.596
			c-0.148-0.149-1.043-0.298-1.191-0.447c-4.322,0-5.516-0.746-9.389-0.894c-0.299,0.148-1.344,0.148-1.492,0.148
			c-7.154-0.297-9.537,0.894-15.947,0.596c-4.023,1.938-8.049-0.894-11.625,1.342c-0.744,0.596-1.639,0.149-2.236,1.341
			c-2.234-1.341-1.34-2.98-1.191-3.279c0.299-0.297,1.191-1.043,2.086-1.192c2.236-0.149,5.516-0.447,7.75-0.746
			c1.193,0.597,4.025-0.446,5.367-0.149c5.961-0.447,6.109-0.893,12.965-0.893c1.342-0.746,3.875-0.149,5.365-0.149
			C940.802,61.823,944.082,63.461,949.892,62.567z"/>
	</g>
	<path style="fill:none;stroke:#17192D;stroke-width:3;" d="M2048,0"/>
	<path style="fill:none;stroke:#17192D;stroke-width:3;" d="M2048,1536"/>
	<path style="fill:none;stroke:#17192D;stroke-width:3;" d="M0,1536"/>
	<path style="fill:none;stroke:#17192D;stroke-width:3;" d="M0,0"/>
</g>
<g id="Layer_1">
</g>
</svg>
