<svg xmlns="http://www.w3.org/2000/svg" width="2048" height="1536" viewBox="0 0 2048 1536"><g><g fill="#FF0050"><path d="M895.55 1463.715c3.76.29 7.618 1.156 11.667 1.64 4.92.577 10.03 1.157 14.66 3.473 2.41 2.41 5.398 3.664 7.327 6.846.29 1.736 1.543 1.447.965 3.568.096.29-.193 0-.193-.386-2.22.097-1.157-.48-2.797-2.7-2.508.77-4.34-.386-6.172.387-7.715-.482-14.37 0-21.89.77-1.833.87-4.147.87-6.27.58-1.35-.48-2.797.482-4.436.193-5.016-.29-10.608-.29-15.527.385-3.663-.19-7.23 0-10.99.388-1.448-.29-3.087-.77-5.112-.192-.58 1.35-1.254 1.06-.77 2.217-.192.193-.387.482-.676.676-.29-.097-.58 0-.868-.29.386-2.797 2.218-4.34 3.953-6.46 3.376-3.087 7.716-4.534 11.38-7.522 2.41-1.543 4.917-1.736 7.52-2.797 3.278-.48 6.942-.288 10.126-.965 2.698.672 5.302.48 8.1.19zm-15.238 2.41c-3.76-.193-6.363 1.543-9.933 2.604-.193.192-1.062 1.06-1.544 1.352-2.7 1.928-5.883 2.795-8.776 6.652 3.473-.29 5.21.965 6.85.288 2.41.29 4.53-.963 6.94-1.06 3.474 1.06 7.232.192 10.802.675 3.278.385 6.847-.387 10.222-.578 5.98-2.314 12.923-.677 19.094-1.353 2.99 0 6.462-.48 11.188.098-1.832-3.856-5.11-4.533-7.33-5.787-5.687-1.54-11.378-2.506-17.26-3.086-1.158-.19-2.604.29-3.664-.385-5.306.29-11.672-1.543-16.59.578zM927.758 1445.586c-.965 2.12-3.277 2.314-4.918 3.47-2.218 1.16-4.63 2.315-7.137 2.605-.674.388-1.64.482-2.41.58-6.46 1.156-12.73 3.76-19.48 3.954-4.628.965-9.738.48-14.754.385-4.147 0-9.45-1.157-13.598-2.99-2.025-.48-4.244-1.253-5.69-2.507-2.122-.578-3.76-2.12-5.593-3.277-.386-.676-.868-1.352-.868-2.024 0-.1-.098-.193-.098-.193 1.93.48 3.762 1.927 5.69 3.085 1.542.867 2.41 2.025 4.05 2.41 2.797.578 5.014 2.508 7.906 2.314 5.305 1.35 11.092 1.253 17.455.865-.965-2.217.676-3.084-.097-4.436.097-.58.193-.966.385-1.352.29-.29.482-.578.87-.29.19.194.288.29.48.483-.192.58.193.966.48 1.255-.287 1.254 0 2.506-.19 4.05 4.725.48 7.907-.867 11.765-1.062 1.64-.77 4.146-.963 6.17-1.543 1.834-.578 4.053-.578 5.787-1.64 1.446.193 3.087-.288 4.243-1.735 2.508.098 4.436-1.736 7.33-2.314v-.48c.48-.193 1.444-1.252 2.603-.867-.093.48-.19.866-.382 1.253zM864.305 1417.62c1.062 0 2.604-.095 3.762-.192 2.797-1.735 7.137 0 10.414.387 2.026-1.157 5.4-.48 7.523-.676 3.085-.772 7.136.192 10.704.192 6.268 0 13.5-.193 19.768-.482.965-.096 1.93-.676 2.797-.29.097.098.193-.097.29-.097-2.218 1.447-4.92 1.545-7.136 2.508-3.183 2.798-6.848 4.245-10.223 6.366-4.05 1.832-8.196 3.182-11.86 5.98-1.157.577-2.22 1.254-3.376 1.83l-2.797 1.352 3.183.192c7.52.482 14.562-1.35 22.276-.288 3.085 0 5.978-1.255 8.967-.677.77-.096 1.735 0 2.41 0-.096.193 0 .58-.096.677-.77 0-1.445.192-2.12.674-.772.387-1.735.387-2.605.58-2.603.288-5.207-.1-7.81.48-7.04.192-13.89-.675-20.734.097-3.182-.577-6.362 1.062-9.448.193-2.025.482-4.63-.578-6.173.578-4.63-.482-9.162-1.254-13.982-1.254-1.062-.385-2.7 0-3.184-1.156-.097-.098.58-1.062.58-.58 5.206-1.35 9.643 1.736 15.62 1.062 3.087-.386 6.27 0 9.547-.963.967-1.35 2.412-1.255 3.475-2.12 1.93-.292 3.856-.772 5.11-2.122 4.917-2.41 9.933-3.278 13.886-6.848 1.16-.48 2.315-1.06 3.568-2.12 0-.29 2.798-1.543 2.798-1.834-.097-.19-2.99.48-2.99.098-3.76 0-7.23-.676-10.222.385-5.4-1.35-10.993-1.443-16.78-.19-4.145-.48-8.39-1.06-12.438-.29-3.375-1.445-7.136 1.545-10.222-1.156-.29-.867-1.832-.578-1.735-1.64 3.276-.583 6.073 1.25 9.255 1.347zM930.458 1378.566c-7.618 3.375-14.175 7.81-20.83 12.246-.577.288-.77 1.06-2.024 1.06-3.086 3.087-6.942 3.376-9.738 6.173-2.508 1.254-5.305 2.7-8.197 4.918.385.29 1.06.578 1.35.77 2.025.966 4.05.193 5.884.29 5.784.192 11.088-.77 16.2-.867 4.917 0 9.45-1.156 13.79-.674.096.19.096.48.096.866-.29 2.22-2.797.675-3.857 1.062-4.63.578-8.68.676-13.693.867-6.172.387-12.246.098-18.42.77-4.145.388-7.905 0-11.86.87-6.558-.77-13.21 2.604-19.77 1.254-1.542 0-3.085.772-4.724.386-.676-.48-3.76.097-2.22-1.35 5.017-.77 10.224 0 15.334-.676 7.715-.29 15.91-.77 21.602-5.69.964-.288 1.735-.964 2.41-1.445 2.41-1.445 5.015-2.507 7.04-4.627 2.025-.677 3.856-1.834 5.496-2.99 2.893-2.894 6.75-3.953 9.933-6.172 0-.386.29-.29.483-.386.868-.387 1.544-1.157 2.604-1.93 0-.385 2.797-.963 2.7-1.254-.098-.29-3.28-.19-3.57-.385-4.435.966-9.93 1.35-15.042 1.833-5.496.48-9.162 1.543-14.368 1.64-1.833-.386-4.436 1.446-6.27-.097-2.023 0-3.182-.097-4.82.48-1.445 0-2.894-.19-4.63-.19-.385-.098-.77.288-1.156.288-1.64 1.06-2.507-1.447-3.76-.29-.58.193-1.157.677-1.734-.192-3.086.87-5.498.387-8.103-1.06-.867.386-1.156-.098-1.542-.39v-.288c.29-.674.868.29.868.193 0 0 .58.482 1.157-.096.387-.577 1.254.675 1.446.386 3.28.77 7.14.58 10.803.098 3.375.578 8.484-.387 11.668.29.676-.1 1.544-.677 2.7-.29 1.06-.965 2.508-.098 3.278-.676 4.05-.29 8.39-.963 12.536-.963 3.954-.387 8.294-.772 11.476-1.254.677.192 1.447-.386 2.122.097 1.64-.387 2.313-.387 3.567-.578 2.507-.482 5.688-.87 7.907-1.353.386 0 .867-.29 1.445-.963-.48-.87.578-.482.676-.482.867-.387 2.313.385 3.76-.098 0 .294.097.583 0 .872zM864.305 1325.53c1.062 0 2.604-.1 3.762-.194 2.797-1.736 7.137 0 10.414.385 2.026-1.154 5.4-.48 7.523-.673 3.085-.77 7.136.19 10.704.19 6.268 0 13.5-.19 19.768-.48.965-.097 1.93-.675 2.797-.288.097.096.193-.1.29-.1-2.218 1.448-4.92 1.544-7.136 2.51-3.183 2.796-6.848 4.24-10.223 6.364-4.05 1.832-8.196 3.182-11.86 5.98-1.157.576-2.22 1.253-3.376 1.83l-2.797 1.35 3.183.194c7.52.48 14.562-1.35 22.276-.29 3.085 0 5.978-1.253 8.967-.676.77-.096 1.735 0 2.41 0-.096.193 0 .578-.096.677-.77 0-1.445.19-2.12.673-.772.387-1.735.387-2.605.578-2.603.292-5.207-.096-7.81.482-7.04.193-13.89-.674-20.734.1-3.182-.58-6.362 1.06-9.448.19-2.025.48-4.63-.58-6.173.58-4.63-.482-9.162-1.255-13.982-1.255-1.062-.387-2.7 0-3.184-1.158-.097-.097.58-1.062.58-.58 5.206-1.35 9.643 1.737 15.62 1.063 3.087-.385 6.27 0 9.547-.963.967-1.353 2.412-1.254 3.475-2.123 1.93-.29 3.856-.77 5.11-2.12 4.917-2.41 9.933-3.28 13.886-6.847 1.16-.482 2.315-1.062 3.568-2.123 0-.29 2.798-1.543 2.798-1.832-.097-.19-2.99.48-2.99.098-3.76 0-7.23-.676-10.222.385-5.4-1.35-10.993-1.444-16.78-.192-4.145-.48-8.39-1.062-12.438-.29-3.375-1.444-7.136 1.544-10.222-1.155-.29-.868-1.832-.58-1.735-1.64 3.276-.58 6.073 1.252 9.255 1.35zM927.275 1312.03c.29.095.48.19.676.384-.868 2.22-3.472.965-5.496 1.543-1.735.29-3.376 0-5.11.098-4.726.097-9.45-.098-13.982 0-2.41 0-5.594.193-8.102-.098-1.64-.19-3.664 0-5.304.098-3.953.386-7.714 0-11.86.29-.192-.193-.387-.193-.578-.193-1.736.866-3.666.098-5.305.387-3.954.19-7.715.577-11.572.577-2.697-1.158-5.495.578-8.292-.1-.386-.095.578-1.154.867-1.154 4.244-2.894 9.162 1.155 13.887-.193 5.595-1.543 11.86-.965 17.357-1.254 5.496-.29 10.703.192 16.298 0 1.542-.193 3.084-.193 4.726-.193.386 0 .866.1 1.253.1 4.242-.1 8.484-.1 12.247-.678 2.892.77 5.303.287 8.29.384zM934.895 1291.104c1.255 1.062 0 .966-.192 1.35-5.4 4.728-12.922 3.763-18.707 7.523-4.148 1.543-8.584 2.12-12.634 3.084-3.184.1-6.075 1.448-9.064.87-.964.77-2.41 0-3.472.387-6.943 0-10.897-1.352-16.297-2.508-1.833.19-3.762-.388-5.208-1.642-2.51.29-4.533-.482-6.365-1.447-4.437-1.636-8.87-3.372-12.054-6.458 0 .096-.58-.193-.29-.387.77-.482 1.64.387 2.41.77 4.532.387 7.426 3.665 11.477 4.63 1.832.966 3.856.966 5.594 1.64 7.425 1.93 12.343 3.568 20.154 3.664.096 0 .29-.675.29.097 6.652-.387 12.342-1.93 18.417-2.604 6.172-1.93 12.344-4.146 18.516-6.076 1.642-1.062 3.57-1.928 5.69-2.7.578 0 1.64-1.06 1.928-.675.096 0 .77 0-.193.482zM922.84 1260.73c-1.156.866-2.7 1.444-3.856 2.41-4.727 1.35-9.837 2.603-14.947 2.603-3.664.578-7.426 1.35-10.992 2.22-1.93-.193-4.146-.58-6.365-.1-.29.772-.29 1.063-1.446 1.35 1.062 2.798 3.278 4.73 4.34 6.753.58.29 1.156 1.062.965 1.734-.387 1.157.19 1.157.866 1.832.867 0 1.64.098 2.41.48 2.024-.673 3.568-.673 5.207-.095 1.834 1.062 3.375.29 5.4 0 3.858-.578 7.522-1.447 11.477-1.64 3.086-.097 6.172-.097 9.45-.097.29.096.578.192.48.48 0 .29-.385.58-.674.677-4.822.29-9.45.482-13.693 1.832-3.182-.097-5.786.866-8.774.577-7.14-.674-14.66 0-21.41.867-2.988-.674-5.305.58-8.196.387-7.52-.58-15.332-.58-21.986-2.796-.965-.29-.48-1.06-.965-1.735.098-.29.58 0 .77-.098 2.314.482 4.34 1.543 6.654 1.447l.193.19c3.953-.19 7.617 1.062 11.09.866 2.603 1.447 5.496-.385 8.293.1 3.568.577 6.558-.678 10.028-1.157.482-.388 1.157-.773 1.834-1.546-1.158-3.086-4.728-5.015-5.11-7.52.48 0-.676-.772-.193-2.313-2.987-.868-5.398.288-7.616-.772-1.832-.48-3.665.482-5.594-.578-2.604 1.255-4.92.097-7.426.29-1.445-1.253-2.025 1.253-3.76.098-1.642.48-3.857.77-5.208 0 .096-.388.096-.677 0-1.062 1.445-.87 3.47.29 4.917-.87 2.122-.19 3.665.966 5.786.58 6.17-1.157 13.018.192 19.286-.19 4.34-.194 9.063.48 13.21-.967 6.558-1.062 13.404-1.93 19.577-3.183 1.542-.965 3.375-2.025 5.304-1.93.287.29.576.485.673.872zM845.018 1233.05c.193 1.643.87 2.798 1.158 4.534-.578 2.604-.096 4.918.868 8.1 1.35-.674 2.313-.48 2.796-.29 1.833-.19 4.146.29 5.98.194 1.733-.387 3.854-.578 5.592-.578 2.7-1.352 6.075-1.735 8.775-2.313 1.543.385 3.375 0 4.82.19 6.56 0 13.31-1.64 19.48-2.506 1.156.097 2.893-.19 3.953.097.19-.096.675-.096.77-.192 4.822-.193 8.68-.29 13.502-.29 2.217 0 4.146.388 6.17.483h-.096c-2.506 1.832-5.98 1.155-8.68 1.735-3.952-.965-8.1 1.062-12.343-.58-2.508 2.604-5.497.58-8.1 1.447-2.412-.29-5.305-.193-7.33 1.062-.965-.097-1.832.288-3.183-.193-2.313 1.352-5.206.675-7.618.675-3.953-.866-7.136 1.736-10.896 1.254-2.698 1.35-5.786 1.155-8.872 1.155-.964-1.06-2.507-.096-4.436-2.217-.675 4.242-.29 6.75-.482 9.354.482 2.025-.29 4.244 0 6.462-.097.098-.097.192-.19.288-.772-.096-.966-.965-1.255-1.543.58-1.93.482-3.857 0-5.785-.387-.482 0-1.35.097-2.314-1.06-1.446-.193-3.567-.964-4.917.48-1.543-.193-3.184-.097-4.727-.867-1.543.29-3.566-.578-5.11 0-1.35-1.832-2.7-.29-3.76.098-.098.29-.194.48-.29.39.092.874.19.97.575zM915.414 1216.658c3.762.963 6.462 4.146 10.223 5.303.578 1.062 1.832 1.642 2.41 2.702-.867.29-1.832-.58-2.604-.965-.676-.676-1.35-1.062-2.314-1.158-2.122-1.544-5.016-2.218-7.233-3.954-1.64-.578-4.05-.77-5.882-1.64-3.278-.192-6.558-.192-9.74.386-3.085.58-6.074 1.832-8.485 3.955-3.184 1.54-6.848 2.7-10.317 3.47-5.4 2.702-12.248 2.41-17.84.194-3.28 0-5.11-2.796-8.102-3.182-.866-.676-1.64-1.352-2.698-1.735-.58-.482-.29-1.254-.772-1.93 0-.19-.385.098-.19.192 1.35.096 2.796.676 3.953 1.254 5.11 3.952 11.956 4.145 18.13 5.495 4.34-.193 7.906-2.22 12.054-3.182 2.603-1.642 5.882-2.22 8.485-3.857 1.93-.193 3.472-2.41 5.496-1.93 4.34-1.543 9.45-1.543 13.6 0 .573.29 1.15.485 1.826.582zM883.013 1152.05c6.462 2.313 13.31 1.638 19.48 4.24 6.364 2.7 13.308 3.858 19.864 5.98.192.193.48.482.676.77-2.122.87-4.92-.866-7.426-.577-7.62-.578-14.754 1.928-22.76 2.988l-.386 1.736c8.68 1.736 16.01 5.4 24.013 6.943.29.192.772.288 1.062.48 1.735.097 3.856-1.06 5.11-.096-.097.674-.77.963-1.445 1.156-1.543-.193-2.7.867-4.146 1.254-8.584-.387-16.2 1.445-24.88 2.025-10.704.77-21.313 1.542-31.44 1.444-5.302.77-9.353.965-13.5.48-.386-.19-1.155 0-1.542-.095.29-.194.578-.483.867-.772 3.183-.676 5.978-.676 9.353-.965 14.658-1.155 30.763.1 45.807-2.41 2.7-.48 5.4-.288 8.293-.577 1.93-.677 1.06-2.604-.386-2.22-6.27-3.086-13.887-3.567-20.154-5.883-1.157-.385-2.99-.096-3.472-1.254.193-.386.58-.58.965-.772 6.56-2.12 13.693-2.893 23.53-5.4-6.075-2.216-9.644-2.603-12.44-4.24-7.04 0-11.86-2.894-18.9-2.894-5.4-2.025-11.766-1.158-17.165-3.474-4.437-.096-8.1-1.06-13.308-1.928-.098 0-.387 0-.482-.098.097-.19.193-.386.29-.675.77 0 1.254-.388 1.64-.578 10.895.874 21.89 3.96 32.883 5.407zM923.707 1116.56c.77.39 1.544 0 2.41.194.676 0 1.158.193 1.738.578.096.482-.482.867-.773 1.35-.674.87-1.445-.48-1.64-.48-.19-.387-1.155.48-2.12-.964-1.93.577-3.664.577-5.016.19-2.7.29-5.688-.48-8.293.58-1.062.096-1.64 1.35-2.122 1.928-.095 0-.48 1.158-1.35 1.543-1.253 1.157-3.085 2.99-3.664 3.473-.482.48 0-.58-.867.385-.482.385-.29.578-.965 1.64-.87 1.06-2.604 2.893-2.99 3.374-.577 1.158-1.155 2.51-1.83 4.052 2.022 1.35 4.05.965 5.398 1.832 1.735.098 3.857.48 5.69.965 1.06-.866 1.83.193 2.603.193 1.062.578 2.7.482 3.954 1.062 2.41.385 4.53 1.832 7.232 1.35.964.193 2.12.578 3.085.87-.097.19-.19.384-.386.384-1.64.288-3.085-.58-4.532-.482-.386-.29-.675-.386-1.06-.29-.772-.095-1.544-.288-2.218-.288-1.544-.482-2.604.385-5.112-1.254 0 1.447.192.578.192.578-1.445-.386-3.47-.963-5.4-.867-1.156-.77-2.603-.482-3.76-.77-2.7-.29-4.532-1.352-7.137-1.16 0 0-.096-.095-.192-.095-.77-.482-1.64-.193-2.12-.677-5.883-1.64-11.862-3.276-17.744-4.918-1.35-.674-2.507-.965-3.952-1.543-1.93-.674-3.763-1.832-5.786-2.604-2.025-.77-3.955-2.025-6.27-2.7-.58-.288-1.544.192-1.544-.77 0-.29-.29-.966-.096-1.062.676-1.062 2.604-1.062 3.568-1.543 2.313-.193 5.594-.676 8.39-1.254 1.06-1.253 2.7-.288 3.954-.77 4.725.193 9.644-2.22 15.043-1.543 6.847-1.06 14.465-1.64 20.926-1.06 4.922.38 9.84-.102 14.757.574zm-29.22 1.64c-1.253-.48-3.182.675-5.11.288-2.312-.386-4.82.387-7.135.772-2.22-.387-3.954.963-6.172.77-1.446.193-3.857.193-5.786.58-3.183.578-6.075 1.445-9.74 1.734 1.446 1.642 4.05 2.797 4.437 2.896 2.025.674 3.665 1.832 5.497 2.41 2.797.965 5.207 1.928 7.812 2.698 1.83.482 4.242 1.062 5.88 1.353 1.834-.098 4.438 1.544 6.944 1.93 1.446.192.77.868 2.797.288.772-1.832 1.93-3.086 2.605-4.725.868-1.158 1.352-1.255 2.604-2.604.866-.87 1.735-2.22 2.7-3.472.867-.965 2.022-2.025 2.603-2.7 0-.194 1.156-1.448 1.156-2.22-1.352-.29-2.895-.29-3.762-.386-2.604-.384-4.63.002-7.33.387zM911.172 1093.223c-.193-.096.867-.29 1.254-.19h.77c.58.19 1.35.48 1.93.385 1.35.58 2.7.29 3.856.87 2.313 1.06 5.4 2.023 7.907 4.145 1.543 1.64 3.566 2.314 5.11 3.76.29.867.674 1.255.48 2.025-1.544.1-2.313-2.12-3.76-2.7-1.062-.964-2.605-1.253-3.473-2.507-.192-.097-.58-.48-.77-.577-.193-.098-.29-.29-.29-.29-.098 0-.483-.19-.483-.29-.867-.866-1.156-.963-1.156-.577-.675-.193-1.157-.675-1.832-.578-.288-.097-.577-.29-.77-.578-1.16.192-1.448-.387-2.026-.482-1.06-.578-2.7 0-3.856-.387-.578.1-1.062-.48-1.736-.384-2.313-.677-3.277-.1-5.785.096-3.183 1.158-3.278.87-5.304 1.64-1.545.58-2.412.772-3.858 1.446-1.445.675-2.024 1.447-3.472 2.123-1.35.58-2.22.386-3.472.868-1.446.578-2.315 1.254-3.664 1.832-1.352.674-2.41.965-3.954 1.64-1.447.868-2.22 1.735-3.954 2.218-.48 0-1.157.097-1.64.097-.482-.097-1.062.096-1.35.096-.29.1-.772-.095-1.062-.19-1.736.578-2.7-.578-4.532-.387-1.736-.48-3.472-.674-5.497-1.35-1.93-1.062-4.436-1.543-6.557-2.988-2.22-1.158-4.437-2.896-6.076-5.016-.192-.29-.964-1.063-.29-.967 1.737.77 3.28 2.51 5.112 3.185 4.918 3.086 10.027 4.918 15.14 5.4.58.288 1.253 0 1.93.288.964 0 2.313.29 3.374.097 3.472.387 2.7-1.156 4.146-1.736 1.543-.578 2.508-.482 3.856-1.156.966-.577 1.446-1.253 2.604-1.735.965-.577 1.64-1.06 2.894-1.254 2.894-.288 2.99-.865 4.437-2.12.675-.385 1.062-.866 1.833-1.155.675-.58 1.253-.29 2.12-.58 1.156-.29 1.736-.674 2.894-1.062 1.062-.385 2.22-.866 2.797-.866 2.023-.867 3.182-.29 5.11-.482.58-.007 1.158.378 1.062.378zM927.275 1054.65c.29.096.48.192.676.387-.868 2.217-3.472.963-5.496 1.54-1.735.292-3.376 0-5.11.1-4.726.095-9.45-.1-13.982 0-2.41 0-5.594.192-8.102-.1-1.64-.19-3.664 0-5.304.1-3.953.384-7.714 0-11.86.288-.192-.193-.387-.193-.578-.193-1.736.867-3.666.1-5.305.386-3.954.194-7.715.58-11.572.58-2.697-1.158-5.495.577-8.292-.1-.386-.095.578-1.155.867-1.155 4.244-2.893 9.162 1.156 13.887-.192 5.595-1.542 11.86-.962 17.357-1.25 5.496-.292 10.703.19 16.298 0 1.542-.194 3.084-.194 4.726-.194.386 0 .866.097 1.253.097 4.242-.097 8.484-.097 12.247-.677 2.892.77 5.303.29 8.29.384zM864.305 1027.264c1.062 0 2.604-.096 3.762-.19 2.797-1.736 7.137 0 10.414.385 2.026-1.157 5.4-.483 7.523-.677 3.085-.77 7.136.192 10.704.192 6.268 0 13.5-.192 19.768-.48.965-.098 1.93-.675 2.797-.29.097.098.193-.096.29-.096-2.218 1.445-4.92 1.542-7.136 2.507-3.183 2.795-6.848 4.242-10.223 6.363-4.05 1.832-8.196 3.184-11.86 5.98-1.157.58-2.22 1.253-3.376 1.83l-2.797 1.354 3.183.19c7.52.482 14.562-1.35 22.276-.29 3.085 0 5.978-1.253 8.967-.673.77-.097 1.735 0 2.41 0-.096.194 0 .58-.096.675-.77 0-1.445.193-2.12.677-.772.387-1.735.387-2.605.578-2.603.288-5.207-.097-7.81.48-7.04.194-13.89-.673-20.734.1-3.182-.58-6.362 1.06-9.448.19-2.025.482-4.63-.578-6.173.578-4.63-.48-9.162-1.252-13.982-1.252-1.062-.387-2.7 0-3.184-1.158-.097-.096.58-1.06.58-.578 5.206-1.35 9.643 1.736 15.62 1.062 3.087-.387 6.27 0 9.547-.965.967-1.35 2.412-1.254 3.475-2.12 1.93-.29 3.856-.772 5.11-2.122 4.917-2.412 9.933-3.28 13.886-6.848 1.16-.482 2.315-1.062 3.568-2.12 0-.29 2.798-1.544 2.798-1.833-.097-.193-2.99.48-2.99.096-3.76 0-7.23-.674-10.222.387-5.4-1.35-10.993-1.447-16.78-.192-4.145-.482-8.39-1.062-12.438-.29-3.375-1.446-7.136 1.544-10.222-1.155-.29-.87-1.832-.58-1.735-1.64 3.276-.584 6.073 1.248 9.255 1.344zM852.637 967.09c5.69.29 11.09 2.316 16.685 4.05 3.856.58 8.1.868 11.57 2.413 3.954.386 7.33 1.252 11.378 1.445 2.123.096 4.34-.385 5.98.77 4.53.966 9.064 1.835 13.307 3.376 4.438 2.313 10.03 1.64 14.37 4.725l-.29-.386c-7.137 1.93-14.176 3.856-21.506 4.725-4.627-1.157-8.967.964-13.69.58-8.196 1.542-16.2 1.83-24.302 2.698-1.93-.77-4.146.192-6.172.578-1.157.192-2.7.098-3.665-.578.29-1.93 3.185-.578 4.34-1.062 5.69.578 10.994-2.024 16.49-1.543 2.797-.096 5.306-.096 8.294-.578.387-.48.77-.48 1.062-.58 5.784-.48 12.247-.866 17.744-1.252 4.05-1.64 8.39-2.313 12.922-2.797l.097-1.35c-8.39-2.797-17.07-5.017-25.94-6.076-4.438.193-8.197-.867-12.15-1.447-5.98-2.797-13.5-1.444-19.19-4.725-3.665 0-7.33-2.025-10.802-2.508-.096 0 .29-.482.676-.77.96-.095 1.83.772 2.793.29zM930.265 930.832c2.41.29 4.052-.29 4.63.87 0 .095-.098.288-.098.384-3.568 2.025-8.195 1.158-12.343 2.314-7.33 1.06-14.85 1.64-21.6 3.375-1.545 2.123-3.28 5.016-2.22 7.812.096.096-.29 0-.676.674.675.967-.386 1.352-.386 2.122-.386 1.832-.192 4.148-.966 7.33 5.595 1.254 10.897 1.156 15.527 2.41 3.375.965 8.1-.578 11.475 1.158 1.255 0 2.798-.193 3.664.867.193.48-.675.48-1.06.48-3.955-.675-6.944-.384-10.704-.866-4.438-1.93-11.188-.29-16.01-2.218-1.734 0-4.436.482-5.785-.482-4.53-1.06-9.933.29-14.176-1.735-7.907.29-14.465-2.988-22.564-2.988-.387-.387-.387-1.06-1.254-1.158-2.314-.772-5.305.676-6.75-1.255.577-1.06 2.12-.578 3.277-1.444 9.74-2.122 18.708-6.364 28.64-8.196 2.797-1.35 6.27-1.736 9.355-2.99 1.06-.096 2.12-.287 3.086.098 1.928-.58 4.05-1.254 6.17-1.254 4.533-.096 8.584-2.22 13.31-1.832 1.445-.87 3.663-.192 5.207-.676 2.99-.29 6.075-1.06 8.872-1.832.578-.29.867-.48.965-.676.867-.385.963-.385 1.64-.29.002.098.773-.19.773 0zm-36.453 7.813c-4.82 2.12-10.414 2.12-15.43 3.566-5.882 1.642-11.38 4.92-18.032 6.173 0 1.642.675 2.22 1.832 2.314 2.7.965 5.207 2.024 8.293 2.412 5.69.77 12.345.288 17.744 1.638 1.445 0 3.566 0 5.495.578.965-1.156 1.062-2.312 1.93-2.894 0-1.155.29-2.024.386-2.893.193-1.448.193-2.798.482-3.858.482-1.832.77-2.508.966-4.05 2.604-4.53-1.93-2.892-3.666-2.987zM922.357 909.135c-.29 2.025.097 3.76.77 5.4-.095.48-.48.965-.77 1.06-1.254 1.833 1.157 5.112-2.025 6.077-1.06.29-2.218-.193-3.085.578-3.375 1.254-4.438.29-7.715.578-2.895.193-6.364-1.254-9.16 0-1.544 0-2.798-.578-4.147-.77-3.664 1.35-7.81-.675-11.668.288-2.797.193-5.016-.963-7.812.29-.578.098-1.062.098-1.542.288-5.69 0-11.572-.578-17.165.1-2.797 0-5.497-.1-8.004-1.448-.482-.385.096-.965.577-1.156.678 0 1.642-.193 2.702.674 2.024-.867 3.855.1 5.594-.29 1.445.39 3.085.483 4.628.1 3.278-1.93 6.75.29 10.126.19 3.277-.096 6.558-1.35 9.933-.963 3.472.48 7.52.772 11.09.386 1.156-.385 2.51.193 3.567-.192 1.062.192 2.51.098 3.473.77 1.35-.19 2.99-.48 4.34-.866.77.386 1.928.29 2.603.482 3.664.29 4.437.77 7.81-.387 2.22.77 1.353-1.54 3.28-2.023 1.254-.48.578-1.062.578-1.736-.29-1.543 1.254-2.7.58-4.05-.482-1.255-.098-2.894-1.063-4.243-.095-.386-.095-.867.39-.867 1.25-.294 1.443.96 2.117 1.732zM897.864 878.662c3.566-.29 6.267 1.158 9.546 1.928.676.58 1.35.58 1.35.482.193.098 1.447.387 2.508.965l.29.098c1.446.77 1.544.674 2.603.77 1.736 1.157 3.954 1.35 5.4 2.41 2.894 2.12 7.137 4.147 9.74 7.232 1.83 2.314 3.664 3.568 5.303 5.883.098.578.48 1.156.098 1.832-.77 0-.288.674-1.445-1.06l-.192-.39c-1.06.29-1.93.772-2.604.967-1.64 0-4.147 0-5.883.19-1.06-.288-2.797.387-3.762 0-4.82.29-11.09.48-16.394.098-1.253.577-2.99.192-4.145.096-5.017-.29-9.55-1.83-14.08-1.35-3.086-.097-6.75.868-10.03-.386-2.313.29-5.978-.29-7.81-.192-.098 0-.193.192-.29.29-4.726-.58-10.8.19-15.333-.29-.48-.193-.867-.867-.192-.966 9.26-.77 20.927-.866 30.666-.096 2.218-.192 5.593.29 7.907-.098l.29.29c3.566 0 6.46.675 10.125 1.062.386-.29.77-.096 1.06.097 5.4.288 13.02-.482 18.227-.097 2.894-1.352 5.98.77 8.775-.676.29-.482.29.965 2.22-.385-.58-.193-1.158-1.158-.87-1.158-.77-1.544-2.987-1.35-4.05-4.437-.577.577-.386-.29-.866-.29 0 0-.482-.288-.676-.385-.097-.098-.48-.194-.48-.965-.966 0-1.16-.29-1.448-.098-.964-.386-.964-1.736-2.12-1.736-.482-.19-1.156-.386-1.447-.77-1.156-.29-1.64-1.448-2.7-1.643-1.542-1.06-3.856-.867-5.11-1.736-1.06 0-1.157-.865-2.41-.962-3.376-1.832-7.812-1.832-11.38-2.604-5.206 0-9.933-1.06-15.236 0-1.734 0-3.277.676-4.82.965-.867.58-1.93.386-2.798.868-7.137 2.217-14.37 5.11-20.54 10.027-2.508 1.254-3.762 3.856-6.364 5.11-.58.388-.193-.48 0-.77 1.93-2.605 4.53-5.4 7.23-7.425 2.605-1.93 6.077-3.375 8.97-5.11 2.604-1.16 5.4-1.93 7.617-2.895 2.798-.192 3.375-1.93 6.27-1.64.578-.097 1.06-.483 2.122-.386.48-.388.867-.194 1.543-.483.867 0 1.832 0 2.893-.29 3.852-.184 8.672-.762 12.724.105zM918.02 857.93c-3.473 2.508-7.908 2.12-11.092 4.82-1.253.387-2.604 1.062-3.664 1.736-2.987-.097-6.074 1.832-10.125 3.664 2.603 1.062 4.53.77 5.882.387 5.69 0 10.705-.965 16.683-.096 1.64 0 3.664-.48 5.11.19 2.798.1 6.076-.673 8.486.677.1.097.1.097.194.193-2.025.578-4.63.385-6.654.29-1.734-.483-3.568.192-5.496.192-3.76.096-7.715-1.255-11.09.385-3.086.387-5.98-1.062-8.97 0-2.7.867-5.4-.482-7.906.77-4.63-.77-10.606.098-15.622-.77-5.69 0-11.476.387-17.068-.578-3.086-.097-4.34-.677-7.23-1.255-.1 0 .48-.676.48-.867 3.084-1.832 4.146-2.412 7.425-3.666 4.532-1.832 9.354-1.445 13.887-2.7 6.365.098 12.633.967 17.262 7.04 8.486-5.11 17.552-5.688 25.747-10.125 3.664-1.158 7.04-2.99 10.704-4.146.578 0 1.542-.387 2.22-.192-2.995 1.737-6.08 3.087-9.164 4.052zm-54.293 6.365c-1.254.385-2.797-.098-3.953.674-1.543-.193-2.99.675-4.243 1.157l-2.313 1.64c.87.096 4.244.385 5.208.577 1.253 1.254 3.473.676 5.016 1.062 7.137-.963 15.14.192 23.723-.19-1.253-1.544-2.507-1.93-3.183-2.605-1.35-1.35-5.11-2.794-7.617-3.856-4.343.576-8.972-.39-12.636 1.54zM930.265 818.873c2.41.29 4.052-.29 4.63.87 0 .095-.098.288-.098.384-3.568 2.025-8.195 1.158-12.343 2.314-7.33 1.062-14.85 1.642-21.6 3.376-1.545 2.12-3.28 5.014-2.22 7.812.096.096-.29 0-.676.674.675.966-.386 1.35-.386 2.12-.386 1.833-.192 4.147-.966 7.33 5.595 1.255 10.897 1.157 15.527 2.41 3.375.966 8.1-.577 11.475 1.16 1.255 0 2.798-.194 3.664.866.193.48-.675.48-1.06.48-3.955-.675-6.944-.386-10.704-.868-4.438-1.928-11.188-.29-16.01-2.217-1.734 0-4.436.482-5.785-.482-4.53-1.06-9.933.29-14.176-1.734-7.907.29-14.465-2.988-22.564-2.988-.387-.387-.387-1.06-1.254-1.158-2.314-.77-5.305.677-6.75-1.254.577-1.06 2.12-.578 3.277-1.444 9.74-2.123 18.708-6.365 28.64-8.197 2.797-1.35 6.27-1.736 9.355-2.99 1.06-.096 2.12-.29 3.086.098 1.928-.58 4.05-1.254 6.17-1.254 4.533-.097 8.584-2.22 13.31-1.833 1.445-.87 3.663-.192 5.207-.676 2.99-.288 6.075-1.06 8.872-1.83.578-.29.867-.482.965-.677.867-.385.963-.385 1.64-.29.002.098.773-.193.773 0zm-36.453 7.81c-4.82 2.124-10.414 2.124-15.43 3.57-5.882 1.64-11.38 4.917-18.032 6.17 0 1.643.675 2.22 1.832 2.315 2.7.965 5.207 2.024 8.293 2.412 5.69.77 12.345.29 17.744 1.64 1.445 0 3.566 0 5.495.577.965-1.156 1.062-2.314 1.93-2.894 0-1.155.29-2.024.386-2.893.193-1.447.193-2.797.482-3.857.482-1.832.77-2.508.966-4.05 2.604-4.532-1.93-2.892-3.666-2.99zM895.55 794.38c3.76.288 7.618 1.157 11.667 1.64 4.92.578 10.03 1.156 14.66 3.472 2.41 2.41 5.398 3.664 7.327 6.846.29 1.736 1.543 1.447.965 3.568.096.29-.193 0-.193-.386-2.22.097-1.157-.48-2.797-2.7-2.508.77-4.34-.386-6.172.387-7.715-.482-14.37 0-21.89.77-1.833.868-4.147.868-6.27.58-1.35-.482-2.797.48-4.436.192-5.016-.29-10.608-.29-15.527.384-3.663-.19-7.23 0-10.99.388-1.448-.29-3.087-.77-5.112-.193-.58 1.35-1.254 1.06-.77 2.218-.192.19-.387.48-.676.674-.29-.096-.58 0-.868-.29.386-2.796 2.218-4.34 3.953-6.46 3.376-3.086 7.716-4.532 11.38-7.52 2.41-1.544 4.917-1.737 7.52-2.798 3.278-.482 6.942-.29 10.126-.965 2.698.67 5.302.478 8.1.19zm-15.238 2.41c-3.76-.192-6.363 1.542-9.933 2.603-.193.19-1.062 1.062-1.544 1.35-2.7 1.93-5.883 2.798-8.776 6.655 3.473-.29 5.21.963 6.85.288 2.41.29 4.53-.965 6.94-1.062 3.474 1.062 7.232.193 10.802.676 3.278.387 6.847-.385 10.222-.578 5.98-2.313 12.923-.676 19.094-1.35 2.99 0 6.462-.482 11.188.096-1.832-3.856-5.11-4.533-7.33-5.785-5.687-1.543-11.378-2.508-17.26-3.086-1.158-.192-2.604.29-3.664-.387-5.306.29-11.672-1.542-16.59.58zM923.707 763.907c.77.386 1.544 0 2.41.19.676 0 1.158.194 1.738.58.096.482-.482.868-.773 1.35-.674.868-1.445-.48-1.64-.48-.19-.386-1.155.48-2.12-.965-1.93.58-3.664.58-5.016.193-2.7.288-5.688-.482-8.293.577-1.062.098-1.64 1.352-2.122 1.93-.095 0-.48 1.156-1.35 1.543-1.253 1.158-3.085 2.99-3.664 3.472-.482.482 0-.578-.867.385-.482.388-.29.58-.965 1.642-.87 1.06-2.604 2.893-2.99 3.375-.577 1.154-1.155 2.505-1.83 4.048 2.022 1.352 4.05.965 5.398 1.832 1.735.098 3.857.48 5.69.965 1.06-.867 1.83.193 2.603.193 1.062.577 2.7.48 3.954 1.06 2.41.388 4.53 1.833 7.232 1.35.964.194 2.12.58 3.085.87-.097.19-.19.386-.386.386-1.64.29-3.085-.578-4.532-.482-.386-.29-.675-.385-1.06-.29-.772-.095-1.544-.288-2.218-.288-1.544-.48-2.604.385-5.112-1.254 0 1.447.192.58.192.58-1.445-.387-3.47-.965-5.4-.87-1.156-.77-2.603-.48-3.76-.77-2.7-.29-4.532-1.35-7.137-1.156 0 0-.096-.1-.192-.1-.77-.48-1.64-.19-2.12-.673-5.883-1.64-11.862-3.277-17.744-4.92-1.35-.673-2.507-.962-3.952-1.54-1.93-.676-3.763-1.832-5.786-2.604-2.025-.77-3.955-2.023-6.27-2.7-.58-.288-1.544.194-1.544-.77 0-.288-.29-.965-.096-1.06.676-1.062 2.604-1.062 3.568-1.544 2.313-.192 5.594-.675 8.39-1.253 1.06-1.255 2.7-.29 3.954-.772 4.725.192 9.644-2.22 15.043-1.544 6.847-1.06 14.465-1.64 20.926-1.06 4.922.38 9.84-.102 14.757.573zm-29.22 1.64c-1.253-.482-3.182.674-5.11.288-2.312-.386-4.82.386-7.135.77-2.22-.386-3.954.966-6.172.772-1.446.193-3.857.193-5.786.578-3.183.58-6.075 1.448-9.74 1.737 1.446 1.64 4.05 2.795 4.437 2.893 2.025.676 3.665 1.832 5.497 2.41 2.797.965 5.207 1.93 7.812 2.7 1.83.48 4.242 1.062 5.88 1.35 1.834-.095 4.438 1.544 6.944 1.93 1.446.192.77.868 2.797.29.772-1.834 1.93-3.088 2.605-4.727.868-1.156 1.352-1.254 2.604-2.604.866-.866 1.735-2.217 2.7-3.47.867-.966 2.022-2.027 2.603-2.702 0-.19 1.156-1.445 1.156-2.218-1.352-.29-2.895-.29-3.762-.386-2.604-.383-4.63.003-7.33.388zM1039.892 1471.288c1.254.482 2.123-.193 3.086 0-.29.676-.77 1.254-.77 2.025-.386 1.06-1.735 1.254-2.508 2.024-.77.192-.867 1.253-1.735 1.832-2.024 1.253-3.856 2.603-5.883 4.05-3.953.965-7.52 3.664-12.15 4.146-3.566 1.64-8.195 1.543-12.15 1.64-2.41 1.927-6.27.192-9.16 1.253-1.446.19-2.314-.387-3.472-.387-3.953 1.06-7.52-.48-11.187-1.062-2.604-1.155-5.4-1.444-7.908-2.796-.77-.578-1.93-.386-2.7-.675-3.085-2.025-6.653-3.28-9.45-5.498-1.35-.29-1.734-1.93-3.085-2.218-.482-.676-1.447-1.254-.867-2.7-.87-.675-1.64-2.024 0-1.734.385-.29.578-.1.096.29 3.182 3.855 8.39 7.425 13.5 10.124 1.93 0 3.857 1.06 5.014 2.024 3.954 1.062 7.618 2.507 11.67 2.507 1.446 0 2.894.29 4.146-.096 2.508.288 4.822.963 7.426.288 2.507-.193 5.015-.482 7.425-.964 7.717-1.544 16.105-1.93 22.472-6.172 2.313-1.543 3.953-2.895 5.98-5.208-.29-.48 1.253-.386.964-1.062-5.98.29-13.404.48-18.805.868-2.41 1.062-5.208-.192-7.81.192-2.315.29-4.728-.29-7.138-.192-1.157 0-2.22-.192-3.278.192-1.735-.29-3.954.192-5.4-.77-.674-.58.868-.482 1.062-.87 1.54-.577 3.086-.77 4.82-.096 1.35.192 2.7-.676 3.953-.676 3.567 0 6.653.965 9.063.676 0-.29 1.158 0 2.122 0 .675-.192 1.35-.192 1.734-.097 2.12 0 3.473-.387 5.4-.1 3.472-.865 7.81 0 10.607-.77.867-.193.77-.096 1.64-.193 1.443.007 2.118-.474 3.275.2zM1038.253 1452.194c-.965 2.122-3.277 2.313-4.918 3.473-2.218 1.156-4.63 2.313-7.137 2.604-.674.386-1.64.482-2.41.58-6.46 1.155-12.73 3.76-19.48 3.95-4.628.967-9.738.483-14.754.39-4.146 0-9.45-1.158-13.597-2.99-2.025-.482-4.244-1.255-5.69-2.508-2.122-.58-3.76-2.122-5.593-3.278-.385-.676-.867-1.35-.867-2.025 0-.098-.098-.193-.098-.193 1.93.48 3.76 1.93 5.69 3.086 1.54.868 2.41 2.024 4.05 2.41 2.796.58 5.013 2.508 7.905 2.314 5.305 1.352 11.092 1.253 17.455.868-.965-2.22.676-3.086-.097-4.436.097-.58.193-.966.385-1.353.29-.29.482-.58.87-.29.19.193.288.29.48.482-.192.578.193.964.48 1.253-.287 1.254 0 2.508-.19 4.05 4.725.483 7.907-.867 11.765-1.06 1.64-.772 4.146-.965 6.17-1.544 1.834-.58 4.053-.58 5.787-1.64 1.446.19 3.087-.29 4.243-1.736 2.508.097 4.436-1.735 7.33-2.314v-.48c.48-.193 1.444-1.255 2.603-.868-.094.48-.19.867-.383 1.252zM1025.91 1433.583c3.76.964 6.46 4.147 10.222 5.304.578 1.062 1.832 1.64 2.41 2.7-.867.29-1.832-.578-2.604-.964-.676-.676-1.35-1.06-2.314-1.158-2.12-1.543-5.015-2.217-7.232-3.953-1.64-.578-4.05-.77-5.882-1.64-3.278-.192-6.558-.192-9.74.386-3.085.58-6.074 1.832-8.485 3.954-3.184 1.543-6.848 2.7-10.317 3.472-5.4 2.7-12.248 2.41-17.84.193-3.28 0-5.11-2.797-8.102-3.183-.867-.675-1.64-1.352-2.7-1.736-.578-.48-.29-1.253-.77-1.93 0-.19-.386.098-.192.193 1.35.098 2.797.676 3.954 1.255 5.11 3.953 11.956 4.146 18.13 5.496 4.34-.19 7.906-2.217 12.054-3.182 2.603-1.64 5.882-2.218 8.485-3.856 1.93-.192 3.472-2.41 5.496-1.93 4.34-1.543 9.45-1.543 13.6 0 .573.292 1.15.485 1.826.58zM1045.39 1411.31c1.255 1.06 0 .964-.192 1.35-5.4 4.726-12.922 3.76-18.707 7.52-4.147 1.543-8.583 2.12-12.633 3.086-3.184.1-6.075 1.446-9.064.868-.964.77-2.41 0-3.472.386-6.942 0-10.896-1.35-16.296-2.508-1.832.193-3.76-.385-5.207-1.64-2.51.29-4.533-.48-6.365-1.446-4.437-1.64-8.87-3.374-12.054-6.46 0 .097-.58-.192-.29-.386.77-.482 1.64.386 2.41.77 4.532.387 7.426 3.665 11.477 4.63 1.832.966 3.856.966 5.594 1.64 7.424 1.93 12.342 3.568 20.153 3.664.096 0 .29-.674.29.098 6.652-.387 12.342-1.93 18.417-2.604 6.172-1.93 12.344-4.146 18.516-6.075 1.64-1.062 3.568-1.93 5.69-2.7.577 0 1.638-1.06 1.927-.675.096 0 .77 0-.193.48zM1033.335 1380.934c-1.156.866-2.7 1.445-3.856 2.41-4.728 1.35-9.838 2.604-14.948 2.604-3.664.58-7.426 1.35-10.992 2.22-1.93-.194-4.146-.58-6.365-.098-.29.77-.29 1.06-1.446 1.35 1.06 2.797 3.277 4.726 4.34 6.75.578.29 1.155 1.063.964 1.736-.386 1.158.19 1.158.867 1.832.868 0 1.642.097 2.412.48 2.023-.674 3.567-.674 5.206-.096 1.834 1.06 3.375.29 5.4 0 3.858-.578 7.522-1.446 11.477-1.64 3.086-.097 6.172-.097 9.45-.097.29.097.578.193.48.482 0 .29-.385.578-.674.675-4.82.29-9.45.482-13.692 1.832-3.182-.097-5.786.868-8.774.58-7.138-.677-14.658 0-21.408.866-2.99-.677-5.306.58-8.197.387-7.522-.58-15.333-.58-21.987-2.797-.965-.29-.48-1.062-.965-1.736.098-.29.58 0 .77-.096 2.314.48 4.34 1.542 6.654 1.446l.193.19c3.953-.19 7.617 1.063 11.09.87 2.603 1.445 5.496-.387 8.293.095 3.568.578 6.558-.676 10.028-1.156.48-.387 1.156-.772 1.833-1.545-1.16-3.087-4.73-5.016-5.112-7.522.482 0-.675-.77-.192-2.314-2.988-.866-5.4.29-7.617-.77-1.833-.483-3.666.48-5.595-.58-2.604 1.255-4.92.097-7.426.29-1.446-1.254-2.026 1.254-3.762.097-1.64.483-3.856.772-5.207 0 .097-.385.097-.674 0-1.06 1.446-.868 3.472.288 4.918-.868 2.122-.193 3.665.965 5.786.578 6.172-1.157 13.02.193 19.287-.193 4.34-.19 9.064.482 13.212-.964 6.557-1.06 13.403-1.93 19.576-3.183 1.542-.964 3.375-2.023 5.304-1.928.287.292.576.485.673.872zM1037.77 1368.687c.29.096.482.19.677.386-.87 2.218-3.473.964-5.497 1.542-1.735.29-3.376 0-5.11.097-4.726.097-9.45-.097-13.982 0-2.41 0-5.594.192-8.102-.097-1.64-.192-3.664 0-5.304.097-3.953.386-7.714 0-11.86.29-.192-.193-.387-.193-.578-.193-1.736.866-3.666.096-5.305.385-3.955.192-7.716.58-11.573.58-2.698-1.158-5.496.578-8.293-.1-.386-.095.578-1.154.867-1.154 4.245-2.893 9.163 1.156 13.888-.192 5.595-1.543 11.86-.964 17.357-1.253 5.497-.29 10.704.19 16.3 0 1.54-.193 3.083-.193 4.725-.193.386 0 .866.097 1.253.097 4.242-.098 8.484-.098 12.247-.677 2.89.77 5.302.286 8.29.384zM972.1 1352.29c1.446.195 2.41 1.642 4.052 1.642 3.084 1.54 5.978 2.314 9.738 2.507.577.29 1.543.386 2.22.577 2.12.193 4.05 1.157 6.073 1.157 1.254.387 2.99-.29 4.146 1.254 1.543-.386 2.7-.77 3.664-1.254.386-.77 1.445-1.736 1.35-2.797.676-1.06.098-1.928.58-3.28.578-1.83.578-2.892 1.542-4.818.482-.39.966-.772 1.543-.678.387.966 0 2.12 0 3.28-1.255 2.507-1.062 3.856-1.93 7.135.77.482.482.868.77 1.062 2.41.384 5.016.095 7.04-.388 1.254.192 2.314-.29 4.242-.29.387-1.155 1.254-.288 1.832-.577 3.473-.29 6.56-2.22 10.126-2.41 1.544-1.353 4.146-1.158 5.69-2.316 1.83.192 2.795-2.218 5.11-1.64 1.156-.867 2.218-1.928 3.663-1.928.387.29.77.578 1.157.964-.192 1.446-1.832 1.544-2.893 2.314-1.64.192-3.183.578-4.34 1.64-2.122-.097-3.376 1.735-5.4 1.64-.77.48-1.543.578-2.12.964-.772-.098-1.447.193-2.026.482-4.435 0-7.906 2.893-12.343 2.604-.578.387-1.64.387-2.218.482-4.726 1.64-10.224 1.35-15.045 1.253-2.218-.58-4.917 0-6.847-.964-5.98-1.06-11.766-3.472-17.455-5.013-2.698-1.062-5.207-2.7-7.714-4.052-2.8-1.543-6.076-2.604-8.102-5.4 0-.192 0-.48.19-.577 4.348 2.796 8.88 5.302 13.703 7.423zM1040.472 1311.79c.097.29.097.676 0 .965-.578.29-.965.386-1.735.58-.482.095-.965.095-1.447.095-1.735.388-2.795.578-4.628 1.158-.386.192-.58.385-.964.578-.482 0-.676-.096-1.158-.096-2.024-.1-4.725.674-5.207.48-4.82.868-4.146 1.253-9.643 1.543-3.954.192-6.85.58-10.513.965 0 1.93-1.254 3.762-1.543 5.495-.096.966-.192 1.447-.387 2.412-.385 1.254-1.156 1.832-.964 3.183 0 2.7.192.87-1.35 3.567-.192.29-.29.675-1.352 2.12 2.315-.19 3.087-.384 4.147-.577 1.447.965 4.052.097 6.365.193 6.075.29 11.86-.58 17.357-.29 5.11.193 10.124-.77 14.657-.29.096.29.096.677.096 1.063-.385 2.313-3.085.578-4.146 1.06-4.82.387-9.257.387-14.655.387-6.56.193-13.115-.386-19.77.097-4.534.387-8.487-.288-12.634.48-7.04-1.155-14.176 2.316-21.12.677-1.735-.097-3.47.578-5.206.097-.867-.48-3.953-.19-2.313-1.54 5.398-.58 10.992.095 16.488-.1 8.1-.385 3.183-.77 5.305-.964 2.796-.29 4.437-.19 7.33-.19 2.603 0 4.05.29 6.845 0 .58-1.353.965-2.123 1.544-3.28 1.253-2.41.386.965.964-3.567.193-1.445.29-1.833.29-3.28 0-1.254.578-1.83.867-3.086.29-.866.19-1.83.386-3.47-1.255 0-1.64.095-2.22.095-2.024-.578-4.82 1.446-6.653-.29-2.312-.192-3.568-.385-5.496.388-1.35-.1-2.796-.29-4.53-.482-.388-.192-.966.29-1.352.29-1.542.866-2.507-1.64-3.954-.482-.675 0-1.35.676-2.022-.29-3.185.868-5.69.58-8.392-1.157-.868.387-1.254-.19-1.64-.674-.097-.098-.192-.29-.097-.482.29-.77.77.387.965.29 0 0 .578.482 1.155-.097.58-.482 1.062.77 1.642.48 3.664.87 7.618.87 11.38.388 3.663.868 9.063 0 12.535.868.868-.097 1.64-.77 2.99 0 1.156-1.254 2.603-.29 3.47-.867 4.437-.096 8.97-.48 13.404-.577 4.34 0 2.894-.676 6.173-1.158.675.193 1.734-.29 2.218.098 1.254-.192 2.41-.192 3.664-.387 2.603-.385 6.17-.578 8.485-1.157.387.192.868-.097 1.543-.868-.386-.867.675-.386.675-.578 1.063-.39 2.51.573 4.15.187zM955.513 1284.984c.193 1.64.87 2.796 1.158 4.53-.577 2.605-.095 4.92.87 8.103 1.35-.675 2.312-.482 2.795-.29 1.833-.192 4.146.29 5.98.193 1.733-.387 3.854-.578 5.592-.578 2.7-1.35 6.075-1.736 8.775-2.314 1.543.386 3.375 0 4.82.192 6.56 0 13.31-1.64 19.48-2.507 1.156.096 2.893-.193 3.953.096.19-.097.675-.097.77-.193 4.822-.19 8.68-.29 13.502-.29 2.217 0 4.146.388 6.17.482h-.096c-2.505 1.83-5.978 1.157-8.678 1.735-3.953-.966-8.1 1.06-12.344-.578-2.508 2.604-5.497.578-8.1 1.445-2.412-.29-5.305-.192-7.33 1.062-.965-.098-1.832.29-3.183-.192-2.313 1.35-5.206.675-7.618.675-3.953-.867-7.136 1.735-10.896 1.253-2.697 1.352-5.785 1.158-8.87 1.158-.965-1.06-2.508-.097-4.437-2.22-.675 4.244-.29 6.75-.482 9.355.483 2.024-.288 4.243 0 6.462-.096.097-.096.19-.19.288-.77-.097-.965-.964-1.254-1.54.578-1.932.48-3.858 0-5.788-.388-.482 0-1.35.096-2.314-1.06-1.445-.193-3.567-.964-4.917.48-1.543-.193-3.182-.097-4.725-.866-1.543.29-3.568-.577-5.11 0-1.353-1.832-2.7-.29-3.762.098-.098.29-.192.48-.29.392.096.874.192.97.578zM1037.77 1248.146c.29.097.482.192.677.386-.87 2.22-3.473.965-5.497 1.543-1.735.29-3.376 0-5.11.097-4.726.098-9.45-.097-13.982 0-2.41 0-5.594.193-8.102-.097-1.64-.19-3.664 0-5.304.097-3.953.386-7.714 0-11.86.29-.192-.192-.387-.192-.578-.192-1.736.866-3.666.097-5.305.386-3.955.192-7.716.58-11.573.58-2.698-1.16-5.496.577-8.293-.1-.386-.096.578-1.155.867-1.155 4.245-2.893 9.163 1.156 13.888-.192 5.595-1.543 11.86-.965 17.357-1.254 5.497-.29 10.704.193 16.3 0 1.54-.192 3.083-.192 4.725-.192.386 0 .866.098 1.253.098 4.242-.098 8.484-.098 12.247-.677 2.89.77 5.302.287 8.29.383zM1025.91 1230.114c3.76.965 6.46 4.146 10.222 5.305.578 1.06 1.832 1.64 2.41 2.7-.867.288-1.832-.58-2.604-.965-.676-.676-1.35-1.062-2.314-1.158-2.12-1.543-5.015-2.218-7.232-3.953-1.64-.58-4.05-.77-5.882-1.64-3.278-.193-6.558-.193-9.74.386-3.085.578-6.074 1.832-8.485 3.953-3.184 1.543-6.848 2.7-10.317 3.472-5.4 2.7-12.248 2.41-17.84.193-3.28 0-5.11-2.797-8.102-3.184-.867-.675-1.64-1.35-2.7-1.735-.578-.482-.29-1.254-.77-1.93 0-.192-.386.097-.192.193 1.35.096 2.797.675 3.954 1.253 5.11 3.954 11.956 4.147 18.13 5.497 4.34-.193 7.906-2.22 12.054-3.183 2.603-1.64 5.882-2.218 8.485-3.857 1.93-.19 3.472-2.41 5.496-1.93 4.34-1.542 9.45-1.542 13.6 0 .573.292 1.15.485 1.826.58zM953.392 1206.78c0 2.987-.097 5.88.676 9.16 7.23.48 14.176.48 19.77-1.352 1.54-.29 3.085-.48 4.338-.964 6.076-1.736 10.608-.482 16.586-2.604 3.763-.29 7.138-1.062 10.705-1.64 5.015-.87 10.224-.29 14.852-1.352 2.987 0 6.557-.386 9.737-1.253 2.604.097 5.306-1.062 7.908-1.543.388.19.868.58 1.062.867-.386 2.893-4.63 1.254-6.46 2.12-6.56 1.254-12.924 1.93-19 2.12-3.663.1-7.52 1.063-11.28 1.544-3.762.482-6.56.77-10.318.77-1.063.58-2.51.772-3.857.482-1.254 1.157-2.508.482-3.473 1.157-3.183.482-6.558 1.352-10.028 1.832-3.087 0-6.462 1.833-9.258 1.352 0 0-.48.192-.578.29-2.797-.098-6.172.288-10.03-1.158-.77 2.217-.19 4.436-.385 6.074-.577 6.074 1.255 11.67.29 17.357 0 .482.578 1.158.19 1.64-.384.387-.77.098-1.154 0-1.062-1.445-.772-3.76-.772-5.398-.674-.77.098-2.314-.19-3.28.577-5.978-.388-11.86-.388-17.26 0-5.016-.965-11.09-1.254-16.2-.386-.87.387-1.447.87-1.834.095 0 0-.19.095-.096.96 2.898 1.345 5.984 1.345 9.167zM1025.91 1162.13c3.76.965 6.46 4.147 10.222 5.304.578 1.062 1.832 1.642 2.41 2.7-.867.29-1.832-.577-2.604-.964-.676-.675-1.35-1.06-2.314-1.157-2.12-1.543-5.015-2.218-7.232-3.954-1.64-.578-4.05-.772-5.882-1.64-3.278-.193-6.558-.193-9.74.386-3.085.58-6.074 1.832-8.485 3.954-3.184 1.542-6.848 2.7-10.317 3.472-5.4 2.7-12.248 2.41-17.84.192-3.28 0-5.11-2.796-8.102-3.182-.867-.676-1.64-1.352-2.7-1.736-.578-.48-.29-1.254-.77-1.93 0-.19-.386.098-.192.193 1.35.096 2.797.675 3.954 1.253 5.11 3.953 11.956 4.146 18.13 5.496 4.34-.193 7.906-2.22 12.054-3.184 2.603-1.64 5.882-2.22 8.485-3.856 1.93-.192 3.472-2.41 5.496-1.93 4.34-1.543 9.45-1.543 13.6 0 .573.292 1.15.485 1.826.58zM964.192 1134.455c2.604.193 5.11 1.254 7.62 1.736 7.712 0 15.234 2.024 22.37 3.278 3.567 2.604 8.485 1.157 12.633 2.024 5.98 1.254 11.09.48 17.166 1.062 4.147.387 8.39.482 12.344.676.29.097 1.544.097 1.544.097l.385.868-.578.867s-1.156.098-1.254-.097c-.577.58-2.218 0-3.47 0-5.883-1.446-12.345-.676-18.227-1.83-5.98.865-12.345-.773-18.517-.58-.29.867-.77.386-1.06.675-2.895 1.156-4.63 4.242-7.813 4.822-4.05 1.35-8.873 2.023-13.404 2.988-5.595 1.253-11.09 3.085-16.876 2.797-.192-.097-.192-.58-.29-.77 4.727-.966 8.97-2.41 13.403-2.51 5.98-1.54 12.922-1.83 18.71-4.82 1.54-1.735 3.47-2.603 6.46-4.05-2.313-1.445-3.955-2.025-5.496-1.832-2.023-.676-4.53-.578-6.75-1.35-5.785-.388-10.897-.772-16.587-1.93-2.99.578-5.11-.965-7.906 0-.868-.29-1.833-.387-2.604-.868 0-.675.676-1.062 1.254-1.35 2.123.388 4.824.29 6.945.098zM964.192 1102.537c1.736.482 3.182 1.543 5.015 1.255.964.288 2.024.19 3.087.288.867-.288 1.928.29 2.988.193 2.025-.58 3.857-.098 5.883-.58 2.025-.288 3.472.193 5.4.193 1.35.482 2.507-.48 4.05-.192 2.603 0 6.364-.097 9.065.098 4.146-1.446 8.58-.48 12.824-.58.77-.192 1.735-.096 2.508-.096.577.096 1.156-.386 1.734-.386 6.462-.193 13.31.29 19.384-.482 1.35.675 2.7-.964 3.664.482.77 1.64-1.64.867-2.797 1.35-2.41 0-4.725.676-7.23.386-2.895.677-5.69-.386-8.68-.096-1.543-.578-3.184.192-4.92.096-2.217-1.155-4.145.097-6.17.58-4.533-.772-10.318 0-14.853-.29-3.278 1.446-6.942.192-10.027 1.062-2.99-.964-6.655.192-11.86-.675.577.578-3.184-.193-2.798.097.867.77 5.496 2.218 5.785 2.507 1.446.482 3.276.675 4.532 1.446 3.665 1.254 8.004 1.06 11.38 3.183 4.725.964 9.062 2.12 13.98 2.7.48.192 1.157 0 1.736.192 1.832-.193 3.085 1.735 4.918 1.543.29.098.29.29.193.58-.676.288-1.35.385-1.928.19-2.604-.385-5.306.482-7.908.87-3.086.963-6.364 1.542-9.645 2.12l-.578.386c-2.797.77-5.398.77-8.1 1.736-.966.77-3.665.866-3.665.866l-4.823 1.158 4.63.19c4.82 1.255 10.704 0 15.525.29 2.023-.963 4.436.193 6.46.193 2.894.096 6.076-1.157 8.776-.483 2.796-.096 4.82-.096 7.425-.48 2.313-.29 5.208.385 7.81.192 4.245.096 8.777-.773 13.31.287.772 1.062 3.567-1.06 3.473.58-2.41.77-5.015.096-7.618.867-.77-.193-1.736-.387-2.508.097-3.47.387-8.004-.77-11.668 0-1.062.098-1.735-.19-2.797-.19-3.76.77-7.328.384-11.186.673-1.835-.77-4.053-.48-5.98 0-4.437 0-8.486-1.252-12.922-.096-4.727.096-9.837-.578-14.947-.386-1.06.482-2.12-.096-3.277 0-1.254 0-2.604-.096-3.856.387-.868 0-1.736.288-2.314-.386-.29.29-.385.098-.866-.096-.193-.58.577-.29.577-.482 1.062-.29 2.604.193 4.052-.578 1.35 0 1.54-2.025 3.276-1.543 1.158.58 2.41-.675 3.664-.48 4.63-.868 8.584-2.894 13.502-3.184.77-.77 2.797-.577 3.76-.868 2.99-1.06 6.365-1.06 11.67-2.988-6.075-2.508-11.38-1.06-14.755-3.663-2.12-.58-4.726-.677-6.558-1.833-.77-.193-1.735-.387-2.604-.098-2.12-.19-3.663-1.928-5.882-1.928-1.253 0-2.12-1.447-3.375-1.447-.965-.674-2.218-.77-3.182-2.022-2.796 0-4.918-.482-6.847-1.544-.386-.193-.29-.578-.578-.964 0-.387-.097-.77.386-.965 1.16.29 1.933 1.062 3.282.772zM1033.913 1069.557c.193.482 1.736.482 1.158 1.254-2.7 1.835-6.364-.19-9.257 1.353-9.74 2.99-20.06.77-29.99 2.12-5.787.772-11.188.772-16.877 1.93l-3.277-.096-.1.386 3.28 1.446c3.76.77 8.582.865 12.15 1.734 3.374.867 6.27.963 9.546 1.93 3.568.675 7.04.287 11.09.385.29.19.772.096.965.385-5.11 2.12-11.38.675-16.683 2.218-1.446 1.254-3.856.868-5.594 1.64-6.17 0-12.054 2.122-17.84 2.41-.674.58-1.832.677-2.796 1.063 0 .386-2.604.964-2.508 1.157.096.29 3.085.193 3.182.676 9.547 1.444 18.227 0 27 1.06 5.4-2.024 10.995 1.156 16.2-.578 6.174-2.025 13.115.287 18.612-1.833 1.64 0 3.375-.868 4.82 0 1.737.097 4.63-1.64 5.98.19 0 .194.192.097.29.194-1.352.867-3.473.19-4.727.385-7.328 1.83-15.043 2.313-22.66 3.472-3.087 0-6.173.482-9.065-.387-3.76.098-7.617.387-11.572-.29-9.16-.288-17.55 1.544-26.133-.964-3.183-.963-6.27 0-9.064-.673 0-.578-2.12.48-1.64-.387.58-.29.964-1.254 2.025-1.445 4.34-2.412 10.028-1.736 14.85-3.473 5.884-1.062 12.538-1.735 18.612-3.182l3.183-.77v-.388l-3.183-.578c-3.955-.676-7.716-1.254-11.67-1.736-4.82-2.217-10.51-2.023-15.332-4.146-.29-.29-.77-.48-1.156-.676.77-1.156 3.086-.097 4.242-.19 4.05-2.122 8.582-.483 13.02-1.642 10.126-1.06 17.646-.48 27.58-1.35 2.312-.676 5.882-.676 8.486-1.062 4.63-.674 9.546 1.158 13.018-1.734.678-.485 1.257-.293 1.835.19zM1038.253 1051.235c-.965 2.122-3.277 2.314-4.918 3.472-2.218 1.158-4.63 2.314-7.137 2.604-.674.388-1.64.483-2.41.58-6.46 1.156-12.73 3.76-19.48 3.954-4.628.963-9.738.48-14.754.385-4.146 0-9.45-1.157-13.597-2.99-2.025-.48-4.244-1.253-5.69-2.507-2.122-.58-3.76-2.12-5.593-3.278-.385-.676-.867-1.35-.867-2.024 0-.097-.098-.192-.098-.192 1.93.482 3.76 1.93 5.69 3.086 1.54.867 2.41 2.025 4.05 2.412 2.796.578 5.013 2.507 7.905 2.312 5.305 1.352 11.092 1.254 17.455.868-.965-2.218.676-3.086-.097-4.437.097-.58.193-.966.385-1.352.29-.29.482-.578.87-.29.19.193.288.29.48.482-.192.578.193.965.48 1.254-.287 1.254 0 2.507-.19 4.05 4.725.483 7.907-.867 11.765-1.06 1.64-.772 4.146-.964 6.17-1.542 1.834-.58 4.053-.58 5.787-1.64 1.446.19 3.087-.29 4.243-1.737 2.508.098 4.436-1.734 7.33-2.313v-.48c.48-.193 1.444-1.255 2.603-.868-.094.48-.19.866-.383 1.25zM955.513 1022.885c.193 1.64.87 2.797 1.158 4.53-.577 2.605-.095 4.92.87 8.103 1.35-.676 2.312-.48 2.795-.29 1.833-.19 4.146.29 5.98.193 1.733-.385 3.854-.578 5.592-.578 2.7-1.35 6.075-1.734 8.775-2.312 1.543.386 3.375 0 4.82.19 6.56 0 13.31-1.638 19.48-2.506 1.156.097 2.893-.192 3.953.097.19-.096.675-.096.77-.19 4.822-.194 8.68-.29 13.502-.29 2.217 0 4.146.386 6.17.48h-.096c-2.505 1.833-5.978 1.157-8.678 1.736-3.953-.964-8.1 1.062-12.344-.58-2.508 2.605-5.497.58-8.1 1.448-2.412-.29-5.305-.193-7.33 1.06-.965-.096-1.832.29-3.183-.19-2.313 1.35-5.206.675-7.618.675-3.953-.87-7.136 1.734-10.896 1.252-2.697 1.35-5.785 1.157-8.87 1.157-.965-1.063-2.508-.098-4.437-2.22-.675 4.243-.29 6.75-.482 9.353.483 2.025-.288 4.243 0 6.462-.096.096-.096.192-.19.29-.77-.098-.965-.966-1.254-1.544.578-1.928.48-3.856 0-5.785-.388-.48 0-1.35.096-2.312-1.06-1.447-.193-3.57-.964-4.92.48-1.544-.193-3.183-.097-4.726-.866-1.543.29-3.568-.577-5.11 0-1.35-1.832-2.7-.29-3.76.098-.098.29-.193.48-.29.392.096.874.192.97.578zM1028.515 1003.6c-3.473 2.506-7.908 2.12-11.092 4.82-1.253.387-2.604 1.06-3.664 1.736-2.988-.098-6.075 1.832-10.126 3.664 2.604 1.06 4.532.77 5.883.385 5.69 0 10.705-.964 16.683-.096 1.64 0 3.664-.483 5.11.192 2.798.096 6.076-.677 8.486.674l.193.192c-2.026.578-4.63.386-6.655.29-1.734-.482-3.568.19-5.496.19-3.762.098-7.716-1.253-11.092.387-3.085.387-5.978-1.06-8.968 0-2.7.87-5.4-.48-7.907.772-4.63-.772-10.606.097-15.622-.772-5.688 0-11.475.387-17.067-.578-3.086-.096-4.34-.675-7.23-1.254-.1 0 .48-.674.48-.867 3.084-1.832 4.146-2.41 7.425-3.664 4.532-1.832 9.354-1.446 13.887-2.7 6.365.097 12.633.965 17.262 7.04 8.486-5.112 17.552-5.69 25.747-10.126 3.665-1.156 7.04-2.988 10.705-4.146.577 0 1.54-.387 2.218-.193-2.993 1.737-6.08 3.088-9.163 4.053zm-54.293 6.363c-1.254.385-2.797-.097-3.953.676-1.544-.193-2.99.673-4.244 1.155l-2.314 1.64c.87.098 4.244.387 5.208.58 1.253 1.253 3.473.673 5.016 1.06 7.136-.964 15.14.193 23.722-.192-1.253-1.543-2.507-1.93-3.183-2.604-1.35-1.352-5.11-2.8-7.617-3.858-4.343.576-8.972-.388-12.636 1.54zM1037.77 989.327c.29.096.482.192.677.386-.87 2.22-3.473.965-5.497 1.542-1.735.29-3.376 0-5.11.097-4.726.098-9.45-.097-13.982 0-2.41 0-5.594.194-8.102-.097-1.64-.19-3.664 0-5.304.097-3.953.387-7.714 0-11.86.29-.192-.192-.387-.192-.578-.192-1.736.867-3.666.098-5.305.386-3.955.193-7.716.58-11.573.58-2.698-1.16-5.496.578-8.293-.1-.386-.095.578-1.155.867-1.155 4.245-2.892 9.163 1.157 13.888-.192 5.595-1.543 11.86-.964 17.357-1.253 5.497-.29 10.704.192 16.3 0 1.54-.192 3.083-.192 4.725-.192.386 0 .866.097 1.253.097 4.242-.097 8.484-.097 12.247-.677 2.89.77 5.302.287 8.29.384zM1025.91 971.294c3.76.964 6.46 4.146 10.222 5.304.578 1.062 1.832 1.64 2.41 2.7-.867.29-1.832-.58-2.604-.964-.676-.676-1.35-1.062-2.314-1.158-2.12-1.542-5.015-2.217-7.232-3.953-1.64-.578-4.05-.77-5.882-1.64-3.278-.192-6.558-.192-9.74.386-3.085.578-6.074 1.83-8.485 3.953-3.184 1.542-6.848 2.7-10.317 3.472-5.4 2.7-12.248 2.41-17.84.192-3.28 0-5.11-2.796-8.102-3.183-.867-.676-1.64-1.35-2.7-1.734-.578-.482-.29-1.254-.77-1.93 0-.192-.386.097-.192.193 1.35.096 2.797.676 3.954 1.254 5.11 3.953 11.956 4.146 18.13 5.496 4.34-.192 7.906-2.22 12.054-3.184 2.603-1.64 5.882-2.22 8.485-3.856 1.93-.193 3.472-2.412 5.496-1.93 4.34-1.544 9.45-1.544 13.6 0 .573.29 1.15.485 1.826.58zM1045.39 949.02c1.255 1.062 0 .963-.192 1.35-5.4 4.727-12.922 3.762-18.707 7.522-4.147 1.543-8.583 2.12-12.633 3.086-3.184.097-6.075 1.446-9.064.87-.964.77-2.41 0-3.472.384-6.942 0-10.896-1.35-16.296-2.508-1.832.193-3.76-.385-5.207-1.64-2.51.29-4.533-.48-6.365-1.446-4.437-1.64-8.87-3.375-12.054-6.46 0 .097-.58-.194-.29-.386.77-.482 1.64.387 2.41.77 4.532.387 7.426 3.665 11.477 4.63 1.832.964 3.856.964 5.594 1.64 7.424 1.93 12.342 3.567 20.153 3.664.096 0 .29-.674.29.097 6.652-.386 12.342-1.93 18.417-2.604 6.172-1.93 12.344-4.148 18.516-6.076 1.64-1.062 3.568-1.93 5.69-2.7.577 0 1.638-1.062 1.927-.675.096-.002.77-.002-.193.48zM1033.335 918.643c-1.156.87-2.7 1.447-3.856 2.412-4.728 1.35-9.838 2.604-14.948 2.604-3.664.578-7.426 1.35-10.992 2.218-1.93-.193-4.146-.58-6.365-.097-.29.772-.29 1.062-1.446 1.35 1.06 2.8 3.277 4.727 4.34 6.75.578.29 1.155 1.063.964 1.737-.386 1.157.19 1.157.867 1.832.868 0 1.642.096 2.412.48 2.023-.676 3.567-.676 5.206-.098 1.834 1.062 3.375.29 5.4 0 3.858-.578 7.522-1.445 11.477-1.64 3.086-.095 6.172-.095 9.45-.095.29.096.578.19.48.48 0 .288-.385.58-.674.675-4.82.29-9.45.48-13.692 1.832-3.182-.096-5.786.87-8.774.58-7.138-.676-14.658 0-21.408.867-2.99-.676-5.306.578-8.197.387-7.522-.58-15.333-.58-21.987-2.797-.965-.29-.48-1.06-.965-1.736.098-.287.58 0 .77-.096 2.314.482 4.34 1.542 6.654 1.445l.193.193c3.953-.193 7.617 1.062 11.09.867 2.603 1.446 5.496-.386 8.293.098 3.568.58 6.558-.675 10.028-1.157.48-.387 1.156-.77 1.833-1.543-1.16-3.086-4.73-5.014-5.112-7.52.482 0-.675-.772-.192-2.314-2.988-.867-5.4.29-7.617-.77-1.833-.483-3.666.48-5.595-.58-2.604 1.255-4.92.097-7.426.29-1.446-1.254-2.026 1.253-3.762.098-1.64.48-3.856.77-5.207 0 .097-.387.097-.676 0-1.062 1.446-.867 3.472.29 4.918-.867 2.122-.193 3.665.965 5.786.578 6.172-1.156 13.02.193 19.287-.193 4.34-.19 9.064.482 13.212-.963 6.557-1.062 13.403-1.93 19.576-3.184 1.542-.964 3.375-2.023 5.304-1.928.287.29.576.482.673.868zM1011.06 908.807c.096.77.096 1.446-.29 2.025-.192.29-.676.19-1.06 0-.966-.29-.58-1.736-1.35-1.93-.194-.578-.388-1.156.095-1.543.482.096.964.096 1.446-.193.388.483.58 1.158 1.16 1.64zm18.032-.965c-.192.868 0 1.93-.675 2.604-.386-.097-.675-.193-1.06-.386-.39-.676-1.063-1.254-.772-1.93.578-.482.867-.965 1.254-1.445.577-.29.866.482 1.252 1.157z"/></g><path d="M2048 0M2048 1536M0 1536M0 0" fill="none" stroke="#17192D" stroke-width="3"/></g></svg>