<?xml version="1.0" encoding="iso-8859-1"?>
<!-- Generator: Adobe Illustrator 15.1.0, SVG Export Plug-In . SVG Version: 6.00 Build 0)  -->
<!DOCTYPE svg PUBLIC "-//W3C//DTD SVG 1.1//EN" "http://www.w3.org/Graphics/SVG/1.1/DTD/svg11.dtd">
<svg version="1.1" xmlns="http://www.w3.org/2000/svg" xmlns:xlink="http://www.w3.org/1999/xlink" x="0px" y="0px" width="2048px"
	 height="1536px" viewBox="0 0 2048 1536" style="enable-background:new 0 0 2048 1536;" xml:space="preserve">
<g id="btxtb_x5F_3">
	<g>
		<path style="fill:#17192D;" d="M1168.853,871.91c3.762,0.289,7.618,1.156,11.669,1.639c4.918,0.578,10.029,1.156,14.658,3.473
			c2.41,2.41,5.399,3.664,7.328,6.846c0.289,1.736,1.543,1.447,0.965,3.568c0.096,0.289-0.193,0-0.193-0.387
			c-2.219,0.098-1.158-0.482-2.797-2.699c-2.508,0.771-4.339-0.387-6.172,0.385c-7.715-0.48-14.368,0-21.89,0.771
			c-1.833,0.869-4.146,0.869-6.269,0.578c-1.35-0.48-2.797,0.482-4.436,0.193c-5.016-0.289-10.607-0.289-15.527,0.387
			c-3.664-0.193-7.23,0-10.992,0.385c-1.447-0.289-3.086-0.771-5.111-0.191c-0.578,1.35-1.252,1.061-0.771,2.217
			c-0.191,0.193-0.385,0.482-0.674,0.676c-0.289-0.098-0.58,0-0.869-0.289c0.387-2.797,2.219-4.34,3.955-6.461
			c3.375-3.086,7.715-4.533,11.379-7.521c2.41-1.545,4.918-1.736,7.521-2.797c3.277-0.482,6.943-0.291,10.125-0.965
			C1163.453,872.391,1166.055,872.199,1168.853,871.91z M1153.615,874.32c-3.76-0.193-6.363,1.543-9.932,2.604
			c-0.193,0.193-1.061,1.061-1.543,1.35c-2.699,1.93-5.883,2.797-8.775,6.654c3.473-0.289,5.207,0.965,6.848,0.289
			c2.41,0.289,4.531-0.963,6.941-1.061c3.473,1.061,7.232,0.193,10.801,0.676c3.279,0.385,6.848-0.387,10.223-0.578
			c5.979-2.316,12.922-0.676,19.094-1.352c2.988,0,6.461-0.482,11.186,0.098c-1.832-3.857-5.11-4.533-7.328-5.787
			c-5.689-1.543-11.379-2.508-17.262-3.086c-1.157-0.193-2.604,0.289-3.664-0.385
			C1164.898,874.031,1158.533,872.199,1153.615,874.32z"/>
		<path style="fill:#17192D;" d="M1200.579,860.436c0.289,0.096,0.481,0.191,0.675,0.385c-0.868,2.217-3.471,0.965-5.496,1.543
			c-1.736,0.289-3.375,0-5.111,0.096c-4.725,0.098-9.45-0.096-13.982,0c-2.412,0-5.594,0.193-8.101-0.096
			c-1.64-0.193-3.665,0-5.304,0.096c-3.953,0.387-7.715,0-11.861,0.291c-0.193-0.193-0.387-0.193-0.578-0.193
			c-1.736,0.867-3.666,0.096-5.305,0.385c-3.953,0.193-7.715,0.578-11.572,0.578c-2.699-1.156-5.496,0.58-8.293-0.096
			c-0.385-0.096,0.578-1.156,0.867-1.156c4.244-2.893,9.162,1.156,13.887-0.193c5.594-1.543,11.861-0.965,17.357-1.254
			c5.498-0.289,10.705,0.193,16.299,0c1.543-0.193,3.085-0.193,4.725-0.193c0.387,0,0.868,0.098,1.254,0.098
			c4.243-0.098,8.486-0.098,12.247-0.676C1195.18,860.82,1197.59,860.338,1200.579,860.436z"/>
		<path style="fill:#17192D;" d="M1201.061,841.438c-0.964,2.121-3.277,2.314-4.917,3.471c-2.218,1.158-4.629,2.314-7.137,2.605
			c-0.675,0.385-1.639,0.48-2.411,0.578c-6.46,1.156-12.729,3.76-19.479,3.953c-4.629,0.965-9.74,0.482-14.754,0.387
			c-4.146,0-9.451-1.158-13.598-2.99c-2.025-0.482-4.244-1.254-5.689-2.508c-2.123-0.578-3.762-2.121-5.594-3.277
			c-0.385-0.676-0.867-1.35-0.867-2.025c0-0.098-0.098-0.193-0.098-0.193c1.93,0.482,3.762,1.928,5.691,3.086
			c1.541,0.867,2.41,2.025,4.049,2.41c2.797,0.58,5.016,2.508,7.908,2.314c5.303,1.35,11.09,1.254,17.453,0.869
			c-0.963-2.219,0.676-3.086-0.096-4.436c0.096-0.58,0.193-0.965,0.385-1.352c0.291-0.289,0.482-0.578,0.869-0.289
			c0.193,0.193,0.289,0.289,0.482,0.482c-0.193,0.578,0.193,0.965,0.482,1.254c-0.289,1.254,0,2.508-0.193,4.051
			c4.726,0.48,7.908-0.869,11.766-1.062c1.639-0.771,4.146-0.963,6.171-1.543c1.833-0.576,4.05-0.576,5.786-1.639
			c1.446,0.193,3.086-0.289,4.243-1.736c2.507,0.098,4.436-1.734,7.329-2.314c0-0.771,0-0.482,0-0.482
			c0.482-0.191,1.446-1.252,2.604-0.867C1201.351,840.666,1201.254,841.051,1201.061,841.438z"/>
		<path style="fill:#17192D;" d="M1146.963,797.082c1.639,1.156,2.506,2.121,4.34,2.506c1.35,0.869,2.023,1.93,3.373,2.701
			c2.314,1.348,2.797,1.348,4.727,0.867c2.023,0.48,4.051-0.096,5.979,0.674c0.771,0.191,1.639-0.867,2.412,0
			c1.349-0.387,2.12-0.193,2.893-0.289c1.543,0.674,3.085-0.098,4.918,0.191c2.506-0.77,5.399-0.77,8.1-0.865
			c3.857,0.77,8.101,0.193,11.861,0.482c0.675-0.289,1.736,0.576,0.771,0.961c0.771-1.539,8.101-0.578,8.293-0.48
			c0.193,0.096,0.578,0.578,1.061,0.867c0.098,0.193,0.098,0.289,0,0.482c-2.024,0.869-4.725-0.096-6.75,0.387
			c-1.35-0.291-3.471,0-5.014-0.291c-2.701,0.193-5.883-0.867-8.969-0.096c-6.076-1.061-13.982,0-20.059,0
			c-0.385-0.193-0.963,0.193-1.35,0.096c-0.771-0.191-1.641,0.578-2.412-0.191c-3.471,0.578-7.328-0.387-9.643,0.289
			c-0.771,0.289-1.543,0.385-2.314,0.48c-2.217-0.963-5.303,0.195-7.328-0.48c-1.061,0.385-2.508,0.771-3.762,0.676
			c-1.928,0.287-3.664,0.191-5.4,0.674c-1.061-0.289-2.508,0.289-3.471,0c-1.736,0.482-3.762-0.193-5.594,0
			c-0.096-0.289-0.193-0.482-0.289-0.771c1.543-3.277,4.051-4.723,6.365-7.424c3.953-3.182,10.607-4.918,15.814-2.025
			C1146.287,795.828,1146.287,797.178,1146.963,797.082z M1126.229,805.18c3.953,0.674,6.752,0.387,9.74-0.387
			c3.762-1.061,8.871-0.674,12.826-0.963c0.771-0.48,2.508,0,2.99-1.734c-1.641-0.289-2.316-1.254-3.279-1.736
			c-0.098,0-0.289-0.096-0.289-0.096c-2.508-1.35-4.92-2.604-7.715-2.99C1135.102,795.924,1129.701,799.686,1126.229,805.18z"/>
		<path style="fill:#17192D;" d="M1150.338,761.789c2.699,0.482,4.918,0.965,7.811,0.579c5.016,2.122,10.801-0.868,15.525,2.603
			c2.604,0.579,5.883,0.675,8.293,1.929c4.051,1.35,8.293,1.929,11.766,4.725c1.447,1.928,2.507,3.664,3.568,5.689
			c-0.193,1.928-0.097,4.146-1.832,5.014c-3.665,1.447-7.522,2.121-11.09,3.953c-7.715,0.193-14.852,2.99-22.084,1.736
			c-3.471,0.771-6.846-0.096-10.318,0.482c-5.979-0.387-11.475-2.797-17.262-3.857c-1.254-1.061-6.172-1.93-2.217-3.471
			c2.604-0.482,4.242,1.445,6.557,2.023c1.35,0.291,2.604,1.834,4.146,1.834c5.883,1.059,10.992,2.121,17.357,1.35
			c5.496,1.35,11.477,0,16.973-1.158c5.207-0.385,9.934-1.832,14.755-3.182c2.313-1.061,1.446-2.99,2.507-5.498
			c-1.254-0.867-0.867-2.699-1.736-3.471c-1.542-1.734-4.628-2.602-6.557-3.76c-3.182-0.482-6.364,0-8.68-1.832
			c-2.604-0.481-5.592,0.192-7.617-1.833c-8.68-1.445-17.455-0.771-25.555-2.796c-4.725-0.481-8.68-0.674-12.537-3.084
			c0.193-0.58,1.158-0.291,1.543-0.482C1139.633,758.896,1144.455,762.271,1150.338,761.789z"/>
		<path style="fill:#17192D;" d="M1137.607,732.764c1.061,0,2.605-0.097,3.762-0.192c2.797-1.737,7.137,0,10.416,0.386
			c2.023-1.158,5.398-0.482,7.521-0.676c3.084-0.771,7.135,0.193,10.703,0.193c6.269,0,13.501-0.193,19.769-0.482
			c0.964-0.098,1.929-0.676,2.797-0.289c0.097,0.096,0.192-0.096,0.289-0.096c-2.218,1.445-4.918,1.542-7.136,2.506
			c-3.182,2.797-6.848,4.243-10.222,6.365c-4.05,1.832-8.196,3.182-11.862,5.979c-1.156,0.578-2.219,1.254-3.375,1.832l-2.797,1.35
			l3.184,0.193c7.521,0.482,14.561-1.35,22.275-0.289c3.086,0,5.979-1.254,8.969-0.676c0.771-0.096,1.735,0,2.41,0
			c-0.096,0.193,0,0.579-0.096,0.676c-0.771,0-1.447,0.192-2.122,0.675c-0.771,0.386-1.735,0.386-2.604,0.579
			c-2.603,0.289-5.207-0.098-7.812,0.481c-7.039,0.193-13.885-0.675-20.732,0.097c-3.184-0.578-6.365,1.062-9.451,0.193
			c-2.025,0.482-4.629-0.578-6.172,0.578c-4.629-0.482-9.16-1.254-13.982-1.254c-1.061-0.385-2.699,0-3.182-1.157
			c-0.098-0.097,0.578-1.061,0.578-0.578c5.207-1.351,9.643,1.735,15.623,1.061c3.086-0.386,6.268,0,9.545-0.965
			c0.965-1.35,2.412-1.253,3.473-2.12c1.93-0.291,3.857-0.772,5.111-2.123c4.918-2.41,9.933-3.278,13.887-6.847
			c1.156-0.481,2.314-1.06,3.567-2.12c0-0.291,2.796-1.544,2.796-1.833c-0.096-0.192-2.988,0.481-2.988,0.096
			c-3.761,0-7.232-0.674-10.223,0.386c-5.4-1.35-10.994-1.445-16.779-0.192c-4.146-0.481-8.389-1.061-12.439-0.289
			c-3.375-1.446-7.137,1.542-10.223-1.157c-0.289-0.867-1.832-0.578-1.734-1.64C1131.629,730.834,1134.426,732.667,1137.607,732.764
			z"/>
		<path style="fill:#17192D;" d="M1124.688,706.438c2.602,0.193,4.725,1.736,7.328,2.219c2.988,2.699,7.039,2.988,10.125,5.399
			c2.41,0.868,5.014,1.833,7.426,2.894c0.963,0.578,1.445,0.964,2.699,2.121c3.375-3.086,7.715-2.7,10.898-4.146
			c3.084-0.868,5.978-1.929,9.064-3.086c2.988-1.157,6.17-1.736,9.449-2.507c1.254-1.062,3.086-1.062,4.629-1.64
			c2.122,0.096,2.99-3.279,4.629-1.736c0.098,0,1.447,0.676,0.579,0.965c-3.568,3.278-8.968,2.218-12.634,4.822
			c-3.374,0.771-6.652,1.061-9.354,2.988c-1.832,0.289-3.568,0.965-5.111,1.833c-2.025,0.482-3.953,0.097-5.496,1.061
			c-1.158,0.097-1.93,0.964-3.182,1.351c-0.193,0.482-1.736,1.446-1.545,1.639c0.193,0.289,2.027-0.192,2.316,0.193
			c4.436,0.578,7.521-0.193,11.283,0.675c2.603-0.193,5.978,0,8.582,0.481c0.289-0.192,1.156,0,1.639-0.192
			c2.894-0.289,5.689-1.832,8.486-0.675c1.735-0.289,3.857-0.965,5.593-0.289c0.097,0.289,0.097,0.675,0,1.061
			c-0.771,0.965-2.122,0.675-3.183,0.867c-4.531,0.29-9.16,0.482-13.5,1.351c-2.122-0.097-3.664,0.097-5.594-0.675
			c-4.533-1.254-9.258-1.061-13.885-0.578c-3.568-0.193-7.619,0.385-11.477-0.193c-3.279-1.157-6.943-0.578-10.896-1.157
			c-1.061,0.964-2.314,0.386-3.184,0.289c-0.771-0.482-1.928-0.579-2.795-0.192c-2.893,1.446-4.533,0.482-6.559-0.387
			c0,0.387-1.639-0.192-1.736-0.385c-0.193-0.868,0.676-1.254,1.352-1.544c0.578-0.288,1.35,1.062,1.928,0.579
			c2.797,0.482,5.979,0.289,8.969,0c4.533,0.675,8.871,0.579,13.404,0.771c0.867,0.193,4.146,0.965,5.207-0.386
			c-1.543-0.771-3.955-1.929-4.436-3.086c-2.314-1.061-3.762-1.157-5.496-2.7c-1.834,0.289-2.605-1.061-4.051-1.061
			c-2.893-0.867-5.4-3.279-8.486-4.243c-1.736-0.097-3.182-1.157-4.629-2.025c-0.098-0.192-0.869-0.386-0.869-0.578
			c-0.289-0.29,0.193-0.868,0.193-1.061C1123.24,704.799,1123.625,706.631,1124.688,706.438z"/>
		<path style="fill:#17192D;" d="M1118.322,678.568c0.191,1.641,0.867,2.797,1.156,4.533c-0.578,2.604-0.096,4.918,0.869,8.1
			c1.35-0.675,2.312-0.482,2.795-0.289c1.834-0.193,4.146,0.289,5.98,0.193c1.734-0.387,3.857-0.579,5.592-0.579
			c2.701-1.35,6.076-1.735,8.775-2.313c1.543,0.385,3.375,0,4.822,0.192c6.557,0,13.307-1.64,19.48-2.507
			c1.156,0.096,2.893-0.193,3.953,0.096c0.193-0.096,0.675-0.096,0.771-0.193c4.821-0.192,8.679-0.289,13.5-0.289
			c2.218,0,4.146,0.387,6.172,0.482h-0.097c-2.507,1.832-5.979,1.157-8.679,1.736c-3.953-0.965-8.1,1.061-12.344-0.579
			c-2.507,2.604-5.496,0.579-8.1,1.446c-2.412-0.289-5.305-0.192-7.33,1.061c-0.965-0.096-1.832,0.289-3.182-0.192
			c-2.314,1.351-5.207,0.675-7.619,0.675c-3.953-0.868-7.135,1.736-10.896,1.254c-2.699,1.351-5.785,1.156-8.871,1.156
			c-0.965-1.06-2.508-0.096-4.436-2.217c-0.676,4.242-0.289,6.75-0.482,9.354c0.482,2.025-0.289,4.243,0,6.461
			c-0.098,0.098-0.098,0.192-0.193,0.289c-0.771-0.097-0.965-0.964-1.254-1.543c0.578-1.928,0.482-3.856,0-5.785
			c-0.385-0.482,0-1.35,0.096-2.314c-1.061-1.446-0.191-3.568-0.963-4.918c0.482-1.543-0.193-3.183-0.098-4.726
			c-0.867-1.543,0.289-3.567-0.578-5.11c0-1.351-1.832-2.701-0.289-3.762c0.098-0.096,0.289-0.192,0.482-0.289
			C1117.742,678.087,1118.225,678.184,1118.322,678.568z"/>
		<path style="fill:#17192D;" d="M1124.59,632.668c-0.096,1.156-0.096,3.566-0.482,5.109c-0.193,0.676,0.289,1.93-0.771,2.894
			c0.289,1.929,1.641,1.157,2.219,1.929c2.893,1.832,6.172-0.387,9.354,1.156c5.496-0.191,13.693,0.772,19.479,0.58
			c0.098,0,0.482-0.098,1.062-0.098c0.482-0.771,1.061-1.35,0.963-2.218c0.676-1.06-0.191-1.35,0.289-2.7
			c0.578-1.832,0-0.771,0.965-2.507c0.482-0.386,0.965-0.772,1.543-0.675c0.387,0.965,0,1.832,0,2.989
			c-1.254,2.604-0.193,1.253-0.965,4.437l0.58,0.578c2.699-0.289,4.918-0.482,7.328-0.482l0.482-0.193
			c2.507,0.387,5.979,0.193,8.293,0.289c10.512,0.387,21.891,0,31.823,1.254c0.675,0.097,0.097,0.772-0.29,0.868
			c-4.82,0.386-10.317-0.675-15.332-0.192c-0.096-0.098-0.387-0.193-0.482-0.289c-2.025-0.193-5.689,0.289-8.197-0.097
			c-3.568,1.253-7.424,0-10.8,0c-4.726-0.676-9.644,0.675-15.044,0.867c-1.156,0-2.99,0.482-4.051-0.192
			c-5.785,0.096-12.439-0.192-17.551-0.675c-1.061,0.288-3.086-0.481-4.051-0.097c-1.83-0.289-4.436-0.482-6.266-0.579
			c-0.773-0.192-2.027-1.253-2.99-1.542c-0.965-0.965,0.48-2.315,0.48-3.762c-0.867-1.061,0.098-1.639,0.098-2.699
			c0.193-0.29,0.193-0.771,0.289-1.062c0.771-1.253,0.289-3.278,1.641-4.339C1125.072,631.124,1124.396,632.668,1124.59,632.668z"/>
		<path style="fill:#17192D;" d="M1150.338,598.723c2.699,0.482,4.918,0.965,7.811,0.578c5.016,2.122,10.801-0.867,15.525,2.604
			c2.604,0.579,5.883,0.676,8.293,1.93c4.051,1.35,8.293,1.928,11.766,4.725c1.447,1.929,2.507,3.664,3.568,5.69
			c-0.193,1.929-0.097,4.146-1.832,5.014c-3.665,1.446-7.522,2.122-11.09,3.954c-7.715,0.193-14.852,2.989-22.084,1.736
			c-3.471,0.771-6.846-0.097-10.318,0.481c-5.979-0.386-11.475-2.797-17.262-3.857c-1.254-1.06-6.172-1.929-2.217-3.471
			c2.604-0.482,4.242,1.446,6.557,2.024c1.35,0.289,2.604,1.832,4.146,1.832c5.883,1.061,10.992,2.121,17.357,1.35
			c5.496,1.351,11.477,0,16.973-1.156c5.207-0.387,9.934-1.833,14.755-3.183c2.313-1.062,1.446-2.989,2.507-5.497
			c-1.254-0.867-0.867-2.7-1.736-3.471c-1.542-1.736-4.628-2.604-6.557-3.762c-3.182-0.482-6.364,0-8.68-1.832
			c-2.604-0.482-5.592,0.193-7.617-1.832c-8.68-1.447-17.455-0.771-25.555-2.797c-4.725-0.482-8.68-0.675-12.537-3.086
			c0.193-0.578,1.158-0.289,1.543-0.482C1139.633,595.83,1144.455,599.205,1150.338,598.723z M1128.93,611.549
			c0.289,0.289,0.482,0.481,0.482,0.964c-0.289,0.29-0.676,0.482-1.158,0.482c-1.447-0.772-2.988-0.097-4.436-1.062
			c-0.387-0.096-1.158-0.385-1.061-0.867c0.674-0.387,1.254-0.675,2.41-0.579C1126.904,608.848,1127.676,611.162,1128.93,611.549z
			 M1129.508,602.483c0.289,0.289,0.482,0.482,0.482,0.964c-0.289,0.29-0.676,0.482-1.156,0.482
			c-1.545-0.771-3.568,0.097-5.016-0.868c-0.387-0.096-1.158-0.385-1.061-0.867c0.674-0.481,1.639-1.062,2.797-0.964
			C1127.289,599.591,1128.254,602.098,1129.508,602.483z"/>
		<path style="fill:#17192D;" d="M1191.322,576.158c-3.472,2.506-7.908,2.121-11.09,4.82c-1.254,0.387-2.604,1.062-3.665,1.736
			c-2.989-0.097-6.075,1.832-10.126,3.664c2.604,1.062,4.533,0.772,5.883,0.386c5.689,0,10.705-0.964,16.683-0.096
			c1.64,0,3.665-0.482,5.11,0.192c2.797,0.097,6.076-0.675,8.486,0.676c0.098,0.096,0.098,0.096,0.193,0.192
			c-2.025,0.579-4.629,0.386-6.653,0.29c-1.735-0.482-3.568,0.191-5.497,0.191c-3.76,0.098-7.715-1.253-11.09,0.387
			c-3.086,0.386-5.979-1.061-8.969,0c-2.699,0.867-5.4-0.482-7.906,0.771c-4.631-0.771-10.607,0.096-15.623-0.771
			c-5.689,0-11.475,0.386-17.068-0.578c-3.086-0.098-4.34-0.676-7.232-1.255c-0.098,0,0.482-0.675,0.482-0.868
			c3.084-1.832,4.146-2.41,7.424-3.664c4.533-1.832,9.355-1.446,13.887-2.7c6.365,0.097,12.633,0.964,17.262,7.04
			c8.486-5.111,17.551-5.689,25.748-10.125c3.664-1.158,7.039-2.99,10.705-4.146c0.578,0,1.542-0.387,2.217-0.193
			C1197.493,573.843,1194.408,575.193,1191.322,576.158z M1137.029,582.521c-1.254,0.387-2.797-0.096-3.953,0.676
			c-1.543-0.193-2.99,0.675-4.242,1.156l-2.316,1.641c0.869,0.096,4.244,0.385,5.209,0.578c1.254,1.254,3.471,0.675,5.014,1.061
			c7.137-0.964,15.141,0.193,23.723-0.192c-1.254-1.544-2.508-1.929-3.184-2.604c-1.348-1.35-5.109-2.796-7.617-3.857
			C1145.322,581.558,1140.693,580.594,1137.029,582.521z"/>
		<path style="fill:#17192D;" d="M1146.963,530.447c1.639,1.158,2.506,2.122,4.34,2.508c1.35,0.868,2.023,1.93,3.373,2.701
			c2.314,1.35,2.797,1.35,4.727,0.867c2.023,0.482,4.051-0.097,5.979,0.675c0.771,0.192,1.639-0.867,2.412,0
			c1.349-0.386,2.12-0.192,2.893-0.289c1.543,0.675,3.085-0.097,4.918,0.192c2.506-0.771,5.399-0.771,8.1-0.867
			c3.857,0.771,8.101,0.192,11.861,0.481c0.675-0.289,1.736,0.579,0.771,0.965c0.771-1.543,8.101-0.579,8.293-0.482
			c0.193,0.097,0.578,0.579,1.061,0.868c0.098,0.193,0.098,0.289,0,0.482c-2.024,0.867-4.725-0.097-6.75,0.386
			c-1.35-0.29-3.471,0-5.014-0.29c-2.701,0.193-5.883-0.867-8.969-0.096c-6.076-1.061-13.982,0-20.059,0
			c-0.385-0.193-0.963,0.193-1.35,0.096c-0.771-0.192-1.641,0.579-2.412-0.192c-3.471,0.579-7.328-0.386-9.643,0.29
			c-0.771,0.289-1.543,0.385-2.314,0.481c-2.217-0.964-5.303,0.192-7.328-0.481c-1.061,0.385-2.508,0.771-3.762,0.674
			c-1.928,0.29-3.664,0.193-5.4,0.676c-1.061-0.289-2.508,0.289-3.471,0c-1.736,0.481-3.762-0.193-5.594,0
			c-0.096-0.289-0.193-0.482-0.289-0.771c1.543-3.279,4.051-4.726,6.365-7.426c3.953-3.183,10.607-4.918,15.814-2.025
			C1146.287,529.194,1146.287,530.545,1146.963,530.447z M1126.229,538.549c3.953,0.675,6.752,0.386,9.74-0.387
			c3.762-1.061,8.871-0.674,12.826-0.964c0.771-0.482,2.508,0,2.99-1.735c-1.641-0.289-2.316-1.254-3.279-1.736
			c-0.098,0-0.289-0.096-0.289-0.096c-2.508-1.351-4.92-2.604-7.715-2.99C1135.102,529.291,1129.701,533.052,1126.229,538.549z"/>
		<path style="fill:#17192D;" d="M1173.867,494.19c7.425,0.868,14.562,1.351,21.602,2.507c2.024,0.387,3.568,1.64,5.399,2.219
			c0.386,0.289,1.446,0.289,1.929,0.771c1.929,1.543,1.64,3.857,1.735,6.172c-1.349,2.797-2.989,6.172-6.171,7.715
			c-4.34,1.156-8.583,3.664-13.693,3.664c-2.701,1.543-6.27,1.157-9.161,1.735c-5.208,0.964-10.704,0.675-15.622,1.543
			c-3.762-0.288-8.391,0.772-11.957,0.579c-8.969-0.482-17.553,0.964-25.941-0.771c-0.193,0.096-0.387,0.675-0.098,0.482
			c0.387-0.387,1.447-0.482,2.123-0.482c2.699-2.507,6.459,0,10.027-0.771c2.799-0.289,5.402,0.385,8.293,0.193
			c4.438-0.29,8.873-0.676,13.502-0.58c3.762,0.098,7.908-0.771,11.959-1.253c0.867,0.289,2.312-0.096,3.182,0
			c9.161-1.061,18.804-2.024,26.326-6.558c2.314-1.061,4.05-2.893,5.4-5.689c-1.543-0.965-0.098-2.025-0.771-3.086
			c-3.857-4.05-9.644-4.146-14.658-5.592c-1.736-0.869-4.34-0.098-6.461-0.194c-4.34-0.097-8.582-1.35-12.536-0.771
			c-5.786,0.867-11.187-0.868-16.683,0.191c-2.701-0.771-5.691,0.098-8.295-0.289c-4.629,0.193-9.547-0.192-13.5-0.385
			c-0.482-0.193,0.096-0.676,0.096-0.676c0.098-0.096,0.193-0.578,0.869-0.675c2.41-0.578,5.014,0.482,7.424,0.29
			c0.965-0.579,2.799-0.29,3.955-0.386c7.426,1.253,14.369-1.833,21.795,0C1167.213,494.383,1170.492,493.805,1173.867,494.19z"/>
		<path style="fill:#17192D;" d="M1203.762,456.195c-7.618,3.375-14.176,7.812-20.83,12.247c-0.578,0.29-0.771,1.062-2.024,1.062
			c-3.087,3.086-6.944,3.375-9.739,6.172c-2.508,1.254-5.305,2.699-8.197,4.918c0.385,0.289,1.061,0.578,1.35,0.771
			c2.025,0.964,4.051,0.193,5.883,0.289c5.786,0.192,11.089-0.771,16.201-0.868c4.918,0,9.45-1.157,13.789-0.675
			c0.097,0.193,0.097,0.482,0.097,0.867c-0.289,2.219-2.797,0.676-3.857,1.062c-4.629,0.578-8.679,0.674-13.694,0.867
			c-6.171,0.385-12.246,0.097-18.418,0.771c-4.146,0.386-7.908,0-11.861,0.868c-6.559-0.771-13.211,2.604-19.77,1.254
			c-1.543,0-3.086,0.771-4.725,0.386c-0.676-0.482-3.76,0.097-2.219-1.351c5.016-0.771,10.223,0,15.334-0.675
			c7.715-0.289,15.91-0.771,21.602-5.689c0.963-0.288,1.734-0.964,2.41-1.446c2.41-1.447,5.014-2.508,7.04-4.629
			c2.024-0.675,3.857-1.832,5.496-2.99c2.894-2.892,6.751-3.953,9.933-6.171c0-0.386,0.29-0.289,0.482-0.386
			c0.867-0.386,1.543-1.156,2.604-1.929c0-0.386,2.797-0.964,2.7-1.253s-3.278-0.193-3.568-0.386
			c-4.436,0.964-9.933,1.35-15.044,1.831c-5.496,0.482-9.16,1.544-14.367,1.641c-1.834-0.387-4.436,1.446-6.27-0.097
			c-2.023,0-3.182-0.097-4.82,0.482c-1.447,0-2.895-0.193-4.629-0.193c-0.387-0.097-0.771,0.289-1.158,0.289
			c-1.639,1.061-2.506-1.446-3.76-0.289c-0.58,0.193-1.158,0.675-1.736-0.192c-3.086,0.867-5.496,0.386-8.102-1.061
			c-0.867,0.385-1.156-0.098-1.541-0.387c0-0.096,0-0.193,0-0.289c0.289-0.675,0.867,0.289,0.867,0.193c0,0,0.578,0.482,1.156-0.098
			c0.387-0.578,1.254,0.676,1.447,0.387c3.279,0.771,7.137,0.578,10.801,0.096c3.375,0.58,8.486-0.385,11.668,0.289
			c0.676-0.096,1.543-0.674,2.699-0.289c1.061-0.964,2.508-0.096,3.279-0.675c4.051-0.289,8.391-0.964,12.537-0.964
			c3.954-0.387,8.293-0.771,11.476-1.254c0.675,0.193,1.446-0.385,2.122,0.097c1.639-0.386,2.313-0.386,3.566-0.579
			c2.508-0.482,5.69-0.867,7.908-1.35c0.387,0,0.869-0.29,1.447-0.964c-0.482-0.868,0.578-0.482,0.675-0.482
			c0.867-0.386,2.313,0.386,3.761-0.097C1203.762,455.617,1203.858,455.907,1203.762,456.195z"/>
		<path style="fill:#17192D;" d="M1132.594,435.271c3.279-0.193,5.303,3.085,8.775,2.988c1.543,0.868,3.279,0.482,4.531,1.736
			c1.062,0.578,3.184,0.482,4.533,0.482c2.99,0.771,5.4,2.507,8.582,2.893c1.93,1.254,4.244,1.929,6.75,0.771
			c0-0.675,0.289-0.482,0.289-0.096c1.062-0.29,2.798,0.385,4.631-0.676c2.988-0.578,6.364-0.578,9.064-1.639
			c2.314-0.965,5.014-0.676,7.232-1.641c1.061-0.191,2.218-0.289,2.988-0.867c2.894-0.097,5.111-0.965,7.522-2.025
			c2.411-0.481,5.11-1.928,7.521-1.061c-0.289,0.193-0.386,0.482-0.289,0.771c-1.253,1.735-4.532,0.771-6.558,2.025
			c-3.664,1.543-7.521,1.735-11.186,3.278c-6.172,0.482-16.49,3.376-16.49,3.376l0.096,1.35c0,0,3.473,0.386,5.787,0.096
			c2.893,0.771,6.363,0.676,9.643,0.387c1.833,0.771,4.242-0.676,6.365,0.096c1.928,0,4.242-0.964,6.172-0.386
			c2.121,0.579,5.688-1.156,7.135,0.097c0,0,2.219,0.676,0.58,0.965c-2.122,0.289-4.727,0.964-7.04,0.771
			c-5.015-0.482-10.704-0.771-15.43,0.096c-1.544-0.096-3.183-0.192-4.628-0.674c-1.833,0.096-3.857-0.291-5.787,0.096
			c-2.314-0.771-4.725,0.289-7.039-0.578c-5.4-1.255-10.994,1.156-16.201-0.387c-3.086,0.387-5.979-0.578-9.064,0.193
			c-2.701-0.386-6.076-0.868-8.486-0.097c-3.375-0.192-6.848-0.868-10.223-1.061c-0.193-0.193-0.385-0.578-0.482-0.772
			c0-0.385-0.191-0.674,0.289-0.771c0.869-0.193,1.834,0.675,2.701,0.192c3.086,0.965,6.461,0.578,9.74,0.868
			c1.736-0.771,2.988,0.964,4.822,0c3.664,0.578,8.389-0.481,12.15,0.675c2.121-0.289,5.109,0.097,9.064-0.771
			c-4.533-2.219-8.197-1.833-10.898-3.567c-3.277-0.965-6.461-2.701-9.932-3.087c-5.689-1.929-10.992-3.761-16.395-6.461
			c-0.191,0-0.096-0.097-0.096-0.193c0.869-0.289,1.641-0.964,2.604-0.771C1127.676,433.729,1130.471,433.921,1132.594,435.271z"/>
		<path style="fill:#17192D;" d="M1116.199,411.452c0,2.989-0.096,5.882,0.676,9.161c7.232,0.481,14.176,0.481,19.77-1.35
			c1.541-0.29,3.086-0.482,4.34-0.965c6.074-1.736,10.607-0.482,16.586-2.604c3.76-0.289,7.135-1.061,10.704-1.64
			c5.014-0.868,10.222-0.289,14.851-1.351c2.988,0,6.557-0.385,9.739-1.253c2.604,0.097,5.304-1.062,7.907-1.543
			c0.387,0.192,0.869,0.579,1.061,0.868c-0.385,2.893-4.628,1.254-6.46,2.121c-6.558,1.254-12.923,1.929-18.997,2.121
			c-3.665,0.097-7.522,1.061-11.283,1.543c-3.762,0.482-6.559,0.771-10.318,0.771c-1.061,0.579-2.508,0.771-3.857,0.482
			c-1.254,1.157-2.508,0.482-3.471,1.157c-3.184,0.482-6.559,1.351-10.029,1.832c-3.088,0-6.463,1.833-9.258,1.351
			c0,0-0.482,0.192-0.578,0.289c-2.797-0.097-6.172,0.289-10.029-1.157c-0.771,2.218-0.193,4.437-0.387,6.075
			c-0.578,6.075,1.254,11.669,0.289,17.357c0,0.482,0.578,1.158,0.193,1.64c-0.385,0.386-0.771,0.097-1.156,0
			c-1.062-1.446-0.773-3.761-0.773-5.399c-0.674-0.771,0.098-2.315-0.191-3.279c0.578-5.979-0.387-11.861-0.387-17.262
			c0-5.014-0.963-11.09-1.254-16.2c-0.385-0.868,0.387-1.446,0.869-1.833c0.096,0,0-0.192,0.096-0.096
			C1115.814,405.184,1116.199,408.27,1116.199,411.452z"/>
		<path style="fill:#17192D;" d="M1150.338,350.604c2.699,0.482,4.918,0.965,7.811,0.578c5.016,2.123,10.801-0.867,15.525,2.604
			c2.604,0.578,5.883,0.675,8.293,1.929c4.051,1.35,8.293,1.929,11.766,4.725c1.447,1.929,2.507,3.664,3.568,5.689
			c-0.193,1.93-0.097,4.146-1.832,5.015c-3.665,1.446-7.522,2.122-11.09,3.954c-7.715,0.193-14.852,2.989-22.084,1.735
			c-3.471,0.772-6.846-0.096-10.318,0.482c-5.979-0.386-11.475-2.797-17.262-3.857c-1.254-1.061-6.172-1.929-2.217-3.472
			c2.604-0.482,4.242,1.447,6.557,2.025c1.35,0.289,2.604,1.832,4.146,1.832c5.883,1.061,10.992,2.121,17.357,1.35
			c5.496,1.351,11.477,0,16.973-1.156c5.207-0.387,9.934-1.832,14.755-3.183c2.313-1.062,1.446-2.989,2.507-5.497
			c-1.254-0.867-0.867-2.7-1.736-3.471c-1.542-1.736-4.628-2.604-6.557-3.761c-3.182-0.482-6.364,0-8.68-1.833
			c-2.604-0.482-5.592,0.193-7.617-1.832c-8.68-1.447-17.455-0.771-25.555-2.797c-4.725-0.482-8.68-0.675-12.537-3.086
			c0.193-0.578,1.158-0.289,1.543-0.482C1139.633,347.711,1144.455,351.086,1150.338,350.604z"/>
		<path style="fill:#17192D;" d="M1196.722,315.791c0.192,0.482,1.735,0.482,1.157,1.254c-2.699,1.833-6.364-0.193-9.258,1.351
			c-9.74,2.989-20.058,0.771-29.99,2.121c-5.787,0.772-11.186,0.772-16.877,1.929l-3.277-0.096l-0.098,0.386l3.279,1.446
			c3.762,0.771,8.582,0.867,12.15,1.735c3.375,0.868,6.27,0.964,9.547,1.929c3.568,0.676,7.04,0.289,11.09,0.386
			c0.289,0.192,0.771,0.097,0.965,0.386c-5.111,2.121-11.379,0.675-16.684,2.218c-1.447,1.253-3.857,0.868-5.594,1.64
			c-6.17,0-12.053,2.121-17.84,2.411c-0.674,0.578-1.832,0.675-2.795,1.06c0,0.387-2.605,0.965-2.508,1.158
			c0.096,0.289,3.086,0.193,3.182,0.675c9.547,1.446,18.227,0,27.002,1.061c5.4-2.024,10.994,1.157,16.201-0.578
			c6.172-2.025,13.114,0.288,18.611-1.833c1.639,0,3.375-0.867,4.821,0c1.735,0.097,4.629-1.639,5.979,0.193
			c0,0.193,0.191,0.096,0.289,0.193c-1.351,0.867-3.473,0.192-4.726,0.385c-7.329,1.832-15.044,2.314-22.661,3.473
			c-3.086,0-6.172,0.482-9.065-0.387c-3.761,0.097-7.618,0.387-11.573-0.289c-9.16-0.289-17.549,1.543-26.133-0.965
			c-3.182-0.964-6.268,0-9.064-0.674c0-0.579-2.121,0.481-1.639-0.387c0.578-0.289,0.963-1.254,2.025-1.446
			c4.34-2.411,10.029-1.735,14.85-3.472c5.883-1.061,12.537-1.735,18.611-3.182l3.184-0.771v-0.387l-3.184-0.578
			c-3.953-0.675-7.715-1.254-11.668-1.736c-4.82-2.217-10.512-2.024-15.332-4.146c-0.289-0.29-0.771-0.481-1.158-0.676
			c0.771-1.157,3.086-0.097,4.244-0.192c4.051-2.122,8.582-0.482,13.018-1.64c10.127-1.062,17.648-0.482,27.58-1.35
			c2.314-0.676,5.883-0.676,8.486-1.062c4.629-0.674,9.547,1.158,13.02-1.735C1195.564,315.116,1196.144,315.309,1196.722,315.791z"
			/>
		<path style="fill:#17192D;" d="M1202.701,292.166c1.253,0.482,2.121-0.193,3.086,0c-0.29,0.674-0.772,1.253-0.772,2.025
			c-0.386,1.061-1.735,1.253-2.507,2.024c-0.771,0.192-0.867,1.253-1.736,1.833c-2.023,1.253-3.857,2.604-5.881,4.049
			c-3.955,0.965-7.522,3.666-12.152,4.147c-3.566,1.64-8.195,1.543-12.15,1.64c-2.41,1.928-6.268,0.192-9.162,1.254
			c-1.445,0.191-2.312-0.387-3.471-0.387c-3.953,1.061-7.521-0.482-11.186-1.061c-2.604-1.157-5.4-1.446-7.908-2.797
			c-0.771-0.578-1.928-0.385-2.699-0.675c-3.086-2.024-6.654-3.278-9.451-5.497c-1.35-0.289-1.734-1.928-3.086-2.217
			c-0.482-0.676-1.447-1.254-0.867-2.701c-0.869-0.675-1.639-2.024,0-1.735c0.385-0.289,0.578-0.097,0.096,0.289
			c3.182,3.857,8.391,7.426,13.502,10.126c1.928,0,3.857,1.061,5.014,2.025c3.953,1.06,7.617,2.506,11.668,2.506
			c1.447,0,2.895,0.29,4.146-0.096c2.508,0.289,4.822,0.965,7.426,0.289c2.508-0.193,5.015-0.481,7.426-0.964
			c7.715-1.544,16.104-1.929,22.469-6.172c2.314-1.543,3.953-2.894,5.979-5.208c-0.289-0.481,1.254-0.385,0.965-1.061
			c-5.979,0.289-13.404,0.482-18.805,0.868c-2.41,1.061-5.208-0.192-7.811,0.192c-2.314,0.29-4.727-0.289-7.137-0.192
			c-1.157,0-2.219-0.192-3.279,0.192c-1.734-0.289-3.953,0.193-5.4-0.771c-0.674-0.578,0.869-0.481,1.062-0.867
			c1.541-0.578,3.086-0.771,4.82-0.097c1.35,0.192,2.701-0.675,3.954-0.675c3.568,0,6.654,0.964,9.064,0.675c0-0.29,1.157,0,2.122,0
			c0.675-0.192,1.35-0.192,1.735-0.097c2.122,0,3.472-0.385,5.401-0.096c3.471-0.868,7.811,0,10.607-0.771
			c0.867-0.193,0.771-0.097,1.639-0.193C1200.868,291.973,1201.543,291.49,1202.701,292.166z"/>
		<path style="fill:#17192D;" d="M1134.908,275.676c1.447,0.193,2.41,1.64,4.051,1.64c3.084,1.542,5.979,2.314,9.738,2.507
			c0.58,0.289,1.543,0.386,2.219,0.578c2.121,0.193,4.051,1.158,6.074,1.158c1.254,0.386,2.99-0.29,4.146,1.254
			c1.545-0.386,2.701-0.771,3.666-1.254c0.385-0.771,1.445-1.736,1.35-2.797c0.676-1.061,0.096-1.929,0.578-3.279
			c0.58-1.832,0.58-2.893,1.544-4.82c0.482-0.387,0.964-0.771,1.542-0.676c0.387,0.965,0,2.121,0,3.279
			c-1.253,2.507-1.06,3.857-1.928,7.135c0.771,0.482,0.482,0.868,0.771,1.062c2.41,0.385,5.014,0.096,7.039-0.387
			c1.254,0.192,2.314-0.289,4.243-0.289c0.386-1.157,1.254-0.289,1.832-0.579c3.472-0.289,6.558-2.218,10.126-2.41
			c1.543-1.351,4.146-1.157,5.689-2.315c1.832,0.193,2.796-2.217,5.111-1.639c1.157-0.868,2.217-1.929,3.664-1.929
			c0.386,0.289,0.771,0.579,1.157,0.964c-0.192,1.447-1.833,1.543-2.894,2.315c-1.639,0.192-3.182,0.578-4.339,1.639
			c-2.122-0.097-3.376,1.736-5.399,1.64c-0.773,0.482-1.544,0.579-2.123,0.964c-0.771-0.097-1.445,0.193-2.025,0.482
			c-4.436,0-7.906,2.894-12.344,2.604c-0.578,0.386-1.638,0.386-2.217,0.482c-4.725,1.64-10.223,1.351-15.045,1.253
			c-2.217-0.578-4.916,0-6.846-0.964c-5.979-1.061-11.766-3.472-17.453-5.015c-2.701-1.061-5.209-2.7-7.715-4.05
			c-2.799-1.543-6.076-2.604-8.102-5.4c0-0.192,0-0.482,0.193-0.579C1125.555,271.047,1130.086,273.555,1134.908,275.676z"/>
		<path style="fill:#17192D;" d="M1124.688,244.432c2.602,0.193,4.725,1.736,7.328,2.219c2.988,2.7,7.039,2.989,10.125,5.4
			c2.41,0.867,5.014,1.832,7.426,2.893c0.963,0.578,1.445,0.965,2.699,2.121c3.375-3.086,7.715-2.699,10.898-4.146
			c3.084-0.867,5.978-1.928,9.064-3.086c2.988-1.156,6.17-1.735,9.449-2.507c1.254-1.061,3.086-1.061,4.629-1.64
			c2.122,0.098,2.99-3.278,4.629-1.735c0.098,0,1.447,0.675,0.579,0.964c-3.568,3.279-8.968,2.219-12.634,4.822
			c-3.374,0.771-6.652,1.061-9.354,2.989c-1.832,0.289-3.568,0.964-5.111,1.832c-2.025,0.482-3.953,0.097-5.496,1.062
			c-1.158,0.096-1.93,0.964-3.182,1.35c-0.193,0.482-1.736,1.446-1.545,1.64c0.193,0.289,2.027-0.193,2.316,0.192
			c4.436,0.578,7.521-0.192,11.283,0.676c2.603-0.193,5.978,0,8.582,0.481c0.289-0.192,1.156,0,1.639-0.192
			c2.894-0.289,5.689-1.833,8.486-0.676c1.735-0.289,3.857-0.964,5.593-0.289c0.097,0.289,0.097,0.676,0,1.061
			c-0.771,0.965-2.122,0.676-3.183,0.868c-4.531,0.29-9.16,0.481-13.5,1.351c-2.122-0.097-3.664,0.096-5.594-0.676
			c-4.533-1.254-9.258-1.061-13.885-0.578c-3.568-0.193-7.619,0.385-11.477-0.193c-3.279-1.156-6.943-0.578-10.896-1.156
			c-1.061,0.964-2.314,0.385-3.184,0.289c-0.771-0.482-1.928-0.579-2.795-0.193c-2.893,1.447-4.533,0.482-6.559-0.386
			c0,0.386-1.639-0.192-1.736-0.386c-0.193-0.868,0.676-1.254,1.352-1.543c0.578-0.289,1.35,1.061,1.928,0.578
			c2.797,0.482,5.979,0.29,8.969,0c4.533,0.676,8.871,0.579,13.404,0.772c0.867,0.192,4.146,0.964,5.207-0.386
			c-1.543-0.771-3.955-1.93-4.436-3.086c-2.314-1.061-3.762-1.158-5.496-2.7c-1.834,0.289-2.605-1.062-4.051-1.062
			c-2.893-0.867-5.4-3.278-8.486-4.242c-1.736-0.097-3.182-1.158-4.629-2.025c-0.098-0.193-0.869-0.386-0.869-0.579
			c-0.289-0.289,0.193-0.868,0.193-1.06C1123.24,242.793,1123.625,244.625,1124.688,244.432z"/>
		<path style="fill:#17192D;" d="M1201.061,225.339c-0.964,2.122-3.277,2.314-4.917,3.472c-2.218,1.158-4.629,2.314-7.137,2.604
			c-0.675,0.385-1.639,0.481-2.411,0.577c-6.46,1.158-12.729,3.762-19.479,3.954c-4.629,0.965-9.74,0.482-14.754,0.386
			c-4.146,0-9.451-1.156-13.598-2.988c-2.025-0.482-4.244-1.255-5.689-2.508c-2.123-0.579-3.762-2.122-5.594-3.278
			c-0.385-0.676-0.867-1.351-0.867-2.026c0-0.096-0.098-0.192-0.098-0.192c1.93,0.481,3.762,1.929,5.691,3.086
			c1.541,0.868,2.41,2.026,4.049,2.411c2.797,0.579,5.016,2.508,7.908,2.314c5.303,1.35,11.09,1.253,17.453,0.867
			c-0.963-2.218,0.676-3.085-0.096-4.436c0.096-0.578,0.193-0.964,0.385-1.35c0.291-0.29,0.482-0.579,0.869-0.29
			c0.193,0.193,0.289,0.29,0.482,0.482c-0.193,0.579,0.193,0.964,0.482,1.253c-0.289,1.255,0,2.508-0.193,4.051
			c4.726,0.482,7.908-0.867,11.766-1.061c1.639-0.771,4.146-0.965,6.171-1.543c1.833-0.578,4.05-0.578,5.786-1.639
			c1.446,0.191,3.086-0.29,4.243-1.736c2.507,0.096,4.436-1.736,7.329-2.314c0-0.771,0-0.482,0-0.482
			c0.482-0.192,1.446-1.253,2.604-0.867C1201.351,224.567,1201.254,224.953,1201.061,225.339z"/>
		<path style="fill:#17192D;" d="M1196.144,194.191c-1.157,0.868-2.7,1.447-3.857,2.412c-4.726,1.35-9.837,2.603-14.947,2.603
			c-3.665,0.579-7.426,1.351-10.993,2.219c-1.93-0.192-4.146-0.579-6.365-0.097c-0.289,0.771-0.289,1.061-1.447,1.351
			c1.062,2.796,3.279,4.725,4.34,6.75c0.58,0.289,1.158,1.061,0.965,1.735c-0.385,1.158,0.193,1.158,0.867,1.832
			c0.869,0,1.641,0.097,2.412,0.482c2.024-0.674,3.568-0.674,5.207-0.096c1.832,1.061,3.375,0.289,5.4,0
			c3.857-0.578,7.521-1.447,11.476-1.641c3.086-0.096,6.172-0.096,9.45-0.096c0.289,0.096,0.579,0.193,0.482,0.482
			c0,0.289-0.385,0.578-0.676,0.676c-4.821,0.288-9.45,0.481-13.693,1.831c-3.182-0.097-5.785,0.868-8.774,0.579
			c-7.137-0.676-14.659,0-21.409,0.867c-2.988-0.675-5.303,0.58-8.197,0.386c-7.521-0.579-15.332-0.579-21.986-2.796
			c-0.965-0.289-0.482-1.062-0.965-1.736c0.098-0.289,0.58,0,0.773-0.096c2.312,0.482,4.338,1.543,6.652,1.446
			c0.096,0.097,0.096,0.097,0.193,0.192c3.953-0.192,7.617,1.061,11.09,0.868c2.604,1.446,5.496-0.386,8.293,0.097
			c3.568,0.578,6.557-0.675,10.029-1.157c0.482-0.386,1.156-0.772,1.832-1.544c-1.158-3.086-4.725-5.014-5.111-7.521
			c0.482,0-0.674-0.771-0.193-2.314c-2.988-0.867-5.398,0.29-7.617-0.771c-1.832-0.482-3.664,0.482-5.594-0.578
			c-2.604,1.254-4.918,0.096-7.424,0.289c-1.447-1.254-2.027,1.254-3.762,0.097c-1.641,0.482-3.857,0.772-5.207,0
			c0.096-0.386,0.096-0.675,0-1.061c1.447-0.868,3.471,0.289,4.918-0.868c2.121-0.192,3.664,0.965,5.785,0.578
			c6.172-1.156,13.02,0.193,19.287-0.192c4.34-0.193,9.064,0.482,13.211-0.964c6.558-1.061,13.405-1.93,19.576-3.183
			c1.543-0.964,3.375-2.025,5.305-1.929C1195.758,193.613,1196.047,193.807,1196.144,194.191z"/>
		<path style="fill:#17192D;" d="M1191.322,173.362c-3.472,2.507-7.908,2.122-11.09,4.821c-1.254,0.387-2.604,1.061-3.665,1.736
			c-2.989-0.097-6.075,1.832-10.126,3.664c2.604,1.061,4.533,0.771,5.883,0.386c5.689,0,10.705-0.964,16.683-0.096
			c1.64,0,3.665-0.482,5.11,0.192c2.797,0.097,6.076-0.675,8.486,0.676c0.098,0.096,0.098,0.096,0.193,0.191
			c-2.025,0.579-4.629,0.387-6.653,0.291c-1.735-0.482-3.568,0.191-5.497,0.191c-3.76,0.097-7.715-1.253-11.09,0.387
			c-3.086,0.386-5.979-1.061-8.969,0c-2.699,0.867-5.4-0.482-7.906,0.771c-4.631-0.771-10.607,0.096-15.623-0.771
			c-5.689,0-11.475,0.386-17.068-0.578c-3.086-0.098-4.34-0.676-7.232-1.255c-0.098,0,0.482-0.675,0.482-0.868
			c3.084-1.832,4.146-2.41,7.424-3.663c4.533-1.833,9.355-1.446,13.887-2.701c6.365,0.097,12.633,0.964,17.262,7.04
			c8.486-5.111,17.551-5.689,25.748-10.125c3.664-1.158,7.039-2.99,10.705-4.147c0.578,0,1.542-0.386,2.217-0.192
			C1197.493,171.048,1194.408,172.398,1191.322,173.362z M1137.029,179.727c-1.254,0.386-2.797-0.096-3.953,0.676
			c-1.543-0.193-2.99,0.674-4.242,1.156l-2.316,1.641c0.869,0.096,4.244,0.385,5.209,0.578c1.254,1.254,3.471,0.675,5.014,1.061
			c7.137-0.964,15.141,0.193,23.723-0.193c-1.254-1.543-2.508-1.928-3.184-2.604c-1.348-1.35-5.109-2.797-7.617-3.857
			C1145.322,178.763,1140.693,177.798,1137.029,179.727z"/>
		<path style="fill:#17192D;" d="M1118.322,143.66c0.191,1.64,0.867,2.797,1.156,4.533c-0.578,2.604-0.096,4.918,0.869,8.1
			c1.35-0.675,2.312-0.482,2.795-0.289c1.834-0.193,4.146,0.289,5.98,0.193c1.734-0.387,3.857-0.579,5.592-0.579
			c2.701-1.351,6.076-1.736,8.775-2.314c1.543,0.386,3.375,0,4.822,0.193c6.557,0,13.307-1.64,19.48-2.507
			c1.156,0.096,2.893-0.193,3.953,0.096c0.193-0.096,0.675-0.096,0.771-0.193c4.821-0.192,8.679-0.289,13.5-0.289
			c2.218,0,4.146,0.387,6.172,0.482h-0.097c-2.507,1.832-5.979,1.157-8.679,1.736c-3.953-0.965-8.1,1.06-12.344-0.579
			c-2.507,2.604-5.496,0.579-8.1,1.446c-2.412-0.289-5.305-0.192-7.33,1.061c-0.965-0.096-1.832,0.289-3.182-0.192
			c-2.314,1.351-5.207,0.675-7.619,0.675c-3.953-0.868-7.135,1.736-10.896,1.254c-2.699,1.35-5.785,1.157-8.871,1.157
			c-0.965-1.062-2.508-0.097-4.436-2.218c-0.676,4.242-0.289,6.75-0.482,9.354c0.482,2.025-0.289,4.243,0,6.461
			c-0.098,0.098-0.098,0.193-0.193,0.289c-0.771-0.096-0.965-0.965-1.254-1.543c0.578-1.928,0.482-3.857,0-5.785
			c-0.385-0.482,0-1.351,0.096-2.314c-1.061-1.447-0.191-3.568-0.963-4.918c0.482-1.543-0.193-3.183-0.098-4.726
			c-0.867-1.543,0.289-3.567-0.578-5.11c0-1.351-1.832-2.701-0.289-3.762c0.098-0.096,0.289-0.193,0.482-0.289
			C1117.742,143.178,1118.225,143.275,1118.322,143.66z"/>
		<path style="fill:#17192D;" d="M1200.579,106.822c0.289,0.097,0.481,0.194,0.675,0.387c-0.868,2.219-3.471,0.965-5.496,1.543
			c-1.736,0.289-3.375,0-5.111,0.096c-4.725,0.098-9.45-0.096-13.982,0c-2.412,0-5.594,0.193-8.101-0.096
			c-1.64-0.193-3.665,0-5.304,0.096c-3.953,0.386-7.715,0-11.861,0.29c-0.193-0.192-0.387-0.192-0.578-0.192
			c-1.736,0.867-3.666,0.096-5.305,0.385c-3.953,0.193-7.715,0.579-11.572,0.579c-2.699-1.157-5.496,0.578-8.293-0.097
			c-0.385-0.097,0.578-1.157,0.867-1.157c4.244-2.893,9.162,1.157,13.887-0.192c5.594-1.544,11.861-0.965,17.357-1.254
			c5.498-0.29,10.705,0.192,16.299,0c1.543-0.192,3.085-0.192,4.725-0.192c0.387,0,0.868,0.096,1.254,0.096
			c4.243-0.096,8.486-0.096,12.247-0.675C1195.18,107.209,1197.59,106.727,1200.579,106.822z"/>
		<path style="fill:#17192D;" d="M1188.718,88.791c3.761,0.964,6.462,4.146,10.222,5.304c0.579,1.061,1.832,1.64,2.411,2.7
			c-0.868,0.289-1.832-0.578-2.603-0.964c-0.676-0.676-1.352-1.062-2.315-1.157c-2.122-1.543-5.015-2.219-7.232-3.954
			c-1.64-0.579-4.051-0.771-5.882-1.64c-3.279-0.193-6.558-0.193-9.74,0.386c-3.086,0.579-6.076,1.832-8.486,3.954
			c-3.184,1.543-6.848,2.7-10.318,3.471c-5.4,2.701-12.248,2.411-17.84,0.193c-3.279,0-5.111-2.797-8.1-3.182
			c-0.869-0.676-1.641-1.351-2.701-1.736c-0.578-0.482-0.289-1.254-0.771-1.929c0-0.192-0.385,0.097-0.193,0.193
			c1.35,0.097,2.797,0.675,3.955,1.253c5.109,3.954,11.957,4.147,18.129,5.497c4.34-0.192,7.906-2.218,12.055-3.183
			c2.602-1.639,5.881-2.218,8.486-3.857c1.928-0.192,3.471-2.41,5.495-1.928c4.34-1.543,9.45-1.543,13.599,0
			C1187.465,88.502,1188.043,88.695,1188.718,88.791z"/>
		<path style="fill:#17192D;" d="M1116.199,65.456c0,2.989-0.096,5.882,0.676,9.16c7.232,0.482,14.176,0.482,19.77-1.35
			c1.541-0.29,3.086-0.482,4.34-0.964c6.074-1.736,10.607-0.482,16.586-2.604c3.76-0.289,7.135-1.061,10.704-1.64
			c5.014-0.867,10.222-0.289,14.851-1.35c2.988,0,6.557-0.386,9.739-1.253c2.604,0.096,5.304-1.062,7.907-1.544
			c0.387,0.193,0.869,0.579,1.061,0.868c-0.385,2.893-4.628,1.254-6.46,2.122c-6.558,1.253-12.923,1.929-18.997,2.121
			c-3.665,0.096-7.522,1.061-11.283,1.543c-3.762,0.482-6.559,0.771-10.318,0.771c-1.061,0.578-2.508,0.771-3.857,0.482
			c-1.254,1.156-2.508,0.482-3.471,1.156c-3.184,0.482-6.559,1.351-10.029,1.832c-3.088,0-6.463,1.833-9.258,1.352
			c0,0-0.482,0.192-0.578,0.289c-2.797-0.097-6.172,0.289-10.029-1.158c-0.771,2.219-0.193,4.437-0.387,6.075
			c-0.578,6.075,1.254,11.669,0.289,17.358c0,0.482,0.578,1.157,0.193,1.64c-0.385,0.386-0.771,0.097-1.156,0
			c-1.062-1.446-0.773-3.761-0.773-5.399c-0.674-0.772,0.098-2.315-0.191-3.279c0.578-5.979-0.387-11.862-0.387-17.262
			c0-5.015-0.963-11.09-1.254-16.201c-0.385-0.867,0.387-1.446,0.869-1.832c0.096,0,0-0.193,0.096-0.096
			C1115.814,59.188,1116.199,62.272,1116.199,65.456z"/>
		<path style="fill:#17192D;" d="M1193.732,55.62c0,0.482-0.676,0.771-1.061,0.867c-1.447,0.965-3.472,0.097-5.015,0.868
			c-0.481,0-0.868-0.192-1.157-0.481c0-0.482,0.193-0.676,0.387-0.868c1.349-0.386,2.699-2.604,4.338-0.965
			C1192.479,54.945,1193.057,55.234,1193.732,55.62z"/>
	</g>
	<path style="fill:none;stroke:#17192D;stroke-width:3;" d="M2048,0"/>
	<path style="fill:none;stroke:#17192D;stroke-width:3;" d="M2048,1536"/>
	<path style="fill:none;stroke:#17192D;stroke-width:3;" d="M0,1536"/>
	<path style="fill:none;stroke:#17192D;stroke-width:3;" d="M0,0"/>
</g>
<g id="Layer_1">
</g>
</svg>
