<svg xmlns="http://www.w3.org/2000/svg" width="2048" height="1536" viewBox="0 0 2048 1536"><g><g fill="#17192D"><path d="M1011.387 1230.982c4.05.674 7.425 1.156 11.38.48 2.602.387 4.434-.096 6.75-.674 2.218.578 5.497.29 8.003.674 2.12.965 4.244.29 6.46.29 2.702 0 5.208.192 8.005.192.867.098 1.93-.578 2.797.482 1.445 0 2.508.58 3.473.87 1.156.962 3.375.673 4.53 1.83 1.93.483 2.894 2.507 4.147 3.76.867.966 1.736 1.063 2.12 2.315-.673.483-.866.966-1.638.87-1.832.096-1.445-1.832-2.7-2.604-2.313-3.666-6.75-5.787-11.38-5.787-.77-.097-1.35-.58-2.314-.772-4.82.482-9.836 1.156-14.947.77-4.146-1.638-9.352-.673-13.884-.866-3.666.29-8.392-.578-12.442.096-2.893-.965-5.785 0-8.775-.482-1.734.482-3.47-.385-5.014.387-2.895.096-5.69.193-8.294.096-1.158 1.06-2.508-.29-3.665-.29-.674-.29-.674-.965 0-1.254 2.99-.29 5.498.096 8.294 0 4.146-.096 8.39-.578 12.344-.965 2.41-.576 4.435 1.063 6.75.582zM1063.17 1212.467c-.963 2.123-3.277 2.316-4.916 3.473-2.22 1.156-4.63 2.314-7.137 2.604-.676.387-1.64.482-2.412.578-6.46 1.158-12.73 3.762-19.48 3.955-4.627.963-9.74.48-14.752.385-4.146 0-9.45-1.156-13.598-2.99-2.025-.482-4.243-1.252-5.69-2.506-2.12-.58-3.76-2.123-5.593-3.28-.385-.675-.867-1.35-.867-2.024 0-.096-.097-.193-.097-.193 1.93.48 3.76 1.93 5.69 3.085 1.542.87 2.41 2.025 4.05 2.412 2.796.578 5.015 2.506 7.907 2.314 5.304 1.35 11.09 1.255 17.454.868-.965-2.217.674-3.086-.098-4.436.097-.578.193-.965.386-1.35.29-.29.482-.578.868-.29l.482.48c-.193.58.193.966.482 1.255-.29 1.254 0 2.508-.193 4.05 4.727.483 7.908-.868 11.766-1.06 1.64-.77 4.146-.965 6.172-1.543 1.832-.578 4.05-.578 5.785-1.64 1.447.192 3.086-.29 4.244-1.735 2.506.095 4.436-1.737 7.328-2.315v-.482c.482-.193 1.447-1.254 2.604-.867-.095.48-.193.866-.386 1.25zM1030.963 1186.816c3.762.29 7.617 1.158 11.668 1.64 4.92.58 10.03 1.157 14.66 3.472 2.41 2.412 5.4 3.666 7.327 6.848.29 1.736 1.543 1.445.965 3.566.096.29-.193 0-.193-.385-2.22.096-1.16-.482-2.798-2.7-2.508.772-4.338-.386-6.172.386-7.715-.482-14.367 0-21.89.77-1.833.87-4.145.87-6.27.58-1.35-.48-2.796.48-4.434.192-5.015-.29-10.607-.29-15.526.387-3.664-.193-7.23 0-10.993.385-1.446-.29-3.086-.77-5.11-.193-.58 1.352-1.253 1.06-.77 2.22-.193.192-.387.48-.676.675-.288-.1-.58 0-.868-.29.387-2.797 2.22-4.34 3.955-6.463 3.375-3.086 7.715-4.53 11.38-7.52 2.41-1.544 4.917-1.735 7.52-2.798 3.278-.483 6.943-.29 10.126-.964 2.7.673 5.303.48 8.1.19zm-15.237 2.413c-3.76-.194-6.364 1.542-9.933 2.603-.193.193-1.06 1.06-1.543 1.35-2.7 1.93-5.883 2.797-8.775 6.654 3.473-.29 5.207.965 6.848.29 2.41.288 4.53-.966 6.94-1.062 3.474 1.06 7.234.193 10.802.676 3.28.386 6.847-.386 10.222-.58 5.98-2.313 12.922-.675 19.094-1.35 2.99 0 6.462-.48 11.187.097-1.832-3.857-5.11-4.53-7.328-5.785-5.69-1.543-11.38-2.508-17.263-3.086-1.156-.193-2.604.29-3.664-.385-5.303.29-11.67-1.545-16.587.58zM997.018 1171.293c1.447.19 2.41 1.64 4.05 1.64 3.086 1.542 5.98 2.313 9.74 2.507.58.29 1.543.385 2.218.578 2.122.193 4.05 1.156 6.075 1.156 1.255.387 2.99-.29 4.147 1.254 1.544-.385 2.7-.77 3.665-1.254.387-.77 1.447-1.734 1.35-2.797.676-1.06.098-1.928.578-3.277.58-1.832.58-2.893 1.545-4.822.482-.385.963-.77 1.54-.674.388.963 0 2.12 0 3.277-1.25 2.51-1.058 3.858-1.927 7.138.77.482.482.867.77 1.06 2.41.386 5.015.097 7.04-.384 1.254.19 2.314-.29 4.244-.29.385-1.157 1.254-.29 1.832-.58 3.47-.288 6.557-2.218 10.125-2.41 1.542-1.35 4.145-1.157 5.688-2.313 1.832.194 2.797-2.218 5.11-1.64 1.16-.867 2.218-1.928 3.665-1.928.387.29.77.578 1.158.965-.192 1.445-1.833 1.543-2.894 2.314-1.64.192-3.182.58-4.338 1.64-2.123-.096-3.377 1.736-5.4 1.64-.773.48-1.543.58-2.123.964-.77-.096-1.445.193-2.025.482-4.436 0-7.906 2.893-12.344 2.604-.578.387-1.637.387-2.217.482-4.726 1.64-10.224 1.35-15.044 1.254-2.218-.578-4.917 0-6.847-.965-5.98-1.06-11.766-3.47-17.454-5.013-2.7-1.06-5.21-2.7-7.715-4.05-2.797-1.544-6.075-2.605-8.1-5.4 0-.194 0-.483.192-.58 4.343 2.795 8.875 5.303 13.696 7.426zM1053.432 1144.29c-3.47 2.51-7.908 2.124-11.09 4.823-1.254.387-2.604 1.06-3.664 1.736-2.99-.097-6.076 1.83-10.127 3.663 2.606 1.06 4.534.77 5.884.387 5.69 0 10.705-.965 16.684-.098 1.64 0 3.664-.482 5.11.193 2.796.096 6.075-.676 8.485.676l.193.192c-2.025.578-4.63.387-6.652.29-1.736-.48-3.568.192-5.498.192-3.76.096-7.715-1.254-11.09.387-3.086.386-5.98-1.06-8.97 0-2.698.868-5.397-.48-7.905.772-4.63-.77-10.606.096-15.622-.77-5.69 0-11.475.384-17.068-.58-3.086-.097-4.34-.675-7.232-1.253-.097 0 .482-.677.482-.87 3.085-1.832 4.146-2.41 7.425-3.664 4.532-1.832 9.354-1.447 13.887-2.7 6.364.097 12.633.964 17.26 7.04 8.487-5.11 17.55-5.69 25.75-10.127 3.663-1.157 7.038-2.99 10.704-4.147.578 0 1.543-.385 2.217-.19-2.99 1.734-6.075 3.085-9.16 4.048zm-54.292 6.366c-1.255.387-2.797-.096-3.954.676-1.543-.193-2.99.674-4.242 1.156l-2.315 1.64c.867.097 4.242.386 5.207.58 1.254 1.253 3.47.673 5.014 1.06 7.138-.965 15.142.193 23.724-.193-1.254-1.543-2.508-1.928-3.183-2.604-1.348-1.35-5.11-2.796-7.617-3.856-4.34.577-8.97-.387-12.633 1.542zM1009.362 1079.682c3.857.096 7.52.676 11.38 1.06 3.856.388 8.002.194 11.764.388.385 0 .674.482 1.06.482 2.7.19 5.306.482 7.907.29 7.33.675 14.273.577 21.408 1.542.677.48 0 .867.29 1.543-1.06.48-1.348.578-2.604.674-4.436-.866-7.81 2.894-12.15 2.22-3.277.963-6.846.77-10.22 1.736-3.183 2.7-8.294.578-14.852 2.602 4.822 2.027 7.04 1.93 9.064 2.316 3.473.77 6.56.77 10.03 1.35 3.183.482 6.75 1.543 9.74 1.543 1.35.29 2.603.578 4.145.676.29.385.965.29 1.447.385 1.734-.29 3.76-.385 5.496-.482.193.098.29.193.385.29-.962 1.35-3.18.58-4.435 1.253-5.014 2.024-10.896 2.603-16.875 3.085-5.11.385-10.223.77-14.947 1.543-4.34.482-8.775 2.025-13.21 2.025-.58.385-1.736.29-2.315.385-8.004 1.93-16.876 1.543-25.458 1.93-1.157-.387-5.4 1.64-4.146-.77.676-.1 1.157-.677 1.832-.966 9.258-1.06 18.61.578 27.966-1.543 4.436.288 8.293-1.544 12.343-2.22.87-.096 1.736.193 2.605 0 6.557-1.06 14.367-1.928 21.117-3.086l4.05-.674c-3.472-.867-10.317-1.736-13.017-2.7-6.463 0-11.86-2.218-18.226-2.894-2.99-.29-5.594-.867-7.812-1.06-.096-.194-1.06.386-1.253 0 1.156-1.062 2.796-.194 3.856-1.255 1.64-.288 3.375-.48 5.208-.77 2.7-.48 5.496-1.06 8.195-1.35 1.737-.193 3.567 0 5.112-.193 2.12-.29 2.893-.867 4.918-1.156 1.54-.192 2.217-.097 3.76-.288.482-.098.676-.387 1.156-.387 3.088-.48 6.56-.385 9.45-1.543l3.763-1.447c-3.858-.578-12.056-.29-15.72-.674-7.426-.866-15.912-.673-23.337-1.06-.482-.29-1.254-.193-1.93-.965-7.617-.385-13.885-2.7-21.503-1.928-2.314-.77-4.532.385-6.75-.193-1.35-.385-2.7 0-3.954-.77-.192-.194-.675-.29-.867-.483 5.013-2.218 10.895-.192 16.103 0 3.568.096 6.847.77 10.03 1.542zM1065.678 1040.53c2.41.288 4.05-.29 4.63.868 0 .096-.097.29-.097.385-3.567 2.025-8.196 1.158-12.343 2.314-7.328 1.06-14.85 1.64-21.602 3.375-1.54 2.12-3.28 5.016-2.217 7.81.096.1-.29 0-.676.677.676.964-.387 1.35-.387 2.12-.385 1.834-.19 4.146-.963 7.328 5.594 1.256 10.896 1.158 15.525 2.412 3.375.965 8.1-.578 11.475 1.156 1.254 0 2.8-.19 3.666.87.19.48-.676.48-1.06.48-3.956-.675-6.944-.386-10.706-.868-4.436-1.928-11.186-.29-16.008-2.217-1.736 0-4.436.483-5.787-.48-4.53-1.062-9.93.288-14.174-1.737-7.907.29-14.465-2.99-22.565-2.99-.386-.385-.386-1.06-1.254-1.156-2.314-.77-5.303.676-6.75-1.254.578-1.06 2.12-.578 3.28-1.447 9.738-2.12 18.706-6.363 28.64-8.195 2.796-1.35 6.268-1.735 9.353-2.99 1.062-.095 2.12-.288 3.086.1 1.93-.58 4.05-1.255 6.172-1.255 4.533-.098 8.582-2.22 13.307-1.832 1.447-.87 3.666-.193 5.21-.676 2.987-.29 6.073-1.06 8.87-1.832.578-.29.867-.482.965-.676.867-.386.963-.386 1.64-.29 0 .097.77-.194.77 0zm-36.45 7.812c-4.823 2.12-10.416 2.12-15.43 3.566-5.882 1.64-11.38 4.918-18.032 6.172 0 1.64.674 2.22 1.83 2.314 2.7.965 5.21 2.025 8.294 2.412 5.69.77 12.344.29 17.744 1.64 1.447 0 3.568 0 5.496.577.965-1.156 1.062-2.314 1.93-2.893 0-1.158.29-2.025.387-2.893.19-1.447.19-2.797.48-3.857.482-1.832.77-2.508.965-4.05 2.602-4.533-1.93-2.892-3.665-2.988zM1058.254 1010.54c-1.158.866-2.7 1.444-3.857 2.41-4.727 1.35-9.838 2.603-14.947 2.603-3.666.578-7.426 1.35-10.994 2.22-1.928-.194-4.146-.58-6.365-.1-.288.774-.288 1.063-1.445 1.353 1.062 2.797 3.278 4.725 4.34 6.75.58.29 1.157 1.06.963 1.734-.385 1.158.193 1.158.87 1.834.866 0 1.638.096 2.41.482 2.024-.676 3.567-.676 5.206-.098 1.832 1.06 3.375.29 5.4 0 3.857-.578 7.52-1.447 11.477-1.64 3.087-.097 6.173-.097 9.45-.097.29.1.58.194.482.483 0 .29-.385.58-.676.676-4.82.288-9.45.48-13.693 1.83-3.182-.095-5.785.868-8.773.58-7.137-.675-14.66 0-21.41.868-2.988-.676-5.303.578-8.196.385-7.522-.578-15.333-.578-21.987-2.797-.964-.29-.482-1.06-.964-1.736.097-.29.58 0 .772-.096 2.313.482 4.338 1.543 6.652 1.447l.193.194c3.953-.193 7.618 1.06 11.09.867 2.604 1.446 5.496-.386 8.293.097 3.568.578 6.558-.674 10.03-1.156.48-.386 1.156-.77 1.83-1.542-1.156-3.086-4.724-5.016-5.11-7.52.482 0-.674-.774-.192-2.315-2.988-.87-5.398.29-7.617-.77-1.832-.483-3.664.48-5.594-.58-2.604 1.253-4.92.097-7.425.29-1.447-1.256-2.026 1.254-3.762.096-1.64.48-3.857.77-5.207 0 .096-.388.096-.677 0-1.062 1.447-.87 3.47.29 4.918-.87 2.12-.19 3.664.966 5.786.58 6.17-1.157 13.02.192 19.286-.192 4.34-.193 9.064.482 13.21-.965 6.56-1.06 13.406-1.927 19.576-3.18 1.543-.966 3.375-2.026 5.305-1.93.29.29.58.484.677.87zM1053.432 989.71c-3.47 2.507-7.908 2.12-11.09 4.82-1.254.386-2.604 1.062-3.664 1.735-2.99-.096-6.076 1.834-10.127 3.666 2.606 1.062 4.534.77 5.884.386 5.69 0 10.705-.965 16.684-.096 1.64 0 3.664-.482 5.11.19 2.796.1 6.075-.673 8.485.677.098.096.098.096.193.193-2.025.578-4.63.385-6.652.29-1.736-.483-3.568.192-5.498.192-3.76.096-7.715-1.254-11.09.385-3.086.387-5.98-1.06-8.97 0-2.698.87-5.397-.482-7.905.77-4.63-.77-10.606.1-15.622-.77-5.69 0-11.475.387-17.068-.578-3.086-.097-4.34-.677-7.232-1.255-.097 0 .482-.676.482-.867 3.085-1.832 4.146-2.412 7.425-3.664 4.532-1.834 9.354-1.447 13.887-2.7 6.364.095 12.633.964 17.26 7.038 8.487-5.11 17.55-5.69 25.75-10.125 3.663-1.158 7.038-2.988 10.704-4.146.578 0 1.543-.386 2.217-.192-2.99 1.737-6.075 3.086-9.16 4.05zm-54.292 6.364c-1.255.385-2.797-.098-3.954.674-1.543-.193-2.99.676-4.242 1.158l-2.315 1.64c.867.095 4.242.386 5.207.577 1.254 1.254 3.47.676 5.014 1.06 7.138-.962 15.142.194 23.724-.19-1.254-1.543-2.508-1.93-3.183-2.605-1.348-1.35-5.11-2.795-7.617-3.855-4.34.576-8.97-.388-12.633 1.54zM1065.39 953.354c.097.29.097.674 0 .965-.58.288-.966.384-1.737.577-.482.096-.963.096-1.445.096-1.736.387-2.797.578-4.63 1.158-.386.192-.577.386-.964.58-.482 0-.676-.097-1.156-.097-2.025-.098-4.727.674-5.207.482-4.82.867-4.145 1.252-9.644 1.54-3.953.194-6.846.58-10.512.966 0 1.93-1.254 3.763-1.543 5.497-.095.965-.19 1.447-.384 2.412-.387 1.253-1.156 1.83-.965 3.18 0 2.702.194.87-1.35 3.57-.192.288-.288.673-1.35 2.12 2.316-.193 3.087-.385 4.148-.578 1.445.965 4.05.096 6.365.193 6.074.29 11.86-.58 17.355-.29 5.113.192 10.127-.772 14.658-.29.098.29.098.676.098 1.062-.387 2.312-3.086.578-4.146 1.06-4.822.386-9.258.386-14.658.386-6.557.193-13.115-.385-19.77.096-4.532.386-8.486-.29-12.632.48-7.04-1.155-14.176 2.315-21.118.677-1.736-.096-3.472.578-5.208.096-.867-.482-3.953-.19-2.313-1.543 5.398-.578 10.992.098 16.49-.096 8.1-.385 3.18-.77 5.303-.965 2.796-.29 4.436-.192 7.328-.192 2.605 0 4.052.29 6.848 0 .58-1.352.964-2.123 1.544-3.28 1.253-2.41.384.964.964-3.567.19-1.444.29-1.83.29-3.278 0-1.254.577-1.832.866-3.086.29-.867.193-1.832.387-3.47-1.255 0-1.642.095-2.22.095-2.025-.577-4.822 1.448-6.654-.288-2.314-.193-3.568-.385-5.496.387-1.35-.1-2.797-.29-4.533-.483-.386-.193-.964.29-1.35.29-1.543.866-2.508-1.642-3.953-.483-.676 0-1.352.676-2.025-.29-3.185.868-5.69.58-8.392-1.157-.867.387-1.253-.19-1.64-.674-.095-.096-.192-.29-.095-.482.29-.77.77.388.964.29 0 0 .578.482 1.156-.098.58-.48 1.062.773 1.64.482 3.664.87 7.62.87 11.38.387 3.663.868 9.064 0 12.536.868.866-.096 1.638-.77 2.987 0 1.158-1.254 2.604-.29 3.472-.867 4.435-.095 8.968-.48 13.403-.577 4.34 0 2.893-.676 6.172-1.158.674.193 1.736-.29 2.217.098 1.254-.193 2.412-.193 3.666-.387 2.604-.385 6.17-.578 8.484-1.156.387.19.87-.098 1.543-.87-.385-.866.676-.384.676-.577 1.063-.388 2.51.575 4.15.19zM1063.17 935.32c-.963 2.123-3.277 2.316-4.916 3.473-2.22 1.156-4.63 2.314-7.137 2.604-.676.387-1.64.482-2.412.578-6.46 1.158-12.73 3.762-19.48 3.955-4.627.963-9.74.48-14.752.385-4.146 0-9.45-1.156-13.598-2.988-2.025-.482-4.243-1.254-5.69-2.508-2.12-.58-3.76-2.124-5.593-3.28-.385-.676-.867-1.35-.867-2.025 0-.096-.097-.193-.097-.193 1.93.482 3.76 1.93 5.69 3.088 1.542.867 2.41 2.023 4.05 2.41 2.796.578 5.015 2.508 7.907 2.314 5.304 1.35 11.09 1.254 17.454.867-.965-2.216.674-3.085-.098-4.435.097-.578.193-.965.386-1.35.29-.29.482-.578.868-.29l.482.483c-.193.578.193.963.482 1.252-.29 1.254 0 2.508-.193 4.05 4.727.483 7.908-.866 11.766-1.06 1.64-.77 4.146-.965 6.172-1.543 1.832-.578 4.05-.578 5.785-1.64 1.447.192 3.086-.29 4.244-1.735 2.506.096 4.436-1.736 7.328-2.314v-.482c.482-.193 1.447-1.254 2.604-.867-.095.48-.193.866-.386 1.25zM1062.69 922.4c.288.096.48.193.673.385-.867 2.22-3.47.965-5.496 1.543-1.736.29-3.375 0-5.11.098-4.726.096-9.45-.098-13.983 0-2.412 0-5.594.19-8.1-.098-1.64-.19-3.664 0-5.305.098-3.954.385-7.715 0-11.862.29-.193-.194-.387-.194-.578-.194-1.736.867-3.666.096-5.305.387-3.953.19-7.714.577-11.57.577-2.7-1.158-5.498.578-8.294-.098-.385-.097.58-1.157.868-1.157 4.243-2.893 9.16 1.156 13.886-.193 5.594-1.543 11.862-.965 17.358-1.254 5.497-.29 10.704.193 16.297 0 1.542-.19 3.085-.19 4.724-.19.387 0 .87.095 1.254.095 4.244-.095 8.486-.095 12.248-.675 2.893.77 5.303.29 8.293.385zM980.432 899.95c.192 1.638.867 2.796 1.156 4.53-.578 2.605-.096 4.92.87 8.102 1.35-.676 2.312-.482 2.795-.29 1.833-.192 4.146.29 5.98.194 1.733-.387 3.856-.58 5.59-.58 2.702-1.35 6.077-1.736 8.776-2.314 1.543.387 3.374 0 4.82.193 6.558 0 13.31-1.64 19.48-2.508 1.157.098 2.894-.19 3.954.098.193-.098.676-.098.77-.193 4.823-.193 8.68-.29 13.5-.29 2.22 0 4.147.386 6.173.483h-.096c-2.507 1.832-5.98 1.156-8.68 1.736-3.952-.964-8.1 1.06-12.343-.58-2.506 2.605-5.496.58-8.1 1.448-2.41-.29-5.304-.193-7.33 1.06-.964-.095-1.832.29-3.182-.192-2.314 1.35-5.207.676-7.618.676-3.954-.87-7.136 1.736-10.896 1.254-2.7 1.35-5.785 1.156-8.87 1.156-.966-1.06-2.51-.096-4.437-2.217-.676 4.242-.29 6.75-.482 9.354.483 2.024-.288 4.24 0 6.46-.097.096-.097.19-.192.29-.77-.1-.964-.966-1.254-1.544.58-1.928.482-3.857 0-5.785-.385-.48 0-1.35.097-2.313-1.06-1.447-.19-3.568-.963-4.918.482-1.544-.193-3.185-.097-4.728-.868-1.543.29-3.568-.58-5.11 0-1.35-1.83-2.7-.288-3.76.098-.097.29-.194.482-.29.39.095.87.192.968.577zM1063.17 856.457c-.963 2.123-3.277 2.314-4.916 3.473-2.22 1.156-4.63 2.314-7.137 2.604-.676.385-1.64.482-2.412.578-6.46 1.158-12.73 3.762-19.48 3.953-4.627.965-9.74.482-14.752.387-4.146 0-9.45-1.156-13.598-2.988-2.025-.482-4.243-1.254-5.69-2.508-2.12-.58-3.76-2.123-5.593-3.28-.385-.675-.867-1.35-.867-2.024 0-.096-.097-.193-.097-.193 1.93.48 3.76 1.93 5.69 3.085 1.542.87 2.41 2.025 4.05 2.412 2.796.578 5.015 2.508 7.907 2.314 5.304 1.35 11.09 1.253 17.454.868-.965-2.22.674-3.086-.098-4.436.097-.578.193-.965.386-1.35.29-.29.482-.58.868-.29l.482.48c-.193.58.193.966.482 1.255-.29 1.254 0 2.508-.193 4.05 4.727.483 7.908-.866 11.766-1.06 1.64-.77 4.146-.965 6.172-1.543 1.832-.578 4.05-.578 5.785-1.64 1.447.192 3.086-.29 4.244-1.735 2.506.095 4.436-1.737 7.328-2.315v-.482c.482-.193 1.447-1.254 2.604-.867-.095.48-.193.866-.386 1.25zM999.718 828.492c1.06 0 2.604-.096 3.76-.19 2.798-1.737 7.138 0 10.417.384 2.023-1.156 5.4-.482 7.52-.674 3.086-.77 7.135.19 10.704.19 6.27 0 13.5-.19 19.77-.48.962-.097 1.927-.675 2.796-.29.096.098.19-.096.29-.096-2.22 1.447-4.92 1.543-7.138 2.508-3.182 2.795-6.848 4.242-10.22 6.363-4.052 1.832-8.198 3.184-11.862 5.98-1.158.58-2.22 1.253-3.375 1.833l-2.796 1.35 3.183.193c7.52.48 14.56-1.352 22.275-.29 3.086 0 5.98-1.253 8.97-.675.77-.098 1.735 0 2.41 0-.097.193 0 .578-.097.676-.77 0-1.447.19-2.12.674-.772.387-1.737.387-2.605.578-2.604.29-5.207-.096-7.812.482-7.04.193-13.885-.674-20.732.098-3.183-.58-6.365 1.06-9.45.19-2.025.483-4.63-.577-6.172.58-4.63-.48-9.16-1.253-13.983-1.253-1.06-.387-2.698 0-3.18-1.158-.1-.096.577-1.06.577-.578 5.208-1.35 9.644 1.736 15.623 1.06 3.086-.384 6.268 0 9.546-.964.964-1.35 2.41-1.252 3.472-2.12 1.93-.29 3.857-.77 5.11-2.122 4.918-2.41 9.934-3.278 13.887-6.845 1.156-.482 2.314-1.062 3.568-2.123 0-.29 2.795-1.543 2.795-1.832-.096-.19-2.988.482-2.988.098-3.76 0-7.232-.676-10.223.385-5.398-1.35-10.993-1.447-16.78-.193-4.145-.48-8.388-1.06-12.438-.29-3.376-1.446-7.137 1.544-10.223-1.155-.29-.87-1.833-.58-1.735-1.64 3.277-.58 6.074 1.25 9.256 1.347zM978.31 805.352c0 2.988-.097 5.88.675 9.16 7.232.482 14.176.482 19.77-1.35 1.542-.29 3.086-.482 4.34-.965 6.074-1.736 10.607-.482 16.586-2.604 3.762-.29 7.137-1.06 10.706-1.64 5.014-.868 10.22-.288 14.85-1.35 2.988 0 6.557-.386 9.74-1.253 2.604.096 5.303-1.06 7.906-1.543.387.19.87.578 1.06.867-.384 2.893-4.626 1.254-6.458 2.12-6.56 1.255-12.924 1.93-18.998 2.124-3.664.096-7.52 1.06-11.283 1.54-3.76.483-6.557.772-10.318.772-1.06.58-2.507.773-3.857.482-1.254 1.158-2.507.482-3.47 1.158-3.185.482-6.56 1.35-10.03 1.83-3.087 0-6.462 1.832-9.258 1.35 0 0-.482.193-.578.29-2.797-.097-6.172.29-10.03-1.157-.77 2.22-.192 4.436-.386 6.076-.578 6.073 1.254 11.667.29 17.356 0 .482.578 1.156.192 1.64-.385.386-.77.097-1.156 0-1.062-1.446-.772-3.76-.772-5.4-.675-.77.097-2.315-.192-3.278.578-5.98-.386-11.86-.386-17.262 0-5.014-.964-11.09-1.254-16.2-.386-.868.386-1.446.868-1.833.097 0 0-.19.097-.096.96 2.895 1.346 5.98 1.346 9.165zM1050.828 786.838c3.76.963 6.46 4.146 10.22 5.303.58 1.062 1.833 1.64 2.413 2.702-.868.287-1.83-.58-2.603-.965-.676-.676-1.352-1.06-2.314-1.158-2.123-1.544-5.016-2.218-7.232-3.954-1.64-.578-4.05-.77-5.882-1.64-3.28-.192-6.557-.192-9.74.386-3.086.58-6.076 1.832-8.486 3.955-3.182 1.543-6.846 2.697-10.318 3.47-5.4 2.7-12.247 2.41-17.84.192-3.278 0-5.11-2.796-8.1-3.18-.87-.677-1.64-1.353-2.7-1.737-.58-.482-.29-1.254-.772-1.93 0-.19-.385.096-.192.193 1.35.098 2.796.676 3.954 1.254 5.11 3.95 11.957 4.146 18.13 5.496 4.34-.193 7.905-2.217 12.054-3.182 2.603-1.64 5.882-2.22 8.486-3.857 1.928-.193 3.47-2.41 5.496-1.928 4.34-1.544 9.45-1.544 13.598 0 .576.29 1.154.48 1.83.578zM1022.38 770.734c1.83 1.447 3.954 2.795 5.592 4.918 7.232-.58 13.887.867 20.25.674 2.797-.096 4.727-1.832 7.33-1.64.096.772.674 1.544 1.64 1.833.192.192.192-.58-.097-.483-.096.096-.676.193-.77.193-3.474 2.314-8.68.676-12.923 1.254-1.543.385-3.762 1.06-5.014 0-5.787-1.06-12.73.48-18.42-.77-4.145-.194-8.58.962-12.535.095-5.98-.483-11.958.192-18.033-.677-2.024.773-3.665 0-5.786-.096-.578-.385-1.736 0-2.025-.674.386-.482.192-1.254.77-1.64 2.22-1.83 5.208-2.313 7.426-3.665 2.218-.385 4.146-.867 6.075-1.928.194-.29.387-.578.58-.675 2.508-.192 5.014-1.93 7.714-.868 6.173.676 12.923.965 18.226 4.147zm-24.88-2.025c-2.025 1.446-4.63 2.024-6.75 2.602-.77 1.254-3.086.87-4.244 2.025 1.158 1.832 2.797.963 3.955 1.156 5.883 1.158 11.958.29 18.033.676 2.41.962 4.532-.1 6.943.095 2.7.193 5.4-1.06 7.907.193l.867-1.06c-1.156-1.737-2.795-2.99-4.917-3.57-1.833 0-3.568-.962-5.4-1.733-3.278-.87-6.558-.676-10.03-.87-2.12-.095-3.856 1.16-6.363.484zM1053.432 745.856c-3.47 2.507-7.908 2.122-11.09 4.82-1.254.388-2.604 1.063-3.664 1.737-2.99-.097-6.076 1.832-10.127 3.664 2.606 1.062 4.534.77 5.884.386 5.69 0 10.705-.964 16.684-.097 1.64 0 3.664-.48 5.11.193 2.796.096 6.075-.676 8.485.674l.193.193c-2.025.578-4.63.386-6.652.29-1.736-.483-3.568.19-5.498.19-3.76.098-7.715-1.252-11.09.387-3.086.387-5.98-1.06-8.97 0-2.698.868-5.397-.48-7.905.772-4.63-.772-10.606.096-15.622-.772-5.69 0-11.475.387-17.068-.578-3.086-.097-4.34-.675-7.232-1.254-.097 0 .482-.675.482-.867 3.085-1.833 4.146-2.41 7.425-3.665 4.532-1.832 9.354-1.446 13.887-2.7 6.364.097 12.633.964 17.26 7.04 8.487-5.11 17.55-5.69 25.75-10.126 3.663-1.157 7.038-2.99 10.704-4.146.578 0 1.543-.386 2.217-.192-2.99 1.736-6.075 3.086-9.16 4.05zm-54.292 6.364c-1.255.386-2.797-.096-3.954.676-1.543-.193-2.99.675-4.242 1.156l-2.315 1.64c.867.097 4.242.386 5.207.58 1.254 1.253 3.47.674 5.014 1.06 7.138-.965 15.142.193 23.724-.192-1.254-1.543-2.508-1.93-3.183-2.604-1.348-1.35-5.11-2.796-7.617-3.857-4.34.576-8.97-.388-12.633 1.54zM1062.69 731.583c.288.096.48.192.673.386-.867 2.217-3.47.964-5.496 1.542-1.736.29-3.375 0-5.11.097-4.726.095-9.45-.098-13.983 0-2.412 0-5.594.19-8.1-.098-1.64-.193-3.664 0-5.305.097-3.954.384-7.715 0-11.862.288-.193-.193-.387-.193-.578-.193-1.736.868-3.666.097-5.305.386-3.953.194-7.714.58-11.57.58-2.7-1.157-5.498.578-8.294-.097-.385-.097.58-1.157.868-1.157 4.243-2.893 9.16 1.157 13.886-.192 5.594-1.544 11.862-.965 17.358-1.254 5.497-.29 10.704.192 16.297 0 1.542-.193 3.085-.193 4.724-.193.387 0 .87.097 1.254.097 4.244-.097 8.486-.097 12.248-.675 2.893.77 5.303.287 8.293.383zM1070.307 710.66c1.254 1.06 0 .963-.19 1.35-5.403 4.725-12.925 3.76-18.71 7.52-4.146 1.544-8.582 2.122-12.633 3.086-3.182.097-6.076 1.446-9.064.868-.965.77-2.41 0-3.47.386-6.945 0-10.9-1.35-16.3-2.507-1.83.192-3.76-.386-5.206-1.64-2.508.29-4.532-.482-6.365-1.446-4.437-1.64-8.872-3.375-12.054-6.46 0 .095-.58-.194-.29-.387.772-.482 1.64.386 2.41.77 4.532.387 7.426 3.666 11.477 4.63 1.83.965 3.857.965 5.593 1.64 7.426 1.93 12.344 3.568 20.154 3.664.098 0 .29-.675.29.097 6.653-.385 12.343-1.928 18.417-2.603 6.174-1.93 12.344-4.146 18.516-6.075 1.64-1.06 3.568-1.93 5.69-2.7.58 0 1.64-1.06 1.93-.675.093 0 .768 0-.196.482zM1058.254 680.283c-1.158.867-2.7 1.446-3.857 2.41-4.727 1.35-9.838 2.604-14.947 2.604-3.666.58-7.426 1.35-10.994 2.22-1.928-.194-4.146-.58-6.365-.098-.288.77-.288 1.06-1.445 1.35 1.062 2.796 3.278 4.725 4.34 6.75.58.29 1.157 1.06.963 1.735-.385 1.157.193 1.157.87 1.832.866 0 1.638.097 2.41.482 2.024-.676 3.567-.676 5.206-.098 1.832 1.06 3.375.29 5.4 0 3.857-.578 7.52-1.446 11.477-1.64 3.087-.096 6.173-.096 9.45-.096.29.097.58.192.482.48 0 .29-.385.58-.676.677-4.82.29-9.45.482-13.693 1.832-3.182-.097-5.785.868-8.773.58-7.137-.677-14.66 0-21.41.866-2.988-.674-5.303.58-8.196.387-7.522-.578-15.333-.578-21.987-2.797-.964-.29-.482-1.06-.964-1.735.097-.29.58 0 .772-.097 2.313.482 4.338 1.543 6.652 1.447l.193.192c3.953-.192 7.618 1.06 11.09.867 2.604 1.447 5.496-.385 8.293.097 3.568.58 6.558-.674 10.03-1.155.48-.387 1.156-.772 1.83-1.543-1.156-3.087-4.724-5.016-5.11-7.522.482 0-.674-.77-.192-2.314-2.988-.868-5.398.29-7.617-.77-1.832-.483-3.664.48-5.594-.58-2.604 1.255-4.92.097-7.425.29-1.447-1.254-2.026 1.254-3.762.097-1.64.482-3.857.77-5.207 0 .096-.386.096-.676 0-1.06 1.447-.87 3.47.288 4.918-.87 2.12-.192 3.664.965 5.786.58 6.17-1.158 13.02.192 19.286-.193 4.34-.193 9.064.482 13.21-.965 6.56-1.06 13.406-1.93 19.576-3.182 1.543-.965 3.375-2.025 5.305-1.93.29.29.58.484.677.87zM980.432 652.606c.192 1.64.867 2.796 1.156 4.532-.578 2.604-.096 4.918.87 8.1 1.35-.675 2.312-.48 2.795-.29 1.833-.19 4.146.29 5.98.194 1.733-.386 3.856-.58 5.59-.58 2.702-1.35 6.077-1.734 8.776-2.312 1.543.385 3.374 0 4.82.192 6.558 0 13.31-1.64 19.48-2.507 1.157.096 2.894-.193 3.954.096.193-.095.676-.095.77-.19 4.823-.194 8.68-.29 13.5-.29 2.22 0 4.147.386 6.173.48h-.096c-2.507 1.833-5.98 1.158-8.68 1.737-3.952-.965-8.1 1.06-12.343-.58-2.506 2.605-5.496.58-8.1 1.447-2.41-.29-5.304-.192-7.33 1.062-.964-.097-1.832.29-3.182-.193-2.314 1.35-5.207.676-7.618.676-3.954-.87-7.136 1.734-10.896 1.252-2.7 1.35-5.785 1.157-8.87 1.157-.966-1.062-2.51-.098-4.437-2.22-.676 4.244-.29 6.75-.482 9.355.483 2.025-.288 4.244 0 6.462-.097.097-.097.192-.192.29-.77-.098-.964-.966-1.254-1.544.58-1.93.482-3.857 0-5.786-.385-.482 0-1.35.097-2.314-1.06-1.446-.19-3.568-.963-4.918.482-1.543-.193-3.182-.097-4.726-.868-1.544.29-3.568-.58-5.11 0-1.352-1.83-2.7-.288-3.762.098-.097.29-.193.482-.29.39.096.87.192.968.578zM1062.69 615.768c.288.097.48.193.673.386-.867 2.22-3.47.965-5.496 1.543-1.736.29-3.375 0-5.11.097-4.726.097-9.45-.097-13.983 0-2.412 0-5.594.193-8.1-.097-1.64-.192-3.664 0-5.305.097-3.954.386-7.715 0-11.862.29-.193-.193-.387-.193-.578-.193-1.736.868-3.666.098-5.305.387-3.953.192-7.714.578-11.57.578-2.7-1.157-5.498.58-8.294-.097-.385-.096.58-1.156.868-1.156 4.243-2.894 9.16 1.156 13.886-.193 5.594-1.544 11.862-.966 17.358-1.255 5.497-.29 10.704.193 16.297 0 1.542-.192 3.085-.192 4.724-.192.387 0 .87.097 1.254.097 4.244-.097 8.486-.097 12.248-.676 2.893.77 5.303.288 8.293.384zM1058.832 582.596c.19.48 1.734.48 1.156 1.254-2.7 1.832-6.363-.193-9.258 1.35-9.74 2.99-20.057.77-29.99 2.12-5.786.772-11.186.772-16.876 1.93l-3.278-.096-.097.386 3.278 1.446c3.76.77 8.582.867 12.15 1.735 3.375.87 6.27.966 9.545 1.93 3.568.676 7.04.29 11.09.386.29.193.77.097.965.386-5.11 2.122-11.38.675-16.683 2.218-1.446 1.254-3.857.868-5.593 1.64-6.17 0-12.054 2.122-17.84 2.41-.675.58-1.832.676-2.796 1.062 0 .386-2.604.964-2.508 1.157.097.288 3.086.19 3.183.674 9.547 1.446 18.227 0 27.002 1.06 5.4-2.023 10.994 1.158 16.2-.577 6.173-2.025 13.116.29 18.612-1.832 1.64 0 3.375-.868 4.822 0 1.734.097 4.63-1.64 5.98.192 0 .193.19.097.288.193-1.35.867-3.473.192-4.725.385-7.33 1.833-15.046 2.314-22.663 3.473-3.086 0-6.172.48-9.064-.386-3.762.097-7.62.386-11.573-.29-9.16-.29-17.55 1.543-26.134-.964-3.182-.965-6.267 0-9.064-.675 0-.58-2.12.48-1.64-.386.58-.29.965-1.254 2.026-1.446 4.34-2.41 10.03-1.735 14.85-3.472 5.883-1.06 12.537-1.735 18.612-3.182l3.183-.77v-.387l-3.183-.58c-3.954-.675-7.715-1.253-11.668-1.735-4.82-2.218-10.512-2.025-15.333-4.146-.29-.29-.772-.483-1.16-.677.773-1.156 3.087-.096 4.245-.19 4.05-2.123 8.582-.483 13.02-1.642 10.125-1.06 17.646-.48 27.578-1.35 2.314-.674 5.883-.674 8.486-1.06 4.628-.676 9.546 1.157 13.02-1.735.674-.484 1.254-.29 1.832.19zM1046.584 535.44c-.19-.096.87-.288 1.254-.192h.77c.58.193 1.353.482 1.93.387 1.35.578 2.7.29 3.858.867 2.312 1.062 5.398 2.025 7.906 4.146 1.543 1.64 3.568 2.314 5.11 3.76.29.87.675 1.255.483 2.026-1.543.097-2.314-2.122-3.762-2.7-1.06-.965-2.604-1.254-3.47-2.507-.194-.097-.58-.482-.772-.58-.192-.096-.288-.288-.288-.288-.098 0-.482-.194-.482-.29-.867-.87-1.156-.965-1.156-.578-.676-.193-1.158-.676-1.834-.58-.29-.096-.578-.29-.77-.578-1.157.193-1.446-.386-2.026-.48-1.06-.58-2.7 0-3.855-.388-.58.098-1.063-.48-1.737-.385-2.314-.675-3.28-.096-5.787.097-3.182 1.157-3.277.868-5.303 1.64-1.543.578-2.41.77-3.857 1.446-1.447.676-2.025 1.447-3.473 2.122-1.35.578-2.217.385-3.47.867-1.448.578-2.316 1.254-3.665 1.833-1.352.674-2.412.964-3.955 1.64-1.446.867-2.218 1.735-3.953 2.218-.482 0-1.158.096-1.64.096-.482-.097-1.06.095-1.35.095-.29.098-.77-.096-1.062-.19-1.735.577-2.7-.58-4.53-.388-1.737-.48-3.474-.675-5.498-1.35-1.93-1.06-4.436-1.543-6.558-2.99-2.218-1.157-4.436-2.893-6.075-5.015-.192-.29-.964-1.06-.29-.964 1.736.772 3.28 2.508 5.11 3.183 4.92 3.087 10.03 4.92 15.142 5.4.577.29 1.252 0 1.927.29.965 0 2.314.29 3.375.096 3.472.387 2.7-1.156 4.146-1.735 1.544-.577 2.508-.48 3.857-1.156.965-.578 1.447-1.254 2.604-1.735.963-.58 1.638-1.062 2.892-1.255 2.893-.29 2.988-.867 4.436-2.122.676-.385 1.06-.867 1.832-1.156.676-.58 1.254-.29 2.123-.58 1.156-.288 1.734-.674 2.893-1.06 1.06-.386 2.217-.868 2.795-.868 2.026-.868 3.185-.29 5.112-.483.582-.003 1.16.384 1.062.384zM1022.38 520.59c1.83 1.445 3.954 2.796 5.592 4.918 7.232-.58 13.887.867 20.25.675 2.797-.097 4.727-1.832 7.33-1.64.096.77.674 1.543 1.64 1.832.192.193.192-.578-.097-.482-.096.098-.676.193-.77.193-3.474 2.314-8.68.675-12.923 1.254-1.543.386-3.762 1.06-5.014 0-5.787-1.06-12.73.48-18.42-.77-4.145-.194-8.58.963-12.535.096-5.98-.482-11.958.192-18.033-.675-2.024.772-3.665 0-5.786-.097-.578-.385-1.736 0-2.025-.674.386-.483.192-1.256.77-1.64 2.22-1.834 5.208-2.316 7.426-3.666 2.218-.385 4.146-.867 6.075-1.928.194-.29.387-.58.58-.676 2.508-.193 5.014-1.928 7.714-.868 6.173.676 12.923.965 18.226 4.148zm-24.88-2.025c-2.025 1.446-4.63 2.025-6.75 2.604-.77 1.253-3.086.866-4.244 2.024 1.158 1.832 2.797.964 3.955 1.157 5.883 1.158 11.958.29 18.033.676 2.41.965 4.532-.097 6.943.097 2.7.192 5.4-1.06 7.907.192l.867-1.06c-1.156-1.737-2.795-2.99-4.917-3.57-1.833 0-3.568-.963-5.4-1.734-3.278-.867-6.558-.674-10.03-.867-2.12-.096-3.856 1.157-6.363.482zM1062.69 504.293c.288.097.48.193.673.387-.867 2.217-3.47.964-5.496 1.542-1.736.29-3.375 0-5.11.097-4.726.096-9.45-.098-13.983 0-2.412 0-5.594.19-8.1-.098-1.64-.192-3.664 0-5.305.097-3.954.385-7.715 0-11.862.288-.193-.192-.387-.192-.578-.192-1.736.868-3.666.096-5.305.386-3.953.192-7.714.578-11.57.578-2.7-1.157-5.498.578-8.294-.096-.385-.098.58-1.157.868-1.157 4.243-2.894 9.16 1.157 13.886-.193 5.594-1.543 11.862-.964 17.358-1.253 5.497-.29 10.704.193 16.297 0 1.542-.192 3.085-.192 4.724-.192.387 0 .87.096 1.254.096 4.244-.096 8.486-.096 12.248-.675 2.893.77 5.303.288 8.293.383zM997.018 487.9c1.447.194 2.41 1.64 4.05 1.64 3.086 1.544 5.98 2.315 9.74 2.508.58.29 1.543.386 2.218.58 2.122.19 4.05 1.156 6.075 1.156 1.255.386 2.99-.29 4.147 1.254 1.544-.387 2.7-.77 3.665-1.254.387-.77 1.447-1.736 1.35-2.797.676-1.06.098-1.928.578-3.28.58-1.83.58-2.892 1.545-4.82.482-.386.963-.77 1.54-.675.388.965 0 2.12 0 3.28-1.25 2.506-1.058 3.856-1.927 7.135.77.48.482.868.77 1.06 2.41.387 5.015.098 7.04-.385 1.254.193 2.314-.29 4.244-.29.385-1.156 1.254-.288 1.832-.578 3.47-.29 6.557-2.218 10.125-2.41 1.542-1.35 4.145-1.157 5.688-2.315 1.832.192 2.797-2.218 5.11-1.64 1.16-.867 2.218-1.93 3.665-1.93.387.29.77.58 1.158.965-.192 1.447-1.833 1.544-2.894 2.314-1.64.192-3.182.578-4.338 1.64-2.123-.098-3.377 1.735-5.4 1.64-.773.48-1.543.577-2.123.964-.77-.098-1.445.192-2.025.48-4.436 0-7.906 2.895-12.344 2.605-.578.384-1.637.384-2.217.48-4.726 1.64-10.224 1.35-15.044 1.254-2.218-.58-4.917 0-6.847-.964-5.98-1.062-11.766-3.473-17.454-5.016-2.7-1.06-5.21-2.7-7.715-4.05-2.797-1.543-6.075-2.604-8.1-5.4 0-.192 0-.482.192-.578 4.343 2.796 8.875 5.304 13.696 7.425zM1064.81 457.526c1.255.482 2.122-.193 3.087 0-.29.675-.77 1.254-.77 2.024-.388 1.062-1.737 1.254-2.51 2.025-.77.192-.866 1.253-1.735 1.832-2.023 1.254-3.857 2.604-5.88 4.05-3.956.965-7.522 3.665-12.153 4.147-3.567 1.64-8.196 1.543-12.15 1.64-2.41 1.928-6.27.192-9.162 1.253-1.446.192-2.313-.386-3.472-.386-3.953 1.062-7.52-.48-11.186-1.06-2.604-1.157-5.4-1.446-7.908-2.797-.77-.578-1.928-.385-2.7-.675-3.085-2.024-6.653-3.278-9.45-5.497-1.35-.288-1.734-1.927-3.086-2.217-.48-.675-1.446-1.253-.867-2.7-.87-.674-1.64-2.025 0-1.735.385-.29.577-.097.095.29 3.183 3.856 8.39 7.425 13.502 10.125 1.928 0 3.857 1.06 5.014 2.025 3.955 1.06 7.62 2.506 11.67 2.506 1.446 0 2.894.29 4.146-.096 2.507.29 4.82.965 7.426.29 2.506-.194 5.014-.483 7.424-.965 7.715-1.544 16.105-1.93 22.47-6.172 2.313-1.542 3.952-2.893 5.978-5.207-.29-.48 1.254-.385.965-1.06-5.98.29-13.405.48-18.806.867-2.41 1.06-5.207-.192-7.81.192-2.315.29-4.728-.29-7.138-.192-1.156 0-2.217-.192-3.277.192-1.737-.29-3.956.193-5.403-.77-.674-.58.87-.483 1.062-.87 1.54-.577 3.084-.77 4.82-.095 1.35.19 2.7-.676 3.954-.676 3.568 0 6.654.966 9.064.677 0-.29 1.156 0 2.12 0 .677-.193 1.35-.193 1.737-.098 2.12 0 3.47-.386 5.4-.097 3.47-.868 7.81 0 10.607-.77.867-.194.77-.098 1.64-.194 1.447.003 2.12-.48 3.28.196zM1063.17 438.432c-.963 2.12-3.277 2.314-4.916 3.473-2.22 1.156-4.63 2.313-7.137 2.604-.676.384-1.64.48-2.412.577-6.46 1.157-12.73 3.762-19.48 3.953-4.627.965-9.74.482-14.752.387-4.146 0-9.45-1.158-13.598-2.99-2.025-.48-4.243-1.254-5.69-2.508-2.12-.58-3.76-2.122-5.593-3.278-.385-.676-.867-1.35-.867-2.025 0-.097-.097-.193-.097-.193 1.93.482 3.76 1.93 5.69 3.086 1.542.868 2.41 2.025 4.05 2.41 2.796.58 5.015 2.508 7.907 2.315 5.304 1.35 11.09 1.253 17.454.868-.965-2.22.674-3.086-.098-4.436.097-.58.193-.965.386-1.352.29-.29.482-.578.868-.29l.482.483c-.193.58.193.965.482 1.254-.29 1.254 0 2.508-.193 4.05 4.727.482 7.908-.867 11.766-1.06 1.64-.772 4.146-.965 6.172-1.544 1.832-.578 4.05-.578 5.785-1.64 1.447.193 3.086-.29 4.244-1.735 2.506.097 4.436-1.736 7.328-2.314v-.482c.482-.193 1.447-1.254 2.604-.87-.095.483-.193.87-.386 1.254zM1057.77 415.58c-.288 2.024.097 3.76.772 5.4-.098.48-.482.964-.77 1.06-1.255 1.832 1.155 5.11-2.026 6.076-1.06.29-2.22-.193-3.086.578-3.375 1.254-4.438.29-7.715.578-2.893.193-6.365-1.254-9.162 0-1.54 0-2.797-.578-4.146-.77-3.664 1.35-7.81-.675-11.667.29-2.797.19-5.015-.965-7.812.288-.578.097-1.06.097-1.542.29-5.69 0-11.572-.58-17.166.096-2.797 0-5.496-.097-8.004-1.447-.482-.386.097-.965.578-1.157.676 0 1.64-.193 2.7.675 2.026-.868 3.857.097 5.595-.29 1.445.387 3.084.482 4.628.098 3.277-1.93 6.75.29 10.125.192 3.278-.097 6.557-1.35 9.933-.964 3.472.48 7.522.77 11.088.385 1.158-.386 2.508.192 3.568-.193 1.062.192 2.508.097 3.473.77 1.35-.19 2.988-.48 4.338-.867.773.386 1.93.29 2.604.482 3.666.29 4.438.77 7.812-.386 2.218.77 1.35-1.543 3.276-2.025 1.254-.48.58-1.06.58-1.734-.29-1.543 1.254-2.7.578-4.05-.482-1.255-.098-2.894-1.06-4.243-.1-.387-.1-.868.384-.868 1.254-.292 1.448.962 2.123 1.734zM997.018 372.377c1.447.193 2.41 1.64 4.05 1.64 3.086 1.542 5.98 2.314 9.74 2.507.58.29 1.543.386 2.218.58 2.122.19 4.05 1.156 6.075 1.156 1.255.385 2.99-.29 4.147 1.254 1.544-.387 2.7-.77 3.665-1.254.387-.772 1.447-1.736 1.35-2.797.676-1.06.098-1.93.578-3.28.58-1.83.58-2.892 1.545-4.82.482-.386.963-.77 1.54-.675.388.965 0 2.122 0 3.278-1.25 2.508-1.058 3.857-1.927 7.137.77.48.482.867.77 1.06 2.41.387 5.015.098 7.04-.385 1.254.192 2.314-.29 4.244-.29.385-1.156 1.254-.29 1.832-.578 3.47-.29 6.557-2.218 10.125-2.41 1.542-1.35 4.145-1.158 5.688-2.315 1.832.193 2.797-2.218 5.11-1.64 1.16-.867 2.218-1.928 3.665-1.928.387.29.77.578 1.158.964-.192 1.448-1.833 1.544-2.894 2.315-1.64.193-3.182.58-4.338 1.64-2.123-.097-3.377 1.735-5.4 1.64-.773.482-1.543.578-2.123.964-.77-.098-1.445.192-2.025.48-4.436 0-7.906 2.895-12.344 2.605-.578.385-1.637.385-2.217.48-4.726 1.64-10.224 1.35-15.044 1.254-2.218-.58-4.917 0-6.847-.965-5.98-1.062-11.766-3.472-17.454-5.015-2.7-1.06-5.21-2.7-7.715-4.05-2.797-1.543-6.075-2.604-8.1-5.4 0-.193 0-.482.192-.578 4.343 2.797 8.875 5.303 13.696 7.425zM1068.186 354.827c-.29.098-1.06.676-1.736.868-1.832.097-4.436.29-6.268.58-1.06-.387-3.086.385-4.146.095-5.11.482-10.223.77-16.008.676-1.06.674-2.99.192-4.146.192-5.4-.192-10.318-1.543-15.044-.868-3.375 0-7.232 1.254-10.8 0-2.507.386-6.172-.096-8.196.097-.098.097-.29.193-.387.29-5.015-.482-10.607.578-15.43.192-.385-.098-.867-.772-.19-.87 9.932-1.253 21.214-.77 31.726-1.253 2.314-.096 5.786.098 8.293-.385l.29.29c3.76 0 7.23.48 10.8.77.29-.193.965-.097 1.158 0 5.786.192 12.536-.867 18.032-.676 3.184-1.543 6.56.676 9.45-1.156.388-.58 1.255-.29 1.735-.772 1.158.772 1.062 1.544.87 1.93zM999.718 326.668c1.06 0 2.604-.096 3.76-.19 2.798-1.738 7.138 0 10.417.384 2.023-1.157 5.4-.482 7.52-.676 3.086-.77 7.135.193 10.704.193 6.27 0 13.5-.194 19.77-.483.962-.096 1.927-.675 2.796-.29.096.098.19-.095.29-.095-2.22 1.446-4.92 1.543-7.138 2.507-3.182 2.795-6.848 4.242-10.22 6.363-4.052 1.833-8.198 3.182-11.862 5.98-1.158.578-2.22 1.253-3.375 1.83l-2.796 1.353 3.183.19c7.52.483 14.56-1.35 22.275-.287 3.086 0 5.98-1.256 8.97-.678.77-.096 1.735 0 2.41 0-.097.194 0 .58-.097.677-.77 0-1.447.19-2.12.674-.772.386-1.737.386-2.605.578-2.604.29-5.207-.097-7.812.48-7.04.195-13.885-.673-20.732.098-3.183-.578-6.365 1.062-9.45.193-2.025.482-4.63-.578-6.172.578-4.63-.48-9.16-1.252-13.983-1.252-1.06-.386-2.698 0-3.18-1.157-.1-.095.577-1.06.577-.577 5.208-1.352 9.644 1.735 15.623 1.06 3.086-.386 6.268 0 9.546-.964.964-1.352 2.41-1.255 3.472-2.122 1.93-.29 3.857-.77 5.11-2.123 4.918-2.41 9.934-3.277 13.887-6.846 1.156-.483 2.314-1.062 3.568-2.122 0-.29 2.795-1.543 2.795-1.832-.096-.192-2.988.48-2.988.096-3.76 0-7.232-.674-10.223.386-5.398-1.35-10.993-1.446-16.78-.192-4.145-.48-8.388-1.06-12.438-.29-3.376-1.446-7.137 1.544-10.223-1.156-.29-.868-1.833-.58-1.735-1.64 3.277-.58 6.074 1.253 9.256 1.348zM1063.17 306.514c-.963 2.122-3.277 2.314-4.916 3.472-2.22 1.157-4.63 2.314-7.137 2.604-.676.385-1.64.482-2.412.578-6.46 1.156-12.73 3.762-19.48 3.953-4.627.966-9.74.483-14.752.388-4.146 0-9.45-1.157-13.598-2.99-2.025-.48-4.243-1.253-5.69-2.507-2.12-.578-3.76-2.12-5.593-3.277-.385-.676-.867-1.35-.867-2.025 0-.098-.097-.193-.097-.193 1.93.482 3.76 1.93 5.69 3.086 1.542.868 2.41 2.026 4.05 2.412 2.796.58 5.015 2.508 7.907 2.313 5.304 1.352 11.09 1.254 17.454.87-.965-2.22.674-3.087-.098-4.437.097-.58.193-.965.386-1.35.29-.29.482-.58.868-.29l.482.48c-.193.58.193.966.482 1.255-.29 1.254 0 2.507-.193 4.05 4.727.483 7.908-.867 11.766-1.06 1.64-.772 4.146-.965 6.172-1.544 1.832-.58 4.05-.58 5.785-1.64 1.447.192 3.086-.29 4.244-1.736 2.506.097 4.436-1.735 7.328-2.315v-.482c.482-.192 1.447-1.253 2.604-.867-.095.483-.193.868-.386 1.254zM1009.362 242.415c3.857.097 7.52.676 11.38 1.06 3.856.388 8.002.194 11.764.388.385 0 .674.482 1.06.482 2.7.192 5.306.482 7.907.29 7.33.674 14.273.577 21.408 1.54.677.483 0 .87.29 1.545-1.06.482-1.348.578-2.604.675-4.436-.868-7.81 2.893-12.15 2.218-3.277.965-6.846.77-10.22 1.736-3.183 2.698-8.294.577-14.852 2.603 4.822 2.025 7.04 1.93 9.064 2.314 3.473.77 6.56.77 10.03 1.35 3.183.482 6.75 1.543 9.74 1.543 1.35.29 2.603.58 4.145.675.29.386.965.29 1.447.386 1.734-.288 3.76-.385 5.496-.48.193.096.29.192.385.288-.962 1.35-3.18.58-4.435 1.254-5.014 2.025-10.896 2.604-16.875 3.086-5.11.386-10.223.77-14.947 1.543-4.34.483-8.775 2.026-13.21 2.026-.58.386-1.736.29-2.315.386-8.004 1.93-16.876 1.544-25.458 1.93-1.157-.386-5.4 1.64-4.146-.772.676-.096 1.157-.675 1.832-.965 9.258-1.06 18.61.58 27.966-1.542 4.436.288 8.293-1.544 12.343-2.22.87-.095 1.736.194 2.605 0 6.557-1.06 14.367-1.928 21.117-3.084l4.05-.677c-3.472-.867-10.317-1.735-13.017-2.7-6.463 0-11.86-2.218-18.226-2.893-2.99-.29-5.594-.868-7.812-1.062-.096-.192-1.06.386-1.253 0 1.156-1.06 2.796-.192 3.856-1.253 1.64-.29 3.375-.482 5.208-.772 2.7-.48 5.496-1.06 8.195-1.35 1.737-.192 3.567 0 5.112-.192 2.12-.29 2.893-.867 4.918-1.156 1.54-.193 2.217-.097 3.76-.29.482-.096.676-.385 1.156-.385 3.088-.483 6.56-.387 9.45-1.544l3.763-1.446c-3.858-.58-12.056-.29-15.72-.676-7.426-.867-15.912-.675-23.337-1.06-.482-.29-1.254-.194-1.93-.966-7.617-.385-13.885-2.7-21.503-1.93-2.314-.77-4.532.388-6.75-.19-1.35-.387-2.7 0-3.954-.772-.192-.193-.675-.29-.867-.482 5.013-2.218 10.895-.192 16.103 0 3.568.095 6.847.77 10.03 1.54zM1059.12 209.048c.772.386 1.544 0 2.41.193.677 0 1.16.193 1.737.58.096.482-.482.867-.77 1.35-.675.868-1.448-.482-1.64-.482-.193-.385-1.158.482-2.123-.964-1.928.58-3.664.58-5.014.192-2.7.29-5.69-.482-8.293.578-1.062.098-1.64 1.35-2.12 1.93-.1 0-.483 1.157-1.353 1.543-1.254 1.157-3.084 2.99-3.664 3.472-.482.48 0-.58-.867.385-.482.385-.29.578-.965 1.64-.867 1.06-2.604 2.892-2.99 3.374-.578 1.156-1.156 2.507-1.832 4.05 2.025 1.35 4.05.964 5.4 1.832 1.736.096 3.857.482 5.69.965 1.06-.87 1.83.192 2.603.192 1.06.578 2.7.48 3.954 1.06 2.41.386 4.53 1.833 7.232 1.35.965.193 2.12.58 3.086.868-.098.193-.193.387-.387.387-1.64.29-3.086-.58-4.53-.482-.388-.29-.677-.387-1.062-.29-.773-.097-1.545-.29-2.22-.29-1.542-.48-2.603.387-5.11-1.253 0 1.446.193.58.193.58-1.447-.387-3.47-.965-5.4-.87-1.158-.77-2.604-.48-3.762-.77-2.7-.29-4.53-1.352-7.135-1.158 0 0-.1-.096-.194-.096-.77-.482-1.64-.193-2.12-.676-5.883-1.64-11.863-3.28-17.745-4.918-1.35-.675-2.507-.965-3.952-1.543-1.93-.677-3.762-1.833-5.787-2.605s-3.953-2.025-6.267-2.7c-.58-.29-1.544.192-1.544-.77 0-.29-.29-.965-.097-1.062.675-1.06 2.604-1.06 3.568-1.543 2.314-.193 5.594-.676 8.39-1.254 1.062-1.253 2.7-.29 3.954-.77 4.725.192 9.645-2.22 15.044-1.544 6.846-1.06 14.465-1.64 20.924-1.06 4.923.384 9.84-.098 14.76.576zm-29.218 1.64c-1.254-.482-3.182.675-5.11.29-2.315-.386-4.823.385-7.138.77-2.218-.386-3.953.965-6.172.772-1.445.193-3.857.193-5.785.58-3.184.578-6.076 1.445-9.74 1.734 1.446 1.64 4.05 2.797 4.436 2.893 2.025.676 3.665 1.833 5.496 2.41 2.796.965 5.207 1.93 7.81 2.7 1.833.483 4.243 1.062 5.883 1.352 1.833-.098 4.436 1.542 6.944 1.928 1.445.193.77.868 2.795.29.77-1.833 1.93-3.087 2.604-4.726.87-1.158 1.352-1.254 2.605-2.604.868-.868 1.735-2.218 2.7-3.472.87-.964 2.025-2.024 2.604-2.7 0-.192 1.156-1.446 1.156-2.218-1.35-.29-2.89-.29-3.76-.385-2.603-.386-4.628 0-7.328.385zM1058.254 176.84c-1.158.867-2.7 1.446-3.857 2.41-4.727 1.35-9.838 2.604-14.947 2.604-3.666.578-7.426 1.35-10.994 2.22-1.928-.194-4.146-.58-6.365-.098-.288.77-.288 1.062-1.445 1.35 1.062 2.797 3.278 4.726 4.34 6.75.58.29 1.157 1.062.963 1.736-.385 1.157.193 1.157.87 1.833.866 0 1.638.096 2.41.48 2.024-.674 3.567-.674 5.206-.096 1.832 1.06 3.375.29 5.4 0 3.857-.58 7.52-1.448 11.477-1.64 3.087-.097 6.173-.097 9.45-.097.29.097.58.192.482.482 0 .288-.385.58-.676.675-4.82.29-9.45.482-13.693 1.832-3.182-.096-5.785.868-8.773.578-7.137-.674-14.66 0-21.41.87-2.988-.677-5.303.577-8.196.384-7.522-.578-15.333-.578-21.987-2.796-.964-.29-.482-1.062-.964-1.737.097-.287.58 0 .772-.095 2.313.482 4.338 1.543 6.652 1.447l.193.192c3.953-.192 7.618 1.062 11.09.868 2.604 1.445 5.496-.386 8.293.096 3.568.58 6.558-.675 10.03-1.156.48-.387 1.156-.77 1.83-1.543-1.156-3.087-4.724-5.016-5.11-7.522.482 0-.674-.77-.192-2.314-2.988-.87-5.398.29-7.617-.77-1.832-.483-3.664.48-5.594-.58-2.604 1.254-4.92.097-7.425.29-1.447-1.254-2.026 1.253-3.762.096-1.64.482-3.857.77-5.207 0 .096-.386.096-.676 0-1.06 1.447-.868 3.47.288 4.918-.868 2.12-.194 3.664.964 5.786.578 6.17-1.157 13.02.19 19.286-.193 4.34-.193 9.064.482 13.21-.964 6.56-1.062 13.406-1.93 19.576-3.183 1.543-.964 3.375-2.025 5.305-1.93.29.29.58.485.677.87zM1053.432 156.01c-3.47 2.508-7.908 2.122-11.09 4.822-1.254.386-2.604 1.06-3.664 1.735-2.99-.097-6.076 1.833-10.127 3.665 2.606 1.06 4.534.77 5.884.385 5.69 0 10.705-.964 16.684-.097 1.64 0 3.664-.48 5.11.193 2.796.097 6.075-.675 8.485.676.098.094.098.094.193.19-2.025.58-4.63.386-6.652.29-1.736-.48-3.568.193-5.498.193-3.76.096-7.715-1.254-11.09.385-3.086.387-5.98-1.06-8.97 0-2.698.87-5.397-.482-7.905.772-4.63-.772-10.606.097-15.622-.772-5.69 0-11.475.387-17.068-.578-3.086-.096-4.34-.675-7.232-1.254-.097 0 .482-.674.482-.867 3.085-1.833 4.146-2.412 7.425-3.665 4.532-1.832 9.354-1.447 13.887-2.7 6.364.096 12.633.964 17.26 7.04 8.487-5.112 17.55-5.69 25.75-10.127 3.663-1.156 7.038-2.99 10.704-4.146.578 0 1.543-.386 2.217-.192-2.99 1.736-6.075 3.086-9.16 4.05zm-54.292 6.365c-1.255.385-2.797-.097-3.954.675-1.543-.193-2.99.675-4.242 1.157l-2.315 1.64c.867.097 4.242.386 5.207.578 1.254 1.254 3.47.675 5.014 1.06 7.138-.964 15.142.194 23.724-.19-1.254-1.544-2.508-1.93-3.183-2.605-1.348-1.35-5.11-2.797-7.617-3.857-4.34.578-8.97-.387-12.633 1.542zM1065.39 119.655c.097.29.097.676 0 .965-.58.29-.966.387-1.737.578-.482.098-.963.098-1.445.098-1.736.385-2.797.578-4.63 1.156-.386.192-.577.386-.964.58-.482 0-.676-.098-1.156-.098-2.025-.097-4.727.675-5.207.482-4.82.867-4.145 1.253-9.644 1.543-3.953.19-6.846.577-10.512.963 0 1.93-1.254 3.762-1.543 5.497-.095.964-.19 1.446-.384 2.41-.387 1.254-1.156 1.832-.965 3.183 0 2.7.194.868-1.35 3.568-.192.29-.288.676-1.35 2.122 2.316-.192 3.087-.386 4.148-.578 1.445.964 4.05.096 6.365.192 6.074.29 11.86-.578 17.355-.29 5.113.193 10.127-.77 14.658-.288.098.29.098.675.098 1.06-.387 2.315-3.086.58-4.146 1.062-4.822.386-9.258.386-14.658.386-6.557.192-13.115-.386-19.77.097-4.532.386-8.486-.29-12.632.482-7.04-1.158-14.176 2.314-21.118.675-1.736-.097-3.472.578-5.208.097-.867-.482-3.953-.193-2.313-1.543 5.398-.58 10.992.096 16.49-.097 8.1-.386 3.18-.772 5.303-.964 2.796-.29 4.436-.193 7.328-.193 2.605 0 4.052.29 6.848 0 .58-1.35.964-2.12 1.544-3.28 1.253-2.41.384.966.964-3.565.19-1.447.29-1.834.29-3.28 0-1.253.577-1.832.866-3.085.29-.868.193-1.832.387-3.473-1.255 0-1.642.097-2.22.097-2.025-.58-4.822 1.446-6.654-.29-2.314-.19-3.568-.385-5.496.387-1.35-.096-2.797-.288-4.533-.48-.386-.194-.964.288-1.35.288-1.543.868-2.508-1.64-3.953-.482-.676 0-1.352.676-2.025-.288-3.185.867-5.69.578-8.392-1.157-.867.386-1.253-.192-1.64-.675-.095-.096-.192-.29-.095-.48.29-.773.77.385.964.288 0 0 .578.48 1.156-.097.58-.482 1.062.77 1.64.482 3.664.867 7.62.867 11.38.385 3.663.87 9.064 0 12.536.87.866-.098 1.638-.772 2.987 0 1.158-1.255 2.604-.29 3.472-.87 4.435-.096 8.968-.48 13.403-.578 4.34 0 2.893-.675 6.172-1.157.674.193 1.736-.29 2.217.097 1.254-.193 2.412-.193 3.666-.386 2.604-.387 6.17-.58 8.484-1.158.387.193.87-.096 1.543-.867-.385-.868.676-.387.676-.58 1.063-.388 2.51.577 4.15.19zM997.018 104.227c1.447.193 2.41 1.64 4.05 1.64 3.086 1.543 5.98 2.314 9.74 2.507.58.29 1.543.386 2.218.58 2.122.19 4.05 1.156 6.075 1.156 1.255.386 2.99-.29 4.147 1.254 1.544-.387 2.7-.77 3.665-1.254.387-.77 1.447-1.736 1.35-2.797.676-1.06.098-1.928.578-3.278.58-1.833.58-2.894 1.545-4.82.482-.388.963-.773 1.54-.677.388.965 0 2.122 0 3.28-1.25 2.506-1.058 3.856-1.927 7.135.77.48.482.868.77 1.06 2.41.387 5.015.098 7.04-.385 1.254.193 2.314-.29 4.244-.29.385-1.156 1.254-.288 1.832-.578 3.47-.29 6.557-2.218 10.125-2.41 1.542-1.35 4.145-1.157 5.688-2.314 1.832.192 2.797-2.218 5.11-1.64 1.16-.867 2.218-1.93 3.665-1.93.387.29.77.58 1.158.965-.192 1.448-1.833 1.545-2.894 2.315-1.64.193-3.182.58-4.338 1.64-2.123-.097-3.377 1.735-5.4 1.64-.773.482-1.543.578-2.123.964-.77-.097-1.445.192-2.025.48-4.436 0-7.906 2.895-12.344 2.605-.578.385-1.637.385-2.217.48-4.726 1.64-10.224 1.352-15.044 1.254-2.218-.58-4.917 0-6.847-.965-5.98-1.06-11.766-3.472-17.454-5.014-2.7-1.06-5.21-2.7-7.715-4.05-2.797-1.543-6.075-2.604-8.1-5.4 0-.192 0-.482.192-.578 4.343 2.797 8.875 5.304 13.696 7.425zM1062.69 85.81c.288.096.48.192.673.386-.867 2.217-3.47.964-5.496 1.542-1.736.29-3.375 0-5.11.097-4.726.096-9.45-.097-13.983 0-2.412 0-5.594.193-8.1-.097-1.64-.192-3.664 0-5.305.097-3.954.385-7.715 0-11.862.29-.193-.194-.387-.194-.578-.194-1.736.87-3.666.1-5.305.388-3.953.192-7.714.578-11.57.578-2.7-1.157-5.498.58-8.294-.096-.385-.098.58-1.158.868-1.158 4.243-2.893 9.16 1.158 13.886-.192 5.594-1.543 11.862-.964 17.358-1.253 5.497-.29 10.704.192 16.297 0 1.542-.193 3.085-.193 4.724-.193.387 0 .87.096 1.254.096 4.244-.096 8.486-.096 12.248-.674 2.893.77 5.303.287 8.293.383zM980.432 63.36c.192 1.64.867 2.795 1.156 4.53-.578 2.605-.096 4.92.87 8.1 1.35-.674 2.312-.48 2.795-.288 1.833-.192 4.146.29 5.98.193 1.733-.386 3.856-.58 5.59-.58 2.702-1.35 6.077-1.734 8.776-2.312 1.543.385 3.374 0 4.82.19 6.558 0 13.31-1.638 19.48-2.505 1.157.096 2.894-.193 3.954.096.193-.096.676-.096.77-.192 4.823-.193 8.68-.29 13.5-.29 2.22 0 4.147.387 6.173.482h-.096c-2.507 1.832-5.98 1.157-8.68 1.736-3.952-.965-8.1 1.06-12.343-.58-2.506 2.605-5.496.58-8.1 1.447-2.41-.29-5.304-.193-7.33 1.062-.964-.098-1.832.287-3.182-.194-2.314 1.35-5.207.676-7.618.676-3.954-.868-7.136 1.735-10.896 1.253-2.7 1.35-5.785 1.158-8.87 1.158-.966-1.062-2.51-.098-4.437-2.22-.676 4.244-.29 6.75-.482 9.355.483 2.025-.288 4.243 0 6.462-.097.096-.097.192-.192.288-.77-.096-.964-.964-1.254-1.542.58-1.93.482-3.857 0-5.786-.385-.482 0-1.35.097-2.314-1.06-1.447-.19-3.568-.963-4.918.482-1.543-.193-3.182-.097-4.726-.868-1.543.29-3.568-.58-5.11 0-1.352-1.83-2.7-.288-3.762.098-.096.29-.192.482-.29.39.096.87.193.968.58zM1059.7 56.222c.095.097.192 0 .192.097-1.736.385-3.473-.29-5.016.385-1.06.675-2.41 1.253-3.76.58-.098-.677-.387-1.448-.193-2.315.193-.387.482.096.77-.193 2.895-.87 5.596.096 8.006 1.445z"/></g><path d="M2048 0M2048 1536M0 1536M0 0" fill="none" stroke="#17192D" stroke-width="3"/></g></svg>