<svg xmlns="http://www.w3.org/2000/svg" width="2048" height="1536" viewBox="0 0 2048 1536"><g><g fill="#17192D"><path d="M1168.853 871.91c3.762.29 7.618 1.156 11.67 1.64 4.917.577 10.028 1.155 14.657 3.472 2.41 2.41 5.4 3.664 7.328 6.846.29 1.736 1.543 1.447.965 3.568.096.29-.193 0-.193-.387-2.22.097-1.158-.483-2.797-2.7-2.508.77-4.34-.387-6.172.385-7.714-.48-14.367 0-21.89.77-1.832.87-4.145.87-6.268.58-1.35-.48-2.797.48-4.436.192-5.016-.29-10.607-.29-15.527.387-3.665-.193-7.23 0-10.993.385-1.447-.29-3.086-.772-5.11-.192-.58 1.35-1.253 1.06-.772 2.217-.19.193-.385.482-.674.676-.288-.097-.58 0-.868-.288.387-2.797 2.22-4.34 3.955-6.46 3.375-3.087 7.715-4.534 11.38-7.522 2.41-1.545 4.917-1.736 7.52-2.797 3.277-.482 6.943-.29 10.125-.965 2.7.673 5.303.48 8.1.192zm-15.238 2.41c-3.76-.193-6.363 1.543-9.932 2.604-.193.193-1.06 1.06-1.543 1.35-2.7 1.93-5.883 2.797-8.775 6.654 3.473-.29 5.207.965 6.848.29 2.41.288 4.53-.964 6.94-1.062 3.474 1.06 7.233.193 10.802.676 3.28.385 6.848-.387 10.223-.578 5.98-2.316 12.922-.676 19.094-1.352 2.988 0 6.46-.482 11.186.098-1.832-3.857-5.11-4.533-7.328-5.787-5.69-1.543-11.38-2.508-17.262-3.086-1.157-.193-2.604.29-3.664-.385-5.306.29-11.67-1.543-16.59.578zM1200.58 860.436c.288.096.48.19.674.385-.868 2.218-3.47.966-5.496 1.544-1.736.29-3.375 0-5.11.096-4.726.098-9.45-.096-13.983 0-2.412 0-5.594.193-8.1-.096-1.64-.193-3.666 0-5.305.096-3.953.387-7.715 0-11.86.29-.194-.192-.388-.192-.58-.192-1.735.867-3.665.096-5.304.385-3.953.193-7.715.578-11.572.578-2.7-1.155-5.496.58-8.293-.095-.384-.096.58-1.156.868-1.156 4.244-2.894 9.162 1.155 13.887-.194 5.594-1.543 11.86-.965 17.357-1.254 5.498-.29 10.705.193 16.3 0 1.542-.193 3.084-.193 4.724-.193.387 0 .868.097 1.254.097 4.243-.098 8.486-.098 12.247-.676 2.893.77 5.303.288 8.292.386zM1201.06 841.438c-.963 2.12-3.276 2.314-4.916 3.47-2.218 1.16-4.63 2.315-7.137 2.606-.675.385-1.64.48-2.41.578-6.46 1.156-12.73 3.76-19.48 3.953-4.63.965-9.74.482-14.754.387-4.146 0-9.45-1.158-13.598-2.99-2.025-.482-4.244-1.254-5.69-2.508-2.122-.578-3.76-2.12-5.593-3.277-.385-.676-.867-1.35-.867-2.025 0-.098-.098-.193-.098-.193 1.93.48 3.762 1.927 5.69 3.085 1.542.867 2.41 2.025 4.05 2.41 2.797.58 5.016 2.508 7.908 2.314 5.303 1.35 11.09 1.253 17.453.868-.963-2.22.676-3.086-.096-4.436.096-.58.193-.965.385-1.352.29-.29.482-.578.87-.29l.48.483c-.192.578.194.965.483 1.254-.29 1.254 0 2.508-.193 4.05 4.726.48 7.908-.868 11.766-1.06 1.64-.772 4.146-.964 6.17-1.544 1.834-.576 4.05-.576 5.787-1.64 1.446.194 3.086-.288 4.243-1.735 2.507.098 4.436-1.734 7.33-2.314v-.482c.48-.19 1.445-1.252 2.603-.867-.095.48-.192.866-.385 1.253zM1146.963 797.082c1.64 1.156 2.506 2.12 4.34 2.506 1.35.87 2.023 1.93 3.373 2.7 2.314 1.35 2.797 1.35 4.727.868 2.023.48 4.05-.096 5.98.674.77.19 1.638-.867 2.41 0 1.35-.387 2.12-.193 2.894-.29 1.543.675 3.085-.097 4.918.192 2.506-.77 5.4-.77 8.1-.865 3.857.77 8.1.193 11.86.482.676-.29 1.737.575.772.96.77-1.54 8.1-.578 8.293-.48.193.096.578.578 1.06.867.1.193.1.29 0 .482-2.023.868-4.724-.097-6.75.386-1.35-.29-3.47 0-5.013-.29-2.7.192-5.883-.868-8.97-.097-6.075-1.062-13.98 0-20.058 0-.386-.194-.964.192-1.35.095-.772-.19-1.642.578-2.413-.19-3.47.577-7.328-.388-9.643.288-.77.29-1.543.385-2.314.48-2.217-.963-5.303.195-7.328-.48-1.06.385-2.508.77-3.762.676-1.928.286-3.664.19-5.4.673-1.06-.29-2.508.29-3.47 0-1.737.482-3.763-.193-5.595 0-.096-.29-.193-.482-.29-.77 1.544-3.278 4.052-4.724 6.366-7.425 3.954-3.182 10.608-4.918 15.815-2.025.772-.675.772.675 1.448.58zm-20.734 8.098c3.952.674 6.75.387 9.74-.387 3.76-1.06 8.87-.674 12.825-.963.77-.48 2.508 0 2.99-1.734-1.64-.29-2.316-1.254-3.28-1.736-.097 0-.288-.096-.288-.096-2.508-1.35-4.92-2.604-7.715-2.99-5.4-1.35-10.8 2.412-14.273 7.906zM1150.338 761.79c2.7.48 4.918.964 7.81.578 5.017 2.122 10.802-.868 15.526 2.603 2.604.58 5.883.676 8.293 1.93 4.05 1.35 8.293 1.93 11.766 4.725 1.447 1.928 2.507 3.664 3.568 5.69-.192 1.927-.096 4.145-1.83 5.013-3.666 1.447-7.523 2.12-11.09 3.953-7.716.194-14.853 2.99-22.085 1.737-3.47.77-6.846-.096-10.318.482-5.98-.388-11.475-2.798-17.262-3.858-1.254-1.06-6.172-1.93-2.217-3.47 2.604-.483 4.242 1.444 6.557 2.022 1.35.29 2.604 1.834 4.146 1.834 5.884 1.06 10.993 2.12 17.358 1.35 5.496 1.35 11.477 0 16.973-1.158 5.208-.385 9.935-1.832 14.756-3.182 2.313-1.06 1.446-2.99 2.507-5.498-1.254-.867-.867-2.7-1.736-3.47-1.542-1.735-4.628-2.603-6.557-3.76-3.182-.483-6.364 0-8.68-1.833-2.604-.48-5.592.192-7.617-1.833-8.68-1.445-17.455-.77-25.555-2.796-4.725-.48-8.68-.674-12.537-3.084.194-.58 1.16-.29 1.544-.482 5.98-.386 10.8 2.99 16.684 2.507zM1137.607 732.764c1.06 0 2.605-.097 3.762-.192 2.796-1.737 7.136 0 10.415.386 2.023-1.158 5.398-.482 7.52-.676 3.085-.77 7.136.193 10.704.193 6.268 0 13.5-.193 19.768-.482.964-.098 1.93-.676 2.797-.29.097.097.192-.095.29-.095-2.22 1.445-4.92 1.542-7.137 2.506-3.182 2.797-6.848 4.243-10.222 6.365-4.05 1.83-8.196 3.18-11.862 5.978-1.156.578-2.22 1.254-3.375 1.832l-2.798 1.35 3.184.193c7.52.482 14.56-1.35 22.275-.29 3.087 0 5.98-1.253 8.97-.675.77-.096 1.735 0 2.41 0-.096.193 0 .58-.096.676-.77 0-1.447.192-2.122.675-.77.385-1.735.385-2.604.578-2.603.29-5.207-.098-7.812.48-7.04.194-13.885-.674-20.732.098-3.184-.578-6.365 1.062-9.45.193-2.026.48-4.63-.58-6.173.577-4.628-.482-9.16-1.254-13.98-1.254-1.062-.385-2.7 0-3.183-1.157-.098-.097.578-1.06.578-.578 5.207-1.35 9.643 1.735 15.623 1.06 3.086-.385 6.268 0 9.545-.964.965-1.35 2.412-1.253 3.473-2.12 1.93-.29 3.857-.772 5.11-2.123 4.92-2.41 9.934-3.277 13.888-6.846 1.156-.48 2.314-1.06 3.567-2.12 0-.29 2.797-1.544 2.797-1.833-.096-.19-2.988.482-2.988.097-3.762 0-7.233-.674-10.224.386-5.4-1.35-10.994-1.445-16.78-.192-4.145-.48-8.388-1.06-12.438-.288-3.375-1.446-7.137 1.542-10.223-1.157-.29-.867-1.832-.578-1.734-1.64 3.28-.58 6.076 1.252 9.257 1.35zM1124.688 706.438c2.602.193 4.725 1.736 7.328 2.22 2.988 2.698 7.04 2.987 10.125 5.398 2.41.868 5.015 1.833 7.427 2.894.963.578 1.445.964 2.7 2.12 3.374-3.085 7.714-2.7 10.897-4.145 3.084-.868 5.978-1.93 9.064-3.086 2.988-1.158 6.17-1.737 9.45-2.508 1.253-1.062 3.085-1.062 4.628-1.64 2.122.096 2.99-3.28 4.63-1.736.097 0 1.446.676.578.965-3.568 3.28-8.968 2.22-12.634 4.823-3.374.77-6.652 1.06-9.354 2.988-1.832.29-3.568.966-5.11 1.834-2.026.482-3.954.097-5.497 1.06-1.16.098-1.93.965-3.183 1.352-.193.482-1.736 1.446-1.545 1.64.193.288 2.027-.193 2.316.192 4.436.578 7.52-.193 11.283.675 2.604-.193 5.98 0 8.583.48.29-.19 1.156 0 1.64-.19 2.893-.29 5.688-1.833 8.485-.676 1.735-.29 3.857-.965 5.593-.29.098.29.098.676 0 1.062-.77.964-2.12.674-3.182.866-4.53.29-9.16.482-13.5 1.35-2.122-.096-3.664.098-5.594-.674-4.533-1.254-9.258-1.06-13.885-.578-3.57-.193-7.62.385-11.478-.193-3.28-1.156-6.943-.577-10.896-1.156-1.06.964-2.314.386-3.184.29-.77-.483-1.928-.58-2.795-.193-2.893 1.447-4.533.483-6.56-.386 0 .387-1.638-.192-1.735-.385-.193-.87.676-1.255 1.352-1.545.578-.288 1.35 1.062 1.928.58 2.797.48 5.98.288 8.97 0 4.532.674 8.87.578 13.403.77.867.193 4.146.965 5.207-.386-1.543-.772-3.955-1.93-4.436-3.087-2.314-1.06-3.762-1.157-5.496-2.7-1.834.29-2.605-1.06-4.05-1.06-2.894-.868-5.4-3.28-8.487-4.244-1.736-.098-3.182-1.158-4.63-2.026-.097-.192-.868-.386-.868-.578-.29-.29.193-.868.193-1.06.872-.677 1.257 1.155 2.32.962zM1118.322 678.568c.19 1.64.867 2.797 1.156 4.533-.578 2.605-.096 4.92.87 8.1 1.35-.674 2.31-.48 2.794-.288 1.834-.193 4.146.29 5.98.193 1.734-.387 3.857-.58 5.592-.58 2.7-1.35 6.076-1.734 8.775-2.312 1.542.385 3.374 0 4.82.192 6.558 0 13.308-1.64 19.48-2.507 1.157.096 2.894-.193 3.954.096.193-.096.675-.096.77-.193 4.822-.19 8.68-.288 13.5-.288 2.22 0 4.147.387 6.173.482h-.097c-2.507 1.832-5.98 1.157-8.68 1.736-3.952-.965-8.1 1.06-12.343-.58-2.507 2.605-5.496.58-8.1 1.447-2.412-.29-5.305-.192-7.33 1.06-.965-.095-1.832.29-3.182-.19-2.314 1.35-5.207.674-7.62.674-3.952-.867-7.134 1.737-10.895 1.255-2.7 1.35-5.785 1.156-8.87 1.156-.966-1.06-2.51-.095-4.437-2.216-.676 4.242-.29 6.75-.482 9.354.483 2.025-.288 4.243 0 6.46-.097.1-.097.193-.192.29-.77-.097-.965-.964-1.254-1.543.578-1.928.482-3.856 0-5.785-.385-.482 0-1.35.096-2.314-1.06-1.446-.19-3.568-.963-4.918.482-1.543-.193-3.183-.098-4.726-.868-1.543.288-3.567-.58-5.11 0-1.35-1.83-2.7-.288-3.762.098-.096.29-.192.482-.29.388.097.87.194.968.578zM1124.59 632.668c-.096 1.156-.096 3.566-.482 5.11-.193.675.29 1.93-.77 2.893.288 1.93 1.64 1.158 2.218 1.93 2.893 1.832 6.172-.387 9.354 1.156 5.496-.19 13.693.772 19.48.58.097 0 .48-.098 1.06-.098.483-.77 1.062-1.35.964-2.218.676-1.06-.19-1.35.29-2.7.577-1.832 0-.77.964-2.507.482-.386.965-.772 1.543-.675.388.965 0 1.832 0 2.99-1.253 2.603-.192 1.252-.964 4.436l.58.578c2.7-.29 4.918-.482 7.328-.482l.482-.193c2.507.387 5.98.193 8.293.29 10.51.386 21.89 0 31.822 1.253.675.097.097.772-.29.868-4.82.386-10.317-.675-15.332-.192-.096-.098-.387-.193-.482-.29-2.025-.192-5.69.29-8.197-.096-3.567 1.253-7.423 0-10.8 0-4.725-.676-9.643.675-15.043.867-1.156 0-2.99.482-4.05-.192-5.786.096-12.44-.192-17.552-.675-1.06.288-3.086-.48-4.05-.097-1.83-.29-4.437-.482-6.267-.58-.773-.19-2.027-1.252-2.99-1.54-.965-.966.48-2.316.48-3.763-.867-1.06.098-1.64.098-2.7.193-.29.193-.77.29-1.06.77-1.254.288-3.28 1.64-4.34.866-.096.19 1.448.384 1.448zM1150.338 598.723c2.7.482 4.918.965 7.81.578 5.017 2.123 10.802-.866 15.526 2.605 2.604.58 5.883.676 8.293 1.93 4.05 1.35 8.293 1.928 11.766 4.725 1.447 1.93 2.507 3.664 3.568 5.69-.192 1.93-.096 4.146-1.83 5.014-3.666 1.446-7.523 2.122-11.09 3.954-7.716.193-14.853 2.99-22.085 1.736-3.47.77-6.846-.097-10.318.48-5.98-.385-11.475-2.796-17.262-3.856-1.254-1.06-6.172-1.93-2.217-3.47 2.604-.483 4.242 1.445 6.557 2.023 1.35.29 2.604 1.833 4.146 1.833 5.884 1.06 10.993 2.12 17.358 1.35 5.496 1.35 11.477 0 16.973-1.156 5.208-.387 9.935-1.833 14.756-3.183 2.313-1.062 1.446-2.99 2.507-5.497-1.254-.867-.867-2.7-1.736-3.47-1.542-1.737-4.628-2.605-6.557-3.763-3.182-.482-6.364 0-8.68-1.832-2.604-.482-5.592.193-7.617-1.832-8.68-1.447-17.455-.77-25.555-2.797-4.725-.482-8.68-.675-12.537-3.086.194-.578 1.16-.29 1.544-.482 5.98-.385 10.8 2.99 16.684 2.508zm-21.408 12.826c.29.288.482.48.482.963-.29.29-.676.482-1.158.482-1.447-.772-2.988-.097-4.436-1.062-.387-.096-1.158-.385-1.06-.867.673-.387 1.253-.675 2.41-.58 1.736-1.638 2.508.676 3.762 1.063zm.578-9.067c.29.29.482.482.482.964-.29.29-.676.482-1.156.482-1.545-.772-3.568.096-5.016-.87-.387-.095-1.158-.384-1.06-.866.673-.48 1.638-1.062 2.796-.964 1.735-1.64 2.7.868 3.954 1.253zM1191.322 576.158c-3.472 2.506-7.908 2.12-11.09 4.82-1.254.387-2.604 1.062-3.665 1.736-2.99-.097-6.075 1.832-10.126 3.664 2.605 1.062 4.534.772 5.884.386 5.69 0 10.705-.964 16.683-.096 1.64 0 3.665-.482 5.11.192 2.797.097 6.076-.675 8.486.676.098.096.098.096.193.192-2.025.58-4.63.386-6.653.29-1.735-.482-3.568.19-5.497.19-3.76.1-7.715-1.252-11.09.388-3.086.386-5.98-1.06-8.97 0-2.698.867-5.4-.482-7.905.77-4.63-.77-10.606.097-15.622-.77-5.69 0-11.475.386-17.068-.578-3.086-.098-4.34-.676-7.232-1.255-.098 0 .482-.675.482-.868 3.084-1.832 4.146-2.41 7.424-3.664 4.533-1.83 9.355-1.445 13.887-2.7 6.366.098 12.634.965 17.263 7.04 8.486-5.11 17.55-5.688 25.748-10.124 3.665-1.158 7.04-2.99 10.706-4.146.578 0 1.542-.387 2.217-.193-2.99 1.736-6.075 3.086-9.16 4.05zm-54.293 6.363c-1.255.388-2.798-.095-3.954.677-1.543-.193-2.99.675-4.242 1.156l-2.316 1.64c.87.097 4.244.386 5.21.58 1.253 1.253 3.47.674 5.013 1.06 7.138-.964 15.142.193 23.724-.192-1.254-1.543-2.508-1.928-3.184-2.603-1.348-1.35-5.11-2.796-7.617-3.857-4.34.578-8.97-.386-12.634 1.54zM1146.963 530.447c1.64 1.158 2.506 2.122 4.34 2.508 1.35.868 2.023 1.93 3.373 2.7 2.314 1.35 2.797 1.35 4.727.868 2.023.482 4.05-.097 5.98.675.77.192 1.638-.867 2.41 0 1.35-.386 2.12-.192 2.894-.29 1.543.676 3.085-.096 4.918.193 2.506-.77 5.4-.77 8.1-.866 3.857.77 8.1.192 11.86.48.676-.288 1.737.58.772.966.77-1.543 8.1-.58 8.293-.482.193.097.578.58 1.06.868.1.193.1.29 0 .482-2.023.867-4.724-.097-6.75.386-1.35-.29-3.47 0-5.013-.29-2.7.193-5.883-.867-8.97-.096-6.075-1.06-13.98 0-20.058 0-.386-.193-.964.193-1.35.096-.772-.192-1.642.58-2.413-.192-3.47.58-7.328-.386-9.643.29-.77.29-1.543.385-2.314.48-2.217-.963-5.303.193-7.328-.48-1.06.385-2.508.77-3.762.674-1.928.29-3.664.193-5.4.676-1.06-.29-2.508.29-3.47 0-1.737.48-3.763-.193-5.595 0-.096-.29-.193-.482-.29-.77 1.544-3.28 4.052-4.727 6.366-7.427 3.954-3.183 10.608-4.918 15.815-2.025.772-.676.772.675 1.448.577zm-20.734 8.102c3.952.674 6.75.385 9.74-.388 3.76-1.06 8.87-.674 12.825-.964.77-.482 2.508 0 2.99-1.735-1.64-.29-2.316-1.254-3.28-1.736-.097 0-.288-.096-.288-.096-2.508-1.35-4.92-2.603-7.715-2.99-5.4-1.35-10.8 2.412-14.273 7.91zM1173.867 494.19c7.425.868 14.562 1.35 21.602 2.507 2.023.387 3.567 1.64 5.398 2.22.386.288 1.446.288 1.93.77 1.928 1.543 1.64 3.857 1.734 6.172-1.35 2.796-2.99 6.17-6.17 7.714-4.34 1.156-8.584 3.664-13.694 3.664-2.7 1.543-6.27 1.157-9.16 1.735-5.21.964-10.705.675-15.623 1.543-3.762-.288-8.39.772-11.957.58-8.97-.483-17.553.963-25.94-.772-.194.096-.388.675-.1.482.388-.387 1.448-.482 2.124-.482 2.7-2.507 6.46 0 10.027-.77 2.798-.29 5.4.384 8.292.192 4.438-.29 8.873-.676 13.502-.58 3.762.098 7.908-.77 11.96-1.253.866.29 2.31-.096 3.18 0 9.162-1.06 18.805-2.024 26.327-6.558 2.315-1.06 4.05-2.893 5.4-5.69-1.542-.964-.097-2.024-.77-3.085-3.857-4.05-9.644-4.146-14.658-5.592-1.736-.87-4.34-.098-6.46-.194-4.34-.097-8.583-1.35-12.537-.77-5.786.866-11.187-.87-16.683.19-2.7-.77-5.69.098-8.295-.29-4.63.194-9.547-.19-13.5-.384-.482-.193.096-.676.096-.676.098-.096.193-.578.87-.675 2.41-.58 5.013.48 7.423.29.965-.58 2.8-.29 3.955-.387 7.427 1.253 14.37-1.833 21.796 0 3.277.29 6.556-.288 9.93.097zM1203.762 456.195c-7.618 3.375-14.176 7.812-20.83 12.247-.578.29-.77 1.062-2.024 1.062-3.087 3.086-6.944 3.375-9.74 6.172-2.507 1.254-5.304 2.7-8.196 4.918.385.29 1.06.578 1.35.77 2.025.965 4.05.194 5.883.29 5.786.192 11.09-.77 16.2-.868 4.92 0 9.45-1.157 13.79-.675.097.194.097.483.097.868-.29 2.22-2.797.676-3.857 1.062-4.63.578-8.68.674-13.694.867-6.17.385-12.245.097-18.417.77-4.146.387-7.908 0-11.86.87-6.56-.772-13.212 2.603-19.77 1.253-1.544 0-3.087.77-4.726.386-.676-.482-3.76.097-2.22-1.35 5.017-.772 10.224 0 15.335-.676 7.715-.29 15.91-.77 21.602-5.69.963-.287 1.734-.963 2.41-1.445 2.41-1.447 5.014-2.508 7.04-4.63 2.024-.674 3.857-1.83 5.496-2.99 2.894-2.89 6.75-3.952 9.933-6.17 0-.386.29-.29.482-.386.867-.387 1.543-1.157 2.604-1.93 0-.386 2.796-.964 2.7-1.253s-3.28-.193-3.57-.386c-4.435.965-9.932 1.35-15.043 1.832-5.496.482-9.16 1.544-14.367 1.64-1.834-.386-4.436 1.447-6.27-.096-2.023 0-3.182-.097-4.82.482-1.447 0-2.895-.193-4.63-.193-.386-.097-.77.29-1.157.29-1.64 1.06-2.506-1.447-3.76-.29-.58.193-1.158.675-1.736-.192-3.086.867-5.496.386-8.102-1.06-.867.384-1.156-.1-1.54-.388v-.29c.288-.674.866.29.866.194 0 0 .58.48 1.157-.1.387-.577 1.254.677 1.447.388 3.28.77 7.137.578 10.8.096 3.376.58 8.487-.385 11.67.29.675-.097 1.542-.675 2.698-.29 1.06-.964 2.508-.096 3.28-.675 4.05-.29 8.39-.965 12.536-.965 3.954-.387 8.293-.77 11.476-1.254.675.194 1.446-.384 2.122.098 1.64-.386 2.313-.386 3.566-.58 2.508-.48 5.69-.866 7.908-1.35.387 0 .87-.29 1.447-.963-.482-.868.578-.482.675-.482.867-.386 2.313.386 3.76-.097 0 .29.096.58 0 .87zM1132.594 435.27c3.28-.192 5.303 3.086 8.775 2.99 1.542.867 3.278.48 4.53 1.735 1.062.578 3.184.482 4.533.482 2.99.77 5.4 2.507 8.582 2.893 1.93 1.254 4.244 1.93 6.75.77 0-.674.29-.48.29-.095 1.06-.29 2.797.385 4.63-.676 2.988-.58 6.364-.58 9.064-1.64 2.313-.965 5.013-.676 7.23-1.64 1.062-.192 2.22-.29 2.99-.868 2.893-.097 5.11-.965 7.52-2.025 2.412-.48 5.11-1.928 7.522-1.06-.29.192-.386.48-.29.77-1.252 1.735-4.53.77-6.557 2.025-3.664 1.543-7.52 1.735-11.186 3.278-6.173.482-16.49 3.376-16.49 3.376l.095 1.35s3.473.386 5.787.096c2.893.77 6.363.676 9.643.387 1.833.77 4.242-.677 6.365.095 1.928 0 4.242-.964 6.172-.386 2.12.578 5.688-1.157 7.135.096 0 0 2.22.676.58.965-2.122.29-4.727.965-7.04.772-5.015-.482-10.704-.77-15.43.096-1.544-.096-3.183-.192-4.628-.674-1.834.096-3.858-.29-5.788.096-2.314-.77-4.725.29-7.04-.578-5.4-1.255-10.993 1.156-16.2-.387-3.086.387-5.98-.578-9.064.193-2.7-.386-6.076-.868-8.486-.097-3.375-.19-6.848-.867-10.223-1.06-.194-.193-.386-.578-.483-.772 0-.385-.19-.674.29-.77.868-.194 1.833.674 2.7.19 3.086.966 6.46.58 9.74.87 1.736-.772 2.988.963 4.822 0 3.663.577 8.388-.482 12.15.674 2.12-.29 5.108.097 9.063-.77-4.533-2.22-8.197-1.834-10.898-3.568-3.277-.965-6.46-2.7-9.932-3.087-5.69-1.93-10.992-3.76-16.395-6.46-.19 0-.096-.098-.096-.194.87-.29 1.64-.964 2.604-.77 1.74 1.836 4.535 2.028 6.658 3.378zM1116.2 411.452c0 2.99-.097 5.882.675 9.16 7.232.482 14.176.482 19.77-1.35 1.54-.29 3.086-.48 4.34-.964 6.074-1.736 10.607-.482 16.586-2.604 3.76-.29 7.136-1.06 10.705-1.64 5.014-.868 10.222-.29 14.85-1.35 2.99 0 6.558-.386 9.74-1.254 2.604.097 5.304-1.062 7.907-1.543.387.192.87.58 1.06.868-.384 2.893-4.627 1.254-6.46 2.12-6.557 1.255-12.922 1.93-18.996 2.122-3.665.097-7.522 1.06-11.283 1.543-3.762.482-6.56.77-10.318.77-1.06.58-2.508.772-3.857.483-1.254 1.157-2.508.482-3.47 1.157-3.185.482-6.56 1.35-10.03 1.832-3.088 0-6.463 1.833-9.258 1.35 0 0-.482.193-.578.29-2.797-.097-6.172.29-10.03-1.157-.77 2.218-.192 4.437-.386 6.075-.578 6.075 1.254 11.67.29 17.357 0 .482.577 1.158.192 1.64-.385.386-.77.097-1.156 0-1.062-1.446-.773-3.76-.773-5.4-.675-.77.097-2.314-.192-3.278.578-5.98-.387-11.862-.387-17.263 0-5.014-.962-11.09-1.253-16.2-.385-.868.387-1.446.87-1.833.095 0 0-.192.095-.096.962 2.896 1.347 5.982 1.347 9.164zM1150.338 350.604c2.7.482 4.918.965 7.81.578 5.017 2.123 10.802-.867 15.526 2.604 2.604.578 5.883.675 8.293 1.93 4.05 1.35 8.293 1.928 11.766 4.724 1.447 1.93 2.507 3.664 3.568 5.69-.192 1.93-.096 4.145-1.83 5.014-3.666 1.446-7.523 2.122-11.09 3.954-7.716.193-14.853 2.99-22.085 1.735-3.47.772-6.846-.096-10.318.482-5.98-.386-11.475-2.797-17.262-3.857-1.254-1.06-6.172-1.93-2.217-3.472 2.604-.482 4.242 1.447 6.557 2.025 1.35.29 2.604 1.833 4.146 1.833 5.884 1.06 10.993 2.12 17.358 1.35 5.496 1.35 11.477 0 16.973-1.156 5.208-.387 9.935-1.832 14.756-3.183 2.313-1.062 1.446-2.99 2.507-5.497-1.254-.867-.867-2.7-1.736-3.47-1.542-1.737-4.628-2.605-6.557-3.762-3.182-.482-6.364 0-8.68-1.833-2.604-.482-5.592.193-7.617-1.832-8.68-1.447-17.455-.77-25.555-2.797-4.725-.482-8.68-.675-12.537-3.086.194-.578 1.16-.29 1.544-.482 5.98-.384 10.8 2.99 16.684 2.51zM1196.722 315.79c.192.483 1.735.483 1.157 1.255-2.7 1.833-6.365-.193-9.26 1.35-9.74 2.99-20.057.772-29.99 2.122-5.786.772-11.185.772-16.876 1.93l-3.277-.097-.098.386 3.278 1.446c3.762.77 8.582.867 12.15 1.735 3.375.868 6.27.964 9.547 1.93 3.568.675 7.04.288 11.09.385.29.192.77.097.965.386-5.11 2.12-11.38.675-16.684 2.218-1.447 1.253-3.857.868-5.594 1.64-6.17 0-12.053 2.12-17.84 2.41-.674.58-1.832.676-2.795 1.06 0 .388-2.605.966-2.508 1.16.095.288 3.085.192 3.18.674 9.548 1.446 18.228 0 27.003 1.06 5.4-2.023 10.994 1.158 16.2-.577 6.173-2.025 13.115.288 18.612-1.833 1.64 0 3.375-.867 4.82 0 1.736.097 4.63-1.64 5.98.193 0 .193.19.096.29.193-1.352.867-3.474.192-4.727.385-7.33 1.833-15.044 2.315-22.66 3.474-3.087 0-6.173.482-9.066-.387-3.76.097-7.618.387-11.573-.29-9.16-.288-17.55 1.544-26.134-.964-3.182-.964-6.268 0-9.064-.674 0-.58-2.12.48-1.64-.388.58-.29.964-1.254 2.026-1.446 4.34-2.41 10.03-1.735 14.85-3.472 5.883-1.06 12.537-1.735 18.61-3.182l3.185-.77v-.388l-3.184-.578c-3.954-.675-7.716-1.254-11.67-1.736-4.82-2.217-10.51-2.024-15.33-4.146-.29-.29-.772-.48-1.16-.676.772-1.157 3.087-.097 4.245-.192 4.05-2.122 8.582-.482 13.018-1.64 10.127-1.062 17.648-.482 27.58-1.35 2.314-.676 5.883-.676 8.486-1.062 4.628-.674 9.546 1.158 13.02-1.735.674-.484 1.254-.29 1.832.19zM1202.7 292.166c1.254.482 2.122-.193 3.087 0-.29.674-.772 1.253-.772 2.025-.386 1.062-1.735 1.254-2.507 2.025-.77.192-.867 1.253-1.736 1.833-2.023 1.253-3.857 2.604-5.88 4.05-3.956.964-7.523 3.665-12.153 4.146-3.567 1.64-8.196 1.543-12.15 1.64-2.41 1.928-6.27.192-9.163 1.254-1.445.19-2.312-.387-3.47-.387-3.954 1.062-7.522-.48-11.187-1.06-2.604-1.157-5.4-1.446-7.908-2.797-.77-.578-1.928-.385-2.7-.675-3.085-2.024-6.653-3.278-9.45-5.497-1.35-.288-1.734-1.927-3.086-2.216-.482-.676-1.447-1.254-.867-2.7-.87-.676-1.64-2.025 0-1.736.384-.29.577-.097.095.29 3.182 3.856 8.39 7.425 13.502 10.125 1.928 0 3.857 1.06 5.014 2.025 3.954 1.06 7.618 2.506 11.67 2.506 1.446 0 2.894.29 4.145-.096 2.508.29 4.822.965 7.426.29 2.51-.194 5.016-.482 7.427-.965 7.715-1.544 16.104-1.93 22.47-6.172 2.313-1.542 3.952-2.893 5.978-5.207-.29-.48 1.254-.385.965-1.06-5.98.288-13.404.48-18.805.867-2.41 1.06-5.208-.192-7.81.192-2.315.29-4.728-.29-7.138-.192-1.157 0-2.22-.192-3.28.192-1.733-.29-3.952.193-5.4-.77-.673-.58.87-.482 1.063-.868 1.54-.578 3.086-.77 4.82-.097 1.35.192 2.7-.675 3.954-.675 3.568 0 6.654.964 9.064.675 0-.29 1.157 0 2.122 0 .675-.192 1.35-.192 1.735-.097 2.122 0 3.472-.385 5.4-.096 3.472-.868 7.812 0 10.608-.77.867-.194.77-.098 1.64-.194 1.445.003 2.12-.48 3.278.196zM1134.908 275.676c1.447.193 2.41 1.64 4.05 1.64 3.085 1.542 5.98 2.314 9.74 2.507.58.29 1.542.386 2.218.578 2.12.194 4.05 1.16 6.074 1.16 1.254.385 2.99-.29 4.146 1.253 1.545-.386 2.7-.77 3.666-1.254.385-.772 1.445-1.737 1.35-2.798.676-1.06.096-1.93.578-3.28.58-1.83.58-2.892 1.544-4.82.482-.386.964-.77 1.542-.675.387.965 0 2.12 0 3.28-1.253 2.506-1.06 3.856-1.928 7.134.77.483.482.87.77 1.063 2.41.385 5.015.096 7.04-.387 1.254.192 2.314-.29 4.243-.29.387-1.156 1.255-.288 1.833-.578 3.472-.29 6.558-2.218 10.126-2.41 1.542-1.35 4.145-1.157 5.688-2.315 1.832.193 2.796-2.217 5.11-1.64 1.158-.867 2.218-1.928 3.665-1.928.386.29.77.58 1.157.964-.192 1.446-1.833 1.542-2.894 2.314-1.64.192-3.182.578-4.34 1.64-2.12-.098-3.375 1.735-5.398 1.64-.773.48-1.544.578-2.123.963-.77-.097-1.445.193-2.025.482-4.436 0-7.906 2.893-12.344 2.603-.578.386-1.638.386-2.217.482-4.726 1.64-10.224 1.35-15.046 1.253-2.217-.578-4.916 0-6.846-.964-5.98-1.06-11.766-3.472-17.453-5.015-2.7-1.062-5.21-2.7-7.715-4.05-2.8-1.544-6.076-2.605-8.102-5.4 0-.193 0-.483.193-.58 4.345 2.797 8.876 5.305 13.698 7.426zM1124.688 244.432c2.602.193 4.725 1.736 7.328 2.22 2.988 2.7 7.04 2.988 10.125 5.4 2.41.866 5.015 1.83 7.427 2.892.963.578 1.445.965 2.7 2.12 3.374-3.085 7.714-2.698 10.897-4.145 3.084-.868 5.978-1.93 9.064-3.087 2.988-1.156 6.17-1.735 9.45-2.507 1.253-1.06 3.085-1.06 4.628-1.64 2.122.098 2.99-3.278 4.63-1.735.097 0 1.446.676.578.965-3.568 3.28-8.968 2.22-12.634 4.822-3.374.77-6.652 1.06-9.354 2.99-1.832.288-3.568.963-5.11 1.83-2.026.483-3.954.098-5.497 1.063-1.16.096-1.93.964-3.183 1.35-.193.482-1.736 1.446-1.545 1.64.193.29 2.027-.193 2.316.192 4.436.578 7.52-.192 11.283.676 2.604-.193 5.98 0 8.583.48.29-.19 1.156 0 1.64-.19 2.893-.29 5.688-1.834 8.485-.677 1.735-.288 3.857-.963 5.593-.288.098.29.098.676 0 1.06-.77.966-2.12.677-3.182.87-4.53.29-9.16.48-13.5 1.35-2.122-.097-3.664.096-5.594-.676-4.533-1.254-9.258-1.06-13.885-.578-3.57-.193-7.62.385-11.478-.193-3.28-1.156-6.943-.578-10.896-1.156-1.06.963-2.314.384-3.184.288-.77-.482-1.928-.58-2.795-.193-2.893 1.447-4.533.482-6.56-.386 0 .385-1.638-.193-1.735-.387-.193-.868.676-1.254 1.352-1.543.578-.29 1.35 1.06 1.928.578 2.797.482 5.98.29 8.97 0 4.532.676 8.87.58 13.403.772.867.192 4.146.964 5.207-.386-1.543-.77-3.955-1.93-4.436-3.086-2.314-1.06-3.762-1.158-5.496-2.7-1.834.29-2.605-1.062-4.05-1.062-2.894-.867-5.4-3.278-8.487-4.242-1.736-.097-3.182-1.158-4.63-2.025-.097-.194-.868-.387-.868-.58-.29-.29.193-.868.193-1.06.872-.677 1.257 1.155 2.32.962zM1201.06 225.34c-.963 2.12-3.276 2.313-4.916 3.47-2.218 1.16-4.63 2.315-7.137 2.605-.675.385-1.64.48-2.41.577-6.46 1.158-12.73 3.762-19.48 3.954-4.63.965-9.74.482-14.754.386-4.146 0-9.45-1.156-13.598-2.988-2.025-.482-4.244-1.255-5.69-2.508-2.122-.58-3.76-2.122-5.593-3.278-.385-.676-.867-1.35-.867-2.026 0-.096-.098-.192-.098-.192 1.93.48 3.762 1.93 5.69 3.086 1.542.868 2.41 2.026 4.05 2.41 2.797.58 5.016 2.51 7.908 2.315 5.303 1.35 11.09 1.254 17.453.868-.963-2.218.676-3.085-.096-4.436.096-.578.193-.964.385-1.35.29-.29.482-.58.87-.29l.48.482c-.192.58.194.964.483 1.253-.29 1.255 0 2.508-.193 4.05 4.726.483 7.908-.866 11.766-1.06 1.64-.77 4.146-.965 6.17-1.543 1.834-.578 4.05-.578 5.787-1.64 1.446.192 3.086-.29 4.243-1.735 2.507.095 4.436-1.737 7.33-2.315v-.482c.48-.192 1.445-1.253 2.603-.867-.095.48-.192.867-.385 1.253zM1196.144 194.19c-1.157.87-2.7 1.448-3.857 2.413-4.726 1.35-9.837 2.603-14.947 2.603-3.665.58-7.426 1.35-10.993 2.22-1.93-.193-4.146-.58-6.365-.098-.29.77-.29 1.06-1.447 1.35 1.062 2.797 3.28 4.726 4.34 6.75.58.29 1.158 1.062.965 1.736-.385 1.158.193 1.158.867 1.832.87 0 1.64.097 2.412.482 2.023-.674 3.567-.674 5.206-.096 1.832 1.06 3.375.29 5.4 0 3.857-.578 7.52-1.447 11.476-1.64 3.086-.097 6.172-.097 9.45-.097.29.096.58.193.482.482 0 .29-.385.578-.676.676-4.82.288-9.45.48-13.693 1.83-3.182-.096-5.785.87-8.774.58-7.136-.676-14.658 0-21.408.867-2.988-.675-5.303.58-8.197.386-7.52-.58-15.332-.58-21.986-2.796-.966-.29-.483-1.062-.966-1.736.098-.29.58 0 .773-.096 2.312.482 4.338 1.543 6.652 1.446.095.097.095.097.192.192 3.953-.192 7.617 1.06 11.09.868 2.604 1.446 5.496-.386 8.293.097 3.568.58 6.557-.674 10.03-1.156.48-.386 1.155-.772 1.83-1.544-1.157-3.086-4.724-5.014-5.11-7.52.482 0-.674-.772-.193-2.315-2.988-.867-5.398.29-7.617-.77-1.832-.483-3.664.48-5.594-.58-2.603 1.255-4.917.097-7.423.29-1.447-1.254-2.027 1.254-3.762.097-1.64.482-3.857.772-5.207 0 .096-.386.096-.675 0-1.06 1.447-.87 3.47.288 4.918-.87 2.12-.19 3.664.966 5.785.58 6.173-1.157 13.02.192 19.288-.193 4.34-.194 9.064.48 13.21-.965 6.56-1.06 13.406-1.93 19.577-3.183 1.543-.964 3.375-2.025 5.305-1.93.288.29.577.485.674.87zM1191.322 173.362c-3.472 2.507-7.908 2.122-11.09 4.82-1.254.388-2.604 1.062-3.665 1.737-2.99-.098-6.075 1.83-10.126 3.663 2.605 1.06 4.534.77 5.884.386 5.69 0 10.705-.965 16.683-.097 1.64 0 3.665-.482 5.11.192 2.797.097 6.076-.675 8.486.676l.193.192c-2.025.58-4.63.387-6.653.29-1.735-.48-3.568.192-5.497.192-3.76.097-7.715-1.253-11.09.387-3.086.387-5.98-1.06-8.97 0-2.698.868-5.4-.48-7.905.772-4.63-.77-10.606.096-15.622-.77-5.69 0-11.475.385-17.068-.58-3.086-.097-4.34-.675-7.232-1.254-.098 0 .482-.675.482-.868 3.084-1.832 4.146-2.41 7.424-3.663 4.533-1.833 9.355-1.446 13.887-2.7 6.366.096 12.634.963 17.263 7.04 8.486-5.112 17.55-5.69 25.748-10.126 3.665-1.157 7.04-2.99 10.706-4.146.578 0 1.542-.386 2.217-.192-2.99 1.736-6.075 3.086-9.16 4.05zm-54.293 6.365c-1.255.386-2.798-.096-3.954.676-1.543-.193-2.99.674-4.242 1.156l-2.316 1.64c.87.096 4.244.385 5.21.578 1.253 1.254 3.47.675 5.013 1.06 7.138-.963 15.142.194 23.724-.192-1.254-1.543-2.508-1.928-3.184-2.604-1.348-1.35-5.11-2.797-7.617-3.857-4.34.578-8.97-.387-12.634 1.542zM1118.322 143.66c.19 1.64.867 2.797 1.156 4.533-.578 2.604-.096 4.918.87 8.1 1.35-.675 2.31-.482 2.794-.29 1.834-.192 4.146.29 5.98.194 1.734-.387 3.857-.58 5.592-.58 2.7-1.35 6.076-1.735 8.775-2.313 1.542.386 3.374 0 4.82.193 6.558 0 13.308-1.64 19.48-2.507 1.157.096 2.894-.193 3.954.096.193-.096.675-.096.77-.193 4.822-.192 8.68-.29 13.5-.29 2.22 0 4.147.388 6.173.483h-.097c-2.507 1.832-5.98 1.157-8.68 1.736-3.952-.965-8.1 1.06-12.343-.58-2.507 2.605-5.496.58-8.1 1.447-2.412-.29-5.305-.193-7.33 1.06-.965-.096-1.832.29-3.182-.192-2.314 1.35-5.207.675-7.62.675-3.952-.868-7.134 1.736-10.895 1.254-2.7 1.35-5.785 1.157-8.87 1.157-.966-1.062-2.51-.097-4.437-2.218-.676 4.242-.29 6.75-.482 9.354.483 2.025-.288 4.243 0 6.46-.097.1-.097.194-.192.29-.77-.096-.965-.965-1.254-1.543.578-1.928.482-3.857 0-5.785-.385-.482 0-1.35.096-2.314-1.06-1.447-.19-3.568-.963-4.918.482-1.543-.193-3.183-.098-4.726-.868-1.543.288-3.567-.58-5.11 0-1.35-1.83-2.7-.288-3.762.098-.096.29-.193.482-.29.388.096.87.193.968.578zM1200.58 106.822c.288.097.48.194.674.387-.868 2.218-3.47.964-5.496 1.542-1.736.29-3.375 0-5.11.096-4.726.098-9.45-.096-13.983 0-2.412 0-5.594.193-8.1-.096-1.64-.193-3.666 0-5.305.096-3.953.386-7.715 0-11.86.29-.194-.192-.388-.192-.58-.192-1.735.867-3.665.096-5.304.385-3.953.194-7.715.58-11.572.58-2.7-1.157-5.496.578-8.293-.097-.384-.097.58-1.157.868-1.157 4.244-2.893 9.162 1.157 13.887-.192 5.594-1.544 11.86-.965 17.357-1.254 5.498-.29 10.705.192 16.3 0 1.542-.192 3.084-.192 4.724-.192.387 0 .868.096 1.254.096 4.243-.096 8.486-.096 12.247-.675 2.893.77 5.303.287 8.292.382zM1188.718 88.79c3.76.965 6.462 4.147 10.222 5.305.58 1.06 1.832 1.64 2.41 2.7-.867.29-1.83-.578-2.602-.964-.676-.675-1.352-1.06-2.315-1.156-2.122-1.543-5.015-2.22-7.232-3.954-1.64-.58-4.05-.77-5.88-1.64-3.28-.193-6.56-.193-9.74.386-3.087.58-6.077 1.832-8.487 3.954-3.184 1.543-6.848 2.7-10.318 3.47-5.4 2.702-12.248 2.412-17.84.194-3.28 0-5.11-2.797-8.1-3.182-.87-.676-1.64-1.35-2.7-1.736-.58-.482-.29-1.254-.772-1.93 0-.19-.385.098-.193.194 1.35.097 2.797.675 3.955 1.253 5.11 3.954 11.957 4.147 18.13 5.497 4.34-.192 7.905-2.218 12.054-3.183 2.6-1.64 5.88-2.218 8.485-3.857 1.928-.192 3.47-2.41 5.495-1.928 4.34-1.543 9.45-1.543 13.6 0 .575.29 1.153.483 1.828.58zM1116.2 65.456c0 2.99-.097 5.882.675 9.16 7.232.482 14.176.482 19.77-1.35 1.54-.29 3.086-.482 4.34-.964 6.074-1.736 10.607-.482 16.586-2.604 3.76-.29 7.136-1.06 10.705-1.64 5.014-.867 10.222-.29 14.85-1.35 2.99 0 6.558-.386 9.74-1.253 2.604.096 5.304-1.062 7.907-1.544.387.194.87.58 1.06.87-.384 2.892-4.627 1.253-6.46 2.12-6.557 1.254-12.922 1.93-18.996 2.122-3.665.096-7.522 1.06-11.283 1.543-3.762.482-6.56.77-10.318.77-1.06.58-2.508.772-3.857.483-1.254 1.156-2.508.482-3.47 1.156-3.185.482-6.56 1.35-10.03 1.832-3.088 0-6.463 1.833-9.258 1.352 0 0-.482.192-.578.29-2.797-.098-6.172.288-10.03-1.16-.77 2.22-.192 4.438-.386 6.076-.578 6.075 1.254 11.67.29 17.358 0 .482.577 1.157.192 1.64-.385.386-.77.097-1.156 0-1.062-1.446-.773-3.76-.773-5.4-.675-.77.097-2.314-.192-3.278.578-5.98-.387-11.862-.387-17.262 0-5.015-.962-11.09-1.253-16.2-.385-.868.387-1.447.87-1.833.095 0 0-.194.095-.097.962 2.895 1.347 5.98 1.347 9.163zM1193.732 55.62c0 .482-.676.77-1.06.867-1.448.965-3.473.097-5.016.868-.48 0-.868-.192-1.157-.48 0-.483.192-.677.386-.87 1.35-.385 2.7-2.603 4.338-.964 1.255-.095 1.833.194 2.508.58z"/></g><path d="M2048 0M2048 1536M0 1536M0 0" fill="none" stroke="#17192D" stroke-width="3"/></g></svg>