<?xml version="1.0" encoding="iso-8859-1"?>
<!-- Generator: Adobe Illustrator 15.1.0, SVG Export Plug-In . SVG Version: 6.00 Build 0)  -->
<!DOCTYPE svg PUBLIC "-//W3C//DTD SVG 1.1//EN" "http://www.w3.org/Graphics/SVG/1.1/DTD/svg11.dtd">
<svg version="1.1" xmlns="http://www.w3.org/2000/svg" xmlns:xlink="http://www.w3.org/1999/xlink" x="0px" y="0px" width="2048px"
	 height="1536px" viewBox="0 0 2048 1536" style="enable-background:new 0 0 2048 1536;" xml:space="preserve">
<g id="btxta_x5F_1">
	<g>
		<path style="fill:#17192D;" d="M895.388,947.051c3.567-0.289,6.268,1.158,9.547,1.93c0.675,0.578,1.35,0.578,1.35,0.48
			c0.193,0.098,1.447,0.387,2.508,0.965l0.289,0.098c1.446,0.77,1.543,0.674,2.604,0.77c1.736,1.158,3.953,1.352,5.4,2.412
			c2.893,2.121,7.137,4.146,9.739,7.232c1.833,2.314,3.665,3.568,5.304,5.883c0.098,0.578,0.482,1.156,0.098,1.832
			c-0.771,0-0.289,0.676-1.447-1.061l-0.193-0.387c-1.06,0.289-1.928,0.771-2.604,0.965c-1.64,0-4.146,0-5.882,0.193
			c-1.061-0.289-2.797,0.385-3.762,0c-4.82,0.289-11.089,0.482-16.393,0.096c-1.253,0.578-2.99,0.193-4.146,0.096
			c-5.015-0.289-9.548-1.832-14.08-1.35c-3.085-0.096-6.751,0.869-10.028-0.385c-2.314,0.289-5.979-0.289-7.811-0.193
			c-0.098,0-0.193,0.193-0.291,0.289c-4.725-0.578-10.799,0.193-15.332-0.289c-0.482-0.193-0.867-0.867-0.193-0.965
			c9.258-0.771,20.927-0.867,30.666-0.096c2.218-0.193,5.594,0.289,7.908-0.096c0.096,0.096,0.193,0.191,0.289,0.289
			c3.568,0,6.461,0.674,10.125,1.061c0.386-0.289,0.771-0.098,1.061,0.096c5.4,0.289,13.02-0.482,18.226-0.096
			c2.894-1.35,5.979,0.771,8.776-0.676c0.289-0.482,0.289,0.965,2.218-0.385c-0.579-0.193-1.157-1.158-0.868-1.158
			c-0.771-1.543-2.989-1.35-4.05-4.436c-0.579,0.578-0.386-0.289-0.868-0.289c0,0-0.482-0.289-0.676-0.387
			c-0.096-0.096-0.481-0.193-0.481-0.963c-0.964,0-1.157-0.289-1.446-0.098c-0.965-0.385-0.965-1.736-2.122-1.736
			c-0.482-0.191-1.156-0.385-1.446-0.771c-1.156-0.289-1.639-1.445-2.7-1.639c-1.542-1.061-3.857-0.867-5.11-1.736
			c-1.061,0-1.158-0.867-2.411-0.965c-3.376-1.83-7.812-1.83-11.38-2.602c-5.206,0-9.932-1.062-15.236,0
			c-1.735,0-3.277,0.674-4.821,0.963c-0.867,0.58-1.929,0.387-2.796,0.869c-7.137,2.217-14.369,5.109-20.541,10.027
			c-2.506,1.254-3.761,3.857-6.363,5.111c-0.58,0.387-0.193-0.48,0-0.771c1.928-2.604,4.531-5.4,7.231-7.424
			c2.604-1.93,6.075-3.375,8.969-5.111c2.603-1.158,5.4-1.93,7.618-2.893c2.797-0.193,3.375-1.93,6.268-1.641
			c0.578-0.096,1.061-0.482,2.122-0.385c0.482-0.387,0.867-0.193,1.542-0.482c0.869,0,1.834,0,2.894-0.289
			C886.516,946.762,891.337,946.184,895.388,947.051z"/>
		<path style="fill:#17192D;" d="M924.8,934.9c0.289,0.096,0.482,0.193,0.675,0.385c-0.868,2.219-3.472,0.965-5.497,1.545
			c-1.735,0.289-3.375,0-5.111,0.096c-4.725,0.096-9.449-0.096-13.982,0c-2.41,0-5.593,0.193-8.1-0.096
			c-1.64-0.193-3.664,0-5.305,0.096c-3.953,0.387-7.715,0-11.861,0.289c-0.192-0.193-0.385-0.193-0.578-0.193
			c-1.736,0.869-3.664,0.098-5.303,0.387c-3.955,0.193-7.715,0.578-11.572,0.578c-2.7-1.156-5.498,0.578-8.293-0.096
			c-0.387-0.096,0.578-1.158,0.867-1.158c4.243-2.893,9.161,1.158,13.886-0.193c5.594-1.543,11.862-0.963,17.358-1.254
			c5.496-0.289,10.703,0.193,16.297,0c1.543-0.191,3.086-0.191,4.726-0.191c0.386,0,0.868,0.096,1.253,0.096
			c4.244-0.096,8.486-0.096,12.248-0.674C919.399,935.285,921.811,934.805,924.8,934.9z"/>
		<path style="fill:#17192D;" d="M925.282,915.904c-0.965,2.121-3.279,2.314-4.918,3.471c-2.219,1.158-4.629,2.314-7.137,2.604
			c-0.674,0.387-1.639,0.482-2.411,0.58c-6.46,1.156-12.729,3.76-19.479,3.953c-4.628,0.965-9.738,0.482-14.754,0.387
			c-4.146,0-9.45-1.158-13.597-2.99c-2.026-0.482-4.243-1.254-5.69-2.508c-2.121-0.578-3.76-2.121-5.593-3.279
			c-0.385-0.674-0.867-1.35-0.867-2.023c0-0.098-0.097-0.193-0.097-0.193c1.928,0.482,3.761,1.928,5.689,3.086
			c1.543,0.867,2.411,2.025,4.05,2.41c2.797,0.578,5.015,2.508,7.907,2.314c5.305,1.35,11.09,1.254,17.455,0.869
			c-0.965-2.219,0.675-3.086-0.096-4.438c0.096-0.578,0.192-0.963,0.385-1.35c0.29-0.289,0.482-0.578,0.868-0.289
			c0.192,0.193,0.289,0.289,0.481,0.482c-0.192,0.578,0.193,0.965,0.482,1.254c-0.289,1.254,0,2.506-0.193,4.051
			c4.727,0.48,7.908-0.869,11.766-1.062c1.64-0.771,4.146-0.965,6.172-1.543c1.832-0.578,4.05-0.578,5.785-1.639
			c1.447,0.193,3.086-0.289,4.244-1.736c2.507,0.096,4.436-1.734,7.328-2.314c0-0.771,0-0.482,0-0.482
			c0.482-0.191,1.447-1.254,2.604-0.867C925.571,915.133,925.475,915.518,925.282,915.904z"/>
		<path style="fill:#17192D;" d="M908.696,867.496c-0.193-0.098,0.867-0.289,1.253-0.193c0.289,0,0.675,0,0.771,0
			c0.579,0.193,1.352,0.482,1.93,0.385c1.35,0.58,2.699,0.291,3.857,0.869c2.313,1.061,5.399,2.025,7.907,4.146
			c1.543,1.639,3.567,2.314,5.111,3.762c0.289,0.867,0.674,1.252,0.481,2.023c-1.543,0.098-2.314-2.121-3.761-2.699
			c-1.061-0.965-2.604-1.254-3.472-2.508c-0.193-0.096-0.579-0.482-0.771-0.578s-0.289-0.289-0.289-0.289
			c-0.097,0-0.482-0.193-0.482-0.289c-0.867-0.869-1.156-0.965-1.156-0.58c-0.676-0.191-1.158-0.674-1.833-0.578
			c-0.289-0.096-0.578-0.289-0.771-0.578c-1.157,0.193-1.446-0.387-2.025-0.482c-1.061-0.578-2.7,0-3.856-0.387
			c-0.579,0.098-1.062-0.48-1.736-0.385c-2.314-0.674-3.279-0.096-5.787,0.096c-3.182,1.158-3.277,0.869-5.303,1.641
			c-1.543,0.578-2.41,0.771-3.857,1.447c-1.446,0.674-2.025,1.445-3.472,2.121c-1.35,0.578-2.218,0.385-3.472,0.867
			c-1.446,0.578-2.314,1.254-3.664,1.832c-1.351,0.676-2.41,0.965-3.954,1.639c-1.446,0.869-2.218,1.736-3.954,2.219
			c-0.481,0-1.156,0.096-1.639,0.096c-0.482-0.096-1.061,0.098-1.35,0.098c-0.289,0.096-0.771-0.098-1.062-0.193
			c-1.735,0.578-2.7-0.578-4.532-0.385c-1.736-0.482-3.472-0.676-5.496-1.352c-1.93-1.061-4.436-1.543-6.558-2.988
			c-2.218-1.158-4.436-2.895-6.075-5.016c-0.193-0.289-0.965-1.061-0.289-0.963c1.735,0.771,3.277,2.506,5.11,3.182
			c4.918,3.086,10.028,4.918,15.14,5.4c0.579,0.289,1.254,0,1.929,0.289c0.964,0,2.315,0.289,3.375,0.096
			c3.472,0.387,2.7-1.156,4.146-1.736c1.544-0.578,2.509-0.48,3.857-1.156c0.964-0.578,1.446-1.254,2.604-1.736
			c0.964-0.578,1.639-1.061,2.893-1.254c2.893-0.289,2.989-0.867,4.436-2.121c0.676-0.385,1.062-0.867,1.833-1.156
			c0.675-0.58,1.253-0.289,2.122-0.58c1.156-0.289,1.735-0.674,2.893-1.059c1.061-0.387,2.218-0.869,2.796-0.869
			c2.024-0.867,3.183-0.289,5.11-0.482C908.214,867.109,908.792,867.496,908.696,867.496z"/>
		<path style="fill:#17192D;" d="M884.491,852.645c1.832,1.447,3.953,2.797,5.593,4.918c7.232-0.578,13.886,0.867,20.251,0.676
			c2.797-0.098,4.725-1.832,7.329-1.641c0.096,0.771,0.674,1.543,1.639,1.832c0.192,0.193,0.192-0.578-0.097-0.48
			c-0.096,0.096-0.675,0.191-0.771,0.191c-3.472,2.314-8.679,0.676-12.922,1.254c-1.543,0.387-3.761,1.061-5.014,0
			c-5.786-1.061-12.73,0.482-18.419-0.771c-4.147-0.193-8.583,0.965-12.536,0.096c-5.979-0.48-11.959,0.193-18.033-0.674
			c-2.025,0.771-3.665,0-5.787-0.096c-0.578-0.387-1.735,0-2.024-0.676c0.386-0.482,0.193-1.254,0.771-1.639
			c2.218-1.832,5.208-2.314,7.426-3.666c2.218-0.385,4.146-0.867,6.075-1.928c0.193-0.289,0.386-0.578,0.578-0.676
			c2.508-0.191,5.015-1.928,7.715-0.867C872.437,849.174,879.187,849.463,884.491,852.645z M859.611,850.619
			c-2.026,1.447-4.629,2.025-6.751,2.604c-0.771,1.254-3.086,0.869-4.243,2.025c1.157,1.832,2.797,0.965,3.954,1.158
			c5.883,1.156,11.957,0.289,18.033,0.674c2.41,0.965,4.532-0.096,6.943,0.098c2.699,0.191,5.399-1.062,7.907,0.191l0.868-1.061
			c-1.158-1.736-2.797-2.988-4.918-3.566c-1.833,0-3.568-0.965-5.4-1.736c-3.279-0.869-6.559-0.676-10.029-0.869
			C863.854,850.041,862.118,851.295,859.611,850.619z"/>
		<path style="fill:#17192D;" d="M924.8,836.348c0.289,0.098,0.482,0.193,0.675,0.387c-0.868,2.219-3.472,0.965-5.497,1.543
			c-1.735,0.289-3.375,0-5.111,0.096c-4.725,0.098-9.449-0.096-13.982,0c-2.41,0-5.593,0.193-8.1-0.096
			c-1.64-0.193-3.664,0-5.305,0.096c-3.953,0.387-7.715,0-11.861,0.291c-0.192-0.193-0.385-0.193-0.578-0.193
			c-1.736,0.867-3.664,0.096-5.303,0.385c-3.955,0.193-7.715,0.58-11.572,0.58c-2.7-1.158-5.498,0.578-8.293-0.098
			c-0.387-0.096,0.578-1.156,0.867-1.156c4.243-2.893,9.161,1.156,13.886-0.193c5.594-1.543,11.862-0.965,17.358-1.254
			s10.703,0.193,16.297,0c1.543-0.193,3.086-0.193,4.726-0.193c0.386,0,0.868,0.098,1.253,0.098
			c4.244-0.098,8.486-0.098,12.248-0.676C919.399,836.734,921.811,836.252,924.8,836.348z"/>
		<path style="fill:#17192D;" d="M925.282,817.352c-0.965,2.123-3.279,2.314-4.918,3.473c-2.219,1.156-4.629,2.314-7.137,2.604
			c-0.674,0.385-1.639,0.482-2.411,0.578c-6.46,1.158-12.729,3.762-19.479,3.953c-4.628,0.965-9.738,0.482-14.754,0.387
			c-4.146,0-9.45-1.156-13.597-2.99c-2.026-0.482-4.243-1.252-5.69-2.506c-2.121-0.58-3.76-2.123-5.593-3.279
			c-0.385-0.676-0.867-1.35-0.867-2.025c0-0.096-0.097-0.193-0.097-0.193c1.928,0.482,3.761,1.93,5.689,3.086
			c1.543,0.869,2.411,2.025,4.05,2.412c2.797,0.578,5.015,2.506,7.907,2.314c5.305,1.35,11.09,1.254,17.455,0.867
			c-0.965-2.219,0.675-3.086-0.096-4.436c0.096-0.58,0.192-0.965,0.385-1.35c0.29-0.291,0.482-0.58,0.868-0.291
			c0.192,0.193,0.289,0.291,0.481,0.482c-0.192,0.578,0.193,0.965,0.482,1.254c-0.289,1.254,0,2.508-0.193,4.051
			c4.727,0.482,7.908-0.869,11.766-1.061c1.64-0.771,4.146-0.965,6.172-1.543c1.832-0.578,4.05-0.578,5.785-1.641
			c1.447,0.193,3.086-0.289,4.244-1.734c2.507,0.096,4.436-1.736,7.328-2.314c0-0.771,0-0.482,0-0.482
			c0.482-0.193,1.447-1.254,2.604-0.867C925.571,816.58,925.475,816.967,925.282,817.352z"/>
		<path style="fill:#17192D;" d="M926.921,792.475c1.254,0.482,2.122-0.191,3.086,0c-0.289,0.676-0.771,1.254-0.771,2.025
			c-0.385,1.061-1.736,1.254-2.508,2.025c-0.771,0.191-0.867,1.252-1.734,1.832c-2.025,1.254-3.857,2.604-5.883,4.049
			c-3.954,0.965-7.521,3.666-12.151,4.146c-3.567,1.641-8.196,1.543-12.15,1.641c-2.411,1.928-6.269,0.191-9.161,1.254
			c-1.446,0.191-2.314-0.387-3.471-0.387c-3.954,1.061-7.522-0.482-11.187-1.061c-2.604-1.156-5.401-1.447-7.907-2.797
			c-0.771-0.578-1.93-0.385-2.701-0.674c-3.086-2.025-6.654-3.279-9.449-5.496c-1.352-0.291-1.736-1.93-3.087-2.219
			c-0.481-0.676-1.446-1.254-0.867-2.701c-0.868-0.674-1.64-2.023,0-1.734c0.386-0.289,0.578-0.096,0.097,0.289
			c3.182,3.857,8.39,7.426,13.5,10.125c1.929,0,3.857,1.061,5.014,2.025c3.955,1.061,7.619,2.508,11.67,2.508
			c1.446,0,2.893,0.287,4.146-0.098c2.506,0.289,4.821,0.965,7.426,0.289c2.506-0.191,5.014-0.482,7.424-0.965
			c7.715-1.543,16.105-1.928,22.469-6.172c2.315-1.541,3.954-2.893,5.98-5.207c-0.29-0.482,1.253-0.385,0.964-1.061
			c-5.979,0.289-13.405,0.482-18.805,0.869c-2.411,1.061-5.208-0.193-7.812,0.191c-2.314,0.289-4.725-0.289-7.137-0.191
			c-1.156,0-2.217-0.193-3.277,0.191c-1.736-0.289-3.955,0.193-5.401-0.771c-0.674-0.578,0.868-0.482,1.062-0.867
			c1.543-0.578,3.086-0.77,4.822-0.096c1.35,0.191,2.699-0.674,3.953-0.674c3.568,0,6.654,0.963,9.064,0.674
			c0-0.289,1.157,0,2.121,0c0.676-0.191,1.351-0.191,1.736-0.096c2.121,0,3.472-0.387,5.4-0.096c3.471-0.869,7.811,0,10.607-0.773
			c0.867-0.191,0.771-0.096,1.639-0.191C925.089,792.283,925.764,791.801,926.921,792.475z"/>
		<path style="fill:#17192D;" d="M859.129,775.986c1.446,0.193,2.411,1.639,4.05,1.639c3.086,1.543,5.979,2.314,9.74,2.508
			c0.578,0.289,1.543,0.385,2.218,0.578c2.122,0.193,4.05,1.158,6.075,1.158c1.254,0.385,2.989-0.289,4.146,1.252
			c1.543-0.385,2.699-0.771,3.664-1.252c0.387-0.771,1.447-1.736,1.351-2.797c0.675-1.061,0.097-1.93,0.578-3.279
			c0.579-1.832,0.579-2.893,1.544-4.82c0.482-0.387,0.964-0.771,1.543-0.676c0.385,0.965,0,2.121,0,3.277
			c-1.254,2.508-1.061,3.857-1.93,7.137c0.771,0.482,0.482,0.869,0.771,1.061c2.411,0.387,5.016,0.098,7.039-0.385
			c1.255,0.193,2.315-0.289,4.244-0.289c0.385-1.158,1.254-0.291,1.832-0.58c3.472-0.289,6.559-2.217,10.125-2.41
			c1.544-1.35,4.146-1.158,5.69-2.314c1.831,0.193,2.796-2.219,5.11-1.639c1.158-0.867,2.219-1.928,3.664-1.928
			c0.387,0.289,0.771,0.578,1.158,0.963c-0.193,1.445-1.833,1.543-2.893,2.314c-1.641,0.193-3.183,0.578-4.34,1.639
			c-2.122-0.096-3.375,1.736-5.4,1.639c-0.772,0.482-1.543,0.58-2.121,0.965c-0.771-0.096-1.447,0.193-2.026,0.482
			c-4.436,0-7.907,2.893-12.343,2.604c-0.578,0.387-1.639,0.387-2.219,0.482c-4.725,1.641-10.221,1.35-15.043,1.254
			c-2.218-0.578-4.918,0-6.847-0.965c-5.979-1.061-11.765-3.471-17.454-5.014c-2.7-1.061-5.208-2.701-7.715-4.051
			c-2.797-1.541-6.075-2.602-8.101-5.398c0-0.194,0-0.483,0.192-0.58C849.774,771.357,854.308,773.865,859.129,775.986z"/>
		<path style="fill:#17192D;" d="M932.226,751.205c0.096,0.096,0.096,0.386,0.192,0.675c-0.29,1.254,1.061,1.735,0.097,3.086
			c0,1.35,0.289,3.375-0.771,4.339c-0.676,0.097-1.062,0.771-1.736,0.965c-1.832,0.097-4.436,0.289-6.268,0.579
			c-1.062-0.387-3.086,0.385-4.146,0.096c-5.111,0.482-11.67,0.771-17.455,0.675c-1.061,0.675-2.989,0.193-4.146,0.193
			c-5.4-0.193-10.318-1.543-15.044-0.868c-3.375,0-7.232,1.254-10.8,0c-2.508,0.386-6.172-0.096-8.197,0.097
			c-0.097,0-0.192,0.192-0.386,0.289c-5.015-0.481-10.608,0.578-15.43,0.193c-0.481-0.193-0.964-0.965-0.192-1.062
			c9.934-1.253,21.215-0.771,31.727-1.253c2.314-0.097,5.883,0.096,8.389-0.386c0.098,0.097,0.193,0.192,0.291,0.289
			c3.76,0,7.135,0.481,10.703,0.771c0.386-0.193,0.771-0.193,1.158,0c5.785,0.192,13.981-0.868,19.479-0.675
			c3.182-1.543,6.558,0.675,9.354-1.062c0.482-0.675,1.831,0,2.218-1.832c-1.062-0.964-0.579-2.218-0.771-2.893
			c-0.386-1.543-0.482-3.954-0.579-5.208c0.193,0-0.385-1.639,0.482-1.543C931.743,747.733,931.356,750.046,932.226,751.205z"/>
		<path style="fill:#17192D;" d="M920.847,727.482c1.734,2.025,2.893,4.05,4.628,6.461c0.289,2.314,1.929,2.314,1.542,4.146
			c-1.542,2.121-2.41,1.062-4.242,1.157c-5.979-0.771-13.019,0.482-18.805,0.868c-5.207-0.386-8.1,0.386-15.236,0.578
			c-1.832,0.771-4.436,0.29-6.461,0c-2.121,0.868-5.689,0.482-8.004-0.192c-7.715,0.964-14.079,0.192-21.602,0.579
			c-0.578-0.097-1.445,0.385-1.06-0.29c0-0.097,0.096-0.482,0.096-0.579c0.193-0.192,0.289-0.481,0.482-0.867
			c-0.097-0.675-0.193,0.289,0.289,0.289c0.868-1.061,1.253-2.989,2.7-2.989c0.771-1.061,1.543-1.64,2.41-1.929
			c1.736-1.64,2.701-3.086,5.016-3.086c3.953-3.183,8.968-2.797,13.5-2.797c4.533,1.543,8.293,3.954,12.15,8.969
			c1.641-1.832,1.543-4.34,2.604-4.821c0.675-1.64,1.929-2.99,3.472-4.63c3.086-2.121,5.785-2.507,9.064-3.761
			c3.761-2.604,7.811,1.254,11.571-0.192C916.892,724.782,918.628,726.807,920.847,727.482z M863.95,732.303
			c-2.121,2.797-4.05,1.254-5.785,5.111c-0.289,0.192-0.58,0.386-1.062,0.097c-3.664,1.64,0.291,1.832,1.834,1.929
			c3.182-1.062,4.725,0.192,7.907,0.096c3.278-1.061,7.04,0.386,10.511-0.578c1.061-0.289,1.832-0.097,2.797-0.097
			c2.121-0.482,3.567,0.482,7.811,0c-2.988-2.508-3.664-3.183-5.207-4.243c-2.219-0.964-4.243-2.507-6.268-3.664
			C872.147,729.989,867.615,730.76,863.95,732.303z M895.483,729.507c-2.604,2.507-3.568,4.242-6.074,9.45
			c2.699,0,4.05-0.868,5.207-0.482c4.821-2.025,9.258,0.868,14.271-0.386c3.184-1.157,6.558,0,9.836-1.157
			c1.158,0.579,4.629,0.579,5.498,0.193c0.096-0.193-0.869-1.157-0.58-2.411c-1.35-1.929-2.603-4.051-3.664-6.365
			c-2.121-0.192-3.375-0.578-4.821-1.446c-3.085-0.578-6.46-2.314-9.836-1.156C901.945,726.903,898.666,727.868,895.483,729.507z"/>
		<path style="fill:#17192D;" d="M924.8,712.438c0.289,0.097,0.482,0.193,0.675,0.387c-0.868,2.218-3.472,0.964-5.497,1.542
			c-1.735,0.29-3.375,0-5.111,0.097c-4.725,0.097-9.449-0.097-13.982,0c-2.41,0-5.593,0.193-8.1-0.097
			c-1.64-0.192-3.664,0-5.305,0.097c-3.953,0.386-7.715,0-11.861,0.29c-0.192-0.193-0.385-0.193-0.578-0.193
			c-1.736,0.868-3.664,0.097-5.303,0.386c-3.955,0.193-7.715,0.579-11.572,0.579c-2.7-1.158-5.498,0.578-8.293-0.097
			c-0.387-0.097,0.578-1.157,0.867-1.157c4.243-2.893,9.161,1.157,13.886-0.193c5.594-1.543,11.862-0.964,17.358-1.253
			c5.496-0.29,10.703,0.192,16.297,0c1.543-0.193,3.086-0.193,4.726-0.193c0.386,0,0.868,0.097,1.253,0.097
			c4.244-0.097,8.486-0.097,12.248-0.676C919.399,712.825,921.811,712.342,924.8,712.438z"/>
		<path style="fill:#17192D;" d="M919.882,690.164c-0.289,2.025,0.096,3.761,0.771,5.4c-0.097,0.482-0.482,0.964-0.771,1.061
			c-1.254,1.832,1.157,5.111-2.025,6.075c-1.061,0.289-2.219-0.193-3.086,0.579c-3.375,1.253-4.436,0.289-7.715,0.578
			c-2.893,0.192-6.363-1.254-9.16,0c-1.543,0-2.798-0.578-4.147-0.771c-3.664,1.35-7.811-0.675-11.668,0.29
			c-2.797,0.192-5.015-0.965-7.812,0.289c-0.578,0.096-1.061,0.096-1.543,0.289c-5.689,0-11.572-0.578-17.165,0.096
			c-2.797,0-5.497-0.096-8.004-1.446c-0.481-0.386,0.097-0.964,0.578-1.156c0.675,0,1.64-0.193,2.701,0.674
			c2.024-0.867,3.856,0.097,5.593-0.289c1.447,0.386,3.086,0.482,4.629,0.097c3.278-1.929,6.75,0.289,10.125,0.192
			c3.279-0.096,6.559-1.35,9.934-0.964c3.471,0.482,7.521,0.771,11.089,0.386c1.157-0.386,2.508,0.193,3.567-0.192
			c1.062,0.192,2.508,0.097,3.473,0.771c1.35-0.192,2.989-0.481,4.339-0.867c0.772,0.386,1.929,0.289,2.604,0.482
			c3.664,0.289,4.436,0.771,7.811-0.386c2.219,0.771,1.35-1.543,3.279-2.025c1.253-0.482,0.578-1.061,0.578-1.735
			c-0.289-1.543,1.254-2.701,0.578-4.051c-0.481-1.254-0.097-2.894-1.061-4.243c-0.096-0.386-0.096-0.868,0.386-0.868
			C919.013,688.138,919.206,689.392,919.882,690.164z"/>
		<path style="fill:#17192D;" d="M893.073,664.417c3.762,0.289,7.619,1.157,11.668,1.639c4.919,0.579,10.029,1.157,14.658,3.473
			c2.411,2.41,5.4,3.664,7.328,6.846c0.289,1.736,1.543,1.447,0.965,3.568c0.096,0.289-0.193,0-0.193-0.386
			c-2.217,0.097-1.157-0.482-2.795-2.7c-2.509,0.771-4.34-0.386-6.173,0.386c-7.715-0.482-14.368,0-21.89,0.771
			c-1.833,0.868-4.146,0.868-6.269,0.578c-1.351-0.481-2.797,0.482-4.436,0.193c-5.015-0.289-10.608-0.289-15.526,0.386
			c-3.664-0.192-7.232,0-10.993,0.386c-1.446-0.289-3.086-0.771-5.11-0.192c-0.58,1.35-1.254,1.061-0.771,2.218
			c-0.193,0.192-0.387,0.481-0.676,0.675c-0.289-0.097-0.579,0-0.868-0.289c0.386-2.797,2.218-4.34,3.954-6.461
			c3.375-3.086,7.715-4.533,11.379-7.522c2.412-1.543,4.918-1.735,7.522-2.796c3.278-0.482,6.942-0.29,10.126-0.965
			C887.673,664.898,890.276,664.706,893.073,664.417z M877.837,666.827c-3.761-0.192-6.365,1.543-9.933,2.604
			c-0.193,0.192-1.061,1.061-1.543,1.35c-2.7,1.929-5.883,2.797-8.776,6.654c3.473-0.29,5.208,0.964,6.848,0.289
			c2.411,0.289,4.531-0.965,6.943-1.062c3.472,1.062,7.232,0.193,10.801,0.676c3.278,0.386,6.846-0.386,10.221-0.579
			c5.979-2.314,12.923-0.675,19.094-1.35c2.99,0,6.462-0.482,11.187,0.097c-1.831-3.857-5.11-4.533-7.329-5.786
			c-5.688-1.543-11.379-2.508-17.261-3.086c-1.157-0.193-2.604,0.289-3.665-0.386C889.12,666.538,882.755,664.706,877.837,666.827z"
			/>
		<path style="fill:#17192D;" d="M925.282,646.287c-0.965,2.122-3.279,2.315-4.918,3.473c-2.219,1.157-4.629,2.313-7.137,2.604
			c-0.674,0.386-1.639,0.482-2.411,0.578c-6.46,1.157-12.729,3.762-19.479,3.954c-4.628,0.964-9.738,0.482-14.754,0.386
			c-4.146,0-9.45-1.157-13.597-2.989c-2.026-0.482-4.243-1.254-5.69-2.508c-2.121-0.578-3.76-2.121-5.593-3.278
			c-0.385-0.675-0.867-1.35-0.867-2.025c0-0.097-0.097-0.193-0.097-0.193c1.928,0.482,3.761,1.929,5.689,3.087
			c1.543,0.867,2.411,2.024,4.05,2.41c2.797,0.579,5.015,2.508,7.907,2.314c5.305,1.351,11.09,1.254,17.455,0.868
			c-0.965-2.218,0.675-3.086-0.096-4.436c0.096-0.579,0.192-0.964,0.385-1.351c0.29-0.289,0.482-0.578,0.868-0.289
			c0.192,0.193,0.289,0.289,0.481,0.482c-0.192,0.578,0.193,0.964,0.482,1.253c-0.289,1.254,0,2.508-0.193,4.051
			c4.727,0.482,7.908-0.868,11.766-1.062c1.64-0.771,4.146-0.964,6.172-1.543c1.832-0.577,4.05-0.577,5.785-1.639
			c1.447,0.192,3.086-0.29,4.244-1.736c2.507,0.097,4.436-1.735,7.328-2.314c0-0.771,0-0.481,0-0.481
			c0.482-0.192,1.447-1.254,2.604-0.868C925.571,645.516,925.475,645.902,925.282,646.287z"/>
		<path style="fill:#17192D;" d="M915.542,624.784c-3.471,2.507-7.908,2.122-11.09,4.822c-1.254,0.385-2.604,1.06-3.664,1.735
			c-2.989-0.097-6.075,1.832-10.126,3.664c2.604,1.062,4.532,0.771,5.882,0.386c5.69,0,10.705-0.964,16.684-0.097
			c1.639,0,3.664-0.482,5.11,0.193c2.798,0.097,6.076-0.676,8.486,0.675c0.097,0.097,0.097,0.097,0.192,0.193
			c-2.023,0.578-4.628,0.385-6.652,0.289c-1.736-0.482-3.568,0.193-5.498,0.193c-3.76,0.096-7.714-1.254-11.09,0.385
			c-3.084,0.386-5.978-1.061-8.968,0c-2.7,0.868-5.399-0.482-7.907,0.772c-4.629-0.772-10.607,0.096-15.622-0.772
			c-5.69,0-11.476,0.386-17.069-0.578c-3.085-0.096-4.338-0.675-7.231-1.254c-0.097,0,0.482-0.675,0.482-0.868
			c3.085-1.831,4.146-2.41,7.425-3.664c4.532-1.832,9.354-1.446,13.887-2.7c6.364,0.097,12.633,0.965,17.262,7.04
			c8.485-5.111,17.55-5.689,25.746-10.126c3.665-1.157,7.04-2.989,10.705-4.146c0.578,0,1.543-0.386,2.219-0.193
			C921.714,622.469,918.628,623.82,915.542,624.784z M861.251,631.148c-1.255,0.387-2.797-0.096-3.955,0.676
			c-1.542-0.193-2.988,0.675-4.242,1.157l-2.314,1.64c0.868,0.096,4.243,0.385,5.207,0.578c1.254,1.253,3.472,0.675,5.014,1.061
			c7.137-0.965,15.141,0.192,23.723-0.192c-1.253-1.544-2.506-1.929-3.182-2.604c-1.35-1.35-5.111-2.797-7.617-3.856
			C869.544,630.184,864.915,629.219,861.251,631.148z"/>
		<path style="fill:#17192D;" d="M912.938,578.688c3.762,0.965,6.461,4.146,10.222,5.304c0.579,1.061,1.833,1.64,2.411,2.7
			c-0.867,0.289-1.832-0.578-2.604-0.964c-0.676-0.676-1.351-1.062-2.314-1.157c-2.122-1.543-5.016-2.218-7.232-3.954
			c-1.641-0.579-4.051-0.771-5.883-1.64c-3.279-0.192-6.557-0.192-9.739,0.386c-3.086,0.579-6.076,1.832-8.487,3.954
			c-3.182,1.543-6.846,2.7-10.317,3.472c-5.399,2.7-12.247,2.41-17.841,0.192c-3.277,0-5.11-2.796-8.1-3.182
			c-0.868-0.676-1.64-1.351-2.7-1.735c-0.579-0.482-0.29-1.254-0.772-1.929c0-0.193-0.385,0.096-0.191,0.192
			c1.35,0.097,2.796,0.675,3.953,1.254c5.111,3.953,11.957,4.146,18.129,5.496c4.34-0.192,7.908-2.218,12.055-3.183
			c2.604-1.639,5.883-2.218,8.486-3.857c1.929-0.192,3.471-2.411,5.496-1.929c4.34-1.542,9.45-1.542,13.598,0
			C911.685,578.399,912.263,578.591,912.938,578.688z"/>
		<path style="fill:#17192D;" d="M924.8,564.996c0.289,0.097,0.482,0.192,0.675,0.386c-0.868,2.218-3.472,0.965-5.497,1.543
			c-1.735,0.29-3.375,0-5.111,0.097c-4.725,0.096-9.449-0.097-13.982,0c-2.41,0-5.593,0.193-8.1-0.097
			c-1.64-0.192-3.664,0-5.305,0.097c-3.953,0.385-7.715,0-11.861,0.289c-0.192-0.193-0.385-0.193-0.578-0.193
			c-1.736,0.868-3.664,0.098-5.303,0.386c-3.955,0.194-7.715,0.579-11.572,0.579c-2.7-1.157-5.498,0.579-8.293-0.097
			c-0.387-0.097,0.578-1.157,0.867-1.157c4.243-2.893,9.161,1.157,13.886-0.192c5.594-1.543,11.862-0.965,17.358-1.254
			s10.703,0.192,16.297,0c1.543-0.193,3.086-0.193,4.726-0.193c0.386,0,0.868,0.098,1.253,0.098
			c4.244-0.098,8.486-0.098,12.248-0.676C919.399,565.381,921.811,564.899,924.8,564.996z"/>
		<path style="fill:#17192D;" d="M927.981,527.098c-7.617,3.375-14.175,7.812-20.829,12.247c-0.579,0.289-0.771,1.061-2.024,1.061
			c-3.086,3.086-6.943,3.375-9.74,6.172c-2.508,1.254-5.304,2.7-8.197,4.918c0.386,0.289,1.061,0.579,1.35,0.771
			c2.026,0.965,4.051,0.193,5.883,0.29c5.787,0.192,11.09-0.772,16.201-0.868c4.918,0,9.451-1.157,13.79-0.675
			c0.097,0.192,0.097,0.481,0.097,0.867c-0.289,2.218-2.797,0.676-3.857,1.062c-4.629,0.578-8.68,0.675-13.694,0.867
			c-6.171,0.386-12.246,0.097-18.419,0.771c-4.146,0.386-7.906,0-11.861,0.868c-6.557-0.771-13.211,2.604-19.768,1.254
			c-1.543,0-3.086,0.771-4.726,0.386c-0.675-0.482-3.761,0.096-2.218-1.351c5.015-0.771,10.222,0,15.332-0.675
			c7.715-0.289,15.912-0.771,21.602-5.689c0.965-0.289,1.736-0.965,2.41-1.447c2.411-1.446,5.016-2.507,7.041-4.628
			c2.024-0.675,3.857-1.832,5.496-2.99c2.893-2.893,6.75-3.953,9.932-6.171c0-0.386,0.291-0.289,0.482-0.386
			c0.869-0.386,1.544-1.157,2.604-1.929c0-0.386,2.798-0.965,2.701-1.254s-3.279-0.193-3.568-0.386
			c-4.436,0.965-9.934,1.351-15.044,1.832c-5.496,0.482-9.161,1.543-14.368,1.64c-1.832-0.386-4.436,1.446-6.268-0.097
			c-2.025,0-3.183-0.096-4.822,0.482c-1.446,0-2.893-0.192-4.629-0.192c-0.386-0.097-0.771,0.289-1.157,0.289
			c-1.64,1.061-2.507-1.447-3.761-0.289c-0.578,0.192-1.157,0.675-1.735-0.193c-3.086,0.868-5.497,0.386-8.101-1.061
			c-0.868,0.386-1.158-0.097-1.543-0.386c0-0.097,0-0.193,0-0.289c0.289-0.675,0.867,0.289,0.867,0.192c0,0,0.58,0.482,1.158-0.097
			c0.386-0.578,1.253,0.675,1.446,0.386c3.278,0.771,7.136,0.579,10.801,0.097c3.375,0.579,8.485-0.386,11.668,0.289
			c0.675-0.097,1.543-0.675,2.7-0.289c1.061-0.964,2.507-0.097,3.279-0.675c4.049-0.289,8.389-0.965,12.535-0.965
			c3.955-0.386,8.294-0.771,11.477-1.253c0.675,0.192,1.446-0.386,2.121,0.097c1.639-0.386,2.314-0.386,3.567-0.579
			c2.509-0.482,5.69-0.868,7.908-1.351c0.386,0,0.868-0.289,1.446-0.964c-0.482-0.868,0.578-0.482,0.676-0.482
			c0.867-0.386,2.313,0.386,3.76-0.097C927.981,526.52,928.079,526.809,927.981,527.098z"/>
		<path style="fill:#17192D;" d="M893.073,502.509c3.762,0.289,7.619,1.157,11.668,1.639c4.919,0.579,10.029,1.157,14.658,3.473
			c2.411,2.41,5.4,3.664,7.328,6.846c0.289,1.736,1.543,1.447,0.965,3.568c0.096,0.289-0.193,0-0.193-0.386
			c-2.217,0.097-1.157-0.482-2.795-2.7c-2.509,0.771-4.34-0.386-6.173,0.386c-7.715-0.482-14.368,0-21.89,0.771
			c-1.833,0.868-4.146,0.868-6.269,0.578c-1.351-0.481-2.797,0.482-4.436,0.193c-5.015-0.289-10.608-0.289-15.526,0.386
			c-3.664-0.192-7.232,0-10.993,0.386c-1.446-0.289-3.086-0.771-5.11-0.192c-0.58,1.35-1.254,1.061-0.771,2.218
			c-0.193,0.192-0.387,0.481-0.676,0.675c-0.289-0.097-0.579,0-0.868-0.289c0.386-2.797,2.218-4.34,3.954-6.461
			c3.375-3.086,7.715-4.533,11.379-7.521c2.412-1.544,4.918-1.736,7.522-2.797c3.278-0.482,6.942-0.29,10.126-0.965
			C887.673,502.991,890.276,502.798,893.073,502.509z M877.837,504.919c-3.761-0.192-6.365,1.543-9.933,2.604
			c-0.193,0.192-1.061,1.061-1.543,1.35c-2.7,1.929-5.883,2.797-8.776,6.654c3.473-0.29,5.208,0.964,6.848,0.289
			c2.411,0.289,4.531-0.965,6.943-1.062c3.472,1.062,7.232,0.193,10.801,0.676c3.278,0.386,6.846-0.386,10.221-0.579
			c5.979-2.314,12.923-0.675,19.094-1.35c2.99,0,6.462-0.482,11.187,0.097c-1.831-3.857-5.11-4.533-7.329-5.786
			c-5.688-1.543-11.379-2.508-17.261-3.086c-1.157-0.193-2.604,0.289-3.665-0.386C889.12,504.63,882.755,502.798,877.837,504.919z"
			/>
		<path style="fill:#17192D;" d="M861.829,449.857c1.061,0,2.604-0.097,3.76-0.192c2.797-1.736,7.137,0,10.416,0.386
			c2.025-1.157,5.4-0.482,7.521-0.676c3.086-0.771,7.136,0.193,10.704,0.193c6.269,0,13.501-0.193,19.769-0.482
			c0.964-0.097,1.928-0.675,2.797-0.289c0.096,0.097,0.193-0.097,0.289-0.097c-2.219,1.447-4.918,1.543-7.136,2.507
			c-3.183,2.797-6.848,4.243-10.222,6.365c-4.051,1.832-8.197,3.182-11.861,5.979c-1.157,0.579-2.219,1.254-3.375,1.832
			l-2.797,1.351l3.182,0.192c7.521,0.482,14.562-1.35,22.276-0.289c3.086,0,5.979-1.254,8.968-0.675c0.771-0.097,1.736,0,2.411,0
			c-0.097,0.192,0,0.578-0.097,0.675c-0.771,0-1.445,0.193-2.121,0.675c-0.771,0.387-1.736,0.387-2.604,0.579
			c-2.604,0.289-5.207-0.097-7.812,0.482c-7.039,0.192-13.886-0.675-20.733,0.096c-3.182-0.578-6.364,1.062-9.45,0.193
			c-2.024,0.482-4.628-0.578-6.171,0.578c-4.629-0.482-9.162-1.253-13.983-1.253c-1.061-0.386-2.7,0-3.183-1.157
			c-0.097-0.097,0.578-1.061,0.578-0.579c5.209-1.351,9.645,1.736,15.623,1.061c3.086-0.386,6.269,0,9.547-0.964
			c0.964-1.351,2.41-1.254,3.473-2.121c1.928-0.29,3.856-0.771,5.11-2.122c4.917-2.411,9.933-3.278,13.886-6.847
			c1.157-0.482,2.314-1.061,3.568-2.122c0-0.289,2.796-1.543,2.796-1.832c-0.096-0.192-2.989,0.482-2.989,0.097
			c-3.76,0-7.232-0.675-10.222,0.386c-5.399-1.35-10.993-1.446-16.78-0.193c-4.146-0.481-8.389-1.06-12.439-0.289
			c-3.375-1.446-7.135,1.543-10.221-1.156c-0.289-0.868-1.833-0.579-1.736-1.64C855.85,447.928,858.646,449.76,861.829,449.857z"/>
		<path style="fill:#17192D;" d="M924.8,436.357c0.289,0.097,0.482,0.192,0.675,0.386c-0.868,2.218-3.472,0.965-5.497,1.543
			c-1.735,0.289-3.375,0-5.111,0.097c-4.725,0.096-9.449-0.097-13.982,0c-2.41,0-5.593,0.192-8.1-0.097
			c-1.64-0.192-3.664,0-5.305,0.097c-3.953,0.385-7.715,0-11.861,0.289c-0.192-0.193-0.385-0.193-0.578-0.193
			c-1.736,0.868-3.664,0.097-5.303,0.386c-3.955,0.193-7.715,0.579-11.572,0.579c-2.7-1.157-5.498,0.578-8.293-0.097
			c-0.387-0.097,0.578-1.157,0.867-1.157c4.243-2.893,9.161,1.157,13.886-0.192c5.594-1.543,11.862-0.965,17.358-1.254
			s10.703,0.192,16.297,0c1.543-0.193,3.086-0.193,4.726-0.193c0.386,0,0.868,0.097,1.253,0.097
			c4.244-0.097,8.486-0.097,12.248-0.675C919.399,436.743,921.811,436.26,924.8,436.357z"/>
		<path style="fill:#17192D;" d="M932.418,415.431c1.254,1.061,0,0.964-0.192,1.351c-5.401,4.725-12.923,3.761-18.708,7.522
			c-4.147,1.542-8.583,2.12-12.634,3.085c-3.182,0.097-6.075,1.446-9.064,0.868c-0.964,0.771-2.41,0-3.471,0.386
			c-6.943,0-10.898-1.351-16.298-2.508c-1.832,0.193-3.761-0.385-5.207-1.64c-2.508,0.29-4.532-0.482-6.365-1.446
			c-4.436-1.639-8.871-3.374-12.054-6.46c0,0.096-0.579-0.194-0.29-0.387c0.772-0.482,1.64,0.387,2.411,0.771
			c4.533,0.386,7.426,3.665,11.477,4.63c1.831,0.964,3.857,0.964,5.593,1.639c7.425,1.929,12.343,3.568,20.153,3.664
			c0.098,0,0.289-0.675,0.289,0.097c6.655-0.386,12.344-1.929,18.42-2.604c6.172-1.929,12.343-4.147,18.516-6.076
			c1.639-1.06,3.567-1.929,5.688-2.699c0.579,0,1.64-1.062,1.929-0.675C932.707,414.95,933.382,414.95,932.418,415.431z"/>
		<path style="fill:#17192D;" d="M920.364,385.056c-1.158,0.867-2.7,1.446-3.857,2.41c-4.727,1.35-9.837,2.604-14.947,2.604
			c-3.664,0.579-7.426,1.351-10.993,2.219c-1.929-0.193-4.146-0.579-6.365-0.098c-0.29,0.771-0.29,1.062-1.446,1.351
			c1.061,2.796,3.279,4.725,4.339,6.751c0.579,0.289,1.157,1.061,0.964,1.735c-0.385,1.157,0.193,1.157,0.869,1.832
			c0.867,0,1.64,0.097,2.41,0.481c2.025-0.674,3.568-0.674,5.207-0.096c1.833,1.061,3.375,0.289,5.401,0
			c3.857-0.578,7.521-1.446,11.476-1.64c3.086-0.096,6.172-0.096,9.449-0.096c0.29,0.096,0.58,0.192,0.482,0.481
			c0,0.289-0.385,0.579-0.675,0.676c-4.821,0.289-9.45,0.482-13.692,1.832c-3.183-0.097-5.787,0.868-8.775,0.579
			c-7.137-0.676-14.658,0-21.409,0.867c-2.989-0.676-5.304,0.579-8.196,0.386c-7.521-0.579-15.333-0.579-21.987-2.797
			c-0.964-0.289-0.482-1.061-0.964-1.735c0.097-0.289,0.578,0,0.771-0.097c2.314,0.482,4.339,1.543,6.654,1.447
			c0.096,0.096,0.096,0.096,0.192,0.191c3.954-0.191,7.618,1.062,11.09,0.868c2.603,1.447,5.496-0.386,8.293,0.097
			c3.568,0.579,6.558-0.675,10.028-1.156c0.482-0.387,1.158-0.772,1.833-1.544c-1.157-3.086-4.726-5.015-5.11-7.521
			c0.482,0-0.676-0.771-0.193-2.314c-2.989-0.868-5.4,0.29-7.617-0.771c-1.833-0.482-3.666,0.481-5.595-0.578
			c-2.603,1.253-4.917,0.096-7.425,0.289c-1.446-1.254-2.025,1.253-3.762,0.097c-1.639,0.482-3.857,0.771-5.206,0
			c0.096-0.386,0.096-0.676,0-1.062c1.446-0.867,3.472,0.289,4.917-0.867c2.122-0.193,3.665,0.964,5.787,0.578
			c6.171-1.157,13.018,0.193,19.287-0.193c4.339-0.192,9.063,0.482,13.21-0.964c6.558-1.061,13.405-1.929,19.576-3.183
			c1.542-0.964,3.375-2.024,5.304-1.929C919.978,384.476,920.267,384.669,920.364,385.056z"/>
		<path style="fill:#17192D;" d="M842.542,357.378c0.193,1.64,0.868,2.797,1.157,4.533c-0.578,2.604-0.096,4.918,0.868,8.1
			c1.35-0.675,2.314-0.482,2.797-0.289c1.832-0.193,4.146,0.289,5.979,0.193c1.736-0.387,3.857-0.579,5.594-0.579
			c2.699-1.35,6.074-1.736,8.774-2.314c1.544,0.386,3.376,0,4.821,0.193c6.558,0,13.309-1.64,19.48-2.508
			c1.156,0.097,2.893-0.192,3.953,0.097c0.193-0.097,0.676-0.097,0.771-0.192c4.822-0.193,8.68-0.29,13.501-0.29
			c2.218,0,4.146,0.386,6.171,0.482h-0.096c-2.507,1.832-5.979,1.157-8.68,1.736c-3.953-0.965-8.1,1.06-12.343-0.579
			c-2.507,2.604-5.497,0.579-8.101,1.446c-2.41-0.289-5.303-0.192-7.329,1.061c-0.964-0.096-1.831,0.29-3.183-0.192
			c-2.313,1.351-5.207,0.675-7.617,0.675c-3.955-0.868-7.137,1.736-10.896,1.254c-2.7,1.351-5.787,1.157-8.873,1.157
			c-0.964-1.061-2.506-0.097-4.436-2.218c-0.675,4.242-0.289,6.75-0.482,9.354c0.482,2.025-0.289,4.243,0,6.461
			c-0.096,0.098-0.096,0.193-0.192,0.289c-0.771-0.096-0.964-0.964-1.253-1.542c0.578-1.929,0.481-3.857,0-5.786
			c-0.387-0.482,0-1.351,0.096-2.314c-1.061-1.446-0.193-3.568-0.965-4.918c0.482-1.543-0.193-3.183-0.096-4.726
			c-0.868-1.543,0.289-3.567-0.579-5.111c0-1.35-1.832-2.7-0.289-3.761c0.097-0.097,0.289-0.192,0.481-0.289
			C841.964,356.897,842.446,356.993,842.542,357.378z"/>
		<path style="fill:#17192D;" d="M920.942,299.711c0.193,0.482,1.735,0.482,1.157,1.254c-2.7,1.833-6.364-0.192-9.257,1.351
			c-9.741,2.989-20.059,0.771-29.991,2.121c-5.786,0.772-11.187,0.772-16.876,1.929l-3.278-0.097l-0.097,0.387l3.279,1.446
			c3.76,0.771,8.582,0.867,12.15,1.735c3.375,0.867,6.268,0.964,9.546,1.929c3.568,0.676,7.04,0.289,11.09,0.386
			c0.289,0.192,0.771,0.097,0.964,0.386c-5.11,2.121-11.379,0.675-16.683,2.218c-1.446,1.254-3.857,0.868-5.593,1.64
			c-6.172,0-12.055,2.121-17.84,2.411c-0.675,0.578-1.832,0.675-2.797,1.061c0,0.386-2.604,0.964-2.508,1.156
			c0.098,0.29,3.086,0.194,3.184,0.676c9.547,1.447,18.225,0,27,1.061c5.4-2.024,10.994,1.157,16.201-0.578
			c6.172-2.025,13.115,0.289,18.611-1.833c1.641,0,3.375-0.867,4.822,0c1.735,0.097,4.629-1.64,5.979,0.193
			c0,0.193,0.192,0.097,0.289,0.193c-1.35,0.867-3.472,0.192-4.725,0.385c-7.329,1.832-15.044,2.314-22.662,3.473
			c-3.086,0-6.172,0.481-9.064-0.387c-3.761,0.097-7.618,0.387-11.572-0.289c-9.16-0.289-17.551,1.543-26.134-0.965
			c-3.183-0.964-6.267,0-9.063-0.675c0-0.578-2.122,0.482-1.641-0.385c0.58-0.29,0.965-1.254,2.026-1.447
			c4.339-2.41,10.028-1.736,14.851-3.472c5.882-1.061,12.536-1.735,18.611-3.182l3.182-0.771v-0.386l-3.182-0.579
			c-3.955-0.675-7.715-1.254-11.668-1.735c-4.822-2.218-10.512-2.025-15.334-4.146c-0.289-0.29-0.771-0.482-1.157-0.676
			c0.772-1.156,3.086-0.097,4.243-0.192c4.051-2.122,8.582-0.482,13.02-1.64c10.125-1.061,17.646-0.482,27.579-1.35
			c2.313-0.676,5.882-0.676,8.486-1.062c4.628-0.675,9.546,1.157,13.019-1.735C919.784,299.037,920.364,299.23,920.942,299.711z"/>
		<path style="fill:#17192D;" d="M925.282,281.389c-0.965,2.122-3.279,2.315-4.918,3.473c-2.219,1.157-4.629,2.313-7.137,2.604
			c-0.674,0.386-1.639,0.482-2.411,0.578c-6.46,1.158-12.729,3.762-19.479,3.954c-4.628,0.964-9.738,0.482-14.754,0.385
			c-4.146,0-9.45-1.156-13.597-2.988c-2.026-0.482-4.243-1.254-5.69-2.508c-2.121-0.578-3.76-2.121-5.593-3.278
			c-0.385-0.675-0.867-1.35-0.867-2.025c0-0.096-0.097-0.193-0.097-0.193c1.928,0.482,3.761,1.929,5.689,3.087
			c1.543,0.868,2.411,2.024,4.05,2.41c2.797,0.579,5.015,2.508,7.907,2.315c5.305,1.35,11.09,1.252,17.455,0.867
			c-0.965-2.218,0.675-3.086-0.096-4.436c0.096-0.579,0.192-0.965,0.385-1.351c0.29-0.289,0.482-0.578,0.868-0.289
			c0.192,0.193,0.289,0.289,0.481,0.482c-0.192,0.578,0.193,0.964,0.482,1.253c-0.289,1.254,0,2.508-0.193,4.051
			c4.727,0.482,7.908-0.868,11.766-1.061c1.64-0.771,4.146-0.965,6.172-1.544c1.832-0.579,4.05-0.579,5.785-1.639
			c1.447,0.192,3.086-0.29,4.244-1.736c2.507,0.098,4.436-1.735,7.328-2.313c0-0.772,0-0.482,0-0.482
			c0.482-0.193,1.447-1.254,2.604-0.868C925.571,280.619,925.475,281.004,925.282,281.389z"/>
		<path style="fill:#17192D;" d="M920.364,250.243c-1.158,0.868-2.7,1.447-3.857,2.411c-4.727,1.35-9.837,2.604-14.947,2.604
			c-3.664,0.578-7.426,1.35-10.993,2.218c-1.929-0.192-4.146-0.578-6.365-0.097c-0.29,0.771-0.29,1.062-1.446,1.351
			c1.061,2.797,3.279,4.726,4.339,6.75c0.579,0.289,1.157,1.062,0.964,1.736c-0.385,1.157,0.193,1.157,0.869,1.832
			c0.867,0,1.64,0.097,2.41,0.481c2.025-0.674,3.568-0.674,5.207-0.096c1.833,1.061,3.375,0.289,5.401,0
			c3.857-0.578,7.521-1.447,11.476-1.64c3.086-0.097,6.172-0.097,9.449-0.097c0.29,0.097,0.58,0.193,0.482,0.482
			c0,0.289-0.385,0.579-0.675,0.676c-4.821,0.289-9.45,0.481-13.692,1.832c-3.183-0.097-5.787,0.867-8.775,0.578
			c-7.137-0.675-14.658,0-21.409,0.868c-2.989-0.675-5.304,0.579-8.196,0.386c-7.521-0.579-15.333-0.579-21.987-2.797
			c-0.964-0.289-0.482-1.061-0.964-1.736c0.097-0.289,0.578,0,0.771-0.096c2.314,0.482,4.339,1.543,6.654,1.446
			c0.096,0.097,0.096,0.097,0.192,0.192c3.954-0.192,7.618,1.062,11.09,0.868c2.603,1.446,5.496-0.386,8.293,0.097
			c3.568,0.579,6.558-0.675,10.028-1.157c0.482-0.386,1.158-0.771,1.833-1.543c-1.157-3.086-4.726-5.015-5.11-7.521
			c0.482,0-0.676-0.771-0.193-2.314c-2.989-0.868-5.4,0.289-7.617-0.771c-1.833-0.482-3.666,0.482-5.595-0.579
			c-2.603,1.254-4.917,0.097-7.425,0.29c-1.446-1.254-2.025,1.253-3.762,0.097c-1.639,0.481-3.857,0.771-5.206,0
			c0.096-0.387,0.096-0.676,0-1.062c1.446-0.867,3.472,0.289,4.917-0.867c2.122-0.193,3.665,0.964,5.787,0.578
			c6.171-1.157,13.018,0.192,19.287-0.192c4.339-0.193,9.063,0.481,13.21-0.965c6.558-1.061,13.405-1.929,19.576-3.183
			c1.542-0.964,3.375-2.025,5.304-1.928C919.978,249.665,920.267,249.858,920.364,250.243z"/>
		<path style="fill:#17192D;" d="M915.542,229.414c-3.471,2.507-7.908,2.121-11.09,4.821c-1.254,0.386-2.604,1.061-3.664,1.736
			c-2.989-0.097-6.075,1.832-10.126,3.664c2.604,1.061,4.532,0.771,5.882,0.386c5.69,0,10.705-0.965,16.684-0.097
			c1.639,0,3.664-0.482,5.11,0.193c2.798,0.096,6.076-0.676,8.486,0.675c0.097,0.097,0.097,0.097,0.192,0.192
			c-2.023,0.579-4.628,0.386-6.652,0.29c-1.736-0.482-3.568,0.192-5.498,0.192c-3.76,0.097-7.714-1.254-11.09,0.386
			c-3.084,0.386-5.978-1.061-8.968,0c-2.7,0.868-5.399-0.482-7.907,0.771c-4.629-0.771-10.607,0.097-15.622-0.771
			c-5.69,0-11.476,0.386-17.069-0.578c-3.085-0.097-4.338-0.675-7.231-1.254c-0.097,0,0.482-0.675,0.482-0.868
			c3.085-1.832,4.146-2.41,7.425-3.664c4.532-1.832,9.354-1.447,13.887-2.701c6.364,0.098,12.633,0.965,17.262,7.041
			c8.485-5.111,17.55-5.689,25.746-10.126c3.665-1.157,7.04-2.989,10.705-4.146c0.578,0,1.543-0.386,2.219-0.193
			C921.714,227.098,918.628,228.45,915.542,229.414z M861.251,235.778c-1.255,0.386-2.797-0.097-3.955,0.676
			c-1.542-0.193-2.988,0.674-4.242,1.156l-2.314,1.64c0.868,0.097,4.243,0.386,5.207,0.579c1.254,1.253,3.472,0.674,5.014,1.061
			c7.137-0.965,15.141,0.192,23.723-0.193c-1.253-1.543-2.506-1.929-3.182-2.604c-1.35-1.35-5.111-2.797-7.617-3.857
			C869.544,234.813,864.915,233.849,861.251,235.778z"/>
		<path style="fill:#17192D;" d="M926.921,177.05c1.254,0.481,2.122-0.193,3.086,0c-0.289,0.675-0.771,1.253-0.771,2.024
			c-0.385,1.061-1.736,1.254-2.508,2.025c-0.771,0.193-0.867,1.254-1.734,1.832c-2.025,1.254-3.857,2.604-5.883,4.051
			c-3.954,0.965-7.521,3.664-12.151,4.146c-3.567,1.64-8.196,1.543-12.15,1.64c-2.411,1.928-6.269,0.192-9.161,1.253
			c-1.446,0.193-2.314-0.385-3.471-0.385c-3.954,1.06-7.522-0.482-11.187-1.062c-2.604-1.157-5.401-1.446-7.907-2.796
			c-0.771-0.579-1.93-0.387-2.701-0.676c-3.086-2.025-6.654-3.279-9.449-5.496c-1.352-0.29-1.736-1.93-3.087-2.219
			c-0.481-0.675-1.446-1.254-0.867-2.699c-0.868-0.676-1.64-2.025,0-1.736c0.386-0.289,0.578-0.097,0.097,0.289
			c3.182,3.857,8.39,7.426,13.5,10.125c1.929,0,3.857,1.062,5.014,2.025c3.955,1.061,7.619,2.508,11.67,2.508
			c1.446,0,2.893,0.289,4.146-0.097c2.506,0.29,4.821,0.965,7.426,0.29c2.506-0.193,5.014-0.482,7.424-0.965
			c7.715-1.543,16.105-1.929,22.469-6.172c2.315-1.543,3.954-2.893,5.98-5.207c-0.29-0.482,1.253-0.386,0.964-1.061
			c-5.979,0.289-13.405,0.481-18.805,0.867c-2.411,1.061-5.208-0.192-7.812,0.193c-2.314,0.289-4.725-0.289-7.137-0.193
			c-1.156,0-2.217-0.192-3.277,0.193c-1.736-0.289-3.955,0.193-5.401-0.771c-0.674-0.579,0.868-0.482,1.062-0.868
			c1.543-0.579,3.086-0.771,4.822-0.097c1.35,0.193,2.699-0.675,3.953-0.675c3.568,0,6.654,0.964,9.064,0.675
			c0-0.289,1.157,0,2.121,0c0.676-0.193,1.351-0.193,1.736-0.096c2.121,0,3.472-0.387,5.4-0.098c3.471-0.867,7.811,0,10.607-0.771
			c0.867-0.193,0.771-0.097,1.639-0.193C925.089,176.857,925.764,176.375,926.921,177.05z"/>
		<path style="fill:#17192D;" d="M919.882,154.678c-0.289,2.025,0.096,3.76,0.771,5.4c-0.097,0.482-0.482,0.965-0.771,1.061
			c-1.254,1.832,1.157,5.111-2.025,6.075c-1.061,0.29-2.219-0.192-3.086,0.579c-3.375,1.253-4.436,0.289-7.715,0.578
			c-2.893,0.192-6.363-1.254-9.16,0c-1.543,0-2.798-0.578-4.147-0.771c-3.664,1.35-7.811-0.675-11.668,0.289
			c-2.797,0.193-5.015-0.964-7.812,0.29c-0.578,0.097-1.061,0.097-1.543,0.289c-5.689,0-11.572-0.579-17.165,0.096
			c-2.797,0-5.497-0.096-8.004-1.446c-0.481-0.385,0.097-0.965,0.578-1.156c0.675,0,1.64-0.193,2.701,0.674
			c2.024-0.867,3.856,0.098,5.593-0.289c1.447,0.387,3.086,0.482,4.629,0.098c3.278-1.93,6.75,0.289,10.125,0.191
			c3.279-0.096,6.559-1.35,9.934-0.965c3.471,0.482,7.521,0.773,11.089,0.387c1.157-0.387,2.508,0.193,3.567-0.192
			c1.062,0.192,2.508,0.097,3.473,0.771c1.35-0.191,2.989-0.482,4.339-0.867c0.772,0.385,1.929,0.289,2.604,0.482
			c3.664,0.289,4.436,0.771,7.811-0.386c2.219,0.771,1.35-1.543,3.279-2.025c1.253-0.481,0.578-1.062,0.578-1.735
			c-0.289-1.543,1.254-2.701,0.578-4.051c-0.481-1.254-0.097-2.893-1.061-4.243c-0.096-0.386-0.096-0.868,0.386-0.868
			C919.013,152.653,919.206,153.907,919.882,154.678z"/>
		<path style="fill:#17192D;" d="M859.129,137.61c1.446,0.193,2.411,1.64,4.05,1.64c3.086,1.542,5.979,2.313,9.74,2.507
			c0.578,0.289,1.543,0.386,2.218,0.579c2.122,0.192,4.05,1.157,6.075,1.157c1.254,0.386,2.989-0.289,4.146,1.254
			c1.543-0.387,2.699-0.772,3.664-1.254c0.387-0.771,1.447-1.736,1.351-2.797c0.675-1.061,0.097-1.928,0.578-3.279
			c0.579-1.832,0.579-2.893,1.544-4.82c0.482-0.387,0.964-0.772,1.543-0.676c0.385,0.964,0,2.121,0,3.279
			c-1.254,2.506-1.061,3.857-1.93,7.136c0.771,0.481,0.482,0.868,0.771,1.061c2.411,0.386,5.016,0.097,7.039-0.386
			c1.255,0.193,2.315-0.289,4.244-0.289c0.385-1.158,1.254-0.289,1.832-0.579c3.472-0.289,6.559-2.218,10.125-2.41
			c1.544-1.351,4.146-1.157,5.69-2.315c1.831,0.193,2.796-2.217,5.11-1.639c1.158-0.867,2.219-1.93,3.664-1.93
			c0.387,0.29,0.771,0.58,1.158,0.965c-0.193,1.446-1.833,1.543-2.893,2.314c-1.641,0.193-3.183,0.578-4.34,1.641
			c-2.122-0.098-3.375,1.734-5.4,1.639c-0.772,0.482-1.543,0.578-2.121,0.964c-0.771-0.097-1.447,0.192-2.026,0.482
			c-4.436,0-7.907,2.894-12.343,2.604c-0.578,0.386-1.639,0.386-2.219,0.481c-4.725,1.641-10.221,1.352-15.043,1.254
			c-2.218-0.578-4.918,0-6.847-0.964c-5.979-1.061-11.765-3.472-17.454-5.015c-2.7-1.061-5.208-2.699-7.715-4.05
			c-2.797-1.543-6.075-2.604-8.101-5.4c0-0.192,0-0.482,0.192-0.578C849.774,132.981,854.308,135.489,859.129,137.61z"/>
		<path style="fill:#17192D;" d="M924.8,119.192c0.289,0.097,0.482,0.193,0.675,0.387c-0.868,2.217-3.472,0.964-5.497,1.542
			c-1.735,0.29-3.375,0-5.111,0.097c-4.725,0.096-9.449-0.097-13.982,0c-2.41,0-5.593,0.193-8.1-0.097
			c-1.64-0.192-3.664,0-5.305,0.097c-3.953,0.385-7.715,0-11.861,0.289c-0.192-0.193-0.385-0.193-0.578-0.193
			c-1.736,0.868-3.664,0.098-5.303,0.387c-3.955,0.192-7.715,0.578-11.572,0.578c-2.7-1.157-5.498,0.578-8.293-0.097
			c-0.387-0.097,0.578-1.157,0.867-1.157c4.243-2.893,9.161,1.157,13.886-0.192c5.594-1.543,11.862-0.964,17.358-1.253
			c5.496-0.29,10.703,0.191,16.297,0c1.543-0.193,3.086-0.193,4.726-0.193c0.386,0,0.868,0.096,1.253,0.096
			c4.244-0.096,8.486-0.096,12.248-0.675C919.399,119.579,921.811,119.096,924.8,119.192z"/>
		<path style="fill:#17192D;" d="M932.418,98.266c1.254,1.061,0,0.965-0.192,1.352c-5.401,4.725-12.923,3.76-18.708,7.521
			c-4.147,1.543-8.583,2.121-12.634,3.085c-3.182,0.097-6.075,1.446-9.064,0.868c-0.964,0.771-2.41,0-3.471,0.387
			c-6.943,0-10.898-1.352-16.298-2.508c-1.832,0.192-3.761-0.386-5.207-1.641c-2.508,0.291-4.532-0.481-6.365-1.445
			c-4.436-1.639-8.871-3.375-12.054-6.461c0,0.096-0.579-0.193-0.29-0.387c0.772-0.481,1.64,0.387,2.411,0.771
			c4.533,0.387,7.426,3.666,11.477,4.63c1.831,0.964,3.857,0.964,5.593,1.639c7.425,1.929,12.343,3.568,20.153,3.664
			c0.098,0,0.289-0.674,0.289,0.097c6.655-0.386,12.344-1.928,18.42-2.604c6.172-1.929,12.343-4.146,18.516-6.075
			c1.639-1.06,3.567-1.929,5.688-2.7c0.579,0,1.64-1.061,1.929-0.675C932.707,97.785,933.382,97.785,932.418,98.266z"/>
		<path style="fill:#17192D;" d="M927.499,64.034c0.098,0.289,0.098,0.675,0,0.965c-0.578,0.289-0.964,0.385-1.735,0.578
			c-0.481,0.096-0.964,0.096-1.446,0.096c-1.736,0.386-2.796,0.579-4.629,1.157c-0.386,0.192-0.578,0.386-0.965,0.579
			c-0.481,0-0.675-0.098-1.156-0.098c-2.025-0.096-4.725,0.676-5.207,0.482c-4.822,0.869-4.146,1.254-9.644,1.544
			c-3.954,0.192-6.847,0.578-10.512,0.964c0,1.93-1.254,3.761-1.543,5.496c-0.096,0.965-0.192,1.447-0.386,2.411
			c-0.385,1.253-1.156,1.833-0.965,3.183c0,2.701,0.193,0.868-1.35,3.568c-0.193,0.289-0.289,0.675-1.35,2.121
			c2.314-0.193,3.086-0.386,4.146-0.578c1.446,0.965,4.05,0.096,6.365,0.192c6.074,0.29,11.861-0.578,17.357-0.289
			c5.111,0.192,10.125-0.771,14.658-0.289c0.096,0.289,0.096,0.675,0.096,1.06c-0.385,2.315-3.086,0.58-4.146,1.062
			c-4.822,0.385-9.258,0.385-14.658,0.385c-6.557,0.193-13.114-0.385-19.769,0.097c-4.532,0.386-8.485-0.289-12.632,0.482
			c-7.04-1.157-14.177,2.313-21.119,0.675c-1.736-0.097-3.473,0.578-5.208,0.096c-0.867-0.481-3.953-0.192-2.313-1.542
			c5.4-0.579,10.992,0.097,16.49-0.097c8.1-0.385,3.182-0.771,5.303-0.965c2.797-0.289,4.436-0.193,7.329-0.193
			c2.604,0,4.051,0.291,6.847,0c0.579-1.35,0.965-2.12,1.543-3.277c1.254-2.411,0.386,0.964,0.965-3.568
			c0.191-1.447,0.289-1.832,0.289-3.278c0-1.255,0.578-1.833,0.867-3.086c0.289-0.868,0.193-1.833,0.387-3.473
			c-1.254,0-1.641,0.097-2.219,0.097c-2.025-0.578-4.821,1.447-6.654-0.289c-2.313-0.192-3.568-0.386-5.496,0.386
			c-1.35-0.097-2.797-0.289-4.532-0.482c-0.386-0.192-0.964,0.289-1.351,0.289c-1.542,0.868-2.507-1.639-3.953-0.481
			c-0.676,0-1.351,0.675-2.025-0.289c-3.183,0.867-5.689,0.578-8.389-1.158c-0.869,0.387-1.254-0.191-1.641-0.674
			c-0.096-0.098-0.193-0.29-0.096-0.482c0.289-0.772,0.771,0.385,0.965,0.289c0,0,0.578,0.482,1.156-0.097
			c0.579-0.482,1.061,0.772,1.639,0.481c3.665,0.869,7.619,0.869,11.38,0.387c3.664,0.868,9.065,0,12.536,0.868
			c0.869-0.097,1.64-0.772,2.989,0c1.157-1.255,2.604-0.29,3.472-0.868c4.436-0.096,8.969-0.482,13.404-0.578
			c4.34,0,2.893-0.676,6.172-1.158c0.675,0.193,1.736-0.289,2.219,0.097c1.253-0.193,2.41-0.193,3.664-0.386
			c2.604-0.386,6.171-0.578,8.486-1.156c0.386,0.192,0.867-0.098,1.542-0.869c-0.386-0.867,0.675-0.385,0.675-0.578
			C924.414,63.455,925.86,64.418,927.499,64.034z"/>
		<path style="fill:#17192D;" d="M921.811,56.223c0.096,0.096,0.192,0,0.192,0.096c-1.736,0.387-3.472-0.289-5.014,0.387
			c-1.062,0.674-2.412,1.253-3.762,0.578c-0.096-0.675-0.385-1.447-0.192-2.314c0.192-0.387,0.482,0.096,0.771-0.193
			C916.7,53.908,919.399,54.872,921.811,56.223z"/>
	</g>
	<path style="fill:none;stroke:#17192D;stroke-width:3;" d="M2048,0"/>
	<path style="fill:none;stroke:#17192D;stroke-width:3;" d="M2048,1536"/>
	<path style="fill:none;stroke:#17192D;stroke-width:3;" d="M0,1536"/>
	<path style="fill:none;stroke:#17192D;stroke-width:3;" d="M0,0"/>
</g>
<g id="Layer_1">
</g>
</svg>
