<?xml version="1.0" encoding="iso-8859-1"?>
<!-- Generator: Adobe Illustrator 13.0.0, SVG Export Plug-In . SVG Version: 6.00 Build 14948)  -->
<!DOCTYPE svg PUBLIC "-//W3C//DTD SVG 1.1//EN" "http://www.w3.org/Graphics/SVG/1.1/DTD/svg11.dtd">
<svg version="1.1" id="btxt_x5F_" xmlns="http://www.w3.org/2000/svg" xmlns:xlink="http://www.w3.org/1999/xlink" x="0px" y="0px"
	 width="2048px" height="1536px" viewBox="0 0 2048 1536" style="enable-background:new 0 0 2048 1536;" xml:space="preserve">
<g id="btxta_x5F_1_1_">
	<g>
		<path style="fill:#FF0050;" d="M895.549,1463.715c3.762,0.289,7.619,1.156,11.668,1.639c4.92,0.578,10.03,1.158,14.659,3.474
			c2.411,2.41,5.399,3.664,7.328,6.846c0.29,1.736,1.543,1.447,0.965,3.568c0.097,0.289-0.192,0-0.192-0.386
			c-2.219,0.097-1.157-0.481-2.797-2.7c-2.508,0.771-4.34-0.386-6.172,0.387c-7.715-0.482-14.369,0-21.891,0.77
			c-1.832,0.869-4.146,0.869-6.268,0.58c-1.352-0.481-2.798,0.482-4.437,0.193c-5.016-0.291-10.608-0.291-15.527,0.385
			c-3.663-0.192-7.229,0-10.991,0.387c-1.447-0.291-3.086-0.771-5.111-0.192c-0.579,1.35-1.254,1.061-0.771,2.217
			c-0.191,0.193-0.386,0.482-0.675,0.676c-0.289-0.096-0.579,0-0.868-0.289c0.387-2.797,2.219-4.34,3.954-6.461
			c3.376-3.086,7.716-4.533,11.38-7.521c2.41-1.543,4.917-1.736,7.521-2.797c3.277-0.482,6.941-0.289,10.125-0.966
			C890.148,1464.197,892.752,1464.004,895.549,1463.715z M880.312,1466.125c-3.761-0.193-6.363,1.543-9.933,2.604
			c-0.192,0.193-1.061,1.062-1.543,1.353c-2.7,1.928-5.883,2.795-8.776,6.652c3.473-0.289,5.209,0.965,6.849,0.288
			c2.411,0.289,4.53-0.963,6.942-1.061c3.473,1.061,7.231,0.193,10.801,0.676c3.278,0.385,6.847-0.387,10.222-0.578
			c5.979-2.313,12.923-0.676,19.094-1.352c2.989,0,6.462-0.48,11.188,0.098c-1.832-3.856-5.111-4.533-7.329-5.787
			c-5.688-1.541-11.379-2.506-17.261-3.086c-1.158-0.19-2.604,0.291-3.664-0.385C891.596,1465.836,885.23,1464.004,880.312,1466.125
			z"/>
		<path style="fill:#FF0050;" d="M927.758,1445.586c-0.965,2.121-3.277,2.314-4.918,3.471c-2.218,1.158-4.629,2.314-7.137,2.604
			c-0.674,0.387-1.639,0.481-2.41,0.58c-6.461,1.155-12.729,3.76-19.479,3.953c-4.629,0.965-9.739,0.481-14.755,0.385
			c-4.146,0-9.45-1.156-13.597-2.988c-2.025-0.481-4.244-1.254-5.689-2.508c-2.123-0.578-3.762-2.121-5.594-3.277
			c-0.385-0.676-0.867-1.352-0.867-2.024c0-0.099-0.098-0.193-0.098-0.193c1.93,0.482,3.762,1.928,5.69,3.086
			c1.542,0.867,2.411,2.025,4.05,2.41c2.797,0.578,5.014,2.508,7.906,2.314c5.305,1.35,11.092,1.254,17.455,0.866
			c-0.965-2.217,0.676-3.084-0.097-4.436c0.097-0.578,0.193-0.965,0.385-1.351c0.291-0.289,0.482-0.578,0.869-0.289
			c0.192,0.193,0.289,0.289,0.481,0.482c-0.192,0.578,0.193,0.965,0.481,1.254c-0.288,1.254,0,2.506-0.191,4.049
			c4.725,0.482,7.907-0.866,11.765-1.061c1.641-0.771,4.146-0.963,6.171-1.543c1.833-0.578,4.052-0.578,5.786-1.639
			c1.446,0.192,3.087-0.289,4.243-1.736c2.508,0.098,4.436-1.736,7.329-2.314c0-0.771,0-0.481,0-0.481
			c0.481-0.193,1.445-1.252,2.604-0.867C928.047,1444.814,927.951,1445.199,927.758,1445.586z"/>
		<path style="fill:#FF0050;" d="M864.305,1417.621c1.062,0,2.604-0.096,3.762-0.193c2.797-1.735,7.137,0,10.414,0.387
			c2.025-1.157,5.4-0.481,7.522-0.676c3.085-0.771,7.136,0.193,10.704,0.193c6.268,0,13.5-0.193,19.768-0.482
			c0.965-0.096,1.93-0.676,2.797-0.289c0.097,0.097,0.193-0.098,0.289-0.098c-2.217,1.447-4.918,1.545-7.135,2.508
			c-3.183,2.797-6.848,4.244-10.223,6.365c-4.051,1.832-8.196,3.182-11.861,5.979c-1.156,0.578-2.219,1.255-3.375,1.832
			l-2.797,1.351l3.183,0.192c7.521,0.482,14.562-1.35,22.276-0.288c3.086,0,5.979-1.255,8.968-0.677c0.771-0.096,1.735,0,2.411,0
			c-0.097,0.193,0,0.58-0.097,0.677c-0.771,0-1.446,0.192-2.122,0.674c-0.771,0.387-1.734,0.387-2.604,0.58
			c-2.603,0.288-5.207-0.099-7.811,0.481c-7.039,0.191-13.888-0.676-20.733,0.096c-3.183-0.577-6.363,1.062-9.449,0.193
			c-2.025,0.482-4.63-0.578-6.173,0.578c-4.629-0.482-9.161-1.254-13.981-1.254c-1.062-0.385-2.7,0-3.184-1.156
			c-0.097-0.098,0.579-1.062,0.579-0.58c5.207-1.35,9.644,1.736,15.622,1.062c3.086-0.386,6.27,0,9.546-0.963
			c0.966-1.351,2.411-1.255,3.474-2.121c1.929-0.291,3.856-0.771,5.111-2.121c4.916-2.412,9.932-3.279,13.885-6.849
			c1.158-0.481,2.314-1.061,3.567-2.12c0-0.289,2.798-1.543,2.798-1.834c-0.097-0.191-2.989,0.481-2.989,0.098
			c-3.761,0-7.232-0.676-10.223,0.385c-5.399-1.35-10.993-1.444-16.779-0.19c-4.146-0.482-8.39-1.062-12.439-0.291
			c-3.375-1.445-7.136,1.545-10.222-1.156c-0.289-0.867-1.832-0.578-1.735-1.639
			C858.326,1415.691,861.123,1417.525,864.305,1417.621z"/>
		<path style="fill:#FF0050;" d="M930.458,1378.566c-7.618,3.375-14.175,7.811-20.829,12.246c-0.578,0.288-0.771,1.061-2.025,1.061
			c-3.086,3.086-6.942,3.375-9.738,6.172c-2.508,1.254-5.305,2.701-8.197,4.918c0.386,0.289,1.061,0.578,1.35,0.771
			c2.026,0.965,4.052,0.192,5.885,0.289c5.784,0.192,11.088-0.771,16.199-0.867c4.918,0,9.45-1.156,13.79-0.674
			c0.097,0.19,0.097,0.479,0.097,0.866c-0.289,2.22-2.797,0.675-3.857,1.062c-4.629,0.578-8.679,0.676-13.693,0.867
			c-6.172,0.387-12.246,0.098-18.419,0.771c-4.146,0.387-7.906,0-11.86,0.869c-6.559-0.771-13.21,2.604-19.77,1.254
			c-1.543,0-3.086,0.771-4.725,0.385c-0.676-0.481-3.761,0.097-2.219-1.35c5.016-0.771,10.223,0,15.333-0.676
			c7.715-0.289,15.911-0.771,21.602-5.689c0.964-0.289,1.735-0.965,2.41-1.446c2.411-1.445,5.015-2.507,7.04-4.627
			c2.025-0.677,3.856-1.834,5.496-2.99c2.893-2.894,6.75-3.953,9.933-6.172c0-0.386,0.29-0.289,0.482-0.386
			c0.868-0.387,1.544-1.157,2.604-1.93c0-0.385,2.797-0.963,2.699-1.254c-0.097-0.289-3.278-0.191-3.568-0.385
			c-4.436,0.965-9.932,1.35-15.043,1.832c-5.496,0.481-9.162,1.543-14.368,1.639c-1.833-0.385-4.436,1.447-6.269-0.096
			c-2.024,0-3.183-0.097-4.822,0.481c-1.444,0-2.893-0.192-4.628-0.192c-0.386-0.097-0.771,0.289-1.157,0.289
			c-1.64,1.061-2.508-1.447-3.761-0.289c-0.579,0.192-1.157,0.676-1.734-0.193c-3.086,0.869-5.498,0.387-8.103-1.061
			c-0.867,0.387-1.156-0.097-1.542-0.388c0-0.096,0-0.19,0-0.289c0.289-0.674,0.867,0.289,0.867,0.193c0,0,0.579,0.482,1.157-0.096
			c0.387-0.578,1.254,0.674,1.446,0.385c3.279,0.771,7.138,0.58,10.802,0.098c3.375,0.578,8.484-0.387,11.668,0.289
			c0.675-0.098,1.543-0.676,2.698-0.289c1.062-0.965,2.509-0.098,3.279-0.676c4.05-0.289,8.391-0.963,12.536-0.963
			c3.954-0.387,8.294-0.772,11.476-1.254c0.677,0.191,1.447-0.387,2.122,0.096c1.64-0.387,2.313-0.387,3.567-0.578
			c2.508-0.481,5.689-0.869,7.908-1.352c0.386,0,0.867-0.289,1.445-0.963c-0.481-0.869,0.578-0.482,0.676-0.482
			c0.867-0.387,2.313,0.385,3.761-0.098C930.458,1377.988,930.555,1378.277,930.458,1378.566z"/>
		<path style="fill:#FF0050;" d="M864.305,1325.529c1.062,0,2.604-0.099,3.762-0.193c2.797-1.736,7.137,0,10.414,0.385
			c2.025-1.155,5.4-0.481,7.522-0.674c3.085-0.771,7.136,0.191,10.704,0.191c6.268,0,13.5-0.191,19.768-0.48
			c0.965-0.098,1.93-0.676,2.797-0.289c0.097,0.097,0.193-0.098,0.289-0.098c-2.217,1.447-4.918,1.543-7.135,2.508
			c-3.183,2.797-6.848,4.242-10.223,6.365c-4.051,1.832-8.196,3.182-11.861,5.979c-1.156,0.577-2.219,1.254-3.375,1.832l-2.797,1.35
			l3.183,0.193c7.521,0.481,14.562-1.351,22.276-0.289c3.086,0,5.979-1.254,8.968-0.677c0.771-0.096,1.735,0,2.411,0
			c-0.097,0.193,0,0.578-0.097,0.677c-0.771,0-1.446,0.19-2.122,0.674c-0.771,0.387-1.734,0.387-2.604,0.578
			c-2.603,0.291-5.207-0.097-7.811,0.481c-7.039,0.193-13.888-0.674-20.733,0.099c-3.183-0.58-6.363,1.061-9.449,0.192
			c-2.025,0.48-4.63-0.58-6.173,0.578c-4.629-0.481-9.161-1.254-13.981-1.254c-1.062-0.387-2.7,0-3.184-1.158
			c-0.097-0.096,0.579-1.061,0.579-0.578c5.207-1.35,9.644,1.736,15.622,1.062c3.086-0.385,6.27,0,9.546-0.963
			c0.966-1.353,2.411-1.254,3.474-2.123c1.929-0.289,3.856-0.771,5.111-2.121c4.916-2.41,9.932-3.279,13.885-6.846
			c1.158-0.482,2.314-1.062,3.567-2.123c0-0.289,2.798-1.543,2.798-1.832c-0.097-0.191-2.989,0.481-2.989,0.098
			c-3.761,0-7.232-0.676-10.223,0.385c-5.399-1.35-10.993-1.444-16.779-0.192c-4.146-0.48-8.39-1.062-12.439-0.289
			c-3.375-1.445-7.136,1.543-10.222-1.156c-0.289-0.869-1.832-0.58-1.735-1.641C858.326,1323.6,861.123,1325.432,864.305,1325.529z"
			/>
		<path style="fill:#FF0050;" d="M927.275,1312.029c0.289,0.096,0.481,0.19,0.676,0.385c-0.869,2.219-3.473,0.965-5.497,1.543
			c-1.735,0.291-3.376,0-5.11,0.098c-4.726,0.097-9.451-0.098-13.982,0c-2.411,0-5.594,0.193-8.102-0.098
			c-1.639-0.191-3.664,0-5.304,0.098c-3.953,0.386-7.714,0-11.86,0.289c-0.192-0.192-0.387-0.192-0.578-0.192
			c-1.736,0.866-3.666,0.098-5.305,0.387c-3.954,0.19-7.715,0.578-11.572,0.578c-2.698-1.158-5.496,0.578-8.293-0.099
			c-0.386-0.096,0.578-1.155,0.867-1.155c4.244-2.894,9.162,1.155,13.887-0.193c5.595-1.543,11.861-0.965,17.357-1.254
			c5.497-0.289,10.704,0.192,16.299,0c1.542-0.193,3.084-0.193,4.726-0.193c0.386,0,0.866,0.099,1.253,0.099
			c4.242-0.099,8.484-0.099,12.247-0.677C921.876,1312.414,924.287,1311.932,927.275,1312.029z"/>
		<path style="fill:#FF0050;" d="M934.895,1291.104c1.255,1.062,0,0.966-0.192,1.351c-5.4,4.727-12.922,3.762-18.707,7.522
			c-4.148,1.543-8.584,2.121-12.634,3.084c-3.184,0.099-6.075,1.447-9.064,0.869c-0.964,0.771-2.411,0-3.472,0.387
			c-6.943,0-10.897-1.352-16.297-2.508c-1.832,0.191-3.761-0.387-5.207-1.641c-2.509,0.291-4.533-0.482-6.365-1.447
			c-4.437-1.637-8.871-3.373-12.054-6.459c0,0.096-0.579-0.193-0.29-0.387c0.771-0.482,1.64,0.387,2.409,0.771
			c4.533,0.386,7.427,3.664,11.478,4.63c1.832,0.965,3.856,0.965,5.594,1.639c7.425,1.93,12.343,3.568,20.154,3.664
			c0.096,0,0.289-0.674,0.289,0.098c6.653-0.387,12.343-1.93,18.418-2.604c6.172-1.931,12.344-4.146,18.516-6.076
			c1.641-1.062,3.568-1.928,5.689-2.699c0.578,0,1.639-1.061,1.928-0.676C935.184,1290.621,935.859,1290.621,934.895,1291.104z"/>
		<path style="fill:#FF0050;" d="M922.84,1260.729c-1.156,0.867-2.699,1.445-3.856,2.41c-4.727,1.351-9.837,2.604-14.947,2.604
			c-3.664,0.578-7.426,1.35-10.992,2.219c-1.93-0.192-4.146-0.58-6.365-0.098c-0.289,0.771-0.289,1.062-1.446,1.35
			c1.062,2.797,3.278,4.728,4.34,6.752c0.579,0.289,1.156,1.062,0.965,1.734c-0.386,1.157,0.191,1.157,0.867,1.832
			c0.867,0,1.641,0.098,2.411,0.481c2.023-0.674,3.567-0.674,5.206-0.096c1.834,1.062,3.375,0.289,5.401,0
			c3.857-0.578,7.521-1.447,11.476-1.641c3.086-0.096,6.172-0.096,9.45-0.096c0.289,0.096,0.578,0.192,0.481,0.481
			c0,0.289-0.386,0.578-0.675,0.676c-4.822,0.289-9.451,0.482-13.693,1.832c-3.182-0.096-5.786,0.867-8.774,0.578
			c-7.138-0.674-14.658,0-21.408,0.867c-2.989-0.674-5.306,0.58-8.197,0.387c-7.521-0.58-15.332-0.58-21.986-2.797
			c-0.965-0.289-0.481-1.061-0.965-1.735c0.098-0.289,0.579,0,0.771-0.097c2.313,0.482,4.34,1.543,6.653,1.447
			c0.097,0.096,0.097,0.096,0.193,0.191c3.953-0.191,7.617,1.062,11.09,0.866c2.603,1.447,5.496-0.385,8.293,0.099
			c3.568,0.578,6.558-0.677,10.028-1.156c0.481-0.387,1.156-0.772,1.833-1.545c-1.158-3.086-4.728-5.015-5.111-7.521
			c0.482,0-0.675-0.771-0.192-2.312c-2.988-0.869-5.399,0.287-7.617-0.773c-1.832-0.481-3.665,0.482-5.594-0.578
			c-2.604,1.255-4.919,0.097-7.426,0.289c-1.445-1.252-2.025,1.254-3.761,0.099c-1.641,0.481-3.856,0.771-5.207,0
			c0.096-0.388,0.096-0.677,0-1.062c1.445-0.869,3.471,0.289,4.917-0.869c2.122-0.192,3.665,0.965,5.786,0.58
			c6.172-1.158,13.019,0.191,19.287-0.192c4.34-0.193,9.063,0.481,13.211-0.966c6.557-1.061,13.403-1.93,19.576-3.182
			c1.542-0.965,3.375-2.025,5.304-1.93C922.454,1260.148,922.743,1260.342,922.84,1260.729z"/>
		<path style="fill:#FF0050;" d="M845.018,1233.051c0.193,1.642,0.869,2.797,1.158,4.533c-0.578,2.604-0.096,4.918,0.868,8.1
			c1.351-0.674,2.313-0.481,2.796-0.289c1.833-0.192,4.146,0.289,5.979,0.193c1.734-0.387,3.855-0.578,5.593-0.578
			c2.7-1.352,6.075-1.735,8.775-2.313c1.543,0.385,3.375,0,4.82,0.19c6.559,0,13.309-1.639,19.479-2.506
			c1.157,0.096,2.894-0.192,3.954,0.096c0.191-0.096,0.675-0.096,0.771-0.192c4.821-0.193,8.679-0.289,13.501-0.289
			c2.217,0,4.146,0.387,6.171,0.482h-0.097c-2.506,1.832-5.979,1.155-8.679,1.735c-3.953-0.965-8.101,1.062-12.344-0.58
			c-2.508,2.604-5.497,0.58-8.101,1.447c-2.411-0.289-5.304-0.193-7.329,1.062c-0.965-0.097-1.832,0.288-3.183-0.193
			c-2.313,1.353-5.206,0.676-7.618,0.676c-3.953-0.866-7.136,1.736-10.896,1.254c-2.698,1.351-5.786,1.156-8.872,1.156
			c-0.964-1.061-2.507-0.096-4.436-2.217c-0.675,4.242-0.289,6.75-0.482,9.354c0.482,2.025-0.289,4.244,0,6.462
			c-0.097,0.098-0.097,0.192-0.191,0.288c-0.771-0.096-0.965-0.965-1.254-1.543c0.578-1.928,0.481-3.856,0-5.784
			c-0.388-0.482,0-1.351,0.096-2.314c-1.061-1.447-0.193-3.568-0.964-4.918c0.481-1.543-0.193-3.184-0.097-4.727
			c-0.867-1.543,0.289-3.566-0.578-5.109c0-1.35-1.832-2.701-0.289-3.762c0.097-0.097,0.289-0.193,0.48-0.289
			C844.439,1232.568,844.922,1232.666,845.018,1233.051z"/>
		<path style="fill:#FF0050;" d="M915.414,1216.658c3.762,0.963,6.462,4.146,10.223,5.303c0.578,1.061,1.832,1.641,2.41,2.701
			c-0.867,0.289-1.832-0.58-2.604-0.965c-0.676-0.676-1.351-1.062-2.314-1.158c-2.121-1.543-5.015-2.217-7.232-3.953
			c-1.64-0.578-4.051-0.771-5.882-1.639c-3.278-0.193-6.558-0.193-9.739,0.385c-3.086,0.58-6.075,1.832-8.486,3.955
			c-3.184,1.541-6.848,2.699-10.317,3.471c-5.399,2.701-12.248,2.41-17.841,0.193c-3.278,0-5.109-2.797-8.101-3.183
			c-0.867-0.676-1.64-1.352-2.699-1.735c-0.579-0.482-0.29-1.254-0.772-1.931c0-0.19-0.385,0.099-0.191,0.193
			c1.35,0.096,2.797,0.676,3.954,1.254c5.109,3.953,11.956,4.146,18.13,5.496c4.339-0.193,7.906-2.219,12.054-3.182
			c2.603-1.642,5.882-2.22,8.485-3.857c1.93-0.193,3.472-2.41,5.496-1.93c4.34-1.543,9.45-1.543,13.599,0
			C914.161,1216.367,914.739,1216.561,915.414,1216.658z"/>
		<path style="fill:#FF0050;" d="M883.013,1152.049c6.462,2.314,13.309,1.639,19.479,4.242c6.365,2.699,13.309,3.857,19.865,5.979
			c0.192,0.193,0.481,0.482,0.676,0.771c-2.122,0.869-4.919-0.867-7.426-0.578c-7.619-0.578-14.754,1.928-22.759,2.988l-0.387,1.735
			c8.68,1.736,16.008,5.4,24.012,6.943c0.29,0.193,0.772,0.289,1.062,0.482c1.735,0.096,3.856-1.062,5.11-0.097
			c-0.097,0.674-0.771,0.963-1.445,1.156c-1.543-0.193-2.701,0.867-4.146,1.254c-8.584-0.387-16.201,1.445-24.881,2.025
			c-10.703,0.771-21.312,1.543-31.438,1.445c-5.303,0.771-9.354,0.965-13.5,0.481c-0.387-0.192-1.156,0-1.543-0.096
			c0.289-0.193,0.578-0.482,0.867-0.771c3.184-0.676,5.979-0.676,9.354-0.965c14.658-1.155,30.763,0.099,45.807-2.41
			c2.7-0.481,5.399-0.288,8.293-0.577c1.93-0.677,1.061-2.604-0.386-2.22c-6.269-3.086-13.887-3.567-20.154-5.883
			c-1.157-0.385-2.989-0.096-3.472-1.254c0.192-0.385,0.578-0.578,0.964-0.771c6.559-2.12,13.693-2.893,23.529-5.399
			c-6.074-2.217-9.643-2.604-12.439-4.242c-7.039,0-11.86-2.893-18.9-2.893c-5.399-2.025-11.766-1.158-17.165-3.474
			c-4.437-0.096-8.101-1.061-13.308-1.928c-0.098,0-0.387,0-0.482-0.098c0.097-0.191,0.193-0.386,0.29-0.675
			c0.771,0,1.254-0.387,1.639-0.577C861.025,1147.516,872.02,1150.602,883.013,1152.049z"/>
		<path style="fill:#FF0050;" d="M923.707,1116.561c0.771,0.388,1.544,0,2.411,0.193c0.675,0,1.157,0.193,1.737,0.578
			c0.096,0.482-0.482,0.867-0.773,1.35c-0.674,0.869-1.445-0.481-1.639-0.481c-0.192-0.386-1.156,0.481-2.121-0.963
			c-1.93,0.577-3.664,0.577-5.016,0.19c-2.699,0.291-5.688-0.479-8.293,0.58c-1.062,0.096-1.64,1.35-2.122,1.928
			c-0.096,0-0.481,1.158-1.35,1.543c-1.254,1.158-3.086,2.99-3.665,3.474c-0.482,0.479,0-0.58-0.867,0.385
			c-0.481,0.385-0.289,0.578-0.964,1.641c-0.869,1.06-2.604,2.892-2.99,3.373c-0.577,1.158-1.155,2.509-1.831,4.052
			c2.023,1.35,4.051,0.965,5.399,1.832c1.735,0.098,3.857,0.481,5.689,0.965c1.061-0.867,1.831,0.192,2.604,0.192
			c1.062,0.578,2.7,0.482,3.954,1.062c2.411,0.385,4.531,1.832,7.232,1.35c0.964,0.193,2.119,0.578,3.085,0.869
			c-0.097,0.191-0.191,0.385-0.386,0.385c-1.64,0.289-3.086-0.578-4.533-0.481c-0.386-0.289-0.675-0.386-1.061-0.289
			c-0.771-0.096-1.543-0.289-2.217-0.289c-1.544-0.482-2.604,0.385-5.112-1.254c0,1.447,0.192,0.578,0.192,0.578
			c-1.445-0.386-3.471-0.963-5.399-0.867c-1.157-0.771-2.604-0.482-3.761-0.771c-2.7-0.289-4.532-1.351-7.137-1.158
			c0,0-0.096-0.096-0.192-0.096c-0.771-0.482-1.64-0.193-2.122-0.677c-5.882-1.639-11.861-3.276-17.743-4.918
			c-1.351-0.674-2.507-0.965-3.952-1.543c-1.93-0.674-3.763-1.832-5.786-2.604c-2.025-0.771-3.955-2.025-6.27-2.699
			c-0.579-0.289-1.544,0.191-1.544-0.771c0-0.289-0.289-0.966-0.096-1.062c0.676-1.062,2.604-1.062,3.568-1.543
			c2.313-0.193,5.594-0.676,8.389-1.254c1.062-1.254,2.701-0.289,3.955-0.771c4.725,0.193,9.644-2.219,15.043-1.543
			c6.847-1.061,14.465-1.639,20.926-1.061C913.872,1116.367,918.789,1115.885,923.707,1116.561z M894.488,1118.199
			c-1.254-0.48-3.183,0.676-5.11,0.289c-2.313-0.386-4.821,0.387-7.136,0.772c-2.219-0.387-3.954,0.963-6.172,0.771
			c-1.446,0.192-3.857,0.192-5.786,0.58c-3.183,0.577-6.075,1.444-9.74,1.733c1.446,1.642,4.05,2.797,4.437,2.896
			c2.024,0.674,3.664,1.832,5.496,2.41c2.797,0.965,5.207,1.928,7.812,2.698c1.831,0.482,4.243,1.062,5.882,1.353
			c1.833-0.099,4.437,1.543,6.943,1.928c1.446,0.193,0.771,0.869,2.797,0.289c0.771-1.832,1.928-3.086,2.604-4.725
			c0.868-1.158,1.352-1.255,2.604-2.604c0.867-0.869,1.736-2.219,2.7-3.471c0.868-0.965,2.023-2.025,2.604-2.701
			c0-0.193,1.156-1.447,1.156-2.219c-1.351-0.289-2.894-0.289-3.761-0.386C899.214,1117.428,897.189,1117.814,894.488,1118.199z"/>
		<path style="fill:#FF0050;" d="M911.172,1093.223c-0.193-0.096,0.867-0.289,1.254-0.19c0.289,0,0.676,0,0.771,0
			c0.578,0.19,1.35,0.481,1.928,0.385c1.35,0.58,2.7,0.289,3.857,0.869c2.313,1.061,5.399,2.024,7.907,4.146
			c1.544,1.64,3.567,2.314,5.111,3.761c0.289,0.866,0.674,1.254,0.481,2.024c-1.545,0.099-2.314-2.121-3.762-2.699
			c-1.061-0.965-2.604-1.254-3.472-2.508c-0.192-0.098-0.579-0.481-0.771-0.578c-0.192-0.098-0.29-0.289-0.29-0.289
			c-0.097,0-0.482-0.192-0.482-0.291c-0.867-0.866-1.156-0.963-1.156-0.577c-0.675-0.193-1.157-0.675-1.832-0.578
			c-0.288-0.097-0.577-0.289-0.771-0.578c-1.158,0.192-1.447-0.387-2.025-0.482c-1.061-0.578-2.701,0-3.856-0.387
			c-0.578,0.098-1.062-0.482-1.736-0.385c-2.313-0.677-3.277-0.099-5.785,0.096c-3.183,1.158-3.278,0.869-5.304,1.641
			c-1.544,0.578-2.411,0.771-3.857,1.445c-1.445,0.675-2.024,1.447-3.472,2.123c-1.35,0.578-2.219,0.385-3.472,0.867
			c-1.446,0.578-2.315,1.254-3.664,1.832c-1.352,0.674-2.411,0.965-3.954,1.639c-1.447,0.869-2.219,1.736-3.954,2.219
			c-0.48,0-1.157,0.097-1.64,0.097c-0.482-0.097-1.062,0.096-1.351,0.096c-0.289,0.098-0.771-0.096-1.061-0.191
			c-1.736,0.578-2.701-0.578-4.532-0.387c-1.736-0.48-3.472-0.674-5.497-1.35c-1.929-1.062-4.436-1.543-6.557-2.988
			c-2.219-1.158-4.437-2.896-6.076-5.016c-0.192-0.289-0.964-1.062-0.289-0.966c1.736,0.771,3.279,2.509,5.111,3.185
			c4.918,3.086,10.027,4.918,15.139,5.399c0.58,0.289,1.254,0,1.93,0.289c0.965,0,2.314,0.289,3.375,0.097
			c3.472,0.387,2.699-1.156,4.146-1.736c1.543-0.578,2.508-0.482,3.856-1.156c0.966-0.578,1.446-1.254,2.604-1.736
			c0.965-0.577,1.64-1.061,2.894-1.254c2.894-0.289,2.989-0.866,4.437-2.121c0.675-0.385,1.062-0.866,1.833-1.155
			c0.675-0.58,1.253-0.291,2.121-0.58c1.155-0.289,1.735-0.674,2.893-1.062c1.062-0.385,2.219-0.866,2.797-0.866
			c2.024-0.867,3.183-0.289,5.11-0.482C910.689,1092.838,911.268,1093.223,911.172,1093.223z"/>
		<path style="fill:#FF0050;" d="M927.275,1054.65c0.289,0.096,0.481,0.192,0.676,0.387c-0.869,2.217-3.473,0.963-5.497,1.541
			c-1.735,0.291-3.376,0-5.11,0.098c-4.726,0.096-9.451-0.098-13.982,0c-2.411,0-5.594,0.193-8.102-0.098
			c-1.639-0.191-3.664,0-5.304,0.098c-3.953,0.385-7.714,0-11.86,0.289c-0.192-0.193-0.387-0.193-0.578-0.193
			c-1.736,0.867-3.666,0.099-5.305,0.386c-3.954,0.194-7.715,0.58-11.572,0.58c-2.698-1.158-5.496,0.577-8.293-0.099
			c-0.386-0.096,0.578-1.156,0.867-1.156c4.244-2.893,9.162,1.156,13.887-0.192c5.595-1.543,11.861-0.963,17.357-1.252
			c5.497-0.291,10.704,0.19,16.299,0c1.542-0.193,3.084-0.193,4.726-0.193c0.386,0,0.866,0.097,1.253,0.097
			c4.242-0.097,8.484-0.097,12.247-0.677C921.876,1055.037,924.287,1054.555,927.275,1054.65z"/>
		<path style="fill:#FF0050;" d="M864.305,1027.264c1.062,0,2.604-0.096,3.762-0.19c2.797-1.736,7.137,0,10.414,0.385
			c2.025-1.156,5.4-0.482,7.522-0.676c3.085-0.771,7.136,0.192,10.704,0.192c6.268,0,13.5-0.192,19.768-0.481
			c0.965-0.097,1.93-0.674,2.797-0.289c0.097,0.098,0.193-0.096,0.289-0.096c-2.217,1.446-4.918,1.543-7.135,2.508
			c-3.183,2.795-6.848,4.242-10.223,6.363c-4.051,1.832-8.196,3.184-11.861,5.979c-1.156,0.58-2.219,1.254-3.375,1.832l-2.797,1.353
			l3.183,0.19c7.521,0.482,14.562-1.35,22.276-0.289c3.086,0,5.979-1.254,8.968-0.674c0.771-0.098,1.735,0,2.411,0
			c-0.097,0.193,0,0.578-0.097,0.674c-0.771,0-1.446,0.193-2.122,0.677c-0.771,0.387-1.734,0.387-2.604,0.578
			c-2.603,0.288-5.207-0.097-7.811,0.481c-7.039,0.193-13.888-0.674-20.733,0.099c-3.183-0.58-6.363,1.061-9.449,0.19
			c-2.025,0.482-4.63-0.578-6.173,0.578c-4.629-0.479-9.161-1.252-13.981-1.252c-1.062-0.387-2.7,0-3.184-1.158
			c-0.097-0.096,0.579-1.061,0.579-0.578c5.207-1.35,9.644,1.736,15.622,1.062c3.086-0.387,6.27,0,9.546-0.965
			c0.966-1.351,2.411-1.254,3.474-2.121c1.929-0.289,3.856-0.771,5.111-2.121c4.916-2.412,9.932-3.279,13.885-6.848
			c1.158-0.482,2.314-1.062,3.567-2.121c0-0.289,2.798-1.543,2.798-1.832c-0.097-0.193-2.989,0.481-2.989,0.096
			c-3.761,0-7.232-0.674-10.223,0.387c-5.399-1.35-10.993-1.447-16.779-0.192c-4.146-0.482-8.39-1.062-12.439-0.289
			c-3.375-1.447-7.136,1.543-10.222-1.156c-0.289-0.869-1.832-0.58-1.735-1.641C858.326,1025.336,861.123,1027.168,864.305,1027.264
			z"/>
		<path style="fill:#FF0050;" d="M852.637,967.09c5.689,0.291,11.09,2.316,16.685,4.051c3.856,0.578,8.1,0.867,11.569,2.412
			c3.955,0.386,7.33,1.252,11.379,1.445c2.123,0.096,4.341-0.385,5.979,0.771c4.532,0.965,9.065,1.834,13.308,3.375
			c4.438,2.313,10.029,1.641,14.369,4.725l-0.289-0.385c-7.137,1.93-14.176,3.856-21.506,4.725
			c-4.628-1.156-8.968,0.965-13.691,0.58c-8.196,1.543-16.2,1.832-24.302,2.699c-1.929-0.771-4.146,0.192-6.172,0.578
			c-1.157,0.192-2.7,0.098-3.665-0.578c0.289-1.929,3.184-0.578,4.34-1.062c5.689,0.578,10.993-2.024,16.49-1.543
			c2.796-0.096,5.305-0.096,8.293-0.578c0.387-0.481,0.771-0.481,1.062-0.58c5.784-0.481,12.247-0.866,17.744-1.252
			c4.051-1.641,8.39-2.313,12.922-2.797l0.097-1.35c-8.39-2.797-17.069-5.017-25.939-6.076c-4.438,0.193-8.197-0.867-12.151-1.447
			c-5.979-2.797-13.499-1.444-19.189-4.725c-3.665,0-7.329-2.025-10.802-2.508c-0.096,0,0.291-0.482,0.676-0.771
			C850.805,966.705,851.673,967.572,852.637,967.09z"/>
		<path style="fill:#FF0050;" d="M930.265,930.832c2.411,0.289,4.052-0.289,4.63,0.869c0,0.096-0.098,0.289-0.098,0.385
			c-3.568,2.025-8.195,1.158-12.343,2.314c-7.329,1.061-14.851,1.641-21.601,3.375c-1.544,2.123-3.279,5.016-2.22,7.812
			c0.097,0.096-0.289,0-0.675,0.674c0.675,0.966-0.386,1.351-0.386,2.121c-0.386,1.832-0.192,4.148-0.966,7.33
			c5.595,1.254,10.897,1.156,15.527,2.41c3.375,0.965,8.1-0.578,11.475,1.158c1.255,0,2.798-0.193,3.664,0.867
			c0.193,0.481-0.675,0.481-1.061,0.481c-3.954-0.676-6.943-0.385-10.703-0.867c-4.438-1.93-11.188-0.291-16.009-2.219
			c-1.735,0-4.437,0.482-5.786-0.482c-4.531-1.061-9.933,0.289-14.176-1.735c-7.907,0.289-14.465-2.988-22.564-2.988
			c-0.387-0.387-0.387-1.061-1.254-1.158c-2.313-0.771-5.304,0.677-6.75-1.254c0.578-1.061,2.121-0.578,3.278-1.444
			c9.739-2.123,18.708-6.365,28.64-8.197c2.797-1.351,6.27-1.736,9.355-2.99c1.061-0.096,2.121-0.287,3.086,0.098
			c1.928-0.58,4.05-1.254,6.171-1.254c4.532-0.096,8.583-2.219,13.308-1.832c1.446-0.869,3.664-0.192,5.208-0.676
			c2.989-0.289,6.075-1.061,8.872-1.832c0.578-0.289,0.867-0.481,0.965-0.676c0.867-0.385,0.963-0.385,1.64-0.289
			C929.494,930.93,930.265,930.641,930.265,930.832z M893.812,938.645c-4.82,2.121-10.414,2.121-15.429,3.566
			c-5.883,1.641-11.38,4.918-18.033,6.172c0,1.642,0.675,2.219,1.832,2.314c2.699,0.965,5.207,2.024,8.293,2.412
			c5.689,0.771,12.345,0.289,17.744,1.639c1.446,0,3.567,0,5.496,0.578c0.965-1.156,1.062-2.312,1.929-2.894
			c0-1.155,0.29-2.024,0.387-2.893c0.192-1.447,0.192-2.797,0.481-3.857c0.482-1.832,0.771-2.508,0.966-4.051
			C900.082,937.102,895.549,938.74,893.812,938.645z"/>
		<path style="fill:#FF0050;" d="M922.357,909.135c-0.289,2.025,0.097,3.76,0.771,5.4c-0.096,0.481-0.481,0.965-0.771,1.061
			c-1.254,1.832,1.157,5.111-2.025,6.076c-1.061,0.289-2.218-0.193-3.085,0.578c-3.375,1.254-4.438,0.289-7.715,0.578
			c-2.895,0.193-6.364-1.254-9.161,0c-1.543,0-2.797-0.578-4.146-0.771c-3.664,1.351-7.811-0.674-11.668,0.289
			c-2.797,0.193-5.016-0.963-7.812,0.291c-0.578,0.097-1.062,0.097-1.542,0.287c-5.69,0-11.572-0.578-17.165,0.099
			c-2.797,0-5.497-0.099-8.004-1.447c-0.482-0.385,0.096-0.965,0.577-1.156c0.677,0,1.641-0.193,2.701,0.674
			c2.024-0.867,3.855,0.099,5.594-0.289c1.445,0.388,3.085,0.482,4.628,0.099c3.278-1.931,6.751,0.289,10.126,0.19
			c3.277-0.096,6.558-1.35,9.933-0.963c3.472,0.48,7.521,0.771,11.09,0.385c1.156-0.385,2.509,0.193,3.567-0.192
			c1.062,0.192,2.509,0.098,3.473,0.771c1.35-0.19,2.989-0.481,4.339-0.867c0.771,0.386,1.929,0.289,2.604,0.482
			c3.664,0.289,4.437,0.771,7.811-0.387c2.219,0.771,1.352-1.541,3.279-2.023c1.254-0.481,0.578-1.062,0.578-1.736
			c-0.289-1.543,1.254-2.7,0.579-4.051c-0.481-1.254-0.097-2.893-1.062-4.242c-0.096-0.387-0.096-0.868,0.388-0.868
			C921.49,907.109,921.683,908.363,922.357,909.135z"/>
		<path style="fill:#FF0050;" d="M897.864,878.662c3.566-0.289,6.267,1.158,9.546,1.928c0.676,0.58,1.351,0.58,1.351,0.482
			c0.192,0.098,1.446,0.387,2.507,0.965l0.289,0.098c1.447,0.771,1.545,0.674,2.604,0.771c1.735,1.156,3.953,1.35,5.399,2.41
			c2.894,2.12,7.137,4.146,9.739,7.231c1.832,2.314,3.665,3.568,5.304,5.883c0.098,0.578,0.481,1.156,0.098,1.832
			c-0.771,0-0.289,0.674-1.446-1.061l-0.192-0.388c-1.061,0.289-1.93,0.771-2.604,0.966c-1.64,0-4.146,0-5.882,0.192
			c-1.061-0.289-2.797,0.386-3.762,0c-4.82,0.289-11.09,0.48-16.394,0.097c-1.254,0.577-2.99,0.192-4.146,0.096
			c-5.017-0.289-9.549-1.83-14.08-1.35c-3.086-0.097-6.751,0.868-10.029-0.386c-2.314,0.289-5.979-0.291-7.811-0.192
			c-0.098,0-0.193,0.192-0.29,0.289c-4.726-0.578-10.8,0.192-15.333-0.289c-0.481-0.193-0.867-0.867-0.192-0.966
			c9.259-0.771,20.927-0.866,30.666-0.096c2.218-0.192,5.593,0.289,7.907-0.098c0.097,0.098,0.192,0.192,0.289,0.291
			c3.567,0,6.462,0.674,10.126,1.061c0.386-0.291,0.771-0.096,1.061,0.097c5.399,0.288,13.019-0.482,18.226-0.097
			c2.894-1.352,5.979,0.771,8.775-0.676c0.289-0.482,0.289,0.965,2.219-0.385c-0.58-0.193-1.157-1.158-0.869-1.158
			c-0.771-1.543-2.987-1.35-4.049-4.436c-0.578,0.577-0.387-0.289-0.867-0.289c0,0-0.482-0.289-0.676-0.386
			c-0.097-0.098-0.481-0.194-0.481-0.965c-0.965,0-1.158-0.291-1.447-0.098c-0.964-0.386-0.964-1.736-2.121-1.736
			c-0.481-0.19-1.155-0.385-1.446-0.77c-1.156-0.289-1.64-1.447-2.699-1.642c-1.543-1.061-3.857-0.867-5.111-1.736
			c-1.061,0-1.157-0.866-2.41-0.963c-3.376-1.832-7.812-1.832-11.38-2.604c-5.206,0-9.933-1.06-15.236,0
			c-1.734,0-3.277,0.676-4.82,0.965c-0.867,0.58-1.931,0.387-2.798,0.869c-7.136,2.217-14.368,5.111-20.539,10.027
			c-2.508,1.254-3.762,3.856-6.364,5.11c-0.579,0.388-0.193-0.481,0-0.771c1.929-2.604,4.531-5.4,7.231-7.424
			c2.604-1.931,6.076-3.375,8.97-5.111c2.603-1.158,5.399-1.93,7.616-2.894c2.798-0.192,3.375-1.93,6.27-1.641
			c0.578-0.096,1.061-0.482,2.122-0.385c0.481-0.387,0.867-0.193,1.543-0.482c0.867,0,1.832,0,2.893-0.289
			C888.992,878.373,893.812,877.795,897.864,878.662z"/>
		<path style="fill:#FF0050;" d="M918.02,857.93c-3.473,2.508-7.908,2.121-11.092,4.82c-1.253,0.387-2.604,1.062-3.664,1.736
			c-2.987-0.097-6.074,1.832-10.125,3.664c2.604,1.062,4.532,0.771,5.883,0.387c5.689,0,10.705-0.965,16.683-0.096
			c1.641,0,3.664-0.482,5.11,0.19c2.798,0.099,6.076-0.674,8.486,0.676c0.098,0.097,0.098,0.097,0.193,0.193
			c-2.025,0.578-4.629,0.385-6.654,0.289c-1.734-0.482-3.568,0.193-5.496,0.193c-3.761,0.096-7.715-1.255-11.091,0.385
			c-3.085,0.387-5.978-1.062-8.968,0c-2.7,0.867-5.4-0.482-7.907,0.771c-4.63-0.771-10.606,0.097-15.622-0.771
			c-5.689,0-11.476,0.387-17.068-0.578c-3.086-0.096-4.34-0.676-7.231-1.254c-0.099,0,0.481-0.676,0.481-0.867
			c3.084-1.832,4.146-2.412,7.425-3.666c4.532-1.832,9.354-1.445,13.887-2.699c6.365,0.097,12.633,0.966,17.262,7.039
			c8.486-5.11,17.552-5.688,25.747-10.125c3.665-1.158,7.04-2.989,10.705-4.146c0.578,0,1.542-0.388,2.219-0.193
			C924.189,855.615,921.104,856.965,918.02,857.93z M863.727,864.295c-1.254,0.385-2.797-0.098-3.953,0.674
			c-1.543-0.192-2.989,0.676-4.243,1.158l-2.314,1.639c0.869,0.097,4.244,0.386,5.208,0.578c1.253,1.254,3.473,0.676,5.016,1.062
			c7.136-0.963,15.14,0.192,23.722-0.191c-1.253-1.543-2.507-1.93-3.183-2.604c-1.35-1.351-5.11-2.795-7.617-3.857
			C872.02,863.33,867.391,862.365,863.727,864.295z"/>
		<path style="fill:#FF0050;" d="M930.265,818.873c2.411,0.289,4.052-0.289,4.63,0.869c0,0.096-0.098,0.289-0.098,0.385
			c-3.568,2.025-8.195,1.158-12.343,2.314c-7.329,1.061-14.851,1.641-21.601,3.375c-1.544,2.121-3.279,5.014-2.22,7.812
			c0.097,0.096-0.289,0-0.675,0.674c0.675,0.966-0.386,1.351-0.386,2.121c-0.386,1.832-0.192,4.146-0.966,7.33
			c5.595,1.254,10.897,1.156,15.527,2.41c3.375,0.965,8.1-0.578,11.475,1.158c1.255,0,2.798-0.193,3.664,0.867
			c0.193,0.481-0.675,0.481-1.061,0.481c-3.954-0.676-6.943-0.387-10.703-0.869c-4.438-1.928-11.188-0.289-16.009-2.217
			c-1.735,0-4.437,0.482-5.786-0.482c-4.531-1.061-9.933,0.289-14.176-1.735c-7.907,0.289-14.465-2.988-22.564-2.988
			c-0.387-0.387-0.387-1.061-1.254-1.158c-2.313-0.771-5.304,0.677-6.75-1.254c0.578-1.061,2.121-0.578,3.278-1.444
			c9.739-2.123,18.708-6.365,28.64-8.197c2.797-1.351,6.27-1.736,9.355-2.99c1.061-0.096,2.121-0.289,3.086,0.098
			c1.928-0.58,4.05-1.254,6.171-1.254c4.532-0.096,8.583-2.219,13.308-1.832c1.446-0.869,3.664-0.192,5.208-0.676
			c2.989-0.289,6.075-1.061,8.872-1.832c0.578-0.289,0.867-0.481,0.965-0.676c0.867-0.385,0.963-0.385,1.64-0.289
			C929.494,818.971,930.265,818.68,930.265,818.873z M893.812,826.684c-4.82,2.123-10.414,2.123-15.429,3.568
			c-5.883,1.641-11.38,4.918-18.033,6.172c0,1.642,0.675,2.219,1.832,2.314c2.699,0.965,5.207,2.024,8.293,2.412
			c5.689,0.771,12.345,0.289,17.744,1.639c1.446,0,3.567,0,5.496,0.578c0.965-1.156,1.062-2.314,1.929-2.894
			c0-1.155,0.29-2.024,0.387-2.893c0.192-1.447,0.192-2.797,0.481-3.857c0.482-1.832,0.771-2.508,0.966-4.051
			C900.082,825.141,895.549,826.781,893.812,826.684z"/>
		<path style="fill:#FF0050;" d="M895.549,794.379c3.762,0.289,7.619,1.158,11.668,1.641c4.92,0.578,10.03,1.156,14.659,3.472
			c2.411,2.41,5.399,3.664,7.328,6.846c0.29,1.736,1.543,1.447,0.965,3.568c0.097,0.289-0.192,0-0.192-0.386
			c-2.219,0.097-1.157-0.481-2.797-2.7c-2.508,0.771-4.34-0.386-6.172,0.387c-7.715-0.482-14.369,0-21.891,0.771
			c-1.832,0.867-4.146,0.867-6.268,0.578c-1.352-0.481-2.798,0.482-4.437,0.193c-5.016-0.289-10.608-0.289-15.527,0.385
			c-3.663-0.19-7.229,0-10.991,0.388c-1.447-0.289-3.086-0.771-5.111-0.193c-0.579,1.35-1.254,1.061-0.771,2.219
			c-0.191,0.191-0.386,0.48-0.675,0.674c-0.289-0.096-0.579,0-0.868-0.289c0.387-2.797,2.219-4.34,3.954-6.461
			c3.376-3.086,7.716-4.532,11.38-7.521c2.41-1.543,4.917-1.736,7.521-2.797c3.277-0.482,6.941-0.289,10.125-0.965
			C890.148,794.861,892.752,794.668,895.549,794.379z M880.312,796.789c-3.761-0.191-6.363,1.543-9.933,2.604
			c-0.192,0.191-1.061,1.062-1.543,1.351c-2.7,1.928-5.883,2.797-8.776,6.654c3.473-0.291,5.209,0.963,6.849,0.288
			c2.411,0.289,4.53-0.965,6.942-1.062c3.473,1.062,7.231,0.193,10.801,0.676c3.278,0.387,6.847-0.385,10.222-0.578
			c5.979-2.313,12.923-0.676,19.094-1.35c2.989,0,6.462-0.482,11.188,0.096c-1.832-3.856-5.111-4.533-7.329-5.785
			c-5.688-1.543-11.379-2.508-17.261-3.086c-1.158-0.192-2.604,0.289-3.664-0.387C891.596,796.5,885.23,794.668,880.312,796.789z"/>
		<path style="fill:#FF0050;" d="M923.707,763.907c0.771,0.386,1.544,0,2.411,0.191c0.675,0,1.157,0.193,1.737,0.579
			c0.096,0.482-0.482,0.868-0.773,1.351c-0.674,0.867-1.445-0.481-1.639-0.481c-0.192-0.386-1.156,0.481-2.121-0.965
			c-1.93,0.579-3.664,0.579-5.016,0.193c-2.699,0.288-5.688-0.482-8.293,0.577c-1.062,0.098-1.64,1.352-2.122,1.93
			c-0.096,0-0.481,1.156-1.35,1.543c-1.254,1.158-3.086,2.989-3.665,3.472c-0.482,0.482,0-0.578-0.867,0.385
			c-0.481,0.388-0.289,0.58-0.964,1.642c-0.869,1.061-2.604,2.893-2.99,3.375c-0.577,1.155-1.155,2.506-1.831,4.049
			c2.023,1.352,4.051,0.965,5.399,1.832c1.735,0.098,3.857,0.481,5.689,0.965c1.061-0.867,1.831,0.193,2.604,0.193
			c1.062,0.577,2.7,0.481,3.954,1.061c2.411,0.387,4.531,1.832,7.232,1.35c0.964,0.193,2.119,0.578,3.085,0.869
			c-0.097,0.191-0.191,0.386-0.386,0.386c-1.64,0.289-3.086-0.578-4.533-0.482c-0.386-0.289-0.675-0.385-1.061-0.289
			c-0.771-0.096-1.543-0.289-2.217-0.289c-1.544-0.481-2.604,0.385-5.112-1.254c0,1.447,0.192,0.58,0.192,0.58
			c-1.445-0.387-3.471-0.965-5.399-0.869c-1.157-0.771-2.604-0.482-3.761-0.771c-2.7-0.289-4.532-1.351-7.137-1.156
			c0,0-0.096-0.099-0.192-0.099c-0.771-0.481-1.64-0.192-2.122-0.674c-5.882-1.641-11.861-3.278-17.743-4.92
			c-1.351-0.674-2.507-0.963-3.952-1.541c-1.93-0.676-3.763-1.832-5.786-2.604c-2.025-0.771-3.955-2.023-6.27-2.699
			c-0.579-0.289-1.544,0.193-1.544-0.771c0-0.288-0.289-0.965-0.096-1.061c0.676-1.061,2.604-1.061,3.568-1.543
			c2.313-0.192,5.594-0.675,8.389-1.253c1.062-1.254,2.701-0.29,3.955-0.771c4.725,0.192,9.644-2.219,15.043-1.544
			c6.847-1.06,14.465-1.639,20.926-1.06C913.872,763.713,918.789,763.232,923.707,763.907z M894.488,765.546
			c-1.254-0.481-3.183,0.675-5.11,0.289c-2.313-0.386-4.821,0.386-7.136,0.771c-2.219-0.387-3.954,0.965-6.172,0.771
			c-1.446,0.193-3.857,0.193-5.786,0.578c-3.183,0.579-6.075,1.448-9.74,1.737c1.446,1.639,4.05,2.795,4.437,2.893
			c2.024,0.676,3.664,1.832,5.496,2.41c2.797,0.965,5.207,1.93,7.812,2.701c1.831,0.479,4.243,1.061,5.882,1.35
			c1.833-0.096,4.437,1.543,6.943,1.93c1.446,0.191,0.771,0.867,2.797,0.289c0.771-1.834,1.928-3.088,2.604-4.727
			c0.868-1.156,1.352-1.254,2.604-2.604c0.867-0.866,1.736-2.217,2.7-3.471c0.868-0.965,2.023-2.026,2.604-2.701
			c0-0.191,1.156-1.445,1.156-2.218c-1.351-0.289-2.894-0.289-3.761-0.386C899.214,764.775,897.189,765.161,894.488,765.546z"/>
		<path style="fill:#FF0050;" d="M1039.892,1471.288c1.254,0.482,2.123-0.193,3.086,0c-0.289,0.676-0.771,1.254-0.771,2.025
			c-0.385,1.061-1.734,1.254-2.507,2.024c-0.771,0.192-0.867,1.253-1.735,1.832c-2.024,1.254-3.856,2.604-5.883,4.051
			c-3.953,0.965-7.521,3.664-12.15,4.146c-3.566,1.639-8.195,1.543-12.149,1.639c-2.411,1.928-6.27,0.193-9.162,1.254
			c-1.445,0.192-2.313-0.386-3.471-0.386c-3.953,1.061-7.521-0.481-11.187-1.062c-2.604-1.156-5.4-1.445-7.908-2.797
			c-0.771-0.578-1.929-0.386-2.699-0.675c-3.086-2.024-6.654-3.278-9.45-5.497c-1.352-0.29-1.735-1.929-3.086-2.218
			c-0.482-0.676-1.447-1.254-0.867-2.7c-0.869-0.675-1.64-2.024,0-1.734c0.385-0.29,0.578-0.099,0.096,0.289
			c3.183,3.856,8.392,7.426,13.501,10.125c1.93,0,3.857,1.061,5.014,2.024c3.954,1.062,7.618,2.507,11.67,2.507
			c1.446,0,2.894,0.29,4.146-0.096c2.508,0.289,4.822,0.964,7.426,0.289c2.507-0.193,5.015-0.482,7.425-0.964
			c7.716-1.544,16.104-1.93,22.471-6.172c2.313-1.543,3.953-2.895,5.979-5.208c-0.289-0.481,1.254-0.386,0.965-1.062
			c-5.979,0.29-13.404,0.481-18.805,0.868c-2.412,1.062-5.209-0.192-7.812,0.192c-2.314,0.289-4.727-0.289-7.137-0.192
			c-1.157,0-2.219-0.192-3.278,0.192c-1.735-0.289-3.954,0.192-5.4-0.771c-0.674-0.579,0.868-0.481,1.062-0.869
			c1.541-0.577,3.086-0.771,4.82-0.096c1.351,0.192,2.7-0.676,3.953-0.676c3.568,0,6.654,0.965,9.064,0.676c0-0.289,1.158,0,2.122,0
			c0.675-0.192,1.351-0.192,1.734-0.097c2.122,0,3.474-0.386,5.401-0.098c3.472-0.866,7.811,0,10.607-0.771
			c0.867-0.193,0.771-0.096,1.639-0.193C1038.06,1471.094,1038.735,1470.613,1039.892,1471.288z"/>
		<path style="fill:#FF0050;" d="M1038.253,1452.194c-0.965,2.122-3.277,2.313-4.918,3.473c-2.218,1.156-4.629,2.313-7.137,2.604
			c-0.674,0.385-1.639,0.481-2.41,0.578c-6.461,1.156-12.729,3.762-19.479,3.952c-4.629,0.966-9.739,0.482-14.755,0.388
			c-4.146,0-9.45-1.157-13.597-2.99c-2.025-0.481-4.244-1.254-5.689-2.507c-2.123-0.579-3.762-2.122-5.594-3.278
			c-0.385-0.676-0.867-1.35-0.867-2.025c0-0.097-0.098-0.192-0.098-0.192c1.93,0.481,3.762,1.929,5.69,3.086
			c1.542,0.868,2.411,2.024,4.05,2.411c2.797,0.579,5.014,2.507,7.906,2.313c5.305,1.352,11.092,1.253,17.455,0.868
			c-0.965-2.219,0.676-3.086-0.097-4.436c0.097-0.579,0.193-0.965,0.385-1.352c0.291-0.29,0.482-0.579,0.869-0.29
			c0.192,0.193,0.289,0.29,0.481,0.482c-0.192,0.579,0.193,0.965,0.481,1.254c-0.288,1.254,0,2.508-0.191,4.051
			c4.725,0.482,7.907-0.868,11.765-1.062c1.641-0.771,4.146-0.964,6.171-1.543c1.833-0.578,4.052-0.578,5.786-1.64
			c1.446,0.192,3.087-0.29,4.243-1.735c2.508,0.097,4.436-1.735,7.329-2.314c0-0.771,0-0.48,0-0.48
			c0.481-0.193,1.445-1.255,2.604-0.868C1038.542,1451.422,1038.446,1451.809,1038.253,1452.194z"/>
		<path style="fill:#FF0050;" d="M1025.909,1433.583c3.762,0.964,6.462,4.147,10.223,5.304c0.578,1.062,1.832,1.641,2.41,2.701
			c-0.867,0.289-1.832-0.579-2.604-0.965c-0.676-0.676-1.351-1.061-2.314-1.158c-2.121-1.543-5.015-2.217-7.232-3.953
			c-1.64-0.578-4.051-0.771-5.882-1.639c-3.278-0.193-6.558-0.193-9.739,0.385c-3.086,0.579-6.075,1.832-8.486,3.954
			c-3.184,1.543-6.848,2.7-10.317,3.472c-5.399,2.7-12.248,2.41-17.841,0.193c-3.278,0-5.109-2.797-8.101-3.183
			c-0.867-0.675-1.64-1.352-2.699-1.736c-0.579-0.481-0.29-1.253-0.772-1.929c0-0.192-0.385,0.097-0.191,0.192
			c1.35,0.097,2.797,0.675,3.954,1.254c5.109,3.953,11.956,4.146,18.13,5.496c4.339-0.192,7.906-2.218,12.054-3.183
			c2.603-1.639,5.882-2.218,8.485-3.856c1.93-0.192,3.472-2.411,5.496-1.929c4.34-1.544,9.45-1.544,13.599,0
			C1024.656,1433.294,1025.234,1433.487,1025.909,1433.583z"/>
		<path style="fill:#FF0050;" d="M1045.39,1411.309c1.255,1.062,0,0.965-0.192,1.351c-5.4,4.726-12.922,3.761-18.707,7.521
			c-4.148,1.542-8.584,2.12-12.634,3.085c-3.184,0.099-6.075,1.446-9.064,0.868c-0.964,0.771-2.411,0-3.472,0.386
			c-6.943,0-10.897-1.35-16.297-2.508c-1.832,0.193-3.761-0.385-5.207-1.639c-2.509,0.289-4.533-0.482-6.365-1.447
			c-4.437-1.639-8.871-3.374-12.054-6.46c0,0.097-0.579-0.192-0.29-0.386c0.771-0.482,1.64,0.386,2.409,0.771
			c4.533,0.386,7.427,3.664,11.478,4.63c1.832,0.965,3.856,0.965,5.594,1.639c7.425,1.929,12.343,3.568,20.154,3.664
			c0.096,0,0.289-0.674,0.289,0.098c6.653-0.387,12.343-1.93,18.418-2.604c6.172-1.93,12.344-4.146,18.516-6.075
			c1.641-1.062,3.568-1.929,5.689-2.699c0.578,0,1.639-1.062,1.928-0.676C1045.679,1410.827,1046.354,1410.827,1045.39,1411.309z"/>
		<path style="fill:#FF0050;" d="M1033.335,1380.934c-1.156,0.866-2.699,1.445-3.856,2.41c-4.727,1.351-9.837,2.604-14.947,2.604
			c-3.664,0.579-7.426,1.351-10.992,2.219c-1.93-0.193-4.146-0.579-6.365-0.097c-0.289,0.771-0.289,1.061-1.446,1.35
			c1.062,2.797,3.278,4.726,4.34,6.751c0.579,0.289,1.156,1.062,0.965,1.735c-0.386,1.158,0.191,1.158,0.867,1.832
			c0.867,0,1.641,0.097,2.411,0.481c2.023-0.675,3.567-0.675,5.206-0.097c1.834,1.061,3.375,0.29,5.401,0
			c3.857-0.578,7.521-1.446,11.476-1.64c3.086-0.097,6.172-0.097,9.45-0.097c0.289,0.097,0.578,0.193,0.481,0.482
			c0,0.289-0.386,0.578-0.675,0.675c-4.822,0.289-9.451,0.482-13.693,1.832c-3.182-0.097-5.786,0.868-8.774,0.579
			c-7.138-0.676-14.658,0-21.408,0.867c-2.989-0.677-5.306,0.579-8.197,0.387c-7.521-0.58-15.332-0.58-21.986-2.797
			c-0.965-0.29-0.481-1.062-0.965-1.736c0.098-0.289,0.579,0,0.771-0.096c2.313,0.481,4.34,1.542,6.653,1.446
			c0.097,0.096,0.097,0.096,0.193,0.191c3.953-0.191,7.617,1.062,11.09,0.868c2.603,1.446,5.496-0.386,8.293,0.096
			c3.568,0.579,6.558-0.675,10.028-1.155c0.481-0.387,1.156-0.772,1.833-1.545c-1.158-3.086-4.728-5.015-5.111-7.521
			c0.482,0-0.675-0.771-0.192-2.314c-2.988-0.866-5.399,0.29-7.617-0.771c-1.832-0.482-3.665,0.482-5.594-0.578
			c-2.604,1.254-4.919,0.096-7.426,0.289c-1.445-1.254-2.025,1.254-3.761,0.097c-1.641,0.482-3.856,0.771-5.207,0
			c0.096-0.386,0.096-0.675,0-1.062c1.445-0.867,3.471,0.289,4.917-0.867c2.122-0.193,3.665,0.965,5.786,0.578
			c6.172-1.157,13.019,0.193,19.287-0.193c4.34-0.191,9.063,0.482,13.211-0.964c6.557-1.06,13.403-1.929,19.576-3.183
			c1.542-0.964,3.375-2.023,5.304-1.928C1032.949,1380.354,1033.238,1380.547,1033.335,1380.934z"/>
		<path style="fill:#FF0050;" d="M1037.771,1368.687c0.289,0.096,0.481,0.191,0.676,0.386c-0.869,2.218-3.473,0.964-5.497,1.542
			c-1.735,0.289-3.376,0-5.11,0.097c-4.726,0.097-9.451-0.097-13.982,0c-2.411,0-5.594,0.192-8.102-0.097
			c-1.639-0.192-3.664,0-5.304,0.097c-3.953,0.386-7.714,0-11.86,0.29c-0.192-0.193-0.387-0.193-0.578-0.193
			c-1.736,0.867-3.666,0.097-5.305,0.386c-3.954,0.192-7.715,0.58-11.572,0.58c-2.698-1.158-5.496,0.578-8.293-0.099
			c-0.386-0.096,0.578-1.155,0.867-1.155c4.244-2.894,9.162,1.155,13.887-0.193c5.595-1.543,11.861-0.964,17.357-1.253
			c5.497-0.29,10.704,0.191,16.299,0c1.542-0.193,3.084-0.193,4.726-0.193c0.386,0,0.866,0.097,1.253,0.097
			c4.242-0.097,8.484-0.097,12.247-0.676C1032.371,1369.072,1034.782,1368.589,1037.771,1368.687z"/>
		<path style="fill:#FF0050;" d="M972.101,1352.291c1.445,0.194,2.409,1.641,4.051,1.641c3.084,1.541,5.978,2.314,9.738,2.507
			c0.577,0.29,1.543,0.387,2.219,0.578c2.121,0.193,4.05,1.157,6.074,1.157c1.254,0.387,2.989-0.289,4.146,1.254
			c1.544-0.386,2.701-0.771,3.665-1.254c0.386-0.771,1.445-1.736,1.351-2.797c0.675-1.061,0.097-1.928,0.578-3.279
			c0.579-1.831,0.579-2.893,1.543-4.819c0.482-0.388,0.966-0.771,1.543-0.677c0.388,0.966,0,2.121,0,3.279
			c-1.254,2.508-1.061,3.857-1.929,7.136c0.771,0.482,0.482,0.868,0.771,1.062c2.41,0.385,5.015,0.096,7.039-0.387
			c1.254,0.192,2.314-0.289,4.242-0.289c0.387-1.156,1.254-0.289,1.832-0.578c3.473-0.289,6.56-2.22,10.126-2.41
			c1.544-1.353,4.146-1.158,5.69-2.316c1.831,0.193,2.795-2.217,5.109-1.639c1.157-0.867,2.219-1.928,3.664-1.928
			c0.387,0.289,0.771,0.578,1.157,0.964c-0.192,1.446-1.832,1.544-2.893,2.314c-1.641,0.192-3.183,0.578-4.341,1.64
			c-2.121-0.097-3.375,1.735-5.399,1.639c-0.771,0.482-1.543,0.579-2.121,0.965c-0.771-0.098-1.446,0.193-2.025,0.482
			c-4.436,0-7.907,2.893-12.344,2.604c-0.578,0.387-1.639,0.387-2.218,0.482c-4.725,1.639-10.223,1.35-15.044,1.253
			c-2.218-0.579-4.917,0-6.847-0.964c-5.979-1.062-11.766-3.473-17.455-5.014c-2.698-1.062-5.207-2.701-7.714-4.052
			c-2.798-1.543-6.075-2.604-8.101-5.399c0-0.193,0-0.482,0.191-0.578C962.746,1347.664,967.278,1350.17,972.101,1352.291z"/>
		<path style="fill:#FF0050;" d="M1040.472,1311.791c0.097,0.289,0.097,0.675,0,0.964c-0.578,0.289-0.965,0.386-1.735,0.579
			c-0.482,0.096-0.965,0.096-1.447,0.096c-1.735,0.388-2.795,0.578-4.628,1.158c-0.386,0.192-0.579,0.385-0.964,0.578
			c-0.482,0-0.676-0.096-1.158-0.096c-2.024-0.099-4.725,0.674-5.207,0.48c-4.821,0.868-4.146,1.253-9.643,1.543
			c-3.954,0.192-6.849,0.579-10.513,0.965c0,1.929-1.254,3.762-1.543,5.495c-0.096,0.966-0.192,1.447-0.387,2.412
			c-0.385,1.254-1.156,1.832-0.964,3.183c0,2.699,0.192,0.869-1.351,3.567c-0.191,0.289-0.289,0.675-1.351,2.121
			c2.314-0.192,3.086-0.385,4.146-0.578c1.447,0.965,4.052,0.097,6.365,0.193c6.075,0.289,11.861-0.58,17.357-0.29
			c5.111,0.192,10.125-0.771,14.658-0.29c0.096,0.29,0.096,0.676,0.096,1.062c-0.385,2.313-3.085,0.578-4.146,1.061
			c-4.82,0.386-9.257,0.386-14.655,0.386c-6.56,0.193-13.115-0.386-19.771,0.097c-4.533,0.387-8.486-0.288-12.633,0.481
			c-7.039-1.156-14.176,2.315-21.119,0.676c-1.736-0.097-3.472,0.578-5.207,0.097c-0.867-0.481-3.953-0.192-2.313-1.542
			c5.399-0.579,10.993,0.096,16.489-0.098c8.101-0.386,3.183-0.771,5.305-0.965c2.796-0.289,4.437-0.19,7.329-0.19
			c2.604,0,4.051,0.289,6.846,0c0.58-1.353,0.965-2.123,1.544-3.279c1.253-2.411,0.386,0.964,0.964-3.568
			c0.193-1.444,0.289-1.832,0.289-3.278c0-1.255,0.579-1.832,0.868-3.087c0.289-0.866,0.191-1.83,0.386-3.471
			c-1.254,0-1.639,0.096-2.218,0.096c-2.025-0.577-4.821,1.447-6.654-0.288c-2.312-0.193-3.568-0.386-5.496,0.387
			c-1.351-0.099-2.797-0.29-4.531-0.482c-0.388-0.192-0.966,0.289-1.352,0.289c-1.542,0.867-2.507-1.64-3.954-0.481
			c-0.675,0-1.35,0.676-2.022-0.289c-3.185,0.867-5.69,0.578-8.392-1.158c-0.868,0.387-1.254-0.191-1.64-0.674
			c-0.097-0.098-0.192-0.29-0.097-0.482c0.29-0.771,0.771,0.386,0.965,0.289c0,0,0.578,0.482,1.155-0.097
			c0.58-0.482,1.062,0.771,1.642,0.481c3.664,0.868,7.618,0.868,11.379,0.387c3.664,0.867,9.064,0,12.536,0.867
			c0.868-0.097,1.64-0.771,2.989,0c1.157-1.254,2.604-0.289,3.472-0.867c4.436-0.097,8.968-0.482,13.403-0.578
			c4.34,0,2.894-0.676,6.173-1.158c0.675,0.193,1.734-0.289,2.218,0.098c1.254-0.192,2.411-0.192,3.664-0.387
			c2.604-0.385,6.172-0.578,8.486-1.157c0.387,0.193,0.868-0.096,1.543-0.867c-0.386-0.867,0.675-0.386,0.675-0.578
			C1037.386,1311.213,1038.832,1312.177,1040.472,1311.791z"/>
		<path style="fill:#FF0050;" d="M955.513,1284.984c0.193,1.64,0.869,2.796,1.158,4.531c-0.578,2.604-0.096,4.918,0.868,8.102
			c1.351-0.675,2.313-0.482,2.796-0.29c1.833-0.192,4.146,0.29,5.979,0.193c1.734-0.387,3.855-0.578,5.593-0.578
			c2.7-1.351,6.075-1.736,8.775-2.314c1.543,0.386,3.375,0,4.82,0.192c6.559,0,13.309-1.641,19.479-2.507
			c1.157,0.096,2.894-0.193,3.954,0.096c0.191-0.096,0.675-0.096,0.771-0.192c4.821-0.191,8.679-0.29,13.501-0.29
			c2.217,0,4.146,0.388,6.171,0.482h-0.097c-2.506,1.832-5.979,1.158-8.679,1.736c-3.953-0.966-8.101,1.061-12.344-0.578
			c-2.508,2.604-5.497,0.578-8.101,1.445c-2.411-0.29-5.304-0.192-7.329,1.062c-0.965-0.098-1.832,0.289-3.183-0.192
			c-2.313,1.351-5.206,0.675-7.618,0.675c-3.953-0.867-7.136,1.735-10.896,1.253c-2.698,1.352-5.786,1.158-8.872,1.158
			c-0.964-1.061-2.507-0.097-4.436-2.219c-0.675,4.243-0.289,6.75-0.482,9.354c0.482,2.024-0.289,4.243,0,6.462
			c-0.097,0.097-0.097,0.191-0.191,0.288c-0.771-0.097-0.965-0.964-1.254-1.541c0.578-1.931,0.481-3.857,0-5.787
			c-0.388-0.482,0-1.351,0.096-2.314c-1.061-1.446-0.193-3.568-0.964-4.918c0.481-1.543-0.193-3.182-0.097-4.725
			c-0.867-1.543,0.289-3.568-0.578-5.111c0-1.352-1.832-2.7-0.289-3.761c0.097-0.098,0.289-0.192,0.48-0.29
			C954.935,1284.502,955.417,1284.598,955.513,1284.984z"/>
		<path style="fill:#FF0050;" d="M1037.771,1248.146c0.289,0.097,0.481,0.192,0.676,0.386c-0.869,2.219-3.473,0.965-5.497,1.543
			c-1.735,0.29-3.376,0-5.11,0.097c-4.726,0.098-9.451-0.097-13.982,0c-2.411,0-5.594,0.193-8.102-0.097
			c-1.639-0.191-3.664,0-5.304,0.097c-3.953,0.386-7.714,0-11.86,0.29c-0.192-0.192-0.387-0.192-0.578-0.192
			c-1.736,0.866-3.666,0.097-5.305,0.386c-3.954,0.192-7.715,0.579-11.572,0.579c-2.698-1.158-5.496,0.578-8.293-0.099
			c-0.386-0.096,0.578-1.155,0.867-1.155c4.244-2.894,9.162,1.155,13.887-0.193c5.595-1.543,11.861-0.965,17.357-1.254
			c5.497-0.289,10.704,0.193,16.299,0c1.542-0.192,3.084-0.192,4.726-0.192c0.386,0,0.866,0.098,1.253,0.098
			c4.242-0.098,8.484-0.098,12.247-0.677C1032.371,1248.532,1034.782,1248.05,1037.771,1248.146z"/>
		<path style="fill:#FF0050;" d="M1025.909,1230.114c3.762,0.965,6.462,4.146,10.223,5.305c0.578,1.062,1.832,1.64,2.41,2.7
			c-0.867,0.289-1.832-0.579-2.604-0.964c-0.676-0.676-1.351-1.062-2.314-1.158c-2.121-1.543-5.015-2.218-7.232-3.953
			c-1.64-0.579-4.051-0.771-5.882-1.64c-3.278-0.193-6.558-0.193-9.739,0.386c-3.086,0.578-6.075,1.832-8.486,3.953
			c-3.184,1.543-6.848,2.701-10.317,3.472c-5.399,2.7-12.248,2.411-17.841,0.193c-3.278,0-5.109-2.797-8.101-3.184
			c-0.867-0.675-1.64-1.35-2.699-1.735c-0.579-0.481-0.29-1.253-0.772-1.929c0-0.192-0.385,0.097-0.191,0.193
			c1.35,0.096,2.797,0.675,3.954,1.253c5.109,3.954,11.956,4.147,18.13,5.497c4.339-0.193,7.906-2.219,12.054-3.183
			c2.603-1.641,5.882-2.218,8.485-3.857c1.93-0.191,3.472-2.411,5.496-1.929c4.34-1.543,9.45-1.543,13.599,0
			C1024.656,1229.825,1025.234,1230.018,1025.909,1230.114z"/>
		<path style="fill:#FF0050;" d="M953.392,1206.779c0,2.988-0.097,5.882,0.676,9.161c7.231,0.481,14.176,0.481,19.769-1.352
			c1.542-0.289,3.086-0.48,4.339-0.964c6.076-1.736,10.608-0.482,16.586-2.604c3.763-0.29,7.138-1.062,10.705-1.641
			c5.015-0.868,10.224-0.289,14.852-1.351c2.988,0,6.558-0.386,9.738-1.253c2.604,0.097,5.306-1.062,7.908-1.543
			c0.388,0.191,0.868,0.579,1.062,0.867c-0.386,2.894-4.629,1.255-6.461,2.121c-6.558,1.254-12.923,1.93-18.998,2.121
			c-3.664,0.098-7.521,1.062-11.282,1.543c-3.761,0.482-6.558,0.771-10.317,0.771c-1.062,0.579-2.508,0.771-3.856,0.481
			c-1.254,1.157-2.508,0.482-3.473,1.157c-3.183,0.482-6.558,1.352-10.028,1.832c-3.087,0-6.462,1.833-9.258,1.352
			c0,0-0.481,0.192-0.578,0.289c-2.797-0.097-6.172,0.289-10.029-1.157c-0.771,2.218-0.192,4.437-0.386,6.075
			c-0.578,6.074,1.254,11.669,0.289,17.357c0,0.481,0.578,1.157,0.191,1.639c-0.385,0.387-0.771,0.098-1.155,0
			c-1.062-1.445-0.772-3.761-0.772-5.398c-0.674-0.771,0.098-2.314-0.191-3.279c0.578-5.979-0.387-11.86-0.387-17.262
			c0-5.015-0.965-11.09-1.254-16.2c-0.386-0.868,0.387-1.446,0.869-1.833c0.096,0,0-0.191,0.096-0.096
			C953.007,1200.51,953.392,1203.596,953.392,1206.779z"/>
		<path style="fill:#FF0050;" d="M1025.909,1162.131c3.762,0.964,6.462,4.146,10.223,5.303c0.578,1.062,1.832,1.642,2.41,2.701
			c-0.867,0.289-1.832-0.578-2.604-0.965c-0.676-0.675-1.351-1.061-2.314-1.157c-2.121-1.543-5.015-2.218-7.232-3.954
			c-1.64-0.577-4.051-0.771-5.882-1.639c-3.278-0.193-6.558-0.193-9.739,0.386c-3.086,0.579-6.075,1.832-8.486,3.954
			c-3.184,1.542-6.848,2.699-10.317,3.472c-5.399,2.7-12.248,2.411-17.841,0.192c-3.278,0-5.109-2.796-8.101-3.182
			c-0.867-0.676-1.64-1.352-2.699-1.736c-0.579-0.481-0.29-1.254-0.772-1.93c0-0.191-0.385,0.098-0.191,0.193
			c1.35,0.097,2.797,0.676,3.954,1.254c5.109,3.953,11.956,4.146,18.13,5.496c4.339-0.192,7.906-2.219,12.054-3.183
			c2.603-1.639,5.882-2.219,8.485-3.856c1.93-0.192,3.472-2.41,5.496-1.93c4.34-1.543,9.45-1.543,13.599,0
			C1024.656,1161.842,1025.234,1162.035,1025.909,1162.131z"/>
		<path style="fill:#FF0050;" d="M964.192,1134.455c2.604,0.193,5.111,1.254,7.619,1.736c7.713,0,15.235,2.023,22.371,3.277
			c3.567,2.604,8.485,1.157,12.633,2.024c5.979,1.254,11.09,0.481,17.166,1.062c4.146,0.387,8.39,0.482,12.343,0.676
			c0.289,0.097,1.544,0.097,1.544,0.097l0.385,0.868l-0.578,0.867c0,0-1.156,0.098-1.254-0.097c-0.578,0.579-2.219,0-3.472,0
			c-5.882-1.446-12.344-0.676-18.226-1.831c-5.979,0.866-12.345-0.772-18.517-0.58c-0.289,0.868-0.771,0.387-1.061,0.676
			c-2.894,1.156-4.63,4.242-7.812,4.822c-4.051,1.35-8.873,2.023-13.404,2.988c-5.594,1.253-11.09,3.085-16.875,2.797
			c-0.192-0.097-0.192-0.579-0.29-0.771c4.727-0.965,8.969-2.41,13.403-2.508c5.98-1.541,12.922-1.832,18.709-4.82
			c1.542-1.736,3.472-2.604,6.461-4.051c-2.313-1.445-3.955-2.025-5.496-1.832c-2.024-0.676-4.532-0.578-6.752-1.351
			c-5.784-0.387-10.896-0.771-16.586-1.93c-2.989,0.579-5.109-0.964-7.906,0c-0.868-0.289-1.833-0.386-2.604-0.867
			c0-0.675,0.676-1.062,1.254-1.351C959.37,1134.745,962.071,1134.648,964.192,1134.455z"/>
		<path style="fill:#FF0050;" d="M964.192,1102.537c1.736,0.482,3.182,1.543,5.015,1.255c0.964,0.288,2.024,0.19,3.087,0.288
			c0.867-0.288,1.928,0.29,2.988,0.193c2.025-0.579,3.857-0.098,5.883-0.579c2.025-0.289,3.472,0.192,5.4,0.192
			c1.35,0.482,2.507-0.481,4.049-0.192c2.604,0,6.365-0.097,9.066,0.098c4.146-1.446,8.581-0.481,12.824-0.58
			c0.771-0.192,1.735-0.096,2.508-0.096c0.577,0.096,1.156-0.386,1.734-0.386c6.462-0.193,13.309,0.289,19.384-0.482
			c1.351,0.675,2.7-0.964,3.664,0.482c0.771,1.64-1.639,0.867-2.797,1.35c-2.41,0-4.725,0.676-7.231,0.386
			c-2.894,0.677-5.688-0.386-8.68-0.096c-1.542-0.578-3.183,0.192-4.918,0.096c-2.218-1.155-4.146,0.097-6.172,0.579
			c-4.532-0.771-10.317,0-14.852-0.289c-3.278,1.446-6.942,0.192-10.027,1.062c-2.99-0.964-6.655,0.192-11.861-0.675
			c0.578,0.578-3.183-0.193-2.797,0.097c0.868,0.771,5.497,2.218,5.786,2.507c1.446,0.482,3.276,0.675,4.532,1.446
			c3.665,1.254,8.004,1.061,11.379,3.183c4.726,0.964,9.063,2.121,13.981,2.699c0.481,0.193,1.157,0,1.736,0.193
			c1.832-0.193,3.085,1.735,4.918,1.543c0.289,0.097,0.289,0.289,0.192,0.578c-0.676,0.289-1.351,0.386-1.928,0.192
			c-2.604-0.386-5.306,0.481-7.908,0.868c-3.086,0.964-6.364,1.543-9.645,2.121l-0.578,0.386c-2.797,0.771-5.398,0.771-8.101,1.736
			c-0.965,0.771-3.664,0.866-3.664,0.866l-4.822,1.158l4.629,0.191c4.821,1.254,10.705,0,15.526,0.29
			c2.023-0.964,4.436,0.192,6.46,0.192c2.894,0.097,6.076-1.156,8.776-0.482c2.796-0.096,4.82-0.096,7.425-0.48
			c2.313-0.289,5.208,0.385,7.811,0.192c4.244,0.097,8.776-0.772,13.31,0.288c0.771,1.062,3.566-1.061,3.472,0.579
			c-2.411,0.771-5.015,0.097-7.618,0.868c-0.771-0.193-1.736-0.387-2.508,0.097c-3.471,0.386-8.004-0.771-11.668,0
			c-1.062,0.097-1.735-0.192-2.797-0.192c-3.76,0.771-7.328,0.385-11.186,0.674c-1.834-0.771-4.052-0.48-5.979,0
			c-4.437,0-8.486-1.252-12.922-0.096c-4.727,0.096-9.837-0.578-14.947-0.386c-1.061,0.481-2.122-0.097-3.278,0
			c-1.254,0-2.604-0.097-3.856,0.386c-0.868,0-1.736,0.288-2.314-0.386c-0.289,0.289-0.385,0.097-0.866-0.097
			c-0.193-0.579,0.577-0.289,0.577-0.482c1.062-0.289,2.604,0.193,4.052-0.578c1.35,0,1.541-2.025,3.276-1.543
			c1.158,0.578,2.411-0.676,3.664-0.482c4.629-0.867,8.584-2.893,13.502-3.183c0.771-0.771,2.797-0.577,3.761-0.868
			c2.989-1.061,6.364-1.061,11.668-2.988c-6.074-2.508-11.379-1.061-14.754-3.663c-2.121-0.58-4.726-0.677-6.558-1.833
			c-0.771-0.193-1.735-0.387-2.604-0.098c-2.121-0.191-3.664-1.928-5.883-1.928c-1.253,0-2.121-1.447-3.375-1.447
			c-0.965-0.675-2.218-0.771-3.182-2.023c-2.797,0-4.919-0.482-6.848-1.544c-0.386-0.193-0.289-0.578-0.578-0.964
			c0-0.387-0.097-0.771,0.386-0.965C962.071,1102.055,962.843,1102.827,964.192,1102.537z"/>
		<path style="fill:#FF0050;" d="M1033.913,1069.557c0.193,0.482,1.736,0.482,1.158,1.254c-2.7,1.834-6.365-0.192-9.258,1.352
			c-9.74,2.989-20.06,0.771-29.99,2.121c-5.787,0.771-11.188,0.771-16.877,1.929l-3.277-0.096l-0.098,0.386l3.279,1.446
			c3.76,0.771,8.582,0.866,12.149,1.735c3.375,0.867,6.27,0.963,9.547,1.929c3.568,0.676,7.039,0.288,11.091,0.386
			c0.289,0.191,0.771,0.097,0.964,0.386c-5.11,2.121-11.38,0.675-16.684,2.218c-1.446,1.254-3.856,0.868-5.594,1.641
			c-6.171,0-12.054,2.121-17.84,2.41c-0.674,0.578-1.832,0.676-2.796,1.062c0,0.386-2.604,0.964-2.508,1.157
			c0.097,0.289,3.086,0.193,3.183,0.676c9.547,1.445,18.227,0,27.001,1.061c5.398-2.024,10.994,1.156,16.2-0.578
			c6.173-2.025,13.114,0.287,18.611-1.833c1.641,0,3.375-0.867,4.821,0c1.736,0.098,4.629-1.64,5.979,0.192
			c0,0.193,0.192,0.096,0.289,0.193c-1.351,0.867-3.472,0.191-4.726,0.385c-7.328,1.832-15.043,2.314-22.661,3.473
			c-3.086,0-6.172,0.482-9.064-0.387c-3.761,0.098-7.617,0.387-11.572-0.289c-9.16-0.289-17.55,1.543-26.133-0.965
			c-3.183-0.964-6.269,0-9.064-0.674c0-0.578-2.121,0.48-1.64-0.387c0.579-0.289,0.964-1.254,2.025-1.445
			c4.339-2.412,10.028-1.736,14.851-3.473c5.883-1.062,12.537-1.735,18.611-3.182l3.183-0.771v-0.387l-3.183-0.578
			c-3.955-0.676-7.716-1.254-11.669-1.736c-4.82-2.217-10.512-2.023-15.333-4.146c-0.289-0.289-0.771-0.48-1.156-0.676
			c0.771-1.156,3.086-0.097,4.242-0.191c4.051-2.121,8.582-0.482,13.02-1.641c10.126-1.061,17.646-0.48,27.58-1.35
			c2.312-0.676,5.882-0.676,8.486-1.062c4.629-0.674,9.546,1.158,13.018-1.734
			C1032.756,1068.883,1033.335,1069.075,1033.913,1069.557z"/>
		<path style="fill:#FF0050;" d="M1038.253,1051.235c-0.965,2.122-3.277,2.314-4.918,3.472c-2.218,1.158-4.629,2.314-7.137,2.604
			c-0.674,0.387-1.639,0.482-2.41,0.578c-6.461,1.157-12.729,3.762-19.479,3.955c-4.629,0.963-9.739,0.48-14.755,0.385
			c-4.146,0-9.45-1.156-13.597-2.988c-2.025-0.482-4.244-1.254-5.689-2.508c-2.123-0.579-3.762-2.121-5.594-3.278
			c-0.385-0.676-0.867-1.351-0.867-2.024c0-0.098-0.098-0.193-0.098-0.193c1.93,0.482,3.762,1.93,5.69,3.086
			c1.542,0.867,2.411,2.025,4.05,2.412c2.797,0.578,5.014,2.507,7.906,2.312c5.305,1.352,11.092,1.254,17.455,0.868
			c-0.965-2.218,0.676-3.086-0.097-4.437c0.097-0.578,0.193-0.965,0.385-1.351c0.291-0.289,0.482-0.578,0.869-0.289
			c0.192,0.192,0.289,0.289,0.481,0.481c-0.192,0.578,0.193,0.965,0.481,1.254c-0.288,1.254,0,2.507-0.191,4.051
			c4.725,0.482,7.907-0.868,11.765-1.062c1.641-0.771,4.146-0.963,6.171-1.541c1.833-0.58,4.052-0.58,5.786-1.641
			c1.446,0.192,3.087-0.29,4.243-1.736c2.508,0.098,4.436-1.734,7.329-2.313c0-0.771,0-0.481,0-0.481
			c0.481-0.192,1.445-1.254,2.604-0.867C1038.542,1050.464,1038.446,1050.85,1038.253,1051.235z"/>
		<path style="fill:#FF0050;" d="M955.513,1022.885c0.193,1.639,0.869,2.797,1.158,4.531c-0.578,2.604-0.096,4.919,0.868,8.102
			c1.351-0.676,2.313-0.481,2.796-0.289c1.833-0.192,4.146,0.289,5.979,0.192c1.734-0.386,3.855-0.579,5.593-0.579
			c2.7-1.35,6.075-1.734,8.775-2.312c1.543,0.386,3.375,0,4.82,0.191c6.559,0,13.309-1.639,19.479-2.507
			c1.157,0.097,2.894-0.192,3.954,0.097c0.191-0.097,0.675-0.097,0.771-0.192c4.821-0.193,8.679-0.29,13.501-0.29
			c2.217,0,4.146,0.387,6.171,0.482h-0.097c-2.506,1.832-5.979,1.156-8.679,1.735c-3.953-0.964-8.101,1.062-12.344-0.579
			c-2.508,2.604-5.497,0.579-8.101,1.447c-2.411-0.29-5.304-0.193-7.329,1.061c-0.965-0.097-1.832,0.289-3.183-0.192
			c-2.313,1.35-5.206,0.676-7.618,0.676c-3.953-0.869-7.136,1.735-10.896,1.253c-2.698,1.35-5.786,1.157-8.872,1.157
			c-0.964-1.062-2.507-0.097-4.436-2.22c-0.675,4.244-0.289,6.752-0.482,9.354c0.482,2.025-0.289,4.243,0,6.462
			c-0.097,0.096-0.097,0.192-0.191,0.289c-0.771-0.097-0.965-0.965-1.254-1.543c0.578-1.929,0.481-3.857,0-5.786
			c-0.388-0.48,0-1.35,0.096-2.312c-1.061-1.447-0.193-3.569-0.964-4.919c0.481-1.545-0.193-3.184-0.097-4.727
			c-0.867-1.543,0.289-3.568-0.578-5.109c0-1.352-1.832-2.7-0.289-3.762c0.097-0.097,0.289-0.192,0.48-0.289
			C954.935,1022.403,955.417,1022.499,955.513,1022.885z"/>
		<path style="fill:#FF0050;" d="M1028.515,1003.6c-3.473,2.506-7.908,2.121-11.092,4.82c-1.253,0.387-2.604,1.061-3.664,1.736
			c-2.987-0.098-6.074,1.832-10.125,3.664c2.604,1.061,4.532,0.771,5.883,0.385c5.689,0,10.705-0.964,16.683-0.096
			c1.641,0,3.664-0.482,5.11,0.193c2.798,0.096,6.076-0.677,8.486,0.674c0.098,0.097,0.098,0.097,0.193,0.192
			c-2.025,0.578-4.629,0.386-6.654,0.289c-1.734-0.481-3.568,0.192-5.496,0.192c-3.761,0.097-7.715-1.254-11.091,0.386
			c-3.085,0.387-5.978-1.06-8.968,0c-2.7,0.869-5.4-0.481-7.907,0.772c-4.63-0.772-10.606,0.097-15.622-0.772
			c-5.689,0-11.476,0.387-17.068-0.578c-3.086-0.096-4.34-0.675-7.231-1.254c-0.099,0,0.481-0.674,0.481-0.867
			c3.084-1.832,4.146-2.411,7.425-3.664c4.532-1.832,9.354-1.446,13.887-2.7c6.365,0.097,12.633,0.965,17.262,7.039
			c8.486-5.111,17.552-5.688,25.747-10.125c3.665-1.156,7.04-2.988,10.705-4.146c0.578,0,1.542-0.387,2.219-0.193
			C1034.685,1001.284,1031.599,1002.635,1028.515,1003.6z M974.222,1009.963c-1.254,0.385-2.797-0.097-3.953,0.676
			c-1.543-0.192-2.989,0.674-4.243,1.156l-2.314,1.639c0.869,0.099,4.244,0.388,5.208,0.58c1.253,1.254,3.473,0.674,5.016,1.061
			c7.136-0.964,15.14,0.193,23.722-0.192c-1.253-1.543-2.507-1.929-3.183-2.604c-1.35-1.351-5.11-2.798-7.617-3.857
			C982.515,1008.998,977.886,1008.034,974.222,1009.963z"/>
		<path style="fill:#FF0050;" d="M1037.771,989.327c0.289,0.096,0.481,0.192,0.676,0.386c-0.869,2.219-3.473,0.965-5.497,1.542
			c-1.735,0.291-3.376,0-5.11,0.097c-4.726,0.098-9.451-0.097-13.982,0c-2.411,0-5.594,0.194-8.102-0.097
			c-1.639-0.19-3.664,0-5.304,0.097c-3.953,0.387-7.714,0-11.86,0.291c-0.192-0.193-0.387-0.193-0.578-0.193
			c-1.736,0.867-3.666,0.098-5.305,0.386c-3.954,0.193-7.715,0.579-11.572,0.579c-2.698-1.158-5.496,0.579-8.293-0.098
			c-0.386-0.096,0.578-1.156,0.867-1.156c4.244-2.893,9.162,1.156,13.887-0.193c5.595-1.543,11.861-0.964,17.357-1.253
			c5.497-0.29,10.704,0.192,16.299,0c1.542-0.192,3.084-0.192,4.726-0.192c0.386,0,0.866,0.097,1.253,0.097
			c4.242-0.097,8.484-0.097,12.247-0.677C1032.371,989.712,1034.782,989.23,1037.771,989.327z"/>
		<path style="fill:#FF0050;" d="M1025.909,971.294c3.762,0.964,6.462,4.146,10.223,5.304c0.578,1.062,1.832,1.641,2.41,2.7
			c-0.867,0.289-1.832-0.579-2.604-0.964c-0.676-0.676-1.351-1.062-2.314-1.158c-2.121-1.542-5.015-2.217-7.232-3.953
			c-1.64-0.578-4.051-0.771-5.882-1.64c-3.278-0.192-6.558-0.192-9.739,0.386c-3.086,0.579-6.075,1.832-8.486,3.954
			c-3.184,1.542-6.848,2.7-10.317,3.472c-5.399,2.701-12.248,2.41-17.841,0.192c-3.278,0-5.109-2.796-8.101-3.183
			c-0.867-0.676-1.64-1.35-2.699-1.734c-0.579-0.482-0.29-1.254-0.772-1.93c0-0.192-0.385,0.097-0.191,0.193
			c1.35,0.096,2.797,0.676,3.954,1.254c5.109,3.953,11.956,4.146,18.13,5.496c4.339-0.192,7.906-2.22,12.054-3.184
			c2.603-1.64,5.882-2.218,8.485-3.855c1.93-0.193,3.472-2.412,5.496-1.93c4.34-1.544,9.45-1.544,13.599,0
			C1024.656,971.004,1025.234,971.199,1025.909,971.294z"/>
		<path style="fill:#FF0050;" d="M1045.39,949.02c1.255,1.062,0,0.963-0.192,1.351c-5.4,4.726-12.922,3.761-18.707,7.521
			c-4.148,1.543-8.584,2.121-12.634,3.086c-3.184,0.097-6.075,1.446-9.064,0.869c-0.964,0.771-2.411,0-3.472,0.385
			c-6.943,0-10.897-1.35-16.297-2.508c-1.832,0.193-3.761-0.385-5.207-1.639c-2.509,0.289-4.533-0.482-6.365-1.447
			c-4.437-1.639-8.871-3.375-12.054-6.459c0,0.096-0.579-0.195-0.29-0.387c0.771-0.482,1.64,0.387,2.409,0.771
			c4.533,0.386,7.427,3.664,11.478,4.629c1.832,0.964,3.856,0.964,5.594,1.64c7.425,1.929,12.343,3.567,20.154,3.664
			c0.096,0,0.289-0.674,0.289,0.097c6.653-0.386,12.343-1.929,18.418-2.604c6.172-1.93,12.344-4.147,18.516-6.075
			c1.641-1.062,3.568-1.931,5.689-2.7c0.578,0,1.639-1.062,1.928-0.675C1045.679,948.538,1046.354,948.538,1045.39,949.02z"/>
		<path style="fill:#FF0050;" d="M1033.335,918.643c-1.156,0.869-2.699,1.447-3.856,2.412c-4.727,1.35-9.837,2.604-14.947,2.604
			c-3.664,0.579-7.426,1.352-10.992,2.219c-1.93-0.193-4.146-0.579-6.365-0.097c-0.289,0.771-0.289,1.061-1.446,1.35
			c1.062,2.798,3.278,4.726,4.34,6.75c0.579,0.29,1.156,1.062,0.965,1.736c-0.386,1.157,0.191,1.157,0.867,1.832
			c0.867,0,1.641,0.097,2.411,0.481c2.023-0.676,3.567-0.676,5.206-0.098c1.834,1.062,3.375,0.29,5.401,0
			c3.857-0.578,7.521-1.445,11.476-1.639c3.086-0.096,6.172-0.096,9.45-0.096c0.289,0.096,0.578,0.191,0.481,0.481
			c0,0.287-0.386,0.578-0.675,0.674c-4.822,0.29-9.451,0.481-13.693,1.832c-3.182-0.096-5.786,0.869-8.774,0.579
			c-7.138-0.675-14.658,0-21.408,0.868c-2.989-0.677-5.306,0.577-8.197,0.386c-7.521-0.579-15.332-0.579-21.986-2.797
			c-0.965-0.29-0.481-1.061-0.965-1.736c0.098-0.287,0.579,0,0.771-0.096c2.313,0.482,4.34,1.542,6.653,1.445
			c0.097,0.097,0.097,0.097,0.193,0.193c3.953-0.193,7.617,1.062,11.09,0.867c2.603,1.446,5.496-0.386,8.293,0.098
			c3.568,0.578,6.558-0.676,10.028-1.158c0.481-0.387,1.156-0.771,1.833-1.543c-1.158-3.086-4.728-5.014-5.111-7.521
			c0.482,0-0.675-0.771-0.192-2.313c-2.988-0.867-5.399,0.289-7.617-0.771c-1.832-0.482-3.665,0.482-5.594-0.578
			c-2.604,1.254-4.919,0.096-7.426,0.289c-1.445-1.254-2.025,1.253-3.761,0.098c-1.641,0.481-3.856,0.771-5.207,0
			c0.096-0.387,0.096-0.676,0-1.062c1.445-0.867,3.471,0.289,4.917-0.867c2.122-0.193,3.665,0.965,5.786,0.578
			c6.172-1.156,13.019,0.193,19.287-0.193c4.34-0.191,9.063,0.482,13.211-0.963c6.557-1.062,13.403-1.93,19.576-3.184
			c1.542-0.964,3.375-2.023,5.304-1.928C1032.949,918.064,1033.238,918.257,1033.335,918.643z"/>
		<path style="fill:#FF0050;" d="M1011.06,908.807c0.096,0.771,0.096,1.446-0.289,2.025c-0.193,0.289-0.677,0.191-1.062,0
			c-0.965-0.29-0.579-1.736-1.35-1.93c-0.193-0.578-0.387-1.156,0.096-1.543c0.482,0.097,0.964,0.097,1.446-0.192
			C1010.288,907.65,1010.479,908.325,1011.06,908.807z M1029.092,907.842c-0.192,0.868,0,1.93-0.675,2.604
			c-0.386-0.097-0.675-0.193-1.061-0.386c-0.388-0.676-1.062-1.254-0.771-1.931c0.578-0.481,0.867-0.964,1.254-1.444
			C1028.417,906.396,1028.706,907.167,1029.092,907.842z"/>
	</g>
	<path style="fill:none;stroke:#17192D;stroke-width:3;" d="M2048,0"/>
	<path style="fill:none;stroke:#17192D;stroke-width:3;" d="M2048,1536"/>
	<path style="fill:none;stroke:#17192D;stroke-width:3;" d="M0,1536"/>
	<path style="fill:none;stroke:#17192D;stroke-width:3;" d="M0,0"/>
</g>
</svg>
