<svg xmlns="http://www.w3.org/2000/svg" width="2048" height="1536" viewBox="0 0 2048 1536"><g fill="none" stroke="#17192D" stroke-width="3"><path d="M1266.297 1218.97c31.994 21.022 73.812 31.08 108.863 43.71 33.67 12.687 65.415 28.473 99.67 38.883 7.706 2.64 14.685 4.568 21.77 8.74M1408.3 1131.273c-1.165 4.557 62.026 44.393 72 51.436 17.823 12.68 31.696 29.296 49.513 41.972 12.865 9.906 27.223 22.003 36.787 35.064M1542.948 1269.857c4.85.528 8.98.336 13.822.854M1427.01 1236.99c13.97 3.855 26.213 15.297 38.904 21.457M1498.574 1314.168c13.596 5.9 29.116 25.574 42.615 22.27M1542.857 1336.887c-.96 5.943 2.532 12.544 4.693 17.932M1570.427 1263.545c3.602 1.238 12.052 2.943 11.315 7.89M1677.91 1337.798c-13.282-15.51-23.76-32.91-40.705-44.047-15.266-9.81-25.526-22.66-44.71-19.658-2.555.47-5.417 1.31-7.935 2.476M1548.216 1360.35c-.28 14.746 4.922 29.59 8.163 43.818 3.645 15.965 5.682 32.005 5.464 48.15-.02 6.315.272 12.614.55 18.566 7.135 1.07 15.535-5.285 18.097-12.424 1.972-6.056 2.272-13.434 2.928-20.125.57-8.448-2.057-16.392-2.108-24.462-.055-8.062 4.436-15.288 6.01-23.08 1.725-11.304-.356-21.378-2.15-32.17M1680.48 1340.498c4.268 2.412 5.212 7.032 7.136 11.132 2.014 4.274 6.184 6.198 9.438 9.372 3.176 3.107 5 7.27 8.028 10.38 3.475 3.56 6.998 5.598 8.997 10.568 1.885 4.67 4.876 6.833 8 10.736 2.876 3.58 5.77 7.943 7.962 11.952 3.03 5.542 12.897 22.77-.222 21.85-8.41-.596-16.693-11.73-22.12-17.945-3.294-3.766-7.463-6.274-10.658-10.2-2.932-3.59-4.942-7.73-8.79-9.714-7.92-4.094-11.367-10.09-16.508-17.345M1667.977 1365.508c4.725 2.674 5.773 7.803 7.91 12.336 2.227 4.744 6.853 6.877 10.453 10.396 3.523 3.44 5.544 8.06 8.902 11.5 3.852 3.95 7.756 6.208 9.98 11.72 2.08 5.168 5.396 7.57 8.864 11.897 3.186 3.97 6.393 8.804 8.82 13.247 3.36 6.14 14.297 25.242-.246 24.22-9.324-.66-18.502-13.002-24.516-19.896-3.648-4.172-8.27-6.953-11.816-11.305-3.248-3.977-5.477-8.566-9.74-10.76-8.783-4.54-12.6-11.185-18.293-19.23M1588.61 1397.748c12.048 4.088 14.63 20.635 23.623 28.37 3.935 3.373 8.568 4.515 11.99 8.462 3.712 4.28 6.072 9.617 10.28 13.29 3.737 3.274 8.558 4.576 11.984 8.548 4.062 4.72 7.253 10.246 12.482 13.737 2.41 1.614 4.064 2.29 5.945 4.712 2.048 2.636 3.876 5.133 6.294 7.418 4.167 3.938 9.193 6.755 14.33 8.723 6.554 2.516 12.015.908 13.356-7.205M1644.408 1419.672c4.776 4.392 7.013 11.85 12.034 16.428 4.27 3.897 8.532 5.73 12.513 10.547 4.854 5.883 11.844 8.277 17.097 13.18 3.506 3.28 5.7 7.97 9.424 11.213 4.72 4.104 9.482 7.99 14.87 10.606 8.804 4.27 8.25-3.474 8.377-10.462M1681.604 1409.898c-.888 1.625-1.248 3.48-2.345 5.02M1698.182 1427.017c-.386 1.694-1.105 3.356-1.7 4.987M1693.45 1380.934c-1.415.684-1.86 2.898-2.693 4.334M1710.624 1396.97c-1.072 1.44-1.822 3.253-2.345 5.02M1669.295 1436.08c-1.21.795-1.493 2.207-1.76 3.59M1691.034 1453.307c-.49 1.376-1.656 3.07-2.372 4.318M1671.642 1472.447c-.423-.104-.43-.5-.925-.264-.073 1.257-.53 1.91-1.213 2.824M1648.997 1449.654c-.525.612-.926 1.333-1.188 2.158M1643.208 1422.215c.983 1.357 1.28 3.146 1.192 4.857M1657.398 1401.908c.44 1.36.862 2.678.836 4.174M1668.746 1369.106c.463 1.18.472 2.48.5 3.835M1653.043 1343.18c-1.87 3.85.514 6.722 1.138 10.478M1642.672 1369.275c-2.006 6.398-1.534 11.16 2.063 16.737M1633.006 1383.057c-3.848 5.148-5.66 10.9-5.676 17.396-3.297-.02-5.838.782-8.53 2.56M1603.278 1318.845c-.7 8.757-.717 18.14-1.702 27.18-.683 6.237-1.863 14.756-4.465 20.112M1629.345 1332.363c.888.62-1.047 2.57-1.817 3.94-1.082 1.935-1.816 4.047-2.62 6.17-1.442 3.802-3.364 7.272-4.89 11.02-1.583 3.897-2.663 8.205-3.607 12.368-1.06 4.69-1.017 9.94-2.868 14.24M2048 0M2048 1536M0 1536M0 0"/></g></svg>