<?xml version="1.0" encoding="iso-8859-1"?>
<!-- Generator: Adobe Illustrator 15.1.0, SVG Export Plug-In . SVG Version: 6.00 Build 0)  -->
<!DOCTYPE svg PUBLIC "-//W3C//DTD SVG 1.1//EN" "http://www.w3.org/Graphics/SVG/1.1/DTD/svg11.dtd">
<svg version="1.1" xmlns="http://www.w3.org/2000/svg" xmlns:xlink="http://www.w3.org/1999/xlink" x="0px" y="0px" width="2048px"
	 height="1536px" viewBox="0 0 2048 1536" style="enable-background:new 0 0 2048 1536;" xml:space="preserve">
<g id="c1a_x5F_warze_x5F_l">
	<path style="fill:none;stroke:#17192D;stroke-width:3;" d="M1015.822,894.569c-0.348,0-5.214-3.474-6.951-4.169
		c-3.998-1.911-8.514-3.304-13.031-3.996c-4.344-0.524-9.385,1.215-9.385,6.602c0,4.691,5.213,5.908,8.863,6.602
		c-4.17,1.042-8.863,5.908-8.863,10.6c0,4.866,6.083,5.213,9.906,4.52c9.729-1.91,14.247-10.949,19.286-18.244
		c0.868-1.042,1.39-2.084,2.259-2.783"/>
	<path style="fill:none;stroke:#17192D;stroke-width:3;" d="M2048,0"/>
	<path style="fill:none;stroke:#17192D;stroke-width:3;" d="M2048,1536"/>
	<path style="fill:none;stroke:#17192D;stroke-width:3;" d="M0,1536"/>
	<path style="fill:none;stroke:#17192D;stroke-width:3;" d="M0,0"/>
</g>
<g id="Layer_1">
</g>
</svg>
