<svg xmlns="http://www.w3.org/2000/svg" width="2048" height="1536" viewBox="0 0 2048 1536"><g fill="none" stroke="#17192D" stroke-width="3"><path d="M887.88 966.42c30.712 8.324 72.18 10.894 95.855 30.803M755.023 1013.908c1.402 29.957 30.424 75.895 48.625 96.812 23.986 26.653 64.29 33.78 96.89 38.26 5.536.494 11.794 1.7 17.333 2.195M935.133 1151.87c5.465-1.008 13.066-.608 17.088-3.05M958.64 1138.762c.07 1.5.175 3.747.898 4.46M886.09 1046.068c17.36 2.945 39.205 13.186 52.83 24.555M972.592 1039.03c4.123-.196 6.91.423 10.42 1.76M990.38 1006.668c6.84-1.066 13.61-3.635 20.52-3.205M1022.662 1004.415c5.02 4.265 20.012.565 27.575.212 11.037.232 21.456 1.998 32.632 5.23 21.598 4.996 43.95 11.463 63.764 22.547-1.375.063-3.433.158-4.847-.524M1040.657 1065.122c27.68 2.462 53.228 3.52 79.89 13.536M967.487 1151.107c4.052-1.69 22.354 6.463 28.646 8.42 15.38 4.537 30.092 9.857 44.746 13.678 14.65 3.82 29.952 6.857 45.186 8.397 9.044 1.832 37.89-.267 43.637 4.72 0 0-.692.03-1.373.065M770.768 1011.662c2.678-1.628 9.01 1.083 11.21 3.98M749.747 983.683c-.272 7.853 1.194 17.75 4.597 23.81M2048 0M2048 1536M0 1536M0 0"/></g></svg>