<svg xmlns="http://www.w3.org/2000/svg" width="2048" height="1536" viewBox="0 0 2048 1536"><g fill="none" stroke="#17192D" stroke-width="3"><path d="M1536.428 766.484c.706-1.55 1.426-2.984 2.687-3.336M1731.115 838.373c-9.688-9.09-17.864-4.033-28.574-6.82-5.024-1.31-8.423-3.135-13.38-3.06-5.68.086-8.043 1.224-13.674-.33-5.586-1.548-10.71-.892-14.747-4.702-3.794-3.577-6.512-8.59-10.612-12.25-6.92-6.17-14.473-12.038-23.17-15.392-7.398-2.842-12.99-5.93-18.39-11.538M1731.842 842.216c-.068 2.203.12 4.39.564 6.608-3.52 1.332-7.77.992-11.72 2.03-3.226.85-6.97 4.285-10.132 4.272-4.13-.01-8.236-3.83-12.353-3.938-4.015-.098-8.066 2.235-12.01 2.304-4.14.073-7.883-2.088-12.11-2.583-4.275-.512-7.493 1.49-11.76 2.006-4.655.57-22.636-2.717-19.566-10.457M1628.266 863.133c-5.137 10.22 11.907 17.838 18.666 19.32 4.6 1.013 8.535.88 13.415 3.077 4.29 1.927 7.163 6.05 11.41 7.27 4.425 1.282 10.024-.914 14.567-.577 4.873.35 10.162 2.276 14.955 1.95 4.448-.31 7.397-3.564 11.487-4.812 4.082-1.247 9.2.3 13.132-1.66 7.555-3.777.37-9.646-4.602-12.625-6.128-3.677-10.726-4.61-17.4-3.38-6.986 1.295-11.695-1.77-18.612-2.818-5.53-.826-11.095-3.716-16.683-2.952-.93-3.787-5.206-6.562-8.488-8.2M1689.86 967.34c-4.9-1.658-9.046-5.3-14.264-6.958-4.772-1.51-8.642-4.954-13.18-6.497-4.43-1.507-7.27-5.463-11.053-7.725-4.19-2.516-8.216-7.61-12.75-9.373-9.603-3.726-12.883-6.71-20.63-12.98-6.735-5.444-12.443-8.757-18.123-15.375-2.07-2.422-4.273-4.46-6.175-7.042-2.275-3.094-8.692-4.496-11.705-6.434-1.837-1.177-3.502-2.017-5.14-3.58-3.395-3.254-6.887-6.458-10.41-9.403-3.142-2.627-6.215-5.633-8.605-8.993-2.578-3.618-4.86-8.014-8.028-10.926-.374-.34-.486-.528-.854-.72M1605.23 889.414c2.615 4.22 5.534 8.605 9.54 11.316 4.818 3.27 10.256 3.174 15.29 5.77 2.25 1.162 4.288 2.732 6.406 4.256 1.64 1.18 3.214 2.363 4.946 3.35 1.277.723 1.652 1.594 2.65 2.663 1.807 1.922 3.757 3.87 5.777 5.35 2.25 1.644 5.52 2.356 8.095 3.355 4.912 1.91 9.96 3.366 14.35 6.234 2.162 1.415 4.21 2.45 6.104 4.193 1.973 1.806 4.333 2.707 6.853 3.372 2.475.65 5.035.586 7.57 1.16 2.218.494 4.212 1.954 6.494 2.197 1.532.167 2.415.4 3.808 1.23 2.21 1.324 4.376 2.8 6.727 3.803 6 2.56 8.044-1.92 7.8-8.252-.314-8.435-11.42-13.36-17.173-16.152-7.882-3.826-10.73-6.382-19.405-9.745-6.13-5.107-17.93-13.115-24.972-14.813-3.364-7.556-20.343-11.76-21.146-15.92M1608.975 916.77c1.51 3.337 0 7.47-1.247 10.74-3.11-4.724-9.333-7.568-13.966-9.902-3.633-1.832-4.918-2.414-7.225-5.8-3.31-4.834-6.504-10.613-11.322-13.855-4.433-2.974-9.847-2.91-14.61-5.613-14.997-8.512-29.124-29.738-33.73-47.2-.81-3.08-1.505-6.73-2.36-9.484M1605.885 922.666M1612.172 809.273c-7.447-2.818-11.803-11.316-19.71-14.047M1688.752 964.676c-.258.084-2.93 1.64-.807.5 6.1-3.274 1.796-14.16-2.018-19.255M1603.49 883.953c-.912-1.49-.186-5.363-.852-6.003M1627.154 874.336c-1.21-.71-1.9-2.076-3.07-3.007-1.365-1.088-2.76-1.736-4.355-2.353M1639.48 849.686c-1.995-.484-5.583-4.807-8.132-3.162M1658.93 823.18c-.932.5-2.03 1.59-2.465 2.592M1583.39 861.078c-1.82-2.363-4.735-3.93-6.944-5.852-.67-.578-1.255-1.354-1.988-1.828-.766-.506-1.635-.488-2.24-1.27M1591.645 850.627c-1.264.185-2.485-2.092-3.547-2.798-1.607-1.074-3.123-1.494-4.438-3-1.54-1.77-4.438-3.687-6.66-4.475-.087.143-.086.304-.166.445M1597.843 841.503c-2.11-1.903-3.846-4.335-5.98-6.262-1.553-1.404-3.166-2.38-4.966-3.287-.854-.44-3.39-1.022-3.41-2.23M1603.63 829.562c-3.15-2.253-6.636-3.373-9.997-5.115-2.354-1.217-4.19-2.874-6.722-3.854M1551.43 857.366c-.603-1.077.635-3.646 1.47-4.577M1547.562 855.156c-.346-1.7-.098-4.452-1.927-5.186M1555.976 781.098c-1.016-1.092-4.752.5-5.615 1.72M1608.692 782.757c-.995.354-5.053-6.77-6.23-8.044-2.568-2.764-6.02-4.334-9.22-5.93-3.515-1.757-6.96-3.463-10.704-4.865-3.97-1.488-8.267-1.328-12.393-1.44-1.086-.028-2.283-.08-3.41-.132-1.086-.053-2.973.426-3.95.133-1.097-.323-2.385-2.262-3.292-3.036-1.087-.92-2.217-1.905-3.364-2.763-2.18-1.624-4.754-3.01-7.486-3.75-2.265-.615-6.923-1.875-9.05-.708M1502.344 821.376s-.416-.686-.62-1.146c3.958 3.013 6.24 7.59 10.83 9.698 2.926 1.402 6.895 1.457 10.03 1.493M2048 0M2048 1536M0 1536M0 0"/></g></svg>