<svg xmlns="http://www.w3.org/2000/svg" width="2048" height="1536" viewBox="0 0 2048 1536"><g fill="none" stroke="#17192D" stroke-width="3"><path d="M1010.908 427.748c-7.017-2.675-11.423-8.476-17.82-12.683-7.844-5.635-17.645-8.932-26.793-13.008-16.2-7.503-30.818-10.57-48.08-11.27-35.86-.576-68.996 12.984-96.034 39.018-17.146 16.566-43.055 37.288-50.875 61.676M917.236 546.967c14.207 9.094 52.504 2.8 65.223-5.298M913.218 593.692c26.48 6.274 62.095 1.606 84.778-14.467M989.4 409.982c12.657 5.415 27.824 5.456 41.135 10.09 11.174 3.23 23.074 7.18 33.636 11.94 23.906 10.147 43.08 37.023 55.886 60.45M1229.217 527.897c-23.284-11.674-43.484-31-67.423-41.89-18.337-8.902-39.93-13.9-57.542-22.087M998.823 582.193c19.86 26.844 75.462 37.012 104.802 45.4 23.004 5.68 52.207 11.077 72.77 23.624M1037.2 528.993c47.494 13.552 95.78 29.31 138.372 55.847M1218.467 637.243c-3.948 3.937-8.656 6.408-13.33 9.63M1230.553 527.084c73.092 30.363 138.554 74.597 194.375 133.545 7.95 7.885 15.967 17.268 21.27 27.533M1192.84 663.958c37.187 29.04 82.728 44.932 124.93 63.226 33.74 14.19 70.747 24.473 102.563 41.754 26.866 14.508 52.53 32.826 77.438 49.677M1244.12 626.262c11.356 6.978 26.182 14.543 35.433 20.865M1263.855 576.547c5.43-1.753 10.97-1.26 16.5-.77M1222.52 561.963c.758 1.466 10.077 9.288 13.002 12.906M1402.486 637.658c24.328 19.132 49.852 34.453 72.907 55.898 20.85 18.543 42.668 43.045 62.763 60.124M2048 0M2048 1536M0 1536M0 0"/></g></svg>