<?xml version="1.0" encoding="iso-8859-1"?>
<!-- Generator: Adobe Illustrator 15.1.0, SVG Export Plug-In . SVG Version: 6.00 Build 0)  -->
<!DOCTYPE svg PUBLIC "-//W3C//DTD SVG 1.1//EN" "http://www.w3.org/Graphics/SVG/1.1/DTD/svg11.dtd">
<svg version="1.1" xmlns="http://www.w3.org/2000/svg" xmlns:xlink="http://www.w3.org/1999/xlink" x="0px" y="0px" width="2048px"
	 height="1536px" viewBox="0 0 2048 1536" style="enable-background:new 0 0 2048 1536;" xml:space="preserve">
<g id="c1a_x5F_oberarm_x5F_h">
	<g>
		<path style="fill:none;stroke:#17192D;stroke-width:3;" d="M887.881,966.421c30.711,8.323,72.178,10.893,95.854,30.802"/>
		<path style="fill:none;stroke:#17192D;stroke-width:3;" d="M755.023,1013.908c1.402,29.957,30.424,75.895,48.625,96.812
			c23.986,26.653,64.291,33.78,96.891,38.259c5.535,0.495,11.793,1.702,17.332,2.196"/>
		<path style="fill:none;stroke:#17192D;stroke-width:3;" d="M935.133,1151.871c5.465-1.009,13.066-0.609,17.088-3.051"/>
		<path style="fill:none;stroke:#17192D;stroke-width:3;" d="M958.641,1138.762c0.07,1.5,0.174,3.747,0.897,4.46"/>
		<path style="fill:none;stroke:#17192D;stroke-width:3;" d="M886.089,1046.068c17.362,2.945,39.206,13.186,52.831,24.555"/>
		<path style="fill:none;stroke:#17192D;stroke-width:3;" d="M972.592,1039.029c4.123-0.195,6.911,0.424,10.419,1.762"/>
		<path style="fill:none;stroke:#17192D;stroke-width:3;" d="M990.379,1006.668c6.84-1.066,13.612-3.635,20.52-3.205"/>
		<path style="fill:none;stroke:#17192D;stroke-width:3;" d="M1022.662,1004.415c5.021,4.265,20.012,0.565,27.575,0.212
			c11.037,0.232,21.456,1.998,32.632,5.229c21.599,4.997,43.952,11.464,63.765,22.548c-1.375,0.063-3.433,0.158-4.847-0.524"/>
		<path style="fill:none;stroke:#17192D;stroke-width:3;" d="M1040.657,1065.122c27.68,2.462,53.228,3.521,79.889,13.536"/>
		<path style="fill:none;stroke:#17192D;stroke-width:3;" d="M967.487,1151.107c4.052-1.691,22.354,6.463,28.646,8.421
			c15.379,4.536,30.092,9.856,44.746,13.677c14.652,3.82,29.953,6.857,45.187,8.397c9.044,1.832,37.89-0.267,43.637,4.721
			c0,0-0.692,0.03-1.373,0.064"/>
		<path style="fill:none;stroke:#17192D;stroke-width:3;" d="M770.768,1011.662c2.678-1.628,9.009,1.083,11.209,3.981"/>
		<path style="fill:none;stroke:#17192D;stroke-width:3;" d="M749.747,983.683c-0.272,7.853,1.194,17.749,4.597,23.81"/>
	</g>
	<path style="fill:none;stroke:#17192D;stroke-width:3;" d="M2048,0"/>
	<path style="fill:none;stroke:#17192D;stroke-width:3;" d="M2048,1536"/>
	<path style="fill:none;stroke:#17192D;stroke-width:3;" d="M0,1536"/>
	<path style="fill:none;stroke:#17192D;stroke-width:3;" d="M0,0"/>
</g>
<g id="Layer_1">
</g>
</svg>
