<svg xmlns="http://www.w3.org/2000/svg" width="2048" height="1536" viewBox="0 0 2048 1536"><g fill="none" stroke="#17192D" stroke-width="3"><path d="M1407.57 539.842c.895 4.46 3.787 7.33 7.327 9.412M1456.56 565.824c12.66 4.19 25.347 9.255 37.63 14.776 11.464 5.09 22.49 8.865 31.214 17.978 12.635 12.446 19.392 21.777 22.604 24.207M1562.05 503.626c-24.903 7.46-50.885-23.354-68.884-37.95-34.653-26.488-69.346-54.352-105.254-80.813-33.53-26.927-68.53-61.177-105.842-88.854M1227.162 437.216c49.69 62.024 137.97 96.65 209.89 121.624M1227.875 349.892c8.553.926 17.044.525 24.192-2.453M1299.475 319.996c-1.09 2.7-.97 5.342 1.52 6.55M1152.943 424.464c6.438 7.645 16.632 17.76 19.3 22.928M1219.36 452.143c6.06-.28 13.338-.62 19.397-.904M1276.58 506.398c13.77 8.62 25.3 21.317 36.77 32.697M1463.207 573.133c-1.15 1.375 13.795 35.095 15.436 44.286 4.56 19.644 8.283 47.27-4.254 65.067M1274.007 291.228c-9.4-12.104-20.39-18.01-32.29-26.204-13.865-10.15-27.23-16.694-43.096-22.494-15.16-5.54-40.8 3.655-50.512 7.898-20.202 9.112-34.28 24.88-50.91 39.723-17.623 15.726-20.897 43.182-16.863 69.047 2.634 16.882 7.95 32.595 14.313 48.34 5.757 14.318 10.468 29.273 18.56 42.018 4.364 7.386 8.98 14.46 13.076 21.853M754.174 523.05c-24.432 22.916-43.42 59.082-52.882 92.55M695.604 617.898c-8.8 3.412-16.843 8.293-22.754 14.572M608.264 649.663c5.186-6.998 13.404-8.128 21.005-7.734M601.662 651.473c-2.75.127-4.745 1.722-6.705 4.068M631.484 640.85c7.94-7.125 26.474-8.74 34.726-9.125M675.286 649.095c3.51 1.335 6.332 2.705 9.19 4.822M713.648 629.286c7.012 2.675 12.727 6.916 17.75 11.18M799.092 806.207c9.348-6.444 20.247-9.208 28.87-16.365M725.643 841.91c7.46-2.604 17.598-6.826 23.54-12.36M681.236 820.714c3.436-.157 6.117-1.786 8.107-3.38M618.507 824.7c5.774 5.732 13.586 10.622 20.218 5.056M678.743 840.64c-3.97-4.827 10.41 7.936 15.266 8.37M642.527 833.032c7.947 7.883 23.87 9.39 32.563 3.73M687.05 853.143c-.66 1.312 1.642 6.123 3.392 8.895M938.79 595.488c-.923 9.805-21.855 19.037-29.208 23.88M850.873 601.847c8.285.36 15.885.76 23.52 1.9M796.21 523.328c2.857 2.12 5.746 4.99 8.6 7.102M691.2 872.02c7.353 39.438 38.845 79.247 60.91 108.992M1222.634 1051.357c9.382-5.69 15.77-16.498 25.08-23.688 7.354-4.847 15.466-8.228 22.854-12.327 15.503-7.48 30.42-12.68 46.028-17.914 34.617-11.374 68.582-21.967 104.338-23.638 4.814-.223 17.192-.8 17.876-.835M1547.97 911.25c-3.845-3.447-45.83 24.905-55.95 29.774-21.068 11.16-44.877 22.003-66.43 30.84M1265.35 1198.74c-.99 8.306-8.862 16.928-13.39 23.15M1202.31 1132.625c6.84-1.066 14.374-2.172 21.175-3.988M1219.186 1080.793c.07 1.5-1.645 9.084-2.155 12.866M1259.896 1214.76c66.02-32.354 130.083-77.387 190.804-120.004 46.048-32.174 99.663-64.702 140.76-99.646M1246.68 887.353c-3.94 9.066-17.402 24.272-24.067 34.874-13.367 19.7-28.127 38.68-40.103 59.112-11.334 18.17-21.98 36.336-33.995 54.52-10.693 15.908-17.194 34.754-25.807 51.39M1119.9 1094.436c-5.105 23.51-9.38 49.986 1.473 75.75 7.062 18.438 8.692 38.625 21.122 53.807 10.973 13.753 24.9 16.857 41.44 16.834 22.727-.31 48.436-10.52 65.72-24.09M1060.105 965.123c25.1-8.676 51.12-12.146 75.562-20.04 12.89-4.354 41.424-13.192 46.4-24.683M1052.37 961.733c-3.497 13.673-25.353 32.708-36.688 40.74M958.035 978.145c23.893-4.867 52.278-16.697 73.038-29.682M1176.087 925.182c-3.915 4.686 10.385 1.016 12.45.922 10.966-1.265 21.104-5.488 30.625-8.186M1222.54 754.125c6.946 1.18 15.89.76 22.005-1.03M1275.022 726.906c2.137 1.398 4.21 16.314 5.14 21.526 2.007 13.42 1.227 26.216-2.308 39.14M1372.95 772.625c1.34-.817 1.995-1.594 3.366-1.658-29.186 9.617-68.74 33.235-88.212 58.91M1266.605 871.412c9.314-7.186 20.936-9.23 31.833-11.99M1037.13 852.325c2.18 17.164 12.45 45.207 4.21 60.603M1040.62 612.71c1.49 17.196 5.802 35.762-1.714 51.875M933.432 731.594c9.22 5.572 54.674 4.95 60.547-2.08M971.03 754.606c8.393 2.61 17.506 5.94 24.628 10.863M1083.854 853.678c3.416 14.104 4.8 29.05-.76 42.818M1119.517 864.77c-4.42 23.48-16.714 40.563-29.628 59.185M1130.43 877.025c-1.437 13.58-12.252 32.85-21.463 42.28M1145.11 881.593c1.9 11.167-10.083 34.997-18.774 40.66M1060.403 720.412c-.655.777-5.295 4.75-7.25 7.092M1053.896 758.242c1.446 1.436 2.893 2.87 4.336 4.307M1076.448 621.326c1.69 6.678 2.04 14.17.98 20.974M1124.693 723.105c-1.677 8.337-7.343 19.86-5.543 28.783 1.865 10.422 9.745 16.812 8.965 29.612M1161.625 718.687c.725.718-4.87 13.736-6.002 19.047-4.078 15.95 2.883 32.143 7.057 47.71M1199.62 720.667c-3.6 11.423-9.44 19.205-6.782 31.843 1.863 10.424 11.504 24.98 5.804 35.76M846.152 943.59c4.125-.19 20.324 7.31 17.613 8.183M1194.774 735.157c1.27-2.312 9.85 19.056 1.295 27.712M1682.326 893.086c2.078 7.1 2.834 14.743 2.917 22.18M1683.688 964.574c1.854 12.2 1.773 25.08.77 37.486M1591.468 997.646c3.23 9.022 7.894 18.737 13.892 26.872M1694.196 1124.766c-.837 1.53 2.146 6.854 2.763 10.297 1.8 9.35-.1 17.38 2.156 26.705 4.18 21.153-1.4 38.29-23.755 37.843-2.282-9.818.438-19.874-2.754-29.652-2.757-10.298-11.134-23.803-5.233-34.006M1626.284 1163.678c2.905-1.264 3.59 11.232 3.738 12.8.626 6.732 1.016 12.156 8.112 14.332 4.566 1.4 6.486-.954 10.25-2.85M1655.334 1151.4c.223 4.738.946 10.502 3.012 15.855 1.86 4.822 2.848 9.47 2.434 15.06-.38 5.088-2.19 9.063 1.293 13.323 4.868 5.96 8.338.868 12.056-2.918M1640.605 1158.05c3.374 5.366 2.893 11.79 4.668 17.674 1.39 4.617 1.376 11.864 3.623 15.812 1.815 3.19 8.8 4.645 11.132 1.843M1683.94 1002.636c.377 17.85 5.667 33.487 10.546 50.142 7.116 25.48 5.38 46.9-.307 71.494M1667.475 1001.42c1.713 7.363 7.47 13.548 6.02 21.56M1649.978 1104.992c1.366 9.867 2.536 15.27 10.11 21.37M1686.136 1078.977c1.934 2.395 2.506 4.846 2.167 7.345M1604.762 1024.697c.383 27.78 8.062 55.72 9.362 83.456 1.2 25.757-.71 53.15 14.79 72.776l-.434.517M604.185 824.15c-.312 1.742 9.188 1.3 11.96 1.168M745.34 880.66c13.754 21.2 32.585 34.22 49.793 51.285M763.496 605.794c15.908-10.667 29.63-29.18 45.632-37.868M1338.307 969.465c9.204-11.018 22.234-18.244 28.953-30.472M1428.227 969.24c38.538-33.57 74.918-113.36 42.132-164.783M765.75 495.543c-8.732 6.308-11.97 14.325-13.315 24.22M1594.817 958.148c6.892 1.17 16.367-.764 22.094-5M1548.285 909.6c9.868-3.653 15.143-16.207 24.637-18.93M2048 0M2048 1536M0 1536M0 0"/></g></svg>