<?xml version="1.0" encoding="iso-8859-1"?>
<!-- Generator: Adobe Illustrator 15.1.0, SVG Export Plug-In . SVG Version: 6.00 Build 0)  -->
<!DOCTYPE svg PUBLIC "-//W3C//DTD SVG 1.1//EN" "http://www.w3.org/Graphics/SVG/1.1/DTD/svg11.dtd">
<svg version="1.1" xmlns="http://www.w3.org/2000/svg" xmlns:xlink="http://www.w3.org/1999/xlink" x="0px" y="0px" width="2048px"
	 height="1536px" viewBox="0 0 2048 1536" style="enable-background:new 0 0 2048 1536;" xml:space="preserve">
<g id="c1a_x5F_unterarm_x5F_h">
	<g>
		<path style="fill:none;stroke:#17192D;stroke-width:3;" d="M1266.297,1218.971c31.994,21.021,73.812,31.08,108.863,43.708
			c33.669,12.688,65.415,28.474,99.669,38.884c7.707,2.641,14.686,4.568,21.772,8.741"/>
		<path style="fill:none;stroke:#17192D;stroke-width:3;" d="M1408.299,1131.273c-1.164,4.557,62.027,44.393,72.001,51.436
			c17.823,12.682,31.696,29.297,49.513,41.973c12.865,9.906,27.223,22.003,36.787,35.064"/>
		<path style="fill:none;stroke:#17192D;stroke-width:3;" d="M1542.948,1269.857c4.851,0.528,8.979,0.336,13.822,0.854"/>
		<path style="fill:none;stroke:#17192D;stroke-width:3;" d="M1427.011,1236.989c13.968,3.856,26.212,15.298,38.903,21.458"/>
		<path style="fill:none;stroke:#17192D;stroke-width:3;" d="M1498.574,1314.168c13.596,5.9,29.116,25.574,42.615,22.271"/>
		<path style="fill:none;stroke:#17192D;stroke-width:3;" d="M1542.857,1336.887c-0.959,5.943,2.532,12.544,4.693,17.932"/>
		<path style="fill:none;stroke:#17192D;stroke-width:3;" d="M1570.427,1263.545c3.602,1.238,12.052,2.943,11.315,7.891"/>
		<path style="fill:none;stroke:#17192D;stroke-width:3;" d="M1677.91,1337.798c-13.282-15.509-23.759-32.909-40.705-44.047
			c-15.266-9.81-25.526-22.662-44.709-19.659c-2.556,0.471-5.418,1.309-7.936,2.476"/>
		<path style="fill:none;stroke:#17192D;stroke-width:3;" d="M1548.216,1360.35c-0.28,14.746,4.922,29.59,8.163,43.818
			c3.646,15.965,5.683,32.005,5.465,48.15c-0.02,6.315,0.272,12.614,0.55,18.566c7.135,1.069,15.535-5.285,18.097-12.424
			c1.971-6.056,2.271-13.434,2.927-20.125c0.571-8.448-2.057-16.392-2.108-24.462c-0.055-8.062,4.436-15.288,6.01-23.079
			c1.725-11.305-0.356-21.379-2.149-32.17"/>
		<path style="fill:none;stroke:#17192D;stroke-width:3;" d="M1680.48,1340.498c4.268,2.412,5.212,7.032,7.136,11.132
			c2.014,4.274,6.184,6.198,9.438,9.372c3.176,3.107,4.999,7.271,8.028,10.381c3.475,3.559,6.998,5.597,8.997,10.567
			c1.886,4.671,4.877,6.833,8,10.736c2.877,3.581,5.772,7.943,7.963,11.952c3.03,5.542,12.897,22.771-0.222,21.849
			c-8.411-0.595-16.693-11.729-22.121-17.944c-3.293-3.766-7.462-6.274-10.657-10.199c-2.932-3.592-4.942-7.731-8.789-9.715
			c-7.921-4.093-11.368-10.09-16.509-17.344"/>
		<path style="fill:none;stroke:#17192D;stroke-width:3;" d="M1667.977,1365.508c4.725,2.674,5.773,7.803,7.91,12.336
			c2.227,4.744,6.853,6.877,10.453,10.396c3.523,3.439,5.544,8.06,8.902,11.5c3.852,3.951,7.756,6.208,9.979,11.721
			c2.082,5.167,5.397,7.568,8.865,11.896c3.186,3.97,6.393,8.804,8.82,13.247c3.359,6.141,14.297,25.242-0.246,24.219
			c-9.324-0.658-18.502-13.001-24.516-19.895c-3.648-4.172-8.27-6.953-11.816-11.305c-3.248-3.977-5.477-8.566-9.74-10.76
			c-8.783-4.539-12.6-11.185-18.293-19.229"/>
		<path style="fill:none;stroke:#17192D;stroke-width:3;" d="M1588.609,1397.748c12.049,4.088,14.631,20.635,23.624,28.369
			c3.935,3.374,8.568,4.516,11.991,8.463c3.711,4.279,6.071,9.617,10.278,13.289c3.738,3.275,8.559,4.577,11.985,8.549
			c4.062,4.721,7.253,10.246,12.482,13.737c2.412,1.614,4.065,2.29,5.946,4.712c2.048,2.636,3.876,5.133,6.294,7.418
			c4.168,3.938,9.194,6.755,14.33,8.723c6.555,2.516,12.016,0.908,13.357-7.205"/>
		<path style="fill:none;stroke:#17192D;stroke-width:3;" d="M1644.408,1419.672c4.776,4.392,7.013,11.851,12.034,16.428
			c4.269,3.897,8.532,5.729,12.513,10.547c4.854,5.883,11.844,8.277,17.097,13.18c3.506,3.28,5.7,7.971,9.424,11.213
			c4.721,4.104,9.482,7.991,14.87,10.606c8.804,4.271,8.249-3.474,8.377-10.462"/>
		<path style="fill:none;stroke:#17192D;stroke-width:3;" d="M1681.604,1409.898c-0.888,1.625-1.248,3.481-2.345,5.021"/>
		<path style="fill:none;stroke:#17192D;stroke-width:3;" d="M1698.182,1427.017c-0.386,1.694-1.105,3.356-1.701,4.987"/>
		<path style="fill:none;stroke:#17192D;stroke-width:3;" d="M1693.45,1380.934c-1.415,0.684-1.86,2.898-2.693,4.334"/>
		<path style="fill:none;stroke:#17192D;stroke-width:3;" d="M1710.624,1396.969c-1.072,1.442-1.822,3.254-2.345,5.021"/>
		<path style="fill:none;stroke:#17192D;stroke-width:3;" d="M1669.295,1436.079c-1.211,0.796-1.493,2.208-1.759,3.591"/>
		<path style="fill:none;stroke:#17192D;stroke-width:3;" d="M1691.034,1453.307c-0.489,1.376-1.656,3.07-2.372,4.318"/>
		<path style="fill:none;stroke:#17192D;stroke-width:3;" d="M1671.642,1472.447c-0.423-0.104-0.431-0.5-0.925-0.264
			c-0.073,1.257-0.53,1.909-1.213,2.824"/>
		<path style="fill:none;stroke:#17192D;stroke-width:3;" d="M1648.997,1449.654c-0.525,0.612-0.926,1.333-1.188,2.158"/>
		<path style="fill:none;stroke:#17192D;stroke-width:3;" d="M1643.208,1422.215c0.983,1.357,1.279,3.146,1.192,4.857"/>
		<path style="fill:none;stroke:#17192D;stroke-width:3;" d="M1657.398,1401.908c0.441,1.361,0.862,2.678,0.836,4.174"/>
		<path style="fill:none;stroke:#17192D;stroke-width:3;" d="M1668.746,1369.106c0.463,1.181,0.472,2.479,0.5,3.835"/>
		<path style="fill:none;stroke:#17192D;stroke-width:3;" d="M1653.043,1343.179c-1.87,3.851,0.514,6.723,1.138,10.479"/>
		<path style="fill:none;stroke:#17192D;stroke-width:3;" d="M1642.672,1369.275c-2.006,6.398-1.534,11.16,2.063,16.737"/>
		<path style="fill:none;stroke:#17192D;stroke-width:3;" d="M1633.006,1383.057c-3.848,5.148-5.659,10.901-5.676,17.396
			c-3.297-0.021-5.838,0.782-8.529,2.56"/>
		<path style="fill:none;stroke:#17192D;stroke-width:3;" d="M1603.278,1318.845c-0.7,8.757-0.717,18.14-1.702,27.179
			c-0.683,6.238-1.863,14.757-4.465,20.113"/>
		<path style="fill:none;stroke:#17192D;stroke-width:3;" d="M1629.345,1332.363c0.888,0.619-1.047,2.57-1.817,3.941
			c-1.082,1.934-1.816,4.046-2.619,6.168c-1.443,3.803-3.365,7.273-4.891,11.02c-1.583,3.898-2.663,8.206-3.607,12.369
			c-1.062,4.688-1.018,9.938-2.869,14.238"/>
	</g>
	<path style="fill:none;stroke:#17192D;stroke-width:3;" d="M2048,0"/>
	<path style="fill:none;stroke:#17192D;stroke-width:3;" d="M2048,1536"/>
	<path style="fill:none;stroke:#17192D;stroke-width:3;" d="M0,1536"/>
	<path style="fill:none;stroke:#17192D;stroke-width:3;" d="M0,0"/>
</g>
<g id="Layer_1">
</g>
</svg>
