<?xml version="1.0" encoding="iso-8859-1"?>
<!-- Generator: Adobe Illustrator 15.1.0, SVG Export Plug-In . SVG Version: 6.00 Build 0)  -->
<!DOCTYPE svg PUBLIC "-//W3C//DTD SVG 1.1//EN" "http://www.w3.org/Graphics/SVG/1.1/DTD/svg11.dtd">
<svg version="1.1" xmlns="http://www.w3.org/2000/svg" xmlns:xlink="http://www.w3.org/1999/xlink" x="0px" y="0px" width="2048px"
	 height="1536px" viewBox="0 0 2048 1536" style="enable-background:new 0 0 2048 1536;" xml:space="preserve">
<g id="c1a_x5F_augen">
	<g>
		<path style="fill:none;stroke:#17192D;stroke-width:3;" d="M534.989,698.349c-25.638-6.093-80.086-17.82-60.091-52.225
			c13.833-24.405,54.492-9.537,80.49,5.938"/>
		<path style="fill:none;stroke:#17192D;stroke-width:3;" d="M536.385,698.457c2.398-16.851,5.986-35.838,15.998-49.282"/>
		<path style="fill:none;stroke:#17192D;stroke-width:3;" d="M524.318,765.195c-25.844-5.144-80.221-17.179-76.387,22.431
			c2.404,27.95,45.562,31.382,75.641,28.146"/>
		<path style="fill:none;stroke:#17192D;stroke-width:3;" d="M526.425,765.694c-3.915,16.565-7.503,35.552-3.087,51.726"/>
		<path style="fill:none;stroke:#17192D;stroke-width:3;" d="M527.648,705.768c4.334-0.851,9.326-0.747,13.663-1.599"/>
		<path style="fill:none;stroke:#17192D;stroke-width:3;" d="M517.59,758.99c5.492,1.872,10.33,2.787,15.977,3.853"/>
	</g>
	<path style="fill:none;stroke:#17192D;stroke-width:3;" d="M2048,0"/>
	<path style="fill:none;stroke:#17192D;stroke-width:3;" d="M2048,1536"/>
	<path style="fill:none;stroke:#17192D;stroke-width:3;" d="M0,1536"/>
	<path style="fill:none;stroke:#17192D;stroke-width:3;" d="M0,0"/>
</g>
<g id="Layer_1">
</g>
</svg>
