<svg xmlns="http://www.w3.org/2000/svg" width="2048" height="1536" viewBox="0 0 2048 1536"><g><path d="M809.18 796.838c3.586.95 9.422.26 12.803-1.494 1.56-.756 2.976-2.867 3.642-4.433.794-2.31-.938-3.666-2.72-4.27-3.885-1.22-8.29-1.795-11.882-3.76 2.472-.198 4.856-.238 7.325-.358 1.832-.068 4.287-.02 5.725-1.29 3.724-3.332-3.05-6.392-5.277-7.437-3.007-1.257-6.674-1.036-9.682-2.29 2.19-.727 4.992.102 7.28.31 1.89.185 3.867.293 5.845.4.712.038 1.952.443 2.4-.292.604-.725-.347-1.87-.692-2.645-.268-.69-1.14-1.83-1.246-2.594-.066-1.35 1.55-.587 1.71-1.758l.085-.08c-1.97-3.643-6.623-5.238-9.908-7.017 2.21.118 10.907 2.862 11.395-.73.595-4.008-6.45-7.674-9.43-8.17-1.57-.254-2.882-.83-4.355-1.33M2048 0M2048 1536M0 1536M0 0" fill="none" stroke="#17192D" stroke-width="3"/></g></svg>