<?xml version="1.0" encoding="iso-8859-1"?>
<!-- Generator: Adobe Illustrator 15.1.0, SVG Export Plug-In . SVG Version: 6.00 Build 0)  -->
<!DOCTYPE svg PUBLIC "-//W3C//DTD SVG 1.1//EN" "http://www.w3.org/Graphics/SVG/1.1/DTD/svg11.dtd">
<svg version="1.1" xmlns="http://www.w3.org/2000/svg" xmlns:xlink="http://www.w3.org/1999/xlink" x="0px" y="0px" width="2048px"
	 height="1536px" viewBox="0 0 2048 1536" style="enable-background:new 0 0 2048 1536;" xml:space="preserve">
<g id="c1a_x5F_zahne">
	<g>
		<path style="fill:none;stroke:#17192D;stroke-width:3;" d="M809.18,796.838c3.586,0.951,9.422,0.259,12.803-1.494
			c1.56-0.756,2.976-2.867,3.642-4.433c0.794-2.312-0.938-3.667-2.72-4.271c-3.885-1.221-8.291-1.795-11.882-3.759
			c2.472-0.199,4.856-0.239,7.325-0.359c1.832-0.068,4.287-0.021,5.725-1.289c3.724-3.333-3.051-6.393-5.277-7.438
			c-3.007-1.257-6.674-1.036-9.682-2.29c2.191-0.727,4.992,0.102,7.279,0.309c1.891,0.186,3.868,0.294,5.846,0.4
			c0.713,0.039,1.953,0.444,2.4-0.291c0.605-0.725-0.346-1.87-0.691-2.645c-0.268-0.689-1.141-1.829-1.246-2.594
			c-0.066-1.35,1.551-0.587,1.709-1.758l0.086-0.081c-1.97-3.642-6.623-5.237-9.908-7.016c2.212,0.119,10.908,2.863,11.396-0.729
			c0.595-4.008-6.451-7.674-9.43-8.169c-1.57-0.255-2.882-0.831-4.355-1.331"/>
	</g>
	<path style="fill:none;stroke:#17192D;stroke-width:3;" d="M2048,0"/>
	<path style="fill:none;stroke:#17192D;stroke-width:3;" d="M2048,1536"/>
	<path style="fill:none;stroke:#17192D;stroke-width:3;" d="M0,1536"/>
	<path style="fill:none;stroke:#17192D;stroke-width:3;" d="M0,0"/>
</g>
<g id="Layer_1">
</g>
</svg>
