<?xml version="1.0" encoding="iso-8859-1"?>
<!-- Generator: Adobe Illustrator 15.1.0, SVG Export Plug-In . SVG Version: 6.00 Build 0)  -->
<!DOCTYPE svg PUBLIC "-//W3C//DTD SVG 1.1//EN" "http://www.w3.org/Graphics/SVG/1.1/DTD/svg11.dtd">
<svg version="1.1" xmlns="http://www.w3.org/2000/svg" xmlns:xlink="http://www.w3.org/1999/xlink" x="0px" y="0px" width="2048px"
	 height="1536px" viewBox="0 0 2048 1536" style="enable-background:new 0 0 2048 1536;" xml:space="preserve">
<g id="c1a_x5F_armv">
	<g>
		<path style="fill:none;stroke:#17192D;stroke-width:3;" d="M1010.908,427.748c-7.017-2.675-11.423-8.476-17.819-12.683
			c-7.845-5.635-17.646-8.932-26.794-13.008c-16.201-7.503-30.818-10.571-48.08-11.271c-35.859-0.575-68.996,12.985-96.034,39.019
			c-17.147,16.566-43.056,37.288-50.876,61.676"/>
		<path style="fill:none;stroke:#17192D;stroke-width:3;" d="M917.236,546.967c14.207,9.094,52.504,2.801,65.223-5.298"/>
		<path style="fill:none;stroke:#17192D;stroke-width:3;" d="M913.218,593.692c26.479,6.274,62.095,1.606,84.778-14.467"/>
		<path style="fill:none;stroke:#17192D;stroke-width:3;" d="M989.4,409.982c12.657,5.415,27.824,5.456,41.135,10.091
			c11.174,3.228,23.074,7.179,33.636,11.94c23.905,10.146,43.078,37.022,55.885,60.45"/>
		<path style="fill:none;stroke:#17192D;stroke-width:3;" d="M1229.217,527.897c-23.284-11.674-43.484-31.001-67.423-41.889
			c-18.337-8.903-39.931-13.9-57.542-22.088"/>
		<path style="fill:none;stroke:#17192D;stroke-width:3;" d="M998.823,582.193c19.86,26.844,75.462,37.012,104.802,45.4
			c23.004,5.68,52.207,11.077,72.771,23.624"/>
		<path style="fill:none;stroke:#17192D;stroke-width:3;" d="M1037.2,528.993c47.494,13.552,95.78,29.309,138.372,55.847"/>
		<path style="fill:none;stroke:#17192D;stroke-width:3;" d="M1218.467,637.243c-3.948,3.937-8.656,6.408-13.331,9.629"/>
		<path style="fill:none;stroke:#17192D;stroke-width:3;" d="M1230.553,527.084c73.092,30.363,138.554,74.597,194.375,133.545
			c7.949,7.886,15.967,17.269,21.271,27.534"/>
		<path style="fill:none;stroke:#17192D;stroke-width:3;" d="M1192.839,663.958c37.188,29.041,82.729,44.932,124.932,63.226
			c33.738,14.19,70.746,24.473,102.562,41.754c26.866,14.508,52.529,32.826,77.438,49.677"/>
		<path style="fill:none;stroke:#17192D;stroke-width:3;" d="M1244.121,626.262c11.355,6.978,26.181,14.543,35.432,20.865"/>
		<path style="fill:none;stroke:#17192D;stroke-width:3;" d="M1263.855,576.547c5.43-1.753,10.97-1.261,16.501-0.77"/>
		<path style="fill:none;stroke:#17192D;stroke-width:3;" d="M1222.519,561.963c0.759,1.466,10.078,9.288,13.003,12.906"/>
		<path style="fill:none;stroke:#17192D;stroke-width:3;" d="M1402.486,637.658c24.328,19.132,49.852,34.453,72.907,55.898
			c20.851,18.543,42.668,43.045,62.763,60.124"/>
	</g>
	<path style="fill:none;stroke:#17192D;stroke-width:3;" d="M2048,0"/>
	<path style="fill:none;stroke:#17192D;stroke-width:3;" d="M2048,1536"/>
	<path style="fill:none;stroke:#17192D;stroke-width:3;" d="M0,1536"/>
	<path style="fill:none;stroke:#17192D;stroke-width:3;" d="M0,0"/>
</g>
<g id="Layer_1">
</g>
</svg>
