<?xml version="1.0" encoding="iso-8859-1"?>
<!-- Generator: Adobe Illustrator 15.1.0, SVG Export Plug-In . SVG Version: 6.00 Build 0)  -->
<!DOCTYPE svg PUBLIC "-//W3C//DTD SVG 1.1//EN" "http://www.w3.org/Graphics/SVG/1.1/DTD/svg11.dtd">
<svg version="1.1" xmlns="http://www.w3.org/2000/svg" xmlns:xlink="http://www.w3.org/1999/xlink" x="0px" y="0px" width="2048px"
	 height="1536px" viewBox="0 0 2048 1536" style="enable-background:new 0 0 2048 1536;" xml:space="preserve">
<g id="c1a_x5F_kopf">
	<g>
		<path style="fill:none;stroke:#17192D;stroke-width:3;" d="M428.185,813.541c-16.922-3.373-32.22-14.897-41.179-30.271"/>
		<path style="fill:none;stroke:#17192D;stroke-width:3;" d="M409.343,632.5c14.163-9.702,31.056-16.491,47.225-13.276"/>
		<path style="fill:none;stroke:#17192D;stroke-width:3;" d="M439.318,818.544c44.316,26.747,98.2,32.137,145.355,3.677"/>
		<path style="fill:none;stroke:#17192D;stroke-width:3;" d="M473.459,615.152c19.734-3.007,39.797-0.359,60.216,4.946
			c30.37,7.896,49.296,18.853,72.016,41.565"/>
		<path style="fill:none;stroke:#17192D;stroke-width:3;" d="M590.999,822.314c40.038-2.539,77.804-3.803,117.838-6.346
			c23.259-1.637,86.71,4.025,99.769-19.324c4.232-6.954,3.09-16.648-2.105-24.157"/>
		<path style="fill:none;stroke:#17192D;stroke-width:3;" d="M616.046,666.56c24.465,9.737,65.432,23.821,96.159,32.996
			c20.637,6.161,46.252,14.729,65.428,24.277c13.094,7.83,38.626,13.172,36.928,34.844c-0.084,5.881-3.609,12.422-7.382,13.771"/>
		<path style="fill:none;stroke:#17192D;stroke-width:3;" d="M724.923,720.511c7.223-0.619,14.091,1.236,21.064,2.266"/>
		<path style="fill:none;stroke:#17192D;stroke-width:3;" d="M718.937,797.005c6.891,1.574,12.985,2.986,19.872,4.577"/>
		<path style="fill:none;stroke:#17192D;stroke-width:3;" d="M380.085,773.15c-8.565-1.77-18.953-4.91-30.363-6.286
			c-17.362-2.913-38.546-5.442-56.544-9.253c-32.3-6.486-78.786-12.51-110.998-24.086c-24.24-7.94-55.086-26.624-71.788-42.268"/>
		<path style="fill:none;stroke:#17192D;stroke-width:3;" d="M384.064,682.263c-30.276-7.48-59.148-13.087-87.342-19.869
			c-32.105-6.229-81.964-13.224-110.488-26.94c-22.895-10.317-40.774-22.885-58.387-36.834"/>
		<path style="fill:none;stroke:#17192D;stroke-width:3;" d="M402.582,632.081c-15.444-4.634-80.642-25.248-98.303-30.058
			c-30.82-8.697-77.169-15.863-109.492-16.115c-20.518-0.061-52.482,3.632-66.926,12.651"/>
		<path style="fill:none;stroke:#17192D;stroke-width:3;" d="M110.258,691.369c22.955-10.573,62.549-15.006,87.443-11.828
			c34.004,4.106,76.816,14.027,111.033,22.003c23.665,5.792,46.206,11.575,69.279,17.354"/>
		<path style="fill:none;stroke:#17192D;stroke-width:3;" d="M387.792,670.804c-25.61-6.073-50.678-12.127-76.864-17.645
			c-28.289-5.634-57.719-10.853-85.341-18.947c-23.557-6.194-43.926-17.406-60.915-32.367"/>
		<path style="fill:none;stroke:#17192D;stroke-width:3;" d="M378.139,730.673c-23.911-5.414-47.575-12.308-71.14-18.086
			c-12.856-2.908-25.921-5.925-38.702-9.218c-13.625-3.111-27.309-6.038-41.295-8.566c-26.627-4.672-54.259-7.99-79.911-2.002
			c-3.31,0.742-4.523,1.48-7.412,2.59"/>
		<path style="fill:none;stroke:#17192D;stroke-width:3;" d="M164.504,601.697c6.446-1.916,27.085-3.336,32.25-3.746
			c14.094-0.797,29.887,1.614,43.542,3.651c27.095,4.032,55.774,11.458,81.975,18.325c12.681,3.48,21.815,6.48,33.218,9.624
			c5.875,1.591,32.52,9.854,37.396,13.532c0.971,0.743,0.447,0.673,0.666,0.999"/>
		<path style="fill:none;stroke:#17192D;stroke-width:3;" d="M377.992,761.72c-6.99,0.585-15.942-2.64-22.818-3.815
			c-9.188-1.45-119.061-22.961-135.922-26.703c-7.371-1.626-14.687-3.455-21.971-5.508c-7.072-1.74-13.008-4.428-19.618-7.244
			c-11.932-5.24-28.995-14.8-37.877-23.171"/>
		<path style="fill:none;stroke:#17192D;stroke-width:3;" d="M386.996,671.729c1.473-6.017,4.934-19.693,6.09-25.453"/>
		<path style="fill:none;stroke:#17192D;stroke-width:3;" d="M379.008,664.018c1.384-5.429,3.267-10.472,5.422-15.497"/>
		<path style="fill:none;stroke:#17192D;stroke-width:3;" d="M373.414,660.534c0.564-3.772,2.498-7.341,3.843-10.687"/>
		<path style="fill:none;stroke:#17192D;stroke-width:3;" d="M367.165,657.538c0.528-3.474,1.282-6.618,2.313-9.735"/>
		<path style="fill:none;stroke:#17192D;stroke-width:3;" d="M376.854,761.816c-1.857-6.185-0.803-24.096,0.168-30.471"/>
		<path style="fill:none;stroke:#17192D;stroke-width:3;" d="M367.232,752.654c0.457-4.98-0.094-10.391,1.738-15.145"/>
		<path style="fill:none;stroke:#17192D;stroke-width:3;" d="M360.459,751.36c-0.209-4.181,0.31-9.443,2.294-13.288"/>
		<path style="fill:none;stroke:#17192D;stroke-width:3;" d="M352.714,747.256c0.522-3.479,1.05-6.955,2.624-9.985"/>
		<path style="fill:none;stroke:#17192D;stroke-width:3;" d="M370.295,718.341c-1.755-8.868,0.684-29.039,5.57-36.561"/>
		<path style="fill:none;stroke:#17192D;stroke-width:3;" d="M797.6,758.774c-1.771,6.657-36.934-6.677-41.994-9.03
			c-4.113-1.953-7.697-4.4-9.178-8.982c-1.627-4.764,3.023-5.897,6.639-6.221c8.066-0.948,16.619,5.23,23.749,8.387
			c3.634,1.755,23.653,9.767,20.97,15.507"/>
		<path style="fill:none;stroke:#17192D;stroke-width:3;" d="M796.045,785.873c-1.396,5.988-18.361,5.763-22.641,6.219
			c-7.408,0.812-16.602,1.531-23.802-0.596c-2.882-0.846-9.718-5.894-9.465-9.516c0.251-3.622,5.601-5.41,8.405-5.777
			c7.576-0.975,15.255,1.345,22.727,1.923c5.357,0.465,10.678,1.446,16.014,2.254c1.951,0.104,12.141,1.523,8.611,5.313"/>
		<path style="fill:none;stroke:#17192D;stroke-width:3;" d="M458.486,618.057c2.84-0.884,4.295-3.057,7.398-3.063
			c1.477-0.091,3.104-0.004,4.545,0.42"/>
		<path style="fill:none;stroke:#17192D;stroke-width:3;" d="M608.061,663.436c-1.75-0.616,4.148,1.437,4.622,1.634"/>
		<path style="fill:none;stroke:#17192D;stroke-width:3;" d="M430.435,815.155c-1.05,0.981,4.737,2.333,7.176,2.469"/>
		<path style="fill:none;stroke:#17192D;stroke-width:3;" d="M404.686,635.574c0.979,0.055,1.953,0.108,2.478-0.383"/>
		<path style="fill:none;stroke:#17192D;stroke-width:3;" d="M586.762,821.546c-1.537,0.955-1.083,1.499,0.867,1.605"/>
		<path style="fill:none;stroke:#17192D;stroke-width:3;" d="M385.852,781.973c-2.689-2.621-5.77-4.784-6.477-8.82"/>
	</g>
	<path style="fill:none;stroke:#17192D;stroke-width:3;" d="M2048,0"/>
	<path style="fill:none;stroke:#17192D;stroke-width:3;" d="M2048,1536"/>
	<path style="fill:none;stroke:#17192D;stroke-width:3;" d="M0,1536"/>
	<path style="fill:none;stroke:#17192D;stroke-width:3;" d="M0,0"/>
</g>
<g id="Layer_1">
</g>
</svg>
