<svg xmlns="http://www.w3.org/2000/svg" width="2048" height="1536" viewBox="0 0 2048 1536"><g fill="none" stroke="#17192D" stroke-width="3"><path d="M428.185 813.54c-16.922-3.372-32.22-14.896-41.18-30.27M409.343 632.5c14.163-9.702 31.056-16.49 47.225-13.276M439.318 818.544c44.316 26.747 98.2 32.137 145.355 3.677M473.46 615.152c19.733-3.007 39.796-.36 60.215 4.946 30.37 7.896 49.296 18.853 72.016 41.565M591 822.314c40.037-2.54 77.803-3.803 117.837-6.346 23.26-1.637 86.71 4.025 99.77-19.324 4.23-6.954 3.09-16.648-2.106-24.157M616.046 666.56c24.465 9.737 65.432 23.82 96.16 32.996 20.636 6.16 46.25 14.73 65.427 24.277 13.094 7.83 38.626 13.172 36.928 34.844-.083 5.88-3.608 12.422-7.38 13.77M724.923 720.51c7.223-.618 14.09 1.237 21.064 2.267M718.937 797.005c6.89 1.574 12.985 2.986 19.872 4.577M380.085 773.15c-8.565-1.77-18.953-4.91-30.363-6.286-17.362-2.913-38.546-5.442-56.544-9.253-32.3-6.485-78.786-12.51-110.998-24.085-24.24-7.94-55.086-26.624-71.788-42.268M384.064 682.263c-30.276-7.48-59.148-13.087-87.342-19.87-32.105-6.228-81.964-13.223-110.488-26.94-22.895-10.316-40.774-22.884-58.387-36.833M402.582 632.08c-15.444-4.633-80.642-25.247-98.303-30.057-30.82-8.697-77.17-15.863-109.493-16.115-20.518-.06-52.482 3.632-66.926 12.65M110.258 691.37c22.955-10.574 62.55-15.007 87.443-11.83 34.005 4.107 76.817 14.028 111.034 22.004 23.665 5.792 46.206 11.575 69.28 17.354M387.792 670.804c-25.61-6.073-50.678-12.127-76.864-17.645-28.29-5.635-57.72-10.854-85.34-18.948-23.558-6.194-43.927-17.406-60.916-32.367M378.14 730.673c-23.912-5.414-47.576-12.308-71.14-18.086-12.857-2.908-25.922-5.925-38.703-9.218-13.625-3.112-27.31-6.04-41.295-8.567-26.627-4.672-54.26-7.99-79.91-2.002-3.31.743-4.524 1.48-7.413 2.59M164.504 601.697c6.446-1.916 27.085-3.336 32.25-3.746 14.094-.796 29.887 1.615 43.542 3.652 27.095 4.032 55.774 11.458 81.975 18.325 12.682 3.48 21.816 6.48 33.22 9.624 5.874 1.592 32.52 9.855 37.395 13.533.97.743.447.673.666 1M377.992 761.72c-6.99.585-15.942-2.64-22.818-3.815-9.188-1.45-119.06-22.96-135.922-26.703-7.37-1.626-14.687-3.455-21.97-5.508-7.073-1.74-13.01-4.428-19.62-7.244-11.93-5.24-28.994-14.8-37.876-23.17M386.996 671.73c1.473-6.018 4.934-19.694 6.09-25.454M379.008 664.018c1.384-5.43 3.267-10.472 5.422-15.497M373.414 660.534c.564-3.772 2.498-7.34 3.843-10.687M367.165 657.538c.528-3.474 1.282-6.618 2.313-9.735M376.854 761.816c-1.857-6.185-.803-24.096.168-30.47M367.232 752.654c.457-4.98-.094-10.39 1.738-15.145M360.46 751.36c-.21-4.18.31-9.443 2.293-13.288M352.714 747.256c.522-3.48 1.05-6.955 2.624-9.985M370.295 718.34c-1.755-8.867.684-29.038 5.57-36.56M797.6 758.774c-1.77 6.657-36.934-6.677-41.994-9.03-4.113-1.953-7.697-4.4-9.178-8.982-1.627-4.764 3.023-5.897 6.64-6.22 8.065-.95 16.618 5.23 23.748 8.386 3.634 1.755 23.653 9.767 20.97 15.507M796.045 785.873c-1.396 5.988-18.36 5.763-22.64 6.22-7.41.81-16.603 1.53-23.803-.597-2.882-.846-9.718-5.894-9.465-9.516.25-3.622 5.6-5.41 8.405-5.777 7.576-.975 15.255 1.345 22.727 1.923 5.356.465 10.677 1.446 16.013 2.254 1.95.104 12.14 1.523 8.61 5.313M458.486 618.057c2.84-.884 4.295-3.057 7.398-3.063 1.477-.09 3.104-.004 4.545.42M608.06 663.436c-1.75-.616 4.15 1.437 4.623 1.634M430.435 815.155c-1.05.98 4.737 2.333 7.176 2.47M404.686 635.574c.98.055 1.953.108 2.478-.383M586.762 821.546c-1.537.955-1.083 1.5.867 1.605M385.852 781.973c-2.69-2.62-5.77-4.784-6.477-8.82M2048 0M2048 1536M0 1536M0 0"/></g></svg>