<?xml version="1.0" encoding="iso-8859-1"?>
<!-- Generator: Adobe Illustrator 15.1.0, SVG Export Plug-In . SVG Version: 6.00 Build 0)  -->
<!DOCTYPE svg PUBLIC "-//W3C//DTD SVG 1.1//EN" "http://www.w3.org/Graphics/SVG/1.1/DTD/svg11.dtd">
<svg version="1.1" xmlns="http://www.w3.org/2000/svg" xmlns:xlink="http://www.w3.org/1999/xlink" x="0px" y="0px" width="2048px"
	 height="1536px" viewBox="0 0 2048 1536" style="enable-background:new 0 0 2048 1536;" xml:space="preserve">
<g id="c1a_x5F_corpus">
	<g>
		<path style="fill:none;stroke:#17192D;stroke-width:3;" d="M1407.571,539.842c0.894,4.46,3.786,7.33,7.326,9.412"/>
		<path style="fill:none;stroke:#17192D;stroke-width:3;" d="M1456.56,565.824c12.661,4.189,25.347,9.255,37.63,14.776
			c11.464,5.091,22.49,8.865,31.214,17.978c12.635,12.446,19.392,21.777,22.604,24.207"/>
		<path style="fill:none;stroke:#17192D;stroke-width:3;" d="M1562.049,503.626c-24.902,7.459-50.884-23.354-68.883-37.95
			c-34.653-26.488-69.346-54.352-105.254-80.813c-33.529-26.927-68.529-61.177-105.842-88.854"/>
		<path style="fill:none;stroke:#17192D;stroke-width:3;" d="M1227.162,437.216c49.69,62.024,137.969,96.649,209.891,121.624"/>
		<path style="fill:none;stroke:#17192D;stroke-width:3;" d="M1227.875,349.892c8.553,0.926,17.044,0.525,24.192-2.453"/>
		<path style="fill:none;stroke:#17192D;stroke-width:3;" d="M1299.475,319.996c-1.09,2.699-0.969,5.342,1.52,6.55"/>
		<path style="fill:none;stroke:#17192D;stroke-width:3;" d="M1152.943,424.464c6.438,7.645,16.632,17.759,19.301,22.928"/>
		<path style="fill:none;stroke:#17192D;stroke-width:3;" d="M1219.359,452.143c6.061-0.281,13.339-0.62,19.398-0.904"/>
		<path style="fill:none;stroke:#17192D;stroke-width:3;" d="M1276.58,506.398c13.771,8.619,25.299,21.317,36.77,32.697"/>
		<path style="fill:none;stroke:#17192D;stroke-width:3;" d="M1463.207,573.133c-1.149,1.375,13.795,35.095,15.436,44.286
			c4.561,19.645,8.283,47.271-4.254,65.068"/>
		<path style="fill:none;stroke:#17192D;stroke-width:3;" d="M1274.007,291.228c-9.401-12.104-20.39-18.011-32.29-26.204
			c-13.865-10.149-27.229-16.694-43.096-22.494c-15.16-5.539-40.802,3.655-50.513,7.898c-20.202,9.112-34.28,24.879-50.911,39.723
			c-17.622,15.725-20.896,43.181-16.862,69.046c2.634,16.882,7.95,32.595,14.313,48.341c5.757,14.317,10.468,29.272,18.559,42.017
			c4.365,7.386,8.982,14.46,13.077,21.853"/>
		<path style="fill:none;stroke:#17192D;stroke-width:3;" d="M754.174,523.05c-24.432,22.916-43.42,59.082-52.882,92.551"/>
		<path style="fill:none;stroke:#17192D;stroke-width:3;" d="M695.604,617.898c-8.8,3.412-16.843,8.293-22.754,14.572"/>
		<path style="fill:none;stroke:#17192D;stroke-width:3;" d="M608.264,649.663c5.186-6.998,13.404-8.128,21.005-7.734"/>
		<path style="fill:none;stroke:#17192D;stroke-width:3;" d="M601.662,651.473c-2.75,0.127-4.745,1.722-6.705,4.068"/>
		<path style="fill:none;stroke:#17192D;stroke-width:3;" d="M631.484,640.849c7.939-7.124,26.474-8.739,34.726-9.124"/>
		<path style="fill:none;stroke:#17192D;stroke-width:3;" d="M675.286,649.095c3.511,1.335,6.332,2.705,9.19,4.822"/>
		<path style="fill:none;stroke:#17192D;stroke-width:3;" d="M713.648,629.286c7.012,2.675,12.727,6.916,17.751,11.181"/>
		<path style="fill:none;stroke:#17192D;stroke-width:3;" d="M799.092,806.207c9.348-6.444,20.247-9.208,28.87-16.365"/>
		<path style="fill:none;stroke:#17192D;stroke-width:3;" d="M725.643,841.91c7.459-2.604,17.598-6.826,23.539-12.359"/>
		<path style="fill:none;stroke:#17192D;stroke-width:3;" d="M681.236,820.714c3.436-0.157,6.117-1.786,8.107-3.38"/>
		<path style="fill:none;stroke:#17192D;stroke-width:3;" d="M618.507,824.699c5.774,5.733,13.586,10.623,20.218,5.057"/>
		<path style="fill:none;stroke:#17192D;stroke-width:3;" d="M678.743,840.639c-3.969-4.826,10.409,7.937,15.266,8.37"/>
		<path style="fill:none;stroke:#17192D;stroke-width:3;" d="M642.527,833.032c7.947,7.883,23.871,9.39,32.563,3.729"/>
		<path style="fill:none;stroke:#17192D;stroke-width:3;" d="M687.051,853.143c-0.66,1.312,1.641,6.123,3.391,8.895"/>
		<path style="fill:none;stroke:#17192D;stroke-width:3;" d="M938.789,595.488c-0.922,9.805-21.854,19.037-29.207,23.88"/>
		<path style="fill:none;stroke:#17192D;stroke-width:3;" d="M850.873,601.847c8.285,0.36,15.885,0.76,23.521,1.9"/>
		<path style="fill:none;stroke:#17192D;stroke-width:3;" d="M796.209,523.328c2.858,2.119,5.747,4.99,8.602,7.102"/>
		<path style="fill:none;stroke:#17192D;stroke-width:3;" d="M691.199,872.021c7.354,39.437,38.846,79.246,60.912,108.991"/>
		<path style="fill:none;stroke:#17192D;stroke-width:3;" d="M1222.634,1051.357c9.382-5.689,15.771-16.498,25.08-23.688
			c7.354-4.846,15.466-8.227,22.854-12.326c15.503-7.479,30.421-12.681,46.028-17.914c34.617-11.373,68.582-21.966,104.338-23.637
			c4.814-0.223,17.192-0.801,17.876-0.835"/>
		<path style="fill:none;stroke:#17192D;stroke-width:3;" d="M1547.969,911.249c-3.844-3.446-45.828,24.906-55.948,29.775
			c-21.069,11.161-44.878,22.003-66.431,30.841"/>
		<path style="fill:none;stroke:#17192D;stroke-width:3;" d="M1265.349,1198.739c-0.989,8.307-8.861,16.929-13.389,23.15"/>
		<path style="fill:none;stroke:#17192D;stroke-width:3;" d="M1202.311,1132.625c6.84-1.066,14.373-2.172,21.174-3.988"/>
		<path style="fill:none;stroke:#17192D;stroke-width:3;" d="M1219.186,1080.793c0.07,1.5-1.645,9.084-2.155,12.866"/>
		<path style="fill:none;stroke:#17192D;stroke-width:3;" d="M1259.896,1214.76c66.021-32.354,130.083-77.387,190.804-120.004
			c46.048-32.174,99.663-64.702,140.76-99.646"/>
		<path style="fill:none;stroke:#17192D;stroke-width:3;" d="M1246.681,887.353c-3.941,9.066-17.403,24.272-24.068,34.874
			c-13.367,19.699-28.127,38.679-40.103,59.112c-11.334,18.17-21.979,36.337-33.995,54.52
			c-10.693,15.909-17.194,34.755-25.807,51.392"/>
		<path style="fill:none;stroke:#17192D;stroke-width:3;" d="M1119.9,1094.436c-5.105,23.511-9.379,49.986,1.473,75.75
			c7.062,18.438,8.692,38.625,21.122,53.807c10.973,13.753,24.901,16.857,41.44,16.834c22.727-0.309,48.436-10.52,65.721-24.089"/>
		<path style="fill:none;stroke:#17192D;stroke-width:3;" d="M1060.105,965.123c25.099-8.676,51.121-12.146,75.562-20.039
			c12.891-4.355,41.424-13.193,46.4-24.684"/>
		<path style="fill:none;stroke:#17192D;stroke-width:3;" d="M1052.37,961.733c-3.497,13.673-25.353,32.708-36.688,40.741"/>
		<path style="fill:none;stroke:#17192D;stroke-width:3;" d="M958.035,978.145c23.893-4.867,52.278-16.697,73.038-29.682"/>
		<path style="fill:none;stroke:#17192D;stroke-width:3;" d="M1176.087,925.182c-3.915,4.686,10.385,1.016,12.45,0.922
			c10.966-1.265,21.104-5.488,30.625-8.186"/>
		<path style="fill:none;stroke:#17192D;stroke-width:3;" d="M1222.541,754.125c6.945,1.18,15.888,0.76,22.004-1.029"/>
		<path style="fill:none;stroke:#17192D;stroke-width:3;" d="M1275.022,726.906c2.137,1.398,4.21,16.314,5.14,21.526
			c2.007,13.421,1.227,26.216-2.308,39.14"/>
		<path style="fill:none;stroke:#17192D;stroke-width:3;" d="M1372.949,772.625c1.34-0.817,1.996-1.594,3.367-1.658
			c-29.186,9.617-68.74,33.235-88.212,58.91"/>
		<path style="fill:none;stroke:#17192D;stroke-width:3;" d="M1266.605,871.412c9.314-7.186,20.936-9.23,31.833-11.991"/>
		<path style="fill:none;stroke:#17192D;stroke-width:3;" d="M1037.129,852.325c2.18,17.164,12.45,45.207,4.211,60.603"/>
		<path style="fill:none;stroke:#17192D;stroke-width:3;" d="M1040.619,612.711c1.49,17.195,5.803,35.761-1.713,51.874"/>
		<path style="fill:none;stroke:#17192D;stroke-width:3;" d="M933.432,731.594c9.221,5.572,54.674,4.949,60.547-2.079"/>
		<path style="fill:none;stroke:#17192D;stroke-width:3;" d="M971.029,754.606c8.394,2.61,17.507,5.94,24.629,10.863"/>
		<path style="fill:none;stroke:#17192D;stroke-width:3;" d="M1083.854,853.678c3.416,14.104,4.799,29.051-0.76,42.818"/>
		<path style="fill:none;stroke:#17192D;stroke-width:3;" d="M1119.517,864.771c-4.421,23.479-16.714,40.562-29.628,59.184"/>
		<path style="fill:none;stroke:#17192D;stroke-width:3;" d="M1130.43,877.025c-1.437,13.58-12.252,32.849-21.463,42.281"/>
		<path style="fill:none;stroke:#17192D;stroke-width:3;" d="M1145.111,881.593c1.898,11.167-10.084,34.997-18.775,40.66"/>
		<path style="fill:none;stroke:#17192D;stroke-width:3;" d="M1060.403,720.412c-0.655,0.777-5.295,4.75-7.251,7.092"/>
		<path style="fill:none;stroke:#17192D;stroke-width:3;" d="M1053.896,758.242c1.446,1.436,2.893,2.871,4.336,4.307"/>
		<path style="fill:none;stroke:#17192D;stroke-width:3;" d="M1076.448,621.326c1.689,6.678,2.039,14.171,0.98,20.974"/>
		<path style="fill:none;stroke:#17192D;stroke-width:3;" d="M1124.693,723.105c-1.677,8.337-7.343,19.859-5.543,28.783
			c1.865,10.422,9.745,16.812,8.965,29.612"/>
		<path style="fill:none;stroke:#17192D;stroke-width:3;" d="M1161.625,718.687c0.725,0.718-4.869,13.736-6.002,19.047
			c-4.078,15.95,2.883,32.143,7.057,47.709"/>
		<path style="fill:none;stroke:#17192D;stroke-width:3;" d="M1199.621,720.667c-3.602,11.423-9.44,19.205-6.783,31.843
			c1.863,10.424,11.504,24.98,5.804,35.76"/>
		<path style="fill:none;stroke:#17192D;stroke-width:3;" d="M846.152,943.59c4.125-0.191,20.324,7.309,17.613,8.183"/>
		<path style="fill:none;stroke:#17192D;stroke-width:3;" d="M1194.774,735.157c1.271-2.312,9.85,19.056,1.295,27.712"/>
		<path style="fill:none;stroke:#17192D;stroke-width:3;" d="M1682.326,893.086c2.078,7.1,2.834,14.743,2.917,22.18"/>
		<path style="fill:none;stroke:#17192D;stroke-width:3;" d="M1683.688,964.574c1.854,12.201,1.773,25.081,0.771,37.486"/>
		<path style="fill:none;stroke:#17192D;stroke-width:3;" d="M1591.468,997.646c3.231,9.022,7.894,18.737,13.892,26.872"/>
		<path style="fill:none;stroke:#17192D;stroke-width:3;" d="M1694.196,1124.766c-0.837,1.531,2.146,6.854,2.763,10.297
			c1.801,9.35-0.098,17.38,2.157,26.705c4.181,21.153-1.401,38.29-23.755,37.843l0,0c-2.283-9.819,0.437-19.875-2.755-29.653
			c-2.757-10.298-11.134-23.803-5.233-34.006"/>
		<path style="fill:none;stroke:#17192D;stroke-width:3;" d="M1626.284,1163.678c2.905-1.264,3.591,11.232,3.738,12.799
			c0.626,6.733,1.016,12.157,8.112,14.333c4.566,1.399,6.486-0.954,10.249-2.849"/>
		<path style="fill:none;stroke:#17192D;stroke-width:3;" d="M1655.334,1151.4c0.223,4.738,0.946,10.502,3.012,15.855
			c1.859,4.822,2.848,9.471,2.434,15.06c-0.38,5.088-2.191,9.063,1.293,13.323c4.868,5.959,8.338,0.868,12.056-2.918"/>
		<path style="fill:none;stroke:#17192D;stroke-width:3;" d="M1640.605,1158.049c3.374,5.367,2.893,11.79,4.668,17.675
			c1.391,4.617,1.376,11.864,3.623,15.812c1.815,3.191,8.8,4.645,11.132,1.843"/>
		<path style="fill:none;stroke:#17192D;stroke-width:3;" d="M1683.939,1002.636c0.378,17.851,5.668,33.487,10.547,50.142
			c7.116,25.48,5.381,46.901-0.307,71.494"/>
		<path style="fill:none;stroke:#17192D;stroke-width:3;" d="M1667.475,1001.419c1.713,7.364,7.47,13.549,6.021,21.562"/>
		<path style="fill:none;stroke:#17192D;stroke-width:3;" d="M1649.978,1104.992c1.366,9.867,2.536,15.271,10.109,21.371"/>
		<path style="fill:none;stroke:#17192D;stroke-width:3;" d="M1686.136,1078.977c1.934,2.395,2.506,4.846,2.167,7.345"/>
		<path style="fill:none;stroke:#17192D;stroke-width:3;" d="M1604.762,1024.697c0.383,27.78,8.062,55.719,9.362,83.456
			c1.2,25.757-0.711,53.15,14.789,72.776l-0.433,0.518"/>
		<path style="fill:none;stroke:#17192D;stroke-width:3;" d="M604.185,824.15c-0.312,1.742,9.188,1.299,11.96,1.168"/>
		<path style="fill:none;stroke:#17192D;stroke-width:3;" d="M745.339,880.66c13.755,21.2,32.586,34.221,49.794,51.285"/>
		<path style="fill:none;stroke:#17192D;stroke-width:3;" d="M763.496,605.794c15.908-10.667,29.629-29.18,45.632-37.868"/>
		<path style="fill:none;stroke:#17192D;stroke-width:3;" d="M1338.307,969.465c9.204-11.018,22.234-18.244,28.953-30.472"/>
		<path style="fill:none;stroke:#17192D;stroke-width:3;" d="M1428.227,969.239c38.538-33.568,74.918-113.36,42.132-164.782"/>
		<path style="fill:none;stroke:#17192D;stroke-width:3;" d="M765.75,495.543c-8.732,6.308-11.971,14.325-13.315,24.219"/>
		<path style="fill:none;stroke:#17192D;stroke-width:3;" d="M1594.817,958.148c6.892,1.17,16.367-0.764,22.094-5"/>
		<path style="fill:none;stroke:#17192D;stroke-width:3;" d="M1548.285,909.599c9.868-3.652,15.143-16.206,24.637-18.93"/>
	</g>
	<path style="fill:none;stroke:#17192D;stroke-width:3;" d="M2048,0"/>
	<path style="fill:none;stroke:#17192D;stroke-width:3;" d="M2048,1536"/>
	<path style="fill:none;stroke:#17192D;stroke-width:3;" d="M0,1536"/>
	<path style="fill:none;stroke:#17192D;stroke-width:3;" d="M0,0"/>
</g>
<g id="Layer_1">
</g>
</svg>
