<?xml version="1.0" encoding="iso-8859-1"?>
<!-- Generator: Adobe Illustrator 15.1.0, SVG Export Plug-In . SVG Version: 6.00 Build 0)  -->
<!DOCTYPE svg PUBLIC "-//W3C//DTD SVG 1.1//EN" "http://www.w3.org/Graphics/SVG/1.1/DTD/svg11.dtd">
<svg version="1.1" xmlns="http://www.w3.org/2000/svg" xmlns:xlink="http://www.w3.org/1999/xlink" x="0px" y="0px" width="2048px"
	 height="1536px" viewBox="0 0 2048 1536" style="enable-background:new 0 0 2048 1536;" xml:space="preserve">
<g id="c1b_x5F_fuss_x5F_l">
	<g>
		<path style="fill:none;stroke:#FF0050;stroke-width:3;" d="M1562.036,1029.299c19.529,18.35,24.383,42.356,34.101,69.852
			c7.394,23.678,11.11,50.4,24.593,70.268"/>
		<path style="fill:none;stroke:#FF0050;stroke-width:3;" d="M1695.997,1123.32c1.46-31.277,0.25-51.821-16.753-74.787
			c-18.773-23.812-28.633-57.912-39.867-88.248"/>
		<path style="fill:none;stroke:#FF0050;stroke-width:3;" d="M1548.176,913.211c8.252-9.518,17.09-17.547,26.962-22.438
			c10.471-4.863,22.563-5.83,31.898,0.724c18.708,12.342,28.635,44.911,29.224,70.937c0.074-1.53-0.493-2.316-0.421-3.842"/>
		<path style="fill:none;stroke:#FF0050;stroke-width:3;" d="M1563.77,984.43c5.9-0.716,11.368-8.897,13.601-14.752"/>
		<path style="fill:none;stroke:#FF0050;stroke-width:3;" d="M1549.5,938.097c3.007-5.818,11.395-9.397,16.858-9.145"/>
		<path style="fill:none;stroke:#FF0050;stroke-width:3;" d="M1695.678,1125.609c-0.753,4.698,1.091,15.521,2.657,18.492
			c3.34,6.369,7.013,12.053,7.579,20.21c1.01,14.553-12.115,23.208-21.878,19.269c-0.729-5.651-0.677-12.711-3.051-17.562
			c-2.312-4.713-6.025-7.541-7.343-13.111c-0.547-2.338-0.072-5.092-0.408-7.495c-0.548-3.907-0.497-2.999-2.865-5.703
			c-2.84-3.245-6.147-7.647-6.843-12.621"/>
		<path style="fill:none;stroke:#FF0050;stroke-width:3;" d="M1630.828,1165.274c-1.386,10.487,6.951,15.03,9.48,23.278
			c1.302,4.244,2.791,10.124,7.403,9.291c3.741-0.676,6.364-6.365,6.745-10.616"/>
		<path style="fill:none;stroke:#FF0050;stroke-width:3;" d="M1643.602,1159.914c-3.746,12.15,6.439,16.665,10.188,24.8
			c1.772,3.835,3.858,10.171,8.591,6.731c3.463-2.522,2.873-9.225,3.078-13.631"/>
		<path style="fill:none;stroke:#FF0050;stroke-width:3;" d="M1654.867,1136.611c-1.729,7.047-0.788,14.83,2.646,20.479
			c3.896,6.4,5.398,12.188,7.902,19.34c1.356,3.875,5.038,12.377,7.667,14.134c6.089,4.065,8.875-4.015,10.22-9.435"/>
		<path style="fill:none;stroke:#FF0050;stroke-width:3;" d="M1657.402,1107.441c-1.745-4.551-1.816-11.503-0.041-15.887"/>
		<path style="fill:none;stroke:#FF0050;stroke-width:3;" d="M1673.651,1069.481c3.054,1.63,6.497,3.282,9.091,6.379"/>
		<path style="fill:none;stroke:#FF0050;stroke-width:3;" d="M1657.152,1037.439c-6.221-9.229-12.489-17.46-17.445-28.613"/>
		<path style="fill:none;stroke:#FF0050;stroke-width:3;" d="M1637.85,1190.918c-9.99,4.5-15.106-11.625-16.619-21.127"/>
	</g>
	<path style="fill:none;stroke:#17192D;stroke-width:3;" d="M2048,0"/>
	<path style="fill:none;stroke:#17192D;stroke-width:3;" d="M2048,1536"/>
	<path style="fill:none;stroke:#17192D;stroke-width:3;" d="M0,1536"/>
	<path style="fill:none;stroke:#17192D;stroke-width:3;" d="M0,0"/>
</g>
<g id="Layer_1">
</g>
</svg>
