<svg xmlns="http://www.w3.org/2000/svg" width="2048" height="1536" viewBox="0 0 2048 1536"><g fill="none" stroke-width="3"><g stroke="#FF0050"><path d="M1627.983 597.297c-1.294-.978-2.875-1.656-4.178-2.632-21.302 20.503-39.716 42.668-58.466 65.687M1660.664 631.298c1.51 1.87 3.28 4.047 4.79 5.914-8.093 8.347-13.637 19.216-22.482 26.625M1557.893 775.088c-7.195 6.93-13.42 15.688-20.58 22.022-2.34-1.617-4.143-3.215-5.904-5.388M1653.727 651.897c4.642-5.018 12.994 12.606 12.58 19.495-.48 7.994-4.09 15.574-9.008 20.868-9.287 10.04-15.022 13.337-26.576 16.154M1611.545 734.075c9.83-1.157 17.07.195 24.618-8.188 4.64-5.022 9.86-15.022 9.207-22.156M1591.188 756.996c8.993-.905 14.87.645 22.816-5.343 3.71-3.017 12.525-14.276 10.035-17.97M1600.092 757.5c-.307.29-4.89 13.625-9.133 16.522-10.046 7.287-36.272 3.41-47.788 1.41-.928.886-2.2 2.713-2.274 3.974M1509.502 707.988c-2.89 2.334-4.86 5.115-6.26 9.13-.068-.08-.127-.326-.193-.413M1618.824 714.29c.14-.31.113-.695.262-.99 1.485 5.398-.724 8.914-3.616 12.848M1639.662 679.67c-.104 6.468.115 12.038-6.268 16.277M1600.828 737.002c.052 3.295-1.56 6.856-2.942 9.306M1581.804 763.402c-.067 1.55-3.76 5.27-5.182 7.145M1532.414 766.36c1.173 1.134 2.31 2.146 3.577 1.96M1645.32 666.204c-3.744-.42-6.505-1.196-10.34-.475-3.704.693-7.084 3.92-10.565 3.424-4.7-.687-9.51-2.093-14.204-3.148-4.77-1.077-14.124-6.1-18.977-5.43-5.212.71-10.687 1.342-15.81 2.502-2.912.66-3.92.405-6.9-.43-2.384-.657-4.556-.667-6.598.214M1588.157 629.872c-1.605 1.112-8.052-2.46-10.787-2.152-4.28.48-8.64 3.218-12.494 4.926-7.3 3.25-16.025 3.14-23.006 7.006-7.355 4.062-10.696 13.7-14.56 20.843-4.138 7.66-8.545 15.233-12.53 23.083-1.99 3.912-3.22 7.71-3.87 12.14-.592 3.995.334 9.51-.816 13.056.15.48.407.37.727.585M1560.31 659.71c-.78 3.803-.236 6.715-.306 10.39M1563.795 755.123c-1.697 1.127-8.863 2.586-10.992 1.813M1578.62 736.125c-.265-1.94-10.638.75-12.22.99-3.133.47-7.477.046-10.347 1.54M1592.335 705.757c-1.93.83-4.63.562-6.784 1.14-2.663.694-5.343 1.403-8.03 2.005-2.505.57-5.06 1.066-7.55 1.638-2.282.524-4.904 2.16-7.23 2.143M1628.09 600.752c.633-.88 1.23-1.68 1.78-2.38 37.218-42.648 69.494-84.997 104.973-129.097 64.54-84.7 147.782-161.227 198.662-252.854 30.168 61.81 13.122 137.385-31.802 189.825-31.08 34.518-69.344 68.986-103.816 102.15-34.563 31.622-67.258 57.402-101.82 89.023-10.514 10.33-22.545 20.756-34.478 30.828M1661.495 627.463c-13.19-1.258-27.007-13.192-32.348-25.756M1634.383 611.074l287.85-353.694"/></g><path d="M2048 0M2048 1536M0 1536M0 0" stroke="#17192D"/></g></svg>