<?xml version="1.0" encoding="iso-8859-1"?>
<!-- Generator: Adobe Illustrator 15.1.0, SVG Export Plug-In . SVG Version: 6.00 Build 0)  -->
<!DOCTYPE svg PUBLIC "-//W3C//DTD SVG 1.1//EN" "http://www.w3.org/Graphics/SVG/1.1/DTD/svg11.dtd">
<svg version="1.1" xmlns="http://www.w3.org/2000/svg" xmlns:xlink="http://www.w3.org/1999/xlink" x="0px" y="0px" width="2048px"
	 height="1536px" viewBox="0 0 2048 1536" style="enable-background:new 0 0 2048 1536;" xml:space="preserve">
<g id="c1b_x5F_arm_x5F_v">
	<g>
		<path style="fill:none;stroke:#FF0050;stroke-width:3;" d="M1011.069,1108.245c-7.019,2.673-11.425,8.478-17.821,12.682
			c-7.845,5.636-17.646,8.932-26.797,13.011c-16.199,7.502-30.816,10.57-48.079,11.266c-35.86,0.578-68.997-12.978-96.036-39.014
			c-17.143-16.564-43.054-37.292-50.876-61.675"/>
		<path style="fill:none;stroke:#FF0050;stroke-width:3;" d="M917.393,989.027c14.209-9.097,52.508-2.805,65.225,5.297"/>
		<path style="fill:none;stroke:#FF0050;stroke-width:3;" d="M913.373,942.3c26.483-6.269,62.1-1.604,84.783,14.468"/>
		<path style="fill:none;stroke:#FF0050;stroke-width:3;" d="M989.563,1126.015c12.653-5.418,27.824-5.46,41.131-10.093
			c11.175-3.234,23.076-7.18,33.636-11.941c23.906-10.141,43.078-37.023,55.884-60.445"/>
		<path style="fill:none;stroke:#FF0050;stroke-width:3;" d="M1229.384,1008.102c-23.288,11.673-43.487,30.994-67.43,41.889
			c-18.334,8.9-39.931,13.895-57.542,22.084"/>
		<path style="fill:none;stroke:#FF0050;stroke-width:3;" d="M998.982,953.801c19.861-26.846,75.467-37.009,104.799-45.398
			c23.011-5.682,52.208-11.074,72.783-23.625"/>
		<path style="fill:none;stroke:#FF0050;stroke-width:3;" d="M1037.359,1006.998c47.494-13.542,95.782-29.307,138.377-55.84"/>
		<path style="fill:none;stroke:#FF0050;stroke-width:3;" d="M1218.632,898.754c-3.943-3.935-8.657-6.41-13.331-9.631"/>
		<path style="fill:none;stroke:#FF0050;stroke-width:3;" d="M1230.721,1008.912c73.09-30.367,138.56-74.596,194.377-133.551
			c7.946-7.879,15.967-17.265,21.27-27.526"/>
		<path style="fill:none;stroke:#FF0050;stroke-width:3;" d="M1193.008,872.037c37.189-29.043,82.727-44.926,124.931-63.225
			c33.739-14.19,70.748-24.475,102.566-41.755c26.864-14.508,52.529-32.825,77.437-49.674"/>
		<path style="fill:none;stroke:#FF0050;stroke-width:3;" d="M1402.656,898.339c24.324-19.13,49.852-34.453,72.907-55.897
			c20.851-18.54,42.672-43.044,62.759-60.121"/>
		<path style="fill:none;stroke:#FF0050;stroke-width:3;" d="M796.373,1012.661c2.854-2.111,5.742-4.983,8.595-7.102"/>
		<path style="fill:none;stroke:#FF0050;stroke-width:3;" d="M1244.292,909.735c11.353-6.976,26.182-14.544,35.431-20.865"/>
		<path style="fill:none;stroke:#FF0050;stroke-width:3;" d="M1264.025,959.447c5.43,1.756,10.969,1.261,16.501,0.771"/>
		<path style="fill:none;stroke:#FF0050;stroke-width:3;" d="M1222.682,974.032c0.756-1.466,10.084-9.288,13.009-12.905"/>
		<path style="fill:none;stroke:#FF0050;stroke-width:3;" d="M765.904,1040.449c-8.729-6.305-11.965-14.322-13.311-24.22"/>
	</g>
	<path style="fill:none;stroke:#17192D;stroke-width:3;" d="M2048,0"/>
	<path style="fill:none;stroke:#17192D;stroke-width:3;" d="M2048,1536"/>
	<path style="fill:none;stroke:#17192D;stroke-width:3;" d="M0,1536"/>
	<path style="fill:none;stroke:#17192D;stroke-width:3;" d="M0,0"/>
</g>
<g id="Layer_1">
</g>
</svg>
