<svg xmlns="http://www.w3.org/2000/svg" width="2048" height="1536" viewBox="0 0 2048 1536"><g fill="none" stroke-width="3"><g stroke="#FF0050"><path d="M1678.084 198.198c-13.28 15.512-23.76 32.915-40.705 44.05-15.268 9.814-25.528 22.663-44.714 19.66-2.556-.475-5.414-1.306-7.933-2.476M1548.387 175.647c-.278-14.744 4.926-29.584 8.166-43.815 3.645-15.965 5.683-32.005 5.466-48.15-.022-6.315.27-12.614.548-18.566 7.136-1.07 15.532 5.285 18.097 12.418 1.97 6.062 2.27 13.44 2.926 20.13.57 8.45-2.054 16.393-2.108 24.463-.057 8.064 4.44 15.284 6.007 23.076 1.728 11.307-.36 21.38-2.147 32.172M1680.65 195.5c4.27-2.408 5.216-7.035 7.138-11.13 2.015-4.276 6.19-6.2 9.438-9.374 3.178-3.106 5.003-7.272 8.03-10.38 3.474-3.56 6.994-5.6 9-10.563 1.883-4.672 4.872-6.838 7.998-10.74 2.877-3.582 5.77-7.944 7.962-11.953 3.028-5.54 12.896-22.77-.224-21.848-8.41.592-16.69 11.726-22.12 17.947-3.292 3.766-7.463 6.27-10.66 10.2-2.93 3.586-4.94 7.723-8.788 9.71-7.918 4.09-11.365 10.083-16.504 17.342M1668.146 170.49c4.73-2.672 5.777-7.8 7.912-12.335 2.23-4.744 6.854-6.877 10.458-10.397 3.52-3.44 5.544-8.054 8.9-11.5 3.848-3.944 7.756-6.207 9.978-11.713 2.084-5.177 5.393-7.578 8.864-11.9 3.184-3.97 6.39-8.806 8.82-13.248 3.357-6.142 14.3-25.242-.247-24.22-9.32.66-18.497 13-24.513 19.895-3.648 4.173-8.27 6.954-11.82 11.303-3.246 3.98-5.475 8.566-9.736 10.763-8.782 4.538-12.6 11.18-18.292 19.228M1588.78 138.247c12.048-4.083 14.636-20.635 23.626-28.362 3.936-3.38 8.567-4.52 11.992-8.465 3.71-4.277 6.07-9.617 10.277-13.29 3.745-3.27 8.56-4.573 11.982-8.545 4.064-4.722 7.256-10.25 12.49-13.743 2.41-1.614 4.06-2.29 5.944-4.71 2.045-2.632 3.875-5.134 6.293-7.417 4.164-3.938 9.193-6.755 14.326-8.724 6.56-2.51 12.018-.906 13.36 7.207M1644.58 116.328c4.777-4.392 7.017-11.85 12.034-16.428 4.27-3.897 8.53-5.73 12.51-10.547 4.86-5.884 11.847-8.278 17.098-13.18 3.51-3.28 5.704-7.972 9.424-11.21 4.725-4.106 9.486-7.997 14.874-10.61 8.804-4.273 8.248 3.477 8.377 10.463M1681.773 126.1c-.882-1.627-1.245-3.48-2.345-5.02M1698.352 108.983c-.383-1.69-1.104-3.356-1.7-4.99M1693.624 155.065c-1.42-.683-1.863-2.902-2.697-4.334M1710.798 139.03c-1.073-1.438-1.822-3.25-2.345-5.02M1669.47 99.917c-1.212-.795-1.494-2.206-1.765-3.59M1691.205 82.692c-.487-1.37-1.654-3.07-2.37-4.318M1671.812 63.55c-.42.105-.427.505-.917.266-.074-1.257-.535-1.91-1.22-2.82M1649.17 86.342c-.525-.613-.93-1.33-1.188-2.157M1643.382 113.788c.982-1.364 1.275-3.15 1.19-4.858M1657.57 134.09c.443-1.362.86-2.677.838-4.17M1668.92 166.893c.464-1.18.47-2.478.5-3.837M1653.218 192.817c-1.873-3.848.515-6.72 1.138-10.473M1642.844 166.723c-2.004-6.397-1.532-11.16 2.066-16.736M1633.18 152.942c-3.848-5.144-5.66-10.896-5.68-17.395-3.293.015-5.836-.784-8.524-2.556M1603.448 217.155c-.696-8.754-.712-18.143-1.702-27.18-.68-6.235-1.86-14.757-4.463-20.113M1629.52 203.64c.887-.62-1.054-2.574-1.82-3.95-1.082-1.93-1.815-4.048-2.62-6.167-1.437-3.8-3.365-7.274-4.89-11.018-1.582-3.896-2.665-8.204-3.608-12.37-1.065-4.682-1.014-9.936-2.867-14.237"/></g><path d="M2048 0M2048 1536M0 1536M0 0" stroke="#17192D"/></g></svg>