<?xml version="1.0" encoding="iso-8859-1"?>
<!-- Generator: Adobe Illustrator 15.1.0, SVG Export Plug-In . SVG Version: 6.00 Build 0)  -->
<!DOCTYPE svg PUBLIC "-//W3C//DTD SVG 1.1//EN" "http://www.w3.org/Graphics/SVG/1.1/DTD/svg11.dtd">
<svg version="1.1" xmlns="http://www.w3.org/2000/svg" xmlns:xlink="http://www.w3.org/1999/xlink" x="0px" y="0px" width="2048px"
	 height="1536px" viewBox="0 0 2048 1536" style="enable-background:new 0 0 2048 1536;" xml:space="preserve">
<g id="c1b_x5F_zahne">
	<g>
		<path style="fill:none;stroke:#FF0050;stroke-width:3;" d="M807.07,738.396c3.577-0.925,9.391-0.202,12.744,1.562
			c1.551,0.762,2.95,2.874,3.605,4.432c0.777,2.31-0.953,3.65-2.733,4.24c-3.876,1.193-8.267,1.745-11.854,3.682
			c2.465,0.213,4.836,0.266,7.294,0.397c1.822,0.077,4.271,0.042,5.696,1.313c3.689,3.34-3.07,6.351-5.3,7.381
			c-3.003,1.236-6.651,0.997-9.655,2.233c2.18,0.731,4.975-0.077,7.254-0.271c1.883-0.176,3.857-0.273,5.824-0.37
			c0.707-0.034,1.951-0.429,2.391,0.303c0.6,0.726-0.354,1.862-0.702,2.634c-0.272,0.686-1.146,1.814-1.258,2.575
			c-0.071,1.345,1.54,0.595,1.693,1.763l0.086,0.077c-1.98,3.618-6.624,5.185-9.911,6.935c2.207-0.105,10.887-2.792,11.354,0.789
			c0.572,3.995-6.47,7.606-9.441,8.087c-1.564,0.246-2.873,0.811-4.34,1.302"/>
	</g>
	<path style="fill:none;stroke:#17192D;stroke-width:3;" d="M2048,0"/>
	<path style="fill:none;stroke:#17192D;stroke-width:3;" d="M2048,1536"/>
	<path style="fill:none;stroke:#17192D;stroke-width:3;" d="M0,1536"/>
	<path style="fill:none;stroke:#17192D;stroke-width:3;" d="M0,0"/>
</g>
<g id="Layer_1">
</g>
</svg>
