<svg xmlns="http://www.w3.org/2000/svg" width="2048" height="1536" viewBox="0 0 2048 1536"><g fill="none" stroke-width="3"><g stroke="#FF0050"><path d="M427.64 719.703c-16.878 3.27-32.18 14.668-41.184 29.935M407.89 899.938c14.06 9.74 30.85 16.593 46.972 13.482M438.755 714.78c44.286-26.405 97.992-31.482 144.813-2.878M471.665 917.566c19.642 3.1 39.646.572 60.013-4.604 30.294-7.7 49.207-18.513 71.96-41.017M589.87 711.842c39.87 2.748 77.484 4.21 117.35 6.958 23.157 1.76 86.395-3.544 99.278 19.788 4.18 6.95 2.986 16.6-2.23 24.054M613.98 867.123c24.42-9.566 65.31-23.376 95.963-32.346 20.596-6.028 46.158-14.425 65.31-23.833 13.085-7.725 38.546-12.912 36.974-34.505-.052-5.862-3.53-12.394-7.28-13.762M722.73 813.97c7.192.66 14.037-1.157 20.997-2.143M717.18 737.743c6.87-1.53 12.947-2.902 19.817-4.45M378.264 759.7c-8.892.72-19.683 2.603-31.527 2.615-18.02.874-40.004.903-58.676 2.718-33.503 3.06-81.716 4-115.01 13.75-25.028 6.89-56.64 27.467-73.572 46.647M99.336 825.274c23.95 15.274 64.89 22.69 90.525 19.9 35.036-3.29 79.157-12.272 114.467-18.92 24.445-4.603 47.74-9.052 71.602-13.267M376.098 801.38c-24.746 3.512-49.23 8.75-73.593 13.075-13.277 2.19-26.772 4.544-39.964 7.293-14.057 2.57-28.175 5.008-42.598 7.042-27.456 3.896-55.948 6.332-82.555-2.762-3.437-1.172-4.702-2.198-7.71-3.832M376.05 770.73c-7.242-1.355-16.538.866-23.67 1.29-9.53.448-123.39 11.406-140.84 13.864-7.626 1.088-15.19 2.452-22.715 4.104-7.304 1.324-13.423 3.953-20.234 6.702-12.277 5.274-29.777 15.702-38.806 25.657M376.227 770.953c-1.88 6.152-.933 23.995.004 30.35M366.592 780.027c.43 4.962-.15 10.347 1.65 15.09M359.835 781.278c-.228 4.164.26 9.406 2.216 13.246M352.102 785.327c.5 3.467 1.006 6.93 2.555 9.955M369.457 814.217c-1.8 8.824.524 28.933 5.354 36.447M795.33 776.255c-1.727-6.642-36.827 6.45-41.883 8.763-4.104 1.927-7.69 4.342-9.186 8.898-1.65 4.736 2.98 5.89 6.578 6.232 8.026.986 16.583-5.12 23.704-8.227 3.63-1.728 23.615-9.598 20.97-15.333M793.928 749.248c-1.36-5.97-18.262-5.835-22.522-6.32-7.373-.846-16.524-1.606-23.71.47-2.875.83-9.71 5.816-9.48 9.43.23 3.607 5.55 5.416 8.34 5.8 7.547 1.012 15.207-1.262 22.654-1.793 5.334-.434 10.645-1.382 15.96-2.158 1.944-.096 12.103-1.453 8.607-5.25M456.768 914.59c2.82.895 4.264 3.07 7.355 3.09 1.47.102 3.09.02 4.525-.392M606.008 870.196c-1.747.6 4.14-1.412 4.615-1.607M429.887 718.11c-1.037-.983 4.73-2.3 7.164-2.42M403.27 896.848c.974-.048 1.945-.094 2.467.4M585.645 712.586c-1.525-.96-1.07-1.498.873-1.595M385.3 750.922c-2.694 2.595-5.774 4.735-6.5 8.754M561.945 753.525c4.22-.775 8.625-4.49 11.884-6.54 5.172-3.492 8.646-10.31 13.25-12.968M570.947 830.36c11.857-.72 29.93 4.688 39.275 12.055"/></g><path d="M2048 0M2048 1536M0 1536M0 0" stroke="#17192D"/></g></svg>