<svg xmlns="http://www.w3.org/2000/svg" width="2048" height="1536" viewBox="0 0 2048 1536"><g fill="none" stroke-width="3"><g stroke="#FF0050"><path d="M378.926 850.863c-30.72 8.572-60.07 15.543-88.592 24.042-32.523 8.518-83.132 19.552-111.113 37.977-22.405 14.74-39.366 32.454-55.802 52.634M400.973 898.495c-15.532 5.774-80.803 32.88-98.46 39.928-30.718 13.155-77.206 27.576-109.968 32.708-20.78 3.26-53.52 3.74-69.107-5.545M383.467 861.914c-25.97 7.23-51.345 14.695-77.86 21.97-28.618 7.846-58.387 15.682-85.997 27.077-23.547 9.355-43.297 24.87-59.143 45.242M160.312 956.407c6.733 1.47 27.834.347 33.12.13 14.396-.974 30.238-5.86 43.96-9.922 27.26-7.77 55.936-19.008 82.195-28.887 12.727-4.79 21.863-8.678 33.32-12.85 5.916-2.087 32.69-12.35 37.47-16.28.954-.794.42-.687.62-1.016M383.48 861.98c1.828 5.892 6.106 19.28 7.604 24.937M376.01 870.133c1.703 5.312 3.88 10.214 6.326 15.08M370.655 873.936c.792 3.72 2.93 7.15 4.474 10.393M364.625 877.296c.74 3.42 1.68 6.503 2.89 9.54"/></g><path d="M2048 0M2048 1536M0 1536M0 0" stroke="#17192D"/></g></svg>