<?xml version="1.0" encoding="iso-8859-1"?>
<!-- Generator: Adobe Illustrator 15.1.0, SVG Export Plug-In . SVG Version: 6.00 Build 0)  -->
<!DOCTYPE svg PUBLIC "-//W3C//DTD SVG 1.1//EN" "http://www.w3.org/Graphics/SVG/1.1/DTD/svg11.dtd">
<svg version="1.1" xmlns="http://www.w3.org/2000/svg" xmlns:xlink="http://www.w3.org/1999/xlink" x="0px" y="0px" width="2048px"
	 height="1536px" viewBox="0 0 2048 1536" style="enable-background:new 0 0 2048 1536;" xml:space="preserve">
<g id="c1b_x5F_ohr_x5F_l">
	<g>
		<path style="fill:none;stroke:#FF0050;stroke-width:3;" d="M378.926,850.863c-30.719,8.572-60.07,15.543-88.592,24.042
			c-32.523,8.518-83.132,19.552-111.113,37.977c-22.406,14.74-39.367,32.454-55.803,52.634"/>
		<path style="fill:none;stroke:#FF0050;stroke-width:3;" d="M400.973,898.495c-15.532,5.774-80.803,32.879-98.461,39.928
			c-30.717,13.155-77.205,27.576-109.967,32.708c-20.781,3.26-53.52,3.739-69.107-5.546"/>
		<path style="fill:none;stroke:#FF0050;stroke-width:3;" d="M383.467,861.914c-25.969,7.229-51.345,14.695-77.859,21.971
			c-28.619,7.845-58.388,15.681-85.998,27.076c-23.547,9.354-43.297,24.869-59.143,45.241"/>
		<path style="fill:none;stroke:#FF0050;stroke-width:3;" d="M160.312,956.407c6.733,1.47,27.834,0.347,33.12,0.129
			c14.396-0.973,30.238-5.858,43.96-9.921c27.26-7.771,55.936-19.008,82.195-28.887c12.727-4.79,21.863-8.678,33.321-12.851
			c5.915-2.086,32.69-12.349,37.468-16.279c0.955-0.794,0.42-0.687,0.622-1.016"/>
		<path style="fill:none;stroke:#FF0050;stroke-width:3;" d="M383.48,861.981c1.828,5.891,6.106,19.279,7.604,24.936"/>
		<path style="fill:none;stroke:#FF0050;stroke-width:3;" d="M376.011,870.133c1.702,5.312,3.878,10.214,6.325,15.079"/>
		<path style="fill:none;stroke:#FF0050;stroke-width:3;" d="M370.655,873.936c0.792,3.72,2.931,7.15,4.474,10.393"/>
		<path style="fill:none;stroke:#FF0050;stroke-width:3;" d="M364.625,877.296c0.739,3.421,1.68,6.503,2.891,9.54"/>
	</g>
	<path style="fill:none;stroke:#17192D;stroke-width:3;" d="M2048,0"/>
	<path style="fill:none;stroke:#17192D;stroke-width:3;" d="M2048,1536"/>
	<path style="fill:none;stroke:#17192D;stroke-width:3;" d="M0,1536"/>
	<path style="fill:none;stroke:#17192D;stroke-width:3;" d="M0,0"/>
</g>
<g id="Layer_1">
</g>
</svg>
