<svg xmlns="http://www.w3.org/2000/svg" width="2048" height="1536" viewBox="0 0 2048 1536"><g fill="none" stroke-width="3"><g stroke="#FF0050"><path d="M1011.07 1108.245c-7.02 2.673-11.426 8.478-17.822 12.682-7.845 5.636-17.646 8.932-26.797 13.01-16.198 7.503-30.815 10.57-48.078 11.267-35.86.578-68.997-12.978-96.036-39.014-17.143-16.564-43.054-37.292-50.876-61.675M917.393 989.027c14.21-9.097 52.508-2.805 65.225 5.297M913.373 942.3c26.483-6.27 62.1-1.604 84.783 14.468M989.563 1126.015c12.653-5.418 27.824-5.46 41.13-10.093 11.176-3.234 23.077-7.18 33.637-11.94 23.906-10.142 43.078-37.024 55.884-60.446M1229.384 1008.102c-23.288 11.673-43.487 30.994-67.43 41.89-18.334 8.9-39.93 13.894-57.542 22.083M998.982 953.8c19.86-26.845 75.467-37.008 104.8-45.397 23.01-5.682 52.207-11.074 72.782-23.625M1037.36 1006.998c47.493-13.542 95.78-29.307 138.376-55.84M1218.632 898.754c-3.943-3.935-8.657-6.41-13.33-9.63M1230.72 1008.912c73.09-30.367 138.56-74.596 194.378-133.55 7.946-7.88 15.967-17.266 21.27-27.527M1193.008 872.037c37.19-29.043 82.727-44.926 124.93-63.225 33.74-14.19 70.75-24.475 102.567-41.755 26.864-14.508 52.53-32.825 77.437-49.674M1402.656 898.34c24.324-19.13 49.852-34.454 72.907-55.898 20.85-18.54 42.672-43.044 62.76-60.12M796.373 1012.66c2.854-2.11 5.742-4.982 8.595-7.1M1244.292 909.735c11.353-6.976 26.182-14.544 35.43-20.865M1264.025 959.447c5.43 1.756 10.97 1.26 16.5.77M1222.682 974.032c.756-1.466 10.084-9.288 13.01-12.905M765.904 1040.45c-8.73-6.306-11.965-14.323-13.31-24.22"/></g><path d="M2048 0M2048 1536M0 1536M0 0" stroke="#17192D"/></g></svg>