<?xml version="1.0" encoding="iso-8859-1"?>
<!-- Generator: Adobe Illustrator 15.1.0, SVG Export Plug-In . SVG Version: 6.00 Build 0)  -->
<!DOCTYPE svg PUBLIC "-//W3C//DTD SVG 1.1//EN" "http://www.w3.org/Graphics/SVG/1.1/DTD/svg11.dtd">
<svg version="1.1" xmlns="http://www.w3.org/2000/svg" xmlns:xlink="http://www.w3.org/1999/xlink" x="0px" y="0px" width="2048px"
	 height="1536px" viewBox="0 0 2048 1536" style="enable-background:new 0 0 2048 1536;" xml:space="preserve">
<g id="c1b_x5F_arm_x5F_h">
	<g>
		<path style="fill:none;stroke:#FF0050;stroke-width:3;" d="M888.044,569.575c30.71-8.323,72.178-10.896,95.854-30.803"/>
		<path style="fill:none;stroke:#FF0050;stroke-width:3;" d="M755.184,522.088c1.4-29.961,30.424-75.894,48.627-96.812
			c23.988-26.652,64.291-33.776,96.889-38.264c5.535-0.493,11.797-1.7,17.332-2.195"/>
		<path style="fill:none;stroke:#FF0050;stroke-width:3;" d="M935.295,384.125c5.466,1.005,13.062,0.607,17.088,3.049"/>
		<path style="fill:none;stroke:#FF0050;stroke-width:3;" d="M958.803,397.23c0.07-1.493,0.176-3.746,0.898-4.459"/>
		<path style="fill:none;stroke:#FF0050;stroke-width:3;" d="M886.248,489.925c17.367-2.942,39.205-13.183,52.834-24.558"/>
		<path style="fill:none;stroke:#FF0050;stroke-width:3;" d="M972.752,496.966c4.127,0.191,6.913-0.427,10.418-1.766"/>
		<path style="fill:none;stroke:#FF0050;stroke-width:3;" d="M990.539,529.324c6.84,1.069,13.611,3.64,20.523,3.21"/>
		<path style="fill:none;stroke:#FF0050;stroke-width:3;" d="M1022.824,531.581c5.018-4.268,20.01-0.564,27.572-0.215
			c11.041-0.233,21.46-1.998,32.637-5.23c21.594-4.992,43.954-11.46,63.762-22.545c-1.373-0.062-3.432-0.16-4.847,0.529"/>
		<path style="fill:none;stroke:#FF0050;stroke-width:3;" d="M1040.816,470.871c27.683-2.462,53.234-3.517,79.887-13.531"/>
		<path style="fill:none;stroke:#FF0050;stroke-width:3;" d="M967.65,384.885c4.053,1.69,22.35-6.464,28.645-8.422
			c15.376-4.536,30.095-9.853,44.743-13.672c14.652-3.821,29.957-6.857,45.19-8.401c9.043-1.829,37.887,0.266,43.637-4.719
			c0,0-0.688-0.033-1.375-0.063"/>
		<path style="fill:none;stroke:#FF0050;stroke-width:3;" d="M1266.469,317.029c31.995-21.025,73.813-31.081,108.857-43.712
			c33.676-12.687,65.421-28.469,99.676-38.881c7.704-2.64,14.686-4.569,21.771-8.743"/>
		<path style="fill:none;stroke:#FF0050;stroke-width:3;" d="M1408.468,404.73c-1.163-4.561,62.03-44.397,72.006-51.439
			c17.823-12.682,31.691-29.297,49.513-41.977c12.869-9.905,27.219-22,36.785-35.063"/>
		<path style="fill:none;stroke:#FF0050;stroke-width:3;" d="M1543.121,266.141c4.85-0.523,8.979-0.333,13.824-0.858"/>
		<path style="fill:none;stroke:#FF0050;stroke-width:3;" d="M770.932,524.334c2.678,1.626,9.006-1.087,11.207-3.986"/>
		<path style="fill:none;stroke:#FF0050;stroke-width:3;" d="M1427.186,299.007c13.962-3.857,26.211-15.296,38.901-21.459"/>
		<path style="fill:none;stroke:#FF0050;stroke-width:3;" d="M1498.744,221.833c13.6-5.906,29.115-25.571,42.618-22.273"/>
		<path style="fill:none;stroke:#FF0050;stroke-width:3;" d="M749.91,552.309c-0.274-7.852,1.195-17.75,4.594-23.809"/>
		<path style="fill:none;stroke:#FF0050;stroke-width:3;" d="M1570.599,272.454c3.599-1.237,12.053-2.946,11.316-7.89"/>
	</g>
	<path style="fill:none;stroke:#17192D;stroke-width:3;" d="M2048,0"/>
	<path style="fill:none;stroke:#17192D;stroke-width:3;" d="M2048,1536"/>
	<path style="fill:none;stroke:#17192D;stroke-width:3;" d="M0,1536"/>
	<path style="fill:none;stroke:#17192D;stroke-width:3;" d="M0,0"/>
</g>
<g id="Layer_1">
</g>
</svg>
