<?xml version="1.0" encoding="iso-8859-1"?>
<!-- Generator: Adobe Illustrator 15.1.0, SVG Export Plug-In . SVG Version: 6.00 Build 0)  -->
<!DOCTYPE svg PUBLIC "-//W3C//DTD SVG 1.1//EN" "http://www.w3.org/Graphics/SVG/1.1/DTD/svg11.dtd">
<svg version="1.1" xmlns="http://www.w3.org/2000/svg" xmlns:xlink="http://www.w3.org/1999/xlink" x="0px" y="0px" width="2048px"
	 height="1536px" viewBox="0 0 2048 1536" style="enable-background:new 0 0 2048 1536;" xml:space="preserve">
<g id="c1b_x5F_augen">
	<g>
		<path style="fill:none;stroke:#FF0050;stroke-width:3;" d="M502.133,764.037c-0.242,0.828-39.367-37.008-44.198-41.99"/>
		<path style="fill:none;stroke:#FF0050;stroke-width:3;" d="M458.307,722.439c19.254-10.94,61.176-15.949,73.543-13.301
			c30.824,5.713,29.393,33.602,4.299,45.529"/>
		<path style="fill:none;stroke:#FF0050;stroke-width:3;" d="M536.148,754.668c-9.713,3.575-22.084,7.717-34.324,9.811"/>
		<path style="fill:none;stroke:#FF0050;stroke-width:3;" d="M487.611,897.029c21.883,3.396,66.875-7.533,77.504-14.396
			c26.787-16.277,15.558-41.844-12.139-44.093"/>
		<path style="fill:none;stroke:#FF0050;stroke-width:3;" d="M552.977,838.54c-10.344,0.104-23.381,0.618-35.57,3.009"/>
		<path style="fill:none;stroke:#FF0050;stroke-width:3;" d="M517.849,841.849c-0.516-0.688-27.698,49.306-30.446,55.678"/>
	</g>
	<path style="fill:none;stroke:#17192D;stroke-width:3;" d="M2048,0"/>
	<path style="fill:none;stroke:#17192D;stroke-width:3;" d="M2048,1536"/>
	<path style="fill:none;stroke:#17192D;stroke-width:3;" d="M0,1536"/>
	<path style="fill:none;stroke:#17192D;stroke-width:3;" d="M0,0"/>
</g>
<g id="Layer_1">
</g>
</svg>
