<?xml version="1.0" encoding="iso-8859-1"?>
<!-- Generator: Adobe Illustrator 15.1.0, SVG Export Plug-In . SVG Version: 6.00 Build 0)  -->
<!DOCTYPE svg PUBLIC "-//W3C//DTD SVG 1.1//EN" "http://www.w3.org/Graphics/SVG/1.1/DTD/svg11.dtd">
<svg version="1.1" xmlns="http://www.w3.org/2000/svg" xmlns:xlink="http://www.w3.org/1999/xlink" x="0px" y="0px" width="2048px"
	 height="1536px" viewBox="0 0 2048 1536" style="enable-background:new 0 0 2048 1536;" xml:space="preserve">
<g id="c1b_x5F_hand_x5F_h">
	<g>
		<path style="fill:none;stroke:#FF0050;stroke-width:3;" d="M1678.084,198.198c-13.281,15.512-23.76,32.915-40.705,44.051
			c-15.267,9.813-25.527,22.662-44.713,19.658c-2.556-0.474-5.414-1.305-7.933-2.475"/>
		<path style="fill:none;stroke:#FF0050;stroke-width:3;" d="M1548.387,175.647c-0.278-14.744,4.926-29.584,8.166-43.815
			c3.645-15.965,5.683-32.005,5.466-48.15c-0.021-6.315,0.271-12.614,0.549-18.566c7.136-1.069,15.532,5.285,18.097,12.418
			c1.971,6.062,2.271,13.439,2.926,20.131c0.568,8.448-2.055,16.392-2.109,24.462c-0.057,8.064,4.44,15.284,6.007,23.076
			c1.729,11.307-0.359,21.381-2.146,32.172"/>
		<path style="fill:none;stroke:#FF0050;stroke-width:3;" d="M1680.649,195.501c4.271-2.409,5.217-7.036,7.139-11.132
			c2.015-4.275,6.189-6.198,9.438-9.373c3.178-3.106,5.003-7.272,8.03-10.381c3.474-3.559,6.994-5.6,8.999-10.562
			c1.884-4.672,4.873-6.838,7.999-10.74c2.877-3.582,5.769-7.944,7.962-11.953c3.028-5.541,12.896-22.77-0.224-21.848
			c-8.41,0.592-16.691,11.726-22.12,17.947c-3.292,3.767-7.463,6.271-10.66,10.2c-2.93,3.587-4.941,7.724-8.788,9.71
			c-7.918,4.091-11.365,10.084-16.504,17.343"/>
		<path style="fill:none;stroke:#FF0050;stroke-width:3;" d="M1668.146,170.49c4.729-2.672,5.777-7.801,7.912-12.335
			c2.23-4.744,6.854-6.877,10.458-10.397c3.521-3.439,5.544-8.054,8.899-11.501c3.849-3.943,7.757-6.206,9.979-11.712
			c2.084-5.177,5.393-7.578,8.864-11.899c3.184-3.972,6.39-8.807,8.82-13.249c3.357-6.142,14.301-25.242-0.247-24.219
			c-9.32,0.658-18.498,12.998-24.514,19.894c-3.648,4.173-8.27,6.954-11.82,11.303c-3.246,3.979-5.475,8.566-9.736,10.763
			c-8.783,4.538-12.601,11.18-18.293,19.228"/>
		<path style="fill:none;stroke:#FF0050;stroke-width:3;" d="M1588.781,138.247c12.047-4.083,14.635-20.635,23.625-28.362
			c3.936-3.379,8.567-4.519,11.992-8.465c3.709-4.277,6.07-9.617,10.277-13.289c3.745-3.272,8.561-4.574,11.982-8.546
			c4.064-4.722,7.256-10.25,12.489-13.743c2.411-1.614,4.062-2.29,5.945-4.709c2.044-2.633,3.874-5.135,6.292-7.418
			c4.164-3.938,9.193-6.755,14.326-8.724c6.561-2.512,12.019-0.907,13.361,7.206"/>
		<path style="fill:none;stroke:#FF0050;stroke-width:3;" d="M1644.58,116.328c4.777-4.392,7.017-11.851,12.034-16.428
			c4.271-3.897,8.53-5.729,12.511-10.547c4.859-5.884,11.846-8.278,17.097-13.181c3.511-3.279,5.704-7.971,9.424-11.21
			c4.725-4.105,9.486-7.996,14.874-10.61c8.804-4.272,8.248,3.478,8.377,10.464"/>
		<path style="fill:none;stroke:#FF0050;stroke-width:3;" d="M1681.773,126.101c-0.882-1.628-1.245-3.481-2.345-5.021"/>
		<path style="fill:none;stroke:#FF0050;stroke-width:3;" d="M1698.352,108.983c-0.383-1.69-1.104-3.356-1.699-4.99"/>
		<path style="fill:none;stroke:#FF0050;stroke-width:3;" d="M1693.624,155.065c-1.42-0.683-1.863-2.902-2.697-4.334"/>
		<path style="fill:none;stroke:#FF0050;stroke-width:3;" d="M1710.798,139.031c-1.073-1.439-1.822-3.252-2.345-5.021"/>
		<path style="fill:none;stroke:#FF0050;stroke-width:3;" d="M1669.471,99.917c-1.213-0.795-1.495-2.206-1.766-3.589"/>
		<path style="fill:none;stroke:#FF0050;stroke-width:3;" d="M1691.205,82.692c-0.487-1.371-1.654-3.069-2.371-4.318"/>
		<path style="fill:none;stroke:#FF0050;stroke-width:3;" d="M1671.812,63.551c-0.421,0.104-0.427,0.504-0.917,0.265
			c-0.074-1.257-0.535-1.909-1.219-2.821"/>
		<path style="fill:none;stroke:#FF0050;stroke-width:3;" d="M1649.169,86.342c-0.524-0.613-0.928-1.33-1.187-2.157"/>
		<path style="fill:none;stroke:#FF0050;stroke-width:3;" d="M1643.382,113.788c0.982-1.364,1.275-3.149,1.19-4.858"/>
		<path style="fill:none;stroke:#FF0050;stroke-width:3;" d="M1657.57,134.09c0.443-1.362,0.86-2.677,0.838-4.169"/>
		<path style="fill:none;stroke:#FF0050;stroke-width:3;" d="M1668.92,166.893c0.464-1.181,0.47-2.478,0.5-3.837"/>
		<path style="fill:none;stroke:#FF0050;stroke-width:3;" d="M1653.218,192.817c-1.873-3.848,0.515-6.72,1.138-10.473"/>
		<path style="fill:none;stroke:#FF0050;stroke-width:3;" d="M1642.844,166.723c-2.004-6.397-1.532-11.16,2.066-16.736"/>
		<path style="fill:none;stroke:#FF0050;stroke-width:3;" d="M1633.18,152.942c-3.848-5.144-5.66-10.896-5.68-17.395
			c-3.293,0.015-5.836-0.784-8.524-2.556"/>
		<path style="fill:none;stroke:#FF0050;stroke-width:3;" d="M1603.448,217.155c-0.696-8.754-0.712-18.143-1.702-27.18
			c-0.679-6.235-1.859-14.757-4.463-20.113"/>
		<path style="fill:none;stroke:#FF0050;stroke-width:3;" d="M1629.521,203.639c0.886-0.619-1.055-2.573-1.82-3.948
			c-1.083-1.931-1.816-4.049-2.62-6.168c-1.438-3.799-3.366-7.274-4.89-11.018c-1.583-3.896-2.666-8.204-3.609-12.37
			c-1.065-4.682-1.014-9.936-2.867-14.237"/>
	</g>
	<path style="fill:none;stroke:#17192D;stroke-width:3;" d="M2048,0"/>
	<path style="fill:none;stroke:#17192D;stroke-width:3;" d="M2048,1536"/>
	<path style="fill:none;stroke:#17192D;stroke-width:3;" d="M0,1536"/>
	<path style="fill:none;stroke:#17192D;stroke-width:3;" d="M0,0"/>
</g>
<g id="Layer_1">
</g>
</svg>
