<?xml version="1.0" encoding="iso-8859-1"?>
<!-- Generator: Adobe Illustrator 15.1.0, SVG Export Plug-In . SVG Version: 6.00 Build 0)  -->
<!DOCTYPE svg PUBLIC "-//W3C//DTD SVG 1.1//EN" "http://www.w3.org/Graphics/SVG/1.1/DTD/svg11.dtd">
<svg version="1.1" xmlns="http://www.w3.org/2000/svg" xmlns:xlink="http://www.w3.org/1999/xlink" x="0px" y="0px" width="2048px"
	 height="1536px" viewBox="0 0 2048 1536" style="enable-background:new 0 0 2048 1536;" xml:space="preserve">
<g id="c1b_x5F_hand_x5F_v">
	<g>
		<path style="fill:none;stroke:#FF0050;stroke-width:3;" d="M1627.983,597.297c-1.294-0.978-2.875-1.656-4.178-2.632
			c-21.302,20.503-39.716,42.668-58.466,65.687"/>
		<path style="fill:none;stroke:#FF0050;stroke-width:3;" d="M1660.664,631.298c1.51,1.869,3.279,4.047,4.789,5.914
			c-8.092,8.347-13.636,19.216-22.481,26.625"/>
		<path style="fill:none;stroke:#FF0050;stroke-width:3;" d="M1557.893,775.088c-7.195,6.93-13.421,15.688-20.579,22.022
			c-2.34-1.617-4.144-3.215-5.905-5.388"/>
		<path style="fill:none;stroke:#FF0050;stroke-width:3;" d="M1653.727,651.897c4.642-5.018,12.994,12.606,12.581,19.495
			c-0.481,7.994-4.091,15.574-9.009,20.868c-9.286,10.04-15.021,13.337-26.575,16.154"/>
		<path style="fill:none;stroke:#FF0050;stroke-width:3;" d="M1611.545,734.075c9.83-1.157,17.07,0.195,24.618-8.188
			c4.639-5.022,9.859-15.022,9.207-22.156"/>
		<path style="fill:none;stroke:#FF0050;stroke-width:3;" d="M1591.188,756.996c8.993-0.905,14.869,0.645,22.816-5.343
			c3.709-3.017,12.525-14.276,10.035-17.969"/>
		<path style="fill:none;stroke:#FF0050;stroke-width:3;" d="M1600.092,757.5c-0.307,0.29-4.89,13.625-9.133,16.522
			c-10.045,7.287-36.271,3.41-47.787,1.411c-0.928,0.885-2.201,2.712-2.274,3.973"/>
		<path style="fill:none;stroke:#FF0050;stroke-width:3;" d="M1509.502,707.988c-2.889,2.334-4.859,5.115-6.259,9.13
			c-0.069-0.08-0.128-0.326-0.194-0.413"/>
		<path style="fill:none;stroke:#FF0050;stroke-width:3;" d="M1618.824,714.291c0.14-0.31,0.113-0.696,0.262-0.99
			c1.485,5.397-0.724,8.913-3.616,12.847"/>
		<path style="fill:none;stroke:#FF0050;stroke-width:3;" d="M1639.662,679.669c-0.104,6.469,0.115,12.039-6.268,16.278"/>
		<path style="fill:none;stroke:#FF0050;stroke-width:3;" d="M1600.828,737.002c0.052,3.295-1.561,6.856-2.942,9.306"/>
		<path style="fill:none;stroke:#FF0050;stroke-width:3;" d="M1581.804,763.402c-0.067,1.551-3.76,5.271-5.182,7.145"/>
		<path style="fill:none;stroke:#FF0050;stroke-width:3;" d="M1532.414,766.361c1.173,1.133,2.309,2.145,3.577,1.958"/>
		<path style="fill:none;stroke:#FF0050;stroke-width:3;" d="M1645.319,666.204c-3.743-0.42-6.504-1.196-10.338-0.475
			c-3.705,0.694-7.085,3.922-10.566,3.425c-4.701-0.687-9.51-2.093-14.204-3.148c-4.771-1.077-14.125-6.1-18.978-5.431
			c-5.212,0.712-10.687,1.343-15.809,2.503c-2.913,0.661-3.921,0.405-6.9-0.429c-2.385-0.658-4.557-0.668-6.599,0.213"/>
		<path style="fill:none;stroke:#FF0050;stroke-width:3;" d="M1588.157,629.872c-1.605,1.112-8.052-2.459-10.787-2.152
			c-4.279,0.481-8.641,3.218-12.494,4.926c-7.299,3.25-16.025,3.139-23.006,7.006c-7.355,4.062-10.696,13.7-14.559,20.843
			c-4.139,7.66-8.546,15.233-12.53,23.083c-1.99,3.912-3.221,7.709-3.872,12.14c-0.591,3.995,0.335,9.511-0.815,13.056
			c0.151,0.481,0.407,0.369,0.727,0.585"/>
		<path style="fill:none;stroke:#FF0050;stroke-width:3;" d="M1560.309,659.711c-0.779,3.802-0.235,6.714-0.305,10.39"/>
		<path style="fill:none;stroke:#FF0050;stroke-width:3;" d="M1563.795,755.123c-1.697,1.127-8.863,2.586-10.992,1.813"/>
		<path style="fill:none;stroke:#FF0050;stroke-width:3;" d="M1578.62,736.125c-0.265-1.939-10.638,0.75-12.221,0.989
			c-3.132,0.472-7.476,0.047-10.346,1.54"/>
		<path style="fill:none;stroke:#FF0050;stroke-width:3;" d="M1592.335,705.757c-1.929,0.831-4.631,0.562-6.784,1.141
			c-2.664,0.693-5.344,1.402-8.031,2.004c-2.505,0.569-5.061,1.066-7.551,1.638c-2.281,0.524-4.903,2.159-7.229,2.143"/>
		<path style="fill:none;stroke:#FF0050;stroke-width:3;" d="M1628.091,600.752c0.632-0.879,1.229-1.679,1.78-2.379
			c37.217-42.649,69.493-84.998,104.972-129.098c64.539-84.7,147.782-161.227,198.662-252.854
			c30.168,61.81,13.122,137.384-31.802,189.824c-31.08,34.518-69.344,68.986-103.816,102.151
			c-34.563,31.621-67.258,57.401-101.82,89.022c-10.514,10.331-22.545,20.756-34.478,30.828"/>
		<path style="fill:none;stroke:#FF0050;stroke-width:3;" d="M1661.495,627.463c-13.189-1.258-27.007-13.192-32.348-25.756"/>
		<line style="fill:none;stroke:#FF0050;stroke-width:3;" x1="1634.383" y1="611.074" x2="1922.232" y2="257.38"/>
	</g>
	<path style="fill:none;stroke:#17192D;stroke-width:3;" d="M2048,0"/>
	<path style="fill:none;stroke:#17192D;stroke-width:3;" d="M2048,1536"/>
	<path style="fill:none;stroke:#17192D;stroke-width:3;" d="M0,1536"/>
	<path style="fill:none;stroke:#17192D;stroke-width:3;" d="M0,0"/>
</g>
<g id="Layer_1">
</g>
</svg>
