<svg xmlns="http://www.w3.org/2000/svg" width="2048" height="1536" viewBox="0 0 2048 1536"><g fill="none" stroke="#17192D" stroke-width="3"><path d="M1321.43 1033.073c-1.353-1.09-1.95-3.146-3.123-4.533-1.178-1.396-2.566-2.982-4.14-4.045-3.39-2.288-8.085-3.855-11.86-5.463-9.8-4.163-18.506-9.802-27.8-14.863-3.5-1.91-9.575-5.19-11.58-8.705M1326.87 1037.56c1.28 2.523 5.903 3.904 8.277 5.057 4.028 1.96 7.3 3.94 10.855 6.745 5.644 4.443 11.577 8.38 17.413 12.438 5.81 4.03 11.064 8.082 15.658 13.496.846 1 2.992 2.822 3.225 4.093.232 1.223-.876 2.368-2.123 3.277-3.574 2.615-6.753 3.617-10.81 1.387-1.444-.8-2.404-1.797-3.622-2.957-1.64-1.556-2.7-1.676-4.848-2.377-3.407-1.12-6.466-3.04-9.338-5.368-2.86-2.315-5.583-5.433-8.537-7.486-1.812-1.262-3.55-.327-5.74-.623-1.974-.263-4.183-.823-6.045-1.51-2.398-.88-5.167-2.163-7.195-3.597M1304.873 1040.815c2.55.906 4.198 3.132 5.103 5.656M1282.946 1056.593c3.14 1.203 3.58 5.076 4.617 7.752M1257.264 1071.146c2.33.068 4.38 5.09 4.547 7.065M1204.436 1049.835c.452 4.812-1.425 9.76-4.915 12.77M1195.645 989.444c-6.996 3.82-6.697 14.688-9.662 20.69-3.594 7.267-6.955 14.83-8.45 22.72-.77 4.08-.645 7.63-.46 11.826.167 3.666-1.42 6.613-2.438 10.094-1.005 3.44-3.55 6.285-4.466 9.804-1.13 4.35-2.475 8.62-3.11 13.01-.543 3.716-.434 9.52-2.455 12.752-1.147 1.835-2.977 3.194-4.08 5.16-1.08 1.935-1.828 3.718-3.057 5.544-.986 1.465-2.938 3.216-2.696 5.045.198 1.483 2.36 3.565 3.452 4.392 3.005 2.26 6.796 1.78 9.95.003 3.815-2.14 6.716-4.988 9.927-8.015 3.302-3.123 4.91-6.85 7.102-10.77 1.87-3.336 3.802-6.305 5.55-9.756 1.708-3.365 2.604-6.77 3.766-10.434.837-2.646 1.574-6.47 3.202-8.73M1209.38 1060.966c2.733 3.418 5.74 6.672 8.43 10.162 2.398 3.113 4.563 6.095 7.313 9.037 2.394 2.566 6.087 4.852 8.022 7.646 2.194 3.155 3.26 6.724 5.662 9.75 2.547 3.2 6.42 4.044 9.095 6.87 1.316 1.39 1.55 3.596 2.396 5.4.854 1.822 1.76 3.625 2.59 5.447 1.705 3.717 4.66 6.215 7.064 9.504 2.267 3.1 2.85 7.386 4.62 10.77 1.897 3.622 5.11 6.21 6.85 9.632 1.706 3.36 3.372 6.256 6.088 8.972 2.058 2.054 5.27 5.714 8.315 5.295 3.666-.514 5.833-4.39 5.846-7.852.035-8.158-4.206-15.416-5.627-22.904-.682-3.613-2.2-7.318-3.925-10.55-.935-1.74-2.233-3.43-3.06-5.155-.81-1.718-.97-3.525-1.818-5.3-1.446-3.03-3.368-5.957-5.173-8.838-1.598-2.545-4.283-6.27-6.53-8.017M1315.575 1057.31c1.798 3.502 4.77 6.71 7.476 9.59 2.75 2.92 4.945 5.696 8.19 8.193 2.813 2.17 5.657 4.094 8.135 6.555 2.79 2.77 4.527 6.194 6.77 9.266 2.288 3.133 4.938 5.803 7.392 8.77 1.495 1.825 2.74 3.713 4.598 5.214 1.623 1.3 1.98 2.56 3.35 4.047 1.498 1.633 3.145 1.202 2.18 3.602-.5 1.25-2.18 2.832-3.246 3.67-2.744 2.14-6.272 4.356-9.93 3.23-3.743-1.146-7.474-5.08-9.618-8.14-1.124-1.604-1.68-3.102-3.256-4.433-1.92-1.63-3.975-2.938-5.82-4.688-3.055-2.896-5.902-5.793-8.612-8.96-1.245-1.46-2.306-3.18-3.44-4.5-1.376-1.617-3.556-1.67-5.506-2.772-2.138-1.21-4.34-2.766-6.31-4.273-1.852-1.402-4.12-5.037-6.238-5.495M1290.215 1075.245c3.414 2.414 5.58 7.5 7.27 11.125 1.7 3.66 5.063 6.227 7.708 9.045 2.69 2.87 4.74 6.418 6.6 9.846 1.87 3.448 4.48 6.147 7.2 9.048 5.188 5.52 7.167 13.066 10.37 19.755.732 1.52 1.853 2.995 1.062 4.397-.926 1.636-3.243 1.656-4.758 2.11-4.034 1.206-6.69 2.235-10.53-.055-3.542-2.113-5.978-5.024-7.993-8.448-1.875-3.173-4.088-5.686-6.1-8.918-2.154-3.487-4.547-6.694-6.332-10.32-.816-1.663-1.578-3.397-2.426-5.008-1.155-2.184-2.515-2.524-4.54-3.82-2.9-1.87-5.624-4.33-7.88-6.82-2.153-2.38-6.07-6.15-7.077-9.093M2048 0M2048 1536M0 1536M0 0"/></g></svg>