<?xml version="1.0" encoding="iso-8859-1"?>
<!-- Generator: Adobe Illustrator 15.1.0, SVG Export Plug-In . SVG Version: 6.00 Build 0)  -->
<!DOCTYPE svg PUBLIC "-//W3C//DTD SVG 1.1//EN" "http://www.w3.org/Graphics/SVG/1.1/DTD/svg11.dtd">
<svg version="1.1" xmlns="http://www.w3.org/2000/svg" xmlns:xlink="http://www.w3.org/1999/xlink" x="0px" y="0px" width="2048px"
	 height="1536px" viewBox="0 0 2048 1536" style="enable-background:new 0 0 2048 1536;" xml:space="preserve">
<g id="c2a_x5F_hand_x5F_h">
	<g>
		<path style="fill:none;stroke:#17192D;stroke-width:3;" d="M1321.429,1033.073c-1.352-1.09-1.95-3.146-3.122-4.533
			c-1.178-1.396-2.566-2.982-4.14-4.045c-3.391-2.288-8.085-3.855-11.859-5.463c-9.802-4.163-18.507-9.802-27.8-14.863
			c-3.5-1.908-9.576-5.19-11.581-8.704"/>
		<path style="fill:none;stroke:#17192D;stroke-width:3;" d="M1326.869,1037.56c1.282,2.523,5.904,3.904,8.278,5.057
			c4.028,1.959,7.3,3.939,10.855,6.745c5.644,4.443,11.577,8.379,17.413,12.438c5.809,4.031,11.064,8.082,15.658,13.496
			c0.846,1,2.992,2.822,3.225,4.093c0.232,1.224-0.876,2.369-2.123,3.278c-3.574,2.615-6.753,3.617-10.809,1.387
			c-1.445-0.799-2.405-1.797-3.623-2.957c-1.639-1.556-2.7-1.676-4.848-2.377c-3.407-1.119-6.466-3.04-9.338-5.368
			c-2.86-2.315-5.583-5.433-8.537-7.486c-1.812-1.262-3.549-0.327-5.739-0.623c-1.975-0.263-4.184-0.823-6.046-1.511
			c-2.398-0.879-5.167-2.162-7.195-3.596"/>
		<path style="fill:none;stroke:#17192D;stroke-width:3;" d="M1304.873,1040.815c2.551,0.906,4.198,3.132,5.103,5.656"/>
		<path style="fill:none;stroke:#17192D;stroke-width:3;" d="M1282.946,1056.593c3.141,1.203,3.581,5.076,4.617,7.752"/>
		<path style="fill:none;stroke:#17192D;stroke-width:3;" d="M1257.264,1071.146c2.331,0.068,4.379,5.089,4.547,7.065"/>
		<path style="fill:none;stroke:#17192D;stroke-width:3;" d="M1204.436,1049.835c0.452,4.812-1.425,9.761-4.915,12.771"/>
		<path style="fill:none;stroke:#17192D;stroke-width:3;" d="M1195.645,989.444c-6.996,3.819-6.697,14.688-9.662,20.691
			c-3.594,7.266-6.955,14.828-8.449,22.719c-0.77,4.08-0.646,7.631-0.461,11.826c0.167,3.666-1.419,6.613-2.438,10.094
			c-1.005,3.44-3.55,6.285-4.466,9.804c-1.13,4.351-2.474,8.619-3.109,13.009c-0.543,3.717-0.434,9.521-2.455,12.753
			c-1.147,1.835-2.977,3.194-4.079,5.161c-1.08,1.934-1.829,3.717-3.058,5.543c-0.986,1.465-2.938,3.216-2.696,5.045
			c0.198,1.484,2.361,3.566,3.452,4.393c3.005,2.26,6.796,1.779,9.949,0.003c3.816-2.139,6.717-4.988,9.928-8.015
			c3.301-3.123,4.909-6.85,7.101-10.769c1.869-3.337,3.802-6.306,5.551-9.757c1.707-3.365,2.603-6.769,3.765-10.434
			c0.837-2.646,1.574-6.471,3.202-8.73"/>
		<path style="fill:none;stroke:#17192D;stroke-width:3;" d="M1209.379,1060.966c2.734,3.418,5.74,6.672,8.432,10.162
			c2.397,3.113,4.562,6.095,7.312,9.037c2.394,2.566,6.087,4.852,8.022,7.646c2.194,3.154,3.261,6.723,5.662,9.75
			c2.547,3.199,6.42,4.043,9.095,6.868c1.316,1.39,1.55,3.597,2.396,5.402c0.854,1.821,1.759,3.624,2.59,5.446
			c1.705,3.717,4.66,6.215,7.064,9.504c2.267,3.099,2.85,7.385,4.621,10.77c1.896,3.621,5.11,6.208,6.85,9.631
			c1.705,3.359,3.371,6.256,6.087,8.972c2.058,2.054,5.271,5.714,8.315,5.295c3.666-0.513,5.833-4.39,5.846-7.851
			c0.034-8.158-4.207-15.416-5.628-22.904c-0.682-3.613-2.199-7.318-3.925-10.551c-0.935-1.738-2.233-3.429-3.059-5.154
			c-0.811-1.717-0.971-3.524-1.819-5.299c-1.446-3.031-3.368-5.957-5.173-8.838c-1.598-2.545-4.283-6.271-6.531-8.017"/>
		<path style="fill:none;stroke:#17192D;stroke-width:3;" d="M1315.575,1057.31c1.798,3.502,4.769,6.711,7.476,9.59
			c2.75,2.92,4.944,5.696,8.19,8.193c2.812,2.17,5.656,4.094,8.134,6.555c2.791,2.771,4.527,6.194,6.771,9.266
			c2.287,3.133,4.937,5.803,7.391,8.77c1.495,1.825,2.74,3.713,4.598,5.214c1.623,1.3,1.98,2.559,3.35,4.047
			c1.498,1.633,3.145,1.202,2.181,3.602c-0.502,1.249-2.181,2.832-3.247,3.669c-2.743,2.142-6.271,4.357-9.929,3.23
			c-3.743-1.145-7.474-5.08-9.618-8.139c-1.124-1.604-1.681-3.102-3.256-4.433c-1.921-1.63-3.975-2.938-5.82-4.688
			c-3.055-2.896-5.902-5.793-8.612-8.961c-1.245-1.46-2.306-3.18-3.439-4.5c-1.377-1.616-3.557-1.668-5.507-2.771
			c-2.138-1.209-4.339-2.766-6.309-4.273c-1.853-1.403-4.12-5.038-6.239-5.496"/>
		<path style="fill:none;stroke:#17192D;stroke-width:3;" d="M1290.215,1075.245c3.414,2.414,5.58,7.5,7.269,11.125
			c1.702,3.66,5.064,6.227,7.709,9.045c2.689,2.869,4.74,6.418,6.599,9.846c1.87,3.447,4.48,6.146,7.2,9.047
			c5.189,5.521,7.168,13.066,10.371,19.755c0.732,1.521,1.853,2.995,1.062,4.397c-0.926,1.636-3.243,1.656-4.758,2.111
			c-4.034,1.205-6.69,2.234-10.531-0.056c-3.541-2.113-5.977-5.024-7.992-8.448c-1.875-3.173-4.088-5.686-6.1-8.918
			c-2.154-3.486-4.547-6.693-6.332-10.318c-0.816-1.664-1.578-3.398-2.426-5.009c-1.155-2.184-2.515-2.524-4.54-3.821
			c-2.899-1.868-5.624-4.33-7.88-6.818c-2.153-2.381-6.069-6.15-7.077-9.094"/>
	</g>
	<path style="fill:none;stroke:#17192D;stroke-width:3;" d="M2048,0"/>
	<path style="fill:none;stroke:#17192D;stroke-width:3;" d="M2048,1536"/>
	<path style="fill:none;stroke:#17192D;stroke-width:3;" d="M0,1536"/>
	<path style="fill:none;stroke:#17192D;stroke-width:3;" d="M0,0"/>
</g>
<g id="Layer_1">
</g>
</svg>
