<svg xmlns="http://www.w3.org/2000/svg" width="2048" height="1536" viewBox="0 0 2048 1536"><g fill="none" stroke="#17192D" stroke-width="3"><path d="M1222.19 411.994c9.275 29.285 2.608 76.923-7.88 105.03M1145.334 473.537c-.837 16.248 13.868 48.176 27.003 59.367M1209.924 510.93c9.28 29.28 14.27 58.864 17.785 89.017 2.108 15.112 4.22 30.22 4.922 45.195.74 7.17.003 14.91.034 22.015-.467 4.924-.71 14.84-.002 14.91M1244.33 691.516c-1.645-11.03-6.183-21.002-9.52-31.965M1169.052 567.38c-1.61 16.882-.404 34.038 2.274 50.623.47 9.982 1.71 19.33 3.65 28.747.234 4.99 1.34 15.75 3.583 14.54M2048 0M2048 1536M0 1536M0 0"/></g></svg>