<?xml version="1.0" encoding="iso-8859-1"?>
<!-- Generator: Adobe Illustrator 15.1.0, SVG Export Plug-In . SVG Version: 6.00 Build 0)  -->
<!DOCTYPE svg PUBLIC "-//W3C//DTD SVG 1.1//EN" "http://www.w3.org/Graphics/SVG/1.1/DTD/svg11.dtd">
<svg version="1.1" xmlns="http://www.w3.org/2000/svg" xmlns:xlink="http://www.w3.org/1999/xlink" x="0px" y="0px" width="2048px"
	 height="1536px" viewBox="0 0 2048 1536" style="enable-background:new 0 0 2048 1536;" xml:space="preserve">
<g id="c2a_x5F_fuss_x5F_h">
	<g>
		<path style="fill:none;stroke:#17192D;stroke-width:3;" d="M626.631,963.072c-2.863,2.583-6.589,4.208-10.272,4.923"/>
		<path style="fill:none;stroke:#17192D;stroke-width:3;" d="M667.734,977.97c2.827,32.924-8.587,59.637,11.87,86.199"/>
		<path style="fill:none;stroke:#17192D;stroke-width:3;" d="M623.472,1127.687c-33.022-12.655-21.751-53.942-22.141-81.274
			c-0.242-12.761,2.812-36.271-3.832-48.452c-7.509-13.14-21.746-19.348-26.341-35.976"/>
		<path style="fill:none;stroke:#17192D;stroke-width:3;" d="M654.21,1109.6c5.93,7.561,12.43,10.26,20.237,14.235
			c5.367,2.73,8.723,7.207,15.263,7.293c-0.014,12.786-12.259,19.944-24.105,17.484c-6.165-1.277-9.805-7.213-14.398-11.121
			c-4.816-4.102-10.019-4.104-15.958-5.299c-2.347-0.471-9.994-1.597-9.573-4.84"/>
		<path style="fill:none;stroke:#17192D;stroke-width:3;" d="M646.849,1104.495c0.257-2.547-3.688-5.207-5.87-5.756"/>
		<path style="fill:none;stroke:#17192D;stroke-width:3;" d="M655.902,1091.166c-1.796-0.981-2.676-3.683-5.263-3.541"/>
		<path style="fill:none;stroke:#17192D;stroke-width:3;" d="M662.844,1083.539c-0.83-1.433-1.503-2.78-3.113-3.065"/>
		<path style="fill:none;stroke:#17192D;stroke-width:3;" d="M668.69,1075.859c0.539-1.695-1.661-4.256-3.355-5.262"/>
		<path style="fill:none;stroke:#17192D;stroke-width:3;" d="M657.744,1056.036c-1.708-6.011-1.598-12.246-2.676-18.299"/>
		<path style="fill:none;stroke:#17192D;stroke-width:3;" d="M647.791,1031.18c-0.272,5.169-0.159,12.28,0.135,18.167
			c0.239,4.809,2.369,10.055,2.135,14.637"/>
		<path style="fill:none;stroke:#17192D;stroke-width:3;" d="M640.125,1038.769c-2.685,2.403,0.692,15.682,1.497,20.051
			c0.886,4.846,2.956,10.006,3.201,15.061"/>
		<path style="fill:none;stroke:#17192D;stroke-width:3;" d="M633.778,1035.167c-2.875,4.362-1.348,13.557-1.052,18.518
			c0.304,5.154,0.519,10.162,0.73,15.287c0.122,2.84-0.105,5.892,0.192,8.68c0.306,2.836,1.442,5.543,1.456,8.432"/>
		<path style="fill:none;stroke:#17192D;stroke-width:3;" d="M663.761,1102.797c2.744-0.12,3.437,2.841,5.652,3.816
			c2.644,1.168,5.48,1.912,8.058,3.341c1.256,0.697,2.41,1.633,3.65,2.281c1.238,0.648,2.704,0.496,4.1,0.616
			c2.5,0.214,4.852,1.266,4.876,4.06c0.021,2.24-0.964,4.362-2.367,6.056c-0.847,1.026-1.76,1.929-2.919,2.599
			c-0.793,0.453-2.315,0.643-2.707,1.467"/>
		<path style="fill:none;stroke:#17192D;stroke-width:3;" d="M673.275,1094.365c-0.129-0.14-0.129-0.247-0.001-0.319
			c2.163,1.086,3.232,3.469,5.409,4.449c2.522,1.135,5.599,1.107,8.194,1.675c2.719,0.593,4.748,2.207,4.701,5.246
			c-0.024,1.776-0.706,6.557-2.849,6.884"/>
		<path style="fill:none;stroke:#17192D;stroke-width:3;" d="M681.28,1084.099c1.495,0.645,2.365,0.26,3.696,1.482
			c0.978,0.893,1.901,2.002,2.967,2.791c2.123,1.575,5.135,0.404,7.364,1.846c4.184,2.707,0.904,9.389-1.832,11.9
			c-0.294,0.274-0.58,0.472-0.882,0.729"/>
		<path style="fill:none;stroke:#17192D;stroke-width:3;" d="M680.882,1066.514c1.035,0.38,1.897,1.239,2.834,1.869
			c1.238,0.831,2.65,1.388,3.842,2.288c1.769,1.348,2.521,4.395,4.396,5.207c2.197,0.958,4.712,0.965,6.593,2.715
			c2.253,2.097,2.719,4.646,2.531,7.568c-0.104,1.616-0.519,2.75-1.667,3.865"/>
	</g>
	<path style="fill:none;stroke:#17192D;stroke-width:3;" d="M2048,0"/>
	<path style="fill:none;stroke:#17192D;stroke-width:3;" d="M2048,1536"/>
	<path style="fill:none;stroke:#17192D;stroke-width:3;" d="M0,1536"/>
	<path style="fill:none;stroke:#17192D;stroke-width:3;" d="M0,0"/>
</g>
<g id="Layer_1">
</g>
</svg>
