<svg xmlns="http://www.w3.org/2000/svg" width="2048" height="1536" viewBox="0 0 2048 1536"><g fill="none" stroke="#17192D" stroke-width="3"><path d="M1283.352 406.32c-3.145 3.573-13.895 18.555-13.13 21.147M1220.794 374.253c.57 15.837 8.9 31.41 11.45 46.924 2.557 15.512 7.08 30.69 11.62 45.878 1.636 5.835 2.332 16.227 5.888 21.4 1.813 2.756 6.592 5.012 9.006 7.33 2.855 2.916 5.378 5.892 7.9 8.866 11.905 12.617 23.812 25.234 36.21 36.748 12.353 11.185 24.545 19.346 41.86 19.547M1270.885 427.36c.35 16.55 5.313 34.372 10.23 49.835 1.97 5.77 2.992 14.075 5.898 19.365 3.782 6.494 12.24 12.555 17.56 18.113 11.417 11.685 21.116 27.377 33.908 37.133M2048 0M2048 1536M0 1536M0 0"/></g></svg>