<svg xmlns="http://www.w3.org/2000/svg" width="2048" height="1536" viewBox="0 0 2048 1536"><g fill="none" stroke="#17192D" stroke-width="3"><path d="M857.67 775.81c-26.376-.478-58.827-24.027-81.813-37.063-22.988-13.044-58.26-34.916-72.79-52.977M974.012 709.98c-17.495-30.957-47.938-58.046-72.077-83.89-29.393-29.765-62.42-59.715-95.685-85.127M977.6 711.08c-1.097 3.585 9.325 13.235 12.714 17.965 8.462 12.277 13.1 27.997 14.153 42.62 1.485 23.744-5.2 47.066-21.487 62.6M942.406 809.38c-5.163-5.733-12.186-10.652-15.484-17.2M826.91 714.26c-19.56-6.72-33.003-21.646-49.582-31.05M981.053 834.98c-17.275 10.433-38.57 14.154-55.697 22.78-19.02 9.38-38.944 18.684-57.055 28.14-41.957 22.09-85.805 44.933-130.105 62.265-21.657 8.255-51.848 20.363-73.137 24.086M813.76 762.58c-12.425-6.112-67.844 61.08-77.402 69.685M964.13 724.94c-4.35-3.865-9.514-9.6-14.817-12.61M923.22 706.41c3.796 2.353 8.465 1.997 12.57 3.393M824.17 838.803c-14.99 11.79-35.444 25.087-53.545 27.73M946.323 701.512c-1.605-3.676-3.3-5.56-4.904-9.237M2048 0M2048 1536M0 1536M0 0"/></g></svg>