<?xml version="1.0" encoding="iso-8859-1"?>
<!-- Generator: Adobe Illustrator 15.1.0, SVG Export Plug-In . SVG Version: 6.00 Build 0)  -->
<!DOCTYPE svg PUBLIC "-//W3C//DTD SVG 1.1//EN" "http://www.w3.org/Graphics/SVG/1.1/DTD/svg11.dtd">
<svg version="1.1" xmlns="http://www.w3.org/2000/svg" xmlns:xlink="http://www.w3.org/1999/xlink" x="0px" y="0px" width="2048px"
	 height="1536px" viewBox="0 0 2048 1536" style="enable-background:new 0 0 2048 1536;" xml:space="preserve">
<g id="c2a_x5F_corpus">
	<g>
		<path style="fill:none;stroke:#17192D;stroke-width:3;" d="M1148.767,378.654c-9.746,12.237-18.392,20.89-30.716,30.254"/>
		<path style="fill:none;stroke:#17192D;stroke-width:3;" d="M1125.487,336.471c-12.617-2.482-24.225-6.731-36.984-6.489"/>
		<path style="fill:none;stroke:#17192D;stroke-width:3;" d="M1095.921,379.529c0.86,0.953,1.673,2.816,1.626,3.729"/>
		<path style="fill:none;stroke:#17192D;stroke-width:3;" d="M958.268,385.062c0.909,0.046-4.822,5.208-5.158,11.562"/>
		<path style="fill:none;stroke:#17192D;stroke-width:3;" d="M964.454,475.512c-17.541-12.755-32.406-24.456-46.122-40.65
			c-9.415-11.422-17.495-30.964-28.87-39.751"/>
		<path style="fill:none;stroke:#17192D;stroke-width:3;" d="M861.353,340.833c0.668,4.589-0.477,9.08-3.391,12.567"/>
		<path style="fill:none;stroke:#17192D;stroke-width:3;" d="M727.897,371.561c2.562-2.259,5.048-6.589,7.656-6.985"/>
		<path style="fill:none;stroke:#17192D;stroke-width:3;" d="M836.691,527.928c-16.909-9.226-29.81-26.084-32.239-44.911"/>
		<path style="fill:none;stroke:#17192D;stroke-width:3;" d="M717.55,478.961c0.716,3.678-0.429,8.171-2.339,9.89"/>
		<path style="fill:none;stroke:#17192D;stroke-width:3;" d="M656.801,404.765c-2.392-6.496-6.6-13.09-10.854-18.776"/>
		<path style="fill:none;stroke:#17192D;stroke-width:3;" d="M664.361,451.591c-2.005,3.537-5.826,6.979-8.696,9.559"/>
		<path style="fill:none;stroke:#17192D;stroke-width:3;" d="M708.86,505.816c-16.865,26.426-44.051,41.389-67.794,60.174"/>
		<path style="fill:none;stroke:#17192D;stroke-width:3;" d="M1077.169,285.688c-29.483-10.648-54.283-23.788-86.062-25.45
			c-14.524-0.764-29.05-1.522-42.958,3.211c-11.085,3.062-28.705,11.242-40.702,14.255"/>
		<path style="fill:none;stroke:#17192D;stroke-width:3;" d="M630.893,360.622c-36.127-5.537-63.7-17.907-100.683-7.097
			c-45.294,13.102-75.822,39.721-90.05,85.405c-14.181,44.775-3.595,92.338,15.27,125.522"/>
		<path style="fill:none;stroke:#17192D;stroke-width:3;" d="M1104.639,265.275c-55.674-32.048-141.865-35.656-197.91-8.552"/>
		<path style="fill:none;stroke:#17192D;stroke-width:3;" d="M1155.938,277.083c-22.566-17.808-43.148-28.353-73.151-26.581"/>
		<path style="fill:none;stroke:#17192D;stroke-width:3;" d="M581.004,565.574c-7.311,0.526-14.43-2.574-19.64-7.399"/>
		<path style="fill:none;stroke:#17192D;stroke-width:3;" d="M476.756,597.318c-7.011-6.189-15.411-14.562-18.488-21.747"/>
		<path style="fill:none;stroke:#17192D;stroke-width:3;" d="M675.713,339.303c-51.133-14.52-113.879-33.282-151.903,14.795"/>
		<path style="fill:none;stroke:#17192D;stroke-width:3;" d="M847.427,537.361c-4.632,0.844-10.214,1.275-15.276,1.011
			c-5.063-0.266-10.079-1.373-14.975-2.479c-2.748-0.626-5.335-1.968-7.958-2.591l-0.362-0.019"/>
		<path style="fill:none;stroke:#17192D;stroke-width:3;" d="M804.227,534.009c-9.804,4.923-22.268,2.944-31.674-2.023
			c-0.115-0.124-0.355-0.136-0.468-0.263"/>
		<path style="fill:none;stroke:#17192D;stroke-width:3;" d="M766.324,530.937c-3.758,0.286-7.337,1.669-11.096,1.955
			c-4.245,0.261-7.975-0.055-12.146-1.117c-2.859-0.756-5.459-1.858-8.3-2.975c-3.902-1.656-8.938-0.105-13.041-0.201
			c-5.55-0.17-11.08-0.698-16.631-0.749c-4.229-0.099-9.087,0.369-13.136-0.689"/>
		<path style="fill:none;stroke:#17192D;stroke-width:3;" d="M928.197,263.372c-10.563-7.424-25.592-7.569-36.435-1.479"/>
		<path style="fill:none;stroke:#17192D;stroke-width:3;" d="M847.255,262.996c-6.087-2.681-12.727-3.028-19.219-2.08
			c-3.46,0.463-6.512,1.376-9.396,3.159c-2.435,1.373-7.76,4.533-8.738,6.846"/>
		<path style="fill:none;stroke:#17192D;stroke-width:3;" d="M760.733,295.399c-6.278,0.958-10.053-0.742-15.452,3.914
			c-4.71,3.831-6.885,8.439-10.354,13.198"/>
		<path style="fill:none;stroke:#17192D;stroke-width:3;" d="M692.444,340.565c-13.078-4.55-22.486,2.902-33.505,8.337"/>
		<path style="fill:none;stroke:#17192D;stroke-width:3;" d="M651.25,348.069c0.507-1.479-8.431-3.021-10.573-3.132
			c-6.415-0.55-12.386,2.785-18.192,2.913"/>
		<path style="fill:none;stroke:#17192D;stroke-width:3;" d="M731.334,315.544c-6.472,0.523-15.161,2.427-20.897,5.347
			c-6.829,3.295-10.399,9.979-15.547,14.004"/>
		<path style="fill:none;stroke:#17192D;stroke-width:3;" d="M804.915,271.944c-0.871,0.174-4.062-0.424-5.56-0.505
			c-4.081,0-8.624,0.622-12.341,1.931c-8.306,2.785-16.927,11.567-21.184,19.074"/>
		<path style="fill:none;stroke:#17192D;stroke-width:3;" d="M888.623,260.444c-4.626-1.963-9.887-3.956-14.792-4.644
			c-4.269-0.438-8.125-0.642-12.261,0.432c-3.045,0.699-6.63,3.519-9.434,3.797"/>
		<path style="fill:none;stroke:#17192D;stroke-width:3;" d="M617.131,347.566c-6.423-0.337-9.896,0.336-15.227,3.712"/>
		<path style="fill:none;stroke:#17192D;stroke-width:3;" d="M1165.01,283.08c-7.685-4.911-17.455-2.847-24.735,0.852"/>
		<path style="fill:none;stroke:#17192D;stroke-width:3;" d="M1107.985,281.38c-10.562-7.423-20.696-6.667-32.323-1.905"/>
		<path style="fill:none;stroke:#17192D;stroke-width:3;" d="M1195.848,284.697c-3.436-4.046-10.898-5.082-15.599-5.541
			c-5.141-0.27-9.129,2.099-14.101,2.699"/>
		<path style="fill:none;stroke:#17192D;stroke-width:3;" d="M1137.56,282.504c-5.739-5.243-21.372-6.061-26.962-1.846"/>
		<path style="fill:none;stroke:#17192D;stroke-width:3;" d="M959.732,480.69c-16.449-5.938-31.293-6.569-47.614-9.824"/>
		<path style="fill:none;stroke:#17192D;stroke-width:3;" d="M803.029,507.993c-10.054-7.444-17.301-18.686-24.617-27.523
			c-6.081-7.81-12.502-15.679-17.062-24.022"/>
		<path style="fill:none;stroke:#17192D;stroke-width:3;" d="M785.866,502.51c-14.114-14.624-25.626-29.858-37.047-45.612"/>
		<path style="fill:none;stroke:#17192D;stroke-width:3;" d="M769.105,498.713c-2.298,0.935-27.172-37.123-29.437-42.372"/>
		<path style="fill:none;stroke:#17192D;stroke-width:3;" d="M750.716,494.087c-4.627-5.938-9.308-11.617-12.473-17.827
			c-3.115-6.469-8.849-14.223-10.531-20.706"/>
		<path style="fill:none;stroke:#17192D;stroke-width:3;" d="M802.323,349.41c-12.636,6.814-24.382,17.499-34.424,27.239
			c0.251,0.351,0.448,1.004,0.696,1.361"/>
		<path style="fill:none;stroke:#17192D;stroke-width:3;" d="M783.189,350.771c-4.437,4.193-12.853,9.873-18.402,15.116
			c-5.546,5.247-12.155,11.24-16.798,16.636"/>
		<path style="fill:none;stroke:#17192D;stroke-width:3;" d="M765.551,354.248c-0.997-1.412-33.729,28.599-36.964,33.002"/>
		<path style="fill:none;stroke:#17192D;stroke-width:3;" d="M986.683,526.938c-24.238,12.651-54.278,16.015-81.004,16.184
			c-18.419,0.159-35.402-1.405-52.905-5.915"/>
		<path style="fill:none;stroke:#17192D;stroke-width:3;" d="M764.796,515.083c-0.187,3.583,0.565,6.316,2.216,9.096"/>
		<path style="fill:none;stroke:#17192D;stroke-width:3;" d="M728.923,514.102c-0.187,3.579,0.568,6.314,2.217,9.096"/>
		<path style="fill:none;stroke:#17192D;stroke-width:3;" d="M801.285,521.482c1.74,0.992,3.392,3.773,3.298,5.562"/>
		<path style="fill:none;stroke:#17192D;stroke-width:3;" d="M855.456,456.069c-41.718-0.838-86.058-28.756-121.345-49.466"/>
		<path style="fill:none;stroke:#17192D;stroke-width:3;" d="M1198.847,404.868c-7.882,4.061-15.531,3.659-23.915,5.139
			c-9.058,2.077-14.42,6.911-22.336,11.605c-13.816,7.585-29.509,14.433-44.504,20.033"/>
	</g>
	<path style="fill:none;stroke:#17192D;stroke-width:3;" d="M2048,0"/>
	<path style="fill:none;stroke:#17192D;stroke-width:3;" d="M2048,1536"/>
	<path style="fill:none;stroke:#17192D;stroke-width:3;" d="M0,1536"/>
	<path style="fill:none;stroke:#17192D;stroke-width:3;" d="M0,0"/>
</g>
<g id="Layer_1">
</g>
</svg>
