<?xml version="1.0" encoding="iso-8859-1"?>
<!-- Generator: Adobe Illustrator 15.1.0, SVG Export Plug-In . SVG Version: 6.00 Build 0)  -->
<!DOCTYPE svg PUBLIC "-//W3C//DTD SVG 1.1//EN" "http://www.w3.org/Graphics/SVG/1.1/DTD/svg11.dtd">
<svg version="1.1" xmlns="http://www.w3.org/2000/svg" xmlns:xlink="http://www.w3.org/1999/xlink" x="0px" y="0px" width="2048px"
	 height="1536px" viewBox="0 0 2048 1536" style="enable-background:new 0 0 2048 1536;" xml:space="preserve">
<g id="c2a_x5F_unterarm_x5F_v">
	<g>
		<path style="fill:none;stroke:#17192D;stroke-width:3;" d="M1393.38,729.368c-11.755-1.527-22.594-3.11-32.488-5.449
			c-22.967-5.438-52.937-12.822-74.439-19.413c-40.288-13.036-81.524-25.208-123.094-31.028c-4.536-0.237-9.032-1.382-13.57-1.624"
			/>
		<path style="fill:none;stroke:#17192D;stroke-width:3;" d="M1385.848,786.187c-43.62-1.377-92.258,7.912-136.552,1.947
			c-37.938-5.631-78.605-11.402-115.353-22.429c-12.564-3.391-23.27-7.596-34.975-10.026c-15.291-3.534-24.125-6.728-33.494-19.055"
			/>
		<path style="fill:none;stroke:#17192D;stroke-width:3;" d="M1215.596,747.139c-27.315-1.428-56.043-1.59-82.135-9.247"/>
	</g>
	<path style="fill:none;stroke:#17192D;stroke-width:3;" d="M2048,0"/>
	<path style="fill:none;stroke:#17192D;stroke-width:3;" d="M2048,1536"/>
	<path style="fill:none;stroke:#17192D;stroke-width:3;" d="M0,1536"/>
	<path style="fill:none;stroke:#17192D;stroke-width:3;" d="M0,0"/>
</g>
<g id="Layer_1">
</g>
</svg>
