<svg xmlns="http://www.w3.org/2000/svg" width="2048" height="1536" viewBox="0 0 2048 1536"><g fill="none" stroke="#17192D" stroke-width="3"><path d="M1425.872 716.613c-.747.547-.547 2.688-.188 3.58M1422.385 716.924c-.732 1.055-1.317 3.014-2.88 2.946M1389.355 774.12c.09 1.282.22 2.48 1.06 3.114M1553.94 785.306c-9.728 3.214-14.383-2.78-23.112-4.19-4.092-.663-7.13-.47-10.788-2.06-4.19-1.82-5.626-3.328-10.24-4.012-4.58-.673-8.2-2.71-12.257-1.354-3.816 1.27-7.232 3.86-11.298 5.087-6.858 2.075-14.106 3.75-21.5 3.343-6.286-.352-11.297.03-16.87 2.193M1555.557 782.902c.566-1.525 1.317-2.965 2.264-4.345-2.24-2-5.49-3.086-8.13-5.02-2.158-1.582-3.98-5.092-6.328-6.065-3.068-1.273-7.182.07-10.267-1.133-3.008-1.18-5.364-4.032-8.272-5.303-3.057-1.334-6.438-1.014-9.715-1.984-3.313-.98-5.145-3.346-8.164-5.02-3.297-1.832-17.564-5.16-17.45 1.087M1484.517 736.49c-.957-8.585 13.82-8.51 19.253-7.43 3.695.73 6.578 2.043 10.814 2.054 3.726.012 7.008-1.917 10.5-1.435 3.645.494 7.19 3.734 10.655 4.912 3.713 1.27 8.178 1.59 11.645 3.3 3.215 1.592 4.496 4.736 7.184 6.855 2.68 2.118 6.906 2.646 9.276 5.207 4.555 4.923-2.414 6.71-6.94 7.207-5.57.612-9.246-.17-13.86-3.08-4.822-3.056-9.174-2.415-14.597-3.844-4.338-1.152-9.275-.897-13.21-3.153-1.75 2.302-5.696 2.87-8.595 2.975M1559.343 684.31c-4.103-.386-8.2.82-12.53.337-3.967-.448-7.802.708-11.6.36-3.71-.34-6.92 1.478-10.36 1.853-3.816.422-8.228 2.66-12.083 2.457-8.17-.43-11.435.595-18.94 2.484-6.52 1.634-11.68 2.133-17.744 4.9-2.22 1.01-4.42 1.724-6.55 2.897-2.555 1.413-7.71.382-10.487.77-1.692.236-3.163.297-4.814.86-3.426 1.172-6.916 2.278-10.354 3.2-3.064.824-6.186 1.93-8.9 3.484-2.923 1.68-5.844 3.977-9.01 4.984-.374.12-.507.213-.832.232M1474.757 711.366c3.124-2.073 6.51-4.166 10.242-4.78 4.49-.742 8.498 1.012 12.96.795 1.995-.094 3.944-.534 5.947-.925 1.543-.3 3.04-.618 4.604-.754 1.15-.1 1.672-.58 2.71-.998 1.877-.76 3.87-1.485 5.785-1.87 2.127-.43 4.757.1 6.945.21 4.178.22 8.334.788 12.392.19 2.003-.298 3.81-.375 5.704-.976 1.968-.627 3.97-.512 6.03-.183 2.017.32 3.9 1.16 5.94 1.553 1.786.348 3.674-.03 5.434.51 1.183.362 1.902.476 3.17.34 2.012-.222 4.033-.56 6.06-.517 5.165.11 5.43 3.808 3.48 8.063-2.59 5.666-12.206 5.597-17.257 5.723-6.918.17-9.745 1.04-17.125.65-5.98 1.593-16.973 3.408-22.674 2.39-4.605 4.126-18.383 1.74-20.145 4.332M1485.176 693.82c2.057-1.815 2.09-5.11 2.076-7.735-3.627 2.266-9.04 2.284-13.13 2.447-3.21.127-4.325.127-6.987 1.727-3.804 2.277-7.79 5.24-12.272 5.965-4.12.66-8.12-1.063-12.41-.69-13.51 1.172-29.925 11.312-38.222 21.828-1.46 1.854-2.997 4.132-4.403 5.75M1484.53 688.83M1457.526 768.336c-6.312-.383-11.918 4.08-18.553 3.497M1557.776 685.785c-.172-.14-1.718-2.03-.462-.588 3.613 4.13-2.62 10.238-6.876 12.545M1471.94 714.564c-1.095.735-1.632 3.61-2.31 3.846M1486.822 728.478c-1.097.116-1.993.833-3.12 1.11-1.316.317-2.532.33-3.89.257M1489.085 749.164c-1.613-.288-5.485 1.558-6.918-.365M1496.12 773.32c-.555-.63-1.065-1.718-1.104-2.536M1450.634 723.98c-2.017 1.053-4.612 1.22-6.79 1.85-.66.187-1.31.536-1.984.636-.713.106-1.354-.175-2.02.17M1453.842 733.688c-.888-.52-2.43.66-3.414.814-1.495.238-2.736.054-4.133.674-1.637.733-4.324 1.146-6.192.994-.024-.122.02-.235 0-.354M1455.893 741.85c-2.097.65-4.068 1.773-6.188 2.43-1.545.478-3.015.646-4.603.714-.76.032-2.805-.357-3.153.46M1456.857 751.812c-2.97.565-5.872.248-8.852.398-2.087.104-3.915.668-6.065.552M1407.945 770.184c-1.06.434-3.39-1.815-3.687-2.917M1447.54 785.394c-.643-.55-5.642 3.063-6.87 3.568-2.68 1.1-5.683 1.1-8.5 1.198-3.098.115-6.133.212-9.303.01-3.363-.212-6.506-1.653-9.604-2.857-.814-.313-1.714-.653-2.568-.964-.82-.303-2.087-1.215-2.895-1.32-.903-.116-2.4.808-3.29 1.056-1.06.294-2.18.618-3.266.85-2.074.436-4.37.58-6.608.244-1.853-.283-5.66-.862-6.91-2.32M2048 0M2048 1536M0 1536M0 0"/></g></svg>