<?xml version="1.0" encoding="iso-8859-1"?>
<!-- Generator: Adobe Illustrator 15.1.0, SVG Export Plug-In . SVG Version: 6.00 Build 0)  -->
<!DOCTYPE svg PUBLIC "-//W3C//DTD SVG 1.1//EN" "http://www.w3.org/Graphics/SVG/1.1/DTD/svg11.dtd">
<svg version="1.1" xmlns="http://www.w3.org/2000/svg" xmlns:xlink="http://www.w3.org/1999/xlink" x="0px" y="0px" width="2048px"
	 height="1536px" viewBox="0 0 2048 1536" style="enable-background:new 0 0 2048 1536;" xml:space="preserve">
<g id="c2a_x5F_kopf">
	<g>
		<path style="fill:none;stroke:#17192D;stroke-width:3;" d="M1207.67,250.873c-0.901,2.565-9.334,28.648-10.092,35.182
			c-3.76,21.7,1.108,40.133,12.367,58.44"/>
		<path style="fill:none;stroke:#17192D;stroke-width:3;" d="M1248.666,306.972c-4.665,27.336,10.15,50.554,22.74,71.388"/>
		<path style="fill:none;stroke:#17192D;stroke-width:3;" d="M1370.796,538.279c1.827-1.485,2.294-6.557,3.019-8.797
			c0.973-2.989,1.785-5.692,2.322-8.718c0.498-2.833,1.312-19.517-4.408-12.377c-3.635,4.524-3.951,13.699-4.404,18.978
			c-0.232,2.78-0.689,5.924-0.058,8.725c0.549,2.46,2.769,5.867,4.685,2.003"/>
		<path style="fill:none;stroke:#17192D;stroke-width:3;" d="M1354.34,539.402c0.707-5.661-2.336-13.5-3.565-19.224
			c-0.551-2.565-5.538-15.143-8.665-9.283c-2.639,4.944,5.861,29.16,11.381,28.579c-0.142-0.53,0.17-0.492,0.333-0.778"/>
		<path style="fill:none;stroke:#17192D;stroke-width:3;" d="M1368.59,548.948c-0.541,3.385-1.574,14.398-8.249,12.461
			c-5.307-1.539,0.787-9.45-0.145-13.424c1.483,2.684-2.942,16.595-6.87,16.554c-4.225-0.053-1.396-12.225,0.332-14.988
			c0.121,3.665-2.16,13.906-7.157,14.073c-1.376-5.515,0.269-11.549,1.569-16.729c-0.071,3.673-7.367,20.704-8.663,10.111
			c-0.761-6.205,4.184-11.243,2.59-17.943"/>
		<path style="fill:none;stroke:#17192D;stroke-width:3;" d="M1215.061,351.807c-0.607,0.447,1.365,4.185,2.077,6.441
			c0.218,1.319,0.923,7.645,1.862,5.116"/>
		<path style="fill:none;stroke:#17192D;stroke-width:3;" d="M1361.636,544.267c-16.309,22.339-35.651-39.552-39.374-49.785
			c-10.653-29.766-25.389-57.505-36.991-86.775c-2.405-6.383-3.647-16.011-7.924-21.406"/>
		<path style="fill:none;stroke:#17192D;stroke-width:3;" d="M1327.844,235.976c8.822,14.476,23.805,27.261,27.398,44.969
			c0.666-0.109,0.223-0.711,0.171-1.045"/>
		<path style="fill:none;stroke:#17192D;stroke-width:3;" d="M1358.758,285.794"/>
		<path style="fill:none;stroke:#17192D;stroke-width:3;" d="M1361.165,290.14c8.606,11.122,14.086,23.779,14.718,37.912
			c0.203,5.392-6.137,41.004-8.281,40.342l0,0"/>
		<path style="fill:none;stroke:#17192D;stroke-width:3;" d="M1363.84,545.263c4.817,8.692,10.952-3.502,12.103-4.704"/>
		<path style="fill:none;stroke:#17192D;stroke-width:3;" d="M1368.21,367.951c2.604,15.841,3.564,31.956,6.226,48.119
			c2.559,15.516,4.727,30.755,7.275,46.258c2.333,14.192,3.29,28.27,4.589,42.29c1.131,13.035-5.877,24.014-9.254,36.432"/>
		<path style="fill:none;stroke:#17192D;stroke-width:3;" d="M1365.221,340.265c0.277-1.958,0.405-3.942,0.272-6.007
			c-0.379-5.477-0.617-10.877-1.284-16.209c-0.686-5.426-1.738-11.864-4.529-16.522c-1.537-2.837-3.406-6.372-5.954-8.3
			c-0.843-0.603-5.579-4.081-6.057-2.411"/>
		<path style="fill:none;stroke:#17192D;stroke-width:3;" d="M1347.335,290.661c-6.349,8.076-9.726,18.653-10.215,28.649
			c-0.323,8.084-0.134,16.724,1.618,24.759"/>
		<path style="fill:none;stroke:#17192D;stroke-width:3;" d="M1299.669,348.065c-1.073-8.467-3.914-16.708-7.26-24.479
			c-2.431-5.685-5.202-11.517-9.29-16.282c-2.122-2.526-4.445-4.384-7.367-5.93c-2.801-1.46-5.947-4.351-9.347-4.32
			c-1.063,0.067-1.909,0.733-3.01,0.493"/>
		<path style="fill:none;stroke:#17192D;stroke-width:3;" d="M1264.515,297.894c0,0-2.564,2.561-3.087,3.28
			c-1.736,2.418-3.571,5.493-3.82,8.52c-0.403,4.644,0.499,9.512,0.94,14.133c1.072,9.736,3.986,19.708,8.118,28.619
			c0.669,1.456,1.342,2.948,2.039,4.443"/>
		<path style="fill:none;stroke:#17192D;stroke-width:3;" d="M1303.395,363.247c-0.21,3.231-3.625,7.101-6.014,8.771
			c-3.142,2.333-6.475,3.412-9.588,3.924"/>
		<path style="fill:none;stroke:#17192D;stroke-width:3;" d="M1363.064,361.057c-1.875,1.585-6.247,0.919-8.459,0.43
			c-3.625-0.683-8.435-2.025-10.659-5.176"/>
		<path style="fill:none;stroke:#17192D;stroke-width:3;" d="M1324.37,233.361c-0.881-8.753,0.979-18.702,2.103-27.351
			c3.617-17.894,5.232-35.893,6.842-53.892c2.879-29.324,5.965-62.652-0.545-91.794c-1.726-5.45-5.312-13.673-8.41-18.524"/>
		<path style="fill:none;stroke:#17192D;stroke-width:3;" d="M1258.116,36.323c-30.466,27.426-29.987,77.91-32.489,117.071
			c-0.932,17.813-1.889,36.069-4.135,53.368c-0.816,7.103-0.816,15.585-2.947,22.174c-2.154,7.028-6.98,13.92-10.871,19.969
			c0,0,0.025-0.442-0.375-1.36"/>
		<path style="fill:none;stroke:#17192D;stroke-width:3;" d="M1324.439,41.111c-25.649,16.597-28.271,48.021-33.682,75.061
			c-0.687,3.422-1.427,6.762-1.953,10.206c-1.141,7.415-2.21,14.854-3.262,22.273c-1.95,13.729-2.979,27.688-4.463,41.462
			c-0.646,5.965-1.049,12.014-1.686,17.95c-0.43,4.003-1.628,8.729-1.599,12.382"/>
		<path style="fill:none;stroke:#17192D;stroke-width:3;" d="M1265.454,225.502c1.024-8.267,3.174-16.301,3.624-24.924
			c0.233-4.465,0.399-8.734,1.076-13.091c3.761-24.143,4.268-49.092,5.549-73.519c0.801-15.276,0.488-28.521-3.088-43.331
			c-3.333-13.057-9.396-25.213-13.768-37.629"/>
		<path style="fill:none;stroke:#17192D;stroke-width:3;" d="M1313.858,227.018c5.793-24.496,8.033-48.173,9.356-73.401
			c0.77-14.734,3.309-29.63,4.577-44.344c1.274-14.712-0.292-27.82-2.558-41.964c-0.816-3.548-1.106-7.571-2.935-10.924
			c-3.731,4.313-5.574,10.729-7.846,15.87c-2.288,5.392-5.044,10.257-6.097,15.959c-2.48,13.899-3.717,27.861-5.199,41.809
			c-2.83,25.402-6.912,50.731-9.736,75.886c-0.852,6.716-1.232,13.962-2.293,19.916"/>
		<path style="fill:none;stroke:#17192D;stroke-width:3;" d="M1258.193,223.656c4.641-24.166,5.766-47.375,5.907-72.05
			c0.08-14.417,1.91-29.067,2.49-43.483c0.581-14.409-1.597-27.13-4.526-40.828c-0.982-3.429-1.459-7.338-3.444-10.526
			c-3.524,4.379-5.065,10.72-7.092,15.842c-2.031,5.363-4.558,10.237-5.34,15.855c-1.827,13.673-2.404,27.353-3.229,41.031
			c-1.639,24.917-4.525,49.819-6.17,74.492c-0.532,6.591-0.576,13.679-1.354,19.537"/>
		<path style="fill:none;stroke:#17192D;stroke-width:3;" d="M1278.074,221.123c-2.287,0.851-6.585-0.547-9.293-0.833"/>
		<path style="fill:none;stroke:#17192D;stroke-width:3;" d="M1237.889,230.987c-0.955-7.774-2.387-15.117-0.627-22.749"/>
		<path style="fill:none;stroke:#17192D;stroke-width:3;" d="M1308.587,225.603c-5.769-2.572-9.752-4.6-15.642-4.909"/>
		<path style="fill:none;stroke:#17192D;stroke-width:3;" d="M1294.731,212.613c2.315-0.721,5.207-0.186,7.724-0.054"/>
		<path style="fill:none;stroke:#17192D;stroke-width:3;" d="M1303.219,206.695c-3.171-0.166-5.89-0.309-8.654,0.456"/>
		<path style="fill:none;stroke:#17192D;stroke-width:3;" d="M1303.53,218.071c-3.124-1.073-6.296-1.239-9.466-1.403"/>
		<path style="fill:none;stroke:#17192D;stroke-width:3;" d="M1236.955,205.493c1.005-2.134,6.141-1.368,8.2-0.478"/>
		<path style="fill:none;stroke:#17192D;stroke-width:3;" d="M1250.739,219.844c-4.483-1.141-8.966-2.282-13.496-2.521"/>
		<path style="fill:none;stroke:#17192D;stroke-width:3;" d="M1238.147,208.739c1.965-0.609,4.217-0.229,6.365-0.12"/>
		<path style="fill:none;stroke:#17192D;stroke-width:3;" d="M1249.188,214.768c-3.624-0.191-8.133-0.879-10.899-0.116"/>
		<path style="fill:none;stroke:#17192D;stroke-width:3;" d="M1364.049,339.912c-7.445,1.751-18.39-0.877-24.521,3.502"/>
		<path style="fill:none;stroke:#17192D;stroke-width:3;" d="M1298.369,348.23c-11.386,0-21.018,0.877-29.776,8.757"/>
		<path style="fill:none;stroke:#17192D;stroke-width:3;" d="M1332.96,338.597c0,0,0.876,4.381,1.312,5.693"/>
		<path style="fill:none;stroke:#17192D;stroke-width:3;" d="M1306.25,339.912c0,2.626,0,5.691,0,8.318"/>
	</g>
	<path style="fill:none;stroke:#17192D;stroke-width:3;" d="M2048,0"/>
	<path style="fill:none;stroke:#17192D;stroke-width:3;" d="M2048,1536"/>
	<path style="fill:none;stroke:#17192D;stroke-width:3;" d="M0,1536"/>
	<path style="fill:none;stroke:#17192D;stroke-width:3;" d="M0,0"/>
</g>
<g id="Layer_1">
</g>
</svg>
