<svg xmlns="http://www.w3.org/2000/svg" width="2048" height="1536" viewBox="0 0 2048 1536"><g fill="none" stroke="#17192D" stroke-width="3"><path d="M718.848 913.996c-20.146 19.563-50.373 28.147-78.362 27.952-4.54-.238-11.8-.618-13.665.193M585.945 853.513c-3.393-4.726-6.79-9.455-9.27-14.14M563.053 821.36c-26.473 1.344-66.272 13.824-90.733 28.928-18.778 10.852-33.346 28.297-52.983 38.193-16.864 9.13-36.172 12.67-53.847 19.935-8.363 3.205-16.77 7.316-24.225 10.57M625.006 942.047c-16.34-.857-34.975 7.272-50.6 10.093-18.395 3.588-36.075 10.855-55.376 14.396-36.745 6.268-73.775 17.984-110.47 23.344-17.44 2.727-42.095 4.166-55.14 9.854M497.43 904.304c-19.89 2.547-41.29-.368-60.808-4.985M2048 0M2048 1536M0 1536M0 0"/></g></svg>