<svg xmlns="http://www.w3.org/2000/svg" width="2048" height="1536" viewBox="0 0 2048 1536"><g fill="none" stroke="#17192D" stroke-width="3"><path d="M1207.67 250.873c-.9 2.565-9.334 28.648-10.092 35.182-3.76 21.7 1.108 40.133 12.367 58.44M1248.666 306.972c-4.665 27.336 10.15 50.554 22.74 71.388M1370.796 538.28c1.827-1.486 2.294-6.558 3.02-8.798.972-2.99 1.784-5.692 2.32-8.718.5-2.833 1.313-19.517-4.407-12.377-3.636 4.524-3.952 13.7-4.405 18.978-.232 2.78-.69 5.924-.058 8.725.55 2.46 2.77 5.867 4.685 2.003M1354.34 539.402c.707-5.66-2.336-13.5-3.565-19.224-.55-2.565-5.538-15.143-8.665-9.283-2.64 4.944 5.86 29.16 11.38 28.58-.14-.53.17-.493.334-.78M1368.59 548.948c-.54 3.385-1.574 14.398-8.25 12.46-5.306-1.538.788-9.45-.144-13.423 1.483 2.684-2.942 16.595-6.87 16.554-4.225-.054-1.396-12.226.332-14.99.12 3.666-2.16 13.907-7.157 14.074-1.375-5.515.27-11.55 1.57-16.73-.07 3.674-7.367 20.705-8.663 10.112-.76-6.205 4.184-11.243 2.59-17.943M1215.06 351.807c-.606.447 1.366 4.185 2.078 6.44.218 1.32.923 7.646 1.862 5.117M1361.636 544.267c-16.31 22.34-35.65-39.552-39.374-49.785-10.653-29.766-25.39-57.505-36.99-86.775-2.406-6.383-3.648-16.01-7.925-21.406M1327.844 235.976c8.822 14.476 23.805 27.26 27.398 44.97.666-.11.223-.712.17-1.046M1358.758 285.794M1361.165 290.14c8.606 11.122 14.086 23.78 14.718 37.912.203 5.392-6.137 41.004-8.28 40.342M1363.84 545.263c4.817 8.692 10.952-3.502 12.103-4.704M1368.21 367.95c2.604 15.842 3.564 31.957 6.226 48.12 2.56 15.516 4.727 30.755 7.275 46.258 2.334 14.192 3.29 28.27 4.59 42.29 1.13 13.035-5.877 24.014-9.254 36.432M1365.22 340.265c.278-1.958.406-3.942.273-6.007-.38-5.477-.617-10.877-1.284-16.21-.687-5.425-1.74-11.863-4.53-16.52-1.537-2.838-3.406-6.373-5.954-8.3-.843-.604-5.58-4.082-6.057-2.412M1347.335 290.66c-6.35 8.077-9.726 18.654-10.215 28.65-.323 8.084-.134 16.724 1.618 24.76M1299.67 348.065c-1.074-8.467-3.915-16.708-7.26-24.48-2.432-5.684-5.203-11.516-9.29-16.28-2.123-2.527-4.446-4.385-7.368-5.93-2.8-1.46-5.947-4.352-9.347-4.32-1.063.066-1.91.732-3.01.492M1264.515 297.894s-2.564 2.56-3.087 3.28c-1.736 2.418-3.57 5.493-3.82 8.52-.403 4.644.5 9.512.94 14.133 1.072 9.736 3.986 19.708 8.118 28.62.67 1.455 1.342 2.947 2.04 4.442M1303.395 363.247c-.21 3.23-3.625 7.1-6.014 8.77-3.14 2.334-6.474 3.413-9.587 3.925M1363.064 361.057c-1.875 1.585-6.247.92-8.46.43-3.624-.683-8.434-2.025-10.658-5.176M1324.37 233.36c-.88-8.752.98-18.7 2.103-27.35 3.617-17.894 5.232-35.893 6.842-53.892 2.88-29.324 5.965-62.652-.545-91.794-1.726-5.45-5.312-13.673-8.41-18.524M1258.116 36.323c-30.466 27.426-29.987 77.91-32.49 117.07-.93 17.814-1.888 36.07-4.134 53.37-.816 7.102-.816 15.584-2.947 22.173-2.154 7.028-6.98 13.92-10.87 19.97 0 0 .024-.443-.376-1.36M1324.44 41.11c-25.65 16.598-28.272 48.022-33.683 75.062-.687 3.422-1.427 6.762-1.953 10.206-1.14 7.415-2.21 14.854-3.262 22.273-1.95 13.73-2.98 27.69-4.463 41.463-.647 5.965-1.05 12.014-1.687 17.95-.43 4.003-1.628 8.73-1.6 12.382M1265.454 225.502c1.024-8.267 3.174-16.3 3.624-24.924.233-4.465.4-8.734 1.076-13.09 3.76-24.144 4.268-49.093 5.55-73.52.8-15.276.487-28.52-3.09-43.33-3.332-13.058-9.395-25.214-13.767-37.63M1313.858 227.018c5.793-24.496 8.033-48.173 9.356-73.4.77-14.735 3.31-29.63 4.577-44.345 1.275-14.712-.29-27.82-2.557-41.964-.816-3.55-1.106-7.572-2.935-10.925-3.73 4.313-5.574 10.73-7.846 15.87-2.288 5.392-5.044 10.257-6.097 15.96-2.48 13.898-3.717 27.86-5.2 41.808-2.83 25.402-6.91 50.73-9.735 75.886-.852 6.715-1.232 13.96-2.293 19.915M1258.193 223.656c4.64-24.166 5.766-47.375 5.907-72.05.08-14.417 1.91-29.067 2.49-43.483.58-14.41-1.597-27.13-4.526-40.828-.982-3.43-1.46-7.338-3.444-10.526-3.524 4.378-5.065 10.72-7.092 15.84-2.03 5.364-4.558 10.238-5.34 15.856-1.827 13.673-2.404 27.353-3.23 41.03-1.638 24.918-4.524 49.82-6.17 74.493-.53 6.59-.575 13.678-1.353 19.536M1278.074 221.123c-2.287.85-6.585-.547-9.293-.833M1237.89 230.987c-.956-7.774-2.388-15.117-.628-22.75M1308.587 225.603c-5.77-2.572-9.752-4.6-15.642-4.91M1294.73 212.613c2.316-.72 5.208-.186 7.725-.054M1303.22 206.695c-3.172-.166-5.89-.31-8.655.456M1303.53 218.07c-3.124-1.072-6.296-1.238-9.466-1.402M1236.955 205.493c1.005-2.134 6.14-1.368 8.2-.478M1250.74 219.844c-4.484-1.14-8.967-2.282-13.497-2.52M1238.147 208.74c1.965-.61 4.217-.23 6.365-.12M1249.188 214.768c-3.624-.19-8.133-.88-10.9-.116M1364.05 339.912c-7.446 1.75-18.39-.877-24.522 3.502M1298.37 348.23c-11.387 0-21.02.877-29.777 8.757M1332.96 338.597s.876 4.38 1.312 5.693M1306.25 339.912v8.318M2048 0M2048 1536M0 1536M0 0"/></g></svg>