<svg xmlns="http://www.w3.org/2000/svg" width="2048" height="1536" viewBox="0 0 2048 1536"><g fill="none" stroke="#17192D" stroke-width="3"><path d="M1148.767 378.654c-9.746 12.237-18.392 20.89-30.716 30.254M1125.487 336.47c-12.617-2.48-24.225-6.73-36.984-6.488M1095.92 379.53c.86.952 1.674 2.815 1.627 3.728M958.268 385.062c.91.046-4.822 5.208-5.158 11.562M964.454 475.512c-17.54-12.755-32.406-24.456-46.122-40.65-9.415-11.422-17.495-30.964-28.87-39.75M861.353 340.833c.668 4.59-.477 9.08-3.39 12.567M727.897 371.56c2.562-2.258 5.048-6.588 7.656-6.984M836.69 527.928c-16.908-9.226-29.81-26.084-32.238-44.91M717.55 478.96c.716 3.68-.43 8.172-2.34 9.89M656.8 404.765c-2.39-6.496-6.6-13.09-10.853-18.776M664.36 451.59c-2.004 3.538-5.825 6.98-8.695 9.56M708.86 505.816c-16.865 26.426-44.05 41.39-67.794 60.174M1077.17 285.688c-29.484-10.648-54.284-23.788-86.063-25.45-14.524-.764-29.05-1.522-42.958 3.21-11.086 3.063-28.706 11.243-40.703 14.256M630.893 360.622c-36.127-5.537-63.7-17.907-100.683-7.097-45.294 13.102-75.822 39.72-90.05 85.405-14.18 44.775-3.595 92.338 15.27 125.522M1104.64 265.275c-55.675-32.048-141.866-35.656-197.91-8.552M1155.938 277.083c-22.566-17.808-43.148-28.353-73.15-26.58M581.004 565.574c-7.31.526-14.43-2.574-19.64-7.4M476.756 597.318c-7.01-6.19-15.41-14.562-18.488-21.747M675.713 339.303c-51.133-14.52-113.88-33.282-151.903 14.795M847.427 537.36c-4.632.845-10.214 1.276-15.276 1.012-5.062-.266-10.078-1.373-14.974-2.48-2.748-.625-5.335-1.967-7.958-2.59l-.362-.02M804.227 534.01c-9.804 4.922-22.268 2.943-31.674-2.024-.115-.124-.355-.136-.468-.263M766.324 530.937c-3.758.286-7.337 1.67-11.096 1.955-4.245.26-7.975-.055-12.146-1.117-2.86-.756-5.46-1.858-8.3-2.975-3.902-1.656-8.938-.105-13.04-.2-5.55-.17-11.08-.7-16.632-.75-4.23-.1-9.087.37-13.136-.69M928.197 263.372c-10.563-7.424-25.592-7.57-36.435-1.48M847.255 262.996c-6.087-2.68-12.727-3.028-19.22-2.08-3.46.463-6.51 1.376-9.395 3.16-2.435 1.372-7.76 4.532-8.738 6.845M760.733 295.4c-6.278.957-10.053-.743-15.452 3.913-4.71 3.83-6.884 8.44-10.353 13.198M692.444 340.565c-13.078-4.55-22.486 2.902-33.505 8.337M651.25 348.07c.507-1.48-8.43-3.022-10.573-3.133-6.415-.55-12.386 2.785-18.192 2.913M731.334 315.544c-6.472.523-15.16 2.427-20.897 5.347-6.83 3.296-10.4 9.98-15.547 14.005M804.915 271.944c-.87.174-4.062-.424-5.56-.505-4.08 0-8.624.62-12.34 1.93-8.307 2.785-16.928 11.567-21.185 19.074M888.623 260.444c-4.626-1.963-9.887-3.956-14.792-4.644-4.268-.438-8.124-.642-12.26.432-3.045.7-6.63 3.52-9.434 3.797M617.13 347.566c-6.422-.337-9.895.336-15.226 3.712M1165.01 283.08c-7.685-4.91-17.455-2.847-24.735.852M1107.985 281.38c-10.562-7.423-20.696-6.667-32.323-1.905M1195.848 284.697c-3.436-4.046-10.898-5.082-15.6-5.54-5.14-.27-9.128 2.098-14.1 2.698M1137.56 282.504c-5.74-5.243-21.372-6.06-26.962-1.846M959.732 480.69c-16.45-5.938-31.293-6.57-47.614-9.824M803.03 507.993c-10.055-7.444-17.302-18.686-24.618-27.523-6.08-7.81-12.502-15.68-17.062-24.022M785.866 502.51c-14.114-14.624-25.626-29.858-37.047-45.612M769.105 498.713c-2.298.935-27.172-37.123-29.437-42.372M750.716 494.087c-4.627-5.938-9.308-11.617-12.473-17.827-3.115-6.47-8.85-14.223-10.53-20.706M802.323 349.41c-12.636 6.814-24.382 17.5-34.424 27.24.25.35.447 1.003.695 1.36M783.19 350.77c-4.438 4.194-12.854 9.874-18.403 15.117-5.546 5.247-12.155 11.24-16.798 16.636M765.55 354.248c-.996-1.412-33.728 28.6-36.963 33.002M986.683 526.938c-24.238 12.65-54.278 16.015-81.004 16.184-18.42.16-35.403-1.405-52.906-5.915M764.796 515.083c-.187 3.583.565 6.316 2.216 9.096M728.923 514.102c-.187 3.58.568 6.314 2.217 9.096M801.285 521.482c1.74.992 3.392 3.773 3.298 5.562M855.456 456.07c-41.718-.84-86.058-28.757-121.345-49.467M1198.847 404.868c-7.882 4.06-15.53 3.66-23.915 5.14-9.058 2.076-14.42 6.91-22.336 11.604-13.816 7.585-29.51 14.433-44.504 20.033M2048 0M2048 1536M0 1536M0 0"/></g></svg>