<?xml version="1.0" encoding="iso-8859-1"?>
<!-- Generator: Adobe Illustrator 15.1.0, SVG Export Plug-In . SVG Version: 6.00 Build 0)  -->
<!DOCTYPE svg PUBLIC "-//W3C//DTD SVG 1.1//EN" "http://www.w3.org/Graphics/SVG/1.1/DTD/svg11.dtd">
<svg version="1.1" xmlns="http://www.w3.org/2000/svg" xmlns:xlink="http://www.w3.org/1999/xlink" x="0px" y="0px" width="2048px"
	 height="1536px" viewBox="0 0 2048 1536" style="enable-background:new 0 0 2048 1536;" xml:space="preserve">
<g id="c2a_x5F_bein_x5F_h">
	<g>
		<path style="fill:none;stroke:#17192D;stroke-width:3;" d="M857.671,775.809c-26.377-0.477-58.828-24.026-81.814-37.062
			c-22.988-13.044-58.259-34.916-72.79-52.977"/>
		<path style="fill:none;stroke:#17192D;stroke-width:3;" d="M974.012,709.98c-17.495-30.957-47.938-58.046-72.077-83.89
			c-29.393-29.765-62.419-59.715-95.685-85.127"/>
		<path style="fill:none;stroke:#17192D;stroke-width:3;" d="M977.601,711.08c-1.098,3.585,9.324,13.235,12.713,17.965
			c8.462,12.277,13.1,27.997,14.153,42.62c1.485,23.744-5.199,47.066-21.487,62.6"/>
		<path style="fill:none;stroke:#17192D;stroke-width:3;" d="M942.406,809.38c-5.163-5.733-12.186-10.652-15.484-17.201"/>
		<path style="fill:none;stroke:#17192D;stroke-width:3;" d="M826.911,714.259c-19.562-6.718-33.004-21.645-49.583-31.049"/>
		<path style="fill:none;stroke:#17192D;stroke-width:3;" d="M981.053,834.979c-17.275,10.434-38.571,14.155-55.697,22.781
			c-19.019,9.38-38.944,18.684-57.055,28.141c-41.958,22.088-85.806,44.932-130.106,62.264
			c-21.657,8.255-51.848,20.363-73.137,24.086"/>
		<path style="fill:none;stroke:#17192D;stroke-width:3;" d="M813.759,762.579c-12.424-6.111-67.843,61.082-77.401,69.686"/>
		<path style="fill:none;stroke:#17192D;stroke-width:3;" d="M964.13,724.941c-4.351-3.866-9.514-9.602-14.817-12.612"/>
		<path style="fill:none;stroke:#17192D;stroke-width:3;" d="M923.221,706.411c3.795,2.352,8.464,1.996,12.568,3.392"/>
		<path style="fill:none;stroke:#17192D;stroke-width:3;" d="M824.17,838.803c-14.99,11.79-35.444,25.087-53.545,27.731"/>
		<path style="fill:none;stroke:#17192D;stroke-width:3;" d="M946.323,701.512c-1.605-3.676-3.301-5.56-4.904-9.237"/>
	</g>
	<path style="fill:none;stroke:#17192D;stroke-width:3;" d="M2048,0"/>
	<path style="fill:none;stroke:#17192D;stroke-width:3;" d="M2048,1536"/>
	<path style="fill:none;stroke:#17192D;stroke-width:3;" d="M0,1536"/>
	<path style="fill:none;stroke:#17192D;stroke-width:3;" d="M0,0"/>
</g>
<g id="Layer_1">
</g>
</svg>
