<?xml version="1.0" encoding="iso-8859-1"?>
<!-- Generator: Adobe Illustrator 15.1.0, SVG Export Plug-In . SVG Version: 6.00 Build 0)  -->
<!DOCTYPE svg PUBLIC "-//W3C//DTD SVG 1.1//EN" "http://www.w3.org/Graphics/SVG/1.1/DTD/svg11.dtd">
<svg version="1.1" xmlns="http://www.w3.org/2000/svg" xmlns:xlink="http://www.w3.org/1999/xlink" x="0px" y="0px" width="2048px"
	 height="1536px" viewBox="0 0 2048 1536" style="enable-background:new 0 0 2048 1536;" xml:space="preserve">
<g id="c2a_x5F_schenkel_x5F_v">
	<g>
		<path style="fill:none;stroke:#17192D;stroke-width:3;" d="M727.942,801.78c-7.552-12.232-8.514-28.666-12.337-42.526
			c-7.171-19.491-11.572-39.751-14.156-59.915c-7.704-44.1-15.217-91.832-34.912-132.925c-1.625-3.728-4.111-8.408-5.738-12.136"/>
		<path style="fill:none;stroke:#17192D;stroke-width:3;" d="M568.546,820.737c-3.589-1.1-19.41-29.234-23.613-35.828
			c-13.529-19.83-23.376-40.373-33.178-61.825c-15.345-37.221-28.064-72.481-34.186-111.949"/>
		<path style="fill:none;stroke:#17192D;stroke-width:3;" d="M726.941,803.55c1.439,24.656,20.177,49.312,11.344,78.888
			c-3.954,12.673-10.761,23.134-19.437,31.559"/>
		<path style="fill:none;stroke:#17192D;stroke-width:3;" d="M685.414,779.522c0.143-2.725,0.286-5.447,0.427-8.169"/>
		<path style="fill:none;stroke:#17192D;stroke-width:3;" d="M672.466,783.396c-2.536-3.774-5.976-7.596-8.508-11.369"/>
		<path style="fill:none;stroke:#17192D;stroke-width:3;" d="M689.625,803.415c-1.579-4.634-2.298-8.312-2.966-12.9"/>
		<path style="fill:none;stroke:#17192D;stroke-width:3;" d="M589.232,797.753c-2.929-12.726-24.148-53.353-37.729-68.431"/>
	</g>
	<path style="fill:none;stroke:#17192D;stroke-width:3;" d="M2048,0"/>
	<path style="fill:none;stroke:#17192D;stroke-width:3;" d="M2048,1536"/>
	<path style="fill:none;stroke:#17192D;stroke-width:3;" d="M0,1536"/>
	<path style="fill:none;stroke:#17192D;stroke-width:3;" d="M0,0"/>
</g>
<g id="Layer_1">
</g>
</svg>
