<?xml version="1.0" encoding="iso-8859-1"?>
<!-- Generator: Adobe Illustrator 15.1.0, SVG Export Plug-In . SVG Version: 6.00 Build 0)  -->
<!DOCTYPE svg PUBLIC "-//W3C//DTD SVG 1.1//EN" "http://www.w3.org/Graphics/SVG/1.1/DTD/svg11.dtd">
<svg version="1.1" xmlns="http://www.w3.org/2000/svg" xmlns:xlink="http://www.w3.org/1999/xlink" x="0px" y="0px" width="2048px"
	 height="1536px" viewBox="0 0 2048 1536" style="enable-background:new 0 0 2048 1536;" xml:space="preserve">
<g id="c2a_x5F_oberarm_x5F_v">
	<g>
		<path style="fill:none;stroke:#17192D;stroke-width:3;" d="M1029.707,427.036c1.292,10.085,3.443,21.124,3.83,31.157"/>
		<path style="fill:none;stroke:#17192D;stroke-width:3;" d="M1017.57,432.775c0.434,9.127,4.545,17.535,7.798,24.989"/>
		<path style="fill:none;stroke:#17192D;stroke-width:3;" d="M953.69,420.323c4.261,40.279,10.577,76.119,41.787,105.974"/>
		<path style="fill:none;stroke:#17192D;stroke-width:3;" d="M1072.397,515.764c-4.446-2.054-8.746-6.831-12.235-9.744"/>
		<path style="fill:none;stroke:#17192D;stroke-width:3;" d="M994.137,517.125c-5.969,26.998,14.347,56.284,29.641,77.113"/>
		<path style="fill:none;stroke:#17192D;stroke-width:3;" d="M1149.74,672.762c-4.788-47.591-8.864-108.799-38.733-146.781"/>
		<path style="fill:none;stroke:#17192D;stroke-width:3;" d="M1110.889,649.785c-10.66-22.405-21.514-41.186-23.906-64.977"/>
		<path style="fill:none;stroke:#17192D;stroke-width:3;" d="M1066.574,733.041c-7.842-24.082-29.395-47.062-38.863-74.867
			c-9.465-27.811-17.07-56.43-20.089-85.718"/>
		<path style="fill:none;stroke:#17192D;stroke-width:3;" d="M1111.961,522.724c5.791-20.575,4.443-46.243,0.797-66.642
			c-2.547-15.622-7.962-40.828-19.489-52.212"/>
	</g>
	<path style="fill:none;stroke:#17192D;stroke-width:3;" d="M2048,0"/>
	<path style="fill:none;stroke:#17192D;stroke-width:3;" d="M2048,1536"/>
	<path style="fill:none;stroke:#17192D;stroke-width:3;" d="M0,1536"/>
	<path style="fill:none;stroke:#17192D;stroke-width:3;" d="M0,0"/>
</g>
<g id="Layer_1">
</g>
</svg>
