<?xml version="1.0" encoding="iso-8859-1"?>
<!-- Generator: Adobe Illustrator 15.1.0, SVG Export Plug-In . SVG Version: 6.00 Build 0)  -->
<!DOCTYPE svg PUBLIC "-//W3C//DTD SVG 1.1//EN" "http://www.w3.org/Graphics/SVG/1.1/DTD/svg11.dtd">
<svg version="1.1" xmlns="http://www.w3.org/2000/svg" xmlns:xlink="http://www.w3.org/1999/xlink" x="0px" y="0px" width="2048px"
	 height="1536px" viewBox="0 0 2048 1536" style="enable-background:new 0 0 2048 1536;" xml:space="preserve">
<g id="c2a_x5F_kiefer">
	<g>
		<path style="fill:none;stroke:#17192D;stroke-width:3;" d="M1283.352,406.321c-3.145,3.572-13.895,18.554-13.129,21.146"/>
		<path style="fill:none;stroke:#17192D;stroke-width:3;" d="M1220.794,374.253c0.571,15.837,8.901,31.411,11.451,46.924
			c2.556,15.512,7.078,30.691,11.618,45.878c1.637,5.835,2.333,16.227,5.889,21.401c1.813,2.755,6.592,5.011,9.006,7.33
			c2.855,2.915,5.378,5.891,7.9,8.865c11.905,12.616,23.812,25.233,36.211,36.747c12.352,11.185,24.544,19.346,41.859,19.547"/>
		<path style="fill:none;stroke:#17192D;stroke-width:3;" d="M1270.885,427.361c0.351,16.548,5.313,34.371,10.23,49.834
			c1.97,5.771,2.992,14.075,5.898,19.365c3.782,6.494,12.24,12.555,17.56,18.113c11.417,11.685,21.116,27.377,33.908,37.133"/>
	</g>
	<path style="fill:none;stroke:#17192D;stroke-width:3;" d="M2048,0"/>
	<path style="fill:none;stroke:#17192D;stroke-width:3;" d="M2048,1536"/>
	<path style="fill:none;stroke:#17192D;stroke-width:3;" d="M0,1536"/>
	<path style="fill:none;stroke:#17192D;stroke-width:3;" d="M0,0"/>
</g>
<g id="Layer_1">
</g>
</svg>
