<svg xmlns="http://www.w3.org/2000/svg" width="2048" height="1536" viewBox="0 0 2048 1536"><g fill="none" stroke="#17192D" stroke-width="3"><path d="M727.942 801.78c-7.552-12.232-8.514-28.666-12.337-42.526-7.17-19.49-11.572-39.75-14.156-59.915-7.705-44.1-15.218-91.833-34.913-132.926-1.625-3.728-4.11-8.408-5.738-12.136M568.546 820.737c-3.59-1.1-19.41-29.234-23.613-35.828-13.53-19.83-23.376-40.374-33.178-61.826-15.345-37.22-28.064-72.48-34.186-111.95M726.94 803.55c1.44 24.656 20.178 49.312 11.345 78.888-3.954 12.673-10.76 23.134-19.437 31.56M685.414 779.522c.143-2.725.286-5.447.427-8.17M672.466 783.396c-2.536-3.774-5.976-7.596-8.508-11.37M689.625 803.415c-1.58-4.634-2.298-8.312-2.966-12.9M589.232 797.753c-2.93-12.726-24.148-53.353-37.73-68.43M2048 0M2048 1536M0 1536M0 0"/></g></svg>