<?xml version="1.0" encoding="iso-8859-1"?>
<!-- Generator: Adobe Illustrator 15.1.0, SVG Export Plug-In . SVG Version: 6.00 Build 0)  -->
<!DOCTYPE svg PUBLIC "-//W3C//DTD SVG 1.1//EN" "http://www.w3.org/Graphics/SVG/1.1/DTD/svg11.dtd">
<svg version="1.1" xmlns="http://www.w3.org/2000/svg" xmlns:xlink="http://www.w3.org/1999/xlink" x="0px" y="0px" width="2048px"
	 height="1536px" viewBox="0 0 2048 1536" style="enable-background:new 0 0 2048 1536;" xml:space="preserve">
<g id="c2a_x5F_oberarm_x5F_h">
	<g>
		<path style="fill:none;stroke:#17192D;stroke-width:3;" d="M1222.189,411.994c9.276,29.285,2.609,76.923-7.879,105.031"/>
		<path style="fill:none;stroke:#17192D;stroke-width:3;" d="M1145.334,473.537c-0.837,16.248,13.868,48.176,27.003,59.367"/>
		<path style="fill:none;stroke:#17192D;stroke-width:3;" d="M1209.924,510.931c9.279,29.279,14.271,58.863,17.785,89.016
			c2.109,15.112,4.22,30.219,4.923,45.195c0.741,7.17,0.003,14.909,0.034,22.015c-0.467,4.924-0.71,14.841-0.002,14.91"/>
		<path style="fill:none;stroke:#17192D;stroke-width:3;" d="M1244.33,691.516c-1.645-11.03-6.183-21.002-9.521-31.965"/>
		<path style="fill:none;stroke:#17192D;stroke-width:3;" d="M1169.052,567.381c-1.61,16.881-0.404,34.037,2.274,50.622
			c0.469,9.982,1.71,19.33,3.65,28.747c0.234,4.99,1.341,15.749,3.583,14.54"/>
	</g>
	<path style="fill:none;stroke:#17192D;stroke-width:3;" d="M2048,0"/>
	<path style="fill:none;stroke:#17192D;stroke-width:3;" d="M2048,1536"/>
	<path style="fill:none;stroke:#17192D;stroke-width:3;" d="M0,1536"/>
	<path style="fill:none;stroke:#17192D;stroke-width:3;" d="M0,0"/>
</g>
<g id="Layer_1">
</g>
</svg>
