<?xml version="1.0" encoding="iso-8859-1"?>
<!-- Generator: Adobe Illustrator 15.1.0, SVG Export Plug-In . SVG Version: 6.00 Build 0)  -->
<!DOCTYPE svg PUBLIC "-//W3C//DTD SVG 1.1//EN" "http://www.w3.org/Graphics/SVG/1.1/DTD/svg11.dtd">
<svg version="1.1" xmlns="http://www.w3.org/2000/svg" xmlns:xlink="http://www.w3.org/1999/xlink" x="0px" y="0px" width="2048px"
	 height="1536px" viewBox="0 0 2048 1536" style="enable-background:new 0 0 2048 1536;" xml:space="preserve">
<g id="c2b_x5F_oberarm_x5F_h">
	<g>
		<path style="fill:none;stroke:#FF0050;stroke-width:3;" d="M1222.281,1125.848c9.275-29.281,2.611-76.925-7.878-105.031"/>
		<path style="fill:none;stroke:#FF0050;stroke-width:3;" d="M1145.427,1064.307c-0.836-16.248,13.866-48.178,27-59.367"/>
		<path style="fill:none;stroke:#FF0050;stroke-width:3;" d="M1210.014,1026.913c9.28-29.279,14.273-58.863,17.791-89.018
			c2.105-15.108,4.216-30.219,4.92-45.193c0.74-7.168,0.001-14.908,0.035-22.014c-0.468-4.928-0.71-14.841-0.006-14.912"/>
		<path style="fill:none;stroke:#FF0050;stroke-width:3;" d="M1244.42,846.33c-1.645,11.026-6.181,21.001-9.523,31.965"/>
		<path style="fill:none;stroke:#FF0050;stroke-width:3;" d="M1169.143,970.462c-1.608-16.882-0.402-34.037,2.274-50.621
			c0.472-9.982,1.711-19.33,3.652-28.748c0.233-4.989,1.338-15.746,3.583-14.539"/>
	</g>
	<path style="fill:none;stroke:#17192D;stroke-width:3;" d="M2048,0"/>
	<path style="fill:none;stroke:#17192D;stroke-width:3;" d="M2048,1536"/>
	<path style="fill:none;stroke:#17192D;stroke-width:3;" d="M0,1536"/>
	<path style="fill:none;stroke:#17192D;stroke-width:3;" d="M0,0"/>
</g>
<g id="Layer_1">
</g>
</svg>
