<?xml version="1.0" encoding="iso-8859-1"?>
<!-- Generator: Adobe Illustrator 15.1.0, SVG Export Plug-In . SVG Version: 6.00 Build 0)  -->
<!DOCTYPE svg PUBLIC "-//W3C//DTD SVG 1.1//EN" "http://www.w3.org/Graphics/SVG/1.1/DTD/svg11.dtd">
<svg version="1.1" xmlns="http://www.w3.org/2000/svg" xmlns:xlink="http://www.w3.org/1999/xlink" x="0px" y="0px" width="2048px"
	 height="1536px" viewBox="0 0 2048 1536" style="enable-background:new 0 0 2048 1536;" xml:space="preserve">
<g id="c2b_x5F_hand_x5F_v">
	<g>
		<path style="fill:none;stroke:#FF0050;stroke-width:3;" d="M1533.841,799.845c-0.243,1.267-0.806,2.553-1.052,3.82
			c-23.168,1.217-45.523-0.127-68.529-1.746"/>
		<path style="fill:none;stroke:#FF0050;stroke-width:3;" d="M1535.034,762.683c-0.099-1.882-0.212-4.072-0.312-5.947
			c-9.097,0.157-18.023-2.512-27.073-1.409"/>
		<path style="fill:none;stroke:#FF0050;stroke-width:3;" d="M1399.711,744.345c-7.826,0.408-16.048-0.731-23.549-0.022
			c-0.507,2.224-0.725,4.119-0.608,6.309"/>
		<path style="fill:none;stroke:#FF0050;stroke-width:3;" d="M1520.182,755.568c5.335,0.033,0.955-14.285-2.901-17.757
			c-4.478-4.03-10.55-6.042-16.198-6.059c-10.679-0.069-15.752,1.453-23.957,6.594"/>
		<path style="fill:none;stroke:#FF0050;stroke-width:3;" d="M1452.49,735.555c6.33-5.04,9.84-9.934,18.64-9.767
			c5.341,0.037,13.624,2.426,16.988,6.646"/>
		<path style="fill:none;stroke:#FF0050;stroke-width:3;" d="M1428.598,734.923c5.72-4.692,8.324-8.911,16.1-10.261
			c3.741-0.51,14.784,0.482,15.274,3.91"/>
		<path style="fill:none;stroke:#FF0050;stroke-width:3;" d="M1433.527,729.521c-0.336,0.018-10.003-4.524-13.999-3.643
			c-9.669,1.852-22.914,19.053-28.571,26.763c-1.009,0.053-2.705-0.198-3.412-0.835"/>
		<path style="fill:none;stroke:#FF0050;stroke-width:3;" d="M1406.736,808.398c-2.907,0.405-5.521,0.04-8.438-1.315
			c0.003,0.084,0.096,0.248,0.1,0.332"/>
		<path style="fill:none;stroke:#FF0050;stroke-width:3;" d="M1467.113,742.033c0.243,0.083,0.426,0.313,0.67,0.383
			c-1.961-3.772-5.099-4.395-8.851-4.847"/>
		<path style="fill:none;stroke:#FF0050;stroke-width:3;" d="M1497.415,748.695c-3.453-3.433-6.249-6.557-12.188-5.168"/>
		<path style="fill:none;stroke:#FF0050;stroke-width:3;" d="M1444.703,740.15c-1.696-1.804-4.502-2.802-6.595-3.321"/>
		<path style="fill:none;stroke:#FF0050;stroke-width:3;" d="M1419.772,736.873c-0.853-0.796-4.954-0.677-6.771-0.868"/>
		<path style="fill:none;stroke:#FF0050;stroke-width:3;" d="M1389.447,763.72c0.089-1.277,0.22-2.479,1.061-3.109"/>
		<path style="fill:none;stroke:#FF0050;stroke-width:3;" d="M1507.778,752.694c-1.963,2.396-3.163,4.394-5.771,6.217
			c-2.525,1.76-6.188,1.97-7.95,4.24c-2.386,3.076-4.448,6.605-6.628,9.879c-2.211,3.325-5.027,11.422-8.199,13.858
			c-3.409,2.622-6.935,5.429-10.524,7.757c-2.043,1.318-2.5,2.035-3.799,4.2c-1.038,1.733-2.305,2.992-3.951,3.691"/>
		<path style="fill:none;stroke:#FF0050;stroke-width:3;" d="M1493.544,805.22c-1.517,0.324-3.396,5.964-5.149,7.373
			c-2.751,2.201-6.72,3.236-9.869,4.534c-5.959,2.456-10.979,7.543-17.073,9.479c-6.417,2.042-13.427-1.228-19.42-2.851
			c-6.435-1.745-12.977-3.303-19.412-5.23c-3.215-0.965-5.922-2.303-8.631-4.316c-2.435-1.816-4.796-5.317-7.325-6.568
			c-0.163-0.35,0.042-0.439,0.117-0.738"/>
		<path style="fill:none;stroke:#FF0050;stroke-width:3;" d="M1461.665,805.17c-2.452-1.602-3.661-3.489-5.629-5.43"/>
		<path style="fill:none;stroke:#FF0050;stroke-width:3;" d="M1413.627,751.716c-1.582,0.361-6.523,3.709-7.357,5.348"/>
		<path style="fill:none;stroke:#FF0050;stroke-width:3;" d="M1432.229,753.411c0.867,1.199-6.581,5.726-7.634,6.513
			c-2.072,1.547-4.382,4.276-6.831,5.123"/>
		<path style="fill:none;stroke:#FF0050;stroke-width:3;" d="M1456.152,761.891c-1.558,0.66-2.988,2.357-4.537,3.295
			c-1.926,1.158-3.857,2.321-5.738,3.54c-1.762,1.143-3.51,2.339-5.26,3.468c-1.602,1.028-3.988,1.658-5.336,3.008"/>
		<path style="fill:none;stroke:#FF0050;stroke-width:3;" d="M1532.455,796.825c0.736,0.096,1.419,0.173,2.027,0.228
			c38.806,1.466,75.136,5.257,113.846,8.27c72.653,7.593,150.02,1.997,219.711,19.667c-16.687-44.131-62.451-71.151-109.77-73.373
			c-31.854-0.704-67.062,2.196-99.839,3.82c-32.048,2.395-60.3,6.604-92.345,8.999c-10.101,0.395-20.969,1.504-31.611,2.728"/>
		<path style="fill:none;stroke:#FF0050;stroke-width:3;" d="M1535.837,767.571c-5.415,7.301-5.675,19.821-1.725,28.313"/>
		<line style="fill:none;stroke:#FF0050;stroke-width:3;" x1="1530.262" y1="788.826" x2="1842.279" y2="811.361"/>
	</g>
	<path style="fill:none;stroke:#17192D;stroke-width:3;" d="M2048,0"/>
	<path style="fill:none;stroke:#17192D;stroke-width:3;" d="M2048,1536"/>
	<path style="fill:none;stroke:#17192D;stroke-width:3;" d="M0,1536"/>
	<path style="fill:none;stroke:#17192D;stroke-width:3;" d="M0,0"/>
</g>
<g id="Layer_1">
</g>
</svg>
