<svg xmlns="http://www.w3.org/2000/svg" width="2048" height="1536" viewBox="0 0 2048 1536"><g fill="none" stroke-width="3"><g stroke="#FF0050"><path d="M857.766 762.04c-26.377.47-58.832 24.02-81.817 37.06-22.988 13.038-58.26 34.916-72.787 52.975M974.106 827.862c-17.497 30.96-47.937 58.047-72.077 83.89-29.395 29.763-62.422 59.716-95.69 85.13M977.697 826.763c-1.103-3.586 9.317-13.232 12.71-17.964 8.46-12.28 13.1-28 14.154-42.62 1.487-23.747-5.2-47.065-21.488-62.602M942.497 728.464c-5.162 5.73-12.184 10.653-15.483 17.2M827.003 823.583c-19.563 6.72-33.006 21.646-49.58 31.05M981.145 702.863c-17.278-10.432-38.57-14.155-55.698-22.78-19.018-9.38-38.946-18.687-57.053-28.14-41.958-22.09-85.807-44.934-130.107-62.266-21.66-8.254-51.85-20.363-73.137-24.084M813.853 775.264c-12.426 6.11-67.844-61.083-77.4-69.686M964.22 812.9c-4.348 3.87-9.51 9.604-14.813 12.614M923.315 831.433c3.794-2.352 8.462-1.994 12.566-3.39M824.26 699.04c-14.986-11.788-35.442-25.082-53.543-27.73M946.416 836.33c-1.604 3.676-3.302 5.562-4.906 9.238"/></g><path d="M2048 0M2048 1536M0 1536M0 0" stroke="#17192D"/></g></svg>