<?xml version="1.0" encoding="iso-8859-1"?>
<!-- Generator: Adobe Illustrator 15.1.0, SVG Export Plug-In . SVG Version: 6.00 Build 0)  -->
<!DOCTYPE svg PUBLIC "-//W3C//DTD SVG 1.1//EN" "http://www.w3.org/Graphics/SVG/1.1/DTD/svg11.dtd">
<svg version="1.1" xmlns="http://www.w3.org/2000/svg" xmlns:xlink="http://www.w3.org/1999/xlink" x="0px" y="0px" width="2048px"
	 height="1536px" viewBox="0 0 2048 1536" style="enable-background:new 0 0 2048 1536;" xml:space="preserve">
<g id="c2b_x5F_fuss_x5F_v">
	<g>
		<path style="fill:none;stroke:#FF0050;stroke-width:3;" d="M323.535,591.571c-2.772-0.768-6.402-0.576-9.125-0.434"/>
		<path style="fill:none;stroke:#FF0050;stroke-width:3;" d="M333.289,569.211c-2.867-2.582-6.639-5.115-10.32-5.829"/>
		<path style="fill:none;stroke:#FF0050;stroke-width:3;" d="M329.271,614.029c-18.925,3.724-38.135,1.998-52.511-11.813
			c-15.335-14.67-14.52-33.833-23.645-51.56c-18.293-36.372-63.203-59.508-71.747-100.937c-1.383-9.03-3.052-23.51,2.969-30.198"/>
		<path style="fill:none;stroke:#FF0050;stroke-width:3;" d="M349.065,540.164c0.959,0.858,1.914,1.721,2.868,2.579l0,0l0,0
			c-24.988-7.793-36.26-31.783-50.066-52.001c-11.796-16.675-32.719-33.787-32.048-55.671"/>
		<path style="fill:none;stroke:#FF0050;stroke-width:3;" d="M269.592,433.156c1.093,0.303,3.726-3.22,4.462-4.938
			c1.46-3.424,0.81-4.146,4.9-5.27c4.018-1.103,13.057-2.122,15.099-6.764c2.643-6.015-6.637-11.025-10.752-12.531
			c-5.522-2.015-12.024-1.541-16.85,1.709c0.077-0.007,0.156-0.014,0.228-0.019"/>
		<path style="fill:none;stroke:#FF0050;stroke-width:3;" d="M214.223,409.18c0.347-3.268,3.701-10.339,0.111-13.538
			c-3.759-3.357-11.112,1.206-12.559,4.731c-0.888,2.163-0.352,5.443-1.785,7.402c-0.938,1.29-4.447,3.271-5.967,4.215
			c-3.524,2.194-10.106,4.545-9.275,9.993"/>
		<path style="fill:none;stroke:#FF0050;stroke-width:3;" d="M213.857,422.998c-0.539,0.988-1.24,4.956-1.812,6.998"/>
		<path style="fill:none;stroke:#FF0050;stroke-width:3;" d="M223.426,425.405c0.356-0.708,1.077,2.959,1.314,4.291"/>
		<path style="fill:none;stroke:#FF0050;stroke-width:3;" d="M234.785,427.352c1.37,1.456,1.908,3.89,1.77,6.084"/>
		<path style="fill:none;stroke:#FF0050;stroke-width:3;" d="M250.835,435.59c2.165,0.642,3.085,6.316,3.009,8.924"/>
		<path style="fill:none;stroke:#FF0050;stroke-width:3;" d="M288.145,496.104c-2.8-1.092-6.188-6.328-8.16-8.646
			c-2.291-2.685-4.383-5.455-6.782-8.095c-3.961-4.36-7.274-11.726-11.796-15.27"/>
		<path style="fill:none;stroke:#FF0050;stroke-width:3;" d="M269.6,488.721c-2.051-0.51-4.211-5.31-5.83-7.333
			c-2.042-2.562-4.514-4.711-6.475-7.364c-2.033-2.759-5.839-11.309-7.63-12.219"/>
		<path style="fill:none;stroke:#FF0050;stroke-width:3;" d="M253.282,482.314c-1.503-3.995-3.867-8.012-6.151-11.665
			c-2.23-3.566-3.814-8.091-5.95-11.312"/>
		<path style="fill:none;stroke:#FF0050;stroke-width:3;" d="M237.766,477.313c2.33-2.325-4.26-9.618-5.636-12.132
			c-1.887-3.438-3.949-7.937-5.052-11.639"/>
		<path style="fill:none;stroke:#FF0050;stroke-width:3;" d="M252.531,420.896c2.253,0.501,5.139-2.771,6.466-4.299
			c1.795-2.055,1.835-3.809,2.311-6.261c0.501-2.603,2.961-2.81,4.66-4.598c1.594-1.68,2.891-3.883,3.269-6.213
			c0.574-3.59-3.579-6.992-6.983-7.507c-2.445-0.367-4.328,0.337-6.485,1.339c-1.249,0.576-4.422,1.979-4.797,3.464"/>
		<path style="fill:none;stroke:#FF0050;stroke-width:3;" d="M239.846,416.29c0.115,0.121,0.101,0.24,0.301,0.294
			c2.812-1.963,3.93-4.605,4.279-7.857c0.282-2.626,2.29-4.266,3.731-6.331c1.464-2.102,2.71-4.073,1.84-6.691
			c-0.941-2.844-3.437-3.362-6.144-3.482c-3.91-0.165-8.639,2.098-11.149,5.119"/>
		<path style="fill:none;stroke:#FF0050;stroke-width:3;" d="M226.501,410.258c0.829-0.976,1.518-1.47,2.088-2.715
			c0.476-1.044,0.686-2.111,1.304-3.145c1.284-2.157,2.922-4.401,3.442-6.915c1.107-5.328-5.945-7.755-10.029-6.239
			c-2.239,0.833-4.154,2.673-5.616,4.542"/>
	</g>
	<path style="fill:none;stroke:#17192D;stroke-width:3;" d="M2048,0"/>
	<path style="fill:none;stroke:#17192D;stroke-width:3;" d="M2048,1536"/>
	<path style="fill:none;stroke:#17192D;stroke-width:3;" d="M0,1536"/>
	<path style="fill:none;stroke:#17192D;stroke-width:3;" d="M0,0"/>
</g>
<g id="Layer_1">
</g>
</svg>
