<?xml version="1.0" encoding="iso-8859-1"?>
<!-- Generator: Adobe Illustrator 15.1.0, SVG Export Plug-In . SVG Version: 6.00 Build 0)  -->
<!DOCTYPE svg PUBLIC "-//W3C//DTD SVG 1.1//EN" "http://www.w3.org/Graphics/SVG/1.1/DTD/svg11.dtd">
<svg version="1.1" xmlns="http://www.w3.org/2000/svg" xmlns:xlink="http://www.w3.org/1999/xlink" x="0px" y="0px" width="2048px"
	 height="1536px" viewBox="0 0 2048 1536" style="enable-background:new 0 0 2048 1536;" xml:space="preserve">
<g id="c2b_x5F_hand_x5F_h">
	<g>
		<path style="fill:none;stroke:#FF0050;stroke-width:3;" d="M1321.52,504.773c-1.35,1.089-1.947,3.146-3.123,4.53
			c-1.176,1.394-2.562,2.981-4.138,4.044c-3.392,2.289-8.082,3.857-11.857,5.463c-9.805,4.163-18.507,9.803-27.802,14.864
			c-3.502,1.908-9.574,5.19-11.579,8.704"/>
		<path style="fill:none;stroke:#FF0050;stroke-width:3;" d="M1326.961,500.286c1.285-2.522,5.902-3.905,8.278-5.06
			c4.031-1.958,7.301-3.939,10.854-6.745c5.646-4.443,11.582-8.376,17.416-12.437c5.808-4.03,11.065-8.081,15.655-13.501
			c0.848-0.996,2.997-2.818,3.229-4.088c0.229-1.224-0.876-2.368-2.124-3.28c-3.577-2.618-6.755-3.614-10.807-1.384
			c-1.448,0.796-2.408,1.795-3.628,2.953c-1.639,1.557-2.698,1.675-4.844,2.379c-3.405,1.118-6.466,3.04-9.34,5.368
			c-2.86,2.315-5.582,5.433-8.538,7.485c-1.81,1.265-3.547,0.327-5.737,0.622c-1.978,0.264-4.183,0.824-6.046,1.51
			c-2.399,0.881-5.168,2.166-7.195,3.599"/>
		<path style="fill:none;stroke:#FF0050;stroke-width:3;" d="M1304.966,497.026c2.548-0.904,4.197-3.13,5.103-5.654"/>
		<path style="fill:none;stroke:#FF0050;stroke-width:3;" d="M1283.039,481.252c3.142-1.205,3.582-5.078,4.617-7.757"/>
		<path style="fill:none;stroke:#FF0050;stroke-width:3;" d="M1257.353,466.699c2.334-0.069,4.382-5.091,4.552-7.068"/>
		<path style="fill:none;stroke:#FF0050;stroke-width:3;" d="M1204.528,488.009c0.449-4.812-1.425-9.759-4.914-12.771"/>
		<path style="fill:none;stroke:#FF0050;stroke-width:3;" d="M1195.736,548.397c-6.993-3.817-6.699-14.688-9.661-20.688
			c-3.597-7.265-6.955-14.829-8.448-22.724c-0.771-4.077-0.647-7.627-0.462-11.823c0.169-3.665-1.419-6.611-2.437-10.096
			c-1.009-3.437-3.553-6.281-4.467-9.801c-1.131-4.352-2.475-8.617-3.111-13.01c-0.545-3.719-0.436-9.521-2.455-12.753
			c-1.148-1.834-2.975-3.19-4.078-5.16c-1.08-1.934-1.83-3.717-3.059-5.544c-0.985-1.467-2.937-3.215-2.695-5.046
			c0.199-1.482,2.361-3.566,3.453-4.392c3.001-2.259,6.795-1.78,9.947-0.002c3.818,2.141,6.717,4.986,9.93,8.017
			c3.303,3.121,4.905,6.847,7.1,10.767c1.868,3.335,3.801,6.305,5.55,9.756c1.708,3.365,2.605,6.769,3.767,10.434
			c0.837,2.646,1.573,6.472,3.203,8.729"/>
		<path style="fill:none;stroke:#FF0050;stroke-width:3;" d="M1209.474,476.878c2.729-3.42,5.737-6.669,8.431-10.16
			c2.396-3.117,4.562-6.097,7.311-9.039c2.391-2.565,6.088-4.854,8.021-7.647c2.195-3.153,3.262-6.722,5.662-9.751
			c2.545-3.195,6.42-4.042,9.093-6.868c1.321-1.388,1.554-3.597,2.401-5.402c0.851-1.821,1.754-3.622,2.586-5.444
			c1.706-3.714,4.66-6.218,7.064-9.505c2.267-3.098,2.849-7.385,4.622-10.771c1.896-3.614,5.108-6.203,6.849-9.627
			c1.705-3.358,3.371-6.258,6.088-8.974c2.059-2.051,5.271-5.714,8.315-5.294c3.669,0.512,5.832,4.388,5.845,7.85
			c0.034,8.157-4.207,15.415-5.626,22.904c-0.683,3.614-2.2,7.32-3.927,10.555c-0.935,1.733-2.235,3.423-3.059,5.15
			c-0.811,1.719-0.971,3.527-1.818,5.3c-1.448,3.03-3.369,5.959-5.175,8.84c-1.597,2.542-4.282,6.271-6.529,8.015"/>
		<path style="fill:none;stroke:#FF0050;stroke-width:3;" d="M1315.669,480.534c1.794-3.502,4.768-6.713,7.474-9.588
			c2.75-2.923,4.944-5.698,8.189-8.193c2.813-2.172,5.661-4.095,8.136-6.555c2.789-2.771,4.524-6.194,6.769-9.27
			c2.292-3.131,4.937-5.799,7.392-8.766c1.498-1.825,2.745-3.715,4.601-5.214c1.62-1.304,1.98-2.56,3.352-4.047
			c1.492-1.633,3.139-1.206,2.176-3.604c-0.498-1.25-2.18-2.831-3.246-3.67c-2.743-2.141-6.271-4.358-9.928-3.23
			c-3.745,1.143-7.473,5.08-9.619,8.139c-1.125,1.605-1.683,3.104-3.256,4.433c-1.923,1.631-3.975,2.94-5.819,4.689
			c-3.052,2.896-5.901,5.79-8.614,8.96c-1.244,1.461-2.304,3.18-3.436,4.501c-1.379,1.614-3.56,1.666-5.507,2.771
			c-2.141,1.209-4.339,2.767-6.312,4.271c-1.852,1.409-4.12,5.043-6.237,5.497"/>
		<path style="fill:none;stroke:#FF0050;stroke-width:3;" d="M1290.307,462.598c3.412-2.411,5.58-7.497,7.269-11.126
			c1.701-3.66,5.065-6.225,7.708-9.041c2.691-2.873,4.742-6.421,6.598-9.849c1.87-3.449,4.482-6.146,7.202-9.043
			c5.19-5.523,7.168-13.066,10.37-19.757c0.733-1.521,1.851-2.996,1.062-4.397c-0.926-1.638-3.243-1.659-4.758-2.112
			c-4.035-1.203-6.689-2.234-10.529,0.055c-3.54,2.112-5.979,5.027-7.993,8.447c-1.874,3.173-4.09,5.688-6.101,8.922
			c-2.153,3.483-4.547,6.69-6.33,10.318c-0.816,1.664-1.58,3.399-2.428,5.007c-1.152,2.185-2.516,2.523-4.542,3.822
			c-2.896,1.864-5.619,4.328-7.877,6.82c-2.156,2.378-6.07,6.147-7.077,9.096"/>
	</g>
	<path style="fill:none;stroke:#17192D;stroke-width:3;" d="M2048,0"/>
	<path style="fill:none;stroke:#17192D;stroke-width:3;" d="M2048,1536"/>
	<path style="fill:none;stroke:#17192D;stroke-width:3;" d="M0,1536"/>
	<path style="fill:none;stroke:#17192D;stroke-width:3;" d="M0,0"/>
</g>
<g id="Layer_1">
</g>
</svg>
