<?xml version="1.0" encoding="iso-8859-1"?>
<!-- Generator: Adobe Illustrator 15.1.0, SVG Export Plug-In . SVG Version: 6.00 Build 0)  -->
<!DOCTYPE svg PUBLIC "-//W3C//DTD SVG 1.1//EN" "http://www.w3.org/Graphics/SVG/1.1/DTD/svg11.dtd">
<svg version="1.1" xmlns="http://www.w3.org/2000/svg" xmlns:xlink="http://www.w3.org/1999/xlink" x="0px" y="0px" width="2048px"
	 height="1536px" viewBox="0 0 2048 1536" style="enable-background:new 0 0 2048 1536;" xml:space="preserve">
<g id="c2b_x5F_unterarm_x5F_v">
	<g>
		<path style="fill:none;stroke:#FF0050;stroke-width:3;" d="M1393.473,808.476c-11.756,1.526-22.6,3.107-32.49,5.449
			c-22.968,5.438-52.938,12.824-74.438,19.41c-40.285,13.037-81.524,25.212-123.094,31.033c-4.538,0.238-9.032,1.382-13.571,1.622"
			/>
		<path style="fill:none;stroke:#FF0050;stroke-width:3;" d="M1385.941,751.657c-43.624,1.376-92.262-7.913-136.555-1.948
			c-37.938,5.631-78.604,11.4-115.351,22.431c-12.565,3.389-23.271,7.59-34.975,10.026c-15.294,3.534-24.126,6.728-33.495,19.054"/>
		<path style="fill:none;stroke:#FF0050;stroke-width:3;" d="M1221.656,828.543c-13.955,11.657-50.27,13.562-68.285,17.235"/>
	</g>
	<path style="fill:none;stroke:#17192D;stroke-width:3;" d="M2048,0"/>
	<path style="fill:none;stroke:#17192D;stroke-width:3;" d="M2048,1536"/>
	<path style="fill:none;stroke:#17192D;stroke-width:3;" d="M0,1536"/>
	<path style="fill:none;stroke:#17192D;stroke-width:3;" d="M0,0"/>
</g>
<g id="Layer_1">
</g>
</svg>
