<svg xmlns="http://www.w3.org/2000/svg" width="2048" height="1536" viewBox="0 0 2048 1536"><g fill="none" stroke-width="3"><g stroke="#FF0050"><path d="M626.726 574.77c-2.866-2.58-6.594-4.207-10.276-4.922M667.826 559.874c2.826-32.923-8.586-59.636 11.87-86.2M623.564 410.16c-33.023 12.654-21.755 53.94-22.142 81.272-.24 12.76 2.812 36.27-3.833 48.45-7.505 13.14-21.745 19.35-26.337 35.977M654.303 428.243c5.93-7.562 12.428-10.26 20.24-14.23 5.364-2.732 8.72-7.21 15.26-7.297-.015-12.784-12.258-19.942-24.107-17.484-6.163 1.276-9.802 7.212-14.392 11.122-4.82 4.1-10.02 4.1-15.962 5.3-2.345.47-9.995 1.59-9.57 4.838M646.944 433.35c.256 2.545-3.69 5.208-5.875 5.76M655.994 446.678c-1.795.985-2.674 3.682-5.263 3.543M662.934 454.305c-.826 1.43-1.502 2.777-3.11 3.067M668.78 461.986c.54 1.695-1.66 4.254-3.353 5.262M657.835 481.808c-1.71 6.01-1.602 12.245-2.674 18.3M647.878 506.662c-.267-5.167-.154-12.277.14-18.165.24-4.807 2.37-10.056 2.137-14.637M640.217 499.075c-2.683-2.403.693-15.683 1.495-20.053.887-4.842 2.96-10.004 3.205-15.057M633.868 502.674c-2.875-4.36-1.344-13.556-1.05-18.516.306-5.156.52-10.162.73-15.286.122-2.84-.104-5.894.194-8.684.303-2.833 1.44-5.54 1.454-8.43M663.854 435.046c2.742.122 3.435-2.836 5.653-3.815 2.642-1.166 5.48-1.91 8.06-3.342 1.254-.695 2.404-1.632 3.65-2.282 1.234-.646 2.702-.494 4.095-.613 2.5-.213 4.856-1.264 4.877-4.06.02-2.24-.965-4.363-2.365-6.057-.85-1.027-1.764-1.93-2.92-2.598-.79-.457-2.318-.644-2.708-1.47M673.37 443.478c-.132.14-.132.25-.005.32 2.165-1.086 3.23-3.47 5.407-4.447 2.525-1.135 5.6-1.11 8.197-1.676 2.72-.593 4.75-2.206 4.702-5.25-.028-1.773-.705-6.553-2.848-6.88M681.37 453.743c1.496-.64 2.366-.26 3.7-1.48.977-.894 1.9-2 2.964-2.79 2.128-1.577 5.134-.404 7.366-1.848 4.183-2.708.906-9.387-1.832-11.903-.297-.27-.58-.468-.88-.722M680.976 471.327c1.03-.38 1.896-1.24 2.835-1.866 1.24-.832 2.65-1.388 3.842-2.287 1.77-1.345 2.52-4.396 4.396-5.207 2.196-.963 4.713-.965 6.593-2.713 2.253-2.1 2.72-4.65 2.53-7.572-.1-1.613-.516-2.75-1.666-3.86"/></g><path d="M2048 0M2048 1536M0 1536M0 0" stroke="#17192D"/></g></svg>