<svg xmlns="http://www.w3.org/2000/svg" width="2048" height="1536" viewBox="0 0 2048 1536"><g fill="none" stroke-width="3"><g stroke="#FF0050"><path d="M1393.473 808.476c-11.756 1.526-22.6 3.107-32.49 5.45-22.968 5.437-52.938 12.823-74.438 19.41-40.285 13.036-81.524 25.21-123.094 31.032-4.537.238-9.03 1.382-13.57 1.622M1385.94 751.657c-43.623 1.376-92.26-7.913-136.554-1.948-37.938 5.63-78.604 11.4-115.35 22.43-12.566 3.39-23.272 7.59-34.976 10.026-15.294 3.534-24.126 6.728-33.495 19.054M1221.656 828.543c-13.955 11.657-50.27 13.562-68.285 17.235"/></g><path d="M2048 0M2048 1536M0 1536M0 0" stroke="#17192D"/></g></svg>