<?xml version="1.0" encoding="iso-8859-1"?>
<!-- Generator: Adobe Illustrator 15.1.0, SVG Export Plug-In . SVG Version: 6.00 Build 0)  -->
<!DOCTYPE svg PUBLIC "-//W3C//DTD SVG 1.1//EN" "http://www.w3.org/Graphics/SVG/1.1/DTD/svg11.dtd">
<svg version="1.1" xmlns="http://www.w3.org/2000/svg" xmlns:xlink="http://www.w3.org/1999/xlink" x="0px" y="0px" width="2048px"
	 height="1536px" viewBox="0 0 2048 1536" style="enable-background:new 0 0 2048 1536;" xml:space="preserve">
<g id="c2b_x5F_fuss_x5F_h">
	<g>
		<path style="fill:none;stroke:#FF0050;stroke-width:3;" d="M626.726,574.771c-2.866-2.581-6.594-4.208-10.276-4.923"/>
		<path style="fill:none;stroke:#FF0050;stroke-width:3;" d="M667.826,559.874c2.826-32.923-8.586-59.636,11.869-86.199"/>
		<path style="fill:none;stroke:#FF0050;stroke-width:3;" d="M623.564,410.159c-33.023,12.655-21.755,53.94-22.142,81.273
			c-0.239,12.76,2.812,36.269-3.833,48.449c-7.504,13.142-21.744,19.35-26.336,35.978"/>
		<path style="fill:none;stroke:#FF0050;stroke-width:3;" d="M654.303,428.243c5.929-7.562,12.428-10.26,20.239-14.231
			c5.365-2.731,8.72-7.21,15.26-7.296c-0.014-12.784-12.257-19.942-24.106-17.484c-6.163,1.276-9.802,7.212-14.392,11.122
			c-4.821,4.1-10.021,4.1-15.962,5.3c-2.345,0.47-9.995,1.591-9.571,4.838"/>
		<path style="fill:none;stroke:#FF0050;stroke-width:3;" d="M646.944,433.351c0.256,2.544-3.691,5.207-5.875,5.758"/>
		<path style="fill:none;stroke:#FF0050;stroke-width:3;" d="M655.994,446.678c-1.795,0.985-2.674,3.682-5.263,3.543"/>
		<path style="fill:none;stroke:#FF0050;stroke-width:3;" d="M662.934,454.305c-0.826,1.43-1.502,2.777-3.111,3.067"/>
		<path style="fill:none;stroke:#FF0050;stroke-width:3;" d="M668.78,461.986c0.541,1.695-1.66,4.254-3.353,5.262"/>
		<path style="fill:none;stroke:#FF0050;stroke-width:3;" d="M657.835,481.808c-1.709,6.009-1.602,12.245-2.674,18.301"/>
		<path style="fill:none;stroke:#FF0050;stroke-width:3;" d="M647.878,506.662c-0.267-5.167-0.154-12.277,0.14-18.165
			c0.241-4.807,2.37-10.056,2.137-14.637"/>
		<path style="fill:none;stroke:#FF0050;stroke-width:3;" d="M640.217,499.075c-2.683-2.403,0.693-15.683,1.495-20.053
			c0.887-4.842,2.96-10.004,3.205-15.057"/>
		<path style="fill:none;stroke:#FF0050;stroke-width:3;" d="M633.868,502.674c-2.875-4.36-1.344-13.556-1.05-18.516
			c0.306-5.156,0.519-10.162,0.73-15.286c0.122-2.839-0.104-5.894,0.194-8.684c0.303-2.833,1.44-5.539,1.454-8.429"/>
		<path style="fill:none;stroke:#FF0050;stroke-width:3;" d="M663.854,435.046c2.742,0.122,3.435-2.836,5.653-3.815
			c2.642-1.167,5.479-1.91,8.059-3.343c1.255-0.695,2.405-1.632,3.65-2.282c1.235-0.646,2.703-0.494,4.096-0.613
			c2.501-0.213,4.856-1.264,4.877-4.061c0.021-2.239-0.964-4.362-2.364-6.056c-0.849-1.027-1.764-1.929-2.919-2.598
			c-0.792-0.457-2.319-0.644-2.709-1.47"/>
		<path style="fill:none;stroke:#FF0050;stroke-width:3;" d="M673.37,443.478c-0.132,0.139-0.132,0.249-0.005,0.32
			c2.165-1.086,3.231-3.469,5.407-4.447c2.525-1.136,5.599-1.11,8.197-1.677c2.72-0.593,4.75-2.206,4.703-5.249
			c-0.028-1.774-0.705-6.554-2.848-6.882"/>
		<path style="fill:none;stroke:#FF0050;stroke-width:3;" d="M681.37,453.743c1.496-0.641,2.366-0.259,3.699-1.48
			c0.978-0.894,1.9-2,2.965-2.789c2.128-1.578,5.134-0.405,7.366-1.849c4.183-2.708,0.906-9.387-1.832-11.903
			c-0.297-0.27-0.58-0.468-0.881-0.722"/>
		<path style="fill:none;stroke:#FF0050;stroke-width:3;" d="M680.976,471.327c1.031-0.379,1.896-1.239,2.835-1.866
			c1.238-0.833,2.648-1.389,3.841-2.288c1.77-1.345,2.519-4.396,4.396-5.207c2.196-0.963,4.713-0.965,6.593-2.713
			c2.252-2.1,2.718-4.651,2.53-7.572c-0.102-1.614-0.517-2.75-1.667-3.861"/>
	</g>
	<path style="fill:none;stroke:#17192D;stroke-width:3;" d="M2048,0"/>
	<path style="fill:none;stroke:#17192D;stroke-width:3;" d="M2048,1536"/>
	<path style="fill:none;stroke:#17192D;stroke-width:3;" d="M0,1536"/>
	<path style="fill:none;stroke:#17192D;stroke-width:3;" d="M0,0"/>
</g>
<g id="Layer_1">
</g>
</svg>
