<?xml version="1.0" encoding="iso-8859-1"?>
<!-- Generator: Adobe Illustrator 15.1.0, SVG Export Plug-In . SVG Version: 6.00 Build 0)  -->
<!DOCTYPE svg PUBLIC "-//W3C//DTD SVG 1.1//EN" "http://www.w3.org/Graphics/SVG/1.1/DTD/svg11.dtd">
<svg version="1.1" xmlns="http://www.w3.org/2000/svg" xmlns:xlink="http://www.w3.org/1999/xlink" x="0px" y="0px" width="2048px"
	 height="1536px" viewBox="0 0 2048 1536" style="enable-background:new 0 0 2048 1536;" xml:space="preserve">
<g id="c2b_x5F_corpus">
	<g>
		<path style="fill:none;stroke:#FF0050;stroke-width:3;" d="M1148.856,1159.189c-9.743-12.237-18.392-20.892-30.715-30.255"/>
		<path style="fill:none;stroke:#FF0050;stroke-width:3;" d="M1125.58,1201.373c-12.617,2.485-24.228,6.733-36.984,6.489"/>
		<path style="fill:none;stroke:#FF0050;stroke-width:3;" d="M1096.013,1158.317c0.859-0.956,1.673-2.818,1.625-3.729"/>
		<path style="fill:none;stroke:#FF0050;stroke-width:3;" d="M958.361,1152.784c0.909-0.047-4.825-5.211-5.158-11.566"/>
		<path style="fill:none;stroke:#FF0050;stroke-width:3;" d="M964.543,1062.333c-17.536,12.754-32.401,24.457-46.12,40.651
			c-9.415,11.419-17.495,30.962-28.871,39.751"/>
		<path style="fill:none;stroke:#FF0050;stroke-width:3;" d="M861.445,1197.011c0.67-4.589-0.479-9.08-3.393-12.568"/>
		<path style="fill:none;stroke:#FF0050;stroke-width:3;" d="M727.989,1166.287c2.56,2.253,5.047,6.586,7.654,6.98"/>
		<path style="fill:none;stroke:#FF0050;stroke-width:3;" d="M836.787,1009.915c-16.912,9.226-29.812,26.083-32.243,44.912"/>
		<path style="fill:none;stroke:#FF0050;stroke-width:3;" d="M717.644,1058.882c0.717-3.679-0.429-8.17-2.339-9.89"/>
		<path style="fill:none;stroke:#FF0050;stroke-width:3;" d="M656.894,1133.078c-2.393,6.496-6.6,13.092-10.854,18.776"/>
		<path style="fill:none;stroke:#FF0050;stroke-width:3;" d="M664.455,1086.252c-2.008-3.534-5.828-6.977-8.696-9.559"/>
		<path style="fill:none;stroke:#FF0050;stroke-width:3;" d="M708.952,1032.027c-16.865-26.426-44.049-41.388-67.795-60.175"/>
		<path style="fill:none;stroke:#FF0050;stroke-width:3;" d="M1077.265,1252.158c-29.487,10.646-54.287,23.784-86.064,25.45
			c-14.526,0.762-29.052,1.522-42.958-3.213c-11.085-3.062-28.708-11.242-40.701-14.255"/>
		<path style="fill:none;stroke:#FF0050;stroke-width:3;" d="M630.984,1177.222c-36.129,5.537-63.698,17.906-100.683,7.099
			c-45.295-13.104-75.822-39.724-90.049-85.407c-14.181-44.776-3.596-92.338,15.267-125.523"/>
		<path style="fill:none;stroke:#FF0050;stroke-width:3;" d="M1104.729,1272.567c-55.67,32.051-141.863,35.656-197.908,8.552"/>
		<path style="fill:none;stroke:#FF0050;stroke-width:3;" d="M1156.029,1260.761c-22.567,17.807-43.145,28.351-73.151,26.582"/>
		<path style="fill:none;stroke:#FF0050;stroke-width:3;" d="M581.097,972.268c-7.311-0.526-14.43,2.578-19.639,7.401"/>
		<path style="fill:none;stroke:#FF0050;stroke-width:3;" d="M675.803,1198.544c-51.13,14.516-113.875,33.28-151.899-14.799"/>
		<path style="fill:none;stroke:#FF0050;stroke-width:3;" d="M847.521,1000.482c-4.637-0.843-10.216-1.274-15.279-1.011
			c-5.062,0.268-10.078,1.373-14.972,2.476c-2.75,0.626-5.336,1.97-7.96,2.59l-0.363,0.021"/>
		<path style="fill:none;stroke:#FF0050;stroke-width:3;" d="M804.316,1003.834c-9.802-4.923-22.265-2.94-31.672,2.022
			c-0.115,0.125-0.356,0.14-0.468,0.264"/>
		<path style="fill:none;stroke:#FF0050;stroke-width:3;" d="M766.415,1006.907c-3.757-0.286-7.336-1.671-11.097-1.955
			c-4.241-0.26-7.971,0.057-12.143,1.119c-2.861,0.758-5.462,1.855-8.301,2.974c-3.899,1.655-8.938,0.106-13.04,0.198
			c-5.55,0.172-11.08,0.704-16.632,0.75c-4.227,0.102-9.086-0.368-13.138,0.69"/>
		<path style="fill:none;stroke:#FF0050;stroke-width:3;" d="M928.287,1274.469c-10.561,7.429-25.587,7.571-36.43,1.48"/>
		<path style="fill:none;stroke:#FF0050;stroke-width:3;" d="M847.348,1274.847c-6.088,2.68-12.725,3.029-19.219,2.081
			c-3.459-0.466-6.512-1.376-9.398-3.161c-2.434-1.374-7.756-4.53-8.735-6.842"/>
		<path style="fill:none;stroke:#FF0050;stroke-width:3;" d="M760.826,1242.446c-6.278-0.959-10.054,0.742-15.452-3.916
			c-4.711-3.83-6.887-8.439-10.357-13.199"/>
		<path style="fill:none;stroke:#FF0050;stroke-width:3;" d="M692.534,1197.278c-13.076,4.552-22.482-2.902-33.504-8.337"/>
		<path style="fill:none;stroke:#FF0050;stroke-width:3;" d="M651.342,1189.774c0.506,1.479-8.432,3.02-10.571,3.132
			c-6.418,0.552-12.387-2.787-18.192-2.911"/>
		<path style="fill:none;stroke:#FF0050;stroke-width:3;" d="M731.424,1222.298c-6.47-0.52-15.159-2.427-20.895-5.349
			c-6.83-3.289-10.399-9.975-15.548-13.999"/>
		<path style="fill:none;stroke:#FF0050;stroke-width:3;" d="M805.004,1265.897c-0.867-0.168-4.059,0.428-5.555,0.506
			c-4.081,0.003-8.624-0.621-12.343-1.928c-8.307-2.787-16.926-11.57-21.187-19.075"/>
		<path style="fill:none;stroke:#FF0050;stroke-width:3;" d="M888.715,1277.4c-4.625,1.962-9.889,3.955-14.792,4.642
			c-4.27,0.44-8.124,0.643-12.26-0.431c-3.045-0.699-6.63-3.519-9.437-3.799"/>
		<path style="fill:none;stroke:#FF0050;stroke-width:3;" d="M617.224,1190.278c-6.424,0.336-9.895-0.34-15.226-3.711"/>
		<path style="fill:none;stroke:#FF0050;stroke-width:3;" d="M1165.104,1254.763c-7.686,4.911-17.456,2.845-24.735-0.851"/>
		<path style="fill:none;stroke:#FF0050;stroke-width:3;" d="M1108.078,1256.464c-10.562,7.425-20.694,6.666-32.325,1.908"/>
		<path style="fill:none;stroke:#FF0050;stroke-width:3;" d="M1195.941,1253.146c-3.438,4.047-10.902,5.082-15.603,5.539
			c-5.138,0.272-9.126-2.096-14.095-2.694"/>
		<path style="fill:none;stroke:#FF0050;stroke-width:3;" d="M1137.652,1255.339c-5.74,5.244-21.375,6.062-26.962,1.846"/>
		<path style="fill:none;stroke:#FF0050;stroke-width:3;" d="M959.824,1057.151c-16.45,5.941-31.292,6.57-47.612,9.826"/>
		<path style="fill:none;stroke:#FF0050;stroke-width:3;" d="M803.124,1029.852c-10.056,7.442-17.305,18.687-24.62,27.524
			c-6.081,7.81-12.502,15.678-17.063,24.022"/>
		<path style="fill:none;stroke:#FF0050;stroke-width:3;" d="M785.956,1035.333c-14.113,14.623-25.624,29.857-37.046,45.613"/>
		<path style="fill:none;stroke:#FF0050;stroke-width:3;" d="M769.197,1039.133c-2.297-0.937-27.174,37.123-29.437,42.371"/>
		<path style="fill:none;stroke:#FF0050;stroke-width:3;" d="M750.806,1043.759c-4.625,5.935-9.305,11.615-12.47,17.825
			c-3.117,6.471-8.849,14.223-10.534,20.706"/>
		<path style="fill:none;stroke:#FF0050;stroke-width:3;" d="M802.415,1188.434c-12.634-6.814-24.381-17.501-34.424-27.239
			c0.255-0.354,0.45-1.004,0.695-1.363"/>
		<path style="fill:none;stroke:#FF0050;stroke-width:3;" d="M783.282,1187.072c-4.438-4.192-12.854-9.874-18.4-15.118
			c-5.548-5.245-12.156-11.238-16.8-16.635"/>
		<path style="fill:none;stroke:#FF0050;stroke-width:3;" d="M765.646,1183.599c-0.999,1.409-33.733-28.602-36.966-33.006"/>
		<path style="fill:none;stroke:#FF0050;stroke-width:3;" d="M908.98,1012.617c-13.17-2.046-26.083,0.297-38.803,2.383"/>
		<path style="fill:none;stroke:#FF0050;stroke-width:3;" d="M885.181,1007.885c-2.97,3.47-5.632,7.173-7.984,11.097"/>
		<path style="fill:none;stroke:#FF0050;stroke-width:3;" d="M986.773,1010.907c-24.236-12.65-54.274-16.015-81-16.186
			c-18.424-0.156-35.404,1.404-52.902,5.915"/>
		<path style="fill:none;stroke:#FF0050;stroke-width:3;" d="M764.889,1022.761c-0.188-3.581,0.565-6.316,2.213-9.098"/>
		<path style="fill:none;stroke:#FF0050;stroke-width:3;" d="M729.016,1023.743c-0.187-3.58,0.567-6.316,2.219-9.094"/>
		<path style="fill:none;stroke:#FF0050;stroke-width:3;" d="M801.375,1016.36c1.744-0.991,3.393-3.771,3.298-5.562"/>
		<path style="fill:none;stroke:#FF0050;stroke-width:3;" d="M855.548,1081.774c-41.719,0.84-86.057,28.758-121.346,49.466"/>
		<path style="fill:none;stroke:#FF0050;stroke-width:3;" d="M1198.938,1132.976c-7.882-4.059-15.527-3.658-23.913-5.137
			c-9.059-2.078-14.419-6.911-22.335-11.608c-13.816-7.585-29.51-14.433-44.505-20.034"/>
	</g>
	<path style="fill:none;stroke:#17192D;stroke-width:3;" d="M2048,0"/>
	<path style="fill:none;stroke:#17192D;stroke-width:3;" d="M2048,1536"/>
	<path style="fill:none;stroke:#17192D;stroke-width:3;" d="M0,1536"/>
	<path style="fill:none;stroke:#17192D;stroke-width:3;" d="M0,0"/>
</g>
<g id="Layer_1">
</g>
</svg>
