<svg xmlns="http://www.w3.org/2000/svg" width="2048" height="1536" viewBox="0 0 2048 1536"><g fill="none" stroke-width="3"><g stroke="#FF0050"><path d="M323.535 591.57c-2.772-.767-6.402-.575-9.125-.433M333.29 569.21c-2.868-2.58-6.64-5.114-10.32-5.828M329.27 614.03c-18.924 3.723-38.134 1.997-52.51-11.814-15.335-14.67-14.52-33.833-23.645-51.56-18.293-36.372-63.203-59.508-71.747-100.937-1.383-9.03-3.052-23.51 2.97-30.2M349.065 540.164c.96.858 1.914 1.72 2.868 2.58-24.988-7.794-36.26-31.784-50.066-52.002-11.796-16.675-32.72-33.787-32.048-55.67M269.592 433.156c1.093.303 3.726-3.22 4.462-4.938 1.46-3.424.81-4.146 4.9-5.27 4.018-1.103 13.057-2.122 15.1-6.764 2.642-6.015-6.638-11.025-10.753-12.53-5.52-2.016-12.023-1.542-16.85 1.708l.23-.02M214.223 409.18c.347-3.268 3.7-10.34.11-13.538-3.758-3.357-11.11 1.206-12.558 4.73-.888 2.164-.352 5.444-1.785 7.403-.938 1.29-4.447 3.27-5.967 4.215-3.524 2.194-10.106 4.545-9.275 9.993M213.857 422.998c-.54.988-1.24 4.956-1.812 6.998M223.426 425.405c.356-.708 1.077 2.96 1.314 4.29M234.785 427.352c1.37 1.456 1.908 3.89 1.77 6.084M250.835 435.59c2.165.642 3.085 6.316 3.01 8.924M288.145 496.104c-2.8-1.092-6.188-6.328-8.16-8.646-2.29-2.685-4.383-5.455-6.782-8.095-3.96-4.36-7.274-11.726-11.796-15.27M269.6 488.72c-2.05-.51-4.21-5.31-5.83-7.332-2.042-2.562-4.514-4.71-6.475-7.364-2.033-2.76-5.84-11.31-7.63-12.22M253.282 482.314c-1.503-3.995-3.867-8.012-6.15-11.665-2.23-3.567-3.815-8.092-5.95-11.313M237.766 477.313c2.33-2.325-4.26-9.618-5.636-12.132-1.887-3.437-3.95-7.936-5.052-11.638M252.53 420.896c2.254.5 5.14-2.77 6.467-4.3 1.795-2.054 1.835-3.808 2.31-6.26.502-2.603 2.962-2.81 4.66-4.598 1.595-1.68 2.892-3.883 3.27-6.213.574-3.59-3.58-6.992-6.983-7.507-2.445-.367-4.328.337-6.485 1.34-1.25.575-4.423 1.978-4.798 3.463M239.846 416.29c.115.12.1.24.3.294 2.813-1.963 3.93-4.605 4.28-7.857.282-2.626 2.29-4.266 3.73-6.33 1.465-2.103 2.71-4.074 1.84-6.692-.94-2.844-3.436-3.362-6.143-3.482-3.91-.165-8.64 2.098-11.15 5.12M226.5 410.258c.83-.976 1.52-1.47 2.09-2.715.475-1.044.685-2.11 1.303-3.145 1.284-2.157 2.922-4.4 3.442-6.915 1.107-5.328-5.945-7.755-10.03-6.24-2.238.834-4.153 2.674-5.615 4.543"/></g><path d="M2048 0M2048 1536M0 1536M0 0" stroke="#17192D"/></g></svg>