<svg xmlns="http://www.w3.org/2000/svg" width="2048" height="1536" viewBox="0 0 2048 1536"><g fill="none" stroke-width="3"><g stroke="#FF0050"><path d="M1222.28 1125.848c9.276-29.28 2.612-76.925-7.877-105.03M1145.427 1064.307c-.836-16.248 13.866-48.178 27-59.367M1210.014 1026.913c9.28-29.28 14.273-58.863 17.79-89.018 2.106-15.108 4.217-30.22 4.92-45.193.74-7.168.002-14.908.036-22.014-.468-4.928-.71-14.84-.006-14.912M1244.42 846.33c-1.645 11.026-6.18 21-9.523 31.965M1169.143 970.462c-1.608-16.882-.402-34.037 2.274-50.62.472-9.983 1.71-19.33 3.652-28.75.232-4.988 1.337-15.745 3.582-14.538"/></g><path d="M2048 0M2048 1536M0 1536M0 0" stroke="#17192D"/></g></svg>