<svg xmlns="http://www.w3.org/2000/svg" width="2048" height="1536" viewBox="0 0 2048 1536"><g fill="none" stroke-width="3"><g stroke="#FF0050"><path d="M728.034 736.062c-7.552 12.23-8.512 28.668-12.336 42.524-7.173 19.495-11.57 39.752-14.157 59.918-7.705 44.102-15.215 91.834-34.91 132.926-1.627 3.727-4.112 8.406-5.738 12.135M476.848 940.524c-7.01 6.192-15.413 14.562-18.487 21.752M568.638 717.104c-3.587 1.1-19.41 29.24-23.617 35.83-13.52 19.83-23.37 40.375-33.173 61.825-15.345 37.22-28.063 72.48-34.185 111.947M727.033 734.294c1.438-24.654 20.177-49.31 11.345-78.89-2.81-9.008-7.063-16.898-12.404-23.734M586.038 684.327c-3.393 4.73-6.787 9.458-9.272 14.142M685.505 758.32l.43 8.168M672.557 754.45c-2.533 3.77-5.974 7.59-8.507 11.368M689.72 734.428c-1.58 4.634-2.298 8.313-2.968 12.9M589.324 740.093c-2.926 12.726-24.145 53.35-37.728 68.43"/></g><path d="M2048 0M2048 1536M0 1536M0 0" stroke="#17192D"/></g></svg>