<svg xmlns="http://www.w3.org/2000/svg" width="2048" height="1536" viewBox="0 0 2048 1536"><g fill="none" stroke-width="3"><g stroke="#FF0050"><path d="M1533.84 799.845c-.242 1.267-.805 2.553-1.05 3.82-23.17 1.217-45.524-.127-68.53-1.746M1535.034 762.683c-.1-1.882-.212-4.072-.312-5.947-9.097.157-18.023-2.512-27.073-1.41M1399.71 744.345c-7.825.408-16.047-.73-23.548-.022-.507 2.224-.725 4.12-.608 6.31M1520.182 755.568c5.335.033.955-14.285-2.9-17.757-4.48-4.03-10.55-6.04-16.2-6.058-10.678-.07-15.75 1.453-23.956 6.594M1452.49 735.555c6.33-5.04 9.84-9.934 18.64-9.767 5.34.037 13.624 2.426 16.988 6.646M1428.598 734.923c5.72-4.692 8.324-8.91 16.1-10.26 3.74-.51 14.784.48 15.274 3.91M1433.527 729.52c-.336.02-10.003-4.523-14-3.642-9.668 1.852-22.913 19.053-28.57 26.763-1.01.054-2.705-.197-3.412-.834M1406.736 808.398c-2.907.405-5.52.04-8.438-1.315.003.084.096.248.1.332M1467.113 742.033c.243.083.426.313.67.383-1.96-3.772-5.1-4.395-8.85-4.847M1497.415 748.695c-3.453-3.433-6.25-6.557-12.188-5.168M1444.703 740.15c-1.696-1.804-4.502-2.802-6.595-3.32M1419.772 736.873c-.853-.796-4.954-.677-6.77-.868M1389.447 763.72c.09-1.277.22-2.48 1.06-3.11M1507.778 752.694c-1.963 2.396-3.163 4.394-5.77 6.217-2.526 1.76-6.19 1.97-7.95 4.24-2.387 3.077-4.45 6.606-6.63 9.88-2.21 3.325-5.026 11.422-8.198 13.858-3.41 2.622-6.935 5.43-10.524 7.757-2.043 1.318-2.5 2.035-3.8 4.2-1.037 1.733-2.304 2.992-3.95 3.69M1493.544 805.22c-1.517.324-3.396 5.964-5.15 7.373-2.75 2.2-6.72 3.236-9.868 4.534-5.96 2.456-10.98 7.543-17.073 9.48-6.417 2.04-13.427-1.23-19.42-2.852-6.435-1.745-12.977-3.303-19.412-5.23-3.214-.965-5.92-2.303-8.63-4.316-2.435-1.817-4.796-5.318-7.325-6.57-.163-.35.042-.438.117-.737M1461.665 805.17c-2.452-1.602-3.66-3.49-5.63-5.43M1413.627 751.716c-1.582.36-6.523 3.71-7.357 5.348M1432.23 753.41c.866 1.2-6.582 5.727-7.635 6.514-2.072 1.547-4.382 4.276-6.83 5.123M1456.152 761.89c-1.558.66-2.988 2.358-4.537 3.296-1.926 1.158-3.857 2.32-5.738 3.54-1.762 1.143-3.51 2.34-5.26 3.468-1.602 1.028-3.988 1.658-5.336 3.008M1532.455 796.825c.736.096 1.42.173 2.027.228 38.806 1.466 75.136 5.257 113.846 8.27 72.653 7.593 150.02 1.997 219.71 19.667-16.686-44.13-62.45-71.15-109.77-73.373-31.853-.704-67.06 2.196-99.838 3.82-32.048 2.395-60.3 6.604-92.345 9-10.1.394-20.97 1.503-31.61 2.727M1535.837 767.57c-5.415 7.302-5.675 19.822-1.725 28.314M1530.262 788.826l312.017 22.535"/></g><path d="M2048 0M2048 1536M0 1536M0 0" stroke="#17192D"/></g></svg>