<svg xmlns="http://www.w3.org/2000/svg" width="2048" height="1536" viewBox="0 0 2048 1536"><g fill="none" stroke-width="3"><g stroke="#FF0050"><path d="M725.974 631.67c-19.618-25.112-53.922-35.994-85.395-35.774-4.54.237-11.803.618-13.667-.194M563.146 716.48c-26.473-1.34-66.27-13.822-90.733-28.926-18.775-10.85-33.346-28.295-52.986-38.19-16.863-9.133-36.166-12.67-53.847-19.94-8.36-3.2-16.77-7.31-24.223-10.565M625.1 595.796c-16.343.855-34.976-7.27-50.6-10.093-18.397-3.588-36.075-10.854-55.378-14.396-36.746-6.266-73.773-17.983-110.472-23.34-17.438-2.73-42.094-4.17-55.138-9.858M497.52 633.542c-19.89-2.55-41.29.367-60.806 4.985"/></g><path d="M2048 0M2048 1536M0 1536M0 0" stroke="#17192D"/></g></svg>