<svg xmlns="http://www.w3.org/2000/svg" width="2048" height="1536" viewBox="0 0 2048 1536"><g fill="none" stroke-width="3"><g stroke="#FF0050"><path d="M1209.75 1284.72c-.914-2.6-9.46-29.024-10.226-35.645-3.81-21.985 1.122-40.66 12.53-59.21M1251.285 1227.884c-4.728-27.696 10.282-51.22 23.04-72.326M1375.02 993.534c1.853 1.504 2.324 6.64 3.06 8.908.984 3.032 1.81 5.773 2.353 8.834.502 2.872 1.33 19.775-4.467 12.54-3.682-4.583-4.003-13.878-4.463-19.226-.233-2.816-.697-6.002-.058-8.84.557-2.49 2.805-5.943 4.746-2.027M1358.348 992.394c.717 5.738-2.364 13.678-3.61 19.48-.56 2.597-5.61 15.34-8.78 9.4-2.673-5.005 5.937-29.542 11.53-28.953-.142.54.173.5.34.792M1372.786 982.722c-.55-3.43-1.595-14.588-8.356-12.624-5.38 1.562.797 9.575-.148 13.602 1.502-2.717-2.98-16.812-6.96-16.77-4.28.05-1.413 12.384.337 15.185.123-3.715-2.19-14.092-7.253-14.26-1.394 5.586.272 11.7 1.59 16.948-.07-3.72-7.464-20.976-8.775-10.243-.77 6.285 4.236 11.39 2.623 18.18M1217.238 1182.46c-.617-.455 1.383-4.242 2.103-6.528.222-1.335.935-7.744 1.89-5.183M1365.74 987.468c-16.523-22.635-36.118 40.07-39.892 50.438-10.794 30.16-25.723 58.264-37.48 87.918-2.437 6.468-3.693 16.223-8.026 21.688M1331.504 1299.814c8.938-14.665 24.12-27.62 27.76-45.562.674.11.226.72.173 1.06M1362.823 1249.342M1365.264 1244.938c8.72-11.27 14.27-24.095 14.91-38.412.207-5.46-6.217-41.543-8.39-40.874M1367.974 986.458c4.882-8.808 11.1 3.55 12.262 4.766M1372.4 1166.102c2.64-16.05 3.612-32.374 6.31-48.755 2.59-15.717 4.786-31.154 7.37-46.865 2.363-14.377 3.334-28.64 4.648-42.848 1.146-13.2-5.954-24.328-9.374-36.907M1340.814 1205.735c.194-7.068 1.037-14.215 3.15-20.746 1.656-4.8 3.075-10.182 5.942-14.464 1.327-2.16 3.738-4.35 6.14-5.146 2.958-.918 4.662 1.2 6.246 3.408 3.354 4.544 3.784 10.448 5.08 15.735 1.167 5.372 2.627 10.267 2.276 15.714-.384 5.552-.626 11.02-1.302 16.424-.562 4.444-1.366 9.562-3.148 13.853M1260.337 1219.954c.2-3.07.674-6.158.96-9.146 1.086-9.866 4.04-19.966 8.225-28.996 2.026-4.42 4.1-9.156 6.74-13.36 2.495-4.02 6.92-9.232 11.26-11.323 2.117-1.058 5.932-1.945 7.988-.635 2.158 1.326 4.267 4.917 5.075 7.208 1.714 4.712 2.69 9.947 2.837 14.943.077 9.434-2.392 18.675-5.776 27.42M1306.69 1161.495c1.38-2.977.214-8.074-1.103-10.718-1.665-3.597-4.105-6.174-6.63-8.137M1363.908 1150.025c-2.346-.826-6.247 1.374-8.166 2.633-3.19 1.948-7.264 4.95-8.236 8.735M1328.99 1302.555c-5.713 6.522-1.43 17.898.944 27.12 10.835 32.15 15.69 49.463 17.682 57.61 8.34 31.525 17.166 67.446 15.16 99.607-1.024 6.05-4.812 15.237-7.692 20.724M1250.02 1516.17c-35.8-30.463-27.45-84.21-26.51-125.964.74-18.977 2.546-39.424 1.984-57.847-.095-7.562.792-16.586-.632-23.602-1.363-7.477-9.312-13.805-12.355-20.225 0 0-.03.47-.53 1.443M1355.314 1508.358c-34.245-16.148-40.89-49.86-50.668-78.553-1.192-3.627-1.43-7.16-2.43-10.818-2.13-7.877-3.147-15.78-5.11-23.653-3.538-14.563-5.99-29.442-8.815-44.066-1.19-6.33-2.122-12.767-3.26-19.06-.76-4.244-2.34-9.18-2.59-13.09M1267.25 1313.626c.684 8.868 2.547 17.504 2.687 26.76.08 4.793.092 9.375.645 14.057 3.212 25.973 3.022 52.777 3.773 79.043.513 16.434-.213 30.654-4.953 46.44-4.52 13.895-12.536 26.698-18.628 39.823M1315.555 1308.33c7.61 25.857 14.116 53.686 21.914 78.257 4.894 15.422 7.455 31.762 11.417 47.595 4.084 15.84 4.63 30.18 4.524 45.693-.33 3.908-1.95 8.294-3.55 12.064-5.292-4.406-8.62-11.22-12.21-16.613-3.61-5.66-7.652-10.71-9.78-16.79-4.978-14.817-8.407-29.784-12.01-44.7-6.42-27.116-13.772-53.983-19.374-80.723-1.53-7.123-2.615-14.857-4.23-21.132M1259.912 1315.57c3.533 25.923 3.67 50.812 2.73 77.267-.543 15.453.898 31.203.975 46.678.102 15.473-3.013 29.042-7.167 43.63-1.362 3.636-2.136 7.81-4.737 11.148-4.094-4.817-5.61-11.66-7.762-17.207-2.11-5.803-4.815-11.097-5.364-17.122-1.19-14.663-.88-29.29-.822-43.918.035-26.638-1.14-53.262-.863-79.6 0-7.037.544-14.596.253-20.85M1282.738 1318.39c-2.27-.926-9.638.553-12.367.845M1240.204 1307.652c-1.578 8.288-3.628 16.113-2.47 24.265M1309.534 1310.404c-5.413 3.364-9.155 5.953-14.99 6.893M1297.136 1325.786c2.405.54 5.26-.33 7.777-.73M1306.347 1331.285c-3.194.495-5.94.923-8.826.38M1305.373 1319.027c-3 1.47-6.156 1.973-9.313 2.475M1237.195 1334.842c.858 2.286 6.193 1.513 8.372.58M1252.223 1319.61c-4.584 1.193-9.182 2.387-13.77 2.614M1238.68 1331.388c1.955.668 4.285.277 6.486.18M1250.336 1325.028c-3.68.18-8.298.888-11.04.055M1363.92 1229.204c-7.54-3.993-14.64-16.414-21.735-22.182M1297.378 1206.132c-10.646 3.994-23.955 12.868-34.602 13.755M1297.822 1215.005c-1.332 7.542-15.083 21.293-20.406 30.168M1337.305 1218.998c1.33 6.653 1.33 19.962 5.767 26.617"/></g><path d="M2048 0M2048 1536M0 1536M0 0" stroke="#17192D"/></g></svg>