<?xml version="1.0" encoding="iso-8859-1"?>
<!-- Generator: Adobe Illustrator 15.1.0, SVG Export Plug-In . SVG Version: 6.00 Build 0)  -->
<!DOCTYPE svg PUBLIC "-//W3C//DTD SVG 1.1//EN" "http://www.w3.org/Graphics/SVG/1.1/DTD/svg11.dtd">
<svg version="1.1" xmlns="http://www.w3.org/2000/svg" xmlns:xlink="http://www.w3.org/1999/xlink" x="0px" y="0px" width="2048px"
	 height="1536px" viewBox="0 0 2048 1536" style="enable-background:new 0 0 2048 1536;" xml:space="preserve">
<g id="c2b_x5F_wade_x5F_v">
	<g>
		<path style="fill:none;stroke:#FF0050;stroke-width:3;" d="M725.974,631.67c-19.618-25.112-53.922-35.994-85.395-35.774
			c-4.54,0.237-11.802,0.618-13.666-0.194"/>
		<path style="fill:none;stroke:#FF0050;stroke-width:3;" d="M563.146,716.481c-26.473-1.341-66.271-13.823-90.733-28.927
			c-18.775-10.85-33.346-28.295-52.986-38.191c-16.863-9.132-36.166-12.669-53.847-19.939c-8.359-3.201-16.769-7.31-24.223-10.565"
			/>
		<path style="fill:none;stroke:#FF0050;stroke-width:3;" d="M625.1,595.796c-16.343,0.855-34.976-7.271-50.601-10.093
			c-18.396-3.588-36.074-10.854-55.377-14.396c-36.746-6.266-73.773-17.983-110.472-23.341c-17.438-2.729-42.094-4.168-55.138-9.857
			"/>
		<path style="fill:none;stroke:#FF0050;stroke-width:3;" d="M497.521,633.542c-19.89-2.55-41.29,0.367-60.807,4.985"/>
	</g>
	<path style="fill:none;stroke:#17192D;stroke-width:3;" d="M2048,0"/>
	<path style="fill:none;stroke:#17192D;stroke-width:3;" d="M2048,1536"/>
	<path style="fill:none;stroke:#17192D;stroke-width:3;" d="M0,1536"/>
	<path style="fill:none;stroke:#17192D;stroke-width:3;" d="M0,0"/>
</g>
<g id="Layer_1">
</g>
</svg>
