<svg xmlns="http://www.w3.org/2000/svg" width="2048" height="1536" viewBox="0 0 2048 1536"><g fill="none" stroke-width="3"><g stroke="#FF0050"><path d="M1286.427 1127.226c-3.186-3.617-14.077-18.795-13.302-21.425M1223.045 1159.716c.58-16.046 9.018-31.824 11.603-47.54 2.59-15.714 7.17-31.094 11.77-46.48 1.66-5.91 2.364-16.442 5.968-21.684 1.838-2.792 6.68-5.077 9.123-7.427 2.894-2.952 5.448-5.97 8.006-8.982 12.06-12.78 24.124-25.562 36.687-37.232 12.514-11.328 24.865-19.597 42.41-19.802M1273.797 1105.91c.355-16.765 5.38-34.823 10.365-50.49 1.994-5.846 3.03-14.26 5.975-19.62 3.833-6.58 12.4-12.72 17.79-18.353 11.566-11.837 21.395-27.736 34.355-37.622"/></g><path d="M2048 0M2048 1536M0 1536M0 0" stroke="#17192D"/></g></svg>