<?xml version="1.0" encoding="iso-8859-1"?>
<!-- Generator: Adobe Illustrator 15.1.0, SVG Export Plug-In . SVG Version: 6.00 Build 0)  -->
<!DOCTYPE svg PUBLIC "-//W3C//DTD SVG 1.1//EN" "http://www.w3.org/Graphics/SVG/1.1/DTD/svg11.dtd">
<svg version="1.1" xmlns="http://www.w3.org/2000/svg" xmlns:xlink="http://www.w3.org/1999/xlink" x="0px" y="0px" width="2048px"
	 height="1536px" viewBox="0 0 2048 1536" style="enable-background:new 0 0 2048 1536;" xml:space="preserve">
<g id="c2b_x5F_kopf">
	<g>
		<path style="fill:none;stroke:#FF0050;stroke-width:3;" d="M1209.749,1284.72c-0.913-2.6-9.458-29.024-10.225-35.645
			c-3.81-21.985,1.122-40.661,12.529-59.209"/>
		<path style="fill:none;stroke:#FF0050;stroke-width:3;" d="M1251.285,1227.884c-4.728-27.696,10.282-51.22,23.04-72.326"/>
		<path style="fill:none;stroke:#FF0050;stroke-width:3;" d="M1375.021,993.534c1.852,1.504,2.323,6.641,3.059,8.908
			c0.984,3.032,1.809,5.773,2.353,8.834c0.502,2.872,1.329,19.775-4.467,12.541c-3.682-4.584-4.003-13.879-4.463-19.227
			c-0.233-2.816-0.697-6.002-0.058-8.84c0.557-2.491,2.805-5.943,4.746-2.027"/>
		<path style="fill:none;stroke:#FF0050;stroke-width:3;" d="M1358.348,992.394c0.717,5.738-2.364,13.678-3.611,19.479
			c-0.559,2.598-5.61,15.34-8.78,9.402c-2.672-5.006,5.938-29.543,11.531-28.954c-0.142,0.54,0.173,0.499,0.339,0.791"/>
		<path style="fill:none;stroke:#FF0050;stroke-width:3;" d="M1372.786,982.722c-0.549-3.429-1.595-14.588-8.356-12.624
			c-5.379,1.562,0.797,9.575-0.148,13.602c1.502-2.717-2.98-16.812-6.96-16.771c-4.279,0.052-1.413,12.385,0.337,15.186
			c0.124-3.715-2.188-14.092-7.252-14.259c-1.394,5.585,0.272,11.7,1.591,16.947c-0.071-3.721-7.465-20.976-8.776-10.243
			c-0.771,6.285,4.236,11.391,2.623,18.181"/>
		<path style="fill:none;stroke:#FF0050;stroke-width:3;" d="M1217.238,1182.46c-0.617-0.455,1.383-4.242,2.103-6.528
			c0.221-1.335,0.934-7.744,1.888-5.183"/>
		<path style="fill:none;stroke:#FF0050;stroke-width:3;" d="M1365.741,987.468c-16.524-22.635-36.119,40.07-39.893,50.438
			c-10.794,30.159-25.723,58.264-37.479,87.918c-2.438,6.468-3.694,16.223-8.027,21.688"/>
		<path style="fill:none;stroke:#FF0050;stroke-width:3;" d="M1331.504,1299.814c8.938-14.665,24.119-27.62,27.76-45.562
			c0.674,0.11,0.226,0.72,0.173,1.059"/>
		<path style="fill:none;stroke:#FF0050;stroke-width:3;" d="M1362.823,1249.342"/>
		<path style="fill:none;stroke:#FF0050;stroke-width:3;" d="M1365.264,1244.938c8.719-11.271,14.271-24.095,14.91-38.412
			c0.207-5.46-6.217-41.543-8.389-40.874l0,0"/>
		<path style="fill:none;stroke:#FF0050;stroke-width:3;" d="M1367.974,986.458c4.882-8.808,11.099,3.549,12.262,4.766"/>
		<path style="fill:none;stroke:#FF0050;stroke-width:3;" d="M1372.4,1166.102c2.641-16.049,3.612-32.374,6.309-48.755
			c2.591-15.717,4.787-31.154,7.371-46.865c2.363-14.377,3.334-28.639,4.648-42.848c1.146-13.201-5.954-24.328-9.374-36.907"/>
		<path style="fill:none;stroke:#FF0050;stroke-width:3;" d="M1340.814,1205.735c0.194-7.068,1.037-14.215,3.15-20.746
			c1.656-4.799,3.075-10.181,5.942-14.463c1.327-2.161,3.738-4.35,6.141-5.146c2.957-0.918,4.661,1.199,6.245,3.408
			c3.354,4.544,3.784,10.448,5.081,15.735c1.166,5.372,2.626,10.267,2.275,15.714c-0.384,5.552-0.626,11.021-1.302,16.424
			c-0.562,4.443-1.366,9.561-3.148,13.852"/>
		<path style="fill:none;stroke:#FF0050;stroke-width:3;" d="M1260.337,1219.954c0.199-3.069,0.674-6.158,0.96-9.146
			c1.086-9.866,4.039-19.966,8.225-28.996c2.026-4.421,4.101-9.156,6.739-13.359c2.496-4.02,6.92-9.233,11.261-11.324
			c2.117-1.057,5.932-1.944,7.988-0.634c2.158,1.326,4.267,4.917,5.075,7.208c1.714,4.712,2.69,9.947,2.837,14.943
			c0.077,9.434-2.392,18.675-5.776,27.42"/>
		<path style="fill:none;stroke:#FF0050;stroke-width:3;" d="M1306.691,1161.495c1.378-2.977,0.213-8.074-1.104-10.718
			c-1.665-3.597-4.105-6.174-6.631-8.137"/>
		<path style="fill:none;stroke:#FF0050;stroke-width:3;" d="M1363.908,1150.025c-2.346-0.826-6.247,1.374-8.166,2.633
			c-3.19,1.948-7.264,4.949-8.236,8.735"/>
		<path style="fill:none;stroke:#FF0050;stroke-width:3;" d="M1328.989,1302.555c-5.712,6.522-1.429,17.898,0.945,27.119
			c10.835,32.15,15.691,49.464,17.682,57.612c8.34,31.524,17.166,67.445,15.159,99.606c-1.023,6.049-4.811,15.237-7.691,20.724"/>
		<path style="fill:none;stroke:#FF0050;stroke-width:3;" d="M1250.021,1516.17c-35.8-30.463-27.451-84.21-26.51-125.964
			c0.738-18.977,2.545-39.424,1.983-57.847c-0.095-7.561,0.792-16.585-0.632-23.601c-1.363-7.477-9.312-13.805-12.355-20.225
			c0,0-0.03,0.471-0.529,1.443"/>
		<path style="fill:none;stroke:#FF0050;stroke-width:3;" d="M1355.314,1508.358c-34.245-16.148-40.889-49.861-50.668-78.553
			c-1.192-3.627-1.43-7.159-2.429-10.818c-2.132-7.877-3.148-15.779-5.11-23.653c-3.539-14.563-5.99-29.442-8.816-44.066
			c-1.192-6.329-2.123-12.767-3.262-19.06c-0.76-4.244-2.339-9.18-2.588-13.091"/>
		<path style="fill:none;stroke:#FF0050;stroke-width:3;" d="M1267.249,1313.626c0.685,8.868,2.548,17.504,2.688,26.76
			c0.079,4.793,0.092,9.375,0.645,14.057c3.212,25.973,3.022,52.777,3.773,79.043c0.513,16.434-0.213,30.654-4.953,46.439
			c-4.521,13.896-12.536,26.699-18.628,39.824"/>
		<path style="fill:none;stroke:#FF0050;stroke-width:3;" d="M1315.555,1308.331c7.61,25.856,14.116,53.685,21.914,78.256
			c4.895,15.422,7.456,31.762,11.418,47.595c4.084,15.839,4.631,30.18,4.524,45.693c-0.331,3.908-1.952,8.294-3.551,12.064
			c-5.292-4.405-8.62-11.218-12.21-16.612c-3.61-5.66-7.652-10.711-9.779-16.791c-4.979-14.816-8.408-29.783-12.01-44.699
			c-6.421-27.116-13.773-53.983-19.375-80.723c-1.53-7.123-2.615-14.857-4.229-21.132"/>
		<path style="fill:none;stroke:#FF0050;stroke-width:3;" d="M1259.912,1315.571c3.533,25.922,3.669,50.811,2.729,77.266
			c-0.542,15.453,0.899,31.203,0.976,46.678c0.102,15.473-3.013,29.042-7.167,43.63c-1.362,3.636-2.136,7.809-4.737,11.148
			c-4.094-4.817-5.609-11.659-7.762-17.207c-2.111-5.803-4.816-11.097-5.365-17.122c-1.191-14.663-0.879-29.289-0.822-43.918
			c0.035-26.638-1.141-53.262-0.863-79.601c0-7.036,0.543-14.595,0.252-20.849"/>
		<path style="fill:none;stroke:#FF0050;stroke-width:3;" d="M1282.738,1318.391c-2.271-0.927-9.638,0.552-12.367,0.844"/>
		<path style="fill:none;stroke:#FF0050;stroke-width:3;" d="M1240.204,1307.652c-1.578,8.288-3.628,16.113-2.47,24.265"/>
		<path style="fill:none;stroke:#FF0050;stroke-width:3;" d="M1309.534,1310.404c-5.413,3.364-9.155,5.953-14.989,6.893"/>
		<path style="fill:none;stroke:#FF0050;stroke-width:3;" d="M1297.136,1325.786c2.405,0.539,5.261-0.33,7.777-0.729"/>
		<path style="fill:none;stroke:#FF0050;stroke-width:3;" d="M1306.347,1331.285c-3.194,0.495-5.94,0.923-8.826,0.38"/>
		<path style="fill:none;stroke:#FF0050;stroke-width:3;" d="M1305.373,1319.027c-3,1.47-6.156,1.973-9.313,2.475"/>
		<path style="fill:none;stroke:#FF0050;stroke-width:3;" d="M1237.195,1334.842c0.858,2.286,6.193,1.513,8.372,0.579"/>
		<path style="fill:none;stroke:#FF0050;stroke-width:3;" d="M1252.223,1319.61c-4.584,1.193-9.182,2.387-13.769,2.614"/>
		<path style="fill:none;stroke:#FF0050;stroke-width:3;" d="M1238.679,1331.388c1.956,0.668,4.286,0.277,6.487,0.18"/>
		<path style="fill:none;stroke:#FF0050;stroke-width:3;" d="M1250.336,1325.028c-3.681,0.181-8.298,0.888-11.04,0.055"/>
		<path style="fill:none;stroke:#FF0050;stroke-width:3;" d="M1363.921,1229.204c-7.541-3.993-14.64-16.414-21.736-22.182"/>
		<path style="fill:none;stroke:#FF0050;stroke-width:3;" d="M1297.378,1206.132c-10.646,3.994-23.955,12.868-34.602,13.755"/>
		<path style="fill:none;stroke:#FF0050;stroke-width:3;" d="M1297.822,1215.005c-1.332,7.542-15.083,21.293-20.406,30.168"/>
		<path style="fill:none;stroke:#FF0050;stroke-width:3;" d="M1337.305,1218.998c1.33,6.653,1.33,19.962,5.767,26.617"/>
	</g>
	<path style="fill:none;stroke:#17192D;stroke-width:3;" d="M2048,0"/>
	<path style="fill:none;stroke:#17192D;stroke-width:3;" d="M2048,1536"/>
	<path style="fill:none;stroke:#17192D;stroke-width:3;" d="M0,1536"/>
	<path style="fill:none;stroke:#17192D;stroke-width:3;" d="M0,0"/>
</g>
<g id="Layer_1">
</g>
</svg>
