<svg xmlns="http://www.w3.org/2000/svg" width="2048" height="1536" viewBox="0 0 2048 1536"><g fill="none" stroke="#17192D" stroke-width="3"><path d="M590.03 737.007c-25.494 39.542-36.91 92.513-46.213 137.415-5.16 25.328-14 40.425-26.095 63.623-10.976 22.02-4.816 40.213-10.033 63.25M672.652 856.148c-13.767 10.312-29.833 11.46-42.458 22.917-12.62 10.31-21.803 24.055-27.54 38.948-11.475 27.493-16.062 64.154-47.048 75.61M503.97 1002.79c-14.917 4.58-20.655 29.784 4.59 30.932 21.802 1.144 34.424-22.915 43.604-38.953M595.77 830.945c4.594 3.44 9.18 4.584 14.918 4.584M594.622 772.52c-2.293 2.293-3.442 4.584-5.735 5.73M554.524 988.71c-.27 2.938-2.956 4.546-3.486 7.224M513.22 999.42c-.537-2.414 5.365-9.643 7.242-11.52 2.414-2.676 4.827-2.406 7.507-4.28 2.415-1.875 2.683-5.357 5.367-6.962M524.753 974.783c-5.632-.27-10.998 9.64-12.07 14.193M521.27 968.894c-4.024-1.074-11 4.82-12.34 8.567M517.778 957.113c-3.753 2.14-6.973 5.353-7.51 9.903M555.327 947.473c-4.29-1.604-9.12 2.94-10.996 6.69M592.34 933.548c0 2.946.535 6.695.807 9.91M605.21 885.623c-3.484 3.748-5.363 9.102-6.97 13.654M2048 0M2048 1536M0 1536M0 0"/></g></svg>