<?xml version="1.0" encoding="iso-8859-1"?>
<!-- Generator: Adobe Illustrator 15.1.0, SVG Export Plug-In . SVG Version: 6.00 Build 0)  -->
<!DOCTYPE svg PUBLIC "-//W3C//DTD SVG 1.1//EN" "http://www.w3.org/Graphics/SVG/1.1/DTD/svg11.dtd">
<svg version="1.1" xmlns="http://www.w3.org/2000/svg" xmlns:xlink="http://www.w3.org/1999/xlink" x="0px" y="0px" width="2048px"
	 height="1536px" viewBox="0 0 2048 1536" style="enable-background:new 0 0 2048 1536;" xml:space="preserve">
<g id="c3a_x5F_corpus">
	<g>
		<path style="fill:none;stroke:#17192D;stroke-width:3;" d="M1224.709,471.812c-25.157-21.524-51.507-26.311-83.853-28.698"/>
		<path style="fill:none;stroke:#17192D;stroke-width:3;" d="M1139.656,439.523c-22.76,2.394-44.323-14.348-67.079-17.937
			c-31.145-4.783-40.727,7.175-59.893,29.899c-39.527,44.243-77.857,89.687-116.189,135.128"/>
		<path style="fill:none;stroke:#17192D;stroke-width:3;" d="M943.211,897.533c22.758,16.742,39.529,41.855,64.682,57.399
			c23.958,15.548,51.505,25.114,73.067,46.641"/>
		<path style="fill:none;stroke:#17192D;stroke-width:3;" d="M1085.752,1032.664c5.992,4.785,3.595,21.525,3.595,31.098"/>
		<path style="fill:none;stroke:#17192D;stroke-width:3;" d="M1203.148,1070.932c-16.77,4.787-33.54,3.593-50.313,7.18
			c-27.552,5.979-74.269,25.114-100.621,13.153"/>
		<path style="fill:none;stroke:#17192D;stroke-width:3;" d="M944.408,986.024c33.541,39.467,52.702,93.282,105.409,101.655"/>
		<path style="fill:none;stroke:#17192D;stroke-width:3;" d="M1169.608,614.116c-13.182,16.744-19.17,44.249-9.587,63.384"/>
		<path style="fill:none;stroke:#17192D;stroke-width:3;" d="M1166.013,902.318c-2.398-5.981,0-11.959,7.189-13.158
			C1194.763,885.574,1176.795,921.448,1166.013,902.318"/>
		<path style="fill:none;stroke:#17192D;stroke-width:3;" d="M1166.013,649.993c-4.791-11.957,10.782-23.916,13.176-9.566
			c1.199,11.957-10.778,14.351-14.375,8.37"/>
		<path style="fill:none;stroke:#17192D;stroke-width:3;" d="M1174.397,898.731c-2.396-1.198-3.596-1.198-1.195-1.198"/>
		<path style="fill:none;stroke:#17192D;stroke-width:3;" d="M1172.002,642.817c1.2,0,1.2,0,0,1.196"/>
		<path style="fill:none;stroke:#17192D;stroke-width:3;" d="M955.188,764.795c-1.728-4.047-0.926-7.484,2.396-8.373"/>
		<path style="fill:none;stroke:#17192D;stroke-width:3;" d="M1207.938,581.829c-33.54,0-63.487,9.565-94.634,16.745"/>
		<path style="fill:none;stroke:#17192D;stroke-width:3;" d="M1096.535,934.604c-21.561-5.979-44.321-11.96-67.08-16.741"/>
		<path style="fill:none;stroke:#17192D;stroke-width:3;" d="M1116.896,596.181c-26.348-1.197-49.112,4.782-74.266,10.762"/>
		<path style="fill:none;stroke:#17192D;stroke-width:3;" d="M1027.06,917.863c-26.355,5.979-56.297-3.588-75.466-20.33"/>
		<path style="fill:none;stroke:#17192D;stroke-width:3;" d="M1039.039,608.139c-25.157-5.98-55.102,10.764-76.664,23.919"/>
		<path style="fill:none;stroke:#17192D;stroke-width:3;" d="M956.388,611.725c3.59,2.392,7.186,5.982,8.384,10.764"/>
		<path style="fill:none;stroke:#17192D;stroke-width:3;" d="M1049.817,858.07c-7.187,5.979-11.979,13.154-15.572,21.525"/>
		<path style="fill:none;stroke:#17192D;stroke-width:3;" d="M1046.224,669.13c2.396,9.563,8.39,17.936,15.571,23.914"/>
		<path style="fill:none;stroke:#17192D;stroke-width:3;" d="M1186.379,746.856c1.196,1.196,1.196,2.392,2.391,3.588"/>
		<path style="fill:none;stroke:#17192D;stroke-width:3;" d="M1394.8,632.058c-3.594,20.326-9.585,43.05-15.574,62.183"/>
		<path style="fill:none;stroke:#17192D;stroke-width:3;" d="M1370.845,855.679c0,14.352,8.381,31.091,16.769,41.854"/>
		<path style="fill:none;stroke:#17192D;stroke-width:3;" d="M1336.104,909.492c6.833-3.588,13.642-2.25,20.363-4.783"/>
		<path style="fill:none;stroke:#17192D;stroke-width:3;" d="M1349.281,881.985c2.395,5.981,4.792,10.767,8.383,14.352"/>
		<path style="fill:none;stroke:#17192D;stroke-width:3;" d="M1298.975,949.55c-8.384,5.979-23.959,10.766-34.738,10.766"/>
		<path style="fill:none;stroke:#17192D;stroke-width:3;" d="M1267.687,580.759c10.781,3.59,21.559,5.979,28.747,14.352"/>
		<path style="fill:none;stroke:#17192D;stroke-width:3;" d="M1370.845,557.915c3.591,9.568,1.194,19.132,0,28.699"/>
		<path style="fill:none;stroke:#17192D;stroke-width:3;" d="M1376.833,950.151c3.592,1.194,7.187,2.39,11.976,2.39"/>
		<path style="fill:none;stroke:#17192D;stroke-width:3;" d="M1247.468,1005.16c-7.189,3.588-10.782,14.35-14.376,21.527"/>
		<path style="fill:none;stroke:#17192D;stroke-width:3;" d="M1187.575,1037.449c-8.387,4.786-23.961,8.373-32.343,7.176"/>
		<path style="fill:none;stroke:#17192D;stroke-width:3;" d="M1164.813,482.574c5.988,0,15.574,3.587,20.363,8.371"/>
		<path style="fill:none;stroke:#17192D;stroke-width:3;" d="M1222.312,518.45c2.397,5.978,5.987,10.762,9.583,14.352"/>
		<path style="fill:none;stroke:#17192D;stroke-width:3;" d="M1205.541,755.228c-5.989-1.195-10.778-3.588-14.373-7.175"/>
		<path style="fill:none;stroke:#17192D;stroke-width:3;" d="M1205.541,783.931c-5.989,1.194-10.778,3.585-14.373,5.978"/>
		<path style="fill:none;stroke:#17192D;stroke-width:3;" d="M1226.829,966.112c4.285-1.832-14.686-0.612-16.52-0.612
			c-14.684,1.221-29.98,5.494-44.667,9.161c-27.534,6.111-56.907,16.493-81.379,29.931"/>
		<path style="fill:none;stroke:#17192D;stroke-width:3;" d="M1217.649,569.682c-17.741,0-44.664-1.833-64.855-6.721
			c-28.758-6.719-53.233-22.603-79.545-33.593c-0.609,0-0.609,0-0.609,0"/>
		<path style="fill:none;stroke:#17192D;stroke-width:3;" d="M1078.146,492.714c-5.506,2.443-11.014,6.721-15.299,10.998"/>
		<path style="fill:none;stroke:#17192D;stroke-width:3;" d="M1210.31,955.727c3.674,2.441,7.957,5.497,11.624,7.326"/>
		<path style="fill:none;stroke:#17192D;stroke-width:3;" d="M1228.054,568.456c-2.447,0.612-4.895,0.612-7.952,0.612"/>
		<path style="fill:none;stroke:#17192D;stroke-width:3;" d="M1209.088,581.285c2.445-5.5,15.296-8.551,22.026-8.551"/>
		<path style="fill:none;stroke:#17192D;stroke-width:3;" d="M1203.396,570.441c0.612-1.221,5.507,3.666,7.955,5.498"/>
		<path style="fill:none;stroke:#17192D;stroke-width:3;" d="M1202.971,961.224c2.445-0.611,4.893-1.835,7.339-3.058"/>
		<path style="fill:none;stroke:#17192D;stroke-width:3;" d="M1193.79,960.612c-30.591,1.22-66.696-17.712-93.618-28.098"/>
		<path style="fill:none;stroke:#17192D;stroke-width:3;" d="M1160.75,876.927c-6.117,16.495-0.612,35.431,3.67,50.698"/>
		<path style="fill:none;stroke:#17192D;stroke-width:3;" d="M1095.28,768.2c-5.511,1.222-11.014,0-15.908,1.222"/>
		<path style="fill:none;stroke:#17192D;stroke-width:3;" d="M956.388,749.873c9.791,6.111,1.835,17.712,0,26.881"/>
		<path style="fill:none;stroke:#17192D;stroke-width:3;" d="M993.1,784.692c0,4.278-1.223,8.552-3.061,12.215"/>
		<path style="fill:none;stroke:#17192D;stroke-width:3;" d="M988.207,722.387c1.224,3.665,1.832,7.328,1.832,10.994"/>
		<path style="fill:none;stroke:#17192D;stroke-width:3;" d="M1038.376,785.303c-0.61,4.886,0,9.777-3.058,14.048"/>
		<path style="fill:none;stroke:#17192D;stroke-width:3;" d="M1032.87,727.885c1.226,3.666,2.448,7.331,3.061,10.995"/>
		<path style="fill:none;stroke:#17192D;stroke-width:3;" d="M947.495,863.148c-5.859-1.757-12.307-4.1-18.756-4.1"/>
		<path style="fill:none;stroke:#17192D;stroke-width:3;" d="M958.223,660.69c-4.893,2.445-10.4,3.059-15.905,4.89"/>
		<path style="fill:none;stroke:#17192D;stroke-width:3;" d="M1224.999,470.11c15.908-3.054,23.863,2.439,36.711,8.551"/>
		<path style="fill:none;stroke:#17192D;stroke-width:3;" d="M1234.179,1058.342c4.894,0.614,9.178,1.22,14.072,1.832"/>
		<path style="fill:none;stroke:#17192D;stroke-width:3;" d="M1192.774,1068.943c16.701,3.506,41.676,0.514,57.312-5.715"/>
		<path style="fill:none;stroke:#17192D;stroke-width:3;" d="M927.386,636.722c12.021-15.113,27.397-27.22,43.577-37.606
			c15.597-10.014,33.333-16.491,48.78-26.371c7.436-4.753,13.144-10.712,19.457-16.821c4.998-4.835,10.61-10.233,15.643-14.963
			c4.916-4.626,9.077-11.658,14.924-15.209"/>
		<path style="fill:none;stroke:#17192D;stroke-width:3;" d="M900.331,938.854c6.264-5.003,30.066,30.645,35.078,36.27"/>
		<path style="fill:none;stroke:#17192D;stroke-width:3;" d="M900.331,936.351c0.625-0.621,10.648,3.13,13.779,4.381"/>
		<path style="fill:none;stroke:#17192D;stroke-width:3;" d="M931.023,898.207c0,0,3.756,1.876,5.013,3.127"/>
		<path style="fill:none;stroke:#17192D;stroke-width:3;" d="M954.843,946.794c3.924,4.57,8.503,11.097,13.732,14.362"/>
		<path style="fill:none;stroke:#17192D;stroke-width:3;" d="M1007.808,963.114c-2.615-0.651-5.229-0.651-7.846-1.306"/>
		<path style="fill:none;stroke:#17192D;stroke-width:3;" d="M982.308,559.044c-3.27,5.221-5.886,10.444-8.501,15.667"/>
		<path style="fill:none;stroke:#17192D;stroke-width:3;" d="M914.11,633.686c1.772-0.876,3.54-1.982,5.012-3.13"/>
		<path style="fill:none;stroke:#17192D;stroke-width:3;" d="M922.88,613.671c-1.877,2.503-3.758,5.004-5.011,6.88"/>
		<path style="fill:none;stroke:#17192D;stroke-width:3;" d="M1197.752,961.513c-1.196-0.598-1.196-1.196-2.394-1.196l0,0
			c2.997,0,4.193,2.393,5.988,3.588"/>
		<path style="fill:none;stroke:#17192D;stroke-width:3;" d="M1256.178,477.754c27.501,1.816,51.958,2.959,78.697,11.48
			c28.81,9.185,50.171,31.223,61.492,58.87c5.146,12.562,11.002,25.42,15.517,38.194c3.155,8.921,4.866,17.233,9.714,25.504
			c4.91,8.37,10.688,16.194,15.957,24.341c6.169,9.545,11.357,20.356,16.313,30.699c4.115,8.587,6.636,21.912,6.961,31.462"/>
		<path style="fill:none;stroke:#17192D;stroke-width:3;" d="M1249.79,1063.077c28.551-1.883,53.94-3.063,81.699-11.892
			c29.907-9.515,52.085-32.344,63.84-60.984c5.34-13.014,11.418-26.333,16.104-39.565c3.272-9.241,5.05-17.853,10.087-26.42
			c5.095-8.669,11.095-16.774,16.559-25.213c6.407-9.887,11.794-21.087,16.937-31.798c4.271-8.896,8.052-20.377,8.391-30.266"/>
	</g>
	<path style="fill:none;stroke:#17192D;stroke-width:3;" d="M2048,0"/>
	<path style="fill:none;stroke:#17192D;stroke-width:3;" d="M2048,1536"/>
	<path style="fill:none;stroke:#17192D;stroke-width:3;" d="M0,1536"/>
	<path style="fill:none;stroke:#17192D;stroke-width:3;" d="M0,0"/>
</g>
<g id="Layer_1">
</g>
</svg>
