<svg xmlns="http://www.w3.org/2000/svg" width="2048" height="1536" viewBox="0 0 2048 1536"><g fill="none" stroke="#17192D" stroke-width="3"><path d="M1507.26 707.242c-14.02-2.38-24.24.22-37.903-3.39-5.604-1.405-13.32-2.26-17.53-7.828M1576.296 784.19c-4.436-.374-8.872-.56-12.373-2.993M1576.296 758.94c-4.2-.374-9.805 0-12.605 2.807M1554.118 786.248c.932 1.31 1.4 2.805 2.334 3.928.933-2.432 2.335-7.48-.935-8.98M1556.218 758.94c1.167-1.31 1.635-2.62 1.635-4.114 0-2.433-3.034-4.49-3.034-1.122M1553.65 748.84c3.036-4.115 10.272-7.482 15.41-2.806M1555.985 778.766c-3.736-3.178-4.67-13.84 2.1-15.337M1552.95 792.982c2.567 2.432 4.435 4.303 8.405 3.928 4.436-.375 6.536-2.244 10.038-4.115M1579.332 792.982c2.1-.188 2.568-1.496 3.736-2.62M1581.433 750.896c-1.633 0-3.27-.187-3.968-1.31M1618.385 733.755c-1.71 2.2-1.955 5.376-3.666 7.574M1623.517 724.226M1615.698 739.62c-2.2-10.996-5.377-19.794-.245-30.3M1613.985 831.252c-.242-10.75-6.842-22.725.49-32.498M1614.72 798.02M1602.257 824.166c1.71-2.197 0-9.04 0-12.46 0-5.866 3.177-7.33 5.132-12.218M1606.9 735.71c-5.375-6.6-4.644-18.083-1.71-25.413M1621.317 789.47c-2.688-1.956-5.864-2.2-9.287-.98M1622.783 750.37c-3.665 1.712-6.598.978-10.508 0M1590.284 849.336c-6.84-.98-13.928.977-20.525-1.71-7.088-2.69-11.73-8.554-18.327-12.22M1555.342 701.988c6.354-10.262 18.815-15.15 30.3-16.127 7.33-.488 11.974 1.955 18.57 4.398 5.377 1.956 10.996 0 16.616 0 6.6 0 13.684.734 20.038-.243 5.618-.733 10.263-1.467 16.126-1.467M1650.396 848.846c-4.887 0-9.285-1.465-13.93-1.71-4.642-.243-9.284 1.71-13.926 1.222-2.688-.244-4.644-1.465-7.087-1.955-2.688-.244-4.398.734-7.087 1.71-4.888 1.956-8.796 2.2-13.928 1.956M1524 798.03c3.034-6.358 16.576-11.595 14.007-20.01-1.402-4.864-3.97-6.175-1.634-11.6 1.868-4.488 3.036-9.164 0-13.466-2.803-4.49-11.673-8.604-13.074-12.72M1520.73 798.03c-1.4-2.99-5.603-6.17-7.938-8.978-3.035-3.926-5.37-8.416-6.304-13.092-2.102-9.912 4.435-18.89 10.506-27.12 1.867-2.433 3.268-4.49 3.502-7.483M1521.897 793.355c-2.1-7.107.467-16.46.7-23.566.234-8.23-.7-16.086-.7-24.316v-1.496M1560.312 726.75c-5.023-3.683-14.615-4.253-18.494-8.72M1556.26 807.646c-4.898 4.357-17.918 8.627-24.753 7.686M1601.28 735.222c-1.222.732-18.082-17.35-20.77-19.304M1577.822 687.083c-10.507 1.712-21.015 3.91-31.522 5.132-12.46 1.222-22.235 6.354-33.23 11.73-13.44 6.353-22.236 16.126-32.743 26.145-10.753 9.774-12.22 21.26-13.196 34.944-.243 5.62 1.956 10.752 1.712 16.127-.244 5.866 1.954 10.02 2.688 15.884 1.71 15.15 13.685 17.594 24.435 25.414 8.798 6.842 19.305 13.195 30.056 17.104 4.888 1.71 10.266 1.71 15.152 2.934 5.376 1.465 10.507 3.42 16.128 4.154 3.42.488 7.085.244 10.506.244M1658.947 848.846c10.263-.488 20.282.98 29.812-3.908 6.107-2.934 11.972-7.088 16.37-12.463 3.91-4.887 9.04-10.506 12.217-15.883 6.11-10.508 5.376-20.77 5.62-32.498.49-12.463 3.422-25.17 1.467-37.633-2.2-13.682-10.263-26.145-17.105-37.873-3.91-6.6-7.82-11.486-15.15-14.172-5.375-1.956-10.996-2.2-16.616-3.177-5.62-1.223-11.73-3.423-17.593-3.178v1.222M1619.118 851.045c7.086 1.71-1.71 6.11-4.643 6.598-5.132.734-10.752.49-15.884.246-6.84-.247-13.683-1.224-20.523-1.224-6.598 0-9.775-1.223-12.22-7.574-.244 0-.244-.246-.244-.246M1617.653 688.06v.98c1.465-.734 3.908-3.667 4.153-5.376.733-3.178-.245-3.422-3.422-4.154-4.887-1.468-10.996-.978-16.128-.49-6.597.734-13.927-.243-20.525 1.467-1.71.49-17.103 5.62-11.483 8.063M1605.68 687.083c1.955-1.222 4.887-2.2 5.862-4.154-2.198-.49-5.62-.733-7.818-.49-2.688.49-3.177 1.956-5.375 3.422M1607.39 852.268c.245.488.245.732.488.977-2.444 2.445-6.843 1.467-10.02.98M1623.028 853.734c3.42 1.71 10.262-.734 14.66 0 5.62.488 10.996-.98 17.105-.244 4.153.244 5.863-1.467 9.285-2.445 2.198-.732 5.62-.977 8.064-1.22 5.863-.733 12.705 1.22 18.08-1.712 4.645-2.688 10.51-7.574 14.174-11.484 2.932-2.935 2.932-5.622 5.132-8.554 1.71-2.2 4.154-4.887 5.863-6.842 2.2-2.2 4.888-3.91 6.6-6.842 1.22-2.443 2.2-7.574 4.154-9.53 2.932-2.687 5.863-.978 7.574-5.13.49-1.223 0-2.445.732-3.91.733-1.467 2.688-1.955 2.934-3.666.243-2.2-1.22-4.398-1.22-6.598-.246-2.443-.49-4.887-.49-7.33 0-2.688.49-5.13 0-7.82-.733-4.398-.245-4.643 2.687-8.308-3.91-1.467 0-7.087-4.153-9.285 1.956-3.423-2.688-8.064-2.443-11.975.243-3.665.977-3.665-1.222-7.33-1.222-2.2-1.955-4.4-5.132-3.91 0-3.42-4.644-4.398-6.11-7.33-.486-1.22 0-2.934-.977-4.154-.978-1.466-2.688-1.466-3.666-2.443-.73-.978-.242-2.443-.976-3.177-.978-1.222-2.687-1.954-3.42-3.176-2.2-2.688-.98-4.644-4.154-7.087-1.223-1.222-2.688-1.222-3.666-2.688-.977-1.466-.488-3.42-1.955-4.643-1.954-1.955-7.818-3.91-10.506-4.644-6.6-1.464-12.71-.977-19.306-1.954-4.154-.49-9.286-2.2-13.44-3.42-1.71-.49-3.42-1.71-5.62-2.2-2.932-.488-5.376.49-8.307.733 0-.244.243-.49.488-.978-4.4.243-8.31-1.467-12.463-.245-4.153.978-7.818 1.467-12.46.732M1636.857 742.186c.732-5.482.365-13.155 4.02-15.713-2.557-3.653-2.557-8.404-3.654-12.423-1.095-4.387-4.384-6.944-5.114-11.33 8.403-1.095 7.307 5.848 10.597 10.964 1.46 2.56 2.922 3.287 4.02 6.576 1.095 2.925.73 5.848 1.095 9.136.366 3.29 1.098 10.598-1.827 13.887.73-.73-7.673 2.923-5.116 3.287-2.558-.364-4.02-1.46-3.288-4.75h-1.827M1631.012 833.54c-2.192 1.462 2.924-3.288 3.288-4.386 1.097-1.826 2.923-10.23 3.29-12.424 0-3.287-1.462-7.674-1.462-10.963 0-2.19-1.828-9.865-1.098-11.693.732-1.46 4.75-3.652 6.212-3.287 3.656 0 1.83-.365 3.656 2.19 3.653 4.75 1.095 6.214.364 10.233-.73 3.29-1.097 8.04-1.46 11.693-.367 5.115 1.825 8.77-1.097 13.154-1.464 2.193-6.213 7.31-8.406 8.04-3.29 1.095-5.848 0-3.29-3.655M1437.468 798.805c-10.78 0-21.563 0-32.343-3.588M1435.053 738.784c-7.005 0-17.074 3.493-23.205 6.55M1457.824 782.494c-3.502-1.314-6.567-1.75-9.193-3.934M1508.118 828.69c-13.043 2.032-26.196 2.075-38.957 5.35-5.23 1.27-12.39 1.933-16.485 7.41M2048 0M2048 1536M0 1536M0 0"/></g></svg>