<svg xmlns="http://www.w3.org/2000/svg" width="2048" height="1536" viewBox="0 0 2048 1536"><g fill="none" stroke="#17192D" stroke-width="3"><path d="M723.4 438.268c2.958-2.12 3.467-7.79 4.784-10.988 1.197-2.92 2.958-5.552 4.282-8.51 3.154-7.05 6.095-13.677 11.18-19.61 8.417-9.83 10.06-22.54 13.844-34.102 2.186-6.667 5.577-13.88 10.42-19.054 4.106-4.39 9.868-6.64 14.46-10.422 8.397-6.913 9.455-18.418 18.343-25.276 8.952-6.907 17.09-16.25 28.482-18.28 17.906-3.248 38.66.404 54.12 8.935 9.77 5.28 17.906 14.224 26.45 21.127 8.953 6.904 18.718 15.436 24.01 26 8.137 17.47 6.507 38.183 6.507 57.28 0 10.56 1.63 21.122.406 31.683-.812 9.75-2.437 19.5-4.064 29.25-3.256 19.905-2.85 40.623-5.697 60.934-.815 6.5-1.223 13.812-2.443 19.905M774.67 441.924c-4.88 4.875-9.76 8.937-15.46 12.593M831.64 500.828c3.257 16.248-6.916 37.78-13.43 52.404-9.357 21.938-23.596 36.56-41.5 51.185-34.998 28.438-56.156 72.716-77.722 111.31-5.29 9.746-10.175 19.09-15.462 28.837-4.48 7.315-8.95 18.69-15.055 23.565M744.946 396.763c0-1.146-22.953 29.787-27.538 36.66-12.628 21.767-22.954 43.537-33.28 66.444-18.36 44.678-27.537 90.503-44.752 135.183-13.77 33.223-27.543 68.737-48.196 99.666M728.882 676.29c9.18 21.766 1.146 40.1 2.294 59.573M821.83 997.06c8.032-46.97 2.295-89.356-26.395-129.45-16.064-22.914-28.687-43.535-39.017-69.885-6.883-20.62-10.326-49.26-21.8-66.444h-1.15M674.95 766.793c3.324 81.27-2.525 162.912 1.943 244.137M903.302 943.216c5.01 38.784-.16 81.412-2.03 120.474-1.37 22.986-2.785 44.823-9.934 66.898-10.403 26.79-26.18 34.302-48.56 48.963M678.39 1008.514c3.444 13.75 1.145 32.08 5.738 46.97 8.033 24.063 24.098 44.685 35.573 67.6 10.328 22.913 24.097 49.26 49.345 58.43 13.77 5.726 53.93 17.183 67.7 5.726 2.295-2.293 3.444-4.585 4.59-8.02M724.293 1003.93c-2.3 9.17-3.442 18.334-4.592 27.5M695.602 985.605c0 10.31 2.296 25.2 5.74 36.658M811.503 1029.137c-2.3 4.585-6.885 8.02-11.476 8.02M847.074 491.847c-1.15 4.583-3.442 9.167-6.885 11.456M837.894 417.385c-4.59-3.436-9.18-6.876-13.77-11.455M810.354 438.008c-4.59 1.143-8.033 1.143-11.476 0M669.21 789.707c-1.146 0-5.738 3.436-8.028 4.582M651.496 757.81c0 3.512 0 7.024-1.17 9.95M732.968 600.4c0 6.437-.584 12.874 1.175 18.725M756.415 854.365c-.588 4.68-1.172 9.945-1.172 15.214M827.34 1013.532c3.516 4.095 5.274 9.36 6.446 14.625M826.752 1002.41c2.93-1.17 5.273-.582 7.62 1.756M838.474 507.358c5.275 1.17 9.97 2.93 14.654 4.682M824.406 595.72c-3.516 11.117-7.62 22.236-13.48 32.184M772.24 677.642c-1.172 1.17-4.103 2.927-6.446 4.097M776.93 814.572c-3.518-4.096-8.792-8.192-14.07-9.36M799.203 857.29c0 5.265-.586 11.117.59 16.384M830.27 1110.673c2.345 5.264 4.102 10.532 5.86 15.215M745.278 1115.937c-3.516 1.173-4.688 11.708-3.516 16.387M879.657 603.668c4.39-3.13 8.146-6.258 13.785-6.882M2048 0M2048 1536M0 1536M0 0"/></g></svg>