<?xml version="1.0" encoding="iso-8859-1"?>
<!-- Generator: Adobe Illustrator 15.1.0, SVG Export Plug-In . SVG Version: 6.00 Build 0)  -->
<!DOCTYPE svg PUBLIC "-//W3C//DTD SVG 1.1//EN" "http://www.w3.org/Graphics/SVG/1.1/DTD/svg11.dtd">
<svg version="1.1" xmlns="http://www.w3.org/2000/svg" xmlns:xlink="http://www.w3.org/1999/xlink" x="0px" y="0px" width="2048px"
	 height="1536px" viewBox="0 0 2048 1536" style="enable-background:new 0 0 2048 1536;" xml:space="preserve">
<g id="c3a_x5F_fuss_x5F_v">
	<g>
		<path style="fill:none;stroke:#17192D;stroke-width:3;" d="M590.031,737.007c-25.495,39.542-36.911,92.513-46.214,137.415
			c-5.16,25.328-13.999,40.425-26.095,63.623c-10.976,22.021-4.816,40.213-10.033,63.25l0,0"/>
		<path style="fill:none;stroke:#17192D;stroke-width:3;" d="M672.652,856.148c-13.767,10.312-29.833,11.46-42.458,22.917
			c-12.62,10.309-21.803,24.055-27.539,38.948c-11.476,27.493-16.063,64.154-47.049,75.609"/>
		<path style="fill:none;stroke:#17192D;stroke-width:3;" d="M503.971,1002.789c-14.918,4.58-20.656,29.785,4.588,30.933
			c21.803,1.144,34.425-22.915,43.605-38.953"/>
		<path style="fill:none;stroke:#17192D;stroke-width:3;" d="M595.769,830.945c4.595,3.44,9.181,4.584,14.919,4.584"/>
		<path style="fill:none;stroke:#17192D;stroke-width:3;" d="M594.622,772.521c-2.293,2.292-3.442,4.583-5.735,5.729"/>
		<path style="fill:none;stroke:#17192D;stroke-width:3;" d="M554.524,988.709c-0.27,2.939-2.956,4.547-3.486,7.225"/>
		<path style="fill:none;stroke:#17192D;stroke-width:3;" d="M513.219,999.419c-0.536-2.413,5.366-9.642,7.243-11.519
			c2.414-2.676,4.827-2.406,7.507-4.279c2.416-1.876,2.684-5.358,5.368-6.963"/>
		<path style="fill:none;stroke:#17192D;stroke-width:3;" d="M524.753,974.783c-5.632-0.27-10.998,9.639-12.07,14.193"/>
		<path style="fill:none;stroke:#17192D;stroke-width:3;" d="M521.269,968.894c-4.023-1.074-10.999,4.819-12.339,8.567"/>
		<path style="fill:none;stroke:#17192D;stroke-width:3;" d="M517.778,957.113c-3.753,2.141-6.973,5.353-7.509,9.903"/>
		<path style="fill:none;stroke:#17192D;stroke-width:3;" d="M555.327,947.473c-4.289-1.604-9.119,2.941-10.996,6.691"/>
		<path style="fill:none;stroke:#17192D;stroke-width:3;" d="M592.339,933.548c0,2.946,0.536,6.695,0.808,9.909"/>
		<path style="fill:none;stroke:#17192D;stroke-width:3;" d="M605.211,885.623c-3.485,3.748-5.364,9.102-6.971,13.654"/>
	</g>
	<path style="fill:none;stroke:#17192D;stroke-width:3;" d="M2048,0"/>
	<path style="fill:none;stroke:#17192D;stroke-width:3;" d="M2048,1536"/>
	<path style="fill:none;stroke:#17192D;stroke-width:3;" d="M0,1536"/>
	<path style="fill:none;stroke:#17192D;stroke-width:3;" d="M0,0"/>
</g>
<g id="Layer_1">
</g>
</svg>
