<svg xmlns="http://www.w3.org/2000/svg" width="2048" height="1536" viewBox="0 0 2048 1536"><g fill="none" stroke="#17192D" stroke-width="3"><path d="M657.73 557.15c2.3-4.585-10.32-37.81-14.91-45.826-10.333-21.766-43.61-42.387-47.052-4.582M622.162 656.814c-6.887-19.473-72.29-109.978-43.604-120.286-2.295-8.02 6.885-27.496 16.064-27.496M575.293 541.886c2.347 5.85 5.862 10.532 8.21 15.798M582.33 524.33c3.513 5.853 5.86 18.728 12.307 21.65M589.948 511.457c5.86 5.852 5.86 15.21 12.313 21.063M595.81 504.435c2.932 9.948 12.895 11.117 18.17 18.726 4.105 5.267 2.93 11.117 11.14 12.288M2048 0M2048 1536M0 1536M0 0"/></g></svg>