<?xml version="1.0" encoding="iso-8859-1"?>
<!-- Generator: Adobe Illustrator 15.1.0, SVG Export Plug-In . SVG Version: 6.00 Build 0)  -->
<!DOCTYPE svg PUBLIC "-//W3C//DTD SVG 1.1//EN" "http://www.w3.org/Graphics/SVG/1.1/DTD/svg11.dtd">
<svg version="1.1" xmlns="http://www.w3.org/2000/svg" xmlns:xlink="http://www.w3.org/1999/xlink" x="0px" y="0px" width="2048px"
	 height="1536px" viewBox="0 0 2048 1536" style="enable-background:new 0 0 2048 1536;" xml:space="preserve">
<g id="c3a_x5F_schritt">
	<g>
		<path style="fill:none;stroke:#17192D;stroke-width:3;" d="M898.411,706.411c-0.121-0.009-0.237-0.009-0.357-0.009
			c0.112,0.39,0.219,0.773,0.337,1.159c0.007,0.004,0.011,0.004,0.021,0.005C898.427,707.181,898.438,706.783,898.411,706.411z"/>
		<path style="fill:none;stroke:#17192D;stroke-width:3;" d="M910.502,811.247c0.002-0.007,0.007-0.017,0.007-0.017
			c-0.146-0.033-0.295-0.059-0.452-0.084C910.206,811.168,910.358,811.204,910.502,811.247z"/>
		<path style="fill:none;stroke:#17192D;stroke-width:3;" d="M907.031,728.71c-0.2-0.948-0.767-2.002-1.082-2.655
			c-0.8-1.682-1.847-3.308-2.776-4.937c1.02,2.595,2.067,5.185,3.115,7.773C906.539,728.826,906.79,728.752,907.031,728.71z"/>
		<path style="fill:none;stroke:#17192D;stroke-width:3;" d="M903.385,732.251c1.262-0.254,2.59-0.615,3.915-0.837
			c-0.006-0.011-0.011-0.029-0.015-0.044C905.956,731.627,904.572,731.627,903.385,732.251z"/>
		<path style="fill:none;stroke:#17192D;stroke-width:3;" d="M912.773,752.985c-0.282,0.02-0.526,0.074-0.743,0.145
			c1.138,0.426,2.277,0.532,3.426,0.799C914.935,753.244,914.233,752.867,912.773,752.985z"/>
		<path style="fill:none;stroke:#17192D;stroke-width:3;" d="M898.401,707.779c-0.011,0.336-0.014,0.643,0.025,0.9
			c0.189,1.187,0.539,2.473,0.768,3.711c0.521,2.891,2.313,5.779,3.732,8.308c0.078,0.141,0.163,0.279,0.246,0.42
			c-1.743-4.414-3.367-8.85-4.723-13.331c-0.012,0-0.019,0.011-0.032,0.008C898.413,707.792,898.403,707.787,898.401,707.779z"/>
		<path style="fill:none;stroke:#17192D;stroke-width:3;" d="M898.411,707.566c0.363,0.045,0.87,0.092,1.082-0.114
			c0.253-0.248,0.037-0.728-0.261-0.912c-0.117-0.073-0.45-0.117-0.821-0.129C898.438,706.783,898.427,707.181,898.411,707.566z"/>
		<path style="fill:none;stroke:#17192D;stroke-width:3;" d="M898.411,707.566c-0.01-0.001-0.014-0.001-0.021-0.005
			c0.007,0.025,0.011,0.042,0.013,0.065C898.403,707.606,898.403,707.587,898.411,707.566z"/>
		<path style="fill:none;stroke:#17192D;stroke-width:3;" d="M892.604,707.282c0.263-0.25,0.654-0.643,1.032-1.081
			c-0.12-0.038-0.239-0.071-0.363-0.107c-0.061-0.017-0.126-0.017-0.182-0.021c-0.379,0.04-0.722,0.111-0.961,0.268
			c-0.288,0.194-0.833,1.169-0.984,1.782c0.055,0.064,0.104,0.129,0.158,0.193C891.757,708.009,892.201,707.661,892.604,707.282z"/>
		<path style="fill:none;stroke:#17192D;stroke-width:3;" d="M893.197,706.063c-0.036,0.003-0.073,0.007-0.106,0.009
			c0.056,0.005,0.121,0.005,0.182,0.021C893.247,706.083,893.222,706.072,893.197,706.063z"/>
		<path style="fill:none;stroke:#17192D;stroke-width:3;" d="M894.321,706.397c0.781,0.198,1.541,0.299,2.275,0.307
			c-0.896-0.355-1.93-0.607-2.832-0.652c-0.037,0.045-0.074,0.088-0.109,0.129C893.877,706.241,894.101,706.31,894.321,706.397z"/>
		<path style="fill:none;stroke:#17192D;stroke-width:3;" d="M898.418,707.795c0.014,0.003,0.021-0.008,0.032-0.008
			c-0.014-0.053-0.027-0.107-0.047-0.16c0,0.053,0,0.104-0.002,0.152C898.403,707.787,898.413,707.792,898.418,707.795z"/>
		<path style="fill:none;stroke:#17192D;stroke-width:3;" d="M898.403,707.627c-0.002-0.023-0.006-0.04-0.013-0.065
			c-0.093-0.01-0.183-0.02-0.245-0.026c-0.008,0-0.018-0.005-0.031-0.005c0.104,0.083,0.216,0.169,0.287,0.249
			C898.403,707.73,898.403,707.68,898.403,707.627z"/>
		<path style="fill:none;stroke:#17192D;stroke-width:3;" d="M893.636,706.201c0.232,0.07,0.458,0.144,0.686,0.196
			c-0.221-0.088-0.444-0.156-0.666-0.217C893.655,706.181,893.643,706.192,893.636,706.201z"/>
		<path style="fill:none;stroke:#17192D;stroke-width:3;" d="M894.321,706.397c0.468,0.189,0.921,0.407,1.386,0.59
			c0.793,0.311,1.571,0.462,2.407,0.543c-0.362-0.297-0.894-0.582-1.518-0.826C895.862,706.696,895.103,706.596,894.321,706.397z"/>
		<path style="fill:none;stroke:#17192D;stroke-width:3;" d="M893.655,706.181c0.035-0.041,0.072-0.084,0.109-0.129
			c-0.203-0.007-0.385,0-0.567,0.012c0.024,0.009,0.05,0.02,0.075,0.03C893.401,706.113,893.53,706.146,893.655,706.181z"/>
		<path style="fill:none;stroke:#17192D;stroke-width:3;" d="M903.483,814.45c-0.021,0.071-0.025,0.159-0.03,0.263
			c0.03-0.014,0.058-0.025,0.083-0.037C903.521,814.6,903.497,814.526,903.483,814.45z"/>
		<path style="fill:none;stroke:#17192D;stroke-width:3;" d="M901.098,827.646c0.007,1.074-0.172,2.168-0.501,3.298
			c0.163-0.31,0.301-0.608,0.365-0.851C901.146,829.361,901.155,828.508,901.098,827.646z"/>
		<path style="fill:none;stroke:#17192D;stroke-width:3;" d="M909.804,811.103c0.09,0.016,0.164,0.026,0.253,0.044
			C909.972,811.133,909.89,811.109,909.804,811.103z"/>
		<path style="fill:none;stroke:#17192D;stroke-width:3;" d="M900.524,824.361c0.268,0.952,0.49,2.124,0.573,3.285
			C901.089,826.562,900.88,825.477,900.524,824.361z"/>
		<path style="fill:none;stroke:#17192D;stroke-width:3;" d="M911.298,811.641c0.002-0.096,0.016-0.203,0.016-0.294
			c-0.149-0.023-0.301-0.039-0.441-0.064c-0.11-0.017-0.244-0.042-0.361-0.06c0,0-0.007,0.018-0.009,0.024
			C910.777,811.337,911.042,811.464,911.298,811.641z"/>
		<path style="fill:none;stroke:#17192D;stroke-width:3;" d="M941.229,864.594c1.722,12.359,0.801,24.18-1.531,36.072
			c-0.274,1.391-0.592,2.819-0.912,4.252c1.628-0.422,3.224-0.832,4.603-0.969c3.532-0.353,7.756,0.704,11.279-0.7
			c-3.538-20.386-11.279-39.722-18.03-59.306c0.215,1.645,0.576,3.273,1.292,4.916C940.114,853.859,940.486,859.285,941.229,864.594
			z"/>
		<path style="fill:none;stroke:#17192D;stroke-width:3;" d="M904.896,836.154c0.078-0.254,0.107-0.529,0.221-0.766
			c0.016-0.033,0.021-0.068,0.033-0.104c-0.503,0.235-0.984,0.545-1.451,0.875C904.103,836.191,904.51,836.216,904.896,836.154z"/>
		<path style="fill:none;stroke:#17192D;stroke-width:3;" d="M903.203,836.522l0.009-0.006c-0.009,0-0.017,0.002-0.017,0.002
			L903.203,836.522z"/>
		<path style="fill:none;stroke:#17192D;stroke-width:3;" d="M905.149,835.285c0.098-0.041,0.191-0.08,0.291-0.119
			c0.18-1.225,0.383-2.447,0.599-3.674c-0.083,0.262-0.185,0.516-0.251,0.782C905.544,833.275,905.569,834.351,905.149,835.285z"/>
		<path style="fill:none;stroke:#17192D;stroke-width:3;" d="M900.597,830.944c-0.581,1.104-1.56,2.532-1.609,3.725
			c0.011,0.002,0.021,0.008,0.029,0.009C899.723,833.355,900.251,832.117,900.597,830.944z"/>
		<path style="fill:none;stroke:#17192D;stroke-width:3;" d="M906.039,831.492c0.228-0.683,0.487-1.355,0.677-2.071
			c0.531-2.023,0.924-4.045,1.539-6.03c1.088-3.522,2.977-8.482,3.043-11.75c-0.256-0.177-0.521-0.304-0.796-0.394
			C908.895,817.998,907.234,824.734,906.039,831.492z"/>
		<path style="fill:none;stroke:#17192D;stroke-width:3;" d="M910.057,811.146c-0.089-0.018-0.163-0.028-0.253-0.044
			c-1.363-0.109-2.86,0.587-4.071,1.443c-0.563,0.396-1.183,0.763-1.692,1.237c-0.363,0.345-0.504,0.477-0.557,0.667
			c0.014,0.076,0.037,0.149,0.053,0.226c2.293-1.072,4.027-2.871,6.086-3.541c-2.059,0.67-3.793,2.469-6.086,3.541
			c0.475,2.229,0.064,4.375-2.279,6.254c2.344-1.879,2.754-4.025,2.279-6.254c-0.025,0.012-0.053,0.023-0.083,0.037
			c-0.002,0.164,0.005,0.378,0.002,0.719c-0.015,1.307-0.465,2.51-1.146,3.587c-0.573,0.896-1.469,1.603-1.916,2.554
			c-0.446,0.957-0.175,1.717,0.113,2.711c0.008,0.021,0.011,0.057,0.019,0.078c0.355,1.115,0.564,2.2,0.573,3.285
			c0.058,0.861,0.048,1.715-0.136,2.447c-0.064,0.242-0.202,0.541-0.365,0.851c-0.346,1.173-0.874,2.411-1.58,3.733
			c0.234,0.113,0.469,0.217,0.69,0.334c0.59,0.302,1.122,0.719,1.716,1.024c0.112,0.062,0.214,0.104,0.312,0.144
			c0.088-0.014,0.187-0.027,0.265-0.039c0.571-0.084,1.14-0.023,1.698,0.02c0.467-0.33,0.948-0.64,1.451-0.875
			c0.42-0.935,0.395-2.01,0.639-3.011c0.066-0.267,0.168-0.521,0.251-0.782c1.195-6.758,2.855-13.494,4.463-20.245
			C910.358,811.204,910.206,811.168,910.057,811.146z"/>
		<path style="fill:none;stroke:#17192D;stroke-width:3;" d="M898.987,834.669c0,0.018,0.006,0.039,0.006,0.055
			c0.009-0.011,0.015-0.027,0.023-0.046C899.008,834.677,898.998,834.671,898.987,834.669z"/>
		<path style="fill:none;stroke:#17192D;stroke-width:3;" d="M902,836.141c-0.078,0.012-0.177,0.025-0.265,0.039
			c0.451,0.197,0.822,0.266,1.379,0.33c0.021,0.006,0.051,0.009,0.072,0.01c0,0,0.017-0.003,0.025-0.003
			c0.16-0.121,0.324-0.239,0.486-0.356C903.14,836.117,902.571,836.057,902,836.141z"/>
		<path style="fill:none;stroke:#17192D;stroke-width:3;" d="M899.707,835.012c-0.222-0.117-0.456-0.221-0.69-0.334
			c-0.009,0.019-0.015,0.035-0.023,0.046c-0.006,0.446,0.104,0.86,0.447,1.198c0.54,0.533,1.536,0.384,2.295,0.258
			c-0.099-0.039-0.2-0.081-0.312-0.144C900.829,835.73,900.297,835.313,899.707,835.012z"/>
		<path style="fill:none;stroke:#17192D;stroke-width:3;" d="M893.272,706.094c0.124,0.036,0.243,0.069,0.363,0.107
			c0.007-0.009,0.014-0.017,0.014-0.017C893.53,706.146,893.401,706.113,893.272,706.094z"/>
		<path style="fill:none;stroke:#17192D;stroke-width:3;" d="M914.604,780.164c-0.758,2.03-1.989,3.873-3.525,5.537
			c-0.1,0.414-0.214,0.816-0.348,1.209c0.079,0.485,0.331,0.901,0.891,1.168c0.166,0.078,0.34,0.126,0.507,0.172
			c0.843-0.587,1.769-1.02,2.715-1.055c-0.946,0.035-1.872,0.468-2.715,1.055c1.097,0.283,2.354-0.074,3.247-0.799
			c0.458-1.957,1.022-3.883,1.74-5.72C916.343,781.09,915.509,780.543,914.604,780.164z"/>
		<path style="fill:none;stroke:#17192D;stroke-width:3;" d="M915.249,772.389c-0.06,0.008-0.117,0.008-0.173,0.014
			c0.023,0.123,0.054,0.25,0.076,0.373c0.013-0.025,0.027-0.058,0.044-0.087C915.208,772.589,915.229,772.489,915.249,772.389z"/>
		<path style="fill:none;stroke:#17192D;stroke-width:3;" d="M910.769,786.021c-0.058,0.312-0.078,0.609-0.037,0.889
			c0.134-0.393,0.248-0.795,0.348-1.209C910.978,785.81,910.872,785.916,910.769,786.021z"/>
		<path style="fill:none;stroke:#17192D;stroke-width:3;" d="M920.738,775.356c-1.573,1.86-2.718,4.048-3.622,6.375
			c0.11,0.094,0.222,0.187,0.332,0.283c0.11-0.341,0.209-0.685,0.383-1.009c0.711-1.363,1.693-2.967,2.695-4.145
			c1.24-1.45,2.975-2.579,4.379-3.812c0.659-0.578,1.022-0.791,1.2-1.242C924.024,772.33,922.157,773.678,920.738,775.356z"/>
		<path style="fill:none;stroke:#17192D;stroke-width:3;" d="M915.173,772.913c-0.152,1.584,0.113,3.208-0.461,4.737
			c-0.278,0.753-0.621,1.493-0.99,2.223c0.298,0.084,0.597,0.173,0.883,0.291C915.415,777.97,915.673,775.557,915.173,772.913z"/>
		<path style="fill:none;stroke:#17192D;stroke-width:3;" d="M911.279,784.785c-0.058,0.314-0.128,0.615-0.2,0.916
			c1.536-1.664,2.768-3.507,3.525-5.537c-0.286-0.118-0.585-0.207-0.883-0.291c-0.474,0.956-0.989,1.896-1.477,2.823
			c-0.422,0.794-1.246,2.14-1.477,3.325c0.104-0.105,0.209-0.212,0.311-0.32C911.151,785.4,911.222,785.1,911.279,784.785z"/>
		<path style="fill:none;stroke:#17192D;stroke-width:3;" d="M915.152,772.775c0.01,0.046,0.013,0.09,0.021,0.138
			c0.007-0.073,0.01-0.147,0.023-0.225C915.18,772.718,915.165,772.75,915.152,772.775z"/>
		<path style="fill:none;stroke:#17192D;stroke-width:3;" d="M926.416,769.613c0.074-0.645,0.182-1.239,0.318-1.69
			c0.007-0.117-0.005-0.219-0.019-0.324c-0.892-0.417-1.723-0.966-2.491-1.62c-0.567-0.357-1.112-0.743-1.614-1.174
			c-3.242-2.798-5.363-6.656-7.021-10.703c-0.039-0.067-0.089-0.117-0.134-0.174c-1.148-0.267-2.288-0.373-3.426-0.799
			c-1.109,0.349-1.389,1.241-1.099,2.204c0.078,0.168,0.144,0.347,0.212,0.519c4.49,3.538,7.184,8.382,5.611,14.969
			c1.572-6.587-1.121-11.431-5.611-14.969h0.002c0.141,0.282,0.312,0.565,0.532,0.832c1.419,1.7,2.595,2.943,3.571,4.938
			c0.403,0.834,1.384,1.59,1.58,2.458c0.18,0.814,0.004,1.954-0.035,2.783c-0.023,0.457-0.039,1.029-0.104,1.575
			c-0.014,1.43-0.695,2.685-1.333,3.926c0.403-0.086,0.79-0.266,1.157-0.562c-0.367,0.297-0.754,0.477-1.157,0.562
			c-0.056,0.11-0.108,0.214-0.161,0.323c-0.014,0.077-0.017,0.151-0.023,0.225c0.5,2.644,0.242,5.057-0.568,7.251
			c0.904,0.379,1.738,0.926,2.512,1.567c0.904-2.327,2.049-4.515,3.622-6.375c1.419-1.679,3.286-3.026,5.367-3.55
			c0.106-0.254,0.149-0.588,0.145-1.113C926.249,770.378,926.328,770.002,926.416,769.613z"/>
		<path style="fill:none;stroke:#17192D;stroke-width:3;" d="M915.376,787.451c0.365-0.299,0.676-0.656,0.881-1.055
			c0.674-1.314,0.727-2.906,1.191-4.382c-0.11-0.097-0.222-0.189-0.332-0.283C916.398,783.568,915.834,785.494,915.376,787.451z"/>
		<path style="fill:none;stroke:#17192D;stroke-width:3;" d="M926.416,769.613c-0.088,0.389-0.167,0.765-0.166,1.08
			c0.005,0.525-0.038,0.859-0.145,1.113c0.071-0.018,0.144-0.021,0.214-0.037C926.296,771.141,926.333,770.362,926.416,769.613z"/>
		<path style="fill:none;stroke:#17192D;stroke-width:3;" d="M866.39,800.29c2.699-2.95,6.357-5.606,9.695-8.261
			c3.025-2.637,5.078-5.875,8.117-8.196c6.095-4.335,14.57-4.63,20.664-8.96c1.398-0.956,3.142-3.373,4.983-4.871
			c-1.352-1.044-2.623-2.137-3.654-2.631c-6.928-3.484-15.771-2.665-22.7-6.144c-3.477-1.9-6.059-4.832-9.562-7.036
			c-3.838-2.188-8.003-4.331-11.215-6.892c-6.088-5.145-8.103-12.562-11.689-19.208c-3.92-6.612-7.122-12.654-10.118-19.99
			c-1.805-5.221-6.023-11.492-4.581-17.331c0.579-3.111,2.045-6.249,3.738-9.348c-7.918,2.599-15.959,4.92-23.545,7.908
			c-13.392,5.279-31.72,4.573-45.812,3.168c-8.105-0.704-14.449-5.632-22.204-7.037c-3.877-1.054-9.514,1.405-13.041,0l-2.113-0.706
			c0,6.023,1.781,11.584,0.626,17.516c-1.03,5.316-1.475,10.902-2.026,16.615c-0.256,2.652-1.552,5.627-1.066,8.442
			c0.646,3.756,3.656,1.747,5.906,4.938c1.181,1.675,2.237,5.226,3.258,7.354c1.168,2.446,2.098,4.912,2.839,7.392
			c2.832,9.457,5.823,18.469,8.955,27.969c1.6,4.856,3.256,10.361,3.982,15.328c0.449,3.059,0.242,13.152,5.365,12.312l-1.408-1.407
			c1.764,2.814,19.384-1.762,24.318-1.407c10.928,1.053,22.203,4.923,32.066,9.498c13.125,6.15,25.839,14.944,36.908,24.986
			c1.393-4.549,2.968-8.858,4.8-13.439C860.39,813.797,861.311,806.17,866.39,800.29z"/>
		<path style="fill:none;stroke:#17192D;stroke-width:3;" d="M926.734,767.923c0.027-0.083,0.051-0.177,0.079-0.251
			C926.785,767.747,926.762,767.84,926.734,767.923c-0.032,0.504-0.182,1.105-0.318,1.69c-0.083,0.749-0.12,1.527-0.097,2.156
			c0.122-0.025,0.246-0.041,0.364-0.065c0.051-0.366,0.089-0.729,0.143-1.099c0.129-0.931,0.272-1.86,0.414-2.792
			c-0.177-0.067-0.354-0.136-0.524-0.215C926.729,767.705,926.741,767.806,926.734,767.923z"/>
		<path style="fill:none;stroke:#17192D;stroke-width:3;" d="M931.517,673.934c-0.035,5.343,0.326,10.753-1.246,15.986
			c-1.623,5.394,0.157,10.254,0.178,15.909c0.016,5.206-3.56,9.576-2.511,14.816c0.729,3.649,1.979,6.9,3.164,10.212
			c0.093-6.23,0.385-12.528,1.363-18.655c1.062-2.815,1.412-5.981,2.116-8.798c5.64-16.185,12.339-32.015,18.326-48.199
			c3.524-9.499,8.459-17.941,13.039-26.738c3.879-8.443-1.762-12.314-10.571-12.314l0.707-0.703c-0.707,0-1.059-0.355-1.764-0.355
			c-6.698-0.7-14.451,9.148-19.031,13.726c-3.275,3.594-6.573,6.58-10.418,9.527c0.019,0.046,0.034,0.092,0.053,0.137
			C928.997,649.936,931.59,661.489,931.517,673.934z"/>
		<path style="fill:none;stroke:#17192D;stroke-width:3;" d="M926.716,767.599c-0.009-0.085,0.012-0.189-0.017-0.263
			C926.728,767.41,926.707,767.514,926.716,767.599c0.17,0.079,0.348,0.147,0.524,0.215c0.023-0.153,0.046-0.302,0.067-0.455
			c-1.088-0.288-2.121-0.777-3.083-1.38C924.993,766.633,925.824,767.182,926.716,767.599z"/>
		<path style="fill:none;stroke:#17192D;stroke-width:3;" d="M907.031,728.71c-0.241,0.042-0.492,0.116-0.743,0.182
			c0.173,0.435,0.345,0.867,0.52,1.296C907.107,729.807,907.153,729.287,907.031,728.71z"/>
		<path style="fill:none;stroke:#17192D;stroke-width:3;" d="M903.122,730.156c0.755,0.342,1.512,0.6,2.279,0.584
			c-0.654-0.189-1.301-0.452-1.95-0.752C903.336,730.044,903.232,730.102,903.122,730.156z"/>
		<path style="fill:none;stroke:#17192D;stroke-width:3;" d="M891.146,708.122c-0.033,0.131-0.053,0.247-0.041,0.332
			c0.062-0.04,0.132-0.091,0.199-0.139C891.249,708.251,891.2,708.187,891.146,708.122z"/>
		<path style="fill:none;stroke:#17192D;stroke-width:3;" d="M903.451,729.988c0.649,0.3,1.296,0.562,1.95,0.752
			c0.212-0.006,0.422-0.01,0.635-0.061c0.376-0.095,0.604-0.275,0.771-0.492c-0.175-0.429-0.347-0.861-0.52-1.296
			C905.351,729.151,904.372,729.541,903.451,729.988z"/>
		<path style="fill:none;stroke:#17192D;stroke-width:3;" d="M899.298,728.211c-0.023,0.255-0.053,0.51-0.093,0.768
			c1.359-0.159,2.644,0.601,3.917,1.178c0.11-0.055,0.214-0.112,0.329-0.168C902.144,729.387,900.802,728.663,899.298,728.211z"/>
		<path style="fill:none;stroke:#17192D;stroke-width:3;" d="M891.304,708.315c-0.067,0.048-0.137,0.099-0.199,0.139
			c0,0-0.004,0.016,0,0.024c0.127,0.752,1.398,1.824,1.906,2.515c2.379,3.231,1.115,6.533,1.251,10.267
			C895.919,716.529,895.047,712.99,891.304,708.315z"/>
		<path style="fill:none;stroke:#17192D;stroke-width:3;" d="M896.058,722.33c2.699,1.549,3.422,3.613,3.24,5.881
			c1.504,0.452,2.846,1.176,4.153,1.777c0.921-0.447,1.899-0.837,2.837-1.097c-1.048-2.589-2.096-5.179-3.115-7.773
			c-0.083-0.141-0.168-0.279-0.246-0.42c-1.419-2.528-3.211-5.417-3.732-8.308c-0.229-1.238-0.578-2.524-0.768-3.711
			c-0.039-0.258-0.036-0.564-0.025-0.9c-0.071-0.08-0.184-0.166-0.287-0.249c-0.836-0.081-1.614-0.232-2.407-0.543
			c-0.465-0.183-0.918-0.4-1.386-0.59c-0.228-0.053-0.453-0.126-0.686-0.196c-0.378,0.438-0.77,0.831-1.032,1.081
			c-0.402,0.379-0.847,0.727-1.3,1.033c3.743,4.675,4.615,8.214,2.958,12.944c0.007,0.069,0,0.137,0.002,0.203
			c3.074,0.969,4.527,3.764,4.858,6.695c0.061,0.02,0.115,0.035,0.176,0.053C899.479,725.943,898.757,723.879,896.058,722.33z"/>
		<path style="fill:none;stroke:#17192D;stroke-width:3;" d="M899.122,728.158c0.032,0.27,0.069,0.546,0.081,0.82h0.002
			c0.04-0.258,0.069-0.513,0.093-0.768C899.237,728.193,899.183,728.178,899.122,728.158z"/>
		<path style="fill:none;stroke:#17192D;stroke-width:3;" d="M915.357,772.365c-0.039,0.009-0.071,0.014-0.108,0.023
			c-0.021,0.101-0.041,0.2-0.053,0.3C915.249,772.579,915.302,772.476,915.357,772.365z"/>
		<polygon style="fill:none;stroke:#17192D;stroke-width:3;" points="911.144,755.85 911.146,755.853 911.144,755.853 		"/>
		<path style="fill:none;stroke:#17192D;stroke-width:3;" d="M916.69,768.439c-0.042,0.375-0.1,0.735-0.199,1.031
			c-0.279,0.795-0.947,1.611-1.162,2.461c-0.036,0.153-0.057,0.305-0.08,0.457c0.037-0.01,0.069-0.015,0.108-0.023
			C915.995,771.124,916.677,769.869,916.69,768.439z"/>
		<path style="fill:none;stroke:#17192D;stroke-width:3;" d="M910.932,755.334c0.053,0.172,0.124,0.347,0.212,0.516v0.003
			C911.075,755.681,911.01,755.502,910.932,755.334z"/>
		<path style="fill:none;stroke:#17192D;stroke-width:3;" d="M924.225,765.979c-1.845-1.57-3.381-3.67-4.738-5.57
			c-1.012-1.415-2.026-2.834-2.87-4.402c-0.397-0.745-0.681-1.397-1.026-1.904c1.657,4.047,3.778,7.905,7.021,10.703
			C923.112,765.236,923.657,765.622,924.225,765.979z"/>
		<path style="fill:none;stroke:#17192D;stroke-width:3;" d="M926.734,767.923c-0.137,0.451-0.244,1.045-0.318,1.69
			C926.553,769.028,926.702,768.428,926.734,767.923z"/>
		<path style="fill:none;stroke:#17192D;stroke-width:3;" d="M915.523,753.942c-0.022-0.008-0.042-0.011-0.067-0.014
			c0.045,0.057,0.095,0.106,0.134,0.174C915.569,754.051,915.544,753.996,915.523,753.942z"/>
		<path style="fill:none;stroke:#17192D;stroke-width:3;" d="M912.03,753.13c-0.535-0.202-1.068-0.467-1.6-0.861
			c-0.578-0.424-1.433-0.941-2.176-0.818c1.095,1.117,2.002,2.386,2.677,3.884C910.642,754.371,910.921,753.479,912.03,753.13z"/>
		<path style="fill:none;stroke:#17192D;stroke-width:3;" d="M751.062,691.077c4.4-0.23,9.722,2.542,13.887,3.697
			c3.933,1.154,7.865,2.08,12.03,1.849"/>
		<path style="fill:none;stroke:#17192D;stroke-width:3;" d="M826.262,689.923c-3.933,1.618-8.559,3.466-12.259,5.31"/>
		<path style="fill:none;stroke:#17192D;stroke-width:3;" d="M779.062,704.475c-6.249,0.695-16.2,1.852-21.752,5.545"/>
		<path style="fill:none;stroke:#17192D;stroke-width:3;" d="M771.195,786.479c-3.702-1.847-10.412-4.618-15.272-6.004"/>
		<path style="fill:none;stroke:#17192D;stroke-width:3;" d="M777.209,797.107c3.935-0.692,8.099-0.923,12.03-0.23"/>
		<path style="fill:none;stroke:#17192D;stroke-width:3;" d="M854.493,828.291c-3.01-8.312-12.266-14.78-19.436-18.709"/>
		<path style="fill:none;stroke:#17192D;stroke-width:3;" d="M848.016,824.596c-1.622-3.695-7.177-8.314-11.107-9.703"/>
		<path style="fill:none;stroke:#17192D;stroke-width:3;" d="M836.443,691.541c-0.69-0.694-11.107,5.313-13.187,6.466"/>
		<path style="fill:none;stroke:#17192D;stroke-width:3;" d="M955.838,615.31c-3.007,1.389-6.246,6.469-8.791,9.241
			c-4.86,5.081-10.645,9.239-15.042,14.782"/>
		<path style="fill:none;stroke:#17192D;stroke-width:3;" d="M960.468,616.698c-1.158,6.929-8.563,12.934-12.035,19.172
			c-2.776,4.851-4.858,10.396-7.635,15.242"/>
		<path style="fill:none;stroke:#17192D;stroke-width:3;" d="M947.047,655.966c-1.391,4.389-3.936,8.087-6.015,12.242
			c-1.853,4.157-2.549,8.316-4.397,12.475"/>
		<path style="fill:none;stroke:#17192D;stroke-width:3;" d="M944.964,891.121c1.388,3.928,1.618,8.55,2.546,12.705"/>
		<path style="fill:none;stroke:#17192D;stroke-width:3;" d="M841.999,731.503c-0.697-1.847-2.083-4.159-3.705-5.543"/>
		<path style="fill:none;stroke:#17192D;stroke-width:3;" d="M758.25,706.747c-1.8-0.511-4.37-0.382-5.657,1.03"/>
		<path style="fill:none;stroke:#17192D;stroke-width:3;" d="M760.18,785.195c2.059,0.386,3.346,2.823,4.243,4.495"/>
		<path style="fill:none;stroke:#17192D;stroke-width:3;" d="M761.982,795.979c-1.932,0.383-4.372,0.514-6.173,1.412"/>
		<path style="fill:none;stroke:#17192D;stroke-width:3;" d="M855.16,779.127c0,6.117,5.255,16.608,7.884,22.729"/>
		<path style="fill:none;stroke:#17192D;stroke-width:3;" d="M871.798,759.892c-2.627,6.997-3.502,14.86-1.749,22.733"/>
		<path style="fill:none;stroke:#17192D;stroke-width:3;" d="M843.776,801.855c-11.385,0-23.642-7.867-35.025-10.49"/>
		<path style="fill:none;stroke:#17192D;stroke-width:3;" d="M916.755,770.821c3.33-13.938-12.438-20.087-23.889-22.509"/>
		<path style="fill:none;stroke:#17192D;stroke-width:3;" d="M875.124,731.56c0.089,0.948-0.581-6.286-1.056-7.829
			c-1.12-4.964-5.73-8.34-7.48-12.937"/>
		<path style="fill:none;stroke:#17192D;stroke-width:3;" d="M891.347,749.722c-0.136-8.55-9.203-13.738-15.8-17.244"/>
		<path style="fill:none;stroke:#17192D;stroke-width:3;" d="M916.515,771.803c-3.071,2.501-7.552-3.105-10.319-4.432
			c-6.928-3.484-15.771-2.665-22.7-6.144c-3.477-1.9-6.059-4.832-9.562-7.036c-3.838-2.188-8.003-4.331-11.215-6.892
			c-6.088-5.145-8.103-12.562-11.689-19.208c-3.92-6.612-7.122-12.654-10.118-19.99c-1.805-5.221-6.023-11.492-4.581-17.331
			c1.316-7.097,7.254-14.31,9.941-20.896c3.5-8.569,7.081-16.2,10.933-24.478c3.497-8.572,6.608-17.737,11.144-25.769
			c4.533-8.03,10.702-12.723,16.013-19.559"/>
		<path style="fill:none;stroke:#17192D;stroke-width:3;" d="M916.443,614.854c1.972,3.457,2.694,8.378,4.117,12.221
			c1.397,3.802,3.037,7.706,4.361,11.409c4.075,11.452,6.668,23.006,6.595,35.45c-0.035,5.343,0.326,10.753-1.246,15.986
			c-1.623,5.394,0.157,10.254,0.178,15.909c0.016,5.206-3.56,9.576-2.511,14.816c1.06,5.301,3.223,9.764,4.687,14.784
			c1.52,5.219-0.705,10.065,0.373,14.877c0.99,4.422,4.994,14.617-0.366,16.774c-3.576,1.435-7.322,0.056-10.021-2.275
			c-5.696-4.923-7.999-13.106-10.249-19.885c-4.587-13.845-11.438-27.159-15.047-41.096c-0.948-3.084-1.213-5.912-0.819-8.804"/>
		<path style="fill:none;stroke:#17192D;stroke-width:3;" d="M883.219,733.354c-0.767-4.686-0.166-8.866-2.213-13.118
			c-1.63-3.331-3.886-6.292-5.816-9.283"/>
		<path style="fill:none;stroke:#17192D;stroke-width:3;" d="M911.482,756.73c-2.312-7.073-9.151-9.617-17.356-12.661"/>
		<path style="fill:none;stroke:#17192D;stroke-width:3;" d="M897.248,706.686c-4.911,0.451-11.329-4.66-15.82-6.781
			c-4.548-2.747-9.694-4.807-15.316-4.918"/>
		<path style="fill:none;stroke:#17192D;stroke-width:3;" d="M893.23,745.101c-2.261-2.951-5.08-8.4-8.372-11.901"/>
		<path style="fill:none;stroke:#17192D;stroke-width:3;" d="M892.666,724.865c3.643-6.996,3.261-11.084-1.938-17.259"/>
		<path style="fill:none;stroke:#17192D;stroke-width:3;" d="M897.021,736.192c3.836,2.183,9.313,0.721,12.88,3.562"/>
		<path style="fill:none;stroke:#17192D;stroke-width:3;" d="M914.844,753.881c-1.964,0.182-4.071-1.212-5.494-2.339"/>
		<path style="fill:none;stroke:#17192D;stroke-width:3;" d="M894.358,743.1c4.599-7.4-0.127-12.035-4.911-17.302"/>
		<path style="fill:none;stroke:#17192D;stroke-width:3;" d="M866.95,711.078c5.765,1.688,8.091-1.698,12.32-2.408
			c3.276-0.301,9.843,2.892,11.13-1.033"/>
		<path style="fill:none;stroke:#17192D;stroke-width:3;" d="M897.234,734.906c1.881-4.612,4.062-9.57-1.177-12.576"/>
		<path style="fill:none;stroke:#17192D;stroke-width:3;" d="M885.429,728.707c3.879-4.481,5.767-12.581,0.739-16.873"/>
		<path style="fill:none;stroke:#17192D;stroke-width:3;" d="M898.911,728.092c2.705,0.702,4.849,2.401,7.195,2.818"/>
		<path style="fill:none;stroke:#17192D;stroke-width:3;" d="M844.086,713.831c0.723-2.919-1.562-9.683-3.523-12.987"/>
		<path style="fill:none;stroke:#17192D;stroke-width:3;" d="M863.894,685.358c1.228-1.067,2.355-3.07,3.574-4.136"/>
		<path style="fill:none;stroke:#17192D;stroke-width:3;" d="M886.249,662.998c-0.232-2.517-0.763-4.686-1.294-6.857"/>
		<path style="fill:none;stroke:#17192D;stroke-width:3;" d="M914.396,770.109c5.003,13.441-9.1,21.535-19.611,25.387"/>
		<path style="fill:none;stroke:#17192D;stroke-width:3;" d="M880.222,814.379c-0.047-0.953,0.275,6.326,0.038,7.918
			c-0.404,5.075-4.314,9.012-5.364,13.807"/>
		<path style="fill:none;stroke:#17192D;stroke-width:3;" d="M893.154,794.283c1.011,8.521-6.88,14.816-12.659,19.129"/>
		<path style="fill:none;stroke:#17192D;stroke-width:3;" d="M914.042,769.167c-3.239-2.104-6.734,4.032-9.176,5.706
			c-6.094,4.33-14.569,4.625-20.664,8.96c-3.039,2.321-5.092,5.56-8.117,8.196c-3.338,2.654-6.996,5.311-9.695,8.261
			c-5.079,5.88-6,13.507-8.515,20.563c-2.83,7.07-5.054,13.481-6.917,21.147c-1.011,5.418-4.172,12.186-2.037,17.809
			c2.189,6.893,8.768,13.32,12.183,19.53c4.453,8.085,8.853,15.214,13.594,22.964c4.45,8.083,8.606,16.81,13.974,24.222
			c5.352,7.411,11.812,11.308,17.741,17.433"/>
		<path style="fill:none;stroke:#17192D;stroke-width:3;" d="M934.813,925.229c1.404-3.685,1.437-8.665,2.271-12.669
			c0.817-3.953,1.853-8.043,2.613-11.895c2.332-11.893,3.253-23.713,1.531-36.072c-0.742-5.309-1.114-10.734-3.3-15.734
			c-2.25-5.164-1.211-10.219-1.947-15.846c-0.674-5.182-4.635-9.072-4.336-14.418c0.297-5.4,1.748-10.109,2.469-15.285
			c0.748-5.379-2.002-9.924-1.622-14.844c0.353-4.52,2.784-15.158-2.573-16.634c-3.579-0.976-6.938,0.868-9.181,3.523
			c-4.739,5.616-5.831,14.038-7.055,21.063c-2.503,14.335-7.221,28.44-8.784,42.752c-0.49,3.183-0.364,6.025,0.394,8.853"/>
		<path style="fill:none;stroke:#17192D;stroke-width:3;" d="M887.64,811.576c-0.102,4.764,1.021,8.84-0.35,13.32
			c-1.104,3.523-2.844,6.751-4.273,9.966"/>
		<path style="fill:none;stroke:#17192D;stroke-width:3;" d="M911.279,784.785c-1.245,7.326-7.379,10.712-14.745,14.771"/>
		<path style="fill:none;stroke:#17192D;stroke-width:3;" d="M904.454,836.334c-4.703,0.168-10.096,6.06-14.064,8.729
			c-3.943,3.302-8.535,5.995-13.844,6.814"/>
		<path style="fill:none;stroke:#17192D;stroke-width:3;" d="M895.554,798.641c-1.745,3.221-3.693,8.99-6.342,12.886"/>
		<path style="fill:none;stroke:#17192D;stroke-width:3;" d="M897.704,818.828c4.379,6.502,4.559,10.613,0.461,17.404"/>
		<path style="fill:none;stroke:#17192D;stroke-width:3;" d="M900.324,807.022c3.334-2.649,8.717-1.89,11.714-5.161"/>
		<path style="fill:none;stroke:#17192D;stroke-width:3;" d="M914.844,787.195c-1.881,0.069-3.692,1.715-4.891,3.014"/>
		<path style="fill:none;stroke:#17192D;stroke-width:3;" d="M896.887,800.489c5.333,6.78,1.479,11.985-2.347,17.82"/>
		<path style="fill:none;stroke:#17192D;stroke-width:3;" d="M875.204,835.775c5.233-2.406,7.879,0.67,11.978,0.848
			c3.14-0.113,8.93-4.121,10.669-0.377"/>
		<path style="fill:none;stroke:#17192D;stroke-width:3;" d="M900.695,808.276c2.39,4.349,5.116,9.003,0.562,12.653"/>
		<path style="fill:none;stroke:#17192D;stroke-width:3;" d="M890.347,815.926c4.263,3.965,7.127,11.785,2.941,16.676"/>
		<path style="fill:none;stroke:#17192D;stroke-width:3;" d="M903.187,814.84c2.471-1.039,4.268-2.999,6.436-3.705"/>
		<path style="fill:none;stroke:#17192D;stroke-width:3;" d="M853.204,835.906c1.075,2.812-0.194,9.828-1.607,13.36"/>
		<path style="fill:none;stroke:#17192D;stroke-width:3;" d="M875.724,861.728c1.302,0.906,2.641,2.757,3.936,3.666"/>
		<path style="fill:none;stroke:#17192D;stroke-width:3;" d="M899.845,881.158c0.12,2.528-0.094,4.752-0.314,6.981"/>
	</g>
	<path style="fill:none;stroke:#17192D;stroke-width:3;" d="M2048,0"/>
	<path style="fill:none;stroke:#17192D;stroke-width:3;" d="M2048,1536"/>
	<path style="fill:none;stroke:#17192D;stroke-width:3;" d="M0,1536"/>
	<path style="fill:none;stroke:#17192D;stroke-width:3;" d="M0,0"/>
</g>
<g id="Layer_1">
</g>
</svg>
