<svg xmlns="http://www.w3.org/2000/svg" width="2048" height="1536" viewBox="0 0 2048 1536"><g fill="none" stroke="#17192D" stroke-width="3"><path d="M898.41 706.41c-.12-.008-.236-.008-.356-.008.112.39.22.773.337 1.16.008.003.012.003.022.004.015-.385.026-.783 0-1.155zM910.502 811.247l.007-.017c-.147-.033-.296-.06-.453-.084.15.022.3.058.445.1zM907.03 728.71c-.2-.948-.766-2.002-1.08-2.655-.8-1.682-1.848-3.308-2.777-4.937 1.02 2.595 2.067 5.185 3.115 7.773.25-.064.502-.138.743-.18zM903.385 732.25c1.262-.253 2.59-.614 3.915-.836-.006-.01-.01-.03-.015-.044-1.33.257-2.713.257-3.9.88zM912.773 752.985c-.282.02-.526.074-.743.145 1.138.426 2.277.532 3.426.8-.52-.686-1.223-1.063-2.683-.945zM898.4 707.78c-.01.335-.013.642.026.9.19 1.186.54 2.472.768 3.71.52 2.89 2.313 5.78 3.732 8.308.078.14.163.28.246.42-1.743-4.414-3.367-8.85-4.723-13.33-.013 0-.02.01-.033.007-.004-.003-.014-.008-.016-.016zM898.41 707.566c.364.045.87.092 1.083-.114.253-.248.037-.728-.26-.912-.118-.073-.45-.117-.822-.13.028.373.017.77 0 1.156zM898.41 707.566c-.01 0-.013 0-.02-.005.007.026.01.043.013.066 0-.02 0-.04.008-.06zM892.604 707.282c.263-.25.654-.643 1.032-1.08-.12-.04-.24-.072-.363-.108-.06-.017-.126-.017-.182-.02-.378.04-.72.11-.96.267-.288.195-.833 1.17-.984 1.783.055.064.104.13.158.193.453-.307.897-.655 1.3-1.034zM893.197 706.063l-.106.01c.057.004.122.004.183.02l-.076-.03zM894.32 706.397c.782.198 1.542.3 2.276.307-.896-.355-1.93-.607-2.832-.652l-.11.13c.223.06.447.128.667.215zM898.418 707.795c.014.003.02-.008.032-.008-.014-.053-.027-.107-.047-.16 0 .053 0 .104-.002.152.003.007.013.012.018.015zM898.403 707.627c-.002-.023-.006-.04-.013-.065l-.245-.026c-.008 0-.018-.005-.03-.005.103.084.215.17.286.25.003-.05.003-.1.003-.153zM893.636 706.2c.232.07.458.145.686.197-.22-.088-.444-.156-.666-.217l-.02.02zM894.32 706.397c.47.19.922.407 1.387.59.793.31 1.57.462 2.407.543-.362-.297-.894-.582-1.518-.826-.734-.008-1.493-.108-2.275-.307zM893.655 706.18l.11-.128c-.204-.007-.386 0-.568.012l.075.03c.13.02.258.052.383.087zM903.483 814.45c-.02.07-.025.16-.03.263l.083-.037c-.015-.076-.04-.15-.053-.226zM901.098 827.646c.007 1.074-.172 2.168-.5 3.298.162-.31.3-.608.364-.85.184-.733.193-1.586.136-2.448zM909.804 811.103c.09.016.164.026.253.044-.085-.014-.167-.038-.253-.044zM900.524 824.36c.268.953.49 2.125.573 3.286-.008-1.084-.217-2.17-.573-3.285zM911.298 811.64c.002-.095.016-.202.016-.293-.15-.023-.3-.04-.44-.064-.11-.017-.245-.042-.362-.06l-.01.024c.275.09.54.217.796.394zM941.23 864.594c1.72 12.36.8 24.18-1.532 36.072-.274 1.39-.592 2.82-.912 4.252 1.628-.422 3.224-.832 4.603-.97 3.53-.352 7.755.705 11.278-.7-3.538-20.385-11.28-39.72-18.03-59.305.215 1.645.576 3.273 1.292 4.916 2.184 5 2.556 10.425 3.3 15.734zM904.896 836.154c.078-.254.107-.53.22-.766.017-.033.022-.068.034-.104-.503.235-.984.545-1.45.875.403.03.81.056 1.196-.006zM903.203 836.522l.01-.006c-.01 0-.018.002-.018.002l.008.004zM905.15 835.285c.097-.04.19-.08.29-.12.18-1.224.383-2.446.6-3.673-.084.262-.186.516-.252.782-.244 1-.22 2.077-.64 3.01zM900.597 830.944c-.58 1.104-1.56 2.532-1.61 3.725.012 0 .022.007.03.008.706-1.323 1.234-2.56 1.58-3.734zM906.04 831.492c.227-.683.486-1.355.676-2.07.53-2.024.924-4.046 1.54-6.03 1.087-3.523 2.976-8.483 3.042-11.75-.256-.178-.52-.305-.796-.395-1.607 6.75-3.268 13.487-4.463 20.245zM910.057 811.146c-.09-.018-.163-.028-.253-.044-1.363-.11-2.86.587-4.07 1.443-.564.396-1.184.763-1.693 1.237-.362.345-.503.477-.556.667.014.075.037.148.053.225 2.293-1.072 4.027-2.87 6.086-3.54-2.06.67-3.793 2.468-6.086 3.54.475 2.23.064 4.375-2.28 6.254 2.345-1.88 2.755-4.026 2.28-6.255l-.083.037c-.002.164.005.378.002.72-.015 1.306-.465 2.51-1.146 3.586-.573.896-1.47 1.603-1.916 2.554-.446.957-.175 1.717.113 2.71.008.022.01.058.02.08.354 1.114.563 2.2.572 3.284.057.86.047 1.715-.137 2.447-.064.242-.202.54-.365.85-.346 1.174-.874 2.412-1.58 3.734.234.113.47.217.69.334.59.303 1.122.72 1.716 1.025.112.062.214.104.312.144.088-.015.187-.028.265-.04.572-.084 1.14-.023 1.7.02.466-.33.947-.64 1.45-.875.42-.935.395-2.01.64-3.01.065-.268.167-.522.25-.783 1.195-6.758 2.855-13.494 4.463-20.245-.145-.043-.297-.08-.446-.1zM898.987 834.67c0 .017.006.038.006.054.01-.01.015-.027.023-.046-.008 0-.018-.007-.03-.01zM902 836.14c-.078.013-.177.026-.265.04.45.197.822.266 1.38.33.02.006.05.01.07.01l.026-.003c.16-.12.325-.24.487-.356-.557-.043-1.126-.103-1.697-.02zM899.707 835.012c-.222-.117-.456-.22-.69-.334-.01.02-.015.035-.023.046-.006.446.104.86.447 1.198.54.533 1.537.384 2.296.258-.1-.04-.2-.08-.312-.144-.595-.306-1.127-.723-1.717-1.024zM893.272 706.094c.124.036.243.07.363.107l.014-.016c-.12-.038-.25-.07-.378-.09zM914.604 780.164c-.758 2.03-1.99 3.873-3.525 5.537-.1.415-.215.817-.35 1.21.08.485.332.9.892 1.168.166.078.34.126.507.172.842-.587 1.768-1.02 2.714-1.055-.946.035-1.872.468-2.715 1.055 1.096.283 2.353-.074 3.246-.8.458-1.956 1.022-3.882 1.74-5.72-.773-.64-1.607-1.187-2.512-1.566zM915.25 772.39c-.06.007-.118.007-.174.013.023.123.054.25.076.373.013-.025.027-.058.044-.087.012-.1.033-.2.053-.3zM910.77 786.02c-.06.313-.08.61-.038.89.134-.393.248-.795.348-1.21-.102.11-.208.216-.31.32zM920.738 775.356c-1.573 1.86-2.718 4.048-3.622 6.375.11.095.222.188.332.284.11-.34.21-.685.383-1.01.712-1.362 1.694-2.966 2.696-4.144 1.24-1.45 2.975-2.58 4.38-3.812.658-.578 1.02-.79 1.2-1.242-2.082.524-3.95 1.872-5.368 3.55zM915.173 772.913c-.152 1.584.113 3.208-.46 4.737-.28.753-.622 1.493-.99 2.223.297.084.596.173.882.29.81-2.193 1.068-4.606.568-7.25zM911.28 784.785c-.06.314-.13.615-.2.916 1.535-1.663 2.767-3.506 3.524-5.536-.286-.118-.585-.207-.883-.29-.473.955-.988 1.895-1.476 2.822-.422.794-1.246 2.14-1.477 3.325.104-.104.21-.21.31-.32.074-.3.145-.6.202-.915zM915.152 772.775c.01.046.013.09.02.138.008-.073.01-.147.024-.225-.016.03-.03.062-.044.087zM926.416 769.613c.074-.645.182-1.24.318-1.69.007-.117-.005-.22-.02-.324-.89-.418-1.722-.967-2.49-1.62-.567-.358-1.112-.744-1.614-1.175-3.242-2.798-5.363-6.656-7.02-10.703-.04-.067-.09-.117-.135-.174-1.148-.267-2.288-.373-3.426-.8-1.11.35-1.39 1.242-1.1 2.205.078.168.144.347.212.52 4.49 3.537 7.184 8.38 5.61 14.968 1.573-6.586-1.12-11.43-5.61-14.968h.002c.14.282.312.565.532.832 1.42 1.7 2.595 2.943 3.57 4.938.404.834 1.385 1.59 1.58 2.458.18.814.005 1.954-.034 2.783-.023.457-.04 1.03-.104 1.575-.014 1.43-.695 2.685-1.333 3.926.403-.086.79-.266 1.157-.562-.367.297-.754.477-1.157.562-.056.11-.108.214-.16.323-.015.077-.018.15-.024.225.5 2.644.243 5.057-.567 7.25.904.38 1.738.927 2.512 1.568.904-2.327 2.05-4.515 3.622-6.375 1.42-1.68 3.286-3.026 5.367-3.55.106-.254.15-.588.145-1.113 0-.314.078-.69.166-1.08zM915.376 787.45c.365-.298.676-.655.88-1.054.675-1.314.728-2.906 1.192-4.382-.11-.097-.222-.19-.332-.283-.718 1.838-1.282 3.764-1.74 5.72zM926.416 769.613c-.088.39-.167.765-.166 1.08.005.525-.038.86-.145 1.113.07-.018.144-.02.214-.037-.024-.63.013-1.408.096-2.157zM866.39 800.29c2.7-2.95 6.357-5.606 9.695-8.26 3.025-2.638 5.078-5.876 8.117-8.197 6.095-4.335 14.57-4.63 20.664-8.96 1.398-.956 3.142-3.373 4.983-4.87-1.353-1.045-2.624-2.138-3.655-2.632-6.928-3.483-15.77-2.664-22.7-6.143-3.477-1.9-6.06-4.832-9.562-7.036-3.838-2.187-8.003-4.33-11.215-6.89-6.088-5.146-8.103-12.563-11.69-19.21-3.92-6.61-7.12-12.653-10.117-19.99-1.804-5.22-6.022-11.49-4.58-17.33.58-3.11 2.045-6.25 3.738-9.348-7.918 2.6-15.96 4.92-23.545 7.908-13.392 5.28-31.72 4.573-45.812 3.168-8.104-.704-14.448-5.632-22.203-7.037-3.877-1.053-9.514 1.406-13.04 0l-2.114-.705c0 6.023 1.78 11.584.626 17.516-1.03 5.317-1.476 10.903-2.027 16.616-.256 2.652-1.552 5.627-1.066 8.442.646 3.756 3.656 1.747 5.906 4.938 1.18 1.675 2.237 5.226 3.258 7.354 1.17 2.446 2.1 4.912 2.84 7.392 2.832 9.457 5.823 18.47 8.955 27.97 1.6 4.855 3.256 10.36 3.982 15.327.45 3.058.242 13.15 5.365 12.31l-1.408-1.406c1.764 2.814 19.384-1.762 24.318-1.407 10.928 1.053 22.203 4.923 32.066 9.498 13.125 6.15 25.84 14.944 36.908 24.986 1.393-4.548 2.968-8.857 4.8-13.438 2.514-7.055 3.435-14.682 8.514-20.562zM926.734 767.923c.027-.083.05-.177.08-.25-.03.074-.052.167-.08.25-.032.504-.182 1.105-.318 1.69-.083.75-.12 1.527-.097 2.156.12-.026.245-.042.363-.066.05-.366.09-.73.143-1.1.13-.93.272-1.86.414-2.79-.177-.068-.354-.137-.524-.216.013.107.025.208.018.325zM931.517 673.934c-.035 5.343.326 10.753-1.246 15.986-1.622 5.394.158 10.254.18 15.91.015 5.205-3.56 9.575-2.512 14.815.73 3.65 1.98 6.9 3.164 10.212.093-6.23.385-12.528 1.363-18.655 1.062-2.815 1.412-5.98 2.116-8.798 5.64-16.185 12.34-32.015 18.327-48.2 3.524-9.498 8.46-17.94 13.04-26.737 3.878-8.443-1.763-12.314-10.572-12.314l.707-.703c-.707 0-1.06-.355-1.764-.355-6.698-.7-14.45 9.148-19.03 13.726-3.276 3.595-6.574 6.58-10.42 9.528.02.046.035.092.054.137 4.075 11.45 6.668 23.004 6.595 35.45zM926.716 767.6c-.01-.086.012-.19-.017-.264.028.074.007.178.016.263.17.078.348.146.524.214.023-.153.046-.302.067-.455-1.088-.29-2.12-.778-3.083-1.38.77.653 1.6 1.202 2.492 1.62zM907.03 728.71c-.24.042-.49.116-.742.182.173.435.345.867.52 1.296.3-.38.345-.9.223-1.478zM903.122 730.156c.755.342 1.512.6 2.28.584-.655-.19-1.302-.452-1.95-.752-.116.056-.22.114-.33.168zM891.146 708.122c-.033.13-.053.247-.04.332.06-.04.13-.09.198-.14-.055-.063-.104-.127-.158-.192zM903.45 729.988c.65.3 1.297.562 1.95.752.213-.006.423-.01.636-.06.376-.096.604-.276.77-.493-.174-.43-.346-.86-.52-1.296-.935.26-1.914.65-2.835 1.098zM899.298 728.21c-.023.256-.053.51-.093.77 1.36-.16 2.644.6 3.917 1.177.11-.055.214-.112.33-.168-1.308-.603-2.65-1.327-4.154-1.78zM891.304 708.315c-.067.048-.137.1-.2.14 0 0-.003.015 0 .023.128.752 1.4 1.824 1.907 2.515 2.38 3.23 1.116 6.533 1.252 10.267 1.657-4.73.785-8.27-2.958-12.945zM896.058 722.33c2.7 1.55 3.422 3.613 3.24 5.88 1.504.453 2.846 1.177 4.153 1.778.922-.447 1.9-.837 2.838-1.097-1.048-2.588-2.096-5.178-3.115-7.772-.083-.14-.168-.28-.246-.42-1.42-2.528-3.21-5.417-3.732-8.308-.23-1.238-.578-2.524-.768-3.71-.04-.26-.036-.565-.025-.9-.07-.08-.184-.167-.287-.25-.836-.08-1.614-.232-2.407-.543-.465-.183-.918-.4-1.386-.59-.228-.053-.453-.126-.686-.196-.378.44-.77.832-1.032 1.082-.402.38-.847.727-1.3 1.033 3.743 4.675 4.615 8.214 2.958 12.944.007.068 0 .136.002.202 3.074.97 4.527 3.764 4.858 6.695.06.02.115.035.176.053.18-2.267-.54-4.33-3.24-5.88zM899.122 728.158c.032.27.07.546.08.82h.003c.04-.258.07-.513.093-.768-.06-.017-.115-.032-.176-.052zM915.357 772.365c-.04.01-.07.014-.108.023-.022.1-.042.2-.054.3.053-.11.106-.212.16-.323zM911.144 755.85l.002.003h-.002zM916.69 768.44c-.042.374-.1.734-.2 1.03-.278.795-.946 1.61-1.16 2.46-.037.154-.058.306-.08.458.036-.01.068-.015.107-.023.638-1.24 1.32-2.496 1.333-3.926zM910.932 755.334c.053.172.124.347.212.516v.003c-.07-.172-.134-.35-.212-.52zM924.225 765.98c-1.845-1.57-3.38-3.67-4.738-5.57-1.012-1.416-2.026-2.835-2.87-4.403-.397-.745-.68-1.397-1.026-1.904 1.658 4.047 3.78 7.905 7.022 10.703.5.43 1.045.816 1.613 1.173zM926.734 767.923c-.137.45-.244 1.045-.318 1.69.137-.585.286-1.185.318-1.69zM915.523 753.942c-.022-.008-.042-.01-.067-.014.045.057.095.106.134.174-.02-.05-.046-.106-.067-.16zM912.03 753.13c-.535-.202-1.068-.467-1.6-.86-.578-.425-1.433-.942-2.176-.82 1.095 1.118 2.002 2.387 2.677 3.885-.288-.964-.01-1.856 1.1-2.205zM751.062 691.077c4.4-.23 9.722 2.542 13.887 3.697 3.932 1.154 7.864 2.08 12.03 1.85M826.262 689.923c-3.933 1.618-8.56 3.466-12.26 5.31M779.062 704.475c-6.25.695-16.2 1.852-21.752 5.545M771.195 786.48c-3.702-1.848-10.412-4.62-15.272-6.005M777.21 797.107c3.934-.692 8.098-.923 12.03-.23M854.493 828.29c-3.01-8.31-12.266-14.78-19.436-18.708M848.016 824.596c-1.622-3.695-7.177-8.314-11.107-9.703M836.443 691.54c-.69-.693-11.107 5.314-13.187 6.467M955.838 615.31c-3.007 1.39-6.246 6.47-8.79 9.24-4.86 5.082-10.646 9.24-15.043 14.783M960.468 616.698c-1.158 6.93-8.563 12.934-12.035 19.172-2.776 4.85-4.858 10.396-7.635 15.242M947.047 655.966c-1.39 4.39-3.936 8.087-6.015 12.242-1.853 4.157-2.55 8.316-4.397 12.475M944.964 891.12c1.388 3.93 1.618 8.55 2.546 12.706M842 731.503c-.698-1.847-2.084-4.16-3.706-5.543M758.25 706.747c-1.8-.51-4.37-.382-5.657 1.03M760.18 785.195c2.06.386 3.346 2.823 4.243 4.495M761.982 795.98c-1.932.382-4.372.513-6.173 1.41M855.16 779.127c0 6.117 5.255 16.608 7.884 22.73M871.798 759.892c-2.627 6.997-3.502 14.86-1.75 22.733M843.776 801.855c-11.385 0-23.642-7.867-35.025-10.49M916.755 770.82c3.33-13.937-12.438-20.086-23.89-22.508M875.124 731.56c.09.948-.58-6.286-1.056-7.83-1.12-4.963-5.73-8.34-7.48-12.936M891.347 749.722c-.136-8.55-9.203-13.738-15.8-17.244M916.515 771.803c-3.07 2.5-7.552-3.105-10.32-4.432-6.927-3.483-15.77-2.664-22.7-6.143-3.476-1.9-6.058-4.832-9.56-7.036-3.84-2.187-8.004-4.33-11.216-6.89-6.09-5.146-8.104-12.563-11.69-19.21-3.92-6.61-7.122-12.653-10.118-19.99-1.805-5.22-6.023-11.49-4.58-17.33 1.315-7.097 7.253-14.31 9.94-20.896 3.5-8.57 7.08-16.2 10.933-24.478 3.497-8.572 6.608-17.737 11.144-25.77 4.532-8.03 10.7-12.722 16.012-19.558M916.443 614.854c1.972 3.457 2.694 8.378 4.117 12.22 1.397 3.803 3.037 7.707 4.36 11.41 4.076 11.452 6.67 23.006 6.596 35.45-.035 5.343.326 10.753-1.246 15.986-1.623 5.394.157 10.254.178 15.91.016 5.205-3.56 9.575-2.51 14.815 1.06 5.3 3.222 9.764 4.686 14.784 1.52 5.218-.705 10.064.373 14.876.99 4.422 4.994 14.617-.366 16.774-3.575 1.435-7.32.056-10.02-2.275-5.696-4.923-8-13.106-10.25-19.885-4.586-13.845-11.437-27.16-15.046-41.096-.948-3.084-1.213-5.912-.82-8.804M883.22 733.354c-.768-4.686-.167-8.866-2.214-13.118-1.63-3.33-3.886-6.292-5.816-9.283M911.482 756.73c-2.312-7.073-9.15-9.617-17.356-12.66M897.248 706.686c-4.91.45-11.33-4.66-15.82-6.78-4.548-2.748-9.694-4.808-15.316-4.92M893.23 745.1c-2.26-2.95-5.08-8.4-8.372-11.9M892.666 724.865c3.643-6.996 3.26-11.084-1.938-17.26M897.02 736.192c3.837 2.183 9.314.72 12.88 3.562M914.844 753.88c-1.964.183-4.07-1.21-5.494-2.338M894.358 743.1c4.6-7.4-.127-12.035-4.91-17.302M866.95 711.078c5.765 1.688 8.09-1.698 12.32-2.408 3.276-.3 9.843 2.892 11.13-1.033M897.234 734.906c1.88-4.612 4.062-9.57-1.177-12.576M885.43 728.707c3.878-4.48 5.766-12.58.738-16.873M898.91 728.092c2.706.702 4.85 2.4 7.196 2.818M844.086 713.83c.723-2.918-1.562-9.682-3.523-12.986M863.894 685.358c1.228-1.067 2.355-3.07 3.574-4.136M886.25 662.998c-.233-2.517-.764-4.686-1.295-6.857M914.396 770.11c5.003 13.44-9.1 21.534-19.61 25.386M880.222 814.38c-.047-.954.275 6.325.038 7.917-.404 5.075-4.314 9.012-5.364 13.807M893.154 794.283c1.01 8.52-6.88 14.816-12.66 19.13M914.042 769.167c-3.24-2.104-6.734 4.032-9.176 5.706-6.094 4.33-14.57 4.625-20.664 8.96-3.04 2.32-5.092 5.56-8.117 8.196-3.338 2.653-6.996 5.31-9.695 8.26-5.08 5.88-6 13.507-8.515 20.563-2.83 7.07-5.054 13.48-6.917 21.147-1.01 5.418-4.172 12.186-2.037 17.81 2.19 6.892 8.77 13.32 12.184 19.53 4.453 8.084 8.853 15.213 13.594 22.963 4.45 8.083 8.606 16.81 13.974 24.222 5.352 7.41 11.812 11.308 17.74 17.433M934.813 925.23c1.404-3.686 1.437-8.666 2.27-12.67.818-3.953 1.854-8.043 2.614-11.895 2.332-11.893 3.253-23.713 1.53-36.072-.74-5.31-1.113-10.734-3.3-15.734-2.25-5.165-1.21-10.22-1.946-15.847-.673-5.182-4.634-9.072-4.335-14.418.297-5.4 1.748-10.11 2.47-15.285.747-5.38-2.003-9.924-1.623-14.844.353-4.52 2.784-15.158-2.573-16.634-3.58-.976-6.94.868-9.182 3.523-4.74 5.616-5.83 14.038-7.055 21.063-2.503 14.335-7.22 28.44-8.784 42.752-.49 3.183-.365 6.025.393 8.853M887.64 811.576c-.102 4.764 1.02 8.84-.35 13.32-1.104 3.523-2.844 6.75-4.273 9.966M911.28 784.785c-1.246 7.326-7.38 10.712-14.746 14.77M904.454 836.334c-4.703.168-10.096 6.06-14.064 8.73-3.943 3.3-8.535 5.994-13.844 6.813M895.554 798.64c-1.745 3.222-3.693 8.99-6.342 12.887M897.704 818.828c4.38 6.502 4.56 10.613.46 17.404M900.324 807.022c3.334-2.65 8.717-1.89 11.714-5.16M914.844 787.195c-1.88.07-3.692 1.715-4.89 3.014M896.887 800.49c5.333 6.78 1.48 11.984-2.347 17.82M875.204 835.775c5.233-2.406 7.88.67 11.978.848 3.14-.113 8.93-4.12 10.67-.377M900.695 808.276c2.39 4.35 5.116 9.003.562 12.653M890.347 815.926c4.263 3.965 7.127 11.785 2.94 16.676M903.187 814.84c2.47-1.04 4.268-3 6.436-3.705M853.204 835.906c1.075 2.812-.194 9.828-1.607 13.36M875.724 861.728c1.302.906 2.64 2.757 3.936 3.666M899.845 881.158c.12 2.528-.094 4.752-.314 6.98M2048 0M2048 1536M0 1536M0 0"/></g></svg>