<?xml version="1.0" encoding="iso-8859-1"?>
<!-- Generator: Adobe Illustrator 15.1.0, SVG Export Plug-In . SVG Version: 6.00 Build 0)  -->
<!DOCTYPE svg PUBLIC "-//W3C//DTD SVG 1.1//EN" "http://www.w3.org/Graphics/SVG/1.1/DTD/svg11.dtd">
<svg version="1.1" xmlns="http://www.w3.org/2000/svg" xmlns:xlink="http://www.w3.org/1999/xlink" x="0px" y="0px" width="2048px"
	 height="1536px" viewBox="0 0 2048 1536" style="enable-background:new 0 0 2048 1536;" xml:space="preserve">
<g id="c3a_x5F_kopf">
	<g>
		<path style="fill:none;stroke:#17192D;stroke-width:3;" d="M1507.261,707.242c-14.021-2.379-24.24,0.221-37.904-3.39
			c-5.604-1.405-13.32-2.261-17.529-7.828"/>
		<path style="fill:none;stroke:#17192D;stroke-width:3;" d="M1576.296,784.191c-4.436-0.375-8.872-0.561-12.373-2.994"/>
		<path style="fill:none;stroke:#17192D;stroke-width:3;" d="M1576.296,758.941c-4.201-0.375-9.805,0-12.605,2.806"/>
		<path style="fill:none;stroke:#17192D;stroke-width:3;" d="M1554.118,786.248c0.932,1.309,1.399,2.805,2.334,3.928
			c0.933-2.432,2.335-7.48-0.935-8.979"/>
		<path style="fill:none;stroke:#17192D;stroke-width:3;" d="M1556.218,758.941c1.167-1.31,1.635-2.62,1.635-4.115
			c0-2.433-3.034-4.489-3.034-1.122"/>
		<path style="fill:none;stroke:#17192D;stroke-width:3;" d="M1553.65,748.84c3.036-4.115,10.272-7.482,15.409-2.806"/>
		<path style="fill:none;stroke:#17192D;stroke-width:3;" d="M1555.985,778.766c-3.736-3.178-4.67-13.841,2.1-15.337"/>
		<path style="fill:none;stroke:#17192D;stroke-width:3;" d="M1552.949,792.982c2.568,2.432,4.436,4.303,8.406,3.928
			c4.436-0.375,6.536-2.244,10.038-4.115"/>
		<path style="fill:none;stroke:#17192D;stroke-width:3;" d="M1579.332,792.982c2.101-0.188,2.568-1.496,3.736-2.619"/>
		<path style="fill:none;stroke:#17192D;stroke-width:3;" d="M1581.433,750.896c-1.633,0-3.269-0.187-3.968-1.309"/>
		<path style="fill:none;stroke:#17192D;stroke-width:3;" d="M1618.385,733.755c-1.711,2.199-1.955,5.376-3.666,7.574"/>
		<path style="fill:none;stroke:#17192D;stroke-width:3;" d="M1623.517,724.226"/>
		<path style="fill:none;stroke:#17192D;stroke-width:3;" d="M1615.698,739.619c-2.2-10.995-5.377-19.793-0.245-30.299"/>
		<path style="fill:none;stroke:#17192D;stroke-width:3;" d="M1613.985,831.252c-0.242-10.75-6.842-22.725,0.49-32.498"/>
		<path style="fill:none;stroke:#17192D;stroke-width:3;" d="M1614.719,798.02"/>
		<path style="fill:none;stroke:#17192D;stroke-width:3;" d="M1602.257,824.166c1.711-2.197,0-9.041,0-12.461
			c0-5.865,3.177-7.33,5.132-12.217"/>
		<path style="fill:none;stroke:#17192D;stroke-width:3;" d="M1606.9,735.71c-5.375-6.599-4.644-18.083-1.709-25.413"/>
		<path style="fill:none;stroke:#17192D;stroke-width:3;" d="M1621.317,789.469c-2.688-1.955-5.864-2.199-9.287-0.979"/>
		<path style="fill:none;stroke:#17192D;stroke-width:3;" d="M1622.783,750.371c-3.665,1.711-6.598,0.977-10.508,0"/>
		<path style="fill:none;stroke:#17192D;stroke-width:3;" d="M1590.284,849.336c-6.841-0.979-13.928,0.977-20.525-1.711
			c-7.087-2.688-11.729-8.553-18.326-12.219"/>
		<path style="fill:none;stroke:#17192D;stroke-width:3;" d="M1555.342,701.988c6.354-10.262,18.815-15.149,30.3-16.127
			c7.33-0.489,11.974,1.954,18.57,4.397c5.377,1.956,10.996,0,16.616,0c6.599,0,13.684,0.734,20.038-0.243
			c5.618-0.733,10.263-1.467,16.126-1.467"/>
		<path style="fill:none;stroke:#17192D;stroke-width:3;" d="M1650.396,848.846c-4.887,0-9.285-1.465-13.929-1.709
			c-4.643-0.244-9.285,1.709-13.927,1.221c-2.688-0.244-4.644-1.465-7.087-1.955c-2.688-0.244-4.398,0.734-7.087,1.711
			c-4.888,1.955-8.796,2.199-13.928,1.955"/>
		<path style="fill:none;stroke:#17192D;stroke-width:3;" d="M1524,798.031c3.034-6.359,16.576-11.596,14.007-20.012
			c-1.402-4.863-3.969-6.174-1.634-11.598c1.868-4.489,3.036-9.165,0-13.467c-2.803-4.489-11.673-8.604-13.074-12.719"/>
		<path style="fill:none;stroke:#17192D;stroke-width:3;" d="M1520.73,798.031c-1.4-2.992-5.603-6.172-7.938-8.979
			c-3.035-3.926-5.37-8.416-6.304-13.092c-2.102-9.912,4.435-18.891,10.506-27.121c1.867-2.432,3.268-4.489,3.502-7.482"/>
		<path style="fill:none;stroke:#17192D;stroke-width:3;" d="M1521.897,793.355c-2.101-7.107,0.467-16.459,0.7-23.566
			c0.234-8.23-0.7-16.085-0.7-24.315c0-0.561,0-0.936,0-1.496"/>
		<path style="fill:none;stroke:#17192D;stroke-width:3;" d="M1560.312,726.751c-5.023-3.684-14.615-4.254-18.494-8.72"/>
		<path style="fill:none;stroke:#17192D;stroke-width:3;" d="M1556.261,807.646c-4.899,4.357-17.919,8.627-24.754,7.686"/>
		<path style="fill:none;stroke:#17192D;stroke-width:3;" d="M1601.28,735.222c-1.222,0.732-18.082-17.35-20.77-19.304"/>
		<path style="fill:none;stroke:#17192D;stroke-width:3;" d="M1577.822,687.083c-10.507,1.712-21.015,3.91-31.522,5.132
			c-12.46,1.222-22.235,6.354-33.23,11.729c-13.439,6.354-22.236,16.127-32.743,26.146c-10.753,9.774-12.219,21.259-13.196,34.944
			c-0.244,5.621,1.955,10.752,1.711,16.127c-0.244,5.865,1.954,10.02,2.688,15.883c1.71,15.15,13.685,17.594,24.435,25.414
			c8.798,6.842,19.305,13.195,30.056,17.104c4.887,1.711,10.265,1.711,15.151,2.934c5.376,1.465,10.507,3.42,16.128,4.154
			c3.419,0.488,7.085,0.244,10.506,0.244"/>
		<path style="fill:none;stroke:#17192D;stroke-width:3;" d="M1658.947,848.846c10.263-0.488,20.282,0.979,29.812-3.908
			c6.108-2.934,11.973-7.088,16.371-12.463c3.909-4.887,9.041-10.506,12.217-15.883c6.109-10.508,5.376-20.77,5.62-32.498
			c0.489-12.463,3.422-25.17,1.467-37.633c-2.199-13.683-10.263-26.146-17.105-37.874c-3.909-6.599-7.818-11.486-15.149-14.172
			c-5.375-1.956-10.996-2.2-16.616-3.177c-5.62-1.223-11.729-3.423-17.593-3.178c0,0.488,0,0.978,0,1.222"/>
		<path style="fill:none;stroke:#17192D;stroke-width:3;" d="M1619.118,851.045c7.086,1.711-1.71,6.109-4.643,6.598
			c-5.132,0.734-10.752,0.49-15.884,0.246c-6.841-0.246-13.684-1.223-20.524-1.223c-6.598,0-9.775-1.223-12.219-7.574
			c-0.245,0-0.245-0.246-0.245-0.246"/>
		<path style="fill:none;stroke:#17192D;stroke-width:3;" d="M1617.653,688.061c0,0.244,0,0.734,0,0.978
			c1.465-0.733,3.908-3.666,4.153-5.375c0.733-3.178-0.245-3.422-3.422-4.154c-4.887-1.468-10.996-0.978-16.128-0.489
			c-6.597,0.733-13.927-0.244-20.525,1.466c-1.71,0.489-17.104,5.62-11.484,8.063"/>
		<path style="fill:none;stroke:#17192D;stroke-width:3;" d="M1605.679,687.083c1.956-1.222,4.888-2.199,5.863-4.154
			c-2.198-0.488-5.62-0.732-7.818-0.488c-2.688,0.488-3.177,1.955-5.375,3.421"/>
		<path style="fill:none;stroke:#17192D;stroke-width:3;" d="M1607.389,852.268c0.246,0.488,0.246,0.732,0.489,0.977
			c-2.444,2.445-6.843,1.467-10.019,0.979"/>
		<path style="fill:none;stroke:#17192D;stroke-width:3;" d="M1623.028,853.734c3.42,1.709,10.262-0.734,14.66,0
			c5.621,0.488,10.996-0.979,17.105-0.244c4.153,0.244,5.863-1.467,9.285-2.445c2.198-0.732,5.621-0.977,8.064-1.221
			c5.863-0.732,12.705,1.221,18.081-1.711c4.644-2.688,10.508-7.574,14.173-11.484c2.932-2.934,2.932-5.621,5.132-8.553
			c1.71-2.199,4.154-4.887,5.863-6.842c2.2-2.199,4.887-3.91,6.599-6.842c1.221-2.443,2.199-7.574,4.154-9.529
			c2.932-2.688,5.863-0.979,7.574-5.131c0.489-1.223,0-2.445,0.732-3.91c0.733-1.467,2.688-1.955,2.934-3.666
			c0.243-2.199-1.221-4.398-1.221-6.598c-0.245-2.443-0.49-4.887-0.49-7.33c0-2.688,0.49-5.131,0-7.82
			c-0.732-4.398-0.244-4.643,2.688-8.308c-3.911-1.467,0-7.087-4.154-9.285c1.956-3.423-2.688-8.064-2.443-11.975
			c0.243-3.665,0.977-3.665-1.222-7.33c-1.222-2.199-1.955-4.399-5.132-3.91c0-3.421-4.644-4.398-6.109-7.33
			c-0.487-1.221,0-2.934-0.978-4.154c-0.978-1.466-2.688-1.466-3.666-2.443c-0.731-0.978-0.242-2.443-0.976-3.177
			c-0.979-1.222-2.688-1.954-3.422-3.176c-2.199-2.688-0.978-4.644-4.153-7.087c-1.223-1.222-2.688-1.222-3.666-2.688
			c-0.977-1.466-0.488-3.42-1.955-4.643c-1.954-1.955-7.818-3.909-10.506-4.644c-6.598-1.464-12.708-0.977-19.305-1.954
			c-4.154-0.489-9.286-2.199-13.439-3.421c-1.711-0.488-3.422-1.71-5.62-2.199c-2.933-0.488-5.377,0.489-8.308,0.733
			c0-0.244,0.243-0.489,0.488-0.978c-4.399,0.244-8.309-1.466-12.463-0.244c-4.153,0.978-7.818,1.467-12.461,0.732"/>
		<path style="fill:none;stroke:#17192D;stroke-width:3;" d="M1636.857,742.186c0.732-5.482,0.365-13.155,4.02-15.713
			c-2.557-3.653-2.557-8.404-3.654-12.423c-1.095-4.387-4.384-6.944-5.114-11.33c8.404-1.095,7.308,5.848,10.598,10.964
			c1.46,2.559,2.922,3.287,4.019,6.576c1.096,2.925,0.73,5.848,1.096,9.136c0.366,3.289,1.098,10.598-1.827,13.887
			c0.731-0.731-7.673,2.923-5.116,3.287c-2.557-0.364-4.02-1.46-3.287-4.75c-0.732,0-1.097,0-1.827,0"/>
		<path style="fill:none;stroke:#17192D;stroke-width:3;" d="M1631.012,833.539c-2.192,1.463,2.924-3.287,3.288-4.385
			c1.097-1.826,2.923-10.23,3.29-12.424c0-3.287-1.462-7.674-1.462-10.963c0-2.191-1.828-9.865-1.098-11.693
			c0.732-1.461,4.751-3.652,6.212-3.287c3.656,0,1.829-0.365,3.656,2.191c3.653,4.75,1.095,6.213,0.364,10.232
			c-0.73,3.289-1.097,8.039-1.461,11.693c-0.366,5.115,1.826,8.77-1.096,13.154c-1.464,2.193-6.213,7.309-8.406,8.039
			c-3.288,1.096-5.847,0-3.288-3.654"/>
		<path style="fill:none;stroke:#17192D;stroke-width:3;" d="M1437.468,798.805c-10.78,0-21.563,0-32.343-3.588"/>
		<path style="fill:none;stroke:#17192D;stroke-width:3;" d="M1435.053,738.784c-7.005,0-17.074,3.493-23.205,6.551"/>
		<path style="fill:none;stroke:#17192D;stroke-width:3;" d="M1457.824,782.494c-3.502-1.314-6.567-1.75-9.193-3.934"/>
		<path style="fill:none;stroke:#17192D;stroke-width:3;" d="M1508.118,828.689c-13.043,2.033-26.196,2.076-38.957,5.352
			c-5.23,1.27-12.39,1.932-16.486,7.41"/>
	</g>
	<path style="fill:none;stroke:#17192D;stroke-width:3;" d="M2048,0"/>
	<path style="fill:none;stroke:#17192D;stroke-width:3;" d="M2048,1536"/>
	<path style="fill:none;stroke:#17192D;stroke-width:3;" d="M0,1536"/>
	<path style="fill:none;stroke:#17192D;stroke-width:3;" d="M0,0"/>
</g>
<g id="Layer_1">
</g>
</svg>
