<?xml version="1.0" encoding="iso-8859-1"?>
<!-- Generator: Adobe Illustrator 15.1.0, SVG Export Plug-In . SVG Version: 6.00 Build 0)  -->
<!DOCTYPE svg PUBLIC "-//W3C//DTD SVG 1.1//EN" "http://www.w3.org/Graphics/SVG/1.1/DTD/svg11.dtd">
<svg version="1.1" xmlns="http://www.w3.org/2000/svg" xmlns:xlink="http://www.w3.org/1999/xlink" x="0px" y="0px" width="2048px"
	 height="1536px" viewBox="0 0 2048 1536" style="enable-background:new 0 0 2048 1536;" xml:space="preserve">
<g id="c3b_x5F_fuss_x5F_v">
	<g>
		<path style="fill:none;stroke:#FF0050;stroke-width:3;" d="M517.461,846.658c-34.271-32.234-60.384-22.592-96.165-51.273
			c-20.113-16.232-36.547-22.236-60.652-32.407c-22.49-9.978-29.336-27.927-48.037-42.355l0,0"/>
		<path style="fill:none;stroke:#FF0050;stroke-width:3;" d="M532.236,727.379c-17.185,0.824-30.297,10.182-47.326,9.393
			c-16.298,0.094-32.134-4.649-46.043-12.471c-26.364-13.879-53.263-39.208-84.442-28.299"/>
		<path style="fill:none;stroke:#FF0050;stroke-width:3;" d="M308.789,721.843c-10.903,0.397-19.461-14.904-7.195-25.642
			c16.431-14.382,32.154-5.397,49.451,1.114"/>
		<path style="fill:none;stroke:#FF0050;stroke-width:3;" d="M571.919,780.781c-0.883,0.731-6.609,1.007-9.108,1.588"/>
		<path style="fill:none;stroke:#FF0050;stroke-width:3;" d="M489.041,795.792c1.347-5.579,4.154-9.382,8.574-13.039"/>
		<path style="fill:none;stroke:#FF0050;stroke-width:3;" d="M513.36,811.086c-2.78-1.672-4.443-3.618-6.947-4.18"/>
		<path style="fill:none;stroke:#FF0050;stroke-width:3;" d="M572.104,811.661c-0.845-3.407-1.691-6.815-3.534-9.372"/>
		<path style="fill:none;stroke:#FF0050;stroke-width:3;" d="M356.723,700.482c-2.081-2.097-5.174-1.622-7.292-3.347"/>
		<path style="fill:none;stroke:#FF0050;stroke-width:3;" d="M318.063,718.54c1.114,2.206,10.26,4.065,12.9,4.329
			c3.562,0.543,5.259-1.194,8.517-1.439c3.063-0.076,5.474,2.45,8.565,1.986"/>
		<path style="fill:none;stroke:#FF0050;stroke-width:3;" d="M342.652,730.184c-4.173,3.794-14.616-0.423-18.347-3.248"/>
		<path style="fill:none;stroke:#FF0050;stroke-width:3;" d="M343.721,736.942c-2.418,3.394-11.55,3.292-14.972,1.261"/>
		<path style="fill:none;stroke:#FF0050;stroke-width:3;" d="M348.535,748.244c-4.255,0.74-8.784,0.318-12.098-2.848"/>
		<path style="fill:none;stroke:#FF0050;stroke-width:3;" d="M383.62,731.751c-2.286,3.972-8.906,3.542-12.744,1.85"/>
		<path style="fill:none;stroke:#FF0050;stroke-width:3;" d="M421.018,718.9c-1.878-2.269-3.854-5.502-5.694-8.15"/>
		<path style="fill:none;stroke:#FF0050;stroke-width:3;" d="M461.475,747.635c-5.072-0.666-9.931-3.597-14.072-6.081"/>
		<path style="fill:none;stroke:#FF0050;stroke-width:3;" d="M585.429,788.627c0.665-16.268,0.553-32.646-9.482-45.874
			c-11.611-16.519-29.229-19.099-50.67-15.434"/>
	</g>
	<path style="fill:none;stroke:#17192D;stroke-width:3;" d="M2048,0"/>
	<path style="fill:none;stroke:#17192D;stroke-width:3;" d="M2048,1536"/>
	<path style="fill:none;stroke:#17192D;stroke-width:3;" d="M0,1536"/>
	<path style="fill:none;stroke:#17192D;stroke-width:3;" d="M0,0"/>
</g>
<g id="Layer_1">
</g>
</svg>
