<?xml version="1.0" encoding="iso-8859-1"?>
<!-- Generator: Adobe Illustrator 15.1.0, SVG Export Plug-In . SVG Version: 6.00 Build 0)  -->
<!DOCTYPE svg PUBLIC "-//W3C//DTD SVG 1.1//EN" "http://www.w3.org/Graphics/SVG/1.1/DTD/svg11.dtd">
<svg version="1.1" xmlns="http://www.w3.org/2000/svg" xmlns:xlink="http://www.w3.org/1999/xlink" x="0px" y="0px" width="2048px"
	 height="1536px" viewBox="0 0 2048 1536" style="enable-background:new 0 0 2048 1536;" xml:space="preserve">
<g id="c3b_x5F_fuss_x5F_h">
	<g>
		<path style="fill:none;stroke:#FF0050;stroke-width:3;" d="M541.19,930.422c1.267,4.967-18.16,27.994-24.357,34.847
			c-14.741,19.058-50.147,30.882-46.942,1.162"/>
		<path style="fill:none;stroke:#FF0050;stroke-width:3;" d="M510.203,846.006c-26.697,29.036-70.466,75.293-50.766,87.65
			c-3.956,7.346,0.854,28.33,9.82,30.29"/>
		<path style="fill:none;stroke:#FF0050;stroke-width:3;" d="M457.393,927.726c3.544-5.216,7.977-9.038,11.397-13.681"/>
		<path style="fill:none;stroke:#FF0050;stroke-width:3;" d="M460.515,946.379c4.686-4.967,9.729-17.044,16.649-18.524"/>
		<path style="fill:none;stroke:#FF0050;stroke-width:3;" d="M465.212,960.58c6.975-4.465,8.973-13.607,16.525-17.945"/>
		<path style="fill:none;stroke:#FF0050;stroke-width:3;" d="M469.438,968.691c4.989-9.091,14.973-8.105,21.749-14.41
			c5.135-4.269,5.238-10.232,13.507-9.625"/>
		<path style="fill:none;stroke:#FF0050;stroke-width:3;" d="M546.684,926.621c5.982-7.477,14.205-15.699,17.195-23.924"/>
		<path style="fill:none;stroke:#FF0050;stroke-width:3;" d="M507.058,881.766c4.485-4.486,6.73-10.468,8.974-15.701"/>
	</g>
	<path style="fill:none;stroke:#17192D;stroke-width:3;" d="M2048,0"/>
	<path style="fill:none;stroke:#17192D;stroke-width:3;" d="M2048,1536"/>
	<path style="fill:none;stroke:#17192D;stroke-width:3;" d="M0,1536"/>
	<path style="fill:none;stroke:#17192D;stroke-width:3;" d="M0,0"/>
</g>
<g id="Layer_1">
</g>
</svg>
