<svg xmlns="http://www.w3.org/2000/svg" width="2048" height="1536" viewBox="0 0 2048 1536"><g fill="none" stroke-width="3"><g stroke="#FF0050"><path d="M1229.76 1064.186c-25.155 21.524-51.507 26.312-83.85 28.7M1144.71 1096.475c-22.76-2.393-44.323 14.35-67.078 17.937-31.145 4.782-30.89-3.415-52.25-24.09-43.79-40.028-86.51-81.372-129.234-122.712M948.265 638.465c22.76-16.742 39.53-41.857 64.683-57.4 23.958-15.547 51.504-25.114 73.067-46.64M1090.807 503.336c5.99-4.787 3.594-21.53 3.594-31.098M1208.202 465.064c-16.77-4.785-33.54-3.59-50.312-7.18-27.552-5.976-74.27-25.112-100.622-13.152M949.462 549.975c33.54-39.467 52.703-93.283 105.41-101.655M1174.662 921.88c-13.18-16.74-19.17-44.247-9.586-63.383M1171.067 633.68c-2.4 5.98 0 11.958 7.186 13.158 21.562 3.587 3.596-32.29-7.186-13.157M1171.067 886.004c-4.792 11.96 10.78 23.92 13.175 9.567 1.2-11.956-10.778-14.35-14.374-8.37M1179.45 637.267c-2.394 1.198-3.594 1.198-1.197 1.198M1177.057 893.182c1.196 0 1.196 0 0-1.195M960.242 771.203c-1.727 4.05-.926 7.484 2.397 8.37M1212.99 954.17c-33.54 0-63.486-9.563-94.632-16.744M1101.587 601.394c-21.56 5.98-44.32 11.96-67.077 16.74M1121.95 939.818c-26.348 1.197-49.112-4.784-74.266-10.762M1032.112 618.135c-26.354-5.98-56.295 3.588-75.464 20.33M1044.093 927.86c-25.156 5.978-55.102-10.763-76.664-23.92M961.442 924.273c3.592-2.393 7.188-5.98 8.383-10.764M1054.87 677.93c-7.186-5.98-11.977-13.158-15.57-21.526M1051.276 866.87c2.396-9.565 8.39-17.937 15.572-23.916M1191.433 789.143c1.197-1.197 1.197-2.39 2.393-3.588M1399.854 903.94c-3.595-20.326-9.585-43.05-15.574-62.183M1375.898 680.318c0-14.35 8.38-31.09 16.77-41.854M1341.158 626.505c6.834 3.59 13.643 2.25 20.363 4.786M1354.335 654.013c2.395-5.98 4.792-10.765 8.384-14.353M1304.028 586.45c-8.384-5.98-23.958-10.767-34.738-10.767M1272.74 955.238c10.782-3.587 21.56-5.98 28.747-14.35M1375.898 978.083c3.592-9.565 1.195-19.13 0-28.698M1381.888 585.85c3.592-1.198 7.186-2.393 11.976-2.393M1252.522 530.837c-7.19-3.585-10.782-14.35-14.376-21.526M1192.63 498.55c-8.388-4.786-23.962-8.375-32.343-7.177M1169.868 1053.424c5.988 0 15.573-3.587 20.363-8.37M1227.367 1017.548c2.394-5.976 5.986-10.763 9.582-14.35M1210.596 780.77c-5.99 1.197-10.78 3.59-14.374 7.176M1210.596 752.068c-5.99-1.192-10.78-3.587-14.374-5.98M1231.884 569.886c4.284 1.832-14.686.614-16.52.614-14.685-1.223-29.98-5.496-44.666-9.164-27.535-6.11-56.908-16.493-81.38-29.93M1222.703 966.316c-17.74 0-44.664 1.834-64.854 6.72-28.76 6.72-53.235 22.605-79.546 33.597h-.61M1086.35 1042.698c-5.726-1.872-11.635-5.574-16.33-9.397M1215.365 580.272c3.672-2.443 7.956-5.498 11.623-7.327M1233.107 967.543c-2.446-.613-4.894-.613-7.952-.613M1214.143 954.713c2.444 5.5 15.295 8.55 22.025 8.55M1203.74 964.486c.61 1.222 5.507-3.664 7.955-5.497M1208.024 574.774c2.445.61 4.893 1.834 7.34 3.057M1198.845 575.386c-30.59-1.22-66.697 17.71-93.617 28.1M1165.806 659.072c-6.12-16.495-.614-35.43 3.668-50.7M1100.334 767.8c-5.51-1.223-11.013 0-15.907-1.223M961.442 786.125c9.79-6.11 1.835-17.712 0-26.88M998.153 751.305c0-4.276-1.223-8.552-3.06-12.214M993.26 813.61c1.226-3.663 1.834-7.328 1.834-10.994M1043.43 750.694c-.61-4.886 0-9.773-3.058-14.048M1037.925 808.112c1.225-3.665 2.447-7.33 3.06-10.995M952.55 672.85c-5.86 1.758-12.307 4.1-18.757 4.1M963.277 875.31c-4.893-2.445-10.4-3.058-15.905-4.892M1230.054 1065.89c15.907 3.05 23.863-2.442 36.71-8.55M1261.528 1058.094c27.5-1.818 51.958-2.96 78.697-11.48 28.812-9.184 50.17-31.223 61.493-58.87 5.144-12.562 11-25.42 15.517-38.194 3.154-8.92 4.865-17.234 9.715-25.502 4.908-8.372 10.688-16.197 15.955-24.343 6.17-9.545 11.358-20.354 16.312-30.697 4.117-8.59 6.636-21.916 6.963-31.464M1239.233 477.656c4.893-.61 9.177-1.22 14.072-1.83M1197.83 467.056c16.7-3.507 41.675-.515 57.31 5.714M919.44 918.523c13.825 13.48 30.608 23.552 47.967 31.817 16.738 7.97 35.146 12.16 51.715 20.014 7.974 3.778 14.387 8.972 21.42 14.236 5.57 4.167 11.816 8.816 17.404 12.873 5.46 3.972 10.473 10.426 16.72 13.21M905.386 597.143c6.262 5.005 30.065-30.643 35.078-36.267M877.677 952.342c4.68 2.67 8.736 5.4 14.41 5.455M905.386 599.647c.623.622 10.648-3.132 13.777-4.382M936.078 637.79s3.755-1.874 5.012-3.125M959.897 589.205c3.923-4.57 8.503-11.097 13.73-14.363M1012.86 572.883c-2.614.653-5.228.653-7.844 1.308M984.306 986.38c-3.777-4.865-6.91-9.8-10.04-14.73M908.925 919c1.85.69 3.723 1.613 5.302 2.607M919.67 938.027c-2.12-2.3-4.245-4.598-5.678-6.34M1202.806 574.485c-1.196.6-1.196 1.195-2.393 1.195 2.996 0 4.19-2.392 5.988-3.585M1255.14 472.77c28.554 1.884 53.94 3.064 81.7 11.893 29.908 9.515 52.087 32.342 63.84 60.983 5.34 13.013 11.418 26.334 16.104 39.565 3.272 9.242 5.05 17.855 10.09 26.42 5.092 8.67 11.092 16.776 16.556 25.215 6.407 9.887 11.793 26.09 16.938 36.803 4.27 8.9 8.05 20.377 8.39 30.265M918.266 917.65c-.746-4.485-2.99-8.225-7.476-9.72M889.972 611.08c.37.367 3.152-3.894 4.08-4.82 2.04-2.226 4.45-3.154 6.862-4.637M929.47 655.394c2.224-2.966 10.2-11.124 9.456-14.833M916.49 635.368c-.187-1.853-3.71-5.56-5.934-6.487M937.155 931.19c-2.055-5.837 2.52-13.407-.318-19.56M938.73 922.988c1.104 2.996 7.414.79 9.622-.315"/></g><path d="M2048 0M2048 1536M0 1536M0 0" stroke="#17192D"/></g></svg>