<svg xmlns="http://www.w3.org/2000/svg" width="2048" height="1536" viewBox="0 0 2048 1536"><g fill="none" stroke-width="3"><g stroke="#FF0050"><path d="M541.19 930.422c1.267 4.967-18.16 27.994-24.357 34.847-14.74 19.057-50.147 30.88-46.942 1.16M510.203 846.006c-26.697 29.036-70.466 75.293-50.766 87.65-3.956 7.346.854 28.33 9.82 30.29M457.393 927.726c3.544-5.216 7.977-9.038 11.397-13.68M460.515 946.38c4.686-4.968 9.73-17.045 16.65-18.525M465.212 960.58c6.975-4.465 8.973-13.607 16.525-17.945M469.438 968.69c4.99-9.09 14.973-8.104 21.75-14.41 5.134-4.268 5.237-10.23 13.506-9.624M546.684 926.62c5.982-7.476 14.205-15.698 17.195-23.923M507.058 881.766c4.485-4.486 6.73-10.468 8.974-15.7"/></g><path d="M2048 0M2048 1536M0 1536M0 0" stroke="#17192D"/></g></svg>