<svg xmlns="http://www.w3.org/2000/svg" width="2048" height="1536" viewBox="0 0 2048 1536"><g fill="none" stroke-width="3"><g stroke="#FF0050"><path d="M842.648 886.455c-4.117-5.578-8.71-10.5-11.79-16.822-2.34-5.28-3.25-11.717-6.152-16.906-2.98-4.955-7.864-8.098-11.483-12.715-3.864-4.695-7.65-9.63-10.628-14.584-2.15-3.568-4.58-8.11-4.228-12.314M828.318 831.146c-.4.408 1.266-1.47 1.342-1.71M814.335 823.793c.795-.818 1.513-1.393 2.227-1.97M837.508 887.502c-.87-4.016-2.38-7.7-3.08-11.396M828.617 880.955c-2.225-3.108-1.688-9.89.272-13.55M803.14 870.232c5.86-6.7 14.7-8.453 22.934-7.455M794.917 859.883c4.157-7.237 12.6-8.58 20.274-7.49M804.96 847.555c.64-.332 4.132-3.77 6.7-4.297M803.245 851.29c-1.395-6.586-7.61-12.292-10.922-17.882M782.42 834.29c8.436-.813 12.48-6.038 17.21-12.18M828.587 822.486c4.877-4.03 11.72-13.64 7.143-17.408M832.628 826.533c1.643-3.29 2.128-6.514-.104-8.354M833.5 790.133c3.61-3.632 5.23 2.532 5.16 5.045-.083 2.958-.52 6.272-2.33 8.88-3.784 5.443-7.835 9.61-14.7 11.05M884.865 961.793c-6.344-3.607-9.683-10.81-15.478-15.313-4.734-3.63-10.348-7.007-15.396-10.476-10.91-6.92-20.155-15.72-30.67-23.05-9.86-6.858-18.93-14.532-27.127-23.27-8.774-9.452-12.187-21.487-17.29-33.254-2.756-6.354-6.688-12.208-8.24-19.048-.705-3.107-2.156-8.062-.523-10.944.94-1.66 1.656-3.556 2.98-4.77M799.244 829.347c1.778.296 3.302-.294 4.658-1.203M810.17 842.154c.214-1.536.114-2.907-.233-4.35M816.433 810.602c7.94-2.717 16.035-8.778 17.434-16.483 2.192-13.116-16.872-.74-22.92.818-.498.276-.996.56-1.507.58M820.998 816.17c-1.893-3.398-5.116-6.23-8.16-8.592-3.067-2.285-6.073-5.542-9.836-3.022-1.89 1.296-5.333 5.15-4.996 7.727.2 1.464 1.886 2.903 2.848 4.032 1.34 1.493 2.757 3.012 4.462 4.127 3.414 2.232 7.215-2.498 9.39-4.942 1.56-1.812.373-3.01-.92-4.657-1.144-1.596-2.433-2.992-3.798-4.41-.656-.786-1.314-1.57-2.072-2.304M805.888 820.457c.938-1.926.96-3.816 2.543-5.457 1.397-1.537 3.667-2.467 5.776-2.623M798.35 813.298c1.578-3.702 4.583-10.083 9.798-8.6M904.227 906.787c-2.608-6.968-7.676-23.318-12.203-29.295-4.77-6.048-9.68-10.81-15.564-15.873-8.823-7.6-19.07-13.243-28.842-19.532-6.638-4.394-10.47-11.53-16.385-16.87-2.343-2.118-4.095-4.58-6.34-6.82-1.483-1.487-4.056-4.388-5.617-5.04M842.674 886.493c-4.114-5.577-8.708-10.5-11.788-16.82-2.34-5.282-3.25-11.718-6.153-16.91-2.977-4.952-7.862-8.096-11.482-12.716-3.86-4.693-7.645-9.63-10.627-14.582-2.148-3.568-4.58-8.105-4.225-12.312M828.344 831.186c-.396.408 1.27-1.472 1.342-1.713M814.365 823.83c.79-.818 1.51-1.39 2.224-1.967M821.026 816.207c-1.89-3.396-5.117-6.227-8.158-8.59-3.07-2.286-6.076-5.543-9.84-3.025-1.89 1.297-5.33 5.15-4.995 7.73.2 1.463 1.886 2.902 2.85 4.03 1.34 1.493 2.754 3.013 4.458 4.127 3.415 2.23 7.22-2.502 9.39-4.945 1.563-1.812.374-3.01-.92-4.654-1.14-1.598-2.43-2.99-3.794-4.41-.66-.786-1.315-1.57-2.072-2.303M798.374 813.334c1.582-3.7 4.586-10.082 9.8-8.6M809.306 795.64c-2.042.662-4.784 1.212-6.73 2.177-2.518 1.236-4.766 3.725-7.04 5.3-5.928 4.265-10.76 7.505-16.705 11.694-3.02 2.153-5.147 5.025-6.96 7.622"/></g><path d="M2048 0M2048 1536M0 1536M0 0" stroke="#17192D"/></g></svg>