<?xml version="1.0" encoding="iso-8859-1"?>
<!-- Generator: Adobe Illustrator 15.1.0, SVG Export Plug-In . SVG Version: 6.00 Build 0)  -->
<!DOCTYPE svg PUBLIC "-//W3C//DTD SVG 1.1//EN" "http://www.w3.org/Graphics/SVG/1.1/DTD/svg11.dtd">
<svg version="1.1" xmlns="http://www.w3.org/2000/svg" xmlns:xlink="http://www.w3.org/1999/xlink" x="0px" y="0px" width="2048px"
	 height="1536px" viewBox="0 0 2048 1536" style="enable-background:new 0 0 2048 1536;" xml:space="preserve">
<g id="c3b_x5F_handflach">
	<g>
		<path style="fill:none;stroke:#FF0050;stroke-width:3;" d="M929.665,660.255c-0.002,1.723-2.958,5.327-4.08,7.177
			c-1.82,3.281-3.938,6.465-6.149,9.553c-4.117,6.062-8.653,12.337-13.643,17.705c-9.535,10.125-19.948,19.558-29.376,29.581
			c-1.839,1.962-4.798,5.566-6.986,6.525"/>
		<path style="fill:none;stroke:#FF0050;stroke-width:3;" d="M905.915,661.629c-0.444,0.617-8.84,1.791-10.445,1.419"/>
		<path style="fill:none;stroke:#FF0050;stroke-width:3;" d="M904.229,652.331c-11.619,9.251-20.484,20.071-35.598,23.105
			c-3.082,0.669-5.419,0.612-8.252,2.188c-2.836,1.578-5.36,3.046-8.556,3.818c-5.574,1.527-12.884,1.47-18.031-0.865"/>
		<path style="fill:none;stroke:#FF0050;stroke-width:3;" d="M866.708,649.51c2.154-3.796,4.201-14.381,2.91-18.309"/>
		<path style="fill:none;stroke:#FF0050;stroke-width:3;" d="M843.699,672.775c3.769-3.619,6.463-9.655,8.856-14.066
			c2.954-5.327,5.744-12.989,5.684-18.871"/>
		<path style="fill:none;stroke:#FF0050;stroke-width:3;" d="M846.37,677.492c-1.76,0.54-4.477,0.088-6.042-0.896"/>
		<path style="fill:none;stroke:#FF0050;stroke-width:3;" d="M843.964,680.378c-2.443,0.046-4.773-0.009-6.724-1.388"/>
		<path style="fill:none;stroke:#FF0050;stroke-width:3;" d="M817.86,690.949"/>
		<path style="fill:none;stroke:#FF0050;stroke-width:3;" d="M817.579,686.378c0.168,1.341,0.67,3.162-0.021,4.515
			c-0.762,1.539-3.246,3.236-4.532,4.354c-3.089,2.625-6.238,5.311-9.839,7.271c-3.215,1.707-7.062,1.723-10.468,1.425
			c-1.876-0.271-8.243-2.097-5.561-5.143"/>
		<path style="fill:none;stroke:#FF0050;stroke-width:3;" d="M816.635,684.753c-0.35-0.238-0.573-0.602-0.731-1.024"/>
		<path style="fill:none;stroke:#FF0050;stroke-width:3;" d="M809.919,672.318c-0.116-0.116-0.877-0.654-1.23-0.892"/>
		<path style="fill:none;stroke:#FF0050;stroke-width:3;" d="M808.307,676.863c-0.562-0.844-1.057-1.748-2.015-2.097"/>
		<path style="fill:none;stroke:#FF0050;stroke-width:3;" d="M805.542,679.174c-0.415-0.178-0.77-0.41-1.122-0.646"/>
		<path style="fill:none;stroke:#FF0050;stroke-width:3;" d="M822.596,659.324c-2.864,2.986-6.884,4.891-9.929,7.817
			c-2.783,2.679-5.873,5.298-7.715,8.565c-1.225,2.098-2.021,4.248-3.234,6.223c-1.152,1.913-3,4.269-3.708,5.866"/>
		<path style="fill:none;stroke:#FF0050;stroke-width:3;" d="M785.649,696.454c2.077,3.068,3.842,2.183,6.842-0.014
			c2.042-1.502,7.964-5.579,5.754-8.526"/>
		<path style="fill:none;stroke:#FF0050;stroke-width:3;" d="M822.675,659.018c1.6-1.19,2.678-3.953,3.692-5.622
			c1.339-1.978,2.793-3.833,4.244-5.693c2.381-3.094,4.735-6.738,8.089-8.696c2.654-1.512,5.201-3.269,7.858-4.789"/>
		<path style="fill:none;stroke:#FF0050;stroke-width:3;" d="M886.519,614.354c-4.064,1.602-8.216,2.598-12.229,4.385
			c-4.205,1.853-8.255,4.247-12.413,6.402c-7.75,3.993-15.378,9.02-22.128,14.699c-1.025,0.875-2.171,1.628-2.962,2.62"/>
		<path style="fill:none;stroke:#FF0050;stroke-width:3;" d="M834.968,702.264c-2.959,1.458-5.568,2.245-8.717,2.854"/>
		<path style="fill:none;stroke:#FF0050;stroke-width:3;" d="M849.07,729.37c-2.3-5.623-7.571-10.464-13.474-11.935"/>
		<path style="fill:none;stroke:#FF0050;stroke-width:3;" d="M835.612,717.193c-1.345-1.011-2.057-3.436-2.949-4.885
			c-1.285-1.988-2.796-3.299-4.739-4.542c-1.504-0.885-4.572-2.231-4.572-2.231s-0.353-1.609-0.604-2.099
			c-1.163-1.986-1.718-3.096-3.205-4.776c-0.914-1.078-2.374-2.211-3.058-3.05"/>
		<path style="fill:none;stroke:#FF0050;stroke-width:3;" d="M869.257,729.896c-5.511-1.846-14.025-3.569-19.6-0.167"/>
		<path style="fill:none;stroke:#FF0050;stroke-width:3;" d="M851.977,722.546c-0.01-0.914,0.637-2.573,1.124-3.497"/>
		<path style="fill:none;stroke:#FF0050;stroke-width:3;" d="M866.142,726.782c-1.453-0.213-2.669-0.313-4.161,0.081"/>
		<path style="fill:none;stroke:#FF0050;stroke-width:3;" d="M840.33,742.837c-1.847-1.789-3.38-3.774-6.035-4.331"/>
		<path style="fill:none;stroke:#FF0050;stroke-width:3;" d="M836.065,741.641c-0.748-0.779-1.756-1.308-2.771-1.717"/>
		<path style="fill:none;stroke:#FF0050;stroke-width:3;" d="M821.675,729.785c-0.725-0.108-1.754-0.271-2.296-0.443"/>
		<path style="fill:none;stroke:#FF0050;stroke-width:3;" d="M810.438,723.539c-2.546-3.429-5.8-5.252-9.663-7.069"/>
		<path style="fill:none;stroke:#FF0050;stroke-width:3;" d="M813.18,724.705c4.574-4.052,8.958-11.032,9.976-16.848"/>
		<path style="fill:none;stroke:#FF0050;stroke-width:3;" d="M828.539,734.594c3.224-3.908,8.16-10.953,7.37-16.187"/>
		<path style="fill:none;stroke:#FF0050;stroke-width:3;" d="M842.073,744.392c3.38-4.52,6.592-8.183,7.713-13.752"/>
		<path style="fill:none;stroke:#FF0050;stroke-width:3;" d="M869.825,730.586c-1.193,2.646-2.795,4.868-4.979,6.742
			c-1.158,0.997-2.98,1.829-3.833,2.88c-0.707,1.708-0.276,3.604-1.543,5.397"/>
		<path style="fill:none;stroke:#FF0050;stroke-width:3;" d="M858.692,741.199c-0.928-0.835-2.012-1.059-3.152-1.465"/>
		<path style="fill:none;stroke:#FF0050;stroke-width:3;" d="M857.677,743.902c-1.754-1.304-2.885-2.871-4.57-4.239"/>
		<path style="fill:none;stroke:#FF0050;stroke-width:3;" d="M851.009,738.91c-0.057-0.06-0.114-0.12-0.18-0.059"/>
		<path style="fill:none;stroke:#FF0050;stroke-width:3;" d="M841.402,745.379c1.092,3.212-0.221,7.932-1.51,11.129"/>
		<path style="fill:none;stroke:#FF0050;stroke-width:3;" d="M827.828,736.311c0.043,3.414,1.072,6.689,1.3,10.04
			c0.207,2.677,0.49,7.247-0.886,9.837c1.476,1.923,2.1,4.773,2.691,7.203c1.071,4.615,1.711,8.264-2.001,12.178"/>
		<path style="fill:none;stroke:#FF0050;stroke-width:3;" d="M812.409,726.365c3.24,3.11,2.386,9.223,1.473,13.328
			c-0.561,2.268-1.299,4.479-0.927,6.423c0.449,2.674,1.114,4.917,0.949,7.729c-0.202,2.381-0.821,4.587-1.862,6.743"/>
		<path style="fill:none;stroke:#FF0050;stroke-width:3;" d="M811.213,744.564c-1.228-0.892-2.08-2.035-3.435-2.799
			c-1.361-0.769-2.937-0.979-4.371-1.562"/>
		<path style="fill:none;stroke:#FF0050;stroke-width:3;" d="M824.603,753.695c-2.575-1.9-5.023-4.963-8.801-5.133"/>
		<path style="fill:none;stroke:#FF0050;stroke-width:3;" d="M801.729,703.459c-2.803,2.921-6.01,7.618-7.327,11.305
			c-1.764,5.033,0.174,9.509,0.005,14.394c-0.126,3.233-0.338,6.776,0.281,9.752"/>
		<path style="fill:none;stroke:#FF0050;stroke-width:3;" d="M832.546,756.773c1.496-0.519,3.251,0.789,4.432,1.499"/>
		<path style="fill:none;stroke:#FF0050;stroke-width:3;" d="M840.355,720.699c-0.433,0.069-0.87,0.261-1.188,0.452"/>
		<path style="fill:none;stroke:#FF0050;stroke-width:3;" d="M879.604,717.066c-7.071-4.372-13.398-10.045-20.332-14.666
			c-2.353-1.54-4.771-3.019-7.46-4.003c-3.104-1.28-6.108-1.04-9.532-0.972"/>
		<path style="fill:none;stroke:#FF0050;stroke-width:3;" d="M888.916,702.128c-1.67-0.7-3.157-2.379-4.684-3.447
			c-2.057-1.362-4.058-2.664-6.252-3.782c-3.974-2.054-8.403-3.556-12.729-4.811c-2.698-0.864-5.289-1.485-8.144-1.735
			c-3.037-0.305-6.698-0.357-9.498-1.583"/>
		<path style="fill:none;stroke:#FF0050;stroke-width:3;" d="M875.908,689.634c5.19-1.993,9.82-3.911,14.455-6.869"/>
		<path style="fill:none;stroke:#FF0050;stroke-width:3;" d="M798.056,687.967c-2.286,1.036-4.791,2.644-6.863,4.009
			c-1.873,1.267-4.236,2.823-5.648,4.271"/>
		<path style="fill:none;stroke:#FF0050;stroke-width:3;" d="M845.727,674.563c-0.784-0.284-2.261,0.098-3.131,0.363l0,0
			c-1.568,1.033-3.329,1.967-5.079,2.702c-2.452,2.456-5.877,3.474-8.375,5.776c-2.751,2.46-4.886,4.605-8.332,6.025
			c-0.977,0.371-1.893,0.591-2.91,0.809l0,0c0.102,0,0.252-0.053,0.458-0.058"/>
		<path style="fill:none;stroke:#FF0050;stroke-width:3;" d="M839.835,756.676c-0.447,0.803-0.492,1.597-0.938,2.4
			c1.865,2.279,2.422,5.454,2.215,8.826"/>
		<path style="fill:none;stroke:#FF0050;stroke-width:3;" d="M859.768,745.383c-1.367,5.504-4.083,11.344-6.933,15.541
			c-0.025,0.445-0.076,0.954-0.147,1.498"/>
		<path style="fill:none;stroke:#FF0050;stroke-width:3;" d="M850.804,759.238c-0.937-0.972-3.626-2.506-5.779-3.059"/>
		<path style="fill:none;stroke:#FF0050;stroke-width:3;" d="M811.44,761.115c-0.504,2.006-3.156,2.83-4.816,3.21l0,0
			c-1.281-0.592-3.175-1.509-4.186-2.561c-1.115-1.16-1.693-3.343-2.285-4.799c-1.775-4.273-4.287-7.835-5.021-12.5
			c-0.278-1.557-0.707-3.479-0.263-5.02"/>
		<path style="fill:none;stroke:#FF0050;stroke-width:3;" d="M812.3,759.478c-0.436,2.575,1.913,5.246,3.313,7.132
			c1.984,2.688,3.45,5.601,5.793,8.035c1.013,1.051,2.203,2.123,3.608,2.512c0.524,0.144,1.095,0.353,1.654,0.333
			c0.878-0.034,1.477-0.913,2.098-1.511"/>
		<path style="fill:none;stroke:#FF0050;stroke-width:3;" d="M834.613,783.369c-1.032-0.133-2.112-0.977-3.115-1.705
			c-1.782-1.33-2.214-3.043-3.21-4.923"/>
		<path style="fill:none;stroke:#FF0050;stroke-width:3;" d="M841.299,767.874c0.931,2.646,0.896,7.294-0.142,9.898
			c-0.812,2.28-2.858,6.287-5.745,5.63"/>
		<path style="fill:none;stroke:#FF0050;stroke-width:3;" d="M852.667,762.738c-0.074,3.725-0.751,8.893-1.854,12.209
			c-1.162,3.479-2.319,7.999-6.917,8.128c-1.752,0.073-2.991-0.88-4.402-1.453"/>
	</g>
	<path style="fill:none;stroke:#17192D;stroke-width:3;" d="M2048,0"/>
	<path style="fill:none;stroke:#17192D;stroke-width:3;" d="M2048,1536"/>
	<path style="fill:none;stroke:#17192D;stroke-width:3;" d="M0,1536"/>
	<path style="fill:none;stroke:#17192D;stroke-width:3;" d="M0,0"/>
</g>
<g id="Layer_1">
</g>
</svg>
