<svg xmlns="http://www.w3.org/2000/svg" width="2048" height="1536" viewBox="0 0 2048 1536"><g fill="none" stroke-width="3"><g stroke="#FF0050"><path d="M929.665 660.255c-.002 1.723-2.958 5.327-4.08 7.177-1.82 3.28-3.938 6.465-6.15 9.553-4.116 6.062-8.652 12.337-13.642 17.705-9.535 10.125-19.948 19.558-29.376 29.58-1.84 1.963-4.798 5.567-6.986 6.526M905.915 661.63c-.444.616-8.84 1.79-10.445 1.418M904.23 652.33c-11.62 9.252-20.485 20.072-35.6 23.106-3.08.67-5.418.612-8.25 2.188-2.837 1.578-5.36 3.046-8.557 3.818-5.574 1.527-12.884 1.47-18.03-.865M866.708 649.51c2.154-3.796 4.2-14.38 2.91-18.31M843.7 672.775c3.768-3.62 6.462-9.655 8.855-14.066 2.954-5.328 5.744-12.99 5.684-18.872M846.37 677.492c-1.76.54-4.477.088-6.042-.896M843.964 680.378c-2.443.046-4.773-.01-6.724-1.388M817.86 690.95M817.58 686.378c.167 1.34.67 3.162-.022 4.515-.762 1.54-3.246 3.236-4.532 4.354-3.09 2.625-6.238 5.31-9.84 7.27-3.214 1.708-7.06 1.724-10.467 1.426-1.877-.27-8.244-2.097-5.562-5.143M816.635 684.753c-.35-.238-.573-.602-.73-1.024M809.92 672.318c-.117-.116-.878-.654-1.23-.892M808.307 676.863c-.562-.844-1.057-1.748-2.015-2.097M805.542 679.174c-.415-.178-.77-.41-1.122-.646M822.596 659.324c-2.864 2.986-6.884 4.89-9.93 7.817-2.782 2.68-5.872 5.3-7.714 8.566-1.225 2.098-2.02 4.248-3.234 6.223-1.152 1.912-3 4.268-3.708 5.865M785.65 696.454c2.076 3.068 3.84 2.183 6.84-.014 2.043-1.502 7.965-5.58 5.755-8.526M822.675 659.018c1.6-1.19 2.678-3.953 3.692-5.622 1.34-1.978 2.793-3.833 4.244-5.693 2.382-3.094 4.736-6.738 8.09-8.696 2.654-1.512 5.2-3.27 7.858-4.79M886.52 614.354c-4.065 1.602-8.217 2.598-12.23 4.385-4.205 1.852-8.255 4.246-12.413 6.4-7.75 3.994-15.378 9.02-22.128 14.7-1.026.875-2.172 1.628-2.963 2.62M834.968 702.264c-2.96 1.458-5.568 2.245-8.717 2.854M849.07 729.37c-2.3-5.623-7.57-10.464-13.474-11.935M835.612 717.193c-1.345-1.01-2.057-3.436-2.95-4.885-1.284-1.988-2.795-3.3-4.738-4.542-1.504-.885-4.572-2.23-4.572-2.23s-.353-1.61-.604-2.1c-1.163-1.986-1.718-3.096-3.205-4.776-.914-1.078-2.374-2.21-3.058-3.05M869.257 729.896c-5.51-1.846-14.025-3.57-19.6-.167M851.977 722.546c-.01-.914.637-2.573 1.124-3.497M866.142 726.782c-1.453-.213-2.67-.313-4.16.08M840.33 742.837c-1.847-1.79-3.38-3.774-6.035-4.33M836.065 741.64c-.748-.778-1.756-1.307-2.77-1.716M821.675 729.785c-.725-.108-1.754-.27-2.296-.443M810.438 723.54c-2.546-3.43-5.8-5.253-9.663-7.07M813.18 724.705c4.574-4.052 8.958-11.032 9.976-16.848M828.54 734.594c3.223-3.908 8.16-10.953 7.37-16.187M842.073 744.392c3.38-4.52 6.592-8.183 7.713-13.752M869.825 730.586c-1.193 2.646-2.795 4.868-4.98 6.742-1.157.997-2.98 1.83-3.832 2.88-.707 1.708-.276 3.604-1.543 5.397M858.692 741.2c-.928-.836-2.012-1.06-3.152-1.466M857.677 743.902c-1.754-1.304-2.885-2.87-4.57-4.24M851.01 738.91c-.058-.06-.115-.12-.18-.06M841.402 745.38c1.092 3.21-.22 7.93-1.51 11.128M827.828 736.31c.043 3.415 1.072 6.69 1.3 10.04.207 2.678.49 7.248-.886 9.838 1.476 1.923 2.1 4.773 2.69 7.203 1.072 4.616 1.712 8.265-2 12.18M812.41 726.365c3.24 3.11 2.385 9.223 1.472 13.328-.56 2.268-1.3 4.48-.927 6.423.45 2.674 1.114 4.917.95 7.73-.203 2.38-.822 4.586-1.863 6.742M811.213 744.564c-1.228-.892-2.08-2.035-3.435-2.8-1.36-.768-2.937-.978-4.37-1.56M824.603 753.695c-2.575-1.9-5.023-4.963-8.8-5.133M801.73 703.46c-2.804 2.92-6.01 7.617-7.328 11.304-1.764 5.033.174 9.51.005 14.394-.126 3.233-.338 6.776.28 9.752M832.546 756.773c1.496-.52 3.25.79 4.432 1.5M840.355 720.7c-.433.068-.87.26-1.188.45M879.604 717.066c-7.07-4.372-13.398-10.045-20.332-14.666-2.353-1.54-4.77-3.02-7.46-4.003-3.104-1.28-6.108-1.04-9.532-.972M888.916 702.128c-1.67-.7-3.157-2.38-4.684-3.447-2.057-1.36-4.058-2.663-6.252-3.78-3.974-2.055-8.403-3.557-12.73-4.812-2.697-.864-5.288-1.485-8.143-1.735-3.037-.305-6.698-.357-9.498-1.583M875.908 689.634c5.19-1.993 9.82-3.91 14.455-6.87M798.056 687.967c-2.286 1.036-4.79 2.644-6.863 4.01-1.873 1.266-4.236 2.822-5.648 4.27M845.727 674.563c-.784-.284-2.26.098-3.13.363-1.57 1.033-3.33 1.967-5.08 2.702-2.452 2.456-5.877 3.474-8.375 5.776-2.75 2.46-4.886 4.605-8.332 6.025-.977.37-1.893.59-2.91.808.102 0 .252-.053.458-.058M839.835 756.676c-.447.803-.492 1.597-.938 2.4 1.865 2.28 2.422 5.454 2.215 8.826M859.768 745.383c-1.367 5.504-4.083 11.344-6.933 15.54-.025.446-.076.955-.147 1.5M850.804 759.238c-.937-.972-3.626-2.506-5.78-3.06M811.44 761.115c-.504 2.006-3.156 2.83-4.816 3.21-1.28-.592-3.175-1.51-4.186-2.56-1.115-1.16-1.693-3.344-2.285-4.8-1.775-4.273-4.287-7.835-5.02-12.5-.28-1.557-.708-3.48-.264-5.02M812.3 759.478c-.436 2.575 1.913 5.246 3.313 7.132 1.984 2.688 3.45 5.6 5.793 8.035 1.013 1.05 2.203 2.123 3.608 2.512.524.144 1.095.353 1.654.333.878-.034 1.477-.913 2.098-1.51M834.613 783.37c-1.032-.134-2.112-.978-3.115-1.706-1.782-1.33-2.214-3.043-3.21-4.923M841.3 767.874c.93 2.646.895 7.294-.143 9.898-.812 2.28-2.858 6.287-5.745 5.63M852.667 762.738c-.074 3.725-.75 8.893-1.854 12.21-1.162 3.478-2.32 7.998-6.917 8.127-1.752.073-2.99-.88-4.402-1.453"/></g><path d="M2048 0M2048 1536M0 1536M0 0" stroke="#17192D"/></g></svg>