<svg xmlns="http://www.w3.org/2000/svg" width="2048" height="1536" viewBox="0 0 2048 1536"><g fill="none" stroke-width="3"><g stroke="#FF0050"><path d="M517.46 846.658c-34.27-32.234-60.383-22.592-96.164-51.273-20.113-16.232-36.547-22.236-60.652-32.407-22.49-9.978-29.336-27.927-48.037-42.355M532.236 727.38c-17.185.823-30.297 10.18-47.326 9.392-16.298.094-32.134-4.65-46.043-12.47-26.364-13.88-53.263-39.21-84.442-28.3M308.79 721.843c-10.904.397-19.462-14.904-7.196-25.642 16.43-14.38 32.154-5.396 49.45 1.115M571.92 780.78c-.884.732-6.61 1.008-9.11 1.59M489.04 795.792c1.348-5.58 4.155-9.382 8.575-13.04M513.36 811.086c-2.78-1.672-4.443-3.618-6.947-4.18M572.104 811.66c-.845-3.406-1.69-6.814-3.534-9.37M356.723 700.482c-2.08-2.097-5.174-1.622-7.292-3.347M318.063 718.54c1.114 2.206 10.26 4.065 12.9 4.33 3.562.542 5.26-1.195 8.517-1.44 3.063-.076 5.474 2.45 8.565 1.986M342.652 730.184c-4.173 3.794-14.616-.423-18.347-3.248M343.72 736.942c-2.417 3.394-11.55 3.292-14.97 1.26M348.535 748.244c-4.255.74-8.784.318-12.098-2.848M383.62 731.75c-2.286 3.973-8.906 3.543-12.744 1.85M421.018 718.9c-1.878-2.27-3.854-5.502-5.694-8.15M461.475 747.635c-5.072-.666-9.93-3.597-14.072-6.08M585.43 788.627c.664-16.268.552-32.646-9.483-45.874-11.61-16.52-29.23-19.1-50.67-15.434"/></g><path d="M2048 0M2048 1536M0 1536M0 0" stroke="#17192D"/></g></svg>