<?xml version="1.0" encoding="iso-8859-1"?>
<!-- Generator: Adobe Illustrator 15.1.0, SVG Export Plug-In . SVG Version: 6.00 Build 0)  -->
<!DOCTYPE svg PUBLIC "-//W3C//DTD SVG 1.1//EN" "http://www.w3.org/Graphics/SVG/1.1/DTD/svg11.dtd">
<svg version="1.1" xmlns="http://www.w3.org/2000/svg" xmlns:xlink="http://www.w3.org/1999/xlink" x="0px" y="0px" width="2048px"
	 height="1536px" viewBox="0 0 2048 1536" style="enable-background:new 0 0 2048 1536;" xml:space="preserve">
<g id="c3b_x5F_handzu">
	<g>
		<path style="fill:none;stroke:#FF0050;stroke-width:3;" d="M842.648,886.455c-4.117-5.578-8.71-10.5-11.79-16.822
			c-2.34-5.279-3.25-11.717-6.152-16.906c-2.98-4.955-7.864-8.098-11.483-12.715c-3.864-4.695-7.649-9.631-10.628-14.584
			c-2.151-3.568-4.58-8.109-4.228-12.314"/>
		<path style="fill:none;stroke:#FF0050;stroke-width:3;" d="M828.318,831.146c-0.401,0.408,1.266-1.471,1.342-1.711"/>
		<path style="fill:none;stroke:#FF0050;stroke-width:3;" d="M814.335,823.793c0.795-0.818,1.513-1.393,2.227-1.971"/>
		<path style="fill:none;stroke:#FF0050;stroke-width:3;" d="M837.508,887.502c-0.87-4.016-2.379-7.699-3.081-11.396"/>
		<path style="fill:none;stroke:#FF0050;stroke-width:3;" d="M828.617,880.955c-2.225-3.108-1.688-9.89,0.272-13.549"/>
		<path style="fill:none;stroke:#FF0050;stroke-width:3;" d="M803.14,870.232c5.86-6.701,14.7-8.453,22.934-7.455"/>
		<path style="fill:none;stroke:#FF0050;stroke-width:3;" d="M794.917,859.883c4.157-7.237,12.6-8.58,20.274-7.49"/>
		<path style="fill:none;stroke:#FF0050;stroke-width:3;" d="M804.959,847.555c0.64-0.332,4.133-3.77,6.702-4.297"/>
		<path style="fill:none;stroke:#FF0050;stroke-width:3;" d="M803.245,851.29c-1.395-6.586-7.609-12.292-10.922-17.882"/>
		<path style="fill:none;stroke:#FF0050;stroke-width:3;" d="M782.42,834.29c8.436-0.813,12.481-6.038,17.211-12.179"/>
		<path style="fill:none;stroke:#FF0050;stroke-width:3;" d="M828.587,822.486c4.877-4.029,11.721-13.639,7.143-17.408"/>
		<path style="fill:none;stroke:#FF0050;stroke-width:3;" d="M832.628,826.533c1.643-3.29,2.128-6.514-0.104-8.354"/>
		<path style="fill:none;stroke:#FF0050;stroke-width:3;" d="M833.499,790.133c3.612-3.632,5.23,2.532,5.161,5.045
			c-0.083,2.958-0.521,6.272-2.331,8.881c-3.783,5.442-7.834,9.609-14.7,11.049"/>
		<path style="fill:none;stroke:#FF0050;stroke-width:3;" d="M884.865,961.793c-6.344-3.607-9.683-10.809-15.478-15.313
			c-4.734-3.631-10.348-7.007-15.396-10.476c-10.912-6.92-20.156-15.72-30.672-23.051c-9.859-6.857-18.93-14.531-27.126-23.268
			c-8.774-9.453-12.187-21.488-17.289-33.255c-2.757-6.354-6.689-12.208-8.241-19.048c-0.705-3.107-2.156-8.062-0.523-10.944
			c0.94-1.66,1.656-3.556,2.979-4.771"/>
		<path style="fill:none;stroke:#FF0050;stroke-width:3;" d="M799.244,829.347c1.778,0.296,3.302-0.294,4.658-1.203"/>
		<path style="fill:none;stroke:#FF0050;stroke-width:3;" d="M810.17,842.154c0.214-1.536,0.114-2.907-0.233-4.351"/>
		<path style="fill:none;stroke:#FF0050;stroke-width:3;" d="M816.433,810.602c7.941-2.717,16.035-8.778,17.434-16.483
			c2.192-13.115-16.872-0.739-22.921,0.819c-0.497,0.276-0.995,0.559-1.506,0.58"/>
		<path style="fill:none;stroke:#FF0050;stroke-width:3;" d="M820.998,816.17c-1.893-3.398-5.116-6.229-8.16-8.592
			c-3.067-2.285-6.073-5.542-9.836-3.022c-1.891,1.296-5.333,5.151-4.996,7.727c0.199,1.464,1.886,2.903,2.848,4.032
			c1.34,1.493,2.757,3.012,4.462,4.127c3.414,2.232,7.215-2.498,9.391-4.942c1.559-1.812,0.372-3.011-0.922-4.657
			c-1.143-1.596-2.432-2.992-3.797-4.41c-0.656-0.786-1.314-1.57-2.072-2.304"/>
		<path style="fill:none;stroke:#FF0050;stroke-width:3;" d="M805.888,820.457c0.938-1.926,0.959-3.816,2.543-5.457
			c1.396-1.537,3.666-2.467,5.775-2.623"/>
		<path style="fill:none;stroke:#FF0050;stroke-width:3;" d="M798.349,813.298c1.579-3.702,4.584-10.083,9.799-8.601"/>
		<path style="fill:none;stroke:#FF0050;stroke-width:3;" d="M904.227,906.787c-2.608-6.968-7.676-23.318-12.203-29.295
			c-4.771-6.048-9.68-10.809-15.564-15.873c-8.823-7.598-19.069-13.242-28.842-19.531c-6.638-4.394-10.471-11.531-16.385-16.869
			c-2.343-2.119-4.095-4.58-6.339-6.822c-1.484-1.486-4.057-4.387-5.618-5.039"/>
		<path style="fill:none;stroke:#FF0050;stroke-width:3;" d="M842.674,886.493c-4.114-5.577-8.708-10.5-11.788-16.821
			c-2.34-5.281-3.25-11.717-6.153-16.908c-2.977-4.953-7.862-8.097-11.482-12.717c-3.861-4.693-7.646-9.63-10.628-14.582
			c-2.148-3.568-4.58-8.105-4.225-12.312"/>
		<path style="fill:none;stroke:#FF0050;stroke-width:3;" d="M828.344,831.186c-0.396,0.408,1.269-1.472,1.342-1.713"/>
		<path style="fill:none;stroke:#FF0050;stroke-width:3;" d="M814.365,823.83c0.791-0.818,1.509-1.391,2.224-1.967"/>
		<path style="fill:none;stroke:#FF0050;stroke-width:3;" d="M821.026,816.207c-1.891-3.396-5.117-6.227-8.158-8.59
			c-3.069-2.286-6.076-5.543-9.839-3.025c-1.89,1.297-5.332,5.151-4.996,7.729c0.2,1.464,1.886,2.903,2.849,4.03
			c1.34,1.494,2.755,3.014,4.459,4.128c3.414,2.231,7.219-2.501,9.39-4.944c1.562-1.812,0.373-3.01-0.921-4.654
			c-1.139-1.599-2.43-2.992-3.794-4.412c-0.659-0.785-1.315-1.57-2.072-2.302"/>
		<path style="fill:none;stroke:#FF0050;stroke-width:3;" d="M798.374,813.334c1.582-3.699,4.586-10.082,9.799-8.6"/>
		<path style="fill:none;stroke:#FF0050;stroke-width:3;" d="M809.306,795.639c-2.042,0.663-4.784,1.213-6.73,2.178
			c-2.518,1.236-4.766,3.725-7.041,5.301c-5.927,4.264-10.759,7.504-16.704,11.693c-3.021,2.152-5.148,5.024-6.96,7.621"/>
	</g>
	<path style="fill:none;stroke:#17192D;stroke-width:3;" d="M2048,0"/>
	<path style="fill:none;stroke:#17192D;stroke-width:3;" d="M2048,1536"/>
	<path style="fill:none;stroke:#17192D;stroke-width:3;" d="M0,1536"/>
	<path style="fill:none;stroke:#17192D;stroke-width:3;" d="M0,0"/>
</g>
<g id="Layer_1">
</g>
</svg>
