<?xml version="1.0" encoding="iso-8859-1"?>
<!-- Generator: Adobe Illustrator 15.1.0, SVG Export Plug-In . SVG Version: 6.00 Build 0)  -->
<!DOCTYPE svg PUBLIC "-//W3C//DTD SVG 1.1//EN" "http://www.w3.org/Graphics/SVG/1.1/DTD/svg11.dtd">
<svg version="1.1" xmlns="http://www.w3.org/2000/svg" xmlns:xlink="http://www.w3.org/1999/xlink" x="0px" y="0px" width="2048px"
	 height="1536px" viewBox="0 0 2048 1536" style="enable-background:new 0 0 2048 1536;" xml:space="preserve">
<g id="c3b_x5F_kopf">
	<g>
		<path style="fill:none;stroke:#FF0050;stroke-width:3;" d="M1507.758,711.784c-14.021-2.379-24.24,0.221-37.904-3.39
			c-5.604-1.405-13.32-2.261-17.529-7.828"/>
		<path style="fill:none;stroke:#FF0050;stroke-width:3;" d="M1577.794,788.731c-4.436-0.374-8.872-0.561-12.373-2.993"/>
		<path style="fill:none;stroke:#FF0050;stroke-width:3;" d="M1577.794,763.483c-4.201-0.375-9.805,0-12.605,2.806"/>
		<path style="fill:none;stroke:#FF0050;stroke-width:3;" d="M1556.617,790.789c0.932,1.309,1.399,2.805,2.334,3.928
			c0.933-2.432,2.335-7.48-0.935-8.979"/>
		<path style="fill:none;stroke:#FF0050;stroke-width:3;" d="M1558.717,763.483c1.167-1.31,1.635-2.62,1.635-4.115
			c0-2.433-3.034-4.489-3.034-1.122"/>
		<path style="fill:none;stroke:#FF0050;stroke-width:3;" d="M1554.147,753.382c3.036-4.115,10.272-7.482,15.409-2.806"/>
		<path style="fill:none;stroke:#FF0050;stroke-width:3;" d="M1558.484,783.307c-3.736-3.179-4.67-13.84,2.1-15.335"/>
		<path style="fill:none;stroke:#FF0050;stroke-width:3;" d="M1553.446,797.523c2.568,2.431,4.436,4.302,8.406,3.927
			c4.436-0.374,6.536-2.243,10.038-4.114"/>
		<path style="fill:none;stroke:#FF0050;stroke-width:3;" d="M1579.829,797.523c2.101-0.188,2.568-1.497,3.736-2.619"/>
		<path style="fill:none;stroke:#FF0050;stroke-width:3;" d="M1581.93,755.438c-1.633,0-3.269-0.187-3.968-1.309"/>
		<path style="fill:none;stroke:#FF0050;stroke-width:3;" d="M1613.979,744.161c-3.26-10.995-7.966-19.793-0.363-30.299
			c7.604,3.665,13.033,8.307,11.946,14.905c-0.724,3.909-4.343,6.353-7.603,9.529c-2.535,2.199-2.896,5.376-5.432,7.574"/>
		<path style="fill:none;stroke:#FF0050;stroke-width:3;" d="M1614.866,802.561c0,1.957,2.163,2.689,3.711,4.156
			c3.088,2.688,5.56,5.863,6.487,9.284c1.855,7.819-4.635,14.417-11.126,19.792c-0.307-10.751-8.652-22.725,0.62-32.498"/>
		<path style="fill:none;stroke:#FF0050;stroke-width:3;" d="M1599.105,828.707c2.164-2.198,0-9.041,0-12.462
			c0-5.864,4.018-7.33,6.49-12.217"/>
		<path style="fill:none;stroke:#FF0050;stroke-width:3;" d="M1607.397,740.252c-5.375-6.599-4.644-18.083-1.709-25.413"/>
		<path style="fill:none;stroke:#FF0050;stroke-width:3;" d="M1621.814,794.01c-2.688-1.955-5.864-2.2-9.287-0.979"/>
		<path style="fill:none;stroke:#FF0050;stroke-width:3;" d="M1623.28,754.913c-3.665,1.711-6.598,0.977-10.508,0"/>
		<path style="fill:none;stroke:#FF0050;stroke-width:3;" d="M1632.078,739.764c-2.535-5.621-0.361-12.951-0.361-18.571
			c0-3.421-0.362-6.842-3.622-9.774c-3.257-2.688-9.411-3.421-11.947-6.109"/>
		<path style="fill:none;stroke:#FF0050;stroke-width:3;" d="M1630.938,808.671c0,2.199,1.853,3.421,2.471,5.62
			c0.93,2.443,0.619,6.108-0.309,8.553c-2.162,7.574-9.27,15.393-17.305,20.036"/>
		<path style="fill:none;stroke:#FF0050;stroke-width:3;" d="M1590.781,853.876c-6.841-0.978-13.928,0.978-20.525-1.71
			c-7.087-2.688-11.729-8.553-18.326-12.219"/>
		<path style="fill:none;stroke:#FF0050;stroke-width:3;" d="M1555.839,706.53c6.354-10.262,18.815-15.149,30.3-16.127
			c7.33-0.489,11.974,1.954,18.57,4.397c5.377,1.956,10.996,0,16.616,0c6.599,0,13.684,0.734,20.038-0.243
			c5.618-0.733,10.263-1.467,16.126-1.467"/>
		<path style="fill:none;stroke:#FF0050;stroke-width:3;" d="M1650.893,853.387c-4.887,0-9.285-1.466-13.929-1.709
			c-4.643-0.245-9.285,1.709-13.927,1.221c-2.688-0.244-4.644-1.466-7.087-1.955c-2.688-0.244-4.398,0.734-7.087,1.711
			c-4.888,1.955-8.796,2.199-13.928,1.955"/>
		<path style="fill:none;stroke:#FF0050;stroke-width:3;" d="M1524.997,802.572c3.882-6.359,21.203-11.596,17.917-20.012
			c-1.794-4.864-5.076-6.174-2.09-11.598c2.39-4.488,3.884-9.164,0-13.466c-3.585-4.489-14.932-8.604-16.724-12.719"/>
		<path style="fill:none;stroke:#FF0050;stroke-width:3;" d="M1520.815,802.572c-1.792-2.992-7.167-6.172-10.153-8.979
			c-3.883-3.927-6.869-8.416-8.063-13.092c-2.688-9.912,5.673-18.89,13.438-27.12c2.389-2.432,4.18-4.489,4.479-7.482"/>
		<path style="fill:none;stroke:#FF0050;stroke-width:3;" d="M1558.234,734.679c-3.09-5.409-11.619-9.834-13.345-15.491"/>
		<path style="fill:none;stroke:#FF0050;stroke-width:3;" d="M1555.557,809.496c-3.789,5.351-15.512,12.446-22.383,13.069"/>
		<path style="fill:none;stroke:#FF0050;stroke-width:3;" d="M1601.777,739.764c-1.222,0.732-18.082-17.35-20.77-19.304"/>
		<path style="fill:none;stroke:#FF0050;stroke-width:3;" d="M1578.319,691.625c-10.507,1.712-21.015,3.91-31.522,5.132
			c-12.46,1.222-22.235,6.354-33.23,11.729c-13.439,6.354-22.236,16.127-32.743,26.146c-10.753,9.774-12.219,21.259-13.196,34.943
			c-0.244,5.62,1.955,10.752,1.711,16.127c-0.244,5.865,1.954,10.02,2.688,15.883c1.71,15.15,13.685,17.594,24.435,25.413
			c8.798,6.843,19.305,13.195,30.056,17.104c4.887,1.711,10.265,1.711,15.151,2.933c5.376,1.466,10.507,3.421,16.128,4.154
			c3.419,0.489,7.085,0.244,10.506,0.244"/>
		<path style="fill:none;stroke:#FF0050;stroke-width:3;" d="M1659.444,853.387c10.263-0.488,20.282,0.978,29.812-3.909
			c6.108-2.933,11.973-7.087,16.371-12.462c3.909-4.887,9.041-10.507,12.217-15.883c6.109-10.508,5.376-20.771,5.62-32.499
			c0.489-12.462,3.422-25.168,1.467-37.631c-2.199-13.683-10.263-26.146-17.105-37.874c-3.909-6.599-7.818-11.486-15.149-14.172
			c-5.375-1.956-10.996-2.2-16.616-3.177c-5.62-1.223-11.729-3.423-17.593-3.178c0,0.488,0,0.978,0,1.222"/>
		<path style="fill:none;stroke:#FF0050;stroke-width:3;" d="M1619.615,855.586c7.086,1.711-1.71,6.109-4.643,6.598
			c-5.132,0.733-10.752,0.489-15.884,0.246c-6.841-0.246-13.684-1.224-20.524-1.224c-6.598,0-9.775-1.222-12.219-7.574
			c-0.245,0-0.245-0.245-0.245-0.245"/>
		<path style="fill:none;stroke:#FF0050;stroke-width:3;" d="M1618.15,692.603c0,0.244,0,0.734,0,0.978
			c1.465-0.733,3.908-3.666,4.153-5.375c0.733-3.178-0.245-3.422-3.422-4.154c-4.887-1.468-10.996-0.978-16.128-0.489
			c-6.597,0.733-13.927-0.244-20.525,1.466c-1.71,0.489-17.104,5.62-11.484,8.063"/>
		<path style="fill:none;stroke:#FF0050;stroke-width:3;" d="M1606.176,691.625c1.956-1.222,4.888-2.199,5.863-4.154
			c-2.198-0.488-5.62-0.732-7.818-0.488c-2.688,0.488-3.177,1.955-5.375,3.421"/>
		<path style="fill:none;stroke:#FF0050;stroke-width:3;" d="M1607.886,856.808c0.246,0.489,0.246,0.733,0.489,0.978
			c-2.444,2.444-6.843,1.467-10.019,0.978"/>
		<path style="fill:none;stroke:#FF0050;stroke-width:3;" d="M1623.525,858.274c3.42,1.71,10.262-0.733,14.66,0
			c5.621,0.488,10.996-0.978,17.105-0.244c4.153,0.244,5.863-1.466,9.285-2.444c2.198-0.732,5.621-0.977,8.064-1.222
			c5.863-0.732,12.705,1.222,18.081-1.71c4.644-2.688,10.508-7.574,14.173-11.484c2.932-2.934,2.932-5.621,5.132-8.553
			c1.71-2.199,4.154-4.887,5.863-6.842c2.2-2.199,4.887-3.91,6.599-6.842c1.221-2.443,2.199-7.575,4.154-9.529
			c2.932-2.688,5.863-0.979,7.574-5.131c0.489-1.223,0-2.445,0.732-3.911c0.733-1.466,2.688-1.954,2.934-3.666
			c0.243-2.198-1.221-4.397-1.221-6.597c-0.245-2.443-0.49-4.887-0.49-7.33c0-2.688,0.49-5.132,0-7.82
			c-0.732-4.398-0.244-4.643,2.688-8.307c-3.911-1.467,0-7.087-4.154-9.285c1.956-3.423-2.688-8.064-2.443-11.975
			c0.243-3.665,0.977-3.665-1.222-7.33c-1.222-2.199-1.955-4.399-5.132-3.91c0-3.421-4.644-4.398-6.109-7.33
			c-0.487-1.221,0-2.934-0.978-4.154c-0.978-1.466-2.688-1.466-3.666-2.443c-0.731-0.978-0.242-2.443-0.976-3.177
			c-0.979-1.222-2.688-1.954-3.422-3.176c-2.199-2.688-0.978-4.644-4.153-7.087c-1.223-1.222-2.688-1.222-3.666-2.688
			c-0.977-1.466-0.488-3.42-1.955-4.643c-1.954-1.955-7.818-3.909-10.506-4.644c-6.598-1.464-12.708-0.977-19.305-1.954
			c-4.154-0.489-9.286-2.199-13.439-3.421c-1.711-0.488-3.422-1.71-5.62-2.199c-2.933-0.488-5.377,0.489-8.308,0.733
			c0-0.244,0.243-0.489,0.488-0.978c-4.399,0.244-8.309-1.466-12.463-0.244c-4.153,0.978-7.818,1.467-12.461,0.732"/>
		<path style="fill:none;stroke:#FF0050;stroke-width:3;" d="M1644.345,745.027c-0.194-5.528-1.838-13.031,1.339-16.164
			c-3.131-3.175-3.925-7.859-5.68-11.638c-1.812-4.143-5.482-6.114-6.934-10.316c8.103-2.483,8.182,4.545,12.279,9.04
			c1.867,2.278,3.43,2.752,5.062,5.812c1.568,2.701,1.696,5.644,2.606,8.824c0.91,3.183,2.852,10.266,0.518,13.997
			c0.6-0.843-7.076,4.164-4.495,4.096c-2.581,0.068-4.206-0.768-4.034-4.134c-0.723,0.122-1.082,0.183-1.803,0.305"/>
		<path style="fill:none;stroke:#FF0050;stroke-width:3;" d="M1633.193,837.06c-2.352,1.19,3.294-2.917,3.787-3.962
			c1.307-1.684,4.121-9.811,4.745-11.943c0.393-3.266-0.536-7.793-0.144-11.059c0.261-2.178-0.641-10.014,0.303-11.741
			c0.901-1.364,5.151-3.062,6.56-2.524c3.63,0.436,1.859-0.146,3.368,2.611c3.062,5.152,0.348,6.299-0.857,10.203
			c-1.116,3.178-2.046,7.85-2.843,11.436c-0.974,5.035,0.767,8.924-2.656,12.93c-1.714,2.004-7.039,6.517-9.303,6.98
			c-3.396,0.697-5.806-0.696-2.829-4.02"/>
		<path style="fill:none;stroke:#FF0050;stroke-width:3;" d="M1437.965,803.346c-10.78,0-21.563,0-32.343-3.589"/>
		<path style="fill:none;stroke:#FF0050;stroke-width:3;" d="M1435.55,743.326c-7.005,0-17.074,3.493-23.205,6.551"/>
		<path style="fill:none;stroke:#FF0050;stroke-width:3;" d="M1458.321,787.034c-3.502-1.313-6.567-1.749-9.193-3.934"/>
		<path style="fill:none;stroke:#FF0050;stroke-width:3;" d="M1508.615,833.23c-13.043,2.032-26.196,2.076-38.957,5.352
			c-5.23,1.269-12.39,1.932-16.486,7.41"/>
		<path style="fill:none;stroke:#FF0050;stroke-width:3;" d="M1521.334,798.333c-1.833-1.667-2-6.5-3.833-9
			c-2.333-3.5-2.833-7.167-3.167-11.5c-0.833-8.5,3.834-15,5.5-23.167c0.5-2.5,0.5-4.5,0.167-7"/>
		<path style="fill:none;stroke:#FF0050;stroke-width:3;" d="M1525.001,797.166c-0.333-5.166,3.667-8.5,4.5-13
			c0.333-2-0.333-4.333-0.333-6.5c0-2.166,0.666-3.666,1.166-5.666c0.667-4-3.166-7.667-4.666-11c-1.834-3.667-3-7.167-2.5-11.167
			c0.166-0.833,0.5-2,0.5-2.5"/>
	</g>
	<path style="fill:none;stroke:#17192D;stroke-width:3;" d="M2048,0"/>
	<path style="fill:none;stroke:#17192D;stroke-width:3;" d="M2048,1536"/>
	<path style="fill:none;stroke:#17192D;stroke-width:3;" d="M0,1536"/>
	<path style="fill:none;stroke:#17192D;stroke-width:3;" d="M0,0"/>
</g>
<g id="Layer_1">
</g>
</svg>
