<svg xmlns="http://www.w3.org/2000/svg" width="2048" height="1536" viewBox="0 0 2048 1536"><g fill="none" stroke-width="3"><g stroke="#FF0050"><path d="M948.444 632.05c3.53.353 7.752-.706 11.275.7-3.538 20.388-11.276 39.722-18.03 59.307.215-1.646.576-3.277 1.293-4.917M783.54 842.85c-2.693.178-5.3.404-7.78.65M936.156 805.14c.092 6.235.385 12.53 1.363 18.655 1.06 2.816 1.41 5.98 2.114 8.8 5.64 16.184 12.34 32.013 18.326 48.2 3.524 9.496 8.46 17.94 13.038 26.737 3.88 8.443-1.76 12.313-10.57 12.313l.707.705c-.707 0-1.06.353-1.764.353-6.696.702-14.45-9.147-19.026-13.726-3.28-3.593-6.576-6.58-10.422-9.525.02-.048.034-.094.053-.14M819.058 840.765M772.895 831.525c-6.25-.696-4.978-1.854-10.53-5.547M778.312 744.977c-3.7 1.848-10.41 4.617-15.27 6.004M782.263 738.89c3.936.694 8.098.923 12.03.232M960.892 920.69c-3.007-1.39-6.246-6.472-8.79-9.24-4.86-5.083-10.643-9.24-15.043-14.784M965.52 919.3c-1.156-6.926-8.56-12.933-12.033-19.17-2.777-4.853-4.858-10.395-7.636-15.245M952.1 880.03c-1.39-4.386-3.934-8.083-6.013-12.24-1.854-4.157-2.55-8.317-4.398-12.474M950.017 644.876c1.39-3.93 1.62-8.55 2.547-12.705M763.304 829.25c-1.8.514-4.37.383-5.657-1.027M767.036 740.018c-1.932-.38-4.372-.512-6.172-1.408M746.496 819.243c1.855-13.198-4.28-27.71-3.274-41.95.666-10.932 5.06-20.994 6.198-31.875M768.33 817.443c-1.73-3.183-4.923-6.71-8.026-9.29M758.845 745.97c-.475 2.853-1.426 6.185-3.33 8.56M751.336 738.457c6.605-7.843 14.865-14.035 23.948-17.34M775.696 842.51c-13.624-1.238-31.793-6.195-29.315-23.124M752.574 733.92c-.824-4.133-3.304-7.85-4.128-11.978M781.984 721.426c-3.516 4.097-8.79 8.192-14.07 9.36M928.75 803.97c-1.444-4.706.727-11.582 1.088-16.65.36-8.685.36-17.01.36-25.695 0-16.647-2.17-33.296.363-50.306 1.087-6.878 2.535-14.84 5.79-20.992-.363-.362-.722-.362-1.447-.723M931.284 872.37c-1.446-9.77-5.79-20.63-9.408-29.677-4.707-10.494-7.962-21.714-12.67-32.21M903.778 711.68c-4.707 5.066-8.686 10.86-13.392 15.202M764.738 720.365c6.963-.723 24.372 1.81 28.29-4.703M922.797 895.697c-4.417-5.045-8.518-10.252-13.25-14.984-4.26-4.26-8.992-7.887-13.88-11.198-7.574-5.207-14.83-10.413-23.664-13.41M925.744 887.747c.746-5.98-11.216-14.954-14.952-20.935-8.227-10.466-14.955-21.68-22.432-32.147"/></g><path d="M2048 0M2048 1536M0 1536M0 0" stroke="#17192D"/></g></svg>