<?xml version="1.0" encoding="iso-8859-1"?>
<!-- Generator: Adobe Illustrator 15.1.0, SVG Export Plug-In . SVG Version: 6.00 Build 0)  -->
<!DOCTYPE svg PUBLIC "-//W3C//DTD SVG 1.1//EN" "http://www.w3.org/Graphics/SVG/1.1/DTD/svg11.dtd">
<svg version="1.1" xmlns="http://www.w3.org/2000/svg" xmlns:xlink="http://www.w3.org/1999/xlink" x="0px" y="0px" width="2048px"
	 height="1536px" viewBox="0 0 2048 1536" style="enable-background:new 0 0 2048 1536;" xml:space="preserve">
<g id="c3b_x5F_beine">
	<g>
		<path style="fill:none;stroke:#FF0050;stroke-width:3;" d="M689.099,944.811c-1.55-6.247-3.67-12.354-3.373-18.455"/>
		<path style="fill:none;stroke:#FF0050;stroke-width:3;" d="M743.376,855.135c-0.514,12.841-4.421,26.375-6.354,39.107
			c-1.974,13.207-1.464,25.172,0.394,38.197"/>
		<path style="fill:none;stroke:#FF0050;stroke-width:3;" d="M747.905,722.188c-2.855-10.941-5.708-21.405-9.039-32.346
			c-2.379-7.609-1.903-19.504-5.709-26.164"/>
		<path style="fill:none;stroke:#FF0050;stroke-width:3;" d="M771.214,684.132c0-8.561-1.902-17.599-2.379-26.637
			c-0.477-4.756,0.477-11.415-1.428-15.695"/>
		<path style="fill:none;stroke:#FF0050;stroke-width:3;" d="M748.034,832.187c0.824,6.604-2.478,14.864-3.719,21.056"/>
		<path style="fill:none;stroke:#FF0050;stroke-width:3;" d="M728.456,1097.731c2.957,2.12,3.465,7.79,4.782,10.987
			c1.197,2.918,2.959,5.555,4.282,8.51c3.154,7.051,6.095,13.676,11.18,19.611c8.416,9.829,10.062,22.537,13.845,34.102
			c2.185,6.664,5.577,13.878,10.421,19.054c4.105,4.391,9.866,6.638,14.46,10.421c8.395,6.915,9.454,18.418,18.344,25.276
			c8.949,6.907,17.087,16.249,28.48,18.283c17.906,3.247,38.66-0.408,54.12-8.938c9.77-5.28,17.906-14.222,26.451-21.124
			c8.951-6.906,18.717-15.437,24.008-26c8.137-17.471,6.507-38.186,6.507-57.281c0-10.561,1.63-21.122,0.407-31.684
			c-0.812-9.751-2.438-19.5-4.066-29.25c-3.256-19.903-2.848-40.621-5.699-60.932"/>
		<path style="fill:none;stroke:#FF0050;stroke-width:3;" d="M779.726,1094.074c-4.881-4.876-9.763-8.936-15.461-12.593"/>
		<path style="fill:none;stroke:#FF0050;stroke-width:3;" d="M808.851,1017.684c-0.751-16.554-15.813-35.002-25.657-47.626
			c-14.368-19.04-31.71-29.801-52.61-39.682c-40.818-19.171-72.018-57.046-102.247-89.311c-7.483-8.185-14.474-16.075-21.957-24.263
			c-6.104-6.021-11.813-13.143-16.792-20.779"/>
		<path style="fill:none;stroke:#FF0050;stroke-width:3;" d="M749.781,1139.565c0.276,1.112-29.453-23.38-35.56-28.944
			c-17.496-18.086-32.766-36.726-48.307-56.472c-28.584-38.94-48.53-81.206-76.004-120.421
			c-21.367-28.929-43.286-60.078-70.783-85.124"/>
		<path style="fill:none;stroke:#FF0050;stroke-width:3;" d="M636.866,840.543c9.938-21.432,2.549-40.033,4.38-59.455"/>
		<path style="fill:none;stroke:#FF0050;stroke-width:3;" d="M786.025,545.848c-2.259,47.598-16.98,87.758-53.622,120.744
			c-20.617,18.919-37.383,36.342-53.137,59.853c-11.16,18.66-20.686,45.89-35.587,60.2l-1.122-0.247"/>
		<path style="fill:none;stroke:#FF0050;stroke-width:3;" d="M593.047,739.127c21.326-80.921,33.214-161.909,54.421-238.004"/>
		<path style="fill:none;stroke:#FF0050;stroke-width:3;" d="M908.358,592.782c5.007-38.781-0.162-81.412-2.031-120.473
			c-1.372-22.985-2.786-44.825-9.936-66.899c-10.402-26.792-26.18-34.303-48.558-48.961"/>
		<path style="fill:none;stroke:#FF0050;stroke-width:3;" d="M648.409,503.806c6.32-12.687,17-31.084,24.689-44.639
			c13.325-22.279,24.6-38.99,40.301-58.36c15.016-20.157,35.452-37.151,60.699-46.32c13.769-5.727,53.932-17.182,67.7-5.727
			c2.296,2.293,3.444,4.585,4.592,8.021"/>
		<path style="fill:none;stroke:#FF0050;stroke-width:3;" d="M692.249,518.155c-0.27-9.449,0.584-18.644,1.435-27.84"/>
		<path style="fill:none;stroke:#FF0050;stroke-width:3;" d="M660.29,529.884c2.218-10.071,7.662-24.12,13.49-34.568"/>
		<path style="fill:none;stroke:#FF0050;stroke-width:3;" d="M782.842,512.3c-1.258-4.971-4.999-9.312-9.482-10.3"/>
		<path style="fill:none;stroke:#FF0050;stroke-width:3;" d="M852.128,1044.15c-1.148-4.582-3.442-9.166-6.885-11.453"/>
		<path style="fill:none;stroke:#FF0050;stroke-width:3;" d="M842.948,1118.613c-4.589,3.438-9.181,6.875-13.77,11.456"/>
		<path style="fill:none;stroke:#FF0050;stroke-width:3;" d="M815.407,1097.993c-4.588-1.144-8.03-1.144-11.475,0"/>
		<path style="fill:none;stroke:#FF0050;stroke-width:3;" d="M691.448,671.129c0.433-4.697,0.992-9.963,2.125-15.109"/>
		<path style="fill:none;stroke:#FF0050;stroke-width:3;" d="M832.394,522.465c3.516-4.091,5.275-9.359,6.446-14.624"/>
		<path style="fill:none;stroke:#FF0050;stroke-width:3;" d="M831.807,533.588c2.929,1.172,5.272,0.584,7.619-1.756"/>
		<path style="fill:none;stroke:#FF0050;stroke-width:3;" d="M843.528,1028.638c5.275-1.168,9.968-2.927,14.653-4.679"/>
		<path style="fill:none;stroke:#FF0050;stroke-width:3;" d="M829.46,940.279c-3.516-11.119-7.619-22.236-13.48-32.184"/>
		<path style="fill:none;stroke:#FF0050;stroke-width:3;" d="M777.294,858.355c-1.172-1.17-4.1-2.926-6.447-4.095"/>
		<path style="fill:none;stroke:#FF0050;stroke-width:3;" d="M804.257,678.71c0-5.265-0.585-11.119,0.59-16.387"/>
		<path style="fill:none;stroke:#FF0050;stroke-width:3;" d="M835.322,425.327c2.347-5.267,4.104-10.534,5.862-15.216"/>
		<path style="fill:none;stroke:#FF0050;stroke-width:3;" d="M750.332,420.061c-3.517-1.171-4.688-11.708-3.517-16.386"/>
		<path style="fill:none;stroke:#FF0050;stroke-width:3;" d="M591.544,745.698c0.746,6.729-2.242,13.457-8.225,16.448"/>
	</g>
	<path style="fill:none;stroke:#17192D;stroke-width:3;" d="M2048,0"/>
	<path style="fill:none;stroke:#17192D;stroke-width:3;" d="M2048,1536"/>
	<path style="fill:none;stroke:#17192D;stroke-width:3;" d="M0,1536"/>
	<path style="fill:none;stroke:#17192D;stroke-width:3;" d="M0,0"/>
</g>
<g id="Layer_1">
</g>
</svg>
