<?xml version="1.0" encoding="iso-8859-1"?>
<!-- Generator: Adobe Illustrator 15.1.0, SVG Export Plug-In . SVG Version: 6.00 Build 0)  -->
<!DOCTYPE svg PUBLIC "-//W3C//DTD SVG 1.1//EN" "http://www.w3.org/Graphics/SVG/1.1/DTD/svg11.dtd">
<svg version="1.1" xmlns="http://www.w3.org/2000/svg" xmlns:xlink="http://www.w3.org/1999/xlink" x="0px" y="0px" width="2048px"
	 height="1536px" viewBox="0 0 2048 1536" style="enable-background:new 0 0 2048 1536;" xml:space="preserve">
<g id="c3b_x5F_unterhose">
	<g>
		<path style="fill:none;stroke:#FF0050;stroke-width:3;" d="M948.444,632.051c3.529,0.352,7.752-0.707,11.275,0.7
			c-3.537,20.387-11.275,39.721-18.028,59.306c0.214-1.646,0.575-3.277,1.292-4.917"/>
		<path style="fill:none;stroke:#FF0050;stroke-width:3;" d="M783.539,842.851c-2.692,0.177-5.298,0.403-7.778,0.65"/>
		<path style="fill:none;stroke:#FF0050;stroke-width:3;" d="M936.156,805.141c0.092,6.234,0.385,12.529,1.363,18.654
			c1.061,2.816,1.411,5.98,2.115,8.801c5.64,16.183,12.339,32.012,18.326,48.198c3.524,9.497,8.46,17.942,13.038,26.738
			c3.881,8.443-1.76,12.313-10.57,12.313l0.707,0.705c-0.707,0-1.059,0.353-1.764,0.353c-6.697,0.702-14.45-9.147-19.027-13.726
			c-3.279-3.593-6.576-6.58-10.422-9.525c0.019-0.048,0.034-0.094,0.053-0.141"/>
		<path style="fill:none;stroke:#FF0050;stroke-width:3;" d="M819.058,840.765"/>
		<path style="fill:none;stroke:#FF0050;stroke-width:3;" d="M772.895,831.525c-6.249-0.696-4.978-1.854-10.529-5.547"/>
		<path style="fill:none;stroke:#FF0050;stroke-width:3;" d="M778.312,744.977c-3.7,1.848-10.41,4.617-15.271,6.004"/>
		<path style="fill:none;stroke:#FF0050;stroke-width:3;" d="M782.263,738.89c3.936,0.694,8.098,0.923,12.031,0.232"/>
		<path style="fill:none;stroke:#FF0050;stroke-width:3;" d="M960.892,920.689c-3.007-1.389-6.246-6.471-8.791-9.24
			c-4.859-5.082-10.642-9.24-15.042-14.783"/>
		<path style="fill:none;stroke:#FF0050;stroke-width:3;" d="M965.521,919.301c-1.157-6.927-8.562-12.934-12.034-19.17
			c-2.777-4.854-4.858-10.396-7.636-15.246"/>
		<path style="fill:none;stroke:#FF0050;stroke-width:3;" d="M952.101,880.031c-1.391-4.387-3.935-8.084-6.014-12.241
			c-1.854-4.157-2.549-8.317-4.398-12.474"/>
		<path style="fill:none;stroke:#FF0050;stroke-width:3;" d="M950.017,644.876c1.389-3.929,1.619-8.549,2.547-12.705"/>
		<path style="fill:none;stroke:#FF0050;stroke-width:3;" d="M763.304,829.25c-1.8,0.514-4.369,0.383-5.657-1.027"/>
		<path style="fill:none;stroke:#FF0050;stroke-width:3;" d="M767.036,740.018c-1.932-0.381-4.372-0.512-6.172-1.408"/>
		<path style="fill:none;stroke:#FF0050;stroke-width:3;" d="M746.496,819.243c1.855-13.198-4.28-27.709-3.274-41.95
			c0.666-10.932,5.061-20.994,6.198-31.875"/>
		<path style="fill:none;stroke:#FF0050;stroke-width:3;" d="M768.329,817.443c-1.728-3.183-4.922-6.711-8.025-9.289"/>
		<path style="fill:none;stroke:#FF0050;stroke-width:3;" d="M758.845,745.97c-0.475,2.853-1.426,6.185-3.33,8.56"/>
		<path style="fill:none;stroke:#FF0050;stroke-width:3;" d="M751.336,738.457c6.605-7.843,14.865-14.035,23.948-17.34"/>
		<path style="fill:none;stroke:#FF0050;stroke-width:3;" d="M775.696,842.51c-13.624-1.238-31.793-6.195-29.315-23.124"/>
		<path style="fill:none;stroke:#FF0050;stroke-width:3;" d="M752.574,733.919c-0.824-4.132-3.304-7.848-4.128-11.977"/>
		<path style="fill:none;stroke:#FF0050;stroke-width:3;" d="M781.984,721.426c-3.516,4.097-8.79,8.192-14.071,9.361"/>
		<path style="fill:none;stroke:#FF0050;stroke-width:3;" d="M928.751,803.971c-1.445-4.707,0.726-11.583,1.087-16.65
			c0.361-8.686,0.361-17.01,0.361-25.696c0-16.647-2.171-33.296,0.362-50.306c1.086-6.877,2.534-14.839,5.79-20.991
			c-0.364-0.362-0.723-0.362-1.448-0.723"/>
		<path style="fill:none;stroke:#FF0050;stroke-width:3;" d="M931.284,872.369c-1.446-9.77-5.789-20.629-9.408-29.676
			c-4.707-10.494-7.962-21.714-12.669-32.209"/>
		<path style="fill:none;stroke:#FF0050;stroke-width:3;" d="M903.778,711.68c-4.707,5.066-8.686,10.859-13.392,15.202"/>
		<path style="fill:none;stroke:#FF0050;stroke-width:3;" d="M764.738,720.365c6.963-0.723,24.372,1.81,28.289-4.703"/>
		<path style="fill:none;stroke:#FF0050;stroke-width:3;" d="M922.797,895.697c-4.417-5.045-8.518-10.252-13.249-14.984
			c-4.26-4.26-8.993-7.887-13.882-11.198c-7.573-5.207-14.83-10.413-23.663-13.411"/>
		<path style="fill:none;stroke:#FF0050;stroke-width:3;" d="M925.744,887.747c0.746-5.981-11.216-14.954-14.952-20.935
			c-8.227-10.466-14.955-21.68-22.432-32.147"/>
	</g>
	<path style="fill:none;stroke:#17192D;stroke-width:3;" d="M2048,0"/>
	<path style="fill:none;stroke:#17192D;stroke-width:3;" d="M2048,1536"/>
	<path style="fill:none;stroke:#17192D;stroke-width:3;" d="M0,1536"/>
	<path style="fill:none;stroke:#17192D;stroke-width:3;" d="M0,0"/>
</g>
<g id="Layer_1">
</g>
</svg>
