<?xml version="1.0" encoding="iso-8859-1"?>
<!-- Generator: Adobe Illustrator 15.1.0, SVG Export Plug-In . SVG Version: 6.00 Build 0)  -->
<!DOCTYPE svg PUBLIC "-//W3C//DTD SVG 1.1//EN" "http://www.w3.org/Graphics/SVG/1.1/DTD/svg11.dtd">
<svg version="1.1" xmlns="http://www.w3.org/2000/svg" xmlns:xlink="http://www.w3.org/1999/xlink" x="0px" y="0px" width="2048px"
	 height="1536px" viewBox="0 0 2048 1536" style="enable-background:new 0 0 2048 1536;" xml:space="preserve">
<g id="c3b_x5F_corpus">
	<g>
		<path style="fill:none;stroke:#FF0050;stroke-width:3;" d="M1229.761,1064.186c-25.156,21.524-51.508,26.312-83.852,28.7"/>
		<path style="fill:none;stroke:#FF0050;stroke-width:3;" d="M1144.71,1096.475c-22.76-2.393-44.323,14.35-67.078,17.937
			c-31.145,4.782-30.89-3.415-52.25-24.089c-43.791-40.029-86.511-81.373-129.234-122.713"/>
		<path style="fill:none;stroke:#FF0050;stroke-width:3;" d="M948.265,638.465c22.759-16.742,39.53-41.857,64.683-57.399
			c23.958-15.548,51.504-25.115,73.067-46.641"/>
		<path style="fill:none;stroke:#FF0050;stroke-width:3;" d="M1090.807,503.336c5.991-4.787,3.594-21.529,3.594-31.098"/>
		<path style="fill:none;stroke:#FF0050;stroke-width:3;" d="M1208.202,465.064c-16.77-4.785-33.54-3.591-50.312-7.179
			c-27.552-5.977-74.27-25.113-100.622-13.153"/>
		<path style="fill:none;stroke:#FF0050;stroke-width:3;" d="M949.462,549.975c33.541-39.467,52.703-93.283,105.409-101.655"/>
		<path style="fill:none;stroke:#FF0050;stroke-width:3;" d="M1174.662,921.881c-13.181-16.742-19.169-44.248-9.586-63.384"/>
		<path style="fill:none;stroke:#FF0050;stroke-width:3;" d="M1171.067,633.681c-2.399,5.979,0,11.957,7.186,13.157
			C1199.815,650.425,1181.849,614.549,1171.067,633.681"/>
		<path style="fill:none;stroke:#FF0050;stroke-width:3;" d="M1171.067,886.004c-4.792,11.959,10.781,23.919,13.175,9.567
			c1.199-11.957-10.778-14.352-14.374-8.37"/>
		<path style="fill:none;stroke:#FF0050;stroke-width:3;" d="M1179.45,637.267c-2.394,1.198-3.594,1.198-1.197,1.198"/>
		<path style="fill:none;stroke:#FF0050;stroke-width:3;" d="M1177.057,893.182c1.196,0,1.196,0,0-1.195"/>
		<path style="fill:none;stroke:#FF0050;stroke-width:3;" d="M960.242,771.203c-1.727,4.049-0.926,7.484,2.397,8.371"/>
		<path style="fill:none;stroke:#FF0050;stroke-width:3;" d="M1212.991,954.17c-33.541,0-63.487-9.563-94.633-16.744"/>
		<path style="fill:none;stroke:#FF0050;stroke-width:3;" d="M1101.587,601.394c-21.559,5.979-44.319,11.959-67.077,16.741"/>
		<path style="fill:none;stroke:#FF0050;stroke-width:3;" d="M1121.95,939.818c-26.348,1.197-49.112-4.784-74.266-10.762"/>
		<path style="fill:none;stroke:#FF0050;stroke-width:3;" d="M1032.112,618.135c-26.354-5.979-56.295,3.588-75.464,20.33"/>
		<path style="fill:none;stroke:#FF0050;stroke-width:3;" d="M1044.093,927.859c-25.156,5.979-55.102-10.762-76.664-23.919"/>
		<path style="fill:none;stroke:#FF0050;stroke-width:3;" d="M961.442,924.273c3.592-2.393,7.188-5.981,8.383-10.764"/>
		<path style="fill:none;stroke:#FF0050;stroke-width:3;" d="M1054.871,677.929c-7.187-5.979-11.978-13.157-15.572-21.525"/>
		<path style="fill:none;stroke:#FF0050;stroke-width:3;" d="M1051.276,866.869c2.396-9.564,8.391-17.936,15.572-23.915"/>
		<path style="fill:none;stroke:#FF0050;stroke-width:3;" d="M1191.433,789.143c1.197-1.197,1.197-2.391,2.393-3.588"/>
		<path style="fill:none;stroke:#FF0050;stroke-width:3;" d="M1399.854,903.94c-3.595-20.326-9.585-43.05-15.574-62.183"/>
		<path style="fill:none;stroke:#FF0050;stroke-width:3;" d="M1375.898,680.318c0-14.351,8.381-31.091,16.77-41.854"/>
		<path style="fill:none;stroke:#FF0050;stroke-width:3;" d="M1341.158,626.505c6.834,3.591,13.643,2.251,20.363,4.786"/>
		<path style="fill:none;stroke:#FF0050;stroke-width:3;" d="M1354.335,654.013c2.395-5.98,4.792-10.765,8.384-14.353"/>
		<path style="fill:none;stroke:#FF0050;stroke-width:3;" d="M1304.028,586.449c-8.384-5.98-23.958-10.766-34.738-10.766"/>
		<path style="fill:none;stroke:#FF0050;stroke-width:3;" d="M1272.741,955.238c10.781-3.587,21.558-5.979,28.746-14.351"/>
		<path style="fill:none;stroke:#FF0050;stroke-width:3;" d="M1375.898,978.083c3.592-9.565,1.195-19.13,0-28.698"/>
		<path style="fill:none;stroke:#FF0050;stroke-width:3;" d="M1381.888,585.849c3.592-1.197,7.186-2.392,11.976-2.392"/>
		<path style="fill:none;stroke:#FF0050;stroke-width:3;" d="M1252.522,530.837c-7.19-3.585-10.782-14.349-14.376-21.526"/>
		<path style="fill:none;stroke:#FF0050;stroke-width:3;" d="M1192.63,498.549c-8.388-4.785-23.962-8.374-32.343-7.176"/>
		<path style="fill:none;stroke:#FF0050;stroke-width:3;" d="M1169.868,1053.424c5.988,0,15.573-3.587,20.363-8.371"/>
		<path style="fill:none;stroke:#FF0050;stroke-width:3;" d="M1227.367,1017.548c2.394-5.976,5.986-10.763,9.582-14.351"/>
		<path style="fill:none;stroke:#FF0050;stroke-width:3;" d="M1210.596,780.77c-5.991,1.197-10.78,3.59-14.374,7.176"/>
		<path style="fill:none;stroke:#FF0050;stroke-width:3;" d="M1210.596,752.068c-5.991-1.192-10.78-3.587-14.374-5.979"/>
		<path style="fill:none;stroke:#FF0050;stroke-width:3;" d="M1231.884,569.886c4.284,1.832-14.686,0.614-16.519,0.614
			c-14.686-1.223-29.981-5.496-44.667-9.164c-27.535-6.111-56.908-16.493-81.381-29.93"/>
		<path style="fill:none;stroke:#FF0050;stroke-width:3;" d="M1222.703,966.316c-17.74,0-44.664,1.834-64.854,6.721
			c-28.759,6.72-53.234,22.604-79.545,33.596c-0.609,0-0.609,0-0.609,0"/>
		<path style="fill:none;stroke:#FF0050;stroke-width:3;" d="M1086.349,1042.698c-5.725-1.872-11.634-5.574-16.33-9.397"/>
		<path style="fill:none;stroke:#FF0050;stroke-width:3;" d="M1215.365,580.272c3.672-2.443,7.956-5.498,11.623-7.327"/>
		<path style="fill:none;stroke:#FF0050;stroke-width:3;" d="M1233.107,967.543c-2.446-0.613-4.894-0.613-7.952-0.613"/>
		<path style="fill:none;stroke:#FF0050;stroke-width:3;" d="M1214.143,954.713c2.444,5.5,15.295,8.551,22.025,8.551"/>
		<path style="fill:none;stroke:#FF0050;stroke-width:3;" d="M1203.739,964.486c0.611,1.222,5.508-3.664,7.956-5.497"/>
		<path style="fill:none;stroke:#FF0050;stroke-width:3;" d="M1208.024,574.774c2.445,0.611,4.893,1.834,7.341,3.057"/>
		<path style="fill:none;stroke:#FF0050;stroke-width:3;" d="M1198.845,575.386c-30.591-1.22-66.697,17.711-93.617,28.101"/>
		<path style="fill:none;stroke:#FF0050;stroke-width:3;" d="M1165.806,659.072c-6.119-16.495-0.614-35.431,3.668-50.699"/>
		<path style="fill:none;stroke:#FF0050;stroke-width:3;" d="M1100.334,767.799c-5.51-1.222-11.013,0-15.907-1.222"/>
		<path style="fill:none;stroke:#FF0050;stroke-width:3;" d="M961.442,786.125c9.789-6.109,1.835-17.712,0-26.879"/>
		<path style="fill:none;stroke:#FF0050;stroke-width:3;" d="M998.153,751.305c0-4.276-1.223-8.552-3.06-12.214"/>
		<path style="fill:none;stroke:#FF0050;stroke-width:3;" d="M993.261,813.611c1.225-3.664,1.833-7.329,1.833-10.995"/>
		<path style="fill:none;stroke:#FF0050;stroke-width:3;" d="M1043.431,750.694c-0.61-4.886,0-9.773-3.059-14.048"/>
		<path style="fill:none;stroke:#FF0050;stroke-width:3;" d="M1037.925,808.112c1.225-3.665,2.447-7.329,3.06-10.995"/>
		<path style="fill:none;stroke:#FF0050;stroke-width:3;" d="M952.55,672.85c-5.859,1.758-12.307,4.1-18.757,4.1"/>
		<path style="fill:none;stroke:#FF0050;stroke-width:3;" d="M963.277,875.309c-4.893-2.444-10.4-3.057-15.905-4.891"/>
		<path style="fill:none;stroke:#FF0050;stroke-width:3;" d="M1230.054,1065.889c15.907,3.051,23.863-2.441,36.71-8.55"/>
		<path style="fill:none;stroke:#FF0050;stroke-width:3;" d="M1261.528,1058.094c27.501-1.818,51.958-2.959,78.697-11.48
			c28.812-9.184,50.171-31.223,61.493-58.871c5.144-12.561,11.001-25.42,15.517-38.193c3.154-8.921,4.865-17.234,9.715-25.502
			c4.908-8.372,10.688-16.197,15.955-24.343c6.169-9.545,11.358-20.354,16.312-30.697c4.117-8.591,6.636-21.916,6.963-31.464"/>
		<path style="fill:none;stroke:#FF0050;stroke-width:3;" d="M1239.233,477.656c4.893-0.611,9.177-1.22,14.072-1.829"/>
		<path style="fill:none;stroke:#FF0050;stroke-width:3;" d="M1197.83,467.056c16.699-3.507,41.675-0.515,57.311,5.714"/>
		<path style="fill:none;stroke:#FF0050;stroke-width:3;" d="M919.44,918.523c13.825,13.479,30.608,23.552,47.967,31.817
			c16.738,7.97,35.146,12.159,51.715,20.014c7.974,3.778,14.387,8.972,21.421,14.236c5.569,4.167,11.815,8.816,17.403,12.873
			c5.461,3.972,10.473,10.426,16.719,13.21"/>
		<path style="fill:none;stroke:#FF0050;stroke-width:3;" d="M905.386,597.143c6.262,5.005,30.065-30.643,35.078-36.267"/>
		<path style="fill:none;stroke:#FF0050;stroke-width:3;" d="M877.677,952.342c4.681,2.671,8.736,5.399,14.409,5.455"/>
		<path style="fill:none;stroke:#FF0050;stroke-width:3;" d="M905.386,599.647c0.623,0.622,10.648-3.132,13.777-4.382"/>
		<path style="fill:none;stroke:#FF0050;stroke-width:3;" d="M936.078,637.79c0,0,3.755-1.874,5.012-3.125"/>
		<path style="fill:none;stroke:#FF0050;stroke-width:3;" d="M959.897,589.205c3.923-4.57,8.503-11.097,13.731-14.363"/>
		<path style="fill:none;stroke:#FF0050;stroke-width:3;" d="M1012.861,572.883c-2.615,0.653-5.229,0.653-7.845,1.308"/>
		<path style="fill:none;stroke:#FF0050;stroke-width:3;" d="M984.306,986.379c-3.777-4.864-6.91-9.8-10.039-14.729"/>
		<path style="fill:none;stroke:#FF0050;stroke-width:3;" d="M908.925,919c1.851,0.691,3.723,1.613,5.302,2.607"/>
		<path style="fill:none;stroke:#FF0050;stroke-width:3;" d="M919.669,938.027c-2.119-2.301-4.244-4.598-5.677-6.339"/>
		<path style="fill:none;stroke:#FF0050;stroke-width:3;" d="M1202.806,574.485c-1.196,0.599-1.196,1.195-2.393,1.195l0,0
			c2.996,0,4.191-2.392,5.988-3.585"/>
		<path style="fill:none;stroke:#FF0050;stroke-width:3;" d="M1255.141,472.77c28.553,1.884,53.94,3.064,81.698,11.893
			c29.909,9.515,52.088,32.342,63.842,60.983c5.339,13.013,11.417,26.334,16.103,39.565c3.272,9.241,5.05,17.854,10.089,26.42
			c5.093,8.67,11.093,16.775,16.557,25.214c6.407,9.887,11.793,26.091,16.938,36.803c4.271,8.899,8.051,20.377,8.391,30.265"/>
		<path style="fill:none;stroke:#FF0050;stroke-width:3;" d="M918.266,917.65c-0.746-4.485-2.991-8.225-7.476-9.719"/>
		<path style="fill:none;stroke:#FF0050;stroke-width:3;" d="M889.972,611.079c0.371,0.368,3.152-3.893,4.08-4.82
			c2.041-2.225,4.451-3.153,6.862-4.636"/>
		<path style="fill:none;stroke:#FF0050;stroke-width:3;" d="M929.47,655.394c2.224-2.966,10.2-11.124,9.456-14.833"/>
		<path style="fill:none;stroke:#FF0050;stroke-width:3;" d="M916.491,635.368c-0.188-1.853-3.71-5.56-5.935-6.487"/>
		<path style="fill:none;stroke:#FF0050;stroke-width:3;" d="M937.155,931.191c-2.055-5.838,2.521-13.408-0.318-19.562"/>
		<path style="fill:none;stroke:#FF0050;stroke-width:3;" d="M938.729,922.988c1.105,2.996,7.415,0.789,9.623-0.315"/>
	</g>
	<path style="fill:none;stroke:#17192D;stroke-width:3;" d="M2048,0"/>
	<path style="fill:none;stroke:#17192D;stroke-width:3;" d="M2048,1536"/>
	<path style="fill:none;stroke:#17192D;stroke-width:3;" d="M0,1536"/>
	<path style="fill:none;stroke:#17192D;stroke-width:3;" d="M0,0"/>
</g>
<g id="Layer_1">
</g>
</svg>
