<?xml version="1.0" encoding="iso-8859-1"?>
<!-- Generator: Adobe Illustrator 15.1.0, SVG Export Plug-In . SVG Version: 6.00 Build 0)  -->
<!DOCTYPE svg PUBLIC "-//W3C//DTD SVG 1.1//EN" "http://www.w3.org/Graphics/SVG/1.1/DTD/svg11.dtd">
<svg version="1.1" xmlns="http://www.w3.org/2000/svg" xmlns:xlink="http://www.w3.org/1999/xlink" x="0px" y="0px" width="2048px"
	 height="1536px" viewBox="0 0 2048 1536" style="enable-background:new 0 0 2048 1536;" xml:space="preserve">
<g id="cheadb_x5F_">
	<g>
		<path style="fill:#17192D;" d="M1034.761,824.925c5.813,0.447,11.775,1.789,18.034,2.533c7.602,0.896,15.501,1.788,22.654,5.366
			c3.727,3.726,8.346,5.663,11.327,10.582c0.446,2.682,2.384,2.235,1.49,5.515c0.148,0.446-0.299,0-0.299-0.597
			c-3.428,0.148-1.789-0.746-4.321-4.174c-3.876,1.192-6.707-0.596-9.539,0.597c-11.924-0.745-22.207,0-33.831,1.192
			c-2.833,1.342-6.409,1.342-9.688,0.894c-2.088-0.745-4.323,0.745-6.856,0.299c-7.75-0.447-16.395-0.447-23.996,0.596
			c-5.663-0.298-11.177,0-16.99,0.597c-2.235-0.447-4.77-1.192-7.898-0.298c-0.896,2.086-1.938,1.64-1.192,3.428
			c-0.298,0.298-0.597,0.745-1.043,1.043c-0.447-0.148-0.896,0-1.343-0.447c0.597-4.322,3.428-6.707,6.112-9.985
			c5.216-4.77,11.923-7.005,17.586-11.625c3.727-2.385,7.601-2.684,11.625-4.322c5.067-0.745,10.73-0.447,15.649-1.49
			C1026.415,825.67,1030.438,825.372,1034.761,824.925z M1011.213,828.65c-5.812-0.297-9.836,2.386-15.352,4.025
			c-0.298,0.297-1.639,1.638-2.384,2.086c-4.173,2.98-9.092,4.322-13.563,10.284c5.366-0.448,8.049,1.49,10.583,0.446
			c3.726,0.447,7.004-1.49,10.729-1.64c5.366,1.64,11.179,0.298,16.693,1.044c5.068,0.596,10.581-0.596,15.798-0.895
			c9.241-3.577,19.972-1.043,29.51-2.087c4.62,0,9.986-0.745,17.288,0.149c-2.831-5.962-7.898-7.005-11.326-8.942
			c-8.793-2.385-17.587-3.876-26.678-4.769c-1.789-0.299-4.024,0.446-5.663-0.598
			C1028.651,828.204,1018.813,825.372,1011.213,828.65z"/>
		<path style="fill:#17192D;" d="M1084.54,796.906c-1.49,3.278-5.066,3.577-7.601,5.365c-3.428,1.789-7.153,3.576-11.029,4.024
			c-1.042,0.596-2.533,0.745-3.727,0.894c-9.984,1.789-19.672,5.813-30.104,6.111c-7.154,1.49-15.053,0.745-22.804,0.596
			c-6.408,0-14.605-1.788-21.015-4.62c-3.13-0.745-6.558-1.938-8.793-3.875c-3.28-0.895-5.812-3.279-8.645-5.067
			c-0.596-1.043-1.341-2.087-1.341-3.13c0-0.149-0.149-0.298-0.149-0.298c2.98,0.745,5.812,2.98,8.794,4.77
			c2.384,1.341,3.726,3.13,6.259,3.726c4.322,0.895,7.75,3.875,12.222,3.577c8.197,2.087,17.14,1.938,26.976,1.341
			c-1.49-3.428,1.044-4.769-0.148-6.854c0.148-0.896,0.298-1.491,0.595-2.088c0.449-0.447,0.746-0.894,1.343-0.447
			c0.298,0.299,0.446,0.447,0.745,0.746c-0.299,0.894,0.298,1.49,0.745,1.938c-0.447,1.938,0,3.874-0.299,6.26
			c7.304,0.745,12.222-1.342,18.184-1.64c2.534-1.192,6.409-1.491,9.538-2.386c2.832-0.893,6.26-0.893,8.942-2.532
			c2.235,0.298,4.77-0.448,6.559-2.684c3.874,0.149,6.855-2.683,11.327-3.577c0-1.191,0-0.745,0-0.745
			c0.745-0.298,2.235-1.938,4.023-1.341C1084.987,795.714,1084.839,796.31,1084.54,796.906z"/>
		<path style="fill:#17192D;" d="M1069.488,763.672c-5.366,3.874-12.223,3.278-17.141,7.451c-1.937,0.597-4.024,1.64-5.663,2.684
			c-4.62-0.149-9.39,2.832-15.649,5.663c4.024,1.64,7.005,1.192,9.091,0.596c8.794,0,16.545-1.49,25.784-0.149
			c2.534,0,5.663-0.744,7.898,0.299c4.323,0.149,9.392-1.043,13.116,1.044c0.149,0.148,0.149,0.148,0.298,0.298
			c-3.129,0.894-7.153,0.596-10.283,0.447c-2.682-0.745-5.515,0.298-8.495,0.298c-5.812,0.148-11.924-1.938-17.14,0.596
			c-4.769,0.597-9.24-1.639-13.861,0c-4.173,1.341-8.346-0.745-12.22,1.192c-7.155-1.192-16.395,0.148-24.146-1.192
			c-8.794,0-17.735,0.597-26.381-0.894c-4.768-0.149-6.705-1.044-11.177-1.938c-0.149,0,0.745-1.042,0.745-1.341
			c4.769-2.832,6.409-3.727,11.476-5.663c7.005-2.832,14.457-2.236,21.463-4.174c9.836,0.149,19.523,1.49,26.678,10.88
			c13.115-7.899,27.124-8.793,39.793-15.648c5.663-1.789,10.88-4.621,16.544-6.409c0.895,0,2.384-0.597,3.428-0.298
			C1079.025,760.095,1074.258,762.182,1069.488,763.672z M985.578,773.508c-1.938,0.596-4.322-0.149-6.11,1.044
			c-2.385-0.298-4.62,1.043-6.558,1.788l-3.577,2.533c1.342,0.15,6.558,0.597,8.049,0.895c1.938,1.938,5.364,1.043,7.749,1.64
			c11.029-1.491,23.399,0.299,36.663-0.298c-1.937-2.385-3.874-2.98-4.918-4.024c-2.086-2.087-7.898-4.322-11.773-5.962
			C998.396,772.018,991.242,770.527,985.578,773.508z"/>
		<path style="fill:#17192D;" d="M1083.497,697.199c1.342,4.173-1.787,6.855,1.193,10.582c0,0.148-0.15,0.298-0.15,0.446
			c-5.962-0.298-10.731-2.534-16.841-3.576c-5.365,0.446-10.731-1.789-16.097-1.64c-6.11-1.341-12.668-1.789-18.778-2.683
			c-1.192-0.745-2.534-0.149-4.024-0.597c-9.538-1.938-14.159-2.832-23.398-4.471c-3.578-1.342-7.9-2.235-11.477-3.429
			c-2.534,0.597-5.068-1.191-7.751-0.894c-5.066-1.639-10.581-2.683-15.499-4.322c-1.491-0.746-2.534-1.639-5.515-0.895
			c-0.299,3.279-0.148,5.812-0.148,8.197c-1.939,1.64,0.894,3.875-0.896,6.558c1.342,1.49,0.597,2.235,0.446,3.13
			c-0.446,1.341-0.148,2.235-0.744,3.577c-0.895-0.148-1.491-0.596-2.086-1.043c-1.343-2.087,0-4.174-0.299-6.409
			c0.745-0.744,0.597-1.49,0.745-2.683c1.64-4.023,0-6.707-0.446-10.135c0.446-0.745,0.298-1.64,1.043-2.385
			c1.341-1.788,3.13,0,5.514,0c10.433,2.235,19.227,4.771,29.66,6.856c14.307,2.98,25.039,5.066,38.899,7.75
			c4.022,0.745,7.601,1.192,11.475,1.639c2.683,0.746,5.515,1.491,8.348,1.938c6.557,0.447,14.009,0.447,20.567,2.832
			c1.191-0.894,2.086-2.683,3.726-3.278c0.895-1.789-1.938-3.428-1.342-5.366c0,0,0.299-0.894-0.298-1.191
			c-0.299-4.174-0.895-7.75-0.746-11.774c0.299-0.299,0.746-0.299,1.044-0.149C1084.54,687.214,1080.069,693.026,1083.497,697.199z"
			/>
		<path style="fill:#17192D;" d="M1015.386,626.405c9.986,3.577,20.567,2.533,30.106,6.558c9.837,4.174,20.567,5.962,30.702,9.24
			c0.299,0.299,0.745,0.745,1.044,1.192c-3.279,1.342-7.602-1.341-11.477-0.894c-11.775-0.895-22.803,2.98-35.173,4.619
			l-0.598,2.684c13.414,2.683,24.74,8.346,37.11,10.73c0.449,0.299,1.194,0.447,1.641,0.745c2.683,0.149,5.962-1.64,7.899-0.149
			c-0.148,1.044-1.192,1.49-2.235,1.789c-2.385-0.299-4.174,1.341-6.409,1.938c-13.266-0.597-25.038,2.235-38.452,3.13
			c-16.543,1.192-32.938,2.385-48.588,2.235c-8.196,1.192-14.455,1.49-20.865,0.746c-0.596-0.299-1.787,0-2.385-0.149
			c0.447-0.298,0.895-0.746,1.343-1.192c4.918-1.044,9.239-1.044,14.456-1.49c22.654-1.789,47.543,0.149,70.794-3.727
			c4.174-0.745,8.347-0.447,12.817-0.894c2.981-1.044,1.639-4.024-0.597-3.429c-9.688-4.77-21.461-5.515-31.148-9.091
			c-1.789-0.597-4.62-0.149-5.365-1.938c0.297-0.597,0.894-0.895,1.49-1.193c10.135-3.277,21.163-4.471,36.365-8.345
			c-9.389-3.429-14.903-4.025-19.227-6.559c-10.88,0-18.332-4.471-29.212-4.471c-8.346-3.131-18.182-1.789-26.529-5.366
			c-6.855-0.149-12.519-1.639-20.567-2.98c-0.148,0-0.595,0-0.745-0.149c0.15-0.298,0.299-0.596,0.448-1.043
			c1.192,0,1.938-0.596,2.532-0.895C981.404,619.4,998.396,624.17,1015.386,626.405z"/>
		<path style="fill:#17192D;" d="M1084.54,590.636c-1.49,3.279-5.066,3.577-7.601,5.365c-3.428,1.789-7.153,3.577-11.029,4.024
			c-1.042,0.596-2.533,0.745-3.727,0.894c-9.984,1.789-19.672,5.813-30.104,6.111c-7.154,1.49-15.053,0.745-22.804,0.596
			c-6.408,0-14.605-1.788-21.015-4.62c-3.13-0.745-6.558-1.938-8.793-3.875c-3.28-0.895-5.812-3.279-8.645-5.067
			c-0.596-1.043-1.341-2.086-1.341-3.13c0-0.149-0.149-0.298-0.149-0.298c2.98,0.745,5.812,2.98,8.794,4.77
			c2.384,1.341,3.726,3.13,6.259,3.726c4.322,0.895,7.75,3.875,12.222,3.577c8.197,2.087,17.14,1.938,26.976,1.341
			c-1.49-3.428,1.044-4.769-0.148-6.854c0.148-0.896,0.298-1.491,0.595-2.088c0.449-0.446,0.746-0.894,1.343-0.446
			c0.298,0.298,0.446,0.446,0.745,0.745c-0.299,0.894,0.298,1.49,0.745,1.938c-0.447,1.938,0,3.875-0.299,6.26
			c7.304,0.745,12.222-1.342,18.184-1.64c2.534-1.192,6.409-1.49,9.538-2.385c2.832-0.894,6.26-0.894,8.942-2.533
			c2.235,0.298,4.77-0.448,6.559-2.684c3.874,0.149,6.855-2.683,11.327-3.577c0-1.191,0-0.745,0-0.745
			c0.745-0.297,2.235-1.937,4.023-1.341C1084.987,589.443,1084.839,590.039,1084.54,590.636z"/>
		<path style="fill:#17192D;" d="M1083.795,570.666c0.447,0.148,0.745,0.298,1.044,0.596c-1.342,3.428-5.365,1.491-8.496,2.385
			c-2.683,0.447-5.216,0-7.898,0.149c-7.303,0.148-14.606-0.149-21.611,0c-3.727,0-8.645,0.298-12.519-0.149
			c-2.534-0.298-5.663,0-8.197,0.149c-6.11,0.596-11.924,0-18.332,0.447c-0.299-0.299-0.597-0.299-0.894-0.299
			c-2.684,1.342-5.665,0.149-8.197,0.596c-6.111,0.299-11.924,0.896-17.886,0.896c-4.173-1.789-8.495,0.894-12.816-0.149
			c-0.597-0.149,0.894-1.789,1.341-1.789c6.558-4.471,14.158,1.789,21.461-0.298c8.646-2.385,18.333-1.49,26.827-1.938
			c8.496-0.447,16.543,0.298,25.188,0c2.385-0.298,4.769-0.298,7.303-0.298c0.597,0,1.342,0.149,1.938,0.149
			c6.558-0.149,13.115-0.149,18.928-1.044C1075.449,571.262,1079.176,570.518,1083.795,570.666z"/>
		<path style="fill:#17192D;" d="M1058.906,496.743c-0.299-0.149,1.341-0.446,1.938-0.298c0.446,0,1.044,0,1.191,0
			c0.895,0.298,2.087,0.745,2.981,0.597c2.085,0.895,4.173,0.446,5.961,1.341c3.577,1.64,8.347,3.13,12.223,6.408
			c2.384,2.534,5.514,3.577,7.898,5.813c0.447,1.341,1.042,1.938,0.745,3.13c-2.386,0.148-3.577-3.279-5.812-4.174
			c-1.64-1.49-4.024-1.938-5.365-3.874c-0.299-0.149-0.896-0.746-1.192-0.896c-0.298-0.148-0.448-0.446-0.448-0.446
			c-0.148,0-0.745-0.299-0.745-0.448c-1.341-1.341-1.787-1.49-1.787-0.893c-1.044-0.299-1.789-1.044-2.833-0.896
			c-0.446-0.148-0.894-0.447-1.191-0.894c-1.789,0.298-2.236-0.597-3.131-0.746c-1.639-0.894-4.173,0-5.961-0.596
			c-0.895,0.149-1.64-0.745-2.684-0.596c-3.576-1.043-5.066-0.149-8.942,0.148c-4.918,1.789-5.066,1.342-8.195,2.534
			c-2.386,0.895-3.727,1.192-5.962,2.235c-2.235,1.044-3.131,2.235-5.366,3.279c-2.086,0.894-3.428,0.596-5.365,1.341
			c-2.235,0.894-3.577,1.938-5.663,2.832c-2.088,1.043-3.727,1.49-6.112,2.533c-2.235,1.342-3.427,2.684-6.109,3.429
			c-0.745,0-1.789,0.149-2.534,0.149c-0.745-0.149-1.639,0.148-2.086,0.148c-0.446,0.149-1.191-0.148-1.641-0.298
			c-2.683,0.894-4.172-0.895-7.003-0.596c-2.685-0.746-5.367-1.044-8.496-2.088c-2.98-1.639-6.855-2.384-10.135-4.619
			c-3.428-1.789-6.855-4.472-9.389-7.751c-0.299-0.447-1.491-1.64-0.447-1.49c2.683,1.192,5.066,3.875,7.898,4.919
			c7.601,4.769,15.5,7.601,23.399,8.346c0.895,0.447,1.937,0,2.98,0.447c1.49,0,3.577,0.447,5.216,0.148
			c5.365,0.597,4.174-1.788,6.409-2.683c2.386-0.895,3.876-0.745,5.961-1.788c1.491-0.895,2.236-1.938,4.025-2.683
			c1.49-0.895,2.533-1.64,4.471-1.938c4.472-0.447,4.62-1.341,6.855-3.279c1.044-0.596,1.641-1.341,2.832-1.788
			c1.044-0.895,1.938-0.447,3.279-0.895c1.787-0.447,2.683-1.043,4.472-1.639c1.639-0.597,3.428-1.342,4.321-1.342
			c3.129-1.342,4.918-0.447,7.898-0.745C1058.161,496.147,1059.055,496.743,1058.906,496.743z"/>
		<path style="fill:#17192D;" d="M982.3,471.258c2.235,0.298,3.726,2.534,6.26,2.534c4.769,2.384,9.239,3.576,15.053,3.874
			c0.894,0.448,2.385,0.597,3.428,0.895c3.279,0.298,6.26,1.789,9.39,1.789c1.938,0.596,4.619-0.447,6.408,1.937
			c2.386-0.596,4.173-1.191,5.663-1.937c0.597-1.193,2.236-2.684,2.088-4.323c1.043-1.639,0.148-2.979,0.893-5.067
			c0.896-2.831,0.896-4.471,2.386-7.451c0.745-0.597,1.491-1.192,2.385-1.044c0.597,1.49,0,3.279,0,5.068
			c-1.938,3.874-1.64,5.961-2.981,11.028c1.192,0.745,0.745,1.342,1.192,1.64c3.726,0.596,7.75,0.149,10.88-0.596
			c1.938,0.298,3.577-0.448,6.558-0.448c0.596-1.788,1.938-0.446,2.831-0.894c5.367-0.447,10.137-3.428,15.649-3.726
			c2.386-2.087,6.409-1.789,8.795-3.578c2.831,0.299,4.321-3.427,7.898-2.533c1.789-1.341,3.428-2.98,5.663-2.98
			c0.598,0.447,1.192,0.895,1.789,1.49c-0.298,2.235-2.832,2.385-4.472,3.577c-2.533,0.298-4.918,0.894-6.706,2.534
			c-3.279-0.149-5.217,2.682-8.346,2.533c-1.194,0.744-2.386,0.894-3.279,1.49c-1.192-0.149-2.235,0.298-3.131,0.745
			c-6.855,0-12.221,4.471-19.077,4.024c-0.894,0.596-2.533,0.596-3.428,0.745c-7.303,2.533-15.798,2.087-23.25,1.938
			c-3.428-0.895-7.601,0-10.582-1.49c-9.24-1.64-18.183-5.366-26.976-7.75c-4.173-1.64-8.049-4.174-11.923-6.26
			c-4.323-2.386-9.39-4.024-12.521-8.347c0-0.298,0-0.745,0.299-0.894C967.843,464.104,974.848,467.979,982.3,471.258z"/>
		<path style="fill:#17192D;" d="M1092.291,444.134c-0.447,0.148-1.641,1.043-2.683,1.342c-2.832,0.149-6.856,0.446-9.688,0.894
			c-1.641-0.596-4.77,0.597-6.409,0.149c-7.898,0.744-15.799,1.192-24.741,1.043c-1.64,1.044-4.62,0.299-6.409,0.299
			c-8.346-0.299-15.946-2.385-23.25-1.342c-5.216,0-11.178,1.938-16.691,0c-3.875,0.597-9.539-0.149-12.668,0.148
			c-0.15,0.149-0.447,0.299-0.597,0.448c-7.751-0.746-16.395,0.893-23.848,0.297c-0.595-0.149-1.34-1.191-0.296-1.341
			c15.351-1.938,32.787-1.192,49.033-1.938c3.576-0.149,8.943,0.148,12.817-0.597c0.148,0.149,0.298,0.299,0.446,0.447
			c5.813,0,11.179,0.745,16.693,1.192c0.447-0.298,1.49-0.149,1.789,0c8.94,0.299,19.374-1.341,27.869-1.043
			c4.918-2.385,10.135,1.043,14.606-1.789c0.597-0.894,1.937-0.446,2.683-1.191C1092.737,442.345,1092.59,443.537,1092.291,444.134z
			"/>
		<path style="fill:#17192D;" d="M956.664,405.403c0.298,2.533,1.342,4.322,1.789,7.005c-0.895,4.024-0.148,7.602,1.342,12.52
			c2.086-1.043,3.576-0.746,4.321-0.447c2.832-0.299,6.408,0.447,9.241,0.299c2.682-0.598,5.962-0.895,8.644-0.895
			c4.173-2.087,9.39-2.684,13.562-3.577c2.386,0.596,5.216,0,7.452,0.298c10.135,0,20.567-2.533,30.106-3.875
			c1.787,0.148,4.472-0.298,6.11,0.148c0.298-0.148,1.044-0.148,1.192-0.298c7.452-0.298,13.413-0.447,20.865-0.447
			c3.429,0,6.409,0.597,9.538,0.745h-0.148c-3.874,2.832-9.241,1.789-13.414,2.684c-6.109-1.49-12.519,1.639-19.077-0.895
			c-3.874,4.023-8.495,0.895-12.519,2.235c-3.726-0.447-8.197-0.298-11.328,1.64c-1.49-0.149-2.83,0.447-4.918-0.299
			c-3.576,2.087-8.047,1.044-11.773,1.044c-6.111-1.342-11.029,2.683-16.842,1.938c-4.173,2.087-8.942,1.788-13.712,1.788
			c-1.49-1.639-3.874-0.148-6.854-3.428c-1.044,6.558-0.447,10.434-0.746,14.457c0.746,3.13-0.446,6.559,0,9.986
			c-0.149,0.148-0.149,0.297-0.298,0.446c-1.192-0.149-1.491-1.49-1.938-2.385c0.894-2.979,0.745-5.961,0-8.941
			c-0.597-0.745,0-2.087,0.148-3.577c-1.639-2.236-0.298-5.515-1.49-7.602c0.745-2.385-0.299-4.918-0.148-7.303
			c-1.342-2.385,0.446-5.515-0.896-7.898c0-2.088-2.831-4.174-0.446-5.813c0.149-0.148,0.446-0.298,0.745-0.447
			C955.771,404.658,956.516,404.808,956.664,405.403z"/>
		<path style="fill:#17192D;" d="M1084.54,378.576c-1.49,3.279-5.066,3.577-7.601,5.365c-3.428,1.789-7.153,3.577-11.029,4.024
			c-1.042,0.596-2.533,0.745-3.727,0.894c-9.984,1.789-19.672,5.813-30.104,6.111c-7.154,1.49-15.053,0.745-22.804,0.596
			c-6.408,0-14.605-1.788-21.015-4.62c-3.13-0.745-6.558-1.938-8.793-3.875c-3.28-0.895-5.812-3.279-8.645-5.067
			c-0.596-1.043-1.341-2.086-1.341-3.13c0-0.149-0.149-0.298-0.149-0.298c2.98,0.744,5.812,2.98,8.794,4.77
			c2.384,1.341,3.726,3.13,6.259,3.726c4.322,0.895,7.75,3.875,12.222,3.577c8.197,2.086,17.14,1.938,26.976,1.341
			c-1.49-3.428,1.044-4.769-0.148-6.855c0.148-0.894,0.298-1.49,0.595-2.087c0.449-0.446,0.746-0.894,1.343-0.446
			c0.298,0.298,0.446,0.446,0.745,0.745c-0.299,0.895,0.298,1.49,0.745,1.937c-0.447,1.938,0,3.876-0.299,6.261
			c7.304,0.745,12.222-1.342,18.184-1.64c2.534-1.192,6.409-1.491,9.538-2.385c2.832-0.895,6.26-0.895,8.942-2.533
			c2.235,0.297,4.77-0.448,6.559-2.684c3.874,0.149,6.855-2.683,11.327-3.577c0-1.191,0-0.745,0-0.745
			c0.745-0.298,2.235-1.938,4.023-1.341C1084.987,377.384,1084.839,377.979,1084.54,378.576z"/>
		<path style="fill:#17192D;" d="M986.473,335.355c1.639,0,4.024-0.148,5.812-0.297c4.323-2.684,11.03,0,16.098,0.596
			c3.13-1.789,8.346-0.745,11.625-1.044c4.769-1.191,11.028,0.299,16.543,0.299c9.688,0,20.866-0.299,30.552-0.745
			c1.491-0.149,2.981-1.044,4.323-0.447c0.148,0.148,0.299-0.148,0.446-0.148c-3.427,2.234-7.6,2.383-11.027,3.874
			c-4.918,4.322-10.583,6.558-15.798,9.837c-6.261,2.831-12.669,4.918-18.332,9.24c-1.789,0.895-3.429,1.938-5.217,2.831
			l-4.322,2.088l4.918,0.297c11.625,0.746,22.505-2.086,34.428-0.446c4.77,0,9.241-1.938,13.86-1.044c1.192-0.149,2.683,0,3.727,0
			c-0.148,0.299,0,0.895-0.148,1.044c-1.192,0-2.235,0.298-3.279,1.043c-1.191,0.597-2.683,0.597-4.024,0.895
			c-4.022,0.447-8.048-0.149-12.072,0.745c-10.879,0.298-21.461-1.043-32.044,0.148c-4.918-0.894-9.836,1.641-14.605,0.299
			c-3.129,0.745-7.154-0.895-9.537,0.894c-7.154-0.745-14.159-1.938-21.612-1.938c-1.639-0.596-4.172,0-4.918-1.788
			c-0.149-0.148,0.895-1.639,0.895-0.894c8.048-2.088,14.903,2.682,24.145,1.639c4.77-0.597,9.688,0,14.755-1.49
			c1.49-2.087,3.726-1.938,5.366-3.279c2.98-0.447,5.962-1.192,7.898-3.279c7.601-3.726,15.352-5.066,21.461-10.581
			c1.789-0.745,3.578-1.64,5.515-3.279c0-0.446,4.322-2.385,4.322-2.832c-0.148-0.298-4.62,0.746-4.62,0.149
			c-5.812,0-11.178-1.043-15.798,0.597c-8.346-2.087-16.991-2.235-25.934-0.299c-6.408-0.745-12.966-1.639-19.226-0.447
			c-5.217-2.235-11.028,2.386-15.798-1.788c-0.447-1.341-2.833-0.894-2.683-2.533C977.231,332.375,981.554,335.207,986.473,335.355z
			"/>
		<path style="fill:#17192D;" d="M1083.795,274.101c0.447,0.149,0.745,0.299,1.044,0.598c-1.342,3.427-5.365,1.489-8.496,2.384
			c-2.683,0.447-5.216,0-7.898,0.148c-7.303,0.149-14.606-0.148-21.611,0c-3.727,0-8.645,0.299-12.519-0.148
			c-2.534-0.298-5.663,0-8.197,0.148c-6.11,0.597-11.924,0-18.332,0.447c-0.299-0.298-0.597-0.298-0.894-0.298
			c-2.684,1.341-5.665,0.149-8.197,0.597c-6.111,0.298-11.924,0.894-17.886,0.894c-4.173-1.788-8.495,0.895-12.816-0.149
			c-0.597-0.148,0.894-1.787,1.341-1.787c6.558-4.472,14.158,1.787,21.461-0.299c8.646-2.385,18.333-1.49,26.827-1.937
			c8.496-0.448,16.543,0.297,25.188,0c2.385-0.299,4.769-0.299,7.303-0.299c0.597,0,1.342,0.149,1.938,0.149
			c6.558-0.149,13.115-0.149,18.928-1.044C1075.449,274.698,1079.176,273.952,1083.795,274.101z"/>
		<path style="fill:#17192D;" d="M970.078,224.323c2.683,0.745,4.918,2.385,7.75,1.938c1.491,0.447,3.129,0.298,4.77,0.447
			c1.341-0.447,2.98,0.447,4.62,0.299c3.129-0.896,5.961-0.149,9.091-0.896c3.131-0.447,5.366,0.298,8.347,0.298
			c2.086,0.746,3.875-0.745,6.26-0.298c4.023,0,9.837-0.148,14.01,0.149c6.409-2.235,13.264-0.745,19.822-0.895
			c1.192-0.298,2.683-0.148,3.875-0.148c0.894,0.148,1.789-0.597,2.683-0.597c9.985-0.298,20.566,0.447,29.956-0.744
			c2.088,1.042,4.175-1.491,5.664,0.744c1.193,2.534-2.533,1.342-4.322,2.087c-3.726,0-7.303,1.043-11.178,0.596
			c-4.472,1.044-8.792-0.596-13.413-0.148c-2.385-0.895-4.919,0.298-7.601,0.148c-3.429-1.788-6.409,0.149-9.54,0.895
			c-7.004-1.191-15.946,0-22.951-0.447c-5.068,2.236-10.731,0.298-15.5,1.64c-4.621-1.491-10.284,0.298-18.331-1.043
			c0.894,0.895-4.92-0.299-4.323,0.149c1.342,1.191,8.495,3.428,8.942,3.874c2.235,0.745,5.067,1.044,7.006,2.236
			c5.663,1.938,12.37,1.64,17.586,4.918c7.303,1.491,14.009,3.279,21.609,4.173c0.746,0.298,1.789,0,2.685,0.298
			c2.831-0.298,4.768,2.684,7.601,2.385c0.447,0.149,0.447,0.448,0.298,0.895c-1.043,0.447-2.087,0.596-2.98,0.299
			c-4.024-0.597-8.197,0.745-12.222,1.341c-4.77,1.49-9.836,2.385-14.904,3.278l-0.894,0.597c-4.323,1.192-8.346,1.192-12.521,2.683
			c-1.49,1.192-5.663,1.342-5.663,1.342l-7.452,1.788l7.153,0.298c7.453,1.938,16.545,0,23.997,0.448
			c3.13-1.491,6.855,0.297,9.984,0.297c4.472,0.149,9.39-1.788,13.564-0.745c4.321-0.149,7.45-0.149,11.475-0.745
			c3.577-0.447,8.049,0.596,12.071,0.298c6.559,0.149,13.564-1.192,20.568,0.447c1.193,1.64,5.515-1.64,5.366,0.895
			c-3.726,1.192-7.751,0.149-11.775,1.341c-1.191-0.298-2.683-0.596-3.874,0.149c-5.365,0.596-12.37-1.192-18.034,0
			c-1.64,0.149-2.682-0.298-4.322-0.298c-5.812,1.192-11.326,0.597-17.288,1.043c-2.833-1.192-6.261-0.745-9.241,0
			c-6.855,0-13.115-1.938-19.971-0.149c-7.304,0.149-15.202-0.894-23.102-0.596c-1.639,0.745-3.279-0.149-5.066,0
			c-1.938,0-4.024-0.149-5.962,0.596c-1.342,0-2.684,0.447-3.577-0.596c-0.447,0.447-0.596,0.149-1.341-0.149
			c-0.299-0.894,0.894-0.446,0.894-0.745c1.639-0.446,4.024,0.299,6.26-0.894c2.086,0,2.385-3.13,5.067-2.385
			c1.788,0.894,3.726-1.044,5.663-0.745c7.153-1.342,13.266-4.471,20.866-4.919c1.191-1.192,4.322-0.894,5.812-1.341
			c4.62-1.64,9.837-1.64,18.034-4.621c-9.39-3.874-17.587-1.639-22.804-5.663c-3.278-0.895-7.304-1.043-10.135-2.832
			c-1.191-0.298-2.682-0.596-4.024-0.148c-3.278-0.298-5.663-2.981-9.091-2.981c-1.937,0-3.279-2.235-5.217-2.235
			c-1.489-1.043-3.427-1.192-4.918-3.129c-4.322,0-7.602-0.746-10.583-2.386c-0.595-0.298-0.446-0.894-0.894-1.49
			c0-0.596-0.148-1.191,0.598-1.49C966.799,223.578,967.992,224.771,970.078,224.323z"/>
		<path style="fill:#17192D;" d="M1077.833,173.353c0.299,0.745,2.683,0.745,1.789,1.938c-4.173,2.832-9.836-0.298-14.308,2.087
			c-15.054,4.62-31,1.192-46.352,3.278c-8.942,1.193-17.288,1.193-26.082,2.98l-5.066-0.148l-0.15,0.596l5.068,2.236
			c5.812,1.192,13.265,1.342,18.779,2.683c5.216,1.342,9.688,1.49,14.754,2.98c5.515,1.044,10.88,0.447,17.14,0.597
			c0.447,0.298,1.192,0.149,1.49,0.596c-7.898,3.279-17.587,1.044-25.784,3.428c-2.235,1.938-5.961,1.342-8.644,2.534
			c-9.538,0-18.63,3.279-27.573,3.726c-1.042,0.895-2.83,1.044-4.321,1.64c0,0.597-4.024,1.49-3.876,1.788
			c0.15,0.448,4.771,0.299,4.92,1.044c14.754,2.235,28.168,0,41.73,1.64c8.346-3.13,16.991,1.788,25.038-0.895
			c9.54-3.13,20.27,0.447,28.766-2.832c2.533,0,5.216-1.341,7.451,0c2.683,0.149,7.154-2.533,9.241,0.298
			c0,0.299,0.297,0.149,0.447,0.299c-2.088,1.341-5.366,0.298-7.304,0.596c-11.327,2.832-23.25,3.577-35.023,5.366
			c-4.77,0-9.539,0.745-14.011-0.597c-5.812,0.149-11.773,0.597-17.885-0.447c-14.157-0.447-27.125,2.385-40.39-1.49
			c-4.918-1.491-9.687,0-14.01-1.043c0-0.895-3.279,0.745-2.533-0.597c0.895-0.447,1.49-1.938,3.13-2.235
			c6.707-3.726,15.5-2.683,22.952-5.365c9.091-1.64,19.375-2.683,28.765-4.918l4.918-1.193v-0.596l-4.918-0.895
			c-6.111-1.043-11.923-1.938-18.033-2.683c-7.452-3.428-16.246-3.13-23.698-6.408c-0.447-0.447-1.192-0.745-1.789-1.044
			c1.193-1.788,4.77-0.149,6.559-0.298c6.26-3.279,13.264-0.744,20.12-2.533c15.649-1.64,27.274-0.746,42.626-2.087
			c3.576-1.044,9.091-1.044,13.115-1.64c7.153-1.043,14.755,1.789,20.121-2.683C1076.045,172.31,1076.939,172.607,1077.833,173.353z
			"/>
		<path style="fill:#17192D;" d="M1084.54,145.035c-1.49,3.279-5.066,3.578-7.601,5.366c-3.428,1.789-7.153,3.577-11.029,4.024
			c-1.042,0.597-2.533,0.745-3.727,0.894c-9.984,1.789-19.672,5.813-30.104,6.111c-7.154,1.49-15.053,0.744-22.804,0.596
			c-6.408,0-14.605-1.788-21.015-4.62c-3.13-0.745-6.558-1.938-8.793-3.875c-3.28-0.895-5.812-3.28-8.645-5.067
			c-0.596-1.044-1.341-2.086-1.341-3.13c0-0.149-0.149-0.298-0.149-0.298c2.98,0.746,5.812,2.981,8.794,4.77
			c2.384,1.342,3.726,3.13,6.259,3.727c4.322,0.894,7.75,3.875,12.222,3.577c8.197,2.086,17.14,1.937,26.976,1.341
			c-1.49-3.427,1.044-4.769-0.148-6.855c0.148-0.894,0.298-1.49,0.595-2.087c0.449-0.447,0.746-0.894,1.343-0.447
			c0.298,0.298,0.446,0.447,0.745,0.745c-0.299,0.895,0.298,1.491,0.745,1.938c-0.447,1.938,0,3.875-0.299,6.26
			c7.304,0.745,12.222-1.341,18.184-1.64c2.534-1.192,6.409-1.49,9.538-2.384c2.832-0.895,6.26-0.895,8.942-2.534
			c2.235,0.298,4.77-0.447,6.559-2.683c3.874,0.149,6.855-2.683,11.327-3.577c0-1.192,0-0.745,0-0.745
			c0.745-0.298,2.235-1.938,4.023-1.341C1084.987,143.843,1084.839,144.439,1084.54,145.035z"/>
		<path style="fill:#17192D;" d="M986.473,101.815c1.639,0,4.024-0.149,5.812-0.298c4.323-2.683,11.03,0,16.098,0.596
			c3.13-1.789,8.346-0.745,11.625-1.043c4.769-1.192,11.028,0.298,16.543,0.298c9.688,0,20.866-0.298,30.552-0.746
			c1.491-0.149,2.981-1.043,4.323-0.447c0.148,0.149,0.299-0.148,0.446-0.148c-3.427,2.235-7.6,2.384-11.027,3.875
			c-4.918,4.322-10.583,6.558-15.798,9.837c-6.261,2.832-12.669,4.918-18.332,9.24c-1.789,0.894-3.429,1.938-5.217,2.832
			l-4.322,2.087l4.918,0.297c11.625,0.745,22.505-2.086,34.428-0.447c4.77,0,9.241-1.938,13.86-1.043c1.192-0.149,2.683,0,3.727,0
			c-0.148,0.298,0,0.894-0.148,1.043c-1.192,0-2.235,0.297-3.279,1.043c-1.191,0.597-2.683,0.597-4.024,0.894
			c-4.022,0.447-8.048-0.149-12.072,0.745c-10.879,0.299-21.461-1.042-32.044,0.149c-4.918-0.895-9.836,1.64-14.605,0.298
			c-3.129,0.746-7.154-0.895-9.537,0.894c-7.154-0.746-14.159-1.938-21.612-1.938c-1.639-0.596-4.172,0-4.918-1.789
			c-0.149-0.148,0.895-1.639,0.895-0.894c8.048-2.087,14.903,2.683,24.145,1.639c4.77-0.596,9.688,0,14.755-1.491
			c1.49-2.086,3.726-1.938,5.366-3.279c2.98-0.447,5.962-1.192,7.898-3.279c7.601-3.726,15.352-5.067,21.461-10.581
			c1.789-0.746,3.578-1.64,5.515-3.28c0-0.447,4.322-2.384,4.322-2.832c-0.148-0.298-4.62,0.746-4.62,0.15
			c-5.812,0-11.178-1.044-15.798,0.596c-8.346-2.087-16.991-2.236-25.934-0.298c-6.408-0.746-12.966-1.639-19.226-0.447
			c-5.217-2.235-11.028,2.385-15.798-1.788c-0.447-1.342-2.833-0.894-2.683-2.534C977.231,98.834,981.554,101.666,986.473,101.815z"
			/>
		<path style="fill:#17192D;" d="M1065.463,72.157c5.813,1.491,9.986,6.409,15.798,8.197c0.896,1.64,2.833,2.534,3.727,4.174
			c-1.341,0.447-2.831-0.894-4.023-1.49c-1.043-1.044-2.087-1.64-3.577-1.789c-3.279-2.385-7.75-3.428-11.179-6.111
			c-2.533-0.894-6.26-1.192-9.091-2.533c-5.067-0.298-10.135-0.298-15.053,0.596c-4.77,0.895-9.391,2.832-13.116,6.111
			c-4.919,2.384-10.581,4.172-15.946,5.365c-8.347,4.173-18.929,3.726-27.573,0.298c-5.066,0-7.898-4.322-12.519-4.918
			c-1.342-1.044-2.534-2.086-4.173-2.684c-0.895-0.745-0.448-1.937-1.193-2.98c0-0.298-0.596,0.149-0.297,0.298
			c2.086,0.149,4.321,1.043,6.11,1.937c7.898,6.111,18.48,6.41,28.02,8.496c6.707-0.298,12.22-3.428,18.63-4.918
			c4.022-2.533,9.091-3.428,13.115-5.961c2.981-0.298,5.365-3.726,8.494-2.981c6.707-2.385,14.606-2.385,21.017,0
			C1063.526,71.71,1064.42,72.008,1065.463,72.157z"/>
		<path style="fill:#17192D;" d="M1073.214,55.615c0,0.745-1.044,1.193-1.641,1.341c-2.235,1.49-5.365,0.149-7.749,1.341
			c-0.745,0-1.342-0.297-1.789-0.745c0-0.745,0.299-1.044,0.598-1.342c2.086-0.596,4.173-4.024,6.705-1.491
			C1071.276,54.572,1072.17,55.02,1073.214,55.615z"/>
	</g>
	<path style="fill:none;stroke:#17192D;stroke-width:3;" d="M2048,0"/>
	<path style="fill:none;stroke:#17192D;stroke-width:3;" d="M2048,1536"/>
	<path style="fill:none;stroke:#17192D;stroke-width:3;" d="M0,1536"/>
	<path style="fill:none;stroke:#17192D;stroke-width:3;" d="M0,0"/>
</g>
<g id="Layer_1">
</g>
</svg>
