<?xml version="1.0" encoding="iso-8859-1"?>
<!-- Generator: Adobe Illustrator 15.1.0, SVG Export Plug-In . SVG Version: 6.00 Build 0)  -->
<!DOCTYPE svg PUBLIC "-//W3C//DTD SVG 1.1//EN" "http://www.w3.org/Graphics/SVG/1.1/DTD/svg11.dtd">
<svg version="1.1" xmlns="http://www.w3.org/2000/svg" xmlns:xlink="http://www.w3.org/1999/xlink" x="0px" y="0px" width="2048px"
	 height="1536px" viewBox="0 0 2048 1536" style="enable-background:new 0 0 2048 1536;" xml:space="preserve">
<g id="cheada_x5F_">
	<g>
		<path style="fill:#FF0050;" d="M1087.893,1436.148c3.727,0.446,6.261-0.447,7.155,1.341c0,0.149-0.149,0.447-0.149,0.596
			c-5.515,3.131-12.669,1.789-19.077,3.577c-11.326,1.64-22.952,2.534-33.384,5.217c-2.385,3.278-5.068,7.75-3.429,12.072
			c0.148,0.149-0.446,0-1.043,1.043c1.043,1.49-0.597,2.087-0.597,3.279c-0.596,2.831-0.298,6.408-1.491,11.327
			c8.646,1.938,16.842,1.788,23.997,3.726c5.216,1.49,12.519-0.894,17.734,1.788c1.938,0,4.323-0.298,5.664,1.342
			c0.298,0.745-1.044,0.745-1.639,0.745c-6.112-1.043-10.731-0.596-16.544-1.342c-6.856-2.98-17.289-0.446-24.741-3.427
			c-2.683,0-6.855,0.745-8.942-0.746c-7.004-1.639-15.351,0.447-21.908-2.683c-12.222,0.447-22.356-4.62-34.875-4.62
			c-0.597-0.597-0.597-1.64-1.938-1.788c-3.576-1.192-8.196,1.043-10.432-1.938c0.894-1.64,3.278-0.895,5.067-2.236
			c15.052-3.278,28.913-9.836,44.264-12.668c4.323-2.087,9.688-2.683,14.457-4.62c1.641-0.149,3.279-0.447,4.77,0.149
			c2.981-0.895,6.26-1.938,9.538-1.938c7.006-0.148,13.266-3.428,20.567-2.831c2.235-1.342,5.663-0.298,8.049-1.044
			c4.62-0.446,9.39-1.639,13.712-2.831c0.894-0.447,1.341-0.745,1.49-1.044c1.341-0.596,1.489-0.596,2.533-0.446
			C1086.701,1436.297,1087.893,1435.85,1087.893,1436.148z M1031.557,1448.22c-7.451,3.279-16.096,3.279-23.846,5.515
			c-9.091,2.534-17.587,7.602-27.87,9.539c0,2.533,1.042,3.428,2.831,3.577c4.173,1.49,8.049,3.129,12.817,3.726
			c8.794,1.192,19.077,0.447,27.424,2.533c2.235,0,5.513,0,8.494,0.895c1.49-1.788,1.641-3.577,2.98-4.471
			c0-1.789,0.448-3.13,0.597-4.472c0.299-2.235,0.299-4.322,0.745-5.961c0.746-2.832,1.192-3.875,1.49-6.26
			C1041.245,1445.836,1034.239,1448.369,1031.557,1448.22z"/>
		<path style="fill:#FF0050;" d="M1005.625,1384.132c4.173,0.746,7.601,1.491,12.072,0.895c7.75,3.279,16.691-1.341,23.995,4.024
			c4.024,0.895,9.091,1.043,12.817,2.98c6.26,2.087,12.816,2.98,18.183,7.304c2.236,2.98,3.875,5.663,5.516,8.793
			c-0.299,2.98-0.15,6.408-2.833,7.75c-5.663,2.235-11.624,3.279-17.14,6.111c-11.923,0.298-22.951,4.619-34.129,2.683
			c-5.365,1.191-10.582-0.149-15.948,0.745c-9.239-0.597-17.735-4.323-26.678-5.962c-1.937-1.64-9.539-2.98-3.427-5.366
			c4.024-0.744,6.557,2.236,10.134,3.13c2.085,0.448,4.024,2.832,6.408,2.832c9.091,1.64,16.99,3.279,26.828,2.087
			c8.494,2.086,17.734,0,26.23-1.789c8.047-0.596,15.351-2.832,22.803-4.918c3.576-1.64,2.235-4.62,3.875-8.495
			c-1.938-1.341-1.341-4.174-2.683-5.365c-2.384-2.683-7.153-4.024-10.135-5.813c-4.918-0.745-9.836,0-13.414-2.831
			c-4.023-0.745-8.644,0.298-11.773-2.832c-13.413-2.235-26.977-1.192-39.496-4.322c-7.302-0.745-13.414-1.043-19.375-4.769
			c0.298-0.895,1.789-0.447,2.386-0.745C989.08,1379.661,996.533,1384.878,1005.625,1384.132z"/>
		<path style="fill:#FF0050;" d="M964.787,1352.834c1.342,0.596,1.342,2.533,2.087,3.577c-1.192,4.77,3.129,2.087,1.789,7.75
			c1.043,1.64,2.532,1.192,5.066,1.788c0-1.043,0.298-0.895,0.298-0.745c8.346-0.149,23.996,2.683,32.342,0
			c3.875,0.447,8.346-1.192,13.116,0.745c0.745-5.515,1.49-3.278,1.042-7.004c0.596-1.044,0.596-2.534,1.938-2.684
			c-0.15,0.299-0.15,0.447,0,0.597c0.148,1.49,0-0.597,0.595,0.148c1.044,4.472-0.447,2.981-0.298,8.942
			c14.755,0,29.51-2.533,42.775,0.149c4.769,0,8.793-2.087,13.414-1.938c2.831,1.49,6.258-1.49,9.39,0.447
			c0.148,0.596,0.595,1.192-0.15,1.49c-7.452,0.895-15.201,1.192-22.206,2.533c-6.707-2.683-14.458-0.148-21.611-0.894
			c-4.173,1.788-11.773-1.49-15.649,1.49c-1.341,0.148-2.683-0.597-3.875-0.745c-4.62-0.895-9.836-0.597-14.755-0.745
			c-6.855,2.831-22.207,0.894-29.807,0.894c-4.918,0.895-9.688-0.446-14.011-1.788c-1.192-1.789-1.639-4.322-1.787-6.855
			c-0.298-4.024-0.448-0.745-1.044-4.024c-0.149,0.298-0.596-0.597-0.446-0.745c0.297-0.597-0.895-2.087-0.449-2.534
			C963.446,1352.983,963.745,1352.089,964.787,1352.834z"/>
		<path style="fill:#FF0050;" d="M1067.177,1272.204c1.343,3.13,0.447,7.154,1.044,9.688c-0.299,4.62,0.745,8.794,1.49,13.265
			c-0.149,0.895-0.597,1.938-1.342,2.534c-3.13-0.745-6.408-0.597-9.239-0.895c-2.833,1.043-6.112-0.298-9.391-1.342
			c-5.663,0.597-11.625-0.447-16.842-0.894c-6.408,0.745-12.22-0.447-18.48-1.044c-5.663,0.895-11.178-0.894-16.542-2.533
			c-1.044-1.342-1.49-1.192-2.087-0.149c-8.346-0.745-15.798-3.576-23.548-6.408c-5.216-1.938-4.173-1.64-9.985-3.875
			c-0.745,2.385,0,4.322-0.298,5.514c-0.298,1.64-0.298,3.279,0,4.919c-0.298,3.13,0.149,7.005,1.341,10.135
			c-0.149,0.149-0.149,0.298-0.297,0.447c-1.044-0.149-1.641-1.342-2.087-2.385c-0.597-1.938,0-3.428-1.342-4.918
			c-0.296-2.385,0.15-4.472-0.296-7.154c1.191-3.428-1.491-8.197,2.831-8.793c2.682,2.086,5.366,2.384,8.496,3.576
			c1.789,0.745,4.172,1.342,6.408,1.938c12.521,3.279,24.146,7.005,37.11,7.899c5.515-1.192,11.328,1.341,17.14,0.745
			c6.408,0,12.52,0.447,19.523,1.789c2.534,0.446,5.217-0.149,8.496,1.341c3.129-3.726,8.346,1.64,7.898-4.918
			c-0.894-4.472-1.191-9.688-1.191-14.01c0.148-1.64-0.447-3.727,0.595-4.77C1066.73,1271.906,1066.879,1272.056,1067.177,1272.204z
			"/>
		<path style="fill:#FF0050;" d="M981.778,1248.21c2.236,0.298,3.726,2.533,6.26,2.533c4.768,2.385,9.239,3.577,15.053,3.875
			c0.894,0.447,2.384,0.597,3.427,0.895c3.28,0.298,6.26,1.788,9.39,1.788c1.938,0.597,4.62-0.447,6.409,1.938
			c2.385-0.596,4.173-1.192,5.663-1.938c0.597-1.192,2.235-2.683,2.087-4.321c1.044-1.64,0.148-2.981,0.894-5.067
			c0.896-2.832,0.896-4.472,2.386-7.452c0.745-0.597,1.49-1.192,2.384-1.044c0.597,1.49,0,3.279,0,5.068
			c-1.937,3.875-1.639,5.961-2.98,11.028c1.192,0.745,0.745,1.341,1.192,1.64c3.726,0.596,7.75,0.148,10.879-0.597
			c1.939,0.298,3.578-0.447,6.559-0.447c0.596-1.788,1.938-0.446,2.831-0.894c5.367-0.447,10.137-3.429,15.649-3.727
			c2.386-2.086,6.409-1.788,8.794-3.576c2.831,0.298,4.321-3.428,7.899-2.534c1.789-1.341,3.427-2.98,5.663-2.98
			c0.597,0.447,1.192,0.894,1.789,1.49c-0.299,2.235-2.833,2.385-4.472,3.577c-2.534,0.298-4.918,0.895-6.706,2.533
			c-3.28-0.148-5.218,2.683-8.347,2.533c-1.193,0.746-2.386,0.896-3.279,1.491c-1.192-0.149-2.235,0.298-3.131,0.745
			c-6.854,0-12.22,4.471-19.076,4.023c-0.895,0.597-2.533,0.597-3.428,0.746c-7.303,2.533-15.798,2.086-23.25,1.938
			c-3.428-0.895-7.601,0-10.582-1.491c-9.241-1.639-18.183-5.365-26.976-7.75c-4.173-1.639-8.049-4.173-11.923-6.26
			c-4.323-2.384-9.39-4.023-12.52-8.346c0-0.298,0-0.745,0.298-0.895C967.321,1241.056,974.326,1244.931,981.778,1248.21z"/>
		<path style="fill:#FF0050;" d="M1083.273,1219.745c0.447,0.148,0.745,0.298,1.043,0.596c-1.342,3.428-5.364,1.49-8.495,2.385
			c-2.683,0.447-5.217,0-7.899,0.148c-7.302,0.149-14.605-0.148-21.61,0c-3.727,0-8.645,0.299-12.519-0.148
			c-2.534-0.298-5.663,0-8.197,0.148c-6.11,0.597-11.923,0-18.332,0.447c-0.298-0.298-0.597-0.298-0.894-0.298
			c-2.684,1.342-5.665,0.149-8.197,0.596c-6.112,0.299-11.924,0.895-17.885,0.895c-4.173-1.788-8.496,0.895-12.817-0.148
			c-0.597-0.149,0.894-1.789,1.34-1.789c6.559-4.471,14.159,1.789,21.461-0.298c8.646-2.385,18.334-1.49,26.828-1.938
			c8.496-0.447,16.543,0.298,25.188,0c2.384-0.298,4.769-0.298,7.303-0.298c0.597,0,1.342,0.148,1.937,0.148
			c6.559-0.148,13.116-0.148,18.929-1.043C1074.928,1220.341,1078.653,1219.596,1083.273,1219.745z"/>
		<path style="fill:#FF0050;" d="M956.143,1185.046c0.298,2.533,1.342,4.322,1.789,7.005c-0.894,4.023-0.148,7.601,1.342,12.52
			c2.085-1.043,3.576-0.745,4.321-0.447c2.833-0.298,6.409,0.447,9.241,0.298c2.683-0.596,5.962-0.894,8.644-0.894
			c4.173-2.087,9.39-2.684,13.562-3.577c2.386,0.596,5.217,0,7.453,0.298c10.134,0,20.567-2.534,30.106-3.875
			c1.787,0.148,4.471-0.299,6.11,0.148c0.298-0.148,1.043-0.148,1.191-0.297c7.453-0.299,13.414-0.448,20.866-0.448
			c3.428,0,6.408,0.597,9.538,0.745h-0.148c-3.875,2.832-9.241,1.789-13.414,2.684c-6.11-1.491-12.519,1.639-19.077-0.895
			c-3.874,4.023-8.495,0.895-12.519,2.235c-3.726-0.447-8.197-0.298-11.328,1.64c-1.491-0.149-2.831,0.447-4.918-0.298
			c-3.576,2.086-8.047,1.043-11.773,1.043c-6.111-1.342-11.029,2.683-16.841,1.938c-4.173,2.087-8.942,1.788-13.712,1.788
			c-1.491-1.639-3.875-0.148-6.855-3.428c-1.043,6.558-0.447,10.433-0.745,14.456c0.745,3.131-0.447,6.559,0,9.987
			c-0.15,0.148-0.15,0.298-0.298,0.446c-1.192-0.148-1.491-1.49-1.938-2.385c0.894-2.98,0.745-5.962,0-8.942
			c-0.597-0.744,0-2.086,0.148-3.576c-1.639-2.235-0.298-5.516-1.49-7.602c0.745-2.385-0.298-4.918-0.148-7.303
			c-1.342-2.385,0.446-5.515-0.895-7.899c0-2.087-2.831-4.173-0.447-5.812c0.15-0.148,0.447-0.298,0.746-0.447
			C955.249,1184.301,955.994,1184.45,956.143,1185.046z"/>
		<path style="fill:#FF0050;" d="M1014.864,1089.81c9.986,3.577,20.567,2.533,30.106,6.558c9.836,4.173,20.567,5.962,30.702,9.24
			c0.298,0.298,0.745,0.745,1.044,1.192c-3.279,1.342-7.603-1.342-11.478-0.895c-11.774-0.894-22.802,2.981-35.173,4.62
			l-0.597,2.684c13.414,2.683,24.74,8.346,37.11,10.73c0.448,0.299,1.193,0.447,1.641,0.745c2.683,0.149,5.962-1.64,7.899-0.149
			c-0.149,1.044-1.192,1.491-2.236,1.789c-2.384-0.298-4.173,1.342-6.408,1.938c-13.266-0.596-25.038,2.235-38.452,3.13
			c-16.543,1.192-32.938,2.385-48.587,2.235c-8.197,1.192-14.456,1.49-20.866,0.745c-0.595-0.298-1.787,0-2.384-0.149
			c0.447-0.297,0.894-0.745,1.342-1.191c4.918-1.044,9.24-1.044,14.456-1.491c22.655-1.788,47.544,0.149,70.794-3.726
			c4.173-0.745,8.347-0.447,12.817-0.895c2.981-1.043,1.639-4.023-0.597-3.428c-9.688-4.77-21.461-5.515-31.149-9.092
			c-1.789-0.596-4.62-0.148-5.365-1.937c0.297-0.597,0.894-0.895,1.49-1.193c10.135-3.278,21.163-4.471,36.365-8.346
			c-9.39-3.428-14.903-4.024-19.227-6.558c-10.88,0-18.332-4.471-29.212-4.471c-8.346-3.131-18.182-1.789-26.529-5.366
			c-6.855-0.149-12.519-1.64-20.567-2.98c-0.149,0-0.596,0-0.746-0.149c0.15-0.298,0.298-0.596,0.448-1.043
			c1.192,0,1.937-0.596,2.533-0.895C980.883,1082.805,997.875,1087.574,1014.864,1089.81z"/>
		<path style="fill:#FF0050;" d="M1091.769,1065.665c-0.446,0.148-1.64,1.043-2.682,1.342c-2.833,0.148-6.857,0.446-9.688,0.894
			c-1.64-0.596-4.77,0.597-6.408,0.148c-7.899,0.746-15.799,1.193-24.742,1.044c-1.639,1.044-4.619,0.299-6.408,0.299
			c-8.346-0.299-15.946-2.385-23.25-1.343c-5.216,0-11.178,1.938-16.692,0c-3.875,0.598-9.539-0.148-12.668,0.149
			c-0.15,0.149-0.447,0.299-0.597,0.448c-7.75-0.746-16.395,0.894-23.847,0.298c-0.595-0.149-1.341-1.192-0.297-1.342
			c15.351-1.938,32.788-1.192,49.034-1.938c3.576-0.149,8.942,0.148,12.817-0.597c0.148,0.149,0.298,0.299,0.446,0.447
			c5.813,0,11.179,0.746,16.693,1.192c0.446-0.298,1.49-0.149,1.789,0c8.94,0.299,19.374-1.341,27.869-1.043
			c4.918-2.385,10.135,1.043,14.606-1.788c0.597-0.895,1.937-0.447,2.682-1.192
			C1092.216,1063.877,1092.067,1065.068,1091.769,1065.665z"/>
		<path style="fill:#FF0050;" d="M1068.966,1032.132c-5.365,3.874-12.222,3.278-17.14,7.451c-1.938,0.597-4.024,1.64-5.663,2.684
			c-4.62-0.15-9.39,2.831-15.649,5.663c4.024,1.64,7.005,1.191,9.091,0.596c8.794,0,16.544-1.49,25.783-0.149
			c2.534,0,5.664-0.745,7.899,0.299c4.322,0.148,9.391-1.044,13.115,1.043c0.15,0.149,0.15,0.149,0.299,0.298
			c-3.13,0.895-7.154,0.597-10.283,0.448c-2.683-0.746-5.515,0.297-8.496,0.297c-5.812,0.149-11.923-1.938-17.14,0.597
			c-4.768,0.597-9.239-1.64-13.86,0c-4.173,1.342-8.346-0.745-12.22,1.192c-7.155-1.192-16.395,0.149-24.145-1.192
			c-8.794,0-17.735,0.597-26.38-0.894c-4.769-0.149-6.706-1.044-11.177-1.938c-0.15,0,0.745-1.043,0.745-1.341
			c4.768-2.832,6.408-3.727,11.475-5.664c7.005-2.831,14.457-2.235,21.462-4.174c9.836,0.149,19.524,1.491,26.678,10.881
			c13.116-7.899,27.125-8.793,39.792-15.649c5.664-1.788,10.88-4.62,16.545-6.408c0.894,0,2.384-0.597,3.428-0.298
			C1078.504,1028.554,1073.735,1030.642,1068.966,1032.132z M985.057,1041.968c-1.938,0.596-4.323-0.149-6.111,1.044
			c-2.384-0.299-4.62,1.042-6.557,1.788l-3.578,2.534c1.342,0.148,6.559,0.596,8.049,0.894c1.938,1.938,5.365,1.043,7.749,1.64
			c11.03-1.491,23.4,0.298,36.664-0.298c-1.937-2.385-3.874-2.981-4.918-4.024c-2.086-2.087-7.899-4.322-11.773-5.962
			C997.875,1040.478,990.721,1038.986,985.057,1041.968z"/>
		<path style="fill:#FF0050;" d="M1037.817,983.097c5.513-0.446,9.686,1.789,14.754,2.981c1.044,0.894,2.088,0.894,2.088,0.745
			c0.296,0.148,2.235,0.596,3.874,1.49l0.446,0.149c2.236,1.191,2.386,1.042,4.024,1.191c2.683,1.789,6.11,2.087,8.346,3.727
			c4.472,3.279,11.029,6.408,15.053,11.178c2.833,3.577,5.665,5.515,8.197,9.092c0.15,0.894,0.746,1.788,0.15,2.832
			c-1.192,0-0.447,1.042-2.235-1.64l-0.299-0.597c-1.639,0.447-2.98,1.192-4.024,1.49c-2.534,0-6.408,0-9.091,0.298
			c-1.64-0.446-4.323,0.598-5.813,0c-7.45,0.448-17.139,0.746-25.336,0.149c-1.937,0.895-4.621,0.299-6.408,0.149
			c-7.75-0.447-14.756-2.832-21.761-2.087c-4.768-0.149-10.433,1.342-15.5-0.596c-3.578,0.446-9.241-0.447-12.072-0.298
			c-0.15,0-0.298,0.298-0.448,0.446c-7.302-0.894-16.692,0.298-23.697-0.446c-0.745-0.299-1.34-1.342-0.298-1.49
			c14.309-1.192,32.342-1.342,47.395-0.15c3.428-0.297,8.644,0.448,12.221-0.148c0.148,0.148,0.299,0.299,0.447,0.447
			c5.515,0,9.986,1.043,15.649,1.64c0.596-0.447,1.191-0.149,1.639,0.148c8.346,0.447,20.12-0.745,28.168-0.148
			c4.472-2.087,9.241,1.192,13.563-1.044c0.447-0.744,0.447,1.49,3.428-0.596c-0.895-0.299-1.788-1.788-1.342-1.788
			c-1.191-2.385-4.62-2.087-6.259-6.856c-0.895,0.895-0.597-0.447-1.342-0.447c0,0-0.745-0.446-1.044-0.596
			c-0.148-0.149-0.745-0.299-0.745-1.49c-1.49,0-1.788-0.447-2.235-0.149c-1.49-0.596-1.49-2.683-3.279-2.683
			c-0.745-0.298-1.787-0.596-2.235-1.191c-1.788-0.448-2.532-2.236-4.173-2.534c-2.385-1.64-5.962-1.342-7.898-2.683
			c-1.64,0-1.789-1.342-3.727-1.49c-5.217-2.832-12.072-2.832-17.587-4.024c-8.047,0-15.351-1.64-23.548,0
			c-2.683,0-5.066,1.043-7.452,1.49c-1.34,0.895-2.981,0.596-4.321,1.341c-11.03,3.429-22.208,7.9-31.746,15.5
			c-3.875,1.938-5.813,5.962-9.836,7.899c-0.895,0.597-0.298-0.745,0-1.192c2.981-4.023,7.004-8.346,11.177-11.476
			c4.024-2.98,9.391-5.217,13.862-7.899c4.023-1.788,8.346-2.98,11.774-4.471c4.323-0.299,5.216-2.981,9.688-2.534
			c0.894-0.149,1.639-0.745,3.279-0.596c0.745-0.596,1.34-0.299,2.384-0.745c1.342,0,2.833,0,4.471-0.447
			C1024.105,982.65,1031.557,981.756,1037.817,983.097z"/>
		<path style="fill:#FF0050;" d="M1034.239,904.255c5.813,0.448,11.775,1.789,18.034,2.534c7.602,0.895,15.5,1.788,22.654,5.365
			c3.726,3.726,8.346,5.664,11.326,10.582c0.447,2.683,2.385,2.235,1.491,5.515c0.147,0.447-0.299,0-0.299-0.597
			c-3.428,0.149-1.789-0.745-4.321-4.173c-3.876,1.192-6.707-0.596-9.539,0.596c-11.924-0.745-22.207,0-33.832,1.193
			c-2.832,1.341-6.408,1.341-9.688,0.894c-2.087-0.745-4.323,0.745-6.855,0.299c-7.75-0.447-16.395-0.447-23.997,0.596
			c-5.663-0.298-11.177,0-16.99,0.596c-2.236-0.447-4.77-1.191-7.899-0.298c-0.895,2.087-1.938,1.64-1.192,3.428
			c-0.298,0.299-0.597,0.745-1.043,1.044c-0.447-0.149-0.896,0-1.342-0.447c0.597-4.322,3.428-6.707,6.111-9.985
			c5.217-4.77,11.923-7.006,17.587-11.625c3.726-2.385,7.6-2.684,11.625-4.322c5.066-0.745,10.73-0.448,15.649-1.49
			C1025.894,905,1029.917,904.703,1034.239,904.255z M1010.691,907.981c-5.812-0.298-9.836,2.385-15.351,4.024
			c-0.299,0.298-1.639,1.639-2.384,2.086c-4.173,2.981-9.092,4.322-13.563,10.284c5.366-0.447,8.049,1.49,10.583,0.446
			c3.726,0.448,7.004-1.49,10.73-1.64c5.367,1.64,11.179,0.299,16.693,1.044c5.068,0.596,10.581-0.597,15.797-0.895
			c9.242-3.576,19.973-1.043,29.511-2.086c4.619,0,9.985-0.745,17.288,0.149c-2.831-5.962-7.899-7.006-11.326-8.943
			c-8.793-2.385-17.587-3.875-26.678-4.769c-1.789-0.298-4.024,0.446-5.664-0.597
			C1028.13,907.534,1018.292,904.703,1010.691,907.981z"/>
		<path style="fill:#FF0050;" d="M1083.273,886.521c0.447,0.148,0.745,0.298,1.043,0.597c-1.342,3.428-5.364,1.49-8.495,2.384
			c-2.683,0.448-5.217,0-7.899,0.149c-7.302,0.149-14.605-0.149-21.61,0c-3.727,0-8.645,0.299-12.519-0.149
			c-2.534-0.298-5.663,0-8.197,0.149c-6.11,0.596-11.923,0-18.332,0.447c-0.298-0.298-0.597-0.298-0.894-0.298
			c-2.684,1.341-5.665,0.149-8.197,0.596c-6.112,0.298-11.924,0.895-17.885,0.895c-4.173-1.789-8.496,0.895-12.817-0.149
			c-0.597-0.149,0.894-1.788,1.34-1.788c6.559-4.472,14.159,1.788,21.461-0.299c8.646-2.385,18.334-1.49,26.828-1.937
			c8.496-0.448,16.543,0.298,25.188,0c2.384-0.299,4.769-0.299,7.303-0.299c0.597,0,1.342,0.149,1.937,0.149
			c6.559-0.149,13.116-0.149,18.929-1.044C1074.928,887.117,1078.653,886.372,1083.273,886.521z"/>
		<path style="fill:#FF0050;" d="M1084.019,857.16c-1.49,3.278-5.066,3.577-7.601,5.365c-3.428,1.789-7.153,3.577-11.03,4.024
			c-1.041,0.597-2.532,0.745-3.726,0.894c-9.984,1.789-19.672,5.813-30.105,6.111c-7.153,1.49-15.052,0.745-22.803,0.596
			c-6.408,0-14.606-1.788-21.014-4.62c-3.131-0.744-6.558-1.938-8.794-3.875c-3.279-0.895-5.812-3.278-8.645-5.067
			c-0.595-1.043-1.34-2.086-1.34-3.13c0-0.148-0.15-0.298-0.15-0.298c2.981,0.745,5.813,2.98,8.794,4.77
			c2.384,1.341,3.726,3.13,6.259,3.726c4.323,0.895,7.75,3.875,12.222,3.577c8.197,2.087,17.14,1.938,26.976,1.341
			c-1.49-3.427,1.044-4.769-0.148-6.854c0.148-0.895,0.298-1.49,0.595-2.088c0.448-0.446,0.746-0.894,1.342-0.446
			c0.298,0.298,0.447,0.446,0.746,0.745c-0.299,0.895,0.298,1.49,0.745,1.938c-0.447,1.938,0,3.875-0.299,6.26
			c7.304,0.745,12.222-1.341,18.184-1.64c2.534-1.192,6.408-1.49,9.538-2.385c2.832-0.894,6.26-0.894,8.942-2.533
			c2.235,0.298,4.77-0.448,6.559-2.684c3.874,0.149,6.855-2.683,11.326-3.576c0-1.192,0-0.746,0-0.746
			c0.745-0.297,2.236-1.937,4.024-1.341C1084.465,855.968,1084.316,856.563,1084.019,857.16z"/>
		<path style="fill:#FF0050;" d="M1037.817,769.824c5.513-0.447,9.686,1.788,14.754,2.98c1.044,0.895,2.088,0.895,2.088,0.745
			c0.296,0.149,2.235,0.596,3.874,1.49l0.446,0.149c2.236,1.192,2.386,1.043,4.024,1.192c2.683,1.788,6.11,2.086,8.346,3.726
			c4.472,3.279,11.029,6.409,15.053,11.179c2.833,3.577,5.665,5.514,8.197,9.092c0.15,0.894,0.746,1.788,0.15,2.831
			c-1.192,0-0.447,1.043-2.235-1.64l-0.299-0.596c-1.639,0.446-2.98,1.192-4.024,1.491c-2.534,0-6.408,0-9.091,0.297
			c-1.64-0.447-4.323,0.597-5.813,0c-7.45,0.447-17.139,0.745-25.336,0.149c-1.937,0.894-4.621,0.298-6.408,0.149
			c-7.75-0.447-14.756-2.832-21.761-2.087c-4.768-0.149-10.433,1.341-15.5-0.596c-3.578,0.446-9.241-0.448-12.072-0.298
			c-0.15,0-0.298,0.298-0.448,0.446c-7.302-0.894-16.692,0.298-23.697-0.446c-0.745-0.299-1.34-1.342-0.298-1.491
			c14.309-1.192,32.342-1.341,47.395-0.149c3.428-0.297,8.644,0.447,12.221-0.148c0.148,0.148,0.299,0.298,0.447,0.447
			c5.515,0,9.986,1.043,15.649,1.64c0.596-0.448,1.191-0.149,1.639,0.148c8.346,0.447,20.12-0.745,28.168-0.148
			c4.472-2.087,9.241,1.191,13.563-1.044c0.447-0.745,0.447,1.49,3.428-0.596c-0.895-0.299-1.788-1.789-1.342-1.789
			c-1.191-2.384-4.62-2.086-6.259-6.855c-0.895,0.895-0.597-0.447-1.342-0.447c0,0-0.745-0.447-1.044-0.596
			c-0.148-0.149-0.745-0.299-0.745-1.491c-1.49,0-1.788-0.446-2.235-0.149c-1.49-0.596-1.49-2.683-3.279-2.683
			c-0.745-0.298-1.787-0.596-2.235-1.191c-1.788-0.448-2.532-2.235-4.173-2.534c-2.385-1.64-5.962-1.341-7.898-2.683
			c-1.64,0-1.789-1.342-3.727-1.49c-5.217-2.832-12.072-2.832-17.587-4.024c-8.047,0-15.351-1.64-23.548,0
			c-2.683,0-5.066,1.044-7.452,1.49c-1.34,0.895-2.981,0.597-4.321,1.341c-11.03,3.43-22.208,7.9-31.746,15.501
			c-3.875,1.938-5.813,5.962-9.836,7.898c-0.895,0.598-0.298-0.744,0-1.191c2.981-4.023,7.004-8.347,11.177-11.476
			c4.024-2.981,9.391-5.217,13.862-7.9c4.023-1.788,8.346-2.979,11.774-4.471c4.323-0.298,5.216-2.98,9.688-2.533
			c0.894-0.149,1.639-0.746,3.279-0.597c0.745-0.596,1.34-0.298,2.384-0.745c1.342,0,2.833,0,4.471-0.447
			C1024.105,769.377,1031.557,768.483,1037.817,769.824z"/>
		<path style="fill:#FF0050;" d="M1083.273,751.045c0.447,0.149,0.745,0.298,1.043,0.597c-1.342,3.428-5.364,1.491-8.495,2.384
			c-2.683,0.448-5.217,0-7.899,0.149c-7.302,0.149-14.605-0.149-21.61,0c-3.727,0-8.645,0.299-12.519-0.149
			c-2.534-0.298-5.663,0-8.197,0.149c-6.11,0.596-11.923,0-18.332,0.448c-0.298-0.298-0.597-0.298-0.894-0.298
			c-2.684,1.341-5.665,0.149-8.197,0.596c-6.112,0.298-11.924,0.895-17.885,0.895c-4.173-1.789-8.496,0.895-12.817-0.149
			c-0.597-0.149,0.894-1.788,1.34-1.788c6.559-4.472,14.159,1.788,21.461-0.299c8.646-2.385,18.334-1.49,26.828-1.937
			c8.496-0.448,16.543,0.297,25.188,0c2.384-0.298,4.769-0.298,7.303-0.298c0.597,0,1.342,0.149,1.937,0.149
			c6.559-0.149,13.116-0.149,18.929-1.044C1074.928,751.642,1078.653,750.897,1083.273,751.045z"/>
		<path style="fill:#FF0050;" d="M964.787,722.283c1.342,0.596,1.342,2.533,2.087,3.577c-1.192,4.769,3.129,2.086,1.789,7.75
			c1.043,1.64,2.532,1.193,5.066,1.789c0-1.044,0.298-0.895,0.298-0.746c8.346-0.149,23.996,2.683,32.342,0
			c3.875,0.447,8.346-1.193,13.116,0.746c0.745-5.515,1.49-3.28,1.042-7.005c0.596-1.043,0.596-2.533,1.938-2.683
			c-0.15,0.298-0.15,0.447,0,0.596c0.148,1.49,0-0.596,0.595,0.149c1.044,4.471-0.447,2.98-0.298,8.942
			c14.755,0,29.51-2.534,42.775,0.149c4.769,0,8.793-2.087,13.414-1.938c2.831,1.49,6.258-1.491,9.39,0.447
			c0.148,0.596,0.595,1.192-0.15,1.491c-7.452,0.894-15.201,1.192-22.206,2.533c-6.707-2.682-14.458-0.149-21.611-0.895
			c-4.173,1.789-11.773-1.49-15.649,1.491c-1.341,0.149-2.683-0.596-3.875-0.745c-4.62-0.894-9.836-0.596-14.755-0.746
			c-6.855,2.832-22.207,0.895-29.807,0.895c-4.918,0.895-9.688-0.447-14.011-1.788c-1.192-1.789-1.639-4.323-1.787-6.856
			c-0.298-4.024-0.448-0.745-1.044-4.024c-0.149,0.298-0.596-0.596-0.446-0.745c0.297-0.596-0.895-2.087-0.449-2.533
			C963.446,722.431,963.745,721.538,964.787,722.283z"/>
		<path style="fill:#FF0050;" d="M965.831,690.539c-0.148,1.788-0.148,5.514-0.746,7.898c-0.298,1.043,0.447,2.981-1.192,4.472
			c0.447,2.98,2.534,1.788,3.428,2.98c4.471,2.833,9.539-0.596,14.457,1.789c8.494-0.298,21.163,1.193,30.106,0.895
			c0.149,0,0.745-0.149,1.64-0.149c0.745-1.192,1.639-2.086,1.49-3.428c1.042-1.64-0.298-2.086,0.447-4.173
			c0.894-2.833,0-1.193,1.49-3.875c0.746-0.596,1.491-1.193,2.384-1.044c0.597,1.491,0,2.832,0,4.621
			c-1.937,4.024-0.298,1.937-1.49,6.856l0.895,0.894c4.173-0.447,7.601-0.746,11.326-0.746l0.745-0.298
			c3.875,0.596,9.241,0.298,12.817,0.447c16.246,0.596,33.832,0,49.184,1.938c1.042,0.148,0.148,1.192-0.448,1.341
			c-7.45,0.596-15.946-1.044-23.696-0.298c-0.148-0.149-0.598-0.298-0.746-0.447c-3.129-0.298-8.792,0.447-12.668-0.149
			c-5.515,1.937-11.476,0-16.691,0c-7.304-1.043-14.904,1.043-23.251,1.341c-1.787,0-4.62,0.745-6.259-0.298
			c-8.942,0.149-19.227-0.298-27.126-1.043c-1.639,0.447-4.77-0.745-6.26-0.149c-2.831-0.447-6.855-0.745-9.687-0.894
			c-1.193-0.297-3.13-1.938-4.621-2.384c-1.49-1.49,0.746-3.578,0.746-5.812c-1.341-1.64,0.149-2.534,0.149-4.173
			c0.297-0.447,0.297-1.192,0.447-1.64c1.192-1.937,0.447-5.067,2.534-6.706C966.576,688.154,965.532,690.539,965.831,690.539z"/>
		<path style="fill:#FF0050;" d="M1084.019,661.625c-1.49,3.279-5.066,3.578-7.601,5.366c-3.428,1.789-7.153,3.577-11.03,4.024
			c-1.041,0.596-2.532,0.745-3.726,0.894c-9.984,1.789-19.672,5.813-30.105,6.111c-7.153,1.49-15.052,0.745-22.803,0.596
			c-6.408,0-14.606-1.788-21.014-4.62c-3.131-0.745-6.558-1.938-8.794-3.875c-3.279-0.895-5.812-3.279-8.645-5.067
			c-0.595-1.044-1.34-2.087-1.34-3.13c0-0.149-0.15-0.298-0.15-0.298c2.981,0.745,5.813,2.981,8.794,4.77
			c2.384,1.341,3.726,3.13,6.259,3.726c4.323,0.895,7.75,3.875,12.222,3.577c8.197,2.086,17.14,1.938,26.976,1.341
			c-1.49-3.428,1.044-4.77-0.148-6.855c0.148-0.895,0.298-1.491,0.595-2.087c0.448-0.447,0.746-0.894,1.342-0.447
			c0.298,0.298,0.447,0.447,0.746,0.745c-0.299,0.894,0.298,1.49,0.745,1.938c-0.447,1.938,0,3.875-0.299,6.26
			c7.304,0.746,12.222-1.341,18.184-1.639c2.534-1.192,6.408-1.491,9.538-2.385c2.832-0.895,6.26-0.895,8.942-2.533
			c2.235,0.297,4.77-0.448,6.559-2.684c3.874,0.149,6.855-2.682,11.326-3.577c0-1.192,0-0.745,0-0.745
			c0.745-0.297,2.236-1.937,4.024-1.341C1084.465,660.433,1084.316,661.028,1084.019,661.625z"/>
		<path style="fill:#FF0050;" d="M1068.966,628.391c-5.365,3.875-12.222,3.278-17.14,7.451c-1.938,0.597-4.024,1.64-5.663,2.683
			c-4.62-0.149-9.39,2.832-15.649,5.664c4.024,1.64,7.005,1.192,9.091,0.596c8.794,0,16.544-1.49,25.783-0.148
			c2.534,0,5.664-0.746,7.899,0.298c4.322,0.149,9.391-1.043,13.115,1.044c0.15,0.148,0.15,0.148,0.299,0.297
			c-3.13,0.895-7.154,0.596-10.283,0.448c-2.683-0.745-5.515,0.297-8.496,0.297c-5.812,0.149-11.923-1.937-17.14,0.596
			c-4.768,0.597-9.239-1.639-13.86,0c-4.173,1.342-8.346-0.745-12.22,1.192c-7.155-1.192-16.395,0.149-24.145-1.192
			c-8.794,0-17.735,0.597-26.38-0.894c-4.769-0.149-6.706-1.044-11.177-1.938c-0.15,0,0.745-1.042,0.745-1.341
			c4.768-2.832,6.408-3.726,11.475-5.664c7.005-2.832,14.457-2.235,21.462-4.173c9.836,0.149,19.524,1.49,26.678,10.88
			c13.116-7.899,27.125-8.793,39.792-15.649c5.664-1.789,10.88-4.62,16.545-6.408c0.894,0,2.384-0.597,3.428-0.299
			C1078.504,624.813,1073.735,626.9,1068.966,628.391z M985.057,638.227c-1.938,0.596-4.323-0.149-6.111,1.044
			c-2.384-0.298-4.62,1.043-6.557,1.788l-3.578,2.534c1.342,0.149,6.559,0.596,8.049,0.894c1.938,1.938,5.365,1.043,7.749,1.639
			c11.03-1.49,23.4,0.299,36.664-0.297c-1.937-2.385-3.874-2.981-4.918-4.024c-2.086-2.086-7.899-4.322-11.773-5.962
			C997.875,636.736,990.721,635.246,985.057,638.227z"/>
		<path style="fill:#FF0050;" d="M981.778,600.072c2.236,0.299,3.726,2.535,6.26,2.535c4.768,2.384,9.239,3.577,15.053,3.875
			c0.894,0.447,2.384,0.596,3.427,0.894c3.28,0.299,6.26,1.79,9.39,1.79c1.938,0.596,4.62-0.448,6.409,1.937
			c2.385-0.596,4.173-1.192,5.663-1.937c0.597-1.193,2.235-2.683,2.087-4.323c1.044-1.639,0.148-2.98,0.894-5.067
			c0.896-2.832,0.896-4.472,2.386-7.451c0.745-0.597,1.49-1.193,2.384-1.044c0.597,1.49,0,3.278,0,5.067
			c-1.937,3.875-1.639,5.962-2.98,11.029c1.192,0.746,0.745,1.342,1.192,1.64c3.726,0.596,7.75,0.149,10.879-0.596
			c1.939,0.298,3.578-0.447,6.559-0.447c0.596-1.788,1.938-0.447,2.831-0.895c5.367-0.447,10.137-3.428,15.649-3.725
			c2.386-2.088,6.409-1.789,8.794-3.578c2.831,0.298,4.321-3.428,7.899-2.533c1.789-1.341,3.427-2.981,5.663-2.981
			c0.597,0.447,1.192,0.894,1.789,1.49c-0.299,2.236-2.833,2.385-4.472,3.577c-2.534,0.298-4.918,0.895-6.706,2.534
			c-3.28-0.149-5.218,2.683-8.347,2.534c-1.193,0.745-2.386,0.894-3.279,1.49c-1.192-0.149-2.235,0.298-3.131,0.745
			c-6.854,0-12.22,4.471-19.076,4.024c-0.895,0.596-2.533,0.596-3.428,0.745c-7.303,2.533-15.798,2.086-23.25,1.937
			c-3.428-0.894-7.601,0-10.582-1.49c-9.241-1.639-18.183-5.365-26.976-7.75c-4.173-1.64-8.049-4.173-11.923-6.26
			c-4.323-2.385-9.39-4.023-12.52-8.346c0-0.298,0-0.746,0.298-0.894C967.321,592.919,974.326,596.793,981.778,600.072z"/>
		<path style="fill:#FF0050;" d="M985.951,548.357c1.639,0,4.024-0.149,5.812-0.297c4.323-2.684,11.03,0,16.098,0.596
			c3.129-1.789,8.346-0.745,11.625-1.044c4.769-1.191,11.028,0.299,16.543,0.299c9.688,0,20.866-0.299,30.552-0.746
			c1.49-0.149,2.981-1.043,4.323-0.447c0.148,0.149,0.298-0.148,0.446-0.148c-3.428,2.236-7.6,2.384-11.028,3.875
			c-4.918,4.322-10.582,6.558-15.797,9.837c-6.261,2.832-12.669,4.918-18.332,9.24c-1.789,0.895-3.429,1.938-5.217,2.832
			l-4.322,2.087l4.918,0.297c11.624,0.746,22.505-2.086,34.428-0.447c4.77,0,9.24-1.938,13.86-1.044c1.192-0.149,2.683,0,3.727,0
			c-0.148,0.299,0,0.895-0.148,1.044c-1.192,0-2.236,0.298-3.279,1.043c-1.192,0.597-2.683,0.597-4.024,0.895
			c-4.023,0.447-8.048-0.149-12.072,0.745c-10.88,0.298-21.461-1.043-32.044,0.149c-4.918-0.895-9.836,1.639-14.605,0.298
			c-3.129,0.746-7.154-0.894-9.538,0.894c-7.154-0.745-14.159-1.937-21.611-1.937c-1.639-0.596-4.173,0-4.918-1.789
			c-0.15-0.148,0.894-1.639,0.894-0.894c8.049-2.087,14.904,2.683,24.146,1.639c4.77-0.596,9.688,0,14.754-1.491
			c1.49-2.086,3.726-1.937,5.367-3.278c2.98-0.447,5.961-1.192,7.898-3.279c7.601-3.726,15.351-5.067,21.461-10.581
			c1.789-0.746,3.578-1.64,5.515-3.28c0-0.447,4.321-2.384,4.321-2.831c-0.148-0.298-4.619,0.745-4.619,0.149
			c-5.812,0-11.179-1.044-15.798,0.596c-8.346-2.086-16.991-2.236-25.934-0.298c-6.408-0.745-12.965-1.639-19.226-0.447
			c-5.216-2.236-11.028,2.384-15.797-1.788c-0.447-1.342-2.833-0.895-2.683-2.534C976.71,545.376,981.033,548.208,985.951,548.357z"
			/>
		<path style="fill:#FF0050;" d="M1067.177,504.987c1.343,3.13,0.447,7.154,1.044,9.688c-0.299,4.621,0.745,8.793,1.49,13.265
			c-0.149,0.895-0.597,1.937-1.342,2.533c-3.13-0.745-6.408-0.596-9.239-0.894c-2.833,1.043-6.112-0.298-9.391-1.342
			c-5.663,0.597-11.625-0.447-16.842-0.894c-6.408,0.745-12.22-0.448-18.48-1.043c-5.663,0.895-11.178-0.895-16.542-2.533
			c-1.044-1.342-1.49-1.193-2.087-0.149c-8.346-0.745-15.798-3.577-23.548-6.409c-5.216-1.937-4.173-1.639-9.985-3.875
			c-0.745,2.385,0,4.323-0.298,5.515c-0.298,1.64-0.298,3.279,0,4.919c-0.298,3.129,0.149,7.004,1.341,10.135
			c-0.149,0.149-0.149,0.297-0.297,0.446c-1.044-0.149-1.641-1.341-2.087-2.385c-0.597-1.937,0-3.428-1.342-4.918
			c-0.296-2.385,0.15-4.471-0.296-7.154c1.191-3.428-1.491-8.197,2.831-8.793c2.682,2.087,5.366,2.385,8.496,3.577
			c1.789,0.746,4.172,1.341,6.408,1.938c12.521,3.279,24.146,7.005,37.11,7.9c5.515-1.193,11.328,1.341,17.14,0.745
			c6.408,0,12.52,0.447,19.523,1.789c2.534,0.447,5.217-0.149,8.496,1.341c3.129-3.726,8.346,1.64,7.898-4.918
			c-0.894-4.471-1.191-9.688-1.191-14.01c0.148-1.639-0.447-3.726,0.595-4.769C1066.73,504.689,1066.879,504.838,1067.177,504.987z"
			/>
	</g>
	<path style="fill:none;stroke:#17192D;stroke-width:3;" d="M2048,0"/>
	<path style="fill:none;stroke:#17192D;stroke-width:3;" d="M2048,1536"/>
	<path style="fill:none;stroke:#17192D;stroke-width:3;" d="M0,1536"/>
	<path style="fill:none;stroke:#17192D;stroke-width:3;" d="M0,0"/>
</g>
<g id="Layer_1">
</g>
</svg>
