<svg xmlns="http://www.w3.org/2000/svg" width="2048" height="1536" viewBox="0 0 2048 1536"><g><g fill="#FF0050"><path d="M1087.893 1436.148c3.727.446 6.26-.447 7.155 1.34 0 .15-.15.448-.15.597-5.514 3.13-12.668 1.79-19.076 3.577-11.326 1.64-22.952 2.534-33.384 5.217-2.385 3.277-5.068 7.75-3.43 12.07.15.15-.445 0-1.042 1.044 1.043 1.49-.597 2.087-.597 3.28-.597 2.83-.3 6.407-1.492 11.326 8.646 1.938 16.842 1.788 23.997 3.726 5.216 1.49 12.52-.894 17.734 1.788 1.937 0 4.322-.298 5.663 1.342.298.745-1.044.745-1.64.745-6.11-1.042-10.73-.595-16.543-1.34-6.856-2.98-17.29-.447-24.74-3.428-2.684 0-6.856.745-8.943-.746-7.004-1.64-15.35.447-21.908-2.683-12.223.447-22.357-4.62-34.876-4.62-.597-.597-.597-1.64-1.938-1.788-3.576-1.192-8.196 1.043-10.432-1.938.894-1.64 3.278-.895 5.067-2.236 15.053-3.277 28.914-9.835 44.265-12.667 4.323-2.087 9.688-2.683 14.457-4.62 1.64-.15 3.28-.447 4.77.15 2.98-.896 6.26-1.94 9.538-1.94 7.006-.147 13.266-3.427 20.567-2.83 2.235-1.342 5.663-.298 8.05-1.044 4.62-.447 9.39-1.64 13.71-2.832.895-.447 1.342-.745 1.49-1.044 1.342-.596 1.49-.596 2.534-.446 0 .15 1.193-.298 1.193 0zm-56.336 12.072c-7.45 3.28-16.096 3.28-23.846 5.515-9.09 2.534-17.586 7.602-27.87 9.54 0 2.532 1.043 3.427 2.832 3.576 4.173 1.49 8.05 3.13 12.817 3.727 8.793 1.192 19.076.447 27.423 2.533 2.235 0 5.513 0 8.494.895 1.49-1.788 1.64-3.577 2.98-4.47 0-1.79.448-3.13.597-4.473.3-2.235.3-4.322.745-5.96.745-2.833 1.19-3.876 1.49-6.26 4.025-7.006-2.98-4.473-5.663-4.622zM1005.625 1384.132c4.173.746 7.6 1.49 12.072.895 7.75 3.28 16.69-1.34 23.995 4.024 4.024.896 9.09 1.044 12.817 2.98 6.26 2.088 12.815 2.98 18.182 7.305 2.236 2.98 3.875 5.663 5.516 8.793-.3 2.98-.15 6.408-2.833 7.75-5.663 2.235-11.624 3.28-17.14 6.11-11.923.3-22.95 4.62-34.13 2.684-5.364 1.19-10.58-.15-15.947.745-9.24-.597-17.735-4.323-26.678-5.962-1.937-1.64-9.54-2.98-3.427-5.366 4.024-.745 6.557 2.235 10.134 3.13 2.085.447 4.024 2.83 6.408 2.83 9.09 1.64 16.99 3.28 26.828 2.088 8.494 2.086 17.734 0 26.23-1.79 8.047-.595 15.35-2.83 22.803-4.917 3.576-1.64 2.235-4.62 3.875-8.494-1.937-1.34-1.34-4.174-2.682-5.365-2.384-2.682-7.153-4.023-10.135-5.812-4.918-.745-9.836 0-13.414-2.83-4.024-.746-8.645.297-11.774-2.833-13.413-2.235-26.977-1.192-39.496-4.322-7.302-.745-13.414-1.043-19.375-4.77.298-.894 1.79-.446 2.386-.744 9.24-.6 16.693 4.618 25.785 3.872zM964.787 1352.834c1.342.596 1.342 2.533 2.087 3.577-1.192 4.77 3.13 2.088 1.79 7.75 1.042 1.64 2.53 1.193 5.065 1.79 0-1.044.297-.896.297-.746 8.346-.15 23.996 2.683 32.342 0 3.874.447 8.345-1.192 13.115.745.745-5.516 1.49-3.28 1.042-7.005.596-1.044.596-2.534 1.938-2.684-.15.3-.15.448 0 .598.148 1.49 0-.597.595.148 1.044 4.472-.447 2.98-.298 8.942 14.755 0 29.51-2.533 42.775.15 4.77 0 8.793-2.088 13.414-1.94 2.832 1.49 6.26-1.49 9.39.448.15.596.596 1.192-.15 1.49-7.45.895-15.2 1.192-22.205 2.533-6.707-2.684-14.458-.15-21.61-.895-4.174 1.788-11.774-1.49-15.65 1.49-1.34.148-2.683-.597-3.875-.745-4.62-.895-9.836-.597-14.755-.745-6.855 2.83-22.207.894-29.807.894-4.918.894-9.688-.447-14.01-1.79-1.193-1.788-1.64-4.32-1.788-6.854-.298-4.024-.448-.745-1.044-4.024-.15.298-.596-.597-.446-.745.297-.597-.895-2.087-.45-2.534.896.3 1.195-.594 2.237.15zM1067.177 1272.204c1.343 3.13.447 7.154 1.044 9.688-.298 4.62.746 8.794 1.49 13.265-.148.895-.596 1.938-1.34 2.534-3.13-.744-6.41-.596-9.24-.894-2.833 1.043-6.112-.298-9.39-1.342-5.664.597-11.626-.447-16.843-.894-6.408.745-12.22-.447-18.48-1.044-5.663.895-11.178-.894-16.542-2.533-1.044-1.342-1.49-1.192-2.087-.15-8.346-.744-15.798-3.575-23.548-6.407-5.216-1.938-4.173-1.64-9.985-3.875-.745 2.386 0 4.323-.298 5.515-.298 1.64-.298 3.28 0 4.92-.298 3.13.15 7.004 1.34 10.134-.148.148-.148.297-.296.446-1.043-.15-1.64-1.342-2.086-2.385-.597-1.937 0-3.427-1.342-4.917-.296-2.385.15-4.472-.296-7.154 1.19-3.43-1.49-8.198 2.83-8.794 2.683 2.086 5.367 2.384 8.497 3.576 1.79.745 4.172 1.342 6.408 1.938 12.522 3.28 24.147 7.005 37.11 7.9 5.516-1.193 11.33 1.34 17.14.744 6.41 0 12.52.447 19.524 1.79 2.534.445 5.217-.15 8.496 1.34 3.13-3.726 8.346 1.64 7.898-4.918-.894-4.472-1.19-9.688-1.19-14.01.147-1.64-.448-3.727.594-4.77.148 0 .297.15.595.298zM981.778 1248.21c2.236.298 3.726 2.533 6.26 2.533 4.768 2.385 9.24 3.577 15.053 3.875.895.447 2.385.597 3.428.895 3.28.298 6.26 1.788 9.39 1.788 1.938.598 4.62-.446 6.41 1.94 2.384-.597 4.172-1.193 5.662-1.94.597-1.19 2.235-2.682 2.087-4.32 1.044-1.64.148-2.98.894-5.067.897-2.832.897-4.472 2.387-7.452.745-.596 1.49-1.19 2.384-1.043.598 1.49 0 3.28 0 5.068-1.936 3.875-1.638 5.96-2.98 11.028 1.193.745.746 1.34 1.193 1.64 3.726.596 7.75.148 10.88-.597 1.938.298 3.577-.447 6.558-.447.597-1.79 1.94-.447 2.832-.895 5.367-.447 10.137-3.43 15.65-3.727 2.385-2.086 6.408-1.788 8.793-3.576 2.83.298 4.32-3.428 7.9-2.534 1.788-1.34 3.426-2.98 5.662-2.98.597.447 1.192.894 1.79 1.49-.3 2.235-2.834 2.385-4.473 3.577-2.534.298-4.918.895-6.706 2.533-3.28-.148-5.218 2.683-8.347 2.533-1.192.747-2.385.897-3.278 1.492-1.192-.15-2.235.298-3.13.745-6.855 0-12.22 4.47-19.077 4.023-.895.597-2.533.597-3.428.746-7.303 2.533-15.798 2.086-23.25 1.938-3.428-.895-7.6 0-10.582-1.49-9.24-1.64-18.183-5.366-26.976-7.75-4.174-1.64-8.05-4.174-11.924-6.26-4.323-2.385-9.39-4.024-12.52-8.347 0-.298 0-.745.298-.895 6.707 4.324 13.712 8.2 21.164 11.478zM1083.273 1219.745c.447.148.745.298 1.043.596-1.342 3.43-5.364 1.49-8.495 2.386-2.682.447-5.216 0-7.898.148-7.302.15-14.605-.148-21.61 0-3.727 0-8.645.3-12.52-.148-2.533-.298-5.662 0-8.196.148-6.11.597-11.923 0-18.332.447-.298-.297-.597-.297-.894-.297-2.684 1.342-5.665.15-8.197.596-6.112.298-11.924.894-17.885.894-4.173-1.788-8.496.895-12.817-.148-.596-.15.895-1.79 1.34-1.79 6.56-4.47 14.16 1.79 21.462-.297 8.646-2.386 18.334-1.49 26.828-1.94 8.496-.446 16.543.3 25.188 0 2.384-.297 4.77-.297 7.303-.297.598 0 1.343.148 1.938.148 6.56-.147 13.116-.147 18.93-1.042 4.47 1.193 8.195.448 12.815.597zM956.143 1185.046c.298 2.533 1.342 4.322 1.79 7.005-.895 4.024-.15 7.602 1.34 12.52 2.086-1.042 3.577-.744 4.322-.446 2.833-.298 6.41.447 9.24.298 2.684-.596 5.963-.894 8.645-.894 4.173-2.087 9.39-2.684 13.562-3.577 2.386.597 5.217 0 7.453.3 10.134 0 20.567-2.535 30.106-3.876 1.788.148 4.472-.3 6.11.148.3-.148 1.044-.148 1.192-.297 7.453-.3 13.414-.448 20.866-.448 3.428 0 6.408.597 9.538.745h-.148c-3.875 2.832-9.24 1.79-13.414 2.684-6.11-1.49-12.52 1.64-19.077-.895-3.874 4.024-8.495.896-12.52 2.236-3.725-.447-8.196-.298-11.327 1.64-1.49-.15-2.83.447-4.918-.298-3.576 2.086-8.047 1.043-11.773 1.043-6.112-1.34-11.03 2.684-16.842 1.94-4.173 2.086-8.942 1.787-13.712 1.787-1.49-1.64-3.875-.148-6.855-3.428-1.042 6.557-.446 10.432-.744 14.455.745 3.13-.447 6.56 0 9.987-.15.148-.15.298-.298.446-1.192-.148-1.49-1.49-1.938-2.385.894-2.98.745-5.962 0-8.942-.597-.743 0-2.085.148-3.575-1.64-2.235-.298-5.516-1.49-7.602.745-2.385-.298-4.918-.148-7.303-1.342-2.385.446-5.515-.895-7.9 0-2.086-2.83-4.172-.447-5.81.15-.15.447-.3.746-.448.595.15 1.34.298 1.49.894zM1014.864 1089.81c9.986 3.577 20.567 2.533 30.106 6.558 9.836 4.173 20.567 5.962 30.702 9.24.298.298.745.745 1.044 1.192-3.28 1.342-7.603-1.342-11.478-.895-11.774-.894-22.802 2.98-35.173 4.62l-.597 2.684c13.414 2.682 24.74 8.345 37.11 10.73.448.298 1.193.446 1.64.744 2.684.15 5.963-1.64 7.9-.15-.15 1.045-1.192 1.492-2.236 1.79-2.384-.298-4.173 1.342-6.408 1.938-13.266-.596-25.038 2.235-38.452 3.13-16.543 1.192-32.938 2.385-48.587 2.235-8.197 1.192-14.456 1.49-20.866.745-.596-.298-1.788 0-2.385-.15.447-.296.894-.744 1.342-1.19 4.918-1.044 9.24-1.044 14.456-1.49 22.655-1.79 47.544.148 70.794-3.727 4.173-.745 8.347-.447 12.817-.895 2.98-1.043 1.64-4.023-.597-3.428-9.688-4.77-21.46-5.515-31.15-9.092-1.788-.596-4.62-.148-5.364-1.937.297-.597.894-.895 1.49-1.193 10.135-3.278 21.163-4.47 36.365-8.346-9.39-3.428-14.903-4.024-19.227-6.558-10.88 0-18.33-4.47-29.21-4.47-8.347-3.132-18.183-1.79-26.53-5.367-6.855-.15-12.52-1.64-20.567-2.98-.15 0-.596 0-.746-.15.15-.298.298-.596.448-1.043 1.192 0 1.937-.596 2.533-.895 16.845 1.343 33.837 6.112 50.826 8.348zM1091.77 1065.665c-.447.148-1.64 1.043-2.683 1.342-2.833.148-6.857.446-9.688.894-1.64-.595-4.77.598-6.41.15-7.898.745-15.798 1.192-24.74 1.043-1.64 1.044-4.62.3-6.41.3-8.345-.3-15.945-2.386-23.25-1.344-5.215 0-11.177 1.937-16.69 0-3.876.597-9.54-.15-12.67.148-.15.15-.446.3-.596.448-7.75-.746-16.395.894-23.847.298-.595-.15-1.34-1.192-.297-1.342 15.35-1.938 32.788-1.192 49.034-1.938 3.576-.15 8.942.148 12.817-.597l.447.447c5.813 0 11.18.746 16.693 1.192.446-.298 1.49-.15 1.79 0 8.94.3 19.373-1.34 27.868-1.043 4.918-2.385 10.135 1.043 14.606-1.788.597-.895 1.937-.447 2.682-1.192 1.79 1.194 1.64 2.385 1.343 2.982zM1068.966 1032.132c-5.365 3.874-12.222 3.278-17.14 7.45-1.938.598-4.024 1.64-5.663 2.685-4.62-.15-9.39 2.83-15.65 5.663 4.025 1.64 7.006 1.19 9.092.596 8.794 0 16.544-1.49 25.783-.15 2.534 0 5.664-.744 7.9.3 4.32.148 9.39-1.044 13.114 1.043l.3.297c-3.13.895-7.155.597-10.284.448-2.683-.746-5.515.297-8.496.297-5.812.15-11.923-1.938-17.14.597-4.768.596-9.24-1.64-13.86 0-4.173 1.34-8.346-.746-12.22 1.19-7.155-1.19-16.395.15-24.145-1.19-8.794 0-17.735.596-26.38-.895-4.77-.15-6.706-1.044-11.177-1.938-.15 0 .745-1.043.745-1.34 4.768-2.833 6.408-3.728 11.475-5.665 7.005-2.83 14.457-2.235 21.462-4.174 9.836.15 19.524 1.49 26.678 10.88 13.116-7.898 27.125-8.792 39.792-15.648 5.664-1.788 10.88-4.62 16.545-6.408.894 0 2.384-.597 3.428-.298-4.62 2.68-9.39 4.768-14.16 6.258zm-83.91 9.836c-1.937.596-4.322-.15-6.11 1.044-2.384-.3-4.62 1.042-6.557 1.788l-3.58 2.534c1.343.148 6.56.596 8.05.894 1.938 1.938 5.365 1.043 7.75 1.64 11.03-1.49 23.4.298 36.663-.298-1.937-2.385-3.874-2.98-4.918-4.024-2.086-2.087-7.9-4.322-11.773-5.962-6.707.894-13.86-.598-19.525 2.384zM1037.817 983.097c5.513-.446 9.686 1.79 14.754 2.98 1.045.895 2.09.895 2.09.746.295.148 2.234.596 3.873 1.49l.446.15c2.235 1.19 2.385 1.04 4.023 1.19 2.683 1.79 6.11 2.087 8.346 3.727 4.47 3.28 11.028 6.408 15.052 11.178 2.833 3.577 5.665 5.515 8.197 9.092.15.894.745 1.788.15 2.832-1.193 0-.448 1.042-2.236-1.64l-.3-.597c-1.638.447-2.98 1.192-4.023 1.49-2.533 0-6.407 0-9.09.298-1.64-.446-4.323.598-5.813 0-7.45.448-17.14.746-25.336.15-1.936.894-4.62.298-6.407.148-7.75-.446-14.756-2.83-21.76-2.086-4.77-.15-10.434 1.342-15.5-.596-3.58.446-9.242-.447-12.073-.298-.15 0-.298.298-.448.446-7.302-.894-16.692.298-23.697-.446-.745-.3-1.34-1.342-.298-1.49 14.31-1.192 32.342-1.342 47.395-.15 3.428-.297 8.644.448 12.22-.148.15.148.3.3.448.447 5.515 0 9.986 1.042 15.65 1.64.595-.448 1.19-.15 1.638.147 8.346.447 20.12-.745 28.168-.148 4.472-2.088 9.24 1.19 13.563-1.045.446-.744.446 1.49 3.427-.596-.895-.3-1.788-1.79-1.342-1.79-1.19-2.384-4.62-2.086-6.26-6.855-.894.895-.596-.447-1.34-.447 0 0-.746-.446-1.045-.596-.148-.15-.745-.3-.745-1.49-1.49 0-1.788-.447-2.235-.15-1.49-.595-1.49-2.682-3.28-2.682-.744-.298-1.786-.596-2.234-1.19-1.788-.45-2.532-2.237-4.173-2.535-2.385-1.64-5.962-1.342-7.898-2.683-1.64 0-1.79-1.342-3.727-1.49-5.217-2.832-12.072-2.832-17.587-4.024-8.046 0-15.35-1.64-23.547 0-2.683 0-5.066 1.043-7.452 1.49-1.34.895-2.98.596-4.32 1.34-11.03 3.43-22.208 7.9-31.746 15.5-3.875 1.94-5.813 5.963-9.836 7.9-.895.597-.298-.745 0-1.192 2.98-4.023 7.004-8.346 11.177-11.476 4.024-2.98 9.39-5.217 13.862-7.9 4.023-1.787 8.346-2.98 11.774-4.47 4.324-.3 5.217-2.98 9.69-2.534.893-.15 1.638-.745 3.278-.596.745-.596 1.34-.3 2.384-.745 1.342 0 2.833 0 4.47-.447 5.963-.298 13.415-1.192 19.675.15zM1034.24 904.255c5.812.448 11.774 1.79 18.033 2.534 7.602.894 15.5 1.787 22.654 5.364 3.726 3.726 8.346 5.664 11.326 10.582.447 2.683 2.385 2.235 1.49 5.515.148.448-.298 0-.298-.596-3.428.15-1.79-.745-4.32-4.173-3.877 1.193-6.708-.595-9.54.597-11.924-.745-22.207 0-33.832 1.193-2.832 1.34-6.408 1.34-9.688.894-2.087-.745-4.323.745-6.855.3-7.75-.448-16.395-.448-23.997.595-5.663-.3-11.177 0-16.99.595-2.236-.447-4.77-1.19-7.9-.298-.894 2.087-1.937 1.64-1.19 3.428-.3.3-.598.745-1.044 1.044-.448-.15-.897 0-1.343-.448.597-4.322 3.428-6.707 6.11-9.985 5.218-4.77 11.924-7.006 17.588-11.625 3.726-2.385 7.6-2.684 11.625-4.322 5.066-.745 10.73-.448 15.65-1.49 4.174 1.04 8.197.743 12.52.295zm-23.55 3.726c-5.81-.297-9.835 2.386-15.35 4.025-.3.298-1.64 1.64-2.384 2.086-4.173 2.982-9.092 4.323-13.563 10.285 5.366-.447 8.05 1.49 10.583.446 3.726.45 7.004-1.49 10.73-1.64 5.367 1.64 11.18.3 16.693 1.045 5.067.596 10.58-.597 15.796-.895 9.242-3.576 19.973-1.043 29.51-2.086 4.62 0 9.986-.745 17.29.15-2.832-5.963-7.9-7.007-11.327-8.944-8.794-2.385-17.588-3.875-26.68-4.77-1.788-.297-4.023.447-5.663-.596-8.197.45-18.035-2.38-25.636.897zM1083.273 886.52c.447.15.745.3 1.043.598-1.342 3.428-5.364 1.49-8.495 2.384-2.682.448-5.216 0-7.898.15-7.302.148-14.605-.15-21.61 0-3.727 0-8.645.298-12.52-.15-2.533-.298-5.662 0-8.196.15-6.11.595-11.923 0-18.332.446-.298-.298-.597-.298-.894-.298-2.684 1.34-5.665.15-8.197.596-6.112.298-11.924.895-17.885.895-4.173-1.788-8.496.896-12.817-.148-.596-.15.895-1.788 1.34-1.788 6.56-4.472 14.16 1.788 21.462-.3 8.646-2.384 18.334-1.49 26.828-1.936 8.496-.448 16.543.298 25.188 0 2.384-.3 4.77-.3 7.303-.3.598 0 1.343.15 1.938.15 6.56-.15 13.116-.15 18.93-1.044 4.47 1.193 8.195.448 12.815.597zM1084.02 857.16c-1.49 3.278-5.067 3.577-7.602 5.365-3.428 1.79-7.153 3.577-11.03 4.024-1.04.596-2.532.744-3.726.893-9.984 1.79-19.672 5.813-30.105 6.11-7.153 1.49-15.052.746-22.803.597-6.408 0-14.606-1.788-21.014-4.62-3.13-.744-6.558-1.938-8.794-3.875-3.28-.895-5.812-3.278-8.645-5.067-.594-1.043-1.34-2.086-1.34-3.13 0-.148-.15-.298-.15-.298 2.982.745 5.814 2.98 8.795 4.77 2.384 1.34 3.726 3.13 6.26 3.726 4.322.895 7.75 3.875 12.22 3.577 8.198 2.087 17.14 1.938 26.977 1.34-1.49-3.426 1.044-4.768-.148-6.853.148-.895.298-1.49.595-2.088.447-.446.745-.894 1.34-.446l.747.745c-.3.896.298 1.49.745 1.94-.447 1.937 0 3.874-.3 6.26 7.305.744 12.223-1.342 18.185-1.64 2.534-1.193 6.408-1.49 9.538-2.386 2.832-.894 6.26-.894 8.942-2.533 2.235.3 4.77-.447 6.56-2.683 3.873.15 6.854-2.683 11.325-3.576v-.745c.745-.297 2.236-1.937 4.024-1.34-.15.743-.3 1.338-.597 1.935zM1037.817 769.824c5.513-.447 9.686 1.788 14.754 2.98 1.045.895 2.09.895 2.09.745.295.148 2.234.595 3.873 1.49l.446.148c2.235 1.192 2.385 1.043 4.023 1.192 2.683 1.788 6.11 2.086 8.346 3.726 4.47 3.28 11.028 6.41 15.052 11.18 2.833 3.576 5.665 5.513 8.197 9.09.15.895.745 1.79.15 2.832-1.193 0-.448 1.043-2.236-1.64l-.3-.596c-1.638.446-2.98 1.192-4.023 1.49-2.533 0-6.407 0-9.09.298-1.64-.447-4.323.597-5.813 0-7.45.447-17.14.745-25.336.15-1.936.893-4.62.297-6.407.148-7.75-.447-14.756-2.832-21.76-2.087-4.77-.148-10.434 1.342-15.5-.595-3.58.446-9.242-.448-12.073-.298-.15 0-.298.298-.448.446-7.302-.894-16.692.298-23.697-.446-.745-.3-1.34-1.342-.298-1.49 14.31-1.193 32.342-1.342 47.395-.15 3.428-.297 8.644.447 12.22-.148.15.147.3.297.448.446 5.515 0 9.986 1.043 15.65 1.64.595-.448 1.19-.15 1.638.148 8.346.447 20.12-.745 28.168-.148 4.472-2.087 9.24 1.19 13.563-1.044.446-.745.446 1.49 3.427-.596-.895-.3-1.788-1.79-1.342-1.79-1.19-2.383-4.62-2.085-6.26-6.854-.894.895-.596-.447-1.34-.447 0 0-.746-.447-1.045-.596-.148-.15-.745-.3-.745-1.492-1.49 0-1.788-.446-2.235-.15-1.49-.595-1.49-2.682-3.28-2.682-.744-.298-1.786-.596-2.234-1.19-1.788-.45-2.532-2.236-4.173-2.535-2.385-1.64-5.962-1.34-7.898-2.682-1.64 0-1.79-1.342-3.727-1.49-5.217-2.832-12.072-2.832-17.587-4.024-8.046 0-15.35-1.64-23.547 0-2.683 0-5.066 1.044-7.452 1.49-1.34.895-2.98.597-4.32 1.34-11.03 3.43-22.208 7.9-31.746 15.502-3.875 1.938-5.813 5.962-9.836 7.898-.895.598-.298-.744 0-1.19 2.98-4.024 7.004-8.348 11.177-11.477 4.024-2.98 9.39-5.217 13.862-7.9 4.023-1.788 8.346-2.98 11.774-4.47 4.324-.3 5.217-2.98 9.69-2.534.893-.15 1.638-.746 3.278-.597.745-.596 1.34-.298 2.384-.745 1.342 0 2.833 0 4.47-.446 5.963-.297 13.415-1.19 19.675.15zM1083.273 751.045c.447.15.745.298 1.043.597-1.342 3.428-5.364 1.49-8.495 2.384-2.682.448-5.216 0-7.898.15-7.302.148-14.605-.15-21.61 0-3.727 0-8.645.298-12.52-.15-2.533-.298-5.662 0-8.196.15-6.11.595-11.923 0-18.332.447-.298-.298-.597-.298-.894-.298-2.684 1.34-5.665.15-8.197.596-6.112.3-11.924.896-17.885.896-4.173-1.79-8.496.895-12.817-.15-.596-.148.895-1.787 1.34-1.787 6.56-4.473 14.16 1.787 21.462-.3 8.646-2.385 18.334-1.49 26.828-1.937 8.496-.448 16.543.297 25.188 0 2.384-.298 4.77-.298 7.303-.298.598 0 1.343.15 1.938.15 6.56-.15 13.116-.15 18.93-1.045 4.47 1.192 8.195.447 12.815.595zM964.787 722.283c1.342.596 1.342 2.533 2.087 3.577-1.192 4.77 3.13 2.086 1.79 7.75 1.042 1.64 2.53 1.193 5.065 1.79 0-1.045.297-.896.297-.747 8.346-.15 23.996 2.683 32.342 0 3.874.447 8.345-1.193 13.115.746.745-5.516 1.49-3.28 1.042-7.006.596-1.043.596-2.533 1.938-2.683-.15.3-.15.448 0 .597.148 1.49 0-.596.595.15 1.044 4.47-.447 2.98-.298 8.94 14.755 0 29.51-2.533 42.775.15 4.77 0 8.793-2.087 13.414-1.938 2.832 1.49 6.26-1.492 9.39.446.15.596.596 1.192-.15 1.49-7.45.895-15.2 1.193-22.205 2.534-6.707-2.682-14.458-.15-21.61-.895-4.174 1.79-11.774-1.49-15.65 1.49-1.34.15-2.683-.595-3.875-.744-4.62-.893-9.836-.595-14.755-.745-6.855 2.832-22.207.895-29.807.895-4.918.895-9.688-.447-14.01-1.788-1.193-1.79-1.64-4.323-1.788-6.856-.298-4.024-.448-.745-1.044-4.024-.15.298-.596-.596-.446-.745.297-.596-.895-2.087-.45-2.533.896.297 1.195-.596 2.237.15zM965.83 690.54c-.147 1.787-.147 5.513-.745 7.897-.298 1.043.447 2.98-1.192 4.472.447 2.98 2.534 1.787 3.428 2.98 4.472 2.832 9.54-.597 14.458 1.788 8.494-.298 21.163 1.193 30.106.895.15 0 .745-.15 1.64-.15.745-1.19 1.64-2.085 1.49-3.427 1.042-1.64-.298-2.086.447-4.173.895-2.833 0-1.193 1.49-3.875.747-.596 1.492-1.193 2.385-1.044.597 1.49 0 2.832 0 4.62-1.937 4.025-.298 1.938-1.49 6.857l.895.895c4.173-.447 7.6-.746 11.326-.746l.745-.3c3.876.597 9.242.3 12.818.448 16.246.596 33.832 0 49.184 1.938 1.042.148.148 1.192-.448 1.34-7.45.597-15.946-1.043-23.696-.297-.148-.15-.598-.3-.746-.448-3.13-.298-8.792.447-12.668-.15-5.515 1.938-11.476 0-16.69 0-7.305-1.042-14.905 1.044-23.252 1.342-1.787 0-4.62.745-6.26-.298-8.94.15-19.226-.298-27.125-1.043-1.64.447-4.77-.745-6.26-.15-2.83-.446-6.855-.744-9.687-.893-1.193-.297-3.13-1.938-4.62-2.384-1.49-1.49.745-3.578.745-5.812-1.34-1.64.15-2.534.15-4.173.296-.446.296-1.19.446-1.64 1.193-1.936.448-5.066 2.535-6.705 1.34-.15.297 2.234.596 2.234zM1084.02 661.625c-1.49 3.28-5.067 3.578-7.602 5.366-3.428 1.79-7.153 3.578-11.03 4.025-1.04.596-2.532.745-3.726.894-9.984 1.788-19.672 5.812-30.105 6.11-7.153 1.49-15.052.745-22.803.596-6.408 0-14.606-1.788-21.014-4.62-3.13-.745-6.558-1.938-8.794-3.875-3.28-.894-5.812-3.278-8.645-5.066-.594-1.044-1.34-2.087-1.34-3.13 0-.15-.15-.298-.15-.298 2.982.745 5.814 2.98 8.795 4.77 2.384 1.34 3.726 3.13 6.26 3.726 4.322.895 7.75 3.875 12.22 3.577 8.198 2.085 17.14 1.937 26.977 1.34-1.49-3.428 1.044-4.77-.148-6.855.148-.895.298-1.49.595-2.087.447-.447.745-.894 1.34-.447l.747.746c-.3.894.298 1.49.745 1.938-.447 1.938 0 3.875-.3 6.26 7.305.746 12.223-1.34 18.185-1.64 2.534-1.19 6.408-1.49 9.538-2.384 2.832-.895 6.26-.895 8.942-2.533 2.235.297 4.77-.448 6.56-2.684 3.873.15 6.854-2.682 11.325-3.577v-.745c.745-.296 2.236-1.936 4.024-1.34-.15.743-.3 1.338-.597 1.935zM1068.966 628.39c-5.365 3.876-12.222 3.28-17.14 7.452-1.938.597-4.024 1.64-5.663 2.683-4.62-.15-9.39 2.832-15.65 5.664 4.025 1.64 7.006 1.19 9.092.595 8.794 0 16.544-1.49 25.783-.148 2.534 0 5.664-.746 7.9.298 4.32.15 9.39-1.043 13.114 1.044l.3.296c-3.13.895-7.155.596-10.284.448-2.683-.745-5.515.297-8.496.297-5.812.15-11.923-1.936-17.14.597-4.768.597-9.24-1.64-13.86 0-4.173 1.342-8.346-.745-12.22 1.192-7.155-1.193-16.395.148-24.145-1.193-8.794 0-17.735.597-26.38-.894-4.77-.15-6.706-1.044-11.177-1.938-.15 0 .745-1.042.745-1.34 4.768-2.833 6.408-3.727 11.475-5.665 7.005-2.832 14.457-2.235 21.462-4.173 9.836.15 19.524 1.49 26.678 10.88 13.116-7.9 27.125-8.793 39.792-15.65 5.664-1.788 10.88-4.62 16.545-6.407.894 0 2.384-.597 3.428-.3-4.62 2.683-9.39 4.77-14.16 6.26zm-83.91 9.837c-1.937.596-4.322-.15-6.11 1.044-2.384-.297-4.62 1.044-6.557 1.79l-3.58 2.533c1.343.15 6.56.596 8.05.894 1.938 1.938 5.365 1.043 7.75 1.64 11.03-1.49 23.4.298 36.663-.298-1.937-2.386-3.874-2.982-4.918-4.025-2.086-2.086-7.9-4.322-11.773-5.962-6.707.893-13.86-.597-19.525 2.384zM981.778 600.072c2.236.3 3.726 2.535 6.26 2.535 4.768 2.384 9.24 3.577 15.053 3.875.895.447 2.385.596 3.428.894 3.28.3 6.26 1.79 9.39 1.79 1.938.596 4.62-.448 6.41 1.937 2.384-.596 4.172-1.192 5.662-1.937.597-1.193 2.235-2.683 2.087-4.323 1.044-1.64.148-2.98.894-5.067.897-2.832.897-4.472 2.387-7.45.745-.598 1.49-1.194 2.384-1.045.598 1.49 0 3.28 0 5.068-1.936 3.875-1.638 5.962-2.98 11.03 1.193.745.746 1.34 1.193 1.64 3.726.595 7.75.148 10.88-.597 1.938.3 3.577-.446 6.558-.446.597-1.788 1.94-.447 2.832-.895 5.367-.448 10.137-3.43 15.65-3.726 2.385-2.088 6.408-1.79 8.793-3.578 2.83.298 4.32-3.428 7.9-2.533 1.788-1.34 3.426-2.98 5.662-2.98.597.446 1.192.893 1.79 1.49-.3 2.235-2.834 2.384-4.473 3.576-2.534.297-4.918.894-6.706 2.533-3.28-.15-5.218 2.683-8.347 2.534-1.192.745-2.385.894-3.278 1.49-1.192-.15-2.235.298-3.13.745-6.855 0-12.22 4.47-19.077 4.024-.895.596-2.533.596-3.428.745-7.303 2.534-15.798 2.087-23.25 1.938-3.428-.894-7.6 0-10.582-1.49-9.24-1.64-18.183-5.365-26.976-7.75-4.174-1.64-8.05-4.173-11.924-6.26-4.323-2.385-9.39-4.023-12.52-8.346 0-.298 0-.746.298-.894 6.707 4.32 13.712 8.195 21.164 11.474zM985.95 548.357c1.64 0 4.025-.15 5.813-.297 4.323-2.684 11.03 0 16.098.596 3.13-1.79 8.347-.745 11.626-1.044 4.77-1.19 11.028.3 16.543.3 9.687 0 20.865-.3 30.55-.747 1.49-.15 2.982-1.043 4.324-.447.148.15.298-.148.446-.148-3.428 2.236-7.6 2.384-11.028 3.875-4.918 4.322-10.582 6.558-15.797 9.837-6.26 2.832-12.67 4.918-18.332 9.24-1.79.895-3.43 1.938-5.217 2.832l-4.322 2.087 4.918.298c11.624.746 22.505-2.086 34.428-.447 4.77 0 9.24-1.937 13.86-1.043 1.192-.15 2.683 0 3.727 0-.148.3 0 .895-.148 1.044-1.193 0-2.237.3-3.28 1.044-1.192.597-2.683.597-4.024.895-4.023.446-8.048-.15-12.072.744-10.88.298-21.46-1.043-32.044.15-4.918-.896-9.836 1.638-14.605.297-3.13.747-7.154-.893-9.538.895-7.154-.745-14.16-1.937-21.61-1.937-1.64-.596-4.174 0-4.92-1.79-.15-.147.895-1.638.895-.893 8.05-2.087 14.904 2.683 24.146 1.64 4.77-.597 9.688 0 14.754-1.492 1.49-2.086 3.726-1.937 5.367-3.278 2.98-.447 5.96-1.192 7.897-3.28 7.6-3.725 15.35-5.066 21.46-10.58 1.79-.746 3.58-1.64 5.516-3.28 0-.447 4.32-2.384 4.32-2.83-.147-.3-4.618.744-4.618.148-5.812 0-11.18-1.044-15.798.596-8.346-2.087-16.99-2.237-25.934-.3-6.408-.744-12.965-1.638-19.226-.446-5.216-2.236-11.028 2.384-15.797-1.788-.447-1.342-2.833-.895-2.683-2.534 5.063-.896 9.386 1.936 14.304 2.085zM1067.177 504.987c1.343 3.13.447 7.154 1.044 9.688-.298 4.62.746 8.793 1.49 13.265-.148.895-.596 1.937-1.34 2.533-3.13-.745-6.41-.596-9.24-.894-2.833 1.042-6.112-.3-9.39-1.343-5.664.597-11.626-.447-16.843-.894-6.408.745-12.22-.448-18.48-1.043-5.663.895-11.178-.895-16.542-2.533-1.044-1.342-1.49-1.193-2.087-.15-8.346-.744-15.798-3.576-23.548-6.408-5.216-1.938-4.173-1.64-9.985-3.876-.745 2.385 0 4.323-.298 5.515-.298 1.64-.298 3.278 0 4.918-.298 3.13.15 7.004 1.34 10.135-.148.15-.148.297-.296.446-1.043-.15-1.64-1.342-2.086-2.386-.597-1.937 0-3.428-1.342-4.918-.296-2.385.15-4.47-.296-7.154 1.19-3.428-1.49-8.197 2.83-8.793 2.683 2.086 5.367 2.384 8.497 3.576 1.79.746 4.172 1.34 6.408 1.938 12.522 3.28 24.147 7.005 37.11 7.9 5.516-1.193 11.33 1.34 17.14.745 6.41 0 12.52.446 19.524 1.788 2.534.447 5.217-.15 8.496 1.34 3.13-3.725 8.346 1.64 7.898-4.917-.894-4.47-1.19-9.687-1.19-14.01.147-1.638-.448-3.725.594-4.768.148-.003.297.146.595.295z"/></g><path d="M2048 0M2048 1536M0 1536M0 0" fill="none" stroke="#17192D" stroke-width="3"/></g></svg>