<svg xmlns="http://www.w3.org/2000/svg" width="2048" height="1536" viewBox="0 0 2048 1536"><g fill="none" stroke="#17192D" stroke-width="3"><path d="M828.675 689.822c4.53.27 15.24.818 19.766.36l459.17 2.905 53.724-224.072-509.96-28.005c-1.838 0-3.545.09-5.382.09l-17.317 248.722zM878.292 474.285l436.723 21.95M863.27 668.385l418.24 4.623M874.25 478.332L859.803 663.76M1287.288 668.385l33.504-167.526M1350.833 474.285l-28.884 19.64M1286.13 673.008l13.984 12.586M836.7 682.248l19.64-13.863M874.25 470.242l-20.224-22.53M2048 0M2048 1536M0 1536M0 0"/></g></svg>