<?xml version="1.0" encoding="iso-8859-1"?>
<!-- Generator: Adobe Illustrator 15.1.0, SVG Export Plug-In . SVG Version: 6.00 Build 0)  -->
<!DOCTYPE svg PUBLIC "-//W3C//DTD SVG 1.1//EN" "http://www.w3.org/Graphics/SVG/1.1/DTD/svg11.dtd">
<svg version="1.1" xmlns="http://www.w3.org/2000/svg" xmlns:xlink="http://www.w3.org/1999/xlink" x="0px" y="0px" width="2048px"
	 height="1536px" viewBox="0 0 2048 1536" style="enable-background:new 0 0 2048 1536;" xml:space="preserve">
<g id="d1a_x5F_1">
	<g>
		<path style="fill:none;stroke:#17192D;stroke-width:3;" d="M441.964,848.25c11.506,0.693,38.727,2.078,50.232,0.92l1167.039,7.377
			l136.548-569.51l-1296.124-71.18c-4.666,0-9.02,0.232-13.684,0.232L441.964,848.25z"/>
		<line style="fill:none;stroke:#17192D;stroke-width:3;" x1="568.075" y1="300.434" x2="1678.06" y2="356.223"/>
		<line style="fill:none;stroke:#17192D;stroke-width:3;" x1="529.899" y1="793.76" x2="1592.903" y2="805.512"/>
		<line style="fill:none;stroke:#17192D;stroke-width:3;" x1="557.794" y1="310.713" x2="521.089" y2="782.012"/>
		<line style="fill:none;stroke:#17192D;stroke-width:3;" x1="1607.583" y1="793.76" x2="1692.74" y2="367.971"/>
		<line style="fill:none;stroke:#17192D;stroke-width:3;" x1="1769.091" y1="300.434" x2="1695.677" y2="350.352"/>
		<line style="fill:none;stroke:#17192D;stroke-width:3;" x1="1604.646" y1="805.512" x2="1640.188" y2="837.5"/>
		<line style="fill:none;stroke:#17192D;stroke-width:3;" x1="462.362" y1="828.996" x2="512.28" y2="793.76"/>
		<line style="fill:none;stroke:#17192D;stroke-width:3;" x1="557.794" y1="290.152" x2="506.409" y2="232.891"/>
	</g>
	<path style="fill:none;stroke:#17192D;stroke-width:3;" d="M2048,0"/>
	<path style="fill:none;stroke:#17192D;stroke-width:3;" d="M2048,1536"/>
	<path style="fill:none;stroke:#17192D;stroke-width:3;" d="M0,1536"/>
	<path style="fill:none;stroke:#17192D;stroke-width:3;" d="M0,0"/>
</g>
<g id="Layer_1">
</g>
</svg>
