<svg xmlns="http://www.w3.org/2000/svg" width="2048" height="1536" viewBox="0 0 2048 1536"><g fill="none" stroke="#17192D" stroke-width="3"><path d="M441.964 848.25c11.506.693 38.727 2.078 50.232.92l1167.04 7.377 136.547-569.51-1296.124-71.18c-4.667 0-9.02.232-13.685.232l-44.01 632.16zM568.075 300.434l1109.985 55.79M529.9 793.76l1063.003 11.752M557.794 310.713l-36.705 471.3M1607.583 793.76l85.157-425.79M1769.09 300.434l-73.413 49.918M1604.646 805.512l35.542 31.988M462.362 828.996l49.918-35.236M557.794 290.152l-51.385-57.26M2048 0M2048 1536M0 1536M0 0"/></g></svg>