<svg xmlns="http://www.w3.org/2000/svg" width="2048" height="1536" viewBox="0 0 2048 1536"><g fill="none" stroke="#17192D" stroke-width="3"><path d="M939.704 904.19c2.508-.15 8.443-.452 10.95-.198l254.355-1.613 29.757 124.128-282.486 15.516c-1.013 0-1.964-.057-2.98-.057l-9.596-137.776zM967.19 1023.586l241.922-12.16M958.87 916.062l231.682-2.558M964.954 1021.346l-8.002-102.723M1193.753 916.062l18.56 92.805M1228.956 1023.586l-16.002-10.883M1193.117 913.504l7.745-6.97M944.15 908.385l10.88 7.677M964.954 1025.828l-11.197 12.48M2048 0M2048 1536M0 1536M0 0"/></g></svg>