<?xml version="1.0" encoding="iso-8859-1"?>
<!-- Generator: Adobe Illustrator 15.1.0, SVG Export Plug-In . SVG Version: 6.00 Build 0)  -->
<!DOCTYPE svg PUBLIC "-//W3C//DTD SVG 1.1//EN" "http://www.w3.org/Graphics/SVG/1.1/DTD/svg11.dtd">
<svg version="1.1" xmlns="http://www.w3.org/2000/svg" xmlns:xlink="http://www.w3.org/1999/xlink" x="0px" y="0px" width="2048px"
	 height="1536px" viewBox="0 0 2048 1536" style="enable-background:new 0 0 2048 1536;" xml:space="preserve">
<g id="d1a_x5F_2">
	<g>
		<path style="fill:none;stroke:#17192D;stroke-width:3;" d="M663.021,790.641c7.412-0.443,24.949-1.338,32.363-0.59l751.896-4.752
			l87.975,366.924l-835.061,45.857c-3.008,0-5.816-0.15-8.814-0.15L663.021,790.641z"/>
		<line style="fill:none;stroke:#17192D;stroke-width:3;" x1="744.271" y1="1143.588" x2="1459.408" y2="1107.646"/>
		<line style="fill:none;stroke:#17192D;stroke-width:3;" x1="719.675" y1="825.75" x2="1404.546" y2="818.178"/>
		<line style="fill:none;stroke:#17192D;stroke-width:3;" x1="737.647" y1="1136.965" x2="713.997" y2="833.32"/>
		<line style="fill:none;stroke:#17192D;stroke-width:3;" x1="1414.005" y1="825.75" x2="1468.867" y2="1100.076"/>
		<line style="fill:none;stroke:#17192D;stroke-width:3;" x1="1518.058" y1="1143.588" x2="1470.759" y2="1111.432"/>
		<line style="fill:none;stroke:#17192D;stroke-width:3;" x1="1412.108" y1="818.178" x2="1435.013" y2="797.57"/>
		<line style="fill:none;stroke:#17192D;stroke-width:3;" x1="676.161" y1="803.047" x2="708.323" y2="825.75"/>
		<line style="fill:none;stroke:#17192D;stroke-width:3;" x1="737.647" y1="1150.213" x2="704.542" y2="1187.102"/>
	</g>
	<path style="fill:none;stroke:#17192D;stroke-width:3;" d="M2048,0"/>
	<path style="fill:none;stroke:#17192D;stroke-width:3;" d="M2048,1536"/>
	<path style="fill:none;stroke:#17192D;stroke-width:3;" d="M0,1536"/>
	<path style="fill:none;stroke:#17192D;stroke-width:3;" d="M0,0"/>
</g>
<g id="Layer_1">
</g>
</svg>
