<svg xmlns="http://www.w3.org/2000/svg" width="2048" height="1536" viewBox="0 0 2048 1536"><g fill="none" stroke="#17192D" stroke-width="3"><path d="M663.02 790.64c7.413-.442 24.95-1.337 32.364-.59l751.896-4.75 87.975 366.923-835.06 45.857c-3.01 0-5.817-.15-8.815-.15l-28.36-407.29zM744.27 1143.588l715.138-35.942M719.675 825.75l684.87-7.572M737.647 1136.965l-23.65-303.645M1414.005 825.75l54.862 274.326M1518.058 1143.588l-47.3-32.156M1412.108 818.178l22.905-20.608M676.16 803.047l32.163 22.703M737.647 1150.213l-33.105 36.89M2048 0M2048 1536M0 1536M0 0"/></g></svg>