<?xml version="1.0" encoding="iso-8859-1"?>
<!-- Generator: Adobe Illustrator 15.1.0, SVG Export Plug-In . SVG Version: 6.00 Build 0)  -->
<!DOCTYPE svg PUBLIC "-//W3C//DTD SVG 1.1//EN" "http://www.w3.org/Graphics/SVG/1.1/DTD/svg11.dtd">
<svg version="1.1" xmlns="http://www.w3.org/2000/svg" xmlns:xlink="http://www.w3.org/1999/xlink" x="0px" y="0px" width="2048px"
	 height="1536px" viewBox="0 0 2048 1536" style="enable-background:new 0 0 2048 1536;" xml:space="preserve">
<g id="d1b_x5F_4">
	<g>
		<path style="fill:none;stroke:#FF0050;stroke-width:3;" d="M921.269,617.537c-0.082,0.451-0.955,1.205-1.526,1.367
			c0.171-1.307-0.358-2.744-0.354-4.039c-1.221,0.021-2.314,0.848-3.453,1.115c0.076-1.127,0.123-2.436,0.398-3.527
			c-0.846-0.039-5.08,0.566-5.131-0.426c-0.008-0.242,0.537-0.801,0.676-1.041c0.219-0.371,0.416-0.766,0.594-1.133
			c0.301-0.602,0.805-1.127,1.088-1.676c-1.498,0.012-1.651-1.244-1.664-2.113c-0.264-0.008-0.582,0.031-0.836-0.018
			c-0.334-0.068-0.426-0.283-0.816-0.236c0.4,0.955,1.17,2.496,0.287,3.488c-0.223,0.25-0.43,0.357-0.855,0.361
			c-0.662,0.006-0.533-0.094-0.701-0.486c-0.223-0.516-0.666-1.113-0.623-1.668c-1.924-0.1-2.457,2.391-4.215,2.25
			c-0.232-0.662,0.008-1.326,0.352-1.949c0.189-0.344,0.469-0.648,0.801-0.924c0.125-0.1,0.663-0.379,0.705-0.479
			c0.094-0.236-0.268-0.551-0.391-0.77c-0.242-0.422-0.393-0.895-0.439-1.355c-0.046-0.469-0.1-1.131,0.125-1.564
			c0.232-0.457,0.87-0.998,1.338-1.334c0.18-0.121,0.387-0.189,0.551-0.314c0.377-0.283,0.258-0.254,0.416-0.594
			c0.365-0.783,1.287-1.062,2.432-1.054c1.418,0.009,7.213,3.29,7.285,0.567c0.027-0.977-0.928-1.736-2.094-2.072
			c-0.973-0.271-2.916-0.322-3.734,0.219c-0.59,0.383-0.576,0.666-1.371,0.887c-0.848,0.24-1.523,0.408-2.449,0.352
			c-1.307-0.09-2.572-0.555-3.535-1.188c-0.416-0.273-0.799-0.803-1.338-0.635c-0.344,0.111-0.77,0.652-1.087,0.838
			c-0.724,0.422-3.476,1.227-3.976,0.207c-0.244-0.49,0.43-0.951,0.568-1.441c-1.427-0.457-3.023-1.373-3.602-2.414
			c0.822-0.059,3.119-0.852,3.316-1.488c-0.967-0.047-1.814-0.158-2.691-0.512c-0.77-0.301-2.074-1.096-2.426-1.646
			c0.517,0.008,1.164,0.133,1.646-0.021c-0.623-1.11-1.299-2.432-1.162-3.639c1.635,0.588,3.48,1.027,5.34,0.713
			c0.799-0.133,1.393-0.516,1.818-1.027c0.182-0.225,0.461-0.508,0.469-0.77c0.014-0.264-0.258-0.475-0.215-0.766
			c-0.941-0.324-2.426-1.166-2.834-1.898c-0.479,0.744-0.336,1.438-1.6,1.828c-0.926,0.285-1.785-0.037-2.518-0.441
			c-0.443-0.246-0.83-0.633-1.307-0.836c-0.404-0.176-0.693-0.064-1.176-0.15c-0.846-0.158-1.475-0.826-2.061-1.238
			c-0.627,0.816-1.982,0.219-2.598-0.254c0.715-0.83,1.957-1.234,2.736-1.949c0.365-0.334,0.666-0.516,1.227-0.68
			c0.477-0.137,1.182-0.072,1.583-0.275c0.421-0.201,0.729-0.637,1.194-0.873c0.426-0.211,0.926-0.498,1.391-0.641
			c1.096-0.34,2.555-0.018,3.277,0.654c0.193,0.186,0.357,0.408,0.482,0.605c0.545-0.576,0.855-1.299,1.418-1.85
			c0.371-0.355,0.943-0.588,1.342-0.928c-1.186-0.178-2.658-1.17-2.502-2.199c-1.506,0.199-2.543,1.502-3.941,1.746
			c-0.094-1.17,0.328-2.326,1.438-3.195c-1.041-0.395-1.881-0.988-2.83-1.449c0.33-0.322,0.684-0.715,1.066-1.027
			c0.24-0.195,1.084-0.404,1.209-0.564c0.125-0.172-0.551-1.016-0.697-1.291c-0.254-0.473-0.472-0.977-0.662-1.471
			c1.127-0.043,2.615-0.219,3.721-0.018c0.605-0.877-0.305-1.105-0.891-1.686c-0.34-0.34-0.469-0.727-0.816-1.076
			c1.307-0.098,2.201-0.273,3.385,0.143c0.809,0.289,1.708,0.59,2.494,0.916c0.668-0.451,0.951-1.027,1.807-1.338
			c0.611-0.223,1.523-0.551,2.211-0.508c0.16-0.537,0.414-1.045,0.719-1.535c0.375-0.605,0.978-0.934,1.502-1.428
			c-0.457-0.4-0.973-0.641-1.24-1.145c-0.34-0.619-0.373-0.705-1.116-1.178c-0.737-0.465-1.503-1.08-1.782-1.811
			c-0.305-0.805,0.018-1.721-0.24-2.521c-0.121-0.375-0.41-0.676-0.654-1.027c-0.371-0.525-0.633-1.162-1.076-1.648
			c1.471-0.469,3.299,1.157,4.439,1.584c-0.025-0.848,0.305-2.207,0.865-2.965c0.064-0.094,0.469-0.627,0.619-0.666
			c0.391-0.104,1.01,0.357,1.291,0.605c1.342,1.201-0.064,2.582,0.09,3.855c1.32,0.055,1.861,0.094,2.83-0.551
			c-0.057-0.668-0.172-1.32-0.268-1.963c-0.047-0.361-0.032-0.863-0.275-1.178c0.611-0.035,1.27,0.051,1.877,0
			c0.562-0.051,0.598-0.029,0.984-0.465c-1.002-0.83-1.652-2.107-2.469-3.041c-0.611-0.705-0.529-1.428-0.666-2.211
			c0.889,0.375,2.42,0.779,3.457,0.645c0.16-1.049-0.111-2.115,0.154-3.164c1.137-0.16,2.217,0.799,3.24,0.91
			c0.094-0.76-0.297-1.539-0.133-2.312c0.098-0.436,0.391-0.775,0.365-1.227c0.709,0.576,1.578,1.066,2.434,1.539
			c0.561,0.318,1.417,1.145,2.203,1.033"/>
		<path style="fill:none;stroke:#FF0050;stroke-width:3;" d="M920.437,544.502c1.105-0.029,1.996,2.043,2.633,2.418"/>
		<path style="fill:none;stroke:#FF0050;stroke-width:3;" d="M916.614,546.867c0.602,0.572,1.041,1.148,1.814,1.705
			c0.375,0.266,0.805,0.512,1.238,0.727c0.451,0.219,1.041,0.348,1.463,0.605"/>
		<path style="fill:none;stroke:#FF0050;stroke-width:3;" d="M917.38,551.553c0.885,0.73,2.377,0.547,3.396,1.037
			c0.564,0.27,0.982,0.82,1.223,1.264c0.262,0.494,0.762,1.334,0.715,1.857c-1.395,0.375-2.363-0.705-3.248-1.328
			c-0.572-0.408-1.141-0.795-1.666-1.234c-0.395-0.336-0.812-1.223-1.389-1.342"/>
		<path style="fill:none;stroke:#FF0050;stroke-width:3;" d="M909.886,560.662c0.748,0.578,1.506,0.701,2.031,1.438
			c0.534,0.762,1.453,1.156,2.551,0.859c1.041-0.275,1.518-0.855,2.355-1.32c0.68-0.373,1.838-0.344,2.357-0.709
			c-0.988-0.396-1.449-1.184-2.361-1.609c-0.859-0.404-1.264-0.043-1.99,0.365c-1.119,0.621-2.961,1.197-4.109,0.307"/>
		<path style="fill:none;stroke:#FF0050;stroke-width:3;" d="M908.708,556.748c0.377,0.182,0.834,0.393,1.316,0.479
			c0.928,0.158,1.242-0.193,2.012-0.525"/>
		<path style="fill:none;stroke:#FF0050;stroke-width:3;" d="M909.749,602.611c0.452-0.104,1.148-0.182,1.646-0.104
			c0.744,0.111,1.056,0.641,1.613,1.031"/>
		<path style="fill:none;stroke:#FF0050;stroke-width:3;" d="M916.897,608.938c0.562,0.07,1.625-0.373,2.289-0.463
			c0.662-0.088,1.26-0.104,1.887-0.254c1.076-0.26,1.335-0.955,1.648-1.752c-2.387-0.8-4.289,0.439-5.688,1.752"/>
		<path style="fill:none;stroke:#FF0050;stroke-width:3;" d="M919.667,611.721c0.818-0.086,1.291-0.805,2.014-1.031"/>
		<path style="fill:none;stroke:#FF0050;stroke-width:3;" d="M921.617,614.186c0.476-0.205,0.769-0.74,1.315-0.971"/>
		<path style="fill:none;stroke:#FF0050;stroke-width:3;" d="M922.028,597.203c-1.088-0.115-1.932-0.119-2.82-0.652
			c0.812-0.314,1.488-0.865,2.334-1.184c0.879-0.336,1.76-0.637,2.594-1.027c1.215-0.578,2.199-1.613,3.098-2.449
			c0.232-0.209,0.443-0.57,0.715-0.748c0.438-0.283,0.309-0.297,1.006-0.021c0.766,0.297,1.48,0.633,2.236,0.922
			c1.299,0.494,2.135,1.096,2.762,2.021c0.074-1.24,0.568-2.418,0.568-3.652c0-1.088-0.422-2.082-1.037-3.062
			c-0.645-1.029-2.043-1.785-3.127-2.533c-0.498-0.35-0.98-0.732-1.405-1.158c-0.19-0.193-0.642-0.82-0.745-0.762"/>
		<path style="fill:none;stroke:#FF0050;stroke-width:3;" d="M930.009,578.523c0.395-0.4,1.096-0.693,1.539-1.102
			c0.633-0.564,1.066-1.244,1.52-1.893c0.648-0.912,0.959-1.795,1.314-2.787c0.401-1.094,0.654-2.453,1.381-3.424
			c-0.902-0.049-1.811,0.033-2.627,0.197c-0.568,0.107-0.98,0.154-1.463,0.361c-0.348,0.15-0.697,0.34-1.037,0.512
			c-1.074,0.533-2.176,1.209-3.045,1.863c-1.814-0.793-2.322-2.869-2.719-4.229c-0.244-0.836-0.676-1.721-1.213-2.5
			c-0.326-0.477-0.666-0.881-1.088-1.312c-0.35-0.348-0.986-0.605-1.23-0.967c0.838-0.035,1.535-0.133,2.354-0.01"/>
		<path style="fill:none;stroke:#FF0050;stroke-width:3;" d="M934.313,562.926c-0.395-0.516-3.414,1.9-4.219,1.9
			c-0.096-0.48-0.607-0.848-0.711-1.332c-0.068-0.328-0.129-0.707-0.141-1.025c-1.342-0.115-2.814-0.787-2.779-1.904
			c-1.135-0.004-2.047-1.287-2.676-1.842c0.805-0.611,1.459-1.023,1.939-1.807c0.297-0.486,0.668-0.865,1.23-1.182
			c1.209-0.693,2.723-0.822,4.164-1.098"/>
		<path style="fill:none;stroke:#FF0050;stroke-width:3;" d="M928.624,559.17c1.156,0.086,2.248-1.501,2.898-2.051
			c-0.908-0.043-1.395-0.215-2.064,0.197c-0.425,0.262-1.088,0.74-1.18,1.131"/>
		<path style="fill:none;stroke:#FF0050;stroke-width:3;" d="M928.624,551.553c1.479-0.512,2.955-1.08,3.277-2.365
			c-0.021,0.365-1.348,0.021-1.746,0.047c-0.793,0.043-1.949,0.705-2.088,1.285"/>
		<path style="fill:none;stroke:#FF0050;stroke-width:3;" d="M927.308,600.912c-0.096,0-0.182,0-0.271,0
			c0.047,0.863,1.797,0.576,2.473,0.77c-0.762-0.541-1.109-1.045-1.521-1.75c-0.229-0.383-0.723-1.201-1.445-0.926"/>
		<path style="fill:none;stroke:#FF0050;stroke-width:3;" d="M926.614,608.68c0.434-0.094,2.172,0.791,2.689,1.016
			c0.064-0.744-0.281-2.25-1.512-2.404"/>
		<path style="fill:none;stroke:#FF0050;stroke-width:3;" d="M924.185,616.814c0.971,0.361,2.232,1.01,2.912,1.742
			c0.379,0.422,0.512,1.23,1.045,1.506c0.525-0.293,0.93-0.711,1.432-1.033c0.744-0.477,1.219-0.715,1.412-1.453
			c0.283-1.102-0.672-1.881-1.391-2.758c0.809-0.1,1.262,0.508,1.881,0.709c0.494-0.67,0.512-1.406,0.545-2.15
			c0.031-0.499-0.086-0.455,0.508-0.576c0.332-0.068,0.684-0.021,1.023-0.104c1.971-0.451-0.455-2.443-0.695-3.242"/>
		<path style="fill:none;stroke:#FF0050;stroke-width:3;" d="M932.792,552.064c-0.057-0.207,0.291-0.426,0.512-0.615
			c0.49-0.422,0.912-0.861,1.199-1.389c0.332-0.586,0.551-1.201,0.727-1.812c0.074-0.215,0.156-0.594,0.279-0.658
			c-0.666-0.025-0.959,0.121-1.539-0.158c-0.439-0.211-0.865-0.572-1.123-0.904c0.883-0.605,0.727-1.479,1.174-2.176
			c-0.129,0.225-0.924,0.375-1.307,0.203c-0.289-0.121-0.684-0.736-0.916-0.934c-0.354-0.297-0.623-0.443-0.744-0.822
			c-0.186-0.594,0.107-1.363,0.197-1.939c-0.352-0.065-0.623-0.242-0.973-0.271c0.303-0.258,0.707-0.555,0.83-1.045
			c0.117-0.443,0.175-0.916,0.221-1.363c0.076-0.732-0.568-0.922-1.002-1.523c-0.172-0.244-0.289-1.209-0.658-1.059
			c0.559-0.168,0.787-1.213,1.02-1.65c0.275-0.518,0.799-0.918,1.131-1.42c0.465-0.723,1.285-2.215,2.322-2.533
			c-0.822,0.098-1.6-0.947-1.639-1.494c-0.902-0.033-1.595,0.01-2.396-0.361c-0.537-0.258-1.488-0.537-1.9-0.91
			c-0.311,0.756-0.176,1.596-0.275,2.398c-0.078,0.594-0.164,1.17-0.279,1.764c-0.129,0.668,0.043,1.355-0.43,1.996
			c-0.809,1.084-1.674,1.639-1.877,2.916c-0.146,0.947,1.352,1.748,1.17,2.633c-0.408,0.129-1.035,0.121-1.402,0.336
			c-0.734,0.443-0.377,1.557-0.791,2.143"/>
		<path style="fill:none;stroke:#FF0050;stroke-width:3;" d="M923.349,619.391c-0.025-0.09-0.098-0.111-0.051-0.201
			c0.236,0.738,0.58,1.574,0.396,2.426c-0.143,0.691-0.533,0.928,0.021,1.596c0.205,0.249,0.459,0.605,0.812,0.762
			c0.25,0.111,0.559,0.037,0.744,0.215c0.197,0.18,0.201,0.666,0.301,0.916c0.143,0.365,0.25,0.697,0.279,1.074
			c0.723-0.361,2.113-0.469,2.969-0.516c0.076-1.066-0.09-2.15,0.012-3.227c0.039-0.387-0.072-0.916,0.221-1.238
			c0.211-0.232,0.623-0.215,0.609-0.525"/>
		<path style="fill:none;stroke:#FF0050;stroke-width:3;" d="M931.397,607.141c0.516-0.207,1.041,0.59,1.324,0.855
			c-0.141-1.389,0.035-2.697-0.334-4.086c-0.146-0.555-0.275-1.062-0.504-1.613c-0.129-0.311-0.461-0.719-0.479-1.033
			c1.656-0.24,0.611-1.99,0.693-2.816c0.525-0.004,1.273,0.232,1.854,0.287c0.447,0.053,0.891,0.086,1.326,0.164
			c0.059-0.74-0.146-1.402-0.203-2.104"/>
		<path style="fill:none;stroke:#FF0050;stroke-width:3;" d="M932.228,583.258c0.15-0.201,1.385,0.064,1.811,0.053
			c0.663-0.021,0.883-0.1,1.398-0.414c1.045-0.645,1.765-1.402,2.676-2.098c-1.148-0.426-1.652-1.562-2.758-2.035
			c-0.777-0.326-2.043-0.24-2.916-0.24"/>
		<path style="fill:none;stroke:#FF0050;stroke-width:3;" d="M933.617,577.391c0.503-0.48,1.562-0.941,1.53-1.646"/>
		<path style="fill:none;stroke:#FF0050;stroke-width:3;" d="M932.856,584.438c0.906,0.119,2.383,1.428,2.709,2.061"/>
		<path style="fill:none;stroke:#FF0050;stroke-width:3;" d="M924.951,584.648c-0.026-0.156-0.552,0.297-0.716,0.473
			c-0.266,0.279-0.439,0.602-0.633,0.898c-0.594,0.947-1.01,1.91-1.768,2.797c-0.545,0.648-1.066,0.795-2.093,0.82
			c-0.505,0.014-3.339-0.086-3.192-0.77"/>
		<path style="fill:none;stroke:#FF0050;stroke-width:3;" d="M920.644,584.234c0.117-0.029,0.268-0.098,0.34-0.141
			c-2.666-0.178-4.219,1.664-5.252,3.191c-0.662,0.98-1.879,3.42-3.764,3.23"/>
		<path style="fill:none;stroke:#FF0050;stroke-width:3;" d="M920.923,576.674c0.064,0.416-1.479,0.129-1.814-0.018
			c-0.752-0.318-1.123-1.041-1.588-1.545c-1.324-1.432-2.352-3.303-4.58-4.104"/>
		<path style="fill:none;stroke:#FF0050;stroke-width:3;" d="M917.099,571.83c1.166,0.064,2.332-0.504,3.402-0.006
			c0.814,0.385,1.241,1.119,1.684,1.705c0.49,0.648,0.537,1.277,0.799,1.982c0.121,0.322,0.246,0.533,0.586,0.705
			c0.258,0.129,0.68,0.15,0.959,0.254c0.434,0.16,0.809,0.408,1.252,0.559"/>
		<path style="fill:none;stroke:#FF0050;stroke-width:3;" d="M923.419,578.621c1.045-0.33,2.512,0.43,3.334,0.822"/>
		<path style="fill:none;stroke:#FF0050;stroke-width:3;" d="M923.144,582.381c0.361-0.125,0.756,0.061,1.127,0.096
			c0.701,0.068,1.307-0.125,1.99-0.199"/>
		<path style="fill:none;stroke:#FF0050;stroke-width:3;" d="M914.88,584.084c0.1-0.098,0.207-0.086,0.232-0.207
			c0.014,0.775-0.607,1.424-1.135,2.066c-0.676,0.824-1.248,1.844-2.057,2.58c-0.426,0.379-1.023,0.83-1.562,1.113
			c-0.605,0.318-1.418,0.34-2.068,0.521c-0.816,0.229-1.227,0.93-2.293,0.93c-0.223-0.01-0.244-0.186-0.48-0.169
			c-0.152,0.019-0.557,0.298-0.711,0.366c-0.469,0.215-1.074,0.43-1.643,0.357c-0.061-0.512,0.18-1.631,0.547-2.053"/>
		<path style="fill:none;stroke:#FF0050;stroke-width:3;" d="M903.292,572.547c-0.096-0.184,0.229-0.648,0.211-0.971
			c-0.018-0.393-0.193-0.758-0.225-1.145c0.951,0.211,1.781,0.58,2.512,1.092c0.152,0.1,0.479,0.475,0.643,0.518
			c0.416,0.094,0.219-0.107,0.537-0.211c0.658-0.211,0.963,0.039,1.527,0.459c0.219,0.16,0.383,0.375,0.609,0.518
			c0.293,0.189,0.529,0.223,0.927,0.369c2.503,0.955,4.171,3.238,4.714,5.141"/>
		<path style="fill:none;stroke:#FF0050;stroke-width:3;" d="M915.087,582.438c0.344-0.822,0.27-1.48,0.348-2.318"/>
		<path style="fill:none;stroke:#FF0050;stroke-width:3;" d="M906.626,589.018c0.465-0.426,0.627-1.604,0.762-2.154
			c0.193-0.801,0.523-1.584,0.691-2.383c0.311-1.449,0.193-2.947,0.279-4.414c0.068-1.174,0.289-2.555-0.068-3.707
			c-0.189-0.625-0.576-1.777-1.178-2.211"/>
		<path style="fill:none;stroke:#FF0050;stroke-width:3;" d="M905.099,586.859c1.195-2.354,1.732-4.797,1.732-7.312
			c0-1.059-0.111-2.006-0.412-3.029c-0.258-0.881-0.898-1.664-0.902-2.58"/>
		<path style="fill:none;stroke:#FF0050;stroke-width:3;" d="M902.948,584.699c0-2.572-0.475-5.174,0.971-7.566"/>
		<path style="fill:none;stroke:#FF0050;stroke-width:3;" d="M900.862,573.58c0.068,0.408,0.998,0.336,0.975,0.77"/>
		<path style="fill:none;stroke:#FF0050;stroke-width:3;" d="M899.962,571.576c0.053,0.061,0.121,0.115,0.199,0.162
			c-0.475,0-0.736-0.287-1.24-0.215"/>
		<path style="fill:none;stroke:#FF0050;stroke-width:3;" d="M900.312,569.205c-0.203-0.115-0.383-0.266-0.561-0.361"/>
		<path style="fill:none;stroke:#FF0050;stroke-width:3;" d="M897.743,589.844c0.043,0.104,0.189,0.168,0.215,0.297
			c0.434-0.061,1.002-0.111,1.45-0.09"/>
		<path style="fill:none;stroke:#FF0050;stroke-width:3;" d="M900.655,595.299c0.762-0.082,1.471-0.539,1.732-1.076"/>
		<path style="fill:none;stroke:#FF0050;stroke-width:3;" d="M898.509,581.662c-0.258,0.018-0.139-0.34-0.154-0.562
			c-0.064-0.01-0.129,0-0.195-0.004"/>
		<path style="fill:none;stroke:#FF0050;stroke-width:3;" d="M892.048,583.053c0.072,0.008,0.129,0.033,0.194,0.043
			c0.21-0.143,0.433-0.311,0.64-0.457"/>
		<path style="fill:none;stroke:#FF0050;stroke-width:3;" d="M892.47,580.32c0.348,0.203,0.984,0.379,1.037,0.775"/>
		<path style="fill:none;stroke:#FF0050;stroke-width:3;" d="M906.276,595.51c1.055-0.092,1.66-1.484,3.055-1.498
			c0.629-0.004,1.131,0.061,1.729,0.16c0.221,0.033,0.486,0.107,0.697,0.098c0.564-0.029,0.783-0.33,1.324-0.463"/>
		<path style="fill:none;stroke:#FF0050;stroke-width:3;" d="M915.298,592.266c0.777-0.186,1.199-0.779,2.082-0.877"/>
		<path style="fill:none;stroke:#FF0050;stroke-width:3;" d="M905.86,565.967c0.842,0.418,1.857,0.447,2.73,0.873
			c0.555,0.271,1.721,1.148,2.336,0.408"/>
		<path style="fill:none;stroke:#FF0050;stroke-width:3;" d="M913.771,565.445c0.752,0.367,1.531,0.664,2.431,0.83
			c1.222,0.229,2.06,0.801,2.985,1.488"/>
		<path style="fill:none;stroke:#FF0050;stroke-width:3;" d="M922.034,619.025c0.068,1.08-0.486,2.215-0.486,3.295
			c0,1.234,0.137,2.572,0.348,3.807c0.412,2.783,1.939,5.713,3.811,8.186c3.684,5.045,10.482,9.004,17.77,10.965
			c2.711,0.723,5.348,1.285,8.191,1.385c2.566,0.158,5.689,0.465,8.258,0.211l260.449,1.643l30.473-127.096l-289.252-15.885
			c-1.047,0-2.014,0.053-3.059,0.053c-6.389-0.109-14.707,0.412-19.779,3.65c-2.848,1.859-5.76,4.014-8.117,6.281
			c-2.641,2.623-4.231,5.152-5.139,8.289c-0.9,3.238-1.803,6.383-1.803,9.674c0,1.342-0.139,2.623-0.211,3.965
			c-0.064,0.822,0.283,1.746,0.072,2.521"/>
		<path style="fill:none;stroke:#FF0050;stroke-width:3;" d="M934.36,599.578l-0.043,23.357c0.551,1.646,0.762,3.191,1.527,4.791
			c1.592,3.24,4.164,6.023,7.91,8.131c2.01,1.131,4.367,1.797,6.801,2.469c1.459,0.361,2.982,0.676,4.514,0.877
			c1.109,0.154,3.191,0,4.09,0.361l249.742,0.684l26.545-110.324l-271.84-14.662c-1.178,0.211-2.637-0.156-3.957-0.156
			c-0.834,0-1.668,0-2.498,0c-1.803,0.057-3.881,0-5.688,0.465c-3.957,0.926-6.801,3.811-8.68,6.379
			c-0.83,1.088-1.385,2.215-1.803,3.398c-0.551,1.389-1.803,3.449-1.248,4.844"/>
		<path style="fill:none;stroke:#FF0050;stroke-width:3;" d="M959.37,636.012c-0.344-0.207-1.453-0.104-2.078-0.104
			c-1.246,0-2.293-0.104-3.471-0.357c-1.881-0.469-3.682-0.928-5.412-1.646c-3.607-1.395-6.455-4.328-7.359-7.209
			c-0.344-1.033,0.219-2.057,0.014-3.084c-0.143-0.826,0.984-2.061,0.287-2.732l2.254-92.133c-0.061-1.234,1.402-3.141,1.963-4.271
			c0.688-1.39,2.15-2.623,3.535-3.605c1.596-1.078,2.779-1.646,4.998-1.693c1.596-0.053,3.334-0.053,4.998,0
			c0.35,0,0.625,0,0.973,0.104l268.492,14.047l-23.92,104.256L959.37,636.012z"/>
		<path style="fill:none;stroke:#FF0050;stroke-width:3;" d="M932.171,524.779c0.139-1.793,2.082-4.266,3.605-5.604
			c1.389-1.24,2.572-2.521,3.957-3.703c2.432-2.117,6.178-4.328,9.852-5.098c3.268-0.625,7.01-0.465,10.344-0.465l285.021,14.422
			l-28.511,121.514l-258.113-1.959c-3.885,0-7.98-0.469-11.863-0.928c-4.439-0.568-7.361-2.16-10.689-4.271
			c-2.496-1.592-4.65-3.549-5.963-5.816c-1.182-1.904-1.461-3.91-2.018-5.971"/>
		<line style="fill:none;stroke:#FF0050;stroke-width:3;" x1="934.323" y1="562.121" x2="936.108" y2="529.994"/>
		<line style="fill:none;stroke:#FF0050;stroke-width:3;" x1="936.942" y1="624.213" x2="938.581" y2="532.475"/>
		<line style="fill:none;stroke:#FF0050;stroke-width:3;" x1="931.187" y1="528.432" x2="931.372" y2="525.555"/>
		<path style="fill:none;stroke:#FF0050;stroke-width:3;" d="M955.946,631.748l245.094,2.672c0,0,23.592-99.389,22.281-99.389
			c-1.309,0-267.049-12.398-267.049-12.398s-7.863,2.186-7.863,5.592c0,3.403-5.217,95.988-5.217,95.988
			S946.112,630.531,955.946,631.748z"/>
	</g>
	<path style="fill:none;stroke:#17192D;stroke-width:3;" d="M2048,0"/>
	<path style="fill:none;stroke:#17192D;stroke-width:3;" d="M2048,1536"/>
	<path style="fill:none;stroke:#17192D;stroke-width:3;" d="M0,1536"/>
	<path style="fill:none;stroke:#17192D;stroke-width:3;" d="M0,0"/>
</g>
<g id="Layer_1">
</g>
</svg>
