<?xml version="1.0" encoding="iso-8859-1"?>
<!-- Generator: Adobe Illustrator 15.1.0, SVG Export Plug-In . SVG Version: 6.00 Build 0)  -->
<!DOCTYPE svg PUBLIC "-//W3C//DTD SVG 1.1//EN" "http://www.w3.org/Graphics/SVG/1.1/DTD/svg11.dtd">
<svg version="1.1" xmlns="http://www.w3.org/2000/svg" xmlns:xlink="http://www.w3.org/1999/xlink" x="0px" y="0px" width="2048px"
	 height="1536px" viewBox="0 0 2048 1536" style="enable-background:new 0 0 2048 1536;" xml:space="preserve">
<g id="d1b_x5F_1">
	<g>
		<path style="fill:none;stroke:#FF0050;stroke-width:3;" d="M363.05,818.277c-0.371-2.014-4.285-5.402-6.861-6.146
			c0.809,5.859-1.596,12.311-1.557,18.109c-5.484-0.111-10.381-3.811-15.477-4.969c0.352,5.037,0.533,10.887,1.789,15.795
			c-3.803,0.16-22.756-2.559-22.988,1.889c-0.059,1.08,2.414,3.617,3.037,4.672c0.973,1.643,1.842,3.42,2.65,5.062
			c1.324,2.697,3.605,5.041,4.865,7.527c-6.719-0.064-7.408,5.562-7.477,9.455c-1.145,0.047-2.576-0.133-3.695,0.082
			c-1.525,0.291-1.936,1.273-3.689,1.062c1.793-4.272,5.252-11.184,1.289-15.637c-0.998-1.119-1.918-1.596-3.818-1.617
			c-2.959-0.025-2.41,0.439-3.162,2.176c-0.998,2.307-2.984,4.994-2.791,7.477c-8.6,0.457-11-10.729-18.875-10.078
			c-1.033,2.973,0.033,5.949,1.574,8.729c0.848,1.531,2.1,2.92,3.588,4.158c0.545,0.451,2.967,1.682,3.139,2.121
			c0.418,1.076-1.166,2.473-1.732,3.467c-1.08,1.885-1.773,4.01-1.971,6.064c-0.201,2.109-0.443,5.068,0.559,7.021
			c1.047,2.047,3.895,4.465,6.006,5.953c0.783,0.551,1.729,0.881,2.455,1.424c1.699,1.26,1.17,1.131,1.885,2.67
			c1.627,3.498,5.76,4.754,10.883,4.715c6.35-0.043,32.326-14.732,32.652-2.537c0.117,4.344-4.15,7.789-9.398,9.273
			c-4.354,1.234-13.051,1.445-16.732-0.963c-2.619-1.721-2.586-2.99-6.139-3.98c-3.793-1.062-6.836-1.836-10.961-1.564
			c-5.861,0.391-11.535,2.469-15.854,5.312c-1.846,1.217-3.576,3.578-5.998,2.82c-1.539-0.48-3.453-2.906-4.881-3.742
			c-3.209-1.883-15.551-5.479-17.812-0.932c-1.094,2.197,1.936,4.258,2.541,6.469c-6.387,2.064-13.523,6.15-16.104,10.793
			c3.668,0.287,13.949,3.818,14.869,6.691c-4.352,0.199-8.146,0.701-12.107,2.275c-3.438,1.369-9.252,4.918-10.844,7.404
			c2.309-0.039,5.213-0.607,7.381,0.082c-2.805,4.98-5.824,10.877-5.201,16.311c7.33-2.629,15.562-4.604,23.9-3.205
			c3.582,0.602,6.254,2.314,8.154,4.611c0.826,0.998,2.061,2.293,2.104,3.459c0.047,1.156-1.145,2.111-0.977,3.42
			c-4.203,1.439-10.84,5.225-12.693,8.498c-2.139-3.342-1.484-6.426-7.162-8.176c-4.154-1.283-7.988,0.154-11.27,1.975
			c-1.988,1.105-3.717,2.834-5.85,3.746c-1.838,0.787-3.123,0.283-5.27,0.684c-3.785,0.697-6.629,3.678-9.244,5.52
			c-2.829-3.656-8.887-0.965-11.635,1.16c3.199,3.705,8.773,5.506,12.258,8.719c1.648,1.52,2.977,2.324,5.494,3.055
			c2.15,0.623,5.312,0.322,7.084,1.201c1.902,0.938,3.281,2.877,5.373,3.932c1.904,0.953,4.115,2.244,6.211,2.891
			c4.934,1.514,11.451,0.094,14.697-2.943c0.852-0.801,1.602-1.824,2.156-2.723c2.443,2.594,3.84,5.828,6.383,8.307
			c1.643,1.6,4.199,2.623,5.975,4.158c-5.316,0.793-11.898,5.244-11.176,9.838c-6.783-0.873-11.416-6.719-17.67-7.828
			c-0.422,5.26,1.455,10.418,6.414,14.324c-4.654,1.775-8.393,4.43-12.664,6.5c1.48,1.443,3.055,3.203,4.783,4.598
			c1.084,0.873,4.857,1.832,5.395,2.537c0.576,0.766-2.461,4.543-3.115,5.764c-1.148,2.16-2.133,4.396-2.949,6.607
			c5.031,0.203,11.707,0.994,16.637,0.09c2.75,3.932-1.346,4.957-3.965,7.555c-1.514,1.506-2.107,3.27-3.652,4.805
			c5.85,0.473,9.842,1.221,15.15-0.646c3.625-1.281,7.664-2.631,11.174-4.082c3.016,2.018,4.268,4.6,8.088,5.975
			c2.74,0.99,6.859,2.492,9.918,2.285c0.715,2.4,1.877,4.688,3.227,6.887c1.678,2.727,4.379,4.172,6.74,6.383
			c-2.082,1.789-4.369,2.904-5.57,5.123c-1.51,2.787-1.678,3.18-4.994,5.283c-3.295,2.094-6.736,4.83-7.982,8.115
			c-1.377,3.623,0.068,7.73-1.08,11.305c-0.543,1.688-1.842,3.037-2.947,4.611c-1.66,2.361-2.83,5.191-4.809,7.381
			c6.59,2.082,14.768-5.188,19.908-7.084c-0.113,3.785,1.357,9.877,3.844,13.266c0.314,0.426,2.117,2.805,2.793,2.98
			c1.742,0.461,4.537-1.586,5.777-2.701c6.018-5.389-0.293-11.562,0.426-17.27c5.879-0.254,8.34-0.443,12.658,2.473
			c-0.25,2.951-0.773,5.898-1.183,8.793c-0.228,1.604-0.181,3.863-1.257,5.26c2.74,0.16,5.699-0.232,8.406-0.004
			c2.559,0.219,2.688,0.125,4.408,2.09c-4.457,3.727-7.377,9.455-11.037,13.641c-2.748,3.141-2.383,6.389-2.98,9.902
			c3.99-1.691,10.826-3.502,15.46-2.895c0.726,4.701-0.479,9.477,0.714,14.182c5.109,0.709,9.914-3.57,14.516-4.096
			c0.418,3.42-1.336,6.918-0.592,10.367c0.416,1.943,1.768,3.488,1.643,5.506c3.188-2.576,7.055-4.766,10.887-6.9
			c2.533-1.414,6.336-5.109,9.885-4.615"/>
		<path style="fill:none;stroke:#FF0050;stroke-width:3;" d="M359.319,1145.537c4.965,0.121,8.969-9.141,11.816-10.836"/>
		<path style="fill:none;stroke:#FF0050;stroke-width:3;" d="M342.218,1134.93c2.691-2.58,4.654-5.148,8.1-7.627
			c1.682-1.213,3.631-2.301,5.578-3.264c2.01-0.99,4.65-1.553,6.535-2.715"/>
		<path style="fill:none;stroke:#FF0050;stroke-width:3;" d="M345.638,1113.943c3.979-3.291,10.637-2.451,15.234-4.65
			c2.518-1.209,4.379-3.682,5.451-5.682c1.17-2.199,3.42-5.963,3.209-8.307c-6.246-1.695-10.581,3.148-14.557,5.963
			c-2.568,1.814-5.109,3.535-7.451,5.531c-1.768,1.506-3.65,5.463-6.24,5.992"/>
		<path style="fill:none;stroke:#FF0050;stroke-width:3;" d="M312.052,1073.123c3.359-2.578,6.762-3.137,9.088-6.445
			c2.414-3.432,6.521-5.182,11.455-3.865c4.641,1.242,6.801,3.84,10.551,5.926c3.033,1.691,8.209,1.541,10.557,3.176
			c-4.43,1.775-6.518,5.32-10.572,7.217c-3.867,1.807-5.662,0.193-8.926-1.625c-5.016-2.793-13.266-5.369-18.42-1.385"/>
		<path style="fill:none;stroke:#FF0050;stroke-width:3;" d="M306.765,1090.65c1.699-0.799,3.734-1.76,5.91-2.133
			c4.133-0.711,5.557,0.873,9.016,2.365"/>
		<path style="fill:none;stroke:#FF0050;stroke-width:3;" d="M311.433,885.16c2.029,0.471,5.156,0.793,7.393,0.461
			c3.326-0.494,4.732-2.877,7.219-4.615"/>
		<path style="fill:none;stroke:#FF0050;stroke-width:3;" d="M343.46,856.793c2.547-0.293,7.287,1.699,10.26,2.074
			c2.963,0.373,5.643,0.468,8.465,1.156c4.812,1.166,5.984,4.268,7.377,7.838c-10.697,3.604-19.201-1.971-25.482-7.838"/>
		<path style="fill:none;stroke:#FF0050;stroke-width:3;" d="M355.896,844.34c3.645,0.379,5.752,3.579,9.021,4.611"/>
		<path style="fill:none;stroke:#FF0050;stroke-width:3;" d="M364.606,833.268c2.129,0.955,3.445,3.316,5.906,4.379"/>
		<path style="fill:none;stroke:#FF0050;stroke-width:3;" d="M366.47,909.375c-4.883,0.512-8.66,0.545-12.646,2.941
			c3.643,1.402,6.65,3.863,10.465,5.303c3.932,1.494,7.881,2.836,11.619,4.607c5.441,2.582,9.85,7.209,13.885,10.947
			c1.041,0.963,1.979,2.582,3.188,3.363c1.965,1.273,1.402,1.338,4.533,0.104c3.406-1.342,6.611-2.848,10.014-4.137
			c5.816-2.217,9.562-4.9,12.363-9.043c0.33,5.541,2.555,10.807,2.555,16.359c0,4.865-1.893,9.33-4.654,13.734
			c-2.887,4.598-9.145,7.996-13.998,11.352c-2.24,1.553-4.422,3.264-6.309,5.184c-0.854,0.859-2.896,3.672-3.334,3.402"/>
		<path style="fill:none;stroke:#FF0050;stroke-width:3;" d="M402.231,993.094c1.75,1.781,4.873,3.119,6.9,4.934
			c2.816,2.516,4.77,5.566,6.795,8.461c2.887,4.111,4.285,8.053,5.898,12.5c1.785,4.904,2.906,10.977,6.189,15.34
			c-4.057,0.232-8.113-0.15-11.773-0.873c-2.543-0.504-4.404-0.701-6.547-1.623c-1.578-0.676-3.127-1.539-4.662-2.297
			c-4.822-2.391-9.752-5.41-13.662-8.34c-8.129,3.549-10.389,12.869-12.16,18.951c-1.092,3.748-3.033,7.701-5.441,11.197
			c-1.459,2.111-2.984,3.939-4.887,5.863c-1.553,1.57-4.391,2.744-5.51,4.348c3.781,0.146,6.908,0.6,10.561,0.035"/>
		<path style="fill:none;stroke:#FF0050;stroke-width:3;" d="M421.511,1062.975c-1.768,2.336-15.291-8.512-18.914-8.512
			c-0.408,2.154-2.719,3.781-3.174,5.965c-0.307,1.473-0.582,3.166-0.637,4.586c-6.027,0.525-12.617,3.52-12.453,8.535
			c-5.094,0.037-9.18,5.76-11.984,8.268c3.603,2.709,6.525,4.576,8.682,8.086c1.342,2.186,2.988,3.871,5.518,5.308
			c5.416,3.081,12.182,3.673,18.66,4.896"/>
		<path style="fill:none;stroke:#FF0050;stroke-width:3;" d="M396.011,1079.811c5.188-0.387,10.066,6.725,13,9.193
			c-4.064,0.184-6.242,0.949-9.262-0.891c-1.893-1.158-4.881-3.326-5.291-5.076"/>
		<path style="fill:none;stroke:#FF0050;stroke-width:3;" d="M396.011,1113.943c6.646,2.297,13.232,4.818,14.686,10.59
			c-0.098-1.639-6.035-0.09-7.838-0.197c-3.539-0.211-8.709-3.18-9.334-5.777"/>
		<path style="fill:none;stroke:#FF0050;stroke-width:3;" d="M390.106,892.77c-0.41,0.01-0.805,0.014-1.201-0.021
			c0.207-3.861,8.049-2.572,11.062-3.424c-3.41,2.426-4.963,4.668-6.82,7.83c-1.016,1.721-3.23,5.385-6.467,4.15"/>
		<path style="fill:none;stroke:#FF0050;stroke-width:3;" d="M386.995,857.945c1.967,0.422,9.752-3.527,12.07-4.529
			c0.279,3.33-1.252,10.07-6.783,10.754"/>
		<path style="fill:none;stroke:#FF0050;stroke-width:3;" d="M376.112,821.508c4.383-1.592,10.023-4.529,13.043-7.824
			c1.707-1.857,2.314-5.488,4.68-6.732c2.361,1.33,4.186,3.193,6.43,4.637c3.344,2.139,5.459,3.188,6.32,6.51
			c1.277,4.934-3.008,8.422-6.217,12.365c3.627,0.432,5.648-2.275,8.41-3.174c2.219,2.99,2.301,6.289,2.473,9.623
			c0.117,2.24-0.408,2.047,2.268,2.584c1.48,0.297,3.045,0.104,4.59,0.457c8.809,2.029-2.061,10.934-3.127,14.535"/>
		<path style="fill:none;stroke:#FF0050;stroke-width:3;" d="M414.671,1111.637c-0.229,0.951,1.334,1.906,2.307,2.758
			c2.193,1.918,4.082,3.863,5.402,6.232c1.457,2.607,2.43,5.359,3.256,8.105c0.297,0.967,0.666,2.666,1.238,2.971
			c-2.998,0.107-4.297-0.551-6.916,0.697c-1.949,0.934-3.854,2.568-5.004,4.049c3.938,2.73,3.258,6.633,5.248,9.76
			c-0.584-1.016-4.15-1.66-5.867-0.922c-1.281,0.557-3.049,3.301-4.086,4.186c-1.582,1.348-2.816,2-3.352,3.691
			c-0.834,2.658,0.496,6.104,0.887,8.711c-1.574,0.258-2.809,1.074-4.357,1.195c1.363,1.14,3.154,2.494,3.721,4.684
			c0.512,1.979,0.775,4.1,0.994,6.1c0.354,3.277-2.559,4.113-4.482,6.826c-0.783,1.111-1.316,5.412-2.955,4.736
			c2.486,0.779,3.527,5.441,4.568,7.412c1.217,2.309,3.588,4.111,5.045,6.375c2.074,3.225,5.795,9.918,10.414,11.33
			c-3.674-0.448-7.166,4.236-7.334,6.697c-4.061,0.154-7.148-0.025-10.736,1.643c-2.412,1.127-6.684,2.4-8.521,4.078
			c-1.396-3.398-0.777-7.17-1.238-10.768c-0.34-2.662-0.727-5.248-1.242-7.9c-0.582-2.982,0.188-6.088-1.938-8.943
			c-3.617-4.865-7.496-7.334-8.395-13.076c-0.668-4.26,6.072-7.824,5.238-11.777c-1.824-0.594-4.633-0.539-6.279-1.531
			c-3.295-1.979-1.699-6.965-3.555-9.576"/>
		<path style="fill:none;stroke:#FF0050;stroke-width:3;" d="M372.38,809.971c-0.113,0.414-0.439,0.5-0.246,0.912
			c1.067-3.342,2.615-7.07,1.807-10.895c-0.654-3.084-2.422-4.152,0.068-7.133c0.947-1.131,2.074-2.713,3.656-3.424
			c1.119-0.502,2.512-0.18,3.344-0.963c0.873-0.822,0.889-2.98,1.328-4.096c0.654-1.639,1.119-3.131,1.277-4.83
			c3.219,1.643,9.447,2.117,13.283,2.326c0.34,4.779-0.43,9.633,0.057,14.449c0.172,1.729-0.328,4.092,1.002,5.574
			c0.924,1.033,2.758,0.942,2.723,2.314"/>
		<path style="fill:none;stroke:#FF0050;stroke-width:3;" d="M408.452,864.863c2.312,0.916,4.658-2.646,5.926-3.842
			c-0.641,6.242,0.135,12.096-1.496,18.332c-0.645,2.469-1.244,4.75-2.262,7.193c-0.578,1.385-2.049,3.225-2.135,4.627
			c7.416,1.09,2.74,8.947,3.102,12.639c2.361,0.012,5.699-1.033,8.293-1.303c2.018-0.217,3.988-0.393,5.936-0.723
			c0.275,3.303-0.666,6.287-0.881,9.432"/>
		<path style="fill:none;stroke:#FF0050;stroke-width:3;" d="M412.181,971.879c0.662,0.887,6.199-0.297,8.104-0.232
			c2.965,0.09,3.963,0.422,6.271,1.846c4.672,2.873,7.885,6.301,11.963,9.41c-5.127,1.898-7.385,7-12.346,9.104
			c-3.496,1.482-9.152,1.088-13.059,1.088"/>
		<path style="fill:none;stroke:#FF0050;stroke-width:3;" d="M418.401,998.17c2.236,2.146,6.984,4.207,6.844,7.381"/>
		<path style="fill:none;stroke:#FF0050;stroke-width:3;" d="M414.981,966.57c4.061-0.52,10.68-6.4,12.129-9.227"/>
		<path style="fill:none;stroke:#FF0050;stroke-width:3;" d="M379.532,965.65c-0.09,0.691-2.43-1.334-3.188-2.129
			c-1.178-1.24-1.957-2.697-2.809-4.039c-2.658-4.207-4.568-8.535-7.928-12.518c-2.455-2.916-4.791-3.58-9.412-3.691
			c-2.232-0.051-14.973,0.408-14.293,3.463"/>
		<path style="fill:none;stroke:#FF0050;stroke-width:3;" d="M360.253,967.49c0.521,0.152,1.201,0.432,1.527,0.646
			c-11.963,0.773-18.908-7.473-23.537-14.32c-2.955-4.375-8.436-15.312-16.861-14.461"/>
		<path style="fill:none;stroke:#FF0050;stroke-width:3;" d="M361.497,1001.395c0.297-1.893-6.604-0.584-8.109,0.053
			c-3.389,1.428-5.045,4.662-7.131,6.92c-5.928,6.424-10.525,14.824-20.523,18.398"/>
		<path style="fill:none;stroke:#FF0050;stroke-width:3;" d="M344.394,1023.074c5.209-0.287,10.428,2.268,15.236,0.01
			c3.639-1.713,5.531-4.977,7.531-7.619c2.199-2.908,2.393-5.725,3.58-8.891c0.537-1.438,1.096-2.379,2.627-3.152
			c1.166-0.59,3.02-0.684,4.289-1.141c1.939-0.705,3.625-1.814,5.605-2.498"/>
		<path style="fill:none;stroke:#FF0050;stroke-width:3;" d="M372.688,992.633c4.686,1.514,11.254-1.918,14.926-3.689"/>
		<path style="fill:none;stroke:#FF0050;stroke-width:3;" d="M371.446,975.797c1.629,0.551,3.398-0.244,5.062-0.412
			c3.148-0.307,5.857,0.545,8.93,0.873"/>
		<path style="fill:none;stroke:#FF0050;stroke-width:3;" d="M334.44,968.188c0.422,0.418,0.93,0.375,1.023,0.908
			c0.051-3.467-2.715-6.379-5.076-9.262c-3.01-3.686-5.6-8.246-9.238-11.545c-1.889-1.711-4.564-3.725-6.99-5.016
			c-2.684-1.414-6.35-1.506-9.244-2.314c-3.691-1.031-5.506-4.164-10.285-4.146c-0.998,0.006-1.105,0.822-2.176,0.715
			c-0.65-0.064-2.475-1.309-3.18-1.631c-2.082-0.951-4.826-1.932-7.338-1.586c-0.279,2.291,0.809,7.312,2.439,9.199"/>
		<path style="fill:none;stroke:#FF0050;stroke-width:3;" d="M282.509,1019.848c-0.418,0.857,1.002,2.926,0.942,4.371
			c-0.077,1.75-0.874,3.398-1.011,5.127c4.275-0.945,8-2.59,11.273-4.887c0.676-0.473,2.125-2.146,2.869-2.318
			c1.863-0.426,0.977,0.475,2.408,0.934c2.93,0.947,4.314-0.184,6.84-2.064c0.973-0.723,1.713-1.668,2.732-2.318
			c1.314-0.834,2.373-1.002,4.133-1.668c11.227-4.26,18.711-14.492,21.125-23.006"/>
		<path style="fill:none;stroke:#FF0050;stroke-width:3;" d="M335.374,975.564c1.527,3.678,1.178,6.621,1.557,10.381"/>
		<path style="fill:none;stroke:#FF0050;stroke-width:3;" d="M297.435,946.044c2.086,1.937,2.826,7.21,3.424,9.679
			c0.865,3.578,2.35,7.084,3.109,10.672c1.377,6.508,0.848,13.205,1.244,19.791c0.318,5.266,1.281,11.424-0.305,16.596
			c-0.861,2.795-2.59,7.979-5.297,9.918"/>
		<path style="fill:none;stroke:#FF0050;stroke-width:3;" d="M290.595,955.73c5.352,10.557,7.773,21.473,7.773,32.756
			c0,4.758-0.504,9.004-1.854,13.598c-1.162,3.939-4.018,7.453-4.053,11.535"/>
		<path style="fill:none;stroke:#FF0050;stroke-width:3;" d="M280.956,965.418c0,11.51-2.121,23.176,4.354,33.904"/>
		<path style="fill:none;stroke:#FF0050;stroke-width:3;" d="M271.626,1015.238c0.297-1.834,4.447-1.502,4.354-3.463"/>
		<path style="fill:none;stroke:#FF0050;stroke-width:3;" d="M267.583,1024.227c0.24-0.283,0.533-0.533,0.877-0.744
			c-2.104-0.012-3.27,1.312-5.541,0.977"/>
		<path style="fill:none;stroke:#FF0050;stroke-width:3;" d="M269.14,1034.84c-0.898,0.52-1.725,1.199-2.49,1.613"/>
		<path style="fill:none;stroke:#FF0050;stroke-width:3;" d="M257.634,942.354c0.211-0.461,0.848-0.723,0.971-1.309
			c1.938,0.26,4.496,0.482,6.492,0.389"/>
		<path style="fill:none;stroke:#FF0050;stroke-width:3;" d="M270.692,917.908c3.412,0.375,6.594,2.436,7.777,4.844"/>
		<path style="fill:none;stroke:#FF0050;stroke-width:3;" d="M261.054,979.027c-1.133-0.082-0.586,1.514-0.668,2.504
			c-0.309,0.051-0.572,0.014-0.885,0.029"/>
		<path style="fill:none;stroke:#FF0050;stroke-width:3;" d="M232.134,972.799c0.314-0.047,0.561-0.154,0.861-0.201
			c0.949,0.648,1.961,1.396,2.869,2.043"/>
		<path style="fill:none;stroke:#FF0050;stroke-width:3;" d="M234.001,985.02c1.566-0.891,4.418-1.695,4.662-3.459"/>
		<path style="fill:none;stroke:#FF0050;stroke-width:3;" d="M295.882,916.988c4.715,0.383,7.445,6.633,13.684,6.688
			c2.826,0.027,5.08-0.27,7.771-0.695c0.973-0.156,2.146-0.508,3.111-0.461c2.529,0.143,3.488,1.492,5.91,2.078"/>
		<path style="fill:none;stroke:#FF0050;stroke-width:3;" d="M336.308,931.518c3.475,0.812,5.381,3.488,9.33,3.92"/>
		<path style="fill:none;stroke:#FF0050;stroke-width:3;" d="M294.015,1049.365c3.768-1.879,8.336-2.021,12.221-3.932
			c2.525-1.238,7.727-5.141,10.482-1.832"/>
		<path style="fill:none;stroke:#FF0050;stroke-width:3;" d="M329.468,1051.676c3.363-1.648,6.857-2.943,10.883-3.705
			c5.471-1.035,9.24-3.6,13.369-6.676"/>
		<path style="fill:none;stroke:#FF0050;stroke-width:3;" d="M366.481,811.602c0.311-4.848-2.176-9.92-2.176-14.762
			c0-5.537,0.623-11.533,1.557-17.068c1.863-12.453,8.707-25.598,17.104-36.67c16.479-22.6,46.953-40.361,79.607-49.123
			c12.125-3.23,23.941-5.764,36.691-6.229c11.506-0.693,25.498-2.078,37.004-0.92l1167.039-7.379l136.547,569.51l-1296.123,71.182
			c-4.666,0-9.02-0.232-13.682-0.232c-28.609,0.465-65.924-1.846-88.627-16.375c-12.75-8.303-25.811-17.984-36.383-28.137
			c-11.816-11.76-18.969-23.064-23.014-37.131c-4.043-14.529-8.082-28.6-8.082-43.357c0-5.996-0.623-11.762-0.934-17.758
			c-0.309-3.693,1.244-7.846,0.311-11.303"/>
		<path style="fill:none;stroke:#FF0050;stroke-width:3;" d="M421.718,898.746l-0.195-104.678c2.486-7.377,3.42-14.297,6.84-21.447
			c7.154-14.525,18.66-26.982,35.453-36.438c9.016-5.074,19.588-8.068,30.471-11.072c6.535-1.611,13.375-2.998,20.217-3.918
			c4.973-0.691,14.303,0,18.346-1.613l1119.07-3.102l118.926,494.373l-1218.074,65.705c-5.287-0.926-11.816,0.691-17.723,0.691
			c-3.734,0-7.463,0-11.197,0c-8.086-0.232-17.412,0-25.498-2.078c-17.727-4.15-30.477-17.068-38.873-28.596
			c-3.729-4.848-6.215-9.918-8.082-15.223c-2.486-6.229-8.088-15.451-5.596-21.68"/>
		<path style="fill:none;stroke:#FF0050;stroke-width:3;" d="M533.792,735.492c-1.553,0.92-6.529,0.459-9.33,0.459
			c-5.596,0-10.26,0.461-15.545,1.613c-8.396,2.078-16.484,4.156-24.256,7.381c-16.17,6.229-28.92,19.375-32.963,32.293
			c-1.557,4.609,0.988,9.221,0.057,13.832c-0.625,3.691,4.408,9.227,1.299,12.225l10.104,412.834
			c-0.311,5.535,6.275,14.07,8.762,19.141c3.111,6.229,9.641,11.766,15.859,16.145c7.154,4.844,12.439,7.381,22.391,7.609
			c7.152,0.236,14.926,0.236,22.389,0c1.557,0,2.799,0,4.354-0.461l1203.102-62.955l-107.18-467.148L533.792,735.492z"/>
		<path style="fill:none;stroke:#FF0050;stroke-width:3;" d="M411.905,1233.889c0.619,8.07,9.326,19.143,16.17,25.135
			c6.219,5.535,11.506,11.305,17.727,16.607c10.881,9.459,27.674,19.373,44.154,22.832c14.615,2.77,31.408,2.074,46.334,2.074
			l1277.137-64.643L1685.69,691.436l-1156.574,8.771c-17.412,0-35.758,2.072-53.176,4.146c-19.902,2.541-32.961,9.691-47.887,19.146
			c-11.193,7.148-20.838,15.91-26.742,26.062c-5.287,8.533-6.531,17.523-9.021,26.75"/>
		<line style="fill:none;stroke:#FF0050;stroke-width:3;" x1="421.544" y1="1066.57" x2="429.55" y2="1210.533"/>
		<line style="fill:none;stroke:#FF0050;stroke-width:3;" x1="433.288" y1="788.348" x2="440.63" y2="1199.418"/>
		<line style="fill:none;stroke:#FF0050;stroke-width:3;" x1="407.497" y1="1217.531" x2="408.331" y2="1230.449"/>
		<path style="fill:none;stroke:#FF0050;stroke-width:3;" d="M518.444,754.59l1098.236-11.979c0,0,105.713,445.369,99.842,445.369
			s-1196.611,55.535-1196.611,55.535s-35.25-9.799-35.25-25.043s-23.375-430.125-23.375-430.125S474.397,760.035,518.444,754.59z"/>
	</g>
	<path style="fill:none;stroke:#17192D;stroke-width:3;" d="M2048,0"/>
	<path style="fill:none;stroke:#17192D;stroke-width:3;" d="M2048,1536"/>
	<path style="fill:none;stroke:#17192D;stroke-width:3;" d="M0,1536"/>
	<path style="fill:none;stroke:#17192D;stroke-width:3;" d="M0,0"/>
</g>
<g id="Layer_1">
</g>
</svg>
