<svg xmlns="http://www.w3.org/2000/svg" width="2048" height="1536" viewBox="0 0 2048 1536"><g fill="none" stroke-width="3"><g stroke="#FF0050"><path d="M605.618 683.744c-.246 1.33-2.844 3.58-4.55 4.074.532-3.885-1.06-8.164-1.038-12.01-3.635.074-6.88 2.525-10.264 3.3.236-3.343.357-7.222 1.188-10.48-2.525-.107-15.09 1.695-15.244-1.252-.04-.713 1.6-2.398 2.012-3.096.646-1.094 1.227-2.27 1.76-3.355.883-1.793 2.393-3.346 3.227-4.998-4.452.047-4.913-3.682-4.956-6.268-.76-.03-1.713.09-2.453-.058-1.013-.193-1.284-.842-2.45-.7 1.195 2.835 3.488 7.415.86 10.366-.663.744-1.27 1.062-2.538 1.076-1.96.016-1.592-.293-2.09-1.445-.662-1.532-1.982-3.313-1.854-4.956-5.705-.307-7.297 7.11-12.518 6.68-.684-1.97.02-3.945 1.04-5.79.563-1.015 1.4-1.937 2.384-2.753.36-.3 1.965-1.118 2.082-1.41.28-.714-.775-1.64-1.148-2.296-.72-1.248-1.174-2.66-1.31-4.023-.132-1.395-.29-3.358.376-4.657.69-1.355 2.576-2.96 3.98-3.943.52-.367 1.144-.586 1.626-.943 1.13-.834.777-.756 1.25-1.775 1.08-2.314 3.82-3.148 7.22-3.127 4.21.033 21.433 9.77 21.653 1.686.076-2.882-2.754-5.165-6.234-6.15-2.886-.817-8.655-.96-11.1.642-1.735 1.14-1.71 1.98-4.067 2.637-2.516.704-4.533 1.22-7.27 1.04-3.89-.264-7.648-1.64-10.514-3.523-1.226-.81-2.374-2.38-3.98-1.875-1.02.318-2.287 1.932-3.234 2.486-2.13 1.246-10.314 3.63-11.812.614-.727-1.458 1.283-2.82 1.688-4.288-4.242-1.367-8.973-4.078-10.682-7.158 2.436-.19 9.254-2.533 9.86-4.434-2.888-.135-5.403-.47-8.026-1.51-2.28-.908-6.14-3.262-7.197-4.912 1.53.03 3.46.398 4.895-.053-1.857-3.31-3.86-7.217-3.45-10.818 4.866 1.74 10.325 3.054 15.856 2.124 2.375-.4 4.146-1.535 5.406-3.06.547-.66 1.364-1.52 1.395-2.292.028-.77-.763-1.402-.647-2.266-2.787-.955-7.19-3.467-8.418-5.64-1.418 2.216-.984 4.263-4.752 5.42-2.754.853-5.3-.1-7.473-1.304-1.316-.734-2.47-1.88-3.883-2.486-1.213-.525-2.066-.19-3.49-.455-2.512-.46-4.395-2.438-6.133-3.66-1.875 2.427-5.893.642-7.713-.77 2.122-2.456 5.82-3.647 8.126-5.782 1.094-1.006 1.98-1.535 3.645-2.02 1.43-.417 3.522-.22 4.698-.8 1.264-.62 2.18-1.906 3.56-2.607 1.267-.632 2.737-1.49 4.122-1.913 3.273-1.002 7.596-.064 9.748 1.95.566.532 1.062 1.206 1.432 1.806 1.617-1.717 2.547-3.867 4.23-5.506 1.09-1.062 2.786-1.742 3.966-2.762-3.523-.52-7.89-3.477-7.412-6.525-4.5.58-7.566 4.455-11.717 5.19-.28-3.483.963-6.907 4.254-9.497-3.09-1.18-5.565-2.938-8.4-4.31.985-.956 2.026-2.126 3.175-3.05.72-.576 3.217-1.213 3.574-1.682.382-.507-1.632-3.015-2.062-3.823-.762-1.428-1.42-2.912-1.96-4.38 3.337-.132 7.767-.657 11.032-.06 1.824-2.607-.89-3.285-2.63-5.012-1.005-.998-1.395-2.162-2.425-3.188 3.885-.31 6.53-.81 10.053.432 2.4.85 5.08 1.745 7.412 2.708 2-1.342 2.826-3.055 5.363-3.96 1.814-.66 4.543-1.657 6.576-1.515.468-1.598 1.24-3.11 2.138-4.574 1.11-1.808 2.898-2.76 4.47-4.233-1.382-1.188-2.896-1.926-3.696-3.393-1.002-1.85-1.11-2.107-3.31-3.506-2.187-1.386-4.466-3.205-5.296-5.387-.912-2.394.047-5.122-.72-7.49-.356-1.12-1.217-2.02-1.952-3.06-1.098-1.566-1.875-3.445-3.188-4.895 4.37-1.38 9.795 3.44 13.2 4.7-.073-2.51.903-6.55 2.557-8.8.206-.28 1.397-1.857 1.845-1.975 1.156-.31 3.012 1.05 3.832 1.79 3.992 3.573-.193 7.67.285 11.454 3.9.168 5.53.29 8.396-1.643-.167-1.956-.517-3.91-.786-5.827-.152-1.062-.12-2.564-.832-3.488 1.816-.104 3.78.154 5.572.004 1.697-.15 1.783-.087 2.924-1.392-2.955-2.47-4.89-6.266-7.316-9.045-1.824-2.082-1.584-4.232-1.98-6.564 2.646 1.118 7.18 2.317 10.25 1.917.487-3.117-.317-6.283.478-9.402 3.387-.473 6.574 2.365 9.624 2.71.278-2.267-.882-4.58-.392-6.87.28-1.29 1.17-2.314 1.088-3.656 2.11 1.716 4.68 3.165 7.223 4.58 1.678.94 4.2 3.39 6.555 3.06M603.14 466.72c3.29-.083 5.95 6.06 7.838 7.187M591.798 473.752c1.79 1.71 3.088 3.41 5.37 5.06 1.12.8 2.41 1.526 3.7 2.167 1.334.647 3.084 1.026 4.336 1.796M594.063 487.672c2.64 2.18 7.06 1.62 10.104 3.084 1.67.8 2.908 2.44 3.62 3.764.776 1.463 2.265 3.953 2.128 5.51-4.146 1.123-7.02-2.086-9.652-3.953-1.703-1.205-3.39-2.344-4.943-3.668-1.174-1.005-2.426-3.624-4.143-3.976M571.796 514.744c2.223 1.703 4.48 2.074 6.025 4.268 1.6 2.275 4.33 3.438 7.597 2.568 3.076-.826 4.508-2.55 7-3.932 2.012-1.123 5.44-1.02 6.998-2.107-2.938-1.18-4.318-3.526-7.012-4.787-2.564-1.196-3.756-.125-5.918 1.08-3.326 1.854-8.797 3.56-12.217.92M568.284 503.113c1.133.533 2.482 1.166 3.924 1.416 2.74.472 3.686-.573 5.98-1.567M571.382 639.39c1.346-.315 3.424-.526 4.904-.308 2.2.328 3.135 1.91 4.787 3.064M592.622 658.2c1.688.196 4.836-1.124 6.805-1.374 1.963-.25 3.738-.314 5.615-.766 3.19-.773 3.97-2.834 4.89-5.2-7.093-2.388-12.73 1.308-16.895 5.2M600.868 666.457c2.418-.25 3.82-2.37 5.984-3.06M606.646 673.805c1.416-.637 2.283-2.203 3.914-2.908M607.88 623.33c-3.234-.34-5.742-.36-8.383-1.952 2.416-.93 4.408-2.56 6.938-3.52 2.607-.987 5.227-1.874 7.71-3.048 3.606-1.713 6.528-4.783 9.204-7.262.687-.64 1.31-1.713 2.11-2.232 1.31-.844.93-.887 3.008-.068 2.262.89 4.387 1.89 6.64 2.744 3.858 1.47 6.34 3.252 8.2 5.996.22-3.67 1.693-7.166 1.693-10.848 0-3.227-1.255-6.186-3.083-9.107-1.914-3.05-6.064-5.303-9.287-7.527-1.482-1.027-2.928-2.168-4.18-3.438-.568-.57-1.92-2.438-2.215-2.258M631.6 567.812c1.16-1.18 3.233-2.07 4.57-3.27 1.872-1.674 3.167-3.695 4.51-5.613 1.917-2.728 2.843-5.34 3.91-8.29 1.183-3.252 1.93-7.283 4.106-10.174-2.69-.154-5.38.1-7.81.582-1.69.33-2.917.46-4.337 1.074-1.052.447-2.08 1.02-3.1 1.523-3.194 1.588-6.464 3.592-9.054 5.527-5.395-2.35-6.89-8.535-8.064-12.564-.727-2.482-2.014-5.106-3.61-7.424-.962-1.408-1.98-2.615-3.243-3.89-1.028-1.044-2.913-1.823-3.65-2.882 2.507-.1 4.575-.4 7-.03M644.382 521.473c-1.17-1.554-10.143 5.643-12.543 5.643-.272-1.428-1.798-2.508-2.105-3.957-.2-.978-.387-2.1-.422-3.042-3.996-.348-8.365-2.332-8.258-5.66-3.377-.02-6.086-3.82-7.945-5.48 2.383-1.8 4.324-3.037 5.757-5.363.886-1.45 1.978-2.568 3.655-3.52 3.592-2.043 8.078-2.434 12.375-3.248M627.474 510.305c3.44.26 6.672-4.46 8.615-6.098-2.694-.12-4.14-.63-6.134.592-1.258.77-3.244 2.206-3.512 3.364M627.474 487.672c4.404-1.523 8.77-3.197 9.738-7.025-.064 1.088-4.004.06-5.197.13-2.348.142-5.78 2.106-6.19 3.833M623.56 634.342c-.275-.004-.54-.008-.8.014.136 2.56 5.34 1.703 7.337 2.27-2.262-1.608-3.29-3.097-4.52-5.19-.676-1.14-2.146-3.57-4.29-2.75M621.495 657.434c1.303-.275 6.465 2.34 8.004 3.006.18-2.207-.835-6.676-4.5-7.13M614.276 681.598c2.908 1.06 6.646 3.008 8.65 5.193 1.135 1.235 1.53 3.64 3.102 4.466 1.57-.887 2.78-2.117 4.268-3.08 2.215-1.416 3.62-2.11 4.19-4.314.84-3.273-1.993-5.584-4.126-8.2 2.408-.286 3.75 1.51 5.582 2.108 1.467-1.986 1.523-4.172 1.635-6.383.078-1.488-.266-1.36 1.506-1.71.98-.204 2.02-.075 3.04-.308 5.847-1.347-1.362-7.253-2.067-9.644M639.85 489.2c-.155-.63.886-1.267 1.526-1.83 1.457-1.272 2.705-2.563 3.582-4.134.97-1.73 1.613-3.553 2.16-5.373.197-.645.443-1.768.822-1.975-1.988-.068-2.854.367-4.586-.46-1.295-.618-2.56-1.702-3.32-2.683 2.61-1.812 2.162-4.396 3.484-6.475-.393.676-2.754 1.102-3.895.61-.852-.364-2.025-2.188-2.71-2.774-1.047-.89-1.866-1.324-2.218-2.447-.56-1.765.326-4.048.584-5.772-1.046-.178-1.864-.72-2.888-.8.9-.754 2.086-1.65 2.465-3.106.34-1.31.512-2.715.658-4.043.232-2.175-1.7-2.73-2.973-4.53-.52-.732-.873-3.584-1.96-3.137 1.65-.516 2.34-3.61 3.033-4.916.808-1.53 2.372-2.73 3.345-4.225 1.373-2.143 3.838-6.582 6.905-7.52-2.437.297-4.755-2.81-4.866-4.44-2.694-.1-4.74.02-7.12-1.087-1.6-.748-4.43-1.592-5.652-2.705-.924 2.254-.516 4.754-.816 7.14-.23 1.765-.482 3.48-.826 5.245-.386 1.973.125 4.03-1.28 5.926-2.4 3.228-4.974 4.866-5.577 8.673-.44 2.826 4.03 5.188 3.48 7.812-1.214.387-3.077.352-4.17 1.016-2.185 1.308-1.122 4.616-2.356 6.345M611.804 689.25c-.078-.275-.293-.33-.164-.602.705 2.21 1.732 4.684 1.195 7.227-.434 2.043-1.604 2.748.047 4.727.625.75 1.373 1.8 2.428 2.27.738.333 1.66.118 2.215.638.58.547.588 1.98.877 2.72.44 1.087.744 2.073.848 3.2 2.137-1.09 6.268-1.402 8.81-1.545.228-3.166-.28-6.387.042-9.58.113-1.148-.22-2.713.658-3.693.62-.686 1.832-.63 1.81-1.54M635.724 652.852c1.53-.605 3.088 1.756 3.932 2.547-.426-4.14.087-8.022-.994-12.157-.43-1.64-.826-3.152-1.502-4.773-.377-.918-1.357-2.14-1.414-3.068 4.92-.723 1.82-5.936 2.057-8.383 1.565-.005 3.78.687 5.5.864 1.338.145 2.646.258 3.938.48.18-2.19-.438-4.172-.585-6.254M638.192 581.883c.443-.59 4.11.193 5.377.154 1.964-.06 2.622-.284 4.16-1.227 3.095-1.904 5.23-4.176 7.93-6.24-3.397-1.262-4.894-4.643-8.185-6.04-2.318-.98-6.07-.718-8.66-.718M642.317 564.447c1.484-1.424 4.634-2.79 4.54-4.895M640.056 585.4c2.69.35 7.08 4.246 8.043 6.117M616.544 586.012c-.057-.457-1.613.887-2.113 1.414-.782.822-1.298 1.785-1.86 2.672-1.764 2.797-3.03 5.666-5.258 8.307-1.63 1.93-3.178 2.37-6.24 2.447-1.48.035-9.928-.27-9.48-2.297M603.763 584.79c.346-.1.793-.284 1.012-.43-7.936-.513-12.54 4.954-15.61 9.497-1.962 2.904-5.59 10.16-11.183 9.592M604.585 562.31c.197 1.253-4.38.384-5.38-.038-2.247-.945-3.343-3.092-4.728-4.59-3.928-4.258-6.982-9.828-13.605-12.2M593.242 547.93c3.46.19 6.917-1.5 10.104-.004 2.412 1.13 3.668 3.3 4.994 5.05 1.457 1.927 1.586 3.798 2.373 5.897.354.95.73 1.574 1.742 2.086.775.392 2.006.456 2.848.757 1.287.47 2.4 1.21 3.717 1.66M612.005 568.113c3.105-1.002 7.463 1.277 9.898 2.447M611.183 579.283c1.084-.365 2.25.164 3.36.27 2.08.208 3.884-.36 5.92-.58M586.64 584.33c.283-.275.62-.25.68-.604.04 2.297-1.8 4.23-3.368 6.143-1.99 2.442-3.712 5.468-6.122 7.657-1.25 1.13-3.027 2.47-4.64 3.324-1.776.935-4.212 1-6.126 1.532-2.446.688-3.656 2.762-6.82 2.752-.664-.004-.732-.545-1.443-.477-.432.047-1.642.873-2.106 1.084-1.385.634-3.2 1.278-4.87 1.056-.188-1.52.538-4.854 1.618-6.105M552.202 550.068c-.275-.568.666-1.94.627-2.895-.056-1.162-.58-2.254-.67-3.402 2.83.628 5.302 1.718 7.47 3.24.453.313 1.412 1.423 1.906 1.54 1.238.28.65-.318 1.596-.62 1.945-.628 2.865.12 4.54 1.368.644.48 1.13 1.105 1.81 1.535.873.555 1.574.666 2.74 1.105 7.445 2.83 12.408 9.613 14.01 15.258M587.263 579.44c1.012-2.44.78-4.394 1.033-6.888M562.104 599.01c1.38-1.28 1.87-4.773 2.266-6.418.576-2.37 1.56-4.697 2.064-7.074.912-4.314.56-8.758.822-13.125.215-3.488.852-7.578-.197-11.002-.573-1.858-1.722-5.29-3.517-6.58M557.565 592.588c3.55-6.998 5.154-14.238 5.154-21.723 0-3.152-.333-5.97-1.228-9.016-.773-2.612-2.668-4.942-2.69-7.653M551.175 586.166c0-7.635-1.408-15.37 2.885-22.484M544.983 553.13c.2 1.214 2.955.99 2.89 2.294M542.304 547.164c.164.19.354.354.586.496-1.397.008-2.172-.87-3.678-.65M543.337 540.127c-.594-.344-1.145-.795-1.652-1.07M535.706 601.457c.143.31.562.482.645.875 1.284-.174 2.98-.324 4.308-.26M544.364 617.67c2.264-.244 4.375-1.613 5.158-3.21M537.972 577.143c-.748.05-.383-1.004-.438-1.662-.207-.032-.383-.007-.59-.02M518.792 581.27c.21.03.375.105.572.134.633-.43 1.303-.93 1.906-1.355M520.036 573.162c1.04.6 2.928 1.127 3.092 2.297M561.07 618.28c3.128-.253 4.94-4.395 9.073-4.438 1.88-.014 3.367.186 5.156.465.645.104 1.42.34 2.06.31 1.678-.095 2.318-.99 3.924-1.38M587.878 608.646c2.307-.543 3.57-2.314 6.186-2.6M559.833 530.496c2.504 1.248 5.53 1.342 8.104 2.607 1.674.816 5.123 3.406 6.955 1.213M583.345 528.965c2.232 1.088 4.547 1.953 7.217 2.457 3.627.684 6.13 2.387 8.865 4.426M607.894 688.166c.2 3.22-1.45 6.582-1.45 9.795 0 3.67.417 7.646 1.036 11.32 1.234 8.257 5.773 16.976 11.34 24.32 10.93 14.984 31.137 26.76 52.79 32.573 8.046 2.143 15.883 3.82 24.335 4.13 7.63.46 16.908 1.376 24.543.61l773.93 4.89 90.55-377.67-859.528-47.206c-3.096 0-5.986.154-9.076.154-18.977-.308-43.715 1.224-58.775 10.862-8.456 5.502-17.12 11.92-24.128 18.656-7.836 7.8-12.576 15.295-15.26 24.625-2.682 9.63-5.36 18.965-5.36 28.752 0 3.98-.417 7.8-.62 11.773-.2 2.45.826 5.203.203 7.496M644.52 630.38l-.128 69.413c1.65 4.896 2.266 9.486 4.537 14.227 4.74 9.635 12.37 17.893 23.507 24.164 5.98 3.365 12.99 5.352 20.21 7.34 4.335 1.07 8.864 1.99 13.405 2.602 3.3.46 9.486 0 12.17 1.07l742.113 2.053 78.873-327.847L731.43 379.83c-3.51.62-7.835-.457-11.755-.457h-7.424c-5.362.154-11.544 0-16.91 1.377-11.755 2.752-20.21 11.32-25.776 18.965-2.475 3.217-4.12 6.582-5.365 10.092-1.644 4.13-5.36 10.25-3.707 14.38"/><path d="M718.84 738.645c-1.026-.615-4.327-.305-6.185-.305-3.707 0-6.8-.31-10.31-1.072-5.567-1.375-10.927-2.752-16.085-4.895-10.723-4.133-19.176-12.844-21.855-21.413-1.037-3.062.65-6.12.035-9.175-.418-2.447 2.924-6.12.86-8.104L672 419.903c-.203-3.67 4.158-9.33 5.81-12.693 2.062-4.132 6.394-7.8 10.52-10.708 4.74-3.21 8.25-4.895 14.843-5.045 4.748-.152 9.902-.152 14.854 0 1.026 0 1.853 0 2.884.305l797.846 41.754-71.078 309.79-728.84-4.66zM638.013 408.125c.412-5.348 6.186-12.69 10.727-16.668 4.12-3.67 7.628-7.494 11.753-11.008 7.218-6.276 18.353-12.855 29.278-15.147 9.698-1.836 20.83-1.375 30.73-1.375l846.942 42.87-84.71 361.062-766.993-5.814c-11.546 0-23.71-1.377-35.26-2.754-13.202-1.686-21.86-6.426-31.763-12.697-7.42-4.736-13.816-10.547-17.73-17.283-3.506-5.656-4.332-11.62-5.982-17.74M644.403 519.084l5.31-95.47M652.194 703.588l4.87-272.602M635.09 418.973l.552-8.565"/><path d="M708.663 725.977l728.307 7.95s70.102-295.356 66.21-295.356-793.54-36.824-793.54-36.824-23.38 6.494-23.38 16.607c0 10.107-15.5 285.234-15.5 285.234s8.692 18.776 37.903 22.39z"/></g><path d="M2048 0M2048 1536M0 1536M0 0" stroke="#17192D"/></g></svg>