<?xml version="1.0" encoding="iso-8859-1"?>
<!-- Generator: Adobe Illustrator 15.1.0, SVG Export Plug-In . SVG Version: 6.00 Build 0)  -->
<!DOCTYPE svg PUBLIC "-//W3C//DTD SVG 1.1//EN" "http://www.w3.org/Graphics/SVG/1.1/DTD/svg11.dtd">
<svg version="1.1" xmlns="http://www.w3.org/2000/svg" xmlns:xlink="http://www.w3.org/1999/xlink" x="0px" y="0px" width="2048px"
	 height="1536px" viewBox="0 0 2048 1536" style="enable-background:new 0 0 2048 1536;" xml:space="preserve">
<g id="d1b_x5F_3">
	<g>
		<path style="fill:none;stroke:#FF0050;stroke-width:3;" d="M791.644,903.498c-0.15-0.809-1.717-2.164-2.75-2.461
			c0.324,2.346-0.641,4.93-0.623,7.254c-2.197-0.049-4.16-1.527-6.199-1.992c0.139,2.018,0.211,4.361,0.715,6.326
			c-1.523,0.061-9.115-1.023-9.205,0.758c-0.025,0.43,0.969,1.445,1.217,1.867c0.387,0.662,0.736,1.371,1.059,2.029
			c0.533,1.08,1.445,2.018,1.949,3.016c-2.688-0.025-2.965,2.229-2.994,3.785c-0.457,0.021-1.033-0.051-1.48,0.035
			c-0.609,0.115-0.773,0.508-1.475,0.426c0.719-1.713,2.104-4.482,0.516-6.264c-0.4-0.447-0.77-0.641-1.531-0.648
			c-1.188-0.01-0.963,0.176-1.264,0.873c-0.4,0.924-1.197,2-1.119,2.994c-3.445,0.18-4.404-4.297-7.562-4.035
			c-0.412,1.188,0.014,2.383,0.633,3.492c0.34,0.615,0.839,1.17,1.438,1.67c0.219,0.18,1.186,0.67,1.256,0.848
			c0.168,0.43-0.465,0.988-0.693,1.389c-0.434,0.752-0.709,1.604-0.791,2.426c-0.078,0.848-0.176,2.031,0.223,2.812
			c0.422,0.822,1.562,1.791,2.41,2.385c0.309,0.223,0.691,0.355,0.98,0.57c0.68,0.504,0.469,0.453,0.756,1.072
			c0.65,1.402,2.307,1.9,4.357,1.889c2.543-0.018,12.949-5.902,13.078-1.02c0.047,1.742-1.66,3.123-3.764,3.716
			c-1.742,0.495-5.227,0.581-6.703-0.388c-1.049-0.688-1.031-1.195-2.455-1.592c-1.523-0.426-2.74-0.734-4.393-0.627
			c-2.348,0.154-4.619,0.988-6.35,2.129c-0.738,0.486-1.432,1.432-2.398,1.127c-0.621-0.193-1.387-1.162-1.957-1.496
			c-1.287-0.754-6.23-2.195-7.137-0.375c-0.435,0.883,0.777,1.703,1.02,2.59c-2.561,0.83-5.416,2.465-6.449,4.322
			c1.467,0.117,5.584,1.531,5.953,2.68c-1.74,0.082-3.26,0.285-4.848,0.912c-1.375,0.551-3.707,1.971-4.344,2.969
			c0.926-0.018,2.086-0.246,2.955,0.029c-1.123,1.996-2.332,4.357-2.082,6.535c2.934-1.055,6.232-1.842,9.57-1.283
			c1.438,0.242,2.508,0.926,3.27,1.846c0.332,0.4,0.826,0.916,0.844,1.385c0.018,0.465-0.461,0.848-0.393,1.373
			c-1.686,0.576-4.344,2.09-5.084,3.402c-0.855-1.338-0.594-2.576-2.869-3.273c-1.664-0.516-3.199,0.061-4.516,0.787
			c-0.796,0.443-1.488,1.135-2.34,1.502c-0.736,0.318-1.252,0.115-2.113,0.275c-1.514,0.279-2.652,1.471-3.703,2.211
			c-1.131-1.467-3.556-0.389-4.658,0.463c1.281,1.484,3.514,2.203,4.912,3.494c0.658,0.605,1.191,0.928,2.197,1.221
			c0.861,0.25,2.131,0.129,2.84,0.482c0.762,0.373,1.312,1.152,2.15,1.574c0.762,0.383,1.648,0.898,2.486,1.156
			c1.979,0.607,4.586,0.039,5.889-1.178c0.34-0.318,0.641-0.732,0.861-1.088c0.98,1.035,1.539,2.33,2.559,3.324
			c0.658,0.641,1.682,1.049,2.393,1.664c-2.131,0.318-4.768,2.1-4.475,3.941c-2.719-0.35-4.572-2.689-7.08-3.137
			c-0.168,2.107,0.586,4.174,2.568,5.738c-1.863,0.711-3.359,1.777-5.072,2.604c0.594,0.58,1.227,1.285,1.92,1.84
			c0.434,0.354,1.943,0.736,2.158,1.02c0.232,0.307-0.984,1.82-1.248,2.307c-0.459,0.863-0.855,1.764-1.182,2.648
			c2.018,0.082,4.688,0.396,6.662,0.035c1.102,1.574-0.537,1.982-1.586,3.023c-0.607,0.602-0.844,1.312-1.463,1.928
			c2.344,0.189,3.939,0.49,6.068-0.258c1.449-0.518,3.068-1.059,4.475-1.635c1.209,0.805,1.711,1.84,3.238,2.391
			c1.098,0.396,2.748,0.998,3.975,0.912c0.283,0.963,0.748,1.881,1.291,2.762c0.67,1.092,1.754,1.67,2.701,2.555
			c-0.834,0.719-1.752,1.162-2.232,2.053c-0.604,1.117-0.672,1.273-2,2.115c-1.32,0.84-2.697,1.936-3.197,3.252
			c-0.551,1.451,0.027,3.094-0.434,4.525c-0.215,0.676-0.736,1.217-1.18,1.85c-0.666,0.943-1.135,2.078-1.926,2.955
			c2.641,0.834,5.914-2.078,7.975-2.838c-0.047,1.518,0.541,3.957,1.539,5.316c0.125,0.168,0.848,1.123,1.119,1.191
			c0.697,0.186,1.814-0.637,2.314-1.08c2.408-2.16-0.121-4.633,0.168-6.917c2.357-0.103,3.342-0.181,5.07,0.989
			c-0.098,1.18-0.309,2.361-0.473,3.52c-0.089,0.645-0.072,1.549-0.504,2.107c1.098,0.064,2.285-0.09,3.369,0
			c1.023,0.086,1.074,0.051,1.764,0.834c-1.785,1.492-2.955,3.789-4.422,5.463c-1.102,1.26-0.955,2.559-1.191,3.967
			c1.596-0.676,4.336-1.402,6.189-1.158c0.293,1.885-0.189,3.795,0.289,5.684c2.047,0.283,3.969-1.434,5.811-1.645
			c0.168,1.373-0.533,2.771-0.236,4.156c0.168,0.773,0.709,1.393,0.658,2.201c1.277-1.031,2.826-1.91,4.361-2.762
			c1.016-0.566,2.537-2.047,3.957-1.85"/>
		<path style="fill:none;stroke:#FF0050;stroke-width:3;" d="M790.146,1034.572c1.988,0.047,3.592-3.664,4.732-4.34"/>
		<path style="fill:none;stroke:#FF0050;stroke-width:3;" d="M783.298,1030.322c1.076-1.031,1.863-2.064,3.244-3.053
			c0.674-0.486,1.453-0.922,2.232-1.309c0.805-0.396,1.861-0.623,2.619-1.088"/>
		<path style="fill:none;stroke:#FF0050;stroke-width:3;" d="M784.665,1021.918c1.598-1.316,4.264-0.98,6.105-1.863
			c1.006-0.486,1.754-1.475,2.181-2.275c0.468-0.881,1.372-2.387,1.286-3.328c-2.5-0.676-4.238,1.264-5.828,2.391
			c-1.029,0.723-2.049,1.416-2.986,2.215c-0.709,0.604-1.463,2.186-2.498,2.396"/>
		<path style="fill:none;stroke:#FF0050;stroke-width:3;" d="M771.216,1005.568c1.346-1.033,2.709-1.256,3.639-2.582
			c0.967-1.375,2.611-2.076,4.59-1.549c1.857,0.5,2.723,1.537,4.225,2.375c1.217,0.676,3.285,0.615,4.227,1.27
			c-1.771,0.713-2.609,2.133-4.232,2.891c-1.549,0.727-2.266,0.076-3.574-0.65c-2.008-1.117-5.316-2.15-7.377-0.555"/>
		<path style="fill:none;stroke:#FF0050;stroke-width:3;" d="M769.099,1012.588c0.68-0.322,1.492-0.705,2.365-0.855
			c1.656-0.285,2.225,0.352,3.609,0.949"/>
		<path style="fill:none;stroke:#FF0050;stroke-width:3;" d="M770.966,930.287c0.812,0.186,2.068,0.314,2.963,0.182
			c1.33-0.197,1.893-1.152,2.891-1.85"/>
		<path style="fill:none;stroke:#FF0050;stroke-width:3;" d="M783.798,918.924c1.02-0.117,2.916,0.68,4.107,0.83
			c1.188,0.15,2.258,0.189,3.389,0.465c1.928,0.463,2.396,1.707,2.955,3.139c-4.283,1.441-7.689-0.791-10.207-3.139"/>
		<path style="fill:none;stroke:#FF0050;stroke-width:3;" d="M788.774,913.934c1.463,0.154,2.305,1.438,3.613,1.85"/>
		<path style="fill:none;stroke:#FF0050;stroke-width:3;" d="M792.263,909.504c0.855,0.377,1.381,1.324,2.365,1.75"/>
		<path style="fill:none;stroke:#FF0050;stroke-width:3;" d="M793.011,939.982c-1.957,0.207-3.467,0.221-5.066,1.18
			c1.461,0.559,2.666,1.548,4.193,2.125c1.574,0.598,3.156,1.135,4.654,1.846c2.176,1.031,3.943,2.885,5.562,4.383
			c0.412,0.387,0.791,1.031,1.271,1.346c0.787,0.512,0.564,0.537,1.816,0.043c1.367-0.537,2.648-1.139,4.014-1.656
			c2.326-0.891,3.828-1.965,4.951-3.621c0.133,2.219,1.023,4.326,1.023,6.551c0,1.949-0.758,3.738-1.867,5.502
			c-1.152,1.842-3.66,3.199-5.605,4.547c-0.895,0.619-1.771,1.307-2.525,2.072c-0.344,0.346-1.16,1.473-1.338,1.363"/>
		<path style="fill:none;stroke:#FF0050;stroke-width:3;" d="M807.335,973.514c0.701,0.713,1.953,1.252,2.762,1.979
			c1.131,1.006,1.91,2.229,2.723,3.385c1.156,1.648,1.717,3.227,2.361,5.008c0.715,1.965,1.166,4.395,2.482,6.146
			c-1.627,0.09-3.252-0.061-4.719-0.354c-1.016-0.201-1.764-0.279-2.621-0.648c-0.631-0.268-1.25-0.615-1.865-0.922
			c-1.932-0.955-3.906-2.162-5.477-3.338c-3.252,1.42-4.16,5.154-4.869,7.588c-0.439,1.502-1.213,3.09-2.176,4.486
			c-0.586,0.848-1.197,1.58-1.957,2.35c-0.625,0.627-1.76,1.096-2.207,1.742c1.514,0.061,2.766,0.24,4.229,0.012"/>
		<path style="fill:none;stroke:#FF0050;stroke-width:3;" d="M815.056,1001.502c-0.709,0.939-6.125-3.406-7.574-3.406
			c-0.164,0.861-1.088,1.514-1.273,2.387c-0.121,0.59-0.232,1.27-0.254,1.838c-2.414,0.211-5.055,1.41-4.986,3.42
			c-2.043,0.012-3.678,2.305-4.799,3.307c1.439,1.09,2.609,1.834,3.475,3.24c0.537,0.877,1.195,1.553,2.211,2.129
			c2.168,1.23,4.879,1.471,7.473,1.957"/>
		<path style="fill:none;stroke:#FF0050;stroke-width:3;" d="M804.845,1008.248c2.076-0.156,4.029,2.691,5.205,3.682
			c-1.627,0.072-2.5,0.379-3.709-0.357c-0.762-0.465-1.957-1.334-2.121-2.035"/>
		<path style="fill:none;stroke:#FF0050;stroke-width:3;" d="M804.845,1021.918c2.658,0.92,5.299,1.926,5.879,4.24
			c-0.039-0.658-2.416-0.033-3.139-0.076c-1.416-0.086-3.49-1.273-3.738-2.314"/>
		<path style="fill:none;stroke:#FF0050;stroke-width:3;" d="M802.478,933.334c-0.162,0.004-0.322,0.004-0.48-0.01
			c0.082-1.549,3.221-1.031,4.43-1.371c-1.363,0.971-1.986,1.871-2.73,3.135c-0.41,0.689-1.295,2.16-2.59,1.664"/>
		<path style="fill:none;stroke:#FF0050;stroke-width:3;" d="M801.231,919.383c0.787,0.172,3.904-1.41,4.834-1.811
			c0.111,1.334-0.504,4.031-2.719,4.307"/>
		<path style="fill:none;stroke:#FF0050;stroke-width:3;" d="M796.874,904.793c1.754-0.641,4.014-1.814,5.221-3.137
			c0.686-0.744,0.93-2.197,1.877-2.696c0.945,0.534,1.678,1.278,2.576,1.858c1.338,0.855,2.186,1.277,2.529,2.607
			c0.512,1.975-1.205,3.371-2.49,4.951c1.453,0.172,2.262-0.908,3.367-1.27c0.891,1.195,0.926,2.516,0.994,3.854
			c0.047,0.898-0.164,0.822,0.908,1.037c0.592,0.115,1.217,0.039,1.836,0.18c3.527,0.814-0.825,4.379-1.252,5.82"/>
		<path style="fill:none;stroke:#FF0050;stroke-width:3;" d="M812.315,1020.992c-0.09,0.383,0.533,0.766,0.927,1.105
			c0.876,0.766,1.634,1.549,2.161,2.496c0.586,1.045,0.973,2.146,1.305,3.246c0.119,0.389,0.266,1.068,0.494,1.191
			c-1.199,0.045-1.721-0.223-2.77,0.275c-0.779,0.375-1.541,1.033-2,1.623c1.574,1.096,1.303,2.658,2.098,3.91
			c-0.232-0.404-1.66-0.662-2.348-0.371c-0.512,0.225-1.223,1.326-1.639,1.678c-0.633,0.543-1.127,0.801-1.342,1.48
			c-0.332,1.062,0.197,2.443,0.355,3.488c-0.631,0.104-1.127,0.43-1.746,0.477c0.547,0.457,1.266,0.998,1.494,1.877
			c0.201,0.795,0.309,1.643,0.396,2.443c0.142,1.314-1.024,1.646-1.794,2.734c-0.314,0.443-0.529,2.168-1.184,1.896
			c0.994,0.311,1.412,2.182,1.828,2.969c0.486,0.926,1.438,1.648,2.021,2.551c0.83,1.295,2.318,3.975,4.169,4.543
			c-1.472-0.182-2.87,1.693-2.935,2.68c-1.629,0.064-2.863-0.01-4.301,0.658c-0.969,0.451-2.68,0.963-3.416,1.635
			c-0.559-1.363-0.309-2.875-0.494-4.314c-0.137-1.066-0.293-2.1-0.498-3.162c-0.231-1.195,0.076-2.439-0.775-3.584
			c-1.449-1.947-3.002-2.938-3.363-5.238c-0.268-1.703,2.434-3.131,2.1-4.715c-0.732-0.24-1.855-0.215-2.518-0.615
			c-1.316-0.791-0.68-2.787-1.42-3.836"/>
		<path style="fill:none;stroke:#FF0050;stroke-width:3;" d="M795.376,900.168c-0.043,0.168-0.175,0.203-0.098,0.367
			c0.43-1.338,1.049-2.83,0.727-4.361c-0.262-1.236-0.973-1.666,0.025-2.857c0.379-0.455,0.83-1.088,1.463-1.371
			c0.451-0.203,1.006-0.074,1.342-0.389c0.348-0.326,0.357-1.191,0.529-1.639c0.262-0.658,0.451-1.256,0.512-1.936
			c1.291,0.658,3.785,0.848,5.32,0.934c0.139,1.914-0.172,3.854,0.021,5.785c0.07,0.693-0.129,1.639,0.404,2.232
			c0.371,0.414,1.102,0.379,1.09,0.93"/>
		<path style="fill:none;stroke:#FF0050;stroke-width:3;" d="M809.825,922.158c0.926,0.365,1.867-1.062,2.376-1.541
			c-0.259,2.5,0.05,4.844-0.599,7.344c-0.264,0.988-0.5,1.9-0.908,2.877c-0.232,0.555-0.822,1.295-0.855,1.854
			c2.971,0.439,1.096,3.584,1.242,5.064c0.947,0.004,2.286-0.414,3.32-0.521c0.809-0.086,1.596-0.158,2.379-0.287
			c0.111,1.32-0.266,2.516-0.352,3.775"/>
		<path style="fill:none;stroke:#FF0050;stroke-width:3;" d="M811.317,965.018c0.268,0.354,2.482-0.121,3.248-0.094
			c1.188,0.037,1.588,0.172,2.512,0.738c1.871,1.154,3.158,2.525,4.793,3.77c-2.057,0.762-2.961,2.805-4.947,3.646
			c-1.398,0.594-3.664,0.436-5.23,0.436"/>
		<path style="fill:none;stroke:#FF0050;stroke-width:3;" d="M813.808,975.547c0.9,0.861,2.801,1.688,2.746,2.955"/>
		<path style="fill:none;stroke:#FF0050;stroke-width:3;" d="M812.44,962.893c1.627-0.211,4.275-2.562,4.857-3.699"/>
		<path style="fill:none;stroke:#FF0050;stroke-width:3;" d="M798.242,962.523c-0.036,0.275-0.974-0.533-1.274-0.852
			c-0.473-0.5-0.787-1.08-1.127-1.617c-1.066-1.688-1.828-3.42-3.174-5.016c-0.984-1.17-1.918-1.434-3.773-1.48
			c-0.889-0.018-5.996,0.164-5.721,1.389"/>
		<path style="fill:none;stroke:#FF0050;stroke-width:3;" d="M790.521,963.258c0.211,0.061,0.482,0.178,0.611,0.264
			c-4.789,0.309-7.572-2.994-9.426-5.738c-1.182-1.752-3.381-6.135-6.752-5.791"/>
		<path style="fill:none;stroke:#FF0050;stroke-width:3;" d="M791.019,976.838c0.121-0.756-2.645-0.232-3.246,0.021
			c-1.359,0.572-2.023,1.867-2.857,2.775c-2.373,2.572-4.214,5.936-8.219,7.363"/>
		<path style="fill:none;stroke:#FF0050;stroke-width:3;" d="M784.167,985.523c2.086-0.117,4.176,0.906,6.104,0.004
			c1.459-0.688,2.215-1.996,3.016-3.055c0.881-1.16,0.959-2.293,1.438-3.561c0.215-0.572,0.438-0.951,1.049-1.262
			c0.47-0.236,1.213-0.275,1.721-0.455c0.773-0.283,1.449-0.727,2.246-1.002"/>
		<path style="fill:none;stroke:#FF0050;stroke-width:3;" d="M795.501,973.328c1.875,0.607,4.508-0.766,5.979-1.475"/>
		<path style="fill:none;stroke:#FF0050;stroke-width:3;" d="M795.003,966.588c0.652,0.219,1.364-0.1,2.029-0.168
			c1.262-0.121,2.346,0.219,3.574,0.354"/>
		<path style="fill:none;stroke:#FF0050;stroke-width:3;" d="M780.185,963.539c0.168,0.166,0.369,0.15,0.408,0.365
			c0.021-1.391-1.088-2.555-2.035-3.713c-1.205-1.475-2.24-3.299-3.699-4.619c-0.756-0.689-1.828-1.492-2.801-2.014
			c-1.074-0.562-2.541-0.602-3.703-0.924c-1.475-0.414-2.201-1.67-4.115-1.662c-0.4,0-0.443,0.328-0.875,0.285
			c-0.258-0.025-0.988-0.521-1.271-0.65c-0.836-0.383-1.932-0.773-2.939-0.637c-0.111,0.916,0.324,2.93,0.977,3.684"/>
		<path style="fill:none;stroke:#FF0050;stroke-width:3;" d="M759.382,984.229c-0.168,0.344,0.404,1.174,0.379,1.754
			c-0.031,0.697-0.35,1.359-0.404,2.053c1.711-0.379,3.205-1.037,4.516-1.957c0.268-0.189,0.848-0.861,1.148-0.93
			c0.744-0.172,0.393,0.189,0.965,0.375c1.174,0.379,1.729-0.074,2.74-0.826c0.387-0.293,0.684-0.672,1.092-0.93
			c0.529-0.336,0.951-0.4,1.656-0.67c4.494-1.705,7.492-5.804,8.461-9.215"/>
		<path style="fill:none;stroke:#FF0050;stroke-width:3;" d="M780.558,966.494c0.611,1.475,0.469,2.652,0.625,4.158"/>
		<path style="fill:none;stroke:#FF0050;stroke-width:3;" d="M765.36,954.668c0.836,0.779,1.133,2.891,1.373,3.881
			c0.344,1.432,0.938,2.834,1.242,4.271c0.555,2.605,0.34,5.291,0.5,7.928c0.129,2.107,0.512,4.576-0.121,6.645
			c-0.344,1.123-1.037,3.197-2.121,3.975"/>
		<path style="fill:none;stroke:#FF0050;stroke-width:3;" d="M762.62,958.549c2.143,4.229,3.115,8.602,3.115,13.119
			c0,1.906-0.203,3.609-0.743,5.445c-0.466,1.578-1.61,2.986-1.622,4.619"/>
		<path style="fill:none;stroke:#FF0050;stroke-width:3;" d="M758.763,962.428c0,4.611-0.852,9.283,1.742,13.58"/>
		<path style="fill:none;stroke:#FF0050;stroke-width:3;" d="M755.024,982.383c0.117-0.736,1.781-0.602,1.742-1.385"/>
		<path style="fill:none;stroke:#FF0050;stroke-width:3;" d="M753.403,985.982c0.098-0.111,0.215-0.211,0.352-0.297
			c-0.842-0.004-1.307,0.525-2.219,0.393"/>
		<path style="fill:none;stroke:#FF0050;stroke-width:3;" d="M754.026,990.232c-0.357,0.211-0.688,0.482-0.998,0.646"/>
		<path style="fill:none;stroke:#FF0050;stroke-width:3;" d="M749.419,953.193c0.086-0.186,0.34-0.289,0.389-0.525
			c0.777,0.104,1.801,0.193,2.602,0.154"/>
		<path style="fill:none;stroke:#FF0050;stroke-width:3;" d="M754.649,943.402c1.369,0.15,2.643,0.973,3.115,1.941"/>
		<path style="fill:none;stroke:#FF0050;stroke-width:3;" d="M750.788,967.883c-0.451-0.035-0.232,0.602-0.268,1.002
			c-0.125,0.021-0.229,0.004-0.352,0.014"/>
		<path style="fill:none;stroke:#FF0050;stroke-width:3;" d="M739.208,965.389c0.125-0.021,0.225-0.066,0.344-0.082
			c0.379,0.258,0.783,0.559,1.149,0.816"/>
		<path style="fill:none;stroke:#FF0050;stroke-width:3;" d="M739.956,970.283c0.625-0.357,1.768-0.68,1.867-1.385"/>
		<path style="fill:none;stroke:#FF0050;stroke-width:3;" d="M764.737,943.033c1.889,0.15,2.984,2.654,5.48,2.68
			c1.135,0.008,2.033-0.111,3.113-0.279c0.393-0.064,0.861-0.203,1.248-0.186c1.012,0.057,1.398,0.598,2.365,0.834"/>
		<path style="fill:none;stroke:#FF0050;stroke-width:3;" d="M780.929,948.854c1.393,0.326,2.154,1.396,3.736,1.57"/>
		<path style="fill:none;stroke:#FF0050;stroke-width:3;" d="M763.993,996.053c1.506-0.752,3.338-0.809,4.891-1.574
			c1.016-0.494,3.098-2.061,4.203-0.736"/>
		<path style="fill:none;stroke:#FF0050;stroke-width:3;" d="M778.192,996.979c1.346-0.664,2.744-1.18,4.357-1.484
			c2.189-0.414,3.699-1.441,5.355-2.672"/>
		<path style="fill:none;stroke:#FF0050;stroke-width:3;" d="M793.015,900.822c0.125-1.939-0.873-3.971-0.873-5.91
			c0-2.219,0.25-4.619,0.625-6.84c0.748-4.984,3.488-10.25,6.852-14.684c6.598-9.051,18.807-16.166,31.883-19.676
			c4.855-1.295,9.592-2.311,14.697-2.494c4.607-0.275,10.211-0.83,14.818-0.371l467.424-2.949l54.688,228.098l-519.121,28.51
			c-1.867,0-3.613-0.096-5.48-0.096c-11.459,0.186-26.402-0.738-35.496-6.559c-5.105-3.326-10.336-7.205-14.572-11.27
			c-4.732-4.711-7.598-9.236-9.215-14.871c-1.621-5.82-3.238-11.455-3.238-17.365c0-2.404-0.25-4.709-0.375-7.109
			c-0.125-1.48,0.5-3.145,0.125-4.529"/>
		<path style="fill:none;stroke:#FF0050;stroke-width:3;" d="M815.138,935.725l-0.078-41.922c0.998-2.955,1.373-5.73,2.74-8.59
			c2.865-5.82,7.473-10.811,14.199-14.596c3.613-2.033,7.846-3.234,12.203-4.434c2.619-0.646,5.359-1.201,8.1-1.57
			c1.992-0.275,5.73,0,7.348-0.645l448.209-1.244l47.629,198.006l-487.859,26.316c-2.115-0.371-4.73,0.279-7.098,0.279
			c-1.496,0-2.988,0-4.486,0c-3.238-0.096-6.973,0-10.211-0.836c-7.102-1.66-12.207-6.834-15.572-11.449
			c-1.492-1.945-2.486-3.975-3.234-6.1c-0.998-2.494-3.238-6.189-2.24-8.686"/>
		<path style="fill:none;stroke:#FF0050;stroke-width:3;" d="M860.028,870.338c-0.625,0.371-2.615,0.186-3.738,0.186
			c-2.242,0-4.107,0.186-6.225,0.645c-3.363,0.834-6.604,1.666-9.717,2.959c-6.479,2.496-11.584,7.76-13.201,12.932
			c-0.623,1.85,0.396,3.695,0.021,5.539c-0.25,1.48,1.768,3.699,0.52,4.9l4.049,165.348c-0.125,2.215,2.512,5.635,3.51,7.666
			c1.242,2.494,3.857,4.709,6.35,6.465c2.863,1.939,4.984,2.955,8.967,3.045c2.865,0.1,5.98,0.1,8.969,0c0.625,0,1.119,0,1.742-0.18
			l481.867-25.217l-42.928-187.104L860.028,870.338z"/>
		<path style="fill:none;stroke:#FF0050;stroke-width:3;" d="M811.21,1069.957c0.246,3.234,3.734,7.668,6.475,10.064
			c2.49,2.221,4.611,4.529,7.102,6.654c4.357,3.789,11.084,7.76,17.684,9.145c5.854,1.111,12.582,0.83,18.557,0.83l511.516-25.891
			l-51.16-218.066l-463.23,3.514c-6.973,0-14.318,0.832-21.295,1.662c-7.971,1.02-13.201,3.879-19.182,7.668
			c-4.482,2.861-8.344,6.371-10.711,10.439c-2.115,3.416-2.615,7.018-3.613,10.711"/>
		<line style="fill:none;stroke:#FF0050;stroke-width:3;" x1="815.069" y1="1002.943" x2="818.278" y2="1060.605"/>
		<line style="fill:none;stroke:#FF0050;stroke-width:3;" x1="819.774" y1="891.51" x2="822.712" y2="1056.148"/>
		<line style="fill:none;stroke:#FF0050;stroke-width:3;" x1="809.442" y1="1063.404" x2="809.778" y2="1068.58"/>
		<path style="fill:none;stroke:#FF0050;stroke-width:3;" d="M853.88,877.99l439.865-4.801c0,0,42.338,178.383,39.986,178.383
			c-2.35,0-479.266,22.242-479.266,22.242s-14.117-3.928-14.117-10.031s-9.359-172.273-9.359-172.273S836.235,880.172,853.88,877.99
			z"/>
	</g>
	<path style="fill:none;stroke:#17192D;stroke-width:3;" d="M2048,0"/>
	<path style="fill:none;stroke:#17192D;stroke-width:3;" d="M2048,1536"/>
	<path style="fill:none;stroke:#17192D;stroke-width:3;" d="M0,1536"/>
	<path style="fill:none;stroke:#17192D;stroke-width:3;" d="M0,0"/>
</g>
<g id="Layer_1">
</g>
</svg>
