<svg xmlns="http://www.w3.org/2000/svg" width="2048" height="1536" viewBox="0 0 2048 1536"><g fill="none" stroke-width="3"><g stroke="#FF0050"><path d="M363.05 818.277c-.37-2.014-4.285-5.402-6.86-6.146.808 5.86-1.597 12.312-1.558 18.11-5.484-.11-10.38-3.81-15.477-4.97.352 5.038.533 10.888 1.79 15.796-3.804.16-22.757-2.56-22.99 1.89-.058 1.08 2.415 3.616 3.038 4.67.973 1.644 1.842 3.42 2.65 5.063 1.324 2.696 3.605 5.04 4.865 7.526-6.72-.064-7.408 5.562-7.477 9.455-1.144.048-2.575-.132-3.694.083-1.525.29-1.936 1.273-3.69 1.062 1.794-4.272 5.253-11.184 1.29-15.637-.998-1.12-1.918-1.596-3.818-1.617-2.96-.024-2.41.44-3.162 2.177-.998 2.307-2.984 4.994-2.79 7.477-8.6.457-11-10.73-18.876-10.078-1.033 2.973.033 5.95 1.574 8.73.848 1.53 2.1 2.92 3.588 4.157.545.45 2.967 1.682 3.14 2.12.417 1.077-1.167 2.474-1.733 3.468-1.08 1.886-1.774 4.01-1.972 6.065-.2 2.11-.443 5.068.56 7.02 1.046 2.048 3.894 4.466 6.005 5.954.783.55 1.73.88 2.455 1.423 1.7 1.26 1.17 1.13 1.885 2.67 1.627 3.498 5.76 4.754 10.883 4.715 6.35-.043 32.326-14.732 32.652-2.537.117 4.345-4.15 7.79-9.398 9.274-4.354 1.234-13.05 1.445-16.732-.963-2.62-1.72-2.586-2.99-6.14-3.98-3.792-1.06-6.835-1.835-10.96-1.563-5.86.39-11.535 2.47-15.854 5.312-1.846 1.216-3.576 3.577-5.998 2.82-1.54-.48-3.453-2.907-4.88-3.743-3.21-1.883-15.552-5.48-17.813-.932-1.094 2.197 1.936 4.258 2.54 6.47-6.386 2.063-13.522 6.15-16.103 10.792 3.668.287 13.95 3.818 14.87 6.69-4.353.2-8.147.702-12.108 2.276-3.438 1.37-9.252 4.918-10.844 7.404 2.31-.04 5.213-.607 7.38.082-2.804 4.98-5.823 10.876-5.2 16.31 7.33-2.63 15.562-4.604 23.9-3.205 3.582.602 6.254 2.314 8.154 4.61.826 1 2.06 2.294 2.104 3.46.047 1.156-1.145 2.11-.977 3.42-4.204 1.44-10.84 5.225-12.694 8.498-2.14-3.342-1.484-6.426-7.162-8.176-4.154-1.283-7.988.154-11.27 1.975-1.988 1.105-3.717 2.834-5.85 3.746-1.838.787-3.123.283-5.27.684-3.785.697-6.63 3.678-9.244 5.52-2.83-3.656-8.887-.965-11.635 1.16 3.2 3.705 8.773 5.506 12.258 8.72 1.648 1.52 2.977 2.323 5.494 3.054 2.15.623 5.312.322 7.084 1.2 1.903.94 3.282 2.878 5.374 3.933 1.904.952 4.115 2.243 6.21 2.89 4.935 1.514 11.452.094 14.698-2.943.852-.8 1.602-1.824 2.156-2.723 2.443 2.594 3.84 5.828 6.383 8.307 1.644 1.6 4.2 2.624 5.976 4.16-5.316.792-11.898 5.243-11.176 9.837-6.783-.873-11.416-6.72-17.67-7.828-.422 5.26 1.455 10.417 6.414 14.323-4.654 1.775-8.393 4.43-12.664 6.5 1.48 1.443 3.055 3.203 4.783 4.598 1.084.874 4.857 1.833 5.395 2.538.576.766-2.46 4.543-3.115 5.764-1.148 2.16-2.133 4.396-2.95 6.607 5.032.202 11.708.993 16.638.09 2.75 3.93-1.345 4.956-3.964 7.554-1.514 1.506-2.107 3.27-3.652 4.805 5.85.472 9.842 1.22 15.15-.647 3.625-1.28 7.664-2.63 11.174-4.082 3.016 2.02 4.268 4.6 8.088 5.976 2.74.99 6.86 2.492 9.918 2.285.715 2.4 1.877 4.69 3.227 6.888 1.68 2.727 4.38 4.172 6.74 6.383-2.08 1.79-4.368 2.905-5.57 5.124-1.51 2.787-1.677 3.18-4.993 5.283-3.295 2.094-6.736 4.83-7.982 8.115-1.377 3.623.068 7.73-1.08 11.305-.543 1.688-1.842 3.037-2.947 4.61-1.66 2.362-2.83 5.192-4.81 7.382 6.59 2.08 14.77-5.19 19.91-7.085-.114 3.785 1.356 9.877 3.843 13.266.315.427 2.118 2.806 2.794 2.98 1.742.462 4.537-1.585 5.777-2.7 6.02-5.39-.292-11.562.427-17.27 5.88-.254 8.34-.443 12.658 2.473-.25 2.95-.773 5.898-1.183 8.793-.228 1.604-.18 3.863-1.257 5.26 2.74.16 5.7-.232 8.406-.004 2.56.22 2.69.125 4.41 2.09-4.458 3.727-7.378 9.455-11.038 13.64-2.748 3.142-2.383 6.39-2.98 9.903 3.99-1.69 10.826-3.502 15.46-2.895.726 4.7-.48 9.477.714 14.182 5.11.71 9.914-3.57 14.516-4.096.418 3.42-1.336 6.918-.592 10.367.416 1.943 1.768 3.488 1.643 5.506 3.188-2.577 7.055-4.767 10.887-6.9 2.533-1.415 6.336-5.11 9.885-4.616M359.32 1145.537c4.964.12 8.968-9.14 11.815-10.836M342.218 1134.93c2.69-2.58 4.654-5.148 8.1-7.627 1.682-1.213 3.63-2.3 5.578-3.264 2.01-.99 4.65-1.554 6.535-2.716M345.638 1113.943c3.98-3.29 10.637-2.45 15.234-4.65 2.518-1.21 4.38-3.682 5.45-5.682 1.17-2.198 3.42-5.962 3.21-8.306-6.246-1.695-10.58 3.148-14.557 5.963-2.568 1.814-5.11 3.535-7.45 5.53-1.77 1.507-3.65 5.464-6.24 5.993M312.052 1073.123c3.36-2.578 6.762-3.137 9.088-6.445 2.414-3.432 6.52-5.182 11.455-3.865 4.64 1.242 6.8 3.84 10.55 5.926 3.034 1.69 8.21 1.54 10.558 3.175-4.43 1.775-6.518 5.32-10.572 7.217-3.866 1.807-5.66.193-8.925-1.625-5.016-2.793-13.266-5.37-18.42-1.385M306.765 1090.65c1.7-.8 3.734-1.76 5.91-2.133 4.133-.71 5.557.873 9.016 2.365M311.433 885.16c2.03.47 5.156.793 7.393.46 3.326-.493 4.732-2.876 7.22-4.614M343.46 856.793c2.547-.293 7.287 1.7 10.26 2.074 2.963.373 5.643.468 8.465 1.156 4.812 1.166 5.984 4.268 7.377 7.838-10.697 3.605-19.2-1.97-25.482-7.837M355.896 844.34c3.645.38 5.752 3.58 9.02 4.61M364.606 833.268c2.13.955 3.445 3.316 5.906 4.38M366.47 909.375c-4.883.512-8.66.545-12.646 2.94 3.643 1.403 6.65 3.864 10.465 5.304 3.93 1.493 7.88 2.835 11.618 4.606 5.44 2.582 9.85 7.21 13.885 10.947 1.04.963 1.98 2.582 3.188 3.363 1.966 1.273 1.403 1.338 4.534.104 3.406-1.342 6.61-2.848 10.014-4.137 5.816-2.217 9.562-4.9 12.363-9.043.33 5.54 2.556 10.807 2.556 16.36 0 4.864-1.893 9.33-4.654 13.733-2.887 4.598-9.145 7.996-13.998 11.352-2.24 1.553-4.422 3.264-6.31 5.184-.853.858-2.895 3.67-3.333 3.4M402.23 993.094c1.75 1.78 4.874 3.12 6.9 4.934 2.817 2.516 4.77 5.566 6.796 8.46 2.887 4.112 4.285 8.054 5.898 12.5 1.785 4.905 2.906 10.978 6.19 15.34-4.058.233-8.114-.15-11.774-.872-2.543-.504-4.404-.7-6.547-1.623-1.578-.676-3.127-1.54-4.662-2.297-4.82-2.39-9.75-5.41-13.66-8.34-8.13 3.55-10.39 12.87-12.16 18.95-1.093 3.75-3.034 7.702-5.442 11.198-1.46 2.11-2.984 3.94-4.887 5.863-1.552 1.57-4.39 2.744-5.51 4.348 3.782.146 6.91.6 10.562.035M421.51 1062.975c-1.767 2.336-15.29-8.512-18.913-8.512-.408 2.154-2.72 3.78-3.174 5.965-.307 1.473-.582 3.166-.637 4.586-6.027.525-12.617 3.52-12.453 8.535-5.094.036-9.18 5.76-11.984 8.267 3.602 2.71 6.524 4.576 8.68 8.086 1.343 2.186 2.99 3.87 5.52 5.308 5.415 3.082 12.18 3.674 18.66 4.897M396.01 1079.81c5.19-.386 10.067 6.726 13 9.194-4.063.184-6.24.95-9.26-.89-1.894-1.16-4.882-3.327-5.292-5.077M396.01 1113.943c6.647 2.297 13.233 4.818 14.687 10.59-.098-1.64-6.035-.09-7.838-.197-3.54-.21-8.71-3.18-9.335-5.777M390.106 892.77c-.41.01-.805.014-1.2-.02.206-3.862 8.048-2.573 11.06-3.425-3.41 2.426-4.962 4.668-6.82 7.83-1.015 1.72-3.23 5.385-6.466 4.15M386.995 857.945c1.967.422 9.752-3.527 12.07-4.53.28 3.33-1.252 10.07-6.783 10.755M376.112 821.508c4.383-1.592 10.023-4.53 13.043-7.824 1.707-1.857 2.314-5.488 4.68-6.732 2.36 1.33 4.186 3.193 6.43 4.637 3.344 2.138 5.46 3.187 6.32 6.51 1.277 4.933-3.008 8.42-6.217 12.364 3.627.432 5.648-2.275 8.41-3.174 2.22 2.99 2.3 6.29 2.473 9.623.118 2.24-.407 2.047 2.27 2.584 1.48.297 3.044.104 4.59.457 8.808 2.03-2.062 10.934-3.128 14.535M414.67 1111.637c-.228.95 1.335 1.906 2.308 2.758 2.193 1.918 4.082 3.863 5.402 6.232 1.457 2.607 2.43 5.36 3.256 8.105.297.967.666 2.666 1.238 2.97-2.998.108-4.297-.55-6.916.698-1.95.934-3.854 2.568-5.004 4.05 3.938 2.73 3.258 6.632 5.248 9.76-.584-1.017-4.15-1.66-5.867-.923-1.28.557-3.05 3.3-4.086 4.186-1.583 1.348-2.817 2-3.353 3.69-.834 2.66.496 6.105.887 8.712-1.574.258-2.81 1.074-4.357 1.195 1.363 1.14 3.154 2.494 3.72 4.684.513 1.98.776 4.1.995 6.1.354 3.277-2.56 4.113-4.482 6.826-.783 1.11-1.316 5.412-2.955 4.736 2.486.78 3.527 5.44 4.568 7.412 1.217 2.31 3.588 4.11 5.045 6.375 2.074 3.225 5.795 9.918 10.414 11.33-3.674-.448-7.166 4.236-7.334 6.697-4.06.154-7.148-.025-10.736 1.643-2.412 1.127-6.684 2.4-8.52 4.078-1.397-3.397-.778-7.17-1.24-10.767-.34-2.662-.726-5.248-1.24-7.9-.583-2.982.187-6.088-1.94-8.943-3.616-4.865-7.495-7.334-8.394-13.076-.668-4.26 6.072-7.824 5.238-11.777-1.824-.594-4.633-.54-6.28-1.53-3.294-1.98-1.698-6.966-3.554-9.577M372.38 809.97c-.113.415-.44.5-.246.913 1.067-3.342 2.615-7.07 1.807-10.895-.653-3.084-2.42-4.152.07-7.133.946-1.13 2.073-2.713 3.655-3.424 1.12-.5 2.512-.18 3.344-.962.872-.822.888-2.98 1.327-4.096.654-1.64 1.12-3.13 1.277-4.83 3.22 1.643 9.447 2.117 13.283 2.326.34 4.78-.43 9.633.057 14.45.172 1.728-.328 4.09 1.002 5.573.924 1.034 2.758.943 2.723 2.315M408.452 864.863c2.312.916 4.658-2.646 5.926-3.842-.64 6.243.135 12.097-1.496 18.333-.645 2.47-1.244 4.75-2.262 7.193-.578 1.385-2.05 3.225-2.135 4.627 7.416 1.09 2.74 8.947 3.102 12.64 2.36.01 5.7-1.034 8.293-1.304 2.018-.218 3.988-.394 5.936-.724.275 3.303-.666 6.287-.88 9.432M412.18 971.88c.663.886 6.2-.298 8.105-.233 2.965.09 3.963.422 6.27 1.846 4.673 2.873 7.886 6.3 11.964 9.41-5.128 1.898-7.386 7-12.347 9.104-3.496 1.482-9.152 1.088-13.06 1.088M418.4 998.17c2.237 2.146 6.985 4.207 6.845 7.38M414.98 966.57c4.062-.52 10.68-6.4 12.13-9.227M379.532 965.65c-.09.69-2.43-1.334-3.188-2.13-1.178-1.24-1.957-2.696-2.81-4.038-2.657-4.207-4.567-8.535-7.927-12.518-2.455-2.916-4.79-3.58-9.412-3.69-2.232-.052-14.973.407-14.293 3.462M360.253 967.49c.52.152 1.2.432 1.527.646-11.963.773-18.908-7.473-23.537-14.32-2.955-4.375-8.436-15.312-16.86-14.46M361.497 1001.395c.297-1.893-6.604-.584-8.11.053-3.388 1.428-5.044 4.662-7.13 6.92-5.928 6.424-10.525 14.824-20.523 18.398M344.394 1023.074c5.21-.287 10.428 2.268 15.236.01 3.64-1.713 5.53-4.977 7.53-7.62 2.2-2.907 2.394-5.724 3.58-8.89.538-1.438 1.097-2.38 2.628-3.152 1.166-.59 3.02-.684 4.29-1.14 1.938-.706 3.624-1.815 5.604-2.5M372.688 992.633c4.686 1.514 11.254-1.918 14.926-3.69M371.446 975.797c1.63.55 3.398-.244 5.062-.412 3.148-.307 5.857.545 8.93.873M334.44 968.188c.422.418.93.375 1.023.908.05-3.467-2.715-6.38-5.076-9.262-3.01-3.686-5.6-8.246-9.238-11.545-1.89-1.712-4.565-3.726-6.99-5.017-2.685-1.414-6.35-1.506-9.245-2.314-3.69-1.032-5.506-4.165-10.285-4.147-.998.006-1.105.822-2.176.715-.65-.064-2.475-1.31-3.18-1.63-2.082-.952-4.826-1.933-7.338-1.587-.28 2.292.81 7.313 2.44 9.2M282.51 1019.848c-.42.857 1 2.926.94 4.37-.076 1.75-.873 3.4-1.01 5.128 4.275-.945 8-2.59 11.273-4.887.676-.474 2.125-2.147 2.87-2.32 1.862-.425.976.476 2.407.935 2.93.947 4.314-.184 6.84-2.064.973-.722 1.713-1.667 2.732-2.317 1.314-.834 2.373-1.002 4.133-1.668 11.227-4.26 18.71-14.492 21.125-23.006M335.374 975.564c1.527 3.678 1.178 6.62 1.557 10.38M297.435 946.044c2.086 1.937 2.826 7.21 3.424 9.68.864 3.577 2.35 7.083 3.108 10.67 1.377 6.51.848 13.206 1.244 19.792.318 5.266 1.28 11.424-.305 16.596-.86 2.795-2.59 7.98-5.297 9.918M290.595 955.73c5.352 10.557 7.773 21.473 7.773 32.756 0 4.758-.504 9.004-1.854 13.598-1.162 3.94-4.018 7.453-4.053 11.535M280.956 965.418c0 11.51-2.12 23.176 4.354 33.904M271.626 1015.238c.297-1.834 4.447-1.502 4.354-3.463M267.583 1024.227c.24-.283.533-.533.877-.744-2.104-.012-3.27 1.312-5.54.977M269.14 1034.84c-.898.52-1.725 1.2-2.49 1.613M257.634 942.354c.21-.46.848-.723.97-1.31 1.94.26 4.497.483 6.493.39M270.692 917.908c3.412.375 6.594 2.436 7.777 4.844M261.054 979.027c-1.133-.082-.586 1.514-.668 2.504-.31.052-.572.015-.885.03M232.134 972.8c.314-.048.56-.155.86-.202.95.648 1.962 1.396 2.87 2.043M234 985.02c1.567-.89 4.42-1.695 4.663-3.46M295.882 916.988c4.715.383 7.445 6.633 13.684 6.688 2.826.027 5.08-.27 7.77-.695.974-.155 2.147-.507 3.112-.46 2.53.143 3.488 1.492 5.91 2.078M336.308 931.518c3.475.812 5.38 3.488 9.33 3.92M294.015 1049.365c3.768-1.88 8.336-2.02 12.22-3.932 2.526-1.238 7.728-5.14 10.483-1.832M329.468 1051.676c3.363-1.648 6.857-2.943 10.883-3.705 5.472-1.034 9.24-3.6 13.37-6.675M366.48 811.602c.312-4.848-2.175-9.92-2.175-14.762 0-5.537.623-11.533 1.557-17.068 1.863-12.453 8.707-25.598 17.104-36.67 16.48-22.6 46.953-40.36 79.607-49.123 12.125-3.23 23.94-5.765 36.69-6.23 11.507-.693 25.5-2.078 37.005-.92l1167.04-7.38 136.546 569.51-1296.123 71.183c-4.665 0-9.02-.232-13.68-.232-28.61.466-65.925-1.845-88.628-16.374-12.75-8.303-25.81-17.984-36.383-28.137-11.817-11.76-18.97-23.065-23.015-37.132-4.043-14.53-8.082-28.6-8.082-43.357 0-5.995-.623-11.76-.934-17.757-.31-3.693 1.243-7.846.31-11.303M421.718 898.746l-.195-104.678c2.486-7.377 3.42-14.297 6.84-21.447 7.154-14.524 18.66-26.98 35.453-36.437 9.016-5.074 19.588-8.068 30.47-11.072 6.536-1.61 13.376-2.997 20.218-3.917 4.973-.69 14.303 0 18.346-1.613l1119.07-3.102 118.926 494.373-1218.074 65.706c-5.287-.926-11.816.69-17.723.69H523.85c-8.086-.23-17.412 0-25.498-2.077-17.727-4.15-30.477-17.07-38.873-28.597-3.728-4.848-6.214-9.918-8.08-15.223-2.487-6.23-8.09-15.45-5.597-21.68"/><path d="M533.792 735.492c-1.553.92-6.53.46-9.33.46-5.596 0-10.26.46-15.545 1.612-8.396 2.078-16.484 4.156-24.256 7.38-16.17 6.23-28.92 19.376-32.962 32.294-1.557 4.61.988 9.22.057 13.832-.625 3.69 4.408 9.227 1.3 12.225l10.103 412.834c-.31 5.534 6.275 14.07 8.762 19.14 3.11 6.23 9.64 11.766 15.86 16.145 7.153 4.844 12.438 7.38 22.39 7.61 7.152.235 14.926.235 22.39 0 1.556 0 2.798 0 4.353-.462l1203.102-62.955-107.18-467.148-1099.043 7.032zM411.905 1233.89c.62 8.07 9.326 19.142 16.17 25.134 6.22 5.535 11.506 11.305 17.727 16.607 10.88 9.46 27.674 19.374 44.154 22.833 14.615 2.77 31.408 2.074 46.334 2.074l1277.137-64.643-127.737-544.458-1156.574 8.77c-17.412 0-35.758 2.073-53.176 4.147-19.902 2.54-32.96 9.69-47.887 19.146-11.193 7.147-20.838 15.91-26.742 26.06-5.286 8.534-6.53 17.524-9.02 26.75M421.544 1066.57l8.006 143.963M433.288 788.348l7.342 411.07M407.497 1217.53l.834 12.92"/><path d="M518.444 754.59l1098.236-11.98s105.713 445.37 99.842 445.37-1196.61 55.535-1196.61 55.535-35.25-9.8-35.25-25.043-23.376-430.125-23.376-430.125 13.11-28.312 57.158-33.757z"/></g><path d="M2048 0M2048 1536M0 1536M0 0" stroke="#17192D"/></g></svg>