<svg xmlns="http://www.w3.org/2000/svg" width="2048" height="1536" viewBox="0 0 2048 1536"><g fill="none" stroke-width="3"><g stroke="#FF0050"><path d="M921.27 617.537c-.083.45-.956 1.205-1.527 1.367.17-1.307-.358-2.744-.354-4.04-1.222.022-2.315.85-3.454 1.116.076-1.127.123-2.436.398-3.527-.846-.04-5.08.566-5.13-.426-.01-.242.536-.8.675-1.04.218-.372.415-.767.593-1.134.3-.602.805-1.127 1.088-1.676-1.497.012-1.65-1.244-1.663-2.113-.264-.008-.582.03-.836-.018-.333-.068-.425-.283-.815-.236.4.955 1.17 2.496.287 3.488-.223.25-.43.357-.855.36-.662.007-.533-.093-.7-.485-.224-.516-.667-1.113-.624-1.668-1.924-.1-2.457 2.39-4.215 2.25-.232-.662.008-1.326.352-1.95.19-.343.47-.647.8-.923.126-.1.664-.38.706-.48.094-.235-.268-.55-.39-.77-.243-.42-.394-.894-.44-1.354-.046-.47-.1-1.13.125-1.564.233-.457.87-.998 1.34-1.334.18-.12.386-.19.55-.314.377-.283.258-.254.416-.594.365-.783 1.287-1.062 2.432-1.054 1.418.01 7.213 3.29 7.285.567.027-.977-.928-1.736-2.094-2.072-.974-.27-2.917-.322-3.735.22-.59.382-.576.665-1.37.886-.85.24-1.524.407-2.45.35-1.307-.09-2.572-.554-3.535-1.187-.416-.273-.8-.803-1.338-.635-.344.11-.77.652-1.087.838-.724.422-3.476 1.227-3.976.207-.245-.49.43-.95.567-1.44-1.427-.458-3.023-1.374-3.602-2.415.822-.06 3.12-.852 3.316-1.488-.966-.047-1.813-.158-2.69-.512-.77-.3-2.074-1.096-2.426-1.646.517.008 1.164.133 1.646-.02-.623-1.11-1.3-2.433-1.162-3.64 1.635.588 3.48 1.027 5.34.713.8-.133 1.393-.516 1.818-1.027.182-.225.46-.508.47-.77.013-.264-.26-.475-.216-.766-.94-.324-2.426-1.166-2.834-1.898-.48.744-.336 1.438-1.6 1.828-.926.285-1.785-.037-2.518-.44-.443-.247-.83-.634-1.307-.837-.403-.176-.692-.064-1.175-.15-.846-.158-1.475-.826-2.06-1.238-.628.816-1.983.22-2.6-.254.716-.83 1.958-1.234 2.737-1.95.365-.333.666-.515 1.227-.68.476-.136 1.18-.07 1.582-.274.42-.202.73-.638 1.194-.874.426-.21.926-.498 1.39-.64 1.097-.34 2.556-.02 3.278.653.193.185.357.407.482.604.545-.576.855-1.3 1.418-1.85.37-.355.943-.588 1.342-.928-1.186-.178-2.658-1.17-2.502-2.2-1.506.2-2.543 1.503-3.94 1.747-.095-1.17.327-2.326 1.437-3.195-1.04-.395-1.88-.988-2.83-1.45.33-.32.685-.714 1.067-1.026.24-.195 1.084-.404 1.21-.564.124-.172-.552-1.016-.698-1.29-.255-.474-.473-.978-.663-1.472 1.127-.043 2.615-.22 3.72-.018.606-.877-.304-1.105-.89-1.686-.34-.34-.47-.727-.816-1.076 1.308-.098 2.202-.273 3.386.143.81.288 1.708.59 2.494.915.668-.45.95-1.027 1.807-1.338.61-.223 1.523-.55 2.21-.508.16-.538.415-1.046.72-1.536.375-.605.978-.934 1.502-1.428-.458-.4-.974-.64-1.24-1.145-.34-.618-.374-.704-1.117-1.177-.737-.465-1.503-1.08-1.782-1.81-.304-.806.02-1.722-.24-2.522-.12-.374-.41-.675-.653-1.026-.37-.525-.633-1.162-1.076-1.648 1.472-.47 3.3 1.157 4.44 1.584-.025-.848.305-2.207.865-2.965.064-.094.47-.627.62-.666.39-.105 1.01.356 1.29.604 1.342 1.2-.064 2.582.09 3.855 1.32.054 1.86.093 2.83-.552-.057-.668-.172-1.32-.268-1.963-.047-.36-.032-.863-.275-1.178.61-.035 1.27.05 1.877 0 .56-.05.597-.03.983-.465-1.002-.83-1.652-2.107-2.47-3.04-.61-.706-.528-1.43-.665-2.212.89.375 2.42.78 3.457.645.16-1.05-.11-2.115.154-3.164 1.136-.16 2.216.8 3.24.91.093-.76-.298-1.538-.134-2.31.098-.437.39-.776.365-1.228.71.576 1.58 1.066 2.435 1.54.56.317 1.417 1.144 2.203 1.032M920.437 544.502c1.105-.03 1.996 2.043 2.633 2.418M916.614 546.867c.602.572 1.04 1.148 1.814 1.705.375.266.805.512 1.238.727.45.218 1.04.347 1.463.604M917.38 551.553c.885.73 2.377.547 3.396 1.037.564.27.982.82 1.223 1.264.26.494.76 1.334.714 1.857-1.395.376-2.363-.704-3.248-1.327-.572-.408-1.14-.795-1.666-1.234-.395-.337-.812-1.224-1.39-1.343M909.886 560.662c.748.578 1.506.7 2.03 1.438.535.762 1.454 1.156 2.552.86 1.04-.276 1.518-.856 2.355-1.32.68-.374 1.838-.345 2.357-.71-.988-.396-1.45-1.184-2.36-1.61-.86-.403-1.265-.042-1.99.366-1.12.62-2.962 1.197-4.11.307M908.708 556.748c.377.182.834.393 1.316.48.928.157 1.242-.194 2.012-.526M909.75 602.61c.45-.103 1.147-.18 1.645-.103.744.11 1.056.64 1.613 1.03M916.897 608.938c.562.07 1.625-.373 2.29-.463.66-.088 1.26-.104 1.886-.254 1.076-.26 1.335-.954 1.648-1.75-2.386-.8-4.288.438-5.687 1.75M919.667 611.72c.818-.085 1.29-.804 2.014-1.03M921.617 614.186c.476-.205.77-.74 1.315-.97M922.028 597.203c-1.088-.115-1.932-.12-2.82-.652.812-.313 1.488-.864 2.334-1.183.88-.336 1.76-.637 2.594-1.027 1.215-.578 2.2-1.613 3.098-2.45.232-.208.443-.57.715-.747.437-.283.308-.297 1.005-.02.766.296 1.48.632 2.236.92 1.3.495 2.136 1.097 2.763 2.022.074-1.24.568-2.418.568-3.652 0-1.088-.42-2.082-1.036-3.062-.645-1.028-2.043-1.784-3.127-2.532-.498-.35-.98-.732-1.405-1.158-.19-.193-.642-.82-.745-.762M930.01 578.523c.394-.4 1.095-.693 1.538-1.102.633-.563 1.066-1.243 1.52-1.892.648-.912.96-1.795 1.314-2.787.4-1.093.654-2.452 1.38-3.423-.9-.05-1.81.033-2.626.197-.568.107-.98.154-1.463.36-.348.15-.697.34-1.037.513-1.074.533-2.176 1.21-3.045 1.863-1.813-.793-2.32-2.87-2.718-4.23-.244-.835-.676-1.72-1.213-2.5-.327-.476-.667-.88-1.09-1.31-.35-.35-.985-.606-1.23-.968.84-.035 1.536-.133 2.355-.01M934.313 562.926c-.395-.516-3.414 1.9-4.22 1.9-.095-.48-.606-.848-.71-1.332-.068-.328-.13-.707-.14-1.025-1.343-.116-2.815-.788-2.78-1.905-1.135-.004-2.047-1.287-2.676-1.842.805-.61 1.46-1.023 1.94-1.807.296-.486.667-.865 1.23-1.182 1.208-.693 2.722-.822 4.163-1.098M928.624 559.17c1.156.086 2.248-1.5 2.898-2.05-.908-.044-1.395-.216-2.064.196-.425.262-1.088.74-1.18 1.13M928.624 551.553c1.48-.512 2.955-1.08 3.277-2.365-.02.365-1.347.02-1.745.047-.793.043-1.95.705-2.088 1.285M927.308 600.912h-.27c.046.863 1.796.576 2.472.77-.762-.54-1.11-1.045-1.52-1.75-.23-.383-.724-1.2-1.446-.926M926.614 608.68c.434-.094 2.172.79 2.69 1.016.063-.744-.282-2.25-1.513-2.404M924.185 616.814c.97.36 2.232 1.01 2.912 1.742.38.422.512 1.23 1.045 1.506.525-.293.93-.71 1.432-1.033.744-.478 1.22-.716 1.412-1.454.283-1.102-.672-1.88-1.39-2.758.808-.1 1.26.508 1.88.71.494-.67.512-1.407.545-2.15.032-.5-.085-.456.51-.577.33-.067.683-.02 1.022-.103 1.97-.45-.455-2.443-.695-3.242M932.792 552.064c-.057-.207.29-.426.512-.615.49-.423.912-.862 1.2-1.39.33-.586.55-1.2.726-1.812.074-.215.156-.594.28-.658-.667-.025-.96.12-1.54-.158-.44-.21-.865-.572-1.123-.904.883-.605.727-1.48 1.174-2.176-.128.225-.923.375-1.306.203-.29-.12-.684-.736-.916-.934-.354-.296-.623-.442-.744-.82-.186-.595.107-1.364.197-1.94-.35-.065-.622-.242-.972-.27.303-.26.707-.556.83-1.046.117-.443.175-.916.22-1.363.077-.73-.567-.92-1-1.522-.173-.244-.29-1.21-.66-1.06.56-.167.788-1.212 1.02-1.65.276-.517.8-.917 1.132-1.42.465-.722 1.285-2.214 2.322-2.532-.822.098-1.6-.947-1.64-1.494-.9-.033-1.594.01-2.395-.36-.537-.26-1.488-.538-1.9-.91-.31.755-.176 1.595-.275 2.397-.078.593-.164 1.17-.28 1.763-.128.668.044 1.355-.43 1.996-.808 1.083-1.673 1.638-1.876 2.915-.146.947 1.352 1.748 1.17 2.633-.408.13-1.035.12-1.402.336-.734.443-.377 1.557-.79 2.143M923.35 619.39c-.026-.09-.1-.11-.052-.2.236.738.58 1.574.396 2.426-.143.69-.533.928.02 1.596.206.25.46.605.813.762.25.11.56.037.744.215.198.18.202.665.302.915.143.365.25.697.28 1.074.722-.362 2.112-.47 2.968-.517.076-1.066-.09-2.15.012-3.227.04-.387-.072-.916.22-1.238.212-.232.624-.215.61-.525M931.397 607.14c.516-.206 1.04.59 1.324.856-.14-1.39.036-2.697-.333-4.086-.146-.555-.275-1.062-.504-1.613-.13-.31-.46-.72-.48-1.033 1.657-.24.612-1.99.694-2.816.525-.004 1.273.232 1.854.287.448.053.892.086 1.327.164.06-.74-.146-1.403-.203-2.105M932.228 583.258c.15-.2 1.385.064 1.81.053.664-.02.884-.1 1.4-.413 1.044-.645 1.764-1.402 2.675-2.098-1.148-.427-1.652-1.563-2.758-2.036-.777-.326-2.043-.24-2.916-.24M933.617 577.39c.503-.48 1.562-.94 1.53-1.645M932.856 584.438c.906.12 2.383 1.428 2.71 2.06M924.95 584.648c-.025-.156-.55.297-.715.473-.266.28-.44.603-.633.9-.594.946-1.01 1.91-1.768 2.796-.545.648-1.066.795-2.093.82-.504.014-3.338-.086-3.19-.77M920.644 584.234c.117-.03.268-.098.34-.14-2.666-.18-4.22 1.663-5.252 3.19-.662.98-1.88 3.42-3.764 3.23M920.923 576.674c.064.416-1.48.13-1.814-.018-.753-.318-1.124-1.04-1.59-1.545-1.323-1.43-2.35-3.302-4.58-4.103M917.1 571.83c1.165.064 2.33-.504 3.4-.006.815.385 1.242 1.12 1.685 1.705.49.647.537 1.276.8 1.98.12.323.245.534.585.706.258.13.68.15.96.254.433.16.808.408 1.25.56M923.42 578.62c1.044-.33 2.51.43 3.333.823M923.144 582.38c.36-.124.756.062 1.127.097.702.068 1.308-.125 1.99-.2M914.88 584.084c.1-.098.207-.086.232-.207.014.775-.607 1.424-1.135 2.066-.676.824-1.248 1.844-2.057 2.58-.426.38-1.023.83-1.562 1.113-.605.318-1.418.34-2.068.52-.816.23-1.227.93-2.293.93-.223-.01-.244-.185-.48-.168-.152.02-.557.298-.71.366-.47.215-1.075.43-1.644.357-.06-.51.18-1.63.547-2.052M903.292 572.547c-.096-.184.23-.648.21-.97-.017-.394-.192-.76-.224-1.146.95.212 1.78.58 2.512 1.093.152.1.48.475.643.518.416.095.22-.106.537-.21.658-.21.963.04 1.527.46.22.16.383.374.61.517.292.19.528.223.926.37 2.503.954 4.17 3.237 4.714 5.14M915.087 582.438c.344-.822.27-1.48.348-2.318M906.626 589.018c.465-.426.627-1.604.762-2.154.193-.8.523-1.584.69-2.383.312-1.448.194-2.946.28-4.413.068-1.174.29-2.555-.068-3.707-.19-.625-.576-1.777-1.178-2.21M905.1 586.86c1.194-2.355 1.73-4.798 1.73-7.313 0-1.06-.11-2.006-.41-3.03-.26-.88-.9-1.663-.903-2.58M902.948 584.7c0-2.573-.475-5.175.97-7.567M900.862 573.58c.068.408.998.336.975.77M899.962 571.576c.053.06.12.115.2.162-.476 0-.737-.287-1.24-.215M900.312 569.205c-.203-.115-.383-.266-.56-.36M897.743 589.844c.043.104.19.168.215.297.434-.06 1.002-.11 1.45-.09M900.655 595.3c.762-.083 1.47-.54 1.732-1.077M898.51 581.662c-.26.018-.14-.34-.155-.562-.064-.01-.13 0-.195-.004M892.048 583.053c.072.008.13.033.194.043.21-.143.433-.31.64-.457M892.47 580.32c.348.203.984.38 1.037.775M906.276 595.51c1.055-.092 1.66-1.484 3.055-1.498.63-.004 1.132.06 1.73.16.22.033.486.107.697.098.564-.03.783-.33 1.324-.463M915.298 592.266c.777-.186 1.2-.78 2.082-.877M905.86 565.967c.842.418 1.857.447 2.73.873.555.27 1.72 1.148 2.336.408M913.77 565.445c.753.367 1.532.664 2.432.83 1.222.23 2.06.8 2.985 1.488M922.034 619.025c.068 1.08-.486 2.215-.486 3.295 0 1.234.137 2.572.348 3.807.412 2.783 1.94 5.713 3.81 8.186 3.685 5.045 10.483 9.004 17.77 10.965 2.712.723 5.35 1.285 8.192 1.385 2.566.158 5.69.465 8.258.21l260.45 1.644 30.472-127.096-289.252-15.884c-1.047 0-2.014.053-3.06.053-6.388-.11-14.706.41-19.778 3.65-2.848 1.858-5.76 4.013-8.117 6.28-2.64 2.623-4.23 5.152-5.138 8.29-.9 3.237-1.803 6.382-1.803 9.673 0 1.342-.14 2.623-.212 3.965-.064.822.283 1.746.072 2.52M934.36 599.578l-.043 23.357c.55 1.646.762 3.19 1.527 4.79 1.592 3.24 4.164 6.024 7.91 8.132 2.01 1.13 4.367 1.797 6.8 2.47 1.46.36 2.983.675 4.515.876 1.108.154 3.19 0 4.09.36l249.74.685 26.546-110.324-271.84-14.662c-1.178.21-2.637-.156-3.957-.156h-2.5c-1.802.057-3.88 0-5.687.465-3.957.927-6.8 3.812-8.68 6.38-.83 1.088-1.385 2.215-1.803 3.398-.55 1.39-1.803 3.45-1.248 4.844"/><path d="M959.37 636.012c-.344-.207-1.453-.104-2.078-.104-1.246 0-2.293-.104-3.47-.357-1.882-.468-3.683-.927-5.413-1.645-3.608-1.395-6.456-4.328-7.36-7.21-.344-1.032.22-2.056.014-3.083-.143-.826.984-2.06.287-2.732l2.255-92.133c-.06-1.234 1.402-3.14 1.963-4.27.688-1.39 2.15-2.624 3.535-3.606 1.596-1.077 2.78-1.645 4.998-1.692 1.597-.053 3.335-.053 5 0 .35 0 .624 0 .972.104l268.492 14.047-23.92 104.255-245.274-1.573zM932.17 524.78c.14-1.794 2.083-4.267 3.606-5.605 1.39-1.24 2.572-2.52 3.957-3.703 2.432-2.117 6.178-4.328 9.852-5.098 3.268-.625 7.01-.465 10.344-.465l285.02 14.42-28.51 121.515-258.114-1.96c-3.885 0-7.98-.468-11.863-.927-4.44-.568-7.36-2.16-10.69-4.27-2.495-1.593-4.65-3.55-5.962-5.817-1.18-1.903-1.46-3.91-2.017-5.97M934.323 562.12l1.785-32.126M936.942 624.213l1.64-91.738M931.187 528.432l.185-2.877"/><path d="M955.946 631.748l245.094 2.672s23.592-99.39 22.28-99.39c-1.308 0-267.048-12.397-267.048-12.397s-7.863 2.186-7.863 5.592c0 3.403-5.218 95.988-5.218 95.988s2.92 6.318 12.754 7.535z"/></g><path d="M2048 0M2048 1536M0 1536M0 0" stroke="#17192D"/></g></svg>