<?xml version="1.0" encoding="iso-8859-1"?>
<!-- Generator: Adobe Illustrator 15.1.0, SVG Export Plug-In . SVG Version: 6.00 Build 0)  -->
<!DOCTYPE svg PUBLIC "-//W3C//DTD SVG 1.1//EN" "http://www.w3.org/Graphics/SVG/1.1/DTD/svg11.dtd">
<svg version="1.1" xmlns="http://www.w3.org/2000/svg" xmlns:xlink="http://www.w3.org/1999/xlink" x="0px" y="0px" width="2048px"
	 height="1536px" viewBox="0 0 2048 1536" style="enable-background:new 0 0 2048 1536;" xml:space="preserve">
<g id="d1b_x5F_2">
	<g>
		<path style="fill:none;stroke:#FF0050;stroke-width:3;" d="M605.618,683.744c-0.246,1.33-2.844,3.58-4.551,4.074
			c0.533-3.885-1.059-8.164-1.037-12.01c-3.635,0.074-6.879,2.525-10.264,3.299c0.236-3.342,0.357-7.221,1.188-10.479
			c-2.525-0.107-15.09,1.695-15.244-1.252c-0.039-0.713,1.6-2.398,2.012-3.096c0.646-1.094,1.227-2.271,1.76-3.355
			c0.883-1.793,2.393-3.346,3.227-4.998c-4.451,0.047-4.912-3.682-4.955-6.268c-0.761-0.029-1.713,0.09-2.453-0.057
			c-1.014-0.193-1.285-0.842-2.451-0.701c1.195,2.836,3.488,7.416,0.861,10.367c-0.664,0.744-1.27,1.062-2.539,1.076
			c-1.961,0.016-1.592-0.293-2.09-1.445c-0.662-1.531-1.982-3.312-1.854-4.955c-5.705-0.307-7.297,7.109-12.518,6.68
			c-0.684-1.971,0.021-3.945,1.041-5.791c0.562-1.014,1.398-1.936,2.383-2.752c0.361-0.301,1.965-1.119,2.082-1.41
			c0.279-0.715-0.775-1.641-1.148-2.297c-0.719-1.248-1.174-2.66-1.309-4.023c-0.133-1.396-0.291-3.359,0.375-4.658
			c0.691-1.355,2.576-2.959,3.979-3.943c0.521-0.367,1.145-0.586,1.627-0.943c1.131-0.834,0.777-0.756,1.25-1.775
			c1.08-2.314,3.82-3.148,7.219-3.127c4.211,0.033,21.434,9.771,21.654,1.686c0.076-2.883-2.754-5.166-6.234-6.15
			c-2.885-0.818-8.654-0.961-11.098,0.641c-1.736,1.139-1.711,1.979-4.068,2.637c-2.516,0.705-4.533,1.221-7.27,1.041
			c-3.889-0.264-7.648-1.639-10.514-3.523c-1.225-0.809-2.373-2.379-3.978-1.875c-1.021,0.318-2.288,1.932-3.235,2.486
			c-2.129,1.246-10.314,3.631-11.812,0.614c-0.727-1.458,1.283-2.821,1.688-4.288c-4.242-1.367-8.973-4.078-10.682-7.158
			c2.436-0.189,9.254-2.533,9.859-4.434c-2.887-0.135-5.402-0.469-8.025-1.51c-2.281-0.908-6.139-3.262-7.197-4.912
			c1.531,0.029,3.459,0.398,4.895-0.053c-1.857-3.309-3.861-7.217-3.449-10.818c4.865,1.742,10.324,3.055,15.855,2.125
			c2.375-0.4,4.146-1.535,5.406-3.059c0.547-0.662,1.364-1.521,1.395-2.293c0.029-0.77-0.762-1.402-0.646-2.266
			c-2.787-0.955-7.191-3.467-8.418-5.641c-1.418,2.217-0.984,4.264-4.752,5.42c-2.754,0.854-5.299-0.098-7.473-1.303
			c-1.316-0.734-2.469-1.879-3.883-2.486c-1.213-0.525-2.066-0.189-3.49-0.455c-2.512-0.461-4.395-2.439-6.133-3.661
			c-1.875,2.427-5.893,0.642-7.713-0.771c2.121-2.455,5.82-3.646,8.125-5.781c1.094-1.006,1.979-1.535,3.645-2.021
			c1.428-0.416,3.521-0.219,4.697-0.799c1.264-0.621,2.18-1.906,3.561-2.607c1.266-0.633,2.736-1.492,4.121-1.914
			c3.273-1.002,7.596-0.064,9.748,1.949c0.566,0.533,1.062,1.207,1.432,1.807c1.617-1.717,2.547-3.867,4.229-5.506
			c1.092-1.062,2.787-1.742,3.967-2.762c-3.523-0.521-7.891-3.477-7.412-6.525c-4.5,0.58-7.566,4.455-11.717,5.191
			c-0.279-3.484,0.963-6.908,4.254-9.498c-3.09-1.179-5.566-2.938-8.4-4.311c0.984-0.955,2.025-2.125,3.174-3.049
			c0.719-0.576,3.217-1.213,3.574-1.682c0.383-0.508-1.631-3.016-2.061-3.824c-0.762-1.428-1.42-2.912-1.961-4.379
			c3.338-0.133,7.768-0.658,11.033-0.061c1.824-2.607-0.891-3.285-2.629-5.012c-1.006-0.998-1.396-2.162-2.426-3.188
			c3.885-0.309,6.529-0.809,10.053,0.432c2.4,0.851,5.08,1.746,7.412,2.709c2-1.342,2.826-3.055,5.363-3.961
			c1.814-0.658,4.543-1.656,6.576-1.514c0.469-1.598,1.24-3.111,2.139-4.574c1.109-1.807,2.898-2.76,4.469-4.232
			c-1.381-1.188-2.895-1.926-3.695-3.393c-1.002-1.851-1.109-2.107-3.311-3.506c-2.186-1.386-4.465-3.205-5.295-5.387
			c-0.912-2.395,0.047-5.123-0.719-7.492c-0.357-1.119-1.218-2.018-1.953-3.059c-1.098-1.566-1.875-3.445-3.188-4.895
			c4.369-1.381,9.795,3.441,13.201,4.701c-0.074-2.512,0.902-6.551,2.556-8.801c0.206-0.279,1.397-1.857,1.845-1.975
			c1.156-0.311,3.012,1.049,3.832,1.789c3.992,3.574-0.193,7.67,0.285,11.455c3.9,0.168,5.531,0.289,8.396-1.643
			c-0.168-1.957-0.518-3.91-0.787-5.828c-0.152-1.062-0.121-2.564-0.832-3.488c1.816-0.104,3.781,0.154,5.572,0.004
			c1.697-0.15,1.783-0.086,2.924-1.391c-2.955-2.469-4.891-6.266-7.316-9.045c-1.824-2.082-1.584-4.232-1.979-6.564
			c2.645,1.119,7.18,2.318,10.25,1.918c0.486-3.117-0.318-6.283,0.477-9.402c3.387-0.473,6.574,2.365,9.624,2.709
			c0.278-2.266-0.882-4.58-0.392-6.869c0.279-1.289,1.17-2.314,1.088-3.656c2.111,1.717,4.68,3.166,7.223,4.582
			c1.678,0.938,4.201,3.389,6.555,3.059"/>
		<path style="fill:none;stroke:#FF0050;stroke-width:3;" d="M603.14,466.719c3.291-0.082,5.949,6.061,7.838,7.188"/>
		<path style="fill:none;stroke:#FF0050;stroke-width:3;" d="M591.798,473.752c1.789,1.711,3.088,3.41,5.371,5.059
			c1.119,0.801,2.41,1.527,3.699,2.168c1.334,0.648,3.084,1.027,4.336,1.797"/>
		<path style="fill:none;stroke:#FF0050;stroke-width:3;" d="M594.063,487.672c2.641,2.18,7.059,1.621,10.104,3.084
			c1.67,0.799,2.908,2.439,3.619,3.764c0.777,1.463,2.266,3.953,2.129,5.51c-4.146,1.123-7.02-2.086-9.652-3.953
			c-1.703-1.205-3.391-2.344-4.943-3.668c-1.174-1.004-2.426-3.623-4.143-3.975"/>
		<path style="fill:none;stroke:#FF0050;stroke-width:3;" d="M571.796,514.744c2.223,1.703,4.48,2.074,6.025,4.268
			c1.6,2.275,4.328,3.438,7.596,2.568c3.076-0.826,4.508-2.551,7-3.932c2.012-1.123,5.441-1.02,6.998-2.107
			c-2.938-1.18-4.318-3.527-7.012-4.788c-2.564-1.196-3.756-0.125-5.918,1.079c-3.326,1.855-8.797,3.562-12.217,0.921"/>
		<path style="fill:none;stroke:#FF0050;stroke-width:3;" d="M568.284,503.113c1.133,0.533,2.482,1.166,3.924,1.416
			c2.74,0.473,3.686-0.572,5.979-1.566"/>
		<path style="fill:none;stroke:#FF0050;stroke-width:3;" d="M571.382,639.389c1.346-0.314,3.424-0.525,4.904-0.307
			c2.201,0.328,3.135,1.91,4.787,3.064"/>
		<path style="fill:none;stroke:#FF0050;stroke-width:3;" d="M592.622,658.199c1.688,0.197,4.836-1.123,6.805-1.373
			c1.963-0.25,3.738-0.314,5.615-0.766c3.191-0.773,3.969-2.834,4.891-5.201c-7.094-2.387-12.731,1.309-16.896,5.201"/>
		<path style="fill:none;stroke:#FF0050;stroke-width:3;" d="M600.868,666.457c2.418-0.25,3.82-2.369,5.984-3.059"/>
		<path style="fill:none;stroke:#FF0050;stroke-width:3;" d="M606.646,673.805c1.416-0.637,2.283-2.203,3.914-2.908"/>
		<path style="fill:none;stroke:#FF0050;stroke-width:3;" d="M607.88,623.33c-3.234-0.34-5.742-0.361-8.383-1.952
			c2.416-0.929,4.408-2.56,6.938-3.519c2.607-0.988,5.227-1.875,7.709-3.049c3.607-1.713,6.529-4.783,9.205-7.262
			c0.688-0.641,1.311-1.713,2.111-2.232c1.309-0.844,0.93-0.887,3.008-0.068c2.262,0.891,4.387,1.889,6.641,2.744
			c3.857,1.471,6.34,3.252,8.199,5.996c0.219-3.67,1.693-7.166,1.693-10.848c0-3.227-1.256-6.186-3.084-9.107
			c-1.914-3.049-6.064-5.303-9.287-7.527c-1.482-1.027-2.928-2.168-4.179-3.438c-0.569-0.57-1.921-2.438-2.216-2.258"/>
		<path style="fill:none;stroke:#FF0050;stroke-width:3;" d="M631.599,567.812c1.16-1.18,3.234-2.07,4.572-3.27
			c1.871-1.674,3.166-3.695,4.508-5.613c1.918-2.727,2.844-5.338,3.91-8.289c1.184-3.252,1.932-7.283,4.107-10.174
			c-2.691-0.154-5.381,0.1-7.811,0.582c-1.688,0.33-2.916,0.459-4.336,1.074c-1.051,0.447-2.078,1.02-3.098,1.523
			c-3.195,1.588-6.465,3.592-9.055,5.527c-5.395-2.35-6.891-8.535-8.064-12.564c-0.727-2.482-2.014-5.106-3.609-7.424
			c-0.963-1.408-1.981-2.615-3.244-3.889c-1.027-1.045-2.912-1.824-3.65-2.883c2.508-0.1,4.576-0.4,7.002-0.029"/>
		<path style="fill:none;stroke:#FF0050;stroke-width:3;" d="M644.382,521.473c-1.17-1.554-10.143,5.643-12.543,5.643
			c-0.271-1.428-1.797-2.508-2.104-3.957c-0.201-0.977-0.387-2.1-0.422-3.041c-3.996-0.348-8.365-2.332-8.258-5.66
			c-3.377-0.021-6.086-3.82-7.945-5.48c2.383-1.799,4.324-3.037,5.757-5.363c0.886-1.451,1.978-2.568,3.655-3.52
			c3.592-2.043,8.078-2.434,12.375-3.248"/>
		<path style="fill:none;stroke:#FF0050;stroke-width:3;" d="M627.474,510.305c3.441,0.26,6.672-4.459,8.615-6.098
			c-2.693-0.121-4.138-0.629-6.133,0.592c-1.258,0.771-3.244,2.207-3.512,3.365"/>
		<path style="fill:none;stroke:#FF0050;stroke-width:3;" d="M627.474,487.672c4.404-1.523,8.77-3.197,9.738-7.025
			c-0.064,1.088-4.004,0.061-5.197,0.129c-2.348,0.143-5.779,2.107-6.189,3.834"/>
		<path style="fill:none;stroke:#FF0050;stroke-width:3;" d="M623.56,634.342c-0.275-0.004-0.539-0.008-0.801,0.014
			c0.137,2.559,5.342,1.703,7.338,2.271c-2.262-1.609-3.291-3.098-4.52-5.191c-0.676-1.141-2.146-3.57-4.289-2.75"/>
		<path style="fill:none;stroke:#FF0050;stroke-width:3;" d="M621.495,657.434c1.303-0.275,6.465,2.34,8.004,3.006
			c0.182-2.207-0.834-6.676-4.5-7.131"/>
		<path style="fill:none;stroke:#FF0050;stroke-width:3;" d="M614.276,681.598c2.908,1.059,6.646,3.008,8.65,5.193
			c1.135,1.234,1.531,3.639,3.102,4.465c1.57-0.887,2.779-2.117,4.268-3.08c2.215-1.416,3.621-2.111,4.189-4.314
			c0.842-3.273-1.992-5.584-4.125-8.199c2.408-0.287,3.75,1.51,5.582,2.107c1.467-1.986,1.523-4.172,1.635-6.383
			c0.078-1.488-0.266-1.359,1.506-1.711c0.98-0.203,2.021-0.074,3.041-0.307c5.846-1.346-1.363-7.252-2.068-9.643"/>
		<path style="fill:none;stroke:#FF0050;stroke-width:3;" d="M639.849,489.199c-0.154-0.629,0.887-1.266,1.527-1.828
			c1.457-1.273,2.705-2.564,3.582-4.135c0.969-1.729,1.613-3.553,2.16-5.373c0.197-0.645,0.443-1.768,0.822-1.975
			c-1.988-0.068-2.854,0.367-4.586-0.459c-1.295-0.619-2.561-1.703-3.32-2.684c2.609-1.812,2.162-4.396,3.484-6.475
			c-0.393,0.676-2.754,1.102-3.895,0.611c-0.852-0.365-2.025-2.189-2.709-2.775c-1.048-0.891-1.867-1.324-2.219-2.447
			c-0.561-1.764,0.326-4.047,0.584-5.771c-1.045-0.178-1.863-0.719-2.887-0.801c0.9-0.753,2.086-1.648,2.465-3.105
			c0.34-1.309,0.512-2.715,0.658-4.043c0.232-2.174-1.699-2.729-2.973-4.529c-0.52-0.732-0.873-3.584-1.961-3.137
			c1.652-0.516,2.34-3.609,3.034-4.916c0.808-1.531,2.372-2.729,3.345-4.225c1.373-2.143,3.838-6.582,6.905-7.52
			c-2.437,0.297-4.755-2.809-4.866-4.439c-2.693-0.102-4.74,0.018-7.119-1.088c-1.6-0.748-4.43-1.592-5.652-2.705
			c-0.924,2.254-0.516,4.754-0.816,7.141c-0.229,1.764-0.482,3.48-0.826,5.244c-0.386,1.973,0.125,4.029-1.281,5.926
			c-2.4,3.227-4.973,4.865-5.576,8.672c-0.438,2.826,4.031,5.188,3.48,7.812c-1.213,0.387-3.076,0.352-4.168,1.016
			c-2.186,1.307-1.123,4.615-2.357,6.344"/>
		<path style="fill:none;stroke:#FF0050;stroke-width:3;" d="M611.804,689.25c-0.078-0.275-0.293-0.33-0.164-0.602
			c0.705,2.211,1.732,4.684,1.195,7.227c-0.434,2.043-1.604,2.748,0.047,4.727c0.625,0.75,1.373,1.799,2.428,2.271
			c0.738,0.332,1.66,0.117,2.215,0.637c0.58,0.547,0.588,1.979,0.877,2.719c0.439,1.088,0.744,2.074,0.848,3.201
			c2.137-1.09,6.268-1.402,8.809-1.545c0.229-3.166-0.279-6.387,0.043-9.58c0.113-1.148-0.219-2.713,0.658-3.693
			c0.619-0.686,1.832-0.629,1.811-1.541"/>
		<path style="fill:none;stroke:#FF0050;stroke-width:3;" d="M635.724,652.852c1.531-0.605,3.088,1.756,3.932,2.547
			c-0.426-4.139,0.087-8.021-0.994-12.156c-0.43-1.639-0.826-3.152-1.502-4.773c-0.377-0.918-1.357-2.139-1.414-3.068
			c4.92-0.723,1.82-5.936,2.057-8.383c1.565-0.004,3.781,0.688,5.5,0.865c1.338,0.145,2.646,0.258,3.938,0.48
			c0.18-2.189-0.439-4.172-0.586-6.254"/>
		<path style="fill:none;stroke:#FF0050;stroke-width:3;" d="M638.192,581.883c0.443-0.59,4.111,0.193,5.377,0.154
			c1.965-0.061,2.623-0.284,4.16-1.227c3.096-1.904,5.23-4.176,7.932-6.24c-3.398-1.262-4.895-4.643-8.186-6.041
			c-2.318-0.98-6.07-0.717-8.66-0.717"/>
		<path style="fill:none;stroke:#FF0050;stroke-width:3;" d="M642.317,564.447c1.484-1.424,4.634-2.791,4.539-4.895"/>
		<path style="fill:none;stroke:#FF0050;stroke-width:3;" d="M640.056,585.4c2.691,0.35,7.08,4.246,8.043,6.117"/>
		<path style="fill:none;stroke:#FF0050;stroke-width:3;" d="M616.544,586.012c-0.057-0.457-1.613,0.887-2.113,1.414
			c-0.783,0.822-1.299,1.785-1.861,2.672c-1.764,2.797-3.029,5.666-5.258,8.307c-1.629,1.931-3.178,2.369-6.24,2.447
			c-1.48,0.035-9.928-0.271-9.48-2.297"/>
		<path style="fill:none;stroke:#FF0050;stroke-width:3;" d="M603.763,584.789c0.346-0.098,0.793-0.283,1.012-0.43
			c-7.936-0.512-12.539,4.955-15.609,9.498c-1.963,2.904-5.592,10.16-11.184,9.592"/>
		<path style="fill:none;stroke:#FF0050;stroke-width:3;" d="M604.585,562.311c0.197,1.252-4.379,0.383-5.381-0.039
			c-2.246-0.945-3.342-3.092-4.727-4.59c-3.928-4.258-6.982-9.828-13.605-12.199"/>
		<path style="fill:none;stroke:#FF0050;stroke-width:3;" d="M593.242,547.93c3.459,0.189,6.917-1.5,10.104-0.004
			c2.412,1.131,3.668,3.299,4.994,5.051c1.457,1.926,1.586,3.797,2.373,5.896c0.354,0.951,0.729,1.574,1.742,2.086
			c0.775,0.393,2.006,0.457,2.848,0.758c1.287,0.469,2.4,1.209,3.717,1.66"/>
		<path style="fill:none;stroke:#FF0050;stroke-width:3;" d="M612.005,568.113c3.105-1.002,7.463,1.277,9.898,2.447"/>
		<path style="fill:none;stroke:#FF0050;stroke-width:3;" d="M611.183,579.283c1.084-0.365,2.25,0.164,3.361,0.271
			c2.08,0.207,3.883-0.361,5.918-0.58"/>
		<path style="fill:none;stroke:#FF0050;stroke-width:3;" d="M586.64,584.33c0.283-0.275,0.619-0.25,0.68-0.604
			c0.039,2.297-1.799,4.229-3.368,6.143c-1.991,2.443-3.712,5.469-6.122,7.658c-1.25,1.131-3.027,2.469-4.641,3.324
			c-1.775,0.934-4.211,0.998-6.125,1.531c-2.446,0.688-3.656,2.762-6.821,2.752c-0.663-0.004-0.731-0.545-1.442-0.477
			c-0.433,0.047-1.643,0.873-2.107,1.084c-1.385,0.633-3.199,1.277-4.869,1.055c-0.189-1.52,0.537-4.854,1.617-6.105"/>
		<path style="fill:none;stroke:#FF0050;stroke-width:3;" d="M552.202,550.068c-0.275-0.568,0.666-1.94,0.627-2.895
			c-0.055-1.162-0.58-2.254-0.67-3.402c2.83,0.627,5.303,1.717,7.471,3.238c0.453,0.314,1.412,1.424,1.906,1.541
			c1.238,0.279,0.65-0.318,1.596-0.621c1.945-0.627,2.865,0.121,4.539,1.369c0.645,0.48,1.131,1.105,1.811,1.535
			c0.873,0.555,1.574,0.666,2.74,1.105c7.445,2.83,12.408,9.613,14.01,15.258"/>
		<path style="fill:none;stroke:#FF0050;stroke-width:3;" d="M587.263,579.439c1.012-2.439,0.779-4.393,1.033-6.887"/>
		<path style="fill:none;stroke:#FF0050;stroke-width:3;" d="M562.104,599.01c1.381-1.281,1.871-4.773,2.266-6.418
			c0.576-2.369,1.559-4.697,2.064-7.074c0.912-4.314,0.561-8.758,0.822-13.125c0.215-3.488,0.852-7.578-0.197-11.002
			c-0.572-1.859-1.721-5.291-3.516-6.582"/>
		<path style="fill:none;stroke:#FF0050;stroke-width:3;" d="M557.565,592.588c3.549-6.998,5.154-14.238,5.154-21.723
			c0-3.152-0.332-5.969-1.227-9.016c-0.773-2.611-2.668-4.941-2.689-7.652"/>
		<path style="fill:none;stroke:#FF0050;stroke-width:3;" d="M551.175,586.166c0-7.635-1.408-15.369,2.885-22.484"/>
		<path style="fill:none;stroke:#FF0050;stroke-width:3;" d="M544.983,553.131c0.199,1.213,2.955,0.99,2.891,2.293"/>
		<path style="fill:none;stroke:#FF0050;stroke-width:3;" d="M542.304,547.164c0.164,0.189,0.354,0.354,0.586,0.496
			c-1.397,0.008-2.172-0.869-3.678-0.65"/>
		<path style="fill:none;stroke:#FF0050;stroke-width:3;" d="M543.337,540.127c-0.594-0.344-1.145-0.795-1.652-1.07"/>
		<path style="fill:none;stroke:#FF0050;stroke-width:3;" d="M535.706,601.457c0.143,0.311,0.562,0.482,0.645,0.875
			c1.283-0.174,2.98-0.324,4.307-0.26"/>
		<path style="fill:none;stroke:#FF0050;stroke-width:3;" d="M544.364,617.67c2.264-0.244,4.375-1.613,5.158-3.209"/>
		<path style="fill:none;stroke:#FF0050;stroke-width:3;" d="M537.972,577.143c-0.748,0.051-0.383-1.004-0.438-1.662
			c-0.207-0.033-0.383-0.008-0.59-0.021"/>
		<path style="fill:none;stroke:#FF0050;stroke-width:3;" d="M518.792,581.271c0.211,0.029,0.375,0.104,0.572,0.133
			c0.633-0.43,1.303-0.93,1.906-1.355"/>
		<path style="fill:none;stroke:#FF0050;stroke-width:3;" d="M520.036,573.162c1.041,0.6,2.928,1.127,3.092,2.297"/>
		<path style="fill:none;stroke:#FF0050;stroke-width:3;" d="M561.071,618.281c3.127-0.254,4.938-4.396,9.072-4.439
			c1.879-0.014,3.367,0.186,5.156,0.465c0.646,0.104,1.42,0.34,2.061,0.309c1.678-0.094,2.318-0.988,3.924-1.379"/>
		<path style="fill:none;stroke:#FF0050;stroke-width:3;" d="M587.878,608.646c2.307-0.543,3.57-2.314,6.186-2.6"/>
		<path style="fill:none;stroke:#FF0050;stroke-width:3;" d="M559.833,530.496c2.504,1.248,5.531,1.342,8.104,2.607
			c1.674,0.816,5.123,3.406,6.955,1.213"/>
		<path style="fill:none;stroke:#FF0050;stroke-width:3;" d="M583.345,528.965c2.232,1.088,4.547,1.953,7.217,2.457
			c3.627,0.684,6.131,2.387,8.865,4.426"/>
		<path style="fill:none;stroke:#FF0050;stroke-width:3;" d="M607.894,688.166c0.201,3.219-1.449,6.582-1.449,9.795
			c0,3.67,0.416,7.645,1.035,11.318c1.234,8.258,5.773,16.977,11.34,24.32c10.93,14.985,31.137,26.76,52.791,32.574
			c8.045,2.143,15.882,3.82,24.334,4.129c7.631,0.461,16.908,1.377,24.543,0.611l773.93,4.891l90.549-377.672l-859.527-47.205
			c-3.096,0-5.986,0.154-9.076,0.154c-18.977-0.309-43.715,1.223-58.775,10.861c-8.455,5.502-17.119,11.92-24.127,18.656
			c-7.836,7.799-12.576,15.295-15.259,24.625c-2.683,9.631-5.362,18.965-5.362,28.752c0,3.979-0.416,7.799-0.619,11.773
			c-0.201,2.451,0.826,5.203,0.203,7.496"/>
		<path style="fill:none;stroke:#FF0050;stroke-width:3;" d="M644.521,630.381l-0.129,69.412c1.65,4.896,2.266,9.486,4.537,14.227
			c4.74,9.635,12.371,17.893,23.508,24.164c5.979,3.365,12.99,5.352,20.209,7.34c4.336,1.07,8.865,1.99,13.406,2.602
			c3.301,0.46,9.486,0,12.17,1.07l742.113,2.053l78.873-327.846L731.431,379.83c-3.51,0.619-7.836-0.457-11.756-0.457
			c-2.473,0-4.951,0-7.424,0c-5.363,0.154-11.545,0-16.91,1.377c-11.756,2.752-20.211,11.32-25.777,18.965
			c-2.475,3.217-4.121,6.582-5.365,10.092c-1.643,4.129-5.359,10.25-3.706,14.379"/>
		<path style="fill:none;stroke:#FF0050;stroke-width:3;" d="M718.841,738.645c-1.027-0.615-4.328-0.305-6.186-0.305
			c-3.707,0-6.801-0.311-10.311-1.072c-5.566-1.375-10.926-2.752-16.084-4.895c-10.723-4.133-19.176-12.844-21.855-21.413
			c-1.037-3.062,0.65-6.12,0.035-9.175c-0.418-2.447,2.924-6.121,0.859-8.104l6.703-273.779c-0.203-3.67,4.158-9.33,5.811-12.693
			c2.061-4.131,6.393-7.799,10.518-10.707c4.74-3.209,8.25-4.895,14.844-5.045c4.748-0.152,9.902-0.152,14.854,0
			c1.027,0,1.854,0,2.885,0.305l797.846,41.754l-71.078,309.791L718.841,738.645z"/>
		<path style="fill:none;stroke:#FF0050;stroke-width:3;" d="M638.013,408.125c0.412-5.348,6.186-12.689,10.727-16.668
			c4.121-3.67,7.628-7.494,11.753-11.008c7.218-6.275,18.353-12.854,29.278-15.146c9.697-1.836,20.828-1.375,30.73-1.375
			l846.941,42.871l-84.709,361.061l-766.994-5.814c-11.545,0-23.709-1.377-35.26-2.754c-13.201-1.686-21.859-6.426-31.762-12.697
			c-7.42-4.736-13.816-10.547-17.73-17.283c-3.506-5.656-4.332-11.619-5.982-17.74"/>
		<line style="fill:none;stroke:#FF0050;stroke-width:3;" x1="644.403" y1="519.084" x2="649.712" y2="423.613"/>
		<line style="fill:none;stroke:#FF0050;stroke-width:3;" x1="652.194" y1="703.588" x2="657.063" y2="430.986"/>
		<line style="fill:none;stroke:#FF0050;stroke-width:3;" x1="635.091" y1="418.973" x2="635.642" y2="410.408"/>
		<path style="fill:none;stroke:#FF0050;stroke-width:3;" d="M708.663,725.977l728.307,7.949c0,0,70.102-295.355,66.209-295.355
			S709.64,401.746,709.64,401.746s-23.379,6.494-23.379,16.607c0,10.107-15.502,285.234-15.502,285.234
			S679.452,722.363,708.663,725.977z"/>
	</g>
	<path style="fill:none;stroke:#17192D;stroke-width:3;" d="M2048,0"/>
	<path style="fill:none;stroke:#17192D;stroke-width:3;" d="M2048,1536"/>
	<path style="fill:none;stroke:#17192D;stroke-width:3;" d="M0,1536"/>
	<path style="fill:none;stroke:#17192D;stroke-width:3;" d="M0,0"/>
</g>
<g id="Layer_1">
</g>
</svg>
