<svg xmlns="http://www.w3.org/2000/svg" width="2048" height="1536" viewBox="0 0 2048 1536"><g fill="none" stroke-width="3"><g stroke="#FF0050"><path d="M791.644 903.498c-.15-.81-1.717-2.164-2.75-2.46.324 2.345-.64 4.93-.623 7.253-2.196-.048-4.16-1.526-6.198-1.99.14 2.017.21 4.36.715 6.325-1.523.06-9.115-1.023-9.205.758-.025.43.97 1.445 1.217 1.867.386.662.735 1.37 1.058 2.03.533 1.08 1.445 2.017 1.95 3.015-2.69-.025-2.966 2.23-2.995 3.785-.457.02-1.033-.05-1.48.035-.61.115-.773.508-1.475.426.72-1.712 2.104-4.48.516-6.263-.4-.447-.77-.64-1.53-.648-1.19-.01-.964.175-1.265.872-.4.924-1.198 2-1.12 2.994-3.445.18-4.404-4.297-7.562-4.035-.412 1.19.014 2.384.633 3.493.34.615.84 1.17 1.44 1.67.218.18 1.185.67 1.255.848.168.43-.465.99-.693 1.39-.434.752-.71 1.604-.79 2.426-.08.848-.177 2.03.222 2.812.422.822 1.562 1.79 2.41 2.385.31.223.69.355.98.57.68.504.47.453.756 1.072.65 1.402 2.307 1.9 4.357 1.89 2.543-.02 12.95-5.903 13.078-1.02.047 1.74-1.66 3.122-3.764 3.715-1.74.495-5.226.58-6.702-.388-1.05-.688-1.03-1.195-2.455-1.592-1.523-.426-2.74-.734-4.393-.627-2.348.154-4.62.988-6.35 2.13-.738.485-1.432 1.43-2.398 1.126-.62-.194-1.387-1.163-1.957-1.497-1.287-.754-6.23-2.195-7.137-.375-.435.883.777 1.703 1.02 2.59-2.56.83-5.416 2.465-6.45 4.322 1.468.117 5.585 1.53 5.954 2.68-1.74.082-3.26.285-4.848.912-1.375.55-3.707 1.97-4.344 2.97.926-.02 2.086-.247 2.955.028-1.123 1.996-2.332 4.357-2.082 6.535 2.934-1.055 6.232-1.842 9.57-1.283 1.438.242 2.508.926 3.27 1.846.332.4.826.916.844 1.385.018.465-.46.848-.393 1.373-1.686.576-4.344 2.09-5.084 3.402-.855-1.338-.594-2.576-2.87-3.273-1.663-.516-3.198.06-4.515.787-.796.443-1.488 1.135-2.34 1.502-.736.318-1.252.115-2.113.275-1.514.278-2.652 1.47-3.703 2.21-1.132-1.467-3.557-.39-4.66.463 1.282 1.484 3.515 2.203 4.913 3.494.658.605 1.19.928 2.197 1.22.86.25 2.13.13 2.84.483.762.373 1.312 1.152 2.15 1.574.762.383 1.648.898 2.486 1.156 1.98.607 4.586.04 5.89-1.178.34-.318.64-.732.86-1.088.98 1.035 1.54 2.33 2.56 3.324.657.64 1.68 1.05 2.392 1.664-2.13.318-4.768 2.1-4.475 3.94-2.72-.35-4.572-2.688-7.08-3.136-.168 2.107.586 4.174 2.568 5.738-1.862.71-3.358 1.777-5.07 2.604.593.58 1.226 1.285 1.92 1.84.433.354 1.942.736 2.157 1.02.232.307-.984 1.82-1.248 2.307-.46.863-.856 1.764-1.183 2.648 2.018.082 4.688.396 6.662.035 1.1 1.574-.538 1.982-1.587 3.023-.607.603-.844 1.313-1.463 1.93 2.344.188 3.94.49 6.068-.26 1.45-.517 3.068-1.058 4.475-1.634 1.21.805 1.71 1.84 3.238 2.39 1.1.397 2.75 1 3.976.913.283.962.748 1.88 1.29 2.76.67 1.093 1.755 1.67 2.702 2.556-.834.72-1.752 1.162-2.232 2.053-.604 1.116-.672 1.272-2 2.114-1.32.84-2.697 1.936-3.197 3.252-.552 1.45.026 3.094-.435 4.525-.215.677-.736 1.218-1.18 1.85-.666.944-1.135 2.08-1.926 2.956 2.64.834 5.913-2.078 7.974-2.838-.047 1.518.54 3.957 1.54 5.316.124.168.847 1.123 1.118 1.19.697.187 1.814-.636 2.314-1.08 2.408-2.16-.12-4.632.168-6.916 2.357-.103 3.342-.18 5.07.99-.098 1.18-.31 2.36-.473 3.52-.088.644-.07 1.548-.503 2.106 1.098.064 2.285-.09 3.37 0 1.022.086 1.073.05 1.763.834-1.785 1.492-2.955 3.79-4.422 5.463-1.102 1.26-.955 2.56-1.19 3.968 1.595-.676 4.335-1.402 6.188-1.158.293 1.885-.19 3.795.29 5.684 2.046.283 3.968-1.434 5.81-1.645.168 1.372-.533 2.77-.236 4.155.168.773.71 1.393.658 2.2 1.277-1.03 2.826-1.91 4.36-2.76 1.017-.567 2.538-2.048 3.958-1.85M790.146 1034.572c1.988.047 3.592-3.664 4.732-4.34M783.298 1030.322c1.076-1.03 1.863-2.064 3.244-3.053.674-.487 1.453-.923 2.232-1.31.805-.396 1.86-.623 2.62-1.088M784.665 1021.918c1.598-1.316 4.264-.98 6.105-1.863 1.006-.486 1.754-1.475 2.18-2.275.47-.88 1.373-2.387 1.287-3.328-2.5-.676-4.238 1.264-5.828 2.39-1.03.724-2.05 1.417-2.987 2.216-.71.604-1.463 2.186-2.498 2.396M771.216 1005.568c1.346-1.033 2.71-1.256 3.64-2.582.966-1.375 2.61-2.076 4.59-1.55 1.856.5 2.722 1.538 4.224 2.376 1.217.676 3.285.615 4.227 1.27-1.77.713-2.61 2.133-4.232 2.89-1.55.728-2.266.077-3.574-.65-2.007-1.116-5.315-2.15-7.376-.554M769.1 1012.588c.68-.322 1.49-.705 2.364-.855 1.656-.285 2.225.352 3.61.95M770.966 930.287c.812.186 2.068.314 2.963.182 1.33-.198 1.892-1.153 2.89-1.85M783.798 918.924c1.02-.117 2.916.68 4.107.83 1.188.15 2.258.19 3.39.465 1.927.462 2.395 1.706 2.954 3.138-4.284 1.44-7.69-.79-10.208-3.14M788.774 913.934c1.463.154 2.305 1.438 3.613 1.85M792.263 909.504c.855.377 1.38 1.324 2.365 1.75M793.01 939.982c-1.956.207-3.466.22-5.065 1.18 1.46.56 2.666 1.548 4.193 2.125 1.574.598 3.156 1.135 4.654 1.846 2.176 1.03 3.943 2.885 5.562 4.383.412.387.79 1.03 1.27 1.346.788.512.565.537 1.817.043 1.368-.537 2.65-1.14 4.015-1.656 2.326-.892 3.828-1.966 4.95-3.622.134 2.22 1.024 4.326 1.024 6.55 0 1.95-.76 3.74-1.868 5.503-1.152 1.843-3.66 3.2-5.605 4.548-.895.62-1.77 1.307-2.525 2.072-.344.346-1.16 1.473-1.338 1.363M807.335 973.514c.7.713 1.953 1.252 2.762 1.98 1.13 1.005 1.91 2.228 2.723 3.384 1.156 1.648 1.717 3.227 2.36 5.008.716 1.965 1.167 4.395 2.483 6.146-1.627.09-3.252-.06-4.72-.354-1.015-.2-1.763-.28-2.62-.648-.63-.268-1.25-.615-1.865-.922-1.932-.955-3.906-2.162-5.477-3.338-3.25 1.42-4.16 5.154-4.868 7.588-.44 1.502-1.213 3.09-2.176 4.486-.586.848-1.197 1.58-1.957 2.35-.626.627-1.76 1.096-2.208 1.742 1.514.06 2.766.24 4.23.012M815.056 1001.502c-.71.94-6.125-3.406-7.574-3.406-.164.86-1.088 1.514-1.273 2.387-.122.59-.233 1.27-.255 1.838-2.414.212-5.055 1.41-4.986 3.42-2.044.013-3.68 2.306-4.8 3.308 1.44 1.09 2.61 1.834 3.475 3.24.537.877 1.195 1.553 2.21 2.13 2.17 1.23 4.88 1.47 7.474 1.956M804.845 1008.248c2.076-.156 4.03 2.69 5.205 3.682-1.627.072-2.5.38-3.71-.357-.76-.465-1.956-1.334-2.12-2.035M804.845 1021.918c2.658.92 5.3 1.926 5.88 4.24-.04-.658-2.417-.033-3.14-.076-1.416-.086-3.49-1.273-3.738-2.314M802.478 933.334c-.162.004-.322.004-.48-.01.082-1.55 3.22-1.03 4.43-1.37-1.363.97-1.986 1.87-2.73 3.134-.41.69-1.295 2.16-2.59 1.664M801.23 919.383c.788.172 3.905-1.41 4.835-1.81.11 1.333-.504 4.03-2.72 4.306M796.874 904.793c1.754-.64 4.014-1.814 5.22-3.137.687-.744.93-2.197 1.878-2.696.945.534 1.678 1.278 2.576 1.858 1.338.855 2.186 1.277 2.53 2.607.51 1.975-1.206 3.37-2.49 4.95 1.452.173 2.26-.907 3.366-1.27.89 1.196.926 2.517.994 3.855.047.898-.164.822.908 1.037.592.115 1.217.04 1.836.18 3.527.814-.825 4.38-1.252 5.82M812.315 1020.992c-.09.383.533.766.927 1.105.876.766 1.634 1.55 2.16 2.496.587 1.045.974 2.146 1.306 3.246.12.388.266 1.067.494 1.19-1.2.045-1.72-.223-2.77.275-.78.375-1.54 1.033-2 1.623 1.574 1.096 1.303 2.658 2.098 3.91-.232-.404-1.66-.662-2.348-.37-.512.224-1.223 1.325-1.64 1.677-.632.543-1.126.8-1.34 1.48-.333 1.062.196 2.443.354 3.488-.63.104-1.127.43-1.746.477.547.457 1.266.998 1.494 1.877.2.795.31 1.643.396 2.443.142 1.314-1.024 1.646-1.794 2.734-.314.443-.53 2.168-1.184 1.896.994.31 1.412 2.182 1.828 2.97.486.925 1.438 1.647 2.02 2.55.83 1.295 2.32 3.975 4.17 4.543-1.472-.182-2.87 1.693-2.935 2.68-1.63.064-2.863-.01-4.3.658-.97.452-2.68.964-3.417 1.636-.56-1.363-.31-2.875-.494-4.314-.137-1.066-.293-2.1-.498-3.162-.23-1.195.076-2.44-.775-3.584-1.448-1.947-3-2.938-3.362-5.238-.268-1.703 2.434-3.13 2.1-4.715-.732-.24-1.855-.215-2.518-.615-1.316-.79-.68-2.787-1.42-3.836M795.376 900.168c-.043.168-.175.203-.098.367.43-1.338 1.05-2.83.727-4.36-.262-1.237-.973-1.667.025-2.858.38-.455.83-1.088 1.463-1.37.45-.204 1.006-.075 1.342-.39.348-.326.357-1.19.53-1.64.26-.657.45-1.255.51-1.935 1.292.658 3.786.848 5.32.934.14 1.914-.17 3.854.022 5.785.07.694-.13 1.64.404 2.233.372.414 1.103.38 1.09.93M809.825 922.158c.926.365 1.867-1.062 2.376-1.54-.258 2.5.05 4.843-.598 7.343-.264.99-.5 1.9-.908 2.878-.232.555-.822 1.295-.855 1.854 2.97.44 1.095 3.584 1.24 5.064.948.004 2.287-.414 3.32-.52.81-.087 1.597-.16 2.38-.288.11 1.32-.266 2.516-.352 3.775M811.317 965.018c.268.354 2.482-.12 3.248-.094 1.188.037 1.588.172 2.512.738 1.87 1.154 3.158 2.525 4.793 3.77-2.057.762-2.96 2.805-4.947 3.646-1.398.594-3.664.436-5.23.436M813.808 975.547c.9.86 2.8 1.688 2.746 2.955M812.44 962.893c1.627-.21 4.275-2.562 4.857-3.7M798.242 962.523c-.036.275-.974-.533-1.274-.852-.473-.5-.787-1.08-1.127-1.616-1.065-1.688-1.827-3.42-3.173-5.016-.984-1.17-1.918-1.434-3.773-1.48-.89-.018-5.996.164-5.72 1.39M790.52 963.258c.212.06.483.178.612.264-4.79.31-7.572-2.994-9.426-5.738-1.182-1.752-3.38-6.135-6.752-5.79M791.02 976.838c.12-.756-2.646-.232-3.247.02-1.36.573-2.023 1.868-2.857 2.776-2.373 2.572-4.214 5.936-8.22 7.363M784.167 985.523c2.086-.117 4.176.906 6.104.004 1.46-.688 2.216-1.996 3.017-3.055.88-1.16.96-2.293 1.438-3.56.215-.573.438-.952 1.05-1.263.47-.237 1.212-.276 1.72-.456.773-.283 1.45-.727 2.246-1.002M795.5 973.328c1.876.607 4.51-.766 5.98-1.475M795.003 966.588c.652.22 1.364-.1 2.03-.168 1.26-.12 2.345.22 3.573.354M780.185 963.54c.168.165.37.15.408.364.02-1.39-1.088-2.555-2.035-3.713-1.205-1.474-2.24-3.298-3.7-4.618-.755-.69-1.827-1.492-2.8-2.014-1.074-.562-2.54-.602-3.703-.924-1.475-.414-2.2-1.67-4.115-1.662-.4 0-.443.328-.875.285-.258-.025-.988-.52-1.27-.65-.837-.383-1.933-.773-2.94-.637-.11.916.324 2.93.977 3.684M759.382 984.23c-.168.343.404 1.173.38 1.753-.032.697-.35 1.36-.405 2.053 1.71-.38 3.205-1.037 4.516-1.957.268-.19.848-.862 1.148-.93.745-.173.394.188.966.374 1.174.38 1.73-.074 2.74-.826.387-.293.684-.672 1.092-.93.53-.336.95-.4 1.656-.67 4.494-1.705 7.492-5.804 8.46-9.215M780.558 966.494c.61 1.475.47 2.652.625 4.158M765.36 954.668c.836.78 1.133 2.89 1.373 3.88.344 1.433.938 2.835 1.242 4.272.555 2.605.34 5.29.5 7.928.13 2.107.512 4.576-.12 6.645-.345 1.123-1.038 3.197-2.122 3.975M762.62 958.55c2.143 4.228 3.115 8.6 3.115 13.118 0 1.906-.203 3.61-.743 5.445-.466 1.578-1.61 2.986-1.622 4.62M758.763 962.428c0 4.61-.852 9.283 1.742 13.58M755.024 982.383c.117-.736 1.78-.602 1.742-1.385M753.403 985.982c.098-.11.215-.21.352-.297-.842-.004-1.307.525-2.22.393M754.026 990.232c-.357.21-.688.482-.998.646M749.42 953.193c.085-.186.34-.29.388-.525.777.104 1.8.193 2.602.154M754.65 943.402c1.368.15 2.642.973 3.114 1.94M750.788 967.883c-.45-.035-.232.602-.268 1.002-.125.02-.23.004-.352.014M739.208 965.39c.125-.022.225-.067.344-.083.38.258.783.56 1.15.816M739.956 970.283c.625-.357 1.768-.68 1.867-1.385M764.737 943.033c1.89.15 2.984 2.654 5.48 2.68 1.135.008 2.033-.11 3.113-.28.393-.063.86-.202 1.248-.185 1.012.057 1.398.598 2.365.834M780.93 948.854c1.392.326 2.153 1.396 3.735 1.57M763.993 996.053c1.506-.752 3.338-.81 4.89-1.574 1.017-.495 3.1-2.062 4.204-.737M778.192 996.98c1.346-.665 2.744-1.18 4.357-1.485 2.188-.414 3.698-1.44 5.354-2.672M793.015 900.822c.125-1.94-.873-3.97-.873-5.91 0-2.22.25-4.62.625-6.84.748-4.984 3.488-10.25 6.852-14.684 6.597-9.05 18.806-16.166 31.882-19.676 4.855-1.295 9.592-2.31 14.697-2.494 4.606-.275 10.21-.83 14.817-.37l467.424-2.95 54.69 228.098-519.122 28.51c-1.867 0-3.613-.096-5.48-.096-11.46.186-26.402-.738-35.496-6.56-5.105-3.325-10.336-7.204-14.572-11.27-4.732-4.71-7.598-9.235-9.215-14.87-1.62-5.82-3.238-11.455-3.238-17.365 0-2.404-.25-4.71-.375-7.11-.125-1.48.5-3.144.125-4.528M815.138 935.725l-.078-41.922c.998-2.955 1.373-5.73 2.74-8.59 2.865-5.82 7.473-10.81 14.2-14.596 3.612-2.033 7.845-3.234 12.202-4.434 2.62-.646 5.36-1.2 8.1-1.57 1.992-.275 5.73 0 7.348-.645l448.21-1.244 47.628 198.006-487.86 26.316c-2.114-.37-4.73.28-7.097.28h-4.485c-3.238-.097-6.973 0-10.21-.837-7.103-1.66-12.208-6.835-15.573-11.45-1.492-1.945-2.486-3.975-3.234-6.1-.998-2.494-3.238-6.19-2.24-8.686"/><path d="M860.028 870.338c-.625.37-2.615.186-3.738.186-2.242 0-4.107.186-6.225.645-3.363.833-6.604 1.665-9.717 2.958-6.48 2.496-11.584 7.76-13.2 12.932-.624 1.85.395 3.695.02 5.54-.25 1.48 1.768 3.698.52 4.9l4.05 165.347c-.126 2.215 2.51 5.635 3.51 7.666 1.24 2.494 3.856 4.71 6.35 6.465 2.862 1.94 4.983 2.955 8.966 3.045 2.865.1 5.98.1 8.97 0 .624 0 1.118 0 1.74-.18l481.868-25.217-42.928-187.104-440.186 2.816zM811.21 1069.957c.246 3.234 3.734 7.668 6.475 10.064 2.49 2.222 4.61 4.53 7.102 6.655 4.357 3.79 11.084 7.76 17.684 9.145 5.855 1.11 12.583.83 18.558.83l511.516-25.89-51.16-218.067-463.23 3.514c-6.973 0-14.318.832-21.295 1.662-7.972 1.02-13.202 3.878-19.183 7.667-4.482 2.86-8.344 6.37-10.71 10.44-2.116 3.415-2.616 7.017-3.614 10.71M815.07 1002.943l3.208 57.662M819.774 891.51l2.938 164.638M809.442 1063.404l.336 5.176"/><path d="M853.88 877.99l439.865-4.8s42.338 178.382 39.986 178.382c-2.35 0-479.265 22.242-479.265 22.242s-14.117-3.928-14.117-10.03-9.36-172.274-9.36-172.274 5.247-11.338 22.892-13.52z"/></g><path d="M2048 0M2048 1536M0 1536M0 0" stroke="#17192D"/></g></svg>