<svg xmlns="http://www.w3.org/2000/svg" width="2048" height="1536" viewBox="0 0 2048 1536"><g><g fill="#17192D"><path d="M1169.046 1022.743c-.193-.096.87-.29 1.254-.19h.77c.58.19 1.35.48 1.93.384 1.35.578 2.7.29 3.856.87 2.314 1.06 5.4 2.024 7.908 4.145 1.543 1.64 3.568 2.314 5.11 3.76.29.87.675 1.254.483 2.025-1.543.098-2.314-2.12-3.762-2.7-1.06-.964-2.604-1.253-3.47-2.507-.194-.096-.58-.482-.772-.578-.193-.098-.29-.29-.29-.29-.097 0-.48-.192-.48-.29-.87-.867-1.16-.963-1.16-.578-.675-.193-1.155-.674-1.83-.578-.29-.096-.58-.29-.772-.578-1.155.193-1.446-.387-2.024-.482-1.06-.578-2.7 0-3.857-.387-.58.097-1.062-.48-1.735-.386-2.316-.676-3.28-.096-5.787.096-3.182 1.158-3.28.87-5.303 1.64-1.543.58-2.412.77-3.857 1.446-1.447.676-2.025 1.447-3.473 2.123-1.35.577-2.217.384-3.47.866-1.448.578-2.315 1.254-3.667 1.832-1.35.676-2.41.965-3.953 1.64-1.445.866-2.217 1.735-3.953 2.218-.482 0-1.156.096-1.64.096-.48-.096-1.06.098-1.35.098-.29.096-.772-.098-1.062-.193-1.734.578-2.7-.578-4.53-.387-1.737-.482-3.474-.674-5.5-1.35-1.927-1.06-4.435-1.543-6.556-2.99-2.22-1.156-4.436-2.893-6.076-5.014-.193-.29-.963-1.06-.29-.963 1.737.77 3.28 2.506 5.112 3.182 4.918 3.086 10.03 4.918 15.14 5.4.58.29 1.255 0 1.93.29.964 0 2.313.288 3.374.095 3.473.385 2.7-1.156 4.146-1.736 1.543-.578 2.508-.48 3.857-1.156.965-.578 1.447-1.254 2.604-1.736.966-.578 1.642-1.06 2.894-1.254 2.895-.29 2.99-.867 4.438-2.12.676-.386 1.06-.868 1.832-1.157.674-.58 1.254-.288 2.12-.58 1.16-.288 1.737-.673 2.894-1.06 1.06-.385 2.22-.867 2.797-.867 2.025-.867 3.184-.29 5.11-.482.578-.002 1.157.383 1.06.383zM1185.15 1010.304c.29.098.483.193.675.387-.867 2.218-3.47.964-5.496 1.544-1.737.29-3.376 0-5.112.096-4.725.096-9.45-.096-13.982 0-2.41 0-5.594.193-8.102-.096-1.64-.193-3.664 0-5.303.096-3.952.387-7.714 0-11.86.29-.193-.194-.385-.194-.578-.194-1.736.87-3.664.098-5.305.387-3.953.193-7.715.578-11.572.578-2.7-1.155-5.496.58-8.293-.095-.387-.098.578-1.158.87-1.158 4.24-2.893 9.16 1.158 13.884-.193 5.594-1.54 11.86-.963 17.36-1.252 5.495-.29 10.702.193 16.296 0 1.543-.193 3.086-.193 4.725-.193.385 0 .867.097 1.254.097 4.243-.098 8.487-.098 12.247-.676 2.892.77 5.304.288 8.294.384zM1185.634 991.308c-.965 2.12-3.28 2.314-4.92 3.47-2.217 1.16-4.63 2.317-7.135 2.606-.677.385-1.642.48-2.413.578-6.46 1.156-12.73 3.76-19.48 3.953-4.628.965-9.74.482-14.755.385-4.146 0-9.45-1.156-13.596-2.988-2.025-.482-4.242-1.254-5.69-2.508-2.12-.578-3.76-2.12-5.593-3.277-.385-.676-.867-1.352-.867-2.025 0-.098-.096-.193-.096-.193 1.928.48 3.76 1.93 5.69 3.085 1.542.867 2.41 2.025 4.048 2.41 2.797.58 5.016 2.508 7.908 2.314 5.303 1.35 11.09 1.253 17.455.868-.964-2.22.675-3.086-.097-4.438.098-.578.193-.963.387-1.35.29-.29.482-.578.867-.29l.482.483c-.194.578.192.965.48 1.254-.288 1.254 0 2.506-.192 4.05 4.725.48 7.908-.868 11.764-1.06 1.64-.772 4.146-.964 6.174-1.542 1.83-.58 4.05-.58 5.785-1.64 1.448.192 3.087-.29 4.243-1.737 2.508.098 4.438-1.734 7.33-2.314v-.482c.48-.19 1.445-1.252 2.604-.867-.094.48-.192.866-.383 1.253zM1173.29 946.563c3.76.965 6.46 4.146 10.22 5.305.58 1.06 1.833 1.64 2.413 2.7-.87.288-1.834-.58-2.605-.966-.674-.674-1.35-1.06-2.314-1.156-2.12-1.543-5.014-2.22-7.23-3.953-1.64-.58-4.05-.773-5.885-1.64-3.278-.194-6.558-.194-9.74.386-3.085.577-6.075 1.83-8.485 3.952-3.182 1.543-6.846 2.7-10.318 3.47-5.4 2.702-12.246 2.413-17.84.194-3.28 0-5.11-2.797-8.102-3.182-.867-.676-1.64-1.352-2.7-1.736-.577-.482-.288-1.254-.77-1.928 0-.193-.387.096-.193.19 1.352.1 2.797.677 3.953 1.255 5.113 3.955 11.96 4.146 18.13 5.498 4.34-.193 7.91-2.22 12.056-3.184 2.605-1.64 5.882-2.218 8.485-3.858 1.93-.193 3.473-2.41 5.498-1.928 4.34-1.543 9.45-1.543 13.596 0 .574.29 1.154.482 1.83.58zM1192.77 924.288c1.253 1.06 0 .965-.194 1.35-5.4 4.727-12.922 3.762-18.707 7.52-4.147 1.546-8.583 2.124-12.634 3.087-3.182.098-6.076 1.447-9.064.87-.965.77-2.412 0-3.473.384-6.944 0-10.897-1.35-16.298-2.507-1.832.193-3.762-.387-5.207-1.64-2.508.288-4.533-.483-6.365-1.446-4.436-1.64-8.87-3.377-12.053-6.463 0 .098-.58-.19-.29-.385.77-.483 1.64.384 2.41.77 4.534.387 7.427 3.664 11.476 4.63 1.832.964 3.857.964 5.594 1.638 7.426 1.93 12.344 3.568 20.154 3.666.097 0 .29-.676.29.096 6.654-.385 12.344-1.93 18.42-2.604 6.17-1.928 12.342-4.146 18.514-6.076 1.64-1.06 3.568-1.928 5.69-2.7.577 0 1.64-1.06 1.93-.675.094 0 .77 0-.195.483zM1180.714 893.91c-1.156.87-2.7 1.448-3.857 2.413-4.725 1.35-9.836 2.604-14.945 2.604-3.666.578-7.426 1.35-10.994 2.217-1.93-.19-4.146-.578-6.365-.096-.29.77-.29 1.06-1.445 1.35 1.06 2.797 3.277 4.727 4.338 6.75.58.29 1.158 1.06.965 1.736-.384 1.158.194 1.158.868 1.832.87 0 1.64.098 2.412.482 2.025-.674 3.568-.674 5.207-.096 1.832 1.06 3.375.29 5.4 0 3.857-.578 7.52-1.447 11.477-1.64 3.084-.097 6.17-.097 9.45-.097.288.098.577.193.48.482 0 .29-.386.578-.675.676-4.82.29-9.45.48-13.694 1.832-3.182-.098-5.785.867-8.775.578-7.134-.676-14.657 0-21.407.867-2.988-.674-5.303.58-8.195.387-7.52-.58-15.334-.58-21.988-2.797-.963-.29-.482-1.06-.963-1.736.096-.29.578 0 .77-.096 2.315.482 4.34 1.543 6.655 1.445l.19.193c3.956-.193 7.62 1.06 11.09.867 2.605 1.447 5.497-.385 8.294.098 3.568.58 6.56-.675 10.03-1.157.48-.385 1.157-.77 1.83-1.54-1.155-3.087-4.724-5.017-5.11-7.524.482 0-.674-.772-.19-2.315-2.99-.867-5.4.29-7.62-.77-1.832-.48-3.664.48-5.594-.58-2.604 1.255-4.916.1-7.424.29-1.447-1.254-2.025 1.254-3.762.098-1.64.48-3.857.77-5.207 0 .095-.387.095-.676 0-1.062 1.444-.866 3.472.292 4.917-.866 2.12-.193 3.664.965 5.785.578 6.172-1.156 13.02.193 19.287-.19 4.34-.194 9.063.48 13.21-.966 6.56-1.06 13.404-1.93 19.576-3.184 1.543-.963 3.375-2.023 5.305-1.928.29.29.578.482.674.867zM1181.583 862.668c.77.386 1.543 0 2.41.193.676 0 1.158.193 1.736.58.095.48-.483.867-.772 1.35-.676.868-1.447-.482-1.64-.482-.192-.386-1.157.482-2.122-.964-1.928.578-3.664.578-5.014.192-2.7.29-5.69-.482-8.295.578-1.06.097-1.64 1.35-2.12 1.93-.097 0-.48 1.157-1.35 1.542-1.255 1.157-3.087 2.99-3.665 3.473-.482.48 0-.58-.87.384-.48.386-.288.58-.962 1.64-.867 1.06-2.604 2.893-2.99 3.375-.578 1.155-1.156 2.505-1.832 4.05 2.025 1.35 4.05.963 5.4 1.83 1.736.098 3.857.482 5.69.965 1.06-.867 1.83.193 2.603.193 1.062.578 2.702.482 3.954 1.06 2.412.388 4.533 1.833 7.234 1.35.963.194 2.12.58 3.086.87-.098.193-.193.385-.387.385-1.64.29-3.086-.578-4.53-.482-.388-.288-.677-.384-1.063-.288-.77-.096-1.543-.29-2.217-.29-1.543-.48-2.604.388-5.11-1.253 0 1.446.192.58.192.58-1.448-.388-3.474-.966-5.4-.87-1.157-.77-2.605-.482-3.763-.77-2.7-.29-4.53-1.35-7.137-1.157 0 0-.096-.098-.19-.098-.772-.482-1.64-.193-2.122-.674-5.883-1.64-11.86-3.278-17.744-4.917-1.35-.676-2.508-.965-3.955-1.543-1.93-.675-3.76-1.832-5.786-2.604s-3.953-2.025-6.268-2.7c-.578-.29-1.543.192-1.543-.77 0-.29-.29-.966-.096-1.063.674-1.06 2.602-1.06 3.566-1.542 2.314-.192 5.594-.675 8.39-1.253 1.062-1.254 2.7-.29 3.954-.77 4.727.19 9.643-2.22 15.043-1.544 6.848-1.06 14.465-1.64 20.928-1.06 4.917.382 9.837-.1 14.755.575zm-29.22 1.64c-1.253-.482-3.183.675-5.11.29-2.316-.387-4.822.385-7.137.77-2.22-.386-3.953.964-6.172.77-1.447.193-3.857.193-5.785.58-3.185.578-6.077 1.446-9.74 1.735 1.446 1.64 4.05 2.797 4.435 2.894 2.025.675 3.664 1.832 5.496 2.41 2.798.965 5.208 1.93 7.813 2.7 1.832.482 4.242 1.06 5.883 1.35 1.832-.096 4.436 1.543 6.94 1.928 1.448.193.772.87 2.798.29.77-1.833 1.93-3.085 2.605-4.726.866-1.157 1.347-1.254 2.6-2.604.87-.868 1.737-2.22 2.702-3.472.867-.965 2.025-2.024 2.604-2.7 0-.193 1.156-1.446 1.156-2.218-1.35-.29-2.893-.29-3.76-.386-2.603-.384-4.63.002-7.33.388zM1134.91 826.795c2.698.482 4.917.965 7.81.578 5.016 2.122 10.8-.867 15.525 2.604 2.604.58 5.883.675 8.295 1.93 4.05 1.35 8.293 1.928 11.764 4.724 1.445 1.93 2.508 3.666 3.568 5.69-.193 1.93-.096 4.147-1.832 5.015-3.666 1.446-7.523 2.122-11.09 3.954-7.715.192-14.852 2.988-22.084 1.734-3.47.772-6.846-.096-10.318.482-5.98-.386-11.475-2.797-17.262-3.857-1.254-1.062-6.172-1.93-2.217-3.472 2.603-.482 4.24 1.446 6.556 2.024 1.35.29 2.604 1.832 4.146 1.832 5.883 1.06 10.994 2.122 17.357 1.35 5.497 1.35 11.476 0 16.972-1.156 5.207-.386 9.932-1.832 14.754-3.183 2.314-1.06 1.447-2.99 2.508-5.497-1.254-.867-.867-2.7-1.734-3.47-1.545-1.737-4.63-2.605-6.56-3.762-3.183-.482-6.364 0-8.677-1.833-2.605-.48-5.596.193-7.62-1.832-8.68-1.445-17.454-.77-25.554-2.796-4.728-.482-8.68-.675-12.538-3.085.193-.58 1.158-.29 1.543-.483 5.98-.385 10.8 2.99 16.684 2.508zM1185.634 806.158c-.965 2.122-3.28 2.315-4.92 3.472-2.217 1.157-4.63 2.314-7.135 2.604-.677.386-1.642.48-2.413.578-6.46 1.157-12.73 3.76-19.48 3.954-4.628.964-9.74.48-14.755.386-4.146 0-9.45-1.157-13.596-2.99-2.025-.48-4.242-1.253-5.69-2.507-2.12-.58-3.76-2.122-5.593-3.278-.385-.676-.867-1.35-.867-2.025 0-.097-.096-.193-.096-.193 1.928.48 3.76 1.928 5.69 3.085 1.542.868 2.41 2.025 4.048 2.41 2.797.58 5.016 2.51 7.908 2.315 5.303 1.35 11.09 1.254 17.455.868-.964-2.218.675-3.086-.097-4.436.098-.58.193-.965.387-1.35.29-.29.482-.58.867-.29l.482.48c-.194.58.192.966.48 1.255-.288 1.254 0 2.508-.192 4.05 4.725.482 7.908-.867 11.764-1.06 1.64-.772 4.146-.965 6.174-1.544 1.83-.578 4.05-.578 5.785-1.64 1.448.193 3.087-.29 4.243-1.735 2.508.097 4.438-1.735 7.33-2.314v-.482c.48-.192 1.445-1.253 2.604-.867-.094.482-.192.867-.383 1.253zM1122.18 778.193c1.06 0 2.603-.096 3.76-.192 2.798-1.734 7.136 0 10.415.387 2.025-1.157 5.4-.482 7.523-.675 3.086-.77 7.135.192 10.703.192 6.27 0 13.5-.192 19.77-.48.964-.098 1.93-.677 2.798-.29.096.096.19-.097.29-.097-2.22 1.446-4.92 1.542-7.138 2.507-3.182 2.796-6.848 4.243-10.223 6.364-4.05 1.833-8.195 3.183-11.86 5.98-1.157.577-2.218 1.253-3.376 1.83l-2.794 1.352 3.182.192c7.52.48 14.56-1.35 22.275-.29 3.086 0 5.98-1.253 8.97-.675.77-.097 1.735 0 2.41 0-.097.193 0 .58-.097.676-.77 0-1.447.192-2.12.675-.774.386-1.737.386-2.605.578-2.604.29-5.208-.097-7.81.482-7.04.193-13.888-.675-20.733.097-3.182-.58-6.365 1.06-9.45.193-2.026.48-4.628-.58-6.173.578-4.63-.482-9.16-1.254-13.982-1.254-1.06-.386-2.7 0-3.182-1.157-.098-.096.578-1.06.578-.578 5.207-1.35 9.645 1.735 15.62 1.06 3.09-.385 6.27 0 9.55-.964.963-1.35 2.41-1.253 3.47-2.12 1.93-.29 3.858-.772 5.112-2.123 4.918-2.41 9.932-3.278 13.887-6.846 1.156-.482 2.314-1.062 3.566-2.122 0-.29 2.797-1.543 2.797-1.832-.096-.193-2.988.48-2.988.097-3.762 0-7.232-.676-10.223.385-5.4-1.35-10.993-1.446-16.78-.192-4.146-.482-8.39-1.06-12.44-.29-3.374-1.446-7.136 1.544-10.222-1.156-.29-.868-1.832-.58-1.734-1.64 3.276-.578 6.073 1.254 9.255 1.35zM1169.046 729.207c-.193-.097.87-.29 1.254-.192h.77c.58.192 1.35.482 1.93.386 1.35.58 2.7.29 3.856.87 2.314 1.06 5.4 2.023 7.908 4.145 1.543 1.64 3.568 2.313 5.11 3.76.29.868.675 1.255.483 2.025-1.543.097-2.314-2.12-3.762-2.7-1.06-.964-2.604-1.253-3.47-2.507-.194-.097-.58-.482-.772-.578-.193-.097-.29-.29-.29-.29-.097 0-.48-.192-.48-.29-.87-.867-1.16-.964-1.16-.577-.675-.193-1.155-.676-1.83-.58-.29-.096-.58-.288-.772-.577-1.155.193-1.446-.385-2.024-.48-1.06-.58-2.7 0-3.857-.387-.58.097-1.062-.482-1.735-.386-2.316-.675-3.28-.097-5.787.096-3.182 1.158-3.28.87-5.303 1.64-1.543.58-2.412.77-3.857 1.447-1.447.675-2.025 1.446-3.473 2.12-1.35.58-2.217.387-3.47.87-1.448.577-2.315 1.253-3.667 1.83-1.35.676-2.41.966-3.953 1.64-1.445.87-2.217 1.736-3.953 2.22-.482 0-1.156.096-1.64.096-.48-.097-1.06.096-1.35.096-.29.097-.772-.096-1.062-.192-1.734.578-2.7-.58-4.53-.386-1.737-.482-3.474-.675-5.5-1.35-1.927-1.062-4.435-1.543-6.556-2.99-2.22-1.157-4.436-2.893-6.076-5.015-.193-.29-.963-1.062-.29-.965 1.737.77 3.28 2.507 5.112 3.183 4.918 3.086 10.03 4.918 15.14 5.4.58.29 1.255 0 1.93.29.964 0 2.313.288 3.374.095 3.473.387 2.7-1.156 4.146-1.735 1.543-.58 2.508-.482 3.857-1.157.965-.577 1.447-1.253 2.604-1.734.966-.58 1.642-1.062 2.894-1.254 2.895-.29 2.99-.868 4.438-2.122.676-.386 1.06-.867 1.832-1.156.674-.58 1.254-.29 2.12-.58 1.16-.29 1.737-.674 2.894-1.06 1.06-.386 2.22-.868 2.797-.868 2.025-.868 3.184-.29 5.11-.482.578-.003 1.157.383 1.06.383zM1185.15 716.767c.29.097.483.192.675.386-.867 2.218-3.47.965-5.496 1.543-1.737.29-3.376 0-5.112.097-4.725.096-9.45-.097-13.982 0-2.41 0-5.594.192-8.102-.097-1.64-.193-3.664 0-5.303.097-3.952.385-7.714 0-11.86.29-.193-.194-.385-.194-.578-.194-1.736.867-3.664.096-5.305.385-3.953.193-7.715.58-11.572.58-2.7-1.158-5.496.577-8.293-.098-.387-.097.578-1.157.87-1.157 4.24-2.893 9.16 1.157 13.884-.192 5.594-1.543 11.86-.965 17.36-1.254 5.495-.29 10.702.192 16.296 0 1.543-.193 3.086-.193 4.725-.193.385 0 .867.098 1.254.098 4.243-.097 8.487-.097 12.247-.675 2.892.77 5.304.287 8.294.384zM1192.77 695.842c1.253 1.06 0 .964-.194 1.35-5.4 4.726-12.922 3.762-18.707 7.522-4.147 1.543-8.583 2.12-12.634 3.085-3.182.096-6.076 1.445-9.064.868-.965.77-2.412 0-3.473.385-6.944 0-10.897-1.35-16.298-2.507-1.832.193-3.762-.386-5.207-1.64-2.508.29-4.533-.482-6.365-1.446-4.436-1.64-8.87-3.375-12.053-6.46 0 .096-.58-.194-.29-.387.77-.482 1.64.386 2.41.77 4.534.386 7.427 3.665 11.476 4.63 1.832.964 3.857.964 5.594 1.64 7.426 1.93 12.344 3.568 20.154 3.663.097 0 .29-.674.29.097 6.654-.385 12.344-1.93 18.42-2.603 6.17-1.93 12.342-4.147 18.514-6.076 1.64-1.06 3.568-1.93 5.69-2.7.577 0 1.64-1.06 1.93-.674.094 0 .77 0-.195.482zM1180.714 665.466c-1.156.868-2.7 1.446-3.857 2.41-4.725 1.35-9.836 2.604-14.945 2.604-3.666.578-7.426 1.35-10.994 2.218-1.93-.193-4.146-.578-6.365-.097-.29.772-.29 1.062-1.445 1.35 1.06 2.798 3.277 4.727 4.338 6.752.58.29 1.158 1.06.965 1.735-.384 1.157.194 1.157.868 1.833.87 0 1.64.096 2.412.48 2.025-.674 3.568-.674 5.207-.096 1.832 1.062 3.375.29 5.4 0 3.857-.578 7.52-1.446 11.477-1.64 3.084-.096 6.17-.096 9.45-.096.288.097.577.192.48.48 0 .29-.386.58-.675.677-4.82.29-9.45.482-13.694 1.832-3.182-.097-5.785.868-8.775.58-7.134-.677-14.657 0-21.407.867-2.988-.676-5.303.578-8.195.385-7.52-.58-15.334-.58-21.988-2.797-.963-.29-.482-1.062-.963-1.736.096-.29.578 0 .77-.097 2.315.482 4.34 1.543 6.655 1.447l.19.192c3.956-.193 7.62 1.06 11.09.866 2.605 1.447 5.497-.385 8.294.098 3.568.578 6.56-.676 10.03-1.157.48-.387 1.157-.77 1.83-1.543-1.155-3.086-4.724-5.015-5.11-7.52.482 0-.674-.773-.19-2.316-2.99-.868-5.4.29-7.62-.77-1.832-.483-3.664.48-5.594-.58-2.604 1.254-4.916.097-7.424.29-1.447-1.255-2.025 1.253-3.762.096-1.64.482-3.857.77-5.207 0 .095-.386.095-.675 0-1.06 1.444-.87 3.472.288 4.917-.87 2.12-.192 3.664.965 5.785.58 6.172-1.157 13.02.192 19.287-.193 4.34-.19 9.063.483 13.21-.963 6.56-1.062 13.404-1.93 19.576-3.183 1.543-.964 3.375-2.025 5.305-1.93.29.293.578.487.674.872zM1185.15 627.085c.29.097.483.192.675.386-.867 2.22-3.47.966-5.496 1.544-1.737.29-3.376 0-5.112.096-4.725.097-9.45-.096-13.982 0-2.41 0-5.594.193-8.102-.096-1.64-.193-3.664 0-5.303.096-3.952.386-7.714 0-11.86.29-.193-.193-.385-.193-.578-.193-1.736.868-3.664.097-5.305.386-3.953.192-7.715.58-11.572.58-2.7-1.158-5.496.577-8.293-.098-.387-.097.578-1.157.87-1.157 4.24-2.893 9.16 1.157 13.884-.192 5.594-1.543 11.86-.965 17.36-1.254 5.495-.29 10.702.192 16.296 0 1.543-.193 3.086-.193 4.725-.193.385 0 .867.096 1.254.096 4.243-.097 8.487-.097 12.247-.675 2.892.77 5.304.29 8.294.385zM1181.294 593.914c.19.48 1.734.48 1.156 1.253-2.7 1.832-6.365-.193-9.258 1.35-9.74 2.99-20.06.772-29.99 2.122-5.787.77-11.186.77-16.875 1.928l-3.28-.097-.095.387 3.277 1.446c3.76.772 8.583.868 12.15 1.736 3.374.866 6.267.964 9.546 1.928 3.568.675 7.04.29 11.09.386.29.192.77.097.965.386-5.11 2.122-11.378.675-16.683 2.218-1.445 1.254-3.857.868-5.592 1.64-6.172 0-12.055 2.122-17.84 2.41-.676.58-1.834.676-2.797 1.062 0 .385-2.604.964-2.508 1.157.096.29 3.086.192 3.182.675 9.55 1.446 18.227 0 27.002 1.06 5.4-2.024 10.992 1.158 16.2-.578 6.173-2.024 13.116.29 18.612-1.832 1.64 0 3.375-.867 4.82 0 1.736.098 4.63-1.64 5.98.193 0 .192.19.096.29.192-1.35.868-3.474.193-4.726.386-7.33 1.833-15.045 2.314-22.662 3.472-3.086 0-6.172.482-9.064-.386-3.762.097-7.62.385-11.572-.29-9.162-.29-17.55 1.543-26.135-.964-3.182-.965-6.268 0-9.064-.676 0-.578-2.12.482-1.64-.385.58-.29.966-1.255 2.026-1.446 4.34-2.412 10.028-1.738 14.85-3.474 5.882-1.06 12.536-1.735 18.61-3.182l3.184-.772v-.386l-3.184-.578c-3.953-.675-7.715-1.253-11.668-1.735-4.822-2.22-10.51-2.025-15.332-4.147-.29-.29-.77-.48-1.158-.674.77-1.158 3.086-.098 4.244-.193 4.05-2.123 8.582-.483 13.018-1.64 10.125-1.062 17.648-.483 27.58-1.35 2.314-.676 5.883-.676 8.486-1.063 4.63-.675 9.547 1.157 13.018-1.735.678-.484 1.256-.29 1.836.192zM1111.573 562.38c1.734.48 3.182 1.542 5.014 1.253.963.29 2.025.192 3.086.29.867-.29 1.928.288 2.988.192 2.026-.58 3.858-.097 5.884-.58 2.025-.288 3.473.193 5.4.193 1.35.482 2.508-.48 4.05-.192 2.605 0 6.364-.097 9.065.097 4.145-1.446 8.58-.482 12.823-.58.77-.19 1.736-.095 2.51-.095.578.096 1.156-.386 1.734-.386 6.46-.193 13.31.29 19.383-.482 1.35.675 2.7-.965 3.664.482.77 1.64-1.64.867-2.797 1.35-2.41 0-4.725.676-7.23.386-2.895.675-5.69-.386-8.68-.097-1.543-.577-3.182.194-4.918.098-2.22-1.157-4.147.097-6.173.58-4.533-.772-10.318 0-14.85-.29-3.28 1.446-6.943.192-10.03 1.06-2.99-.964-6.653.193-11.862-.675.58.58-3.182-.192-2.795.097.867.77 5.496 2.218 5.785 2.507 1.447.482 3.28.676 4.533 1.447 3.664 1.254 8.004 1.06 11.38 3.183 4.724.964 9.063 2.12 13.98 2.7.483.192 1.16 0 1.737.192 1.832-.194 3.086 1.734 4.918 1.542.29.097.29.29.19.578-.673.29-1.35.386-1.927.193-2.604-.386-5.305.482-7.906.868-3.088.965-6.365 1.544-9.645 2.122l-.578.386c-2.797.77-5.4.77-8.102 1.735-.963.77-3.664.868-3.664.868l-4.82 1.158 4.628.192c4.822 1.255 10.705 0 15.527.29 2.023-.965 4.436.192 6.46.192 2.894.097 6.075-1.157 8.776-.482 2.798-.096 4.82-.096 7.427-.48 2.312-.29 5.205.385 7.81.19 4.243.098 8.776-.77 13.308.29.77 1.062 3.568-1.06 3.473.58-2.412.77-5.016.096-7.62.867-.77-.192-1.733-.386-2.507.097-3.47.385-8.003-.77-11.667 0-1.06.096-1.736-.193-2.795-.193-3.762.772-7.33.387-11.188.676-1.832-.77-4.05-.48-5.98 0-4.437 0-8.485-1.253-12.92-.097-4.726.096-9.837-.58-14.948-.386-1.06.48-2.12-.097-3.28 0-1.253 0-2.603-.097-3.856.385-.867 0-1.736.288-2.314-.386-.29.29-.385.096-.867-.097-.193-.578.578-.29.578-.482 1.06-.29 2.604.193 4.05-.578 1.35 0 1.544-2.025 3.28-1.543 1.156.578 2.41-.676 3.664-.482 4.63-.868 8.582-2.893 13.5-3.183.77-.772 2.797-.58 3.762-.87 2.987-1.06 6.362-1.06 11.667-2.988-6.076-2.507-11.38-1.06-14.756-3.664-2.118-.58-4.724-.675-6.556-1.832-.77-.193-1.736-.386-2.604-.097-2.12-.193-3.664-1.93-5.883-1.93-1.254 0-2.12-1.446-3.375-1.446-.965-.675-2.217-.77-3.182-2.025-2.797 0-4.918-.482-6.848-1.544-.385-.192-.29-.578-.578-.964 0-.386-.096-.77.387-.965 1.16.29 1.932 1.062 3.283.772zM1185.634 543.576c-.965 2.122-3.28 2.314-4.92 3.472-2.217 1.157-4.63 2.314-7.135 2.604-.677.386-1.642.482-2.413.58-6.46 1.156-12.73 3.76-19.48 3.952-4.628.965-9.74.482-14.755.386-4.146 0-9.45-1.156-13.596-2.99-2.025-.48-4.242-1.253-5.69-2.506-2.12-.58-3.76-2.122-5.593-3.28-.385-.674-.867-1.35-.867-2.023 0-.096-.096-.192-.096-.192 1.928.482 3.76 1.93 5.69 3.086 1.542.868 2.41 2.025 4.048 2.41 2.797.58 5.016 2.508 7.908 2.315 5.303 1.35 11.09 1.252 17.455.866-.964-2.218.675-3.085-.097-4.436.098-.578.193-.964.387-1.35.29-.29.482-.58.867-.29l.482.482c-.194.58.192.965.48 1.254-.288 1.254 0 2.507-.192 4.05 4.725.482 7.908-.867 11.764-1.06 1.64-.772 4.146-.966 6.174-1.544 1.83-.58 4.05-.58 5.785-1.64 1.448.193 3.087-.29 4.243-1.735 2.508.097 4.438-1.736 7.33-2.314v-.482c.48-.19 1.445-1.252 2.604-.867-.094.48-.192.867-.383 1.253zM1185.634 511.85c-3.762 2.7-3.473.965-5.305 2.025-1.35.675-2.605.29-3.858.77-2.025.676-2.025.868-3.568 1.64-.87.58-1.543 1.062-2.508 1.447-1.928.868 0 2.12-4.82 2.024-.482.097-2.508 3.28-3.182 1.93-2.412.29-.965.48-2.895 1.253-.097.192-.194-.29-.386-.29-.965.386-1.158-.193-1.543.77-.192.387.29.87-.772.29-1.06.482-2.023.868-2.023.965-.29.29-.867.192-.867.192-.676 0-1.545.965-2.316 1.735-1.734.482-2.893 2.604-3.855 4.437 3.182.674 5.398.19 7.617.964.867.192 1.736-.965 2.7 0 1.35-.387 2.122-.193 3.085-.29 1.64.675 2.41-.097 4.437.193 2.795-.772 2.7-.868 5.69-.868 4.048.77 6.073.095 10.124.48.772-.386 2.41.097 3.183.58 1.64-.58 4.438-.483 4.63-.387.29.097.77.58 1.157.77.096.194.096.29-.098.387-2.314.868-2.988.097-5.207.675-1.543-.29-3.76 0-5.4-.29-2.988.194-3.762-.867-7.137-.096h-17.838c-.482-.098-.965.192-1.447.096-.77-.193-1.736.58-2.508-.193-3.76.58-8.004-.385-10.512.29-.77.386-1.734.386-2.506.482-2.314-1.062-5.69.097-7.908-.482-1.16.29-2.7.77-4.052.58-2.12.384-3.953.288-5.88.77-1.16-.386-2.702.29-3.763 0-1.93.482-4.05-.192-6.076 0-.097-.192-.194-.386-.29-.675 1.736-3.278 4.34-4.532 6.943-7.426 4.244-3.086 11.477-4.82 16.875-1.832.965-.675 1.062.482 1.64.482 1.93 1.157 2.798 2.12 4.823 2.508 1.64.867 2.218 1.832 4.243 2.99 1.543-1.64 3.086-2.315 4.05-3.763 1.737-1.64 3.954-2.41 5.786-4.242 4.437-1.93.77.675 6.075-1.736 5.303-1.544 3.277-1.64 5.4-2.41 1.64-.58 3.47-.966 4.146-1.448.58-.48 1.062-.578 1.64-1.06 3.953-2.412.482-1.833 5.305-2.7.867-.194 4.918-1.158 5.303-1.447.676-.482.482-.29 2.12-.964.58-.19 2.315.484 1.546.87zm-72.905 21.215c4.34.87 7.327.482 10.704-.096 4.05-1.158 9.545-.676 13.79-.965.964-.482 2.796 0 3.276-1.833-1.734-.29-2.506-1.35-3.47-1.832-.1 0-.29-.097-.388 0-2.7-1.35-5.303-2.604-8.293-3.183-5.88-1.157-11.667 2.605-15.62 7.908zM1109.16 490.732c-.095 1.157-.095 3.568-.48 5.11-.194.676.288 1.93-.772 2.894.29 1.93 1.64 1.157 2.22 1.93 2.892 1.83 6.17-.387 9.353 1.156 5.497-.192 13.694.77 19.48.578.097 0 .48-.096 1.062-.096.48-.77 1.06-1.35.963-2.218.676-1.062-.193-1.35.29-2.7.58-1.833 0-.772.964-2.508.48-.386.964-.77 1.542-.675.387.964 0 1.832 0 2.99-1.252 2.603-.193 1.253-.963 4.436l.577.577c2.7-.29 4.918-.482 7.328-.482l.482-.192c2.508.386 5.98.192 8.293.29 10.512.385 21.89 0 31.822 1.253.676.096.098.77-.29.868-4.82.385-10.317-.676-15.33-.193-.1-.096-.388-.19-.483-.288-2.026-.193-5.69.29-8.198-.097-3.568 1.253-7.426 0-10.8 0-4.726-.675-9.644.675-15.044.868-1.156 0-2.988.48-4.05-.193-5.786.097-12.44-.192-17.55-.675-1.062.29-3.088-.482-4.05-.097-1.835-.29-4.437-.482-6.27-.578-.772-.193-2.024-1.254-2.99-1.543-.964-.965.483-2.314.483-3.76-.868-1.063.097-1.64.097-2.7.193-.29.193-.772.29-1.063.77-1.253.288-3.278 1.64-4.34.867-.095.19 1.448.384 1.448zM1156.413 465.466c6.076-.77 11.475 2.22 17.068 3.472 2.315 1.254 5.017 1.447 7.716 3.183.87-.288.965.387 1.254.772 0 .097-.096-.482-.096-.482-3.28 1.93-7.137 4.05-11.188 5.208-2.12.964-4.725 1.253-6.846 1.93-2.604.77-5.11 1.638-7.62 2.313-5.206.482-8.58 1.35-13.595 1.833-3.762-.676-8.197-.29-11.572-1.736-2.123.77-4.725-.192-6.752-.675-2.505.482-4.53-1.832-6.94-2.122-2.604-1.156-5.883-.964-7.715-3.182.096-.097-1.06-.77-.387-1.543.193-.192.29-.386.482-.578 1.64-1.158 2.797-2.797 4.822-3.665 4.436-2.507 9.45-4.918 15.043-4.726 2.988.58 5.883-1.93 8.873-.386 5.498 0 12.055-.674 17.455.386zm-43.78 7.812c-.386 1.06-1.253 2.7.675 2.7 6.75 2.507 13.502 3.857 20.443 4.918 6.75.965 13.116 1.543 19.675-.29 8.39-2.41 17.262-3.953 26.71-8.39-5.495-1.06-8.58-2.7-11.956-3.278-7.427-.48-14.177-2.7-21.698-2.507-12.15.194-24.4 1.544-33.85 6.848zM1175.892 444.446c-3.47 2.506-7.906 2.12-11.088 4.82-1.254.387-2.604 1.06-3.666 1.736-2.988-.097-6.074 1.832-10.125 3.664 2.604 1.06 4.533.77 5.883.386 5.69 0 10.703-.964 16.684-.097 1.64 0 3.664-.482 5.11.193 2.796.097 6.075-.676 8.485.675l.193.193c-2.025.578-4.63.386-6.654.29-1.734-.483-3.566.19-5.496.19-3.762.098-7.715-1.252-11.09.387-3.086.387-5.98-1.06-8.97 0-2.698.868-5.4-.48-7.905.772-4.63-.772-10.61.096-15.623-.772-5.69 0-11.475.387-17.068-.578-3.086-.097-4.34-.675-7.232-1.254-.096 0 .482-.674.482-.867 3.086-1.832 4.146-2.41 7.426-3.664 4.53-1.833 9.354-1.447 13.885-2.7 6.365.096 12.633.963 17.262 7.04 8.486-5.112 17.55-5.69 25.748-10.127 3.664-1.157 7.04-2.99 10.705-4.146.578 0 1.54-.387 2.217-.193-2.99 1.736-6.076 3.087-9.163 4.052zm-54.29 6.363c-1.255.385-2.796-.098-3.954.675-1.543-.193-2.99.675-4.244 1.156l-2.312 1.64c.867.098 4.242.387 5.207.58 1.25 1.253 3.47.675 5.013 1.06 7.137-.964 15.14.193 23.723-.192-1.254-1.543-2.506-1.928-3.182-2.604-1.352-1.35-5.11-2.797-7.62-3.857-4.34.578-8.97-.387-12.633 1.542zM1102.894 414.743c.193 1.64.867 2.797 1.156 4.532-.578 2.604-.096 4.918.87 8.1 1.35-.674 2.313-.48 2.796-.288 1.83-.193 4.146.29 5.977.193 1.738-.387 3.857-.58 5.594-.58 2.7-1.35 6.076-1.735 8.775-2.313 1.543.386 3.377 0 4.822.192 6.557 0 13.31-1.64 19.48-2.508 1.157.097 2.894-.192 3.954.097.19-.098.674-.098.77-.194 4.823-.192 8.68-.29 13.5-.29 2.22 0 4.147.387 6.173.483h-.095c-2.508 1.83-5.98 1.156-8.68 1.734-3.955-.964-8.102 1.06-12.344-.578-2.507 2.604-5.495.578-8.1 1.446-2.41-.29-5.304-.193-7.33 1.06-.962-.095-1.83.29-3.18-.19-2.315 1.35-5.208.674-7.62.674-3.953-.868-7.135 1.735-10.896 1.254-2.7 1.35-5.785 1.157-8.87 1.157-.966-1.062-2.51-.097-4.437-2.22-.676 4.244-.29 6.752-.482 9.355.482 2.025-.29 4.243 0 6.46-.096.098-.096.193-.193.29-.77-.097-.963-.964-1.254-1.543.58-1.93.482-3.857 0-5.786-.385-.482 0-1.35.098-2.314-1.062-1.447-.193-3.568-.965-4.92.483-1.542-.192-3.18-.097-4.724-.867-1.543.29-3.568-.578-5.11 0-1.352-1.832-2.7-.29-3.762.097-.097.29-.193.483-.29.385.096.868.193.966.58zM1185.15 377.906c.29.096.483.193.675.386-.867 2.218-3.47.965-5.496 1.543-1.737.29-3.376 0-5.112.096-4.725.1-9.45-.095-13.982 0-2.41 0-5.594.194-8.102-.095-1.64-.193-3.664 0-5.303.096-3.952.388-7.714 0-11.86.29-.193-.19-.385-.19-.578-.19-1.736.866-3.664.095-5.305.384-3.953.193-7.715.58-11.572.58-2.7-1.158-5.496.577-8.293-.098-.387-.097.578-1.156.87-1.156 4.24-2.894 9.16 1.156 13.884-.193 5.594-1.544 11.86-.965 17.36-1.254 5.495-.29 10.702.192 16.296 0 1.543-.192 3.086-.192 4.725-.192.385 0 .867.097 1.254.097 4.243-.096 8.487-.096 12.247-.675 2.892.77 5.304.288 8.294.384zM1122.18 350.52c1.06 0 2.603-.098 3.76-.193 2.798-1.736 7.136 0 10.415.387 2.025-1.158 5.4-.482 7.523-.676 3.086-.77 7.135.193 10.703.193 6.27 0 13.5-.192 19.77-.48.964-.098 1.93-.677 2.798-.29.096.096.19-.097.29-.097-2.22 1.446-4.92 1.542-7.138 2.507-3.182 2.796-6.848 4.242-10.223 6.364-4.05 1.832-8.195 3.182-11.86 5.98-1.157.578-2.218 1.253-3.376 1.832l-2.794 1.35 3.182.193c7.52.48 14.56-1.352 22.275-.29 3.086 0 5.98-1.254 8.97-.676.77-.097 1.735 0 2.41 0-.097.193 0 .578-.097.676-.77 0-1.447.192-2.12.674-.774.387-1.737.387-2.605.58-2.604.29-5.208-.098-7.81.48-7.04.193-13.888-.674-20.733.097-3.182-.577-6.365 1.063-9.45.194-2.026.482-4.628-.578-6.173.578-4.63-.48-9.16-1.254-13.982-1.254-1.06-.385-2.7 0-3.182-1.156-.098-.097.578-1.06.578-.578 5.207-1.35 9.645 1.734 15.62 1.06 3.09-.385 6.27 0 9.55-.964.963-1.35 2.41-1.254 3.47-2.12 1.93-.29 3.858-.772 5.112-2.123 4.918-2.41 9.932-3.28 13.887-6.847 1.156-.48 2.314-1.06 3.566-2.12 0-.29 2.797-1.545 2.797-1.833-.096-.193-2.988.48-2.988.096-3.762 0-7.232-.675-10.223.386-5.4-1.35-10.993-1.447-16.78-.194-4.146-.48-8.39-1.06-12.44-.288-3.374-1.447-7.136 1.543-10.222-1.157-.29-.867-1.832-.577-1.734-1.64 3.276-.58 6.073 1.252 9.255 1.35zM1153.425 298.157c3.76.29 7.617 1.157 11.668 1.64 4.918.578 10.03 1.156 14.656 3.472 2.41 2.41 5.4 3.663 7.33 6.846.288 1.735 1.542 1.446.964 3.568.096.29-.193 0-.193-.387-2.216.098-1.157-.482-2.796-2.7-2.508.772-4.34-.386-6.172.387-7.715-.482-14.37 0-21.89.77-1.833.87-4.147.87-6.27.58-1.35-.482-2.796.48-4.435.192-5.016-.29-10.607-.29-15.525.387-3.664-.193-7.232 0-10.994.385-1.445-.29-3.086-.77-5.11-.192-.58 1.35-1.255 1.06-.772 2.218-.193.193-.385.482-.674.676-.29-.098-.58 0-.87-.29.388-2.796 2.22-4.34 3.956-6.46 3.375-3.086 7.715-4.533 11.38-7.522 2.41-1.544 4.917-1.736 7.52-2.797 3.28-.48 6.943-.29 10.125-.963 2.7.67 5.305.48 8.102.19zm-15.237 2.41c-3.762-.192-6.365 1.544-9.934 2.605-.193.192-1.06 1.06-1.543 1.35-2.698 1.93-5.882 2.797-8.774 6.654 3.47-.29 5.207.965 6.846.29 2.412.288 4.533-.965 6.945-1.062 3.47 1.06 7.232.193 10.8.675 3.278.385 6.847-.387 10.222-.58 5.978-2.314 12.92-.674 19.093-1.35 2.99 0 6.46-.482 11.186.097-1.833-3.857-5.11-4.532-7.33-5.786-5.688-1.542-11.378-2.507-17.26-3.085-1.16-.193-2.605.29-3.665-.386-5.305.29-11.67-1.543-16.587.578zM1190.647 287.55c-.29.096-1.06.674-1.736.867-1.83.097-4.435.29-6.267.578-1.06-.385-3.086.387-4.146.097-5.11.482-10.223.772-16.008.675-1.062.676-2.99.193-4.147.193-5.4-.193-10.318-1.543-15.045-.868-3.375 0-7.232 1.254-10.8 0-2.507.386-6.17-.097-8.196.097-.098.096-.29.192-.387.288-5.014-.482-10.607.578-15.43.193-.385-.096-.867-.77-.19-.867 9.93-1.253 21.214-.77 31.726-1.253 2.315-.098 5.786.096 8.294-.387.096.097.19.193.29.29 3.76 0 7.23.48 10.8.77.29-.192.963-.096 1.156 0 5.787.193 12.537-.867 18.033-.674 3.184-1.544 6.56.673 9.45-1.16.386-.577 1.255-.288 1.737-.77 1.157.772 1.06 1.544.867 1.93zM1185.634 267.78c-.965 2.122-3.28 2.315-4.92 3.473-2.217 1.157-4.63 2.314-7.135 2.604-.677.385-1.642.48-2.413.578-6.46 1.156-12.73 3.76-19.48 3.953-4.628.965-9.74.482-14.755.386-4.146 0-9.45-1.157-13.596-2.99-2.025-.48-4.242-1.253-5.69-2.506-2.12-.58-3.76-2.122-5.593-3.278-.385-.676-.867-1.35-.867-2.025 0-.097-.096-.193-.096-.193 1.928.482 3.76 1.93 5.69 3.086 1.542.868 2.41 2.025 4.048 2.41 2.797.58 5.016 2.508 7.908 2.314 5.303 1.35 11.09 1.254 17.455.87-.964-2.22.675-3.087-.097-4.438.098-.58.193-.964.387-1.35.29-.29.482-.58.867-.29l.482.482c-.194.578.192.965.48 1.254-.288 1.254 0 2.507-.192 4.05 4.725.482 7.908-.868 11.764-1.06 1.64-.772 4.146-.965 6.174-1.544 1.83-.58 4.05-.58 5.785-1.64 1.448.193 3.087-.29 4.243-1.736 2.508.098 4.438-1.734 7.33-2.313v-.482c.48-.192 1.445-1.253 2.604-.868-.094.482-.192.868-.383 1.254zM1188.14 203.943c2.41.29 4.05-.29 4.63.867 0 .098-.097.29-.097.387-3.568 2.024-8.197 1.157-12.344 2.314-7.33 1.062-14.853 1.64-21.603 3.376-1.543 2.12-3.28 5.014-2.22 7.812.1.096-.288 0-.673.675.674.964-.387 1.35-.387 2.12-.385 1.833-.19 4.147-.963 7.33 5.592 1.254 10.896 1.157 15.525 2.41 3.374.965 8.1-.578 11.474 1.158 1.254 0 2.797-.192 3.666.87.19.48-.676.48-1.062.48-3.953-.675-6.94-.386-10.703-.868-4.436-1.928-11.186-.29-16.008-2.218-1.736 0-4.436.482-5.787-.48-4.53-1.062-9.932.288-14.176-1.737-7.906.29-14.463-2.99-22.564-2.99-.385-.385-.385-1.06-1.254-1.156-2.314-.77-5.303.676-6.75-1.253.578-1.06 2.12-.578 3.28-1.446 9.74-2.12 18.706-6.363 28.64-8.195 2.797-1.352 6.268-1.736 9.354-2.99 1.06-.096 2.12-.29 3.086.097 1.928-.58 4.05-1.254 6.172-1.254 4.533-.097 8.582-2.218 13.31-1.832 1.444-.868 3.663-.193 5.204-.675 2.99-.288 6.076-1.06 8.873-1.83.578-.29.87-.483.965-.677.867-.386.963-.386 1.64-.29-.002.097.77-.193.77 0zm-36.452 7.81c-4.822 2.123-10.416 2.123-15.43 3.568-5.883 1.64-11.38 4.92-18.033 6.173 0 1.64.676 2.22 1.832 2.314 2.7.965 5.207 2.025 8.293 2.41 5.69.772 12.344.29 17.744 1.64 1.447 0 3.568 0 5.496.58.965-1.158 1.06-2.315 1.93-2.894 0-1.157.29-2.025.387-2.894.19-1.447.19-2.797.482-3.858.48-1.832.77-2.507.962-4.05 2.604-4.532-1.927-2.89-3.664-2.99zM1134.91 170.288c2.698.482 4.917.964 7.81.578 5.016 2.122 10.8-.868 15.525 2.604 2.604.58 5.883.675 8.295 1.93 4.05 1.35 8.293 1.928 11.764 4.725 1.445 1.93 2.508 3.665 3.568 5.69-.193 1.928-.096 4.146-1.832 5.014-3.666 1.445-7.523 2.12-11.09 3.953-7.715.192-14.852 2.99-22.084 1.735-3.47.77-6.846-.096-10.318.482-5.98-.386-11.475-2.797-17.262-3.857-1.254-1.06-6.172-1.93-2.217-3.472 2.603-.48 4.24 1.447 6.556 2.025 1.35.29 2.604 1.833 4.146 1.833 5.883 1.06 10.994 2.122 17.357 1.35 5.497 1.35 11.476 0 16.972-1.157 5.207-.384 9.932-1.83 14.754-3.18 2.314-1.062 1.447-2.99 2.508-5.498-1.254-.868-.867-2.7-1.734-3.472-1.545-1.736-4.63-2.604-6.56-3.76-3.183-.483-6.364 0-8.677-1.833-2.605-.48-5.596.192-7.62-1.833-8.68-1.445-17.454-.77-25.554-2.796-4.728-.482-8.68-.675-12.538-3.085.193-.58 1.158-.29 1.543-.482 5.98-.386 10.8 2.99 16.684 2.508zM1187.272 144.347c1.254.482 2.12-.193 3.086 0-.29.675-.77 1.254-.77 2.025-.388 1.06-1.737 1.254-2.51 2.025-.77.192-.866 1.253-1.735 1.832-2.025 1.253-3.857 2.603-5.883 4.05-3.953.963-7.52 3.664-12.15 4.145-3.568 1.64-8.195 1.544-12.15 1.64-2.41 1.928-6.268.193-9.16 1.254-1.447.19-2.314-.387-3.47-.387-3.956 1.06-7.524-.482-11.19-1.062-2.603-1.156-5.4-1.445-7.905-2.795-.773-.58-1.93-.386-2.7-.675-3.087-2.025-6.655-3.28-9.452-5.497-1.35-.29-1.736-1.93-3.086-2.218-.48-.676-1.445-1.254-.867-2.7-.867-.675-1.64-2.025 0-1.735.387-.29.578-.098.096.29 3.184 3.856 8.39 7.425 13.502 10.124 1.928 0 3.855 1.06 5.014 2.025 3.953 1.06 7.617 2.506 11.668 2.506 1.447 0 2.893.29 4.146-.097 2.508.288 4.822.964 7.426.288 2.508-.192 5.016-.48 7.426-.964 7.715-1.543 16.104-1.93 22.47-6.17 2.313-1.544 3.952-2.895 5.978-5.21-.29-.48 1.254-.385.965-1.06-5.978.29-13.403.48-18.804.868-2.41 1.06-5.207-.193-7.81.192-2.315.29-4.726-.29-7.138-.192-1.156 0-2.217-.193-3.28.192-1.733-.29-3.952.193-5.4-.77-.673-.58.87-.482 1.062-.87 1.545-.577 3.088-.77 4.822-.095 1.352.19 2.7-.677 3.955-.677 3.566 0 6.652.965 9.064.676 0-.29 1.157 0 2.122 0 .676-.194 1.35-.194 1.736-.098 2.12 0 3.47-.386 5.398-.097 3.473-.867 7.812 0 10.61-.77.866-.194.77-.097 1.638-.194 1.446.004 2.12-.478 3.278.197zM1185.634 125.253c-.965 2.123-3.28 2.315-4.92 3.473-2.217 1.157-4.63 2.314-7.135 2.604-.677.386-1.642.482-2.413.578-6.46 1.158-12.73 3.762-19.48 3.954-4.628.964-9.74.482-14.755.386-4.146 0-9.45-1.157-13.596-2.99-2.025-.48-4.242-1.253-5.69-2.506-2.12-.58-3.76-2.122-5.593-3.28-.385-.674-.867-1.35-.867-2.024 0-.096-.096-.193-.096-.193 1.928.482 3.76 1.93 5.69 3.087 1.542.868 2.41 2.024 4.048 2.41 2.797.58 5.016 2.508 7.908 2.315 5.303 1.35 11.09 1.253 17.455.867-.964-2.218.675-3.086-.097-4.436.098-.578.193-.965.387-1.35.29-.29.482-.58.867-.29l.482.482c-.194.58.192.964.48 1.253-.288 1.254 0 2.508-.192 4.05 4.725.483 7.908-.866 11.764-1.06 1.64-.77 4.146-.965 6.174-1.543 1.83-.578 4.05-.578 5.785-1.64 1.448.192 3.087-.29 4.243-1.735 2.508.096 4.438-1.736 7.33-2.314v-.48c.48-.194 1.445-1.255 2.604-.87-.094.483-.192.87-.383 1.253zM1188.333 86.78c-7.62 3.374-14.176 7.81-20.83 12.245-.578.29-.77 1.06-2.025 1.06-3.084 3.087-6.94 3.377-9.74 6.174-2.506 1.252-5.303 2.7-8.195 4.916.385.29 1.06.58 1.35.77 2.025.966 4.05.194 5.883.292 5.785.19 11.09-.772 16.2-.87 4.917 0 9.45-1.156 13.79-.674.096.192.096.48.096.868-.29 2.218-2.795.676-3.857 1.06-4.63.58-8.678.677-13.693.87-6.172.385-12.246.096-18.418.77-4.146.386-7.908 0-11.86.868-6.558-.772-13.212 2.604-19.77 1.254-1.542 0-3.087.77-4.726.385-.674-.483-3.76.096-2.22-1.35 5.017-.772 10.224 0 15.335-.677 7.715-.29 15.912-.77 21.602-5.69.963-.288 1.734-.964 2.41-1.445 2.41-1.446 5.016-2.507 7.04-4.63 2.024-.674 3.856-1.83 5.497-2.988 2.893-2.893 6.75-3.953 9.932-6.172 0-.385.29-.29.482-.385.867-.387 1.543-1.158 2.604-1.93 0-.386 2.797-.964 2.7-1.253-.097-.29-3.278-.193-3.567-.386-4.436.964-9.934 1.35-15.045 1.832-5.496.482-9.16 1.543-14.37 1.64-1.83-.386-4.435 1.446-6.265-.097-2.027 0-3.184-.097-4.822.48-1.446 0-2.892-.192-4.628-.192-.387-.096-.77.29-1.158.29-1.64 1.06-2.508-1.448-3.76-.29-.578.193-1.158.675-1.736-.193-3.086.868-5.496.387-8.1-1.06-.87.386-1.158-.097-1.543-.386v-.29c.29-.676.867.29.867.19 0 0 .578.483 1.158-.095.385-.58 1.252.674 1.445.385 3.28.77 7.137.58 10.8.098 3.376.578 8.487-.387 11.67.29.675-.1 1.542-.677 2.7-.29 1.06-.965 2.506-.098 3.277-.676 4.05-.29 8.39-.964 12.537-.964 3.952-.386 8.292-.77 11.474-1.253.676.192 1.447-.387 2.123.096 1.64-.384 2.314-.384 3.566-.577 2.508-.482 5.69-.87 7.908-1.35.388 0 .868-.29 1.446-.965-.48-.868.58-.482.676-.482.87-.386 2.314.386 3.762-.097 0 .29.095.58 0 .87zM1182.16 78.486c.097.096.194 0 .194.096-1.736.387-3.473-.29-5.016.387-1.06.675-2.41 1.253-3.76.577-.098-.674-.387-1.446-.193-2.313.193-.386.482.096.77-.193 2.895-.87 5.594.096 8.006 1.446z"/></g><path d="M2048 0M2048 1536M0 1536M0 0" fill="none" stroke="#17192D" stroke-width="3"/></g></svg>