<?xml version="1.0" encoding="iso-8859-1"?>
<!-- Generator: Adobe Illustrator 13.0.0, SVG Export Plug-In . SVG Version: 6.00 Build 14948)  -->
<!DOCTYPE svg PUBLIC "-//W3C//DTD SVG 1.1//EN" "http://www.w3.org/Graphics/SVG/1.1/DTD/svg11.dtd">
<svg version="1.1" id="Ebene_1" xmlns="http://www.w3.org/2000/svg" xmlns:xlink="http://www.w3.org/1999/xlink" x="0px" y="0px"
	 width="2048px" height="1536px" viewBox="0 0 2048 1536" style="enable-background:new 0 0 2048 1536;" xml:space="preserve">
<g id="dtxtb_x5F_4">
	<g>
		<path style="fill:#FF0050;" d="M1156.287,1481.601c3.568-0.288,6.27,1.157,9.547,1.93c0.676,0.577,1.35,0.577,1.35,0.48
			c0.193,0.097,1.447,0.386,2.509,0.965l0.288,0.098c1.447,0.771,1.543,0.675,2.604,0.771c1.736,1.157,3.955,1.35,5.4,2.41
			c2.895,2.122,7.137,4.146,9.739,7.232c1.832,2.313,3.664,3.567,5.306,5.883c0.096,0.579,0.481,1.157,0.096,1.832
			c-0.771,0-0.289,0.676-1.447-1.062l-0.19-0.386c-1.062,0.289-1.931,0.771-2.604,0.965c-1.641,0-4.146,0-5.885,0.192
			c-1.06-0.289-2.795,0.386-3.76,0c-4.822,0.289-11.091,0.481-16.394,0.097c-1.254,0.578-2.99,0.192-4.146,0.096
			c-5.017-0.288-9.547-1.832-14.08-1.35c-3.086-0.097-6.75,0.868-10.029-0.386c-2.313,0.289-5.979-0.289-7.811-0.192
			c-0.097,0-0.193,0.192-0.289,0.289c-4.728-0.579-10.802,0.192-15.332-0.289c-0.482-0.192-0.869-0.868-0.193-0.965
			c9.256-0.771,20.926-0.868,30.666-0.097c2.217-0.193,5.592,0.289,7.906-0.097c0.098,0.097,0.192,0.192,0.289,0.289
			c3.567,0,6.461,0.676,10.125,1.062c0.387-0.289,0.771-0.097,1.062,0.097c5.398,0.289,13.019-0.481,18.226-0.097
			c2.893-1.351,5.979,0.771,8.774-0.675c0.289-0.482,0.289,0.964,2.219-0.387c-0.577-0.192-1.157-1.156-0.868-1.156
			c-0.771-1.543-2.988-1.352-4.05-4.437c-0.577,0.578-0.387-0.29-0.868-0.29c0,0-0.482-0.289-0.675-0.386
			c-0.098-0.097-0.481-0.193-0.481-0.964c-0.965,0-1.158-0.289-1.447-0.098c-0.963-0.386-0.963-1.734-2.121-1.734
			c-0.481-0.193-1.157-0.387-1.446-0.772c-1.156-0.289-1.64-1.446-2.699-1.639c-1.543-1.062-3.857-0.868-5.111-1.736
			c-1.061,0-1.156-0.866-2.41-0.964c-3.375-1.832-7.812-1.832-11.379-2.604c-5.209,0-9.934-1.062-15.236,0
			c-1.735,0-3.278,0.675-4.821,0.964c-0.867,0.579-1.929,0.386-2.797,0.868c-7.136,2.218-14.367,5.109-20.541,10.028
			c-2.507,1.255-3.761,3.857-6.363,5.111c-0.578,0.385-0.193-0.482,0-0.772c1.928-2.604,4.533-5.399,7.231-7.425
			c2.604-1.929,6.074-3.375,8.97-5.11c2.604-1.157,5.397-1.93,7.616-2.894c2.798-0.192,3.375-1.929,6.269-1.64
			c0.58-0.098,1.062-0.482,2.123-0.386c0.479-0.387,0.867-0.193,1.543-0.482c0.867,0,1.832,0,2.893-0.289
			C1147.416,1481.312,1152.236,1480.732,1156.287,1481.601z"/>
		<path style="fill:#FF0050;" d="M1185.699,1469.45c0.289,0.097,0.481,0.191,0.676,0.386c-0.867,2.218-3.473,0.964-5.496,1.543
			c-1.736,0.289-3.375,0-5.111,0.097c-4.727,0.097-9.45-0.097-13.981,0c-2.412,0-5.594,0.192-8.103-0.097
			c-1.639-0.193-3.664,0-5.305,0.097c-3.953,0.387-7.713,0-11.861,0.289c-0.19-0.192-0.385-0.192-0.578-0.192
			c-1.733,0.867-3.663,0.097-5.303,0.386c-3.953,0.192-7.715,0.579-11.572,0.579c-2.7-1.157-5.495,0.578-8.293-0.098
			c-0.387-0.096,0.578-1.156,0.867-1.156c4.244-2.895,9.16,1.156,13.887-0.192c5.595-1.543,11.861-0.965,17.357-1.254
			s10.705,0.192,16.297,0c1.543-0.193,3.086-0.193,4.728-0.193c0.385,0,0.866,0.098,1.254,0.098
			c4.242-0.098,8.485-0.098,12.246-0.676C1180.299,1469.836,1182.709,1469.354,1185.699,1469.45z"/>
		<path style="fill:#FF0050;" d="M1186.182,1450.453c-0.965,2.122-3.278,2.313-4.918,3.472c-2.219,1.157-4.629,2.314-7.137,2.604
			c-0.674,0.387-1.639,0.481-2.41,0.579c-6.461,1.156-12.729,3.761-19.479,3.954c-4.629,0.964-9.738,0.481-14.754,0.386
			c-4.146,0-9.449-1.157-13.597-2.99c-2.024-0.481-4.244-1.253-5.688-2.507c-2.123-0.579-3.762-2.121-5.594-3.279
			c-0.388-0.675-0.867-1.35-0.867-2.023c0-0.097-0.099-0.193-0.099-0.193c1.931,0.482,3.763,1.929,5.689,3.087
			c1.543,0.867,2.412,2.024,4.051,2.41c2.797,0.578,5.017,2.507,7.908,2.313c5.303,1.352,11.088,1.254,17.453,0.868
			c-0.963-2.218,0.676-3.086-0.096-4.437c0.096-0.578,0.192-0.964,0.385-1.351c0.289-0.288,0.482-0.579,0.867-0.288
			c0.192,0.191,0.291,0.288,0.481,0.481c-0.19,0.578,0.193,0.964,0.482,1.253c-0.289,1.254,0,2.507-0.191,4.051
			c4.726,0.482,7.906-0.867,11.765-1.062c1.641-0.771,4.146-0.965,6.172-1.543c1.832-0.578,4.051-0.578,5.787-1.64
			c1.444,0.192,3.084-0.289,4.241-1.735c2.509,0.097,4.437-1.735,7.328-2.313c0-0.771,0-0.481,0-0.481
			c0.482-0.193,1.447-1.254,2.604-0.868C1186.471,1449.683,1186.375,1450.068,1186.182,1450.453z"/>
		<path style="fill:#FF0050;" d="M1181.746,1402.045c1.734,2.025,2.893,4.05,4.629,6.461c0.289,2.314,1.928,2.314,1.543,4.147
			c-1.543,2.121-2.41,1.06-4.244,1.155c-5.979-0.771-13.018,0.482-18.803,0.868c-5.209-0.386-8.103,0.387-15.236,0.579
			c-1.834,0.771-4.438,0.289-6.463,0c-2.121,0.867-5.688,0.481-8.004-0.192c-7.715,0.964-14.078,0.192-21.6,0.577
			c-0.58-0.096-1.447,0.387-1.062-0.288c0-0.097,0.098-0.481,0.098-0.578c0.191-0.193,0.289-0.482,0.482-0.868
			c-0.098-0.675-0.193,0.289,0.289,0.289c0.867-1.062,1.254-2.989,2.699-2.989c0.771-1.062,1.543-1.64,2.412-1.929
			c1.733-1.641,2.698-3.086,5.014-3.086c3.953-3.183,8.969-2.797,13.5-2.797c4.533,1.543,8.295,3.953,12.152,8.969
			c1.639-1.832,1.543-4.34,2.602-4.821c0.676-1.64,1.93-2.99,3.473-4.629c3.087-2.121,5.787-2.508,9.064-3.761
			c3.762-2.604,7.811,1.253,11.572-0.193C1177.793,1399.345,1179.527,1401.37,1181.746,1402.045z M1124.85,1406.867
			c-2.121,2.796-4.051,1.253-5.785,5.109c-0.288,0.193-0.577,0.387-1.061,0.098c-3.664,1.639,0.289,1.832,1.832,1.929
			c3.182-1.062,4.725,0.192,7.908,0.097c3.276-1.062,7.039,0.386,10.512-0.578c1.059-0.289,1.83-0.098,2.795-0.098
			c2.121-0.48,3.568,0.482,7.812,0c-2.988-2.507-3.664-3.182-5.207-4.243c-2.218-0.964-4.242-2.507-6.269-3.664
			C1133.047,1404.552,1128.514,1405.324,1124.85,1406.867z M1156.385,1404.07c-2.604,2.507-3.567,4.242-6.076,9.449
			c2.701,0,4.052-0.866,5.207-0.481c4.822-2.024,9.259,0.868,14.273-0.386c3.182-1.157,6.557,0,9.836-1.157
			c1.156,0.579,4.629,0.579,5.496,0.192c0.096-0.192-0.867-1.156-0.578-2.41c-1.352-1.93-2.604-4.051-3.664-6.364
			c-2.123-0.193-3.375-0.579-4.822-1.446c-3.086-0.579-6.461-2.314-9.836-1.157S1159.566,1402.431,1156.385,1404.07z"/>
		<path style="fill:#FF0050;" d="M1120.029,1382.952c1.444,0.192,2.41,1.639,4.049,1.639c3.086,1.544,5.979,2.314,9.74,2.509
			c0.58,0.288,1.543,0.386,2.219,0.577c2.121,0.193,4.049,1.157,6.076,1.157c1.252,0.386,2.988-0.289,4.146,1.254
			c1.541-0.386,2.699-0.771,3.664-1.254c0.385-0.771,1.445-1.734,1.351-2.797c0.674-1.061,0.096-1.929,0.577-3.278
			c0.578-1.832,0.578-2.893,1.543-4.82c0.482-0.387,0.966-0.771,1.543-0.676c0.386,0.964,0,2.121,0,3.278
			c-1.254,2.507-1.061,3.857-1.928,7.136c0.771,0.482,0.482,0.868,0.771,1.062c2.409,0.385,5.014,0.096,7.038-0.386
			c1.255,0.191,2.314-0.289,4.242-0.289c0.387-1.158,1.254-0.29,1.832-0.579c3.474-0.29,6.56-2.218,10.127-2.411
			c1.541-1.35,4.146-1.157,5.688-2.314c1.834,0.193,2.799-2.218,5.11-1.639c1.158-0.869,2.22-1.929,3.666-1.929
			c0.386,0.289,0.771,0.578,1.156,0.964c-0.191,1.446-1.832,1.543-2.893,2.313c-1.64,0.192-3.185,0.578-4.34,1.64
			c-2.121-0.096-3.375,1.735-5.4,1.64c-0.771,0.482-1.543,0.579-2.121,0.965c-0.771-0.097-1.447,0.192-2.025,0.481
			c-4.436,0-7.907,2.894-12.344,2.604c-0.578,0.387-1.639,0.387-2.217,0.482c-4.727,1.64-10.223,1.35-15.043,1.253
			c-2.219-0.578-4.92,0-6.848-0.964c-5.979-1.062-11.767-3.473-17.455-5.016c-2.699-1.061-5.207-2.699-7.715-4.051
			c-2.795-1.543-6.074-2.604-8.101-5.399c0-0.191,0-0.481,0.193-0.578C1110.676,1378.322,1115.207,1380.83,1120.029,1382.952z"/>
		<path style="fill:#FF0050;" d="M1185.699,1364.534c0.289,0.097,0.481,0.192,0.676,0.386c-0.867,2.218-3.473,0.964-5.496,1.543
			c-1.736,0.289-3.375,0-5.111,0.098c-4.727,0.096-9.45-0.098-13.981,0c-2.412,0-5.594,0.191-8.103-0.098
			c-1.639-0.191-3.664,0-5.305,0.098c-3.953,0.386-7.713,0-11.861,0.288c-0.19-0.192-0.385-0.192-0.578-0.192
			c-1.733,0.868-3.663,0.097-5.303,0.387c-3.953,0.192-7.715,0.578-11.572,0.578c-2.7-1.157-5.495,0.578-8.293-0.098
			c-0.387-0.097,0.578-1.156,0.867-1.156c4.244-2.894,9.16,1.156,13.887-0.193c5.595-1.542,11.861-0.964,17.357-1.253
			s10.705,0.193,16.297,0c1.543-0.193,3.086-0.193,4.728-0.193c0.385,0,0.866,0.098,1.254,0.098
			c4.242-0.098,8.485-0.098,12.246-0.675C1180.299,1364.92,1182.709,1364.438,1185.699,1364.534z"/>
		<path style="fill:#FF0050;" d="M1153.973,1339.463c3.763,0.289,7.619,1.156,11.67,1.639c4.916,0.579,10.027,1.157,14.656,3.473
			c2.41,2.411,5.4,3.664,7.33,6.847c0.289,1.735,1.543,1.446,0.965,3.568c0.096,0.289-0.192,0-0.192-0.387
			c-2.22,0.097-1.158-0.481-2.798-2.699c-2.508,0.771-4.34-0.386-6.172,0.386c-7.715-0.482-14.369,0-21.891,0.771
			c-1.832,0.867-4.146,0.867-6.268,0.578c-1.351-0.482-2.797,0.481-4.437,0.192c-5.016-0.289-10.608-0.289-15.526,0.386
			c-3.664-0.192-7.232,0-10.992,0.386c-1.447-0.289-3.086-0.771-5.111-0.192c-0.578,1.351-1.254,1.062-0.771,2.218
			c-0.193,0.193-0.386,0.482-0.677,0.675c-0.289-0.096-0.578,0-0.866-0.288c0.385-2.796,2.219-4.339,3.952-6.462
			c3.375-3.084,7.716-4.531,11.38-7.521c2.411-1.543,4.918-1.736,7.522-2.797c3.277-0.481,6.943-0.289,10.125-0.964
			C1148.572,1339.944,1151.176,1339.752,1153.973,1339.463z M1138.736,1341.873c-3.761-0.192-6.365,1.543-9.933,2.604
			c-0.192,0.193-1.061,1.062-1.543,1.352c-2.701,1.929-5.883,2.796-8.774,6.652c3.471-0.288,5.207,0.966,6.846,0.289
			c2.412,0.29,4.533-0.964,6.943-1.061c3.473,1.061,7.231,0.193,10.801,0.675c3.279,0.386,6.848-0.385,10.223-0.578
			c5.979-2.313,12.922-0.675,19.094-1.351c2.988,0,6.459-0.481,11.187,0.097c-1.832-3.856-5.111-4.532-7.328-5.786
			c-5.691-1.543-11.379-2.507-17.262-3.085c-1.158-0.192-2.604,0.289-3.666-0.387
			C1150.02,1341.584,1143.654,1339.752,1138.736,1341.873z"/>
		<path style="fill:#FF0050;" d="M1186.182,1321.333c-0.965,2.122-3.278,2.313-4.918,3.472c-2.219,1.157-4.629,2.314-7.137,2.604
			c-0.674,0.385-1.639,0.48-2.41,0.578c-6.461,1.157-12.729,3.761-19.479,3.953c-4.629,0.965-9.738,0.481-14.754,0.386
			c-4.146,0-9.449-1.156-13.597-2.988c-2.024-0.482-4.244-1.254-5.688-2.508c-2.123-0.579-3.762-2.122-5.594-3.278
			c-0.388-0.676-0.867-1.351-0.867-2.024c0-0.098-0.099-0.193-0.099-0.193c1.931,0.482,3.763,1.929,5.689,3.086
			c1.543,0.868,2.412,2.025,4.051,2.411c2.797,0.579,5.017,2.508,7.908,2.313c5.303,1.351,11.088,1.254,17.453,0.868
			c-0.963-2.219,0.676-3.086-0.096-4.437c0.096-0.578,0.192-0.964,0.385-1.35c0.289-0.289,0.482-0.579,0.867-0.289
			c0.192,0.191,0.291,0.289,0.481,0.48c-0.19,0.579,0.193,0.965,0.482,1.254c-0.289,1.254,0,2.507-0.191,4.051
			c4.726,0.481,7.906-0.867,11.765-1.062c1.641-0.771,4.146-0.964,6.172-1.543c1.832-0.578,4.051-0.578,5.787-1.639
			c1.444,0.191,3.084-0.29,4.241-1.736c2.509,0.097,4.437-1.735,7.328-2.313c0-0.771,0-0.482,0-0.482
			c0.482-0.192,1.447-1.253,2.604-0.867C1186.471,1320.562,1186.375,1320.947,1186.182,1321.333z"/>
		<path style="fill:#FF0050;" d="M1122.729,1293.368c1.062,0,2.604-0.096,3.763-0.192c2.797-1.735,7.135,0,10.414,0.387
			c2.024-1.157,5.399-0.482,7.521-0.676c3.086-0.771,7.137,0.192,10.705,0.192c6.268,0,13.5-0.192,19.768-0.481
			c0.965-0.097,1.931-0.676,2.797-0.29c0.099,0.098,0.193-0.096,0.289-0.096c-2.217,1.446-4.918,1.542-7.135,2.507
			c-3.184,2.796-6.848,4.243-10.223,6.364c-4.051,1.832-8.197,3.183-11.861,5.979c-1.158,0.578-2.217,1.254-3.375,1.832
			l-2.797,1.351l3.184,0.192c7.521,0.481,14.562-1.351,22.275-0.288c3.086,0,5.979-1.255,8.969-0.677c0.771-0.097,1.734,0,2.41,0
			c-0.098,0.193,0,0.579-0.098,0.677c-0.771,0-1.445,0.191-2.119,0.675c-0.773,0.386-1.738,0.386-2.605,0.578
			c-2.604,0.29-5.207-0.098-7.811,0.481c-7.041,0.193-13.887-0.675-20.732,0.098c-3.184-0.579-6.365,1.061-9.451,0.191
			c-2.024,0.482-4.629-0.577-6.172,0.578c-4.629-0.48-9.162-1.253-13.981-1.253c-1.062-0.386-2.701,0-3.185-1.157
			c-0.096-0.097,0.58-1.061,0.58-0.577c5.207-1.352,9.643,1.734,15.621,1.061c3.086-0.386,6.27,0,9.547-0.965
			c0.965-1.35,2.412-1.254,3.473-2.121c1.929-0.29,3.857-0.771,5.109-2.122c4.92-2.411,9.934-3.278,13.889-6.847
			c1.156-0.481,2.312-1.062,3.566-2.121c0-0.289,2.797-1.543,2.797-1.832c-0.096-0.193-2.988,0.48-2.988,0.096
			c-3.762,0-7.231-0.675-10.223,0.386c-5.4-1.35-10.994-1.445-16.779-0.191c-4.146-0.482-8.391-1.062-12.438-0.289
			c-3.375-1.447-7.137,1.543-10.224-1.157c-0.288-0.868-1.832-0.579-1.735-1.64
			C1116.75,1291.439,1119.547,1293.271,1122.729,1293.368z"/>
		<path style="fill:#FF0050;" d="M1111.061,1233.195c5.689,0.289,11.091,2.312,16.685,4.05c3.854,0.579,8.1,0.867,11.569,2.41
			c3.955,0.386,7.33,1.254,11.382,1.446c2.12,0.098,4.338-0.386,5.979,0.771c4.531,0.964,9.064,1.832,13.308,3.375
			c4.436,2.314,10.028,1.64,14.368,4.725l-0.288-0.386c-7.138,1.929-14.177,3.857-21.505,4.726
			c-4.629-1.156-8.969,0.966-13.694,0.579c-8.195,1.543-16.201,1.832-24.301,2.699c-1.929-0.771-4.146,0.193-6.171,0.579
			c-1.157,0.193-2.7,0.097-3.666-0.579c0.289-1.929,3.185-0.578,4.341-1.06c5.688,0.578,10.993-2.025,16.489-1.544
			c2.797-0.097,5.304-0.097,8.293-0.578c0.386-0.482,0.771-0.482,1.062-0.579c5.787-0.481,12.248-0.867,17.744-1.253
			c4.051-1.641,8.389-2.314,12.922-2.797l0.096-1.351c-8.389-2.797-17.068-5.015-25.939-6.076
			c-4.436,0.193-8.196-0.866-12.149-1.445c-5.98-2.797-13.502-1.445-19.189-4.727c-3.666,0-7.329-2.022-10.801-2.506
			c-0.098,0,0.289-0.482,0.674-0.771C1109.229,1232.811,1110.096,1233.678,1111.061,1233.195z"/>
		<path style="fill:#FF0050;" d="M1188.689,1196.938c2.409,0.288,4.051-0.289,4.629,0.867c0,0.098-0.099,0.289-0.099,0.387
			c-3.565,2.024-8.194,1.157-12.342,2.313c-7.33,1.062-14.853,1.64-21.603,3.375c-1.543,2.122-3.278,5.015-2.219,7.812
			c0.099,0.097-0.289,0-0.674,0.676c0.674,0.964-0.387,1.35-0.387,2.121c-0.387,1.832-0.193,4.146-0.965,7.328
			c5.594,1.254,10.897,1.157,15.524,2.411c3.377,0.964,8.103-0.577,11.478,1.157c1.254,0,2.797-0.193,3.664,0.867
			c0.192,0.482-0.674,0.482-1.062,0.482c-3.953-0.676-6.942-0.387-10.703-0.867c-4.436-1.93-11.188-0.289-16.008-2.219
			c-1.735,0-4.436,0.481-5.787-0.481c-4.532-1.062-9.932,0.289-14.176-1.736c-7.906,0.29-14.465-2.989-22.563-2.989
			c-0.388-0.386-0.388-1.061-1.255-1.156c-2.313-0.771-5.305,0.675-6.75-1.254c0.578-1.062,2.121-0.578,3.279-1.446
			c9.738-2.122,18.707-6.364,28.64-8.196c2.799-1.351,6.27-1.736,9.354-2.99c1.062-0.097,2.121-0.289,3.084,0.098
			c1.93-0.578,4.051-1.254,6.174-1.254c4.531-0.097,8.582-2.219,13.308-1.833c1.446-0.867,3.663-0.191,5.207-0.675
			c2.989-0.289,6.075-1.061,8.873-1.832c0.577-0.289,0.866-0.48,0.963-0.676c0.869-0.385,0.965-0.385,1.641-0.288
			C1187.918,1197.032,1188.689,1196.744,1188.689,1196.938z M1152.236,1204.747c-4.82,2.122-10.414,2.122-15.429,3.569
			c-5.883,1.639-11.379,4.916-18.032,6.171c0,1.64,0.676,2.218,1.832,2.313c2.698,0.964,5.207,2.025,8.293,2.41
			c5.688,0.771,12.344,0.29,17.744,1.64c1.444,0,3.567,0,5.495,0.579c0.966-1.156,1.062-2.313,1.931-2.893
			c0-1.157,0.289-2.025,0.385-2.895c0.193-1.445,0.193-2.797,0.482-3.856c0.481-1.832,0.771-2.507,0.965-4.05
			C1158.506,1203.205,1153.973,1204.845,1152.236,1204.747z"/>
		<path style="fill:#FF0050;" d="M1180.781,1175.238c-0.289,2.024,0.098,3.762,0.771,5.399c-0.096,0.482-0.481,0.964-0.771,1.062
			c-1.254,1.831,1.158,5.11-2.025,6.075c-1.061,0.289-2.217-0.193-3.086,0.578c-3.375,1.254-4.436,0.288-7.715,0.578
			c-2.893,0.192-6.363-1.254-9.16,0c-1.543,0-2.797-0.578-4.146-0.771c-3.663,1.35-7.811-0.675-11.668,0.289
			c-2.797,0.191-5.016-0.964-7.812,0.289c-0.578,0.097-1.062,0.097-1.543,0.288c-5.688,0-11.57-0.577-17.164,0.098
			c-2.797,0-5.496-0.098-8.004-1.446c-0.482-0.386,0.096-0.965,0.578-1.157c0.676,0,1.641-0.191,2.701,0.676
			c2.022-0.867,3.856,0.097,5.592-0.289c1.447,0.386,3.086,0.48,4.629,0.097c3.279-1.929,6.75,0.289,10.125,0.192
			c3.279-0.098,6.56-1.351,9.935-0.964c3.471,0.48,7.521,0.771,11.09,0.386c1.155-0.386,2.506,0.191,3.567-0.193
			c1.062,0.193,2.506,0.098,3.472,0.771c1.352-0.192,2.989-0.482,4.34-0.867c0.771,0.385,1.928,0.289,2.604,0.48
			c3.664,0.289,4.437,0.771,7.812-0.386c2.219,0.771,1.352-1.543,3.278-2.023c1.254-0.482,0.578-1.062,0.578-1.736
			c-0.289-1.543,1.254-2.7,0.578-4.05c-0.482-1.254-0.096-2.895-1.061-4.244c-0.097-0.385-0.097-0.867,0.387-0.867
			C1179.914,1173.214,1180.107,1174.468,1180.781,1175.238z"/>
		<path style="fill:#FF0050;" d="M1156.287,1144.767c3.568-0.288,6.27,1.157,9.547,1.93c0.676,0.577,1.35,0.577,1.35,0.481
			c0.193,0.096,1.447,0.385,2.509,0.964l0.288,0.098c1.447,0.771,1.543,0.675,2.604,0.771c1.736,1.158,3.955,1.352,5.4,2.411
			c2.895,2.122,7.137,4.146,9.739,7.232c1.832,2.313,3.664,3.567,5.306,5.884c0.096,0.578,0.481,1.156,0.096,1.831
			c-0.771,0-0.289,0.676-1.447-1.062l-0.19-0.386c-1.062,0.289-1.931,0.771-2.604,0.965c-1.641,0-4.146,0-5.885,0.192
			c-1.06-0.289-2.795,0.387-3.76,0c-4.822,0.289-11.091,0.482-16.394,0.097c-1.254,0.578-2.99,0.192-4.146,0.097
			c-5.017-0.288-9.547-1.832-14.08-1.351c-3.086-0.097-6.75,0.868-10.029-0.385c-2.313,0.288-5.979-0.29-7.811-0.194
			c-0.097,0-0.193,0.194-0.289,0.29c-4.728-0.577-10.802,0.192-15.332-0.29c-0.482-0.191-0.869-0.866-0.193-0.964
			c9.256-0.771,20.926-0.868,30.666-0.097c2.217-0.192,5.592,0.29,7.906-0.096c0.098,0.096,0.192,0.191,0.289,0.289
			c3.567,0,6.461,0.675,10.125,1.062c0.387-0.29,0.771-0.098,1.062,0.096c5.398,0.289,13.019-0.481,18.226-0.096
			c2.893-1.351,5.979,0.771,8.774-0.676c0.289-0.482,0.289,0.964,2.219-0.386c-0.577-0.193-1.157-1.157-0.868-1.157
			c-0.771-1.543-2.988-1.352-4.05-4.437c-0.577,0.578-0.387-0.29-0.868-0.29c0,0-0.482-0.289-0.675-0.386
			c-0.098-0.097-0.481-0.193-0.481-0.964c-0.965,0-1.158-0.289-1.447-0.097c-0.963-0.387-0.963-1.735-2.121-1.735
			c-0.481-0.193-1.157-0.386-1.446-0.771c-1.156-0.29-1.64-1.445-2.699-1.64c-1.543-1.062-3.857-0.868-5.111-1.735
			c-1.061,0-1.156-0.868-2.41-0.965c-3.375-1.832-7.812-1.832-11.379-2.604c-5.209,0-9.934-1.062-15.236,0
			c-1.735,0-3.278,0.675-4.821,0.965c-0.867,0.578-1.929,0.385-2.797,0.867c-7.136,2.218-14.367,5.11-20.541,10.028
			c-2.507,1.254-3.761,3.856-6.363,5.11c-0.578,0.387-0.193-0.481,0-0.771c1.928-2.604,4.533-5.4,7.231-7.426
			c2.604-1.929,6.074-3.375,8.97-5.11c2.604-1.157,5.397-1.93,7.616-2.894c2.798-0.192,3.375-1.929,6.269-1.64
			c0.58-0.096,1.062-0.482,2.123-0.386c0.479-0.387,0.867-0.192,1.543-0.482c0.867,0,1.832,0,2.893-0.289
			C1147.416,1144.479,1152.236,1143.898,1156.287,1144.767z"/>
		<path style="fill:#FF0050;" d="M1176.441,1124.034c-3.472,2.507-7.906,2.121-11.088,4.821c-1.257,0.386-2.605,1.061-3.666,1.734
			c-2.988-0.097-6.076,1.832-10.125,3.665c2.604,1.062,4.53,0.771,5.883,0.386c5.688,0,10.703-0.965,16.682-0.097
			c1.641,0,3.666-0.481,5.111,0.192c2.797,0.097,6.076-0.676,8.485,0.676c0.097,0.097,0.097,0.097,0.193,0.192
			c-2.025,0.579-4.629,0.386-6.654,0.29c-1.735-0.482-3.567,0.191-5.496,0.191c-3.762,0.098-7.715-1.254-11.09,0.387
			c-3.086,0.386-5.979-1.062-8.969,0c-2.699,0.866-5.4-0.482-7.908,0.771c-4.629-0.771-10.606,0.096-15.621-0.771
			c-5.688,0-11.477,0.386-17.067-0.578c-3.086-0.098-4.34-0.677-7.232-1.254c-0.098,0,0.48-0.676,0.48-0.868
			c3.088-1.832,4.146-2.411,7.426-3.664c4.533-1.833,9.354-1.447,13.887-2.701c6.365,0.097,12.633,0.965,17.262,7.04
			c8.486-5.111,17.552-5.689,25.748-10.125c3.664-1.158,7.039-2.99,10.703-4.146c0.578,0,1.543-0.387,2.219-0.192
			C1182.613,1121.719,1179.527,1123.069,1176.441,1124.034z M1122.15,1130.398c-1.254,0.386-2.797-0.098-3.953,0.675
			c-1.545-0.193-2.99,0.675-4.244,1.157l-2.314,1.64c0.867,0.097,4.244,0.386,5.207,0.578c1.254,1.254,3.474,0.675,5.017,1.062
			c7.135-0.965,15.139,0.192,23.723-0.192c-1.254-1.543-2.508-1.93-3.182-2.604c-1.353-1.35-5.111-2.796-7.619-3.855
			C1130.443,1129.434,1125.814,1128.47,1122.15,1130.398z"/>
		<path style="fill:#FF0050;" d="M1188.689,1084.979c2.409,0.288,4.051-0.289,4.629,0.867c0,0.098-0.099,0.289-0.099,0.387
			c-3.565,2.024-8.194,1.156-12.342,2.313c-7.33,1.062-14.853,1.64-21.603,3.375c-1.543,2.122-3.278,5.015-2.219,7.812
			c0.099,0.097-0.289,0-0.674,0.675c0.674,0.964-0.387,1.35-0.387,2.121c-0.387,1.832-0.193,4.146-0.965,7.329
			c5.594,1.254,10.897,1.156,15.524,2.411c3.377,0.964,8.103-0.579,11.478,1.156c1.254,0,2.797-0.192,3.664,0.868
			c0.192,0.482-0.674,0.482-1.062,0.482c-3.953-0.677-6.942-0.388-10.703-0.869c-4.436-1.928-11.188-0.289-16.008-2.218
			c-1.735,0-4.436,0.481-5.787-0.482c-4.532-1.061-9.932,0.29-14.176-1.735c-7.906,0.289-14.465-2.988-22.563-2.988
			c-0.388-0.387-0.388-1.062-1.255-1.157c-2.313-0.771-5.305,0.675-6.75-1.254c0.578-1.062,2.121-0.578,3.279-1.446
			c9.738-2.122,18.707-6.364,28.64-8.196c2.799-1.351,6.27-1.735,9.354-2.99c1.062-0.097,2.121-0.288,3.084,0.098
			c1.93-0.579,4.051-1.254,6.174-1.254c4.531-0.096,8.582-2.219,13.308-1.832c1.446-0.868,3.663-0.192,5.207-0.676
			c2.989-0.289,6.075-1.061,8.873-1.832c0.577-0.289,0.866-0.481,0.963-0.676c0.869-0.386,0.965-0.386,1.641-0.289
			C1187.918,1085.074,1188.689,1084.785,1188.689,1084.979z M1152.236,1092.789c-4.82,2.121-10.414,2.121-15.429,3.566
			c-5.883,1.641-11.379,4.92-18.032,6.173c0,1.64,0.676,2.218,1.832,2.313c2.698,0.965,5.207,2.025,8.293,2.411
			c5.688,0.771,12.344,0.289,17.744,1.639c1.444,0,3.567,0,5.495,0.579c0.966-1.156,1.062-2.313,1.931-2.893
			c0-1.157,0.289-2.025,0.385-2.893c0.193-1.447,0.193-2.799,0.482-3.857c0.481-1.833,0.771-2.508,0.965-4.051
			C1158.506,1091.245,1153.973,1092.885,1152.236,1092.789z"/>
		<path style="fill:#FF0050;" d="M1153.973,1060.483c3.763,0.288,7.619,1.156,11.67,1.64c4.916,0.578,10.027,1.156,14.656,3.472
			c2.41,2.41,5.4,3.664,7.33,6.847c0.289,1.735,1.543,1.446,0.965,3.567c0.096,0.289-0.192,0-0.192-0.386
			c-2.22,0.097-1.158-0.482-2.798-2.7c-2.508,0.771-4.34-0.386-6.172,0.388c-7.715-0.482-14.369,0-21.891,0.771
			c-1.832,0.868-4.146,0.868-6.268,0.579c-1.351-0.482-2.797,0.48-4.437,0.191c-5.016-0.288-10.608-0.288-15.526,0.388
			c-3.664-0.193-7.232,0-10.992,0.385c-1.447-0.289-3.086-0.771-5.111-0.192c-0.578,1.351-1.254,1.062-0.771,2.219
			c-0.193,0.191-0.386,0.481-0.677,0.675c-0.289-0.097-0.578,0-0.866-0.289c0.385-2.796,2.219-4.34,3.952-6.461
			c3.375-3.086,7.716-4.532,11.38-7.521c2.411-1.543,4.918-1.735,7.522-2.797c3.277-0.481,6.943-0.29,10.125-0.965
			C1148.572,1060.965,1151.176,1060.771,1153.973,1060.483z M1138.736,1062.895c-3.761-0.192-6.365,1.543-9.933,2.604
			c-0.192,0.192-1.061,1.061-1.543,1.35c-2.701,1.93-5.883,2.797-8.774,6.654c3.471-0.29,5.207,0.964,6.846,0.289
			c2.412,0.289,4.533-0.964,6.943-1.061c3.473,1.061,7.231,0.191,10.801,0.675c3.279,0.386,6.848-0.386,10.223-0.578
			c5.979-2.314,12.922-0.676,19.094-1.351c2.988,0,6.459-0.482,11.187,0.097c-1.832-3.857-5.111-4.532-7.328-5.786
			c-5.691-1.543-11.379-2.508-17.262-3.086c-1.158-0.192-2.604,0.289-3.666-0.386
			C1150.02,1062.604,1143.654,1060.771,1138.736,1062.895z"/>
		<path style="fill:#FF0050;" d="M1182.131,1030.011c0.771,0.386,1.543,0,2.412,0.193c0.674,0,1.156,0.192,1.734,0.578
			c0.098,0.481-0.48,0.868-0.771,1.351c-0.676,0.867-1.447-0.482-1.641-0.482c-0.193-0.386-1.158,0.482-2.121-0.965
			c-1.931,0.579-3.664,0.579-5.015,0.193c-2.7,0.289-5.69-0.482-8.295,0.578c-1.061,0.097-1.639,1.351-2.121,1.929
			c-0.096,0-0.481,1.157-1.35,1.543c-1.254,1.157-3.086,2.99-3.664,3.472c-0.481,0.482,0-0.577-0.869,0.387
			c-0.481,0.386-0.289,0.579-0.965,1.64c-0.867,1.062-2.604,2.894-2.988,3.375c-0.577,1.157-1.157,2.507-1.832,4.05
			c2.025,1.352,4.052,0.965,5.4,1.833c1.736,0.097,3.857,0.481,5.689,0.964c1.061-0.867,1.832,0.193,2.604,0.193
			c1.062,0.578,2.699,0.482,3.953,1.062c2.41,0.386,4.533,1.832,7.232,1.35c0.965,0.193,2.123,0.579,3.086,0.868
			c-0.096,0.191-0.193,0.386-0.385,0.386c-1.64,0.289-3.087-0.579-4.533-0.481c-0.385-0.289-0.674-0.387-1.062-0.289
			c-0.771-0.098-1.543-0.289-2.219-0.289c-1.541-0.482-2.604,0.386-5.109-1.254c0,1.445,0.193,0.578,0.193,0.578
			c-1.447-0.387-3.473-0.965-5.402-0.867c-1.155-0.771-2.602-0.482-3.76-0.771c-2.699-0.289-4.533-1.351-7.137-1.157
			c0,0-0.096-0.097-0.191-0.097c-0.772-0.48-1.641-0.192-2.123-0.675c-5.883-1.641-11.86-3.278-17.744-4.918
			c-1.35-0.675-2.506-0.965-3.952-1.543c-1.929-0.675-3.761-1.832-5.785-2.604c-2.025-0.771-3.953-2.024-6.271-2.699
			c-0.578-0.291-1.541,0.191-1.541-0.771c0-0.29-0.289-0.965-0.098-1.061c0.676-1.062,2.604-1.062,3.567-1.543
			c2.314-0.193,5.593-0.677,8.39-1.255c1.061-1.254,2.701-0.288,3.955-0.771c4.725,0.191,9.643-2.218,15.043-1.543
			c6.848-1.062,14.465-1.641,20.926-1.062C1172.295,1029.818,1177.215,1029.336,1182.131,1030.011z M1152.912,1031.65
			c-1.254-0.482-3.182,0.675-5.111,0.289c-2.313-0.387-4.819,0.386-7.135,0.771c-2.219-0.386-3.955,0.965-6.172,0.771
			c-1.447,0.193-3.857,0.193-5.787,0.579c-3.182,0.578-6.074,1.446-9.738,1.735c1.445,1.64,4.049,2.796,4.437,2.893
			c2.024,0.677,3.664,1.833,5.496,2.411c2.797,0.965,5.207,1.929,7.811,2.7c1.834,0.482,4.244,1.061,5.883,1.351
			c1.832-0.097,4.437,1.542,6.943,1.93c1.447,0.191,0.771,0.866,2.797,0.288c0.771-1.832,1.928-3.086,2.604-4.726
			c0.866-1.157,1.35-1.254,2.604-2.604c0.867-0.868,1.736-2.219,2.699-3.473c0.869-0.964,2.025-2.024,2.604-2.7
			c0-0.191,1.156-1.445,1.156-2.218c-1.35-0.289-2.893-0.289-3.762-0.386C1157.639,1030.879,1155.611,1031.265,1152.912,1031.65z"/>
		<path style="fill:#FF0050;" d="M1169.596,1006.674c-0.192-0.097,0.867-0.289,1.254-0.191c0.289,0,0.674,0,0.771,0
			c0.58,0.191,1.352,0.481,1.93,0.386c1.351,0.578,2.701,0.289,3.857,0.867c2.313,1.062,5.399,2.024,7.908,4.146
			c1.541,1.641,3.567,2.314,5.108,3.761c0.289,0.868,0.676,1.255,0.482,2.025c-1.543,0.097-2.312-2.121-3.76-2.699
			c-1.062-0.965-2.604-1.254-3.474-2.508c-0.192-0.097-0.578-0.481-0.771-0.579c-0.193-0.097-0.289-0.289-0.289-0.289
			c-0.096,0-0.482-0.191-0.482-0.289c-0.867-0.867-1.156-0.965-1.156-0.578c-0.676-0.192-1.157-0.676-1.832-0.578
			c-0.291-0.098-0.579-0.289-0.771-0.578c-1.156,0.191-1.447-0.387-2.025-0.482c-1.061-0.579-2.698,0-3.856-0.386
			c-0.578,0.097-1.062-0.482-1.736-0.386c-2.313-0.677-3.279-0.098-5.785,0.097c-3.182,1.157-3.279,0.867-5.305,1.639
			c-1.543,0.579-2.41,0.771-3.857,1.446c-1.444,0.676-2.022,1.447-3.471,2.122c-1.35,0.578-2.219,0.386-3.473,0.868
			c-1.445,0.578-2.312,1.253-3.664,1.832c-1.351,0.675-2.41,0.964-3.953,1.639c-1.447,0.869-2.219,1.736-3.953,2.219
			c-0.482,0-1.158,0.098-1.641,0.098c-0.482-0.098-1.062,0.096-1.351,0.096c-0.289,0.097-0.771-0.096-1.061-0.192
			c-1.736,0.578-2.699-0.579-4.533-0.386c-1.734-0.482-3.471-0.675-5.496-1.352c-1.93-1.061-4.436-1.543-6.559-2.988
			c-2.218-1.157-4.437-2.894-6.074-5.016c-0.193-0.289-0.965-1.061-0.289-0.964c1.736,0.771,3.279,2.507,5.111,3.184
			c4.918,3.085,10.028,4.917,15.141,5.398c0.578,0.29,1.252,0,1.928,0.29c0.966,0,2.314,0.289,3.375,0.096
			c3.472,0.388,2.701-1.156,4.146-1.734c1.543-0.579,2.508-0.482,3.856-1.157c0.966-0.578,1.447-1.254,2.604-1.736
			c0.965-0.577,1.639-1.061,2.893-1.253c2.894-0.29,2.99-0.867,4.438-2.122c0.674-0.386,1.061-0.866,1.83-1.156
			c0.676-0.578,1.254-0.289,2.123-0.578c1.156-0.289,1.733-0.677,2.893-1.062c1.062-0.385,2.219-0.867,2.797-0.867
			c2.025-0.867,3.183-0.288,5.111-0.481C1169.113,1006.288,1169.691,1006.674,1169.596,1006.674z"/>
		<path style="fill:#FF0050;" d="M1180.781,958.168c-0.289,2.025,0.098,3.761,0.771,5.4c-0.096,0.481-0.481,0.965-0.771,1.061
			c-1.254,1.833,1.158,5.111-2.025,6.075c-1.061,0.289-2.217-0.192-3.086,0.579c-3.375,1.253-4.436,0.289-7.715,0.579
			c-2.893,0.191-6.363-1.254-9.16,0c-1.543,0-2.797-0.579-4.146-0.772c-3.663,1.352-7.811-0.675-11.668,0.29
			c-2.797,0.192-5.016-0.965-7.812,0.289c-0.578,0.097-1.062,0.097-1.543,0.289c-5.688,0-11.57-0.578-17.164,0.097
			c-2.797,0-5.496-0.097-8.004-1.445c-0.482-0.387,0.096-0.966,0.578-1.157c0.676,0,1.641-0.193,2.701,0.675
			c2.022-0.868,3.856,0.097,5.592-0.289c1.447,0.386,3.086,0.482,4.629,0.097c3.279-1.929,6.75,0.289,10.125,0.192
			c3.279-0.097,6.56-1.351,9.935-0.965c3.471,0.481,7.521,0.771,11.09,0.386c1.155-0.386,2.506,0.193,3.567-0.192
			c1.062,0.192,2.506,0.098,3.472,0.771c1.352-0.192,2.989-0.482,4.34-0.868c0.771,0.386,1.928,0.289,2.604,0.482
			c3.664,0.289,4.437,0.771,7.812-0.386c2.219,0.771,1.352-1.544,3.278-2.025c1.254-0.482,0.578-1.062,0.578-1.735
			c-0.289-1.543,1.254-2.7,0.578-4.051c-0.482-1.253-0.096-2.893-1.061-4.243c-0.097-0.385-0.097-0.867,0.387-0.867
			C1179.914,956.144,1180.107,957.396,1180.781,958.168z"/>
		<path style="fill:#FF0050;" d="M1186.182,938.496c-0.965,2.122-3.278,2.313-4.918,3.472c-2.219,1.157-4.629,2.314-7.137,2.604
			c-0.674,0.386-1.639,0.481-2.41,0.578c-6.461,1.157-12.729,3.762-19.479,3.953c-4.629,0.966-9.738,0.482-14.754,0.387
			c-4.146,0-9.449-1.157-13.597-2.989c-2.024-0.481-4.244-1.254-5.688-2.507c-2.123-0.579-3.762-2.122-5.594-3.279
			c-0.388-0.675-0.867-1.35-0.867-2.025c0-0.096-0.099-0.191-0.099-0.191c1.931,0.481,3.763,1.929,5.689,3.086
			c1.543,0.868,2.412,2.025,4.051,2.411c2.797,0.578,5.017,2.507,7.908,2.313c5.303,1.351,11.088,1.253,17.453,0.867
			c-0.963-2.218,0.676-3.085-0.096-4.436c0.096-0.578,0.192-0.964,0.385-1.352c0.289-0.289,0.482-0.578,0.867-0.289
			c0.192,0.193,0.291,0.289,0.481,0.482c-0.19,0.579,0.193,0.964,0.482,1.253c-0.289,1.255,0,2.508-0.191,4.051
			c4.726,0.482,7.906-0.867,11.765-1.061c1.641-0.771,4.146-0.965,6.172-1.543c1.832-0.578,4.051-0.578,5.787-1.641
			c1.444,0.192,3.084-0.289,4.241-1.734c2.509,0.096,4.437-1.736,7.328-2.314c0-0.771,0-0.481,0-0.481
			c0.482-0.192,1.447-1.255,2.604-0.868C1186.471,937.725,1186.375,938.11,1186.182,938.496z"/>
		<path style="fill:#FF0050;" d="M1181.746,916.221c1.734,2.025,2.893,4.052,4.629,6.462c0.289,2.313,1.928,2.313,1.543,4.146
			c-1.543,2.121-2.41,1.061-4.244,1.156c-5.979-0.771-13.018,0.481-18.803,0.867c-5.209-0.386-8.103,0.387-15.236,0.579
			c-1.834,0.771-4.438,0.289-6.463,0c-2.121,0.867-5.688,0.481-8.004-0.192c-7.715,0.965-14.078,0.192-21.6,0.579
			c-0.58-0.098-1.447,0.386-1.062-0.29c0-0.097,0.098-0.481,0.098-0.578c0.191-0.192,0.289-0.482,0.482-0.868
			c-0.098-0.675-0.193,0.29,0.289,0.29c0.867-1.062,1.254-2.99,2.699-2.99c0.771-1.061,1.543-1.64,2.412-1.929
			c1.733-1.641,2.698-3.086,5.014-3.086c3.953-3.183,8.969-2.796,13.5-2.796c4.533,1.543,8.295,3.952,12.152,8.968
			c1.639-1.832,1.543-4.339,2.602-4.821c0.676-1.64,1.93-2.989,3.473-4.629c3.087-2.121,5.787-2.507,9.064-3.761
			c3.762-2.604,7.811,1.254,11.572-0.192C1177.793,913.521,1179.527,915.546,1181.746,916.221z M1124.85,921.043
			c-2.121,2.796-4.051,1.253-5.785,5.11c-0.288,0.192-0.577,0.386-1.061,0.097c-3.664,1.64,0.289,1.832,1.832,1.929
			c3.182-1.061,4.725,0.193,7.908,0.098c3.276-1.062,7.039,0.386,10.512-0.579c1.059-0.289,1.83-0.098,2.795-0.098
			c2.121-0.48,3.568,0.482,7.812,0c-2.988-2.507-3.664-3.182-5.207-4.242c-2.218-0.965-4.242-2.508-6.269-3.664
			C1133.047,918.729,1128.514,919.5,1124.85,921.043z M1156.385,918.246c-2.604,2.508-3.567,4.243-6.076,9.45
			c2.701,0,4.052-0.867,5.207-0.482c4.822-2.023,9.259,0.868,14.273-0.385c3.182-1.158,6.557,0,9.836-1.158
			c1.156,0.579,4.629,0.579,5.496,0.193c0.096-0.193-0.867-1.157-0.578-2.411c-1.352-1.93-2.604-4.05-3.664-6.364
			c-2.123-0.192-3.375-0.578-4.822-1.446c-3.086-0.578-6.461-2.313-9.836-1.156C1162.846,915.643,1159.566,916.606,1156.385,918.246
			z"/>
		<path style="fill:#FF0050;" d="M1120.029,897.128c1.444,0.193,2.41,1.64,4.049,1.64c3.086,1.543,5.979,2.314,9.74,2.508
			c0.58,0.29,1.543,0.386,2.219,0.578c2.121,0.192,4.049,1.157,6.076,1.157c1.252,0.386,2.988-0.29,4.146,1.253
			c1.541-0.386,2.699-0.771,3.664-1.253c0.385-0.771,1.445-1.735,1.351-2.797c0.674-1.061,0.096-1.929,0.577-3.279
			c0.578-1.831,0.578-2.893,1.543-4.819c0.482-0.388,0.966-0.772,1.543-0.676c0.386,0.964,0,2.12,0,3.277
			c-1.254,2.508-1.061,3.857-1.928,7.137c0.771,0.481,0.482,0.867,0.771,1.062c2.409,0.386,5.014,0.097,7.038-0.386
			c1.255,0.191,2.314-0.289,4.242-0.289c0.387-1.157,1.254-0.289,1.832-0.579c3.474-0.289,6.56-2.218,10.127-2.41
			c1.541-1.351,4.146-1.157,5.688-2.315c1.834,0.193,2.799-2.218,5.11-1.639c1.158-0.868,2.22-1.929,3.666-1.929
			c0.386,0.289,0.771,0.579,1.156,0.964c-0.191,1.447-1.832,1.543-2.893,2.314c-1.64,0.192-3.185,0.578-4.34,1.64
			c-2.121-0.097-3.375,1.736-5.4,1.64c-0.771,0.481-1.543,0.578-2.121,0.964c-0.771-0.097-1.447,0.193-2.025,0.482
			c-4.436,0-7.907,2.893-12.344,2.604c-0.578,0.386-1.639,0.386-2.217,0.481c-4.727,1.64-10.223,1.35-15.043,1.254
			c-2.219-0.579-4.92,0-6.848-0.965c-5.979-1.061-11.767-3.472-17.455-5.015c-2.699-1.062-5.207-2.7-7.715-4.051
			c-2.795-1.543-6.074-2.604-8.101-5.399c0-0.192,0-0.482,0.193-0.578C1110.676,892.499,1115.207,895.006,1120.029,897.128z"/>
		<path style="fill:#FF0050;" d="M1122.729,863.667c1.062,0,2.604-0.097,3.763-0.193c2.797-1.734,7.135,0,10.414,0.387
			c2.024-1.157,5.399-0.482,7.521-0.676c3.086-0.771,7.137,0.192,10.705,0.192c6.268,0,13.5-0.192,19.768-0.48
			c0.965-0.098,1.931-0.676,2.797-0.29c0.099,0.097,0.193-0.097,0.289-0.097c-2.217,1.446-4.918,1.542-7.135,2.507
			c-3.184,2.798-6.848,4.243-10.223,6.365c-4.051,1.832-8.197,3.183-11.861,5.979c-1.158,0.579-2.217,1.254-3.375,1.832
			l-2.797,1.351l3.184,0.192c7.521,0.48,14.562-1.351,22.275-0.289c3.086,0,5.979-1.254,8.969-0.676c0.771-0.097,1.734,0,2.41,0
			c-0.098,0.192,0,0.578-0.098,0.676c-0.771,0-1.445,0.191-2.119,0.675c-0.773,0.386-1.738,0.386-2.605,0.578
			c-2.604,0.29-5.207-0.097-7.811,0.481c-7.041,0.193-13.887-0.675-20.732,0.098c-3.184-0.579-6.365,1.061-9.451,0.192
			c-2.024,0.482-4.629-0.579-6.172,0.578c-4.629-0.481-9.162-1.253-13.981-1.253c-1.062-0.387-2.701,0-3.185-1.158
			c-0.096-0.096,0.58-1.06,0.58-0.578c5.207-1.351,9.643,1.736,15.621,1.062c3.086-0.386,6.27,0,9.547-0.964
			c0.965-1.352,2.412-1.254,3.473-2.122c1.929-0.289,3.857-0.771,5.109-2.122c4.92-2.41,9.934-3.278,13.889-6.846
			c1.156-0.482,2.312-1.062,3.566-2.122c0-0.289,2.797-1.543,2.797-1.832c-0.096-0.192-2.988,0.481-2.988,0.097
			c-3.762,0-7.231-0.676-10.223,0.386c-5.4-1.351-10.994-1.445-16.779-0.192c-4.146-0.481-8.391-1.062-12.438-0.289
			c-3.375-1.446-7.137,1.543-10.224-1.157c-0.288-0.868-1.832-0.579-1.735-1.64C1116.75,861.738,1119.547,863.57,1122.729,863.667z"
			/>
		<path style="fill:#FF0050;" d="M1135.457,802.143c2.701,0.482,4.918,0.966,7.812,0.578c5.014,2.122,10.801-0.867,15.524,2.604
			c2.604,0.579,5.883,0.675,8.293,1.929c4.051,1.35,8.293,1.929,11.765,4.725c1.446,1.93,2.51,3.665,3.567,5.69
			c-0.19,1.928-0.096,4.146-1.83,5.014c-3.666,1.446-7.522,2.122-11.09,3.954c-7.715,0.193-14.852,2.99-22.084,1.735
			c-3.473,0.771-6.848-0.096-10.317,0.481c-5.979-0.386-11.478-2.797-17.263-3.856c-1.254-1.062-6.172-1.929-2.219-3.472
			c2.604-0.481,4.244,1.446,6.559,2.024c1.351,0.29,2.604,1.832,4.146,1.832c5.883,1.062,10.992,2.122,17.356,1.352
			c5.496,1.35,11.478,0,16.974-1.157c5.207-0.386,9.932-1.833,14.754-3.183c2.313-1.062,1.445-2.989,2.508-5.497
			c-1.254-0.867-0.869-2.699-1.735-3.473c-1.543-1.734-4.629-2.603-6.56-3.76c-3.182-0.482-6.362,0-8.678-1.832
			c-2.604-0.482-5.594,0.192-7.619-1.833c-8.678-1.446-17.453-0.772-25.553-2.797c-4.728-0.482-8.681-0.674-12.537-3.085
			c0.193-0.579,1.158-0.29,1.543-0.482C1124.754,799.25,1129.576,802.625,1135.457,802.143z"/>
		<path style="fill:#FF0050;" d="M1188.883,762.606c-7.619,3.375-14.178,7.81-20.83,12.245c-0.58,0.29-0.771,1.062-2.024,1.062
			c-3.086,3.085-6.943,3.375-9.74,6.171c-2.506,1.254-5.303,2.7-8.197,4.919c0.388,0.288,1.062,0.578,1.353,0.771
			c2.022,0.964,4.051,0.192,5.881,0.29c5.787,0.191,11.09-0.772,16.201-0.869c4.918,0,9.451-1.156,13.791-0.675
			c0.096,0.191,0.096,0.482,0.096,0.867c-0.289,2.219-2.797,0.677-3.857,1.062c-4.629,0.578-8.678,0.674-13.692,0.867
			c-6.172,0.386-12.248,0.097-18.418,0.771c-4.146,0.386-7.908,0-11.861,0.868c-6.559-0.771-13.213,2.604-19.77,1.253
			c-1.543,0-3.087,0.771-4.726,0.386c-0.676-0.48-3.762,0.098-2.219-1.35c5.016-0.771,10.223,0,15.334-0.676
			c7.715-0.289,15.912-0.771,21.6-5.689c0.965-0.288,1.736-0.964,2.412-1.446c2.41-1.445,5.015-2.507,7.039-4.628
			c2.025-0.676,3.857-1.833,5.496-2.989c2.895-2.894,6.752-3.953,9.934-6.172c0-0.386,0.289-0.29,0.482-0.386
			c0.867-0.386,1.541-1.158,2.604-1.929c0-0.385,2.796-0.964,2.699-1.253c-0.096-0.289-3.279-0.193-3.567-0.386
			c-4.437,0.965-9.933,1.35-15.043,1.831c-5.496,0.482-9.16,1.543-14.369,1.64c-1.832-0.385-4.437,1.446-6.269-0.097
			c-2.024,0-3.182-0.096-4.819,0.481c-1.447,0-2.896-0.193-4.629-0.193c-0.388-0.096-0.773,0.29-1.158,0.29
			c-1.64,1.061-2.508-1.445-3.762-0.29c-0.578,0.193-1.156,0.677-1.734-0.191c-3.086,0.868-5.498,0.386-8.103-1.062
			c-0.866,0.388-1.155-0.096-1.543-0.385c0-0.097,0-0.193,0-0.29c0.289-0.675,0.869,0.29,0.869,0.193c0,0,0.578,0.48,1.156-0.097
			c0.387-0.578,1.254,0.676,1.447,0.386c3.277,0.771,7.135,0.579,10.801,0.097c3.375,0.578,8.484-0.386,11.668,0.289
			c0.674-0.096,1.543-0.675,2.701-0.289c1.059-0.965,2.506-0.097,3.277-0.676c4.051-0.289,8.391-0.964,12.537-0.964
			c3.952-0.387,8.293-0.771,11.475-1.253c0.676,0.191,1.447-0.388,2.121,0.096c1.641-0.386,2.313-0.386,3.567-0.578
			c2.509-0.482,5.689-0.868,7.906-1.351c0.387,0,0.869-0.29,1.447-0.964c-0.482-0.868,0.58-0.482,0.676-0.482
			c0.867-0.385,2.314,0.386,3.762-0.097C1188.883,762.027,1188.979,762.317,1188.883,762.606z"/>
		<path style="fill:#FF0050;" d="M1153.973,738.017c3.763,0.29,7.619,1.158,11.67,1.641c4.916,0.579,10.027,1.157,14.656,3.472
			c2.41,2.41,5.4,3.664,7.33,6.847c0.289,1.735,1.543,1.446,0.965,3.568c0.096,0.289-0.192,0-0.192-0.386
			c-2.22,0.096-1.158-0.482-2.798-2.7c-2.508,0.771-4.34-0.386-6.172,0.386c-7.715-0.481-14.369,0-21.891,0.771
			c-1.832,0.867-4.146,0.867-6.268,0.578c-1.351-0.482-2.797,0.481-4.437,0.192c-5.016-0.289-10.608-0.289-15.526,0.386
			c-3.664-0.191-7.232,0-10.992,0.387c-1.447-0.289-3.086-0.771-5.111-0.193c-0.578,1.351-1.254,1.062-0.771,2.219
			c-0.193,0.192-0.386,0.481-0.677,0.676c-0.289-0.098-0.578,0-0.866-0.29c0.385-2.797,2.219-4.341,3.952-6.461
			c3.375-3.086,7.716-4.532,11.38-7.521c2.411-1.543,4.918-1.736,7.522-2.797c3.277-0.481,6.943-0.289,10.125-0.964
			C1148.572,738.499,1151.176,738.307,1153.973,738.017z M1138.736,740.428c-3.761-0.191-6.365,1.543-9.933,2.604
			c-0.192,0.19-1.061,1.06-1.543,1.35c-2.701,1.929-5.883,2.797-8.774,6.654c3.471-0.29,5.207,0.964,6.846,0.289
			c2.412,0.289,4.533-0.965,6.943-1.062c3.473,1.062,7.231,0.193,10.801,0.675c3.279,0.388,6.848-0.385,10.223-0.577
			c5.979-2.314,12.922-0.676,19.094-1.351c2.988,0,6.459-0.481,11.187,0.096c-1.832-3.856-5.111-4.531-7.328-5.784
			c-5.691-1.543-11.379-2.509-17.262-3.086c-1.158-0.193-2.604,0.289-3.666-0.388
			C1150.02,740.139,1143.654,738.307,1138.736,740.428z"/>
		<path style="fill:#FF0050;" d="M1293.901,1491.949c3.762,0.965,6.461,4.148,10.223,5.305c0.578,1.061,1.832,1.639,2.41,2.701
			c-0.866,0.289-1.832-0.58-2.604-0.965c-0.676-0.676-1.35-1.062-2.314-1.158c-2.121-1.543-5.014-2.217-7.231-3.953
			c-1.64-0.578-4.052-0.771-5.884-1.639c-3.276-0.193-6.557-0.193-9.737,0.385c-3.088,0.578-6.076,1.832-8.486,3.955
			c-3.184,1.541-6.848,2.699-10.317,3.471c-5.4,2.699-12.248,2.41-17.841,0.193c-3.278,0-5.11-2.797-8.102-3.184
			c-0.867-0.674-1.64-1.35-2.699-1.736c-0.578-0.48-0.289-1.254-0.771-1.928c0-0.193-0.388,0.096-0.193,0.193
			c1.35,0.096,2.797,0.676,3.953,1.254c5.111,3.953,11.959,4.145,18.129,5.496c4.34-0.193,7.908-2.219,12.055-3.184
			c2.604-1.641,5.884-2.219,8.486-3.855c1.93-0.193,3.473-2.412,5.496-1.93c4.34-1.543,9.451-1.543,13.598,0
			C1292.647,1491.66,1293.228,1491.854,1293.901,1491.949z"/>
		<path style="fill:#FF0050;" d="M1223.507,1462.828c0.19,1.641,0.866,2.797,1.155,4.531c-0.577,2.605-0.098,4.92,0.867,8.102
			c1.353-0.676,2.314-0.482,2.797-0.289c1.832-0.193,4.146,0.289,5.979,0.193c1.735-0.387,3.856-0.58,5.594-0.58
			c2.701-1.35,6.076-1.734,8.775-2.312c1.543,0.385,3.375,0,4.821,0.191c6.558,0,13.308-1.639,19.479-2.508
			c1.158,0.098,2.893-0.191,3.953,0.098c0.192-0.098,0.676-0.098,0.772-0.193c4.82-0.193,8.679-0.289,13.5-0.289
			c2.22,0,4.146,0.387,6.172,0.482h-0.096c-2.51,1.832-5.979,1.156-8.68,1.736c-3.955-0.965-8.103,1.061-12.345-0.58
			c-2.508,2.604-5.495,0.58-8.102,1.447c-2.41-0.289-5.303-0.193-7.328,1.061c-0.965-0.098-1.832,0.289-3.182-0.193
			c-2.314,1.352-5.209,0.676-7.619,0.676c-3.953-0.867-7.135,1.736-10.896,1.254c-2.701,1.352-5.787,1.158-8.871,1.158
			c-0.965-1.062-2.508-0.098-4.438-2.219c-0.674,4.242-0.289,6.75-0.482,9.354c0.482,2.025-0.289,4.242,0,6.461
			c-0.096,0.098-0.096,0.191-0.19,0.289c-0.771-0.098-0.965-0.965-1.254-1.543c0.577-1.928,0.481-3.857,0-5.785
			c-0.386-0.482,0-1.352,0.096-2.314c-1.062-1.447-0.191-3.568-0.963-4.918c0.481-1.543-0.193-3.184-0.099-4.727
			c-0.866-1.543,0.291-3.566-0.578-5.109c0-1.352-1.832-2.701-0.288-3.762c0.096-0.098,0.288-0.193,0.481-0.291
			C1222.927,1462.346,1223.409,1462.441,1223.507,1462.828z"/>
		<path style="fill:#FF0050;" d="M1306.245,1445.471c-0.965,2.121-3.278,2.312-4.918,3.471c-2.219,1.158-4.629,2.314-7.137,2.604
			c-0.674,0.387-1.639,0.48-2.41,0.576c-6.461,1.158-12.729,3.764-19.479,3.955c-4.629,0.965-9.738,0.482-14.754,0.387
			c-4.146,0-9.449-1.156-13.597-2.988c-2.024-0.482-4.244-1.254-5.688-2.508c-2.123-0.578-3.762-2.121-5.594-3.279
			c-0.388-0.674-0.867-1.35-0.867-2.025c0-0.096-0.099-0.191-0.099-0.191c1.931,0.48,3.763,1.928,5.689,3.086
			c1.543,0.867,2.412,2.025,4.051,2.41c2.797,0.58,5.017,2.508,7.908,2.314c5.303,1.35,11.088,1.252,17.453,0.867
			c-0.963-2.217,0.676-3.086-0.096-4.436c0.096-0.578,0.192-0.965,0.385-1.352c0.289-0.289,0.482-0.578,0.867-0.289
			c0.192,0.193,0.291,0.289,0.481,0.482c-0.19,0.578,0.193,0.965,0.482,1.254c-0.289,1.254,0,2.506-0.191,4.049
			c4.726,0.482,7.906-0.867,11.765-1.061c1.641-0.771,4.146-0.965,6.172-1.543c1.832-0.578,4.051-0.578,5.787-1.639
			c1.444,0.191,3.084-0.289,4.241-1.736c2.509,0.098,4.437-1.734,7.328-2.314c0-0.771,0-0.482,0-0.482
			c0.482-0.191,1.447-1.252,2.604-0.865C1306.534,1444.699,1306.438,1445.084,1306.245,1445.471z"/>
		<path style="fill:#FF0050;" d="M1296.505,1423.967c-3.472,2.508-7.906,2.119-11.088,4.82c-1.257,0.387-2.605,1.062-3.666,1.736
			c-2.988-0.098-6.076,1.832-10.125,3.664c2.604,1.061,4.53,0.771,5.883,0.385c5.688,0,10.703-0.965,16.682-0.096
			c1.641,0,3.666-0.482,5.111,0.191c2.797,0.098,6.076-0.674,8.485,0.676c0.097,0.096,0.097,0.096,0.193,0.193
			c-2.025,0.578-4.629,0.385-6.654,0.289c-1.735-0.482-3.567,0.191-5.496,0.191c-3.762,0.098-7.715-1.252-11.09,0.387
			c-3.086,0.387-5.979-1.061-8.969,0c-2.699,0.867-5.4-0.482-7.908,0.771c-4.629-0.771-10.606,0.096-15.621-0.771
			c-5.688,0-11.477,0.387-17.067-0.578c-3.086-0.098-4.34-0.676-7.232-1.254c-0.098,0,0.48-0.674,0.48-0.867
			c3.088-1.834,4.146-2.412,7.426-3.664c4.533-1.834,9.354-1.447,13.887-2.701c6.365,0.098,12.633,0.965,17.262,7.039
			c8.486-5.111,17.552-5.689,25.748-10.125c3.664-1.156,7.039-2.988,10.703-4.146c0.578,0,1.543-0.385,2.219-0.191
			C1302.677,1421.652,1299.591,1423.002,1296.505,1423.967z M1242.214,1430.332c-1.254,0.385-2.797-0.098-3.953,0.676
			c-1.545-0.193-2.99,0.674-4.244,1.154l-2.314,1.641c0.867,0.098,4.244,0.387,5.207,0.58c1.254,1.252,3.474,0.674,5.017,1.059
			c7.135-0.963,15.139,0.193,23.723-0.191c-1.254-1.543-2.508-1.93-3.182-2.604c-1.353-1.35-5.111-2.795-7.619-3.857
			C1250.507,1429.367,1245.878,1428.402,1242.214,1430.332z"/>
		<path style="fill:#FF0050;" d="M1301.81,1400.34c1.734,2.023,2.893,4.051,4.629,6.461c0.289,2.314,1.928,2.314,1.543,4.145
			c-1.543,2.121-2.41,1.062-4.244,1.158c-5.979-0.771-13.018,0.48-18.803,0.869c-5.209-0.389-8.103,0.385-15.236,0.576
			c-1.834,0.771-4.438,0.291-6.463,0c-2.121,0.867-5.688,0.482-8.004-0.191c-7.715,0.963-14.078,0.191-21.6,0.578
			c-0.58-0.096-1.447,0.385-1.062-0.289c0-0.098,0.098-0.482,0.098-0.58c0.191-0.191,0.289-0.48,0.482-0.867
			c-0.098-0.674-0.193,0.291,0.289,0.291c0.867-1.062,1.254-2.99,2.699-2.99c0.771-1.061,1.543-1.641,2.412-1.93
			c1.733-1.639,2.698-3.086,5.014-3.086c3.953-3.182,8.969-2.795,13.5-2.795c4.533,1.541,8.295,3.953,12.152,8.967
			c1.639-1.832,1.543-4.34,2.602-4.82c0.676-1.641,1.93-2.988,3.473-4.629c3.087-2.123,5.787-2.508,9.064-3.762
			c3.762-2.604,7.811,1.254,11.572-0.191C1297.856,1397.639,1299.591,1399.666,1301.81,1400.34z M1244.913,1405.162
			c-2.121,2.797-4.051,1.252-5.785,5.109c-0.288,0.193-0.577,0.387-1.061,0.098c-3.664,1.641,0.289,1.832,1.832,1.93
			c3.182-1.062,4.725,0.191,7.908,0.096c3.276-1.061,7.039,0.387,10.512-0.578c1.059-0.289,1.83-0.098,2.795-0.098
			c2.121-0.482,3.568,0.482,7.812,0c-2.988-2.508-3.664-3.182-5.207-4.242c-2.218-0.965-4.242-2.508-6.269-3.664
			C1253.11,1402.848,1248.577,1403.619,1244.913,1405.162z M1276.448,1402.365c-2.604,2.508-3.567,4.242-6.076,9.451
			c2.701,0,4.052-0.869,5.207-0.482c4.822-2.025,9.259,0.867,14.273-0.387c3.182-1.158,6.557,0,9.836-1.158
			c1.156,0.58,4.629,0.58,5.496,0.193c0.096-0.193-0.867-1.156-0.578-2.41c-1.352-1.93-2.604-4.051-3.664-6.365
			c-2.123-0.191-3.375-0.578-4.822-1.445c-3.086-0.578-6.461-2.314-9.836-1.156
			C1282.909,1399.762,1279.63,1400.727,1276.448,1402.365z"/>
		<path style="fill:#FF0050;" d="M1240.093,1381.246c1.444,0.193,2.41,1.641,4.049,1.641c3.086,1.543,5.979,2.314,9.74,2.508
			c0.58,0.289,1.543,0.385,2.219,0.578c2.121,0.193,4.049,1.158,6.076,1.158c1.252,0.385,2.988-0.291,4.146,1.254
			c1.541-0.387,2.699-0.771,3.664-1.254c0.385-0.773,1.445-1.736,1.351-2.799c0.674-1.061,0.096-1.928,0.577-3.277
			c0.578-1.832,0.578-2.895,1.543-4.822c0.482-0.385,0.966-0.77,1.543-0.674c0.386,0.965,0,2.121,0,3.277
			c-1.254,2.508-1.061,3.857-1.928,7.137c0.771,0.482,0.482,0.867,0.771,1.061c2.409,0.387,5.014,0.098,7.038-0.385
			c1.255,0.191,2.314-0.291,4.242-0.291c0.387-1.156,1.254-0.289,1.832-0.578c3.474-0.289,6.56-2.217,10.127-2.41
			c1.541-1.35,4.146-1.158,5.688-2.314c1.834,0.193,2.799-2.219,5.11-1.639c1.158-0.867,2.22-1.93,3.666-1.93
			c0.386,0.289,0.771,0.578,1.156,0.965c-0.191,1.447-1.832,1.543-2.893,2.314c-1.64,0.191-3.185,0.578-4.34,1.639
			c-2.121-0.096-3.375,1.736-5.4,1.641c-0.771,0.482-1.543,0.578-2.121,0.965c-0.771-0.098-1.447,0.191-2.025,0.48
			c-4.436,0-7.907,2.895-12.344,2.605c-0.578,0.385-1.639,0.385-2.217,0.48c-4.727,1.641-10.223,1.352-15.043,1.254
			c-2.219-0.578-4.92,0-6.848-0.965c-5.979-1.061-11.767-3.471-17.455-5.014c-2.699-1.061-5.207-2.701-7.715-4.051
			c-2.795-1.543-6.074-2.604-8.101-5.4c0-0.193,0-0.482,0.193-0.578C1230.739,1376.617,1235.271,1379.125,1240.093,1381.246z"/>
		<path style="fill:#FF0050;" d="M1242.792,1347.785c1.062,0,2.604-0.096,3.763-0.191c2.797-1.736,7.135,0,10.414,0.385
			c2.024-1.156,5.399-0.482,7.521-0.674c3.086-0.771,7.137,0.191,10.705,0.191c6.268,0,13.5-0.191,19.768-0.482
			c0.965-0.096,1.931-0.674,2.797-0.289c0.099,0.098,0.193-0.096,0.289-0.096c-2.217,1.445-4.918,1.543-7.135,2.506
			c-3.184,2.797-6.848,4.242-10.223,6.365c-4.051,1.832-8.197,3.182-11.861,5.979c-1.158,0.578-2.217,1.256-3.375,1.834l-2.797,1.35
			l3.184,0.191c7.521,0.482,14.562-1.35,22.275-0.289c3.086,0,5.979-1.252,8.969-0.674c0.771-0.096,1.734,0,2.41,0
			c-0.098,0.191,0,0.578-0.098,0.674c-0.771,0-1.445,0.193-2.119,0.676c-0.773,0.389-1.738,0.389-2.605,0.578
			c-2.604,0.291-5.207-0.096-7.811,0.482c-7.041,0.193-13.887-0.674-20.732,0.096c-3.184-0.578-6.365,1.062-9.451,0.195
			c-2.024,0.48-4.629-0.58-6.172,0.578c-4.629-0.482-9.162-1.256-13.981-1.256c-1.062-0.385-2.701,0-3.185-1.156
			c-0.096-0.096,0.58-1.061,0.58-0.578c5.207-1.352,9.643,1.734,15.621,1.061c3.086-0.387,6.27,0,9.547-0.965
			c0.965-1.35,2.412-1.254,3.473-2.121c1.929-0.289,3.857-0.77,5.109-2.121c4.92-2.412,9.934-3.277,13.889-6.848
			c1.156-0.482,2.312-1.061,3.566-2.121c0-0.289,2.797-1.543,2.797-1.832c-0.096-0.193-2.988,0.482-2.988,0.096
			c-3.762,0-7.231-0.674-10.223,0.389c-5.4-1.352-10.994-1.447-16.779-0.195c-4.146-0.48-8.391-1.059-12.438-0.287
			c-3.375-1.447-7.137,1.543-10.224-1.158c-0.288-0.867-1.832-0.578-1.735-1.639
			C1236.813,1345.857,1239.61,1347.689,1242.792,1347.785z"/>
		<path style="fill:#FF0050;" d="M1301.905,1287.32c0.193,0.482,1.736,0.482,1.156,1.254c-2.699,1.832-6.363-0.191-9.256,1.352
			c-9.74,2.988-20.059,0.77-29.992,2.121c-5.785,0.771-11.186,0.771-16.875,1.93l-3.277-0.096l-0.098,0.385l3.279,1.445
			c3.762,0.771,8.582,0.867,12.15,1.734c3.375,0.869,6.268,0.965,9.547,1.93c3.567,0.676,7.039,0.289,11.09,0.387
			c0.289,0.191,0.771,0.098,0.965,0.387c-5.111,2.121-11.379,0.674-16.684,2.217c-1.445,1.254-3.857,0.869-5.593,1.641
			c-6.174,0-12.055,2.121-17.842,2.41c-0.674,0.578-1.832,0.676-2.797,1.062c0,0.385-2.604,0.963-2.506,1.156
			c0.096,0.289,3.086,0.191,3.182,0.674c9.547,1.447,18.226,0,27.002,1.062c5.4-2.025,10.992,1.156,16.201-0.58
			c6.17-2.025,13.113,0.289,18.611-1.832c1.639,0,3.373-0.867,4.819,0c1.736,0.098,4.629-1.641,5.979,0.193
			c0,0.191,0.192,0.096,0.289,0.191c-1.351,0.867-3.472,0.193-4.726,0.387c-7.328,1.832-15.043,2.312-22.662,3.471
			c-3.086,0-6.17,0.482-9.063-0.385c-3.76,0.096-7.617,0.385-11.572-0.289c-9.16-0.289-17.551,1.543-26.133-0.965
			c-3.183-0.965-6.269,0-9.064-0.674c0-0.58-2.12,0.48-1.639-0.389c0.578-0.289,0.965-1.254,2.022-1.445
			c4.341-2.41,10.031-1.736,14.853-3.473c5.883-1.061,12.537-1.734,18.611-3.182l3.182-0.771v-0.385l-3.182-0.58
			c-3.953-0.676-7.716-1.254-11.668-1.734c-4.822-2.219-10.513-2.025-15.332-4.146c-0.289-0.289-0.771-0.482-1.158-0.676
			c0.771-1.156,3.086-0.096,4.244-0.191c4.049-2.123,8.582-0.482,13.018-1.641c10.125-1.062,17.646-0.482,27.58-1.352
			c2.313-0.674,5.883-0.674,8.486-1.061c4.627-0.674,9.547,1.158,13.018-1.734C1300.749,1286.648,1301.327,1286.84,1301.905,1287.32
			z"/>
		<path style="fill:#FF0050;" d="M1305.763,1275.652c0.289,0.096,0.481,0.193,0.676,0.387c-0.867,2.219-3.473,0.963-5.496,1.543
			c-1.736,0.289-3.375,0-5.111,0.098c-4.727,0.096-9.45-0.098-13.981,0c-2.412,0-5.594,0.191-8.103-0.098
			c-1.639-0.191-3.664,0-5.305,0.098c-3.953,0.385-7.713,0-11.861,0.289c-0.19-0.193-0.385-0.193-0.578-0.193
			c-1.733,0.867-3.663,0.098-5.303,0.387c-3.953,0.193-7.715,0.578-11.572,0.578c-2.7-1.158-5.495,0.578-8.293-0.098
			c-0.387-0.096,0.578-1.156,0.867-1.156c4.244-2.893,9.16,1.156,13.887-0.193c5.595-1.543,11.861-0.965,17.357-1.254
			s10.705,0.193,16.297,0c1.543-0.191,3.086-0.191,4.728-0.191c0.385,0,0.866,0.098,1.254,0.098
			c4.242-0.098,8.485-0.098,12.246-0.676C1300.362,1276.039,1302.772,1275.559,1305.763,1275.652z"/>
		<path style="fill:#FF0050;" d="M1223.507,1253.201c0.19,1.641,0.866,2.797,1.155,4.531c-0.577,2.605-0.098,4.92,0.867,8.102
			c1.353-0.676,2.314-0.48,2.797-0.287c1.832-0.193,4.146,0.287,5.979,0.191c1.735-0.387,3.856-0.58,5.594-0.58
			c2.701-1.35,6.076-1.734,8.775-2.312c1.543,0.385,3.375,0,4.821,0.191c6.558,0,13.308-1.639,19.479-2.506
			c1.158,0.096,2.893-0.195,3.953,0.096c0.192-0.096,0.676-0.096,0.772-0.191c4.82-0.193,8.679-0.289,13.5-0.289
			c2.22,0,4.146,0.385,6.172,0.48h-0.096c-2.51,1.832-5.979,1.156-8.68,1.736c-3.955-0.965-8.103,1.061-12.345-0.58
			c-2.508,2.605-5.495,0.58-8.102,1.447c-2.41-0.289-5.303-0.193-7.328,1.061c-0.965-0.098-1.832,0.289-3.182-0.191
			c-2.314,1.35-5.209,0.676-7.619,0.676c-3.953-0.869-7.135,1.734-10.896,1.252c-2.701,1.352-5.787,1.158-8.871,1.158
			c-0.965-1.062-2.508-0.098-4.438-2.219c-0.674,4.242-0.289,6.75-0.482,9.354c0.482,2.025-0.289,4.244,0,6.463
			c-0.096,0.096-0.096,0.191-0.19,0.289c-0.771-0.098-0.965-0.965-1.254-1.543c0.577-1.93,0.481-3.857,0-5.787
			c-0.386-0.48,0-1.35,0.096-2.312c-1.062-1.447-0.191-3.568-0.963-4.918c0.481-1.543-0.193-3.184-0.099-4.727
			c-0.866-1.543,0.291-3.568-0.578-5.109c0-1.352-1.832-2.701-0.288-3.762c0.096-0.098,0.288-0.193,0.481-0.291
			C1222.927,1252.721,1223.409,1252.816,1223.507,1253.201z"/>
		<path style="fill:#FF0050;" d="M1255.521,1197.805c2.701,0.48,4.918,0.965,7.812,0.578c5.014,2.123,10.801-0.867,15.524,2.604
			c2.604,0.578,5.883,0.674,8.293,1.928c4.051,1.352,8.293,1.932,11.765,4.727c1.446,1.93,2.51,3.664,3.567,5.688
			c-0.19,1.932-0.096,4.146-1.83,5.016c-3.666,1.445-7.522,2.123-11.09,3.955c-7.715,0.191-14.852,2.988-22.084,1.734
			c-3.473,0.771-6.848-0.096-10.317,0.482c-5.979-0.387-11.478-2.797-17.263-3.857c-1.254-1.061-6.172-1.93-2.219-3.473
			c2.604-0.48,4.244,1.447,6.559,2.025c1.351,0.289,2.604,1.832,4.146,1.832c5.883,1.061,10.992,2.121,17.356,1.352
			c5.496,1.35,11.478,0,16.974-1.158c5.207-0.385,9.932-1.832,14.754-3.182c2.313-1.062,1.445-2.99,2.508-5.498
			c-1.254-0.867-0.869-2.699-1.735-3.471c-1.543-1.736-4.629-2.604-6.56-3.762c-3.182-0.48-6.362,0-8.678-1.832
			c-2.604-0.48-5.594,0.193-7.619-1.832c-8.678-1.447-17.453-0.771-25.553-2.797c-4.728-0.482-8.681-0.676-12.537-3.086
			c0.193-0.578,1.158-0.289,1.543-0.48C1244.817,1194.91,1249.64,1198.285,1255.521,1197.805z"/>
		<path style="fill:#FF0050;" d="M1242.792,1168.777c1.062,0,2.604-0.098,3.763-0.192c2.797-1.735,7.135,0,10.414,0.388
			c2.024-1.158,5.399-0.482,7.521-0.677c3.086-0.771,7.137,0.192,10.705,0.192c6.268,0,13.5-0.192,19.768-0.481
			c0.965-0.097,1.931-0.676,2.797-0.29c0.099,0.098,0.193-0.097,0.289-0.097c-2.217,1.446-4.918,1.543-7.135,2.508
			c-3.184,2.797-6.848,4.243-10.223,6.364c-4.051,1.832-8.197,3.183-11.861,5.979c-1.158,0.578-2.217,1.254-3.375,1.832l-2.797,1.35
			l3.184,0.193c7.521,0.482,14.562-1.35,22.275-0.289c3.086,0,5.979-1.254,8.969-0.676c0.771-0.097,1.734,0,2.41,0
			c-0.098,0.193,0,0.579-0.098,0.676c-0.771,0-1.445,0.192-2.119,0.674c-0.773,0.388-1.738,0.388-2.605,0.58
			c-2.604,0.289-5.207-0.098-7.811,0.481c-7.041,0.192-13.887-0.675-20.732,0.097c-3.184-0.578-6.365,1.061-9.451,0.193
			c-2.024,0.48-4.629-0.579-6.172,0.578c-4.629-0.482-9.162-1.254-13.981-1.254c-1.062-0.387-2.701,0-3.185-1.157
			c-0.096-0.097,0.58-1.062,0.58-0.579c5.207-1.35,9.643,1.736,15.621,1.061c3.086-0.385,6.27,0,9.547-0.963
			c0.965-1.352,2.412-1.254,3.473-2.121c1.929-0.291,3.857-0.771,5.109-2.123c4.92-2.41,9.934-3.277,13.889-6.846
			c1.156-0.482,2.312-1.062,3.566-2.121c0-0.291,2.797-1.543,2.797-1.834c-0.096-0.191-2.988,0.482-2.988,0.098
			c-3.762,0-7.231-0.676-10.223,0.386c-5.4-1.351-10.994-1.446-16.779-0.192c-4.146-0.48-8.391-1.061-12.438-0.289
			c-3.375-1.445-7.137,1.543-10.224-1.156c-0.288-0.869-1.832-0.578-1.735-1.641
			C1236.813,1166.85,1239.61,1168.682,1242.792,1168.777z"/>
		<path style="fill:#FF0050;" d="M1274.036,1142.548c3.763,0.29,7.619,1.158,11.67,1.642c4.916,0.578,10.027,1.156,14.656,3.471
			c2.41,2.41,5.4,3.664,7.33,6.847c0.289,1.735,1.543,1.446,0.965,3.567c0.096,0.289-0.192,0-0.192-0.385
			c-2.22,0.097-1.158-0.482-2.798-2.701c-2.508,0.771-4.34-0.385-6.172,0.387c-7.715-0.482-14.369,0-21.891,0.771
			c-1.832,0.867-4.146,0.867-6.268,0.578c-1.351-0.482-2.797,0.481-4.437,0.192c-5.016-0.289-10.608-0.289-15.526,0.386
			c-3.664-0.191-7.232,0-10.992,0.387c-1.447-0.289-3.086-0.771-5.111-0.193c-0.578,1.352-1.254,1.062-0.771,2.219
			c-0.193,0.191-0.386,0.482-0.677,0.676c-0.289-0.098-0.578,0-0.866-0.291c0.385-2.796,2.219-4.339,3.952-6.461
			c3.375-3.085,7.716-4.531,11.38-7.521c2.411-1.543,4.918-1.736,7.522-2.797c3.277-0.481,6.943-0.289,10.125-0.965
			C1268.636,1143.029,1271.239,1142.838,1274.036,1142.548z M1258.8,1144.959c-3.761-0.191-6.365,1.543-9.933,2.604
			c-0.192,0.192-1.061,1.062-1.543,1.351c-2.701,1.929-5.883,2.797-8.774,6.653c3.471-0.289,5.207,0.965,6.846,0.289
			c2.412,0.289,4.533-0.965,6.943-1.062c3.473,1.062,7.231,0.192,10.801,0.675c3.279,0.387,6.848-0.385,10.223-0.578
			c5.979-2.314,12.922-0.675,19.094-1.35c2.988,0,6.459-0.482,11.187,0.096c-1.832-3.857-5.111-4.531-7.328-5.785
			c-5.691-1.543-11.379-2.508-17.262-3.086c-1.158-0.193-2.604,0.289-3.666-0.387
			C1270.083,1144.671,1263.718,1142.838,1258.8,1144.959z"/>
		<path style="fill:#FF0050;" d="M1229.099,1098.672c0.867,0.387,0.867,1.641,1.35,2.314c-0.771,3.086,2.025,1.351,1.158,5.015
			c0.674,1.062,1.639,0.771,3.279,1.157c0-0.676,0.19-0.579,0.19-0.482c5.4-0.097,15.527,1.735,20.927,0
			c2.508,0.289,5.399-0.771,8.485,0.482c0.482-3.568,0.965-2.122,0.677-4.532c0.385-0.675,0.385-1.64,1.254-1.735
			c-0.097,0.192-0.097,0.289,0,0.385c0.096,0.965,0-0.385,0.385,0.098c0.676,2.893-0.289,1.929-0.191,5.785
			c9.545,0,19.094-1.639,27.676,0.098c3.087,0,5.689-1.352,8.679-1.254c1.834,0.964,4.051-0.965,6.076,0.29
			c0.096,0.386,0.385,0.771-0.097,0.964c-4.821,0.578-9.838,0.771-14.369,1.639c-4.34-1.734-9.354-0.097-13.981-0.578
			c-2.701,1.158-7.619-0.965-10.125,0.963c-0.869,0.099-1.736-0.385-2.51-0.48c-2.988-0.576-6.363-0.386-9.546-0.482
			c-4.436,1.834-14.368,0.58-19.286,0.58c-3.183,0.578-6.271-0.289-9.064-1.156c-0.771-1.158-1.061-2.799-1.158-4.438
			c-0.192-2.604-0.288-0.482-0.674-2.604c-0.098,0.193-0.387-0.385-0.289-0.481c0.191-0.386-0.577-1.351-0.288-1.639
			C1228.231,1098.77,1228.423,1098.189,1229.099,1098.672z"/>
		<path style="fill:#FF0050;" d="M1255.521,1065.309c2.701,0.48,4.918,0.963,7.812,0.578c5.014,2.12,10.801-0.867,15.524,2.604
			c2.604,0.578,5.883,0.675,8.293,1.929c4.051,1.351,8.293,1.929,11.765,4.726c1.446,1.93,2.51,3.664,3.567,5.689
			c-0.19,1.928-0.096,4.146-1.83,5.016c-3.666,1.445-7.522,2.121-11.09,3.953c-7.715,0.192-14.852,2.988-22.084,1.734
			c-3.473,0.771-6.848-0.096-10.317,0.482c-5.979-0.386-11.478-2.797-17.263-3.857c-1.254-1.061-6.172-1.93-2.219-3.471
			c2.604-0.482,4.244,1.445,6.559,2.023c1.351,0.29,2.604,1.833,4.146,1.833c5.883,1.062,10.992,2.121,17.356,1.351
			c5.496,1.35,11.478,0,16.974-1.158c5.207-0.385,9.932-1.832,14.754-3.182c2.313-1.062,1.445-2.99,2.508-5.496
			c-1.254-0.869-0.869-2.701-1.735-3.473c-1.543-1.736-4.629-2.604-6.56-3.761c-3.182-0.481-6.362,0-8.678-1.832
			c-2.604-0.481-5.594,0.19-7.619-1.833c-8.678-1.446-17.453-0.771-25.553-2.797c-4.728-0.48-8.681-0.676-12.537-3.086
			c0.193-0.578,1.158-0.289,1.543-0.481C1244.817,1062.414,1249.64,1065.789,1255.521,1065.309z M1234.114,1078.133
			c0.289,0.289,0.482,0.48,0.482,0.965c-0.291,0.289-0.676,0.481-1.158,0.481c-1.447-0.771-2.99-0.097-4.436-1.062
			c-0.388-0.097-1.158-0.386-1.062-0.867c0.674-0.387,1.252-0.676,2.41-0.578
			C1232.089,1075.434,1232.858,1077.747,1234.114,1078.133z M1234.692,1069.066c0.289,0.291,0.482,0.482,0.482,0.965
			c-0.289,0.289-0.676,0.482-1.158,0.482c-1.543-0.771-3.568,0.096-5.014-0.869c-0.388-0.096-1.158-0.385-1.062-0.867
			c0.674-0.481,1.64-1.061,2.797-0.965C1232.474,1066.175,1233.438,1068.682,1234.692,1069.066z"/>
		<path style="fill:#FF0050;" d="M1296.505,1042.742c-3.472,2.507-7.906,2.121-11.088,4.82c-1.257,0.387-2.605,1.062-3.666,1.736
			c-2.988-0.098-6.076,1.832-10.125,3.664c2.604,1.061,4.53,0.771,5.883,0.387c5.688,0,10.703-0.965,16.682-0.098
			c1.641,0,3.666-0.482,5.111,0.193c2.797,0.096,6.076-0.676,8.485,0.675c0.097,0.096,0.097,0.096,0.193,0.192
			c-2.025,0.578-4.629,0.385-6.654,0.289c-1.735-0.481-3.567,0.192-5.496,0.192c-3.762,0.097-7.715-1.254-11.09,0.386
			c-3.086,0.387-5.979-1.061-8.969,0c-2.699,0.868-5.4-0.482-7.908,0.771c-4.629-0.771-10.606,0.097-15.621-0.771
			c-5.688,0-11.477,0.387-17.067-0.578c-3.086-0.097-4.34-0.676-7.232-1.254c-0.098,0,0.48-0.675,0.48-0.867
			c3.088-1.832,4.146-2.412,7.426-3.664c4.533-1.832,9.354-1.447,13.887-2.701c6.365,0.097,12.633,0.965,17.262,7.041
			c8.486-5.111,17.552-5.689,25.748-10.127c3.664-1.156,7.039-2.988,10.703-4.146c0.578,0,1.543-0.386,2.219-0.192
			C1302.677,1040.427,1299.591,1041.777,1296.505,1042.742z M1242.214,1049.105c-1.254,0.387-2.797-0.096-3.953,0.676
			c-1.545-0.192-2.99,0.675-4.244,1.156l-2.314,1.641c0.867,0.097,4.244,0.386,5.207,0.578c1.254,1.254,3.474,0.676,5.017,1.061
			c7.135-0.964,15.139,0.193,23.723-0.191c-1.254-1.543-2.508-1.93-3.182-2.604c-1.353-1.351-5.111-2.797-7.619-3.856
			C1250.507,1048.143,1245.878,1047.178,1242.214,1049.105z"/>
		<path style="fill:#FF0050;" d="M1306.245,1021.814c-0.965,2.123-3.278,2.314-4.918,3.474c-2.219,1.155-4.629,2.313-7.137,2.604
			c-0.674,0.385-1.639,0.48-2.41,0.578c-6.461,1.156-12.729,3.76-19.479,3.952c-4.629,0.966-9.738,0.481-14.754,0.386
			c-4.146,0-9.449-1.156-13.597-2.988c-2.024-0.481-4.244-1.254-5.688-2.508c-2.123-0.578-3.762-2.121-5.594-3.277
			c-0.388-0.676-0.867-1.352-0.867-2.025c0-0.096-0.099-0.193-0.099-0.193c1.931,0.482,3.763,1.93,5.689,3.086
			c1.543,0.869,2.412,2.025,4.051,2.412c2.797,0.578,5.017,2.506,7.908,2.313c5.303,1.351,11.088,1.253,17.453,0.868
			c-0.963-2.219,0.676-3.086-0.096-4.436c0.096-0.58,0.192-0.965,0.385-1.353c0.289-0.289,0.482-0.578,0.867-0.289
			c0.192,0.192,0.291,0.289,0.481,0.481c-0.19,0.58,0.193,0.965,0.482,1.254c-0.289,1.254,0,2.509-0.191,4.052
			c4.726,0.481,7.906-0.868,11.765-1.062c1.641-0.771,4.146-0.965,6.172-1.543c1.832-0.578,4.051-0.578,5.787-1.641
			c1.444,0.193,3.084-0.289,4.241-1.734c2.509,0.096,4.437-1.736,7.328-2.313c0-0.772,0-0.481,0-0.481
			c0.482-0.193,1.447-1.255,2.604-0.869C1306.534,1021.044,1306.438,1021.432,1306.245,1021.814z"/>
		<path style="fill:#FF0050;" d="M1305.763,1008.895c0.289,0.098,0.481,0.192,0.676,0.387c-0.867,2.218-3.473,0.965-5.496,1.543
			c-1.736,0.289-3.375,0-5.111,0.096c-4.727,0.098-9.45-0.096-13.981,0c-2.412,0-5.594,0.193-8.103-0.096
			c-1.639-0.193-3.664,0-5.305,0.096c-3.953,0.387-7.713,0-11.861,0.29c-0.19-0.192-0.385-0.192-0.578-0.192
			c-1.733,0.867-3.663,0.096-5.303,0.385c-3.953,0.193-7.715,0.58-11.572,0.58c-2.7-1.158-5.495,0.578-8.293-0.098
			c-0.387-0.097,0.578-1.156,0.867-1.156c4.244-2.894,9.16,1.156,13.887-0.192c5.595-1.544,11.861-0.966,17.357-1.255
			s10.705,0.193,16.297,0c1.543-0.192,3.086-0.192,4.728-0.192c0.385,0,0.866,0.097,1.254,0.097
			c4.242-0.097,8.485-0.097,12.246-0.675C1300.362,1009.279,1302.772,1008.798,1305.763,1008.895z"/>
		<path style="fill:#FF0050;" d="M1242.792,981.509c1.062,0,2.604-0.097,3.763-0.192c2.797-1.736,7.135,0,10.414,0.387
			c2.024-1.158,5.399-0.482,7.521-0.676c3.086-0.771,7.137,0.193,10.705,0.193c6.268,0,13.5-0.193,19.768-0.482
			c0.965-0.098,1.931-0.676,2.797-0.291c0.099,0.098,0.193-0.096,0.289-0.096c-2.217,1.446-4.918,1.543-7.135,2.508
			c-3.184,2.797-6.848,4.242-10.223,6.365c-4.051,1.832-8.197,3.182-11.861,5.979c-1.158,0.578-2.217,1.254-3.375,1.831
			l-2.797,1.351l3.184,0.193c7.521,0.482,14.562-1.35,22.275-0.289c3.086,0,5.979-1.256,8.969-0.676c0.771-0.098,1.734,0,2.41,0
			c-0.098,0.193,0,0.578-0.098,0.676c-0.771,0-1.445,0.191-2.119,0.674c-0.773,0.387-1.738,0.387-2.605,0.58
			c-2.604,0.289-5.207-0.098-7.811,0.48c-7.041,0.193-13.887-0.674-20.732,0.098c-3.184-0.578-6.365,1.061-9.451,0.193
			c-2.024,0.481-4.629-0.58-6.172,0.576c-4.629-0.48-9.162-1.252-13.981-1.252c-1.062-0.387-2.701,0-3.185-1.158
			c-0.096-0.097,0.58-1.061,0.58-0.578c5.207-1.351,9.643,1.736,15.621,1.061c3.086-0.385,6.27,0,9.547-0.964
			c0.965-1.351,2.412-1.253,3.473-2.121c1.929-0.29,3.857-0.771,5.109-2.122c4.92-2.41,9.934-3.277,13.889-6.846
			c1.156-0.482,2.312-1.062,3.566-2.122c0-0.289,2.797-1.543,2.797-1.832c-0.096-0.192-2.988,0.481-2.988,0.097
			c-3.762,0-7.231-0.676-10.223,0.385c-5.4-1.35-10.994-1.445-16.779-0.191c-4.146-0.48-8.391-1.061-12.438-0.289
			c-3.375-1.445-7.137,1.543-10.224-1.157c-0.288-0.868-1.832-0.577-1.735-1.64C1236.813,979.579,1239.61,981.412,1242.792,981.509z
			"/>
		<path style="fill:#FF0050;" d="M1302.194,949.012c0.771,0.387,1.543,0,2.412,0.192c0.674,0,1.156,0.192,1.734,0.577
			c0.098,0.482-0.48,0.869-0.771,1.351c-0.676,0.869-1.447-0.481-1.641-0.481c-0.193-0.385-1.158,0.481-2.121-0.963
			c-1.931,0.578-3.664,0.578-5.015,0.192c-2.7,0.288-5.69-0.481-8.295,0.578c-1.061,0.097-1.639,1.351-2.121,1.929
			c-0.096,0-0.481,1.157-1.35,1.543c-1.254,1.157-3.086,2.989-3.664,3.473c-0.481,0.48,0-0.58-0.869,0.385
			c-0.481,0.387-0.289,0.578-0.965,1.64c-0.867,1.062-2.604,2.894-2.988,3.375c-0.577,1.157-1.157,2.507-1.832,4.052
			c2.025,1.35,4.052,0.963,5.4,1.83c1.736,0.098,3.857,0.482,5.689,0.965c1.061-0.867,1.832,0.193,2.604,0.193
			c1.062,0.578,2.699,0.482,3.953,1.061c2.41,0.387,4.533,1.832,7.232,1.351c0.965,0.192,2.123,0.579,3.086,0.869
			c-0.096,0.19-0.193,0.385-0.385,0.385c-1.64,0.289-3.087-0.577-4.533-0.481c-0.385-0.289-0.674-0.385-1.062-0.289
			c-0.771-0.096-1.543-0.289-2.219-0.289c-1.541-0.482-2.604,0.386-5.109-1.254c0,1.447,0.193,0.578,0.193,0.578
			c-1.447-0.386-3.473-0.963-5.402-0.867c-1.155-0.771-2.602-0.482-3.76-0.771c-2.699-0.289-4.533-1.35-7.137-1.156
			c0,0-0.096-0.098-0.191-0.098c-0.772-0.482-1.641-0.193-2.123-0.675c-5.883-1.64-11.86-3.278-17.744-4.919
			c-1.35-0.674-2.506-0.965-3.952-1.543c-1.929-0.674-3.761-1.831-5.785-2.604c-2.025-0.771-3.953-2.025-6.271-2.699
			c-0.578-0.289-1.541,0.191-1.541-0.771c0-0.289-0.289-0.965-0.098-1.061c0.676-1.062,2.604-1.062,3.567-1.543
			c2.314-0.193,5.593-0.676,8.39-1.254c1.061-1.254,2.701-0.289,3.955-0.771c4.725,0.193,9.643-2.219,15.043-1.543
			c6.848-1.061,14.465-1.641,20.926-1.061C1292.358,948.818,1297.278,948.336,1302.194,949.012z M1272.976,950.65
			c-1.254-0.482-3.182,0.676-5.111,0.289c-2.313-0.387-4.819,0.387-7.135,0.771c-2.219-0.385-3.955,0.965-6.172,0.771
			c-1.447,0.192-3.857,0.192-5.787,0.578c-3.182,0.578-6.074,1.446-9.738,1.736c1.445,1.639,4.049,2.795,4.437,2.893
			c2.024,0.676,3.664,1.832,5.496,2.41c2.797,0.965,5.207,1.93,7.811,2.7c1.834,0.481,4.244,1.062,5.883,1.351
			c1.832-0.096,4.437,1.543,6.943,1.93c1.447,0.191,0.771,0.867,2.797,0.289c0.771-1.833,1.928-3.088,2.604-4.727
			c0.866-1.156,1.35-1.254,2.604-2.604c0.867-0.867,1.736-2.219,2.699-3.473c0.869-0.963,2.025-2.023,2.604-2.699
			c0-0.192,1.156-1.446,1.156-2.219c-1.35-0.287-2.893-0.287-3.762-0.385C1277.702,949.88,1275.675,950.266,1272.976,950.65z"/>
		<path style="fill:#FF0050;" d="M1308.946,909.475c-7.619,3.375-14.178,7.811-20.83,12.246c-0.58,0.289-0.771,1.061-2.024,1.061
			c-3.086,3.086-6.943,3.375-9.74,6.172c-2.506,1.254-5.303,2.701-8.197,4.919c0.388,0.289,1.062,0.579,1.353,0.771
			c2.022,0.965,4.051,0.193,5.881,0.291c5.787,0.191,11.09-0.771,16.201-0.869c4.918,0,9.451-1.156,13.791-0.674
			c0.096,0.191,0.096,0.481,0.096,0.867c-0.289,2.219-2.797,0.676-3.857,1.061c-4.629,0.58-8.678,0.677-13.692,0.867
			c-6.172,0.387-12.248,0.098-18.418,0.772c-4.146,0.386-7.908,0-11.861,0.868c-6.559-0.771-13.213,2.604-19.77,1.253
			c-1.543,0-3.087,0.772-4.726,0.386c-0.676-0.482-3.762,0.098-2.219-1.35c5.016-0.771,10.223,0,15.334-0.676
			c7.715-0.289,15.912-0.771,21.6-5.689c0.965-0.289,1.736-0.965,2.412-1.445c2.41-1.447,5.015-2.508,7.039-4.63
			c2.025-0.675,3.857-1.831,5.496-2.989c2.895-2.893,6.752-3.953,9.934-6.172c0-0.385,0.289-0.289,0.482-0.385
			c0.867-0.387,1.541-1.158,2.604-1.93c0-0.387,2.796-0.965,2.699-1.254c-0.096-0.289-3.279-0.192-3.567-0.385
			c-4.437,0.963-9.933,1.35-15.043,1.832c-5.496,0.481-9.16,1.543-14.369,1.639c-1.832-0.385-4.437,1.447-6.269-0.096
			c-2.024,0-3.182-0.098-4.819,0.481c-1.447,0-2.896-0.192-4.629-0.192c-0.388-0.097-0.773,0.289-1.158,0.289
			c-1.64,1.061-2.508-1.447-3.762-0.289c-0.578,0.192-1.156,0.674-1.734-0.193c-3.086,0.867-5.498,0.387-8.103-1.061
			c-0.866,0.385-1.155-0.097-1.543-0.386c0-0.099,0-0.192,0-0.29c0.289-0.675,0.869,0.29,0.869,0.191c0,0,0.578,0.482,1.156-0.096
			c0.387-0.578,1.254,0.676,1.447,0.385c3.277,0.771,7.135,0.58,10.801,0.099c3.375,0.578,8.484-0.388,11.668,0.289
			c0.674-0.097,1.543-0.677,2.701-0.289c1.059-0.966,2.506-0.099,3.277-0.677c4.051-0.289,8.391-0.963,12.537-0.963
			c3.952-0.387,8.293-0.771,11.475-1.254c0.676,0.192,1.447-0.387,2.121,0.097c1.641-0.386,2.313-0.386,3.567-0.579
			c2.509-0.48,5.689-0.868,7.906-1.35c0.387,0,0.869-0.289,1.447-0.965c-0.482-0.867,0.58-0.481,0.676-0.481
			c0.867-0.386,2.314,0.385,3.762-0.097C1308.946,908.896,1309.042,909.186,1308.946,909.475z"/>
		<path style="fill:#FF0050;" d="M1274.036,884.884c3.763,0.289,7.619,1.157,11.67,1.64c4.916,0.58,10.027,1.158,14.656,3.473
			c2.41,2.41,5.4,3.664,7.33,6.848c0.289,1.734,1.543,1.445,0.965,3.566c0.096,0.289-0.192,0-0.192-0.387
			c-2.22,0.098-1.158-0.48-2.798-2.699c-2.508,0.771-4.34-0.385-6.172,0.387c-7.715-0.482-14.369,0-21.891,0.771
			c-1.832,0.867-4.146,0.867-6.268,0.578c-1.351-0.482-2.797,0.481-4.437,0.192c-5.016-0.289-10.608-0.289-15.526,0.386
			c-3.664-0.193-7.232,0-10.992,0.385c-1.447-0.289-3.086-0.771-5.111-0.191c-0.578,1.35-1.254,1.061-0.771,2.218
			c-0.193,0.192-0.386,0.481-0.677,0.677c-0.289-0.098-0.578,0-0.866-0.291c0.385-2.797,2.219-4.34,3.952-6.461
			c3.375-3.086,7.716-4.533,11.38-7.521c2.411-1.543,4.918-1.735,7.522-2.798c3.277-0.481,6.943-0.289,10.125-0.963
			C1268.636,885.365,1271.239,885.173,1274.036,884.884z M1258.8,887.295c-3.761-0.191-6.365,1.543-9.933,2.604
			c-0.192,0.192-1.061,1.062-1.543,1.352c-2.701,1.928-5.883,2.797-8.774,6.654c3.471-0.291,5.207,0.963,6.846,0.287
			c2.412,0.291,4.533-0.963,6.943-1.061c3.473,1.061,7.231,0.191,10.801,0.676c3.279,0.385,6.848-0.386,10.223-0.578
			c5.979-2.314,12.922-0.676,19.094-1.352c2.988,0,6.459-0.48,11.187,0.098c-1.832-3.857-5.111-4.533-7.328-5.785
			c-5.691-1.545-11.379-2.508-17.262-3.086c-1.158-0.193-2.604,0.289-3.666-0.388C1270.083,887.005,1263.718,885.173,1258.8,887.295
			z"/>
		<path style="fill:#FF0050;" d="M1240.093,869.357c1.444,0.193,2.41,1.641,4.049,1.641c3.086,1.543,5.979,2.314,9.74,2.507
			c0.58,0.29,1.543,0.386,2.219,0.58c2.121,0.19,4.049,1.155,6.076,1.155c1.252,0.387,2.988-0.289,4.146,1.255
			c1.541-0.388,2.699-0.771,3.664-1.255c0.385-0.77,1.445-1.735,1.351-2.797c0.674-1.061,0.096-1.928,0.577-3.278
			c0.578-1.831,0.578-2.894,1.543-4.819c0.482-0.388,0.966-0.773,1.543-0.677c0.386,0.965,0,2.121,0,3.278
			c-1.254,2.508-1.061,3.857-1.928,7.138c0.771,0.481,0.482,0.866,0.771,1.06c2.409,0.387,5.014,0.098,7.038-0.386
			c1.255,0.192,2.314-0.288,4.242-0.288c0.387-1.158,1.254-0.289,1.832-0.58c3.474-0.287,6.56-2.218,10.127-2.41
			c1.541-1.351,4.146-1.156,5.688-2.314c1.834,0.193,2.799-2.217,5.11-1.639c1.158-0.867,2.22-1.93,3.666-1.93
			c0.386,0.291,0.771,0.58,1.156,0.965c-0.191,1.446-1.832,1.543-2.893,2.313c-1.64,0.192-3.185,0.579-4.34,1.642
			c-2.121-0.099-3.375,1.734-5.4,1.639c-0.771,0.482-1.543,0.578-2.121,0.965c-0.771-0.098-1.447,0.191-2.025,0.482
			c-4.436,0-7.907,2.893-12.344,2.604c-0.578,0.385-1.639,0.385-2.217,0.48c-4.727,1.641-10.223,1.352-15.043,1.254
			c-2.219-0.578-4.92,0-6.848-0.963c-5.979-1.062-11.767-3.474-17.455-5.017c-2.699-1.062-5.207-2.698-7.715-4.05
			c-2.795-1.542-6.074-2.604-8.101-5.398c0-0.193,0-0.482,0.193-0.578C1230.739,864.73,1235.271,867.236,1240.093,869.357z"/>
		<path style="fill:#FF0050;" d="M1296.505,842.357c-3.472,2.508-7.906,2.121-11.088,4.822c-1.257,0.385-2.605,1.061-3.666,1.735
			c-2.988-0.097-6.076,1.832-10.125,3.665c2.604,1.061,4.53,0.771,5.883,0.385c5.688,0,10.703-0.965,16.682-0.098
			c1.641,0,3.666-0.48,5.111,0.193c2.797,0.098,6.076-0.676,8.485,0.676c0.097,0.096,0.097,0.096,0.193,0.193
			c-2.025,0.577-4.629,0.385-6.654,0.289c-1.735-0.482-3.567,0.191-5.496,0.191c-3.762,0.097-7.715-1.254-11.09,0.386
			c-3.086,0.388-5.979-1.062-8.969,0c-2.699,0.867-5.4-0.481-7.908,0.771c-4.629-0.771-10.606,0.097-15.621-0.771
			c-5.688,0-11.477,0.388-17.067-0.577c-3.086-0.098-4.34-0.676-7.232-1.255c-0.098,0,0.48-0.675,0.48-0.866
			c3.088-1.834,4.146-2.412,7.426-3.666c4.533-1.832,9.354-1.445,13.887-2.699c6.365,0.097,12.633,0.963,17.262,7.039
			c8.486-5.11,17.552-5.689,25.748-10.125c3.664-1.156,7.039-2.99,10.703-4.146c0.578,0,1.543-0.387,2.219-0.193
			C1302.677,840.044,1299.591,841.395,1296.505,842.357z M1242.214,848.725c-1.254,0.385-2.797-0.099-3.953,0.674
			c-1.545-0.192-2.99,0.676-4.244,1.156l-2.314,1.641c0.867,0.097,4.244,0.387,5.207,0.578c1.254,1.254,3.474,0.676,5.017,1.061
			c7.135-0.964,15.139,0.193,23.723-0.191c-1.254-1.543-2.508-1.93-3.182-2.604c-1.353-1.35-5.111-2.797-7.619-3.857
			C1250.507,847.759,1245.878,846.794,1242.214,848.725z"/>
		<path style="fill:#FF0050;" d="M1298.915,831.074c0,0.482-0.674,0.771-1.059,0.869c-1.447,0.963-3.473,0.096-5.016,0.867
			c-0.482,0-0.867-0.193-1.158-0.481c0-0.481,0.193-0.677,0.387-0.868c1.353-0.387,2.699-2.604,4.34-0.964
			C1297.663,830.4,1298.241,830.689,1298.915,831.074z"/>
	</g>
	<path style="fill:none;stroke:#17192D;stroke-width:3;" d="M2048,0"/>
	<path style="fill:none;stroke:#17192D;stroke-width:3;" d="M2048,1536"/>
	<path style="fill:none;stroke:#17192D;stroke-width:3;" d="M0,1536"/>
	<path style="fill:none;stroke:#17192D;stroke-width:3;" d="M0,0"/>
</g>
<g id="Layer_1">
</g>
</svg>
