<svg xmlns="http://www.w3.org/2000/svg" width="2048" height="1536" viewBox="0 0 2048 1536"><g><g fill="#17192D"><path d="M933.805 767.105c-.963 2.12-3.28 2.314-4.918 3.47-2.217 1.158-4.63 2.314-7.135 2.604-.676.386-1.64.48-2.412.577-6.46 1.158-12.73 3.762-19.48 3.955-4.628.965-9.74.482-14.755.385-4.146 0-9.45-1.156-13.596-2.988-2.026-.483-4.243-1.255-5.69-2.51-2.12-.577-3.762-2.12-5.594-3.278-.385-.673-.867-1.35-.867-2.025 0-.096-.097-.19-.097-.19 1.928.48 3.76 1.926 5.688 3.084 1.546.868 2.413 2.026 4.052 2.41 2.797.58 5.016 2.51 7.908 2.315 5.303 1.35 11.09 1.254 17.455.867-.965-2.217.674-3.084-.098-4.436.098-.578.193-.963.387-1.35.29-.29.48-.578.867-.29l.483.483c-.193.577.19.962.48 1.253-.29 1.254 0 2.506-.19 4.05 4.724.48 7.905-.868 11.763-1.062 1.64-.77 4.146-.964 6.172-1.542 1.832-.578 4.05-.578 5.787-1.64 1.447.194 3.086-.288 4.242-1.735 2.508.096 4.438-1.736 7.328-2.314v-.483c.482-.19 1.447-1.254 2.605-.867-.096.483-.192.868-.385 1.255zM933.324 754.183c.29.096.48.193.674.387-.867 2.217-3.473.963-5.496 1.543-1.736.29-3.375 0-5.11.096-4.726.095-9.452-.097-13.983 0-2.413 0-5.595.192-8.103-.097-1.64-.193-3.664 0-5.303.096-3.955.384-7.715 0-11.86.288-.194-.193-.388-.193-.58-.193-1.735.867-3.665.098-5.304.387-3.953.193-7.715.578-11.572.578-2.7-1.156-5.496.578-8.293-.098-.387-.096.578-1.156.87-1.156 4.24-2.893 9.16 1.156 13.884-.19 5.593-1.546 11.86-.966 17.358-1.255 5.496-.29 10.703.192 16.297 0 1.54-.192 3.086-.192 4.725-.192.385 0 .867.096 1.254.096 4.242-.096 8.486-.096 12.246-.676 2.892.772 5.304.29 8.294.385zM870.352 726.796c1.062 0 2.604-.096 3.762-.19 2.797-1.737 7.135 0 10.414.384 2.025-1.158 5.4-.482 7.52-.676 3.087-.77 7.138.193 10.706.193 6.268 0 13.5-.193 19.768-.482.965-.096 1.93-.674 2.8-.29.095.097.19-.095.288-.095-2.22 1.445-4.92 1.543-7.137 2.506-3.184 2.797-6.848 4.244-10.223 6.365-4.05 1.833-8.197 3.183-11.86 5.98-1.157.58-2.218 1.254-3.376 1.832l-2.795 1.352 3.18.19c7.522.483 14.562-1.35 22.276-.288 3.086 0 5.98-1.254 8.97-.674.77-.098 1.733 0 2.41 0-.097.19 0 .578-.097.674-.772 0-1.448.193-2.122.676-.773.385-1.736.385-2.605.578-2.604.29-5.207-.096-7.81.482-7.04.193-13.888-.676-20.733.096-3.182-.578-6.365 1.062-9.45.193-2.026.483-4.63-.577-6.173.58-4.63-.483-9.16-1.253-13.982-1.253-1.06-.387-2.7 0-3.182-1.158-.098-.097.578-1.062.578-.58 5.208-1.35 9.646 1.737 15.622 1.062 3.086-.387 6.27 0 9.55-.965.962-1.35 2.41-1.254 3.47-2.12 1.928-.29 3.857-.772 5.11-2.122 4.92-2.412 9.933-3.28 13.888-6.848 1.156-.482 2.312-1.06 3.566-2.12 0-.29 2.797-1.544 2.797-1.833-.096-.193-2.988.482-2.988.096-3.762 0-7.232-.674-10.223.387-5.4-1.35-10.994-1.447-16.78-.193-4.145-.482-8.39-1.06-12.438-.29-3.375-1.446-7.137 1.544-10.223-1.157-.288-.867-1.83-.578-1.735-1.64 3.278-.578 6.075 1.254 9.257 1.35zM867.652 709.248c1.445.193 2.41 1.64 4.05 1.64 3.087 1.542 5.98 2.313 9.74 2.507.58.29 1.542.385 2.218.578 2.12.193 4.05 1.156 6.076 1.156 1.252.386 2.988-.29 4.146 1.253 1.54-.385 2.7-.77 3.664-1.254.385-.772 1.445-1.735 1.35-2.798.674-1.06.096-1.928.578-3.277.578-1.832.578-2.893 1.543-4.822.482-.387.965-.77 1.543-.676.387.965 0 2.123 0 3.28-1.254 2.507-1.06 3.856-1.928 7.136.77.482.482.867.77 1.06 2.41.386 5.015.097 7.04-.386 1.254.193 2.314-.29 4.242-.29.387-1.155 1.254-.288 1.834-.577 3.47-.29 6.557-2.22 10.125-2.41 1.543-1.35 4.146-1.158 5.69-2.314 1.83.193 2.796-2.22 5.108-1.64 1.16-.868 2.22-1.93 3.667-1.93.385.29.77.58 1.156.966-.19 1.445-1.832 1.543-2.893 2.314-1.64.193-3.182.578-4.34 1.64-2.12-.097-3.375 1.735-5.4 1.638-.77.482-1.543.58-2.12.965-.772-.097-1.448.192-2.026.48-4.436 0-7.908 2.894-12.344 2.605-.578.387-1.64.387-2.217.482-4.727 1.64-10.223 1.35-15.043 1.254-2.22-.577-4.92 0-6.848-.964-5.98-1.06-11.764-3.47-17.455-5.016-2.7-1.06-5.207-2.7-7.715-4.05-2.795-1.542-6.074-2.603-8.1-5.4 0-.192 0-.48.193-.577 4.344 2.796 8.875 5.302 13.697 7.425zM936.506 665.273c-7.62 3.377-14.176 7.812-20.83 12.248-.578.29-.77 1.062-2.025 1.062-3.085 3.086-6.942 3.375-9.74 6.172-2.505 1.254-5.302 2.7-8.194 4.918.385.29 1.06.578 1.35.77 2.025.966 4.05.194 5.883.29 5.784.193 11.09-.77 16.198-.867 4.918 0 9.45-1.156 13.79-.676.097.192.097.48.097.866-.29 2.22-2.797.676-3.857 1.062-4.63.578-8.678.674-13.693.867-6.172.385-12.246.098-18.418.77-4.146.388-7.908 0-11.86.868-6.558-.77-13.212 2.604-19.77 1.254-1.544 0-3.087.77-4.726.387-.675-.482-3.76.096-2.218-1.352 5.016-.77 10.223 0 15.334-.674 7.715-.29 15.912-.77 21.6-5.69.965-.288 1.736-.964 2.412-1.446 2.41-1.447 5.014-2.506 7.04-4.63 2.024-.673 3.856-1.83 5.497-2.987 2.893-2.893 6.75-3.955 9.932-6.172 0-.387.29-.29.482-.387.866-.385 1.542-1.156 2.603-1.928 0-.387 2.797-.965 2.7-1.254-.097-.29-3.278-.193-3.57-.385-4.435.962-9.93 1.35-15.042 1.83-5.495.48-9.16 1.544-14.368 1.64-1.832-.387-4.436 1.447-6.268-.096-2.025 0-3.182-.098-4.82.482-1.447 0-2.895-.193-4.63-.193-.386-.098-.772.29-1.157.29-1.64 1.06-2.508-1.448-3.762-.29-.578.193-1.156.676-1.734-.193-3.085.87-5.497.387-8.1-1.06-.868.384-1.157-.1-1.544-.388v-.29c.29-.673.87.29.87.194 0 0 .577.482 1.157-.096.385-.58 1.252.674 1.445.385 3.28.77 7.137.578 10.8.096 3.376.58 8.487-.384 11.67.29.675-.096 1.542-.674 2.7-.29 1.06-.962 2.506-.095 3.277-.673 4.05-.29 8.39-.965 12.537-.965 3.953-.385 8.293-.77 11.475-1.254.676.193 1.447-.385 2.12.098 1.642-.387 2.317-.387 3.57-.58 2.507-.482 5.688-.867 7.907-1.35.385 0 .867-.29 1.445-.963-.483-.87.58-.482.675-.482.87-.386 2.314.386 3.762-.097 0 .292.095.583 0 .87zM879.996 603.076c3.857.096 7.52.675 11.38 1.06 3.856.386 8.003.194 11.763.386.386 0 .675.482 1.06.482 2.7.193 5.305.482 7.908.29 7.328.675 14.27.58 21.408 1.543.676.48 0 .868.29 1.542-1.062.48-1.35.578-2.605.675-4.435-.867-7.81 2.894-12.15 2.218-3.278.964-6.847.772-10.222 1.736-3.182 2.7-8.293.577-14.85 2.603 4.822 2.024 7.04 1.93 9.064 2.313 3.473.773 6.56.773 10.03 1.352 3.18.48 6.75 1.542 9.74 1.542 1.35.29 2.603.58 4.145.675.29.387.963.29 1.445.387 1.736-.29 3.762-.387 5.498-.482.19.096.29.192.385.29-.963 1.35-3.182.577-4.436 1.253-5.015 2.024-10.897 2.604-16.876 3.086-5.113.384-10.223.77-14.947 1.542-4.34.482-8.775 2.025-13.213 2.025-.578.385-1.734.29-2.312.385-8.004 1.93-16.877 1.543-25.46 1.93-1.157-.387-5.4 1.64-4.145-.772.674-.097 1.156-.675 1.832-.964 9.257-1.06 18.61.578 27.964-1.543 4.436.29 8.293-1.543 12.344-2.22.867-.095 1.736.194 2.604 0 6.557-1.06 14.37-1.927 21.12-3.085l4.05-.675c-3.473-.868-10.318-1.735-13.02-2.7-6.46 0-11.86-2.217-18.227-2.893-2.988-.29-5.592-.867-7.81-1.06-.097-.193-1.062.385-1.253 0 1.156-1.062 2.795-.193 3.857-1.255 1.638-.29 3.374-.482 5.204-.77 2.7-.483 5.498-1.062 8.197-1.35 1.737-.193 3.57 0 5.112-.193 2.12-.29 2.893-.868 4.918-1.158 1.543-.192 2.22-.097 3.762-.288.482-.098.674-.387 1.156-.387 3.086-.483 6.56-.387 9.45-1.544l3.76-1.446c-3.856-.58-12.052-.29-15.718-.675-7.424-.868-15.91-.676-23.336-1.06-.482-.29-1.254-.194-1.928-.966-7.62-.388-13.887-2.7-21.506-1.93-2.312-.77-4.53.386-6.75-.192-1.35-.387-2.7 0-3.953-.77-.193-.194-.676-.29-.87-.483 5.017-2.22 10.9-.193 16.106 0 3.572.094 6.85.77 10.033 1.54zM933.805 582.054c-.963 2.12-3.28 2.314-4.918 3.472-2.217 1.156-4.63 2.314-7.135 2.604-.676.385-1.64.482-2.412.578-6.46 1.157-12.73 3.762-19.48 3.954-4.628.964-9.74.482-14.755.386-4.146 0-9.45-1.157-13.596-2.99-2.026-.48-4.243-1.253-5.69-2.507-2.12-.578-3.762-2.12-5.594-3.277-.385-.676-.867-1.35-.867-2.025 0-.097-.097-.192-.097-.192 1.928.48 3.76 1.93 5.688 3.085 1.546.87 2.413 2.026 4.052 2.412 2.797.58 5.016 2.508 7.908 2.314 5.303 1.35 11.09 1.253 17.455.868-.965-2.22.674-3.086-.098-4.436.098-.58.193-.965.387-1.35.29-.29.48-.58.867-.29.194.193.29.29.483.48-.193.58.19.966.48 1.255-.29 1.254 0 2.508-.19 4.05 4.724.483 7.905-.867 11.763-1.06 1.64-.77 4.146-.965 6.172-1.543 1.832-.58 4.05-.58 5.787-1.64 1.447.192 3.086-.29 4.242-1.735 2.508.096 4.438-1.736 7.328-2.315v-.48c.482-.194 1.447-1.255 2.605-.87-.096.48-.192.868-.385 1.254zM924.064 560.55c-3.47 2.507-7.906 2.12-11.088 4.82-1.256.387-2.604 1.062-3.666 1.737-2.988-.097-6.074 1.832-10.125 3.664 2.604 1.062 4.53.772 5.883.388 5.69 0 10.703-.965 16.684-.098 1.64 0 3.664-.482 5.11.193 2.796.096 6.075-.676 8.485.675l.193.193c-2.025.58-4.63.386-6.654.29-1.736-.482-3.566.192-5.496.192-3.762.097-7.715-1.254-11.09.386-3.086.386-5.98-1.06-8.97 0-2.698.868-5.4-.482-7.907.77-4.627-.77-10.607.098-15.62-.77-5.69 0-11.478.386-17.07-.578-3.085-.097-4.34-.675-7.23-1.253-.097 0 .48-.676.48-.87 3.087-1.83 4.147-2.41 7.427-3.663 4.53-1.832 9.352-1.446 13.885-2.7 6.365.097 12.633.964 17.262 7.04 8.486-5.11 17.55-5.69 25.748-10.126 3.664-1.157 7.04-2.99 10.703-4.146.578 0 1.543-.386 2.22-.193-2.992 1.734-6.078 3.086-9.164 4.05zm-54.29 6.364c-1.255.387-2.798-.096-3.954.676-1.543-.193-2.99.675-4.244 1.156l-2.312 1.64c.867.097 4.242.386 5.205.58 1.253 1.252 3.472.674 5.015 1.06 7.135-.965 15.14.192 23.723-.193-1.254-1.543-2.508-1.93-3.182-2.604-1.352-1.35-5.11-2.798-7.62-3.858-4.34.577-8.968-.387-12.633 1.542zM851.066 530.848c.193 1.64.867 2.797 1.156 4.532-.578 2.604-.096 4.92.867 8.1 1.35-.674 2.315-.48 2.796-.288 1.832-.193 4.146.29 5.98.193 1.735-.387 3.856-.58 5.593-.58 2.7-1.35 6.075-1.734 8.774-2.312 1.543.385 3.375 0 4.822.19 6.557 0 13.31-1.638 19.48-2.505 1.157.096 2.892-.193 3.952.096.193-.096.676-.096.773-.193 4.82-.19 8.68-.288 13.5-.288 2.22 0 4.147.387 6.173.482h-.096c-2.508 1.832-5.98 1.157-8.68 1.736-3.955-.965-8.102 1.06-12.344-.58-2.508 2.605-5.496.58-8.1 1.447-2.412-.29-5.305-.193-7.33 1.06-.965-.095-1.832.29-3.182-.19-2.313 1.35-5.206.674-7.618.674-3.953-.867-7.135 1.737-10.896 1.255-2.7 1.35-5.785 1.157-8.87 1.157-.966-1.06-2.51-.097-4.44-2.22-.673 4.244-.288 6.752-.48 9.355.48 2.025-.288 4.243 0 6.46-.097.097-.097.194-.192.29-.77-.096-.965-.964-1.254-1.542.578-1.93.482-3.857 0-5.786-.385-.483 0-1.35.098-2.315-1.062-1.446-.193-3.568-.965-4.918.482-1.544-.193-3.183-.098-4.726-.867-1.542.29-3.568-.578-5.11 0-1.35-1.832-2.7-.29-3.76.097-.097.29-.193.483-.29.386.096.87.193.966.578zM922.908 479.45c.867 2.024.29 4.628.674 6.268-.19 2.99.482 5.69.965 8.582-.096.58-.385 1.254-.867 1.64-2.025-.482-4.146-.386-5.98-.578-1.83.674-3.952-.193-6.075-.87-3.664.388-7.52-.288-10.896-.577-4.147.482-7.91-.29-11.958-.675-3.666.58-7.232-.58-10.705-1.64-.674-.867-.965-.77-1.35-.096-5.4-.482-10.22-2.314-15.236-4.147-3.374-1.253-2.698-1.06-6.46-2.507-.482 1.543 0 2.797-.193 3.568-.19 1.06-.19 2.12 0 3.182-.19 2.025.098 4.533.87 6.558-.1.097-.1.192-.194.29-.676-.098-1.06-.87-1.35-1.544-.387-1.253 0-2.218-.87-3.183-.192-1.542.097-2.892-.192-4.627.772-2.218-.962-5.304 1.835-5.69 1.734 1.35 3.47 1.543 5.496 2.315 1.157.48 2.702.868 4.147 1.253 8.1 2.123 15.62 4.534 24.012 5.112 3.567-.77 7.327.868 11.09.482 4.145 0 8.1.29 12.632 1.156 1.64.29 3.375-.096 5.496.868 2.025-2.41 5.4 1.062 5.11-3.182-.577-2.894-.77-6.27-.77-9.065.096-1.06-.29-2.41.385-3.084.096 0 .192.097.385.193zM883.082 446.084c2.7.482 4.918.965 7.81.58 5.015 2.12 10.802-.87 15.526 2.603 2.604.58 5.883.675 8.293 1.93 4.052 1.35 8.294 1.928 11.767 4.724 1.445 1.93 2.508 3.665 3.568 5.69-.193 1.93-.098 4.147-1.832 5.015-3.666 1.446-7.523 2.122-11.09 3.954-7.715.192-14.852 2.988-22.084 1.734-3.474.772-6.85-.096-10.32.482-5.978-.386-11.476-2.797-17.26-3.857-1.255-1.06-6.173-1.93-2.22-3.472 2.605-.482 4.244 1.446 6.56 2.024 1.35.29 2.603 1.833 4.145 1.833 5.883 1.06 10.994 2.12 17.357 1.35 5.498 1.35 11.477 0 16.973-1.157 5.207-.387 9.932-1.832 14.754-3.183 2.313-1.06 1.446-2.99 2.507-5.497-1.254-.867-.867-2.7-1.736-3.47-1.542-1.737-4.628-2.605-6.556-3.763-3.184-.48-6.365 0-8.68-1.832-2.604-.482-5.594.193-7.617-1.832-8.68-1.446-17.455-.77-25.555-2.796-4.727-.48-8.68-.675-12.537-3.086.193-.578 1.158-.29 1.543-.482 5.98-.385 10.8 2.99 16.684 2.508zM928.887 387.742c-1.156.868-2.7 1.447-3.857 2.412-4.725 1.35-9.836 2.603-14.947 2.603-3.664.58-7.424 1.35-10.992 2.22-1.93-.195-4.145-.58-6.364-.098-.29.77-.29 1.06-1.447 1.35 1.06 2.796 3.278 4.724 4.34 6.75.577.29 1.157 1.06.964 1.735-.387 1.157.193 1.157.867 1.832.87 0 1.642.097 2.413.482 2.025-.677 3.566-.677 5.207-.1 1.832 1.063 3.375.29 5.4 0 3.857-.577 7.52-1.444 11.475-1.638 3.086-.096 6.172-.096 9.45-.096.29.096.58.192.483.482 0 .288-.387.578-.676.674-4.822.29-9.45.482-13.693 1.832-3.183-.096-5.788.87-8.776.58-7.135-.676-14.658 0-21.408.867-2.99-.675-5.303.58-8.197.387-7.522-.58-15.333-.58-21.987-2.797-.965-.29-.482-1.06-.965-1.735.098-.29.58 0 .77-.097 2.317.482 4.34 1.542 6.655 1.446.098.096.098.096.193.193 3.953-.193 7.62 1.06 11.09.867 2.604 1.447 5.496-.386 8.293.097 3.567.58 6.558-.674 10.028-1.156.482-.386 1.158-.77 1.832-1.543-1.156-3.085-4.725-5.014-5.11-7.52.48 0-.675-.77-.192-2.314-2.99-.867-5.402.29-7.62-.77-1.83-.483-3.663.48-5.593-.58-2.604 1.254-4.918.097-7.426.29-1.446-1.254-2.024 1.253-3.76.097-1.64.482-3.858.77-5.208 0 .096-.386.096-.676 0-1.062 1.445-.866 3.47.29 4.918-.866 2.12-.193 3.664.965 5.785.578 6.172-1.157 13.02.193 19.287-.193 4.34-.193 9.064.48 13.21-.965 6.56-1.062 13.405-1.93 19.577-3.183 1.542-.964 3.374-2.024 5.304-1.928.288.29.577.482.673.868zM929.756 356.498c.77.386 1.54 0 2.41.192.676 0 1.158.193 1.736.58.096.48-.482.866-.77 1.35-.677.867-1.448-.483-1.642-.483-.193-.385-1.156.482-2.12-.964-1.93.58-3.665.58-5.015.193-2.7.29-5.69-.482-8.295.578-1.06.097-1.64 1.35-2.12 1.93-.097 0-.48 1.156-1.35 1.542-1.255 1.158-3.087 2.99-3.665 3.472-.482.482 0-.58-.87.386-.48.386-.288.578-.962 1.64-.867 1.06-2.605 2.893-2.99 3.374-.578 1.158-1.156 2.508-1.832 4.05 2.026 1.352 4.052.966 5.4 1.834 1.737.096 3.858.48 5.69.964 1.06-.868 1.832.193 2.604.193 1.06.577 2.7.48 3.953 1.06 2.412.386 4.533 1.832 7.232 1.35.964.193 2.122.578 3.085.868-.096.192-.19.386-.385.386-1.64.29-3.086-.58-4.53-.482-.388-.29-.677-.386-1.063-.29-.77-.096-1.543-.288-2.217-.288-1.543-.482-2.605.385-5.11-1.254 0 1.446.192.578.192.578-1.447-.386-3.473-.964-5.402-.867-1.156-.77-2.602-.48-3.76-.77-2.7-.29-4.533-1.35-7.137-1.158 0 0-.096-.096-.19-.096-.772-.482-1.642-.192-2.122-.675-5.884-1.64-11.86-3.278-17.745-4.918-1.348-.675-2.506-.964-3.953-1.543-1.928-.676-3.76-1.832-5.785-2.605-2.025-.77-3.953-2.024-6.268-2.7-.58-.288-1.544.193-1.544-.77 0-.29-.29-.965-.096-1.06.674-1.063 2.602-1.063 3.566-1.545 2.314-.192 5.594-.675 8.39-1.253 1.062-1.254 2.7-.29 3.954-.77 4.725.192 9.643-2.22 15.043-1.544 6.848-1.06 14.465-1.64 20.926-1.06 4.918.383 9.838-.1 14.756.575zm-29.22 1.64c-1.255-.482-3.183.675-5.112.288-2.314-.385-4.82.387-7.135.773-2.22-.388-3.956.963-6.173.77-1.447.193-3.857.193-5.787.578-3.182.58-6.074 1.446-9.738 1.735 1.445 1.64 4.05 2.797 4.436 2.894 2.025.675 3.664 1.833 5.496 2.41 2.797.965 5.207 1.93 7.81 2.7 1.835.482 4.245 1.062 5.886 1.352 1.83-.1 4.436 1.54 6.94 1.927 1.448.193.772.868 2.798.29.77-1.833 1.93-3.087 2.604-4.726.867-1.156 1.35-1.253 2.604-2.603.87-.868 1.736-2.22 2.7-3.472.868-.964 2.026-2.025 2.604-2.7 0-.192 1.156-1.447 1.156-2.22-1.35-.288-2.893-.288-3.762-.384-2.602-.384-4.628.002-7.33.387zM929.37 333.16c1.735 2.025 2.892 4.05 4.628 6.462.29 2.314 1.928 2.314 1.543 4.147-1.542 2.12-2.41 1.06-4.243 1.155-5.977-.77-13.018.482-18.803.868-5.21-.386-8.102.386-15.236.578-1.834.773-4.438.29-6.46 0-2.124.87-5.692.483-8.005-.19-7.715.964-14.08.19-21.602.577-.58-.096-1.446.387-1.06-.29 0-.096.096-.48.096-.578.193-.193.29-.482.482-.87-.098-.673-.193.29.29.29.866-1.06 1.253-2.988 2.7-2.988.77-1.06 1.54-1.64 2.41-1.928 1.736-1.64 2.7-3.088 5.016-3.088 3.953-3.182 8.967-2.796 13.498-2.796 4.533 1.544 8.295 3.954 12.152 8.968 1.64-1.832 1.543-4.34 2.604-4.82.674-1.64 1.928-2.99 3.47-4.63 3.087-2.12 5.788-2.507 9.065-3.76 3.762-2.604 7.81 1.253 11.572-.193 1.93.386 3.665 2.41 5.884 3.086zm-56.897 4.822c-2.12 2.797-4.05 1.254-5.785 5.11-.29.194-.578.386-1.06.097-3.665 1.64.288 1.83 1.83 1.93 3.185-1.063 4.726.19 7.91.096 3.278-1.062 7.038.385 10.51-.58 1.062-.288 1.833-.096 2.796-.096 2.123-.482 3.568.48 7.81 0-2.987-2.508-3.663-3.182-5.206-4.243-2.217-.965-4.242-2.508-6.268-3.664-4.34-.965-8.87-.194-12.537 1.35zm31.535-2.796c-2.604 2.508-3.568 4.244-6.076 9.45 2.7 0 4.05-.866 5.207-.48 4.82-2.026 9.257.866 14.272-.386 3.182-1.158 6.557 0 9.836-1.158 1.156.578 4.63.578 5.496.193.098-.193-.867-1.158-.578-2.41-1.35-1.93-2.604-4.052-3.664-6.365-2.123-.193-3.375-.58-4.822-1.447-3.086-.578-6.46-2.313-9.836-1.156-3.375 1.155-6.655 2.12-9.836 3.76zM933.805 311.463c-.963 2.123-3.28 2.315-4.918 3.473-2.217 1.158-4.63 2.314-7.135 2.604-.676.386-1.64.482-2.412.58-6.46 1.156-12.73 3.76-19.48 3.952-4.628.964-9.74.482-14.755.386-4.146 0-9.45-1.157-13.596-2.988-2.026-.482-4.243-1.255-5.69-2.508-2.12-.58-3.762-2.122-5.594-3.28-.385-.674-.867-1.35-.867-2.024 0-.096-.097-.193-.097-.193 1.928.482 3.76 1.93 5.688 3.087 1.546.868 2.413 2.025 4.052 2.41 2.797.58 5.016 2.51 7.908 2.315 5.303 1.35 11.09 1.254 17.455.867-.965-2.218.674-3.085-.098-4.436.098-.578.193-.965.387-1.35.29-.29.48-.58.867-.29l.483.482c-.193.58.19.964.48 1.253-.29 1.255 0 2.508-.19 4.05 4.724.483 7.905-.866 11.763-1.06 1.64-.77 4.146-.965 6.172-1.543 1.832-.578 4.05-.578 5.787-1.64 1.447.192 3.086-.29 4.242-1.735 2.508.096 4.438-1.736 7.328-2.314v-.48c.482-.194 1.447-1.254 2.605-.87-.096.482-.192.868-.385 1.253zM870.352 283.498c1.062 0 2.604-.096 3.762-.19 2.797-1.737 7.135 0 10.414.384 2.025-1.157 5.4-.48 7.52-.675 3.087-.77 7.138.193 10.706.193 6.268 0 13.5-.193 19.768-.482.965-.097 1.93-.676 2.8-.29.095.097.19-.096.288-.096-2.22 1.447-4.92 1.543-7.137 2.508-3.184 2.796-6.848 4.242-10.223 6.363-4.05 1.833-8.197 3.184-11.86 5.98-1.157.578-2.218 1.252-3.376 1.832l-2.795 1.35 3.18.192c7.522.482 14.562-1.35 22.276-.29 3.086 0 5.98-1.252 8.97-.674.77-.096 1.733 0 2.41 0-.097.193 0 .578-.097.675-.772 0-1.448.193-2.122.675-.773.386-1.736.386-2.605.578-2.604.29-5.207-.095-7.81.483-7.04.193-13.888-.675-20.733.097-3.182-.58-6.365 1.062-9.45.192-2.026.482-4.63-.578-6.173.58-4.63-.482-9.16-1.254-13.982-1.254-1.06-.387-2.7 0-3.182-1.157-.098-.096.578-1.06.578-.578 5.208-1.35 9.646 1.736 15.622 1.06 3.086-.385 6.27 0 9.55-.963.962-1.352 2.41-1.255 3.47-2.123 1.928-.29 3.857-.77 5.11-2.12 4.92-2.412 9.933-3.28 13.888-6.848 1.156-.483 2.312-1.063 3.566-2.123 0-.29 2.797-1.543 2.797-1.832-.096-.192-2.988.482-2.988.097-3.762 0-7.232-.675-10.223.386-5.4-1.35-10.994-1.447-16.78-.193-4.145-.48-8.39-1.06-12.438-.29-3.375-1.446-7.137 1.544-10.223-1.155-.288-.87-1.83-.58-1.735-1.64 3.278-.58 6.075 1.252 9.257 1.348zM921.463 238.176c3.76.965 6.46 4.146 10.22 5.304.58 1.062 1.833 1.64 2.41 2.7-.866.29-1.83-.578-2.603-.964-.674-.675-1.35-1.06-2.314-1.157-2.12-1.544-5.014-2.22-7.232-3.955-1.64-.578-4.05-.77-5.883-1.64-3.276-.192-6.556-.192-9.737.387-3.086.578-6.076 1.832-8.486 3.953-3.182 1.543-6.848 2.7-10.318 3.472-5.4 2.7-12.247 2.41-17.84.192-3.28 0-5.112-2.797-8.103-3.183-.867-.676-1.64-1.35-2.7-1.736-.577-.48-.288-1.252-.77-1.928 0-.192-.387.097-.193.194 1.352.096 2.797.674 3.953 1.252 5.11 3.954 11.96 4.147 18.13 5.498 4.34-.193 7.907-2.22 12.054-3.184 2.606-1.64 5.884-2.218 8.487-3.856 1.93-.192 3.473-2.41 5.498-1.93 4.34-1.542 9.45-1.542 13.596 0 .577.29 1.157.484 1.833.58zM940.94 215.9c1.255 1.06 0 .964-.192 1.35-5.4 4.726-12.922 3.762-18.707 7.522-4.145 1.543-8.58 2.12-12.632 3.085-3.182.098-6.076 1.447-9.066.87-.963.77-2.41 0-3.47.384-6.944 0-10.897-1.35-16.298-2.505-1.832.192-3.762-.387-5.207-1.64-2.508.288-4.533-.483-6.365-1.447-4.436-1.64-8.87-3.375-12.055-6.46 0 .096-.578-.194-.29-.387.772-.48 1.642.387 2.413.772 4.53.386 7.426 3.664 11.475 4.63 1.832.964 3.857.964 5.594 1.64 7.425 1.928 12.34 3.566 20.153 3.663.096 0 .29-.675.29.097 6.653-.386 12.343-1.93 18.417-2.604 6.172-1.93 12.344-4.147 18.516-6.076 1.64-1.06 3.568-1.93 5.69-2.7.577 0 1.64-1.06 1.93-.674.094 0 .77 0-.195.483zM928.887 185.524c-1.156.868-2.7 1.446-3.857 2.41-4.725 1.35-9.836 2.605-14.947 2.605-3.664.577-7.424 1.35-10.992 2.217-1.93-.192-4.145-.578-6.364-.097-.29.77-.29 1.06-1.447 1.35 1.06 2.797 3.278 4.726 4.34 6.75.577.29 1.157 1.063.964 1.736-.387 1.158.193 1.158.867 1.833.87 0 1.642.095 2.413.48 2.025-.675 3.566-.675 5.207-.096 1.832 1.06 3.375.29 5.4 0 3.857-.58 7.52-1.447 11.475-1.64 3.086-.097 6.172-.097 9.45-.097.29.097.58.193.483.482 0 .288-.387.577-.676.674-4.822.29-9.45.482-13.693 1.833-3.183-.098-5.788.867-8.776.578-7.135-.676-14.658 0-21.408.867-2.99-.674-5.303.58-8.197.387-7.522-.58-15.333-.58-21.987-2.798-.965-.29-.482-1.06-.965-1.736.098-.29.58 0 .77-.096 2.317.482 4.34 1.543 6.655 1.446l.193.192c3.953-.192 7.62 1.06 11.09.868 2.604 1.446 5.496-.386 8.293.097 3.567.578 6.558-.675 10.028-1.157.482-.386 1.158-.77 1.832-1.543-1.156-3.086-4.725-5.015-5.11-7.52.48 0-.675-.773-.192-2.315-2.99-.868-5.402.29-7.62-.772-1.83-.48-3.663.482-5.593-.578-2.604 1.254-4.918.097-7.426.29-1.446-1.255-2.024 1.253-3.76.096-1.64.482-3.858.77-5.208 0 .096-.386.096-.675 0-1.06 1.445-.87 3.47.288 4.918-.87 2.12-.192 3.664.966 5.785.58 6.172-1.157 13.02.192 19.287-.192 4.34-.193 9.064.482 13.21-.965 6.56-1.06 13.405-1.93 19.577-3.183 1.542-.964 3.374-2.024 5.304-1.93.288.292.577.485.673.87zM867.652 169.227c1.445.193 2.41 1.64 4.05 1.64 3.087 1.544 5.98 2.314 9.74 2.508.58.29 1.542.386 2.218.578 2.12.193 4.05 1.157 6.076 1.157 1.252.386 2.988-.29 4.146 1.254 1.54-.386 2.7-.77 3.664-1.254.385-.77 1.445-1.735 1.35-2.797.674-1.06.096-1.928.578-3.278.578-1.833.578-2.893 1.543-4.82.482-.388.965-.772 1.543-.677.387.965 0 2.122 0 3.28-1.254 2.506-1.06 3.856-1.928 7.135.77.482.482.868.77 1.062 2.41.385 5.015.096 7.04-.387 1.254.193 2.314-.29 4.242-.29.387-1.156 1.254-.288 1.834-.577 3.47-.29 6.557-2.218 10.125-2.41 1.543-1.35 4.146-1.157 5.69-2.314 1.83.192 2.796-2.218 5.108-1.64 1.16-.867 2.22-1.93 3.667-1.93.385.29.77.58 1.156.966-.19 1.446-1.832 1.543-2.893 2.313-1.64.193-3.182.58-4.34 1.64-2.12-.096-3.375 1.736-5.4 1.64-.77.482-1.543.578-2.12.965-.772-.097-1.448.192-2.026.48-4.436 0-7.908 2.895-12.344 2.605-.578.385-1.64.385-2.217.482-4.727 1.64-10.223 1.35-15.043 1.253-2.22-.578-4.92 0-6.848-.964-5.98-1.06-11.764-3.472-17.455-5.016-2.7-1.06-5.207-2.7-7.715-4.05-2.795-1.543-6.074-2.604-8.1-5.4 0-.192 0-.48.193-.578 4.344 2.796 8.875 5.303 13.697 7.425zM933.324 150.81c.29.096.48.192.674.386-.867 2.217-3.473.964-5.496 1.542-1.736.29-3.375 0-5.11.097-4.726.097-9.452-.097-13.983 0-2.413 0-5.595.193-8.103-.097-1.64-.192-3.664 0-5.303.097-3.955.386-7.715 0-11.86.29-.194-.193-.388-.193-.58-.193-1.735.868-3.665.097-5.304.386-3.953.193-7.715.578-11.572.578-2.7-1.157-5.496.58-8.293-.096-.387-.097.578-1.157.87-1.157 4.24-2.894 9.16 1.157 13.884-.193 5.593-1.543 11.86-.964 17.358-1.253 5.496-.29 10.703.192 16.297 0 1.54-.193 3.086-.193 4.725-.193.385 0 .867.097 1.254.097 4.242-.096 8.486-.096 12.246-.674 2.892.77 5.304.287 8.294.383zM936.506 112.91c-7.62 3.376-14.176 7.813-20.83 12.248-.578.29-.77 1.06-2.025 1.06-3.085 3.087-6.942 3.376-9.74 6.173-2.505 1.255-5.302 2.702-8.194 4.92.385.288 1.06.58 1.35.77 2.025.965 4.05.193 5.883.29 5.784.192 11.09-.772 16.198-.868 4.918 0 9.45-1.157 13.79-.676.097.193.097.482.097.868-.29 2.218-2.797.676-3.857 1.062-4.63.578-8.678.674-13.693.867-6.172.386-12.246.097-18.418.77-4.146.388-7.908 0-11.86.87-6.558-.772-13.212 2.603-19.77 1.253-1.544 0-3.087.77-4.726.386-.675-.482-3.76.096-2.218-1.35 5.016-.772 10.223 0 15.334-.676 7.715-.29 15.912-.77 21.6-5.69.965-.288 1.736-.964 2.412-1.446 2.41-1.446 5.014-2.506 7.04-4.628 2.024-.675 3.856-1.832 5.497-2.99 2.893-2.892 6.75-3.953 9.932-6.17 0-.387.29-.29.482-.387.866-.386 1.542-1.157 2.603-1.93 0-.385 2.797-.963 2.7-1.253-.097-.29-3.278-.192-3.57-.386-4.435.965-9.93 1.35-15.042 1.833-5.495.48-9.16 1.542-14.368 1.638-1.832-.385-4.436 1.446-6.268-.096-2.025 0-3.182-.098-4.82.48-1.447 0-2.895-.19-4.63-.19-.386-.098-.772.288-1.157.288-1.64 1.06-2.508-1.447-3.762-.29-.578.193-1.156.676-1.734-.192-3.085.868-5.497.386-8.1-1.06-.868.385-1.157-.098-1.544-.386v-.29c.29-.675.87.29.87.192 0 0 .577.482 1.157-.096.385-.58 1.252.674 1.445.385 3.28.77 7.137.58 10.8.097 3.376.58 8.487-.386 11.67.29.675-.098 1.542-.676 2.7-.29 1.06-.964 2.506-.097 3.277-.675 4.05-.29 8.39-.964 12.537-.964 3.953-.386 8.293-.77 11.475-1.254.676.194 1.447-.385 2.12.098 1.642-.386 2.317-.386 3.57-.58 2.507-.48 5.688-.867 7.907-1.35.385 0 .867-.29 1.445-.964-.483-.867.58-.482.675-.482.87-.385 2.314.386 3.762-.097 0 .293.095.582 0 .87zM851.066 85.622c.193 1.64.867 2.796 1.156 4.532-.578 2.604-.096 4.918.867 8.1 1.35-.674 2.315-.48 2.796-.288 1.832-.193 4.146.288 5.98.192 1.735-.386 3.856-.578 5.593-.578 2.7-1.35 6.075-1.736 8.774-2.314 1.543.385 3.375 0 4.822.192 6.557 0 13.31-1.64 19.48-2.507 1.157.097 2.892-.192 3.952.097.193-.096.676-.096.773-.192 4.82-.192 8.68-.29 13.5-.29 2.22 0 4.147.387 6.173.482h-.096c-2.508 1.832-5.98 1.158-8.68 1.736-3.955-.965-8.102 1.06-12.344-.578-2.508 2.603-5.496.578-8.1 1.445-2.412-.29-5.305-.192-7.33 1.062-.965-.097-1.832.29-3.182-.192-2.313 1.35-5.206.674-7.618.674-3.953-.867-7.135 1.736-10.896 1.255-2.7 1.348-5.785 1.155-8.87 1.155-.966-1.06-2.51-.097-4.44-2.218-.673 4.243-.288 6.75-.48 9.354.48 2.025-.288 4.244 0 6.46-.097.1-.097.194-.192.29-.77-.096-.965-.963-1.254-1.543.578-1.928.482-3.855 0-5.785-.385-.48 0-1.35.098-2.314-1.062-1.446-.193-3.568-.965-4.918.482-1.543-.193-3.182-.098-4.725-.867-1.543.29-3.568-.578-5.11 0-1.352-1.832-2.7-.29-3.762.097-.097.29-.193.483-.29.386.097.87.193.966.58zM930.334 78.486c.096.097.19 0 .19.097-1.733.385-3.47-.29-5.013.385-1.06.675-2.41 1.254-3.76.58-.097-.677-.386-1.447-.192-2.315.193-.387.482.096.77-.193 2.895-.868 5.594.097 8.006 1.446z"/></g><path d="M2048 0M2048 1536M0 1536M0 0" fill="none" stroke="#17192D" stroke-width="3"/></g></svg>