<?xml version="1.0" encoding="iso-8859-1"?>
<!-- Generator: Adobe Illustrator 15.1.0, SVG Export Plug-In . SVG Version: 6.00 Build 0)  -->
<!DOCTYPE svg PUBLIC "-//W3C//DTD SVG 1.1//EN" "http://www.w3.org/Graphics/SVG/1.1/DTD/svg11.dtd">
<svg version="1.1" xmlns="http://www.w3.org/2000/svg" xmlns:xlink="http://www.w3.org/1999/xlink" x="0px" y="0px" width="2048px"
	 height="1536px" viewBox="0 0 2048 1536" style="enable-background:new 0 0 2048 1536;" xml:space="preserve">
<g id="dtxta_x5F_3">
	<g>
		<path style="fill:#17192D;" d="M1055.238,912.784c1.736,2.025,2.895,4.051,4.629,6.463c0.291,2.312,1.93,2.312,1.545,4.146
			c-1.545,2.121-2.412,1.061-4.244,1.156c-5.979-0.771-13.02,0.482-18.805,0.867c-5.207-0.385-8.1,0.387-15.237,0.58
			c-1.832,0.771-4.436,0.289-6.461,0c-2.121,0.867-5.689,0.482-8.004-0.193c-7.715,0.965-14.078,0.193-21.6,0.578
			c-0.58-0.096-1.447,0.387-1.062-0.289c0-0.096,0.098-0.482,0.098-0.578c0.191-0.193,0.289-0.482,0.482-0.869
			c-0.098-0.674-0.193,0.289,0.289,0.289c0.867-1.059,1.252-2.988,2.699-2.988c0.771-1.061,1.543-1.639,2.41-1.928
			c1.736-1.641,2.701-3.088,5.016-3.088c3.953-3.182,8.969-2.795,13.5-2.795c4.533,1.543,8.293,3.953,12.15,8.969
			c1.639-1.834,1.543-4.34,2.604-4.822c0.676-1.641,1.93-2.99,3.473-4.629c3.086-2.121,5.785-2.508,9.064-3.762
			c3.762-2.604,7.811,1.254,11.572-0.193C1051.285,910.085,1053.021,912.11,1055.238,912.784z M998.343,917.606
			c-2.121,2.797-4.051,1.254-5.785,5.111c-0.291,0.193-0.58,0.387-1.061,0.096c-3.666,1.641,0.289,1.832,1.83,1.93
			c3.184-1.061,4.727,0.191,7.908,0.096c3.279-1.061,7.039,0.387,10.512-0.578c1.061-0.289,1.832-0.096,2.797-0.096
			c2.121-0.482,3.568,0.48,7.811,0c-2.99-2.508-3.664-3.184-5.207-4.244c-2.219-0.965-4.244-2.508-6.268-3.664
			C1006.541,915.292,1002.007,916.063,998.343,917.606z M1029.879,914.81c-2.605,2.508-3.568,4.244-6.077,9.451
			c2.7,0,4.049-0.867,5.208-0.482c4.822-2.025,9.258,0.867,14.271-0.385c3.184-1.158,6.559,0,9.838-1.158
			c1.156,0.578,4.627,0.578,5.496,0.193c0.096-0.193-0.869-1.158-0.58-2.41c-1.35-1.93-2.604-4.051-3.664-6.365
			c-2.121-0.193-3.375-0.578-4.82-1.447c-3.086-0.578-6.463-2.314-9.838-1.156C1036.338,912.206,1033.061,913.171,1029.879,914.81z"
			/>
		<path style="fill:#17192D;" d="M1059.676,891.089c-0.965,2.121-3.279,2.314-4.918,3.471c-2.219,1.158-4.629,2.314-7.137,2.604
			c-0.676,0.387-1.639,0.482-2.41,0.58c-6.461,1.156-12.73,3.76-19.48,3.953c-4.629,0.965-9.741,0.482-14.754,0.385
			c-4.146,0-9.451-1.156-13.598-2.988c-2.023-0.482-4.242-1.254-5.689-2.508c-2.121-0.578-3.76-2.121-5.592-3.279
			c-0.387-0.674-0.869-1.35-0.869-2.023c0-0.098-0.096-0.193-0.096-0.193c1.93,0.482,3.76,1.928,5.689,3.086
			c1.543,0.867,2.41,2.023,4.051,2.41c2.795,0.578,5.014,2.508,7.906,2.314c5.305,1.35,11.09,1.254,17.455,0.867
			c-0.965-2.217,0.674-3.086-0.098-4.436c0.098-0.578,0.193-0.965,0.387-1.35c0.289-0.289,0.482-0.578,0.867-0.289
			c0.193,0.193,0.291,0.289,0.482,0.482c-0.191,0.578,0.193,0.965,0.482,1.254c-0.289,1.252,0,2.506-0.191,4.049
			c4.725,0.482,7.907-0.867,11.764-1.061c1.639-0.771,4.146-0.965,6.172-1.543c1.832-0.578,4.049-0.578,5.785-1.639
			c1.447,0.193,3.086-0.289,4.244-1.736c2.508,0.096,4.436-1.736,7.328-2.314c0-0.771,0-0.482,0-0.482
			c0.482-0.193,1.447-1.254,2.604-0.867C1059.965,890.317,1059.867,890.702,1059.676,891.089z"/>
		<path style="fill:#17192D;" d="M1054.758,859.941c-1.158,0.868-2.701,1.446-3.857,2.411c-4.727,1.351-9.836,2.604-14.947,2.604
			c-3.666,0.578-7.426,1.351-10.995,2.218c-1.928-0.192-4.146-0.578-6.363-0.096c-0.289,0.771-0.289,1.061-1.447,1.35
			c1.061,2.797,3.277,4.726,4.34,6.749c0.578,0.289,1.156,1.062,0.965,1.736c-0.387,1.158,0.191,1.158,0.867,1.832
			c0.867,0,1.639,0.098,2.411,0.482c2.025-0.674,3.568-0.674,5.207-0.096c1.832,1.061,3.377,0.289,5.4,0
			c3.857-0.578,7.521-1.447,11.477-1.639c3.086-0.098,6.172-0.098,9.451-0.098c0.289,0.098,0.578,0.193,0.48,0.482
			c0,0.289-0.385,0.578-0.674,0.676c-4.822,0.289-9.451,0.48-13.695,1.832c-3.182-0.098-5.785,0.867-8.773,0.578
			c-7.137-0.676-14.659,0-21.409,0.867c-2.99-0.674-5.305,0.58-8.197,0.387c-7.521-0.578-15.334-0.578-21.986-2.797
			c-0.965-0.289-0.482-1.061-0.965-1.736c0.096-0.289,0.578,0,0.771-0.096c2.314,0.482,4.34,1.543,6.654,1.445
			c0.096,0.098,0.096,0.098,0.191,0.193c3.955-0.193,7.619,1.061,11.09,0.869c2.605,1.445,5.498-0.387,8.293,0.096
			c3.568,0.578,6.559-0.676,10.029-1.158c0.482-0.385,1.158-0.77,1.832-1.541c-1.156-3.086-4.725-5.015-5.109-7.522
			c0.48,0-0.676-0.771-0.193-2.314c-2.99-0.867-5.4,0.289-7.619-0.771c-1.832-0.481-3.664,0.482-5.592-0.578
			c-2.604,1.254-4.918,0.097-7.426,0.289c-1.447-1.253-2.025,1.254-3.76,0.097c-1.641,0.481-3.857,0.771-5.209,0
			c0.098-0.386,0.098-0.676,0-1.061c1.447-0.868,3.473,0.289,4.92-0.868c2.119-0.193,3.664,0.964,5.785,0.579
			c6.172-1.157,13.018,0.191,19.285-0.193c4.34-0.193,9.067,0.482,13.213-0.964c6.557-1.062,13.404-1.929,19.576-3.183
			c1.541-0.964,3.375-2.025,5.303-1.929C1054.371,859.363,1054.66,859.557,1054.758,859.941z"/>
		<path style="fill:#17192D;" d="M1057.457,826.769c0.098,0.482-0.385,1.062-0.578,1.446c-0.289,0.772-1.061,0.387-1.736,0.193
			c-0.482-0.578-1.156,0.289-2.314-0.771c-1.736,1.061-3.566,1.254-4.822,1.158c-2.602,0.674-7.23,0.771-9.643,2.024
			c-0.963,0.097-0.867,1.446-1.736,2.314c-0.191,0.097-0.096,1.061-0.867,1.639c-2.41,3.473-4.34,6.365-6.557,10.126
			c-0.289,1.446-0.771,2.893-0.771,4.436c1.832,0.868,5.303,0.193,6.75,0.772c1.736-0.098,3.857-0.098,5.689,0
			c0.867-1.062,1.832-0.193,2.604-0.387c1.254,0.387,2.797,0,4.049,0.387c2.316-0.193,4.92,0.771,7.426,0
			c0.965-0.193,2.412,0.096,3.375,0.192c-0.096,0.289-0.191,0.578-0.48,0.675c-1.543,0.579-3.184,0-4.725,0.289
			c-0.193-0.097-0.387-0.192-0.869,0c-0.676,0-1.447,0.097-2.121,0.193c-1.736-0.386-2.412,0.771-5.207-0.386c0,0,0,0.867,0,0.675
			c-1.352-0.289-3.568-0.386-5.402,0c-1.252-0.386-2.699,0.097-3.76,0c-2.604,0.29-5.207-0.579-7.521,0.29
			c-0.098,0-0.289-0.098-0.289-0.098c-0.387-0.481-1.061,0.098-1.832-0.385c-6.077-0.387-12.249-0.771-18.42-1.254
			c-1.445-0.579-2.893-1.254-4.242-0.771c-1.93-0.386-4.051-0.965-6.076-1.447c-2.023-0.481-4.146-1.253-6.652-1.446
			c-0.58-0.192-1.641,0.482-1.736-0.578c-0.098-0.386-0.771-0.868-0.193-1.157c0.578-1.446,2.219-1.543,3.182-2.121
			c2.123-0.579,5.305-1.736,7.715-2.797c0.965-1.446,2.605-0.965,3.762-1.543c4.918-0.675,9.16-4.147,14.658-4.437
			c6.363-2.41,13.885-4.242,20.444-5.014c4.725-0.482,10.125-1.64,14.562-2.314c0.578,0.193,1.445-0.289,2.408-0.193
			C1056.107,826.479,1056.783,826.576,1057.457,826.769z M986.289,850.106c0.291,0.385-0.578,0.675-0.965,0.771
			c-1.252,0.868-2.699-0.386-4.049,0.193c-0.387-0.097-0.578-0.193-0.867-0.386c-0.098-0.386,0.096-0.676,0.385-0.868
			c1.156-0.192,2.025-1.832,3.182-0.192C985.324,849.527,985.806,849.816,986.289,850.106z M1023.222,834.772
			c-3.76-0.482-7.039,1.64-10.318,2.701c-2.217-0.193-3.76,1.542-5.979,1.929c-3.76,1.253-8.967,1.639-12.053,5.593
			c1.252,0.867,1.639,1.156,1.928,1.35c4.629,1.929,9.74,1.64,14.562,1.929c1.832,0.097,4.049,0.868,5.785,0.868
			c3.182-1.062,4.533,1.735,8.198,0.289c0.289-2.121,1.445-3.664,1.832-5.4c2.121-2.989,3.279-6.942,6.268-10.318
			c-0.289-0.289-0.193-0.386-0.193-1.157C1029.299,832.362,1026.502,833.23,1023.222,834.772z M985.324,841.716
			c0.098,0.289-0.674,0.579-0.963,0.676c-1.254,0.868-2.121,0-3.375,0.578c-0.482,0-1.254,0.097-1.639-0.289
			c-0.098-0.289-0.098-0.482,0.191-0.676c1.35,0,1.928-2.41,3.473-0.867C984.167,841.041,984.843,841.331,985.324,841.716z"/>
		<path style="fill:#17192D;" d="M1054.275,804.88c-0.289,2.024,0.096,3.761,0.771,5.399c-0.098,0.482-0.482,0.965-0.771,1.061
			c-1.254,1.833,1.156,5.111-2.025,6.075c-1.061,0.29-2.219-0.192-3.086,0.579c-3.375,1.254-4.436,0.289-7.715,0.578
			c-2.893,0.193-6.365-1.253-9.162,0c-1.541,0-2.795-0.578-4.146-0.771c-3.665,1.35-7.811-0.676-11.668,0.289
			c-2.795,0.192-5.014-0.965-7.811,0.289c-0.578,0.097-1.061,0.097-1.543,0.289c-5.689,0-11.572-0.578-17.164,0.097
			c-2.797,0-5.498-0.097-8.006-1.446c-0.482-0.386,0.098-0.965,0.58-1.157c0.676,0,1.639-0.193,2.699,0.675
			c2.025-0.868,3.857,0.097,5.594-0.289c1.445,0.386,3.086,0.482,4.629,0.097c3.279-1.929,6.75,0.289,10.125,0.192
			c3.279-0.097,6.557-1.351,9.934-0.964c3.471,0.481,7.521,0.771,11.09,0.386c1.156-0.386,2.506,0.192,3.568-0.193
			c1.059,0.193,2.506,0.097,3.471,0.771c1.35-0.192,2.988-0.482,4.34-0.868c0.771,0.386,1.928,0.29,2.604,0.482
			c3.664,0.289,4.436,0.771,7.811-0.386c2.219,0.771,1.35-1.543,3.279-2.025c1.254-0.482,0.578-1.061,0.578-1.735
			c-0.289-1.543,1.254-2.7,0.578-4.05c-0.482-1.254-0.096-2.893-1.061-4.243c-0.096-0.387-0.096-0.868,0.387-0.868
			C1053.408,802.854,1053.6,804.107,1054.275,804.88z"/>
		<path style="fill:#17192D;" d="M976.935,776.432c0.193,1.64,0.867,2.797,1.158,4.532c-0.58,2.604-0.098,4.919,0.867,8.102
			c1.35-0.676,2.314-0.482,2.797-0.29c1.832-0.192,4.146,0.29,5.979,0.192c1.736-0.385,3.857-0.578,5.592-0.578
			c2.701-1.351,6.076-1.735,8.777-2.314c1.543,0.386,3.375,0,4.82,0.193c6.559,0,13.309-1.64,19.481-2.507
			c1.156,0.096,2.893-0.193,3.953,0.096c0.193-0.096,0.676-0.096,0.771-0.193c4.822-0.192,8.68-0.289,13.5-0.289
			c2.219,0,4.148,0.387,6.172,0.482h-0.096c-2.508,1.832-5.979,1.157-8.68,1.735c-3.953-0.964-8.1,1.062-12.342-0.578
			c-2.508,2.604-5.499,0.578-8.102,1.446c-2.41-0.289-5.305-0.192-7.328,1.061c-0.965-0.096-1.834,0.29-3.184-0.192
			c-2.314,1.35-5.207,0.675-7.617,0.675c-3.953-0.867-7.137,1.736-10.896,1.254c-2.701,1.35-5.787,1.157-8.873,1.157
			c-0.963-1.061-2.508-0.097-4.436-2.218c-0.674,4.242-0.289,6.75-0.482,9.354c0.482,2.025-0.289,4.243,0,6.461
			c-0.096,0.097-0.096,0.193-0.191,0.29c-0.773-0.097-0.965-0.965-1.256-1.544c0.58-1.929,0.482-3.857,0-5.786
			c-0.385-0.481,0-1.35,0.098-2.313c-1.061-1.446-0.193-3.568-0.965-4.918c0.482-1.543-0.191-3.183-0.096-4.726
			c-0.867-1.543,0.289-3.568-0.578-5.11c0-1.351-1.834-2.7-0.289-3.762c0.096-0.096,0.289-0.192,0.48-0.289
			C976.357,775.95,976.839,776.047,976.935,776.432z"/>
		<path style="fill:#17192D;" d="M1059.193,739.595c0.289,0.097,0.482,0.192,0.674,0.386c-0.867,2.218-3.471,0.965-5.496,1.543
			c-1.734,0.289-3.375,0-5.109,0.097c-4.727,0.096-9.451-0.097-13.984,0c-2.41,0-5.592,0.192-8.1-0.097
			c-1.639-0.193-3.665,0-5.305,0.097c-3.953,0.385-7.713,0-11.861,0.289c-0.191-0.193-0.385-0.193-0.578-0.193
			c-1.736,0.868-3.664,0.097-5.305,0.386c-3.953,0.193-7.715,0.579-11.57,0.579c-2.701-1.157-5.496,0.578-8.295-0.097
			c-0.385-0.097,0.58-1.157,0.869-1.157c4.242-2.893,9.16,1.157,13.887-0.192c5.592-1.543,11.861-0.965,17.357-1.254
			s10.704,0.192,16.297,0c1.543-0.193,3.086-0.193,4.727-0.193c0.385,0,0.867,0.097,1.252,0.097
			c4.244-0.097,8.486-0.097,12.248-0.675C1053.793,739.981,1056.203,739.499,1059.193,739.595z"/>
		<path style="fill:#17192D;" d="M1054.758,709.027c-1.158,0.867-2.701,1.446-3.857,2.41c-4.727,1.351-9.836,2.604-14.947,2.604
			c-3.666,0.579-7.426,1.351-10.995,2.219c-1.928-0.193-4.146-0.579-6.363-0.097c-0.289,0.771-0.289,1.061-1.447,1.35
			c1.061,2.797,3.277,4.726,4.34,6.751c0.578,0.289,1.156,1.061,0.965,1.735c-0.387,1.157,0.191,1.157,0.867,1.832
			c0.867,0,1.639,0.097,2.411,0.482c2.025-0.675,3.568-0.675,5.207-0.097c1.832,1.061,3.377,0.29,5.4,0
			c3.857-0.578,7.521-1.446,11.477-1.639c3.086-0.097,6.172-0.097,9.451-0.097c0.289,0.097,0.578,0.192,0.48,0.481
			c0,0.29-0.385,0.579-0.674,0.676c-4.822,0.289-9.451,0.482-13.695,1.832c-3.182-0.097-5.785,0.868-8.773,0.579
			c-7.137-0.676-14.659,0-21.409,0.867c-2.99-0.675-5.305,0.579-8.197,0.386c-7.521-0.578-15.334-0.578-21.986-2.796
			c-0.965-0.29-0.482-1.062-0.965-1.736c0.096-0.289,0.578,0,0.771-0.097c2.314,0.482,4.34,1.543,6.654,1.447
			c0.096,0.096,0.096,0.096,0.191,0.192c3.955-0.192,7.619,1.061,11.09,0.868c2.605,1.446,5.498-0.386,8.293,0.096
			c3.568,0.579,6.559-0.675,10.029-1.156c0.482-0.387,1.158-0.772,1.832-1.543c-1.156-3.087-4.725-5.016-5.109-7.522
			c0.48,0-0.676-0.771-0.193-2.314c-2.99-0.868-5.4,0.29-7.619-0.771c-1.832-0.482-3.664,0.482-5.592-0.578
			c-2.604,1.254-4.918,0.096-7.426,0.289c-1.447-1.254-2.025,1.254-3.76,0.097c-1.641,0.482-3.857,0.771-5.209,0
			c0.098-0.386,0.098-0.675,0-1.061c1.447-0.868,3.473,0.289,4.92-0.868c2.119-0.193,3.664,0.965,5.785,0.578
			c6.172-1.157,13.018,0.193,19.285-0.192c4.34-0.193,9.067,0.482,13.213-0.965c6.557-1.061,13.404-1.929,19.576-3.182
			c1.541-0.965,3.375-2.025,5.303-1.929C1054.371,708.448,1054.66,708.641,1054.758,709.027z"/>
		<path style="fill:#17192D;" d="M996.222,681.736c1.061,0,2.604-0.097,3.76-0.192c2.797-1.736,7.137,0,10.416,0.386
			c2.023-1.158,5.4-0.482,7.521-0.676c3.086-0.771,7.137,0.193,10.704,0.193c6.27,0,13.502-0.193,19.77-0.482
			c0.965-0.097,1.928-0.675,2.797-0.29c0.096,0.097,0.191-0.096,0.289-0.096c-2.217,1.446-4.918,1.543-7.137,2.507
			c-3.182,2.797-6.846,4.243-10.221,6.365c-4.051,1.832-8.197,3.182-11.862,5.979c-1.158,0.579-2.219,1.254-3.375,1.832
			l-2.797,1.351l3.182,0.192c7.522,0.482,14.563-1.35,22.278-0.289c3.084,0,5.977-1.254,8.967-0.675c0.771-0.097,1.736,0,2.412,0
			c-0.098,0.192,0,0.578-0.098,0.675c-0.771,0-1.447,0.192-2.121,0.675c-0.771,0.386-1.736,0.386-2.604,0.579
			c-2.604,0.289-5.207-0.097-7.811,0.481c-7.041,0.193-13.887-0.675-20.735,0.097c-3.182-0.578-6.363,1.062-9.449,0.193
			c-2.025,0.482-4.629-0.579-6.172,0.578c-4.629-0.482-9.162-1.254-13.982-1.254c-1.062-0.385-2.701,0-3.184-1.157
			c-0.096-0.096,0.58-1.061,0.58-0.578c5.207-1.351,9.643,1.735,15.621,1.061c3.086-0.386,6.268,0,9.547-0.964
			c0.965-1.351,2.41-1.254,3.471-2.122c1.93-0.289,3.857-0.771,5.111-2.121c4.92-2.411,9.934-3.279,13.887-6.847
			c1.156-0.482,2.314-1.061,3.568-2.122c0-0.289,2.797-1.543,2.797-1.832c-0.096-0.192-2.99,0.482-2.99,0.097
			c-3.76,0-7.232-0.675-10.223,0.386c-5.399-1.351-10.993-1.446-16.778-0.193c-4.146-0.481-8.391-1.061-12.439-0.289
			c-3.377-1.446-7.137,1.543-10.223-1.157c-0.291-0.868-1.832-0.578-1.736-1.64C990.244,679.807,993.039,681.639,996.222,681.736z"
			/>
		<path style="fill:#17192D;" d="M1056.203,671.803c0.098,0.097,0.193,0,0.193,0.097c-1.736,0.386-3.471-0.289-5.016,0.386
			c-1.061,0.676-2.41,1.254-3.76,0.579c-0.098-0.676-0.387-1.446-0.193-2.314c0.193-0.387,0.482,0.096,0.771-0.193
			C1051.092,669.489,1053.793,670.454,1056.203,671.803z"/>
		<path style="fill:#17192D;" d="M1014.929,607c6.461,2.314,13.309,1.64,19.481,4.243c6.365,2.7,13.307,3.857,19.865,5.979
			c0.193,0.193,0.482,0.482,0.674,0.772c-2.121,0.867-4.918-0.868-7.426-0.579c-7.617-0.579-14.754,1.929-22.758,2.989l-0.385,1.736
			c8.68,1.735,16.008,5.399,24.012,6.942c0.289,0.193,0.771,0.29,1.061,0.482c1.736,0.097,3.857-1.061,5.111-0.097
			c-0.096,0.676-0.771,0.965-1.445,1.157c-1.545-0.192-2.701,0.868-4.148,1.254c-8.582-0.386-16.201,1.446-24.879,2.025
			c-10.705,0.771-21.312,1.543-31.438,1.446c-5.303,0.771-9.354,0.964-13.5,0.482c-0.387-0.193-1.158,0-1.543-0.097
			c0.289-0.192,0.578-0.482,0.867-0.771c3.182-0.675,5.979-0.675,9.354-0.964c14.658-1.158,30.764,0.096,45.807-2.411
			c2.699-0.482,5.4-0.29,8.293-0.579c1.928-0.675,1.061-2.604-0.385-2.218c-6.27-3.086-13.887-3.568-20.157-5.883
			c-1.156-0.385-2.988-0.096-3.471-1.253c0.193-0.386,0.578-0.579,0.965-0.771c6.557-2.122,13.694-2.893,23.53-5.4
			c-6.076-2.218-9.645-2.604-12.439-4.243c-7.042,0-11.862-2.893-18.903-2.893c-5.4-2.025-11.764-1.157-17.164-3.472
			c-4.436-0.097-8.102-1.062-13.309-1.929c-0.096,0-0.385,0-0.482-0.097c0.098-0.192,0.193-0.386,0.291-0.675
			c0.77,0,1.252-0.386,1.639-0.579C992.943,602.468,1003.937,605.554,1014.929,607z"/>
		<path style="fill:#17192D;" d="M1059.676,583.857c-0.965,2.121-3.279,2.314-4.918,3.472c-2.219,1.157-4.629,2.314-7.137,2.604
			c-0.676,0.386-1.639,0.482-2.41,0.578c-6.461,1.157-12.73,3.762-19.48,3.954c-4.629,0.965-9.741,0.482-14.754,0.386
			c-4.146,0-9.451-1.157-13.598-2.989c-2.023-0.482-4.242-1.254-5.689-2.507c-2.121-0.579-3.76-2.122-5.592-3.279
			c-0.387-0.675-0.869-1.35-0.869-2.025c0-0.096-0.096-0.192-0.096-0.192c1.93,0.481,3.76,1.929,5.689,3.086
			c1.543,0.867,2.41,2.025,4.051,2.411c2.795,0.578,5.014,2.507,7.906,2.313c5.305,1.351,11.09,1.254,17.455,0.868
			c-0.965-2.218,0.674-3.086-0.098-4.436c0.098-0.579,0.193-0.964,0.387-1.351c0.289-0.289,0.482-0.578,0.867-0.289
			c0.193,0.193,0.291,0.289,0.482,0.482c-0.191,0.578,0.193,0.964,0.482,1.253c-0.289,1.254,0,2.508-0.191,4.051
			c4.725,0.482,7.907-0.868,11.764-1.061c1.639-0.771,4.146-0.965,6.172-1.543c1.832-0.579,4.049-0.579,5.785-1.64
			c1.447,0.192,3.086-0.289,4.244-1.736c2.508,0.097,4.436-1.735,7.328-2.313c0-0.771,0-0.482,0-0.482
			c0.482-0.192,1.447-1.254,2.604-0.868C1059.965,583.085,1059.867,583.471,1059.676,583.857z"/>
		<path style="fill:#17192D;" d="M1062.375,545.381c-7.617,3.375-14.176,7.811-20.828,12.246c-0.58,0.29-0.771,1.062-2.027,1.062
			c-3.084,3.086-6.941,3.375-9.738,6.171c-2.508,1.255-5.305,2.701-8.198,4.919c0.387,0.289,1.061,0.578,1.35,0.771
			c2.025,0.964,4.051,0.193,5.883,0.289c5.787,0.193,11.09-0.771,16.201-0.868c4.918,0,9.451-1.156,13.789-0.675
			c0.098,0.192,0.098,0.482,0.098,0.868c-0.289,2.218-2.797,0.675-3.857,1.061c-4.629,0.578-8.68,0.675-13.693,0.868
			c-6.172,0.386-12.248,0.097-18.42,0.771c-4.146,0.387-7.906,0-11.861,0.869c-6.557-0.771-13.211,2.604-19.768,1.253
			c-1.543,0-3.086,0.771-4.725,0.386c-0.676-0.481-3.762,0.097-2.219-1.35c5.014-0.771,10.223,0,15.332-0.676
			c7.715-0.289,15.912-0.771,21.602-5.689c0.965-0.289,1.736-0.964,2.41-1.446c2.413-1.446,5.016-2.507,7.042-4.628
			c2.023-0.676,3.857-1.833,5.496-2.99c2.893-2.893,6.75-3.954,9.932-6.172c0-0.386,0.291-0.289,0.482-0.386
			c0.867-0.385,1.543-1.156,2.605-1.929c0-0.385,2.795-0.964,2.699-1.254c-0.098-0.289-3.279-0.192-3.568-0.385
			c-4.436,0.965-9.932,1.35-15.043,1.832c-5.498,0.481-9.163,1.543-14.37,1.64c-1.832-0.387-4.436,1.446-6.268-0.097
			c-2.025,0-3.184-0.097-4.822,0.482c-1.445,0-2.893-0.193-4.629-0.193c-0.385-0.097-0.771,0.289-1.156,0.289
			c-1.641,1.061-2.508-1.446-3.762-0.289c-0.578,0.193-1.158,0.676-1.736-0.192c-3.086,0.868-5.496,0.386-8.1-1.061
			c-0.867,0.385-1.156-0.098-1.543-0.387c0-0.096,0-0.192,0-0.289c0.289-0.675,0.867,0.289,0.867,0.193c0,0,0.578,0.482,1.158-0.097
			c0.385-0.578,1.254,0.675,1.447,0.386c3.277,0.771,7.135,0.578,10.799,0.096c3.375,0.58,8.486-0.385,11.668,0.29
			c0.676-0.097,1.545-0.675,2.701-0.29c1.061-0.964,2.508-0.096,3.279-0.675c4.049-0.289,8.389-0.964,12.536-0.964
			c3.953-0.386,8.293-0.771,11.477-1.254c0.674,0.193,1.445-0.385,2.121,0.097c1.639-0.386,2.314-0.386,3.568-0.579
			c2.506-0.481,5.689-0.867,7.906-1.35c0.387,0,0.869-0.29,1.447-0.964c-0.482-0.868,0.578-0.482,0.676-0.482
			c0.867-0.386,2.314,0.386,3.76-0.097C1062.375,544.802,1062.471,545.092,1062.375,545.381z"/>
		<path style="fill:#17192D;" d="M996.222,518.477c1.061,0,2.604-0.097,3.76-0.192c2.797-1.736,7.137,0,10.416,0.386
			c2.023-1.157,5.4-0.482,7.521-0.676c3.086-0.771,7.137,0.193,10.704,0.193c6.27,0,13.502-0.193,19.77-0.481
			c0.965-0.098,1.928-0.676,2.797-0.29c0.096,0.097,0.191-0.097,0.289-0.097c-2.217,1.447-4.918,1.543-7.137,2.507
			c-3.182,2.797-6.846,4.244-10.221,6.365c-4.051,1.832-8.197,3.183-11.862,5.979c-1.158,0.579-2.219,1.254-3.375,1.832
			l-2.797,1.351l3.182,0.192c7.522,0.482,14.563-1.35,22.278-0.289c3.084,0,5.977-1.254,8.967-0.675c0.771-0.097,1.736,0,2.412,0
			c-0.098,0.192,0,0.579-0.098,0.675c-0.771,0-1.447,0.192-2.121,0.675c-0.771,0.387-1.736,0.387-2.604,0.579
			c-2.604,0.289-5.207-0.097-7.811,0.482c-7.041,0.192-13.887-0.675-20.735,0.097c-3.182-0.579-6.363,1.061-9.449,0.192
			c-2.025,0.482-4.629-0.579-6.172,0.578c-4.629-0.482-9.162-1.253-13.982-1.253c-1.062-0.386-2.701,0-3.184-1.158
			c-0.096-0.096,0.58-1.06,0.58-0.578c5.207-1.351,9.643,1.736,15.621,1.061c3.086-0.386,6.268,0,9.547-0.964
			c0.965-1.351,2.41-1.253,3.471-2.121c1.93-0.29,3.857-0.771,5.111-2.122c4.92-2.411,9.934-3.278,13.887-6.847
			c1.156-0.482,2.314-1.061,3.568-2.122c0-0.289,2.797-1.542,2.797-1.832c-0.096-0.192-2.99,0.482-2.99,0.097
			c-3.76,0-7.232-0.675-10.223,0.386c-5.399-1.35-10.993-1.446-16.778-0.192c-4.146-0.482-8.391-1.061-12.439-0.29
			c-3.377-1.446-7.137,1.543-10.223-1.156c-0.291-0.869-1.832-0.579-1.736-1.64C990.244,516.548,993.039,518.38,996.222,518.477z"/>
		<path style="fill:#17192D;" d="M1059.676,472.19c-0.965,2.121-3.279,2.314-4.918,3.472c-2.219,1.157-4.629,2.313-7.137,2.604
			c-0.676,0.386-1.639,0.482-2.41,0.578c-6.461,1.157-12.73,3.762-19.48,3.954c-4.629,0.964-9.741,0.482-14.754,0.386
			c-4.146,0-9.451-1.157-13.598-2.989c-2.023-0.482-4.242-1.254-5.689-2.508c-2.121-0.578-3.76-2.121-5.592-3.278
			c-0.387-0.675-0.869-1.35-0.869-2.025c0-0.097-0.096-0.192-0.096-0.192c1.93,0.481,3.76,1.928,5.689,3.086
			c1.543,0.867,2.41,2.025,4.051,2.41c2.795,0.579,5.014,2.508,7.906,2.314c5.305,1.351,11.09,1.254,17.455,0.868
			c-0.965-2.218,0.674-3.086-0.098-4.436c0.098-0.579,0.193-0.965,0.387-1.351c0.289-0.289,0.482-0.578,0.867-0.289
			c0.193,0.193,0.291,0.289,0.482,0.482c-0.191,0.578,0.193,0.964,0.482,1.253c-0.289,1.254,0,2.508-0.191,4.051
			c4.725,0.482,7.907-0.868,11.764-1.061c1.639-0.771,4.146-0.965,6.172-1.544c1.832-0.578,4.049-0.578,5.785-1.639
			c1.447,0.192,3.086-0.289,4.244-1.736c2.508,0.097,4.436-1.735,7.328-2.314c0-0.771,0-0.481,0-0.481
			c0.482-0.193,1.447-1.254,2.604-0.868C1059.965,471.418,1059.867,471.804,1059.676,472.19z"/>
		<path style="fill:#17192D;" d="M1047.332,453.579c3.76,0.965,6.461,4.147,10.223,5.304c0.578,1.062,1.83,1.64,2.41,2.701
			c-0.869,0.289-1.832-0.579-2.604-0.965c-0.676-0.675-1.352-1.061-2.314-1.157c-2.121-1.543-5.016-2.218-7.232-3.954
			c-1.641-0.578-4.051-0.771-5.883-1.639c-3.279-0.193-6.559-0.193-9.74,0.386c-3.086,0.578-6.074,1.832-8.487,3.953
			c-3.182,1.543-6.846,2.7-10.318,3.472c-5.4,2.7-12.246,2.411-17.84,0.193c-3.279,0-5.109-2.797-8.1-3.183
			c-0.867-0.675-1.641-1.35-2.701-1.736c-0.578-0.481-0.289-1.253-0.771-1.929c0-0.192-0.385,0.097-0.191,0.193
			c1.35,0.097,2.797,0.675,3.953,1.254c5.111,3.953,11.957,4.146,18.129,5.497c4.34-0.193,7.908-2.219,12.055-3.184
			c2.604-1.639,5.883-2.217,8.487-3.856c1.928-0.193,3.473-2.411,5.496-1.929c4.34-1.543,9.451-1.543,13.598,0
			C1046.078,453.29,1046.656,453.483,1047.332,453.579z"/>
		<path style="fill:#17192D;" d="M1061.314,401.794c1.254,0.482,2.121-0.192,3.086,0c-0.289,0.676-0.771,1.254-0.771,2.025
			c-0.387,1.061-1.736,1.254-2.506,2.025c-0.773,0.193-0.869,1.253-1.738,1.832c-2.023,1.254-3.857,2.604-5.881,4.051
			c-3.953,0.964-7.521,3.664-12.15,4.146c-3.568,1.64-8.197,1.543-12.15,1.64c-2.412,1.928-6.27,0.192-9.163,1.253
			c-1.445,0.192-2.314-0.386-3.471-0.386c-3.955,1.061-7.523-0.481-11.188-1.061c-2.604-1.157-5.4-1.446-7.906-2.797
			c-0.771-0.578-1.93-0.386-2.701-0.675c-3.086-2.024-6.654-3.278-9.451-5.497c-1.35-0.289-1.734-1.928-3.084-2.218
			c-0.482-0.675-1.447-1.254-0.869-2.7c-0.867-0.675-1.639-2.025,0-1.735c0.387-0.29,0.578-0.097,0.096,0.289
			c3.184,3.857,8.391,7.426,13.502,10.126c1.928,0,3.857,1.061,5.014,2.024c3.955,1.061,7.619,2.507,11.67,2.507
			c1.445,0,2.893,0.29,4.146-0.096c2.508,0.289,4.82,0.965,7.424,0.289c2.508-0.193,5.016-0.482,7.426-0.964
			c7.715-1.543,16.105-1.929,22.471-6.172c2.312-1.543,3.953-2.894,5.977-5.207c-0.289-0.482,1.254-0.386,0.965-1.062
			c-5.979,0.289-13.404,0.482-18.803,0.868c-2.412,1.061-5.209-0.192-7.812,0.193c-2.314,0.289-4.725-0.29-7.135-0.193
			c-1.158,0-2.219-0.192-3.28,0.193c-1.736-0.29-3.955,0.192-5.4-0.772c-0.676-0.578,0.867-0.482,1.061-0.867
			c1.543-0.579,3.086-0.771,4.822-0.097c1.35,0.192,2.7-0.675,3.954-0.675c3.568,0,6.654,0.964,9.064,0.675c0-0.289,1.158,0,2.121,0
			c0.676-0.192,1.35-0.192,1.736-0.097c2.121,0,3.471-0.386,5.4-0.096c3.473-0.868,7.811,0,10.607-0.772
			c0.869-0.192,0.771-0.096,1.639-0.192C1059.482,401.602,1060.158,401.12,1061.314,401.794z"/>
		<path style="fill:#17192D;" d="M1059.676,382.702c-0.965,2.122-3.279,2.315-4.918,3.472c-2.219,1.157-4.629,2.314-7.137,2.604
			c-0.676,0.386-1.639,0.481-2.41,0.578c-6.461,1.157-12.73,3.761-19.48,3.954c-4.629,0.964-9.741,0.481-14.754,0.385
			c-4.146,0-9.451-1.156-13.598-2.988c-2.023-0.482-4.242-1.254-5.689-2.508c-2.121-0.579-3.76-2.122-5.592-3.278
			c-0.387-0.676-0.869-1.351-0.869-2.025c0-0.097-0.096-0.193-0.096-0.193c1.93,0.482,3.76,1.929,5.689,3.086
			c1.543,0.868,2.41,2.025,4.051,2.411c2.795,0.579,5.014,2.508,7.906,2.314c5.305,1.35,11.09,1.253,17.455,0.868
			c-0.965-2.218,0.674-3.086-0.098-4.436c0.098-0.579,0.193-0.965,0.387-1.351c0.289-0.289,0.482-0.578,0.867-0.289
			c0.193,0.192,0.291,0.289,0.482,0.481c-0.191,0.579,0.193,0.965,0.482,1.254c-0.289,1.254,0,2.507-0.191,4.051
			c4.725,0.481,7.907-0.868,11.764-1.062c1.639-0.771,4.146-0.964,6.172-1.543c1.832-0.578,4.049-0.578,5.785-1.639
			c1.447,0.192,3.086-0.29,4.244-1.736c2.508,0.097,4.436-1.735,7.328-2.314c0-0.771,0-0.482,0-0.482
			c0.482-0.192,1.447-1.253,2.604-0.867C1059.965,381.93,1059.867,382.316,1059.676,382.702z"/>
		<path style="fill:#17192D;" d="M1047.332,364.091c3.76,0.964,6.461,4.146,10.223,5.304c0.578,1.061,1.83,1.64,2.41,2.7
			c-0.869,0.289-1.832-0.578-2.604-0.964c-0.676-0.676-1.352-1.062-2.314-1.157c-2.121-1.544-5.016-2.218-7.232-3.954
			c-1.641-0.578-4.051-0.771-5.883-1.64c-3.279-0.192-6.559-0.192-9.74,0.386c-3.086,0.579-6.074,1.832-8.487,3.954
			c-3.182,1.543-6.846,2.7-10.318,3.472c-5.4,2.7-12.246,2.41-17.84,0.192c-3.279,0-5.109-2.796-8.1-3.182
			c-0.867-0.676-1.641-1.351-2.701-1.736c-0.578-0.482-0.289-1.253-0.771-1.929c0-0.192-0.385,0.097-0.191,0.193
			c1.35,0.097,2.797,0.675,3.953,1.253c5.111,3.954,11.957,4.147,18.129,5.497c4.34-0.193,7.908-2.218,12.055-3.183
			c2.604-1.639,5.883-2.218,8.487-3.856c1.928-0.193,3.473-2.411,5.496-1.929c4.34-1.543,9.451-1.543,13.598,0
			C1046.078,363.802,1046.656,363.995,1047.332,364.091z"/>
		<path style="fill:#17192D;" d="M1018.884,347.989c1.832,1.446,3.953,2.796,5.592,4.917c7.233-0.578,13.887,0.868,20.252,0.676
			c2.795-0.097,4.725-1.833,7.328-1.64c0.098,0.771,0.676,1.543,1.641,1.832c0.191,0.193,0.191-0.579-0.098-0.481
			c-0.096,0.096-0.674,0.192-0.771,0.192c-3.471,2.314-8.68,0.675-12.922,1.254c-1.543,0.385-3.762,1.061-5.014,0
			c-5.787-1.062-12.729,0.482-18.42-0.771c-4.146-0.193-8.582,0.964-12.535,0.096c-5.979-0.481-11.959,0.193-18.033-0.675
			c-2.025,0.771-3.664,0-5.787-0.096c-0.578-0.387-1.734,0-2.023-0.676c0.385-0.481,0.191-1.253,0.771-1.64
			c2.217-1.832,5.207-2.314,7.424-3.664c2.219-0.386,4.148-0.868,6.076-1.929c0.193-0.289,0.385-0.579,0.578-0.675
			c2.508-0.193,5.016-1.929,7.715-0.868C1006.83,344.516,1013.58,344.805,1018.884,347.989z M994.003,345.962
			c-2.025,1.446-4.629,2.026-6.75,2.604c-0.771,1.253-3.086,0.868-4.242,2.024c1.156,1.833,2.795,0.965,3.953,1.157
			c5.883,1.157,11.959,0.29,18.033,0.676c2.41,0.964,4.531-0.097,6.943,0.096c2.699,0.193,5.4-1.061,7.906,0.193l0.869-1.061
			c-1.158-1.736-2.797-2.99-4.918-3.568c-1.832,0-3.568-0.965-5.4-1.735c-3.279-0.869-6.559-0.676-10.029-0.869
			C998.248,345.384,996.511,346.638,994.003,345.962z"/>
		<path style="fill:#17192D;" d="M1059.193,331.692c0.289,0.097,0.482,0.193,0.674,0.387c-0.867,2.217-3.471,0.964-5.496,1.542
			c-1.734,0.29-3.375,0-5.109,0.097c-4.727,0.097-9.451-0.097-13.984,0c-2.41,0-5.592,0.193-8.1-0.097
			c-1.639-0.192-3.665,0-5.305,0.097c-3.953,0.386-7.713,0-11.861,0.29c-0.191-0.193-0.385-0.193-0.578-0.193
			c-1.736,0.867-3.664,0.097-5.305,0.386c-3.953,0.192-7.715,0.578-11.57,0.578c-2.701-1.157-5.496,0.579-8.295-0.097
			c-0.385-0.096,0.58-1.156,0.869-1.156c4.242-2.893,9.16,1.156,13.887-0.193c5.592-1.543,11.861-0.965,17.357-1.253
			c5.496-0.29,10.704,0.192,16.297,0c1.543-0.193,3.086-0.193,4.727-0.193c0.385,0,0.867,0.096,1.252,0.096
			c4.244-0.096,8.486-0.096,12.248-0.675C1053.793,332.079,1056.203,331.596,1059.193,331.692z"/>
		<path style="fill:#17192D;" d="M993.521,315.299c1.447,0.193,2.412,1.64,4.051,1.64c3.086,1.543,5.979,2.314,9.74,2.507
			c0.578,0.29,1.543,0.386,2.217,0.579c2.123,0.192,4.051,1.157,6.076,1.157c1.254,0.386,2.99-0.29,4.146,1.253
			c1.543-0.385,2.701-0.771,3.664-1.253c0.387-0.771,1.447-1.736,1.35-2.797c0.676-1.061,0.098-1.929,0.581-3.279
			c0.578-1.832,0.578-2.893,1.543-4.821c0.48-0.386,0.963-0.771,1.543-0.675c0.385,0.965,0,2.121,0,3.278
			c-1.254,2.508-1.062,3.857-1.93,7.137c0.771,0.481,0.482,0.867,0.771,1.061c2.412,0.386,5.014,0.097,7.041-0.386
			c1.252,0.192,2.312-0.289,4.242-0.289c0.385-1.157,1.254-0.289,1.832-0.579c3.471-0.289,6.557-2.218,10.125-2.41
			c1.543-1.351,4.146-1.157,5.689-2.315c1.832,0.193,2.797-2.218,5.111-1.639c1.156-0.868,2.219-1.929,3.666-1.929
			c0.385,0.289,0.77,0.579,1.156,0.964c-0.193,1.447-1.832,1.544-2.895,2.314c-1.639,0.193-3.182,0.579-4.338,1.64
			c-2.121-0.097-3.377,1.736-5.4,1.64c-0.771,0.482-1.543,0.578-2.123,0.964c-0.77-0.097-1.445,0.193-2.023,0.482
			c-4.436,0-7.908,2.893-12.344,2.604c-0.578,0.386-1.641,0.386-2.219,0.482c-4.725,1.64-10.221,1.351-15.043,1.254
			c-2.217-0.579-4.918,0-6.848-0.965c-5.979-1.061-11.764-3.472-17.453-5.015c-2.701-1.061-5.207-2.7-7.715-4.05
			c-2.797-1.543-6.076-2.604-8.1-5.4c0-0.192,0-0.482,0.191-0.578C984.167,310.67,988.701,313.177,993.521,315.299z"/>
		<path style="fill:#17192D;" d="M1040.195,283.092c2.701,0,5.979-0.965,8.873,0c2.023-0.29,4.436,0.289,5.979,0
			c0.096,0,0.289,0,0.48-0.097c3.955,0.386,2.895-0.676,6.848-0.386c0.193,0.096,0.387,0.386,0.482,0.386
			c0.096,0.097,0.096,0.289,0,0.192c0-0.192,0.289,0.097,0.289,0.193c0.289,0.578-0.578,1.061-0.578,1.639
			c-1.445,2.025-3.664,2.989-5.303,4.918c-2.219,2.7-6.076,4.243-8.486,6.075c-1.158,0.676-2.99,1.062-4.34,1.736
			c-0.965,0-1.93,0.578-2.797,0.965c-0.193,0.675,0,0.289-0.193,0.192c-0.578,0.192-1.447,0.192-2.314,0.578
			c-0.289-0.192-0.482,0.193-0.963-0.096c-2.99,0.771-5.111,1.832-8.004,1.639c-3.473,0.289-7.813-0.096-11.092-0.385
			c-0.867-0.29-1.734-0.482-2.604-0.482c-0.385-0.097-0.867-0.193-1.156-0.29c-0.482,0.097-1.156-0.386-1.639-0.386
			c-2.412,0.097-3.568-1.157-5.98-1.253c-1.832-0.965-5.689-2.7-7.811-3.761c-2.508-1.736-5.111-3.086-7.426-4.919
			c-2.314-1.735-4.436-3.472-6.074-5.786c-0.193-0.481-0.771-1.735,0.096-1.253c2.121,1.061,3.182,3.278,5.4,4.436
			c5.014,4.147,12.439,8.39,18.709,10.029c0.771,0.386,2.217,0.289,2.893,0.771c1.35,0.289,2.604,0.578,3.953,0.675
			c4.34,1.254,8.487,0.29,12.922,0.386c2.99-0.482,6.848-0.386,9.74-1.832c0.867,0,1.35-0.675,2.025-0.675
			c1.156-0.676,3.375-0.482,4.82-1.351c0.676-0.192,1.254-0.964,1.93-1.157c0.289-0.386,1.156-0.481,1.543-0.675
			c0.771-0.192,1.35-1.157,2.121-1.446h0.193c0.482-0.097,0.965-0.578,1.061-0.771c0.289-0.193,0.193,0.482,0.385-0.193
			c0.193-0.386,0.482-0.867,0.771-0.675c-0.385,0.289-0.096,0,0.098-0.192c0.771-1.543,2.604-1.93,3.76-3.279
			c0.289-0.192,0.482-0.675,0.965-0.964l-0.578-1.254c-5.689,0.579-9.258,0.771-16.395,0.482c-1.832,0.289-4.531,0-6.557,0.386
			c-0.098-0.097-0.676-0.193-0.771-0.289c-2.797,0-3.568-0.482-6.074-0.579c-0.193,0.097-0.869,0.097-0.965,0.097
			c-4.629-0.193-6.172,0.578-10.319,0.386c-2.604,1.253-5.209-0.579-7.521,0.867c-0.482,0.386-1.062,0.097-1.447,0.868
			c-1.447-0.868-0.869-1.929-0.771-2.121c0.191-0.193,0.771-0.676,1.35-0.771c1.447-0.097,3.568-0.289,5.016-0.482
			c0.771,0.386,2.604-0.289,3.471-0.096c3.857-0.29,3.955-0.579,8.391-0.579c0.867-0.482,2.506-0.097,3.471-0.097
			C1034.314,282.61,1036.436,283.67,1040.195,283.092z"/>
		<path style="fill:#17192D;" d="M1059.676,263.708c-0.965,2.122-3.279,2.314-4.918,3.472c-2.219,1.157-4.629,2.314-7.137,2.604
			c-0.676,0.386-1.639,0.482-2.41,0.578c-6.461,1.158-12.73,3.762-19.48,3.954c-4.629,0.965-9.741,0.482-14.754,0.386
			c-4.146,0-9.451-1.156-13.598-2.989c-2.023-0.481-4.242-1.254-5.689-2.507c-2.121-0.579-3.76-2.122-5.592-3.279
			c-0.387-0.675-0.869-1.35-0.869-2.024c0-0.097-0.096-0.193-0.096-0.193c1.93,0.482,3.76,1.929,5.689,3.086
			c1.543,0.868,2.41,2.025,4.051,2.411c2.795,0.578,5.014,2.507,7.906,2.314c5.305,1.35,11.09,1.253,17.455,0.867
			c-0.965-2.218,0.674-3.085-0.098-4.436c0.098-0.578,0.193-0.965,0.387-1.351c0.289-0.289,0.482-0.578,0.867-0.289
			c0.193,0.193,0.291,0.289,0.482,0.482c-0.191,0.579,0.193,0.965,0.482,1.254c-0.289,1.254,0,2.507-0.191,4.05
			c4.725,0.482,7.907-0.867,11.764-1.061c1.639-0.771,4.146-0.965,6.172-1.543c1.832-0.579,4.049-0.579,5.785-1.64
			c1.447,0.193,3.086-0.289,4.244-1.735c2.508,0.096,4.436-1.736,7.328-2.314c0-0.771,0-0.482,0-0.482
			c0.482-0.193,1.447-1.254,2.604-0.868C1059.965,262.937,1059.867,263.323,1059.676,263.708z"/>
		<path style="fill:#17192D;" d="M1054.275,240.855c-0.289,2.024,0.096,3.761,0.771,5.399c-0.098,0.482-0.482,0.965-0.771,1.062
			c-1.254,1.832,1.156,5.111-2.025,6.075c-1.061,0.289-2.219-0.193-3.086,0.578c-3.375,1.254-4.436,0.29-7.715,0.579
			c-2.893,0.192-6.365-1.254-9.162,0c-1.541,0-2.795-0.579-4.146-0.771c-3.665,1.35-7.811-0.675-11.668,0.29
			c-2.795,0.192-5.014-0.965-7.811,0.289c-0.578,0.096-1.061,0.096-1.543,0.289c-5.689,0-11.572-0.578-17.164,0.096
			c-2.797,0-5.498-0.096-8.006-1.446c-0.482-0.386,0.098-0.964,0.58-1.157c0.676,0,1.639-0.192,2.699,0.675
			c2.025-0.867,3.857,0.097,5.594-0.289c1.445,0.386,3.086,0.482,4.629,0.097c3.279-1.929,6.75,0.289,10.125,0.192
			c3.279-0.096,6.557-1.35,9.934-0.964c3.471,0.482,7.521,0.771,11.09,0.386c1.156-0.386,2.506,0.193,3.568-0.193
			c1.059,0.193,2.506,0.097,3.471,0.771c1.35-0.192,2.988-0.481,4.34-0.867c0.771,0.386,1.928,0.289,2.604,0.482
			c3.664,0.289,4.436,0.771,7.811-0.387c2.219,0.771,1.35-1.542,3.279-2.024c1.254-0.482,0.578-1.061,0.578-1.735
			c-0.289-1.544,1.254-2.701,0.578-4.051c-0.482-1.254-0.096-2.894-1.061-4.243c-0.096-0.386-0.096-0.868,0.387-0.868
			C1053.408,238.83,1053.6,240.083,1054.275,240.855z"/>
		<path style="fill:#17192D;" d="M976.935,212.408c0.193,1.64,0.867,2.796,1.158,4.532c-0.58,2.604-0.098,4.918,0.867,8.1
			c1.35-0.674,2.314-0.481,2.797-0.289c1.832-0.192,4.146,0.289,5.979,0.193c1.736-0.386,3.857-0.578,5.592-0.578
			c2.701-1.351,6.076-1.736,8.777-2.314c1.543,0.385,3.375,0,4.82,0.192c6.559,0,13.309-1.64,19.481-2.507
			c1.156,0.096,2.893-0.193,3.953,0.096c0.193-0.096,0.676-0.096,0.771-0.192c4.822-0.193,8.68-0.29,13.5-0.29
			c2.219,0,4.148,0.387,6.172,0.482h-0.096c-2.508,1.832-5.979,1.157-8.68,1.736c-3.953-0.965-8.1,1.061-12.342-0.579
			c-2.508,2.604-5.499,0.579-8.102,1.446c-2.41-0.289-5.305-0.192-7.328,1.062c-0.965-0.097-1.834,0.289-3.184-0.193
			c-2.314,1.351-5.207,0.676-7.617,0.676c-3.953-0.868-7.137,1.735-10.896,1.253c-2.701,1.35-5.787,1.157-8.873,1.157
			c-0.963-1.061-2.508-0.097-4.436-2.218c-0.674,4.243-0.289,6.75-0.482,9.354c0.482,2.025-0.289,4.244,0,6.461
			c-0.096,0.097-0.096,0.193-0.191,0.29c-0.773-0.097-0.965-0.965-1.256-1.543c0.58-1.929,0.482-3.857,0-5.786
			c-0.385-0.482,0-1.35,0.098-2.314c-1.061-1.446-0.193-3.568-0.965-4.918c0.482-1.543-0.191-3.183-0.096-4.726
			c-0.867-1.543,0.289-3.568-0.578-5.11c0-1.351-1.834-2.7-0.289-3.761c0.096-0.097,0.289-0.193,0.48-0.29
			C976.357,211.925,976.839,212.022,976.935,212.408z"/>
		<path style="fill:#17192D;" d="M1014.929,150.788c6.461,2.313,13.309,1.638,19.481,4.242c6.365,2.7,13.307,3.857,19.865,5.979
			c0.193,0.193,0.482,0.482,0.674,0.771c-2.121,0.867-4.918-0.869-7.426-0.578c-7.617-0.58-14.754,1.928-22.758,2.988l-0.385,1.736
			c8.68,1.735,16.008,5.399,24.012,6.943c0.289,0.193,0.771,0.289,1.061,0.482c1.736,0.096,3.857-1.062,5.111-0.098
			c-0.096,0.676-0.771,0.965-1.445,1.157c-1.545-0.192-2.701,0.868-4.148,1.254c-8.582-0.386-16.201,1.446-24.879,2.025
			c-10.705,0.771-21.312,1.542-31.438,1.446c-5.303,0.771-9.354,0.965-13.5,0.482c-0.387-0.193-1.158,0-1.543-0.097
			c0.289-0.192,0.578-0.482,0.867-0.771c3.182-0.675,5.979-0.675,9.354-0.964c14.658-1.158,30.764,0.097,45.807-2.411
			c2.699-0.482,5.4-0.29,8.293-0.579c1.928-0.675,1.061-2.604-0.385-2.217c-6.27-3.086-13.887-3.568-20.157-5.883
			c-1.156-0.386-2.988-0.097-3.471-1.254c0.193-0.385,0.578-0.578,0.965-0.771c6.557-2.121,13.694-2.893,23.53-5.4
			c-6.076-2.219-9.645-2.604-12.439-4.243c-7.042,0-11.862-2.894-18.903-2.894c-5.4-2.023-11.764-1.156-17.164-3.471
			c-4.436-0.097-8.102-1.062-13.309-1.929c-0.096,0-0.385,0-0.482-0.097c0.098-0.192,0.193-0.385,0.291-0.674
			c0.77,0,1.252-0.387,1.639-0.58C992.943,146.255,1003.937,149.341,1014.929,150.788z"/>
		<path style="fill:#17192D;" d="M1059.193,134.296c0.289,0.098,0.482,0.193,0.674,0.387c-0.867,2.217-3.471,0.964-5.496,1.542
			c-1.734,0.29-3.375,0-5.109,0.097c-4.727,0.097-9.451-0.097-13.984,0c-2.41,0-5.592,0.193-8.1-0.097
			c-1.639-0.192-3.665,0-5.305,0.097c-3.953,0.386-7.713,0-11.861,0.289c-0.191-0.192-0.385-0.192-0.578-0.192
			c-1.736,0.868-3.664,0.097-5.305,0.386c-3.953,0.193-7.715,0.578-11.57,0.578c-2.701-1.157-5.496,0.58-8.295-0.096
			c-0.385-0.098,0.58-1.157,0.869-1.157c4.242-2.894,9.16,1.157,13.887-0.193c5.592-1.542,11.861-0.964,17.357-1.253
			s10.704,0.192,16.297,0c1.543-0.193,3.086-0.193,4.727-0.193c0.385,0,0.867,0.097,1.252,0.097
			c4.244-0.097,8.486-0.097,12.248-0.675C1053.793,134.683,1056.203,134.201,1059.193,134.296z"/>
		<path style="fill:#17192D;" d="M1049.936,113.372c-3.471,2.507-7.908,2.121-11.09,4.821c-1.254,0.386-2.604,1.061-3.664,1.736
			c-2.99-0.097-6.076,1.832-10.125,3.664c2.604,1.061,4.531,0.771,5.881,0.386c5.689,0,10.705-0.965,16.684-0.097
			c1.641,0,3.664-0.482,5.111,0.193c2.795,0.096,6.074-0.676,8.486,0.676c0.096,0.096,0.096,0.096,0.193,0.191
			c-2.027,0.579-4.629,0.387-6.654,0.29c-1.736-0.481-3.568,0.192-5.496,0.192c-3.762,0.097-7.715-1.254-11.09,0.387
			c-3.088,0.386-5.98-1.061-8.969,0c-2.701,0.867-5.401-0.482-7.909,0.771c-4.629-0.771-10.607,0.097-15.623-0.771
			c-5.689,0-11.475,0.386-17.068-0.579c-3.086-0.097-4.34-0.675-7.232-1.254c-0.096,0,0.482-0.675,0.482-0.868
			c3.086-1.832,4.146-2.41,7.426-3.664c4.531-1.832,9.354-1.446,13.887-2.701c6.363,0.098,12.633,0.965,17.26,7.041
			c8.489-5.111,17.553-5.689,25.749-10.125c3.666-1.158,7.041-2.99,10.705-4.147c0.578,0,1.543-0.386,2.217-0.192
			C1056.107,111.056,1053.021,112.408,1049.936,113.372z M995.644,119.736c-1.254,0.386-2.797-0.097-3.955,0.676
			c-1.543-0.193-2.988,0.674-4.242,1.156l-2.314,1.64c0.867,0.097,4.242,0.386,5.207,0.579c1.254,1.253,3.471,0.674,5.016,1.061
			c7.135-0.965,15.139,0.192,23.721-0.193c-1.252-1.543-2.506-1.929-3.182-2.604c-1.35-1.35-5.111-2.797-7.619-3.857
			C1003.937,118.771,999.308,117.807,995.644,119.736z"/>
		<path style="fill:#17192D;" d="M1027.467,86.369c3.76,0.291,7.617,1.158,11.668,1.641c4.918,0.578,10.029,1.157,14.658,3.471
			c2.41,2.411,5.4,3.665,7.33,6.848c0.289,1.735,1.541,1.446,0.963,3.568c0.096,0.289-0.193,0-0.193-0.387
			c-2.217,0.097-1.156-0.481-2.797-2.699c-2.506,0.771-4.338-0.387-6.17,0.385c-7.715-0.482-14.369,0-21.891,0.771
			c-1.832,0.868-4.146,0.868-6.27,0.579c-1.35-0.482-2.795,0.482-4.436,0.192c-5.014-0.289-10.607-0.289-15.525,0.386
			c-3.664-0.192-7.232,0-10.994,0.386c-1.445-0.289-3.084-0.771-5.109-0.192c-0.58,1.351-1.254,1.061-0.771,2.218
			c-0.193,0.193-0.387,0.482-0.676,0.675c-0.289-0.096-0.578,0-0.867-0.289c0.385-2.797,2.217-4.339,3.953-6.461
			c3.375-3.087,7.715-4.532,11.379-7.522c2.41-1.543,4.918-1.734,7.521-2.795c3.279-0.482,6.943-0.291,10.125-0.965
			C1022.066,86.851,1024.669,86.66,1027.467,86.369z M1012.23,88.781c-3.762-0.193-6.365,1.543-9.932,2.604
			c-0.193,0.193-1.062,1.061-1.545,1.35c-2.699,1.929-5.881,2.797-8.775,6.654c3.473-0.289,5.207,0.965,6.848,0.289
			c2.41,0.289,4.533-0.965,6.943-1.061c3.471,1.061,7.232,0.193,10.801,0.676c3.277,0.385,6.846-0.387,10.221-0.58
			c5.979-2.313,12.922-0.674,19.094-1.35c2.99,0,6.461-0.482,11.188,0.097c-1.834-3.857-5.111-4.532-7.33-5.786
			c-5.689-1.543-11.379-2.507-17.262-3.086c-1.156-0.193-2.602,0.289-3.664-0.385C1023.513,88.492,1017.148,86.66,1012.23,88.781z"
			/>
		<path style="fill:#17192D;" d="M1052.346,77.884c0,0.482-0.674,0.771-1.061,0.867c-1.445,0.965-3.471,0.098-5.014,0.868
			c-0.482,0-0.867-0.192-1.158-0.481c0-0.482,0.193-0.676,0.387-0.869c1.35-0.385,2.699-2.604,4.34-0.964
			C1051.092,77.208,1051.672,77.498,1052.346,77.884z"/>
	</g>
	<path style="fill:none;stroke:#17192D;stroke-width:3;" d="M2048,0"/>
	<path style="fill:none;stroke:#17192D;stroke-width:3;" d="M2048,1536"/>
	<path style="fill:none;stroke:#17192D;stroke-width:3;" d="M0,1536"/>
	<path style="fill:none;stroke:#17192D;stroke-width:3;" d="M0,0"/>
</g>
<g id="Layer_1">
</g>
</svg>
