<svg xmlns="http://www.w3.org/2000/svg" width="2048" height="1536" viewBox="0 0 2048 1536"><g><g fill="#FF0050"><path d="M1310.314 1478.777c.77.386 1.543 0 2.41.192.676 0 1.158.192 1.736.578.096.482-.482.868-.77 1.35-.677.868-1.446-.48-1.64-.48-.193-.387-1.158.48-2.123-.966-1.928.58-3.664.58-5.014.193-2.7.29-5.69-.482-8.293.578-1.06.097-1.64 1.35-2.12 1.93-.1 0-.483 1.156-1.35 1.542-1.255 1.157-3.09 2.99-3.667 3.472-.48.482 0-.58-.867.386-.482.386-.29.578-.965 1.64-.866 1.06-2.603 2.893-2.987 3.374-.578 1.158-1.158 2.508-1.834 4.05 2.024 1.352 4.05.966 5.4 1.833 1.735.097 3.858.482 5.69.965 1.06-.868 1.833.192 2.604.192 1.06.58 2.7.482 3.953 1.062 2.41.384 4.53 1.83 7.232 1.35.964.19 2.12.578 3.085.867-.098.193-.193.386-.387.386-1.64.29-3.084-.58-4.53-.482-.388-.29-.677-.385-1.062-.29-.77-.095-1.543-.288-2.22-.288-1.542-.48-2.603.387-5.11-1.253 0 1.445.193.577.193.577-1.446-.385-3.474-.965-5.4-.867-1.157-.77-2.605-.482-3.76-.77-2.702-.29-4.534-1.352-7.138-1.158 0 0-.096-.098-.193-.098-.772-.48-1.64-.192-2.122-.674-5.883-1.64-11.86-3.28-17.744-4.92-1.35-.674-2.508-.963-3.953-1.54-1.93-.677-3.76-1.834-5.786-2.605-2.023-.77-3.953-2.024-6.268-2.7-.578-.29-1.543.193-1.543-.77 0-.29-.29-.966-.096-1.063.674-1.06 2.604-1.06 3.566-1.543 2.316-.193 5.594-.676 8.39-1.254 1.062-1.254 2.702-.29 3.954-.772 4.727.193 9.645-2.218 15.045-1.543 6.846-1.06 14.465-1.638 20.926-1.06 4.92.384 9.838-.097 14.756.577zm-29.218 1.64c-1.254-.482-3.184.675-5.11.29-2.315-.387-4.823.385-7.136.77-2.22-.386-3.955.964-6.174.77-1.445.193-3.857.193-5.785.58-3.18.577-6.075 1.445-9.74 1.735 1.448 1.64 4.052 2.797 4.437 2.893 2.025.675 3.664 1.833 5.498 2.41 2.797.965 5.207 1.93 7.81 2.7 1.833.482 4.245 1.062 5.884 1.35 1.83-.095 4.435 1.544 6.942 1.93 1.445.193.77.868 2.797.29.77-1.833 1.927-3.087 2.603-4.726.867-1.158 1.35-1.255 2.604-2.605.867-.868 1.734-2.22 2.7-3.473.868-.964 2.024-2.024 2.603-2.7 0-.192 1.158-1.446 1.158-2.217-1.352-.29-2.893-.29-3.762-.386-2.606-.384-4.63 0-7.33.387zM1309.928 1455.44c1.736 2.024 2.895 4.05 4.63 6.46.29 2.315 1.93 2.315 1.544 4.148-1.545 2.12-2.412 1.06-4.244 1.156-5.98-.77-13.02.482-18.805.868-5.207-.386-8.1.386-15.236.578-1.832.77-4.436.29-6.46 0-2.122.868-5.69.482-8.005-.192-7.715.964-14.078.192-21.6.578-.58-.096-1.447.386-1.062-.29 0-.096.098-.48.098-.577.19-.194.29-.483.482-.87-.098-.674-.193.29.29.29.866-1.06 1.25-2.99 2.698-2.99.77-1.06 1.543-1.64 2.41-1.928 1.736-1.64 2.7-3.086 5.016-3.086 3.953-3.182 8.97-2.796 13.5-2.796 4.533 1.543 8.293 3.953 12.15 8.968 1.64-1.832 1.543-4.34 2.604-4.82.676-1.64 1.93-2.99 3.473-4.63 3.085-2.12 5.786-2.508 9.065-3.76 3.762-2.605 7.81 1.252 11.572-.194 1.928.386 3.664 2.412 5.88 3.086zm-56.895 4.823c-2.12 2.796-4.05 1.253-5.787 5.11-.29.193-.578.386-1.06.096-3.665 1.64.29 1.832 1.83 1.928 3.185-1.06 4.728.193 7.91.098 3.278-1.062 7.038.385 10.51-.58 1.062-.288 1.833-.096 2.798-.096 2.12-.48 3.568.482 7.81 0-2.99-2.507-3.663-3.182-5.206-4.243-2.22-.965-4.244-2.507-6.268-3.664-4.34-.966-8.873-.193-12.537 1.35zm31.533-2.798c-2.604 2.508-3.566 4.244-6.076 9.45 2.7 0 4.05-.866 5.21-.48 4.82-2.025 9.257.867 14.27-.386 3.182-1.16 6.56 0 9.838-1.16 1.156.58 4.627.58 5.494.194.098-.193-.867-1.157-.578-2.41-1.35-1.93-2.604-4.05-3.664-6.365-2.12-.194-3.375-.58-4.82-1.447-3.088-.58-6.463-2.314-9.838-1.157s-6.652 2.12-9.836 3.76zM1314.365 1433.744c-.965 2.12-3.28 2.313-4.92 3.47-2.217 1.158-4.627 2.316-7.135 2.605-.676.385-1.64.48-2.41.577-6.46 1.157-12.73 3.76-19.48 3.954-4.63.965-9.74.482-14.754.386-4.146 0-9.45-1.156-13.598-2.988-2.023-.482-4.242-1.254-5.69-2.508-2.12-.58-3.76-2.12-5.59-3.278-.388-.676-.87-1.35-.87-2.025 0-.097-.096-.192-.096-.192 1.93.48 3.76 1.93 5.69 3.085 1.542.868 2.41 2.025 4.05 2.41 2.795.58 5.014 2.51 7.906 2.315 5.305 1.35 11.09 1.253 17.455.868-.965-2.218.674-3.086-.098-4.437.098-.578.193-.965.387-1.35.29-.29.482-.58.867-.29l.48.482c-.19.58.194.965.483 1.254-.29 1.254 0 2.507-.19 4.05 4.724.482 7.905-.867 11.763-1.06 1.64-.772 4.146-.965 6.172-1.543 1.832-.58 4.05-.58 5.785-1.64 1.447.19 3.086-.29 4.244-1.737 2.508.097 4.436-1.735 7.328-2.314v-.483c.482-.192 1.447-1.253 2.604-.867-.096.482-.193.867-.385 1.254zM1304.625 1412.24c-3.473 2.507-7.908 2.12-11.09 4.82-1.254.387-2.604 1.062-3.664 1.736-2.99-.096-6.075 1.833-10.124 3.665 2.602 1.062 4.53.772 5.88.387 5.69 0 10.706-.964 16.685-.097 1.642 0 3.665-.482 5.112.193 2.795.096 6.074-.676 8.486.675l.193.193c-2.026.58-4.628.386-6.655.29-1.734-.482-3.566.192-5.494.192-3.76.097-7.714-1.254-11.09.386-3.087.386-5.98-1.06-8.968 0-2.7.868-5.402-.482-7.908.77-4.63-.77-10.607.098-15.623-.77-5.688 0-11.474.386-17.067-.578-3.086-.097-4.34-.676-7.232-1.254-.095 0 .483-.675.483-.868 3.086-1.832 4.146-2.41 7.426-3.664 4.53-1.833 9.353-1.446 13.886-2.7 6.363.096 12.633.964 17.26 7.04 8.488-5.11 17.553-5.69 25.748-10.126 3.666-1.157 7.04-2.99 10.705-4.146.577 0 1.542-.387 2.216-.193-2.99 1.735-6.075 3.085-9.16 4.05zm-54.29 6.364c-1.255.386-2.798-.097-3.956.675-1.544-.193-2.99.675-4.243 1.156l-2.314 1.64c.867.097 4.242.386 5.207.578 1.254 1.254 3.47.676 5.016 1.06 7.135-.963 15.14.194 23.72-.19-1.25-1.544-2.505-1.93-3.18-2.605-1.35-1.352-5.112-2.798-7.62-3.858-4.34.578-8.968-.386-12.632 1.542zM1302.02 1366.145c3.76.965 6.462 4.146 10.224 5.304.578 1.06 1.83 1.64 2.41 2.7-.87.288-1.832-.58-2.604-.966-.676-.675-1.352-1.06-2.314-1.157-2.12-1.542-5.016-2.218-7.232-3.953-1.64-.58-4.05-.77-5.883-1.64-3.278-.193-6.558-.193-9.74.386-3.085.58-6.073 1.832-8.485 3.954-3.182 1.543-6.846 2.7-10.318 3.472-5.4 2.7-12.246 2.41-17.84.192-3.28 0-5.11-2.796-8.1-3.182-.867-.676-1.64-1.35-2.7-1.736-.58-.482-.29-1.253-.772-1.93 0-.19-.385.098-.19.194 1.35.096 2.796.675 3.952 1.253 5.11 3.954 11.957 4.146 18.13 5.497 4.34-.192 7.907-2.218 12.054-3.183 2.605-1.638 5.882-2.217 8.487-3.856 1.928-.192 3.47-2.41 5.496-1.93 4.34-1.542 9.45-1.542 13.598 0 .578.29 1.156.484 1.83.58zM1313.883 1352.45c.29.1.482.194.674.388-.867 2.218-3.47.964-5.496 1.542-1.733.29-3.374 0-5.108.098-4.727.096-9.45-.098-13.984 0-2.41 0-5.592.192-8.1-.098-1.64-.192-3.666 0-5.305.098-3.953.385-7.713 0-11.86.29-.192-.194-.386-.194-.58-.194-1.735.868-3.663.097-5.304.386-3.954.193-7.716.58-11.573.58-2.7-1.16-5.494.577-8.293-.098-.385-.097.58-1.157.87-1.157 4.24-2.893 9.16 1.157 13.886-.193 5.592-1.542 11.86-.964 17.357-1.253s10.703.192 16.297 0c1.543-.194 3.086-.194 4.727-.194.386 0 .868.097 1.253.097 4.244-.097 8.486-.097 12.248-.675 2.892.77 5.303.287 8.293.383zM1314.365 1333.455c-.965 2.12-3.28 2.314-4.92 3.472-2.217 1.157-4.627 2.314-7.135 2.604-.676.387-1.64.483-2.41.58-6.46 1.157-12.73 3.76-19.48 3.953-4.63.965-9.74.482-14.754.386-4.146 0-9.45-1.158-13.598-2.99-2.023-.482-4.242-1.253-5.69-2.507-2.12-.58-3.76-2.122-5.59-3.278-.388-.676-.87-1.35-.87-2.026 0-.097-.096-.193-.096-.193 1.93.482 3.76 1.93 5.69 3.086 1.542.868 2.41 2.025 4.05 2.41 2.795.58 5.014 2.508 7.906 2.315 5.305 1.35 11.09 1.253 17.455.867-.965-2.218.674-3.086-.098-4.436.098-.58.193-.965.387-1.35.29-.29.482-.58.867-.29l.48.48c-.19.58.194.965.483 1.255-.29 1.253 0 2.507-.19 4.05 4.724.482 7.905-.868 11.763-1.06 1.64-.772 4.146-.965 6.172-1.544 1.832-.578 4.05-.578 5.785-1.64 1.447.194 3.086-.288 4.244-1.734 2.508.097 4.436-1.736 7.328-2.314v-.482c.482-.192 1.447-1.254 2.604-.868-.096.482-.193.867-.385 1.253zM1308.965 1284.468c-.29 2.025.096 3.76.77 5.4-.097.482-.48.965-.77 1.062-1.254 1.832 1.156 5.11-2.025 6.075-1.06.29-2.22-.193-3.086.578-3.375 1.254-4.436.29-7.715.58-2.894.19-6.366-1.255-9.163 0-1.54 0-2.795-.58-4.146-.772-3.663 1.35-7.81-.674-11.667.29-2.795.192-5.014-.964-7.81.29-.58.096-1.062.096-1.544.288-5.69 0-11.573-.578-17.165.097-2.797 0-5.498-.097-8.006-1.446-.483-.387.097-.966.58-1.158.675 0 1.638-.192 2.698.675 2.025-.867 3.857.097 5.594-.29 1.445.387 3.086.483 4.63.098 3.278-1.93 6.75.29 10.124.192 3.28-.097 6.557-1.35 9.932-.964 3.473.48 7.523.77 11.092.386 1.156-.387 2.506.19 3.566-.194 1.06.193 2.508.097 3.473.77 1.35-.19 2.987-.48 4.34-.866.77.385 1.927.29 2.603.48 3.664.29 4.436.772 7.81-.385 2.218.77 1.35-1.543 3.28-2.024 1.254-.48.578-1.06.578-1.735-.288-1.543 1.255-2.7.58-4.05-.483-1.254-.097-2.894-1.062-4.243-.096-.386-.096-.868.387-.868 1.253-.29 1.444.963 2.12 1.734zM1319.38 1272.318c-.29.096-1.062.675-1.737.868-1.832.096-4.436.29-6.268.578-1.06-.386-3.086.386-4.146.096-5.112.482-10.224.772-16.01.676-1.06.675-2.987.193-4.145.193-5.4-.194-10.318-1.544-15.043-.87-3.375 0-7.232 1.255-10.8 0-2.51.387-6.173-.096-8.198.097-.096.097-.29.193-.385.29-5.017-.482-10.608.578-15.43.192-.388-.098-.87-.772-.194-.87 9.932-1.252 21.215-.77 31.727-1.252 2.314-.097 5.785.096 8.293-.387l.29.29c3.76 0 7.23.483 10.8.772.29-.192.965-.097 1.158 0 5.785.193 12.535-.868 18.033-.675 3.182-1.543 6.557.675 9.45-1.157.384-.58 1.253-.29 1.735-.77 1.156.77 1.06 1.542.867 1.928zM1248.21 1255.153c1.448.192 2.413 1.64 4.052 1.64 3.086 1.542 5.98 2.314 9.74 2.507.578.29 1.543.386 2.217.578 2.122.193 4.05 1.158 6.075 1.158 1.254.385 2.99-.29 4.146 1.253 1.544-.387 2.702-.772 3.665-1.254.385-.772 1.447-1.736 1.35-2.798.676-1.06.098-1.928.58-3.278.578-1.832.578-2.893 1.543-4.82.48-.387.963-.772 1.543-.676.386.964 0 2.12 0 3.278-1.253 2.508-1.06 3.857-1.93 7.136.772.482.483.868.772 1.062 2.412.386 5.014.097 7.04-.386 1.253.192 2.313-.29 4.243-.29.385-1.156 1.254-.29 1.832-.578 3.47-.29 6.557-2.218 10.125-2.41 1.543-1.35 4.146-1.158 5.69-2.315 1.83.194 2.796-2.217 5.11-1.638 1.156-.868 2.22-1.93 3.664-1.93.387.29.77.58 1.158.965-.193 1.446-1.832 1.543-2.895 2.314-1.64.194-3.183.58-4.34 1.64-2.12-.096-3.376 1.736-5.4 1.64-.77.482-1.542.58-2.122.965-.77-.097-1.445.193-2.023.482-4.436 0-7.908 2.893-12.344 2.604-.577.387-1.64.387-2.218.483-4.725 1.64-10.22 1.35-15.043 1.253-2.218-.578-4.92 0-6.85-.964-5.978-1.06-11.763-3.472-17.452-5.015-2.7-1.06-5.207-2.7-7.715-4.05-2.797-1.544-6.076-2.604-8.1-5.4 0-.193 0-.482.19-.58 4.344 2.797 8.876 5.304 13.698 7.426zM1309.928 1227.38c1.736 2.026 2.895 4.052 4.63 6.463.29 2.313 1.93 2.313 1.544 4.146-1.545 2.12-2.412 1.06-4.244 1.155-5.98-.77-13.02.482-18.805.868-5.207-.386-8.1.386-15.236.58-1.832.77-4.436.288-6.46 0-2.122.867-5.69.48-8.005-.194-7.715.964-14.078.192-21.6.578-.58-.097-1.447.386-1.062-.29 0-.096.098-.48.098-.578.19-.192.29-.482.482-.868-.098-.675-.193.29.29.29.866-1.062 1.25-2.99 2.698-2.99.77-1.06 1.543-1.64 2.41-1.93 1.736-1.638 2.7-3.085 5.016-3.085 3.953-3.182 8.97-2.796 13.5-2.796 4.533 1.544 8.293 3.954 12.15 8.97 1.64-1.833 1.543-4.34 2.604-4.822.676-1.64 1.93-2.99 3.473-4.63 3.085-2.12 5.786-2.506 9.065-3.76 3.762-2.604 7.81 1.254 11.572-.192 1.928.386 3.664 2.41 5.88 3.085zm-56.895 4.823c-2.12 2.796-4.05 1.253-5.787 5.11-.29.193-.578.386-1.06.097-3.665 1.64.29 1.832 1.83 1.93 3.185-1.062 4.728.192 7.91.096 3.278-1.06 7.038.386 10.51-.58 1.062-.288 1.833-.096 2.798-.096 2.12-.48 3.568.482 7.81 0-2.99-2.507-3.663-3.182-5.206-4.242-2.22-.965-4.244-2.508-6.268-3.665-4.34-.964-8.873-.193-12.537 1.35zm31.533-2.797c-2.604 2.508-3.566 4.243-6.076 9.45 2.7 0 4.05-.867 5.21-.48 4.82-2.026 9.257.866 14.27-.387 3.182-1.16 6.56 0 9.838-1.16 1.156.58 4.627.58 5.494.194.098-.193-.867-1.157-.578-2.41-1.35-1.93-2.604-4.05-3.664-6.365-2.12-.193-3.375-.58-4.82-1.447-3.088-.578-6.463-2.314-9.838-1.157s-6.652 2.12-9.836 3.76zM1314.365 1205.684c-.965 2.122-3.28 2.315-4.92 3.472-2.217 1.158-4.627 2.314-7.135 2.604-.676.386-1.64.482-2.41.578-6.46 1.157-12.73 3.762-19.48 3.954-4.63.964-9.74.48-14.754.386-4.146 0-9.45-1.157-13.598-2.99-2.023-.48-4.242-1.253-5.69-2.507-2.12-.577-3.76-2.12-5.59-3.277-.388-.676-.87-1.35-.87-2.025 0-.097-.096-.193-.096-.193 1.93.482 3.76 1.93 5.69 3.086 1.542.87 2.41 2.027 4.05 2.412 2.795.58 5.014 2.508 7.906 2.314 5.305 1.35 11.09 1.254 17.455.868-.965-2.218.674-3.086-.098-4.436.098-.58.193-.965.387-1.35.29-.29.482-.58.867-.29l.48.48c-.19.58.194.966.483 1.255-.29 1.254 0 2.508-.19 4.05 4.724.482 7.905-.867 11.763-1.06 1.64-.772 4.146-.965 6.172-1.544 1.832-.58 4.05-.58 5.785-1.64 1.447.192 3.086-.29 4.244-1.736 2.508.097 4.436-1.735 7.328-2.314v-.482c.482-.192 1.447-1.253 2.604-.867-.096.482-.193.868-.385 1.254zM1250.912 1177.72c1.06 0 2.604-.097 3.76-.193 2.797-1.735 7.137 0 10.416.386 2.023-1.157 5.4-.482 7.52-.675 3.087-.772 7.138.192 10.704.192 6.27 0 13.502-.192 19.77-.482.965-.096 1.928-.675 2.797-.29.095.098.19-.095.288-.095-2.217 1.446-4.918 1.542-7.137 2.507-3.18 2.797-6.845 4.243-10.22 6.364-4.05 1.833-8.197 3.183-11.86 5.98-1.16.578-2.22 1.253-3.376 1.83l-2.797 1.352 3.182.192c7.52.482 14.56-1.35 22.276-.29 3.084 0 5.977-1.253 8.967-.675.77-.096 1.736 0 2.412 0-.098.193 0 .58-.098.676-.77 0-1.447.19-2.12.674-.772.386-1.737.386-2.605.578-2.604.29-5.207-.096-7.81.482-7.042.193-13.888-.675-20.735.097-3.182-.578-6.363 1.062-9.45.194-2.024.48-4.628-.58-6.17.578-4.63-.482-9.163-1.253-13.983-1.253-1.062-.388-2.7 0-3.184-1.16-.096-.095.58-1.06.58-.577 5.205-1.35 9.643 1.736 15.62 1.06 3.087-.385 6.27 0 9.548-.963.965-1.35 2.41-1.254 3.47-2.122 1.93-.29 3.858-.77 5.112-2.122 4.918-2.41 9.934-3.278 13.887-6.846 1.156-.482 2.314-1.062 3.568-2.122 0-.29 2.797-1.543 2.797-1.832-.096-.192-2.99.482-2.99.097-3.76 0-7.232-.676-10.223.386-5.4-1.352-10.993-1.448-16.78-.194-4.146-.48-8.39-1.062-12.44-.29-3.374-1.445-7.134 1.544-10.222-1.156-.29-.868-1.83-.58-1.734-1.64 3.28-.58 6.075 1.253 9.258 1.35zM1297.777 1128.73c-.19-.096.87-.287 1.254-.19h.772c.58.19 1.35.48 1.93.385 1.35.58 2.7.29 3.857.868 2.313 1.06 5.4 2.025 7.905 4.146 1.543 1.64 3.568 2.313 5.11 3.76.29.867.677 1.254.483 2.025-1.543.096-2.314-2.122-3.76-2.7-1.062-.965-2.605-1.254-3.473-2.508-.193-.097-.578-.482-.77-.578-.194-.098-.29-.29-.29-.29-.098 0-.482-.193-.482-.29-.87-.868-1.158-.964-1.158-.578-.674-.193-1.156-.676-1.83-.58-.29-.096-.58-.288-.773-.577-1.156.193-1.445-.386-2.023-.482-1.062-.58-2.702 0-3.858-.386-.578.097-1.06-.482-1.736-.385-2.314-.676-3.28-.098-5.785.096-3.183 1.157-3.278.868-5.304 1.64-1.543.578-2.41.77-3.857 1.446-1.448.676-2.026 1.446-3.472 2.122-1.352.578-2.22.385-3.473.867-1.447.578-2.314 1.254-3.664 1.832-1.35.675-2.41.965-3.952 1.64-1.447.868-2.22 1.735-3.955 2.218-.48 0-1.156.097-1.64.097-.48-.097-1.06.096-1.35.096-.288.098-.77-.096-1.06-.192-1.736.58-2.7-.578-4.533-.386-1.736-.482-3.47-.675-5.498-1.35-1.928-1.062-4.436-1.543-6.557-2.99-2.217-1.157-4.436-2.893-6.074-5.015-.192-.29-.964-1.06-.288-.964 1.734.77 3.28 2.506 5.11 3.182 4.917 3.086 10.028 4.918 15.14 5.4.578.29 1.254 0 1.93.29.963 0 2.312.288 3.375.095 3.47.387 2.7-1.156 4.146-1.735 1.543-.578 2.506-.482 3.857-1.157.965-.578 1.445-1.254 2.604-1.735.963-.58 1.64-1.06 2.893-1.254 2.893-.29 2.99-.867 4.436-2.122.676-.386 1.06-.867 1.832-1.156.676-.58 1.254-.29 2.12-.58 1.16-.288 1.737-.674 2.896-1.06 1.062-.386 2.218-.868 2.798-.868 2.023-.867 3.182-.29 5.11-.482.58-.002 1.157.383 1.06.383zM1313.883 1116.292c.29.097.482.192.674.386-.867 2.218-3.47.965-5.496 1.543-1.733.29-3.374 0-5.108.098-4.727.096-9.45-.097-13.984 0-2.41 0-5.592.192-8.1-.097-1.64-.192-3.666 0-5.305.098-3.953.385-7.713 0-11.86.29-.192-.194-.386-.194-.58-.194-1.735.87-3.663.097-5.304.387-3.954.193-7.716.58-11.573.58-2.7-1.158-5.494.578-8.293-.097-.385-.098.58-1.158.87-1.158 4.24-2.893 9.16 1.158 13.886-.192 5.592-1.543 11.86-.965 17.357-1.254s10.703.192 16.297 0c1.543-.194 3.086-.194 4.727-.194.386 0 .868.097 1.253.097 4.244-.097 8.486-.097 12.248-.675 2.892.77 5.303.287 8.293.384zM1321.5 1095.367c1.254 1.06 0 .963-.193 1.35-5.398 4.725-12.92 3.76-18.707 7.52-4.146 1.544-8.582 2.122-12.633 3.087-3.182.097-6.074 1.446-9.064.868-.965.77-2.412 0-3.47.386-6.944 0-10.9-1.35-16.298-2.508-1.834.193-3.762-.386-5.21-1.64-2.505.29-4.532-.48-6.362-1.446-4.436-1.64-8.873-3.375-12.055-6.46 0 .096-.578-.194-.29-.387.772-.48 1.64.386 2.41.77 4.534.387 7.427 3.666 11.476 4.63 1.834.965 3.857.965 5.594 1.64 7.426 1.93 12.344 3.568 20.156 3.664.096 0 .29-.674.29.098 6.65-.386 12.34-1.93 18.417-2.604 6.173-1.93 12.345-4.147 18.515-6.076 1.64-1.06 3.568-1.93 5.69-2.7.58 0 1.64-1.06 1.93-.674.094 0 .77 0-.195.483zM1309.445 1064.99c-1.156.868-2.7 1.446-3.855 2.41-4.727 1.35-9.836 2.605-14.947 2.605-3.666.578-7.426 1.35-10.994 2.218-1.93-.192-4.147-.578-6.364-.097-.29.77-.29 1.062-1.447 1.35 1.06 2.797 3.276 4.726 4.34 6.75.577.29 1.155 1.063.964 1.737-.387 1.157.19 1.157.867 1.832.868 0 1.64.096 2.41.48 2.026-.674 3.57-.674 5.208-.095 1.832 1.06 3.377.29 5.4 0 3.857-.58 7.52-1.447 11.477-1.64 3.086-.097 6.172-.097 9.45-.097.29.097.58.193.48.482 0 .29-.384.58-.673.675-4.822.29-9.45.482-13.695 1.833-3.182-.097-5.785.867-8.773.578-7.137-.674-14.658 0-21.408.87-2.99-.677-5.305.577-8.197.385-7.522-.58-15.335-.58-21.987-2.797-.965-.29-.482-1.06-.965-1.736.096-.29.578 0 .77-.096 2.315.482 4.34 1.543 6.655 1.446l.19.192c3.956-.192 7.62 1.062 11.09.868 2.606 1.446 5.5-.386 8.294.097 3.568.577 6.56-.676 10.03-1.158.48-.386 1.157-.77 1.83-1.543-1.155-3.087-4.724-5.016-5.108-7.522.48 0-.677-.77-.194-2.314-2.99-.868-5.4.29-7.62-.77-1.83-.483-3.663.48-5.59-.58-2.605 1.254-4.92.097-7.427.29-1.448-1.254-2.026 1.253-3.76.096-1.642.482-3.858.77-5.21 0 .098-.386.098-.675 0-1.06 1.447-.868 3.473.288 4.918-.868 2.12-.193 3.666.964 5.785.578 6.174-1.157 13.02.192 19.287-.193 4.34-.192 9.066.482 13.213-.964 6.557-1.06 13.404-1.93 19.576-3.183 1.54-.964 3.374-2.024 5.302-1.93.29.292.578.484.673.87zM1250.912 1011.566c1.06 0 2.604-.097 3.76-.192 2.797-1.736 7.137 0 10.416.386 2.023-1.158 5.4-.482 7.52-.676 3.087-.77 7.138.193 10.704.193 6.27 0 13.502-.193 19.77-.482.965-.097 1.928-.675 2.797-.29.095.097.19-.096.288-.096-2.217 1.445-4.918 1.542-7.137 2.506-3.18 2.797-6.845 4.243-10.22 6.365-4.05 1.833-8.197 3.183-11.86 5.98-1.16.578-2.22 1.254-3.376 1.832l-2.797 1.35 3.182.193c7.52.482 14.56-1.35 22.276-.29 3.084 0 5.977-1.253 8.967-.674.77-.096 1.736 0 2.412 0-.098.193 0 .58-.098.676-.77 0-1.447.192-2.12.675-.772.387-1.737.387-2.605.58-2.604.29-5.207-.097-7.81.48-7.042.194-13.888-.674-20.735.098-3.182-.578-6.363 1.06-9.45.193-2.024.483-4.628-.578-6.17.58-4.63-.483-9.163-1.255-13.983-1.255-1.062-.385-2.7 0-3.184-1.157-.096-.096.58-1.06.58-.578 5.205-1.35 9.643 1.735 15.62 1.06 3.087-.385 6.27 0 9.548-.963.965-1.35 2.41-1.254 3.47-2.122 1.93-.29 3.858-.77 5.112-2.12 4.918-2.412 9.934-3.28 13.887-6.848 1.156-.482 2.314-1.06 3.568-2.122 0-.29 2.797-1.543 2.797-1.832-.096-.193-2.99.482-2.99.097-3.76 0-7.232-.676-10.223.386-5.4-1.35-10.993-1.446-16.78-.193-4.146-.482-8.39-1.06-12.44-.29-3.374-1.445-7.134 1.544-10.222-1.156-.29-.868-1.83-.578-1.734-1.64 3.28-.58 6.075 1.253 9.258 1.35zM1313.883 998.065c.29.097.482.193.674.387-.867 2.218-3.47.964-5.496 1.542-1.733.29-3.374 0-5.108.097-4.727.098-9.45-.096-13.984 0-2.41 0-5.592.194-8.1-.096-1.64-.192-3.666 0-5.305.097-3.953.387-7.713 0-11.86.29-.192-.192-.386-.192-.58-.192-1.735.868-3.663.097-5.304.386-3.954.193-7.716.58-11.573.58-2.7-1.16-5.494.577-8.293-.098-.385-.097.58-1.157.87-1.157 4.24-2.894 9.16 1.156 13.886-.194 5.592-1.543 11.86-.964 17.357-1.253 5.496-.29 10.703.192 16.297 0 1.543-.193 3.086-.193 4.727-.193.386 0 .868.097 1.253.097 4.244-.097 8.486-.097 12.248-.675 2.892.77 5.303.288 8.293.383zM1324.395 970.487c-1.834 2.41-4.727 3.568-6.752 6.172-2.988 3.085-7.426 5.11-10.51 7.328-1.543.867-3.762 1.157-5.594 2.217-1.157 0-1.93.482-2.894.772 0-.097-.193 0-.29-.097-1.253.868-2.507 1.06-2.892 1.157 0 0-.387.578-1.158.29-3.762.77-6.654 2.024-10.414 1.928-4.34.77-9.55-.097-13.695-.482-1.06-.29-2.023-.385-2.988-.385-.58-.386-.966-.097-1.93-.868-.77.578-1.446-.097-1.93-.193-3.085.193-3.567-1.735-6.556-1.93-2.314-1.156-5.21-1.928-7.908-3.277-3.086-1.93-6.654-3.664-9.45-5.883-2.798-2.218-5.497-4.532-7.427-7.425-.192-.29-1.062-1.254-.29-.868 2.605 1.446 4.146 3.76 6.848 5.207 6.56 5.016 13.982 8.584 21.602 11.38.867.482 2.025.482 2.893 1.062 1.736.386 3.28 1.06 5.014 1.157 5.498 1.253 10.607.288 16.105.48 3.953-.675 8.775-.48 12.344-2.314 1.252 0 1.35-1.06 2.604-.867 1.445-.87 4.05-.677 5.69-1.833.962-.193 1.542-1.062 2.892-1.35.387-.676 1.156-.676 1.734-.965.965.096 1.352-1.062 2.316-1.64.482.29 1.06-.097 1.54-.58 0-.577.388-.48.677-.48.192-.193.48-.58.577-.868.193-.097.29-.097.676-.097 1.158-2.41 3.375-2.7 4.63-4.532 1.927-1.157 2.507-3.954 4.82-4.243.48.77-.097 1.35-.288 2.025zM1316.582 935.29c.098.29.098.675 0 .964-.578.29-.963.386-1.734.58-.482.096-.965.096-1.447.096-1.735.386-2.796.578-4.628 1.156-.385.194-.578.386-.963.58-.483 0-.677-.098-1.16-.098-2.024-.097-4.726.676-5.206.482-4.822.867-4.146 1.253-9.645 1.543-3.954.192-6.847.58-10.51.964 0 1.93-1.255 3.76-1.544 5.497-.098.964-.193 1.446-.387 2.41-.388 1.254-1.16 1.833-.966 3.183 0 2.7.193.868-1.35 3.568-.19.29-.29.675-1.35 2.12 2.314-.19 3.086-.385 4.146-.577 1.447.964 4.05.096 6.363.192 6.076.29 11.86-.578 17.36-.29 5.11.193 10.124-.77 14.657-.288.096.29.096.675.096 1.06-.387 2.315-3.086.58-4.146 1.062-4.822.386-9.258.386-14.658.386-6.557.193-13.115-.386-19.768.097-4.533.386-8.486-.29-12.635.482-7.04-1.158-14.175 2.313-21.118.674-1.736-.097-3.473.578-5.207.097-.87-.48-3.955-.192-2.314-1.542 5.4-.58 10.993.096 16.49-.097 8.1-.385 3.183-.77 5.304-.963 2.797-.29 4.436-.193 7.328-.193 2.604 0 4.05.29 6.848 0 .578-1.35.965-2.12 1.543-3.278 1.254-2.41.387.964.965-3.568.193-1.446.29-1.832.29-3.278 0-1.254.577-1.833.866-3.086.29-.868.193-1.832.385-3.472-1.253 0-1.638.097-2.218.097-2.025-.58-4.822 1.445-6.654-.29-2.314-.193-3.568-.386-5.496.385-1.35-.096-2.797-.288-4.533-.48-.386-.194-.964.288-1.35.288-1.544.868-2.51-1.64-3.954-.482-.676 0-1.35.676-2.025-.288-3.18.868-5.688.578-8.39-1.157-.867.387-1.252-.193-1.64-.675-.095-.097-.19-.29-.095-.482.29-.77.77.386.963.29 0 0 .58.48 1.158-.098.578-.482 1.06.77 1.64.482 3.665.87 7.618.87 11.38.387 3.664.866 9.064 0 12.535.866.868-.097 1.64-.77 2.99 0 1.157-1.254 2.605-.29 3.472-.867 4.436-.1 8.97-.483 13.404-.58 4.34 0 2.893-.676 6.172-1.157.676.192 1.736-.29 2.217.096 1.254-.193 2.412-.193 3.666-.387 2.605-.385 6.173-.578 8.485-1.157.387.193.87-.096 1.545-.867-.387-.87.674-.387.674-.58 1.062-.39 2.51.576 4.148.19zM1231.625 908.482c.193 1.64.867 2.796 1.158 4.532-.58 2.604-.098 4.918.867 8.1 1.35-.675 2.314-.48 2.797-.29 1.832-.19 4.146.29 5.98.194 1.735-.386 3.856-.58 5.59-.58 2.702-1.35 6.077-1.734 8.778-2.312 1.543.386 3.375 0 4.82.192 6.56 0 13.31-1.64 19.48-2.508 1.156.098 2.893-.192 3.953.098.193-.098.676-.098.77-.193 4.823-.193 8.68-.29 13.5-.29 2.22 0 4.15.386 6.173.483h-.095c-2.508 1.83-5.98 1.156-8.68 1.735-3.953-.965-8.1 1.06-12.342-.58-2.508 2.605-5.498.58-8.102 1.448-2.41-.29-5.304-.192-7.327 1.062-.965-.097-1.834.29-3.184-.193-2.315 1.35-5.208.675-7.618.675-3.953-.87-7.137 1.735-10.898 1.253-2.7 1.35-5.785 1.157-8.87 1.157-.964-1.06-2.51-.097-4.437-2.218-.674 4.243-.29 6.75-.482 9.354.482 2.026-.29 4.244 0 6.463-.096.097-.096.192-.19.29-.774-.098-.966-.966-1.257-1.544.58-1.93.482-3.858 0-5.787-.385-.482 0-1.35.098-2.314-1.06-1.447-.193-3.568-.965-4.92.483-1.542-.192-3.182-.095-4.725-.867-1.543.29-3.567-.578-5.11 0-1.35-1.834-2.7-.29-3.76.097-.1.29-.194.48-.29.39.095.872.19.968.577zM1307.035 900.768c0 .482-.674.77-1.06.867-1.446.965-3.472.097-5.015.868-.482 0-.867-.193-1.158-.48 0-.483.193-.677.387-.87 1.35-.385 2.698-2.603 4.34-.964 1.25-.097 1.83.19 2.505.578z"/></g><path d="M2048 0M2048 1536M0 1536M0 0" fill="none" stroke="#17192D" stroke-width="3"/></g></svg>