<svg xmlns="http://www.w3.org/2000/svg" width="2048" height="1536" viewBox="0 0 2048 1536"><g><g fill="#FF0050"><path d="M1156.287 1481.6c3.568-.288 6.27 1.158 9.547 1.93.676.578 1.35.578 1.35.48.193.098 1.447.387 2.508.966l.29.097c1.446.77 1.542.675 2.603.77 1.736 1.158 3.955 1.35 5.4 2.41 2.895 2.123 7.137 4.147 9.74 7.233 1.832 2.314 3.664 3.568 5.305 5.883.096.578.482 1.156.096 1.83-.77 0-.29.677-1.447-1.06l-.192-.386c-1.062.29-1.93.77-2.604.965-1.64 0-4.146 0-5.885.19-1.06-.288-2.796.387-3.76 0-4.823.29-11.09.483-16.394.098-1.254.578-2.99.192-4.146.096-5.016-.29-9.547-1.832-14.08-1.35-3.086-.097-6.75.868-10.03-.386-2.313.29-5.978-.29-7.81-.192-.096 0-.193.192-.29.29-4.726-.58-10.8.19-15.33-.29-.483-.193-.87-.868-.194-.965 9.256-.77 20.926-.867 30.666-.096 2.217-.193 5.592.29 7.906-.096.098.096.193.192.29.29 3.567 0 6.46.674 10.124 1.06.387-.29.77-.097 1.062.097 5.398.29 13.018-.482 18.225-.097 2.892-1.35 5.978.77 8.774-.675.29-.482.29.964 2.22-.386-.58-.193-1.16-1.157-.87-1.157-.77-1.543-2.988-1.35-4.05-4.436-.577.578-.386-.29-.868-.29 0 0-.482-.29-.674-.386-.098-.097-.482-.193-.482-.964-.965 0-1.158-.29-1.447-.097-.963-.386-.963-1.735-2.12-1.735-.483-.193-1.16-.386-1.448-.772-1.156-.29-1.64-1.446-2.7-1.64-1.542-1.06-3.856-.867-5.11-1.735-1.06 0-1.156-.867-2.41-.964-3.375-1.83-7.812-1.83-11.38-2.603-5.208 0-9.933-1.062-15.235 0-1.736 0-3.28.675-4.822.964-.867.58-1.928.387-2.797.87-7.134 2.217-14.366 5.11-20.54 10.028-2.506 1.254-3.76 3.857-6.363 5.11-.578.386-.193-.48 0-.77 1.928-2.605 4.533-5.4 7.232-7.426 2.603-1.93 6.073-3.375 8.968-5.11 2.604-1.158 5.398-1.93 7.617-2.894 2.797-.193 3.375-1.93 6.268-1.64.58-.097 1.062-.482 2.123-.386.48-.386.867-.193 1.543-.482.866 0 1.83 0 2.892-.29 3.854-.188 8.674-.768 12.725.1zM1185.7 1469.45c.288.097.48.192.675.386-.867 2.218-3.473.964-5.496 1.543-1.737.288-3.376 0-5.112.096-4.727.096-9.45-.097-13.982 0-2.412 0-5.594.192-8.102-.097-1.64-.194-3.664 0-5.305.096-3.954.386-7.714 0-11.862.29-.19-.194-.385-.194-.578-.194-1.734.868-3.664.097-5.303.386-3.953.193-7.715.58-11.572.58-2.7-1.158-5.496.577-8.293-.098-.387-.096.578-1.157.867-1.157 4.243-2.894 9.16 1.157 13.886-.192 5.594-1.542 11.86-.964 17.357-1.253s10.705.192 16.297 0c1.543-.193 3.086-.193 4.727-.193.385 0 .867.097 1.254.097 4.243-.096 8.487-.096 12.247-.674 2.892.77 5.302.288 8.292.384zM1186.182 1450.453c-.965 2.122-3.28 2.314-4.918 3.472-2.22 1.157-4.63 2.314-7.137 2.604-.674.386-1.64.48-2.41.578-6.46 1.157-12.73 3.76-19.48 3.954-4.63.964-9.738.482-14.754.386-4.146 0-9.45-1.157-13.596-2.99-2.025-.48-4.244-1.253-5.69-2.507-2.122-.578-3.76-2.12-5.593-3.278-.387-.675-.867-1.35-.867-2.024 0-.096-.098-.193-.098-.193 1.93.482 3.76 1.93 5.688 3.087 1.543.867 2.412 2.024 4.05 2.41 2.798.578 5.017 2.507 7.91 2.314 5.302 1.35 11.087 1.254 17.452.868-.963-2.218.676-3.086-.096-4.437.096-.578.193-.964.385-1.35.288-.29.48-.58.866-.29l.482.483c-.19.578.193.964.482 1.253-.29 1.254 0 2.507-.19 4.05 4.724.483 7.905-.867 11.763-1.06 1.64-.772 4.146-.966 6.172-1.544 1.832-.58 4.05-.58 5.787-1.64 1.445.192 3.084-.29 4.242-1.736 2.508.097 4.436-1.735 7.328-2.313v-.48c.482-.194 1.447-1.255 2.604-.87-.095.483-.19.868-.384 1.253zM1181.746 1402.045c1.734 2.025 2.893 4.05 4.63 6.46.288 2.315 1.927 2.315 1.542 4.148-1.543 2.12-2.41 1.06-4.244 1.156-5.98-.772-13.018.48-18.803.867-5.208-.386-8.1.386-15.235.58-1.834.77-4.438.288-6.463 0-2.12.866-5.69.48-8.004-.194-7.715.964-14.078.193-21.6.578-.58-.095-1.447.387-1.062-.288 0-.096.098-.48.098-.578.19-.193.29-.482.482-.868-.098-.675-.193.29.29.29.866-1.062 1.253-2.99 2.698-2.99.77-1.06 1.543-1.64 2.412-1.93 1.734-1.64 2.7-3.085 5.014-3.085 3.953-3.18 8.97-2.795 13.5-2.795 4.533 1.543 8.295 3.953 12.152 8.968 1.64-1.832 1.543-4.34 2.602-4.82.676-1.64 1.93-2.99 3.473-4.63 3.086-2.12 5.787-2.508 9.064-3.76 3.763-2.605 7.812 1.252 11.573-.194 1.93.385 3.664 2.41 5.883 3.085zm-56.896 4.822c-2.12 2.796-4.05 1.253-5.785 5.11-.29.193-.578.386-1.06.097-3.665 1.64.288 1.832 1.83 1.93 3.183-1.062 4.726.19 7.91.096 3.276-1.062 7.038.385 10.51-.58 1.06-.288 1.83-.096 2.796-.096 2.122-.48 3.57.482 7.812 0-2.988-2.507-3.664-3.182-5.207-4.243-2.217-.963-4.242-2.506-6.268-3.663-4.34-.965-8.873-.193-12.537 1.35zm31.535-2.797c-2.604 2.507-3.568 4.243-6.076 9.45 2.7 0 4.05-.867 5.206-.482 4.822-2.024 9.258.868 14.273-.385 3.18-1.158 6.556 0 9.835-1.158 1.156.58 4.63.58 5.496.193.097-.193-.866-1.157-.577-2.41-1.352-1.93-2.604-4.05-3.664-6.365-2.124-.193-3.376-.58-4.823-1.446-3.086-.58-6.46-2.314-9.836-1.157s-6.654 2.12-9.835 3.76zM1120.03 1382.952c1.444.192 2.41 1.64 4.048 1.64 3.086 1.543 5.98 2.313 9.74 2.507.58.288 1.543.385 2.22.577 2.12.193 4.048 1.157 6.075 1.157 1.252.386 2.988-.29 4.146 1.254 1.54-.386 2.698-.77 3.663-1.254.385-.77 1.445-1.735 1.35-2.797.674-1.06.096-1.93.578-3.278.58-1.833.58-2.894 1.544-4.822.482-.386.965-.77 1.543-.675.385.964 0 2.12 0 3.278-1.254 2.508-1.06 3.858-1.928 7.137.77.482.48.868.77 1.062 2.41.384 5.014.095 7.04-.387 1.253.192 2.313-.29 4.24-.29.388-1.157 1.255-.29 1.833-.578 3.473-.29 6.56-2.218 10.127-2.41 1.54-1.35 4.146-1.158 5.688-2.315 1.834.193 2.8-2.218 5.11-1.64 1.16-.868 2.22-1.928 3.667-1.928.385.29.77.578 1.156.964-.19 1.446-1.83 1.543-2.892 2.314-1.64.192-3.184.578-4.34 1.64-2.12-.097-3.375 1.735-5.4 1.64-.77.48-1.543.578-2.12.964-.772-.097-1.448.192-2.026.48-4.436 0-7.908 2.895-12.344 2.605-.578.385-1.64.385-2.217.48-4.726 1.64-10.222 1.35-15.042 1.254-2.22-.578-4.92 0-6.848-.964-5.98-1.06-11.766-3.472-17.455-5.015-2.7-1.06-5.207-2.7-7.715-4.05-2.795-1.544-6.074-2.605-8.1-5.4 0-.192 0-.482.193-.58 4.343 2.797 8.874 5.305 13.696 7.427zM1185.7 1364.534c.288.097.48.192.675.386-.867 2.218-3.473.964-5.496 1.543-1.737.29-3.376 0-5.112.097-4.727.096-9.45-.097-13.982 0-2.412 0-5.594.192-8.102-.097-1.64-.192-3.664 0-5.305.097-3.954.386-7.714 0-11.862.29-.19-.194-.385-.194-.578-.194-1.734.868-3.664.097-5.303.387-3.953.192-7.715.578-11.572.578-2.7-1.156-5.496.58-8.293-.096-.387-.097.578-1.157.867-1.157 4.243-2.893 9.16 1.157 13.886-.193 5.594-1.542 11.86-.964 17.357-1.253s10.705.194 16.297 0c1.543-.192 3.086-.192 4.727-.192.385 0 .867.097 1.254.097 4.243-.097 8.487-.097 12.247-.675 2.892.77 5.302.288 8.292.384zM1153.973 1339.463c3.762.29 7.62 1.156 11.67 1.64 4.916.578 10.027 1.156 14.656 3.47 2.41 2.412 5.4 3.665 7.33 6.848.288 1.736 1.542 1.447.964 3.57.096.288-.193 0-.193-.388-2.218.097-1.157-.48-2.796-2.7-2.508.772-4.34-.385-6.172.387-7.715-.483-14.37 0-21.89.77-1.833.868-4.147.868-6.27.578-1.35-.482-2.796.482-4.435.193-5.016-.288-10.61-.288-15.527.387-3.664-.193-7.232 0-10.992.385-1.447-.29-3.086-.77-5.11-.192-.58 1.35-1.255 1.062-.772 2.218-.193.193-.385.482-.676.675-.29-.096-.578 0-.867-.29.385-2.795 2.22-4.338 3.953-6.46 3.375-3.085 7.715-4.532 11.38-7.52 2.41-1.544 4.917-1.737 7.522-2.798 3.277-.48 6.943-.29 10.125-.964 2.7.674 5.303.482 8.1.193zm-15.237 2.41c-3.76-.192-6.365 1.543-9.932 2.604-.193.193-1.06 1.062-1.543 1.35-2.7 1.93-5.882 2.797-8.774 6.654 3.47-.288 5.207.966 6.846.29 2.412.29 4.533-.964 6.943-1.06 3.473 1.06 7.232.192 10.8.674 3.28.386 6.85-.385 10.224-.578 5.978-2.314 12.92-.675 19.093-1.35 2.988 0 6.46-.482 11.186.096-1.833-3.857-5.112-4.532-7.33-5.786-5.69-1.543-11.378-2.507-17.26-3.085-1.16-.192-2.605.29-3.667-.386-5.303.29-11.67-1.542-16.587.58zM1186.182 1321.333c-.965 2.122-3.28 2.314-4.918 3.472-2.22 1.157-4.63 2.314-7.137 2.604-.674.384-1.64.48-2.41.577-6.46 1.157-12.73 3.76-19.48 3.953-4.63.965-9.738.482-14.754.386-4.146 0-9.45-1.156-13.596-2.988-2.025-.482-4.244-1.254-5.69-2.508-2.122-.58-3.76-2.122-5.593-3.278-.387-.676-.867-1.35-.867-2.025 0-.097-.098-.193-.098-.193 1.93.482 3.76 1.93 5.688 3.086 1.543.868 2.412 2.025 4.05 2.41 2.798.58 5.017 2.51 7.91 2.315 5.302 1.35 11.087 1.253 17.452.868-.963-2.22.676-3.086-.096-4.437.096-.578.193-.964.385-1.35.288-.29.48-.58.866-.29l.482.482c-.19.58.193.965.482 1.254-.29 1.254 0 2.507-.19 4.05 4.724.482 7.905-.867 11.763-1.06 1.64-.772 4.146-.965 6.172-1.544 1.832-.578 4.05-.578 5.787-1.64 1.445.193 3.084-.29 4.242-1.735 2.508.097 4.436-1.735 7.328-2.314v-.483c.482-.192 1.447-1.253 2.604-.867-.095.482-.19.867-.384 1.253zM1122.73 1293.368c1.06 0 2.603-.096 3.76-.192 2.798-1.736 7.136 0 10.415.386 2.025-1.157 5.4-.482 7.52-.675 3.087-.77 7.138.192 10.706.192 6.27 0 13.5-.193 19.77-.482.964-.097 1.93-.676 2.796-.29.098.097.193-.096.29-.096-2.218 1.446-4.92 1.542-7.136 2.507-3.184 2.795-6.848 4.242-10.223 6.363-4.05 1.832-8.197 3.183-11.86 5.98-1.16.578-2.218 1.253-3.376 1.832l-2.796 1.35 3.184.193c7.52.48 14.56-1.35 22.275-.29 3.086 0 5.98-1.253 8.97-.675.77-.097 1.733 0 2.41 0-.1.193 0 .58-.1.676-.77 0-1.444.19-2.118.674-.773.386-1.738.386-2.605.578-2.604.29-5.207-.097-7.81.482-7.042.193-13.888-.675-20.733.097-3.184-.578-6.365 1.062-9.45.193-2.026.482-4.63-.578-6.173.578-4.63-.48-9.162-1.252-13.982-1.252-1.06-.386-2.7 0-3.184-1.157-.096-.096.58-1.06.58-.577 5.207-1.35 9.643 1.735 15.62 1.06 3.087-.385 6.27 0 9.548-.964.965-1.35 2.412-1.255 3.473-2.122 1.927-.29 3.856-.77 5.108-2.122 4.92-2.41 9.934-3.278 13.89-6.847 1.155-.482 2.31-1.062 3.565-2.122 0-.29 2.797-1.543 2.797-1.832-.096-.193-2.988.48-2.988.096-3.762 0-7.232-.675-10.223.386-5.4-1.35-10.995-1.446-16.78-.192-4.146-.482-8.39-1.06-12.44-.29-3.374-1.446-7.136 1.544-10.222-1.156-.29-.868-1.832-.58-1.736-1.64 3.278-.58 6.075 1.252 9.257 1.348zM1111.06 1233.195c5.69.29 11.09 2.313 16.685 4.05 3.855.58 8.1.867 11.57 2.41 3.955.386 7.33 1.254 11.38 1.447 2.122.097 4.34-.386 5.98.77 4.53.965 9.064 1.833 13.307 3.376 4.436 2.314 10.03 1.64 14.37 4.725l-.29-.386c-7.137 1.93-14.176 3.857-21.504 4.726-4.63-1.157-8.97.965-13.695.58-8.195 1.542-16.2 1.83-24.3 2.698-1.93-.77-4.147.194-6.17.58-1.16.193-2.702.097-3.667-.58.29-1.928 3.184-.577 4.34-1.06 5.69.58 10.994-2.024 16.49-1.543 2.797-.096 5.303-.096 8.293-.578.384-.483.77-.483 1.06-.58 5.787-.48 12.248-.867 17.744-1.253 4.05-1.64 8.39-2.314 12.922-2.797l.096-1.35c-8.39-2.797-17.068-5.015-25.94-6.076-4.435.193-8.196-.867-12.15-1.446-5.98-2.797-13.5-1.445-19.188-4.726-3.666 0-7.33-2.023-10.8-2.506-.1 0 .288-.482.673-.772.962-.094 1.83.774 2.794.29zM1188.69 1196.938c2.41.288 4.05-.29 4.628.867 0 .097-.098.29-.098.386-3.566 2.026-8.195 1.16-12.342 2.315-7.33 1.06-14.852 1.64-21.602 3.375-1.543 2.122-3.28 5.015-2.22 7.812.1.096-.288 0-.673.675.674.964-.387 1.35-.387 2.12-.387 1.833-.193 4.147-.965 7.33 5.595 1.253 10.9 1.157 15.526 2.41 3.377.965 8.102-.577 11.477 1.158 1.254 0 2.797-.193 3.664.867.193.482-.674.482-1.06.482-3.954-.675-6.944-.386-10.704-.867-4.436-1.93-11.188-.29-16.008-2.218-1.736 0-4.436.48-5.787-.483-4.533-1.062-9.932.29-14.176-1.736-7.906.29-14.465-2.988-22.564-2.988-.387-.386-.387-1.06-1.254-1.157-2.314-.77-5.305.675-6.75-1.254.578-1.06 2.12-.577 3.28-1.445 9.737-2.122 18.706-6.364 28.638-8.196 2.8-1.352 6.27-1.737 9.355-2.99 1.06-.098 2.12-.29 3.084.096 1.93-.578 4.052-1.254 6.175-1.254 4.53-.096 8.582-2.218 13.307-1.833 1.447-.868 3.664-.192 5.207-.675 2.99-.29 6.075-1.06 8.872-1.832.578-.29.867-.48.963-.676.87-.385.965-.385 1.64-.288.003.092.774-.196.774-.002zm-36.454 7.81c-4.82 2.12-10.414 2.12-15.428 3.568-5.883 1.64-11.38 4.917-18.033 6.17 0 1.64.676 2.22 1.832 2.315 2.7.965 5.207 2.026 8.293 2.41 5.69.773 12.344.29 17.744 1.64 1.445 0 3.568 0 5.496.58.965-1.157 1.06-2.314 1.93-2.893 0-1.157.29-2.025.385-2.894.193-1.446.193-2.797.482-3.857.482-1.832.77-2.507.965-4.05 2.604-4.53-1.93-2.89-3.666-2.99zM1180.78 1175.238c-.288 2.025.1 3.762.772 5.4-.096.482-.482.964-.77 1.062-1.255 1.83 1.157 5.11-2.026 6.075-1.06.29-2.217-.193-3.086.578-3.375 1.254-4.436.29-7.715.58-2.893.19-6.363-1.255-9.16 0-1.543 0-2.797-.58-4.146-.772-3.665 1.35-7.812-.674-11.67.29-2.796.192-5.015-.964-7.81.29-.58.096-1.062.096-1.544.288-5.69 0-11.57-.578-17.164.097-2.797 0-5.496-.097-8.004-1.446-.482-.387.096-.966.578-1.158.676 0 1.64-.192 2.7.675 2.024-.867 3.858.097 5.593-.29 1.446.387 3.085.482 4.628.098 3.28-1.93 6.75.29 10.125.192 3.28-.097 6.56-1.35 9.934-.964 3.47.48 7.52.77 11.09.386 1.156-.387 2.506.19 3.568-.194 1.06.193 2.506.097 3.47.77 1.353-.19 2.99-.48 4.34-.866.772.385 1.93.29 2.605.48 3.664.29 4.436.772 7.81-.385 2.22.77 1.353-1.543 3.28-2.024 1.254-.48.578-1.06.578-1.735-.29-1.543 1.254-2.7.578-4.05-.482-1.254-.096-2.894-1.06-4.244-.097-.384-.097-.866.386-.866 1.252-.29 1.445.964 2.12 1.734zM1156.287 1144.767c3.568-.29 6.27 1.157 9.547 1.93.676.577 1.35.577 1.35.48.193.097 1.447.386 2.508.965l.29.097c1.446.77 1.542.674 2.603.77 1.736 1.158 3.955 1.35 5.4 2.41 2.895 2.123 7.137 4.147 9.74 7.233 1.832 2.314 3.664 3.568 5.305 5.884.096.578.482 1.156.096 1.83-.77 0-.29.677-1.447-1.06l-.192-.386c-1.062.29-1.93.772-2.604.966-1.64 0-4.146 0-5.885.192-1.06-.29-2.796.387-3.76 0-4.823.29-11.09.482-16.394.097-1.254.578-2.99.192-4.146.096-5.016-.287-9.547-1.83-14.08-1.35-3.086-.096-6.75.87-10.03-.384-2.313.288-5.978-.29-7.81-.194-.096 0-.193.194-.29.29-4.726-.578-10.8.192-15.33-.29-.483-.192-.87-.867-.194-.964 9.256-.77 20.926-.868 30.666-.097 2.217-.19 5.592.29 7.906-.095.098.096.193.192.29.29 3.567 0 6.46.674 10.124 1.06.387-.29.77-.097 1.062.097 5.398.29 13.018-.482 18.225-.096 2.892-1.35 5.978.77 8.774-.676.29-.482.29.964 2.22-.386-.58-.193-1.16-1.157-.87-1.157-.77-1.543-2.988-1.35-4.05-4.436-.577.58-.386-.29-.868-.29 0 0-.482-.288-.674-.385-.098-.097-.482-.193-.482-.964-.965 0-1.158-.288-1.447-.096-.963-.386-.963-1.735-2.12-1.735-.483-.194-1.16-.387-1.448-.772-1.156-.29-1.64-1.446-2.7-1.64-1.542-1.062-3.856-.868-5.11-1.735-1.06 0-1.156-.87-2.41-.965-3.375-1.832-7.812-1.832-11.38-2.604-5.208 0-9.933-1.062-15.235 0-1.736 0-3.28.675-4.822.965-.867.577-1.928.384-2.797.866-7.134 2.218-14.366 5.11-20.54 10.03-2.506 1.253-3.76 3.855-6.363 5.11-.578.386-.193-.482 0-.772 1.928-2.604 4.533-5.4 7.232-7.425 2.603-1.93 6.073-3.376 8.968-5.112 2.604-1.157 5.398-1.93 7.617-2.893 2.797-.193 3.375-1.93 6.268-1.64.58-.096 1.062-.482 2.123-.386.48-.387.867-.193 1.543-.483.866 0 1.83 0 2.892-.29 3.854-.19 8.674-.77 12.725.1zM1176.44 1124.034c-3.47 2.507-7.905 2.12-11.087 4.82-1.256.387-2.605 1.062-3.666 1.736-2.988-.097-6.076 1.832-10.125 3.665 2.604 1.06 4.53.77 5.883.386 5.69 0 10.703-.964 16.682-.096 1.64 0 3.666-.482 5.11.192 2.798.097 6.077-.675 8.487.676.096.097.096.097.193.192-2.025.58-4.63.386-6.654.29-1.736-.482-3.568.192-5.496.192-3.762.097-7.715-1.254-11.09.386-3.086.386-5.98-1.06-8.97 0-2.698.867-5.4-.482-7.907.77-4.63-.77-10.607.097-15.62-.77-5.69 0-11.478.386-17.07-.578-3.085-.097-4.34-.676-7.23-1.254-.1 0 .48-.675.48-.868 3.087-1.832 4.145-2.41 7.425-3.664 4.533-1.833 9.354-1.447 13.887-2.7 6.365.096 12.633.964 17.262 7.04 8.486-5.112 17.55-5.69 25.748-10.126 3.664-1.158 7.04-2.99 10.703-4.146.578 0 1.543-.387 2.22-.193-2.992 1.736-6.078 3.086-9.164 4.05zm-54.29 6.364c-1.254.386-2.797-.097-3.953.675-1.545-.193-2.99.675-4.244 1.157l-2.314 1.64c.866.097 4.243.386 5.206.578 1.254 1.254 3.473.675 5.016 1.062 7.135-.965 15.14.192 23.723-.193-1.254-1.543-2.508-1.93-3.182-2.604-1.352-1.35-5.11-2.796-7.62-3.856-4.34.577-8.97-.387-12.633 1.54zM1188.69 1084.978c2.41.29 4.05-.29 4.628.868 0 .097-.098.29-.098.386-3.566 2.025-8.195 1.157-12.342 2.314-7.33 1.06-14.852 1.64-21.602 3.375-1.543 2.123-3.28 5.016-2.22 7.813.1.097-.288 0-.673.675.674.964-.387 1.35-.387 2.12-.387 1.833-.193 4.147-.965 7.33 5.595 1.254 10.9 1.157 15.526 2.41 3.377.965 8.102-.578 11.477 1.158 1.254 0 2.797-.193 3.664.868.193.482-.674.482-1.06.482-3.954-.676-6.944-.387-10.704-.87-4.436-1.927-11.188-.288-16.008-2.217-1.736 0-4.436.48-5.787-.483-4.533-1.06-9.932.29-14.176-1.735-7.906.29-14.465-2.99-22.564-2.99-.387-.385-.387-1.06-1.254-1.156-2.314-.77-5.305.675-6.75-1.254.578-1.06 2.12-.578 3.28-1.446 9.737-2.122 18.706-6.364 28.638-8.196 2.8-1.35 6.27-1.736 9.355-2.99 1.06-.097 2.12-.29 3.084.097 1.93-.58 4.052-1.254 6.175-1.254 4.53-.096 8.582-2.218 13.307-1.832 1.447-.867 3.664-.19 5.207-.674 2.99-.29 6.075-1.06 8.872-1.832.578-.29.867-.482.963-.676.87-.386.965-.386 1.64-.29.003.096.774-.193.774 0zm-36.454 7.81c-4.82 2.122-10.414 2.122-15.428 3.568-5.883 1.64-11.38 4.92-18.033 6.172 0 1.64.676 2.218 1.832 2.314 2.7.965 5.207 2.025 8.293 2.41 5.69.772 12.344.29 17.744 1.64 1.445 0 3.568 0 5.496.58.965-1.158 1.06-2.315 1.93-2.894 0-1.157.29-2.025.385-2.893.193-1.447.193-2.798.482-3.857.482-1.833.77-2.508.965-4.05 2.604-4.533-1.93-2.893-3.666-2.99zM1153.973 1060.483c3.762.29 7.62 1.157 11.67 1.64 4.916.578 10.027 1.156 14.656 3.472 2.41 2.41 5.4 3.664 7.33 6.846.288 1.737 1.542 1.448.964 3.57.096.288-.193 0-.193-.387-2.218.097-1.157-.482-2.796-2.7-2.508.77-4.34-.386-6.172.387-7.715-.482-14.37 0-21.89.77-1.833.87-4.147.87-6.27.58-1.35-.482-2.796.48-4.435.192-5.016-.29-10.61-.29-15.527.387-3.664-.194-7.232 0-10.992.384-1.447-.29-3.086-.77-5.11-.192-.58 1.35-1.255 1.06-.772 2.218-.193.192-.385.482-.676.675-.29-.097-.578 0-.867-.29.385-2.795 2.22-4.34 3.953-6.46 3.375-3.086 7.715-4.532 11.38-7.52 2.41-1.544 4.917-1.737 7.522-2.798 3.277-.482 6.943-.29 10.125-.965 2.7.673 5.303.48 8.1.19zm-15.237 2.41c-3.76-.19-6.365 1.544-9.932 2.605-.193.192-1.06 1.06-1.543 1.35-2.7 1.93-5.882 2.797-8.774 6.654 3.47-.29 5.207.964 6.846.29 2.412.288 4.533-.965 6.943-1.062 3.473 1.06 7.232.192 10.8.675 3.28.386 6.85-.386 10.224-.578 5.978-2.314 12.92-.676 19.093-1.35 2.988 0 6.46-.483 11.186.096-1.833-3.857-5.112-4.532-7.33-5.786-5.69-1.543-11.378-2.508-17.26-3.086-1.16-.19-2.605.29-3.667-.385-5.303.29-11.67-1.543-16.587.58zM1182.13 1030.01c.772.387 1.544 0 2.413.194.674 0 1.156.192 1.734.578.098.482-.48.868-.77 1.35-.676.868-1.447-.48-1.64-.48-.194-.387-1.16.48-2.122-.966-1.93.58-3.664.58-5.014.193-2.7.288-5.69-.483-8.294.577-1.06.097-1.64 1.35-2.12 1.93-.097 0-.483 1.156-1.35 1.542-1.255 1.156-3.087 2.99-3.665 3.47-.48.483 0-.577-.868.387-.482.386-.29.58-.965 1.64-.867 1.06-2.604 2.893-2.988 3.375-.58 1.157-1.16 2.507-1.833 4.05 2.025 1.35 4.05.965 5.4 1.833 1.736.096 3.857.48 5.69.964 1.06-.87 1.83.192 2.603.192 1.06.578 2.7.482 3.953 1.06 2.41.387 4.533 1.833 7.232 1.35.965.194 2.123.58 3.086.87-.095.19-.192.385-.384.385-1.64.29-3.086-.58-4.533-.482-.385-.29-.674-.386-1.06-.29-.772-.096-1.544-.288-2.22-.288-1.54-.482-2.604.386-5.11-1.254 0 1.446.194.58.194.58-1.447-.388-3.473-.966-5.402-.87-1.156-.77-2.602-.48-3.76-.77-2.7-.29-4.533-1.35-7.137-1.157 0 0-.096-.097-.19-.097-.774-.482-1.642-.193-2.124-.676-5.883-1.64-11.86-3.278-17.744-4.918-1.35-.675-2.506-.965-3.953-1.543-1.928-.675-3.76-1.832-5.785-2.604s-3.953-2.026-6.27-2.7c-.578-.29-1.54.19-1.54-.772 0-.29-.29-.965-.1-1.06.677-1.063 2.605-1.063 3.57-1.544 2.313-.193 5.59-.676 8.388-1.254 1.06-1.254 2.7-.29 3.955-.77 4.725.19 9.643-2.22 15.043-1.544 6.848-1.06 14.465-1.64 20.926-1.06 4.92.382 9.84-.1 14.757.575zm-29.218 1.64c-1.254-.482-3.182.675-5.11.29-2.315-.387-4.82.385-7.136.77-2.22-.386-3.955.965-6.172.77-1.447.194-3.857.194-5.787.58-3.182.578-6.074 1.446-9.738 1.735 1.444 1.64 4.048 2.796 4.435 2.893 2.025.676 3.664 1.833 5.496 2.41 2.798.966 5.208 1.93 7.812 2.7 1.834.483 4.244 1.062 5.883 1.352 1.832-.097 4.436 1.542 6.943 1.93 1.447.19.77.866 2.797.288.77-1.832 1.928-3.086 2.604-4.726.866-1.157 1.35-1.254 2.603-2.604.867-.868 1.736-2.218 2.7-3.472.868-.964 2.024-2.025 2.604-2.7 0-.192 1.156-1.446 1.156-2.218-1.35-.29-2.893-.29-3.762-.386-2.6-.383-4.63.003-7.328.388zM1169.596 1006.674c-.193-.097.867-.29 1.254-.192h.77c.58.192 1.352.482 1.93.386 1.35.578 2.7.29 3.857.867 2.314 1.062 5.4 2.025 7.908 4.146 1.54 1.64 3.568 2.315 5.11 3.762.288.868.675 1.254.48 2.025-1.542.097-2.31-2.12-3.76-2.7-1.06-.964-2.603-1.253-3.472-2.507-.193-.097-.578-.482-.77-.58s-.29-.288-.29-.288c-.096 0-.482-.192-.482-.29-.866-.867-1.155-.964-1.155-.577-.676-.193-1.158-.676-1.832-.58-.29-.096-.58-.288-.77-.577-1.157.192-1.448-.386-2.026-.482-1.06-.58-2.7 0-3.857-.386-.578.097-1.06-.482-1.736-.386-2.314-.676-3.28-.097-5.785.097-3.183 1.158-3.28.868-5.306 1.64-1.543.58-2.41.77-3.857 1.446-1.445.676-2.023 1.447-3.47 2.122-1.35.578-2.22.386-3.474.868-1.445.578-2.312 1.253-3.664 1.832-1.35.675-2.41.964-3.954 1.64-1.447.868-2.22 1.735-3.953 2.218-.482 0-1.158.097-1.64.097-.483-.097-1.062.096-1.35.096-.29.096-.772-.097-1.062-.193-1.735.578-2.698-.58-4.532-.386-1.734-.48-3.47-.674-5.496-1.35-1.93-1.06-4.436-1.543-6.56-2.99-2.216-1.156-4.435-2.892-6.073-5.014-.194-.29-.966-1.06-.29-.964 1.736.77 3.28 2.507 5.11 3.183 4.92 3.085 10.03 4.917 15.142 5.4.578.29 1.252 0 1.928.29.965 0 2.314.288 3.375.095 3.47.387 2.7-1.157 4.146-1.735 1.544-.58 2.51-.482 3.858-1.157.965-.578 1.447-1.254 2.604-1.736.965-.578 1.64-1.06 2.893-1.253 2.893-.29 2.99-.87 4.438-2.123.674-.386 1.06-.867 1.83-1.157.676-.578 1.254-.29 2.123-.578 1.156-.29 1.734-.676 2.893-1.062 1.06-.385 2.218-.867 2.796-.867 2.025-.868 3.182-.29 5.11-.482.577-.002 1.155.384 1.06.384zM1180.78 958.168c-.288 2.025.1 3.76.772 5.4-.096.482-.482.965-.77 1.06-1.255 1.834 1.157 5.112-2.026 6.076-1.06.29-2.217-.192-3.086.58-3.375 1.252-4.436.288-7.715.578-2.893.192-6.363-1.254-9.16 0-1.543 0-2.797-.58-4.146-.772-3.665 1.35-7.812-.675-11.67.29-2.796.192-5.015-.965-7.81.29-.58.096-1.062.096-1.544.288-5.69 0-11.57-.578-17.164.097-2.797 0-5.496-.097-8.004-1.446-.482-.387.096-.966.578-1.158.676 0 1.64-.193 2.7.675 2.024-.868 3.858.097 5.593-.29 1.446.387 3.085.483 4.628.098 3.28-1.93 6.75.29 10.125.192 3.28-.097 6.56-1.35 9.934-.965 3.47.482 7.52.772 11.09.386 1.156-.386 2.506.193 3.568-.192 1.06.192 2.506.097 3.47.77 1.353-.19 2.99-.48 4.34-.867.772.385 1.93.288 2.605.48 3.664.29 4.436.772 7.81-.385 2.22.77 1.353-1.543 3.28-2.025 1.254-.482.578-1.06.578-1.735-.29-1.543 1.254-2.7.578-4.05-.482-1.254-.096-2.894-1.06-4.244-.097-.384-.097-.866.386-.866 1.252-.29 1.445.962 2.12 1.734zM1186.182 938.496c-.965 2.122-3.28 2.314-4.918 3.472-2.22 1.157-4.63 2.314-7.137 2.604-.674.386-1.64.482-2.41.578-6.46 1.158-12.73 3.762-19.48 3.954-4.63.965-9.738.482-14.754.386-4.146 0-9.45-1.157-13.596-2.99-2.025-.48-4.244-1.253-5.69-2.506-2.122-.58-3.76-2.122-5.593-3.28-.387-.674-.867-1.35-.867-2.024 0-.096-.098-.192-.098-.192 1.93.482 3.76 1.93 5.688 3.086 1.543.868 2.412 2.025 4.05 2.41 2.798.58 5.017 2.508 7.91 2.315 5.302 1.35 11.087 1.252 17.452.866-.963-2.218.676-3.085-.096-4.436.096-.578.193-.964.385-1.35.288-.29.48-.58.866-.29l.482.482c-.19.58.193.964.482 1.253-.29 1.255 0 2.508-.19 4.05 4.724.483 7.905-.866 11.763-1.06 1.64-.77 4.146-.965 6.172-1.543 1.832-.578 4.05-.578 5.787-1.64 1.445.192 3.084-.29 4.242-1.735 2.508.096 4.436-1.736 7.328-2.314v-.482c.482-.19 1.447-1.253 2.604-.867-.095.482-.19.867-.384 1.253zM1181.746 916.22c1.734 2.026 2.893 4.052 4.63 6.463.288 2.313 1.927 2.313 1.542 4.146-1.543 2.12-2.41 1.06-4.244 1.155-5.98-.77-13.018.482-18.803.868-5.208-.386-8.1.386-15.235.58-1.834.77-4.438.288-6.463 0-2.12.866-5.69.48-8.004-.194-7.715.964-14.078.192-21.6.578-.58-.097-1.447.386-1.062-.29 0-.096.098-.48.098-.578.19-.192.29-.482.482-.868-.098-.675-.193.29.29.29.866-1.062 1.253-2.99 2.698-2.99.77-1.06 1.543-1.64 2.412-1.93 1.734-1.64 2.7-3.085 5.014-3.085 3.953-3.182 8.97-2.796 13.5-2.796 4.533 1.544 8.295 3.954 12.152 8.97 1.64-1.833 1.543-4.34 2.602-4.822.676-1.64 1.93-2.99 3.473-4.63 3.086-2.12 5.787-2.506 9.064-3.76 3.763-2.604 7.812 1.254 11.573-.192 1.93.385 3.664 2.41 5.883 3.085zm-56.896 4.823c-2.12 2.796-4.05 1.253-5.785 5.11-.29.193-.578.386-1.06.097-3.665 1.64.288 1.832 1.83 1.93 3.183-1.062 4.726.192 7.91.096 3.276-1.062 7.038.386 10.51-.58 1.06-.288 1.83-.096 2.796-.096 2.122-.48 3.57.482 7.812 0-2.988-2.507-3.664-3.182-5.207-4.243-2.217-.964-4.242-2.507-6.268-3.664-4.34-.964-8.873-.193-12.537 1.35zm31.535-2.797c-2.604 2.508-3.568 4.243-6.076 9.45 2.7 0 4.05-.867 5.206-.482 4.822-2.024 9.258.868 14.273-.385 3.18-1.16 6.556 0 9.835-1.16 1.156.58 4.63.58 5.496.194.097-.193-.866-1.157-.577-2.41-1.352-1.93-2.604-4.05-3.664-6.365-2.124-.193-3.376-.58-4.823-1.447-3.086-.58-6.46-2.314-9.836-1.157s-6.654 2.12-9.835 3.76zM1120.03 897.128c1.444.193 2.41 1.64 4.048 1.64 3.086 1.543 5.98 2.314 9.74 2.507.58.29 1.543.386 2.22.58 2.12.19 4.048 1.156 6.075 1.156 1.252.387 2.988-.29 4.146 1.254 1.54-.386 2.698-.77 3.663-1.253.385-.77 1.445-1.735 1.35-2.796.674-1.06.096-1.93.578-3.28.58-1.83.58-2.892 1.544-4.82.482-.386.965-.77 1.543-.675.385.963 0 2.12 0 3.277-1.254 2.508-1.06 3.857-1.928 7.137.77.48.48.867.77 1.06 2.41.387 5.014.098 7.04-.385 1.253.19 2.313-.29 4.24-.29.388-1.157 1.255-.29 1.833-.58 3.473-.288 6.56-2.217 10.127-2.41 1.54-1.35 4.146-1.156 5.688-2.314 1.834.193 2.8-2.218 5.11-1.64 1.16-.867 2.22-1.928 3.667-1.928.385.29.77.58 1.156.964-.19 1.447-1.83 1.543-2.892 2.314-1.64.193-3.184.58-4.34 1.64-2.12-.097-3.375 1.736-5.4 1.64-.77.48-1.543.578-2.12.964-.772-.097-1.448.193-2.026.482-4.436 0-7.908 2.893-12.344 2.604-.578.386-1.64.386-2.217.482-4.726 1.64-10.222 1.35-15.042 1.254-2.22-.58-4.92 0-6.848-.965-5.98-1.06-11.766-3.472-17.455-5.015-2.7-1.06-5.207-2.7-7.715-4.05-2.795-1.543-6.074-2.604-8.1-5.4 0-.192 0-.482.193-.578 4.343 2.795 8.874 5.302 13.696 7.424zM1122.73 863.667c1.06 0 2.603-.097 3.76-.193 2.798-1.735 7.136 0 10.415.386 2.025-1.157 5.4-.482 7.52-.675 3.087-.77 7.138.192 10.706.192 6.27 0 13.5-.192 19.77-.48.964-.098 1.93-.676 2.796-.29.098.096.193-.097.29-.097-2.218 1.446-4.92 1.542-7.136 2.507-3.184 2.797-6.848 4.243-10.223 6.365-4.05 1.832-8.197 3.182-11.86 5.98-1.16.578-2.218 1.253-3.376 1.83l-2.796 1.352 3.184.192c7.52.48 14.56-1.35 22.275-.29 3.086 0 5.98-1.253 8.97-.675.77-.095 1.733 0 2.41 0-.1.194 0 .58-.1.677-.77 0-1.444.192-2.118.675-.773.386-1.738.386-2.605.578-2.604.29-5.207-.096-7.81.482-7.042.193-13.888-.675-20.733.097-3.184-.58-6.365 1.06-9.45.192-2.026.482-4.63-.58-6.173.578-4.63-.482-9.162-1.253-13.982-1.253-1.06-.387-2.7 0-3.184-1.158-.096-.097.58-1.06.58-.58 5.207-1.35 9.643 1.737 15.62 1.062 3.087-.386 6.27 0 9.548-.964.965-1.35 2.412-1.254 3.473-2.122 1.927-.29 3.856-.77 5.108-2.122 4.92-2.41 9.934-3.278 13.89-6.846 1.155-.482 2.31-1.06 3.565-2.122 0-.29 2.797-1.543 2.797-1.832-.096-.192-2.988.482-2.988.097-3.762 0-7.232-.675-10.223.387-5.4-1.35-10.995-1.446-16.78-.193-4.146-.48-8.39-1.06-12.44-.29-3.374-1.445-7.136 1.544-10.222-1.156-.29-.868-1.832-.58-1.736-1.64 3.278-.58 6.075 1.252 9.257 1.35zM1135.457 802.143c2.7.482 4.918.965 7.812.578 5.013 2.123 10.8-.867 15.524 2.605 2.604.58 5.883.675 8.293 1.93 4.05 1.35 8.293 1.928 11.764 4.724 1.448 1.928 2.51 3.664 3.57 5.69-.192 1.927-.097 4.145-1.83 5.013-3.667 1.446-7.524 2.122-11.09 3.954-7.716.193-14.853 2.99-22.085 1.735-3.473.772-6.848-.096-10.318.482-5.98-.386-11.477-2.797-17.262-3.857-1.254-1.06-6.172-1.93-2.22-3.472 2.605-.48 4.245 1.447 6.56 2.025 1.35.29 2.604 1.832 4.146 1.832 5.884 1.06 10.993 2.122 17.358 1.35 5.496 1.35 11.477 0 16.973-1.156 5.208-.386 9.933-1.833 14.755-3.182 2.314-1.062 1.445-2.99 2.508-5.498-1.254-.867-.87-2.7-1.736-3.472-1.543-1.735-4.63-2.603-6.56-3.76-3.18-.482-6.362 0-8.677-1.832-2.604-.482-5.594.192-7.62-1.833-8.677-1.447-17.452-.773-25.552-2.798-4.727-.482-8.68-.674-12.537-3.085.194-.58 1.16-.29 1.544-.482 5.98-.385 10.802 2.99 16.683 2.508zM1188.883 762.606c-7.62 3.375-14.178 7.81-20.83 12.246-.58.29-.77 1.062-2.025 1.062-3.086 3.085-6.943 3.375-9.74 6.17-2.506 1.255-5.303 2.7-8.197 4.92.388.288 1.063.578 1.353.77 2.023.965 4.05.194 5.88.29 5.788.193 11.09-.77 16.202-.868 4.918 0 9.45-1.156 13.79-.674.097.19.097.482.097.867-.29 2.217-2.797.675-3.857 1.06-4.63.58-8.678.675-13.693.868-6.172.386-12.248.097-18.418.77-4.146.387-7.908 0-11.86.87-6.56-.772-13.214 2.603-19.77 1.252-1.544 0-3.087.77-4.726.386-.676-.48-3.762.097-2.22-1.35 5.017-.77 10.224 0 15.335-.676 7.715-.29 15.912-.77 21.6-5.69.965-.287 1.736-.963 2.412-1.445 2.41-1.446 5.014-2.507 7.04-4.628 2.024-.676 3.856-1.833 5.495-2.99 2.895-2.893 6.752-3.953 9.934-6.17 0-.387.29-.29.482-.387.867-.386 1.54-1.158 2.604-1.93 0-.384 2.795-.963 2.7-1.252s-3.28-.193-3.57-.386c-4.435.965-9.93 1.35-15.042 1.832-5.496.482-9.16 1.542-14.37 1.64-1.83-.386-4.435 1.445-6.267-.098-2.024 0-3.18-.095-4.82.482-1.446 0-2.894-.193-4.628-.193-.387-.096-.773.29-1.158.29-1.64 1.06-2.508-1.446-3.762-.29-.578.193-1.156.676-1.734-.192-3.086.868-5.498.386-8.102-1.06-.867.386-1.156-.097-1.543-.386v-.29c.29-.675.87.29.87.193 0 0 .577.48 1.155-.097.387-.578 1.254.676 1.447.386 3.277.77 7.135.578 10.8.096 3.376.578 8.485-.386 11.67.29.673-.097 1.542-.676 2.7-.29 1.06-.965 2.506-.097 3.277-.676 4.05-.29 8.39-.964 12.537-.964 3.952-.386 8.292-.77 11.474-1.253.676.192 1.447-.387 2.12.096 1.642-.387 2.315-.387 3.57-.58 2.507-.48 5.688-.867 7.905-1.35.386 0 .868-.29 1.446-.964-.482-.868.58-.482.676-.482.867-.385 2.314.386 3.762-.097 0 .29.095.58 0 .87zM1153.973 738.017c3.762.29 7.62 1.158 11.67 1.64 4.916.58 10.027 1.157 14.656 3.472 2.41 2.41 5.4 3.663 7.33 6.846.288 1.735 1.542 1.446.964 3.568.096.29-.193 0-.193-.386-2.218.096-1.157-.482-2.796-2.7-2.508.77-4.34-.386-6.172.386-7.715-.482-14.37 0-21.89.77-1.833.868-4.147.868-6.27.58-1.35-.483-2.796.48-4.435.192-5.016-.29-10.61-.29-15.527.385-3.664-.19-7.232 0-10.992.388-1.447-.29-3.086-.77-5.11-.193-.58 1.35-1.255 1.06-.772 2.22-.193.19-.385.48-.676.674-.29-.098-.578 0-.867-.29.385-2.798 2.22-4.34 3.953-6.462 3.375-3.086 7.715-4.532 11.38-7.52 2.41-1.544 4.917-1.737 7.522-2.798 3.277-.48 6.943-.29 10.125-.964 2.7.673 5.303.48 8.1.19zm-15.237 2.41c-3.76-.19-6.365 1.544-9.932 2.605-.193.19-1.06 1.06-1.543 1.35-2.7 1.93-5.882 2.797-8.774 6.654 3.47-.29 5.207.964 6.846.29 2.412.288 4.533-.966 6.943-1.063 3.473 1.062 7.232.193 10.8.675 3.28.387 6.85-.385 10.224-.578 5.978-2.314 12.92-.675 19.093-1.35 2.988 0 6.46-.482 11.186.096-1.833-3.857-5.112-4.532-7.33-5.785-5.69-1.542-11.378-2.507-17.26-3.085-1.16-.193-2.605.29-3.667-.387-5.303.29-11.67-1.54-16.587.58zM1173.838 694.72c3.762.963 6.46 4.146 10.223 5.303.58 1.06 1.833 1.64 2.41 2.7-.866.29-1.83-.58-2.603-.964-.676-.677-1.35-1.063-2.314-1.158-2.12-1.543-5.014-2.218-7.232-3.954-1.638-.578-4.05-.77-5.882-1.64-3.277-.192-6.557-.192-9.738.386-3.088.58-6.076 1.832-8.486 3.955-3.184 1.54-6.848 2.698-10.318 3.47-5.4 2.7-12.248 2.41-17.84.193-3.28 0-5.11-2.797-8.102-3.183-.867-.675-1.64-1.35-2.7-1.736-.577-.48-.288-1.254-.77-1.93 0-.19-.387.098-.193.194 1.35.097 2.798.676 3.954 1.254 5.11 3.953 11.96 4.146 18.13 5.496 4.34-.192 7.907-2.218 12.054-3.182 2.604-1.64 5.883-2.22 8.486-3.857 1.93-.194 3.473-2.412 5.496-1.93 4.34-1.543 9.45-1.543 13.598 0 .576.29 1.156.482 1.83.58zM1103.443 665.597c.19 1.64.867 2.797 1.156 4.532-.58 2.603-.1 4.918.866 8.1 1.352-.676 2.314-.482 2.797-.29 1.832-.192 4.146.29 5.98.194 1.735-.387 3.856-.58 5.593-.58 2.7-1.35 6.076-1.735 8.775-2.313 1.544.387 3.376 0 4.823.193 6.557 0 13.307-1.64 19.48-2.507 1.157.097 2.892-.193 3.952.097.193-.097.676-.097.773-.193 4.82-.193 8.678-.29 13.5-.29 2.22 0 4.146.387 6.172.483h-.096c-2.51 1.832-5.98 1.156-8.68 1.736-3.955-.966-8.102 1.06-12.344-.58-2.508 2.603-5.496.58-8.102 1.446-2.41-.29-5.303-.193-7.328 1.06-.965-.096-1.832.29-3.182-.192-2.314 1.35-5.21.676-7.62.676-3.952-.868-7.134 1.736-10.895 1.254-2.7 1.35-5.787 1.157-8.87 1.157-.966-1.06-2.51-.096-4.44-2.218-.673 4.243-.288 6.75-.48 9.354.48 2.025-.29 4.243 0 6.46-.097.098-.097.193-.192.29-.77-.097-.964-.965-1.253-1.543.578-1.928.482-3.857 0-5.785-.385-.482 0-1.352.096-2.315-1.06-1.446-.19-3.567-.963-4.917.482-1.544-.193-3.183-.098-4.727-.867-1.544.29-3.568-.578-5.11 0-1.352-1.832-2.7-.29-3.762.097-.097.29-.193.483-.29.386.096.87.193.966.58zM1186.182 648.24c-.965 2.12-3.28 2.313-4.918 3.47-2.22 1.158-4.63 2.314-7.137 2.604-.674.386-1.64.48-2.41.577-6.46 1.16-12.73 3.763-19.48 3.956-4.63.964-9.738.482-14.754.385-4.146 0-9.45-1.155-13.596-2.987-2.025-.482-4.244-1.254-5.69-2.508-2.122-.578-3.76-2.12-5.593-3.278-.387-.675-.867-1.35-.867-2.025 0-.097-.098-.192-.098-.192 1.93.48 3.76 1.928 5.688 3.086 1.543.867 2.412 2.025 4.05 2.41 2.798.58 5.017 2.508 7.91 2.314 5.302 1.35 11.087 1.253 17.452.868-.963-2.218.676-3.086-.096-4.437.096-.577.193-.963.385-1.35.288-.288.48-.577.866-.288l.482.482c-.19.578.193.964.482 1.253-.29 1.254 0 2.507-.19 4.05 4.724.482 7.905-.867 11.763-1.06 1.64-.772 4.146-.965 6.172-1.544 1.832-.578 4.05-.578 5.787-1.64 1.445.193 3.084-.288 4.242-1.735 2.508.097 4.436-1.735 7.328-2.314v-.482c.482-.192 1.447-1.253 2.604-.867-.095.483-.19.868-.384 1.254zM1176.44 626.735c-3.47 2.508-7.905 2.12-11.087 4.82-1.256.387-2.605 1.063-3.666 1.737-2.988-.097-6.076 1.832-10.125 3.665 2.604 1.06 4.53.77 5.883.385 5.69 0 10.703-.965 16.682-.097 1.64 0 3.666-.48 5.11.193 2.798.097 6.077-.675 8.487.675l.193.193c-2.025.578-4.63.385-6.654.29-1.736-.483-3.568.19-5.496.19-3.762.098-7.715-1.252-11.09.387-3.086.387-5.98-1.06-8.97 0-2.698.867-5.4-.482-7.907.77-4.63-.77-10.607.097-15.62-.77-5.69 0-11.478.387-17.07-.578-3.085-.097-4.34-.675-7.23-1.254-.1 0 .48-.673.48-.866 3.087-1.833 4.145-2.41 7.425-3.664 4.533-1.833 9.354-1.447 13.887-2.7 6.365.096 12.633.963 17.262 7.04 8.486-5.113 17.55-5.69 25.748-10.127 3.664-1.156 7.04-2.99 10.703-4.146.578 0 1.543-.386 2.22-.192-2.992 1.736-6.078 3.086-9.164 4.05zm-54.29 6.366c-1.254.386-2.797-.097-3.953.676-1.545-.193-2.99.675-4.244 1.156l-2.314 1.64c.866.098 4.243.387 5.206.58 1.254 1.252 3.473.674 5.016 1.06 7.135-.965 15.14.192 23.723-.192-1.254-1.543-2.508-1.93-3.182-2.604-1.352-1.35-5.11-2.796-7.62-3.857-4.34.576-8.97-.39-12.633 1.54zM1181.746 603.108c1.734 2.025 2.893 4.05 4.63 6.46.288 2.316 1.927 2.316 1.542 4.147-1.543 2.12-2.41 1.062-4.244 1.157-5.98-.77-13.018.482-18.803.87-5.208-.388-8.1.384-15.235.576-1.834.77-4.438.29-6.463 0-2.12.868-5.69.482-8.004-.192-7.715.964-14.078.192-21.6.58-.58-.098-1.447.384-1.062-.29 0-.098.098-.482.098-.58.19-.19.29-.48.482-.867-.098-.675-.193.29.29.29.866-1.063 1.253-2.99 2.698-2.99.77-1.06 1.543-1.64 2.412-1.93 1.734-1.64 2.7-3.086 5.014-3.086 3.953-3.182 8.97-2.796 13.5-2.796 4.533 1.542 8.295 3.953 12.152 8.968 1.64-1.832 1.543-4.34 2.602-4.82.676-1.64 1.93-2.99 3.473-4.63 3.086-2.122 5.787-2.507 9.064-3.76 3.763-2.605 7.812 1.253 11.573-.193 1.93.385 3.664 2.412 5.883 3.085zm-56.896 4.823c-2.12 2.798-4.05 1.254-5.785 5.11-.29.193-.578.387-1.06.098-3.665 1.64.288 1.832 1.83 1.93 3.183-1.062 4.726.192 7.91.096 3.276-1.06 7.038.386 10.51-.578 1.06-.29 1.83-.098 2.796-.098 2.122-.482 3.57.482 7.812 0-2.988-2.508-3.664-3.182-5.207-4.242-2.217-.965-4.242-2.508-6.268-3.664-4.34-.966-8.873-.194-12.537 1.35zm31.535-2.796c-2.604 2.508-3.568 4.243-6.076 9.45 2.7 0 4.05-.868 5.206-.48 4.822-2.026 9.258.866 14.273-.388 3.18-1.157 6.556 0 9.835-1.157 1.156.578 4.63.578 5.496.192.097-.193-.866-1.157-.577-2.41-1.352-1.93-2.604-4.052-3.664-6.365-2.124-.192-3.376-.578-4.823-1.446-3.086-.577-6.46-2.313-9.836-1.156s-6.654 2.12-9.835 3.76zM1120.03 584.016c1.444.192 2.41 1.64 4.048 1.64 3.086 1.543 5.98 2.314 9.74 2.507.58.29 1.543.386 2.22.58 2.12.192 4.048 1.156 6.075 1.156 1.252.385 2.988-.29 4.146 1.253 1.54-.386 2.698-.77 3.663-1.254.385-.773 1.445-1.737 1.35-2.798.674-1.06.096-1.93.578-3.28.58-1.83.58-2.892 1.544-4.82.482-.385.965-.77 1.543-.674.385.964 0 2.12 0 3.277-1.254 2.508-1.06 3.857-1.928 7.137.77.482.48.867.77 1.06 2.41.387 5.014.098 7.04-.384 1.253.19 2.313-.29 4.24-.29.388-1.157 1.255-.29 1.833-.58 3.473-.288 6.56-2.216 10.127-2.41 1.54-1.35 4.146-1.157 5.688-2.314 1.834.193 2.8-2.218 5.11-1.638 1.16-.87 2.22-1.93 3.667-1.93.385.29.77.578 1.156.965-.19 1.447-1.83 1.544-2.892 2.314-1.64.193-3.184.58-4.34 1.64-2.12-.096-3.375 1.736-5.4 1.64-.77.482-1.543.578-2.12.964-.772-.097-1.448.193-2.026.482-4.436 0-7.908 2.894-12.344 2.604-.578.386-1.64.386-2.217.482-4.726 1.64-10.222 1.35-15.042 1.254-2.22-.58-4.92 0-6.848-.965-5.98-1.06-11.766-3.472-17.455-5.014-2.7-1.06-5.207-2.7-7.715-4.05-2.795-1.543-6.074-2.604-8.1-5.4 0-.193 0-.482.193-.578 4.343 2.795 8.874 5.302 13.696 7.424zM1122.73 550.555c1.06 0 2.603-.097 3.76-.193 2.798-1.735 7.136 0 10.415.386 2.025-1.156 5.4-.482 7.52-.675 3.087-.77 7.138.192 10.706.192 6.27 0 13.5-.192 19.77-.482.964-.096 1.93-.674 2.796-.29.098.1.193-.095.29-.095-2.218 1.446-4.92 1.542-7.136 2.506-3.184 2.797-6.848 4.243-10.223 6.366-4.05 1.83-8.197 3.18-11.86 5.978-1.16.578-2.218 1.255-3.376 1.833l-2.796 1.352 3.184.19c7.52.483 14.56-1.35 22.275-.288 3.086 0 5.98-1.253 8.97-.675.77-.097 1.733 0 2.41 0-.1.192 0 .577-.1.674-.77 0-1.444.193-2.118.676-.773.387-1.738.387-2.605.578-2.604.29-5.207-.096-7.81.482-7.042.193-13.888-.674-20.733.096-3.184-.578-6.365 1.062-9.45.194-2.026.48-4.63-.58-6.173.578-4.63-.482-9.162-1.255-13.982-1.255-1.06-.385-2.7 0-3.184-1.156-.096-.096.58-1.06.58-.578 5.207-1.352 9.643 1.733 15.62 1.06 3.087-.387 6.27 0 9.548-.965.965-1.35 2.412-1.254 3.473-2.12 1.927-.29 3.856-.772 5.108-2.123 4.92-2.41 9.934-3.278 13.89-6.847 1.155-.482 2.31-1.06 3.565-2.12 0-.29 2.797-1.545 2.797-1.833-.096-.193-2.988.482-2.988.096-3.762 0-7.232-.675-10.223.387-5.4-1.35-10.995-1.447-16.78-.194-4.146-.48-8.39-1.06-12.44-.287-3.374-1.446-7.136 1.543-10.222-1.157-.29-.868-1.832-.58-1.736-1.64 3.278-.58 6.075 1.252 9.257 1.35zM1181.842 490.09c.193.482 1.736.482 1.156 1.254-2.7 1.832-6.363-.193-9.256 1.35-9.74 2.99-20.06.77-29.992 2.122-5.785.77-11.186.77-16.875 1.93l-3.277-.097-.098.384 3.28 1.447c3.76.772 8.58.868 12.15 1.735 3.374.87 6.267.965 9.546 1.93 3.568.675 7.04.29 11.09.386.29.193.77.098.965.387-5.11 2.122-11.378.675-16.683 2.218-1.445 1.254-3.857.868-5.592 1.64-6.174 0-12.055 2.12-17.842 2.41-.674.58-1.832.676-2.797 1.062 0 .385-2.604.964-2.506 1.156.096.29 3.086.193 3.182.675 9.547 1.447 18.225 0 27.002 1.062 5.4-2.026 10.992 1.156 16.2-.58 6.17-2.025 13.114.29 18.612-1.832 1.64 0 3.373-.867 4.82 0 1.736.097 4.63-1.64 5.98.193 0 .193.192.097.288.193-1.35.868-3.47.193-4.725.386-7.33 1.83-15.044 2.313-22.663 3.47-3.086 0-6.17.483-9.064-.385-3.76.097-7.617.386-11.572-.29-9.16-.288-17.55 1.544-26.132-.964-3.182-.964-6.268 0-9.064-.673 0-.58-2.12.482-1.64-.387.58-.29.966-1.254 2.024-1.446 4.34-2.41 10.03-1.736 14.852-3.472 5.883-1.06 12.537-1.736 18.61-3.182l3.183-.772v-.385l-3.182-.58c-3.952-.675-7.714-1.253-11.667-1.735-4.822-2.217-10.512-2.024-15.332-4.146-.288-.29-.77-.482-1.157-.675.77-1.156 3.086-.097 4.244-.192 4.05-2.122 8.582-.482 13.018-1.64 10.125-1.062 17.646-.482 27.58-1.35 2.314-.676 5.883-.676 8.486-1.062 4.628-.675 9.548 1.158 13.02-1.735.676-.48 1.254-.29 1.832.192zM1185.7 478.422c.288.096.48.193.675.386-.867 2.218-3.473.964-5.496 1.543-1.737.29-3.376 0-5.112.098-4.727.096-9.45-.097-13.982 0-2.412 0-5.594.193-8.102-.097-1.64-.19-3.664 0-5.305.098-3.954.385-7.714 0-11.862.29-.19-.194-.385-.194-.578-.194-1.734.868-3.664.098-5.303.387-3.953.194-7.715.58-11.572.58-2.7-1.158-5.496.578-8.293-.098-.387-.097.578-1.157.867-1.157 4.243-2.893 9.16 1.157 13.886-.193 5.594-1.543 11.86-.964 17.357-1.253 5.496-.29 10.705.19 16.297 0 1.543-.193 3.086-.193 4.727-.193.385 0 .867.097 1.254.097 4.243-.097 8.487-.097 12.247-.676 2.892.77 5.302.29 8.292.384zM1103.443 455.97c.19 1.64.867 2.797 1.156 4.532-.58 2.604-.1 4.92.866 8.102 1.352-.676 2.314-.482 2.797-.29 1.832-.192 4.146.29 5.98.193 1.735-.386 3.856-.58 5.593-.58 2.7-1.35 6.076-1.734 8.775-2.313 1.544.386 3.376 0 4.823.193 6.557 0 13.307-1.64 19.48-2.507 1.157.096 2.892-.194 3.952.096.193-.096.676-.096.773-.192 4.82-.193 8.678-.29 13.5-.29 2.22 0 4.146.387 6.172.482h-.096c-2.51 1.832-5.98 1.157-8.68 1.736-3.955-.964-8.102 1.06-12.344-.58-2.508 2.605-5.496.58-8.102 1.447-2.41-.29-5.303-.193-7.328 1.06-.965-.097-1.832.29-3.182-.192-2.314 1.35-5.21.676-7.62.676-3.952-.87-7.134 1.735-10.895 1.253-2.7 1.35-5.787 1.157-8.87 1.157-.966-1.06-2.51-.097-4.44-2.218-.673 4.243-.288 6.75-.48 9.354.48 2.024-.29 4.243 0 6.462-.097.096-.097.192-.192.29-.77-.098-.964-.966-1.253-1.544.578-1.93.482-3.857 0-5.786-.385-.48 0-1.35.096-2.314-1.06-1.446-.19-3.567-.963-4.918.482-1.543-.193-3.183-.098-4.726-.867-1.543.29-3.568-.578-5.11 0-1.35-1.832-2.7-.29-3.76.097-.098.29-.194.483-.29.386.095.87.19.966.577zM1135.457 400.573c2.7.482 4.918.965 7.812.578 5.013 2.124 10.8-.866 15.524 2.606 2.604.578 5.883.674 8.293 1.928 4.05 1.35 8.293 1.93 11.764 4.725 1.448 1.93 2.51 3.664 3.57 5.688-.192 1.93-.097 4.146-1.83 5.015-3.667 1.446-7.524 2.122-11.09 3.954-7.716.193-14.853 2.99-22.085 1.735-3.473.772-6.848-.096-10.318.482-5.98-.386-11.477-2.796-17.262-3.857-1.254-1.06-6.172-1.93-2.22-3.472 2.605-.48 4.245 1.447 6.56 2.025 1.35.29 2.604 1.832 4.146 1.832 5.884 1.06 10.993 2.12 17.358 1.35 5.496 1.35 11.477 0 16.973-1.156 5.208-.386 9.933-1.832 14.755-3.183 2.314-1.06 1.445-2.99 2.508-5.497-1.254-.867-.87-2.7-1.736-3.47-1.543-1.737-4.63-2.605-6.56-3.762-3.18-.48-6.362 0-8.677-1.833-2.604-.48-5.594.194-7.62-1.83-8.677-1.448-17.452-.772-25.552-2.798-4.727-.482-8.68-.675-12.537-3.086.194-.578 1.16-.29 1.544-.48 5.98-.386 10.802 2.99 16.683 2.507zM1122.73 371.547c1.06 0 2.603-.098 3.76-.193 2.798-1.736 7.136 0 10.415.387 2.025-1.157 5.4-.48 7.52-.675 3.087-.77 7.138.193 10.706.193 6.27 0 13.5-.193 19.77-.482.964-.097 1.93-.676 2.796-.29.098.097.193-.097.29-.097-2.218 1.446-4.92 1.542-7.136 2.507-3.184 2.797-6.848 4.243-10.223 6.364-4.05 1.834-8.197 3.184-11.86 5.98-1.16.578-2.218 1.254-3.376 1.832l-2.796 1.35 3.184.193c7.52.482 14.56-1.35 22.275-.29 3.086 0 5.98-1.253 8.97-.675.77-.097 1.733 0 2.41 0-.1.193 0 .58-.1.676-.77 0-1.444.192-2.118.674-.773.387-1.738.387-2.605.58-2.604.29-5.207-.098-7.81.48-7.042.193-13.888-.674-20.733.098-3.184-.58-6.365 1.06-9.45.193-2.026.482-4.63-.578-6.173.58-4.63-.483-9.162-1.255-13.982-1.255-1.06-.386-2.7 0-3.184-1.157-.096-.097.58-1.06.58-.58 5.207-1.35 9.643 1.737 15.62 1.062 3.087-.385 6.27 0 9.548-.964.965-1.35 2.412-1.253 3.473-2.12 1.927-.29 3.856-.772 5.108-2.123 4.92-2.41 9.934-3.278 13.89-6.846 1.155-.482 2.31-1.062 3.565-2.122 0-.29 2.797-1.543 2.797-1.833-.096-.19-2.988.482-2.988.098-3.762 0-7.232-.676-10.223.385-5.4-1.35-10.995-1.446-16.78-.192-4.146-.48-8.39-1.06-12.44-.29-3.374-1.445-7.136 1.543-10.222-1.156-.29-.868-1.832-.578-1.736-1.64 3.278-.58 6.075 1.253 9.257 1.35zM1153.973 345.317c3.762.29 7.62 1.158 11.67 1.64 4.916.58 10.027 1.157 14.656 3.472 2.41 2.41 5.4 3.663 7.33 6.846.288 1.735 1.542 1.446.964 3.568.096.29-.193 0-.193-.386-2.218.097-1.157-.482-2.796-2.7-2.508.77-4.34-.386-6.172.386-7.715-.482-14.37 0-21.89.77-1.833.87-4.147.87-6.27.58-1.35-.483-2.796.48-4.435.192-5.016-.29-10.61-.29-15.527.386-3.664-.192-7.232 0-10.992.386-1.447-.29-3.086-.77-5.11-.193-.58 1.35-1.255 1.062-.772 2.22-.193.19-.385.48-.676.674-.29-.098-.578 0-.867-.29.385-2.797 2.22-4.34 3.953-6.462 3.375-3.085 7.715-4.53 11.38-7.52 2.41-1.545 4.917-1.738 7.522-2.798 3.277-.482 6.943-.29 10.125-.965 2.7.674 5.303.482 8.1.192zm-15.237 2.41c-3.76-.19-6.365 1.544-9.932 2.605-.193.192-1.06 1.06-1.543 1.35-2.7 1.93-5.882 2.797-8.774 6.654 3.47-.29 5.207.964 6.846.29 2.412.288 4.533-.966 6.943-1.063 3.473 1.062 7.232.193 10.8.675 3.28.387 6.85-.385 10.224-.578 5.978-2.314 12.92-.675 19.093-1.35 2.988 0 6.46-.482 11.186.096-1.833-3.857-5.112-4.53-7.33-5.785-5.69-1.542-11.378-2.507-17.26-3.085-1.16-.193-2.605.29-3.667-.387-5.303.292-11.67-1.54-16.587.58zM1109.035 301.44c.867.387.867 1.64 1.35 2.316-.77 3.085 2.025 1.35 1.158 5.014.674 1.06 1.64.77 3.28 1.157 0-.675.19-.58.19-.482 5.4-.097 15.527 1.735 20.926 0 2.507.29 5.4-.772 8.485.482.482-3.568.965-2.122.676-4.532.386-.675.386-1.64 1.255-1.736-.096.192-.096.288 0 .385.096.964 0-.386.385.097.676 2.893-.29 1.93-.19 5.786 9.544 0 19.093-1.64 27.675.097 3.086 0 5.69-1.352 8.678-1.254 1.834.965 4.05-.964 6.076.29.095.386.384.772-.097.965-4.822.578-9.838.77-14.37 1.64-4.34-1.736-9.353-.098-13.98-.58-2.702 1.158-7.62-.964-10.126.964-.87.097-1.736-.386-2.51-.482-2.988-.577-6.363-.386-9.545-.482-4.436 1.833-14.37.58-19.287.58-3.182.578-6.27-.29-9.064-1.157-.77-1.16-1.06-2.8-1.157-4.438-.193-2.604-.29-.482-.674-2.604-.1.193-.388-.385-.29-.48.19-.387-.578-1.352-.29-1.64.578.19.77-.39 1.445.093zM1135.457 268.077c2.7.48 4.918.964 7.812.578 5.013 2.12 10.8-.867 15.524 2.604 2.604.577 5.883.674 8.293 1.928 4.05 1.35 8.293 1.93 11.764 4.726 1.448 1.93 2.51 3.664 3.57 5.69-.192 1.927-.097 4.145-1.83 5.014-3.667 1.446-7.524 2.12-11.09 3.953-7.716.194-14.853 2.99-22.085 1.736-3.473.77-6.848-.096-10.318.482-5.98-.385-11.477-2.796-17.262-3.857-1.254-1.06-6.172-1.928-2.22-3.47 2.605-.482 4.245 1.446 6.56 2.024 1.35.29 2.604 1.833 4.146 1.833 5.884 1.06 10.993 2.12 17.358 1.35 5.496 1.35 11.477 0 16.973-1.157 5.208-.386 9.933-1.833 14.755-3.183 2.314-1.06 1.445-2.99 2.508-5.496-1.254-.868-.87-2.7-1.736-3.47-1.543-1.737-4.63-2.605-6.56-3.762-3.18-.482-6.362 0-8.677-1.832-2.604-.482-5.594.19-7.62-1.833-8.677-1.446-17.452-.77-25.552-2.797-4.727-.48-8.68-.675-12.537-3.085.194-.578 1.16-.29 1.544-.48 5.98-.387 10.802 2.988 16.683 2.507zm-21.406 12.825c.29.29.483.48.483.964-.29.29-.676.482-1.158.482-1.447-.77-2.99-.096-4.436-1.06-.388-.098-1.16-.387-1.062-.87.674-.385 1.252-.674 2.41-.577 1.737-1.638 2.507.676 3.763 1.062zm.58-9.066c.288.29.48.482.48.965-.288.29-.675.483-1.157.483-1.543-.77-3.568.096-5.014-.87-.388-.095-1.16-.384-1.062-.866.674-.482 1.64-1.06 2.797-.965 1.735-1.638 2.7.87 3.954 1.254zM1176.44 245.51c-3.47 2.508-7.905 2.122-11.087 4.822-1.256.387-2.605 1.06-3.666 1.736-2.988-.098-6.076 1.832-10.125 3.664 2.604 1.06 4.53.77 5.883.386 5.69 0 10.703-.964 16.682-.097 1.64 0 3.666-.48 5.11.194 2.798.096 6.077-.676 8.487.675l.193.19c-2.025.58-4.63.387-6.654.29-1.736-.48-3.568.193-5.496.193-3.762.097-7.715-1.254-11.09.386-3.086.385-5.98-1.062-8.97 0-2.698.867-5.4-.483-7.907.77-4.63-.77-10.607.097-15.62-.77-5.69 0-11.478.385-17.07-.58-3.085-.096-4.34-.675-7.23-1.253-.1 0 .48-.675.48-.868 3.087-1.833 4.145-2.412 7.425-3.665 4.533-1.832 9.354-1.447 13.887-2.7 6.365.096 12.633.964 17.262 7.04 8.486-5.11 17.55-5.69 25.748-10.126 3.664-1.158 7.04-2.99 10.703-4.147.578 0 1.543-.386 2.22-.193-2.992 1.736-6.078 3.086-9.164 4.05zm-54.29 6.365c-1.254.386-2.797-.096-3.953.675-1.545-.192-2.99.675-4.244 1.157l-2.314 1.64c.866.097 4.243.386 5.206.58 1.254 1.252 3.473.674 5.016 1.06 7.135-.965 15.14.192 23.723-.193-1.254-1.543-2.508-1.93-3.182-2.604-1.352-1.35-5.11-2.797-7.62-3.857-4.34.578-8.97-.386-12.633 1.542zM1186.182 224.584c-.965 2.122-3.28 2.314-4.918 3.473-2.22 1.156-4.63 2.313-7.137 2.604-.674.386-1.64.482-2.41.58-6.46 1.156-12.73 3.76-19.48 3.952-4.63.965-9.738.482-14.754.386-4.146 0-9.45-1.157-13.596-2.99-2.025-.48-4.244-1.253-5.69-2.506-2.122-.578-3.76-2.122-5.593-3.278-.387-.676-.867-1.35-.867-2.025 0-.097-.098-.194-.098-.194 1.93.482 3.76 1.93 5.688 3.086 1.543.868 2.412 2.025 4.05 2.41 2.798.58 5.017 2.508 7.91 2.315 5.302 1.35 11.087 1.253 17.452.868-.963-2.22.676-3.086-.096-4.436.096-.58.193-.966.385-1.353.288-.29.48-.578.866-.29l.482.483c-.19.58.193.965.482 1.254-.29 1.254 0 2.508-.19 4.05 4.724.482 7.905-.867 11.763-1.06 1.64-.772 4.146-.965 6.172-1.544 1.832-.578 4.05-.578 5.787-1.64 1.445.193 3.084-.29 4.242-1.735 2.508.097 4.436-1.735 7.328-2.313v-.482c.482-.193 1.447-1.254 2.604-.87-.095.483-.19.87-.384 1.254zM1185.7 211.664c.288.097.48.192.675.386-.867 2.218-3.473.965-5.496 1.543-1.737.29-3.376 0-5.112.096-4.727.097-9.45-.097-13.982 0-2.412 0-5.594.192-8.102-.097-1.64-.193-3.664 0-5.305.096-3.954.386-7.714 0-11.862.29-.19-.193-.385-.193-.578-.193-1.734.867-3.664.096-5.303.385-3.953.193-7.715.58-11.572.58-2.7-1.158-5.496.578-8.293-.098-.387-.097.578-1.156.867-1.156 4.243-2.894 9.16 1.156 13.886-.193 5.594-1.543 11.86-.965 17.357-1.254s10.705.194 16.297 0c1.543-.192 3.086-.192 4.727-.192.385 0 .867.097 1.254.097 4.243-.097 8.487-.097 12.247-.675 2.892.77 5.302.287 8.292.384zM1122.73 184.278c1.06 0 2.603-.097 3.76-.193 2.798-1.736 7.136 0 10.415.387 2.025-1.158 5.4-.482 7.52-.676 3.087-.77 7.138.193 10.706.193 6.27 0 13.5-.194 19.77-.483.964-.097 1.93-.676 2.796-.29.098.097.193-.096.29-.096-2.218 1.447-4.92 1.543-7.136 2.508-3.184 2.797-6.848 4.243-10.223 6.365-4.05 1.832-8.197 3.182-11.86 5.98-1.16.577-2.218 1.253-3.376 1.83l-2.796 1.35 3.184.194c7.52.482 14.56-1.35 22.275-.29 3.086 0 5.98-1.254 8.97-.675.77-.097 1.733 0 2.41 0-.1.193 0 .58-.1.676-.77 0-1.444.19-2.118.674-.773.387-1.738.387-2.605.58-2.604.29-5.207-.098-7.81.48-7.042.194-13.888-.674-20.733.098-3.184-.578-6.365 1.06-9.45.193-2.026.482-4.63-.58-6.173.577-4.63-.48-9.162-1.253-13.982-1.253-1.06-.386-2.7 0-3.184-1.158-.096-.097.58-1.06.58-.578 5.207-1.35 9.643 1.735 15.62 1.06 3.087-.385 6.27 0 9.548-.964.965-1.35 2.412-1.253 3.473-2.12 1.927-.29 3.856-.772 5.108-2.123 4.92-2.41 9.934-3.278 13.89-6.846 1.155-.483 2.31-1.063 3.565-2.123 0-.29 2.797-1.543 2.797-1.832-.096-.192-2.988.48-2.988.097-3.762 0-7.232-.676-10.223.385-5.4-1.35-10.995-1.445-16.78-.192-4.146-.48-8.39-1.06-12.44-.29-3.374-1.445-7.136 1.544-10.222-1.156-.29-.87-1.832-.58-1.736-1.64 3.278-.582 6.075 1.25 9.257 1.348zM1182.13 151.78c.772.387 1.544 0 2.413.193.674 0 1.156.193 1.734.578.098.483-.48.87-.77 1.35-.676.87-1.447-.48-1.64-.48-.194-.386-1.16.48-2.122-.964-1.93.578-3.664.578-5.014.193-2.7.287-5.69-.483-8.294.577-1.06.096-1.64 1.35-2.12 1.93-.097 0-.483 1.156-1.35 1.54-1.255 1.16-3.087 2.99-3.665 3.474-.48.482 0-.578-.868.386-.482.387-.29.58-.965 1.64-.867 1.06-2.604 2.893-2.988 3.375-.58 1.158-1.16 2.508-1.833 4.052 2.025 1.35 4.05.964 5.4 1.83 1.736.1 3.857.483 5.69.966 1.06-.867 1.83.193 2.603.193 1.06.58 2.7.483 3.953 1.062 2.41.386 4.533 1.832 7.232 1.35.965.193 2.123.58 3.086.87-.095.19-.192.384-.384.384-1.64.29-3.086-.578-4.533-.482-.385-.29-.674-.385-1.06-.29-.772-.095-1.544-.288-2.22-.288-1.54-.482-2.604.386-5.11-1.253 0 1.446.194.578.194.578-1.447-.385-3.473-.963-5.402-.867-1.156-.77-2.602-.482-3.76-.77-2.7-.29-4.533-1.35-7.137-1.158 0 0-.096-.097-.19-.097-.774-.482-1.642-.193-2.124-.675-5.883-1.64-11.86-3.278-17.744-4.92-1.35-.673-2.506-.963-3.953-1.54-1.928-.676-3.76-1.833-5.785-2.605s-3.953-2.025-6.27-2.7c-.578-.29-1.54.192-1.54-.77 0-.29-.29-.966-.1-1.062.677-1.06 2.605-1.06 3.57-1.543 2.313-.193 5.59-.675 8.388-1.254 1.06-1.255 2.7-.29 3.955-.772 4.725.193 9.643-2.218 15.043-1.543 6.848-1.06 14.465-1.64 20.926-1.06 4.92.382 9.84-.1 14.757.575zm-29.218 1.64c-1.254-.483-3.182.675-5.11.29-2.315-.388-4.82.385-7.136.77-2.22-.385-3.955.965-6.172.77-1.447.194-3.857.194-5.787.58-3.182.578-6.074 1.446-9.738 1.736 1.444 1.64 4.048 2.795 4.435 2.893 2.025.674 3.664 1.83 5.496 2.41 2.798.964 5.208 1.93 7.812 2.7 1.834.48 4.244 1.06 5.883 1.35 1.832-.097 4.436 1.543 6.943 1.93 1.447.19.77.867 2.797.288.77-1.833 1.928-3.087 2.604-4.726.866-1.157 1.35-1.254 2.603-2.604.867-.867 1.736-2.218 2.7-3.472.868-.964 2.024-2.024 2.604-2.7 0-.192 1.156-1.446 1.156-2.218-1.35-.288-2.893-.288-3.762-.386-2.6-.383-4.63.002-7.328.387zM1188.883 112.243c-7.62 3.375-14.178 7.81-20.83 12.246-.58.29-.77 1.06-2.025 1.06-3.086 3.087-6.943 3.376-9.74 6.172-2.506 1.254-5.303 2.7-8.197 4.92.388.288 1.063.578 1.353.77 2.023.965 4.05.193 5.88.29 5.788.192 11.09-.77 16.202-.868 4.918 0 9.45-1.157 13.79-.675.097.19.097.48.097.867-.29 2.218-2.797.676-3.857 1.06-4.63.58-8.678.677-13.693.868-6.172.387-12.248.098-18.418.772-4.146.386-7.908 0-11.86.868-6.56-.772-13.214 2.604-19.77 1.253-1.544 0-3.087.772-4.726.386-.676-.482-3.762.097-2.22-1.35 5.017-.77 10.224 0 15.335-.676 7.715-.29 15.912-.77 21.6-5.69.965-.288 1.736-.964 2.412-1.445 2.41-1.446 5.014-2.507 7.04-4.63 2.024-.674 3.856-1.83 5.495-2.988 2.895-2.893 6.752-3.953 9.934-6.172 0-.385.29-.29.482-.385.867-.387 1.54-1.158 2.604-1.93 0-.386 2.795-.964 2.7-1.254-.097-.288-3.28-.192-3.57-.385-4.435.963-9.93 1.35-15.042 1.83-5.496.483-9.16 1.544-14.37 1.64-1.83-.385-4.435 1.447-6.267-.096-2.024 0-3.18-.097-4.82.482-1.446 0-2.894-.193-4.628-.193-.387-.096-.773.29-1.158.29-1.64 1.06-2.508-1.447-3.762-.29-.578.193-1.156.675-1.734-.193-3.086.868-5.498.387-8.102-1.06-.867.385-1.156-.097-1.543-.386v-.29c.29-.675.87.29.87.192 0 0 .577.482 1.155-.096.387-.58 1.254.675 1.447.385 3.277.77 7.135.58 10.8.098 3.376.578 8.485-.387 11.67.29.673-.098 1.542-.677 2.7-.29 1.06-.965 2.506-.098 3.277-.676 4.05-.29 8.39-.964 12.537-.964 3.952-.386 8.292-.77 11.474-1.254.676.192 1.447-.387 2.12.096 1.642-.385 2.315-.385 3.57-.58 2.507-.48 5.688-.867 7.905-1.35.386 0 .868-.288 1.446-.963-.482-.868.58-.482.676-.482.867-.385 2.314.386 3.762-.096 0 .29.095.58 0 .87zM1153.973 87.653c3.762.29 7.62 1.157 11.67 1.64 4.916.58 10.027 1.157 14.656 3.472 2.41 2.41 5.4 3.664 7.33 6.847.288 1.735 1.542 1.446.964 3.567.096.288-.193 0-.193-.387-2.218.097-1.157-.48-2.796-2.7-2.508.77-4.34-.385-6.172.387-7.715-.482-14.37 0-21.89.77-1.833.87-4.147.87-6.27.58-1.35-.483-2.796.48-4.435.192-5.016-.29-10.61-.29-15.527.385-3.664-.192-7.232 0-10.992.386-1.447-.29-3.086-.77-5.11-.192-.58 1.35-1.255 1.062-.772 2.22-.193.192-.385.48-.676.675-.29-.097-.578 0-.867-.29.385-2.797 2.22-4.34 3.953-6.46 3.375-3.087 7.715-4.534 11.38-7.522 2.41-1.543 4.917-1.736 7.522-2.797 3.277-.482 6.943-.29 10.125-.964 2.7.673 5.303.48 8.1.19zm-15.237 2.41c-3.76-.19-6.365 1.544-9.932 2.605-.193.192-1.06 1.06-1.543 1.35-2.7 1.93-5.882 2.798-8.774 6.655 3.47-.29 5.207.964 6.846.288 2.412.29 4.533-.963 6.943-1.06 3.473 1.06 7.232.192 10.8.675 3.28.386 6.85-.385 10.224-.578 5.978-2.314 12.92-.676 19.093-1.35 2.988 0 6.46-.482 11.186.096-1.833-3.857-5.112-4.533-7.33-5.785-5.69-1.544-11.378-2.508-17.26-3.086-1.16-.193-2.605.29-3.667-.387-5.303.29-11.67-1.543-16.587.58zM1120.03 72.127c1.444.193 2.41 1.64 4.048 1.64 3.086 1.543 5.98 2.314 9.74 2.507.58.29 1.543.386 2.22.58 2.12.19 4.048 1.156 6.075 1.156 1.252.386 2.988-.29 4.146 1.254 1.54-.387 2.698-.77 3.663-1.254.385-.77 1.445-1.736 1.35-2.797.674-1.06.096-1.928.578-3.28.58-1.83.58-2.892 1.544-4.82.482-.386.965-.77 1.543-.675.385.965 0 2.12 0 3.28-1.254 2.506-1.06 3.856-1.928 7.136.77.48.48.867.77 1.06 2.41.386 5.014.097 7.04-.386 1.253.193 2.313-.29 4.24-.29.388-1.156 1.255-.288 1.833-.578 3.473-.288 6.56-2.218 10.127-2.41 1.54-1.35 4.146-1.157 5.688-2.315 1.834.193 2.8-2.217 5.11-1.64 1.16-.866 2.22-1.928 3.667-1.928.385.29.77.58 1.156.964-.19 1.448-1.83 1.545-2.892 2.315-1.64.193-3.184.58-4.34 1.64-2.12-.097-3.375 1.736-5.4 1.64-.77.482-1.543.578-2.12.965-.772-.098-1.448.192-2.026.482-4.436 0-7.908 2.893-12.344 2.604-.578.385-1.64.385-2.217.48-4.726 1.64-10.222 1.352-15.042 1.255-2.22-.578-4.92 0-6.848-.963-5.98-1.062-11.766-3.473-17.455-5.016-2.7-1.06-5.207-2.698-7.715-4.05-2.795-1.54-6.074-2.602-8.1-5.398 0-.193 0-.482.193-.578 4.343 2.795 8.874 5.302 13.696 7.423zM1176.44 45.127c-3.47 2.508-7.905 2.12-11.087 4.82-1.256.387-2.605 1.063-3.666 1.737-2.988-.097-6.076 1.832-10.125 3.665 2.604 1.06 4.53.77 5.883.384 5.69 0 10.703-.965 16.682-.097 1.64 0 3.666-.482 5.11.193 2.798.097 6.077-.676 8.487.675l.193.193c-2.025.578-4.63.385-6.654.29-1.736-.483-3.568.19-5.496.19-3.762.098-7.715-1.252-11.09.387-3.086.387-5.98-1.06-8.97 0-2.698.867-5.4-.482-7.907.77-4.63-.77-10.607.097-15.62-.77-5.69 0-11.478.387-17.07-.578-3.085-.097-4.34-.675-7.23-1.254-.1 0 .48-.675.48-.867 3.087-1.833 4.145-2.41 7.425-3.665 4.533-1.83 9.354-1.445 13.887-2.7 6.365.098 12.633.965 17.262 7.04 8.486-5.11 17.55-5.69 25.748-10.125 3.664-1.156 7.04-2.99 10.703-4.146.578 0 1.543-.387 2.22-.194-2.992 1.737-6.078 3.088-9.164 4.05zm-54.29 6.366c-1.254.385-2.797-.098-3.953.674-1.545-.192-2.99.676-4.244 1.157l-2.314 1.64c.866.097 4.243.387 5.206.578 1.254 1.255 3.473.676 5.016 1.06 7.135-.963 15.14.195 23.723-.19-1.254-1.543-2.508-1.93-3.182-2.604-1.352-1.35-5.11-2.796-7.62-3.857-4.34.578-8.97-.387-12.633 1.543zM1178.852 33.844c0 .482-.674.77-1.06.868-1.446.964-3.472.096-5.015.867-.482 0-.867-.193-1.158-.482 0-.482.192-.676.386-.868 1.352-.386 2.7-2.604 4.34-.964 1.254-.097 1.832.192 2.506.578z"/></g><path d="M2048 0M2048 1536M0 1536M0 0" fill="none" stroke="#17192D" stroke-width="3"/></g></svg>