<?xml version="1.0" encoding="iso-8859-1"?>
<!-- Generator: Adobe Illustrator 15.1.0, SVG Export Plug-In . SVG Version: 6.00 Build 0)  -->
<!DOCTYPE svg PUBLIC "-//W3C//DTD SVG 1.1//EN" "http://www.w3.org/Graphics/SVG/1.1/DTD/svg11.dtd">
<svg version="1.1" xmlns="http://www.w3.org/2000/svg" xmlns:xlink="http://www.w3.org/1999/xlink" x="0px" y="0px" width="2048px"
	 height="1536px" viewBox="0 0 2048 1536" style="enable-background:new 0 0 2048 1536;" xml:space="preserve">
<g id="dtxta_x5F_4">
	<g>
		<path style="fill:#17192D;" d="M1169.046,1022.743c-0.193-0.096,0.869-0.289,1.254-0.191c0.289,0,0.676,0,0.771,0
			c0.578,0.191,1.35,0.482,1.928,0.385c1.352,0.578,2.701,0.289,3.857,0.869c2.314,1.061,5.4,2.025,7.908,4.146
			c1.543,1.639,3.568,2.314,5.111,3.76c0.289,0.869,0.674,1.254,0.482,2.025c-1.543,0.098-2.314-2.121-3.762-2.699
			c-1.061-0.965-2.604-1.254-3.471-2.508c-0.193-0.096-0.58-0.482-0.771-0.578c-0.193-0.098-0.289-0.289-0.289-0.289
			c-0.098,0-0.482-0.193-0.482-0.291c-0.869-0.867-1.158-0.963-1.158-0.578c-0.676-0.193-1.156-0.674-1.832-0.578
			c-0.289-0.096-0.578-0.289-0.771-0.578c-1.156,0.193-1.447-0.387-2.025-0.482c-1.061-0.578-2.699,0-3.857-0.387
			c-0.578,0.098-1.061-0.48-1.734-0.385c-2.316-0.676-3.279-0.096-5.787,0.096c-3.182,1.158-3.279,0.869-5.303,1.641
			c-1.543,0.578-2.412,0.77-3.857,1.445c-1.447,0.676-2.025,1.447-3.473,2.123c-1.35,0.578-2.217,0.385-3.471,0.867
			c-1.447,0.578-2.314,1.254-3.666,1.832c-1.35,0.676-2.41,0.965-3.953,1.639c-1.445,0.867-2.217,1.736-3.953,2.219
			c-0.482,0-1.156,0.096-1.639,0.096c-0.482-0.096-1.062,0.098-1.352,0.098c-0.289,0.096-0.771-0.098-1.061-0.193
			c-1.734,0.578-2.699-0.578-4.531-0.387c-1.736-0.482-3.473-0.674-5.498-1.35c-1.928-1.061-4.436-1.543-6.557-2.99
			c-2.219-1.156-4.436-2.893-6.076-5.014c-0.193-0.289-0.963-1.061-0.289-0.963c1.736,0.77,3.279,2.506,5.111,3.182
			c4.918,3.086,10.029,4.918,15.141,5.4c0.578,0.289,1.254,0,1.928,0.289c0.965,0,2.314,0.289,3.375,0.096
			c3.473,0.385,2.701-1.156,4.146-1.736c1.543-0.578,2.508-0.48,3.857-1.156c0.965-0.578,1.447-1.254,2.604-1.736
			c0.965-0.578,1.641-1.061,2.893-1.254c2.895-0.289,2.99-0.867,4.438-2.121c0.676-0.385,1.061-0.867,1.832-1.156
			c0.674-0.58,1.254-0.289,2.121-0.58c1.158-0.289,1.736-0.674,2.893-1.061c1.061-0.385,2.219-0.867,2.797-0.867
			c2.025-0.867,3.184-0.289,5.111-0.482C1168.563,1022.358,1169.142,1022.743,1169.046,1022.743z"/>
		<path style="fill:#17192D;" d="M1185.151,1010.304c0.289,0.098,0.482,0.193,0.674,0.387c-0.867,2.217-3.471,0.963-5.496,1.543
			c-1.736,0.289-3.375,0-5.111,0.096c-4.725,0.096-9.449-0.096-13.982,0c-2.41,0-5.594,0.193-8.102-0.096
			c-1.639-0.193-3.664,0-5.303,0.096c-3.953,0.387-7.715,0-11.861,0.289c-0.193-0.193-0.385-0.193-0.578-0.193
			c-1.736,0.869-3.664,0.098-5.305,0.387c-3.953,0.193-7.715,0.578-11.572,0.578c-2.699-1.156-5.496,0.578-8.293-0.096
			c-0.387-0.098,0.578-1.158,0.869-1.158c4.242-2.893,9.16,1.158,13.885-0.193c5.594-1.541,11.861-0.963,17.359-1.252
			c5.496-0.289,10.703,0.193,16.297,0c1.543-0.193,3.086-0.193,4.725-0.193c0.385,0,0.867,0.098,1.254,0.098
			c4.242-0.098,8.486-0.098,12.246-0.676C1179.749,1010.69,1182.161,1010.208,1185.151,1010.304z"/>
		<path style="fill:#17192D;" d="M1185.634,991.308c-0.965,2.121-3.279,2.314-4.92,3.471c-2.217,1.158-4.629,2.316-7.135,2.605
			c-0.676,0.385-1.641,0.48-2.412,0.578c-6.461,1.156-12.729,3.76-19.479,3.953c-4.629,0.965-9.74,0.482-14.756,0.385
			c-4.146,0-9.449-1.156-13.596-2.988c-2.025-0.482-4.242-1.254-5.689-2.508c-2.121-0.578-3.762-2.121-5.594-3.277
			c-0.385-0.676-0.867-1.352-0.867-2.025c0-0.098-0.096-0.193-0.096-0.193c1.928,0.482,3.76,1.93,5.689,3.086
			c1.543,0.867,2.41,2.025,4.049,2.41c2.797,0.58,5.016,2.508,7.908,2.314c5.303,1.35,11.09,1.254,17.455,0.869
			c-0.965-2.219,0.674-3.086-0.098-4.438c0.098-0.578,0.193-0.963,0.387-1.35c0.289-0.289,0.482-0.578,0.867-0.289
			c0.193,0.193,0.289,0.289,0.482,0.482c-0.193,0.578,0.193,0.965,0.482,1.254c-0.289,1.254,0,2.506-0.193,4.051
			c4.725,0.48,7.908-0.869,11.764-1.062c1.641-0.771,4.146-0.963,6.174-1.541c1.83-0.58,4.049-0.58,5.785-1.641
			c1.447,0.193,3.086-0.289,4.242-1.736c2.508,0.098,4.438-1.734,7.33-2.314c0-0.771,0-0.482,0-0.482
			c0.48-0.191,1.445-1.252,2.604-0.867C1185.923,990.536,1185.825,990.921,1185.634,991.308z"/>
		<path style="fill:#17192D;" d="M1173.29,946.563c3.76,0.965,6.459,4.146,10.221,5.305c0.578,1.061,1.832,1.639,2.412,2.699
			c-0.869,0.289-1.834-0.578-2.605-0.965c-0.674-0.674-1.35-1.061-2.314-1.156c-2.121-1.543-5.014-2.219-7.23-3.953
			c-1.641-0.58-4.051-0.773-5.885-1.641c-3.277-0.193-6.557-0.193-9.738,0.387c-3.086,0.578-6.076,1.832-8.486,3.953
			c-3.182,1.543-6.846,2.699-10.318,3.471c-5.4,2.701-12.246,2.412-17.84,0.193c-3.279,0-5.111-2.797-8.102-3.182
			c-0.867-0.676-1.639-1.352-2.699-1.736c-0.578-0.482-0.289-1.254-0.771-1.928c0-0.193-0.387,0.096-0.193,0.191
			c1.352,0.098,2.797,0.676,3.953,1.254c5.113,3.955,11.959,4.146,18.131,5.498c4.34-0.193,7.908-2.219,12.055-3.184
			c2.604-1.639,5.881-2.217,8.484-3.857c1.93-0.193,3.473-2.41,5.498-1.928c4.34-1.543,9.449-1.543,13.596,0
			C1172.034,946.274,1172.614,946.466,1173.29,946.563z"/>
		<path style="fill:#17192D;" d="M1192.769,924.288c1.254,1.061,0,0.965-0.193,1.35c-5.4,4.727-12.922,3.762-18.707,7.521
			c-4.146,1.545-8.582,2.123-12.633,3.086c-3.182,0.098-6.076,1.447-9.064,0.869c-0.965,0.771-2.412,0-3.473,0.385
			c-6.943,0-10.896-1.35-16.297-2.506c-1.832,0.193-3.762-0.387-5.207-1.641c-2.508,0.289-4.533-0.482-6.365-1.445
			c-4.436-1.641-8.871-3.377-12.053-6.463c0,0.098-0.58-0.191-0.291-0.385c0.771-0.482,1.641,0.385,2.412,0.771
			c4.533,0.387,7.426,3.664,11.475,4.629c1.832,0.965,3.857,0.965,5.594,1.639c7.426,1.93,12.344,3.568,20.154,3.666
			c0.096,0,0.289-0.676,0.289,0.096c6.654-0.385,12.344-1.93,18.42-2.604c6.17-1.928,12.342-4.146,18.514-6.076
			c1.641-1.061,3.568-1.928,5.689-2.699c0.578,0,1.641-1.061,1.93-0.676C1193.058,923.806,1193.733,923.806,1192.769,924.288z"/>
		<path style="fill:#17192D;" d="M1180.714,893.911c-1.156,0.869-2.699,1.447-3.857,2.412c-4.725,1.35-9.836,2.604-14.945,2.604
			c-3.666,0.578-7.426,1.35-10.994,2.217c-1.93-0.191-4.146-0.578-6.365-0.096c-0.289,0.771-0.289,1.061-1.445,1.35
			c1.061,2.797,3.277,4.727,4.338,6.75c0.58,0.289,1.158,1.061,0.965,1.736c-0.385,1.158,0.193,1.158,0.867,1.832
			c0.869,0,1.641,0.098,2.412,0.482c2.025-0.674,3.568-0.674,5.207-0.096c1.832,1.061,3.375,0.289,5.4,0
			c3.857-0.578,7.521-1.447,11.477-1.639c3.084-0.098,6.17-0.098,9.449-0.098c0.289,0.098,0.578,0.193,0.482,0.482
			c0,0.289-0.387,0.578-0.676,0.676c-4.82,0.289-9.449,0.48-13.693,1.832c-3.182-0.098-5.785,0.867-8.775,0.578
			c-7.135-0.676-14.658,0-21.408,0.867c-2.988-0.674-5.303,0.58-8.195,0.387c-7.521-0.58-15.334-0.58-21.988-2.797
			c-0.963-0.289-0.482-1.061-0.963-1.736c0.096-0.289,0.578,0,0.771-0.096c2.314,0.482,4.338,1.543,6.654,1.445
			c0.096,0.098,0.096,0.098,0.191,0.193c3.955-0.193,7.619,1.061,11.09,0.867c2.604,1.447,5.496-0.385,8.293,0.098
			c3.568,0.578,6.559-0.676,10.029-1.158c0.482-0.385,1.158-0.771,1.832-1.541c-1.156-3.086-4.725-5.016-5.111-7.523
			c0.482,0-0.674-0.771-0.191-2.314c-2.99-0.867-5.4,0.289-7.619-0.771c-1.832-0.48-3.664,0.482-5.594-0.578
			c-2.604,1.254-4.916,0.098-7.424,0.289c-1.447-1.254-2.025,1.254-3.762,0.098c-1.639,0.48-3.857,0.77-5.207,0
			c0.096-0.387,0.096-0.676,0-1.062c1.445-0.867,3.473,0.291,4.918-0.867c2.121-0.193,3.664,0.965,5.785,0.578
			c6.172-1.156,13.02,0.193,19.287-0.191c4.34-0.193,9.064,0.48,13.211-0.965c6.559-1.061,13.404-1.93,19.576-3.184
			c1.543-0.963,3.375-2.023,5.305-1.928C1180.329,893.333,1180.618,893.526,1180.714,893.911z"/>
		<path style="fill:#17192D;" d="M1181.583,862.668c0.771,0.386,1.543,0,2.41,0.193c0.676,0,1.158,0.192,1.736,0.578
			c0.096,0.482-0.482,0.868-0.771,1.351c-0.676,0.868-1.447-0.482-1.641-0.482c-0.191-0.386-1.156,0.482-2.121-0.964
			c-1.928,0.578-3.664,0.578-5.014,0.192c-2.701,0.289-5.689-0.482-8.295,0.578c-1.059,0.097-1.639,1.351-2.119,1.929
			c-0.098,0-0.482,1.158-1.352,1.543c-1.254,1.157-3.086,2.99-3.664,3.473c-0.482,0.481,0-0.58-0.869,0.385
			c-0.48,0.386-0.289,0.579-0.963,1.64c-0.867,1.061-2.604,2.893-2.99,3.375c-0.578,1.156-1.156,2.506-1.832,4.051
			c2.025,1.35,4.051,0.963,5.4,1.83c1.736,0.098,3.857,0.482,5.689,0.965c1.061-0.867,1.832,0.193,2.604,0.193
			c1.061,0.578,2.701,0.482,3.953,1.061c2.412,0.387,4.533,1.832,7.234,1.35c0.963,0.193,2.121,0.58,3.086,0.869
			c-0.098,0.193-0.193,0.385-0.387,0.385c-1.639,0.289-3.086-0.578-4.531-0.482c-0.387-0.289-0.676-0.385-1.062-0.289
			c-0.771-0.096-1.543-0.289-2.217-0.289c-1.543-0.482-2.604,0.387-5.111-1.254c0,1.447,0.193,0.58,0.193,0.58
			c-1.447-0.387-3.473-0.965-5.4-0.869c-1.156-0.771-2.604-0.482-3.762-0.771c-2.699-0.289-4.531-1.35-7.137-1.156
			c0,0-0.096-0.098-0.191-0.098c-0.771-0.482-1.639-0.193-2.121-0.674c-5.883-1.641-11.861-3.279-17.744-4.918
			c-1.35-0.676-2.508-0.965-3.955-1.543c-1.928-0.675-3.76-1.832-5.785-2.604s-3.953-2.025-6.268-2.7
			c-0.578-0.289-1.543,0.192-1.543-0.771c0-0.29-0.289-0.965-0.096-1.062c0.674-1.06,2.602-1.06,3.566-1.542
			c2.314-0.193,5.594-0.676,8.391-1.254c1.061-1.254,2.699-0.289,3.953-0.771c4.727,0.192,9.643-2.219,15.043-1.543
			c6.848-1.061,14.465-1.64,20.928-1.061C1171.745,862.475,1176.665,861.993,1181.583,862.668z M1152.362,864.308
			c-1.252-0.482-3.182,0.675-5.109,0.289c-2.316-0.386-4.822,0.386-7.137,0.771c-2.219-0.386-3.953,0.964-6.172,0.771
			c-1.447,0.192-3.857,0.192-5.785,0.579c-3.184,0.578-6.076,1.446-9.74,1.735c1.447,1.64,4.051,2.797,4.436,2.894
			c2.025,0.675,3.664,1.832,5.496,2.41c2.797,0.965,5.207,1.929,7.812,2.7c1.832,0.482,4.242,1.061,5.883,1.35
			c1.832-0.096,4.436,1.543,6.941,1.928c1.447,0.193,0.771,0.869,2.797,0.291c0.771-1.834,1.93-3.086,2.605-4.727
			c0.867-1.156,1.348-1.253,2.602-2.603c0.869-0.868,1.736-2.219,2.701-3.472c0.867-0.965,2.025-2.024,2.604-2.7
			c0-0.193,1.156-1.446,1.156-2.218c-1.35-0.289-2.893-0.289-3.76-0.386C1157.089,863.536,1155.063,863.922,1152.362,864.308z"/>
		<path style="fill:#17192D;" d="M1134.909,826.795c2.699,0.482,4.918,0.965,7.811,0.578c5.016,2.122,10.801-0.867,15.525,2.604
			c2.604,0.579,5.883,0.675,8.295,1.929c4.049,1.35,8.293,1.929,11.764,4.725c1.445,1.929,2.508,3.665,3.568,5.69
			c-0.193,1.929-0.096,4.146-1.832,5.014c-3.666,1.446-7.523,2.122-11.09,3.954c-7.715,0.193-14.852,2.989-22.084,1.735
			c-3.471,0.772-6.846-0.096-10.318,0.482c-5.979-0.386-11.475-2.797-17.262-3.857c-1.254-1.061-6.172-1.929-2.217-3.471
			c2.604-0.482,4.242,1.446,6.557,2.024c1.35,0.289,2.604,1.832,4.146,1.832c5.883,1.061,10.994,2.122,17.357,1.351
			c5.498,1.35,11.477,0,16.973-1.157c5.207-0.386,9.932-1.832,14.754-3.183c2.314-1.061,1.447-2.989,2.508-5.497
			c-1.254-0.867-0.867-2.699-1.734-3.471c-1.545-1.736-4.631-2.604-6.559-3.761c-3.184-0.482-6.365,0-8.678-1.833
			c-2.605-0.481-5.596,0.193-7.619-1.832c-8.68-1.446-17.455-0.771-25.555-2.797c-4.727-0.482-8.68-0.675-12.537-3.085
			c0.193-0.579,1.158-0.29,1.543-0.482C1124.204,823.902,1129.026,827.277,1134.909,826.795z"/>
		<path style="fill:#17192D;" d="M1185.634,806.158c-0.965,2.122-3.279,2.315-4.92,3.472c-2.217,1.157-4.629,2.314-7.135,2.604
			c-0.676,0.386-1.641,0.481-2.412,0.578c-6.461,1.157-12.729,3.761-19.479,3.954c-4.629,0.964-9.74,0.481-14.756,0.386
			c-4.146,0-9.449-1.157-13.596-2.989c-2.025-0.482-4.242-1.254-5.689-2.508c-2.121-0.579-3.762-2.122-5.594-3.278
			c-0.385-0.676-0.867-1.351-0.867-2.025c0-0.097-0.096-0.193-0.096-0.193c1.928,0.482,3.76,1.929,5.689,3.086
			c1.543,0.868,2.41,2.025,4.049,2.411c2.797,0.579,5.016,2.508,7.908,2.314c5.303,1.35,11.09,1.254,17.455,0.868
			c-0.965-2.218,0.674-3.086-0.098-4.436c0.098-0.579,0.193-0.965,0.387-1.351c0.289-0.289,0.482-0.578,0.867-0.289
			c0.193,0.192,0.289,0.289,0.482,0.481c-0.193,0.579,0.193,0.965,0.482,1.254c-0.289,1.254,0,2.508-0.193,4.051
			c4.725,0.481,7.908-0.868,11.764-1.062c1.641-0.771,4.146-0.964,6.174-1.543c1.83-0.578,4.049-0.578,5.785-1.639
			c1.447,0.192,3.086-0.29,4.242-1.736c2.508,0.097,4.438-1.735,7.33-2.314c0-0.771,0-0.482,0-0.482
			c0.48-0.192,1.445-1.253,2.604-0.867C1185.923,805.387,1185.825,805.772,1185.634,806.158z"/>
		<path style="fill:#17192D;" d="M1122.179,778.193c1.062,0,2.604-0.096,3.762-0.192c2.797-1.735,7.135,0,10.414,0.386
			c2.025-1.157,5.4-0.482,7.523-0.675c3.086-0.771,7.135,0.192,10.703,0.192c6.268,0,13.5-0.192,19.77-0.481
			c0.963-0.097,1.928-0.676,2.797-0.29c0.096,0.097,0.191-0.096,0.289-0.096c-2.219,1.446-4.92,1.542-7.137,2.507
			c-3.182,2.796-6.848,4.243-10.223,6.364c-4.049,1.833-8.195,3.183-11.861,5.979c-1.156,0.578-2.217,1.254-3.375,1.832
			l-2.795,1.351l3.182,0.192c7.521,0.481,14.561-1.351,22.275-0.289c3.086,0,5.979-1.254,8.969-0.676c0.771-0.097,1.736,0,2.41,0
			c-0.096,0.193,0,0.579-0.096,0.676c-0.771,0-1.447,0.192-2.121,0.675c-0.773,0.386-1.736,0.386-2.604,0.578
			c-2.605,0.29-5.209-0.097-7.812,0.482c-7.039,0.193-13.887-0.675-20.732,0.097c-3.182-0.579-6.365,1.061-9.451,0.193
			c-2.025,0.481-4.627-0.579-6.172,0.578c-4.629-0.482-9.16-1.254-13.982-1.254c-1.061-0.386-2.699,0-3.182-1.157
			c-0.098-0.096,0.578-1.061,0.578-0.578c5.207-1.351,9.645,1.735,15.621,1.061c3.088-0.386,6.27,0,9.549-0.965
			c0.963-1.35,2.41-1.253,3.471-2.121c1.93-0.29,3.857-0.771,5.111-2.122c4.918-2.41,9.932-3.278,13.887-6.846
			c1.156-0.482,2.314-1.062,3.566-2.122c0-0.289,2.797-1.543,2.797-1.832c-0.096-0.193-2.988,0.481-2.988,0.097
			c-3.762,0-7.232-0.676-10.223,0.385c-5.4-1.35-10.992-1.446-16.779-0.192c-4.146-0.482-8.391-1.061-12.439-0.289
			c-3.375-1.447-7.137,1.543-10.223-1.157c-0.289-0.868-1.832-0.579-1.734-1.64C1116.2,776.266,1118.997,778.098,1122.179,778.193z"
			/>
		<path style="fill:#17192D;" d="M1169.046,729.207c-0.193-0.097,0.869-0.289,1.254-0.192c0.289,0,0.676,0,0.771,0
			c0.578,0.192,1.35,0.482,1.928,0.386c1.352,0.579,2.701,0.289,3.857,0.868c2.314,1.061,5.4,2.024,7.908,4.146
			c1.543,1.639,3.568,2.313,5.111,3.761c0.289,0.867,0.674,1.254,0.482,2.024c-1.543,0.097-2.314-2.121-3.762-2.699
			c-1.061-0.965-2.604-1.254-3.471-2.508c-0.193-0.097-0.58-0.482-0.771-0.578c-0.193-0.097-0.289-0.289-0.289-0.289
			c-0.098,0-0.482-0.193-0.482-0.29c-0.869-0.868-1.158-0.965-1.158-0.578c-0.676-0.193-1.156-0.676-1.832-0.579
			c-0.289-0.097-0.578-0.289-0.771-0.578c-1.156,0.192-1.447-0.386-2.025-0.482c-1.061-0.579-2.699,0-3.857-0.386
			c-0.578,0.097-1.061-0.482-1.734-0.386c-2.316-0.675-3.279-0.097-5.787,0.096c-3.182,1.158-3.279,0.869-5.303,1.64
			c-1.543,0.579-2.412,0.771-3.857,1.447c-1.447,0.675-2.025,1.446-3.473,2.121c-1.35,0.578-2.217,0.386-3.471,0.868
			c-1.447,0.578-2.314,1.254-3.666,1.832c-1.35,0.675-2.41,0.965-3.953,1.64c-1.445,0.868-2.217,1.735-3.953,2.218
			c-0.482,0-1.156,0.097-1.639,0.097c-0.482-0.097-1.062,0.096-1.352,0.096c-0.289,0.097-0.771-0.096-1.061-0.192
			c-1.734,0.578-2.699-0.579-4.531-0.386c-1.736-0.482-3.473-0.675-5.498-1.351c-1.928-1.061-4.436-1.542-6.557-2.989
			c-2.219-1.157-4.436-2.893-6.076-5.015c-0.193-0.289-0.963-1.061-0.289-0.964c1.736,0.771,3.279,2.507,5.111,3.183
			c4.918,3.086,10.029,4.918,15.141,5.399c0.578,0.29,1.254,0,1.928,0.29c0.965,0,2.314,0.289,3.375,0.096
			c3.473,0.387,2.701-1.156,4.146-1.735c1.543-0.579,2.508-0.482,3.857-1.157c0.965-0.578,1.447-1.254,2.604-1.735
			c0.965-0.579,1.641-1.062,2.893-1.254c2.895-0.29,2.99-0.868,4.438-2.122c0.676-0.386,1.061-0.867,1.832-1.156
			c0.674-0.579,1.254-0.29,2.121-0.579c1.158-0.29,1.736-0.675,2.893-1.061c1.061-0.386,2.219-0.868,2.797-0.868
			c2.025-0.868,3.184-0.289,5.111-0.482C1168.563,728.821,1169.142,729.207,1169.046,729.207z"/>
		<path style="fill:#17192D;" d="M1185.151,716.767c0.289,0.097,0.482,0.192,0.674,0.386c-0.867,2.218-3.471,0.965-5.496,1.543
			c-1.736,0.289-3.375,0-5.111,0.097c-4.725,0.096-9.449-0.097-13.982,0c-2.41,0-5.594,0.192-8.102-0.097
			c-1.639-0.193-3.664,0-5.303,0.097c-3.953,0.385-7.715,0-11.861,0.289c-0.193-0.193-0.385-0.193-0.578-0.193
			c-1.736,0.868-3.664,0.097-5.305,0.386c-3.953,0.193-7.715,0.579-11.572,0.579c-2.699-1.157-5.496,0.578-8.293-0.097
			c-0.387-0.097,0.578-1.157,0.869-1.157c4.242-2.893,9.16,1.157,13.885-0.192c5.594-1.543,11.861-0.965,17.359-1.254
			c5.496-0.289,10.703,0.192,16.297,0c1.543-0.193,3.086-0.193,4.725-0.193c0.385,0,0.867,0.097,1.254,0.097
			c4.242-0.097,8.486-0.097,12.246-0.675C1179.749,717.153,1182.161,716.67,1185.151,716.767z"/>
		<path style="fill:#17192D;" d="M1192.769,695.842c1.254,1.061,0,0.964-0.193,1.35c-5.4,4.726-12.922,3.762-18.707,7.522
			c-4.146,1.543-8.582,2.121-12.633,3.085c-3.182,0.097-6.076,1.446-9.064,0.869c-0.965,0.771-2.412,0-3.473,0.385
			c-6.943,0-10.896-1.35-16.297-2.507c-1.832,0.193-3.762-0.386-5.207-1.64c-2.508,0.289-4.533-0.482-6.365-1.446
			c-4.436-1.64-8.871-3.375-12.053-6.461c0,0.097-0.58-0.193-0.291-0.386c0.771-0.482,1.641,0.386,2.412,0.771
			c4.533,0.385,7.426,3.664,11.475,4.629c1.832,0.964,3.857,0.964,5.594,1.64c7.426,1.929,12.344,3.568,20.154,3.663
			c0.096,0,0.289-0.674,0.289,0.097c6.654-0.385,12.344-1.929,18.42-2.603c6.17-1.929,12.342-4.147,18.514-6.076
			c1.641-1.061,3.568-1.929,5.689-2.7c0.578,0,1.641-1.061,1.93-0.674C1193.058,695.361,1193.733,695.361,1192.769,695.842z"/>
		<path style="fill:#17192D;" d="M1180.714,665.466c-1.156,0.868-2.699,1.446-3.857,2.41c-4.725,1.351-9.836,2.604-14.945,2.604
			c-3.666,0.578-7.426,1.35-10.994,2.218c-1.93-0.193-4.146-0.578-6.365-0.097c-0.289,0.771-0.289,1.061-1.445,1.35
			c1.061,2.797,3.277,4.726,4.338,6.751c0.58,0.289,1.158,1.061,0.965,1.735c-0.385,1.157,0.193,1.157,0.867,1.833
			c0.869,0,1.641,0.096,2.412,0.481c2.025-0.675,3.568-0.675,5.207-0.097c1.832,1.062,3.375,0.29,5.4,0
			c3.857-0.578,7.521-1.446,11.477-1.639c3.084-0.097,6.17-0.097,9.449-0.097c0.289,0.097,0.578,0.192,0.482,0.481
			c0,0.29-0.387,0.579-0.676,0.676c-4.82,0.289-9.449,0.482-13.693,1.832c-3.182-0.097-5.785,0.868-8.775,0.579
			c-7.135-0.676-14.658,0-21.408,0.868c-2.988-0.676-5.303,0.578-8.195,0.385c-7.521-0.578-15.334-0.578-21.988-2.796
			c-0.963-0.29-0.482-1.062-0.963-1.736c0.096-0.289,0.578,0,0.771-0.097c2.314,0.482,4.338,1.543,6.654,1.447
			c0.096,0.096,0.096,0.096,0.191,0.192c3.955-0.192,7.619,1.061,11.09,0.867c2.604,1.447,5.496-0.385,8.293,0.098
			c3.568,0.578,6.559-0.676,10.029-1.157c0.482-0.387,1.158-0.771,1.832-1.543c-1.156-3.086-4.725-5.015-5.111-7.521
			c0.482,0-0.674-0.772-0.191-2.315c-2.99-0.868-5.4,0.289-7.619-0.771c-1.832-0.482-3.664,0.481-5.594-0.579
			c-2.604,1.254-4.916,0.097-7.424,0.29c-1.447-1.255-2.025,1.253-3.762,0.096c-1.639,0.482-3.857,0.771-5.207,0
			c0.096-0.386,0.096-0.675,0-1.061c1.445-0.868,3.473,0.289,4.918-0.868c2.121-0.193,3.664,0.964,5.785,0.578
			c6.172-1.156,13.02,0.193,19.287-0.192c4.34-0.192,9.064,0.482,13.211-0.964c6.559-1.062,13.404-1.929,19.576-3.183
			c1.543-0.964,3.375-2.025,5.305-1.929C1180.329,664.887,1180.618,665.081,1180.714,665.466z"/>
		<path style="fill:#17192D;" d="M1185.151,627.085c0.289,0.097,0.482,0.192,0.674,0.386c-0.867,2.218-3.471,0.965-5.496,1.543
			c-1.736,0.289-3.375,0-5.111,0.096c-4.725,0.097-9.449-0.096-13.982,0c-2.41,0-5.594,0.193-8.102-0.096
			c-1.639-0.193-3.664,0-5.303,0.096c-3.953,0.386-7.715,0-11.861,0.29c-0.193-0.193-0.385-0.193-0.578-0.193
			c-1.736,0.868-3.664,0.097-5.305,0.386c-3.953,0.192-7.715,0.579-11.572,0.579c-2.699-1.157-5.496,0.578-8.293-0.097
			c-0.387-0.097,0.578-1.157,0.869-1.157c4.242-2.893,9.16,1.157,13.885-0.192c5.594-1.543,11.861-0.965,17.359-1.254
			c5.496-0.289,10.703,0.192,16.297,0c1.543-0.193,3.086-0.193,4.725-0.193c0.385,0,0.867,0.097,1.254,0.097
			c4.242-0.097,8.486-0.097,12.246-0.675C1179.749,627.471,1182.161,626.989,1185.151,627.085z"/>
		<path style="fill:#17192D;" d="M1181.294,593.914c0.191,0.481,1.734,0.481,1.156,1.253c-2.701,1.832-6.365-0.193-9.258,1.351
			c-9.74,2.989-20.059,0.771-29.99,2.121c-5.787,0.771-11.186,0.771-16.875,1.929l-3.279-0.097l-0.096,0.386l3.277,1.446
			c3.762,0.772,8.584,0.868,12.15,1.736c3.375,0.867,6.268,0.965,9.547,1.929c3.568,0.675,7.041,0.289,11.09,0.386
			c0.289,0.192,0.771,0.097,0.965,0.386c-5.111,2.122-11.379,0.675-16.684,2.218c-1.445,1.254-3.857,0.868-5.592,1.639
			c-6.172,0-12.055,2.123-17.84,2.411c-0.676,0.579-1.834,0.676-2.797,1.062c0,0.385-2.604,0.964-2.508,1.157
			c0.096,0.289,3.086,0.192,3.182,0.675c9.549,1.446,18.227,0,27.002,1.061c5.4-2.025,10.992,1.157,16.201-0.579
			c6.172-2.024,13.115,0.29,18.611-1.832c1.639,0,3.375-0.867,4.82,0c1.736,0.098,4.631-1.64,5.98,0.193
			c0,0.192,0.191,0.096,0.289,0.192c-1.35,0.868-3.473,0.193-4.725,0.386c-7.33,1.833-15.045,2.314-22.662,3.472
			c-3.086,0-6.172,0.482-9.064-0.386c-3.762,0.098-7.619,0.386-11.572-0.289c-9.162-0.289-17.551,1.543-26.135-0.964
			c-3.182-0.965-6.268,0-9.064-0.676c0-0.578-2.121,0.482-1.639-0.385c0.578-0.29,0.965-1.255,2.025-1.446
			c4.34-2.411,10.029-1.737,14.85-3.473c5.883-1.061,12.537-1.735,18.611-3.182l3.184-0.772v-0.386l-3.184-0.578
			c-3.953-0.675-7.715-1.253-11.668-1.735c-4.822-2.219-10.51-2.025-15.332-4.147c-0.289-0.289-0.771-0.481-1.158-0.674
			c0.771-1.158,3.086-0.098,4.244-0.193c4.049-2.122,8.582-0.482,13.018-1.64c10.125-1.061,17.648-0.482,27.58-1.35
			c2.314-0.675,5.883-0.675,8.486-1.062c4.629-0.675,9.547,1.157,13.018-1.735C1180.136,593.238,1180.714,593.431,1181.294,593.914z
			"/>
		<path style="fill:#17192D;" d="M1111.573,562.379c1.734,0.482,3.182,1.543,5.014,1.254c0.963,0.289,2.025,0.192,3.086,0.289
			c0.867-0.289,1.928,0.289,2.988,0.193c2.025-0.579,3.857-0.097,5.883-0.579c2.025-0.289,3.473,0.192,5.4,0.192
			c1.35,0.482,2.508-0.481,4.051-0.192c2.604,0,6.363-0.097,9.064,0.097c4.146-1.446,8.582-0.482,12.824-0.579
			c0.771-0.192,1.736-0.096,2.51-0.096c0.578,0.096,1.156-0.386,1.734-0.386c6.461-0.193,13.309,0.289,19.383-0.482
			c1.35,0.675,2.701-0.965,3.664,0.482c0.771,1.639-1.639,0.867-2.797,1.35c-2.41,0-4.725,0.676-7.23,0.386
			c-2.895,0.675-5.691-0.386-8.68-0.097c-1.543-0.578-3.182,0.193-4.918,0.097c-2.219-1.157-4.146,0.097-6.172,0.579
			c-4.533-0.771-10.318,0-14.85-0.289c-3.279,1.446-6.943,0.192-10.031,1.06c-2.988-0.964-6.652,0.193-11.861-0.675
			c0.58,0.579-3.182-0.192-2.795,0.097c0.867,0.771,5.496,2.218,5.785,2.507c1.447,0.482,3.279,0.676,4.533,1.447
			c3.664,1.254,8.004,1.061,11.379,3.183c4.725,0.964,9.064,2.121,13.982,2.699c0.482,0.193,1.158,0,1.736,0.193
			c1.832-0.193,3.086,1.735,4.918,1.543c0.289,0.097,0.289,0.289,0.191,0.578c-0.674,0.289-1.35,0.386-1.928,0.193
			c-2.604-0.386-5.305,0.482-7.906,0.868c-3.088,0.964-6.365,1.543-9.645,2.121l-0.578,0.386c-2.797,0.771-5.4,0.771-8.102,1.735
			c-0.963,0.771-3.664,0.868-3.664,0.868l-4.82,1.157l4.627,0.192c4.822,1.255,10.705,0,15.527,0.29
			c2.023-0.965,4.436,0.192,6.461,0.192c2.893,0.097,6.074-1.157,8.775-0.482c2.797-0.096,4.82-0.096,7.426-0.481
			c2.312-0.289,5.205,0.386,7.811,0.192c4.242,0.097,8.775-0.771,13.307,0.289c0.771,1.062,3.568-1.06,3.473,0.579
			c-2.412,0.771-5.016,0.097-7.619,0.868c-0.771-0.192-1.734-0.386-2.508,0.097c-3.471,0.385-8.004-0.771-11.668,0
			c-1.061,0.096-1.736-0.193-2.795-0.193c-3.762,0.771-7.33,0.386-11.188,0.675c-1.832-0.771-4.051-0.481-5.979,0
			c-4.438,0-8.486-1.253-12.922-0.097c-4.725,0.097-9.836-0.578-14.947-0.385c-1.061,0.481-2.121-0.097-3.279,0
			c-1.254,0-2.604-0.097-3.857,0.385c-0.867,0-1.736,0.289-2.314-0.385c-0.289,0.289-0.385,0.096-0.867-0.097
			c-0.193-0.578,0.578-0.289,0.578-0.482c1.061-0.289,2.604,0.193,4.051-0.578c1.35,0,1.543-2.025,3.279-1.543
			c1.156,0.578,2.41-0.676,3.664-0.482c4.629-0.868,8.582-2.893,13.5-3.183c0.771-0.771,2.797-0.578,3.762-0.868
			c2.988-1.061,6.363-1.061,11.668-2.989c-6.076-2.507-11.379-1.061-14.756-3.664c-2.119-0.579-4.725-0.675-6.557-1.832
			c-0.771-0.193-1.736-0.386-2.604-0.097c-2.121-0.192-3.664-1.929-5.883-1.929c-1.254,0-2.121-1.446-3.375-1.446
			c-0.965-0.675-2.217-0.771-3.182-2.025c-2.797,0-4.918-0.481-6.848-1.543c-0.385-0.192-0.289-0.578-0.578-0.964
			c0-0.386-0.096-0.771,0.387-0.965C1109.45,561.897,1110.222,562.669,1111.573,562.379z"/>
		<path style="fill:#17192D;" d="M1185.634,543.576c-0.965,2.122-3.279,2.314-4.92,3.472c-2.217,1.157-4.629,2.314-7.135,2.604
			c-0.676,0.386-1.641,0.482-2.412,0.579c-6.461,1.157-12.729,3.761-19.479,3.953c-4.629,0.965-9.74,0.482-14.756,0.386
			c-4.146,0-9.449-1.156-13.596-2.989c-2.025-0.481-4.242-1.254-5.689-2.507c-2.121-0.579-3.762-2.122-5.594-3.279
			c-0.385-0.675-0.867-1.35-0.867-2.024c0-0.097-0.096-0.193-0.096-0.193c1.928,0.482,3.76,1.929,5.689,3.086
			c1.543,0.868,2.41,2.025,4.049,2.411c2.797,0.578,5.016,2.507,7.908,2.314c5.303,1.35,11.09,1.253,17.455,0.867
			c-0.965-2.218,0.674-3.085-0.098-4.436c0.098-0.578,0.193-0.964,0.387-1.351c0.289-0.289,0.482-0.578,0.867-0.289
			c0.193,0.193,0.289,0.289,0.482,0.482c-0.193,0.579,0.193,0.965,0.482,1.254c-0.289,1.254,0,2.507-0.193,4.05
			c4.725,0.482,7.908-0.867,11.764-1.061c1.641-0.771,4.146-0.965,6.174-1.543c1.83-0.579,4.049-0.579,5.785-1.64
			c1.447,0.193,3.086-0.289,4.242-1.735c2.508,0.097,4.438-1.736,7.33-2.314c0-0.771,0-0.482,0-0.482
			c0.48-0.192,1.445-1.253,2.604-0.868C1185.923,542.804,1185.825,543.19,1185.634,543.576z"/>
		<path style="fill:#17192D;" d="M1185.634,511.85c-3.762,2.7-3.473,0.965-5.305,2.025c-1.35,0.675-2.604,0.289-3.857,0.771
			c-2.025,0.675-2.025,0.867-3.568,1.64c-0.869,0.578-1.543,1.061-2.508,1.446c-1.928,0.868,0,2.121-4.82,2.024
			c-0.482,0.097-2.508,3.279-3.182,1.929c-2.412,0.29-0.965,0.482-2.895,1.254c-0.096,0.193-0.193-0.289-0.385-0.289
			c-0.965,0.386-1.158-0.193-1.543,0.771c-0.193,0.386,0.289,0.868-0.773,0.289c-1.061,0.482-2.023,0.868-2.023,0.965
			c-0.289,0.289-0.867,0.192-0.867,0.192c-0.676,0-1.545,0.965-2.316,1.735c-1.734,0.482-2.893,2.604-3.855,4.437
			c3.182,0.675,5.398,0.192,7.617,0.965c0.867,0.192,1.736-0.965,2.701,0c1.35-0.387,2.121-0.193,3.084-0.29
			c1.641,0.675,2.412-0.097,4.438,0.193c2.795-0.772,2.699-0.868,5.689-0.868c4.049,0.771,6.074,0.096,10.125,0.482
			c0.771-0.387,2.41,0.096,3.182,0.578c1.641-0.578,4.438-0.482,4.629-0.386c0.291,0.097,0.771,0.579,1.158,0.771
			c0.096,0.193,0.096,0.289-0.098,0.386c-2.314,0.868-2.988,0.097-5.207,0.675c-1.543-0.289-3.76,0-5.4-0.289
			c-2.988,0.193-3.762-0.868-7.137-0.097c-7.617,0-11.186,0-17.838,0c-0.482-0.097-0.965,0.193-1.447,0.097
			c-0.771-0.193-1.736,0.579-2.508-0.193c-3.76,0.579-8.004-0.385-10.512,0.29c-0.771,0.386-1.734,0.386-2.506,0.482
			c-2.314-1.062-5.689,0.097-7.908-0.482c-1.158,0.289-2.699,0.771-4.051,0.579c-2.121,0.385-3.953,0.289-5.881,0.771
			c-1.158-0.386-2.701,0.289-3.762,0c-1.93,0.482-4.051-0.192-6.076,0c-0.096-0.192-0.193-0.386-0.289-0.675
			c1.736-3.278,4.34-4.532,6.943-7.426c4.244-3.086,11.477-4.821,16.875-1.832c0.965-0.675,1.062,0.482,1.641,0.482
			c1.928,1.157,2.797,2.121,4.822,2.508c1.639,0.867,2.217,1.832,4.242,2.989c1.543-1.64,3.086-2.314,4.051-3.762
			c1.736-1.639,3.953-2.41,5.785-4.242c4.438-1.929,0.771,0.675,6.076-1.736c5.303-1.543,3.277-1.64,5.4-2.41
			c1.639-0.579,3.471-0.965,4.146-1.447c0.578-0.481,1.061-0.578,1.639-1.061c3.953-2.411,0.482-1.832,5.305-2.7
			c0.867-0.193,4.918-1.157,5.303-1.446c0.676-0.482,0.482-0.29,2.121-0.964C1184.669,510.79,1186.403,511.464,1185.634,511.85z
			 M1112.729,533.065c4.34,0.869,7.328,0.482,10.705-0.096c4.049-1.157,9.545-0.675,13.789-0.964c0.965-0.482,2.797,0,3.277-1.833
			c-1.734-0.289-2.506-1.35-3.471-1.832c-0.098,0-0.289-0.097-0.387,0c-2.699-1.351-5.303-2.604-8.293-3.183
			C1122.47,524,1116.683,527.762,1112.729,533.065z"/>
		<path style="fill:#17192D;" d="M1109.161,490.732c-0.096,1.157-0.096,3.568-0.482,5.111c-0.193,0.675,0.289,1.929-0.771,2.893
			c0.289,1.929,1.639,1.157,2.219,1.929c2.893,1.832,6.172-0.386,9.354,1.157c5.496-0.192,13.693,0.771,19.48,0.578
			c0.096,0,0.48-0.096,1.061-0.096c0.48-0.771,1.061-1.351,0.963-2.218c0.676-1.062-0.193-1.351,0.289-2.7
			c0.58-1.833,0-0.772,0.965-2.508c0.482-0.386,0.965-0.771,1.543-0.675c0.387,0.964,0,1.832,0,2.989
			c-1.252,2.604-0.193,1.254-0.963,4.437l0.578,0.578c2.699-0.289,4.918-0.482,7.328-0.482l0.482-0.192
			c2.508,0.386,5.979,0.192,8.293,0.289c10.512,0.386,21.891,0,31.822,1.254c0.676,0.096,0.098,0.771-0.289,0.868
			c-4.82,0.385-10.318-0.676-15.332-0.193c-0.098-0.097-0.387-0.192-0.482-0.289c-2.025-0.193-5.689,0.289-8.197-0.097
			c-3.568,1.253-7.426,0-10.801,0c-4.725-0.675-9.643,0.675-15.043,0.868c-1.156,0-2.988,0.481-4.051-0.193
			c-5.785,0.097-12.439-0.192-17.549-0.675c-1.062,0.289-3.088-0.482-4.051-0.097c-1.834-0.289-4.436-0.482-6.27-0.578
			c-0.771-0.193-2.023-1.254-2.988-1.543c-0.965-0.965,0.482-2.314,0.482-3.761c-0.869-1.062,0.096-1.64,0.096-2.7
			c0.193-0.29,0.193-0.771,0.289-1.062c0.771-1.253,0.289-3.278,1.641-4.339C1109.644,489.189,1108.968,490.732,1109.161,490.732z"
			/>
		<path style="fill:#17192D;" d="M1156.413,465.466c6.076-0.771,11.475,2.219,17.068,3.472c2.314,1.254,5.016,1.447,7.715,3.183
			c0.869-0.289,0.965,0.386,1.254,0.771c0,0.097-0.096-0.482-0.096-0.482c-3.279,1.929-7.137,4.051-11.188,5.208
			c-2.121,0.964-4.725,1.253-6.846,1.929c-2.604,0.771-5.111,1.639-7.619,2.314c-5.207,0.481-8.582,1.35-13.596,1.832
			c-3.762-0.676-8.197-0.289-11.572-1.736c-2.123,0.771-4.725-0.192-6.752-0.675c-2.506,0.482-4.531-1.832-6.941-2.122
			c-2.604-1.156-5.883-0.964-7.715-3.182c0.096-0.097-1.061-0.771-0.387-1.543c0.193-0.192,0.289-0.386,0.482-0.578
			c1.641-1.158,2.797-2.797,4.822-3.665c4.436-2.507,9.449-4.918,15.043-4.726c2.988,0.579,5.883-1.929,8.873-0.386
			C1144.456,465.081,1151.013,464.406,1156.413,465.466z M1112.632,473.278c-0.385,1.061-1.252,2.7,0.676,2.7
			c6.75,2.507,13.502,3.857,20.443,4.918c6.75,0.965,13.115,1.543,19.674-0.289c8.389-2.411,17.262-3.954,26.711-8.39
			c-5.496-1.062-8.582-2.7-11.957-3.279c-7.426-0.481-14.176-2.699-21.697-2.507
			C1134.331,466.624,1122.083,467.974,1112.632,473.278z"/>
		<path style="fill:#17192D;" d="M1175.892,444.446c-3.471,2.506-7.906,2.12-11.088,4.82c-1.254,0.387-2.604,1.061-3.666,1.736
			c-2.988-0.097-6.074,1.832-10.125,3.664c2.604,1.061,4.533,0.771,5.883,0.386c5.689,0,10.703-0.964,16.684-0.097
			c1.639,0,3.664-0.482,5.111,0.193c2.795,0.097,6.074-0.676,8.484,0.675c0.098,0.097,0.098,0.097,0.193,0.193
			c-2.025,0.578-4.629,0.386-6.654,0.289c-1.734-0.482-3.566,0.192-5.496,0.192c-3.762,0.097-7.715-1.253-11.09,0.386
			c-3.086,0.387-5.979-1.061-8.969,0c-2.699,0.868-5.4-0.481-7.906,0.772c-4.629-0.772-10.609,0.096-15.623-0.772
			c-5.689,0-11.475,0.387-17.068-0.578c-3.086-0.097-4.34-0.675-7.232-1.254c-0.096,0,0.482-0.675,0.482-0.868
			c3.086-1.832,4.146-2.41,7.426-3.664c4.531-1.832,9.354-1.446,13.885-2.7c6.365,0.097,12.633,0.964,17.262,7.04
			c8.486-5.111,17.551-5.689,25.748-10.126c3.664-1.157,7.039-2.989,10.705-4.146c0.578,0,1.541-0.387,2.217-0.193
			C1182.065,442.13,1178.979,443.481,1175.892,444.446z M1121.601,450.809c-1.254,0.386-2.795-0.097-3.953,0.676
			c-1.543-0.193-2.99,0.675-4.244,1.156l-2.312,1.64c0.867,0.097,4.242,0.386,5.207,0.579c1.252,1.253,3.471,0.675,5.014,1.061
			c7.137-0.965,15.141,0.192,23.723-0.193c-1.254-1.543-2.506-1.928-3.182-2.604c-1.352-1.35-5.111-2.797-7.619-3.857
			C1129.894,449.845,1125.265,448.88,1121.601,450.809z"/>
		<path style="fill:#17192D;" d="M1102.894,414.743c0.193,1.64,0.867,2.797,1.156,4.532c-0.578,2.604-0.096,4.918,0.869,8.101
			c1.35-0.675,2.314-0.482,2.797-0.289c1.83-0.193,4.146,0.289,5.977,0.193c1.738-0.387,3.857-0.579,5.594-0.579
			c2.701-1.35,6.076-1.736,8.775-2.314c1.543,0.386,3.377,0,4.822,0.192c6.557,0,13.309-1.639,19.479-2.507
			c1.158,0.097,2.895-0.192,3.955,0.097c0.191-0.097,0.674-0.097,0.771-0.193c4.822-0.192,8.68-0.289,13.5-0.289
			c2.219,0,4.146,0.386,6.172,0.482h-0.096c-2.508,1.832-5.979,1.157-8.68,1.735c-3.955-0.964-8.102,1.061-12.344-0.578
			c-2.508,2.604-5.496,0.578-8.1,1.446c-2.412-0.289-5.305-0.193-7.33,1.061c-0.963-0.096-1.832,0.289-3.182-0.192
			c-2.314,1.35-5.207,0.675-7.619,0.675c-3.953-0.868-7.135,1.735-10.896,1.254c-2.699,1.35-5.785,1.157-8.871,1.157
			c-0.965-1.062-2.508-0.097-4.436-2.219c-0.676,4.243-0.289,6.751-0.482,9.354c0.482,2.025-0.289,4.243,0,6.461
			c-0.096,0.097-0.096,0.192-0.193,0.289c-0.771-0.097-0.963-0.964-1.254-1.543c0.58-1.928,0.482-3.856,0-5.785
			c-0.385-0.482,0-1.351,0.098-2.314c-1.062-1.447-0.193-3.568-0.965-4.919c0.482-1.543-0.193-3.182-0.098-4.725
			c-0.867-1.543,0.291-3.568-0.578-5.111c0-1.351-1.832-2.7-0.289-3.761c0.096-0.097,0.289-0.193,0.482-0.289
			C1102.313,414.26,1102.796,414.357,1102.894,414.743z"/>
		<path style="fill:#17192D;" d="M1185.151,377.906c0.289,0.096,0.482,0.193,0.674,0.386c-0.867,2.218-3.471,0.965-5.496,1.543
			c-1.736,0.289-3.375,0-5.111,0.096c-4.725,0.098-9.449-0.096-13.982,0c-2.41,0-5.594,0.193-8.102-0.096
			c-1.639-0.193-3.664,0-5.303,0.096c-3.953,0.387-7.715,0-11.861,0.29c-0.193-0.192-0.385-0.192-0.578-0.192
			c-1.736,0.867-3.664,0.096-5.305,0.385c-3.953,0.193-7.715,0.579-11.572,0.579c-2.699-1.157-5.496,0.578-8.293-0.097
			c-0.387-0.097,0.578-1.156,0.869-1.156c4.242-2.894,9.16,1.156,13.885-0.193c5.594-1.544,11.861-0.965,17.359-1.254
			c5.496-0.29,10.703,0.192,16.297,0c1.543-0.192,3.086-0.192,4.725-0.192c0.385,0,0.867,0.096,1.254,0.096
			c4.242-0.096,8.486-0.096,12.246-0.675C1179.749,378.292,1182.161,377.81,1185.151,377.906z"/>
		<path style="fill:#17192D;" d="M1122.179,350.519c1.062,0,2.604-0.097,3.762-0.192c2.797-1.736,7.135,0,10.414,0.387
			c2.025-1.158,5.4-0.482,7.523-0.676c3.086-0.771,7.135,0.193,10.703,0.193c6.268,0,13.5-0.193,19.77-0.482
			c0.963-0.097,1.928-0.676,2.797-0.29c0.096,0.097,0.191-0.096,0.289-0.096c-2.219,1.446-4.92,1.542-7.137,2.507
			c-3.182,2.796-6.848,4.242-10.223,6.364c-4.049,1.832-8.195,3.182-11.861,5.979c-1.156,0.579-2.217,1.254-3.375,1.833l-2.795,1.35
			l3.182,0.193c7.521,0.481,14.561-1.351,22.275-0.289c3.086,0,5.979-1.254,8.969-0.676c0.771-0.097,1.736,0,2.41,0
			c-0.096,0.193,0,0.578-0.096,0.676c-0.771,0-1.447,0.192-2.121,0.674c-0.773,0.387-1.736,0.387-2.604,0.579
			c-2.605,0.29-5.209-0.097-7.812,0.482c-7.039,0.192-13.887-0.675-20.732,0.096c-3.182-0.578-6.365,1.062-9.451,0.193
			c-2.025,0.482-4.627-0.578-6.172,0.578c-4.629-0.481-9.16-1.254-13.982-1.254c-1.061-0.385-2.699,0-3.182-1.156
			c-0.098-0.097,0.578-1.061,0.578-0.578c5.207-1.351,9.645,1.734,15.621,1.06c3.088-0.385,6.27,0,9.549-0.964
			c0.963-1.35,2.41-1.254,3.471-2.121c1.93-0.29,3.857-0.771,5.111-2.122c4.918-2.411,9.932-3.279,13.887-6.847
			c1.156-0.481,2.314-1.061,3.566-2.121c0-0.289,2.797-1.544,2.797-1.832c-0.096-0.193-2.988,0.481-2.988,0.096
			c-3.762,0-7.232-0.675-10.223,0.386c-5.4-1.35-10.992-1.446-16.779-0.193c-4.146-0.481-8.391-1.06-12.439-0.288
			c-3.375-1.447-7.137,1.543-10.223-1.157c-0.289-0.868-1.832-0.578-1.734-1.64C1116.2,348.59,1118.997,350.422,1122.179,350.519z"
			/>
		<path style="fill:#17192D;" d="M1153.425,298.157c3.76,0.29,7.617,1.157,11.668,1.64c4.918,0.578,10.029,1.156,14.656,3.472
			c2.412,2.411,5.402,3.664,7.33,6.847c0.289,1.735,1.543,1.446,0.965,3.568c0.096,0.289-0.193,0-0.193-0.387
			c-2.217,0.098-1.158-0.482-2.797-2.699c-2.508,0.771-4.34-0.387-6.172,0.386c-7.715-0.482-14.369,0-21.891,0.771
			c-1.832,0.868-4.146,0.868-6.268,0.578c-1.35-0.481-2.797,0.482-4.436,0.193c-5.016-0.289-10.607-0.289-15.525,0.387
			c-3.664-0.193-7.232,0-10.994,0.385c-1.445-0.289-3.086-0.771-5.111-0.192c-0.578,1.351-1.254,1.061-0.771,2.218
			c-0.193,0.193-0.385,0.482-0.674,0.676c-0.289-0.098-0.58,0-0.869-0.29c0.387-2.796,2.219-4.34,3.955-6.461
			c3.375-3.085,7.715-4.532,11.379-7.521c2.41-1.544,4.918-1.736,7.521-2.797c3.279-0.481,6.943-0.29,10.125-0.964
			C1148.024,298.638,1150.628,298.447,1153.425,298.157z M1138.188,300.568c-3.762-0.193-6.365,1.543-9.934,2.604
			c-0.193,0.192-1.061,1.061-1.543,1.35c-2.699,1.93-5.883,2.797-8.775,6.654c3.471-0.289,5.207,0.965,6.846,0.289
			c2.412,0.289,4.533-0.964,6.945-1.061c3.471,1.061,7.232,0.193,10.801,0.675c3.277,0.386,6.846-0.386,10.221-0.578
			c5.979-2.315,12.922-0.675,19.094-1.351c2.99,0,6.461-0.482,11.186,0.097c-1.832-3.857-5.109-4.532-7.328-5.786
			c-5.689-1.543-11.379-2.508-17.262-3.086c-1.158-0.193-2.604,0.289-3.664-0.386
			C1149.47,300.279,1143.106,298.447,1138.188,300.568z"/>
		<path style="fill:#17192D;" d="M1190.647,287.55c-0.289,0.096-1.061,0.674-1.736,0.867c-1.832,0.097-4.436,0.289-6.268,0.578
			c-1.061-0.385-3.086,0.387-4.146,0.097c-5.111,0.482-10.223,0.772-16.008,0.675c-1.061,0.676-2.99,0.193-4.146,0.193
			c-5.4-0.193-10.318-1.543-15.045-0.868c-3.375,0-7.232,1.254-10.801,0c-2.506,0.386-6.17-0.097-8.195,0.097
			c-0.098,0.097-0.289,0.193-0.387,0.289c-5.014-0.482-10.607,0.578-15.43,0.193c-0.385-0.097-0.867-0.771-0.191-0.868
			c9.932-1.253,21.215-0.771,31.727-1.253c2.314-0.098,5.785,0.096,8.293-0.387c0.096,0.097,0.191,0.193,0.289,0.289
			c3.76,0,7.232,0.482,10.801,0.771c0.289-0.192,0.963-0.096,1.156,0c5.787,0.193,12.537-0.867,18.033-0.674
			c3.184-1.543,6.559,0.674,9.451-1.158c0.385-0.578,1.254-0.289,1.736-0.771C1190.937,286.392,1190.839,287.164,1190.647,287.55z"
			/>
		<path style="fill:#17192D;" d="M1185.634,267.781c-0.965,2.121-3.279,2.314-4.92,3.472c-2.217,1.157-4.629,2.314-7.135,2.604
			c-0.676,0.385-1.641,0.481-2.412,0.578c-6.461,1.156-12.729,3.761-19.479,3.953c-4.629,0.965-9.74,0.482-14.756,0.386
			c-4.146,0-9.449-1.157-13.596-2.989c-2.025-0.482-4.242-1.254-5.689-2.507c-2.121-0.579-3.762-2.122-5.594-3.278
			c-0.385-0.676-0.867-1.351-0.867-2.025c0-0.097-0.096-0.193-0.096-0.193c1.928,0.482,3.76,1.929,5.689,3.086
			c1.543,0.868,2.41,2.025,4.049,2.411c2.797,0.579,5.016,2.507,7.908,2.313c5.303,1.351,11.09,1.254,17.455,0.869
			c-0.965-2.219,0.674-3.086-0.098-4.437c0.098-0.579,0.193-0.964,0.387-1.351c0.289-0.289,0.482-0.578,0.867-0.289
			c0.193,0.193,0.289,0.289,0.482,0.482c-0.193,0.578,0.193,0.965,0.482,1.254c-0.289,1.254,0,2.507-0.193,4.05
			c4.725,0.482,7.908-0.868,11.764-1.061c1.641-0.771,4.146-0.964,6.174-1.543c1.83-0.579,4.049-0.579,5.785-1.64
			c1.447,0.193,3.086-0.289,4.242-1.736c2.508,0.098,4.438-1.734,7.33-2.313c0-0.771,0-0.482,0-0.482
			c0.48-0.192,1.445-1.253,2.604-0.868C1185.923,267.009,1185.825,267.395,1185.634,267.781z"/>
		<path style="fill:#17192D;" d="M1188.14,203.943c2.41,0.289,4.051-0.289,4.629,0.867c0,0.098-0.096,0.29-0.096,0.387
			c-3.568,2.024-8.197,1.157-12.344,2.314c-7.33,1.061-14.852,1.639-21.602,3.375c-1.543,2.121-3.279,5.014-2.219,7.812
			c0.098,0.096-0.289,0-0.674,0.675c0.674,0.964-0.387,1.35-0.387,2.121c-0.385,1.832-0.191,4.146-0.963,7.329
			c5.592,1.254,10.896,1.157,15.525,2.411c3.375,0.964,8.1-0.579,11.475,1.157c1.254,0,2.797-0.193,3.666,0.868
			c0.191,0.481-0.676,0.481-1.062,0.481c-3.953-0.675-6.941-0.386-10.703-0.868c-4.436-1.928-11.186-0.289-16.008-2.218
			c-1.736,0-4.436,0.482-5.787-0.481c-4.531-1.061-9.932,0.289-14.176-1.736c-7.906,0.289-14.463-2.99-22.564-2.99
			c-0.385-0.385-0.385-1.06-1.254-1.156c-2.314-0.771-5.303,0.675-6.75-1.254c0.578-1.061,2.121-0.578,3.279-1.446
			c9.74-2.122,18.707-6.364,28.641-8.196c2.797-1.352,6.268-1.736,9.354-2.99c1.061-0.096,2.121-0.289,3.086,0.097
			c1.928-0.579,4.051-1.254,6.172-1.254c4.533-0.097,8.582-2.218,13.309-1.832c1.445-0.868,3.664-0.193,5.205-0.675
			c2.99-0.289,6.076-1.061,8.873-1.832c0.578-0.289,0.869-0.482,0.965-0.676c0.867-0.386,0.963-0.386,1.639-0.289
			C1187.368,204.04,1188.14,203.75,1188.14,203.943z M1151.688,211.753c-4.822,2.123-10.416,2.123-15.43,3.568
			c-5.883,1.64-11.379,4.918-18.033,6.172c0,1.64,0.676,2.219,1.832,2.314c2.701,0.965,5.207,2.025,8.293,2.411
			c5.689,0.771,12.344,0.289,17.744,1.64c1.447,0,3.568,0,5.496,0.578c0.965-1.157,1.061-2.314,1.93-2.893
			c0-1.157,0.289-2.025,0.387-2.894c0.191-1.446,0.191-2.796,0.482-3.857c0.48-1.832,0.77-2.507,0.963-4.05
			C1157.956,210.21,1153.425,211.851,1151.688,211.753z"/>
		<path style="fill:#17192D;" d="M1134.909,170.288c2.699,0.482,4.918,0.964,7.811,0.578c5.016,2.122,10.801-0.868,15.525,2.604
			c2.604,0.579,5.883,0.675,8.295,1.929c4.049,1.351,8.293,1.929,11.764,4.726c1.445,1.929,2.508,3.665,3.568,5.69
			c-0.193,1.928-0.096,4.146-1.832,5.014c-3.666,1.446-7.523,2.121-11.09,3.954c-7.715,0.192-14.852,2.989-22.084,1.735
			c-3.471,0.771-6.846-0.096-10.318,0.482c-5.979-0.386-11.475-2.797-17.262-3.857c-1.254-1.061-6.172-1.929-2.217-3.472
			c2.604-0.481,4.242,1.446,6.557,2.024c1.35,0.29,2.604,1.833,4.146,1.833c5.883,1.061,10.994,2.122,17.357,1.351
			c5.498,1.35,11.477,0,16.973-1.158c5.207-0.385,9.932-1.832,14.754-3.182c2.314-1.061,1.447-2.99,2.508-5.497
			c-1.254-0.868-0.867-2.7-1.734-3.472c-1.545-1.736-4.631-2.604-6.559-3.761c-3.184-0.482-6.365,0-8.678-1.832
			c-2.605-0.481-5.596,0.192-7.619-1.833c-8.68-1.445-17.455-0.771-25.555-2.796c-4.727-0.482-8.68-0.675-12.537-3.085
			c0.193-0.58,1.158-0.29,1.543-0.482C1124.204,167.394,1129.026,170.77,1134.909,170.288z"/>
		<path style="fill:#17192D;" d="M1187.272,144.347c1.254,0.482,2.121-0.193,3.086,0c-0.289,0.675-0.771,1.254-0.771,2.025
			c-0.387,1.061-1.736,1.254-2.508,2.025c-0.771,0.192-0.867,1.253-1.736,1.832c-2.025,1.254-3.857,2.604-5.883,4.05
			c-3.953,0.964-7.521,3.665-12.15,4.146c-3.568,1.64-8.195,1.544-12.15,1.64c-2.41,1.928-6.268,0.193-9.16,1.254
			c-1.447,0.192-2.314-0.386-3.471-0.386c-3.955,1.06-7.523-0.482-11.188-1.062c-2.604-1.157-5.4-1.446-7.906-2.796
			c-0.773-0.579-1.93-0.386-2.701-0.675c-3.086-2.025-6.654-3.279-9.451-5.497c-1.35-0.29-1.736-1.929-3.086-2.218
			c-0.48-0.676-1.445-1.254-0.867-2.701c-0.867-0.674-1.641-2.024,0-1.734c0.387-0.29,0.578-0.098,0.096,0.289
			c3.184,3.857,8.391,7.426,13.502,10.125c1.928,0,3.855,1.061,5.014,2.025c3.953,1.061,7.617,2.507,11.668,2.507
			c1.447,0,2.893,0.29,4.146-0.097c2.508,0.289,4.822,0.965,7.426,0.289c2.508-0.192,5.016-0.481,7.426-0.964
			c7.715-1.543,16.104-1.929,22.469-6.171c2.314-1.543,3.953-2.894,5.979-5.208c-0.289-0.481,1.254-0.386,0.965-1.062
			c-5.979,0.29-13.404,0.482-18.805,0.869c-2.41,1.061-5.207-0.193-7.811,0.192c-2.314,0.289-4.725-0.289-7.137-0.192
			c-1.156,0-2.217-0.193-3.279,0.192c-1.734-0.289-3.953,0.193-5.4-0.771c-0.674-0.579,0.869-0.481,1.061-0.868
			c1.545-0.578,3.088-0.771,4.822-0.096c1.352,0.192,2.701-0.676,3.955-0.676c3.566,0,6.652,0.965,9.064,0.676
			c0-0.29,1.156,0,2.121,0c0.676-0.193,1.35-0.193,1.736-0.097c2.121,0,3.471-0.386,5.398-0.097c3.473-0.867,7.812,0,10.609-0.771
			c0.867-0.193,0.771-0.096,1.639-0.193C1185.44,144.154,1186.114,143.672,1187.272,144.347z"/>
		<path style="fill:#17192D;" d="M1185.634,125.253c-0.965,2.123-3.279,2.315-4.92,3.473c-2.217,1.157-4.629,2.314-7.135,2.604
			c-0.676,0.386-1.641,0.482-2.412,0.578c-6.461,1.158-12.729,3.762-19.479,3.954c-4.629,0.964-9.74,0.482-14.756,0.386
			c-4.146,0-9.449-1.157-13.596-2.989c-2.025-0.481-4.242-1.254-5.689-2.507c-2.121-0.579-3.762-2.122-5.594-3.279
			c-0.385-0.675-0.867-1.35-0.867-2.025c0-0.096-0.096-0.193-0.096-0.193c1.928,0.482,3.76,1.93,5.689,3.087
			c1.543,0.868,2.41,2.024,4.049,2.411c2.797,0.578,5.016,2.507,7.908,2.314c5.303,1.35,11.09,1.253,17.455,0.867
			c-0.965-2.218,0.674-3.086-0.098-4.436c0.098-0.578,0.193-0.965,0.387-1.351c0.289-0.289,0.482-0.578,0.867-0.289
			c0.193,0.193,0.289,0.289,0.482,0.482c-0.193,0.579,0.193,0.964,0.482,1.253c-0.289,1.254,0,2.508-0.193,4.051
			c4.725,0.482,7.908-0.867,11.764-1.061c1.641-0.771,4.146-0.965,6.174-1.543c1.83-0.578,4.049-0.578,5.785-1.64
			c1.447,0.192,3.086-0.29,4.242-1.735c2.508,0.096,4.438-1.736,7.33-2.314c0-0.771,0-0.482,0-0.482
			c0.48-0.193,1.445-1.254,2.604-0.868C1185.923,124.483,1185.825,124.869,1185.634,125.253z"/>
		<path style="fill:#17192D;" d="M1188.333,86.779c-7.619,3.375-14.176,7.811-20.83,12.246c-0.578,0.29-0.771,1.061-2.025,1.061
			c-3.084,3.086-6.941,3.376-9.74,6.173c-2.506,1.253-5.303,2.7-8.195,4.917c0.385,0.29,1.061,0.58,1.35,0.771
			c2.025,0.965,4.051,0.193,5.883,0.291c5.785,0.191,11.09-0.772,16.201-0.869c4.916,0,9.449-1.157,13.789-0.675
			c0.096,0.192,0.096,0.481,0.096,0.868c-0.289,2.218-2.795,0.676-3.857,1.061c-4.629,0.579-8.678,0.676-13.693,0.868
			c-6.172,0.386-12.246,0.097-18.418,0.771c-4.146,0.386-7.908,0-11.861,0.868c-6.557-0.772-13.211,2.604-19.77,1.254
			c-1.541,0-3.086,0.771-4.725,0.385c-0.674-0.482-3.76,0.097-2.219-1.35c5.016-0.771,10.223,0,15.334-0.676
			c7.715-0.289,15.912-0.771,21.602-5.689c0.963-0.289,1.734-0.965,2.41-1.446c2.41-1.446,5.016-2.507,7.039-4.629
			c2.025-0.675,3.857-1.831,5.498-2.989c2.893-2.893,6.75-3.953,9.932-6.172c0-0.385,0.289-0.289,0.482-0.385
			c0.867-0.387,1.543-1.158,2.604-1.93c0-0.386,2.797-0.964,2.701-1.253c-0.098-0.289-3.279-0.193-3.568-0.386
			c-4.436,0.964-9.934,1.35-15.045,1.832c-5.496,0.482-9.16,1.543-14.369,1.639c-1.83-0.385-4.436,1.447-6.266-0.096
			c-2.027,0-3.184-0.096-4.822,0.482c-1.447,0-2.893-0.193-4.629-0.193c-0.387-0.096-0.771,0.289-1.158,0.289
			c-1.639,1.061-2.508-1.447-3.76-0.289c-0.578,0.193-1.158,0.675-1.736-0.193c-3.086,0.868-5.496,0.387-8.1-1.061
			c-0.869,0.387-1.158-0.096-1.543-0.385c0-0.098,0-0.193,0-0.29c0.289-0.675,0.867,0.29,0.867,0.192c0,0,0.578,0.482,1.158-0.096
			c0.385-0.579,1.252,0.674,1.445,0.385c3.279,0.771,7.137,0.58,10.801,0.098c3.375,0.578,8.486-0.387,11.668,0.289
			c0.676-0.098,1.543-0.676,2.701-0.289c1.061-0.965,2.506-0.098,3.277-0.676c4.051-0.289,8.391-0.964,12.537-0.964
			c3.953-0.386,8.293-0.771,11.475-1.253c0.676,0.192,1.447-0.387,2.123,0.096c1.639-0.385,2.314-0.385,3.566-0.578
			c2.508-0.482,5.689-0.869,7.908-1.351c0.387,0,0.867-0.289,1.445-0.964c-0.48-0.868,0.58-0.482,0.676-0.482
			c0.869-0.386,2.314,0.386,3.762-0.097C1188.333,86.201,1188.429,86.49,1188.333,86.779z"/>
		<path style="fill:#17192D;" d="M1182.161,78.486c0.096,0.096,0.193,0,0.193,0.096c-1.736,0.387-3.473-0.289-5.016,0.387
			c-1.061,0.676-2.41,1.254-3.76,0.578c-0.098-0.674-0.387-1.446-0.193-2.313c0.193-0.386,0.482,0.096,0.771-0.193
			C1177.05,76.171,1179.749,77.136,1182.161,78.486z"/>
	</g>
	<path style="fill:none;stroke:#17192D;stroke-width:3;" d="M2048,0"/>
	<path style="fill:none;stroke:#17192D;stroke-width:3;" d="M2048,1536"/>
	<path style="fill:none;stroke:#17192D;stroke-width:3;" d="M0,1536"/>
	<path style="fill:none;stroke:#17192D;stroke-width:3;" d="M0,0"/>
</g>
<g id="Layer_1">
</g>
</svg>
