<?xml version="1.0" encoding="iso-8859-1"?>
<!-- Generator: Adobe Illustrator 15.1.0, SVG Export Plug-In . SVG Version: 6.00 Build 0)  -->
<!DOCTYPE svg PUBLIC "-//W3C//DTD SVG 1.1//EN" "http://www.w3.org/Graphics/SVG/1.1/DTD/svg11.dtd">
<svg version="1.1" xmlns="http://www.w3.org/2000/svg" xmlns:xlink="http://www.w3.org/1999/xlink" x="0px" y="0px" width="2048px"
	 height="1536px" viewBox="0 0 2048 1536" style="enable-background:new 0 0 2048 1536;" xml:space="preserve">
<g id="dtxta_x5F_1">
	<g>
		<path style="fill:#17192D;" d="M810.636,834.126c-7.619,3.375-14.176,7.811-20.83,12.246c-0.578,0.289-0.771,1.061-2.025,1.061
			c-3.086,3.086-6.943,3.375-9.74,6.172c-2.506,1.254-5.303,2.701-8.195,4.918c0.385,0.289,1.061,0.578,1.35,0.771
			c2.025,0.965,4.051,0.193,5.883,0.289c5.785,0.193,11.09-0.771,16.199-0.867c4.918,0,9.451-1.156,13.791-0.676
			c0.096,0.193,0.096,0.482,0.096,0.869c-0.289,2.219-2.797,0.674-3.857,1.061c-4.629,0.578-8.678,0.676-13.693,0.867
			c-6.172,0.387-12.246,0.098-18.418,0.771c-4.146,0.387-7.908,0-11.861,0.867c-6.557-0.77-13.211,2.605-19.77,1.254
			c-1.543,0-3.086,0.773-4.725,0.387c-0.676-0.482-3.762,0.096-2.219-1.35c5.016-0.771,10.223,0,15.334-0.676
			c7.715-0.289,15.912-0.771,21.6-5.689c0.965-0.289,1.736-0.965,2.412-1.447c2.41-1.445,5.014-2.506,7.039-4.629
			c2.025-0.674,3.857-1.832,5.498-2.988c2.893-2.893,6.75-3.953,9.932-6.172c0-0.385,0.289-0.289,0.482-0.385
			c0.867-0.387,1.543-1.158,2.604-1.93c0-0.385,2.797-0.965,2.699-1.254c-0.096-0.289-3.277-0.191-3.568-0.385
			c-4.436,0.965-9.932,1.35-15.043,1.832c-5.496,0.482-9.16,1.543-14.369,1.639c-1.832-0.385-4.436,1.447-6.268-0.096
			c-2.025,0-3.182-0.098-4.82,0.482c-1.447,0-2.895-0.193-4.629-0.193c-0.387-0.096-0.773,0.289-1.158,0.289
			c-1.639,1.061-2.508-1.447-3.762-0.289c-0.578,0.193-1.156,0.676-1.734-0.193c-3.086,0.869-5.498,0.387-8.1-1.061
			c-0.869,0.387-1.158-0.096-1.545-0.387c0-0.096,0-0.191,0-0.289c0.289-0.674,0.869,0.289,0.869,0.193c0,0,0.578,0.482,1.158-0.096
			c0.385-0.578,1.252,0.674,1.445,0.385c3.279,0.771,7.137,0.58,10.801,0.098c3.375,0.578,8.486-0.387,11.668,0.289
			c0.676-0.098,1.543-0.676,2.701-0.289c1.061-0.965,2.506-0.098,3.277-0.676c4.051-0.289,8.391-0.965,12.537-0.965
			c3.953-0.385,8.293-0.771,11.475-1.254c0.676,0.193,1.447-0.385,2.121,0.098c1.641-0.387,2.316-0.387,3.568-0.578
			c2.508-0.482,5.689-0.869,7.908-1.352c0.385,0,0.867-0.289,1.445-0.963c-0.482-0.869,0.58-0.482,0.676-0.482
			c0.869-0.387,2.314,0.385,3.762-0.098C810.636,833.548,810.731,833.837,810.636,834.126z"/>
		<path style="fill:#17192D;" d="M807.454,822.265c0.289,0.098,0.48,0.193,0.674,0.387c-0.867,2.217-3.473,0.963-5.496,1.543
			c-1.736,0.289-3.375,0-5.111,0.096c-4.725,0.098-9.451-0.096-13.982,0c-2.412,0-5.594,0.193-8.102-0.096
			c-1.639-0.193-3.664,0-5.303,0.096c-3.955,0.387-7.715,0-11.861,0.289c-0.193-0.191-0.387-0.191-0.578-0.191
			c-1.736,0.867-3.666,0.096-5.305,0.385c-3.953,0.193-7.715,0.578-11.572,0.578c-2.699-1.156-5.496,0.578-8.293-0.096
			c-0.387-0.098,0.578-1.158,0.869-1.158c4.242-2.893,9.16,1.158,13.885-0.191c5.594-1.543,11.861-0.965,17.359-1.254
			c5.496-0.289,10.703,0.191,16.297,0c1.541-0.193,3.086-0.193,4.725-0.193c0.385,0,0.867,0.096,1.254,0.096
			c4.242-0.096,8.486-0.096,12.246-0.674C802.052,822.651,804.464,822.169,807.454,822.265z"/>
		<path style="fill:#17192D;" d="M815.071,801.339c1.254,1.062,0,0.965-0.193,1.352c-5.4,4.725-12.922,3.762-18.707,7.521
			c-4.146,1.543-8.582,2.121-12.633,3.086c-3.182,0.096-6.076,1.447-9.066,0.867c-0.963,0.771-2.41,0-3.471,0.387
			c-6.943,0-10.896-1.352-16.297-2.508c-1.832,0.193-3.762-0.385-5.207-1.639c-2.508,0.289-4.533-0.482-6.365-1.447
			c-4.436-1.639-8.871-3.375-12.055-6.461c0,0.098-0.578-0.193-0.289-0.385c0.771-0.482,1.641,0.385,2.412,0.771
			c4.531,0.385,7.426,3.664,11.475,4.627c1.832,0.965,3.857,0.965,5.594,1.641c7.426,1.928,12.342,3.566,20.154,3.664
			c0.096,0,0.289-0.676,0.289,0.096c6.654-0.385,12.344-1.928,18.418-2.604c6.172-1.928,12.344-4.146,18.516-6.074
			c1.639-1.061,3.568-1.93,5.689-2.701c0.578,0,1.641-1.061,1.93-0.676C815.36,800.856,816.036,800.856,815.071,801.339z"/>
		<path style="fill:#17192D;" d="M803.017,770.964c-1.156,0.867-2.699,1.445-3.857,2.41c-4.725,1.35-9.836,2.604-14.947,2.604
			c-3.664,0.578-7.424,1.35-10.992,2.219c-1.93-0.193-4.146-0.578-6.365-0.096c-0.289,0.771-0.289,1.061-1.447,1.35
			c1.061,2.797,3.279,4.725,4.34,6.75c0.578,0.289,1.158,1.061,0.965,1.736c-0.387,1.156,0.193,1.156,0.867,1.832
			c0.869,0,1.641,0.096,2.412,0.482c2.025-0.676,3.566-0.676,5.207-0.098c1.832,1.061,3.375,0.291,5.4,0
			c3.857-0.578,7.521-1.447,11.475-1.639c3.086-0.098,6.172-0.098,9.451-0.098c0.289,0.098,0.578,0.193,0.482,0.482
			c0,0.289-0.387,0.58-0.676,0.676c-4.822,0.289-9.449,0.482-13.693,1.832c-3.182-0.096-5.787,0.867-8.775,0.578
			c-7.135-0.674-14.658,0-21.408,0.867c-2.99-0.674-5.303,0.58-8.197,0.387c-7.521-0.578-15.332-0.578-21.986-2.795
			c-0.965-0.291-0.482-1.062-0.965-1.738c0.098-0.289,0.58,0,0.771-0.096c2.316,0.482,4.34,1.543,6.654,1.447
			c0.098,0.096,0.098,0.096,0.193,0.193c3.953-0.193,7.619,1.061,11.09,0.867c2.604,1.445,5.496-0.387,8.293,0.096
			c3.568,0.58,6.559-0.674,10.029-1.156c0.482-0.387,1.158-0.771,1.832-1.543c-1.156-3.086-4.725-5.014-5.111-7.521
			c0.482,0-0.674-0.771-0.191-2.314c-2.99-0.869-5.402,0.289-7.619-0.771c-1.832-0.482-3.664,0.482-5.594-0.58
			c-2.604,1.254-4.918,0.098-7.426,0.291c-1.445-1.254-2.023,1.254-3.76,0.096c-1.639,0.482-3.857,0.771-5.207,0
			c0.096-0.387,0.096-0.676,0-1.061c1.445-0.867,3.471,0.289,4.918-0.867c2.121-0.193,3.664,0.963,5.785,0.578
			c6.172-1.158,13.02,0.191,19.287-0.193c4.34-0.193,9.064,0.482,13.211-0.965c6.559-1.061,13.404-1.928,19.576-3.182
			c1.543-0.965,3.375-2.025,5.305-1.93C802.632,770.386,802.921,770.577,803.017,770.964z"/>
		<path style="fill:#17192D;" d="M725.196,743.289c0.193,1.639,0.867,2.795,1.156,4.531c-0.578,2.604-0.096,4.918,0.867,8.102
			c1.352-0.676,2.316-0.482,2.797-0.289c1.832-0.193,4.146,0.289,5.979,0.191c1.736-0.385,3.857-0.578,5.594-0.578
			c2.701-1.35,6.076-1.736,8.775-2.314c1.543,0.385,3.375,0,4.822,0.193c6.557,0,13.309-1.641,19.479-2.508
			c1.158,0.098,2.893-0.193,3.953,0.098c0.193-0.098,0.676-0.098,0.773-0.193c4.82-0.193,8.678-0.289,13.5-0.289
			c2.219,0,4.146,0.385,6.172,0.482h-0.096c-2.508,1.832-5.98,1.156-8.68,1.734c-3.955-0.965-8.102,1.061-12.344-0.578
			c-2.508,2.604-5.496,0.578-8.1,1.445c-2.412-0.289-5.305-0.191-7.33,1.062c-0.965-0.098-1.832,0.289-3.182-0.193
			c-2.314,1.35-5.207,0.674-7.619,0.674c-3.953-0.867-7.135,1.736-10.896,1.254c-2.699,1.35-5.785,1.158-8.871,1.158
			c-0.965-1.061-2.508-0.098-4.438-2.219c-0.674,4.244-0.289,6.75-0.48,9.355c0.48,2.023-0.289,4.242,0,6.46
			c-0.098,0.096-0.098,0.191-0.193,0.289c-0.771-0.098-0.965-0.965-1.254-1.543c0.578-1.929,0.482-3.857,0-5.787
			c-0.385-0.482,0-1.35,0.098-2.314c-1.062-1.445-0.193-3.568-0.965-4.918c0.482-1.543-0.193-3.182-0.098-4.725
			c-0.867-1.543,0.291-3.568-0.578-5.111c0-1.35-1.832-2.699-0.289-3.76c0.096-0.098,0.289-0.193,0.482-0.291
			C724.616,742.806,725.099,742.902,725.196,743.289z"/>
		<path style="fill:#17192D;" d="M803.886,687.453c0.77,0.387,1.541,0,2.41,0.193c0.676,0,1.158,0.193,1.736,0.578
			c0.096,0.482-0.482,0.869-0.771,1.352c-0.676,0.867-1.447-0.482-1.641-0.482c-0.193-0.387-1.156,0.482-2.121-0.965
			c-1.93,0.578-3.664,0.578-5.014,0.193c-2.701,0.289-5.689-0.482-8.295,0.578c-1.061,0.096-1.639,1.35-2.121,1.928
			c-0.096,0-0.48,1.158-1.35,1.543c-1.254,1.158-3.086,2.99-3.664,3.473c-0.482,0.482,0-0.58-0.869,0.385
			c-0.482,0.387-0.289,0.58-0.963,1.641c-0.867,1.061-2.605,2.893-2.99,3.375c-0.578,1.156-1.156,2.506-1.832,4.051
			c2.025,1.35,4.051,0.963,5.4,1.83c1.736,0.098,3.857,0.482,5.689,0.965c1.061-0.867,1.832,0.193,2.604,0.193
			c1.061,0.578,2.701,0.482,3.953,1.061c2.412,0.387,4.533,1.832,7.232,1.35c0.965,0.193,2.123,0.58,3.086,0.869
			c-0.096,0.191-0.191,0.385-0.385,0.385c-1.639,0.289-3.086-0.578-4.531-0.482c-0.387-0.289-0.676-0.385-1.062-0.289
			c-0.771-0.096-1.543-0.289-2.217-0.289c-1.543-0.482-2.605,0.387-5.111-1.254c0,1.447,0.193,0.578,0.193,0.578
			c-1.447-0.385-3.473-0.963-5.402-0.867c-1.156-0.771-2.602-0.482-3.76-0.771c-2.699-0.289-4.533-1.35-7.137-1.156
			c0,0-0.096-0.098-0.191-0.098c-0.771-0.482-1.641-0.193-2.121-0.674c-5.885-1.641-11.861-3.279-17.746-4.918
			c-1.348-0.676-2.506-0.965-3.953-1.543c-1.928-0.676-3.76-1.832-5.785-2.604s-3.953-2.025-6.268-2.701
			c-0.58-0.289-1.543,0.193-1.543-0.771c0-0.289-0.289-0.963-0.096-1.061c0.674-1.061,2.602-1.061,3.566-1.543
			c2.314-0.193,5.594-0.676,8.391-1.254c1.061-1.254,2.699-0.289,3.953-0.771c4.725,0.193,9.643-2.219,15.043-1.543
			c6.848-1.061,14.465-1.639,20.926-1.061C794.048,687.259,798.968,686.779,803.886,687.453z M774.665,689.093
			c-1.254-0.482-3.182,0.674-5.111,0.289c-2.314-0.387-4.82,0.385-7.135,0.771c-2.219-0.387-3.955,0.963-6.172,0.771
			c-1.447,0.191-3.857,0.191-5.787,0.578c-3.182,0.578-6.074,1.445-9.738,1.736c1.445,1.639,4.051,2.797,4.436,2.893
			c2.025,0.676,3.664,1.832,5.496,2.41c2.797,0.965,5.207,1.93,7.811,2.701c1.834,0.482,4.244,1.061,5.885,1.35
			c1.83-0.096,4.436,1.543,6.941,1.928c1.447,0.193,0.771,0.869,2.797,0.291c0.771-1.834,1.93-3.086,2.604-4.727
			c0.867-1.156,1.35-1.254,2.604-2.604c0.869-0.867,1.736-2.219,2.699-3.471c0.869-0.965,2.027-2.025,2.605-2.701
			c0-0.193,1.156-1.445,1.156-2.217c-1.35-0.289-2.893-0.289-3.762-0.387C779.392,688.322,777.366,688.707,774.665,689.093z"/>
		<path style="fill:#17192D;" d="M802.534,663.539c-0.289,2.023,0.098,3.76,0.771,5.4c-0.096,0.48-0.48,0.963-0.771,1.061
			c-1.254,1.832,1.158,5.109-2.025,6.074c-1.059,0.289-2.217-0.193-3.086,0.578c-3.375,1.254-4.436,0.291-7.715,0.58
			c-2.893,0.191-6.363-1.254-9.16,0c-1.543,0-2.797-0.58-4.146-0.771c-3.664,1.35-7.811-0.676-11.668,0.289
			c-2.797,0.193-5.016-0.965-7.811,0.289c-0.58,0.096-1.062,0.096-1.545,0.289c-5.688,0-11.57-0.578-17.164,0.096
			c-2.797,0-5.496-0.096-8.004-1.445c-0.482-0.387,0.096-0.965,0.578-1.158c0.676,0,1.641-0.191,2.701,0.676
			c2.023-0.867,3.857,0.096,5.592-0.289c1.447,0.385,3.086,0.482,4.629,0.096c3.279-1.928,6.75,0.289,10.127,0.193
			c3.277-0.098,6.557-1.35,9.932-0.965c3.471,0.482,7.521,0.771,11.09,0.387c1.158-0.387,2.508,0.191,3.568-0.193
			c1.061,0.193,2.508,0.096,3.471,0.771c1.352-0.193,2.99-0.482,4.34-0.867c0.771,0.385,1.93,0.289,2.604,0.48
			c3.664,0.289,4.436,0.771,7.811-0.385c2.219,0.771,1.352-1.543,3.279-2.025c1.254-0.482,0.578-1.061,0.578-1.736
			c-0.289-1.543,1.254-2.699,0.58-4.049c-0.482-1.254-0.098-2.895-1.061-4.244c-0.098-0.385-0.098-0.867,0.385-0.867
			C801.667,661.513,801.86,662.767,802.534,663.539z"/>
		<path style="fill:#17192D;" d="M814.878,644.155c0.098,0.097,0.098,0.386,0.193,0.675c-0.289,1.254,1.061,1.736,0.096,3.086
			c0,1.35,0.291,3.375-0.771,4.34c-0.674,0.097-1.061,0.771-1.736,0.964c-1.83,0.097-4.436,0.289-6.268,0.579
			c-1.061-0.387-3.086,0.386-4.146,0.096c-5.111,0.482-11.668,0.771-17.453,0.676c-1.061,0.675-2.99,0.192-4.146,0.192
			c-5.4-0.192-10.32-1.543-15.045-0.868c-3.375,0-7.232,1.254-10.801,0c-2.506,0.387-6.17-0.096-8.197,0.097
			c-0.096,0-0.191,0.193-0.385,0.29c-5.014-0.482-10.607,0.578-15.43,0.192c-0.482-0.192-0.963-0.965-0.193-1.062
			c9.934-1.253,21.217-0.771,31.727-1.253c2.316-0.097,5.883,0.097,8.391-0.386c0.096,0.097,0.193,0.192,0.289,0.289
			c3.762,0,7.137,0.482,10.703,0.771c0.387-0.192,0.771-0.192,1.158,0c5.787,0.193,13.982-0.868,19.48-0.675
			c3.182-1.543,6.557,0.675,9.354-1.061c0.482-0.675,1.832,0,2.217-1.833c-1.061-0.964-0.578-2.218-0.771-2.893
			c-0.385-1.543-0.482-3.953-0.578-5.207c0.193,0-0.385-1.64,0.482-1.543C814.396,640.684,814.011,642.998,814.878,644.155z"/>
		<path style="fill:#17192D;" d="M807.935,623.133c-0.963,2.121-3.279,2.314-4.918,3.472c-2.217,1.157-4.629,2.314-7.135,2.604
			c-0.676,0.386-1.641,0.482-2.412,0.578c-6.461,1.158-12.729,3.762-19.479,3.954c-4.629,0.965-9.74,0.482-14.756,0.386
			c-4.146,0-9.449-1.157-13.596-2.989c-2.025-0.481-4.242-1.254-5.689-2.507c-2.121-0.579-3.762-2.122-5.594-3.279
			c-0.385-0.675-0.867-1.35-0.867-2.024c0-0.097-0.096-0.193-0.096-0.193c1.928,0.482,3.76,1.929,5.688,3.086
			c1.545,0.868,2.412,2.025,4.051,2.411c2.797,0.578,5.016,2.507,7.908,2.314c5.303,1.35,11.09,1.253,17.455,0.867
			c-0.965-2.218,0.674-3.085-0.098-4.436c0.098-0.578,0.193-0.964,0.387-1.351c0.289-0.289,0.48-0.578,0.867-0.289
			c0.193,0.193,0.289,0.289,0.482,0.482c-0.193,0.579,0.191,0.964,0.48,1.254c-0.289,1.254,0,2.507-0.191,4.05
			c4.725,0.482,7.906-0.867,11.764-1.061c1.641-0.771,4.146-0.965,6.172-1.543c1.832-0.579,4.051-0.579,5.787-1.64
			c1.447,0.193,3.086-0.289,4.242-1.735c2.508,0.096,4.438-1.736,7.328-2.314c0-0.771,0-0.482,0-0.482
			c0.482-0.192,1.447-1.254,2.605-0.868C808.224,622.361,808.128,622.747,807.935,623.133z"/>
		<path style="fill:#17192D;" d="M795.593,604.521c3.76,0.965,6.459,4.147,10.221,5.305c0.578,1.061,1.832,1.64,2.41,2.7
			c-0.867,0.289-1.832-0.579-2.604-0.965c-0.674-0.675-1.35-1.061-2.314-1.157c-2.121-1.543-5.014-2.218-7.232-3.954
			c-1.639-0.578-4.049-0.771-5.883-1.639c-3.277-0.193-6.557-0.193-9.738,0.386c-3.086,0.578-6.076,1.832-8.486,3.954
			c-3.182,1.542-6.848,2.699-10.318,3.471c-5.4,2.701-12.246,2.411-17.84,0.193c-3.279,0-5.111-2.797-8.102-3.183
			c-0.867-0.675-1.639-1.35-2.699-1.735c-0.578-0.482-0.289-1.254-0.771-1.929c0-0.193-0.387,0.097-0.193,0.192
			c1.352,0.097,2.797,0.676,3.953,1.254c5.111,3.954,11.959,4.146,18.131,5.497c4.338-0.193,7.906-2.219,12.053-3.183
			c2.605-1.64,5.883-2.218,8.486-3.857c1.93-0.192,3.473-2.41,5.498-1.929c4.34-1.543,9.449-1.543,13.596,0
			C794.337,604.232,794.917,604.426,795.593,604.521z"/>
		<path style="fill:#17192D;" d="M763.19,539.913c6.461,2.314,13.309,1.639,19.479,4.243c6.365,2.699,13.309,3.856,19.865,5.979
			c0.193,0.192,0.482,0.481,0.676,0.771c-2.121,0.868-4.918-0.868-7.426-0.579c-7.617-0.578-14.754,1.929-22.758,2.989l-0.385,1.736
			c8.678,1.735,16.008,5.399,24.01,6.943c0.291,0.192,0.771,0.289,1.061,0.481c1.738,0.097,3.857-1.061,5.113-0.097
			c-0.098,0.676-0.773,0.965-1.447,1.158c-1.543-0.193-2.701,0.867-4.146,1.253c-8.582-0.386-16.201,1.446-24.879,2.025
			c-10.705,0.771-21.312,1.543-31.438,1.446c-5.305,0.771-9.355,0.965-13.502,0.482c-0.385-0.193-1.156,0-1.543-0.097
			c0.289-0.192,0.578-0.482,0.869-0.771c3.182-0.675,5.979-0.675,9.354-0.964c14.656-1.157,30.762,0.097,45.805-2.411
			c2.701-0.482,5.4-0.289,8.293-0.578c1.93-0.675,1.062-2.604-0.385-2.218c-6.268-3.087-13.887-3.568-20.154-5.883
			c-1.156-0.386-2.99-0.097-3.473-1.254c0.193-0.386,0.578-0.578,0.965-0.771c6.557-2.121,13.693-2.893,23.529-5.4
			c-6.074-2.218-9.643-2.604-12.439-4.242c-7.039,0-11.861-2.894-18.9-2.894c-5.4-2.025-11.766-1.157-17.166-3.472
			c-4.436-0.097-8.1-1.061-13.307-1.929c-0.096,0-0.387,0-0.482-0.097c0.096-0.192,0.193-0.386,0.289-0.675
			c0.771,0,1.254-0.386,1.639-0.578C741.204,535.38,752.196,538.466,763.19,539.913z"/>
		<path style="fill:#17192D;" d="M810.442,498.64c2.41,0.289,4.051-0.29,4.629,0.867c0,0.097-0.096,0.29-0.096,0.386
			c-3.568,2.025-8.197,1.158-12.344,2.314c-7.33,1.062-14.852,1.64-21.602,3.375c-1.543,2.122-3.279,5.015-2.219,7.812
			c0.098,0.097-0.289,0-0.674,0.675c0.674,0.965-0.387,1.351-0.387,2.122c-0.385,1.832-0.193,4.146-0.963,7.328
			c5.592,1.254,10.896,1.158,15.525,2.411c3.375,0.965,8.1-0.579,11.475,1.157c1.254,0,2.797-0.192,3.666,0.868
			c0.191,0.482-0.676,0.482-1.062,0.482c-3.953-0.676-6.941-0.386-10.703-0.868c-4.436-1.929-11.186-0.29-16.008-2.219
			c-1.736,0-4.436,0.482-5.787-0.481c-4.531-1.061-9.932,0.289-14.176-1.736c-7.906,0.289-14.463-2.989-22.564-2.989
			c-0.385-0.386-0.385-1.061-1.254-1.157c-2.314-0.771-5.305,0.675-6.75-1.254c0.578-1.06,2.121-0.578,3.279-1.446
			c9.738-2.121,18.707-6.364,28.641-8.196c2.797-1.35,6.268-1.736,9.354-2.989c1.061-0.097,2.121-0.289,3.086,0.097
			c1.928-0.579,4.049-1.254,6.172-1.254c4.531-0.097,8.582-2.219,13.307-1.833c1.447-0.867,3.664-0.192,5.207-0.675
			c2.99-0.289,6.076-1.061,8.873-1.832c0.578-0.289,0.867-0.481,0.965-0.675c0.867-0.386,0.963-0.386,1.639-0.289
			C809.671,498.735,810.442,498.446,810.442,498.64z M773.991,506.45c-4.822,2.122-10.416,2.122-15.43,3.568
			c-5.883,1.639-11.379,4.918-18.033,6.172c0,1.639,0.676,2.218,1.832,2.314c2.701,0.964,5.207,2.024,8.293,2.41
			c5.689,0.771,12.344,0.289,17.744,1.64c1.447,0,3.568,0,5.496,0.578c0.965-1.157,1.061-2.313,1.93-2.893
			c0-1.157,0.289-2.025,0.387-2.893c0.191-1.447,0.191-2.797,0.48-3.857c0.482-1.833,0.771-2.508,0.965-4.051
			C780.259,504.907,775.728,506.547,773.991,506.45z"/>
		<path style="fill:#17192D;" d="M791.349,477.52c-0.193-0.096,0.867-0.289,1.254-0.192c0.289,0,0.674,0,0.771,0
			c0.578,0.192,1.35,0.482,1.928,0.386c1.35,0.579,2.701,0.289,3.857,0.868c2.314,1.061,5.4,2.025,7.908,4.146
			c1.543,1.64,3.568,2.314,5.111,3.761c0.289,0.867,0.674,1.254,0.48,2.025c-1.541,0.097-2.312-2.122-3.76-2.7
			c-1.061-0.965-2.604-1.254-3.473-2.508c-0.191-0.097-0.578-0.481-0.771-0.578c-0.191-0.097-0.289-0.289-0.289-0.289
			c-0.096,0-0.48-0.193-0.48-0.29c-0.869-0.867-1.158-0.964-1.158-0.578c-0.676-0.193-1.158-0.675-1.832-0.579
			c-0.289-0.096-0.578-0.289-0.771-0.578c-1.156,0.193-1.447-0.386-2.025-0.482c-1.061-0.578-2.699,0-3.857-0.386
			c-0.578,0.097-1.061-0.482-1.736-0.386c-2.314-0.675-3.277-0.097-5.785,0.097c-3.182,1.157-3.279,0.868-5.305,1.64
			c-1.541,0.578-2.41,0.771-3.857,1.446c-1.445,0.675-2.023,1.446-3.471,2.122c-1.35,0.578-2.217,0.385-3.473,0.867
			c-1.445,0.578-2.312,1.254-3.664,1.832c-1.35,0.675-2.41,0.965-3.953,1.64c-1.447,0.868-2.217,1.736-3.953,2.218
			c-0.482,0-1.158,0.097-1.641,0.097c-0.48-0.097-1.061,0.096-1.35,0.096c-0.289,0.097-0.771-0.096-1.061-0.192
			c-1.736,0.578-2.699-0.578-4.533-0.386c-1.734-0.481-3.471-0.675-5.496-1.35c-1.928-1.061-4.436-1.543-6.557-2.989
			c-2.219-1.158-4.436-2.894-6.076-5.015c-0.193-0.29-0.965-1.062-0.289-0.965c1.736,0.771,3.279,2.508,5.111,3.183
			c4.918,3.086,10.029,4.918,15.141,5.4c0.578,0.289,1.254,0,1.928,0.289c0.965,0,2.314,0.289,3.375,0.097
			c3.473,0.386,2.701-1.157,4.146-1.736c1.543-0.578,2.508-0.482,3.857-1.157c0.965-0.578,1.447-1.254,2.604-1.735
			c0.965-0.579,1.641-1.062,2.893-1.254c2.895-0.289,2.99-0.867,4.438-2.121c0.676-0.386,1.061-0.868,1.832-1.157
			c0.674-0.579,1.252-0.29,2.121-0.579c1.158-0.289,1.736-0.675,2.893-1.061c1.061-0.386,2.219-0.868,2.797-0.868
			c2.025-0.867,3.182-0.289,5.111-0.481C790.866,477.135,791.444,477.52,791.349,477.52z"/>
		<path style="fill:#17192D;" d="M757.212,417.058c2.699,0.481,4.918,0.964,7.811,0.578c5.014,2.121,10.801-0.868,15.525,2.604
			c2.604,0.578,5.883,0.675,8.293,1.929c4.051,1.35,8.293,1.929,11.766,4.725c1.445,1.929,2.508,3.664,3.568,5.69
			c-0.193,1.929-0.098,4.146-1.832,5.014c-3.666,1.446-7.523,2.122-11.09,3.954c-7.715,0.193-14.852,2.989-22.084,1.735
			c-3.473,0.771-6.848-0.096-10.318,0.482c-5.979-0.386-11.477-2.797-17.262-3.857c-1.254-1.061-6.172-1.929-2.219-3.471
			c2.605-0.482,4.244,1.446,6.559,2.024c1.35,0.289,2.604,1.833,4.146,1.833c5.883,1.06,10.994,2.12,17.357,1.35
			c5.498,1.35,11.477,0,16.973-1.158c5.207-0.385,9.932-1.831,14.754-3.182c2.314-1.061,1.447-2.989,2.508-5.497
			c-1.254-0.867-0.867-2.7-1.736-3.472c-1.543-1.735-4.629-2.604-6.557-3.76c-3.184-0.482-6.365,0-8.68-1.833
			c-2.604-0.482-5.594,0.193-7.617-1.832c-8.68-1.447-17.455-0.771-25.555-2.797c-4.727-0.481-8.68-0.675-12.537-3.086
			c0.193-0.578,1.158-0.289,1.543-0.481C746.507,414.164,751.329,417.539,757.212,417.058z M735.804,429.883
			c0.289,0.289,0.482,0.482,0.482,0.965c-0.291,0.289-0.676,0.48-1.158,0.48c-1.445-0.771-2.99-0.096-4.436-1.061
			c-0.387-0.096-1.156-0.385-1.061-0.867c0.674-0.386,1.254-0.675,2.41-0.579C733.778,427.182,734.55,429.497,735.804,429.883z
			 M736.382,420.817c0.289,0.289,0.482,0.482,0.482,0.965c-0.289,0.289-0.676,0.481-1.158,0.481
			c-1.543-0.771-3.568,0.097-5.014-0.868c-0.387-0.096-1.156-0.385-1.061-0.867c0.674-0.482,1.639-1.062,2.797-0.964
			C734.163,417.925,735.128,420.432,736.382,420.817z"/>
		<path style="fill:#17192D;" d="M803.499,393.72c1.736,2.026,2.893,4.051,4.629,6.462c0.289,2.314,1.928,2.314,1.543,4.146
			c-1.543,2.121-2.41,1.061-4.244,1.157c-5.977-0.771-13.018,0.481-18.803,0.868c-5.209-0.387-8.102,0.385-15.236,0.578
			c-1.834,0.771-4.438,0.289-6.461,0c-2.123,0.867-5.691,0.482-8.004-0.193c-7.715,0.965-14.08,0.193-21.602,0.579
			c-0.58-0.097-1.447,0.386-1.061-0.29c0-0.096,0.096-0.481,0.096-0.578c0.193-0.192,0.289-0.482,0.482-0.868
			c-0.098-0.674-0.193,0.29,0.289,0.29c0.867-1.062,1.254-2.99,2.701-2.99c0.77-1.061,1.541-1.64,2.41-1.929
			c1.736-1.64,2.699-3.086,5.016-3.086c3.953-3.182,8.967-2.796,13.498-2.796c4.533,1.543,8.295,3.953,12.152,8.969
			c1.639-1.833,1.543-4.34,2.604-4.822c0.674-1.64,1.928-2.989,3.471-4.629c3.086-2.121,5.787-2.507,9.064-3.761
			c3.762-2.604,7.811,1.254,11.572-0.192C799.546,391.02,801.28,393.045,803.499,393.72z M746.603,398.542
			c-2.121,2.797-4.049,1.253-5.785,5.11c-0.289,0.193-0.578,0.387-1.061,0.097c-3.664,1.64,0.289,1.832,1.832,1.929
			c3.184-1.061,4.725,0.193,7.908,0.097c3.279-1.061,7.039,0.386,10.512-0.578c1.061-0.289,1.832-0.098,2.795-0.098
			c2.123-0.481,3.568,0.482,7.811,0c-2.988-2.507-3.664-3.182-5.207-4.242c-2.217-0.964-4.242-2.508-6.268-3.664
			C754.8,396.228,750.269,396.999,746.603,398.542z M778.138,395.746c-2.604,2.507-3.568,4.242-6.076,9.45
			c2.701,0,4.051-0.868,5.207-0.482c4.822-2.025,9.258,0.867,14.273-0.386c3.182-1.158,6.557,0,9.836-1.158
			c1.156,0.579,4.629,0.579,5.496,0.193c0.098-0.193-0.867-1.157-0.578-2.411c-1.35-1.929-2.604-4.05-3.664-6.364
			c-2.123-0.192-3.375-0.578-4.822-1.446c-3.086-0.579-6.461-2.314-9.836-1.157S781.319,394.106,778.138,395.746z"/>
		<path style="fill:#17192D;" d="M807.935,372.023c-0.963,2.121-3.279,2.314-4.918,3.472c-2.217,1.157-4.629,2.314-7.135,2.604
			c-0.676,0.385-1.641,0.481-2.412,0.578c-6.461,1.156-12.729,3.761-19.479,3.953c-4.629,0.965-9.74,0.482-14.756,0.386
			c-4.146,0-9.449-1.157-13.596-2.988c-2.025-0.482-4.242-1.255-5.689-2.508c-2.121-0.579-3.762-2.122-5.594-3.278
			c-0.385-0.676-0.867-1.351-0.867-2.026c0-0.096-0.096-0.192-0.096-0.192c1.928,0.481,3.76,1.929,5.688,3.086
			c1.545,0.867,2.412,2.025,4.051,2.411c2.797,0.579,5.016,2.508,7.908,2.313c5.303,1.351,11.09,1.254,17.455,0.868
			c-0.965-2.218,0.674-3.085-0.098-4.436c0.098-0.578,0.193-0.964,0.387-1.351c0.289-0.289,0.48-0.578,0.867-0.289
			c0.193,0.193,0.289,0.289,0.482,0.482c-0.193,0.579,0.191,0.964,0.48,1.253c-0.289,1.255,0,2.508-0.191,4.051
			c4.725,0.482,7.906-0.867,11.764-1.061c1.641-0.771,4.146-0.965,6.172-1.543c1.832-0.579,4.051-0.579,5.787-1.639
			c1.447,0.191,3.086-0.29,4.242-1.737c2.508,0.097,4.438-1.735,7.328-2.313c0-0.771,0-0.482,0-0.482
			c0.482-0.192,1.447-1.253,2.605-0.868C808.224,371.252,808.128,371.638,807.935,372.023z"/>
		<path style="fill:#17192D;" d="M798.194,350.52c-3.471,2.507-7.906,2.121-11.088,4.821c-1.256,0.387-2.604,1.062-3.666,1.736
			c-2.988-0.097-6.074,1.832-10.125,3.664c2.604,1.062,4.531,0.771,5.883,0.386c5.689,0,10.703-0.964,16.684-0.097
			c1.639,0,3.664-0.481,5.109,0.193c2.797,0.097,6.076-0.675,8.486,0.675c0.096,0.097,0.096,0.097,0.193,0.193
			c-2.025,0.578-4.629,0.386-6.654,0.289c-1.736-0.482-3.566,0.192-5.496,0.192c-3.762,0.097-7.715-1.253-11.09,0.386
			c-3.086,0.387-5.979-1.061-8.969,0c-2.699,0.868-5.4-0.481-7.908,0.772c-4.627-0.772-10.607,0.096-15.621-0.772
			c-5.689,0-11.477,0.387-17.068-0.578c-3.086-0.097-4.34-0.675-7.232-1.254c-0.096,0,0.482-0.675,0.482-0.867
			c3.086-1.833,4.146-2.411,7.426-3.665c4.531-1.832,9.352-1.446,13.885-2.7c6.365,0.097,12.633,0.965,17.262,7.04
			c8.486-5.111,17.551-5.689,25.748-10.126c3.664-1.157,7.039-2.989,10.703-4.146c0.578,0,1.543-0.386,2.219-0.192
			C804.366,348.205,801.28,349.556,798.194,350.52z M743.903,356.884c-1.254,0.386-2.797-0.097-3.953,0.676
			c-1.543-0.193-2.99,0.675-4.244,1.157l-2.312,1.639c0.867,0.097,4.242,0.386,5.205,0.579c1.254,1.254,3.473,0.675,5.016,1.061
			c7.135-0.965,15.139,0.193,23.723-0.192c-1.254-1.543-2.508-1.929-3.182-2.604c-1.352-1.35-5.111-2.796-7.619-3.857
			C752.196,355.92,747.567,354.955,743.903,356.884z"/>
		<path style="fill:#17192D;" d="M775.728,297.385c3.76,0.289,7.617,1.157,11.668,1.64c4.918,0.578,10.027,1.156,14.656,3.471
			c2.412,2.411,5.402,3.665,7.33,6.847c0.289,1.736,1.543,1.447,0.965,3.568c0.096,0.289-0.193,0-0.193-0.386
			c-2.219,0.097-1.158-0.482-2.797-2.7c-2.508,0.771-4.34-0.386-6.172,0.386c-7.715-0.482-14.369,0-21.891,0.771
			c-1.832,0.868-4.146,0.868-6.268,0.578c-1.35-0.481-2.797,0.482-4.436,0.193c-5.016-0.289-10.607-0.289-15.525,0.386
			c-3.664-0.192-7.232,0-10.994,0.386c-1.445-0.289-3.086-0.771-5.111-0.192c-0.578,1.35-1.254,1.061-0.771,2.218
			c-0.193,0.192-0.385,0.481-0.676,0.675c-0.289-0.097-0.578,0-0.867-0.289c0.387-2.797,2.219-4.34,3.953-6.461
			c3.377-3.086,7.715-4.533,11.381-7.521c2.41-1.544,4.916-1.736,7.521-2.797c3.279-0.482,6.943-0.29,10.125-0.965
			C770.325,297.866,772.931,297.674,775.728,297.385z M760.491,299.795c-3.762-0.192-6.365,1.543-9.934,2.604
			c-0.193,0.192-1.061,1.061-1.543,1.35c-2.701,1.929-5.883,2.797-8.775,6.654c3.471-0.29,5.207,0.964,6.846,0.289
			c2.412,0.289,4.533-0.965,6.943-1.062c3.473,1.062,7.232,0.193,10.801,0.676c3.279,0.386,6.848-0.386,10.223-0.579
			c5.979-2.314,12.922-0.675,19.094-1.35c2.988,0,6.461-0.482,11.186,0.097c-1.832-3.857-5.111-4.533-7.328-5.786
			c-5.689-1.543-11.379-2.508-17.262-3.086c-1.158-0.193-2.604,0.289-3.664-0.386C771.772,299.506,765.407,297.674,760.491,299.795z
			"/>
		<path style="fill:#17192D;" d="M807.935,279.256c-0.963,2.121-3.279,2.314-4.918,3.472c-2.217,1.157-4.629,2.313-7.135,2.604
			c-0.676,0.386-1.641,0.482-2.412,0.578c-6.461,1.157-12.729,3.762-19.479,3.954c-4.629,0.964-9.74,0.482-14.756,0.386
			c-4.146,0-9.449-1.157-13.596-2.989c-2.025-0.482-4.242-1.254-5.689-2.508c-2.121-0.578-3.762-2.121-5.594-3.278
			c-0.385-0.675-0.867-1.35-0.867-2.025c0-0.097-0.096-0.192-0.096-0.192c1.928,0.481,3.76,1.928,5.688,3.086
			c1.545,0.867,2.412,2.025,4.051,2.41c2.797,0.579,5.016,2.508,7.908,2.314c5.303,1.351,11.09,1.254,17.455,0.868
			c-0.965-2.218,0.674-3.086-0.098-4.436c0.098-0.579,0.193-0.965,0.387-1.351c0.289-0.289,0.48-0.578,0.867-0.289
			c0.193,0.193,0.289,0.289,0.482,0.482c-0.193,0.578,0.191,0.964,0.48,1.253c-0.289,1.254,0,2.508-0.191,4.051
			c4.725,0.482,7.906-0.868,11.764-1.062c1.641-0.771,4.146-0.964,6.172-1.543c1.832-0.578,4.051-0.578,5.787-1.639
			c1.447,0.192,3.086-0.29,4.242-1.736c2.508,0.097,4.438-1.735,7.328-2.314c0-0.771,0-0.481,0-0.481
			c0.482-0.193,1.447-1.254,2.605-0.868C808.224,278.484,808.128,278.87,807.935,279.256z"/>
		<path style="fill:#17192D;" d="M803.597,245.505c0.191,0.482,1.734,0.482,1.156,1.253c-2.701,1.833-6.365-0.192-9.258,1.351
			c-9.74,2.989-20.059,0.771-29.99,2.121c-5.787,0.772-11.188,0.772-16.875,1.929l-3.279-0.096l-0.096,0.386l3.277,1.446
			c3.762,0.771,8.582,0.868,12.15,1.736c3.375,0.867,6.268,0.964,9.547,1.928c3.568,0.676,7.039,0.289,11.09,0.386
			c0.289,0.193,0.771,0.097,0.965,0.386c-5.111,2.122-11.379,0.676-16.684,2.219c-1.445,1.253-3.857,0.867-5.592,1.639
			c-6.172,0-12.055,2.122-17.842,2.411c-0.674,0.579-1.832,0.675-2.797,1.061c0,0.386-2.602,0.965-2.506,1.157
			c0.096,0.289,3.086,0.193,3.182,0.675c9.547,1.447,18.227,0,27.002,1.062c5.4-2.025,10.992,1.156,16.201-0.579
			c6.17-2.025,13.113,0.289,18.611-1.832c1.639,0,3.375-0.868,4.82,0c1.736,0.097,4.631-1.64,5.979,0.192
			c0,0.193,0.193,0.097,0.289,0.193c-1.348,0.868-3.471,0.193-4.725,0.386c-7.328,1.832-15.043,2.314-22.662,3.472
			c-3.086,0-6.17,0.482-9.062-0.386c-3.762,0.097-7.619,0.386-11.572-0.29c-9.162-0.289-17.553,1.543-26.135-0.964
			c-3.182-0.965-6.268,0-9.064-0.675c0-0.579-2.121,0.482-1.639-0.386c0.578-0.289,0.965-1.254,2.025-1.446
			c4.338-2.411,10.029-1.736,14.85-3.472c5.883-1.062,12.537-1.735,18.611-3.183l3.182-0.771v-0.386l-3.182-0.579
			c-3.953-0.674-7.715-1.253-11.668-1.735c-4.822-2.218-10.51-2.025-15.332-4.146c-0.289-0.289-0.771-0.482-1.158-0.675
			c0.771-1.157,3.086-0.097,4.244-0.193c4.049-2.121,8.582-0.482,13.018-1.639c10.125-1.062,17.646-0.482,27.58-1.351
			c2.314-0.675,5.883-0.675,8.486-1.061c4.629-0.675,9.547,1.157,13.018-1.736C802.438,244.829,803.017,245.022,803.597,245.505z"/>
		<path style="fill:#17192D;" d="M791.349,198.35c-0.193-0.097,0.867-0.289,1.254-0.193c0.289,0,0.674,0,0.771,0
			c0.578,0.193,1.35,0.482,1.928,0.386c1.35,0.579,2.701,0.289,3.857,0.868c2.314,1.061,5.4,2.025,7.908,4.146
			c1.543,1.64,3.568,2.314,5.111,3.761c0.289,0.868,0.674,1.254,0.48,2.025c-1.541,0.097-2.312-2.122-3.76-2.7
			c-1.061-0.964-2.604-1.254-3.473-2.507c-0.191-0.097-0.578-0.482-0.771-0.579c-0.191-0.097-0.289-0.289-0.289-0.289
			c-0.096,0-0.48-0.193-0.48-0.29c-0.869-0.867-1.158-0.964-1.158-0.578c-0.676-0.192-1.158-0.675-1.832-0.578
			c-0.289-0.097-0.578-0.29-0.771-0.579c-1.156,0.193-1.447-0.386-2.025-0.482c-1.061-0.578-2.699,0-3.857-0.385
			c-0.578,0.096-1.061-0.482-1.736-0.386c-2.314-0.676-3.277-0.097-5.785,0.097c-3.182,1.156-3.279,0.867-5.305,1.639
			c-1.541,0.578-2.41,0.771-3.857,1.446c-1.445,0.676-2.023,1.446-3.471,2.122c-1.35,0.578-2.217,0.386-3.473,0.867
			c-1.445,0.579-2.312,1.254-3.664,1.833c-1.35,0.675-2.41,0.964-3.953,1.639c-1.447,0.868-2.217,1.736-3.953,2.219
			c-0.482,0-1.158,0.096-1.641,0.096c-0.48-0.096-1.061,0.097-1.35,0.097c-0.289,0.097-0.771-0.097-1.061-0.192
			c-1.736,0.578-2.699-0.579-4.533-0.386c-1.734-0.482-3.471-0.676-5.496-1.351c-1.928-1.061-4.436-1.543-6.557-2.989
			c-2.219-1.157-4.436-2.893-6.076-5.015c-0.193-0.289-0.965-1.062-0.289-0.965c1.736,0.772,3.279,2.508,5.111,3.183
			c4.918,3.086,10.029,4.918,15.141,5.4c0.578,0.289,1.254,0,1.928,0.289c0.965,0,2.314,0.289,3.375,0.097
			c3.473,0.386,2.701-1.157,4.146-1.735c1.543-0.579,2.508-0.482,3.857-1.158c0.965-0.578,1.447-1.253,2.604-1.735
			c0.965-0.579,1.641-1.061,2.893-1.253c2.895-0.29,2.99-0.868,4.438-2.122c0.676-0.386,1.061-0.868,1.832-1.157
			c0.674-0.578,1.252-0.289,2.121-0.578c1.158-0.289,1.736-0.676,2.893-1.062c1.061-0.386,2.219-0.867,2.797-0.867
			c2.025-0.868,3.182-0.29,5.111-0.482C790.866,197.964,791.444,198.35,791.349,198.35z"/>
		<path style="fill:#17192D;" d="M767.144,183.499c1.832,1.446,3.953,2.797,5.594,4.918c7.232-0.579,13.887,0.867,20.25,0.675
			c2.797-0.097,4.725-1.832,7.33-1.64c0.096,0.772,0.674,1.543,1.639,1.832c0.193,0.193,0.193-0.578-0.096-0.481
			c-0.098,0.096-0.676,0.192-0.771,0.192c-3.473,2.314-8.68,0.676-12.922,1.254c-1.543,0.386-3.762,1.061-5.016,0
			c-5.785-1.061-12.729,0.482-18.418-0.771c-4.146-0.193-8.582,0.965-12.537,0.097c-5.979-0.482-11.957,0.192-18.033-0.676
			c-2.025,0.772-3.664,0-5.785-0.096c-0.578-0.386-1.736,0-2.025-0.675c0.387-0.482,0.193-1.254,0.771-1.64
			c2.219-1.832,5.207-2.314,7.426-3.664c2.219-0.386,4.146-0.868,6.076-1.929c0.191-0.29,0.385-0.579,0.578-0.676
			c2.506-0.192,5.014-1.928,7.715-0.868C755.089,180.027,761.841,180.316,767.144,183.499z M742.265,181.474
			c-2.025,1.446-4.629,2.025-6.752,2.604c-0.771,1.254-3.084,0.868-4.242,2.025c1.158,1.832,2.797,0.964,3.953,1.157
			c5.883,1.157,11.959,0.289,18.033,0.675c2.412,0.964,4.533-0.097,6.943,0.097c2.701,0.193,5.4-1.061,7.908,0.193l0.867-1.062
			c-1.156-1.736-2.797-2.989-4.918-3.568c-1.832,0-3.566-0.964-5.4-1.735c-3.279-0.868-6.557-0.675-10.027-0.868
			C746.507,180.896,744.772,182.148,742.265,181.474z"/>
		<path style="fill:#17192D;" d="M807.454,167.202c0.289,0.098,0.48,0.193,0.674,0.387c-0.867,2.218-3.473,0.964-5.496,1.542
			c-1.736,0.29-3.375,0-5.111,0.098c-4.725,0.096-9.451-0.098-13.982,0c-2.412,0-5.594,0.192-8.102-0.098
			c-1.639-0.191-3.664,0-5.303,0.098c-3.955,0.385-7.715,0-11.861,0.289c-0.193-0.193-0.387-0.193-0.578-0.193
			c-1.736,0.868-3.666,0.097-5.305,0.387c-3.953,0.192-7.715,0.578-11.572,0.578c-2.699-1.158-5.496,0.579-8.293-0.097
			c-0.387-0.097,0.578-1.157,0.869-1.157c4.242-2.893,9.16,1.157,13.885-0.193c5.594-1.542,11.861-0.964,17.359-1.253
			c5.496-0.289,10.703,0.192,16.297,0c1.541-0.193,3.086-0.193,4.725-0.193c0.385,0,0.867,0.097,1.254,0.097
			c4.242-0.097,8.486-0.097,12.246-0.675C802.052,167.589,804.464,167.106,807.454,167.202z"/>
		<path style="fill:#17192D;" d="M741.782,150.81c1.445,0.193,2.41,1.64,4.051,1.64c3.086,1.543,5.979,2.313,9.738,2.507
			c0.58,0.289,1.543,0.386,2.219,0.579c2.121,0.192,4.051,1.156,6.076,1.156c1.252,0.387,2.988-0.289,4.146,1.254
			c1.541-0.385,2.699-0.771,3.664-1.254c0.385-0.771,1.445-1.735,1.35-2.796c0.674-1.062,0.096-1.929,0.578-3.279
			c0.578-1.832,0.578-2.893,1.543-4.82c0.482-0.387,0.965-0.772,1.543-0.676c0.387,0.964,0,2.121,0,3.279
			c-1.254,2.507-1.061,3.856-1.928,7.136c0.771,0.481,0.482,0.867,0.771,1.061c2.41,0.386,5.014,0.096,7.039-0.386
			c1.254,0.192,2.314-0.289,4.242-0.289c0.387-1.158,1.254-0.289,1.834-0.579c3.471-0.289,6.557-2.218,10.125-2.41
			c1.543-1.351,4.146-1.157,5.689-2.315c1.832,0.193,2.797-2.217,5.109-1.64c1.158-0.866,2.219-1.929,3.666-1.929
			c0.385,0.29,0.771,0.58,1.156,0.965c-0.191,1.446-1.832,1.544-2.893,2.314c-1.639,0.193-3.182,0.579-4.34,1.64
			c-2.121-0.097-3.375,1.736-5.4,1.64c-0.771,0.481-1.543,0.578-2.121,0.964c-0.771-0.097-1.447,0.192-2.025,0.482
			c-4.436,0-7.908,2.893-12.344,2.604c-0.578,0.386-1.639,0.386-2.217,0.482c-4.727,1.64-10.223,1.35-15.043,1.254
			c-2.219-0.579-4.92,0-6.848-0.965c-5.979-1.061-11.764-3.472-17.455-5.014c-2.699-1.062-5.207-2.701-7.715-4.051
			c-2.795-1.543-6.074-2.604-8.1-5.4c0-0.192,0-0.482,0.193-0.578C732.429,146.181,736.96,148.688,741.782,150.81z"/>
		<path style="fill:#17192D;" d="M809.573,120.435c1.256,0.482,2.123-0.193,3.086,0c-0.289,0.674-0.77,1.254-0.77,2.023
			c-0.387,1.062-1.736,1.255-2.508,2.026c-0.771,0.192-0.869,1.253-1.736,1.831c-2.025,1.255-3.857,2.605-5.883,4.052
			c-3.953,0.964-7.521,3.663-12.15,4.146c-3.568,1.641-8.197,1.543-12.15,1.641c-2.41,1.928-6.268,0.192-9.16,1.252
			c-1.447,0.193-2.314-0.385-3.473-0.385c-3.953,1.061-7.521-0.482-11.186-1.061c-2.604-1.157-5.4-1.447-7.908-2.797
			c-0.771-0.579-1.928-0.385-2.699-0.675c-3.086-2.024-6.654-3.279-9.451-5.496c-1.35-0.29-1.736-1.929-3.086-2.219
			c-0.482-0.675-1.445-1.253-0.867-2.7c-0.867-0.675-1.641-2.025,0-1.735c0.385-0.29,0.578-0.097,0.096,0.289
			c3.184,3.857,8.391,7.426,13.5,10.126c1.93,0,3.857,1.061,5.016,2.025c3.953,1.061,7.617,2.507,11.668,2.507
			c1.447,0,2.893,0.289,4.146-0.097c2.508,0.289,4.822,0.965,7.426,0.289c2.508-0.192,5.016-0.482,7.426-0.965
			c7.715-1.543,16.104-1.929,22.469-6.171c2.314-1.544,3.953-2.894,5.979-5.207c-0.289-0.482,1.254-0.386,0.965-1.062
			c-5.979,0.289-13.404,0.482-18.805,0.867c-2.41,1.062-5.207-0.191-7.812,0.194c-2.312,0.288-4.725-0.29-7.135-0.194
			c-1.158,0-2.217-0.191-3.279,0.194c-1.736-0.29-3.953,0.192-5.4-0.772c-0.674-0.578,0.867-0.481,1.061-0.868
			c1.545-0.577,3.086-0.771,4.822-0.096c1.35,0.192,2.699-0.675,3.955-0.675c3.566,0,6.652,0.965,9.064,0.675
			c0-0.29,1.156,0,2.121,0c0.676-0.192,1.35-0.192,1.736-0.097c2.121,0,3.471-0.385,5.398-0.096c3.473-0.868,7.812,0,10.607-0.771
			c0.869-0.193,0.771-0.097,1.641-0.193C807.743,120.241,808.417,119.759,809.573,120.435z"/>
		<path style="fill:#17192D;" d="M807.935,101.341c-0.963,2.122-3.279,2.314-4.918,3.472c-2.217,1.157-4.629,2.314-7.135,2.604
			c-0.676,0.385-1.641,0.481-2.412,0.578c-6.461,1.157-12.729,3.761-19.479,3.953c-4.629,0.965-9.74,0.482-14.756,0.387
			c-4.146,0-9.449-1.158-13.596-2.99c-2.025-0.481-4.242-1.254-5.689-2.507c-2.121-0.579-3.762-2.122-5.594-3.278
			c-0.385-0.676-0.867-1.351-0.867-2.025c0-0.097-0.096-0.193-0.096-0.193c1.928,0.482,3.76,1.929,5.688,3.086
			c1.545,0.868,2.412,2.025,4.051,2.411c2.797,0.579,5.016,2.507,7.908,2.314c5.303,1.35,11.09,1.253,17.455,0.868
			c-0.965-2.219,0.674-3.086-0.098-4.436c0.098-0.579,0.193-0.965,0.387-1.352c0.289-0.289,0.48-0.578,0.867-0.289
			c0.193,0.193,0.289,0.289,0.482,0.482c-0.193,0.579,0.191,0.965,0.48,1.254c-0.289,1.254,0,2.508-0.191,4.051
			c4.725,0.481,7.906-0.868,11.764-1.062c1.641-0.771,4.146-0.964,6.172-1.543c1.832-0.578,4.051-0.578,5.787-1.64
			c1.447,0.193,3.086-0.289,4.242-1.735c2.508,0.097,4.438-1.735,7.328-2.314c0-0.771,0-0.482,0-0.482
			c0.482-0.192,1.447-1.253,2.605-0.868C808.224,100.569,808.128,100.955,807.935,101.341z"/>
		<path style="fill:#17192D;" d="M802.534,78.487c-0.289,2.025,0.098,3.761,0.771,5.4c-0.096,0.482-0.48,0.965-0.771,1.061
			c-1.254,1.832,1.158,5.111-2.025,6.075c-1.059,0.289-2.217-0.192-3.086,0.579c-3.375,1.254-4.436,0.289-7.715,0.578
			c-2.893,0.193-6.363-1.254-9.16,0c-1.543,0-2.797-0.578-4.146-0.771c-3.664,1.35-7.811-0.675-11.668,0.289
			c-2.797,0.193-5.016-0.964-7.811,0.289c-0.58,0.098-1.062,0.098-1.545,0.29c-5.688,0-11.57-0.579-17.164,0.097
			c-2.797,0-5.496-0.097-8.004-1.447c-0.482-0.385,0.096-0.964,0.578-1.156c0.676,0,1.641-0.193,2.701,0.674
			c2.023-0.867,3.857,0.098,5.592-0.289c1.447,0.387,3.086,0.482,4.629,0.098c3.279-1.93,6.75,0.289,10.127,0.191
			c3.277-0.096,6.557-1.35,9.932-0.964c3.471,0.482,7.521,0.772,11.09,0.386c1.158-0.386,2.508,0.193,3.568-0.192
			c1.061,0.192,2.508,0.097,3.471,0.771c1.352-0.191,2.99-0.481,4.34-0.867c0.771,0.386,1.93,0.289,2.604,0.482
			c3.664,0.289,4.436,0.771,7.811-0.386c2.219,0.771,1.352-1.543,3.279-2.025c1.254-0.482,0.578-1.062,0.578-1.735
			c-0.289-1.543,1.254-2.701,0.58-4.051c-0.482-1.254-0.098-2.893-1.061-4.243c-0.098-0.386-0.098-0.868,0.385-0.868
			C801.667,76.462,801.86,77.716,802.534,78.487z"/>
	</g>
	<path style="fill:none;stroke:#17192D;stroke-width:3;" d="M2048,0"/>
	<path style="fill:none;stroke:#17192D;stroke-width:3;" d="M2048,1536"/>
	<path style="fill:none;stroke:#17192D;stroke-width:3;" d="M0,1536"/>
	<path style="fill:none;stroke:#17192D;stroke-width:3;" d="M0,0"/>
</g>
<g id="Layer_1">
</g>
</svg>
