<svg xmlns="http://www.w3.org/2000/svg" width="2048" height="1536" viewBox="0 0 2048 1536"><g><g fill="#FF0050"><path d="M778.04 1481.6c3.568-.288 6.268 1.158 9.547 1.93.676.578 1.35.578 1.35.48.193.098 1.447.387 2.508.966l.29.097c1.446.77 1.542.675 2.603.77 1.736 1.158 3.955 1.35 5.4 2.41 2.893 2.123 7.137 4.147 9.74 7.233 1.832 2.314 3.664 3.568 5.303 5.883.1.578.483 1.156.1 1.83-.772 0-.29.677-1.448-1.06l-.19-.386c-1.063.29-1.93.77-2.606.965-1.64 0-4.146 0-5.883.19-1.06-.288-2.795.387-3.76 0-4.822.29-11.09.483-16.395.098-1.252.578-2.988.192-4.146.096-5.014-.29-9.545-1.832-14.078-1.35-3.086-.097-6.75.868-10.03-.386-2.313.29-5.978-.29-7.81-.192-.098 0-.193.192-.29.29-4.726-.58-10.8.19-15.333-.29-.48-.193-.866-.868-.19-.965 9.256-.77 20.924-.867 30.664-.096 2.22-.193 5.594.29 7.908-.096l.29.29c3.567 0 6.46.674 10.124 1.06.387-.29.77-.097 1.062.097 5.398.29 13.018-.482 18.225-.097 2.893-1.35 5.98.77 8.775-.675.29-.482.29.964 2.217-.386-.578-.193-1.156-1.157-.867-1.157-.77-1.543-2.99-1.35-4.05-4.436-.58.578-.386-.29-.868-.29 0 0-.482-.29-.674-.386-.098-.097-.482-.193-.482-.964-.965 0-1.158-.29-1.447-.097-.965-.386-.965-1.735-2.12-1.735-.483-.193-1.16-.386-1.448-.772-1.157-.29-1.64-1.446-2.7-1.64-1.543-1.06-3.857-.867-5.11-1.735-1.062 0-1.157-.867-2.41-.964-3.376-1.83-7.813-1.83-11.38-2.603-5.21 0-9.934-1.062-15.236 0-1.736 0-3.28.675-4.822.964-.87.58-1.93.387-2.797.87-7.137 2.217-14.37 5.11-20.54 10.028-2.507 1.254-3.76 3.857-6.364 5.11-.577.386-.192-.48 0-.77 1.93-2.605 4.532-5.4 7.233-7.426 2.604-1.93 6.074-3.375 8.97-5.11 2.603-1.158 5.397-1.93 7.616-2.894 2.796-.193 3.374-1.93 6.267-1.64.58-.097 1.062-.482 2.12-.386.483-.386.87-.193 1.546-.482.867 0 1.832 0 2.893-.29 3.85-.188 8.673-.768 12.724.1zM807.934 1462.796c-.965 2.122-3.28 2.314-4.918 3.472-2.22 1.157-4.63 2.314-7.137 2.604-.675.386-1.64.482-2.41.58-6.462 1.156-12.73 3.76-19.48 3.953-4.63.964-9.74.48-14.755.386-4.146 0-9.45-1.156-13.598-2.99-2.023-.48-4.242-1.252-5.688-2.506-2.124-.58-3.763-2.122-5.595-3.278-.387-.676-.87-1.35-.87-2.025 0-.096-.095-.192-.095-.192 1.93.482 3.762 1.93 5.69 3.086 1.542.868 2.41 2.025 4.05 2.41 2.795.58 5.014 2.508 7.908 2.315 5.303 1.35 11.088 1.253 17.453.867-.964-2.22.675-3.087-.095-4.437.096-.578.19-.964.385-1.35.29-.29.482-.58.867-.29l.482.482c-.192.58.192.965.48 1.254-.288 1.253 0 2.507-.19 4.05 4.725.482 7.906-.868 11.764-1.06 1.64-.772 4.146-.965 6.172-1.544 1.832-.578 4.05-.578 5.787-1.64 1.445.193 3.084-.29 4.242-1.735 2.508.097 4.436-1.735 7.328-2.314v-.48c.482-.194 1.447-1.255 2.604-.87-.094.48-.192.868-.383 1.253zM798.194 1441.292c-3.47 2.508-7.906 2.122-11.09 4.822-1.254.386-2.604 1.062-3.664 1.735-2.99-.097-6.076 1.832-10.125 3.664 2.604 1.06 4.53.77 5.883.386 5.688 0 10.703-.965 16.682-.097 1.64 0 3.664-.48 5.11.193 2.798.096 6.077-.675 8.487.674.096.098.096.098.193.193-2.025.58-4.63.387-6.654.29-1.736-.483-3.568.192-5.496.192-3.762.097-7.715-1.254-11.09.386-3.086.387-5.98-1.06-8.97 0-2.698.868-5.4-.48-7.907.772-4.63-.77-10.607.096-15.623-.77-5.688 0-11.475.385-17.066-.58-3.088-.096-4.34-.674-7.234-1.253-.096 0 .482-.677.482-.868 3.086-1.833 4.146-2.41 7.426-3.666 4.53-1.83 9.354-1.445 13.887-2.7 6.363.098 12.633.965 17.262 7.04 8.486-5.11 17.55-5.69 25.748-10.125 3.664-1.156 7.04-2.988 10.703-4.146.578 0 1.543-.385 2.22-.19-2.992 1.735-6.078 3.084-9.164 4.048zm-54.29 6.365c-1.255.386-2.798-.097-3.954.675-1.545-.192-2.99.675-4.244 1.157l-2.314 1.64c.867.095 4.242.385 5.207.577 1.253 1.254 3.47.675 5.015 1.062 7.135-.966 15.14.19 23.723-.194-1.254-1.542-2.508-1.93-3.184-2.604-1.35-1.35-5.11-2.796-7.617-3.857-4.34.578-8.97-.386-12.634 1.542zM791.348 1391.532c-.193-.096.867-.29 1.252-.19h.77c.58.19 1.353.48 1.93.384 1.35.58 2.702.29 3.858.868 2.314 1.06 5.4 2.024 7.908 4.146 1.54 1.64 3.566 2.314 5.11 3.762.288.867.675 1.253.48 2.024-1.542.096-2.313-2.122-3.76-2.7-1.06-.964-2.603-1.253-3.472-2.508-.193-.096-.578-.482-.77-.578s-.29-.29-.29-.29c-.098 0-.482-.192-.482-.288-.867-.868-1.156-.965-1.156-.58-.676-.192-1.158-.675-1.832-.577-.29-.098-.58-.29-.773-.58-1.155.193-1.444-.385-2.022-.48-1.06-.58-2.7 0-3.857-.386-.577.095-1.06-.483-1.735-.388-2.314-.675-3.28-.096-5.785.098-3.184 1.156-3.28.867-5.305 1.638-1.543.58-2.41.772-3.857 1.447-1.445.675-2.025 1.446-3.47 2.12-1.353.58-2.22.388-3.474.87-1.447.578-2.314 1.253-3.664 1.83-1.35.677-2.41.966-3.953 1.64-1.447.87-2.22 1.736-3.953 2.22-.482 0-1.158.096-1.64.096-.483-.096-1.062.098-1.35.098-.29.096-.772-.097-1.062-.193-1.736.58-2.7-.578-4.533-.385-1.737-.482-3.472-.676-5.497-1.35-1.93-1.062-4.436-1.544-6.56-2.99-2.216-1.157-4.435-2.893-6.073-5.015-.193-.29-.965-1.06-.29-.965 1.735.77 3.28 2.507 5.112 3.183 4.916 3.086 10.03 4.918 15.14 5.4.577.29 1.253 0 1.93.29.964 0 2.313.29 3.374.096 3.47.385 2.7-1.158 4.146-1.736 1.543-.58 2.508-.482 3.857-1.158.964-.578 1.446-1.253 2.603-1.735.963-.577 1.64-1.06 2.893-1.252 2.893-.29 2.99-.87 4.436-2.122.676-.387 1.06-.868 1.832-1.157.676-.58 1.254-.29 2.123-.58 1.156-.288 1.734-.675 2.893-1.06 1.06-.387 2.217-.868 2.797-.868 2.025-.87 3.182-.29 5.11-.482.58-.003 1.157.382 1.06.382zM767.143 1376.683c1.832 1.446 3.953 2.796 5.592 4.917 7.232-.578 13.89.868 20.252.676 2.797-.097 4.725-1.833 7.328-1.64.098.77.676 1.543 1.64 1.832.194.193.194-.58-.095-.48-.098.095-.676.19-.773.19-3.47 2.315-8.678.676-12.922 1.255-1.54.385-3.76 1.06-5.014 0-5.786-1.062-12.728.482-18.42-.77-4.145-.194-8.58.964-12.534.095-5.98-.48-11.957.193-18.033-.675-2.025.77-3.664 0-5.785-.096-.578-.387-1.736 0-2.025-.676.385-.48.19-1.252.77-1.64 2.218-1.83 5.208-2.312 7.425-3.663 2.22-.386 4.148-.868 6.076-1.93.193-.288.387-.577.578-.674 2.508-.193 5.016-1.93 7.715-.867 6.17.674 12.92.964 18.226 4.147zm-24.88-2.026c-2.024 1.446-4.63 2.025-6.75 2.604-.772 1.254-3.087.87-4.243 2.026 1.156 1.832 2.795.964 3.953 1.156 5.883 1.157 11.96.29 18.033.676 2.412.964 4.53-.097 6.943.097 2.7.192 5.4-1.062 7.907.192l.867-1.06c-1.156-1.737-2.797-2.99-4.918-3.57-1.832 0-3.568-.964-5.4-1.734-3.28-.868-6.557-.676-10.03-.868-2.12-.097-3.856 1.157-6.364.482zM807.452 1360.386c.29.097.482.193.674.386-.867 2.22-3.47.964-5.496 1.543-1.734.29-3.375 0-5.11.097-4.726.097-9.45-.097-13.983 0-2.41 0-5.592.193-8.1-.097-1.64-.192-3.664 0-5.305.097-3.953.386-7.713 0-11.86.29-.192-.193-.386-.193-.58-.193-1.733.866-3.663.096-5.302.385-3.955.192-7.715.58-11.572.58-2.7-1.16-5.496.577-8.293-.1-.387-.095.578-1.156.867-1.156 4.242-2.894 9.16 1.156 13.887-.193 5.59-1.543 11.86-.964 17.356-1.254 5.496-.29 10.705.193 16.297 0 1.543-.192 3.086-.192 4.727-.192.385 0 .867.098 1.254.098 4.242-.097 8.484-.097 12.246-.676 2.89.77 5.3.287 8.292.384zM741.78 1343.993c1.447.192 2.412 1.64 4.05 1.64 3.087 1.543 5.98 2.313 9.74 2.507.58.29 1.544.386 2.218.578 2.123.193 4.05 1.157 6.076 1.157 1.254.387 2.99-.29 4.146 1.254 1.543-.386 2.7-.772 3.664-1.255.387-.77 1.447-1.735 1.35-2.796.676-1.063.098-1.93.58-3.28.578-1.832.578-2.893 1.543-4.82.482-.387.965-.772 1.543-.676.385.964 0 2.12 0 3.278-1.254 2.508-1.06 3.857-1.928 7.136.77.482.48.868.77 1.062 2.412.386 5.016.096 7.04-.386 1.253.192 2.313-.29 4.243-.29.387-1.157 1.254-.288 1.832-.578 3.47-.29 6.56-2.218 10.127-2.41 1.54-1.35 4.146-1.157 5.688-2.315 1.834.194 2.797-2.217 5.11-1.638 1.16-.868 2.22-1.93 3.667-1.93.384.29.77.58 1.155.965-.193 1.446-1.832 1.543-2.893 2.314-1.64.194-3.184.58-4.34 1.64-2.12-.096-3.375 1.737-5.4 1.64-.77.482-1.543.58-2.12.965-.772-.097-1.448.192-2.026.482-4.436 0-7.908 2.893-12.344 2.604-.578.387-1.64.387-2.217.483-4.727 1.64-10.223 1.35-15.045 1.253-2.217-.578-4.918 0-6.848-.964-5.977-1.06-11.764-3.472-17.453-5.015-2.7-1.06-5.208-2.7-7.716-4.05-2.797-1.543-6.076-2.604-8.1-5.4 0-.192 0-.482.193-.58 4.34 2.797 8.872 5.304 13.693 7.426zM809.573 1313.618c1.254.48 2.12-.193 3.086 0-.29.675-.772 1.253-.772 2.024-.385 1.06-1.734 1.254-2.506 2.025-.773.193-.87 1.253-1.736 1.832-2.025 1.253-3.857 2.603-5.883 4.05-3.953.964-7.52 3.664-12.15 4.146-3.568 1.64-8.197 1.543-12.15 1.64-2.41 1.928-6.268.192-9.162 1.253-1.444.19-2.313-.387-3.47-.387-3.955 1.06-7.52-.482-11.188-1.06-2.602-1.158-5.398-1.447-7.906-2.798-.77-.578-1.928-.386-2.7-.675-3.085-2.025-6.653-3.28-9.45-5.497-1.35-.29-1.736-1.93-3.086-2.218-.482-.675-1.447-1.254-.87-2.7-.866-.675-1.638-2.025 0-1.735.388-.29.58-.097.1.29 3.18 3.856 8.388 7.425 13.5 10.125 1.93 0 3.856 1.06 5.015 2.024 3.953 1.06 7.617 2.506 11.668 2.506 1.445 0 2.893.29 4.146-.096 2.507.29 4.82.965 7.425.29 2.506-.194 5.014-.483 7.426-.965 7.716-1.543 16.105-1.93 22.47-6.172 2.312-1.543 3.953-2.894 5.98-5.208-.29-.48 1.25-.385.962-1.06-5.98.29-13.402.48-18.803.867-2.413 1.06-5.21-.192-7.813.192-2.314.29-4.725-.29-7.135-.192-1.158 0-2.22-.192-3.28.192-1.735-.29-3.952.193-5.4-.77-.675-.58.868-.483 1.062-.87 1.543-.578 3.086-.77 4.822-.096 1.35.192 2.7-.675 3.953-.675 3.567 0 6.653.964 9.063.675 0-.29 1.158 0 2.123 0 .674-.192 1.35-.192 1.734-.097 2.123 0 3.47-.385 5.4-.095 3.473-.868 7.812 0 10.607-.77.87-.194.77-.098 1.64-.194 1.444.005 2.12-.478 3.276.198zM807.934 1294.524c-.965 2.122-3.28 2.314-4.918 3.472-2.22 1.157-4.63 2.314-7.137 2.604-.675.385-1.64.48-2.41.578-6.462 1.157-12.73 3.76-19.48 3.953-4.63.966-9.74.483-14.755.387-4.146 0-9.45-1.156-13.598-2.988-2.023-.483-4.242-1.255-5.688-2.51-2.124-.578-3.763-2.12-5.595-3.277-.387-.676-.87-1.35-.87-2.025 0-.097-.095-.193-.095-.193 1.93.482 3.762 1.93 5.69 3.086 1.542.87 2.41 2.026 4.05 2.412 2.795.58 5.014 2.508 7.908 2.314 5.303 1.35 11.088 1.253 17.453.868-.964-2.22.675-3.086-.095-4.437.096-.578.19-.964.385-1.35.29-.29.482-.58.867-.29l.482.482c-.192.578.192.964.48 1.253-.288 1.254 0 2.507-.19 4.05 4.725.482 7.906-.867 11.764-1.06 1.64-.772 4.146-.965 6.172-1.544 1.832-.58 4.05-.58 5.787-1.64 1.445.192 3.084-.29 4.242-1.736 2.508.097 4.436-1.735 7.328-2.314v-.482c.482-.192 1.447-1.253 2.604-.867-.094.483-.192.87-.383 1.254zM802.534 1271.67c-.29 2.026.096 3.762.77 5.4-.095.483-.48.965-.77 1.062-1.254 1.832 1.156 5.11-2.025 6.075-1.062.29-2.218-.192-3.087.58-3.375 1.252-4.436.288-7.715.577-2.893.193-6.363-1.254-9.16 0-1.543 0-2.797-.578-4.146-.77-3.666 1.35-7.812-.676-11.67.29-2.795.19-5.014-.966-7.81.288-.58.097-1.062.097-1.544.29-5.69 0-11.57-.58-17.164.096-2.797 0-5.496-.097-8.006-1.447-.48-.384.098-.963.58-1.155.676 0 1.64-.193 2.7.675 2.024-.868 3.856.097 5.593-.29 1.448.387 3.087.482 4.63.097 3.28-1.93 6.75.29 10.125.193 3.28-.097 6.56-1.35 9.934-.965 3.47.482 7.52.77 11.09.386 1.155-.385 2.505.194 3.567-.19 1.06.19 2.506.096 3.47.77 1.35-.193 2.99-.482 4.34-.868.772.386 1.93.29 2.605.482 3.664.29 4.436.77 7.81-.386 2.22.77 1.353-1.543 3.28-2.025 1.254-.482.578-1.06.578-1.735-.29-1.543 1.254-2.7.578-4.05-.482-1.254-.096-2.894-1.06-4.244-.097-.386-.097-.867.386-.867 1.253-.29 1.446.962 2.12 1.734zM803.594 1211.69c.193.48 1.736.48 1.156 1.254-2.7 1.832-6.363-.193-9.256 1.35-9.74 2.99-20.06.77-29.992 2.12-5.785.772-11.186.772-16.875 1.93l-3.28-.096-.095.385 3.28 1.447c3.76.77 8.58.868 12.15 1.735 3.374.868 6.267.964 9.546 1.93 3.568.674 7.04.288 11.09.385.29.193.77.097.965.386-5.11 2.12-11.38.675-16.684 2.22-1.448 1.252-3.858.866-5.595 1.638-6.172 0-12.053 2.12-17.84 2.41-.676.58-1.832.676-2.797 1.062 0 .386-2.604.964-2.506 1.156.096.29 3.086.193 3.182.676 9.547 1.446 18.225 0 27.002 1.06 5.398-2.024 10.992 1.158 16.2-.577 6.17-2.024 13.114.29 18.612-1.83 1.64 0 3.373-.87 4.82 0 1.736.095 4.63-1.64 5.98.19 0 .193.192.098.288.193-1.35.868-3.47.193-4.725.386-7.327 1.83-15.042 2.313-22.66 3.47-3.087 0-6.173.483-9.065-.385-3.762.097-7.62.386-11.572-.29-9.16-.288-17.55 1.544-26.133-.964-3.182-.963-6.268 0-9.064-.674 0-.578-2.12.482-1.64-.385.58-.29.964-1.253 2.024-1.446 4.34-2.41 10.03-1.735 14.852-3.472 5.883-1.06 12.535-1.735 18.61-3.182l3.183-.772v-.385l-3.182-.58c-3.953-.673-7.715-1.253-11.668-1.734-4.822-2.22-10.512-2.026-15.334-4.147-.288-.29-.77-.482-1.155-.676.77-1.156 3.086-.096 4.244-.19 4.048-2.123 8.58-.483 13.017-1.64 10.125-1.063 17.646-.483 27.58-1.352 2.314-.676 5.883-.676 8.484-1.06 4.63-.677 9.55 1.156 13.02-1.736.678-.484 1.256-.292 1.834.19zM803.883 1181.024c.77.386 1.543 0 2.412.193.674 0 1.156.192 1.734.578.095.482-.483.868-.772 1.35-.674.868-1.445-.48-1.64-.48-.192-.387-1.157.48-2.12-.965-1.93.578-3.666.578-5.016.192-2.7.29-5.69-.482-8.293.58-1.062.095-1.64 1.35-2.122 1.928-.098 0-.482 1.157-1.35 1.542-1.254 1.157-3.086 2.99-3.664 3.473-.482.48 0-.58-.87.385-.48.387-.288.58-.964 1.64-.867 1.06-2.604 2.894-2.988 3.375-.578 1.157-1.158 2.507-1.832 4.05 2.025 1.35 4.05.965 5.4 1.833 1.734.097 3.857.48 5.69.964 1.06-.867 1.83.193 2.603.193 1.06.578 2.7.48 3.953 1.06 2.41.387 4.533 1.833 7.232 1.35.965.194 2.12.58 3.086.87-.098.19-.193.385-.387.385-1.64.29-3.084-.578-4.53-.482-.386-.29-.675-.385-1.062-.29-.77-.095-1.543-.288-2.22-.288-1.54-.482-2.603.386-5.108-1.253 0 1.446.19.578.19.578-1.444-.387-3.47-.965-5.4-.868-1.155-.77-2.603-.482-3.76-.77-2.7-.29-4.532-1.35-7.136-1.158 0 0-.095-.098-.19-.098-.773-.482-1.64-.192-2.123-.675-5.883-1.64-11.86-3.278-17.744-4.918-1.35-.676-2.506-.965-3.953-1.544-1.928-.675-3.76-1.832-5.785-2.604s-3.955-2.025-6.27-2.7c-.578-.29-1.543.192-1.543-.772 0-.29-.29-.964-.096-1.06.674-1.06 2.604-1.06 3.568-1.543 2.314-.193 5.592-.675 8.39-1.254 1.06-1.254 2.7-.29 3.954-.77 4.725.19 9.643-2.22 15.043-1.544 6.85-1.062 14.466-1.64 20.927-1.062 4.92.384 9.838-.098 14.756.576zm-29.218 1.64c-1.254-.48-3.182.675-5.11.29-2.315-.387-4.823.385-7.136.77-2.22-.386-3.956.965-6.173.77-1.447.194-3.857.194-5.787.58-3.182.578-6.074 1.446-9.738 1.735 1.445 1.64 4.05 2.795 4.436 2.893 2.025.675 3.664 1.83 5.496 2.41 2.797.965 5.207 1.93 7.81 2.7 1.833.482 4.245 1.06 5.884 1.35 1.832-.096 4.436 1.544 6.943 1.93 1.446.192.772.867 2.798.29.77-1.833 1.928-3.087 2.604-4.727.867-1.157 1.35-1.253 2.604-2.604.867-.867 1.734-2.218 2.7-3.472.868-.964 2.024-2.024 2.603-2.7 0-.192 1.157-1.446 1.157-2.218-1.35-.29-2.893-.29-3.762-.386-2.606-.383-4.63.002-7.33.388zM815.07 1158.46c1.253 1.06 0 .963-.192 1.35-5.4 4.725-12.922 3.76-18.71 7.52-4.145 1.544-8.58 2.122-12.632 3.087-3.182.096-6.074 1.446-9.064.868-.965.77-2.41 0-3.47.386-6.944 0-10.897-1.35-16.298-2.507-1.834.193-3.762-.386-5.21-1.64-2.505.29-4.53-.48-6.362-1.446-4.436-1.64-8.873-3.375-12.055-6.46 0 .096-.578-.194-.29-.387.772-.482 1.64.386 2.41.77 4.534.387 7.427 3.666 11.478 4.63 1.832.965 3.857.965 5.592 1.64 7.426 1.93 12.344 3.567 20.156 3.664.096 0 .29-.675.29.097 6.65-.385 12.343-1.928 18.417-2.603 6.172-1.93 12.344-4.147 18.516-6.076 1.64-1.06 3.568-1.928 5.69-2.7.577 0 1.638-1.06 1.927-.674.097 0 .77 0-.192.483zM810.153 1124.226c.096.29.096.675 0 .964-.58.29-.965.387-1.736.58-.482.096-.965.096-1.447.096-1.736.386-2.797.578-4.63 1.157-.384.192-.577.385-.962.578-.482 0-.676-.095-1.158-.095-2.025-.098-4.725.675-5.207.48-4.822.87-4.146 1.254-9.645 1.544-3.953.19-6.846.578-10.51.964 0 1.93-1.254 3.76-1.543 5.496-.098.964-.193 1.446-.387 2.41-.385 1.254-1.156 1.833-.963 3.183 0 2.7.19.87-1.352 3.568-.19.29-.29.676-1.35 2.122 2.314-.192 3.086-.386 4.146-.578 1.446.965 4.05.096 6.364.192 6.074.29 11.86-.578 17.357-.29 5.112.193 10.126-.77 14.66-.288.095.29.095.675.095 1.06-.385 2.315-3.086.58-4.146 1.062-4.82.386-9.26.386-14.66.386-6.556.193-13.114-.386-19.767.097-4.533.386-8.486-.29-12.633.482-7.04-1.157-14.176 2.313-21.12.675-1.735-.096-3.47.578-5.206.097-.87-.482-3.955-.192-2.314-1.543 5.4-.578 10.992.096 16.49-.097 8.1-.386 3.182-.77 5.303-.964 2.797-.29 4.436-.193 7.328-.193 2.606 0 4.052.29 6.85 0 .577-1.35.964-2.12 1.542-3.278 1.254-2.41.387.964.965-3.567.193-1.446.29-1.833.29-3.28 0-1.253.577-1.832.866-3.085.29-.867.193-1.832.387-3.472-1.254 0-1.64.097-2.22.097-2.022-.58-4.82 1.446-6.65-.29-2.317-.192-3.57-.385-5.5.387-1.35-.097-2.796-.29-4.53-.482-.387-.193-.965.29-1.35.29-1.545.867-2.508-1.64-3.955-.483-.674 0-1.35.676-2.025-.29-3.182.87-5.69.58-8.39-1.156-.868.387-1.253-.19-1.638-.674-.098-.097-.193-.29-.098-.482.29-.77.77.386.965.29 0 0 .577.48 1.155-.098.578-.48 1.06.772 1.64.482 3.665.868 7.618.868 11.38.386 3.664.868 9.064 0 12.535.868.87-.096 1.64-.77 2.99 0 1.156-1.254 2.604-.29 3.47-.868 4.44-.096 8.97-.48 13.405-.578 4.34 0 2.895-.676 6.172-1.157.676.19 1.736-.29 2.22.096 1.25-.193 2.41-.193 3.663-.386 2.604-.386 6.172-.58 8.486-1.158.385.193.867-.096 1.543-.867-.388-.868.675-.386.675-.58 1.062-.388 2.507.576 4.148.19zM725.194 1097.418c.193 1.64.867 2.796 1.158 4.532-.58 2.604-.098 4.918.867 8.1 1.35-.674 2.313-.48 2.796-.29 1.832-.19 4.146.29 5.98.194 1.735-.386 3.856-.578 5.593-.578 2.698-1.35 6.075-1.736 8.774-2.314 1.543.386 3.375 0 4.822.192 6.557 0 13.307-1.64 19.48-2.507 1.155.096 2.892-.193 3.952.096.193-.096.676-.096.77-.192 4.823-.192 8.68-.29 13.5-.29 2.22 0 4.15.388 6.175.483h-.098c-2.508 1.832-5.98 1.157-8.678 1.736-3.955-.966-8.102 1.06-12.344-.58-2.508 2.604-5.498.58-8.102 1.447-2.41-.29-5.302-.193-7.327 1.06-.965-.096-1.832.29-3.182-.192-2.315 1.35-5.208.676-7.618.676-3.953-.867-7.137 1.736-10.896 1.254-2.7 1.35-5.787 1.157-8.87 1.157-.966-1.06-2.51-.095-4.44-2.217-.673 4.243-.288 6.75-.48 9.354.48 2.026-.29 4.244 0 6.462-.097.095-.097.19-.192.288-.773-.097-.965-.965-1.254-1.543.578-1.93.48-3.857 0-5.786-.387-.483 0-1.35.096-2.315-1.06-1.446-.193-3.568-.963-4.918.48-1.543-.193-3.183-.098-4.726-.867-1.542.29-3.567-.578-5.11 0-1.35-1.832-2.7-.29-3.76.097-.097.29-.193.483-.29.386.096.868.192.964.578zM775.725 1047.85c3.762.29 7.62 1.16 11.668 1.64 4.918.58 10.03 1.158 14.658 3.473 2.41 2.41 5.4 3.665 7.33 6.847.29 1.736 1.542 1.446.964 3.568.098.29-.19 0-.19-.386-2.22.097-1.16-.482-2.798-2.7-2.508.77-4.34-.386-6.172.386-7.715-.482-14.37 0-21.89.77-1.833.87-4.147.87-6.27.58-1.35-.482-2.796.48-4.437.192-5.014-.29-10.607-.29-15.525.386-3.664-.192-7.232 0-10.994.386-1.445-.29-3.084-.77-5.11-.192-.577 1.35-1.253 1.06-.77 2.218-.193.192-.385.48-.676.675-.29-.097-.578 0-.867-.29.385-2.796 2.22-4.34 3.953-6.46 3.375-3.087 7.715-4.533 11.38-7.522 2.41-1.542 4.917-1.734 7.52-2.795 3.28-.482 6.943-.29 10.127-.965 2.7.673 5.303.48 8.1.19zm-15.236 2.412c-3.763-.192-6.366 1.543-9.933 2.604-.193.192-1.062 1.06-1.543 1.35-2.7 1.93-5.883 2.797-8.775 6.654 3.47-.29 5.206.964 6.845.29 2.41.288 4.533-.966 6.943-1.063 3.47 1.062 7.232.193 10.8.676 3.28.386 6.847-.386 10.224-.58 5.977-2.313 12.92-.674 19.094-1.35 2.988 0 6.46-.48 11.186.098-1.832-3.856-5.11-4.532-7.328-5.785-5.69-1.543-11.38-2.508-17.264-3.086-1.156-.194-2.602.288-3.664-.387-5.304.29-11.67-1.542-16.587.58zM741.78 1032.326c1.447.192 2.412 1.64 4.05 1.64 3.087 1.542 5.98 2.314 9.74 2.507.58.29 1.544.386 2.218.578 2.123.194 4.05 1.16 6.076 1.16 1.254.384 2.99-.29 4.146 1.252 1.543-.386 2.7-.77 3.664-1.253.387-.773 1.447-1.737 1.35-2.8.676-1.06.098-1.927.58-3.277.578-1.832.578-2.893 1.543-4.82.482-.387.965-.772 1.543-.676.385.964 0 2.12 0 3.278-1.254 2.508-1.06 3.857-1.928 7.136.77.483.48.87.77 1.063 2.412.386 5.016.097 7.04-.386 1.253.192 2.313-.29 4.243-.29.387-1.156 1.254-.29 1.832-.578 3.47-.29 6.56-2.22 10.127-2.412 1.54-1.35 4.146-1.157 5.688-2.314 1.834.193 2.797-2.218 5.11-1.64 1.16-.867 2.22-1.928 3.667-1.928.384.29.77.578 1.155.964-.193 1.446-1.832 1.543-2.893 2.314-1.64.193-3.184.58-4.34 1.64-2.12-.097-3.375 1.735-5.4 1.64-.77.48-1.543.578-2.12.964-.772-.097-1.448.193-2.026.482-4.436 0-7.908 2.893-12.344 2.604-.578.386-1.64.386-2.217.482-4.727 1.64-10.223 1.35-15.045 1.253-2.217-.58-4.918 0-6.848-.965-5.977-1.06-11.764-3.472-17.453-5.015-2.7-1.06-5.208-2.7-7.716-4.05-2.797-1.543-6.076-2.604-8.1-5.4 0-.193 0-.482.193-.58 4.34 2.797 8.872 5.304 13.693 7.426zM744.48 998.864c1.062 0 2.605-.097 3.763-.192 2.797-1.736 7.135 0 10.414.386 2.025-1.157 5.4-.482 7.52-.676 3.087-.77 7.138.193 10.704.193 6.27 0 13.503-.193 19.77-.482.966-.097 1.93-.675 2.798-.29.096.098.193-.095.29-.095-2.218 1.446-4.92 1.542-7.138 2.507-3.182 2.796-6.846 4.242-10.22 6.364-4.052 1.83-8.198 3.182-11.862 5.978-1.158.58-2.22 1.254-3.375 1.832l-2.797 1.35 3.182.193c7.523.482 14.562-1.35 22.277-.29 3.084 0 5.98-1.253 8.97-.674.77-.098 1.733 0 2.41 0-.1.192 0 .578-.1.674-.77 0-1.444.193-2.12.675-.77.386-1.736.386-2.604.578-2.603.29-5.206-.097-7.81.482-7.04.192-13.887-.675-20.732.097-3.184-.58-6.365 1.06-9.45.192-2.026.48-4.63-.58-6.173.577-4.63-.48-9.162-1.253-13.982-1.253-1.06-.386-2.7 0-3.184-1.157-.097-.097.58-1.06.58-.578 5.206-1.352 9.642 1.734 15.62 1.06 3.086-.387 6.268 0 9.547-.965.965-1.35 2.412-1.254 3.473-2.12 1.928-.29 3.857-.773 5.11-2.123 4.92-2.41 9.933-3.278 13.886-6.847 1.158-.482 2.314-1.06 3.568-2.12 0-.29 2.797-1.544 2.797-1.834-.095-.19-2.987.483-2.987.098-3.762 0-7.234-.675-10.223.386-5.4-1.35-10.994-1.446-16.78-.192-4.145-.482-8.39-1.06-12.438-.29-3.375-1.446-7.137 1.543-10.223-1.156-.29-.868-1.833-.58-1.737-1.64 3.28-.58 6.076 1.252 9.258 1.348zM754.124 935.026c3.857.097 7.52.675 11.38 1.06s8.003.194 11.765.387c.386 0 .675.482 1.06.482 2.7.192 5.305.48 7.908.29 7.328.674 14.27.578 21.408 1.542.674.482 0 .868.29 1.543-1.062.482-1.35.58-2.605.675-4.435-.867-7.81 2.894-12.15 2.218-3.278.965-6.847.772-10.222 1.736-3.182 2.7-8.293.577-14.85 2.603 4.82 2.025 7.04 1.93 9.064 2.314 3.47.77 6.557.77 10.03 1.35 3.18.482 6.75 1.543 9.737 1.543 1.35.29 2.603.58 4.145.676.29.386.965.29 1.447.386 1.734-.29 3.762-.386 5.496-.482.193.097.29.192.387.29-.965 1.35-3.184.578-4.438 1.253-5.014 2.024-10.896 2.604-16.875 3.086-5.11.385-10.223.77-14.947 1.542-4.338.482-8.775 2.025-13.21 2.025-.58.386-1.737.29-2.315.386-8.004 1.93-16.875 1.543-25.46 1.93-1.155-.387-5.4 1.638-4.145-.773.676-.096 1.158-.675 1.834-.964 9.255-1.06 18.61.578 27.964-1.543 4.436.29 8.293-1.543 12.342-2.218.87-.097 1.738.192 2.605 0 6.558-1.06 14.37-1.93 21.118-3.086l4.05-.676c-3.47-.868-10.315-1.736-13.017-2.7-6.46 0-11.86-2.218-18.226-2.894-2.988-.29-5.592-.867-7.81-1.06-.1-.193-1.062.385-1.255 0 1.155-1.062 2.796-.193 3.856-1.255 1.64-.29 3.375-.48 5.207-.77 2.7-.482 5.498-1.062 8.197-1.35 1.736-.194 3.568 0 5.11-.194 2.122-.288 2.894-.866 4.92-1.156 1.542-.192 2.218-.097 3.76-.29.48-.096.675-.385 1.157-.385 3.086-.482 6.557-.387 9.45-1.544l3.76-1.446c-3.856-.58-12.052-.29-15.718-.675-7.425-.868-15.91-.675-23.337-1.06-.482-.29-1.254-.194-1.93-.966-7.617-.387-13.885-2.7-21.504-1.93-2.315-.77-4.534.386-6.75-.192-1.35-.386-2.702 0-3.954-.77-.193-.194-.676-.29-.87-.483 5.017-2.218 10.897-.193 16.106 0 3.573.094 6.85.77 10.032 1.54zM807.934 914.004c-.965 2.12-3.28 2.314-4.918 3.472-2.22 1.157-4.63 2.314-7.137 2.604-.675.386-1.64.482-2.41.578-6.462 1.157-12.73 3.762-19.48 3.954-4.63.964-9.74.482-14.755.386-4.146 0-9.45-1.157-13.598-2.99-2.023-.48-4.242-1.253-5.688-2.506-2.124-.58-3.763-2.122-5.595-3.28-.387-.674-.87-1.35-.87-2.024 0-.096-.095-.192-.095-.192 1.93.48 3.762 1.93 5.69 3.086 1.542.867 2.41 2.025 4.05 2.41 2.795.58 5.014 2.508 7.908 2.314 5.303 1.35 11.088 1.254 17.453.868-.964-2.218.675-3.086-.095-4.436.096-.58.19-.965.385-1.35.29-.29.482-.58.867-.29l.482.482c-.192.578.192.964.48 1.253-.288 1.254 0 2.508-.19 4.05 4.725.483 7.906-.867 11.764-1.06 1.64-.77 4.146-.965 6.172-1.543 1.832-.58 4.05-.58 5.787-1.64 1.445.192 3.084-.29 4.242-1.736 2.508.097 4.436-1.735 7.328-2.313v-.48c.482-.194 1.447-1.255 2.604-.87-.094.482-.192.868-.383 1.254zM798.194 892.5c-3.47 2.507-7.906 2.122-11.09 4.822-1.254.386-2.604 1.06-3.664 1.735-2.99-.096-6.076 1.833-10.125 3.664 2.604 1.063 4.53.772 5.883.388 5.688 0 10.703-.965 16.682-.098 1.64 0 3.664-.48 5.11.193 2.798.097 6.077-.675 8.487.675l.193.193c-2.025.58-4.63.387-6.654.29-1.736-.482-3.568.193-5.496.193-3.762.096-7.715-1.254-11.09.385-3.086.387-5.98-1.06-8.97 0-2.698.868-5.4-.48-7.907.772-4.63-.772-10.607.096-15.623-.772-5.688 0-11.475.387-17.066-.578-3.088-.096-4.34-.675-7.234-1.253-.096 0 .482-.676.482-.87 3.086-1.83 4.146-2.41 7.426-3.663 4.53-1.83 9.354-1.446 13.887-2.7 6.363.097 12.633.965 17.262 7.04 8.486-5.11 17.55-5.69 25.748-10.126 3.664-1.157 7.04-2.99 10.703-4.146.578 0 1.543-.386 2.22-.192-2.992 1.736-6.078 3.086-9.164 4.05zm-54.29 6.364c-1.255.387-2.798-.096-3.954.676-1.545-.193-2.99.675-4.244 1.157l-2.314 1.64c.867.096 4.242.385 5.207.578 1.253 1.254 3.47.675 5.015 1.06 7.135-.964 15.14.194 23.723-.19-1.254-1.545-2.508-1.93-3.184-2.605-1.35-1.35-5.11-2.797-7.617-3.857-4.34.577-8.97-.387-12.634 1.54zM725.194 862.8c.193 1.64.867 2.796 1.158 4.53-.58 2.605-.098 4.92.867 8.102 1.35-.675 2.313-.482 2.796-.29 1.832-.192 4.146.29 5.98.193 1.735-.386 3.856-.578 5.593-.578 2.698-1.35 6.075-1.736 8.774-2.314 1.543.386 3.375 0 4.822.192 6.557 0 13.307-1.64 19.48-2.507 1.155.097 2.892-.192 3.952.097.193-.097.676-.097.77-.193 4.823-.193 8.68-.29 13.5-.29 2.22 0 4.15.387 6.175.483h-.098c-2.508 1.83-5.98 1.157-8.678 1.735-3.955-.965-8.102 1.06-12.344-.578-2.508 2.603-5.498.578-8.102 1.446-2.41-.29-5.302-.193-7.327 1.06-.965-.095-1.832.29-3.182-.192-2.315 1.35-5.208.676-7.618.676-3.953-.868-7.137 1.735-10.896 1.253-2.7 1.35-5.787 1.157-8.87 1.157-.966-1.06-2.51-.096-4.44-2.218-.673 4.243-.288 6.75-.48 9.354.48 2.026-.29 4.244 0 6.462-.097.097-.097.192-.192.29-.773-.098-.965-.966-1.254-1.544.578-1.93.48-3.857 0-5.786-.387-.482 0-1.35.096-2.313-1.06-1.446-.193-3.568-.963-4.92.48-1.542-.193-3.182-.098-4.724-.867-1.544.29-3.568-.578-5.11 0-1.35-1.832-2.7-.29-3.762.097-.096.29-.192.483-.288.386.094.868.19.964.577zM775.725 813.23c3.762.29 7.62 1.16 11.668 1.64 4.918.58 10.03 1.158 14.658 3.473 2.41 2.41 5.4 3.665 7.33 6.847.29 1.735 1.542 1.446.964 3.57.098.287-.19 0-.19-.39-2.22.1-1.16-.48-2.798-2.698-2.508.77-4.34-.386-6.172.386-7.715-.482-14.37 0-21.89.772-1.833.867-4.147.867-6.27.577-1.35-.482-2.796.482-4.437.193-5.014-.29-10.607-.29-15.525.386-3.664-.192-7.232 0-10.994.385-1.445-.287-3.084-.77-5.11-.19-.577 1.35-1.253 1.06-.77 2.218-.193.192-.385.48-.676.675-.29-.097-.578 0-.867-.29.385-2.796 2.22-4.34 3.953-6.46 3.375-3.087 7.715-4.533 11.38-7.522 2.41-1.54 4.917-1.734 7.52-2.795 3.28-.482 6.943-.29 10.127-.965 2.7.674 5.303.48 8.1.19zm-15.236 2.413c-3.763-.192-6.366 1.544-9.933 2.604-.193.192-1.062 1.06-1.543 1.35-2.7 1.93-5.883 2.797-8.775 6.654 3.47-.29 5.206.965 6.845.29 2.41.29 4.533-.965 6.943-1.062 3.47 1.062 7.232.193 10.8.676 3.28.386 6.847-.386 10.224-.58 5.977-2.313 12.92-.673 19.094-1.35 2.988 0 6.46-.48 11.186.098-1.832-3.857-5.11-4.533-7.328-5.786-5.69-1.543-11.38-2.508-17.264-3.086-1.156-.192-2.602.29-3.664-.386-5.304.29-11.67-1.543-16.587.58zM741.78 797.707c1.447.192 2.412 1.64 4.05 1.64 3.087 1.542 5.98 2.314 9.74 2.506.58.29 1.544.387 2.218.58 2.123.192 4.05 1.157 6.076 1.157 1.254.386 2.99-.29 4.146 1.253 1.543-.385 2.7-.77 3.664-1.253.387-.772 1.447-1.737 1.35-2.798.676-1.06.098-1.928.58-3.278.578-1.832.578-2.894 1.543-4.82.482-.387.965-.772 1.543-.676.385.964 0 2.12 0 3.28-1.254 2.506-1.06 3.855-1.928 7.134.77.482.48.868.77 1.062 2.412.386 5.016.097 7.04-.386 1.253.192 2.313-.29 4.243-.29.387-1.156 1.254-.288 1.832-.578 3.47-.29 6.56-2.218 10.127-2.41 1.54-1.352 4.146-1.157 5.688-2.315 1.834.193 2.797-2.217 5.11-1.64 1.16-.867 2.22-1.928 3.667-1.928.384.29.77.578 1.155.964-.193 1.447-1.832 1.544-2.893 2.316-1.64.192-3.184.578-4.34 1.64-2.12-.098-3.375 1.735-5.4 1.638-.77.482-1.543.58-2.12.965-.772-.098-1.448.192-2.026.48-4.436 0-7.908 2.894-12.344 2.605-.578.386-1.64.386-2.217.482-4.727 1.64-10.223 1.35-15.045 1.253-2.217-.58-4.918 0-6.848-.964-5.977-1.062-11.764-3.473-17.453-5.015-2.7-1.06-5.208-2.7-7.716-4.05-2.797-1.543-6.076-2.603-8.1-5.4 0-.192 0-.48.193-.578 4.34 2.796 8.872 5.303 13.693 7.425zM807.934 760.486c-3.762 2.7-3.473.965-5.305 2.025-1.35.676-2.605.29-3.856.772-2.027.675-2.027.867-3.568 1.64-.87.577-1.543 1.06-2.508 1.446-1.928.867 0 2.12-4.822 2.024-.482.097-2.508 3.278-3.182 1.927-2.41.288-.965.48-2.893 1.253-.097.193-.192-.29-.386-.29-.965.387-1.156-.192-1.543.772-.192.386.29.867-.77.29-1.06.48-2.025.866-2.025.964-.29.288-.867.19-.867.19-.676 0-1.543.965-2.314 1.736-1.736.482-2.893 2.604-3.857 4.437 3.182.675 5.4.192 7.62.964.866.193 1.733-.964 2.698 0 1.35-.386 2.12-.192 3.086-.29 1.64.677 2.41-.096 4.437.194 2.797-.77 2.7-.867 5.69-.867 4.05.77 6.075.097 10.124.482.772-.386 2.413.096 3.185.578 1.64-.578 4.436-.482 4.63-.386.288.097.77.578 1.155.77.098.194.098.29-.096.387-2.314.868-2.99.097-5.207.675-1.543-.29-3.762 0-5.4-.29-2.99.193-3.762-.867-7.137-.097h-17.84c-.482-.097-.965.193-1.447.097-.77-.193-1.734.578-2.508-.193-3.76.58-8.004-.385-10.51.29-.77.386-1.736.386-2.508.48-2.314-1.06-5.69.1-7.906-.48-1.157.29-2.7.77-4.05.58-2.123.384-3.953.288-5.883.77-1.156-.386-2.7.29-3.762 0-1.928.482-4.05-.192-6.074 0-.095-.192-.192-.386-.288-.675 1.734-3.28 4.34-4.532 6.943-7.426 4.242-3.086 11.475-4.82 16.875-1.832.965-.675 1.06.482 1.64.482 1.93 1.157 2.796 2.12 4.82 2.508 1.642.867 2.22 1.832 4.245 2.988 1.543-1.64 3.084-2.314 4.05-3.76 1.735-1.64 3.954-2.412 5.786-4.244 4.437-1.927.772.676 6.075-1.734 5.305-1.542 3.28-1.64 5.4-2.41 1.64-.58 3.473-.965 4.146-1.447.58-.48 1.062-.58 1.642-1.06 3.953-2.412.482-1.833 5.303-2.7.867-.194 4.918-1.158 5.303-1.447.676-.482.482-.29 2.123-.964.58-.19 2.316.484 1.544.87zM735.03 781.7c4.34.868 7.33.48 10.705-.097 4.05-1.157 9.547-.676 13.79-.965.964-.48 2.796 0 3.278-1.832-1.736-.29-2.508-1.35-3.47-1.832-.1 0-.29-.096-.388 0-2.7-1.35-5.305-2.604-8.293-3.183-5.882-1.155-11.667 2.606-15.622 7.91zM778.04 704.844c3.568-.29 6.268 1.157 9.547 1.93.676.578 1.35.578 1.35.48.193.098 1.447.387 2.508.966l.29.096c1.446.77 1.542.675 2.603.77 1.736 1.158 3.955 1.35 5.4 2.412 2.893 2.122 7.137 4.146 9.74 7.232 1.832 2.314 3.664 3.567 5.303 5.883.1.578.483 1.157.1 1.832-.772 0-.29.675-1.448-1.062l-.193-.383c-1.063.29-1.93.77-2.606.964-1.64 0-4.146 0-5.883.192-1.06-.29-2.794.387-3.76 0-4.82.29-11.09.482-16.394.097-1.252.58-2.988.193-4.146.097-5.014-.29-9.545-1.832-14.078-1.35-3.086-.097-6.75.867-10.03-.386-2.313.29-5.978-.29-7.81-.193-.098 0-.193.194-.29.29-4.726-.578-10.8.193-15.333-.29-.483-.19-.868-.867-.192-.963 9.256-.77 20.924-.868 30.664-.098 2.22-.192 5.594.29 7.908-.097l.29.29c3.567 0 6.46.675 10.124 1.06.387-.29.77-.096 1.062.097 5.398.29 13.018-.48 18.225-.096 2.894-1.35 5.98.77 8.776-.675.29-.483.29.963 2.217-.388-.578-.193-1.156-1.157-.867-1.157-.77-1.543-2.99-1.35-4.05-4.436-.58.577-.386-.29-.868-.29 0 0-.482-.29-.674-.386-.098-.097-.482-.193-.482-.965-.965 0-1.158-.29-1.447-.097-.965-.387-.965-1.736-2.12-1.736-.483-.193-1.16-.386-1.448-.77-1.156-.29-1.64-1.447-2.7-1.64-1.542-1.062-3.856-.868-5.11-1.736-1.06 0-1.156-.867-2.41-.964-3.375-1.832-7.812-1.832-11.38-2.604-5.208 0-9.933-1.06-15.235 0-1.736 0-3.28.676-4.822.965-.87.578-1.93.385-2.797.867-7.137 2.22-14.37 5.11-20.54 10.03-2.507 1.253-3.76 3.856-6.364 5.11-.58.386-.194-.482 0-.77 1.927-2.605 4.53-5.4 7.23-7.427 2.605-1.928 6.075-3.375 8.97-5.11 2.604-1.157 5.398-1.93 7.617-2.894 2.797-.192 3.375-1.928 6.268-1.64.58-.097 1.062-.48 2.12-.386.483-.385.87-.192 1.546-.48.868 0 1.833 0 2.894-.29 3.853-.192 8.675-.77 12.726.097zM807.452 692.694c.29.097.482.193.674.386-.867 2.22-3.47.965-5.496 1.543-1.734.29-3.375 0-5.11.097-4.726.097-9.45-.097-13.983 0-2.41 0-5.592.192-8.1-.097-1.64-.193-3.664 0-5.305.097-3.953.386-7.713 0-11.86.29-.192-.193-.386-.193-.58-.193-1.733.867-3.663.096-5.302.386-3.955.192-7.715.58-11.572.58-2.7-1.16-5.496.577-8.293-.1-.387-.095.578-1.155.867-1.155 4.242-2.893 9.16 1.156 13.887-.193 5.59-1.543 11.86-.965 17.356-1.254s10.705.194 16.297 0c1.543-.19 3.086-.19 4.727-.19.385 0 .867.096 1.254.096 4.242-.097 8.484-.097 12.246-.676 2.89.77 5.3.288 8.292.384zM744.48 665.308c1.062 0 2.605-.097 3.763-.193 2.797-1.736 7.135 0 10.414.386 2.025-1.156 5.4-.48 7.52-.674 3.087-.77 7.138.192 10.704.192 6.27 0 13.503-.192 19.77-.48.966-.098 1.93-.677 2.798-.29.096.096.193-.097.29-.097-2.218 1.447-4.92 1.543-7.138 2.508-3.182 2.797-6.846 4.243-10.22 6.365-4.052 1.832-8.198 3.182-11.862 5.98-1.158.577-2.22 1.253-3.375 1.83l-2.797 1.35 3.182.194c7.523.482 14.562-1.35 22.277-.29 3.084 0 5.98-1.253 8.97-.675.77-.096 1.733 0 2.41 0-.1.193 0 .58-.1.676-.77 0-1.444.192-2.12.675-.77.386-1.736.386-2.604.58-2.603.288-5.206-.1-7.81.48-7.04.193-13.887-.675-20.732.097-3.184-.578-6.365 1.06-9.45.193-2.026.482-4.63-.58-6.173.578-4.63-.48-9.162-1.253-13.982-1.253-1.06-.385-2.7 0-3.184-1.157-.097-.097.58-1.06.58-.578 5.206-1.35 9.642 1.735 15.62 1.06 3.086-.385 6.268 0 9.547-.963.965-1.352 2.412-1.255 3.473-2.123 1.928-.29 3.857-.77 5.11-2.122 4.92-2.41 9.933-3.278 13.886-6.846 1.158-.483 2.314-1.062 3.568-2.123 0-.29 2.797-1.543 2.797-1.832-.095-.192-2.987.48-2.987.097-3.762 0-7.234-.676-10.223.385-5.4-1.35-10.994-1.445-16.78-.192-4.145-.48-8.39-1.062-12.438-.29-3.375-1.445-7.137 1.544-10.223-1.156-.29-.87-1.833-.58-1.737-1.64 3.28-.582 6.076 1.25 9.258 1.348zM809.573 639.85c1.254.482 2.12-.192 3.086 0-.29.675-.772 1.253-.772 2.024-.385 1.06-1.734 1.254-2.506 2.025-.773.192-.87 1.253-1.736 1.83-2.025 1.255-3.857 2.605-5.883 4.052-3.953.965-7.52 3.664-12.15 4.146-3.568 1.64-8.197 1.543-12.15 1.64-2.41 1.93-6.268.192-9.162 1.253-1.444.194-2.313-.384-3.47-.384-3.955 1.06-7.52-.482-11.188-1.062-2.602-1.157-5.398-1.446-7.906-2.796-.77-.58-1.928-.387-2.7-.676-3.085-2.024-6.653-3.278-9.45-5.496-1.35-.29-1.736-1.93-3.086-2.22-.482-.674-1.447-1.253-.87-2.698-.866-.676-1.638-2.025 0-1.736.388-.29.58-.096.1.29 3.18 3.856 8.388 7.425 13.5 10.125 1.93 0 3.856 1.06 5.015 2.024 3.953 1.062 7.617 2.51 11.668 2.51 1.445 0 2.893.288 4.146-.097 2.507.29 4.82.964 7.425.29 2.506-.194 5.014-.483 7.426-.966 7.716-1.543 16.105-1.93 22.47-6.172 2.312-1.543 3.953-2.893 5.98-5.207-.29-.482 1.25-.386.962-1.06-5.98.288-13.402.48-18.803.866-2.413 1.06-5.21-.192-7.813.193-2.314.29-4.725-.29-7.135-.193-1.158 0-2.22-.192-3.28.193-1.735-.29-3.952.193-5.4-.77-.675-.58.868-.483 1.062-.87 1.543-.577 3.086-.77 4.822-.096 1.35.194 2.7-.674 3.953-.674 3.567 0 6.653.964 9.063.675 0-.288 1.158 0 2.123 0 .674-.19 1.35-.19 1.734-.095 2.123 0 3.47-.386 5.4-.097 3.473-.868 7.812 0 10.607-.77.87-.193.77-.098 1.64-.193 1.444.003 2.12-.48 3.276.195zM807.934 620.756c-.965 2.122-3.28 2.314-4.918 3.472-2.22 1.158-4.63 2.314-7.137 2.604-.675.385-1.64.48-2.41.577-6.462 1.157-12.73 3.76-19.48 3.953-4.63.965-9.74.482-14.755.386-4.146 0-9.45-1.157-13.598-2.99-2.023-.48-4.242-1.253-5.688-2.507-2.124-.58-3.763-2.122-5.595-3.278-.387-.676-.87-1.35-.87-2.026 0-.097-.095-.193-.095-.193 1.93.48 3.762 1.93 5.69 3.086 1.542.868 2.41 2.026 4.05 2.41 2.795.58 5.014 2.51 7.908 2.315 5.303 1.35 11.088 1.253 17.453.867-.964-2.218.675-3.085-.095-4.436.096-.58.19-.965.385-1.35.29-.29.482-.58.867-.29l.482.48c-.192.58.192.965.48 1.254-.288 1.255 0 2.508-.19 4.05 4.725.483 7.906-.866 11.764-1.06 1.64-.77 4.146-.965 6.172-1.543 1.832-.577 4.05-.577 5.787-1.638 1.445.19 3.084-.29 4.242-1.736 2.508.096 4.436-1.736 7.328-2.314v-.482c.482-.192 1.447-1.253 2.604-.867-.094.482-.192.868-.383 1.253z"/></g><path d="M2048 0M2048 1536M0 1536M0 0" fill="none" stroke="#17192D" stroke-width="3"/></g></svg>