<svg xmlns="http://www.w3.org/2000/svg" width="2048" height="1536" viewBox="0 0 2048 1536"><g><g fill="#FF0050"><path d="M923.955 1493.413c1.254.385 2.604.965 3.568 1.35 2.99 1.736 6.172 3.086 9.066 5.016.19.19.577.384.962.48.29.097.578.482.965.77.096.193.096.387-.098.482-2.313.868-4.82-.29-7.136.29-1.543-.29-3.762 0-5.4-.29-2.99.193-6.365-.867-9.74-.096-6.652-1.06-15.236 0-21.793 0-.48-.097-1.06.193-1.542.096-.773-.192-1.736.58-2.508-.192-3.76.58-8.004-.386-10.512.29-.77.385-1.734.385-2.508.482-2.312-1.062-5.592.19-7.906-.482-1.158.29-2.797.867-4.146.674-2.025.482-3.857.29-5.787.87-1.155-.388-2.698.288-3.76 0-1.93.48-3.952-.194-5.978 0-.098-.29-.193-.483-.29-.773 1.735-3.47 4.437-4.917 7.04-7.906 4.146-3.47 11.475-5.4 16.973-1.93.674-1.06.674.387 1.254.387 2.022 1.062 2.892 2.315 4.915 2.7 1.64.87 2.22 2.025 4.244 3.184 1.542-1.64 3.278-2.604 4.24-4.05 1.737-1.64 3.858-2.51 5.595-4.533 4.533-2.217 9.16-5.014 14.176-3.277 5.788.577 11.476 3.374 16.105 6.46zm-71.65 7.907c4.243.964 7.427.772 10.802-.097 4.05-1.06 9.545-.675 13.79-.964.964-.482 3.278 0 3.76-1.834-1.735-.29-2.99-1.735-3.954-2.217h-.096c-2.99-1.544-5.594-2.702-8.68-3.377-5.88-1.252-11.86 2.895-15.62 8.487zm46.482-11.282c-.098.385-.387.096-.482.192-1.06.482-1.06-.192-1.543.58 0 .288-.387.385-.387.385-.963.48-1.928.868-1.928.964-.193.095-.674.095-1.06.385-.87.192-1.642 1.06-2.315 1.735-1.736.58-3.086 3.183-4.05 5.305 3.183.675 5.688-.097 7.907.675.866.192 1.638-.964 2.603 0 1.35-.386 2.217-.192 3.182-.29 1.64.676 3.28-.096 5.305.193 2.797-.964 5.785-.964 8.775-1.06 4.146.964 9.547.385 13.598.866.77-.386 1.928.386 3.76-.482-1.158-.965-1.254-1.062-1.254-1.157-.194-.095-.58.193-.772-.192 0-.578-.674-.867-1.543-1.06-1.35-1.157-3.47-1.157-4.82-2.315-.29-.676-.387-.096-.676-.096-.58-1.158-2.122-1.062-2.894-2.122-4.244-2.024-8.584-3.665-13.79-3.857-.29.097-.386-.48-.964-.096-2.124 0-4.245.192-6.655 1.446zM933.31 1449.632c2.41.29 4.05-.29 4.63.868 0 .097-.1.29-.1.386-3.567 2.025-8.196 1.156-12.343 2.314-7.328 1.06-14.85 1.64-21.602 3.375-1.54 2.12-3.277 5.015-2.217 7.812.098.097-.29 0-.674.675.674.964-.387 1.35-.387 2.12-.387 1.833-.193 4.147-.965 7.33 5.594 1.254 10.896 1.157 15.525 2.41 3.375.965 8.102-.578 11.477 1.158 1.254 0 2.797-.193 3.664.868.193.482-.676.482-1.06.482-3.954-.676-6.944-.387-10.706-.87-4.436-1.927-11.186-.288-16.008-2.217-1.734 0-4.436.482-5.785-.482-4.534-1.06-9.933.29-14.177-1.734-7.906.29-14.465-2.99-22.564-2.99-.388-.385-.388-1.06-1.255-1.156-2.314-.77-5.305.675-6.75-1.254.578-1.06 2.12-.578 3.277-1.446 9.74-2.122 18.71-6.364 28.64-8.196 2.798-1.35 6.27-1.736 9.356-2.99 1.06-.096 2.12-.29 3.084.098 1.93-.58 4.05-1.255 6.172-1.255 4.533-.097 8.584-2.218 13.31-1.832 1.446-.868 3.663-.192 5.206-.675 2.99-.29 6.074-1.06 8.873-1.832.578-.29.867-.482.963-.675.87-.386.965-.386 1.64-.29.003.095.774-.194.774 0zm-36.453 7.81c-4.822 2.123-10.414 2.123-15.428 3.57-5.884 1.638-11.38 4.917-18.034 6.17 0 1.64.674 2.22 1.832 2.314 2.7.965 5.207 2.025 8.293 2.41 5.69.772 12.345.29 17.745 1.64 1.445 0 3.568 0 5.496.58.966-1.157 1.062-2.315 1.93-2.894 0-1.157.29-2.025.386-2.893.193-1.448.193-2.798.482-3.858.482-1.833.77-2.508.965-4.05 2.603-4.533-1.93-2.892-3.666-2.99zM937.746 1431.502c.096.097.096.386.193.675-.292 1.254 1.058 1.736.095 3.086 0 1.35.29 3.375-.77 4.34-.675.097-1.062.77-1.737.965-1.832.096-4.436.29-6.268.578-1.06-.386-3.086.386-4.146.096-5.11.482-11.668.772-17.455.676-1.062.676-2.99.193-4.147.193-5.4-.192-10.318-1.542-15.043-.868-3.375 0-7.232 1.254-10.8 0-2.51.387-6.173-.096-8.198.098-.096 0-.193.192-.385.29-5.016-.483-10.607.577-15.43.192-.482-.193-.965-.965-.193-1.062 9.934-1.254 21.217-.77 31.727-1.254 2.315-.096 5.884.097 8.392-.386l.29.29c3.76 0 7.136.48 10.702.77.387-.19.77-.19 1.158 0 5.785.194 13.982-.866 19.48-.674 3.183-1.542 6.558.675 9.353-1.06.482-.676 1.834 0 2.22-1.833-1.062-.965-.58-2.218-.772-2.894-.385-1.544-.482-3.954-.578-5.208.193 0-.387-1.64.482-1.543 1.346 1.06.96 3.375 1.83 4.532zM898.593 1404.404c3.762.29 7.62 1.157 11.668 1.64 4.92.578 10.03 1.156 14.66 3.47 2.41 2.413 5.4 3.667 7.33 6.85.288 1.735 1.54 1.444.962 3.567.098.29-.19 0-.19-.385-2.22.096-1.16-.482-2.798-2.7-2.508.77-4.34-.386-6.172.385-7.715-.48-14.37 0-21.89.773-1.833.867-4.147.867-6.27.578-1.35-.48-2.796.482-4.437.192-5.014-.288-10.607-.288-15.525.387-3.664-.193-7.232 0-10.994.385-1.445-.29-3.084-.772-5.11-.193-.577 1.35-1.253 1.062-.77 2.218-.193.193-.385.482-.676.676-.29-.098-.578 0-.867-.29.385-2.796 2.22-4.34 3.953-6.46 3.375-3.087 7.715-4.533 11.38-7.522 2.41-1.542 4.917-1.736 7.52-2.796 3.28-.482 6.943-.29 10.127-.965 2.7.674 5.303.48 8.1.19zm-15.236 2.41c-3.762-.192-6.365 1.544-9.932 2.605-.193.19-1.062 1.06-1.543 1.35-2.7 1.93-5.883 2.796-8.775 6.653 3.47-.29 5.207.965 6.846.29 2.41.29 4.533-.965 6.943-1.062 3.47 1.062 7.232.193 10.8.676 3.28.386 6.847-.386 10.224-.578 5.977-2.315 12.92-.675 19.094-1.35 2.988 0 6.46-.483 11.186.096-1.832-3.856-5.11-4.532-7.328-5.786-5.69-1.543-11.38-2.508-17.264-3.086-1.156-.19-2.602.29-3.664-.386-5.304.29-11.67-1.542-16.587.58zM932.44 1354.84c1.255.48 2.122-.194 3.087 0-.29.674-.77 1.253-.77 2.023-.386 1.062-1.735 1.254-2.507 2.026-.773.19-.87 1.25-1.736 1.83-2.025 1.254-3.857 2.604-5.883 4.05-3.952.965-7.52 3.665-12.15 4.147-3.567 1.64-8.196 1.543-12.15 1.64-2.41 1.928-6.267.192-9.16 1.253-1.446.192-2.315-.385-3.472-.385-3.955 1.06-7.52-.482-11.188-1.062-2.602-1.157-5.398-1.446-7.906-2.796-.77-.58-1.928-.386-2.7-.676-3.085-2.023-6.653-3.277-9.45-5.496-1.35-.29-1.736-1.928-3.086-2.217-.482-.676-1.447-1.254-.87-2.7-.866-.676-1.638-2.026 0-1.736.388-.29.58-.096.1.29 3.18 3.858 8.388 7.426 13.5 10.126 1.93 0 3.856 1.06 5.015 2.025 3.953 1.06 7.617 2.507 11.668 2.507 1.446 0 2.894.29 4.147-.096 2.508.29 4.82.966 7.426.29 2.506-.193 5.014-.482 7.426-.964 7.714-1.544 16.103-1.93 22.468-6.17 2.312-1.545 3.953-2.895 5.98-5.21-.29-.48 1.25-.385.962-1.06-5.98.29-13.402.48-18.803.867-2.412 1.062-5.21-.192-7.812.192-2.314.29-4.725-.29-7.135-.192-1.158 0-2.22-.192-3.28.192-1.735-.29-3.952.193-5.4-.77-.675-.58.868-.483 1.062-.87 1.543-.577 3.086-.77 4.822-.096 1.35.192 2.7-.676 3.953-.676 3.568 0 6.654.965 9.064.675 0-.29 1.16 0 2.124 0 .674-.193 1.35-.193 1.734-.098 2.123 0 3.47-.385 5.4-.096 3.473-.868 7.812 0 10.607-.77.87-.194.77-.098 1.64-.194 1.444.004 2.12-.48 3.276.197zM921.062 1333.816c-3.47 2.507-7.906 2.122-11.09 4.82-1.254.388-2.604 1.062-3.664 1.737-2.99-.097-6.076 1.832-10.125 3.664 2.604 1.06 4.53.77 5.883.386 5.688 0 10.703-.964 16.682-.096 1.64 0 3.664-.482 5.11.192 2.798.096 6.077-.676 8.487.675.096.096.096.096.193.19-2.025.58-4.63.388-6.654.292-1.736-.482-3.568.19-5.496.19-3.762.098-7.715-1.252-11.09.388-3.086.386-5.98-1.06-8.97 0-2.698.867-5.4-.482-7.907.77-4.628-.77-10.606.097-15.622-.77-5.688 0-11.475.386-17.066-.578-3.088-.098-4.34-.676-7.234-1.255-.096 0 .482-.675.482-.868 3.086-1.832 4.146-2.41 7.426-3.664 4.53-1.832 9.354-1.445 13.887-2.7 6.363.097 12.633.964 17.262 7.04 8.486-5.11 17.55-5.69 25.748-10.125 3.664-1.158 7.04-2.99 10.703-4.147.578 0 1.543-.386 2.22-.192-2.992 1.736-6.078 3.087-9.164 4.05zm-54.29 6.365c-1.255.387-2.798-.095-3.954.677-1.545-.193-2.99.674-4.244 1.156l-2.314 1.64c.867.097 4.242.386 5.207.58 1.254 1.253 3.47.674 5.016 1.06 7.135-.964 15.14.193 23.723-.193-1.254-1.543-2.508-1.928-3.184-2.604-1.35-1.35-5.11-2.797-7.617-3.857-4.34.577-8.97-.388-12.634 1.54zM899.654 1306.043c5.11-.867 9.934 2.122 14.562 3.473 2.023 1.156 4.338 1.446 6.557 3.085.77-.288.87.388 1.158.87 0 .096.097-.193.097-.193-3.28 2.12-6.172 4.146-9.74 5.207-1.832.964-4.05 1.156-5.98 1.832-2.12.77-4.24 1.64-6.364 2.314-4.34.482-7.232 1.35-11.38 1.832-3.276-.675-6.75-.29-9.93-1.93-2.22 1.063-4.147.098-5.788-.48-2.12.578-3.857-1.736-5.88-2.122-2.124-1.157-5.017-.964-6.85-3.567-.095-.387-.384-.965 0-1.447.097-.193.29-.386.386-.482 1.255-1.156 2.413-2.893 4.052-3.664 3.857-2.41 8.004-3.375 12.922-4.726 2.604.482 5.21-1.83 7.52-.385 4.63-.098 10.13-.678 14.66.383zm-37.223 8.004c0 1.35-.77 2.508.677 2.508 5.688 2.507 11.475 3.953 17.357 4.917 5.785.965 11.186 1.543 16.684-.288 7.04-2.315 14.463-3.954 22.564-8.294-4.533-1.06-7.04-2.604-9.836-3.182-6.46-.482-12.15-2.7-18.516-2.508-10.413.194-20.538 1.254-28.93 6.847zm-5.497 5.786c0 .482-.674.77-1.06.868-1.446.966-3.954-.674-5.497-.096-.578 0-.965-.192-1.254-.482 0-.482.193-.578.387-.867 1.446-.193 3.276-1.64 4.917 0 1.254-.097 1.832.192 2.506.578zm-1.734-8.486c0 .482-.677.77-1.062.868-1.447.964-2.41-.386-3.857.29-.48 0-.868-.193-1.157-.482 0-.482.193-.676.387-.868 1.254-.29 1.64-2.024 3.182-.386 1.253-.098 1.83.192 2.507.577zM918.458 1287.626c3.762.964 6.46 4.146 10.223 5.304.58 1.06 1.833 1.64 2.41 2.7-.866.29-1.83-.58-2.603-.965-.676-.676-1.352-1.06-2.314-1.157-2.12-1.543-5.014-2.218-7.232-3.954-1.638-.578-4.05-.77-5.882-1.64-3.277-.192-6.557-.192-9.74.386-3.086.58-6.074 1.832-8.484 3.955-3.184 1.542-6.848 2.7-10.32 3.47-5.398 2.7-12.246 2.41-17.838.194-3.28 0-5.11-2.798-8.102-3.184-.867-.675-1.64-1.35-2.7-1.735-.58-.48-.288-1.253-.77-1.928 0-.193-.387.096-.193.192 1.35.097 2.798.675 3.954 1.254 5.11 3.953 11.96 4.146 18.13 5.496 4.34-.192 7.907-2.218 12.054-3.182 2.604-1.64 5.883-2.22 8.486-3.857 1.928-.193 3.473-2.41 5.496-1.93 4.34-1.542 9.45-1.542 13.598 0 .577.29 1.157.483 1.83.58zM914.216 1264.578c-.193-.097.867-.29 1.252-.192h.77c.58.192 1.353.482 1.93.386 1.35.58 2.702.29 3.858.868 2.314 1.06 5.4 2.025 7.908 4.146 1.54 1.64 3.566 2.314 5.11 3.76.288.87.675 1.254.48 2.025-1.542.098-2.313-2.12-3.76-2.698-1.06-.965-2.603-1.254-3.472-2.508-.193-.097-.578-.482-.77-.578-.194-.098-.29-.29-.29-.29-.098 0-.482-.192-.482-.29-.867-.867-1.156-.963-1.156-.577-.676-.194-1.158-.676-1.832-.58-.29-.096-.58-.29-.773-.578-1.157.193-1.446-.386-2.024-.482-1.06-.58-2.7 0-3.857-.386-.58.097-1.062-.482-1.737-.386-2.314-.676-3.28-.097-5.785.096-3.184 1.158-3.28.87-5.305 1.64-1.543.58-2.41.772-3.857 1.446-1.445.676-2.025 1.447-3.47 2.122-1.353.58-2.22.386-3.474.868-1.447.578-2.314 1.254-3.664 1.832-1.35.676-2.41.965-3.953 1.64-1.447.868-2.22 1.735-3.953 2.218-.482 0-1.158.097-1.64.097-.483-.097-1.062.097-1.35.097-.29.096-.772-.097-1.062-.193-1.736.58-2.7-.577-4.533-.385-1.736-.48-3.47-.675-5.496-1.35-1.93-1.062-4.435-1.544-6.558-2.99-2.217-1.157-4.436-2.893-6.074-5.015-.193-.29-.965-1.06-.29-.964 1.735.77 3.28 2.507 5.112 3.183 4.916 3.085 10.03 4.917 15.14 5.4.577.288 1.253 0 1.93.288.964 0 2.313.29 3.374.097 3.47.386 2.7-1.157 4.146-1.736 1.543-.58 2.508-.483 3.857-1.158.965-.578 1.447-1.254 2.604-1.736.964-.578 1.64-1.06 2.894-1.253 2.893-.29 2.99-.868 4.436-2.122.676-.384 1.06-.866 1.832-1.155.676-.58 1.254-.29 2.123-.58 1.156-.29 1.734-.674 2.893-1.06 1.06-.386 2.217-.868 2.797-.868 2.025-.867 3.182-.29 5.11-.482.58-.003 1.157.383 1.06.383zM930.802 1245.484c-.965 2.122-3.28 2.315-4.918 3.472-2.22 1.157-4.63 2.314-7.137 2.604-.674.387-1.64.482-2.41.578-6.46 1.158-12.73 3.762-19.48 3.955-4.63.964-9.738.48-14.754.385-4.146 0-9.45-1.156-13.598-2.99-2.023-.48-4.242-1.252-5.688-2.506-2.123-.578-3.762-2.122-5.594-3.28-.387-.674-.87-1.35-.87-2.023 0-.098-.095-.194-.095-.194 1.93.482 3.762 1.93 5.69 3.086 1.542.868 2.41 2.024 4.05 2.41 2.795.58 5.014 2.508 7.908 2.315 5.303 1.35 11.088 1.254 17.453.867-.966-2.217.673-3.086-.097-4.436.096-.578.19-.964.385-1.35.29-.29.482-.578.867-.29l.482.482c-.19.58.193.965.482 1.254-.29 1.253 0 2.507-.192 4.05 4.725.482 7.906-.868 11.764-1.06 1.64-.772 4.146-.966 6.172-1.544 1.832-.578 4.05-.578 5.787-1.64 1.446.193 3.085-.29 4.243-1.735 2.508.096 4.436-1.736 7.328-2.314v-.48c.483-.193 1.448-1.255 2.605-.868-.094.48-.19.867-.383 1.252zM921.062 1223.98c-3.47 2.508-7.906 2.122-11.09 4.82-1.254.388-2.604 1.063-3.664 1.737-2.99-.096-6.076 1.832-10.125 3.665 2.604 1.06 4.53.77 5.883.386 5.688 0 10.703-.965 16.682-.097 1.64 0 3.664-.48 5.11.193 2.798.097 6.077-.674 8.487.676.096.096.096.096.193.19-2.025.58-4.63.387-6.654.29-1.736-.48-3.568.193-5.496.193-3.762.097-7.715-1.254-11.09.386-3.086.385-5.98-1.062-8.97 0-2.698.866-5.4-.483-7.907.77-4.628-.77-10.606.096-15.622-.77-5.688 0-11.475.385-17.066-.58-3.088-.096-4.34-.675-7.234-1.253-.096 0 .482-.676.482-.868 3.086-1.833 4.146-2.412 7.426-3.665 4.53-1.833 9.354-1.446 13.887-2.7 6.363.096 12.633.964 17.262 7.04 8.486-5.112 17.55-5.69 25.748-10.126 3.664-1.16 7.04-2.99 10.703-4.147.578 0 1.543-.387 2.22-.193-2.992 1.737-6.078 3.088-9.164 4.05zm-54.29 6.366c-1.255.386-2.798-.097-3.954.675-1.545-.192-2.99.676-4.244 1.158l-2.314 1.64c.867.096 4.242.386 5.207.578 1.254 1.254 3.47.676 5.016 1.062 7.135-.965 15.14.192 23.723-.193-1.254-1.543-2.508-1.93-3.184-2.604-1.35-1.35-5.11-2.795-7.617-3.856-4.34.577-8.97-.387-12.634 1.542zM927.33 1213.276c.098.097.193 0 .193.097-1.734.386-3.47-.29-5.014.386-1.062.674-2.413 1.252-3.763.577-.096-.675-.385-1.446-.193-2.314.193-.386.482.097.77-.192 2.896-.868 5.595.097 8.006 1.446zM926.367 1163.903c1.734 2.025 2.893 4.05 4.627 6.46.29 2.315 1.93 2.315 1.545 4.147-1.546 2.122-2.413 1.062-4.245 1.158-5.98-.772-13.018.48-18.803.867-5.21-.386-8.102.386-15.238.578-1.832.77-4.436.29-6.46 0-2.122.868-5.69.482-8.005-.192-7.716.965-14.08.193-21.6.58-.58-.097-1.448.385-1.063-.29 0-.097.098-.482.098-.578.19-.193.29-.482.482-.868-.098-.675-.193.29.29.29.866-1.062 1.253-2.99 2.698-2.99.77-1.062 1.543-1.64 2.412-1.93 1.734-1.64 2.7-3.085 5.014-3.085 3.954-3.183 8.97-2.798 13.5-2.798 4.534 1.543 8.296 3.954 12.153 8.97 1.64-1.833 1.54-4.34 2.602-4.822.676-1.64 1.93-2.99 3.473-4.63 3.086-2.12 5.787-2.506 9.064-3.76 3.762-2.604 7.81 1.254 11.572-.193 1.928.386 3.664 2.412 5.883 3.086zm-56.897 4.822c-2.12 2.797-4.05 1.254-5.785 5.11-.29.193-.578.387-1.06.098-3.665 1.64.288 1.832 1.83 1.928 3.183-1.06 4.726.195 7.907.1 3.28-1.063 7.04.384 10.512-.58 1.06-.29 1.832-.097 2.797-.097 2.122-.482 3.57.482 7.812 0-2.988-2.507-3.664-3.182-5.207-4.243-2.217-.964-4.244-2.507-6.268-3.663-4.34-.966-8.873-.195-12.537 1.348zm31.535-2.796c-2.605 2.506-3.568 4.24-6.076 9.45 2.7 0 4.05-.87 5.206-.483 4.822-2.025 9.258.868 14.27-.386 3.185-1.156 6.56 0 9.84-1.156 1.155.58 4.628.58 5.495.193.097-.193-.866-1.157-.577-2.41-1.352-1.93-2.605-4.052-3.666-6.366-2.12-.19-3.375-.577-4.82-1.445-3.086-.578-6.46-2.313-9.838-1.157-3.376 1.156-6.653 2.12-9.835 3.76zM926.75 1129.862c.772.387 1.544 0 2.413.193.674 0 1.156.193 1.734.578.096.482-.482.87-.77 1.352-.675.867-1.446-.482-1.64-.482-.193-.387-1.158.482-2.12-.965-1.93.578-3.667.578-5.017.193-2.7.29-5.69-.48-8.293.58-1.06.096-1.64 1.35-2.12 1.928-.1 0-.483 1.157-1.35 1.544-1.255 1.156-3.087 2.988-3.665 3.47-.482.483 0-.577-.87.388-.48.385-.288.578-.964 1.64-.867 1.06-2.604 2.892-2.988 3.374-.578 1.157-1.158 2.507-1.832 4.05 2.025 1.35 4.05.964 5.4 1.833 1.734.096 3.857.48 5.69.964 1.06-.867 1.83.194 2.603.194 1.062.578 2.7.482 3.954 1.06 2.41.387 4.533 1.832 7.232 1.352.965.19 2.12.578 3.086.867-.098.193-.193.386-.387.386-1.64.288-3.084-.58-4.53-.483-.386-.29-.675-.386-1.062-.29-.77-.096-1.543-.29-2.22-.29-1.54-.48-2.603.388-5.108-1.252 0 1.446.19.58.19.58-1.444-.388-3.47-.966-5.4-.87-1.155-.77-2.603-.48-3.76-.77-2.7-.29-4.532-1.35-7.136-1.157 0 0-.097-.096-.192-.096-.773-.482-1.64-.193-2.123-.676-5.883-1.64-11.86-3.28-17.744-4.92-1.35-.673-2.505-.963-3.952-1.54-1.928-.677-3.76-1.834-5.785-2.605-2.025-.77-3.955-2.023-6.27-2.7-.578-.288-1.543.194-1.543-.77 0-.29-.29-.964-.096-1.06.674-1.062 2.604-1.062 3.568-1.544 2.314-.193 5.592-.675 8.39-1.253 1.06-1.254 2.7-.29 3.954-.77 4.725.19 9.643-2.22 15.043-1.545 6.847-1.06 14.464-1.64 20.925-1.06 4.92.382 9.838-.1 14.756.574zm-29.217 1.64c-1.254-.48-3.182.676-5.11.29-2.315-.386-4.823.386-7.136.77-2.22-.385-3.955.965-6.172.772-1.447.192-3.857.192-5.787.578-3.182.578-6.074 1.447-9.738 1.736 1.445 1.64 4.05 2.796 4.436 2.893 2.025.677 3.664 1.833 5.496 2.412 2.797.964 5.207 1.93 7.81 2.7 1.833.48 4.245 1.06 5.884 1.35 1.832-.096 4.436 1.543 6.943 1.93 1.444.19.77.867 2.796.29.77-1.833 1.928-3.088 2.604-4.726.867-1.158 1.35-1.255 2.604-2.605.867-.866 1.734-2.216 2.7-3.47.868-.965 2.024-2.025 2.603-2.7 0-.193 1.158-1.446 1.158-2.218-1.35-.29-2.893-.29-3.762-.387-2.606-.384-4.63 0-7.33.388zM925.402 1105.947c-.29 2.024.096 3.762.77 5.4-.095.48-.48.964-.77 1.06-1.254 1.832 1.156 5.11-2.025 6.075-1.06.29-2.217-.192-3.086.578-3.374 1.255-4.435.29-7.714.58-2.893.193-6.363-1.254-9.16 0-1.543 0-2.797-.58-4.146-.77-3.666 1.35-7.812-.677-11.67.288-2.795.193-5.014-.965-7.81.29-.58.095-1.062.095-1.544.288-5.69 0-11.57-.578-17.164.098-2.797 0-5.496-.098-8.006-1.447-.48-.386.098-.965.58-1.157.676 0 1.64-.193 2.7.675 2.024-.868 3.856.097 5.593-.29 1.446.387 3.085.482 4.628.097 3.28-1.928 6.75.29 10.125.193 3.28-.097 6.56-1.35 9.934-.964 3.47.482 7.52.772 11.09.386 1.156-.385 2.506.193 3.568-.192 1.06.192 2.506.097 3.47.77 1.35-.192 2.99-.48 4.34-.867.772.386 1.93.29 2.605.482 3.664.288 4.436.77 7.81-.387 2.22.77 1.353-1.543 3.28-2.025 1.254-.482.578-1.06.578-1.735-.29-1.544 1.254-2.7.578-4.05-.482-1.254-.096-2.894-1.06-4.244-.097-.386-.097-.868.386-.868 1.253-.29 1.446.965 2.12 1.735zM900.908 1075.476c3.568-.29 6.268 1.156 9.547 1.928.676.58 1.35.58 1.35.482.193.097 1.447.386 2.508.965l.29.097c1.446.77 1.542.676 2.603.77 1.736 1.16 3.955 1.352 5.4 2.412 2.893 2.12 7.137 4.145 9.74 7.23 1.832 2.316 3.664 3.568 5.303 5.884.097.578.48 1.157.097 1.832-.77 0-.29.675-1.447-1.06l-.19-.387c-1.063.288-1.93.77-2.606.963-1.64 0-4.146 0-5.883.192-1.06-.288-2.794.387-3.76 0-4.82.29-11.09.482-16.394.097-1.252.58-2.988.193-4.146.097-5.014-.29-9.545-1.833-14.078-1.35-3.086-.097-6.75.867-10.03-.387-2.313.29-5.978-.29-7.81-.192-.098 0-.193.193-.29.29-4.726-.58-10.8.193-15.333-.29-.483-.192-.868-.868-.192-.964 9.256-.77 20.924-.868 30.664-.097 2.22-.193 5.594.29 7.908-.098l.29.29c3.567 0 6.46.675 10.124 1.06.387-.29.77-.096 1.062.097 5.398.29 13.018-.482 18.225-.097 2.894-1.35 5.98.77 8.776-.675.29-.482.29.965 2.217-.387-.578-.19-1.156-1.155-.867-1.155-.77-1.543-2.99-1.35-4.05-4.437-.58.58-.386-.29-.868-.29 0 0-.482-.288-.674-.385-.098-.096-.482-.193-.482-.965-.965 0-1.158-.29-1.447-.096-.965-.387-.965-1.736-2.12-1.736-.483-.192-1.16-.385-1.448-.77-1.156-.29-1.64-1.447-2.7-1.64-1.542-1.062-3.856-.868-5.11-1.736-1.06 0-1.156-.867-2.41-.965-3.375-1.832-7.812-1.832-11.38-2.604-5.208 0-9.933-1.06-15.235 0-1.736 0-3.28.676-4.822.966-.87.578-1.93.386-2.797.867-7.137 2.22-14.37 5.11-20.54 10.03-2.507 1.253-3.76 3.856-6.364 5.11-.58.386-.194-.482 0-.77 1.927-2.605 4.53-5.4 7.23-7.427 2.605-1.928 6.075-3.375 8.97-5.11 2.604-1.157 5.398-1.93 7.617-2.894 2.797-.192 3.375-1.928 6.268-1.64.58-.096 1.062-.48 2.12-.386.483-.385.87-.192 1.546-.482.868 0 1.833 0 2.894-.29 3.85-.188 8.673-.767 12.724.102zM854.427 1024.366c2.604.192 4.725 1.735 7.328 2.218 2.99 2.7 7.04 2.99 10.127 5.4 2.41.868 5.014 1.832 7.424 2.893.965.58 1.447.964 2.7 2.122 3.376-3.087 7.716-2.7 10.897-4.147 3.086-.87 5.98-1.93 9.064-3.086 2.99-1.157 6.172-1.736 9.45-2.508 1.255-1.062 3.087-1.062 4.63-1.64 2.12.097 2.988-3.28 4.63-1.736.095 0 1.444.675.577.965-3.568 3.278-8.97 2.216-12.633 4.82-3.374.77-6.653 1.06-9.353 2.99-1.832.288-3.568.964-5.11 1.83-2.026.483-3.954.098-5.497 1.062-1.158.097-1.93.965-3.184 1.35-.19.483-1.736 1.447-1.543 1.64.193.29 2.025-.192 2.314.193 4.438.58 7.523-.192 11.283.675 2.604-.193 5.98 0 8.582.482.29-.193 1.158 0 1.64-.193 2.894-.29 5.69-1.832 8.485-.675 1.736-.29 3.857-.965 5.594-.29.1.29.1.675 0 1.062-.77.964-2.12.674-3.18.867-4.534.29-9.16.482-13.5 1.35-2.124-.096-3.667.097-5.595-.675-4.533-1.255-9.258-1.06-13.887-.58-3.568-.192-7.617.387-11.475-.192-3.28-1.157-6.943-.578-10.898-1.157-1.06.966-2.314.388-3.182.29-.77-.482-1.928-.578-2.797-.192-2.893 1.446-4.533.482-6.557-.386 0 .386-1.642-.193-1.737-.386-.193-.867.676-1.253 1.35-1.543.58-.29 1.352 1.06 1.93.58 2.797.48 5.98.288 8.967 0 4.533.674 8.873.577 13.406.77.867.192 4.146.964 5.205-.387-1.54-.77-3.952-1.928-4.435-3.086-2.314-1.06-3.76-1.156-5.496-2.7-1.833.29-2.605-1.06-4.052-1.06-2.893-.868-5.4-3.28-8.486-4.244-1.734-.096-3.182-1.156-4.63-2.024-.095-.192-.866-.386-.866-.58-.29-.288.193-.866.193-1.06.87-.675 1.257 1.157 2.317.964zM925.402 1001.994c-.29 2.024.096 3.76.77 5.4-.095.48-.48.964-.77 1.06-1.254 1.833 1.156 5.112-2.025 6.076-1.06.29-2.217-.193-3.086.578-3.374 1.254-4.435.29-7.714.58-2.893.19-6.363-1.255-9.16 0-1.543 0-2.797-.58-4.146-.772-3.666 1.35-7.812-.675-11.67.29-2.795.19-5.014-.965-7.81.29-.58.095-1.062.095-1.544.288-5.69 0-11.57-.58-17.164.096-2.797 0-5.496-.096-8.006-1.446-.48-.386.098-.964.58-1.157.676 0 1.64-.192 2.7.675 2.024-.867 3.856.097 5.593-.29 1.446.387 3.085.483 4.628.098 3.28-1.93 6.75.29 10.125.192 3.28-.097 6.56-1.35 9.934-.964 3.47.482 7.52.77 11.09.385 1.156-.385 2.506.194 3.568-.19 1.06.19 2.506.095 3.47.77 1.35-.192 2.99-.48 4.34-.867.772.386 1.93.288 2.605.482 3.664.288 4.436.77 7.81-.386 2.22.77 1.353-1.543 3.28-2.025 1.254-.482.578-1.062.578-1.736-.29-1.542 1.254-2.7.578-4.05-.482-1.253-.096-2.893-1.06-4.242-.097-.386-.097-.868.386-.868 1.253-.29 1.446.962 2.12 1.734zM930.802 982.32c-.965 2.124-3.28 2.315-4.918 3.473-2.22 1.157-4.63 2.314-7.137 2.604-.674.386-1.64.482-2.41.578-6.46 1.157-12.73 3.762-19.48 3.953-4.63.965-9.738.482-14.754.387-4.146 0-9.45-1.156-13.598-2.99-2.023-.48-4.242-1.254-5.688-2.506-2.123-.58-3.762-2.124-5.594-3.28-.387-.676-.87-1.35-.87-2.025 0-.097-.095-.193-.095-.193 1.93.482 3.762 1.93 5.69 3.087 1.542.866 2.41 2.023 4.05 2.41 2.795.578 5.014 2.507 7.908 2.313 5.303 1.35 11.088 1.253 17.453.868-.966-2.217.673-3.085-.097-4.435.096-.58.19-.965.385-1.35.29-.29.482-.58.867-.29l.482.482c-.19.578.193.964.482 1.253-.29 1.254 0 2.508-.192 4.05 4.725.483 7.906-.867 11.764-1.06 1.64-.772 4.146-.965 6.172-1.544 1.832-.58 4.05-.58 5.787-1.64 1.446.193 3.085-.29 4.243-1.735 2.508.098 4.436-1.734 7.328-2.313v-.48c.483-.194 1.448-1.255 2.605-.87-.094.484-.19.87-.383 1.254zM930.32 969.4c.29.097.482.192.674.386-.867 2.22-3.47.965-5.496 1.543-1.734.288-3.375 0-5.11.096-4.726.097-9.45-.097-13.983 0-2.41 0-5.592.192-8.1-.097-1.64-.194-3.664 0-5.305.096-3.953.386-7.713 0-11.86.29-.192-.193-.386-.193-.58-.193-1.733.867-3.663.096-5.302.385-3.955.193-7.715.58-11.572.58-2.7-1.158-5.496.577-8.293-.098-.387-.096.578-1.156.867-1.156 4.242-2.894 9.16 1.156 13.887-.193 5.592-1.542 11.86-.964 17.357-1.253s10.705.193 16.297 0c1.544-.193 3.087-.193 4.728-.193.385 0 .867.097 1.254.097 4.242-.096 8.484-.096 12.246-.674 2.89.77 5.302.288 8.292.384zM867.35 942.015c1.06 0 2.603-.098 3.76-.193 2.798-1.735 7.136 0 10.415.386 2.025-1.157 5.4-.482 7.52-.675 3.087-.77 7.138.192 10.704.192 6.27 0 13.5-.192 19.77-.48.964-.098 1.93-.677 2.796-.29.096.096.193-.098.29-.098-2.218 1.447-4.92 1.543-7.138 2.508-3.182 2.797-6.846 4.242-10.22 6.365-4.052 1.832-8.198 3.182-11.862 5.98-1.158.577-2.22 1.253-3.375 1.83l-2.796 1.352 3.182.192c7.523.482 14.562-1.35 22.277-.29 3.084 0 5.98-1.253 8.97-.675.77-.098 1.733 0 2.41 0-.1.192 0 .578-.1.675-.77 0-1.444.192-2.12.674-.77.386-1.736.386-2.604.578-2.605.29-5.208-.097-7.812.482-7.04.192-13.887-.675-20.732.097-3.184-.58-6.365 1.06-9.45.193-2.026.482-4.63-.58-6.173.578-4.63-.482-9.162-1.254-13.982-1.254-1.06-.386-2.7 0-3.183-1.157-.096-.096.58-1.06.58-.578 5.207-1.352 9.643 1.734 15.62 1.06 3.087-.386 6.27 0 9.548-.965.965-1.35 2.412-1.253 3.473-2.12 1.928-.29 3.857-.772 5.11-2.123 4.92-2.41 9.933-3.278 13.886-6.846 1.158-.482 2.314-1.06 3.568-2.122 0-.29 2.797-1.544 2.797-1.832-.097-.192-2.99.482-2.99.097-3.76 0-7.233-.677-10.222.385-5.4-1.35-10.994-1.446-16.78-.194-4.145-.48-8.39-1.06-12.438-.287-3.375-1.446-7.137 1.542-10.223-1.157-.29-.868-1.832-.58-1.736-1.64 3.28-.58 6.077 1.25 9.26 1.35zM930.802 921.86c-.965 2.12-3.28 2.314-4.918 3.47-2.22 1.16-4.63 2.316-7.137 2.605-.674.386-1.64.48-2.41.578-6.46 1.157-12.73 3.76-19.48 3.954-4.63.965-9.738.482-14.754.386-4.146 0-9.45-1.157-13.598-2.99-2.023-.48-4.242-1.253-5.688-2.507-2.123-.578-3.762-2.12-5.594-3.278-.387-.675-.87-1.35-.87-2.025 0-.097-.095-.192-.095-.192 1.93.483 3.762 1.93 5.69 3.087 1.542.867 2.41 2.025 4.05 2.41 2.795.58 5.014 2.508 7.908 2.314 5.303 1.352 11.088 1.255 17.453.87-.966-2.22.673-3.087-.097-4.437.096-.58.19-.964.385-1.35.29-.29.482-.58.867-.29l.482.482c-.19.578.193.964.482 1.254-.29 1.252 0 2.505-.192 4.05 4.725.48 7.906-.87 11.764-1.063 1.64-.77 4.146-.964 6.172-1.542 1.832-.58 4.05-.58 5.787-1.64 1.446.193 3.085-.29 4.243-1.736 2.508.096 4.436-1.736 7.328-2.315v-.482c.483-.19 1.448-1.253 2.605-.867-.094.483-.19.868-.383 1.254zM921.062 900.356c-3.47 2.507-7.906 2.12-11.09 4.822-1.254.386-2.604 1.06-3.664 1.735-2.99-.097-6.076 1.832-10.125 3.664 2.604 1.062 4.53.77 5.883.386 5.688 0 10.703-.964 16.682-.097 1.64 0 3.664-.48 5.11.193 2.798.096 6.077-.676 8.487.674l.193.193c-2.025.578-4.63.385-6.654.29-1.736-.483-3.568.192-5.496.192-3.762.095-7.715-1.255-11.09.384-3.086.387-5.98-1.06-8.97 0-2.698.868-5.4-.482-7.907.77-4.628-.77-10.606.098-15.622-.77-5.688 0-11.475.387-17.066-.578-3.088-.097-4.34-.676-7.234-1.254-.096 0 .482-.675.482-.868 3.086-1.832 4.146-2.41 7.426-3.664 4.53-1.83 9.354-1.446 13.887-2.7 6.363.096 12.633.965 17.262 7.04 8.486-5.11 17.55-5.69 25.748-10.126 3.664-1.157 7.04-2.99 10.703-4.146.578 0 1.543-.386 2.22-.193-2.992 1.737-6.078 3.087-9.164 4.05zm-54.29 6.365c-1.255.387-2.798-.095-3.954.676-1.545-.192-2.99.676-4.244 1.158l-2.314 1.64c.867.096 4.242.385 5.207.578 1.254 1.253 3.47.675 5.016 1.06 7.135-.964 15.14.193 23.723-.19-1.254-1.545-2.508-1.93-3.184-2.605-1.35-1.352-5.11-2.797-7.617-3.857-4.34.577-8.97-.388-12.634 1.54zM923.472 889.073c0 .482-.674.77-1.06.868-1.446.965-3.472.098-5.015.87-.482 0-.867-.193-1.158-.483 0-.482.192-.674.386-.868 1.35-.387 2.7-2.605 4.34-.965 1.254-.097 1.832.193 2.506.578z"/></g><path d="M2048 0M2048 1536M0 1536M0 0" fill="none" stroke="#17192D" stroke-width="3"/></g></svg>