<svg xmlns="http://www.w3.org/2000/svg" width="2048" height="1536" viewBox="0 0 2048 1536"><g><g fill="#FF0050"><path d="M1422.325 1478.777c.77.386 1.543 0 2.41.19.676 0 1.157.194 1.735.58.096.482-.482.868-.77 1.35-.678.868-1.446-.48-1.64-.48-.193-.386-1.16.48-2.124-.965-1.928.58-3.664.58-5.014.192-2.7.29-5.69-.48-8.293.578-1.063.098-1.64 1.352-2.122 1.93-.1 0-.482 1.156-1.35 1.543-1.255 1.156-3.09 2.988-3.667 3.472-.478.482 0-.58-.865.386-.482.387-.29.578-.965 1.64-.867 1.062-2.604 2.894-2.988 3.375-.578 1.157-1.158 2.508-1.834 4.05 2.024 1.352 4.05.966 5.4 1.833 1.735.098 3.858.482 5.69.966 1.06-.868 1.833.192 2.603.192 1.063.578 2.7.48 3.954 1.062 2.41.385 4.53 1.83 7.232 1.35.965.192 2.12.58 3.086.868-.098.193-.193.387-.387.387-1.64.29-3.084-.58-4.53-.482-.388-.29-.677-.386-1.062-.29-.77-.096-1.543-.29-2.22-.29-1.543-.48-2.604.388-5.11-1.252 0 1.447.192.58.192.58-1.444-.386-3.473-.966-5.4-.868-1.155-.77-2.603-.482-3.76-.77-2.7-.29-4.532-1.353-7.137-1.158 0 0-.096-.098-.192-.098-.77-.48-1.64-.192-2.12-.675-5.884-1.64-11.862-3.277-17.745-4.918-1.35-.675-2.507-.964-3.952-1.542-1.93-.676-3.762-1.833-5.787-2.604-2.02-.77-3.952-2.024-6.267-2.7-.578-.29-1.543.193-1.543-.77 0-.29-.29-.967-.096-1.063.674-1.06 2.604-1.06 3.565-1.543 2.315-.192 5.593-.675 8.39-1.253 1.062-1.254 2.7-.29 3.953-.77 4.728.19 9.646-2.22 15.046-1.544 6.845-1.062 14.464-1.64 20.925-1.062 4.924.384 9.842-.096 14.76.577zm-29.22 1.64c-1.253-.482-3.183.675-5.11.29-2.313-.387-4.82.385-7.135.77-2.22-.386-3.955.965-6.174.77-1.444.192-3.856.192-5.785.58-3.18.577-6.075 1.444-9.738 1.734 1.446 1.64 4.05 2.8 4.436 2.895 2.025.675 3.664 1.833 5.498 2.41 2.797.965 5.207 1.93 7.812 2.7 1.832.48 4.244 1.06 5.883 1.35 1.833-.095 4.437 1.544 6.944 1.93 1.444.193.77.868 2.797.29.772-1.833 1.93-3.087 2.605-4.727.867-1.156 1.35-1.254 2.604-2.604.865-.868 1.732-2.22 2.697-3.473.87-.964 2.025-2.023 2.604-2.698 0-.193 1.16-1.447 1.16-2.218-1.354-.29-2.895-.29-3.764-.387-2.605-.38-4.63.004-7.33.39zM1421.938 1455.44c1.736 2.023 2.896 4.05 4.63 6.46.29 2.314 1.93 2.314 1.544 4.147-1.545 2.12-2.41 1.06-4.243 1.156-5.98-.77-13.022.48-18.807.868-5.207-.386-8.1.387-15.235.58-1.832.77-4.437.29-6.462 0-2.12.866-5.688.48-8.004-.193-7.715.964-14.078.192-21.6.578-.58-.096-1.447.386-1.062-.29 0-.096.1-.48.1-.577.19-.192.288-.48.48-.868-.098-.675-.192.29.29.29.866-1.062 1.25-2.99 2.698-2.99.77-1.062 1.543-1.64 2.41-1.93 1.736-1.64 2.7-3.085 5.016-3.085 3.953-3.182 8.97-2.796 13.5-2.796 4.533 1.542 8.293 3.952 12.15 8.967 1.64-1.832 1.543-4.34 2.604-4.82.677-1.64 1.93-2.99 3.474-4.63 3.084-2.12 5.785-2.508 9.063-3.76 3.763-2.605 7.812 1.252 11.572-.194 1.928.387 3.665 2.413 5.88 3.086zm-56.894 4.823c-2.12 2.796-4.05 1.253-5.787 5.11-.29.193-.578.386-1.06.096-3.665 1.64.29 1.832 1.83 1.928 3.185-1.06 4.728.193 7.908.1 3.28-1.063 7.04.384 10.512-.58 1.062-.29 1.832-.097 2.798-.097 2.12-.48 3.567.482 7.81 0-2.99-2.507-3.663-3.182-5.206-4.242-2.22-.966-4.245-2.507-6.27-3.664-4.34-.967-8.872-.194-12.536 1.35zm31.533-2.798c-2.604 2.508-3.566 4.244-6.076 9.45 2.702 0 4.052-.866 5.21-.48 4.822-2.024 9.258.867 14.27-.386 3.184-1.16 6.56 0 9.84-1.16 1.155.58 4.626.58 5.493.194.1-.193-.866-1.157-.578-2.41-1.35-1.93-2.604-4.05-3.663-6.365-2.12-.193-3.375-.58-4.82-1.446-3.088-.58-6.463-2.314-9.838-1.157s-6.653 2.12-9.837 3.758zM1426.376 1433.744c-.965 2.12-3.28 2.312-4.92 3.47-2.218 1.158-4.627 2.316-7.136 2.605-.676.385-1.64.48-2.41.576-6.46 1.157-12.73 3.762-19.48 3.954-4.628.964-9.74.48-14.753.386-4.146 0-9.45-1.156-13.598-2.988-2.024-.482-4.243-1.254-5.69-2.508-2.12-.58-3.76-2.12-5.592-3.278-.387-.676-.87-1.35-.87-2.025 0-.097-.095-.19-.095-.19 1.93.48 3.76 1.928 5.688 3.084 1.544.87 2.41 2.025 4.052 2.412 2.796.58 5.015 2.508 7.906 2.313 5.306 1.35 11.09 1.253 17.455.868-.965-2.218.674-3.086-.098-4.437.098-.578.192-.966.387-1.35.29-.29.48-.58.867-.29.19.192.29.29.48.48-.19.58.193.966.482 1.255-.29 1.255 0 2.508-.19 4.05 4.725.483 7.905-.866 11.764-1.06 1.64-.77 4.146-.964 6.172-1.542 1.832-.58 4.05-.58 5.785-1.64 1.446.19 3.086-.29 4.243-1.736 2.51.097 4.437-1.735 7.328-2.314v-.48c.482-.193 1.447-1.255 2.604-.868-.093.482-.19.867-.382 1.254zM1416.636 1412.24c-3.473 2.507-7.908 2.12-11.09 4.82-1.254.387-2.604 1.062-3.664 1.735-2.99-.096-6.076 1.833-10.125 3.665 2.602 1.062 4.53.77 5.88.386 5.69 0 10.706-.964 16.685-.097 1.642 0 3.664-.483 5.11.192 2.796.096 6.075-.677 8.487.675l.19.192c-2.025.577-4.628.385-6.654.288-1.734-.48-3.566.192-5.494.192-3.762.097-7.715-1.254-11.092.386-3.087.387-5.98-1.06-8.968 0-2.7.868-5.4-.48-7.907.77-4.63-.77-10.607.098-15.623-.77-5.69 0-11.476.387-17.068-.578-3.086-.097-4.34-.676-7.232-1.254-.096 0 .482-.675.482-.868 3.086-1.832 4.146-2.41 7.426-3.663 4.53-1.834 9.354-1.446 13.887-2.7 6.363.096 12.634.964 17.26 7.04 8.488-5.11 17.554-5.69 25.75-10.126 3.665-1.157 7.04-2.99 10.703-4.146.578 0 1.543-.386 2.218-.19-2.99 1.735-6.076 3.085-9.162 4.05zm-54.29 6.364c-1.255.387-2.798-.097-3.956.676-1.543-.192-2.99.676-4.242 1.156l-2.313 1.64c.867.098 4.242.387 5.207.58 1.254 1.253 3.47.675 5.016 1.06 7.136-.964 15.14.193 23.722-.19-1.252-1.544-2.507-1.93-3.183-2.605-1.35-1.35-5.11-2.796-7.62-3.855-4.34.575-8.968-.39-12.632 1.54zM1414.032 1366.145c3.76.966 6.46 4.146 10.223 5.305.578 1.06 1.83 1.64 2.41 2.7-.87.288-1.832-.578-2.604-.966-.675-.675-1.35-1.06-2.312-1.156-2.12-1.542-5.017-2.22-7.232-3.953-1.64-.58-4.05-.77-5.883-1.64-3.28-.193-6.56-.193-9.74.386-3.086.58-6.074 1.833-8.486 3.954-3.182 1.543-6.846 2.7-10.317 3.473-5.4 2.7-12.246 2.41-17.84.19-3.28 0-5.11-2.795-8.1-3.18-.867-.677-1.642-1.352-2.702-1.737-.577-.48-.288-1.253-.77-1.93 0-.19-.386.1-.192.194 1.35.096 2.798.675 3.953 1.253 5.11 3.954 11.956 4.146 18.128 5.497 4.34-.192 7.908-2.218 12.056-3.183 2.604-1.64 5.88-2.218 8.485-3.856 1.928-.192 3.47-2.41 5.495-1.93 4.34-1.542 9.45-1.542 13.6 0 .573.29 1.15.484 1.827.58zM1425.894 1352.45c.29.1.482.194.674.388-.866 2.218-3.47.964-5.496 1.542-1.733.29-3.375 0-5.108.1-4.728.095-9.45-.1-13.984 0-2.41 0-5.592.19-8.1-.1-1.64-.192-3.666 0-5.306.1-3.952.384-7.713 0-11.86.287-.19-.192-.385-.192-.578-.192-1.736.868-3.664.097-5.305.386-3.952.194-7.715.58-11.57.58-2.7-1.158-5.495.578-8.294-.098-.385-.097.58-1.156.87-1.156 4.24-2.894 9.16 1.156 13.886-.193 5.592-1.542 11.86-.964 17.357-1.253s10.7.193 16.296 0c1.543-.193 3.086-.193 4.727-.193.386 0 .867.098 1.252.098 4.244-.098 8.486-.098 12.248-.675 2.89.768 5.3.285 8.29.38zM1426.376 1333.455c-.965 2.12-3.28 2.313-4.92 3.472-2.218 1.157-4.627 2.314-7.136 2.604-.676.387-1.64.482-2.41.58-6.46 1.156-12.73 3.76-19.48 3.952-4.628.966-9.74.482-14.753.387-4.146 0-9.45-1.158-13.598-2.99-2.024-.482-4.243-1.253-5.69-2.507-2.12-.58-3.76-2.122-5.592-3.278-.387-.676-.87-1.35-.87-2.025 0-.097-.095-.192-.095-.192 1.93.482 3.76 1.93 5.688 3.086 1.544.868 2.41 2.025 4.052 2.41 2.796.58 5.015 2.508 7.906 2.314 5.306 1.35 11.09 1.254 17.455.867-.965-2.218.674-3.086-.098-4.436.098-.58.192-.965.387-1.352.29-.29.48-.58.867-.29.19.193.29.29.48.482-.19.578.193.964.482 1.254-.29 1.253 0 2.507-.19 4.05 4.725.482 7.905-.868 11.764-1.06 1.64-.772 4.146-.965 6.172-1.544 1.832-.58 4.05-.58 5.785-1.64 1.446.192 3.086-.29 4.243-1.735 2.51.097 4.437-1.736 7.328-2.314v-.48c.482-.192 1.447-1.254 2.604-.868-.093.482-.19.867-.382 1.253zM1420.976 1284.468c-.29 2.025.096 3.76.77 5.4-.098.48-.48.965-.77 1.062-1.254 1.832 1.156 5.11-2.025 6.075-1.06.29-2.218-.192-3.085.578-3.375 1.254-4.436.29-7.715.58-2.893.19-6.365-1.255-9.162 0-1.54 0-2.795-.58-4.146-.772-3.664 1.352-7.812-.674-11.668.29-2.795.192-5.015-.964-7.812.29-.578.097-1.06.097-1.543.288-5.69 0-11.572-.578-17.165.097-2.797 0-5.498-.097-8.006-1.445-.482-.387.098-.966.58-1.157.675 0 1.64-.192 2.698.675 2.025-.867 3.857.097 5.594-.29 1.445.387 3.086.483 4.63.1 3.278-1.93 6.75.287 10.124.19 3.28-.097 6.558-1.35 9.933-.964 3.472.48 7.52.77 11.09.386 1.157-.386 2.507.192 3.567-.192 1.06.192 2.508.097 3.473.77 1.35-.19 2.988-.48 4.34-.865.77.385 1.928.288 2.604.48 3.664.29 4.436.77 7.81-.386 2.218.77 1.35-1.543 3.28-2.024 1.254-.482.578-1.062.578-1.736-.29-1.543 1.254-2.7.578-4.05-.482-1.254-.097-2.894-1.062-4.243-.096-.386-.096-.867.387-.867 1.253-.294 1.445.96 2.12 1.73zM1431.39 1272.318c-.29.096-1.06.675-1.736.867-1.832.097-4.436.29-6.268.578-1.06-.386-3.086.387-4.146.097-5.11.48-10.224.77-16.01.676-1.06.675-2.986.192-4.145.192-5.4-.192-10.318-1.543-15.043-.868-3.375 0-7.232 1.255-10.8 0-2.51.387-6.174-.097-8.198.097-.096.097-.29.193-.385.29-5.018-.482-10.608.578-15.432.192-.387-.1-.87-.772-.192-.87 9.932-1.252 21.215-.77 31.727-1.252 2.314-.098 5.785.096 8.293-.388.1.098.193.193.29.29 3.76 0 7.23.482 10.8.77.29-.19.965-.097 1.158 0 5.785.194 12.535-.867 18.033-.674 3.182-1.543 6.557.675 9.448-1.157.386-.58 1.255-.29 1.736-.772 1.16.773 1.063 1.544.87 1.93zM1360.222 1255.153c1.447.19 2.412 1.64 4.05 1.64 3.087 1.542 5.98 2.314 9.74 2.507.58.29 1.544.386 2.218.578 2.123.193 4.052 1.158 6.076 1.158 1.254.385 2.99-.29 4.146 1.253 1.543-.387 2.7-.772 3.664-1.254.385-.772 1.446-1.736 1.35-2.798.676-1.06.098-1.93.58-3.278.578-1.832.578-2.893 1.543-4.82.478-.387.962-.772 1.542-.676.385.964 0 2.12 0 3.278-1.254 2.508-1.062 3.856-1.93 7.136.77.48.48.868.77 1.062 2.413.387 5.015.098 7.042-.386 1.252.192 2.312-.29 4.242-.29.385-1.156 1.254-.29 1.832-.578 3.47-.29 6.557-2.218 10.125-2.41 1.543-1.35 4.146-1.157 5.688-2.314 1.833.193 2.798-2.218 5.112-1.64 1.156-.867 2.22-1.93 3.664-1.93.387.29.77.58 1.158.965-.193 1.446-1.832 1.543-2.896 2.314-1.64.193-3.182.58-4.338 1.64-2.12-.096-3.377 1.736-5.4 1.64-.77.482-1.543.58-2.123.966-.77-.098-1.444.192-2.022.48-4.437 0-7.908 2.895-12.344 2.605-.577.387-1.64.387-2.22.482-4.724 1.64-10.22 1.35-15.042 1.254-2.217-.578-4.918 0-6.848-.965-5.98-1.06-11.765-3.47-17.453-5.014-2.7-1.06-5.207-2.7-7.715-4.05-2.797-1.544-6.076-2.604-8.1-5.4 0-.192 0-.48.19-.58 4.346 2.798 8.877 5.305 13.7 7.427zM1421.938 1227.38c1.736 2.026 2.896 4.052 4.63 6.463.29 2.313 1.93 2.313 1.544 4.146-1.545 2.12-2.41 1.06-4.243 1.154-5.98-.77-13.022.482-18.807.868-5.207-.386-8.1.387-15.235.58-1.832.77-4.437.288-6.462 0-2.12.867-5.688.48-8.004-.193-7.715.964-14.078.19-21.6.578-.58-.098-1.447.386-1.062-.29 0-.097.1-.48.1-.578.19-.192.288-.482.48-.868-.098-.676-.192.29.29.29.866-1.062 1.25-2.99 2.698-2.99.77-1.062 1.543-1.64 2.41-1.93 1.736-1.64 2.7-3.085 5.016-3.085 3.953-3.183 8.97-2.797 13.5-2.797 4.533 1.543 8.293 3.953 12.15 8.97 1.64-1.833 1.543-4.34 2.604-4.822.677-1.64 1.93-2.99 3.474-4.63 3.084-2.12 5.785-2.506 9.063-3.76 3.763-2.604 7.812 1.254 11.572-.192 1.928.386 3.665 2.41 5.88 3.085zm-56.894 4.823c-2.12 2.796-4.05 1.253-5.787 5.11-.29.192-.578.386-1.06.097-3.665 1.64.29 1.832 1.83 1.93 3.185-1.062 4.728.192 7.908.096 3.28-1.06 7.04.387 10.512-.578 1.062-.29 1.832-.098 2.798-.098 2.12-.48 3.567.482 7.81 0-2.99-2.507-3.663-3.182-5.206-4.242-2.22-.965-4.245-2.508-6.27-3.664-4.34-.965-8.872-.194-12.536 1.35zm31.533-2.797c-2.604 2.508-3.566 4.243-6.076 9.45 2.702 0 4.052-.867 5.21-.48 4.822-2.026 9.258.866 14.27-.387 3.184-1.16 6.56 0 9.84-1.16 1.155.58 4.626.58 5.493.194.1-.193-.866-1.157-.578-2.41-1.35-1.93-2.604-4.052-3.663-6.365-2.12-.193-3.375-.58-4.82-1.447-3.088-.578-6.463-2.313-9.838-1.156-3.376 1.156-6.653 2.12-9.837 3.76zM1426.376 1205.684c-.965 2.122-3.28 2.315-4.92 3.473-2.218 1.158-4.627 2.313-7.136 2.604-.676.388-1.64.483-2.41.58-6.46 1.156-12.73 3.76-19.48 3.953-4.628.964-9.74.48-14.753.386-4.146 0-9.45-1.157-13.598-2.99-2.024-.48-4.243-1.254-5.69-2.508-2.12-.578-3.76-2.122-5.592-3.277-.387-.677-.87-1.352-.87-2.025 0-.097-.095-.193-.095-.193 1.93.482 3.76 1.93 5.688 3.087 1.544.867 2.41 2.025 4.052 2.41 2.796.58 5.015 2.51 7.906 2.314 5.306 1.35 11.09 1.254 17.455.868-.965-2.218.674-3.086-.098-4.437.098-.58.192-.966.387-1.352.29-.29.48-.578.867-.29.19.193.29.29.48.482-.19.578.193.965.482 1.254-.29 1.254 0 2.508-.19 4.05 4.725.48 7.905-.867 11.764-1.06 1.64-.772 4.146-.965 6.172-1.544 1.832-.578 4.05-.578 5.785-1.64 1.446.193 3.086-.29 4.243-1.735 2.51.098 4.437-1.734 7.328-2.313v-.482c.482-.19 1.447-1.253 2.604-.866-.093.478-.19.864-.382 1.25zM1362.923 1177.72c1.06 0 2.604-.097 3.76-.192 2.797-1.735 7.137 0 10.416.386 2.022-1.157 5.4-.482 7.52-.675 3.086-.773 7.137.19 10.703.19 6.27 0 13.502-.19 19.77-.48.965-.098 1.928-.677 2.797-.29.096.097.19-.097.29-.097-2.218 1.446-4.92 1.543-7.138 2.508-3.183 2.798-6.846 4.243-10.22 6.364-4.053 1.833-8.198 3.184-11.862 5.98-1.158.578-2.22 1.253-3.375 1.83l-2.797 1.352 3.182.192c7.52.48 14.562-1.35 22.277-.29 3.084 0 5.977-1.253 8.967-.675.77-.097 1.736 0 2.412 0-.098.192 0 .58-.098.676-.77 0-1.447.19-2.12.674-.772.387-1.737.387-2.605.578-2.604.29-5.207-.096-7.81.482-7.042.192-13.89-.676-20.735.097-3.182-.578-6.363 1.063-9.45.194-2.023.48-4.628-.58-6.17.578-4.63-.482-9.163-1.253-13.982-1.253-1.062-.39-2.7 0-3.185-1.16-.095-.095.58-1.06.58-.577 5.206-1.352 9.644 1.736 15.622 1.06 3.086-.385 6.268 0 9.547-.963.964-1.35 2.41-1.254 3.47-2.122 1.93-.29 3.857-.77 5.11-2.12 4.92-2.41 9.935-3.28 13.888-6.848 1.156-.48 2.314-1.062 3.568-2.122 0-.29 2.797-1.543 2.797-1.832-.096-.19-2.99.482-2.99.098-3.76 0-7.23-.676-10.223.386-5.398-1.35-10.992-1.447-16.78-.193-4.145-.48-8.388-1.062-12.437-.288-3.375-1.447-7.136 1.542-10.224-1.158-.29-.868-1.83-.58-1.734-1.64 3.278-.58 6.073 1.25 9.257 1.348zM1409.788 1128.73c-.19-.097.87-.287 1.254-.19h.77c.58.19 1.352.48 1.932.385 1.35.58 2.698.29 3.856.868 2.314 1.06 5.4 2.025 7.906 4.146 1.543 1.64 3.568 2.312 5.11 3.76.29.866.677 1.254.482 2.024-1.543.097-2.313-2.12-3.76-2.7-1.062-.964-2.605-1.253-3.473-2.508-.193-.097-.578-.48-.77-.577-.194-.1-.29-.29-.29-.29-.098 0-.48-.193-.48-.29-.87-.868-1.16-.964-1.16-.578-.673-.193-1.155-.676-1.83-.58-.29-.096-.58-.288-.77-.577-1.157.193-1.446-.386-2.024-.482-1.06-.578-2.7 0-3.856-.386-.578.098-1.06-.48-1.735-.385-2.315-.676-3.28-.098-5.786.096-3.185 1.157-3.28.868-5.306 1.64-1.543.578-2.41.77-3.856 1.446-1.447.677-2.025 1.446-3.47 2.122-1.354.578-2.22.385-3.475.867-1.447.578-2.313 1.254-3.664 1.832-1.35.675-2.412.965-3.953 1.64-1.446.868-2.22 1.735-3.954 2.22-.48 0-1.156.096-1.64.096-.48-.096-1.06.097-1.35.097-.29.1-.77-.096-1.062-.19-1.735.577-2.7-.58-4.532-.388-1.736-.482-3.472-.676-5.498-1.352-1.93-1.062-4.437-1.542-6.558-2.988-2.217-1.157-4.436-2.894-6.073-5.016-.193-.29-.966-1.062-.29-.964 1.734.77 3.28 2.507 5.11 3.183 4.917 3.086 10.028 4.918 15.14 5.4.58.29 1.255 0 1.93.29.964 0 2.313.287 3.376.095 3.47.387 2.698-1.156 4.145-1.735 1.543-.578 2.506-.48 3.856-1.156.966-.578 1.446-1.255 2.605-1.735.963-.58 1.64-1.062 2.893-1.254 2.893-.29 2.99-.867 4.436-2.122.677-.386 1.062-.867 1.832-1.156.677-.58 1.255-.29 2.12-.58 1.16-.288 1.737-.674 2.897-1.06 1.06-.386 2.217-.868 2.797-.868 2.022-.867 3.182-.29 5.11-.482.578-.004 1.156.38 1.058.38zM1425.894 1116.292c.29.097.482.192.674.386-.866 2.22-3.47.965-5.496 1.543-1.733.29-3.375 0-5.108.1-4.728.095-9.45-.1-13.984 0-2.41 0-5.592.19-8.1-.1-1.64-.19-3.666 0-5.306.1-3.952.384-7.713 0-11.86.288-.19-.193-.385-.193-.578-.193-1.736.87-3.664.097-5.305.387-3.952.192-7.715.578-11.57.578-2.7-1.157-5.495.58-8.294-.096-.385-.1.58-1.158.87-1.158 4.24-2.893 9.16 1.158 13.886-.192 5.592-1.543 11.86-.965 17.357-1.254s10.7.193 16.296 0c1.543-.192 3.086-.192 4.727-.192.386 0 .867.097 1.252.097 4.244-.097 8.486-.097 12.248-.675 2.89.768 5.3.285 8.29.382zM1433.51 1095.367c1.255 1.06 0 .963-.192 1.35-5.397 4.725-12.92 3.76-18.707 7.52-4.145 1.544-8.58 2.122-12.632 3.087-3.182.097-6.074 1.445-9.063.868-.966.77-2.412 0-3.472.386-6.942 0-10.897-1.352-16.297-2.508-1.834.192-3.762-.387-5.21-1.64-2.505.29-4.532-.48-6.362-1.446-4.436-1.64-8.873-3.375-12.055-6.462 0 .098-.58-.192-.29-.386.77-.48 1.64.386 2.41.77 4.533.387 7.426 3.666 11.475 4.63 1.834.965 3.857.965 5.595 1.64 7.426 1.93 12.344 3.568 20.155 3.664.097 0 .29-.675.29.097 6.65-.386 12.342-1.93 18.417-2.604 6.172-1.93 12.345-4.147 18.515-6.076 1.64-1.06 3.567-1.93 5.69-2.7.578 0 1.64-1.06 1.93-.674.093.002.77.002-.196.484zM1421.456 1064.99c-1.156.868-2.7 1.445-3.855 2.41-4.726 1.35-9.835 2.605-14.946 2.605-3.666.578-7.426 1.35-10.994 2.218-1.928-.19-4.146-.578-6.362-.097-.29.77-.29 1.062-1.447 1.35 1.063 2.798 3.278 4.727 4.34 6.75.58.29 1.157 1.063.966 1.737-.387 1.157.19 1.157.867 1.832.867 0 1.64.096 2.41.48 2.024-.675 3.567-.675 5.207-.096 1.832 1.06 3.377.288 5.4 0 3.856-.58 7.52-1.448 11.477-1.64 3.086-.098 6.172-.098 9.45-.098.29.097.58.192.48.48 0 .29-.385.58-.674.676-4.822.29-9.45.482-13.694 1.833-3.184-.096-5.786.868-8.774.58-7.137-.676-14.658 0-21.408.867-2.99-.676-5.305.578-8.196.386-7.52-.58-15.334-.58-21.986-2.797-.965-.29-.482-1.06-.965-1.735.097-.288.58 0 .772-.096 2.314.482 4.34 1.543 6.654 1.446l.19.192c3.956-.192 7.62 1.062 11.09.868 2.605 1.445 5.5-.387 8.294.097 3.567.578 6.56-.675 10.03-1.157.48-.386 1.156-.77 1.83-1.543-1.155-3.086-4.725-5.015-5.108-7.52.48 0-.676-.772-.193-2.315-2.99-.868-5.4.29-7.62-.77-1.83-.483-3.663.48-5.592-.58-2.604 1.254-4.918.097-7.426.29-1.447-1.254-2.025 1.253-3.76.096-1.642.482-3.857.77-5.21 0 .1-.386.1-.675 0-1.06 1.447-.868 3.474.288 4.92-.868 2.12-.193 3.665.964 5.784.578 6.174-1.157 13.02.19 19.286-.193 4.34-.19 9.066.482 13.214-.964 6.557-1.06 13.403-1.928 19.575-3.182 1.542-.965 3.376-2.024 5.305-1.93.286.294.575.486.67.872zM1362.923 1011.566c1.06 0 2.604-.098 3.76-.192 2.797-1.736 7.137 0 10.416.386 2.022-1.158 5.4-.48 7.52-.676 3.086-.77 7.137.193 10.703.193 6.27 0 13.502-.193 19.77-.482.965-.097 1.928-.675 2.797-.29.096.097.19-.096.29-.096-2.218 1.444-4.92 1.542-7.138 2.506-3.183 2.797-6.846 4.243-10.22 6.365-4.053 1.833-8.198 3.183-11.862 5.98-1.158.578-2.22 1.254-3.375 1.832l-2.797 1.352 3.182.19c7.52.483 14.562-1.35 22.277-.288 3.084 0 5.977-1.254 8.967-.675.77-.096 1.736 0 2.412 0-.098.193 0 .58-.098.676-.77 0-1.447.192-2.12.676-.772.386-1.737.386-2.605.578-2.604.29-5.207-.097-7.81.48-7.042.193-13.89-.674-20.735.098-3.182-.578-6.363 1.062-9.45.193-2.023.483-4.628-.578-6.17.58-4.63-.483-9.163-1.255-13.982-1.255-1.062-.386-2.7 0-3.185-1.157-.095-.096.58-1.062.58-.578 5.206-1.35 9.644 1.735 15.622 1.062 3.086-.387 6.268 0 9.547-.965.964-1.35 2.41-1.254 3.47-2.12 1.93-.29 3.857-.772 5.11-2.122 4.92-2.41 9.935-3.28 13.888-6.848 1.156-.48 2.314-1.06 3.568-2.122 0-.29 2.797-1.543 2.797-1.832-.096-.192-2.99.482-2.99.098-3.76 0-7.23-.676-10.223.387-5.398-1.35-10.992-1.446-16.78-.193-4.145-.48-8.388-1.06-12.437-.29-3.375-1.444-7.136 1.544-10.224-1.155-.29-.87-1.83-.58-1.734-1.642 3.278-.58 6.073 1.252 9.257 1.348zM1425.894 998.065c.29.097.482.192.674.387-.866 2.218-3.47.964-5.496 1.542-1.733.29-3.375 0-5.108.097-4.728.098-9.45-.096-13.984 0-2.41 0-5.592.194-8.1-.096-1.64-.192-3.666 0-5.306.097-3.952.387-7.713 0-11.86.29-.19-.192-.385-.192-.578-.192-1.736.868-3.664.098-5.305.387-3.952.192-7.715.58-11.57.58-2.7-1.16-5.495.576-8.294-.1-.385-.096.58-1.155.87-1.155 4.24-2.894 9.16 1.156 13.886-.193 5.592-1.543 11.86-.964 17.357-1.253 5.494-.29 10.7.19 16.296 0 1.543-.193 3.086-.193 4.727-.193.386 0 .867.1 1.252.1 4.244-.1 8.486-.1 12.248-.677 2.89.77 5.3.287 8.29.382zM1436.405 970.487c-1.834 2.41-4.727 3.567-6.752 6.172-2.987 3.085-7.426 5.108-10.51 7.328-1.543.867-3.762 1.156-5.594 2.217-1.157 0-1.93.48-2.894.77 0-.096-.193 0-.29-.096-1.253.867-2.507 1.06-2.893 1.156 0 0-.387.578-1.157.29-3.763.77-6.654 2.023-10.414 1.928-4.34.77-9.55-.097-13.695-.48-1.06-.29-2.023-.387-2.988-.387-.58-.386-.966-.097-1.93-.868-.77.577-1.446-.098-1.93-.193-3.085.192-3.567-1.735-6.557-1.93-2.313-1.156-5.21-1.93-7.907-3.277-3.087-1.93-6.654-3.664-9.45-5.883s-5.497-4.532-7.428-7.426c-.19-.287-1.06-1.253-.288-.866 2.604 1.445 4.146 3.76 6.848 5.207 6.56 5.016 13.982 8.584 21.602 11.38.867.48 2.025.48 2.894 1.062 1.735.386 3.278 1.062 5.014 1.157 5.498 1.253 10.607.288 16.105.48 3.952-.676 8.774-.48 12.344-2.314 1.252 0 1.35-1.062 2.604-.867 1.446-.87 4.05-.677 5.69-1.833.963-.193 1.543-1.062 2.893-1.35.388-.676 1.156-.676 1.734-.965.965.096 1.352-1.062 2.315-1.64.482.288 1.062-.098 1.54-.58 0-.578.39-.48.678-.48.192-.193.48-.58.578-.868.192-.097.29-.097.676-.097 1.158-2.41 3.375-2.7 4.63-4.532 1.927-1.157 2.507-3.954 4.82-4.243.48.77-.097 1.35-.29 2.025zM1428.593 935.29c.098.29.098.675 0 .964-.578.29-.963.386-1.734.58-.482.096-.966.096-1.447.096-1.736.387-2.798.578-4.63 1.156-.385.194-.577.386-.963.58-.48 0-.676-.098-1.157-.098-2.025-.098-4.728.676-5.207.48-4.822.868-4.146 1.254-9.646 1.544-3.953.192-6.846.58-10.51.964 0 1.93-1.254 3.762-1.543 5.497-.098.964-.193 1.446-.387 2.41-.388 1.254-1.158 1.833-.965 3.183 0 2.7.192.868-1.35 3.568-.19.29-.29.675-1.35 2.12 2.312-.19 3.085-.385 4.145-.577 1.447.964 4.05.096 6.363.192 6.076.29 11.86-.58 17.36-.29 5.11.19 10.124-.77 14.656-.29.096.29.096.676.096 1.062-.388 2.314-3.086.58-4.146 1.062-4.822.386-9.258.386-14.658.386-6.557.193-13.114-.386-19.768.097-4.533.387-8.486-.29-12.635.482-7.04-1.158-14.175 2.312-21.118.674-1.736-.097-3.473.578-5.207.097-.87-.48-3.955-.19-2.314-1.542 5.4-.58 10.993.097 16.49-.097 8.102-.385 3.184-.77 5.305-.963 2.797-.29 4.436-.193 7.327-.193 2.604 0 4.052.29 6.85 0 .577-1.35.964-2.12 1.542-3.277 1.254-2.41.387.964.965-3.568.192-1.447.288-1.833.288-3.28 0-1.253.578-1.832.867-3.085.288-.868.192-1.832.385-3.472-1.252 0-1.637.097-2.217.097-2.025-.58-4.822 1.446-6.654-.29-2.315-.19-3.57-.385-5.497.387-1.35-.097-2.797-.288-4.533-.48-.385-.194-.963.288-1.35.288-1.543.868-2.508-1.64-3.953-.482-.676 0-1.35.675-2.025-.29-3.182.87-5.688.58-8.39-1.155-.868.387-1.253-.193-1.64-.676-.097-.097-.19-.29-.097-.48.29-.772.77.385.963.288 0 0 .58.48 1.158-.098.578-.48 1.062.77 1.642.482 3.663.87 7.616.87 11.38.387 3.663.868 9.062 0 12.534.868.866-.097 1.64-.77 2.99 0 1.155-1.254 2.603-.29 3.47-.867 4.437-.097 8.97-.48 13.404-.577 4.34 0 2.894-.677 6.172-1.157.677.19 1.736-.29 2.218.096 1.254-.192 2.412-.192 3.666-.386 2.604-.385 6.172-.578 8.483-1.157.388.192.87-.097 1.545-.868-.387-.868.675-.386.675-.58 1.062-.39 2.51.574 4.148.188zM1343.636 908.482c.193 1.64.867 2.796 1.158 4.53-.58 2.605-.1 4.92.867 8.102 1.35-.675 2.314-.48 2.798-.29 1.832-.19 4.146.29 5.98.193 1.735-.386 3.856-.578 5.59-.578 2.702-1.352 6.077-1.736 8.778-2.314 1.543.386 3.375 0 4.82.192 6.56 0 13.31-1.64 19.48-2.51 1.155.1 2.893-.19 3.952.1.193-.1.676-.1.77-.193 4.823-.192 8.682-.29 13.5-.29 2.22 0 4.15.386 6.174.483h-.097c-2.508 1.83-5.98 1.156-8.68 1.734-3.953-.965-8.1 1.062-12.342-.578-2.508 2.604-5.498.578-8.103 1.446-2.41-.29-5.305-.192-7.328 1.062-.965-.098-1.834.29-3.184-.193-2.313 1.35-5.207.675-7.617.675-3.952-.87-7.136 1.735-10.896 1.253-2.7 1.352-5.785 1.157-8.87 1.157-.964-1.06-2.51-.097-4.438-2.218-.674 4.243-.288 6.75-.48 9.354.48 2.026-.29 4.244 0 6.463-.097.098-.097.192-.192.29-.772-.098-.965-.966-1.256-1.544.58-1.93.482-3.857 0-5.786-.385-.482 0-1.35.098-2.314-1.06-1.446-.192-3.567-.965-4.918.483-1.543-.19-3.184-.095-4.727-.867-1.543.29-3.566-.578-5.11 0-1.35-1.834-2.7-.29-3.76.097-.1.29-.193.48-.29.39.095.873.19.97.577zM1419.046 900.768c0 .482-.674.77-1.062.867-1.444.965-3.47.098-5.014.868-.482 0-.867-.193-1.158-.48 0-.482.193-.677.388-.868 1.35-.387 2.698-2.604 4.34-.965 1.252-.097 1.832.19 2.506.578z"/></g><path d="M2048 0M2048 1536M0 1536M0 0" fill="none" stroke="#17192D" stroke-width="3"/></g></svg>