<?xml version="1.0" encoding="iso-8859-1"?>
<!-- Generator: Adobe Illustrator 15.1.0, SVG Export Plug-In . SVG Version: 6.00 Build 0)  -->
<!DOCTYPE svg PUBLIC "-//W3C//DTD SVG 1.1//EN" "http://www.w3.org/Graphics/SVG/1.1/DTD/svg11.dtd">
<svg version="1.1" xmlns="http://www.w3.org/2000/svg" xmlns:xlink="http://www.w3.org/1999/xlink" x="0px" y="0px" width="2048px"
	 height="1536px" viewBox="0 0 2048 1536" style="enable-background:new 0 0 2048 1536;" xml:space="preserve">
<g id="dtxtb_x5F_3">
	<g>
		<path style="fill:#FF0050;" d="M1310.314,1478.777c0.771,0.386,1.543,0,2.41,0.192c0.676,0,1.158,0.193,1.736,0.579
			c0.096,0.482-0.482,0.868-0.771,1.35c-0.676,0.868-1.445-0.481-1.639-0.481c-0.193-0.386-1.158,0.481-2.123-0.965
			c-1.928,0.579-3.664,0.579-5.014,0.193c-2.701,0.289-5.689-0.482-8.293,0.578c-1.061,0.097-1.639,1.351-2.121,1.929
			c-0.098,0-0.482,1.157-1.35,1.543c-1.254,1.157-3.088,2.989-3.666,3.472c-0.48,0.482,0-0.579-0.867,0.386
			c-0.482,0.386-0.289,0.578-0.965,1.639c-0.867,1.062-2.604,2.894-2.988,3.375c-0.578,1.158-1.158,2.508-1.834,4.051
			c2.025,1.351,4.051,0.965,5.402,1.832c1.734,0.097,3.857,0.482,5.688,0.965c1.062-0.868,1.834,0.192,2.605,0.192
			c1.061,0.579,2.699,0.482,3.953,1.062c2.41,0.385,4.531,1.831,7.232,1.35c0.965,0.192,2.121,0.579,3.086,0.868
			c-0.098,0.193-0.193,0.386-0.387,0.386c-1.639,0.289-3.084-0.579-4.531-0.482c-0.387-0.29-0.676-0.386-1.061-0.29
			c-0.771-0.096-1.543-0.289-2.219-0.289c-1.543-0.481-2.604,0.387-5.111-1.253c0,1.446,0.193,0.578,0.193,0.578
			c-1.445-0.385-3.473-0.965-5.4-0.867c-1.156-0.771-2.604-0.482-3.76-0.771c-2.701-0.29-4.533-1.351-7.137-1.157
			c0,0-0.096-0.098-0.193-0.098c-0.771-0.481-1.639-0.192-2.121-0.674c-5.883-1.64-11.861-3.279-17.744-4.919
			c-1.35-0.675-2.508-0.964-3.953-1.542c-1.93-0.676-3.762-1.833-5.787-2.604c-2.023-0.771-3.953-2.024-6.268-2.7
			c-0.578-0.289-1.543,0.193-1.543-0.771c0-0.29-0.289-0.965-0.096-1.062c0.674-1.061,2.604-1.061,3.566-1.543
			c2.316-0.192,5.594-0.675,8.391-1.253c1.061-1.254,2.701-0.29,3.953-0.772c4.727,0.193,9.645-2.218,15.045-1.543
			c6.846-1.061,14.465-1.639,20.926-1.061C1300.479,1478.584,1305.396,1478.103,1310.314,1478.777z M1281.096,1480.417
			c-1.254-0.482-3.184,0.675-5.111,0.289c-2.314-0.386-4.822,0.386-7.135,0.771c-2.219-0.386-3.955,0.964-6.174,0.771
			c-1.445,0.192-3.857,0.192-5.785,0.578c-3.182,0.578-6.076,1.446-9.74,1.736c1.447,1.639,4.051,2.797,4.436,2.893
			c2.025,0.675,3.664,1.833,5.498,2.411c2.797,0.964,5.207,1.929,7.811,2.699c1.832,0.482,4.244,1.062,5.883,1.351
			c1.832-0.096,4.436,1.543,6.943,1.929c1.445,0.193,0.77,0.868,2.797,0.289c0.771-1.832,1.928-3.086,2.604-4.725
			c0.867-1.157,1.35-1.254,2.604-2.604c0.867-0.868,1.734-2.219,2.699-3.473c0.869-0.964,2.025-2.024,2.604-2.699
			c0-0.193,1.158-1.447,1.158-2.218c-1.352-0.29-2.893-0.29-3.762-0.386C1285.82,1479.646,1283.795,1480.031,1281.096,1480.417z"/>
		<path style="fill:#FF0050;" d="M1309.928,1455.44c1.736,2.024,2.895,4.05,4.629,6.461c0.291,2.314,1.93,2.314,1.545,4.147
			c-1.545,2.121-2.412,1.06-4.244,1.156c-5.979-0.771-13.02,0.482-18.805,0.868c-5.207-0.386-8.1,0.386-15.236,0.578
			c-1.832,0.771-4.436,0.29-6.461,0c-2.121,0.868-5.689,0.482-8.004-0.192c-7.715,0.964-14.078,0.192-21.6,0.578
			c-0.58-0.096-1.447,0.386-1.062-0.289c0-0.097,0.098-0.481,0.098-0.578c0.191-0.193,0.289-0.482,0.482-0.868
			c-0.098-0.675-0.193,0.289,0.289,0.289c0.867-1.061,1.252-2.989,2.699-2.989c0.771-1.062,1.543-1.64,2.41-1.929
			c1.736-1.64,2.701-3.086,5.016-3.086c3.953-3.182,8.969-2.796,13.5-2.796c4.533,1.543,8.293,3.953,12.15,8.968
			c1.639-1.832,1.543-4.34,2.604-4.821c0.676-1.64,1.93-2.99,3.473-4.629c3.084-2.121,5.785-2.508,9.064-3.761
			c3.762-2.604,7.811,1.253,11.572-0.193C1305.975,1452.74,1307.711,1454.766,1309.928,1455.44z M1253.033,1460.263
			c-2.121,2.796-4.051,1.253-5.787,5.11c-0.289,0.193-0.578,0.386-1.059,0.096c-3.666,1.64,0.289,1.833,1.83,1.929
			c3.184-1.06,4.727,0.193,7.908,0.098c3.279-1.062,7.039,0.385,10.512-0.579c1.061-0.289,1.832-0.097,2.797-0.097
			c2.121-0.481,3.568,0.482,7.811,0c-2.99-2.507-3.664-3.182-5.207-4.243c-2.219-0.965-4.244-2.507-6.268-3.664
			C1261.23,1457.947,1256.697,1458.72,1253.033,1460.263z M1284.566,1457.465c-2.604,2.508-3.566,4.244-6.076,9.451
			c2.701,0,4.051-0.867,5.209-0.482c4.822-2.024,9.258,0.868,14.271-0.385c3.182-1.158,6.559,0,9.838-1.158
			c1.156,0.578,4.627,0.578,5.494,0.193c0.098-0.193-0.867-1.157-0.578-2.411c-1.35-1.929-2.604-4.05-3.664-6.364
			c-2.121-0.193-3.375-0.579-4.82-1.446c-3.088-0.579-6.463-2.314-9.838-1.157S1287.75,1455.826,1284.566,1457.465z"/>
		<path style="fill:#FF0050;" d="M1314.365,1433.744c-0.965,2.121-3.279,2.313-4.92,3.471c-2.217,1.157-4.627,2.315-7.135,2.604
			c-0.676,0.386-1.639,0.481-2.41,0.578c-6.461,1.157-12.73,3.761-19.48,3.954c-4.629,0.964-9.74,0.481-14.754,0.385
			c-4.146,0-9.451-1.156-13.598-2.988c-2.023-0.482-4.242-1.254-5.689-2.508c-2.121-0.579-3.76-2.121-5.592-3.278
			c-0.387-0.676-0.869-1.351-0.869-2.025c0-0.097-0.096-0.192-0.096-0.192c1.93,0.481,3.76,1.929,5.689,3.085
			c1.543,0.868,2.41,2.025,4.051,2.411c2.795,0.579,5.014,2.508,7.906,2.314c5.305,1.35,11.09,1.253,17.455,0.868
			c-0.965-2.218,0.674-3.086-0.098-4.437c0.098-0.578,0.193-0.965,0.387-1.35c0.289-0.289,0.482-0.579,0.867-0.289
			c0.193,0.192,0.291,0.289,0.482,0.481c-0.191,0.579,0.193,0.965,0.482,1.254c-0.289,1.254,0,2.507-0.191,4.05
			c4.725,0.482,7.906-0.867,11.764-1.061c1.639-0.771,4.146-0.964,6.172-1.542c1.832-0.58,4.049-0.58,5.785-1.64
			c1.447,0.192,3.086-0.289,4.244-1.736c2.508,0.097,4.436-1.735,7.328-2.314c0-0.771,0-0.482,0-0.482
			c0.482-0.192,1.447-1.253,2.604-0.867C1314.654,1432.972,1314.557,1433.357,1314.365,1433.744z"/>
		<path style="fill:#FF0050;" d="M1304.625,1412.24c-3.473,2.507-7.908,2.121-11.09,4.821c-1.254,0.386-2.604,1.061-3.664,1.735
			c-2.99-0.096-6.076,1.833-10.125,3.665c2.602,1.061,4.531,0.771,5.881,0.386c5.689,0,10.705-0.964,16.684-0.097
			c1.641,0,3.664-0.482,5.111,0.193c2.795,0.096,6.074-0.676,8.486,0.675c0.096,0.096,0.096,0.096,0.193,0.193
			c-2.027,0.578-4.629,0.385-6.656,0.289c-1.734-0.482-3.566,0.192-5.494,0.192c-3.762,0.097-7.715-1.254-11.092,0.386
			c-3.086,0.386-5.979-1.061-8.967,0c-2.701,0.868-5.402-0.482-7.908,0.771c-4.629-0.771-10.607,0.097-15.623-0.771
			c-5.689,0-11.475,0.386-17.068-0.578c-3.086-0.097-4.34-0.676-7.232-1.254c-0.096,0,0.482-0.675,0.482-0.868
			c3.086-1.832,4.146-2.411,7.426-3.664c4.531-1.833,9.354-1.446,13.887-2.7c6.363,0.096,12.633,0.964,17.26,7.039
			c8.488-5.11,17.553-5.689,25.748-10.125c3.666-1.157,7.041-2.989,10.705-4.146c0.578,0,1.543-0.387,2.217-0.193
			C1310.797,1409.925,1307.711,1411.275,1304.625,1412.24z M1250.334,1418.604c-1.254,0.386-2.797-0.097-3.955,0.675
			c-1.543-0.192-2.99,0.676-4.242,1.157l-2.314,1.64c0.867,0.097,4.242,0.386,5.207,0.578c1.254,1.254,3.471,0.676,5.016,1.061
			c7.135-0.964,15.139,0.193,23.721-0.192c-1.252-1.543-2.506-1.929-3.182-2.604c-1.35-1.351-5.111-2.797-7.619-3.857
			C1258.627,1417.64,1253.998,1416.676,1250.334,1418.604z"/>
		<path style="fill:#FF0050;" d="M1302.021,1366.145c3.76,0.965,6.461,4.146,10.223,5.304c0.578,1.061,1.83,1.64,2.41,2.7
			c-0.869,0.289-1.832-0.578-2.604-0.965c-0.676-0.675-1.352-1.06-2.314-1.157c-2.121-1.542-5.016-2.218-7.232-3.953
			c-1.641-0.579-4.051-0.771-5.883-1.64c-3.279-0.193-6.559-0.193-9.74,0.386c-3.086,0.579-6.074,1.832-8.486,3.954
			c-3.182,1.543-6.846,2.7-10.318,3.472c-5.4,2.7-12.246,2.411-17.84,0.192c-3.279,0-5.109-2.796-8.1-3.182
			c-0.867-0.676-1.641-1.351-2.701-1.736c-0.578-0.482-0.289-1.253-0.771-1.929c0-0.192-0.385,0.097-0.191,0.193
			c1.35,0.096,2.797,0.675,3.953,1.253c5.111,3.954,11.957,4.146,18.129,5.497c4.34-0.192,7.908-2.218,12.055-3.183
			c2.604-1.639,5.881-2.218,8.486-3.857c1.928-0.192,3.471-2.41,5.496-1.929c4.34-1.543,9.451-1.543,13.598,0
			C1300.768,1365.855,1301.346,1366.048,1302.021,1366.145z"/>
		<path style="fill:#FF0050;" d="M1313.883,1352.451c0.289,0.098,0.482,0.193,0.674,0.387c-0.867,2.218-3.471,0.964-5.496,1.542
			c-1.734,0.29-3.375,0-5.109,0.098c-4.727,0.096-9.451-0.098-13.984,0c-2.41,0-5.592,0.192-8.1-0.098
			c-1.639-0.192-3.666,0-5.305,0.098c-3.953,0.385-7.713,0-11.861,0.289c-0.191-0.193-0.385-0.193-0.578-0.193
			c-1.736,0.868-3.664,0.097-5.305,0.386c-3.953,0.193-7.715,0.579-11.572,0.579c-2.699-1.158-5.494,0.578-8.293-0.097
			c-0.385-0.097,0.58-1.157,0.869-1.157c4.242-2.893,9.16,1.157,13.887-0.193c5.592-1.542,11.861-0.964,17.357-1.253
			s10.703,0.193,16.297,0c1.543-0.193,3.086-0.193,4.727-0.193c0.385,0,0.867,0.097,1.252,0.097
			c4.244-0.097,8.486-0.097,12.248-0.675C1308.482,1352.838,1310.893,1352.355,1313.883,1352.451z"/>
		<path style="fill:#FF0050;" d="M1314.365,1333.455c-0.965,2.121-3.279,2.314-4.92,3.472c-2.217,1.157-4.627,2.314-7.135,2.604
			c-0.676,0.386-1.639,0.482-2.41,0.579c-6.461,1.157-12.73,3.761-19.48,3.953c-4.629,0.965-9.74,0.482-14.754,0.386
			c-4.146,0-9.451-1.157-13.598-2.989c-2.023-0.482-4.242-1.253-5.689-2.507c-2.121-0.579-3.76-2.122-5.592-3.278
			c-0.387-0.676-0.869-1.351-0.869-2.026c0-0.096-0.096-0.192-0.096-0.192c1.93,0.482,3.76,1.929,5.689,3.086
			c1.543,0.868,2.41,2.025,4.051,2.411c2.795,0.578,5.014,2.507,7.906,2.314c5.305,1.35,11.09,1.253,17.455,0.867
			c-0.965-2.218,0.674-3.086-0.098-4.436c0.098-0.579,0.193-0.964,0.387-1.35c0.289-0.29,0.482-0.579,0.867-0.29
			c0.193,0.193,0.291,0.29,0.482,0.482c-0.191,0.578,0.193,0.964,0.482,1.254c-0.289,1.253,0,2.507-0.191,4.05
			c4.725,0.482,7.906-0.868,11.764-1.061c1.639-0.771,4.146-0.964,6.172-1.543c1.832-0.579,4.049-0.579,5.785-1.64
			c1.447,0.193,3.086-0.289,4.244-1.735c2.508,0.097,4.436-1.736,7.328-2.314c0-0.771,0-0.482,0-0.482
			c0.482-0.192,1.447-1.254,2.604-0.868C1314.654,1332.684,1314.557,1333.069,1314.365,1333.455z"/>
		<path style="fill:#FF0050;" d="M1308.965,1284.468c-0.289,2.025,0.096,3.761,0.771,5.4c-0.098,0.482-0.482,0.965-0.771,1.062
			c-1.254,1.832,1.156,5.11-2.025,6.075c-1.061,0.289-2.219-0.193-3.086,0.578c-3.375,1.254-4.436,0.289-7.715,0.579
			c-2.893,0.192-6.365-1.254-9.162,0c-1.541,0-2.795-0.579-4.146-0.771c-3.664,1.35-7.811-0.675-11.668,0.289
			c-2.795,0.192-5.014-0.964-7.811,0.289c-0.578,0.097-1.061,0.097-1.543,0.289c-5.689,0-11.572-0.578-17.164,0.097
			c-2.797,0-5.498-0.097-8.006-1.446c-0.482-0.386,0.098-0.965,0.58-1.157c0.676,0,1.639-0.192,2.699,0.675
			c2.025-0.867,3.857,0.097,5.594-0.289c1.445,0.386,3.086,0.482,4.629,0.097c3.279-1.929,6.75,0.289,10.125,0.192
			c3.279-0.097,6.557-1.35,9.932-0.964c3.473,0.481,7.523,0.771,11.092,0.386c1.156-0.386,2.506,0.192,3.566-0.193
			c1.061,0.193,2.508,0.097,3.473,0.771c1.35-0.192,2.988-0.482,4.34-0.867c0.771,0.385,1.928,0.289,2.604,0.481
			c3.664,0.289,4.436,0.771,7.811-0.386c2.217,0.771,1.35-1.543,3.279-2.024c1.254-0.482,0.578-1.062,0.578-1.736
			c-0.289-1.543,1.254-2.7,0.578-4.05c-0.482-1.254-0.096-2.894-1.061-4.243c-0.096-0.386-0.096-0.868,0.387-0.868
			C1308.098,1282.443,1308.289,1283.697,1308.965,1284.468z"/>
		<path style="fill:#FF0050;" d="M1319.379,1272.318c-0.289,0.096-1.061,0.675-1.736,0.868c-1.832,0.096-4.436,0.289-6.268,0.578
			c-1.061-0.386-3.086,0.386-4.146,0.096c-5.111,0.482-10.223,0.772-16.008,0.676c-1.061,0.675-2.988,0.193-4.146,0.193
			c-5.4-0.193-10.318-1.543-15.043-0.869c-3.375,0-7.232,1.255-10.801,0c-2.508,0.387-6.172-0.096-8.197,0.097
			c-0.096,0.097-0.289,0.193-0.385,0.29c-5.016-0.482-10.607,0.578-15.43,0.192c-0.387-0.097-0.869-0.771-0.193-0.868
			c9.932-1.253,21.215-0.771,31.727-1.253c2.314-0.097,5.785,0.096,8.293-0.387c0.098,0.097,0.193,0.193,0.289,0.29
			c3.762,0,7.232,0.482,10.801,0.771c0.289-0.192,0.965-0.097,1.158,0c5.785,0.193,12.535-0.868,18.033-0.675
			c3.182-1.543,6.557,0.675,9.449-1.157c0.385-0.579,1.254-0.289,1.736-0.771
			C1319.668,1271.161,1319.572,1271.932,1319.379,1272.318z"/>
		<path style="fill:#FF0050;" d="M1248.211,1255.153c1.447,0.192,2.412,1.64,4.051,1.64c3.086,1.542,5.979,2.314,9.74,2.507
			c0.578,0.289,1.543,0.386,2.217,0.578c2.123,0.193,4.051,1.158,6.076,1.158c1.254,0.385,2.99-0.29,4.146,1.253
			c1.543-0.386,2.701-0.771,3.664-1.253c0.385-0.772,1.447-1.736,1.35-2.798c0.676-1.06,0.098-1.928,0.58-3.278
			c0.578-1.832,0.578-2.893,1.543-4.821c0.48-0.386,0.963-0.771,1.543-0.675c0.385,0.964,0,2.121,0,3.278
			c-1.254,2.508-1.062,3.857-1.93,7.136c0.771,0.482,0.482,0.868,0.771,1.062c2.412,0.386,5.014,0.097,7.041-0.386
			c1.252,0.192,2.312-0.29,4.242-0.29c0.385-1.156,1.254-0.289,1.832-0.578c3.471-0.289,6.557-2.218,10.125-2.411
			c1.543-1.35,4.146-1.157,5.689-2.314c1.832,0.193,2.797-2.218,5.111-1.639c1.156-0.868,2.219-1.929,3.664-1.929
			c0.387,0.289,0.771,0.578,1.158,0.964c-0.193,1.446-1.832,1.543-2.895,2.314c-1.639,0.193-3.182,0.579-4.338,1.64
			c-2.121-0.097-3.377,1.735-5.4,1.639c-0.771,0.482-1.543,0.579-2.123,0.965c-0.771-0.097-1.445,0.193-2.023,0.482
			c-4.436,0-7.908,2.893-12.344,2.604c-0.578,0.386-1.641,0.386-2.219,0.482c-4.725,1.639-10.221,1.35-15.043,1.253
			c-2.217-0.578-4.918,0-6.848-0.964c-5.979-1.061-11.764-3.472-17.453-5.015c-2.701-1.061-5.207-2.7-7.715-4.05
			c-2.797-1.544-6.076-2.604-8.1-5.4c0-0.193,0-0.482,0.191-0.579C1238.857,1250.524,1243.389,1253.031,1248.211,1255.153z"/>
		<path style="fill:#FF0050;" d="M1309.928,1227.381c1.736,2.025,2.895,4.051,4.629,6.462c0.291,2.313,1.93,2.313,1.545,4.146
			c-1.545,2.121-2.412,1.061-4.244,1.156c-5.979-0.771-13.02,0.482-18.805,0.868c-5.207-0.386-8.1,0.386-15.236,0.579
			c-1.832,0.771-4.436,0.289-6.461,0c-2.121,0.868-5.689,0.481-8.004-0.193c-7.715,0.965-14.078,0.193-21.6,0.579
			c-0.58-0.097-1.447,0.386-1.062-0.29c0-0.096,0.098-0.481,0.098-0.578c0.191-0.192,0.289-0.482,0.482-0.868
			c-0.098-0.675-0.193,0.29,0.289,0.29c0.867-1.062,1.252-2.99,2.699-2.99c0.771-1.061,1.543-1.64,2.41-1.929
			c1.736-1.639,2.701-3.086,5.016-3.086c3.953-3.182,8.969-2.796,13.5-2.796c4.533,1.543,8.293,3.953,12.15,8.968
			c1.639-1.832,1.543-4.339,2.604-4.821c0.676-1.64,1.93-2.989,3.473-4.629c3.084-2.121,5.785-2.507,9.064-3.761
			c3.762-2.604,7.811,1.254,11.572-0.192C1305.975,1224.682,1307.711,1226.706,1309.928,1227.381z M1253.033,1232.203
			c-2.121,2.796-4.051,1.253-5.787,5.11c-0.289,0.193-0.578,0.386-1.059,0.097c-3.666,1.64,0.289,1.832,1.83,1.929
			c3.184-1.061,4.727,0.193,7.908,0.097c3.279-1.061,7.039,0.386,10.512-0.579c1.061-0.289,1.832-0.097,2.797-0.097
			c2.121-0.481,3.568,0.482,7.811,0c-2.99-2.507-3.664-3.182-5.207-4.242c-2.219-0.965-4.244-2.508-6.268-3.665
			C1261.23,1229.889,1256.697,1230.66,1253.033,1232.203z M1284.566,1229.406c-2.604,2.508-3.566,4.243-6.076,9.45
			c2.701,0,4.051-0.867,5.209-0.481c4.822-2.025,9.258,0.867,14.271-0.386c3.182-1.158,6.559,0,9.838-1.158
			c1.156,0.579,4.627,0.579,5.494,0.193c0.098-0.193-0.867-1.157-0.578-2.411c-1.35-1.929-2.604-4.05-3.664-6.364
			c-2.121-0.192-3.375-0.578-4.82-1.446c-3.088-0.578-6.463-2.314-9.838-1.157S1287.75,1227.767,1284.566,1229.406z"/>
		<path style="fill:#FF0050;" d="M1314.365,1205.684c-0.965,2.122-3.279,2.315-4.92,3.472c-2.217,1.158-4.627,2.314-7.135,2.604
			c-0.676,0.386-1.639,0.482-2.41,0.578c-6.461,1.157-12.73,3.762-19.48,3.954c-4.629,0.964-9.74,0.481-14.754,0.386
			c-4.146,0-9.451-1.157-13.598-2.989c-2.023-0.482-4.242-1.254-5.689-2.508c-2.121-0.578-3.76-2.122-5.592-3.278
			c-0.387-0.676-0.869-1.351-0.869-2.025c0-0.097-0.096-0.193-0.096-0.193c1.93,0.482,3.76,1.929,5.689,3.086
			c1.543,0.868,2.41,2.026,4.051,2.411c2.795,0.579,5.014,2.508,7.906,2.314c5.305,1.35,11.09,1.254,17.455,0.868
			c-0.965-2.218,0.674-3.086-0.098-4.436c0.098-0.579,0.193-0.965,0.387-1.351c0.289-0.289,0.482-0.578,0.867-0.289
			c0.193,0.192,0.291,0.289,0.482,0.481c-0.191,0.579,0.193,0.965,0.482,1.254c-0.289,1.254,0,2.508-0.191,4.051
			c4.725,0.481,7.906-0.868,11.764-1.062c1.639-0.771,4.146-0.964,6.172-1.543c1.832-0.578,4.049-0.578,5.785-1.639
			c1.447,0.192,3.086-0.29,4.244-1.736c2.508,0.097,4.436-1.735,7.328-2.314c0-0.771,0-0.482,0-0.482
			c0.482-0.192,1.447-1.253,2.604-0.867C1314.654,1204.912,1314.557,1205.298,1314.365,1205.684z"/>
		<path style="fill:#FF0050;" d="M1250.912,1177.72c1.061,0,2.604-0.097,3.76-0.193c2.797-1.735,7.137,0,10.416,0.386
			c2.023-1.157,5.4-0.482,7.521-0.675c3.086-0.772,7.137,0.192,10.703,0.192c6.27,0,13.502-0.192,19.77-0.482
			c0.965-0.096,1.928-0.675,2.797-0.289c0.096,0.097,0.191-0.096,0.289-0.096c-2.217,1.446-4.918,1.542-7.137,2.507
			c-3.182,2.797-6.846,4.243-10.221,6.364c-4.051,1.833-8.197,3.183-11.861,5.979c-1.158,0.579-2.219,1.254-3.375,1.832
			l-2.797,1.351l3.182,0.192c7.521,0.482,14.562-1.35,22.277-0.289c3.084,0,5.977-1.254,8.967-0.676c0.771-0.096,1.736,0,2.412,0
			c-0.098,0.193,0,0.579-0.098,0.676c-0.771,0-1.447,0.192-2.121,0.675c-0.771,0.386-1.736,0.386-2.604,0.578
			c-2.604,0.29-5.207-0.096-7.811,0.482c-7.041,0.193-13.887-0.675-20.734,0.097c-3.182-0.579-6.363,1.061-9.449,0.193
			c-2.025,0.481-4.629-0.579-6.172,0.578c-4.629-0.482-9.162-1.253-13.982-1.253c-1.062-0.387-2.701,0-3.184-1.158
			c-0.096-0.096,0.58-1.061,0.58-0.578c5.205-1.351,9.643,1.736,15.621,1.061c3.086-0.386,6.268,0,9.547-0.964
			c0.965-1.351,2.41-1.254,3.471-2.122c1.93-0.289,3.857-0.771,5.111-2.122c4.918-2.41,9.934-3.278,13.887-6.846
			c1.156-0.482,2.314-1.062,3.568-2.122c0-0.289,2.797-1.543,2.797-1.832c-0.096-0.192-2.99,0.482-2.99,0.097
			c-3.76,0-7.232-0.676-10.223,0.386c-5.398-1.351-10.992-1.447-16.779-0.193c-4.146-0.481-8.389-1.062-12.439-0.289
			c-3.375-1.446-7.135,1.543-10.223-1.157c-0.289-0.868-1.83-0.579-1.734-1.64
			C1244.934,1175.791,1247.729,1177.623,1250.912,1177.72z"/>
		<path style="fill:#FF0050;" d="M1297.777,1128.731c-0.191-0.097,0.869-0.288,1.254-0.192c0.289,0,0.676,0,0.771,0
			c0.58,0.192,1.35,0.482,1.93,0.386c1.35,0.579,2.699,0.289,3.857,0.868c2.314,1.061,5.4,2.025,7.906,4.146
			c1.543,1.64,3.568,2.314,5.111,3.761c0.289,0.867,0.676,1.254,0.482,2.025c-1.543,0.096-2.314-2.122-3.76-2.7
			c-1.062-0.965-2.605-1.254-3.473-2.508c-0.193-0.097-0.578-0.482-0.771-0.578c-0.193-0.097-0.289-0.289-0.289-0.289
			c-0.098,0-0.482-0.193-0.482-0.289c-0.869-0.869-1.158-0.965-1.158-0.579c-0.674-0.193-1.156-0.676-1.83-0.579
			c-0.291-0.097-0.58-0.289-0.773-0.578c-1.156,0.193-1.445-0.386-2.023-0.482c-1.061-0.579-2.701,0-3.857-0.386
			c-0.578,0.097-1.061-0.482-1.736-0.385c-2.314-0.676-3.279-0.098-5.785,0.096c-3.184,1.157-3.279,0.868-5.305,1.639
			c-1.543,0.579-2.41,0.772-3.857,1.447c-1.447,0.676-2.025,1.446-3.471,2.122c-1.352,0.578-2.219,0.385-3.473,0.867
			c-1.447,0.578-2.314,1.254-3.664,1.832c-1.35,0.675-2.412,0.965-3.953,1.64c-1.447,0.868-2.219,1.735-3.955,2.218
			c-0.48,0-1.156,0.097-1.639,0.097c-0.482-0.097-1.061,0.096-1.35,0.096c-0.289,0.098-0.771-0.096-1.061-0.192
			c-1.736,0.579-2.701-0.578-4.533-0.386c-1.736-0.482-3.471-0.675-5.498-1.351c-1.928-1.061-4.436-1.542-6.557-2.988
			c-2.217-1.158-4.436-2.894-6.074-5.016c-0.193-0.289-0.965-1.061-0.289-0.964c1.734,0.772,3.279,2.507,5.109,3.183
			c4.918,3.086,10.029,4.918,15.141,5.4c0.578,0.289,1.254,0,1.93,0.289c0.963,0,2.312,0.289,3.375,0.096
			c3.471,0.387,2.699-1.156,4.146-1.735c1.543-0.578,2.506-0.482,3.857-1.157c0.965-0.578,1.445-1.254,2.604-1.735
			c0.963-0.579,1.639-1.061,2.893-1.254c2.893-0.289,2.99-0.867,4.436-2.122c0.676-0.386,1.061-0.867,1.832-1.156
			c0.676-0.579,1.254-0.29,2.121-0.579c1.158-0.289,1.736-0.675,2.895-1.061c1.061-0.386,2.217-0.868,2.797-0.868
			c2.023-0.867,3.182-0.289,5.109-0.482C1297.297,1128.346,1297.875,1128.731,1297.777,1128.731z"/>
		<path style="fill:#FF0050;" d="M1313.883,1116.292c0.289,0.097,0.482,0.192,0.674,0.386c-0.867,2.218-3.471,0.965-5.496,1.543
			c-1.734,0.289-3.375,0-5.109,0.097c-4.727,0.096-9.451-0.097-13.984,0c-2.41,0-5.592,0.192-8.1-0.097
			c-1.639-0.193-3.666,0-5.305,0.097c-3.953,0.385-7.713,0-11.861,0.289c-0.191-0.193-0.385-0.193-0.578-0.193
			c-1.736,0.869-3.664,0.097-5.305,0.387c-3.953,0.192-7.715,0.578-11.572,0.578c-2.699-1.157-5.494,0.579-8.293-0.096
			c-0.385-0.098,0.58-1.158,0.869-1.158c4.242-2.893,9.16,1.158,13.887-0.192c5.592-1.543,11.861-0.965,17.357-1.254
			s10.703,0.193,16.297,0c1.543-0.193,3.086-0.193,4.727-0.193c0.385,0,0.867,0.097,1.252,0.097
			c4.244-0.097,8.486-0.097,12.248-0.675C1308.482,1116.678,1310.893,1116.195,1313.883,1116.292z"/>
		<path style="fill:#FF0050;" d="M1321.5,1095.367c1.254,1.06,0,0.963-0.193,1.35c-5.398,4.725-12.92,3.761-18.707,7.521
			c-4.146,1.543-8.582,2.121-12.633,3.086c-3.182,0.097-6.074,1.446-9.064,0.868c-0.965,0.771-2.412,0-3.471,0.386
			c-6.943,0-10.898-1.351-16.297-2.508c-1.834,0.193-3.762-0.386-5.209-1.64c-2.506,0.29-4.533-0.481-6.363-1.446
			c-4.436-1.639-8.873-3.375-12.055-6.461c0,0.097-0.578-0.193-0.289-0.386c0.771-0.481,1.639,0.386,2.41,0.771
			c4.533,0.386,7.426,3.665,11.475,4.629c1.834,0.965,3.857,0.965,5.594,1.64c7.426,1.929,12.344,3.568,20.156,3.664
			c0.096,0,0.289-0.675,0.289,0.097c6.652-0.386,12.342-1.929,18.418-2.604c6.172-1.929,12.344-4.147,18.514-6.076
			c1.641-1.06,3.568-1.929,5.691-2.699c0.578,0,1.639-1.062,1.928-0.675C1321.789,1094.885,1322.465,1094.885,1321.5,1095.367z"/>
		<path style="fill:#FF0050;" d="M1309.445,1064.99c-1.156,0.868-2.699,1.446-3.855,2.411c-4.727,1.35-9.836,2.604-14.947,2.604
			c-3.666,0.578-7.426,1.35-10.994,2.218c-1.928-0.192-4.146-0.578-6.363-0.097c-0.289,0.771-0.289,1.062-1.447,1.351
			c1.061,2.796,3.277,4.725,4.34,6.75c0.578,0.289,1.156,1.062,0.965,1.736c-0.387,1.157,0.191,1.157,0.867,1.832
			c0.867,0,1.639,0.096,2.41,0.481c2.025-0.675,3.568-0.675,5.207-0.096c1.832,1.061,3.377,0.289,5.4,0
			c3.857-0.579,7.521-1.447,11.477-1.64c3.086-0.097,6.172-0.097,9.451-0.097c0.289,0.097,0.578,0.193,0.48,0.482
			c0,0.289-0.385,0.579-0.674,0.675c-4.822,0.289-9.451,0.482-13.695,1.833c-3.182-0.097-5.785,0.867-8.773,0.578
			c-7.137-0.675-14.658,0-21.408,0.868c-2.99-0.676-5.305,0.578-8.197,0.386c-7.521-0.579-15.334-0.579-21.986-2.797
			c-0.965-0.289-0.482-1.061-0.965-1.736c0.096-0.289,0.578,0,0.771-0.096c2.314,0.482,4.34,1.543,6.654,1.446
			c0.096,0.097,0.096,0.097,0.191,0.192c3.955-0.192,7.619,1.062,11.09,0.868c2.605,1.446,5.498-0.386,8.293,0.097
			c3.568,0.578,6.559-0.675,10.029-1.157c0.482-0.386,1.158-0.771,1.832-1.543c-1.156-3.086-4.725-5.015-5.109-7.521
			c0.48,0-0.676-0.771-0.193-2.314c-2.99-0.868-5.4,0.289-7.619-0.771c-1.832-0.482-3.664,0.481-5.592-0.579
			c-2.604,1.254-4.918,0.097-7.426,0.29c-1.447-1.254-2.025,1.253-3.76,0.096c-1.641,0.482-3.857,0.771-5.209,0
			c0.098-0.386,0.098-0.675,0-1.061c1.447-0.867,3.473,0.289,4.918-0.867c2.121-0.193,3.666,0.964,5.785,0.578
			c6.174-1.157,13.02,0.192,19.287-0.193c4.34-0.192,9.066,0.482,13.213-0.964c6.557-1.061,13.404-1.929,19.576-3.183
			c1.541-0.964,3.375-2.024,5.303-1.929C1309.061,1064.412,1309.35,1064.604,1309.445,1064.99z"/>
		<path style="fill:#FF0050;" d="M1250.912,1011.566c1.061,0,2.604-0.097,3.76-0.192c2.797-1.736,7.137,0,10.416,0.386
			c2.023-1.158,5.4-0.482,7.521-0.676c3.086-0.771,7.137,0.193,10.703,0.193c6.27,0,13.502-0.193,19.77-0.482
			c0.965-0.097,1.928-0.675,2.797-0.289c0.096,0.096,0.191-0.097,0.289-0.097c-2.217,1.446-4.918,1.543-7.137,2.507
			c-3.182,2.797-6.846,4.243-10.221,6.365c-4.051,1.832-8.197,3.182-11.861,5.979c-1.158,0.578-2.219,1.254-3.375,1.832
			l-2.797,1.351l3.182,0.192c7.521,0.482,14.562-1.35,22.277-0.289c3.084,0,5.977-1.254,8.967-0.675c0.771-0.097,1.736,0,2.412,0
			c-0.098,0.192,0,0.578-0.098,0.675c-0.771,0-1.447,0.192-2.121,0.675c-0.771,0.386-1.736,0.386-2.604,0.579
			c-2.604,0.289-5.207-0.097-7.811,0.481c-7.041,0.193-13.887-0.675-20.734,0.097c-3.182-0.578-6.363,1.061-9.449,0.193
			c-2.025,0.482-4.629-0.579-6.172,0.578c-4.629-0.482-9.162-1.254-13.982-1.254c-1.062-0.385-2.701,0-3.184-1.157
			c-0.096-0.096,0.58-1.061,0.58-0.578c5.205-1.351,9.643,1.735,15.621,1.061c3.086-0.386,6.268,0,9.547-0.964
			c0.965-1.351,2.41-1.254,3.471-2.122c1.93-0.289,3.857-0.771,5.111-2.121c4.918-2.411,9.934-3.279,13.887-6.847
			c1.156-0.482,2.314-1.061,3.568-2.122c0-0.289,2.797-1.543,2.797-1.832c-0.096-0.193-2.99,0.482-2.99,0.097
			c-3.76,0-7.232-0.676-10.223,0.386c-5.398-1.351-10.992-1.446-16.779-0.193c-4.146-0.482-8.389-1.061-12.439-0.289
			c-3.375-1.446-7.135,1.543-10.223-1.157c-0.289-0.868-1.83-0.578-1.734-1.64
			C1244.934,1009.638,1247.729,1011.47,1250.912,1011.566z"/>
		<path style="fill:#FF0050;" d="M1313.883,998.065c0.289,0.097,0.482,0.193,0.674,0.387c-0.867,2.218-3.471,0.964-5.496,1.542
			c-1.734,0.29-3.375,0-5.109,0.097c-4.727,0.097-9.451-0.097-13.984,0c-2.41,0-5.592,0.193-8.1-0.097
			c-1.639-0.192-3.666,0-5.305,0.097c-3.953,0.386-7.713,0-11.861,0.29c-0.191-0.193-0.385-0.193-0.578-0.193
			c-1.736,0.868-3.664,0.097-5.305,0.386c-3.953,0.193-7.715,0.579-11.572,0.579c-2.699-1.158-5.494,0.578-8.293-0.097
			c-0.385-0.097,0.58-1.157,0.869-1.157c4.242-2.893,9.16,1.157,13.887-0.193c5.592-1.543,11.861-0.964,17.357-1.253
			c5.496-0.29,10.703,0.192,16.297,0c1.543-0.193,3.086-0.193,4.727-0.193c0.385,0,0.867,0.097,1.252,0.097
			c4.244-0.097,8.486-0.097,12.248-0.675C1308.482,998.452,1310.893,997.97,1313.883,998.065z"/>
		<path style="fill:#FF0050;" d="M1324.395,970.487c-1.834,2.41-4.727,3.568-6.752,6.172c-2.988,3.086-7.426,5.11-10.51,7.329
			c-1.543,0.867-3.762,1.157-5.594,2.217c-1.156,0-1.928,0.482-2.893,0.772c0-0.097-0.193,0-0.291-0.097
			c-1.252,0.868-2.506,1.061-2.891,1.157c0,0-0.387,0.578-1.158,0.289c-3.762,0.771-6.654,2.025-10.414,1.929
			c-4.34,0.771-9.549-0.097-13.695-0.482c-1.059-0.289-2.023-0.385-2.988-0.385c-0.578-0.386-0.965-0.097-1.928-0.868
			c-0.771,0.578-1.447-0.097-1.93-0.193c-3.086,0.193-3.568-1.735-6.557-1.929c-2.314-1.157-5.209-1.929-7.908-3.278
			c-3.086-1.929-6.654-3.664-9.451-5.883c-2.797-2.218-5.496-4.532-7.426-7.425c-0.191-0.289-1.061-1.254-0.289-0.868
			c2.605,1.446,4.146,3.761,6.848,5.207c6.559,5.015,13.982,8.583,21.602,11.38c0.867,0.481,2.025,0.481,2.893,1.061
			c1.736,0.386,3.279,1.061,5.014,1.157c5.498,1.254,10.607,0.289,16.105,0.481c3.953-0.675,8.775-0.481,12.344-2.314
			c1.252,0,1.35-1.061,2.604-0.867c1.445-0.868,4.049-0.676,5.689-1.832c0.963-0.193,1.543-1.062,2.893-1.351
			c0.387-0.675,1.156-0.675,1.734-0.964c0.965,0.096,1.352-1.062,2.316-1.64c0.482,0.289,1.061-0.097,1.541-0.579
			c0-0.578,0.387-0.481,0.676-0.481c0.193-0.193,0.482-0.579,0.578-0.868c0.193-0.097,0.291-0.097,0.676-0.097
			c1.158-2.411,3.375-2.7,4.629-4.532c1.928-1.157,2.508-3.954,4.822-4.243C1325.164,969.233,1324.586,969.812,1324.395,970.487z"/>
		<path style="fill:#FF0050;" d="M1316.582,935.29c0.098,0.289,0.098,0.675,0,0.964c-0.578,0.289-0.963,0.386-1.734,0.579
			c-0.482,0.097-0.965,0.097-1.447,0.097c-1.736,0.386-2.797,0.578-4.629,1.156c-0.385,0.194-0.578,0.386-0.963,0.579
			c-0.482,0-0.676-0.097-1.158-0.097c-2.025-0.097-4.727,0.676-5.207,0.482c-4.822,0.867-4.146,1.253-9.645,1.543
			c-3.953,0.192-6.846,0.579-10.51,0.964c0,1.929-1.254,3.761-1.543,5.497c-0.098,0.964-0.193,1.446-0.387,2.411
			c-0.387,1.253-1.158,1.832-0.965,3.182c0,2.7,0.193,0.868-1.35,3.568c-0.191,0.289-0.289,0.675-1.35,2.121
			c2.314-0.192,3.086-0.386,4.146-0.578c1.447,0.964,4.051,0.096,6.363,0.192c6.076,0.29,11.861-0.578,17.359-0.289
			c5.111,0.192,10.125-0.771,14.658-0.289c0.096,0.289,0.096,0.675,0.096,1.061c-0.387,2.314-3.086,0.579-4.146,1.061
			c-4.822,0.386-9.258,0.386-14.658,0.386c-6.557,0.193-13.115-0.386-19.768,0.097c-4.533,0.386-8.486-0.289-12.635,0.482
			c-7.039-1.157-14.174,2.314-21.117,0.675c-1.736-0.097-3.473,0.578-5.207,0.097c-0.869-0.482-3.955-0.193-2.314-1.543
			c5.398-0.579,10.992,0.096,16.488-0.097c8.102-0.386,3.184-0.771,5.305-0.964c2.797-0.29,4.436-0.193,7.328-0.193
			c2.604,0,4.051,0.289,6.848,0c0.578-1.35,0.965-2.121,1.543-3.278c1.254-2.411,0.387,0.964,0.965-3.568
			c0.193-1.446,0.289-1.832,0.289-3.278c0-1.254,0.578-1.833,0.867-3.086c0.289-0.868,0.193-1.832,0.385-3.472
			c-1.252,0-1.637,0.097-2.217,0.097c-2.025-0.579-4.822,1.446-6.654-0.29c-2.314-0.192-3.568-0.385-5.496,0.386
			c-1.35-0.096-2.797-0.288-4.533-0.481c-0.385-0.193-0.963,0.289-1.35,0.289c-1.543,0.868-2.508-1.64-3.953-0.482
			c-0.676,0-1.35,0.675-2.025-0.289c-3.182,0.868-5.689,0.578-8.391-1.157c-0.867,0.387-1.252-0.193-1.639-0.675
			c-0.096-0.097-0.191-0.29-0.096-0.482c0.289-0.771,0.771,0.386,0.963,0.289c0,0,0.58,0.482,1.158-0.097
			c0.578-0.482,1.061,0.771,1.641,0.482c3.664,0.869,7.617,0.869,11.379,0.387c3.664,0.867,9.064,0,12.535,0.867
			c0.867-0.097,1.639-0.771,2.99,0c1.156-1.254,2.604-0.29,3.471-0.867c4.436-0.098,8.969-0.482,13.404-0.579
			c4.34,0,2.893-0.676,6.172-1.157c0.676,0.192,1.736-0.29,2.217,0.096c1.254-0.192,2.412-0.192,3.666-0.386
			c2.604-0.385,6.172-0.578,8.484-1.157c0.387,0.193,0.869-0.096,1.545-0.867c-0.387-0.868,0.674-0.386,0.674-0.579
			C1313.496,934.711,1314.943,935.676,1316.582,935.29z"/>
		<path style="fill:#FF0050;" d="M1231.625,908.482c0.193,1.64,0.867,2.796,1.158,4.532c-0.58,2.604-0.098,4.918,0.867,8.1
			c1.35-0.675,2.314-0.481,2.797-0.289c1.832-0.192,4.146,0.289,5.979,0.193c1.736-0.386,3.857-0.579,5.592-0.579
			c2.701-1.35,6.076-1.735,8.777-2.313c1.543,0.386,3.375,0,4.82,0.192c6.559,0,13.309-1.64,19.48-2.508
			c1.156,0.098,2.893-0.192,3.953,0.098c0.193-0.098,0.676-0.098,0.771-0.193c4.822-0.193,8.68-0.289,13.5-0.289
			c2.219,0,4.148,0.385,6.172,0.482h-0.096c-2.508,1.831-5.979,1.156-8.68,1.735c-3.953-0.965-8.1,1.061-12.342-0.579
			c-2.508,2.604-5.498,0.579-8.102,1.447c-2.41-0.29-5.305-0.193-7.328,1.061c-0.965-0.097-1.834,0.289-3.184-0.193
			c-2.314,1.351-5.207,0.676-7.617,0.676c-3.953-0.869-7.137,1.735-10.898,1.253c-2.699,1.351-5.785,1.157-8.871,1.157
			c-0.963-1.061-2.508-0.097-4.436-2.218c-0.674,4.243-0.289,6.751-0.482,9.354c0.482,2.025-0.289,4.243,0,6.462
			c-0.096,0.097-0.096,0.192-0.191,0.289c-0.773-0.097-0.965-0.965-1.256-1.543c0.58-1.929,0.482-3.857,0-5.786
			c-0.385-0.482,0-1.35,0.098-2.314c-1.061-1.446-0.193-3.567-0.965-4.918c0.482-1.543-0.193-3.183-0.096-4.726
			c-0.867-1.543,0.289-3.567-0.578-5.111c0-1.35-1.834-2.699-0.289-3.76c0.096-0.098,0.289-0.193,0.48-0.29
			C1231.047,908,1231.529,908.096,1231.625,908.482z"/>
		<path style="fill:#FF0050;" d="M1307.035,900.768c0,0.482-0.674,0.771-1.061,0.867c-1.445,0.965-3.471,0.097-5.014,0.868
			c-0.482,0-0.867-0.193-1.158-0.481c0-0.482,0.193-0.676,0.387-0.868c1.35-0.386,2.699-2.604,4.34-0.965
			C1305.781,900.093,1306.361,900.381,1307.035,900.768z"/>
	</g>
	<path style="fill:none;stroke:#17192D;stroke-width:3;" d="M2048,0"/>
	<path style="fill:none;stroke:#17192D;stroke-width:3;" d="M2048,1536"/>
	<path style="fill:none;stroke:#17192D;stroke-width:3;" d="M0,1536"/>
	<path style="fill:none;stroke:#17192D;stroke-width:3;" d="M0,0"/>
</g>
<g id="Layer_1">
</g>
</svg>
