<svg xmlns="http://www.w3.org/2000/svg" width="2048" height="1536" viewBox="0 0 2048 1536"><g><g fill="#FF0050"><path d="M1156.287 1481.6c3.568-.287 6.27 1.158 9.547 1.93.676.578 1.35.578 1.35.48.193.098 1.447.387 2.51.966l.287.098c1.448.77 1.544.675 2.605.77 1.736 1.158 3.955 1.35 5.4 2.41 2.895 2.123 7.137 4.147 9.74 7.233 1.83 2.313 3.663 3.567 5.305 5.883.096.58.48 1.157.096 1.832-.77 0-.29.676-1.447-1.062l-.19-.386c-1.063.29-1.932.77-2.605.965-1.64 0-4.146 0-5.885.19-1.06-.288-2.795.387-3.76 0-4.822.29-11.09.482-16.394.098-1.254.578-2.99.192-4.146.096-5.017-.288-9.547-1.832-14.08-1.35-3.086-.097-6.75.868-10.03-.386-2.312.29-5.978-.29-7.81-.192-.097 0-.193.192-.29.29-4.727-.58-10.8.19-15.33-.29-.483-.192-.87-.868-.194-.965 9.256-.77 20.926-.867 30.666-.096 2.217-.193 5.592.29 7.906-.097l.29.29c3.566 0 6.46.675 10.124 1.06.387-.288.77-.096 1.062.098 5.398.29 13.02-.48 18.226-.097 2.893-1.35 5.98.77 8.774-.675.29-.482.29.964 2.22-.387-.578-.192-1.158-1.156-.87-1.156-.77-1.543-2.987-1.352-4.05-4.437-.576.578-.386-.29-.867-.29 0 0-.482-.29-.675-.386-.098-.097-.48-.193-.48-.964-.966 0-1.16-.29-1.448-.098-.963-.386-.963-1.734-2.12-1.734-.482-.192-1.158-.386-1.447-.77-1.156-.29-1.64-1.447-2.7-1.64-1.542-1.062-3.856-.868-5.11-1.736-1.06 0-1.156-.866-2.41-.964-3.375-1.832-7.812-1.832-11.38-2.604-5.208 0-9.933-1.062-15.235 0-1.735 0-3.278.675-4.82.964-.868.58-1.93.386-2.798.868-7.136 2.218-14.367 5.11-20.54 10.028-2.508 1.255-3.762 3.857-6.364 5.11-.578.386-.193-.48 0-.77 1.928-2.605 4.533-5.4 7.23-7.426 2.605-1.93 6.075-3.375 8.97-5.11 2.605-1.157 5.398-1.93 7.617-2.894 2.798-.192 3.375-1.93 6.27-1.64.58-.098 1.06-.482 2.122-.386.478-.387.866-.193 1.542-.482.867 0 1.832 0 2.893-.29 3.85-.186 8.67-.766 12.722.103zM1185.7 1469.45c.288.097.48.19.675.386-.867 2.218-3.473.964-5.496 1.543-1.737.288-3.376 0-5.112.096-4.727.097-9.45-.097-13.98 0-2.413 0-5.595.192-8.104-.097-1.64-.194-3.664 0-5.305.096-3.954.387-7.714 0-11.862.29-.19-.193-.385-.193-.578-.193-1.733.867-3.663.097-5.303.386-3.953.19-7.715.578-11.572.578-2.7-1.157-5.495.578-8.293-.098-.387-.096.578-1.156.867-1.156 4.243-2.895 9.16 1.156 13.886-.192 5.595-1.543 11.86-.965 17.357-1.254s10.705.192 16.297 0c1.543-.193 3.086-.193 4.728-.193.385 0 .866.098 1.254.098 4.242-.098 8.485-.098 12.246-.676 2.89.77 5.3.287 8.29.383zM1186.182 1450.453c-.965 2.122-3.278 2.313-4.918 3.472-2.22 1.157-4.63 2.314-7.137 2.604-.674.386-1.64.48-2.41.578-6.46 1.156-12.73 3.76-19.48 3.954-4.628.964-9.737.48-14.753.386-4.146 0-9.45-1.157-13.597-2.99-2.024-.48-4.244-1.253-5.688-2.507-2.124-.578-3.763-2.12-5.595-3.278-.388-.675-.867-1.35-.867-2.023 0-.098-.1-.194-.1-.194 1.932.482 3.764 1.93 5.69 3.087 1.543.867 2.412 2.024 4.05 2.41 2.798.578 5.018 2.507 7.91 2.313 5.302 1.352 11.087 1.254 17.452.868-.963-2.218.676-3.086-.096-4.437.096-.578.192-.964.385-1.35.288-.29.48-.58.866-.29l.48.482c-.19.577.194.963.483 1.252-.29 1.254 0 2.507-.192 4.05 4.726.483 7.906-.866 11.765-1.06 1.64-.772 4.146-.966 6.172-1.544 1.832-.578 4.05-.578 5.787-1.64 1.444.192 3.084-.29 4.24-1.735 2.51.097 4.438-1.735 7.33-2.313v-.48c.48-.194 1.446-1.255 2.603-.87-.094.483-.19.868-.383 1.253zM1181.746 1402.045c1.734 2.025 2.893 4.05 4.63 6.46.288 2.315 1.927 2.315 1.542 4.148-1.543 2.12-2.41 1.06-4.244 1.155-5.98-.77-13.018.482-18.803.868-5.208-.386-8.102.387-15.235.58-1.834.77-4.438.288-6.463 0-2.12.866-5.688.48-8.004-.193-7.715.964-14.078.192-21.6.577-.58-.096-1.447.387-1.062-.288 0-.097.098-.48.098-.578.19-.193.29-.482.482-.868-.098-.675-.193.29.29.29.866-1.063 1.253-2.99 2.698-2.99.77-1.062 1.543-1.64 2.412-1.93 1.733-1.64 2.698-3.085 5.014-3.085 3.953-3.182 8.97-2.796 13.5-2.796 4.533 1.543 8.295 3.953 12.152 8.97 1.64-1.833 1.543-4.34 2.602-4.822.676-1.64 1.93-2.99 3.473-4.63 3.087-2.12 5.787-2.507 9.064-3.76 3.763-2.604 7.812 1.253 11.573-.193 1.93.385 3.664 2.41 5.883 3.085zm-56.896 4.822c-2.12 2.796-4.05 1.253-5.785 5.11-.288.192-.577.386-1.06.097-3.665 1.64.288 1.832 1.83 1.93 3.183-1.063 4.726.19 7.91.096 3.275-1.062 7.038.386 10.51-.578 1.06-.29 1.83-.098 2.796-.098 2.122-.48 3.57.482 7.813 0-2.988-2.507-3.664-3.182-5.207-4.243-2.218-.963-4.242-2.506-6.27-3.663-4.34-.965-8.872-.193-12.536 1.35zm31.535-2.797c-2.604 2.507-3.567 4.242-6.076 9.45 2.7 0 4.05-.867 5.206-.482 4.822-2.024 9.26.868 14.273-.386 3.18-1.157 6.556 0 9.835-1.157 1.156.58 4.63.58 5.496.192.097-.192-.866-1.156-.577-2.41-1.352-1.93-2.604-4.05-3.664-6.364-2.124-.193-3.376-.58-4.823-1.446-3.086-.58-6.46-2.314-9.836-1.157s-6.654 2.12-9.835 3.76zM1120.03 1382.952c1.443.192 2.41 1.64 4.048 1.64 3.086 1.543 5.98 2.313 9.74 2.508.58.288 1.543.386 2.22.577 2.12.193 4.048 1.157 6.075 1.157 1.252.386 2.988-.29 4.146 1.254 1.54-.386 2.698-.77 3.663-1.254.385-.77 1.445-1.734 1.35-2.797.675-1.06.097-1.93.578-3.278.58-1.833.58-2.894 1.544-4.82.482-.388.966-.772 1.543-.677.386.964 0 2.12 0 3.278-1.254 2.508-1.06 3.858-1.928 7.137.77.482.48.868.77 1.062 2.41.384 5.014.095 7.038-.387 1.255.19 2.314-.29 4.242-.29.387-1.157 1.254-.29 1.832-.578 3.474-.29 6.56-2.218 10.127-2.41 1.54-1.35 4.145-1.158 5.687-2.315 1.834.193 2.8-2.218 5.11-1.64 1.158-.868 2.22-1.928 3.666-1.928.386.29.77.578 1.156.964-.192 1.446-1.833 1.543-2.894 2.313-1.64.19-3.185.577-4.34 1.64-2.12-.097-3.375 1.734-5.4 1.64-.77.48-1.543.578-2.12.964-.772-.097-1.448.192-2.026.48-4.436 0-7.907 2.895-12.344 2.605-.578.386-1.64.386-2.217.48-4.728 1.64-10.224 1.35-15.044 1.254-2.22-.578-4.92 0-6.848-.964-5.98-1.062-11.767-3.473-17.455-5.016-2.7-1.06-5.207-2.7-7.715-4.05-2.795-1.544-6.074-2.605-8.1-5.4 0-.19 0-.48.192-.578 4.346 2.796 8.877 5.304 13.7 7.426zM1185.7 1364.534c.288.097.48.192.675.386-.867 2.218-3.473.964-5.496 1.543-1.737.29-3.376 0-5.112.098-4.727.097-9.45-.097-13.98 0-2.413 0-5.595.192-8.104-.097-1.64-.19-3.664 0-5.305.098-3.954.387-7.714 0-11.862.29-.19-.193-.385-.193-.578-.193-1.733.868-3.663.097-5.303.387-3.953.192-7.715.578-11.572.578-2.7-1.157-5.495.578-8.293-.098-.387-.097.578-1.156.867-1.156 4.243-2.894 9.16 1.156 13.886-.193 5.595-1.542 11.86-.964 17.357-1.253s10.705.193 16.297 0c1.543-.193 3.086-.193 4.728-.193.385 0 .866.097 1.254.097 4.242-.098 8.485-.098 12.246-.675 2.89.768 5.3.286 8.29.382zM1153.973 1339.463c3.763.29 7.62 1.156 11.67 1.64 4.916.578 10.027 1.156 14.656 3.472 2.41 2.41 5.4 3.664 7.33 6.847.288 1.735 1.542 1.446.964 3.568.096.29-.192 0-.192-.387-2.22.097-1.158-.48-2.798-2.7-2.508.772-4.34-.385-6.172.387-7.715-.482-14.37 0-21.89.77-1.833.868-4.147.868-6.27.58-1.35-.483-2.796.48-4.436.19-5.016-.288-10.608-.288-15.526.387-3.664-.192-7.232 0-10.992.386-1.447-.29-3.086-.77-5.11-.192-.58 1.352-1.255 1.063-.772 2.22-.193.192-.386.48-.677.674-.29-.096-.58 0-.867-.288.385-2.796 2.22-4.34 3.952-6.462 3.375-3.084 7.716-4.53 11.38-7.52 2.41-1.544 4.918-1.737 7.522-2.798 3.277-.48 6.943-.29 10.125-.964 2.7.672 5.304.48 8.1.19zm-15.237 2.41c-3.76-.192-6.365 1.543-9.933 2.604-.192.193-1.06 1.062-1.543 1.352-2.7 1.928-5.883 2.795-8.774 6.65 3.47-.287 5.207.967 6.846.29 2.412.29 4.533-.964 6.943-1.06 3.473 1.06 7.23.192 10.8.674 3.28.386 6.85-.385 10.224-.578 5.978-2.313 12.92-.675 19.093-1.35 2.988 0 6.46-.482 11.187.096-1.832-3.856-5.11-4.532-7.328-5.786-5.69-1.543-11.38-2.507-17.262-3.085-1.158-.19-2.604.29-3.666-.386-5.304.29-11.67-1.542-16.588.58zM1186.182 1321.333c-.965 2.122-3.278 2.313-4.918 3.472-2.22 1.157-4.63 2.314-7.137 2.604-.674.384-1.64.48-2.41.577-6.46 1.157-12.73 3.76-19.48 3.953-4.628.965-9.737.48-14.753.386-4.146 0-9.45-1.156-13.597-2.988-2.024-.482-4.244-1.254-5.688-2.508-2.124-.58-3.763-2.122-5.595-3.278-.388-.676-.867-1.35-.867-2.024 0-.098-.1-.193-.1-.193 1.932.482 3.764 1.93 5.69 3.086 1.543.87 2.412 2.026 4.05 2.412 2.798.58 5.018 2.508 7.91 2.313 5.302 1.35 11.087 1.254 17.452.868-.963-2.22.676-3.086-.096-4.437.096-.578.192-.964.385-1.35.288-.29.48-.58.866-.29l.48.48c-.19.58.194.966.483 1.255-.29 1.255 0 2.508-.192 4.052 4.726.48 7.906-.867 11.765-1.062 1.64-.77 4.146-.964 6.172-1.543 1.832-.578 4.05-.578 5.787-1.64 1.444.192 3.084-.29 4.24-1.735 2.51.097 4.438-1.735 7.33-2.313v-.483c.48-.192 1.446-1.253 2.603-.867-.094.482-.19.867-.383 1.253zM1122.73 1293.368c1.06 0 2.603-.096 3.762-.192 2.797-1.735 7.135 0 10.414.387 2.024-1.157 5.4-.482 7.52-.676 3.087-.77 7.138.192 10.706.192 6.268 0 13.5-.193 19.768-.482.965-.097 1.93-.676 2.797-.29.1.098.193-.096.29-.096-2.218 1.446-4.92 1.542-7.136 2.507-3.183 2.795-6.847 4.242-10.222 6.363-4.05 1.832-8.197 3.183-11.86 5.98-1.16.577-2.218 1.253-3.376 1.83l-2.797 1.352 3.184.192c7.52.48 14.56-1.35 22.274-.288 3.086 0 5.98-1.256 8.97-.678.77-.097 1.733 0 2.41 0-.1.193 0 .58-.1.677-.77 0-1.444.19-2.118.674-.773.386-1.738.386-2.605.578-2.603.29-5.206-.098-7.81.48-7.04.194-13.887-.674-20.732.1-3.184-.58-6.365 1.06-9.45.19-2.025.482-4.63-.577-6.173.578-4.63-.48-9.162-1.253-13.98-1.253-1.063-.386-2.702 0-3.186-1.157-.097-.097.58-1.06.58-.577 5.206-1.352 9.642 1.734 15.62 1.06 3.086-.385 6.27 0 9.547-.964.965-1.35 2.412-1.255 3.473-2.122 1.93-.29 3.857-.77 5.11-2.122 4.92-2.41 9.933-3.278 13.888-6.847 1.156-.482 2.312-1.063 3.566-2.122 0-.29 2.797-1.543 2.797-1.832-.095-.193-2.987.48-2.987.096-3.762 0-7.23-.675-10.223.386-5.4-1.35-10.994-1.445-16.78-.19-4.145-.483-8.39-1.063-12.437-.29-3.375-1.447-7.137 1.543-10.224-1.157-.29-.867-1.833-.578-1.736-1.64 3.276-.58 6.073 1.25 9.255 1.348zM1111.06 1233.195c5.69.29 11.092 2.312 16.686 4.05 3.854.58 8.1.867 11.57 2.41 3.954.386 7.33 1.254 11.38 1.446 2.12.1 4.34-.385 5.98.772 4.53.964 9.064 1.832 13.308 3.375 4.436 2.314 10.028 1.64 14.368 4.725l-.288-.386c-7.138 1.93-14.177 3.857-21.505 4.726-4.63-1.156-8.97.966-13.695.58-8.195 1.542-16.2 1.83-24.3 2.698-1.93-.77-4.147.193-6.172.58-1.157.192-2.7.096-3.666-.58.29-1.93 3.185-.578 4.34-1.06 5.69.578 10.994-2.025 16.49-1.544 2.797-.097 5.304-.097 8.293-.578.386-.482.77-.482 1.062-.58 5.787-.48 12.248-.866 17.744-1.252 4.05-1.64 8.39-2.314 12.922-2.797l.096-1.352c-8.39-2.797-17.068-5.015-25.94-6.076-4.435.193-8.195-.866-12.148-1.445-5.98-2.797-13.502-1.445-19.19-4.727-3.665 0-7.328-2.022-10.8-2.506-.098 0 .29-.482.674-.77.96-.093 1.826.774 2.79.29zM1188.69 1196.938c2.408.288 4.05-.29 4.628.867 0 .098-.1.29-.1.387-3.564 2.024-8.193 1.157-12.34 2.313-7.33 1.062-14.854 1.64-21.604 3.375-1.543 2.122-3.278 5.015-2.22 7.812.1.097-.288 0-.673.676.675.964-.386 1.35-.386 2.12-.387 1.833-.193 4.147-.965 7.33 5.593 1.253 10.896 1.156 15.523 2.41 3.377.964 8.103-.577 11.478 1.157 1.255 0 2.798-.193 3.665.867.192.482-.674.482-1.062.482-3.953-.676-6.942-.387-10.703-.867-4.436-1.93-11.188-.29-16.008-2.22-1.735 0-4.436.482-5.787-.48-4.532-1.062-9.932.29-14.176-1.736-7.907.29-14.466-2.988-22.564-2.988-.388-.386-.388-1.06-1.255-1.156-2.312-.77-5.304.675-6.75-1.254.58-1.062 2.122-.578 3.28-1.446 9.738-2.122 18.707-6.364 28.64-8.196 2.8-1.35 6.27-1.736 9.354-2.99 1.062-.097 2.12-.29 3.084.098 1.93-.578 4.05-1.254 6.174-1.254 4.53-.097 8.582-2.22 13.308-1.833 1.446-.866 3.663-.19 5.207-.674 2.99-.29 6.075-1.06 8.873-1.832.577-.29.866-.48.963-.676.87-.385.965-.385 1.64-.288.005.092.776-.196.776-.002zm-36.454 7.81c-4.82 2.12-10.414 2.12-15.43 3.568-5.882 1.64-11.378 4.916-18.03 6.17 0 1.64.675 2.22 1.83 2.314 2.7.964 5.208 2.025 8.294 2.41 5.688.77 12.344.29 17.744 1.64 1.444 0 3.567 0 5.495.58.965-1.157 1.06-2.314 1.93-2.894 0-1.157.29-2.025.385-2.895.193-1.444.193-2.796.482-3.855.48-1.832.77-2.507.965-4.05 2.604-4.53-1.93-2.89-3.666-2.988zM1180.78 1175.238c-.288 2.024.1 3.762.772 5.4-.096.48-.48.963-.77 1.06-1.255 1.832 1.157 5.11-2.026 6.076-1.06.29-2.217-.193-3.086.578-3.375 1.254-4.436.288-7.715.578-2.893.192-6.363-1.254-9.16 0-1.543 0-2.797-.578-4.146-.77-3.664 1.35-7.812-.676-11.67.288-2.796.19-5.015-.964-7.81.29-.58.096-1.063.096-1.544.287-5.688 0-11.57-.577-17.164.098-2.797 0-5.496-.098-8.004-1.446-.482-.386.096-.965.578-1.157.676 0 1.64-.19 2.7.676 2.023-.867 3.857.097 5.593-.29 1.446.387 3.085.48 4.628.098 3.28-1.93 6.75.29 10.125.192 3.28-.098 6.56-1.35 9.935-.964 3.47.48 7.52.77 11.09.386 1.155-.386 2.506.19 3.567-.193 1.062.193 2.506.098 3.472.77 1.352-.19 2.99-.48 4.34-.866.77.384 1.928.288 2.604.48 3.665.288 4.438.77 7.813-.387 2.22.77 1.352-1.543 3.278-2.023 1.255-.482.58-1.062.58-1.736-.29-1.543 1.253-2.7.577-4.05-.482-1.254-.096-2.895-1.06-4.244-.098-.385-.098-.867.386-.867 1.25-.29 1.444.965 2.118 1.735zM1156.287 1144.767c3.568-.288 6.27 1.157 9.547 1.93.676.577 1.35.577 1.35.48.193.097 1.447.386 2.51.965l.287.098c1.448.77 1.544.675 2.605.77 1.736 1.16 3.955 1.353 5.4 2.412 2.895 2.122 7.137 4.146 9.74 7.232 1.83 2.313 3.663 3.567 5.305 5.884.096.578.48 1.156.096 1.83-.77 0-.29.677-1.447-1.06l-.19-.387c-1.063.29-1.932.772-2.605.966-1.64 0-4.146 0-5.885.192-1.06-.29-2.795.387-3.76 0-4.822.29-11.09.482-16.394.097-1.254.578-2.99.192-4.146.097-5.017-.288-9.547-1.832-14.08-1.35-3.086-.098-6.75.867-10.03-.386-2.312.288-5.978-.29-7.81-.194-.097 0-.193.194-.29.29-4.727-.577-10.8.192-15.33-.29-.483-.19-.87-.866-.194-.964 9.256-.77 20.926-.868 30.666-.097 2.217-.19 5.592.29 7.906-.095.098.096.192.19.29.29 3.566 0 6.46.674 10.124 1.06.387-.29.77-.097 1.062.097 5.398.29 13.02-.48 18.226-.096 2.893-1.35 5.98.77 8.774-.676.29-.482.29.964 2.22-.386-.578-.193-1.158-1.157-.87-1.157-.77-1.543-2.987-1.352-4.05-4.437-.576.578-.386-.29-.867-.29 0 0-.482-.29-.675-.386-.098-.097-.48-.193-.48-.964-.966 0-1.16-.29-1.448-.097-.963-.387-.963-1.735-2.12-1.735-.482-.193-1.158-.386-1.447-.77-1.156-.29-1.64-1.446-2.7-1.64-1.542-1.063-3.856-.87-5.11-1.736-1.06 0-1.156-.868-2.41-.965-3.375-1.832-7.812-1.832-11.38-2.604-5.208 0-9.933-1.062-15.235 0-1.735 0-3.278.675-4.82.965-.868.578-1.93.385-2.798.867-7.136 2.218-14.367 5.11-20.54 10.028-2.508 1.254-3.762 3.856-6.364 5.11-.578.387-.193-.48 0-.77 1.928-2.605 4.533-5.4 7.23-7.427 2.605-1.93 6.075-3.375 8.97-5.11 2.605-1.157 5.398-1.93 7.617-2.894 2.798-.192 3.375-1.93 6.27-1.64.58-.096 1.06-.482 2.122-.386.478-.387.866-.192 1.542-.482.867 0 1.832 0 2.893-.29 3.85-.185 8.67-.766 12.722.103zM1176.44 1124.034c-3.47 2.507-7.905 2.12-11.087 4.82-1.257.387-2.605 1.062-3.666 1.735-2.988-.098-6.076 1.83-10.125 3.664 2.604 1.062 4.53.77 5.883.386 5.688 0 10.703-.965 16.682-.097 1.64 0 3.666-.48 5.11.192 2.798.097 6.077-.676 8.486.676l.193.193c-2.025.58-4.63.386-6.654.29-1.735-.482-3.567.19-5.496.19-3.762.1-7.715-1.253-11.09.388-3.086.387-5.98-1.06-8.97 0-2.698.867-5.4-.48-7.907.772-4.63-.77-10.607.096-15.622-.77-5.688 0-11.477.385-17.067-.58-3.085-.097-4.34-.676-7.23-1.253-.1 0 .48-.677.48-.87 3.087-1.83 4.145-2.41 7.425-3.663 4.533-1.833 9.354-1.447 13.887-2.7 6.365.096 12.633.964 17.262 7.04 8.486-5.112 17.552-5.69 25.748-10.126 3.664-1.157 7.04-2.99 10.703-4.145.578 0 1.543-.387 2.22-.192-2.992 1.736-6.078 3.086-9.164 4.05zm-54.29 6.364c-1.254.386-2.797-.098-3.953.675-1.545-.193-2.99.675-4.244 1.157l-2.314 1.64c.866.097 4.243.386 5.206.578 1.254 1.254 3.474.675 5.017 1.062 7.135-.965 15.14.192 23.723-.192-1.254-1.543-2.508-1.93-3.182-2.604-1.353-1.35-5.11-2.796-7.62-3.855-4.34.574-8.97-.39-12.634 1.538zM1188.69 1084.98c2.408.287 4.05-.29 4.628.866 0 .098-.1.29-.1.387-3.564 2.024-8.193 1.156-12.34 2.313-7.33 1.062-14.854 1.64-21.604 3.375-1.543 2.123-3.278 5.016-2.22 7.813.1.097-.288 0-.673.675.675.964-.386 1.35-.386 2.12-.387 1.833-.193 4.147-.965 7.33 5.593 1.254 10.896 1.156 15.523 2.41 3.377.965 8.103-.578 11.478 1.157 1.255 0 2.798-.192 3.665.868.192.482-.674.482-1.062.482-3.953-.677-6.942-.388-10.703-.87-4.436-1.927-11.188-.288-16.008-2.217-1.735 0-4.436.48-5.787-.482-4.532-1.06-9.932.29-14.176-1.735-7.907.29-14.466-2.987-22.564-2.987-.388-.387-.388-1.062-1.255-1.157-2.312-.77-5.304.675-6.75-1.254.58-1.062 2.122-.578 3.28-1.446 9.738-2.122 18.707-6.364 28.64-8.196 2.8-1.35 6.27-1.735 9.354-2.99 1.062-.097 2.12-.288 3.084.098 1.93-.58 4.05-1.254 6.174-1.254 4.53-.096 8.582-2.22 13.308-1.832 1.446-.868 3.663-.192 5.207-.676 2.99-.29 6.075-1.06 8.873-1.832.577-.29.866-.48.963-.676.87-.386.965-.386 1.64-.29.005.096.776-.193.776 0zm-36.454 7.81c-4.82 2.12-10.414 2.12-15.43 3.565-5.882 1.64-11.378 4.92-18.03 6.173 0 1.64.675 2.218 1.83 2.313 2.7.966 5.208 2.026 8.294 2.412 5.688.77 12.344.29 17.744 1.64 1.444 0 3.567 0 5.495.578.965-1.156 1.06-2.313 1.93-2.893 0-1.157.29-2.025.385-2.893.193-1.447.193-2.8.482-3.857.48-1.833.77-2.508.965-4.05 2.604-4.532-1.93-2.892-3.666-2.988zM1153.973 1060.483c3.763.288 7.62 1.156 11.67 1.64 4.916.578 10.027 1.156 14.656 3.472 2.41 2.41 5.4 3.664 7.33 6.847.288 1.735 1.542 1.446.964 3.567.096.288-.192 0-.192-.387-2.22.097-1.158-.482-2.798-2.7-2.508.77-4.34-.386-6.172.388-7.715-.48-14.37 0-21.89.772-1.833.868-4.147.868-6.27.58-1.35-.483-2.796.48-4.436.19-5.016-.288-10.608-.288-15.526.388-3.664-.193-7.232 0-10.992.385-1.447-.29-3.086-.77-5.11-.192-.58 1.35-1.255 1.062-.772 2.22-.193.19-.386.48-.677.674-.29-.097-.58 0-.867-.29.385-2.795 2.22-4.34 3.952-6.46 3.375-3.086 7.716-4.532 11.38-7.52 2.41-1.544 4.918-1.736 7.522-2.798 3.277-.482 6.943-.29 10.125-.966 2.7.67 5.304.477 8.1.19zm-15.237 2.412c-3.76-.192-6.365 1.543-9.933 2.604-.192.19-1.06 1.06-1.543 1.35-2.7 1.93-5.883 2.796-8.774 6.653 3.47-.29 5.207.964 6.846.29 2.412.288 4.533-.965 6.943-1.062 3.473 1.062 7.23.192 10.8.676 3.28.386 6.85-.386 10.224-.578 5.978-2.314 12.92-.676 19.093-1.35 2.988 0 6.46-.483 11.187.096-1.832-3.857-5.11-4.532-7.328-5.786-5.69-1.543-11.38-2.508-17.262-3.086-1.158-.192-2.604.29-3.666-.386-5.304.288-11.67-1.545-16.588.58zM1182.13 1030.01c.772.387 1.544 0 2.413.194.674 0 1.156.192 1.734.578.098.48-.48.868-.77 1.35-.677.868-1.448-.48-1.642-.48-.193-.387-1.158.48-2.12-.966-1.932.58-3.665.58-5.016.193-2.7.288-5.69-.483-8.296.577-1.06.097-1.64 1.35-2.12 1.93-.097 0-.482 1.156-1.35 1.542-1.255 1.156-3.087 2.99-3.665 3.47-.482.483 0-.576-.87.388-.48.386-.29.58-.965 1.64-.867 1.062-2.604 2.894-2.988 3.375-.577 1.157-1.157 2.507-1.832 4.05 2.025 1.352 4.052.965 5.4 1.833 1.736.097 3.857.48 5.69.964 1.06-.867 1.83.193 2.603.193 1.062.578 2.7.482 3.953 1.062 2.41.386 4.534 1.832 7.233 1.35.965.193 2.123.58 3.086.868-.097.19-.194.386-.386.386-1.64.288-3.087-.58-4.533-.482-.384-.29-.673-.387-1.06-.29-.772-.097-1.544-.288-2.22-.288-1.54-.482-2.604.386-5.11-1.254 0 1.445.194.578.194.578-1.447-.387-3.473-.965-5.402-.867-1.155-.77-2.602-.482-3.76-.77-2.7-.29-4.533-1.352-7.137-1.158 0 0-.096-.098-.19-.098-.773-.48-1.642-.192-2.124-.675-5.882-1.64-11.86-3.278-17.743-4.918-1.35-.676-2.506-.966-3.952-1.544-1.93-.675-3.76-1.832-5.785-2.604-2.025-.77-3.953-2.024-6.27-2.7-.58-.29-1.542.192-1.542-.77 0-.29-.29-.965-.098-1.06.676-1.063 2.604-1.063 3.567-1.544 2.314-.193 5.593-.677 8.39-1.255 1.06-1.254 2.7-.288 3.955-.77 4.725.19 9.643-2.22 15.043-1.544 6.848-1.063 14.465-1.642 20.926-1.063 4.925.38 9.845-.1 14.76.574zm-29.218 1.64c-1.254-.482-3.182.675-5.11.29-2.314-.388-4.82.385-7.136.77-2.22-.386-3.955.965-6.172.77-1.447.194-3.857.194-5.787.58-3.182.578-6.074 1.446-9.738 1.735 1.444 1.64 4.048 2.796 4.436 2.893 2.024.677 3.664 1.833 5.496 2.41 2.797.966 5.207 1.93 7.81 2.7 1.835.483 4.245 1.062 5.884 1.352 1.832-.097 4.437 1.542 6.943 1.93 1.446.19.77.866 2.796.288.77-1.832 1.928-3.086 2.604-4.726.866-1.157 1.35-1.254 2.604-2.604.867-.868 1.736-2.22 2.7-3.473.868-.964 2.024-2.024 2.603-2.7 0-.19 1.156-1.445 1.156-2.218-1.35-.29-2.893-.29-3.762-.386-2.6-.38-4.63.005-7.328.39zM1169.596 1006.674c-.192-.097.867-.29 1.254-.19h.77c.58.19 1.353.48 1.93.385 1.352.577 2.702.288 3.858.866 2.313 1.062 5.4 2.024 7.908 4.146 1.54 1.64 3.567 2.314 5.108 3.76.29.87.676 1.256.482 2.026-1.543.097-2.312-2.12-3.76-2.7-1.062-.964-2.604-1.253-3.474-2.507-.192-.096-.578-.48-.77-.578-.194-.097-.29-.29-.29-.29-.096 0-.482-.19-.482-.288-.867-.867-1.156-.965-1.156-.578-.676-.192-1.157-.676-1.832-.578-.29-.098-.58-.29-.77-.578-1.157.19-1.448-.387-2.026-.482-1.06-.58-2.698 0-3.856-.386-.578.097-1.062-.482-1.736-.386-2.313-.677-3.28-.098-5.785.097-3.183 1.157-3.28.867-5.306 1.64-1.543.578-2.41.77-3.857 1.445-1.444.676-2.022 1.447-3.47 2.122-1.35.578-2.22.386-3.474.868-1.445.578-2.312 1.253-3.664 1.832-1.352.675-2.41.964-3.954 1.64-1.447.868-2.22 1.735-3.953 2.218-.482 0-1.158.098-1.64.098-.483-.098-1.063.096-1.352.096-.288.097-.77-.096-1.06-.192-1.736.578-2.7-.58-4.533-.386-1.734-.482-3.47-.675-5.496-1.352-1.93-1.06-4.435-1.543-6.558-2.988-2.218-1.157-4.437-2.894-6.074-5.016-.193-.29-.965-1.06-.29-.964 1.737.77 3.28 2.507 5.112 3.184 4.918 3.085 10.028 4.917 15.14 5.398.58.29 1.253 0 1.93.29.965 0 2.313.29 3.374.096 3.472.388 2.7-1.156 4.146-1.734 1.543-.58 2.508-.482 3.856-1.157.966-.577 1.447-1.253 2.604-1.735.965-.577 1.64-1.06 2.893-1.253 2.894-.29 2.99-.867 4.438-2.122.675-.386 1.062-.866 1.83-1.156.677-.578 1.255-.29 2.124-.578 1.156-.29 1.733-.677 2.893-1.062 1.062-.385 2.22-.867 2.797-.867 2.025-.867 3.183-.288 5.11-.48.58-.01 1.157.377 1.062.377zM1180.78 958.168c-.288 2.025.1 3.76.772 5.4-.096.48-.48.965-.77 1.06-1.255 1.834 1.157 5.112-2.026 6.076-1.06.29-2.217-.192-3.086.58-3.375 1.252-4.436.288-7.715.578-2.893.19-6.363-1.254-9.16 0-1.543 0-2.797-.58-4.146-.772-3.664 1.352-7.812-.675-11.67.29-2.796.192-5.015-.965-7.81.29-.58.096-1.063.096-1.544.288-5.688 0-11.57-.578-17.164.097-2.797 0-5.496-.097-8.004-1.445-.482-.387.096-.966.578-1.157.676 0 1.64-.193 2.7.675 2.023-.868 3.857.097 5.593-.29 1.446.387 3.085.483 4.628.098 3.28-1.93 6.75.29 10.125.192 3.28-.097 6.56-1.35 9.935-.965 3.47.48 7.52.77 11.09.386 1.155-.387 2.506.192 3.567-.193 1.062.192 2.506.098 3.472.77 1.352-.19 2.99-.48 4.34-.867.77.386 1.928.29 2.604.482 3.665.29 4.438.77 7.813-.386 2.22.77 1.352-1.544 3.278-2.025 1.255-.48.58-1.06.58-1.734-.29-1.543 1.253-2.7.577-4.05-.482-1.254-.096-2.894-1.06-4.244-.098-.385-.098-.867.386-.867 1.25-.29 1.444.96 2.118 1.733zM1186.182 938.496c-.965 2.122-3.278 2.313-4.918 3.472-2.22 1.157-4.63 2.314-7.137 2.604-.674.386-1.64.48-2.41.578-6.46 1.157-12.73 3.762-19.48 3.953-4.628.966-9.737.482-14.753.387-4.146 0-9.45-1.157-13.597-2.99-2.024-.48-4.244-1.253-5.688-2.506-2.124-.58-3.763-2.122-5.595-3.28-.388-.674-.867-1.35-.867-2.024 0-.096-.1-.19-.1-.19 1.932.48 3.764 1.928 5.69 3.085 1.543.868 2.412 2.025 4.05 2.41 2.798.58 5.018 2.508 7.91 2.314 5.302 1.35 11.087 1.252 17.452.866-.963-2.218.676-3.085-.096-4.436.096-.578.192-.964.385-1.352.288-.29.48-.578.866-.29.192.194.29.29.48.483-.19.58.194.965.483 1.254-.29 1.255 0 2.508-.192 4.05 4.726.483 7.906-.866 11.765-1.06 1.64-.77 4.146-.965 6.172-1.543 1.832-.577 4.05-.577 5.787-1.64 1.444.192 3.084-.29 4.24-1.734 2.51.096 4.438-1.736 7.33-2.314v-.48c.48-.193 1.446-1.256 2.603-.87-.094.483-.19.868-.383 1.254zM1181.746 916.22c1.734 2.026 2.893 4.053 4.63 6.463.288 2.313 1.927 2.313 1.542 4.146-1.543 2.12-2.41 1.06-4.244 1.155-5.98-.77-13.018.48-18.803.867-5.208-.386-8.102.387-15.235.58-1.834.77-4.438.288-6.463 0-2.12.866-5.688.48-8.004-.193-7.715.964-14.078.19-21.6.578-.58-.098-1.447.386-1.062-.29 0-.097.098-.48.098-.578.19-.192.29-.482.482-.868-.098-.675-.193.29.29.29.866-1.062 1.253-2.99 2.698-2.99.77-1.06 1.543-1.64 2.412-1.93 1.733-1.64 2.698-3.085 5.014-3.085 3.953-3.183 8.97-2.796 13.5-2.796 4.533 1.544 8.295 3.953 12.152 8.97 1.64-1.833 1.543-4.34 2.602-4.822.676-1.64 1.93-2.99 3.473-4.63 3.087-2.12 5.787-2.506 9.064-3.76 3.763-2.604 7.812 1.254 11.573-.192 1.93.385 3.664 2.41 5.883 3.085zm-56.896 4.823c-2.12 2.796-4.05 1.253-5.785 5.11-.288.192-.577.386-1.06.097-3.665 1.64.288 1.832 1.83 1.93 3.183-1.062 4.726.192 7.91.097 3.275-1.062 7.038.386 10.51-.58 1.06-.288 1.83-.097 2.796-.097 2.122-.48 3.57.482 7.813 0-2.988-2.507-3.664-3.182-5.207-4.242-2.218-.965-4.242-2.508-6.27-3.664-4.34-.965-8.872-.194-12.536 1.35zm31.535-2.797c-2.604 2.508-3.567 4.243-6.076 9.45 2.7 0 4.05-.867 5.206-.482 4.822-2.023 9.26.868 14.273-.385 3.18-1.16 6.556 0 9.835-1.16 1.156.58 4.63.58 5.496.194.097-.193-.866-1.157-.577-2.41-1.352-1.93-2.604-4.05-3.664-6.365-2.124-.193-3.376-.58-4.823-1.447-3.086-.578-6.46-2.313-9.836-1.156-3.374 1.156-6.654 2.12-9.835 3.76zM1120.03 897.128c1.443.193 2.41 1.64 4.048 1.64 3.086 1.543 5.98 2.314 9.74 2.508.58.29 1.543.386 2.22.578 2.12.192 4.048 1.157 6.075 1.157 1.252.387 2.988-.29 4.146 1.254 1.54-.386 2.698-.77 3.663-1.253.385-.77 1.445-1.734 1.35-2.796.675-1.06.097-1.93.578-3.28.58-1.83.58-2.892 1.544-4.818.482-.388.966-.772 1.543-.676.386.964 0 2.12 0 3.277-1.254 2.508-1.06 3.857-1.928 7.137.77.48.48.867.77 1.062 2.41.386 5.014.097 7.038-.386 1.255.19 2.314-.29 4.242-.29.387-1.156 1.254-.288 1.832-.578 3.474-.29 6.56-2.218 10.127-2.41 1.54-1.35 4.145-1.157 5.687-2.315 1.834.193 2.8-2.218 5.11-1.64 1.158-.867 2.22-1.928 3.666-1.928.386.288.77.578 1.156.963-.192 1.447-1.833 1.543-2.894 2.314-1.64.192-3.185.578-4.34 1.64-2.12-.097-3.375 1.736-5.4 1.64-.77.48-1.543.578-2.12.964-.772-.096-1.448.194-2.026.483-4.436 0-7.907 2.893-12.344 2.604-.578.386-1.64.386-2.217.48-4.728 1.64-10.224 1.35-15.044 1.255-2.22-.58-4.92 0-6.848-.965-5.98-1.06-11.767-3.472-17.455-5.015-2.7-1.062-5.207-2.7-7.715-4.05-2.795-1.544-6.074-2.605-8.1-5.4 0-.192 0-.482.192-.578 4.346 2.795 8.877 5.302 13.7 7.424zM1122.73 863.667c1.06 0 2.603-.097 3.762-.193 2.797-1.734 7.135 0 10.414.387 2.024-1.156 5.4-.48 7.52-.675 3.087-.77 7.138.192 10.706.192 6.268 0 13.5-.192 19.768-.48.965-.098 1.93-.676 2.797-.29.1.097.193-.097.29-.097-2.218 1.446-4.92 1.542-7.136 2.507-3.183 2.798-6.847 4.243-10.222 6.365-4.05 1.832-8.197 3.183-11.86 5.98-1.16.578-2.218 1.253-3.376 1.83l-2.797 1.352 3.184.192c7.52.48 14.56-1.35 22.274-.29 3.086 0 5.98-1.253 8.97-.675.77-.096 1.733 0 2.41 0-.1.193 0 .58-.1.677-.77 0-1.444.19-2.118.675-.773.386-1.738.386-2.605.578-2.603.29-5.206-.097-7.81.48-7.04.194-13.887-.674-20.732.1-3.184-.58-6.365 1.06-9.45.19-2.025.483-4.63-.578-6.173.58-4.63-.482-9.162-1.254-13.98-1.254-1.063-.387-2.702 0-3.186-1.158-.097-.096.58-1.06.58-.578 5.206-1.35 9.642 1.736 15.62 1.062 3.086-.386 6.27 0 9.547-.964.965-1.352 2.412-1.254 3.473-2.122 1.93-.29 3.857-.77 5.11-2.122 4.92-2.41 9.933-3.278 13.888-6.846 1.156-.482 2.312-1.062 3.566-2.122 0-.29 2.797-1.543 2.797-1.832-.095-.192-2.987.48-2.987.097-3.762 0-7.23-.675-10.223.387-5.4-1.35-10.994-1.445-16.78-.192-4.145-.48-8.39-1.062-12.437-.29-3.375-1.445-7.137 1.544-10.224-1.156-.29-.87-1.833-.58-1.736-1.64 3.276-.582 6.073 1.25 9.255 1.347zM1135.457 802.143c2.7.482 4.918.966 7.812.578 5.013 2.123 10.8-.866 15.523 2.605 2.604.58 5.883.675 8.293 1.93 4.05 1.35 8.293 1.928 11.765 4.724 1.447 1.93 2.51 3.664 3.568 5.69-.19 1.927-.096 4.145-1.83 5.013-3.666 1.446-7.522 2.122-11.09 3.954-7.715.193-14.852 2.99-22.084 1.735-3.473.77-6.848-.096-10.317.48-5.98-.385-11.478-2.796-17.263-3.855-1.254-1.062-6.172-1.93-2.22-3.472 2.605-.48 4.245 1.446 6.56 2.024 1.35.29 2.604 1.83 4.146 1.83 5.883 1.063 10.992 2.123 17.356 1.353 5.496 1.35 11.478 0 16.974-1.157 5.207-.386 9.932-1.833 14.754-3.183 2.313-1.062 1.445-2.99 2.508-5.497-1.254-.867-.87-2.7-1.735-3.473-1.543-1.734-4.63-2.603-6.56-3.76-3.182-.482-6.362 0-8.678-1.832-2.605-.48-5.595.193-7.62-1.832-8.678-1.446-17.453-.772-25.553-2.797-4.728-.48-8.68-.673-12.537-3.084.193-.58 1.158-.29 1.543-.482 5.98-.384 10.803 2.99 16.684 2.51zM1188.883 762.606c-7.62 3.375-14.178 7.81-20.83 12.245-.58.29-.77 1.063-2.024 1.063-3.087 3.085-6.944 3.375-9.74 6.17-2.507 1.255-5.304 2.7-8.198 4.92.388.288 1.062.578 1.353.77 2.022.965 4.05.193 5.88.29 5.788.192 11.09-.77 16.202-.868 4.918 0 9.45-1.156 13.79-.675.097.19.097.482.097.867-.29 2.22-2.797.677-3.857 1.062-4.63.577-8.678.673-13.692.866-6.172.386-12.248.097-18.418.77-4.146.387-7.908 0-11.86.87-6.56-.772-13.214 2.603-19.77 1.252-1.544 0-3.088.77-4.727.386-.676-.48-3.762.098-2.22-1.35 5.017-.77 10.224 0 15.335-.676 7.715-.29 15.912-.77 21.6-5.69.965-.287 1.736-.963 2.412-1.445 2.41-1.445 5.015-2.507 7.04-4.628 2.024-.676 3.856-1.833 5.495-2.99 2.895-2.893 6.752-3.952 9.934-6.17 0-.387.29-.29.482-.387.867-.386 1.54-1.158 2.604-1.93 0-.384 2.796-.963 2.7-1.252-.097-.29-3.28-.193-3.568-.386-4.437.965-9.933 1.35-15.043 1.83-5.495.483-9.16 1.544-14.368 1.64-1.832-.384-4.437 1.447-6.27-.096-2.023 0-3.18-.096-4.818.48-1.447 0-2.896-.192-4.63-.192-.387-.096-.772.29-1.157.29-1.64 1.06-2.508-1.445-3.762-.29-.578.193-1.156.677-1.734-.19-3.085.867-5.497.385-8.102-1.063-.866.387-1.155-.097-1.543-.386v-.29c.29-.675.87.29.87.193 0 0 .577.48 1.155-.097.387-.578 1.254.676 1.447.386 3.277.77 7.135.58 10.8.097 3.376.578 8.485-.386 11.67.29.673-.097 1.542-.676 2.7-.29 1.06-.965 2.506-.097 3.277-.676 4.05-.29 8.39-.964 12.537-.964 3.953-.387 8.294-.77 11.476-1.253.676.19 1.447-.388 2.12.096 1.642-.386 2.314-.386 3.568-.578 2.51-.482 5.69-.868 7.906-1.35.387 0 .87-.29 1.447-.965-.482-.868.58-.482.676-.482.867-.384 2.314.387 3.762-.096-.002.293.094.583-.002.872zM1153.973 738.017c3.763.29 7.62 1.158 11.67 1.64 4.916.58 10.027 1.158 14.656 3.473 2.41 2.41 5.4 3.664 7.33 6.847.288 1.735 1.542 1.446.964 3.568.096.29-.192 0-.192-.386-2.22.095-1.158-.483-2.798-2.7-2.508.77-4.34-.387-6.172.385-7.715-.48-14.37 0-21.89.77-1.833.868-4.147.868-6.27.58-1.35-.483-2.796.48-4.436.19-5.016-.288-10.608-.288-15.526.387-3.664-.19-7.232 0-10.992.387-1.447-.29-3.086-.772-5.11-.194-.58 1.35-1.255 1.062-.772 2.22-.193.19-.386.48-.677.675-.29-.097-.58 0-.867-.29.385-2.796 2.22-4.34 3.952-6.46 3.375-3.086 7.716-4.532 11.38-7.52 2.41-1.544 4.918-1.737 7.522-2.798 3.277-.48 6.943-.29 10.125-.964 2.7.67 5.304.48 8.1.19zm-15.237 2.41c-3.76-.19-6.365 1.544-9.933 2.605-.192.19-1.06 1.06-1.543 1.35-2.7 1.93-5.883 2.797-8.774 6.654 3.47-.29 5.207.964 6.846.29 2.412.288 4.533-.966 6.943-1.063 3.473 1.062 7.23.193 10.8.675 3.28.388 6.85-.385 10.224-.577 5.978-2.313 12.92-.675 19.093-1.35 2.988 0 6.46-.48 11.187.096-1.832-3.856-5.11-4.53-7.328-5.784-5.69-1.543-11.38-2.51-17.262-3.086-1.158-.193-2.604.29-3.666-.388-5.304.29-11.67-1.54-16.588.58zM1293.9 1491.95c3.763.964 6.462 4.147 10.224 5.304.578 1.06 1.832 1.64 2.41 2.7-.866.29-1.832-.58-2.604-.964-.676-.676-1.35-1.062-2.314-1.158-2.12-1.543-5.014-2.217-7.23-3.953-1.64-.58-4.053-.772-5.885-1.64-3.275-.193-6.556-.193-9.736.385-3.088.578-6.076 1.832-8.486 3.955-3.184 1.54-6.848 2.7-10.317 3.47-5.4 2.7-12.247 2.41-17.84.194-3.278 0-5.11-2.797-8.102-3.184-.867-.674-1.64-1.35-2.7-1.736-.577-.48-.288-1.254-.77-1.928 0-.193-.388.096-.193.193 1.35.095 2.797.675 3.953 1.253 5.11 3.953 11.96 4.145 18.13 5.496 4.34-.194 7.907-2.22 12.054-3.185 2.604-1.64 5.884-2.22 8.486-3.855 1.93-.193 3.473-2.412 5.496-1.93 4.34-1.543 9.45-1.543 13.598 0 .575.29 1.156.484 1.83.58zM1223.507 1462.828c.19 1.64.866 2.797 1.155 4.53-.577 2.606-.098 4.92.867 8.103 1.352-.675 2.313-.48 2.796-.288 1.832-.193 4.146.29 5.98.193 1.734-.387 3.855-.58 5.593-.58 2.7-1.35 6.075-1.734 8.774-2.312 1.543.385 3.375 0 4.82.19 6.56 0 13.31-1.638 19.48-2.507 1.158.098 2.893-.19 3.953.098.192-.098.676-.098.772-.193 4.82-.192 8.678-.288 13.5-.288 2.22 0 4.145.387 6.17.482h-.095c-2.51 1.832-5.98 1.156-8.68 1.736-3.955-.965-8.103 1.06-12.345-.58-2.508 2.604-5.495.58-8.102 1.447-2.41-.29-5.303-.193-7.328 1.06-.965-.097-1.832.29-3.182-.192-2.314 1.352-5.21.676-7.62.676-3.952-.866-7.134 1.737-10.895 1.255-2.7 1.352-5.787 1.158-8.87 1.158-.966-1.062-2.51-.098-4.44-2.22-.673 4.243-.288 6.75-.48 9.355.48 2.025-.29 4.242 0 6.46-.097.1-.097.192-.19.29-.772-.098-.966-.965-1.255-1.543.577-1.928.48-3.857 0-5.785-.386-.482 0-1.352.096-2.314-1.062-1.447-.19-3.568-.963-4.918.482-1.543-.192-3.184-.098-4.727-.866-1.542.29-3.565-.578-5.108 0-1.352-1.832-2.7-.288-3.762.096-.098.288-.193.48-.29.39.096.873.19.97.578zM1306.245 1445.47c-.965 2.122-3.278 2.313-4.918 3.472-2.22 1.158-4.63 2.314-7.137 2.604-.674.387-1.64.48-2.41.576-6.46 1.158-12.73 3.764-19.48 3.955-4.628.965-9.737.482-14.753.387-4.146 0-9.45-1.156-13.597-2.988-2.024-.482-4.244-1.254-5.688-2.508-2.123-.578-3.762-2.12-5.594-3.28-.388-.673-.867-1.35-.867-2.024 0-.096-.098-.19-.098-.19 1.93.48 3.763 1.927 5.69 3.085 1.542.866 2.41 2.024 4.05 2.41 2.797.58 5.017 2.507 7.908 2.313 5.303 1.35 11.088 1.252 17.453.867-.963-2.217.676-3.086-.096-4.436.096-.578.192-.965.385-1.352.29-.29.482-.578.867-.29.19.194.29.29.48.483-.19.578.193.965.482 1.254-.29 1.253 0 2.505-.19 4.048 4.725.482 7.905-.867 11.764-1.06 1.64-.772 4.146-.966 6.172-1.544 1.832-.578 4.05-.578 5.787-1.64 1.444.192 3.084-.288 4.24-1.735 2.51.097 4.438-1.735 7.33-2.315v-.482c.48-.19 1.446-1.252 2.603-.865-.094.48-.19.866-.383 1.253zM1296.505 1423.967c-3.472 2.508-7.906 2.12-11.088 4.82-1.257.387-2.605 1.062-3.666 1.736-2.987-.098-6.075 1.832-10.124 3.664 2.604 1.06 4.53.77 5.883.385 5.687 0 10.702-.965 16.68-.096 1.642 0 3.667-.482 5.112.19 2.797.1 6.076-.673 8.485.677l.193.193c-2.025.578-4.63.385-6.654.29-1.735-.483-3.567.19-5.496.19-3.762.098-7.715-1.252-11.09.387-3.086.387-5.98-1.06-8.97 0-2.698.867-5.4-.482-7.907.77-4.63-.77-10.606.097-15.62-.77-5.69 0-11.478.387-17.068-.578-3.086-.098-4.34-.676-7.232-1.254-.098 0 .48-.673.48-.866 3.088-1.834 4.146-2.412 7.426-3.664 4.532-1.834 9.353-1.447 13.886-2.7 6.365.097 12.633.964 17.262 7.038 8.486-5.11 17.552-5.69 25.748-10.125 3.664-1.156 7.04-2.988 10.703-4.146.577 0 1.542-.385 2.218-.19-2.99 1.735-6.077 3.085-9.163 4.05zm-54.29 6.365c-1.255.385-2.798-.098-3.954.676-1.544-.193-2.99.674-4.243 1.154l-2.314 1.64c.867.1 4.244.388 5.207.58 1.254 1.253 3.474.675 5.017 1.06 7.135-.963 15.14.193 23.723-.19-1.254-1.544-2.508-1.93-3.182-2.605-1.353-1.35-5.11-2.795-7.62-3.857-4.34.577-8.97-.388-12.634 1.542zM1301.81 1400.34c1.734 2.023 2.893 4.05 4.63 6.46.288 2.315 1.927 2.315 1.542 4.146-1.543 2.12-2.41 1.062-4.244 1.158-5.98-.77-13.018.48-18.803.87-5.21-.39-8.103.384-15.236.575-1.835.77-4.44.29-6.464 0-2.12.866-5.688.48-8.004-.192-7.715.963-14.078.19-21.6.578-.58-.096-1.447.385-1.062-.29 0-.097.098-.48.098-.58.19-.19.29-.48.482-.866-.098-.674-.193.29.29.29.866-1.06 1.253-2.99 2.698-2.99.77-1.06 1.543-1.64 2.412-1.93 1.733-1.638 2.698-3.085 5.014-3.085 3.953-3.182 8.97-2.795 13.5-2.795 4.533 1.54 8.295 3.953 12.152 8.967 1.64-1.832 1.543-4.34 2.602-4.82.676-1.64 1.93-2.988 3.473-4.63 3.088-2.122 5.788-2.507 9.065-3.76 3.762-2.605 7.81 1.253 11.572-.192 1.93.384 3.664 2.41 5.883 3.085zm-56.897 4.822c-2.12 2.797-4.05 1.252-5.785 5.11-.288.192-.577.386-1.06.097-3.665 1.64.288 1.83 1.83 1.93 3.183-1.063 4.726.19 7.91.095 3.275-1.06 7.038.387 10.51-.578 1.06-.29 1.83-.098 2.796-.098 2.12-.483 3.568.48 7.812 0-2.988-2.51-3.664-3.183-5.207-4.243-2.22-.965-4.243-2.508-6.27-3.664-4.34-.965-8.873-.194-12.537 1.35zm31.535-2.797c-2.604 2.508-3.567 4.242-6.076 9.45 2.7 0 4.052-.868 5.207-.48 4.82-2.026 9.258.866 14.272-.388 3.182-1.158 6.557 0 9.836-1.158 1.156.58 4.63.58 5.496.192.096-.193-.867-1.156-.578-2.41-1.352-1.93-2.604-4.05-3.664-6.365-2.123-.19-3.375-.578-4.822-1.445-3.086-.578-6.46-2.314-9.836-1.156-3.375 1.156-6.654 2.12-9.836 3.76zM1240.093 1381.246c1.444.193 2.41 1.64 4.05 1.64 3.085 1.544 5.978 2.315 9.74 2.51.58.288 1.542.384 2.218.577 2.122.193 4.05 1.158 6.077 1.158 1.252.386 2.988-.29 4.146 1.255 1.54-.387 2.7-.77 3.664-1.254.385-.772 1.445-1.735 1.35-2.798.675-1.06.097-1.928.578-3.277.578-1.832.578-2.895 1.543-4.822.482-.385.966-.77 1.543-.674.387.964 0 2.12 0 3.276-1.253 2.508-1.06 3.857-1.927 7.137.77.482.482.867.77 1.06 2.41.388 5.015.1 7.04-.384 1.254.19 2.313-.292 4.24-.292.388-1.156 1.255-.29 1.833-.578 3.474-.29 6.56-2.217 10.127-2.41 1.54-1.35 4.146-1.158 5.688-2.314 1.835.193 2.8-2.22 5.11-1.64 1.16-.866 2.22-1.93 3.667-1.93.386.29.77.58 1.156.966-.19 1.447-1.832 1.543-2.893 2.314-1.64.19-3.185.578-4.34 1.64-2.12-.097-3.375 1.735-5.4 1.64-.77.482-1.543.578-2.12.965-.772-.097-1.448.192-2.026.48-4.436 0-7.907 2.896-12.344 2.606-.578.385-1.64.385-2.217.48-4.727 1.64-10.223 1.352-15.043 1.254-2.22-.578-4.92 0-6.848-.965-5.98-1.06-11.767-3.47-17.455-5.014-2.7-1.06-5.207-2.7-7.715-4.05-2.795-1.543-6.074-2.604-8.1-5.4 0-.193 0-.482.192-.578 4.345 2.795 8.877 5.303 13.7 7.424zM1242.792 1347.785c1.062 0 2.604-.096 3.763-.19 2.797-1.737 7.135 0 10.414.384 2.023-1.157 5.398-.483 7.52-.675 3.086-.77 7.137.19 10.705.19 6.268 0 13.5-.19 19.768-.48.965-.097 1.93-.675 2.797-.29.1.098.193-.096.29-.096-2.218 1.444-4.92 1.542-7.136 2.505-3.184 2.797-6.848 4.242-10.223 6.365-4.05 1.832-8.196 3.182-11.86 5.98-1.158.577-2.217 1.255-3.375 1.833l-2.797 1.35 3.184.19c7.52.483 14.562-1.35 22.275-.288 3.086 0 5.98-1.252 8.97-.674.77-.095 1.733 0 2.41 0-.1.192 0 .58-.1.675-.77 0-1.444.193-2.118.676-.774.39-1.74.39-2.606.58-2.604.29-5.207-.097-7.81.48-7.042.194-13.888-.673-20.733.097-3.183-.578-6.364 1.062-9.45.195-2.024.48-4.63-.58-6.172.578-4.63-.482-9.162-1.256-13.98-1.256-1.063-.385-2.702 0-3.186-1.156-.096-.096.58-1.06.58-.578 5.207-1.352 9.643 1.734 15.62 1.06 3.087-.386 6.27 0 9.548-.964.965-1.35 2.412-1.254 3.473-2.12 1.93-.29 3.857-.77 5.11-2.122 4.92-2.412 9.933-3.277 13.888-6.848 1.157-.482 2.313-1.06 3.567-2.12 0-.29 2.797-1.544 2.797-1.833-.096-.193-2.988.482-2.988.096-3.762 0-7.23-.675-10.223.388-5.4-1.352-10.994-1.447-16.78-.195-4.145-.48-8.39-1.06-12.437-.287-3.375-1.447-7.137 1.543-10.224-1.158-.288-.867-1.832-.578-1.735-1.64 3.276-.58 6.073 1.25 9.255 1.347zM1301.905 1287.32c.193.482 1.736.482 1.156 1.254-2.698 1.832-6.362-.19-9.255 1.352-9.74 2.988-20.06.77-29.992 2.12-5.785.772-11.186.772-16.875 1.93l-3.277-.095-.097.386 3.28 1.445c3.76.772 8.58.868 12.15 1.735 3.374.87 6.267.965 9.546 1.93 3.566.676 7.038.29 11.09.387.288.19.77.098.964.387-5.11 2.12-11.38.673-16.684 2.216-1.445 1.254-3.857.87-5.593 1.64-6.174 0-12.055 2.122-17.842 2.41-.674.58-1.832.677-2.797 1.063 0 .384-2.604.962-2.506 1.155.096.29 3.086.19 3.182.674 9.547 1.446 18.226 0 27.002 1.06 5.4-2.024 10.992 1.157 16.2-.58 6.17-2.024 13.114.29 18.612-1.83 1.64 0 3.373-.868 4.82 0 1.735.097 4.628-1.642 5.978.192 0 .19.192.096.29.19-1.352.868-3.473.194-4.727.388-7.33 1.832-15.044 2.312-22.663 3.47-3.086 0-6.17.483-9.063-.384-3.76.096-7.617.385-11.572-.29-9.16-.288-17.55 1.544-26.133-.964-3.184-.965-6.27 0-9.065-.674 0-.58-2.12.48-1.64-.39.58-.288.966-1.253 2.023-1.444 4.34-2.41 10.03-1.736 14.853-3.473 5.884-1.06 12.538-1.733 18.612-3.18l3.182-.772v-.385l-3.182-.58c-3.953-.676-7.716-1.254-11.668-1.734-4.822-2.22-10.513-2.026-15.332-4.147-.29-.29-.77-.482-1.158-.676.77-1.156 3.086-.096 4.244-.19 4.05-2.124 8.582-.483 13.018-1.642 10.125-1.062 17.646-.482 27.58-1.352 2.313-.674 5.883-.674 8.486-1.06 4.627-.675 9.547 1.157 13.018-1.735.68-.48 1.257-.288 1.835.192zM1305.763 1275.652c.29.096.48.193.676.387-.868 2.218-3.474.962-5.497 1.542-1.736.29-3.375 0-5.11.098-4.728.096-9.45-.098-13.982 0-2.41 0-5.593.19-8.102-.098-1.64-.19-3.664 0-5.305.098-3.953.385-7.713 0-11.86.29-.19-.194-.386-.194-.58-.194-1.732.867-3.662.098-5.302.387-3.952.193-7.714.578-11.57.578-2.7-1.157-5.496.58-8.294-.097-.387-.096.578-1.156.867-1.156 4.244-2.893 9.16 1.156 13.887-.193 5.595-1.543 11.86-.965 17.357-1.254s10.705.193 16.297 0c1.543-.19 3.086-.19 4.728-.19.385 0 .866.097 1.254.097 4.242-.098 8.485-.098 12.246-.676 2.89.77 5.3.29 8.29.382zM1223.507 1253.2c.19 1.642.866 2.798 1.155 4.532-.577 2.605-.098 4.92.867 8.102 1.352-.676 2.313-.48 2.796-.287 1.832-.193 4.146.287 5.98.19 1.734-.386 3.855-.58 5.593-.58 2.7-1.35 6.075-1.733 8.774-2.31 1.543.384 3.375 0 4.82.19 6.56 0 13.31-1.64 19.48-2.506 1.158.097 2.893-.194 3.953.097.192-.096.676-.096.772-.19 4.82-.194 8.678-.29 13.5-.29 2.22 0 4.145.385 6.17.48h-.095c-2.51 1.832-5.98 1.156-8.68 1.736-3.955-.965-8.103 1.06-12.345-.58-2.508 2.605-5.495.58-8.102 1.447-2.41-.29-5.303-.193-7.328 1.06-.965-.097-1.832.29-3.182-.19-2.314 1.35-5.21.676-7.62.676-3.952-.87-7.134 1.734-10.895 1.252-2.7 1.352-5.787 1.158-8.87 1.158-.966-1.062-2.51-.098-4.44-2.22-.673 4.243-.288 6.75-.48 9.355.48 2.026-.29 4.245 0 6.464-.097.096-.097.19-.19.29-.772-.1-.966-.966-1.255-1.544.577-1.93.48-3.857 0-5.787-.386-.48 0-1.35.096-2.312-1.062-1.446-.19-3.567-.963-4.917.482-1.543-.192-3.184-.098-4.727-.866-1.543.29-3.568-.578-5.11 0-1.35-1.832-2.7-.288-3.76.096-.1.288-.194.48-.292.39.097.873.192.97.577zM1255.52 1197.805c2.702.48 4.92.965 7.813.578 5.014 2.123 10.8-.867 15.524 2.604 2.604.578 5.883.674 8.293 1.928 4.05 1.352 8.293 1.932 11.765 4.727 1.446 1.93 2.51 3.664 3.567 5.688-.19 1.932-.096 4.146-1.83 5.016-3.666 1.445-7.522 2.123-11.09 3.955-7.715.192-14.852 2.99-22.084 1.735-3.473.77-6.848-.096-10.317.482-5.978-.387-11.477-2.797-17.262-3.857-1.254-1.06-6.172-1.93-2.22-3.473 2.605-.48 4.245 1.447 6.56 2.025 1.35.29 2.604 1.832 4.146 1.832 5.883 1.06 10.992 2.12 17.356 1.352 5.496 1.35 11.478 0 16.974-1.158 5.207-.385 9.932-1.832 14.754-3.182 2.313-1.062 1.445-2.99 2.508-5.498-1.254-.867-.87-2.7-1.735-3.47-1.542-1.737-4.628-2.605-6.56-3.763-3.18-.48-6.36 0-8.677-1.832-2.604-.48-5.594.193-7.62-1.832-8.677-1.446-17.452-.77-25.552-2.796-4.727-.482-8.68-.676-12.536-3.086.193-.578 1.158-.29 1.543-.48 5.98-.388 10.803 2.987 16.684 2.507zM1242.792 1168.777c1.062 0 2.604-.098 3.763-.192 2.797-1.735 7.135 0 10.414.388 2.023-1.158 5.398-.482 7.52-.677 3.086-.77 7.137.192 10.705.192 6.268 0 13.5-.192 19.768-.48.965-.098 1.93-.677 2.797-.29.1.097.193-.098.29-.098-2.218 1.446-4.92 1.543-7.136 2.508-3.184 2.797-6.848 4.243-10.223 6.364-4.05 1.832-8.196 3.183-11.86 5.98-1.158.577-2.217 1.253-3.375 1.83l-2.797 1.35 3.184.194c7.52.482 14.562-1.35 22.275-.29 3.086 0 5.98-1.253 8.97-.675.77-.096 1.733 0 2.41 0-.1.194 0 .58-.1.677-.77 0-1.444.192-2.118.674-.774.39-1.74.39-2.606.58-2.604.29-5.207-.097-7.81.482-7.042.192-13.888-.675-20.733.097-3.183-.58-6.364 1.06-9.45.192-2.024.48-4.63-.58-6.172.578-4.63-.482-9.162-1.254-13.98-1.254-1.063-.387-2.702 0-3.186-1.157-.096-.098.58-1.063.58-.58 5.207-1.35 9.643 1.736 15.62 1.06 3.087-.384 6.27 0 9.548-.962.965-1.352 2.412-1.254 3.473-2.12 1.93-.292 3.857-.772 5.11-2.124 4.92-2.41 9.933-3.277 13.888-6.846 1.157-.482 2.313-1.062 3.567-2.12 0-.292 2.797-1.544 2.797-1.835-.096-.19-2.988.482-2.988.098-3.762 0-7.23-.675-10.223.387-5.4-1.35-10.994-1.446-16.78-.192-4.145-.48-8.39-1.06-12.437-.29-3.375-1.444-7.137 1.544-10.224-1.155-.288-.87-1.832-.578-1.735-1.64 3.276-.58 6.073 1.252 9.255 1.347zM1274.036 1142.548c3.763.29 7.62 1.158 11.67 1.642 4.916.578 10.027 1.156 14.656 3.47 2.41 2.41 5.4 3.665 7.33 6.848.29 1.735 1.543 1.446.965 3.567.096.29-.192 0-.192-.385-2.22.097-1.158-.482-2.798-2.7-2.508.77-4.34-.386-6.172.386-7.715-.482-14.37 0-21.89.77-1.833.868-4.147.868-6.27.58-1.35-.483-2.796.48-4.436.19-5.017-.288-10.61-.288-15.527.387-3.664-.19-7.232 0-10.992.387-1.446-.29-3.085-.77-5.11-.193-.578 1.352-1.254 1.062-.77 2.22-.194.19-.387.48-.678.675-.29-.098-.578 0-.866-.29.385-2.797 2.22-4.34 3.952-6.462 3.375-3.085 7.716-4.53 11.38-7.52 2.41-1.544 4.918-1.737 7.522-2.798 3.277-.48 6.943-.29 10.125-.965 2.7.672 5.304.48 8.1.19zm-15.236 2.41c-3.76-.19-6.365 1.544-9.933 2.605-.192.192-1.06 1.062-1.543 1.35-2.7 1.93-5.883 2.798-8.774 6.654 3.47-.29 5.207.965 6.846.29 2.412.288 4.533-.966 6.943-1.063 3.472 1.062 7.23.192 10.8.675 3.28.386 6.848-.386 10.223-.58 5.98-2.313 12.922-.674 19.094-1.35 2.988 0 6.46-.48 11.187.097-1.832-3.857-5.11-4.53-7.328-5.785-5.69-1.543-11.38-2.508-17.262-3.086-1.158-.193-2.604.29-3.666-.387-5.305.29-11.67-1.542-16.588.58zM1229.1 1098.672c.866.387.866 1.64 1.35 2.314-.772 3.086 2.024 1.35 1.157 5.015.674 1.063 1.64.772 3.28 1.158 0-.676.19-.58.19-.482 5.4-.097 15.526 1.735 20.926 0 2.508.29 5.4-.77 8.485.482.482-3.568.965-2.122.677-4.532.385-.675.385-1.64 1.254-1.735-.098.193-.098.29 0 .386.095.965 0-.385.384.098.676 2.893-.29 1.93-.19 5.785 9.544 0 19.093-1.64 27.675.097 3.086 0 5.688-1.352 8.678-1.254 1.834.964 4.05-.965 6.076.29.096.386.385.77-.097.964-4.82.578-9.838.77-14.37 1.64-4.34-1.735-9.353-.098-13.98-.58-2.7 1.16-7.62-.964-10.125.964-.87.1-1.736-.384-2.51-.48-2.988-.575-6.363-.385-9.546-.48-4.436 1.833-14.368.58-19.286.58-3.183.577-6.27-.29-9.064-1.157-.77-1.158-1.06-2.8-1.158-4.438-.192-2.604-.288-.482-.674-2.604-.098.194-.387-.384-.29-.48.192-.386-.576-1.35-.287-1.64.574.19.766-.39 1.442.092zM1255.52 1065.31c2.702.48 4.92.962 7.813.577 5.014 2.12 10.8-.867 15.524 2.604 2.604.58 5.883.676 8.293 1.93 4.05 1.35 8.293 1.93 11.765 4.726 1.446 1.93 2.51 3.664 3.567 5.69-.19 1.927-.096 4.145-1.83 5.015-3.666 1.446-7.522 2.122-11.09 3.954-7.715.192-14.852 2.988-22.084 1.734-3.473.77-6.848-.096-10.317.482-5.978-.386-11.477-2.797-17.262-3.857-1.254-1.06-6.172-1.93-2.22-3.47 2.605-.483 4.245 1.444 6.56 2.022 1.35.29 2.604 1.833 4.146 1.833 5.883 1.062 10.992 2.12 17.356 1.35 5.496 1.35 11.478 0 16.974-1.157 5.207-.384 9.932-1.83 14.754-3.18 2.313-1.063 1.445-2.99 2.508-5.497-1.254-.87-.87-2.7-1.735-3.473-1.542-1.736-4.628-2.604-6.56-3.76-3.18-.482-6.36 0-8.677-1.833-2.604-.48-5.594.19-7.62-1.833-8.677-1.446-17.452-.77-25.552-2.797-4.727-.48-8.68-.676-12.536-3.086.193-.577 1.158-.288 1.543-.48 5.98-.386 10.803 2.99 16.684 2.51zm-21.406 12.823c.29.29.482.48.482.965-.29.29-.676.48-1.158.48-1.447-.77-2.99-.096-4.436-1.06-.388-.098-1.158-.387-1.062-.868.674-.387 1.252-.676 2.41-.578 1.74-1.638 2.508.675 3.764 1.06zm.578-9.067c.29.29.482.482.482.965-.29.29-.676.483-1.158.483-1.543-.77-3.568.096-5.014-.87-.388-.095-1.158-.384-1.062-.866.674-.48 1.64-1.06 2.797-.965 1.737-1.637 2.7.87 3.955 1.254zM1296.505 1042.742c-3.472 2.507-7.906 2.12-11.088 4.82-1.257.387-2.605 1.062-3.666 1.736-2.987-.098-6.075 1.832-10.124 3.664 2.604 1.06 4.53.77 5.883.387 5.687 0 10.702-.966 16.68-.1 1.642 0 3.667-.48 5.112.194 2.797.096 6.076-.676 8.485.675l.193.19c-2.025.58-4.63.386-6.654.29-1.735-.48-3.567.192-5.496.192-3.762.097-7.715-1.254-11.09.386-3.086.387-5.98-1.06-8.97 0-2.698.868-5.4-.482-7.907.77-4.63-.77-10.606.098-15.62-.77-5.69 0-11.478.387-17.068-.578-3.086-.097-4.34-.676-7.232-1.254-.098 0 .48-.675.48-.867 3.088-1.833 4.146-2.413 7.426-3.665 4.532-1.832 9.353-1.447 13.886-2.7 6.365.096 12.633.964 17.262 7.04 8.486-5.11 17.552-5.69 25.748-10.127 3.664-1.156 7.04-2.988 10.703-4.146.577 0 1.542-.386 2.218-.192-2.99 1.737-6.077 3.087-9.163 4.052zm-54.29 6.363c-1.255.387-2.798-.096-3.954.676-1.544-.19-2.99.676-4.243 1.157l-2.314 1.64c.867.098 4.244.387 5.207.58 1.254 1.253 3.474.675 5.017 1.06 7.135-.964 15.14.193 23.723-.19-1.254-1.544-2.508-1.93-3.182-2.605-1.353-1.35-5.11-2.797-7.62-3.856-4.34.577-8.97-.388-12.634 1.54zM1306.245 1021.814c-.965 2.123-3.278 2.314-4.918 3.474-2.22 1.155-4.63 2.313-7.137 2.604-.674.385-1.64.48-2.41.578-6.46 1.156-12.73 3.76-19.48 3.952-4.628.966-9.737.48-14.753.386-4.146 0-9.45-1.156-13.597-2.988-2.024-.48-4.244-1.254-5.688-2.508-2.123-.578-3.762-2.12-5.594-3.277-.388-.676-.867-1.352-.867-2.025 0-.096-.098-.193-.098-.193 1.93.482 3.763 1.93 5.69 3.086 1.542.87 2.41 2.025 4.05 2.412 2.797.578 5.017 2.506 7.908 2.313 5.303 1.35 11.088 1.253 17.453.868-.963-2.22.676-3.086-.096-4.436.096-.58.192-.965.385-1.353.29-.29.482-.578.867-.29.19.193.29.29.48.482-.19.58.193.964.482 1.253-.29 1.254 0 2.51-.19 4.052 4.725.48 7.905-.868 11.764-1.062 1.64-.77 4.146-.965 6.172-1.543 1.832-.578 4.05-.578 5.787-1.64 1.444.192 3.084-.29 4.24-1.735 2.51.096 4.438-1.736 7.33-2.313v-.48c.48-.194 1.446-1.256 2.603-.87-.094.482-.19.87-.383 1.252zM1305.763 1008.895c.29.098.48.192.676.387-.868 2.218-3.474.965-5.497 1.543-1.736.29-3.375 0-5.11.096-4.728.1-9.45-.095-13.982 0-2.41 0-5.593.194-8.102-.095-1.64-.193-3.664 0-5.305.096-3.953.388-7.713 0-11.86.29-.19-.19-.386-.19-.58-.19-1.732.866-3.662.095-5.302.384-3.952.193-7.714.58-11.57.58-2.7-1.158-5.496.578-8.294-.098-.387-.097.578-1.156.867-1.156 4.244-2.894 9.16 1.156 13.887-.192 5.595-1.544 11.86-.966 17.357-1.255s10.705.193 16.297 0c1.543-.192 3.086-.192 4.728-.192.385 0 .866.098 1.254.098 4.242-.097 8.485-.097 12.246-.675 2.89.766 5.3.285 8.29.382zM1242.792 981.51c1.062 0 2.604-.098 3.763-.193 2.797-1.736 7.135 0 10.414.387 2.023-1.158 5.398-.482 7.52-.676 3.086-.77 7.137.193 10.705.193 6.268 0 13.5-.192 19.768-.48.965-.1 1.93-.677 2.797-.292.1.098.193-.096.29-.096-2.218 1.446-4.92 1.543-7.136 2.508-3.184 2.797-6.848 4.242-10.223 6.365-4.05 1.832-8.196 3.182-11.86 5.98-1.158.577-2.217 1.253-3.375 1.83l-2.797 1.35 3.184.194c7.52.48 14.562-1.35 22.275-.29 3.086 0 5.98-1.256 8.97-.676.77-.098 1.733 0 2.41 0-.1.193 0 .578-.1.676-.77 0-1.444.19-2.118.674-.774.387-1.74.387-2.606.58-2.604.29-5.207-.098-7.81.48-7.042.193-13.888-.674-20.733.098-3.183-.578-6.364 1.06-9.45.193-2.024.48-4.63-.58-6.172.576-4.63-.48-9.162-1.25-13.98-1.25-1.063-.388-2.702 0-3.186-1.16-.096-.096.58-1.06.58-.577 5.207-1.35 9.643 1.736 15.62 1.06 3.087-.384 6.27 0 9.548-.963.965-1.35 2.412-1.253 3.473-2.12 1.93-.29 3.857-.772 5.11-2.123 4.92-2.41 9.933-3.277 13.888-6.846 1.157-.48 2.313-1.06 3.567-2.12 0-.29 2.797-1.544 2.797-1.833-.096-.192-2.988.48-2.988.097-3.762 0-7.23-.676-10.223.385-5.4-1.35-10.994-1.446-16.78-.192-4.145-.48-8.39-1.06-12.437-.29-3.375-1.444-7.137 1.544-10.224-1.156-.288-.868-1.832-.577-1.735-1.64 3.276-.583 6.073 1.25 9.255 1.347zM1302.194 949.012c.77.387 1.543 0 2.412.192.674 0 1.156.192 1.734.577.098.483-.48.87-.77 1.352-.677.87-1.448-.48-1.642-.48-.193-.386-1.158.48-2.12-.964-1.932.578-3.665.578-5.016.192-2.7.288-5.69-.48-8.295.578-1.06.097-1.64 1.35-2.12 1.93-.097 0-.482 1.156-1.35 1.542-1.255 1.157-3.087 2.99-3.665 3.473-.48.48 0-.58-.87.385-.48.387-.288.578-.964 1.64-.867 1.062-2.604 2.894-2.988 3.375-.577 1.157-1.157 2.507-1.832 4.052 2.025 1.35 4.052.963 5.4 1.83 1.736.098 3.857.482 5.69.965 1.06-.867 1.83.193 2.603.193 1.063.578 2.7.482 3.954 1.06 2.41.388 4.533 1.833 7.232 1.352.965.192 2.123.58 3.086.87-.096.19-.193.384-.385.384-1.64.288-3.087-.578-4.533-.482-.385-.29-.674-.385-1.062-.29-.77-.095-1.543-.288-2.22-.288-1.54-.482-2.603.386-5.108-1.254 0 1.447.193.578.193.578-1.447-.386-3.473-.963-5.402-.867-1.155-.77-2.602-.482-3.76-.77-2.7-.29-4.533-1.35-7.137-1.157 0 0-.096-.098-.19-.098-.773-.482-1.642-.193-2.124-.675-5.883-1.64-11.86-3.278-17.744-4.92-1.35-.673-2.506-.964-3.952-1.542-1.93-.674-3.76-1.83-5.785-2.604-2.025-.77-3.953-2.024-6.27-2.698-.58-.29-1.542.19-1.542-.77 0-.29-.288-.966-.097-1.062.676-1.062 2.604-1.062 3.567-1.543 2.314-.193 5.593-.676 8.39-1.254 1.06-1.254 2.7-.29 3.955-.77 4.725.192 9.643-2.22 15.043-1.544 6.848-1.062 14.465-1.642 20.926-1.062 4.924.38 9.844-.102 14.76.574zm-29.218 1.638c-1.254-.482-3.182.676-5.11.29-2.314-.388-4.82.386-7.136.77-2.22-.385-3.955.965-6.172.77-1.447.193-3.857.193-5.787.58-3.18.577-6.073 1.445-9.737 1.735 1.445 1.64 4.05 2.795 4.437 2.893 2.024.676 3.664 1.832 5.496 2.41 2.797.965 5.207 1.93 7.81 2.7 1.835.48 4.245 1.062 5.884 1.35 1.832-.095 4.437 1.544 6.943 1.93 1.447.192.77.868 2.797.29.77-1.833 1.928-3.088 2.604-4.727.866-1.155 1.35-1.253 2.604-2.603.867-.867 1.736-2.22 2.7-3.473.868-.963 2.024-2.023 2.603-2.7 0-.19 1.157-1.445 1.157-2.218-1.35-.287-2.893-.287-3.762-.385-2.603-.38-4.63.006-7.33.39zM1308.946 909.475c-7.62 3.375-14.178 7.81-20.83 12.246-.58.29-.77 1.062-2.024 1.062-3.086 3.086-6.943 3.375-9.74 6.172-2.506 1.254-5.303 2.7-8.197 4.92.388.288 1.062.578 1.353.77 2.022.965 4.05.193 5.88.29 5.788.192 11.09-.77 16.202-.868 4.918 0 9.45-1.156 13.79-.674.097.19.097.48.097.867-.29 2.218-2.797.675-3.857 1.06-4.63.58-8.678.677-13.692.867-6.172.387-12.248.098-18.418.772-4.146.385-7.908 0-11.86.867-6.56-.77-13.214 2.604-19.77 1.253-1.544 0-3.088.772-4.727.386-.676-.482-3.762.098-2.22-1.35 5.017-.77 10.224 0 15.335-.676 7.715-.29 15.912-.77 21.6-5.69.965-.288 1.736-.964 2.412-1.444 2.41-1.447 5.015-2.508 7.04-4.63 2.024-.675 3.856-1.83 5.495-2.99 2.895-2.892 6.752-3.952 9.934-6.17 0-.386.288-.29.48-.386.868-.387 1.542-1.158 2.605-1.93 0-.387 2.796-.965 2.7-1.254-.097-.29-3.28-.192-3.568-.385-4.437.964-9.933 1.35-15.043 1.833-5.496.48-9.16 1.543-14.37 1.64-1.83-.386-4.436 1.446-6.268-.097-2.024 0-3.182-.098-4.82.48-1.446 0-2.895-.19-4.628-.19-.388-.098-.773.288-1.158.288-1.64 1.06-2.508-1.447-3.762-.29-.578.193-1.156.675-1.734-.192-3.086.867-5.498.387-8.103-1.06-.865.384-1.154-.098-1.542-.387v-.29c.29-.675.87.29.87.19 0 0 .577.483 1.155-.095.387-.578 1.254.676 1.447.385 3.277.77 7.135.58 10.8.1 3.376.577 8.485-.39 11.67.288.673-.097 1.542-.677 2.7-.29 1.06-.965 2.506-.098 3.277-.676 4.05-.29 8.39-.963 12.537-.963 3.952-.387 8.293-.77 11.475-1.254.675.192 1.446-.387 2.12.097 1.64-.386 2.313-.386 3.567-.58 2.51-.48 5.69-.867 7.906-1.35.387 0 .87-.288 1.447-.964-.482-.867.58-.48.676-.48.867-.387 2.314.384 3.762-.098-.002.29.094.58-.002.87zM1274.036 884.884c3.763.29 7.62 1.157 11.67 1.64 4.916.58 10.027 1.158 14.656 3.473 2.41 2.41 5.4 3.664 7.33 6.848.29 1.734 1.543 1.445.965 3.566.096.29-.192 0-.192-.386-2.22.098-1.158-.48-2.798-2.7-2.508.772-4.34-.384-6.172.388-7.715-.482-14.37 0-21.89.77-1.833.868-4.147.868-6.27.58-1.35-.483-2.796.48-4.436.19-5.017-.288-10.61-.288-15.527.387-3.664-.194-7.232 0-10.992.384-1.446-.29-3.085-.77-5.11-.19-.578 1.35-1.254 1.06-.77 2.217-.194.193-.387.482-.678.678-.29-.098-.578 0-.866-.29.385-2.798 2.22-4.34 3.952-6.462 3.375-3.086 7.716-4.533 11.38-7.52 2.41-1.544 4.918-1.736 7.522-2.8 3.277-.48 6.943-.288 10.125-.962 2.7.67 5.304.48 8.1.19zm-15.236 2.41c-3.76-.19-6.365 1.544-9.933 2.605-.192.19-1.06 1.06-1.543 1.35-2.7 1.93-5.883 2.798-8.774 6.655 3.47-.29 5.207.963 6.846.287 2.412.29 4.533-.963 6.943-1.06 3.472 1.06 7.23.19 10.8.675 3.28.385 6.848-.386 10.223-.578 5.98-2.315 12.922-.677 19.094-1.353 2.988 0 6.46-.48 11.187.098-1.832-3.857-5.11-4.533-7.328-5.785-5.69-1.545-11.38-2.508-17.262-3.086-1.158-.193-2.604.29-3.666-.388-5.305.29-11.67-1.543-16.588.58zM1240.093 869.357c1.444.193 2.41 1.64 4.05 1.64 3.085 1.544 5.978 2.315 9.74 2.508.58.29 1.542.386 2.218.58 2.122.19 4.05 1.155 6.077 1.155 1.252.387 2.988-.29 4.146 1.255 1.54-.388 2.7-.77 3.664-1.255.385-.77 1.445-1.735 1.35-2.797.675-1.06.097-1.928.578-3.278.578-1.83.578-2.894 1.543-4.82.482-.387.966-.772 1.543-.676.387.964 0 2.12 0 3.277-1.253 2.508-1.06 3.857-1.927 7.138.77.48.482.866.77 1.06 2.41.387 5.015.098 7.04-.386 1.254.19 2.313-.29 4.24-.29.388-1.157 1.255-.288 1.833-.58 3.474-.286 6.56-2.217 10.127-2.41 1.54-1.35 4.146-1.155 5.688-2.313 1.835.193 2.8-2.217 5.11-1.64 1.16-.866 2.22-1.93 3.667-1.93.386.292.77.58 1.156.966-.19 1.446-1.832 1.543-2.893 2.313-1.64.192-3.185.58-4.34 1.642-2.12-.1-3.375 1.734-5.4 1.64-.77.48-1.543.577-2.12.964-.772-.098-1.448.19-2.026.482-4.436 0-7.907 2.893-12.344 2.604-.578.385-1.64.385-2.217.48-4.727 1.64-10.223 1.352-15.043 1.254-2.22-.578-4.92 0-6.848-.963-5.98-1.063-11.767-3.475-17.455-5.018-2.7-1.062-5.207-2.698-7.715-4.05-2.795-1.542-6.074-2.604-8.1-5.398 0-.193 0-.482.192-.578 4.345 2.794 8.877 5.3 13.7 7.42zM1296.505 842.357c-3.472 2.508-7.906 2.12-11.088 4.822-1.257.384-2.605 1.06-3.666 1.734-2.987-.097-6.075 1.832-10.124 3.665 2.604 1.06 4.53.77 5.883.384 5.687 0 10.702-.965 16.68-.098 1.642 0 3.667-.48 5.112.193 2.797.097 6.076-.677 8.485.675l.193.193c-2.025.577-4.63.385-6.654.29-1.735-.483-3.567.19-5.496.19-3.762.097-7.715-1.254-11.09.386-3.086.388-5.98-1.062-8.97 0-2.698.867-5.4-.48-7.907.77-4.63-.77-10.606.098-15.62-.77-5.69 0-11.478.388-17.068-.577-3.086-.098-4.34-.676-7.232-1.255-.098 0 .48-.675.48-.866 3.088-1.834 4.146-2.412 7.426-3.666 4.532-1.832 9.353-1.445 13.886-2.7 6.365.098 12.633.964 17.262 7.04 8.486-5.11 17.552-5.69 25.748-10.125 3.664-1.156 7.04-2.99 10.703-4.146.577 0 1.542-.388 2.218-.194-2.99 1.738-6.077 3.09-9.163 4.05zm-54.29 6.368c-1.255.385-2.798-.1-3.954.674-1.544-.193-2.99.675-4.243 1.155l-2.314 1.64c.867.098 4.244.388 5.207.58 1.254 1.253 3.474.675 5.017 1.06 7.135-.964 15.14.193 23.723-.19-1.254-1.544-2.508-1.93-3.182-2.605-1.353-1.35-5.11-2.797-7.62-3.857-4.34.576-8.97-.39-12.634 1.542zM1298.915 831.074c0 .482-.674.77-1.06.87-1.446.962-3.472.095-5.015.866-.482 0-.867-.193-1.158-.48 0-.482.193-.678.387-.87 1.352-.386 2.698-2.603 4.34-.963 1.253-.097 1.83.192 2.505.577z"/></g><path d="M2048 0M2048 1536M0 1536M0 0" fill="none" stroke="#17192D" stroke-width="3"/></g></svg>