<svg xmlns="http://www.w3.org/2000/svg" width="2048" height="1536" viewBox="0 0 2048 1536"><g><g fill="#17192D"><path d="M1055.238 912.784c1.736 2.025 2.895 4.05 4.63 6.463.29 2.312 1.93 2.312 1.544 4.146-1.545 2.12-2.412 1.06-4.244 1.156-5.98-.772-13.02.48-18.805.866-5.207-.385-8.1.387-15.237.58-1.832.77-4.436.29-6.46 0-2.122.867-5.69.482-8.005-.193-7.714.965-14.077.193-21.6.578-.58-.095-1.446.388-1.06-.288 0-.096.097-.482.097-.578.19-.193.29-.482.482-.87-.1-.673-.194.29.288.29.867-1.06 1.252-2.988 2.7-2.988.77-1.06 1.542-1.64 2.41-1.928 1.735-1.64 2.7-3.088 5.015-3.088 3.953-3.182 8.97-2.795 13.5-2.795 4.533 1.543 8.293 3.953 12.15 8.97 1.64-1.835 1.543-4.34 2.604-4.823.676-1.64 1.93-2.99 3.473-4.63 3.086-2.12 5.785-2.507 9.064-3.76 3.762-2.605 7.81 1.253 11.572-.194 1.93.387 3.665 2.412 5.882 3.086zm-56.895 4.822c-2.12 2.797-4.05 1.254-5.785 5.11-.29.194-.58.388-1.06.097-3.667 1.64.288 1.832 1.83 1.93 3.183-1.06 4.726.19 7.907.096 3.28-1.062 7.04.386 10.512-.58 1.06-.288 1.832-.095 2.797-.095 2.12-.482 3.568.48 7.81 0-2.99-2.508-3.663-3.184-5.206-4.244-2.22-.964-4.244-2.507-6.268-3.663-4.34-.965-8.873-.194-12.537 1.35zm31.536-2.796c-2.606 2.508-3.57 4.244-6.078 9.45 2.7 0 4.05-.866 5.208-.48 4.822-2.026 9.258.866 14.27-.386 3.185-1.158 6.56 0 9.84-1.158 1.155.578 4.626.578 5.495.193.096-.194-.87-1.16-.58-2.41-1.35-1.93-2.604-4.052-3.664-6.366-2.12-.193-3.374-.578-4.82-1.447-3.085-.578-6.462-2.314-9.837-1.156-3.375 1.156-6.652 2.12-9.834 3.76zM1059.676 891.09c-.965 2.12-3.28 2.313-4.918 3.47-2.22 1.158-4.63 2.314-7.137 2.604-.675.387-1.638.482-2.41.58-6.46 1.156-12.73 3.76-19.48 3.953-4.628.965-9.74.482-14.753.385-4.146 0-9.45-1.156-13.598-2.988-2.024-.482-4.243-1.254-5.69-2.508-2.12-.578-3.76-2.12-5.592-3.28-.387-.673-.87-1.35-.87-2.022 0-.098-.095-.193-.095-.193 1.93.483 3.76 1.93 5.69 3.087 1.542.867 2.41 2.023 4.05 2.41 2.795.578 5.014 2.508 7.906 2.314 5.304 1.35 11.09 1.255 17.454.868-.965-2.217.674-3.086-.098-4.436.098-.578.193-.965.387-1.35.29-.29.482-.578.867-.29l.482.483c-.19.578.193.965.482 1.254-.29 1.25 0 2.505-.19 4.048 4.724.482 7.906-.867 11.763-1.06 1.64-.772 4.146-.966 6.172-1.544 1.83-.578 4.048-.578 5.784-1.64 1.447.194 3.086-.288 4.244-1.735 2.508.095 4.436-1.737 7.328-2.315v-.482c.482-.193 1.447-1.254 2.604-.867-.095.48-.193.866-.384 1.253zM1054.758 859.94c-1.158.87-2.7 1.447-3.857 2.412-4.726 1.35-9.835 2.604-14.946 2.604-3.666.578-7.426 1.35-10.995 2.218-1.93-.192-4.147-.578-6.364-.096-.29.77-.29 1.06-1.447 1.35 1.06 2.797 3.276 4.726 4.34 6.75.577.288 1.155 1.06.964 1.735-.387 1.158.19 1.158.867 1.832.868 0 1.64.098 2.412.482 2.025-.674 3.568-.674 5.207-.096 1.83 1.062 3.376.29 5.4 0 3.856-.577 7.52-1.446 11.476-1.638 3.086-.098 6.172-.098 9.45-.098.29.098.58.193.48.482 0 .29-.384.578-.673.676-4.822.29-9.45.48-13.695 1.832-3.182-.098-5.785.867-8.773.578-7.137-.676-14.66 0-21.41.867-2.99-.675-5.304.58-8.196.386-7.522-.578-15.335-.578-21.987-2.797-.965-.29-.482-1.062-.965-1.737.096-.29.578 0 .77-.096 2.315.482 4.34 1.543 6.655 1.445l.19.193c3.956-.193 7.62 1.06 11.09.87 2.606 1.444 5.5-.388 8.294.095 3.568.578 6.56-.676 10.03-1.158.48-.385 1.157-.77 1.83-1.54-1.155-3.087-4.724-5.016-5.108-7.523.48 0-.677-.772-.194-2.315-2.99-.867-5.4.29-7.62-.77-1.83-.482-3.663.48-5.59-.58-2.605 1.255-4.92.098-7.427.29-1.448-1.253-2.026 1.254-3.76.097-1.642.48-3.858.77-5.21 0 .098-.386.098-.676 0-1.06 1.447-.87 3.473.288 4.92-.87 2.12-.192 3.664.965 5.785.58 6.172-1.157 13.018.19 19.285-.193 4.34-.194 9.067.48 13.213-.965 6.557-1.062 13.404-1.93 19.576-3.183 1.54-.964 3.374-2.025 5.302-1.93.29.29.578.485.676.87zM1057.457 826.77c.098.48-.385 1.06-.578 1.445-.29.772-1.062.387-1.737.193-.482-.578-1.156.29-2.314-.77-1.737 1.06-3.567 1.253-4.823 1.157-2.602.674-7.23.77-9.643 2.024-.963.096-.867 1.445-1.736 2.313-.19.097-.096 1.06-.867 1.64-2.41 3.472-4.34 6.364-6.556 10.125-.29 1.446-.77 2.893-.77 4.436 1.83.868 5.302.193 6.75.772 1.735-.098 3.856-.098 5.688 0 .867-1.062 1.832-.193 2.604-.387 1.254.386 2.797 0 4.05.386 2.315-.193 4.92.77 7.425 0 .966-.193 2.413.096 3.376.192-.096.29-.19.578-.48.675-1.543.58-3.184 0-4.725.29-.192-.098-.386-.193-.868 0-.676 0-1.447.096-2.12.192-1.737-.386-2.413.77-5.208-.386v.674c-1.352-.29-3.568-.386-5.402 0-1.252-.386-2.7.097-3.76 0-2.604.29-5.207-.58-7.52.29-.1 0-.29-.098-.29-.098-.387-.48-1.06.098-1.832-.385-6.077-.386-12.25-.77-18.42-1.253-1.445-.58-2.893-1.254-4.242-.77-1.93-.387-4.05-.966-6.076-1.448-2.023-.482-4.146-1.254-6.652-1.447-.58-.192-1.64.482-1.736-.578-.098-.386-.77-.868-.193-1.157.58-1.446 2.22-1.543 3.183-2.12 2.123-.58 5.305-1.737 7.715-2.798.965-1.446 2.605-.965 3.762-1.543 4.918-.675 9.16-4.147 14.658-4.437 6.363-2.41 13.885-4.242 20.444-5.014 4.725-.482 10.125-1.64 14.562-2.314.578.193 1.445-.29 2.408-.193.575 0 1.25.096 1.925.29zm-71.168 23.336c.29.385-.58.675-.966.77-1.252.87-2.7-.385-4.05.194-.386-.097-.577-.193-.866-.386-.098-.386.096-.676.385-.868 1.156-.192 2.025-1.832 3.182-.192 1.35-.097 1.83.192 2.314.482zm36.932-15.334c-3.76-.482-7.04 1.64-10.318 2.7-2.217-.192-3.76 1.543-5.98 1.93-3.76 1.253-8.966 1.64-12.052 5.593 1.252.867 1.64 1.156 1.928 1.35 4.63 1.93 9.74 1.64 14.562 1.93 1.832.096 4.05.867 5.785.867 3.182-1.062 4.533 1.735 8.198.29.29-2.122 1.445-3.665 1.832-5.4 2.12-2.99 3.28-6.943 6.268-10.32-.29-.288-.193-.385-.193-1.156-3.953-.194-6.75.674-10.03 2.216zm-37.898 6.944c.098.29-.674.58-.963.676-1.253.868-2.12 0-3.374.578-.482 0-1.254.097-1.64-.29-.097-.288-.097-.48.192-.675 1.35 0 1.928-2.41 3.473-.867 1.157-.097 1.833.193 2.314.578zM1054.275 804.88c-.29 2.024.096 3.76.77 5.4-.097.48-.48.964-.77 1.06-1.254 1.833 1.156 5.11-2.025 6.075-1.06.29-2.22-.192-3.086.58-3.375 1.253-4.436.288-7.715.577-2.894.193-6.366-1.253-9.163 0-1.54 0-2.795-.578-4.146-.77-3.664 1.35-7.81-.677-11.667.288-2.795.192-5.014-.965-7.81.29-.58.096-1.062.096-1.544.288-5.69 0-11.573-.578-17.165.097-2.797 0-5.498-.097-8.006-1.446-.483-.387.097-.966.58-1.158.675 0 1.638-.193 2.698.675 2.025-.868 3.857.097 5.594-.29 1.445.387 3.086.483 4.63.098 3.278-1.93 6.75.29 10.124.192 3.28-.097 6.557-1.35 9.934-.964 3.47.48 7.52.77 11.09.386 1.156-.387 2.506.19 3.568-.194 1.06.193 2.506.097 3.47.77 1.35-.19 2.99-.48 4.34-.867.772.385 1.93.29 2.605.48 3.664.29 4.436.772 7.81-.385 2.22.77 1.35-1.543 3.28-2.025 1.254-.482.578-1.06.578-1.735-.288-1.543 1.255-2.7.58-4.05-.483-1.254-.097-2.893-1.062-4.243-.096-.387-.096-.868.387-.868 1.253-.29 1.445.963 2.12 1.736zM976.935 776.432c.193 1.64.867 2.797 1.158 4.532-.58 2.604-.098 4.92.867 8.102 1.35-.676 2.314-.482 2.797-.29 1.832-.192 4.146.29 5.98.192 1.735-.385 3.856-.578 5.59-.578 2.702-1.35 6.077-1.735 8.778-2.314 1.543.386 3.375 0 4.82.193 6.56 0 13.31-1.64 19.48-2.508 1.157.096 2.894-.193 3.954.096.192-.096.675-.096.77-.193 4.822-.192 8.68-.29 13.5-.29 2.22 0 4.148.388 6.172.483h-.096c-2.508 1.832-5.98 1.157-8.68 1.735-3.953-.964-8.1 1.062-12.342-.578-2.508 2.604-5.5.578-8.102 1.446-2.41-.288-5.305-.19-7.328 1.062-.965-.096-1.834.29-3.184-.192-2.314 1.35-5.207.675-7.617.675-3.953-.867-7.137 1.736-10.896 1.254-2.7 1.35-5.787 1.156-8.873 1.156-.963-1.06-2.508-.097-4.436-2.218-.674 4.242-.29 6.75-.482 9.354.482 2.025-.29 4.243 0 6.46-.096.098-.096.194-.19.29-.774-.096-.966-.964-1.257-1.543.58-1.93.48-3.858 0-5.787-.386-.48 0-1.35.097-2.313-1.06-1.446-.193-3.568-.965-4.918.482-1.543-.19-3.183-.096-4.726-.867-1.543.29-3.568-.578-5.11 0-1.35-1.834-2.7-.29-3.762.097-.096.29-.192.48-.29.39.096.87.193.967.578zM1059.193 739.595c.29.097.482.192.674.386-.867 2.22-3.47.966-5.496 1.544-1.733.29-3.374 0-5.108.097-4.727.097-9.45-.096-13.984 0-2.41 0-5.592.193-8.1-.096-1.64-.193-3.665 0-5.305.097-3.953.386-7.713 0-11.86.29-.192-.193-.386-.193-.58-.193-1.735.868-3.663.097-5.304.386-3.954.193-7.716.58-11.57.58-2.702-1.158-5.497.577-8.296-.098-.385-.097.58-1.157.87-1.157 4.24-2.893 9.16 1.157 13.886-.192 5.592-1.543 11.86-.965 17.357-1.254s10.704.192 16.297 0c1.543-.193 3.086-.193 4.727-.193.386 0 .868.096 1.253.096 4.244-.097 8.486-.097 12.248-.675 2.893.77 5.303.29 8.293.385zM1054.758 709.027c-1.158.867-2.7 1.446-3.857 2.41-4.726 1.35-9.835 2.604-14.946 2.604-3.666.58-7.426 1.352-10.995 2.22-1.93-.193-4.147-.58-6.364-.097-.29.77-.29 1.06-1.447 1.35 1.06 2.797 3.276 4.726 4.34 6.75.577.29 1.155 1.062.964 1.736-.387 1.156.19 1.156.867 1.83.868 0 1.64.098 2.412.483 2.025-.675 3.568-.675 5.207-.097 1.83 1.06 3.376.29 5.4 0 3.856-.578 7.52-1.446 11.476-1.64 3.086-.096 6.172-.096 9.45-.096.29.097.58.192.48.48 0 .29-.384.58-.673.677-4.822.29-9.45.482-13.695 1.832-3.182-.098-5.785.867-8.773.578-7.137-.676-14.66 0-21.41.867-2.99-.675-5.304.58-8.196.386-7.522-.577-15.335-.577-21.987-2.795-.965-.29-.482-1.062-.965-1.736.096-.29.578 0 .77-.098 2.315.482 4.34 1.543 6.655 1.447l.19.19c3.956-.19 7.62 1.062 11.09.87 2.606 1.445 5.5-.387 8.294.095 3.568.58 6.56-.675 10.03-1.156.48-.388 1.157-.773 1.83-1.544-1.155-3.087-4.724-5.016-5.108-7.522.48 0-.677-.77-.194-2.314-2.99-.868-5.4.29-7.62-.77-1.83-.483-3.663.48-5.59-.58-2.605 1.255-4.92.097-7.427.29-1.448-1.254-2.026 1.254-3.76.097-1.642.482-3.858.77-5.21 0 .098-.386.098-.675 0-1.06 1.447-.87 3.473.288 4.92-.87 2.12-.192 3.664.966 5.785.58 6.172-1.158 13.018.192 19.285-.193 4.34-.193 9.067.482 13.213-.965 6.557-1.062 13.404-1.93 19.576-3.183 1.54-.965 3.374-2.025 5.302-1.93.29.29.578.484.676.87zM996.222 681.736c1.06 0 2.604-.097 3.76-.192 2.797-1.736 7.137 0 10.416.386 2.023-1.158 5.4-.482 7.52-.676 3.087-.77 7.138.193 10.705.193 6.27 0 13.502-.193 19.77-.482.965-.097 1.928-.675 2.797-.29.096.097.19-.096.29-.096-2.218 1.445-4.92 1.542-7.138 2.506-3.182 2.797-6.846 4.243-10.22 6.365-4.052 1.833-8.198 3.183-11.863 5.98-1.16.58-2.22 1.254-3.376 1.832l-2.797 1.35 3.182.193c7.52.482 14.562-1.35 22.277-.29 3.084 0 5.977-1.253 8.967-.674.77-.096 1.736 0 2.412 0-.098.193 0 .58-.098.676-.77 0-1.447.192-2.12.675-.772.387-1.737.387-2.605.58-2.604.29-5.207-.097-7.81.48-7.042.194-13.888-.674-20.736.098-3.182-.578-6.363 1.062-9.45.193-2.024.483-4.628-.578-6.17.58-4.63-.483-9.163-1.255-13.983-1.255-1.062-.385-2.7 0-3.184-1.157-.096-.096.58-1.06.58-.578 5.207-1.35 9.643 1.735 15.62 1.06 3.087-.385 6.27 0 9.548-.963.965-1.35 2.41-1.254 3.47-2.122 1.93-.29 3.858-.77 5.112-2.12 4.92-2.412 9.934-3.28 13.887-6.848 1.156-.482 2.314-1.06 3.568-2.122 0-.29 2.797-1.543 2.797-1.832-.096-.192-2.99.482-2.99.097-3.76 0-7.232-.675-10.223.386-5.4-1.35-10.994-1.446-16.78-.193-4.145-.48-8.39-1.06-12.438-.29-3.377-1.445-7.137 1.544-10.223-1.156-.292-.868-1.833-.578-1.737-1.64 3.28-.58 6.076 1.252 9.26 1.35zM1056.203 671.803c.098.097.193 0 .193.097-1.736.386-3.47-.29-5.016.386-1.06.676-2.41 1.254-3.76.58-.098-.677-.387-1.447-.193-2.315.193-.386.482.097.77-.192 2.895-.87 5.596.096 8.006 1.445zM1014.93 607c6.46 2.314 13.308 1.64 19.48 4.243 6.365 2.7 13.307 3.857 19.865 5.98.193.192.482.48.674.77-2.122.868-4.92-.867-7.427-.578-7.617-.58-14.754 1.93-22.758 2.99l-.385 1.735c8.68 1.735 16.008 5.4 24.012 6.942.29.193.77.29 1.06.482 1.737.097 3.858-1.06 5.112-.097-.096.676-.77.965-1.445 1.157-1.546-.192-2.702.868-4.15 1.254-8.58-.386-16.2 1.446-24.878 2.025-10.705.77-21.312 1.543-31.438 1.446-5.303.77-9.354.963-13.5.48-.387-.192-1.158 0-1.543-.096.29-.192.58-.482.868-.77 3.182-.676 5.98-.676 9.354-.965 14.658-1.16 30.764.095 45.807-2.412 2.698-.482 5.4-.29 8.292-.58 1.928-.674 1.06-2.603-.385-2.217-6.27-3.085-13.887-3.567-20.157-5.882-1.156-.385-2.988-.096-3.47-1.253.192-.386.577-.58.964-.77 6.557-2.123 13.694-2.894 23.53-5.4-6.076-2.22-9.645-2.605-12.44-4.244-7.04 0-11.86-2.892-18.902-2.892-5.4-2.025-11.764-1.157-17.164-3.472-4.436-.097-8.102-1.062-13.31-1.93-.095 0-.384 0-.48-.096.097-.192.192-.386.29-.675.77 0 1.252-.386 1.64-.58 10.895.873 21.89 3.96 32.88 5.405zM1059.676 583.857c-.965 2.12-3.28 2.314-4.918 3.472-2.22 1.156-4.63 2.313-7.137 2.603-.675.386-1.638.482-2.41.578-6.46 1.158-12.73 3.763-19.48 3.955-4.628.965-9.74.482-14.753.386-4.146 0-9.45-1.156-13.598-2.988-2.024-.482-4.243-1.254-5.69-2.507-2.12-.58-3.76-2.122-5.592-3.28-.387-.674-.87-1.35-.87-2.024 0-.095-.095-.19-.095-.19 1.93.48 3.76 1.928 5.69 3.085 1.542.867 2.41 2.025 4.05 2.41 2.795.58 5.014 2.508 7.906 2.314 5.304 1.35 11.09 1.253 17.454.867-.965-2.218.674-3.086-.098-4.436.098-.578.193-.963.387-1.35.29-.29.482-.578.867-.29l.482.483c-.19.578.193.964.482 1.253-.29 1.254 0 2.508-.19 4.05 4.724.483 7.906-.867 11.763-1.06 1.64-.77 4.146-.965 6.172-1.543 1.83-.58 4.048-.58 5.784-1.64 1.447.192 3.086-.29 4.244-1.736 2.508.097 4.436-1.735 7.328-2.313v-.482c.482-.192 1.447-1.254 2.604-.868-.095.48-.193.867-.384 1.253zM1062.375 545.38c-7.617 3.376-14.176 7.812-20.828 12.247-.58.29-.77 1.062-2.027 1.062-3.084 3.085-6.94 3.374-9.738 6.17-2.508 1.255-5.305 2.7-8.198 4.92.387.288 1.06.577 1.35.77 2.025.964 4.05.193 5.883.29 5.787.192 11.09-.772 16.2-.87 4.92 0 9.452-1.155 13.79-.674.098.192.098.482.098.868-.29 2.218-2.797.675-3.857 1.06-4.63.58-8.68.676-13.693.87-6.172.385-12.248.096-18.42.77-4.146.387-7.906 0-11.86.87-6.558-.772-13.212 2.603-19.77 1.252-1.542 0-3.085.77-4.724.386-.675-.48-3.76.097-2.218-1.35 5.014-.77 10.223 0 15.332-.676 7.715-.29 15.912-.77 21.602-5.69.965-.288 1.736-.963 2.41-1.445 2.413-1.445 5.016-2.506 7.042-4.627 2.023-.676 3.857-1.833 5.496-2.99 2.893-2.893 6.75-3.954 9.932-6.172 0-.385.29-.288.482-.385.867-.385 1.543-1.156 2.605-1.93 0-.384 2.795-.963 2.7-1.253-.1-.29-3.28-.192-3.57-.385-4.435.965-9.93 1.35-15.042 1.832-5.497.48-9.162 1.542-14.37 1.64-1.83-.388-4.435 1.445-6.267-.098-2.025 0-3.184-.097-4.822.482-1.444 0-2.892-.193-4.628-.193-.385-.096-.77.29-1.156.29-1.64 1.06-2.508-1.446-3.762-.29-.578.194-1.158.677-1.736-.19-3.086.867-5.496.385-8.1-1.062-.867.385-1.156-.098-1.543-.387v-.288c.29-.675.867.29.867.193 0 0 .578.482 1.158-.097.385-.578 1.254.675 1.447.386 3.277.77 7.135.578 10.8.096 3.374.58 8.485-.385 11.667.29.676-.097 1.545-.675 2.7-.29 1.062-.964 2.51-.096 3.28-.675 4.05-.29 8.39-.964 12.536-.964 3.953-.385 8.293-.77 11.477-1.253.674.193 1.445-.385 2.12.097 1.64-.386 2.315-.386 3.57-.58 2.505-.48 5.688-.866 7.905-1.35.387 0 .87-.29 1.447-.963-.483-.867.577-.48.675-.48.867-.387 2.314.385 3.76-.098 0 .29.096.58 0 .87zM996.222 518.477c1.06 0 2.604-.097 3.76-.192 2.797-1.736 7.137 0 10.416.386 2.023-1.156 5.4-.48 7.52-.675 3.087-.77 7.138.193 10.705.193 6.27 0 13.502-.193 19.77-.48.965-.1 1.928-.677 2.797-.29.096.096.19-.098.29-.098-2.218 1.447-4.92 1.543-7.138 2.507-3.182 2.797-6.846 4.244-10.22 6.365-4.052 1.832-8.198 3.183-11.863 5.98-1.16.578-2.22 1.253-3.376 1.83l-2.797 1.352 3.182.192c7.52.482 14.562-1.35 22.277-.29 3.084 0 5.977-1.253 8.967-.674.77-.097 1.736 0 2.412 0-.098.192 0 .58-.098.675-.77 0-1.447.192-2.12.675-.772.387-1.737.387-2.605.58-2.604.288-5.207-.098-7.81.48-7.042.193-13.888-.674-20.736.098-3.182-.58-6.363 1.06-9.45.192-2.024.482-4.628-.58-6.17.578-4.63-.482-9.163-1.253-13.983-1.253-1.062-.386-2.7 0-3.184-1.158-.096-.097.58-1.06.58-.58 5.207-1.35 9.643 1.737 15.62 1.062 3.087-.386 6.27 0 9.548-.964.965-1.35 2.41-1.253 3.47-2.12 1.93-.29 3.858-.772 5.112-2.123 4.92-2.41 9.934-3.278 13.887-6.847 1.156-.482 2.314-1.06 3.568-2.122 0-.29 2.797-1.542 2.797-1.832-.096-.192-2.99.482-2.99.097-3.76 0-7.232-.674-10.223.387-5.4-1.35-10.994-1.446-16.78-.192-4.145-.482-8.39-1.06-12.438-.29-3.377-1.446-7.137 1.543-10.223-1.156-.292-.87-1.833-.58-1.737-1.64 3.28-.582 6.076 1.25 9.26 1.347zM1059.676 472.19c-.965 2.12-3.28 2.314-4.918 3.472-2.22 1.157-4.63 2.313-7.137 2.604-.675.386-1.638.482-2.41.578-6.46 1.157-12.73 3.762-19.48 3.954-4.628.964-9.74.482-14.753.386-4.146 0-9.45-1.157-13.598-2.99-2.024-.48-4.243-1.253-5.69-2.507-2.12-.578-3.76-2.12-5.592-3.278-.387-.676-.87-1.35-.87-2.026 0-.097-.095-.192-.095-.192 1.93.48 3.76 1.928 5.69 3.086 1.542.867 2.41 2.025 4.05 2.41 2.795.58 5.014 2.508 7.906 2.314 5.304 1.35 11.09 1.254 17.454.868-.965-2.218.674-3.086-.098-4.436.098-.58.193-.965.387-1.35.29-.29.482-.58.867-.29l.482.482c-.19.578.193.964.482 1.253-.29 1.253 0 2.507-.19 4.05 4.724.482 7.906-.868 11.763-1.06 1.64-.772 4.146-.966 6.172-1.545 1.83-.578 4.048-.578 5.784-1.64 1.447.193 3.086-.288 4.244-1.735 2.508.097 4.436-1.735 7.328-2.314v-.48c.482-.194 1.447-1.255 2.604-.87-.095.482-.193.868-.384 1.254zM1047.332 453.58c3.76.964 6.46 4.146 10.223 5.303.578 1.062 1.83 1.64 2.41 2.7-.87.29-1.832-.578-2.604-.964-.675-.676-1.35-1.062-2.313-1.158-2.12-1.543-5.016-2.218-7.232-3.954-1.64-.578-4.05-.77-5.883-1.64-3.28-.192-6.56-.192-9.74.387-3.086.578-6.074 1.832-8.487 3.953-3.182 1.543-6.846 2.7-10.318 3.472-5.4 2.7-12.246 2.41-17.84.193-3.28 0-5.11-2.797-8.1-3.183-.867-.675-1.64-1.35-2.7-1.736-.58-.48-.29-1.253-.772-1.93 0-.19-.385.098-.19.194 1.35.097 2.796.675 3.952 1.254 5.11 3.953 11.957 4.146 18.13 5.497 4.34-.194 7.907-2.22 12.054-3.185 2.605-1.64 5.884-2.217 8.488-3.856 1.928-.194 3.473-2.412 5.496-1.93 4.34-1.543 9.45-1.543 13.598 0 .576.29 1.154.483 1.83.58zM1061.314 401.794c1.254.482 2.12-.192 3.086 0-.29.676-.77 1.254-.77 2.025-.388 1.06-1.737 1.253-2.507 2.024-.773.193-.87 1.253-1.738 1.832-2.023 1.254-3.857 2.604-5.88 4.05-3.954.965-7.522 3.665-12.15 4.147-3.57 1.64-8.198 1.543-12.15 1.64-2.413 1.928-6.27.192-9.164 1.253-1.444.192-2.313-.386-3.47-.386-3.955 1.06-7.523-.48-11.188-1.06-2.604-1.158-5.4-1.447-7.906-2.798-.77-.578-1.93-.386-2.7-.675-3.087-2.024-6.655-3.278-9.452-5.497-1.35-.29-1.734-1.928-3.084-2.218-.482-.675-1.447-1.254-.87-2.7-.866-.675-1.638-2.025 0-1.735.388-.29.58-.097.097.29 3.184 3.856 8.39 7.425 13.502 10.125 1.927 0 3.856 1.06 5.013 2.024 3.955 1.06 7.62 2.507 11.67 2.507 1.445 0 2.893.29 4.146-.096 2.507.29 4.82.965 7.423.29 2.508-.194 5.016-.483 7.426-.965 7.714-1.543 16.104-1.93 22.47-6.172 2.312-1.543 3.953-2.894 5.977-5.207-.29-.482 1.254-.386.965-1.062-5.98.29-13.404.483-18.803.87-2.413 1.06-5.21-.193-7.813.192-2.314.29-4.725-.29-7.135-.193-1.158 0-2.22-.193-3.28.192-1.736-.29-3.955.192-5.4-.772-.676-.578.867-.482 1.06-.867 1.544-.58 3.087-.77 4.823-.097 1.35.192 2.7-.675 3.954-.675 3.567 0 6.653.965 9.063.676 0-.29 1.158 0 2.12 0 .677-.192 1.35-.192 1.737-.097 2.12 0 3.47-.387 5.4-.097 3.473-.868 7.81 0 10.607-.772.87-.19.77-.095 1.64-.19 1.445.002 2.12-.48 3.277.194zM1059.676 382.702c-.965 2.122-3.28 2.315-4.918 3.472-2.22 1.157-4.63 2.314-7.137 2.604-.675.386-1.638.48-2.41.578-6.46 1.157-12.73 3.76-19.48 3.954-4.628.964-9.74.48-14.753.385-4.146 0-9.45-1.156-13.598-2.988-2.024-.482-4.243-1.254-5.69-2.508-2.12-.58-3.76-2.123-5.592-3.28-.387-.675-.87-1.35-.87-2.024 0-.097-.095-.193-.095-.193 1.93.482 3.76 1.93 5.69 3.086 1.542.867 2.41 2.024 4.05 2.41 2.795.58 5.014 2.508 7.906 2.314 5.304 1.35 11.09 1.253 17.454.868-.965-2.218.674-3.086-.098-4.436.098-.58.193-.965.387-1.35.29-.29.482-.58.867-.29l.482.48c-.19.58.193.966.482 1.255-.29 1.255 0 2.508-.19 4.052 4.724.48 7.906-.868 11.763-1.062 1.64-.77 4.146-.964 6.172-1.543 1.83-.578 4.048-.578 5.784-1.64 1.447.193 3.086-.29 4.244-1.735 2.508.097 4.436-1.735 7.328-2.314v-.482c.482-.192 1.447-1.253 2.604-.867-.095.48-.193.866-.384 1.252zM1047.332 364.09c3.76.965 6.46 4.147 10.223 5.305.578 1.06 1.83 1.64 2.41 2.7-.87.29-1.832-.578-2.604-.964-.675-.675-1.35-1.06-2.313-1.156-2.12-1.544-5.016-2.218-7.232-3.954-1.64-.578-4.05-.77-5.883-1.64-3.28-.192-6.56-.192-9.74.386-3.086.58-6.074 1.832-8.487 3.954-3.182 1.543-6.846 2.7-10.318 3.472-5.4 2.7-12.246 2.41-17.84.192-3.28 0-5.11-2.796-8.1-3.182-.867-.676-1.64-1.35-2.7-1.736-.58-.482-.29-1.253-.772-1.93 0-.19-.385.098-.19.194 1.35.097 2.796.675 3.952 1.253 5.11 3.954 11.957 4.147 18.13 5.497 4.34-.193 7.907-2.218 12.054-3.183 2.605-1.64 5.884-2.218 8.488-3.856 1.928-.192 3.473-2.41 5.496-1.928 4.34-1.543 9.45-1.543 13.598 0 .576.29 1.154.483 1.83.58zM1018.884 347.99c1.832 1.445 3.953 2.795 5.592 4.916 7.233-.578 13.887.868 20.252.676 2.795-.097 4.725-1.833 7.328-1.64.098.77.676 1.543 1.64 1.832.192.193.192-.58-.097-.48-.097.095-.675.19-.772.19-3.47 2.315-8.68.676-12.922 1.255-1.543.384-3.762 1.06-5.014 0-5.787-1.063-12.73.48-18.42-.772-4.146-.193-8.582.964-12.535.096-5.98-.48-11.96.193-18.033-.675-2.025.77-3.664 0-5.787-.097-.578-.387-1.734 0-2.023-.676.385-.48.19-1.253.77-1.64 2.218-1.832 5.208-2.314 7.425-3.664 2.218-.386 4.147-.868 6.075-1.93.193-.288.385-.578.578-.674 2.508-.194 5.016-1.93 7.715-.87 6.172.676 12.922.965 18.226 4.15zm-24.88-2.028c-2.026 1.446-4.63 2.026-6.75 2.604-.772 1.253-3.087.868-4.243 2.024 1.157 1.833 2.796.965 3.954 1.157 5.883 1.157 11.96.29 18.033.676 2.41.964 4.53-.097 6.943.096 2.7.192 5.4-1.062 7.906.192l.87-1.06c-1.16-1.737-2.798-2.99-4.92-3.57-1.83 0-3.567-.964-5.4-1.734-3.278-.87-6.558-.676-10.028-.87-2.12-.094-3.857 1.16-6.365.484zM1059.193 331.692c.29.097.482.193.674.387-.867 2.216-3.47.963-5.496 1.54-1.733.29-3.374 0-5.108.098-4.727.097-9.45-.097-13.984 0-2.41 0-5.592.193-8.1-.097-1.64-.19-3.665 0-5.305.098-3.953.386-7.713 0-11.86.29-.192-.193-.386-.193-.58-.193-1.735.867-3.663.097-5.304.386-3.954.193-7.716.58-11.57.58-2.702-1.158-5.497.578-8.296-.098-.385-.096.58-1.156.87-1.156 4.24-2.893 9.16 1.156 13.886-.193 5.592-1.543 11.86-.965 17.357-1.253 5.496-.29 10.704.192 16.297 0 1.543-.193 3.086-.193 4.727-.193.386 0 .868.096 1.253.096 4.244-.096 8.486-.096 12.248-.675 2.893.77 5.303.288 8.293.384zM993.52 315.3c1.448.192 2.413 1.64 4.052 1.64 3.086 1.542 5.98 2.313 9.74 2.506.578.29 1.543.386 2.217.58 2.122.19 4.05 1.156 6.075 1.156 1.254.386 2.99-.29 4.146 1.253 1.544-.385 2.702-.77 3.665-1.253.387-.77 1.447-1.736 1.35-2.797.676-1.06.098-1.93.58-3.28.58-1.83.58-2.892 1.544-4.82.48-.386.962-.77 1.542-.675.385.965 0 2.12 0 3.278-1.254 2.508-1.062 3.857-1.93 7.137.77.48.482.867.77 1.06 2.413.387 5.015.098 7.042-.385 1.252.192 2.312-.29 4.242-.29.385-1.156 1.254-.288 1.832-.578 3.47-.29 6.557-2.218 10.125-2.41 1.543-1.35 4.146-1.157 5.69-2.315 1.83.193 2.796-2.218 5.11-1.64 1.156-.867 2.22-1.928 3.666-1.928.384.288.77.578 1.155.963-.193 1.447-1.832 1.544-2.895 2.314-1.64.193-3.182.58-4.338 1.64-2.12-.097-3.377 1.736-5.4 1.64-.77.482-1.543.578-2.123.964-.77-.096-1.446.194-2.024.483-4.436 0-7.908 2.893-12.344 2.604-.578.386-1.64.386-2.22.482-4.724 1.64-10.22 1.35-15.042 1.253-2.217-.58-4.918 0-6.848-.965-5.98-1.06-11.764-3.472-17.453-5.015-2.702-1.06-5.208-2.7-7.716-4.05-2.797-1.543-6.076-2.604-8.1-5.4 0-.192 0-.482.19-.578 4.343 2.795 8.877 5.302 13.697 7.424zM1040.195 283.092c2.7 0 5.98-.965 8.873 0 2.023-.29 4.436.29 5.98 0 .095 0 .288 0 .48-.097 3.954.386 2.894-.676 6.847-.386.193.095.387.385.482.385.096.097.096.29 0 .192 0-.192.29.097.29.193.288.578-.58 1.06-.58 1.64-1.444 2.024-3.663 2.988-5.302 4.917-2.22 2.7-6.076 4.243-8.486 6.075-1.16.676-2.99 1.062-4.34 1.736-.966 0-1.93.578-2.798.965-.193.675 0 .29-.193.192-.58.192-1.448.192-2.315.578-.29-.192-.482.193-.963-.096-2.99.77-5.11 1.832-8.004 1.64-3.473.288-7.813-.097-11.092-.386-.867-.29-1.734-.48-2.604-.48-.385-.098-.867-.194-1.156-.29-.482.096-1.156-.387-1.64-.387-2.41.097-3.567-1.157-5.98-1.253-1.83-.965-5.688-2.7-7.81-3.76-2.508-1.737-5.11-3.087-7.426-4.92-2.314-1.735-4.436-3.472-6.074-5.786-.193-.48-.77-1.735.096-1.253 2.12 1.062 3.182 3.28 5.4 4.437 5.014 4.147 12.44 8.39 18.71 10.03.77.385 2.216.288 2.892.77 1.35.29 2.604.578 3.953.675 4.34 1.254 8.487.29 12.922.386 2.99-.482 6.847-.386 9.74-1.832.866 0 1.35-.675 2.024-.675 1.156-.675 3.375-.48 4.82-1.35.676-.192 1.254-.964 1.93-1.157.29-.386 1.156-.48 1.543-.675.77-.192 1.35-1.157 2.12-1.446h.194c.483-.097.966-.578 1.062-.77.29-.194.193.48.385-.194.193-.386.482-.867.77-.675-.384.29-.095 0 .1-.192.77-1.542 2.603-1.93 3.76-3.278.288-.192.48-.675.964-.964l-.577-1.254c-5.69.58-9.258.77-16.395.482-1.832.29-4.53 0-6.557.386-.097-.097-.675-.193-.77-.29-2.797 0-3.568-.48-6.074-.578-.193.097-.87.097-.965.097-4.628-.192-6.17.58-10.318.387-2.604 1.253-5.21-.58-7.52.867-.483.386-1.063.097-1.448.868-1.447-.868-.87-1.93-.77-2.12.19-.194.77-.677 1.35-.772 1.446-.097 3.567-.29 5.015-.482.77.386 2.603-.29 3.47-.096 3.857-.29 3.955-.58 8.39-.58.868-.48 2.507-.096 3.472-.096 4.242.194 6.364 1.254 10.123.676zM1059.676 263.708c-.965 2.122-3.28 2.314-4.918 3.472-2.22 1.157-4.63 2.314-7.137 2.604-.675.386-1.638.482-2.41.578-6.46 1.158-12.73 3.762-19.48 3.954-4.628.965-9.74.482-14.753.386-4.146 0-9.45-1.156-13.598-2.99-2.024-.48-4.243-1.253-5.69-2.506-2.12-.58-3.76-2.122-5.592-3.28-.387-.674-.87-1.35-.87-2.023 0-.097-.095-.193-.095-.193 1.93.482 3.76 1.93 5.69 3.086 1.542.868 2.41 2.025 4.05 2.41 2.795.58 5.014 2.508 7.906 2.315 5.304 1.35 11.09 1.254 17.454.868-.965-2.218.674-3.085-.098-4.436.098-.578.193-.965.387-1.35.29-.29.482-.58.867-.29l.482.482c-.19.58.193.965.482 1.254-.29 1.254 0 2.507-.19 4.05 4.724.482 7.906-.867 11.763-1.06 1.64-.772 4.146-.966 6.172-1.544 1.83-.58 4.048-.58 5.784-1.64 1.447.193 3.086-.29 4.244-1.735 2.508.095 4.436-1.737 7.328-2.315v-.482c.482-.193 1.447-1.254 2.604-.868-.095.482-.193.868-.384 1.253zM1054.275 240.855c-.29 2.024.096 3.76.77 5.4-.097.48-.48.964-.77 1.06-1.254 1.833 1.156 5.112-2.025 6.076-1.06.29-2.22-.192-3.086.58-3.375 1.253-4.436.29-7.715.578-2.894.192-6.366-1.254-9.163 0-1.54 0-2.795-.58-4.146-.77-3.664 1.35-7.81-.676-11.667.29-2.795.19-5.014-.966-7.81.288-.58.096-1.062.096-1.544.29-5.69 0-11.573-.58-17.165.095-2.797 0-5.498-.095-8.006-1.445-.483-.386.097-.964.58-1.157.675 0 1.638-.192 2.698.675 2.025-.867 3.857.097 5.594-.29 1.445.387 3.086.483 4.63.098 3.278-1.928 6.75.29 10.124.193 3.28-.096 6.557-1.35 9.934-.964 3.47.48 7.52.77 11.09.385 1.156-.386 2.506.193 3.568-.193 1.06.193 2.506.097 3.47.77 1.35-.19 2.99-.48 4.34-.866.772.386 1.93.29 2.605.482 3.664.29 4.436.77 7.81-.387 2.22.772 1.35-1.54 3.28-2.023 1.254-.482.578-1.06.578-1.735-.288-1.544 1.255-2.7.58-4.05-.483-1.255-.097-2.895-1.062-4.244-.096-.386-.096-.868.387-.868 1.253-.29 1.445.963 2.12 1.735zM976.935 212.408c.193 1.64.867 2.796 1.158 4.532-.58 2.604-.098 4.918.867 8.1 1.35-.674 2.314-.48 2.797-.29 1.832-.19 4.146.29 5.98.194 1.735-.386 3.856-.578 5.59-.578 2.702-1.35 6.077-1.736 8.778-2.314 1.543.385 3.375 0 4.82.192 6.56 0 13.31-1.64 19.48-2.507 1.157.096 2.894-.193 3.954.096.192-.096.675-.096.77-.192 4.822-.192 8.68-.29 13.5-.29 2.22 0 4.148.388 6.172.483h-.096c-2.508 1.832-5.98 1.157-8.68 1.736-3.953-.966-8.1 1.06-12.342-.58-2.508 2.604-5.5.58-8.102 1.446-2.41-.29-5.305-.192-7.328 1.062-.965-.097-1.834.29-3.184-.193-2.314 1.35-5.207.676-7.617.676-3.953-.867-7.137 1.736-10.896 1.254-2.7 1.35-5.787 1.157-8.873 1.157-.963-1.06-2.508-.096-4.436-2.217-.674 4.243-.29 6.75-.482 9.354.482 2.025-.29 4.244 0 6.46-.096.098-.096.194-.19.29-.774-.096-.966-.964-1.257-1.542.58-1.93.48-3.857 0-5.786-.386-.483 0-1.35.097-2.315-1.06-1.446-.193-3.568-.965-4.918.482-1.543-.19-3.183-.096-4.726-.867-1.542.29-3.567-.578-5.11 0-1.35-1.834-2.7-.29-3.76.097-.097.29-.193.48-.29.39.095.87.192.967.578zM1014.93 150.788c6.46 2.313 13.308 1.638 19.48 4.242 6.365 2.7 13.307 3.857 19.865 5.98.193.192.482.48.674.77-2.122.867-4.92-.87-7.427-.578-7.617-.58-14.754 1.928-22.758 2.988l-.385 1.736c8.68 1.735 16.008 5.4 24.012 6.943.29.192.77.288 1.06.48 1.737.097 3.858-1.06 5.112-.097-.096.676-.77.965-1.445 1.157-1.546-.192-2.702.868-4.15 1.254-8.58-.386-16.2 1.446-24.878 2.025-10.705.77-21.312 1.54-31.438 1.445-5.303.77-9.354.965-13.5.482-.387-.193-1.158 0-1.543-.097.29-.192.58-.482.868-.77 3.182-.676 5.98-.676 9.354-.965 14.658-1.158 30.764.097 45.807-2.41 2.698-.483 5.4-.29 8.292-.58 1.928-.675 1.06-2.604-.385-2.217-6.27-3.086-13.887-3.568-20.157-5.883-1.156-.386-2.988-.097-3.47-1.254.192-.384.577-.577.964-.77 6.557-2.12 13.694-2.893 23.53-5.4-6.076-2.22-9.645-2.604-12.44-4.243-7.04 0-11.86-2.894-18.902-2.894-5.4-2.023-11.764-1.156-17.164-3.47-4.436-.098-8.102-1.063-13.31-1.93-.095 0-.384 0-.48-.097.097-.192.192-.385.29-.674.77 0 1.252-.387 1.64-.58 10.895.873 21.89 3.96 32.88 5.406zM1059.193 134.296c.29.098.482.193.674.387-.867 2.217-3.47.964-5.496 1.542-1.733.29-3.374 0-5.108.097-4.727.097-9.45-.097-13.984 0-2.41 0-5.592.193-8.1-.097-1.64-.192-3.665 0-5.305.097-3.953.386-7.713 0-11.86.29-.192-.193-.386-.193-.58-.193-1.735.867-3.663.096-5.304.385-3.954.193-7.716.578-11.57.578-2.702-1.157-5.497.58-8.296-.096-.385-.098.58-1.157.87-1.157 4.24-2.894 9.16 1.157 13.886-.193 5.592-1.542 11.86-.964 17.357-1.253s10.704.192 16.297 0c1.543-.193 3.086-.193 4.727-.193.386 0 .868.098 1.253.098 4.244-.097 8.486-.097 12.248-.675 2.893.77 5.303.288 8.293.383zM1049.936 113.372c-3.47 2.507-7.908 2.12-11.09 4.82-1.254.387-2.604 1.062-3.664 1.737-2.99-.098-6.076 1.83-10.125 3.663 2.604 1.06 4.53.77 5.88.386 5.69 0 10.706-.966 16.685-.098 1.64 0 3.664-.482 5.11.193 2.796.096 6.075-.676 8.487.676.095.097.095.097.192.192-2.027.58-4.63.387-6.654.29-1.736-.48-3.568.192-5.496.192-3.762.097-7.715-1.254-11.09.387-3.088.387-5.98-1.06-8.97 0-2.7.868-5.4-.48-7.908.772-4.63-.77-10.607.097-15.623-.77-5.688 0-11.474.385-17.067-.58-3.086-.097-4.34-.675-7.232-1.254-.095 0 .483-.675.483-.868 3.086-1.832 4.146-2.41 7.426-3.664 4.53-1.832 9.353-1.446 13.886-2.7 6.363.097 12.633.964 17.26 7.04 8.49-5.11 17.553-5.69 25.75-10.125 3.665-1.157 7.04-2.99 10.704-4.146.578 0 1.543-.386 2.217-.192-2.99 1.734-6.076 3.086-9.16 4.05zm-54.292 6.364c-1.254.386-2.797-.097-3.955.676-1.544-.193-2.99.674-4.243 1.156l-2.314 1.64c.867.097 4.242.386 5.207.58 1.254 1.252 3.47.673 5.016 1.06 7.135-.965 15.14.192 23.72-.193-1.25-1.543-2.505-1.93-3.18-2.604-1.35-1.35-5.112-2.796-7.62-3.856-4.34.577-8.968-.387-12.632 1.542zM1027.467 86.37c3.76.29 7.617 1.157 11.668 1.64 4.918.578 10.03 1.157 14.658 3.47 2.41 2.412 5.4 3.666 7.33 6.85.29 1.734 1.54 1.445.963 3.567.096.29-.193 0-.193-.387-2.217.097-1.156-.48-2.797-2.7-2.506.772-4.338-.386-6.17.386-7.715-.482-14.37 0-21.89.77-1.833.87-4.147.87-6.27.58-1.35-.482-2.796.482-4.437.192-5.015-.29-10.608-.29-15.526.386-3.664-.192-7.232 0-10.994.386-1.445-.29-3.084-.77-5.11-.192-.58 1.35-1.253 1.06-.77 2.218-.193.193-.387.482-.676.675-.29-.095-.578 0-.867-.288.385-2.797 2.217-4.34 3.953-6.46 3.375-3.088 7.715-4.533 11.38-7.523 2.41-1.544 4.917-1.735 7.52-2.796 3.28-.482 6.943-.29 10.125-.965 2.7.67 5.304.48 8.102.19zm-15.237 2.41c-3.762-.192-6.365 1.544-9.932 2.605-.193.193-1.062 1.06-1.545 1.35-2.7 1.93-5.88 2.797-8.775 6.654 3.473-.29 5.207.964 6.848.288 2.41.29 4.533-.965 6.943-1.06 3.47 1.06 7.23.192 10.8.675 3.277.385 6.846-.387 10.22-.58 5.98-2.313 12.923-.674 19.095-1.35 2.99 0 6.46-.482 11.188.097-1.834-3.857-5.11-4.532-7.33-5.786-5.69-1.543-11.38-2.507-17.262-3.086-1.155-.193-2.6.29-3.663-.385-5.304.29-11.67-1.543-16.587.578zM1052.346 77.884c0 .482-.674.77-1.06.867-1.446.966-3.472.1-5.015.87-.48 0-.866-.193-1.157-.482 0-.482.193-.676.387-.87 1.35-.384 2.7-2.603 4.34-.963 1.252-.097 1.832.193 2.506.58z"/></g><path d="M2048 0M2048 1536M0 1536M0 0" fill="none" stroke="#17192D" stroke-width="3"/></g></svg>