<?xml version="1.0" encoding="iso-8859-1"?>
<!-- Generator: Adobe Illustrator 15.1.0, SVG Export Plug-In . SVG Version: 6.00 Build 0)  -->
<!DOCTYPE svg PUBLIC "-//W3C//DTD SVG 1.1//EN" "http://www.w3.org/Graphics/SVG/1.1/DTD/svg11.dtd">
<svg version="1.1" xmlns="http://www.w3.org/2000/svg" xmlns:xlink="http://www.w3.org/1999/xlink" x="0px" y="0px" width="2048px"
	 height="1536px" viewBox="0 0 2048 1536" style="enable-background:new 0 0 2048 1536;" xml:space="preserve">
<g id="dtxta_x5F_2">
	<g>
		<path style="fill:#17192D;" d="M933.805,767.105c-0.963,2.121-3.279,2.314-4.918,3.47c-2.217,1.158-4.629,2.314-7.135,2.604
			c-0.676,0.387-1.641,0.482-2.412,0.578c-6.461,1.158-12.729,3.762-19.479,3.955c-4.629,0.965-9.74,0.482-14.756,0.385
			c-4.146,0-9.449-1.156-13.596-2.988c-2.025-0.482-4.242-1.254-5.689-2.508c-2.121-0.578-3.762-2.121-5.594-3.279
			c-0.385-0.673-0.867-1.349-0.867-2.025c0-0.096-0.096-0.191-0.096-0.191c1.928,0.482,3.76,1.927,5.688,3.085
			c1.545,0.867,2.412,2.025,4.051,2.41c2.797,0.578,5.016,2.508,7.908,2.314c5.303,1.35,11.09,1.254,17.455,0.867
			c-0.965-2.217,0.674-3.084-0.098-4.436c0.098-0.578,0.193-0.963,0.387-1.35c0.289-0.289,0.48-0.578,0.867-0.289
			c0.193,0.193,0.289,0.289,0.482,0.482c-0.193,0.578,0.191,0.963,0.48,1.254c-0.289,1.254,0,2.506-0.191,4.049
			c4.725,0.482,7.906-0.867,11.764-1.061c1.641-0.771,4.146-0.965,6.172-1.543c1.832-0.578,4.051-0.578,5.787-1.639
			c1.447,0.193,3.086-0.289,4.242-1.736c2.508,0.096,4.438-1.736,7.328-2.314c0-0.771,0-0.482,0-0.482
			c0.482-0.191,1.447-1.254,2.605-0.867C934.094,766.333,933.998,766.718,933.805,767.105z"/>
		<path style="fill:#17192D;" d="M933.324,754.183c0.289,0.096,0.48,0.193,0.674,0.387c-0.867,2.217-3.473,0.963-5.496,1.543
			c-1.736,0.289-3.375,0-5.111,0.096c-4.725,0.096-9.451-0.096-13.982,0c-2.412,0-5.594,0.193-8.102-0.096
			c-1.639-0.193-3.664,0-5.303,0.096c-3.955,0.385-7.715,0-11.861,0.289c-0.193-0.193-0.387-0.193-0.578-0.193
			c-1.736,0.867-3.666,0.098-5.305,0.387c-3.953,0.193-7.715,0.578-11.572,0.578c-2.699-1.156-5.496,0.578-8.293-0.098
			c-0.387-0.096,0.578-1.156,0.869-1.156c4.242-2.893,9.16,1.156,13.885-0.191c5.594-1.545,11.861-0.965,17.359-1.254
			c5.496-0.291,10.703,0.191,16.297,0c1.541-0.193,3.086-0.193,4.725-0.193c0.385,0,0.867,0.096,1.254,0.096
			c4.242-0.096,8.486-0.096,12.246-0.676C927.922,754.57,930.334,754.087,933.324,754.183z"/>
		<path style="fill:#17192D;" d="M870.352,726.796c1.062,0,2.604-0.096,3.762-0.191c2.797-1.736,7.135,0,10.414,0.385
			c2.025-1.158,5.4-0.482,7.521-0.676c3.086-0.771,7.137,0.193,10.705,0.193c6.268,0,13.5-0.193,19.768-0.482
			c0.965-0.096,1.93-0.674,2.799-0.289c0.096,0.096,0.191-0.096,0.289-0.096c-2.219,1.445-4.92,1.543-7.137,2.506
			c-3.184,2.797-6.848,4.244-10.223,6.365c-4.051,1.832-8.197,3.182-11.861,5.979c-1.156,0.58-2.217,1.254-3.375,1.832l-2.795,1.352
			l3.182,0.191c7.521,0.482,14.561-1.35,22.275-0.289c3.086,0,5.979-1.254,8.969-0.674c0.771-0.098,1.734,0,2.41,0
			c-0.096,0.191,0,0.578-0.096,0.674c-0.771,0-1.447,0.193-2.121,0.676c-0.773,0.385-1.736,0.385-2.605,0.578
			c-2.604,0.289-5.207-0.096-7.811,0.482c-7.039,0.193-13.887-0.676-20.732,0.096c-3.182-0.578-6.365,1.062-9.451,0.193
			c-2.025,0.482-4.629-0.578-6.172,0.578c-4.629-0.482-9.16-1.252-13.982-1.252c-1.061-0.387-2.701,0-3.182-1.158
			c-0.098-0.096,0.578-1.061,0.578-0.578c5.207-1.352,9.645,1.736,15.621,1.061c3.086-0.387,6.27,0,9.549-0.965
			c0.963-1.35,2.41-1.254,3.471-2.121c1.928-0.289,3.857-0.771,5.111-2.121c4.918-2.412,9.932-3.279,13.887-6.848
			c1.156-0.482,2.312-1.061,3.566-2.121c0-0.289,2.797-1.543,2.797-1.832c-0.096-0.193-2.988,0.482-2.988,0.096
			c-3.762,0-7.232-0.674-10.223,0.387c-5.4-1.35-10.994-1.447-16.779-0.193c-4.146-0.482-8.391-1.061-12.439-0.289
			c-3.375-1.447-7.137,1.543-10.223-1.158c-0.289-0.867-1.832-0.578-1.736-1.639C864.373,724.869,867.17,726.701,870.352,726.796z"
			/>
		<path style="fill:#17192D;" d="M867.652,709.248c1.445,0.193,2.41,1.639,4.051,1.639c3.086,1.543,5.979,2.314,9.738,2.508
			c0.58,0.289,1.543,0.385,2.219,0.578c2.121,0.193,4.051,1.156,6.076,1.156c1.252,0.387,2.988-0.289,4.146,1.254
			c1.541-0.385,2.699-0.771,3.664-1.254c0.385-0.771,1.445-1.734,1.35-2.797c0.674-1.061,0.096-1.928,0.578-3.277
			c0.578-1.832,0.578-2.893,1.543-4.822c0.482-0.387,0.965-0.771,1.543-0.676c0.387,0.965,0,2.123,0,3.279
			c-1.254,2.508-1.061,3.857-1.928,7.137c0.771,0.482,0.482,0.867,0.771,1.061c2.41,0.385,5.014,0.096,7.039-0.387
			c1.254,0.193,2.314-0.289,4.242-0.289c0.387-1.156,1.254-0.289,1.834-0.578c3.471-0.289,6.557-2.219,10.125-2.41
			c1.543-1.35,4.146-1.158,5.689-2.314c1.832,0.193,2.797-2.219,5.109-1.641c1.158-0.867,2.219-1.928,3.666-1.928
			c0.385,0.289,0.771,0.578,1.156,0.965c-0.191,1.445-1.832,1.543-2.893,2.314c-1.639,0.193-3.182,0.578-4.34,1.639
			c-2.121-0.096-3.375,1.736-5.4,1.639c-0.771,0.482-1.543,0.58-2.121,0.965c-0.771-0.096-1.447,0.193-2.025,0.482
			c-4.436,0-7.908,2.893-12.344,2.604c-0.578,0.387-1.639,0.387-2.217,0.482c-4.727,1.639-10.223,1.35-15.043,1.254
			c-2.219-0.578-4.92,0-6.848-0.965c-5.979-1.061-11.764-3.471-17.455-5.016c-2.699-1.059-5.207-2.699-7.715-4.049
			c-2.795-1.543-6.074-2.604-8.1-5.4c0-0.193,0-0.482,0.193-0.578C858.299,704.619,862.83,707.125,867.652,709.248z"/>
		<path style="fill:#17192D;" d="M936.506,665.273c-7.619,3.377-14.176,7.812-20.83,12.248c-0.578,0.289-0.771,1.061-2.025,1.061
			c-3.086,3.086-6.943,3.375-9.74,6.172c-2.506,1.254-5.303,2.701-8.195,4.918c0.385,0.289,1.061,0.578,1.35,0.771
			c2.025,0.965,4.051,0.193,5.883,0.289c5.785,0.193,11.09-0.771,16.199-0.867c4.918,0,9.451-1.156,13.791-0.676
			c0.096,0.193,0.096,0.482,0.096,0.867c-0.289,2.219-2.797,0.676-3.857,1.062c-4.629,0.578-8.678,0.674-13.693,0.867
			c-6.172,0.385-12.246,0.098-18.418,0.771c-4.146,0.387-7.908,0-11.861,0.867c-6.557-0.771-13.211,2.604-19.77,1.254
			c-1.543,0-3.086,0.771-4.725,0.387c-0.676-0.482-3.762,0.096-2.219-1.352c5.016-0.77,10.223,0,15.334-0.674
			c7.715-0.289,15.912-0.771,21.6-5.689c0.965-0.289,1.736-0.965,2.412-1.447c2.41-1.447,5.014-2.506,7.039-4.629
			c2.025-0.674,3.857-1.832,5.498-2.988c2.893-2.893,6.75-3.955,9.932-6.172c0-0.387,0.289-0.289,0.482-0.387
			c0.867-0.385,1.543-1.156,2.604-1.928c0-0.387,2.797-0.965,2.699-1.254c-0.096-0.289-3.277-0.193-3.568-0.385
			c-4.436,0.963-9.932,1.35-15.043,1.832c-5.496,0.48-9.16,1.543-14.369,1.639c-1.832-0.387-4.436,1.447-6.268-0.096
			c-2.025,0-3.182-0.098-4.82,0.482c-1.447,0-2.895-0.193-4.629-0.193c-0.387-0.098-0.773,0.289-1.158,0.289
			c-1.639,1.061-2.508-1.447-3.762-0.289c-0.578,0.193-1.156,0.676-1.734-0.193c-3.086,0.869-5.498,0.387-8.1-1.061
			c-0.869,0.385-1.158-0.098-1.545-0.387c0-0.096,0-0.191,0-0.289c0.289-0.674,0.869,0.289,0.869,0.193c0,0,0.578,0.482,1.158-0.096
			c0.385-0.58,1.252,0.674,1.445,0.385c3.279,0.771,7.137,0.578,10.801,0.096c3.375,0.58,8.486-0.385,11.668,0.289
			c0.676-0.096,1.543-0.674,2.701-0.289c1.061-0.963,2.506-0.096,3.277-0.674c4.051-0.289,8.391-0.965,12.537-0.965
			c3.953-0.385,8.293-0.771,11.475-1.254c0.676,0.193,1.447-0.385,2.121,0.098c1.641-0.387,2.316-0.387,3.568-0.58
			c2.508-0.482,5.689-0.867,7.908-1.35c0.385,0,0.867-0.289,1.445-0.963c-0.482-0.869,0.58-0.482,0.676-0.482
			c0.869-0.387,2.314,0.385,3.762-0.098C936.506,664.695,936.602,664.986,936.506,665.273z"/>
		<path style="fill:#17192D;" d="M879.996,603.076c3.857,0.096,7.521,0.675,11.379,1.061c3.857,0.385,8.004,0.193,11.764,0.385
			c0.387,0,0.676,0.482,1.061,0.482c2.701,0.193,5.305,0.482,7.908,0.29c7.328,0.675,14.271,0.579,21.408,1.543
			c0.676,0.481,0,0.868,0.289,1.542c-1.061,0.482-1.35,0.579-2.604,0.676c-4.436-0.867-7.811,2.894-12.15,2.218
			c-3.279,0.964-6.848,0.772-10.223,1.736c-3.182,2.7-8.293,0.578-14.85,2.604c4.822,2.024,7.039,1.929,9.064,2.313
			c3.473,0.773,6.559,0.773,10.029,1.352c3.182,0.481,6.75,1.542,9.74,1.542c1.35,0.289,2.604,0.579,4.146,0.675
			c0.289,0.387,0.963,0.289,1.445,0.387c1.736-0.29,3.762-0.387,5.498-0.482c0.191,0.096,0.289,0.192,0.385,0.289
			c-0.963,1.35-3.182,0.578-4.436,1.254c-5.014,2.024-10.896,2.604-16.875,3.086c-5.113,0.385-10.223,0.771-14.947,1.543
			c-4.34,0.482-8.775,2.025-13.213,2.025c-0.578,0.385-1.734,0.289-2.312,0.385c-8.004,1.929-16.877,1.543-25.459,1.929
			c-1.158-0.386-5.4,1.64-4.146-0.771c0.674-0.097,1.156-0.675,1.832-0.964c9.258-1.061,18.611,0.578,27.965-1.543
			c4.436,0.289,8.293-1.543,12.344-2.219c0.867-0.096,1.736,0.193,2.604,0c6.557-1.061,14.369-1.928,21.119-3.086l4.051-0.675
			c-3.473-0.868-10.318-1.735-13.02-2.7c-6.461,0-11.861-2.217-18.227-2.893c-2.988-0.289-5.592-0.867-7.811-1.061
			c-0.096-0.192-1.061,0.386-1.252,0c1.156-1.061,2.795-0.192,3.857-1.254c1.639-0.289,3.375-0.482,5.205-0.771
			c2.701-0.482,5.498-1.061,8.197-1.35c1.736-0.192,3.568,0,5.111-0.192c2.121-0.29,2.893-0.868,4.918-1.158
			c1.543-0.192,2.219-0.097,3.762-0.288c0.482-0.098,0.674-0.387,1.156-0.387c3.086-0.482,6.559-0.386,9.451-1.543l3.76-1.446
			c-3.857-0.579-12.053-0.29-15.719-0.675c-7.424-0.868-15.91-0.676-23.336-1.061c-0.482-0.29-1.254-0.193-1.928-0.965
			c-7.619-0.387-13.887-2.7-21.506-1.929c-2.312-0.771-4.531,0.386-6.75-0.192c-1.35-0.387-2.699,0-3.953-0.771
			c-0.193-0.193-0.676-0.29-0.869-0.482c5.016-2.219,10.898-0.193,16.105,0C873.535,601.629,876.812,602.305,879.996,603.076z"/>
		<path style="fill:#17192D;" d="M933.805,582.054c-0.963,2.121-3.279,2.314-4.918,3.472c-2.217,1.156-4.629,2.314-7.135,2.604
			c-0.676,0.385-1.641,0.482-2.412,0.578c-6.461,1.157-12.729,3.762-19.479,3.954c-4.629,0.964-9.74,0.482-14.756,0.386
			c-4.146,0-9.449-1.157-13.596-2.989c-2.025-0.482-4.242-1.254-5.689-2.508c-2.121-0.579-3.762-2.121-5.594-3.278
			c-0.385-0.676-0.867-1.35-0.867-2.025c0-0.097-0.096-0.192-0.096-0.192c1.928,0.481,3.76,1.929,5.688,3.085
			c1.545,0.868,2.412,2.025,4.051,2.411c2.797,0.579,5.016,2.508,7.908,2.314c5.303,1.351,11.09,1.253,17.455,0.868
			c-0.965-2.219,0.674-3.086-0.098-4.436c0.098-0.579,0.193-0.965,0.387-1.351c0.289-0.289,0.48-0.578,0.867-0.289
			c0.193,0.193,0.289,0.289,0.482,0.481c-0.193,0.579,0.191,0.965,0.48,1.254c-0.289,1.254,0,2.508-0.191,4.051
			c4.725,0.482,7.906-0.868,11.764-1.061c1.641-0.771,4.146-0.965,6.172-1.543c1.832-0.58,4.051-0.58,5.787-1.64
			c1.447,0.192,3.086-0.289,4.242-1.735c2.508,0.096,4.438-1.736,7.328-2.315c0-0.771,0-0.481,0-0.481
			c0.482-0.193,1.447-1.254,2.605-0.868C934.094,581.281,933.998,581.668,933.805,582.054z"/>
		<path style="fill:#17192D;" d="M924.064,560.55c-3.471,2.507-7.906,2.121-11.088,4.821c-1.256,0.386-2.604,1.061-3.666,1.736
			c-2.988-0.097-6.074,1.832-10.125,3.664c2.604,1.061,4.531,0.771,5.883,0.387c5.689,0,10.703-0.965,16.684-0.098
			c1.639,0,3.664-0.482,5.109,0.193c2.797,0.096,6.076-0.676,8.486,0.675c0.096,0.097,0.096,0.097,0.193,0.193
			c-2.025,0.578-4.629,0.385-6.654,0.289c-1.736-0.482-3.566,0.192-5.496,0.192c-3.762,0.097-7.715-1.254-11.09,0.386
			c-3.086,0.386-5.979-1.061-8.969,0c-2.699,0.868-5.4-0.482-7.908,0.771c-4.627-0.771-10.607,0.097-15.621-0.771
			c-5.689,0-11.477,0.386-17.068-0.578c-3.086-0.097-4.34-0.675-7.232-1.253c-0.096,0,0.482-0.676,0.482-0.869
			c3.086-1.832,4.146-2.41,7.426-3.664c4.531-1.832,9.352-1.446,13.885-2.7c6.365,0.097,12.633,0.964,17.262,7.04
			c8.486-5.111,17.551-5.69,25.748-10.126c3.664-1.157,7.039-2.989,10.703-4.146c0.578,0,1.543-0.386,2.219-0.193
			C930.236,558.234,927.15,559.586,924.064,560.55z M869.773,566.914c-1.254,0.387-2.797-0.096-3.953,0.676
			c-1.543-0.193-2.99,0.675-4.244,1.156l-2.312,1.64c0.867,0.097,4.242,0.386,5.205,0.579c1.254,1.253,3.473,0.675,5.016,1.061
			c7.135-0.965,15.139,0.192,23.723-0.193c-1.254-1.543-2.508-1.929-3.182-2.604c-1.352-1.35-5.111-2.797-7.619-3.857
			C878.066,565.949,873.438,564.985,869.773,566.914z"/>
		<path style="fill:#17192D;" d="M851.066,530.848c0.193,1.641,0.867,2.797,1.156,4.532c-0.578,2.604-0.096,4.919,0.867,8.101
			c1.352-0.675,2.316-0.482,2.797-0.289c1.832-0.193,4.146,0.289,5.979,0.193c1.736-0.387,3.857-0.579,5.594-0.579
			c2.701-1.35,6.076-1.735,8.775-2.313c1.543,0.385,3.375,0,4.822,0.191c6.557,0,13.309-1.639,19.479-2.506
			c1.158,0.096,2.893-0.193,3.953,0.096c0.193-0.096,0.676-0.096,0.773-0.193c4.82-0.192,8.678-0.289,13.5-0.289
			c2.219,0,4.146,0.387,6.172,0.482h-0.096c-2.508,1.832-5.98,1.157-8.68,1.736c-3.955-0.965-8.102,1.061-12.344-0.579
			c-2.508,2.604-5.496,0.579-8.1,1.446c-2.412-0.289-5.305-0.193-7.33,1.061c-0.965-0.096-1.832,0.289-3.182-0.192
			c-2.314,1.35-5.207,0.675-7.619,0.675c-3.953-0.868-7.135,1.736-10.896,1.254c-2.699,1.35-5.785,1.157-8.871,1.157
			c-0.965-1.061-2.508-0.097-4.438-2.219c-0.674,4.243-0.289,6.751-0.48,9.354c0.48,2.025-0.289,4.243,0,6.461
			c-0.098,0.096-0.098,0.193-0.193,0.289c-0.771-0.096-0.965-0.964-1.254-1.542c0.578-1.929,0.482-3.857,0-5.786
			c-0.385-0.482,0-1.35,0.098-2.314c-1.062-1.446-0.193-3.568-0.965-4.918c0.482-1.544-0.193-3.183-0.098-4.726
			c-0.867-1.543,0.291-3.569-0.578-5.11c0-1.352-1.832-2.701-0.289-3.762c0.096-0.096,0.289-0.192,0.482-0.289
			C850.486,530.366,850.969,530.463,851.066,530.848z"/>
		<path style="fill:#17192D;" d="M922.908,479.449c0.867,2.025,0.289,4.629,0.674,6.269c-0.191,2.989,0.482,5.689,0.965,8.582
			c-0.096,0.579-0.385,1.254-0.867,1.64c-2.025-0.482-4.146-0.386-5.979-0.578c-1.832,0.674-3.953-0.193-6.076-0.869
			c-3.664,0.387-7.521-0.289-10.896-0.578c-4.146,0.482-7.908-0.289-11.957-0.675c-3.666,0.579-7.232-0.579-10.705-1.64
			c-0.674-0.867-0.965-0.771-1.35-0.096c-5.4-0.482-10.221-2.314-15.236-4.147c-3.375-1.253-2.699-1.061-6.461-2.507
			c-0.482,1.543,0,2.797-0.193,3.568c-0.191,1.061-0.191,2.121,0,3.182c-0.191,2.025,0.098,4.533,0.869,6.558
			c-0.098,0.097-0.098,0.192-0.193,0.289c-0.676-0.097-1.061-0.868-1.35-1.543c-0.387-1.253,0-2.218-0.869-3.183
			c-0.193-1.543,0.096-2.893-0.193-4.628c0.771-2.218-0.963-5.304,1.834-5.689c1.734,1.35,3.471,1.542,5.496,2.314
			c1.156,0.481,2.701,0.868,4.146,1.253c8.1,2.122,15.621,4.533,24.012,5.111c3.568-0.771,7.328,0.868,11.09,0.482
			c4.146,0,8.1,0.289,12.633,1.156c1.639,0.29,3.375-0.096,5.496,0.868c2.025-2.411,5.4,1.062,5.111-3.182
			c-0.578-2.894-0.771-6.269-0.771-9.065c0.096-1.061-0.289-2.41,0.385-3.085C922.619,479.257,922.715,479.353,922.908,479.449z"/>
		<path style="fill:#17192D;" d="M883.082,446.084c2.699,0.482,4.918,0.965,7.811,0.579c5.014,2.121,10.801-0.868,15.525,2.604
			c2.604,0.579,5.883,0.675,8.293,1.929c4.051,1.35,8.293,1.929,11.766,4.725c1.445,1.93,2.508,3.664,3.568,5.69
			c-0.193,1.929-0.098,4.146-1.832,5.014c-3.666,1.446-7.523,2.122-11.09,3.954c-7.715,0.193-14.852,2.989-22.084,1.735
			c-3.473,0.772-6.848-0.096-10.318,0.482c-5.979-0.386-11.477-2.797-17.262-3.857c-1.254-1.06-6.172-1.929-2.219-3.471
			c2.605-0.482,4.244,1.446,6.559,2.024c1.35,0.289,2.604,1.833,4.146,1.833c5.883,1.06,10.994,2.12,17.357,1.35
			c5.498,1.35,11.477,0,16.973-1.157c5.207-0.387,9.932-1.832,14.754-3.183c2.314-1.061,1.447-2.989,2.508-5.497
			c-1.254-0.867-0.867-2.699-1.736-3.471c-1.543-1.736-4.629-2.604-6.557-3.762c-3.184-0.481-6.365,0-8.68-1.832
			c-2.604-0.482-5.594,0.193-7.617-1.832c-8.68-1.447-17.455-0.771-25.555-2.797c-4.727-0.481-8.68-0.675-12.537-3.086
			c0.193-0.578,1.158-0.289,1.543-0.482C872.377,443.191,877.199,446.566,883.082,446.084z"/>
		<path style="fill:#17192D;" d="M928.887,387.742c-1.156,0.868-2.699,1.447-3.857,2.412c-4.725,1.349-9.836,2.603-14.947,2.603
			c-3.664,0.579-7.424,1.351-10.992,2.219c-1.93-0.194-4.146-0.579-6.365-0.097c-0.289,0.771-0.289,1.061-1.447,1.35
			c1.061,2.797,3.279,4.725,4.34,6.75c0.578,0.29,1.158,1.061,0.965,1.736c-0.387,1.157,0.193,1.157,0.867,1.832
			c0.869,0,1.641,0.097,2.412,0.482c2.025-0.676,3.566-0.676,5.207-0.098c1.832,1.062,3.375,0.29,5.4,0
			c3.857-0.578,7.521-1.445,11.475-1.639c3.086-0.096,6.172-0.096,9.451-0.096c0.289,0.096,0.578,0.192,0.482,0.482
			c0,0.288-0.387,0.578-0.676,0.674c-4.822,0.29-9.449,0.482-13.693,1.832c-3.182-0.096-5.787,0.869-8.775,0.579
			c-7.135-0.675-14.658,0-21.408,0.868c-2.99-0.676-5.303,0.578-8.197,0.386c-7.521-0.579-15.332-0.579-21.986-2.797
			c-0.965-0.29-0.482-1.061-0.965-1.735c0.098-0.289,0.58,0,0.771-0.097c2.316,0.482,4.34,1.542,6.654,1.446
			c0.098,0.096,0.098,0.096,0.193,0.193c3.953-0.193,7.619,1.061,11.09,0.867c2.604,1.447,5.496-0.386,8.293,0.097
			c3.568,0.579,6.559-0.675,10.029-1.157c0.482-0.386,1.158-0.771,1.832-1.543c-1.156-3.086-4.725-5.015-5.111-7.521
			c0.482,0-0.674-0.771-0.191-2.314c-2.99-0.867-5.402,0.289-7.619-0.771c-1.832-0.482-3.664,0.482-5.594-0.578
			c-2.604,1.253-4.918,0.096-7.426,0.289c-1.445-1.254-2.023,1.253-3.76,0.097c-1.639,0.482-3.857,0.771-5.207,0
			c0.096-0.386,0.096-0.676,0-1.062c1.445-0.867,3.471,0.289,4.918-0.867c2.121-0.193,3.664,0.965,5.785,0.578
			c6.172-1.157,13.02,0.193,19.287-0.193c4.34-0.192,9.064,0.482,13.211-0.964c6.559-1.062,13.404-1.929,19.576-3.183
			c1.543-0.964,3.375-2.024,5.305-1.928C928.502,387.164,928.791,387.356,928.887,387.742z"/>
		<path style="fill:#17192D;" d="M929.756,356.498c0.77,0.386,1.541,0,2.41,0.192c0.676,0,1.158,0.193,1.736,0.579
			c0.096,0.482-0.482,0.867-0.771,1.35c-0.676,0.868-1.447-0.482-1.641-0.482c-0.193-0.385-1.156,0.482-2.121-0.964
			c-1.93,0.579-3.664,0.579-5.014,0.193c-2.701,0.289-5.689-0.482-8.295,0.578c-1.061,0.097-1.639,1.351-2.121,1.929
			c-0.096,0-0.48,1.157-1.35,1.543c-1.254,1.158-3.086,2.989-3.664,3.472c-0.482,0.482,0-0.579-0.869,0.386
			c-0.482,0.386-0.289,0.578-0.963,1.64c-0.867,1.061-2.605,2.893-2.99,3.374c-0.578,1.158-1.156,2.508-1.832,4.051
			c2.025,1.351,4.051,0.965,5.4,1.833c1.736,0.096,3.857,0.481,5.689,0.964c1.061-0.868,1.832,0.193,2.604,0.193
			c1.061,0.578,2.701,0.481,3.953,1.061c2.412,0.386,4.533,1.832,7.232,1.35c0.965,0.193,2.123,0.578,3.086,0.868
			c-0.096,0.192-0.191,0.386-0.385,0.386c-1.639,0.289-3.086-0.579-4.531-0.482c-0.387-0.289-0.676-0.386-1.062-0.289
			c-0.771-0.097-1.543-0.289-2.217-0.289c-1.543-0.482-2.605,0.385-5.111-1.254c0,1.446,0.193,0.578,0.193,0.578
			c-1.447-0.386-3.473-0.964-5.402-0.867c-1.156-0.771-2.602-0.482-3.76-0.771c-2.699-0.289-4.533-1.351-7.137-1.158
			c0,0-0.096-0.096-0.191-0.096c-0.771-0.482-1.641-0.192-2.121-0.675c-5.885-1.64-11.861-3.279-17.746-4.919
			c-1.348-0.675-2.506-0.964-3.953-1.543c-1.928-0.675-3.76-1.831-5.785-2.604c-2.025-0.771-3.953-2.024-6.268-2.699
			c-0.58-0.289-1.543,0.192-1.543-0.771c0-0.29-0.289-0.965-0.096-1.061c0.674-1.062,2.602-1.062,3.566-1.544
			c2.314-0.192,5.594-0.675,8.391-1.253c1.061-1.254,2.699-0.29,3.953-0.771c4.725,0.193,9.643-2.218,15.043-1.543
			c6.848-1.061,14.465-1.639,20.926-1.061C919.918,356.306,924.838,355.823,929.756,356.498z M900.535,358.137
			c-1.254-0.481-3.182,0.676-5.111,0.289c-2.314-0.385-4.82,0.387-7.135,0.773c-2.219-0.387-3.955,0.964-6.172,0.77
			c-1.447,0.194-3.857,0.194-5.787,0.579c-3.182,0.579-6.074,1.446-9.738,1.735c1.445,1.641,4.051,2.797,4.436,2.894
			c2.025,0.675,3.664,1.833,5.496,2.411c2.797,0.964,5.207,1.929,7.811,2.699c1.834,0.482,4.244,1.062,5.885,1.352
			c1.83-0.098,4.436,1.542,6.941,1.928c1.447,0.193,0.771,0.868,2.797,0.289c0.771-1.832,1.93-3.086,2.604-4.725
			c0.867-1.157,1.35-1.254,2.604-2.604c0.869-0.868,1.736-2.219,2.699-3.472c0.869-0.964,2.027-2.025,2.605-2.7
			c0-0.192,1.156-1.447,1.156-2.219c-1.35-0.289-2.893-0.289-3.762-0.385C905.262,357.366,903.236,357.752,900.535,358.137z"/>
		<path style="fill:#17192D;" d="M929.369,333.161c1.736,2.024,2.893,4.05,4.629,6.461c0.289,2.314,1.928,2.314,1.543,4.147
			c-1.543,2.12-2.41,1.061-4.244,1.156c-5.977-0.771-13.018,0.482-18.803,0.868c-5.209-0.386-8.102,0.386-15.236,0.578
			c-1.834,0.772-4.438,0.29-6.461,0c-2.123,0.868-5.691,0.482-8.004-0.192c-7.715,0.965-14.08,0.192-21.602,0.578
			c-0.58-0.096-1.447,0.387-1.061-0.289c0-0.097,0.096-0.482,0.096-0.579c0.193-0.192,0.289-0.481,0.482-0.868
			c-0.098-0.674-0.193,0.29,0.289,0.29c0.867-1.061,1.254-2.989,2.701-2.989c0.77-1.061,1.541-1.64,2.41-1.928
			c1.736-1.641,2.699-3.088,5.016-3.088c3.953-3.182,8.967-2.796,13.498-2.796c4.533,1.544,8.295,3.954,12.152,8.968
			c1.639-1.832,1.543-4.339,2.604-4.82c0.674-1.64,1.928-2.99,3.471-4.629c3.086-2.122,5.787-2.508,9.064-3.761
			c3.762-2.604,7.811,1.253,11.572-0.193C925.416,330.461,927.15,332.486,929.369,333.161z M872.473,337.982
			c-2.121,2.797-4.049,1.254-5.785,5.111c-0.289,0.193-0.578,0.385-1.061,0.096c-3.664,1.641,0.289,1.832,1.832,1.93
			c3.184-1.062,4.725,0.192,7.908,0.097c3.279-1.062,7.039,0.385,10.512-0.579c1.061-0.289,1.832-0.097,2.795-0.097
			c2.123-0.482,3.568,0.481,7.811,0c-2.988-2.508-3.664-3.182-5.207-4.243c-2.217-0.965-4.242-2.508-6.268-3.664
			C880.67,335.668,876.139,336.439,872.473,337.982z M904.008,335.186c-2.604,2.508-3.568,4.244-6.076,9.451
			c2.701,0,4.051-0.867,5.207-0.482c4.822-2.025,9.258,0.867,14.273-0.385c3.182-1.158,6.557,0,9.836-1.158
			c1.156,0.578,4.629,0.578,5.496,0.193c0.098-0.193-0.867-1.158-0.578-2.41c-1.35-1.93-2.604-4.052-3.664-6.365
			c-2.123-0.193-3.375-0.579-4.822-1.447c-3.086-0.578-6.461-2.313-9.836-1.156C910.469,332.582,907.189,333.547,904.008,335.186z"
			/>
		<path style="fill:#17192D;" d="M933.805,311.463c-0.963,2.123-3.279,2.315-4.918,3.473c-2.217,1.158-4.629,2.314-7.135,2.604
			c-0.676,0.386-1.641,0.482-2.412,0.579c-6.461,1.157-12.729,3.761-19.479,3.953c-4.629,0.964-9.74,0.482-14.756,0.386
			c-4.146,0-9.449-1.157-13.596-2.988c-2.025-0.482-4.242-1.255-5.689-2.508c-2.121-0.579-3.762-2.122-5.594-3.279
			c-0.385-0.675-0.867-1.35-0.867-2.025c0-0.096-0.096-0.193-0.096-0.193c1.928,0.482,3.76,1.93,5.688,3.087
			c1.545,0.868,2.412,2.025,4.051,2.411c2.797,0.578,5.016,2.508,7.908,2.314c5.303,1.35,11.09,1.254,17.455,0.867
			c-0.965-2.218,0.674-3.085-0.098-4.436c0.098-0.578,0.193-0.965,0.387-1.351c0.289-0.289,0.48-0.578,0.867-0.289
			c0.193,0.193,0.289,0.289,0.482,0.482c-0.193,0.579,0.191,0.964,0.48,1.253c-0.289,1.255,0,2.508-0.191,4.051
			c4.725,0.482,7.906-0.867,11.764-1.061c1.641-0.771,4.146-0.965,6.172-1.543c1.832-0.578,4.051-0.578,5.787-1.639
			c1.447,0.191,3.086-0.291,4.242-1.736c2.508,0.096,4.438-1.736,7.328-2.314c0-0.771,0-0.482,0-0.482
			c0.482-0.193,1.447-1.253,2.605-0.868C934.094,310.692,933.998,311.078,933.805,311.463z"/>
		<path style="fill:#17192D;" d="M870.352,283.498c1.062,0,2.604-0.096,3.762-0.191c2.797-1.736,7.135,0,10.414,0.385
			c2.025-1.157,5.4-0.481,7.521-0.675c3.086-0.771,7.137,0.193,10.705,0.193c6.268,0,13.5-0.193,19.768-0.482
			c0.965-0.097,1.93-0.676,2.799-0.29c0.096,0.097,0.191-0.096,0.289-0.096c-2.219,1.447-4.92,1.543-7.137,2.508
			c-3.184,2.796-6.848,4.242-10.223,6.363c-4.051,1.833-8.197,3.184-11.861,5.979c-1.156,0.579-2.217,1.253-3.375,1.833l-2.795,1.35
			l3.182,0.192c7.521,0.482,14.561-1.35,22.275-0.289c3.086,0,5.979-1.253,8.969-0.675c0.771-0.096,1.734,0,2.41,0
			c-0.096,0.193,0,0.578-0.096,0.675c-0.771,0-1.447,0.193-2.121,0.675c-0.773,0.386-1.736,0.386-2.605,0.578
			c-2.604,0.29-5.207-0.096-7.811,0.482c-7.039,0.193-13.887-0.675-20.732,0.097c-3.182-0.579-6.365,1.062-9.451,0.192
			c-2.025,0.482-4.629-0.578-6.172,0.58c-4.629-0.482-9.16-1.254-13.982-1.254c-1.061-0.387-2.701,0-3.182-1.157
			c-0.098-0.097,0.578-1.062,0.578-0.579c5.207-1.35,9.645,1.736,15.621,1.061c3.086-0.386,6.27,0,9.549-0.964
			c0.963-1.351,2.41-1.254,3.471-2.122c1.928-0.289,3.857-0.771,5.111-2.121c4.918-2.411,9.932-3.279,13.887-6.847
			c1.156-0.482,2.312-1.062,3.566-2.122c0-0.289,2.797-1.543,2.797-1.832c-0.096-0.192-2.988,0.482-2.988,0.097
			c-3.762,0-7.232-0.675-10.223,0.386c-5.4-1.35-10.994-1.447-16.779-0.193c-4.146-0.481-8.391-1.061-12.439-0.289
			c-3.375-1.447-7.137,1.543-10.223-1.156c-0.289-0.869-1.832-0.579-1.736-1.641C864.373,281.57,867.17,283.402,870.352,283.498z"/>
		<path style="fill:#17192D;" d="M921.463,238.176c3.76,0.965,6.459,4.146,10.221,5.304c0.578,1.062,1.832,1.64,2.41,2.7
			c-0.867,0.289-1.832-0.578-2.604-0.964c-0.674-0.675-1.35-1.061-2.314-1.157c-2.121-1.543-5.014-2.219-7.232-3.954
			c-1.639-0.578-4.049-0.771-5.883-1.64c-3.277-0.192-6.557-0.192-9.738,0.387c-3.086,0.578-6.076,1.832-8.486,3.953
			c-3.182,1.543-6.848,2.7-10.318,3.472c-5.4,2.7-12.246,2.411-17.84,0.192c-3.279,0-5.111-2.796-8.102-3.182
			c-0.867-0.676-1.639-1.35-2.699-1.736c-0.578-0.482-0.289-1.253-0.771-1.929c0-0.192-0.387,0.097-0.193,0.194
			c1.352,0.096,2.797,0.674,3.953,1.252c5.111,3.954,11.959,4.147,18.131,5.498c4.338-0.193,7.906-2.219,12.053-3.184
			c2.605-1.639,5.883-2.218,8.486-3.856c1.93-0.192,3.473-2.411,5.498-1.929c4.34-1.543,9.449-1.543,13.596,0
			C920.207,237.887,920.787,238.08,921.463,238.176z"/>
		<path style="fill:#17192D;" d="M940.941,215.901c1.254,1.06,0,0.963-0.193,1.349c-5.4,4.726-12.922,3.762-18.707,7.522
			c-4.146,1.543-8.582,2.121-12.633,3.085c-3.182,0.098-6.076,1.447-9.066,0.869c-0.963,0.771-2.41,0-3.471,0.385
			c-6.943,0-10.896-1.35-16.297-2.506c-1.832,0.192-3.762-0.387-5.207-1.641c-2.508,0.289-4.533-0.482-6.365-1.446
			c-4.436-1.64-8.871-3.375-12.055-6.461c0,0.097-0.578-0.193-0.289-0.386c0.771-0.482,1.641,0.386,2.412,0.771
			c4.531,0.386,7.426,3.664,11.475,4.629c1.832,0.965,3.857,0.965,5.594,1.64c7.426,1.929,12.342,3.567,20.154,3.664
			c0.096,0,0.289-0.675,0.289,0.097c6.654-0.386,12.344-1.929,18.418-2.604c6.172-1.929,12.344-4.147,18.516-6.076
			c1.639-1.061,3.568-1.929,5.689-2.699c0.578,0,1.641-1.061,1.93-0.675C941.23,215.419,941.906,215.419,940.941,215.901z"/>
		<path style="fill:#17192D;" d="M928.887,185.524c-1.156,0.868-2.699,1.446-3.857,2.411c-4.725,1.35-9.836,2.604-14.947,2.604
			c-3.664,0.578-7.424,1.35-10.992,2.218c-1.93-0.192-4.146-0.578-6.365-0.097c-0.289,0.771-0.289,1.061-1.447,1.35
			c1.061,2.797,3.279,4.726,4.34,6.751c0.578,0.289,1.158,1.062,0.965,1.735c-0.387,1.158,0.193,1.158,0.867,1.833
			c0.869,0,1.641,0.096,2.412,0.481c2.025-0.675,3.566-0.675,5.207-0.096c1.832,1.061,3.375,0.289,5.4,0
			c3.857-0.579,7.521-1.447,11.475-1.64c3.086-0.097,6.172-0.097,9.451-0.097c0.289,0.097,0.578,0.193,0.482,0.482
			c0,0.289-0.387,0.578-0.676,0.675c-4.822,0.289-9.449,0.482-13.693,1.833c-3.182-0.098-5.787,0.867-8.775,0.578
			c-7.135-0.676-14.658,0-21.408,0.867c-2.99-0.674-5.303,0.579-8.197,0.387c-7.521-0.578-15.332-0.578-21.986-2.797
			c-0.965-0.289-0.482-1.061-0.965-1.736c0.098-0.289,0.58,0,0.771-0.096c2.316,0.482,4.34,1.543,6.654,1.446
			c0.098,0.097,0.098,0.097,0.193,0.192c3.953-0.192,7.619,1.061,11.09,0.868c2.604,1.446,5.496-0.386,8.293,0.097
			c3.568,0.578,6.559-0.675,10.029-1.157c0.482-0.386,1.158-0.771,1.832-1.543c-1.156-3.086-4.725-5.015-5.111-7.521
			c0.482,0-0.674-0.772-0.191-2.314c-2.99-0.868-5.402,0.289-7.619-0.772c-1.832-0.481-3.664,0.482-5.594-0.578
			c-2.604,1.254-4.918,0.097-7.426,0.29c-1.445-1.255-2.023,1.253-3.76,0.096c-1.639,0.482-3.857,0.771-5.207,0
			c0.096-0.386,0.096-0.675,0-1.06c1.445-0.869,3.471,0.288,4.918-0.869c2.121-0.193,3.664,0.965,5.785,0.578
			c6.172-1.156,13.02,0.193,19.287-0.191c4.34-0.193,9.064,0.482,13.211-0.965c6.559-1.061,13.404-1.929,19.576-3.183
			c1.543-0.964,3.375-2.024,5.305-1.929C928.502,184.946,928.791,185.139,928.887,185.524z"/>
		<path style="fill:#17192D;" d="M867.652,169.227c1.445,0.193,2.41,1.641,4.051,1.641c3.086,1.543,5.979,2.313,9.738,2.507
			c0.58,0.289,1.543,0.386,2.219,0.578c2.121,0.193,4.051,1.157,6.076,1.157c1.252,0.386,2.988-0.289,4.146,1.254
			c1.541-0.386,2.699-0.771,3.664-1.254c0.385-0.771,1.445-1.735,1.35-2.797c0.674-1.061,0.096-1.928,0.578-3.278
			c0.578-1.833,0.578-2.893,1.543-4.821c0.482-0.387,0.965-0.771,1.543-0.676c0.387,0.965,0,2.122,0,3.279
			c-1.254,2.507-1.061,3.857-1.928,7.136c0.771,0.482,0.482,0.868,0.771,1.062c2.41,0.385,5.014,0.096,7.039-0.387
			c1.254,0.193,2.314-0.289,4.242-0.289c0.387-1.157,1.254-0.289,1.834-0.578c3.471-0.29,6.557-2.219,10.125-2.411
			c1.543-1.35,4.146-1.157,5.689-2.314c1.832,0.192,2.797-2.218,5.109-1.64c1.158-0.867,2.219-1.929,3.666-1.929
			c0.385,0.29,0.771,0.579,1.156,0.965c-0.191,1.446-1.832,1.543-2.893,2.313c-1.639,0.193-3.182,0.579-4.34,1.641
			c-2.121-0.097-3.375,1.735-5.4,1.639c-0.771,0.482-1.543,0.578-2.121,0.965c-0.771-0.097-1.447,0.192-2.025,0.481
			c-4.436,0-7.908,2.894-12.344,2.604c-0.578,0.385-1.639,0.385-2.217,0.482c-4.727,1.639-10.223,1.35-15.043,1.253
			c-2.219-0.578-4.92,0-6.848-0.964c-5.979-1.061-11.764-3.472-17.455-5.016c-2.699-1.061-5.207-2.699-7.715-4.05
			c-2.795-1.543-6.074-2.604-8.1-5.4c0-0.192,0-0.481,0.193-0.578C858.299,164.598,862.83,167.105,867.652,169.227z"/>
		<path style="fill:#17192D;" d="M933.324,150.809c0.289,0.097,0.48,0.193,0.674,0.387c-0.867,2.217-3.473,0.964-5.496,1.542
			c-1.736,0.29-3.375,0-5.111,0.097c-4.725,0.097-9.451-0.097-13.982,0c-2.412,0-5.594,0.193-8.102-0.097
			c-1.639-0.192-3.664,0-5.303,0.097c-3.955,0.386-7.715,0-11.861,0.289c-0.193-0.192-0.387-0.192-0.578-0.192
			c-1.736,0.868-3.666,0.097-5.305,0.386c-3.953,0.193-7.715,0.578-11.572,0.578c-2.699-1.157-5.496,0.579-8.293-0.096
			c-0.387-0.097,0.578-1.157,0.869-1.157c4.242-2.894,9.16,1.157,13.885-0.193c5.594-1.543,11.861-0.964,17.359-1.253
			c5.496-0.29,10.703,0.192,16.297,0c1.541-0.193,3.086-0.193,4.725-0.193c0.385,0,0.867,0.097,1.254,0.097
			c4.242-0.097,8.486-0.097,12.246-0.675C927.922,151.195,930.334,150.713,933.324,150.809z"/>
		<path style="fill:#17192D;" d="M936.506,112.911c-7.619,3.375-14.176,7.812-20.83,12.247c-0.578,0.289-0.771,1.061-2.025,1.061
			c-3.086,3.086-6.943,3.375-9.74,6.172c-2.506,1.254-5.303,2.701-8.195,4.918c0.385,0.289,1.061,0.58,1.35,0.771
			c2.025,0.965,4.051,0.193,5.883,0.29c5.785,0.192,11.09-0.772,16.199-0.868c4.918,0,9.451-1.157,13.791-0.676
			c0.096,0.193,0.096,0.482,0.096,0.868c-0.289,2.218-2.797,0.676-3.857,1.062c-4.629,0.578-8.678,0.674-13.693,0.867
			c-6.172,0.386-12.246,0.097-18.418,0.771c-4.146,0.387-7.908,0-11.861,0.869c-6.557-0.772-13.211,2.603-19.77,1.253
			c-1.543,0-3.086,0.771-4.725,0.386c-0.676-0.482-3.762,0.096-2.219-1.351c5.016-0.771,10.223,0,15.334-0.675
			c7.715-0.289,15.912-0.771,21.6-5.689c0.965-0.289,1.736-0.965,2.412-1.447c2.41-1.446,5.014-2.506,7.039-4.628
			c2.025-0.675,3.857-1.832,5.498-2.989c2.893-2.893,6.75-3.954,9.932-6.172c0-0.386,0.289-0.289,0.482-0.386
			c0.867-0.386,1.543-1.157,2.604-1.929c0-0.386,2.797-0.964,2.699-1.254c-0.096-0.289-3.277-0.192-3.568-0.386
			c-4.436,0.965-9.932,1.351-15.043,1.833c-5.496,0.481-9.16,1.543-14.369,1.639c-1.832-0.385-4.436,1.446-6.268-0.096
			c-2.025,0-3.182-0.098-4.82,0.481c-1.447,0-2.895-0.192-4.629-0.192c-0.387-0.097-0.773,0.289-1.158,0.289
			c-1.639,1.061-2.508-1.447-3.762-0.289c-0.578,0.192-1.156,0.675-1.734-0.193c-3.086,0.868-5.498,0.386-8.1-1.061
			c-0.869,0.386-1.158-0.097-1.545-0.385c0-0.098,0-0.193,0-0.291c0.289-0.674,0.869,0.291,0.869,0.193c0,0,0.578,0.482,1.158-0.096
			c0.385-0.579,1.252,0.674,1.445,0.385c3.279,0.771,7.137,0.579,10.801,0.097c3.375,0.579,8.486-0.386,11.668,0.29
			c0.676-0.098,1.543-0.676,2.701-0.29c1.061-0.964,2.506-0.097,3.277-0.675c4.051-0.289,8.391-0.964,12.537-0.964
			c3.953-0.387,8.293-0.772,11.475-1.255c0.676,0.194,1.447-0.385,2.121,0.098c1.641-0.386,2.316-0.386,3.568-0.579
			c2.508-0.482,5.689-0.868,7.908-1.351c0.385,0,0.867-0.289,1.445-0.964c-0.482-0.867,0.58-0.482,0.676-0.482
			c0.869-0.385,2.314,0.386,3.762-0.097C936.506,112.333,936.602,112.622,936.506,112.911z"/>
		<path style="fill:#17192D;" d="M851.066,85.622c0.193,1.639,0.867,2.796,1.156,4.532c-0.578,2.604-0.096,4.918,0.867,8.1
			c1.352-0.674,2.316-0.481,2.797-0.288c1.832-0.193,4.146,0.288,5.979,0.192c1.736-0.386,3.857-0.578,5.594-0.578
			c2.701-1.351,6.076-1.736,8.775-2.314c1.543,0.385,3.375,0,4.822,0.192c6.557,0,13.309-1.64,19.479-2.507
			c1.158,0.096,2.893-0.193,3.953,0.096c0.193-0.096,0.676-0.096,0.773-0.192c4.82-0.192,8.678-0.29,13.5-0.29
			c2.219,0,4.146,0.387,6.172,0.482h-0.096c-2.508,1.832-5.98,1.158-8.68,1.736c-3.955-0.965-8.102,1.061-12.344-0.578
			c-2.508,2.603-5.496,0.578-8.1,1.445c-2.412-0.289-5.305-0.192-7.33,1.062c-0.965-0.097-1.832,0.29-3.182-0.192
			c-2.314,1.35-5.207,0.674-7.619,0.674c-3.953-0.867-7.135,1.736-10.896,1.255c-2.699,1.349-5.785,1.156-8.871,1.156
			c-0.965-1.061-2.508-0.097-4.438-2.218c-0.674,4.243-0.289,6.75-0.48,9.354c0.48,2.024-0.289,4.243,0,6.46
			c-0.098,0.098-0.098,0.193-0.193,0.29c-0.771-0.097-0.965-0.964-1.254-1.544c0.578-1.928,0.482-3.855,0-5.785
			c-0.385-0.481,0-1.35,0.098-2.314c-1.062-1.446-0.193-3.568-0.965-4.918c0.482-1.543-0.193-3.182-0.098-4.725
			c-0.867-1.543,0.291-3.568-0.578-5.111c0-1.351-1.832-2.7-0.289-3.761c0.096-0.097,0.289-0.193,0.482-0.29
			C850.486,85.14,850.969,85.236,851.066,85.622z"/>
		<path style="fill:#17192D;" d="M930.334,78.486c0.096,0.097,0.191,0,0.191,0.097c-1.734,0.385-3.471-0.29-5.014,0.385
			c-1.061,0.675-2.41,1.254-3.76,0.579c-0.098-0.676-0.387-1.446-0.193-2.314c0.193-0.387,0.482,0.096,0.771-0.193
			C925.223,76.172,927.922,77.137,930.334,78.486z"/>
	</g>
	<path style="fill:none;stroke:#17192D;stroke-width:3;" d="M2048,0"/>
	<path style="fill:none;stroke:#17192D;stroke-width:3;" d="M2048,1536"/>
	<path style="fill:none;stroke:#17192D;stroke-width:3;" d="M0,1536"/>
	<path style="fill:none;stroke:#17192D;stroke-width:3;" d="M0,0"/>
</g>
<g id="Layer_1">
</g>
</svg>
