<?xml version="1.0" encoding="iso-8859-1"?>
<!-- Generator: Adobe Illustrator 15.1.0, SVG Export Plug-In . SVG Version: 6.00 Build 0)  -->
<!DOCTYPE svg PUBLIC "-//W3C//DTD SVG 1.1//EN" "http://www.w3.org/Graphics/SVG/1.1/DTD/svg11.dtd">
<svg version="1.1" xmlns="http://www.w3.org/2000/svg" xmlns:xlink="http://www.w3.org/1999/xlink" x="0px" y="0px" width="2048px"
	 height="1536px" viewBox="0 0 2048 1536" style="enable-background:new 0 0 2048 1536;" xml:space="preserve">
<g id="dtxtb_x5F_1">
	<g>
		<path style="fill:#FF0050;" d="M778.04,1481.601c3.568-0.289,6.268,1.157,9.547,1.929c0.676,0.578,1.35,0.578,1.35,0.481
			c0.193,0.097,1.447,0.386,2.508,0.965l0.289,0.097c1.447,0.771,1.543,0.675,2.604,0.771c1.736,1.157,3.955,1.35,5.4,2.41
			c2.893,2.122,7.137,4.146,9.74,7.232c1.832,2.314,3.664,3.568,5.303,5.883c0.098,0.579,0.482,1.157,0.098,1.832
			c-0.771,0-0.289,0.676-1.447-1.061l-0.191-0.386c-1.062,0.289-1.93,0.771-2.605,0.965c-1.639,0-4.146,0-5.883,0.192
			c-1.061-0.289-2.795,0.386-3.76,0c-4.822,0.289-11.09,0.482-16.395,0.097c-1.252,0.578-2.988,0.192-4.146,0.096
			c-5.014-0.289-9.545-1.832-14.078-1.35c-3.086-0.097-6.75,0.868-10.029-0.386c-2.314,0.289-5.979-0.289-7.811-0.192
			c-0.098,0-0.193,0.192-0.289,0.289c-4.727-0.579-10.801,0.192-15.334-0.289c-0.482-0.193-0.867-0.868-0.191-0.965
			c9.256-0.771,20.924-0.868,30.664-0.097c2.219-0.193,5.594,0.289,7.908-0.096c0.096,0.096,0.193,0.192,0.289,0.289
			c3.568,0,6.461,0.675,10.125,1.061c0.387-0.289,0.771-0.097,1.062,0.097c5.398,0.289,13.018-0.482,18.225-0.097
			c2.893-1.35,5.979,0.771,8.775-0.675c0.289-0.482,0.289,0.964,2.217-0.386c-0.578-0.193-1.156-1.157-0.867-1.157
			c-0.771-1.543-2.99-1.351-4.049-4.436c-0.58,0.578-0.387-0.29-0.869-0.29c0,0-0.482-0.289-0.674-0.386
			c-0.098-0.097-0.482-0.193-0.482-0.964c-0.965,0-1.158-0.289-1.447-0.097c-0.965-0.386-0.965-1.735-2.121-1.735
			c-0.482-0.193-1.158-0.386-1.447-0.772c-1.156-0.289-1.639-1.446-2.699-1.639c-1.543-1.061-3.857-0.868-5.111-1.736
			c-1.061,0-1.156-0.867-2.41-0.964c-3.375-1.832-7.812-1.832-11.379-2.604c-5.209,0-9.934-1.062-15.236,0
			c-1.736,0-3.279,0.675-4.822,0.964c-0.869,0.579-1.93,0.386-2.797,0.868c-7.137,2.218-14.369,5.11-20.541,10.029
			c-2.506,1.254-3.76,3.857-6.363,5.111c-0.578,0.385-0.193-0.482,0-0.772c1.928-2.604,4.531-5.4,7.232-7.425
			c2.604-1.929,6.074-3.375,8.969-5.111c2.604-1.157,5.398-1.929,7.617-2.893c2.797-0.193,3.375-1.929,6.268-1.64
			c0.58-0.097,1.062-0.482,2.121-0.386c0.482-0.386,0.869-0.193,1.545-0.482c0.867,0,1.832,0,2.893-0.289
			C769.167,1481.312,773.989,1480.732,778.04,1481.601z"/>
		<path style="fill:#FF0050;" d="M807.934,1462.796c-0.965,2.122-3.279,2.314-4.918,3.472c-2.219,1.157-4.629,2.314-7.137,2.604
			c-0.674,0.386-1.639,0.482-2.41,0.579c-6.461,1.157-12.73,3.761-19.48,3.954c-4.629,0.964-9.738,0.481-14.754,0.386
			c-4.146,0-9.451-1.157-13.598-2.99c-2.023-0.482-4.242-1.253-5.688-2.507c-2.123-0.579-3.762-2.122-5.594-3.278
			c-0.387-0.676-0.869-1.351-0.869-2.025c0-0.097-0.096-0.193-0.096-0.193c1.93,0.482,3.762,1.929,5.689,3.086
			c1.543,0.868,2.41,2.025,4.051,2.411c2.795,0.578,5.014,2.507,7.908,2.314c5.303,1.35,11.088,1.254,17.453,0.868
			c-0.965-2.219,0.674-3.087-0.096-4.437c0.096-0.578,0.191-0.964,0.385-1.35c0.289-0.289,0.482-0.579,0.867-0.289
			c0.193,0.192,0.291,0.289,0.482,0.481c-0.191,0.579,0.193,0.965,0.482,1.254c-0.289,1.253,0,2.507-0.191,4.05
			c4.725,0.482,7.906-0.868,11.764-1.061c1.639-0.771,4.146-0.964,6.172-1.543c1.832-0.578,4.051-0.578,5.787-1.64
			c1.445,0.193,3.084-0.289,4.242-1.735c2.508,0.097,4.436-1.735,7.328-2.314c0-0.771,0-0.481,0-0.481
			c0.482-0.193,1.447-1.254,2.604-0.868C808.223,1462.024,808.125,1462.411,807.934,1462.796z"/>
		<path style="fill:#FF0050;" d="M798.194,1441.292c-3.471,2.508-7.906,2.122-11.09,4.822c-1.254,0.386-2.604,1.062-3.664,1.735
			c-2.99-0.096-6.076,1.833-10.125,3.665c2.604,1.061,4.531,0.771,5.883,0.386c5.688,0,10.703-0.965,16.682-0.097
			c1.641,0,3.664-0.481,5.111,0.193c2.797,0.096,6.076-0.675,8.486,0.674c0.096,0.098,0.096,0.098,0.193,0.193
			c-2.025,0.579-4.629,0.387-6.654,0.289c-1.736-0.482-3.568,0.193-5.496,0.193c-3.762,0.097-7.715-1.254-11.09,0.386
			c-3.086,0.386-5.98-1.062-8.969,0c-2.699,0.867-5.4-0.481-7.908,0.771c-4.629-0.771-10.607,0.096-15.623-0.771
			c-5.688,0-11.475,0.386-17.066-0.579c-3.088-0.096-4.34-0.674-7.234-1.253c-0.096,0,0.482-0.676,0.482-0.867
			c3.086-1.833,4.146-2.411,7.426-3.666c4.531-1.831,9.354-1.445,13.887-2.7c6.363,0.098,12.633,0.965,17.262,7.04
			c8.486-5.111,17.551-5.689,25.748-10.125c3.664-1.157,7.039-2.989,10.703-4.147c0.578,0,1.543-0.385,2.219-0.191
			C804.366,1438.979,801.28,1440.328,798.194,1441.292z M743.903,1447.657c-1.254,0.386-2.797-0.097-3.953,0.675
			c-1.545-0.192-2.99,0.675-4.244,1.157l-2.314,1.64c0.867,0.096,4.242,0.386,5.207,0.578c1.254,1.254,3.471,0.675,5.016,1.062
			c7.135-0.965,15.139,0.192,23.723-0.193c-1.254-1.542-2.508-1.929-3.184-2.604c-1.35-1.35-5.109-2.796-7.617-3.857
			C752.196,1446.693,747.567,1445.729,743.903,1447.657z"/>
		<path style="fill:#FF0050;" d="M791.348,1391.532c-0.193-0.096,0.867-0.289,1.252-0.191c0.289,0,0.676,0,0.771,0
			c0.58,0.191,1.352,0.481,1.93,0.385c1.35,0.579,2.701,0.289,3.857,0.868c2.314,1.061,5.4,2.024,7.908,4.146
			c1.541,1.64,3.566,2.314,5.109,3.762c0.289,0.867,0.676,1.253,0.482,2.024c-1.543,0.096-2.314-2.122-3.76-2.7
			c-1.062-0.964-2.604-1.253-3.473-2.508c-0.193-0.096-0.578-0.482-0.771-0.578s-0.289-0.289-0.289-0.289
			c-0.098,0-0.482-0.193-0.482-0.289c-0.867-0.868-1.156-0.965-1.156-0.579c-0.676-0.193-1.158-0.676-1.832-0.578
			c-0.291-0.098-0.58-0.289-0.773-0.579c-1.156,0.192-1.445-0.386-2.023-0.482c-1.061-0.578-2.701,0-3.857-0.385
			c-0.578,0.096-1.061-0.482-1.736-0.387c-2.314-0.675-3.279-0.096-5.785,0.098c-3.184,1.156-3.279,0.867-5.305,1.638
			c-1.543,0.58-2.41,0.772-3.857,1.447c-1.445,0.675-2.025,1.446-3.471,2.121c-1.352,0.579-2.219,0.387-3.473,0.869
			c-1.447,0.578-2.314,1.253-3.664,1.831c-1.35,0.676-2.41,0.965-3.953,1.64c-1.447,0.868-2.219,1.735-3.953,2.218
			c-0.482,0-1.158,0.097-1.641,0.097c-0.482-0.097-1.061,0.097-1.35,0.097c-0.289,0.096-0.771-0.097-1.061-0.193
			c-1.736,0.579-2.701-0.578-4.533-0.385c-1.736-0.482-3.471-0.676-5.496-1.351c-1.93-1.061-4.436-1.543-6.559-2.989
			c-2.217-1.157-4.436-2.893-6.074-5.015c-0.193-0.289-0.965-1.061-0.289-0.965c1.734,0.771,3.279,2.507,5.111,3.183
			c4.916,3.086,10.029,4.918,15.139,5.399c0.578,0.29,1.254,0,1.93,0.29c0.965,0,2.314,0.29,3.375,0.097
			c3.471,0.386,2.699-1.157,4.146-1.735c1.543-0.579,2.508-0.482,3.857-1.158c0.965-0.578,1.447-1.253,2.604-1.735
			c0.963-0.578,1.639-1.061,2.893-1.253c2.893-0.29,2.99-0.869,4.436-2.122c0.676-0.387,1.061-0.868,1.832-1.157
			c0.676-0.578,1.254-0.289,2.123-0.578c1.156-0.289,1.734-0.676,2.893-1.062c1.061-0.386,2.217-0.867,2.797-0.867
			c2.025-0.869,3.182-0.289,5.111-0.482C790.866,1391.147,791.444,1391.532,791.348,1391.532z"/>
		<path style="fill:#FF0050;" d="M767.143,1376.683c1.832,1.446,3.953,2.796,5.592,4.917c7.232-0.578,13.889,0.868,20.252,0.676
			c2.797-0.097,4.725-1.833,7.328-1.64c0.098,0.771,0.676,1.543,1.641,1.832c0.193,0.193,0.193-0.579-0.096-0.481
			c-0.098,0.096-0.676,0.192-0.773,0.192c-3.471,2.314-8.678,0.675-12.922,1.254c-1.541,0.385-3.76,1.061-5.014,0
			c-5.787-1.062-12.729,0.482-18.42-0.771c-4.146-0.193-8.582,0.965-12.535,0.096c-5.979-0.481-11.957,0.193-18.033-0.675
			c-2.025,0.771-3.664,0-5.785-0.096c-0.578-0.387-1.736,0-2.025-0.676c0.385-0.481,0.191-1.253,0.771-1.64
			c2.217-1.831,5.207-2.313,7.424-3.664c2.219-0.386,4.148-0.868,6.076-1.929c0.193-0.289,0.387-0.578,0.578-0.675
			c2.508-0.193,5.016-1.929,7.715-0.867C755.088,1373.21,761.838,1373.5,767.143,1376.683z M742.262,1374.657
			c-2.023,1.446-4.629,2.025-6.75,2.604c-0.771,1.253-3.086,0.868-4.242,2.025c1.156,1.832,2.795,0.964,3.953,1.156
			c5.883,1.157,11.959,0.29,18.033,0.676c2.412,0.964,4.531-0.097,6.943,0.097c2.701,0.192,5.4-1.062,7.908,0.192l0.867-1.061
			c-1.156-1.736-2.797-2.989-4.918-3.568c-1.832,0-3.568-0.965-5.4-1.735c-3.279-0.868-6.557-0.676-10.029-0.868
			C746.506,1374.078,744.77,1375.332,742.262,1374.657z"/>
		<path style="fill:#FF0050;" d="M807.452,1360.386c0.289,0.097,0.482,0.193,0.674,0.386c-0.867,2.219-3.471,0.964-5.496,1.543
			c-1.734,0.29-3.375,0-5.109,0.097c-4.727,0.097-9.451-0.097-13.984,0c-2.41,0-5.592,0.193-8.1-0.097
			c-1.639-0.192-3.664,0-5.305,0.097c-3.953,0.386-7.713,0-11.861,0.289c-0.191-0.192-0.385-0.192-0.578-0.192
			c-1.734,0.867-3.664,0.097-5.303,0.386c-3.955,0.192-7.715,0.579-11.572,0.579c-2.701-1.158-5.496,0.578-8.293-0.098
			c-0.387-0.096,0.578-1.157,0.867-1.157c4.242-2.893,9.16,1.157,13.887-0.192c5.592-1.543,11.861-0.964,17.357-1.254
			c5.496-0.289,10.705,0.193,16.297,0c1.543-0.192,3.086-0.192,4.727-0.192c0.385,0,0.867,0.097,1.254,0.097
			c4.242-0.097,8.484-0.097,12.246-0.676C802.051,1360.771,804.461,1360.289,807.452,1360.386z"/>
		<path style="fill:#FF0050;" d="M741.78,1343.993c1.447,0.192,2.412,1.64,4.051,1.64c3.086,1.543,5.98,2.313,9.74,2.507
			c0.578,0.289,1.543,0.386,2.217,0.578c2.123,0.193,4.051,1.157,6.076,1.157c1.254,0.387,2.99-0.289,4.146,1.254
			c1.543-0.385,2.701-0.771,3.664-1.254c0.387-0.771,1.447-1.735,1.35-2.796c0.676-1.062,0.098-1.929,0.58-3.279
			c0.578-1.832,0.578-2.893,1.543-4.821c0.482-0.386,0.965-0.771,1.543-0.675c0.385,0.964,0,2.121,0,3.278
			c-1.254,2.508-1.061,3.857-1.928,7.136c0.77,0.482,0.48,0.868,0.77,1.062c2.412,0.386,5.016,0.096,7.041-0.386
			c1.252,0.192,2.312-0.289,4.242-0.289c0.387-1.158,1.254-0.289,1.832-0.579c3.471-0.289,6.559-2.218,10.127-2.411
			c1.541-1.35,4.146-1.156,5.688-2.314c1.834,0.193,2.797-2.218,5.111-1.639c1.158-0.868,2.219-1.929,3.666-1.929
			c0.385,0.289,0.771,0.578,1.156,0.964c-0.193,1.446-1.832,1.543-2.893,2.314c-1.639,0.193-3.184,0.579-4.34,1.64
			c-2.121-0.097-3.375,1.736-5.4,1.639c-0.771,0.482-1.543,0.579-2.121,0.965c-0.771-0.097-1.447,0.192-2.025,0.482
			c-4.436,0-7.908,2.893-12.344,2.604c-0.578,0.386-1.639,0.386-2.217,0.482c-4.727,1.64-10.223,1.35-15.045,1.253
			c-2.217-0.578-4.918,0-6.848-0.964c-5.977-1.061-11.764-3.472-17.453-5.015c-2.699-1.061-5.207-2.7-7.715-4.05
			c-2.797-1.543-6.076-2.604-8.1-5.4c0-0.192,0-0.482,0.193-0.579C732.426,1339.364,736.959,1341.871,741.78,1343.993z"/>
		<path style="fill:#FF0050;" d="M809.573,1313.618c1.254,0.481,2.121-0.193,3.086,0c-0.289,0.675-0.771,1.253-0.771,2.024
			c-0.385,1.061-1.734,1.254-2.506,2.025c-0.773,0.193-0.869,1.253-1.736,1.832c-2.025,1.254-3.857,2.604-5.883,4.051
			c-3.953,0.964-7.521,3.664-12.15,4.146c-3.568,1.64-8.197,1.543-12.15,1.64c-2.41,1.928-6.268,0.192-9.162,1.253
			c-1.445,0.192-2.314-0.386-3.471-0.386c-3.955,1.061-7.521-0.482-11.188-1.061c-2.602-1.157-5.398-1.446-7.906-2.797
			c-0.771-0.578-1.928-0.386-2.701-0.675c-3.084-2.025-6.652-3.279-9.449-5.497c-1.35-0.289-1.736-1.929-3.086-2.218
			c-0.482-0.675-1.447-1.254-0.869-2.7c-0.867-0.675-1.639-2.025,0-1.735c0.387-0.29,0.578-0.097,0.098,0.289
			c3.182,3.857,8.389,7.426,13.5,10.126c1.93,0,3.857,1.061,5.016,2.024c3.953,1.061,7.617,2.507,11.668,2.507
			c1.445,0,2.893,0.29,4.146-0.096c2.508,0.289,4.82,0.965,7.426,0.289c2.506-0.193,5.014-0.482,7.426-0.964
			c7.715-1.543,16.104-1.929,22.469-6.172c2.312-1.543,3.953-2.894,5.979-5.208c-0.289-0.481,1.252-0.385,0.963-1.061
			c-5.979,0.29-13.402,0.482-18.803,0.868c-2.412,1.061-5.209-0.192-7.812,0.192c-2.314,0.29-4.725-0.289-7.135-0.192
			c-1.158,0-2.219-0.192-3.279,0.192c-1.736-0.289-3.953,0.193-5.4-0.771c-0.676-0.579,0.867-0.482,1.061-0.868
			c1.543-0.579,3.086-0.771,4.822-0.097c1.35,0.192,2.699-0.675,3.953-0.675c3.568,0,6.654,0.964,9.064,0.675
			c0-0.289,1.158,0,2.123,0c0.674-0.192,1.35-0.192,1.734-0.097c2.123,0,3.471-0.386,5.4-0.096c3.473-0.868,7.812,0,10.607-0.771
			c0.869-0.193,0.771-0.097,1.641-0.193C807.741,1313.425,808.417,1312.942,809.573,1313.618z"/>
		<path style="fill:#FF0050;" d="M807.934,1294.524c-0.965,2.122-3.279,2.314-4.918,3.472c-2.219,1.157-4.629,2.314-7.137,2.604
			c-0.674,0.385-1.639,0.481-2.41,0.578c-6.461,1.157-12.73,3.761-19.48,3.953c-4.629,0.965-9.738,0.482-14.754,0.386
			c-4.146,0-9.451-1.156-13.598-2.988c-2.023-0.482-4.242-1.254-5.688-2.508c-2.123-0.579-3.762-2.122-5.594-3.278
			c-0.387-0.676-0.869-1.351-0.869-2.025c0-0.097-0.096-0.193-0.096-0.193c1.93,0.482,3.762,1.929,5.689,3.086
			c1.543,0.868,2.41,2.025,4.051,2.411c2.795,0.579,5.014,2.508,7.908,2.314c5.303,1.35,11.088,1.253,17.453,0.868
			c-0.965-2.219,0.674-3.086-0.096-4.437c0.096-0.578,0.191-0.964,0.385-1.35c0.289-0.289,0.482-0.579,0.867-0.289
			c0.193,0.192,0.291,0.289,0.482,0.481c-0.191,0.579,0.193,0.965,0.482,1.254c-0.289,1.254,0,2.507-0.191,4.05
			c4.725,0.482,7.906-0.867,11.764-1.061c1.639-0.771,4.146-0.964,6.172-1.543c1.832-0.578,4.051-0.578,5.787-1.639
			c1.445,0.192,3.084-0.29,4.242-1.736c2.508,0.097,4.436-1.735,7.328-2.314c0-0.771,0-0.482,0-0.482
			c0.482-0.192,1.447-1.253,2.604-0.867C808.223,1293.753,808.125,1294.139,807.934,1294.524z"/>
		<path style="fill:#FF0050;" d="M802.534,1271.671c-0.289,2.025,0.096,3.761,0.771,5.4c-0.096,0.482-0.482,0.964-0.771,1.061
			c-1.254,1.832,1.156,5.111-2.025,6.075c-1.061,0.289-2.217-0.192-3.086,0.579c-3.375,1.253-4.436,0.289-7.715,0.578
			c-2.893,0.193-6.363-1.254-9.16,0c-1.543,0-2.797-0.578-4.146-0.771c-3.666,1.351-7.812-0.675-11.67,0.29
			c-2.795,0.192-5.014-0.965-7.811,0.289c-0.578,0.097-1.061,0.097-1.543,0.289c-5.689,0-11.57-0.578-17.164,0.097
			c-2.797,0-5.496-0.097-8.006-1.447c-0.48-0.385,0.098-0.964,0.58-1.156c0.676,0,1.639-0.193,2.699,0.675
			c2.025-0.868,3.857,0.097,5.594-0.289c1.447,0.386,3.086,0.481,4.629,0.096c3.279-1.929,6.75,0.29,10.125,0.193
			c3.279-0.097,6.559-1.351,9.934-0.965c3.471,0.482,7.521,0.771,11.09,0.386c1.156-0.386,2.506,0.193,3.568-0.192
			c1.061,0.192,2.506,0.097,3.471,0.771c1.35-0.193,2.988-0.482,4.34-0.868c0.771,0.386,1.928,0.289,2.604,0.482
			c3.664,0.289,4.436,0.771,7.811-0.386c2.219,0.771,1.352-1.543,3.279-2.025c1.254-0.482,0.578-1.061,0.578-1.735
			c-0.289-1.543,1.254-2.701,0.578-4.051c-0.482-1.253-0.096-2.893-1.061-4.243c-0.096-0.386-0.096-0.867,0.387-0.867
			C801.667,1269.646,801.86,1270.899,802.534,1271.671z"/>
		<path style="fill:#FF0050;" d="M803.594,1211.689c0.193,0.482,1.736,0.482,1.156,1.255c-2.699,1.832-6.363-0.193-9.256,1.35
			c-9.74,2.99-20.059,0.771-29.992,2.121c-5.785,0.771-11.186,0.771-16.875,1.929l-3.279-0.096l-0.096,0.385l3.279,1.447
			c3.76,0.771,8.582,0.868,12.15,1.735c3.375,0.868,6.268,0.964,9.547,1.929c3.568,0.675,7.039,0.289,11.09,0.386
			c0.289,0.193,0.771,0.097,0.965,0.386c-5.111,2.121-11.379,0.675-16.684,2.219c-1.447,1.253-3.857,0.867-5.594,1.639
			c-6.172,0-12.053,2.121-17.84,2.41c-0.676,0.579-1.832,0.676-2.797,1.062c0,0.386-2.604,0.964-2.506,1.156
			c0.096,0.29,3.086,0.193,3.182,0.676c9.547,1.446,18.225,0,27.002,1.061c5.398-2.025,10.992,1.157,16.199-0.578
			c6.172-2.025,13.115,0.289,18.613-1.832c1.639,0,3.373-0.868,4.82,0c1.736,0.096,4.629-1.64,5.979,0.192
			c0,0.192,0.193,0.097,0.289,0.192c-1.35,0.868-3.471,0.193-4.725,0.386c-7.328,1.832-15.043,2.314-22.662,3.472
			c-3.086,0-6.172,0.482-9.064-0.386c-3.762,0.097-7.619,0.386-11.572-0.289c-9.16-0.289-17.551,1.543-26.133-0.965
			c-3.182-0.964-6.268,0-9.064-0.675c0-0.578-2.121,0.482-1.639-0.385c0.578-0.29,0.963-1.254,2.023-1.447
			c4.34-2.41,10.029-1.735,14.852-3.472c5.883-1.061,12.535-1.735,18.611-3.182l3.182-0.772v-0.385l-3.182-0.579
			c-3.953-0.674-7.715-1.254-11.668-1.735c-4.822-2.218-10.512-2.025-15.334-4.146c-0.289-0.289-0.77-0.482-1.156-0.676
			c0.771-1.156,3.086-0.096,4.244-0.191c4.049-2.122,8.582-0.482,13.018-1.64c10.125-1.062,17.646-0.482,27.58-1.351
			c2.314-0.676,5.883-0.676,8.484-1.061c4.629-0.676,9.549,1.157,13.02-1.735C802.438,1211.016,803.016,1211.208,803.594,1211.689z"
			/>
		<path style="fill:#FF0050;" d="M803.883,1181.024c0.771,0.386,1.543,0,2.412,0.193c0.674,0,1.156,0.192,1.734,0.578
			c0.096,0.482-0.482,0.868-0.771,1.351c-0.674,0.867-1.445-0.482-1.639-0.482c-0.193-0.386-1.158,0.482-2.121-0.964
			c-1.93,0.578-3.666,0.578-5.016,0.192c-2.699,0.29-5.689-0.482-8.293,0.579c-1.061,0.096-1.639,1.35-2.121,1.929
			c-0.098,0-0.482,1.157-1.35,1.542c-1.254,1.157-3.086,2.99-3.664,3.473c-0.482,0.481,0-0.579-0.869,0.385
			c-0.482,0.387-0.289,0.579-0.965,1.64c-0.867,1.061-2.604,2.894-2.988,3.375c-0.578,1.157-1.158,2.507-1.832,4.051
			c2.025,1.35,4.049,0.964,5.4,1.832c1.734,0.097,3.857,0.481,5.689,0.964c1.061-0.867,1.832,0.193,2.604,0.193
			c1.061,0.578,2.699,0.481,3.953,1.061c2.41,0.386,4.533,1.832,7.232,1.35c0.965,0.193,2.121,0.579,3.086,0.869
			c-0.098,0.191-0.193,0.385-0.387,0.385c-1.639,0.289-3.084-0.578-4.531-0.482c-0.385-0.289-0.674-0.385-1.061-0.289
			c-0.771-0.096-1.543-0.289-2.219-0.289c-1.541-0.482-2.604,0.386-5.109-1.253c0,1.446,0.191,0.578,0.191,0.578
			c-1.445-0.387-3.471-0.965-5.4-0.868c-1.156-0.771-2.604-0.482-3.76-0.771c-2.701-0.289-4.533-1.35-7.137-1.157
			c0,0-0.096-0.097-0.191-0.097c-0.773-0.482-1.641-0.192-2.123-0.675c-5.883-1.64-11.861-3.278-17.744-4.918
			c-1.35-0.675-2.506-0.964-3.953-1.543c-1.928-0.675-3.76-1.832-5.785-2.604s-3.955-2.025-6.27-2.7
			c-0.578-0.29-1.543,0.192-1.543-0.772c0-0.289-0.289-0.964-0.096-1.06c0.674-1.061,2.604-1.061,3.568-1.543
			c2.314-0.193,5.592-0.675,8.389-1.254c1.061-1.254,2.701-0.29,3.955-0.771c4.725,0.192,9.643-2.218,15.043-1.543
			c6.848-1.061,14.465-1.64,20.926-1.061C794.047,1180.832,798.965,1180.35,803.883,1181.024z M774.665,1182.664
			c-1.254-0.481-3.182,0.675-5.111,0.289c-2.314-0.386-4.822,0.386-7.135,0.771c-2.219-0.386-3.955,0.965-6.172,0.771
			c-1.447,0.193-3.857,0.193-5.787,0.579c-3.182,0.578-6.074,1.446-9.738,1.735c1.445,1.64,4.049,2.796,4.436,2.894
			c2.025,0.675,3.664,1.831,5.496,2.41c2.797,0.965,5.207,1.929,7.811,2.7c1.832,0.482,4.244,1.061,5.883,1.351
			c1.832-0.097,4.436,1.543,6.943,1.929c1.445,0.192,0.771,0.867,2.797,0.289c0.771-1.832,1.928-3.086,2.604-4.726
			c0.867-1.157,1.35-1.253,2.604-2.604c0.867-0.867,1.734-2.218,2.699-3.472c0.869-0.964,2.025-2.024,2.604-2.7
			c0-0.192,1.158-1.446,1.158-2.218c-1.35-0.289-2.893-0.289-3.762-0.386C779.389,1181.893,777.364,1182.278,774.665,1182.664z"/>
		<path style="fill:#FF0050;" d="M815.071,1158.459c1.252,1.062,0,0.964-0.193,1.351c-5.4,4.725-12.922,3.761-18.709,7.521
			c-4.146,1.543-8.582,2.121-12.633,3.086c-3.182,0.096-6.074,1.446-9.064,0.868c-0.965,0.771-2.41,0-3.471,0.386
			c-6.943,0-10.896-1.351-16.297-2.508c-1.834,0.193-3.762-0.386-5.209-1.639c-2.506,0.289-4.531-0.482-6.363-1.447
			c-4.436-1.64-8.873-3.375-12.055-6.461c0,0.097-0.578-0.193-0.289-0.386c0.771-0.482,1.639,0.386,2.41,0.771
			c4.533,0.386,7.426,3.665,11.477,4.629c1.832,0.965,3.857,0.965,5.592,1.64c7.426,1.929,12.344,3.567,20.156,3.664
			c0.096,0,0.289-0.675,0.289,0.097c6.652-0.386,12.344-1.929,18.418-2.604c6.172-1.929,12.344-4.147,18.516-6.076
			c1.639-1.061,3.568-1.929,5.689-2.7c0.578,0,1.639-1.06,1.928-0.675C815.36,1157.977,816.034,1157.977,815.071,1158.459z"/>
		<path style="fill:#FF0050;" d="M810.153,1124.226c0.096,0.289,0.096,0.675,0,0.964c-0.58,0.289-0.965,0.387-1.736,0.579
			c-0.482,0.097-0.965,0.097-1.447,0.097c-1.736,0.386-2.797,0.578-4.629,1.157c-0.385,0.192-0.578,0.385-0.963,0.578
			c-0.482,0-0.676-0.096-1.158-0.096c-2.025-0.098-4.725,0.675-5.207,0.481c-4.822,0.868-4.146,1.253-9.645,1.543
			c-3.953,0.192-6.846,0.579-10.51,0.965c0,1.929-1.254,3.761-1.543,5.496c-0.098,0.964-0.193,1.446-0.387,2.411
			c-0.385,1.253-1.156,1.832-0.963,3.182c0,2.7,0.191,0.869-1.352,3.568c-0.191,0.289-0.289,0.675-1.35,2.121
			c2.314-0.192,3.086-0.386,4.146-0.578c1.447,0.965,4.051,0.096,6.365,0.192c6.074,0.29,11.861-0.578,17.357-0.289
			c5.111,0.192,10.125-0.771,14.658-0.289c0.096,0.289,0.096,0.675,0.096,1.061c-0.385,2.314-3.086,0.579-4.146,1.061
			c-4.82,0.386-9.258,0.386-14.658,0.386c-6.557,0.193-13.115-0.386-19.768,0.097c-4.533,0.386-8.486-0.289-12.633,0.482
			c-7.041-1.157-14.176,2.313-21.119,0.675c-1.736-0.096-3.471,0.578-5.207,0.097c-0.869-0.482-3.955-0.192-2.314-1.543
			c5.4-0.578,10.992,0.096,16.49-0.097c8.1-0.386,3.182-0.771,5.303-0.964c2.797-0.29,4.436-0.193,7.328-0.193
			c2.605,0,4.051,0.29,6.848,0c0.578-1.35,0.965-2.121,1.543-3.278c1.254-2.411,0.387,0.964,0.965-3.567
			c0.193-1.446,0.289-1.833,0.289-3.279c0-1.254,0.578-1.833,0.867-3.086c0.291-0.867,0.193-1.832,0.387-3.472
			c-1.254,0-1.639,0.097-2.219,0.097c-2.023-0.579-4.822,1.446-6.652-0.289c-2.316-0.193-3.568-0.386-5.498,0.386
			c-1.35-0.097-2.797-0.29-4.531-0.482c-0.387-0.193-0.965,0.289-1.35,0.289c-1.545,0.868-2.508-1.64-3.955-0.482
			c-0.674,0-1.35,0.676-2.025-0.289c-3.182,0.868-5.689,0.579-8.389-1.157c-0.869,0.386-1.254-0.192-1.639-0.675
			c-0.098-0.097-0.193-0.29-0.098-0.482c0.289-0.771,0.771,0.386,0.965,0.289c0,0,0.578,0.482,1.156-0.097
			c0.578-0.481,1.061,0.772,1.641,0.482c3.664,0.868,7.617,0.868,11.379,0.386c3.664,0.868,9.064,0,12.535,0.868
			c0.869-0.096,1.639-0.771,2.99,0c1.156-1.254,2.604-0.29,3.471-0.868c4.438-0.096,8.969-0.481,13.404-0.578
			c4.34,0,2.895-0.676,6.172-1.157c0.676,0.192,1.736-0.289,2.219,0.097c1.252-0.193,2.41-0.193,3.664-0.386
			c2.604-0.386,6.172-0.579,8.486-1.158c0.385,0.193,0.867-0.096,1.543-0.867c-0.387-0.868,0.676-0.386,0.676-0.579
			C807.067,1123.647,808.512,1124.611,810.153,1124.226z"/>
		<path style="fill:#FF0050;" d="M725.194,1097.418c0.193,1.64,0.867,2.796,1.158,4.532c-0.58,2.604-0.098,4.918,0.867,8.101
			c1.352-0.675,2.314-0.482,2.797-0.29c1.832-0.192,4.146,0.29,5.979,0.193c1.736-0.386,3.857-0.578,5.594-0.578
			c2.699-1.351,6.076-1.736,8.775-2.314c1.543,0.386,3.375,0,4.822,0.192c6.557,0,13.307-1.64,19.479-2.507
			c1.156,0.096,2.893-0.193,3.953,0.096c0.193-0.096,0.676-0.096,0.771-0.192c4.822-0.193,8.68-0.29,13.5-0.29
			c2.219,0,4.148,0.387,6.174,0.482h-0.098c-2.508,1.832-5.979,1.157-8.678,1.736c-3.955-0.965-8.102,1.061-12.344-0.579
			c-2.508,2.604-5.498,0.579-8.102,1.447c-2.41-0.29-5.303-0.193-7.328,1.061c-0.965-0.097-1.832,0.289-3.182-0.193
			c-2.316,1.351-5.209,0.676-7.619,0.676c-3.953-0.868-7.137,1.735-10.896,1.253c-2.701,1.351-5.787,1.157-8.871,1.157
			c-0.965-1.061-2.508-0.096-4.438-2.218c-0.674,4.243-0.289,6.75-0.482,9.354c0.482,2.026-0.289,4.244,0,6.462
			c-0.096,0.096-0.096,0.192-0.191,0.289c-0.773-0.097-0.965-0.965-1.254-1.543c0.578-1.929,0.48-3.857,0-5.786
			c-0.387-0.482,0-1.35,0.096-2.314c-1.061-1.446-0.193-3.568-0.963-4.918c0.48-1.543-0.193-3.183-0.098-4.726
			c-0.867-1.543,0.289-3.568-0.578-5.11c0-1.351-1.832-2.7-0.289-3.761c0.096-0.097,0.289-0.193,0.482-0.29
			C724.616,1096.936,725.098,1097.032,725.194,1097.418z"/>
		<path style="fill:#FF0050;" d="M775.725,1047.851c3.762,0.29,7.619,1.158,11.668,1.64c4.918,0.579,10.029,1.157,14.658,3.472
			c2.41,2.411,5.4,3.665,7.33,6.847c0.289,1.736,1.541,1.446,0.963,3.568c0.098,0.289-0.191,0-0.191-0.386
			c-2.219,0.097-1.158-0.482-2.797-2.7c-2.508,0.771-4.34-0.386-6.172,0.386c-7.715-0.482-14.369,0-21.891,0.771
			c-1.832,0.868-4.146,0.868-6.27,0.578c-1.35-0.481-2.795,0.482-4.436,0.193c-5.014-0.289-10.607-0.289-15.525,0.386
			c-3.664-0.192-7.232,0-10.994,0.386c-1.445-0.289-3.084-0.771-5.109-0.192c-0.578,1.35-1.254,1.061-0.771,2.218
			c-0.193,0.192-0.385,0.481-0.676,0.675c-0.289-0.097-0.578,0-0.867-0.29c0.385-2.796,2.219-4.339,3.953-6.46
			c3.375-3.087,7.715-4.533,11.379-7.522c2.412-1.543,4.918-1.735,7.521-2.796c3.279-0.482,6.943-0.29,10.127-0.965
			C770.325,1048.333,772.928,1048.141,775.725,1047.851z M760.489,1050.262c-3.762-0.192-6.365,1.543-9.932,2.604
			c-0.193,0.192-1.062,1.06-1.543,1.35c-2.701,1.929-5.883,2.797-8.775,6.654c3.471-0.29,5.207,0.964,6.846,0.289
			c2.41,0.289,4.533-0.965,6.943-1.062c3.471,1.062,7.232,0.193,10.801,0.676c3.279,0.386,6.846-0.386,10.223-0.579
			c5.977-2.314,12.92-0.675,19.094-1.35c2.988,0,6.459-0.482,11.186,0.097c-1.832-3.857-5.111-4.533-7.328-5.786
			c-5.691-1.543-11.379-2.508-17.264-3.086c-1.156-0.193-2.602,0.289-3.664-0.386
			C771.772,1049.973,765.407,1048.141,760.489,1050.262z"/>
		<path style="fill:#FF0050;" d="M741.78,1032.326c1.447,0.192,2.412,1.64,4.051,1.64c3.086,1.542,5.98,2.314,9.74,2.507
			c0.578,0.289,1.543,0.386,2.217,0.578c2.123,0.193,4.051,1.158,6.076,1.158c1.254,0.385,2.99-0.29,4.146,1.253
			c1.543-0.386,2.701-0.771,3.664-1.253c0.387-0.772,1.447-1.736,1.35-2.798c0.676-1.06,0.098-1.928,0.58-3.278
			c0.578-1.832,0.578-2.893,1.543-4.821c0.482-0.386,0.965-0.771,1.543-0.675c0.385,0.964,0,2.121,0,3.278
			c-1.254,2.508-1.061,3.857-1.928,7.136c0.77,0.482,0.48,0.868,0.77,1.062c2.412,0.386,5.016,0.097,7.041-0.386
			c1.252,0.192,2.312-0.29,4.242-0.29c0.387-1.156,1.254-0.289,1.832-0.578c3.471-0.289,6.559-2.218,10.127-2.411
			c1.541-1.35,4.146-1.157,5.688-2.314c1.834,0.193,2.797-2.218,5.111-1.639c1.158-0.868,2.219-1.929,3.666-1.929
			c0.385,0.289,0.771,0.578,1.156,0.964c-0.193,1.446-1.832,1.543-2.893,2.314c-1.639,0.193-3.184,0.579-4.34,1.64
			c-2.121-0.097-3.375,1.735-5.4,1.639c-0.771,0.482-1.543,0.579-2.121,0.965c-0.771-0.097-1.447,0.193-2.025,0.482
			c-4.436,0-7.908,2.893-12.344,2.604c-0.578,0.386-1.639,0.386-2.217,0.482c-4.727,1.639-10.223,1.35-15.045,1.253
			c-2.217-0.578-4.918,0-6.848-0.964c-5.977-1.061-11.764-3.472-17.453-5.015c-2.699-1.061-5.207-2.7-7.715-4.05
			c-2.797-1.543-6.076-2.604-8.1-5.4c0-0.193,0-0.482,0.193-0.579C732.426,1027.697,736.959,1030.204,741.78,1032.326z"/>
		<path style="fill:#FF0050;" d="M744.481,998.864c1.061,0,2.604-0.097,3.762-0.192c2.797-1.736,7.135,0,10.414,0.386
			c2.025-1.157,5.4-0.482,7.521-0.676c3.086-0.771,7.137,0.193,10.703,0.193c6.27,0,13.502-0.193,19.77-0.482
			c0.965-0.097,1.93-0.675,2.797-0.289c0.096,0.097,0.193-0.096,0.289-0.096c-2.217,1.446-4.918,1.542-7.137,2.507
			c-3.182,2.796-6.846,4.242-10.221,6.364c-4.051,1.832-8.197,3.183-11.861,5.979c-1.158,0.579-2.219,1.254-3.375,1.832
			l-2.797,1.351l3.182,0.192c7.523,0.482,14.562-1.35,22.277-0.289c3.084,0,5.979-1.254,8.969-0.675c0.77-0.097,1.734,0,2.41,0
			c-0.098,0.193,0,0.579-0.098,0.675c-0.771,0-1.445,0.193-2.121,0.675c-0.771,0.387-1.736,0.387-2.604,0.579
			c-2.604,0.289-5.207-0.097-7.811,0.482c-7.041,0.192-13.887-0.675-20.732,0.097c-3.184-0.579-6.365,1.061-9.451,0.192
			c-2.025,0.482-4.629-0.578-6.172,0.578c-4.629-0.481-9.162-1.253-13.982-1.253c-1.061-0.386-2.701,0-3.184-1.157
			c-0.096-0.097,0.58-1.061,0.58-0.578c5.207-1.351,9.643,1.735,15.621,1.06c3.086-0.386,6.268,0,9.547-0.964
			c0.965-1.35,2.412-1.254,3.473-2.121c1.928-0.29,3.857-0.772,5.109-2.122c4.92-2.411,9.934-3.278,13.887-6.847
			c1.158-0.482,2.314-1.061,3.568-2.121c0-0.29,2.797-1.543,2.797-1.833c-0.096-0.192-2.988,0.482-2.988,0.097
			c-3.762,0-7.234-0.675-10.223,0.386c-5.4-1.351-10.994-1.446-16.779-0.192c-4.146-0.482-8.391-1.061-12.439-0.29
			c-3.375-1.446-7.137,1.543-10.223-1.156c-0.289-0.868-1.832-0.579-1.736-1.641C738.502,996.936,741.299,998.768,744.481,998.864z"
			/>
		<path style="fill:#FF0050;" d="M754.124,935.026c3.857,0.097,7.521,0.675,11.379,1.061s8.004,0.193,11.766,0.386
			c0.387,0,0.676,0.482,1.061,0.482c2.699,0.192,5.305,0.481,7.908,0.289c7.328,0.675,14.271,0.579,21.408,1.543
			c0.674,0.482,0,0.868,0.289,1.543c-1.061,0.482-1.35,0.579-2.604,0.675c-4.436-0.867-7.811,2.894-12.15,2.218
			c-3.279,0.965-6.848,0.772-10.223,1.736c-3.182,2.7-8.293,0.578-14.85,2.604c4.82,2.025,7.039,1.929,9.064,2.314
			c3.471,0.771,6.557,0.771,10.029,1.35c3.182,0.482,6.75,1.543,9.738,1.543c1.352,0.289,2.604,0.579,4.146,0.676
			c0.291,0.386,0.965,0.289,1.447,0.386c1.734-0.29,3.762-0.386,5.496-0.482c0.193,0.097,0.289,0.192,0.387,0.289
			c-0.965,1.35-3.184,0.579-4.438,1.254c-5.014,2.024-10.896,2.604-16.875,3.086c-5.111,0.386-10.223,0.771-14.947,1.543
			c-4.338,0.482-8.775,2.025-13.211,2.025c-0.578,0.386-1.736,0.289-2.314,0.386c-8.004,1.929-16.875,1.543-25.459,1.929
			c-1.156-0.386-5.4,1.639-4.146-0.772c0.676-0.096,1.158-0.675,1.834-0.964c9.256-1.061,18.611,0.578,27.965-1.543
			c4.436,0.289,8.293-1.543,12.342-2.218c0.869-0.097,1.738,0.192,2.605,0c6.557-1.061,14.369-1.929,21.117-3.086l4.051-0.675
			c-3.471-0.868-10.316-1.736-13.018-2.7c-6.461,0-11.861-2.218-18.227-2.894c-2.988-0.289-5.592-0.867-7.811-1.061
			c-0.098-0.192-1.061,0.386-1.254,0c1.156-1.061,2.797-0.192,3.857-1.254c1.639-0.289,3.375-0.481,5.207-0.771
			c2.701-0.481,5.498-1.061,8.197-1.35c1.736-0.193,3.568,0,5.111-0.193c2.121-0.289,2.893-0.867,4.918-1.157
			c1.543-0.192,2.219-0.097,3.76-0.289c0.482-0.097,0.676-0.386,1.158-0.386c3.086-0.481,6.557-0.386,9.451-1.543l3.76-1.446
			c-3.857-0.579-12.053-0.289-15.719-0.675c-7.424-0.868-15.91-0.675-23.336-1.061c-0.482-0.29-1.254-0.193-1.93-0.965
			c-7.617-0.386-13.885-2.7-21.504-1.929c-2.314-0.771-4.533,0.386-6.75-0.192c-1.35-0.386-2.701,0-3.953-0.771
			c-0.193-0.193-0.676-0.29-0.869-0.482c5.016-2.218,10.896-0.193,16.105,0C747.665,933.579,750.942,934.255,754.124,935.026z"/>
		<path style="fill:#FF0050;" d="M807.934,914.004c-0.965,2.121-3.279,2.314-4.918,3.472c-2.219,1.157-4.629,2.314-7.137,2.604
			c-0.674,0.386-1.639,0.482-2.41,0.578c-6.461,1.157-12.73,3.762-19.48,3.954c-4.629,0.964-9.738,0.482-14.754,0.386
			c-4.146,0-9.451-1.157-13.598-2.989c-2.023-0.482-4.242-1.254-5.688-2.507c-2.123-0.579-3.762-2.122-5.594-3.279
			c-0.387-0.675-0.869-1.35-0.869-2.025c0-0.096-0.096-0.192-0.096-0.192c1.93,0.481,3.762,1.929,5.689,3.086
			c1.543,0.867,2.41,2.025,4.051,2.411c2.795,0.578,5.014,2.507,7.908,2.313c5.303,1.351,11.088,1.254,17.453,0.868
			c-0.965-2.218,0.674-3.086-0.096-4.436c0.096-0.579,0.191-0.965,0.385-1.351c0.289-0.289,0.482-0.578,0.867-0.289
			c0.193,0.193,0.291,0.289,0.482,0.482c-0.191,0.578,0.193,0.964,0.482,1.253c-0.289,1.254,0,2.508-0.191,4.051
			c4.725,0.482,7.906-0.868,11.764-1.061c1.639-0.771,4.146-0.965,6.172-1.543c1.832-0.579,4.051-0.579,5.787-1.64
			c1.445,0.192,3.084-0.289,4.242-1.736c2.508,0.097,4.436-1.735,7.328-2.313c0-0.771,0-0.482,0-0.482
			c0.482-0.193,1.447-1.254,2.604-0.868C808.223,913.232,808.125,913.618,807.934,914.004z"/>
		<path style="fill:#FF0050;" d="M798.194,892.5c-3.471,2.507-7.906,2.122-11.09,4.822c-1.254,0.386-2.604,1.061-3.664,1.735
			c-2.99-0.096-6.076,1.833-10.125,3.664c2.604,1.062,4.531,0.771,5.883,0.387c5.688,0,10.703-0.965,16.682-0.098
			c1.641,0,3.664-0.481,5.111,0.193c2.797,0.097,6.076-0.675,8.486,0.675c0.096,0.097,0.096,0.097,0.193,0.193
			c-2.025,0.578-4.629,0.386-6.654,0.289c-1.736-0.482-3.568,0.193-5.496,0.193c-3.762,0.096-7.715-1.254-11.09,0.385
			c-3.086,0.387-5.98-1.061-8.969,0c-2.699,0.868-5.4-0.481-7.908,0.772c-4.629-0.772-10.607,0.096-15.623-0.772
			c-5.688,0-11.475,0.387-17.066-0.578c-3.088-0.096-4.34-0.675-7.234-1.253c-0.096,0,0.482-0.676,0.482-0.869
			c3.086-1.831,4.146-2.41,7.426-3.664c4.531-1.831,9.354-1.446,13.887-2.699c6.363,0.096,12.633,0.964,17.262,7.039
			c8.486-5.111,17.551-5.689,25.748-10.126c3.664-1.157,7.039-2.989,10.703-4.146c0.578,0,1.543-0.386,2.219-0.192
			C804.366,890.186,801.28,891.536,798.194,892.5z M743.903,898.864c-1.254,0.387-2.797-0.096-3.953,0.676
			c-1.545-0.193-2.99,0.675-4.244,1.157l-2.314,1.64c0.867,0.096,4.242,0.385,5.207,0.578c1.254,1.254,3.471,0.675,5.016,1.061
			c7.135-0.965,15.139,0.193,23.723-0.192c-1.254-1.544-2.508-1.929-3.184-2.604c-1.35-1.351-5.109-2.797-7.617-3.857
			C752.196,897.9,747.567,896.936,743.903,898.864z"/>
		<path style="fill:#FF0050;" d="M725.194,862.799c0.193,1.64,0.867,2.797,1.158,4.532c-0.58,2.604-0.098,4.918,0.867,8.101
			c1.352-0.675,2.314-0.482,2.797-0.29c1.832-0.192,4.146,0.29,5.979,0.193c1.736-0.386,3.857-0.578,5.594-0.578
			c2.699-1.351,6.076-1.736,8.775-2.314c1.543,0.386,3.375,0,4.822,0.192c6.557,0,13.307-1.64,19.479-2.507
			c1.156,0.097,2.893-0.192,3.953,0.097c0.193-0.097,0.676-0.097,0.771-0.193c4.822-0.193,8.68-0.289,13.5-0.289
			c2.219,0,4.148,0.386,6.174,0.482h-0.098c-2.508,1.831-5.979,1.157-8.678,1.735c-3.955-0.965-8.102,1.061-12.344-0.578
			c-2.508,2.603-5.498,0.578-8.102,1.446c-2.41-0.29-5.303-0.193-7.328,1.061c-0.965-0.096-1.832,0.289-3.182-0.193
			c-2.316,1.351-5.209,0.676-7.619,0.676c-3.953-0.868-7.137,1.735-10.896,1.253c-2.701,1.351-5.787,1.157-8.871,1.157
			c-0.965-1.06-2.508-0.096-4.438-2.218c-0.674,4.243-0.289,6.751-0.482,9.354c0.482,2.026-0.289,4.244,0,6.462
			c-0.096,0.097-0.096,0.192-0.191,0.289c-0.773-0.097-0.965-0.965-1.254-1.543c0.578-1.929,0.48-3.857,0-5.786
			c-0.387-0.482,0-1.35,0.096-2.313c-1.061-1.446-0.193-3.568-0.963-4.919c0.48-1.543-0.193-3.183-0.098-4.725
			c-0.867-1.544,0.289-3.568-0.578-5.111c0-1.35-1.832-2.7-0.289-3.761c0.096-0.097,0.289-0.193,0.482-0.289
			C724.616,862.316,725.098,862.413,725.194,862.799z"/>
		<path style="fill:#FF0050;" d="M775.725,813.231c3.762,0.29,7.619,1.158,11.668,1.64c4.918,0.579,10.029,1.157,14.658,3.472
			c2.41,2.411,5.4,3.665,7.33,6.847c0.289,1.735,1.541,1.446,0.963,3.569c0.098,0.288-0.191,0-0.191-0.388
			c-2.219,0.098-1.158-0.481-2.797-2.699c-2.508,0.771-4.34-0.386-6.172,0.386c-7.715-0.482-14.369,0-21.891,0.772
			c-1.832,0.867-4.146,0.867-6.27,0.577c-1.35-0.482-2.795,0.482-4.436,0.193c-5.014-0.289-10.607-0.289-15.525,0.386
			c-3.664-0.192-7.232,0-10.994,0.385c-1.445-0.288-3.084-0.771-5.109-0.191c-0.578,1.35-1.254,1.061-0.771,2.218
			c-0.193,0.192-0.385,0.481-0.676,0.675c-0.289-0.097-0.578,0-0.867-0.29c0.385-2.796,2.219-4.34,3.953-6.46
			c3.375-3.087,7.715-4.533,11.379-7.522c2.412-1.542,4.918-1.735,7.521-2.796c3.279-0.482,6.943-0.29,10.127-0.965
			C770.325,813.714,772.928,813.521,775.725,813.231z M760.489,815.643c-3.762-0.192-6.365,1.544-9.932,2.604
			c-0.193,0.192-1.062,1.06-1.543,1.35c-2.701,1.929-5.883,2.797-8.775,6.654c3.471-0.29,5.207,0.964,6.846,0.289
			c2.41,0.29,4.533-0.965,6.943-1.062c3.471,1.062,7.232,0.193,10.801,0.676c3.279,0.386,6.846-0.386,10.223-0.579
			c5.977-2.314,12.92-0.674,19.094-1.35c2.988,0,6.459-0.482,11.186,0.097c-1.832-3.857-5.111-4.533-7.328-5.786
			c-5.691-1.543-11.379-2.508-17.264-3.086c-1.156-0.192-2.602,0.289-3.664-0.386C771.772,815.354,765.407,813.521,760.489,815.643z
			"/>
		<path style="fill:#FF0050;" d="M741.78,797.707c1.447,0.192,2.412,1.64,4.051,1.64c3.086,1.542,5.98,2.314,9.74,2.506
			c0.578,0.29,1.543,0.387,2.217,0.579c2.123,0.193,4.051,1.158,6.076,1.158c1.254,0.386,2.99-0.29,4.146,1.253
			c1.543-0.385,2.701-0.771,3.664-1.253c0.387-0.772,1.447-1.737,1.35-2.798c0.676-1.06,0.098-1.928,0.58-3.278
			c0.578-1.832,0.578-2.894,1.543-4.821c0.482-0.386,0.965-0.771,1.543-0.675c0.385,0.964,0,2.121,0,3.279
			c-1.254,2.507-1.061,3.856-1.928,7.135c0.77,0.482,0.48,0.868,0.77,1.062c2.412,0.386,5.016,0.097,7.041-0.386
			c1.252,0.192,2.312-0.29,4.242-0.29c0.387-1.156,1.254-0.288,1.832-0.578c3.471-0.289,6.559-2.218,10.127-2.411
			c1.541-1.351,4.146-1.156,5.688-2.314c1.834,0.193,2.797-2.217,5.111-1.639c1.158-0.868,2.219-1.929,3.666-1.929
			c0.385,0.289,0.771,0.578,1.156,0.964c-0.193,1.446-1.832,1.543-2.893,2.315c-1.639,0.192-3.184,0.578-4.34,1.639
			c-2.121-0.097-3.375,1.736-5.4,1.639c-0.771,0.482-1.543,0.58-2.121,0.965c-0.771-0.097-1.447,0.193-2.025,0.482
			c-4.436,0-7.908,2.893-12.344,2.604c-0.578,0.386-1.639,0.386-2.217,0.482c-4.727,1.639-10.223,1.351-15.045,1.253
			c-2.217-0.579-4.918,0-6.848-0.964c-5.977-1.062-11.764-3.473-17.453-5.015c-2.699-1.061-5.207-2.7-7.715-4.05
			c-2.797-1.544-6.076-2.604-8.1-5.4c0-0.193,0-0.482,0.193-0.579C732.426,793.078,736.959,795.585,741.78,797.707z"/>
		<path style="fill:#FF0050;" d="M807.934,760.486c-3.762,2.7-3.473,0.965-5.305,2.025c-1.35,0.675-2.604,0.289-3.855,0.771
			c-2.027,0.675-2.027,0.867-3.568,1.639c-0.869,0.578-1.543,1.061-2.508,1.447c-1.928,0.867,0,2.121-4.822,2.024
			c-0.482,0.097-2.508,3.278-3.182,1.927c-2.41,0.289-0.965,0.482-2.893,1.254c-0.098,0.193-0.193-0.289-0.387-0.289
			c-0.965,0.386-1.156-0.193-1.543,0.771c-0.193,0.386,0.289,0.867-0.771,0.289c-1.061,0.482-2.025,0.867-2.025,0.965
			c-0.289,0.289-0.867,0.192-0.867,0.192c-0.676,0-1.543,0.964-2.314,1.735c-1.736,0.482-2.893,2.604-3.857,4.437
			c3.182,0.675,5.4,0.192,7.619,0.964c0.867,0.193,1.734-0.964,2.699,0c1.35-0.386,2.121-0.192,3.086-0.289
			c1.639,0.676,2.41-0.097,4.436,0.193c2.797-0.771,2.701-0.868,5.689-0.868c4.051,0.771,6.076,0.097,10.125,0.482
			c0.771-0.386,2.412,0.096,3.184,0.578c1.639-0.578,4.436-0.482,4.629-0.386c0.289,0.097,0.771,0.578,1.156,0.771
			c0.098,0.193,0.098,0.289-0.096,0.386c-2.314,0.868-2.99,0.097-5.207,0.675c-1.543-0.289-3.762,0-5.4-0.289
			c-2.99,0.193-3.762-0.867-7.137-0.097c-7.617,0-11.186,0-17.84,0c-0.482-0.097-0.965,0.193-1.447,0.097
			c-0.77-0.193-1.734,0.578-2.508-0.193c-3.76,0.579-8.004-0.385-10.51,0.29c-0.771,0.386-1.736,0.386-2.508,0.481
			c-2.314-1.061-5.689,0.098-7.906-0.481c-1.158,0.289-2.701,0.771-4.051,0.579c-2.123,0.385-3.953,0.289-5.883,0.771
			c-1.156-0.386-2.699,0.29-3.762,0c-1.928,0.482-4.049-0.192-6.074,0c-0.096-0.192-0.193-0.386-0.289-0.675
			c1.734-3.279,4.34-4.532,6.943-7.426c4.242-3.086,11.475-4.821,16.875-1.832c0.965-0.675,1.061,0.482,1.639,0.482
			c1.93,1.157,2.797,2.121,4.822,2.508c1.641,0.867,2.219,1.832,4.244,2.988c1.543-1.639,3.084-2.314,4.049-3.76
			c1.736-1.64,3.955-2.412,5.787-4.244c4.436-1.927,0.771,0.676,6.074-1.734c5.305-1.542,3.279-1.639,5.4-2.411
			c1.641-0.578,3.473-0.964,4.146-1.446c0.578-0.481,1.061-0.579,1.641-1.061c3.953-2.411,0.482-1.832,5.303-2.7
			c0.867-0.193,4.918-1.157,5.303-1.446c0.676-0.482,0.482-0.29,2.123-0.964C806.969,759.425,808.706,760.1,807.934,760.486z
			 M735.03,781.699c4.34,0.869,7.33,0.482,10.705-0.096c4.049-1.157,9.547-0.676,13.791-0.965c0.963-0.481,2.795,0,3.277-1.832
			c-1.736-0.289-2.508-1.35-3.471-1.832c-0.098,0-0.289-0.096-0.387,0c-2.699-1.35-5.305-2.604-8.293-3.183
			C744.77,772.635,738.985,776.396,735.03,781.699z"/>
		<path style="fill:#FF0050;" d="M778.04,704.844c3.568-0.289,6.268,1.157,9.547,1.929c0.676,0.579,1.35,0.579,1.35,0.482
			c0.193,0.097,1.447,0.386,2.508,0.965l0.289,0.096c1.447,0.771,1.543,0.675,2.604,0.771c1.736,1.157,3.955,1.35,5.4,2.411
			c2.893,2.122,7.137,4.146,9.74,7.232c1.832,2.314,3.664,3.567,5.303,5.883c0.098,0.578,0.482,1.157,0.098,1.832
			c-0.771,0-0.289,0.675-1.447-1.062L813.239,725c-1.062,0.289-1.93,0.771-2.605,0.964c-1.639,0-4.146,0-5.883,0.192
			c-1.061-0.289-2.795,0.387-3.76,0c-4.822,0.29-11.09,0.482-16.395,0.097c-1.252,0.579-2.988,0.193-4.146,0.097
			c-5.014-0.289-9.545-1.832-14.078-1.35c-3.086-0.097-6.75,0.867-10.029-0.386c-2.314,0.289-5.979-0.29-7.811-0.193
			c-0.098,0-0.193,0.193-0.289,0.289c-4.727-0.578-10.801,0.193-15.334-0.289c-0.482-0.192-0.867-0.868-0.191-0.964
			c9.256-0.771,20.924-0.868,30.664-0.098c2.219-0.191,5.594,0.29,7.908-0.096c0.096,0.096,0.193,0.193,0.289,0.289
			c3.568,0,6.461,0.676,10.125,1.062c0.387-0.29,0.771-0.097,1.062,0.096c5.398,0.29,13.018-0.481,18.225-0.096
			c2.893-1.351,5.979,0.771,8.775-0.675c0.289-0.482,0.289,0.964,2.217-0.387c-0.578-0.193-1.156-1.157-0.867-1.157
			c-0.771-1.543-2.99-1.35-4.049-4.436c-0.58,0.578-0.387-0.29-0.869-0.29c0,0-0.482-0.289-0.674-0.385
			c-0.098-0.097-0.482-0.193-0.482-0.965c-0.965,0-1.158-0.289-1.447-0.096c-0.965-0.387-0.965-1.736-2.121-1.736
			c-0.482-0.193-1.158-0.386-1.447-0.771c-1.156-0.289-1.639-1.446-2.699-1.639c-1.543-1.062-3.857-0.868-5.111-1.736
			c-1.061,0-1.156-0.868-2.41-0.965c-3.375-1.832-7.812-1.832-11.379-2.604c-5.209,0-9.934-1.061-15.236,0
			c-1.736,0-3.279,0.676-4.822,0.965c-0.869,0.578-1.93,0.385-2.797,0.867c-7.137,2.219-14.369,5.111-20.541,10.029
			c-2.506,1.254-3.76,3.857-6.363,5.111c-0.578,0.386-0.193-0.482,0-0.771c1.928-2.604,4.531-5.4,7.232-7.426
			c2.604-1.928,6.074-3.375,8.969-5.111c2.604-1.156,5.398-1.928,7.617-2.893c2.797-0.192,3.375-1.928,6.268-1.639
			c0.58-0.098,1.062-0.482,2.121-0.387c0.482-0.385,0.869-0.192,1.545-0.481c0.867,0,1.832,0,2.893-0.29
			C769.167,704.555,773.989,703.976,778.04,704.844z"/>
		<path style="fill:#FF0050;" d="M807.452,692.694c0.289,0.097,0.482,0.193,0.674,0.386c-0.867,2.219-3.471,0.965-5.496,1.543
			c-1.734,0.289-3.375,0-5.109,0.097c-4.727,0.097-9.451-0.097-13.984,0c-2.41,0-5.592,0.192-8.1-0.097
			c-1.639-0.193-3.664,0-5.305,0.097c-3.953,0.386-7.713,0-11.861,0.29c-0.191-0.193-0.385-0.193-0.578-0.193
			c-1.734,0.867-3.664,0.096-5.303,0.386c-3.955,0.192-7.715,0.579-11.572,0.579c-2.701-1.158-5.496,0.578-8.293-0.098
			c-0.387-0.096,0.578-1.156,0.867-1.156c4.242-2.893,9.16,1.156,13.887-0.193c5.592-1.543,11.861-0.965,17.357-1.254
			s10.705,0.193,16.297,0c1.543-0.192,3.086-0.192,4.727-0.192c0.385,0,0.867,0.097,1.254,0.097
			c4.242-0.097,8.484-0.097,12.246-0.676C802.051,693.08,804.461,692.598,807.452,692.694z"/>
		<path style="fill:#FF0050;" d="M744.481,665.308c1.061,0,2.604-0.097,3.762-0.193c2.797-1.736,7.135,0,10.414,0.386
			c2.025-1.157,5.4-0.482,7.521-0.675c3.086-0.771,7.137,0.192,10.703,0.192c6.27,0,13.502-0.192,19.77-0.481
			c0.965-0.097,1.93-0.676,2.797-0.289c0.096,0.096,0.193-0.097,0.289-0.097c-2.217,1.446-4.918,1.542-7.137,2.507
			c-3.182,2.797-6.846,4.243-10.221,6.365c-4.051,1.832-8.197,3.182-11.861,5.979c-1.158,0.578-2.219,1.254-3.375,1.832l-2.797,1.35
			l3.182,0.193c7.523,0.482,14.562-1.35,22.277-0.289c3.084,0,5.979-1.254,8.969-0.676c0.77-0.096,1.734,0,2.41,0
			c-0.098,0.193,0,0.579-0.098,0.676c-0.771,0-1.445,0.192-2.121,0.675c-0.771,0.386-1.736,0.386-2.604,0.579
			c-2.604,0.289-5.207-0.098-7.811,0.481c-7.041,0.193-13.887-0.675-20.732,0.097c-3.184-0.578-6.365,1.061-9.451,0.193
			c-2.025,0.482-4.629-0.579-6.172,0.578c-4.629-0.482-9.162-1.254-13.982-1.254c-1.061-0.385-2.701,0-3.184-1.157
			c-0.096-0.097,0.58-1.061,0.58-0.578c5.207-1.351,9.643,1.735,15.621,1.061c3.086-0.386,6.268,0,9.547-0.964
			c0.965-1.351,2.412-1.254,3.473-2.122c1.928-0.29,3.857-0.771,5.109-2.122c4.92-2.41,9.934-3.278,13.887-6.846
			c1.158-0.482,2.314-1.061,3.568-2.122c0-0.289,2.797-1.543,2.797-1.832c-0.096-0.192-2.988,0.481-2.988,0.097
			c-3.762,0-7.234-0.676-10.223,0.385c-5.4-1.35-10.994-1.445-16.779-0.192c-4.146-0.481-8.391-1.062-12.439-0.289
			c-3.375-1.446-7.137,1.543-10.223-1.157c-0.289-0.868-1.832-0.579-1.736-1.64C738.502,663.378,741.299,665.211,744.481,665.308z"
			/>
		<path style="fill:#FF0050;" d="M809.573,639.85c1.254,0.482,2.121-0.192,3.086,0c-0.289,0.675-0.771,1.253-0.771,2.024
			c-0.385,1.061-1.734,1.254-2.506,2.025c-0.773,0.193-0.869,1.254-1.736,1.832c-2.025,1.254-3.857,2.604-5.883,4.051
			c-3.953,0.965-7.521,3.664-12.15,4.146c-3.568,1.64-8.197,1.543-12.15,1.64c-2.41,1.929-6.268,0.192-9.162,1.253
			c-1.445,0.193-2.314-0.385-3.471-0.385c-3.955,1.061-7.521-0.482-11.188-1.062c-2.602-1.157-5.398-1.446-7.906-2.796
			c-0.771-0.579-1.928-0.387-2.701-0.676c-3.084-2.024-6.652-3.278-9.449-5.496c-1.35-0.29-1.736-1.929-3.086-2.219
			c-0.482-0.675-1.447-1.254-0.869-2.699c-0.867-0.676-1.639-2.025,0-1.736c0.387-0.289,0.578-0.096,0.098,0.289
			c3.182,3.857,8.389,7.426,13.5,10.126c1.93,0,3.857,1.061,5.016,2.024c3.953,1.061,7.617,2.508,11.668,2.508
			c1.445,0,2.893,0.289,4.146-0.096c2.508,0.289,4.82,0.964,7.426,0.289c2.506-0.193,5.014-0.482,7.426-0.965
			c7.715-1.543,16.104-1.929,22.469-6.172c2.312-1.543,3.953-2.893,5.979-5.207c-0.289-0.482,1.252-0.386,0.963-1.061
			c-5.979,0.289-13.402,0.481-18.803,0.867c-2.412,1.061-5.209-0.192-7.812,0.193c-2.314,0.289-4.725-0.289-7.135-0.193
			c-1.158,0-2.219-0.192-3.279,0.193c-1.736-0.289-3.953,0.193-5.4-0.771c-0.676-0.578,0.867-0.482,1.061-0.868
			c1.543-0.578,3.086-0.771,4.822-0.097c1.35,0.193,2.699-0.675,3.953-0.675c3.568,0,6.654,0.964,9.064,0.675
			c0-0.289,1.158,0,2.123,0c0.674-0.192,1.35-0.192,1.734-0.096c2.123,0,3.471-0.386,5.4-0.097c3.473-0.868,7.812,0,10.607-0.771
			c0.869-0.192,0.771-0.097,1.641-0.192C807.741,639.658,808.417,639.175,809.573,639.85z"/>
		<path style="fill:#FF0050;" d="M807.934,620.756c-0.965,2.122-3.279,2.314-4.918,3.472c-2.219,1.158-4.629,2.314-7.137,2.604
			c-0.674,0.385-1.639,0.481-2.41,0.577c-6.461,1.158-12.73,3.762-19.48,3.954c-4.629,0.965-9.738,0.482-14.754,0.386
			c-4.146,0-9.451-1.156-13.598-2.988c-2.023-0.482-4.242-1.254-5.688-2.508c-2.123-0.579-3.762-2.122-5.594-3.278
			c-0.387-0.676-0.869-1.351-0.869-2.026c0-0.096-0.096-0.192-0.096-0.192c1.93,0.481,3.762,1.929,5.689,3.086
			c1.543,0.868,2.41,2.026,4.051,2.411c2.795,0.579,5.014,2.508,7.908,2.314c5.303,1.35,11.088,1.253,17.453,0.867
			c-0.965-2.218,0.674-3.085-0.096-4.436c0.096-0.578,0.191-0.964,0.385-1.35c0.289-0.289,0.482-0.579,0.867-0.289
			c0.193,0.192,0.291,0.289,0.482,0.481c-0.191,0.579,0.193,0.964,0.482,1.253c-0.289,1.255,0,2.508-0.191,4.051
			c4.725,0.482,7.906-0.867,11.764-1.061c1.639-0.771,4.146-0.965,6.172-1.543c1.832-0.578,4.051-0.578,5.787-1.639
			c1.445,0.191,3.084-0.29,4.242-1.736c2.508,0.096,4.436-1.736,7.328-2.314c0-0.771,0-0.482,0-0.482
			c0.482-0.192,1.447-1.253,2.604-0.867C808.223,619.985,808.125,620.371,807.934,620.756z"/>
	</g>
	<path style="fill:none;stroke:#17192D;stroke-width:3;" d="M2048,0"/>
	<path style="fill:none;stroke:#17192D;stroke-width:3;" d="M2048,1536"/>
	<path style="fill:none;stroke:#17192D;stroke-width:3;" d="M0,1536"/>
	<path style="fill:none;stroke:#17192D;stroke-width:3;" d="M0,0"/>
</g>
<g id="Layer_1">
</g>
</svg>
