<svg xmlns="http://www.w3.org/2000/svg" width="2048" height="1536" viewBox="0 0 2048 1536"><g fill="none" stroke="#17192D" stroke-width="3"><path d="M1024.06 961.846c5.903 0 11.593.65 17.48-.438 4.796-1.072 9.668-3.704 14.69-4.342 4.9-.47 9.52 1.287 14.512 1.428 5.172.27 10.47.36 15.37-.104 3.526-.332 7.862-.97 10.563-3.336M1069.667 941.89M1025.942 965.898c3.19-1.438 6.475-2.27 9.364-3.658M1034.926 968.672c3.25-.048 7.62-3.85 9.136-7.04M1055.158 980.688c1.62-7.4-1.652-14.338-6.504-19.477M1066.398 981.08c2.857-6.503-.5-12.966-5.127-17.668M1069.762 967.97c-.095-.606.488-4.74-.448-6.763M1068.07 971.037c5.22-2.383 12.267-1.018 17.766-1.57M1090.25 976.686c-3.71-6.184-2.185-11.597-.373-17.947M1074.97 939.104c.288-5.376 3.41-14.922 8.302-13.693M1070.157 938.387c1.416-2.785 3.382-4.752 5.77-4.15M1094.637 919.37c.66-4.31-4.384-2.294-6.065-.978-1.984 1.555-4.033 3.528-4.903 6.09-1.813 5.346-2.614 10.225-.127 15.656M984.395 979.15c10.26 3.97 20.958 5.848 31.3 9.336 9.683 3.283 19.527 5.61 29.66 6.8 10.912 1.226 20.877-2.526 31.514-4.987 5.74-1.33 11.74-1.597 17.21-3.996 2.484-1.087 6.614-2.604 7.758-5.18.66-1.487 1.593-2.935 1.758-4.454M1085.12 962.666c-1.103-1.067-1.468-2.406-1.536-3.796M1070.82 961.668c.943-.926 1.935-1.547 3.097-2.043M1089.258 941.413c-2.158-6.81-2.1-15.418 2.46-20.272 7.87-8.138 9.05 11.18 11.038 16.105.064.484.123.965.362 1.33M1083.134 941.102c3.286-.42 6.853.36 10.01 1.246 3.117.945 6.87 1.35 7.047 5.2.074 1.952-.826 6.263-2.76 7.334-1.107.604-2.94.18-4.2.09-1.7-.163-3.46-.36-5.086-.962-3.257-1.217-1.937-6.21-1.364-8.932.448-1.982 1.87-1.78 3.652-1.727 1.67-.024 3.28.15 4.942.366.87.052 1.738.105 2.626.257M1089.165 943.84M1087.845 953.623M1096.562 955.162c1.736-2.957 4.58-8.24.93-11.062M978.98 929.974c6.09-1.74 19.847-6.542 26.23-6.47 6.558.21 12.3 1.163 18.745 2.628 9.664 2.2 18.713 6.356 27.964 9.864 6.363 2.32 13.195 1.334 19.838 2.682 2.633.53 5.21.488 7.883.888 1.77.267 5.05.56 6.29 1.298M1024.018 961.846c5.9 0 11.596.65 17.482-.435 4.8-1.074 9.664-3.706 14.69-4.344 4.896-.465 9.524 1.287 14.517 1.428 5.165.268 10.46.36 15.36-.104 3.53-.332 7.868-.965 10.567-3.336M1069.628 941.893M1083.094 941.102c3.283-.42 6.852.36 10.008 1.24 3.118.95 6.873 1.355 7.046 5.207.07 1.95-.82 6.26-2.76 7.335-1.1.602-2.938.178-4.205.088-1.698-.164-3.453-.36-5.077-.963-3.255-1.217-1.94-6.21-1.368-8.932.45-1.982 1.874-1.78 3.652-1.725 1.676-.027 3.28.148 4.944.363.872.055 1.74.105 2.62.257M1096.524 955.162c1.733-2.957 4.583-8.24.93-11.062M1103.104 938.723c.58 1.734 1.596 3.888 1.914 5.71.432 2.353-.135 5.15-.063 7.507.08 6.212.308 11.16.445 17.352.055 3.156-.833 6.066-1.694 8.618M2048 0M2048 1536M0 1536M0 0"/></g></svg>