<svg xmlns="http://www.w3.org/2000/svg" xmlns:xlink="http://www.w3.org/1999/xlink" width="2048" height="1536" viewBox="0 0 2048 1536"><g><defs><path id="a" d="M1784.432 264.933c2.448-22.447-19.63-99.566-38.456-94.868-54.98 13.73-111.315 14.437-167.132 25.25-43.32 8.393-84.062 5.793-126.188 20.967-33.937 12.227-64.448 24.06-98.012 32.857-38.205 10.018-69.178 14.935-117.01 18.57-41.293 3.14-80.748 19.587-119.105 32.753-22.933 7.867-92.25 24.167-92.25 24.167-8.305-1.695-5.087-12.574-10.67-19.56-14.43-18.062-7.568-25.012-32.914-30.202-83.22-17.054-176.25.325-259.373 9.235-35.07 4.67-72.474 7.012-107.54 14.022-28.055 7.015-58.443 28.056-88.838 18.697-4.675-35.066 63.122-94.716 86.498-106.4 39.744-16.37 64.197-19.845 105.203-19.845 52.532 0 67.795-7.006 112.21.005 8.772 1.173 18.45-.8 28.86-.8 26.297 0 20.238-69.332 1.535-74.005-39.743-9.354-77.146-9.354-116.89-7.014-72.472 4.674-184.693 2.337-243.134 46.754-49.094 39.743-84.175 92.34-121.58 129.742-42.08 44.423-77.127 1.175-93.49 71.308-14.028 46.757-18.703 91.173-7.015 135.588 0 17.502 5.84 23.342-50.262 56.066l2.9-.438c-2.727 16.74 34.84 97.186 41.488 116.355 7.53 21.734-11.172 77.552 11.117 87.062 24.947 10.643 80.256-53.29 92.546-60.06 10.095-5.564-11.63 60.808-11.63 60.808-13.73 4.234-55.073 90.304 29.536 90.304 24.548 0 28.052 1.752 47.34 12.273 21.042 10.52 35.065 15.777 54.354 28.052 17.537 14.03 36.818 28.055 56.107 38.572 38.573 22.797 78.9 52.604 120.98 66.63 57.862 19.287 157.823-.016 217.44 3.492 10.64.626 22.063 1.253 33.83 1.51 10.626.233 21.528.165 32.392-.477 26.797 0 24.952-79.935 5.665-79.935-40.328-1.754-80.02 0-119.228 0-35.943 0-99.402-14.95-116.715-22.248-25.52-10.76-88.886-37.808-119.997-68.92-14.98-14.98-28.042-24.554-43.824-36.826 22.796-22.793 99.942-10.496 133.256-14.004 50.847-7.016 101.696-10.522 154.292-10.522 70.137 0 127.984 5.26 198.118 5.26 35.065 0 1.712-22.81 33.274-10.538 40.327 14.026 140.298 35.065 180.626 43.834 38.57 8.765 49.103 8.765 84.138 19.27 17.29 5.185 28.054 15.774 47.34 15.774 19.29 0 35.066-8.76 52.602-15.773 87.668-36.82 231.468-42.08 319.134-73.64-5.26-28.055-8.752-15.767-21.026-38.563-1.752-1.75-33.312-92.923-56.104-63.117-17.533 24.547-76.33 21.022-106.953 21.022-40.323 0-134.32 13.276-171.895 5.266-22.354-4.77-36.797-7-59.592-17.52-28.053-10.52-29.795-12.266-57.85-21.032-42.08-15.782-87.426-32.95-129.747-47.352-43.834-14.913-47.308-21.036-85.882-40.323 22.792-38.572 68.377-64.874 110.462-78.9 29.807-10.518 61.364-17.53 89.418-33.313 24.547-10.52 36.823-17.513 57.86-28.032 19.288-8.767 61.368-26.318 84.163-31.58 21.037-3.51 40.326-7.013 61.365-14.027 36.82-14.027 75.394-24.546 113.965-40.33 49.096-19.285 140.307-33.314 191.154-50.848"/></defs><clipPath id="b"><use xlink:href="#a" overflow="visible"/></clipPath><g fill="none" stroke="#17192D" stroke-width="3" clip-path="url(#b)"><path d="M654.276 851.982c-9.128-3.074-23.296-3.47-28.24-13.79-14.67-.265-29.847 1.82-42.872 2.958-6.166.537-18.344 4.418-25.373-.992-5.346-4.12-8.98-12.36-13.343-17.76-2.863-3.54-5.89-6.12-8.636-10.004-3.423-4.84-3.857-8.994-6.305-13.627-3.757-7.132-5.967-9.344-13.364-13.03-13.748-6.853-18.353-11.485-24.784-25.25 12.286 1.897 25.496 3.407 36.966 8.908-.48-4.367-2.942-9.307-4.804-14.042 9.146-1 16.66-10.028 24.834-13.25-7.41-7.476-10.95-7.53-11.27-18.785-.185-6.78 2.777-14.156 4.968-20.187-10.64 4.064-12.9 11.186-23.76 7.133-9.586-3.578-14.393-12.95-15.79-22.428-8.273-1.363-14.34-6.815-21.535-10.118-6.588-3.032-14.453-2.748-19.223-9.236 4.313-3.013 8.797-6.944 10.566-12.478 5.33.645 11.67 1.884 16.596.212-8.796-.562-16.644-8.375-20.51-15.533 5.802-.264 11.814-.018 17.57-.38-3.523-16.357-20.53-4.24-29.218-13.76-4.774-5.23-.323-10.784-2.374-16.62-1.753-4.995-9.458-10.012-12.508-15.258-9.05-15.576-24.985-30.376-29.307-48.406-2.506-10.465-.01-23.465-4.673-33.217-6.565-13.745-22.05-21.563-26.488-36.788-10.382-35.568-7.114-66.32 28.11-81.82.618-15.166 1.93-27.394 1.397-40.525-.523-12.87.332-26.088 1.623-38.228 1.08-10.17 1.036-6.615-3.14-16.515-2.35-5.554-1.57-16.49-5.964-20.52-9.56-8.772-33.517-2.385-25.762-22.638M671.158 1026.21c-5.474-14.33 8.71-18.946 18.528-11.273-1.525-5.15-1.677-11.202 3.705-14.288-21.472-4.07-8.517-33.86 6.522-38.065-.34-3.988-1.374-8.543-2.79-12.352-7.96 1.823-18.994 2.985-16.315-8.865-9.795-6.25-6.08-19.938 2.775-25.697M702.687 887.646c-.134 6.734-6.104 1.867-10.252 6.63-3.57 4.097-1.327 11.103-5.356 14.775-8.448 7.695-22.535-1.754-25.473-11.213-1.128-3.637 1.285-7.178.372-10.324-.625-2.176-3.68-5.582-3.906-6.586-1.178-5.18-1.497-13.268-2.42-20.28-1.088-8.25-5.586-27.142 11.173-21.573-.326-4.338.675-10.22 1.465-11.3M663.2 794.655c-12.888-5.694 3.7-16.085 12.882-14.642.99-4.01-.02-11.212 2.346-14.536 1.892-2.648 6.82-1.695 8.932-4.2 2.775-3.308 9.832-20.876 14.05-8.658M658.1 750.07c-2.756-1.466-9.534-5.35-10.534-8.857-1.882-6.66 9.297-12.217.343-16.626M591.86 718.22c-6.024-10.43 3.65-14.03 13.814-15.486-1.773-8.818-4.31-15.808-7.727-23.648-5.14-11.795-3.925-9.663 1.557-19.457 1.06-1.894 3.692-4.48 5.087-7.647 1.47-3.328-.45-8.324.906-11.776 3.607-9.2 12.337-11.338 10.563-23.6v3.535M600.778 752.62c-7.324 13.584 14.3 20.688 19.044 30.917 5.952 12.842-6.153 15.984-9.994 29.9 2.82.287 5.695 2.898 8.557 3.092-2.876 12.825 8.143 12.24 16.527 14.937-.47-4.55-.104-9.362 2.405-12.832 7.758-10.754 12.05-2.327 19.51-3.597M664.468 271.098c-.44 11.48-4.982 14.316-7.74 24.21-2.328 8.376 2.828 15.136 4.016 22.39.883 5.394-.322 9.258-.086 14.56.615 13.776 6.28 26.898 6.098 40.63-3.333-.568-6.323-2.686-9.677-4.013-5.527-2.193-20.788-11.628-23.247-17.17-4.068-9.182 7.02-23.92 2.382-34.747-9.66-22.598-12.586 1.965-14.05 9.84-1.257 6.77-3.817 16.794-5.7 23.54-1.283 4.59-5.07 6.14-5.26 11.22-.183 5.195 5.98 10.13 6.253 15.462.343 6.837-4.678 10.917-3.97 17.96.82 8.287 11.858 12.27 12.853 19.303 1.294 9.13-7.625 13.806-8.786 22.688-1.322 10.147.84 20.95-.503 31.3-.417 3.213-3.184 4.332-3.27 7.92-.056 2.258 3.763 3.515 3.588 6.347-.516 8.307-9.485 21.262-19.85 17.083-6.087-2.452-5.307-8.827-7.653-13.808-2.09-4.437-.307-9.4-5.55-10.497-3.448-.714-18.933 14.522-20.477 17.688-8.7-6.708-7.748-33.647-3.637-41.313 2.105-3.918 13.456-5.926 12.486-12.462-.926-6.215-12.638-7.032-16.442-5.235 1.194 16.018-15.376 1.934-19.16 2.662-5.71 1.103-13.168 13.167-15.565 17.507-1.664 3.006-5.225 6.475-4.882 10.502.718 8.567 2.668 3.35 6.43 7.71 3.272 3.788 11.143 9.238 13.095 16.218 2.156 7.763-3.98 15.4-1.65 20.46 1.447 3.155 8.016 2.774 9.952 6.888 1.79 3.792-.538 9.417-.66 12.835-.69 18.563-10.384 38.71-14.17 58.028 1.985 1.083 3.874 1.563 6.176 1.49M633.904 280.168M669.57 226.522c-14.627 2.567-16.414-14.207-30.807-10.146M733.15 216.515c-23.607.395-12.614-12.586-12.91-23.398-.376-13.533-11.53-5.287-12.65-14.816-10.51.368-10.675-7.487-9.107-14.58.292-1.32 4.606-1.64 5.5-4.684 1.204-4.072-.354-10.015-1.52-13.847-1.787.05-4.283-.715-6.016-.455 9.468-9.456 21.77-15.3 18.782-31.4-15.94-1.966-14.556 13.37-23.017 21.186-13.547 12.502-20.567-3.642-17.794-15.354 1.193-5.04 4.563-8.513 5.332-13.667M736.89 259.252M714.142 634.15c0-15.302 1.212-29.564-4.166-43.338-1.553-3.984-5.218-5.647-5.755-9.88-.39-3.06 3.553-9.126 3.553-13.022 0-11.257-9.417-19.795-10.282-30.636-.813-10.19 4.798-18.838.19-30.478 18.663.092 9.39-13.833 7.546-25.51-.983-6.212 1.03-12.914.026-19.11-1.315-8.214-5.477-15.926-6.2-23.98 11.62-4.87 6.84-28.86 5.896-38.822-1.468-15.527-7.362-24.058-7.362-40.378M807.14 376.828c3.718 4.833 6.098 5.87 12.458 7.36 2.07.49 6.487-2.83 9.483-2.355 3.79.604 7.877 4.83 10.96 6.292 1.622-4.278 2.478-8.157 2.774-12.57M746 373.007c-.85 12.52-8.165 6.078-14.363 11.345-7.014 5.955-5.015 14.926-16.023 16.865 0 14.542 14.625 21.96 14.818 35.486.127 9.332-21.31 25.654-3.828 25.464 5.782-.062 6.49-8.008 13.336-5.206 3.128 1.28 4.063 9.542 7.055 11.717 2.908 2.112 5.042 1.11 7.922 2.417 7.394 3.355 10.02-.022 14.045 8.852 2.88 6.334 1.074 16.036 1.43 22.858 12.046-.267 17.216 8.188 28.945 9.22.323 9.2.207 16.883-3.88 25.084-11.704 1.34-16.88 9.383-28.912 8.093 3.948 6.258 2.785 13.252-6.146 12.513 3.35-.372 6.33.987 9.608 1.47-1.646 14.917 22.855 13.638 24.428 28.178.425 3.95-3.192 7.35-2.608 11.116.69 4.367 4.04 5.78 5.154 9.884 2.052 7.52 3.77 14.62-6.216 17.34-4.04 16.187 15.727 10.428 15.102 27.56M714.152 235.427M742.176 332.242c.165-5.417-3.29-8.957-8.693-10.03-2.685 8.103-19.752 4.184-27.035 10.214-2.686-3.854-7.42-22.812-2.864-27.306 3.15-3.102 20.9-1.954 25.664-2.366 1.652-8.253-7.957-19.858-14.91-21.653M793.13 673.635c-12.63-6.99-16.24 26.215-15.28 33.123 1.033 7.434 7.923 9.61 9.9 16.56 3.712 13.036-6.505 16.654-12.486 2.937-.634 7.742-1.764 31.964-11.428 34.097-14.506 3.19-10.035-22.09-11.465-30.667-1.696-10.166-2.81-18.228-4.137-28.005-1.14-8.43-4.906-30.26 4.072-37.883-10.544-4.132-11.77-12.013-20.318-18.185M848.666 905.535c-8.27 10.635-19.743 2.713-28.88 1.15-7.535-1.297-5.467-.352-12.512 1.58-6.626 1.82-9.398 6.387-16.432 1.314-2.778 8.217-2.103 17.05-4.294 24.983-.715.143-1.432.29-2.148.43 1.152 8.247 9.78 8.486 5.854 17.264-5.224 11.69-14.126 1.887-21.747 5.64-9.91 4.88-10 21.278-1.105 24.032 7.68 2.384 16.528-2.562 25.414.26 21.97 6.974 17.456 16.468 24.235 36.097 2.946 8.53 8.32 13.86 9.204 23.496M731.796 794.432c-.25-2.15.8-5.162.412-7.258M706.507 688.922c-2.934 3.573-8.06 27.257-7.665 31.845.417 4.87 5.1 10.948 6.394 16.558 1.508 6.575.998 14.858 1.27 21.652M423.717 806.123c.04.263 4.14-.197-1.062.187-4.115 9.103.705 20.822 11.063 21.654 2.13 7.716-3.73 11.978-11.114 11.497 2.002 7.1-.44 16.08 4.455 22.804-8.68-.49-11.93 2.896-18.306-3.885-6.106-6.487-4.022-21.04-17.942-17.65-.434.453-1.06 2.018-1.465 2.523-8.088-8.004-13.572-19.517-22.577-26.726 1.097-.564 2.116.115 3.254-.4.07.164.266-3.752-.01-3.453-25.157 2.13-32.994-30.7-37.844-48.39 6.538-.743 16.854 3.01 20.974 7.6-9.003-9.785 1.203-13.777-.6-24.264 1.73 1.407 5.443 2.063 7.214 3.592.84-11.794-2.572-32.592 6.53-39.042-5.353-2.146-8.43-6.003-7.353-11.59 5.466-.472 10.305 2 14.84 4.776.61-6.91 2.25-15.578-5.886-17.932-.22-3.716-2.428-17.18-.284-20.154 6.164-8.56 10.508 3.3 18.97 3.685.256-16.69 3.062-21.39 19.112-22.982.815-15.08 4.9-34.693-3.506-47.957 10.763.02 12.76-4.568 16.43 5.83 1.496 4.227-1.63 10.205-.056 14.355 1.29 3.4 5.632 4.315 7.065 7.518 9.08 20.285-6.757 31.572-5.536 49.55 20.386-2.61 12.79 32.95 22.602 42.232-14.06 8.824-5.014 20.987 6.666 26.713-6.47 5.288-3.224 18.9 1.115 20.41M442.825 794.655c-1.382-5.635 7.19-7.054 10.56 1.304-.158-2.67 1.37-6.946 1.126-10.057 6.258 2.933 13.877 2.526 21.305 2.19 1.863-10.873-5.555-17.163-6.06-26.315.714-.173 1.43-.326 2.145-.464.845-9.234-3.952-28.074-15.064-25.26M489.955 733.505c-.143 3.57.277 6.897 1.27 10.193M599.795 92.788c6.034 3.91 15.293-3.778 14.996 8.888M623.708 111.873c3.5 28.295-23.768 14.726-14.105.25-6.14-2.19-12.714-4.19-11.57-11.527-3.393.048-9.584.856-12.64-.67-3.872-1.936-2.855-9.008-9.9-9.938M419.89 464.74c-10.677 1.62 5.155-16.592 4.93-21.463-2.032.473-5.142-.586-7.257-.33-1.213-3.884-3.335-7.374-4.384-11.314-1.328 1.257-.887 2.926-.933 5.083M549.825 324.618c3.37 5.193 2.99 10.298-2.837 13.08-9.202 4.39-8.112-8.04-13.564-7.935 4.85-6.15 2.282-11.41-3.947-14.15-8.655-3.804-9.01 9.625-15.196-4.76-4.928-11.467 7.54-18.174 11.595-26.9 5.797 5.938 9.545 12.557 16.16 18.246-1.38-9.15 6.067-12.558 5.172-22.166-.624-6.718-3.914-11.436-8.087-16.63.968.22 1.928.176 2.876-.12 2.214-8.945-8.646-10.478-2.32-18.66 5.375-6.963 13.813.136 20.107 2.118.055-1.514.365-3.2.42-4.73 7.01-.535 9.566 7.144 16.368 7.448M582.944 282.576c-10.722-.897-7.195 29.99-7.65 38.412-.536 10.073-9.816 21.856-8.05 30.376-7.362 4.063-14.282 3.965-15.104 13.79-8.664-1.935-10.838 4.425-12.733 11.465-17.828 2.347-6.738-22.323-18.884-23.717-6.45-.744-10.192 9.518-16.303 5.083-2.74-1.982-3.69-15.354-5.2-18.945 2.164-3.448 3.423-7.605 3.667-11.872M483.585 213.793c-12.674-10.664.526-23.86-6.375-36.944M546 392.13c-.082 4.814.48 9.23 1.436 13.858 3.504 1.122 7.596 1.963 11.305 1.433M586.764 184.492c1.468-1.5 3.298-5.137 2.744-10.032 5.124-.81 10.214 1.174 14.864 2.194 1.834-4.12 5.507-12.35 7.872-15.094 4.272-4.963 12.51-7.88 10.19-17.836M642.814 190.862c-4.725-1.744-8.53-6.27-8.7-11.258 8.11 1.745 14.063-3.3 12.522-11.67M822.3 236.662c.256-1.658.305-3.357.13-5.04M810.967 346.272c-4.797-8.062-11.307-14.993-16.26-22.846 11.947-2.288 9.554-11.39 7.335-19.19-.85-2.988-3.943-7.194-5.12-10.194-.796-2.024 1.973-3.58 1.353-5.392-1.278-3.722-6.74-8.515-7.417-11.284M922.706 909.715c-6.67.605-12.522 5.955-13.887 12.916-1.348 6.837 5.305 11.33 4.893 15.542-.745 7.566-7.634 7.088-10.25 14.998-4.61 13.955 2.767 3.18 8.018 8.86 5.234 5.667 2.51 14.468 3.76 21.777.882 5.163 6.756 13.35 6.72 17.528-.07 7.025-7.744 6.945-11.834 14.004-3.443 5.927-2.71 12.293-2.27 19.264 3.986-2.592 8.814-5.063 13.564-6.077M1279.85 848.04c-6.867-11.44-3.403-29.405-20.47-33.91-1.397-12.574 13.132-11.714 14.07-21.05 3.29 4.102 4.286 9.584 3.76 14.713 11.903 3.704 15.606-15.555 21.78-22.45 4.618-5.16 9.652-6.524 12.48-13.097.576-1.326-2.19-5.676-1.39-7.848 1.3-3.51 6.946-5.172 8.714-8.71 5.385-10.745-1.37-23.074-8.93-30.506-11.87-11.648-15.02-3.747-26.158 4.9-3.94-6.664-6.925-14.827-12.613-20.53 20.672-5.276 20.414-25.618 21.404-44.02 8.956-3.83 8.982-12.97 8.725-21.87-.308-10.69 2.943-14.68 4.835-24.52.842-4.352-.546-18.21-2.538-22.293-3.043-6.23-11.06-7.488-12.327-16.663 10.482.277 17.898-13.3 26.37-9.3.693-3.678.72-8.714.032-12.406-.845-.25-1.643-.12-2.395.402-4.31-13.974 3.53-29.306-15.024-28.59-13.218.512-11.99 9.474-14.21 20.69-3.58-3.444-5.856-8.293-9.266-11.866-2.81-2.948 114.447 43.305 113.015 39.74-2.394-5.97-123.642-69.435-117.762-72.295 5.715 11.138 11.694 9.333 15.294-.547 5.91-16.235-4.207-31.37-2.324-45.767.673-5.153 5.118-7.747 6.455-12.338 3.11-10.715-2.193-17.677-10.417-24.914-7.07-6.226-24.658-12.513-21.97-24.78-15.353-2.89-11.17 18.484-26.522 13.548-.126-5.002.184-10.216-.603-14.914-4.365 4.548-2.45 8.753-4.555 14.432-.9 2.413.747 5.454-.233 7.92-.85 2.145-4.426.678-4.9 1.718-3.27 7.188-3.69 16.05-7.45 22.42 5.28 3.205 15.32 2.696 19.043 5.362 5.254 3.762 5.08 13.116 6.557 18.918 1.87 7.375 3.965 10.392-.218 18.113-2.76 5.1-9.674 9.42-10.44 15.155-6.47-6.5-5.798-19.61-6.356-29.06-16.375-4.15-21.05 21.84-21.26 32.794 16.816-.042 39.105 22.18 26.876 37.48-7.98 9.983-38.98 36.573-8.18 43.182 2.848 11.02 6.48 40.262 25.413 26.693 1.483 2.622 1.876 5.668 1.51 8.67-10.056-.726-23.143 4.924-26.7 12.832-1.62 3.604-4.423 20.865-4.298 23.033-9.696-3.272-31.922-29.545-30.292-39.415-3.378.587-7.706-.97-11.083-.382-.307-6.15-.052-12.564-.414-18.69-13.22-6.572 12.36-17.07 4.066-24.166-3.24-2.78-11.648 1.617-15.335-.165-4.498-2.185-6.072-9.437-9.942-12.916-.97 7.33.085 22.442-2.764 29.39-4.03 9.813-20.022 8.94-12.91 22.757-24.335-1.765 2.308-31.615-2.6-44.2-8.42-1.78-2.014-7.337-4.81-13.022-2.176-4.414-7.14-5.047-9.082-8.538-3.794-6.843-4.434-19.98 1.37-25.977 3.5 7.5-.163 28.59 12.422 16.814 6.58-6.158 7.18-17.015 14.27-23.317 7.07-6.284 37.167-33.916 24.447-39.392-1.3-9.26 3.158-17.443 2.176-26.365-9.106-2.284-17.375 7.407-20.41 14.897-2.83.95-8.187 1.514-11.057 1.303-1.056-6.92 6.19-30.578 13.55-34.1 1.36 3.39 5.242 6.3 6.648 8.684 5.06-7.9 6.275-17.804 10.122-25.442 1.04-2.07 4.956-1.936 6.49-7.578.543-2.015-3.304-8.56-3.688-11.248 12.286-3.542 23.975-1.86 28.014-16.562 1.226-.344 2.332.097 3.516-.37-10.198-16.13-9.44-30.562-10.195-50.572-4.16-.455-8.515-1.114-12.42-1.874-1.28-8.87 3.13-17.193 2.174-26.158-5.282-.808-20.33-20.65-20.383-2.92-17.764 1.546-44.3 4.48-26.692 29.358-3.637-2.306-7.087-2-11.118-2.232-4.286 5.765-2.644 13.5-6.85 18.563-5.116 6.165-15.528 1.02-13.75 13.413 3.68-23.14-15.124-1.01-20.443 4.558-11.294-9.9-14.014 1.104-20.017 6.19-4.29 3.628-16.16 11.69-15.71.65-1.22-.927-4.64-2.594-6.116-3.107-7.555 10.363-16.448 13.852-29.423 14.342-5.88.22-6.275-4.853-11.822-.116-3.142 2.687-3.818 11.38-3.667 15.19-15.514.543-15.416 23.26-11.433 33.08-5.093.77-15.535 5.497-17.413 10.738-3.592 10.02 4.236 6.48 7.136 14.007 5.018 13.058-14.543 14.802-14.027 30.127-10.76-10.6-14.784 2.937-13.528 12.646 3.426 1.476 3.472 3.475 6.015 5.64-11.026 5.023-8.875 18.045-13.858 26.144-1.107 1.793-7.253.942-8.747 3.005-2.308 3.18-1.25 9.938-1.467 13.84-.447 7.88-2.9 10.546-4.552 16.535-3.28 11.864-3.56 22.787.73 31.873 2.202 4.66 4.597 4.886 6.365 11.475 1.987 7.408.563 12.2 5.32 18.878 9.687 2.203 44.776-7.928 45.943-16.262 5.542 12.27-44.486 45.848-25.877 60.748-2.824-.056-5.627 1.774-8.638 1.763-.47 9.125 1.723 19.387 1.407 27.856-.336 9.08-8.567 16.503-8.15 27.837-9.932 2.858-19.182.173-17.71 15.568 1.203 12.534 7.483 8.926-1.27 22.58-3.85 5.992-10.137 10.754-13.637 16.692M1368.545 524.996c-14.324-1.983-10.662 5.195-10.315 15.47.286 8.538-2.47 15.907-2.42 25.013-12.27 3.154-25.51 31.01-25.29 42.51.344 18.528 8.145 10.992 19.64 20.094 6.007 4.764 4.23 16.616 14.564 18.312 1.66 16.225-19.487 20.733-18.688 36.308 6.385-3.915 15.065-9.533 21.573-3.438-1.93 3.378-3.726 6.67-5.49 10.06-1.193-.435-3.333-.536-4.6-.917-1.195 2.135-1.712 5.182-1.52 7.574 10.078 4.238 13.22-.345 21.67-2.635 3.728-1.018 9.244 1.688 12.638-.14 2.973-1.59 5.34-9.12 6.742-9.772 11.233-5.253 13.073 11.414 16.105 21.144-10.727 1.738-16.5-4.467-26.356 1.717.94 11.977 15.878 7.992 23.75 7.645 3.522 12.082 15.444 7.61 19.133 13.7 5.76 9.498-10.27 16.802-12.602 22.953-2.083 5.468-2.634 27.328 2.517 30.734 7.832 5.174 26.305-4.03 24.52-12.67 4.968 2.202 5.555 16.758 3.41 22.864-.842 2.39-6.198 3.932-7.477 7.55-1.24 3.487.056 10.28.245 13.858.7.12 1.398.244 2.1.36-1.082 9.728-9.88 11.693-4.048 23.8-13.812.68-19.485-1.822-27.58 9.11M1363.363 207.938c-10.38 35.575-7.11 66.325 28.113 81.825.62 15.166 1.928 27.393 1.395 40.525-.522 12.87.34 26.09 1.62 38.227 1.08 10.17 1.042 6.613-3.14 16.516-2.345 5.555-1.566 16.49-5.957 20.52-9.56 8.772-33.516 2.384-25.765 22.638M1598.436 333.857c-1.287-4.59-5.072-6.137-5.257-11.218-.187-5.197 5.978-10.132 6.245-15.466.347-6.834-4.674-10.914-3.968-17.96.826-8.29 11.857-12.273 12.854-19.302 1.287-9.13-7.63-13.81-8.786-22.686-1.327-10.15.84-20.95-.51-31.3-.416-3.215-3.184-4.333-3.27-7.92-.052-2.26 3.77-3.516 3.595-6.348-.523-8.306-9.493-21.258-19.85-17.083-6.09 2.454-5.313 8.827-7.654 13.81-2.1 4.435-.307 9.398-5.556 10.497-3.45.71-18.934-14.523-20.48-17.69-8.697 6.708-7.742 33.648-3.635 41.314 2.103 3.918 13.46 5.925 12.485 12.46-.924 6.215-12.637 7.033-16.44 5.233 1.194-16.015-15.373-1.932-19.16-2.657-5.708-1.104-13.163-13.17-15.568-17.51-1.658-3.007-5.218-6.474-4.88-10.502.722-8.565 2.67-3.348 6.43-7.71 3.272-3.787 11.15-9.236 13.093-16.217 2.16-7.763-3.98-15.4-1.65-20.465 1.448-3.15 8.024-2.77 9.96-6.884 1.795-3.792-.54-9.413-.662-12.833M1648.723 311.312c-3.336.563-6.322 2.684-9.678 4.01-5.525 2.192-20.78 11.628-23.238 17.17M1448.962 850.558M1629.685 647.293c-2.938-.47-6.954 1.04-9.833.413 3.637 11.424 18.274 17.225 16.135 31.596-1.133 7.6-6.437 12.82-13.783 11.233-8.764-1.9-8.78-11.55-10.475-18.178-1.11 7.31-4.717 12.606-8.817 18.216-14.42-.838-10.35 28.89-26.217 8.814-9.92-12.558-5.977-23.237-24.14-12.8 1.155 1.078 2.415 3.147 3.337 3.985-2.922-.634-6.92.79-9.898.413-.602 12.022 4.15 43.426-15.287 42.037-.63 4.454-.906 7.052-2.612 10.952 11.896 5.547 4.255 23.46-1.186 30.916-5.904 8.1-14.855 12.332-19.51 21.725 8.91 3.873 5.05 21.533.155 27.936-4.893 6.388-7.944 1.39-14.004 6.14-6.49 5.082-.313 17.38-12.52 15.703M1659.048 632.19M1679.458 146.922c-.815 10.188 4.795 18.836.192 30.476 18.66-.09 9.392 13.832 7.55 25.51-.986 6.21 1.02 12.913.026 19.11-1.32 8.216-5.484 15.927-6.205 23.98 11.62 4.873 6.84 28.86 5.898 38.823-1.47 15.528-7.366 24.06-7.366 40.378M1740.458 281.636c8.33-14.428 8.028-12.115 24.452-13.764 12.61-1.265 13.182-3.132 21.864 8.704 6.208.392 10.8 5.04 9.98 11.683M1752.484 704.81c5.593-11.066 13.972-24.14 22.477-32.77-4.302-2.164-8.147-4.014-12.668-5.445-.933-.298-12.306-2.275-12.764-2.74-6.486-6.695-.795-20.413 1.05-27.767M1789.106 307.366c3.72-4.833 6.1-5.87 12.456-7.36 2.075-.488 6.487 2.827 9.49 2.352 3.78-.603 7.87-4.83 10.955-6.286 1.62 4.277 2.48 8.157 2.77 12.568M1763.632 262.782c-14.8-15.725 11.204-47.705 15.29-62.39 3.31-11.905.646-22.046 6.045-33.186M1727.963 311.188c-.85-12.52-8.154-6.076-14.36-11.346-7.013-5.955-5.014-14.925-16.023-16.864 0-14.542 14.624-21.966 14.815-35.485.132-9.337-21.31-25.653-3.824-25.465 5.78.062 6.49 8.006 13.343 5.205 3.123-1.284 4.06-9.54 7.047-11.717 2.905-2.11 5.042-1.108 7.926-2.415 7.396-3.355 10.018.023 14.046-8.85 2.88-6.338 1.073-16.036 1.43-22.858 12.043.266 17.218-8.19 28.94-9.22.327-9.203.215-16.885-3.87-25.09M1715.448 361.982c-2.683-8.1-19.75-4.185-27.037-10.213M1536.857 635.554c-1.96-4.882-4.89-8.642-6.487-13.358-6.364-3.836-13.468-2.81-19.082-6.186-2.23-1.34-3.507-7.225-6.43-9.35-3.38-2.452-9.292-2.72-12.96-4.934-.633 1.46-2.05 4.366-2.143 6.27M1557.27 646.213M1522.872 661.496c-7.65.83-20.953 13.02-24.48 1.403-7.552 3.39-4.895 11.785-8.916 18.432-4.048 6.68-9.84 6.462-12.458 15.83M1484.66 717.542c.17 4.302-.216 8.658-1.11 12.57 4.85-2.1 7.626-1.09 10.032 1.446M1506.312 744.294c4.105-2.727-4.27 7.002-7.638 7.64M1473.197 790.154c-.12-1.644-.12-3.318.055-4.92 18.51-4.2 1.215 24.123-2.6 30.396M942.25 259.244c-2.667 4.19-8.252 9.008-9.998 14.22-1.36 4.065 1.896 9.422.023 14.61 8.82 1.297 3.984 13.323 8.487 18.202 3.755-3.206 8.682-3.665 13.845-2.26.443 4.55 1.37 9.057 2.776 13.505 9.63.157 27.34 6.964 29.002-4.803-3.41-1.717-15.622-3.133-17.51-6.187-5.833-9.404 4.396-10.756 7.254-18.114 5.397-13.845 3.513-34.617 20.644-42.32 2.17-.977 6.556 1.992 9.547 1.208 2.08-.552 6.313-4.915 8.287-6.25M842.767 271.434c8.073 7.07 17.077-7.737 23.653-.977M874.48 220.74c-1.313.77-2.233 2.155-4.943 1.14-2.273-8.622-1.015-17.835-2.57-26.32-2.052 6.81-9.45 18.878-12.9 25.18M884.672 559.588c-10.26-.18-11.207-10.604-6.424-17.51-6.524-2.9-10.915-9.317-12.155-15.9-4.732 8.963-11.918 20.425-11.888 30.792 20.762-3.3 2.847 22.345 1.168 26.61 11.008 2.618 2.846 10.262 1.92 15.128-1.366 7.185.423 9.732 1.928 18.208 2.464 13.828-11.113 15.654-8.75 27.83 9.062-.61 10.413 9.59 9.99 16.818-.26 4.465-3.394 6.834-3.585 11.11-.258 5.76 2.278 15.914 2.51 23.08 5.613-1.595 19.628-1.828 22.56-6.5 3.92-6.258-3.157-15.163-4.62-20.744-1.937-7.38-1.648-14.563-1.565-22.295.146-13.834 7.235-29.44 2.636-42.383 3.787-1.015 5.136-4.14 8.134-5.775-6.016-5.027-2.197-12.76 5.658-12.96.82-6.966-3.708-9.874.133-15.315M1194.223 461.504c-.28 1.483-1.062 2.328-2.358 2.545-.56-6.38.395-13.702 1.08-19.105M1213.325 284.438c-2.073 1.5-2.445 3.06-4.92 2.465-1.818-11.34 12.62-18.193 11.295-29.355-.682-5.744-5.62-13.777-11.47-6.23M1120.34 312.46c.936-2.235 1.737-3.778 1.14-6.167-7.33-.86-10.538 6.11-12.605 12.54M1092.31 320.102c-2.953-5.18-11.484-11.67-14.01-3.816M846.458 1033.45c.725-6.39 1.553-13.973 6.173-18.792-2.227-3.92-3.188-5.445-2.534-9.074-5.88.57-3.298-6.648 2.73-7.806M874.48 990.135c-4.82-2.384-1.324-9.068 1.208-13.842-2.278-.822-3.1.328-5.03 1.103M1143.262 706.068c-1.898 7.497-9.276 13.23-10.19 25.314 1.243-8.85-4.206-11.616-10.515-8.872-10.758 4.69-5.363 14.56-5.336 19.287.038 7.928 1.39 17.222-9.396 21.808.502 6.895 8.464 8.907 8.724 16.344.31 9.123-9.524 12.005-11.37 21.47 5.457.416 9.54 3.902 11.592 9 9.006-9.907 15.18-1.415 24.845-4.808 5.526 4.532 10.945.274 15.662-2.73M999.214 1045.01M1042.633 846.188c-6.3 0-12.687.123-18.92-.19M1004.25 770.004c-1.632-2.817-9.66-16.872-10.085-21.13-1.43-14.2 3.968-7.625 13.112-11.433 18.02-7.52 28.807-27.294 11.475-39.148 11.187-5.015 30.824 21.668 26.256-10.4-1.46-.306-3.182-1.116-4.784-1.346 1.816-28.363 43.004-26.063 39.217-60.54-7.02-1.928-14.452-1.016-21.333-1.94-.85-4.53-3.02-8.693-6.315-11.975-1.187-1.182-8.838-4.858-9.19-5.344-5-6.862-3.42-16.196-3.982-26.645-2 1.718-5.48 2.31-7.508 5.77-.408-3.284 1.24-4.556 2.6-7.19M1047.725 497.156c-6.545-6.507 8.012-20.942 7.835-30.38 6.827-.437 17.625 3.145 18.912-5.037 7.42 6.173 17.61 9.943 23.997-.065 4.88 9.215-4.362 17.838-8.575 25.03 10.41 1.975 8.396 14.648 2.387 21.152 1.79-.09 5.98 2.19 7.677 2.224-3.34 9.68 2.662 17.613-1.11 26.31 4.297 1.26 6.01 4.318 8.752 6.626M1111.416 415.627c-6.85-8.724 2.486-20.98-3.782-29.512 2.378-1.802 4.122-5.068 7.958-5.992-.062.135-.67-.732-1.623-1.435M1127.98 452.57c-1.632 2.538-4.984 4.855-8.724 6.27-.787-5.24 3.323-21.7 8.662-25.47 6.396-4.52 15.394 1.82 16.808-11.2 12.57-2.91 1.134-34.906 13.828-25.65M1149.637 340.472c-4.533-.194-8.29 8.216-8.82 13.792 3.883.81 7.593 2.12 11.363 2.764M1117.785 620.723c-.044-3.77-.306-6.61 3.6-8.793 1.364 11.614-3.212 18.633-5.244 28.94-.83 4.24 1.855 9.4-1.697 14.305 4.446 5.316 10.593 7.33 18.44 6.114.353-7-.51-14.443 1.337-21.114-3.83-2.86-2.846-5.343-3.696-9.266M1149.637 633.455c-1.923.29-4.104.112-6.02-.126.654-4.883 3.75-8.892 8.318-9.876.68 1.604.53 1.412 1.52 2.55 1.377-1.124 1.374-2.585 2.55-4.012M1201.864 678.04c-4.226 4.348-10.04 9.08-11.275 15.04 7.22 7.772 17.73 21.446 3.725 29.895 1.657 2.77 4.208 4.053 7.55 4.744M1200.584 781.22c1.498-3.523 3.104-13.795-.906-16.775-4.208-3.137-10.97 3.556-16.762 2.637-1.114-6.523 1.316-12.365.918-18.79-2.116.39-5.16-.803-7.28-.354.5-7.333 3.09-14.21 4.928-21.494M1166.19 707.338c1.297-1.82 8.427-11.534 0-14.008M1242.62 777.402c6.368.602 10.42-5.146 8.124-11.58 10.225-4.467 7.205 10.02 16.09 5.212M1233.707 749.376c2.37-5.76 1.896-13.466 0-19.11M1223.52 690.782c-2.854-.114-6.605-1.8-10.027-1.5.116-2.575 1.753-4.522 3.658-6.145M1283.388 611.802c-13.02 5.67-4.07-28.21-17.698-13.59-.19-2.25-.69-5.744-.14-8.063M1338.166 740.457c4.63-2.52 5.37-11.24 8.89-16.487 4.784 4.187 10.43 8.644 12.764 15.216M1380.203 718.802c-.72-1.09 1.014-2.636-.993-2.184-.62 13.51-2.868 21.416 3.54 32.758M1389.12 786.316c1.29 6.336-8.7 10.71-12.837 16.152.654-2.225-.328-4.883-.097-7.04-.77-.204-3.142.174-3.63-.194M1354.724 788.868c.19-2.594-.813-5-1.464-7.454-4.725.106-9.77 3.417-12.604 3.398.26 3.43-1.89 3.982-2.49 6.604M1324.153 804.15c-3.806-2.166-7.962-1.668-11.463 1.278M1401.856 219.456c-10.68-1.623 5.155 16.59 4.934 21.46-2.03-.47-5.144.588-7.262.33-1.215 3.886-3.335 7.376-4.383 11.317-1.326-1.258-.886-2.927-.932-5.084M1524 381.997M1531.793 359.577c3.37-5.2 2.988-10.297-2.834-13.08-9.205-4.392-8.117 8.04-13.567 7.936 4.85 6.152 2.283 11.407-3.95 14.15-8.654 3.803-9.01-9.625-15.196 4.756M1557.265 363.206c-.538-10.072-9.82-21.854-8.05-30.377-7.366-4.067-14.285-3.964-15.102-13.79-8.67 1.935-10.842-4.423-12.735-11.465-17.833-2.348-6.742 22.324-18.89 23.716-6.45.744-10.188-9.515-16.3-5.084-2.74 1.987-3.69 15.357-5.2 18.946 2.16 3.45 3.42 7.61 3.667 11.875M1459.182 507.343M1527.967 292.066c-.076-4.817.482-9.235 1.438-13.86 3.503-1.12 7.596-1.962 11.304-1.433"/></g><path d="M2048 0M2048 1536M0 1536M0 0" fill="none" stroke="#17192D" stroke-width="3"/></g></svg>