<svg xmlns="http://www.w3.org/2000/svg" width="2048" height="1536" viewBox="0 0 2048 1536"><g fill="none" stroke="#17192D" stroke-width="3"><path d="M102.66 690.6c-.196-.396-.65-.378-1.736-1.065-5.79-3.686-12.313-6.89-18.42-9.803-10.662-5.072-18.69-13.266-24.664-23.372-7.26-12.264-15.284-24.38-16.146-39.115-.79-13.458 1.692-26.018 4.28-38.698 2.684-13.122 7.765-24.865 17.25-34.692 9.487-9.823 22.293-20.86 35.79-24.368 14.787-3.838 30.958-1.916 45.998-.444 11.723 1.145 22.22 7.363 33.227 11.573 5.938 2.27 12.152 5.338 17.5 8.85 6.79 4.455 13.375 4.614 20.986 5.688 2.52.357 5.217-2.284 7.88-1.15 5.237 2.23 10.366 9.126 13.857 12.62 7.304 7.302 11.318 15.698 13.51 25.558 3.284 15.332 4.746 31.028 8.028 46M246.495 607.37c-.73 2.19 9.127 14.966 11.68 19.347 5.11 9.126 6.207 19.718 7.67 29.938M232.99 630.73c5.108 8.396 12.41 15.334 17.158 23.73M222.038 721.265c1.457.364 4.013 6.935 6.205 9.125M183.338 708.85c14.605-2.914 24.824 23.368 39.432 14.607M247.592 654.097c4.746.727 9.127.727 12.78 3.65M265.844 655.558c-11.32 6.935-18.982 24.09-24.096 35.77-5.474 13.148-8.395 28.84-9.854 42.713-1.825-.36-2.924-1.82-3.652-3.283M265.844 657.018c4.38 0 16.43 2.552 15.697 10.223h-1.823M232.99 733.678c2.915 2.188 16.79 12.774 20.808 4.012M285.195 677.823c-8.765 8.03-16.43 23-20.448 33.948-1.825 5.113-3.284 11.318-4.01 16.794-.365 5.113 2.918 8.76 8.758 5.843 7.667 9.492 7.667-3.65 10.223-10.586 3.285-9.492 7.666-18.982 11.314-28.477h-2.557c-.726-2.55-2.19-2.92-4.01-1.09-1.828-2.19-4.747-6.574-8.403-3.653M262.557 734.04c-2.414 4.42-3.98 5.09-9.107 3.276-5.2-1.84-4.662-4.858-3.656-9.85 1.113-5.534 1.6-11.115 3.19-16.503 1.656-5.605 3.763-10.97 6.19-16.064 2.526-5.293 4.85-10.923 7.4-15.98 1.616-3.21 4.565-11.383 8.395-12.56 5.625-1.734 6.11 8.543 6.21 8.543 1.823 0 3.286 1.097 4.744 1.82M317.318 669.063c-16.065-6.938-47.456 81.04-45.63 94.186.366 2.552 1.093 4.378 2.553 6.572M323.16 667.967c.362-1.462 5.84-.727 8.028 0 2.92.732 4.745 2.193 7.67 3.65 2.918 1.46 2.918 1.46 6.57 2.192 10.586 1.82 20.81 7.662 30.3 12.043M274.604 773.837c2.19 11.68 11.68 10.586 20.444 13.506 10.222 3.647 22.27 9.49 32.49 13.87M321.335 666.875c-2.555 0-8.395 10.22-10.59 13.14-5.475 8.03-9.854 15.7-14.238 24.096-3.648 7.662-5.475 15.695-8.758 23.728-4.017 9.487-8.4 18.982-10.957 29.203-1.09 4.383-2.552 11.683-1.09 15.337M342.87 673.077c-6.937-1.094-23.726 31.398-26.647 37.604-4.747 9.853-6.933 20.807-11.684 30.666-4.014 9.49-8.033 18.617-9.855 28.84-1.097 4.743-1.462 10.586 0 15.332"/><path d="M330.665 802.938c5.17 1.994 19.33-22.188 31.62-54.02 12.295-31.834 18.06-59.256 12.89-61.252-5.174-1.997-19.327 22.186-31.62 54.02-12.293 31.83-18.063 59.256-12.89 61.252z"/><ellipse cx="155.595" cy="628.481" rx="37.603" ry="37.785"/><path d="M156.023 662.084c18.06 0 32.7-14.705 32.7-32.854 0-18.146-14.64-32.857-32.7-32.857-18.057 0-32.696 14.71-32.696 32.857 0 18.15 14.64 32.854 32.696 32.854zM157.724 661.657c15.51 0 28.086-12.642 28.086-28.23 0-15.59-12.575-28.228-28.086-28.228-15.517 0-28.092 12.637-28.092 28.228 0 15.588 12.575 28.23 28.092 28.23zM138.162 718.173c20.586 6.256 38.945 5.803 41.01-.993 2.068-6.806-12.94-17.387-33.528-23.637-20.585-6.25-38.94-5.804-41.005 1-2.072 6.803 12.942 17.384 33.522 23.63zM139.048 715.236c17.35 5.27 32.703 5.333 34.282.142 1.574-5.19-11.214-13.674-28.57-18.94-17.354-5.27-32.702-5.332-34.278-.142-1.58 5.19 11.213 13.672 28.566 18.94zM105.58 691.694c3.286-13.506 26.286-9.126 36.507-6.935 12.412 3.283 36.14 7.664 38.696 22.265.364 2.56 1.097 6.21-.364 7.303M42.422 609.56c2.925 3.284 4.02 6.937 7.302 10.582 2.92 3.29 2.555 5.847 4.746 9.127 2.922 4.016 7.665 2.194 11.32 4.748 3.285 1.825 2.915 6.206 6.567 8.03 4.747 2.19 8.035.363 12.78 3.65 4.377 3.286 8.03 6.207 13.503 7.668 9.858 3.29 16.433 9.487 25.188 14.963 14.608 9.13 32.13 12.052 47.46 20.81 7.67 4.38 14.605 8.398 23.005 10.95 7.298 2.194 14.6 2.924 21.538 5.846 4.745 1.823 13.14 7.3 16.425 7.3M207.064 632.193c7.67 4.38 12.055 16.062 16.43 23 2.557 3.647 5.477 8.396 8.763 11.312 1.097.735 6.573 4.747 5.48 2.92M2048 0M2048 1536M0 1536M0 0"/></g></svg>