<?xml version="1.0" encoding="iso-8859-1"?>
<!-- Generator: Adobe Illustrator 15.1.0, SVG Export Plug-In . SVG Version: 6.00 Build 0)  -->
<!DOCTYPE svg PUBLIC "-//W3C//DTD SVG 1.1//EN" "http://www.w3.org/Graphics/SVG/1.1/DTD/svg11.dtd">
<svg version="1.1" xmlns="http://www.w3.org/2000/svg" xmlns:xlink="http://www.w3.org/1999/xlink" x="0px" y="0px" width="2048px"
	 height="1536px" viewBox="0 0 2048 1536" style="enable-background:new 0 0 2048 1536;" xml:space="preserve">
<g id="e1a_x5F_kopf">
	<g>
		<path style="fill:none;stroke:#17192D;stroke-width:3;" d="M102.661,690.601c-0.197-0.397-0.652-0.379-1.737-1.066
			c-5.791-3.686-12.313-6.891-18.421-9.803c-10.661-5.072-18.688-13.266-24.663-23.372c-7.259-12.264-15.284-24.379-16.146-39.115
			c-0.791-13.458,1.692-26.018,4.281-38.698c2.683-13.122,7.764-24.865,17.25-34.692c9.486-9.823,22.292-20.861,35.788-24.368
			c14.788-3.838,30.959-1.916,45.999-0.444c11.723,1.145,22.219,7.363,33.227,11.573c5.939,2.271,12.153,5.338,17.502,8.849
			c6.79,4.456,13.374,4.615,20.985,5.689c2.519,0.357,5.217-2.284,7.88-1.15c5.237,2.229,10.366,9.126,13.857,12.62
			c7.304,7.302,11.318,15.698,13.509,25.558c3.285,15.332,4.747,31.028,8.029,45.999"/>
		<path style="fill:none;stroke:#17192D;stroke-width:3;" d="M246.495,607.371c-0.729,2.188,9.127,14.965,11.681,19.346
			c5.109,9.126,6.206,19.718,7.668,29.938"/>
		<path style="fill:none;stroke:#17192D;stroke-width:3;" d="M232.99,630.729c5.108,8.397,12.41,15.335,17.158,23.732"/>
		<path style="fill:none;stroke:#17192D;stroke-width:3;" d="M222.038,721.265c1.457,0.364,4.013,6.935,6.205,9.125"/>
		<path style="fill:none;stroke:#17192D;stroke-width:3;" d="M183.338,708.85c14.605-2.914,24.824,23.368,39.432,14.607"/>
		<path style="fill:none;stroke:#17192D;stroke-width:3;" d="M247.592,654.097c4.746,0.727,9.127,0.727,12.78,3.649"/>
		<path style="fill:none;stroke:#17192D;stroke-width:3;" d="M265.844,655.558c-11.32,6.935-18.982,24.089-24.096,35.771
			c-5.474,13.147-8.395,28.839-9.854,42.712c-1.825-0.362-2.924-1.822-3.652-3.284"/>
		<path style="fill:none;stroke:#17192D;stroke-width:3;" d="M265.844,657.018c4.381,0,16.429,2.552,15.697,10.223
			c-0.727,0-1.097,0-1.824,0"/>
		<path style="fill:none;stroke:#17192D;stroke-width:3;" d="M232.99,733.678c2.915,2.188,16.791,12.774,20.808,4.012"/>
		<path style="fill:none;stroke:#17192D;stroke-width:3;" d="M285.195,677.823c-8.765,8.03-16.43,23-20.448,33.948
			c-1.825,5.112-3.284,11.317-4.011,16.793c-0.364,5.113,2.919,8.76,8.759,5.843c7.667,9.492,7.667-3.651,10.223-10.586
			c3.285-9.493,7.666-18.983,11.314-28.478c-0.724,0-1.823,0-2.557,0c-0.726-2.551-2.189-2.919-4.009-1.089
			c-1.829-2.191-4.748-6.575-8.404-3.654"/>
		<path style="fill:none;stroke:#17192D;stroke-width:3;" d="M262.557,734.04c-2.414,4.42-3.979,5.089-9.107,3.276
			c-5.2-1.84-4.662-4.858-3.656-9.85c1.113-5.534,1.601-11.115,3.191-16.503c1.655-5.605,3.762-10.969,6.188-16.064
			c2.527-5.292,4.852-10.922,7.401-15.979c1.616-3.209,4.565-11.383,8.395-12.561c5.626-1.733,6.112,8.544,6.21,8.544
			c1.824,0,3.287,1.097,4.745,1.821"/>
		<path style="fill:none;stroke:#17192D;stroke-width:3;" d="M317.318,669.063c-16.065-6.938-47.456,81.041-45.629,94.186
			c0.365,2.553,1.092,4.379,2.552,6.573"/>
		<path style="fill:none;stroke:#17192D;stroke-width:3;" d="M323.161,667.967c0.361-1.462,5.84-0.727,8.027,0
			c2.919,0.732,4.745,2.193,7.67,3.65c2.918,1.46,2.918,1.46,6.57,2.192c10.586,1.822,20.809,7.663,30.301,12.044"/>
		<path style="fill:none;stroke:#17192D;stroke-width:3;" d="M274.604,773.837c2.189,11.681,11.681,10.586,20.444,13.506
			c10.222,3.647,22.27,9.489,32.491,13.87"/>
		<path style="fill:none;stroke:#17192D;stroke-width:3;" d="M321.335,666.875c-2.555,0-8.395,10.221-10.59,13.14
			c-5.475,8.029-9.854,15.7-14.238,24.096c-3.648,7.661-5.475,15.694-8.758,23.727c-4.016,9.487-8.399,18.982-10.956,29.203
			c-1.091,4.382-2.552,11.682-1.091,15.336"/>
		<path style="fill:none;stroke:#17192D;stroke-width:3;" d="M342.87,673.077c-6.937-1.094-23.726,31.398-26.647,37.604
			c-4.747,9.852-6.933,20.806-11.684,30.665c-4.013,9.49-8.032,18.617-9.854,28.839c-1.097,4.744-1.462,10.587,0,15.333"/>
		<path style="fill:none;stroke:#17192D;stroke-width:3;" d="M330.665,802.938c5.17,1.994,19.331-22.188,31.621-54.02
			c12.294-31.834,18.059-59.256,12.89-61.252c-5.175-1.997-19.328,22.186-31.622,54.019
			C331.262,773.516,325.492,800.942,330.665,802.938z"/>
		<ellipse style="fill:none;stroke:#17192D;stroke-width:3;" cx="155.595" cy="628.481" rx="37.603" ry="37.785"/>
		<path style="fill:none;stroke:#17192D;stroke-width:3;" d="M156.023,662.084c18.061,0,32.699-14.705,32.699-32.854
			c0-18.146-14.638-32.857-32.699-32.857c-18.057,0-32.696,14.711-32.696,32.857C123.327,647.379,137.966,662.084,156.023,662.084z"
			/>
		<path style="fill:none;stroke:#17192D;stroke-width:3;" d="M157.724,661.657c15.511,0,28.086-12.642,28.086-28.229
			c0-15.591-12.575-28.229-28.086-28.229c-15.517,0-28.092,12.638-28.092,28.229C129.631,649.016,142.207,661.657,157.724,661.657z"
			/>
		<path style="fill:none;stroke:#17192D;stroke-width:3;" d="M138.162,718.173c20.586,6.256,38.945,5.803,41.01-0.993
			c2.068-6.806-12.941-17.387-33.528-23.637c-20.585-6.249-38.94-5.804-41.005,1C102.568,701.346,117.582,711.927,138.162,718.173z"
			/>
		<path style="fill:none;stroke:#17192D;stroke-width:3;" d="M139.048,715.236c17.351,5.271,32.703,5.333,34.282,0.142
			c1.574-5.19-11.214-13.674-28.57-18.939c-17.354-5.27-32.702-5.333-34.278-0.143C108.902,701.487,121.695,709.968,139.048,715.236
			z"/>
		<path style="fill:none;stroke:#17192D;stroke-width:3;" d="M105.58,691.694c3.286-13.506,26.286-9.126,36.507-6.935
			c12.412,3.284,36.141,7.665,38.696,22.266c0.364,2.559,1.097,6.209-0.364,7.303"/>
		<path style="fill:none;stroke:#17192D;stroke-width:3;" d="M42.422,609.559c2.925,3.285,4.021,6.938,7.302,10.583
			c2.919,3.291,2.555,5.847,4.746,9.127c2.922,4.017,7.665,2.195,11.32,4.749c3.285,1.825,2.915,6.206,6.567,8.029
			c4.747,2.191,8.035,0.364,12.781,3.652c4.376,3.285,8.03,6.206,13.502,7.667c9.858,3.289,16.433,9.487,25.188,14.963
			c14.608,9.132,32.13,12.053,47.46,20.811c7.67,4.379,14.605,8.398,23.005,10.951c7.298,2.193,14.601,2.923,21.538,5.845
			c4.744,1.823,13.138,7.299,16.424,7.299"/>
		<path style="fill:none;stroke:#17192D;stroke-width:3;" d="M207.064,632.193c7.67,4.381,12.055,16.062,16.431,23
			c2.556,3.647,5.476,8.396,8.762,11.312c1.097,0.735,6.573,4.747,5.479,2.921"/>
	</g>
	<path style="fill:none;stroke:#17192D;stroke-width:3;" d="M2048,0"/>
	<path style="fill:none;stroke:#17192D;stroke-width:3;" d="M2048,1536"/>
	<path style="fill:none;stroke:#17192D;stroke-width:3;" d="M0,1536"/>
	<path style="fill:none;stroke:#17192D;stroke-width:3;" d="M0,0"/>
</g>
<g id="Layer_1">
</g>
</svg>
