<?xml version="1.0" encoding="iso-8859-1"?>
<!-- Generator: Adobe Illustrator 15.1.0, SVG Export Plug-In . SVG Version: 6.00 Build 0)  -->
<!DOCTYPE svg PUBLIC "-//W3C//DTD SVG 1.1//EN" "http://www.w3.org/Graphics/SVG/1.1/DTD/svg11.dtd">
<svg version="1.1" xmlns="http://www.w3.org/2000/svg" xmlns:xlink="http://www.w3.org/1999/xlink" x="0px" y="0px" width="2048px"
	 height="1536px" viewBox="0 0 2048 1536" style="enable-background:new 0 0 2048 1536;" xml:space="preserve">
<g id="e1a_x5F_hand_x5F_l">
	<g>
		<path style="fill:none;stroke:#17192D;stroke-width:3;" d="M1024.059,961.846c5.904-0.001,11.594,0.649,17.481-0.438
			c4.796-1.072,9.668-3.704,14.69-4.342c4.901-0.471,9.521,1.287,14.512,1.428c5.172,0.271,10.469,0.361,15.369-0.104
			c3.527-0.332,7.863-0.969,10.564-3.336"/>
		<path style="fill:none;stroke:#17192D;stroke-width:3;" d="M1069.667,941.89"/>
		<path style="fill:none;stroke:#17192D;stroke-width:3;" d="M1025.942,965.898c3.19-1.438,6.475-2.269,9.364-3.658"/>
		<path style="fill:none;stroke:#17192D;stroke-width:3;" d="M1034.926,968.672c3.249-0.048,7.619-3.849,9.136-7.041"/>
		<path style="fill:none;stroke:#17192D;stroke-width:3;" d="M1055.158,980.688c1.62-7.401-1.652-14.338-6.504-19.477"/>
		<path style="fill:none;stroke:#17192D;stroke-width:3;" d="M1066.398,981.08c2.857-6.503-0.5-12.966-5.127-17.668"/>
		<path style="fill:none;stroke:#17192D;stroke-width:3;" d="M1069.762,967.969c-0.095-0.605,0.488-4.738-0.448-6.762"/>
		<path style="fill:none;stroke:#17192D;stroke-width:3;" d="M1068.07,971.037c5.219-2.383,12.267-1.018,17.766-1.571"/>
		<path style="fill:none;stroke:#17192D;stroke-width:3;" d="M1090.25,976.686c-3.71-6.184-2.185-11.597-0.373-17.947"/>
		<path style="fill:none;stroke:#17192D;stroke-width:3;" d="M1074.971,939.104c0.287-5.376,3.408-14.922,8.301-13.693"/>
		<path style="fill:none;stroke:#17192D;stroke-width:3;" d="M1070.157,938.387c1.416-2.785,3.382-4.752,5.77-4.15"/>
		<path style="fill:none;stroke:#17192D;stroke-width:3;" d="M1094.637,919.371c0.659-4.312-4.384-2.295-6.065-0.979
			c-1.984,1.555-4.033,3.528-4.903,6.09c-1.812,5.346-2.613,10.225-0.126,15.656"/>
		<path style="fill:none;stroke:#17192D;stroke-width:3;" d="M984.395,979.151c10.259,3.97,20.958,5.847,31.301,9.335
			c9.682,3.283,19.526,5.609,29.658,6.801c10.913,1.225,20.878-2.527,31.515-4.988c5.742-1.328,11.741-1.596,17.21-3.995
			c2.485-1.087,6.615-2.604,7.759-5.181c0.66-1.486,1.593-2.934,1.758-4.453"/>
		<path style="fill:none;stroke:#17192D;stroke-width:3;" d="M1085.12,962.666c-1.103-1.067-1.468-2.406-1.536-3.796"/>
		<path style="fill:none;stroke:#17192D;stroke-width:3;" d="M1070.821,961.668c0.942-0.926,1.934-1.547,3.096-2.043"/>
		<path style="fill:none;stroke:#17192D;stroke-width:3;" d="M1089.258,941.413c-2.158-6.81-2.101-15.418,2.46-20.272
			c7.87-8.139,9.05,11.178,11.038,16.104c0.064,0.484,0.123,0.965,0.362,1.33"/>
		<path style="fill:none;stroke:#17192D;stroke-width:3;" d="M1083.134,941.102c3.286-0.419,6.853,0.359,10.011,1.246
			c3.116,0.945,6.868,1.35,7.046,5.201c0.073,1.951-0.827,6.262-2.761,7.333c-1.107,0.604-2.94,0.181-4.201,0.091
			c-1.7-0.164-3.458-0.361-5.085-0.963c-3.257-1.217-1.937-6.209-1.364-8.932c0.448-1.982,1.87-1.781,3.652-1.727
			c1.671-0.025,3.281,0.15,4.942,0.365c0.871,0.052,1.738,0.105,2.626,0.257"/>
		<path style="fill:none;stroke:#17192D;stroke-width:3;" d="M1089.165,943.839"/>
		<path style="fill:none;stroke:#17192D;stroke-width:3;" d="M1087.845,953.623"/>
		<path style="fill:none;stroke:#17192D;stroke-width:3;" d="M1096.562,955.162c1.736-2.957,4.58-8.24,0.931-11.062"/>
		<path style="fill:none;stroke:#17192D;stroke-width:3;" d="M978.979,929.974c6.092-1.739,19.848-6.542,26.232-6.469
			c6.557,0.21,12.298,1.162,18.744,2.627c9.664,2.199,18.713,6.356,27.964,9.864c6.364,2.32,13.196,1.334,19.839,2.682
			c2.633,0.531,5.211,0.488,7.883,0.888c1.768,0.267,5.05,0.56,6.289,1.298"/>
		<path style="fill:none;stroke:#17192D;stroke-width:3;" d="M1024.018,961.846c5.9-0.001,11.596,0.649,17.482-0.435
			c4.799-1.075,9.664-3.707,14.69-4.345c4.896-0.465,9.524,1.287,14.517,1.428c5.165,0.268,10.46,0.361,15.361-0.104
			c3.53-0.332,7.867-0.965,10.566-3.336"/>
		<path style="fill:none;stroke:#17192D;stroke-width:3;" d="M1069.628,941.893"/>
		<path style="fill:none;stroke:#17192D;stroke-width:3;" d="M1083.094,941.102c3.283-0.419,6.852,0.359,10.008,1.24
			c3.118,0.951,6.873,1.355,7.046,5.207c0.07,1.951-0.82,6.262-2.76,7.336c-1.099,0.602-2.938,0.178-4.205,0.088
			c-1.698-0.164-3.453-0.361-5.077-0.963c-3.255-1.217-1.941-6.209-1.368-8.932c0.451-1.982,1.874-1.781,3.652-1.725
			c1.676-0.027,3.279,0.148,4.944,0.363c0.872,0.055,1.739,0.105,2.62,0.257"/>
		<path style="fill:none;stroke:#17192D;stroke-width:3;" d="M1096.524,955.162c1.733-2.957,4.583-8.24,0.93-11.062"/>
		<path style="fill:none;stroke:#17192D;stroke-width:3;" d="M1103.104,938.723c0.579,1.734,1.596,3.888,1.914,5.711
			c0.432,2.352-0.135,5.148-0.063,7.506c0.081,6.212,0.308,11.16,0.445,17.352c0.055,3.156-0.833,6.066-1.694,8.618"/>
	</g>
	<path style="fill:none;stroke:#17192D;stroke-width:3;" d="M2048,0"/>
	<path style="fill:none;stroke:#17192D;stroke-width:3;" d="M2048,1536"/>
	<path style="fill:none;stroke:#17192D;stroke-width:3;" d="M0,1536"/>
	<path style="fill:none;stroke:#17192D;stroke-width:3;" d="M0,0"/>
</g>
<g id="Layer_1">
</g>
</svg>
