<svg xmlns="http://www.w3.org/2000/svg" width="2048" height="1536" viewBox="0 0 2048 1536"><g fill="none" stroke="#17192D" stroke-width="3"><path d="M342.53 797.707c12.8 52.258 39 46.315 52.803 46.315 24.546 0 28.055 1.755 47.343 12.273 21.04 10.52 35.064 15.78 54.35 28.053 17.536 14.026 36.82 28.056 56.11 38.573 38.572 22.797 78.9 52.603 120.98 66.632 57.862 19.285 157.825-.018 217.438 3.492 10.64.624 22.064 1.25 33.832 1.51 10.625.234 21.527.162 32.392-.48 26.797 0 24.95-79.934 5.665-79.934-40.328-1.75-80.022 0-119.227 0-35.945 0-99.404-14.95-116.714-22.247-25.525-10.76-88.887-37.806-120-68.92-14.984-14.98-28.043-24.553-43.82-36.825 22.788-22.792 99.936-10.5 133.25-14.007 50.846-7.013 101.695-10.52 154.293-10.52 70.137 0 127.985 5.26 198.115 5.26 35.065 0 1.717-22.81 33.278-10.536 40.325 14.027 140.298 35.064 180.625 43.832 38.57 8.765 49.102 8.765 84.137 19.27 17.294 5.185 28.054 15.774 47.342 15.774 19.286 0 35.068-8.76 52.6-15.773 87.668-36.82 231.47-42.08 319.137-73.642-5.264-28.053-8.757-15.766-21.03-38.56-1.752-1.75-33.313-92.925-56.103-63.115-17.535 24.547-76.33 21.02-106.953 21.02-40.324 0-134.317 13.28-171.89 5.266-22.36-4.768-36.8-7-59.598-17.52-28.05-10.52-29.795-12.265-57.845-21.035-42.083-15.776-87.427-32.948-129.75-47.346-43.835-14.915-47.308-21.04-85.882-40.327 22.796-38.57 68.383-64.87 110.46-78.897 29.807-10.52 61.368-17.535 89.42-33.315 24.546-10.52 36.82-17.513 57.86-28.032 19.286-8.768 61.366-26.32 84.164-31.58 21.037-3.508 40.323-7.015 61.364-14.027 36.82-14.027 75.394-24.547 113.968-40.327 49.09-19.287 140.305-33.314 191.148-50.85M229.375 549.99c56.103-32.724 61.955 4.72 50.264-56.063-11.69-44.415-7.014-88.835 7.01-135.59 16.367-70.137 51.414-26.888 93.495-71.31 37.404-37.402 72.484-89.998 121.578-129.745 58.444-44.414 170.662-42.078 243.138-46.748 39.74-2.344 77.148-2.344 116.888 7.012 18.705 4.673 24.763 74.005-1.535 74.005-10.41 0-20.088 1.975-28.854.802-44.42-7.013-59.68-.006-112.215-.006-41.008 0-65.46 3.475-105.2 19.843-23.378 11.684-91.176 71.335-86.5 106.404 30.393 9.354 60.785-11.688 88.835-18.7 35.065-7.01 72.474-9.356 107.545-14.027 83.117-8.904 176.147-26.285 259.368-9.23 25.345 5.19 18.483 12.14 32.915 30.204 5.58 6.983 2.362 17.864 10.67 19.557 0 0 69.32-16.297 92.247-24.165 38.356-13.164 77.813-29.61 119.104-32.754 47.83-3.635 78.805-8.554 117.01-18.57 33.564-8.8 64.075-20.632 98.01-32.856 42.13-15.175 82.866-12.574 126.19-20.968 55.814-10.813 112.152-11.516 167.132-25.25 18.826-4.7 40.903 72.42 38.454 94.867M2048 0M2048 1536M0 1536M0 0"/></g></svg>