<?xml version="1.0" encoding="iso-8859-1"?>
<!-- Generator: Adobe Illustrator 15.1.0, SVG Export Plug-In . SVG Version: 6.00 Build 0)  -->
<!DOCTYPE svg PUBLIC "-//W3C//DTD SVG 1.1//EN" "http://www.w3.org/Graphics/SVG/1.1/DTD/svg11.dtd">
<svg version="1.1" xmlns="http://www.w3.org/2000/svg" xmlns:xlink="http://www.w3.org/1999/xlink" x="0px" y="0px" width="2048px"
	 height="1536px" viewBox="0 0 2048 1536" style="enable-background:new 0 0 2048 1536;" xml:space="preserve">
<g id="e1a_x5F_hand_x5F_r">
	<g>
		<path style="fill:none;stroke:#17192D;stroke-width:3;" d="M870.769,123.483c8.005,0.043,15.144-0.486,22.786-2.046
			c6.5-1.326,12.877-2.759,19.386-3.713c5.49-0.812,11.079-1.728,16.668-1.722c5.96,0.005,10.31,1.59,15.72,2.647
			c4.689,0.914,8.672,2.338,13.193,3.473c4.562,1.148,8.573,1.69,12.845,3.812c6.289,3.124,17.856,10.059,19.463,17.277"/>
		<path style="fill:none;stroke:#17192D;stroke-width:3;" d="M940.832,127.565c2.855,0.945,5.701,0.988,8.523,2.299
			c2.249,1.05,4.294,2.367,6.815,3.143c4.756,1.468,10.216,3.36,15.211,4.425c10.967,2.341,20.811,5.081,29.243,13.357
			c1.742,1.708,3.16,3.445,3.773,5.693c-0.449,0.455-0.747,0.296-1.327,0.334"/>
		<path style="fill:none;stroke:#17192D;stroke-width:3;" d="M951.035,141.174c10.522,7.451,25.903,7.799,38.101,11.214
			c7.477,2.09,22.792,9.139,18.7,18.714"/>
		<path style="fill:none;stroke:#17192D;stroke-width:3;" d="M876.887,184.025c7.232,2.646,14.887,4.696,22.111,7.566
			c5.013,1.996,10.031,5.891,15.306,6.645c11.75,1.688,24.146-0.534,35.634,1.851c2.811,0.587,13.436,2.112,15.482-0.652
			c3.566-4.817-6.724-9.6-9.624-10.651c-2.4-0.875-4.833-0.987-7.15-1.688c-2.313-0.703-4.131-2.19-6.451-3.161
			c-4.837-2.027-10.469-0.5-14.245-4.243c5.188-2.116,9.463-2.518,15.264-2.804c5.798-0.287,10.385-2.752,16.327-2.389
			c6.008,0.364,11.437,3.244,17.345,4.105c5.084,0.736,10.166,2.4,15.302,2.704c4.001,0.234,12.219,2.389,15.392-0.596
			c4.375-4.121-1.1-9.794-5.27-10.892c-4.71-1.242-9.047-4.131-13.862-5.257c-5.674-1.315-11.171-1.004-16.588-3.408
			c-2.611-1.16-4.799-2.888-7.561-3.676c-3.904-1.115-8.724-0.663-12.923-0.663"/>
		<path style="fill:none;stroke:#17192D;stroke-width:3;" d="M949.336,140.151c-3.118-0.853-5.237-2.027-8.849-2.041"/>
		<path style="fill:none;stroke:#17192D;stroke-width:3;" d="M944.57,154.779c-1.585,0.029-2.954,0.434-4.42,0.679"/>
		<path style="fill:none;stroke:#17192D;stroke-width:3;" d="M934.369,126.206c-1.019,0.969-2.341,1.089-3.743,1.359"/>
	</g>
	<path style="fill:none;stroke:#17192D;stroke-width:3;" d="M2048,0"/>
	<path style="fill:none;stroke:#17192D;stroke-width:3;" d="M2048,1536"/>
	<path style="fill:none;stroke:#17192D;stroke-width:3;" d="M0,1536"/>
	<path style="fill:none;stroke:#17192D;stroke-width:3;" d="M0,0"/>
</g>
<g id="Layer_1">
</g>
</svg>
