<svg xmlns="http://www.w3.org/2000/svg" width="2048" height="1536" viewBox="0 0 2048 1536"><g fill="none" stroke="#17192D" stroke-width="3"><path d="M1807.34 163.04c16.042-4.143 29.83-16.613 46.43-18.104 7.032-.627 15.668 5.51 21.58 9.406 6.557 4.317 16.26 10.078 21.055 15.92-4.38 1.343-8.17 4.25-11.74 6.96-7.656-3.744-13.867-12.39-20.632-17.667-4.105-3.2-14.317-11.39-18.306-11.404M1885.25 179.164c3.513 1.46 6.304 4.313 9.74 5.773 3.277 1.39 6.708 2.15 10.25 3.153 7.276 2.062 15.145 2.802 22.6 4.417 18.064 3.913 36.108 14.416 50.037 26.35 14.01 12.012 24.685 28.575 32.104 45.087 3.526 7.832 6.566 17.622 7.107 26.007.67 10.497-6.747 13.742-16.242 13.644-7.794-.085-15.47-2.693-22.672-5.518-8.6-3.37-15.96-9.393-24.713-12.034-14.36-4.33-27.367-15.012-41.87-16.985-15.997-2.175-31.137-4.13-46.774-9.8-7.15-2.587-11.28-3.157-18.985-2.825-6.945.304-13.71-.987-19.697-4.366 6.013-5.854 12.7-9.628 12.402-19.287-.24-7.795-2.847-15.976-7.51-21.803-9.94-12.403-22.23-23.557-33.872-34.406-1.57-1.463-2.837-3.146-4.363-4.604-.603 1.34 15.515-11.054 18.895-10.257M1895.406 169.958c.355 4.753-1.328 8.55-.96 12.932M1864.425 228.765c.345-.245.685-.577.97-.89-2.167 8.282-5.418 17.673-8.946 25.255M1854.78 225.566c.228 3.737 3.86 11.326 5.18 15.785 1.51 5.077 2.773 10.4 5.157 15.05M1877.1 232.715c.99 5.43-2.887 10.495-4.23 15.55-.86 3.23-1.23 5.86-2.766 8.733M1868.745 233.37c.183 5.24 9.733 12.51 10.887 17.614.728 3.225-6.227 6.267-4.34 9.07M1888.298 236.78c-2.17 4.77-3.788 10.112-5.742 15.005-1.145 2.874-3.548 6.95-3.705 9.474M1879.338 236c.596 5.11 5.197 22.13 9.792 23.96M1795.035 176.363c-.656-5.932-11.523 6.028-13.308 6.97-5.042 2.645-13.423 1.7-16.73 7.257M1783.693 245.99c-1.706.532 3.502-.718 4.384-.863 2.414-.405 4.625-.352 6.87-1.01 5.16-1.517 6.912-3.493 12.17-2.426 4.057.822 7.69 1.76 11.77 2.387 3.734.57 9.167 1 12.373 3.118M2048 0M2048 1536M0 1536M0 0"/></g></svg>