<?xml version="1.0" encoding="iso-8859-1"?>
<!-- Generator: Adobe Illustrator 15.1.0, SVG Export Plug-In . SVG Version: 6.00 Build 0)  -->
<!DOCTYPE svg PUBLIC "-//W3C//DTD SVG 1.1//EN" "http://www.w3.org/Graphics/SVG/1.1/DTD/svg11.dtd">
<svg version="1.1" xmlns="http://www.w3.org/2000/svg" xmlns:xlink="http://www.w3.org/1999/xlink" x="0px" y="0px" width="2048px"
	 height="1536px" viewBox="0 0 2048 1536" style="enable-background:new 0 0 2048 1536;" xml:space="preserve">
<g id="e1a_x5F_corpus_x5F_outer">
	<g>
		<path style="fill:none;stroke:#17192D;stroke-width:3;" d="M342.53,797.707c12.8,52.258,38.999,46.315,52.803,46.315
			c24.546,0,28.055,1.755,47.343,12.273c21.04,10.519,35.064,15.779,54.351,28.053c17.535,14.026,36.82,28.056,56.108,38.573
			c38.573,22.796,78.901,52.602,120.982,66.631c57.861,19.285,157.824-0.018,217.437,3.492c10.64,0.624,22.064,1.25,33.832,1.51
			c10.625,0.234,21.527,0.162,32.392-0.479c26.797,0,24.949-79.935,5.665-79.935c-40.328-1.751-80.022,0-119.227,0
			c-35.945,0-99.404-14.95-116.714-22.247c-25.525-10.759-88.887-37.806-120-68.919c-14.984-14.981-28.043-24.554-43.82-36.826
			c22.788-22.792,99.936-10.499,133.251-14.007c50.845-7.014,101.694-10.522,154.292-10.522c70.137,0,127.985,5.262,198.115,5.262
			c35.065,0,1.717-22.812,33.278-10.537c40.325,14.027,140.298,35.064,180.625,43.832c38.569,8.765,49.102,8.765,84.137,19.271
			c17.294,5.184,28.054,15.773,47.342,15.773c19.286,0,35.068-8.76,52.6-15.773c87.668-36.82,231.47-42.08,319.137-73.642
			c-5.263-28.053-8.756-15.766-21.03-38.559c-1.751-1.752-33.312-92.926-56.102-63.116c-17.535,24.547-76.331,21.019-106.953,21.019
			c-40.324,0-134.317,13.28-171.89,5.267c-22.36-4.768-36.8-7.001-59.598-17.521c-28.051-10.519-29.795-12.264-57.845-21.034
			c-42.084-15.777-87.428-32.949-129.752-47.347c-43.834-14.915-47.307-21.039-85.881-40.327
			c22.796-38.571,68.383-64.871,110.459-78.897c29.808-10.521,61.369-17.535,89.42-33.315c24.547-10.52,36.821-17.513,57.861-28.032
			c19.286-8.768,61.366-26.321,84.164-31.579c21.037-3.509,40.323-7.016,61.364-14.028c36.819-14.027,75.394-24.547,113.968-40.327
			c49.09-19.286,140.305-33.313,191.148-50.85"/>
		<path style="fill:none;stroke:#17192D;stroke-width:3;" d="M229.375,549.99c56.103-32.724,61.955,4.72,50.264-56.063
			c-11.688-44.415-7.013-88.835,7.012-135.591c16.366-70.136,51.413-26.887,93.494-71.308
			c37.404-37.403,72.484-89.999,121.578-129.746c58.444-44.414,170.662-42.078,243.138-46.748
			c39.739-2.344,77.147-2.344,116.887,7.012c18.705,4.673,24.763,74.005-1.535,74.005c-10.411,0-20.088,1.974-28.854,0.801
			c-44.418-7.013-59.68-0.006-112.214-0.006c-41.008,0-65.459,3.475-105.2,19.843c-23.378,11.685-91.176,71.336-86.5,106.405
			c30.393,9.354,60.785-11.688,88.835-18.7c35.065-7.01,72.474-9.356,107.545-14.027c83.117-8.904,176.147-26.285,259.368-9.231
			c25.345,5.19,18.483,12.141,32.915,30.205c5.581,6.982,2.362,17.863,10.671,19.556c0,0,69.318-16.297,92.246-24.165
			c38.356-13.164,77.813-29.611,119.104-32.754c47.831-3.635,78.806-8.554,117.012-18.57c33.563-8.8,64.074-20.632,98.01-32.856
			c42.129-15.175,82.865-12.574,126.188-20.968c55.815-10.813,112.153-11.516,167.133-25.249
			c18.826-4.7,40.903,72.419,38.454,94.866"/>
	</g>
	<path style="fill:none;stroke:#17192D;stroke-width:3;" d="M2048,0"/>
	<path style="fill:none;stroke:#17192D;stroke-width:3;" d="M2048,1536"/>
	<path style="fill:none;stroke:#17192D;stroke-width:3;" d="M0,1536"/>
	<path style="fill:none;stroke:#17192D;stroke-width:3;" d="M0,0"/>
</g>
<g id="Layer_1">
</g>
</svg>
