<svg xmlns="http://www.w3.org/2000/svg" width="2048" height="1536" viewBox="0 0 2048 1536"><g fill="none" stroke-width="3"><g stroke="#FF0050"><path d="M531.738 515.46c15.863 14.1.588 45.236-1.174 62.276 10.574 3.524 25.264 0 36.424.587 12.926.587 23.503 3.525 35.25 8.225 24.676 10.577 48.763 24.676 75.203 30.552 13.513 3.524 26.44 5.287 40.54 5.287M557 754.573c13.515.588 25.264-6.462 37.015-13.512 22.325-13.512 45.825-27.025 68.15-41.712 25.264-15.862 45.24-40.537 69.326-58.748 22.915-17.626 41.128-35.25 47.003-64.04 4.114-25.262-31.138-44.65-51.7-51.113-14.102-4.7-15.267-5.874-29.367-9.987-12.926-3.524-40.547-2.35-54.65-2.937-19.39-.588-38.187 2.937-57.575 5.874-6.46.59-52.874.59-51.112-4.7M621.04 597.125c-22.325 20.562-47.588 34.66-76.376 44.062-25.85 8.812-51.7 17.037-75.79 30.548-12.924 7.64-27.026 15.276-38.188 25.852"/></g><path d="M2048 0M2048 1536M0 1536M0 0" stroke="#17192D"/></g></svg>