<?xml version="1.0" encoding="iso-8859-1"?>
<!-- Generator: Adobe Illustrator 13.0.0, SVG Export Plug-In . SVG Version: 6.00 Build 14948)  -->
<!DOCTYPE svg PUBLIC "-//W3C//DTD SVG 1.1//EN" "http://www.w3.org/Graphics/SVG/1.1/DTD/svg11.dtd">
<svg version="1.1" id="Ebene_1" xmlns="http://www.w3.org/2000/svg" xmlns:xlink="http://www.w3.org/1999/xlink" x="0px" y="0px"
	 width="300px" height="200px" viewBox="0 0 300 200" style="enable-background:new 0 0 300 200;" xml:space="preserve">
<g>
	<path style="fill:none;stroke:#FF0050;stroke-width:3;" d="M13.38,98.469c0,16.942,1.375,40.296,10.988,54.953
		c13.739,21.98,35.718,25.644,58.616,32.969c21.98,6.865,43.959,1.831,66.396,2.289c20.608,0,41.675-7.324,60.904-13.276
		c10.075-2.75,21.522-3.668,31.138-9.162c10.076-5.953,20.605-17.398,27.936-26.558c15.567-18.317,20.604-40.754,13.278-63.653
		c-7.325-22.896-37.092-34.802-56.784-41.668c-21.062-6.87-42.127-22.439-64.563-22.439c-22.233,0-43.277-5.012-65.488-2.749
		c-25.183,1.831-44.413,7.786-63.19,26.562c-8.243,8.242-12.241,16.697-15.448,28.146c-1.372,5.494-3.565,27.236-3.385,34.071"/>
	<line style="fill:none;stroke:#FF0050;stroke-width:3;" x1="96.268" y1="47.182" x2="135.645" y2="47.182"/>
	<line style="fill:none;stroke:#FF0050;stroke-width:3;" x1="142.514" y1="81.523" x2="143.887" y2="55.885"/>
	<path style="fill:none;stroke:#FF0050;stroke-width:3;" d="M159.458,49.473c1.375-0.459,51.286,3.204,51.286,3.204"/>
	<line style="fill:none;stroke:#FF0050;stroke-width:3;" x1="147.03" y1="37.107" x2="146.576" y2="22.91"/>
	<line style="fill:none;stroke:#FF0050;stroke-width:3;" x1="144.864" y1="94.284" x2="142.577" y2="120.388"/>
	<path style="fill:none;stroke:#FF0050;stroke-width:3;" d="M141.598,144.719c0,0-3.661,18.777-2.746,17.4"/>
	<path style="fill:none;stroke:#FF0050;stroke-width:3;" d="M126.945,130.067c-1.832-0.46-34.802-2.29-34.802-2.29"/>
	<line style="fill:none;stroke:#FF0050;stroke-width:3;" x1="159.002" y1="130.067" x2="209.372" y2="130.523"/>
	<path style="fill:none;stroke:#FF0050;stroke-width:3;" d="M243.256,47.577c4.578,12.823,4.578,26.161,1.377,39.446
		c5.035,4.12,0.458,8.237,0,12.359c-0.461,5.499,2.745,11.452,2.289,17.4c-0.917,9.161-3.206,22.898-9.158,29.765
		c5.037-6.865,6.869-16.94,10.531-24.725c5.036-8.703,11.905-16.029,12.823-26.104c0.914-10.073-7.849-17.399-10.595-26.557
		c-2.748-7.785-3.387-16.051-8.642-25.186c0.919,3.202,4.187,8.762,4.187,11.965"/>
	<path style="fill:none;stroke:#FF0050;stroke-width:3;" d="M243.256,49.473c13.282,21.062,10.075,52.66,3.666,75.097"/>
	<path style="fill:none;stroke:#FF0050;stroke-width:3;" d="M164.161,80.508c0.44-0.439,0.44-1.766,2.202-1.325
		c0,0.444,0,0.886,0,1.325c-0.44,0.443-1.321,0-1.762,0.443"/>
	<path style="fill:none;stroke:#FF0050;stroke-width:3;" d="M164.161,98.592c-0.886,0,0-1.324,1.323-1.324c0,0.882,0,1.324,0,2.207
		c-1.323,0.441-2.209-0.44-1.323-0.44"/>
	<path style="fill:none;stroke:#FF0050;stroke-width:3;" d="M180.037,81.391c0.881,0,2.646,0,3.971,0
		c-0.441,0.881-0.881,0.881-1.324,2.203c0-0.44-0.44-1.322-0.882-1.322"/>
	<path style="fill:none;stroke:#FF0050;stroke-width:3;" d="M180.037,99.033c0.441-1.324,0.441-2.205,2.206-2.648
		c0.44,2.207-0.884,3.09-0.441,2.207"/>
	<path style="fill:none;stroke:#FF0050;stroke-width:3;" d="M197.24,83.152c1.322-0.439,1.322-0.881,2.644-0.881
		c-0.881,2.646,0,1.321-1.761,3.086c-0.441-0.438-0.441-1.765,0-1.324"/>
	<path style="fill:none;stroke:#FF0050;stroke-width:3;" d="M196.8,100.797c0.44-1.322,0-2.205,1.763-2.647l0.439,1.325
		c-0.439,0.441-2.646,0.441-1.764-0.44"/>
</g>
</svg>
