<svg xmlns="http://www.w3.org/2000/svg" width="2048" height="1536" viewBox="0 0 2048 1536"><g fill="none" stroke-width="3"><path d="M1758.462 823.902c-11.75-11.75-34.076-16.45-50.524-22.326-23.502-9.4-44.646-16.45-71.673-19.975-27.024-4.7-50.53-2.35-81.08-9.4-27.213-6.28-59.937-24.676-82.262-41.127-18.8-14.1-36.416-34.076-62.267-25.85-24.675 8.225-51.7 27.02-74.026 42.295-29.375 19.977-54.05 45.828-79.9 69.328-23.502 21.15-39.938 29.376-61.088 51.7-16.45 16.452-51.714 65.808-48.19 88.132 3.526 24.677 21.142 41.123 37.592 59.923 38.776 43.477 111.637 65.812 164.512 84.61 52.877 18.802 106.928 28.196 162.153 11.746 27.026-8.225 49.35-10.57 77.55-10.57 28.2 0 39.943 4.7 68.143 9.4 34.076 5.875 96.36 7.046 128.087-8.23" stroke="#FF0050"/><path d="M2048 0M2048 1536M0 1536M0 0" stroke="#17192D"/></g></svg>