<?xml version="1.0" encoding="iso-8859-1"?>
<!-- Generator: Adobe Illustrator 13.0.0, SVG Export Plug-In . SVG Version: 6.00 Build 14948)  -->
<!DOCTYPE svg PUBLIC "-//W3C//DTD SVG 1.1//EN" "http://www.w3.org/Graphics/SVG/1.1/DTD/svg11.dtd">
<svg version="1.1" id="Ebene_1" xmlns="http://www.w3.org/2000/svg" xmlns:xlink="http://www.w3.org/1999/xlink" x="0px" y="0px"
	 width="200px" height="150px" viewBox="0 0 200 150" style="enable-background:new 0 0 200 150;" xml:space="preserve">
<g>
	<path style="fill:none;stroke:#FF0050;stroke-width:3;" d="M188.521,83.798c-2.883,3.728-8.719,5.405-13.082,7.152"/>
	<path style="fill:none;stroke:#FF0050;stroke-width:3;" d="M109.881,11.347c16.652-1.202,32.776-4.94,49.021-1.803
		c14.507,2.946,27.873,1.549,37.229,13.528c1.209,1.634,2.376,3.634,3.16,5.622"/>
	<path style="fill:none;stroke:#FF0050;stroke-width:3;" d="M171.854,93.577c-8.365,8.116-19.959,13.319-30.064,19.257
		c-11.342,6.652-14.747,11.867-23.961,20.702c-3.641,3.423-7.449,6.666-11.059,9.731c-4.742-3.271-5.926-11.248-3.277-16.483
		c2.361-4.337,1.752-6.132,5.246-10.101c4.557-4.869,8.318-7.74,13.017-12.074c4.693-4.321,6.277-10.652,9.876-15.707
		c5.541-7.039,12.569-11.354,19.85-16.216"/>
	<path style="fill:none;stroke:#FF0050;stroke-width:3;" d="M106.834,11.418c-3.861-1.002-7.081,0.986-10.567,2.16
		c-3.637,1.221-7.163,0.007-10.88-0.037c-3.635-0.036-7.099,1.228-10.648,1.273c-4.067,0.044-7.286-0.76-11.314,0.848
		c-3.793,1.501-6.772,1.056-10.839,1.479c-3.734,0.378-7.932,1.172-11.515,2.151c-4.963,1.359-20.636,5.334-12.514,11.922
		c5.209,4.222,16.44,2.68,23.175,2.254c4.081-0.254,7.944,0.643,12.063,0.25c3.771-0.356,7.329-1.508,10.702-0.499
		c6.949,2.065,12.411,0.688,19.582-0.455"/>
	<path style="fill:none;stroke:#FF0050;stroke-width:3;" d="M99.598,31.681c-4.274-1.104-7.851,1.098-11.709,2.394
		c-4.031,1.354-7.939,0.009-12.059-0.034c-4.026-0.048-7.868,1.359-11.801,1.404c-4.514,0.052-8.08-0.836-12.549,0.937
		c-4.196,1.671-7.503,1.177-12.013,1.644c-4.134,0.422-8.79,1.301-12.764,2.388c-5.496,1.505-22.87,5.913-13.867,13.215
		c5.775,4.682,18.222,2.971,25.69,2.495c4.524-0.281,8.803,0.711,13.371,0.278c4.18-0.394,8.123-1.669,11.861-0.556
		c7.702,2.298,13.755,0.769,21.701-0.504"/>
	<path style="fill:none;stroke:#FF0050;stroke-width:3;" d="M126.855,91.958c-9.332-4.301-20.396,3.243-30.069,2.563
		c-4.231-0.305-7.569-2.189-11.833-1.91c-4.619,0.312-9.074,1.916-13.632,1.63c-4.059-0.251-7.597-2.15-11.877-1.856
		c-5.083,0.355-10.121,1.617-15.167,0.68c-2.326-0.432-3.677-0.961-6.164-0.666c-2.708,0.315-5.214,0.679-7.933,0.604
		c-4.687-0.123-9.226-1.313-13.33-3.028c-5.247-2.181-7.477-5.994-3.561-11.104"/>
	<path style="fill:none;stroke:#FF0050;stroke-width:3;" d="M81.903,73.66c-5.306-0.205-10.911,2.617-16.461,2.375
		c-4.727-0.2-8.252-1.511-13.339-1.062c-6.216,0.558-11.641-1.929-17.516-2.113c-3.923-0.126-7.906,1.223-11.934,0.966
		c-5.104-0.335-10.106-0.809-14.738-2.305c-7.562-2.445-2.759-6.329,1.208-10.175"/>
	<path style="fill:none;stroke:#FF0050;stroke-width:3;" d="M66.041,48.296c-0.425,1.359-1.292,2.553-1.547,3.978"/>
	<path style="fill:none;stroke:#FF0050;stroke-width:3;" d="M46.552,48.587c-0.757,1.121-1.302,2.408-1.9,3.611"/>
	<path style="fill:none;stroke:#FF0050;stroke-width:3;" d="M75.942,26.256c0.426,1.13-0.605,2.567-0.949,3.791"/>
	<path style="fill:none;stroke:#FF0050;stroke-width:3;" d="M56.735,25.636c-0.218,1.361-0.831,2.745-1.553,3.98"/>
	<path style="fill:none;stroke:#FF0050;stroke-width:3;" d="M58.018,69.083c0.24,1.084-0.414,1.997-1.062,2.891"/>
	<path style="fill:none;stroke:#FF0050;stroke-width:3;" d="M35.479,66.646c-0.512,1.008-0.816,2.555-1.122,3.613"/>
	<path style="fill:none;stroke:#FF0050;stroke-width:3;" d="M35.622,87.458c0.309,0.17,0.541-0.037,0.688,0.356
		c-0.685,0.72-0.796,1.316-0.927,2.182"/>
	<path style="fill:none;stroke:#FF0050;stroke-width:3;" d="M61.907,87.378c-0.054,0.611-0.24,1.218-0.564,1.812"/>
	<path style="fill:none;stroke:#FF0050;stroke-width:3;" d="M81.125,75.686c-1.354,0.2-2.561,1.012-3.499,1.98"/>
	<path style="fill:none;stroke:#FF0050;stroke-width:3;" d="M84.665,57.051c-1.047,0.497-2.048,0.982-2.901,1.805"/>
	<path style="fill:none;stroke:#FF0050;stroke-width:3;" d="M97.071,33.21c-0.949,0.385-1.708,1.083-2.506,1.796"/>
	<path style="fill:none;stroke:#FF0050;stroke-width:3;" d="M121.148,27.688c-1.143,3.088-4.184,3.352-6.717,5.046"/>
	<path style="fill:none;stroke:#FF0050;stroke-width:3;" d="M112.059,47.381c-2.543,4.541-5.572,6.857-10.875,7.924"/>
	<path style="fill:none;stroke:#FF0050;stroke-width:3;" d="M109.68,60.045c-0.756,4.858-3.033,8.942-6.783,12.463
		c1.918,1.769,2.924,3.573,3.451,5.986"/>
	<path style="fill:none;stroke:#FF0050;stroke-width:3;" d="M164.01,41.423c-4.658,5.106-10.076,10.183-14.732,15.594
		c-3.211,3.742-7.459,8.979-9.051,13.274"/>
	<path style="fill:none;stroke:#FF0050;stroke-width:3;" d="M141.116,34.642c-0.873-0.145-0.882,1.955-1.229,3.113
		c-0.492,1.628-1.291,3.164-2.053,4.747c-1.365,2.832-2.257,5.743-3.545,8.589c-1.338,2.961-3.206,5.871-5.066,8.63
		c-2.097,3.107-5.16,5.916-6.578,9.239"/>
	<path style="fill:none;stroke:#FF0050;stroke-width:3;" d="M192.756,79.898c1.189-9.644,3.274-19.873,4.213-29.867
		c0.64-6.902,1.252-16.364-0.416-22.584"/>
</g>
</svg>
