<?xml version="1.0" encoding="iso-8859-1"?>
<!-- Generator: Adobe Illustrator 15.1.0, SVG Export Plug-In . SVG Version: 6.00 Build 0)  -->
<!DOCTYPE svg PUBLIC "-//W3C//DTD SVG 1.1//EN" "http://www.w3.org/Graphics/SVG/1.1/DTD/svg11.dtd">
<svg version="1.1" xmlns="http://www.w3.org/2000/svg" xmlns:xlink="http://www.w3.org/1999/xlink" x="0px" y="0px" width="2048px"
	 height="1536px" viewBox="0 0 2048 1536" style="enable-background:new 0 0 2048 1536;" xml:space="preserve">
<g id="e1b_x5F_beinout_x5F_r">
	<g>
		<path style="fill:none;stroke:#FF0050;stroke-width:3;" d="M883.069,800.406c103.397-9.401,172.73-111.632,267.908-141.006
			c28.2-8.226,66.989-27.024,95.19-35.251c27.024-8.225,42.288-14.1,69.312-25.851c21.15-8.225,47.002-29.374,68.15-32.901
			c24.677-2.35,48.178,21.151,70.503,29.377c52.875,17.626,105.751,28.2,151.577,62.275c44.65,32.898,95.176,59.923,146.877,79.898
			c7.049,2.35,30.568,12.933,36.445,16.456"/>
	</g>
	<path style="fill:none;stroke:#17192D;stroke-width:3;" d="M2048,0"/>
	<path style="fill:none;stroke:#17192D;stroke-width:3;" d="M2048,1536"/>
	<path style="fill:none;stroke:#17192D;stroke-width:3;" d="M0,1536"/>
	<path style="fill:none;stroke:#17192D;stroke-width:3;" d="M0,0"/>
</g>
<g id="Layer_1">
</g>
</svg>
