<?xml version="1.0" encoding="iso-8859-1"?>
<!-- Generator: Adobe Illustrator 13.0.0, SVG Export Plug-In . SVG Version: 6.00 Build 14948)  -->
<!DOCTYPE svg PUBLIC "-//W3C//DTD SVG 1.1//EN" "http://www.w3.org/Graphics/SVG/1.1/DTD/svg11.dtd">
<svg version="1.1" id="Ebene_1" xmlns="http://www.w3.org/2000/svg" xmlns:xlink="http://www.w3.org/1999/xlink" x="0px" y="0px"
	 width="200px" height="150px" viewBox="0 0 200 150" style="enable-background:new 0 0 200 150;" xml:space="preserve">
<g>
	<path style="fill:none;stroke:#FF0050;stroke-width:3;" d="M187.868,67.59c-2.882-3.727-8.714-5.408-13.083-7.15"/>
	<path style="fill:none;stroke:#FF0050;stroke-width:3;" d="M109.227,140.037c16.654,1.207,32.78,4.945,49.022,1.803
		c14.505-2.941,27.873-1.547,37.229-13.525c1.211-1.635,2.379-3.631,3.158-5.621"/>
	<path style="fill:none;stroke:#FF0050;stroke-width:3;" d="M171.2,57.812c-8.366-8.119-19.964-13.324-30.066-19.261
		c-11.343-6.649-14.749-11.864-23.96-20.698c-3.64-3.425-7.451-6.671-11.057-9.73c-4.745,3.271-5.925,11.244-3.282,16.48
		c2.364,4.338,1.754,6.129,5.246,10.1c4.558,4.87,8.321,7.744,13.019,12.076c4.694,4.317,6.28,10.647,9.875,15.707
		c5.539,7.036,12.568,11.354,19.85,16.215"/>
	<path style="fill:none;stroke:#FF0050;stroke-width:3;" d="M106.178,139.968c-3.861,1.001-7.082-0.979-10.562-2.157
		c-3.643-1.221-7.166-0.01-10.883,0.037c-3.636,0.032-7.096-1.229-10.648-1.271c-4.067-0.045-7.283,0.753-11.312-0.849
		c-3.796-1.502-6.774-1.058-10.842-1.479c-3.732-0.381-7.934-1.171-11.515-2.153c-4.961-1.361-20.634-5.332-12.51-11.924
		c5.208-4.219,16.441-2.676,23.175-2.254c4.081,0.257,7.944-0.639,12.062-0.248c3.773,0.359,7.329,1.506,10.701,0.501
		c6.952-2.063,12.413-0.688,19.581,0.45"/>
	<path style="fill:none;stroke:#FF0050;stroke-width:3;" d="M98.942,119.703c-4.275,1.111-7.851-1.092-11.709-2.385
		c-4.029-1.36-7.94-0.018-12.059,0.027c-4.023,0.049-7.868-1.355-11.803-1.402c-4.512-0.049-8.076,0.836-12.546-0.938
		c-4.199-1.67-7.505-1.175-12.012-1.645c-4.139-0.422-8.789-1.301-12.766-2.391c-5.498-1.502-22.872-5.906-13.866-13.211
		c5.773-4.682,18.221-2.971,25.69-2.496c4.52,0.285,8.803-0.711,13.37-0.273c4.181,0.391,8.123,1.666,11.857,0.55
		c7.705-2.295,13.758-0.767,21.704,0.505"/>
	<path style="fill:none;stroke:#FF0050;stroke-width:3;" d="M126.202,59.429c-9.33,4.3-20.396-3.239-30.07-2.561
		c-4.23,0.302-7.569,2.188-11.831,1.907c-4.622-0.312-9.075-1.918-13.632-1.627c-4.06,0.246-7.598,2.146-11.879,1.854
		c-5.08-0.354-10.122-1.616-15.168-0.68c-2.324,0.432-3.674,0.96-6.162,0.666c-2.709-0.316-5.213-0.674-7.932-0.603
		c-4.687,0.119-9.226,1.312-13.334,3.024c-5.246,2.185-7.475,5.999-3.56,11.107"/>
	<path style="fill:none;stroke:#FF0050;stroke-width:3;" d="M81.248,77.725c-5.306,0.207-10.91-2.609-16.461-2.373
		c-4.727,0.201-8.251,1.516-13.339,1.064c-6.212-0.561-11.64,1.928-17.513,2.111c-3.925,0.123-7.908-1.228-11.937-0.965
		c-5.103,0.33-10.104,0.809-14.736,2.305c-7.563,2.445-2.757,6.33,1.208,10.171"/>
	<path style="fill:none;stroke:#FF0050;stroke-width:3;" d="M65.386,103.094c-0.425-1.357-1.29-2.559-1.546-3.979"/>
	<path style="fill:none;stroke:#FF0050;stroke-width:3;" d="M45.896,102.799c-0.758-1.119-1.302-2.41-1.901-3.611"/>
	<path style="fill:none;stroke:#FF0050;stroke-width:3;" d="M75.287,125.134c0.427-1.134-0.603-2.571-0.947-3.796"/>
	<path style="fill:none;stroke:#FF0050;stroke-width:3;" d="M56.082,125.748c-0.217-1.357-0.831-2.74-1.551-3.979"/>
	<path style="fill:none;stroke:#FF0050;stroke-width:3;" d="M57.362,82.305c0.244-1.082-0.411-2-1.061-2.891"/>
	<path style="fill:none;stroke:#FF0050;stroke-width:3;" d="M34.824,84.736c-0.512-0.998-0.817-2.545-1.126-3.605"/>
	<path style="fill:none;stroke:#FF0050;stroke-width:3;" d="M34.969,63.932c0.305-0.176,0.539,0.037,0.688-0.358
		c-0.685-0.72-0.797-1.316-0.931-2.181"/>
	<path style="fill:none;stroke:#FF0050;stroke-width:3;" d="M61.252,64.01c-0.052-0.615-0.238-1.221-0.563-1.808"/>
	<path style="fill:none;stroke:#FF0050;stroke-width:3;" d="M80.472,75.704c-1.354-0.201-2.559-1.009-3.501-1.983"/>
	<path style="fill:none;stroke:#FF0050;stroke-width:3;" d="M84.011,94.335c-1.048-0.495-2.049-0.981-2.899-1.803"/>
	<path style="fill:none;stroke:#FF0050;stroke-width:3;" d="M96.415,118.18c-0.947-0.385-1.703-1.084-2.503-1.799"/>
	<path style="fill:none;stroke:#FF0050;stroke-width:3;" d="M120.496,123.701c-1.143-3.09-4.186-3.352-6.719-5.045"/>
	<path style="fill:none;stroke:#FF0050;stroke-width:3;" d="M111.404,104.007c-2.543-4.54-5.571-6.858-10.879-7.928"/>
	<path style="fill:none;stroke:#FF0050;stroke-width:3;" d="M109.025,91.344c-0.758-4.855-3.033-8.941-6.782-12.463
		c1.916-1.771,2.922-3.575,3.45-5.984"/>
	<path style="fill:none;stroke:#FF0050;stroke-width:3;" d="M163.357,109.963c-4.659-5.104-10.08-10.18-14.734-15.59
		c-3.212-3.748-7.459-8.979-9.053-13.28"/>
	<path style="fill:none;stroke:#FF0050;stroke-width:3;" d="M140.463,116.742c-0.873,0.146-0.882-1.949-1.229-3.11
		c-0.491-1.626-1.291-3.163-2.053-4.747c-1.367-2.832-2.26-5.744-3.548-8.588c-1.335-2.965-3.204-5.875-5.067-8.628
		c-2.094-3.106-5.158-5.921-6.576-9.241"/>
</g>
<path style="fill:none;stroke:#FF0050;stroke-width:3;" d="M196.778,119.534c-0.695-9.692-0.626-20.131-1.636-30.119
	c-0.706-6.896-1.934-16.297-4.771-22.079"/>
</svg>
