<svg xmlns="http://www.w3.org/2000/svg" width="200" height="150" viewBox="0 0 200 150"><g fill="none" stroke="#FF0050" stroke-width="3"><path d="M187.868 67.59c-2.882-3.727-8.714-5.408-13.083-7.15M109.227 140.037c16.654 1.207 32.78 4.945 49.022 1.803 14.504-2.94 27.872-1.547 37.228-13.525 1.21-1.635 2.38-3.63 3.158-5.62M171.2 57.812c-8.366-8.12-19.964-13.324-30.066-19.26-11.343-6.65-14.75-11.865-23.96-20.7-3.64-3.424-7.45-6.67-11.057-9.73-4.745 3.272-5.925 11.245-3.282 16.48 2.364 4.34 1.754 6.13 5.246 10.1 4.56 4.87 8.322 7.745 13.02 12.077 4.694 4.316 6.28 10.646 9.875 15.706 5.54 7.036 12.568 11.354 19.85 16.215M106.178 139.968c-3.86 1-7.082-.98-10.562-2.157-3.643-1.22-7.166-.01-10.883.038-3.636.032-7.096-1.23-10.648-1.27-4.067-.046-7.283.752-11.312-.85-3.796-1.502-6.774-1.058-10.842-1.48-3.73-.38-7.933-1.17-11.514-2.152-4.96-1.36-20.634-5.332-12.51-11.924 5.208-4.22 16.44-2.676 23.175-2.254 4.082.257 7.945-.64 12.063-.248 3.773.36 7.33 1.506 10.7.5 6.953-2.062 12.414-.687 19.582.45M98.942 119.703c-4.275 1.11-7.85-1.092-11.71-2.385-4.028-1.36-7.94-.018-12.058.027-4.023.05-7.868-1.355-11.803-1.402-4.51-.05-8.075.836-12.545-.938-4.2-1.67-7.505-1.175-12.012-1.645-4.14-.422-8.79-1.3-12.766-2.39-5.498-1.503-22.872-5.907-13.866-13.212 5.774-4.682 18.222-2.97 25.69-2.496 4.52.285 8.804-.71 13.37-.273 4.182.39 8.124 1.665 11.858.55 7.705-2.296 13.758-.768 21.704.504M126.202 59.43c-9.33 4.3-20.396-3.24-30.07-2.562-4.23.302-7.57 2.188-11.83 1.907-4.623-.312-9.076-1.918-13.633-1.627-4.06.246-7.6 2.146-11.88 1.854-5.08-.354-10.122-1.616-15.168-.68-2.324.432-3.674.96-6.162.666-2.71-.316-5.213-.674-7.932-.603-4.687.12-9.226 1.312-13.334 3.024-5.246 2.184-7.475 5.998-3.56 11.106M81.248 77.725c-5.306.207-10.91-2.61-16.46-2.373-4.728.2-8.252 1.516-13.34 1.064-6.212-.56-11.64 1.928-17.513 2.11-3.925.124-7.908-1.227-11.937-.964-5.103.33-10.104.81-14.736 2.305-7.563 2.445-2.757 6.33 1.208 10.17M65.386 103.094c-.425-1.357-1.29-2.56-1.546-3.98M45.896 102.8c-.758-1.12-1.302-2.41-1.9-3.612M75.287 125.134c.427-1.134-.603-2.57-.947-3.796M56.082 125.748c-.217-1.357-.83-2.74-1.55-3.98M57.362 82.305c.244-1.082-.41-2-1.06-2.89M34.824 84.736c-.512-.998-.817-2.545-1.126-3.605M34.97 63.932c.304-.176.538.037.687-.358-.685-.72-.797-1.316-.93-2.18M61.252 64.01c-.052-.615-.238-1.22-.563-1.808M80.472 75.704c-1.354-.2-2.56-1.01-3.5-1.983M84.01 94.335c-1.047-.495-2.048-.98-2.898-1.803M96.415 118.18c-.947-.385-1.703-1.084-2.503-1.8M120.496 123.7c-1.143-3.09-4.186-3.35-6.72-5.044M111.404 104.007c-2.543-4.54-5.57-6.858-10.88-7.928M109.025 91.344c-.758-4.855-3.033-8.94-6.782-12.463 1.916-1.77 2.922-3.574 3.45-5.983M163.357 109.963c-4.66-5.104-10.08-10.18-14.734-15.59-3.212-3.748-7.46-8.98-9.053-13.28M140.463 116.742c-.873.146-.882-1.95-1.23-3.11-.49-1.626-1.29-3.163-2.052-4.747-1.366-2.832-2.26-5.744-3.547-8.588-1.335-2.965-3.204-5.875-5.067-8.628-2.094-3.107-5.158-5.922-6.576-9.242"/></g><path d="M196.778 119.534c-.695-9.692-.626-20.13-1.636-30.12-.706-6.895-1.934-16.296-4.77-22.078" fill="none" stroke="#FF0050" stroke-width="3"/></svg>