<svg xmlns="http://www.w3.org/2000/svg" width="2048" height="1536" viewBox="0 0 2048 1536"><g fill="none" stroke-width="3"><g stroke="#FF0050"><path d="M349.023 848.576c21.15 0 35.25 28.202 41.712 45.238 8.227 23.502 7.637 47 3.526 71.677-5.286 31.727-22.913 59.928-51.114 74.615M343.146 1040.693c9.988 7.637 9.988 27.025 12.926 37.6 3.525 12.34 7.05 25.264 9.987 38.19 7.05 27.61 12.926 51.112 35.838 69.91-1.176.59-2.35 1.177-3.526 1.177M424.224 704.048c-2.35 6.462-11.75 13.513-16.45 19.974-8.813 11.164-14.69 24.09-21.74 35.84-7.637 13.513-11.16 28.2-17.624 41.714-6.46 12.925-16.45 25.263-20.563 38.775-.588 2.35-1.763 4.7-2.35 6.464 1.174 0 4.114 1.174 2.94 1.174M570.515 753.985c6.46 3.526 13.512 2.938 19.976 4.113 9.987 1.762 19.976 5.875 29.374 8.225 27.614 7.05 54.64 15.278 82.252 22.327 26.437 6.463 55.227 15.275 82.84 15.275 23.5 0 47.587.588 71.09-1.176 4.698 0 9.985 0 14.687-1.175M588.138 1142.92c51.702-7.64 101.053-24.676 152.753-32.9 20.565-2.938 36.43-1.764 56.99 1.175 18.213 2.35 39.953 2.35 56.402 4.112M346.686 847.76c4.12 11.447-11.45 25.186-20.61 31.14-13.735 9.16-27.93 6.41-43.04 7.33M262.52 1008.426c10.99-2.286 36.082-2.68 47.073 2.354 7.784 3.205 16.484 7.785 22.438 14.197 2.29 2.29 11.907 12.82 8.703 14.193"/></g><path d="M2048 0M2048 1536M0 1536M0 0" stroke="#17192D"/></g></svg>