<?xml version="1.0" encoding="iso-8859-1"?>
<!-- Generator: Adobe Illustrator 15.1.0, SVG Export Plug-In . SVG Version: 6.00 Build 0)  -->
<!DOCTYPE svg PUBLIC "-//W3C//DTD SVG 1.1//EN" "http://www.w3.org/Graphics/SVG/1.1/DTD/svg11.dtd">
<svg version="1.1" xmlns="http://www.w3.org/2000/svg" xmlns:xlink="http://www.w3.org/1999/xlink" x="0px" y="0px" width="2048px"
	 height="1536px" viewBox="0 0 2048 1536" style="enable-background:new 0 0 2048 1536;" xml:space="preserve">
<g id="e1b_x5F_beine_x5F_inner">
	<path style="fill:none;stroke:#FF0050;stroke-width:3;" d="M1758.462,823.902c-11.749-11.751-34.076-16.451-50.524-22.326
		c-23.502-9.4-44.646-16.451-71.673-19.975c-27.024-4.701-50.53-2.351-81.08-9.4c-27.213-6.28-59.937-24.677-82.262-41.128
		c-18.799-14.101-36.416-34.076-62.267-25.85c-24.675,8.225-51.7,27.02-74.026,42.295c-29.375,19.977-54.051,45.828-79.9,69.328
		c-23.502,21.151-39.938,29.376-61.088,51.701c-16.449,16.451-51.714,65.807-48.19,88.131c3.526,24.677,21.142,41.123,37.592,59.923
		c38.776,43.476,111.637,65.811,164.512,84.61c52.877,18.801,106.928,28.195,162.153,11.745
		c27.027-8.225,49.351-10.569,77.552-10.569c28.2,0,39.942,4.7,68.142,9.398c34.076,5.876,96.36,7.047,128.087-8.229"/>
	<path style="fill:none;stroke:#17192D;stroke-width:3;" d="M2048,0"/>
	<path style="fill:none;stroke:#17192D;stroke-width:3;" d="M2048,1536"/>
	<path style="fill:none;stroke:#17192D;stroke-width:3;" d="M0,1536"/>
	<path style="fill:none;stroke:#17192D;stroke-width:3;" d="M0,0"/>
</g>
<g id="Layer_1">
</g>
</svg>
