<svg xmlns="http://www.w3.org/2000/svg" width="200" height="150" viewBox="0 0 200 150"><g fill="none" stroke="#FF0050" stroke-width="3"><path d="M188.52 83.798c-2.882 3.728-8.718 5.405-13.08 7.152M109.88 11.347c16.653-1.202 32.777-4.94 49.022-1.803 14.507 2.946 27.873 1.55 37.23 13.528 1.208 1.634 2.375 3.634 3.16 5.622M171.854 93.577c-8.365 8.116-19.96 13.32-30.064 19.257-11.342 6.652-14.747 11.867-23.96 20.702-3.642 3.423-7.45 6.666-11.06 9.73-4.742-3.27-5.926-11.247-3.277-16.482 2.36-4.337 1.752-6.132 5.246-10.1 4.556-4.87 8.317-7.74 13.016-12.075 4.693-4.322 6.277-10.653 9.876-15.708 5.54-7.04 12.57-11.354 19.85-16.216M106.834 11.418c-3.86-1.002-7.08.986-10.567 2.16-3.637 1.22-7.163.007-10.88-.037-3.635-.035-7.1 1.23-10.648 1.274-4.068.044-7.287-.76-11.315.848-3.793 1.5-6.772 1.056-10.84 1.48-3.733.377-7.93 1.17-11.514 2.15-4.962 1.36-20.635 5.334-12.513 11.922 5.21 4.222 16.44 2.68 23.175 2.254 4.08-.254 7.944.643 12.063.25 3.77-.356 7.33-1.508 10.702-.5 6.95 2.066 12.41.69 19.582-.454M99.598 31.68c-4.274-1.103-7.85 1.1-11.71 2.395-4.03 1.354-7.938.01-12.058-.034-4.026-.047-7.868 1.36-11.8 1.405-4.515.052-8.08-.836-12.55.937-4.196 1.67-7.503 1.177-12.013 1.644-4.134.422-8.79 1.3-12.764 2.388-5.496 1.505-22.87 5.913-13.867 13.215 5.775 4.68 18.222 2.97 25.69 2.494 4.524-.28 8.803.71 13.37.278 4.18-.394 8.124-1.67 11.862-.556 7.702 2.298 13.755.77 21.7-.504M126.855 91.958c-9.332-4.3-20.396 3.243-30.07 2.563-4.23-.304-7.568-2.188-11.832-1.91-4.62.313-9.074 1.917-13.632 1.63-4.058-.25-7.596-2.15-11.876-1.855-5.083.355-10.12 1.617-15.167.68-2.326-.432-3.677-.96-6.164-.666-2.708.314-5.214.678-7.933.603-4.687-.123-9.226-1.313-13.33-3.028-5.247-2.18-7.477-5.994-3.56-11.104M81.903 73.66c-5.306-.205-10.91 2.617-16.46 2.375-4.728-.2-8.253-1.51-13.34-1.062-6.216.558-11.64-1.93-17.516-2.113-3.923-.126-7.906 1.223-11.934.966-5.104-.335-10.106-.81-14.738-2.305-7.562-2.444-2.76-6.328 1.208-10.174M66.04 48.296c-.424 1.36-1.29 2.553-1.546 3.978M46.552 48.587c-.757 1.12-1.302 2.408-1.9 3.61M75.942 26.256c.426 1.13-.605 2.567-.95 3.79M56.735 25.636c-.218 1.36-.83 2.745-1.553 3.98M58.018 69.083c.24 1.084-.414 1.997-1.062 2.89M35.48 66.646c-.513 1.008-.817 2.555-1.123 3.613M35.622 87.458c.31.17.54-.037.688.356-.685.72-.796 1.316-.927 2.182M61.907 87.378c-.054.61-.24 1.218-.564 1.812M81.125 75.686c-1.354.2-2.56 1.012-3.5 1.98M84.665 57.05c-1.047.498-2.048.983-2.9 1.806M97.07 33.21c-.948.385-1.707 1.083-2.505 1.796M121.148 27.688c-1.143 3.088-4.184 3.352-6.717 5.046M112.06 47.38c-2.544 4.542-5.573 6.858-10.876 7.925M109.68 60.045c-.756 4.858-3.033 8.942-6.783 12.463 1.918 1.77 2.924 3.573 3.45 5.986M164.01 41.423c-4.658 5.106-10.076 10.183-14.732 15.594-3.21 3.742-7.46 8.98-9.05 13.274M141.116 34.642c-.873-.145-.882 1.955-1.23 3.113-.49 1.628-1.29 3.164-2.052 4.747-1.365 2.832-2.257 5.743-3.545 8.59-1.34 2.96-3.207 5.87-5.067 8.63-2.097 3.106-5.16 5.915-6.578 9.238M192.756 79.898c1.19-9.644 3.274-19.873 4.213-29.867.64-6.9 1.25-16.363-.417-22.583"/></g></svg>