<?xml version="1.0" encoding="iso-8859-1"?>
<!-- Generator: Adobe Illustrator 15.1.0, SVG Export Plug-In . SVG Version: 6.00 Build 0)  -->
<!DOCTYPE svg PUBLIC "-//W3C//DTD SVG 1.1//EN" "http://www.w3.org/Graphics/SVG/1.1/DTD/svg11.dtd">
<svg version="1.1" xmlns="http://www.w3.org/2000/svg" xmlns:xlink="http://www.w3.org/1999/xlink" x="0px" y="0px" width="2048px"
	 height="1536px" viewBox="0 0 2048 1536" style="enable-background:new 0 0 2048 1536;" xml:space="preserve">
<g id="e1b_x5F_corpus">
	<g>
		<path style="fill:none;stroke:#FF0050;stroke-width:3;" d="M349.023,848.576c21.15,0,35.251,28.202,41.712,45.238
			c8.227,23.502,7.637,47.001,3.526,71.677c-5.287,31.726-22.914,59.927-51.115,74.614"/>
		<path style="fill:none;stroke:#FF0050;stroke-width:3;" d="M343.146,1040.693c9.988,7.637,9.988,27.025,12.926,37.6
			c3.525,12.339,7.05,25.264,9.987,38.189c7.05,27.611,12.927,51.113,35.839,69.912c-1.176,0.589-2.35,1.176-3.526,1.176"/>
		<path style="fill:none;stroke:#FF0050;stroke-width:3;" d="M424.224,704.048c-2.35,6.462-11.75,13.513-16.451,19.974
			c-8.812,11.164-14.688,24.089-21.738,35.839c-7.638,13.514-11.162,28.202-17.625,41.715
			c-6.461,12.925-16.449,25.263-20.563,38.775c-0.588,2.35-1.763,4.699-2.349,6.463c1.173,0,4.113,1.174,2.938,1.174"/>
		<path style="fill:none;stroke:#FF0050;stroke-width:3;" d="M570.515,753.985c6.461,3.526,13.512,2.938,19.976,4.113
			c9.986,1.762,19.975,5.875,29.373,8.225c27.614,7.051,54.64,15.278,82.252,22.327c26.437,6.463,55.227,15.275,82.839,15.275
			c23.5,0,47.588,0.588,71.09-1.176c4.699,0,9.986,0,14.688-1.174"/>
		<path style="fill:none;stroke:#FF0050;stroke-width:3;" d="M588.138,1142.919c51.702-7.638,101.053-24.675,152.753-32.899
			c20.564-2.938,36.429-1.764,56.99,1.175c18.212,2.351,39.952,2.351,56.401,4.112"/>
		<path style="fill:none;stroke:#FF0050;stroke-width:3;" d="M346.686,847.76c4.12,11.447-11.449,25.186-20.609,31.139
			c-13.736,9.16-27.931,6.412-43.042,7.33"/>
		<path style="fill:none;stroke:#FF0050;stroke-width:3;" d="M262.52,1008.426c10.989-2.286,36.082-2.681,47.073,2.354
			c7.784,3.205,16.484,7.785,22.438,14.197c2.29,2.291,11.906,12.82,8.702,14.193"/>
	</g>
	<path style="fill:none;stroke:#17192D;stroke-width:3;" d="M2048,0"/>
	<path style="fill:none;stroke:#17192D;stroke-width:3;" d="M2048,1536"/>
	<path style="fill:none;stroke:#17192D;stroke-width:3;" d="M0,1536"/>
	<path style="fill:none;stroke:#17192D;stroke-width:3;" d="M0,0"/>
</g>
<g id="Layer_1">
</g>
</svg>
