<?xml version="1.0" encoding="iso-8859-1"?>
<!-- Generator: Adobe Illustrator 15.1.0, SVG Export Plug-In . SVG Version: 6.00 Build 0)  -->
<!DOCTYPE svg PUBLIC "-//W3C//DTD SVG 1.1//EN" "http://www.w3.org/Graphics/SVG/1.1/DTD/svg11.dtd">
<svg version="1.1" xmlns="http://www.w3.org/2000/svg" xmlns:xlink="http://www.w3.org/1999/xlink" x="0px" y="0px" width="2048px"
	 height="1536px" viewBox="0 0 2048 1536" style="enable-background:new 0 0 2048 1536;" xml:space="preserve">
<g id="e1b_x5F_fuss_x5F_r">
	<g>
		<path style="fill:none;stroke:#FF0050;stroke-width:3;" d="M1807.998,753.78c10.478-1.771,25.89-7.008,34.048-12.875
			c11.262-8.648,22.56-16.076,32.56-25.916c18.323-18.646,32.832-42.084,53.667-58.358c6.241-4.336,11.259-8.646,16.968-14.443
			c5.71-5.797,6.867-8.279,13.19-1.112c10.108,10.729,5.041,30.707,1.498,43.545c-6.899,23.948-17.804,44.833-34.176,63.184
			c-9.511,10.071-20.077,17.231-26.835,29.18c-7.224,12.943-13.448,26.346-19.673,39.747c-10.377,22.34-20.809,51.289-46.285,59.377
			c-29.117,9.405-60.765-26.42-73.16-49.082"/>
		<path style="fill:none;stroke:#FF0050;stroke-width:3;" d="M1805.06,754.835c1.496-0.344-14.11-0.128-15.061-1.869"/>
	</g>
	<path style="fill:none;stroke:#17192D;stroke-width:3;" d="M2048,0"/>
	<path style="fill:none;stroke:#17192D;stroke-width:3;" d="M2048,1536"/>
	<path style="fill:none;stroke:#17192D;stroke-width:3;" d="M0,1536"/>
	<path style="fill:none;stroke:#17192D;stroke-width:3;" d="M0,0"/>
</g>
<g id="Layer_1">
</g>
</svg>
