<?xml version="1.0" encoding="iso-8859-1"?>
<!-- Generator: Adobe Illustrator 15.1.0, SVG Export Plug-In . SVG Version: 6.00 Build 0)  -->
<!DOCTYPE svg PUBLIC "-//W3C//DTD SVG 1.1//EN" "http://www.w3.org/Graphics/SVG/1.1/DTD/svg11.dtd">
<svg version="1.1" xmlns="http://www.w3.org/2000/svg" xmlns:xlink="http://www.w3.org/1999/xlink" x="0px" y="0px" width="2048px"
	 height="1536px" viewBox="0 0 2048 1536" style="enable-background:new 0 0 2048 1536;" xml:space="preserve">
<g id="e1b_x5F_beinout_x5F_l">
	<g>
		<path style="fill:none;stroke:#FF0050;stroke-width:3;" d="M861.919,1117.656c44.651,8.227,88.127,28.201,131.603,39.95
			c48.177,12.927,91.653,36.427,141.004,45.827c49.352,9.4,95.176,14.1,144.528,14.1c24.675,0,49.352-3.523,72.854,3.525
			c24.672,8.226,44.647,11.75,70.499,11.75c48.176,0,85.681,4.555,139.827-7.051c49.352-10.574,94.011-27.029,137.486-35.254
			c29.376-5.875,48.167-7.046,78.717-11.746l0,0c-2.35,0-4.7,0-7.049,0"/>
	</g>
	<path style="fill:none;stroke:#17192D;stroke-width:3;" d="M2048,0"/>
	<path style="fill:none;stroke:#17192D;stroke-width:3;" d="M2048,1536"/>
	<path style="fill:none;stroke:#17192D;stroke-width:3;" d="M0,1536"/>
	<path style="fill:none;stroke:#17192D;stroke-width:3;" d="M0,0"/>
</g>
<g id="Layer_1">
</g>
</svg>
