<svg xmlns="http://www.w3.org/2000/svg" width="2048" height="1536" viewBox="0 0 2048 1536"><g fill="none" stroke-width="3"><g stroke="#FF0050"><path d="M557.59 1134.693c12.925 3.525 24.087 11.752 37.6 15.275 25.85 6.464 55.81 19.977 78.138 35.252 13.514 10.574 28.79 17.625 43.477 27.025 13.512 8.812 20.562 21.738 29.375 34.074 6.463 9.987 12.338 23.5 12.924 35.84.588 15.862-11.162 25.263-22.325 33.487-21.15 15.274-49.94 27.025-75.79 30.55-14.1 1.763-23.497 1.763-37.01 4.112-14.1 2.35-32.904 2.937-46.416 3.524-15.863 1.176-31.726 5.875-47 5.287 9.986-18.8-1.764-49.35-8.225-66.386 11.747-3.527 23.5-2.935 35.25-5.87 12.654-2.88 25.34-5.758 38.187-8.818 25.263-6.464 46.413-24.677 68.74-36.427M401.31 1184.047v2.348c20.564 11.164 42.3 22.914 64.627 32.313 27.025 11.163 58.163 8.813 83.426 21.737 17.038 8.226 45.238 18.802 56.4 31.73"/></g><path d="M2048 0M2048 1536M0 1536M0 0" stroke="#17192D"/></g></svg>