<?xml version="1.0" encoding="iso-8859-1"?>
<!-- Generator: Adobe Illustrator 15.1.0, SVG Export Plug-In . SVG Version: 6.00 Build 0)  -->
<!DOCTYPE svg PUBLIC "-//W3C//DTD SVG 1.1//EN" "http://www.w3.org/Graphics/SVG/1.1/DTD/svg11.dtd">
<svg version="1.1" xmlns="http://www.w3.org/2000/svg" xmlns:xlink="http://www.w3.org/1999/xlink" x="0px" y="0px" width="2048px"
	 height="1536px" viewBox="0 0 2048 1536" style="enable-background:new 0 0 2048 1536;" xml:space="preserve">
<g id="e1b_x5F_fuss_x5F_l">
	<g>
		<path style="fill:none;stroke:#FF0050;stroke-width:3;" d="M1786.121,1104.35c21.366-7.118,31.59-38.551,58.108-29.311
			c31.185,10.451,31.862,51.596,54.892,71.129c11.645,10.045,20.287,16.113,29.293,29.373c7.261,10.713,17.403,18.768,24.914,30.041
			c10.296,17.346,31.573,63.762-3.167,59.623c-25.442-3.049-46.436-32.213-67.418-46.001c-11.111-7.61-27.943-19.392-39.265-24.899
			c-9.851-4.852-23.386-11.352-33.648-11.998"/>
		<path style="fill:none;stroke:#FF0050;stroke-width:3;" d="M1779.884,1178.496c7.114-4.926,15.873,1.643,22.986,0"/>
	</g>
	<path style="fill:none;stroke:#17192D;stroke-width:3;" d="M2048,0"/>
	<path style="fill:none;stroke:#17192D;stroke-width:3;" d="M2048,1536"/>
	<path style="fill:none;stroke:#17192D;stroke-width:3;" d="M0,1536"/>
	<path style="fill:none;stroke:#17192D;stroke-width:3;" d="M0,0"/>
</g>
<g id="Layer_1">
</g>
</svg>
