<svg xmlns="http://www.w3.org/2000/svg" width="2048" height="1536" viewBox="0 0 2048 1536"><g fill="none" stroke-width="3"><g stroke="#FF0050"><path d="M1786.12 1104.35c21.367-7.118 31.59-38.55 58.11-29.31 31.184 10.45 31.86 51.595 54.89 71.128 11.646 10.045 20.288 16.113 29.294 29.373 7.26 10.714 17.403 18.77 24.914 30.042 10.296 17.346 31.573 63.762-3.167 59.623-25.44-3.05-46.435-32.213-67.417-46-11.11-7.61-27.943-19.393-39.265-24.9-9.85-4.852-23.386-11.352-33.648-11.998M1779.884 1178.496c7.114-4.926 15.873 1.643 22.986 0"/></g><path d="M2048 0M2048 1536M0 1536M0 0" stroke="#17192D"/></g></svg>