<?xml version="1.0" encoding="iso-8859-1"?>
<!-- Generator: Adobe Illustrator 15.1.0, SVG Export Plug-In . SVG Version: 6.00 Build 0)  -->
<!DOCTYPE svg PUBLIC "-//W3C//DTD SVG 1.1//EN" "http://www.w3.org/Graphics/SVG/1.1/DTD/svg11.dtd">
<svg version="1.1" xmlns="http://www.w3.org/2000/svg" xmlns:xlink="http://www.w3.org/1999/xlink" x="0px" y="0px" width="2048px"
	 height="1536px" viewBox="0 0 2048 1536" style="enable-background:new 0 0 2048 1536;" xml:space="preserve">
<g id="e1b_x5F_arm_x5F_r">
	<g>
		<path style="fill:none;stroke:#FF0050;stroke-width:3;" d="M531.738,515.459c15.863,14.101,0.588,45.237-1.174,62.277
			c10.574,3.524,25.264,0,36.424,0.587c12.926,0.587,23.503,3.525,35.251,8.225c24.675,10.577,48.762,24.676,75.202,30.552
			c13.512,3.524,26.438,5.287,40.538,5.287"/>
		<path style="fill:none;stroke:#FF0050;stroke-width:3;" d="M557.001,754.573c13.514,0.588,25.263-6.462,37.014-13.512
			c22.325-13.513,45.825-27.026,68.151-41.713c25.263-15.862,45.238-40.537,69.325-58.748
			c22.914-17.626,41.127-35.251,47.002-64.039c4.114-25.263-31.138-44.651-51.701-51.114c-14.101-4.7-15.266-5.874-29.366-9.987
			c-12.926-3.524-40.547-2.35-54.649-2.937c-19.39-0.588-38.188,2.937-57.576,5.874c-6.461,0.589-52.875,0.589-51.113-4.699"/>
		<path style="fill:none;stroke:#FF0050;stroke-width:3;" d="M621.04,597.125c-22.325,20.562-47.588,34.661-76.376,44.062
			c-25.851,8.812-51.701,17.037-75.789,30.548c-12.925,7.639-27.027,15.276-38.189,25.852"/>
	</g>
	<path style="fill:none;stroke:#17192D;stroke-width:3;" d="M2048,0"/>
	<path style="fill:none;stroke:#17192D;stroke-width:3;" d="M2048,1536"/>
	<path style="fill:none;stroke:#17192D;stroke-width:3;" d="M0,1536"/>
	<path style="fill:none;stroke:#17192D;stroke-width:3;" d="M0,0"/>
</g>
<g id="Layer_1">
</g>
</svg>
