<svg xmlns="http://www.w3.org/2000/svg" width="2048" height="1536" viewBox="0 0 2048 1536"><g fill="none" stroke-width="3"><g stroke="#FF0050"><path d="M1807.998 753.78c10.478-1.77 25.89-7.008 34.048-12.875 11.262-8.648 22.56-16.076 32.56-25.916 18.323-18.647 32.832-42.085 53.667-58.36 6.24-4.335 11.26-8.645 16.968-14.442 5.71-5.797 6.868-8.28 13.19-1.112 10.11 10.73 5.042 30.707 1.5 43.545-6.9 23.95-17.805 44.834-34.177 63.185-9.51 10.07-20.077 17.23-26.835 29.18-7.224 12.943-13.448 26.346-19.673 39.747-10.377 22.34-20.81 51.29-46.285 59.377-29.117 9.404-60.765-26.42-73.16-49.083M1805.06 754.835c1.496-.344-14.11-.128-15.06-1.87"/></g><path d="M2048 0M2048 1536M0 1536M0 0" stroke="#17192D"/></g></svg>