<svg xmlns="http://www.w3.org/2000/svg" width="2048" height="1536" viewBox="0 0 2048 1536"><g><path d="M883.07 800.406c103.396-9.4 172.73-111.632 267.907-141.006 28.2-8.226 66.99-27.024 95.19-35.25 27.024-8.226 42.288-14.1 69.312-25.852 21.15-8.225 47-29.374 68.15-32.9 24.676-2.35 48.177 21.15 70.502 29.376 52.875 17.626 105.75 28.2 151.577 62.275 44.65 32.897 95.175 59.922 146.876 79.897 7.05 2.35 30.568 12.933 36.445 16.456" fill="none" stroke="#FF0050" stroke-width="3"/><path d="M2048 0M2048 1536M0 1536M0 0" fill="none" stroke="#17192D" stroke-width="3"/></g></svg>