<?xml version="1.0" encoding="iso-8859-1"?>
<!-- Generator: Adobe Illustrator 15.1.0, SVG Export Plug-In . SVG Version: 6.00 Build 0)  -->
<!DOCTYPE svg PUBLIC "-//W3C//DTD SVG 1.1//EN" "http://www.w3.org/Graphics/SVG/1.1/DTD/svg11.dtd">
<svg version="1.1" xmlns="http://www.w3.org/2000/svg" xmlns:xlink="http://www.w3.org/1999/xlink" x="0px" y="0px" width="2048px"
	 height="1536px" viewBox="0 0 2048 1536" style="enable-background:new 0 0 2048 1536;" xml:space="preserve">
<g id="e1b_x5F_arm_x5F_l">
	<g>
		<path style="fill:none;stroke:#FF0050;stroke-width:3;" d="M557.59,1134.693c12.925,3.525,24.087,11.752,37.599,15.275
			c25.851,6.464,55.812,19.977,78.139,35.252c13.514,10.574,28.789,17.625,43.477,27.025c13.512,8.812,20.562,21.738,29.375,34.074
			c6.463,9.988,12.338,23.502,12.924,35.84c0.588,15.863-11.162,25.264-22.325,33.488c-21.15,15.274-49.938,27.025-75.79,30.55
			c-14.099,1.763-23.496,1.763-37.008,4.112c-14.101,2.351-32.905,2.938-46.417,3.525c-15.863,1.176-31.726,5.875-47.001,5.287
			c9.987-18.8-1.763-49.351-8.224-66.387c11.748-3.527,23.5-2.935,35.25-5.871c12.655-2.878,25.34-5.757,38.188-8.817
			c25.263-6.464,46.413-24.677,68.739-36.427"/>
		<path style="fill:none;stroke:#FF0050;stroke-width:3;" d="M401.309,1184.047c0,0.587,0,1.762,0,2.348
			c20.565,11.164,42.302,22.914,64.628,32.313c27.025,11.163,58.163,8.813,83.426,21.737c17.038,8.226,45.238,18.802,56.401,31.729"
			/>
	</g>
	<path style="fill:none;stroke:#17192D;stroke-width:3;" d="M2048,0"/>
	<path style="fill:none;stroke:#17192D;stroke-width:3;" d="M2048,1536"/>
	<path style="fill:none;stroke:#17192D;stroke-width:3;" d="M0,1536"/>
	<path style="fill:none;stroke:#17192D;stroke-width:3;" d="M0,0"/>
</g>
<g id="Layer_1">
</g>
</svg>
