<?xml version="1.0" encoding="iso-8859-1"?>
<!-- Generator: Adobe Illustrator 15.1.0, SVG Export Plug-In . SVG Version: 6.00 Build 0)  -->
<!DOCTYPE svg PUBLIC "-//W3C//DTD SVG 1.1//EN" "http://www.w3.org/Graphics/SVG/1.1/DTD/svg11.dtd">
<svg version="1.1" xmlns="http://www.w3.org/2000/svg" xmlns:xlink="http://www.w3.org/1999/xlink" x="0px" y="0px" width="2048px"
	 height="1536px" viewBox="0 0 2048 1536" style="enable-background:new 0 0 2048 1536;" xml:space="preserve">
<g id="e2a_x5F_arm_x5F_h">
	<g>
		<path style="fill:none;stroke:#17192D;stroke-width:3;" d="M551.961,810.045c43.361,8.668,78.025-13.005,114.157-30.346
			c39.021-20.224,80.926-27.456,118.482-44.8"/>
		<path style="fill:none;stroke:#17192D;stroke-width:3;" d="M807.721,726.234c15.897-1.445,37.574-15.898,54.91-24.568
			c23.12-10.105,63.585-20.229,82.37-37.562"/>
		<path style="fill:none;stroke:#17192D;stroke-width:3;" d="M957.473,661.021c10.149-2.536,27.894-7.607,40.58-6.337"/>
		<path style="fill:none;stroke:#17192D;stroke-width:3;" d="M712.154,670.962c10.633-2.492,21.878-5.625,32.504-6.246
			c13.753-0.623,9.373-4.376,21.25-11.245c8.75-5.008,18.747-1.881,28.118-3.131c10.001-1.249,20.006-5.003,30-7.502"/>
		<path style="fill:none;stroke:#17192D;stroke-width:3;" d="M790.992,730.037c4.305,0.865,9.473-0.855,12.929-3.444"/>
		<path style="fill:none;stroke:#17192D;stroke-width:3;" d="M768.588,684.375c6.895-3.451,14.652-6.032,23.264-5.171"/>
	</g>
	<path style="fill:none;stroke:#17192D;stroke-width:3;" d="M2048,0"/>
	<path style="fill:none;stroke:#17192D;stroke-width:3;" d="M2048,1536"/>
	<path style="fill:none;stroke:#17192D;stroke-width:3;" d="M0,1536"/>
	<path style="fill:none;stroke:#17192D;stroke-width:3;" d="M0,0"/>
</g>
<g id="Layer_1">
</g>
</svg>
