<svg xmlns="http://www.w3.org/2000/svg" width="2048" height="1536" viewBox="0 0 2048 1536"><g fill="none" stroke="#17192D" stroke-width="3"><path d="M1636.108 872.27c-39.01-44.8-123.65-77.01-176.485-88.127-47.358-9.963-111.485-49.243-138.93-76.688-17.348-15.902-50.58-69.368-72.256-69.364M1365.484 594.74c44.792 18.784 82.363 69.36 128.602 92.482 21.68 11.556 44.796 24.562 66.477 40.457 14.44 10.113 55.492 36.728 70.618 47.967M1356.95 588.303c-7.49-6.255-14.37-13.134-19.36-23.13-5.01-9.376-13.126-19.37-25.004-21.248M1305.096 602.68c-5.626-2.512-11.877-4.383-15.015-10.008M1632.07 775.663c26.07 17.093 48.305 38.87 76.42 48.327.727.293.444.988 1.173 1.28M2048 0M2048 1536M0 1536M0 0"/></g></svg>