<?xml version="1.0" encoding="iso-8859-1"?>
<!-- Generator: Adobe Illustrator 15.1.0, SVG Export Plug-In . SVG Version: 6.00 Build 0)  -->
<!DOCTYPE svg PUBLIC "-//W3C//DTD SVG 1.1//EN" "http://www.w3.org/Graphics/SVG/1.1/DTD/svg11.dtd">
<svg version="1.1" xmlns="http://www.w3.org/2000/svg" xmlns:xlink="http://www.w3.org/1999/xlink" x="0px" y="0px" width="2048px"
	 height="1536px" viewBox="0 0 2048 1536" style="enable-background:new 0 0 2048 1536;" xml:space="preserve">
<g id="e2a_x5F_hand">
	<g>
		<path style="fill:none;stroke:#17192D;stroke-width:3;" d="M670.27,171.719c0,0,30.558-23.271,48.001-28.418
			c17.141-5.061,32.495-5.54,38.991,0.161c6.499,5.698,8.025,14.306,8.025,14.306"/>
		<path style="fill:none;stroke:#17192D;stroke-width:3;" d="M752.606,149.321c6.21,2.137,7.165,6.092,13.015,8.909
			c2.467,1.331,4.392,2.769,5.209,5.307c0.682,2.276-0.073,4.269,0.023,6.571c0.067,0.601-0.07,0.554,0.296,1.042"/>
		<path style="fill:none;stroke:#17192D;stroke-width:3;" d="M753.341,166.312c4.374,4.363,13.078,4.428,18.431,7.662
			c1.925,1.232,3.647,2.965,4.248,5.064c0.5,1.914-0.463,8.327,0.383,10.209"/>
		<path style="fill:none;stroke:#17192D;stroke-width:3;" d="M763.653,184.166c2.276,4.933,8.575,3.769,12.387,7.144"/>
		<path style="fill:none;stroke:#17192D;stroke-width:3;" d="M761.871,214.534c6.929-2.33,13.81-0.554,17.775-6.902
			c3.156-5.167,2.572-13.173-3.606-16.322"/>
		<path style="fill:none;stroke:#17192D;stroke-width:3;" d="M646.723,243.059c10.799-4.245,32.932-12.849,44.181-14.248
			c0,0,15.355,1.368,29.563-0.518c14.212-1.895,18.199-3.66,26.045-4.493c7.829-0.821,15.409-0.337,15.409-0.337
			s1.488-12.78-12.876-11.748c-14.361,1.041-24.324,1.053-29.093-0.373l24.116-4.954c0,0,13.674-0.32,18.949-2.34"/>
		<path style="fill:none;stroke:#17192D;stroke-width:3;" d="M769.612,207.504c-1.556-1.011-2.907-2.096-4.801-2.731"/>
		<path style="fill:none;stroke:#17192D;stroke-width:3;" d="M768.151,201.539c-0.915,1.312-2.005,2.228-3.414,2.562"/>
		<path style="fill:none;stroke:#17192D;stroke-width:3;" d="M747.949,185.401c0.897-2.167,3.874-3.378,6.348-3.384"/>
		<path style="fill:none;stroke:#17192D;stroke-width:3;" d="M737.348,166.875c0.19-2.275,3.35-3.573,5.604-3.084"/>
		<path style="fill:none;stroke:#17192D;stroke-width:3;" d="M731.564,151.597c1.685-1.085,3.629-2.084,5.763-2.351"/>
		<path style="fill:none;stroke:#17192D;stroke-width:3;" d="M749.331,210.757c-1.192-1.127-1.01-2.552-0.107-3.722"/>
	</g>
	<path style="fill:none;stroke:#17192D;stroke-width:3;" d="M2048,0"/>
	<path style="fill:none;stroke:#17192D;stroke-width:3;" d="M2048,1536"/>
	<path style="fill:none;stroke:#17192D;stroke-width:3;" d="M0,1536"/>
	<path style="fill:none;stroke:#17192D;stroke-width:3;" d="M0,0"/>
</g>
<g id="Layer_1">
</g>
</svg>
