<?xml version="1.0" encoding="iso-8859-1"?>
<!-- Generator: Adobe Illustrator 15.1.0, SVG Export Plug-In . SVG Version: 6.00 Build 0)  -->
<!DOCTYPE svg PUBLIC "-//W3C//DTD SVG 1.1//EN" "http://www.w3.org/Graphics/SVG/1.1/DTD/svg11.dtd">
<svg version="1.1" xmlns="http://www.w3.org/2000/svg" xmlns:xlink="http://www.w3.org/1999/xlink" x="0px" y="0px" width="2048px"
	 height="1536px" viewBox="0 0 2048 1536" style="enable-background:new 0 0 2048 1536;" xml:space="preserve">
<g id="e2a_x5F_fuss_x5F_r">
	<g>
		<path style="fill:none;stroke:#17192D;stroke-width:3;" d="M1801.113,413.049c3.433-1.91,8.665-0.732,12.205-0.159"/>
		<path style="fill:none;stroke:#17192D;stroke-width:3;" d="M1976.15,408.744c2.809-0.191,5.455-1.659,8.072-2.218
			c3.104-0.649,6.252-1.08,9.312-1.918c4.361-1.203,10.027-2.734,12.826-6.742c2.73-3.881,0.456-9.549-2.182-12.779
			c-3.392-4.147-6.542-5.105-11.961-4.989c-10.324,0.245-19.863,1.951-29.814,4.958"/>
		<path style="fill:none;stroke:#17192D;stroke-width:3;" d="M1957.832,372.366c5.549-0.565,11.738-2.029,17.15-3.471
			c3.418-0.918,6.987-2.673,10.555-2.386c3.687,0.298,7.829,1.46,10.877,3.621c3.752,2.642,3.306,4.672,2.013,8.649"/>
		<path style="fill:none;stroke:#17192D;stroke-width:3;" d="M1951.14,360.661c2.82,0.488,7.979-1.488,10.955-2.127
			c3.179-0.675,6.092-1.403,9.356-1.169c4.626,0.32,14.312,1.797,13,8.4"/>
		<path style="fill:none;stroke:#17192D;stroke-width:3;" d="M1943.407,352.548c5.408-0.713,10.001-4.18,15.508-4.199
			c4.507-0.021,10.059,1.36,11.802,5.921"/>
		<path style="fill:none;stroke:#17192D;stroke-width:3;" d="M1935.417,340.735c5.349-2.255,12.516-5.051,18.399-3.754
			c5.18,1.15,13.51,5.443,11.182,11.676"/>
		<path style="fill:none;stroke:#17192D;stroke-width:3;" d="M1932.514,364.991c1.957,0.124,4.711-0.778,6.9-1.14"/>
		<path style="fill:none;stroke:#17192D;stroke-width:3;" d="M1923.262,357.449c1.771-0.333,4.009-0.659,5.965-0.993"/>
		<path style="fill:none;stroke:#17192D;stroke-width:3;" d="M1937.555,374.473c1.754-0.287,5.369-1.414,7.793-1.604"/>
		<path style="fill:none;stroke:#17192D;stroke-width:3;" d="M1938.191,390.629c2.18-0.174,6.849-1.78,9.527-2.824"/>
		<path style="fill:none;stroke:#17192D;stroke-width:3;" d="M1741.906,433.741c16.842,4.723,39.077,26.244,57.716,24.083
			c15.524-1.62,30.14-12.312,44.446-17.501c32.622-11.356,66.663-13.866,99.835-21.871c9.622-2.223,18.691-5.902,27.851-8.996"/>
		<path style="fill:none;stroke:#17192D;stroke-width:3;" d="M1933.321,341.443c-7.708,2.504-23.896,4.463-32.096,5.458
			c-32.383,3.936-60.475,13.504-92.979,17.461c-17.037,2.062-34.228,2.902-51.287,1.877c-9.369-0.729-18.666-0.856-28.161-2.803"/>
	</g>
	<path style="fill:none;stroke:#17192D;stroke-width:3;" d="M2048,0"/>
	<path style="fill:none;stroke:#17192D;stroke-width:3;" d="M2048,1536"/>
	<path style="fill:none;stroke:#17192D;stroke-width:3;" d="M0,1536"/>
	<path style="fill:none;stroke:#17192D;stroke-width:3;" d="M0,0"/>
</g>
<g id="Layer_1">
</g>
</svg>
