<svg xmlns="http://www.w3.org/2000/svg" width="2048" height="1536" viewBox="0 0 2048 1536"><g fill="none" stroke="#17192D" stroke-width="3"><path d="M551.96 810.045c43.362 8.668 78.026-13.005 114.158-30.346 39.02-20.225 80.926-27.457 118.482-44.8M807.72 726.234c15.898-1.445 37.575-15.898 54.91-24.568 23.12-10.105 63.586-20.23 82.37-37.562M957.473 661.02c10.15-2.535 27.894-7.606 40.58-6.336M712.154 670.962c10.633-2.492 21.878-5.625 32.504-6.246 13.753-.623 9.373-4.376 21.25-11.245 8.75-5.007 18.747-1.88 28.118-3.13 10-1.25 20.006-5.003 30-7.502M790.992 730.037c4.305.865 9.473-.855 12.93-3.444M768.588 684.375c6.895-3.45 14.652-6.032 23.264-5.17M2048 0M2048 1536M0 1536M0 0"/></g></svg>