<svg xmlns="http://www.w3.org/2000/svg" width="2048" height="1536" viewBox="0 0 2048 1536"><g fill="none" stroke="#17192D" stroke-width="3"><path d="M816.057 514.16c23.122-54.908 21.68-91.027-4.334-141.608M861.188 525.386c10.125-27.454 36.127-43.36 50.582-65.03M858.298 363.542c27.452 26.02 66.478 49.136 91.033 72.252M554.854 554.283c21.676-21.677 17.336-75.14 4.338-98.26M486.946 434.346c21.676-7.225 43.344 1.448 62.13 8.673M615.54 717.563c14.452 1.446 31.79-.006 44.804-5.78 10.107-5.78 46.232-34.68 44.795-40.458M638.662 603.41c17.345 10.114 59.24 28.9 62.14 46.243M725.354 548.502c-11.548 20.225-15.885 39.014-17.333 62.128M783.165 586.07c-7.226 10.116-8.667 23.127-17.343 31.792M812.055 614.968c.005 5.78-1.436 8.673-4.338 11.56M755.71 320.203c-5.785-2.898-11.564-5.784-17.34-10.123M809.174 301.415c-2.897-4.344-7.22-7.23-13.003-8.666M647.702 375.068c-14.452-1.446-30.354 0-43.356 4.327M840.837 641.254c1.405 6.35-26.806-5.646-31.042-7.763M796.393 628.557c-7.764 2.82-19.043-1.412-27.515-5.645M753.36 624.316c-.708-.696-30.325 5.646-37.383 5.646.7 6.357-2.82 12.005-9.168 14.12M436.632 426.112c13.396-1.414 28.213-11.286 40.913-14.817 15.52-4.23 31.74-8.463 47.962-9.877 16.226-1.414 26.104-1.402 40.925-7.763 10.574-4.226 24.69-4.222 33.856-9.165M646.138 366.872c2.807-17.64 24.684-26.105 37.386-35.275 17.628-13.402 32.453-24.694 55.024-24.69M743.467 304.8c9.17-15.518 33.165-20.457 50.097-19.75M826.005 276.585c-11.28-2.82-23.276-2.817-33.158 4.94M771.462 462.645c-1.403-2.828-3.525-6.353-6.348-7.762 0-7.058 1.41-16.93-4.938-21.16M772.872 456.998c2.822-4.23 2.115-7.055-2.118-9.172M651.774 437.41c-.707-5.647-2.818-11.28-2.123-17.636.72-5.65 4.24-9.877 3.533-16.932M554.428 459.28c3.532-4.23 4.935-9.168 4.233-14.106-4.944-2.82-9.876-.704-11.995 3.528M699.037 668.08c-2.118 2.83 2.83 1.417 6.347.714 16.934-3.53 0-9.165-7.756-12.702M553.684 854.926c-2.37-9.025-18.895 4.924-24.508 7.562-5.19 2.414-18.326 3.425-20.51 7.848-2.414.18-5.648.66-8.083.16M2048 0M2048 1536M0 1536M0 0"/></g></svg>