<?xml version="1.0" encoding="iso-8859-1"?>
<!-- Generator: Adobe Illustrator 15.1.0, SVG Export Plug-In . SVG Version: 6.00 Build 0)  -->
<!DOCTYPE svg PUBLIC "-//W3C//DTD SVG 1.1//EN" "http://www.w3.org/Graphics/SVG/1.1/DTD/svg11.dtd">
<svg version="1.1" xmlns="http://www.w3.org/2000/svg" xmlns:xlink="http://www.w3.org/1999/xlink" x="0px" y="0px" width="2048px"
	 height="1536px" viewBox="0 0 2048 1536" style="enable-background:new 0 0 2048 1536;" xml:space="preserve">
<g id="e2a_x5F_arm_x5F_r">
	<g>
		<path style="fill:none;stroke:#17192D;stroke-width:3;" d="M393.021,479.143c14.449-24.565,93.92-118.487,70.804-145.943"/>
		<path style="fill:none;stroke:#17192D;stroke-width:3;" d="M651.998,184.038c-68.429,25.284-130.371,58.13-195.396,97.141
			c-30.342,17.343-54.916,37.569-78.032,66.479c-14.449,15.886-23.122,34.675-36.125,50.564c-13,14.457-21.676,27.456-28.9,47.691
			c-11.553,32.509-23.116,67.911-26.004,102.59"/>
		<path style="fill:none;stroke:#17192D;stroke-width:3;" d="M479.274,344.222c10.112,15.896,137.719-84.266,157.954-94.384"/>
		<path style="fill:none;stroke:#17192D;stroke-width:3;" d="M397.124,489.613c4.939,4.23,6.349,9.878,5.647,16.219"/>
		<path style="fill:none;stroke:#17192D;stroke-width:3;" d="M654.325,183.515c0-5.087,2.542-6.782,7.623-7.634"/>
	</g>
	<path style="fill:none;stroke:#17192D;stroke-width:3;" d="M2048,0"/>
	<path style="fill:none;stroke:#17192D;stroke-width:3;" d="M2048,1536"/>
	<path style="fill:none;stroke:#17192D;stroke-width:3;" d="M0,1536"/>
	<path style="fill:none;stroke:#17192D;stroke-width:3;" d="M0,0"/>
</g>
<g id="Layer_1">
</g>
</svg>
