<svg xmlns="http://www.w3.org/2000/svg" width="2048" height="1536" viewBox="0 0 2048 1536"><g fill="none" stroke="#17192D" stroke-width="3"><path d="M287.387 550.05c.74.11 1.483.28 2.228.41.17-.605.33-1.275.533-1.775l-2.76 1.364zm209.817 83.683c-30.37-16.467-67.638-32.927-100.766-43.903-33.774-12.074-72.83-33.32-106.824-39.37-2.2 7.763-2.228 23.717-2.232 33.89-4.137 65.847-5.52 133.064-1.37 198.92 1.375 31.547 8.28 63.098 9.66 94.65 1.375 35.668 0 78.195 34.508 98.767 55.218 31.558 120.088-27.435 162.886-56.24 28.987-19.2 57.976-37.038 84.204-63.106 11.048-10.972 23.465-23.316 34.51-34.288 8.286-8.23 34.513-21.955 38.643-32.933 17.948-39.78-122.843-138.55-153.22-156.387zm55.99 215.208c-8.612 6.892-22.398 9.474-32.738 15.503-12.924 6.896-11.202 13.785-18.084 24.126-10.346 14.64-34.467 20.674-47.393 34.46l6.89-6.89c-14.654 6.89-17.23 18.092-36.183 17.236-13.78-.86-35.323-5.178-44.797-15.514-7.757-9.48-21.544-25.848-23.264-38.767-2.585-17.236 8.612-26.71 16.373-40.502 6.883-13.78 4.3-34.462 18.086-45.657 14.65-11.21 39.63-13.78 56.86-9.48 16.38 5.174 32.746 12.064 49.98 15.508 5.167.86 5.167 2.584 12.06.86 4.31-.86 8.612-7.755 12.917-6.888 7.763 2.584 1.724 16.374 15.51 16.37-1.725 1.72-2.58 4.304-4.308 6.028 14.648-.867 11.202 12.925 21.537 17.23-4.305 6.03-4.305 10.337-9.475 15.51 1.722.004 4.305.867 6.028.867zM2048 0M2048 1536M0 1536M0 0"/></g></svg>