<svg xmlns="http://www.w3.org/2000/svg" width="2048" height="1536" viewBox="0 0 2048 1536"><g fill="none" stroke="#17192D" stroke-width="3"><path d="M1716.02 826.143c20.55 3.234 41.17-.016 61.39-.158 16.034-.19 41.47 1.328 57.887-3.998M1731.595 903.902c7.464-.562 13.75-4.21 21.212-4.764 6.325-.723 12.55.282 19.027-.085 13.785-1.274 28.456-1.026 42.017 1.988 15.484 3.49 35.77 4.775 49.69-4.337M1636.078 871.393c9.697 7.682 13.457 21.196 22.787 29.02 11.27 9.607 14.937 12.56 29.358 14.037 6.4.82 23.892-4.9 29.935-6.636M1867.816 894.312c4.473-.16 8.375-2.21 12.872-2 3.51.16 8.94.467 11.57-1.796 3.806-3.286.212-6.774-3.526-8.413-3.152-1.37-8.758-1.22-11.94-.328-.13.053-.245.107-.366.158M1878.307 867.5c-.595-.068-.732-.44-1.318-.206 6.437 1.286 14.297-4.71 19.75 1.644 1.93 2.246 3.835 6.66 1.255 9.037-1.18 1.09-2.626.537-3.94.77-1.764.31-3.51 1.13-5.316 1.048M1875.69 847.783c6.115-.008 13.074-1.13 18.832 1.902 4.67 2.436 8.1 16.23-.266 15.652M1856.053 849.377c2.812.037 5.593-1.086 8.442-.756M1855.393 867.51c2.24-.908 5.637-.396 8.082-.6M1854.255 879.318c1.905-.658 3.99-.117 5.95-.57M1694.433 881.883c4.06 4.113 9.664 7.73 15.544 9.39M1855.514 836.473c.837-1.3 2.982-1.397 5.194-.398M1839.028 820.115c-1.573-.372 6.392-2.213 7.93-2.43 4.693-.91 9.21.697 13.948.377 8.886-.59 19.603-7.61 28.33-1.647M1871.917 835.062c2.35-2.178 13.647-2.338 17.442-2.47 6.65-.08 16.932 7.677 7.874 12.797M1890.523 817.818c3.51 2.62 5.085 8.475 3.69 12.488M2048 0M2048 1536M0 1536M0 0"/></g></svg>