<?xml version="1.0" encoding="iso-8859-1"?>
<!-- Generator: Adobe Illustrator 15.1.0, SVG Export Plug-In . SVG Version: 6.00 Build 0)  -->
<!DOCTYPE svg PUBLIC "-//W3C//DTD SVG 1.1//EN" "http://www.w3.org/Graphics/SVG/1.1/DTD/svg11.dtd">
<svg version="1.1" xmlns="http://www.w3.org/2000/svg" xmlns:xlink="http://www.w3.org/1999/xlink" x="0px" y="0px" width="2048px"
	 height="1536px" viewBox="0 0 2048 1536" style="enable-background:new 0 0 2048 1536;" xml:space="preserve">
<g id="e2a_x5F_fuss_x5F_l">
	<g>
		<path style="fill:none;stroke:#17192D;stroke-width:3;" d="M1716.021,826.143c20.549,3.234,41.17-0.016,61.39-0.158
			c16.033-0.19,41.469,1.328,57.886-3.998"/>
		<path style="fill:none;stroke:#17192D;stroke-width:3;" d="M1731.595,903.902c7.464-0.562,13.751-4.209,21.212-4.764
			c6.325-0.723,12.55,0.282,19.027-0.085c13.785-1.274,28.456-1.026,42.017,1.988c15.483,3.489,35.769,4.774,49.688-4.338"/>
		<path style="fill:none;stroke:#17192D;stroke-width:3;" d="M1636.078,871.393c9.697,7.682,13.457,21.196,22.787,29.021
			c11.27,9.606,14.937,12.558,29.358,14.036c6.4,0.819,23.892-4.901,29.935-6.636"/>
		<path style="fill:none;stroke:#17192D;stroke-width:3;" d="M1867.816,894.312c4.473-0.16,8.375-2.211,12.872-1.999
			c3.509,0.159,8.939,0.466,11.569-1.797c3.807-3.286,0.213-6.774-3.525-8.413c-3.152-1.371-8.758-1.221-11.94-0.328
			c-0.13,0.053-0.245,0.107-0.366,0.158"/>
		<path style="fill:none;stroke:#17192D;stroke-width:3;" d="M1878.307,867.5c-0.595-0.068-0.732-0.441-1.318-0.206
			c6.438,1.286,14.298-4.71,19.752,1.644c1.929,2.246,3.834,6.659,1.254,9.037c-1.181,1.089-2.626,0.537-3.939,0.771
			c-1.765,0.309-3.51,1.128-5.317,1.047"/>
		<path style="fill:none;stroke:#17192D;stroke-width:3;" d="M1875.691,847.783c6.114-0.008,13.073-1.129,18.831,1.902
			c4.669,2.436,8.101,16.229-0.266,15.652"/>
		<path style="fill:none;stroke:#17192D;stroke-width:3;" d="M1856.053,849.377c2.812,0.037,5.593-1.086,8.442-0.756"/>
		<path style="fill:none;stroke:#17192D;stroke-width:3;" d="M1855.393,867.511c2.239-0.909,5.637-0.397,8.082-0.601"/>
		<path style="fill:none;stroke:#17192D;stroke-width:3;" d="M1854.255,879.318c1.905-0.658,3.989-0.117,5.95-0.569"/>
		<path style="fill:none;stroke:#17192D;stroke-width:3;" d="M1694.433,881.883c4.06,4.113,9.664,7.729,15.544,9.389"/>
		<path style="fill:none;stroke:#17192D;stroke-width:3;" d="M1855.514,836.473c0.837-1.301,2.982-1.397,5.194-0.398"/>
		<path style="fill:none;stroke:#17192D;stroke-width:3;" d="M1839.028,820.115c-1.573-0.372,6.392-2.213,7.929-2.43
			c4.694-0.909,9.212,0.697,13.949,0.377c8.886-0.59,19.603-7.611,28.331-1.647"/>
		<path style="fill:none;stroke:#17192D;stroke-width:3;" d="M1871.917,835.062c2.349-2.178,13.647-2.338,17.442-2.471
			c6.651-0.078,16.933,7.678,7.875,12.798"/>
		<path style="fill:none;stroke:#17192D;stroke-width:3;" d="M1890.523,817.818c3.509,2.621,5.085,8.475,3.69,12.488"/>
	</g>
	<path style="fill:none;stroke:#17192D;stroke-width:3;" d="M2048,0"/>
	<path style="fill:none;stroke:#17192D;stroke-width:3;" d="M2048,1536"/>
	<path style="fill:none;stroke:#17192D;stroke-width:3;" d="M0,1536"/>
	<path style="fill:none;stroke:#17192D;stroke-width:3;" d="M0,0"/>
</g>
<g id="Layer_1">
</g>
</svg>
