<?xml version="1.0" encoding="iso-8859-1"?>
<!-- Generator: Adobe Illustrator 15.1.0, SVG Export Plug-In . SVG Version: 6.00 Build 0)  -->
<!DOCTYPE svg PUBLIC "-//W3C//DTD SVG 1.1//EN" "http://www.w3.org/Graphics/SVG/1.1/DTD/svg11.dtd">
<svg version="1.1" xmlns="http://www.w3.org/2000/svg" xmlns:xlink="http://www.w3.org/1999/xlink" x="0px" y="0px" width="2048px"
	 height="1536px" viewBox="0 0 2048 1536" style="enable-background:new 0 0 2048 1536;" xml:space="preserve">
<g id="e2a_x5F_wade_x5F_r">
	<g>
		<path style="fill:none;stroke:#17192D;stroke-width:3;" d="M1677.191,417.78c-27.908-7.612-66.634-10.387-97.07-7.852
			c-54.531,3.803-110.331,13.947-164.853,8.874c-34.244-2.537-60.875-14.839-91.312-22.447c-8.866,10.145-27.89,6.339-40.575,6.339"
			/>
		<path style="fill:none;stroke:#17192D;stroke-width:3;" d="M1317.62,303.03c16.492,2.531,31.696,0.372,45.647-3.433
			c25.364-7.61,52.001-10.146,77.359-7.61c53.267,5.078,149.909,34.156,200.827,48.046c28.559,7.794,55.79,15.217,82.426,22.828"/>
		<path style="fill:none;stroke:#17192D;stroke-width:3;" d="M1323.212,318.949c3.755,4.37,7.499,8.751,11.877,12.492"/>
		<path style="fill:none;stroke:#17192D;stroke-width:3;" d="M1323.212,397.696c-1.243-2.498,8.115-15.63,10.628-16.874"/>
		<path style="fill:none;stroke:#17192D;stroke-width:3;" d="M1737.982,432.753c-17.24-3.169-33.572-8.614-55.802-12.696"/>
	</g>
	<path style="fill:none;stroke:#17192D;stroke-width:3;" d="M2048,0"/>
	<path style="fill:none;stroke:#17192D;stroke-width:3;" d="M2048,1536"/>
	<path style="fill:none;stroke:#17192D;stroke-width:3;" d="M0,1536"/>
	<path style="fill:none;stroke:#17192D;stroke-width:3;" d="M0,0"/>
</g>
<g id="Layer_1">
</g>
</svg>
