<svg xmlns="http://www.w3.org/2000/svg" width="2048" height="1536" viewBox="0 0 2048 1536"><g fill="none" stroke="#17192D" stroke-width="3"><path d="M1801.113 413.05c3.433-1.91 8.665-.733 12.205-.16M1976.15 408.744c2.81-.19 5.455-1.66 8.072-2.218 3.104-.65 6.252-1.08 9.312-1.918 4.36-1.203 10.027-2.734 12.826-6.742 2.73-3.88.456-9.55-2.182-12.78-3.392-4.146-6.542-5.104-11.96-4.988-10.325.245-19.864 1.95-29.815 4.958M1957.832 372.366c5.55-.565 11.738-2.03 17.15-3.47 3.418-.92 6.987-2.674 10.555-2.387 3.687.297 7.83 1.46 10.877 3.62 3.752 2.642 3.306 4.672 2.013 8.65M1951.14 360.66c2.82.49 7.98-1.487 10.955-2.126 3.18-.675 6.092-1.403 9.356-1.17 4.627.32 14.313 1.798 13 8.4M1943.407 352.548c5.408-.713 10-4.18 15.508-4.2 4.507-.02 10.06 1.36 11.802 5.922M1935.417 340.735c5.35-2.255 12.516-5.05 18.4-3.754 5.18 1.15 13.51 5.444 11.18 11.677M1932.514 364.99c1.957.125 4.71-.777 6.9-1.14M1923.262 357.45c1.77-.334 4.01-.66 5.965-.994M1937.555 374.473c1.754-.287 5.37-1.414 7.793-1.604M1938.19 390.63c2.18-.175 6.85-1.78 9.528-2.825M1741.906 433.74c16.842 4.724 39.077 26.245 57.716 24.084 15.524-1.62 30.14-12.312 44.446-17.5 32.622-11.357 66.663-13.867 99.835-21.872 9.622-2.223 18.69-5.902 27.85-8.996M1933.32 341.443c-7.707 2.504-23.895 4.463-32.095 5.458-32.383 3.937-60.475 13.505-92.98 17.462-17.036 2.062-34.227 2.902-51.286 1.877-9.37-.73-18.667-.857-28.162-2.804M2048 0M2048 1536M0 1536M0 0"/></g></svg>