<svg xmlns="http://www.w3.org/2000/svg" width="2048" height="1536" viewBox="0 0 2048 1536"><g fill="none" stroke="#17192D" stroke-width="3"><path d="M670.27 171.72s30.558-23.272 48-28.42c17.142-5.06 32.496-5.54 38.992.162 6.5 5.698 8.025 14.306 8.025 14.306M752.606 149.32c6.21 2.138 7.165 6.093 13.015 8.91 2.468 1.33 4.393 2.77 5.21 5.307.682 2.276-.073 4.27.023 6.57.067.602-.07.555.296 1.043M753.34 166.312c4.375 4.363 13.08 4.428 18.432 7.662 1.925 1.232 3.647 2.965 4.248 5.064.5 1.914-.463 8.327.383 10.21M763.653 184.166c2.276 4.933 8.575 3.77 12.387 7.144M761.87 214.534c6.93-2.33 13.81-.554 17.776-6.902 3.156-5.167 2.572-13.173-3.606-16.322M646.723 243.06c10.8-4.246 32.932-12.85 44.18-14.25 0 0 15.356 1.37 29.564-.517 14.212-1.895 18.2-3.66 26.045-4.493 7.83-.82 15.41-.337 15.41-.337s1.487-12.78-12.877-11.748c-14.36 1.04-24.324 1.053-29.093-.373l24.116-4.954s13.674-.32 18.95-2.34M769.612 207.504c-1.556-1.01-2.907-2.096-4.8-2.73M768.15 201.54c-.914 1.31-2.004 2.227-3.413 2.56M747.95 185.4c.896-2.166 3.873-3.377 6.347-3.383M737.348 166.875c.19-2.275 3.35-3.573 5.604-3.084M731.564 151.597c1.685-1.085 3.63-2.084 5.763-2.35M749.33 210.757c-1.19-1.127-1.01-2.552-.106-3.722M2048 0M2048 1536M0 1536M0 0"/></g></svg>