<svg xmlns="http://www.w3.org/2000/svg" width="2048" height="1536" viewBox="0 0 2048 1536"><g fill="none" stroke="#17192D" stroke-width="3"><path d="M393.02 479.143c14.45-24.565 93.92-118.487 70.805-145.943M651.998 184.038c-68.43 25.284-130.37 58.13-195.396 97.14-30.342 17.344-54.916 37.57-78.032 66.48-14.45 15.886-23.122 34.675-36.125 50.564-13 14.457-21.676 27.456-28.9 47.69-11.553 32.51-23.116 67.912-26.004 102.59M479.274 344.222c10.112 15.896 137.72-84.266 157.954-94.384M397.124 489.613c4.94 4.23 6.35 9.878 5.647 16.22M654.325 183.515c0-5.087 2.542-6.782 7.623-7.634M2048 0M2048 1536M0 1536M0 0"/></g></svg>