<?xml version="1.0" encoding="iso-8859-1"?>
<!-- Generator: Adobe Illustrator 15.1.0, SVG Export Plug-In . SVG Version: 6.00 Build 0)  -->
<!DOCTYPE svg PUBLIC "-//W3C//DTD SVG 1.1//EN" "http://www.w3.org/Graphics/SVG/1.1/DTD/svg11.dtd">
<svg version="1.1" xmlns="http://www.w3.org/2000/svg" xmlns:xlink="http://www.w3.org/1999/xlink" x="0px" y="0px" width="2048px"
	 height="1536px" viewBox="0 0 2048 1536" style="enable-background:new 0 0 2048 1536;" xml:space="preserve">
<g id="e2a_x5F_corpus">
	<g>
		<path style="fill:none;stroke:#17192D;stroke-width:3;" d="M816.057,514.16c23.122-54.908,21.681-91.027-4.334-141.608"/>
		<path style="fill:none;stroke:#17192D;stroke-width:3;" d="M861.188,525.386c10.125-27.454,36.127-43.361,50.582-65.03"/>
		<path style="fill:none;stroke:#17192D;stroke-width:3;" d="M858.298,363.542c27.452,26.019,66.478,49.136,91.033,72.252"/>
		<path style="fill:none;stroke:#17192D;stroke-width:3;" d="M554.854,554.283c21.676-21.677,17.336-75.14,4.338-98.261"/>
		<path style="fill:none;stroke:#17192D;stroke-width:3;" d="M486.946,434.346c21.676-7.225,43.344,1.448,62.129,8.673"/>
		<path style="fill:none;stroke:#17192D;stroke-width:3;" d="M615.541,717.563c14.451,1.446,31.789-0.006,44.803-5.779
			c10.107-5.781,46.232-34.68,44.795-40.459"/>
		<path style="fill:none;stroke:#17192D;stroke-width:3;" d="M638.662,603.411c17.345,10.113,59.241,28.9,62.139,46.242"/>
		<path style="fill:none;stroke:#17192D;stroke-width:3;" d="M725.354,548.502c-11.548,20.225-15.885,39.014-17.333,62.128"/>
		<path style="fill:none;stroke:#17192D;stroke-width:3;" d="M783.165,586.069c-7.226,10.117-8.667,23.128-17.343,31.793"/>
		<path style="fill:none;stroke:#17192D;stroke-width:3;" d="M812.055,614.968c0.005,5.78-1.436,8.673-4.338,11.56"/>
		<path style="fill:none;stroke:#17192D;stroke-width:3;" d="M755.711,320.203c-5.786-2.898-11.565-5.784-17.341-10.123"/>
		<path style="fill:none;stroke:#17192D;stroke-width:3;" d="M809.174,301.415c-2.897-4.344-7.221-7.231-13.003-8.666"/>
		<path style="fill:none;stroke:#17192D;stroke-width:3;" d="M647.702,375.068c-14.452-1.446-30.354,0-43.356,4.327"/>
		<path style="fill:none;stroke:#17192D;stroke-width:3;" d="M840.837,641.254c1.405,6.349-26.806-5.646-31.042-7.763"/>
		<path style="fill:none;stroke:#17192D;stroke-width:3;" d="M796.393,628.557c-7.764,2.821-19.043-1.412-27.515-5.645"/>
		<path style="fill:none;stroke:#17192D;stroke-width:3;" d="M753.36,624.316c-0.708-0.696-30.325,5.646-37.383,5.646
			c0.7,6.357-2.819,12.005-9.168,14.12"/>
		<path style="fill:none;stroke:#17192D;stroke-width:3;" d="M436.632,426.112c13.396-1.414,28.213-11.286,40.913-14.817
			c15.52-4.229,31.74-8.463,47.962-9.877c16.226-1.414,26.104-1.402,40.925-7.763c10.574-4.226,24.69-4.222,33.856-9.165"/>
		<path style="fill:none;stroke:#17192D;stroke-width:3;" d="M646.138,366.872c2.807-17.639,24.684-26.105,37.386-35.275
			c17.628-13.402,32.453-24.694,55.024-24.69"/>
		<path style="fill:none;stroke:#17192D;stroke-width:3;" d="M743.467,304.8c9.17-15.518,33.165-20.457,50.097-19.751"/>
		<path style="fill:none;stroke:#17192D;stroke-width:3;" d="M826.005,276.585c-11.281-2.82-23.276-2.817-33.158,4.94"/>
		<path style="fill:none;stroke:#17192D;stroke-width:3;" d="M771.462,462.645c-1.403-2.828-3.525-6.353-6.348-7.762
			c0-7.058,1.409-16.929-4.938-21.161"/>
		<path style="fill:none;stroke:#17192D;stroke-width:3;" d="M772.872,456.998c2.822-4.229,2.115-7.055-2.118-9.172"/>
		<path style="fill:none;stroke:#17192D;stroke-width:3;" d="M651.774,437.41c-0.707-5.647-2.818-11.279-2.123-17.636
			c0.72-5.65,4.238-9.877,3.532-16.932"/>
		<path style="fill:none;stroke:#17192D;stroke-width:3;" d="M554.428,459.281c3.532-4.231,4.935-9.169,4.233-14.107
			c-4.945-2.819-9.877-0.704-11.996,3.528"/>
		<path style="fill:none;stroke:#17192D;stroke-width:3;" d="M699.037,668.081c-2.118,2.829,2.829,1.416,6.347,0.713
			c16.934-3.529,0-9.165-7.756-12.702"/>
		<path style="fill:none;stroke:#17192D;stroke-width:3;" d="M553.684,854.926c-2.371-9.025-18.895,4.924-24.508,7.562
			c-5.19,2.414-18.326,3.425-20.511,7.848c-2.413,0.179-5.647,0.659-8.082,0.159"/>
	</g>
	<path style="fill:none;stroke:#17192D;stroke-width:3;" d="M2048,0"/>
	<path style="fill:none;stroke:#17192D;stroke-width:3;" d="M2048,1536"/>
	<path style="fill:none;stroke:#17192D;stroke-width:3;" d="M0,1536"/>
	<path style="fill:none;stroke:#17192D;stroke-width:3;" d="M0,0"/>
</g>
<g id="Layer_1">
</g>
</svg>
