<svg xmlns="http://www.w3.org/2000/svg" width="2048" height="1536" viewBox="0 0 2048 1536"><g fill="none" stroke="#17192D" stroke-width="3"><path d="M547.273 849.44c-1.202-5.39 5.476-5.328 9.08-7.07-.988-.245-2.434-.925-3.445-1.33.776-1.993.012-4.052 1.596-6.06-3.808-.675-8.04-.255-11.484.776 4.52-4.318 13.144-2.956 10.525-11.814-1.957.488-4.4-.19-6.14.644.256-.93.325-2.45.65-3.343-.507-.14-1.033-.24-1.542-.336-.193-.86-.08-1.608-.292-2.477-3.47 1.238-7.666 2.1-11.494 2.717 3.34-1.957 6.608-3.584 6.91-7.272-1.452.19-2.796.393-4.29.695.25-.822.473-2.51.68-3.392-1.854.24-4.385-.686-6.235-.324 2.18-1.913 2.685-4.62 3.44-7.045-5.35-1.548-10.46 2.876-12.55 6.106 2.056-.45 4.954.64 7.058.3.182 6.444-.764 13.036 7.6 9.937.02-.02-.9 2.236-1.868 3.47 4.524.29 9.792 1.288 13.307-1.683-4.46 1.205-7.465 3.556-11.42 5.688-.345 1.553-.392 3.694.027 5.236 1.088-1.053 2.893-1.605 4.03-2.73-2.35 3.54-1.08 4.426 2.978 4.795-1.484 4.202-1.873 9.895 4.37 9.15.01.907-.35 2.47-.43 3.39 1.77-.05 2.58-.273 4.28-.932.572-2.02 1.69-3.37 1.983-5.33M487.77 883.308c-9.797-.686-9.1 23.795-21.818 23.966-2.813 4.664-7.363 1.266-12.097 2.562-4.76 1.303-6.788 4.88-11.854 5.508-7.31.92-15.85-4.174-22.75-5.625-2.09-12.94 16.54-31.587 27.37-37.386 9.59-5.137 35.313-3.498 40.235 8.23M464.884 831.137c-4.653-3.238-12.86 11.383-16.727 15.332-4.273 4.378-8.747 8.403-15.305 10.095-9.73 2.487-35.153 9.898-40.056-3.71-2.073-5.765 5.625-11.634 10.32-17.214 3.706-4.393 8.32-10.548 13.01-14.76 12.563-11.27 22.583-9.708 36.128-.915 2.766 1.797 12.938 6.186 9.89 8.424M495.097 858.596c-1.074-.63-1.69-1.5-1.833-2.63 2.96-.837 4.658-2.34 7-3.825-4.527-1.167-8.967-1.126-13.27.183.448 3.797 2.86 4.383 6.15 2.36.012-.012-1.34-1.58-.932-.66.94 0 4.72.23 3.927-.01-1.112.005-5.47.005-4.84.01.768.17 1.803-.005 2.6-.005-5.193.804-7.91-3.084-9.69-7.14 5.22.98 9.664-2.2 11.462-6.453-5.546-1.488-10.08 2.316-13.304 6.08 3.076-.254 4.574.17 7.167-1.274-5.847 3.17-9.484 6.582-15.407 8.763 3.285 3.796 10.603 1.88 12.637-2.537-3.015-1.393-5.938-.973-8.793.756 8.16-.143 11.333-2.154 17.306-4.303.786.48 1.925 1.846 2.36 2.372.653-1.398.816-3.017.998-4.37-3.466-.138-7.112-.15-10.547.025.61 1.394 1.58 2.658 2.424 3.505M518.893 800.008c1.203-.543 2.85-1.232 3.594-1.627-4.432-.224-10.42 3.15-14.82 4.382-3.746 1.054-6.914 2.69-10.688 3.908-7.205 2.316-15.93 2.015-18.366 8.904M501.003 801.953c-5.76-8.197-20.596-8.154-29.28-10.633-8.48-2.418-16.82-5.506-25.4-6.475-19.17-2.17-35.27-.533-51.9 10.057-9.776 6.242-11.93 13.027-14.493 23.617-2.308 9.58-6.336 16.542-10.776 25.405-4.536 9.014-9.07 18.04-10.097 28.164-1.084 10.663 2.267 18.7 7.864 27.048 6.248 9.305 11.09 18.035 19.747 25.287 8.086 6.77 16.014 8.664 25.97 10.633 15.21 2.986 39.44-3.413 48.604-16.566 7.272-10.443 14.345-14.39 25.988-19.895 10.303-4.86 21.408-15.504 23.167-27.06M2048 0M2048 1536M0 1536M0 0"/></g></svg>