<svg xmlns="http://www.w3.org/2000/svg" width="2048" height="1536" viewBox="0 0 2048 1536"><g fill="none" stroke-width="3"><g stroke="#FF0050"><path d="M1722.82 796.338c5.03 0 18.854 2.094 23.04-.838 2.934-2.094 1.678-8.378 8.376-8.797 3.352 0 3.352 2.512 5.446 2.932 2.514.838 4.61 0 7.96.416 7.54.842 8.378 1.68 15.916-1.25 4.606-1.678 10.05-2.935 14.66-4.19 10.472-3.352 20.523-4.19 31.415-4.608 10.89-.838 24.292-2.513 34.764-5.444 10.055-2.094 18.43-5.448 28.48-4.188-.836.418-1.257.418-1.674.835 1.258 2.51 3.353 4.19 5.864 4.606-2.512-1.673-5.447-3.77-7.118-6.7 7.955-3.766 22.615 2.932 30.573 4.19 11.31 2.094 21.783 5.863 31.833 11.31 9.634 5.863 19.27 10.468 25.55 20.104 7.54 12.15 15.918 23.037 23.457 35.185 7.96 12.566-6.28 22.198-16.752 28.902-9.635 6.282-22.62 5.024-33.51 5.024-31.416 0-62.41-5.444-93.406-9.632-26.385-3.773-52.356 10.05-78.747 9.216-10.05-.42-19.266-1.68-28.48-6.704-5.446-2.93-6.702-4.608-12.985-4.608-4.606-.416-9.215.42-13.823 0-1.675-.416-3.77-1.254-5.443-2.095M1749.21 806.387c-7.958 1.68-9.214 24.297-10.053 30.998M1764.292 805.136c-3.77 5.442-4.61 11.73-7.122 18.007M1787.326 856.232c5.03 0 10.053 5.027 14.66 6.7M1827.957 860.002c9.216-3.77 22.2-2.094 32.67-2.094M1748.79 852.883c-2.51.417-6.28 5.443-10.47 6.28M1969.53 860.838c.837 3.353 2.51 6.286 4.607 8.38M1885.34 858.326c2.512 2.512 7.12 3.77 10.89 6.286"/></g><path d="M2048 0M2048 1536M0 1536M0 0" stroke="#17192D"/></g></svg>