<svg xmlns="http://www.w3.org/2000/svg" width="2048" height="1536" viewBox="0 0 2048 1536"><g fill="none" stroke-width="3"><g stroke="#FF0050"><path d="M255.96 956.337c-1.675-18.85-12.988-36.856-19.687-54.453-3.77-10.47-8.794-20.103-15.08-29.317-7.12-10.473-13.823-13.823-26.387-13.823-48.17 0-62.83 63.667-68.693 100.947-3.353 23.038-3.353 47.33-4.188 70.368-.84 25.133 0 51.103 1.676 75.812 1.256 20.524 2.092 46.493 9.632 66.182 8.376 22.2 33.092 25.13 53.615 18.85 22.62-6.704 37.697-19.272 49.005-41.05 4.608-9.215 7.54-18.848 10.893-28.064 1.675-5.443 3.77-9.633 4.19-15.917.416-3.35.833-7.956 2.93-10.47M127.788 942.516c-20.522 5.865-41.467 5.865-58.22 20.943-8.376 7.117-18.852 15.077-25.13 24.292-6.284 9.633-6.703 20.105-6.703 31.412-.417 20.943 5.862 43.984 22.616 56.13 9.218 6.282 15.918 15.5 27.228 19.687 9.214 3.352 18.432 6.28 27.646 9.217 2.512.837 5.026 2.513 7.538 3.35-.835 0-1.256 0-2.096-.417M186.848 1114.667c-13.04 4.136-30.752-.042-40.23-9.258-2.84-2.76-5.525-4.9-7.405-8.357-1.658-3.046-2.762-6.766-3.987-10.115-2.732-7.47-4.293-14.75-5.344-22.53-1.077-8.007-1.69-15.72-3.327-23.88-1.544-7.698-.002-15.15-.022-23.033-.02-8.396 1.08-16.58 1.99-24.733.806-7.238 1.474-13.572 5.84-19.633 3.61-5.006 7.036-10.023 9.87-15.553 2.04-3.975 3.404-8.232 5.947-11.957 3.3-4.818 7.06-6.606 12.68-7.75 7.028-1.434 14.708-2.648 21.89-1.964 2.642.25 6.04.592 8.152 2.404.51.44 3.22 5.643 2.32 5.46 2.098.423 4.61 1.26 6.288 2.516-1.676 2.096-3.35 3.77-4.61 5.866 1.26 0 3.35 1.673 5.028 1.673-1.68 2.513-5.027 2.934-7.122 5.03.835 0 2.932.836 3.77.836-3.353 2.93-8.793 3.35-12.984 5.443h3.35c-6.702 3.354-12.984 5.45-19.27 9.636.422 0 .84 0 1.26.42-2.512 2.092-6.284 3.348-7.96 6.28 11.308 1.258-5.444 15.915-6.7 19.688.42 0 1.255.418 1.672.418-4.186 0-10.89 6.702-9.215 10.05-5.443 2.515-6.28 9.634-11.73 11.73 6.287-2.097 17.18-7.956 23.04-4.187-7.12 3.348-13.82 5.022-18.85 11.728 4.192 1.67 9.215 2.09 11.312 6.697-2.513 0-10.472-.836-10.052 3.354 0 .415 8.375 6.278 9.213 7.537 5.448 5.026 12.15 10.89 15.498 17.593-1.673 0-3.348 1.255-5.025 1.675 2.93 6.283 4.19 12.565 9.632 18.012-3.348 3.77 1.26 6.283 4.608 7.12-6.282 4.608 2.094 5.86 5.447 7.12-.42.42-.838 2.096-2.095 2.932 2.095 1.256 4.186 1.675 6.703.837 1.255 1.256 6.7.838 6.28 3.352M215.334 951.732c2.512-3.352 14.24-3.352 15.914 1.254M210.305 1108.385c-.838 0-1.675-.418-2.934.418 5.45 0 11.727 2.515 16.337-.836M213.317 987.84c19.943 11.133 41.74 19.014 61.222 30.608 14.835 8.346 33.85 16.696 46.374 27.828-15.768 12.058-36.638 18.55-55.192 24.58-18.085 5.567-38.027 12.985-57.04 13.45-5.1-8.35-5.568-19.016-11.13-26.9-4.64-6.957-17.624-17.16-14.38-27.36 2.785-8.813 17.626-9.74 22.726-17.163 3.71-6.03 4.175-21.332 9.274-24.116M205.437 1024.48c3.71-.467 8.808-1.395 10.663-4.64M206.364 1050.45c1.39-2.318 6.954 7.884 8.347 8.345M192.448 1033.29c7.884.927 16.234 3.71 23.652 6.03 9.74 2.318 20.407 1.854 30.608 3.245 19.014 2.317 37.568 4.64 56.584 4.64M192.448 1110.278c-6.954 11.592 4.64 11.592 13.45 12.056 9.74.464 24.58-.464 32-8.81 3.712-4.175 2.784-11.596 6.955-15.306 2.784-2.32 12.524-4.176 16.235-6.03 7.886-3.712 12.984-9.274 19.94-14.377M205.437 952.593c.46 0-1.395-.464-1.855-.464-.93-20.87 58.435-13.913 47.305 10.667 18.087 12.523 35.245 17.62 45.45 38.03"/></g><path d="M2048 0M2048 1536M0 1536M0 0" stroke="#17192D"/></g></svg>