<?xml version="1.0" encoding="iso-8859-1"?>
<!-- Generator: Adobe Illustrator 15.1.0, SVG Export Plug-In . SVG Version: 6.00 Build 0)  -->
<!DOCTYPE svg PUBLIC "-//W3C//DTD SVG 1.1//EN" "http://www.w3.org/Graphics/SVG/1.1/DTD/svg11.dtd">
<svg version="1.1" xmlns="http://www.w3.org/2000/svg" xmlns:xlink="http://www.w3.org/1999/xlink" x="0px" y="0px" width="2048px"
	 height="1536px" viewBox="0 0 2048 1536" style="enable-background:new 0 0 2048 1536;" xml:space="preserve">
<g id="e2b_x5F_kopf">
	<g>
		<path style="fill:none;stroke:#FF0050;stroke-width:3;" d="M255.961,956.337c-1.676-18.849-12.989-36.856-19.688-54.453
			c-3.769-10.47-8.794-20.103-15.081-29.317c-7.118-10.473-13.822-13.823-26.386-13.823c-48.171,0-62.829,63.667-68.693,100.947
			c-3.353,23.037-3.353,47.329-4.188,70.367c-0.841,25.133,0,51.103,1.676,75.812c1.255,20.524,2.091,46.493,9.631,66.182
			c8.376,22.2,33.092,25.13,53.615,18.849c22.619-6.703,37.697-19.271,49.005-41.049c4.608-9.215,7.541-18.848,10.893-28.064
			c1.675-5.443,3.77-9.633,4.19-15.917c0.416-3.35,0.833-7.957,2.929-10.47"/>
		<path style="fill:none;stroke:#FF0050;stroke-width:3;" d="M127.788,942.516c-20.522,5.865-41.467,5.865-58.22,20.943
			c-8.376,7.118-18.852,15.078-25.131,24.293c-6.283,9.633-6.702,20.105-6.702,31.412c-0.417,20.943,5.862,43.984,22.616,56.13
			c9.217,6.282,15.917,15.499,27.227,19.687c9.214,3.351,18.432,6.279,27.646,9.216c2.512,0.837,5.026,2.513,7.538,3.351
			c-0.835,0-1.256,0-2.096-0.418"/>
		<path style="fill:none;stroke:#FF0050;stroke-width:3;" d="M186.848,1114.667c-13.04,4.136-30.752-0.042-40.231-9.258
			c-2.839-2.76-5.524-4.899-7.404-8.356c-1.658-3.046-2.762-6.766-3.987-10.115c-2.732-7.469-4.293-14.75-5.344-22.53
			c-1.077-8.007-1.69-15.72-3.327-23.879c-1.544-7.699-0.002-15.151-0.022-23.034c-0.021-8.396,1.081-16.58,1.991-24.733
			c0.805-7.238,1.473-13.572,5.84-19.633c3.61-5.005,7.035-10.022,9.869-15.552c2.041-3.975,3.404-8.232,5.947-11.957
			c3.299-4.818,7.061-6.606,12.681-7.751c7.027-1.433,14.707-2.647,21.889-1.963c2.642,0.249,6.039,0.592,8.152,2.404
			c0.511,0.439,3.221,5.643,2.321,5.46c2.097,0.423,4.61,1.26,6.287,2.516c-1.676,2.096-3.351,3.771-4.609,5.866
			c1.258,0,3.349,1.673,5.027,1.673c-1.679,2.513-5.027,2.934-7.122,5.029c0.835,0,2.932,0.837,3.77,0.837
			c-3.353,2.928-8.793,3.349-12.984,5.442c0.838,0,2.094,0,3.35,0c-6.702,3.354-12.984,5.449-19.269,9.636
			c0.421,0,0.838,0,1.259,0.421c-2.512,2.092-6.284,3.348-7.96,6.279c11.308,1.259-5.444,15.916-6.701,19.689
			c0.421,0,1.256,0.418,1.673,0.418c-4.186,0-10.889,6.702-9.215,10.049c-5.442,2.516-6.279,9.635-11.729,11.73
			c6.287-2.096,17.179-7.955,23.039-4.186c-7.12,3.349-13.82,5.023-18.848,11.729c4.191,1.67,9.214,2.09,11.311,6.697
			c-2.513,0-10.472-0.836-10.052,3.354c0,0.416,8.375,6.279,9.213,7.538c5.448,5.026,12.149,10.891,15.498,17.593
			c-1.674,0-3.349,1.255-5.026,1.675c2.93,6.283,4.189,12.565,9.632,18.012c-3.348,3.77,1.26,6.283,4.608,7.121
			c-6.282,4.607,2.094,5.859,5.447,7.119c-0.421,0.419-0.838,2.096-2.095,2.932c2.095,1.257,4.186,1.676,6.703,0.838
			c1.255,1.256,6.7,0.838,6.281,3.352"/>
		<path style="fill:none;stroke:#FF0050;stroke-width:3;" d="M215.334,951.732c2.512-3.352,14.24-3.352,15.914,1.254"/>
		<path style="fill:none;stroke:#FF0050;stroke-width:3;" d="M210.305,1108.385c-0.838,0-1.675-0.418-2.934,0.418
			c5.448,0,11.726,2.515,16.336-0.836"/>
		<path style="fill:none;stroke:#FF0050;stroke-width:3;" d="M213.317,987.839c19.943,11.134,41.74,19.015,61.222,30.609
			c14.836,8.346,33.852,16.696,46.375,27.828c-15.768,12.058-36.638,18.551-55.192,24.579c-18.085,5.568-38.027,12.986-57.04,13.45
			c-5.101-8.35-5.568-19.015-11.131-26.898c-4.638-6.958-17.623-17.161-14.378-27.362c2.784-8.812,17.625-9.74,22.725-17.162
			c3.711-6.029,4.175-21.332,9.274-24.116"/>
		<path style="fill:none;stroke:#FF0050;stroke-width:3;" d="M205.437,1024.48c3.711-0.467,8.808-1.395,10.663-4.64"/>
		<path style="fill:none;stroke:#FF0050;stroke-width:3;" d="M206.364,1050.449c1.389-2.317,6.954,7.885,8.347,8.346"/>
		<path style="fill:none;stroke:#FF0050;stroke-width:3;" d="M192.448,1033.289c7.884,0.928,16.234,3.71,23.652,6.03
			c9.739,2.319,20.407,1.855,30.608,3.246c19.014,2.317,37.568,4.64,56.584,4.64"/>
		<path style="fill:none;stroke:#FF0050;stroke-width:3;" d="M192.448,1110.278c-6.954,11.592,4.64,11.592,13.45,12.056
			c9.741,0.464,24.579-0.464,32.001-8.81c3.711-4.175,2.783-11.596,6.954-15.306c2.784-2.32,12.524-4.176,16.235-6.031
			c7.886-3.711,12.984-9.273,19.941-14.376"/>
		<path style="fill:none;stroke:#FF0050;stroke-width:3;" d="M205.437,952.593c0.461,0-1.395-0.464-1.855-0.464
			c-0.929-20.869,58.435-13.912,47.305,10.668c18.087,12.523,35.245,17.62,45.45,38.029"/>
	</g>
	<path style="fill:none;stroke:#17192D;stroke-width:3;" d="M2048,0"/>
	<path style="fill:none;stroke:#17192D;stroke-width:3;" d="M2048,1536"/>
	<path style="fill:none;stroke:#17192D;stroke-width:3;" d="M0,1536"/>
	<path style="fill:none;stroke:#17192D;stroke-width:3;" d="M0,0"/>
</g>
<g id="Layer_1">
</g>
</svg>
