<?xml version="1.0" encoding="iso-8859-1"?>
<!-- Generator: Adobe Illustrator 15.1.0, SVG Export Plug-In . SVG Version: 6.00 Build 0)  -->
<!DOCTYPE svg PUBLIC "-//W3C//DTD SVG 1.1//EN" "http://www.w3.org/Graphics/SVG/1.1/DTD/svg11.dtd">
<svg version="1.1" xmlns="http://www.w3.org/2000/svg" xmlns:xlink="http://www.w3.org/1999/xlink" x="0px" y="0px" width="2048px"
	 height="1536px" viewBox="0 0 2048 1536" style="enable-background:new 0 0 2048 1536;" xml:space="preserve">
<g id="e2b_x5F_augen">
	<g>
		<path style="fill:none;stroke:#FF0050;stroke-width:3;" d="M176.376,999.479c-0.836-0.416-1.255-0.416-2.096-0.416
			c-17.587-16.755,19.689-40.21,23.879-9.634c1.255,9.634-2.517,19.267-13.402,19.267c-7.962,0-20.944-13.405-10.893-20.109"/>
		<path style="fill:none;stroke:#FF0050;stroke-width:3;" d="M169.674,1074.457c-1.253,0.837-2.094-6.701-1.674-9.217
			c0.838-10.05,10.888-17.169,19.687-10.471c6.283,4.609,7.121,17.593,0.838,23.457c-7.122,5.445-25.132,0.422-20.104-10.471"/>
	</g>
	<path style="fill:none;stroke:#17192D;stroke-width:3;" d="M2048,0"/>
	<path style="fill:none;stroke:#17192D;stroke-width:3;" d="M2048,1536"/>
	<path style="fill:none;stroke:#17192D;stroke-width:3;" d="M0,1536"/>
	<path style="fill:none;stroke:#17192D;stroke-width:3;" d="M0,0"/>
</g>
<g id="Layer_1">
</g>
</svg>
