<?xml version="1.0" encoding="iso-8859-1"?>
<!-- Generator: Adobe Illustrator 15.1.0, SVG Export Plug-In . SVG Version: 6.00 Build 0)  -->
<!DOCTYPE svg PUBLIC "-//W3C//DTD SVG 1.1//EN" "http://www.w3.org/Graphics/SVG/1.1/DTD/svg11.dtd">
<svg version="1.1" xmlns="http://www.w3.org/2000/svg" xmlns:xlink="http://www.w3.org/1999/xlink" x="0px" y="0px" width="2048px"
	 height="1536px" viewBox="0 0 2048 1536" style="enable-background:new 0 0 2048 1536;" xml:space="preserve">
<g id="e2b_x5F_bein_x5F_l">
	<g>
		<path style="fill:none;stroke:#FF0050;stroke-width:3;" d="M1074.253,988.592c-11.729-1.674-28.485,11.728-35.187,20.521
			c-1.677,2.512-8.377,11.729-7.12,13.824c2.93,4.608,14.241-0.419,17.172-1.256c10.475-3.77,18.43-11.309,27.227-18.01
			c5.026-3.353,7.538-4.608,13.823-4.608c4.607,0,12.146,4.19,15.498,0.836"/>
		<path style="fill:none;stroke:#FF0050;stroke-width:3;" d="M1133.308,1001.995c-8.371,1.259-16.333,7.538-23.455,11.31
			c-7.119,4.189-15.077,7.537-22.195,11.729c-10.056,5.024-21.784,9.215-30.576,15.495c-7.963,5.865-15.083,11.308-23.878,16.336
			c-6.282,3.77-16.336,10.472-23.873,9.634"/>
		<path style="fill:none;stroke:#FF0050;stroke-width:3;" d="M981.687,1027.129c6.697,1.251,17.589,0.833,24.708-1.262"/>
		<path style="fill:none;stroke:#FF0050;stroke-width:3;" d="M1132.891,1028.797c12.146-3.764,23.875-4.605,35.187-11.726"/>
		<path style="fill:none;stroke:#FF0050;stroke-width:3;" d="M1159.28,985.239c6.282,0.836,12.566-0.421,18.847,1.253
			c4.188,0.844,8.379,3.773,12.146,5.029c11.309,3.77,25.551,2.514,37.279,2.935c11.729,0,21.78,1.253,31.835-4.608
			c4.187-2.512,8.796-5.029,13.819-4.188c5.448,0.833,8.797,6.28,13.824,7.12c3.77,0.835,7.122-1.258,11.309-2.097
			c5.443-1.255,6.282-0.835,9.635-4.19c2.514-2.512,2.514-6.697,7.96-6.281c5.023,0.422,6.28,5.864,10.05,7.541
			c7.121,3.351,46.495-2.934,45.657,5.027c9.632-7.54,17.174,4.605,17.591,12.984c0.421,9.214,2.934,17.592,7.959,25.551
			c12.146,18.01,1.674,51.516,26.388,60.731c0.421,0,0.837,0,1.679,0"/>
		<path style="fill:none;stroke:#FF0050;stroke-width:3;" d="M1041.998,1141.471c16.335-4.186,32.671-8.371,49.843-9.632
			c14.242-0.835,29.74,2.094,43.563-3.769c10.889-5.027,21.777-7.539,33.928-8.378c15.915-0.837,31.415,4.19,47.751,0.839
			c13.402-2.516,27.644-4.188,40.209-10.055c4.607-2.094,9.634-5.443,14.659-5.861c5.025,0,8.797,1.671,13.822,2.094
			c11.729,0.838,18.01-3.354,28.064-6.701c10.473-3.771,18.432,5.025,29.32,2.932c6.702-1.258,14.24-6.287,18.848-11.311
			c3.77-4.189,5.026-15.076,10.055-17.593"/>
		<path style="fill:none;stroke:#FF0050;stroke-width:3;" d="M1403.473,1088.698c-1.258,0,0,1.674,2.095,1.257
			c-1.256,4.186-6.28,5.864-10.05,7.537c-2.095,1.256-4.19,3.352-6.702,2.935c-3.353-0.419-2.515-3.353-5.026-4.607
			c-3.35-1.679-8.378-0.419-12.147-1.262c-4.188-1.253-5.866-3.347-10.474-1.253"/>
		<path style="fill:none;stroke:#FF0050;stroke-width:3;" d="M1307.136,1096.652c4.606-7.954,12.567-25.128,24.297-25.55"/>
		<path style="fill:none;stroke:#FF0050;stroke-width:3;" d="M1308.812,1056.443c-12.568,11.312-14.244,26.387-20.527,40.631"/>
		<path style="fill:none;stroke:#FF0050;stroke-width:3;" d="M1323.473,1030.058c-7.122,3.769-14.66-9.634-17.593-14.24
			c-6.283-10.054-8.378-13.822-21.364-13.822"/>
		<path style="fill:none;stroke:#FF0050;stroke-width:3;" d="M1337.713,1012.045c1.256,7.541,13.824,12.146,17.174,19.687"/>
		<path style="fill:none;stroke:#FF0050;stroke-width:3;" d="M1363.683,998.643c5.444,10.891,15.916,20.943,24.292,29.737"/>
		<path style="fill:none;stroke:#FF0050;stroke-width:3;" d="M1386.301,1085.765c1.258-7.122,7.958-12.986,5.865-20.941"/>
		<path style="fill:none;stroke:#FF0050;stroke-width:3;" d="M1082.207,1066.496c-7.954,10.057-6.7,23.038-6.7,35.184"/>
		<path style="fill:none;stroke:#FF0050;stroke-width:3;" d="M1020.637,1106.286c-6.705-1.674-5.867,16.757-8.379,20.526"/>
		<path style="fill:none;stroke:#FF0050;stroke-width:3;" d="M988.804,1121.787c1.254-2.095,6.702-3.771,9.214-5.445"/>
		<path style="fill:none;stroke:#FF0050;stroke-width:3;" d="M1387.975,994.456c4.188-2.932,12.147-2.095,17.172-0.419
			c7.961,2.513,5.864,1.254,13.824-2.096c4.608-1.676,9.633-1.676,13.823,0.42c6.283,3.35,5.863,6.283,12.568,2.095
			c4.606-2.515,7.535-6.704,13.399-5.447c2.933,0.839,4.19,3.353,7.543,3.771c2.929,0,5.441-1.676,8.376-2.097
			c10.472-2.091,21.779-2.512,32.673-2.931c10.471-0.416,20.938,0,31.412-0.834c9.214-0.843,18.429-4.19,27.646-6.285
			c9.633-1.68,17.173,0,26.385,0.416c8.382,0.42,15.501-5.441,24.714-0.836c2.516-4.605,10.472-7.117,15.918-6.282
			c2.934,0.838,4.608,3.351,7.961,3.351c2.928,0,5.439-2.935,8.376-2.935c8.793,0,7.538,6.702,15.917,0
			c5.441-4.186,8.377-5.86,15.496-5.86"/>
		<path style="fill:none;stroke:#FF0050;stroke-width:3;" d="M1703.803,1038.014c0-6.282,3.77-13.402,3.35-19.684
			c-1.254-9.217-9.215-17.595-11.309-26.391c-1.674-7.538,1.257-14.24-1.674-21.362c-3.352-7.54-12.567-14.24-14.244-1.674"/>
		<path style="fill:none;stroke:#FF0050;stroke-width:3;" d="M1679.091,990.683c-0.421,10.053-6.286,23.039,3.351,32.255"/>
		<path style="fill:none;stroke:#FF0050;stroke-width:3;" d="M1652.282,983.563c5.863,2.512,10.473,4.188,13.822,10.472"/>
		<path style="fill:none;stroke:#FF0050;stroke-width:3;" d="M1622.123,986.914c0.421,5.447,12.985,13.402,17.593,17.175
			c4.608,3.769,10.472,5.024,14.24,7.956"/>
		<path style="fill:none;stroke:#FF0050;stroke-width:3;" d="M1640.972,1027.962c-1.256,9.634,0.421,18.851,9.216,23.456"/>
		<path style="fill:none;stroke:#FF0050;stroke-width:3;" d="M1669.457,1032.568c-1.259,9.634-4.606,15.92-11.729,22.201
			c-2.933,2.092-9.635,8.795-13.822,7.538c-3.353-0.838-5.448-7.538-7.541-10.472c-5.445,4.19-10.89,10.056-17.592,12.566
			c-4.188,2.096-9.218,2.096-13.822,3.77"/>
		<path style="fill:none;stroke:#FF0050;stroke-width:3;" d="M1702.963,1038.434c-9.632,10.472-28.9,11.308-40.629,11.729"/>
		<path style="fill:none;stroke:#FF0050;stroke-width:3;" d="M1601.182,1069.008c0.42-1.674-8.798,0.838-11.729,1.26
			c-6.699,1.674-12.982,3.348-20.102,3.348c-15.082,0-30.159-1.253-45.24,2.096c-11.729,2.514-22.615,8.38-34.345,10.054
			c-9.217,0.838-19.269,0.417-28.487,0.838c-5.023,0.42-9.63,1.253-14.24-1.259c-2.09,5.867-16.336,13.404-22.199,13.824
			c-8.793,0.837-13.819-8.798-21.36-11.729"/>
		<path style="fill:none;stroke:#FF0050;stroke-width:3;" d="M1405.992,1005.759c3.353,4.607,12.565,14.662,18.014,15.501"/>
		<path style="fill:none;stroke:#FF0050;stroke-width:3;" d="M1441.598,1011.625c-5.446,4.61-5.446,20.524-4.19,26.389
			c1.677,8.377,6.283,18.848,3.768,27.646"/>
		<path style="fill:none;stroke:#FF0050;stroke-width:3;" d="M1460.025,1055.605c-4.606,5.028-12.146,21.783-9.214,28.485"/>
		<path style="fill:none;stroke:#FF0050;stroke-width:3;" d="M1488.929,1069.429c-2.515-7.121,3.35-24.295,4.606-33.093
			c0.839-8.795,8.794-26.387,3.351-33.925"/>
		<path style="fill:none;stroke:#FF0050;stroke-width:3;" d="M1465.472,994.451c-5.863,3.353,0,27.228,7.959,30.155"/>
		<path style="fill:none;stroke:#FF0050;stroke-width:3;" d="M1411.856,1050.16c1.677,4.189,0.421,8.378-0.417,12.566"/>
		<path style="fill:none;stroke:#FF0050;stroke-width:3;" d="M1527.881,999.479c-0.418,4.188,1.258,7.122,2.513,10.887"/>
		<path style="fill:none;stroke:#FF0050;stroke-width:3;" d="M1573.958,993.614c1.674,2.933,3.349,9.633,7.119,10.893"/>
		<path style="fill:none;stroke:#FF0050;stroke-width:3;" d="M1595.736,1011.625c-0.838-6.702-1.257-10.89,6.282-13.404"/>
		<path style="fill:none;stroke:#FF0050;stroke-width:3;" d="M1266.515,1076.553c-1.677,0.836,4.604,9.633,7.119,11.309"/>
	</g>
	<path style="fill:none;stroke:#17192D;stroke-width:3;" d="M2048,0"/>
	<path style="fill:none;stroke:#17192D;stroke-width:3;" d="M2048,1536"/>
	<path style="fill:none;stroke:#17192D;stroke-width:3;" d="M0,1536"/>
	<path style="fill:none;stroke:#17192D;stroke-width:3;" d="M0,0"/>
</g>
<g id="Layer_1">
</g>
</svg>
