<svg xmlns="http://www.w3.org/2000/svg" width="2048" height="1536" viewBox="0 0 2048 1536"><g fill="none" stroke-width="3"><g stroke="#FF0050"><path d="M176.376 999.48c-.836-.417-1.255-.417-2.096-.417-17.587-16.755 19.69-40.21 23.88-9.634 1.254 9.633-2.518 19.266-13.403 19.266-7.962 0-20.944-13.405-10.893-20.11M169.674 1074.457c-1.253.837-2.094-6.7-1.674-9.217.838-10.05 10.888-17.17 19.687-10.47 6.283 4.608 7.12 17.592.838 23.456-7.122 5.445-25.132.422-20.104-10.47"/></g><path d="M2048 0M2048 1536M0 1536M0 0" stroke="#17192D"/></g></svg>