<svg xmlns="http://www.w3.org/2000/svg" width="2048" height="1536" viewBox="0 0 2048 1536"><g fill="none" stroke-width="3"><g stroke="#FF0050"><path d="M1178.975 802.617c10.47 2.516 25.553-.418 37.698.842 11.31 1.25 23.032 2.51 33.505-1.26 12.567-3.77 20.943-8.797 34.35-8.374 11.727.835 24.713 4.186 34.347 10.467 5.862 3.352 11.73 7.96 16.335 12.146 5.443 5.028 8.377 12.567 15.078 15.08M1190.282 933.303c42.305-4.19 84.608-15.498 126.076-23.873 23.876-4.61 48.588-5.447 72.462-12.146 4.606-1.262 12.987-2.936 15.08-5.028M1315.95 799.27c-.84-1.26 11.305-3.775 15.078-3.775 6.28-.417 5.442 2.095 11.308 4.19 2.512.84 7.122-.415 10.053 0 8.794 1.68 13.82 7.538 18.432 14.66 3.348 5.444 6.697 21.364 13.4 22.203M1416.473 786.7c-5.443-1.256-8.377-11.728-15.498-9.632-6.28 1.674-10.05 12.145-17.592 14.66-5.44 1.675-12.145 1.254-18.01 1.254-2.51 0-5.863-.417-8.376 0-4.19.838-7.122 3.77-11.31 5.026M1403.91 892.255c6.7-1.677 12.983 2.512 19.268 0 5.023-2.095 8.797-6.7 12.983-9.217 4.19-2.935 9.214-3.77 13.823-5.444 1.676-.836 3.767-2.515 5.862-2.932 2.932-.42 4.61.836 7.54.836 5.862-.42 9.215-3.768 15.078-3.768 3.77 0 9.635.42 13.824 1.253 4.608.842 7.96 4.61 13.823 3.354 2.512-.84 6.28-3.77 7.96-5.028M1417.73 785.863c7.96-8.38 23.458-10.053 33.51-7.538 8.375 2.512 15.497.417 23.873.417 8.38 0 18.432-5.027 26.808-2.932 5.866 1.258 8.378 3.77 14.663 3.77h17.593c12.146 0 22.617 2.515 34.344 5.03 13.403 2.512 25.132 2.09 38.955.834 12.147-1.677 23.455-1.677 35.604-1.677 6.698-.42 12.562-.42 18.848.842 4.606 1.253 8.793 3.766 13.82 3.766 10.892.42 20.105-10.05 30.158-6.28 9.215 3.35 13.82 17.174 14.24 26.387.422 5.862 3.352 10.47 3.77 16.337.838 5.024-1.673 10.05-2.512 15.493-2.094 12.987 2.094 23.878-9.216 33.513-8.377 7.122-22.198 5.863-31.833 2.513-4.608-1.677-21.36-9.637-20.523-14.66M1670.305 858.743c-11.73-.417-20.526 9.217-31.834 10.055-10.052.838-21.364-4.186-32.252-3.353-22.617 1.68-45.236 1.68-67.855 4.19-5.865.42-26.81 7.958-29.32 0M1495.22 813.09c-2.513-1.26-4.19-23.455-2.513-26.39M1451.24 788.797c2.51 8.376 9.632 13.82 12.145 22.2 1.68 5.86 2.933 11.726 3.352 17.588.42 8.798 2.933 31-3.352 38.117M1420.246 793.82c.417 0 2.513 14.24 3.35 17.594 1.674 7.537 1.257 15.08 0 23.037-2.095 16.338-7.957 33.09-7.54 49.427M1426.946 876.338c-1.257 3.766.42 7.12 2.093 10.89M1399.72 795.494c1.676 3.775 4.607 7.543 6.283 11.312 2.093 4.608 0 9.216 1.677 13.405M1497.312 824.396c-.834 1.674-1.255 3.77-.416 5.865M1510.298 831.52c-.417 6.28-2.932 11.31-2.09 17.59.835 4.19 5.44 10.055 3.345 13.824M1488.52 856.23c-1.26 2.934-2.514 5.866-4.19 8.382M1620.458 799.686c1.677 2.514 3.773 5.025 5.864 7.12M1670.305 805.13c-5.03 13.405-25.55 25.132-22.2 41.886M1640.563 788.797c-2.513 5.023 6.7 10.89 7.96 15.914M1618.366 854.974c-.84 0-.84-.84-2.094-.417-.422 2.934-.838 6.28-2.935 9.213M1693.762 861.678c-4.607-2.094 4.606-13.4 7.538-15.08M1682.45 795.077c2.515 4.608 6.704 7.122 12.145 10.052M1297.098 823.56c3.352 2.934 8.797 5.866 12.983 7.96 5.448 3.35 10.056 7.54 15.503 10.888M1282.438 906.076c3.77-2.512 11.308-2.512 16.336-2.512"/></g><path d="M2048 0M2048 1536M0 1536M0 0" stroke="#17192D"/></g></svg>