<?xml version="1.0" encoding="iso-8859-1"?>
<!-- Generator: Adobe Illustrator 15.1.0, SVG Export Plug-In . SVG Version: 6.00 Build 0)  -->
<!DOCTYPE svg PUBLIC "-//W3C//DTD SVG 1.1//EN" "http://www.w3.org/Graphics/SVG/1.1/DTD/svg11.dtd">
<svg version="1.1" xmlns="http://www.w3.org/2000/svg" xmlns:xlink="http://www.w3.org/1999/xlink" x="0px" y="0px" width="2048px"
	 height="1536px" viewBox="0 0 2048 1536" style="enable-background:new 0 0 2048 1536;" xml:space="preserve">
<g id="e2b_x5F_arm_x5F_r">
	<g>
		<path style="fill:none;stroke:#FF0050;stroke-width:3;" d="M759.6,813.386c-12.735-1.499-23.968-5.989-36.701-7.489
			c-14.234-0.748-25.47-0.748-40.451,1.5c-24.718,5.24-48.687,15.727-71.907,20.969"/>
		<path style="fill:none;stroke:#FF0050;stroke-width:3;" d="M375.342,798.405c0-8.989,15.729-11.233,22.472-14.231
			c14.231-5.992,29.211-11.986,44.944-17.977c11.984-5.242,25.465-8.989,37.45-15.731c5.244-2.997,29.964-14.983,30.713-17.23"/>
		<path style="fill:none;stroke:#FF0050;stroke-width:3;" d="M476.464,775.186c8.987-5.244,20.222-11.987,26.966-20.228
			c9.737-13.481,8.241-25.466,24.714-32.208c14.234-6.745,23.224-10.488,35.208-20.972c9.736-8.989,21.719-17.98,35.954-18.729
			c-5.996,17.979-26.968,35.207-23.221,56.184c2.248,12.733,17.974,41.946,28.462,48.688c-10.488,8.988-26.965,23.967-29.964,33.703
			"/>
		<path style="fill:none;stroke:#FF0050;stroke-width:3;" d="M542.379,784.922c9.736,6.74,25.467,6.74,35.204,6.74"/>
		<path style="fill:none;stroke:#FF0050;stroke-width:3;" d="M552.115,730.99c0.751,8.991-5.243,17.23-10.484,23.968"/>
		<path style="fill:none;stroke:#FF0050;stroke-width:3;" d="M597.058,682.303c6.741-5.246,14.233-10.486,22.471-10.486
			c-1.496,1.495-2.245,3.741-3.743,5.24c18.724-5.992,29.211-4.49,44.193,5.991c6.74,4.495,13.481,8.991,19.47,12.733
			c8.242,4.497,14.234,5.246,21.726,12.735c5.242,5.244,14.23,13.483,17.974,20.975c3.75,7.49,2.25,15.729,5.248,22.473
			c3.74,8.99,10.483,14.232,11.982,23.969c1.497,6.74,2.246,16.479,2.246,23.221c0,4.493-1.5,5.243,0,10.488
			c-1.5,0-2.246-0.752-3.745-0.752"/>
		<path style="fill:none;stroke:#FF0050;stroke-width:3;" d="M694.436,743.723c-4.498,2.246-14.986,1.498-20.975,2.996
			c-7.489,1.501-14.983,4.495-21.724,8.239c-6.74,3.75-11.984,12.739-19.475,11.239"/>
		<path style="fill:none;stroke:#FF0050;stroke-width:3;" d="M664.473,702.525c-5.995,4.491-13.486,8.988-20.224,12.733"/>
		<path style="fill:none;stroke:#FF0050;stroke-width:3;" d="M617.284,688.292c-14.982,2.247-13.485,26.965-22.474,36.702"/>
		<path style="fill:none;stroke:#FF0050;stroke-width:3;" d="M621.775,733.983c-2.992,6.744-5.989,14.237-10.484,20.227"/>
		<path style="fill:none;stroke:#FF0050;stroke-width:3;" d="M594.06,772.188c4.497,5.994,15.731,12.734,19.475,13.485"/>
		<path style="fill:none;stroke:#FF0050;stroke-width:3;" d="M622.522,775.934c-12.731,13.482-4.489,27.714-5.238,42.695"/>
		<path style="fill:none;stroke:#FF0050;stroke-width:3;" d="M710.912,774.435c-18.726-0.747-33.707-2.247-50.932,8.239
			c-8.993,5.246-18.729,11.987-25.47,19.477c-5.243,5.992-7.489,15.73-11.987,20.223"/>
		<path style="fill:none;stroke:#FF0050;stroke-width:3;" d="M717.655,766.197c0,0.748,9.735,8.989,12.731,13.481"/>
		<path style="fill:none;stroke:#FF0050;stroke-width:3;" d="M720.649,795.409c1.498-1.499,5.995,2.249,8.239,5.241"/>
		<path style="fill:none;stroke:#FF0050;stroke-width:3;" d="M667.469,809.643c18.727-5.245,29.211-16.48,47.19-2.996"/>
	</g>
	<path style="fill:none;stroke:#17192D;stroke-width:3;" d="M2048,0"/>
	<path style="fill:none;stroke:#17192D;stroke-width:3;" d="M2048,1536"/>
	<path style="fill:none;stroke:#17192D;stroke-width:3;" d="M0,1536"/>
	<path style="fill:none;stroke:#17192D;stroke-width:3;" d="M0,0"/>
</g>
<g id="Layer_1">
</g>
</svg>
