<?xml version="1.0" encoding="iso-8859-1"?>
<!-- Generator: Adobe Illustrator 15.1.0, SVG Export Plug-In . SVG Version: 6.00 Build 0)  -->
<!DOCTYPE svg PUBLIC "-//W3C//DTD SVG 1.1//EN" "http://www.w3.org/Graphics/SVG/1.1/DTD/svg11.dtd">
<svg version="1.1" xmlns="http://www.w3.org/2000/svg" xmlns:xlink="http://www.w3.org/1999/xlink" x="0px" y="0px" width="2048px"
	 height="1536px" viewBox="0 0 2048 1536" style="enable-background:new 0 0 2048 1536;" xml:space="preserve">
<g id="e2b_x5F_kette">
	<g>
		<path style="fill:none;stroke:#FF0050;stroke-width:3;" d="M310.607,965.738c34.187,1.427,68.377-7.117,102.566,0
			c32.053,5.705,64.816,14.248,94.73,28.496c17.095,8.545,32.052,19.941,48.436,31.339c9.26,6.407,20.654,9.972,12.11,21.367
			c-6.416,7.833-18.523,11.396-27.781,15.67c-30.626,16.38-62.678,24.217-97.579,29.915c-20.653,3.563-42.025,1.425-63.392,0
			c-13.533-0.713-53.422,4.273-61.256-9.972"/>
		<path style="fill:none;stroke:#FF0050;stroke-width:3;" d="M573.43,1038.395c17.812-8.548,33.477-9.971,48.437,7.121
			c-15.667,13.533-39.175,15.671-51.996-3.562c0.712-1.425,1.425-3.559,2.137-4.983c-4.271,0-5.696,0.712-7.834,4.271
			c2.139,1.426,4.99,2.137,7.834,2.137c0.71-2.137-0.712-2.137-0.712-3.557"/>
	</g>
	<path style="fill:none;stroke:#17192D;stroke-width:3;" d="M2048,0"/>
	<path style="fill:none;stroke:#17192D;stroke-width:3;" d="M2048,1536"/>
	<path style="fill:none;stroke:#17192D;stroke-width:3;" d="M0,1536"/>
	<path style="fill:none;stroke:#17192D;stroke-width:3;" d="M0,0"/>
</g>
<g id="Layer_1">
</g>
</svg>
