<?xml version="1.0" encoding="iso-8859-1"?>
<!-- Generator: Adobe Illustrator 15.1.0, SVG Export Plug-In . SVG Version: 6.00 Build 0)  -->
<!DOCTYPE svg PUBLIC "-//W3C//DTD SVG 1.1//EN" "http://www.w3.org/Graphics/SVG/1.1/DTD/svg11.dtd">
<svg version="1.1" xmlns="http://www.w3.org/2000/svg" xmlns:xlink="http://www.w3.org/1999/xlink" x="0px" y="0px" width="2048px"
	 height="1536px" viewBox="0 0 2048 1536" style="enable-background:new 0 0 2048 1536;" xml:space="preserve">
<g id="e2b_x5F_bein_x5F_r">
	<g>
		<path style="fill:none;stroke:#FF0050;stroke-width:3;" d="M1178.975,802.617c10.47,2.516,25.553-0.418,37.698,0.842
			c11.309,1.252,23.032,2.512,33.505-1.26c12.567-3.77,20.943-8.796,34.351-8.373c11.726,0.835,24.712,4.186,34.346,10.467
			c5.862,3.352,11.729,7.959,16.335,12.146c5.443,5.029,8.377,12.568,15.078,15.081"/>
		<path style="fill:none;stroke:#FF0050;stroke-width:3;" d="M1190.282,933.303c42.305-4.189,84.608-15.498,126.076-23.873
			c23.876-4.611,48.588-5.447,72.462-12.146c4.606-1.262,12.987-2.936,15.081-5.028"/>
		<path style="fill:none;stroke:#FF0050;stroke-width:3;" d="M1315.949,799.27c-0.84-1.261,11.306-3.775,15.079-3.775
			c6.28-0.417,5.442,2.095,11.308,4.191c2.512,0.838,7.122-0.416,10.053,0c8.795,1.678,13.822,7.537,18.433,14.659
			c3.348,5.444,6.697,21.364,13.4,22.203"/>
		<path style="fill:none;stroke:#FF0050;stroke-width:3;" d="M1416.473,786.701c-5.443-1.257-8.377-11.729-15.498-9.633
			c-6.281,1.674-10.05,12.145-17.592,14.661c-5.441,1.674-12.145,1.253-18.01,1.253c-2.511,0-5.863-0.417-8.376,0
			c-4.19,0.838-7.122,3.771-11.309,5.026"/>
		<path style="fill:none;stroke:#FF0050;stroke-width:3;" d="M1403.91,892.255c6.699-1.677,12.983,2.512,19.268,0
			c5.023-2.095,8.797-6.7,12.983-9.217c4.189-2.935,9.213-3.769,13.822-5.444c1.676-0.836,3.767-2.515,5.862-2.932
			c2.932-0.42,4.61,0.836,7.54,0.836c5.862-0.419,9.215-3.768,15.078-3.768c3.769,0,9.635,0.42,13.824,1.253
			c4.608,0.842,7.959,4.61,13.823,3.354c2.512-0.84,6.281-3.771,7.96-5.028"/>
		<path style="fill:none;stroke:#FF0050;stroke-width:3;" d="M1417.731,785.863c7.958-8.379,23.457-10.053,33.508-7.538
			c8.376,2.512,15.498,0.417,23.874,0.417c8.379,0,18.432-5.027,26.808-2.932c5.865,1.258,8.377,3.77,14.662,3.77
			c5.864,0,11.729,0,17.593,0c12.146,0,22.617,2.515,34.344,5.029c13.403,2.513,25.132,2.092,38.955,0.835
			c12.147-1.677,23.455-1.677,35.604-1.677c6.699-0.419,12.563-0.419,18.849,0.842c4.606,1.254,8.793,3.767,13.819,3.767
			c10.893,0.421,20.106-10.051,30.159-6.281c9.215,3.35,13.821,17.175,14.241,26.388c0.421,5.862,3.351,10.469,3.77,16.337
			c0.837,5.024-1.674,10.05-2.513,15.493c-2.094,12.987,2.094,23.878-9.216,33.513c-8.377,7.122-22.198,5.863-31.833,2.513
			c-4.608-1.676-21.361-9.636-20.523-14.66"/>
		<path style="fill:none;stroke:#FF0050;stroke-width:3;" d="M1670.305,858.743c-11.729-0.417-20.526,9.217-31.834,10.055
			c-10.053,0.838-21.365-4.186-32.253-3.353c-22.617,1.679-45.236,1.679-67.855,4.19c-5.865,0.419-26.81,7.958-29.319,0"/>
		<path style="fill:none;stroke:#FF0050;stroke-width:3;" d="M1495.221,813.091c-2.514-1.261-4.19-23.456-2.514-26.39"/>
		<path style="fill:none;stroke:#FF0050;stroke-width:3;" d="M1451.239,788.797c2.511,8.376,9.633,13.819,12.146,22.201
			c1.679,5.859,2.933,11.725,3.352,17.587c0.421,8.798,2.933,30.999-3.352,38.117"/>
		<path style="fill:none;stroke:#FF0050;stroke-width:3;" d="M1420.246,793.82c0.417,0,2.513,14.24,3.35,17.594
			c1.674,7.537,1.257,15.079,0,23.037c-2.095,16.337-7.957,33.09-7.54,49.426"/>
		<path style="fill:none;stroke:#FF0050;stroke-width:3;" d="M1426.946,876.338c-1.257,3.766,0.419,7.121,2.093,10.889"/>
		<path style="fill:none;stroke:#FF0050;stroke-width:3;" d="M1399.72,795.494c1.676,3.775,4.607,7.543,6.283,11.312
			c2.093,4.608,0,9.216,1.677,13.405"/>
		<path style="fill:none;stroke:#FF0050;stroke-width:3;" d="M1497.312,824.396c-0.834,1.674-1.255,3.77-0.416,5.865"/>
		<path style="fill:none;stroke:#FF0050;stroke-width:3;" d="M1510.298,831.52c-0.417,6.279-2.932,11.309-2.091,17.59
			c0.836,4.19,5.442,10.055,3.346,13.824"/>
		<path style="fill:none;stroke:#FF0050;stroke-width:3;" d="M1488.519,856.231c-1.258,2.933-2.513,5.865-4.189,8.381"/>
		<path style="fill:none;stroke:#FF0050;stroke-width:3;" d="M1620.458,799.686c1.677,2.514,3.773,5.025,5.864,7.12"/>
		<path style="fill:none;stroke:#FF0050;stroke-width:3;" d="M1670.305,805.129c-5.029,13.406-25.551,25.133-22.201,41.887"/>
		<path style="fill:none;stroke:#FF0050;stroke-width:3;" d="M1640.563,788.797c-2.513,5.023,6.701,10.889,7.959,15.914"/>
		<path style="fill:none;stroke:#FF0050;stroke-width:3;" d="M1618.366,854.974c-0.84,0-0.84-0.839-2.094-0.417
			c-0.422,2.934-0.838,6.281-2.935,9.213"/>
		<path style="fill:none;stroke:#FF0050;stroke-width:3;" d="M1693.762,861.678c-4.607-2.094,4.606-13.401,7.538-15.08"/>
		<path style="fill:none;stroke:#FF0050;stroke-width:3;" d="M1682.449,795.077c2.516,4.608,6.705,7.122,12.146,10.052"/>
		<path style="fill:none;stroke:#FF0050;stroke-width:3;" d="M1297.098,823.559c3.352,2.935,8.797,5.867,12.983,7.962
			c5.447,3.349,10.055,7.539,15.502,10.887"/>
		<path style="fill:none;stroke:#FF0050;stroke-width:3;" d="M1282.438,906.076c3.77-2.512,11.308-2.512,16.336-2.512"/>
	</g>
	<path style="fill:none;stroke:#17192D;stroke-width:3;" d="M2048,0"/>
	<path style="fill:none;stroke:#17192D;stroke-width:3;" d="M2048,1536"/>
	<path style="fill:none;stroke:#17192D;stroke-width:3;" d="M0,1536"/>
	<path style="fill:none;stroke:#17192D;stroke-width:3;" d="M0,0"/>
</g>
<g id="Layer_1">
</g>
</svg>
