<svg xmlns="http://www.w3.org/2000/svg" width="2048" height="1536" viewBox="0 0 2048 1536"><g fill="none" stroke-width="3"><g stroke="#FF0050"><path d="M1074.253 988.592c-11.73-1.674-28.485 11.728-35.187 20.52-1.677 2.513-8.377 11.73-7.12 13.825 2.93 4.608 14.24-.42 17.172-1.256 10.475-3.77 18.43-11.308 27.227-18.01 5.026-3.352 7.538-4.607 13.823-4.607 4.607 0 12.146 4.19 15.498.836M1133.308 1001.995c-8.37 1.26-16.333 7.538-23.455 11.31-7.12 4.19-15.077 7.537-22.195 11.73-10.056 5.023-21.784 9.214-30.576 15.494-7.963 5.864-15.083 11.307-23.878 16.335-6.282 3.77-16.336 10.472-23.873 9.634M981.687 1027.13c6.697 1.25 17.59.832 24.708-1.263M1132.89 1028.797c12.147-3.764 23.876-4.605 35.188-11.726M1159.28 985.24c6.282.835 12.566-.422 18.847 1.252 4.188.844 8.38 3.773 12.146 5.03 11.31 3.77 25.55 2.513 37.28 2.934 11.728 0 21.78 1.253 31.834-4.608 4.187-2.512 8.796-5.03 13.82-4.188 5.447.833 8.796 6.28 13.823 7.12 3.77.835 7.122-1.258 11.31-2.097 5.442-1.255 6.28-.835 9.634-4.19 2.514-2.512 2.514-6.697 7.96-6.28 5.023.42 6.28 5.863 10.05 7.54 7.12 3.35 46.495-2.934 45.657 5.027 9.633-7.54 17.175 4.605 17.592 12.984.42 9.214 2.934 17.592 7.96 25.55 12.145 18.01 1.673 51.517 26.387 60.732h1.678M1041.998 1141.47c16.335-4.185 32.67-8.37 49.843-9.63 14.243-.836 29.74 2.093 43.564-3.77 10.89-5.027 21.777-7.54 33.928-8.378 15.915-.837 31.415 4.19 47.75.84 13.403-2.517 27.645-4.19 40.21-10.056 4.607-2.094 9.634-5.443 14.66-5.86 5.024 0 8.796 1.67 13.82 2.093 11.73.837 18.01-3.355 28.065-6.702 10.473-3.77 18.432 5.025 29.32 2.932 6.702-1.258 14.24-6.287 18.848-11.31 3.77-4.19 5.026-15.077 10.055-17.594M1403.473 1088.698c-1.258 0 0 1.674 2.095 1.257-1.256 4.186-6.28 5.864-10.05 7.537-2.095 1.256-4.19 3.352-6.702 2.935-3.353-.42-2.515-3.353-5.026-4.607-3.35-1.68-8.378-.42-12.147-1.262-4.188-1.253-5.866-3.347-10.474-1.253M1307.136 1096.652c4.606-7.954 12.567-25.128 24.297-25.55M1308.812 1056.443c-12.568 11.312-14.244 26.387-20.527 40.63M1323.473 1030.058c-7.122 3.77-14.66-9.634-17.593-14.24-6.283-10.054-8.378-13.822-21.364-13.822M1337.713 1012.045c1.256 7.54 13.824 12.146 17.174 19.687M1363.683 998.643c5.444 10.89 15.916 20.943 24.292 29.737M1386.3 1085.765c1.26-7.122 7.96-12.986 5.866-20.94M1082.207 1066.496c-7.954 10.057-6.7 23.038-6.7 35.184M1020.637 1106.286c-6.705-1.674-5.867 16.757-8.38 20.526M988.804 1121.787c1.254-2.095 6.702-3.77 9.214-5.445M1387.975 994.456c4.188-2.932 12.147-2.095 17.172-.42 7.96 2.514 5.864 1.255 13.824-2.095 4.61-1.675 9.634-1.675 13.824.42 6.283 3.35 5.863 6.284 12.568 2.096 4.606-2.515 7.535-6.704 13.4-5.447 2.932.838 4.19 3.352 7.542 3.77 2.93 0 5.44-1.676 8.376-2.097 10.472-2.09 21.78-2.512 32.673-2.93 10.47-.417 20.938 0 31.412-.835 9.214-.843 18.43-4.19 27.646-6.285 9.634-1.68 17.174 0 26.386.416 8.382.42 15.5-5.442 24.714-.837 2.516-4.605 10.472-7.117 15.918-6.282 2.934.84 4.608 3.352 7.96 3.352 2.93 0 5.44-2.935 8.377-2.935 8.793 0 7.538 6.702 15.917 0 5.44-4.186 8.377-5.86 15.496-5.86M1703.803 1038.014c0-6.282 3.77-13.402 3.35-19.684-1.254-9.217-9.215-17.595-11.31-26.39-1.673-7.54 1.258-14.24-1.673-21.363-3.352-7.54-12.567-14.24-14.244-1.674M1679.09 990.683c-.42 10.053-6.285 23.04 3.352 32.255M1652.282 983.563c5.863 2.512 10.473 4.188 13.822 10.472M1622.123 986.914c.42 5.447 12.985 13.402 17.593 17.175 4.608 3.768 10.472 5.023 14.24 7.955M1640.972 1027.962c-1.256 9.634.42 18.85 9.216 23.456M1669.457 1032.568c-1.26 9.634-4.606 15.92-11.73 22.2-2.932 2.093-9.634 8.796-13.82 7.54-3.354-.84-5.45-7.54-7.542-10.473-5.445 4.19-10.89 10.056-17.592 12.566-4.188 2.097-9.218 2.097-13.822 3.77M1702.963 1038.434c-9.632 10.472-28.9 11.308-40.63 11.73M1601.182 1069.008c.42-1.674-8.798.838-11.73 1.26-6.698 1.674-12.98 3.348-20.1 3.348-15.083 0-30.16-1.253-45.24 2.096-11.73 2.514-22.616 8.38-34.346 10.054-9.217.838-19.27.417-28.487.838-5.024.42-9.63 1.253-14.24-1.26-2.09 5.868-16.337 13.405-22.2 13.825-8.793.836-13.82-8.8-21.36-11.73M1405.992 1005.76c3.353 4.606 12.565 14.66 18.014 15.5M1441.598 1011.625c-5.446 4.61-5.446 20.524-4.19 26.39 1.677 8.376 6.283 18.847 3.768 27.645M1460.025 1055.605c-4.606 5.028-12.146 21.783-9.214 28.485M1488.93 1069.43c-2.516-7.122 3.35-24.296 4.605-33.094.84-8.795 8.794-26.387 3.35-33.925M1465.472 994.45c-5.863 3.354 0 27.23 7.96 30.156M1411.856 1050.16c1.677 4.19.42 8.378-.417 12.566M1527.88 999.48c-.417 4.187 1.26 7.12 2.514 10.886M1573.958 993.614c1.674 2.933 3.35 9.633 7.12 10.893M1595.736 1011.625c-.838-6.702-1.257-10.89 6.282-13.404M1266.515 1076.553c-1.677.836 4.604 9.633 7.12 11.31"/></g><path d="M2048 0M2048 1536M0 1536M0 0" stroke="#17192D"/></g></svg>