<?xml version="1.0" encoding="iso-8859-1"?>
<!-- Generator: Adobe Illustrator 15.1.0, SVG Export Plug-In . SVG Version: 6.00 Build 0)  -->
<!DOCTYPE svg PUBLIC "-//W3C//DTD SVG 1.1//EN" "http://www.w3.org/Graphics/SVG/1.1/DTD/svg11.dtd">
<svg version="1.1" xmlns="http://www.w3.org/2000/svg" xmlns:xlink="http://www.w3.org/1999/xlink" x="0px" y="0px" width="2048px"
	 height="1536px" viewBox="0 0 2048 1536" style="enable-background:new 0 0 2048 1536;" xml:space="preserve">
<g id="e2b_x5F_jacke">
	<g>
		<path style="fill:none;stroke:#FF0050;stroke-width:3;" d="M980.591,988.171c-1.679,10.055-0.839,23.454,0.837,33.511
			c2.093,12.982,0.837,25.549,0.837,38.535c0,12.146,3.77,22.2,5.023,33.926c0.84,10.891,0,22.201,0.422,33.093c0,0,0,0.418,0,0.837
			"/>
		<path style="fill:none;stroke:#FF0050;stroke-width:3;" d="M1191.802,972.938c-2.996-32.957-7.491-67.414-8.988-99.622
			c-0.751-19.473,4.495-37.448-0.751-56.179c-4.491-16.482-8.236-33.706-13.479-50.184c-5.245-15.732-7.491-39.701-6.744-55.433"/>
		<path style="fill:none;stroke:#FF0050;stroke-width:3;" d="M255.497,959.45c8.993-17.228,24.719-33.706,38.951-46.44
			c9.735-8.237,19.475-16.477,28.463-23.969c8.242-6.742,20.224-21.721,30.711-23.22c-0.749,20.226,29.96,36.702,35.956,55.427"/>
		<path style="fill:none;stroke:#FF0050;stroke-width:3;" d="M304.935,965.446c29.959-20.227,50.184-32.212,86.14-17.23
			c28.462,11.981,59.922,24.72,91.381,27.713c32.957,2.997,65.168,12.732,98.876,15.731c16.478,1.499,32.954,5.988,49.434,2.25
			c18.729-4.497,34.457-17.981,53.182-22.475c22.474-4.495,41.199,7.49,60.674,16.479c12.733,5.996,29.212,20.223,44.191,16.479"/>
		<path style="fill:none;stroke:#FF0050;stroke-width:3;" d="M1191.802,976.682c-33.704,4.496-65.914,8.988-100.368,8.988
			c-17.979,0-35.955-2.248-53.936-2.998c-17.226-0.748-32.955,2.249-50.182,3.748c-33.708,2.994-68.163,5.99-101.874,8.986
			c-31.457,2.996-65.164,13.482-96.625,11.238c-0.749,0-2.995-0.75-2.995-0.75"/>
		<path style="fill:none;stroke:#FF0050;stroke-width:3;" d="M780.574,985.663c-17.227,1.499-32.207-13.48-47.188-19.476
			c-19.475-7.488-36.703-8.988-56.927-7.488"/>
		<path style="fill:none;stroke:#FF0050;stroke-width:3;" d="M380.586,942.967c2.246-9.736,11.233-29.963,17.976-35.953
			c8.242-7.492,14.981,0.75,24.719,5.24c8.989,3.747,18.725,6.743,28.464,10.488c17.226,6.742,35.953,8.988,53.183,16.48
			c17.229,8.986,32.208,22.469,50.183,30.708c19.473,8.241,58.424,20.974,77.899,14.234"/>
		<path style="fill:none;stroke:#FF0050;stroke-width:3;" d="M277.965,1088.281c-8.24,5.992,41.197,30.712,47.191,34.459
			c11.982,5.989,47.188,26.215,59.174,20.971"/>
		<path style="fill:none;stroke:#FF0050;stroke-width:3;" d="M322.157,1089.778c14.981,15.731,37.452,19.475,52.438,34.458
			c5.989,6.742,11.981,14.979,18.724,21.721c3.745,4.497,8.239,8.989,11.984,12.734c2.245,2.248,8.24,5.244,4.492,5.244"/>
		<path style="fill:none;stroke:#FF0050;stroke-width:3;" d="M1183.558,1169.179c-32.21-8.987-68.164-14.231-101.119-19.475
			c-37.455-5.993-72.66-14.981-108.614-24.72c-17.976-5.243-36.699-8.237-55.426-12.732c-18.725-5.243-37.452-12.735-56.925-15.731
			c-37.457-5.992-74.157-16.479-110.863-18.725c-35.201-2.245-70.407-9.736-105.613-8.241c-19.477,0.751-37.452,7.491-56.177,9.737
			c-20.224,2.249-38.2,1.5-57.678,11.236c-23.219,11.987-42.694,29.213-67.412,40.45c-17.228,8.237-32.211,25.471-53.936,32.959"/>
		<path style="fill:none;stroke:#FF0050;stroke-width:3;" d="M360.358,1110.758c2.25-5.995,29.963-2.996,37.456-4.496
			c15.729-2.248,32.208-5.243,48.687-8.987c31.458-8.238,65.17-9.737,97.373-14.98c8.242-1.497,15.734-2.246,23.223-3.745"/>
		<path style="fill:none;stroke:#FF0050;stroke-width:3;" d="M345.38,866.568c-2.248-14.232,6.74-32.208,12.737-44.945
			c8.237-20.973,16.478-23.218,38.95-26.214c17.976-2.247,32.954,0,50.182,5.241c17.23,5.996,35.957,1.5,52.434,7.492
			c37.452,13.48,77.151,22.471,116.103,7.49"/>
		<path style="fill:none;stroke:#FF0050;stroke-width:3;" d="M655.485,876.305c17.976,2.246,35.202-0.748,52.43,3.744
			c17.228,5.244,33.708,7.488,50.935,10.487c34.456,5.243,65.914,8.239,99.625-2.999c8.237-2.99,18.725-6.737,25.465-10.481"/>
		<path style="fill:none;stroke:#FF0050;stroke-width:3;" d="M835.251,879.302c10.487-0.751,24.72-9.74,32.962-15.729"/>
		<path style="fill:none;stroke:#FF0050;stroke-width:3;" d="M852.481,921.998c27.715-5.246,62.921,7.489,86.141,20.225"/>
		<path style="fill:none;stroke:#FF0050;stroke-width:3;" d="M1064.456,950.461c11.238,0,19.477,8.238,29.962,11.236"/>
		<path style="fill:none;stroke:#FF0050;stroke-width:3;" d="M942.364,863.572c18.728-8.989,42.695-14.98,62.921-20.974
			c10.485-2.999,20.971-5.245,31.458-8.989c11.986-4.494,22.475-11.986,34.461-14.98"/>
		<path style="fill:none;stroke:#FF0050;stroke-width:3;" d="M1014.273,753.46c14.229,6.743,47.191,14.237,62.919,14.237"/>
		<path style="fill:none;stroke:#FF0050;stroke-width:3;" d="M1109.403,736.982c2.996,2.25,8.237,3.745,11.982,6.741"/>
		<path style="fill:none;stroke:#FF0050;stroke-width:3;" d="M797.8,860.573c-5.991-5.99-5.243-12.731-9.737-19.476
			c-2.994-5.238-8.989-8.236-11.986-12.732"/>
		<path style="fill:none;stroke:#FF0050;stroke-width:3;" d="M761.849,833.609c-5.249,5.99-2.999,13.483-6.743,19.476"/>
		<path style="fill:none;stroke:#FF0050;stroke-width:3;" d="M570.845,863.572c-9.739,1.498-20.224,0-28.466-4.497"/>
		<path style="fill:none;stroke:#FF0050;stroke-width:3;" d="M578.334,907.764c14.977,2.998,29.962,12.734,44.94,17.23"/>
		<path style="fill:none;stroke:#FF0050;stroke-width:3;" d="M586.571,944.469c-23.968-3.746-37.452-29.961-59.923-38.201"/>
		<path style="fill:none;stroke:#FF0050;stroke-width:3;" d="M559.607,958.699c8.239,7.488,18.727,8.988,26.964,14.982"/>
		<path style="fill:none;stroke:#FF0050;stroke-width:3;" d="M582.083,811.893c9.739,0,29.964,0.749,34.457-4.496"/>
		<path style="fill:none;stroke:#FF0050;stroke-width:3;" d="M740.878,781.18c35.954-1.497,67.416-5.243,103.367-14.23
			c17.23-4.495,34.459-5.995,52.436-7.494c19.478-1.499,38.951-8.988,56.927-13.48c32.958-8.99,68.912-14.233,102.617-14.233
			c18.725,0,33.71-6.741,50.937-11.239c15.728-3.745,31.46-3.745,47.938-5.239c1.499,0,10.488-0.751,3.744-0.751"/>
		<path style="fill:none;stroke:#FF0050;stroke-width:3;" d="M1185.807,1169.187c-10.482,13.479-12.732,34.454-15.73,50.934
			c-4.489,21.724-14.228,42.693-12.731,65.167c-9.737,0.748-15.732-6.742-24.719-8.988c-8.988-2.25-19.478-1.499-28.463-1.499
			c-17.227-1.499-33.707-5.995-50.188-8.988c-19.475-3.747-38.199-7.488-57.675-10.487c-16.478-2.25-31.46-9.738-47.188-11.985
			c-34.453-5.991-68.165-9.737-101.118-16.478c-32.211-5.992-61.423-11.987-94.381-14.232c-19.473-1.499-58.424,5.244-68.912-15.73"
			/>
		<path style="fill:none;stroke:#FF0050;stroke-width:3;" d="M377.59,1146.719c0,0,0-1.499,0.75-2.25c-0.75,0-0.75,0-0.75-0.749l0,0
			c-1.497,12.736,12.732,31.462,18.728,41.95c10.486,17.976,26.215,20.972,46.44,19.473c32.21-2.998,65.167-2.248,97.376-2.248
			c35.204,0,68.911,1.499,103.364-1.5c32.96-3.741,68.163-8.235,101.123-5.238c10.488,0.749,26.965,10.485,35.953,5.238"/>
		<path style="fill:none;stroke:#FF0050;stroke-width:3;" d="M688.445,1101.027c-16.484,2.246-32.213,5.242-47.943,10.487
			c-16.48,5.241-29.958,16.477-44.942,25.466c-20.222,11.237-44.939,29.963-68.909,32.209"/>
		<path style="fill:none;stroke:#FF0050;stroke-width:3;" d="M476.466,1188.664c6.74,3.744,11.983,8.989,17.976,11.983"/>
		<path style="fill:none;stroke:#FF0050;stroke-width:3;" d="M640.502,1201.395c-5.243,6.744,23.971,19.477,30.713,20.977
			c21.72,4.497,34.456-5.99,54.683-8.989"/>
		<path style="fill:none;stroke:#FF0050;stroke-width:3;" d="M751.362,1214.881c2.998,2.248-26.965,22.469-36.703,23.22
			c-11.987,0.749-22.474-4.495-32.961-9.739c-6.739-3.744-25.466-8.987-28.463-14.979"/>
		<path style="fill:none;stroke:#FF0050;stroke-width:3;" d="M609.045,1202.145c11.987,4.497,17.976,6.744,32.207,2.249"/>
		<path style="fill:none;stroke:#FF0050;stroke-width:3;" d="M612.043,947.475c-5.245-4.495,8.988-9.736,14.982-8.24
			c27.713,8.24-23.971,21.721-14.982,5.242"/>
		<path style="fill:none;stroke:#FF0050;stroke-width:3;" d="M725.897,951.217c-5.992,0,1.496-12.732,8.237-11.982
			c10.487,0.749,14.233,17.229,3.747,20.971c-8.986,3.749-14.233-5.99-12.735-13.479"/>
		<path style="fill:none;stroke:#FF0050;stroke-width:3;" d="M850.238,937.731c-5.244-3.745,14.234-7.489,19.478-2.993
			c22.469,17.978-41.948,15.729-19.478,0.748"/>
		<path style="fill:none;stroke:#FF0050;stroke-width:3;" d="M347.69,1100.844c5.026,2.096,20.104-2.931,25.969-6.281
			c9.634-5.447,20.527-12.15,21.78-24.712c0.837-9.634-0.835-18.851-1.674-28.484c0-2.092,0-4.188-0.422-6.702
			c-0.416-3.35-2.092-4.188-2.931-7.118c-2.513-6.286-2.931-14.663-5.863-20.108c-7.121-13.402-17.177-25.548-24.713-38.114
			c-6.704-11.312-18.848-15.499-30.994-16.755"/>
		<path style="fill:none;stroke:#FF0050;stroke-width:3;" d="M1165.308,1163.256c0-0.417,2.091-13.821,2.512-18.012
			c0.839-8.377-3.353-13.823-2.512-21.778"/>
		<path style="fill:none;stroke:#FF0050;stroke-width:3;" d="M1149.018,1195.486c-2.875,5.752-17.26,25.891-25.893,37.402"/>
		<path style="fill:none;stroke:#FF0050;stroke-width:3;" d="M936.114,1181.099c17.26-11.507,37.403-14.383,54.662-20.14"/>
	</g>
	<path style="fill:none;stroke:#17192D;stroke-width:3;" d="M2048,0"/>
	<path style="fill:none;stroke:#17192D;stroke-width:3;" d="M2048,1536"/>
	<path style="fill:none;stroke:#17192D;stroke-width:3;" d="M0,1536"/>
	<path style="fill:none;stroke:#17192D;stroke-width:3;" d="M0,0"/>
</g>
<g id="Layer_1">
</g>
</svg>
