<?xml version="1.0" encoding="iso-8859-1"?>
<!-- Generator: Adobe Illustrator 15.1.0, SVG Export Plug-In . SVG Version: 6.00 Build 0)  -->
<!DOCTYPE svg PUBLIC "-//W3C//DTD SVG 1.1//EN" "http://www.w3.org/Graphics/SVG/1.1/DTD/svg11.dtd">
<svg version="1.1" xmlns="http://www.w3.org/2000/svg" xmlns:xlink="http://www.w3.org/1999/xlink" x="0px" y="0px" width="2048px"
	 height="1536px" viewBox="0 0 2048 1536" style="enable-background:new 0 0 2048 1536;" xml:space="preserve">
<g id="e2b_x5F_fuss_x5F_r">
	<g>
		<path style="fill:none;stroke:#FF0050;stroke-width:3;" d="M1722.821,796.338c5.028,0,18.853,2.094,23.038-0.838
			c2.935-2.094,1.679-8.378,8.377-8.797c3.352,0,3.352,2.512,5.446,2.932c2.514,0.838,4.609,0,7.96,0.416
			c7.539,0.841,8.378,1.679,15.916-1.252c4.606-1.677,10.051-2.934,14.66-4.189c10.472-3.352,20.523-4.191,31.415-4.608
			c10.89-0.838,24.292-2.513,34.764-5.444c10.055-2.094,18.431-5.448,28.48-4.188c-0.836,0.418-1.257,0.418-1.674,0.835
			c1.258,2.511,3.353,4.189,5.864,4.606l0,0c-2.512-1.674-5.447-3.77-7.118-6.702c7.956-3.765,22.616,2.933,30.574,4.19
			c11.311,2.095,21.783,5.864,31.833,11.311c9.634,5.863,19.269,10.468,25.55,20.104c7.539,12.151,15.918,23.037,23.457,35.185
			c7.961,12.567-6.28,22.199-16.752,28.903c-9.636,6.282-22.621,5.024-33.51,5.024c-31.417,0-62.41-5.444-93.407-9.632
			c-26.385-3.773-52.356,10.049-78.747,9.216c-10.05-0.421-19.266-1.679-28.48-6.704c-5.446-2.93-6.702-4.608-12.985-4.608
			c-4.606-0.416-9.215,0.42-13.823,0c-1.674-0.416-3.769-1.254-5.442-2.095"/>
		<path style="fill:none;stroke:#FF0050;stroke-width:3;" d="M1749.21,806.387c-7.958,1.68-9.214,24.297-10.053,30.998"/>
		<path style="fill:none;stroke:#FF0050;stroke-width:3;" d="M1764.292,805.136c-3.77,5.442-4.609,11.729-7.122,18.007"/>
		<path style="fill:none;stroke:#FF0050;stroke-width:3;" d="M1787.326,856.232c5.029,0,10.053,5.027,14.66,6.701"/>
		<path style="fill:none;stroke:#FF0050;stroke-width:3;" d="M1827.957,860.002c9.216-3.77,22.2-2.094,32.671-2.094"/>
		<path style="fill:none;stroke:#FF0050;stroke-width:3;" d="M1748.79,852.883c-2.511,0.417-6.28,5.443-10.471,6.279"/>
		<path style="fill:none;stroke:#FF0050;stroke-width:3;" d="M1969.529,860.838c0.838,3.353,2.512,6.286,4.608,8.381"/>
		<path style="fill:none;stroke:#FF0050;stroke-width:3;" d="M1885.339,858.326c2.513,2.512,7.122,3.77,10.892,6.286"/>
	</g>
	<path style="fill:none;stroke:#17192D;stroke-width:3;" d="M2048,0"/>
	<path style="fill:none;stroke:#17192D;stroke-width:3;" d="M2048,1536"/>
	<path style="fill:none;stroke:#17192D;stroke-width:3;" d="M0,1536"/>
	<path style="fill:none;stroke:#17192D;stroke-width:3;" d="M0,0"/>
</g>
<g id="Layer_1">
</g>
</svg>
