<?xml version="1.0" encoding="iso-8859-1"?>
<!-- Generator: Adobe Illustrator 15.1.0, SVG Export Plug-In . SVG Version: 6.00 Build 0)  -->
<!DOCTYPE svg PUBLIC "-//W3C//DTD SVG 1.1//EN" "http://www.w3.org/Graphics/SVG/1.1/DTD/svg11.dtd">
<svg version="1.1" xmlns="http://www.w3.org/2000/svg" xmlns:xlink="http://www.w3.org/1999/xlink" x="0px" y="0px" width="2048px"
	 height="1536px" viewBox="0 0 2048 1536" style="enable-background:new 0 0 2048 1536;" xml:space="preserve">
<g id="e2b_x5F_hals">
	<g>
		<path style="fill:none;stroke:#FF0050;stroke-width:3;" d="M271.037,970.999c-0.835,0-1.253,0-2.096,0
			c7.962,3.348,22.623,1.253,31.419,1.674c10.885,1.258,21.779,1.674,32.251,3.769c6.28,3.771,13.402,10.895,18.426,16.756
			c5.868,6.702,6.702,15.081,10.477,23.038c4.606,10.894,14.24,20.524,12.98,33.089"/>
		<path style="fill:none;stroke:#FF0050;stroke-width:3;" d="M274.392,1083.672c-0.84-0.419-0.84-1.26-1.259-0.419
			c18.431,2.093,37.279-2.093,55.71-1.677c20.104,0.42,42.305-3.35,45.234-27.646h-0.417"/>
	</g>
	<path style="fill:none;stroke:#17192D;stroke-width:3;" d="M2048,0"/>
	<path style="fill:none;stroke:#17192D;stroke-width:3;" d="M2048,1536"/>
	<path style="fill:none;stroke:#17192D;stroke-width:3;" d="M0,1536"/>
	<path style="fill:none;stroke:#17192D;stroke-width:3;" d="M0,0"/>
</g>
<g id="Layer_1">
</g>
</svg>
