<svg xmlns="http://www.w3.org/2000/svg" width="2048" height="1536" viewBox="0 0 2048 1536"><g fill="none" stroke-width="3"><g stroke="#FF0050"><path d="M759.6 813.386c-12.735-1.5-23.968-5.99-36.7-7.49-14.235-.747-25.47-.747-40.452 1.5-24.718 5.24-48.687 15.728-71.907 20.97M375.342 798.405c0-8.99 15.73-11.233 22.472-14.23 14.23-5.993 29.21-11.987 44.944-17.978 11.984-5.242 25.465-8.99 37.45-15.73 5.244-2.998 29.964-14.984 30.713-17.23M476.464 775.186c8.987-5.244 20.222-11.987 26.966-20.228 9.737-13.48 8.24-25.466 24.714-32.208 14.234-6.745 23.224-10.488 35.208-20.972 9.736-8.99 21.72-17.98 35.954-18.73-5.996 17.98-26.968 35.208-23.22 56.185 2.247 12.733 17.973 41.946 28.46 48.688-10.487 8.99-26.964 23.968-29.963 33.704M542.38 784.922c9.735 6.74 25.466 6.74 35.203 6.74M552.115 730.99c.75 8.99-5.243 17.23-10.484 23.968M597.058 682.303c6.74-5.246 14.233-10.486 22.47-10.486-1.495 1.495-2.244 3.74-3.742 5.24 18.724-5.992 29.21-4.49 44.193 5.99 6.74 4.496 13.48 8.992 19.47 12.734 8.24 4.498 14.233 5.247 21.725 12.736 5.242 5.244 14.23 13.483 17.974 20.975 3.75 7.49 2.25 15.73 5.247 22.474 3.74 8.99 10.483 14.232 11.982 23.97 1.496 6.74 2.245 16.478 2.245 23.22 0 4.493-1.5 5.243 0 10.488-1.5 0-2.246-.752-3.745-.752M694.436 743.723c-4.498 2.246-14.986 1.498-20.975 2.996-7.488 1.5-14.982 4.494-21.723 8.238-6.74 3.75-11.984 12.74-19.475 11.24M664.473 702.525c-5.995 4.49-13.486 8.988-20.224 12.733M617.284 688.292c-14.982 2.247-13.485 26.965-22.474 36.702M621.775 733.983c-2.992 6.744-5.99 14.237-10.484 20.227M594.06 772.188c4.497 5.994 15.73 12.734 19.475 13.485M622.522 775.934c-12.73 13.482-4.49 27.714-5.238 42.695M710.912 774.435c-18.726-.747-33.707-2.247-50.932 8.24-8.993 5.245-18.73 11.986-25.47 19.476-5.243 5.993-7.49 15.73-11.987 20.224M717.655 766.197c0 .748 9.735 8.99 12.73 13.48M720.65 795.41c1.497-1.5 5.994 2.248 8.238 5.24M667.47 809.643c18.726-5.245 29.21-16.48 47.19-2.996"/></g><path d="M2048 0M2048 1536M0 1536M0 0" stroke="#17192D"/></g></svg>