<svg xmlns="http://www.w3.org/2000/svg" width="2048" height="1536" viewBox="0 0 2048 1536"><g fill="none" stroke-width="3"><g stroke="#FF0050"><path d="M980.59 988.17c-1.678 10.056-.838 23.455.838 33.512 2.093 12.982.837 25.55.837 38.535 0 12.146 3.77 22.2 5.023 33.926.84 10.89 0 22.2.422 33.093v.837M1191.802 972.938c-2.996-32.957-7.49-67.414-8.988-99.622-.75-19.473 4.495-37.448-.75-56.18-4.492-16.48-8.237-33.705-13.48-50.183-5.245-15.732-7.49-39.7-6.744-55.433M255.497 959.45c8.993-17.228 24.72-33.706 38.95-46.44 9.736-8.237 19.476-16.477 28.464-23.97 8.243-6.74 20.225-21.72 30.712-23.22-.75 20.227 29.96 36.703 35.956 55.428M304.935 965.446c29.96-20.227 50.184-32.212 86.14-17.23 28.462 11.98 59.922 24.72 91.38 27.713 32.958 2.996 65.17 12.73 98.877 15.73 16.478 1.5 32.954 5.988 49.434 2.25 18.73-4.497 34.457-17.98 53.182-22.475 22.474-4.495 41.2 7.49 60.674 16.48 12.733 5.995 29.212 20.222 44.19 16.478M1191.802 976.682c-33.704 4.496-65.914 8.988-100.368 8.988-17.98 0-35.955-2.248-53.936-2.998-17.226-.748-32.955 2.25-50.182 3.748-33.708 2.994-68.163 5.99-101.874 8.986-31.457 2.996-65.164 13.482-96.625 11.238-.75 0-2.995-.75-2.995-.75M780.574 985.663c-17.227 1.5-32.207-13.48-47.188-19.476-19.475-7.488-36.703-8.988-56.927-7.488M380.586 942.967c2.246-9.736 11.233-29.963 17.976-35.953 8.242-7.492 14.98.75 24.72 5.24 8.988 3.747 18.724 6.743 28.463 10.488 17.226 6.742 35.953 8.988 53.183 16.48 17.23 8.986 32.208 22.47 50.183 30.708 19.474 8.24 58.425 20.974 77.9 14.234M277.965 1088.28c-8.24 5.993 41.197 30.713 47.19 34.46 11.983 5.99 47.19 26.215 59.175 20.97M322.157 1089.778c14.98 15.73 37.452 19.475 52.438 34.458 5.99 6.742 11.98 14.98 18.724 21.72 3.744 4.498 8.238 8.99 11.983 12.735 2.245 2.25 8.24 5.245 4.492 5.245M1183.558 1169.18c-32.21-8.988-68.164-14.232-101.12-19.476-37.454-5.993-72.66-14.98-108.613-24.72-17.976-5.243-36.7-8.237-55.426-12.732-18.726-5.243-37.453-12.735-56.926-15.73-37.457-5.993-74.157-16.48-110.863-18.726-35.2-2.245-70.406-9.736-105.612-8.24-19.477.75-37.452 7.49-56.177 9.736-20.223 2.25-38.2 1.5-57.677 11.236-23.22 11.987-42.694 29.213-67.412 40.45-17.227 8.237-32.21 25.47-53.935 32.96M360.358 1110.758c2.25-5.995 29.963-2.996 37.456-4.496 15.73-2.248 32.208-5.243 48.687-8.987 31.46-8.238 65.17-9.737 97.374-14.98 8.242-1.497 15.734-2.246 23.223-3.745M345.38 866.568c-2.248-14.232 6.74-32.208 12.737-44.945 8.237-20.973 16.478-23.218 38.95-26.214 17.976-2.248 32.954 0 50.182 5.24 17.23 5.996 35.956 1.5 52.433 7.492 37.452 13.48 77.15 22.47 116.103 7.49M655.485 876.305c17.976 2.246 35.202-.748 52.43 3.744 17.228 5.243 33.708 7.487 50.935 10.486 34.456 5.243 65.914 8.24 99.625-3 8.237-2.99 18.725-6.736 25.465-10.48M835.25 879.302c10.488-.75 24.72-9.74 32.963-15.73M852.48 921.998c27.716-5.246 62.922 7.49 86.142 20.225M1064.456 950.46c11.238 0 19.477 8.24 29.962 11.237M942.364 863.572c18.728-8.99 42.695-14.98 62.92-20.974 10.486-3 20.972-5.245 31.46-8.99 11.985-4.493 22.474-11.985 34.46-14.98M1014.273 753.46c14.23 6.743 47.19 14.237 62.92 14.237M1109.403 736.982c2.996 2.25 8.237 3.745 11.982 6.74M797.8 860.573c-5.99-5.99-5.243-12.73-9.737-19.476-2.994-5.238-8.99-8.236-11.986-12.732M761.85 833.61c-5.25 5.99-3 13.482-6.744 19.475M570.845 863.572c-9.74 1.498-20.224 0-28.466-4.497M578.334 907.764c14.977 2.998 29.962 12.734 44.94 17.23M586.57 944.47c-23.967-3.747-37.45-29.962-59.922-38.202M559.607 958.7c8.24 7.487 18.727 8.987 26.964 14.98M582.083 811.893c9.74 0 29.964.75 34.457-4.496M740.878 781.18c35.954-1.497 67.416-5.243 103.367-14.23 17.23-4.495 34.46-5.995 52.436-7.494 19.48-1.5 38.952-8.988 56.928-13.48 32.958-8.99 68.912-14.233 102.617-14.233 18.725 0 33.71-6.74 50.937-11.24 15.728-3.744 31.46-3.744 47.938-5.238 1.5 0 10.488-.75 3.744-.75M1185.807 1169.187c-10.482 13.48-12.732 34.454-15.73 50.934-4.49 21.725-14.228 42.694-12.73 65.168-9.738.748-15.733-6.742-24.72-8.988-8.988-2.25-19.478-1.5-28.463-1.5-17.227-1.498-33.707-5.994-50.188-8.987-19.475-3.747-38.2-7.488-57.675-10.487-16.477-2.25-31.46-9.738-47.187-11.985-34.453-5.99-68.165-9.736-101.118-16.477-32.21-5.992-61.423-11.987-94.38-14.232-19.474-1.498-58.425 5.245-68.913-15.73M377.59 1146.72s0-1.5.75-2.25c-.75 0-.75 0-.75-.75-1.497 12.736 12.732 31.462 18.728 41.95 10.486 17.976 26.215 20.972 46.44 19.473 32.21-2.998 65.167-2.248 97.376-2.248 35.204 0 68.91 1.5 103.364-1.5 32.96-3.74 68.163-8.235 101.123-5.238 10.49.75 26.966 10.485 35.954 5.238M688.445 1101.027c-16.484 2.246-32.213 5.242-47.943 10.487-16.48 5.24-29.958 16.477-44.942 25.466-20.222 11.237-44.94 29.963-68.91 32.21M476.466 1188.664c6.74 3.744 11.983 8.99 17.976 11.983M640.502 1201.395c-5.243 6.744 23.97 19.477 30.713 20.977 21.72 4.497 34.456-5.99 54.683-8.99M751.362 1214.88c2.998 2.25-26.965 22.47-36.703 23.22-11.988.75-22.475-4.494-32.962-9.738-6.74-3.744-25.466-8.987-28.463-14.98M609.045 1202.145c11.987 4.497 17.976 6.744 32.207 2.25M612.043 947.475c-5.245-4.495 8.988-9.736 14.982-8.24 27.713 8.24-23.97 21.72-14.982 5.242M725.897 951.217c-5.992 0 1.496-12.732 8.237-11.982 10.487.75 14.233 17.23 3.747 20.97-8.985 3.75-14.232-5.99-12.734-13.478M850.238 937.73c-5.244-3.744 14.234-7.488 19.478-2.992 22.47 17.978-41.948 15.73-19.478.748M347.69 1100.844c5.026 2.096 20.104-2.93 25.97-6.28 9.633-5.448 20.526-12.15 21.78-24.713.836-9.633-.836-18.85-1.675-28.483 0-2.092 0-4.188-.422-6.702-.416-3.35-2.092-4.188-2.93-7.118-2.514-6.286-2.932-14.663-5.864-20.108-7.122-13.403-17.178-25.55-24.714-38.115-6.704-11.312-18.848-15.5-30.994-16.755M1165.308 1163.256c0-.417 2.09-13.82 2.512-18.012.84-8.377-3.353-13.823-2.512-21.778M1149.018 1195.486c-2.875 5.752-17.26 25.89-25.893 37.402M936.114 1181.1c17.26-11.508 37.403-14.384 54.662-20.14"/></g><path d="M2048 0M2048 1536M0 1536M0 0" stroke="#17192D"/></g></svg>