<?xml version="1.0" encoding="iso-8859-1"?>
<!-- Generator: Adobe Illustrator 15.1.0, SVG Export Plug-In . SVG Version: 6.00 Build 0)  -->
<!DOCTYPE svg PUBLIC "-//W3C//DTD SVG 1.1//EN" "http://www.w3.org/Graphics/SVG/1.1/DTD/svg11.dtd">
<svg version="1.1" xmlns="http://www.w3.org/2000/svg" xmlns:xlink="http://www.w3.org/1999/xlink" x="0px" y="0px" width="2048px"
	 height="1536px" viewBox="0 0 2048 1536" style="enable-background:new 0 0 2048 1536;" xml:space="preserve">
<g id="e2b_x5F_fuss_x5F_l">
	<g>
		<path style="fill:none;stroke:#FF0050;stroke-width:3;" d="M1698.109,970.999c21.359,0,42.304-3.77,62.828-9.214
			c15.078-3.77,40.211-7.539,55.709-2.095c10.891,4.188,29.92,17.233,39.896,23.57c10.678,7.299,20.176,13.98,32.712,17.771
			c21.896,6.2,44.345,11.644,66.857,16.674c6.132,1.447,13.159,0.067,19.351,3.653c4.682,2.478,8.605,6.956,13.702,9.503
			c13.772,6.544,37.459,7.1,33.255,27.205c-1.793,8.191-12.397,13.221-18.94,16.799c-7.988,4.614-15.151,9.362-23.479,13.493
			c-17.493,8.124-36.633,8.326-55.569,7.292c-9.709-0.346-19.691-4.137-29.2-5.717c-9.506-1.585-18.795-1.862-27.82-6.341
			c-13.355-6.476-27.884-11.024-40.831-17.427c-7.776-4.269-10.771-5.949-18.73-9.302c-6.7-2.934-12.982-5.864-19.684-9.212
			c-6.285-3.354-12.983-4.607-19.27-7.54c-5.441-2.515-10.89-4.186-16.336-4.608c-18.848-1.673-35.603-1.256-51.519,7.12"/>
		<path style="fill:none;stroke:#FF0050;stroke-width:3;" d="M1765.543,1024.614c-0.417,0,0-0.838-1.257-0.838
			c2.514,4.186,7.123,9.634,10.896,12.983"/>
		<path style="fill:none;stroke:#FF0050;stroke-width:3;" d="M1824.185,978.537c-2.932,3.355,1.676,6.286,1.255,10.475"/>
		<path style="fill:none;stroke:#FF0050;stroke-width:3;" d="M1758.846,973.512c6.697,1.257,3.348,17.592,6.28,20.944"/>
		<path style="fill:none;stroke:#FF0050;stroke-width:3;" d="M1784.812,1032.568c0,0,4.607,5.448,7.96,6.706"/>
		<path style="fill:none;stroke:#FF0050;stroke-width:3;" d="M1732.454,1024.197c0.839,1.252,1.676,2.932,2.934,4.186"/>
		<path style="fill:none;stroke:#FF0050;stroke-width:3;" d="M1711.512,1032.152c-1.257,2.096-2.095,3.774-2.932,6.286"/>
		<path style="fill:none;stroke:#FF0050;stroke-width:3;" d="M1705.647,970.582c0,2.094,0.838,3.77,2.513,5.443"/>
		<path style="fill:none;stroke:#FF0050;stroke-width:3;" d="M1927.644,1025.033c2.096,0,4.187,0.416,6.282,1.255"/>
		<path style="fill:none;stroke:#FF0050;stroke-width:3;" d="M1996.338,1050.164c0.415,1.677,2.095,5.446,4.606,7.538"/>
		<path style="fill:none;stroke:#FF0050;stroke-width:3;" d="M1864.816,1066.081c2.511,1.675,4.607,3.77,7.119,6.281"/>
	</g>
	<path style="fill:none;stroke:#17192D;stroke-width:3;" d="M2048,0"/>
	<path style="fill:none;stroke:#17192D;stroke-width:3;" d="M2048,1536"/>
	<path style="fill:none;stroke:#17192D;stroke-width:3;" d="M0,1536"/>
	<path style="fill:none;stroke:#17192D;stroke-width:3;" d="M0,0"/>
</g>
<g id="Layer_1">
</g>
</svg>
