<?xml version="1.0" encoding="iso-8859-1"?>
<!-- Generator: Adobe Illustrator 15.1.0, SVG Export Plug-In . SVG Version: 6.00 Build 0)  -->
<!DOCTYPE svg PUBLIC "-//W3C//DTD SVG 1.1//EN" "http://www.w3.org/Graphics/SVG/1.1/DTD/svg11.dtd">
<svg version="1.1" xmlns="http://www.w3.org/2000/svg" xmlns:xlink="http://www.w3.org/1999/xlink" x="0px" y="0px" width="2048px"
	 height="1536px" viewBox="0 0 2048 1536" style="enable-background:new 0 0 2048 1536;" xml:space="preserve">
<g id="e3a_x5F_mantel_x5F_whole">
	<g>
		<path style="fill:none;stroke:#17192D;stroke-width:3;" d="M625.041,785.39c45.421,16.823,100.371,20.261,148.492,32.642
			c62.696,16.092,128.147,29.182,192.348,46.652c68.513,17.287,133.075,43.395,196.324,72.44
			c32.281,13.054,61.742,27.669,95.28,36.342c16.023,3.647,34.856,5.735,48.122,12.383c14.7,6.589,23.827,17.739,39.845,21.389
			c23.215,3.341,41.809-0.333,62.454,10.329c20.642,10.662,38.284,18.566,61.625,24.791c32.033,7.293,99.147-8.531,122.024,20.784"
			/>
		<path style="fill:none;stroke:#17192D;stroke-width:3;" d="M1797.657,889.991c-52.959,9.452-113.665,6.257-164.665-5.999"/>
		<path style="fill:none;stroke:#17192D;stroke-width:3;" d="M1544.261,866.116c-22.85,5.297-55.192-9.199-76.3,3.237
			c15.312,20.984,53.169,29.476,74.182,48.777"/>
		<path style="fill:none;stroke:#17192D;stroke-width:3;" d="M1639.377,1000.543c6.002,5.512,13.445,10.966,20.889,16.418"/>
		<path style="fill:none;stroke:#17192D;stroke-width:3;" d="M1612.269,1007.461c3.123,5.638,0.428,10.075-6.71,11.82"/>
		<path style="fill:none;stroke:#17192D;stroke-width:3;" d="M1541.239,998.936c-30.415-3.036-54.977-38.052-70.349-60.479
			c-16.933-25.244-34.512-31.706-59.722-47.947"/>
		<path style="fill:none;stroke:#17192D;stroke-width:3;" d="M1085.217,822.12c23.768,16.301,71.4,17.167,99.055,23.204
			c24.654,3.284,49.436,9.439,74.154,14.165c27.534,3.153,56.635,9.135,84.169,12.297c20.277,2.023,50.385-2.139,68.149,8.646"/>
		<path style="fill:none;stroke:#17192D;stroke-width:3;" d="M1241.882,877.498c10.319,5.33,22.026,9.158,33.599,10.111"/>
		<path style="fill:none;stroke:#17192D;stroke-width:3;" d="M1270.1,828.703c20.457,6.345,42.362,12.631,61.502,21.912"/>
		<path style="fill:none;stroke:#17192D;stroke-width:3;" d="M653.384,739.48c-11.701-3.833-24.656-3.284-36.297-5.673"/>
		<path style="fill:none;stroke:#17192D;stroke-width:3;" d="M622.322,755.219c-14.09,7.808-24.046,11.111-32.255,21.556
			c-9.588,11.946-17.495,29.591,6.855,25.67"/>
		<path style="fill:none;stroke:#17192D;stroke-width:3;" d="M548.805,790.062c-20.73-0.761-46.538-4.396-65.453-13.086"/>
		<path style="fill:none;stroke:#17192D;stroke-width:3;" d="M478.6,596.9c4.748,9.895,50.75,6.501,62.025,0.252"/>
		<path style="fill:none;stroke:#17192D;stroke-width:3;" d="M602.563,561.355c-0.951,11.58-24.753,28.453-37.588,31.884"/>
		<path style="fill:none;stroke:#17192D;stroke-width:3;" d="M668.009,642.23c-20.287-5.489-42.301-18.685-64.354-18.617
			c-30.319,0.093,9.667,24.769,18.286,20.57"/>
		<path style="fill:none;stroke:#17192D;stroke-width:3;" d="M613.802,588.284c42.356,12.622,92.316,0.411,134.251,2.961
			c41.934,2.544,83.926,6.532,124.417,9.146c31.858,2.973,64.848-1.309,98.014-1.274c36.115,1.354,70.848,4.209,108.339,4.06
			c131.126-2.676,258.905,17.865,388.843,21.009c10.08-0.428,24.529,0.402,30.231-1.281"/>
		<path style="fill:none;stroke:#17192D;stroke-width:3;" d="M1888.387,682.784c-12.771,4.867-34.553,1.462-43.833,20.607
			c8.051,19.849,16.875,23.804-8.856,29.22c-17.151,3.609-37.432,1.584-56.085,3.819c-28.671,4.098-55.839,9.579-83.071,13.62
			c-30.111,4.16-60.826-6.075-91.121-6.232c-18.775-0.647-68.673,13.007-80.559,4.856"/>
		<path style="fill:none;stroke:#17192D;stroke-width:3;" d="M1604.661,691.928c-2.392,11.641-13.601,19.326-21.998,25.452"/>
		<path style="fill:none;stroke:#17192D;stroke-width:3;" d="M1554.57,769.047c36.356,7.115,68.516,17.288,107.141,9.882"/>
		<path style="fill:none;stroke:#17192D;stroke-width:3;" d="M1690.47,810.879c13.441,10.969,28.265,20.436,37.517,34.467"/>
		<path style="fill:none;stroke:#17192D;stroke-width:3;" d="M1849.117,879.15c17.277-0.734,31.673-1.345,47.752,3.743"/>
		<path style="fill:none;stroke:#17192D;stroke-width:3;" d="M1868.963,938.882c-3.836,11.701-19.544,15.255-29.562,17.119"/>
		<path style="fill:none;stroke:#17192D;stroke-width:3;" d="M1713.06,1105.579c1.74,7.139,0.61,14.398-3.403,21.779
			c-4.32,0.185-11.459,1.927-15.835,0.672"/>
		<path style="fill:none;stroke:#17192D;stroke-width:3;" d="M1739.767,1123.199c3.002,2.755-4.017,7.379-11.092,10.562"/>
		<path style="fill:none;stroke:#17192D;stroke-width:3;" d="M1781.453,1119.984c2.818-1.559,8.579-1.806,11.394-3.365
			c0.124,2.88,0.307,7.197-1.009,10.138"/>
		<path style="fill:none;stroke:#17192D;stroke-width:3;" d="M1763.874,1113.522c-1.441,0.059,1.437-0.062,2.815-1.562
			c-1.503-1.377-1.563-2.817-3.122-5.637"/>
		<path style="fill:none;stroke:#17192D;stroke-width:3;" d="M1792.568,1144.033c4.5,4.135,8.939,6.833,12.003,11.027"/>
		<path style="fill:none;stroke:#17192D;stroke-width:3;" d="M1823.264,1119.656c1.926,11.455,6.795,24.228,14.295,31.123"/>
		<path style="fill:none;stroke:#17192D;stroke-width:3;" d="M1852.422,1127.072c12.002,11.03,29.462,14.616,42.905,25.581"/>
		<path style="fill:none;stroke:#17192D;stroke-width:3;" d="M1887.357,998.676c5.821,1.195,11.577,0.952,17.335,0.71"/>
		<path style="fill:none;stroke:#17192D;stroke-width:3;" d="M1641.418,1082.658c-14.521-2.27-29.223-8.855-38.748,4.527"/>
		<path style="fill:none;stroke:#17192D;stroke-width:3;" d="M1297.944,1009.249c20.766,13.54,49.988,22.398,73.447,31.497
			c32.284,13.052,63.306,30.484,94.085,42.162c61.626,24.789,125.767,40.819,189.901,56.849
			c78.714,19.736,154.915,48.231,234.894,63.588c-2.879,0.125-4.319,0.185-7.26-1.131"/>
		<path style="fill:none;stroke:#17192D;stroke-width:3;" d="M1051.324,974.994c2.999,2.759-67.601,4.31-79.177,3.357
			c-34.615,0.027-67.97-4.326-100.067-13.062c-69.957-17.224-136.91-31.695-208.123-44.537
			c-30.538-5.918-68.458-15.849-95.225-34.902"/>
		<path style="fill:none;stroke:#17192D;stroke-width:3;" d="M526.532,842.926c21.653,0.526,41.442-8.968,61.597-9.823"/>
		<path style="fill:none;stroke:#17192D;stroke-width:3;" d="M650.86,816.019c10.626,12.532,48.058,10.945,65.518,14.531"/>
		<path style="fill:none;stroke:#17192D;stroke-width:3;" d="M646.935,859.456c15.712-3.552,31.858,2.973,46.433,6.681"/>
		<path style="fill:none;stroke:#17192D;stroke-width:3;" d="M773.953,895.895c27.597,4.598,55.255,10.638,82.914,16.675"/>
		<path style="fill:none;stroke:#17192D;stroke-width:3;" d="M477.655,778.655c26.915,56.549,33.984,121.152,101.363,145.697
			c61.502,21.909,125.702,39.382,189.776,53.971c71.337,15.723,172.966,31.605,243.014,17.097"/>
		<path style="fill:none;stroke:#17192D;stroke-width:3;" d="M948.099,989.471c-4.56-5.578,44.75,0.986,53.515,3.497
			c29.092,5.977,55.432,14.957,84.468,19.494c61.016,10.393,123.466,20.723,183.346,38.376
			c67.196,20.227,146.502,19.747,209.134,34.396"/>
		<path style="fill:none;stroke:#17192D;stroke-width:3;" d="M1173.165,991.46c10.321,5.332,18.066,17.984,29.954,26.134"/>
		<path style="fill:none;stroke:#17192D;stroke-width:3;" d="M1051.934,989.394c14.518,2.268,28.974,3.096,43.372,2.485"/>
		<path style="fill:none;stroke:#17192D;stroke-width:3;" d="M929.445,991.7c4.198-3.06,8.577-1.806,13.017,0.892"/>
		<path style="fill:none;stroke:#17192D;stroke-width:3;" d="M756.288,853.375c10.195,2.452,14.883,10.908,13.81,19.607"/>
		<path style="fill:none;stroke:#17192D;stroke-width:3;" d="M736.087,955.189c15.772-2.109,29.153,7.418,43.551,6.808"/>
		<path style="fill:none;stroke:#17192D;stroke-width:3;" d="M569.283,898.802c5.94,4.078,11.822,6.712,19.141,9.285"/>
		<path style="fill:none;stroke:#17192D;stroke-width:3;" d="M513.594,707.905c-3.892,10.261-10.667,20.642,6.854,25.668"/>
		<path style="fill:none;stroke:#17192D;stroke-width:3;" d="M586.032,511.578c-7.077,3.188-40.128,6.028-55.962,6.698
			c11.396-3.365,24.109-9.674,33.882-17.3"/>
		<path style="fill:none;stroke:#17192D;stroke-width:3;" d="M530.986,539.873c7.199-0.308,14.393-0.61,20.092-2.295"/>
		<path style="fill:none;stroke:#17192D;stroke-width:3;" d="M1071.652,400.128c-94.645,12.664-188.743,38.29-283.455,49.515"/>
		<path style="fill:none;stroke:#17192D;stroke-width:3;" d="M1092.669,589.607c-27.292,2.598-53.696-7.817-79.911-13.917
			c-27.66-6.037-56.205,0.941-82.485-6.598"/>
		<path style="fill:none;stroke:#17192D;stroke-width:3;" d="M883.777,560.968c2.208-15.958,113.179-17.778,133.276-20.075
			c44.441-6.208,111.335,6.819,153.731-13.73"/>
		<path style="fill:none;stroke:#17192D;stroke-width:3;" d="M1422.005,363.639c-60.465,2.566-135.078,11.494-191.93,31.211
			c-2.332,13.079-3.465,20.336-2.858,34.735c0.49,11.518,10.873,18.288-6.158,24.778"/>
		<path style="fill:none;stroke:#17192D;stroke-width:3;" d="M1223.232,471.578c12.004,11.03-27.326,35.771-37.16,41.956
			c28.146,17.561,73.479-1.672,103.772-1.517c31.735,0.099,68.088,7.212,100.007,11.629c33.356,4.348,66.893,13.026,98.809,17.44
			c33.355,4.356,67.726-1.43,99.699,4.424c29.039,4.54,54.121,17.898,81.841,25.377c17.583,6.463,71.273,14.283,68.053,40.379"/>
		<path style="fill:none;stroke:#17192D;stroke-width:3;" d="M1527.394,434.165c-3.126-5.635-6.246-11.275-9.373-16.912"/>
		<path style="fill:none;stroke:#17192D;stroke-width:3;" d="M1615.697,441.955c-13.626-15.283-22.596-56.728-45.688-57.19"/>
		<path style="fill:none;stroke:#17192D;stroke-width:3;" d="M1322.722,437.073c1.502,1.378,17.974,49.715,8.202,57.34"/>
		<path style="fill:none;stroke:#17192D;stroke-width:3;" d="M1253.314,432.805c13.385,9.529,14.057,25.366,14.728,41.202"/>
		<path style="fill:none;stroke:#17192D;stroke-width:3;" d="M1383.779,584.471c0.183,4.321-0.77,15.897-2.087,18.842"/>
		<path style="fill:none;stroke:#17192D;stroke-width:3;" d="M1231.473,665.929c-7.197,0.304-43.372-2.491-57.276,9.637"/>
		<path style="fill:none;stroke:#17192D;stroke-width:3;" d="M1050.912,659.162c-4.93-14.214-69.808,20.265-84.142,22.315"/>
		<path style="fill:none;stroke:#17192D;stroke-width:3;" d="M851.941,660.386c-18.774-0.646-28.245,14.177-43.897,19.17"/>
		<path style="fill:none;stroke:#17192D;stroke-width:3;" d="M634.682,672.483c-7.443-5.454-22.791,6.739-31.183,12.862"/>
		<path style="fill:none;stroke:#17192D;stroke-width:3;" d="M663.352,668.386c5.762-0.245,17.579,6.464,23.645,13.417
			c-18.532,5.114-38.442,11.728-56.974,16.835"/>
		<path style="fill:none;stroke:#17192D;stroke-width:3;" d="M549.865,678.963c2.452-10.197-19.848,8.054-22.422,15.374"/>
		<path style="fill:none;stroke:#17192D;stroke-width:3;" d="M516.854,648.634c8.576-1.804,17.273-0.729,24.592,1.844"/>
		<path style="fill:none;stroke:#17192D;stroke-width:3;" d="M520.445,563.395c1.627,4.257-26.493,21.315-33.264,31.699"/>
		<path style="fill:none;stroke:#17192D;stroke-width:3;" d="M540.723,565.42c5.577-4.563-9.894,4.746-11.333,4.805"/>
		<path style="fill:none;stroke:#17192D;stroke-width:3;" d="M515.677,518.887c4.318-0.183,7.198-0.305,10.016-1.866"/>
		<path style="fill:none;stroke:#17192D;stroke-width:3;" d="M544.258,478.737c10.078-0.428,20.156-0.854,28.673-4.1"/>
		<path style="fill:none;stroke:#17192D;stroke-width:3;" d="M1382.416,450.406c7.382,4.016,17.703,9.349,27.963,13.238"/>
		<path style="fill:none;stroke:#17192D;stroke-width:3;" d="M1606.745,673.09c7.382,4.014,16.208,7.965,22.146,12.042"/>
		<path style="fill:none;stroke:#17192D;stroke-width:3;" d="M1726.513,640.611c1.993,12.894,9.617,22.665,14.362,32.562"/>
		<path style="fill:none;stroke:#17192D;stroke-width:3;" d="M1775.403,637.096c24.595,1.84,50.876,9.381,76.728,6.841
			c-3.188-7.075-3.308-9.956-12.132-13.907c13.146,3.767,25.025,11.916,38.041,12.81c-0.122-2.882-1.684-5.699-3.244-8.517
			c8.7,1.073,17.519,5.024,26.217,6.099c-1.56-2.818-3.003-2.758-4.562-5.576c1.319-2.939,4.259-1.621,5.454-7.442
			c7.383,4.014,17.705,9.345,23.342,6.223"/>
		<path style="fill:none;stroke:#17192D;stroke-width:3;" d="M1903.555,666.273c-14.398,0.61-27.235,4.041-41.629,4.651"/>
		<path style="fill:none;stroke:#17192D;stroke-width:3;" d="M1802.623,700.84c11.516-0.486,20.459,6.346,27.963,13.234"/>
		<path style="fill:none;stroke:#17192D;stroke-width:3;" d="M1846.913,895.106c-5.574,4.562-22.664,9.614-32.806,8.602"/>
		<path style="fill:none;stroke:#17192D;stroke-width:3;" d="M1717.069,928.017c17.275-0.734,43.74,11.123,50.02-10.775"/>
		<path style="fill:none;stroke:#17192D;stroke-width:3;" d="M1643.343,923.929c7.199-0.304,14.455,0.833,20.396,4.907"/>
		<path style="fill:none;stroke:#17192D;stroke-width:3;" d="M1610.598,933.972c1.317-2.938,4.195-3.063,4.137-4.504l-1.438,0.066
			c0.306,7.199,1.985,12.894,2.23,18.653"/>
		<path style="fill:none;stroke:#17192D;stroke-width:3;" d="M1693.171,976.623c33.537,8.677,69.589,8.586,102.821,10.063"/>
		<path style="fill:none;stroke:#17192D;stroke-width:3;" d="M1729.09,1041.443c2.94,1.318,7.684,11.212,9.431,18.348"/>
		<path style="fill:none;stroke:#17192D;stroke-width:3;" d="M1027.369,784.191c17.215-2.174,30.413,3.031,41.042,15.562"/>
		<path style="fill:none;stroke:#17192D;stroke-width:3;" d="M888.565,707.871c8.823,3.954-25.669,6.856-32.686,11.48
			c2.945,1.318,5.946,4.076,8.882,5.396c-52.775,13.773-117.864,9.321-172.568,11.641"/>
		<path style="fill:none;stroke:#17192D;stroke-width:3;" d="M698.746,754.858c18.775,0.646,49.188,3.683,62.637,14.648"/>
		<path style="fill:none;stroke:#17192D;stroke-width:3;" d="M676.019,763.032c-18.903-3.523-32.928,5.725-50.145,7.898"/>
		<path style="fill:none;stroke:#17192D;stroke-width:3;" d="M542.333,467.283c-2.821,1.562,9.894-4.748,12.713-6.307"/>
		<path style="fill:none;stroke:#17192D;stroke-width:3;" d="M683.145,420.929c4.258-1.623,8.701,1.073,11.762,5.269"/>
		<path style="fill:none;stroke:#17192D;stroke-width:3;" d="M764.775,407.373c7.135-1.748,12.957-0.55,17.581,6.464"/>
		<path style="fill:none;stroke:#17192D;stroke-width:3;" d="M838.012,399.94c11.521-0.488,23.099,0.464,33.052-2.844"/>
		<path style="fill:none;stroke:#17192D;stroke-width:3;" d="M951.559,390.798c48.64-9.274,92.721-24.122,141.668-26.198
			c47.506-2.016,96.879,5.987,142.886,2.595"/>
		<path style="fill:none;stroke:#17192D;stroke-width:3;" d="M479.25,578.122c3.524-18.898,14.187-39.54,22.152-55.744
			c11.799-27.902,25.033-55.863,54.837-67.223c24.048-11.118,54.219-13.839,79.886-20.696c27.11-6.916,52.593-18.094,81.141-25.07
			c91.405-21.185,188.408-12.319,281.373-30.683"/>
		<path style="fill:none;stroke:#17192D;stroke-width:3;" d="M1137.789,361.268c24.963,10.478,57.892,4.756,85.242,3.599
			c31.674-1.343,63.467,0.192,95.08-2.591c66.098-5.688,130.699-12.754,196.915-15.561c60.466-2.564,144.431-29.197,199.99-11.364"
			/>
		<path style="fill:none;stroke:#17192D;stroke-width:3;" d="M473.705,787.477c-2.822,1.562-1.192,5.818-4.195,3.063
			c-1.625-4.261-1.807-8.579-2.052-14.338"/>
		<path style="fill:none;stroke:#17192D;stroke-width:3;" d="M441.362,772.983c-2.636,5.88-3.894,10.259-9.589,11.946
			c-1.625-4.257-1.806-8.578-2.052-14.337"/>
		<path style="fill:none;stroke:#17192D;stroke-width:3;" d="M421.228,638.271c1.84-24.597,0.926-46.19-1.552-70.601
			c-16.175,26.644-6.074,60.83-1.972,89.501"/>
		<path style="fill:none;stroke:#17192D;stroke-width:3;" d="M475.941,568.168c-8.635,0.364-17.274,0.731-24.594-1.844l0,0
			c-8.699-1.071-15.896-0.768-26.036-1.778"/>
		<path style="fill:none;stroke:#17192D;stroke-width:3;" d="M445.125,589.666c4.688,8.455,6.493,17.03,5.419,25.728"/>
		<path style="fill:none;stroke:#17192D;stroke-width:3;" d="M434.125,636.281c4.318-0.181,11.456-1.926,15.773-2.109
			c2.33-13.08,16.48-19.449,23.192-31.27"/>
		<path style="fill:none;stroke:#17192D;stroke-width:3;" d="M461.021,590.432c2.818-1.561,7.017-4.622,9.772-7.625"/>
		<path style="fill:none;stroke:#17192D;stroke-width:3;" d="M506.555,677.921c-5.634,3.124-9.712,9.063-10.845,16.323"/>
		<path style="fill:none;stroke:#17192D;stroke-width:3;" d="M487.806,711.883c-1.134,7.263-0.83,14.46,0.915,21.596"/>
		<path style="fill:none;stroke:#17192D;stroke-width:3;" d="M468.812,740.091c-7.634-13.781-19.869-39.688-33.651-47.122
			c-5.136,18.122,7.518,46.109,12.728,63.874"/>
		<path style="fill:none;stroke:#17192D;stroke-width:3;" d="M467.518,777.644c-2.695,4.438-2.573,7.32-8.27,9.004
			c-0.061-1.44-1.748-7.139-1.87-10.014c-2.694,4.439-5.448,7.438-8.209,10.441c-0.059-1.44,1.197-5.817-0.243-5.759
			c-4.256,1.623-5.638,3.123-9.953,3.306l0,0c-5.577,4.565-7.2,0.308-8.642,0.367"/>
		<path style="fill:none;stroke:#17192D;stroke-width:3;" d="M436.565,693.868c-0.939,13.285-10.384,25.097-16.057,36.414
			c-6.755,13.474-8.168,23.153-9.418,37.967c5.312,0.745,10.489,3.766,14.496,6.846"/>
		<path style="fill:none;stroke:#17192D;stroke-width:3;" d="M490.625,710.324c-3.172,5.871-6.563,11.704-9.346,17.703"/>
		<path style="fill:none;stroke:#17192D;stroke-width:3;" d="M478.07,686.337c-2.513,8.761-5.088,16.079-4.722,24.718"/>
		<path style="fill:none;stroke:#17192D;stroke-width:3;" d="M497.543,737.43c-6.808,5.113,2.247,20.647-15.104,17.95"/>
		<path style="fill:none;stroke:#17192D;stroke-width:3;" d="M496.296,674.03c-2.997,1.616-5.032,3.441-6.953,6.061"/>
		<path style="fill:none;stroke:#17192D;stroke-width:3;" d="M464.501,672.489c-1.254,4.381-2.512,8.762-5.209,13.204"/>
		<path style="fill:none;stroke:#17192D;stroke-width:3;" d="M495.44,653.872c-1.783-0.574-2.141-2.231-1.623-4.26"/>
		<path style="fill:none;stroke:#17192D;stroke-width:3;" d="M453.327,647.005c1.435-0.062,4.379,1.258,5.88,2.634"/>
		<path style="fill:none;stroke:#17192D;stroke-width:3;" d="M441.957,684.986c-0.645-5.549,1.505-11.441,3.646-16.021"/>
		<path style="fill:none;stroke:#17192D;stroke-width:3;" d="M434.735,650.677c-0.951,11.577-9.286,19.143-11.677,30.782
			c7.44,5.454,10.75,15.408,11.176,25.485"/>
		<path style="fill:none;stroke:#17192D;stroke-width:3;" d="M484.812,641.341c6.464,1.205,14.916,0.631,20.398,4.906"/>
		<path style="fill:none;stroke:#17192D;stroke-width:3;" d="M450.69,652.885c56.329,1.938,108.397,5.5,164.486,1.68
			c27.35-1.159,54.58-5.2,83.312-7.861c28.791-1.22,58.719-9.701,87.573-9.479c31.792,1.537,56.633,9.136,89.498,1.974
			c15.715-3.549,30.172-2.722,46.009-3.394c17.271-0.733,34.247-8.661,50.08-9.334c31.732,0.095,65.333,10.209,99.82,7.303
			c31.608-2.781,63.282-4.123,94.953-5.468c31.671-1.341,59.327,4.697,89.561,3.414c30.233-1.279,59.146,0.376,89.438,0.532
			c57.705,0.438,116.854,0.815,175.879-1.684c63.343-2.687,127.297,9.021,190.578,4.896c33.052-2.846,64.296-14.263,97.467-14.229
			c33.172,0.035,63.713,5.951,96.698,1.668c8.577-1.808,17.275-0.731,25.791-3.979"/>
		<path style="fill:none;stroke:#17192D;stroke-width:3;" d="M732.336,832.758c-8.452,4.685,20.338,3.466,27.6,4.601
			c28.975,3.097,58.193,11.955,85.852,17.992c58.193,11.952,117.953,26.729,173.512,44.563
			c26.279,7.541,53.874,12.139,80.029,16.799"/>
		<path style="fill:none;stroke:#17192D;stroke-width:3;" d="M1118.658,930.316c11.757,5.268,27.713,7.476,36.72,15.752
			c-2.882,0.118-5.695,1.68-7.138,1.742c11.579,0.951,24.719,4.722,33.719,12.991c-30.106,4.162-66.951-14.467-97.425-18.942
			c-29.038-4.539-59.695-13.334-88.852-20.751"/>
		<path style="fill:none;stroke:#17192D;stroke-width:3;" d="M908.02,894.539c11.641,2.387,22.02,9.16,32.16,10.172"/>
		<path style="fill:none;stroke:#17192D;stroke-width:3;" d="M745.719,842.284c-8.454,4.688,19.998,29.441,23.368,40.838"/>
		<path style="fill:none;stroke:#17192D;stroke-width:3;" d="M759.863,495.557c2.882-0.122,5.761-0.245,8.637-0.367
			c0.732,17.277-8.368,40.737-16.396,55.5"/>
		<path style="fill:none;stroke:#17192D;stroke-width:3;" d="M719.116,554.971c63.345-2.685,125.246-5.309,186.846-15.133"/>
		<path style="fill:none;stroke:#17192D;stroke-width:3;" d="M771.319,493.629c25.73-5.419,48.766-6.396,73.112-10.31
			c31.553-4.226,62.797-15.643,94.284-21.306c64.417-11.384,133.516-14.316,197.808-28.579c12.836-3.429,35.747-7.285,44.205-11.972
			"/>
		<path style="fill:none;stroke:#17192D;stroke-width:3;" d="M1163.534,458.249c-5.065-6.841-16.534-6.01-17.713-14.868
			c6.325-2.413,9.208-7.971,15.177-10.985"/>
		<path style="fill:none;stroke:#17192D;stroke-width:3;" d="M1119.983,451.44c-10.538,23.524-61.539,11.26-81.75,10.682"/>
		<path style="fill:none;stroke:#17192D;stroke-width:3;" d="M984.685,491.79c-24.286,5.357-53.449-2.06-79.363-0.961"/>
		<path style="fill:none;stroke:#17192D;stroke-width:3;" d="M783.936,519.053c17.275-0.734,35.099,11.491,52.496,13.638"/>
		<path style="fill:none;stroke:#17192D;stroke-width:3;" d="M761.362,496.933c-5.879-2.634-8.183,45.058-12.137,53.88"/>
		<path style="fill:none;stroke:#17192D;stroke-width:3;" d="M738.39,499.349c-9.773,7.625-25.545,9.738-36.881,14.545"/>
		<path style="fill:none;stroke:#17192D;stroke-width:3;" d="M1100.877,408.983c-11.393,3.369-21.168,10.995-32.561,14.364"/>
		<path style="fill:none;stroke:#17192D;stroke-width:3;" d="M1713.576,335.412c14.642,5.148,1.587,37.433,2.139,50.39
			c-0.097,31.73,13.956,57.095,30.957,83.775c30.927,49.166,70.432,96.527,95.602,145.936"/>
		<path style="fill:none;stroke:#17192D;stroke-width:3;" d="M1932.018,623.246c0.88,54.767,6.078,109.349,6.961,164.117
			c1.185,61.966-7.893,120.039-19.786,179.678c-8.305,42.178-12.479,79.851-16.468,121.845c-2.021,20.279-2.545,41.936-4.572,62.21
			c-2.204,15.955-14.31,36.658-10.818,50.937"/>
	</g>
	<path style="fill:none;stroke:#17192D;stroke-width:3;" d="M2048,0"/>
	<path style="fill:none;stroke:#17192D;stroke-width:3;" d="M2048,1536"/>
	<path style="fill:none;stroke:#17192D;stroke-width:3;" d="M0,1536"/>
	<path style="fill:none;stroke:#17192D;stroke-width:3;" d="M0,0"/>
</g>
<g id="Layer_1">
</g>
</svg>
