<svg xmlns="http://www.w3.org/2000/svg" width="2048" height="1536" viewBox="0 0 2048 1536"><g><path d="M45.342 556.676c40.918-11.16 96.13-6.408 136.903 3.47 14.1 3.21 27.78 9.236 41.688 13.385 9.27 2.747 20.076 5.117 28.354 11.503-.433-.224-1.3-.668-1.736-.89M224.667 620.073c-17.43-10.573-22.974-21.733-42.177-31.316-13.184-6.31-26.402-11.71-40.555-16.354-23.25-7.674-41.285-13.123-79.48-15.507-5.88-.512-11.705.065-17.112-.22M200.853 571.378c5.8 1.364 12.843 4.125 18.853 6.57 6.802 2.76 13.326 5.618 19.74 9M207.726 596.466c5.318 2 10.542 5.597 15.163 8.38 4.238 2.708 8.51 4.916 12.672 7.668 4.148 2.748 1.24.21 4.68 3.203M227.275 621.663c10.798 1.298 10.666 2.237 16.79-1.43 2.438-1.37 1.375-3.296 2.32-5.13.476-1.603 3.874.354 2.933-1.066-.452-1.806-.442-5.083.48-7.064 1.317-2.194 1.97-3.224 3.112-5.437 1.163-2.383 4.03-2.544 3.3-5.295-.633-2.117-.568-4.316-.663-6.722-.104-2.824-.104-2.824-.272-4-.2-1.396-2.393-2.333-3.215-2.287.637.926.84 2.954.425 4.31-.593 1.965 2.055 3.836 1.73 5.78-.38 1.377.52 1.032.463 2.422.352 4.307-9.146 5.873-10.064 9.872-1.325 5.856.666 9.828-6.128 11.81-2.38.838-3.03 1.825-5.483 2.03-1.95.48-3.69 2.488-5.072 2.673-3.456.352-.03-2.89-3.264-2.054 2.667 1.807-.016 1.406 2.61 1.59M168.56 569.48c-9.756-2.307-18.93-5.805-28.784-7.575-4.837-.87-8.334 1.092-12.764 1.036-2.034.004-3.99-1.455-5.897-2.17-2.118-.564-4.396-.234-6.546-.62-2.51-.45-4.792-2.156-7.3-2.607-2.54-.27-4.723-.48-7.41-.96-4.985-1.08-10.038-1.778-15.087-2.5-2.54-.27-5.075-.57-7.534-.27-2.1.36-4.283.154-6.382.516-4.916.595-9.16 2.607-14.21 1.884-2.362-.238-4.447-.984-6.772.634M161.772 572.77c5.86.78 12.397 3.864 17.756 5.917M2048 0M2048 1536M0 1536M0 0" fill="none" stroke="#17192D" stroke-width="3"/></g></svg>