<svg xmlns="http://www.w3.org/2000/svg" width="2048" height="1536" viewBox="0 0 2048 1536"><g fill="none" stroke="#17192D" stroke-width="3"><path d="M1431.284 752.642c37.21 27.27 88.27 40.967 129.617 63.732 19.2 10.724 117.368 46.946 116.538 61.404M1586.61 946.534c7.688 11.21 22.813 27.874 23.365 40.833M1025.833 815.987c-44.324 9.09-108.646-11.26-153.88-23.764-33.54-8.672-85.92-19.43-114.187-39.867M548.597 751.134c7.26 1.133 14.703 6.587 19.263 12.163M560.966 600.62c18.25 22.298 120.155 10.768 151.89 10.865 50.448-.7 112.716 5.314 161.3-5.4M1722.236 777.802c31.792 1.538 59.393 6.135 90.88.473 38.626-7.407 79.643-26.452 118.51-28.1M1766.348 1137.933c5.823 1.195.307 7.2-3.89 10.26M1732.97 1098.967c8.695 1.074 8.88 5.392 3.365 11.396M1547.845 1086.624c7.198-.304 24.53.4 36.05-.085M1473.688 1072.464c2.817-1.562 18.653-2.234 27.294-2.6M1202.726 974.343c-34.428 4.35-75.41-9.78-110.264-15.513-36.294-5.673-74.395-19.923-109.497-31.414-32.22-11.615-67.078-17.35-100.553-24.584-33.478-7.234-68.637-20.165-102.238-30.276-4.383-1.26-8.76-2.514-13.14-3.77M776.272 950.603c32.284 13.055 67.076 17.348 100.795 30.34M693.418 935.365c.244 5.76 6.25 11.274 13.567 13.85M536.085 864.155c43.247-.39 87.05 12.176 130.666 20.42M614.766 508.916c82.665 10.92 159.71-42.825 243.27-44.927M586.96 465.387c51.825-2.195 106.164-13.156 157.624-23.988 65.794-12.888 131.71-22.895 195.942-38.598 51.462-10.833 159.952-37.07 207.485-4.47M1026.506 423.674c-18.414 7.99-34.068 12.984-54.1 16.716M1773.696 596.783c-6.067-5.224-8.067-14.94-14.99-19.372-.172 2.878 1.433 2.99 2.86 5.467M1214.487 571.462c2.938 1.317 7.258 1.134 10.14 1.012-23.097-.462-41.262 13.286-64.356 12.82M888.543 673.256c-14.093 7.81-29.742 12.8-43.96 17.73M588.456 704.73s-10.016 1.87-14.336 2.054M509.75 617.21c27.842 10.356 65.087 4.45 90.358 22.128M532.285 672.5c-5.696 1.68-9.894 4.744-15.652 4.987M538.45 817.9c11.518-.49 21.595-.917 31.797 1.536M1289.646 405.306c32.22 11.615 85.912 19.434 121.843 16.467M1613.88 501.166c4.623 7.013 12.13 13.91 22.328 16.36M1674.506 638.49c-12.652 7.748-44.503 4.77-61.538 11.263 12.495 22.546 60.77 4.632 78.897 24.056M1631.293 1013.858l-.367-8.636c7.382 4.016 10.506 9.65 13.688 16.727M1707.65 1012.065c54.77-.88 108.708 12.697 162.522 23.395M1297.53 931.384c7.563 8.33 16.386 12.29 23.887 19.18M1362.77 735.355c7.2-.305 12.96-.548 20.215.583-44.502 4.772-92.805-11.927-136.173-14.413-38.995-1.234-76.547-2.526-115.54-3.756-59.267-3.256-118.228.686-178.57 6.13 5.82 1.195 17.52 5.024 17.52 5.024M714.652 687.843c15.592-6.432 38.566-8.848 54.646-3.758M477.484 706.555c2.744-5.666 6.158-11.812.706-17.337M759.182 547.5c-3.126-5.634 40.187-4.586 50.264-5.012 30.173-2.722 61.842-4.064 92.013-6.786 68.857-8.688 135.724-30.273 205.833-43.34 35.808-5.844 76.06-8.997 112.048-10.52M2048 0M2048 1536M0 1536M0 0"/></g></svg>