<svg xmlns="http://www.w3.org/2000/svg" width="2048" height="1536" viewBox="0 0 2048 1536"><g fill="none" stroke="#17192D" stroke-width="3"><path d="M372.785 636.79c-4.25 6.544-7.003 13.497-8.95 20.957-.418 1.603-1.118 3.138-1.302 4.81-.23 2.106.484 3.664.615 5.634.142 2.136-1.094 3.958-1.24 5.992-.13 1.88.14 4.06.177 5.897.08 4.104 1.616 7.567 2.438 11.407.854 3.97 1.15 8.722 2.974 12.09M336.19 657.767c-.645.933-1.514 1.688-2.19 2.572-.83 1.083-1.006 2.426-1.84 3.368-2.267-2.815-1.577-4.06.716-6.832 1.29-1.562 3.35-4.637 5.59-3.754M335.29 678.87c-2.082.144-1.816-2.07-2.98-2.876-1.68-1.166-2.87-.115-2.76 1.855.17 3.162 4.52 5.348 5.07 8.394M340.304 665.992c.054 1.405.325 3.726-.614 4.772M371.04 638.805c-2.355 3.7-3.725 7.822-5.51 11.78-1.454 3.234-3.518 6.28-4.892 9.688-.707 1.76-1.434 3.876-1.416 5.826.012 1.796.5 3.42.185 5.24-.36 2.006-.828 3.54-.847 5.674-.018 2.09.593 3.164 1.013 5.132.795 3.69.708 7.053 2.244 10.44.66 1.45 2.022 2.707 2.568 4.118.85 2.197.4 3.637 1.84 5.545M371.293 703.79c2.23 2.19 6.072 3.617 8.843 4.778 3.146 1.308 5.816 3.504 8.85 4.863M376.987 636.025c5.492.115 10.078-4.323 15.25-5.077M378.26 664.54c.1-.06.24-.608.22-.286.27 1.96-.39 3.79-.313 5.728M368.904 662.586c-1.858 2.085-.153 3.888-.263 6.4-.132 2.996-2.32 4.308-1.154 7.172M319.795 680.42c-.367-.11-.495-.34-.92-.136-.48 2.174 3.737 4.414 5.024 5.574 2.123 1.92 3.714 3.875 6.392 5.363 2.11 1.166 4.273 2.42 6.393 3.574 1.743.952 4.708 3.125 6.75 2.655M320.066 653.688c.476-4.233 8.472-8.153 11.843-10.04 2.263-1.262 4.65-2.226 7.06-2.905 2.487-.707 5.974-2.383 8.628-2.44M297.466 648.168c-.99-.855-.688-3.12-1.017-4.42-.507-1.958-1.403-2.662-2.493-4.32-1.657-2.528-2.205-5.426-1.232-8.423.93-2.854 2.847-5.2 3.892-7.883 1.272-3.273 1.207-6.892 1.692-10.466M289.886 613.95c-3.3 3.1-7.495 7.618-7.897 12.35-.203 2.377-.632 5.28.016 7.577.486 1.747 1.892 6.31 2.904 7.128M300.158 635.924c-1.203-2.19 1.6-6.22 1.768-8.63.212-2.908-.47-7.54-2.32-9.532M304.733 633.717c.08-1.868 2.2-3.56 3.133-5.19.82-1.428 1.093-2.633 2.898-3.266M301.5 689.254c.254 3.64 2.458 11.02.023 13.943M294.743 707.688c5.23-5.655.293-14.847.184-21.735.227-.064.44-.03.667-.07M282.918 680.38c-.695 2.456-2.91 4.782-3.804 7.36-.958 2.788-.797 5.932-.44 8.96.333 2.918 1.303 5.07 3.008 7.453 1.372 1.92 2.04 6.22 3.646 7.497M295.5 681.162c-.102 2.63-4.278 6.113-5.765 8.26-1.798 2.583-2.906 5.716-2.734 8.874.154 2.822 1.236 5.183 3.05 7.31.913 1.077 1.825 1.583 2.39 2.952.698 1.685.22 3.643.85 5.377M263.32 605.865c-.544 3.204-2.852 6.94-4.317 9.984-1.842 3.828-3.088 7.13-4.198 11.155-2.39 8.665-.614 17.858.03 26.777.362 4.984-.527 9.747-.637 14.636-.077 3.1.595 5.708.12 8.75-.402 2.6-.63 5.21-.86 7.873-.778 9.13-3.116 17.64 1.853 25.808 1.64 2.688 3.554 5.202 5.442 7.71M257.613 605.316c-2.836 3.675-4.81 6.515-6.75 10.862-1.655 3.712-3.212 7.296-4.45 11.004-2.718 8.162-.727 17.42-.133 25.907.638 9.22-1.998 17.92-2.32 27.11-.14 4.02.53 8.436.985 12.3.454 3.878-.092 8.652 1.374 12.17 1.095 2.652 3.008 4.743 4.453 7.027 1.33 2.124 2.48 5.104 4.317 7.015M248.856 608.522c-3.26 5.224-6.108 10.85-8.734 16.457-2.263 4.842-2.64 13.186-.896 18.49M238.698 656.268c2.018 4.72-1.426 11.497-3.155 15.82-1.586 3.952-4.7 9.01-4.513 13.315M239.472 681.037c.614 3.48-1.587 7.73-2.258 11.037-.597 2.924-.283 6.444.882 9.14 1.318 3.056 2.89 5.72 4.1 8.718.823 2.036 4.03 6.21 5.94 7.376M339.357 652.348c-1.363-3.387-5.166-7.048-9.113-5.275M335.895 687.575c-2.796 1.08-4.84 1.524-7.77.247-1.817-.786-5.13-2.167-5.06-4.555M324.278 656.47c.608 1.204 2.212 2.266 3.285 3.08M323.715 678.963c1.095-.4 1.852-1.354 2.942-1.857M314.235 654.804c-.833.492-1.677.883-2.508 1.356M309.874 677.087c.304-.057.253-.38.65-.25.383.626.862.847 1.315 1.295M276.678 658.595c-1.167 1.596-1.182 6.74.543 7.762M327.69 732.817c.823-.94 2.053-.347 3.207-.742 1.074-.37 1.51-1.43 2.78-1.564M338.537 599.698c-.057 1.674 1.6 1.646 2.543 2.653 1.326 1.403 1.652 3.294 3.388 4.5M406.605 626.877c1.55-.11 3.302-.563 4.538.632M402.755 707.51c1.095-.49 2.795-.578 4-.277M411.513 714.47c-2.695 2.073-7.32 3.577-10.178 6.613-4.85 5.066-9.48 9.876-15.35 13.828-9.284 5.848-19.99 8.247-30.83 8.765-5.645.39-11.56.33-17.207.722-3.054.214-11.9 2.246-13.642.943M351.973 585.526c4.16 2.074 8.912 2.457 13.296 4.27 5.603 2.45 11.348 3.476 16.955 5.917 5.606 2.447 11.21 4.896 16.21 8.8 4.763 3.926 8.67 9.087 13.436 13.015 2.51 2.188 6.925 4.483 8.55 7.446M339.558 583.784c.114.98 1.41.76 2 1.943-1.435.2-2.93.25-4.39.35 1.304-.054.963.474.925.41M332.193 586.66c1.413-.173 2.61.64 4.047.427M327.254 587c1 .348 2.123.4 3.122.732M322.55 587.332c1.057.102 2.236.334 3.138.967M316.366 586.816c.91.806 2.034 1.506 3.19 1.67M307.917 587.643c1.82.43 5.508.208 6.73 1.654M303.256 588.67c.834-.432 2.58-.527 3.076.025M296.036 586.81c1.12.33 2.206.84 3.174 1.43M288.127 585.232c1.333-.39 2.54.333 2.72 1.7M284.347 585.257c.492.708 2.184 1.203 2.99 2.157M271.158 585.94c1.57-.347 5.448.214 6.483 1.435M265.894 588.43c2.118-.426 3.78-.475 5.912.062M260.917 591.614c.528-.914 1.657-.967 2.77-.905M256.997 593.07c.41.072.768-.007.923-.303M250.75 591.612s1.198-.084.705-.047M245.673 593.38c.786-.06 1.57-.108 2.35-.166M238.13 722.966c1.604.206 3.678 1.5 4.683 2.747M247.26 728.475c1.547-.31 2.778.195 4.08.897M260.814 736.52c-.612-.384-1.426-.76-2.196-1.03M284.822 738.395c-1.08-.165-1.797.272-2.036 1.325M290.246 738.252c.806-.413 1.672-.943 2.507-1.353M297.962 737.01c1.245-.245 2.443-.444 3.75-.496M321.192 748.162c1.003-.65 2.738-.346 3.23-1.173M322.9 742.133c-1.21.528-3.292.894-4.66 1.035M314.35 741.54c1.257 0 2.31-.498 3.496-.71M309.112 740.96c1.05.13 1.893-.51 3.04-.44M305.265 740.05c.614-1.28 2.38-1.16 3.697-1.207M302.546 738.347c.657-.574 1.453-.963 2.288-1.105M296.43 738.77c1.063.024 2.274-.528 3.01-.916M274.538 740.056c1.278-.09 2.524-.15 3.745-.5M264.913 737.65c1.18.204 2.338.343 3.562.226M253.956 732.978c.782-.054 1.564-.11 2.35-.167M233.667 719.965c.234.04.444-.058.69-.004-.85.95-2.488 1.725-3.765 2.357.21-.025.422-.06.634-.06M231.457 725.557c-1.026-.448-2.206-.612-3.06.214M232.45 729.745c-.66.327-1.413.82-2.034 1.325M237.437 733.413c-1.585.2-2.276 1.142-2.406 2.765M243.68 738.183c-1.522 1.32-2.964 3.483-4.918 4.12M246.73 741.277c-.945.938-1.748 2.03-1.655 3.425M249.488 746.995c.524.177-.348 2.254-.96 3.14M253.837 748.35c.207.903-.718 1.514-1.25 2.45M261.074 750.444c-1.52-.14-2.895.65-3.902 1.688M268.265 751.837c-.86.16-1.666.545-2.287 1.104M277.117 753.35c-1.89-.763-4.295 1.492-5.23 2.964M283.847 755.012c-1.353-.02-2.51 1.227-3.15 2.345M289.122 756.06c-.317.537-.674 1.027-1.077 1.495M294.126 756.655c-.477.457-.69 1.055-.59 1.7M298.492 758.245c.574.176.28.566-.17.96M302.843 759.6c.574-.42.59.087.513.676M320.716 751.505c-1.406-1.854-13.907 3.235-8.39 5.304 5.323 1.997 10.652-3.71 15.848-3.46M339.923 748.986c-3.705 2.385-7.662 3.326-11.714 1.524M337.34 582.523c.216-.86 2.248-.69 3.28-.464M334.574 580.113c.034-.618.723-.702 1.618-.583M330.917 578.477c-.176.035-.26-.04-.253-.217M325.157 577.22c.354-.437.81-.626 1.378-.566M322.854 567.93c.8.13 1.495-.056 1.85-.604M317.83 567.094c.966-.444 2.104-1.422 2.676-2.31M311.79 565.155c.752 1.036 3.77-.376 4.894-1.05M303.537 565.488c.767-.397 1.507-.943 2.02-1.56M297.084 567.83c1.512-.293 1.95-2.5 3.065-3.524M291.842 567.25c-.928.224-1.718.787-2.254 1.57M286.352 566.445c-1.054 1.568-1.54 3.838-3.472 4.496M280.01 570.43c-.875-1.59.83-2.607.646-4.3M275.14 568.41c-.492-.744-1.09-.51-1.63.343M269.87 574.21c-1.433.303-1.186-3.44-1.267-4.64M262.692 576.364c-.294-1.206-1.02-2.176-1.643-3.2M258.386 579.023c.077-1.215-.68-2.253-.718-3.494M254.01 584.058c-.44-1.01-.54-2.277-.23-3.293M247.57 586.634c.106.488.058.97-.137 1.422M245.712 590.54c.412-.413.812-1.06 1.065-1.725M326.49 572.64c-.225.246-.392-.76-.59-1.613-.174-.738-.7-1.844-.12-2.54 1.123-1.33 4.04-.006 5.183.53 3.537 1.64 7.244 3.644 10.574 5.59 1.678.985 3.174 2.113 4.968 2.96 1.78.84 3.86 1.335 5.534 2.22 4.07 2.136 7.577 2.544 12.05 3.286 2.923.484 5.79 1.053 8.812.998 3.05-.056 5.9-1.055 8.907-1.09 5.222-.07 8.794 8.954 4.898 12.66M334.955 575.362c2.84.59 4.483 1.983 6.918 3.484 1.93 1.197 4.635 1.997 6.117 3.883M365.02 586.275c2.387-.67 7.06.717 10.2.47M308.778 749.733c.15 1.22-2.76 1.934-3.516 3.32-.68 1.25-.725 3.66.046 4.727 1.99 2.756 7.156 2.185 10.07 2.128 8.058-.155 15.044-3.848 22.213-6.324 3.177-1.1 5.842-2.782 9.284-3.19 3.76-.445 7.548-1.003 11.26-1.253 3.264-.218 7.484-.193 10.265-1.728 1.322-.724 2.546-1.657 3.045-3.034.65-1.776-.528-3.975-2.425-1.904M281.222 645.75c.184.293.316.505.33.883.377.058.75.237 1.133.24.704 1.865 2.608 3.044 4.12 4.396M283.615 676.792c-1.752-1.157-3.256 3.102-4.194 4.308M293.535 673.262c-.07-.148-.293-.35-.42-.46 2.973.183 8.57 2.1 10.19 4.98M305.172 684.27c1.723.187 3.255 4.833 4.91 6.042M295.1 654.952c3.34-.23 6.25-.61 9.134-1.99 2.55-1.217 5.54-3.984 8.136-4.652M297.09 608.72c1.336-.156 3.075-.798 4.667-.798M293.256 720.315c1.184-.6 1.378 1.027 2.234 1.5M274.292 607.233c1.017-.35 1.824-.965 2.724-1.608M271.648 610.01c.995-.322 2.062-.715 2.995-1.15M267.005 611.282c.672-.58 1.62-.77 2.56-.648M269.59 614.41c.313-.692.852-.948 1.6-.814M269.868 618.412c-.073-.426.06-.8.406-.97M265.39 615.18c.11-.493.42-.867.873-1.01M267.728 621.635c-.974.086-1.952.218-2.84-.038M263.05 625.74c1.478-1.018 3.093-1.836 4.523-2.913M266.543 618.165c.552-.936 1.49-1.718 2.457-2.055M261.923 626.528c.793-.804 1.683-1.547 2.692-2.078M261.93 630.072c1.363-1.572 3.583-2.045 4.95-3.65M260.887 632.035c-.2.415-.496.755-.875 1.008M262.276 635.013c-.603.45-1.148 1.072-1.532 1.763M264.027 639.856c-.958.265-1.54 1.195-1.73 2.25M264.09 633.94c-.53-1.44 1.542-2.735 2.58-3.728M259.528 639.693c1.258-.592 2.372-1.418 3.384-2.358M265.667 687.252c.075-.68-.16-1.455-.42-2.072-.872-.187-1.274.066-1.576.558M263.61 691.647c.894.482 1.592 1.092 2.025 1.988M260.545 695.168c.23-.062.46-.066.686-.005.298.73.44 1.484.417 2.297M263.695 699.68c.51.504 1.045 1.05 1.525 1.55M265.327 706.18c-.523-.593-1.003-1.158-1.507-1.765-.28-.016-.517.074-.722.272M262.937 709.187c1.634-1.533 2.125.627 2.03 1.987M265.967 715.36c.022.81 1.26 1.52 2.044 2.222M259.804 704.914c.76.535 2.61.272 2.732 1.935M260.435 700.38c.38-.072 1.228.372 1.726 1.06M263.45 696.15c.144-.24-.244-.424.19-.475.452.546.984 1.158 1.32 1.792M260.272 687.863c.532.73 1.062 1.62 1.36 2.51M261.222 684.488c1.246.042 2.425.704 2.735 1.937M262.304 679.686c.417 1.062 1.426 1.618 1.844 2.707M272.522 697.41c.124-.222.186-.465.18-.72M262.337 690.316c-.055.93 2.087 3.37 2.677 4.542M262.094 700.5c1.07.22 1.364 1.416 1.36 2.505M260.668 683.345c.996 1.542 2.426 2.9 3.84 4.22M265.553 617.53c.925-.745 2.095-1.266 2.677-2.315M243.18 594.97c-3.288.23-5.68 3.233-7.905 5.278-4.66 4.343-9.085 8.672-12.505 13.87-7.03 11.13-14.457 19.915-16.85 33.08-1.834 11.003-1.572 21.62 2.22 31.993 1.792 5.313 4.235 9.874 6.693 14.67 2.494 5.256 6.984 12.04 10.838 16.498 3.085 3.57 4.897 5.805 9.278 7.632M403.39 607.718c3.692 2.107 8.005 2.986 11.85 3.902 3.122.727 9.15 2.438 10.76 5.165M391.484 732.406c8.262-.104 15.335-7.21 23.537-8.254M426.86 639.415c2.876.512 6.468 1.208 8.92 2.45M415.48 703.558c5.984-2.308 12.125-5.81 18.39-7.426M301.265 636.06c-.66.874-1.558 2.173-1.994 3.347-.413 1.1-.192 2.493-1.017 3.388M300.395 645.474c1.687-.177 3.59-2.02 4.76-3.542.906-1.175 3.024-3.353 3.125-5.05M297.99 682.82c1.144.955 1.722 2.807 3.253 3.037M297.373 714.608c.783-2.047 3.52-3 5.138-4.27M303.656 614.15c1.54 1.058 2.88 3.108 4.814 3.58M355.23 714.94c1.807 1.59 3.126 3.423 2.806 5.893M363.024 626.77c1.506.07 4.09-2.56 5.398-3.63M352.82 595.732c1.513.11 2.532 1.096 3.815 1.698M338.624 735.665c1.11-.33 2.262-.37 3.448-.46M286.507 595.77c1.464-.59 3.432-1.078 5.107-1.654M277.886 728.355c2.202-.544 4.54 2.058 5.9 3.507M2048 0M2048 1536M0 1536M0 0"/></g></svg>