<?xml version="1.0" encoding="iso-8859-1"?>
<!-- Generator: Adobe Illustrator 15.1.0, SVG Export Plug-In . SVG Version: 6.00 Build 0)  -->
<!DOCTYPE svg PUBLIC "-//W3C//DTD SVG 1.1//EN" "http://www.w3.org/Graphics/SVG/1.1/DTD/svg11.dtd">
<svg version="1.1" xmlns="http://www.w3.org/2000/svg" xmlns:xlink="http://www.w3.org/1999/xlink" x="0px" y="0px" width="2048px"
	 height="1536px" viewBox="0 0 2048 1536" style="enable-background:new 0 0 2048 1536;" xml:space="preserve">
<g id="e3a_x5F_mantel_x5F_move">
	<g>
		<path style="fill:none;stroke:#17192D;stroke-width:3;" d="M1431.284,752.642c37.211,27.269,88.269,40.967,129.617,63.732
			c19.199,10.724,117.367,46.946,116.537,61.404"/>
		<path style="fill:none;stroke:#17192D;stroke-width:3;" d="M1586.609,946.534c7.689,11.21,22.814,27.874,23.366,40.833"/>
		<path style="fill:none;stroke:#17192D;stroke-width:3;" d="M1025.833,815.987c-44.324,9.091-108.646-11.259-153.881-23.764
			c-33.54-8.672-85.918-19.43-114.186-39.867"/>
		<path style="fill:none;stroke:#17192D;stroke-width:3;" d="M548.597,751.134c7.26,1.133,14.703,6.587,19.263,12.163"/>
		<path style="fill:none;stroke:#17192D;stroke-width:3;" d="M560.966,600.619c18.25,22.299,120.155,10.769,151.89,10.866
			c50.448-0.699,112.716,5.314,161.3-5.399"/>
		<path style="fill:none;stroke:#17192D;stroke-width:3;" d="M1722.236,777.802c31.792,1.538,59.393,6.135,90.88,0.473
			c38.626-7.407,79.643-26.452,118.51-28.101"/>
		<path style="fill:none;stroke:#17192D;stroke-width:3;" d="M1766.348,1137.933c5.823,1.195,0.307,7.2-3.89,10.261"/>
		<path style="fill:none;stroke:#17192D;stroke-width:3;" d="M1732.971,1098.967c8.694,1.074,8.88,5.392,3.364,11.396"/>
		<path style="fill:none;stroke:#17192D;stroke-width:3;" d="M1547.845,1086.624c7.198-0.304,24.531,0.401,36.051-0.085"/>
		<path style="fill:none;stroke:#17192D;stroke-width:3;" d="M1473.688,1072.464c2.817-1.562,18.653-2.234,27.294-2.6"/>
		<path style="fill:none;stroke:#17192D;stroke-width:3;" d="M1202.726,974.343c-34.428,4.35-75.409-9.781-110.264-15.513
			c-36.294-5.673-74.395-19.923-109.497-31.414c-32.22-11.615-67.078-17.349-100.553-24.584
			c-33.478-7.234-68.637-20.165-102.238-30.276c-4.383-1.26-8.76-2.514-13.139-3.771"/>
		<path style="fill:none;stroke:#17192D;stroke-width:3;" d="M776.272,950.603c32.284,13.055,67.076,17.348,100.795,30.339"/>
		<path style="fill:none;stroke:#17192D;stroke-width:3;" d="M693.418,935.365c0.244,5.759,6.25,11.274,13.567,13.85"/>
		<path style="fill:none;stroke:#17192D;stroke-width:3;" d="M536.085,864.155c43.247-0.39,87.05,12.176,130.666,20.419"/>
		<path style="fill:none;stroke:#17192D;stroke-width:3;" d="M614.766,508.916c82.665,10.92,159.709-42.825,243.27-44.927"/>
		<path style="fill:none;stroke:#17192D;stroke-width:3;" d="M586.96,465.387c51.825-2.195,106.164-13.156,157.624-23.988
			c65.794-12.887,131.711-22.894,195.942-38.597c51.462-10.833,159.952-37.069,207.485-4.471"/>
		<path style="fill:none;stroke:#17192D;stroke-width:3;" d="M1026.506,423.674c-18.414,7.99-34.068,12.984-54.099,16.716"/>
		<path style="fill:none;stroke:#17192D;stroke-width:3;" d="M1773.696,596.783c-6.067-5.224-8.067-14.941-14.99-19.372
			c-0.172,2.877,1.433,2.99,2.86,5.466"/>
		<path style="fill:none;stroke:#17192D;stroke-width:3;" d="M1214.487,571.462c2.938,1.317,7.258,1.134,10.14,1.012
			c-23.097-0.462-41.262,13.286-64.356,12.821"/>
		<path style="fill:none;stroke:#17192D;stroke-width:3;" d="M888.543,673.256c-14.093,7.81-29.742,12.799-43.959,17.729"/>
		<path style="fill:none;stroke:#17192D;stroke-width:3;" d="M588.456,704.729c0,0-10.016,1.87-14.336,2.055"/>
		<path style="fill:none;stroke:#17192D;stroke-width:3;" d="M509.75,617.209c27.842,10.357,65.087,4.452,90.358,22.129"/>
		<path style="fill:none;stroke:#17192D;stroke-width:3;" d="M532.285,672.501c-5.696,1.68-9.894,4.743-15.652,4.986"/>
		<path style="fill:none;stroke:#17192D;stroke-width:3;" d="M538.45,817.901c11.518-0.49,21.595-0.918,31.797,1.535"/>
		<path style="fill:none;stroke:#17192D;stroke-width:3;" d="M1289.646,405.306c32.22,11.615,85.912,19.434,121.843,16.467"/>
		<path style="fill:none;stroke:#17192D;stroke-width:3;" d="M1613.879,501.166c4.624,7.013,12.132,13.909,22.329,16.359"/>
		<path style="fill:none;stroke:#17192D;stroke-width:3;" d="M1674.506,638.489c-12.652,7.749-44.503,4.772-61.538,11.264
			c12.495,22.546,60.77,4.632,78.897,24.056"/>
		<path style="fill:none;stroke:#17192D;stroke-width:3;" d="M1631.293,1013.858c-0.123-2.876-0.245-5.755-0.367-8.636
			c7.382,4.016,10.506,9.65,13.688,16.727"/>
		<path style="fill:none;stroke:#17192D;stroke-width:3;" d="M1707.651,1012.065c54.769-0.881,108.707,12.697,162.521,23.395"/>
		<path style="fill:none;stroke:#17192D;stroke-width:3;" d="M1297.53,931.384c7.563,8.331,16.386,12.289,23.887,19.18"/>
		<path style="fill:none;stroke:#17192D;stroke-width:3;" d="M1362.77,735.355c7.199-0.305,12.959-0.548,20.215,0.583
			c-44.502,4.772-92.805-11.927-136.173-14.413c-38.995-1.234-76.547-2.526-115.539-3.756c-59.268-3.255-118.229,0.687-178.57,6.131
			c5.819,1.195,17.52,5.024,17.52,5.024"/>
		<path style="fill:none;stroke:#17192D;stroke-width:3;" d="M714.652,687.843c15.592-6.432,38.566-8.848,54.646-3.758"/>
		<path style="fill:none;stroke:#17192D;stroke-width:3;" d="M477.484,706.555c2.744-5.666,6.158-11.812,0.706-17.337"/>
		<path style="fill:none;stroke:#17192D;stroke-width:3;" d="M759.182,547.501c-3.126-5.635,40.187-4.587,50.264-5.013
			c30.173-2.722,61.842-4.064,92.013-6.786c68.858-8.688,135.725-30.273,205.834-43.341c35.808-5.843,76.059-8.996,112.048-10.519"
			/>
	</g>
	<path style="fill:none;stroke:#17192D;stroke-width:3;" d="M2048,0"/>
	<path style="fill:none;stroke:#17192D;stroke-width:3;" d="M2048,1536"/>
	<path style="fill:none;stroke:#17192D;stroke-width:3;" d="M0,1536"/>
	<path style="fill:none;stroke:#17192D;stroke-width:3;" d="M0,0"/>
</g>
<g id="Layer_1">
</g>
</svg>
