<?xml version="1.0" encoding="iso-8859-1"?>
<!-- Generator: Adobe Illustrator 15.1.0, SVG Export Plug-In . SVG Version: 6.00 Build 0)  -->
<!DOCTYPE svg PUBLIC "-//W3C//DTD SVG 1.1//EN" "http://www.w3.org/Graphics/SVG/1.1/DTD/svg11.dtd">
<svg version="1.1" xmlns="http://www.w3.org/2000/svg" xmlns:xlink="http://www.w3.org/1999/xlink" x="0px" y="0px" width="2048px"
	 height="1536px" viewBox="0 0 2048 1536" style="enable-background:new 0 0 2048 1536;" xml:space="preserve">
<g id="e3a_x5F_horn_x5F_r">
	<g>
		<g>
			<path style="fill:none;stroke:#17192D;stroke-width:3;" d="M45.342,556.676c40.918-11.16,96.131-6.408,136.903,3.471
				c14.099,3.21,27.779,9.235,41.688,13.384c9.269,2.746,20.076,5.116,28.354,11.502c-0.433-0.224-1.301-0.668-1.736-0.89"/>
		</g>
		<g>
			<path style="fill:none;stroke:#17192D;stroke-width:3;" d="M224.667,620.073c-17.43-10.573-22.974-21.733-42.177-31.316
				c-13.184-6.311-26.402-11.711-40.555-16.354c-23.25-7.674-41.285-13.123-79.479-15.507c-5.882-0.512-11.706,0.065-17.113-0.22"/>
		</g>
		<g>
			<path style="fill:none;stroke:#17192D;stroke-width:3;" d="M200.853,571.378c5.799,1.364,12.843,4.125,18.853,6.57
				c6.802,2.76,13.326,5.618,19.741,9"/>
		</g>
		<g>
			<path style="fill:none;stroke:#17192D;stroke-width:3;" d="M207.726,596.466c5.318,1.999,10.542,5.597,15.163,8.38
				c4.239,2.708,8.511,4.916,12.673,7.668c4.148,2.748,1.239,0.21,4.679,3.203"/>
		</g>
		<g>
			<path style="fill:none;stroke:#17192D;stroke-width:3;" d="M227.275,621.663c10.798,1.298,10.666,2.237,16.79-1.431
				c2.438-1.369,1.375-3.295,2.319-5.128c0.477-1.604,3.875,0.353,2.934-1.067c-0.452-1.806-0.442-5.083,0.479-7.064
				c1.318-2.194,1.971-3.224,3.113-5.437c1.163-2.383,4.031-2.544,3.3-5.295c-0.633-2.118-0.568-4.317-0.663-6.723
				c-0.104-2.824-0.104-2.824-0.272-4.001c-0.199-1.395-2.393-2.332-3.215-2.286c0.637,0.925,0.841,2.953,0.425,4.309
				c-0.593,1.965,2.055,3.836,1.729,5.781c-0.38,1.376,0.521,1.031,0.464,2.421c0.352,4.307-9.146,5.873-10.064,9.872
				c-1.325,5.856,0.666,9.828-6.128,11.809c-2.379,0.839-3.03,1.826-5.483,2.03c-1.949,0.481-3.691,2.489-5.072,2.674
				c-3.457,0.352-0.03-2.89-3.265-2.054C227.333,621.88,224.65,621.479,227.275,621.663"/>
		</g>
		<path style="fill:none;stroke:#17192D;stroke-width:3;" d="M168.561,569.481c-9.757-2.308-18.931-5.806-28.785-7.576
			c-4.837-0.87-8.334,1.092-12.764,1.036c-2.034,0.003-3.99-1.456-5.897-2.17c-2.118-0.565-4.396-0.235-6.546-0.622
			c-2.508-0.45-4.791-2.155-7.299-2.606c-2.541-0.271-4.723-0.479-7.411-0.961c-4.984-1.079-10.037-1.777-15.086-2.5
			c-2.541-0.27-5.075-0.569-7.534-0.27c-2.1,0.361-4.282,0.155-6.381,0.517c-4.916,0.596-9.161,2.608-14.209,1.885
			c-2.363-0.238-4.448-0.984-6.773,0.634"/>
		<path style="fill:none;stroke:#17192D;stroke-width:3;" d="M161.772,572.77c5.86,0.779,12.397,3.864,17.756,5.917"/>
	</g>
	<path style="fill:none;stroke:#17192D;stroke-width:3;" d="M2048,0"/>
	<path style="fill:none;stroke:#17192D;stroke-width:3;" d="M2048,1536"/>
	<path style="fill:none;stroke:#17192D;stroke-width:3;" d="M0,1536"/>
	<path style="fill:none;stroke:#17192D;stroke-width:3;" d="M0,0"/>
</g>
<g id="Layer_1">
</g>
</svg>
