<?xml version="1.0" encoding="iso-8859-1"?>
<!-- Generator: Adobe Illustrator 15.1.0, SVG Export Plug-In . SVG Version: 6.00 Build 0)  -->
<!DOCTYPE svg PUBLIC "-//W3C//DTD SVG 1.1//EN" "http://www.w3.org/Graphics/SVG/1.1/DTD/svg11.dtd">
<svg version="1.1" xmlns="http://www.w3.org/2000/svg" xmlns:xlink="http://www.w3.org/1999/xlink" x="0px" y="0px" width="2048px"
	 height="1536px" viewBox="0 0 2048 1536" style="enable-background:new 0 0 2048 1536;" xml:space="preserve">
<g id="e3a_x5F_horn_x5F_l">
	<g>
		<g>
			<path style="fill:none;stroke:#17192D;stroke-width:3;" d="M35.858,765.844c41.665,12.399,98.354,8.831,140.365-0.332
				c14.522-2.956,28.682-8.81,43.031-12.734c9.564-2.595,20.693-4.768,29.326-11.118c-0.45,0.219-1.349,0.654-1.8,0.872"/>
		</g>
		<g>
			<path style="fill:none;stroke:#17192D;stroke-width:3;" d="M221.103,705.105c-18.109,10.424-24.053,21.729-43.955,31.096
				c-13.658,6.157-27.33,11.38-41.943,15.802c-24.004,7.317-42.611,12.476-81.806,14.019c-6.04,0.386-11.994-0.343-17.542-0.178"/>
		</g>
		<g>
			<path style="fill:none;stroke:#17192D;stroke-width:3;" d="M158.543,749.491c5.974-1.263,13.257-3.926,19.473-6.289
				c7.034-2.669,13.786-5.443,20.439-8.76"/>
		</g>
		<g>
			<path style="fill:none;stroke:#17192D;stroke-width:3;" d="M205.256,742.151c5.498-1.921,10.934-5.485,15.735-8.228
				c4.407-2.678,8.836-4.838,13.166-7.561c4.316-2.717,6.334-1.318,9.93-4.305"/>
		</g>
		<g>
			<path style="fill:none;stroke:#17192D;stroke-width:3;" d="M248.618,740.658c5.4-9.751,4.302-3.232,3.182-10.461
				c-0.358-2.843-2.598-2.578-3.973-4.181c-1.34-1.071-1.321-4.365-3.031-4.022c-1.889-0.266,0.464-6.574-1.062-8.213
				c-1.576-2.099-3.553-2.588-5.213-4.528c-1.814-2.023-0.86-4.811-3.753-5.177c-2.256-0.217-3.609-0.608-5.93-1.448
				c-2.722-0.991-2.722-0.991-3.905-1.284c-1.401-0.349-3.138,1.371-3.41,2.169c1.123-0.248,3.128,0.341,4.254,1.259
				c1.638,1.323,1.753,1.317,3.474,2.377c1.161,0.892,1.18-0.099,2.479,0.494c4.223,1.328,7.951,6.33,11.395,8.745
				c5.048,3.519,4.594,10.805,3.854,18.021c-0.122,2.583,5.187,2.021,4.433,4.429c-0.295,2.036-1.916,1.214-2.272,2.598
				c-1,3.417-2.755-1.087-3.209,2.307C248.678,741.909,247.43,743.08,248.618,740.658"/>
		</g>
		<path style="fill:none;stroke:#17192D;stroke-width:3;" d="M99.334,766.414c-2.61,0.219-4.85,0.381-7.616,0.812
			c-5.133,0.989-10.327,1.584-15.518,2.207c-2.61,0.218-5.215,0.462-7.727,0.099c-2.142-0.422-4.383-0.261-6.525-0.681
			c-5.023-0.727-9.326-2.888-14.517-2.267c-2.426,0.189-4.58,0.904-6.924-0.808"/>
		<path style="fill:none;stroke:#17192D;stroke-width:3;" d="M171.728,751.457c-10.052,2.135-19.535,5.504-29.674,7.086"/>
	</g>
	<path style="fill:none;stroke:#17192D;stroke-width:3;" d="M2048,0"/>
	<path style="fill:none;stroke:#17192D;stroke-width:3;" d="M2048,1536"/>
	<path style="fill:none;stroke:#17192D;stroke-width:3;" d="M0,1536"/>
	<path style="fill:none;stroke:#17192D;stroke-width:3;" d="M0,0"/>
</g>
<g id="Layer_1">
</g>
</svg>
