<svg xmlns="http://www.w3.org/2000/svg" width="2048" height="1536" viewBox="0 0 2048 1536"><g><path d="M35.858 765.844c41.665 12.4 98.354 8.83 140.365-.332 14.522-2.956 28.682-8.81 43.03-12.734 9.565-2.595 20.694-4.768 29.327-11.118-.45.22-1.35.654-1.8.872M221.103 705.105c-18.11 10.424-24.053 21.73-43.955 31.096-13.658 6.158-27.33 11.38-41.943 15.803-24.004 7.317-42.61 12.476-81.806 14.02-6.04.385-11.995-.344-17.543-.18M158.543 749.49c5.974-1.262 13.257-3.925 19.473-6.288 7.034-2.67 13.786-5.443 20.44-8.76M205.256 742.15c5.498-1.92 10.934-5.484 15.735-8.227 4.408-2.678 8.837-4.838 13.167-7.56 4.316-2.718 6.334-1.32 9.93-4.306M248.618 740.658c5.4-9.75 4.302-3.232 3.182-10.46-.358-2.844-2.598-2.58-3.973-4.182-1.34-1.07-1.32-4.365-3.03-4.022-1.89-.266.463-6.574-1.063-8.213-1.576-2.098-3.553-2.587-5.213-4.527-1.813-2.023-.86-4.81-3.752-5.177-2.256-.217-3.61-.608-5.93-1.448-2.722-.99-2.722-.99-3.905-1.284-1.4-.35-3.138 1.37-3.41 2.17 1.123-.25 3.128.34 4.254 1.258 1.638 1.323 1.753 1.317 3.474 2.377 1.162.89 1.18-.1 2.48.493 4.223 1.328 7.95 6.33 11.395 8.745 5.048 3.52 4.594 10.805 3.854 18.02-.123 2.584 5.186 2.022 4.432 4.43-.295 2.036-1.916 1.214-2.272 2.598-1 3.417-2.755-1.087-3.21 2.307 2.748-1.834 1.5-.663 2.688-3.085M99.334 766.414c-2.61.22-4.85.38-7.616.812-5.133.99-10.327 1.584-15.518 2.207-2.61.218-5.215.462-7.727.1-2.142-.423-4.383-.262-6.525-.682-5.023-.726-9.326-2.887-14.517-2.266-2.425.19-4.58.904-6.923-.808M171.728 751.457c-10.052 2.135-19.535 5.504-29.674 7.086M2048 0M2048 1536M0 1536M0 0" fill="none" stroke="#17192D" stroke-width="3"/></g></svg>