<svg xmlns="http://www.w3.org/2000/svg" width="2048" height="1536" viewBox="0 0 2048 1536"><g fill="none" stroke="#17192D" stroke-width="3"><path d="M625.04 785.39c45.422 16.823 100.372 20.26 148.493 32.642 62.696 16.092 128.147 29.182 192.348 46.652 68.514 17.287 133.076 43.395 196.325 72.44 32.28 13.054 61.742 27.67 95.28 36.342 16.023 3.647 34.856 5.735 48.122 12.383 14.7 6.588 23.827 17.738 39.845 21.388 23.215 3.34 41.81-.333 62.454 10.33 20.642 10.66 38.284 18.565 61.625 24.79 32.034 7.293 99.148-8.53 122.025 20.784M1797.657 889.99c-52.96 9.453-113.665 6.258-164.665-5.998M1544.26 866.116c-22.85 5.297-55.19-9.2-76.3 3.237 15.313 20.984 53.17 29.476 74.183 48.777M1639.377 1000.543c6.002 5.512 13.445 10.966 20.89 16.418M1612.27 1007.46c3.122 5.64.427 10.076-6.71 11.82M1541.24 998.936c-30.416-3.036-54.978-38.052-70.35-60.48-16.933-25.243-34.512-31.705-59.722-47.946M1085.217 822.12c23.768 16.3 71.4 17.167 99.055 23.204 24.654 3.284 49.436 9.44 74.154 14.165 27.534 3.152 56.635 9.134 84.17 12.296 20.276 2.023 50.384-2.14 68.148 8.646M1241.882 877.498c10.32 5.33 22.026 9.158 33.6 10.11M1270.1 828.703c20.457 6.345 42.362 12.63 61.502 21.912M653.384 739.48c-11.7-3.833-24.656-3.284-36.297-5.673M622.322 755.22c-14.09 7.807-24.046 11.11-32.255 21.555-9.588 11.946-17.495 29.59 6.855 25.67M548.805 790.062c-20.73-.76-46.538-4.396-65.453-13.086M478.6 596.9c4.748 9.895 50.75 6.5 62.025.252M602.563 561.355c-.95 11.58-24.753 28.453-37.588 31.884M668.01 642.23c-20.288-5.49-42.302-18.685-64.355-18.617-30.32.093 9.667 24.77 18.286 20.57M613.802 588.284c42.356 12.622 92.316.41 134.25 2.96 41.935 2.545 83.927 6.533 124.418 9.147 31.858 2.974 64.848-1.308 98.014-1.273 36.115 1.354 70.848 4.21 108.34 4.06 131.125-2.676 258.904 17.865 388.842 21.01 10.08-.43 24.53.4 30.23-1.282M1888.387 682.784c-12.77 4.867-34.553 1.462-43.833 20.607 8.05 19.85 16.875 23.805-8.856 29.22-17.15 3.61-37.432 1.585-56.085 3.82-28.67 4.098-55.84 9.58-83.07 13.62-30.112 4.16-60.827-6.075-91.122-6.232-18.774-.647-68.672 13.007-80.558 4.856M1604.66 691.928c-2.39 11.64-13.6 19.326-21.997 25.452M1554.57 769.047c36.356 7.115 68.516 17.288 107.14 9.882M1690.47 810.88c13.44 10.968 28.265 20.435 37.517 34.466M1849.117 879.15c17.277-.734 31.673-1.345 47.752 3.743M1868.963 938.882c-3.836 11.7-19.544 15.255-29.562 17.12M1713.06 1105.58c1.74 7.138.61 14.397-3.403 21.778-4.32.185-11.46 1.927-15.835.672M1739.767 1123.2c3.002 2.754-4.017 7.378-11.092 10.56M1781.453 1119.984c2.818-1.56 8.58-1.806 11.394-3.365.124 2.88.307 7.196-1.01 10.137M1763.874 1113.522c-1.44.06 1.437-.062 2.815-1.562-1.504-1.377-1.564-2.817-3.123-5.637M1792.568 1144.033c4.5 4.135 8.94 6.833 12.003 11.027M1823.264 1119.656c1.926 11.455 6.795 24.228 14.295 31.123M1852.422 1127.072c12.002 11.03 29.462 14.616 42.905 25.58M1887.357 998.676c5.82 1.195 11.577.952 17.335.71M1641.418 1082.658c-14.52-2.27-29.223-8.855-38.748 4.527M1297.944 1009.25c20.766 13.54 49.988 22.397 73.447 31.496 32.285 13.052 63.307 30.484 94.086 42.162 61.626 24.79 125.767 40.82 189.9 56.85 78.715 19.735 154.916 48.23 234.895 63.587-2.878.125-4.318.185-7.26-1.13M1051.324 974.994c3 2.76-67.6 4.31-79.177 3.357-34.615.028-67.97-4.325-100.067-13.06-69.957-17.225-136.91-31.696-208.123-44.538-30.538-5.918-68.458-15.85-95.225-34.902M526.532 842.926c21.653.526 41.442-8.968 61.597-9.823M650.86 816.02c10.626 12.53 48.058 10.944 65.518 14.53M646.935 859.456c15.712-3.552 31.858 2.973 46.433 6.68M773.953 895.895c27.597 4.598 55.255 10.638 82.914 16.675M477.655 778.655c26.915 56.55 33.984 121.152 101.363 145.697 61.502 21.91 125.702 39.382 189.776 53.97 71.337 15.724 172.966 31.606 243.014 17.098M948.1 989.47c-4.56-5.577 44.75.987 53.514 3.498 29.092 5.977 55.432 14.957 84.468 19.494 61.016 10.393 123.466 20.723 183.346 38.376 67.196 20.227 146.502 19.747 209.134 34.396M1173.165 991.46c10.32 5.332 18.066 17.984 29.954 26.134M1051.934 989.394c14.518 2.268 28.974 3.096 43.372 2.485M929.445 991.7c4.198-3.06 8.577-1.806 13.017.892M756.288 853.375c10.195 2.452 14.883 10.908 13.81 19.607M736.087 955.19c15.772-2.11 29.153 7.417 43.55 6.807M569.283 898.802c5.94 4.078 11.822 6.712 19.14 9.285M513.594 707.905c-3.892 10.26-10.667 20.642 6.854 25.668M586.032 511.578c-7.077 3.188-40.128 6.028-55.962 6.698 11.396-3.365 24.11-9.674 33.882-17.3M530.986 539.873c7.2-.308 14.393-.61 20.092-2.295M1071.652 400.128c-94.645 12.664-188.743 38.29-283.455 49.515M1092.67 589.607c-27.293 2.598-53.697-7.817-79.912-13.917-27.66-6.037-56.205.94-82.485-6.598M883.777 560.968c2.208-15.958 113.18-17.778 133.276-20.075 44.44-6.208 111.335 6.82 153.73-13.73M1422.005 363.64c-60.465 2.565-135.078 11.493-191.93 31.21-2.332 13.08-3.465 20.336-2.858 34.735.49 11.518 10.873 18.288-6.158 24.778M1223.232 471.578c12.004 11.03-27.326 35.77-37.16 41.956 28.146 17.56 73.48-1.672 103.772-1.517 31.735.1 68.088 7.212 100.007 11.63 33.357 4.347 66.894 13.025 98.81 17.44 33.355 4.355 67.726-1.43 99.7 4.423 29.038 4.54 54.12 17.898 81.84 25.377 17.583 6.463 71.273 14.283 68.053 40.38M1527.394 434.165c-3.126-5.635-6.246-11.275-9.373-16.912M1615.697 441.955c-13.626-15.283-22.596-56.728-45.688-57.19M1322.722 437.073c1.502 1.378 17.974 49.715 8.202 57.34M1253.314 432.805c13.385 9.53 14.057 25.366 14.728 41.202M1383.78 584.47c.182 4.322-.77 15.898-2.088 18.843M1231.473 665.93c-7.197.303-43.372-2.492-57.276 9.636M1050.912 659.162c-4.93-14.214-69.808 20.265-84.142 22.315M851.94 660.386c-18.773-.646-28.244 14.177-43.896 19.17M634.682 672.483c-7.443-5.454-22.79 6.74-31.183 12.862M663.352 668.386c5.762-.245 17.58 6.464 23.645 13.417-18.532 5.114-38.442 11.728-56.974 16.835M549.865 678.963c2.452-10.197-19.848 8.054-22.422 15.374M516.854 648.634c8.576-1.804 17.273-.73 24.592 1.844M520.445 563.395c1.627 4.257-26.493 21.315-33.264 31.7M540.723 565.42c5.577-4.563-9.894 4.746-11.333 4.805M515.677 518.887c4.318-.183 7.198-.305 10.016-1.866M544.258 478.737c10.078-.428 20.156-.854 28.673-4.1M1382.416 450.406c7.382 4.016 17.703 9.35 27.963 13.238M1606.745 673.09c7.382 4.014 16.208 7.965 22.146 12.042M1726.513 640.61c1.993 12.895 9.617 22.666 14.362 32.563M1775.403 637.096c24.595 1.84 50.876 9.38 76.728 6.84-3.187-7.074-3.307-9.955-12.13-13.906 13.145 3.767 25.024 11.916 38.04 12.81-.122-2.882-1.684-5.7-3.244-8.517 8.7 1.073 17.52 5.024 26.217 6.1-1.56-2.82-3.003-2.76-4.562-5.577 1.32-2.94 4.26-1.62 5.455-7.442 7.383 4.014 17.705 9.345 23.342 6.223M1903.555 666.273c-14.398.61-27.235 4.04-41.63 4.65M1802.623 700.84c11.516-.486 20.46 6.346 27.963 13.234M1846.913 895.106c-5.574 4.562-22.664 9.614-32.806 8.602M1717.07 928.017c17.274-.734 43.74 11.123 50.02-10.775M1643.343 923.93c7.2-.305 14.455.832 20.396 4.906M1610.598 933.972c1.317-2.938 4.195-3.063 4.137-4.504l-1.438.066c.306 7.2 1.985 12.894 2.23 18.653M1693.17 976.623c33.538 8.677 69.59 8.586 102.822 10.063M1729.09 1041.443c2.94 1.318 7.684 11.212 9.43 18.348M1027.37 784.19c17.214-2.173 30.412 3.032 41.04 15.563M888.565 707.87c8.823 3.955-25.67 6.857-32.686 11.48 2.944 1.32 5.945 4.077 8.88 5.397-52.774 13.773-117.863 9.32-172.567 11.64M698.746 754.858c18.775.646 49.188 3.683 62.637 14.648M676.02 763.032c-18.904-3.523-32.93 5.725-50.146 7.898M542.333 467.283c-2.82 1.562 9.894-4.748 12.713-6.307M683.145 420.93c4.258-1.624 8.7 1.072 11.762 5.268M764.775 407.373c7.135-1.748 12.957-.55 17.58 6.464M838.012 399.94c11.52-.488 23.1.464 33.052-2.844M951.56 390.798c48.64-9.274 92.72-24.122 141.667-26.198 47.506-2.016 96.88 5.987 142.886 2.595M479.25 578.122c3.524-18.898 14.187-39.54 22.152-55.744 11.8-27.902 25.033-55.863 54.837-67.223 24.047-11.118 54.218-13.84 79.885-20.696 27.11-6.917 52.593-18.095 81.14-25.07 91.406-21.186 188.41-12.32 281.374-30.684M1137.79 361.268c24.962 10.478 57.89 4.756 85.24 3.6 31.675-1.344 63.468.19 95.08-2.592 66.1-5.688 130.7-12.754 196.916-15.56 60.466-2.565 144.43-29.198 199.99-11.365M473.705 787.477c-2.822 1.562-1.192 5.818-4.195 3.063-1.625-4.26-1.807-8.58-2.052-14.338M441.362 772.983c-2.636 5.88-3.894 10.26-9.59 11.946-1.624-4.258-1.805-8.58-2.05-14.338M421.228 638.27c1.84-24.596.926-46.19-1.552-70.6-16.175 26.644-6.074 60.83-1.972 89.5M475.94 568.168c-8.634.364-17.273.73-24.593-1.844-8.7-1.07-15.896-.768-26.036-1.778M445.125 589.666c4.688 8.455 6.493 17.03 5.42 25.728M434.125 636.28c4.318-.18 11.456-1.925 15.773-2.108 2.33-13.08 16.48-19.45 23.192-31.27M461.02 590.432c2.82-1.56 7.018-4.622 9.773-7.625M506.555 677.92c-5.634 3.125-9.712 9.064-10.845 16.324M487.806 711.883c-1.134 7.263-.83 14.46.915 21.596M468.812 740.09c-7.634-13.78-19.87-39.687-33.65-47.12-5.137 18.12 7.517 46.108 12.727 63.873M467.518 777.644c-2.695 4.438-2.573 7.32-8.27 9.004-.06-1.44-1.748-7.14-1.87-10.014-2.694 4.44-5.448 7.438-8.21 10.44-.058-1.44 1.198-5.816-.242-5.758-4.256 1.623-5.638 3.123-9.953 3.306-5.577 4.565-7.2.308-8.642.367M436.565 693.868c-.94 13.285-10.384 25.097-16.057 36.414-6.755 13.474-8.168 23.153-9.418 37.967 5.312.744 10.49 3.765 14.496 6.845M490.625 710.324c-3.172 5.87-6.563 11.704-9.346 17.703M478.07 686.337c-2.513 8.76-5.088 16.08-4.722 24.718M497.543 737.43c-6.808 5.113 2.247 20.647-15.104 17.95M496.296 674.03c-2.997 1.616-5.032 3.44-6.953 6.06M464.5 672.49c-1.253 4.38-2.51 8.76-5.208 13.203M495.44 653.872c-1.783-.574-2.14-2.23-1.623-4.26M453.327 647.005c1.435-.062 4.38 1.258 5.88 2.634M441.957 684.986c-.645-5.55 1.505-11.44 3.646-16.02M434.735 650.677c-.95 11.577-9.286 19.143-11.677 30.782 7.44 5.453 10.75 15.407 11.176 25.484M484.812 641.34c6.464 1.206 14.916.632 20.398 4.907M450.69 652.885c56.33 1.938 108.397 5.5 164.486 1.68 27.35-1.16 54.58-5.2 83.312-7.86 28.79-1.22 58.72-9.702 87.573-9.48 31.793 1.537 56.634 9.136 89.5 1.974 15.714-3.55 30.17-2.723 46.008-3.395 17.27-.733 34.247-8.66 50.08-9.334 31.732.096 65.333 10.21 99.82 7.304 31.608-2.78 63.282-4.123 94.953-5.468 31.672-1.34 59.328 4.697 89.562 3.414 30.233-1.28 59.146.376 89.438.532 57.705.438 116.854.815 175.88-1.684 63.342-2.687 127.296 9.02 190.577 4.896 33.052-2.846 64.296-14.263 97.467-14.23 33.172.036 63.713 5.952 96.698 1.67 8.577-1.81 17.275-.732 25.79-3.98M732.336 832.758c-8.452 4.685 20.338 3.466 27.6 4.6 28.975 3.098 58.193 11.956 85.852 17.993 58.193 11.953 117.953 26.73 173.512 44.564 26.28 7.54 53.874 12.14 80.03 16.8M1118.658 930.316c11.757 5.268 27.713 7.476 36.72 15.752-2.882.118-5.695 1.68-7.138 1.742 11.58.95 24.72 4.722 33.72 12.99-30.107 4.163-66.952-14.466-97.426-18.94-29.038-4.54-59.695-13.335-88.852-20.752M908.02 894.54c11.64 2.386 22.02 9.16 32.16 10.17M745.72 842.284c-8.455 4.688 19.997 29.44 23.367 40.838M759.863 495.557l8.637-.367c.732 17.277-8.368 40.737-16.396 55.5M719.116 554.97c63.345-2.684 125.246-5.308 186.846-15.132M771.32 493.63c25.73-5.42 48.765-6.397 73.11-10.31 31.554-4.227 62.798-15.644 94.285-21.307 64.417-11.384 133.516-14.316 197.808-28.58 12.836-3.428 35.747-7.284 44.205-11.97M1163.534 458.25c-5.065-6.842-16.534-6.01-17.713-14.87 6.326-2.412 9.21-7.97 15.178-10.984M1119.983 451.44c-10.538 23.524-61.54 11.26-81.75 10.682M984.685 491.79c-24.286 5.357-53.45-2.06-79.363-.96M783.936 519.053c17.275-.734 35.1 11.49 52.496 13.638M761.362 496.933c-5.88-2.634-8.183 45.058-12.137 53.88M738.39 499.35c-9.773 7.624-25.545 9.737-36.88 14.544M1100.877 408.983c-11.393 3.37-21.168 10.995-32.56 14.364M1713.576 335.412c14.642 5.148 1.587 37.433 2.14 50.39-.098 31.73 13.955 57.095 30.956 83.775 30.927 49.166 70.432 96.527 95.602 145.936M1932.018 623.246c.88 54.767 6.078 109.35 6.96 164.117 1.186 61.966-7.892 120.04-19.785 179.678-8.305 42.18-12.48 79.852-16.468 121.846-2.02 20.28-2.545 41.936-4.572 62.21-2.204 15.955-14.31 36.658-10.818 50.937M2048 0M2048 1536M0 1536M0 0"/></g></svg>