<?xml version="1.0" encoding="iso-8859-1"?>
<!-- Generator: Adobe Illustrator 15.1.0, SVG Export Plug-In . SVG Version: 6.00 Build 0)  -->
<!DOCTYPE svg PUBLIC "-//W3C//DTD SVG 1.1//EN" "http://www.w3.org/Graphics/SVG/1.1/DTD/svg11.dtd">
<svg version="1.1" xmlns="http://www.w3.org/2000/svg" xmlns:xlink="http://www.w3.org/1999/xlink" x="0px" y="0px" width="2048px"
	 height="1536px" viewBox="0 0 2048 1536" style="enable-background:new 0 0 2048 1536;" xml:space="preserve">
<g id="e3a_x5F_kopf">
	<g>
		<path style="fill:none;stroke:#17192D;stroke-width:3;" d="M372.785,636.789c-4.251,6.545-7.003,13.498-8.949,20.958
			c-0.419,1.603-1.119,3.138-1.303,4.811c-0.23,2.105,0.484,3.663,0.615,5.633c0.142,2.135-1.094,3.957-1.24,5.991
			c-0.131,1.88,0.141,4.059,0.177,5.897c0.08,4.105,1.616,7.568,2.438,11.408c0.854,3.97,1.151,8.722,2.974,12.09"/>
		<path style="fill:none;stroke:#17192D;stroke-width:3;" d="M336.189,657.767c-0.644,0.933-1.513,1.688-2.189,2.572
			c-0.829,1.084-1.006,2.427-1.841,3.369c-2.266-2.815-1.576-4.06,0.717-6.832c1.29-1.562,3.351-4.637,5.59-3.754"/>
		<path style="fill:none;stroke:#17192D;stroke-width:3;" d="M335.291,678.871c-2.083,0.143-1.817-2.071-2.981-2.877
			c-1.68-1.166-2.87-0.115-2.761,1.855c0.172,3.163,4.522,5.349,5.072,8.395"/>
		<path style="fill:none;stroke:#17192D;stroke-width:3;" d="M340.304,665.992c0.054,1.405,0.325,3.726-0.614,4.772"/>
		<path style="fill:none;stroke:#17192D;stroke-width:3;" d="M371.039,638.805c-2.354,3.699-3.724,7.822-5.508,11.781
			c-1.455,3.233-3.519,6.28-4.893,9.687c-0.707,1.76-1.434,3.876-1.416,5.826c0.012,1.797,0.5,3.422,0.185,5.242
			c-0.36,2.005-0.828,3.538-0.847,5.673c-0.018,2.091,0.593,3.164,1.013,5.132c0.795,3.69,0.708,7.053,2.244,10.44
			c0.661,1.451,2.022,2.707,2.568,4.118c0.851,2.197,0.4,3.637,1.84,5.545"/>
		<path style="fill:none;stroke:#17192D;stroke-width:3;" d="M371.293,703.79c2.229,2.19,6.072,3.617,8.843,4.778
			c3.146,1.308,5.816,3.504,8.85,4.863"/>
		<path style="fill:none;stroke:#17192D;stroke-width:3;" d="M376.987,636.025c5.492,0.115,10.078-4.323,15.25-5.077"/>
		<path style="fill:none;stroke:#17192D;stroke-width:3;" d="M378.26,664.539c0.099-0.059,0.241-0.607,0.219-0.285
			c0.271,1.959-0.39,3.789-0.312,5.728"/>
		<path style="fill:none;stroke:#17192D;stroke-width:3;" d="M368.904,662.586c-1.858,2.085-0.153,3.888-0.263,6.4
			c-0.133,2.996-2.321,4.308-1.155,7.172"/>
		<path style="fill:none;stroke:#17192D;stroke-width:3;" d="M319.795,680.419c-0.367-0.108-0.495-0.34-0.919-0.135
			c-0.481,2.174,3.736,4.414,5.023,5.574c2.124,1.919,3.715,3.875,6.393,5.363c2.111,1.165,4.273,2.418,6.393,3.573
			c1.743,0.952,4.708,3.125,6.749,2.655"/>
		<path style="fill:none;stroke:#17192D;stroke-width:3;" d="M320.066,653.688c0.476-4.233,8.472-8.153,11.843-10.041
			c2.264-1.261,4.652-2.225,7.062-2.904c2.486-0.707,5.973-2.383,8.627-2.44"/>
		<path style="fill:none;stroke:#17192D;stroke-width:3;" d="M297.466,648.168c-0.991-0.855-0.688-3.12-1.017-4.419
			c-0.506-1.959-1.402-2.663-2.492-4.322c-1.657-2.527-2.205-5.425-1.232-8.422c0.929-2.854,2.847-5.2,3.892-7.883
			c1.272-3.273,1.207-6.892,1.692-10.466"/>
		<path style="fill:none;stroke:#17192D;stroke-width:3;" d="M289.886,613.95c-3.301,3.1-7.495,7.618-7.897,12.351
			c-0.202,2.376-0.631,5.279,0.017,7.576c0.486,1.747,1.892,6.309,2.904,7.128"/>
		<path style="fill:none;stroke:#17192D;stroke-width:3;" d="M300.158,635.924c-1.203-2.189,1.599-6.221,1.768-8.63
			c0.212-2.908-0.471-7.54-2.319-9.532"/>
		<path style="fill:none;stroke:#17192D;stroke-width:3;" d="M304.733,633.717c0.079-1.868,2.199-3.559,3.133-5.189
			c0.821-1.429,1.093-2.634,2.898-3.267"/>
		<path style="fill:none;stroke:#17192D;stroke-width:3;" d="M301.501,689.254c0.253,3.639,2.457,11.019,0.022,13.943"/>
		<path style="fill:none;stroke:#17192D;stroke-width:3;" d="M294.743,707.688c5.231-5.655,0.293-14.847,0.184-21.735
			c0.227-0.064,0.439-0.03,0.667-0.071"/>
		<path style="fill:none;stroke:#17192D;stroke-width:3;" d="M282.918,680.381c-0.695,2.455-2.911,4.781-3.804,7.358
			c-0.958,2.789-0.797,5.933-0.441,8.961c0.334,2.918,1.304,5.07,3.009,7.453c1.372,1.919,2.041,6.22,3.646,7.497"/>
		<path style="fill:none;stroke:#17192D;stroke-width:3;" d="M295.5,681.162c-0.102,2.629-4.278,6.113-5.765,8.259
			c-1.798,2.584-2.906,5.717-2.734,8.875c0.153,2.822,1.235,5.183,3.049,7.31c0.913,1.077,1.825,1.583,2.39,2.952
			c0.698,1.685,0.219,3.643,0.85,5.377"/>
		<path style="fill:none;stroke:#17192D;stroke-width:3;" d="M263.321,605.865c-0.545,3.204-2.853,6.941-4.318,9.984
			c-1.842,3.829-3.088,7.132-4.198,11.156c-2.39,8.665-0.614,17.858,0.03,26.777c0.362,4.984-0.527,9.747-0.637,14.636
			c-0.077,3.1,0.595,5.708,0.121,8.751c-0.403,2.599-0.631,5.208-0.861,7.872c-0.778,9.129-3.116,17.639,1.853,25.807
			c1.638,2.688,3.553,5.202,5.441,7.711"/>
		<path style="fill:none;stroke:#17192D;stroke-width:3;" d="M257.613,605.316c-2.836,3.675-4.809,6.515-6.751,10.862
			c-1.654,3.712-3.211,7.296-4.449,11.004c-2.718,8.162-0.727,17.419-0.133,25.907c0.638,9.221-1.998,17.922-2.32,27.11
			c-0.14,4.021,0.531,8.437,0.985,12.301c0.454,3.878-0.092,8.652,1.374,12.17c1.096,2.652,3.009,4.743,4.454,7.027
			c1.331,2.124,2.479,5.104,4.317,7.015"/>
		<path style="fill:none;stroke:#17192D;stroke-width:3;" d="M248.856,608.522c-3.26,5.224-6.108,10.851-8.734,16.457
			c-2.263,4.843-2.64,13.187-0.896,18.492"/>
		<path style="fill:none;stroke:#17192D;stroke-width:3;" d="M238.698,656.268c2.018,4.721-1.426,11.497-3.155,15.82
			c-1.586,3.952-4.7,9.011-4.513,13.315"/>
		<path style="fill:none;stroke:#17192D;stroke-width:3;" d="M239.472,681.037c0.614,3.479-1.587,7.729-2.258,11.037
			c-0.597,2.924-0.283,6.444,0.882,9.14c1.318,3.056,2.889,5.721,4.099,8.718c0.824,2.036,4.03,6.21,5.942,7.376"/>
		<path style="fill:none;stroke:#17192D;stroke-width:3;" d="M339.357,652.348c-1.363-3.387-5.166-7.048-9.113-5.275"/>
		<path style="fill:none;stroke:#17192D;stroke-width:3;" d="M335.895,687.575c-2.796,1.08-4.839,1.524-7.769,0.247
			c-1.818-0.786-5.132-2.167-5.061-4.555"/>
		<path style="fill:none;stroke:#17192D;stroke-width:3;" d="M324.278,656.469c0.608,1.205,2.212,2.267,3.285,3.082"/>
		<path style="fill:none;stroke:#17192D;stroke-width:3;" d="M323.715,678.963c1.095-0.4,1.852-1.354,2.942-1.857"/>
		<path style="fill:none;stroke:#17192D;stroke-width:3;" d="M314.235,654.804c-0.833,0.492-1.677,0.883-2.508,1.356"/>
		<path style="fill:none;stroke:#17192D;stroke-width:3;" d="M309.874,677.087c0.304-0.057,0.253-0.38,0.649-0.249
			c0.384,0.625,0.863,0.846,1.316,1.294"/>
		<path style="fill:none;stroke:#17192D;stroke-width:3;" d="M276.678,658.595c-1.167,1.596-1.182,6.739,0.543,7.762"/>
		<path style="fill:none;stroke:#17192D;stroke-width:3;" d="M327.689,732.817c0.824-0.941,2.054-0.347,3.208-0.742
			c1.074-0.369,1.511-1.431,2.781-1.564"/>
		<path style="fill:none;stroke:#17192D;stroke-width:3;" d="M338.537,599.698c-0.057,1.674,1.601,1.646,2.543,2.653
			c1.326,1.402,1.652,3.293,3.388,4.498"/>
		<path style="fill:none;stroke:#17192D;stroke-width:3;" d="M406.605,626.877c1.55-0.11,3.302-0.563,4.538,0.632"/>
		<path style="fill:none;stroke:#17192D;stroke-width:3;" d="M402.755,707.511c1.095-0.49,2.795-0.579,3.999-0.278"/>
		<path style="fill:none;stroke:#17192D;stroke-width:3;" d="M411.513,714.469c-2.695,2.074-7.321,3.578-10.178,6.614
			c-4.849,5.066-9.48,9.876-15.35,13.828c-9.284,5.847-19.991,8.246-30.829,8.764c-5.646,0.391-11.56,0.329-17.208,0.722
			c-3.054,0.214-11.899,2.246-13.642,0.943"/>
		<path style="fill:none;stroke:#17192D;stroke-width:3;" d="M351.973,585.526c4.159,2.074,8.912,2.457,13.296,4.271
			c5.604,2.449,11.349,3.475,16.956,5.916c5.606,2.447,11.211,4.896,16.209,8.8c4.764,3.926,8.67,9.087,13.437,13.015
			c2.509,2.188,6.924,4.483,8.55,7.446"/>
		<path style="fill:none;stroke:#17192D;stroke-width:3;" d="M339.558,583.784c0.114,0.981,1.411,0.761,1.999,1.943
			c-1.434,0.199-2.929,0.249-4.388,0.351c1.303-0.055,0.962,0.473,0.924,0.409"/>
		<path style="fill:none;stroke:#17192D;stroke-width:3;" d="M332.193,586.661c1.413-0.174,2.611,0.638,4.047,0.426"/>
		<path style="fill:none;stroke:#17192D;stroke-width:3;" d="M327.254,587.001c1,0.347,2.123,0.4,3.122,0.731"/>
		<path style="fill:none;stroke:#17192D;stroke-width:3;" d="M322.55,587.332c1.057,0.102,2.236,0.334,3.138,0.967"/>
		<path style="fill:none;stroke:#17192D;stroke-width:3;" d="M316.366,586.816c0.91,0.806,2.034,1.506,3.189,1.669"/>
		<path style="fill:none;stroke:#17192D;stroke-width:3;" d="M307.917,587.643c1.819,0.43,5.508,0.208,6.729,1.654"/>
		<path style="fill:none;stroke:#17192D;stroke-width:3;" d="M303.256,588.671c0.834-0.433,2.581-0.528,3.076,0.024"/>
		<path style="fill:none;stroke:#17192D;stroke-width:3;" d="M296.036,586.811c1.119,0.329,2.206,0.839,3.174,1.429"/>
		<path style="fill:none;stroke:#17192D;stroke-width:3;" d="M288.127,585.232c1.333-0.39,2.54,0.333,2.721,1.7"/>
		<path style="fill:none;stroke:#17192D;stroke-width:3;" d="M284.347,585.257c0.492,0.708,2.184,1.203,2.989,2.157"/>
		<path style="fill:none;stroke:#17192D;stroke-width:3;" d="M271.158,585.939c1.57-0.346,5.448,0.215,6.483,1.436"/>
		<path style="fill:none;stroke:#17192D;stroke-width:3;" d="M265.894,588.43c2.118-0.426,3.78-0.475,5.912,0.062"/>
		<path style="fill:none;stroke:#17192D;stroke-width:3;" d="M260.917,591.614c0.528-0.914,1.657-0.967,2.77-0.905"/>
		<path style="fill:none;stroke:#17192D;stroke-width:3;" d="M256.997,593.069c0.409,0.073,0.768-0.006,0.923-0.302"/>
		<path style="fill:none;stroke:#17192D;stroke-width:3;" d="M250.749,591.612c0,0,1.199-0.084,0.706-0.047"/>
		<path style="fill:none;stroke:#17192D;stroke-width:3;" d="M245.673,593.381c0.786-0.06,1.569-0.109,2.351-0.167"/>
		<path style="fill:none;stroke:#17192D;stroke-width:3;" d="M238.13,722.966c1.604,0.206,3.678,1.5,4.683,2.747"/>
		<path style="fill:none;stroke:#17192D;stroke-width:3;" d="M247.261,728.475c1.546-0.311,2.777,0.195,4.08,0.897"/>
		<path style="fill:none;stroke:#17192D;stroke-width:3;" d="M260.814,736.52c-0.612-0.384-1.426-0.76-2.196-1.029"/>
		<path style="fill:none;stroke:#17192D;stroke-width:3;" d="M284.822,738.395c-1.081-0.165-1.797,0.272-2.036,1.325"/>
		<path style="fill:none;stroke:#17192D;stroke-width:3;" d="M290.246,738.252c0.806-0.413,1.672-0.943,2.507-1.353"/>
		<path style="fill:none;stroke:#17192D;stroke-width:3;" d="M297.962,737.01c1.245-0.245,2.443-0.444,3.749-0.496"/>
		<path style="fill:none;stroke:#17192D;stroke-width:3;" d="M321.192,748.162c1.003-0.651,2.738-0.346,3.229-1.173"/>
		<path style="fill:none;stroke:#17192D;stroke-width:3;" d="M322.9,742.133c-1.209,0.528-3.292,0.894-4.659,1.035"/>
		<path style="fill:none;stroke:#17192D;stroke-width:3;" d="M314.35,741.541c1.257,0,2.311-0.499,3.496-0.711"/>
		<path style="fill:none;stroke:#17192D;stroke-width:3;" d="M309.112,740.959c1.051,0.131,1.893-0.51,3.04-0.44"/>
		<path style="fill:none;stroke:#17192D;stroke-width:3;" d="M305.265,740.051c0.614-1.281,2.379-1.161,3.697-1.208"/>
		<path style="fill:none;stroke:#17192D;stroke-width:3;" d="M302.546,738.347c0.657-0.574,1.453-0.963,2.288-1.105"/>
		<path style="fill:none;stroke:#17192D;stroke-width:3;" d="M296.43,738.77c1.063,0.024,2.274-0.528,3.009-0.916"/>
		<path style="fill:none;stroke:#17192D;stroke-width:3;" d="M274.538,740.056c1.278-0.091,2.524-0.151,3.745-0.499"/>
		<path style="fill:none;stroke:#17192D;stroke-width:3;" d="M264.913,737.649c1.18,0.205,2.338,0.344,3.562,0.227"/>
		<path style="fill:none;stroke:#17192D;stroke-width:3;" d="M253.956,732.978c0.782-0.054,1.564-0.109,2.349-0.167"/>
		<path style="fill:none;stroke:#17192D;stroke-width:3;" d="M233.667,719.965c0.234,0.039,0.444-0.058,0.689-0.004
			c-0.85,0.95-2.487,1.724-3.764,2.356c0.21-0.025,0.422-0.059,0.634-0.059"/>
		<path style="fill:none;stroke:#17192D;stroke-width:3;" d="M231.457,725.557c-1.026-0.448-2.206-0.612-3.06,0.214"/>
		<path style="fill:none;stroke:#17192D;stroke-width:3;" d="M232.451,729.745c-0.661,0.327-1.414,0.82-2.035,1.325"/>
		<path style="fill:none;stroke:#17192D;stroke-width:3;" d="M237.437,733.413c-1.585,0.199-2.276,1.142-2.406,2.765"/>
		<path style="fill:none;stroke:#17192D;stroke-width:3;" d="M243.679,738.183c-1.521,1.321-2.963,3.483-4.917,4.121"/>
		<path style="fill:none;stroke:#17192D;stroke-width:3;" d="M246.73,741.277c-0.945,0.938-1.748,2.029-1.655,3.425"/>
		<path style="fill:none;stroke:#17192D;stroke-width:3;" d="M249.488,746.995c0.524,0.177-0.348,2.254-0.961,3.139"/>
		<path style="fill:none;stroke:#17192D;stroke-width:3;" d="M253.837,748.351c0.207,0.902-0.718,1.513-1.25,2.449"/>
		<path style="fill:none;stroke:#17192D;stroke-width:3;" d="M261.074,750.444c-1.521-0.139-2.895,0.651-3.902,1.688"/>
		<path style="fill:none;stroke:#17192D;stroke-width:3;" d="M268.265,751.837c-0.86,0.159-1.666,0.545-2.287,1.104"/>
		<path style="fill:none;stroke:#17192D;stroke-width:3;" d="M277.117,753.349c-1.89-0.762-4.295,1.493-5.23,2.965"/>
		<path style="fill:none;stroke:#17192D;stroke-width:3;" d="M283.847,755.012c-1.353-0.021-2.509,1.227-3.149,2.345"/>
		<path style="fill:none;stroke:#17192D;stroke-width:3;" d="M289.122,756.061c-0.317,0.536-0.674,1.026-1.077,1.494"/>
		<path style="fill:none;stroke:#17192D;stroke-width:3;" d="M294.126,756.655c-0.477,0.457-0.691,1.055-0.589,1.699"/>
		<path style="fill:none;stroke:#17192D;stroke-width:3;" d="M298.492,758.245c0.574,0.176,0.281,0.566-0.169,0.959"/>
		<path style="fill:none;stroke:#17192D;stroke-width:3;" d="M302.843,759.6c0.574-0.419,0.589,0.087,0.513,0.676"/>
		<path style="fill:none;stroke:#17192D;stroke-width:3;" d="M320.716,751.505c-1.406-1.854-13.907,3.235-8.391,5.304
			c5.324,1.998,10.653-3.71,15.849-3.46"/>
		<path style="fill:none;stroke:#17192D;stroke-width:3;" d="M339.923,748.986c-3.705,2.385-7.662,3.326-11.714,1.524"/>
		<path style="fill:none;stroke:#17192D;stroke-width:3;" d="M337.34,582.523c0.216-0.861,2.248-0.691,3.28-0.464"/>
		<path style="fill:none;stroke:#17192D;stroke-width:3;" d="M334.574,580.113c0.034-0.618,0.723-0.702,1.618-0.583"/>
		<path style="fill:none;stroke:#17192D;stroke-width:3;" d="M330.917,578.477c-0.176,0.035-0.259-0.04-0.253-0.217"/>
		<path style="fill:none;stroke:#17192D;stroke-width:3;" d="M325.157,577.221c0.354-0.438,0.81-0.627,1.378-0.567"/>
		<path style="fill:none;stroke:#17192D;stroke-width:3;" d="M322.854,567.931c0.799,0.13,1.495-0.057,1.85-0.605"/>
		<path style="fill:none;stroke:#17192D;stroke-width:3;" d="M317.831,567.094c0.965-0.444,2.103-1.422,2.675-2.311"/>
		<path style="fill:none;stroke:#17192D;stroke-width:3;" d="M311.789,565.155c0.753,1.036,3.771-0.376,4.895-1.051"/>
		<path style="fill:none;stroke:#17192D;stroke-width:3;" d="M303.537,565.488c0.767-0.397,1.507-0.943,2.021-1.56"/>
		<path style="fill:none;stroke:#17192D;stroke-width:3;" d="M297.084,567.829c1.512-0.292,1.95-2.499,3.065-3.523"/>
		<path style="fill:none;stroke:#17192D;stroke-width:3;" d="M291.842,567.251c-0.928,0.223-1.718,0.786-2.254,1.568"/>
		<path style="fill:none;stroke:#17192D;stroke-width:3;" d="M286.352,566.445c-1.054,1.568-1.541,3.838-3.472,4.496"/>
		<path style="fill:none;stroke:#17192D;stroke-width:3;" d="M280.01,570.429c-0.875-1.588,0.829-2.606,0.646-4.3"/>
		<path style="fill:none;stroke:#17192D;stroke-width:3;" d="M275.141,568.41c-0.493-0.744-1.091-0.509-1.631,0.343"/>
		<path style="fill:none;stroke:#17192D;stroke-width:3;" d="M269.871,574.209c-1.434,0.304-1.187-3.439-1.268-4.64"/>
		<path style="fill:none;stroke:#17192D;stroke-width:3;" d="M262.692,576.364c-0.294-1.206-1.021-2.176-1.643-3.2"/>
		<path style="fill:none;stroke:#17192D;stroke-width:3;" d="M258.386,579.023c0.077-1.215-0.679-2.253-0.718-3.494"/>
		<path style="fill:none;stroke:#17192D;stroke-width:3;" d="M254.009,584.058c-0.438-1.01-0.539-2.277-0.229-3.293"/>
		<path style="fill:none;stroke:#17192D;stroke-width:3;" d="M247.569,586.634c0.107,0.488,0.059,0.97-0.136,1.422"/>
		<path style="fill:none;stroke:#17192D;stroke-width:3;" d="M245.712,590.54c0.412-0.413,0.812-1.059,1.065-1.725"/>
		<path style="fill:none;stroke:#17192D;stroke-width:3;" d="M326.491,572.641c-0.226,0.245-0.393-0.762-0.59-1.614
			c-0.175-0.738-0.702-1.844-0.12-2.54c1.122-1.331,4.038-0.006,5.182,0.531c3.537,1.638,7.244,3.643,10.574,5.589
			c1.678,0.985,3.174,2.113,4.968,2.961c1.779,0.84,3.861,1.334,5.534,2.219c4.072,2.136,7.578,2.544,12.051,3.286
			c2.923,0.484,5.791,1.053,8.812,0.998c3.05-0.057,5.901-1.056,8.907-1.091c5.223-0.069,8.795,8.954,4.899,12.659"/>
		<path style="fill:none;stroke:#17192D;stroke-width:3;" d="M334.955,575.362c2.84,0.59,4.483,1.983,6.918,3.484
			c1.93,1.197,4.635,1.997,6.117,3.883"/>
		<path style="fill:none;stroke:#17192D;stroke-width:3;" d="M365.021,586.275c2.386-0.669,7.06,0.717,10.198,0.47"/>
		<path style="fill:none;stroke:#17192D;stroke-width:3;" d="M308.778,749.733c0.15,1.221-2.761,1.934-3.516,3.321
			c-0.68,1.248-0.725,3.658,0.046,4.726c1.99,2.756,7.156,2.185,10.071,2.128c8.057-0.155,15.043-3.848,22.212-6.324
			c3.176-1.099,5.841-2.782,9.283-3.191c3.759-0.444,7.548-1.002,11.26-1.252c3.264-0.219,7.484-0.194,10.265-1.729
			c1.323-0.724,2.547-1.657,3.046-3.034c0.651-1.776-0.528-3.975-2.425-1.904"/>
		<path style="fill:none;stroke:#17192D;stroke-width:3;" d="M281.222,645.75c0.184,0.293,0.316,0.505,0.329,0.883
			c0.378,0.058,0.751,0.237,1.134,0.239c0.704,1.866,2.608,3.045,4.121,4.397"/>
		<path style="fill:none;stroke:#17192D;stroke-width:3;" d="M283.615,676.792c-1.752-1.157-3.256,3.102-4.194,4.308"/>
		<path style="fill:none;stroke:#17192D;stroke-width:3;" d="M293.535,673.262c-0.07-0.148-0.293-0.349-0.419-0.46
			c2.972,0.183,8.568,2.1,10.188,4.979"/>
		<path style="fill:none;stroke:#17192D;stroke-width:3;" d="M305.172,684.27c1.723,0.187,3.255,4.833,4.91,6.042"/>
		<path style="fill:none;stroke:#17192D;stroke-width:3;" d="M295.101,654.952c3.34-0.23,6.248-0.61,9.133-1.99
			c2.55-1.217,5.541-3.984,8.136-4.652"/>
		<path style="fill:none;stroke:#17192D;stroke-width:3;" d="M297.089,608.719c1.337-0.155,3.076-0.797,4.668-0.797"/>
		<path style="fill:none;stroke:#17192D;stroke-width:3;" d="M293.256,720.315c1.184-0.601,1.378,1.027,2.234,1.5"/>
		<path style="fill:none;stroke:#17192D;stroke-width:3;" d="M274.292,607.233c1.017-0.349,1.824-0.965,2.724-1.608"/>
		<path style="fill:none;stroke:#17192D;stroke-width:3;" d="M271.648,610.01c0.995-0.322,2.062-0.715,2.995-1.151"/>
		<path style="fill:none;stroke:#17192D;stroke-width:3;" d="M267.005,611.282c0.672-0.581,1.621-0.77,2.561-0.648"/>
		<path style="fill:none;stroke:#17192D;stroke-width:3;" d="M269.589,614.411c0.314-0.693,0.853-0.949,1.6-0.815"/>
		<path style="fill:none;stroke:#17192D;stroke-width:3;" d="M269.868,618.412c-0.073-0.426,0.059-0.799,0.406-0.971"/>
		<path style="fill:none;stroke:#17192D;stroke-width:3;" d="M265.389,615.179c0.11-0.492,0.422-0.866,0.874-1.009"/>
		<path style="fill:none;stroke:#17192D;stroke-width:3;" d="M267.728,621.635c-0.974,0.086-1.952,0.218-2.841-0.038"/>
		<path style="fill:none;stroke:#17192D;stroke-width:3;" d="M263.049,625.739c1.479-1.017,3.094-1.835,4.524-2.912"/>
		<path style="fill:none;stroke:#17192D;stroke-width:3;" d="M266.543,618.165c0.552-0.936,1.491-1.718,2.457-2.055"/>
		<path style="fill:none;stroke:#17192D;stroke-width:3;" d="M261.923,626.528c0.793-0.804,1.683-1.547,2.692-2.078"/>
		<path style="fill:none;stroke:#17192D;stroke-width:3;" d="M261.931,630.072c1.362-1.572,3.582-2.045,4.948-3.65"/>
		<path style="fill:none;stroke:#17192D;stroke-width:3;" d="M260.887,632.035c-0.199,0.415-0.496,0.755-0.875,1.008"/>
		<path style="fill:none;stroke:#17192D;stroke-width:3;" d="M262.276,635.013c-0.603,0.449-1.148,1.072-1.532,1.763"/>
		<path style="fill:none;stroke:#17192D;stroke-width:3;" d="M264.027,639.856c-0.958,0.265-1.539,1.195-1.73,2.25"/>
		<path style="fill:none;stroke:#17192D;stroke-width:3;" d="M264.091,633.941c-0.53-1.442,1.541-2.736,2.578-3.729"/>
		<path style="fill:none;stroke:#17192D;stroke-width:3;" d="M259.528,639.693c1.258-0.592,2.372-1.418,3.384-2.358"/>
		<path style="fill:none;stroke:#17192D;stroke-width:3;" d="M265.667,687.252c0.075-0.679-0.16-1.455-0.421-2.072
			c-0.871-0.187-1.273,0.066-1.575,0.558"/>
		<path style="fill:none;stroke:#17192D;stroke-width:3;" d="M263.609,691.647c0.895,0.482,1.593,1.092,2.026,1.988"/>
		<path style="fill:none;stroke:#17192D;stroke-width:3;" d="M260.545,695.168c0.23-0.062,0.46-0.066,0.686-0.005
			c0.297,0.729,0.438,1.484,0.416,2.297"/>
		<path style="fill:none;stroke:#17192D;stroke-width:3;" d="M263.695,699.68c0.509,0.504,1.045,1.049,1.525,1.549"/>
		<path style="fill:none;stroke:#17192D;stroke-width:3;" d="M265.327,706.181c-0.523-0.594-1.003-1.159-1.507-1.766
			c-0.28-0.016-0.517,0.074-0.722,0.272"/>
		<path style="fill:none;stroke:#17192D;stroke-width:3;" d="M262.937,709.187c1.634-1.533,2.125,0.627,2.029,1.987"/>
		<path style="fill:none;stroke:#17192D;stroke-width:3;" d="M265.967,715.359c0.022,0.81,1.26,1.522,2.044,2.223"/>
		<path style="fill:none;stroke:#17192D;stroke-width:3;" d="M259.804,704.914c0.761,0.535,2.611,0.272,2.732,1.935"/>
		<path style="fill:none;stroke:#17192D;stroke-width:3;" d="M260.435,700.379c0.379-0.071,1.228,0.373,1.726,1.062"/>
		<path style="fill:none;stroke:#17192D;stroke-width:3;" d="M263.451,696.15c0.143-0.241-0.245-0.424,0.19-0.475
			c0.451,0.546,0.983,1.158,1.318,1.792"/>
		<path style="fill:none;stroke:#17192D;stroke-width:3;" d="M260.272,687.863c0.532,0.731,1.062,1.621,1.359,2.509"/>
		<path style="fill:none;stroke:#17192D;stroke-width:3;" d="M261.222,684.488c1.246,0.042,2.425,0.704,2.735,1.937"/>
		<path style="fill:none;stroke:#17192D;stroke-width:3;" d="M262.304,679.686c0.417,1.062,1.426,1.618,1.844,2.707"/>
		<path style="fill:none;stroke:#17192D;stroke-width:3;" d="M272.522,697.411c0.124-0.223,0.186-0.466,0.179-0.72"/>
		<path style="fill:none;stroke:#17192D;stroke-width:3;" d="M262.337,690.316c-0.055,0.929,2.087,3.369,2.677,4.542"/>
		<path style="fill:none;stroke:#17192D;stroke-width:3;" d="M262.094,700.501c1.07,0.218,1.364,1.415,1.361,2.504"/>
		<path style="fill:none;stroke:#17192D;stroke-width:3;" d="M260.668,683.345c0.996,1.542,2.426,2.899,3.839,4.22"/>
		<path style="fill:none;stroke:#17192D;stroke-width:3;" d="M265.553,617.529c0.925-0.744,2.095-1.265,2.677-2.314"/>
		<path style="fill:none;stroke:#17192D;stroke-width:3;" d="M243.18,594.97c-3.288,0.229-5.68,3.233-7.905,5.278
			c-4.659,4.343-9.085,8.672-12.505,13.87c-7.03,11.129-14.457,19.915-16.851,33.081c-1.833,11.002-1.571,21.618,2.22,31.992
			c1.793,5.312,4.236,9.873,6.694,14.668c2.494,5.257,6.984,12.041,10.838,16.499c3.084,3.57,4.896,5.805,9.277,7.632"/>
		<path style="fill:none;stroke:#17192D;stroke-width:3;" d="M403.389,607.718c3.693,2.107,8.006,2.986,11.851,3.902
			c3.122,0.727,9.151,2.438,10.761,5.165"/>
		<path style="fill:none;stroke:#17192D;stroke-width:3;" d="M391.484,732.406c8.262-0.104,15.335-7.21,23.537-8.254"/>
		<path style="fill:none;stroke:#17192D;stroke-width:3;" d="M426.86,639.415c2.876,0.512,6.468,1.208,8.92,2.451"/>
		<path style="fill:none;stroke:#17192D;stroke-width:3;" d="M415.48,703.558c5.984-2.308,12.125-5.809,18.391-7.426"/>
		<path style="fill:none;stroke:#17192D;stroke-width:3;" d="M301.265,636.06c-0.661,0.874-1.558,2.173-1.994,3.347
			c-0.414,1.1-0.193,2.493-1.018,3.388"/>
		<path style="fill:none;stroke:#17192D;stroke-width:3;" d="M300.395,645.474c1.687-0.177,3.589-2.02,4.761-3.542
			c0.905-1.175,3.023-3.353,3.124-5.05"/>
		<path style="fill:none;stroke:#17192D;stroke-width:3;" d="M297.99,682.821c1.144,0.954,1.722,2.806,3.253,3.036"/>
		<path style="fill:none;stroke:#17192D;stroke-width:3;" d="M297.373,714.608c0.783-2.047,3.521-3,5.138-4.271"/>
		<path style="fill:none;stroke:#17192D;stroke-width:3;" d="M303.656,614.151c1.539,1.057,2.881,3.107,4.814,3.579"/>
		<path style="fill:none;stroke:#17192D;stroke-width:3;" d="M355.231,714.94c1.806,1.59,3.125,3.423,2.805,5.893"/>
		<path style="fill:none;stroke:#17192D;stroke-width:3;" d="M363.024,626.77c1.506,0.069,4.09-2.559,5.398-3.631"/>
		<path style="fill:none;stroke:#17192D;stroke-width:3;" d="M352.82,595.732c1.513,0.11,2.532,1.096,3.815,1.698"/>
		<path style="fill:none;stroke:#17192D;stroke-width:3;" d="M338.624,735.665c1.111-0.329,2.262-0.371,3.448-0.46"/>
		<path style="fill:none;stroke:#17192D;stroke-width:3;" d="M286.507,595.77c1.464-0.59,3.432-1.078,5.107-1.654"/>
		<path style="fill:none;stroke:#17192D;stroke-width:3;" d="M277.886,728.355c2.202-0.544,4.541,2.058,5.899,3.507"/>
	</g>
	<path style="fill:none;stroke:#17192D;stroke-width:3;" d="M2048,0"/>
	<path style="fill:none;stroke:#17192D;stroke-width:3;" d="M2048,1536"/>
	<path style="fill:none;stroke:#17192D;stroke-width:3;" d="M0,1536"/>
	<path style="fill:none;stroke:#17192D;stroke-width:3;" d="M0,0"/>
</g>
<g id="Layer_1">
</g>
</svg>
