<svg xmlns="http://www.w3.org/2000/svg" width="2048" height="1536" viewBox="0 0 2048 1536"><g fill="none" stroke-width="3"><g stroke="#FF0050"><path d="M715.93 895.133s-28.898 13.123-43.393 13.695c-14.253.56-26.02-2.388-29.566-8.646-3.537-6.266-2.586-13.932-2.586-13.932M647.95 896.212c-4.193-3.177-3.966-6.748-7.71-10.425-1.54-1.668-2.653-3.314-2.653-5.647.032-2.083 1.102-3.62 1.585-5.595.096-.53.19-.46.035-.952M651.542 881.594c-2.254-4.667-8.85-6.624-12.113-10.537-1.167-1.47-2.05-3.326-1.99-5.235.086-1.74 2.373-6.987 2.194-8.773M648.077 864.156c-.52-4.695-5.583-5.083-7.657-8.777M656.858 838.702c-5.83.478-10.617-2.54-15.174 1.998-3.668 3.703-5.19 10.644-1.264 14.68M681.108 847.62c3.06.976 5.342 1.953 6.79 2.95l-19.52-1.053s-10.453-2.713-14.948-2.144M663.967 832.648c-2.936-.81-4.954-1.55-4.954-1.55s-2.66 6.586 1.728 10.462M714.227 842.05s-11.326-4.513-22.578-6.012c-1.995-.265-3.744-.462-5.305-.613M649.26 842.995c.937 1.194 1.696 2.418 2.98 3.37M648.918 848.39c1.01-.916 2.065-1.46 3.217-1.435M660.3 866.532c-1.22 1.646-3.77 2.023-5.643 1.498M663.823 884.605c-.706 1.9-3.412 2.304-5.016 1.403M664.472 898.867c-1.546.557-3.274.977-4.946.74M717.242 894.727c7.554.36 8.395-4.014 13.552-6.29 4.526-2.306 11.48-2.605 16.547-2.993M708.192 886.09c1.918-.538 3.807-.447 5.066-.388M717.828 843.02c4.376.84 7.373 4.14 10.37 7.437M720.708 835.588c-1.29.568-5.247 4.162-6.657 7.25M733.133 879.085l.12-2.52"/></g><path d="M2048 0M2048 1536M0 1536M0 0" stroke="#17192D"/></g></svg>