<svg xmlns="http://www.w3.org/2000/svg" width="2048" height="1536" viewBox="0 0 2048 1536"><g fill="none" stroke-width="3"><g stroke="#FF0050"><path d="M445.41 803.812c-1.675-6.736-2.62-14.77-4.99-20.873M465.7 838.73c-5.058-5.568-10.18-9.808-13.847-16.64M503.52 841.21c-9.26-15.088-6.41-32.923-14.34-47.945-6.67-13.633-29.97-27.397-29.904-42.703M634.522 955.945c-8.102.966-19.227-11.28-23.894-16.416-.695.63-.728 1.295-1.423 1.93-2.274-8.097-11.13-3.862-16.347-6.11-5.185-2.91-6.795-10.975-15.43-11.388.95-5.947 5.886-11.7 2.157-17.203 6.23-5.028 5.445-16.382-3.948-14.835.382-7.97-5.812-17.585-15.3-14.045-1.516-10.057-2.875-9.457-9.357-13.096-1.93-1.423-5.313-.255-7.242-1.68-3.225-2.15-3.602-8.16-6.826-10.31-4.52-2.88-9.266-1.11-13.817-3.325-3.29-.825-6.387-5.632-10.97-7.183M660.325 935.506c3.05 7.552 6.35 15.03 10.667 22.228 8.564 15.72 15.77 32.04 22.973 48.36 3.57 8.823 6.51 16.952 8.087 25.68 2.147 10.754 5.972 14.266 10.872 23.153 8.563 15.72 1.92 29.38-.175 45.253-1.678 7.24-.638 13.28-6.235 19.004-3.543 4.49-16.512 11.188-21.89 12.262-14.103 2.652-7.995-13.695-12.894-22.582 6.642.318 10.407-8.82 10.03-14.828.095-1.992-3.034-6.137-3.602-8.16-.504-3.353.287-5.978-.218-9.33-.98-7.368-1.484-10.72-.5-17.33.253-5.312 1.964-13.218.258-19.29-.568-2.024-5.154-3.575-5.723-5.6-1.23-2.056.255-5.312-.977-7.367-4.236-8.86-6.45-4.305-12.868-9.272-7.682-6.36 6.05-28.997-4.64-28.178.17-3.556-.6-7.157-2.664-9.28M547.027 766.75c10.12-2.843 35.724 32.333 41.95 41.284 10.526 16.48 22.507 30.366 30.944 48.742 5.905 12.893 13.578 24.45 20.708 36.417M537.425 828.19c-2.316 1.965-5.188 2.686-6.264 5.69M548.992 850.71c3.48-3.16 5.79-9.706 10.47-10.146M579.866 817.58c4.585 1.55 9.17 3.1 13.09 4.622M591.12 832.763c4.68-.44 9.233 1.774 13.754 4.654M607.53 934.722c.6 1.36-.758 1.96.538 2.69 6.136-3.035 7.182-10.973 12.494-10.72M627.48 948.99c.127-2.656 2.942-5.848 6.326-7.02M657.603 972.924c.97-.56 1.897-1.14 2.76-1.723M650.81 976.068c2.326-.804 4.665-1.92 6.793-3.145M658.87 988.435c1.992.095 6.736-1.673 10.09-2.178M664.837 1016.678c1.423-1.93 4.808-3.098 7.464-2.97M676.723 1032.556c-1.36.602-2.72 1.202-4.05 1.137 3.417-1.833 7.465-2.97 10.85-4.14M680.097 1059.344c.792-2.625 4.777-2.435 8.73-1.58M595.036 945.438c-.79 2.624-13.977-.005-18.626-.23l-.664-.03c4.11-2.465 8.888-4.898 12.936-6.036M562.61 885.977c-2.426 1.507-5.188 2.64-8.083 3.087 2.075 2.382 5.438 3.5 8.364 4.913M578.853 922.032c-4.553-2.218-9.866-2.473-13.66-6.646 3.384-1.17 6.8-3.002 10.848-4.14M581.472 936.8c-6.61-.98-13.85-2.66-20.46-3.642 4.81-3.1 9.553-4.867 14.328-7.303M552.903 880.186c-3.89-2.183-7.146-3.67-10.37-5.823 4.047-1.136 8.128-2.938 12.144-3.41M601.676 945.756c1.42 12.05 8.598 15.057 18.24 22.174 2.71 2.247 6.548 5.293 10.146 8.75M633.834 955.287c-2.42.742-13.44 3.438-12.194 6.604 1.07 2.72 9.252 1.665 11.717 3.357M666.76 1032.08c-3.383 1.168-7.367.976-10.687.817 1.487-3.257 4.24-5.122 8.256-5.595M673.935 1049.063c1.136 4.048-9.234-1.773-12.49-3.263 4.047-1.137 7.367-.978 11.383-1.45M671.423 1087.55c-.03.662-14.577-1.367-15.778-4.086-2.4-5.44 11.26-12.77 15.847-11.22M643.3 1118.815c.505 3.352-29.57 5.903-36.306 7.577 13.027 5.95 30.23 8.105 44.366 4.79M670.527 1120.12c-7.4 1.642-13.286 13.34-20.118 17.007 9.896 1.808 22.768-2.902 27.895-12.64M644.85 1114.23c3.322.158.58-25.93 3.52-31.78 3.704-7.81 12.655-14.037 13.797-23.966 1.016-7.273-4.39-19.515-6.727-26.283M655.662 1124.732c-1.295-.727-1.96-.76-3.288-.823-1.2-2.722-2.402-5.44-2.97-7.465M621.822 1112.194c2.353-.195 4.645-.662 7.22-1.386-5 7.083 12.425 4.59 18.403 4.877M543.35 1079.41c-1.454 2.594 11.163 3.2 15.115 4.053 7.875 2.375 14.356 6.014 21.47 10.35 7.714 5.694 13.563 8.637 22.83 9.746M557.005 905.675c-2.624-.79-10.147-10.472-13.94-14.646-8.884-9.08-17.326-13.477-26.938-21.26M616.15 977.068c.583-1.508 6.99 7.115 11.035 13.046M639.624 1042.76c-.16 3.32-.286 5.975-.445 9.295M607.645 1071.178c-4.995-6.896-16.317-6.772-23.43-11.106M588.362 1042.963c-5.058-5.568-5.972-14.265-11.03-19.832M630.95 876.607c1.428-15.91 6.842-31.623 4.253-47.058-2.02-13.408-7.646-21-12.417-32.544-2.003-4.536-3.446-9.23-4.767-13.934M655.005 1021.71c-8.662-3.57-20.38-9.18-30.483-9.032 5.968-6.023 18.737-9.196 26.89-8.176"/></g><path d="M2048 0M2048 1536M0 1536M0 0" stroke="#17192D"/></g></svg>