<?xml version="1.0" encoding="iso-8859-1"?>
<!-- Generator: Adobe Illustrator 15.1.0, SVG Export Plug-In . SVG Version: 6.00 Build 0)  -->
<!DOCTYPE svg PUBLIC "-//W3C//DTD SVG 1.1//EN" "http://www.w3.org/Graphics/SVG/1.1/DTD/svg11.dtd">
<svg version="1.1" xmlns="http://www.w3.org/2000/svg" xmlns:xlink="http://www.w3.org/1999/xlink" x="0px" y="0px" width="2048px"
	 height="1536px" viewBox="0 0 2048 1536" style="enable-background:new 0 0 2048 1536;" xml:space="preserve">
<g id="e3b_x5F_oberkiefer">
	<g>
		<path style="fill:none;stroke:#FF0050;stroke-width:3;" d="M484.707,928.167c5.281,0.919,10.498,3.167,14.324,6.677
			c-0.032,0.664-0.76,1.963-0.792,2.627c9.898,1.804,42.975,6.052,34.274,20.945c6.321,6.959-0.924,19.258,6.727,26.281
			c-1.993-0.096-4.712,1.104-6.672,0.346c2.716,12.775-15.724,22.542-9.153,38.165c4.204,9.521,16.253,8.102,19.854,16.263
			c1.738,5.407-2.028,14.545-2.979,20.49c-0.382,7.969-2.597,12.523-5.635,20.364c-3.799,9.802-2.662,13.851-1.115,23.243
			c0.946,8.032-0.068,15.306,2.87,23.435c4.171,10.184,10.021,13.127,0.31,21.314c-13.823,10.652-32.954,7.072-41.742-3.999
			c-5.627-7.591-11.317-13.854-16.28-21.414c-4.994-6.896-11.38-12.526-13.621-21.288c-0.538-2.687,1.55-4.585,0.381-7.969
			c-1.169-3.384-6.923-8.317-9.452-11.104c-6.418-4.966-12.427-4.59-18.844-9.556c-7.746-5.03-10.971-7.182-20.141-10.283
			c-5.881-2.28-16.348-6.109-21.469-10.349c-9.581-8.447-0.532-16.668-13.055-19.264c-8.57-1.743-19.354,1.067-25.011-5.86
			c-1.898-2.086-4.266-8.189-5.5-10.246c-2.434-4.776-4.298-7.527-6.1-11.607c-3.57-8.825-9.923-15.119-12.134-24.544
			c3.416-1.833,2.155-17.204,3.106-23.148c1.046-7.937-0.028-13.313-3.662-20.809c-1.833-3.418-1.769-4.745-3.633-7.495
			c-2.497-3.449-8.411-5.062-8.156-10.377c0.982-6.607,5.409-1.735,8.223-4.931c4.24-5.122,2.88-4.521,3.83-10.465
			c0.951-5.944,4.717-15.084,3.644-20.46c0.191-3.984-4.361-6.199-4.867-9.551c-0.537-2.689,2.343-7.21,2.47-9.866
			c0.254-5.313-0.692-13.347-1.101-18.689c0.318-6.641-2.114-11.417-2.429-18.754c16.034-1.229,12.527-11.38,16.419-23.174
			c0.761-1.961,4.176-3.794,4.968-6.42c0.791-2.623,0.982-6.607,1.11-9.263c1.582-5.251,2.533-11.195,5.412-15.717
			c2.879-4.522,7.023-7.652,9.238-12.204c3.639-6.481,3.23-11.826,8.765-16.22c4.143-3.13,8.889-4.897,13.095-9.357
			c3.51-3.825,6.391-8.346,11.134-10.115"/>
		<path style="fill:none;stroke:#FF0050;stroke-width:3;" d="M496.488,1071.174c2.434,4.775,5.435,11.576,5.812,17.584
			c4.145-3.129,5.728-8.378,7.311-13.626"/>
		<path style="fill:none;stroke:#FF0050;stroke-width:3;" d="M506.586,1138.219c-1.737-5.408-6.132-10.943-9.23-15.753
			c-0.822,3.289,0.315,7.337,1.516,10.058"/>
		<path style="fill:none;stroke:#FF0050;stroke-width:3;" d="M481.232,1111.711c-4.362-6.2,0.541-11.29-1.861-16.731"/>
		<path style="fill:none;stroke:#FF0050;stroke-width:3;" d="M469.92,1083.878c0.759-1.96,0.855-3.951,0.287-5.978"/>
		<path style="fill:none;stroke:#FF0050;stroke-width:3;" d="M463.22,1070.909c-0.504-3.352-1.01-6.703-0.851-10.023"/>
		<path style="fill:none;stroke:#FF0050;stroke-width:3;" d="M463.134,1044.947c0.823-3.288,0.982-6.611-0.187-9.995"/>
		<path style="fill:none;stroke:#FF0050;stroke-width:3;" d="M452.95,1049.118c-1.232-2.058-3.193-2.816-4.457-4.209"/>
		<path style="fill:none;stroke:#FF0050;stroke-width:3;" d="M437.559,1023.086c-1.807,9.898-4.559,11.763-13.319,14.004"/>
		<path style="fill:none;stroke:#FF0050;stroke-width:3;" d="M429.134,1059.957c-5.059-5.567-16.252-8.101-13.846-16.64"/>
		<path style="fill:none;stroke:#FF0050;stroke-width:3;" d="M434.228,1050.881c-3.857-2.846-7.019-6.325-10.908-8.51"/>
		<path style="fill:none;stroke:#FF0050;stroke-width:3;" d="M404.135,1012.166c1.966,1.44,3.725,4.756,6.354,6.293"/>
		<path style="fill:none;stroke:#FF0050;stroke-width:3;" d="M404.348,1035.471c-5.849-2.943-17.484-10.156-13.181-16.605"/>
		<path style="fill:none;stroke:#FF0050;stroke-width:3;" d="M385.604,1009.944c-1.168-3.384-2.275-8.096-2.083-12.082"/>
		<path style="fill:none;stroke:#FF0050;stroke-width:3;" d="M383.513,1025.82c-6.514-2.976-7.428-11.672-7.142-17.649"/>
		<path style="fill:none;stroke:#FF0050;stroke-width:3;" d="M372.231,997.322c-3.824-3.51-7.84-3.037-12.426-4.589"/>
		<path style="fill:none;stroke:#FF0050;stroke-width:3;" d="M386.023,987.334c-4.331-6.863-3.38-12.808-6.446-18.28"/>
		<path style="fill:none;stroke:#FF0050;stroke-width:3;" d="M387.647,953.466c8.601,1.079,15.246-12.582,24.193-4.831"/>
		<path style="fill:none;stroke:#FF0050;stroke-width:3;" d="M386.737,930.792c6.672-0.347,16.128-3.22,22.737-2.236
			c7.905,1.709,10.844,9.836,18.717,12.212"/>
		<path style="fill:none;stroke:#FF0050;stroke-width:3;" d="M429.574,967.457c2.971,7.465-0.828,17.266,3.472,24.795"/>
		<path style="fill:none;stroke:#FF0050;stroke-width:3;" d="M415.561,982.095c-0.281-8,4.716-15.082,3.076-22.482"/>
		<path style="fill:none;stroke:#FF0050;stroke-width:3;" d="M449.461,983.054c1.232,2.058,1.833,3.416,3.761,4.839"/>
		<path style="fill:none;stroke:#FF0050;stroke-width:3;" d="M464.793,996.436c1.328,0.064,2.593,1.455,3.193,2.817"/>
		<path style="fill:none;stroke:#FF0050;stroke-width:3;" d="M481.459,995.904c1.361-0.602,3.32,0.158,3.921,1.52"/>
		<path style="fill:none;stroke:#FF0050;stroke-width:3;" d="M488.119,1037.491c2.848-3.857,2.438-9.202,1.997-13.883
			c2.687-0.537,6.041-1.043,9.329-0.218"/>
		<path style="fill:none;stroke:#FF0050;stroke-width:3;" d="M498.344,1004.701c-3.066-5.472-6.132-10.944-3.853-16.825"/>
		<path style="fill:none;stroke:#FF0050;stroke-width:3;" d="M497.057,976.019c-2.53-2.784-1.01-6.706,2.47-9.866"/>
		<path style="fill:none;stroke:#FF0050;stroke-width:3;" d="M484.38,962.764c-2.498-3.448-7.02-6.326-8.82-10.406"/>
		<path style="fill:none;stroke:#FF0050;stroke-width:3;" d="M468.892,938.724c-1.201-2.719-1.737-5.407-1.61-8.062"/>
		<path style="fill:none;stroke:#FF0050;stroke-width:3;" d="M459.08,865.704c-0.846,3.212-0.557,6.78-1.804,9.895"/>
		<path style="fill:none;stroke:#FF0050;stroke-width:3;" d="M454.119,858.143c0.729-1.296,0.951-5.944,0.446-9.297"/>
		<path style="fill:none;stroke:#FF0050;stroke-width:3;" d="M443.371,846.312c0.792-2.623,0.254-5.311-1.675-6.734"/>
		<path style="fill:none;stroke:#FF0050;stroke-width:3;" d="M491.845,862.614c-16.408-18.757-44.299-20.095-60.737-38.189
			c-8.187-9.71-10.048-26.439-8.146-38.329c2.502-10.531,9.78-23.495,10.257-33.455"/>
		<path style="fill:none;stroke:#FF0050;stroke-width:3;" d="M488.406,837.157c-10.308-7.151-24.663-13.164-33.514-22.909"/>
		<path style="fill:none;stroke:#FF0050;stroke-width:3;" d="M442.27,827.623c-1.833-3.416-2.274-8.096-2.083-12.08"/>
		<path style="fill:none;stroke:#FF0050;stroke-width:3;" d="M441.214,766.336c1.456-2.594,2.28-5.883,3.103-9.17"/>
		<path style="fill:none;stroke:#FF0050;stroke-width:3;" d="M425.373,763.58c2.342-7.209,8.828-17.549,15.564-19.223"/>
		<path style="fill:none;stroke:#FF0050;stroke-width:3;" d="M379.855,893.853"/>
		<path style="fill:none;stroke:#FF0050;stroke-width:3;" d="M384.212,914.03c-6.954-7.656-25.452-10.538-25.417-25.181"/>
		<path style="fill:none;stroke:#FF0050;stroke-width:3;" d="M388.706,903.598c2.279-5.882,1.934-12.555-1.132-18.027"/>
		<path style="fill:none;stroke:#FF0050;stroke-width:3;" d="M372.842,873.548c-1.197-16.695,10.256-33.454,12.38-49.992"/>
		<path style="fill:none;stroke:#FF0050;stroke-width:3;" d="M393.396,875.2c6.956,7.655,19.978,27.583,10.171,37.762"/>
		<path style="fill:none;stroke:#FF0050;stroke-width:3;" d="M378.231,927.723c-1.423,1.927-13.632,6.666-19.513,4.389"/>
		<path style="fill:none;stroke:#FF0050;stroke-width:3;" d="M361.698,911.619c2.413-0.347,4.389,0.384,5.217,2.249"/>
		<path style="fill:none;stroke:#FF0050;stroke-width:3;" d="M364.472,937.046c-9.074-5.094-11.508-9.87-12.39-19.23
			c-1.01-6.706-6.159-24.256,0.705-28.587"/>
		<path style="fill:none;stroke:#FF0050;stroke-width:3;" d="M360.771,944.857c4.33,6.862,8.028,13.03,16.596,14.771"/>
		<path style="fill:none;stroke:#FF0050;stroke-width:3;" d="M365.91,990.363c-5.914-1.613-11.161-3.196-16.57-1.46"/>
		<path style="fill:none;stroke:#FF0050;stroke-width:3;" d="M344.832,944.093c-0.601-1.36,2.278-5.882,4.365-7.778"/>
		<path style="fill:none;stroke:#FF0050;stroke-width:3;" d="M346.229,928.851c-3.289-0.823-5.882-2.28-7.747-5.031"/>
		<path style="fill:none;stroke:#FF0050;stroke-width:3;" d="M341.966,906.681c-1.042-6.041-2.083-12.081-3.789-18.154"/>
		<path style="fill:none;stroke:#FF0050;stroke-width:3;" d="M364.308,857.167c-13.218-1.967-5.839-30.899-6.091-39.563"/>
		<path style="fill:none;stroke:#FF0050;stroke-width:3;" d="M347.488,847.04c-3.761-4.839-5.308-14.231,0.228-18.627"/>
		<path style="fill:none;stroke:#FF0050;stroke-width:3;" d="M359.8,812.353c0.064-1.327,2.343-7.208,5.127-9.737"/>
		<path style="fill:none;stroke:#FF0050;stroke-width:3;" d="M364.71,793.286c5.375-1.074,15.214-11.917,13.413-15.997"/>
		<path style="fill:none;stroke:#FF0050;stroke-width:3;" d="M392.545,767.996c-0.473-4.018,1.679-7.24,5.727-8.378"/>
		<path style="fill:none;stroke:#FF0050;stroke-width:3;" d="M379.078,757.365c6.799-3.002,9.237-12.204,17.237-12.485"/>
		<path style="fill:none;stroke:#FF0050;stroke-width:3;" d="M546.871,1047.63c2.848-3.857,11.448-2.78,14.991-7.27
			c-7.05-5.661-12.33-6.581-20.962-6.994"/>
		<path style="fill:none;stroke:#FF0050;stroke-width:3;" d="M541.14,1069.986c5.409-1.737,15.433-2.589,21.41-2.302
			c-5.155-3.575-11.667-6.549-17.548-8.828"/>
		<path style="fill:none;stroke:#FF0050;stroke-width:3;" d="M535.691,1100.344c5.678,0.585,11.329,1.97,17.063,2.915
			c-0.046,4.858-12.932,5.675-16.085,4.452"/>
		<path style="fill:none;stroke:#FF0050;stroke-width:3;" d="M540.199,1145.155c4.68-0.44,8.76-2.242,12.208-4.739
			c-3.257-1.487-7.146-3.671-10.403-5.159"/>
		<path style="fill:none;stroke:#FF0050;stroke-width:3;" d="M534.955,1032.414c4.711-1.104,8.159-3.603,10.312-6.828
			c-5.282-0.918-11.891-1.899-17.836-2.851"/>
		<path style="fill:none;stroke:#FF0050;stroke-width:3;" d="M531.325,1010.941c6.135-3.035,16.224-5.214,23.657-7.518
			c-4.458-4.208-11.13-3.862-17.107-4.15"/>
		<path style="fill:none;stroke:#FF0050;stroke-width:3;" d="M538.925,977.358c5.313,0.255,11.226,1.87,14.737-1.955
			c-3.793-4.176-12.932-7.942-18.908-8.229"/>
		<path style="fill:none;stroke:#FF0050;stroke-width:3;" d="M524.365,1017.264c4.776-2.434,16.129-3.221,22.106-2.934
			c-4.457-4.208-13.563-8.639-20.268-7.627"/>
		<path style="fill:none;stroke:#FF0050;stroke-width:3;" d="M535.537,992.505c4.649,0.224,9.36-0.881,12.176-4.074
			c-3.888-2.185-7.778-4.366-11.731-5.222"/>
		<path style="fill:none;stroke:#FF0050;stroke-width:3;" d="M537.569,963.982c10.785-2.81,18.031-15.11,25.686-22.064
			c-11.29-0.541-21.633,6.949-32.258,6.439"/>
		<path style="fill:none;stroke:#FF0050;stroke-width:3;" d="M504.562,944.429c3.32,0.158,6.705-1.011,9.457-2.875
			c-3.859-2.848-9.803-3.799-14.387-5.35"/>
		<path style="fill:none;stroke:#FF0050;stroke-width:3;" d="M496.693,928.077c5.249,1.582,10.593,1.172,15.905,1.427
			c-3.793-4.175-10.971-7.182-16.219-8.764"/>
		<path style="fill:none;stroke:#FF0050;stroke-width:3;" d="M502.929,909.073c3.256,1.486,7.209,2.341,10.562,1.837
			c-3.857-2.846-7.019-6.327-10.908-8.509"/>
		<path style="fill:none;stroke:#FF0050;stroke-width:3;" d="M500.973,894.335c4.016-0.473,8-0.28,11.984-0.091
			c-3.161-3.479-8.378-5.728-12.964-7.278"/>
		<path style="fill:none;stroke:#FF0050;stroke-width:3;" d="M505.185,875.9c5.344-0.408,3.957-13.123,6.804-16.979
			c-6.104,2.37-11.798,10.083-17.966,13.781"/>
		<path style="fill:none;stroke:#FF0050;stroke-width:3;" d="M480.905,854.768c0.25,8.667,9.483,10.439,13.149,17.27"/>
		<path style="fill:none;stroke:#FF0050;stroke-width:3;" d="M483.143,877.507c5.722,5.599,18.276,7.53,20.55,15.626"/>
		<path style="fill:none;stroke:#FF0050;stroke-width:3;" d="M487.436,899.012c3.953,0.854,7.209,2.343,10.499,3.166"/>
		<path style="fill:none;stroke:#FF0050;stroke-width:3;" d="M486.294,908.94c5.186,2.912,11.604,7.878,16.061,12.085"/>
		<path style="fill:none;stroke:#FF0050;stroke-width:3;" d="M522.328,962.585c4.681-0.441,9.233,1.774,13.154,3.294"/>
		<path style="fill:none;stroke:#FF0050;stroke-width:3;" d="M524.947,977.354c1.769,4.743,6.292,7.623,11.54,9.206"/>
		<path style="fill:none;stroke:#FF0050;stroke-width:3;" d="M524.848,993.323c1.96,0.761,3.888,2.185,6.481,3.641"/>
		<path style="fill:none;stroke:#FF0050;stroke-width:3;" d="M516.874,1006.92c1.961,0.759,4.584,1.551,6.546,2.31"/>
		<path style="fill:none;stroke:#FF0050;stroke-width:3;" d="M521.199,1027.762c2.593,1.456,5.186,2.911,7.812,3.703"/>
		<path style="fill:none;stroke:#FF0050;stroke-width:3;" d="M368.934,1024.455c3.417-1.834,6.073-1.706,7.938,1.046"/>
		<path style="fill:none;stroke:#FF0050;stroke-width:3;" d="M371.69,1008.612c3.825,3.511,7.682,6.359,12.236,8.573"/>
		<path style="fill:none;stroke:#FF0050;stroke-width:3;" d="M349.912,879.771c-3.666-6.832-3.156-17.457-5.463-24.891"/>
		<path style="fill:none;stroke:#FF0050;stroke-width:3;" d="M371.091,905.178c-0.864-2.689-3.679-6.135-4.84-9.503
			c-1.682-6.369,2.08-15.789-3.974-20.713"/>
		<path style="fill:none;stroke:#FF0050;stroke-width:3;" d="M380.495,909.27c-0.376-5.978,4.203-11.717,2.192-18.102
			c-2.891-8.747-13.412-10.244-19.781-15.516"/>
		<path style="fill:none;stroke:#FF0050;stroke-width:3;" d="M496.755,1070.542c1.624,0.562,2.433,1.961,3.336,3.365
			c0.632,1.002,1.314,2.978,2.353,3.609c0.509-2.5-0.244-5.062,0.746-7.443c0.448-1.242,2.193-3.2,3.633-2.839
			c3.079,0.634,1.942,6.116,2.33,8.176"/>
		<path style="fill:none;stroke:#FF0050;stroke-width:3;" d="M502.912,1100.177c-1.154-0.248-2.922,0.151-3.955-0.578
			c-1.499-1.141-0.993-3.643-1.305-5.211"/>
		<path style="fill:none;stroke:#FF0050;stroke-width:3;" d="M499.212,1118.556c-0.441-0.896-2.302-2.636-3.464-2.691
			c-1.353-0.161-1.698,0.986-1.963,2.432"/>
		<path style="fill:none;stroke:#FF0050;stroke-width:3;" d="M506.324,1138.426c0.185,0.204-0.175,1.645-0.489,2.113
			c-1.472,2.359-2.063-1.555-2.39-2.834c-0.627-3.139-1.641-6.297-4.059-8.551c-0.042,0.872-1.05,3.643-0.782,4.141"/>
	</g>
	<path style="fill:none;stroke:#17192D;stroke-width:3;" d="M2048,0"/>
	<path style="fill:none;stroke:#17192D;stroke-width:3;" d="M2048,1536"/>
	<path style="fill:none;stroke:#17192D;stroke-width:3;" d="M0,1536"/>
	<path style="fill:none;stroke:#17192D;stroke-width:3;" d="M0,0"/>
</g>
<g id="Layer_1">
</g>
</svg>
