<?xml version="1.0" encoding="iso-8859-1"?>
<!-- Generator: Adobe Illustrator 15.1.0, SVG Export Plug-In . SVG Version: 6.00 Build 0)  -->
<!DOCTYPE svg PUBLIC "-//W3C//DTD SVG 1.1//EN" "http://www.w3.org/Graphics/SVG/1.1/DTD/svg11.dtd">
<svg version="1.1" xmlns="http://www.w3.org/2000/svg" xmlns:xlink="http://www.w3.org/1999/xlink" x="0px" y="0px" width="2048px"
	 height="1536px" viewBox="0 0 2048 1536" style="enable-background:new 0 0 2048 1536;" xml:space="preserve">
<g id="e3b_x5F_bein_x5F_v">
	<g>
		<path style="fill:none;stroke:#FF0050;stroke-width:3;" d="M1794.853,795.292c14.537-0.565,24.156,9.359,38.217,5.618
			c18.525-4.789,18.59-19.3,24.979-34.134c2.22-6.833,3.03-10.582,3.362-17.505c-0.268-7.584-3.262-10.881-4.19-17.866
			c-0.928-6.984,1.894-13.158-1.581-19.634c-4.704-7.166-12.887-7.557-19.689-10.408c-0.632-0.03-0.601-0.659-1.23-0.688"/>
		<path style="fill:none;stroke:#FF0050;stroke-width:3;" d="M1782.66,681.143c15.469-6.83,27.549-8.774,43.075-3.613
			c14.297,4.472,28.503,10.83,23.851,28.903"/>
		<path style="fill:none;stroke:#FF0050;stroke-width:3;" d="M1701.248,681.654c11.33,0.544,22.932-4.579,34.892-4.004
			c13.22,0.633,23.739,4.924,35.428,11.162"/>
		<path style="fill:none;stroke:#FF0050;stroke-width:3;" d="M1816.647,696.022c-12.438-3.751-22.929-8.67-34.646-14.281
			c-8.603-4.828-22.299-8.641-30.814-2.107"/>
		<path style="fill:none;stroke:#FF0050;stroke-width:3;" d="M1571.601,701.308c7.674-2.156,12.383-8.24,20.656-9.737
			c6.384-1.586,12.619-0.024,19.604-0.951c6.986-0.929,13.461-4.403,20.445-5.329c23.44-2.03,52.577-4.421,71.46-3.515"/>
		<path style="fill:none;stroke:#FF0050;stroke-width:3;" d="M1763.444,779.275c6.089-8.54,16.822-21.909,25.337-28.438
			c8.547-7.162,24.912-6.377,24.977-20.885"/>
		<path style="fill:none;stroke:#FF0050;stroke-width:3;" d="M1806.887,754.858c1.469-4.345,2.311-8.721,1.262-13.188"/>
		<path style="fill:none;stroke:#FF0050;stroke-width:3;" d="M1835.005,747.375c-20.595,8.476-23.272,38.001-43.208,45.878
			c-14.811,6.229-33.487,14.167-50.9,8.916"/>
		<path style="fill:none;stroke:#FF0050;stroke-width:3;" d="M1750.731,794.438c2.638-2.398,5.308-5.425,7.943-7.822"/>
		<path style="fill:none;stroke:#FF0050;stroke-width:3;" d="M1746.897,782.266c-10.821,2.006-13.555,19.541-23.329,26.013
			c-9.083,5.241-26.17,6.315-34.232,3.404"/>
		<path style="fill:none;stroke:#FF0050;stroke-width:3;" d="M1739.607,802.737c-3.116-0.779-6.895-0.962-10.701-0.514"/>
		<path style="fill:none;stroke:#FF0050;stroke-width:3;" d="M1706.754,803.687c-5.035-0.242-16.788,8.027-23.832,10.213
			c-10.254,3.294-19.695,2.842-30.396,2.329"/>
		<path style="fill:none;stroke:#FF0050;stroke-width:3;" d="M1667.278,798.007c3.238-1.737,6.507-4.104,10.375-5.812"/>
		<path style="fill:none;stroke:#FF0050;stroke-width:3;" d="M1692.16,792.261c1.978-1.798,3.988-4.226,6.566-5.364"/>
		<path style="fill:none;stroke:#FF0050;stroke-width:3;" d="M1678.347,777.719c5.696-0.358,10.67,1.144,15.735,0.755"/>
		<path style="fill:none;stroke:#FF0050;stroke-width:3;" d="M1712.727,784.413c3.987-4.225,9.145-6.501,14.869-7.488"/>
		<path style="fill:none;stroke:#FF0050;stroke-width:3;" d="M1715.972,756.178c4.945,2.129,9.201,5.49,13.456,8.848"/>
		<path style="fill:none;stroke:#FF0050;stroke-width:3;" d="M1720.74,748.835c15.65-10.606,20.107,14.845,29.969,19.733"/>
		<path style="fill:none;stroke:#FF0050;stroke-width:3;" d="M1755.658,757.45c2.342-9.352,6.48-16.724,13.137-23.976"/>
		<path style="fill:none;stroke:#FF0050;stroke-width:3;" d="M1751.141,733.258c2.577-1.137,5.276-4.794,6.717-8.511"/>
		<path style="fill:none;stroke:#FF0050;stroke-width:3;" d="M1807.825,722.096c-3.745-0.811-6.894-0.962-10.01-1.741"/>
		<path style="fill:none;stroke:#FF0050;stroke-width:3;" d="M1819.044,790.773c4.587-3.565,10.313-4.553,15.469-6.829"/>
		<path style="fill:none;stroke:#FF0050;stroke-width:3;" d="M1651.145,818.686c-6.203-2.19-24.16,3.888-31.864,6.674
			c-16.009,4.911-28.209,9.373-44.698,11.105c-1.374-10.792,2.765-18.163,4.537-28.804c0.9-5.635-0.087-11.36,1.443-16.966
			c0.871-5.006,4.201-8.63,3.213-14.357"/>
		<path style="fill:none;stroke:#FF0050;stroke-width:3;" d="M1565.47,842.338c3.268-2.367,7.165-4.705,7.375-9.111"/>
		<path style="fill:none;stroke:#FF0050;stroke-width:3;" d="M1583.995,837.548c0,0-16.158,8.057-21.913,9.673
			c-13.461,4.403-27.791,13.81-42.571,19.411c-28.271,10.633-57.704,6.065-85.789-0.329c-1.228-0.688-3.116-0.778-4.346-1.469"/>
		<path style="fill:none;stroke:#FF0050;stroke-width:3;" d="M1272.18,893.259c10.133-0.775,19.513,0.936,29.766-2.357
			c12.172-3.833,20.923-2.153,32.943-2.838c10.761-0.746,17.837-3.562,27.489-7.515c9.054-4.613,19.035-2.243,28.118-7.484"/>
		<path style="fill:none;stroke:#FF0050;stroke-width:3;" d="M1447.39,870.743c-12.56-1.23-30.965,1.04-43.105,4.245
			c-7.674,2.154-12.291,6.349-21.764,6.526c-5.066,0.388-10.73,0.116-15.796,0.504"/>
		<path style="fill:none;stroke:#FF0050;stroke-width:3;" d="M1350.255,830.758c10.64,1.771,15.378-4.942,24.401-8.925"/>
		<path style="fill:none;stroke:#FF0050;stroke-width:3;" d="M1521.256,843.371c-0.478-3.178-1.646-5.125-4.043-7.765
			c-2.428-2.008-8.062-2.91-11.089-5.578c-2.998-3.3-4.075-7.136-6.441-10.403c-8.899-11.783-25.175-14.456-30.235-27.317"/>
		<path style="fill:none;stroke:#FF0050;stroke-width:3;" d="M1485.653,822.737c3.388-4.885-0.686-12.019-5.632-14.149"/>
		<path style="fill:none;stroke:#FF0050;stroke-width:3;" d="M1522.464,818.194c0.513-10.703-6.109-17.327-14.05-22.757
			c-6.745-4.107-18.819-15.413-25.086-16.345"/>
		<path style="fill:none;stroke:#FF0050;stroke-width:3;" d="M1543.073,769.97c1.668,6.276,12.373,6.526,10.636,15.022"/>
		<path style="fill:none;stroke:#FF0050;stroke-width:3;" d="M1561.866,772.766c-1.14-2.579-4.197-4.62-6.654-6"/>
		<path style="fill:none;stroke:#FF0050;stroke-width:3;" d="M1596.067,769.988c6.145,3.447,3.833,12.171,5.419,18.556"/>
		<path style="fill:none;stroke:#FF0050;stroke-width:3;" d="M1590.924,824.63c2.07-3.686,5.367-6.682,9.235-8.39"/>
		<path style="fill:none;stroke:#FF0050;stroke-width:3;" d="M1622.82,817.326c6.807-10.4,16.668-5.51,19.848-19.237
			c1.562-6.233,0.066-14.506,6.542-17.982"/>
		<path style="fill:none;stroke:#FF0050;stroke-width:3;" d="M1633.568,764.215c4.228-9.261-10.668-14.392-14.081-22.128"/>
		<path style="fill:none;stroke:#FF0050;stroke-width:3;" d="M1605.332,760.967c0.661-0.598,9.709,8.038,10.816,11.247"/>
		<path style="fill:none;stroke:#FF0050;stroke-width:3;" d="M1624.989,785.256c1.827,1.349,2.396,2.638,2.305,4.526"/>
		<path style="fill:none;stroke:#FF0050;stroke-width:3;" d="M1669.355,767.822c-4.824-4.646-8.479-7.346-10.064-13.73"/>
		<path style="fill:none;stroke:#FF0050;stroke-width:3;" d="M1598.961,722.807c-4.824-4.646-5.031-13.488-13.245-13.252"/>
		<path style="fill:none;stroke:#FF0050;stroke-width:3;" d="M1618.715,718.708c1.592-6.864,8.157-12.228,14.033-16.363"/>
		<path style="fill:none;stroke:#FF0050;stroke-width:3;" d="M1712.514,696.707c3.807-0.449,6.895,0.96,9.32,2.971"/>
		<path style="fill:none;stroke:#FF0050;stroke-width:3;" d="M1772.247,714.082c1.41-3.086,4.048-5.485,7.855-5.934"/>
		<path style="fill:none;stroke:#FF0050;stroke-width:3;" d="M1572.493,722.17c-2.578,1.137-5.126,1.646-8.272,1.495"/>
		<path style="fill:none;stroke:#FF0050;stroke-width:3;" d="M1527.766,733.905c3.391-4.885,2.583-14.386,7.83-18.551
			c-3.777-0.181-7.433-2.88-10.488-4.92"/>
		<path style="fill:none;stroke:#FF0050;stroke-width:3;" d="M1520.545,726.619c-4.194-4.619-13.068-3.781-18.043-5.282
			c4.557-2.936,7.885-6.562,9.984-10.878"/>
		<path style="fill:none;stroke:#FF0050;stroke-width:3;" d="M1492.104,714.53c-2.67,3.026-5.938,5.393-9.177,7.132"/>
		<path style="fill:none;stroke:#FF0050;stroke-width:3;" d="M1499.977,747.715c-12.918-6.93-25.774-15.115-39.412-20.187
			c-15.522-5.16-33.81-5.406-49.994-9.968c-14.325-3.84-27.363-8.251-41.812-9.575c-14.447-1.324-27.248,2.479-41.786,3.044
			c-8.213,0.236-18.193-2.134-25.897,0.65"/>
		<path style="fill:none;stroke:#FF0050;stroke-width:3;" d="M1572.199,701.967c-12.407-4.381-32.974,3.467-45.745,6.639
			c-10.85,2.635-21.46,0.233-32.251,1.608c-8.873,0.836-19.906,7.249-27.042,11.321"/>
		<path style="fill:none;stroke:#FF0050;stroke-width:3;" d="M1509.845,726.106c-13.1-3.151-27.127-0.039-40.286-1.931
			c-15.676-2.014-28.113-5.766-43.971-4.001"/>
		<path style="fill:none;stroke:#FF0050;stroke-width:3;" d="M1442.876,741.192c-5.454-4.679-15.616-3.273-21.94-2.946"/>
		<path style="fill:none;stroke:#FF0050;stroke-width:3;" d="M1445.662,748.897c-10.521-4.292-22.153,1.459-33.452,0.288"/>
		<path style="fill:none;stroke:#FF0050;stroke-width:3;" d="M1403.34,736.772c-3.596-3.956-11.148-4.32-16.754-5.851"/>
		<path style="fill:none;stroke:#FF0050;stroke-width:3;" d="M1392.484,752.655c-11.27-1.802-22.51-4.233-32.399-8.493"/>
		<path style="fill:none;stroke:#FF0050;stroke-width:3;" d="M1389.221,741.774c-11.838-3.093-24.312,7.035-35.341,0.199"/>
		<path style="fill:none;stroke:#FF0050;stroke-width:3;" d="M1361.796,734.78c-5.546-2.79-21.159-6.062-30.571-7.143"/>
		<path style="fill:none;stroke:#FF0050;stroke-width:3;" d="M1361.709,723.42c-3.025-2.669-8.061-2.91-12.496-2.491"/>
		<path style="fill:none;stroke:#FF0050;stroke-width:3;" d="M1323.614,715.284c-44.062-2.112-99.001-14.209-148.039-17.822
			c-18.225-1.507-32.312,2.865-50.058,4.54"/>
		<path style="fill:none;stroke:#FF0050;stroke-width:3;" d="M1337.272,746.223c-21.548-11.127-46.152-24.295-69.2-30.448"/>
		<path style="fill:none;stroke:#FF0050;stroke-width:3;" d="M1321.842,725.925c-6.203-2.191-17.473-3.993-24.936-6.244
			c-8.722-2.312-16.005-8.338-24.817-8.761"/>
		<path style="fill:none;stroke:#FF0050;stroke-width:3;" d="M1275.287,736.31c-7.343-4.767-15.464-6.419-23.527-9.329
			c-9.26-4.23-16.51-10.887-27.211-11.401"/>
		<path style="fill:none;stroke:#FF0050;stroke-width:3;" d="M1228.108,733.417c-2.458-1.379-11.961-0.572-16.997-0.814"/>
		<path style="fill:none;stroke:#FF0050;stroke-width:3;" d="M1196.248,726.843c-5.006-0.871-9.383-1.711-13.727-3.181"/>
		<path style="fill:none;stroke:#FF0050;stroke-width:3;" d="M1285.979,776.572c0.061-1.259-20.828-12.985-25.863-13.227"/>
		<path style="fill:none;stroke:#FF0050;stroke-width:3;" d="M1352.011,781c-2.932-1.461-7.19-0.984-10.13,0.777"/>
		<path style="fill:none;stroke:#FF0050;stroke-width:3;" d="M1340.385,773.504c1.918-0.539,8.242-0.867,11.51-3.235"/>
		<path style="fill:none;stroke:#FF0050;stroke-width:3;" d="M1457.449,818.864c-0.328-6.327-6.289-13.551-13.183-14.513"/>
		<path style="fill:none;stroke:#FF0050;stroke-width:3;" d="M1499.614,847.385c1.769,2.607,2.278,5.153,0.867,8.241"/>
		<path style="fill:none;stroke:#FF0050;stroke-width:3;" d="M1399.432,870.971c3.209-1.107,7.075-2.815,10.882-3.263"/>
		<path style="fill:none;stroke:#FF0050;stroke-width:3;" d="M1379.531,864.971c4.346,1.469,11.54-3.864,16.067-6.172"/>
		<path style="fill:none;stroke:#FF0050;stroke-width:3;" d="M1392.905,849.205c4.495-1.676,8.334-2.752,11.631-5.748"/>
		<path style="fill:none;stroke:#FF0050;stroke-width:3;" d="M1302.292,844.232c1.947-1.169,4.527-2.307,7.075-2.816"/>
		<path style="fill:none;stroke:#FF0050;stroke-width:3;" d="M1297.92,830.143c2.009-2.427,4.647-4.826,7.886-6.563"/>
		<path style="fill:none;stroke:#FF0050;stroke-width:3;" d="M1277.771,842.426c-5.483-4.049-13.154-15.143-20.018-16.732"/>
		<path style="fill:none;stroke:#FF0050;stroke-width:3;" d="M1270.5,809.9c-4.317-2.099-7.973-4.798-9.619-9.925"/>
		<path style="fill:none;stroke:#FF0050;stroke-width:3;" d="M1404.549,803.708c2.01-2.425,1.683-8.751,6.839-11.027"/>
	</g>
	<path style="fill:none;stroke:#17192D;stroke-width:3;" d="M2048,0"/>
	<path style="fill:none;stroke:#17192D;stroke-width:3;" d="M2048,1536"/>
	<path style="fill:none;stroke:#17192D;stroke-width:3;" d="M0,1536"/>
	<path style="fill:none;stroke:#17192D;stroke-width:3;" d="M0,0"/>
</g>
<g id="Layer_1">
</g>
</svg>
