<svg xmlns="http://www.w3.org/2000/svg" width="2048" height="1536" viewBox="0 0 2048 1536"><g fill="none" stroke-width="3"><g stroke="#FF0050"><path d="M1330.902 984.404c-.627-13.278-1.222-27.187-13.477-34.714M1369.14 1015.89c-1.556-7.014-8.84-13.04-11.685-19.487-4.074-7.134-5-14.118-6.528-21.762-.927-6.985-2.453-14.63-6.616-19.875-4.765-5.907-11.536-9.387-16.302-15.293M1324.866 926.07c-5.425-5.307-11.63-7.496-19.81-7.888M1289.8 907.356c-1.524-.29-2.766.08-3.836 1.078M1277.626 924.438c5.156-2.276 10.282-3.923 15.408-5.57M1474.22 955.945c-3.392-8.463-16.847-12.394-25.174-14.455-10.714-2.653-21.992-4.424-32.8-5.99-22.46-3.252-43.624-8.717-64.608-18.083-10.257-4.58-21.538-6.822-32.173-11.304-9.067-3.82-19.795-13.396-30.26-12.664M1404.712 945.042c-13.036-4.41-25.566-6.273-38.034-9.395-12.438-3.75-23.194-16.254-35.754-17.486M1319.653 916.358c-2.276-5.156-14.623-10.795-16.183-17.81M1419.91 943.88c16.365.783 34.56 2.916 51.975 8.17M1424.522 952.933c6.894.96 14.326 3.84 21.19 5.433 8.754 1.68 17.625.845 25.72 3.125 6.86 1.592 12.977 5.67 19.12 9.12 7.373 4.137 11.477 10.643 18.22 14.752M1511.82 1013.9c-2.064-9.564-15.758-26.623-25.8-27.737M1480.066 1044.555c.9-5.638-2.664-10.225-6.89-14.213M1486.688 1051.18c-6.444 2.846-10.945 17.773-18.23 11.746M1482.333 1076.208c-6.232-1.56-12.558-1.232-18.854-1.534-7.524-.992-14.926-4.5-22.48-4.863M1454.768 1045.864c-1.018-5.097-1.405-10.162-6.322-12.923M1492.703 1083.646c6.983-.93 20.234-.924 26.498.007 11.27 1.804 24.574 13.798 35.79 3.61M1527.077 1103.59c-7.553-.362-20.953 2.78-31.773 4.786-15.318 3.682-30.275-.19-45.983-1.574-28.292-1.987-56.226-11.528-85.15-13.547-18.884-.905-32.134-.91-48.018-11.766M1277.846 1077.76c14.388 2.583 31.498 14.13 45.71 7.24M1307.676 1060.895c2.67-3.027 11.51-3.233 16.577-3.624M1361.262 1088.068c11.542-3.863 21.497-14.11 32.95-16.085M1416.595 1091.983c5.847-3.504 13.552-6.29 19.935-7.876M1436.03 1055.062c-2.427-2.01-4.195-4.617-5.334-7.197M1531.11 1058.99c-5.994-6.6-4.76-19.157-12.732-23.957M1550.535 1048.563c3.417-5.515 9.536-14.685 1.505-18.226M1564.188 1000.64c-6.65-6-21.276-16.796-29.34-19.705M1599.58 1025.68c.872-5.007-5.78-11.005-9.527-11.815M1578.62 1054.958c-2.036-10.193 13.67-8.81 14.692-16.963M1591.446 1063.774c5.125-1.647 7.886-6.562 11.842-10.16M1620.22 1068.94c-1.26-.062-7.675 2.153-9.712 5.212M1627.382 1077.483c-18.14 9.857-31.414-2.768-49.067-2.982M1555.98 1079.74c4.406.21 8.813.42 12.65-.656M1556.81 1101.86c5.25-4.165 14.243-7.52 20.568-7.847M1530.885 1103.14c6.083 4.71 17.353 6.512 26.854 5.705 12.05-1.314 37.53-6.4 46.105-14.192M1630.37 1107.28c-7.466-2.25-17.687.415-25.27.682-8.213.236-16.337-1.414-25.12-2.466M1582.654 1089.22c17.595 1.475 36.75-3.284 53.476 3.195M1648.386 1099.942c-2.518-.12-5.065.39-7.674 2.157M1630.34 1107.91c6.293.302 11.96.572 18.253.875 4.405.21 10.61 2.4 15.707 1.384 7.015-1.558 11.122-8.3 18.166-10.486M1691.517 1108.32c-15.138-.096-28.688 6.195-44.243 1.663M1764.206 1105.496c-5.755 1.616-12.412 8.868-18.257 12.373-9.087 5.242-15.412 5.57-26.082 4.427-18.164-2.763-36.928-6.188-54.28-12.697M1737.618 1107.375c-13.338 1.884-39.002 10.75-53.987 7.507M1706.628 1095.795c-4.347-1.47-13.697-3.812-16.063-7.08-2.338-3.896 2.28-8.093-3.233-11.51M1664.997 1082.443c3.777.182 7.016-1.557 10.254-3.294M1650.58 1080.49c-.595-13.91-16.06-20.33-21.212-31.302M1649.778 1057.738c3.988-4.225 7.407-9.74 10.165-14.656M1684.758 1065.094c1.44-3.717.36-7.553-2.035-10.19M1727.913 1086.09c-5.786 2.247-11.33-.543-17.563-2.104M1704.386 1076.76c-1.197-1.32-4.286-2.728-6.803-2.85M1703.766 1050.233c-5.333-7.198-17.892-8.43-23.887-15.026-6.59-7.256-.62-26.53-11.89-28.33M1655.966 1020.81c-4.764-5.906-11.51-10.016-18.31-12.864M1615.477 996.788c6.924.33 13.82 1.293 20.833-.264M1612.503 1019.36c1.918-.543 3.808-.452 5.695-.36M1754.045 1014.787c-4.976-1.5-9.83-5.518-15.435-7.05M1771.207 1051.573c-16.57-9.63-31.046-23.573-49.658-30.142-13.007-5.04-22.837-10.56-33.745-19.915-4.826-4.646-20.078-15.473-27.184-12.027M1636.193 985.795c-5.092-12.232-23.558-8.702-34.288-8.586-12.59-.605-26.378-2.526-38.907-4.39-29.463-3.936-59.586-7.273-86.89-16.784-.63-.03-1.23-.69-1.857-.72M1757.373 1011.163c-13.783-15.172-36.923-19.438-57.096-19.773-24.58-.548-46.576-15.482-69.66-7.756M1764.896 1104.267c2.068-3.686 8.006-9.08 8.877-14.086.9-5.634-.836-8.87.694-14.476 1.5-4.975 4.86-9.23 5.76-14.866.963-6.894-1.4-23.412-4.247-29.856-3.445-7.105-16.75-19.1-24.18-21.98M1739.007 1078.42c.72-1.857 2.038-3.057 3.928-2.966"/></g><path d="M2048 0M2048 1536M0 1536M0 0" stroke="#17192D"/></g></svg>