<svg xmlns="http://www.w3.org/2000/svg" width="2048" height="1536" viewBox="0 0 2048 1536"><g fill="none" stroke-width="3"><g stroke="#FF0050"><path d="M608.41 1174.677l-13.63 60.533c-6.286 12.255.318 26.195 14.96 47.2M642.166 1019.645l-23.047 104.837M666.52 908.847l-21.72 98.804M627.634 761.106c-11.017 2.206-20.003 2.442-31.95 2.983-2.83-5.003-4.125-9.218-6.855-13.37 18.732-1.703 31.02-.548 48.275 2.946 17.22 2.64 34.868-4.143 50.534 1.988 19.193 8.536 21.402 19.547 16.318 39.442-3.206 12.16-15.117 35.925-23.147 55.088M687.092 781.326c-5.178-7.752-27.574-4.735-41.15-2.41-9.51 1.03-28.66 6.51-37.89 3.12 0 0-5.358-5.16-6.63-10.51 10.082-3.88 16.857-4.872 26.866-10.45M659.117 847.65c9.963-31.523 19.24-29.37 23.573-66.07M597.305 1130.485c15.8-74.532 36.1-169.897 48.35-226.017M574.42 1238.698s5.65-25.347 14.098-65.266M575.39 1238.882c-.402.224-.608.233-.804.447.242 9.883 4.23 16.092 10.325 23.238 3.927 4.768 22.272 18.368 24.28 21.78"/></g><path d="M2048 0M2048 1536M0 1536M0 0" stroke="#17192D"/></g></svg>