<svg xmlns="http://www.w3.org/2000/svg" width="2048" height="1536" viewBox="0 0 2048 1536"><g fill="none" stroke-width="3"><g stroke="#FF0050"><path d="M484.707 928.167c5.28.92 10.498 3.167 14.324 6.677-.03.664-.76 1.963-.79 2.627 9.897 1.805 42.974 6.053 34.273 20.946 6.32 6.96-.924 19.258 6.727 26.28-1.993-.095-4.712 1.105-6.672.347 2.716 12.775-15.724 22.542-9.153 38.165 4.204 9.52 16.253 8.102 19.854 16.263 1.737 5.408-2.03 14.546-2.98 20.49-.382 7.97-2.597 12.524-5.635 20.365-3.8 9.802-2.662 13.85-1.115 23.243.946 8.032-.068 15.306 2.87 23.435 4.17 10.184 10.02 13.127.31 21.314-13.823 10.652-32.954 7.072-41.742-4-5.627-7.59-11.317-13.853-16.28-21.413-4.994-6.896-11.38-12.526-13.62-21.288-.54-2.687 1.55-4.585.38-7.97-1.17-3.383-6.923-8.316-9.452-11.103-6.418-4.966-12.427-4.59-18.844-9.556-7.746-5.03-10.97-7.182-20.14-10.283-5.882-2.28-16.35-6.11-21.47-10.35-9.58-8.446-.532-16.667-13.055-19.263-8.57-1.742-19.354 1.068-25.01-5.86-1.9-2.085-4.267-8.188-5.5-10.245-2.435-4.776-4.3-7.527-6.1-11.607-3.57-8.825-9.924-15.12-12.135-24.544 3.416-1.833 2.155-17.204 3.106-23.148 1.046-7.937-.028-13.313-3.662-20.81-1.833-3.417-1.77-4.744-3.633-7.494-2.497-3.45-8.41-5.062-8.156-10.377.982-6.607 5.41-1.735 8.223-4.93 4.24-5.123 2.88-4.522 3.83-10.466.95-5.945 4.717-15.085 3.644-20.46.19-3.985-4.36-6.2-4.867-9.552-.537-2.69 2.343-7.21 2.47-9.866.254-5.313-.692-13.347-1.1-18.69.317-6.64-2.115-11.416-2.43-18.753 16.034-1.23 12.527-11.38 16.42-23.175.76-1.96 4.175-3.794 4.967-6.42.79-2.623.982-6.607 1.11-9.263 1.582-5.25 2.533-11.195 5.412-15.717 2.88-4.522 7.023-7.652 9.238-12.204 3.64-6.48 3.23-11.825 8.765-16.22 4.142-3.13 8.888-4.896 13.094-9.356 3.51-3.825 6.39-8.346 11.134-10.115M496.488 1071.174c2.434 4.775 5.435 11.576 5.812 17.584 4.145-3.13 5.728-8.378 7.31-13.626M506.586 1138.22c-1.737-5.41-6.132-10.944-9.23-15.754-.822 3.29.315 7.337 1.516 10.058M481.232 1111.71c-4.362-6.2.54-11.29-1.86-16.73M469.92 1083.878c.76-1.96.855-3.95.287-5.978M463.22 1070.91c-.504-3.353-1.01-6.704-.85-10.024M463.134 1044.947c.823-3.288.982-6.61-.187-9.995M452.95 1049.118c-1.232-2.058-3.193-2.816-4.457-4.21M437.56 1023.086c-1.808 9.898-4.56 11.763-13.32 14.004M429.134 1059.957c-5.06-5.567-16.252-8.1-13.846-16.64M434.228 1050.88c-3.857-2.845-7.02-6.324-10.908-8.51M404.135 1012.166c1.966 1.44 3.725 4.756 6.354 6.293M404.348 1035.47c-5.85-2.942-17.484-10.155-13.18-16.604M385.604 1009.944c-1.168-3.384-2.275-8.096-2.083-12.082M383.513 1025.82c-6.514-2.976-7.428-11.672-7.142-17.65M372.23 997.322c-3.823-3.51-7.84-3.037-12.425-4.59M386.023 987.334c-4.33-6.863-3.38-12.808-6.446-18.28M387.647 953.466c8.6 1.08 15.246-12.582 24.193-4.83M386.737 930.792c6.672-.347 16.128-3.22 22.737-2.236 7.905 1.71 10.844 9.836 18.717 12.212M429.574 967.457c2.97 7.465-.828 17.266 3.472 24.795M415.56 982.095c-.28-8 4.717-15.082 3.077-22.482M449.46 983.054c1.233 2.058 1.834 3.416 3.762 4.84M464.793 996.436c1.328.064 2.593 1.455 3.193 2.817M481.46 995.904c1.36-.602 3.32.158 3.92 1.52M488.12 1037.49c2.847-3.856 2.437-9.2 1.996-13.882 2.687-.537 6.04-1.043 9.33-.218M498.344 1004.7c-3.066-5.47-6.132-10.943-3.853-16.824M497.057 976.02c-2.53-2.785-1.01-6.707 2.47-9.867M484.38 962.764c-2.498-3.448-7.02-6.326-8.82-10.406M468.892 938.724c-1.2-2.72-1.737-5.407-1.61-8.062M459.08 865.704c-.846 3.212-.557 6.78-1.804 9.895M454.12 858.143c.728-1.296.95-5.944.445-9.297M443.37 846.312c.793-2.623.255-5.31-1.674-6.734M491.845 862.614c-16.408-18.757-44.3-20.095-60.737-38.19-8.187-9.71-10.048-26.438-8.146-38.328 2.502-10.53 9.78-23.495 10.257-33.455M488.406 837.157c-10.308-7.15-24.663-13.164-33.514-22.91M442.27 827.623c-1.833-3.416-2.274-8.096-2.083-12.08M441.214 766.336c1.456-2.594 2.28-5.883 3.103-9.17M425.373 763.58c2.342-7.21 8.828-17.55 15.564-19.223M379.855 893.853M384.212 914.03c-6.954-7.656-25.452-10.538-25.417-25.18M388.706 903.598c2.28-5.882 1.934-12.555-1.132-18.027M372.842 873.548c-1.197-16.695 10.256-33.454 12.38-49.992M393.396 875.2c6.956 7.655 19.978 27.583 10.17 37.762M378.23 927.723c-1.422 1.927-13.63 6.666-19.512 4.39M361.698 911.62c2.413-.348 4.39.383 5.217 2.248M364.472 937.046c-9.074-5.094-11.508-9.87-12.39-19.23-1.01-6.706-6.16-24.256.705-28.587M360.77 944.857c4.33 6.862 8.03 13.03 16.597 14.77M365.91 990.363c-5.914-1.613-11.16-3.196-16.57-1.46M344.832 944.093c-.6-1.36 2.278-5.882 4.365-7.778M346.23 928.85c-3.29-.822-5.883-2.28-7.748-5.03M341.966 906.68c-1.042-6.04-2.083-12.08-3.79-18.153M364.308 857.167c-13.218-1.967-5.84-30.9-6.09-39.563M347.488 847.04c-3.76-4.84-5.308-14.23.228-18.627M359.8 812.353c.064-1.327 2.343-7.208 5.127-9.737M364.71 793.286c5.375-1.074 15.214-11.917 13.413-15.997M392.545 767.996c-.473-4.018 1.68-7.24 5.727-8.378M379.078 757.365c6.8-3.002 9.237-12.204 17.237-12.485M546.87 1047.63c2.85-3.857 11.45-2.78 14.992-7.27-7.05-5.66-12.33-6.58-20.962-6.994M541.14 1069.986c5.41-1.737 15.433-2.59 21.41-2.302-5.155-3.575-11.667-6.55-17.548-8.828M535.69 1100.344c5.68.585 11.33 1.97 17.064 2.915-.046 4.857-12.932 5.674-16.085 4.45M540.2 1145.155c4.68-.44 8.76-2.242 12.207-4.74-3.257-1.486-7.146-3.67-10.403-5.158M534.955 1032.414c4.71-1.104 8.16-3.603 10.312-6.828-5.282-.918-11.89-1.9-17.836-2.85M531.325 1010.94c6.135-3.034 16.224-5.213 23.657-7.517-4.458-4.208-11.13-3.862-17.107-4.15M538.925 977.358c5.313.255 11.226 1.87 14.737-1.955-3.793-4.176-12.932-7.942-18.908-8.23M524.365 1017.264c4.776-2.434 16.13-3.22 22.106-2.934-4.456-4.208-13.562-8.64-20.267-7.627M535.537 992.505c4.65.224 9.36-.88 12.176-4.074-3.888-2.184-7.778-4.365-11.73-5.22M537.57 963.982c10.784-2.81 18.03-15.11 25.685-22.064-11.29-.54-21.633 6.95-32.258 6.44M504.562 944.43c3.32.157 6.705-1.012 9.457-2.876-3.86-2.848-9.804-3.8-14.388-5.35M496.693 928.077c5.25 1.582 10.593 1.172 15.905 1.427-3.793-4.175-10.97-7.182-16.22-8.764M502.93 909.073c3.255 1.486 7.208 2.34 10.56 1.837-3.856-2.846-7.018-6.327-10.907-8.51M500.973 894.335c4.016-.473 8-.28 11.984-.09-3.16-3.48-8.378-5.73-12.964-7.28M505.185 875.9c5.344-.408 3.957-13.123 6.804-16.98-6.105 2.37-11.8 10.084-17.967 13.782M480.905 854.768c.25 8.667 9.483 10.44 13.15 17.27M483.143 877.507c5.722 5.6 18.276 7.53 20.55 15.626M487.436 899.012c3.953.854 7.21 2.343 10.5 3.166M486.294 908.94c5.186 2.912 11.604 7.878 16.06 12.085M522.328 962.585c4.68-.44 9.233 1.774 13.154 3.294M524.947 977.354c1.77 4.743 6.292 7.623 11.54 9.206M524.848 993.323c1.96.76 3.888 2.185 6.48 3.64M516.874 1006.92c1.96.76 4.584 1.55 6.546 2.31M521.2 1027.762c2.592 1.456 5.185 2.91 7.81 3.703M368.934 1024.455c3.417-1.834 6.073-1.706 7.938 1.046M371.69 1008.612c3.825 3.51 7.682 6.36 12.236 8.573M349.912 879.77c-3.666-6.83-3.156-17.456-5.463-24.89M371.09 905.178c-.863-2.69-3.678-6.135-4.84-9.503-1.68-6.37 2.08-15.79-3.973-20.713M380.495 909.27c-.376-5.978 4.203-11.717 2.192-18.102-2.89-8.747-13.412-10.244-19.78-15.516M496.755 1070.542c1.624.562 2.433 1.96 3.336 3.365.633 1.002 1.315 2.978 2.354 3.61.51-2.5-.244-5.063.746-7.444.448-1.242 2.193-3.2 3.633-2.84 3.08.635 1.942 6.117 2.33 8.177M502.912 1100.177c-1.154-.248-2.922.15-3.955-.578-1.5-1.142-.993-3.644-1.305-5.212M499.212 1118.556c-.44-.896-2.302-2.636-3.464-2.69-1.353-.162-1.698.985-1.963 2.43M506.324 1138.426c.185.204-.175 1.645-.49 2.113-1.47 2.358-2.062-1.556-2.39-2.835-.626-3.14-1.64-6.297-4.058-8.55-.042.87-1.05 3.642-.782 4.14"/></g><path d="M2048 0M2048 1536M0 1536M0 0" stroke="#17192D"/></g></svg>