<?xml version="1.0" encoding="iso-8859-1"?>
<!-- Generator: Adobe Illustrator 15.1.0, SVG Export Plug-In . SVG Version: 6.00 Build 0)  -->
<!DOCTYPE svg PUBLIC "-//W3C//DTD SVG 1.1//EN" "http://www.w3.org/Graphics/SVG/1.1/DTD/svg11.dtd">
<svg version="1.1" xmlns="http://www.w3.org/2000/svg" xmlns:xlink="http://www.w3.org/1999/xlink" x="0px" y="0px" width="2048px"
	 height="1536px" viewBox="0 0 2048 1536" style="enable-background:new 0 0 2048 1536;" xml:space="preserve">
<g id="e3b_x5F_hand_x5F_v">
	<g>
		<path style="fill:none;stroke:#FF0050;stroke-width:3;" d="M715.93,895.133c0,0-28.898,13.123-43.393,13.695
			c-14.253,0.559-26.021-2.388-29.566-8.646c-3.538-6.266-2.587-13.932-2.587-13.932"/>
		<path style="fill:none;stroke:#FF0050;stroke-width:3;" d="M647.949,896.212c-4.192-3.177-3.965-6.748-7.708-10.425
			c-1.542-1.668-2.654-3.314-2.654-5.647c0.032-2.083,1.102-3.619,1.585-5.595c0.096-0.53,0.189-0.46,0.035-0.952"/>
		<path style="fill:none;stroke:#FF0050;stroke-width:3;" d="M651.542,881.594c-2.254-4.667-8.849-6.624-12.113-10.537
			c-1.166-1.471-2.049-3.326-1.99-5.235c0.087-1.741,2.374-6.987,2.195-8.773"/>
		<path style="fill:none;stroke:#FF0050;stroke-width:3;" d="M648.077,864.156c-0.52-4.695-5.583-5.083-7.657-8.777"/>
		<path style="fill:none;stroke:#FF0050;stroke-width:3;" d="M656.858,838.702c-5.831,0.478-10.617-2.54-15.174,1.998
			c-3.668,3.703-5.189,10.644-1.264,14.679"/>
		<path style="fill:none;stroke:#FF0050;stroke-width:3;" d="M681.108,847.619c3.06,0.977,5.342,1.954,6.789,2.951l-19.519-1.053
			c0,0-10.453-2.713-14.948-2.144"/>
		<path style="fill:none;stroke:#FF0050;stroke-width:3;" d="M663.967,832.648c-2.936-0.811-4.954-1.549-4.954-1.549
			s-2.66,6.585,1.728,10.461"/>
		<path style="fill:none;stroke:#FF0050;stroke-width:3;" d="M714.227,842.05c0,0-11.326-4.513-22.578-6.012
			c-1.994-0.265-3.743-0.462-5.304-0.613"/>
		<path style="fill:none;stroke:#FF0050;stroke-width:3;" d="M649.26,842.995c0.937,1.194,1.696,2.418,2.98,3.371"/>
		<path style="fill:none;stroke:#FF0050;stroke-width:3;" d="M648.918,848.391c1.01-0.917,2.065-1.46,3.217-1.436"/>
		<path style="fill:none;stroke:#FF0050;stroke-width:3;" d="M660.3,866.532c-1.219,1.646-3.77,2.023-5.643,1.498"/>
		<path style="fill:none;stroke:#FF0050;stroke-width:3;" d="M663.823,884.605c-0.706,1.901-3.412,2.304-5.016,1.403"/>
		<path style="fill:none;stroke:#FF0050;stroke-width:3;" d="M664.472,898.867c-1.546,0.557-3.274,0.977-4.946,0.74"/>
		<path style="fill:none;stroke:#FF0050;stroke-width:3;" d="M717.242,894.727c7.554,0.361,8.395-4.014,13.552-6.29
			c4.526-2.306,11.48-2.605,16.547-2.993"/>
		<path style="fill:none;stroke:#FF0050;stroke-width:3;" d="M708.192,886.089c1.918-0.537,3.807-0.446,5.066-0.387"/>
		<path style="fill:none;stroke:#FF0050;stroke-width:3;" d="M717.828,843.019c4.376,0.842,7.373,4.14,10.37,7.438"/>
		<path style="fill:none;stroke:#FF0050;stroke-width:3;" d="M720.708,835.588c-1.289,0.568-5.247,4.162-6.657,7.25"/>
		<path style="fill:none;stroke:#FF0050;stroke-width:3;" d="M733.133,879.085c0.031-0.63,0.091-1.889,0.121-2.519"/>
	</g>
	<path style="fill:none;stroke:#17192D;stroke-width:3;" d="M2048,0"/>
	<path style="fill:none;stroke:#17192D;stroke-width:3;" d="M2048,1536"/>
	<path style="fill:none;stroke:#17192D;stroke-width:3;" d="M0,1536"/>
	<path style="fill:none;stroke:#17192D;stroke-width:3;" d="M0,0"/>
</g>
<g id="Layer_1">
</g>
</svg>
