<?xml version="1.0" encoding="iso-8859-1"?>
<!-- Generator: Adobe Illustrator 15.1.0, SVG Export Plug-In . SVG Version: 6.00 Build 0)  -->
<!DOCTYPE svg PUBLIC "-//W3C//DTD SVG 1.1//EN" "http://www.w3.org/Graphics/SVG/1.1/DTD/svg11.dtd">
<svg version="1.1" xmlns="http://www.w3.org/2000/svg" xmlns:xlink="http://www.w3.org/1999/xlink" x="0px" y="0px" width="2048px"
	 height="1536px" viewBox="0 0 2048 1536" style="enable-background:new 0 0 2048 1536;" xml:space="preserve">
<g id="e3b_x5F_arm_x5F_h">
	<g>
		<path style="fill:none;stroke:#FF0050;stroke-width:3;" d="M664.967,1172.996c6.099-1.593,11.773,0.184,18.028-0.797
			c13.125-2.123,14.635-3.819,16.808-15.457c2.468-10.822,2.078-20.896-2.802-29.163"/>
		<path style="fill:none;stroke:#FF0050;stroke-width:3;" d="M661.945,1176.39c3.951,12.646,10.555,15.482,24.181,17.789
			c9.649,2.039,32.133,3.334,36.586-9.549"/>
		<path style="fill:none;stroke:#FF0050;stroke-width:3;" d="M694.396,1180.946c2.334,3.95,7.079,4.666,11.824,5.381"/>
		<path style="fill:none;stroke:#FF0050;stroke-width:3;" d="M715.923,1163.605c1.539,0.902,6.762,3.447,10.42,2.492"/>
		<path style="fill:none;stroke:#FF0050;stroke-width:3;" d="M724.085,1139.981c3.923-4.931,1.061-15.905-0.824-20.625"/>
		<path style="fill:none;stroke:#FF0050;stroke-width:3;" d="M727.324,1172.353c11.134-2.253,15.588-15.138,25.052-16.307"/>
		<path style="fill:none;stroke:#FF0050;stroke-width:3;" d="M821.967,1130.722c-16.095-19.246-51.963,0.535-67.872-15.503"/>
		<path style="fill:none;stroke:#FF0050;stroke-width:3;" d="M787.579,1101.27c-22.642-1.905-53.767,3.61-75.081,11.778"/>
		<path style="fill:none;stroke:#FF0050;stroke-width:3;" d="M723.366,1099.792c3.791-2.943,8.669-4.216,12.355-2.574"/>
		<path style="fill:none;stroke:#FF0050;stroke-width:3;" d="M780.446,1091.409c-18.547-6.938-44.559-13.104-64.12-10.348"/>
		<path style="fill:none;stroke:#FF0050;stroke-width:3;" d="M792.692,1063.463c-11.295,1.645-23.198,3.449-34.812,3.874
			c-14.978,0.001-19.987,3.263-30.433,13.153"/>
		<path style="fill:none;stroke:#FF0050;stroke-width:3;" d="M771.88,1076.059c2.838,8.377,33.751,12.033,42.076,18.979
			c11.401,8.746,19.94,21.498,26.04,34.886c6.549,12.62,4.986,24.101-2.993,35.952c-7.528,11.082-25.37,15.088-38.466,19.809
			c-16.146,5.515-31.098,8.114-47.906,8.593c-12.222,0.584-29.454,4.43-40.96,0.269"/>
		<path style="fill:none;stroke:#FF0050;stroke-width:3;" d="M759.855,1184.707c-12.7-1.246-31.257,7.505-42.764,3.344"/>
		<path style="fill:none;stroke:#FF0050;stroke-width:3;" d="M754.023,1197.3c12.646-3.953,27.36,0.022,40.483-2.098
			c18.002-3.396,27.042-16.175,41.463-25.802"/>
		<path style="fill:none;stroke:#FF0050;stroke-width:3;" d="M845.14,1139.653c-2.546-9.755,3.312-19.75-0.163-30.566
			c-3.924-10.048-15.405-26.591-27.787-26.616"/>
		<path style="fill:none;stroke:#FF0050;stroke-width:3;" d="M840.786,1073.057c0.504,4.427-2.359,8.431-6.31,10.764"/>
		<path style="fill:none;stroke:#FF0050;stroke-width:3;" d="M841.876,1104.686c-1.195-12.062,0.686-22.324-2.337-33.909
			c-2.068-7.926-4.588-15.083-13.628-17.284c-4.136-0.875-8.086,1.459-11.612,0.425c-5.356-0.557-10.128-3.87-15.483-4.427"/>
		<path style="fill:none;stroke:#FF0050;stroke-width:3;" d="M772.483,986.023c12.302,7.207,22.882,25.289,31.711,36.662
			c6.205,8.801,23.652,25.742,24.075,37.354"/>
		<path style="fill:none;stroke:#FF0050;stroke-width:3;" d="M806.688,1042.224c-7.816-4.561-15.296-4.763-20.292-12.925
			c-6.592-10.771-8.083-24.341-14.444-35.322"/>
		<path style="fill:none;stroke:#FF0050;stroke-width:3;" d="M765.432,998.934c-2.943-3.791-6.336-6.812-10.63-8.297"/>
		<path style="fill:none;stroke:#FF0050;stroke-width:3;" d="M737.699,992.494c-1.775,5.674-8.005,9.253-10.55,14.476
			c-2.997,5.991-5.513,13.813-7.74,20.258c-3.526,8.328-0.678,21.974-4.774,30.017"/>
		<path style="fill:none;stroke:#FF0050;stroke-width:3;" d="M706.179,1043.529c1.934-5.104,4.358-9.576,7.318-11.504"/>
		<path style="fill:none;stroke:#FF0050;stroke-width:3;" d="M721.475,990.216c-9.257,1.347-16.536,15.304-24.288,24.223"/>
		<path style="fill:none;stroke:#FF0050;stroke-width:3;" d="M689.637,996.318c6.516-3.691,13.246-6.02,19.456-6.128"/>
		<path style="fill:none;stroke:#FF0050;stroke-width:3;" d="M681.642,978.826c18.185,0.419,35.977,8.988,54.485,2.595"/>
	</g>
	<path style="fill:none;stroke:#17192D;stroke-width:3;" d="M2048,0"/>
	<path style="fill:none;stroke:#17192D;stroke-width:3;" d="M2048,1536"/>
	<path style="fill:none;stroke:#17192D;stroke-width:3;" d="M0,1536"/>
	<path style="fill:none;stroke:#17192D;stroke-width:3;" d="M0,0"/>
</g>
<g id="Layer_1">
</g>
</svg>
