<svg xmlns="http://www.w3.org/2000/svg" width="2048" height="1536" viewBox="0 0 2048 1536"><g fill="none" stroke-width="3"><g stroke="#FF0050"><path d="M1794.853 795.292c14.537-.565 24.156 9.36 38.217 5.618 18.525-4.79 18.59-19.3 24.98-34.134 2.22-6.833 3.03-10.582 3.36-17.505-.267-7.583-3.26-10.88-4.19-17.865-.927-6.984 1.895-13.158-1.58-19.634-4.704-7.165-12.887-7.556-19.69-10.407-.63-.03-.6-.66-1.23-.688M1782.66 681.143c15.47-6.83 27.55-8.774 43.075-3.613 14.297 4.472 28.503 10.83 23.85 28.903M1701.248 681.654c11.33.544 22.932-4.58 34.892-4.004 13.22.633 23.74 4.924 35.428 11.162M1816.647 696.022c-12.438-3.75-22.93-8.67-34.646-14.28-8.602-4.83-22.298-8.642-30.813-2.108M1571.6 701.308c7.675-2.156 12.384-8.24 20.657-9.737 6.384-1.585 12.62-.023 19.604-.95 6.987-.93 13.462-4.403 20.446-5.33 23.44-2.03 52.577-4.42 71.46-3.514M1763.444 779.275c6.09-8.54 16.822-21.91 25.337-28.438 8.548-7.162 24.913-6.377 24.978-20.885M1806.887 754.858c1.47-4.345 2.31-8.72 1.262-13.188M1835.005 747.375c-20.595 8.476-23.272 38-43.208 45.878-14.81 6.23-33.487 14.167-50.9 8.916M1750.73 794.438c2.64-2.398 5.31-5.425 7.944-7.822M1746.897 782.266c-10.82 2.006-13.555 19.54-23.33 26.013-9.082 5.24-26.17 6.314-34.23 3.403M1739.607 802.737c-3.116-.78-6.895-.962-10.7-.514M1706.754 803.687c-5.035-.242-16.788 8.027-23.832 10.213-10.254 3.294-19.695 2.842-30.396 2.33M1667.278 798.007c3.238-1.737 6.507-4.104 10.375-5.812M1692.16 792.26c1.978-1.797 3.988-4.225 6.566-5.363M1678.347 777.72c5.696-.36 10.67 1.143 15.735.754M1712.727 784.413c3.987-4.225 9.145-6.5 14.87-7.488M1715.972 756.178c4.945 2.13 9.2 5.49 13.456 8.848M1720.74 748.835c15.65-10.606 20.107 14.845 29.97 19.733M1755.658 757.45c2.342-9.352 6.48-16.724 13.137-23.976M1751.14 733.258c2.578-1.137 5.277-4.794 6.718-8.51M1807.825 722.096c-3.745-.81-6.894-.962-10.01-1.74M1819.044 790.773c4.587-3.565 10.313-4.553 15.47-6.83M1651.145 818.686c-6.203-2.19-24.16 3.888-31.864 6.674-16.008 4.91-28.208 9.373-44.697 11.105-1.374-10.792 2.765-18.163 4.537-28.804.9-5.634-.087-11.36 1.443-16.965.87-5.006 4.2-8.63 3.213-14.357M1565.47 842.338c3.268-2.367 7.165-4.705 7.375-9.11M1583.995 837.548s-16.158 8.057-21.913 9.673c-13.46 4.404-27.79 13.81-42.57 19.412-28.272 10.633-57.705 6.065-85.79-.33-1.228-.687-3.116-.777-4.346-1.468M1272.18 893.26c10.133-.776 19.513.935 29.766-2.358 12.172-3.833 20.923-2.153 32.943-2.838 10.76-.746 17.836-3.562 27.488-7.515 9.054-4.614 19.035-2.244 28.118-7.485M1447.39 870.743c-12.56-1.23-30.965 1.04-43.105 4.245-7.674 2.154-12.29 6.35-21.764 6.526-5.065.388-10.73.116-15.795.504M1350.255 830.758c10.64 1.77 15.378-4.942 24.4-8.925M1521.256 843.37c-.478-3.177-1.646-5.124-4.043-7.764-2.428-2.008-8.062-2.91-11.09-5.578-2.997-3.3-4.074-7.136-6.44-10.403-8.9-11.783-25.175-14.456-30.235-27.317M1485.653 822.737c3.388-4.885-.686-12.02-5.632-14.15M1522.464 818.194c.513-10.703-6.11-17.327-14.05-22.757-6.745-4.107-18.82-15.413-25.086-16.345M1543.073 769.97c1.668 6.276 12.373 6.526 10.636 15.022M1561.866 772.766c-1.14-2.58-4.197-4.62-6.654-6M1596.067 769.988c6.145 3.447 3.833 12.17 5.42 18.556M1590.924 824.63c2.07-3.686 5.367-6.682 9.235-8.39M1622.82 817.326c6.807-10.4 16.668-5.51 19.848-19.237 1.562-6.234.066-14.507 6.542-17.983M1633.568 764.215c4.228-9.26-10.668-14.392-14.08-22.128M1605.332 760.967c.66-.598 9.71 8.038 10.816 11.247M1624.99 785.256c1.826 1.35 2.395 2.638 2.304 4.526M1669.355 767.822c-4.824-4.646-8.48-7.346-10.064-13.73M1598.96 722.807c-4.823-4.646-5.03-13.488-13.244-13.252M1618.715 718.708c1.592-6.864 8.157-12.228 14.033-16.363M1712.514 696.707c3.807-.45 6.895.96 9.32 2.97M1772.247 714.082c1.41-3.086 4.048-5.485 7.855-5.934M1572.493 722.17c-2.578 1.137-5.126 1.646-8.272 1.495M1527.766 733.905c3.39-4.885 2.583-14.386 7.83-18.55-3.777-.182-7.433-2.88-10.488-4.92M1520.545 726.62c-4.194-4.62-13.068-3.782-18.043-5.283 4.557-2.936 7.885-6.562 9.984-10.878M1492.104 714.53c-2.67 3.026-5.938 5.393-9.177 7.132M1499.977 747.715c-12.918-6.93-25.774-15.115-39.412-20.187-15.522-5.16-33.81-5.406-49.994-9.968-14.324-3.84-27.362-8.25-41.81-9.575-14.448-1.324-27.25 2.48-41.787 3.044-8.213.235-18.193-2.135-25.897.65M1572.2 701.967c-12.408-4.38-32.975 3.467-45.746 6.64-10.85 2.634-21.46.232-32.25 1.607-8.874.836-19.907 7.25-27.043 11.32M1509.845 726.106c-13.1-3.15-27.127-.04-40.286-1.93-15.677-2.015-28.114-5.767-43.972-4.002M1442.876 741.192c-5.454-4.68-15.616-3.273-21.94-2.946M1445.662 748.897c-10.52-4.292-22.153 1.46-33.452.288M1403.34 736.772c-3.596-3.956-11.148-4.32-16.754-5.85M1392.484 752.655c-11.27-1.802-22.51-4.233-32.4-8.493M1389.22 741.774c-11.837-3.093-24.31 7.035-35.34.2M1361.796 734.78c-5.546-2.79-21.16-6.062-30.57-7.143M1361.71 723.42c-3.026-2.67-8.062-2.91-12.497-2.49M1323.614 715.284c-44.062-2.112-99-14.21-148.04-17.822-18.224-1.507-32.31 2.865-50.057 4.54M1337.272 746.223c-21.548-11.127-46.152-24.295-69.2-30.448M1321.842 725.925c-6.203-2.19-17.473-3.993-24.936-6.244-8.722-2.31-16.005-8.337-24.817-8.76M1275.287 736.31c-7.343-4.767-15.464-6.42-23.527-9.33-9.26-4.23-16.51-10.886-27.21-11.4M1228.108 733.417c-2.458-1.38-11.96-.572-16.997-.814M1196.248 726.843c-5.006-.87-9.383-1.71-13.727-3.18M1285.98 776.572c.06-1.26-20.83-12.985-25.864-13.227M1352.01 781c-2.93-1.46-7.19-.984-10.13.777M1340.385 773.504c1.918-.54 8.242-.867 11.51-3.235M1457.45 818.864c-.33-6.327-6.29-13.55-13.184-14.513M1499.614 847.385c1.77 2.607 2.278 5.153.867 8.24M1399.432 870.97c3.21-1.106 7.075-2.814 10.882-3.262M1379.53 864.97c4.347 1.47 11.54-3.863 16.068-6.17M1392.905 849.205c4.495-1.676 8.334-2.752 11.63-5.748M1302.292 844.232c1.947-1.17 4.527-2.307 7.075-2.816M1297.92 830.143c2.01-2.427 4.647-4.826 7.886-6.563M1277.77 842.426c-5.482-4.05-13.153-15.143-20.017-16.732M1270.5 809.9c-4.317-2.1-7.973-4.798-9.62-9.925M1404.55 803.708c2.01-2.425 1.682-8.75 6.838-11.027"/></g><path d="M2048 0M2048 1536M0 1536M0 0" stroke="#17192D"/></g></svg>