<svg xmlns="http://www.w3.org/2000/svg" width="2048" height="1536" viewBox="0 0 2048 1536"><g fill="none" stroke-width="3"><g stroke="#FF0050"><path d="M595.542 1166.06c-3.778-1.518-8.632-.777-12.382-2.934-2.82-8.154-4.15-13.897 1.97-20.954M601.21 1154.97c-3.76-1.095-10.058-.14-13.74-3.098-4.376-3.515-2.34-9.7-.676-17.64M599.847 1143.258c-2.402-3.457-9.61-.46-11.918-5.917-1.225-3.294.42-8.197 3.002-12.086 2.215-3.335 3.962-2.023 6.344-2.22M660.09 1172.496c-7.836-3.438-18.71 2.048-26.515 3.91-8.55 2.037-16.83 5.043-25.795 2.266M581.51 1150.686c-.205-.21 1.063-1.077-.493-.604-3.745 11.765-6.233 22.35 9.017 23.73 5.743.522 11.56.26 17.298.83 2.778.276 5.644 1.28 8.295 1.066 3.117-.252 5.342-2.25 8.458-2.268M594.9 1166.027l5.767.276M601.885 1154.335c1.495.07 2.99.144 4.485.215M600.76 1137.577c2.8 1.048 5.275.465 7.594 2.367M631.675 1162.445c.833-2.354 3.28-2.435 5.86-1.724M660.794 1171.19c2.7-.986 5.538-2.37 7.27-4.327M679.433 1130.655c-2.512.798-8.175 3.166-8.52 3.602M669.008 1147.195c-.438-6.237-5.408-9.627-11.1-9.553M594.57 1129.65c6.166 1.07 11.648.816 17.962-1.21"/></g><path d="M2048 0M2048 1536M0 1536M0 0" stroke="#17192D"/></g></svg>