<svg xmlns="http://www.w3.org/2000/svg" width="2048" height="1536" viewBox="0 0 2048 1536"><g fill="none" stroke-width="3"><path d="M1763.455 1016.713c30.674 1.47 53.246-27.768 76.21.495 8.473 10.32 13.815 19.958 18.03 31.83 4.888 12.1 21.74 27.415 30.89 36.842 9.594 9.204 20.766 14.83 26.995 27.38 4.896 8.743 9.122 17.26 15.59 24.663 5.8 7.18 5.22 12.277 5.642 21.005.65 6.938-3.845 13.64-11.01 14.962-6.048 1.322-28.282-1.2-33.644-4.122-22.35-10.137-25.49-15.57-41.1-34.64-7.805-8.972-18.835-23.728-28.663-30.024-9.73-6.232-23.853-10.793-34.778-13.807-4.47-1.232-9.333-2.15-13.896-2.695" stroke="#FF0050"/><path d="M2048 0M2048 1536M0 1536M0 0" stroke="#17192D"/></g></svg>