<?xml version="1.0" encoding="iso-8859-1"?>
<!-- Generator: Adobe Illustrator 15.1.0, SVG Export Plug-In . SVG Version: 6.00 Build 0)  -->
<!DOCTYPE svg PUBLIC "-//W3C//DTD SVG 1.1//EN" "http://www.w3.org/Graphics/SVG/1.1/DTD/svg11.dtd">
<svg version="1.1" xmlns="http://www.w3.org/2000/svg" xmlns:xlink="http://www.w3.org/1999/xlink" x="0px" y="0px" width="2048px"
	 height="1536px" viewBox="0 0 2048 1536" style="enable-background:new 0 0 2048 1536;" xml:space="preserve">
<g id="e3b_x5F_fuss_x5F_v">
	<path style="fill:none;stroke:#FF0050;stroke-width:3;" d="M1858.031,772.026c8.237,0.396,15.984-0.183,23.969,1.828
		c10.315,2.597,20.437,5.269,30.363,9.122c12.903,5.01,24.139,14.316,33.316,23.817c9.346,9.971,21.661,17.838,31.784,27.007
		c9.153,7.918,24.461,24.277,31.609,6.91c2.892-6.854,2.456-14.127,4.237-21.119c1.17-5.716,1.092-10.463,0.208-15.989
		c-1.461-11.684-5.143-23.652-7.549-35.008c-4.477-21.763-24.689-47.538-43.247-59.573c-13.122-8.642-25.527-12.233-37.119-24.067
		c-8.846-8.558-21.216-19.585-34.817-19.044c-11.073,0.187-22.849,5.921-29.682,13.63c-3.584,3.384-7.143,8.351-11.531,10.956"/>
	<path style="fill:none;stroke:#17192D;stroke-width:3;" d="M2048,0"/>
	<path style="fill:none;stroke:#17192D;stroke-width:3;" d="M2048,1536"/>
	<path style="fill:none;stroke:#17192D;stroke-width:3;" d="M0,1536"/>
	<path style="fill:none;stroke:#17192D;stroke-width:3;" d="M0,0"/>
</g>
<g id="Layer_1">
</g>
</svg>
