<?xml version="1.0" encoding="iso-8859-1"?>
<!-- Generator: Adobe Illustrator 15.1.0, SVG Export Plug-In . SVG Version: 6.00 Build 0)  -->
<!DOCTYPE svg PUBLIC "-//W3C//DTD SVG 1.1//EN" "http://www.w3.org/Graphics/SVG/1.1/DTD/svg11.dtd">
<svg version="1.1" xmlns="http://www.w3.org/2000/svg" xmlns:xlink="http://www.w3.org/1999/xlink" x="0px" y="0px" width="2048px"
	 height="1536px" viewBox="0 0 2048 1536" style="enable-background:new 0 0 2048 1536;" xml:space="preserve">
<g id="e3b_x5F_bein_x5F_h">
	<g>
		<path style="fill:none;stroke:#FF0050;stroke-width:3;" d="M1330.902,984.404c-0.627-13.278-1.222-27.187-13.477-34.714"/>
		<path style="fill:none;stroke:#FF0050;stroke-width:3;" d="M1369.139,1015.891c-1.555-7.015-8.838-13.041-11.684-19.488
			c-4.074-7.134-5.001-14.118-6.528-21.762c-0.927-6.986-2.453-14.63-6.616-19.876c-4.766-5.907-11.537-9.387-16.303-15.293"/>
		<path style="fill:none;stroke:#FF0050;stroke-width:3;" d="M1324.866,926.071c-5.425-5.308-11.629-7.497-19.811-7.889"/>
		<path style="fill:none;stroke:#FF0050;stroke-width:3;" d="M1289.801,907.356c-1.525-0.29-2.767,0.079-3.837,1.078"/>
		<path style="fill:none;stroke:#FF0050;stroke-width:3;" d="M1277.626,924.438c5.156-2.276,10.282-3.923,15.408-5.569"/>
		<path style="fill:none;stroke:#FF0050;stroke-width:3;" d="M1474.221,955.945c-3.393-8.463-16.848-12.394-25.175-14.455
			c-10.714-2.653-21.992-4.424-32.801-5.989c-22.458-3.253-43.623-8.718-64.607-18.084c-10.257-4.579-21.538-6.822-32.173-11.304
			c-9.067-3.819-19.795-13.396-30.259-12.664"/>
		<path style="fill:none;stroke:#FF0050;stroke-width:3;" d="M1404.712,945.042c-13.036-4.41-25.566-6.273-38.034-9.395
			c-12.438-3.75-23.194-16.254-35.754-17.486"/>
		<path style="fill:none;stroke:#FF0050;stroke-width:3;" d="M1319.653,916.358c-2.276-5.156-14.623-10.795-16.183-17.811"/>
		<path style="fill:none;stroke:#FF0050;stroke-width:3;" d="M1419.91,943.879c16.365,0.784,34.56,2.917,51.975,8.17"/>
		<path style="fill:none;stroke:#FF0050;stroke-width:3;" d="M1424.522,952.933c6.894,0.96,14.326,3.84,21.191,5.433
			c8.753,1.681,17.624,0.845,25.718,3.125c6.862,1.591,12.978,5.669,19.12,9.119c7.374,4.137,11.478,10.643,18.22,14.752"/>
		<path style="fill:none;stroke:#FF0050;stroke-width:3;" d="M1511.82,1013.899c-2.064-9.563-15.758-26.622-25.8-27.736"/>
		<path style="fill:none;stroke:#FF0050;stroke-width:3;" d="M1480.066,1044.555c0.9-5.638-2.664-10.225-6.891-14.213"/>
		<path style="fill:none;stroke:#FF0050;stroke-width:3;" d="M1486.688,1051.181c-6.444,2.845-10.945,17.772-18.229,11.745"/>
		<path style="fill:none;stroke:#FF0050;stroke-width:3;" d="M1482.333,1076.208c-6.232-1.561-12.558-1.232-18.854-1.534
			c-7.523-0.992-14.925-4.501-22.479-4.863"/>
		<path style="fill:none;stroke:#FF0050;stroke-width:3;" d="M1454.768,1045.864c-1.018-5.097-1.405-10.162-6.322-12.923"/>
		<path style="fill:none;stroke:#FF0050;stroke-width:3;" d="M1492.703,1083.646c6.983-0.929,20.234-0.924,26.498,0.007
			c11.27,1.804,24.573,13.798,35.788,3.609"/>
		<path style="fill:none;stroke:#FF0050;stroke-width:3;" d="M1527.077,1103.59c-7.553-0.362-20.953,2.78-31.773,4.786
			c-15.318,3.682-30.275-0.19-45.983-1.574c-28.293-1.987-56.227-11.528-85.152-13.547c-18.883-0.905-32.133-0.91-48.017-11.766"/>
		<path style="fill:none;stroke:#FF0050;stroke-width:3;" d="M1277.846,1077.76c14.388,2.583,31.498,14.13,45.709,7.24"/>
		<path style="fill:none;stroke:#FF0050;stroke-width:3;" d="M1307.676,1060.895c2.669-3.027,11.511-3.233,16.577-3.624"/>
		<path style="fill:none;stroke:#FF0050;stroke-width:3;" d="M1361.262,1088.068c11.542-3.863,21.497-14.111,32.949-16.085"/>
		<path style="fill:none;stroke:#FF0050;stroke-width:3;" d="M1416.595,1091.983c5.847-3.504,13.552-6.289,19.935-7.876"/>
		<path style="fill:none;stroke:#FF0050;stroke-width:3;" d="M1436.029,1055.062c-2.426-2.011-4.194-4.617-5.333-7.197"/>
		<path style="fill:none;stroke:#FF0050;stroke-width:3;" d="M1531.109,1058.989c-5.993-6.598-4.76-19.156-12.731-23.956"/>
		<path style="fill:none;stroke:#FF0050;stroke-width:3;" d="M1550.535,1048.563c3.417-5.515,9.536-14.685,1.505-18.226"/>
		<path style="fill:none;stroke:#FF0050;stroke-width:3;" d="M1564.188,1000.639c-6.651-6-21.276-16.795-29.339-19.704"/>
		<path style="fill:none;stroke:#FF0050;stroke-width:3;" d="M1599.581,1025.679c0.871-5.006-5.781-11.004-9.528-11.814"/>
		<path style="fill:none;stroke:#FF0050;stroke-width:3;" d="M1578.619,1054.958c-2.035-10.193,13.671-8.81,14.693-16.963"/>
		<path style="fill:none;stroke:#FF0050;stroke-width:3;" d="M1591.446,1063.774c5.125-1.647,7.886-6.562,11.842-10.159"/>
		<path style="fill:none;stroke:#FF0050;stroke-width:3;" d="M1620.221,1068.94c-1.26-0.062-7.676,2.153-9.713,5.212"/>
		<path style="fill:none;stroke:#FF0050;stroke-width:3;" d="M1627.382,1077.483c-18.14,9.857-31.414-2.768-49.067-2.982"/>
		<path style="fill:none;stroke:#FF0050;stroke-width:3;" d="M1555.98,1079.739c4.406,0.211,8.813,0.422,12.65-0.655"/>
		<path style="fill:none;stroke:#FF0050;stroke-width:3;" d="M1556.811,1101.861c5.249-4.166,14.242-7.52,20.567-7.848"/>
		<path style="fill:none;stroke:#FF0050;stroke-width:3;" d="M1530.885,1103.141c6.083,4.708,17.353,6.511,26.854,5.704
			c12.051-1.314,37.531-6.401,46.106-14.192"/>
		<path style="fill:none;stroke:#FF0050;stroke-width:3;" d="M1630.369,1107.281c-7.465-2.25-17.686,0.414-25.27,0.681
			c-8.212,0.236-16.336-1.414-25.118-2.466"/>
		<path style="fill:none;stroke:#FF0050;stroke-width:3;" d="M1582.654,1089.221c17.595,1.474,36.751-3.285,53.476,3.194"/>
		<path style="fill:none;stroke:#FF0050;stroke-width:3;" d="M1648.386,1099.942c-2.518-0.12-5.065,0.389-7.674,2.157"/>
		<path style="fill:none;stroke:#FF0050;stroke-width:3;" d="M1630.339,1107.91c6.294,0.302,11.96,0.572,18.254,0.875
			c4.405,0.211,10.611,2.4,15.707,1.384c7.015-1.557,11.122-8.299,18.166-10.485"/>
		<path style="fill:none;stroke:#FF0050;stroke-width:3;" d="M1691.517,1108.32c-15.138-0.096-28.688,6.195-44.243,1.663"/>
		<path style="fill:none;stroke:#FF0050;stroke-width:3;" d="M1764.206,1105.496c-5.755,1.616-12.412,8.868-18.257,12.373
			c-9.086,5.243-15.411,5.571-26.081,4.428c-18.164-2.763-36.928-6.188-54.279-12.697"/>
		<path style="fill:none;stroke:#FF0050;stroke-width:3;" d="M1737.618,1107.375c-13.338,1.884-39.002,10.749-53.987,7.507"/>
		<path style="fill:none;stroke:#FF0050;stroke-width:3;" d="M1706.628,1095.795c-4.347-1.471-13.697-3.812-16.063-7.08
			c-2.338-3.896,2.281-8.093-3.233-11.511"/>
		<path style="fill:none;stroke:#FF0050;stroke-width:3;" d="M1664.997,1082.443c3.777,0.182,7.016-1.557,10.254-3.294"/>
		<path style="fill:none;stroke:#FF0050;stroke-width:3;" d="M1650.58,1080.49c-0.595-13.909-16.061-20.329-21.212-31.302"/>
		<path style="fill:none;stroke:#FF0050;stroke-width:3;" d="M1649.778,1057.738c3.988-4.225,7.407-9.739,10.165-14.656"/>
		<path style="fill:none;stroke:#FF0050;stroke-width:3;" d="M1684.758,1065.094c1.439-3.717,0.361-7.553-2.035-10.191"/>
		<path style="fill:none;stroke:#FF0050;stroke-width:3;" d="M1727.913,1086.09c-5.786,2.247-11.33-0.543-17.563-2.104"/>
		<path style="fill:none;stroke:#FF0050;stroke-width:3;" d="M1704.386,1076.761c-1.197-1.321-4.286-2.729-6.803-2.85"/>
		<path style="fill:none;stroke:#FF0050;stroke-width:3;" d="M1703.766,1050.233c-5.333-7.198-17.892-8.43-23.887-15.026
			c-6.59-7.256-0.62-26.529-11.889-28.331"/>
		<path style="fill:none;stroke:#FF0050;stroke-width:3;" d="M1655.966,1020.81c-4.764-5.906-11.509-10.016-18.31-12.864"/>
		<path style="fill:none;stroke:#FF0050;stroke-width:3;" d="M1615.477,996.788c6.924,0.331,13.82,1.293,20.833-0.264"/>
		<path style="fill:none;stroke:#FF0050;stroke-width:3;" d="M1612.503,1019.359c1.918-0.542,3.808-0.451,5.695-0.36"/>
		<path style="fill:none;stroke:#FF0050;stroke-width:3;" d="M1754.045,1014.787c-4.976-1.501-9.83-5.518-15.435-7.049"/>
		<path style="fill:none;stroke:#FF0050;stroke-width:3;" d="M1771.207,1051.573c-16.571-9.629-31.046-23.573-49.658-30.142
			c-13.006-5.04-22.836-10.56-33.744-19.916c-4.826-4.646-20.078-15.473-27.184-12.027"/>
		<path style="fill:none;stroke:#FF0050;stroke-width:3;" d="M1636.193,985.795c-5.092-12.232-23.558-8.702-34.288-8.586
			c-12.59-0.604-26.378-2.525-38.907-4.389c-29.463-3.936-59.586-7.273-86.89-16.784c-0.63-0.029-1.23-0.69-1.857-0.72"/>
		<path style="fill:none;stroke:#FF0050;stroke-width:3;" d="M1757.373,1011.163c-13.783-15.172-36.923-19.438-57.096-19.773
			c-24.58-0.548-46.576-15.482-69.659-7.756"/>
		<path style="fill:none;stroke:#FF0050;stroke-width:3;" d="M1764.896,1104.267c2.068-3.686,8.006-9.079,8.877-14.086
			c0.901-5.635-0.836-8.872,0.694-14.477c1.499-4.975,4.859-9.23,5.759-14.866c0.964-6.894-1.4-23.412-4.246-29.856
			c-3.445-7.105-16.75-19.101-24.181-21.98"/>
		<path style="fill:none;stroke:#FF0050;stroke-width:3;" d="M1739.007,1078.421c0.721-1.858,2.038-3.058,3.928-2.967"/>
	</g>
	<path style="fill:none;stroke:#17192D;stroke-width:3;" d="M2048,0"/>
	<path style="fill:none;stroke:#17192D;stroke-width:3;" d="M2048,1536"/>
	<path style="fill:none;stroke:#17192D;stroke-width:3;" d="M0,1536"/>
	<path style="fill:none;stroke:#17192D;stroke-width:3;" d="M0,0"/>
</g>
<g id="Layer_1">
</g>
</svg>
