<?xml version="1.0" encoding="iso-8859-1"?>
<!-- Generator: Adobe Illustrator 15.1.0, SVG Export Plug-In . SVG Version: 6.00 Build 0)  -->
<!DOCTYPE svg PUBLIC "-//W3C//DTD SVG 1.1//EN" "http://www.w3.org/Graphics/SVG/1.1/DTD/svg11.dtd">
<svg version="1.1" xmlns="http://www.w3.org/2000/svg" xmlns:xlink="http://www.w3.org/1999/xlink" x="0px" y="0px" width="2048px"
	 height="1536px" viewBox="0 0 2048 1536" style="enable-background:new 0 0 2048 1536;" xml:space="preserve">
<g id="e3b_x5F_fuss_x5F_h">
	<path style="fill:none;stroke:#FF0050;stroke-width:3;" d="M1763.455,1016.713c30.674,1.471,53.246-27.768,76.209,0.495
		c8.474,10.32,13.816,19.958,18.032,31.829c4.887,12.102,21.739,27.416,30.888,36.843c9.595,9.204,20.767,14.831,26.996,27.38
		c4.896,8.743,9.122,17.259,15.591,24.663c5.798,7.179,5.22,12.277,5.641,21.005c0.65,6.938-3.845,13.641-11.009,14.962
		c-6.049,1.322-28.283-1.199-33.645-4.122c-22.349-10.137-25.491-15.571-41.101-34.639c-7.804-8.973-18.834-23.729-28.662-30.025
		c-9.729-6.232-23.853-10.793-34.778-13.807c-4.471-1.232-9.333-2.151-13.896-2.695"/>
	<path style="fill:none;stroke:#17192D;stroke-width:3;" d="M2048,0"/>
	<path style="fill:none;stroke:#17192D;stroke-width:3;" d="M2048,1536"/>
	<path style="fill:none;stroke:#17192D;stroke-width:3;" d="M0,1536"/>
	<path style="fill:none;stroke:#17192D;stroke-width:3;" d="M0,0"/>
</g>
<g id="Layer_1">
</g>
</svg>
