<?xml version="1.0" encoding="iso-8859-1"?>
<!-- Generator: Adobe Illustrator 15.1.0, SVG Export Plug-In . SVG Version: 6.00 Build 0)  -->
<!DOCTYPE svg PUBLIC "-//W3C//DTD SVG 1.1//EN" "http://www.w3.org/Graphics/SVG/1.1/DTD/svg11.dtd">
<svg version="1.1" xmlns="http://www.w3.org/2000/svg" xmlns:xlink="http://www.w3.org/1999/xlink" x="0px" y="0px" width="2048px"
	 height="1536px" viewBox="0 0 2048 1536" style="enable-background:new 0 0 2048 1536;" xml:space="preserve">
<g id="e3b_x5F_arm_x5F_v">
	<g>
		<path style="fill:none;stroke:#FF0050;stroke-width:3;" d="M739.933,888.563c15.137,0.095,17.357-6.738,12.356-20.858
			c-5.6-14.779-30.02-44.972-47.202-28.761c1.505-18.225,24.947-20.256,39.244-15.784c16.783,5.222,22.771,25.064,25.195,40.324
			c2.518,0.12,5.635,0.9,8.183,0.391"/>
		<path style="fill:none;stroke:#FF0050;stroke-width:3;" d="M773.864,891.453c14.477,0.693,25.449-4.459,38.819-6.974
			c15.288-3.052,32.253-1.607,46.373-6.607c16.038-5.543,33.123-6.615,48.56-12.814c15.409-5.57,26.052-17.047,42-20.698
			c1.918-0.539,3.837-1.079,5.725-0.988"/>
		<path style="fill:none;stroke:#FF0050;stroke-width:3;" d="M743.08,888.713c11.3,1.175,19.72,9.78,30.959,12.211
			c15.017,2.613,31.685-2.896,46.253-4.091c17.117-1.704,28.117-7.484,43.557-13.685c13.489-5.033,28.444-1.159,41.874-4.934
			c21.102-5.928,35.735-21.628,55.701-30.136"/>
		<path style="fill:none;stroke:#FF0050;stroke-width:3;" d="M961.582,818.434c-3.617-1.501-9.318-1.289-13.14-1.904
			c-5.177-0.839-6.073-2.87-10.509-4.812c-2.226-0.975-5.761-0.491-8.149-1.116c-2.319-0.603-4.135-1.997-6.319-2.704
			c-5.66-1.835-11.974-2.219-18.05-2.25c-12.478-0.065-24.493,3.428-37.286,1.381c-5.266-0.844-11.046-4.695-15.972-5.367
			c-5.099-0.696-10.84,0.911-16.608,0.635c-6.205-0.297-30.096-5.422-31.051,0.941c-9.499,0.017-17.974-0.56-27.105,1.459
			c-10.429,2.306-21.707,3.4-31.859,6.533"/>
		<path style="fill:none;stroke:#FF0050;stroke-width:3;" d="M922.735,826.035c-13.218-0.634-25.268,0.681-38.516,0.678
			c-10.729,0.116-21.909-3.574-33.239-4.117c-12.619,0.026-25.899,0.649-38.427-1.211c-11.24-2.432-19.72-9.78-31.62-11.612"/>
		<path style="fill:none;stroke:#FF0050;stroke-width:3;" d="M858.794,857.039c-13.729-3.183-28.627,4.937-42.507,4.901
			c-13.25-0.003-23.652,6.437-37.53,6.403"/>
		<path style="fill:none;stroke:#FF0050;stroke-width:3;" d="M796.179,847.097c-0.958-6.354-4.911-16.009-9.855-18.137
			c-5.545-2.792-19.604,0.952-24.76,3.229"/>
		<path style="fill:none;stroke:#FF0050;stroke-width:3;" d="M774.299,842.894c-2.428-2.011-4.916-2.759-8.093-2.283"/>
		<path style="fill:none;stroke:#FF0050;stroke-width:3;" d="M780.408,860.22c-3.056-2.039-6.145-3.448-9.891-4.259"/>
		<path style="fill:none;stroke:#FF0050;stroke-width:3;" d="M840.749,851.757c0.121-2.516,0.242-5.035,0.363-7.553"/>
		<path style="fill:none;stroke:#FF0050;stroke-width:3;" d="M852.23,849.153c3.45-6.144-1.672-17.746-7.846-20.565"/>
		<path style="fill:none;stroke:#FF0050;stroke-width:3;" d="M885.948,856.448c-2.396-2.639-4.794-5.276-7.222-7.287"/>
		<path style="fill:none;stroke:#FF0050;stroke-width:3;" d="M917.512,856.068c-4.287-2.729-7.882-6.688-4.523-10.941"/>
		<path style="fill:none;stroke:#FF0050;stroke-width:3;" d="M909.577,824.143c0.72-1.857,0.812-3.746-0.357-5.695"/>
		<path style="fill:none;stroke:#FF0050;stroke-width:3;" d="M909.884,804.6c-1.137-2.579,0.271-5.666,2.25-7.465"/>
		<path style="fill:none;stroke:#FF0050;stroke-width:3;" d="M850.898,797.985c-1.557-7.015-6.441-10.403-13.424-9.475"/>
		<path style="fill:none;stroke:#FF0050;stroke-width:3;" d="M713.245,826.716c5.938-5.395,4.89-9.858,8.938-15.343
			c3.388-4.886,9.114-5.872,13.072-9.468c4.588-3.566,6.807-10.398,13.224-12.616c8.303-2.124,18.854,1.536,27.786-0.562
			c9.593-2.693,18.617-6.676,27.757,0.07"/>
		<path style="fill:none;stroke:#FF0050;stroke-width:3;" d="M981.108,779.624c-3.874-6.155-20.502-10.37-27.182-12.012
			c-10.382-2.552-19.746-9.003-30.373-10.307c-11.865-1.451-23.618-4.278-35.788-4.255c-11.255,0.024-24.068-2.067-34.653,1.666
			c-4.918,1.735-9.798,3.168-13.575,6.796c-3.243,3.112-4.973,7.04-8.968,9.475c-5.415,3.302-24.715,9.946-25.799,15.324"/>
		<path style="fill:none;stroke:#FF0050;stroke-width:3;" d="M988.623,807.113c-5.454-4.678-12.946-6.3-18.43-10.347
			c-3.626-3.329-7.851-7.318-12.796-9.448c-4.914-2.758-11.209-3.06-16.183-4.561c-6.864-1.59-9.861-4.889-14.806-7.019
			c-11.748-4.979-24.037,1.371-35.277-1.062c-9.381-1.711-23.884-15.025-34.288-8.583"/>
		<path style="fill:none;stroke:#FF0050;stroke-width:3;" d="M907.013,785.534c-5.664-0.271-7.971-4.799-12.286-6.898"/>
		<path style="fill:none;stroke:#FF0050;stroke-width:3;" d="M874.61,882.402c29.884-4.876,54.372-2.44,81.054-19.458
			c25.362-15.817,55.58-27.619,48.457-63.29c-2.573-12.111-2.357-29.766-8.198-39.51c-7.61-12.352-24.061-24.497-35.03-32.594
			c-11.566-8.757-28.471-11.459-41.477-16.5c-13.636-5.07-23.797-3.665-37.916,1.336c-10.283,3.923-17.478,9.257-26.562,14.5
			c-7.765,4.042-14.029,3.111-21.103,5.927"/>
		<path style="fill:none;stroke:#FF0050;stroke-width:3;" d="M828.157,772.291c0.452-9.442-0.294-20.205-11.594-21.377"/>
		<path style="fill:none;stroke:#FF0050;stroke-width:3;" d="M808.312,778.278c0.569,1.29,0.538,1.918,0.509,2.548
			c-1.047-4.468-7.071-10.433-11.387-12.533"/>
		<path style="fill:none;stroke:#FF0050;stroke-width:3;" d="M805.948,761.761c6.748-9.141,7.714-29.284,20.454-31.828"/>
		<path style="fill:none;stroke:#FF0050;stroke-width:3;" d="M835.667,720.915c12.11-2.574,23.652-6.438,35.641-6.493"/>
		<path style="fill:none;stroke:#FF0050;stroke-width:3;" d="M946.533,737.586c-11.884,6.65-29.934,4.243-44.331,3.553
			c-6.438-0.309-41.725-0.909-37.77,11.438"/>
		<path style="fill:none;stroke:#FF0050;stroke-width:3;" d="M966.188,761.875c-4.285-2.731-7.312-5.399-11.656-6.87"/>
		<path style="fill:none;stroke:#FF0050;stroke-width:3;" d="M977.251,754.832c-9.292-3.601-12.464-16.37-19.268-19.219"/>
		<path style="fill:none;stroke:#FF0050;stroke-width:3;" d="M916.652,729.215c-8.394,4.014-13.761,10.696-22.754,14.05"/>
		<path style="fill:none;stroke:#FF0050;stroke-width:3;" d="M881.97,742.061c9.083-5.241,18.137-9.855,21.168-20.436"/>
		<path style="fill:none;stroke:#FF0050;stroke-width:3;" d="M983.458,743.773c-0.897-7.614-5.6-14.779-12.912-20.176
			c-7.282-6.028-13.425-9.477-18.728-17.303c-4.135-5.877-6.98-12.322-13.062-17.03c-18.908-13.525-48.462-15.571-69.566-9.645"/>
		<path style="fill:none;stroke:#FF0050;stroke-width:3;" d="M866.768,664.362c6.325-0.329,9.864-8.359,13.223-12.615"/>
		<path style="fill:none;stroke:#FF0050;stroke-width:3;" d="M888.229,664.13c4.438-0.419,8.244-0.868,12.589,0.604"/>
		<path style="fill:none;stroke:#FF0050;stroke-width:3;" d="M933.303,684.588c-2.998-3.299-7.972-4.8-11.598-8.129
			c-3.624-3.327-5.333-7.195-8.329-10.492c-6.053-5.337-12.764-10.077-18.848-14.785c-6.683-5.367-11.477-10.644-16.901-15.952
			c-12.645-12.593-26.371-15.776-41.805-22.823c-9.262-4.231-18.371-11.607-27.662-15.208c-7.433-2.88-14.477-0.694-21.971-2.315
			c-6.864-1.592-12.946-6.297-19.841-7.261c-6.894-0.962-13.938,1.226-20.294,2.182c-6.325,0.329-15.046-1.983-20.802-0.365
			c-8.305,2.125-12.503,10.756-16.613,17.498c-8.217,13.487-16.374,25.713-12.722,41.661c3.052,15.289-0.729,28.356,0.436,43.555
			c1.94,25.329,21.505,51.503,40.325,66.917c20.616,17.392,44.506,19.169,67.283,30.987"/>
		<path style="fill:none;stroke:#FF0050;stroke-width:3;" d="M785.176,760.766c-8.087-15.531-25.169-27.707-26.842-45.453
			c-0.807-9.502,2.763-18.163,1.957-27.664c-0.896-7.616-6.829-15.47-7.126-22.424"/>
		<path style="fill:none;stroke:#FF0050;stroke-width:3;" d="M788.902,735.707c-2.816-7.075-6.261-14.18-11.685-19.487
			c11.3,1.172,19.726-3.471,19.639-14.831"/>
		<path style="fill:none;stroke:#FF0050;stroke-width:3;" d="M808.031,718.328c4.919-10.49,21.255-9.076,29.171-16.268"/>
		<path style="fill:none;stroke:#FF0050;stroke-width:3;" d="M822.668,689.377c-4.558,2.936-11.515,16.481-14.425,24.544"/>
		<path style="fill:none;stroke:#FF0050;stroke-width:3;" d="M791.901,725.755c5.911-18.012,4.33-37.647,13.297-53.621"/>
		<path style="fill:none;stroke:#FF0050;stroke-width:3;" d="M830.213,624.124c2.392,1.623,2.456,4.536,4.208,6.356
			c2.756,2.862,7.081,3.562,9.036,6.897"/>
		<path style="fill:none;stroke:#FF0050;stroke-width:3;" d="M813.356,659.907c0.212-4.405-0.178-9.471-0.596-13.907"/>
		<path style="fill:none;stroke:#FF0050;stroke-width:3;" d="M804.008,644.317c-1.284-12.678-24.634-12.536-4.669-21.043"/>
		<path style="fill:none;stroke:#FF0050;stroke-width:3;" d="M829.286,617.139c4.497-1.676-7.463-2.25-9.352-2.341
			c-6.923-0.331-13.938,1.224-20.113-1.595"/>
		<path style="fill:none;stroke:#FF0050;stroke-width:3;" d="M783.603,622.521c-10.58-3.031-14.331,9.407-24.402,8.925"/>
		<path style="fill:none;stroke:#FF0050;stroke-width:3;" d="M749.152,656.83c0.331-6.923-0.416-17.686,6.09-21.79"/>
		<path style="fill:none;stroke:#FF0050;stroke-width:3;" d="M762.551,653.688c1.41-3.087,3.448-6.145,6.088-8.541"/>
		<path style="fill:none;stroke:#FF0050;stroke-width:3;" d="M775.519,685.854c4.709-6.083,10.525-8.96,16.939-11.175"/>
		<path style="fill:none;stroke:#FF0050;stroke-width:3;" d="M791.505,655.076c-0.599-0.661-5.424-5.308-7.192-7.915"/>
		<path style="fill:none;stroke:#FF0050;stroke-width:3;" d="M783.348,667.302c-1.857-0.719-4.315-2.1-5.483-4.047"/>
		<path style="fill:none;stroke:#FF0050;stroke-width:3;" d="M828.695,682.096c3.001-9.952,18.198-11.115,24.195-17.769
			c5.998-6.652,5.851-16.752,8.042-22.958"/>
		<path style="fill:none;stroke:#FF0050;stroke-width:3;" d="M869.782,706.778c-2.397-2.638-3.475-6.476-3.294-10.252"/>
		<path style="fill:none;stroke:#FF0050;stroke-width:3;" d="M852.192,692.054c2.25-7.462,2.014-15.676,4.863-22.48"/>
		<path style="fill:none;stroke:#FF0050;stroke-width:3;" d="M851.493,627.668c-4.344-1.47-8.031-3.539-11.747-4.981"/>
		<path style="fill:none;stroke:#FF0050;stroke-width:3;" d="M784.115,611.82c-1.798-1.979-14.235-5.731-14.085-8.877
			c-0.328-6.327,15.409-5.572,19.816-5.361"/>
		<path style="fill:none;stroke:#FF0050;stroke-width:3;" d="M746.771,601.195c1.319-1.197,3.208-1.106,5.097-1.016"/>
		<path style="fill:none;stroke:#FF0050;stroke-width:3;" d="M766.909,615.411c-1.768-2.609-4.225-3.988-7.343-4.769"/>
		<path style="fill:none;stroke:#FF0050;stroke-width:3;" d="M728.503,640.068c-0.418-4.437-9.498-12.442-8.717-15.56
			c0.841-4.375,14.003-15.732,17.362-19.988"/>
		<path style="fill:none;stroke:#FF0050;stroke-width:3;" d="M732.596,594.207c-2.462,11.87-15.383,18.191-17.815,29.431
			c-1.561,6.233,1.255,13.308,2.271,18.405c1.019,5.096,3.205,12.141,6.11,17.327"/>
		<path style="fill:none;stroke:#FF0050;stroke-width:3;" d="M710.033,656.848c1.26,0.059,1.918-0.539,2.548-0.509
			c1.587,6.386,4.493,11.572,1.673,17.746c3.656,2.699,9.799,6.148,11.537,9.384c2.337,3.897-1.439,3.716-0.931,6.266
			c0.509,2.548,3.027,2.667,3.536,5.215c0.835,8.874,2.543,12.741,6.588,20.506"/>
		<path style="fill:none;stroke:#FF0050;stroke-width:3;" d="M720.295,719.168c6.023,5.967,7.458,15.499,12.821,22.066
			c7.731,9.835,7.967,18.048,19.596,25.546"/>
		<path style="fill:none;stroke:#FF0050;stroke-width:3;" d="M742.033,700.021c-7.222-7.285-3.199-25.39-9.041-35.134"/>
		<path style="fill:none;stroke:#FF0050;stroke-width:3;" d="M746.223,625.776c3.897-2.337,7.765-4.045,12.201-4.462"/>
	</g>
	<path style="fill:none;stroke:#17192D;stroke-width:3;" d="M2048,0"/>
	<path style="fill:none;stroke:#17192D;stroke-width:3;" d="M2048,1536"/>
	<path style="fill:none;stroke:#17192D;stroke-width:3;" d="M0,1536"/>
	<path style="fill:none;stroke:#17192D;stroke-width:3;" d="M0,0"/>
</g>
<g id="Layer_1">
</g>
</svg>
