<svg xmlns="http://www.w3.org/2000/svg" width="2048" height="1536" viewBox="0 0 2048 1536"><g fill="none" stroke-width="3"><path d="M1858.03 772.026c8.238.396 15.985-.183 23.97 1.828 10.315 2.597 20.437 5.27 30.363 9.122 12.903 5.01 24.14 14.316 33.316 23.817 9.345 9.97 21.66 17.838 31.783 27.007 9.153 7.918 24.46 24.277 31.61 6.91 2.89-6.854 2.455-14.127 4.236-21.12 1.17-5.715 1.09-10.462.207-15.988-1.46-11.684-5.143-23.652-7.55-35.008-4.476-21.763-24.688-47.538-43.246-59.573-13.12-8.64-25.526-12.232-37.118-24.066-8.846-8.558-21.216-19.585-34.817-19.044-11.073.187-22.85 5.92-29.682 13.63-3.584 3.384-7.143 8.35-11.53 10.956" stroke="#FF0050"/><path d="M2048 0M2048 1536M0 1536M0 0" stroke="#17192D"/></g></svg>