<svg xmlns="http://www.w3.org/2000/svg" width="2048" height="1536" viewBox="0 0 2048 1536"><g fill="none" stroke-width="3"><g stroke="#FF0050"><path d="M739.933 888.563c15.137.095 17.357-6.738 12.356-20.858-5.6-14.78-30.02-44.972-47.203-28.76 1.505-18.226 24.947-20.257 39.244-15.785 16.784 5.222 22.772 25.064 25.196 40.324 2.518.12 5.635.9 8.183.39M773.864 891.453c14.477.693 25.45-4.46 38.82-6.974 15.287-3.053 32.252-1.608 46.372-6.608 16.038-5.543 33.123-6.615 48.56-12.814 15.41-5.57 26.052-17.047 42-20.698 1.918-.54 3.837-1.08 5.725-.988M743.08 888.713c11.3 1.175 19.72 9.78 30.96 12.21 15.016 2.614 31.684-2.895 46.252-4.09 17.117-1.704 28.117-7.484 43.557-13.685 13.488-5.033 28.443-1.16 41.873-4.934 21.102-5.928 35.735-21.628 55.7-30.136M961.582 818.434c-3.617-1.5-9.318-1.29-13.14-1.904-5.177-.84-6.073-2.87-10.51-4.812-2.225-.975-5.76-.49-8.148-1.116-2.32-.603-4.135-1.997-6.32-2.704-5.66-1.835-11.973-2.22-18.05-2.25-12.477-.065-24.492 3.428-37.285 1.38-5.267-.843-11.047-4.694-15.973-5.366-5.1-.696-10.84.91-16.608.635-6.206-.297-30.097-5.422-31.052.94-9.5.018-17.974-.56-27.105 1.46-10.43 2.306-21.707 3.4-31.86 6.533M922.735 826.035c-13.218-.634-25.268.68-38.516.678-10.73.116-21.91-3.574-33.24-4.117-12.62.026-25.9.65-38.427-1.21-11.24-2.433-19.72-9.78-31.62-11.613M858.794 857.04c-13.73-3.184-28.627 4.936-42.507 4.9-13.25-.003-23.652 6.437-37.53 6.403M796.18 847.097c-.96-6.354-4.912-16.01-9.856-18.137-5.545-2.792-19.604.952-24.76 3.23M774.3 842.894c-2.43-2.01-4.917-2.76-8.094-2.283M780.408 860.22c-3.056-2.04-6.145-3.448-9.89-4.26M840.75 851.757c.12-2.516.24-5.035.362-7.553M852.23 849.153c3.45-6.144-1.672-17.746-7.846-20.565M885.948 856.448c-2.396-2.64-4.794-5.276-7.222-7.287M917.512 856.068c-4.287-2.73-7.882-6.688-4.523-10.94M909.577 824.143c.72-1.857.812-3.746-.357-5.695M909.884 804.6c-1.137-2.58.27-5.666 2.25-7.465M850.898 797.985c-1.557-7.015-6.44-10.403-13.424-9.475M713.245 826.716c5.938-5.395 4.89-9.858 8.938-15.343 3.388-4.886 9.114-5.872 13.072-9.468 4.588-3.566 6.807-10.398 13.224-12.616 8.302-2.125 18.853 1.535 27.785-.563 9.593-2.693 18.617-6.676 27.757.07M981.108 779.624c-3.874-6.155-20.502-10.37-27.182-12.012-10.382-2.552-19.746-9.003-30.373-10.307-11.865-1.45-23.618-4.278-35.788-4.255-11.255.024-24.068-2.067-34.653 1.666-4.918 1.735-9.798 3.168-13.575 6.796-3.243 3.112-4.973 7.04-8.968 9.475-5.416 3.302-24.716 9.946-25.8 15.324M988.623 807.113c-5.454-4.678-12.946-6.3-18.43-10.347-3.626-3.33-7.85-7.318-12.796-9.448-4.914-2.758-11.21-3.06-16.183-4.56-6.864-1.59-9.86-4.89-14.806-7.02-11.748-4.98-24.037 1.37-35.277-1.062-9.38-1.71-23.883-15.025-34.287-8.583M907.013 785.534c-5.664-.27-7.97-4.8-12.286-6.898M874.61 882.402c29.884-4.876 54.372-2.44 81.054-19.458 25.362-15.817 55.58-27.62 48.457-63.29-2.572-12.11-2.356-29.766-8.197-39.51-7.61-12.352-24.06-24.497-35.03-32.594-11.566-8.757-28.47-11.46-41.477-16.5-13.636-5.07-23.797-3.665-37.916 1.336-10.283 3.923-17.478 9.257-26.562 14.5-7.765 4.042-14.03 3.11-21.103 5.927M828.157 772.29c.452-9.44-.294-20.204-11.594-21.376M808.312 778.278c.57 1.29.538 1.918.51 2.548-1.048-4.468-7.072-10.433-11.388-12.533M805.948 761.76c6.748-9.14 7.714-29.283 20.454-31.827M835.667 720.915c12.11-2.574 23.652-6.438 35.64-6.493M946.533 737.586c-11.884 6.65-29.934 4.243-44.33 3.553-6.44-.31-41.726-.91-37.77 11.437M966.188 761.875c-4.285-2.73-7.312-5.4-11.656-6.87M977.25 754.832c-9.29-3.6-12.463-16.37-19.267-19.22M916.652 729.215c-8.394 4.014-13.76 10.696-22.754 14.05M881.97 742.06c9.083-5.24 18.137-9.854 21.168-20.435M983.458 743.773c-.897-7.614-5.6-14.78-12.912-20.176-7.282-6.028-13.425-9.477-18.728-17.303-4.135-5.877-6.98-12.322-13.062-17.03-18.908-13.525-48.462-15.57-69.566-9.645M866.768 664.362c6.325-.33 9.864-8.36 13.223-12.615M888.23 664.13c4.437-.42 8.243-.868 12.588.604M933.303 684.588c-2.998-3.3-7.972-4.8-11.598-8.13-3.624-3.326-5.333-7.194-8.33-10.49-6.052-5.338-12.763-10.078-18.847-14.786-6.683-5.367-11.477-10.644-16.9-15.952-12.646-12.593-26.372-15.776-41.806-22.823-9.262-4.23-18.37-11.607-27.662-15.208-7.433-2.88-14.477-.695-21.97-2.316-6.865-1.592-12.947-6.297-19.842-7.26-6.894-.963-13.938 1.225-20.294 2.18-6.325.33-15.046-1.982-20.802-.364-8.305 2.125-12.503 10.756-16.613 17.498-8.218 13.487-16.375 25.713-12.723 41.66 3.052 15.29-.73 28.357.436 43.556 1.94 25.33 21.505 51.503 40.325 66.917 20.616 17.393 44.506 19.17 67.283 30.988M785.176 760.766c-8.087-15.53-25.17-27.707-26.842-45.453-.807-9.502 2.763-18.163 1.957-27.664-.895-7.617-6.828-15.47-7.125-22.425M788.902 735.707c-2.816-7.075-6.26-14.18-11.685-19.487 11.3 1.172 19.726-3.47 19.64-14.83M808.03 718.328c4.92-10.49 21.256-9.076 29.172-16.268M822.668 689.377c-4.558 2.936-11.515 16.48-14.425 24.544M791.9 725.755c5.912-18.012 4.33-37.647 13.298-53.62M830.213 624.124c2.392 1.623 2.456 4.536 4.208 6.356 2.757 2.862 7.082 3.562 9.037 6.897M813.356 659.907c.212-4.405-.178-9.47-.596-13.907M804.008 644.317c-1.284-12.678-24.634-12.536-4.67-21.043M829.286 617.14c4.497-1.677-7.463-2.25-9.352-2.342-6.923-.33-13.938 1.224-20.113-1.595M783.603 622.52c-10.58-3.03-14.33 9.408-24.402 8.926M749.152 656.83c.33-6.923-.416-17.686 6.09-21.79M762.55 653.688c1.41-3.087 3.45-6.145 6.09-8.54M775.52 685.854c4.708-6.083 10.524-8.96 16.938-11.175M791.505 655.076c-.6-.66-5.424-5.308-7.192-7.915M783.348 667.302c-1.857-.72-4.315-2.1-5.483-4.047M828.695 682.096c3-9.952 18.198-11.115 24.195-17.77 5.998-6.65 5.85-16.75 8.042-22.957M869.782 706.778c-2.397-2.638-3.475-6.476-3.294-10.252M852.192 692.054c2.25-7.462 2.014-15.676 4.863-22.48M851.493 627.668c-4.344-1.47-8.03-3.54-11.747-4.98M784.115 611.82c-1.798-1.98-14.235-5.73-14.085-8.877-.328-6.327 15.41-5.572 19.816-5.36M746.77 601.195c1.32-1.197 3.21-1.106 5.098-1.016M766.91 615.41c-1.77-2.608-4.226-3.987-7.344-4.768M728.503 640.068c-.418-4.437-9.498-12.442-8.717-15.56.84-4.375 14.003-15.732 17.362-19.988M732.596 594.207c-2.462 11.87-15.383 18.19-17.815 29.43-1.56 6.234 1.256 13.31 2.272 18.406 1.02 5.096 3.205 12.14 6.11 17.327M710.033 656.848c1.26.06 1.918-.54 2.548-.51 1.588 6.387 4.494 11.573 1.674 17.747 3.656 2.7 9.8 6.148 11.537 9.384 2.338 3.896-1.438 3.715-.93 6.265.51 2.548 3.027 2.667 3.536 5.215.835 8.874 2.543 12.74 6.588 20.506M720.295 719.168c6.023 5.967 7.458 15.5 12.82 22.066 7.732 9.835 7.968 18.048 19.597 25.546M742.033 700.02c-7.222-7.284-3.2-25.39-9.04-35.133M746.223 625.776c3.897-2.337 7.765-4.045 12.2-4.462"/></g><path d="M2048 0M2048 1536M0 1536M0 0" stroke="#17192D"/></g></svg>