<?xml version="1.0" encoding="iso-8859-1"?>
<!-- Generator: Adobe Illustrator 15.1.0, SVG Export Plug-In . SVG Version: 6.00 Build 0)  -->
<!DOCTYPE svg PUBLIC "-//W3C//DTD SVG 1.1//EN" "http://www.w3.org/Graphics/SVG/1.1/DTD/svg11.dtd">
<svg version="1.1" xmlns="http://www.w3.org/2000/svg" xmlns:xlink="http://www.w3.org/1999/xlink" x="0px" y="0px" width="2048px"
	 height="1536px" viewBox="0 0 2048 1536" style="enable-background:new 0 0 2048 1536;" xml:space="preserve">
<g id="e3b_x5F_hand_x5F_h">
	<g>
		<path style="fill:none;stroke:#FF0050;stroke-width:3;" d="M595.542,1166.059c-3.778-1.517-8.632-0.776-12.382-2.933
			c-2.82-8.154-4.149-13.897,1.969-20.954"/>
		<path style="fill:none;stroke:#FF0050;stroke-width:3;" d="M601.211,1154.971c-3.762-1.096-10.059-0.14-13.741-3.099
			c-4.376-3.515-2.341-9.7-0.676-17.639"/>
		<path style="fill:none;stroke:#FF0050;stroke-width:3;" d="M599.847,1143.258c-2.402-3.457-9.61-0.461-11.918-5.917
			c-1.224-3.295,0.42-8.198,3.003-12.087c2.215-3.335,3.962-2.023,6.344-2.219"/>
		<path style="fill:none;stroke:#FF0050;stroke-width:3;" d="M660.089,1172.496c-7.835-3.438-18.709,2.048-26.514,3.909
			c-8.55,2.038-16.83,5.044-25.795,2.267"/>
		<path style="fill:none;stroke:#FF0050;stroke-width:3;" d="M581.511,1150.686c-0.206-0.211,1.062-1.077-0.494-0.604
			c-3.745,11.765-6.233,22.351,9.017,23.731c5.743,0.521,11.56,0.258,17.298,0.828c2.778,0.277,5.644,1.282,8.295,1.067
			c3.117-0.252,5.342-2.249,8.458-2.268"/>
		<path style="fill:none;stroke:#FF0050;stroke-width:3;" d="M594.901,1166.027c1.922,0.092,3.844,0.185,5.766,0.276"/>
		<path style="fill:none;stroke:#FF0050;stroke-width:3;" d="M601.885,1154.335c1.495,0.071,2.989,0.144,4.485,0.215"/>
		<path style="fill:none;stroke:#FF0050;stroke-width:3;" d="M600.761,1137.577c2.799,1.048,5.274,0.465,7.593,2.367"/>
		<path style="fill:none;stroke:#FF0050;stroke-width:3;" d="M631.675,1162.445c0.833-2.354,3.279-2.435,5.861-1.724"/>
		<path style="fill:none;stroke:#FF0050;stroke-width:3;" d="M660.794,1171.191c2.699-0.987,5.538-2.37,7.271-4.328"/>
		<path style="fill:none;stroke:#FF0050;stroke-width:3;" d="M679.433,1130.655c-2.512,0.798-8.175,3.166-8.521,3.602"/>
		<path style="fill:none;stroke:#FF0050;stroke-width:3;" d="M669.008,1147.195c-0.438-6.237-5.408-9.627-11.101-9.553"/>
		<path style="fill:none;stroke:#FF0050;stroke-width:3;" d="M594.571,1129.649c6.165,1.071,11.647,0.817,17.961-1.21"/>
	</g>
	<path style="fill:none;stroke:#17192D;stroke-width:3;" d="M2048,0"/>
	<path style="fill:none;stroke:#17192D;stroke-width:3;" d="M2048,1536"/>
	<path style="fill:none;stroke:#17192D;stroke-width:3;" d="M0,1536"/>
	<path style="fill:none;stroke:#17192D;stroke-width:3;" d="M0,0"/>
</g>
<g id="Layer_1">
</g>
</svg>
