<svg xmlns="http://www.w3.org/2000/svg" width="2048" height="1536" viewBox="0 0 2048 1536"><g><g fill="#17192D"><path d="M663.832 1424.344c8.427-.495 13.63 7.93 22.553 7.683 3.966 2.23 8.428 1.24 11.65 4.46 2.726 1.49 8.18 1.24 11.647 1.24 7.683 1.984 13.88 6.445 22.058 7.436 4.958 3.223 10.905 4.958 17.348 1.983 0-1.734.744-1.24.744-.25 2.727-.74 7.188.993 11.897-1.733 7.682-1.487 16.355-1.487 23.296-4.212 5.95-2.478 12.888-1.735 18.588-4.214 2.725-.495 5.7-.743 7.683-2.23 7.436-.247 13.136-2.478 19.332-5.203 6.194-1.24 13.135-4.958 19.33-2.727-.74.495-.99 1.238-.74 1.982-3.225 4.46-11.65 1.982-16.855 5.205-9.42 3.965-19.332 4.46-28.75 8.426-15.863 1.238-42.382 8.675-42.382 8.675l.25 3.47s8.922.99 14.87.247c7.436 1.983 16.358 1.734 24.784.99 4.71 1.983 10.903-1.733 16.356.25 4.958 0 10.905-2.48 15.863-.993 5.453 1.486 14.622-2.975 18.34.247 0 0 5.7 1.736 1.487 2.48-5.452.743-12.142 2.478-18.092 1.98-12.887-1.237-27.51-1.98-39.652.248-3.967-.247-8.178-.495-11.897-1.734-4.708.25-9.914-.74-14.87.25-5.948-1.983-12.144.743-18.092-1.486-13.878-3.224-28.253 2.972-41.638-.992-7.93.992-15.365-1.487-23.297.495-6.94-.992-15.612-2.23-21.81-.248-8.675-.496-17.597-2.23-26.272-2.727-.493-.496-.99-1.487-1.237-1.982 0-.99-.497-1.733.744-1.98 2.23-.497 4.708 1.733 6.94.494 7.93 2.478 16.604 1.487 25.03 2.23 4.46-1.982 7.683 2.48 12.393 0 9.42 1.486 21.562-1.238 31.227 1.735 5.454-.745 13.136.247 23.3-1.984-11.65-5.7-21.068-4.71-28.007-9.17-8.427-2.48-16.606-6.94-25.527-7.932-14.624-4.956-28.255-9.666-42.135-16.604-.496 0-.25-.247-.25-.496 2.234-.743 4.217-2.48 6.693-1.982 4.46 4.706 11.648 5.203 17.102 8.672zM825.92 1362.384c-.743 5.204.248 9.665 1.982 13.88-.247 1.24-1.237 2.478-1.983 2.727-3.22 4.71 2.974 13.135-5.206 15.613-2.725.744-5.7-.495-7.93 1.487-8.675 3.222-11.402.744-19.827 1.487-7.436.496-16.358-3.222-23.545 0-3.965 0-7.19-1.487-10.658-1.982-9.417 3.47-20.075-1.734-29.988.744-7.188.494-12.888-2.48-20.075.74-1.487.25-2.726.25-3.966.746-14.622 0-29.74-1.487-44.114.247-7.188 0-14.128-.247-20.572-3.718-1.24-.992.25-2.48 1.49-2.975 1.735 0 4.21-.495 6.938 1.735 5.205-2.23 9.913.247 14.375-.743 3.718.99 7.93 1.24 11.898.247 8.425-4.958 17.347.742 26.022.495 8.426-.248 16.853-3.47 25.528-2.478 8.92 1.237 19.33 1.98 28.5.99 2.975-.99 6.444.495 9.17-.495 2.728.495 6.445.247 8.924 1.982 3.47-.496 7.68-1.24 11.15-2.23 1.984.99 4.958.743 6.693 1.238 9.42.744 11.4 1.983 20.075-.99 5.7 1.982 3.47-3.966 8.427-5.205 3.222-1.238 1.486-2.727 1.486-4.46-.744-3.966 3.223-6.94 1.487-10.41-1.24-3.222-.25-7.435-2.727-10.904-.247-.992-.247-2.23.992-2.23 3.224-.744 3.72 2.477 5.454 4.46zM829.39 1280.102c1.983.992 3.965 0 6.196.495 1.734 0 2.973.497 4.46 1.488.248 1.24-1.238 2.23-1.983 3.47-1.733 2.23-3.717-1.24-4.21-1.24-.498-.99-2.976 1.24-5.456-2.477-4.955 1.487-9.417 1.487-12.886.495-6.94.744-14.62-1.24-21.315 1.487-2.727.247-4.212 3.47-5.452 4.956-.25 0-1.24 2.976-3.47 3.966-3.222 2.974-7.93 7.683-9.417 8.922-1.24 1.24 0-1.487-2.23.992-1.24.99-.743 1.486-2.48 4.213-2.228 2.726-6.69 7.435-7.682 8.674-1.488 2.974-2.974 6.444-4.71 10.41 5.206 3.47 10.412 2.478 13.88 4.707 4.462.25 9.914 1.24 14.625 2.48 2.724-2.23 4.708.495 6.69.495 2.724 1.487 6.94 1.24 10.16 2.73 6.197.99 11.647 4.707 18.59 3.468 2.477.495 5.45 1.487 7.93 2.23-.25.496-.496.99-.993.99-4.212.745-7.93-1.486-11.647-1.238-.992-.743-1.734-.992-2.727-.743-1.983-.25-3.966-.744-5.7-.744-3.965-1.24-6.692.992-13.136-3.222 0 3.717.496 1.487.496 1.487-3.717-.992-8.922-2.48-13.878-2.23-2.973-1.983-6.692-1.24-9.667-1.983-6.94-.744-11.647-3.47-18.34-2.974 0 0-.248-.247-.494-.247-1.983-1.24-4.214-.498-5.454-1.736-15.12-4.215-30.484-8.427-45.604-12.64-3.47-1.734-6.442-2.48-10.16-3.967-4.957-1.734-9.665-4.708-14.87-6.69-5.206-1.983-10.162-5.205-16.11-6.94-1.488-.743-3.966.496-3.966-1.982 0-.743-.742-2.478-.247-2.727 1.734-2.725 6.692-2.725 9.17-3.966 5.948-.493 14.374-1.734 21.562-3.222 2.727-3.222 6.94-.743 10.163-1.982 12.144.495 24.784-5.7 38.663-3.966 17.598-2.725 37.178-4.213 53.78-2.725 12.64.99 25.28-.25 37.92 1.485zm-75.095 4.213c-3.224-1.238-8.178 1.734-13.138.744-5.948-.993-12.39.99-18.34 1.98-5.7-.99-10.162 2.48-15.86 1.984-3.72.495-9.914.495-14.872 1.485-8.178 1.487-15.613 3.718-25.03 4.462 3.716 4.213 10.408 7.186 11.4 7.435 5.206 1.734 9.418 4.71 14.125 6.195 7.19 2.48 13.385 4.956 20.075 6.94 4.71 1.24 10.907 2.726 15.12 3.47 4.71-.248 11.4 3.965 17.845 4.957 3.717.494 1.98 2.228 7.188.74 1.98-4.707 4.956-7.93 6.69-12.143 2.23-2.974 3.47-3.222 6.69-6.69 2.232-2.23 4.463-5.702 6.94-8.924 2.232-2.48 5.206-5.203 6.693-6.938 0-.497 2.973-3.72 2.973-5.702-3.47-.743-7.433-.743-9.664-.99-6.693-.99-11.898.002-18.835.992zM814.767 1222.107c-8.922 6.443-20.323 5.453-28.5 12.393-3.223.992-6.693 2.727-9.42 4.46-7.68-.248-15.614 4.71-26.024 9.418 6.692 2.73 11.65 1.982 15.12.992 14.62 0 27.51-2.48 42.876-.248 4.213 0 9.416-1.238 13.133.496 7.188.247 15.614-1.734 21.812 1.734.247.25.247.25.495.496-5.205 1.487-11.896.992-17.102.743-4.46-1.238-9.17.496-14.125.496-9.666.25-19.828-3.222-28.503.992-7.93.99-15.364-2.727-23.048 0-6.94 2.23-13.88-1.238-20.324 1.983-11.896-1.982-27.26.248-40.15-1.982-14.622 0-29.492.99-43.87-1.487-7.927-.246-11.15-1.734-18.585-3.22-.25 0 1.24-1.735 1.24-2.23 7.93-4.71 10.657-6.197 19.084-9.42 11.647-4.71 24.04-3.716 35.688-6.938 16.358.25 32.468 2.48 44.365 18.093 21.81-13.136 45.106-14.624 66.172-26.023 9.417-2.974 18.094-7.685 27.51-10.658 1.488 0 3.965-.99 5.7-.495-7.684 4.46-15.613 7.93-23.545 10.407zm-139.535 16.357c-3.222.992-7.186-.247-10.16 1.736-3.967-.496-7.684 1.735-10.906 2.975l-5.95 4.213c2.232.248 10.906.99 13.386 1.487 3.222 3.222 8.92 1.734 12.888 2.727 18.34-2.48 38.91.495 60.967-.495-3.222-3.966-6.442-4.958-8.178-6.692-3.47-3.47-13.135-7.188-19.58-9.914-11.154 1.487-23.05-.992-32.468 3.964zM839.8 1168.325c-2.48 5.454-8.426 5.95-12.642 8.923-5.7 2.973-11.896 5.948-18.34 6.69-1.733.992-4.213 1.24-6.194 1.49-16.606 2.97-32.716 9.663-50.064 10.158-11.897 2.48-25.033 1.24-37.92.992-10.657 0-24.29-2.974-34.946-7.683-5.203-1.24-10.905-3.223-14.622-6.444-5.452-1.486-9.666-5.452-14.374-8.426-.99-1.735-2.23-3.47-2.23-5.204 0-.247-.25-.496-.25-.496 4.958 1.24 9.667 4.957 14.624 7.93 3.966 2.23 6.195 5.205 10.408 6.197 7.188 1.487 12.89 6.445 20.324 5.948 13.63 3.47 28.5 3.224 44.86 2.23-2.48-5.7 1.733-7.93-.248-11.4.247-1.486.494-2.478.99-3.47.745-.743 1.238-1.485 2.23-.743l1.24 1.24c-.496 1.486.495 2.478 1.237 3.222-.742 3.22 0 6.444-.494 10.41 12.143 1.237 20.32-2.23 30.235-2.727 4.214-1.983 10.658-2.48 15.86-3.966 4.71-1.487 10.41-1.487 14.873-4.214 3.72.496 7.93-.742 10.905-4.46 6.444.247 11.402-4.463 18.836-5.948v-1.24c1.238-.496 3.715-3.223 6.69-2.23-.248 1.24-.496 2.233-.99 3.223zM709.435 1011.69c6.94 1.24 12.64 2.48 20.075 1.488 12.888 5.453 27.756-2.23 39.902 6.69 6.692 1.488 15.117 1.736 21.314 4.96 10.41 3.47 21.312 4.955 30.236 12.143 3.717 4.96 6.444 9.42 9.17 14.624-.496 4.957-.248 10.656-4.708 12.888-9.417 3.718-19.332 5.452-28.502 10.16-19.827.496-38.167 7.684-56.755 4.462-8.922 1.983-17.597-.248-26.52 1.24-15.365-.99-29.493-7.188-44.363-9.913-3.22-2.727-15.86-4.957-5.7-8.923 6.692-1.24 10.907 3.72 16.854 5.204 3.47.745 6.692 4.71 10.658 4.71 15.12 2.728 28.253 5.454 44.61 3.472 14.128 3.47 29.494 0 43.62-2.976 13.386-.99 25.528-4.71 37.922-8.178 5.948-2.727 3.717-7.684 6.444-14.127-3.222-2.23-2.23-6.94-4.46-8.92-3.967-4.464-11.898-6.693-16.855-9.668-8.18-1.24-16.358 0-22.305-4.708-6.694-1.24-14.377.495-19.58-4.71-22.305-3.717-44.86-1.982-65.677-7.188-12.144-1.24-22.306-1.735-32.22-7.93.495-1.487 2.975-.743 3.965-1.24 15.364-.99 27.756 7.685 42.875 6.445zM676.72 937.093c2.724 0 6.69-.25 9.665-.496 7.188-4.462 18.34 0 26.77.99 5.202-2.975 13.876-1.238 19.33-1.735 7.93-1.98 18.338.497 27.508.497 16.11 0 34.7-.498 50.81-1.24 2.477-.248 4.954-1.735 7.187-.743.247.246.495-.247.744-.247-5.7 3.717-12.64 3.964-18.34 6.442-8.18 7.188-17.6 10.904-26.273 16.357-10.41 4.707-21.065 8.178-30.482 15.365-2.975 1.487-5.702 3.224-8.675 4.71l-7.186 3.47 8.178.495c19.332 1.237 37.422-3.47 57.25-.744 7.93 0 15.366-3.222 23.05-1.734 1.98-.248 4.46 0 6.195 0-.25.496 0 1.488-.25 1.734-1.982 0-3.716.496-5.45 1.734-1.984.992-4.463.992-6.693 1.488-6.69.743-13.385-.25-20.075 1.238-18.093.497-35.688-1.734-53.285.25-8.178-1.488-16.358 2.726-24.29.496-5.204 1.237-11.895-1.49-15.862 1.484-11.896-1.24-23.544-3.22-35.936-3.22-2.726-.99-6.94 0-8.18-2.976-.248-.247 1.488-2.726 1.488-1.486 13.38-3.47 24.783 4.46 40.15 2.725 7.93-.99 16.108 0 24.535-2.48 2.48-3.47 6.197-3.22 8.922-5.452 4.958-.744 9.916-1.98 13.136-5.452 12.642-6.195 25.528-8.426 35.69-17.597 2.973-1.24 5.947-2.728 9.17-5.454 0-.742 7.188-3.966 7.188-4.708-.25-.497-7.683 1.24-7.683.247-9.666 0-18.59-1.734-26.272.992-13.878-3.47-28.253-3.72-43.124-.497-10.66-1.24-21.563-2.725-31.97-.742-8.676-3.717-18.342 3.966-26.273-2.974-.744-2.23-4.71-1.487-4.46-4.214 8.427-1.485 15.614 3.224 23.792 3.473zM757.02 869.68c9.667.745 19.58 2.975 29.988 4.214 12.64 1.487 25.777 2.974 37.672 8.922 6.197 6.195 13.88 9.42 18.838 17.598.742 4.46 3.964 3.717 2.477 9.17.247.744-.495 0-.495-.992-5.7.248-2.975-1.24-7.188-6.94-6.443 1.984-11.153-.99-15.86.992-19.828-1.24-36.93 0-56.262 1.984-4.708 2.23-10.657 2.23-16.11 1.485-3.47-1.238-7.188 1.24-11.4.497-12.888-.743-27.263-.743-39.902.99-9.42-.495-18.588 0-28.255.99-3.716-.743-7.93-1.98-13.135-.494-1.487 3.47-3.222 2.727-1.983 5.7-.495.496-.992 1.238-1.734 1.735-.743-.247-1.486 0-2.228-.742.99-7.188 5.697-11.153 10.16-16.605 8.674-7.93 19.828-11.65 29.247-19.333 6.194-3.966 12.636-4.46 19.33-7.186 8.426-1.24 17.845-.745 26.024-2.48 6.936 1.735 13.63 1.24 20.816.496zm-39.16 6.196c-9.666-.495-16.356 3.966-25.525 6.692-.497.495-2.728 2.726-3.967 3.47-6.94 4.957-15.12 7.187-22.553 17.102 8.923-.746 13.383 2.478 17.597.743 6.195.744 11.648-2.48 17.844-2.727 8.922 2.727 18.588.495 27.76 1.734 8.427.992 17.595-.99 26.27-1.487 15.367-5.947 33.21-1.734 49.073-3.47 7.68 0 16.603-1.238 28.75.25-4.712-9.915-13.14-11.65-18.837-14.87-14.624-3.97-29.246-6.446-44.364-7.933-2.976-.497-6.692.744-9.418-.992-13.633.746-29.99-3.963-42.632 1.488zM663.832 749.727c8.427-.496 13.63 7.93 22.553 7.683 3.966 2.23 8.428 1.24 11.65 4.46 2.726 1.487 8.18 1.24 11.647 1.24 7.683 1.983 13.88 6.444 22.058 7.434 4.958 3.224 10.905 4.958 17.348 1.984 0-1.735.744-1.24.744-.248 2.727-.744 7.188.99 11.897-1.736 7.682-1.485 16.355-1.485 23.296-4.212 5.95-2.48 12.888-1.734 18.588-4.214 2.725-.496 5.7-.742 7.683-2.23 7.436-.248 13.136-2.478 19.332-5.205 6.194-1.24 13.135-4.956 19.33-2.725-.74.494-.99 1.24-.74 1.98-3.225 4.462-11.65 1.984-16.855 5.206-9.42 3.966-19.332 4.46-28.75 8.427-15.863 1.24-42.382 8.676-42.382 8.676l.25 3.47s8.922.99 14.87.25c7.436 1.98 16.358 1.73 24.784.99 4.71 1.98 10.903-1.736 16.356.246 4.958 0 10.905-2.48 15.863-.99 5.453 1.485 14.622-2.976 18.34.246 0 0 5.7 1.734 1.487 2.48-5.452.743-12.142 2.478-18.092 1.983-12.887-1.24-27.51-1.983-39.652.25-3.967-.25-8.178-.497-11.897-1.736-4.708.247-9.914-.744-14.87.247-5.948-1.982-12.144.744-18.092-1.487-13.878-3.22-28.253 2.977-41.638-.99-7.93.99-15.365-1.487-23.297.495-6.94-.99-15.612-2.23-21.81-.247-8.675-.494-17.597-2.23-26.272-2.726-.493-.495-.99-1.487-1.237-1.984 0-.99-.497-1.732.744-1.98 2.23-.497 4.708 1.735 6.94.496 7.93 2.48 16.604 1.484 25.03 2.23 4.46-1.983 7.683 2.48 12.393 0 9.42 1.487 21.562-1.24 31.227 1.734 5.454-.744 13.136.246 23.3-1.983-11.65-5.7-21.068-4.708-28.007-9.17-8.427-2.477-16.606-6.94-25.527-7.93-14.624-4.958-28.255-9.666-42.135-16.604-.496 0-.25-.25-.25-.497 2.234-.742 4.217-2.478 6.693-1.983 4.46 4.708 11.648 5.204 17.102 8.674zM846.24 649.6c6.198.744 10.412-.744 11.9 2.23 0 .248-.25.743-.25.99-9.17 5.206-21.066 2.975-31.723 5.948-18.836 2.727-38.167 4.214-55.516 8.675-3.963 5.453-8.427 12.888-5.7 20.075.248.247-.743 0-1.733 1.734 1.734 2.478-.994 3.47-.994 5.453-.99 4.71-.494 10.658-2.477 18.836 14.374 3.223 28.005 2.977 39.902 6.196 8.675 2.48 20.82-1.487 29.492 2.976 3.224 0 7.19-.497 9.42 2.23.495 1.24-1.737 1.24-2.728 1.24-10.163-1.736-17.844-.992-27.51-2.23-11.4-4.957-28.75-.745-41.142-5.703-4.46 0-11.4 1.238-14.87-1.24-11.65-2.725-25.53.744-36.433-4.46-20.324.743-37.177-7.684-57.994-7.684-.994-.99-.994-2.725-3.224-2.974-5.95-1.984-13.63 1.734-17.35-3.222 1.486-2.727 5.453-1.487 8.427-3.72 25.03-5.45 48.08-16.355 73.608-21.065 7.188-3.47 16.11-4.462 24.04-7.683 2.73-.248 5.454-.744 7.932.25 4.957-1.488 10.41-3.224 15.86-3.224 11.65-.247 22.06-5.7 34.203-4.71 3.717-2.23 9.42-.493 13.384-1.732 7.683-.745 15.613-2.727 22.8-4.71 1.488-.743 2.23-1.238 2.48-1.733 2.23-.992 2.477-.992 4.212-.744.004.246 1.985-.496 1.985 0zm-93.68 20.075c-12.394 5.45-26.77 5.45-39.656 9.17-15.12 4.212-29.244 12.64-46.346 15.86 0 4.214 1.734 5.7 4.708 5.95 6.94 2.478 13.384 5.205 21.314 6.195 14.624 1.983 31.724.744 45.605 4.214 3.715 0 9.168 0 14.125 1.486 2.478-2.973 2.727-5.947 4.956-7.436 0-2.972.744-5.205.992-7.435.496-3.718.496-7.187 1.24-9.915 1.24-4.708 1.982-6.442 2.477-10.408 6.693-11.65-4.955-7.434-9.416-7.682zM857.643 603.004c.25.248.25.992.497 1.734-.744 3.224 2.725 4.462.247 7.93 0 3.47.744 8.676-1.98 11.154-1.735.25-2.728 1.98-4.464 2.478-4.708.25-11.4.744-16.11 1.487-2.724-.992-7.93.99-10.655.247-13.138 1.24-29.99 1.983-44.86 1.736-2.725 1.734-7.683.496-10.656.496-13.88-.496-26.52-3.966-38.665-2.23-8.673 0-18.587 3.223-27.758 0-6.445.99-15.864-.248-21.067.248-.25 0-.497.495-.992.744-12.887-1.24-27.26 1.486-39.652.495-1.24-.495-2.48-2.478-.496-2.727 25.527-3.222 54.524-1.982 81.54-3.222 5.95-.25 15.118.25 21.56-.99.25.248.498.493.745.74 9.666 0 18.34 1.242 27.51 1.985.99-.498 1.98-.498 2.975 0 14.87.493 35.936-2.234 50.063-1.737 8.18-3.966 16.853 1.736 24.04-2.727 1.24-1.734 4.71 0 5.7-4.708-2.726-2.48-1.485-5.7-1.982-7.436-.99-3.965-1.24-10.16-1.486-13.383.495 0-.992-4.213 1.237-3.966 3.47 2.728 2.48 8.675 4.71 11.65zM621.698 541.292c0 7.683-.247 15.118 1.736 23.544 18.587 1.24 36.43 1.24 50.807-3.47 3.966-.743 7.932-1.238 11.154-2.478 15.612-4.46 27.26-1.24 42.628-6.69 9.666-.746 18.34-2.727 27.51-4.214 12.887-2.23 26.27-.744 38.168-3.47 7.68 0 16.853-.99 25.03-3.22 6.692.248 13.632-2.728 20.323-3.966.992.496 2.23 1.488 2.727 2.23-.992 7.435-11.897 3.223-16.605 5.453-16.853 3.223-33.21 4.957-48.825 5.452-9.42.25-19.332 2.727-28.998 3.966-9.666 1.24-16.853 1.983-26.52 1.983-2.726 1.488-6.443 1.984-9.914 1.24-3.22 2.975-6.444 1.24-8.922 2.975-8.18 1.24-16.853 3.47-25.775 4.71-7.93 0-16.604 4.707-23.79 3.468 0 0-1.242.497-1.49.744-7.187-.247-15.86.744-25.774-2.976-1.983 5.703-.497 11.403-.992 15.615-1.486 15.614 3.223 29.99.744 44.613 0 1.24 1.49 2.973.495 4.212-.99.99-1.98.25-2.973 0-2.727-3.717-1.983-9.666-1.983-13.878-1.734-1.984.25-5.95-.496-8.426 1.49-15.368-.99-30.485-.99-44.365 0-12.888-2.48-28.5-3.223-41.637-.99-2.23.992-3.717 2.23-4.708.248 0 0-.497.248-.248 2.483 7.436 3.473 15.365 3.473 23.545zM669.78 497.922c3.717.496 6.195 4.214 10.41 4.214 7.93 3.964 15.365 5.948 25.032 6.443 1.486.743 3.964.99 5.698 1.485 5.454.497 10.41 2.975 15.614 2.975 3.222.99 7.683-.744 10.658 3.222 3.964-.992 6.94-1.983 9.417-3.222.99-1.985 3.716-4.46 3.468-7.19 1.736-2.725.25-4.954 1.488-8.426 1.487-4.708 1.487-7.435 3.965-12.39 1.242-.993 2.48-1.984 3.967-1.735.992 2.477 0 5.452 0 8.424-3.222 6.445-2.725 9.914-4.956 18.34 1.983 1.24 1.24 2.232 1.983 2.728 6.196.992 12.888.25 18.09-.99 3.225.495 5.95-.746 10.908-.746.99-2.972 3.223-.742 4.71-1.485 8.923-.743 16.854-5.7 26.024-6.194 3.964-3.473 10.656-2.976 14.622-5.95 4.71.497 7.186-5.7 13.134-4.213 2.975-2.23 5.702-4.956 9.42-4.956.99.744 1.98 1.487 2.974 2.48-.497 3.716-4.71 3.964-7.438 5.947-4.213.495-8.178 1.487-11.153 4.214-5.45-.248-8.674 4.46-13.877 4.213-1.984 1.24-3.967 1.488-5.453 2.48-1.983-.25-3.717.496-5.205 1.238-11.4 0-20.322 7.437-31.726 6.692-1.484.992-4.21.992-5.698 1.24-12.146 4.21-26.27 3.47-38.663 3.22-5.7-1.486-12.64 0-17.598-2.477-15.364-2.727-30.236-8.922-44.857-12.89-6.94-2.725-13.384-6.938-19.828-10.407-7.188-3.966-15.614-6.692-20.82-13.88 0-.495 0-1.24.5-1.485 11.152 7.186 22.8 13.63 35.193 19.082zM822.202 368.304c3.222.99 6.692 2.478 9.172 3.47 7.682 4.46 15.86 7.93 23.297 12.886.495.496 1.487.993 2.48 1.24.74.248 1.483 1.238 2.476 1.983.25.494.25.99-.247 1.238-5.948 2.23-12.393-.743-18.34.744-3.967-.743-9.666 0-13.88-.743-7.684.497-16.357-2.23-25.033-.246-17.1-2.727-39.158 0-56.01 0-1.24-.25-2.728.497-3.967.247-1.983-.495-4.46 1.488-6.445-.495-9.664 1.488-20.57-.99-27.013.746-1.983.99-4.46.99-6.445 1.238-5.95-2.726-14.374.497-20.322-1.237-2.973.743-7.186 2.23-10.658 1.735-5.203 1.237-9.913.743-14.87 2.23-2.974-.993-6.94.742-9.667 0-4.957 1.238-10.16-.496-15.364 0-.25-.745-.497-1.24-.745-1.984 4.463-8.92 11.402-12.64 18.093-20.32 10.66-8.922 29.494-13.88 43.622-4.957 1.733-2.728 1.733.99 3.22.99 5.205 2.726 7.436 5.947 12.64 6.94 4.213 2.23 5.7 5.205 10.906 8.18 3.965-4.214 8.426-6.69 10.906-10.41 4.46-4.213 9.914-6.444 14.375-11.647 11.648-5.7 23.546-12.89 36.433-8.428 14.87 1.487 29.493 8.674 41.39 16.606zm-184.146 20.32c10.903 2.48 19.082 1.984 27.758-.247 10.41-2.725 24.536-1.734 35.44-2.48 2.48-1.238 8.428 0 9.667-4.708-4.46-.743-7.682-4.46-10.16-5.7h-.247c-7.685-3.967-14.375-6.938-22.307-8.675-15.118-3.22-30.484 7.437-40.15 21.81zm119.46-28.996c-.25.992-.992.25-1.24.497-2.727 1.24-2.727-.497-3.966 1.486 0 .744-.99.99-.99.99-2.48 1.242-4.957 2.232-4.957 2.48-.497.248-1.734.248-2.727.993-2.233.494-4.214 2.726-5.95 4.46-4.46 1.487-7.93 8.178-10.41 13.63 8.18 1.735 14.623-.245 20.323 1.735 2.23.497 4.213-2.478 6.693 0 3.47-.99 5.698-.495 8.178-.743 4.215 1.735 8.426-.247 13.632.497 7.186-2.48 14.87-2.48 22.552-2.726 10.658 2.477 24.538.99 34.947 2.23 1.984-.992 4.957.99 9.667-1.238-2.975-2.48-3.222-2.73-3.222-2.976-.496-.247-1.488.495-1.984-.495 0-1.487-1.732-2.23-3.963-2.727-3.47-2.974-8.922-2.974-12.392-5.947-.744-1.737-.992-.25-1.736-.25-1.487-2.972-5.454-2.725-7.435-5.45-10.905-5.206-22.058-9.42-35.44-9.915-.745.25-.992-1.238-2.48-.247-5.45 0-10.905.498-17.1 3.718zM838.56 319.48c.744.246 1.24.494 1.734.99-2.23 5.7-8.92 2.48-14.126 3.965-4.46.744-8.675 0-13.135.247-12.144.248-24.29-.247-35.938 0-6.197 0-14.375.497-20.82-.247-4.212-.495-9.416 0-13.63.247-10.16.99-19.827 0-30.485.744-.495-.496-.99-.496-1.486-.496-4.46 2.23-9.42.25-13.63.992-10.162.496-19.83 1.488-29.744 1.488-6.938-2.976-14.125 1.487-21.312-.25-.992-.247 1.486-2.973 2.23-2.973 10.904-7.436 23.543 2.973 35.688-.496 14.375-3.965 30.485-2.478 44.613-3.222 14.124-.743 27.507.496 41.884 0 3.962-.495 7.93-.495 12.143-.495.992 0 2.23.25 3.223.25 10.903-.25 21.808-.25 31.476-1.737 7.434 1.984 13.63.746 21.314.993zM825.92 262.23c-.743 5.205.248 9.664 1.982 13.878-.247 1.24-1.237 2.48-1.983 2.727-3.22 4.71 2.974 13.135-5.206 15.613-2.725.743-5.7-.494-7.93 1.49-8.675 3.22-11.402.74-19.827 1.484-7.436.497-16.358-3.222-23.545 0-3.965 0-7.19-1.485-10.658-1.982-9.417 3.47-20.075-1.733-29.988.745-7.188.494-12.888-2.48-20.075.742-1.487.248-2.726.248-3.966.742-14.622 0-29.74-1.485-44.114.25-7.188 0-14.128-.25-20.572-3.72-1.24-.99.25-2.48 1.49-2.974 1.735 0 4.21-.495 6.938 1.734 5.205-2.23 9.913.25 14.375-.742 3.718.99 7.93 1.237 11.898.247 8.425-4.956 17.347.744 26.022.495 8.426-.248 16.853-3.47 25.528-2.48 8.92 1.24 19.33 1.985 28.5.993 2.975-.992 6.444.495 9.17-.495 2.728.495 6.445.248 8.924 1.982 3.47-.495 7.68-1.24 11.15-2.23 1.984.99 4.958.743 6.693 1.238 9.42.744 11.4 1.984 20.075-.99 5.7 1.982 3.47-3.966 8.427-5.203 3.222-1.24 1.486-2.73 1.486-4.463-.744-3.966 3.223-6.94 1.487-10.41-1.24-3.22-.25-7.434-2.727-10.904-.247-.99-.247-2.23.992-2.23 3.224-.742 3.72 2.48 5.454 4.46zM757.02 196.057c9.667.744 19.58 2.975 29.988 4.214 12.64 1.488 25.777 2.975 37.672 8.925 6.197 6.193 13.88 9.416 18.838 17.596.742 4.462 3.964 3.718 2.477 9.17.247.745-.495 0-.495-.99-5.7.248-2.975-1.24-7.188-6.94-6.443 1.98-11.153-.99-15.86.99-19.828-1.238-36.93 0-56.262 1.985-4.708 2.23-10.657 2.23-16.11 1.486-3.47-1.238-7.188 1.24-11.4.496-12.888-.742-27.263-.742-39.902.992-9.42-.495-18.588 0-28.255.99-3.716-.742-7.93-1.982-13.135-.495-1.487 3.47-3.222 2.73-1.983 5.7-.495.497-.992 1.24-1.734 1.735-.743-.248-1.486 0-2.228-.745.99-7.186 5.697-11.153 10.16-16.604 8.674-7.932 19.828-11.65 29.247-19.332 6.194-3.966 12.636-4.463 19.33-7.188 8.426-1.24 17.845-.745 26.024-2.48 6.936 1.736 13.63 1.24 20.816.497zm-39.16 6.197c-9.666-.496-16.356 3.965-25.525 6.692-.497.495-2.728 2.725-3.967 3.47-6.94 4.956-15.12 7.187-22.553 17.1 8.923-.743 13.383 2.48 17.597.744 6.195.744 11.648-2.48 17.844-2.728 8.922 2.728 18.588.496 27.76 1.735 8.427.992 17.595-.992 26.27-1.487 15.367-5.948 33.21-1.732 49.073-3.47 7.68 0 16.603-1.238 28.75.25-4.712-9.916-13.14-11.65-18.837-14.873-14.624-3.965-29.246-6.443-44.364-7.93-2.976-.495-6.692.742-9.418-.992-13.633.745-29.99-3.964-42.632 1.49zM669.78 156.156c3.717.497 6.195 4.214 10.41 4.214 7.93 3.965 15.365 5.95 25.032 6.442 1.486.745 3.964.992 5.698 1.487 5.454.496 10.41 2.975 15.614 2.975 3.222.99 7.683-.744 10.658 3.222 3.964-.992 6.94-1.982 9.417-3.222.99-1.984 3.716-4.463 3.468-7.19 1.736-2.724.25-4.953 1.488-8.426 1.487-4.71 1.487-7.436 3.965-12.392 1.242-.992 2.48-1.982 3.967-1.734.992 2.48 0 5.452 0 8.425-3.222 6.445-2.725 9.915-4.956 18.34 1.983 1.24 1.24 2.23 1.983 2.727 6.196.992 12.888.25 18.09-.99 3.225.495 5.95-.745 10.908-.745.99-2.972 3.223-.742 4.71-1.486 8.923-.743 16.854-5.7 26.024-6.195 3.964-3.47 10.656-2.974 14.622-5.95 4.71.498 7.186-5.7 13.134-4.21 2.975-2.23 5.702-4.958 9.42-4.958.99.744 1.98 1.488 2.974 2.48-.497 3.718-4.71 3.965-7.438 5.947-4.213.494-8.178 1.487-11.153 4.214-5.45-.25-8.674 4.46-13.877 4.212-1.984 1.24-3.967 1.487-5.453 2.48-1.983-.25-3.717.496-5.205 1.238-11.4 0-20.322 7.436-31.726 6.69-1.484.992-4.21.992-5.698 1.24-12.146 4.213-26.27 3.47-38.663 3.222-5.7-1.487-12.64 0-17.598-2.478-15.364-2.727-30.236-8.924-44.857-12.888-6.94-2.727-13.384-6.94-19.828-10.41-7.188-3.967-15.614-6.69-20.82-13.88 0-.494 0-1.238.5-1.485 11.152 7.185 22.8 13.628 35.193 19.08zM814.767 86.762c-8.922 6.444-20.323 5.453-28.5 12.393-3.223.992-6.693 2.727-9.42 4.463-7.68-.25-15.614 4.708-26.024 9.417 6.692 2.727 11.65 1.982 15.12.99 14.62 0 27.51-2.478 42.876-.246 4.213 0 9.416-1.242 13.133.494 7.188.248 15.614-1.736 21.812 1.735l.495.493c-5.205 1.487-11.896.99-17.102.744-4.46-1.238-9.17.495-14.125.495-9.666.248-19.828-3.22-28.503.992-7.93.992-15.364-2.726-23.048 0-6.94 2.23-13.88-1.24-20.324 1.982-11.896-1.982-27.26.247-40.15-1.982-14.622 0-29.492.992-43.87-1.487-7.927-.247-11.15-1.734-18.585-3.223-.25 0 1.24-1.734 1.24-2.23 7.93-4.708 10.657-6.194 19.084-9.416 11.647-4.71 24.04-3.72 35.688-6.94 16.358.246 32.468 2.478 44.365 18.094 21.81-13.138 45.106-14.624 66.172-26.025 9.417-2.974 18.094-7.683 27.51-10.656 1.488 0 3.965-.99 5.7-.496-7.684 4.46-15.613 7.93-23.545 10.408zM675.232 103.12c-3.222.992-7.186-.25-10.16 1.736-3.967-.497-7.684 1.734-10.906 2.973l-5.95 4.214c2.232.246 10.906.99 13.386 1.487 3.222 3.22 8.92 1.735 12.888 2.726 18.34-2.478 38.91.495 60.967-.495-3.222-3.965-6.442-4.957-8.178-6.69-3.47-3.47-13.135-7.19-19.58-9.915-11.154 1.487-23.05-.993-32.468 3.965zM1137.31 1255.146c6.192.744 10.408-.744 11.895 2.23 0 .248-.25.743-.25.99-9.168 5.206-21.066 2.977-31.723 5.95-18.837 2.727-38.168 4.214-55.516 8.673-3.965 5.452-8.428 12.887-5.7 20.074.247.247-.743 0-1.733 1.734 1.734 2.48-.994 3.47-.994 5.453-.99 4.71-.495 10.657-2.48 18.836 14.375 3.222 28.006 2.975 39.904 6.196 8.674 2.48 20.818-1.487 29.49 2.976 3.225 0 7.19-.497 9.418 2.23.498 1.238-1.734 1.238-2.725 1.238-10.162-1.734-17.844-.99-27.51-2.23-11.4-4.957-28.75-.745-41.144-5.7-4.46 0-11.397 1.24-14.868-1.238-11.648-2.73-25.53.744-36.436-4.463-20.323.744-37.173-7.685-57.995-7.685-.99-.99-.99-2.725-3.222-2.972-5.947-1.984-13.628 1.734-17.347-3.225 1.484-2.726 5.453-1.484 8.425-3.716 25.033-5.453 48.083-16.356 73.61-21.065 7.19-3.47 16.11-4.46 24.042-7.684 2.726-.246 5.454-.742 7.932.25 4.956-1.488 10.41-3.223 15.86-3.223 11.648-.247 22.06-5.702 34.203-4.71 3.72-2.23 9.415-.495 13.384-1.734 7.682-.742 15.613-2.726 22.8-4.708 1.49-.744 2.233-1.24 2.48-1.734 2.23-.992 2.48-.992 4.213-.744 0 .25 1.986-.493 1.986.002zm-93.687 20.076c-12.395 5.45-26.766 5.45-39.653 9.17-15.12 4.21-29.244 12.64-46.348 15.86 0 4.214 1.734 5.7 4.71 5.948 6.937 2.478 13.384 5.206 21.31 6.197 14.626 1.98 31.727.743 45.605 4.212 3.72 0 9.168 0 14.13 1.486 2.477-2.972 2.724-5.95 4.954-7.434 0-2.976.745-5.207.995-7.438.494-3.715.494-7.188 1.238-9.912 1.236-4.71 1.98-6.444 2.478-10.41 6.692-11.647-4.954-7.433-9.417-7.68zM1000.5 1168.648c6.942 1.24 12.638 2.48 20.076 1.486 12.887 5.453 27.756-2.23 39.9 6.692 6.693 1.487 15.12 1.734 21.315 4.958 10.41 3.47 21.314 4.956 30.236 12.144 3.72 4.956 6.446 9.417 9.172 14.622-.498 4.958-.248 10.656-4.71 12.888-9.42 3.72-19.33 5.453-28.5 10.162-19.83.496-38.17 7.684-56.76 4.46-8.92 1.984-17.594-.245-26.516 1.24-15.366-.992-29.494-7.188-44.366-9.916-3.22-2.725-15.86-4.956-5.697-8.92 6.69-1.24 10.902 3.72 16.85 5.205 3.47.742 6.693 4.708 10.66 4.708 15.118 2.726 28.252 5.452 44.608 3.47 14.13 3.47 29.494 0 43.62-2.975 13.384-.99 25.528-4.71 37.92-8.178 5.948-2.727 3.718-7.685 6.445-14.128-3.222-2.23-2.23-6.94-4.46-8.923-3.97-4.46-11.9-6.69-16.855-9.665-8.18-1.24-16.357 0-22.304-4.71-6.694-1.238-14.375.495-19.58-4.71-22.308-3.718-44.86-1.98-65.677-7.187-12.147-1.24-22.307-1.734-32.222-7.93.497-1.488 2.975-.745 3.965-1.24 15.368-.988 27.762 7.685 42.88 6.445zM932.59 1116.604c2.232.99 2.232 4.212 3.47 5.948-1.98 7.93 5.207 3.47 2.975 12.888 1.734 2.727 4.212 1.982 8.428 2.974 0-1.734.494-1.488.494-1.24 13.878-.248 39.903 4.462 53.782 0 6.443.744 13.88-1.983 21.812 1.24 1.237-9.17 2.478-5.452 1.73-11.65.994-1.733.994-4.21 3.227-4.46-.25.496-.25.744 0 .99.245 2.48 0-.99.99.25 1.73 7.436-.745 4.957-.498 14.87 24.534 0 49.072-4.215 71.132.248 7.928 0 14.622-3.472 22.303-3.222 4.71 2.478 10.41-2.48 15.617.743.246.99.99 1.983-.25 2.48-12.392 1.485-25.28 1.98-36.93 4.212-11.152-4.46-24.04-.25-35.934-1.488-6.94 2.976-19.582-2.478-26.025 2.48-2.23.247-4.46-.99-6.444-1.24-7.68-1.485-16.355-.99-24.534-1.24-11.4 4.71-36.928 1.49-49.57 1.49-8.177 1.486-16.11-.745-23.296-2.975-1.98-2.976-2.725-7.188-2.972-11.4-.497-6.693-.744-1.24-1.738-6.693-.247.495-.99-.992-.74-1.24.494-.99-1.49-3.47-.747-4.213 1.486.493 1.983-.993 3.718.247zM1130.865 1002.846c-2.48 5.452-8.43 5.948-12.642 8.922-5.7 2.976-11.897 5.95-18.34 6.692-1.735.99-4.214 1.24-6.198 1.486-16.604 2.975-32.713 9.667-50.062 10.16-11.895 2.48-25.032 1.24-37.92.993-10.656 0-24.287-2.975-34.943-7.685-5.206-1.238-10.906-3.222-14.622-6.443-5.457-1.487-9.67-5.453-14.375-8.427-.994-1.734-2.23-3.47-2.23-5.205 0-.248-.248-.495-.248-.495 4.957 1.24 9.663 4.956 14.622 7.932 3.966 2.23 6.194 5.205 10.41 6.195 7.184 1.487 12.887 6.443 20.322 5.948 13.63 3.47 28.5 3.222 44.86 2.23-2.48-5.7 1.73-7.93-.25-11.4.25-1.486.495-2.48.99-3.47.743-.745 1.24-1.487 2.23-.745l1.24 1.24c-.497 1.488.497 2.48 1.237 3.22-.74 3.225 0 6.447-.493 10.412 12.144 1.24 20.322-2.23 30.237-2.727 4.214-1.982 10.657-2.48 15.86-3.965 4.71-1.486 10.41-1.486 14.873-4.213 3.715.493 7.932-.745 10.902-4.463 6.447.248 11.4-4.462 18.835-5.95v-1.238c1.24-.495 3.72-3.222 6.694-2.23-.246 1.24-.497 2.232-.99 3.224zM992.566 907.43c9.916.247 19.334 1.734 29.247 2.727 9.915.99 20.572.495 30.235.99.993 0 1.736 1.24 2.728 1.24 6.94.496 13.632 1.238 20.32.743 18.84 1.734 36.683 1.487 55.024 3.966 1.734 1.238 0 2.23.744 3.965-2.73 1.24-3.47 1.487-6.695 1.735-11.397-2.23-20.072 7.437-31.226 5.7-8.428 2.48-17.598 1.983-26.27 4.463-8.18 6.94-21.317 1.486-38.167 6.69 12.39 5.205 18.09 4.956 23.293 5.948 8.922 1.983 16.854 1.983 25.775 3.47 8.182 1.238 17.35 3.965 25.035 3.965 3.47.745 6.69 1.488 10.656 1.737.744.99 2.48.742 3.715.99 4.464-.743 9.67-.99 14.13-1.24.497.25.744.497.99.743-2.48 3.47-8.178 1.49-11.4 3.224-12.887 5.203-28.006 6.69-43.37 7.932-13.136.99-26.27 1.98-38.417 3.964-11.154 1.24-22.55 5.205-33.954 5.205-1.49.992-4.46.745-5.948.992-20.572 4.958-43.372 3.966-65.432 4.958-2.972-.992-13.878 4.21-10.656-1.984 1.734-.246 2.975-1.733 4.71-2.478 23.793-2.725 47.83 1.486 71.87-3.966 11.4.744 21.317-3.964 31.723-5.7 2.234-.248 4.463.496 6.694 0 16.855-2.725 36.93-4.958 54.28-7.93l10.41-1.735c-8.927-2.23-26.52-4.46-33.46-6.938-16.607 0-30.486-5.7-46.842-7.436-7.685-.742-14.375-2.23-20.075-2.726-.25-.497-2.73.99-3.222 0 2.973-2.728 7.19-.497 9.914-3.224 4.212-.743 8.675-1.238 13.385-1.982 6.937-1.237 14.124-2.725 21.065-3.47 4.462-.494 9.168 0 13.137-.494 5.45-.744 7.435-2.23 12.638-2.976 3.966-.493 5.7-.248 9.665-.742 1.24-.248 1.734-.992 2.976-.992 7.93-1.238 16.855-.992 24.29-3.966l9.665-3.717c-9.913-1.487-30.982-.744-40.398-1.736-19.084-2.228-40.894-1.733-59.978-2.724-1.242-.744-3.223-.497-4.957-2.48-19.578-.99-35.688-6.94-55.27-4.955-5.947-1.983-11.65.99-17.347-.496-3.472-.99-6.94 0-10.163-1.982-.497-.497-1.734-.744-2.23-1.24 12.887-5.7 28.005-.494 41.39 0 9.17.25 17.595 1.984 25.773 3.968zM1129.623 870.5c.744.248 1.242.496 1.734.993-2.227 5.698-8.922 2.48-14.125 3.964-4.46.744-8.674 0-13.134.247-12.144.25-24.288-.247-35.938 0-6.196 0-14.375.497-20.818-.247-4.213-.495-9.42 0-13.63.247-10.16.992-19.83 0-30.486.746-.497-.497-.99-.497-1.488-.497-4.46 2.23-9.42.248-13.63.992-10.16.495-19.83 1.485-29.742 1.485-6.938-2.974-14.125 1.487-21.313-.247-.994-.248 1.484-2.973 2.23-2.973 10.904-7.437 23.545 2.973 35.69-.497 14.374-3.966 30.483-2.48 44.608-3.22 14.13-.746 27.51.493 41.89 0 3.962-.498 7.928-.498 12.143-.498.99 0 2.23.25 3.22.25 10.905-.25 21.812-.25 31.478-1.737 7.436 1.985 13.632.745 21.313.99zM1135.077 808.046c3.222 1.24 5.453-.495 7.93 0-.742 1.734-1.983 3.222-1.983 5.205-.99 2.728-4.46 3.223-6.44 5.205-1.983.495-2.23 3.22-4.462 4.71-5.203 3.222-9.916 6.69-15.12 10.41-10.16 2.478-19.33 9.416-31.228 10.655-9.17 4.214-21.066 3.966-31.23 4.214-6.192 4.957-16.108.496-23.543 3.223-3.718.493-5.95-.992-8.92-.992-10.164 2.727-19.333-1.24-28.75-2.727-6.69-2.976-13.88-3.718-20.323-7.187-1.984-1.486-4.956-.99-6.94-1.734-7.93-5.203-17.1-8.427-24.29-14.127-3.468-.745-4.46-4.957-7.93-5.703-1.237-1.734-3.72-3.22-2.228-6.938-2.232-1.735-4.217-5.207 0-4.462.99-.745 1.483-.248.243.742 8.18 9.914 21.566 19.085 34.7 26.024 4.956 0 9.913 2.727 12.888 5.204 10.164 2.726 19.58 6.444 29.992 6.444 3.715 0 7.43.743 10.656-.247 6.443.742 12.39 2.478 19.082.742 6.443-.495 12.887-1.237 19.084-2.48 19.828-3.965 41.39-4.955 57.748-15.86 5.946-3.967 10.158-7.436 15.365-13.383-.744-1.24 3.223-.992 2.48-2.727-15.367.744-34.452 1.237-48.33 2.23-6.196 2.727-13.384-.495-20.075.497-5.947.742-12.144-.743-18.34-.498-2.977 0-5.7-.494-8.426.498-4.463-.743-10.162.495-13.88-1.982-1.735-1.487 2.23-1.24 2.727-2.23 3.966-1.488 7.93-1.983 12.39-.248 3.473.494 6.94-1.735 10.164-1.735 9.168 0 17.1 2.477 23.297 1.734 0-.745 2.972 0 5.45 0 1.737-.497 3.472-.497 4.462-.248 5.453 0 8.922-.992 13.88-.25 8.924-2.228 20.073 0 27.26-1.98 2.233-.496 1.985-.248 4.218-.496 3.713 0 5.448-1.24 8.423.496zM935.316 649.182c4.71 0 9.42.744 14.375 1.734 11.4 2.48 27.514.744 38.17 6.69 20.322 1.24 41.14 7.934 60.97 13.385 13.877 7.19 29.49 9.667 43.62 15.864 3.964 2.725 6.938 5.948 9.414 9.417 2.234 2.48 5.453.497 6.94 4.214.497.992-1.487-.247-1.487-.742-15.612 3.222-29.987 12.888-48.08 14.373-17.35-.495-33.458 5.95-50.805 5.205-7.438 1.983-15.12.497-22.553 1.487-12.148 3.222-21.814-.99-34.205.99-3.472-.99-7.188 2.728-12.39-.494-4.463 3.222-8.43-1.24-12.642.99-2.975-.246-6.447.25-8.675-.99 1.734-4.71 8.178-.496 12.39-2.23 16.36-1.982 31.23.99 47.836-2.48 17.597-1.732 37.175-1.485 56.26-3.716 3.222-2.478 8.425-1.488 12.144-3.717 18.094 1.983 31.973-5.205 50.807-9.914-2.478-6.442-6.938-7.186-10.906-8.922-15.613-6.692-31.97-12.144-48.823-16.852-12.64-3.472-25.775-3.966-37.918-9.667-10.66-2.974-22.555-2.725-32.47-7.435-12.144-.992-25.032-.992-34.944-7.188-.744-.495.247-.744.247-1.24.74-1.24 1.732.994 2.723 1.24zM1130.865 605.562c-2.48 5.453-8.43 5.95-12.642 8.922-5.7 2.975-11.897 5.95-18.34 6.694-1.735.99-4.214 1.237-6.198 1.486-16.604 2.975-32.713 9.666-50.062 10.163-11.895 2.477-25.032 1.238-37.92.99-10.656 0-24.287-2.973-34.943-7.682-5.206-1.24-10.906-3.222-14.622-6.444-5.457-1.486-9.67-5.452-14.375-8.425-.994-1.736-2.23-3.47-2.23-5.205 0-.25-.248-.497-.248-.497 4.957 1.24 9.663 4.958 14.622 7.93 3.966 2.232 6.194 5.206 10.41 6.198 7.184 1.49 12.887 6.445 20.322 5.95 13.63 3.47 28.5 3.22 44.86 2.23-2.48-5.7 1.73-7.932-.25-11.4.25-1.487.495-2.478.99-3.47.743-.744 1.24-1.486 2.23-.744l1.24 1.24c-.497 1.487.497 2.477 1.237 3.22-.74 3.223 0 6.444-.493 10.41 12.144 1.24 20.322-2.23 30.237-2.727 4.214-1.984 10.657-2.48 15.86-3.965 4.71-1.49 10.41-1.49 14.873-4.214 3.715.497 7.932-.743 10.902-4.46 6.447.248 11.4-4.46 18.835-5.948v-1.24c1.24-.494 3.72-3.22 6.694-2.23-.246 1.237-.497 2.23-.99 3.22zM1105.833 550.295c-8.922 6.444-20.325 5.453-28.503 12.392-3.223.992-6.69 2.727-9.42 4.46-7.68-.246-15.61 4.71-26.02 9.42 6.69 2.727 11.645 1.98 15.118.99 14.62 0 27.51-2.477 42.875-.248 4.216 0 9.42-1.24 13.138.496 7.186.247 15.613-1.736 21.81 1.736l.495.494c-5.203 1.488-11.895.992-17.1.744-4.46-1.238-9.17.495-14.126.495-9.666.25-19.83-3.222-28.504.992-7.932.992-15.366-2.725-23.05 0-6.94 2.23-13.88-1.24-20.323 1.983-11.897-1.983-27.262.25-40.15-1.983-14.622 0-29.49.992-43.87-1.487-7.927-.247-11.15-1.734-18.583-3.222-.25 0 1.237-1.734 1.237-2.23 7.93-4.71 10.656-6.196 19.084-9.418 11.648-4.708 24.04-3.717 35.69-6.94 16.355.248 32.468 2.48 44.362 18.093 21.81-13.136 45.105-14.622 66.176-26.024 9.415-2.976 18.09-7.684 27.51-10.657 1.483 0 3.965-.992 5.7-.497-7.686 4.46-15.614 7.933-23.545 10.41zm-139.536 16.358c-3.222.99-7.188-.25-10.16 1.736-3.968-.498-7.684 1.73-10.906 2.972l-5.946 4.212c2.228.25 10.903.992 13.38 1.488 3.223 3.222 8.923 1.734 12.89 2.727 18.34-2.48 38.91.494 60.97-.497-3.223-3.967-6.445-4.958-8.18-6.692-3.472-3.47-13.134-7.187-19.582-9.914-11.15 1.49-23.046-.99-32.465 3.967zM1116.982 488.087c-.74 5.205.25 9.666 1.984 13.88-.246 1.24-1.24 2.48-1.984 2.727-3.22 4.708 2.976 13.136-5.203 15.614-2.726.742-5.7-.497-7.932 1.486-8.675 3.222-11.4.744-19.825 1.49-7.438.493-16.36-3.224-23.547 0-3.963 0-7.188-1.49-10.656-1.985-9.42 3.468-20.076-1.735-29.988.743-7.188.496-12.89-2.478-20.075.744-1.488.248-2.73.248-3.966.742-14.624 0-29.74-1.487-44.115.247-7.188 0-14.128-.248-20.572-3.717-1.24-.993.25-2.48 1.487-2.974 1.734 0 4.212-.497 6.94 1.734 5.204-2.23 9.914.247 14.376-.744 3.715.99 7.928 1.24 11.894.25 8.428-4.958 17.35.74 26.025.494 8.425-.25 16.854-3.47 25.528-2.48 8.92 1.24 19.332 1.984 28.5.992 2.976-.99 6.444.497 9.172-.495 2.726.495 6.444.25 8.922 1.983 3.47-.495 7.68-1.24 11.15-2.23 1.983.99 4.96.743 6.693 1.24 9.415.742 11.4 1.98 20.072-.992 5.703 1.983 3.472-3.966 8.43-5.205 3.22-1.24 1.485-2.727 1.485-4.46-.743-3.967 3.223-6.94 1.488-10.41-1.24-3.223-.247-7.437-2.725-10.905-.248-.99-.248-2.23.99-2.23 3.225-.744 3.718 2.477 5.452 4.46zM1055.768 420.676c15.615-1.983 29.493 5.7 43.87 8.922 5.945 3.222 12.886 3.72 19.827 8.18 2.228-.744 2.478.99 3.22 1.982 0 .247-.25-1.24-.25-1.24-8.423 4.958-18.336 10.41-28.75 13.385-5.448 2.478-12.143 3.222-17.593 4.957-6.693 1.98-13.137 4.213-19.578 5.947-13.385 1.238-22.06 3.47-34.947 4.708-9.666-1.735-21.066-.743-29.74-4.46-5.454 1.982-12.145-.497-17.35-1.735-6.445 1.238-11.648-4.71-17.845-5.454-6.69-2.973-15.12-2.478-19.83-8.18.25-.248-2.724-1.98-.99-3.966.497-.495.744-.99 1.24-1.485 4.214-2.977 7.19-7.19 12.392-9.42 11.4-6.442 24.288-12.64 38.663-12.144 7.685 1.487 15.12-4.957 22.8-.99 14.128 0 30.982-1.736 44.86.99zm-112.52 20.075c-.992 2.728-3.223 6.94 1.733 6.94 17.35 6.444 34.702 9.913 52.545 12.64 17.347 2.48 33.703 3.966 50.56-.743 21.562-6.195 44.363-10.16 68.65-21.562-14.125-2.727-22.06-6.94-30.732-8.427-19.084-1.24-36.43-6.94-55.766-6.444-31.224.496-62.7 3.965-86.99 17.597zM1105.833 366.648c-8.922 6.442-20.325 5.45-28.503 12.39-3.223.993-6.69 2.728-9.42 4.462-7.68-.247-15.61 4.71-26.02 9.42 6.69 2.726 11.645 1.98 15.118.99 14.62 0 27.51-2.48 42.875-.25 4.216 0 9.42-1.238 13.138.498 7.186.248 15.613-1.736 21.81 1.734l.495.495c-5.203 1.487-11.895.992-17.1.745-4.46-1.24-9.17.496-14.126.496-9.666.246-19.83-3.223-28.504.99-7.932.992-15.366-2.727-23.05 0-6.94 2.23-13.88-1.24-20.323 1.982-11.897-1.982-27.262.247-40.15-1.982-14.622 0-29.49.992-43.87-1.486-7.927-.248-11.15-1.735-18.583-3.224-.25 0 1.237-1.734 1.237-2.23 7.93-4.708 10.656-6.195 19.084-9.416 11.648-4.71 24.04-3.72 35.69-6.94 16.355.246 32.468 2.478 44.362 18.092 21.81-13.136 45.105-14.622 66.176-26.023 9.415-2.973 18.09-7.682 27.51-10.655 1.483 0 3.965-.992 5.7-.497-7.686 4.46-15.614 7.932-23.545 10.41zm-139.536 16.357c-3.222.992-7.188-.248-10.16 1.736-3.968-.496-7.684 1.735-10.906 2.974l-5.946 4.215c2.228.245 10.903.99 13.38 1.484 3.223 3.222 8.923 1.734 12.89 2.726 18.34-2.48 38.91.496 60.97-.494-3.223-3.966-6.445-4.958-8.18-6.693-3.472-3.47-13.134-7.187-19.582-9.913-11.15 1.486-23.046-.99-32.465 3.965zM960.844 319.556c3.72.497 6.197 4.214 10.41 4.214 7.93 3.965 15.365 5.95 25.03 6.444 1.488.743 3.966.99 5.7 1.487 5.458.496 10.41 2.975 15.617 2.975 3.223.992 7.682-.744 10.658 3.222 3.965-.99 6.94-1.982 9.418-3.222.99-1.983 3.72-4.46 3.47-7.188 1.733-2.726.25-4.956 1.487-8.427 1.487-4.71 1.487-7.437 3.965-12.393 1.24-.99 2.48-1.98 3.967-1.734.99 2.48 0 5.452 0 8.427-3.223 6.444-2.726 9.914-4.957 18.34 1.98 1.24 1.24 2.23 1.98 2.728 6.197.99 12.89.247 18.095-.992 3.222.495 5.946-.744 10.903-.744.99-2.973 3.225-.743 4.71-1.487 8.92-.742 16.853-5.7 26.02-6.195 3.97-3.47 10.657-2.974 14.626-5.948 4.71.495 7.188-5.7 13.135-4.214 2.976-2.23 5.7-4.955 9.42-4.955.99.742 1.98 1.486 2.97 2.48-.492 3.716-4.705 3.965-7.434 5.945-4.213.497-8.178 1.488-11.153 4.215-5.45-.247-8.675 4.46-13.878 4.212-1.98 1.24-3.966 1.487-5.453 2.48-1.982-.248-3.717.496-5.204 1.24-11.4 0-20.322 7.434-31.726 6.69-1.484.992-4.212.992-5.7 1.24-12.144 4.213-26.27 3.47-38.662 3.22-5.7-1.487-12.638 0-17.598-2.478-15.366-2.727-30.234-8.922-44.86-12.886-6.938-2.726-13.38-6.94-19.825-10.41-7.188-3.966-15.616-6.69-20.82-13.88 0-.495 0-1.24.495-1.486 11.153 7.186 22.804 13.63 35.194 19.082zM1137.803 206.542c-19.58 8.676-36.432 20.075-53.533 31.478-1.486.743-1.98 2.727-5.205 2.727-7.93 7.93-17.844 8.673-25.03 15.86-6.445 3.224-13.634 6.94-21.067 12.64.99.744 2.725 1.487 3.47 1.982 5.206 2.478 10.41.496 15.118.745 14.87.493 28.503-1.984 41.638-2.23 12.64 0 24.288-2.977 35.44-1.735.247.493.247 1.237.247 2.23-.742 5.7-7.187 1.735-9.912 2.726-11.896 1.487-22.306 1.734-35.193 2.23-15.863.99-31.475.248-47.338 1.982-10.656.992-20.322 0-30.485 2.23-16.853-1.982-33.953 6.69-50.807 3.223-3.965 0-7.93 1.983-12.144.99-1.733-1.238-9.665.25-5.7-3.468 12.89-1.982 26.273 0 39.408-1.736 19.828-.743 40.894-1.98 55.516-14.62 2.48-.745 4.463-2.48 6.193-3.72 6.197-3.718 12.892-6.442 18.098-11.896 5.203-1.734 9.912-4.71 14.125-7.685 7.435-7.433 17.35-10.16 25.53-15.86 0-.99.742-.743 1.235-.99 2.232-.992 3.967-2.975 6.694-4.96 0-.99 7.187-2.478 6.937-3.22-.247-.743-8.425-.497-9.172-.992-11.397 2.48-25.525 3.47-38.66 4.71-14.128 1.24-23.547 3.965-36.93 4.212-4.707-.99-11.402 3.718-16.108-.247-5.206 0-8.182-.246-12.394 1.24-3.715 0-7.434-.496-11.894-.496-.995-.248-1.985.742-2.976.742-4.216 2.727-6.447-3.717-9.666-.742-1.488.495-2.975 1.734-4.463-.497-7.93 2.23-14.125.992-20.82-2.725-2.23.99-2.974-.247-3.965-.99v-.746c.744-1.734 2.23.745 2.23.495 0 0 1.49 1.24 2.976-.247.99-1.488 3.222 1.734 3.716.99 8.428 1.98 18.34 1.487 27.76.25 8.674 1.486 21.81-.994 29.987.74 1.733-.246 3.965-1.734 6.94-.74 2.725-2.48 6.444-.25 8.428-1.737 10.406-.742 21.56-2.48 32.216-2.48 10.163-.99 21.315-1.98 29.493-3.22 1.734.496 3.72-.992 5.454.25 4.213-.99 5.947-.99 9.173-1.488 6.44-1.24 14.618-2.23 20.32-3.47.992 0 2.233-.746 3.718-2.48-1.24-2.23 1.487-1.237 1.735-1.237 2.23-.99 5.95.99 9.666-.25.003.747.253 1.49.003 2.232zM1414.672 1474.892c.743.25 1.24.497 1.734.992-2.232 5.7-8.92 2.48-14.125 3.965-4.462.744-8.675 0-13.134.247-12.145.248-24.29-.248-35.938 0-6.196 0-14.375.497-20.82-.248-4.21-.497-9.417 0-13.63.247-10.162.992-19.828 0-30.484.744-.497-.495-.99-.495-1.488-.495-4.46 2.23-9.418.25-13.63.99-10.16.498-19.83 1.488-29.74 1.488-6.94-2.975-14.126 1.487-21.313-.248-.994-.247 1.483-2.974 2.227-2.974 10.907-7.436 23.545 2.975 35.69-.494 14.376-3.966 30.485-2.48 44.614-3.223 14.125-.743 27.506.496 41.885 0 3.962-.495 7.927-.495 12.14-.495.994 0 2.23.247 3.225.247 10.904-.247 21.81-.247 31.476-1.734 7.433 1.984 13.63.746 21.312.992zM1404.76 1389.637c.492 1.24 4.46 1.24 2.975 3.224-6.94 4.71-16.36-.498-23.795 3.47-25.035 7.683-51.55 1.982-77.078 5.45-14.87 1.984-28.75 1.984-43.373 4.957l-8.426-.246-.25.99 8.43 3.72c9.665 1.982 22.056 2.23 31.228 4.46 8.672 2.23 16.11 2.48 24.533 4.96 9.173 1.733 18.095.74 28.504.99.743.495 1.98.246 2.478.99-13.135 5.45-29.244 1.734-42.88 5.7-3.714 3.222-9.91 2.23-14.37 4.212-15.863 0-30.982 5.453-45.854 6.197-1.734 1.486-4.707 1.735-7.188 2.726 0 .99-6.69 2.48-6.445 2.974.252.743 7.937.497 8.183 1.734 24.535 3.72 46.842 0 69.395 2.727 13.88-5.202 28.254 2.976 41.64-1.485 15.86-5.204 33.705.742 47.833-4.71 4.21 0 8.673-2.228 12.39 0 4.465.25 11.9-4.214 15.368.496 0 .498.493.248.743.498-3.468 2.23-8.92.495-12.142.99-18.838 4.708-38.664 5.947-58.245 8.922-7.93 0-15.862 1.24-23.297-.99-9.665.248-19.58.99-29.74-.744-23.544-.743-45.107 3.964-67.163-2.48-8.18-2.478-16.11 0-23.3-1.733 0-1.487-5.45 1.24-4.21-.99 1.484-.744 2.478-3.224 5.203-3.718 11.152-6.195 25.775-4.463 38.166-8.922 15.118-2.727 32.22-4.46 47.834-8.18l8.178-1.982v-.992l-8.178-1.485c-10.162-1.734-19.828-3.222-29.987-4.46-12.395-5.7-27.018-5.206-39.41-10.657-.74-.744-1.982-1.24-2.973-1.736 1.98-2.974 7.932-.248 10.906-.495 10.41-5.453 22.057-1.24 33.457-4.214 26.025-2.726 45.354-1.238 70.88-3.468 5.948-1.736 15.12-1.736 21.812-2.727 11.896-1.736 24.537 2.973 33.46-4.46 1.73-1.243 3.22-.748 4.707.492zM1277.617 1230.274c9.912.248 19.33 1.735 29.244 2.727 9.913.993 20.573.498 30.238.993.99 0 1.734 1.24 2.726 1.24 6.94.494 13.63 1.238 20.32.742 18.84 1.734 36.683 1.488 55.023 3.966 1.734 1.238 0 2.232.744 3.965-2.728 1.24-3.468 1.488-6.69 1.736-11.402-2.228-20.074 7.437-31.23 5.7-8.427 2.48-17.595 1.983-26.27 4.464-8.178 6.938-21.312 1.485-38.166 6.69 12.39 5.204 18.09 4.958 23.297 5.948 8.923 1.982 16.855 1.982 25.772 3.47 8.182 1.238 17.352 3.965 25.035 3.965 3.47.743 6.69 1.487 10.656 1.736.744.99 2.48.74 3.716.99 4.462-.744 9.668-.99 14.127-1.24.498.25.744.496.994.745-2.48 3.47-8.18 1.485-11.4 3.222-12.89 5.203-28.01 6.692-43.374 7.93-13.135.99-26.27 1.982-38.416 3.967-11.15 1.24-22.553 5.205-33.953 5.205-1.488.99-4.46.742-5.947.99-20.572 4.957-43.372 3.966-65.432 4.957-2.973-.992-13.88 4.213-10.656-1.984 1.734-.247 2.975-1.734 4.71-2.478 23.794-2.727 47.83 1.487 71.872-3.965 11.4.742 21.315-3.967 31.725-5.703 2.23-.246 4.462.5 6.69 0 16.854-2.725 36.928-4.954 54.278-7.928l10.41-1.736c-8.923-2.23-26.52-4.46-33.46-6.938-16.607 0-30.484-5.7-46.842-7.437-7.684-.74-14.375-2.228-20.074-2.726-.25-.493-2.73.992-3.223 0 2.972-2.727 7.187-.493 9.91-3.22 4.214-.746 8.677-1.24 13.386-1.985 6.94-1.238 14.125-2.726 21.066-3.47 4.463-.495 9.168 0 13.135-.495 5.453-.745 7.438-2.23 12.64-2.975 3.966-.495 5.7-.25 9.667-.744 1.236-.247 1.734-.99 2.975-.99 7.927-1.24 16.853-.992 24.286-3.966l9.666-3.717c-9.912-1.488-30.98-.746-40.396-1.736-19.086-2.23-40.895-1.734-59.98-2.725-1.24-.744-3.22-.496-4.955-2.48-19.577-.99-35.687-6.94-55.27-4.957-5.946-1.982-11.645.992-17.35-.495-3.465-.99-6.937 0-10.16-1.983-.495-.495-1.733-.743-2.23-1.238 12.888-5.7 28.007-.498 41.392 0 9.168.247 17.597 1.983 25.775 3.964zM1405.502 1144.52c1.984.994 3.967 0 6.197.498 1.733 0 2.972.496 4.458 1.488.248 1.237-1.236 2.228-1.984 3.47-1.73 2.23-3.715-1.242-4.21-1.242-.495-.99-2.974 1.24-5.456-2.48-4.952 1.49-9.415 1.49-12.884.498-6.94.744-14.622-1.238-21.315 1.486-2.726.248-4.214 3.47-5.454 4.958-.247 0-1.238 2.974-3.47 3.966-3.222 2.975-7.93 7.683-9.42 8.922-1.24 1.238 0-1.488-2.23.992-1.237.99-.74 1.485-2.478 4.212-2.23 2.726-6.69 7.435-7.682 8.674-1.486 2.974-2.975 6.443-4.71 10.41 5.204 3.47 10.41 2.48 13.88 4.71 4.462.246 9.912 1.238 14.625 2.477 2.726-2.23 4.71.496 6.69.496 2.727 1.486 6.94 1.24 10.16 2.726 6.197.992 11.65 4.71 18.592 3.47 2.478.495 5.45 1.486 7.928 2.23-.247.495-.494.99-.99.99-4.213.745-7.932-1.486-11.648-1.237-.993-.744-1.734-.992-2.728-.744-1.98-.247-3.966-.743-5.7-.743-3.965-1.238-6.69.99-13.135-3.222 0 3.718.493 1.487.493 1.487-3.715-.992-8.922-2.478-13.88-2.23-2.97-1.983-6.688-1.24-9.664-1.983-6.94-.743-11.648-3.47-18.342-2.975 0 0-.246-.246-.494-.246-1.984-1.242-4.215-.498-5.453-1.737-15.118-4.214-30.483-8.427-45.603-12.64-3.47-1.734-6.443-2.48-10.158-3.965-4.962-1.736-9.667-4.708-14.874-6.692-5.203-1.983-10.162-5.205-16.11-6.94-1.486-.743-3.964.495-3.964-1.983 0-.742-.744-2.477-.248-2.725 1.734-2.727 6.69-2.727 9.17-3.966 5.95-.497 14.375-1.734 21.562-3.222 2.725-3.223 6.94-.744 10.162-1.983 12.145.497 24.785-5.7 38.662-3.966 17.598-2.724 37.176-4.21 53.783-2.724 12.638.99 25.278-.25 37.92 1.485zm-75.094 4.214c-3.225-1.237-8.178 1.736-13.14.745-5.948-.993-12.39.99-18.34 1.98-5.7-.99-10.16 2.48-15.858 1.983-3.72.496-9.916.496-14.873 1.487-8.178 1.487-15.61 3.717-25.03 4.46 3.716 4.215 10.41 7.19 11.4 7.436 5.206 1.735 9.418 4.71 14.124 6.196 7.192 2.48 13.386 4.958 20.08 6.94 4.706 1.238 10.903 2.726 15.118 3.47 4.707-.247 11.4 3.964 17.844 4.958 3.717.495 1.982 2.23 7.188.74 1.982-4.706 4.957-7.93 6.69-12.143 2.23-2.975 3.47-3.222 6.69-6.692 2.232-2.23 4.463-5.7 6.94-8.922 2.232-2.478 5.204-5.204 6.692-6.94 0-.494 2.97-3.717 2.97-5.7-3.468-.742-7.43-.742-9.66-.99-6.693-.99-11.896 0-18.834.99zM1252.832 1069.92c2.725 0 6.69-.247 9.666-.494 7.188-4.46 18.338 0 26.77.992 5.203-2.975 13.875-1.24 19.328-1.735 7.93-1.983 18.34.495 27.512.495 16.11 0 34.697-.495 50.807-1.237 2.48-.25 4.957-1.735 7.188-.745.248.25.494-.246.744-.246-5.7 3.718-12.64 3.964-18.34 6.442-8.18 7.188-17.602 10.905-26.273 16.358-10.408 4.707-21.064 8.178-30.484 15.363-2.975 1.49-5.7 3.224-8.675 4.71l-7.185 3.472 8.18.495c19.33 1.238 37.42-3.47 57.25-.745 7.93 0 15.365-3.222 23.05-1.734 1.98-.247 4.46 0 6.193 0-.247.498 0 1.488-.247 1.735-1.984 0-3.72.497-5.453 1.736-1.98.993-4.463.993-6.69 1.488-6.69.744-13.384-.248-20.075 1.237-18.094.497-35.688-1.732-53.285.25-8.178-1.487-16.36 2.726-24.29.495-5.204 1.24-11.894-1.487-15.863 1.486-11.894-1.24-23.544-3.222-35.935-3.222-2.725-.99-6.94 0-8.178-2.974-.25-.247 1.487-2.727 1.487-1.487 13.382-3.47 24.78 4.46 40.147 2.727 7.933-.99 16.11 0 24.538-2.48 2.48-3.468 6.197-3.22 8.922-5.45 4.957-.744 9.916-1.983 13.135-5.454 12.64-6.195 25.528-8.425 35.69-17.596 2.972-1.238 5.947-2.727 9.17-5.453 0-.742 7.187-3.966 7.187-4.71-.246-.493-7.68 1.24-7.68.25-9.667 0-18.592-1.736-26.273.99-13.88-3.47-28.255-3.718-43.126-.496-10.656-1.236-21.562-2.724-31.97-.742-8.675-3.718-18.34 3.967-26.27-2.972-.744-2.233-4.71-1.49-4.463-4.215 8.427-1.485 15.614 3.223 23.792 3.47zM1333.133 1002.51c9.666.744 19.578 2.974 29.988 4.214 12.642 1.488 25.776 2.974 37.673 8.922 6.197 6.195 13.88 9.418 18.838 17.596.74 4.46 3.964 3.72 2.476 9.172.247.742-.494 0-.494-.992-5.7.25-2.975-1.24-7.188-6.938-6.443 1.98-11.152-.992-15.862.99-19.825-1.24-36.93 0-56.26 1.982-4.71 2.23-10.656 2.23-16.11 1.486-3.468-1.24-7.187 1.24-11.398.497-12.89-.743-27.264-.743-39.904.99-9.416-.494-18.588 0-28.254.99-3.715-.742-7.93-1.98-13.134-.494-1.487 3.47-3.222 2.727-1.985 5.7-.492.497-.99 1.24-1.734 1.734-.742-.247-1.486 0-2.227-.744.99-7.188 5.695-11.153 10.158-16.604 8.676-7.932 19.828-11.648 29.248-19.33 6.193-3.967 12.637-4.462 19.328-7.19 8.428-1.238 17.847-.743 26.025-2.478 6.937 1.735 13.63 1.24 20.818.496zm-39.16 6.197c-9.665-.495-16.355 3.964-25.524 6.69-.498.495-2.73 2.725-3.97 3.47-6.94 4.957-15.116 7.187-22.554 17.1 8.926-.743 13.385 2.48 17.598.745 6.196.743 11.65-2.48 17.844-2.726 8.922 2.726 18.588.496 27.76 1.734 8.428.99 17.597-.99 26.27-1.487 15.366-5.948 33.21-1.734 49.073-3.47 7.683 0 16.605-1.24 28.75.248-4.712-9.913-13.136-11.647-18.837-14.87-14.62-3.965-29.243-6.443-44.362-7.93-2.975-.496-6.69.743-9.418-.99-13.63.743-29.99-3.966-42.63 1.487zM1415.912 955.917c-2.48 5.452-8.426 5.95-12.64 8.922-5.702 2.975-11.898 5.948-18.343 6.69-1.735.993-4.213 1.24-6.194 1.487-16.605 2.975-32.716 9.667-50.066 10.162-11.896 2.478-25.03 1.238-37.918.99-10.656 0-24.29-2.974-34.947-7.684-5.203-1.237-10.904-3.222-14.62-6.44-5.452-1.49-9.67-5.454-14.374-8.43-.99-1.734-2.23-3.47-2.23-5.204 0-.25-.25-.496-.25-.496 4.96 1.24 9.67 4.957 14.625 7.932 3.966 2.23 6.194 5.205 10.41 6.197 7.184 1.485 12.887 6.44 20.32 5.946 13.632 3.47 28.5 3.223 44.86 2.232-2.478-5.7 1.734-7.932-.246-11.4.245-1.487.493-2.48.99-3.472.743-.742 1.236-1.484 2.228-.742l1.24 1.24c-.497 1.486.494 2.478 1.237 3.22-.743 3.223 0 6.445-.493 10.41 12.144 1.24 20.322-2.23 30.234-2.727 4.215-1.98 10.66-2.477 15.863-3.964 4.708-1.488 10.407-1.488 14.87-4.213 3.72.494 7.928-.745 10.903-4.463 6.444.25 11.403-4.46 18.838-5.948v-1.237c1.238-.495 3.717-3.222 6.69-2.23-.244 1.24-.494 2.232-.988 3.222zM1402.03 897.18c-.74 5.206.25 9.667 1.985 13.88-.248 1.24-1.238 2.48-1.985 2.728-3.218 4.71 2.976 13.135-5.203 15.614-2.726.742-5.7-.497-7.93 1.486-8.677 3.222-11.4.743-19.827 1.487-7.438.495-16.36-3.222-23.547 0-3.965 0-7.188-1.487-10.656-1.983-9.418 3.47-20.074-1.735-29.988.744-7.19.495-12.888-2.48-20.075.744-1.488.246-2.73.246-3.97.742-14.622 0-29.737-1.486-44.112.248-7.188 0-14.13-.248-20.572-3.717-1.24-.992.248-2.48 1.49-2.974 1.736 0 4.21-.498 6.94 1.73 5.2-2.228 9.912.25 14.374-.74 3.716.99 7.93 1.238 11.897.248 8.425-4.958 17.347.742 26.022.493 8.426-.246 16.854-3.468 25.528-2.477 8.92 1.24 19.33 1.984 28.5.992 2.976-.992 6.444.495 9.17-.496 2.728.495 6.446.248 8.925 1.98 3.47-.493 7.68-1.237 11.15-2.23 1.984.993 4.955.745 6.693 1.24 9.418.743 11.4 1.982 20.074-.99 5.7 1.98 3.47-3.966 8.426-5.207 3.222-1.237 1.487-2.727 1.487-4.46-.743-3.965 3.222-6.94 1.487-10.408-1.24-3.223-.25-7.437-2.73-10.907-.245-.99-.245-2.23.995-2.23 3.226-.74 3.722 2.482 5.453 4.463zM1333.133 763.842c9.666.746 19.578 2.975 29.988 4.214 12.642 1.487 25.776 2.974 37.673 8.923 6.197 6.194 13.88 9.417 18.838 17.595.74 4.46 3.964 3.72 2.476 9.172.247.742-.494 0-.494-.993-5.7.25-2.975-1.24-7.188-6.938-6.443 1.98-11.152-.992-15.862.99-19.825-1.24-36.93 0-56.26 1.982-4.71 2.23-10.656 2.23-16.11 1.488-3.468-1.24-7.187 1.237-11.398.495-12.89-.74-27.264-.74-39.904.99-9.416-.494-18.588 0-28.254.992-3.715-.742-7.93-1.98-13.134-.496-1.487 3.47-3.222 2.728-1.985 5.7-.492.497-.99 1.24-1.734 1.736-.742-.248-1.486 0-2.227-.744.99-7.188 5.695-11.153 10.158-16.604 8.676-7.933 19.828-11.648 29.248-19.33 6.193-3.967 12.637-4.464 19.328-7.19 8.428-1.238 17.847-.743 26.025-2.478 6.937 1.737 13.63 1.242 20.818.496zm-39.16 6.197c-9.665-.496-16.355 3.965-25.524 6.69-.498.496-2.73 2.726-3.97 3.472-6.94 4.956-15.116 7.186-22.554 17.1 8.926-.743 13.385 2.48 17.598.744 6.196.743 11.65-2.48 17.844-2.73 8.922 2.73 18.588.5 27.76 1.737 8.428.992 17.597-.99 26.27-1.488 15.366-5.946 33.21-1.732 49.073-3.47 7.683 0 16.605-1.237 28.75.25-4.712-9.914-13.136-11.648-18.837-14.87-14.62-3.966-29.243-6.445-44.362-7.932-2.975-.495-6.69.744-9.418-.992-13.63.746-29.99-3.962-42.63 1.49zM1245.892 723.943c3.72.496 6.196 4.213 10.41 4.213 7.93 3.966 15.364 5.948 25.034 6.443 1.484.743 3.963.99 5.697 1.485 5.453.497 10.412 2.975 15.615 2.975 3.222.992 7.682-.744 10.656 3.222 3.965-.992 6.94-1.983 9.42-3.222.99-1.983 3.715-4.46 3.468-7.188 1.734-2.725.247-4.956 1.487-8.426 1.487-4.71 1.487-7.435 3.965-12.39 1.24-.995 2.478-1.986 3.966-1.737.99 2.477 0 5.45 0 8.426-3.222 6.444-2.724 9.913-4.956 18.34 1.982 1.24 1.238 2.23 1.982 2.726 6.196.992 12.887.25 18.09-.99 3.225.495 5.95-.745 10.906-.745.99-2.974 3.223-.742 4.71-1.488 8.922-.745 16.853-5.7 26.024-6.196 3.963-3.47 10.657-2.973 14.623-5.948 4.708.497 7.183-5.7 13.134-4.212 2.975-2.23 5.7-4.958 9.418-4.958.99.744 1.98 1.49 2.975 2.48-.496 3.716-4.71 3.963-7.438 5.946-4.213.497-8.18 1.487-11.153 4.214-5.45-.25-8.676 4.46-13.88 4.212-1.983 1.24-3.964 1.488-5.452 2.48-1.98-.25-3.715.495-5.203 1.237-11.4 0-20.322 7.436-31.725 6.694-1.484.99-4.213.99-5.7 1.237-12.144 4.214-26.27 3.47-38.663 3.222-5.7-1.487-12.64 0-17.598-2.48-15.365-2.726-30.234-8.92-44.855-12.887-6.94-2.727-13.384-6.94-19.827-10.41-7.188-3.965-15.617-6.69-20.822-13.88 0-.495 0-1.24.5-1.486 11.15 7.19 22.8 13.632 35.192 19.086zM1384.19 661.983c9.66 2.48 16.603 10.658 26.27 13.632 1.486 2.727 4.708 4.214 6.196 6.94-2.232.744-4.71-1.487-6.69-2.478-1.738-1.736-3.473-2.727-5.95-2.975-5.454-3.966-12.89-5.7-18.588-10.16-4.217-1.488-10.41-1.983-15.12-4.215-8.425-.495-16.853-.495-25.03.99-7.932 1.49-15.616 4.71-21.81 10.163-8.18 3.965-17.598 6.94-26.52 8.922-13.878 6.94-31.476 6.195-45.85.497-8.43 0-13.136-7.19-20.82-8.18-2.23-1.736-4.212-3.47-6.94-4.462-1.487-1.24-.744-3.222-1.98-4.958 0-.494-.99.248-.498.497 3.47.247 7.188 1.736 10.164 3.22 13.134 10.163 30.73 10.66 46.594 14.128 11.152-.495 20.322-5.7 30.98-8.178 6.692-4.214 15.118-5.7 21.81-9.914 4.957-.495 8.923-6.197 14.126-4.956 11.152-3.966 24.287-3.966 34.947 0 1.485.743 2.972 1.24 4.71 1.486zM1373.283 535.587c-.496-.25 2.23-.742 3.223-.495h1.98c1.488.495 3.473 1.24 4.957.99 3.47 1.49 6.94.746 9.915 2.232 5.946 2.727 13.878 5.205 20.322 10.658 3.966 4.213 9.17 5.947 13.134 9.664.744 2.23 1.734 3.224 1.24 5.207-3.965.247-5.95-5.453-9.664-6.94-2.726-2.477-6.69-3.223-8.922-6.444-.498-.248-1.488-1.24-1.982-1.487-.496-.248-.746-.744-.746-.744-.247 0-1.238-.496-1.238-.745-2.23-2.23-2.975-2.478-2.975-1.487-1.734-.496-2.972-1.734-4.71-1.486-.743-.248-1.487-.745-1.98-1.487-2.976.495-3.72-.99-5.206-1.24-2.725-1.486-6.937 0-9.912-.99-1.487.248-2.726-1.238-4.46-.99-5.95-1.737-8.428-.248-14.87.246-8.18 2.976-8.43 2.232-13.633 4.215-3.966 1.487-6.196 1.982-9.913 3.717-3.72 1.736-5.205 3.72-8.922 5.453-3.47 1.486-5.7.993-8.925 2.23-3.716 1.487-5.946 3.222-9.415 4.71-3.473 1.733-6.197 2.477-10.163 4.213-3.72 2.23-5.7 4.46-10.16 5.7-1.24 0-2.974.25-4.215.25-1.237-.25-2.726.246-3.47.246-.742.247-1.98-.247-2.727-.495-4.46 1.485-6.938-1.488-11.648-.993-4.462-1.237-8.922-1.734-14.127-3.47-4.957-2.725-11.4-3.964-16.854-7.68-5.7-2.977-11.396-7.438-15.613-12.89-.496-.743-2.48-2.728-.744-2.48 4.462 1.985 8.43 6.445 13.138 8.18 12.637 7.93 25.775 12.64 38.91 13.88 1.486.743 3.22 0 4.955.743 2.48 0 5.95.744 8.676.247 8.92.992 6.937-2.974 10.655-4.46 3.965-1.486 6.443-1.238 9.912-2.974 2.48-1.486 3.72-3.222 6.693-4.46 2.48-1.49 4.213-2.728 7.436-3.223 7.434-.744 7.684-2.23 11.4-5.453 1.734-.99 2.728-2.23 4.71-2.973 1.733-1.488 3.22-.744 5.452-1.488 2.975-.744 4.46-1.734 7.434-2.727 2.726-.99 5.7-2.23 7.188-2.23 5.203-2.23 8.18-.744 13.135-1.24 1.488-.003 2.975.987 2.728.987zM1276.873 489.987c4.213 2.973 6.443 5.45 11.153 6.44 3.47 2.232 5.203 4.958 8.672 6.942 5.95 3.468 7.19 3.468 12.144 2.228 5.207 1.24 10.41-.25 15.37 1.734 1.98.495 4.212-2.23 6.196 0 3.47-.99 5.45-.495 7.434-.744 3.963 1.736 7.932-.246 12.64.497 6.442-1.984 13.88-1.984 20.817-2.232 9.91 1.984 20.817.496 30.483 1.24 1.734-.744 4.463 1.486 1.984 2.48 1.982-3.967 20.82-1.487 21.312-1.24.497.247 1.487 1.487 2.728 2.23.247.496.247.743 0 1.24-5.206 2.23-12.144-.247-17.35.99-3.47-.744-8.922 0-12.89-.744-6.938.496-15.117-2.23-23.048-.247-15.617-2.727-35.936 0-51.55 0-.99-.497-2.48.495-3.47.246-1.984-.494-4.213 1.487-6.197-.494-8.922 1.486-18.834-.992-24.785.742-1.98.744-3.965.99-5.946 1.24-5.7-2.48-13.632.496-18.838-1.24-2.726.99-6.44 1.984-9.665 1.736-4.958.742-9.417.496-13.88 1.733-2.725-.742-6.443.744-8.922 0-4.46 1.24-9.666-.494-14.375 0-.247-.742-.497-1.237-.744-1.98 3.965-8.428 10.41-12.145 16.355-19.084 10.163-8.18 27.267-12.64 40.647-5.206 1.987-1.733 1.987 1.736 3.72 1.49zm-53.288 20.818c10.163 1.734 17.35.99 25.034-.992 9.665-2.726 22.8-1.734 32.962-2.48 1.982-1.238 6.444 0 7.686-4.46-4.217-.744-5.95-3.222-8.432-4.46-.244 0-.74-.248-.74-.248-6.444-3.47-12.642-6.693-19.83-7.685-13.877-3.47-27.76 6.196-36.68 20.325zM1428.8 457.77c-.744.247-2.73 1.734-4.463 2.23-4.706.248-11.4.743-16.11 1.486-2.725-.992-7.928.992-10.656.247-13.133 1.24-26.27 1.984-41.14 1.736-2.725 1.735-7.684.496-10.656.496-13.88-.497-26.52-3.966-38.666-2.233-8.672 0-18.588 3.224-27.756 0-6.443.992-15.863-.247-21.066.25-.25.247-.744.495-.99.742-12.89-1.24-27.263 1.487-39.656.495-.99-.248-2.232-1.982-.494-2.23 25.525-3.22 54.52-1.98 81.538-3.22 5.95-.25 14.872.246 21.312-.993.25.248.497.497.747.744 9.666 0 18.588 1.24 27.756 1.983.743-.495 2.478-.248 2.975 0 14.87.497 32.22-2.23 46.345-1.734 8.178-3.967 16.854 1.733 24.287-2.976.994-1.488 3.225-.742 4.463-1.98 2.973 1.98 2.723 3.963 2.23 4.956zM1415.912 406.96c-2.48 5.454-8.426 5.95-12.64 8.923-5.702 2.978-11.898 5.95-18.343 6.692-1.735.992-4.213 1.24-6.194 1.488-16.605 2.973-32.716 9.667-50.066 10.16-11.896 2.48-25.03 1.24-37.918.99-10.656 0-24.29-2.97-34.947-7.68-5.203-1.24-10.904-3.223-14.62-6.444-5.452-1.49-9.67-5.454-14.374-8.428-.99-1.734-2.23-3.47-2.23-5.206 0-.247-.25-.496-.25-.496 4.96 1.24 9.67 4.958 14.625 7.932 3.966 2.23 6.194 5.205 10.41 6.197 7.184 1.484 12.887 6.442 20.32 5.945 13.632 3.47 28.5 3.223 44.86 2.23-2.478-5.7 1.734-7.93-.246-11.4.245-1.486.493-2.48.99-3.47.743-.743 1.236-1.486 2.228-.743l1.24 1.24c-.497 1.486.494 2.478 1.237 3.22-.743 3.225 0 6.445-.493 10.412 12.144 1.237 20.322-2.23 30.234-2.727 4.215-1.982 10.66-2.48 15.863-3.967 4.708-1.488 10.407-1.488 14.87-4.213 3.72.494 7.928-.744 10.903-4.46 6.444.247 11.403-4.462 18.838-5.95v-1.238c1.238-.496 3.717-3.225 6.69-2.23-.244 1.24-.494 2.23-.988 3.22zM1420.125 343.02c3.22 1.24 5.453-.496 7.93 0-.742 1.735-1.983 3.224-1.983 5.204-.99 2.727-4.46 3.224-6.44 5.207-1.984.497-2.23 3.22-4.463 4.708-5.204 3.224-9.917 6.692-15.12 10.41-10.162 2.48-19.33 9.42-31.23 10.657-9.167 4.213-21.064 3.966-31.228 4.213-6.193 4.956-16.11.495-23.543 3.222-3.72.497-5.948-.99-8.923-.99-10.163 2.725-19.332-1.237-28.75-2.727-6.69-2.974-13.88-3.718-20.322-7.188-1.984-1.486-4.957-.99-6.94-1.736-7.93-5.204-17.1-8.426-24.288-14.126-3.47-.744-4.46-4.956-7.932-5.7-1.238-1.735-3.716-3.224-2.23-6.94-2.23-1.734-4.213-5.205 0-4.46.992-.745 1.486-.25.246.742 8.183 9.915 21.567 19.085 34.7 26.024 4.957 0 9.914 2.727 12.89 5.204 10.158 2.727 19.577 6.442 29.987 6.442 3.72 0 7.438.744 10.656-.247 6.443.743 12.393 2.478 19.088.743 6.44-.497 12.885-1.24 19.08-2.48 19.83-3.964 41.39-4.955 57.75-15.86 5.946-3.967 10.16-7.436 15.364-13.384-.743-1.24 3.223-.993 2.48-2.728-15.366.744-34.45 1.24-48.33 2.23-6.196 2.726-13.384-.496-20.075.496-5.95.742-12.144-.742-18.34-.495-2.976 0-5.7-.497-8.427.495-4.463-.742-10.162.495-13.88-1.982-1.735-1.486 2.23-1.238 2.728-2.23 3.966-1.487 7.933-1.982 12.392-.248 3.47.493 6.94-1.734 10.162-1.734 9.17 0 17.1 2.48 23.297 1.734 0-.744 2.977 0 5.454 0 1.734-.497 3.47-.497 4.46-.247 5.453 0 8.922-.99 13.878-.25 8.926-2.228 20.078 0 27.266-1.98 2.23-.497 1.982-.248 4.213-.497 3.715 0 5.452-1.236 8.425.498zM1245.892 300.642c3.72.495 6.196 4.213 10.41 4.213 7.93 3.966 15.364 5.948 25.034 6.443 1.484.744 3.963.99 5.697 1.486 5.453.497 10.412 2.977 15.615 2.977 3.222.99 7.682-.744 10.656 3.22 3.965-.99 6.94-1.98 9.42-3.22.99-1.982 3.715-4.462 3.468-7.188 1.734-2.725.247-4.956 1.487-8.425 1.487-4.71 1.487-7.437 3.965-12.393 1.24-.992 2.478-1.982 3.966-1.735.99 2.477 0 5.452 0 8.425-3.222 6.446-2.724 9.915-4.956 18.34 1.982 1.24 1.238 2.23 1.982 2.728 6.196.99 12.887.25 18.09-.99 3.225.494 5.95-.744 10.906-.744.99-2.976 3.223-.744 4.71-1.49 8.922-.74 16.853-5.698 26.024-6.193 3.963-3.472 10.657-2.975 14.623-5.948 4.708.494 7.183-5.703 13.134-4.215 2.975-2.23 5.7-4.957 9.418-4.957.99.742 1.98 1.488 2.975 2.48-.496 3.716-4.71 3.967-7.438 5.947-4.213.496-8.18 1.488-11.153 4.213-5.45-.247-8.676 4.463-13.88 4.214-1.983 1.24-3.964 1.486-5.452 2.48-1.98-.25-3.715.494-5.203 1.238-11.4 0-20.322 7.434-31.725 6.692-1.484.99-4.213.99-5.7 1.238-12.144 4.213-26.27 3.47-38.663 3.223-5.7-1.488-12.64 0-17.598-2.48-15.365-2.727-30.234-8.922-44.855-12.886-6.94-2.73-13.384-6.94-19.827-10.41-7.188-3.965-15.617-6.69-20.822-13.88 0-.494 0-1.24.5-1.485 11.15 7.183 22.8 13.625 35.192 19.08zM1402.03 227.777c-.74 5.206.25 9.665 1.985 13.88-.248 1.24-1.238 2.48-1.985 2.727-3.218 4.71 2.976 13.134-5.203 15.614-2.726.742-5.7-.496-7.93 1.487-8.677 3.22-11.4.742-19.827 1.485-7.438.497-16.36-3.222-23.547 0-3.965 0-7.188-1.485-10.656-1.982-9.418 3.47-20.074-1.732-29.988.745-7.19.494-12.888-2.478-20.075.742-1.488.25-2.73.25-3.97.742-14.622 0-29.737-1.484-44.112.25-7.188 0-14.13-.25-20.572-3.72-1.24-.99.248-2.477 1.49-2.97 1.736 0 4.21-.498 6.94 1.733 5.2-2.23 9.912.247 14.374-.744 3.716.99 7.93 1.24 11.897.247 8.425-4.956 17.347.744 26.022.497 8.426-.25 16.854-3.472 25.528-2.48 8.92 1.24 19.33 1.983 28.5.993 2.976-.994 6.444.493 9.17-.497 2.728.497 6.446.25 8.925 1.984 3.47-.497 7.68-1.24 11.15-2.23 1.984.99 4.955.743 6.693 1.236 9.418.744 11.4 1.984 20.074-.99 5.7 1.984 3.47-3.966 8.426-5.203 3.222-1.24 1.487-2.73 1.487-4.463-.743-3.964 3.222-6.94 1.487-10.41-1.24-3.22-.25-7.434-2.73-10.902-.245-.994-.245-2.23.995-2.23 3.226-.744 3.722 2.478 5.453 4.46zM1422.85 128.642c-19.578 8.676-36.432 20.077-53.53 31.476-1.49.745-1.983 2.73-5.208 2.73-7.928 7.93-17.844 8.674-25.03 15.86-6.444 3.223-13.632 6.94-21.067 12.64.99.742 2.73 1.486 3.47 1.98 5.206 2.48 10.41.496 15.118.747 14.872.493 28.5-1.985 41.64-2.233 12.64 0 24.286-2.972 35.44-1.732.246.493.246 1.237.246 2.23-.745 5.7-7.19 1.735-9.913 2.726-11.898 1.487-22.307 1.734-35.195 2.23-15.862.99-31.475.248-47.338 1.982-10.656.992-20.322 0-30.484 2.23-16.854-1.982-33.953 6.69-50.807 3.223-3.965 0-7.932 1.98-12.144.99-1.735-1.238-9.667.25-5.7-3.468 12.887-1.982 26.27 0 39.405-1.736 19.828-.742 40.895-1.982 55.516-14.623 2.48-.742 4.464-2.48 6.198-3.716 6.194-3.72 12.89-6.443 18.092-11.897 5.205-1.734 9.915-4.71 14.127-7.684 7.436-7.434 17.348-10.16 25.525-15.86 0-.992.748-.743 1.24-.992 2.232-.992 3.967-2.973 6.695-4.956 0-.992 7.184-2.48 6.938-3.224-.248-.742-8.426-.495-9.17-.99-11.4 2.48-25.527 3.47-38.662 4.71-14.13 1.238-23.547 3.965-36.932 4.212-4.706-.99-11.395 3.72-16.105-.247-5.206 0-8.18-.25-12.394 1.24-3.715 0-7.434-.497-11.894-.497-.994-.25-1.984.744-2.975.744-4.215 2.725-6.442-3.72-9.665-.744-1.487.497-2.975 1.734-4.463-.497-7.93 2.23-14.127.994-20.818-2.725-2.23.99-2.972-.248-3.965-.99v-.743c.74-1.734 2.23.743 2.23.495 0 0 1.487 1.24 2.974-.25.99-1.486 3.223 1.735 3.72.992 8.425 1.982 18.337 1.487 27.756.248 8.675 1.487 21.81-.99 29.987.742 1.738-.247 3.967-1.732 6.94-.742 2.726-2.478 6.444-.248 8.426-1.734 10.41-.743 21.563-2.48 32.22-2.48 10.162-.99 21.315-1.98 29.494-3.22 1.734.496 3.72-.992 5.453.25 4.212-.993 5.95-.993 9.168-1.488 6.443-1.24 14.622-2.23 20.326-3.473.99 0 2.23-.743 3.715-2.477-1.238-2.23 1.487-1.238 1.733-1.238 2.23-.99 5.95.99 9.666-.25 0 .742.25 1.487 0 2.23zM1384.19 83.538c9.66 2.48 16.603 10.656 26.27 13.632 1.486 2.727 4.708 4.213 6.196 6.94-2.232.744-4.71-1.487-6.69-2.48-1.738-1.734-3.473-2.727-5.95-2.974-5.454-3.966-12.89-5.7-18.588-10.162-4.217-1.486-10.41-1.983-15.12-4.213-8.425-.496-16.853-.496-25.03.99-7.932 1.49-15.616 4.71-21.81 10.164-8.18 3.966-17.598 6.94-26.52 8.922-13.878 6.94-31.476 6.195-45.85.497-8.43 0-13.136-7.188-20.82-8.18-2.23-1.736-4.212-3.47-6.94-4.46-1.487-1.242-.744-3.223-1.98-4.96 0-.494-.99.25-.498.496 3.47.247 7.188 1.736 10.164 3.22 13.134 10.164 30.73 10.66 46.594 14.13 11.152-.497 20.322-5.7 30.98-8.182 6.692-4.21 15.118-5.698 21.81-9.91 4.957-.498 8.923-6.198 14.126-4.96 11.152-3.965 24.287-3.965 34.947 0 1.485.747 2.972 1.244 4.71 1.49zM1397.074 56.03c0 1.24-1.734 1.983-2.725 2.23-3.72 2.478-8.923.248-12.89 2.23-1.24 0-2.23-.495-2.975-1.237 0-1.24.497-1.737.994-2.23 3.468-.993 6.937-6.693 11.15-2.48 3.222-.247 4.71.495 6.444 1.487z"/></g><path d="M2048 0M2048 1536M0 1536M0 0" fill="none" stroke="#17192D" stroke-width="3"/></g></svg>