<svg xmlns="http://www.w3.org/2000/svg" width="2048" height="1536" viewBox="0 0 2048 1536"><g><g fill="#FF0050"><path d="M652.825 1434.35c8.427-.495 13.63 7.93 22.553 7.683 3.966 2.23 8.428 1.24 11.65 4.46 2.726 1.49 8.18 1.24 11.647 1.24 7.683 1.984 13.88 6.445 22.058 7.436 4.958 3.222 10.905 4.957 17.348 1.982 0-1.734.745-1.24.745-.25 2.727-.74 7.188.993 11.897-1.733 7.683-1.488 16.356-1.488 23.297-4.213 5.948-2.48 12.887-1.736 18.587-4.215 2.725-.495 5.7-.743 7.683-2.23 7.436-.247 13.136-2.478 19.332-5.203 6.195-1.24 13.136-4.96 19.332-2.728-.742.495-.992 1.238-.742 1.982-3.224 4.46-11.65 1.982-16.854 5.205-9.42 3.964-19.332 4.46-28.75 8.425-15.863 1.24-42.382 8.676-42.382 8.676l.25 3.47s8.922.99 14.87.248c7.436 1.983 16.358 1.734 24.784.99 4.71 1.983 10.903-1.733 16.356.25 4.958 0 10.905-2.48 15.863-.993 5.452 1.487 14.62-2.974 18.34.248 0 0 5.7 1.736 1.486 2.48-5.452.743-12.142 2.478-18.092 1.98-12.888-1.237-27.51-1.98-39.653.248-3.966-.246-8.177-.494-11.896-1.733-4.71.25-9.915-.742-14.87.25-5.95-1.984-12.145.742-18.093-1.487-13.877-3.224-28.252 2.972-41.637-.992-7.93.992-15.365-1.487-23.297.495-6.94-.992-15.612-2.23-21.81-.248-8.675-.495-17.597-2.23-26.272-2.726-.494-.497-.99-1.488-1.238-1.983 0-.992-.497-1.734.744-1.982 2.23-.496 4.708 1.734 6.94.495 7.93 2.478 16.604 1.487 25.03 2.23 4.46-1.982 7.683 2.48 12.393 0 9.42 1.486 21.562-1.238 31.227 1.735 5.454-.744 13.136.248 23.3-1.983-11.65-5.7-21.068-4.71-28.007-9.17-8.427-2.48-16.606-6.94-25.527-7.932-14.624-4.956-28.255-9.666-42.135-16.604-.495 0-.248-.247-.248-.496 2.233-.743 4.216-2.48 6.692-1.982 4.46 4.706 11.648 5.203 17.1 8.672zM814.912 1372.39c-.742 5.204.25 9.665 1.983 13.88-.247 1.24-1.237 2.478-1.983 2.727-3.22 4.708 2.975 13.134-5.205 15.612-2.725.743-5.7-.496-7.93 1.486-8.675 3.222-11.402.744-19.827 1.487-7.436.496-16.358-3.222-23.545 0-3.965 0-7.19-1.487-10.658-1.982-9.417 3.472-20.075-1.733-29.988.745-7.19.495-12.89-2.48-20.076.742-1.488.248-2.727.248-3.967.745-14.622 0-29.74-1.487-44.114.247-7.188 0-14.128-.248-20.572-3.72-1.238-.99.25-2.478 1.49-2.974 1.736 0 4.212-.495 6.94 1.735 5.204-2.23 9.912.248 14.374-.742 3.717.99 7.93 1.24 11.897.247 8.426-4.957 17.348.743 26.023.496 8.426-.247 16.853-3.47 25.528-2.477 8.92 1.237 19.332 1.98 28.5.99 2.976-.99 6.445.495 9.17-.495 2.73.495 6.446.247 8.925 1.982 3.47-.496 7.68-1.24 11.15-2.23 1.984.99 4.958.743 6.693 1.238 9.42.744 11.4 1.983 20.075-.99 5.7 1.982 3.47-3.966 8.427-5.205 3.222-1.238 1.486-2.727 1.486-4.46-.744-3.966 3.223-6.94 1.487-10.41-1.24-3.222-.25-7.435-2.727-10.904-.247-.993-.247-2.232.992-2.232 3.225-.743 3.72 2.478 5.454 4.462zM818.382 1290.107c1.984.992 3.966 0 6.197.495 1.733 0 2.972.497 4.46 1.488.247 1.24-1.24 2.23-1.984 3.47-1.733 2.23-3.717-1.24-4.21-1.24-.498-.99-2.976 1.24-5.456-2.477-4.955 1.487-9.417 1.487-12.886.495-6.94.744-14.622-1.24-21.316 1.487-2.727.247-4.212 3.47-5.452 4.956-.25 0-1.24 2.977-3.47 3.967-3.222 2.974-7.93 7.683-9.417 8.922-1.242 1.238 0-1.488-2.232.99-1.24.992-.742 1.487-2.478 4.214-2.23 2.727-6.692 7.436-7.683 8.675-1.488 2.973-2.974 6.443-4.71 10.41 5.206 3.468 10.412 2.477 13.88 4.706 4.462.25 9.914 1.24 14.625 2.48 2.725-2.23 4.71.494 6.69.494 2.725 1.487 6.94 1.24 10.16 2.73 6.198.99 11.648 4.707 18.59 3.468 2.478.495 5.45 1.487 7.93 2.23-.25.496-.495.99-.992.99-4.212.745-7.93-1.486-11.647-1.238-.992-.743-1.734-.992-2.727-.743-1.983-.25-3.966-.744-5.7-.744-3.965-1.24-6.692.992-13.136-3.222 0 3.718.496 1.488.496 1.488-3.717-.992-8.922-2.48-13.878-2.23-2.973-1.983-6.692-1.24-9.667-1.983-6.938-.744-11.646-3.47-18.338-2.974 0 0-.25-.246-.495-.246-1.983-1.24-4.214-.497-5.454-1.735-15.12-4.216-30.484-8.428-45.604-12.64-3.47-1.735-6.443-2.48-10.16-3.968-4.958-1.734-9.666-4.708-14.872-6.69-5.205-1.983-10.16-5.205-16.11-6.94-1.487-.743-3.965.496-3.965-1.982 0-.743-.742-2.478-.247-2.727 1.734-2.725 6.692-2.725 9.17-3.966 5.948-.493 14.374-1.734 21.562-3.222 2.727-3.222 6.94-.743 10.163-1.982 12.145.495 24.785-5.7 38.664-3.966 17.597-2.725 37.177-4.213 53.78-2.725 12.64.99 25.28-.25 37.918 1.485zm-75.094 4.214c-3.224-1.237-8.178 1.735-13.138.745-5.948-.992-12.39.99-18.34 1.982-5.7-.992-10.162 2.48-15.86 1.983-3.72.495-9.914.495-14.872 1.485-8.178 1.488-15.613 3.72-25.03 4.463 3.716 4.213 10.408 7.186 11.4 7.435 5.206 1.734 9.418 4.71 14.125 6.195 7.19 2.48 13.385 4.956 20.075 6.94 4.71 1.24 10.907 2.726 15.12 3.47 4.71-.248 11.4 3.965 17.845 4.957 3.717.495 1.98 2.23 7.188.742 1.982-4.708 4.957-7.93 6.69-12.144 2.232-2.974 3.47-3.222 6.692-6.69 2.23-2.23 4.462-5.702 6.94-8.924 2.23-2.48 5.205-5.204 6.692-6.94 0-.496 2.972-3.718 2.972-5.7-3.47-.744-7.433-.744-9.664-.99-6.692-.99-11.896 0-18.834.99zM803.76 1232.113c-8.922 6.443-20.323 5.453-28.5 12.393-3.223.992-6.693 2.727-9.42 4.46-7.68-.248-15.614 4.71-26.024 9.418 6.692 2.73 11.65 1.982 15.12.992 14.62 0 27.51-2.48 42.876-.248 4.214 0 9.417-1.238 13.134.496 7.188.247 15.614-1.734 21.812 1.734.247.25.247.25.495.496-5.205 1.487-11.896.992-17.102.743-4.458-1.24-9.168.495-14.124.495-9.666.25-19.828-3.222-28.503.992-7.93.99-15.364-2.727-23.048 0-6.94 2.23-13.88-1.238-20.324 1.983-11.895-1.983-27.26.247-40.15-1.983-14.62 0-29.49.99-43.868-1.487-7.928-.247-11.15-1.735-18.586-3.222-.25 0 1.24-1.734 1.24-2.23 7.93-4.71 10.657-6.196 19.084-9.418 11.647-4.71 24.04-3.717 35.688-6.94 16.358.25 32.468 2.48 44.365 18.094 21.81-13.135 45.106-14.623 66.172-26.022 9.417-2.974 18.094-7.685 27.51-10.658 1.488 0 3.965-.99 5.7-.495-7.683 4.46-15.613 7.93-23.545 10.408zm-139.535 16.357c-3.222.992-7.186-.247-10.16 1.736-3.967-.496-7.684 1.735-10.906 2.975l-5.95 4.214c2.23.248 10.905.99 13.385 1.487 3.222 3.223 8.92 1.735 12.888 2.728 18.34-2.48 38.91.495 60.967-.495-3.222-3.966-6.442-4.958-8.178-6.692-3.47-3.47-13.134-7.187-19.578-9.913-11.155 1.486-23.05-.993-32.47 3.963zM828.792 1178.33c-2.478 5.455-8.425 5.95-12.64 8.924-5.7 2.973-11.897 5.948-18.34 6.69-1.734.992-4.214 1.24-6.195 1.49-16.606 2.97-32.716 9.663-50.064 10.158-11.897 2.48-25.033 1.24-37.92.992-10.657 0-24.29-2.974-34.946-7.683-5.203-1.238-10.905-3.222-14.622-6.443-5.452-1.487-9.666-5.453-14.374-8.427-.99-1.735-2.23-3.47-2.23-5.204 0-.247-.25-.496-.25-.496 4.96 1.24 9.668 4.957 14.625 7.93 3.966 2.23 6.195 5.205 10.408 6.197 7.188 1.486 12.89 6.444 20.324 5.947 13.63 3.47 28.5 3.224 44.86 2.23-2.48-5.7 1.733-7.93-.248-11.4.246-1.486.493-2.478.99-3.47.744-.743 1.237-1.485 2.228-.743l1.24 1.24c-.495 1.487.496 2.48 1.238 3.223-.742 3.22 0 6.444-.494 10.41 12.144 1.237 20.322-2.23 30.236-2.727 4.214-1.983 10.658-2.48 15.86-3.966 4.71-1.487 10.41-1.487 14.873-4.214 3.72.496 7.93-.742 10.906-4.46 6.444.247 11.402-4.463 18.836-5.948v-1.24c1.24-.496 3.716-3.223 6.69-2.23-.246 1.24-.495 2.233-.99 3.223zM698.428 1021.697c6.94 1.24 12.64 2.48 20.075 1.487 12.888 5.453 27.756-2.23 39.902 6.69 6.692 1.488 15.117 1.736 21.314 4.96 10.408 3.47 21.31 4.955 30.235 12.143 3.717 4.958 6.444 9.42 9.17 14.623-.496 4.957-.248 10.656-4.708 12.888-9.417 3.718-19.332 5.452-28.502 10.16-19.827.496-38.167 7.684-56.755 4.462-8.922 1.983-17.597-.248-26.52 1.24-15.365-.99-29.493-7.188-44.363-9.913-3.22-2.728-15.86-4.958-5.7-8.924 6.692-1.24 10.907 3.72 16.854 5.204 3.47.744 6.693 4.71 10.66 4.71 15.118 2.727 28.252 5.453 44.61 3.47 14.127 3.47 29.493 0 43.62-2.975 13.385-.99 25.527-4.71 37.92-8.178 5.95-2.727 3.718-7.684 6.445-14.127-3.222-2.23-2.23-6.94-4.46-8.922-3.967-4.463-11.898-6.692-16.855-9.667-8.18-1.24-16.358 0-22.305-4.708-6.694-1.24-14.377.495-19.58-4.71-22.305-3.717-44.86-1.982-65.677-7.188-12.144-1.24-22.306-1.735-32.22-7.93.495-1.487 2.975-.743 3.965-1.24 15.364-.99 27.757 7.685 42.875 6.445zM665.712 947.1c2.725 0 6.692-.25 9.666-.497 7.188-4.462 18.34 0 26.77.99 5.202-2.975 13.876-1.238 19.33-1.735 7.93-1.98 18.338.497 27.508.497 16.11 0 34.7-.497 50.81-1.24 2.477-.247 4.954-1.734 7.187-.742.247.246.495-.247.744-.247-5.7 3.717-12.64 3.964-18.34 6.442-8.18 7.188-17.6 10.904-26.273 16.357-10.41 4.708-21.066 8.18-30.483 15.366-2.974 1.488-5.7 3.225-8.674 4.71l-7.186 3.47 8.178.496c19.332 1.237 37.422-3.47 57.25-.744 7.93 0 15.366-3.222 23.05-1.734 1.98-.248 4.46 0 6.195 0-.25.496 0 1.488-.25 1.734-1.982 0-3.716.496-5.45 1.734-1.984.992-4.463.992-6.693 1.488-6.69.743-13.385-.25-20.075 1.238-18.093.497-35.688-1.734-53.285.25-8.178-1.488-16.358 2.726-24.29.496-5.204 1.237-11.895-1.49-15.862 1.484-11.896-1.24-23.544-3.22-35.936-3.22-2.725-.99-6.94 0-8.178-2.976-.25-.247 1.487-2.726 1.487-1.486 13.382-3.47 24.784 4.46 40.15 2.725 7.93-.99 16.11 0 24.536-2.478 2.48-3.47 6.197-3.222 8.922-5.453 4.958-.744 9.916-1.98 13.136-5.452 12.64-6.195 25.527-8.426 35.69-17.597 2.972-1.24 5.946-2.727 9.17-5.453 0-.742 7.187-3.966 7.187-4.708-.248-.497-7.682 1.24-7.682.247-9.666 0-18.59-1.733-26.272.993-13.878-3.47-28.253-3.72-43.124-.497-10.658-1.24-21.562-2.725-31.97-.742-8.675-3.717-18.34 3.966-26.272-2.974-.744-2.23-4.71-1.487-4.46-4.214 8.427-1.485 15.614 3.224 23.792 3.473zM746.013 879.686c9.667.745 19.58 2.975 29.988 4.214 12.642 1.487 25.778 2.974 37.673 8.922 6.197 6.195 13.88 9.42 18.838 17.598.743 4.46 3.965 3.717 2.478 9.17.247.744-.495 0-.495-.992-5.7.248-2.975-1.24-7.188-6.94-6.443 1.984-11.153-.99-15.86.992-19.828-1.24-36.93 0-56.262 1.984-4.708 2.23-10.657 2.23-16.11 1.485-3.47-1.24-7.188 1.238-11.4.496-12.888-.743-27.263-.743-39.902.99-9.418-.495-18.587 0-28.254.99-3.716-.743-7.93-1.98-13.135-.494-1.486 3.47-3.22 2.727-1.982 5.7-.495.496-.992 1.238-1.734 1.735-.744-.248-1.487 0-2.23-.743.992-7.188 5.698-11.153 10.162-16.605 8.673-7.932 19.827-11.65 29.246-19.334 6.195-3.966 12.637-4.46 19.33-7.186 8.427-1.24 17.846-.745 26.025-2.48 6.936 1.735 13.63 1.24 20.816.496zm-39.16 6.196c-9.665-.495-16.355 3.966-25.524 6.692-.498.495-2.73 2.726-3.968 3.47-6.94 4.957-15.12 7.187-22.553 17.102 8.922-.746 13.382 2.478 17.596.743 6.195.743 11.648-2.48 17.844-2.728 8.922 2.727 18.588.495 27.76 1.734 8.427.992 17.595-.99 26.27-1.487 15.367-5.948 33.21-1.735 49.073-3.47 7.68 0 16.604-1.24 28.75.248-4.71-9.914-13.138-11.65-18.836-14.87-14.624-3.968-29.246-6.445-44.364-7.932-2.975-.497-6.69.744-9.417-.992-13.634.746-29.992-3.963-42.632 1.488zM652.825 759.733c8.427-.496 13.63 7.93 22.553 7.683 3.966 2.23 8.428 1.24 11.65 4.46 2.726 1.486 8.18 1.24 11.647 1.24 7.683 1.982 13.88 6.443 22.058 7.434 4.958 3.224 10.905 4.958 17.348 1.984 0-1.735.745-1.24.745-.248 2.727-.744 7.188.99 11.897-1.736 7.683-1.485 16.356-1.485 23.297-4.212 5.948-2.48 12.887-1.734 18.587-4.214 2.725-.496 5.7-.742 7.683-2.23 7.436-.248 13.136-2.478 19.332-5.204 6.195-1.24 13.136-4.956 19.332-2.725-.742.494-.992 1.24-.742 1.98-3.224 4.462-11.65 1.984-16.854 5.206-9.42 3.967-19.332 4.462-28.75 8.428-15.863 1.238-42.382 8.675-42.382 8.675l.25 3.47s8.922.99 14.87.25c7.436 1.98 16.358 1.73 24.784.99 4.71 1.98 10.903-1.736 16.356.246 4.958 0 10.905-2.48 15.863-.99 5.452 1.484 14.62-2.977 18.34.245 0 0 5.7 1.734 1.486 2.48-5.452.743-12.142 2.478-18.092 1.983-12.888-1.24-27.51-1.984-39.653.248-3.966-.248-8.177-.496-11.896-1.735-4.71.248-9.915-.743-14.87.248-5.95-1.983-12.145.743-18.093-1.488-13.877-3.22-28.252 2.977-41.637-.99-7.93.99-15.365-1.487-23.297.495-6.94-.99-15.612-2.23-21.81-.247-8.675-.495-17.597-2.23-26.272-2.727-.494-.494-.99-1.486-1.238-1.983 0-.99-.497-1.732.744-1.98 2.23-.497 4.708 1.735 6.94.496 7.93 2.48 16.604 1.484 25.03 2.23 4.46-1.983 7.683 2.48 12.393 0 9.42 1.487 21.562-1.24 31.227 1.734 5.454-.744 13.136.246 23.3-1.983-11.65-5.7-21.068-4.708-28.007-9.17-8.427-2.477-16.606-6.94-25.527-7.93-14.624-4.958-28.255-9.666-42.135-16.604-.495 0-.248-.25-.248-.497 2.233-.742 4.216-2.478 6.692-1.983 4.46 4.708 11.648 5.203 17.1 8.673zM835.234 659.606c6.197.744 10.41-.744 11.9 2.23 0 .248-.25.743-.25.99-9.17 5.206-21.067 2.975-31.724 5.948-18.836 2.727-38.167 4.214-55.516 8.675-3.964 5.452-8.428 12.887-5.7 20.074.247.247-.744 0-1.734 1.734 1.734 2.478-.994 3.47-.994 5.453-.99 4.71-.494 10.66-2.477 18.837 14.373 3.222 28.004 2.976 39.9 6.195 8.676 2.48 20.82-1.487 29.493 2.976 3.224 0 7.19-.497 9.42 2.23.495 1.24-1.737 1.24-2.728 1.24-10.163-1.736-17.844-.992-27.51-2.23-11.4-4.957-28.75-.745-41.142-5.703-4.46 0-11.4 1.24-14.87-1.24-11.65-2.724-25.53.745-36.433-4.46-20.324.744-37.177-7.683-57.994-7.683-.994-.99-.994-2.725-3.224-2.974-5.948-1.984-13.63 1.734-17.35-3.222 1.487-2.727 5.454-1.487 8.428-3.72 25.03-5.45 48.08-16.355 73.608-21.065 7.188-3.468 16.11-4.46 24.04-7.682 2.73-.248 5.454-.744 7.932.25 4.957-1.488 10.41-3.224 15.86-3.224 11.65-.247 22.06-5.7 34.203-4.71 3.717-2.23 9.42-.493 13.384-1.732 7.683-.745 15.613-2.727 22.8-4.71 1.488-.743 2.23-1.238 2.48-1.733 2.23-.993 2.477-.993 4.212-.745.003.248 1.984-.494 1.984 0zm-93.682 20.075c-12.393 5.452-26.768 5.452-39.655 9.17-15.12 4.213-29.244 12.64-46.346 15.862 0 4.213 1.735 5.7 4.71 5.95 6.94 2.477 13.383 5.204 21.313 6.194 14.624 1.983 31.724.744 45.605 4.214 3.715 0 9.168 0 14.125 1.486 2.478-2.973 2.727-5.947 4.956-7.436 0-2.972.743-5.205.99-7.435.497-3.717.497-7.186 1.24-9.914 1.24-4.707 1.983-6.44 2.478-10.407 6.694-11.65-4.955-7.434-9.416-7.682zM846.636 613.01c.25.248.25.992.497 1.734-.744 3.224 2.725 4.462.247 7.93 0 3.47.744 8.676-1.98 11.154-1.735.25-2.728 1.98-4.464 2.478-4.708.25-11.4.744-16.11 1.487-2.724-.992-7.93.99-10.655.247-13.137 1.24-29.99 1.983-44.86 1.736-2.724 1.734-7.682.496-10.655.496-13.88-.496-26.52-3.966-38.665-2.23-8.673 0-18.587 3.223-27.758 0-6.444.99-15.863-.248-21.066.248-.25 0-.497.495-.992.744-12.888-1.24-27.26 1.486-39.653.495-1.24-.496-2.48-2.48-.495-2.728 25.527-3.222 54.524-1.982 81.54-3.222 5.95-.25 15.118.25 21.56-.99.25.248.498.493.745.74 9.666 0 18.34 1.242 27.51 1.985.99-.497 1.98-.497 2.975 0 14.87.494 35.936-2.233 50.063-1.736 8.18-3.967 16.853 1.735 24.04-2.728 1.24-1.734 4.71 0 5.7-4.708-2.726-2.48-1.485-5.7-1.982-7.436-.99-3.965-1.24-10.16-1.486-13.383.495 0-.992-4.212 1.237-3.965 3.47 2.728 2.48 8.675 4.71 11.65zM610.69 551.298c0 7.683-.246 15.118 1.737 23.544 18.587 1.24 36.43 1.24 50.807-3.47 3.965-.743 7.93-1.238 11.153-2.478 15.612-4.46 27.26-1.24 42.628-6.69 9.666-.746 18.34-2.727 27.51-4.214 12.887-2.23 26.27-.744 38.168-3.47 7.68 0 16.853-.99 25.03-3.22 6.692.248 13.632-2.728 20.323-3.966.992.496 2.23 1.488 2.727 2.23-.992 7.435-11.897 3.223-16.605 5.453-16.853 3.222-33.21 4.956-48.825 5.45-9.42.25-19.332 2.728-28.998 3.967-9.666 1.24-16.853 1.983-26.52 1.983-2.726 1.487-6.443 1.983-9.914 1.24-3.22 2.974-6.443 1.238-8.92 2.974-8.18 1.24-16.854 3.47-25.776 4.71-7.932 0-16.605 4.708-23.792 3.47 0 0-1.24.496-1.488.743-7.188-.247-15.86.744-25.775-2.976-1.984 5.702-.498 11.402-.993 15.614-1.486 15.615 3.223 29.99.744 44.614 0 1.24 1.49 2.973.496 4.212-.99.99-1.98.25-2.973 0-2.727-3.717-1.983-9.666-1.983-13.878-1.734-1.984.25-5.95-.496-8.426 1.488-15.368-.99-30.485-.99-44.365 0-12.89-2.48-28.502-3.224-41.638-.99-2.23.992-3.718 2.23-4.71.248 0 0-.496.248-.247 2.483 7.436 3.473 15.366 3.473 23.545zM658.773 507.928c3.717.496 6.195 4.214 10.41 4.214 7.93 3.964 15.365 5.948 25.032 6.443 1.486.744 3.964.99 5.698 1.486 5.454.498 10.41 2.976 15.614 2.976 3.222.99 7.683-.744 10.658 3.222 3.964-.992 6.94-1.983 9.417-3.222.99-1.985 3.717-4.46 3.47-7.19 1.735-2.725.248-4.954 1.487-8.426 1.486-4.708 1.486-7.435 3.964-12.39 1.24-.993 2.48-1.984 3.966-1.735.992 2.478 0 5.453 0 8.425-3.222 6.445-2.725 9.914-4.956 18.34 1.982 1.24 1.24 2.232 1.982 2.728 6.196.992 12.888.25 18.09-.99 3.225.495 5.95-.746 10.908-.746.99-2.972 3.222-.742 4.708-1.485 8.924-.744 16.855-5.7 26.025-6.195 3.964-3.473 10.656-2.976 14.622-5.95 4.708.497 7.185-5.7 13.133-4.213 2.975-2.23 5.702-4.957 9.42-4.957.99.744 1.98 1.487 2.974 2.48-.497 3.716-4.71 3.964-7.438 5.947-4.214.495-8.18 1.487-11.154 4.214-5.45-.248-8.674 4.46-13.877 4.213-1.985 1.24-3.968 1.487-5.454 2.478-1.983-.248-3.717.497-5.205 1.24-11.4 0-20.32 7.436-31.725 6.69-1.484.993-4.21.993-5.698 1.24-12.146 4.212-26.27 3.47-38.663 3.222-5.7-1.487-12.64 0-17.6-2.478-15.363-2.728-30.235-8.923-44.856-12.89-6.94-2.726-13.384-6.94-19.828-10.408-7.188-3.966-15.614-6.692-20.82-13.88 0-.495 0-1.24.5-1.485 11.152 7.186 22.8 13.628 35.193 19.08zM811.195 378.31c3.222.99 6.692 2.478 9.172 3.47 7.682 4.46 15.86 7.93 23.297 12.886.494.496 1.486.993 2.478 1.24.742.248 1.484 1.238 2.477 1.983.248.493.248.99-.248 1.237-5.947 2.23-12.392-.744-18.34.743-3.966-.743-9.665 0-13.88-.743-7.683.496-16.356-2.23-25.032-.247-17.1-2.727-39.158 0-56.01 0-1.24-.25-2.728.497-3.967.247-1.983-.496-4.46 1.487-6.445-.496-9.664 1.49-20.57-.99-27.013.747-1.983.99-4.46.99-6.445 1.237-5.95-2.726-14.374.497-20.322-1.237-2.973.742-7.186 2.23-10.658 1.734-5.203 1.238-9.913.744-14.87 2.23-2.974-.992-6.94.743-9.667 0-4.957 1.24-10.16-.495-15.364 0-.25-.744-.498-1.24-.746-1.983 4.462-8.922 11.4-12.64 18.092-20.32 10.66-8.923 29.494-13.88 43.622-4.958 1.733-2.73 1.733.99 3.22.99 5.205 2.725 7.436 5.946 12.64 6.938 4.213 2.23 5.7 5.206 10.906 8.18 3.964-4.213 8.425-6.69 10.905-10.408 4.46-4.214 9.913-6.445 14.374-11.648 11.647-5.7 23.545-12.89 36.432-8.428 14.87 1.487 29.493 8.674 41.39 16.606zM627.05 398.63c10.902 2.48 19.08 1.984 27.757-.247 10.41-2.725 24.536-1.734 35.44-2.48 2.48-1.238 8.428 0 9.667-4.708-4.46-.742-7.683-4.46-10.16-5.698h-.248c-7.685-3.968-14.375-6.94-22.307-8.676-15.12-3.22-30.485 7.438-40.15 21.81zm119.458-28.996c-.25.992-.99.25-1.24.497-2.726 1.24-2.726-.496-3.965 1.487 0 .743-.99.99-.99.99-2.48 1.24-4.957 2.23-4.957 2.48-.497.247-1.734.247-2.727.992-2.234.493-4.215 2.725-5.95 4.46-4.462 1.486-7.93 8.177-10.41 13.63 8.178 1.734 14.622-.246 20.322 1.734 2.23.497 4.214-2.478 6.694 0 3.47-.99 5.698-.495 8.178-.743 4.214 1.736 8.425-.246 13.63.498 7.187-2.48 14.872-2.48 22.553-2.726 10.658 2.477 24.538.99 34.947 2.23 1.983-.992 4.956.99 9.666-1.238-2.975-2.48-3.222-2.73-3.222-2.976-.496-.247-1.488.495-1.984-.495 0-1.487-1.733-2.23-3.964-2.727-3.47-2.974-8.922-2.974-12.392-5.947-.744-1.738-.992-.25-1.736-.25-1.486-2.973-5.453-2.726-7.434-5.45-10.905-5.207-22.058-9.42-35.44-9.916-.745.25-.992-1.238-2.48-.247-5.45 0-10.904.498-17.1 3.717zM827.553 329.486c.744.247 1.24.495 1.734.99-2.23 5.7-8.92 2.48-14.126 3.966-4.46.744-8.674 0-13.134.247-12.144.247-24.29-.248-35.938 0-6.197 0-14.375.496-20.82-.248-4.212-.495-9.416 0-13.63.247-10.16.99-19.827 0-30.485.743-.495-.496-.99-.496-1.486-.496-4.46 2.23-9.42.25-13.63.992-10.162.495-19.83 1.487-29.744 1.487-6.938-2.976-14.125 1.487-21.312-.25-.99-.247 1.487-2.973 2.23-2.973 10.905-7.436 23.544 2.973 35.69-.496 14.374-3.966 30.484-2.48 44.612-3.223 14.125-.743 27.508.496 41.885 0 3.962-.495 7.93-.495 12.143-.495.992 0 2.23.25 3.223.25 10.903-.25 21.808-.25 31.476-1.737 7.433 1.983 13.63.746 21.313.993zM814.912 272.236c-.742 5.206.25 9.665 1.983 13.88-.247 1.238-1.237 2.48-1.983 2.726-3.22 4.71 2.975 13.135-5.205 15.613-2.725.743-5.7-.494-7.93 1.49-8.675 3.22-11.402.74-19.827 1.484-7.436.496-16.358-3.223-23.545 0-3.965 0-7.19-1.486-10.658-1.983-9.417 3.47-20.075-1.733-29.988.745-7.19.494-12.89-2.48-20.076.742-1.488.248-2.727.248-3.967.742-14.622 0-29.74-1.484-44.114.25-7.188 0-14.128-.25-20.572-3.72-1.238-.99.25-2.478 1.49-2.973 1.736 0 4.212-.495 6.94 1.734 5.204-2.23 9.912.25 14.374-.742 3.717.99 7.93 1.237 11.897.247 8.426-4.956 17.348.744 26.023.495 8.426-.248 16.853-3.47 25.528-2.48 8.92 1.24 19.332 1.985 28.5.993 2.976-.992 6.445.495 9.17-.495 2.73.495 6.446.248 8.925 1.982 3.47-.495 7.68-1.24 11.15-2.23 1.984.99 4.958.743 6.693 1.238 9.42.744 11.4 1.984 20.075-.99 5.7 1.982 3.47-3.966 8.427-5.203 3.222-1.24 1.486-2.73 1.486-4.463-.744-3.967 3.223-6.94 1.487-10.41-1.24-3.222-.25-7.435-2.727-10.905-.247-.99-.247-2.23.992-2.23 3.225-.742 3.72 2.48 5.454 4.46zM746.013 206.063c9.667.744 19.58 2.975 29.988 4.214 12.642 1.487 25.778 2.974 37.673 8.924 6.197 6.194 13.88 9.417 18.838 17.597.743 4.46 3.965 3.717 2.478 9.17.247.744-.495 0-.495-.992-5.7.25-2.975-1.24-7.188-6.94-6.443 1.982-11.153-.99-15.86.992-19.828-1.24-36.93 0-56.262 1.984-4.708 2.23-10.657 2.23-16.11 1.487-3.47-1.24-7.188 1.238-11.4.495-12.888-.742-27.263-.742-39.902.992-9.418-.495-18.587 0-28.254.99-3.716-.742-7.93-1.982-13.135-.495-1.486 3.468-3.22 2.728-1.982 5.7-.495.496-.992 1.238-1.734 1.734-.744-.248-1.487 0-2.23-.745.992-7.187 5.698-11.154 10.162-16.605 8.673-7.93 19.827-11.65 29.246-19.33 6.195-3.967 12.637-4.464 19.33-7.19 8.427-1.24 17.846-.744 26.025-2.478 6.936 1.735 13.63 1.24 20.816.496zm-39.16 6.197c-9.665-.496-16.355 3.965-25.524 6.692-.498.495-2.73 2.725-3.968 3.47-6.94 4.956-15.12 7.187-22.553 17.1 8.922-.743 13.382 2.48 17.596.744 6.195.744 11.648-2.48 17.844-2.728 8.922 2.728 18.588.496 27.76 1.735 8.427.992 17.595-.992 26.27-1.487 15.367-5.948 33.21-1.732 49.073-3.47 7.68 0 16.604-1.238 28.75.25-4.71-9.916-13.138-11.65-18.836-14.873-14.624-3.965-29.246-6.443-44.364-7.93-2.975-.495-6.69.742-9.417-.992-13.634.746-29.992-3.963-42.632 1.49zM658.773 166.163c3.717.497 6.195 4.214 10.41 4.214 7.93 3.965 15.365 5.95 25.032 6.442 1.486.744 3.964.99 5.698 1.486 5.454.497 10.41 2.976 15.614 2.976 3.222.99 7.683-.744 10.658 3.222 3.964-.992 6.94-1.982 9.417-3.222.99-1.984 3.717-4.463 3.47-7.19 1.735-2.724.248-4.953 1.487-8.426 1.486-4.71 1.486-7.435 3.964-12.39 1.24-.993 2.48-1.983 3.966-1.735.992 2.48 0 5.453 0 8.426-3.222 6.446-2.725 9.916-4.956 18.34 1.982 1.24 1.24 2.232 1.982 2.728 6.196.992 12.888.25 18.09-.99 3.225.495 5.95-.745 10.908-.745.99-2.973 3.222-.743 4.708-1.487 8.924-.743 16.855-5.7 26.025-6.195 3.964-3.472 10.656-2.975 14.622-5.95 4.708.497 7.185-5.7 13.133-4.212 2.975-2.23 5.702-4.957 9.42-4.957.99.743 1.98 1.487 2.974 2.478-.497 3.72-4.71 3.966-7.438 5.948-4.214.495-8.18 1.488-11.154 4.215-5.45-.248-8.674 4.46-13.877 4.213-1.985 1.24-3.968 1.487-5.454 2.48-1.983-.25-3.717.496-5.205 1.238-11.4 0-20.32 7.437-31.725 6.692-1.484.99-4.21.99-5.698 1.24-12.146 4.212-26.27 3.47-38.663 3.22-5.7-1.486-12.64 0-17.6-2.477-15.363-2.727-30.235-8.924-44.856-12.888-6.94-2.727-13.384-6.94-19.828-10.41-7.188-3.967-15.614-6.69-20.82-13.88 0-.494 0-1.238.5-1.485 11.152 7.184 22.8 13.627 35.193 19.08zM803.76 96.768c-8.922 6.444-20.323 5.453-28.5 12.393-3.223.993-6.693 2.728-9.42 4.464-7.68-.25-15.614 4.708-26.024 9.417 6.692 2.728 11.65 1.983 15.12.99 14.62 0 27.51-2.477 42.876-.245 4.214 0 9.417-1.24 13.134.495 7.188.248 15.614-1.736 21.812 1.735l.495.494c-5.205 1.486-11.896.99-17.102.743-4.458-1.238-9.168.495-14.124.495-9.666.248-19.828-3.22-28.503.992-7.93.992-15.364-2.726-23.048 0-6.94 2.23-13.88-1.24-20.324 1.982-11.895-1.982-27.26.247-40.15-1.982-14.62 0-29.49.992-43.868-1.487-7.928-.247-11.15-1.734-18.586-3.223-.25 0 1.24-1.734 1.24-2.23 7.93-4.708 10.657-6.194 19.084-9.416 11.647-4.71 24.04-3.72 35.688-6.94 16.358.246 32.468 2.478 44.365 18.094 21.81-13.138 45.106-14.624 66.172-26.025 9.417-2.974 18.094-7.683 27.51-10.656 1.488 0 3.965-.992 5.7-.497-7.683 4.462-15.613 7.93-23.545 10.408zm-139.535 16.358c-3.222.992-7.186-.25-10.16 1.736-3.967-.497-7.684 1.734-10.906 2.973l-5.95 4.215c2.23.246 10.905.99 13.385 1.487 3.222 3.22 8.92 1.734 12.888 2.725 18.34-2.478 38.91.495 60.967-.495-3.222-3.966-6.442-4.958-8.178-6.692-3.47-3.47-13.134-7.188-19.578-9.914-11.155 1.488-23.05-.992-32.47 3.966zM1126.302 1265.152c6.193.744 10.41-.744 11.896 2.23 0 .248-.25.743-.25.99-9.168 5.206-21.066 2.977-31.723 5.95-18.837 2.727-38.168 4.214-55.516 8.673-3.966 5.453-8.43 12.888-5.7 20.075.246.247-.744 0-1.734 1.734 1.734 2.48-.994 3.47-.994 5.453-.99 4.71-.494 10.656-2.48 18.835 14.376 3.222 28.007 2.975 39.905 6.196 8.674 2.48 20.818-1.487 29.49 2.976 3.225 0 7.19-.497 9.418 2.23.498 1.238-1.734 1.238-2.725 1.238-10.162-1.734-17.844-.99-27.51-2.23-11.4-4.957-28.75-.745-41.144-5.7-4.46 0-11.397 1.24-14.868-1.238-11.65-2.73-25.53.744-36.436-4.463-20.322.745-37.172-7.684-57.994-7.684-.99-.99-.99-2.725-3.222-2.972-5.947-1.984-13.628 1.734-17.347-3.225 1.483-2.727 5.452-1.485 8.424-3.717 25.032-5.453 48.082-16.356 73.61-21.065 7.188-3.47 16.11-4.46 24.04-7.684 2.726-.246 5.455-.742 7.932.25 4.956-1.488 10.41-3.223 15.86-3.223 11.648-.246 22.06-5.7 34.203-4.71 3.718-2.228 9.414-.494 13.383-1.733 7.68-.743 15.612-2.727 22.8-4.71 1.488-.743 2.232-1.238 2.48-1.733 2.23-.992 2.478-.992 4.212-.744.002.25 1.987-.493 1.987.002zm-93.686 20.076c-12.395 5.45-26.766 5.45-39.653 9.17-15.12 4.21-29.244 12.64-46.348 15.86 0 4.214 1.734 5.7 4.71 5.948 6.937 2.478 13.384 5.206 21.31 6.197 14.626 1.98 31.727.743 45.605 4.212 3.72 0 9.168 0 14.13 1.487 2.477-2.972 2.724-5.95 4.954-7.434 0-2.976.744-5.207.994-7.438.494-3.715.494-7.188 1.238-9.912 1.236-4.71 1.98-6.444 2.478-10.41 6.692-11.647-4.955-7.433-9.418-7.68zM989.494 1178.654c6.94 1.24 12.637 2.48 20.075 1.486 12.885 5.453 27.755-2.23 39.9 6.692 6.692 1.487 15.118 1.734 21.314 4.958 10.41 3.47 21.313 4.956 30.235 12.144 3.718 4.956 6.445 9.417 9.17 14.622-.497 4.958-.247 10.656-4.71 12.888-9.418 3.72-19.33 5.453-28.5 10.162-19.828.496-38.168 7.684-56.76 4.46-8.917 1.984-17.593-.245-26.515 1.24-15.366-.992-29.494-7.188-44.366-9.916-3.22-2.725-15.86-4.956-5.698-8.92 6.69-1.24 10.903 3.72 16.85 5.205 3.472.743 6.694 4.71 10.66 4.71 15.12 2.725 28.253 5.45 44.61 3.468 14.128 3.47 29.494 0 43.62-2.974 13.384-.99 25.528-4.71 37.92-8.18 5.948-2.726 3.718-7.684 6.445-14.127-3.222-2.23-2.23-6.94-4.46-8.923-3.97-4.46-11.9-6.69-16.855-9.665-8.18-1.24-16.357 0-22.304-4.71-6.694-1.237-14.375.496-19.58-4.71-22.308-3.717-44.86-1.98-65.677-7.186-12.146-1.24-22.306-1.735-32.22-7.932.496-1.487 2.974-.744 3.964-1.24 15.367-.987 27.76 7.686 42.88 6.446zM921.584 1126.61c2.23.99 2.23 4.21 3.47 5.947-1.982 7.93 5.206 3.47 2.974 12.888 1.734 2.727 4.212 1.982 8.428 2.974 0-1.735.494-1.49.494-1.24 13.878-.25 39.903 4.46 53.782 0 6.444.743 13.88-1.984 21.813 1.24 1.237-9.172 2.478-5.453 1.73-11.65.994-1.734.994-4.212 3.226-4.46-.25.495-.25.743 0 .99.247 2.48 0-.99.99.248 1.73 7.437-.743 4.958-.496 14.87 24.535 0 49.073-4.214 71.132.25 7.928 0 14.622-3.473 22.303-3.223 4.71 2.478 10.41-2.48 15.616.743.246.99.99 1.983-.25 2.48-12.392 1.485-25.28 1.98-36.93 4.212-11.152-4.46-24.04-.25-35.934-1.488-6.94 2.976-19.582-2.478-26.025 2.48-2.23.247-4.46-.99-6.445-1.24-7.68-1.485-16.356-.99-24.534-1.24-11.4 4.71-36.928 1.49-49.57 1.49-8.177 1.486-16.11-.745-23.296-2.975-1.98-2.976-2.725-7.188-2.972-11.4-.497-6.693-.744-1.24-1.738-6.693-.247.496-.99-.99-.74-1.238.494-.992-1.49-3.47-.747-4.214 1.488.493 1.985-.992 3.72.247zM1119.858 1012.852c-2.48 5.452-8.43 5.948-12.642 8.922-5.7 2.976-11.897 5.95-18.34 6.692-1.735.99-4.214 1.24-6.198 1.486-16.604 2.975-32.713 9.667-50.062 10.16-11.895 2.48-25.032 1.24-37.92.993-10.656 0-24.287-2.974-34.943-7.684-5.206-1.237-10.906-3.22-14.622-6.442-5.456-1.487-9.668-5.453-14.374-8.427-.994-1.733-2.23-3.468-2.23-5.204 0-.248-.248-.495-.248-.495 4.957 1.24 9.663 4.957 14.622 7.933 3.966 2.23 6.194 5.205 10.41 6.195 7.184 1.487 12.887 6.443 20.322 5.948 13.63 3.47 28.5 3.222 44.86 2.23-2.48-5.7 1.73-7.93-.25-11.4.25-1.486.495-2.48.99-3.47.743-.745 1.24-1.487 2.23-.745l1.24 1.242c-.497 1.487.497 2.478 1.237 3.22-.74 3.224 0 6.446-.494 10.41 12.144 1.24 20.323-2.23 30.238-2.726 4.213-1.982 10.656-2.48 15.86-3.965 4.71-1.485 10.41-1.485 14.872-4.212 3.715.493 7.932-.745 10.902-4.463 6.447.25 11.4-4.46 18.835-5.948v-1.24c1.24-.494 3.72-3.22 6.694-2.228-.245 1.24-.496 2.23-.99 3.222zM981.56 917.436c9.916.247 19.334 1.734 29.247 2.727 9.915.99 20.572.495 30.235.99.993 0 1.736 1.24 2.728 1.24 6.94.496 13.632 1.238 20.32.743 18.84 1.734 36.683 1.487 55.024 3.966 1.734 1.238 0 2.23.744 3.965-2.73 1.24-3.47 1.486-6.695 1.734-11.396-2.228-20.07 7.438-31.225 5.7-8.428 2.48-17.598 1.984-26.27 4.464-8.18 6.94-21.317 1.486-38.168 6.69 12.39 5.205 18.09 4.956 23.293 5.948 8.922 1.983 16.854 1.983 25.775 3.47 8.182 1.238 17.35 3.965 25.035 3.965 3.47.744 6.69 1.487 10.656 1.736.743.99 2.478.742 3.714.99 4.463-.743 9.67-.99 14.13-1.24.496.25.743.497.99.743-2.48 3.47-8.18 1.49-11.4 3.224-12.888 5.203-28.007 6.69-43.372 7.932-13.135.99-26.27 1.98-38.416 3.964-11.155 1.24-22.55 5.205-33.954 5.205-1.488.993-4.46.746-5.947.993-20.572 4.958-43.372 3.966-65.432 4.958-2.972-.99-13.878 4.212-10.656-1.983 1.734-.247 2.975-1.734 4.71-2.48 23.793-2.724 47.83 1.487 71.87-3.965 11.4.744 21.317-3.964 31.722-5.7 2.233-.248 4.462.496 6.694 0 16.854-2.725 36.93-4.958 54.278-7.93l10.41-1.735c-8.926-2.23-26.52-4.46-33.46-6.94-16.606 0-30.485-5.7-46.84-7.435-7.686-.742-14.376-2.23-20.076-2.726-.25-.497-2.73.99-3.222 0 2.972-2.728 7.188-.497 9.913-3.224 4.212-.743 8.675-1.238 13.385-1.982 6.937-1.237 14.125-2.725 21.066-3.47 4.462-.494 9.168 0 13.137-.494 5.45-.744 7.435-2.23 12.638-2.976 3.966-.493 5.7-.248 9.665-.742 1.24-.248 1.734-.992 2.976-.992 7.93-1.238 16.854-.992 24.288-3.966l9.666-3.717c-9.913-1.487-30.982-.744-40.398-1.736-19.084-2.23-40.894-1.734-59.978-2.725-1.24-.744-3.222-.497-4.956-2.48-19.578-.99-35.688-6.94-55.27-4.955-5.947-1.984-11.65.99-17.347-.497-3.473-.99-6.942 0-10.164-1.982-.497-.497-1.734-.744-2.23-1.24 12.887-5.7 28.005-.494 41.39 0 9.17.25 17.595 1.984 25.774 3.968zM1118.616 880.505c.744.25 1.242.497 1.734.994-2.227 5.697-8.922 2.478-14.125 3.963-4.46.744-8.674 0-13.134.247-12.143.25-24.287-.247-35.937 0-6.196 0-14.375.497-20.818-.247-4.213-.495-9.42 0-13.63.247-10.16.992-19.83 0-30.485.746-.497-.497-.99-.497-1.488-.497-4.46 2.23-9.42.247-13.63.99-10.16.496-19.83 1.486-29.742 1.486-6.938-2.974-14.125 1.487-21.313-.247-.994-.25 1.484-2.974 2.23-2.974 10.904-7.437 23.545 2.973 35.69-.497 14.374-3.967 30.483-2.48 44.608-3.222 14.128-.745 27.51.494 41.89 0 3.96-.497 7.927-.497 12.142-.497.99 0 2.23.25 3.22.25 10.905-.25 21.812-.25 31.478-1.736 7.434 1.985 13.63.745 21.31.99zM1124.07 818.052c3.222 1.24 5.453-.495 7.93 0-.742 1.734-1.983 3.222-1.983 5.205-.99 2.727-4.46 3.222-6.44 5.204-1.983.496-2.23 3.222-4.462 4.71-5.203 3.223-9.916 6.69-15.12 10.41-10.16 2.48-19.33 9.417-31.228 10.656-9.17 4.214-21.066 3.966-31.23 4.214-6.192 4.957-16.108.496-23.543 3.223-3.718.493-5.95-.992-8.92-.992-10.164 2.728-19.333-1.238-28.75-2.726-6.69-2.976-13.88-3.718-20.323-7.187-1.983-1.487-4.955-.992-6.94-1.735-7.928-5.203-17.1-8.427-24.288-14.127-3.47-.744-4.462-4.956-7.93-5.702-1.238-1.734-3.72-3.22-2.23-6.938-2.23-1.734-4.215-5.206 0-4.46.992-.746 1.485-.25.245.74 8.18 9.915 21.566 19.086 34.7 26.025 4.956 0 9.913 2.727 12.888 5.204 10.163 2.726 19.578 6.444 29.99 6.444 3.716 0 7.432.743 10.657-.247 6.443.743 12.39 2.48 19.082.743 6.443-.495 12.887-1.237 19.084-2.48 19.828-3.965 41.39-4.955 57.748-15.86 5.946-3.967 10.158-7.436 15.365-13.383-.743-1.24 3.224-.992 2.48-2.727-15.366.744-34.45 1.237-48.33 2.23-6.195 2.727-13.383-.495-20.074.497-5.947.742-12.144-.743-18.34-.498-2.977 0-5.7-.494-8.426.498-4.463-.743-10.163.495-13.88-1.982-1.735-1.487 2.23-1.24 2.727-2.23 3.965-1.488 7.93-1.983 12.39-.248 3.473.494 6.94-1.735 10.164-1.735 9.17 0 17.1 2.478 23.298 1.735 0-.745 2.972 0 5.45 0 1.737-.497 3.472-.497 4.462-.248 5.453 0 8.922-.992 13.88-.25 8.924-2.228 20.073 0 27.26-1.98 2.233-.496 1.985-.248 4.218-.496 3.712 0 5.447-1.24 8.422.496zM924.31 659.188c4.708 0 9.418.744 14.374 1.734 11.4 2.48 27.513.744 38.17 6.69 20.32 1.24 41.14 7.934 60.97 13.385 13.876 7.188 29.49 9.666 43.618 15.863 3.965 2.725 6.94 5.948 9.415 9.417 2.234 2.48 5.453.496 6.94 4.213.497.992-1.487-.247-1.487-.742-15.612 3.222-29.987 12.888-48.08 14.373-17.35-.494-33.458 5.95-50.805 5.206-7.438 1.983-15.12.497-22.553 1.487-12.147 3.222-21.813-.99-34.204.99-3.472-.99-7.188 2.728-12.39-.494-4.463 3.22-8.43-1.24-12.642.99-2.975-.247-6.447.248-8.675-.99 1.735-4.71 8.18-.497 12.392-2.23 16.36-1.983 31.23.99 47.835-2.48 17.597-1.733 37.175-1.486 56.26-3.717 3.22-2.478 8.424-1.488 12.143-3.717 18.094 1.983 31.973-5.205 50.807-9.914-2.478-6.442-6.938-7.186-10.906-8.922-15.61-6.692-31.968-12.144-48.82-16.852-12.642-3.472-25.776-3.966-37.92-9.667-10.66-2.973-22.553-2.724-32.468-7.434-12.144-.992-25.032-.992-34.944-7.188-.744-.495.247-.744.247-1.24.743-1.24 1.733.994 2.724 1.24zM1119.858 615.568c-2.48 5.453-8.43 5.95-12.642 8.922-5.7 2.975-11.897 5.95-18.34 6.694-1.735.99-4.214 1.237-6.198 1.486-16.604 2.975-32.713 9.666-50.062 10.163-11.895 2.477-25.032 1.238-37.92.99-10.656 0-24.287-2.973-34.943-7.682-5.206-1.238-10.906-3.22-14.622-6.443-5.456-1.487-9.668-5.453-14.374-8.426-.994-1.735-2.23-3.47-2.23-5.204 0-.25-.248-.497-.248-.497 4.957 1.238 9.663 4.957 14.622 7.93 3.966 2.23 6.194 5.205 10.41 6.197 7.184 1.488 12.887 6.444 20.322 5.95 13.63 3.468 28.5 3.22 44.86 2.23-2.48-5.7 1.73-7.933-.25-11.4.25-1.488.495-2.48.99-3.47.743-.745 1.24-1.487 2.23-.745l1.24 1.24c-.497 1.487.497 2.477 1.237 3.22-.74 3.223 0 6.444-.494 10.41 12.144 1.24 20.323-2.23 30.238-2.727 4.213-1.983 10.656-2.478 15.86-3.964 4.71-1.488 10.41-1.488 14.872-4.213 3.715.496 7.932-.744 10.902-4.462 6.447.25 11.4-4.46 18.835-5.947v-1.24c1.24-.494 3.72-3.22 6.694-2.23-.245 1.237-.496 2.23-.99 3.22zM1094.826 560.302c-8.922 6.444-20.325 5.453-28.503 12.392-3.223.992-6.69 2.727-9.42 4.46-7.68-.246-15.61 4.71-26.02 9.42 6.69 2.727 11.645 1.98 15.118.99 14.622 0 27.51-2.477 42.876-.248 4.216 0 9.42-1.24 13.138.497 7.185.247 15.612-1.736 21.81 1.736l.494.493c-5.203 1.488-11.895.992-17.1.744-4.46-1.238-9.17.495-14.126.495-9.665.25-19.83-3.222-28.503.992-7.933.992-15.367-2.725-23.052 0-6.938 2.23-13.88-1.24-20.323 1.983-11.896-1.983-27.262.25-40.15-1.983-14.62 0-29.49.992-43.868-1.487-7.928-.247-11.15-1.734-18.584-3.222-.25 0 1.237-1.734 1.237-2.23 7.93-4.71 10.656-6.196 19.084-9.418 11.647-4.708 24.038-3.717 35.688-6.94 16.356.248 32.47 2.48 44.363 18.093 21.81-13.136 45.106-14.622 66.176-26.024 9.416-2.975 18.09-7.683 27.51-10.656 1.484 0 3.966-.992 5.7-.497-7.684 4.46-15.613 7.932-23.544 10.41zM955.29 576.66c-3.22.99-7.187-.25-10.158 1.736-3.97-.497-7.685 1.732-10.907 2.973l-5.947 4.21c2.228.25 10.903.993 13.38 1.49 3.223 3.22 8.923 1.733 12.89 2.726 18.34-2.48 38.91.495 60.968-.496-3.222-3.967-6.444-4.958-8.178-6.692-3.472-3.47-13.134-7.188-19.582-9.915-11.15 1.49-23.047-.99-32.465 3.967zM1105.976 498.093c-.74 5.205.25 9.666 1.984 13.88-.246 1.24-1.24 2.48-1.984 2.727-3.22 4.708 2.976 13.136-5.203 15.614-2.725.742-5.7-.497-7.93 1.486-8.676 3.222-11.4.744-19.826 1.49-7.438.493-16.36-3.224-23.547 0-3.963 0-7.188-1.49-10.656-1.985-9.42 3.47-20.077-1.734-29.988.744-7.188.495-12.89-2.48-20.075.743-1.487.248-2.728.248-3.965.742-14.625 0-29.74-1.486-44.116.248-7.19 0-14.13-.248-20.573-3.717-1.24-.993.25-2.48 1.487-2.974 1.734 0 4.212-.497 6.94 1.734 5.204-2.23 9.914.247 14.376-.744 3.715.99 7.928 1.24 11.894.25 8.428-4.958 17.35.74 26.025.494 8.424-.25 16.853-3.47 25.527-2.48 8.92 1.24 19.332 1.984 28.5.992 2.976-.99 6.444.497 9.172-.495 2.725.495 6.443.25 8.92 1.983 3.47-.495 7.682-1.24 11.15-2.23 1.984.99 4.96.743 6.694 1.24 9.415.742 11.4 1.98 20.072-.992 5.703 1.983 3.472-3.966 8.43-5.205 3.22-1.24 1.485-2.728 1.485-4.462-.742-3.966 3.224-6.94 1.49-10.41-1.24-3.222-.248-7.436-2.726-10.904-.248-.99-.248-2.23.99-2.23 3.224-.744 3.717 2.478 5.452 4.46zM1044.76 430.682c15.616-1.983 29.494 5.7 43.87 8.922 5.946 3.222 12.887 3.72 19.828 8.18 2.228-.744 2.478.99 3.22 1.982 0 .247-.25-1.24-.25-1.24-8.423 4.958-18.336 10.41-28.75 13.385-5.448 2.48-12.143 3.223-17.593 4.958-6.693 1.98-13.137 4.213-19.578 5.947-13.385 1.24-22.06 3.47-34.947 4.71-9.666-1.736-21.066-.744-29.74-4.462-5.454 1.983-12.145-.496-17.35-1.734-6.445 1.237-11.648-4.71-17.845-5.455-6.69-2.972-15.12-2.477-19.83-8.18.25-.247-2.724-1.98-.99-3.965.497-.495.744-.99 1.24-1.485 4.214-2.976 7.19-7.188 12.392-9.42 11.4-6.44 24.288-12.64 38.663-12.143 7.685 1.487 15.12-4.957 22.8-.99 14.128 0 30.982-1.735 44.86.99zm-112.52 20.075c-.99 2.727-3.222 6.938 1.734 6.938 17.35 6.445 34.7 9.914 52.544 12.64 17.347 2.48 33.702 3.967 50.56-.742 21.562-6.195 44.363-10.16 68.65-21.562-14.125-2.726-22.06-6.938-30.732-8.426-19.084-1.24-36.43-6.94-55.766-6.444-31.224.497-62.7 3.965-86.99 17.597zM1094.826 376.655c-8.922 6.442-20.325 5.45-28.503 12.39-3.223.993-6.69 2.728-9.42 4.462-7.68-.247-15.61 4.71-26.02 9.42 6.69 2.726 11.645 1.98 15.118.99 14.622 0 27.51-2.48 42.876-.25 4.216 0 9.42-1.238 13.138.498 7.185.248 15.612-1.736 21.81 1.734l.494.494c-5.203 1.487-11.895.992-17.1.745-4.46-1.24-9.17.495-14.126.495-9.665.246-19.83-3.223-28.503.99-7.933.992-15.367-2.727-23.052 0-6.938 2.23-13.88-1.24-20.323 1.982-11.896-1.982-27.262.247-40.15-1.982-14.62 0-29.49.992-43.868-1.486-7.928-.25-11.15-1.736-18.584-3.225-.25 0 1.237-1.734 1.237-2.23 7.93-4.708 10.656-6.195 19.084-9.416 11.647-4.71 24.038-3.72 35.688-6.94 16.356.245 32.47 2.477 44.363 18.09 21.81-13.135 45.106-14.62 66.176-26.022 9.416-2.974 18.09-7.683 27.51-10.656 1.484 0 3.966-.992 5.7-.497-7.684 4.46-15.613 7.93-23.544 10.41zM955.29 393.01c-3.22.993-7.187-.247-10.158 1.737-3.97-.497-7.685 1.734-10.907 2.973l-5.947 4.215c2.228.246 10.903.99 13.38 1.485 3.223 3.222 8.923 1.734 12.89 2.726 18.34-2.48 38.91.496 60.968-.494-3.222-3.966-6.444-4.958-8.178-6.693-3.472-3.47-13.134-7.188-19.582-9.914-11.15 1.487-23.047-.99-32.465 3.965zM949.837 329.562c3.72.497 6.197 4.214 10.41 4.214 7.93 3.965 15.365 5.95 25.03 6.444 1.488.743 3.966.99 5.7 1.487 5.458.495 10.41 2.974 15.617 2.974 3.222.993 7.68-.743 10.656 3.223 3.965-.99 6.94-1.982 9.418-3.222.99-1.982 3.72-4.46 3.47-7.187 1.733-2.726.25-4.956 1.487-8.427 1.487-4.71 1.487-7.437 3.965-12.393 1.24-.99 2.48-1.98 3.967-1.734.99 2.478 0 5.45 0 8.426-3.223 6.444-2.726 9.914-4.957 18.34 1.98 1.24 1.24 2.23 1.98 2.728 6.197.99 12.89.247 18.095-.992 3.222.495 5.946-.744 10.903-.744.99-2.973 3.225-.743 4.71-1.487 8.92-.74 16.853-5.7 26.02-6.194 3.97-3.47 10.657-2.974 14.626-5.948 4.71.495 7.188-5.7 13.135-4.214 2.975-2.23 5.7-4.955 9.418-4.955.99.74 1.98 1.485 2.972 2.478-.493 3.717-4.706 3.966-7.435 5.946-4.213.497-8.178 1.488-11.153 4.215-5.45-.248-8.675 4.46-13.878 4.21-1.98 1.24-3.966 1.488-5.453 2.48-1.98-.247-3.715.497-5.202 1.24-11.4 0-20.322 7.435-31.726 6.69-1.484.993-4.212.993-5.7 1.24-12.144 4.214-26.27 3.47-38.663 3.222-5.7-1.488-12.64 0-17.598-2.48-15.366-2.726-30.234-8.92-44.86-12.885-6.938-2.727-13.38-6.94-19.825-10.41-7.188-3.967-15.616-6.69-20.82-13.88 0-.496 0-1.24.495-1.487 11.154 7.187 22.805 13.63 35.195 19.082zM1126.796 216.548c-19.58 8.676-36.432 20.075-53.533 31.478-1.486.743-1.98 2.727-5.205 2.727-7.93 7.93-17.844 8.673-25.03 15.86-6.445 3.224-13.634 6.94-21.068 12.64.99.744 2.725 1.487 3.47 1.982 5.206 2.48 10.41.497 15.118.746 14.87.494 28.503-1.983 41.638-2.23 12.64 0 24.288-2.976 35.44-1.734.247.493.247 1.237.247 2.23-.743 5.7-7.188 1.735-9.913 2.726-11.896 1.487-22.306 1.734-35.193 2.23-15.863.99-31.475.248-47.338 1.982-10.657.992-20.323 0-30.486 2.23-16.853-1.982-33.953 6.69-50.807 3.223-3.965 0-7.93 1.982-12.144.99-1.734-1.24-9.666.25-5.7-3.47 12.888-1.98 26.272 0 39.407-1.735 19.828-.743 40.894-1.98 55.515-14.62 2.48-.745 4.463-2.48 6.194-3.72 6.196-3.718 12.89-6.442 18.097-11.896 5.203-1.734 9.912-4.71 14.125-7.685 7.435-7.432 17.35-10.16 25.53-15.86 0-.99.742-.742 1.235-.99 2.232-.99 3.967-2.974 6.694-4.958 0-.99 7.19-2.48 6.94-3.22-.248-.744-8.426-.498-9.173-.993-11.397 2.478-25.525 3.47-38.66 4.71-14.128 1.24-23.547 3.964-36.93 4.21-4.707-.99-11.4 3.72-16.107-.246-5.206 0-8.182-.246-12.394 1.24-3.715 0-7.434-.496-11.894-.496-.994-.248-1.984.742-2.975.742-4.216 2.727-6.447-3.717-9.666-.742-1.487.495-2.974 1.734-4.462-.497-7.93 2.232-14.125.993-20.82-2.724-2.23.99-2.974-.247-3.965-.99v-.746c.744-1.734 2.23.745 2.23.495 0 0 1.49 1.24 2.976-.246.99-1.49 3.22 1.733 3.715.99 8.428 1.98 18.34 1.486 27.76.25 8.674 1.485 21.81-.995 29.987.74 1.734-.247 3.966-1.735 6.94-.74 2.726-2.48 6.445-.25 8.43-1.738 10.406-.742 21.56-2.48 32.215-2.48 10.163-.99 21.315-1.98 29.493-3.22 1.734.496 3.72-.992 5.454.25 4.212-.99 5.946-.99 9.172-1.488 6.44-1.24 14.618-2.23 20.32-3.47.992 0 2.233-.746 3.718-2.48-1.24-2.23 1.486-1.237 1.734-1.237 2.23-.992 5.95.99 9.666-.25.002.746.252 1.488.002 2.23zM1403.665 1484.897c.743.25 1.24.497 1.734.992-2.233 5.7-8.92 2.478-14.126 3.964-4.463.745-8.676 0-13.135.248-12.146.248-24.292-.248-35.94 0-6.195 0-14.374.497-20.818-.248-4.212-.496-9.418 0-13.63.248-10.163.992-19.83 0-30.485.744-.497-.496-.99-.496-1.488-.496-4.46 2.23-9.42.25-13.632.99-10.16.498-19.828 1.488-29.74 1.488-6.938-2.975-14.125 1.487-21.312-.248-.994-.247 1.483-2.974 2.227-2.974 10.907-7.437 23.545 2.974 35.69-.495 14.376-3.965 30.485-2.478 44.614-3.222 14.125-.743 27.506.496 41.885 0 3.963-.495 7.928-.495 12.14-.495.995 0 2.23.247 3.226.247 10.904-.247 21.81-.247 31.476-1.734 7.432 1.984 13.63.745 21.31.99zM1393.752 1399.643c.493 1.24 4.462 1.24 2.976 3.224-6.94 4.708-16.36-.5-23.795 3.47-25.035 7.682-51.55 1.98-77.078 5.45-14.87 1.983-28.75 1.983-43.373 4.956l-8.425-.246-.25.99 8.43 3.72c9.665 1.98 22.056 2.23 31.228 4.46 8.672 2.23 16.11 2.48 24.533 4.958 9.173 1.734 18.095.742 28.504.99.744.496 1.98.247 2.48.99-13.136 5.452-29.245 1.735-42.88 5.7-3.715 3.223-9.912 2.23-14.37 4.213-15.864 0-30.983 5.453-45.855 6.197-1.734 1.487-4.707 1.736-7.188 2.727 0 .99-6.692 2.48-6.446 2.974.25.743 7.936.497 8.182 1.734 24.535 3.72 46.842 0 69.395 2.727 13.88-5.203 28.255 2.975 41.64-1.486 15.862-5.203 33.706.743 47.834-4.708 4.21 0 8.672-2.23 12.388 0 4.466.248 11.9-4.215 15.37.495 0 .497.492.247.742.497-3.47 2.23-8.922.495-12.143.99-18.837 4.708-38.663 5.947-58.244 8.922-7.93 0-15.862 1.24-23.297-.99-9.666.248-19.58.99-29.742-.744-23.543-.743-45.106 3.964-67.162-2.48-8.18-2.478-16.11 0-23.3-1.733 0-1.488-5.45 1.238-4.21-.99 1.484-.745 2.478-3.225 5.203-3.72 11.15-6.194 25.774-4.462 38.165-8.92 15.118-2.728 32.22-4.462 47.834-8.18l8.177-1.983v-.993l-8.178-1.485c-10.163-1.735-19.83-3.223-29.988-4.462-12.394-5.7-27.017-5.205-39.41-10.656-.74-.744-1.98-1.24-2.972-1.736 1.98-2.974 7.932-.248 10.906-.495 10.41-5.452 22.057-1.238 33.457-4.213 26.025-2.727 45.354-1.24 70.88-3.47 5.948-1.735 15.12-1.735 21.812-2.726 11.896-1.735 24.537 2.974 33.46-4.46 1.73-1.242 3.22-.747 4.707.493zM1266.61 1240.28c9.912.248 19.33 1.735 29.244 2.727 9.912.992 20.572.497 30.237.992.992 0 1.735 1.238 2.727 1.238 6.94.495 13.63 1.24 20.32.743 18.84 1.735 36.683 1.49 55.023 3.967 1.734 1.237 0 2.23.744 3.964-2.73 1.242-3.47 1.49-6.69 1.737-11.403-2.23-20.075 7.436-31.23 5.7-8.428 2.48-17.596 1.982-26.27 4.463-8.18 6.938-21.313 1.485-38.167 6.69 12.39 5.204 18.09 4.958 23.297 5.948 8.922 1.982 16.854 1.982 25.77 3.47 8.183 1.238 17.353 3.965 25.036 3.965 3.47.743 6.69 1.487 10.656 1.736.744.99 2.48.74 3.716.99 4.463-.745 9.67-.99 14.128-1.24.498.25.744.495.994.744-2.48 3.47-8.182 1.485-11.402 3.222-12.89 5.203-28.008 6.692-43.373 7.93-13.136.99-26.27 1.982-38.417 3.967-11.15 1.24-22.553 5.205-33.953 5.205-1.488.99-4.46.742-5.947.99-20.572 4.957-43.372 3.966-65.432 4.957-2.972-.99-13.878 4.214-10.655-1.983 1.734-.247 2.975-1.734 4.71-2.478 23.794-2.727 47.83 1.487 71.872-3.965 11.4.74 21.315-3.968 31.725-5.704 2.232-.246 4.463.5 6.69 0 16.855-2.725 36.93-4.954 54.28-7.928l10.408-1.736c-8.922-2.23-26.52-4.46-33.46-6.938-16.606 0-30.483-5.7-46.84-7.437-7.685-.742-14.376-2.23-20.075-2.727-.25-.493-2.73.992-3.223 0 2.973-2.727 7.188-.493 9.912-3.22 4.213-.746 8.676-1.24 13.385-1.985 6.94-1.237 14.124-2.725 21.065-3.47 4.463-.494 9.168 0 13.135-.494 5.453-.744 7.438-2.228 12.64-2.974 3.966-.495 5.7-.25 9.667-.744 1.236-.247 1.734-.99 2.975-.99 7.928-1.24 16.854-.992 24.287-3.966l9.665-3.717c-9.912-1.49-30.98-.747-40.396-1.737-19.087-2.23-40.896-1.734-59.98-2.725-1.24-.744-3.222-.496-4.956-2.48-19.578-.99-35.688-6.94-55.27-4.957-5.947-1.98-11.646.993-17.35-.494-3.466-.99-6.938 0-10.16-1.983-.496-.495-1.734-.743-2.23-1.238 12.887-5.7 28.006-.497 41.39 0 9.17.247 17.6 1.984 25.776 3.965zM1394.495 1154.527c1.984.993 3.967 0 6.197.497 1.734 0 2.973.496 4.46 1.488.247 1.237-1.237 2.228-1.985 3.47-1.73 2.23-3.715-1.242-4.21-1.242-.495-.99-2.974 1.24-5.456-2.48-4.95 1.49-9.414 1.49-12.883.498-6.94.744-14.622-1.238-21.315 1.486-2.725.248-4.213 3.47-5.453 4.958-.248 0-1.24 2.974-3.47 3.966-3.223 2.975-7.932 7.683-9.42 8.922-1.24 1.238 0-1.488-2.23.992-1.238.99-.74 1.485-2.48 4.212-2.228 2.726-6.69 7.435-7.68 8.674-1.487 2.974-2.976 6.443-4.71 10.41 5.203 3.47 10.41 2.48 13.88 4.71 4.46.246 9.91 1.238 14.624 2.477 2.725-2.23 4.71.497 6.69.497 2.726 1.486 6.94 1.24 10.16 2.726 6.196.992 11.65 4.71 18.59 3.47 2.48.495 5.45 1.486 7.93 2.23-.248.495-.495.99-.99.99-4.214.745-7.933-1.486-11.65-1.237-.992-.743-1.733-.99-2.727-.743-1.98-.248-3.966-.744-5.7-.744-3.965-1.238-6.69.99-13.135-3.222 0 3.72.494 1.488.494 1.488-3.715-.992-8.922-2.478-13.88-2.23-2.97-1.983-6.688-1.24-9.664-1.983-6.94-.742-11.647-3.47-18.34-2.974 0 0-.247-.245-.495-.245-1.984-1.24-4.215-.497-5.453-1.736-15.12-4.215-30.484-8.428-45.604-12.642-3.47-1.733-6.443-2.48-10.158-3.964-4.96-1.736-9.666-4.708-14.873-6.692-5.204-1.983-10.163-5.205-16.11-6.94-1.487-.743-3.965.495-3.965-1.983 0-.743-.744-2.478-.248-2.726 1.734-2.727 6.69-2.727 9.17-3.966 5.95-.497 14.375-1.734 21.562-3.222 2.724-3.223 6.94-.744 10.16-1.983 12.146.497 24.786-5.7 38.663-3.966 17.598-2.725 37.176-4.212 53.783-2.725 12.638.99 25.278-.25 37.92 1.485zm-75.094 4.213c-3.224-1.237-8.177 1.736-13.138.745-5.95-.992-12.39.99-18.34 1.98-5.7-.99-10.16 2.48-15.86 1.984-3.718.495-9.915.495-14.872 1.486-8.178 1.487-15.61 3.717-25.03 4.46 3.716 4.215 10.41 7.19 11.4 7.436 5.206 1.735 9.418 4.71 14.124 6.196 7.19 2.48 13.385 4.958 20.078 6.94 4.707 1.238 10.904 2.726 15.12 3.47 4.706-.247 11.4 3.964 17.843 4.958 3.717.495 1.982 2.23 7.188.74 1.982-4.706 4.957-7.93 6.69-12.143 2.23-2.975 3.47-3.222 6.69-6.692 2.232-2.228 4.463-5.7 6.94-8.92 2.232-2.48 5.204-5.205 6.692-6.94 0-.495 2.97-3.718 2.97-5.7-3.468-.743-7.43-.743-9.66-.99-6.693-.99-11.896 0-18.834.99zM1241.825 1079.927c2.725 0 6.69-.248 9.666-.495 7.19-4.46 18.34 0 26.77.992 5.204-2.975 13.876-1.24 19.33-1.735 7.93-1.984 18.34.494 27.51.494 16.11 0 34.698-.495 50.808-1.237 2.48-.25 4.957-1.736 7.188-.746.248.25.494-.245.744-.245-5.7 3.72-12.64 3.965-18.34 6.443-8.18 7.188-17.602 10.905-26.273 16.358-10.408 4.707-21.064 8.178-30.484 15.363-2.975 1.488-5.7 3.223-8.675 4.71l-7.185 3.47 8.18.496c19.33 1.238 37.42-3.47 57.25-.745 7.93 0 15.365-3.22 23.05-1.733 1.98-.248 4.46 0 6.193 0-.247.497 0 1.487-.247 1.734-1.985 0-3.72.498-5.454 1.737-1.98.992-4.463.992-6.69 1.487-6.69.744-13.384-.248-20.075 1.237-18.093.498-35.687-1.73-53.284.25-8.178-1.486-16.36 2.727-24.29.496-5.204 1.24-11.894-1.487-15.863 1.486-11.894-1.24-23.544-3.222-35.935-3.222-2.725-.99-6.94 0-8.178-2.974-.25-.247 1.487-2.727 1.487-1.487 13.382-3.472 24.78 4.46 40.147 2.726 7.932-.99 16.11 0 24.537-2.48 2.48-3.468 6.198-3.22 8.923-5.45 4.957-.744 9.916-1.983 13.135-5.454 12.64-6.195 25.528-8.425 35.69-17.596 2.972-1.238 5.947-2.727 9.17-5.453 0-.742 7.187-3.966 7.187-4.71-.246-.493-7.68 1.24-7.68.25-9.667 0-18.592-1.736-26.273.99-13.878-3.47-28.254-3.718-43.125-.496-10.656-1.237-21.562-2.725-31.97-.743-8.675-3.718-18.34 3.967-26.27-2.972-.744-2.233-4.71-1.49-4.463-4.215 8.426-1.486 15.613 3.222 23.79 3.47zM1322.126 1012.516c9.666.744 19.578 2.974 29.988 4.214 12.64 1.488 25.775 2.974 37.672 8.922 6.197 6.195 13.88 9.418 18.838 17.596.74 4.46 3.963 3.72 2.475 9.172.246.742-.495 0-.495-.992-5.7.25-2.975-1.24-7.188-6.938-6.443 1.98-11.152-.992-15.862.99-19.825-1.24-36.93 0-56.26 1.982-4.71 2.23-10.656 2.23-16.11 1.486-3.468-1.24-7.187 1.24-11.398.497-12.89-.742-27.264-.742-39.904.99-9.416-.493-18.588 0-28.254.992-3.716-.743-7.932-1.982-13.135-.495-1.487 3.47-3.222 2.727-1.985 5.7-.492.497-.99 1.24-1.734 1.734-.742-.247-1.486 0-2.227-.744.99-7.188 5.694-11.153 10.157-16.604 8.676-7.932 19.828-11.648 29.248-19.33 6.193-3.967 12.637-4.462 19.328-7.19 8.428-1.238 17.847-.743 26.025-2.478 6.937 1.735 13.63 1.24 20.818.496zm-39.16 6.197c-9.665-.495-16.355 3.964-25.524 6.69-.497.495-2.73 2.725-3.97 3.47-6.938 4.957-15.115 7.187-22.553 17.1 8.925-.743 13.384 2.48 17.597.745 6.196.743 11.65-2.48 17.844-2.726 8.923 2.726 18.59.496 27.76 1.734 8.43.99 17.598-.99 26.272-1.487 15.365-5.95 33.21-1.735 49.072-3.472 7.682 0 16.604-1.238 28.75.25-4.713-9.915-13.137-11.65-18.838-14.87-14.62-3.967-29.243-6.445-44.362-7.93-2.976-.498-6.69.74-9.42-.993-13.63.744-29.988-3.965-42.628 1.488zM1404.905 965.923c-2.48 5.452-8.426 5.95-12.64 8.922-5.702 2.976-11.898 5.95-18.343 6.692-1.734.992-4.212 1.24-6.193 1.486-16.606 2.975-32.717 9.667-50.067 10.162-11.896 2.48-25.03 1.24-37.918.99-10.656 0-24.29-2.973-34.947-7.683-5.203-1.237-10.904-3.222-14.62-6.44-5.452-1.49-9.67-5.454-14.374-8.43-.99-1.734-2.23-3.47-2.23-5.204 0-.25-.252-.496-.252-.496 4.96 1.24 9.67 4.957 14.626 7.932 3.966 2.23 6.194 5.205 10.41 6.197 7.184 1.486 12.887 6.442 20.32 5.947 13.632 3.47 28.5 3.222 44.86 2.23-2.478-5.7 1.734-7.93-.246-11.4.246-1.486.494-2.48.99-3.47.744-.743 1.237-1.485 2.23-.743l1.24 1.24c-.498 1.486.493 2.478 1.236 3.22-.743 3.223 0 6.445-.493 10.41 12.144 1.24 20.322-2.23 30.234-2.727 4.214-1.982 10.66-2.478 15.862-3.965 4.71-1.488 10.408-1.488 14.87-4.213 3.72.493 7.93-.746 10.904-4.464 6.444.25 11.403-4.46 18.838-5.948v-1.237c1.237-.494 3.716-3.22 6.69-2.23-.245 1.24-.495 2.233-.99 3.223zM1391.023 907.187c-.74 5.205.25 9.666 1.985 13.88-.248 1.24-1.238 2.478-1.985 2.727-3.218 4.71 2.976 13.135-5.203 15.614-2.726.742-5.7-.497-7.93 1.486-8.677 3.222-11.4.743-19.827 1.487-7.438.496-16.36-3.22-23.547 0-3.965 0-7.188-1.486-10.656-1.982-9.418 3.47-20.074-1.735-29.988.744-7.188.495-12.887-2.48-20.074.744-1.488.246-2.73.246-3.97.742-14.622 0-29.737-1.486-44.112.248-7.188 0-14.13-.248-20.572-3.717-1.24-.993.247-2.48 1.488-2.975 1.737 0 4.212-.497 6.94 1.732 5.202-2.23 9.913.25 14.375-.742 3.716.99 7.93 1.24 11.897.25 8.424-4.96 17.346.74 26.02.492 8.427-.247 16.855-3.47 25.53-2.478 8.918 1.24 19.33 1.983 28.5.99 2.975-.99 6.443.496 9.168-.495 2.73.496 6.447.25 8.926 1.98 3.47-.492 7.68-1.236 11.15-2.228 1.984.992 4.955.744 6.693 1.24 9.42.742 11.4 1.98 20.075-.992 5.7 1.98 3.47-3.965 8.426-5.206 3.223-1.238 1.488-2.728 1.488-4.46-.743-3.966 3.222-6.94 1.487-10.41-1.24-3.222-.25-7.436-2.73-10.906-.245-.99-.245-2.23.995-2.23 3.226-.742 3.722 2.482 5.453 4.463zM1322.126 773.85c9.666.744 19.578 2.974 29.988 4.213 12.64 1.487 25.775 2.974 37.672 8.923 6.197 6.195 13.88 9.418 18.838 17.596.74 4.46 3.963 3.72 2.475 9.172.246.742-.495 0-.495-.993-5.7.25-2.975-1.238-7.188-6.937-6.443 1.98-11.152-.992-15.862.99-19.825-1.24-36.93 0-56.26 1.982-4.71 2.23-10.656 2.23-16.11 1.488-3.468-1.24-7.187 1.237-11.398.495-12.89-.742-27.264-.742-39.904.99-9.416-.495-18.588 0-28.254.99-3.716-.74-7.932-1.98-13.135-.495-1.487 3.47-3.222 2.728-1.985 5.7-.492.497-.99 1.24-1.734 1.736-.742-.25-1.486 0-2.227-.745.99-7.188 5.694-11.153 10.157-16.604 8.676-7.932 19.828-11.647 29.248-19.33 6.193-3.966 12.637-4.463 19.328-7.188 8.428-1.24 17.847-.744 26.025-2.48 6.937 1.737 13.63 1.242 20.818.497zm-39.16 6.195c-9.665-.495-16.355 3.966-25.524 6.692-.497.495-2.73 2.725-3.97 3.47-6.938 4.957-15.115 7.187-22.553 17.1 8.925-.742 13.384 2.48 17.597.745 6.196.743 11.65-2.48 17.844-2.73 8.923 2.73 18.59.5 27.76 1.737 8.43.99 17.598-.992 26.272-1.49 15.365-5.945 33.21-1.73 49.072-3.468 7.682 0 16.604-1.238 28.75.25-4.713-9.915-13.137-11.65-18.838-14.87-14.62-3.967-29.243-6.446-44.362-7.933-2.976-.496-6.69.743-9.42-.993-13.63.745-29.988-3.963-42.628 1.488zM1234.885 733.95c3.72.496 6.196 4.213 10.41 4.213 7.93 3.966 15.364 5.948 25.034 6.443 1.483.744 3.962.99 5.696 1.486 5.453.497 10.412 2.975 15.615 2.975 3.223.992 7.683-.744 10.657 3.222 3.965-.993 6.94-1.984 9.42-3.223.99-1.983 3.715-4.46 3.468-7.188 1.734-2.726.247-4.957 1.487-8.427 1.488-4.71 1.488-7.435 3.966-12.39 1.24-.995 2.478-1.986 3.966-1.737.99 2.478 0 5.452 0 8.427-3.223 6.444-2.725 9.913-4.957 18.34 1.982 1.24 1.238 2.23 1.982 2.726 6.195.99 12.886.248 18.09-.992 3.224.496 5.95-.744 10.905-.744.99-2.974 3.223-.742 4.71-1.488 8.922-.744 16.853-5.7 26.024-6.195 3.962-3.47 10.656-2.972 14.622-5.947 4.71.497 7.184-5.7 13.135-4.212 2.975-2.23 5.7-4.957 9.418-4.957.99.744 1.98 1.49 2.975 2.48-.496 3.716-4.71 3.963-7.438 5.946-4.212.496-8.178 1.486-11.152 4.213-5.45-.25-8.676 4.46-13.88 4.212-1.983 1.24-3.964 1.488-5.452 2.48-1.98-.25-3.715.495-5.203 1.237-11.4 0-20.322 7.436-31.725 6.694-1.484.99-4.213.99-5.7 1.238-12.144 4.214-26.27 3.47-38.663 3.222-5.7-1.486-12.64 0-17.598-2.478-15.366-2.727-30.235-8.922-44.856-12.888-6.94-2.727-13.385-6.94-19.828-10.41-7.188-3.965-15.617-6.69-20.822-13.88 0-.495 0-1.24.5-1.486 11.15 7.19 22.8 13.63 35.19 19.086zM1373.183 671.99c9.662 2.48 16.604 10.658 26.27 13.632 1.487 2.727 4.71 4.214 6.197 6.94-2.232.744-4.71-1.487-6.69-2.478-1.738-1.736-3.473-2.727-5.95-2.975-5.454-3.967-12.89-5.7-18.588-10.162-4.217-1.487-10.41-1.982-15.12-4.214-8.425-.495-16.853-.495-25.03.99-7.932 1.49-15.616 4.71-21.81 10.163-8.18 3.965-17.598 6.94-26.52 8.922-13.878 6.938-31.476 6.194-45.85.496-8.43 0-13.136-7.188-20.82-8.18-2.23-1.735-4.212-3.47-6.94-4.46-1.487-1.242-.744-3.223-1.98-4.96 0-.493-.99.25-.498.498 3.47.247 7.188 1.736 10.164 3.22 13.134 10.163 30.73 10.66 46.594 14.128 11.152-.495 20.322-5.7 30.98-8.178 6.692-4.214 15.118-5.7 21.81-9.914 4.957-.495 8.923-6.197 14.126-4.956 11.152-3.966 24.287-3.966 34.947 0 1.483.742 2.97 1.24 4.708 1.486zM1362.276 545.594c-.496-.25 2.23-.742 3.223-.495h1.98c1.487.494 3.472 1.24 4.956.99 3.47 1.49 6.94.745 9.915 2.23 5.947 2.728 13.88 5.206 20.323 10.66 3.966 4.212 9.17 5.946 13.134 9.663.744 2.23 1.734 3.224 1.24 5.207-3.965.247-5.95-5.453-9.664-6.94-2.726-2.477-6.69-3.223-8.922-6.444-.497-.247-1.487-1.24-1.98-1.486-.497-.248-.747-.744-.747-.744-.247 0-1.238-.495-1.238-.744-2.23-2.23-2.975-2.478-2.975-1.487-1.734-.496-2.972-1.734-4.71-1.486-.743-.25-1.487-.746-1.98-1.488-2.976.495-3.72-.99-5.206-1.24-2.726-1.486-6.938 0-9.913-.99-1.486.248-2.725-1.238-4.46-.99-5.948-1.737-8.427-.248-14.87.246-8.18 2.975-8.43 2.23-13.632 4.214-3.966 1.487-6.196 1.982-9.913 3.717-3.72 1.735-5.205 3.718-8.922 5.452-3.47 1.486-5.7.993-8.925 2.23-3.716 1.487-5.946 3.222-9.415 4.71-3.473 1.733-6.197 2.477-10.163 4.213-3.72 2.23-5.7 4.46-10.16 5.7-1.24 0-2.974.25-4.215.25-1.237-.25-2.726.246-3.47.246-.742.248-1.98-.246-2.727-.494-4.46 1.486-6.938-1.487-11.648-.992-4.462-1.237-8.922-1.734-14.127-3.47-4.957-2.725-11.4-3.964-16.854-7.68-5.702-2.977-11.397-7.438-15.614-12.89-.496-.743-2.48-2.728-.744-2.48 4.463 1.985 8.43 6.445 13.14 8.18 12.636 7.93 25.774 12.64 38.91 13.88 1.485.743 3.22 0 4.954.743 2.48 0 5.95.744 8.676.247 8.922.992 6.938-2.974 10.656-4.46 3.965-1.486 6.443-1.238 9.912-2.974 2.48-1.486 3.72-3.222 6.693-4.46 2.48-1.49 4.213-2.728 7.436-3.223 7.433-.744 7.683-2.23 11.4-5.453 1.733-.99 2.727-2.23 4.708-2.973 1.734-1.487 3.222-.743 5.453-1.487 2.976-.744 4.46-1.734 7.435-2.727 2.726-.99 5.7-2.23 7.188-2.23 5.203-2.228 8.18-.743 13.135-1.238 1.488-.005 2.975.986 2.728.986zM1265.866 499.994c4.213 2.973 6.443 5.45 11.153 6.44 3.468 2.232 5.202 4.958 8.67 6.942 5.95 3.47 7.19 3.47 12.145 2.23 5.207 1.238 10.41-.25 15.37 1.733 1.98.494 4.212-2.232 6.196 0 3.47-.99 5.45-.496 7.435-.745 3.963 1.736 7.932-.246 12.64.497 6.442-1.984 13.88-1.984 20.817-2.232 9.912 1.984 20.818.496 30.484 1.24 1.734-.744 4.463 1.486 1.984 2.48 1.982-3.967 20.82-1.487 21.312-1.24.498.247 1.488 1.487 2.73 2.23.246.496.246.743 0 1.24-5.207 2.23-12.145-.247-17.35.99-3.47-.744-8.923 0-12.89-.744-6.94.497-15.118-2.23-23.05-.246-15.616-2.727-35.935 0-51.55 0-.99-.497-2.48.495-3.47.246-1.983-.493-4.212 1.488-6.196-.493-8.922 1.486-18.834-.992-24.785.742-1.98.744-3.964.99-5.945 1.24-5.7-2.48-13.632.496-18.838-1.24-2.726.99-6.44 1.984-9.665 1.736-4.957.743-9.416.497-13.88 1.734-2.724-.742-6.442.744-8.92 0-4.46 1.24-9.667-.494-14.376 0-.247-.742-.497-1.237-.744-1.98 3.966-8.428 10.41-12.145 16.356-19.084 10.163-8.18 27.267-12.64 40.647-5.206 1.987-1.734 1.987 1.736 3.72 1.49zm-53.288 20.817c10.163 1.735 17.35.99 25.034-.99 9.666-2.727 22.8-1.735 32.963-2.48 1.982-1.24 6.444 0 7.686-4.46-4.216-.745-5.95-3.223-8.43-4.462-.245 0-.74-.247-.74-.247-6.445-3.47-12.643-6.692-19.83-7.684-13.878-3.47-27.76 6.196-36.682 20.325zM1417.792 467.776c-.743.247-2.728 1.734-4.462 2.23-4.706.248-11.4.743-16.11 1.486-2.725-.992-7.928.992-10.656.247-13.134 1.238-26.27 1.983-41.14 1.735-2.726 1.736-7.685.497-10.657.497-13.88-.497-26.52-3.966-38.666-2.233-8.67 0-18.587 3.223-27.755 0-6.443.99-15.863-.248-21.066.248-.25.248-.745.496-.99.743-12.892-1.238-27.264 1.488-39.657.496-.99-.248-2.232-1.982-.494-2.23 25.524-3.22 54.52-1.98 81.537-3.22 5.95-.25 14.872.246 21.312-.993.25.248.496.497.746.744 9.666 0 18.588 1.238 27.756 1.982.744-.496 2.48-.25 2.976 0 14.87.496 32.22-2.23 46.345-1.735 8.178-3.966 16.854 1.734 24.287-2.975.994-1.488 3.225-.742 4.463-1.98 2.973 1.98 2.723 3.964 2.23 4.956zM1404.905 416.967c-2.48 5.453-8.426 5.95-12.64 8.922-5.702 2.977-11.898 5.948-18.343 6.69-1.734.993-4.212 1.242-6.193 1.49-16.606 2.972-32.717 9.666-50.067 10.16-11.896 2.48-25.03 1.238-37.918.99-10.656 0-24.29-2.972-34.947-7.682-5.203-1.24-10.904-3.222-14.62-6.443-5.452-1.488-9.67-5.453-14.374-8.427-.99-1.734-2.23-3.47-2.23-5.206 0-.247-.252-.496-.252-.496 4.96 1.24 9.67 4.958 14.626 7.932 3.966 2.23 6.194 5.205 10.41 6.197 7.184 1.485 12.887 6.443 20.32 5.946 13.632 3.472 28.5 3.224 44.86 2.232-2.478-5.7 1.734-7.93-.246-11.4.246-1.487.494-2.48.99-3.47.744-.744 1.237-1.487 2.23-.744.495.497.742.744 1.24 1.24-.498 1.486.493 2.478 1.236 3.22-.743 3.225 0 6.445-.493 10.412 12.144 1.237 20.322-2.23 30.234-2.727 4.214-1.982 10.66-2.48 15.862-3.967 4.71-1.488 10.408-1.488 14.87-4.213 3.72.494 7.93-.744 10.904-4.46 6.444.247 11.403-4.462 18.838-5.95v-1.238c1.237-.495 3.716-3.224 6.69-2.23-.245 1.24-.495 2.232-.99 3.222zM1409.118 353.028c3.22 1.24 5.453-.497 7.93 0-.742 1.734-1.983 3.223-1.983 5.203-.99 2.728-4.46 3.225-6.44 5.208-1.984.496-2.23 3.22-4.463 4.707-5.203 3.224-9.916 6.692-15.12 10.41-10.16 2.48-19.33 9.42-31.228 10.657-9.168 4.213-21.065 3.966-31.23 4.213-6.192 4.956-16.108.495-23.542 3.222-3.72.497-5.947-.99-8.922-.99-10.163 2.725-19.332-1.237-28.75-2.727-6.69-2.974-13.88-3.718-20.322-7.188-1.984-1.486-4.957-.99-6.94-1.736-7.93-5.203-17.1-8.425-24.288-14.125-3.47-.743-4.46-4.955-7.932-5.7-1.238-1.734-3.716-3.223-2.23-6.94-2.23-1.733-4.213-5.204 0-4.46.992-.744 1.486-.25.246.743 8.182 9.915 21.566 19.085 34.7 26.024 4.956 0 9.913 2.727 12.888 5.204 10.16 2.728 19.578 6.443 29.988 6.443 3.72 0 7.438.744 10.656-.247 6.443.744 12.393 2.48 19.088.744 6.44-.497 12.884-1.24 19.08-2.48 19.83-3.964 41.39-4.955 57.748-15.86 5.947-3.967 10.162-7.436 15.365-13.384-.743-1.24 3.223-.992 2.48-2.727-15.366.743-34.45 1.238-48.33 2.23-6.196 2.725-13.384-.497-20.075.495-5.95.742-12.143-.742-18.34-.495-2.975 0-5.7-.497-8.426.495-4.463-.742-10.162.495-13.88-1.982-1.735-1.486 2.23-1.238 2.728-2.23 3.965-1.487 7.932-1.982 12.39-.248 3.47.493 6.94-1.734 10.163-1.734 9.17 0 17.1 2.48 23.297 1.735 0-.744 2.976 0 5.453 0 1.734-.497 3.47-.497 4.46-.247 5.453 0 8.922-.992 13.878-.25 8.926-2.23 20.078 0 27.266-1.98 2.23-.498 1.983-.25 4.214-.498 3.714 0 5.452-1.237 8.424.498zM1234.885 310.648c3.72.495 6.196 4.213 10.41 4.213 7.93 3.967 15.364 5.95 25.034 6.444 1.483.744 3.962.99 5.696 1.486 5.453.497 10.412 2.977 15.615 2.977 3.223.99 7.683-.745 10.657 3.22 3.965-.99 6.94-1.98 9.42-3.22.99-1.983 3.715-4.463 3.468-7.19 1.734-2.724.247-4.955 1.487-8.424 1.488-4.71 1.488-7.437 3.966-12.393 1.24-.992 2.478-1.982 3.966-1.735.99 2.478 0 5.453 0 8.426-3.223 6.447-2.725 9.916-4.957 18.34 1.982 1.24 1.238 2.232 1.982 2.73 6.195.99 12.886.248 18.09-.99 3.224.493 5.95-.745 10.905-.745.99-2.975 3.223-.743 4.71-1.488 8.922-.742 16.853-5.7 26.024-6.194 3.962-3.472 10.656-2.975 14.622-5.948 4.71.495 7.184-5.702 13.135-4.214 2.975-2.23 5.7-4.956 9.418-4.956.99.742 1.98 1.488 2.975 2.48-.496 3.716-4.71 3.967-7.438 5.947-4.212.497-8.178 1.49-11.152 4.214-5.45-.247-8.676 4.463-13.88 4.214-1.983 1.24-3.964 1.486-5.452 2.48-1.98-.25-3.715.494-5.203 1.238-11.4 0-20.322 7.434-31.725 6.692-1.484.99-4.213.99-5.7 1.238-12.144 4.213-26.27 3.47-38.663 3.223-5.7-1.49-12.64 0-17.598-2.48-15.366-2.728-30.235-8.923-44.856-12.887-6.94-2.73-13.385-6.94-19.828-10.41-7.188-3.965-15.617-6.69-20.822-13.88 0-.494 0-1.24.5-1.485 11.15 7.183 22.8 13.625 35.19 19.08zM1391.023 237.784c-.74 5.206.25 9.665 1.985 13.88-.248 1.24-1.238 2.48-1.985 2.727-3.218 4.71 2.976 13.135-5.203 15.615-2.726.742-5.7-.496-7.93 1.487-8.677 3.22-11.4.742-19.827 1.485-7.438.497-16.36-3.222-23.547 0-3.965 0-7.188-1.485-10.656-1.982-9.418 3.47-20.074-1.732-29.988.745-7.188.494-12.887-2.478-20.074.742-1.488.25-2.73.25-3.97.742-14.622 0-29.737-1.484-44.112.25-7.188 0-14.13-.25-20.572-3.72-1.24-.99.247-2.477 1.488-2.97 1.737 0 4.212-.498 6.94 1.733 5.202-2.23 9.913.247 14.375-.744 3.716.99 7.93 1.24 11.897.247 8.424-4.956 17.346.744 26.02.497 8.427-.25 16.855-3.472 25.53-2.48 8.918 1.24 19.33 1.983 28.5.993 2.975-.994 6.443.493 9.168-.497 2.73.497 6.447.25 8.926 1.984 3.47-.497 7.68-1.24 11.15-2.23 1.984.99 4.955.743 6.693 1.236 9.42.744 11.4 1.984 20.075-.99 5.7 1.984 3.47-3.966 8.426-5.203 3.223-1.24 1.488-2.73 1.488-4.463-.743-3.964 3.222-6.94 1.487-10.41-1.24-3.22-.25-7.434-2.73-10.902-.245-.994-.245-2.23.995-2.23 3.226-.744 3.722 2.477 5.453 4.46zM1411.843 138.648c-19.578 8.676-36.432 20.077-53.53 31.476-1.49.745-1.983 2.73-5.208 2.73-7.928 7.93-17.844 8.674-25.03 15.86-6.444 3.223-13.632 6.94-21.067 12.64.99.742 2.73 1.486 3.47 1.98 5.206 2.48 10.41.496 15.118.747 14.872.494 28.5-1.984 41.64-2.232 12.64 0 24.286-2.972 35.44-1.732.246.493.246 1.237.246 2.23-.744 5.7-7.188 1.735-9.912 2.726-11.898 1.487-22.307 1.734-35.195 2.23-15.862.99-31.475.248-47.338 1.982-10.656.992-20.322 0-30.484 2.23-16.854-1.982-33.953 6.69-50.807 3.223-3.965 0-7.932 1.98-12.144.99-1.734-1.24-9.666.248-5.7-3.47 12.888-1.98 26.27 0 39.406-1.735 19.828-.742 40.895-1.982 55.516-14.623 2.48-.743 4.463-2.48 6.197-3.717 6.195-3.72 12.89-6.443 18.093-11.897 5.205-1.734 9.915-4.71 14.127-7.684 7.436-7.434 17.348-10.16 25.525-15.86 0-.992.748-.743 1.24-.992 2.232-.992 3.967-2.973 6.695-4.956 0-.992 7.184-2.48 6.938-3.224-.248-.742-8.426-.495-9.17-.99-11.4 2.48-25.527 3.47-38.662 4.71-14.13 1.238-23.547 3.965-36.932 4.212-4.707-.99-11.396 3.72-16.106-.247-5.206 0-8.18-.248-12.394 1.24-3.716 0-7.435-.496-11.895-.496-.995-.25-1.985.743-2.976.743-4.216 2.725-6.443-3.72-9.666-.744-1.487.496-2.975 1.733-4.463-.498-7.93 2.23-14.127.994-20.818-2.725-2.23.99-2.972-.25-3.965-.99v-.744c.742-1.734 2.23.743 2.23.495 0 0 1.488 1.24 2.975-.25.99-1.486 3.223 1.735 3.72.992 8.425 1.982 18.337 1.487 27.756.248 8.675 1.487 21.81-.99 29.987.742 1.738-.247 3.967-1.732 6.94-.742 2.726-2.478 6.444-.248 8.426-1.734 10.41-.743 21.563-2.48 32.22-2.48 10.162-.99 21.315-1.98 29.494-3.22 1.734.496 3.72-.992 5.453.25 4.212-.993 5.95-.993 9.168-1.488 6.444-1.24 14.623-2.23 20.327-3.473.99 0 2.23-.743 3.715-2.477-1.237-2.23 1.488-1.238 1.734-1.238 2.23-.99 5.95.99 9.666-.25 0 .743.25 1.488 0 2.23zM1373.183 93.544c9.662 2.48 16.604 10.656 26.27 13.632 1.487 2.727 4.71 4.213 6.197 6.94-2.232.744-4.71-1.487-6.69-2.48-1.738-1.734-3.473-2.727-5.95-2.974-5.454-3.966-12.89-5.7-18.588-10.162-4.217-1.486-10.41-1.983-15.12-4.213-8.425-.497-16.853-.497-25.03.99-7.932 1.488-15.616 4.71-21.81 10.163-8.18 3.966-17.598 6.94-26.52 8.922-13.878 6.94-31.476 6.195-45.85.497-8.43 0-13.136-7.19-20.82-8.18-2.23-1.737-4.212-3.472-6.94-4.462-1.487-1.24-.744-3.222-1.98-4.958 0-.495-.99.248-.498.495 3.47.248 7.188 1.737 10.164 3.222 13.134 10.163 30.73 10.658 46.594 14.13 11.152-.498 20.322-5.7 30.98-8.183 6.692-4.21 15.118-5.698 21.81-9.91 4.957-.498 8.923-6.198 14.126-4.96 11.152-3.965 24.287-3.965 34.947 0 1.483.747 2.97 1.244 4.708 1.49zM1386.067 66.037c0 1.24-1.734 1.983-2.725 2.23-3.72 2.478-8.922.248-12.89 2.23-1.24 0-2.23-.495-2.974-1.237 0-1.24.497-1.737.994-2.23 3.47-.993 6.938-6.693 11.15-2.48 3.223-.248 4.71.494 6.445 1.487z"/></g><path d="M2048 0M2048 1536M0 1536M0 0" fill="none" stroke="#17192D" stroke-width="3"/></g></svg>