<?xml version="1.0" encoding="iso-8859-1"?>
<!-- Generator: Adobe Illustrator 15.1.0, SVG Export Plug-In . SVG Version: 6.00 Build 0)  -->
<!DOCTYPE svg PUBLIC "-//W3C//DTD SVG 1.1//EN" "http://www.w3.org/Graphics/SVG/1.1/DTD/svg11.dtd">
<svg version="1.1" xmlns="http://www.w3.org/2000/svg" xmlns:xlink="http://www.w3.org/1999/xlink" x="0px" y="0px" width="2048px"
	 height="1536px" viewBox="0 0 2048 1536" style="enable-background:new 0 0 2048 1536;" xml:space="preserve">
<g id="f1b_x5F_bein_x5F_r">
	<g>
		<path style="fill:none;stroke:#17192D;stroke-width:3;" d="M808.965,201.839c-11.283,2.017-23.296,2.6-32.961-0.704
			c-12.863-3.918-24.839-5.145-37.131-9.355c-21.068-7.21-43.297-10.548-64.604-15.394"/>
		<path style="fill:none;stroke:#17192D;stroke-width:3;" d="M678.802,176.753c-41.246,0.092-80.126-3.705-119.093-19.009"/>
		<path style="fill:none;stroke:#17192D;stroke-width:3;" d="M643.645,151.414c-6.717-1.81-12.896-5.396-19.071-8.982"/>
		<path style="fill:none;stroke:#17192D;stroke-width:3;" d="M700.435,91.438c-5.269-1.801-10.202,4.146-14.623,1.161"/>
		<path style="fill:none;stroke:#17192D;stroke-width:3;" d="M824.082,73.98c-15.977-0.082-32.354-5.2-48.33-5.279
			c-15.101,0.224-31.074,0.146-46.207-1.116"/>
		<path style="fill:none;stroke:#17192D;stroke-width:3;" d="M891.809,76.093c-11.889,0.827-23.511,0.771-35.432,0.117"/>
		<path style="fill:none;stroke:#17192D;stroke-width:3;" d="M602.687,117.075c-1.485-1.491-2.966-2.978-3.879-4.76"/>
		<path style="fill:none;stroke:#17192D;stroke-width:3;" d="M869.988,74.504c-61.871-13.343-121.1-20.105-183.844-6.788
			c-15.037,3.185-29.526,4.593-45.205,5.109c-12.464,1.124-26.32,5.202-38.816,4.845"/>
		<path style="fill:none;stroke:#17192D;stroke-width:3;" d="M550.074,132.732c-18.899,12.643-46.873-9.038-62.706-15.929"/>
		<path style="fill:none;stroke:#17192D;stroke-width:3;" d="M500.076,88.736c-5.172,2.643-11.857,2.311-17.701,0.798"/>
		<path style="fill:none;stroke:#17192D;stroke-width:3;" d="M561.051,88.029c-3.508-1.203-7.02-2.402-10.535-3.606"/>
		<path style="fill:none;stroke:#17192D;stroke-width:3;" d="M609.082,77.111c-26.882-7.244-46.256-16.818-74.396-15.181"/>
		<path style="fill:none;stroke:#17192D;stroke-width:3;" d="M559.1,156.558c-7.5,2.334-29.207-7.551-37.445-12.331
			c-12.354-7.171-24.891-0.042-38.576-1.293c-31.715-2.526-62.518-3.273-93.453-9.946c-25.093-5.158-52.243-11.516-77.75-8.974
			c-10.436,0.834-21.719,2.854-31.248,5.474c-10.678,3.206-21.258,10.856-31.59,3.397"/>
		<path style="fill:none;stroke:#17192D;stroke-width:3;" d="M468.908,132.198c-1.418,1.473-14.863-2.147-19.521-2.764
			c-12.836-2.433-31.076,0.143-42.219-4.653"/>
		<path style="fill:none;stroke:#17192D;stroke-width:3;" d="M458.158,78.521c-6.145-2.105-11.381-2.426-16.955-4.824"/>
		<path style="fill:none;stroke:#17192D;stroke-width:3;" d="M514.615,71.83c-4.055,0.573-8.111,1.146-12.167,1.718"/>
		<path style="fill:none;stroke:#17192D;stroke-width:3;" d="M536.711,61.644c-14.956-6.593-27.287-3.309-43.874-4.577
			c-14.255-0.961-29.925-0.446-44.721,0.369c-27.87,0.75-56.282,3.279-83.176,8.772c-20.542,3.748-41.995,5.717-62.231,10.062
			c-11.859,2.315-19.092,3.757-31.352,1.03c-11.377-2.425-17.125,0.507-27.197,4.904"/>
		<path style="fill:none;stroke:#17192D;stroke-width:3;" d="M247.555,131.396c-11.465,7.349-33.316,4.28-46.082,4.81
			c-13.92,1.117-26.895,5.498-40.476,8.691c-7.235,1.441-14.798,0.815-21.755,1.37c-6.66,1.153-12.403,4.085-20.241,4.346
			c-15.403-0.375-26.706-12.576-10.954-22.866c0.576-0.294,0.846-1.183,1.42-1.478"/>
		<path style="fill:none;stroke:#17192D;stroke-width:3;" d="M117.003,125.416c-7.026-2.399-11.205-7.756-1.978-10.967
			c4.898-1.753,9.621,1.825,15.095-0.221"/>
		<path style="fill:none;stroke:#17192D;stroke-width:3;" d="M245.007,81.02c-10.501-2.125-20.636-0.692-30.259-2.517
			c-11.957-2.132-21.01-4.252-32.898-3.422c-14.797,0.815-35.771-1.956-48.957,6.273"/>
		<path style="fill:none;stroke:#17192D;stroke-width:3;" d="M137.126,102.411c-6.143-2.102-28.812-2.512-20.411,9.676"/>
		<path style="fill:none;stroke:#17192D;stroke-width:3;" d="M145.246,88.529c-7.26-0.036-24.722-1.608-22.742,9.365"/>
		<path style="fill:none;stroke:#17192D;stroke-width:3;" d="M158.497,83.261c-2.331-0.308-4.354-0.02-6.115-0.625"/>
		<path style="fill:none;stroke:#17192D;stroke-width:3;" d="M133.873,86.103c-0.033-1.481-0.068-2.963-0.676-4.155"/>
		<path style="fill:none;stroke:#17192D;stroke-width:3;" d="M138.791,125.529c-10.438,0.839-20.334-0.104-29.626,0.147"/>
		<path style="fill:none;stroke:#17192D;stroke-width:3;" d="M241.486,119.516c-1.451-0.007-2.328-0.305-2.936-1.495"/>
		<path style="fill:none;stroke:#17192D;stroke-width:3;" d="M796.436,178.717c-6.316,3.228-16.756,4.064-23.749,3.142"/>
		<path style="fill:none;stroke:#17192D;stroke-width:3;" d="M840.2,133.902c1.993-1.769,3.713-2.648,4.833-4.713"/>
		<path style="fill:none;stroke:#17192D;stroke-width:3;" d="M893.309,75.919c12.508-0.257,24.447,2.418,34.199,6.545"/>
	</g>
	<path style="fill:none;stroke:#17192D;stroke-width:3;" d="M2048,0"/>
	<path style="fill:none;stroke:#17192D;stroke-width:3;" d="M2048,1536"/>
	<path style="fill:none;stroke:#17192D;stroke-width:3;" d="M0,1536"/>
	<path style="fill:none;stroke:#17192D;stroke-width:3;" d="M0,0"/>
</g>
<g id="Layer_1">
</g>
</svg>
