<svg xmlns="http://www.w3.org/2000/svg" width="2048" height="1536" viewBox="0 0 2048 1536"><g fill="none" stroke="#17192D" stroke-width="3"><path d="M800.938 220.756c-11.245-2.214-23.246-3.006-32.967.13-12.93 3.692-24.924 4.71-37.29 8.704-21.19 6.842-43.473 9.792-64.86 14.265M670.357 243.567c-41.238-.812-80.178 2.305-119.408 16.926M634.764 268.29c-6.75 1.69-12.99 5.168-19.226 8.648M690.498 329.247c-5.3 1.71-10.13-4.324-14.603-1.416M813.822 348.86c-15.975-.198-32.44 4.632-48.413 4.434-15.098-.487-31.07-.688-46.223.31M881.574 347.93c-11.872-1.034-23.494-1.183-35.424-.736M593.21 301.908c-1.51 1.463-3.017 2.924-3.96 4.69M859.73 349.136c-62.093 12.262-121.432 17.99-183.933 3.578-14.98-3.447-29.443-5.108-45.11-5.897-12.442-1.34-26.226-5.66-38.726-5.52M540.88 285.333c-18.677-12.97-47.024 8.22-62.975 14.833M490.122 328.452c-5.124-2.735-11.815-2.518-17.683-1.107M551.074 330.22c-3.525 1.143-7.06 2.282-10.595 3.426M598.91 341.978c-27.006 6.773-46.545 16.007-74.652 13.88M550.32 261.67c-7.46-2.466-29.335 7.04-37.654 11.675-12.478 6.954-24.887-.392-38.592.62-31.756 1.972-62.566 2.182-93.613 8.312-25.18 4.72-52.436 10.603-77.893 7.617-10.424-1.018-21.668-3.233-31.15-6.02-10.62-3.392-21.065-11.226-31.525-3.948M459.72 284.452c-1.394-1.497-14.9 1.888-19.57 2.424-12.876 2.208-31.067-.686-42.292 3.915M448.03 337.933c-6.178 2-11.42 2.227-17.033 4.527M504.364 345.61c-4.044-.644-8.09-1.29-12.136-1.932M526.277 356.18c-15.067 6.33-27.34 2.832-43.944 3.81-14.27.712-29.93-.077-44.71-1.15-27.852-1.237-56.215-4.26-83.01-10.223-20.473-4.105-41.887-6.45-62.046-11.146-11.815-2.52-19.024-4.087-31.33-1.576-11.415 2.227-17.11-.806-27.106-5.378M238.382 281.39c-11.33-7.548-33.233-4.862-45.99-5.613-13.895-1.36-26.793-5.966-40.317-9.396-7.21-1.566-14.78-1.072-21.727-1.75-6.638-1.268-12.33-4.3-20.163-4.696-15.407.104-26.92 12.108-11.35 22.67.57.304.825 1.198 1.393 1.504M107.746 285.09c-7.064 2.278-11.338 7.56-2.166 10.932 4.865 1.837 9.648-1.658 15.088.485M234.957 331.714c-10.536 1.94-20.646.333-30.297 1.99-11.994 1.924-21.08 3.884-32.954 2.847-14.782-1.073-35.8 1.332-48.84-7.125M127.468 308.443c-6.18 1.995-28.853 2.01-20.24-10.03M135.343 322.467c-7.26-.09-24.745 1.176-22.576-9.76M148.5 327.964c-2.338.268-4.355-.056-6.125.518M123.93 324.692c-.06 1.482-.12 2.962-.748 4.143M129.535 285.36c-10.426-1.022-20.334-.25-29.62-.665M232.11 293.163c-1.452-.02-2.333.265-2.963 1.443M788.007 243.656c-6.26-3.337-16.68-4.356-23.69-3.554M830.98 289.228c1.963 1.803 3.667 2.713 4.752 4.798M950.41 324.616c-22.488 11.655-50.24 23.263-76.56 21.716M878.166 304.234c6.55 4.007 13.098 8.016 17.002 13.316M2048 0M2048 1536M0 1536M0 0"/></g></svg>