<svg xmlns="http://www.w3.org/2000/svg" width="2048" height="1536" viewBox="0 0 2048 1536"><g fill="none" stroke="#17192D" stroke-width="3"><path d="M1003.35 209.573c1.162 3.96 3.53 7.017 2.896 10.96-.63 3.642-2.748 6.358-2.48 10.005M1017.734 103.676c11.646 1.62 24.223-.09 35.885.313 7.77.37 14.635 1.95 22.12.8 6.287-.856 12.586-2.928 18.59-5.306 7.8-2.97 14.686-3.82 23.073-5.267 6.292-1.16 12.883-2.623 19.76-2.563M1146.637 342.668c-13.158-.115-26.887-3.272-39.723-6.12-6.86-1.88-14.027-3.16-20.89-5.043-7.16-1.883-13.417-4.672-20.59-5.343-30.186-2.086-57.972-5.063-80.808-27.44-3.56-3.068-7.13-5.53-9.186-9.498M1015.63 104.874c-9.603 3.562-18.292 5.613-27.306 10.396-8.717 4.784-18.62 8.948-26.746 14.65M1099.532 120.188c-3.935 5.128-7.278 11.48-7.933 17.855-.66 6.98 4.384 11.58 4.925 17.966M1112.34 297.407c-4.24 6.04-9.386 13.286-7.063 21.204M1159.56 335.187c.875 2.74 2.644 5.794 4.415 8.24M1185.684 322.958c-.344 5.163-.385 10.022 3.17 14M1208.986 325.897c-.89-.92-1.166-3.353-1.453-4.874M1189.188 93.02c-6.598 2.07-9.938 8.117-14.765 12.936-5.134 5.42-14.396 4.43-19.233 10.464M1202.805 108.938c-4.828 5.12-10.342 19.958-18.118 20.196M1158.39 92.45c-2.71 2.102-5.415 3.9-8.42 5.393M1218.35 75.656c-7.182.242-14.936-1.953-22.414-2.02-6.578-.056-12.564.5-18.86 2.57-13.794 4.134-27.288 8.27-39.91 15.146M1219.832 76.884c6.87 1.275 14.086-3.218 20.678-4.68 7.19-1.458 14.08-2.915 20.963-3.462 14.366-1.09 28.427-1.575 42.48-1.452 5.98.052 16.127 2.57 20.645-1.035M1148.134 342.378c2.99.026 7.755 2.193 11.038 3.132 7.462 1.585 15.234 1.957 22.71 2.326 13.75.423 27.198 1.755 41.27.058 3.59-.274 7.183-.547 10.77-.516 12.514 5.275 27.78 3.585 41.53 4.618 12.848 1.023 26.896 1.753 40.064.956 7.182-.544 14.682-2.91 22.155-2.843M1361.666 307.788c-16.746-.147-32.594-.59-48.48 3.827-6.594 1.462-13.19 3.532-19.484 5.3-5.994 1.466-12.018 6.274-18 6.526M1438.605 298.432c-11.66-.102-23.628.402-35.01 2.733-8.09 1.448-15.887 3.81-23.966 4.348M1367.856 318.168c3.827 7.02 13.367 10.448 20.53 12.027M1369.51 334.284c-5.104 2.386-8.152 8.74-15.033 8.982M1332.555 319.684c-7.47-.977-13.47 1.4-20.646 1.338M1360.074 113.347c-11.06-.704-22.41-2.32-33.165-3.63-8.07-.68-16.447-.143-24.21-1.73M1392.942 116.37c-3.873-1.554-8.047-2.806-11.938-2.84M1385.325 98.378c-7.167-1.277-15.565 1.687-22.464 3.752M1348.35 85.904c-3.275-1.546-5.967-1.57-9.256-1.6M1329.39 65.384c6.838-1.98 12.418-6.665 18.938-9.243 5.643-1.952 11.922-2.096 17.896-2.536 12.542-.897 25.06-3.006 37.648-1.776M1408.638 50.808c5.4.787 12.185-3.62 17.54-4.96 6.55-1.365 13.124-1.817 19.698-1.968 15.25-.35 30.038 5.69 44.99 5.35 13.45-.31 26.897-.918 40.094.6M1540.526 49.663c13.103 2.48 27.27-1.7 40.667.787M1574.198 54.822c19.096-9.517 40.08.16 57.825 7.93M1554.544 104.108c2.676 1.844 5.65 3.695 8.64 4.024M1419.226 120.545c28.68 3.29 56.773 5.356 85.48 5.607 19.14.167 39.187-.873 58.056-4.05M1378.887 150.877c9.558 1.298 21.828.19 30.24-3.99 9.01-4.477 22.54-12.864 28.294-21.018M1377.627 261.14c5.06 2.475 11.342 2.227 17.01 3.794 5.668 1.873 11.026 4.653 16.084 7.736 10.998 7.692 20.49 16.583 30.886 24.877M1340.346 352.256c7.473.065 14.02 3.768 20.88 5.954 6.56 2.487 13.724 3.765 20.593 5.04 6.562 1.577 12.844 1.632 19.107 3.51 7.16 1.886 14.023 3.767 20.89 5.042 29.258 5.724 60.046 7.814 89.948 8.075 4.484.04 14.34 1.644 17.05-.458M1545.973 366.507c-1.803 1.2-3.61 2.703-5.42 4.205M1582.758 366.524c-5.688.558-11.112 5.37-15.92 8.062M1551.657 332.227c-.92 2.423-2.138 4.844-2.16 7.273M1443.39 298.474c14.355.125 28.083 3.283 42.13 4.62 15.24 1.35 30.47 3.61 45.406 5.866 7.766 1.283 15.233 1.955 22.078 5.964 7.136 4.62 11.004 6.78 19.677 6.856M1569.05 120.942c10.136 3.734 21.204 3.226 31.674 3.316M1632.897 63.686c4.777.433 8.285 3.565 12.43 5.197 3.853 1.317 8.307 2.652 12.158 3.97 7.412 2.63 15.122 5.267 22.53 7.897 14.223 5.243 29.052 10.198 43.272 15.44 14.81 5.566 29.584 12.646 43.767 19.41 12.403 6.103 26.4 8.607 38.156 16.517M1597.118 126.047c27.47 5.1 54.614 12.934 82.386 17.73 32.85 5.453 63.843 18.178 94.238 30.594 4.765 2.17 10.436 3.436 15.2 5.908 4.167 2.16 7.73 5.23 13.114 4.975M1575.084 320.585c14.975-2.3 28.185-8.26 42.278-12.696 14.7-5.036 31.756-6.407 47.327-8.7 16.47-2.288 32.625-3.057 49.112-7.47 16.185-4.418 31.505-11.877 47.69-15.99 5.395-1.472 10.492-3.25 15.587-4.42M1781.747 319.046c-8.116 5.093-17.42 8.657-26.122 12.227-7.805 3.274-15.017 7.465-23.117 10.128-14.996 4.73-29.103 10.987-43.504 16.024-27.598 9.785-55.786 18.35-83.673 26.613-12.888 3.836-28.742 4-40.955-1.27-7.45-3.408-11.066-.097-18.55.75-5.99.858-12.26-.107-17.018-3.188M1602.198 366.39c2.982.937 5.974.964 8.958 1.902M1672.484 331.46c5.093-1.17 10.188-2.342 15.576-2.903M1684.12 128.935c2.993-.276 5.967 1.57 8.352 2.503M1566.778 72.926c-2.107 1.8-4.525 4.516-6.04 6.933M1589.83 70.087c2.69.328 5.68.05 7.757 2.195M1366.854 158.672c-3.296.88-5.725 5.113-8.438 7.52-3.012 2.404-6.318 4.5-9.33 6.905-6.026 5.11-11.163 11.142-17.48 15.645-5.12 3.904-10.23 6.898-15.943 10.19-4.81 2.693-11.436 8.407-17.418 8.354M1326.126 233.655c-.307.91 36.24 27.962 41.02 28.61M1242.608 139.967c-.6.3-1.497.292-2.095.286M1244.812 298.867c-.6-.006-.897-.008-1.496.29M1254.387 298.344c-1.416-9.127-18.457-9.88-21.527-.796-3.685 11.208 22.91 13.566 21.54-.723M1250.09 139.73c.974-9.106-22.055-9.002-18.562 2.268 2.91 9.14 25.944 8.125 19.477-4.69M1191.86 197.85c1.473 3.052 3.845 5.2 6.52 7.044M1199.916 234.376c-2.113 2.412-4.83 5.124-6.647 7.84M1143.004 244.816c-1.818 2.72-2.748 6.356-5.454 8.153M1126.998 194.247c1.77 3.053 3.83 6.413 6.2 8.863M1028.75 245.945c1.215-1.81.604-.298.588 1.524-.03 3.34-1.85 6.364-1.282 9.71M1023.067 177.848c.59 1.22.556 4.866 1.733 7M1057.18 175.41c.27 3.345-.357 6.68-.686 10.018M1060.975 254.732c.283 1.827.865 3.652 1.748 5.18M1064.28 218.306c-2.397.89-4.48-.342-5.362-2.172.285 1.824-.035 3.95-.648 5.765.605-.906.318-2.124.625-3.03-.896-.01-1.49-.32-2.09-.324M1027.537 214.037c-.008.912 1.457 3.96 2.342 5.49-.908 1.207-2.116 2.716-2.724 3.925M1004.21 213.833c-3.59.27-6.343 7.236-2.175 9.4M944.145 174.425c-7.266 10.265-10.383 24.514-11.686 36.655-1.618 14.265 1.865 26.145 7.735 38.952 1.467 3.355 3.23 6.714 4.998 9.765M1236.705 96.78c6.85 3.095 14.32 4.072 21.48 6.262 6.56 2.183 12.495 7.4 19.362 8.675M1240.352 330.12c-1.508 1.503-6.89 1.153-9.274.526M1217.232 272.197c-1.24 4.85-2.19 10.917-2.228 15.17M1212.58 153.983c-1.25 6.368 1.09 12.16 1.037 18.237M1270.353 216.46c-4.485-.04-8.67-.38-13.155-.42M1811.188 132.777c13.722 4.07 26.315.23 40.075-.256 15.255-.475 27.138 8.744 41.167 11.903 9.25 2.208 18.21 3.804 26.543 8.435 3.57 1.854 7.746 3.41 8.3 7.97.57 3.65-1.853 7.275-5.442 7.244M1807.72 187.43c2.67 2.453 8.64 3.417 12.21 5.877 6.838 4.618 12.162 11.346 19.3 15.66 12.792 8.012 25.677 5.087 39.734 4.6 5.69-.252 10.77.095 16.13 2.27 3.28 1.242 9.83 4.64 11.368-.206M1870.46 194.66c12.548 1.325 32.855 4.844 35.71 20.058M1836.29 169.148c8.07.678 14.908 4.99 22.05 9.306 3.27 2.154 7.135 4.617 9.8 7.68 2.376 2.147 3.547 5.196 5.616 7.644M1869.25 196.168c-.92 2.423-3.034 5.138-5.732 5.724M1883.954 156.197c2.075 2.145 4.452 3.684 6.837 4.618M1888.877 174.467c-.016 1.823 2.355 4.274 4.143 5.2M1889.043 189.96c-.317 1.822-.635 3.943-.05 5.773M1893.184 160.836c11.324 4.35 22.987 4.756 34.006 9.712 6.26 2.79 28.92 10.582 17.18 19.288M1906.057 227.78c-2.146 6.057-4.283 11.2-9.695 14.497-4.513 2.998-9.893 2.647-14.696 4.732-11.406 4.76-18.596 6.216-30.836 3.678M1776.49 270.394c7.47.977 13.813-6.258 20.703-7.718 4.235-5.432 12.064-11.742 17.788-16.25 5.425-4.507 12.317-6.575 18.63-10.166 6.615-3.89 10.535-7.804 18.914-8.34 6.583-.55 12.855.417 19.73.782 5.977.355 12.853 1.022 18.838.467 3.888-.27 10.802-4.16 14.07-1.7M1890.042 281.108c-1.507 1.203-2.717 2.71-3.627 4.22M1894.088 262.916c-.903.598-1.51 1.505-2.117 2.715M1891.225 248.31c-.305.602-.906 1.207-1.808 1.502M1907.86 226.884c11.35 1.617 22.735-1.017 34.093-.005M1893.318 248.023c4.783.346 9.594-2.346 13.79-3.83 6-1.77 11.983-2.02 17.677-3.492 5.393-1.167 14.645 1.04 19.452-1.347 4.804-2.387 4.896-13.02-1.985-12.472M1895.578 263.535c3.903-1.79 7.788-1.45 11.384-2.33 3.298-.883 6.3-2.376 9.598-2.953 6.586-1.158 13.182-2.925 19.774-4.386 4.793-.87 18.268-3.183 13.7 6.5-2.74 5.748-12.02 6.882-17.124 8.66-7.5 2.973-14.997 5.336-22.495 7.7-6 2.077-13.213 6.267-19.48 4.69M1949.938 237.275c4.18.647 8.038 4.02 6.804 8.565-1.234 4.245-4.822 4.213-7.832 6.312M1928.392 272.935c16.384 7.434-17.813 19.287-23.505 20.453-6.893 1.458-13.478 2.312-20.08 4.987-6.303 2.376-11.72 6.28-18.608 7.74-6.598 1.46-13.172 1.1-20.05 1.343-5.687.253-11.648-1.924-17.34-.76-5.693 1.167-11.374 1.117-17.063 1.978-5.69.862-12.3 4.147-17.995 5.918-3.602 1.184-7.197 2.368-10.796 3.25M1896.618 178.483c8.314 6.758 21.79 4.748 32.228 8.182 3.28 1.244 5.954 3.088 9.533 4.03 2.686.632 7.175.367 9.555 1.908 6.243 4.307 1.995 10.954-4.89 11.804M1892.902 193.033c11.037 3.438 22.055 8.698 33.413 9.405 4.78.345 16.743.45 18.488 5.934 2.035 7.004-9.03 6.907-13.217 6.87-8.076.235-15.84-1.048-23.616-1.116M1868.44 254.488c-.296-.306-3.668 9.083-4.882 11.198M1856.423 260.763c-2.12 3.32-6.324 5.11-9.037 7.517M1858.017 283.864c1.198-.293 2.394.02 3.284.637M1826.36 278.728c.878 2.438 2.347 5.186 4.43 6.722-.315 1.82-.63 3.64-.647 5.462M1821.36 166.285c-.585-1.22-.88-2.136-.867-3.35M1865.995 157.863c-1.197.294-2.696.583-3.892.573M1873.34 172.813c1.208-1.205 2.693.023 3.575 1.55M1378.158 151.42c1.334.01 3.04 8.62 4.81 9.993M1364.076 190.524c-.668 3.82 1.222 6.39 4.393 8.33M1354.9 219.143c6.965 5.8 13.952 9.05 21.57 12.944M940.45 330.275c-18.545-10.612-38.395-23.64-51.98-40.707-6.603-8.286-42.292-41.51-51.792-45.306-9.383-3.748-17.645-11.446-28.09-17.852-6.272-3.847-3.42.587-4.21-7.7-.794-8.326 5.01-21.252 12.292-24.657 6.992-3.275 13.705-6.067 21.064-8.104 9.654-2.67 31.483-19.813 36.432-26.265 5.578-7.274 21.682-28.604 29.125-36.173M975.222 312.116c-7.548-5.594-20.402-17.678-29.325-19.597M959.105 315.196c-9.776-6.067-19.105-12.598-28.436-18.664-6.22-4.2-16.387-17.183-23.987-16.788M886.787 255.152c2.39 2.838 8.746-1.318 11.994-2.89M877.76 177.002c4.023.035 7.588.987 10.698 3.316M914.038 202.453c-.01.923-.017 1.84-.02 2.303M920.944 181.792c4.116-10.555 10.906-20.625 17.685-29.316M947.385 130.34c-3.943 17-12.315 29.822-14.498 49.603-2.404 19.78-2.61 43.26-.1 62.62 1.674 12.907 5.146 24.45 9.742 34.618 3.946 8.327 9.26 13.437 13.436 20.84M923.14 237.527c1.686 11.986 5.167 22.606 11.333 32.79M935.248 137.417c1.737-8.813 8.98-15.71 12.47-23.466M905.6 148.044c1.803-1.824 4.05-3.648 5.852-5.014M834.957 194.023c-2.72 0-5.13 1.81-7.104 3.548M807.936 220.61c3.84 1.192 8.267 3.53 10.996 6.79M808.938 204.95c4.486-1.802 8.986-5.446 12.588-8.177M946.947 133.442c-1.117-7.456 4.927-14.857 7.258-19.907 2.13-4.018 9.414-10.362 9.97-15.39 1.42-11.195-7.486-6.67-9.612-2.006-2.865-6.804-9.967-9.91-14.818-10.872-.404-.08-10.025-2.992-10.43-3.073-2.95 1.052-4.74 8.474-6.576 11.36-6.27 9.967-11.468 24.158-19.448 29.957M948.13 277.358c5.864 10.435 10.825 19.448 19 27.542 3.183 2.86 9.094 8.104 9.976 11.89 1.79 4.736-1 9.9-5.533 4.197-2.348 6.586-6.44 2.777-10.564 3.213-3.67.44-4.15 2.795-7.81 2.29-1.83-.487-6.367-5.245-7.73-6.677M1016.932 318.637c-8.217.685-30.283 6.197-36.18 1.633M964.098 93.785c19.213 2.266 34.797 1.003 51.205 9.543M950.61 97.865c-1.864 3.65-6.013 6.36-8.798 10.462-2.33 4.56-3.756 10.503-6.996 14.14M931.79 109.874c-.7 5.823-3.964 8.39-6.59 12.9M882.41 171.714c-5.918.81-10.757 4.314-15.626 7.357M877.602 263.265c-6.047-2.174-15.77-8.233-21.518-13.177M1527.908 273.425c-4.52 1.417-5.728 2.994-10.307 3.82-7.763 1.277-15.675.02-23.137-2.354-1.234-.482-2.446-.832-3.644-1.043M1493.604 152.694c3.934-.922 7.853-2.133 11.802-2.648 6.704-.798 10.118-.048 16.36 1.704 1.027.355 2.043.617 3.058.78M1406.61 147.975c-.645 3.053-.917 6.505-.766 10.397M1529.888 139.938c-21.424.02-64-14.858-93.25-13.035M1525.442 283.088c-19.472.483-55.745 14.147-82.972 15.398M1604.826 213.536c.487-.018-3.36.537-4.803.583M1606.418 213.03c1.44-.807 4.593-1.323 4.044-4.056-3.706-1.68-7.18 2.11-10.6.433M1599.528 213.8c1.74 23.79-10.232 48.67-31.062 61.98-5.368 3.467-11.255 6.108-17.387 7.81-5.28 1.473-12.65 1.694-16.13 6.847M1600.152 211.236c3.357-37.075-23.047-75.038-69.344-71.218M1492.59 152.673c-10.076.075-14.62-2.018-24.498-.258-3.67.623-7.114 1.807-10.318 3.3-5.77 2.672-15.997 1.686-21.998 4.47-7.91 3.647-13.352 9.35-22.14 13.836-8.792 4.41-15.948 13.055-17.656 25.305-.645 4.23-.388 10.79-.296 14.57M1491.006 274.046c-10.075-.302-14.653 1.73-24.496-.276-3.66-.71-7.08-1.992-10.267-3.584-5.72-2.84-15.955-2.062-21.91-5.027-7.845-3.882-13.18-9.816-21.894-14.57-8.713-4.677-15.718-13.602-17.206-26.092-.572-4.314-.2-10.97-.036-14.814M1529.81 281.7M1536.253 282.94c-1.775.435-3.362 1.044-5.035 1.777-1.66.735-3.56.262-4.37-1.466-.728-1.56-.105-3.844 1.556-4.572M1530.636 271.76M1530.36 275.148c-4.212-.24-3.656-7.024.553-6.776M1531.75 263.863M1532.354 267.18c-1.77.287-3.484-.74-3.823-2.622-.313-1.743.854-3.737 2.62-4.016M1532.81 256.69M1532.528 260.07c-1.785-.024-3.133-1.83-2.984-3.605.154-1.913 1.76-3.186 3.542-3.157M1531.778 249.375M1531.5 252.76c-1.786-.04-3.134-1.835-2.987-3.617.155-1.914 1.76-3.196 3.544-3.147M1533.932 243.015M1534.53 246.336c-1.772.235-3.477-.746-3.82-2.652-.31-1.715.846-3.763 2.62-3.995M1534.027 233.374M1533.75 236.75c-4.215-.316-3.657-7.082.553-6.754M1536.373 227.533M1536.973 230.854c-4.15.917-5.328-5.744-1.2-6.647M1534.36 217.962M1533.226 221.142c-1.746-.396-2.49-2.79-1.935-4.35.68-1.906 2.468-2.41 4.21-2.008-.337-.08-.304-.08.097.01.346.067.69.124 1.033.18.743.125 1.486.207 2.235.285M1536.518 211.638M1536.238 215.008c-1.784-.074-3.134-1.878-2.985-3.658.155-1.902 1.756-3.163 3.543-3.086M1537.994 205.02M1538.594 208.347c-1.73.444-3.51-.984-3.82-2.715-.34-1.9.89-3.5 2.622-3.94M1536.41 195.956M1536.13 199.326c-1.747-.382-3.154-1.67-2.99-3.676.14-1.673 1.796-3.453 3.547-3.06M1538.156 188.897M1537.88 192.265c-4.21-.408-3.656-7.155.556-6.736M1536.473 181.02M1536.193 184.386c-4.212-.407-3.654-7.16.557-6.735M1536.334 171.358M1536.055 174.727c-1.744-.415-3.152-1.7-2.984-3.71.138-1.67 1.792-3.446 3.544-3.026M1535.572 163.56M1535.295 166.928c-4.207-.465-3.652-7.215.56-6.736M1532.438 156.214M1532.16 159.586c-1.787-.052-3.126-2.007-2.986-3.74.162-1.948 1.758-3.062 3.542-3.005M1527.877 149.166M1527.596 152.545c-1.79-.02-3.125-2.048-2.985-3.756.163-1.98 1.76-3.025 3.543-3.004M1524.157 143.162M1524.76 146.525c-1.74.378-3.51-1.067-3.826-2.836-.335-1.9.89-3.52 2.626-3.895M1541.007 148.77M1534.344 290.67c-3.85 2.165-5.973-2.782-4.942-5.91M1407.464 266.293c.21-3.528.057-6.537.088-10.062M1454.99 200.185c-.19-1.197-.094-2.27.295-3.237M1457.48 227.505c.435-4.348-3.08-5.434-4.494-8.824-.965-2.347-1.268-4.238-.44-5.988.888-1.888 2.67-3.938 4.03-5.562 1.344-1.61 1.347-4.004 1.384-6.046M1468.747 201.263c.22-2.1-2.05-4.188-3.907-5.165-1.494-.84-5.483-1.663-6.616-.987M1469.154 228.555c-1.36 3.3-7.992 6.34-11.606 4.142M1454.744 229.625c-.218-.486-.324-1.07-.21-1.554"/><path d="M1511.143 258.625c1.22-8.56 3.626-17.11 1.543-25.733-.832-3.45 4.48-4.86 5.313-1.418 1.07 4.43 1.26 8.92.8 13.445-.47 4.623-1.507 9.16-2.16 13.754-.213 1.484-1.124 2.74-2.773 2.725-1.348-.014-2.937-1.287-2.724-2.775zM1513.303 195.016c2.018-8.958 1.6-18.596-.735-27.456-.908-3.433 4.41-4.837 5.31-1.414 2.596 9.822 2.95 20.454.717 30.378-.78 3.46-6.067 1.943-5.292-1.508zM1432.09 222.604c-2.568-6.814-1.467-11.833.02-18.345M1440.686 222.572c-.324 5.628-6.476 9.576-8.484 14.344M1432.413 224.302c-1.195 2.955-1.84 6.808-1.587 10.174M1439.618 203.907c.383-5.62-5.22-10.442-6.612-15.46M1432.52 202.434c-1.17-3.612-1.674-8.086-1.183-11.773M1430.165 235.32c-1.072-1.21-2.852-1.94-3.922-3.314-1.326-1.71-2.52-3.47-3.463-5.334-1.943-3.737-2.735-7.9-2.7-11.952.075-8.584 3.282-18.186 9.59-24.856.386-.436.836-.758 1.094-1.25M1417.313 217.783c-.383-1.672-.495-3.538-.158-5.254M1499.48 203.684c1.2-.32 2.103-.98 2.41-1.97M1440.906 220.902c-.314-1.218-.206-2.465-.098-3.678.073-.983.087-2.524-.89-3.125.765-1.078.908-2.618.788-3.9-.027-.524-.09-1.114-.214-1.61-.162-.56-.42-.955-.482-1.577M1501.98 262.17c-1.894-2.202 4.19-10.89 4.766-14.16 1.432-7.362-1.242-13.94-5.56-19.713M1498.138 196.858c-5.79-6.06-10.223-26.577.577-30.58M1498.18 259.405c-11.962-6.386-5.822-21.078-1.1-30.05M1502.74 163.668c-1.927 2.168 4.004 10.958 4.522 14.238 1.303 7.382-1.49 13.916-5.902 19.612M1492.353 207.01c-1.156-.393-7.797-.596-10.256-2.468M1486.43 223.066c-3.548-.085-6.83 1.43-9.915 2.962M1455.41 192.867c-.584-.588-1.56-1.192-2.35-1.592M1406.938 169.487c.308-2.518-.237-5.27-.506-7.792M1489.818 192.068c.224 1.694 1.42 2.914 2.135 4.373M1450.454 258.88c.222 1.65 1.15 3.068 2.078 4.486M1454.822 157.678c-1.703 1.437-2.208 4.092-2.95 6.26M1430.913 183.08c.237.723.71 1.697 1.19 2.184M1493.946 162.13c-1.942.71-3.404 2.147-4.387 3.828M1491.634 257.593c-.94-.48-2.107-.958-3.043-1.437M1420.657 255.83c-7.968-.07-15.628.478-23.6 1.327-6.44.862-12.59 3.26-19.034 4.43M1417.723 170.336c-13.497 2.332-27.552-1.772-40.384-5.56M2048 0M2048 1536M0 1536M0 0"/></g></svg>