<svg xmlns="http://www.w3.org/2000/svg" width="2048" height="1536" viewBox="0 0 2048 1536"><g fill="none" stroke="#17192D" stroke-width="3"><path d="M808.965 201.84c-11.283 2.016-23.296 2.6-32.96-.705-12.864-3.918-24.84-5.145-37.132-9.355-21.068-7.21-43.297-10.548-64.604-15.394M678.802 176.753c-41.246.092-80.126-3.705-119.093-19.01M643.645 151.414c-6.717-1.81-12.896-5.396-19.07-8.982M700.435 91.438c-5.27-1.8-10.202 4.146-14.623 1.16M824.082 73.98c-15.977-.082-32.354-5.2-48.33-5.28-15.1.225-31.074.147-46.207-1.115M891.81 76.093c-11.89.827-23.512.77-35.433.117M602.687 117.075c-1.485-1.49-2.966-2.978-3.88-4.76M869.988 74.504c-61.87-13.343-121.1-20.105-183.844-6.788-15.037 3.185-29.526 4.593-45.205 5.11-12.465 1.123-26.32 5.2-38.817 4.844M550.074 132.732c-18.9 12.643-46.873-9.038-62.706-15.93M500.076 88.736c-5.172 2.643-11.857 2.31-17.7.798M561.05 88.03c-3.507-1.204-7.02-2.403-10.534-3.607M609.082 77.11c-26.882-7.243-46.256-16.817-74.396-15.18M559.1 156.558c-7.5 2.334-29.207-7.55-37.445-12.33-12.354-7.172-24.89-.043-38.576-1.294-31.716-2.526-62.52-3.273-93.454-9.946-25.093-5.158-52.243-11.516-77.75-8.974-10.436.834-21.72 2.854-31.248 5.474-10.678 3.206-21.258 10.856-31.59 3.397M468.908 132.198c-1.418 1.473-14.863-2.147-19.52-2.764-12.837-2.433-31.077.143-42.22-4.653M458.158 78.52c-6.145-2.104-11.38-2.425-16.955-4.823M514.615 71.83l-12.167 1.718M536.71 61.644c-14.955-6.593-27.286-3.31-43.873-4.577-14.255-.96-29.925-.446-44.72.37-27.87.75-56.283 3.278-83.177 8.77-20.542 3.75-41.995 5.718-62.23 10.063-11.86 2.315-19.093 3.757-31.353 1.03-11.377-2.425-17.125.507-27.197 4.904M247.555 131.396c-11.465 7.35-33.316 4.28-46.082 4.81-13.92 1.117-26.895 5.498-40.476 8.69-7.235 1.442-14.798.816-21.755 1.37-6.66 1.154-12.403 4.086-20.24 4.347-15.404-.375-26.707-12.576-10.955-22.866.576-.294.846-1.183 1.42-1.478M117.003 125.416c-7.026-2.4-11.205-7.756-1.978-10.967 4.898-1.754 9.62 1.824 15.095-.222M245.007 81.02c-10.5-2.125-20.636-.692-30.26-2.517-11.956-2.132-21.01-4.252-32.897-3.422-14.797.816-35.77-1.955-48.957 6.274M137.126 102.41c-6.143-2.1-28.812-2.51-20.41 9.677M145.246 88.53c-7.26-.037-24.722-1.61-22.742 9.364M158.497 83.26c-2.33-.307-4.354-.02-6.115-.624M133.873 86.103c-.033-1.48-.068-2.963-.676-4.155M138.79 125.53c-10.437.838-20.333-.105-29.625.146M241.486 119.516c-1.45-.007-2.328-.305-2.936-1.495M796.436 178.717c-6.316 3.228-16.756 4.064-23.75 3.142M840.2 133.902c1.993-1.77 3.713-2.648 4.833-4.713M893.31 75.92c12.507-.258 24.446 2.417 34.198 6.544M2048 0M2048 1536M0 1536M0 0"/></g></svg>