<svg xmlns="http://www.w3.org/2000/svg" width="2048" height="1536" viewBox="0 0 2048 1536"><g fill="none" stroke-width="3"><g stroke="#FF0050"><path d="M801.248 1313.295c-11.266 2.115-23.27 2.803-32.965-.417-12.898-3.806-24.884-4.928-37.214-9.03-21.13-7.027-43.387-10.17-64.735-14.83M670.87 1289.345c-41.243.452-80.155-3.004-119.253-17.968M635.494 1264.313c-6.732-1.75-12.944-5.282-19.148-8.816M691.76 1203.844c-5.285-1.755-10.168 4.236-14.615 1.29M815.25 1185.31c-15.977.058-32.4-4.917-48.375-4.857-15.1.354-31.072.417-46.215-.714M882.99 1186.83c-11.88.93-23.504.978-35.43.427M594.238 1230.333c-1.5-1.477-2.993-2.95-3.922-4.725M861.157 1185.433c-61.985-12.804-121.27-19.048-183.894-5.183-15.01 3.315-29.487 4.85-45.16 5.503-12.455 1.232-26.273 5.43-38.77 5.182M541.764 1246.45c-18.79 12.807-46.95-8.63-62.844-15.383M491.383 1202.89c-5.146 2.69-11.836 2.416-17.69.954M552.35 1201.653c-3.516-1.173-7.04-2.342-10.565-3.517M600.285 1190.315c-26.945-7.01-46.402-16.413-74.527-14.53M550.998 1270.197c-7.48 2.398-29.273-7.297-37.55-12.005-12.42-7.062-24.893.175-38.588-.957-31.735-2.248-62.544-2.728-93.538-9.13-25.137-4.938-52.342-11.06-77.824-8.295-10.43.927-21.693 3.044-31.2 5.748-10.65 3.3-21.163 11.04-31.56 3.673M460.598 1246.623c-1.404 1.485-14.883-2.018-19.547-2.594-12.856-2.32-31.073.414-42.255-4.285M449.377 1193.043c-6.162-2.052-11.4-2.326-16.994-4.675M505.773 1185.858c-4.05.607-8.098 1.218-12.15 1.824M527.78 1175.48c-15.013-6.463-27.314-3.07-43.91-4.193-14.265-.838-29.93-.186-44.717.76-27.862.993-56.252 3.77-83.097 9.497-20.508 3.927-41.94 6.083-62.143 10.604-11.836 2.42-19.058 3.924-31.34 1.305-11.396-2.326-17.12.656-27.152 5.142M239.242 1247.754c-11.396 7.448-33.274 4.57-46.037 5.212-13.908 1.238-26.844 5.73-40.397 9.043-7.224 1.504-14.79.943-21.743 1.56-6.648 1.212-12.367 4.193-20.2 4.52-15.41-.238-26.817-12.34-11.153-22.77.573-.298.836-1.188 1.406-1.49M108.645 1242.913c-7.045-2.338-11.273-7.657-2.07-10.95 4.88-1.795 9.633 1.742 15.09-.353M236.256 1197.4c-10.518-2.03-20.64-.512-30.28-2.25-11.974-2.03-21.044-4.07-32.926-3.138-14.79.945-35.786-1.644-48.9 6.7M128.566 1219.733c-6.162-2.05-28.832-2.26-20.324 9.854M136.566 1205.78c-7.262.026-24.736-1.393-22.662 9.562M149.77 1200.397c-2.334-.287-4.355.017-6.12-.57M125.17 1203.454c-.044-1.48-.092-2.962-.71-4.148M130.434 1242.835c-10.432.93-20.334.073-29.623.405M233.072 1235.927c-1.45.006-2.33-.285-2.95-1.47M788.516 1290.283c-6.287 3.282-16.717 4.21-23.72 3.348M831.89 1245.088c1.976-1.786 3.688-2.68 4.792-4.756M951.62 1210.744c-22.384-11.852-50.034-23.702-76.368-22.385M879.203 1230.494c6.582-3.95 13.165-7.9 17.115-13.17"/></g><path d="M2048 0M2048 1536M0 1536M0 0" stroke="#17192D"/></g></svg>