<?xml version="1.0" encoding="iso-8859-1"?>
<!-- Generator: Adobe Illustrator 15.1.0, SVG Export Plug-In . SVG Version: 6.00 Build 0)  -->
<!DOCTYPE svg PUBLIC "-//W3C//DTD SVG 1.1//EN" "http://www.w3.org/Graphics/SVG/1.1/DTD/svg11.dtd">
<svg version="1.1" xmlns="http://www.w3.org/2000/svg" xmlns:xlink="http://www.w3.org/1999/xlink" x="0px" y="0px" width="2048px"
	 height="1536px" viewBox="0 0 2048 1536" style="enable-background:new 0 0 2048 1536;" xml:space="preserve">
<g id="f1a_x5F_corpus">
	<g>
		<path style="fill:none;stroke:#FF0050;stroke-width:3;" d="M1003.555,1326.244c1.195-3.95,3.59-6.986,2.991-10.937
			c-0.598-3.645-2.69-6.38-2.394-10.024"/>
		<path style="fill:none;stroke:#FF0050;stroke-width:3;" d="M1017.014,1432.262c11.661-1.519,24.221,0.303,35.887,0
			c7.774-0.303,14.652-1.822,22.128-0.607c6.28,0.91,12.56,3.037,18.541,5.468c7.776,3.038,14.652,3.948,23.028,5.468
			c6.279,1.216,12.857,2.735,19.736,2.735"/>
		<path style="fill:none;stroke:#FF0050;stroke-width:3;" d="M1147.996,1194.405c-13.156,0-26.912,3.037-39.774,5.772
			c-6.876,1.82-14.056,3.036-20.933,4.86c-7.176,1.82-13.457,4.556-20.633,5.163c-30.205,1.823-58.016,4.558-81.045,26.732
			c-3.588,3.038-7.177,5.468-9.27,9.418"/>
		<path style="fill:none;stroke:#FF0050;stroke-width:3;" d="M1014.918,1431.046c-9.568-3.645-18.238-5.772-27.211-10.633
			c-8.674-4.86-18.542-9.111-26.617-14.884"/>
		<path style="fill:none;stroke:#FF0050;stroke-width:3;" d="M1098.952,1416.465c-3.888-5.163-7.177-11.543-7.774-17.924
			c-0.598-6.985,4.484-11.542,5.082-17.922"/>
		<path style="fill:none;stroke:#FF0050;stroke-width:3;" d="M1113.309,1239.363c-4.188-6.074-9.273-13.366-6.881-21.265"/>
		<path style="fill:none;stroke:#FF0050;stroke-width:3;" d="M1160.857,1201.998c0.895-2.732,2.691-5.771,4.486-8.201"/>
		<path style="fill:none;stroke:#FF0050;stroke-width:3;" d="M1186.873,1214.453c-0.299-5.164-0.299-10.024,3.291-13.973"/>
		<path style="fill:none;stroke:#FF0050;stroke-width:3;" d="M1210.199,1211.719c-0.896,0.913-1.195,3.343-1.494,4.86"/>
		<path style="fill:none;stroke:#FF0050;stroke-width:3;" d="M1188.367,1444.412c-6.578-2.127-9.867-8.202-14.652-13.063
			c-5.084-5.466-14.354-4.555-19.139-10.631"/>
		<path style="fill:none;stroke:#FF0050;stroke-width:3;" d="M1202.125,1428.616c-4.785-5.163-10.168-20.05-17.943-20.354"/>
		<path style="fill:none;stroke:#FF0050;stroke-width:3;" d="M1157.566,1444.716c-2.691-2.126-5.383-3.948-8.373-5.466"/>
		<path style="fill:none;stroke:#FF0050;stroke-width:3;" d="M1217.377,1462.032c-7.178-0.305-14.953,1.822-22.43,1.822
			c-6.58,0-12.561-0.607-18.838-2.733c-13.756-4.254-27.215-8.505-39.775-15.493l0,0"/>
		<path style="fill:none;stroke:#FF0050;stroke-width:3;" d="M1218.871,1460.817c6.881-1.216,14.057,3.339,20.635,4.859
			c7.178,1.521,14.055,3.038,20.934,3.646c14.355,1.216,28.41,1.823,42.465,1.823c5.98,0,16.148-2.431,20.635,1.215"/>
		<path style="fill:none;stroke:#FF0050;stroke-width:3;" d="M1149.492,1194.708c2.99,0,7.773-2.126,11.064-3.037
			c7.477-1.519,15.25-1.823,22.729-2.127c13.756-0.303,27.213-1.518,41.27,0.304c3.588,0.305,7.178,0.609,10.766,0.609l0,0
			c12.559-5.166,27.811-3.343,41.566-4.255c12.859-0.911,26.914-1.519,40.072-0.606c7.178,0.606,14.654,3.036,22.131,3.036"/>
		<path style="fill:none;stroke:#FF0050;stroke-width:3;" d="M1362.715,1231.161c-16.746,0-32.598,0.305-48.445-4.251
			c-6.58-1.52-13.158-3.646-19.439-5.47c-5.98-1.519-11.961-6.379-17.943-6.682"/>
		<path style="fill:none;stroke:#FF0050;stroke-width:3;" d="M1439.57,1241.187c-11.662,0-23.624-0.608-34.988-3.037
			c-8.076-1.52-15.85-3.948-23.924-4.558"/>
		<path style="fill:none;stroke:#FF0050;stroke-width:3;" d="M1368.996,1220.834c3.887-6.987,13.455-10.331,20.633-11.848"/>
		<path style="fill:none;stroke:#FF0050;stroke-width:3;" d="M1370.789,1204.733c-5.082-2.43-8.074-8.812-14.955-9.113"/>
		<path style="fill:none;stroke:#FF0050;stroke-width:3;" d="M1333.707,1219.011c-7.477,0.911-13.457-1.519-20.635-1.519"/>
		<path style="fill:none;stroke:#FF0050;stroke-width:3;" d="M1359.424,1425.579c-11.062,0.606-22.428,2.125-33.193,3.34
			c-8.076,0.61-16.447,0-24.223,1.521"/>
		<path style="fill:none;stroke:#FF0050;stroke-width:3;" d="M1392.32,1422.844c-3.887,1.52-8.073,2.735-11.963,2.735"/>
		<path style="fill:none;stroke:#FF0050;stroke-width:3;" d="M1384.544,1440.768c-7.177,1.215-15.548-1.823-22.427-3.948"/>
		<path style="fill:none;stroke:#FF0050;stroke-width:3;" d="M1347.463,1452.919c-3.289,1.518-5.98,1.518-9.27,1.518"/>
		<path style="fill:none;stroke:#FF0050;stroke-width:3;" d="M1328.324,1473.272c6.818,2.039,12.359,6.774,18.857,9.408
			c5.625,2.003,11.902,2.201,17.871,2.693c12.535,1.007,25.033,3.224,37.631,2.104"/>
		<path style="fill:none;stroke:#FF0050;stroke-width:3;" d="M1407.439,1488.539c5.409-0.739,12.156,3.728,17.498,5.112
			c6.537,1.424,13.107,1.933,19.682,2.142c15.243,0.481,30.086-5.428,45.033-4.957c13.449,0.426,26.891,1.153,40.098-0.251"/>
		<path style="fill:none;stroke:#FF0050;stroke-width:3;" d="M1539.316,1490.836c13.121-2.365,27.254,1.937,40.672-0.433"/>
		<path style="fill:none;stroke:#FF0050;stroke-width:3;" d="M1573.029,1485.971c19.014,9.684,40.08,0.19,57.893-7.425"/>
		<path style="fill:none;stroke:#FF0050;stroke-width:3;" d="M1553.807,1436.515c2.692-1.82,5.682-3.646,8.674-3.948"/>
		<path style="fill:none;stroke:#FF0050;stroke-width:3;" d="M1418.637,1418.897c28.707-3.039,56.818-4.861,85.529-4.861
			c19.139,0,39.174,1.216,58.014,4.557"/>
		<path style="fill:none;stroke:#FF0050;stroke-width:3;" d="M1378.562,1388.215c9.572-1.216,21.831,0,30.207,4.253
			c8.971,4.556,22.428,13.062,28.109,21.265"/>
		<path style="fill:none;stroke:#FF0050;stroke-width:3;" d="M1378.266,1277.944c5.083-2.43,11.363-2.127,17.045-3.646
			c5.682-1.824,11.065-4.557,16.15-7.596c11.064-7.595,20.633-16.403,31.1-24.606"/>
		<path style="fill:none;stroke:#FF0050;stroke-width:3;" d="M1341.781,1186.507c7.475,0,14.053-3.646,20.934-5.771
			c6.578-2.431,13.756-3.646,20.634-4.86c6.579-1.521,12.86-1.521,19.14-3.344c7.175-1.822,14.056-3.645,20.932-4.86
			c29.309-5.468,60.11-7.29,90.018-7.29c4.484,0,14.354-1.519,17.043,0.607"/>
		<path style="fill:none;stroke:#FF0050;stroke-width:3;" d="M1547.526,1174.051c-1.792-1.216-3.587-2.733-5.382-4.251"/>
		<path style="fill:none;stroke:#FF0050;stroke-width:3;" d="M1584.311,1174.355c-5.682-0.607-11.067-5.468-15.85-8.201"/>
		<path style="fill:none;stroke:#FF0050;stroke-width:3;" d="M1552.91,1208.379c-0.898-2.431-2.094-4.861-2.094-7.291"/>
		<path style="fill:none;stroke:#FF0050;stroke-width:3;" d="M1444.355,1241.187c14.354,0,28.108-3.037,42.166-4.253
			c15.25-1.216,30.502-3.342,45.456-5.468c7.774-1.215,15.251-1.823,22.128-5.771c7.177-4.558,11.064-6.684,19.738-6.684"/>
		<path style="fill:none;stroke:#FF0050;stroke-width:3;" d="M1568.461,1419.809c10.168-3.646,21.23-3.041,31.699-3.041"/>
		<path style="fill:none;stroke:#FF0050;stroke-width:3;" d="M1631.807,1477.62c4.779-0.393,8.314-3.493,12.472-5.089
			c3.866-1.284,8.331-2.579,12.194-3.865c7.436-2.564,15.168-5.133,22.598-7.698c14.27-5.12,29.139-9.945,43.406-15.064
			c14.857-5.435,29.693-12.386,43.934-19.025c12.457-5.994,26.473-8.376,38.301-16.184l0,0"/>
		<path style="fill:none;stroke:#FF0050;stroke-width:3;" d="M1596.572,1414.948c27.514-4.861,54.724-12.457,82.537-17.013
			c32.896-5.164,63.996-17.619,94.5-29.77c4.784-2.128,10.465-3.344,15.25-5.773c4.188-2.125,7.775-5.163,13.158-4.86"/>
		<path style="fill:none;stroke:#FF0050;stroke-width:3;" d="M1576.236,1220.225c14.951,2.431,28.109,8.506,42.164,13.064
			c14.654,5.163,31.699,6.683,47.252,9.112c16.447,2.431,32.595,3.341,49.042,7.898c16.149,4.557,31.401,12.151,47.549,16.403
			c5.386,1.521,10.468,3.342,15.552,4.557"/>
		<path style="fill:none;stroke:#FF0050;stroke-width:3;" d="M1782.879,1223.567c-8.074-5.163-17.346-8.809-26.018-12.454
			c-7.773-3.343-14.951-7.596-23.025-10.33c-14.956-4.861-29.009-11.239-43.363-16.402c-27.513-10.025-55.624-18.836-83.436-27.342
			c-12.857-3.948-28.707-4.251-40.969,0.912c-7.479,3.344-11.066,0-18.542-0.912c-5.982-0.91-12.262,0-17.046,3.04"/>
		<path style="fill:none;stroke:#FF0050;stroke-width:3;" d="M1603.747,1174.66c2.993-0.912,5.981-0.912,8.974-1.825"/>
		<path style="fill:none;stroke:#FF0050;stroke-width:3;" d="M1673.727,1210.201c5.082,1.215,10.166,2.431,15.551,3.037"/>
		<path style="fill:none;stroke:#FF0050;stroke-width:3;" d="M1683.596,1412.82c2.988,0.302,5.98-1.519,8.371-2.431"/>
		<path style="fill:none;stroke:#FF0050;stroke-width:3;" d="M1565.77,1467.803c-2.092-1.82-4.487-4.556-5.98-6.985"/>
		<path style="fill:none;stroke:#FF0050;stroke-width:3;" d="M1588.797,1470.843c2.691-0.305,5.68,0,7.775-2.128"/>
		<path style="fill:none;stroke:#FF0050;stroke-width:3;" d="M1366.602,1380.314c-3.289-0.91-5.68-5.163-8.373-7.594
			c-2.992-2.43-6.279-4.555-9.27-6.985c-5.98-5.164-11.064-11.238-17.346-15.796c-5.084-3.949-10.168-6.988-15.85-10.329
			c-4.785-2.735-11.365-8.506-17.346-8.506"/>
		<path style="fill:none;stroke:#FF0050;stroke-width:3;" d="M1326.529,1304.979c-0.299-0.912,36.484-27.645,41.268-28.25"/>
		<path style="fill:none;stroke:#FF0050;stroke-width:3;" d="M1242.197,1397.936c-0.598-0.304-1.494-0.304-2.094-0.304"/>
		<path style="fill:none;stroke:#FF0050;stroke-width:3;" d="M1245.787,1239.062c-0.6,0-0.896,0-1.494-0.306"/>
		<path style="fill:none;stroke:#FF0050;stroke-width:3;" d="M1255.355,1239.667c-1.494,9.115-18.541,9.72-21.531,0.608
			c-3.59-11.24,23.027-13.365,21.531,0.911"/>
		<path style="fill:none;stroke:#FF0050;stroke-width:3;" d="M1249.676,1398.238c0.895,9.114-22.131,8.81-18.543-2.431
			c2.99-9.112,26.016-7.897,19.438,4.861"/>
		<path style="fill:none;stroke:#FF0050;stroke-width:3;" d="M1191.957,1339.61c1.498-3.038,3.889-5.165,6.578-6.985"/>
		<path style="fill:none;stroke:#FF0050;stroke-width:3;" d="M1200.33,1303.157c-2.094-2.431-4.785-5.166-6.58-7.898"/>
		<path style="fill:none;stroke:#FF0050;stroke-width:3;" d="M1143.51,1292.222c-1.793-2.735-2.689-6.381-5.383-8.202"/>
		<path style="fill:none;stroke:#FF0050;stroke-width:3;" d="M1127.064,1342.648c1.793-3.038,3.887-6.379,6.279-8.809"/>
		<path style="fill:none;stroke:#FF0050;stroke-width:3;" d="M1029.272,1290.096c1.198,1.82,0.601,0.303,0.601-1.52
			c0-3.341-1.796-6.381-1.198-9.721"/>
		<path style="fill:none;stroke:#FF0050;stroke-width:3;" d="M1022.994,1358.14c0.598-1.215,0.598-4.86,1.793-6.986"/>
		<path style="fill:none;stroke:#FF0050;stroke-width:3;" d="M1057.085,1360.874c0.298-3.342-0.299-6.683-0.599-10.023"/>
		<path style="fill:none;stroke:#FF0050;stroke-width:3;" d="M1061.571,1281.591c0.299-1.826,0.897-3.646,1.794-5.166"/>
		<path style="fill:none;stroke:#FF0050;stroke-width:3;" d="M1064.561,1318.043c-2.391-0.912-4.484,0.303-5.383,2.125
			c0.301-1.822,0-3.95-0.598-5.77c0.598,0.909,0.301,2.125,0.598,3.035c-0.895,0-1.494,0.305-2.093,0.305"/>
		<path style="fill:none;stroke:#FF0050;stroke-width:3;" d="M1027.779,1321.991c0-0.912,1.493-3.948,2.392-5.468
			c-0.898-1.216-2.094-2.735-2.692-3.95"/>
		<path style="fill:none;stroke:#FF0050;stroke-width:3;" d="M1004.453,1321.991c-3.589-0.303-6.281-7.29-2.094-9.418"/>
		<path style="fill:none;stroke:#FF0050;stroke-width:3;" d="M944.045,1360.874c-7.176-10.327-10.168-24.604-11.365-36.756
			c-1.494-14.278,2.094-26.127,8.075-38.883c1.497-3.342,3.29-6.686,5.084-9.721"/>
		<path style="fill:none;stroke:#FF0050;stroke-width:3;" d="M1235.918,1441.07c6.877-3.036,14.355-3.948,21.531-6.076
			c6.58-2.125,12.561-7.29,19.438-8.505"/>
		<path style="fill:none;stroke:#FF0050;stroke-width:3;" d="M1241.6,1207.771c-1.496-1.518-6.879-1.215-9.27-0.606"/>
		<path style="fill:none;stroke:#FF0050;stroke-width:3;" d="M1217.977,1265.488c-1.197-4.859-2.096-10.936-2.096-15.188"/>
		<path style="fill:none;stroke:#FF0050;stroke-width:3;" d="M1212.293,1383.657c-1.197-6.379,1.195-12.151,1.195-18.227"/>
		<path style="fill:none;stroke:#FF0050;stroke-width:3;" d="M1270.607,1321.688c-4.486,0-8.674,0.303-13.158,0.303"/>
		<path style="fill:none;stroke:#FF0050;stroke-width:3;" d="M1810.691,1410.087c13.755-3.95,26.316,0,40.072,0.605
			c15.25,0.609,27.211-8.506,41.27-11.542c9.268-2.127,18.242-3.645,26.613-8.202c3.588-1.823,7.775-3.343,8.373-7.898
			c0.598-3.646-1.794-7.291-5.383-7.291"/>
		<path style="fill:none;stroke:#FF0050;stroke-width:3;" d="M1807.701,1355.407c2.689-2.431,8.67-3.343,12.259-5.772
			c6.88-4.559,12.263-11.239,19.438-15.492c12.86-7.898,25.722-4.86,39.774-4.253c5.684,0.303,10.766,0,16.148-2.127
			c3.291-1.214,9.869-4.557,11.365,0.304"/>
		<path style="fill:none;stroke:#FF0050;stroke-width:3;" d="M1870.502,1348.722c12.561-1.216,32.895-4.556,35.885-19.745"/>
		<path style="fill:none;stroke:#FF0050;stroke-width:3;" d="M1836.109,1373.936c8.074-0.606,14.953-4.859,22.129-9.113
			c3.291-2.125,7.177-4.555,9.869-7.595c2.395-2.126,3.59-5.163,5.684-7.593"/>
		<path style="fill:none;stroke:#FF0050;stroke-width:3;" d="M1869.305,1347.204c-0.898-2.431-2.991-5.163-5.682-5.772"/>
		<path style="fill:none;stroke:#FF0050;stroke-width:3;" d="M1883.659,1387.303c2.093-2.127,4.485-3.646,6.876-4.558"/>
		<path style="fill:none;stroke:#FF0050;stroke-width:3;" d="M1888.742,1369.076c0-1.823,2.39-4.254,4.188-5.163"/>
		<path style="fill:none;stroke:#FF0050;stroke-width:3;" d="M1889.043,1353.585c-0.301-1.823-0.6-3.948,0-5.773"/>
		<path style="fill:none;stroke:#FF0050;stroke-width:3;" d="M1892.93,1382.745c11.363-4.251,23.027-4.556,34.09-9.416
			c6.283-2.734,29.008-10.329,17.346-19.138"/>
		<path style="fill:none;stroke:#FF0050;stroke-width:3;" d="M1906.387,1315.916c-2.094-6.076-4.186-11.239-9.568-14.581
			c-4.487-3.038-9.872-2.733-14.656-4.86c-11.363-4.861-18.539-6.379-30.801-3.948"/>
		<path style="fill:none;stroke:#FF0050;stroke-width:3;" d="M1777.197,1272.172c7.477-0.912,13.758,6.378,20.633,7.898l0,0
			c4.188,5.468,11.963,11.846,17.646,16.404c5.383,4.555,12.258,6.683,18.541,10.328c6.578,3.948,10.467,7.896,18.838,8.505
			c6.577,0.606,12.86-0.304,19.738-0.609c5.979-0.303,12.859-0.91,18.839-0.303c3.888,0.303,10.769,4.253,14.058,1.822"/>
		<path style="fill:none;stroke:#FF0050;stroke-width:3;" d="M1890.836,1262.449c-1.496-1.216-2.691-2.732-3.589-4.251"/>
		<path style="fill:none;stroke:#FF0050;stroke-width:3;" d="M1894.723,1280.676c-0.896-0.605-1.494-1.518-2.094-2.733"/>
		<path style="fill:none;stroke:#FF0050;stroke-width:3;" d="M1891.734,1295.257c-0.302-0.605-0.898-1.215-1.797-1.518"/>
		<path style="fill:none;stroke:#FF0050;stroke-width:3;" d="M1908.181,1316.827c11.363-1.52,22.728,1.215,34.091,0.303"/>
		<path style="fill:none;stroke:#FF0050;stroke-width:3;" d="M1893.826,1295.562c4.785-0.306,9.57,2.429,13.758,3.949
			c5.98,1.821,11.96,2.126,17.642,3.646c5.384,1.215,14.654-0.912,19.44,1.517c4.783,2.432,4.783,13.064-2.094,12.456"/>
		<path style="fill:none;stroke:#FF0050;stroke-width:3;" d="M1896.221,1280.07c3.885,1.823,7.773,1.518,11.363,2.43
			c3.289,0.91,6.277,2.431,9.568,3.036c6.58,1.216,13.158,3.04,19.736,4.557c4.785,0.913,18.242,3.344,13.758-6.378
			c-2.691-5.772-11.961-6.987-17.047-8.811c-7.475-3.038-14.953-5.466-22.428-7.896c-5.982-2.128-13.158-6.38-19.438-4.86"/>
		<path style="fill:none;stroke:#FF0050;stroke-width:3;" d="M1950.346,1306.803c4.188-0.609,8.076-3.95,6.879-8.506
			c-1.197-4.255-4.783-4.255-7.775-6.381"/>
		<path style="fill:none;stroke:#FF0050;stroke-width:3;" d="M1929.114,1270.957c16.446-7.291-17.644-19.441-23.325-20.657
			c-6.879-1.518-13.458-2.43-20.037-5.163c-6.279-2.431-11.662-6.381-18.541-7.899c-6.58-1.52-13.16-1.216-20.035-1.52
			c-5.684-0.303-11.664,1.823-17.346,0.608s-11.363-1.215-17.045-2.125c-5.684-0.912-12.262-4.256-17.943-6.076
			c-3.59-1.215-7.179-2.431-10.768-3.343"/>
		<path style="fill:none;stroke:#FF0050;stroke-width:3;" d="M1896.518,1365.128c8.373-6.686,21.83-4.558,32.299-7.9
			c3.289-1.215,5.98-3.036,9.566-3.948c2.693-0.607,7.178-0.303,9.572-1.823c6.279-4.252,2.092-10.936-4.785-11.846"/>
		<path style="fill:none;stroke:#FF0050;stroke-width:3;" d="M1892.93,1350.547c11.064-3.343,22.129-8.506,33.492-9.114
			c4.785-0.303,16.748-0.303,18.541-5.772c2.096-6.985-8.971-6.985-13.158-6.985c-8.072-0.305-15.848,0.91-23.624,0.91"/>
		<path style="fill:none;stroke:#FF0050;stroke-width:3;" d="M1869.006,1288.88c-0.299,0.304-3.591-9.115-4.785-11.24"/>
		<path style="fill:none;stroke:#FF0050;stroke-width:3;" d="M1857.043,1282.5c-2.092-3.341-6.279-5.165-8.973-7.596"/>
		<path style="fill:none;stroke:#FF0050;stroke-width:3;" d="M1858.836,1259.414c1.197,0.304,2.395,0,3.291-0.608"/>
		<path style="fill:none;stroke:#FF0050;stroke-width:3;" d="M1827.137,1264.273c0.9-2.431,2.393-5.165,4.486-6.683
			c-0.299-1.822-0.598-3.646-0.598-5.469"/>
		<path style="fill:none;stroke:#FF0050;stroke-width:3;" d="M1821.156,1376.669c-0.598,1.215-0.896,2.128-0.896,3.343"/>
		<path style="fill:none;stroke:#FF0050;stroke-width:3;" d="M1865.716,1385.479c-1.194-0.304-2.692-0.606-3.889-0.606"/>
		<path style="fill:none;stroke:#FF0050;stroke-width:3;" d="M1873.189,1370.595c1.199,1.214,2.693,0,3.59-1.519"/>
		<path style="fill:none;stroke:#FF0050;stroke-width:3;" d="M1377.84,1387.665c1.336,0,3.117-8.593,4.898-9.95"/>
		<path style="fill:none;stroke:#FF0050;stroke-width:3;" d="M1364.102,1348.44c-0.637-3.826,1.277-6.379,4.463-8.292"/>
		<path style="fill:none;stroke:#FF0050;stroke-width:3;" d="M1355.176,1319.742c7.014-5.739,14.029-8.928,21.682-12.755"/>
		<path style="fill:none;stroke:#FF0050;stroke-width:3;" d="M941.711,1204.997c-18.638,10.451-38.6,23.303-52.336,40.251
			c-6.672,8.229-42.65,41.141-52.186,44.854c-9.413,3.664-17.741,11.291-28.244,17.605c-6.303,3.792-3.413-0.618-4.273,7.662
			c-0.867,8.319,4.822,21.296,12.074,24.765c6.965,3.336,13.652,6.187,20.992,8.287c9.633,2.755,31.309,20.086,36.201,26.581
			c5.516,7.322,21.432,28.792,28.809,36.426"/>
		<path style="fill:none;stroke:#FF0050;stroke-width:3;" d="M976.322,1223.46c-7.598,5.527-20.557,17.498-29.494,19.339"/>
		<path style="fill:none;stroke:#FF0050;stroke-width:3;" d="M960.234,1220.238c-9.83,5.982-19.215,12.431-28.598,18.416
			c-6.256,4.145-16.537,17.038-24.133,16.576"/>
		<path style="fill:none;stroke:#FF0050;stroke-width:3;" d="M887.395,1279.649c2.414-2.817,8.734,1.395,11.967,2.993"/>
		<path style="fill:none;stroke:#FF0050;stroke-width:3;" d="M877.684,1357.717c4.023,0,7.6-0.921,10.727-3.223"/>
		<path style="fill:none;stroke:#FF0050;stroke-width:3;" d="M914.184,1332.584c0-0.922,0-1.84,0-2.303"/>
		<path style="fill:none;stroke:#FF0050;stroke-width:3;" d="M920.91,1353.305c4.023,10.591,10.727,20.72,17.428,29.469"/>
		<path style="fill:none;stroke:#FF0050;stroke-width:3;" d="M946.899,1404.985c-3.796-17.034-12.054-29.929-14.063-49.727
			c-2.232-19.799-2.232-43.281,0.447-62.618c1.785-12.893,5.357-24.405,10.045-34.533c4.02-8.29,9.375-13.354,13.617-20.721"/>
		<path style="fill:none;stroke:#FF0050;stroke-width:3;" d="M923.592,1297.591c1.789-11.972,5.363-22.562,11.617-32.69"/>
		<path style="fill:none;stroke:#FF0050;stroke-width:3;" d="M934.826,1397.803c1.66,8.828,8.842,15.786,12.262,23.573"/>
		<path style="fill:none;stroke:#FF0050;stroke-width:3;" d="M905.27,1386.917c1.787,1.84,4.021,3.684,5.809,5.064"/>
		<path style="fill:none;stroke:#FF0050;stroke-width:3;" d="M835.032,1340.324c-2.72-0.023-5.115-1.855-7.073-3.61"/>
		<path style="fill:none;stroke:#FF0050;stroke-width:3;" d="M808.244,1313.501c3.85-1.157,8.295-3.456,11.054-6.692"/>
		<path style="fill:none;stroke:#FF0050;stroke-width:3;" d="M809.109,1329.17c4.469,1.842,8.938,5.524,12.514,8.286"/>
		<path style="fill:none;stroke:#FF0050;stroke-width:3;" d="M946.489,1401.881c-1.181,7.444,4.796,14.898,7.084,19.969
			c2.095,4.035,9.323,10.443,9.837,15.477c1.318,11.206-7.546,6.604-9.631,1.921c-2.926,6.777-10.055,9.821-14.914,10.741
			c-0.404,0.077-10.05,2.905-10.455,2.982c-2.941-1.078-4.668-8.516-6.476-11.416c-6.185-10.021-11.257-24.258-19.187-30.127"/>
		<path style="fill:none;stroke:#FF0050;stroke-width:3;" d="M948.93,1257.979c5.953-10.384,10.993-19.353,19.238-27.377
			c3.207-2.83,9.164-8.022,10.08-11.8c1.832-4.721-0.916-9.911-5.498-4.247c-2.291-6.606-6.414-2.833-10.537-3.305
			c-3.664-0.471-4.123-2.832-7.787-2.359c-1.834,0.472-6.414,5.19-7.789,6.61"/>
		<path style="fill:none;stroke:#FF0050;stroke-width:3;" d="M1018.088,1217.303c-8.211-0.756-30.228-6.462-36.162-1.948"/>
		<path style="fill:none;stroke:#FF0050;stroke-width:3;" d="M963.291,1441.686c19.234-2.098,34.805-0.7,51.289-9.096"/>
		<path style="fill:none;stroke:#FF0050;stroke-width:3;" d="M949.84,1437.487c-1.832-3.667-5.955-6.413-8.703-10.537
			c-2.291-4.581-3.664-10.537-6.873-14.202"/>
		<path style="fill:none;stroke:#FF0050;stroke-width:3;" d="M931.127,1425.314c-0.648-5.829-3.889-8.425-6.479-12.957"/>
		<path style="fill:none;stroke:#FF0050;stroke-width:3;" d="M882.288,1363.047c-5.909-0.864-10.72-4.409-15.561-7.495"/>
		<path style="fill:none;stroke:#FF0050;stroke-width:3;" d="M878.281,1271.456c-6.068,2.122-15.842,8.095-21.633,12.988"/>
		<path style="fill:none;stroke:#FF0050;stroke-width:3;" d="M1528.648,1266.972c-4.508-1.456-5.697-3.044-10.27-3.91
			c-7.754-1.344-15.678-0.155-23.158,2.153c-1.24,0.473-2.456,0.812-3.655,1.013"/>
		<path style="fill:none;stroke:#FF0050;stroke-width:3;" d="M1493.295,1387.398c3.926,0.957,7.832,2.202,11.779,2.751
			c6.693,0.856,10.113,0.137,16.375-1.561c1.029-0.347,2.047-0.6,3.061-0.754"/>
		<path style="fill:none;stroke:#FF0050;stroke-width:3;" d="M1406.26,1391.358c-0.617-3.059-0.857-6.513-0.674-10.403"/>
		<path style="fill:none;stroke:#FF0050;stroke-width:3;" d="M1529.464,1400.472c-21.423-0.207-64.124,14.3-93.36,12.221"/>
		<path style="fill:none;stroke:#FF0050;stroke-width:3;" d="M1526.27,1257.288c-19.467-0.654-55.621-14.634-82.834-16.123"/>
		<path style="fill:none;stroke:#FF0050;stroke-width:3;" d="M1605.043,1327.53c0.487,0.021-3.355-0.566-4.797-0.625"/>
		<path style="fill:none;stroke:#FF0050;stroke-width:3;" d="M1606.631,1328.052c1.432,0.817,4.58,1.361,4.008,4.088
			c-3.721,1.648-7.162-2.171-10.598-0.524"/>
		<path style="fill:none;stroke:#FF0050;stroke-width:3;" d="M1599.747,1327.22c1.946-23.773-9.806-48.759-30.519-62.248
			c-5.34-3.515-11.201-6.207-17.318-7.964c-5.266-1.518-12.637-1.804-16.068-6.986"/>
		<path style="fill:none;stroke:#FF0050;stroke-width:3;" d="M1600.348,1329.789c3.035,37.104-23.699,74.834-69.963,70.609"/>
		<path style="fill:none;stroke:#FF0050;stroke-width:3;" d="M1492.281,1387.41c-10.076-0.163-14.641,1.891-24.5,0.045
			c-3.667-0.654-7.101-1.869-10.289-3.391c-5.746-2.723-15.982-1.823-21.959-4.66c-7.879-3.717-13.27-9.468-22.02-14.029
			c-8.752-4.487-15.833-13.193-17.436-25.458c-0.607-4.235-0.293-10.791-0.166-14.571"/>
		<path style="fill:none;stroke:#FF0050;stroke-width:3;" d="M1491.756,1266.028c-10.08,0.215-14.642-1.858-24.5,0.062
			c-3.664,0.678-7.098,1.931-10.296,3.494c-5.745,2.791-15.974,1.924-21.954,4.836c-7.879,3.813-13.266,9.699-22.02,14.379
			c-8.752,4.6-15.834,13.463-17.434,25.939c-0.607,4.309-0.295,10.969-0.164,14.814"/>
		<path style="fill:none;stroke:#FF0050;stroke-width:3;" d="M1530.623,1258.715"/>
		<path style="fill:none;stroke:#FF0050;stroke-width:3;" d="M1537.076,1257.531c-1.771-0.452-3.354-1.075-5.02-1.821
			c-1.652-0.751-3.558-0.293-4.381,1.428c-0.742,1.554-0.141,3.844,1.516,4.586"/>
		<path style="fill:none;stroke:#FF0050;stroke-width:3;" d="M1531.363,1268.661"/>
		<path style="fill:none;stroke:#FF0050;stroke-width:3;" d="M1531.114,1265.271c-4.212,0.202-3.717,6.991,0.497,6.779"/>
		<path style="fill:none;stroke:#FF0050;stroke-width:3;" d="M1532.41,1276.567"/>
		<path style="fill:none;stroke:#FF0050;stroke-width:3;" d="M1533.041,1273.256c-1.77-0.304-3.493,0.71-3.846,2.588
			c-0.33,1.74,0.818,3.744,2.586,4.039"/>
		<path style="fill:none;stroke:#FF0050;stroke-width:3;" d="M1533.406,1283.747"/>
		<path style="fill:none;stroke:#FF0050;stroke-width:3;" d="M1533.154,1280.367c-1.785,0.008-3.148,1.801-3.016,3.578
			c0.139,1.915,1.729,3.201,3.514,3.188"/>
		<path style="fill:none;stroke:#FF0050;stroke-width:3;" d="M1532.309,1291.054"/>
		<path style="fill:none;stroke:#FF0050;stroke-width:3;" d="M1532.061,1287.669c-1.785,0.023-3.15,1.806-3.018,3.59
			c0.138,1.915,1.73,3.211,3.516,3.178"/>
		<path style="fill:none;stroke:#FF0050;stroke-width:3;" d="M1534.408,1297.433"/>
		<path style="fill:none;stroke:#FF0050;stroke-width:3;" d="M1535.037,1294.117c-1.772-0.251-3.484,0.716-3.846,2.619
			c-0.322,1.713,0.814,3.771,2.586,4.018"/>
		<path style="fill:none;stroke:#FF0050;stroke-width:3;" d="M1534.418,1307.074"/>
		<path style="fill:none;stroke:#FF0050;stroke-width:3;" d="M1534.172,1303.695c-4.217,0.281-3.719,7.052,0.491,6.761"/>
		<path style="fill:none;stroke:#FF0050;stroke-width:3;" d="M1536.715,1312.936"/>
		<path style="fill:none;stroke:#FF0050;stroke-width:3;" d="M1537.344,1309.62c-4.143-0.953-5.38,5.698-1.258,6.637"/>
		<path style="fill:none;stroke:#FF0050;stroke-width:3;" d="M1534.619,1322.488"/>
		<path style="fill:none;stroke:#FF0050;stroke-width:3;" d="M1533.512,1319.299c-1.752,0.382-2.518,2.768-1.973,4.332
			c0.659,1.913,2.445,2.434,4.19,2.046c-0.337,0.077-0.306,0.075,0.098-0.008c0.345-0.065,0.69-0.119,1.034-0.171
			c0.742-0.12,1.487-0.195,2.238-0.266"/>
		<path style="fill:none;stroke:#FF0050;stroke-width:3;" d="M1536.719,1328.832"/>
		<path style="fill:none;stroke:#FF0050;stroke-width:3;" d="M1536.471,1325.459c-1.787,0.058-3.15,1.852-3.02,3.632
			c0.141,1.904,1.729,3.179,3.518,3.117"/>
		<path style="fill:none;stroke:#FF0050;stroke-width:3;" d="M1538.139,1335.461"/>
		<path style="fill:none;stroke:#FF0050;stroke-width:3;" d="M1538.768,1332.14c-1.727-0.459-3.521,0.954-3.844,2.682
			c-0.358,1.897,0.858,3.508,2.588,3.964"/>
		<path style="fill:none;stroke:#FF0050;stroke-width:3;" d="M1536.473,1344.512"/>
		<path style="fill:none;stroke:#FF0050;stroke-width:3;" d="M1536.225,1341.14c-1.75,0.366-3.168,1.642-3.02,3.649
			c0.123,1.674,1.762,3.468,3.518,3.091"/>
		<path style="fill:none;stroke:#FF0050;stroke-width:3;" d="M1538.16,1351.587"/>
		<path style="fill:none;stroke:#FF0050;stroke-width:3;" d="M1537.912,1348.216c-4.211,0.371-3.719,7.123,0.498,6.741"/>
		<path style="fill:none;stroke:#FF0050;stroke-width:3;" d="M1536.408,1359.449"/>
		<path style="fill:none;stroke:#FF0050;stroke-width:3;" d="M1536.158,1356.08c-4.216,0.37-3.717,7.127,0.496,6.738"/>
		<path style="fill:none;stroke:#FF0050;stroke-width:3;" d="M1536.184,1369.109"/>
		<path style="fill:none;stroke:#FF0050;stroke-width:3;" d="M1535.936,1365.737c-1.75,0.399-3.166,1.672-3.016,3.685
			c0.121,1.669,1.76,3.461,3.516,3.057"/>
		<path style="fill:none;stroke:#FF0050;stroke-width:3;" d="M1535.355,1376.901"/>
		<path style="fill:none;stroke:#FF0050;stroke-width:3;" d="M1535.105,1373.528c-4.211,0.43-3.715,7.184,0.502,6.742"/>
		<path style="fill:none;stroke:#FF0050;stroke-width:3;" d="M1532.156,1384.218"/>
		<path style="fill:none;stroke:#FF0050;stroke-width:3;" d="M1531.908,1380.843c-1.787,0.037-3.145,1.979-3.02,3.713
			c0.146,1.95,1.732,3.079,3.518,3.036"/>
		<path style="fill:none;stroke:#FF0050;stroke-width:3;" d="M1527.535,1391.226"/>
		<path style="fill:none;stroke:#FF0050;stroke-width:3;" d="M1527.282,1387.845c-1.788,0.004-3.144,2.021-3.019,3.73
			c0.146,1.98,1.731,3.039,3.518,3.033"/>
		<path style="fill:none;stroke:#FF0050;stroke-width:3;" d="M1523.764,1397.196"/>
		<path style="fill:none;stroke:#FF0050;stroke-width:3;" d="M1524.394,1393.84c-1.735-0.395-3.517,1.035-3.85,2.802
			c-0.351,1.897,0.856,3.527,2.593,3.918"/>
		<line style="fill:none;stroke:#FF0050;stroke-width:3;" x1="1540.658" y1="1391.736" x2="1540.658" y2="1391.736"/>
		<path style="fill:none;stroke:#FF0050;stroke-width:3;" d="M1535.234,1249.784c-3.83-2.198-5.994,2.729-4.994,5.868"/>
		<path style="fill:none;stroke:#FF0050;stroke-width:3;" d="M1408.148,1273.054c0.18,3.528,0,6.536,0,10.062"/>
		<path style="fill:none;stroke:#FF0050;stroke-width:3;" d="M1455.094,1339.573c-0.199,1.194-0.112,2.27,0.268,3.239"/>
		<path style="fill:none;stroke:#FF0050;stroke-width:3;" d="M1457.824,1312.275c0.396,4.353-3.127,5.407-4.572,8.785
			c-0.982,2.339-1.303,4.227-0.492,5.984c0.872,1.896,2.634,3.961,3.98,5.597c1.332,1.62,1.312,4.016,1.334,6.058"/>
		<path style="fill:none;stroke:#FF0050;stroke-width:3;" d="M1468.862,1338.615c0.202,2.1-2.087,4.17-3.952,5.13
			c-1.502,0.826-5.5,1.615-6.628,0.93"/>
		<path style="fill:none;stroke:#FF0050;stroke-width:3;" d="M1469.506,1311.327c-1.33-3.31-7.938-6.411-11.568-4.244"/>
		<path style="fill:none;stroke:#FF0050;stroke-width:3;" d="M1455.105,1310.132c-0.221,0.483-0.334,1.066-0.221,1.553"/>
		<path style="fill:none;stroke:#FF0050;stroke-width:3;" d="M1511.754,1281.624c1.144,8.57,3.479,17.144,1.32,25.748
			c-0.861,3.442,4.439,4.897,5.302,1.463c1.108-4.419,1.339-8.909,0.919-13.437c-0.43-4.628-1.428-9.174-2.041-13.774
			c-0.199-1.485-1.102-2.748-2.75-2.748C1513.154,1278.876,1511.557,1280.136,1511.754,1281.624L1511.754,1281.624z"/>
		<path style="fill:none;stroke:#FF0050;stroke-width:3;" d="M1513.361,1345.25c1.938,8.976,1.438,18.611-0.977,27.448
			c-0.936,3.426,4.367,4.876,5.299,1.46c2.682-9.798,3.129-20.427,0.982-30.37
			C1517.918,1340.321,1512.617,1341.794,1513.361,1345.25L1513.361,1345.25z"/>
		<path style="fill:none;stroke:#FF0050;stroke-width:3;" d="M1432.391,1316.955c-2.627,6.792-1.57,11.82-0.139,18.345"/>
		<path style="fill:none;stroke:#FF0050;stroke-width:3;" d="M1440.986,1317.062c-0.275-5.631-6.391-9.632-8.357-14.417"/>
		<path style="fill:none;stroke:#FF0050;stroke-width:3;" d="M1432.729,1315.26c-1.168-2.965-1.777-6.824-1.496-10.188"/>
		<path style="fill:none;stroke:#FF0050;stroke-width:3;" d="M1439.756,1335.716c0.334,5.625-5.311,10.396-6.748,15.401"/>
		<path style="fill:none;stroke:#FF0050;stroke-width:3;" d="M1432.646,1337.127c-1.203,3.602-1.744,8.071-1.285,11.762"/>
		<path style="fill:none;stroke:#FF0050;stroke-width:3;" d="M1430.578,1304.222c-1.082,1.201-2.869,1.916-3.951,3.28
			c-1.342,1.698-2.551,3.447-3.508,5.305c-1.977,3.721-2.807,7.877-2.807,11.928c0,8.584,3.123,18.213,9.375,24.939
			c0.381,0.438,0.826,0.765,1.082,1.261"/>
		<path style="fill:none;stroke:#FF0050;stroke-width:3;" d="M1417.576,1321.646c-0.398,1.667-0.529,3.532-0.205,5.253"/>
		<path style="fill:none;stroke:#FF0050;stroke-width:3;" d="M1499.617,1336.463c1.195,0.332,2.09,0.997,2.393,1.99"/>
		<path style="fill:none;stroke:#FF0050;stroke-width:3;" d="M1441.193,1318.734c-0.326,1.215-0.227,2.462-0.129,3.676
			c0.063,0.983,0.063,2.524-0.92,3.117c0.758,1.083,0.886,2.624,0.758,3.905c-0.035,0.524-0.1,1.113-0.23,1.607
			c-0.164,0.558-0.43,0.951-0.494,1.573"/>
		<path style="fill:none;stroke:#FF0050;stroke-width:3;" d="M1502.625,1278c-1.913,2.186,4.096,10.925,4.643,14.202
			c1.367,7.373-1.363,13.927-5.732,19.663"/>
		<path style="fill:none;stroke:#FF0050;stroke-width:3;" d="M1498.211,1343.275c-5.838,6.008-10.451,26.487,0.311,30.584"/>
		<path style="fill:none;stroke:#FF0050;stroke-width:3;" d="M1498.803,1280.731c-12.021,6.282-6.01,21.027-1.365,30.038"/>
		<path style="fill:none;stroke:#FF0050;stroke-width:3;" d="M1502.529,1376.505c-1.91-2.186,4.096-10.922,4.643-14.199
			c1.365-7.37-1.367-13.927-5.732-19.661"/>
		<path style="fill:none;stroke:#FF0050;stroke-width:3;" d="M1492.516,1333.074c-1.158,0.383-7.801,0.527-10.275,2.378"/>
		<path style="fill:none;stroke:#FF0050;stroke-width:3;" d="M1486.734,1316.967c-3.551,0.055-6.816-1.491-9.891-3.049"/>
		<path style="fill:none;stroke:#FF0050;stroke-width:3;" d="M1455.453,1346.894c-0.591,0.584-1.574,1.179-2.363,1.572"/>
		<path style="fill:none;stroke:#FF0050;stroke-width:3;" d="M1406.777,1369.85c0.285,2.521-0.283,5.269-0.576,7.788"/>
		<path style="fill:none;stroke:#FF0050;stroke-width:3;" d="M1489.849,1347.993c0.241-1.692,1.447-2.901,2.175-4.354"/>
		<path style="fill:none;stroke:#FF0050;stroke-width:3;" d="M1451.07,1280.84c0.238-1.647,1.182-3.058,2.117-4.467"/>
		<path style="fill:none;stroke:#FF0050;stroke-width:3;" d="M1454.559,1382.076c-1.691-1.451-2.174-4.11-2.899-6.286"/>
		<path style="fill:none;stroke:#FF0050;stroke-width:3;" d="M1430.871,1356.468c0.242-0.722,0.723-1.691,1.209-2.174"/>
		<path style="fill:none;stroke:#FF0050;stroke-width:3;" d="M1493.717,1377.966c-1.935-0.726-3.386-2.176-4.354-3.865"/>
		<path style="fill:none;stroke:#FF0050;stroke-width:3;" d="M1492.24,1282.486c-0.944,0.471-2.119,0.94-3.057,1.411"/>
		<path style="fill:none;stroke:#FF0050;stroke-width:3;" d="M1421.247,1283.631c-7.965,0-15.622-0.614-23.585-1.533
			c-6.434-0.918-12.561-3.368-18.994-4.595"/>
		<path style="fill:none;stroke:#FF0050;stroke-width:3;" d="M1417.57,1369.096c-13.479-2.45-27.568,1.531-40.432,5.207"/>
	</g>
	<path style="fill:none;stroke:#17192D;stroke-width:3;" d="M2048,0"/>
	<path style="fill:none;stroke:#17192D;stroke-width:3;" d="M2048,1536"/>
	<path style="fill:none;stroke:#17192D;stroke-width:3;" d="M0,1536"/>
	<path style="fill:none;stroke:#17192D;stroke-width:3;" d="M0,0"/>
</g>
<g id="Layer_1">
</g>
</svg>
