<?xml version="1.0" encoding="iso-8859-1"?>
<!-- Generator: Adobe Illustrator 15.1.0, SVG Export Plug-In . SVG Version: 6.00 Build 0)  -->
<!DOCTYPE svg PUBLIC "-//W3C//DTD SVG 1.1//EN" "http://www.w3.org/Graphics/SVG/1.1/DTD/svg11.dtd">
<svg version="1.1" xmlns="http://www.w3.org/2000/svg" xmlns:xlink="http://www.w3.org/1999/xlink" x="0px" y="0px" width="2048px"
	 height="1536px" viewBox="0 0 2048 1536" style="enable-background:new 0 0 2048 1536;" xml:space="preserve">
<g id="f1a_x5F_bein_x5F_l">
	<g>
		<path style="fill:none;stroke:#FF0050;stroke-width:3;" d="M809.109,1332.281c-11.266-2.116-23.271-2.803-32.965,0.416
			c-12.898,3.807-24.883,4.929-37.214,9.031c-21.13,7.026-43.386,10.17-64.734,14.829"/>
		<path style="fill:none;stroke:#FF0050;stroke-width:3;" d="M678.732,1356.23c-41.244-0.452-80.154,3.005-119.254,17.969"/>
		<path style="fill:none;stroke:#FF0050;stroke-width:3;" d="M643.355,1381.262c-6.733,1.752-12.943,5.283-19.148,8.816"/>
		<path style="fill:none;stroke:#FF0050;stroke-width:3;" d="M699.621,1441.731c-5.285,1.756-10.167-4.234-14.614-1.288"/>
		<path style="fill:none;stroke:#FF0050;stroke-width:3;" d="M823.111,1460.268c-15.977-0.059-32.4,4.916-48.373,4.856
			c-15.102-0.355-31.074-0.417-46.217,0.713"/>
		<path style="fill:none;stroke:#FF0050;stroke-width:3;" d="M890.853,1458.746c-11.882-0.931-23.505-0.977-35.43-0.428"/>
		<path style="fill:none;stroke:#FF0050;stroke-width:3;" d="M602.1,1415.243c-1.498,1.477-2.994,2.95-3.922,4.725"/>
		<path style="fill:none;stroke:#FF0050;stroke-width:3;" d="M869.02,1460.144c-61.984,12.803-121.271,19.048-183.895,5.183
			c-15.01-3.315-29.486-4.851-45.16-5.503c-12.453-1.232-26.273-5.431-38.771-5.183"/>
		<path style="fill:none;stroke:#FF0050;stroke-width:3;" d="M549.626,1399.126c-18.79-12.808-46.951,8.629-62.845,15.382"/>
		<path style="fill:none;stroke:#FF0050;stroke-width:3;" d="M499.245,1442.685c-5.147-2.688-11.837-2.414-17.692-0.953"/>
		<path style="fill:none;stroke:#FF0050;stroke-width:3;" d="M560.211,1443.923c-3.516,1.172-7.039,2.342-10.566,3.516"/>
		<path style="fill:none;stroke:#FF0050;stroke-width:3;" d="M608.146,1455.261c-26.945,7.008-46.402,16.412-74.527,14.53"/>
		<path style="fill:none;stroke:#FF0050;stroke-width:3;" d="M558.859,1375.379c-7.48-2.399-29.273,7.297-37.551,12.005
			c-12.418,7.062-24.891-0.176-38.587,0.956c-31.735,2.249-62.544,2.728-93.536,9.129c-25.139,4.939-52.343,11.06-77.825,8.296
			c-10.431-0.926-21.694-3.043-31.202-5.748c-10.646-3.297-21.161-11.04-31.559-3.672"/>
		<path style="fill:none;stroke:#FF0050;stroke-width:3;" d="M468.459,1398.952c-1.404-1.484-14.883,2.018-19.547,2.594
			c-12.856,2.321-31.073-0.414-42.256,4.285"/>
		<path style="fill:none;stroke:#FF0050;stroke-width:3;" d="M457.238,1452.533c-6.162,2.052-11.4,2.325-16.994,4.675"/>
		<path style="fill:none;stroke:#FF0050;stroke-width:3;" d="M513.637,1459.718c-4.049-0.608-8.1-1.217-12.152-1.825"/>
		<path style="fill:none;stroke:#FF0050;stroke-width:3;" d="M535.643,1470.096c-15.014,6.462-27.316,3.07-43.912,4.193
			c-14.263,0.837-29.928,0.186-44.716-0.76c-27.862-0.993-56.251-3.77-83.097-9.497c-20.508-3.928-41.941-6.083-62.142-10.604
			c-11.837-2.419-19.058-3.924-31.341-1.304c-11.396,2.326-17.119-0.655-27.152-5.142"/>
		<path style="fill:none;stroke:#FF0050;stroke-width:3;" d="M247.104,1397.822c-11.396-7.448-33.274-4.571-46.036-5.212
			c-13.909-1.238-26.845-5.732-40.397-9.044c-7.225-1.504-14.791-0.943-21.742-1.561c-6.65-1.211-12.369-4.192-20.203-4.521
			c-15.406,0.24-26.815,12.343-11.152,22.77c0.572,0.3,0.836,1.19,1.406,1.491"/>
		<path style="fill:none;stroke:#FF0050;stroke-width:3;" d="M116.507,1402.663c-7.046,2.338-11.274,7.657-2.071,10.95
			c4.881,1.795,9.633-1.742,15.09,0.352"/>
		<path style="fill:none;stroke:#FF0050;stroke-width:3;" d="M244.119,1448.174c-10.52,2.033-20.643,0.513-30.28,2.252
			c-11.976,2.029-21.044,4.07-32.929,3.137c-14.789-0.945-35.785,1.644-48.898-6.7"/>
		<path style="fill:none;stroke:#FF0050;stroke-width:3;" d="M136.43,1425.843c-6.164,2.049-28.834,2.261-20.326-9.854"/>
		<path style="fill:none;stroke:#FF0050;stroke-width:3;" d="M144.428,1439.795c-7.262-0.026-24.734,1.394-22.662-9.562"/>
		<path style="fill:none;stroke:#FF0050;stroke-width:3;" d="M157.631,1445.179c-2.333,0.287-4.354-0.018-6.119,0.57"/>
		<path style="fill:none;stroke:#FF0050;stroke-width:3;" d="M133.032,1442.121c-0.044,1.481-0.093,2.963-0.71,4.149"/>
		<path style="fill:none;stroke:#FF0050;stroke-width:3;" d="M138.295,1402.74c-10.432-0.93-20.334-0.073-29.623-0.405"/>
		<path style="fill:none;stroke:#FF0050;stroke-width:3;" d="M240.934,1409.648c-1.45-0.006-2.329,0.286-2.948,1.47"/>
		<path style="fill:none;stroke:#FF0050;stroke-width:3;" d="M796.379,1355.293c-6.289-3.282-16.719-4.211-23.721-3.349"/>
		<path style="fill:none;stroke:#FF0050;stroke-width:3;" d="M839.75,1400.487c1.978,1.787,3.689,2.681,4.793,4.757"/>
		<path style="fill:none;stroke:#FF0050;stroke-width:3;" d="M892.352,1458.933c12.506,0.366,24.468-2.205,34.256-6.246"/>
	</g>
	<path style="fill:none;stroke:#17192D;stroke-width:3;" d="M2048,0"/>
	<path style="fill:none;stroke:#17192D;stroke-width:3;" d="M2048,1536"/>
	<path style="fill:none;stroke:#17192D;stroke-width:3;" d="M0,1536"/>
	<path style="fill:none;stroke:#17192D;stroke-width:3;" d="M0,0"/>
</g>
<g id="Layer_1">
</g>
</svg>
