<?xml version="1.0" encoding="iso-8859-1"?>
<!-- Generator: Adobe Illustrator 15.1.0, SVG Export Plug-In . SVG Version: 6.00 Build 0)  -->
<!DOCTYPE svg PUBLIC "-//W3C//DTD SVG 1.1//EN" "http://www.w3.org/Graphics/SVG/1.1/DTD/svg11.dtd">
<svg version="1.1" xmlns="http://www.w3.org/2000/svg" xmlns:xlink="http://www.w3.org/1999/xlink" x="0px" y="0px" width="2048px"
	 height="1536px" viewBox="0 0 2048 1536" style="enable-background:new 0 0 2048 1536;" xml:space="preserve">
<g id="f1a_x5F_bein_x5F_r">
	<g>
		<path style="fill:none;stroke:#FF0050;stroke-width:3;" d="M801.248,1313.295c-11.266,2.115-23.271,2.803-32.965-0.417
			c-12.898-3.806-24.884-4.928-37.214-9.03c-21.13-7.027-43.386-10.17-64.734-14.83"/>
		<path style="fill:none;stroke:#FF0050;stroke-width:3;" d="M670.871,1289.345c-41.244,0.452-80.156-3.004-119.254-17.968"/>
		<path style="fill:none;stroke:#FF0050;stroke-width:3;" d="M635.494,1264.313c-6.732-1.751-12.944-5.282-19.148-8.816"/>
		<path style="fill:none;stroke:#FF0050;stroke-width:3;" d="M691.76,1203.844c-5.285-1.755-10.168,4.236-14.615,1.289"/>
		<path style="fill:none;stroke:#FF0050;stroke-width:3;" d="M815.249,1185.309c-15.976,0.059-32.399-4.916-48.374-4.856
			c-15.1,0.354-31.072,0.417-46.215-0.714"/>
		<path style="fill:none;stroke:#FF0050;stroke-width:3;" d="M882.99,1186.83c-11.881,0.93-23.504,0.978-35.43,0.427"/>
		<path style="fill:none;stroke:#FF0050;stroke-width:3;" d="M594.238,1230.333c-1.5-1.477-2.993-2.95-3.922-4.725"/>
		<path style="fill:none;stroke:#FF0050;stroke-width:3;" d="M861.157,1185.433c-61.985-12.804-121.271-19.048-183.894-5.183
			c-15.01,3.315-29.487,4.851-45.16,5.503c-12.455,1.232-26.273,5.431-38.771,5.182"/>
		<path style="fill:none;stroke:#FF0050;stroke-width:3;" d="M541.764,1246.45c-18.789,12.807-46.951-8.63-62.844-15.383"/>
		<path style="fill:none;stroke:#FF0050;stroke-width:3;" d="M491.383,1202.891c-5.146,2.689-11.836,2.415-17.691,0.953"/>
		<path style="fill:none;stroke:#FF0050;stroke-width:3;" d="M552.35,1201.653c-3.516-1.173-7.041-2.342-10.565-3.517"/>
		<path style="fill:none;stroke:#FF0050;stroke-width:3;" d="M600.285,1190.315c-26.945-7.009-46.402-16.413-74.527-14.53"/>
		<path style="fill:none;stroke:#FF0050;stroke-width:3;" d="M550.998,1270.197c-7.48,2.398-29.273-7.297-37.551-12.005
			c-12.418-7.062-24.892,0.175-38.587-0.957c-31.735-2.248-62.544-2.728-93.538-9.129c-25.137-4.939-52.342-11.06-77.824-8.296
			c-10.43,0.927-21.693,3.044-31.2,5.748c-10.649,3.299-21.163,11.041-31.56,3.673"/>
		<path style="fill:none;stroke:#FF0050;stroke-width:3;" d="M460.598,1246.623c-1.404,1.485-14.883-2.018-19.547-2.594
			c-12.857-2.32-31.074,0.415-42.256-4.284"/>
		<path style="fill:none;stroke:#FF0050;stroke-width:3;" d="M449.377,1193.043c-6.162-2.052-11.4-2.326-16.994-4.675"/>
		<path style="fill:none;stroke:#FF0050;stroke-width:3;" d="M505.773,1185.858c-4.049,0.607-8.098,1.218-12.15,1.824"/>
		<path style="fill:none;stroke:#FF0050;stroke-width:3;" d="M527.781,1175.479c-15.014-6.462-27.315-3.07-43.912-4.192
			c-14.264-0.838-29.928-0.186-44.716,0.76c-27.862,0.993-56.252,3.769-83.097,9.497c-20.508,3.927-41.941,6.083-62.143,10.604
			c-11.836,2.419-19.058,3.924-31.34,1.305c-11.396-2.326-17.119,0.656-27.152,5.142"/>
		<path style="fill:none;stroke:#FF0050;stroke-width:3;" d="M239.242,1247.754c-11.396,7.448-33.274,4.571-46.037,5.212
			c-13.908,1.238-26.844,5.731-40.397,9.043c-7.224,1.505-14.79,0.944-21.743,1.561c-6.648,1.212-12.367,4.193-20.201,4.521
			c-15.408-0.239-26.816-12.342-11.152-22.77c0.573-0.299,0.836-1.189,1.406-1.49"/>
		<path style="fill:none;stroke:#FF0050;stroke-width:3;" d="M108.645,1242.913c-7.045-2.338-11.273-7.657-2.071-10.95
			c4.882-1.795,9.634,1.742,15.091-0.353"/>
		<path style="fill:none;stroke:#FF0050;stroke-width:3;" d="M236.256,1197.401c-10.518-2.032-20.641-0.513-30.279-2.252
			c-11.975-2.029-21.045-4.07-32.927-3.137c-14.79,0.945-35.786-1.644-48.899,6.7"/>
		<path style="fill:none;stroke:#FF0050;stroke-width:3;" d="M128.566,1219.733c-6.162-2.049-28.832-2.261-20.324,9.854"/>
		<path style="fill:none;stroke:#FF0050;stroke-width:3;" d="M136.566,1205.78c-7.262,0.026-24.736-1.393-22.662,9.562"/>
		<path style="fill:none;stroke:#FF0050;stroke-width:3;" d="M149.77,1200.397c-2.334-0.287-4.355,0.017-6.119-0.571"/>
		<path style="fill:none;stroke:#FF0050;stroke-width:3;" d="M125.17,1203.454c-0.044-1.481-0.092-2.962-0.709-4.148"/>
		<path style="fill:none;stroke:#FF0050;stroke-width:3;" d="M130.434,1242.835c-10.432,0.93-20.334,0.073-29.623,0.405"/>
		<path style="fill:none;stroke:#FF0050;stroke-width:3;" d="M233.072,1235.927c-1.451,0.006-2.33-0.285-2.949-1.47"/>
		<path style="fill:none;stroke:#FF0050;stroke-width:3;" d="M788.516,1290.283c-6.287,3.282-16.717,4.21-23.719,3.348"/>
		<path style="fill:none;stroke:#FF0050;stroke-width:3;" d="M831.889,1245.088c1.977-1.786,3.689-2.681,4.793-4.756"/>
		<path style="fill:none;stroke:#FF0050;stroke-width:3;" d="M951.619,1210.744c-22.383-11.852-50.033-23.702-76.367-22.385"/>
		<path style="fill:none;stroke:#FF0050;stroke-width:3;" d="M879.203,1230.494c6.582-3.95,13.165-7.9,17.115-13.169"/>
	</g>
	<path style="fill:none;stroke:#17192D;stroke-width:3;" d="M2048,0"/>
	<path style="fill:none;stroke:#17192D;stroke-width:3;" d="M2048,1536"/>
	<path style="fill:none;stroke:#17192D;stroke-width:3;" d="M0,1536"/>
	<path style="fill:none;stroke:#17192D;stroke-width:3;" d="M0,0"/>
</g>
<g id="Layer_1">
</g>
</svg>
