<svg xmlns="http://www.w3.org/2000/svg" width="2048" height="1536" viewBox="0 0 2048 1536"><g fill="none" stroke-width="3"><g stroke="#FF0050"><path d="M809.11 1332.28c-11.267-2.115-23.272-2.802-32.966.417-12.898 3.807-24.883 4.93-37.214 9.03-21.13 7.027-43.386 10.17-64.734 14.83M678.732 1356.23c-41.244-.452-80.154 3.005-119.254 17.97M643.355 1381.262c-6.733 1.752-12.943 5.283-19.148 8.816M699.62 1441.73c-5.284 1.757-10.166-4.233-14.613-1.287M823.11 1460.268c-15.976-.06-32.4 4.916-48.372 4.856-15.102-.355-31.074-.417-46.217.713M890.853 1458.746c-11.882-.93-23.505-.977-35.43-.428M602.1 1415.243c-1.498 1.477-2.994 2.95-3.922 4.725M869.02 1460.144c-61.984 12.803-121.27 19.048-183.895 5.183-15.01-3.315-29.486-4.85-45.16-5.503-12.453-1.232-26.273-5.43-38.77-5.183M549.626 1399.126c-18.79-12.808-46.95 8.63-62.845 15.382M499.245 1442.685c-5.147-2.688-11.837-2.414-17.692-.953M560.21 1443.923c-3.515 1.172-7.038 2.342-10.565 3.516M608.146 1455.26c-26.945 7.01-46.402 16.413-74.527 14.53M558.86 1375.38c-7.48-2.4-29.274 7.296-37.552 12.004-12.418 7.062-24.89-.176-38.587.956-31.734 2.25-62.543 2.728-93.535 9.13-25.14 4.938-52.343 11.06-77.825 8.295-10.43-.926-21.694-3.043-31.202-5.748-10.646-3.297-21.16-11.04-31.56-3.672M468.46 1398.952c-1.405-1.484-14.884 2.018-19.548 2.594-12.856 2.32-31.073-.414-42.256 4.285M457.238 1452.533c-6.162 2.052-11.4 2.325-16.994 4.675M513.637 1459.718l-12.152-1.825M535.643 1470.096c-15.014 6.462-27.316 3.07-43.912 4.193-14.262.836-29.927.185-44.715-.76-27.862-.994-56.25-3.77-83.097-9.498-20.508-3.928-41.94-6.083-62.142-10.604-11.837-2.42-19.058-3.924-31.34-1.304-11.397 2.326-17.12-.655-27.153-5.142M247.104 1397.822c-11.396-7.448-33.274-4.57-46.036-5.212-13.91-1.238-26.845-5.732-40.397-9.044-7.224-1.504-14.79-.943-21.74-1.56-6.65-1.212-12.37-4.193-20.204-4.522-15.406.24-26.815 12.343-11.152 22.77.572.3.836 1.19 1.406 1.49M116.507 1402.663c-7.046 2.338-11.274 7.657-2.07 10.95 4.88 1.795 9.632-1.742 15.09.352M244.12 1448.174c-10.52 2.033-20.644.513-30.28 2.252-11.977 2.03-21.045 4.07-32.93 3.137-14.79-.945-35.785 1.644-48.898-6.7M136.43 1425.843c-6.164 2.05-28.834 2.26-20.326-9.854M144.428 1439.795c-7.262-.026-24.734 1.394-22.662-9.562M157.63 1445.18c-2.332.286-4.353-.02-6.118.57M133.032 1442.12c-.044 1.482-.093 2.964-.71 4.15M138.295 1402.74c-10.432-.93-20.334-.073-29.623-.405M240.934 1409.648c-1.45-.006-2.33.286-2.948 1.47M796.38 1355.293c-6.29-3.282-16.72-4.21-23.722-3.35M839.75 1400.487c1.978 1.787 3.69 2.68 4.793 4.757M892.352 1458.933c12.506.366 24.468-2.205 34.256-6.246"/></g><path d="M2048 0M2048 1536M0 1536M0 0" stroke="#17192D"/></g></svg>