<svg xmlns="http://www.w3.org/2000/svg" width="2048" height="1536" viewBox="0 0 2048 1536"><g fill="none" stroke-width="3"><g stroke="#FF0050"><path d="M1003.555 1326.244c1.195-3.95 3.59-6.986 2.99-10.937-.597-3.645-2.69-6.38-2.393-10.024M1017.014 1432.262c11.66-1.52 24.22.303 35.887 0 7.775-.303 14.653-1.822 22.13-.607 6.28.91 12.56 3.037 18.54 5.468 7.776 3.038 14.652 3.948 23.028 5.468 6.28 1.217 12.857 2.736 19.736 2.736M1147.996 1194.405c-13.156 0-26.912 3.037-39.774 5.772-6.876 1.82-14.056 3.036-20.933 4.86-7.177 1.82-13.458 4.556-20.634 5.163-30.205 1.823-58.016 4.558-81.045 26.732-3.587 3.038-7.176 5.468-9.27 9.418M1014.918 1431.046c-9.568-3.645-18.238-5.772-27.21-10.633-8.675-4.86-18.543-9.11-26.618-14.884M1098.952 1416.465c-3.888-5.163-7.177-11.543-7.774-17.924-.598-6.984 4.484-11.54 5.082-17.92M1113.31 1239.363c-4.19-6.074-9.274-13.366-6.882-21.265M1160.857 1201.998c.895-2.732 2.69-5.77 4.486-8.2M1186.873 1214.453c-.3-5.164-.3-10.024 3.29-13.973M1210.2 1211.72c-.897.912-1.196 3.342-1.495 4.86M1188.367 1444.412c-6.578-2.127-9.867-8.202-14.652-13.063-5.084-5.467-14.354-4.556-19.14-10.632M1202.125 1428.616c-4.785-5.163-10.168-20.05-17.943-20.354M1157.566 1444.716c-2.69-2.126-5.383-3.948-8.373-5.466M1217.377 1462.032c-7.178-.305-14.953 1.822-22.43 1.822-6.58 0-12.56-.607-18.838-2.733-13.757-4.253-27.216-8.504-39.776-15.492M1218.87 1460.817c6.882-1.216 14.058 3.34 20.636 4.86 7.178 1.52 14.055 3.037 20.934 3.645 14.355 1.216 28.41 1.823 42.465 1.823 5.98 0 16.148-2.43 20.635 1.215M1149.492 1194.708c2.99 0 7.773-2.126 11.064-3.037 7.477-1.518 15.25-1.822 22.73-2.126 13.755-.303 27.212-1.518 41.27.304 3.587.305 7.177.61 10.765.61 12.56-5.167 27.812-3.344 41.567-4.256 12.86-.91 26.914-1.52 40.072-.606 7.177.606 14.653 3.036 22.13 3.036M1362.715 1231.16c-16.746 0-32.598.306-48.445-4.25-6.58-1.52-13.158-3.646-19.44-5.47-5.98-1.52-11.96-6.38-17.942-6.682M1439.57 1241.187c-11.662 0-23.624-.608-34.988-3.037-8.076-1.52-15.85-3.948-23.924-4.558M1368.996 1220.834c3.887-6.987 13.455-10.33 20.633-11.848M1370.79 1204.733c-5.083-2.43-8.075-8.812-14.956-9.113M1333.707 1219.01c-7.477.912-13.457-1.518-20.635-1.518M1359.424 1425.58c-11.062.605-22.428 2.124-33.193 3.34-8.075.61-16.446 0-24.222 1.52M1392.32 1422.844c-3.887 1.52-8.073 2.735-11.963 2.735M1384.544 1440.768c-7.177 1.215-15.548-1.823-22.427-3.948M1347.463 1452.92c-3.29 1.517-5.98 1.517-9.27 1.517M1328.324 1473.272c6.818 2.04 12.36 6.774 18.857 9.408 5.626 2.003 11.903 2.2 17.872 2.693 12.535 1.007 25.033 3.224 37.63 2.104M1407.44 1488.54c5.408-.74 12.155 3.727 17.497 5.11 6.537 1.425 13.107 1.934 19.682 2.143 15.242.48 30.085-5.428 45.032-4.957 13.45.426 26.89 1.153 40.098-.25M1539.316 1490.836c13.12-2.365 27.254 1.937 40.672-.433M1573.03 1485.97c19.013 9.685 40.08.19 57.892-7.424M1553.807 1436.515c2.692-1.82 5.682-3.646 8.674-3.948M1418.637 1418.897c28.707-3.04 56.818-4.86 85.53-4.86 19.138 0 39.173 1.215 58.013 4.556M1378.562 1388.215c9.572-1.216 21.83 0 30.207 4.253 8.97 4.556 22.427 13.062 28.108 21.265M1378.266 1277.944c5.083-2.43 11.363-2.127 17.045-3.646 5.683-1.824 11.066-4.557 16.15-7.596 11.065-7.595 20.634-16.403 31.1-24.606M1341.78 1186.507c7.476 0 14.054-3.646 20.935-5.77 6.578-2.432 13.756-3.647 20.634-4.86 6.578-1.522 12.86-1.522 19.14-3.345 7.174-1.822 14.055-3.645 20.93-4.86 29.31-5.468 60.11-7.29 90.02-7.29 4.483 0 14.353-1.52 17.042.607M1547.526 1174.05c-1.792-1.215-3.587-2.732-5.382-4.25M1584.31 1174.355c-5.68-.607-11.066-5.468-15.85-8.2M1552.91 1208.38c-.898-2.432-2.094-4.862-2.094-7.292M1444.355 1241.187c14.354 0 28.108-3.037 42.166-4.253 15.25-1.216 30.503-3.342 45.457-5.468 7.774-1.215 15.25-1.823 22.128-5.77 7.177-4.56 11.064-6.685 19.738-6.685M1568.46 1419.81c10.17-3.647 21.23-3.042 31.7-3.042M1631.807 1477.62c4.78-.393 8.314-3.493 12.472-5.09 3.865-1.283 8.33-2.578 12.193-3.864 7.436-2.564 15.168-5.133 22.598-7.698 14.27-5.12 29.14-9.945 43.407-15.064 14.857-5.435 29.693-12.386 43.934-19.025 12.458-5.995 26.474-8.377 38.302-16.185M1596.572 1414.948c27.514-4.86 54.724-12.457 82.537-17.013 32.895-5.164 63.995-17.62 94.5-29.77 4.783-2.128 10.464-3.344 15.25-5.773 4.187-2.125 7.774-5.163 13.157-4.86M1576.236 1220.225c14.95 2.43 28.11 8.506 42.164 13.064 14.654 5.162 31.7 6.682 47.252 9.11 16.447 2.432 32.595 3.342 49.042 7.9 16.15 4.556 31.4 12.15 47.55 16.402 5.385 1.52 10.467 3.342 15.55 4.557M1782.88 1223.567c-8.075-5.163-17.347-8.81-26.02-12.454-7.772-3.343-14.95-7.596-23.024-10.33-14.956-4.86-29.01-11.24-43.363-16.402-27.513-10.024-55.624-18.835-83.436-27.34-12.857-3.95-28.707-4.252-40.97.91-7.478 3.345-11.065 0-18.54-.91-5.983-.91-12.263 0-17.047 3.04M1603.747 1174.66c2.993-.912 5.98-.912 8.974-1.825M1673.727 1210.2c5.082 1.216 10.166 2.432 15.55 3.038M1683.596 1412.82c2.988.302 5.98-1.52 8.37-2.43M1565.77 1467.803c-2.092-1.82-4.487-4.556-5.98-6.985M1588.797 1470.843c2.69-.305 5.68 0 7.775-2.128M1366.602 1380.314c-3.29-.91-5.68-5.163-8.373-7.594-2.993-2.43-6.28-4.555-9.27-6.985-5.98-5.164-11.065-11.238-17.347-15.796-5.084-3.95-10.168-6.99-15.85-10.33-4.785-2.735-11.365-8.506-17.346-8.506M1326.53 1304.98c-.3-.913 36.483-27.646 41.267-28.25M1242.197 1397.936c-.598-.304-1.494-.304-2.094-.304M1245.787 1239.062c-.6 0-.896 0-1.494-.306M1255.355 1239.667c-1.494 9.115-18.54 9.72-21.53.608-3.59-11.24 23.026-13.365 21.53.91M1249.676 1398.238c.895 9.114-22.13 8.81-18.543-2.43 2.99-9.113 26.016-7.898 19.438 4.86M1191.957 1339.61c1.498-3.038 3.89-5.165 6.578-6.985M1200.33 1303.157c-2.094-2.43-4.785-5.166-6.58-7.898M1143.51 1292.222c-1.793-2.735-2.69-6.38-5.383-8.202M1127.064 1342.648c1.793-3.038 3.887-6.38 6.28-8.81M1029.272 1290.096c1.198 1.82.6.303.6-1.52 0-3.34-1.795-6.38-1.197-9.72M1022.994 1358.14c.598-1.215.598-4.86 1.793-6.986M1057.085 1360.874c.298-3.342-.3-6.683-.6-10.023M1061.57 1281.59c.3-1.825.898-3.645 1.795-5.165M1064.56 1318.043c-2.39-.912-4.483.303-5.382 2.125.3-1.822 0-3.95-.598-5.77.598.91.3 2.125.598 3.035-.895 0-1.494.305-2.093.305M1027.78 1321.99c0-.91 1.492-3.947 2.39-5.467-.897-1.216-2.093-2.735-2.69-3.95M1004.453 1321.99c-3.59-.302-6.28-7.29-2.094-9.417M944.045 1360.874c-7.176-10.327-10.168-24.604-11.365-36.756-1.494-14.278 2.094-26.127 8.075-38.883 1.497-3.342 3.29-6.686 5.084-9.72M1235.918 1441.07c6.877-3.036 14.355-3.948 21.53-6.076 6.58-2.125 12.562-7.29 19.44-8.505M1241.6 1207.77c-1.496-1.517-6.88-1.214-9.27-.605M1217.977 1265.488c-1.197-4.86-2.096-10.936-2.096-15.188M1212.293 1383.657c-1.197-6.38 1.195-12.15 1.195-18.227M1270.607 1321.688c-4.486 0-8.674.303-13.158.303M1810.69 1410.087c13.756-3.95 26.317 0 40.073.605 15.25.61 27.21-8.506 41.27-11.542 9.268-2.127 18.242-3.645 26.613-8.202 3.588-1.823 7.775-3.343 8.373-7.898.597-3.646-1.795-7.29-5.384-7.29M1807.7 1355.407c2.69-2.43 8.67-3.343 12.26-5.772 6.88-4.56 12.263-11.24 19.438-15.492 12.86-7.898 25.722-4.86 39.774-4.253 5.684.303 10.766 0 16.148-2.127 3.29-1.214 9.87-4.557 11.365.304M1870.502 1348.722c12.56-1.216 32.895-4.556 35.885-19.745M1836.11 1373.936c8.073-.606 14.952-4.86 22.128-9.113 3.29-2.125 7.177-4.555 9.87-7.595 2.394-2.126 3.59-5.163 5.683-7.593M1869.305 1347.204c-.898-2.43-2.99-5.163-5.682-5.772M1883.66 1387.303c2.092-2.127 4.484-3.646 6.875-4.558M1888.742 1369.076c0-1.823 2.39-4.254 4.188-5.163M1889.043 1353.585c-.3-1.823-.6-3.948 0-5.773M1892.93 1382.745c11.363-4.25 23.027-4.556 34.09-9.416 6.283-2.735 29.008-10.33 17.346-19.14M1906.387 1315.916c-2.094-6.076-4.186-11.24-9.568-14.58-4.488-3.04-9.873-2.734-14.657-4.86-11.363-4.862-18.54-6.38-30.8-3.95M1777.197 1272.172c7.477-.912 13.758 6.378 20.633 7.898 4.188 5.468 11.963 11.846 17.646 16.404 5.383 4.555 12.258 6.683 18.54 10.328 6.58 3.948 10.468 7.896 18.84 8.505 6.576.606 12.86-.304 19.737-.61 5.98-.302 12.86-.91 18.84-.302 3.887.303 10.768 4.253 14.057 1.822M1890.836 1262.45c-1.496-1.217-2.69-2.733-3.59-4.252M1894.723 1280.676c-.896-.605-1.494-1.518-2.094-2.733M1891.734 1295.257c-.302-.605-.898-1.215-1.797-1.518M1908.18 1316.827c11.364-1.52 22.73 1.215 34.092.303M1893.826 1295.562c4.785-.306 9.57 2.43 13.758 3.95 5.98 1.82 11.96 2.125 17.642 3.645 5.384 1.215 14.654-.912 19.44 1.517 4.783 2.432 4.783 13.064-2.094 12.456M1896.22 1280.07c3.886 1.823 7.774 1.518 11.364 2.43 3.29.91 6.277 2.43 9.568 3.036 6.58 1.216 13.158 3.04 19.736 4.557 4.785.913 18.242 3.344 13.758-6.378-2.69-5.772-11.96-6.987-17.047-8.81-7.476-3.04-14.954-5.467-22.43-7.897-5.98-2.128-13.157-6.38-19.437-4.86M1950.346 1306.803c4.188-.61 8.076-3.95 6.88-8.506-1.198-4.255-4.784-4.255-7.776-6.38M1929.114 1270.957c16.446-7.29-17.644-19.44-23.325-20.657-6.88-1.518-13.46-2.43-20.038-5.163-6.28-2.43-11.662-6.38-18.54-7.9-6.58-1.52-13.16-1.215-20.036-1.52-5.684-.302-11.664 1.824-17.346.61s-11.363-1.216-17.045-2.126c-5.684-.91-12.262-4.255-17.943-6.075-3.59-1.215-7.18-2.43-10.768-3.343M1896.518 1365.128c8.373-6.686 21.83-4.558 32.3-7.9 3.288-1.215 5.98-3.036 9.565-3.948 2.693-.607 7.178-.303 9.572-1.823 6.28-4.252 2.092-10.936-4.785-11.846M1892.93 1350.547c11.064-3.343 22.13-8.506 33.492-9.114 4.785-.303 16.748-.303 18.54-5.772 2.097-6.984-8.97-6.984-13.157-6.984-8.072-.305-15.848.91-23.624.91M1869.006 1288.88c-.3.304-3.59-9.115-4.785-11.24M1857.043 1282.5c-2.092-3.34-6.28-5.165-8.973-7.596M1858.836 1259.414c1.197.304 2.395 0 3.29-.608M1827.137 1264.273c.9-2.43 2.393-5.165 4.486-6.683-.3-1.822-.598-3.646-.598-5.47M1821.156 1376.67c-.598 1.214-.896 2.127-.896 3.342M1865.716 1385.48c-1.194-.305-2.692-.607-3.89-.607M1873.19 1370.595c1.198 1.214 2.692 0 3.59-1.52M1377.84 1387.665c1.336 0 3.117-8.593 4.898-9.95M1364.102 1348.44c-.637-3.826 1.277-6.38 4.463-8.292M1355.176 1319.742c7.014-5.74 14.03-8.928 21.682-12.755M941.71 1204.997c-18.637 10.45-38.6 23.303-52.335 40.25-6.672 8.23-42.65 41.142-52.186 44.855-9.414 3.664-17.742 11.29-28.245 17.605-6.303 3.792-3.413-.618-4.273 7.662-.867 8.318 4.822 21.295 12.074 24.764 6.965 3.336 13.652 6.187 20.992 8.287 9.633 2.756 31.31 20.087 36.2 26.582 5.517 7.322 21.433 28.792 28.81 36.426M976.322 1223.46c-7.598 5.527-20.557 17.498-29.494 19.34M960.234 1220.238c-9.83 5.982-19.215 12.43-28.598 18.416-6.256 4.145-16.537 17.038-24.133 16.576M887.395 1279.65c2.414-2.818 8.734 1.394 11.967 2.992M877.684 1357.717c4.023 0 7.6-.92 10.727-3.223M914.184 1332.584v-2.303M920.91 1353.305c4.023 10.59 10.727 20.72 17.428 29.47M946.9 1404.985c-3.797-17.034-12.055-29.93-14.064-49.727-2.232-19.8-2.232-43.28.447-62.618 1.785-12.893 5.357-24.405 10.045-34.533 4.02-8.29 9.375-13.354 13.617-20.72M923.592 1297.59c1.79-11.97 5.363-22.56 11.617-32.69M934.826 1397.803c1.66 8.828 8.842 15.786 12.262 23.573M905.27 1386.917c1.787 1.84 4.02 3.684 5.81 5.064M835.032 1340.324c-2.72-.023-5.115-1.855-7.073-3.61M808.244 1313.5c3.85-1.156 8.295-3.455 11.054-6.69M809.11 1329.17c4.468 1.842 8.937 5.524 12.513 8.286M946.49 1401.88c-1.182 7.445 4.795 14.9 7.083 19.97 2.095 4.035 9.323 10.443 9.837 15.477 1.318 11.206-7.546 6.604-9.63 1.92-2.927 6.778-10.056 9.822-14.915 10.742-.404.076-10.05 2.904-10.455 2.98-2.94-1.077-4.668-8.515-6.476-11.415-6.185-10.02-11.257-24.258-19.187-30.127M948.93 1257.98c5.953-10.385 10.993-19.354 19.238-27.378 3.207-2.83 9.164-8.022 10.08-11.8 1.832-4.72-.916-9.91-5.498-4.247-2.29-6.606-6.414-2.833-10.537-3.305-3.664-.47-4.123-2.832-7.787-2.36-1.834.473-6.414 5.19-7.79 6.61M1018.088 1217.303c-8.21-.756-30.228-6.462-36.162-1.948M963.29 1441.686c19.235-2.098 34.806-.7 51.29-9.096M949.84 1437.487c-1.832-3.667-5.955-6.413-8.703-10.537-2.29-4.58-3.664-10.537-6.873-14.202M931.127 1425.314c-.648-5.83-3.89-8.425-6.48-12.957M882.288 1363.047c-5.91-.864-10.72-4.41-15.56-7.495M878.28 1271.456c-6.067 2.122-15.84 8.095-21.632 12.988M1528.648 1266.972c-4.508-1.456-5.697-3.044-10.27-3.91-7.754-1.344-15.678-.155-23.158 2.153-1.24.473-2.456.812-3.655 1.013M1493.295 1387.398c3.926.957 7.832 2.202 11.78 2.75 6.692.857 10.112.138 16.374-1.56 1.028-.347 2.046-.6 3.06-.754M1406.26 1391.358c-.617-3.06-.857-6.513-.674-10.403M1529.464 1400.472c-21.423-.207-64.124 14.3-93.36 12.22M1526.27 1257.288c-19.467-.654-55.62-14.634-82.834-16.123M1605.043 1327.53c.487.02-3.355-.566-4.797-.625M1606.63 1328.052c1.433.817 4.58 1.36 4.01 4.088-3.722 1.648-7.163-2.17-10.6-.524M1599.747 1327.22c1.946-23.773-9.806-48.76-30.52-62.248-5.34-3.515-11.2-6.207-17.317-7.964-5.266-1.518-12.637-1.804-16.068-6.986M1600.348 1329.79c3.035 37.103-23.7 74.833-69.963 70.608M1492.28 1387.41c-10.075-.163-14.64 1.89-24.5.045-3.666-.654-7.1-1.87-10.288-3.39-5.746-2.724-15.982-1.824-21.96-4.66-7.878-3.718-13.27-9.47-22.02-14.03-8.75-4.487-15.832-13.193-17.435-25.458-.607-4.235-.293-10.79-.166-14.57M1491.756 1266.028c-10.08.215-14.642-1.858-24.5.062-3.664.678-7.098 1.93-10.296 3.494-5.745 2.79-15.974 1.924-21.954 4.836-7.88 3.813-13.266 9.7-22.02 14.38-8.752 4.6-15.834 13.462-17.434 25.938-.607 4.31-.295 10.97-.164 14.814M1530.623 1258.715M1537.076 1257.53c-1.77-.45-3.354-1.074-5.02-1.82-1.652-.75-3.558-.293-4.38 1.428-.743 1.554-.142 3.844 1.515 4.586M1531.363 1268.66M1531.114 1265.27c-4.212.203-3.717 6.992.497 6.78M1532.41 1276.567M1533.04 1273.256c-1.77-.304-3.492.71-3.845 2.588-.33 1.74.818 3.744 2.586 4.04M1533.406 1283.747M1533.154 1280.367c-1.785.008-3.148 1.8-3.016 3.578.14 1.915 1.73 3.2 3.514 3.188M1532.31 1291.054M1532.06 1287.67c-1.784.022-3.15 1.805-3.017 3.59.138 1.914 1.73 3.21 3.516 3.177M1534.408 1297.433M1535.037 1294.117c-1.772-.25-3.484.716-3.846 2.62-.32 1.712.815 3.77 2.587 4.017M1534.418 1307.074M1534.172 1303.695c-4.217.28-3.72 7.052.49 6.76M1536.715 1312.936M1537.344 1309.62c-4.143-.953-5.38 5.698-1.258 6.637M1534.62 1322.488M1533.512 1319.3c-1.752.38-2.518 2.767-1.973 4.33.658 1.914 2.444 2.435 4.19 2.047-.338.077-.307.075.097-.008.345-.066.69-.12 1.034-.172.743-.12 1.488-.195 2.24-.266M1536.72 1328.832M1536.47 1325.46c-1.786.057-3.15 1.85-3.02 3.63.142 1.905 1.73 3.18 3.52 3.118M1538.14 1335.46M1538.768 1332.14c-1.727-.46-3.52.954-3.844 2.682-.358 1.897.858 3.508 2.588 3.964M1536.473 1344.512M1536.225 1341.14c-1.75.366-3.168 1.642-3.02 3.65.123 1.673 1.762 3.467 3.518 3.09M1538.16 1351.587M1537.912 1348.216c-4.21.37-3.72 7.123.498 6.74M1536.408 1359.45M1536.158 1356.08c-4.216.37-3.717 7.127.496 6.738M1536.184 1369.11M1535.936 1365.737c-1.75.4-3.166 1.672-3.016 3.685.12 1.67 1.76 3.46 3.516 3.057M1535.355 1376.9M1535.105 1373.528c-4.21.43-3.715 7.184.502 6.742M1532.156 1384.218M1531.908 1380.843c-1.787.037-3.145 1.98-3.02 3.713.146 1.95 1.732 3.08 3.518 3.036M1527.535 1391.226M1527.282 1387.845c-1.788.004-3.144 2.02-3.02 3.73.147 1.98 1.732 3.04 3.52 3.033M1523.764 1397.196M1524.394 1393.84c-1.735-.395-3.517 1.035-3.85 2.802-.35 1.897.856 3.527 2.593 3.918M1540.658 1391.736M1535.234 1249.784c-3.83-2.198-5.994 2.73-4.994 5.868M1408.148 1273.054c.18 3.528 0 6.536 0 10.062M1455.094 1339.573c-.2 1.194-.112 2.27.268 3.24M1457.824 1312.275c.396 4.353-3.127 5.407-4.572 8.785-.982 2.34-1.303 4.227-.492 5.984.872 1.896 2.634 3.96 3.98 5.597 1.332 1.62 1.312 4.017 1.334 6.06M1468.862 1338.615c.202 2.1-2.087 4.17-3.952 5.13-1.502.826-5.5 1.615-6.628.93M1469.506 1311.327c-1.33-3.31-7.938-6.41-11.568-4.244M1455.105 1310.132c-.22.483-.334 1.066-.22 1.553"/><path d="M1511.754 1281.624c1.144 8.57 3.48 17.144 1.32 25.748-.86 3.442 4.44 4.897 5.302 1.463 1.108-4.42 1.34-8.91.92-13.437-.43-4.628-1.43-9.174-2.042-13.774-.2-1.485-1.102-2.748-2.75-2.748-1.35 0-2.947 1.26-2.75 2.748zM1513.36 1345.25c1.94 8.976 1.44 18.61-.976 27.448-.936 3.426 4.367 4.876 5.3 1.46 2.68-9.798 3.128-20.427.98-30.37-.746-3.467-6.047-1.994-5.303 1.462zM1432.39 1316.955c-2.626 6.792-1.57 11.82-.138 18.345M1440.986 1317.062c-.275-5.63-6.39-9.632-8.357-14.417M1432.73 1315.26c-1.17-2.965-1.778-6.824-1.497-10.188M1439.756 1335.716c.334 5.625-5.31 10.396-6.748 15.4M1432.646 1337.127c-1.203 3.602-1.744 8.07-1.285 11.762M1430.578 1304.222c-1.082 1.2-2.87 1.916-3.95 3.28-1.343 1.698-2.552 3.447-3.51 5.305-1.976 3.72-2.806 7.877-2.806 11.928 0 8.584 3.123 18.213 9.375 24.94.38.437.826.764 1.082 1.26M1417.576 1321.646c-.398 1.667-.53 3.532-.205 5.253M1499.617 1336.463c1.195.332 2.09.997 2.393 1.99M1441.193 1318.734c-.326 1.215-.227 2.462-.13 3.676.064.983.064 2.524-.92 3.117.76 1.083.887 2.624.76 3.905-.036.524-.1 1.113-.23 1.607-.165.557-.43.95-.495 1.572M1502.625 1278c-1.913 2.186 4.096 10.925 4.643 14.202 1.367 7.373-1.363 13.927-5.732 19.663M1498.21 1343.275c-5.837 6.008-10.45 26.487.312 30.584M1498.803 1280.73c-12.02 6.283-6.01 21.028-1.365 30.04M1502.53 1376.505c-1.91-2.186 4.095-10.922 4.642-14.2 1.365-7.37-1.367-13.926-5.732-19.66M1492.516 1333.074c-1.158.383-7.8.527-10.275 2.378M1486.734 1316.967c-3.55.055-6.816-1.49-9.89-3.05M1455.453 1346.894c-.59.584-1.574 1.18-2.363 1.572M1406.777 1369.85c.285 2.52-.283 5.27-.576 7.788M1489.85 1347.993c.24-1.692 1.446-2.9 2.174-4.354M1451.07 1280.84c.238-1.647 1.182-3.058 2.117-4.467M1454.56 1382.076c-1.692-1.45-2.175-4.11-2.9-6.286M1430.87 1356.468c.243-.722.724-1.69 1.21-2.174M1493.717 1377.966c-1.935-.726-3.386-2.176-4.354-3.865M1492.24 1282.486c-.944.47-2.12.94-3.057 1.41M1421.247 1283.63c-7.965 0-15.622-.613-23.585-1.532-6.434-.918-12.56-3.368-18.994-4.595M1417.57 1369.096c-13.48-2.45-27.568 1.53-40.432 5.207"/></g><path d="M2048 0M2048 1536M0 1536M0 0" stroke="#17192D"/></g></svg>