<svg xmlns="http://www.w3.org/2000/svg" width="2048" height="1536" viewBox="0 0 2048 1536"><pattern y="1536" width="69" height="69" patternUnits="userSpaceOnUse" viewBox="2.125 -70.896 69 69" overflow="visible"><path fill="none" d="M71.125-1.896h-69v-69h69z"/><path fill="#F6C058" d="M71.125-1.896h-69v-69h69z"/><g fill="#fff"><path d="M61.772-71.653c.018.072.007.127-.026.19-.053.1-.112.062-.165.128-.05.062-.098.276-.078.362-.17.058-.01.227-.015.35-.002.05-.04.105-.045.16-.01.12.017.267.068.37.097.2.268.414.435.545.19.148.365.572.608.63.177.043.384-.103.543-.142.18-.043.397.01.57-.053.223-.08.128-.337.29-.45.103-.074.286-.01.405-.05.2-.07.34-.264.377-.46.016-.083.01-.146.04-.222.038-.103.11-.16.09-.293-.01-.062-.053-.12-.065-.187-.022-.114.002-.224 0-.337-.003-.2.017-.38-.078-.55-.38-.688-1.236-.93-1.975-.79-.18.035-.288.127-.443.208-.17.088-.14.166-.318.224-.082.026-.217.124-.216.224 0 .115.005.05.012.17-.02.01-.02-.006-.03-.026M54.105-71.653c.018.072.007.127-.026.19-.054.1-.113.062-.166.128-.05.062-.1.276-.08.362-.168.058-.01.227-.014.35-.002.05-.04.105-.045.16-.01.12.017.267.068.37.097.2.268.414.435.545.19.148.365.572.608.63.177.043.384-.103.543-.142.18-.043.396.01.57-.053.222-.08.127-.337.288-.45.104-.074.287-.01.406-.05.2-.07.34-.264.376-.46.016-.083.01-.146.04-.222.038-.103.11-.16.09-.293-.01-.062-.053-.12-.065-.187-.022-.114.002-.224 0-.337-.003-.2.017-.38-.078-.55-.38-.688-1.236-.93-1.975-.79-.18.035-.287.127-.442.208-.17.088-.14.166-.318.224-.08.026-.216.124-.215.224 0 .115.005.05.012.17-.022.01-.022-.006-.03-.026M46.44-71.653c.017.072.006.127-.027.19-.053.1-.112.062-.165.128-.05.062-.1.276-.08.362-.168.058-.01.227-.014.35-.002.05-.04.105-.045.16-.01.12.016.267.067.37.097.2.268.414.435.545.19.148.365.572.608.63.177.043.384-.103.543-.142.18-.043.397.01.57-.053.223-.08.128-.337.29-.45.103-.074.286-.01.405-.05.2-.07.34-.264.376-.46.016-.083.01-.146.04-.222.038-.103.11-.16.09-.293-.01-.062-.053-.12-.065-.187-.023-.114 0-.224 0-.337-.004-.2.016-.38-.08-.55-.38-.688-1.235-.93-1.974-.79-.18.035-.287.127-.442.208-.17.088-.14.166-.318.224-.08.026-.216.124-.215.224.002.115.006.05.013.17-.02.01-.02-.006-.03-.026M38.772-71.653c.018.072.007.127-.026.19-.053.1-.112.062-.165.128-.05.062-.098.276-.078.362-.17.058-.01.227-.015.35-.002.05-.04.105-.045.16-.01.12.017.267.068.37.097.2.268.414.435.545.19.148.365.572.608.63.177.043.384-.103.543-.142.18-.043.397.01.57-.053.223-.08.128-.337.29-.45.103-.074.286-.01.405-.05.2-.07.34-.264.377-.46.016-.083.01-.146.04-.222.038-.103.11-.16.09-.293-.01-.062-.053-.12-.065-.187-.022-.114.002-.224 0-.337-.003-.2.017-.38-.078-.55-.38-.688-1.236-.93-1.975-.79-.18.035-.288.127-.443.208-.17.088-.14.166-.318.224-.082.026-.217.124-.216.224 0 .115.005.05.012.17-.02.01-.02-.006-.03-.026M31.105-71.653c.018.072.007.127-.026.19-.054.1-.113.062-.166.128-.05.062-.1.276-.08.362-.168.058-.01.227-.014.35-.002.05-.04.105-.045.16-.01.12.017.267.068.37.097.2.268.414.435.545.19.148.365.572.608.63.177.043.384-.103.543-.142.18-.043.396.01.57-.053.222-.08.127-.337.288-.45.104-.074.287-.01.406-.05.2-.07.34-.264.376-.46.016-.083.01-.146.04-.222.038-.103.11-.16.09-.293-.01-.062-.053-.12-.065-.187-.022-.114.002-.224 0-.337-.003-.2.017-.38-.078-.55-.38-.688-1.236-.93-1.975-.79-.18.035-.287.127-.442.208-.17.088-.14.166-.318.224-.08.026-.216.124-.215.224 0 .115.005.05.012.17-.022.01-.022-.006-.03-.026M23.44-71.653c.017.072.006.127-.027.19-.053.1-.112.062-.165.128-.05.062-.1.276-.08.362-.168.058-.01.227-.014.35-.002.05-.04.105-.045.16-.01.12.016.267.067.37.097.2.268.414.435.545.19.148.365.572.608.63.177.043.384-.103.543-.142.18-.043.397.01.57-.053.223-.08.128-.337.29-.45.103-.074.286-.01.405-.05.2-.07.34-.264.376-.46.016-.083.01-.146.04-.222.038-.103.11-.16.09-.293-.01-.062-.053-.12-.065-.187-.023-.114 0-.224 0-.337-.004-.2.016-.38-.08-.55-.38-.688-1.235-.93-1.974-.79-.18.035-.287.127-.442.208-.17.088-.14.166-.318.224-.08.026-.216.124-.215.224.002.115.006.05.013.17-.02.01-.02-.006-.03-.026M15.772-71.653c.018.072.007.127-.026.19-.053.1-.112.062-.165.128-.05.062-.098.276-.078.362-.17.058-.01.227-.015.35-.002.05-.04.105-.045.16-.01.12.017.267.068.37.097.2.268.414.435.545.19.148.365.572.608.63.177.043.384-.103.543-.142.18-.043.397.01.57-.053.223-.08.128-.337.29-.45.103-.074.286-.01.405-.05.2-.07.34-.264.377-.46.016-.083.01-.146.04-.222.038-.103.11-.16.09-.293-.01-.062-.053-.12-.065-.187-.022-.114.002-.224 0-.337-.003-.2.017-.38-.078-.55-.38-.688-1.236-.93-1.975-.79-.18.035-.288.127-.443.208-.17.088-.14.166-.318.224-.082.026-.217.124-.216.224 0 .115.005.05.012.17-.02.01-.02-.006-.03-.026M8.105-71.653c.018.072.007.127-.026.19-.054.1-.113.062-.166.128-.05.062-.1.276-.08.362-.168.058-.01.227-.014.35-.002.05-.04.105-.045.16-.01.12.017.267.068.37.097.2.268.414.435.545.19.148.365.572.608.63.177.043.384-.103.543-.142.18-.043.396.01.57-.053.222-.08.127-.337.288-.45.104-.074.287-.01.406-.05.2-.07.34-.264.376-.46.016-.083.01-.146.04-.222.038-.103.11-.16.09-.293-.01-.062-.053-.12-.065-.187-.022-.114.002-.224 0-.337-.003-.2.017-.38-.078-.55-.38-.688-1.236-.93-1.975-.79-.18.035-.287.127-.442.208-.17.088-.14.166-.318.224-.08.026-.216.124-.215.224 0 .115.005.05.012.17-.022.01-.022-.006-.03-.026M.44-71.653c.017.072.007.127-.027.19-.052.1-.113.063-.165.128-.05.062-.1.276-.08.362-.168.058-.01.227-.014.35-.002.05-.04.105-.045.16-.01.12.016.267.067.37.097.2.268.414.435.545.19.148.365.572.608.63.177.043.384-.103.543-.142.18-.043.397.01.57-.053.223-.08.128-.337.29-.45.103-.074.286-.01.405-.05.2-.07.34-.264.376-.46.016-.083.01-.146.04-.222.037-.103.11-.16.09-.293-.01-.062-.052-.12-.065-.187-.022-.114 0-.224 0-.337-.004-.2.016-.38-.08-.55-.38-.688-1.235-.93-1.974-.79-.18.035-.287.127-.442.208-.17.088-.14.166-.318.224-.08.026-.215.124-.215.224.003.115.006.05.013.17-.02.01-.02-.006-.03-.026"/></g><path d="M69.44-71.653c.017.072.007.127-.027.19-.052.1-.113.062-.165.128-.05.062-.1.276-.08.362-.168.058-.01.227-.014.35-.002.05-.04.105-.045.16-.01.12.016.267.067.37.097.2.268.414.435.545.19.148.365.572.608.63.177.043.384-.103.543-.142.18-.043.397.01.57-.053.223-.08.128-.337.29-.45.103-.074.286-.01.405-.05.2-.07.34-.264.376-.46.016-.083.01-.146.04-.222.037-.103.11-.16.09-.293-.01-.062-.052-.12-.065-.187-.022-.114 0-.224 0-.337-.004-.2.016-.38-.08-.55-.38-.688-1.235-.93-1.974-.79-.18.035-.287.127-.442.208-.17.088-.14.166-.318.224-.08.026-.215.124-.215.224.003.115.006.05.013.17-.02.01-.02-.006-.03-.026M.495-71.653c.018.072.008.127-.026.19-.053.1-.114.062-.166.128-.05.062-.1.276-.08.362-.168.058-.01.227-.014.35-.002.05-.04.105-.045.16-.01.12.017.267.068.37.097.2.268.414.435.545.19.148.365.572.608.63.177.043.384-.103.543-.142.18-.043.396.01.57-.053.222-.08.127-.337.288-.45.104-.074.287-.01.406-.05.2-.07.34-.264.376-.46.016-.083.01-.146.04-.222.037-.103.11-.16.09-.293-.01-.062-.052-.12-.065-.187-.02-.114.002-.224 0-.337-.003-.2.017-.38-.078-.55-.38-.688-1.236-.93-1.975-.79-.18.035-.287.127-.442.208-.17.088-.14.166-.318.224-.08.026-.215.124-.215.224.003.116.006.052.013.17-.02.01-.02-.005-.03-.025" fill="#fff"/><g fill="#fff"><path d="M69.44-64c.017.07.006.126-.027.19-.053.1-.112.06-.165.127-.05.062-.1.276-.08.362-.168.057-.01.226-.014.35-.002.05-.04.104-.045.16-.01.12.016.266.067.37.097.198.268.413.435.544.19.148.365.572.608.63.177.043.384-.103.543-.142.18-.043.397.01.57-.053.223-.08.128-.338.29-.45.103-.075.286-.01.405-.052.2-.07.34-.263.376-.46.016-.082.01-.145.04-.22.038-.104.11-.16.09-.294-.01-.062-.053-.12-.065-.187-.023-.114 0-.224 0-.337-.004-.2.016-.38-.08-.55-.38-.688-1.235-.93-1.974-.79-.18.035-.287.127-.442.208-.17.088-.14.166-.318.224-.08.026-.216.124-.215.224.002.115.006.05.013.17-.02.01-.02-.006-.03-.026M61.778-64c.018.07.007.126-.026.19-.053.1-.112.06-.165.127-.05.062-.1.276-.08.362-.168.057-.008.226-.014.35-.002.05-.04.104-.045.16-.01.12.017.266.068.37.097.198.268.413.435.544.19.148.366.572.61.63.176.043.383-.103.542-.142.18-.043.397.01.57-.053.223-.08.128-.338.29-.45.103-.075.286-.01.405-.052.2-.07.34-.263.376-.46.016-.082.01-.145.04-.22.038-.104.11-.16.09-.294-.01-.062-.053-.12-.065-.187-.022-.114.002-.224 0-.337-.003-.2.017-.38-.078-.55-.38-.688-1.236-.93-1.975-.79-.18.035-.287.127-.442.208-.17.088-.14.166-.318.224-.08.026-.216.124-.215.224 0 .115.005.05.012.17-.02.01-.02-.006-.03-.026M54.118-64c.018.07.007.126-.026.19-.053.1-.112.06-.165.127-.05.062-.1.276-.08.362-.168.057-.008.226-.014.35-.002.05-.04.104-.045.16-.01.12.017.266.068.37.097.198.268.413.435.544.19.148.366.572.61.63.176.043.383-.103.542-.142.18-.043.397.01.57-.053.223-.08.128-.338.29-.45.103-.075.286-.01.405-.052.2-.07.34-.263.376-.46.016-.082.01-.145.04-.22.038-.104.11-.16.09-.294-.01-.062-.053-.12-.065-.187-.022-.114.002-.224 0-.337-.003-.2.017-.38-.078-.55-.38-.688-1.236-.93-1.975-.79-.18.035-.287.127-.442.208-.17.088-.14.166-.318.224-.08.026-.216.124-.215.224 0 .115.005.05.012.17-.02.01-.02-.006-.03-.026M46.458-64c.018.07.007.126-.026.19-.053.1-.112.06-.165.127-.05.062-.1.276-.08.362-.168.057-.008.226-.014.35-.002.05-.04.104-.045.16-.01.12.017.266.068.37.097.198.268.413.435.544.19.148.366.572.61.63.176.043.383-.103.542-.142.18-.043.397.01.57-.053.223-.08.128-.338.29-.45.103-.075.286-.01.405-.052.2-.07.34-.263.376-.46.016-.082.01-.145.04-.22.038-.104.11-.16.09-.294-.01-.062-.053-.12-.065-.187-.022-.114.002-.224 0-.337-.003-.2.017-.38-.078-.55-.38-.688-1.236-.93-1.975-.79-.18.035-.287.127-.442.208-.17.088-.14.166-.318.224-.08.026-.216.124-.215.224 0 .115.005.05.012.17-.02.01-.02-.006-.03-.026M38.797-64c.018.07.007.126-.026.19-.052.1-.11.06-.164.127-.05.062-.1.276-.08.362-.168.057-.008.226-.014.35-.002.05-.04.104-.045.16-.01.12.017.266.068.37.097.198.268.413.435.544.19.148.365.572.608.63.177.043.384-.103.543-.142.18-.043.398.01.572-.053.222-.08.127-.338.288-.45.104-.075.287-.01.406-.052.2-.07.34-.263.376-.46.016-.082.01-.145.04-.22.038-.104.11-.16.09-.294-.01-.062-.053-.12-.065-.187-.022-.114.002-.224 0-.337-.003-.2.017-.38-.078-.55-.38-.688-1.237-.93-1.976-.79-.18.035-.287.127-.442.208-.17.088-.14.166-.318.224-.08.026-.216.124-.215.224 0 .115.004.05.01.17-.02.01-.02-.006-.03-.026M31.137-64c.018.07.007.126-.026.19-.052.1-.11.06-.164.127-.05.062-.1.276-.08.362-.168.057-.008.226-.014.35-.002.05-.04.104-.045.16-.01.12.017.266.068.37.097.198.268.413.435.544.19.148.365.572.608.63.177.043.384-.103.543-.142.18-.043.398.01.572-.053.222-.08.127-.338.288-.45.104-.075.287-.01.406-.052.2-.07.34-.263.376-.46.016-.082.01-.145.04-.22.038-.104.11-.16.09-.294-.01-.062-.053-.12-.065-.187-.022-.114.002-.224 0-.337-.003-.2.017-.38-.078-.55-.38-.688-1.237-.93-1.976-.79-.18.035-.287.127-.442.208-.17.088-.14.166-.318.224-.08.026-.216.124-.215.224 0 .115.004.05.01.17-.02.01-.02-.006-.03-.026M23.477-64c.018.07.007.126-.026.19-.052.1-.11.06-.164.127-.05.062-.1.276-.08.362-.168.057-.008.226-.014.35-.002.05-.04.104-.045.16-.01.12.017.266.068.37.097.198.268.413.435.544.19.148.365.572.608.63.177.043.384-.103.543-.142.18-.043.398.01.572-.053.222-.08.127-.338.288-.45.104-.075.287-.01.406-.052.2-.07.34-.263.376-.46.016-.082.01-.145.04-.22.038-.104.11-.16.09-.294-.01-.062-.053-.12-.065-.187-.022-.114.002-.224 0-.337-.003-.2.017-.38-.078-.55-.38-.688-1.237-.93-1.976-.79-.18.035-.287.127-.442.208-.17.088-.14.166-.318.224-.08.026-.216.124-.215.224 0 .115.004.05.01.17-.02.01-.02-.006-.03-.026M15.816-64c.018.07.007.126-.026.19-.053.1-.112.06-.165.127-.05.062-.1.276-.08.362-.168.057-.008.226-.014.35 0 .05-.04.104-.044.16-.01.12.017.266.068.37.097.198.268.413.435.544.19.148.364.572.607.63.177.043.384-.103.543-.142.18-.043.397.01.57-.053.223-.08.128-.338.29-.45.103-.075.286-.01.405-.052.2-.07.34-.263.376-.46.017-.082.01-.145.04-.22.04-.104.11-.16.09-.294-.01-.062-.052-.12-.064-.187-.022-.114.002-.224 0-.337-.003-.2.017-.38-.078-.55-.38-.688-1.236-.93-1.975-.79-.18.035-.287.127-.442.208-.17.088-.138.166-.317.224-.08.026-.216.124-.215.224 0 .115.005.05.012.17-.02.01-.02-.006-.03-.026M8.156-64c.018.07.007.126-.026.19-.053.1-.112.06-.165.127-.05.062-.1.276-.08.362-.168.057-.008.226-.014.35 0 .05-.04.104-.044.16-.01.12.017.266.068.37.097.198.268.413.435.544.19.148.364.572.607.63.177.043.384-.103.543-.142.18-.043.397.01.57-.053.223-.08.128-.338.29-.45.103-.075.286-.01.405-.052.2-.07.34-.263.376-.46.017-.082.01-.145.04-.22.04-.104.11-.16.09-.294-.01-.062-.052-.12-.064-.187-.022-.114.002-.224 0-.337-.003-.2.017-.38-.078-.55-.38-.688-1.236-.93-1.975-.79-.18.035-.287.127-.442.208-.17.088-.138.166-.317.224-.08.026-.216.124-.215.224 0 .115.005.05.012.17-.02.01-.02-.006-.03-.026M.495-64c.018.07.007.126-.026.19-.054.1-.113.06-.166.127-.05.062-.1.276-.08.362-.168.057-.01.226-.014.35-.002.05-.04.104-.045.16-.01.12.017.266.068.37.097.198.268.413.435.544.19.148.365.572.608.63.177.043.384-.103.543-.142.18-.042.397.01.57-.052.223-.08.128-.337.29-.45.103-.074.286-.01.405-.05.2-.07.34-.264.376-.46.017-.083.01-.146.04-.222.04-.103.11-.16.09-.293-.01-.062-.052-.12-.064-.187-.022-.114.002-.224 0-.337-.003-.2.017-.378-.078-.55-.38-.687-1.236-.928-1.975-.788-.18.034-.287.126-.442.207-.17.087-.138.165-.317.223-.08.026-.216.124-.215.224 0 .115.005.05.012.17-.02.01-.02-.006-.03-.026M69.44-56.348c.017.072.006.127-.027.19-.053.1-.112.062-.165.128-.05.062-.1.276-.08.362-.168.058-.01.227-.014.35-.002.05-.04.105-.045.16-.01.12.016.267.067.37.097.2.268.414.435.545.19.148.365.572.608.63.177.043.384-.103.543-.142.18-.043.397.01.57-.053.223-.08.128-.337.29-.45.103-.074.286-.01.405-.05.2-.07.34-.264.376-.46.016-.083.01-.146.04-.222.038-.103.11-.16.09-.293-.01-.062-.053-.12-.065-.187-.023-.114 0-.224 0-.337-.004-.2.016-.38-.08-.55-.38-.688-1.235-.93-1.974-.79-.18.035-.287.127-.442.208-.17.09-.14.167-.318.225-.08.026-.216.124-.215.224.002.114.006.05.013.168-.02.01-.02-.005-.03-.025M61.778-56.348c.018.072.007.127-.026.19-.053.1-.112.062-.165.128-.05.062-.1.276-.08.362-.168.058-.008.227-.014.35-.002.05-.04.105-.045.16-.01.12.017.267.068.37.097.2.268.414.435.545.19.148.366.572.61.63.176.043.383-.103.542-.142.18-.043.397.01.57-.053.223-.08.128-.337.29-.45.103-.074.286-.01.405-.05.2-.07.34-.264.376-.46.016-.083.01-.146.04-.222.038-.103.11-.16.09-.293-.01-.062-.053-.12-.065-.187-.022-.114.002-.224 0-.337-.003-.2.017-.38-.078-.55-.38-.688-1.236-.93-1.975-.79-.18.035-.287.127-.442.208-.17.09-.14.167-.318.225-.08.026-.216.124-.215.224 0 .114.005.05.012.168-.02.01-.02-.005-.03-.025M54.118-56.348c.018.072.007.127-.026.19-.053.1-.112.062-.165.128-.05.062-.1.276-.08.362-.168.058-.008.227-.014.35-.002.05-.04.105-.045.16-.01.12.017.267.068.37.097.2.268.414.435.545.19.148.366.572.61.63.176.043.383-.103.542-.142.18-.043.397.01.57-.053.223-.08.128-.337.29-.45.103-.074.286-.01.405-.05.2-.07.34-.264.376-.46.016-.083.01-.146.04-.222.038-.103.11-.16.09-.293-.01-.062-.053-.12-.065-.187-.022-.114.002-.224 0-.337-.003-.2.017-.38-.078-.55-.38-.688-1.236-.93-1.975-.79-.18.035-.287.127-.442.208-.17.09-.14.167-.318.225-.08.026-.216.124-.215.224 0 .114.005.05.012.168-.02.01-.02-.005-.03-.025M46.458-56.348c.018.072.007.127-.026.19-.053.1-.112.062-.165.128-.05.062-.1.276-.08.362-.168.058-.008.227-.014.35-.002.05-.04.105-.045.16-.01.12.017.267.068.37.097.2.268.414.435.545.19.148.366.572.61.63.176.043.383-.103.542-.142.18-.043.397.01.57-.053.223-.08.128-.337.29-.45.103-.074.286-.01.405-.05.2-.07.34-.264.376-.46.016-.083.01-.146.04-.222.038-.103.11-.16.09-.293-.01-.062-.053-.12-.065-.187-.022-.114.002-.224 0-.337-.003-.2.017-.38-.078-.55-.38-.688-1.236-.93-1.975-.79-.18.035-.287.127-.442.208-.17.09-.14.167-.318.225-.08.026-.216.124-.215.224 0 .114.005.05.012.168-.02.01-.02-.005-.03-.025M38.797-56.348c.018.072.007.127-.026.19-.052.1-.11.062-.164.128-.05.062-.1.276-.08.362-.168.058-.008.227-.014.35-.002.05-.04.105-.045.16-.01.12.017.267.068.37.097.2.268.414.435.545.19.148.365.572.608.63.177.043.384-.103.543-.142.18-.043.398.01.572-.053.222-.08.127-.337.288-.45.104-.074.287-.01.406-.05.2-.07.34-.264.376-.46.016-.083.01-.146.04-.222.038-.103.11-.16.09-.293-.01-.062-.053-.12-.065-.187-.022-.114.002-.224 0-.337-.003-.2.017-.38-.078-.55-.38-.688-1.237-.93-1.976-.79-.18.035-.287.127-.442.208-.17.09-.14.167-.318.225-.08.026-.216.124-.215.224 0 .114.004.05.01.168-.02.01-.02-.005-.03-.025M31.137-56.348c.018.072.007.127-.026.19-.052.1-.11.062-.164.128-.05.062-.1.276-.08.362-.168.058-.008.227-.014.35-.002.05-.04.105-.045.16-.01.12.017.267.068.37.097.2.268.414.435.545.19.148.365.572.608.63.177.043.384-.103.543-.142.18-.043.398.01.572-.053.222-.08.127-.337.288-.45.104-.074.287-.01.406-.05.2-.07.34-.264.376-.46.016-.083.01-.146.04-.222.038-.103.11-.16.09-.293-.01-.062-.053-.12-.065-.187-.022-.114.002-.224 0-.337-.003-.2.017-.38-.078-.55-.38-.688-1.237-.93-1.976-.79-.18.035-.287.127-.442.208-.17.09-.14.167-.318.225-.08.026-.216.124-.215.224 0 .114.004.05.01.168-.02.01-.02-.005-.03-.025M23.477-56.348c.018.072.007.127-.026.19-.052.1-.11.062-.164.128-.05.062-.1.276-.08.362-.168.058-.008.227-.014.35-.002.05-.04.105-.045.16-.01.12.017.267.068.37.097.2.268.414.435.545.19.148.365.572.608.63.177.043.384-.103.543-.142.18-.043.398.01.572-.053.222-.08.127-.337.288-.45.104-.074.287-.01.406-.05.2-.07.34-.264.376-.46.016-.083.01-.146.04-.222.038-.103.11-.16.09-.293-.01-.062-.053-.12-.065-.187-.022-.114.002-.224 0-.337-.003-.2.017-.38-.078-.55-.38-.688-1.237-.93-1.976-.79-.18.035-.287.127-.442.208-.17.09-.14.167-.318.225-.08.026-.216.124-.215.224 0 .114.004.05.01.168-.02.01-.02-.005-.03-.025M15.816-56.348c.018.072.007.127-.026.19-.053.1-.112.062-.165.128-.05.062-.1.276-.08.362-.168.058-.008.227-.014.35 0 .05-.04.105-.044.16-.01.12.017.267.068.37.097.2.268.414.435.545.19.148.364.572.607.63.177.043.384-.103.543-.142.18-.043.397.01.57-.053.223-.08.128-.337.29-.45.103-.074.286-.01.405-.05.2-.07.34-.264.376-.46.017-.083.01-.146.04-.222.04-.103.11-.16.09-.293-.01-.062-.052-.12-.064-.187-.022-.114.002-.224 0-.337-.003-.2.017-.38-.078-.55-.38-.688-1.236-.93-1.975-.79-.18.035-.287.127-.442.208-.17.09-.138.167-.317.225-.08.026-.216.124-.215.224 0 .114.005.05.012.168-.02.01-.02-.005-.03-.025M8.156-56.348c.018.072.007.127-.026.19-.053.1-.112.062-.165.128-.05.062-.1.276-.08.362-.168.058-.008.227-.014.35 0 .05-.04.105-.044.16-.01.12.017.267.068.37.097.2.268.414.435.545.19.148.364.572.607.63.177.043.384-.103.543-.142.18-.043.397.01.57-.053.223-.08.128-.337.29-.45.103-.074.286-.01.405-.05.2-.07.34-.264.376-.46.017-.083.01-.146.04-.222.04-.103.11-.16.09-.293-.01-.062-.052-.12-.064-.187-.022-.114.002-.224 0-.337-.003-.2.017-.38-.078-.55-.38-.688-1.236-.93-1.975-.79-.18.035-.287.127-.442.208-.17.09-.138.167-.317.225-.08.026-.216.124-.215.224 0 .114.005.05.012.168-.02.01-.02-.005-.03-.025M.495-56.348c.018.072.007.127-.026.19-.054.1-.113.062-.166.128-.05.062-.1.276-.08.362-.168.058-.01.227-.014.35-.002.05-.04.105-.045.16-.01.12.017.267.068.37.097.2.268.414.435.545.19.148.365.572.608.63.177.043.384-.103.543-.142.18-.043.396.01.57-.053.222-.08.127-.337.288-.45.104-.074.287-.01.406-.05.2-.07.34-.264.376-.46.016-.083.01-.146.04-.222.038-.103.11-.16.09-.293-.01-.062-.053-.12-.065-.187-.022-.114.002-.224 0-.337-.003-.2.017-.38-.078-.55-.38-.688-1.236-.93-1.975-.79-.18.035-.287.127-.442.208-.17.09-.14.167-.318.225-.08.026-.216.124-.215.224.003.116.006.052.013.17-.02.01-.02-.005-.03-.025M69.44-48.695c.017.072.006.127-.027.19-.053.1-.112.062-.165.128-.05.062-.1.276-.08.362-.168.058-.01.227-.014.35-.002.05-.04.105-.045.16-.01.12.016.267.067.37.097.2.268.414.435.545.19.148.365.572.608.63.177.043.384-.103.543-.142.18-.043.397.01.57-.053.223-.08.128-.337.29-.45.103-.074.286-.01.405-.05.2-.07.34-.264.376-.46.016-.083.01-.146.04-.222.038-.103.11-.16.09-.293-.01-.062-.053-.12-.065-.187-.023-.114 0-.224 0-.337-.004-.2.016-.38-.08-.55-.38-.688-1.235-.93-1.974-.79-.18.035-.287.127-.442.208-.17.088-.14.166-.318.224-.08.026-.216.124-.215.224.002.115.006.05.013.17-.02.01-.02-.006-.03-.026M61.778-48.695c.018.072.007.127-.026.19-.053.1-.112.062-.165.128-.05.062-.1.276-.08.362-.168.058-.008.227-.014.35-.002.05-.04.105-.045.16-.01.12.017.267.068.37.097.2.268.414.435.545.19.148.366.572.61.63.176.043.383-.103.542-.142.18-.043.397.01.57-.053.223-.08.128-.337.29-.45.103-.074.286-.01.405-.05.2-.07.34-.264.376-.46.016-.083.01-.146.04-.222.038-.103.11-.16.09-.293-.01-.062-.053-.12-.065-.187-.022-.114.002-.224 0-.337-.003-.2.017-.38-.078-.55-.38-.688-1.236-.93-1.975-.79-.18.035-.287.127-.442.208-.17.088-.14.166-.318.224-.08.026-.216.124-.215.224 0 .115.005.05.012.17-.02.01-.02-.006-.03-.026M54.118-48.695c.018.072.007.127-.026.19-.053.1-.112.062-.165.128-.05.062-.1.276-.08.362-.168.058-.008.227-.014.35-.002.05-.04.105-.045.16-.01.12.017.267.068.37.097.2.268.414.435.545.19.148.366.572.61.63.176.043.383-.103.542-.142.18-.043.397.01.57-.053.223-.08.128-.337.29-.45.103-.074.286-.01.405-.05.2-.07.34-.264.376-.46.016-.083.01-.146.04-.222.038-.103.11-.16.09-.293-.01-.062-.053-.12-.065-.187-.022-.114.002-.224 0-.337-.003-.2.017-.38-.078-.55-.38-.688-1.236-.93-1.975-.79-.18.035-.287.127-.442.208-.17.088-.14.166-.318.224-.08.026-.216.124-.215.224 0 .115.005.05.012.17-.02.01-.02-.006-.03-.026M46.458-48.695c.018.072.007.127-.026.19-.053.1-.112.062-.165.128-.05.062-.1.276-.08.362-.168.058-.008.227-.014.35-.002.05-.04.105-.045.16-.01.12.017.267.068.37.097.2.268.414.435.545.19.148.366.572.61.63.176.043.383-.103.542-.142.18-.043.397.01.57-.053.223-.08.128-.337.29-.45.103-.074.286-.01.405-.05.2-.07.34-.264.376-.46.016-.083.01-.146.04-.222.038-.103.11-.16.09-.293-.01-.062-.053-.12-.065-.187-.022-.114.002-.224 0-.337-.003-.2.017-.38-.078-.55-.38-.688-1.236-.93-1.975-.79-.18.035-.287.127-.442.208-.17.088-.14.166-.318.224-.08.026-.216.124-.215.224 0 .115.005.05.012.17-.02.01-.02-.006-.03-.026M38.797-48.695c.018.072.007.127-.026.19-.052.1-.11.062-.164.128-.05.062-.1.276-.08.362-.168.058-.008.227-.014.35-.002.05-.04.105-.045.16-.01.12.017.267.068.37.097.2.268.414.435.545.19.148.365.572.608.63.177.043.384-.103.543-.142.18-.043.398.01.572-.053.222-.08.127-.337.288-.45.104-.074.287-.01.406-.05.2-.07.34-.264.376-.46.016-.083.01-.146.04-.222.038-.103.11-.16.09-.293-.01-.062-.053-.12-.065-.187-.022-.114.002-.224 0-.337-.003-.2.017-.38-.078-.55-.38-.688-1.237-.93-1.976-.79-.18.035-.287.127-.442.208-.17.088-.14.166-.318.224-.08.026-.216.124-.215.224 0 .115.004.05.01.17-.02.01-.02-.006-.03-.026M31.137-48.695c.018.072.007.127-.026.19-.052.1-.11.062-.164.128-.05.062-.1.276-.08.362-.168.058-.008.227-.014.35-.002.05-.04.105-.045.16-.01.12.017.267.068.37.097.2.268.414.435.545.19.148.365.572.608.63.177.043.384-.103.543-.142.18-.043.398.01.572-.053.222-.08.127-.337.288-.45.104-.074.287-.01.406-.05.2-.07.34-.264.376-.46.016-.083.01-.146.04-.222.038-.103.11-.16.09-.293-.01-.062-.053-.12-.065-.187-.022-.114.002-.224 0-.337-.003-.2.017-.38-.078-.55-.38-.688-1.237-.93-1.976-.79-.18.035-.287.127-.442.208-.17.088-.14.166-.318.224-.08.026-.216.124-.215.224 0 .115.004.05.01.17-.02.01-.02-.006-.03-.026M23.477-48.695c.018.072.007.127-.026.19-.052.1-.11.062-.164.128-.05.062-.1.276-.08.362-.168.058-.008.227-.014.35-.002.05-.04.105-.045.16-.01.12.017.267.068.37.097.2.268.414.435.545.19.148.365.572.608.63.177.043.384-.103.543-.142.18-.043.398.01.572-.053.222-.08.127-.337.288-.45.104-.074.287-.01.406-.05.2-.07.34-.264.376-.46.016-.083.01-.146.04-.222.038-.103.11-.16.09-.293-.01-.062-.053-.12-.065-.187-.022-.114.002-.224 0-.337-.003-.2.017-.38-.078-.55-.38-.688-1.237-.93-1.976-.79-.18.035-.287.127-.442.208-.17.088-.14.166-.318.224-.08.026-.216.124-.215.224 0 .115.004.05.01.17-.02.01-.02-.006-.03-.026M15.816-48.695c.018.072.007.127-.026.19-.053.1-.112.062-.165.128-.05.062-.1.276-.08.362-.168.058-.008.227-.014.35 0 .05-.04.105-.044.16-.01.12.017.267.068.37.097.2.268.414.435.545.19.148.364.572.607.63.177.043.384-.103.543-.142.18-.043.397.01.57-.053.223-.08.128-.337.29-.45.103-.074.286-.01.405-.05.2-.07.34-.264.376-.46.017-.083.01-.146.04-.222.04-.103.11-.16.09-.293-.01-.062-.052-.12-.064-.187-.022-.114.002-.224 0-.337-.003-.2.017-.38-.078-.55-.38-.688-1.236-.93-1.975-.79-.18.035-.287.127-.442.208-.17.088-.138.166-.317.224-.08.026-.216.124-.215.224 0 .115.005.05.012.17-.02.01-.02-.006-.03-.026M8.156-48.695c.018.072.007.127-.026.19-.053.1-.112.062-.165.128-.05.062-.1.276-.08.362-.168.058-.008.227-.014.35 0 .05-.04.105-.044.16-.01.12.017.267.068.37.097.2.268.414.435.545.19.148.364.572.607.63.177.043.384-.103.543-.142.18-.043.397.01.57-.053.223-.08.128-.337.29-.45.103-.074.286-.01.405-.05.2-.07.34-.264.376-.46.017-.083.01-.146.04-.222.04-.103.11-.16.09-.293-.01-.062-.052-.12-.064-.187-.022-.114.002-.224 0-.337-.003-.2.017-.38-.078-.55-.38-.688-1.236-.93-1.975-.79-.18.035-.287.127-.442.208-.17.088-.138.166-.317.224-.08.026-.216.124-.215.224 0 .115.005.05.012.17-.02.01-.02-.006-.03-.026M.495-48.695c.018.072.007.127-.026.19-.054.1-.113.062-.166.128-.05.062-.1.276-.08.362-.168.058-.01.227-.014.35-.002.05-.04.105-.045.16-.01.12.017.267.068.37.097.2.268.414.435.545.19.148.365.572.608.63.177.043.384-.103.543-.142.18-.043.396.01.57-.053.222-.08.127-.337.288-.45.104-.074.287-.01.406-.05.2-.07.34-.264.376-.46.016-.083.01-.146.04-.222.038-.103.11-.16.09-.293-.01-.062-.053-.12-.065-.187-.022-.114.002-.224 0-.337-.003-.2.017-.38-.078-.55-.38-.688-1.236-.93-1.975-.79-.18.035-.287.127-.442.208-.17.088-.14.166-.318.224-.08.026-.216.124-.215.224 0 .115.005.05.012.17-.022.01-.022-.006-.03-.026M69.44-41.042c.017.072.006.127-.027.19-.053.1-.112.062-.165.128-.05.062-.1.276-.08.362-.168.058-.01.227-.014.35-.002.05-.04.105-.045.16-.01.12.016.267.067.37.097.2.268.414.435.545.19.148.365.572.608.63.177.043.384-.103.543-.142.18-.042.397.01.57-.052.223-.08.128-.337.29-.45.103-.074.286-.01.405-.05.2-.07.34-.264.376-.46.016-.083.01-.146.04-.222.038-.103.11-.16.09-.293-.01-.062-.053-.12-.065-.187-.023-.114 0-.224 0-.337-.004-.2.016-.38-.08-.55-.38-.69-1.235-.93-1.974-.79-.18.034-.287.126-.442.207-.17.088-.14.166-.318.224-.08.027-.216.125-.215.225.002.115.006.05.013.17-.02.01-.02-.006-.03-.026M61.778-41.042c.018.072.007.127-.026.19-.053.1-.112.062-.165.128-.05.062-.1.276-.08.362-.168.058-.008.227-.014.35-.002.05-.04.105-.045.16-.01.12.017.267.068.37.097.2.268.414.435.545.19.148.366.572.61.63.176.043.383-.103.542-.142.18-.042.397.01.57-.052.223-.08.128-.337.29-.45.103-.074.286-.01.405-.05.2-.07.34-.264.376-.46.016-.083.01-.146.04-.222.038-.103.11-.16.09-.293-.01-.062-.053-.12-.065-.187-.022-.114.002-.224 0-.337-.003-.2.017-.38-.078-.55-.38-.69-1.236-.93-1.975-.79-.18.034-.287.126-.442.207-.17.088-.14.166-.318.224-.08.027-.216.125-.215.225 0 .115.005.05.012.17-.02.01-.02-.006-.03-.026M54.118-41.042c.018.072.007.127-.026.19-.053.1-.112.062-.165.128-.05.062-.1.276-.08.362-.168.058-.008.227-.014.35-.002.05-.04.105-.045.16-.01.12.017.267.068.37.097.2.268.414.435.545.19.148.366.572.61.63.176.043.383-.103.542-.142.18-.042.397.01.57-.052.223-.08.128-.337.29-.45.103-.074.286-.01.405-.05.2-.07.34-.264.376-.46.016-.083.01-.146.04-.222.038-.103.11-.16.09-.293-.01-.062-.053-.12-.065-.187-.022-.114.002-.224 0-.337-.003-.2.017-.38-.078-.55-.38-.69-1.236-.93-1.975-.79-.18.034-.287.126-.442.207-.17.088-.14.166-.318.224-.08.027-.216.125-.215.225 0 .115.005.05.012.17-.02.01-.02-.006-.03-.026M46.458-41.042c.018.072.007.127-.026.19-.053.1-.112.062-.165.128-.05.062-.1.276-.08.362-.168.058-.008.227-.014.35-.002.05-.04.105-.045.16-.01.12.017.267.068.37.097.2.268.414.435.545.19.148.366.572.61.63.176.043.383-.103.542-.142.18-.042.397.01.57-.052.223-.08.128-.337.29-.45.103-.074.286-.01.405-.05.2-.07.34-.264.376-.46.016-.083.01-.146.04-.222.038-.103.11-.16.09-.293-.01-.062-.053-.12-.065-.187-.022-.114.002-.224 0-.337-.003-.2.017-.38-.078-.55-.38-.69-1.236-.93-1.975-.79-.18.034-.287.126-.442.207-.17.088-.14.166-.318.224-.08.027-.216.125-.215.225 0 .115.005.05.012.17-.02.01-.02-.006-.03-.026M38.797-41.042c.018.072.007.127-.026.19-.052.1-.11.062-.164.128-.05.062-.1.276-.08.362-.168.058-.008.227-.014.35-.002.05-.04.105-.045.16-.01.12.017.267.068.37.097.2.268.414.435.545.19.148.365.572.608.63.177.043.384-.103.543-.142.18-.042.398.01.572-.052.222-.08.127-.337.288-.45.104-.074.287-.01.406-.05.2-.07.34-.264.376-.46.016-.083.01-.146.04-.222.038-.103.11-.16.09-.293-.01-.062-.053-.12-.065-.187-.022-.114.002-.224 0-.337-.003-.2.017-.38-.078-.55-.38-.69-1.237-.93-1.976-.79-.18.034-.287.126-.442.207-.17.088-.14.166-.318.224-.08.027-.216.125-.215.225 0 .115.004.05.01.17-.02.01-.02-.006-.03-.026M31.137-41.042c.018.072.007.127-.026.19-.052.1-.11.062-.164.128-.05.062-.1.276-.08.362-.168.058-.008.227-.014.35-.002.05-.04.105-.045.16-.01.12.017.267.068.37.097.2.268.414.435.545.19.148.365.572.608.63.177.043.384-.103.543-.142.18-.042.398.01.572-.052.222-.08.127-.337.288-.45.104-.074.287-.01.406-.05.2-.07.34-.264.376-.46.016-.083.01-.146.04-.222.038-.103.11-.16.09-.293-.01-.062-.053-.12-.065-.187-.022-.114.002-.224 0-.337-.003-.2.017-.38-.078-.55-.38-.69-1.237-.93-1.976-.79-.18.034-.287.126-.442.207-.17.088-.14.166-.318.224-.08.027-.216.125-.215.225 0 .115.004.05.01.17-.02.01-.02-.006-.03-.026M23.477-41.042c.018.072.007.127-.026.19-.052.1-.11.062-.164.128-.05.062-.1.276-.08.362-.168.058-.008.227-.014.35-.002.05-.04.105-.045.16-.01.12.017.267.068.37.097.2.268.414.435.545.19.148.365.572.608.63.177.043.384-.103.543-.142.18-.042.398.01.572-.052.222-.08.127-.337.288-.45.104-.074.287-.01.406-.05.2-.07.34-.264.376-.46.016-.083.01-.146.04-.222.038-.103.11-.16.09-.293-.01-.062-.053-.12-.065-.187-.022-.114.002-.224 0-.337-.003-.2.017-.38-.078-.55-.38-.69-1.237-.93-1.976-.79-.18.034-.287.126-.442.207-.17.088-.14.166-.318.224-.08.027-.216.125-.215.225 0 .115.004.05.01.17-.02.01-.02-.006-.03-.026M15.816-41.042c.018.072.007.127-.026.19-.053.1-.112.062-.165.128-.05.062-.1.276-.08.362-.168.058-.008.227-.014.35 0 .05-.04.105-.044.16-.01.12.017.267.068.37.097.2.268.414.435.545.19.148.364.572.607.63.177.043.384-.103.543-.142.18-.042.397.01.57-.052.223-.08.128-.337.29-.45.103-.074.286-.01.405-.05.2-.07.34-.264.376-.46.017-.083.01-.146.04-.222.04-.103.11-.16.09-.293-.01-.062-.052-.12-.064-.187-.022-.114.002-.224 0-.337-.003-.2.017-.38-.078-.55-.38-.69-1.236-.93-1.975-.79-.18.034-.287.126-.442.207-.17.088-.138.166-.317.224-.08.027-.216.125-.215.225 0 .115.005.05.012.17-.02.01-.02-.006-.03-.026M8.156-41.042c.018.072.007.127-.026.19-.053.1-.112.062-.165.128-.05.062-.1.276-.08.362-.168.058-.008.227-.014.35 0 .05-.04.105-.044.16-.01.12.017.267.068.37.097.2.268.414.435.545.19.148.364.572.607.63.177.043.384-.103.543-.142.18-.042.397.01.57-.052.223-.08.128-.337.29-.45.103-.074.286-.01.405-.05.2-.07.34-.264.376-.46.017-.083.01-.146.04-.222.04-.103.11-.16.09-.293-.01-.062-.052-.12-.064-.187-.022-.114.002-.224 0-.337-.003-.2.017-.38-.078-.55-.38-.69-1.236-.93-1.975-.79-.18.034-.287.126-.442.207-.17.088-.138.166-.317.224-.08.027-.216.125-.215.225 0 .115.005.05.012.17-.02.01-.02-.005-.03-.025M.495-41.042c.018.072.007.127-.026.19-.054.1-.113.062-.166.128-.05.062-.1.276-.08.362-.168.058-.01.227-.014.35-.002.05-.04.105-.045.16-.01.12.017.267.068.37.097.2.268.414.435.545.19.148.365.572.608.63.177.043.384-.103.543-.142.18-.042.396.01.57-.052.222-.08.127-.337.288-.45.104-.074.287-.01.406-.05.2-.07.34-.264.376-.46.016-.083.01-.146.04-.222.038-.103.11-.16.09-.293-.01-.062-.053-.12-.065-.187-.022-.114.002-.224 0-.337-.003-.2.017-.38-.078-.55-.38-.69-1.236-.93-1.975-.79-.18.034-.287.126-.442.207-.17.088-.14.166-.318.224-.08.027-.216.125-.215.225 0 .115.005.05.012.17-.022.01-.022-.006-.03-.026M69.44-33.39c.017.072.006.127-.027.19-.053.1-.112.062-.165.128-.05.062-.1.276-.08.362-.168.058-.01.227-.014.35-.002.05-.04.105-.045.16-.01.12.016.267.067.37.097.2.268.414.435.545.19.148.365.572.608.63.177.043.384-.103.543-.142.18-.043.397.01.57-.053.223-.08.128-.337.29-.45.103-.074.286-.01.405-.05.2-.07.34-.264.376-.46.016-.083.01-.146.04-.222.038-.103.11-.16.09-.293-.01-.062-.053-.12-.065-.187-.023-.114 0-.224 0-.337-.004-.2.016-.378-.08-.55-.38-.687-1.235-.928-1.974-.788-.18.034-.287.126-.442.207-.17.087-.14.165-.318.223-.08.026-.216.124-.215.224.002.115.006.05.013.17-.02.01-.02-.006-.03-.026M61.778-33.39c.018.072.007.127-.026.19-.053.1-.112.062-.165.128-.05.062-.1.276-.08.362-.168.058-.008.227-.014.35-.002.05-.04.105-.045.16-.01.12.017.267.068.37.097.2.268.414.435.545.19.148.366.572.61.63.176.043.383-.103.542-.142.18-.043.397.01.57-.053.223-.08.128-.337.29-.45.103-.074.286-.01.405-.05.2-.07.34-.264.376-.46.016-.083.01-.146.04-.222.038-.103.11-.16.09-.293-.01-.062-.053-.12-.065-.187-.022-.114.002-.224 0-.337-.003-.2.017-.378-.078-.55-.38-.687-1.236-.928-1.975-.788-.18.034-.287.126-.442.207-.17.087-.14.165-.318.223-.08.026-.216.124-.215.224 0 .115.005.05.012.17-.02.01-.02-.006-.03-.026M54.118-33.39c.018.072.007.127-.026.19-.053.1-.112.062-.165.128-.05.062-.1.276-.08.362-.168.058-.008.227-.014.35-.002.05-.04.105-.045.16-.01.12.017.267.068.37.097.2.268.414.435.545.19.148.366.572.61.63.176.043.383-.103.542-.142.18-.043.397.01.57-.053.223-.08.128-.337.29-.45.103-.074.286-.01.405-.05.2-.07.34-.264.376-.46.016-.083.01-.146.04-.222.038-.103.11-.16.09-.293-.01-.062-.053-.12-.065-.187-.022-.114.002-.224 0-.337-.003-.2.017-.378-.078-.55-.38-.687-1.236-.928-1.975-.788-.18.034-.287.126-.442.207-.17.087-.14.165-.318.223-.08.026-.216.124-.215.224 0 .115.005.05.012.17-.02.01-.02-.006-.03-.026M46.458-33.39c.018.072.007.127-.026.19-.053.1-.112.062-.165.128-.05.062-.1.276-.08.362-.168.058-.008.227-.014.35-.002.05-.04.105-.045.16-.01.12.017.267.068.37.097.2.268.414.435.545.19.148.366.572.61.63.176.043.383-.103.542-.142.18-.043.397.01.57-.053.223-.08.128-.337.29-.45.103-.074.286-.01.405-.05.2-.07.34-.264.376-.46.016-.083.01-.146.04-.222.038-.103.11-.16.09-.293-.01-.062-.053-.12-.065-.187-.022-.114.002-.224 0-.337-.003-.2.017-.378-.078-.55-.38-.687-1.236-.928-1.975-.788-.18.034-.287.126-.442.207-.17.087-.14.165-.318.223-.08.026-.216.124-.215.224 0 .115.005.05.012.17-.02.01-.02-.006-.03-.026M38.797-33.39c.018.072.007.127-.026.19-.052.1-.11.062-.164.128-.05.062-.1.276-.08.362-.168.058-.008.227-.014.35-.002.05-.04.105-.045.16-.01.12.017.267.068.37.097.2.268.414.435.545.19.148.365.572.608.63.177.043.384-.103.543-.142.18-.043.398.01.572-.053.222-.08.127-.337.288-.45.104-.074.287-.01.406-.05.2-.07.34-.264.376-.46.016-.083.01-.146.04-.222.038-.103.11-.16.09-.293-.01-.062-.053-.12-.065-.187-.022-.114.002-.224 0-.337-.003-.2.017-.378-.078-.55-.38-.687-1.237-.928-1.976-.788-.18.034-.287.126-.442.207-.17.087-.14.165-.318.223-.08.026-.216.124-.215.224 0 .115.004.05.01.17-.02.01-.02-.006-.03-.026M31.137-33.39c.018.072.007.127-.026.19-.052.1-.11.062-.164.128-.05.062-.1.276-.08.362-.168.058-.008.227-.014.35-.002.05-.04.105-.045.16-.01.12.017.267.068.37.097.2.268.414.435.545.19.148.365.572.608.63.177.043.384-.103.543-.142.18-.043.398.01.572-.053.222-.08.127-.337.288-.45.104-.074.287-.01.406-.05.2-.07.34-.264.376-.46.016-.083.01-.146.04-.222.038-.103.11-.16.09-.293-.01-.062-.053-.12-.065-.187-.022-.114.002-.224 0-.337-.003-.2.017-.378-.078-.55-.38-.687-1.237-.928-1.976-.788-.18.034-.287.126-.442.207-.17.087-.14.165-.318.223-.08.026-.216.124-.215.224 0 .115.004.05.01.17-.02.01-.02-.006-.03-.026M23.477-33.39c.018.072.007.127-.026.19-.052.1-.11.062-.164.128-.05.062-.1.276-.08.362-.168.058-.008.227-.014.35-.002.05-.04.105-.045.16-.01.12.017.267.068.37.097.2.268.414.435.545.19.148.365.572.608.63.177.043.384-.103.543-.142.18-.043.398.01.572-.053.222-.08.127-.337.288-.45.104-.074.287-.01.406-.05.2-.07.34-.264.376-.46.016-.083.01-.146.04-.222.038-.103.11-.16.09-.293-.01-.062-.053-.12-.065-.187-.022-.114.002-.224 0-.337-.003-.2.017-.378-.078-.55-.38-.687-1.237-.928-1.976-.788-.18.034-.287.126-.442.207-.17.087-.14.165-.318.223-.08.026-.216.124-.215.224 0 .115.004.05.01.17-.02.01-.02-.006-.03-.026M15.816-33.39c.018.072.007.127-.026.19-.053.1-.112.062-.165.128-.05.062-.1.276-.08.362-.168.058-.008.227-.014.35 0 .05-.04.105-.044.16-.01.12.017.267.068.37.097.2.268.414.435.545.19.148.364.572.607.63.177.043.384-.103.543-.142.18-.043.397.01.57-.053.223-.08.128-.337.29-.45.103-.074.286-.01.405-.05.2-.07.34-.264.376-.46.017-.083.01-.146.04-.222.04-.103.11-.16.09-.293-.01-.062-.052-.12-.064-.187-.022-.114.002-.224 0-.337-.003-.2.017-.378-.078-.55-.38-.687-1.236-.928-1.975-.788-.18.034-.287.126-.442.207-.17.087-.138.165-.317.223-.08.026-.216.124-.215.224 0 .115.005.05.012.17-.02.01-.02-.006-.03-.026M8.156-33.39c.018.072.007.127-.026.19-.053.1-.112.062-.165.128-.05.062-.1.276-.08.362-.168.058-.008.227-.014.35 0 .05-.04.105-.044.16-.01.12.017.267.068.37.097.2.268.414.435.545.19.148.364.572.607.63.177.043.384-.103.543-.142.18-.043.397.01.57-.053.223-.08.128-.337.29-.45.103-.074.286-.01.405-.05.2-.07.34-.264.376-.46.017-.083.01-.146.04-.222.04-.103.11-.16.09-.293-.01-.062-.052-.12-.064-.187-.022-.114.002-.224 0-.337-.003-.2.017-.378-.078-.55-.38-.687-1.236-.928-1.975-.788-.18.034-.287.126-.442.207-.17.087-.138.165-.317.223-.08.026-.216.124-.215.224 0 .115.005.05.012.17-.02.01-.02-.006-.03-.026M.495-33.39c.018.072.007.127-.026.19-.054.1-.113.062-.166.128-.05.062-.1.276-.08.362-.168.058-.01.227-.014.35-.002.05-.04.105-.045.16-.01.12.017.267.068.37.097.2.268.414.435.545.19.148.365.572.608.63.177.043.384-.103.543-.142.18-.043.396.01.57-.053.222-.08.127-.337.288-.45.104-.074.287-.01.406-.05.2-.07.34-.264.376-.46.016-.083.01-.146.04-.222.038-.103.11-.16.09-.293-.01-.062-.053-.12-.065-.187-.022-.114.002-.224 0-.337-.003-.2.017-.378-.078-.55-.38-.687-1.236-.928-1.975-.788-.18.034-.287.126-.442.207-.17.087-.14.165-.318.223-.08.026-.216.124-.215.224.003.117.006.053.013.17-.02.012-.02-.004-.03-.024M69.44-25.736c.017.072.006.127-.027.19-.053.1-.112.062-.165.128-.05.062-.1.276-.08.362-.168.058-.01.227-.014.35-.002.05-.04.105-.045.16-.01.12.016.267.067.37.097.2.268.414.435.545.19.147.365.57.608.63.177.042.384-.104.543-.143.18-.043.397.01.57-.053.223-.08.128-.337.29-.45.103-.074.286-.01.405-.05.2-.07.34-.264.376-.46.016-.083.01-.146.04-.222.038-.103.11-.16.09-.293-.01-.063-.053-.12-.065-.188-.023-.114 0-.224 0-.337-.004-.2.016-.38-.08-.55-.38-.688-1.235-.93-1.974-.79-.18.035-.287.127-.442.208-.17.088-.14.166-.318.224-.08.026-.216.124-.215.224.002.116.006.052.013.17-.02.01-.02-.005-.03-.025M61.778-25.736c.018.072.007.127-.026.19-.053.1-.112.062-.165.128-.05.062-.1.276-.08.362-.168.058-.008.227-.014.35-.002.05-.04.105-.045.16-.01.12.017.267.068.37.097.2.268.414.435.545.19.147.366.57.61.63.176.042.383-.104.542-.143.18-.043.397.01.57-.053.223-.08.128-.337.29-.45.103-.074.286-.01.405-.05.2-.07.34-.264.376-.46.016-.083.01-.146.04-.222.038-.103.11-.16.09-.293-.01-.063-.053-.12-.065-.188-.022-.114.002-.224 0-.337-.003-.2.017-.38-.078-.55-.38-.688-1.236-.93-1.975-.79-.18.035-.287.127-.442.208-.17.088-.14.166-.318.224-.08.026-.216.124-.215.224 0 .116.005.052.012.17-.02.01-.02-.005-.03-.025M54.118-25.736c.018.072.007.127-.026.19-.053.1-.112.062-.165.128-.05.062-.1.276-.08.362-.168.058-.008.227-.014.35-.002.05-.04.105-.045.16-.01.12.017.267.068.37.097.2.268.414.435.545.19.147.366.57.61.63.176.042.383-.104.542-.143.18-.043.397.01.57-.053.223-.08.128-.337.29-.45.103-.074.286-.01.405-.05.2-.07.34-.264.376-.46.016-.083.01-.146.04-.222.038-.103.11-.16.09-.293-.01-.063-.053-.12-.065-.188-.022-.114.002-.224 0-.337-.003-.2.017-.38-.078-.55-.38-.688-1.236-.93-1.975-.79-.18.035-.287.127-.442.208-.17.088-.14.166-.318.224-.08.026-.216.124-.215.224 0 .116.005.052.012.17-.02.01-.02-.005-.03-.025M46.458-25.736c.018.072.007.127-.026.19-.053.1-.112.062-.165.128-.05.062-.1.276-.08.362-.168.058-.008.227-.014.35-.002.05-.04.105-.045.16-.01.12.017.267.068.37.097.2.268.414.435.545.19.147.366.57.61.63.176.042.383-.104.542-.143.18-.043.397.01.57-.053.223-.08.128-.337.29-.45.103-.074.286-.01.405-.05.2-.07.34-.264.376-.46.016-.083.01-.146.04-.222.038-.103.11-.16.09-.293-.01-.063-.053-.12-.065-.188-.022-.114.002-.224 0-.337-.003-.2.017-.38-.078-.55-.38-.688-1.236-.93-1.975-.79-.18.035-.287.127-.442.208-.17.088-.14.166-.318.224-.08.026-.216.124-.215.224 0 .116.005.052.012.17-.02.01-.02-.005-.03-.025M38.797-25.736c.018.072.007.127-.026.19-.052.1-.11.062-.164.128-.05.062-.1.276-.08.362-.168.058-.008.227-.014.35-.002.05-.04.105-.045.16-.01.12.017.267.068.37.097.2.268.414.435.545.19.147.365.57.608.63.177.042.384-.104.543-.143.18-.043.398.01.572-.053.222-.08.127-.337.288-.45.104-.074.287-.01.406-.05.2-.07.34-.264.376-.46.016-.083.01-.146.04-.222.038-.103.11-.16.09-.293-.01-.063-.053-.12-.065-.188-.022-.114.002-.224 0-.337-.003-.2.017-.38-.078-.55-.38-.688-1.237-.93-1.976-.79-.18.035-.287.127-.442.208-.17.088-.14.166-.318.224-.08.026-.216.124-.215.224 0 .116.004.052.01.17-.02.01-.02-.005-.03-.025M31.137-25.736c.018.072.007.127-.026.19-.052.1-.11.062-.164.128-.05.062-.1.276-.08.362-.168.058-.008.227-.014.35-.002.05-.04.105-.045.16-.01.12.017.267.068.37.097.2.268.414.435.545.19.147.365.57.608.63.177.042.384-.104.543-.143.18-.043.398.01.572-.053.222-.08.127-.337.288-.45.104-.074.287-.01.406-.05.2-.07.34-.264.376-.46.016-.083.01-.146.04-.222.038-.103.11-.16.09-.293-.01-.063-.053-.12-.065-.188-.022-.114.002-.224 0-.337-.003-.2.017-.38-.078-.55-.38-.688-1.237-.93-1.976-.79-.18.035-.287.127-.442.208-.17.088-.14.166-.318.224-.08.026-.216.124-.215.224 0 .116.004.052.01.17-.02.01-.02-.005-.03-.025M23.477-25.736c.018.072.007.127-.026.19-.052.1-.11.062-.164.128-.05.062-.1.276-.08.362-.168.058-.008.227-.014.35-.002.05-.04.105-.045.16-.01.12.017.267.068.37.097.2.268.414.435.545.19.147.365.57.608.63.177.042.384-.104.543-.143.18-.043.398.01.572-.053.222-.08.127-.337.288-.45.104-.074.287-.01.406-.05.2-.07.34-.264.376-.46.016-.083.01-.146.04-.222.038-.103.11-.16.09-.293-.01-.063-.053-.12-.065-.188-.022-.114.002-.224 0-.337-.003-.2.017-.38-.078-.55-.38-.688-1.237-.93-1.976-.79-.18.035-.287.127-.442.208-.17.088-.14.166-.318.224-.08.026-.216.124-.215.224 0 .116.004.052.01.17-.02.01-.02-.005-.03-.025M15.816-25.736c.018.072.007.127-.026.19-.053.1-.112.062-.165.128-.05.062-.1.276-.08.362-.168.058-.008.227-.014.35 0 .05-.04.105-.044.16-.01.12.017.267.068.37.097.2.268.414.435.545.19.147.364.57.607.63.177.042.384-.104.543-.143.18-.043.397.01.57-.053.223-.08.128-.337.29-.45.103-.074.286-.01.405-.05.2-.07.34-.264.376-.46.017-.083.01-.146.04-.222.04-.103.11-.16.09-.293-.01-.063-.052-.12-.064-.188-.022-.114.002-.224 0-.337-.003-.2.017-.38-.078-.55-.38-.688-1.236-.93-1.975-.79-.18.035-.287.127-.442.208-.17.088-.138.166-.317.224-.08.026-.216.124-.215.224 0 .116.005.052.012.17-.02.01-.02-.005-.03-.025M8.156-25.736c.018.072.007.127-.026.19-.053.1-.112.062-.165.128-.05.062-.1.276-.08.362-.168.058-.008.227-.014.35 0 .05-.04.105-.044.16-.01.12.017.267.068.37.097.2.268.414.435.545.19.147.364.57.607.63.177.042.384-.104.543-.143.18-.043.397.01.57-.053.223-.08.128-.337.29-.45.103-.074.286-.01.405-.05.2-.07.34-.264.376-.46.017-.083.01-.146.04-.222.04-.103.11-.16.09-.293-.01-.063-.052-.12-.064-.188-.022-.114.002-.224 0-.337-.003-.2.017-.38-.078-.55-.38-.688-1.236-.93-1.975-.79-.18.035-.287.127-.442.208-.17.088-.138.166-.317.224-.08.026-.216.124-.215.224 0 .116.005.052.012.17-.02.01-.02-.005-.03-.025M.495-25.736c.018.072.007.127-.026.19-.054.1-.113.062-.166.128-.05.062-.1.276-.08.362-.168.058-.01.227-.014.35-.002.05-.04.105-.045.16-.01.12.017.267.068.37.097.2.268.414.435.545.19.147.365.57.608.63.177.042.384-.104.543-.143.18-.043.396.01.57-.053.222-.08.127-.337.288-.45.104-.074.287-.01.406-.05.2-.07.34-.264.376-.46.016-.083.01-.146.04-.222.038-.103.11-.16.09-.293-.01-.063-.053-.12-.065-.188-.022-.114.002-.224 0-.337-.003-.2.017-.38-.078-.55-.38-.688-1.236-.93-1.975-.79-.18.035-.287.127-.442.208-.17.088-.14.166-.318.224-.08.026-.216.124-.215.224 0 .116.005.052.012.17-.022.01-.022-.005-.03-.025M69.44-18.084c.017.072.006.127-.027.19-.053.1-.112.062-.165.128-.05.062-.1.276-.08.362-.168.058-.01.227-.014.35-.002.05-.04.105-.045.16-.01.12.016.267.067.37.097.2.268.414.435.545.19.15.365.573.608.632.177.042.384-.104.543-.143.18-.044.397.01.57-.054.223-.08.128-.337.29-.45.103-.074.286-.01.405-.05.2-.07.34-.264.376-.46.016-.083.01-.146.04-.222.038-.103.11-.16.09-.293-.01-.06-.053-.12-.065-.186-.023-.114 0-.224 0-.337-.004-.2.016-.38-.08-.55-.38-.688-1.235-.93-1.974-.79-.18.035-.287.127-.442.208-.17.088-.14.166-.318.224-.08.025-.216.123-.215.223.002.115.006.05.013.17-.02.01-.02-.006-.03-.026M61.778-18.084c.018.072.007.127-.026.19-.053.1-.112.062-.165.128-.05.062-.1.276-.08.362-.168.058-.008.227-.014.35-.002.05-.04.105-.045.16-.01.12.017.267.068.37.097.2.268.414.435.545.19.15.366.573.61.632.176.042.383-.104.542-.143.18-.044.397.01.57-.054.223-.08.128-.337.29-.45.103-.074.286-.01.405-.05.2-.07.34-.264.376-.46.016-.083.01-.146.04-.222.038-.103.11-.16.09-.293-.01-.06-.053-.12-.065-.186-.022-.114.002-.224 0-.337-.003-.2.017-.38-.078-.55-.38-.688-1.236-.93-1.975-.79-.18.035-.287.127-.442.208-.17.088-.14.166-.318.224-.08.025-.216.123-.215.223 0 .115.005.05.012.17-.02.01-.02-.006-.03-.026M54.118-18.084c.018.072.007.127-.026.19-.053.1-.112.062-.165.128-.05.062-.1.276-.08.362-.168.058-.008.227-.014.35-.002.05-.04.105-.045.16-.01.12.017.267.068.37.097.2.268.414.435.545.19.15.366.573.61.632.176.042.383-.104.542-.143.18-.044.397.01.57-.054.223-.08.128-.337.29-.45.103-.074.286-.01.405-.05.2-.07.34-.264.376-.46.016-.083.01-.146.04-.222.038-.103.11-.16.09-.293-.01-.06-.053-.12-.065-.186-.022-.114.002-.224 0-.337-.003-.2.017-.38-.078-.55-.38-.688-1.236-.93-1.975-.79-.18.035-.287.127-.442.208-.17.088-.14.166-.318.224-.08.025-.216.123-.215.223 0 .115.005.05.012.17-.02.01-.02-.006-.03-.026M46.458-18.084c.018.072.007.127-.026.19-.053.1-.112.062-.165.128-.05.062-.1.276-.08.362-.168.058-.008.227-.014.35-.002.05-.04.105-.045.16-.01.12.017.267.068.37.097.2.268.414.435.545.19.15.366.573.61.632.176.042.383-.104.542-.143.18-.044.397.01.57-.054.223-.08.128-.337.29-.45.103-.074.286-.01.405-.05.2-.07.34-.264.376-.46.016-.083.01-.146.04-.222.038-.103.11-.16.09-.293-.01-.06-.053-.12-.065-.186-.022-.114.002-.224 0-.337-.003-.2.017-.38-.078-.55-.38-.688-1.236-.93-1.975-.79-.18.035-.287.127-.442.208-.17.088-.14.166-.318.224-.08.025-.216.123-.215.223 0 .115.005.05.012.17-.02.01-.02-.006-.03-.026M38.797-18.084c.018.072.007.127-.026.19-.052.1-.11.062-.164.128-.05.062-.1.276-.08.362-.168.058-.008.227-.014.35-.002.05-.04.105-.045.16-.01.12.017.267.068.37.097.2.268.414.435.545.19.15.365.573.608.632.177.042.384-.104.543-.143.18-.044.398.01.572-.054.222-.08.127-.337.288-.45.104-.074.287-.01.406-.05.2-.07.34-.264.376-.46.016-.083.01-.146.04-.222.038-.103.11-.16.09-.293-.01-.06-.053-.12-.065-.186-.022-.114.002-.224 0-.337-.003-.2.017-.38-.078-.55-.38-.688-1.237-.93-1.976-.79-.18.035-.287.127-.442.208-.17.088-.14.166-.318.224-.08.025-.216.123-.215.223 0 .115.004.05.01.17-.02.01-.02-.006-.03-.026M31.137-18.084c.018.072.007.127-.026.19-.052.1-.11.062-.164.128-.05.062-.1.276-.08.362-.168.058-.008.227-.014.35-.002.05-.04.105-.045.16-.01.12.017.267.068.37.097.2.268.414.435.545.19.15.365.573.608.632.177.042.384-.104.543-.143.18-.044.398.01.572-.054.222-.08.127-.337.288-.45.104-.074.287-.01.406-.05.2-.07.34-.264.376-.46.016-.083.01-.146.04-.222.038-.103.11-.16.09-.293-.01-.06-.053-.12-.065-.186-.022-.114.002-.224 0-.337-.003-.2.017-.38-.078-.55-.38-.688-1.237-.93-1.976-.79-.18.035-.287.127-.442.208-.17.088-.14.166-.318.224-.08.025-.216.123-.215.223 0 .115.004.05.01.17-.02.01-.02-.006-.03-.026M23.477-18.084c.018.072.007.127-.026.19-.052.1-.11.062-.164.128-.05.062-.1.276-.08.362-.168.058-.008.227-.014.35-.002.05-.04.105-.045.16-.01.12.017.267.068.37.097.2.268.414.435.545.19.15.365.573.608.632.177.042.384-.104.543-.143.18-.044.398.01.572-.054.222-.08.127-.337.288-.45.104-.074.287-.01.406-.05.2-.07.34-.264.376-.46.016-.083.01-.146.04-.222.038-.103.11-.16.09-.293-.01-.06-.053-.12-.065-.186-.022-.114.002-.224 0-.337-.003-.2.017-.38-.078-.55-.38-.688-1.237-.93-1.976-.79-.18.035-.287.127-.442.208-.17.088-.14.166-.318.224-.08.025-.216.123-.215.223 0 .115.004.05.01.17-.02.01-.02-.006-.03-.026M15.816-18.084c.018.072.007.127-.026.19-.053.1-.112.062-.165.128-.05.062-.1.276-.08.362-.168.058-.008.227-.014.35 0 .05-.04.105-.044.16-.01.12.017.267.068.37.097.2.268.414.435.545.19.15.364.573.607.632.177.042.384-.104.543-.143.18-.044.397.01.57-.054.223-.08.128-.337.29-.45.103-.074.286-.01.405-.05.2-.07.34-.264.376-.46.017-.083.01-.146.04-.222.04-.103.11-.16.09-.293-.01-.06-.052-.12-.064-.186-.022-.114.002-.224 0-.337-.003-.2.017-.38-.078-.55-.38-.688-1.236-.93-1.975-.79-.18.035-.287.127-.442.208-.17.088-.138.166-.317.224-.08.025-.216.123-.215.223 0 .115.005.05.012.17-.02.01-.02-.006-.03-.026M8.156-18.084c.018.072.007.127-.026.19-.053.1-.112.062-.165.128-.05.062-.1.276-.08.362-.168.058-.008.227-.014.35 0 .05-.04.105-.044.16-.01.12.017.267.068.37.097.2.268.414.435.545.19.15.364.573.607.632.177.042.384-.104.543-.143.18-.044.397.01.57-.054.223-.08.128-.337.29-.45.103-.074.286-.01.405-.05.2-.07.34-.264.376-.46.017-.083.01-.146.04-.222.04-.103.11-.16.09-.293-.01-.06-.052-.12-.064-.186-.022-.114.002-.224 0-.337-.003-.2.017-.38-.078-.55-.38-.688-1.236-.93-1.975-.79-.18.035-.287.127-.442.208-.17.088-.138.166-.317.224-.08.025-.216.123-.215.223 0 .115.005.05.012.17-.02.01-.02-.006-.03-.026M.495-18.084c.018.072.007.127-.026.19-.054.1-.113.062-.166.128-.05.062-.1.276-.08.362-.168.058-.01.227-.014.35-.002.05-.04.105-.045.16-.01.12.017.267.068.37.097.2.268.414.435.545.19.15.365.573.608.632.177.042.384-.104.543-.143.18-.044.396.01.57-.054.222-.08.127-.337.288-.45.104-.074.287-.01.406-.05.2-.07.34-.264.376-.46.016-.083.01-.146.04-.222.038-.103.11-.16.09-.293-.01-.06-.053-.12-.065-.186-.022-.114.002-.224 0-.337-.003-.2.017-.38-.078-.55-.38-.688-1.236-.93-1.975-.79-.18.035-.287.127-.442.208-.17.088-.14.166-.318.224-.08.025-.216.123-.215.223.003.117.006.052.013.17-.02.01-.02-.005-.03-.025M69.44-10.43c.017.07.006.126-.027.19-.053.1-.112.06-.165.127-.05.062-.1.276-.08.362-.168.058-.01.227-.014.35-.002.05-.04.105-.045.16-.01.12.016.267.067.37.097.2.268.414.435.545.19.148.365.572.608.63.177.043.384-.103.543-.142.18-.043.397.01.57-.053.223-.08.128-.337.29-.45.103-.074.286-.01.405-.05.2-.07.34-.264.376-.46.016-.083.01-.146.04-.222.038-.103.11-.16.09-.293-.01-.062-.053-.12-.065-.187-.023-.114 0-.224 0-.337-.004-.2.016-.378-.08-.55-.38-.687-1.235-.928-1.974-.788-.18.034-.287.126-.442.207-.17.087-.14.165-.318.223-.08.026-.216.124-.215.224.002.115.006.05.013.17-.02.01-.02-.006-.03-.026M61.778-10.43c.018.07.007.126-.026.19-.053.1-.112.06-.165.127-.05.062-.1.276-.08.362-.168.057-.008.226-.014.35-.002.05-.04.104-.045.16-.01.12.017.266.068.37.097.198.268.413.435.544.19.148.366.572.61.63.176.043.383-.103.542-.142.18-.043.397.01.57-.053.223-.08.128-.338.29-.45.103-.075.286-.01.405-.052.2-.07.34-.263.376-.46.016-.082.01-.145.04-.22.038-.104.11-.16.09-.294-.01-.062-.053-.12-.065-.187-.022-.114.002-.224 0-.337-.003-.2.017-.38-.078-.55-.38-.688-1.236-.93-1.975-.79-.18.035-.287.127-.442.208-.17.088-.14.166-.318.224-.08.026-.216.124-.215.224 0 .115.005.05.012.17-.02.01-.02-.006-.03-.026M54.118-10.43c.018.07.007.126-.026.19-.053.1-.112.06-.165.127-.05.062-.1.276-.08.362-.168.057-.008.226-.014.35-.002.05-.04.104-.045.16-.01.12.017.266.068.37.097.198.268.413.435.544.19.148.366.572.61.63.176.043.383-.103.542-.142.18-.043.397.01.57-.053.223-.08.128-.338.29-.45.103-.075.286-.01.405-.052.2-.07.34-.263.376-.46.016-.082.01-.145.04-.22.038-.104.11-.16.09-.294-.01-.062-.053-.12-.065-.187-.022-.114.002-.224 0-.337-.003-.2.017-.38-.078-.55-.38-.688-1.236-.93-1.975-.79-.18.035-.287.127-.442.208-.17.088-.14.166-.318.224-.08.026-.216.124-.215.224 0 .115.005.05.012.17-.02.01-.02-.006-.03-.026M46.458-10.43c.018.07.007.126-.026.19-.053.1-.112.06-.165.127-.05.062-.1.276-.08.362-.168.057-.008.226-.014.35-.002.05-.04.104-.045.16-.01.12.017.266.068.37.097.198.268.413.435.544.19.148.366.572.61.63.176.043.383-.103.542-.142.18-.043.397.01.57-.053.223-.08.128-.338.29-.45.103-.075.286-.01.405-.052.2-.07.34-.263.376-.46.016-.082.01-.145.04-.22.038-.104.11-.16.09-.294-.01-.062-.053-.12-.065-.187-.022-.114.002-.224 0-.337-.003-.2.017-.38-.078-.55-.38-.688-1.236-.93-1.975-.79-.18.035-.287.127-.442.208-.17.088-.14.166-.318.224-.08.026-.216.124-.215.224 0 .115.005.05.012.17-.02.01-.02-.006-.03-.026M38.797-10.43c.018.07.007.126-.026.19-.052.1-.11.06-.164.127-.05.062-.1.276-.08.362-.168.057-.008.226-.014.35-.002.05-.04.104-.045.16-.01.12.017.266.068.37.097.198.268.413.435.544.19.148.365.572.608.63.177.043.384-.103.543-.142.18-.043.398.01.572-.053.222-.08.127-.338.288-.45.104-.075.287-.01.406-.052.2-.07.34-.263.376-.46.016-.082.01-.145.04-.22.038-.104.11-.16.09-.294-.01-.062-.053-.12-.065-.187-.022-.114.002-.224 0-.337-.003-.2.017-.38-.078-.55-.38-.688-1.237-.93-1.976-.79-.18.035-.287.127-.442.208-.17.088-.14.166-.318.224-.08.026-.216.124-.215.224 0 .115.004.05.01.17-.02.01-.02-.006-.03-.026M31.137-10.43c.018.07.007.126-.026.19-.052.1-.11.06-.164.127-.05.062-.1.276-.08.362-.168.057-.008.226-.014.35-.002.05-.04.104-.045.16-.01.12.017.266.068.37.097.198.268.413.435.544.19.148.365.572.608.63.177.043.384-.103.543-.142.18-.043.398.01.572-.053.222-.08.127-.338.288-.45.104-.075.287-.01.406-.052.2-.07.34-.263.376-.46.016-.082.01-.145.04-.22.038-.104.11-.16.09-.294-.01-.062-.053-.12-.065-.187-.022-.114.002-.224 0-.337-.003-.2.017-.38-.078-.55-.38-.688-1.237-.93-1.976-.79-.18.035-.287.127-.442.208-.17.088-.14.166-.318.224-.08.026-.216.124-.215.224 0 .115.004.05.01.17-.02.01-.02-.006-.03-.026M23.477-10.43c.018.07.007.126-.026.19-.052.1-.11.06-.164.127-.05.062-.1.276-.08.362-.168.057-.008.226-.014.35-.002.05-.04.104-.045.16-.01.12.017.266.068.37.097.198.268.413.435.544.19.148.365.572.608.63.177.043.384-.103.543-.142.18-.043.398.01.572-.053.222-.08.127-.338.288-.45.104-.075.287-.01.406-.052.2-.07.34-.263.376-.46.016-.082.01-.145.04-.22.038-.104.11-.16.09-.294-.01-.062-.053-.12-.065-.187-.022-.114.002-.224 0-.337-.003-.2.017-.38-.078-.55-.38-.688-1.237-.93-1.976-.79-.18.035-.287.127-.442.208-.17.088-.14.166-.318.224-.08.026-.216.124-.215.224 0 .115.004.05.01.17-.02.01-.02-.006-.03-.026M15.816-10.43c.018.07.007.126-.026.19-.053.1-.112.06-.165.127-.05.062-.1.276-.08.362-.168.057-.008.226-.014.35 0 .05-.04.104-.044.16-.01.12.017.266.068.37.097.198.268.413.435.544.19.148.364.572.607.63.177.043.384-.103.543-.142.18-.043.397.01.57-.053.223-.08.13-.337.29-.45.104-.074.287-.01.406-.05.2-.07.34-.264.376-.46.016-.083.01-.146.04-.222.038-.103.11-.16.09-.293-.01-.062-.053-.12-.065-.187-.022-.114.002-.224 0-.337-.003-.2.017-.378-.078-.55-.38-.687-1.237-.928-1.976-.788-.18.034-.287.126-.442.207-.17.087-.14.165-.318.223-.08.026-.216.124-.215.224 0 .115.004.05.01.17-.02.01-.02-.006-.03-.026M8.156-10.43c.018.07.007.126-.026.19-.053.1-.112.06-.165.127-.05.063-.1.277-.08.363-.168.058-.01.227-.014.35-.002.05-.04.105-.044.16-.01.12.017.267.068.37.097.2.268.414.435.545.19.148.364.572.607.63.177.043.384-.104.543-.142.18-.043.397.01.57-.053.223-.08.128-.337.29-.45.103-.074.286-.01.405-.05.2-.07.34-.264.376-.46.017-.083.01-.146.04-.222.04-.103.11-.16.09-.293-.01-.062-.052-.12-.064-.187-.022-.114.002-.224 0-.337-.003-.2.017-.378-.078-.55-.38-.687-1.236-.928-1.975-.788-.18.034-.287.126-.442.207-.17.087-.138.165-.317.223-.08.026-.216.124-.215.224 0 .115.005.05.012.17-.02.01-.02-.006-.03-.026M.495-10.43c.018.07.007.126-.026.19-.054.1-.113.06-.166.127-.05.063-.1.277-.08.363-.168.058-.01.227-.014.35-.002.05-.04.105-.045.16-.01.12.017.267.068.37.097.2.268.414.435.545.19.148.365.572.608.63.178.043.384-.104.543-.142.18-.043.397.01.57-.053.223-.08.128-.337.29-.45.103-.074.286-.01.405-.05.2-.07.34-.264.376-.46.017-.083.01-.145.04-.22.04-.104.11-.16.09-.294-.01-.062-.052-.12-.064-.187-.022-.115.002-.225 0-.338-.003-.2.017-.38-.078-.55-.38-.688-1.236-.93-1.975-.79-.18.035-.287.127-.442.208-.17.088-.138.166-.317.224-.08.026-.216.124-.215.224 0 .115.005.05.012.17-.02.01-.02-.006-.03-.026"/></g><g fill="#fff"><path d="M69.44-2.778c.017.072.007.127-.027.19-.052.1-.113.063-.165.128-.05.062-.1.276-.08.362-.168.058-.01.227-.014.35-.002.05-.04.105-.045.16-.01.12.016.267.067.37.097.2.268.414.435.545.19.148.365.572.608.63.177.043.384-.103.543-.142.18-.043.397.01.57-.053.223-.08.128-.337.29-.45.103-.074.286-.01.405-.05.2-.07.34-.264.376-.46.016-.083.01-.146.04-.222.037-.103.11-.16.09-.293-.01-.062-.052-.12-.065-.187-.022-.114 0-.224 0-.337-.004-.2.016-.38-.08-.55-.38-.688-1.235-.93-1.974-.79-.18.035-.287.127-.442.208-.17.09-.14.167-.318.225-.08.026-.215.124-.215.224.003.114.006.05.013.168-.02.01-.02-.005-.03-.025M61.778-2.778c.018.072.007.127-.026.19-.052.1-.112.063-.165.128-.05.062-.1.276-.08.362-.168.058-.01.227-.014.35-.002.05-.04.105-.045.16-.01.12.017.267.068.37.097.2.268.414.435.545.19.148.366.572.61.63.177.043.383-.103.543-.142.18-.043.397.01.57-.053.223-.08.128-.337.29-.45.103-.074.286-.01.405-.05.2-.07.34-.264.376-.46.016-.083.01-.146.04-.222.038-.103.11-.16.09-.293-.01-.062-.053-.12-.065-.187-.023-.114 0-.224 0-.337-.004-.2.016-.38-.08-.55-.38-.688-1.235-.93-1.974-.79-.18.035-.287.127-.442.208-.17.09-.14.167-.318.225-.08.028-.216.125-.215.225.002.115.006.05.013.17-.02.01-.02-.006-.03-.026M54.118-2.778c.018.072.007.127-.026.19-.052.1-.112.063-.165.128-.05.062-.1.276-.08.362-.168.058-.01.227-.014.35-.002.05-.04.105-.045.16-.01.12.017.267.068.37.097.2.268.414.435.545.19.148.366.572.61.63.177.043.383-.103.542-.142.18-.043.397.01.57-.053.223-.08.128-.337.29-.45.103-.074.286-.01.405-.05.2-.07.34-.264.376-.46.016-.083.01-.146.04-.222.038-.103.11-.16.09-.293-.01-.062-.053-.12-.065-.187-.022-.114.002-.224 0-.337-.003-.2.017-.38-.078-.55-.38-.688-1.236-.93-1.975-.79-.18.035-.287.127-.442.208-.17.09-.14.167-.318.225-.08.028-.215.125-.214.225.002.115.006.05.013.17-.02.01-.02-.006-.03-.026M46.458-2.778c.018.072.007.127-.026.19-.053.1-.112.062-.165.128-.05.062-.1.276-.08.362-.168.058-.01.227-.014.35-.002.05-.04.105-.045.16-.01.12.017.267.068.37.097.2.268.414.435.545.19.148.366.572.61.63.176.043.383-.103.542-.142.18-.043.397.01.57-.053.223-.08.128-.337.29-.45.103-.074.286-.01.405-.05.2-.07.34-.264.376-.46.016-.083.01-.146.04-.222.038-.103.11-.16.09-.293-.01-.062-.053-.12-.065-.187-.022-.114.002-.224 0-.337-.003-.2.017-.38-.078-.55-.38-.688-1.236-.93-1.975-.79-.18.035-.287.127-.442.208-.17.09-.14.167-.318.225-.08.028-.216.125-.215.225 0 .115.005.05.012.17-.02.01-.02-.006-.03-.026M38.797-2.778c.018.072.007.127-.026.19-.052.1-.11.062-.164.128-.05.062-.1.276-.08.362-.168.058-.01.227-.014.35-.002.05-.04.105-.045.16-.01.12.017.267.068.37.097.2.268.414.435.545.19.148.365.572.608.63.178.043.384-.103.544-.142.18-.043.397.01.57-.053.223-.08.128-.337.29-.45.103-.074.286-.01.405-.05.2-.07.34-.264.376-.46.016-.083.01-.146.04-.222.038-.103.11-.16.09-.293-.01-.062-.053-.12-.065-.187-.022-.114.002-.224 0-.337-.003-.2.017-.38-.078-.55-.38-.688-1.236-.93-1.975-.79-.18.035-.287.127-.442.208-.17.09-.14.167-.318.225-.08.028-.216.125-.215.225 0 .115.005.05.012.17-.02.01-.02-.006-.03-.026M31.137-2.778c.018.072.007.127-.026.19-.052.1-.11.062-.164.128-.05.062-.1.276-.08.362-.168.058-.01.227-.014.35-.002.05-.04.105-.045.16-.01.12.017.267.068.37.097.2.268.414.435.545.19.148.365.572.608.63.177.043.384-.103.543-.142.18-.043.398.01.572-.053.222-.08.127-.337.288-.45.104-.074.287-.01.406-.05.2-.07.34-.264.376-.46.016-.083.01-.146.04-.222.038-.103.11-.16.09-.293-.01-.062-.053-.12-.065-.187-.022-.114.002-.224 0-.337-.003-.2.017-.38-.078-.55-.38-.688-1.237-.93-1.976-.79-.18.035-.287.127-.442.208-.17.09-.14.167-.318.225-.08.028-.215.125-.214.225 0 .115.005.05.012.17-.02.01-.02-.006-.03-.026M23.477-2.778c.018.072.007.127-.026.19-.052.1-.11.062-.164.128-.05.062-.1.276-.08.362-.168.058-.01.227-.014.35-.002.05-.04.105-.045.16-.01.12.017.267.068.37.097.2.268.414.435.545.19.148.365.572.608.63.177.043.384-.103.543-.142.18-.043.398.01.572-.053.222-.08.127-.337.288-.45.104-.074.287-.01.406-.05.2-.07.34-.264.376-.46.016-.083.01-.146.04-.222.038-.103.11-.16.09-.293-.01-.062-.053-.12-.065-.187-.022-.114.002-.224 0-.337-.003-.2.017-.38-.078-.55-.38-.688-1.237-.93-1.976-.79-.18.035-.287.127-.442.208-.17.09-.14.167-.318.225-.08.026-.216.124-.215.224 0 .114.004.05.01.168-.02.01-.02-.005-.03-.025M15.816-2.778c.018.072.007.127-.026.19-.053.1-.112.062-.165.128-.05.062-.1.276-.08.362-.168.058-.01.227-.014.35 0 .05-.04.105-.044.16-.01.12.017.267.068.37.097.2.268.414.435.545.19.148.364.572.607.63.177.043.384-.103.543-.142.18-.043.397.01.57-.053.223-.08.128-.337.29-.45.103-.074.286-.01.405-.05.2-.07.34-.264.376-.46.017-.083.01-.146.04-.222.04-.103.11-.16.09-.293-.01-.062-.052-.12-.064-.187-.022-.114.002-.224 0-.337-.003-.2.017-.38-.078-.55-.38-.688-1.236-.93-1.975-.79-.18.035-.287.127-.442.208-.17.09-.138.167-.317.225-.08.026-.216.124-.215.224 0 .114.005.05.012.168-.02.012-.02-.004-.03-.024M8.156-2.778c.018.072.007.127-.026.19-.053.1-.112.063-.165.128-.05.062-.1.276-.08.362-.168.058-.01.227-.014.35-.002.05-.04.105-.044.16-.01.12.017.267.068.37.097.2.268.414.435.545.19.148.364.572.607.63.177.043.384-.103.543-.142.18-.043.397.01.57-.053.223-.08.128-.337.29-.45.103-.074.286-.01.405-.05.2-.07.34-.264.376-.46.017-.083.01-.146.04-.222.04-.103.11-.16.09-.293-.01-.062-.052-.12-.064-.187-.022-.114.002-.224 0-.337-.003-.2.017-.38-.078-.55-.38-.688-1.236-.93-1.975-.79-.18.037-.286.13-.44.21-.17.088-.14.166-.32.224-.08.026-.215.123-.214.223 0 .115.004.05.01.17-.02.01-.02-.006-.03-.026M.495-2.778c.018.072.008.127-.026.19-.053.1-.114.063-.166.128-.05.063-.1.276-.08.362-.168.058-.01.227-.014.35-.002.05-.04.105-.045.16-.01.12.017.267.068.37.097.2.268.414.435.545.19.148.365.572.608.63.178.043.384-.103.543-.142.18-.043.397.01.57-.052.223-.08.128-.337.29-.45.103-.074.286-.01.405-.05.2-.07.34-.264.376-.46.017-.083.01-.146.04-.222.038-.102.11-.16.09-.292-.01-.062-.05-.12-.064-.187-.02-.113.002-.223 0-.336-.003-.2.017-.38-.078-.55-.38-.688-1.236-.93-1.975-.79-.18.036-.286.128-.442.21-.17.087-.138.165-.317.223-.08.026-.215.123-.215.223.002.115.005.05.012.17-.02.01-.022-.006-.03-.026"/></g></pattern><g fill="#FF0050"><path d="M2048 0M2048 1536M0 1536M0 0"/></g><g><path d="M1116.593 1458.473c2.905.894 6.034 2.234 8.27 3.128 6.928 4.023 14.302 7.153 21.006 11.622.445.446 1.34.893 2.234 1.118.67.223 1.34 1.117 2.234 1.787.224.447.224.894-.224 1.117-5.363 2.01-11.174-.67-16.537.67-3.576-.67-8.716 0-12.515-.67-6.928.447-14.75-2.012-22.57-.224-15.42-2.458-35.31 0-50.505 0-1.117-.224-2.458.446-3.575.224-1.788-.447-4.022 1.34-5.812-.447-8.714 1.34-18.547-.894-24.358.67-1.788.895-4.022.895-5.81 1.117-5.363-2.457-12.96.447-18.325-1.117-2.68.67-6.48 2.012-9.61 1.564-4.692 1.118-8.938.67-13.408 2.014-2.683-.896-6.258.67-8.716 0-4.47 1.117-9.163-.447-13.855 0-.225-.67-.448-1.117-.672-1.79 4.023-8.044 10.28-11.396 16.314-18.323 9.61-8.044 26.593-12.514 39.33-4.47 1.565-2.457 1.565.896 2.906.896 4.693 2.458 6.704 5.362 11.397 6.257 3.8 2.01 5.14 4.692 9.833 7.375 3.576-3.8 7.598-6.034 9.833-9.387 4.023-3.798 8.94-5.81 12.963-10.503 10.503-5.14 21.23-11.62 32.85-7.597 13.41 1.34 26.593 7.822 37.32 14.973zm-166.04 18.324c9.833 2.234 17.208 1.787 25.03-.223 9.385-2.46 22.123-1.564 31.956-2.234 2.233-1.118 7.597 0 8.714-4.247-4.023-.67-6.928-4.022-9.163-5.14h-.223c-6.928-3.576-12.96-6.257-20.112-7.822-13.63-2.903-27.486 6.706-36.202 19.667zm107.714-26.147c-.223.895-.893.224-1.118.446-2.458 1.118-2.458-.446-3.575 1.343 0 .67-.894.892-.894.892-2.234 1.117-4.47 2.012-4.47 2.234-.446.225-1.563.225-2.458.895-2.01.45-3.8 2.46-5.362 4.023-4.023 1.34-7.15 7.374-9.386 12.29 7.374 1.566 13.184-.223 18.324 1.566 2.012.445 3.8-2.236 6.033 0 3.13-.897 5.14-.45 7.376-.673 3.8 1.564 7.6-.224 12.29.446 6.482-2.234 13.41-2.234 20.337-2.457 9.61 2.234 22.124.894 31.51 2.01 1.788-.893 4.47.896 8.715-1.116-2.68-2.234-2.904-2.458-2.904-2.68-.447-.226-1.342.445-1.787-.448 0-1.342-1.565-2.013-3.576-2.46-3.128-2.68-8.045-2.68-11.173-5.362-.67-1.564-.894-.224-1.563-.224-1.343-2.68-4.917-2.458-6.704-4.916-9.834-4.692-19.89-8.49-31.957-8.938-.67.223-.895-1.117-2.234-.224-4.92 0-9.836.447-15.423 3.352zM1119.945 1391.43c-.67 4.693.225 8.717 1.788 12.515-.224 1.117-1.117 2.235-1.788 2.46-2.905 4.244 2.682 11.844-4.692 14.078-2.46.67-5.14-.447-7.152 1.34-7.82 2.905-10.277.67-17.877 1.342-6.704.446-14.748-2.906-21.23 0-3.575 0-6.48-1.342-9.61-1.79-8.49 3.13-18.1-1.562-27.04.672-6.48.446-11.62-2.234-18.1.672-1.34.22-2.458.22-3.575.67-13.185 0-26.817-1.343-39.778.222-6.48 0-12.738-.223-18.548-3.353-1.117-.894.224-2.235 1.34-2.682 1.565 0 3.8-.446 6.258 1.563 4.693-2.01 8.94.226 12.96-.67 3.353.896 7.152 1.118 10.728.225 7.598-4.47 15.644.67 23.465.446 7.598-.222 15.196-3.127 23.018-2.234 8.046 1.118 17.432 1.79 25.7.896 2.683-.896 5.81.447 8.27-.447 2.457.447 5.81.224 8.044 1.787 3.13-.446 6.928-1.117 10.057-2.01 1.788.893 4.47.67 6.035 1.117 8.492.67 10.28 1.786 18.1-.896 5.14 1.787 3.13-3.575 7.6-4.692 2.905-1.117 1.34-2.46 1.34-4.023-.67-3.577 2.905-6.258 1.34-9.387-1.116-2.904-.222-6.704-2.457-9.833-.223-.893-.223-2.01.895-2.01 2.902-.673 3.348 2.234 4.912 4.02zM1132.46 1345.843c-2.234 4.917-7.6 5.364-11.397 8.046-5.14 2.68-10.727 5.36-16.536 6.032-1.564.895-3.8 1.117-5.587 1.342-14.974 2.68-29.5 8.714-45.143 9.16-10.727 2.236-22.57 1.12-34.19.897-9.61 0-21.9-2.682-31.51-6.93-4.693-1.116-9.833-2.903-13.185-5.81-4.917-1.34-8.715-4.916-12.96-7.597-.895-1.564-2.012-3.128-2.012-4.693 0-.223-.224-.447-.224-.447 4.47 1.117 8.716 4.47 13.185 7.15 3.577 2.013 5.588 4.693 9.387 5.588 6.48 1.342 11.62 5.81 18.325 5.364 12.292 3.13 25.7 2.906 40.45 2.012-2.235-5.14 1.563-7.152-.225-10.28.225-1.34.447-2.234.895-3.13.67-.67 1.117-1.34 2.01-.67.447.448.672.67 1.118 1.118-.446 1.342.446 2.235 1.118 2.905-.672 2.903 0 5.81-.447 9.386 10.95 1.117 18.325-2.013 27.264-2.46 3.8-1.787 9.61-2.233 14.304-3.575 4.244-1.34 9.385-1.34 13.408-3.798 3.352.447 7.15-.67 9.832-4.022 5.81.224 10.28-4.022 16.984-5.362v-1.117c1.117-.446 3.352-2.905 6.033-2.01-.224 1.116-.448 2.01-.895 2.903zM1131.342 1315.9c.672.223 1.118.446 1.565.893-2.01 5.14-8.046 2.235-12.737 3.577-4.023.67-7.822 0-11.846.223-10.95.224-21.9-.223-32.402 0-5.587 0-12.96.447-18.773-.223-3.8-.447-8.492 0-12.29.223-9.163.895-17.88 0-27.488.67-.447-.446-.894-.446-1.34-.446-4.024 2.01-8.493.224-12.293.894-9.163.448-17.878 1.342-26.817 1.342-6.257-2.68-12.738 1.342-19.22-.224-.893-.223 1.342-2.682 2.012-2.682 9.833-6.704 21.23 2.682 32.18-.446 12.96-3.576 27.487-2.235 40.226-2.906 12.738-.67 24.806.447 37.768 0 3.575-.446 7.15-.446 10.95-.446.894 0 2.01.224 2.905.224 9.832-.224 19.666-.224 28.38-1.564 6.704 1.785 12.29.668 19.22.892zM1122.18 1265.62c4.023 4.692 6.704 9.386 10.728 14.973.67 5.363 4.47 5.363 3.575 9.61-3.575 4.916-5.586 2.457-9.833 2.68-13.855-1.787-30.17 1.118-43.577 2.013-12.067-.895-18.77.894-35.31 1.34-4.245 1.788-10.28.67-14.972 0-4.916 2.012-13.184 1.118-18.547-.446-17.877 2.234-32.626.447-50.058 1.34-1.34-.223-3.352.895-2.458-.67 0-.223.223-1.116.223-1.34.447-.447.67-1.118 1.117-2.012-.223-1.564-.447.67.67.67 2.012-2.457 2.906-6.927 6.257-6.927 1.788-2.458 3.576-3.798 5.587-4.47 4.023-3.798 6.258-7.15 11.622-7.15 9.162-7.374 20.783-6.48 31.286-6.48 10.503 3.576 19.22 9.163 28.157 20.783 3.8-4.246 3.575-10.057 6.034-11.174 1.562-3.8 4.467-6.93 8.044-10.728 7.15-4.916 13.407-5.81 21.006-8.716 8.716-6.034 18.102 2.905 26.817-.447 4.47.893 8.493 5.586 13.633 7.15zm-131.848 11.174c-4.917 6.48-9.386 2.905-13.41 11.845-.67.446-1.34.893-2.457.22-8.492 3.8.67 4.248 4.246 4.47 7.376-2.456 10.95.448 18.326.226 7.598-2.46 16.313.893 24.358-1.342 2.46-.67 4.246-.223 6.48-.223 4.917-1.116 8.27 1.118 18.103 0-6.93-5.81-8.493-7.373-12.068-9.833-5.14-2.234-9.833-5.81-14.526-8.49-10.058-2.237-20.56-.448-29.052 3.127zm73.075-6.482c-6.033 5.81-8.27 9.834-14.08 21.9 6.258 0 9.387-2.01 12.068-1.117 11.174-4.692 21.453 2.012 33.074-.893 7.373-2.683 15.195 0 22.793-2.683 2.682 1.34 10.728 1.34 12.737.446.225-.447-2.01-2.682-1.34-5.587-3.13-4.47-6.034-9.387-8.49-14.75-4.918-.447-7.823-1.34-11.175-3.353-7.152-1.34-14.974-5.363-22.795-2.68-7.82 2.682-15.418 4.918-22.793 8.715zM940.72 1195.004c.447 3.8 2.01 6.48 2.682 10.503-1.34 6.034-.223 11.397 2.01 18.772 3.13-1.565 5.365-1.118 6.482-.672 4.246-.446 9.61.67 13.855.446 4.02-.893 8.937-1.34 12.96-1.34 6.257-3.13 14.078-4.022 20.336-5.364 3.575.895 7.82 0 11.174.447 15.196 0 30.84-3.8 45.14-5.81 2.684.223 6.705-.447 9.164.223.446-.223 1.563-.223 1.788-.447 11.173-.446 20.112-.67 31.286-.67 5.14 0 9.608.895 14.302 1.117h-.224c-5.81 4.247-13.854 2.683-20.11 4.022-9.165-2.235-18.774 2.46-28.605-1.34-5.81 6.034-12.738 1.34-18.772 3.352-5.587-.67-12.29-.447-16.983 2.458-2.234-.223-4.246.67-7.375-.446-5.363 3.128-12.067 1.563-17.654 1.563-9.163-2.01-16.537 4.022-25.252 2.904-6.257 3.13-13.408 2.682-20.56 2.682-2.234-2.458-5.81-.223-10.28-5.14-1.563 9.833-.67 15.644-1.116 21.678 1.117 4.692-.67 9.83 0 14.972-.223.224-.223.446-.447.67-1.787-.224-2.234-2.233-2.904-3.575 1.34-4.47 1.117-8.938 0-13.408-.894-1.117 0-3.127.224-5.36-2.458-3.354-.447-8.27-2.235-11.398 1.117-3.576-.447-7.376-.224-10.95-2.01-3.576.67-8.27-1.34-11.844 0-3.13-4.246-6.257-.67-8.717.224-.223.67-.446 1.117-.67.892.224 2.01.447 2.233 1.34zM985.415 1074.775c2.458 0 6.034-.223 8.715-.447 6.48-4.022 16.537 0 24.135.895 4.693-2.682 12.514-1.117 17.43-1.564 7.152-1.788 16.538.446 24.806.446 14.527 0 31.288-.447 45.813-1.117 2.235-.225 4.47-1.565 6.48-.67.224.222.446-.226.67-.226-5.14 3.352-11.396 3.576-16.536 5.812-7.375 6.48-15.866 9.83-23.688 14.748-9.387 4.246-18.996 7.375-27.488 13.856-2.682 1.34-5.14 2.904-7.82 4.244l-6.48 3.13 7.374.446c17.43 1.117 33.744-3.13 51.622-.67 7.15 0 13.855-2.906 20.783-1.564 1.788-.224 4.023 0 5.588 0-.225.447 0 1.34-.225 1.564-1.787 0-3.353.446-4.916 1.563-1.787.895-4.022.895-6.033 1.34-6.034.673-12.068-.223-18.102 1.12-16.313.445-32.18-1.565-48.046.223-7.375-1.342-14.75 2.457-21.9.447-4.693 1.117-10.728-1.34-14.303 1.34-10.726-1.117-21.23-2.904-32.403-2.904-2.458-.896-6.257 0-7.375-2.684-.224-.223 1.34-2.457 1.34-1.34 12.068-3.13 22.35 4.022 36.203 2.457 7.15-.894 14.526 0 22.125-2.234 2.235-3.13 5.587-2.906 8.044-4.917 4.47-.67 8.94-1.788 11.844-4.916 11.398-5.587 23.02-7.6 32.182-15.867 2.682-1.117 5.363-2.458 8.268-4.917 0-.67 6.48-3.575 6.48-4.245-.223-.447-6.927 1.117-6.927.224-8.715 0-16.76-1.563-23.688.894-12.514-3.13-25.476-3.353-38.884-.447-9.608-1.118-19.44-2.46-28.827-.67-7.82-3.354-16.537 3.574-23.688-2.684-.67-2.01-4.246-1.34-4.022-3.798 7.597-1.342 14.077 2.905 21.452 3.127zM1014.913 992.762c6.258 1.117 11.396 2.234 18.1 1.342 11.622 4.916 25.03-2.012 35.98 6.033 6.034 1.34 13.633 1.563 19.22 4.47 9.386 3.128 19.218 4.47 27.263 10.95 3.352 4.47 5.812 8.49 8.27 13.185-.448 4.47-.224 9.61-4.247 11.62-8.493 3.353-17.432 4.917-25.7 9.163-17.877.446-34.415 6.928-51.175 4.023-8.045 1.787-15.867-.226-23.912 1.117-13.855-.895-26.593-6.48-40-8.94-2.906-2.458-14.304-4.47-5.14-8.045 6.033-1.116 9.832 3.352 15.195 4.694 3.128.67 6.034 4.244 9.61 4.244 13.63 2.46 25.476 4.917 40.224 3.13 12.74 3.128 26.595 0 39.332-2.683 12.067-.894 23.018-4.245 34.19-7.374 5.364-2.457 3.353-6.927 5.812-12.737-2.905-2.01-2.012-6.257-4.022-8.045-3.576-4.02-10.727-6.034-15.196-8.716-7.376-1.117-14.75 0-20.113-4.245-6.033-1.117-12.96.446-17.654-4.247-20.11-3.352-40.447-1.787-59.22-6.48-10.95-1.116-20.11-1.563-29.05-7.15.446-1.34 2.68-.67 3.575-1.117 13.852-.895 25.026 6.926 38.658 5.81zM1109.89 940.47c-8.046 5.81-18.324 4.917-25.7 11.174-2.904.894-6.033 2.457-8.49 4.02-6.93-.222-14.08 4.248-23.466 8.493 6.033 2.46 10.503 1.788 13.632.895 13.185 0 24.805-2.234 38.66-.224 3.8 0 8.492-1.117 11.845.446 6.48.225 14.08-1.563 19.666 1.564l.447.447c-4.692 1.34-10.726.895-15.42.67-4.022-1.117-8.27.448-12.738.448-8.715.223-17.877-2.905-25.698.894-7.15.894-13.855-2.46-20.783 0-6.258 2.01-12.515-1.117-18.325 1.787-10.728-1.787-24.583.224-36.203-1.787-13.185 0-26.594.894-39.555-1.34-7.15-.226-10.057-1.566-16.76-2.906-.224 0 1.116-1.563 1.116-2.01 7.15-4.246 9.61-5.588 17.208-8.493 10.503-4.246 21.677-3.352 32.18-6.257 14.75.223 29.275 2.234 40.002 16.313 19.665-11.844 40.672-13.185 59.667-23.465 8.492-2.682 16.313-6.927 24.806-9.61 1.342 0 3.576-.893 5.14-.446-6.93 4.024-14.08 7.152-21.23 9.388zm-125.816 14.748c-2.905.895-6.48-.223-9.163 1.565-3.575-.448-6.927 1.564-9.832 2.682l-5.364 3.8c2.012.223 9.833.893 12.068 1.34 2.905 2.904 8.045 1.564 11.62 2.458 16.537-2.234 35.086.446 54.975-.446-2.904-3.576-5.81-4.47-7.374-6.034-3.13-3.13-11.845-6.48-17.655-8.938-10.056 1.338-20.782-.897-29.274 3.573zM979.158 837.448c3.352.446 5.587 3.8 9.386 3.8 7.15 3.574 13.855 5.362 22.57 5.81 1.342.67 3.577.894 5.14 1.34 4.918.447 9.386 2.682 14.08 2.682 2.905.895 6.928-.67 9.61 2.905 3.574-.894 6.257-1.787 8.49-2.905.895-1.787 3.354-4.022 3.13-6.48 1.563-2.458.224-4.47 1.34-7.598 1.34-4.246 1.34-6.704 3.575-11.174 1.117-.894 2.234-1.788 3.575-1.564.894 2.235 0 4.917 0 7.6-2.906 5.81-2.458 8.937-4.47 16.536 1.79 1.117 1.118 2.01 1.79 2.458 5.586.894 11.62.223 16.312-.895 2.904.447 5.362-.67 9.83-.67.896-2.682 2.907-.67 4.248-1.34 8.044-.672 15.196-5.142 23.465-5.588 3.575-3.13 9.61-2.682 13.184-5.363 4.247.447 6.482-5.14 11.845-3.8 2.68-2.01 5.14-4.47 8.49-4.47.895.672 1.79 1.342 2.682 2.235-.446 3.353-4.244 3.576-6.704 5.363-3.798.447-7.374 1.342-10.056 3.8-4.915-.224-7.82 4.022-12.515 3.8-1.787 1.116-3.574 1.34-4.917 2.233-1.787-.223-3.35.447-4.69 1.117-10.28 0-18.327 6.704-28.606 6.034-1.34.895-3.8.895-5.14 1.117-10.95 3.8-23.688 3.13-34.86 2.906-5.14-1.34-11.398 0-15.867-2.234-13.855-2.46-27.264-8.046-40.45-11.62-6.256-2.46-12.066-6.258-17.876-9.387-6.48-3.575-14.078-6.034-18.77-12.515 0-.446 0-1.117.446-1.34 10.055 6.48 20.558 12.29 31.732 17.208zM1131.342 794.767c.672.224 1.118.447 1.565.894-2.01 5.142-8.046 2.236-12.737 3.577-4.023.67-7.822 0-11.846.224-10.95.225-21.9-.223-32.402 0-5.587 0-12.96.448-18.773-.223-3.8-.446-8.492 0-12.29.224-9.163.895-17.88 0-27.488.67-.447-.445-.894-.445-1.34-.445-4.024 2.01-8.493.224-12.293.894-9.163.446-17.878 1.34-26.817 1.34-6.257-2.682-12.738 1.34-19.22-.224-.893-.224 1.342-2.682 2.012-2.682 9.833-6.704 21.23 2.682 32.18-.446 12.96-3.576 27.487-2.235 40.226-2.906 12.738-.67 24.806.447 37.768 0 3.575-.446 7.15-.446 10.95-.446.894 0 2.01.224 2.905.224 9.832-.224 19.666-.224 28.38-1.564 6.704 1.784 12.29.667 19.22.89zM985.415 731.302c2.458 0 6.034-.223 8.715-.447 6.48-4.023 16.537 0 24.135.894 4.693-2.683 12.514-1.118 17.43-1.565 7.152-1.787 16.538.448 24.806.448 14.527 0 31.288-.448 45.813-1.118 2.235-.224 4.47-1.564 6.48-.67.224.223.446-.224.67-.224-5.14 3.353-11.396 3.577-16.536 5.812-7.375 6.48-15.866 9.833-23.688 14.75-9.387 4.245-18.996 7.374-27.488 13.854-2.682 1.34-5.14 2.905-7.82 4.246l-6.48 3.13 7.374.445c17.43 1.118 33.744-3.128 51.622-.67 7.15 0 13.855-2.905 20.783-1.564 1.788-.223 4.023 0 5.588 0-.225.447 0 1.34-.225 1.564-1.787 0-3.353.447-4.916 1.564-1.787.895-4.022.895-6.033 1.342-6.034.67-12.068-.224-18.102 1.117-16.313.445-32.18-1.565-48.046.223-7.375-1.34-14.75 2.458-21.9.446-4.693 1.117-10.728-1.34-14.303 1.34-10.726-1.116-21.23-2.904-32.403-2.904-2.458-.894-6.257 0-7.375-2.682-.224-.224 1.34-2.458 1.34-1.34 12.068-3.13 22.35 4.02 36.203 2.457 7.15-.894 14.526 0 22.125-2.233 2.235-3.13 5.587-2.906 8.044-4.917 4.47-.67 8.94-1.788 11.844-4.916 11.398-5.587 23.02-7.6 32.182-15.867 2.682-1.117 5.363-2.458 8.268-4.917 0-.67 6.48-3.575 6.48-4.246-.223-.447-6.927 1.117-6.927.224-8.715 0-16.76-1.564-23.688.894-12.514-3.128-25.476-3.352-38.884-.447-9.608-1.117-19.44-2.458-28.827-.67-7.82-3.352-16.537 3.576-23.688-2.682-.67-2.01-4.246-1.34-4.022-3.8 7.597-1.34 14.077 2.906 21.452 3.13zM1132.46 684.598c-2.234 4.917-7.6 5.364-11.397 8.045-5.14 2.68-10.727 5.363-16.536 6.033-1.564.895-3.8 1.117-5.587 1.342-14.974 2.68-29.5 8.714-45.143 9.162-10.727 2.235-22.57 1.118-34.19.895-9.61 0-21.9-2.682-31.51-6.93-4.693-1.116-9.833-2.904-13.185-5.81-4.917-1.34-8.715-4.916-12.96-7.597-.895-1.565-2.012-3.128-2.012-4.693 0-.223-.224-.447-.224-.447 4.47 1.117 8.716 4.47 13.185 7.15 3.577 2.012 5.588 4.693 9.387 5.588 6.48 1.34 11.62 5.81 18.325 5.363 12.292 3.127 25.7 2.905 40.45 2.01-2.235-5.14 1.563-7.152-.225-10.28.225-1.34.447-2.233.895-3.128.67-.67 1.117-1.34 2.01-.67l1.118 1.117c-.446 1.34.446 2.234 1.118 2.904-.672 2.905 0 5.81-.447 9.387 10.95 1.118 18.325-2.01 27.264-2.457 3.8-1.79 9.61-2.235 14.304-3.576 4.244-1.34 9.385-1.34 13.408-3.8 3.352.447 7.15-.67 9.832-4.022 5.81.224 10.28-4.022 16.984-5.362v-1.117c1.117-.448 3.352-2.906 6.033-2.012-.224 1.117-.448 2.012-.895 2.904zM960.833 548.058c4.023 1.118 7.375 3.576 11.62 2.906 2.236.67 4.694.446 7.152.67 2.012-.67 4.47.67 6.928.447 4.693-1.34 8.94-.223 13.632-1.34 4.693-.67 8.045.446 12.515.446 3.13 1.118 5.81-1.117 9.386-.446 6.033 0 14.75-.224 21.006.224 9.61-3.352 19.89-1.117 29.722-1.34 1.79-.448 4.023-.225 5.81-.225 1.342.223 2.684-.895 4.024-.895 14.973-.448 30.84.67 44.918-1.118 3.128 1.564 6.257-2.235 8.49 1.118 1.79 3.798-3.798 2.01-6.48 3.128-5.586 0-10.95 1.564-16.76.894-6.704 1.565-13.185-.894-20.11-.224-3.578-1.34-7.377.447-11.398.224-5.14-2.68-9.61.224-14.303 1.34-10.504-1.787-23.912 0-34.415-.67-7.598 3.353-16.09.447-23.24 2.46-6.928-2.236-15.42.446-27.488-1.564 1.34 1.34-7.375-.448-6.48.224 2.01 1.787 12.737 5.14 13.408 5.81 3.352 1.117 7.598 1.564 10.503 3.352 8.492 2.905 18.548 2.457 26.37 7.374 10.95 2.234 21.006 4.916 32.403 6.257 1.117.447 2.682 0 4.02.447 4.248-.446 7.153 4.023 11.398 3.576.67.224.67.67.446 1.34-1.563.67-3.127.895-4.47.448-6.032-.894-12.29 1.118-18.324 2.012-7.15 2.235-14.75 3.576-22.346 4.916l-1.343.894c-6.48 1.79-12.514 1.79-18.77 4.023-2.236 1.787-8.493 2.01-8.493 2.01l-11.174 2.684 10.727.445c11.173 2.906 24.805 0 35.98.67 4.692-2.234 10.28.447 14.973.447 6.704.224 14.078-2.68 20.335-1.117 6.48-.224 11.174-.224 17.208-1.118 5.362-.67 12.066.894 18.1.448 9.834.224 20.337-1.79 30.84.67 1.788 2.458 8.27-2.46 8.045 1.34-5.587 1.788-11.62.225-17.653 2.012-1.787-.446-4.022-.894-5.81.224-8.047.895-18.55-1.787-27.042 0-2.457.225-4.022-.447-6.48-.447-8.716 1.79-16.983.895-25.923 1.565-4.245-1.787-9.385-1.117-13.854 0-10.28 0-19.665-2.905-29.945-.224-10.95.224-22.794-1.34-34.638-.894-2.458 1.117-4.916-.224-7.598 0-2.905 0-6.034-.224-8.938.894-2.012 0-4.023.67-5.364-.894-.67.67-.894.224-2.01-.224-.448-1.34 1.34-.67 1.34-1.118 2.458-.67 6.034.447 9.386-1.34 3.128 0 3.575-4.693 7.598-3.576 2.682 1.34 5.587-1.565 8.492-1.118 10.727-2.012 19.89-6.704 31.286-7.375 1.788-1.79 6.48-1.34 8.715-2.012 6.927-2.458 14.75-2.458 27.04-6.928-14.08-5.81-26.37-2.457-34.19-8.49-4.918-1.342-10.95-1.565-15.197-4.247-1.788-.447-4.022-.894-6.034-.224-4.917-.447-8.492-4.47-13.632-4.47-2.905 0-4.917-3.353-7.822-3.353-2.235-1.563-5.14-1.788-7.374-4.692-6.48 0-11.398-1.118-15.867-3.576-.894-.448-.67-1.342-1.34-2.235 0-.894-.225-1.788.893-2.235 2.678.67 4.466 2.46 7.595 1.788zM1060.278 488.617c11.844-2.01 23.018 4.916 33.744 8.045 4.693 2.68 10.057 3.352 15.196 7.15 1.787-.67 2.012.894 2.682 2.01 0 .225.223-.445.223-.445-7.597 4.916-14.3 9.61-22.57 12.067-4.246 2.235-9.385 2.68-13.854 4.246-4.917 1.788-9.834 3.8-14.75 5.363-10.058 1.118-16.762 3.13-26.37 4.246-7.6-1.564-15.643-.67-23.018-4.47-5.14 2.457-9.61.223-13.408-1.118-4.917 1.34-8.94-4.022-13.633-4.916-4.915-2.682-11.62-2.234-15.865-8.27-.223-.893-.894-2.234 0-3.35.224-.447.67-.895.895-1.118 2.904-2.68 5.586-6.705 9.386-8.492 8.938-5.587 18.548-7.822 29.945-10.95 6.035 1.117 12.07-4.246 17.43-.894 10.727-.223 23.464-1.564 33.968.895zm-86.26 18.548c0 3.128-1.788 5.81 1.564 5.81 13.185 5.81 26.593 9.162 40.226 11.397 13.408 2.235 25.923 3.576 38.66-.67 16.314-5.363 33.52-9.163 52.293-19.22-10.503-2.456-16.312-6.032-22.794-7.373-14.972-1.118-28.157-6.258-42.905-5.812-24.136.447-47.6 2.906-67.042 15.867zm-12.738 13.408c0 1.117-1.565 1.788-2.46 2.01-3.35 2.236-9.16-1.564-12.737-.223-1.34 0-2.235-.446-2.905-1.118 0-1.117.447-1.34.894-2.01 3.353-.448 7.598-3.8 11.397 0 2.905-.223 4.245.448 5.81 1.34zm-4.023-19.665c0 1.118-1.564 1.788-2.458 2.01-3.353 2.236-5.587-.893-8.94.67-1.116 0-2.01-.445-2.68-1.116 0-1.118.446-1.564.893-2.01 2.905-.67 3.8-4.694 7.375-.895 2.904-.224 4.245.447 5.81 1.34zM1136.26 431.41c2.904 1.117 4.915-.448 7.15 0-.67 1.563-1.788 2.904-1.788 4.692-.895 2.458-4.02 2.906-5.81 4.693-1.788.448-2.012 2.905-4.022 4.246-4.693 2.907-8.94 6.035-13.633 9.388-9.16 2.234-17.43 8.49-28.157 9.61-8.27 3.798-18.995 3.575-28.157 3.798-5.587 4.47-14.525.446-21.23 2.905-3.352.447-5.363-.893-8.045-.893-9.163 2.458-17.43-1.118-25.923-2.458-6.034-2.683-12.514-3.353-18.325-6.48-1.788-1.342-4.47-.895-6.257-1.566-7.15-4.692-15.42-7.598-21.9-12.737-3.13-.67-4.022-4.47-7.15-5.14-1.12-1.565-3.354-2.906-2.013-6.258-2.01-1.564-3.8-4.694 0-4.023.894-.67 1.34-.224.224.67 7.375 8.938 19.442 17.208 31.286 23.465 4.47 0 8.94 2.458 11.62 4.693 9.163 2.457 17.655 5.81 27.042 5.81 3.352 0 6.703.67 9.608-.223 5.812.67 11.174 2.234 17.208.67 5.81-.448 11.62-1.118 17.208-2.235 17.877-3.576 37.318-4.47 52.068-14.302 5.363-3.576 9.163-6.705 13.855-12.067-.672-1.118 2.904-.894 2.233-2.46-13.855.672-31.062 1.12-43.577 2.012-5.587 2.458-12.067-.446-18.102.448-5.362.67-10.95-.67-16.536-.448-2.682 0-5.14-.446-7.6.448-4.02-.67-9.16.447-12.513-1.788-1.565-1.34 2.01-1.118 2.457-2.012 3.577-1.34 7.15-1.787 11.174-.223 3.13.446 6.257-1.564 9.163-1.564 8.267 0 15.418 2.235 21.005 1.565 0-.67 2.683 0 4.917 0 1.563-.447 3.128-.447 4.022-.224 4.917 0 8.044-.893 12.514-.223 8.045-2.01 18.102 0 24.582-1.787 2.013-.448 1.788-.224 3.8-.448 3.354 0 4.917-1.117 7.6.448zM1119.945 379.564c-.67 4.693.225 8.715 1.788 12.515-.224 1.116-1.117 2.233-1.788 2.457-2.905 4.246 2.682 11.844-4.692 14.08-2.46.67-5.14-.45-7.152 1.34-7.82 2.905-10.277.67-17.877 1.34-6.704.447-14.748-2.905-21.23 0-3.575 0-6.48-1.34-9.61-1.787-8.49 3.128-18.1-1.564-27.04.67-6.48.447-11.62-2.234-18.1.67-1.34.225-2.458.225-3.575.67-13.185 0-26.817-1.34-39.778.225-6.48 0-12.738-.224-18.548-3.352-1.117-.894.224-2.235 1.34-2.68 1.565 0 3.8-.448 6.258 1.563 4.693-2.01 8.94.224 12.96-.67 3.353.894 7.152 1.117 10.728.224 7.598-4.47 15.644.67 23.465.446 7.598-.224 15.196-3.128 23.018-2.235 8.046 1.118 17.432 1.79 25.7.895 2.683-.894 5.81.448 8.27-.446 2.457.445 5.81.223 8.044 1.787 3.13-.446 6.928-1.118 10.057-2.01 1.788.893 4.47.67 6.035 1.117 8.492.67 10.28 1.787 18.1-.894 5.14 1.788 3.13-3.576 7.6-4.693 2.905-1.118 1.34-2.458 1.34-4.022-.67-3.576 2.905-6.258 1.34-9.386-1.116-2.906-.222-6.705-2.457-9.834-.223-.894-.223-2.01.895-2.01 2.902-.674 3.348 2.23 4.912 4.018zM1131.342 349.396c.672.224 1.118.447 1.565.895-2.01 5.14-8.046 2.236-12.737 3.576-4.023.67-7.822 0-11.846.224-10.95.224-21.9-.224-32.402 0-5.587 0-12.96.448-18.773-.224-3.8-.446-8.492 0-12.29.224-9.163.894-17.88 0-27.488.67-.447-.447-.894-.447-1.34-.447-4.024 2.01-8.493.224-12.293.894-9.163.447-17.878 1.34-26.817 1.34-6.257-2.68-12.738 1.342-19.22-.223-.893-.224 1.342-2.68 2.012-2.68 9.833-6.705 21.23 2.68 32.18-.448 12.96-3.576 27.487-2.234 40.226-2.905 12.738-.67 24.806.447 37.768 0 3.575-.446 7.15-.446 10.95-.446.894 0 2.01.224 2.905.224 9.832-.224 19.666-.224 28.38-1.565 6.704 1.788 12.29.67 19.22.893zM1148.997 300.904c2.904 2.458 0 2.234-.448 3.128-12.515 10.95-29.945 8.715-43.354 17.43-9.61 3.577-19.89 4.917-29.274 7.152-7.374.224-14.08 3.352-21.008 2.012-2.233 1.788-5.586 0-8.044.894-16.09 0-25.252-3.128-37.767-5.81-4.246.446-8.715-.895-12.067-3.8-5.81.67-10.503-1.118-14.75-3.353-10.28-3.798-20.56-7.82-27.934-14.972 0 .224-1.34-.447-.67-.894 1.788-1.117 3.8.895 5.587 1.788 10.502.894 17.207 8.493 26.592 10.728 4.246 2.235 8.94 2.235 12.96 3.798 17.21 4.47 28.605 8.27 46.707 8.492.222 0 .67-1.563.67.224 15.418-.894 28.604-4.47 42.683-6.033 14.303-4.47 28.604-9.61 42.907-14.08 3.798-2.457 8.268-4.47 13.185-6.257 1.34 0 3.8-2.458 4.47-1.563.222 0 1.786 0-.448 1.117zM1121.062 230.51c-2.682 2.012-6.257 3.353-8.94 5.588-10.948 3.128-22.792 6.033-34.637 6.033-8.49 1.342-17.207 3.13-25.476 5.142-4.47-.448-9.61-1.34-14.75-.224-.67 1.788-.67 2.458-3.353 3.128 2.458 6.48 7.6 10.95 10.057 15.644 1.34.67 2.682 2.458 2.235 4.022-.897 2.682.445 2.682 2.01 4.246 2.01 0 3.8.224 5.586 1.117 4.694-1.563 8.27-1.563 12.068-.224 4.246 2.46 7.822.672 12.514 0 8.94-1.34 17.43-3.35 26.594-3.797 7.15-.224 14.302-.224 21.9-.224.67.223 1.34.446 1.118 1.116 0 .67-.895 1.34-1.564 1.565-11.174.67-21.9 1.118-31.734 4.247-7.374-.224-13.407 2.01-20.335 1.34-16.537-1.564-33.968 0-49.61 2.012-6.93-1.565-12.292 1.34-18.996.893-17.43-1.34-35.53-1.34-50.95-6.48-2.235-.672-1.118-2.46-2.235-4.024.224-.67 1.34 0 1.788-.224 5.363 1.117 10.056 3.575 15.42 3.352l.446.446c9.162-.446 17.653 2.458 25.7 2.01 6.033 3.353 12.737-.893 19.217.225 8.268 1.34 15.196-1.564 23.24-2.682 1.12-.895 2.684-1.79 4.247-3.576-2.68-7.152-10.95-11.62-11.845-17.43 1.116 0-1.564-1.79-.447-5.364-6.928-2.012-12.515.67-17.654-1.79-4.247-1.116-8.493 1.12-12.962-1.34-6.034 2.906-11.397.224-17.208.67-3.352-2.905-4.693 2.906-8.715.225-3.8 1.118-8.94 1.788-12.067 0 .223-.895.223-1.565 0-2.458 3.352-2.01 8.044.67 11.397-2.01 4.916-.45 8.492 2.233 13.408 1.34 14.303-2.682 30.17.446 44.694-.447 10.057-.447 21.007 1.117 30.616-2.235 15.196-2.458 31.062-4.47 45.364-7.375 3.576-2.234 7.822-4.693 12.29-4.47.673.67 1.343 1.12 1.565 2.013zM955.47 172.407c6.033.447 10.95 4.023 16.983 5.14 6.928 6.258 16.314 6.93 23.465 12.515 5.587 2.012 11.62 4.247 17.207 6.705 2.235 1.34 3.353 2.234 6.258 4.917 7.82-7.152 17.878-6.257 25.252-9.61 7.152-2.01 13.856-4.47 21.007-7.15 6.928-2.68 14.302-4.022 21.9-5.81 2.905-2.458 7.15-2.458 10.728-3.8 4.916.225 6.927-7.597 10.727-4.022.223 0 3.352 1.565 1.34 2.235-8.27 7.6-20.783 5.14-29.274 11.174-7.822 1.79-15.42 2.46-21.678 6.93-4.245.67-8.27 2.233-11.844 4.245-4.69 1.118-9.16.224-12.736 2.458-2.682.224-4.47 2.235-7.376 3.128-.446 1.12-4.022 3.353-3.574 3.8.447.67 4.692-.447 5.363.447 10.28 1.34 17.43-.446 26.146 1.564 6.034-.446 13.856 0 19.89 1.12.67-.448 2.682 0 3.8-.448 6.703-.67 13.185-4.246 19.665-1.564 4.022-.67 8.938-2.235 12.96-.67.225.67.225 1.563 0 2.457-1.786 2.234-4.915 1.564-7.373 2.01-10.503.672-21.23 1.12-31.286 3.13-4.918-.223-8.493.223-12.963-1.564-10.503-2.905-21.454-2.457-32.18-1.34-8.27-.447-17.654.894-26.594-.447-7.598-2.68-16.09-1.34-25.252-2.68-2.457 2.234-5.362.893-7.374.67-1.787-1.12-4.47-1.342-6.48-.447-6.704 3.352-10.503 1.117-15.196-.895 0 .896-3.8-.445-4.022-.893-.447-2.01 1.564-2.905 3.128-3.576 1.34-.67 3.13 2.46 4.47 1.342 6.48 1.117 13.855.67 20.783 0 10.502 1.564 20.56 1.34 31.062 1.79 2.01.445 9.61 2.234 12.067-.896-3.577-1.787-9.163-4.47-10.28-7.15-5.364-2.458-8.716-2.682-12.74-6.257-4.245.67-6.033-2.46-9.385-2.46-6.705-2.01-12.514-7.597-19.666-9.832-4.023-.224-7.376-2.682-10.728-4.693-.223-.448-2.01-.894-2.01-1.34-.67-.67.446-2.012.446-2.46 2.01-1.567 2.904 2.68 5.362 2.232zM1132.46 128.16c-2.234 4.917-7.6 5.364-11.397 8.045-5.14 2.683-10.727 5.363-16.536 6.035-1.564.894-3.8 1.117-5.587 1.34-14.974 2.682-29.5 8.716-45.143 9.163-10.727 2.235-22.57 1.118-34.19.894-9.61 0-21.9-2.68-31.51-6.927-4.693-1.117-9.833-2.906-13.185-5.81-4.917-1.342-8.715-4.918-12.96-7.6-.895-1.564-2.012-3.128-2.012-4.692 0-.224-.224-.447-.224-.447 4.47 1.118 8.716 4.47 13.185 7.152 3.577 2.01 5.588 4.693 9.387 5.587 6.48 1.34 11.62 5.81 18.325 5.362 12.292 3.128 25.7 2.905 40.45 2.01-2.235-5.14 1.563-7.15-.225-10.278.225-1.34.447-2.235.895-3.13.67-.67 1.117-1.34 2.01-.67.447.448.672.67 1.118 1.118-.446 1.34.446 2.235 1.118 2.905-.672 2.906 0 5.81-.447 9.387 10.95 1.117 18.325-2.01 27.264-2.458 3.8-1.788 9.61-2.235 14.304-3.576 4.244-1.34 9.385-1.34 13.408-3.798 3.352.446 7.15-.67 9.832-4.023 5.81.223 10.28-4.023 16.984-5.364v-1.117c1.117-.448 3.352-2.906 6.033-2.012-.224 1.115-.448 2.01-.895 2.902zM1144.08 100.23c-.67.222-2.458 1.563-4.022 2.01-4.246.224-10.28.67-14.526 1.34-2.457-.894-7.15.895-9.608.224-11.844 1.117-23.688 1.788-37.097 1.564-2.458 1.565-6.927.447-9.608.447-12.516-.447-23.914-3.576-34.862-2.012-7.822 0-16.762 2.906-25.03 0-5.81.895-14.302-.223-18.995.224-.224.224-.67.447-.895.67-11.62-1.116-24.582 1.34-35.755.447-.894-.224-2.01-1.787-.447-2.01 23.018-2.906 49.164-1.79 73.522-2.906 5.364-.224 13.41.223 19.22-.895l.67.67c8.715 0 16.76 1.12 25.028 1.79.67-.447 2.234-.225 2.683 0 13.407.446 29.05-2.012 41.788-1.565 7.375-3.576 15.195 1.564 21.9-2.682.894-1.34 2.905-.67 4.023-1.788 2.68 1.79 2.457 3.576 2.01 4.47zM940.72 42.155c.447 3.8 2.01 6.48 2.682 10.503-1.34 6.034-.223 11.397 2.01 18.772 3.13-1.564 5.365-1.118 6.482-.67 4.246-.447 9.61.67 13.855.448 4.02-.895 8.937-1.34 12.96-1.34 6.257-3.13 14.078-4.024 20.336-5.364 3.575.894 7.82 0 11.174.446 15.196 0 30.84-3.798 45.14-5.81 2.684.223 6.705-.447 9.164.223.446-.223 1.563-.223 1.788-.446 11.173-.447 20.112-.67 31.286-.67 5.14 0 9.608.894 14.302 1.116h-.224c-5.81 4.246-13.854 2.683-20.11 4.023-9.165-2.235-18.774 2.458-28.605-1.34-5.81 6.032-12.738 1.34-18.772 3.35-5.587-.67-12.29-.447-16.983 2.46-2.234-.225-4.246.67-7.375-.45-5.363 3.13-12.067 1.566-17.654 1.566-9.163-2.012-16.537 4.022-25.252 2.905-6.257 3.128-13.408 2.682-20.56 2.682-2.234-2.46-5.81-.225-10.28-5.142-1.563 9.833-.67 15.644-1.116 21.677 1.117 4.693-.67 9.833 0 14.973-.223.224-.223.446-.447.67-1.787-.224-2.234-2.235-2.904-3.575 1.34-4.47 1.117-8.94 0-13.41-.894-1.116 0-3.127.224-5.362-2.458-3.352-.447-8.27-2.235-11.397 1.117-3.576-.447-7.374-.224-10.95-2.01-3.576.67-8.27-1.34-11.844 0-3.13-4.246-6.26-.67-8.717.224-.224.67-.447 1.117-.67.892.225 2.01.45 2.233 1.342z"/></g></svg>