<svg xmlns="http://www.w3.org/2000/svg" width="2048" height="1536" viewBox="0 0 2048 1536"><pattern y="1536" width="69" height="69" patternUnits="userSpaceOnUse" viewBox="2.125 -70.896 69 69" overflow="visible"><path fill="none" d="M71.125-1.896h-69v-69h69z"/><path fill="#F6C058" d="M71.125-1.896h-69v-69h69z"/><g fill="#fff"><path d="M61.772-71.653c.018.072.007.127-.026.19-.053.1-.112.062-.165.128-.05.062-.098.276-.078.362-.17.058-.01.227-.015.35-.002.05-.04.105-.045.16-.01.12.017.267.068.37.097.2.268.414.435.545.19.148.365.572.608.63.177.043.384-.103.543-.142.18-.043.397.01.57-.053.223-.08.128-.337.29-.45.103-.074.286-.01.405-.05.2-.07.34-.264.377-.46.016-.083.01-.146.04-.222.038-.103.11-.16.09-.293-.01-.062-.053-.12-.065-.187-.022-.114.002-.224 0-.337-.003-.2.017-.38-.078-.55-.38-.688-1.236-.93-1.975-.79-.18.035-.288.127-.443.208-.17.088-.14.166-.318.224-.082.026-.217.124-.216.224 0 .115.005.05.012.17-.02.01-.02-.006-.03-.026M54.105-71.653c.018.072.007.127-.026.19-.054.1-.113.062-.166.128-.05.062-.1.276-.08.362-.168.058-.01.227-.014.35-.002.05-.04.105-.045.16-.01.12.017.267.068.37.097.2.268.414.435.545.19.148.365.572.608.63.177.043.384-.103.543-.142.18-.043.396.01.57-.053.222-.08.127-.337.288-.45.104-.074.287-.01.406-.05.2-.07.34-.264.376-.46.016-.083.01-.146.04-.222.038-.103.11-.16.09-.293-.01-.062-.053-.12-.065-.187-.022-.114.002-.224 0-.337-.003-.2.017-.38-.078-.55-.38-.688-1.236-.93-1.975-.79-.18.035-.287.127-.442.208-.17.088-.14.166-.318.224-.08.026-.216.124-.215.224 0 .115.005.05.012.17-.022.01-.022-.006-.03-.026M46.44-71.653c.017.072.006.127-.027.19-.053.1-.112.062-.165.128-.05.062-.1.276-.08.362-.168.058-.01.227-.014.35-.002.05-.04.105-.045.16-.01.12.016.267.067.37.097.2.268.414.435.545.19.148.365.572.608.63.177.043.384-.103.543-.142.18-.043.397.01.57-.053.223-.08.128-.337.29-.45.103-.074.286-.01.405-.05.2-.07.34-.264.376-.46.016-.083.01-.146.04-.222.038-.103.11-.16.09-.293-.01-.062-.053-.12-.065-.187-.023-.114 0-.224 0-.337-.004-.2.016-.38-.08-.55-.38-.688-1.235-.93-1.974-.79-.18.035-.287.127-.442.208-.17.088-.14.166-.318.224-.08.026-.216.124-.215.224.002.115.006.05.013.17-.02.01-.02-.006-.03-.026M38.772-71.653c.018.072.007.127-.026.19-.053.1-.112.062-.165.128-.05.062-.098.276-.078.362-.17.058-.01.227-.015.35-.002.05-.04.105-.045.16-.01.12.017.267.068.37.097.2.268.414.435.545.19.148.365.572.608.63.177.043.384-.103.543-.142.18-.043.397.01.57-.053.223-.08.128-.337.29-.45.103-.074.286-.01.405-.05.2-.07.34-.264.377-.46.016-.083.01-.146.04-.222.038-.103.11-.16.09-.293-.01-.062-.053-.12-.065-.187-.022-.114.002-.224 0-.337-.003-.2.017-.38-.078-.55-.38-.688-1.236-.93-1.975-.79-.18.035-.288.127-.443.208-.17.088-.14.166-.318.224-.082.026-.217.124-.216.224 0 .115.005.05.012.17-.02.01-.02-.006-.03-.026M31.105-71.653c.018.072.007.127-.026.19-.054.1-.113.062-.166.128-.05.062-.1.276-.08.362-.168.058-.01.227-.014.35-.002.05-.04.105-.045.16-.01.12.017.267.068.37.097.2.268.414.435.545.19.148.365.572.608.63.177.043.384-.103.543-.142.18-.043.396.01.57-.053.222-.08.127-.337.288-.45.104-.074.287-.01.406-.05.2-.07.34-.264.376-.46.016-.083.01-.146.04-.222.038-.103.11-.16.09-.293-.01-.062-.053-.12-.065-.187-.022-.114.002-.224 0-.337-.003-.2.017-.38-.078-.55-.38-.688-1.236-.93-1.975-.79-.18.035-.287.127-.442.208-.17.088-.14.166-.318.224-.08.026-.216.124-.215.224 0 .115.005.05.012.17-.022.01-.022-.006-.03-.026M23.44-71.653c.017.072.006.127-.027.19-.053.1-.112.062-.165.128-.05.062-.1.276-.08.362-.168.058-.01.227-.014.35-.002.05-.04.105-.045.16-.01.12.016.267.067.37.097.2.268.414.435.545.19.148.365.572.608.63.177.043.384-.103.543-.142.18-.043.397.01.57-.053.223-.08.128-.337.29-.45.103-.074.286-.01.405-.05.2-.07.34-.264.376-.46.016-.083.01-.146.04-.222.038-.103.11-.16.09-.293-.01-.062-.053-.12-.065-.187-.023-.114 0-.224 0-.337-.004-.2.016-.38-.08-.55-.38-.688-1.235-.93-1.974-.79-.18.035-.287.127-.442.208-.17.088-.14.166-.318.224-.08.026-.216.124-.215.224.002.115.006.05.013.17-.02.01-.02-.006-.03-.026M15.772-71.653c.018.072.007.127-.026.19-.053.1-.112.062-.165.128-.05.062-.098.276-.078.362-.17.058-.01.227-.015.35-.002.05-.04.105-.045.16-.01.12.017.267.068.37.097.2.268.414.435.545.19.148.365.572.608.63.177.043.384-.103.543-.142.18-.043.397.01.57-.053.223-.08.128-.337.29-.45.103-.074.286-.01.405-.05.2-.07.34-.264.377-.46.016-.083.01-.146.04-.222.038-.103.11-.16.09-.293-.01-.062-.053-.12-.065-.187-.022-.114.002-.224 0-.337-.003-.2.017-.38-.078-.55-.38-.688-1.236-.93-1.975-.79-.18.035-.288.127-.443.208-.17.088-.14.166-.318.224-.082.026-.217.124-.216.224 0 .115.005.05.012.17-.02.01-.02-.006-.03-.026M8.105-71.653c.018.072.007.127-.026.19-.054.1-.113.062-.166.128-.05.062-.1.276-.08.362-.168.058-.01.227-.014.35-.002.05-.04.105-.045.16-.01.12.017.267.068.37.097.2.268.414.435.545.19.148.365.572.608.63.177.043.384-.103.543-.142.18-.043.396.01.57-.053.222-.08.127-.337.288-.45.104-.074.287-.01.406-.05.2-.07.34-.264.376-.46.016-.083.01-.146.04-.222.038-.103.11-.16.09-.293-.01-.062-.053-.12-.065-.187-.022-.114.002-.224 0-.337-.003-.2.017-.38-.078-.55-.38-.688-1.236-.93-1.975-.79-.18.035-.287.127-.442.208-.17.088-.14.166-.318.224-.08.026-.216.124-.215.224 0 .115.005.05.012.17-.022.01-.022-.006-.03-.026M.44-71.653c.017.072.007.127-.027.19-.052.1-.113.063-.165.128-.05.062-.1.276-.08.362-.168.058-.01.227-.014.35-.002.05-.04.105-.045.16-.01.12.016.267.067.37.097.2.268.414.435.545.19.148.365.572.608.63.177.043.384-.103.543-.142.18-.043.397.01.57-.053.223-.08.128-.337.29-.45.103-.074.286-.01.405-.05.2-.07.34-.264.376-.46.016-.083.01-.146.04-.222.037-.103.11-.16.09-.293-.01-.062-.052-.12-.065-.187-.022-.114 0-.224 0-.337-.004-.2.016-.38-.08-.55-.38-.688-1.235-.93-1.974-.79-.18.035-.287.127-.442.208-.17.088-.14.166-.318.224-.08.026-.215.124-.215.224.003.115.006.05.013.17-.02.01-.02-.006-.03-.026"/></g><path d="M69.44-71.653c.017.072.007.127-.027.19-.052.1-.113.062-.165.128-.05.062-.1.276-.08.362-.168.058-.01.227-.014.35-.002.05-.04.105-.045.16-.01.12.016.267.067.37.097.2.268.414.435.545.19.148.365.572.608.63.177.043.384-.103.543-.142.18-.043.397.01.57-.053.223-.08.128-.337.29-.45.103-.074.286-.01.405-.05.2-.07.34-.264.376-.46.016-.083.01-.146.04-.222.037-.103.11-.16.09-.293-.01-.062-.052-.12-.065-.187-.022-.114 0-.224 0-.337-.004-.2.016-.38-.08-.55-.38-.688-1.235-.93-1.974-.79-.18.035-.287.127-.442.208-.17.088-.14.166-.318.224-.08.026-.215.124-.215.224.003.115.006.05.013.17-.02.01-.02-.006-.03-.026M.495-71.653c.018.072.008.127-.026.19-.053.1-.114.062-.166.128-.05.062-.1.276-.08.362-.168.058-.01.227-.014.35-.002.05-.04.105-.045.16-.01.12.017.267.068.37.097.2.268.414.435.545.19.148.365.572.608.63.177.043.384-.103.543-.142.18-.043.396.01.57-.053.222-.08.127-.337.288-.45.104-.074.287-.01.406-.05.2-.07.34-.264.376-.46.016-.083.01-.146.04-.222.037-.103.11-.16.09-.293-.01-.062-.052-.12-.065-.187-.02-.114.002-.224 0-.337-.003-.2.017-.38-.078-.55-.38-.688-1.236-.93-1.975-.79-.18.035-.287.127-.442.208-.17.088-.14.166-.318.224-.08.026-.215.124-.215.224.003.116.006.052.013.17-.02.01-.02-.005-.03-.025" fill="#fff"/><g fill="#fff"><path d="M69.44-64c.017.07.006.126-.027.19-.053.1-.112.06-.165.127-.05.062-.1.276-.08.362-.168.057-.01.226-.014.35-.002.05-.04.104-.045.16-.01.12.016.266.067.37.097.198.268.413.435.544.19.148.365.572.608.63.177.043.384-.103.543-.142.18-.043.397.01.57-.053.223-.08.128-.338.29-.45.103-.075.286-.01.405-.052.2-.07.34-.263.376-.46.016-.082.01-.145.04-.22.038-.104.11-.16.09-.294-.01-.062-.053-.12-.065-.187-.023-.114 0-.224 0-.337-.004-.2.016-.38-.08-.55-.38-.688-1.235-.93-1.974-.79-.18.035-.287.127-.442.208-.17.088-.14.166-.318.224-.08.026-.216.124-.215.224.002.115.006.05.013.17-.02.01-.02-.006-.03-.026M61.778-64c.018.07.007.126-.026.19-.053.1-.112.06-.165.127-.05.062-.1.276-.08.362-.168.057-.008.226-.014.35-.002.05-.04.104-.045.16-.01.12.017.266.068.37.097.198.268.413.435.544.19.148.366.572.61.63.176.043.383-.103.542-.142.18-.043.397.01.57-.053.223-.08.128-.338.29-.45.103-.075.286-.01.405-.052.2-.07.34-.263.376-.46.016-.082.01-.145.04-.22.038-.104.11-.16.09-.294-.01-.062-.053-.12-.065-.187-.022-.114.002-.224 0-.337-.003-.2.017-.38-.078-.55-.38-.688-1.236-.93-1.975-.79-.18.035-.287.127-.442.208-.17.088-.14.166-.318.224-.08.026-.216.124-.215.224 0 .115.005.05.012.17-.02.01-.02-.006-.03-.026M54.118-64c.018.07.007.126-.026.19-.053.1-.112.06-.165.127-.05.062-.1.276-.08.362-.168.057-.008.226-.014.35-.002.05-.04.104-.045.16-.01.12.017.266.068.37.097.198.268.413.435.544.19.148.366.572.61.63.176.043.383-.103.542-.142.18-.043.397.01.57-.053.223-.08.128-.338.29-.45.103-.075.286-.01.405-.052.2-.07.34-.263.376-.46.016-.082.01-.145.04-.22.038-.104.11-.16.09-.294-.01-.062-.053-.12-.065-.187-.022-.114.002-.224 0-.337-.003-.2.017-.38-.078-.55-.38-.688-1.236-.93-1.975-.79-.18.035-.287.127-.442.208-.17.088-.14.166-.318.224-.08.026-.216.124-.215.224 0 .115.005.05.012.17-.02.01-.02-.006-.03-.026M46.458-64c.018.07.007.126-.026.19-.053.1-.112.06-.165.127-.05.062-.1.276-.08.362-.168.057-.008.226-.014.35-.002.05-.04.104-.045.16-.01.12.017.266.068.37.097.198.268.413.435.544.19.148.366.572.61.63.176.043.383-.103.542-.142.18-.043.397.01.57-.053.223-.08.128-.338.29-.45.103-.075.286-.01.405-.052.2-.07.34-.263.376-.46.016-.082.01-.145.04-.22.038-.104.11-.16.09-.294-.01-.062-.053-.12-.065-.187-.022-.114.002-.224 0-.337-.003-.2.017-.38-.078-.55-.38-.688-1.236-.93-1.975-.79-.18.035-.287.127-.442.208-.17.088-.14.166-.318.224-.08.026-.216.124-.215.224 0 .115.005.05.012.17-.02.01-.02-.006-.03-.026M38.797-64c.018.07.007.126-.026.19-.052.1-.11.06-.164.127-.05.062-.1.276-.08.362-.168.057-.008.226-.014.35-.002.05-.04.104-.045.16-.01.12.017.266.068.37.097.198.268.413.435.544.19.148.365.572.608.63.177.043.384-.103.543-.142.18-.043.398.01.572-.053.222-.08.127-.338.288-.45.104-.075.287-.01.406-.052.2-.07.34-.263.376-.46.016-.082.01-.145.04-.22.038-.104.11-.16.09-.294-.01-.062-.053-.12-.065-.187-.022-.114.002-.224 0-.337-.003-.2.017-.38-.078-.55-.38-.688-1.237-.93-1.976-.79-.18.035-.287.127-.442.208-.17.088-.14.166-.318.224-.08.026-.216.124-.215.224 0 .115.004.05.01.17-.02.01-.02-.006-.03-.026M31.137-64c.018.07.007.126-.026.19-.052.1-.11.06-.164.127-.05.062-.1.276-.08.362-.168.057-.008.226-.014.35-.002.05-.04.104-.045.16-.01.12.017.266.068.37.097.198.268.413.435.544.19.148.365.572.608.63.177.043.384-.103.543-.142.18-.043.398.01.572-.053.222-.08.127-.338.288-.45.104-.075.287-.01.406-.052.2-.07.34-.263.376-.46.016-.082.01-.145.04-.22.038-.104.11-.16.09-.294-.01-.062-.053-.12-.065-.187-.022-.114.002-.224 0-.337-.003-.2.017-.38-.078-.55-.38-.688-1.237-.93-1.976-.79-.18.035-.287.127-.442.208-.17.088-.14.166-.318.224-.08.026-.216.124-.215.224 0 .115.004.05.01.17-.02.01-.02-.006-.03-.026M23.477-64c.018.07.007.126-.026.19-.052.1-.11.06-.164.127-.05.062-.1.276-.08.362-.168.057-.008.226-.014.35-.002.05-.04.104-.045.16-.01.12.017.266.068.37.097.198.268.413.435.544.19.148.365.572.608.63.177.043.384-.103.543-.142.18-.043.398.01.572-.053.222-.08.127-.338.288-.45.104-.075.287-.01.406-.052.2-.07.34-.263.376-.46.016-.082.01-.145.04-.22.038-.104.11-.16.09-.294-.01-.062-.053-.12-.065-.187-.022-.114.002-.224 0-.337-.003-.2.017-.38-.078-.55-.38-.688-1.237-.93-1.976-.79-.18.035-.287.127-.442.208-.17.088-.14.166-.318.224-.08.026-.216.124-.215.224 0 .115.004.05.01.17-.02.01-.02-.006-.03-.026M15.816-64c.018.07.007.126-.026.19-.053.1-.112.06-.165.127-.05.062-.1.276-.08.362-.168.057-.008.226-.014.35 0 .05-.04.104-.044.16-.01.12.017.266.068.37.097.198.268.413.435.544.19.148.364.572.607.63.177.043.384-.103.543-.142.18-.043.397.01.57-.053.223-.08.128-.338.29-.45.103-.075.286-.01.405-.052.2-.07.34-.263.376-.46.017-.082.01-.145.04-.22.04-.104.11-.16.09-.294-.01-.062-.052-.12-.064-.187-.022-.114.002-.224 0-.337-.003-.2.017-.38-.078-.55-.38-.688-1.236-.93-1.975-.79-.18.035-.287.127-.442.208-.17.088-.138.166-.317.224-.08.026-.216.124-.215.224 0 .115.005.05.012.17-.02.01-.02-.006-.03-.026M8.156-64c.018.07.007.126-.026.19-.053.1-.112.06-.165.127-.05.062-.1.276-.08.362-.168.057-.008.226-.014.35 0 .05-.04.104-.044.16-.01.12.017.266.068.37.097.198.268.413.435.544.19.148.364.572.607.63.177.043.384-.103.543-.142.18-.043.397.01.57-.053.223-.08.128-.338.29-.45.103-.075.286-.01.405-.052.2-.07.34-.263.376-.46.017-.082.01-.145.04-.22.04-.104.11-.16.09-.294-.01-.062-.052-.12-.064-.187-.022-.114.002-.224 0-.337-.003-.2.017-.38-.078-.55-.38-.688-1.236-.93-1.975-.79-.18.035-.287.127-.442.208-.17.088-.138.166-.317.224-.08.026-.216.124-.215.224 0 .115.005.05.012.17-.02.01-.02-.006-.03-.026M.495-64c.018.07.007.126-.026.19-.054.1-.113.06-.166.127-.05.062-.1.276-.08.362-.168.057-.01.226-.014.35-.002.05-.04.104-.045.16-.01.12.017.266.068.37.097.198.268.413.435.544.19.148.365.572.608.63.177.043.384-.103.543-.142.18-.042.397.01.57-.052.223-.08.128-.337.29-.45.103-.074.286-.01.405-.05.2-.07.34-.264.376-.46.017-.083.01-.146.04-.222.04-.103.11-.16.09-.293-.01-.062-.052-.12-.064-.187-.022-.114.002-.224 0-.337-.003-.2.017-.378-.078-.55-.38-.687-1.236-.928-1.975-.788-.18.034-.287.126-.442.207-.17.087-.138.165-.317.223-.08.026-.216.124-.215.224 0 .115.005.05.012.17-.02.01-.02-.006-.03-.026M69.44-56.348c.017.072.006.127-.027.19-.053.1-.112.062-.165.128-.05.062-.1.276-.08.362-.168.058-.01.227-.014.35-.002.05-.04.105-.045.16-.01.12.016.267.067.37.097.2.268.414.435.545.19.148.365.572.608.63.177.043.384-.103.543-.142.18-.043.397.01.57-.053.223-.08.128-.337.29-.45.103-.074.286-.01.405-.05.2-.07.34-.264.376-.46.016-.083.01-.146.04-.222.038-.103.11-.16.09-.293-.01-.062-.053-.12-.065-.187-.023-.114 0-.224 0-.337-.004-.2.016-.38-.08-.55-.38-.688-1.235-.93-1.974-.79-.18.035-.287.127-.442.208-.17.09-.14.167-.318.225-.08.026-.216.124-.215.224.002.114.006.05.013.168-.02.01-.02-.005-.03-.025M61.778-56.348c.018.072.007.127-.026.19-.053.1-.112.062-.165.128-.05.062-.1.276-.08.362-.168.058-.008.227-.014.35-.002.05-.04.105-.045.16-.01.12.017.267.068.37.097.2.268.414.435.545.19.148.366.572.61.63.176.043.383-.103.542-.142.18-.043.397.01.57-.053.223-.08.128-.337.29-.45.103-.074.286-.01.405-.05.2-.07.34-.264.376-.46.016-.083.01-.146.04-.222.038-.103.11-.16.09-.293-.01-.062-.053-.12-.065-.187-.022-.114.002-.224 0-.337-.003-.2.017-.38-.078-.55-.38-.688-1.236-.93-1.975-.79-.18.035-.287.127-.442.208-.17.09-.14.167-.318.225-.08.026-.216.124-.215.224 0 .114.005.05.012.168-.02.01-.02-.005-.03-.025M54.118-56.348c.018.072.007.127-.026.19-.053.1-.112.062-.165.128-.05.062-.1.276-.08.362-.168.058-.008.227-.014.35-.002.05-.04.105-.045.16-.01.12.017.267.068.37.097.2.268.414.435.545.19.148.366.572.61.63.176.043.383-.103.542-.142.18-.043.397.01.57-.053.223-.08.128-.337.29-.45.103-.074.286-.01.405-.05.2-.07.34-.264.376-.46.016-.083.01-.146.04-.222.038-.103.11-.16.09-.293-.01-.062-.053-.12-.065-.187-.022-.114.002-.224 0-.337-.003-.2.017-.38-.078-.55-.38-.688-1.236-.93-1.975-.79-.18.035-.287.127-.442.208-.17.09-.14.167-.318.225-.08.026-.216.124-.215.224 0 .114.005.05.012.168-.02.01-.02-.005-.03-.025M46.458-56.348c.018.072.007.127-.026.19-.053.1-.112.062-.165.128-.05.062-.1.276-.08.362-.168.058-.008.227-.014.35-.002.05-.04.105-.045.16-.01.12.017.267.068.37.097.2.268.414.435.545.19.148.366.572.61.63.176.043.383-.103.542-.142.18-.043.397.01.57-.053.223-.08.128-.337.29-.45.103-.074.286-.01.405-.05.2-.07.34-.264.376-.46.016-.083.01-.146.04-.222.038-.103.11-.16.09-.293-.01-.062-.053-.12-.065-.187-.022-.114.002-.224 0-.337-.003-.2.017-.38-.078-.55-.38-.688-1.236-.93-1.975-.79-.18.035-.287.127-.442.208-.17.09-.14.167-.318.225-.08.026-.216.124-.215.224 0 .114.005.05.012.168-.02.01-.02-.005-.03-.025M38.797-56.348c.018.072.007.127-.026.19-.052.1-.11.062-.164.128-.05.062-.1.276-.08.362-.168.058-.008.227-.014.35-.002.05-.04.105-.045.16-.01.12.017.267.068.37.097.2.268.414.435.545.19.148.365.572.608.63.177.043.384-.103.543-.142.18-.043.398.01.572-.053.222-.08.127-.337.288-.45.104-.074.287-.01.406-.05.2-.07.34-.264.376-.46.016-.083.01-.146.04-.222.038-.103.11-.16.09-.293-.01-.062-.053-.12-.065-.187-.022-.114.002-.224 0-.337-.003-.2.017-.38-.078-.55-.38-.688-1.237-.93-1.976-.79-.18.035-.287.127-.442.208-.17.09-.14.167-.318.225-.08.026-.216.124-.215.224 0 .114.004.05.01.168-.02.01-.02-.005-.03-.025M31.137-56.348c.018.072.007.127-.026.19-.052.1-.11.062-.164.128-.05.062-.1.276-.08.362-.168.058-.008.227-.014.35-.002.05-.04.105-.045.16-.01.12.017.267.068.37.097.2.268.414.435.545.19.148.365.572.608.63.177.043.384-.103.543-.142.18-.043.398.01.572-.053.222-.08.127-.337.288-.45.104-.074.287-.01.406-.05.2-.07.34-.264.376-.46.016-.083.01-.146.04-.222.038-.103.11-.16.09-.293-.01-.062-.053-.12-.065-.187-.022-.114.002-.224 0-.337-.003-.2.017-.38-.078-.55-.38-.688-1.237-.93-1.976-.79-.18.035-.287.127-.442.208-.17.09-.14.167-.318.225-.08.026-.216.124-.215.224 0 .114.004.05.01.168-.02.01-.02-.005-.03-.025M23.477-56.348c.018.072.007.127-.026.19-.052.1-.11.062-.164.128-.05.062-.1.276-.08.362-.168.058-.008.227-.014.35-.002.05-.04.105-.045.16-.01.12.017.267.068.37.097.2.268.414.435.545.19.148.365.572.608.63.177.043.384-.103.543-.142.18-.043.398.01.572-.053.222-.08.127-.337.288-.45.104-.074.287-.01.406-.05.2-.07.34-.264.376-.46.016-.083.01-.146.04-.222.038-.103.11-.16.09-.293-.01-.062-.053-.12-.065-.187-.022-.114.002-.224 0-.337-.003-.2.017-.38-.078-.55-.38-.688-1.237-.93-1.976-.79-.18.035-.287.127-.442.208-.17.09-.14.167-.318.225-.08.026-.216.124-.215.224 0 .114.004.05.01.168-.02.01-.02-.005-.03-.025M15.816-56.348c.018.072.007.127-.026.19-.053.1-.112.062-.165.128-.05.062-.1.276-.08.362-.168.058-.008.227-.014.35 0 .05-.04.105-.044.16-.01.12.017.267.068.37.097.2.268.414.435.545.19.148.364.572.607.63.177.043.384-.103.543-.142.18-.043.397.01.57-.053.223-.08.128-.337.29-.45.103-.074.286-.01.405-.05.2-.07.34-.264.376-.46.017-.083.01-.146.04-.222.04-.103.11-.16.09-.293-.01-.062-.052-.12-.064-.187-.022-.114.002-.224 0-.337-.003-.2.017-.38-.078-.55-.38-.688-1.236-.93-1.975-.79-.18.035-.287.127-.442.208-.17.09-.138.167-.317.225-.08.026-.216.124-.215.224 0 .114.005.05.012.168-.02.01-.02-.005-.03-.025M8.156-56.348c.018.072.007.127-.026.19-.053.1-.112.062-.165.128-.05.062-.1.276-.08.362-.168.058-.008.227-.014.35 0 .05-.04.105-.044.16-.01.12.017.267.068.37.097.2.268.414.435.545.19.148.364.572.607.63.177.043.384-.103.543-.142.18-.043.397.01.57-.053.223-.08.128-.337.29-.45.103-.074.286-.01.405-.05.2-.07.34-.264.376-.46.017-.083.01-.146.04-.222.04-.103.11-.16.09-.293-.01-.062-.052-.12-.064-.187-.022-.114.002-.224 0-.337-.003-.2.017-.38-.078-.55-.38-.688-1.236-.93-1.975-.79-.18.035-.287.127-.442.208-.17.09-.138.167-.317.225-.08.026-.216.124-.215.224 0 .114.005.05.012.168-.02.01-.02-.005-.03-.025M.495-56.348c.018.072.007.127-.026.19-.054.1-.113.062-.166.128-.05.062-.1.276-.08.362-.168.058-.01.227-.014.35-.002.05-.04.105-.045.16-.01.12.017.267.068.37.097.2.268.414.435.545.19.148.365.572.608.63.177.043.384-.103.543-.142.18-.043.396.01.57-.053.222-.08.127-.337.288-.45.104-.074.287-.01.406-.05.2-.07.34-.264.376-.46.016-.083.01-.146.04-.222.038-.103.11-.16.09-.293-.01-.062-.053-.12-.065-.187-.022-.114.002-.224 0-.337-.003-.2.017-.38-.078-.55-.38-.688-1.236-.93-1.975-.79-.18.035-.287.127-.442.208-.17.09-.14.167-.318.225-.08.026-.216.124-.215.224.003.116.006.052.013.17-.02.01-.02-.005-.03-.025M69.44-48.695c.017.072.006.127-.027.19-.053.1-.112.062-.165.128-.05.062-.1.276-.08.362-.168.058-.01.227-.014.35-.002.05-.04.105-.045.16-.01.12.016.267.067.37.097.2.268.414.435.545.19.148.365.572.608.63.177.043.384-.103.543-.142.18-.043.397.01.57-.053.223-.08.128-.337.29-.45.103-.074.286-.01.405-.05.2-.07.34-.264.376-.46.016-.083.01-.146.04-.222.038-.103.11-.16.09-.293-.01-.062-.053-.12-.065-.187-.023-.114 0-.224 0-.337-.004-.2.016-.38-.08-.55-.38-.688-1.235-.93-1.974-.79-.18.035-.287.127-.442.208-.17.088-.14.166-.318.224-.08.026-.216.124-.215.224.002.115.006.05.013.17-.02.01-.02-.006-.03-.026M61.778-48.695c.018.072.007.127-.026.19-.053.1-.112.062-.165.128-.05.062-.1.276-.08.362-.168.058-.008.227-.014.35-.002.05-.04.105-.045.16-.01.12.017.267.068.37.097.2.268.414.435.545.19.148.366.572.61.63.176.043.383-.103.542-.142.18-.043.397.01.57-.053.223-.08.128-.337.29-.45.103-.074.286-.01.405-.05.2-.07.34-.264.376-.46.016-.083.01-.146.04-.222.038-.103.11-.16.09-.293-.01-.062-.053-.12-.065-.187-.022-.114.002-.224 0-.337-.003-.2.017-.38-.078-.55-.38-.688-1.236-.93-1.975-.79-.18.035-.287.127-.442.208-.17.088-.14.166-.318.224-.08.026-.216.124-.215.224 0 .115.005.05.012.17-.02.01-.02-.006-.03-.026M54.118-48.695c.018.072.007.127-.026.19-.053.1-.112.062-.165.128-.05.062-.1.276-.08.362-.168.058-.008.227-.014.35-.002.05-.04.105-.045.16-.01.12.017.267.068.37.097.2.268.414.435.545.19.148.366.572.61.63.176.043.383-.103.542-.142.18-.043.397.01.57-.053.223-.08.128-.337.29-.45.103-.074.286-.01.405-.05.2-.07.34-.264.376-.46.016-.083.01-.146.04-.222.038-.103.11-.16.09-.293-.01-.062-.053-.12-.065-.187-.022-.114.002-.224 0-.337-.003-.2.017-.38-.078-.55-.38-.688-1.236-.93-1.975-.79-.18.035-.287.127-.442.208-.17.088-.14.166-.318.224-.08.026-.216.124-.215.224 0 .115.005.05.012.17-.02.01-.02-.006-.03-.026M46.458-48.695c.018.072.007.127-.026.19-.053.1-.112.062-.165.128-.05.062-.1.276-.08.362-.168.058-.008.227-.014.35-.002.05-.04.105-.045.16-.01.12.017.267.068.37.097.2.268.414.435.545.19.148.366.572.61.63.176.043.383-.103.542-.142.18-.043.397.01.57-.053.223-.08.128-.337.29-.45.103-.074.286-.01.405-.05.2-.07.34-.264.376-.46.016-.083.01-.146.04-.222.038-.103.11-.16.09-.293-.01-.062-.053-.12-.065-.187-.022-.114.002-.224 0-.337-.003-.2.017-.38-.078-.55-.38-.688-1.236-.93-1.975-.79-.18.035-.287.127-.442.208-.17.088-.14.166-.318.224-.08.026-.216.124-.215.224 0 .115.005.05.012.17-.02.01-.02-.006-.03-.026M38.797-48.695c.018.072.007.127-.026.19-.052.1-.11.062-.164.128-.05.062-.1.276-.08.362-.168.058-.008.227-.014.35-.002.05-.04.105-.045.16-.01.12.017.267.068.37.097.2.268.414.435.545.19.148.365.572.608.63.177.043.384-.103.543-.142.18-.043.398.01.572-.053.222-.08.127-.337.288-.45.104-.074.287-.01.406-.05.2-.07.34-.264.376-.46.016-.083.01-.146.04-.222.038-.103.11-.16.09-.293-.01-.062-.053-.12-.065-.187-.022-.114.002-.224 0-.337-.003-.2.017-.38-.078-.55-.38-.688-1.237-.93-1.976-.79-.18.035-.287.127-.442.208-.17.088-.14.166-.318.224-.08.026-.216.124-.215.224 0 .115.004.05.01.17-.02.01-.02-.006-.03-.026M31.137-48.695c.018.072.007.127-.026.19-.052.1-.11.062-.164.128-.05.062-.1.276-.08.362-.168.058-.008.227-.014.35-.002.05-.04.105-.045.16-.01.12.017.267.068.37.097.2.268.414.435.545.19.148.365.572.608.63.177.043.384-.103.543-.142.18-.043.398.01.572-.053.222-.08.127-.337.288-.45.104-.074.287-.01.406-.05.2-.07.34-.264.376-.46.016-.083.01-.146.04-.222.038-.103.11-.16.09-.293-.01-.062-.053-.12-.065-.187-.022-.114.002-.224 0-.337-.003-.2.017-.38-.078-.55-.38-.688-1.237-.93-1.976-.79-.18.035-.287.127-.442.208-.17.088-.14.166-.318.224-.08.026-.216.124-.215.224 0 .115.004.05.01.17-.02.01-.02-.006-.03-.026M23.477-48.695c.018.072.007.127-.026.19-.052.1-.11.062-.164.128-.05.062-.1.276-.08.362-.168.058-.008.227-.014.35-.002.05-.04.105-.045.16-.01.12.017.267.068.37.097.2.268.414.435.545.19.148.365.572.608.63.177.043.384-.103.543-.142.18-.043.398.01.572-.053.222-.08.127-.337.288-.45.104-.074.287-.01.406-.05.2-.07.34-.264.376-.46.016-.083.01-.146.04-.222.038-.103.11-.16.09-.293-.01-.062-.053-.12-.065-.187-.022-.114.002-.224 0-.337-.003-.2.017-.38-.078-.55-.38-.688-1.237-.93-1.976-.79-.18.035-.287.127-.442.208-.17.088-.14.166-.318.224-.08.026-.216.124-.215.224 0 .115.004.05.01.17-.02.01-.02-.006-.03-.026M15.816-48.695c.018.072.007.127-.026.19-.053.1-.112.062-.165.128-.05.062-.1.276-.08.362-.168.058-.008.227-.014.35 0 .05-.04.105-.044.16-.01.12.017.267.068.37.097.2.268.414.435.545.19.148.364.572.607.63.177.043.384-.103.543-.142.18-.043.397.01.57-.053.223-.08.128-.337.29-.45.103-.074.286-.01.405-.05.2-.07.34-.264.376-.46.017-.083.01-.146.04-.222.04-.103.11-.16.09-.293-.01-.062-.052-.12-.064-.187-.022-.114.002-.224 0-.337-.003-.2.017-.38-.078-.55-.38-.688-1.236-.93-1.975-.79-.18.035-.287.127-.442.208-.17.088-.138.166-.317.224-.08.026-.216.124-.215.224 0 .115.005.05.012.17-.02.01-.02-.006-.03-.026M8.156-48.695c.018.072.007.127-.026.19-.053.1-.112.062-.165.128-.05.062-.1.276-.08.362-.168.058-.008.227-.014.35 0 .05-.04.105-.044.16-.01.12.017.267.068.37.097.2.268.414.435.545.19.148.364.572.607.63.177.043.384-.103.543-.142.18-.043.397.01.57-.053.223-.08.128-.337.29-.45.103-.074.286-.01.405-.05.2-.07.34-.264.376-.46.017-.083.01-.146.04-.222.04-.103.11-.16.09-.293-.01-.062-.052-.12-.064-.187-.022-.114.002-.224 0-.337-.003-.2.017-.38-.078-.55-.38-.688-1.236-.93-1.975-.79-.18.035-.287.127-.442.208-.17.088-.138.166-.317.224-.08.026-.216.124-.215.224 0 .115.005.05.012.17-.02.01-.02-.006-.03-.026M.495-48.695c.018.072.007.127-.026.19-.054.1-.113.062-.166.128-.05.062-.1.276-.08.362-.168.058-.01.227-.014.35-.002.05-.04.105-.045.16-.01.12.017.267.068.37.097.2.268.414.435.545.19.148.365.572.608.63.177.043.384-.103.543-.142.18-.043.396.01.57-.053.222-.08.127-.337.288-.45.104-.074.287-.01.406-.05.2-.07.34-.264.376-.46.016-.083.01-.146.04-.222.038-.103.11-.16.09-.293-.01-.062-.053-.12-.065-.187-.022-.114.002-.224 0-.337-.003-.2.017-.38-.078-.55-.38-.688-1.236-.93-1.975-.79-.18.035-.287.127-.442.208-.17.088-.14.166-.318.224-.08.026-.216.124-.215.224 0 .115.005.05.012.17-.022.01-.022-.006-.03-.026M69.44-41.042c.017.072.006.127-.027.19-.053.1-.112.062-.165.128-.05.062-.1.276-.08.362-.168.058-.01.227-.014.35-.002.05-.04.105-.045.16-.01.12.016.267.067.37.097.2.268.414.435.545.19.148.365.572.608.63.177.043.384-.103.543-.142.18-.042.397.01.57-.052.223-.08.128-.337.29-.45.103-.074.286-.01.405-.05.2-.07.34-.264.376-.46.016-.083.01-.146.04-.222.038-.103.11-.16.09-.293-.01-.062-.053-.12-.065-.187-.023-.114 0-.224 0-.337-.004-.2.016-.38-.08-.55-.38-.69-1.235-.93-1.974-.79-.18.034-.287.126-.442.207-.17.088-.14.166-.318.224-.08.027-.216.125-.215.225.002.115.006.05.013.17-.02.01-.02-.006-.03-.026M61.778-41.042c.018.072.007.127-.026.19-.053.1-.112.062-.165.128-.05.062-.1.276-.08.362-.168.058-.008.227-.014.35-.002.05-.04.105-.045.16-.01.12.017.267.068.37.097.2.268.414.435.545.19.148.366.572.61.63.176.043.383-.103.542-.142.18-.042.397.01.57-.052.223-.08.128-.337.29-.45.103-.074.286-.01.405-.05.2-.07.34-.264.376-.46.016-.083.01-.146.04-.222.038-.103.11-.16.09-.293-.01-.062-.053-.12-.065-.187-.022-.114.002-.224 0-.337-.003-.2.017-.38-.078-.55-.38-.69-1.236-.93-1.975-.79-.18.034-.287.126-.442.207-.17.088-.14.166-.318.224-.08.027-.216.125-.215.225 0 .115.005.05.012.17-.02.01-.02-.006-.03-.026M54.118-41.042c.018.072.007.127-.026.19-.053.1-.112.062-.165.128-.05.062-.1.276-.08.362-.168.058-.008.227-.014.35-.002.05-.04.105-.045.16-.01.12.017.267.068.37.097.2.268.414.435.545.19.148.366.572.61.63.176.043.383-.103.542-.142.18-.042.397.01.57-.052.223-.08.128-.337.29-.45.103-.074.286-.01.405-.05.2-.07.34-.264.376-.46.016-.083.01-.146.04-.222.038-.103.11-.16.09-.293-.01-.062-.053-.12-.065-.187-.022-.114.002-.224 0-.337-.003-.2.017-.38-.078-.55-.38-.69-1.236-.93-1.975-.79-.18.034-.287.126-.442.207-.17.088-.14.166-.318.224-.08.027-.216.125-.215.225 0 .115.005.05.012.17-.02.01-.02-.006-.03-.026M46.458-41.042c.018.072.007.127-.026.19-.053.1-.112.062-.165.128-.05.062-.1.276-.08.362-.168.058-.008.227-.014.35-.002.05-.04.105-.045.16-.01.12.017.267.068.37.097.2.268.414.435.545.19.148.366.572.61.63.176.043.383-.103.542-.142.18-.042.397.01.57-.052.223-.08.128-.337.29-.45.103-.074.286-.01.405-.05.2-.07.34-.264.376-.46.016-.083.01-.146.04-.222.038-.103.11-.16.09-.293-.01-.062-.053-.12-.065-.187-.022-.114.002-.224 0-.337-.003-.2.017-.38-.078-.55-.38-.69-1.236-.93-1.975-.79-.18.034-.287.126-.442.207-.17.088-.14.166-.318.224-.08.027-.216.125-.215.225 0 .115.005.05.012.17-.02.01-.02-.006-.03-.026M38.797-41.042c.018.072.007.127-.026.19-.052.1-.11.062-.164.128-.05.062-.1.276-.08.362-.168.058-.008.227-.014.35-.002.05-.04.105-.045.16-.01.12.017.267.068.37.097.2.268.414.435.545.19.148.365.572.608.63.177.043.384-.103.543-.142.18-.042.398.01.572-.052.222-.08.127-.337.288-.45.104-.074.287-.01.406-.05.2-.07.34-.264.376-.46.016-.083.01-.146.04-.222.038-.103.11-.16.09-.293-.01-.062-.053-.12-.065-.187-.022-.114.002-.224 0-.337-.003-.2.017-.38-.078-.55-.38-.69-1.237-.93-1.976-.79-.18.034-.287.126-.442.207-.17.088-.14.166-.318.224-.08.027-.216.125-.215.225 0 .115.004.05.01.17-.02.01-.02-.006-.03-.026M31.137-41.042c.018.072.007.127-.026.19-.052.1-.11.062-.164.128-.05.062-.1.276-.08.362-.168.058-.008.227-.014.35-.002.05-.04.105-.045.16-.01.12.017.267.068.37.097.2.268.414.435.545.19.148.365.572.608.63.177.043.384-.103.543-.142.18-.042.398.01.572-.052.222-.08.127-.337.288-.45.104-.074.287-.01.406-.05.2-.07.34-.264.376-.46.016-.083.01-.146.04-.222.038-.103.11-.16.09-.293-.01-.062-.053-.12-.065-.187-.022-.114.002-.224 0-.337-.003-.2.017-.38-.078-.55-.38-.69-1.237-.93-1.976-.79-.18.034-.287.126-.442.207-.17.088-.14.166-.318.224-.08.027-.216.125-.215.225 0 .115.004.05.01.17-.02.01-.02-.006-.03-.026M23.477-41.042c.018.072.007.127-.026.19-.052.1-.11.062-.164.128-.05.062-.1.276-.08.362-.168.058-.008.227-.014.35-.002.05-.04.105-.045.16-.01.12.017.267.068.37.097.2.268.414.435.545.19.148.365.572.608.63.177.043.384-.103.543-.142.18-.042.398.01.572-.052.222-.08.127-.337.288-.45.104-.074.287-.01.406-.05.2-.07.34-.264.376-.46.016-.083.01-.146.04-.222.038-.103.11-.16.09-.293-.01-.062-.053-.12-.065-.187-.022-.114.002-.224 0-.337-.003-.2.017-.38-.078-.55-.38-.69-1.237-.93-1.976-.79-.18.034-.287.126-.442.207-.17.088-.14.166-.318.224-.08.027-.216.125-.215.225 0 .115.004.05.01.17-.02.01-.02-.006-.03-.026M15.816-41.042c.018.072.007.127-.026.19-.053.1-.112.062-.165.128-.05.062-.1.276-.08.362-.168.058-.008.227-.014.35 0 .05-.04.105-.044.16-.01.12.017.267.068.37.097.2.268.414.435.545.19.148.364.572.607.63.177.043.384-.103.543-.142.18-.042.397.01.57-.052.223-.08.128-.337.29-.45.103-.074.286-.01.405-.05.2-.07.34-.264.376-.46.017-.083.01-.146.04-.222.04-.103.11-.16.09-.293-.01-.062-.052-.12-.064-.187-.022-.114.002-.224 0-.337-.003-.2.017-.38-.078-.55-.38-.69-1.236-.93-1.975-.79-.18.034-.287.126-.442.207-.17.088-.138.166-.317.224-.08.027-.216.125-.215.225 0 .115.005.05.012.17-.02.01-.02-.006-.03-.026M8.156-41.042c.018.072.007.127-.026.19-.053.1-.112.062-.165.128-.05.062-.1.276-.08.362-.168.058-.008.227-.014.35 0 .05-.04.105-.044.16-.01.12.017.267.068.37.097.2.268.414.435.545.19.148.364.572.607.63.177.043.384-.103.543-.142.18-.042.397.01.57-.052.223-.08.128-.337.29-.45.103-.074.286-.01.405-.05.2-.07.34-.264.376-.46.017-.083.01-.146.04-.222.04-.103.11-.16.09-.293-.01-.062-.052-.12-.064-.187-.022-.114.002-.224 0-.337-.003-.2.017-.38-.078-.55-.38-.69-1.236-.93-1.975-.79-.18.034-.287.126-.442.207-.17.088-.138.166-.317.224-.08.027-.216.125-.215.225 0 .115.005.05.012.17-.02.01-.02-.005-.03-.025M.495-41.042c.018.072.007.127-.026.19-.054.1-.113.062-.166.128-.05.062-.1.276-.08.362-.168.058-.01.227-.014.35-.002.05-.04.105-.045.16-.01.12.017.267.068.37.097.2.268.414.435.545.19.148.365.572.608.63.177.043.384-.103.543-.142.18-.042.396.01.57-.052.222-.08.127-.337.288-.45.104-.074.287-.01.406-.05.2-.07.34-.264.376-.46.016-.083.01-.146.04-.222.038-.103.11-.16.09-.293-.01-.062-.053-.12-.065-.187-.022-.114.002-.224 0-.337-.003-.2.017-.38-.078-.55-.38-.69-1.236-.93-1.975-.79-.18.034-.287.126-.442.207-.17.088-.14.166-.318.224-.08.027-.216.125-.215.225 0 .115.005.05.012.17-.022.01-.022-.006-.03-.026M69.44-33.39c.017.072.006.127-.027.19-.053.1-.112.062-.165.128-.05.062-.1.276-.08.362-.168.058-.01.227-.014.35-.002.05-.04.105-.045.16-.01.12.016.267.067.37.097.2.268.414.435.545.19.148.365.572.608.63.177.043.384-.103.543-.142.18-.043.397.01.57-.053.223-.08.128-.337.29-.45.103-.074.286-.01.405-.05.2-.07.34-.264.376-.46.016-.083.01-.146.04-.222.038-.103.11-.16.09-.293-.01-.062-.053-.12-.065-.187-.023-.114 0-.224 0-.337-.004-.2.016-.378-.08-.55-.38-.687-1.235-.928-1.974-.788-.18.034-.287.126-.442.207-.17.087-.14.165-.318.223-.08.026-.216.124-.215.224.002.115.006.05.013.17-.02.01-.02-.006-.03-.026M61.778-33.39c.018.072.007.127-.026.19-.053.1-.112.062-.165.128-.05.062-.1.276-.08.362-.168.058-.008.227-.014.35-.002.05-.04.105-.045.16-.01.12.017.267.068.37.097.2.268.414.435.545.19.148.366.572.61.63.176.043.383-.103.542-.142.18-.043.397.01.57-.053.223-.08.128-.337.29-.45.103-.074.286-.01.405-.05.2-.07.34-.264.376-.46.016-.083.01-.146.04-.222.038-.103.11-.16.09-.293-.01-.062-.053-.12-.065-.187-.022-.114.002-.224 0-.337-.003-.2.017-.378-.078-.55-.38-.687-1.236-.928-1.975-.788-.18.034-.287.126-.442.207-.17.087-.14.165-.318.223-.08.026-.216.124-.215.224 0 .115.005.05.012.17-.02.01-.02-.006-.03-.026M54.118-33.39c.018.072.007.127-.026.19-.053.1-.112.062-.165.128-.05.062-.1.276-.08.362-.168.058-.008.227-.014.35-.002.05-.04.105-.045.16-.01.12.017.267.068.37.097.2.268.414.435.545.19.148.366.572.61.63.176.043.383-.103.542-.142.18-.043.397.01.57-.053.223-.08.128-.337.29-.45.103-.074.286-.01.405-.05.2-.07.34-.264.376-.46.016-.083.01-.146.04-.222.038-.103.11-.16.09-.293-.01-.062-.053-.12-.065-.187-.022-.114.002-.224 0-.337-.003-.2.017-.378-.078-.55-.38-.687-1.236-.928-1.975-.788-.18.034-.287.126-.442.207-.17.087-.14.165-.318.223-.08.026-.216.124-.215.224 0 .115.005.05.012.17-.02.01-.02-.006-.03-.026M46.458-33.39c.018.072.007.127-.026.19-.053.1-.112.062-.165.128-.05.062-.1.276-.08.362-.168.058-.008.227-.014.35-.002.05-.04.105-.045.16-.01.12.017.267.068.37.097.2.268.414.435.545.19.148.366.572.61.63.176.043.383-.103.542-.142.18-.043.397.01.57-.053.223-.08.128-.337.29-.45.103-.074.286-.01.405-.05.2-.07.34-.264.376-.46.016-.083.01-.146.04-.222.038-.103.11-.16.09-.293-.01-.062-.053-.12-.065-.187-.022-.114.002-.224 0-.337-.003-.2.017-.378-.078-.55-.38-.687-1.236-.928-1.975-.788-.18.034-.287.126-.442.207-.17.087-.14.165-.318.223-.08.026-.216.124-.215.224 0 .115.005.05.012.17-.02.01-.02-.006-.03-.026M38.797-33.39c.018.072.007.127-.026.19-.052.1-.11.062-.164.128-.05.062-.1.276-.08.362-.168.058-.008.227-.014.35-.002.05-.04.105-.045.16-.01.12.017.267.068.37.097.2.268.414.435.545.19.148.365.572.608.63.177.043.384-.103.543-.142.18-.043.398.01.572-.053.222-.08.127-.337.288-.45.104-.074.287-.01.406-.05.2-.07.34-.264.376-.46.016-.083.01-.146.04-.222.038-.103.11-.16.09-.293-.01-.062-.053-.12-.065-.187-.022-.114.002-.224 0-.337-.003-.2.017-.378-.078-.55-.38-.687-1.237-.928-1.976-.788-.18.034-.287.126-.442.207-.17.087-.14.165-.318.223-.08.026-.216.124-.215.224 0 .115.004.05.01.17-.02.01-.02-.006-.03-.026M31.137-33.39c.018.072.007.127-.026.19-.052.1-.11.062-.164.128-.05.062-.1.276-.08.362-.168.058-.008.227-.014.35-.002.05-.04.105-.045.16-.01.12.017.267.068.37.097.2.268.414.435.545.19.148.365.572.608.63.177.043.384-.103.543-.142.18-.043.398.01.572-.053.222-.08.127-.337.288-.45.104-.074.287-.01.406-.05.2-.07.34-.264.376-.46.016-.083.01-.146.04-.222.038-.103.11-.16.09-.293-.01-.062-.053-.12-.065-.187-.022-.114.002-.224 0-.337-.003-.2.017-.378-.078-.55-.38-.687-1.237-.928-1.976-.788-.18.034-.287.126-.442.207-.17.087-.14.165-.318.223-.08.026-.216.124-.215.224 0 .115.004.05.01.17-.02.01-.02-.006-.03-.026M23.477-33.39c.018.072.007.127-.026.19-.052.1-.11.062-.164.128-.05.062-.1.276-.08.362-.168.058-.008.227-.014.35-.002.05-.04.105-.045.16-.01.12.017.267.068.37.097.2.268.414.435.545.19.148.365.572.608.63.177.043.384-.103.543-.142.18-.043.398.01.572-.053.222-.08.127-.337.288-.45.104-.074.287-.01.406-.05.2-.07.34-.264.376-.46.016-.083.01-.146.04-.222.038-.103.11-.16.09-.293-.01-.062-.053-.12-.065-.187-.022-.114.002-.224 0-.337-.003-.2.017-.378-.078-.55-.38-.687-1.237-.928-1.976-.788-.18.034-.287.126-.442.207-.17.087-.14.165-.318.223-.08.026-.216.124-.215.224 0 .115.004.05.01.17-.02.01-.02-.006-.03-.026M15.816-33.39c.018.072.007.127-.026.19-.053.1-.112.062-.165.128-.05.062-.1.276-.08.362-.168.058-.008.227-.014.35 0 .05-.04.105-.044.16-.01.12.017.267.068.37.097.2.268.414.435.545.19.148.364.572.607.63.177.043.384-.103.543-.142.18-.043.397.01.57-.053.223-.08.128-.337.29-.45.103-.074.286-.01.405-.05.2-.07.34-.264.376-.46.017-.083.01-.146.04-.222.04-.103.11-.16.09-.293-.01-.062-.052-.12-.064-.187-.022-.114.002-.224 0-.337-.003-.2.017-.378-.078-.55-.38-.687-1.236-.928-1.975-.788-.18.034-.287.126-.442.207-.17.087-.138.165-.317.223-.08.026-.216.124-.215.224 0 .115.005.05.012.17-.02.01-.02-.006-.03-.026M8.156-33.39c.018.072.007.127-.026.19-.053.1-.112.062-.165.128-.05.062-.1.276-.08.362-.168.058-.008.227-.014.35 0 .05-.04.105-.044.16-.01.12.017.267.068.37.097.2.268.414.435.545.19.148.364.572.607.63.177.043.384-.103.543-.142.18-.043.397.01.57-.053.223-.08.128-.337.29-.45.103-.074.286-.01.405-.05.2-.07.34-.264.376-.46.017-.083.01-.146.04-.222.04-.103.11-.16.09-.293-.01-.062-.052-.12-.064-.187-.022-.114.002-.224 0-.337-.003-.2.017-.378-.078-.55-.38-.687-1.236-.928-1.975-.788-.18.034-.287.126-.442.207-.17.087-.138.165-.317.223-.08.026-.216.124-.215.224 0 .115.005.05.012.17-.02.01-.02-.006-.03-.026M.495-33.39c.018.072.007.127-.026.19-.054.1-.113.062-.166.128-.05.062-.1.276-.08.362-.168.058-.01.227-.014.35-.002.05-.04.105-.045.16-.01.12.017.267.068.37.097.2.268.414.435.545.19.148.365.572.608.63.177.043.384-.103.543-.142.18-.043.396.01.57-.053.222-.08.127-.337.288-.45.104-.074.287-.01.406-.05.2-.07.34-.264.376-.46.016-.083.01-.146.04-.222.038-.103.11-.16.09-.293-.01-.062-.053-.12-.065-.187-.022-.114.002-.224 0-.337-.003-.2.017-.378-.078-.55-.38-.687-1.236-.928-1.975-.788-.18.034-.287.126-.442.207-.17.087-.14.165-.318.223-.08.026-.216.124-.215.224.003.117.006.053.013.17-.02.012-.02-.004-.03-.024M69.44-25.736c.017.072.006.127-.027.19-.053.1-.112.062-.165.128-.05.062-.1.276-.08.362-.168.058-.01.227-.014.35-.002.05-.04.105-.045.16-.01.12.016.267.067.37.097.2.268.414.435.545.19.147.365.57.608.63.177.042.384-.104.543-.143.18-.043.397.01.57-.053.223-.08.128-.337.29-.45.103-.074.286-.01.405-.05.2-.07.34-.264.376-.46.016-.083.01-.146.04-.222.038-.103.11-.16.09-.293-.01-.063-.053-.12-.065-.188-.023-.114 0-.224 0-.337-.004-.2.016-.38-.08-.55-.38-.688-1.235-.93-1.974-.79-.18.035-.287.127-.442.208-.17.088-.14.166-.318.224-.08.026-.216.124-.215.224.002.116.006.052.013.17-.02.01-.02-.005-.03-.025M61.778-25.736c.018.072.007.127-.026.19-.053.1-.112.062-.165.128-.05.062-.1.276-.08.362-.168.058-.008.227-.014.35-.002.05-.04.105-.045.16-.01.12.017.267.068.37.097.2.268.414.435.545.19.147.366.57.61.63.176.042.383-.104.542-.143.18-.043.397.01.57-.053.223-.08.128-.337.29-.45.103-.074.286-.01.405-.05.2-.07.34-.264.376-.46.016-.083.01-.146.04-.222.038-.103.11-.16.09-.293-.01-.063-.053-.12-.065-.188-.022-.114.002-.224 0-.337-.003-.2.017-.38-.078-.55-.38-.688-1.236-.93-1.975-.79-.18.035-.287.127-.442.208-.17.088-.14.166-.318.224-.08.026-.216.124-.215.224 0 .116.005.052.012.17-.02.01-.02-.005-.03-.025M54.118-25.736c.018.072.007.127-.026.19-.053.1-.112.062-.165.128-.05.062-.1.276-.08.362-.168.058-.008.227-.014.35-.002.05-.04.105-.045.16-.01.12.017.267.068.37.097.2.268.414.435.545.19.147.366.57.61.63.176.042.383-.104.542-.143.18-.043.397.01.57-.053.223-.08.128-.337.29-.45.103-.074.286-.01.405-.05.2-.07.34-.264.376-.46.016-.083.01-.146.04-.222.038-.103.11-.16.09-.293-.01-.063-.053-.12-.065-.188-.022-.114.002-.224 0-.337-.003-.2.017-.38-.078-.55-.38-.688-1.236-.93-1.975-.79-.18.035-.287.127-.442.208-.17.088-.14.166-.318.224-.08.026-.216.124-.215.224 0 .116.005.052.012.17-.02.01-.02-.005-.03-.025M46.458-25.736c.018.072.007.127-.026.19-.053.1-.112.062-.165.128-.05.062-.1.276-.08.362-.168.058-.008.227-.014.35-.002.05-.04.105-.045.16-.01.12.017.267.068.37.097.2.268.414.435.545.19.147.366.57.61.63.176.042.383-.104.542-.143.18-.043.397.01.57-.053.223-.08.128-.337.29-.45.103-.074.286-.01.405-.05.2-.07.34-.264.376-.46.016-.083.01-.146.04-.222.038-.103.11-.16.09-.293-.01-.063-.053-.12-.065-.188-.022-.114.002-.224 0-.337-.003-.2.017-.38-.078-.55-.38-.688-1.236-.93-1.975-.79-.18.035-.287.127-.442.208-.17.088-.14.166-.318.224-.08.026-.216.124-.215.224 0 .116.005.052.012.17-.02.01-.02-.005-.03-.025M38.797-25.736c.018.072.007.127-.026.19-.052.1-.11.062-.164.128-.05.062-.1.276-.08.362-.168.058-.008.227-.014.35-.002.05-.04.105-.045.16-.01.12.017.267.068.37.097.2.268.414.435.545.19.147.365.57.608.63.177.042.384-.104.543-.143.18-.043.398.01.572-.053.222-.08.127-.337.288-.45.104-.074.287-.01.406-.05.2-.07.34-.264.376-.46.016-.083.01-.146.04-.222.038-.103.11-.16.09-.293-.01-.063-.053-.12-.065-.188-.022-.114.002-.224 0-.337-.003-.2.017-.38-.078-.55-.38-.688-1.237-.93-1.976-.79-.18.035-.287.127-.442.208-.17.088-.14.166-.318.224-.08.026-.216.124-.215.224 0 .116.004.052.01.17-.02.01-.02-.005-.03-.025M31.137-25.736c.018.072.007.127-.026.19-.052.1-.11.062-.164.128-.05.062-.1.276-.08.362-.168.058-.008.227-.014.35-.002.05-.04.105-.045.16-.01.12.017.267.068.37.097.2.268.414.435.545.19.147.365.57.608.63.177.042.384-.104.543-.143.18-.043.398.01.572-.053.222-.08.127-.337.288-.45.104-.074.287-.01.406-.05.2-.07.34-.264.376-.46.016-.083.01-.146.04-.222.038-.103.11-.16.09-.293-.01-.063-.053-.12-.065-.188-.022-.114.002-.224 0-.337-.003-.2.017-.38-.078-.55-.38-.688-1.237-.93-1.976-.79-.18.035-.287.127-.442.208-.17.088-.14.166-.318.224-.08.026-.216.124-.215.224 0 .116.004.052.01.17-.02.01-.02-.005-.03-.025M23.477-25.736c.018.072.007.127-.026.19-.052.1-.11.062-.164.128-.05.062-.1.276-.08.362-.168.058-.008.227-.014.35-.002.05-.04.105-.045.16-.01.12.017.267.068.37.097.2.268.414.435.545.19.147.365.57.608.63.177.042.384-.104.543-.143.18-.043.398.01.572-.053.222-.08.127-.337.288-.45.104-.074.287-.01.406-.05.2-.07.34-.264.376-.46.016-.083.01-.146.04-.222.038-.103.11-.16.09-.293-.01-.063-.053-.12-.065-.188-.022-.114.002-.224 0-.337-.003-.2.017-.38-.078-.55-.38-.688-1.237-.93-1.976-.79-.18.035-.287.127-.442.208-.17.088-.14.166-.318.224-.08.026-.216.124-.215.224 0 .116.004.052.01.17-.02.01-.02-.005-.03-.025M15.816-25.736c.018.072.007.127-.026.19-.053.1-.112.062-.165.128-.05.062-.1.276-.08.362-.168.058-.008.227-.014.35 0 .05-.04.105-.044.16-.01.12.017.267.068.37.097.2.268.414.435.545.19.147.364.57.607.63.177.042.384-.104.543-.143.18-.043.397.01.57-.053.223-.08.128-.337.29-.45.103-.074.286-.01.405-.05.2-.07.34-.264.376-.46.017-.083.01-.146.04-.222.04-.103.11-.16.09-.293-.01-.063-.052-.12-.064-.188-.022-.114.002-.224 0-.337-.003-.2.017-.38-.078-.55-.38-.688-1.236-.93-1.975-.79-.18.035-.287.127-.442.208-.17.088-.138.166-.317.224-.08.026-.216.124-.215.224 0 .116.005.052.012.17-.02.01-.02-.005-.03-.025M8.156-25.736c.018.072.007.127-.026.19-.053.1-.112.062-.165.128-.05.062-.1.276-.08.362-.168.058-.008.227-.014.35 0 .05-.04.105-.044.16-.01.12.017.267.068.37.097.2.268.414.435.545.19.147.364.57.607.63.177.042.384-.104.543-.143.18-.043.397.01.57-.053.223-.08.128-.337.29-.45.103-.074.286-.01.405-.05.2-.07.34-.264.376-.46.017-.083.01-.146.04-.222.04-.103.11-.16.09-.293-.01-.063-.052-.12-.064-.188-.022-.114.002-.224 0-.337-.003-.2.017-.38-.078-.55-.38-.688-1.236-.93-1.975-.79-.18.035-.287.127-.442.208-.17.088-.138.166-.317.224-.08.026-.216.124-.215.224 0 .116.005.052.012.17-.02.01-.02-.005-.03-.025M.495-25.736c.018.072.007.127-.026.19-.054.1-.113.062-.166.128-.05.062-.1.276-.08.362-.168.058-.01.227-.014.35-.002.05-.04.105-.045.16-.01.12.017.267.068.37.097.2.268.414.435.545.19.147.365.57.608.63.177.042.384-.104.543-.143.18-.043.396.01.57-.053.222-.08.127-.337.288-.45.104-.074.287-.01.406-.05.2-.07.34-.264.376-.46.016-.083.01-.146.04-.222.038-.103.11-.16.09-.293-.01-.063-.053-.12-.065-.188-.022-.114.002-.224 0-.337-.003-.2.017-.38-.078-.55-.38-.688-1.236-.93-1.975-.79-.18.035-.287.127-.442.208-.17.088-.14.166-.318.224-.08.026-.216.124-.215.224 0 .116.005.052.012.17-.022.01-.022-.005-.03-.025M69.44-18.084c.017.072.006.127-.027.19-.053.1-.112.062-.165.128-.05.062-.1.276-.08.362-.168.058-.01.227-.014.35-.002.05-.04.105-.045.16-.01.12.016.267.067.37.097.2.268.414.435.545.19.15.365.573.608.632.177.042.384-.104.543-.143.18-.044.397.01.57-.054.223-.08.128-.337.29-.45.103-.074.286-.01.405-.05.2-.07.34-.264.376-.46.016-.083.01-.146.04-.222.038-.103.11-.16.09-.293-.01-.06-.053-.12-.065-.186-.023-.114 0-.224 0-.337-.004-.2.016-.38-.08-.55-.38-.688-1.235-.93-1.974-.79-.18.035-.287.127-.442.208-.17.088-.14.166-.318.224-.08.025-.216.123-.215.223.002.115.006.05.013.17-.02.01-.02-.006-.03-.026M61.778-18.084c.018.072.007.127-.026.19-.053.1-.112.062-.165.128-.05.062-.1.276-.08.362-.168.058-.008.227-.014.35-.002.05-.04.105-.045.16-.01.12.017.267.068.37.097.2.268.414.435.545.19.15.366.573.61.632.176.042.383-.104.542-.143.18-.044.397.01.57-.054.223-.08.128-.337.29-.45.103-.074.286-.01.405-.05.2-.07.34-.264.376-.46.016-.083.01-.146.04-.222.038-.103.11-.16.09-.293-.01-.06-.053-.12-.065-.186-.022-.114.002-.224 0-.337-.003-.2.017-.38-.078-.55-.38-.688-1.236-.93-1.975-.79-.18.035-.287.127-.442.208-.17.088-.14.166-.318.224-.08.025-.216.123-.215.223 0 .115.005.05.012.17-.02.01-.02-.006-.03-.026M54.118-18.084c.018.072.007.127-.026.19-.053.1-.112.062-.165.128-.05.062-.1.276-.08.362-.168.058-.008.227-.014.35-.002.05-.04.105-.045.16-.01.12.017.267.068.37.097.2.268.414.435.545.19.15.366.573.61.632.176.042.383-.104.542-.143.18-.044.397.01.57-.054.223-.08.128-.337.29-.45.103-.074.286-.01.405-.05.2-.07.34-.264.376-.46.016-.083.01-.146.04-.222.038-.103.11-.16.09-.293-.01-.06-.053-.12-.065-.186-.022-.114.002-.224 0-.337-.003-.2.017-.38-.078-.55-.38-.688-1.236-.93-1.975-.79-.18.035-.287.127-.442.208-.17.088-.14.166-.318.224-.08.025-.216.123-.215.223 0 .115.005.05.012.17-.02.01-.02-.006-.03-.026M46.458-18.084c.018.072.007.127-.026.19-.053.1-.112.062-.165.128-.05.062-.1.276-.08.362-.168.058-.008.227-.014.35-.002.05-.04.105-.045.16-.01.12.017.267.068.37.097.2.268.414.435.545.19.15.366.573.61.632.176.042.383-.104.542-.143.18-.044.397.01.57-.054.223-.08.128-.337.29-.45.103-.074.286-.01.405-.05.2-.07.34-.264.376-.46.016-.083.01-.146.04-.222.038-.103.11-.16.09-.293-.01-.06-.053-.12-.065-.186-.022-.114.002-.224 0-.337-.003-.2.017-.38-.078-.55-.38-.688-1.236-.93-1.975-.79-.18.035-.287.127-.442.208-.17.088-.14.166-.318.224-.08.025-.216.123-.215.223 0 .115.005.05.012.17-.02.01-.02-.006-.03-.026M38.797-18.084c.018.072.007.127-.026.19-.052.1-.11.062-.164.128-.05.062-.1.276-.08.362-.168.058-.008.227-.014.35-.002.05-.04.105-.045.16-.01.12.017.267.068.37.097.2.268.414.435.545.19.15.365.573.608.632.177.042.384-.104.543-.143.18-.044.398.01.572-.054.222-.08.127-.337.288-.45.104-.074.287-.01.406-.05.2-.07.34-.264.376-.46.016-.083.01-.146.04-.222.038-.103.11-.16.09-.293-.01-.06-.053-.12-.065-.186-.022-.114.002-.224 0-.337-.003-.2.017-.38-.078-.55-.38-.688-1.237-.93-1.976-.79-.18.035-.287.127-.442.208-.17.088-.14.166-.318.224-.08.025-.216.123-.215.223 0 .115.004.05.01.17-.02.01-.02-.006-.03-.026M31.137-18.084c.018.072.007.127-.026.19-.052.1-.11.062-.164.128-.05.062-.1.276-.08.362-.168.058-.008.227-.014.35-.002.05-.04.105-.045.16-.01.12.017.267.068.37.097.2.268.414.435.545.19.15.365.573.608.632.177.042.384-.104.543-.143.18-.044.398.01.572-.054.222-.08.127-.337.288-.45.104-.074.287-.01.406-.05.2-.07.34-.264.376-.46.016-.083.01-.146.04-.222.038-.103.11-.16.09-.293-.01-.06-.053-.12-.065-.186-.022-.114.002-.224 0-.337-.003-.2.017-.38-.078-.55-.38-.688-1.237-.93-1.976-.79-.18.035-.287.127-.442.208-.17.088-.14.166-.318.224-.08.025-.216.123-.215.223 0 .115.004.05.01.17-.02.01-.02-.006-.03-.026M23.477-18.084c.018.072.007.127-.026.19-.052.1-.11.062-.164.128-.05.062-.1.276-.08.362-.168.058-.008.227-.014.35-.002.05-.04.105-.045.16-.01.12.017.267.068.37.097.2.268.414.435.545.19.15.365.573.608.632.177.042.384-.104.543-.143.18-.044.398.01.572-.054.222-.08.127-.337.288-.45.104-.074.287-.01.406-.05.2-.07.34-.264.376-.46.016-.083.01-.146.04-.222.038-.103.11-.16.09-.293-.01-.06-.053-.12-.065-.186-.022-.114.002-.224 0-.337-.003-.2.017-.38-.078-.55-.38-.688-1.237-.93-1.976-.79-.18.035-.287.127-.442.208-.17.088-.14.166-.318.224-.08.025-.216.123-.215.223 0 .115.004.05.01.17-.02.01-.02-.006-.03-.026M15.816-18.084c.018.072.007.127-.026.19-.053.1-.112.062-.165.128-.05.062-.1.276-.08.362-.168.058-.008.227-.014.35 0 .05-.04.105-.044.16-.01.12.017.267.068.37.097.2.268.414.435.545.19.15.364.573.607.632.177.042.384-.104.543-.143.18-.044.397.01.57-.054.223-.08.128-.337.29-.45.103-.074.286-.01.405-.05.2-.07.34-.264.376-.46.017-.083.01-.146.04-.222.04-.103.11-.16.09-.293-.01-.06-.052-.12-.064-.186-.022-.114.002-.224 0-.337-.003-.2.017-.38-.078-.55-.38-.688-1.236-.93-1.975-.79-.18.035-.287.127-.442.208-.17.088-.138.166-.317.224-.08.025-.216.123-.215.223 0 .115.005.05.012.17-.02.01-.02-.006-.03-.026M8.156-18.084c.018.072.007.127-.026.19-.053.1-.112.062-.165.128-.05.062-.1.276-.08.362-.168.058-.008.227-.014.35 0 .05-.04.105-.044.16-.01.12.017.267.068.37.097.2.268.414.435.545.19.15.364.573.607.632.177.042.384-.104.543-.143.18-.044.397.01.57-.054.223-.08.128-.337.29-.45.103-.074.286-.01.405-.05.2-.07.34-.264.376-.46.017-.083.01-.146.04-.222.04-.103.11-.16.09-.293-.01-.06-.052-.12-.064-.186-.022-.114.002-.224 0-.337-.003-.2.017-.38-.078-.55-.38-.688-1.236-.93-1.975-.79-.18.035-.287.127-.442.208-.17.088-.138.166-.317.224-.08.025-.216.123-.215.223 0 .115.005.05.012.17-.02.01-.02-.006-.03-.026M.495-18.084c.018.072.007.127-.026.19-.054.1-.113.062-.166.128-.05.062-.1.276-.08.362-.168.058-.01.227-.014.35-.002.05-.04.105-.045.16-.01.12.017.267.068.37.097.2.268.414.435.545.19.15.365.573.608.632.177.042.384-.104.543-.143.18-.044.396.01.57-.054.222-.08.127-.337.288-.45.104-.074.287-.01.406-.05.2-.07.34-.264.376-.46.016-.083.01-.146.04-.222.038-.103.11-.16.09-.293-.01-.06-.053-.12-.065-.186-.022-.114.002-.224 0-.337-.003-.2.017-.38-.078-.55-.38-.688-1.236-.93-1.975-.79-.18.035-.287.127-.442.208-.17.088-.14.166-.318.224-.08.025-.216.123-.215.223.003.117.006.052.013.17-.02.01-.02-.005-.03-.025M69.44-10.43c.017.07.006.126-.027.19-.053.1-.112.06-.165.127-.05.062-.1.276-.08.362-.168.058-.01.227-.014.35-.002.05-.04.105-.045.16-.01.12.016.267.067.37.097.2.268.414.435.545.19.148.365.572.608.63.177.043.384-.103.543-.142.18-.043.397.01.57-.053.223-.08.128-.337.29-.45.103-.074.286-.01.405-.05.2-.07.34-.264.376-.46.016-.083.01-.146.04-.222.038-.103.11-.16.09-.293-.01-.062-.053-.12-.065-.187-.023-.114 0-.224 0-.337-.004-.2.016-.378-.08-.55-.38-.687-1.235-.928-1.974-.788-.18.034-.287.126-.442.207-.17.087-.14.165-.318.223-.08.026-.216.124-.215.224.002.115.006.05.013.17-.02.01-.02-.006-.03-.026M61.778-10.43c.018.07.007.126-.026.19-.053.1-.112.06-.165.127-.05.062-.1.276-.08.362-.168.057-.008.226-.014.35-.002.05-.04.104-.045.16-.01.12.017.266.068.37.097.198.268.413.435.544.19.148.366.572.61.63.176.043.383-.103.542-.142.18-.043.397.01.57-.053.223-.08.128-.338.29-.45.103-.075.286-.01.405-.052.2-.07.34-.263.376-.46.016-.082.01-.145.04-.22.038-.104.11-.16.09-.294-.01-.062-.053-.12-.065-.187-.022-.114.002-.224 0-.337-.003-.2.017-.38-.078-.55-.38-.688-1.236-.93-1.975-.79-.18.035-.287.127-.442.208-.17.088-.14.166-.318.224-.08.026-.216.124-.215.224 0 .115.005.05.012.17-.02.01-.02-.006-.03-.026M54.118-10.43c.018.07.007.126-.026.19-.053.1-.112.06-.165.127-.05.062-.1.276-.08.362-.168.057-.008.226-.014.35-.002.05-.04.104-.045.16-.01.12.017.266.068.37.097.198.268.413.435.544.19.148.366.572.61.63.176.043.383-.103.542-.142.18-.043.397.01.57-.053.223-.08.128-.338.29-.45.103-.075.286-.01.405-.052.2-.07.34-.263.376-.46.016-.082.01-.145.04-.22.038-.104.11-.16.09-.294-.01-.062-.053-.12-.065-.187-.022-.114.002-.224 0-.337-.003-.2.017-.38-.078-.55-.38-.688-1.236-.93-1.975-.79-.18.035-.287.127-.442.208-.17.088-.14.166-.318.224-.08.026-.216.124-.215.224 0 .115.005.05.012.17-.02.01-.02-.006-.03-.026M46.458-10.43c.018.07.007.126-.026.19-.053.1-.112.06-.165.127-.05.062-.1.276-.08.362-.168.057-.008.226-.014.35-.002.05-.04.104-.045.16-.01.12.017.266.068.37.097.198.268.413.435.544.19.148.366.572.61.63.176.043.383-.103.542-.142.18-.043.397.01.57-.053.223-.08.128-.338.29-.45.103-.075.286-.01.405-.052.2-.07.34-.263.376-.46.016-.082.01-.145.04-.22.038-.104.11-.16.09-.294-.01-.062-.053-.12-.065-.187-.022-.114.002-.224 0-.337-.003-.2.017-.38-.078-.55-.38-.688-1.236-.93-1.975-.79-.18.035-.287.127-.442.208-.17.088-.14.166-.318.224-.08.026-.216.124-.215.224 0 .115.005.05.012.17-.02.01-.02-.006-.03-.026M38.797-10.43c.018.07.007.126-.026.19-.052.1-.11.06-.164.127-.05.062-.1.276-.08.362-.168.057-.008.226-.014.35-.002.05-.04.104-.045.16-.01.12.017.266.068.37.097.198.268.413.435.544.19.148.365.572.608.63.177.043.384-.103.543-.142.18-.043.398.01.572-.053.222-.08.127-.338.288-.45.104-.075.287-.01.406-.052.2-.07.34-.263.376-.46.016-.082.01-.145.04-.22.038-.104.11-.16.09-.294-.01-.062-.053-.12-.065-.187-.022-.114.002-.224 0-.337-.003-.2.017-.38-.078-.55-.38-.688-1.237-.93-1.976-.79-.18.035-.287.127-.442.208-.17.088-.14.166-.318.224-.08.026-.216.124-.215.224 0 .115.004.05.01.17-.02.01-.02-.006-.03-.026M31.137-10.43c.018.07.007.126-.026.19-.052.1-.11.06-.164.127-.05.062-.1.276-.08.362-.168.057-.008.226-.014.35-.002.05-.04.104-.045.16-.01.12.017.266.068.37.097.198.268.413.435.544.19.148.365.572.608.63.177.043.384-.103.543-.142.18-.043.398.01.572-.053.222-.08.127-.338.288-.45.104-.075.287-.01.406-.052.2-.07.34-.263.376-.46.016-.082.01-.145.04-.22.038-.104.11-.16.09-.294-.01-.062-.053-.12-.065-.187-.022-.114.002-.224 0-.337-.003-.2.017-.38-.078-.55-.38-.688-1.237-.93-1.976-.79-.18.035-.287.127-.442.208-.17.088-.14.166-.318.224-.08.026-.216.124-.215.224 0 .115.004.05.01.17-.02.01-.02-.006-.03-.026M23.477-10.43c.018.07.007.126-.026.19-.052.1-.11.06-.164.127-.05.062-.1.276-.08.362-.168.057-.008.226-.014.35-.002.05-.04.104-.045.16-.01.12.017.266.068.37.097.198.268.413.435.544.19.148.365.572.608.63.177.043.384-.103.543-.142.18-.043.398.01.572-.053.222-.08.127-.338.288-.45.104-.075.287-.01.406-.052.2-.07.34-.263.376-.46.016-.082.01-.145.04-.22.038-.104.11-.16.09-.294-.01-.062-.053-.12-.065-.187-.022-.114.002-.224 0-.337-.003-.2.017-.38-.078-.55-.38-.688-1.237-.93-1.976-.79-.18.035-.287.127-.442.208-.17.088-.14.166-.318.224-.08.026-.216.124-.215.224 0 .115.004.05.01.17-.02.01-.02-.006-.03-.026M15.816-10.43c.018.07.007.126-.026.19-.053.1-.112.06-.165.127-.05.062-.1.276-.08.362-.168.057-.008.226-.014.35 0 .05-.04.104-.044.16-.01.12.017.266.068.37.097.198.268.413.435.544.19.148.364.572.607.63.177.043.384-.103.543-.142.18-.043.397.01.57-.053.223-.08.13-.337.29-.45.104-.074.287-.01.406-.05.2-.07.34-.264.376-.46.016-.083.01-.146.04-.222.038-.103.11-.16.09-.293-.01-.062-.053-.12-.065-.187-.022-.114.002-.224 0-.337-.003-.2.017-.378-.078-.55-.38-.687-1.237-.928-1.976-.788-.18.034-.287.126-.442.207-.17.087-.14.165-.318.223-.08.026-.216.124-.215.224 0 .115.004.05.01.17-.02.01-.02-.006-.03-.026M8.156-10.43c.018.07.007.126-.026.19-.053.1-.112.06-.165.127-.05.063-.1.277-.08.363-.168.058-.01.227-.014.35-.002.05-.04.105-.044.16-.01.12.017.267.068.37.097.2.268.414.435.545.19.148.364.572.607.63.177.043.384-.104.543-.142.18-.043.397.01.57-.053.223-.08.128-.337.29-.45.103-.074.286-.01.405-.05.2-.07.34-.264.376-.46.017-.083.01-.146.04-.222.04-.103.11-.16.09-.293-.01-.062-.052-.12-.064-.187-.022-.114.002-.224 0-.337-.003-.2.017-.378-.078-.55-.38-.687-1.236-.928-1.975-.788-.18.034-.287.126-.442.207-.17.087-.138.165-.317.223-.08.026-.216.124-.215.224 0 .115.005.05.012.17-.02.01-.02-.006-.03-.026M.495-10.43c.018.07.007.126-.026.19-.054.1-.113.06-.166.127-.05.063-.1.277-.08.363-.168.058-.01.227-.014.35-.002.05-.04.105-.045.16-.01.12.017.267.068.37.097.2.268.414.435.545.19.148.365.572.608.63.178.043.384-.104.543-.142.18-.043.397.01.57-.053.223-.08.128-.337.29-.45.103-.074.286-.01.405-.05.2-.07.34-.264.376-.46.017-.083.01-.145.04-.22.04-.104.11-.16.09-.294-.01-.062-.052-.12-.064-.187-.022-.115.002-.225 0-.338-.003-.2.017-.38-.078-.55-.38-.688-1.236-.93-1.975-.79-.18.035-.287.127-.442.208-.17.088-.138.166-.317.224-.08.026-.216.124-.215.224 0 .115.005.05.012.17-.02.01-.02-.006-.03-.026"/></g><g fill="#fff"><path d="M69.44-2.778c.017.072.007.127-.027.19-.052.1-.113.063-.165.128-.05.062-.1.276-.08.362-.168.058-.01.227-.014.35-.002.05-.04.105-.045.16-.01.12.016.267.067.37.097.2.268.414.435.545.19.148.365.572.608.63.177.043.384-.103.543-.142.18-.043.397.01.57-.053.223-.08.128-.337.29-.45.103-.074.286-.01.405-.05.2-.07.34-.264.376-.46.016-.083.01-.146.04-.222.037-.103.11-.16.09-.293-.01-.062-.052-.12-.065-.187-.022-.114 0-.224 0-.337-.004-.2.016-.38-.08-.55-.38-.688-1.235-.93-1.974-.79-.18.035-.287.127-.442.208-.17.09-.14.167-.318.225-.08.026-.215.124-.215.224.003.114.006.05.013.168-.02.01-.02-.005-.03-.025M61.778-2.778c.018.072.007.127-.026.19-.052.1-.112.063-.165.128-.05.062-.1.276-.08.362-.168.058-.01.227-.014.35-.002.05-.04.105-.045.16-.01.12.017.267.068.37.097.2.268.414.435.545.19.148.366.572.61.63.177.043.383-.103.543-.142.18-.043.397.01.57-.053.223-.08.128-.337.29-.45.103-.074.286-.01.405-.05.2-.07.34-.264.376-.46.016-.083.01-.146.04-.222.038-.103.11-.16.09-.293-.01-.062-.053-.12-.065-.187-.023-.114 0-.224 0-.337-.004-.2.016-.38-.08-.55-.38-.688-1.235-.93-1.974-.79-.18.035-.287.127-.442.208-.17.09-.14.167-.318.225-.08.028-.216.125-.215.225.002.115.006.05.013.17-.02.01-.02-.006-.03-.026M54.118-2.778c.018.072.007.127-.026.19-.052.1-.112.063-.165.128-.05.062-.1.276-.08.362-.168.058-.01.227-.014.35-.002.05-.04.105-.045.16-.01.12.017.267.068.37.097.2.268.414.435.545.19.148.366.572.61.63.177.043.383-.103.542-.142.18-.043.397.01.57-.053.223-.08.128-.337.29-.45.103-.074.286-.01.405-.05.2-.07.34-.264.376-.46.016-.083.01-.146.04-.222.038-.103.11-.16.09-.293-.01-.062-.053-.12-.065-.187-.022-.114.002-.224 0-.337-.003-.2.017-.38-.078-.55-.38-.688-1.236-.93-1.975-.79-.18.035-.287.127-.442.208-.17.09-.14.167-.318.225-.08.028-.215.125-.214.225.002.115.006.05.013.17-.02.01-.02-.006-.03-.026M46.458-2.778c.018.072.007.127-.026.19-.053.1-.112.062-.165.128-.05.062-.1.276-.08.362-.168.058-.01.227-.014.35-.002.05-.04.105-.045.16-.01.12.017.267.068.37.097.2.268.414.435.545.19.148.366.572.61.63.176.043.383-.103.542-.142.18-.043.397.01.57-.053.223-.08.128-.337.29-.45.103-.074.286-.01.405-.05.2-.07.34-.264.376-.46.016-.083.01-.146.04-.222.038-.103.11-.16.09-.293-.01-.062-.053-.12-.065-.187-.022-.114.002-.224 0-.337-.003-.2.017-.38-.078-.55-.38-.688-1.236-.93-1.975-.79-.18.035-.287.127-.442.208-.17.09-.14.167-.318.225-.08.028-.216.125-.215.225 0 .115.005.05.012.17-.02.01-.02-.006-.03-.026M38.797-2.778c.018.072.007.127-.026.19-.052.1-.11.062-.164.128-.05.062-.1.276-.08.362-.168.058-.01.227-.014.35-.002.05-.04.105-.045.16-.01.12.017.267.068.37.097.2.268.414.435.545.19.148.365.572.608.63.178.043.384-.103.544-.142.18-.043.397.01.57-.053.223-.08.128-.337.29-.45.103-.074.286-.01.405-.05.2-.07.34-.264.376-.46.016-.083.01-.146.04-.222.038-.103.11-.16.09-.293-.01-.062-.053-.12-.065-.187-.022-.114.002-.224 0-.337-.003-.2.017-.38-.078-.55-.38-.688-1.236-.93-1.975-.79-.18.035-.287.127-.442.208-.17.09-.14.167-.318.225-.08.028-.216.125-.215.225 0 .115.005.05.012.17-.02.01-.02-.006-.03-.026M31.137-2.778c.018.072.007.127-.026.19-.052.1-.11.062-.164.128-.05.062-.1.276-.08.362-.168.058-.01.227-.014.35-.002.05-.04.105-.045.16-.01.12.017.267.068.37.097.2.268.414.435.545.19.148.365.572.608.63.177.043.384-.103.543-.142.18-.043.398.01.572-.053.222-.08.127-.337.288-.45.104-.074.287-.01.406-.05.2-.07.34-.264.376-.46.016-.083.01-.146.04-.222.038-.103.11-.16.09-.293-.01-.062-.053-.12-.065-.187-.022-.114.002-.224 0-.337-.003-.2.017-.38-.078-.55-.38-.688-1.237-.93-1.976-.79-.18.035-.287.127-.442.208-.17.09-.14.167-.318.225-.08.028-.215.125-.214.225 0 .115.005.05.012.17-.02.01-.02-.006-.03-.026M23.477-2.778c.018.072.007.127-.026.19-.052.1-.11.062-.164.128-.05.062-.1.276-.08.362-.168.058-.01.227-.014.35-.002.05-.04.105-.045.16-.01.12.017.267.068.37.097.2.268.414.435.545.19.148.365.572.608.63.177.043.384-.103.543-.142.18-.043.398.01.572-.053.222-.08.127-.337.288-.45.104-.074.287-.01.406-.05.2-.07.34-.264.376-.46.016-.083.01-.146.04-.222.038-.103.11-.16.09-.293-.01-.062-.053-.12-.065-.187-.022-.114.002-.224 0-.337-.003-.2.017-.38-.078-.55-.38-.688-1.237-.93-1.976-.79-.18.035-.287.127-.442.208-.17.09-.14.167-.318.225-.08.026-.216.124-.215.224 0 .114.004.05.01.168-.02.01-.02-.005-.03-.025M15.816-2.778c.018.072.007.127-.026.19-.053.1-.112.062-.165.128-.05.062-.1.276-.08.362-.168.058-.01.227-.014.35 0 .05-.04.105-.044.16-.01.12.017.267.068.37.097.2.268.414.435.545.19.148.364.572.607.63.177.043.384-.103.543-.142.18-.043.397.01.57-.053.223-.08.128-.337.29-.45.103-.074.286-.01.405-.05.2-.07.34-.264.376-.46.017-.083.01-.146.04-.222.04-.103.11-.16.09-.293-.01-.062-.052-.12-.064-.187-.022-.114.002-.224 0-.337-.003-.2.017-.38-.078-.55-.38-.688-1.236-.93-1.975-.79-.18.035-.287.127-.442.208-.17.09-.138.167-.317.225-.08.026-.216.124-.215.224 0 .114.005.05.012.168-.02.012-.02-.004-.03-.024M8.156-2.778c.018.072.007.127-.026.19-.053.1-.112.063-.165.128-.05.062-.1.276-.08.362-.168.058-.01.227-.014.35-.002.05-.04.105-.044.16-.01.12.017.267.068.37.097.2.268.414.435.545.19.148.364.572.607.63.177.043.384-.103.543-.142.18-.043.397.01.57-.053.223-.08.128-.337.29-.45.103-.074.286-.01.405-.05.2-.07.34-.264.376-.46.017-.083.01-.146.04-.222.04-.103.11-.16.09-.293-.01-.062-.052-.12-.064-.187-.022-.114.002-.224 0-.337-.003-.2.017-.38-.078-.55-.38-.688-1.236-.93-1.975-.79-.18.037-.286.13-.44.21-.17.088-.14.166-.32.224-.08.026-.215.123-.214.223 0 .115.004.05.01.17-.02.01-.02-.006-.03-.026M.495-2.778c.018.072.008.127-.026.19-.053.1-.114.063-.166.128-.05.063-.1.276-.08.362-.168.058-.01.227-.014.35-.002.05-.04.105-.045.16-.01.12.017.267.068.37.097.2.268.414.435.545.19.148.365.572.608.63.178.043.384-.103.543-.142.18-.043.397.01.57-.052.223-.08.128-.337.29-.45.103-.074.286-.01.405-.05.2-.07.34-.264.376-.46.017-.083.01-.146.04-.222.038-.102.11-.16.09-.292-.01-.062-.05-.12-.064-.187-.02-.113.002-.223 0-.336-.003-.2.017-.38-.078-.55-.38-.688-1.236-.93-1.975-.79-.18.036-.286.128-.442.21-.17.087-.138.165-.317.223-.08.026-.215.123-.215.223.002.115.005.05.012.17-.02.01-.022-.006-.03-.026"/></g></pattern><g fill="#FF0050"><path d="M2048 0M2048 1536M0 1536M0 0"/></g><g fill="#FF0050"><path d="M1108.986 1466.685c2.905.895 6.034 2.234 8.27 3.13 6.927 4.022 14.302 7.15 21.006 11.618.446.447 1.34.896 2.234 1.117.67.225 1.342 1.12 2.235 1.79.225.446.225.894-.223 1.116-5.363 2.012-11.174-.67-16.537.67-3.576-.67-8.716 0-12.515-.67-6.928.447-14.75-2.01-22.57-.223-15.42-2.46-35.31 0-50.505 0-1.117-.225-2.46.447-3.575.223-1.788-.447-4.023 1.342-5.812-.447-8.715 1.34-18.55-.894-24.36.67-1.786.894-4.02.894-5.81 1.118-5.362-2.46-12.96.445-18.324-1.117-2.683.67-6.48 2.01-9.61 1.563-4.693 1.12-8.938.672-13.408 2.012-2.682-.893-6.258.67-8.715 0-4.47 1.117-9.162-.447-13.855 0-.224-.67-.447-1.117-.67-1.787 4.02-8.045 10.28-11.396 16.312-18.326 9.61-8.043 26.594-12.514 39.33-4.47 1.565-2.456 1.565.896 2.906.896 4.693 2.457 6.705 5.363 11.397 6.258 3.8 2.012 5.14 4.69 9.833 7.373 3.575-3.8 7.598-6.034 9.832-9.386 4.023-3.8 8.94-5.81 12.962-10.502 10.504-5.14 21.23-11.623 32.852-7.6 13.41 1.34 26.594 7.82 37.32 14.973zm-166.04 18.324c9.832 2.233 17.207 1.788 25.028-.224 9.386-2.457 22.123-1.564 31.957-2.236 2.235-1.117 7.6 0 8.716-4.244-4.022-.67-6.928-4.023-9.162-5.14h-.224c-6.928-3.577-12.962-6.26-20.112-7.82-13.632-2.908-27.487 6.702-36.203 19.663zm107.713-26.148c-.223.895-.894.225-1.118.45-2.457 1.116-2.457-.45-3.574 1.34 0 .67-.894.894-.894.894-2.235 1.117-4.47 2.01-4.47 2.234-.447.223-1.564.223-2.46.893-2.01.447-3.798 2.46-5.362 4.023-4.022 1.34-7.15 7.375-9.386 12.29 7.375 1.563 13.185-.224 18.325 1.563 2.012.448 3.8-2.235 6.034 0 3.13-.894 5.14-.446 7.374-.67 3.8 1.565 7.6-.224 12.292.448 6.48-2.236 13.408-2.236 20.336-2.46 9.61 2.235 22.124.894 31.51 2.01 1.788-.892 4.47.896 8.715-1.116-2.68-2.234-2.903-2.457-2.903-2.682-.447-.223-1.342.447-1.788-.445 0-1.342-1.565-2.012-3.576-2.46-3.13-2.68-8.046-2.68-11.174-5.362-.672-1.564-.894-.225-1.564-.225-1.342-2.682-4.916-2.457-6.704-4.916-9.833-4.69-19.89-8.492-31.956-8.938-.672.223-.895-1.117-2.235-.225-4.917 0-9.833.448-15.42 3.352zM1112.338 1399.644c-.67 4.693.226 8.715 1.79 12.514-.225 1.117-1.12 2.236-1.79 2.46-2.904 4.245 2.683 11.843-4.69 14.077-2.46.67-5.14-.447-7.153 1.34-7.82 2.906-10.278.672-17.878 1.342-6.704.447-14.748-2.904-21.23 0-3.575 0-6.48-1.342-9.61-1.787-8.49 3.13-18.1-1.564-27.04.67-6.48.447-11.62-2.234-18.102.67-1.34.225-2.457.225-3.575.672-13.185 0-26.816-1.342-39.778.223-6.48 0-12.738-.223-18.548-3.352-1.117-.895.224-2.234 1.34-2.682 1.565 0 3.8-.448 6.26 1.565 4.69-2.014 8.937.223 12.96-.67 3.352.893 7.15 1.117 10.727.223 7.6-4.47 15.645.67 23.466.447 7.598-.225 15.196-3.13 23.018-2.234 8.046 1.118 17.432 1.788 25.7.894 2.683-.893 5.81.447 8.27-.445 2.457.444 5.81.222 8.044 1.786 3.128-.447 6.928-1.117 10.057-2.014 1.787.896 4.47.672 6.034 1.12 8.49.67 10.278 1.786 18.1-.894 5.14 1.787 3.128-3.578 7.598-4.695 2.906-1.117 1.342-2.457 1.342-4.02-.67-3.577 2.904-6.26 1.34-9.388-1.118-2.904-.223-6.703-2.458-9.832-.224-.895-.224-2.012.895-2.012 2.9-.67 3.347 2.234 4.91 4.024zM1124.854 1354.056c-2.234 4.916-7.6 5.363-11.397 8.045-5.14 2.683-10.727 5.366-16.536 6.036-1.564.893-3.8 1.117-5.586 1.34-14.974 2.682-29.5 8.715-45.143 9.162-10.726 2.234-22.57 1.117-34.19.895-9.61 0-21.9-2.682-31.51-6.928-4.693-1.117-9.833-2.906-13.185-5.81-4.917-1.343-8.716-4.917-12.962-7.6-.894-1.563-2.01-3.13-2.01-4.692 0-.225-.226-.447-.226-.447 4.47 1.117 8.717 4.47 13.186 7.15 3.575 2.012 5.586 4.693 9.386 5.588 6.48 1.342 11.62 5.81 18.324 5.363 12.29 3.13 25.7 2.904 40.45 2.012-2.235-5.142 1.563-7.153-.225-10.282.224-1.34.446-2.234.894-3.127.67-.67 1.117-1.34 2.01-.67l1.118 1.116c-.446 1.342.446 2.236 1.118 2.906-.672 2.904 0 5.81-.448 9.387 10.95 1.116 18.325-2.013 27.264-2.46 3.8-1.787 9.61-2.234 14.304-3.574 4.244-1.344 9.385-1.344 13.408-3.8 3.352.446 7.15-.67 9.832-4.022 5.81.223 10.28-4.023 16.984-5.365v-1.118c1.117-.447 3.352-2.904 6.033-2.01-.223 1.117-.446 2.01-.893 2.904zM1123.735 1324.112c.672.223 1.118.447 1.565.895-2.012 5.14-8.046 2.234-12.737 3.574-4.023.673-7.822 0-11.846.226-10.95.223-21.9-.225-32.402 0-5.587 0-12.96.447-18.773-.225-3.798-.444-8.49 0-12.29.226-9.162.893-17.88 0-27.488.67-.447-.447-.894-.447-1.34-.447-4.023 2.01-8.492.224-12.292.894-9.162.447-17.878 1.34-26.816 1.34-6.257-2.682-12.738 1.342-19.22-.223-.893-.224 1.342-2.68 2.012-2.68 9.834-6.704 21.23 2.68 32.18-.448 12.962-3.576 27.488-2.234 40.227-2.904 12.738-.672 24.805.445 37.767 0 3.575-.447 7.15-.447 10.95-.447.894 0 2.01.224 2.905.224 9.832-.223 19.665-.223 28.38-1.562 6.704 1.785 12.29.668 19.218.89zM1114.573 1273.83c4.023 4.696 6.704 9.388 10.728 14.976.67 5.363 4.47 5.363 3.576 9.61-3.575 4.915-5.587 2.456-9.834 2.68-13.854-1.786-30.168 1.118-43.576 2.013-12.067-.896-18.77.892-35.31 1.34-4.245 1.786-10.28.67-14.973 0-4.917 2.01-13.185 1.116-18.55-.448-17.876 2.234-32.626.447-50.057 1.342-1.34-.225-3.353.893-2.458-.672 0-.223.224-1.117.224-1.34.447-.447.67-1.117 1.117-2.012-.225-1.564-.447.67.67.67 2.012-2.457 2.904-6.928 6.257-6.928 1.788-2.457 3.575-3.797 5.587-4.47 4.022-3.798 6.257-7.15 11.62-7.15 9.163-7.374 20.783-6.48 31.286-6.48 10.504 3.575 19.22 9.163 28.16 20.784 3.798-4.246 3.574-10.057 6.033-11.174 1.563-3.8 4.468-6.928 8.045-10.727 7.15-4.918 13.407-5.81 21.006-8.717 8.716-6.033 18.102 2.906 26.816-.447 4.47.895 8.494 5.59 13.633 7.15zm-131.85 11.175c-4.915 6.482-9.385 2.906-13.407 11.844-.67.448-1.34.895-2.458.226-8.492 3.797.67 4.244 4.246 4.47 7.375-2.46 10.95.444 18.324.222 7.6-2.457 16.313.895 24.358-1.34 2.458-.672 4.247-.225 6.48-.225 4.917-1.117 8.27 1.117 18.104 0-6.93-5.81-8.493-7.375-12.068-9.832-5.14-2.233-9.833-5.81-14.526-8.49-10.057-2.236-20.56-.45-29.052 3.125zm73.077-6.48c-6.033 5.81-8.268 9.833-14.078 21.9 6.257 0 9.386-2.01 12.067-1.116 11.173-4.694 21.452 2.01 33.073-.896 7.374-2.682 15.196 0 22.794-2.682 2.68 1.342 10.728 1.342 12.737.445.225-.445-2.01-2.68-1.34-5.586-3.13-4.468-6.034-9.384-8.49-14.747-4.918-.447-7.823-1.342-11.175-3.354-7.153-1.34-14.975-5.364-22.796-2.683-7.822 2.684-15.418 4.92-22.794 8.72zM933.113 1203.216c.446 3.8 2.01 6.48 2.682 10.504-1.34 6.033-.224 11.396 2.01 18.77 3.13-1.563 5.364-1.116 6.482-.67 4.245-.446 9.608.67 13.855.448 4.02-.895 8.938-1.342 12.96-1.342 6.258-3.127 14.08-4.023 20.337-5.363 3.574.895 7.82 0 11.173.447 15.195 0 30.84-3.8 45.142-5.81 2.683.224 6.704-.448 9.163.224.446-.225 1.563-.225 1.788-.447 11.173-.447 20.11-.67 31.285-.67 5.14 0 9.61.893 14.304 1.117h-.224c-5.81 4.244-13.854 2.682-20.112 4.02-9.163-2.233-18.772 2.458-28.604-1.34-5.812 6.034-12.74 1.34-18.773 3.353-5.586-.672-12.29-.447-16.983 2.46-2.234-.226-4.245.67-7.374-.448-5.363 3.126-12.068 1.563-17.655 1.563-9.162-2.012-16.536 4.02-25.252 2.904-6.257 3.13-13.408 2.682-20.56 2.682-2.234-2.46-5.81-.226-10.28-5.142-1.563 9.834-.67 15.645-1.117 21.678 1.117 4.693-.67 9.834 0 14.973-.224.222-.224.446-.447.67-1.788-.224-2.235-2.235-2.906-3.575 1.342-4.47 1.118-8.94 0-13.408-.893-1.12 0-3.13.225-5.365-2.46-3.352-.447-8.268-2.235-11.396 1.118-3.576-.446-7.375-.224-10.95-2.01-3.575.67-8.27-1.34-11.845 0-3.126-4.246-6.255-.67-8.714.223-.223.67-.447 1.116-.67.89.223 2.01.447 2.233 1.34zM977.808 1082.987c2.458 0 6.034-.223 8.716-.445 6.48-4.023 16.536 0 24.135.893 4.692-2.682 12.513-1.117 17.43-1.564 7.152-1.786 16.537.448 24.806.448 14.526 0 31.286-.447 45.812-1.117 2.234-.222 4.47-1.563 6.48-.67.224.224.446-.222.67-.222-5.14 3.352-11.396 3.574-16.537 5.81-7.373 6.48-15.864 9.833-23.687 14.75-9.386 4.245-18.995 7.374-27.487 13.854-2.682 1.34-5.14 2.904-7.82 4.246l-6.482 3.127 7.376.447c17.43 1.117 33.744-3.127 51.622-.67 7.15 0 13.855-2.904 20.783-1.564 1.787-.223 4.022 0 5.587 0-.225.447 0 1.342-.225 1.564-1.788 0-3.353.447-4.916 1.564-1.786.893-4.02.893-6.032 1.34-6.034.672-12.068-.22-18.102 1.12-16.313.446-32.18-1.567-48.047.222-7.376-1.342-14.75 2.46-21.902.447-4.692 1.117-10.727-1.34-14.302 1.342-10.727-1.117-21.23-2.906-32.404-2.906-2.457-.894-6.257 0-7.374-2.68-.224-.226 1.34-2.46 1.34-1.343 12.068-3.127 22.35 4.023 36.203 2.46 7.152-.896 14.527 0 22.125-2.235 2.234-3.13 5.588-2.906 8.045-4.916 4.47-.67 8.94-1.787 11.845-4.918 11.397-5.586 23.018-7.598 32.18-15.865 2.683-1.117 5.363-2.46 8.27-4.918 0-.67 6.48-3.574 6.48-4.244-.224-.446-6.928 1.118-6.928.224-8.716 0-16.76-1.564-23.688.895-12.515-3.13-25.477-3.355-38.886-.448-9.61-1.117-19.442-2.46-28.828-.67-7.82-3.354-16.537 3.574-23.688-2.682-.67-2.012-4.245-1.342-4.022-3.8 7.596-1.34 14.077 2.905 21.452 3.127zM1007.306 1000.976c6.257 1.117 11.397 2.234 18.1 1.34 11.623 4.916 25.032-2.012 35.982 6.033 6.033 1.34 13.632 1.565 19.22 4.47 9.384 3.13 19.217 4.47 27.26 10.95 3.354 4.47 5.813 8.49 8.27 13.185-.446 4.47-.222 9.61-4.245 11.62-8.492 3.353-17.43 4.917-25.698 9.163-17.878.447-34.416 6.926-51.176 4.02-8.047 1.788-15.868-.222-23.914 1.118-13.855-.893-26.593-6.48-40-8.94-2.907-2.456-14.304-4.468-5.142-8.042 6.034-1.117 9.833 3.352 15.197 4.69 3.13.673 6.034 4.247 9.61 4.247 13.63 2.46 25.475 4.917 40.225 3.13 12.738 3.13 26.595 0 39.332-2.682 12.067-.895 23.018-4.246 34.19-7.375 5.364-2.457 3.352-6.928 5.812-12.736-2.906-2.012-2.013-6.258-4.024-8.045-3.575-4.023-10.726-6.033-15.195-8.717-7.375-1.117-14.75 0-20.112-4.246-6.033-1.118-12.96.446-17.654-4.245-20.112-3.354-40.45-1.79-59.22-6.482-10.95-1.117-20.114-1.564-29.053-7.15.447-1.342 2.683-.672 3.576-1.117 13.854-.895 25.028 6.927 38.66 5.81zM1102.283 948.683c-8.046 5.81-18.325 4.916-25.7 11.174-2.904.893-6.033 2.457-8.49 4.02-6.93-.224-14.08 4.247-23.467 8.493 6.033 2.457 10.503 1.787 13.633.893 13.184 0 24.804-2.234 38.66-.223 3.798 0 8.49-1.117 11.844.447 6.48.223 14.078-1.564 19.665 1.564l.446.446c-4.693 1.344-10.727.896-15.42.672-4.022-1.117-8.27.447-12.738.447-8.715.225-17.877-2.906-25.698.895-7.15.893-13.856-2.46-20.783 0-6.258 2.01-12.515-1.117-18.325 1.787-10.728-1.787-24.583.223-36.204-1.787-13.184 0-26.593.893-39.554-1.342-7.15-.225-10.057-1.564-16.76-2.906-.225 0 1.116-1.562 1.116-2.01 7.15-4.246 9.61-5.586 17.207-8.492 10.504-4.246 21.678-3.352 32.18-6.258 14.75.225 29.275 2.236 40.004 16.314 19.666-11.844 40.673-13.186 59.668-23.465 8.492-2.68 16.313-6.927 24.805-9.608 1.342 0 3.576-.895 5.14-.447-6.928 4.024-14.08 7.15-21.23 9.388zM976.467 963.43c-2.905.896-6.48-.222-9.162 1.565-3.576-.445-6.93 1.564-9.833 2.682l-5.364 3.8c2.012.224 9.834.894 12.068 1.34 2.904 2.907 8.045 1.563 11.62 2.458 16.537-2.234 35.085.45 54.976-.447-2.904-3.574-5.81-4.47-7.375-6.033-3.13-3.127-11.845-6.48-17.655-8.938-10.056 1.34-20.783-.895-29.275 3.574zM971.55 845.66c3.353.446 5.587 3.8 9.386 3.8 7.15 3.574 13.855 5.363 22.57 5.81 1.342.67 3.576.894 5.14 1.34 4.917.448 9.388 2.683 14.08 2.683 2.905.895 6.93-.67 9.61 2.906 3.575-.896 6.257-1.79 8.492-2.907.894-1.787 3.353-4.023 3.128-6.48 1.564-2.46.225-4.47 1.342-7.598 1.34-4.246 1.34-6.705 3.574-11.174 1.117-.894 2.235-1.788 3.576-1.563.894 2.234 0 4.916 0 7.598-2.906 5.81-2.46 8.94-4.47 16.537 1.788 1.117 1.117 2.012 1.788 2.46 5.588.892 11.62.222 16.313-.896 2.904.447 5.362-.67 9.83-.67.896-2.682 2.906-.67 4.248-1.342 8.044-.67 15.195-5.14 23.465-5.586 3.574-3.13 9.61-2.682 13.184-5.363 4.247.447 6.48-5.14 11.845-3.8 2.682-2.01 5.14-4.47 8.492-4.47.894.672 1.788 1.342 2.68 2.234-.445 3.353-4.243 3.575-6.703 5.362-3.798.447-7.373 1.342-10.055 3.8-4.916-.224-7.82 4.022-12.515 3.8-1.787 1.117-3.575 1.34-4.917 2.234-1.787-.223-3.35.447-4.692 1.117-10.277 0-18.324 6.705-28.603 6.033-1.34.895-3.8.895-5.14 1.12-10.95 3.796-23.688 3.126-34.86 2.903-5.14-1.343-11.4 0-15.868-2.235-13.856-2.46-27.265-8.047-40.45-11.62-6.258-2.46-12.067-6.26-17.877-9.388-6.48-3.574-14.08-6.033-18.772-12.514 0-.447 0-1.117.447-1.342 10.056 6.483 20.56 12.293 31.733 17.21zM1123.735 802.98c.672.222 1.118.446 1.565.894-2.012 5.14-8.046 2.234-12.737 3.574-4.023.672-7.822 0-11.846.225-10.95.223-21.9-.225-32.402 0-5.587 0-12.96.447-18.773-.225-3.798-.445-8.49 0-12.29.225-9.162.893-17.88 0-27.488.67-.447-.447-.894-.447-1.34-.447-4.023 2.012-8.492.225-12.292.895-9.162.448-17.878 1.34-26.816 1.34-6.257-2.68-12.738 1.343-19.22-.222-.893-.223 1.342-2.682 2.012-2.682 9.834-6.705 21.23 2.682 32.18-.447 12.962-3.577 27.488-2.235 40.227-2.905 12.738-.672 24.805.445 37.767 0 3.575-.447 7.15-.447 10.95-.447.894 0 2.01.223 2.905.223 9.832-.222 19.665-.222 28.38-1.563 6.704 1.787 12.29.668 19.218.892zM977.808 739.515c2.458 0 6.034-.223 8.716-.447 6.48-4.023 16.536 0 24.135.894 4.692-2.682 12.513-1.117 17.43-1.564 7.152-1.787 16.537.448 24.806.448 14.526 0 31.286-.448 45.812-1.118 2.234-.224 4.47-1.564 6.48-.67.224.223.446-.224.67-.224-5.14 3.352-11.396 3.576-16.537 5.81-7.373 6.48-15.864 9.834-23.687 14.75-9.386 4.246-18.995 7.374-27.487 13.856-2.682 1.34-5.14 2.904-7.82 4.244l-6.482 3.13 7.376.446c17.43 1.117 33.744-3.13 51.622-.67 7.15 0 13.855-2.906 20.783-1.564 1.787-.225 4.022 0 5.587 0-.225.447 0 1.34-.225 1.564-1.788 0-3.353.447-4.916 1.564-1.786.893-4.02.893-6.032 1.34-6.034.67-12.068-.223-18.102 1.117-16.313.448-32.18-1.563-48.047.226-7.376-1.342-14.75 2.457-21.902.447-4.692 1.117-10.727-1.342-14.302 1.34-10.727-1.117-21.23-2.904-32.404-2.904-2.457-.896-6.257 0-7.374-2.683-.224-.225 1.34-2.46 1.34-1.342 12.068-3.13 22.35 4.023 36.203 2.46 7.152-.896 14.527 0 22.125-2.235 2.234-3.13 5.588-2.906 8.045-4.918 4.47-.67 8.94-1.787 11.845-4.916 11.397-5.586 23.018-7.598 32.18-15.866 2.683-1.117 5.363-2.458 8.27-4.917 0-.67 6.48-3.575 6.48-4.246-.224-.447-6.928 1.117-6.928.224-8.716 0-16.76-1.563-23.688.895-12.515-3.128-25.477-3.352-38.886-.447-9.61-1.117-19.442-2.458-28.828-.67-7.82-3.352-16.537 3.576-23.688-2.682-.67-2.01-4.245-1.34-4.022-3.8 7.596-1.34 14.077 2.906 21.452 3.13zM1124.854 692.81c-2.234 4.917-7.6 5.363-11.397 8.045-5.14 2.682-10.727 5.364-16.536 6.034-1.564.893-3.8 1.116-5.586 1.34-14.974 2.68-29.5 8.715-45.143 9.162-10.726 2.235-22.57 1.118-34.19.894-9.61 0-21.9-2.68-31.51-6.927-4.693-1.118-9.833-2.907-13.185-5.812-4.917-1.34-8.716-4.916-12.962-7.598-.894-1.564-2.01-3.13-2.01-4.693 0-.224-.226-.446-.226-.446 4.47 1.118 8.717 4.47 13.186 7.15 3.575 2.012 5.586 4.694 9.386 5.588 6.48 1.34 11.62 5.81 18.324 5.363 12.29 3.13 25.7 2.906 40.45 2.012-2.235-5.14 1.563-7.15-.225-10.28.224-1.34.446-2.235.894-3.127.67-.67 1.117-1.342 2.01-.67l1.118 1.116c-.446 1.342.446 2.236 1.118 2.907-.672 2.905 0 5.81-.448 9.386 10.95 1.117 18.325-2.01 27.264-2.458 3.8-1.788 9.61-2.235 14.304-3.575 4.244-1.342 9.385-1.342 13.408-3.8 3.352.447 7.15-.67 9.832-4.022 5.81.223 10.28-4.023 16.984-5.364v-1.118c1.117-.447 3.352-2.905 6.033-2.01-.223 1.116-.446 2.01-.893 2.905zM953.225 556.27c4.023 1.118 7.375 3.576 11.62 2.906 2.235.67 4.694.446 7.152.67 2.01-.67 4.47.67 6.928.448 4.692-1.34 8.938-.224 13.632-1.34 4.692-.672 8.045.445 12.514.445 3.13 1.116 5.812-1.118 9.388-.447 6.033 0 14.75-.224 21.007.224 9.61-3.352 19.89-1.117 29.722-1.34 1.788-.448 4.023-.225 5.81-.225 1.342.224 2.684-.894 4.024-.894 14.973-.448 30.84.67 44.92-1.118 3.127 1.564 6.256-2.235 8.49 1.118 1.787 3.798-3.8 2.01-6.48 3.128-5.587 0-10.95 1.565-16.76.894-6.705 1.564-13.186-.894-20.112-.224-3.577-1.34-7.376.448-11.397.224-5.14-2.68-9.61.224-14.302 1.34-10.504-1.786-23.912 0-34.416-.67-7.598 3.353-16.09.447-23.242 2.46-6.928-2.236-15.42.446-27.487-1.565 1.34 1.34-7.374-.447-6.48.224 2.01 1.786 12.738 5.138 13.41 5.808 3.35 1.118 7.597 1.565 10.502 3.352 8.49 2.906 18.548 2.46 26.37 7.375 10.95 2.235 21.007 4.916 32.404 6.257 1.116.446 2.68 0 4.02.446 4.247-.446 7.15 4.023 11.397 3.576.67.224.67.67.446 1.34-1.563.67-3.127.895-4.47.45-6.033-.896-12.29 1.116-18.324 2.01-7.15 2.235-14.75 3.576-22.348 4.916l-1.342.894c-6.48 1.79-12.515 1.79-18.77 4.023-2.235 1.787-8.493 2.01-8.493 2.01l-11.174 2.683 10.727.446c11.174 2.906 24.806 0 35.98.67 4.692-2.234 10.28.447 14.973.447 6.704.224 14.08-2.68 20.336-1.118 6.48-.224 11.173-.224 17.207-1.117 5.362-.67 12.066.894 18.1.447 9.834.224 20.336-1.79 30.84.67 1.788 2.458 8.27-2.458 8.045 1.34-5.587 1.788-11.62.225-17.653 2.012-1.79-.446-4.023-.894-5.812.224-8.046.895-18.548-1.787-27.04 0-2.458.225-4.023-.447-6.48-.447-8.717 1.79-16.984.895-25.924 1.565-4.245-1.788-9.385-1.117-13.854 0-10.28 0-19.666-2.905-29.947-.224-10.95.224-22.794-1.34-34.638-.894-2.458 1.117-4.916-.224-7.6 0-2.903 0-6.032-.224-8.937.894-2.012 0-4.022.67-5.363-.894-.67.67-.894.224-2.01-.224-.448-1.34 1.34-.67 1.34-1.117 2.458-.67 6.033.446 9.386-1.342 3.13 0 3.576-4.692 7.6-3.575 2.68 1.34 5.586-1.564 8.49-1.117 10.728-2.012 19.89-6.704 31.286-7.375 1.79-1.787 6.48-1.34 8.717-2.01 6.928-2.458 14.75-2.458 27.04-6.928-14.08-5.81-26.37-2.457-34.19-8.492-4.918-1.34-10.95-1.563-15.197-4.246-1.788-.447-4.022-.894-6.034-.224-4.916-.446-8.49-4.47-13.632-4.47-2.905 0-4.916-3.352-7.82-3.352-2.236-1.564-5.14-1.788-7.375-4.692-6.48 0-11.398-1.118-15.867-3.576-.895-.447-.67-1.34-1.34-2.234 0-.894-.225-1.788.893-2.235 2.68.672 4.467 2.46 7.595 1.79zM1052.672 496.828c11.844-2.01 23.018 4.916 33.744 8.045 4.693 2.68 10.057 3.352 15.196 7.15 1.787-.67 2.012.894 2.682 2.01 0 .225.223-.445.223-.445-7.597 4.916-14.3 9.61-22.57 12.067-4.246 2.235-9.385 2.68-13.854 4.246-4.916 1.79-9.833 3.8-14.75 5.364-10.057 1.118-16.76 3.128-26.37 4.246-7.6-1.564-15.644-.67-23.02-4.47-5.138 2.458-9.607.224-13.407-1.117-4.916 1.34-8.938-4.022-13.632-4.916-4.916-2.682-11.62-2.235-15.866-8.27-.223-.893-.894-2.234 0-3.35.224-.447.67-.895.895-1.118 2.904-2.682 5.586-6.706 9.386-8.493 8.937-5.586 18.547-7.82 29.943-10.95 6.034 1.117 12.068-4.246 17.432-.894 10.726-.223 23.463-1.563 33.967.895zm-86.262 18.548c0 3.128-1.787 5.81 1.564 5.81 13.186 5.81 26.593 9.163 40.225 11.397 13.407 2.235 25.924 3.576 38.66-.67 16.315-5.363 33.522-9.163 52.294-19.22-10.504-2.456-16.313-6.032-22.795-7.373-14.973-1.118-28.158-6.257-42.906-5.81-24.138.447-47.6 2.905-67.044 15.866zm-12.738 13.41c0 1.116-1.564 1.786-2.458 2.01-3.353 2.235-9.162-1.565-12.737-.224-1.34 0-2.235-.446-2.905-1.117 0-1.117.446-1.34.894-2.01 3.352-.45 7.598-3.8 11.396 0 2.906-.225 4.245.446 5.81 1.34zm-4.022-19.667c0 1.117-1.564 1.787-2.46 2.01-3.35 2.234-5.585-.894-8.937.67-1.117 0-2.012-.446-2.682-1.117 0-1.118.447-1.564.895-2.01 2.905-.67 3.8-4.694 7.375-.895 2.904-.224 4.246.448 5.81 1.34zM1128.652 439.62c2.905 1.12 4.916-.446 7.15 0-.67 1.565-1.787 2.906-1.787 4.693-.895 2.458-4.022 2.906-5.81 4.693-1.788.448-2.012 2.905-4.023 4.246-4.692 2.906-8.938 6.034-13.632 9.386-9.16 2.235-17.43 8.492-28.157 9.61-8.27 3.8-18.995 3.575-28.157 3.8-5.587 4.467-14.525.445-21.23 2.904-3.352.446-5.364-.894-8.045-.894-9.162 2.457-17.43-1.118-25.922-2.458-6.033-2.682-12.514-3.353-18.325-6.48-1.787-1.34-4.47-.894-6.257-1.565-7.15-4.692-15.42-7.598-21.9-12.738-3.13-.67-4.022-4.47-7.15-5.14-1.117-1.564-3.353-2.905-2.012-6.257-2.012-1.563-3.8-4.693 0-4.022.895-.67 1.34-.224.224.67 7.374 8.94 19.442 17.208 31.286 23.465 4.47 0 8.94 2.458 11.62 4.693 9.163 2.458 17.655 5.81 27.04 5.81 3.353 0 6.704.67 9.61-.223 5.81.67 11.174 2.235 17.208.67 5.81-.447 11.62-1.117 17.208-2.235 17.877-3.576 37.318-4.47 52.068-14.302 5.363-3.576 9.163-6.705 13.854-12.068-.67-1.117 2.906-.894 2.235-2.458-13.855.67-31.062 1.118-43.577 2.01-5.587 2.46-12.067-.445-18.102.448-5.362.67-10.95-.67-16.536-.447-2.682 0-5.14-.445-7.6.448-4.02-.67-9.16.448-12.514-1.787-1.565-1.34 2.012-1.117 2.458-2.01 3.577-1.34 7.15-1.79 11.174-.224 3.13.446 6.257-1.565 9.163-1.565 8.268 0 15.42 2.236 21.006 1.566 0-.67 2.682 0 4.916 0 1.563-.447 3.128-.447 4.022-.224 4.917 0 8.044-.894 12.514-.224 8.045-2.01 18.102 0 24.582-1.788 2.013-.447 1.787-.224 3.8-.447 3.353 0 4.917-1.117 7.598.448zM1112.338 387.775c-.67 4.693.226 8.715 1.79 12.515-.225 1.117-1.12 2.234-1.79 2.458-2.904 4.246 2.683 11.844-4.69 14.08-2.46.67-5.14-.448-7.153 1.34-7.82 2.905-10.278.67-17.878 1.34-6.704.447-14.748-2.905-21.23 0-3.575 0-6.48-1.34-9.61-1.787-8.49 3.13-18.1-1.563-27.04.672-6.48.446-11.62-2.235-18.102.67-1.34.224-2.457.224-3.575.67-13.185 0-26.816-1.34-39.778.224-6.48 0-12.738-.224-18.548-3.352-1.117-.894.224-2.235 1.34-2.68 1.565 0 3.8-.448 6.26 1.563 4.69-2.01 8.937.224 12.96-.67 3.352.894 7.15 1.118 10.727.224 7.6-4.47 15.645.67 23.466.447 7.598-.224 15.196-3.128 23.018-2.235 8.046 1.117 17.432 1.79 25.7.894 2.683-.894 5.81.447 8.27-.446 2.457.446 5.81.224 8.044 1.788 3.128-.446 6.928-1.118 10.057-2.01 1.787.893 4.47.67 6.034 1.116 8.49.67 10.278 1.788 18.1-.894 5.14 1.788 3.128-3.576 7.598-4.693 2.906-1.117 1.342-2.458 1.342-4.022-.67-3.576 2.904-6.258 1.34-9.386-1.118-2.906-.223-6.705-2.458-9.834-.224-.894-.224-2.01.895-2.01 2.9-.673 3.347 2.232 4.91 4.02zM1123.735 357.607c.672.224 1.118.448 1.565.895-2.012 5.14-8.046 2.235-12.737 3.575-4.023.67-7.822 0-11.846.224-10.95.225-21.9-.223-32.402 0-5.587 0-12.96.448-18.773-.223-3.798-.446-8.49 0-12.29.224-9.162.895-17.88 0-27.488.672-.447-.448-.894-.448-1.34-.448-4.023 2.01-8.492.224-12.292.894-9.162.447-17.878 1.34-26.816 1.34-6.257-2.68-12.738 1.342-19.22-.223-.893-.224 1.342-2.68 2.012-2.68 9.834-6.705 21.23 2.68 32.18-.448 12.962-3.576 27.488-2.235 40.227-2.905 12.738-.67 24.805.446 37.767 0 3.575-.447 7.15-.447 10.95-.447.894 0 2.01.224 2.905.224 9.832-.225 19.665-.225 28.38-1.566 6.704 1.788 12.29.67 19.218.893zM1141.39 309.116c2.905 2.458 0 2.233-.447 3.128-12.514 10.95-29.944 8.715-43.353 17.43-9.61 3.577-19.89 4.917-29.274 7.152-7.375.224-14.08 3.352-21.008 2.012-2.233 1.788-5.586 0-8.044.894-16.092 0-25.254-3.128-37.768-5.81-4.247.447-8.716-.895-12.068-3.8-5.81.67-10.503-1.117-14.75-3.352-10.28-3.798-20.56-7.82-27.934-14.972 0 .224-1.34-.448-.67-.894 1.787-1.117 3.8.894 5.587 1.788 10.504.894 17.208 8.493 26.594 10.728 4.246 2.235 8.94 2.235 12.96 3.798 17.21 4.47 28.606 8.27 46.708 8.492.224 0 .67-1.563.67.224 15.42-.894 28.606-4.47 42.685-6.033 14.303-4.468 28.604-9.61 42.906-14.08 3.8-2.456 8.27-4.47 13.186-6.256 1.34 0 3.798-2.458 4.47-1.563.22 0 1.785 0-.45 1.116zM1113.456 238.722c-2.682 2.01-6.258 3.352-8.94 5.587-10.948 3.127-22.792 6.032-34.637 6.032-8.492 1.34-17.208 3.128-25.477 5.14-4.47-.446-9.61-1.34-14.75-.223-.67 1.787-.67 2.457-3.352 3.127 2.46 6.48 7.6 10.95 10.058 15.644 1.34.67 2.682 2.46 2.234 4.023-.895 2.682.447 2.682 2.012 4.246 2.01 0 3.8.223 5.586 1.117 4.694-1.564 8.27-1.564 12.068-.224 4.246 2.458 7.82.67 12.514 0 8.94-1.34 17.43-3.352 26.594-3.798 7.15-.224 14.302-.224 21.9-.224.67.225 1.34.448 1.118 1.118 0 .67-.895 1.34-1.564 1.564-11.174.67-21.9 1.118-31.734 4.246-7.374-.224-13.407 2.01-20.336 1.34-16.536-1.563-33.968 0-49.61 2.012-6.93-1.565-12.292 1.34-18.996.894-17.432-1.34-35.532-1.34-50.952-6.48-2.234-.672-1.117-2.46-2.234-4.024.223-.67 1.34 0 1.787-.223 5.363 1.117 10.057 3.575 15.42 3.352l.447.445c9.162-.446 17.654 2.458 25.7 2.01 6.033 3.353 12.737-.893 19.218.225 8.27 1.34 15.196-1.564 23.242-2.68 1.117-.896 2.683-1.79 4.246-3.577-2.68-7.152-10.95-11.62-11.846-17.43 1.118 0-1.564-1.79-.446-5.364-6.928-2.013-12.515.67-17.655-1.79-4.244-1.118-8.49 1.117-12.96-1.34-6.033 2.905-11.397.223-17.207.67-3.353-2.906-4.693 2.905-8.716.224-3.8 1.117-8.938 1.788-12.067 0 .224-.895.224-1.565 0-2.458 3.353-2.01 8.045.67 11.396-2.01 4.917-.448 8.492 2.234 13.41 1.34 14.3-2.682 30.168.446 44.693-.447 10.057-.45 21.006 1.116 30.616-2.236 15.196-2.458 31.062-4.47 45.364-7.375 3.576-2.235 7.822-4.694 12.29-4.47.673.67 1.343 1.118 1.566 2.012zM947.86 180.618c6.035.447 10.952 4.023 16.985 5.14 6.928 6.258 16.314 6.93 23.465 12.515 5.587 2.012 11.62 4.247 17.207 6.704 2.234 1.34 3.353 2.235 6.258 4.917 7.82-7.152 17.88-6.257 25.253-9.61 7.152-2.01 13.856-4.47 21.007-7.15 6.928-2.682 14.302-4.023 21.9-5.812 2.905-2.458 7.15-2.458 10.728-3.798 4.916.224 6.927-7.598 10.727-4.023.223 0 3.352 1.566 1.34 2.236-8.27 7.6-20.783 5.14-29.274 11.174-7.822 1.79-15.42 2.458-21.678 6.928-4.245.67-8.27 2.234-11.844 4.246-4.692 1.118-9.162.224-12.737 2.458-2.682.224-4.47 2.235-7.376 3.128-.446 1.118-4.02 3.352-3.575 3.8.447.67 4.692-.448 5.363.445 10.28 1.34 17.433-.446 26.147 1.565 6.034-.447 13.855 0 19.89 1.118.67-.448 2.682 0 3.8-.448 6.702-.67 13.185-4.246 19.665-1.563 4.02-.67 8.938-2.235 12.96-.67.225.67.225 1.564 0 2.458-1.786 2.234-4.915 1.564-7.373 2.01-10.503.672-21.23 1.118-31.286 3.13-4.916-.224-8.49.223-12.96-1.564-10.504-2.905-21.455-2.457-32.183-1.34-8.268-.447-17.653.894-26.593-.447-7.598-2.68-16.09-1.34-25.252-2.68-2.46 2.234-5.363.893-7.375.67-1.787-1.118-4.47-1.342-6.48-.447-6.705 3.352-10.504 1.118-15.196-.895 0 .896-3.798-.445-4.02-.893-.448-2.01 1.563-2.904 3.128-3.576 1.34-.67 3.13 2.46 4.47 1.342 6.48 1.117 13.854.67 20.782 0 10.503 1.564 20.56 1.34 31.062 1.788 2.012.446 9.61 2.235 12.068-.895-3.576-1.787-9.162-4.47-10.28-7.15-5.364-2.458-8.716-2.683-12.737-6.257-4.246.67-6.034-2.46-9.387-2.46-6.704-2.01-12.514-7.597-19.665-9.832-4.02-.224-7.374-2.682-10.727-4.693-.223-.448-2.01-.894-2.01-1.34-.672-.67.445-2.012.445-2.46 2.012-1.563 2.906 2.682 5.363 2.235zM1124.854 136.372c-2.234 4.917-7.6 5.364-11.397 8.045-5.14 2.683-10.727 5.363-16.536 6.034-1.564.895-3.8 1.12-5.586 1.34-14.974 2.683-29.5 8.717-45.143 9.164-10.726 2.235-22.57 1.117-34.19.894-9.61 0-21.9-2.68-31.51-6.927-4.693-1.116-9.833-2.905-13.185-5.81-4.917-1.34-8.716-4.917-12.962-7.598-.894-1.565-2.01-3.13-2.01-4.693 0-.225-.226-.448-.226-.448 4.47 1.117 8.717 4.47 13.186 7.15 3.575 2.012 5.586 4.694 9.386 5.588 6.48 1.34 11.62 5.81 18.324 5.363 12.29 3.128 25.7 2.905 40.45 2.01-2.235-5.138 1.563-7.15-.225-10.278.224-1.34.446-2.235.894-3.13.67-.67 1.117-1.34 2.01-.67.447.448.672.67 1.118 1.118-.446 1.34.446 2.235 1.118 2.905-.672 2.906 0 5.81-.448 9.386 10.95 1.118 18.325-2.01 27.264-2.458 3.8-1.788 9.61-2.235 14.304-3.576 4.244-1.34 9.385-1.34 13.408-3.798 3.352.446 7.15-.67 9.832-4.023 5.81.223 10.28-4.023 16.984-5.364v-1.118c1.117-.446 3.352-2.905 6.033-2.01-.223 1.116-.446 2.01-.893 2.904zM1136.474 108.44c-.67.223-2.458 1.564-4.022 2.01-4.246.225-10.28.67-14.526 1.342-2.457-.895-7.15.894-9.608.222-11.844 1.118-23.688 1.79-37.097 1.565-2.457 1.564-6.926.446-9.608.446-12.515-.447-23.912-3.576-34.86-2.012-7.824 0-16.763 2.906-25.03 0-5.812.895-14.304-.222-18.996.224-.224.224-.67.447-.894.67-11.62-1.116-24.582 1.34-35.756.447-.895-.224-2.012-1.788-.447-2.01 23.017-2.906 49.163-1.788 73.522-2.906 5.364-.225 13.408.222 19.22-.896.223.224.445.447.67.67 8.715 0 16.76 1.118 25.028 1.79.67-.447 2.234-.225 2.682 0 13.41.446 29.052-2.012 41.79-1.565 7.375-3.577 15.195 1.563 21.9-2.683.894-1.34 2.905-.67 4.022-1.787 2.68 1.788 2.457 3.575 2.01 4.47zM933.113 50.367c.446 3.8 2.01 6.48 2.682 10.503-1.34 6.034-.224 11.397 2.01 18.77 3.13-1.562 5.364-1.116 6.482-.67 4.245-.446 9.608.67 13.855.448 4.02-.895 8.938-1.34 12.96-1.34 6.258-3.13 14.08-4.024 20.337-5.364 3.574.894 7.82 0 11.173.446 15.195 0 30.84-3.798 45.142-5.81 2.683.223 6.704-.447 9.163.223.446-.223 1.563-.223 1.788-.446 11.173-.447 20.11-.67 31.285-.67 5.14 0 9.61.894 14.304 1.116h-.224c-5.81 4.246-13.854 2.682-20.112 4.023-9.163-2.235-18.772 2.457-28.604-1.34-5.812 6.032-12.74 1.34-18.773 3.35-5.586-.67-12.29-.446-16.983 2.46-2.234-.224-4.245.67-7.374-.448-5.363 3.128-12.068 1.565-17.655 1.565-9.162-2.012-16.536 4.022-25.252 2.905-6.257 3.128-13.408 2.682-20.56 2.682-2.234-2.458-5.81-.224-10.28-5.14-1.563 9.832-.67 15.642-1.117 21.675 1.117 4.693-.67 9.834 0 14.974-.224.223-.224.445-.447.67-1.788-.225-2.235-2.236-2.906-3.576 1.342-4.47 1.118-8.94 0-13.41-.893-1.116 0-3.127.225-5.362-2.46-3.352-.447-8.27-2.235-11.397 1.118-3.576-.446-7.375-.224-10.95-2.01-3.576.67-8.27-1.34-11.844 0-3.128-4.246-6.257-.67-8.714.223-.224.67-.447 1.116-.67.89.224 2.01.447 2.233 1.34z"/></g></svg>