<?xml version="1.0" encoding="iso-8859-1"?>
<!-- Generator: Adobe Illustrator 15.1.0, SVG Export Plug-In . SVG Version: 6.00 Build 0)  -->
<!DOCTYPE svg PUBLIC "-//W3C//DTD SVG 1.1//EN" "http://www.w3.org/Graphics/SVG/1.1/DTD/svg11.dtd">
<svg version="1.1" xmlns="http://www.w3.org/2000/svg" xmlns:xlink="http://www.w3.org/1999/xlink" x="0px" y="0px" width="2048px"
	 height="1536px" viewBox="0 0 2048 1536" style="enable-background:new 0 0 2048 1536;" xml:space="preserve">
<g id="titelb">
	<g>
		<path style="fill:none;stroke:#FF0050;stroke-width:3;" d="M864.5,1279.132c27.538,5.769,65.852,1.73,92.791,15.576
			c50.286,2.885,98.777,18.461,147.867,31.152c33.524,16.731,72.437,23.076,106.56,37.501c10.774,6.345,19.156,14.999,25.741,24.229
			c4.789,6.923,14.368,1.731,17.96,11.538c1.196,3.461-2.993,1.731-2.993,8.654c-45.498,8.653-80.818,31.152-124.52,34.614
			c-41.904-1.153-80.219,13.846-121.526,12.116c-17.959,4.613-36.517,1.153-54.477,3.46c-29.932,7.5-55.076-2.307-85.607,2.309
			c-8.979-2.885-19.755,5.191-28.735,0.576c-8.381,2.309-17.958-6.345-26.939,1.153c-13.171-1.729-25.143,0-34.123-7.498
			c2.993-20.192,23.946-11.539,37.116-16.731c39.511-4.616,77.226,2.309,116.139-5.77c41.905-4.038,89.198-3.46,134.696-8.653
			c8.382-5.191,20.952-2.308,29.933-8.076c41.307,4.038,74.832-10.962,111.947-20.77c-4.19-4.615-11.374-5.191-16.763-7.5
			c-37.715-15.576-76.028-28.269-116.735-39.23c-31.13-8.076-62.859-9.229-92.192-22.499c-25.743-6.923-53.878-6.347-77.825-17.307
			c-30.53-2.309-61.66-2.309-86.803-17.886c-3.593-2.307-2.994-8.076-2.994-11.538c4.79-8.653,10.776-5.191,16.763-3.462
			C840.554,1273.938,853.125,1276.823,864.5,1279.132z"/>
		<path style="fill:none;stroke:#FF0050;stroke-width:3;" d="M1262.455,1283.192c-9.23,4.038-11.389-1.153-27.542-6.347
			c0.577-0.576,1.154-1.153,1.73-1.731c-15.576-4.038-31.729-6.056-48.46-8.363c-9.809-2.309-21.347,1.153-31.153-4.039
			c-28.269,2.884-51.346-9.23-77.884-10.961c-12.115,1.153-23.653-3.462-35.769-6.923c-7.499,2.885-14.999,1.731-21.922,0
			c-18.462-7.5-39.23-9.808-55.961-17.885c-59.999-10.961-113.652-37.499-173.651-50.191c-8.654-6.922-20.769-4.038-24.23-16.73
			c10.385-16.73,31.153-9.808,47.884-14.423c4.616-0.576,4.038-5.77,7.5-7.499c47.884,0,87.69-18.462,134.42-17.309
			c25.384-12.114,56.538-3.461,83.653-9.808c8.653-6.345,24.808-4.615,36.346-3.46c28.846-11.539,68.653-1.731,95.19-13.27
			c22.5-2.885,45.577,1.153,69.229-2.885c6.346,0,14.423,1.153,11.539,8.654c-7.5,8.653-18.462,13.845-28.27,13.845
			c-20.191,9.231-47.307,0.577-68.075,6.347c-26.538,6.923-56.538,6.923-84.806,12.691c2.307,13.27,1.153,25.385,3.46,36.346
			c1.154,5.77,4.616,9.231,4.039,13.846c2.308,3.462,4.039,7.5,1.154,9.809c-4.039,12.114,3.461,23.652,10.961,34.037
			c39.807,9.808,83.076,12.691,126.345,19.038c25.961,6.923,48.311,3.462,69.655,18.461c2.309,2.309,1.731,4.327,1.731,6.634
			c-4.615,8.078-16.73,9.231-27.115,9.808C1262.455,1278.576,1262.455,1279.73,1262.455,1283.192z M1046.263,1220.599
			c5.769-0.578,21.346,7.498,12.692-6.925c-1.154-10.383-2.885-14.423-5.77-24.807c-1.73-6.346-1.73-15.577-2.884-24.23
			c-0.578-5.191-2.308-9.808-2.885-13.846c-2.308-2.884-4.039-8.077-6.347-12.691c-9.23,2.307-19.615,2.307-28.269,2.307
			c-32.308,8.076-72.115,5.192-106.152,9.808c-17.308,2.309-33.461,8.653-48.461,14.423c34.038,8.077,64.615,25.385,96.921,34.614
			C985.11,1207.905,1017.417,1207.905,1046.263,1220.599z"/>
		<path style="fill:none;stroke:#FF0050;stroke-width:3;" d="M1224.529,959.831c-1.154,15,0,26.538,4.038,35.769
			c0,5.769-2.884,12.115-7.5,14.423c-7.5,12.692,5.77,32.308-15,38.076c-5.191,1.73-11.538-1.73-16.153,2.885
			c-21.923,8.076-30,2.308-50.191,4.038c-16.73,1.153-37.499-8.077-54.229,0.577c-8.654,0-16.731-3.462-24.231-5.192
			c-23.076,8.076-46.73-4.038-69.806,1.73c-16.73,1.154-30.577-5.769-46.153,1.731c-2.885,0.576-8.076,1.153-10.384,2.307
			c-34.038,0-69.806-4.038-103.267,0c-17.885,0-36.923-1.153-53.076-9.23c-7.5-6.923-1.154-19.037,6.346-22.499
			c5.769,0,13.846-1.154,19.039,2.884c9.807-2.884,21.345,2.309,32.307-1.153c7.5,1.731,16.154,2.308,24.808,1.153
			c20.769-11.538,42.115,2.309,63.46,1.154c19.615-1.154,40.385-8.076,60.577-5.769c19.614,1.73,42.692,3.461,62.884,2.307
			c8.076-2.885,14.422,3.462,23.652-4.038c8.077,5.77,16.73,3.462,23.077,7.5c8.076-1.73,15-3.462,25.961-6.923
			c4.615,6.923,11.538,2.885,15,4.615c21.346,0.577,24.808,3.462,45.575-2.885c12.692,5.192,5.77-9.808,16.731-11.538
			c2.307-1.154-2.308-0.576-2.308-1.73c-1.731-8.077,7.499-13.269,3.461-21.346c-2.885-7.5,0-17.885-6.346-24.808
			c-1.154-6.923,0-17.307,9.23-17.307C1213.567,943.101,1214.145,955.793,1224.529,959.831z"/>
		<path style="fill:none;stroke:#FF0050;stroke-width:3;" d="M1068.815,777.701c20.989-2.209,35.902,6.628,51.367,9.942
			c1.105-0.553,3.314,7.732,6.076,0c8.285,4.417,12.151,6.075,15.466,7.18c4.418,2.209,6.628,1.657,10.494,3.866
			c3.314,1.657,7.732,3.313,11.599,3.313c9.942,7.181,24.303,8.838,32.588,14.914c17.674,12.151,41.977,24.854,57.995,42.528
			c10.494,14.362,21.541,23.199,30.93,37.008c-0.552,6.075,4.419,12.15-1.656,19.883c-12.704,1.657-13.809,2.209-17.676-3.866
			c-0.552-0.552-0.552-1.104-1.104-1.657c-2.762,1.105-6.629,2.762-9.39,3.314c-9.942,0-27.617,0-37.56,1.657
			c-4.418-2.762-14.912,1.657-20.436-0.552c-27.616,2.761-60.204,3.866-90.583,0.552c-8.285,3.314-18.227,2.209-25.959,0.552
			c-28.722-0.552-54.681-10.494-79.537-7.732c-18.779-0.552-39.769,4.971-59.652-2.209c-12.704,1.104-28.169-1.657-39.216-1.657
			c-1.657,1.104-2.208,1.657-4.971,2.209c-27.064-3.313-63.518,1.105-90.03-1.657c-11.599-3.313-16.017-19.331,0-20.988
			c54.128-4.971,119.304-6.076,176.194-0.553c13.256-1.104,32.036,1.658,46.949-1.104l2.209,2.209
			c18.228-1.105,33.693,3.313,52.473,6.075c4.971-2.762,7.732-2.209,12.15,0.553c29.826,1.657,70.699-2.762,99.973-0.553
			c16.018-7.732,31.482,4.418,47.5-2.762c2.763-1.656,6.076,0,8.837-1.656l2.21,7.18c-0.552,0-0.552,0.553-3.866,0.553
			c-6.628-13.256-19.331-15.466-24.303-25.407c-1.104-0.553-2.762-2.21-4.971-3.867c0-2.209-1.656-3.313-1.656-3.313
			c-0.553-0.553-1.658,1.104-2.21,0.553c-1.657-2.21-3.866-4.972-3.866-3.314c3.313,0,6.076-3.314,3.866,0
			c-9.941-1.104-9.941-9.942-19.331-9.942c-2.763-4.971-7.733-4.418-10.495-6.627c-5.523-1.657-8.284-7.181-14.36-7.181
			c-8.285-7.18-20.988-6.075-28.722-10.495c-4.418-0.552-6.076-4.97-13.809-5.523c-18.227-10.493-43.081-10.493-63.519-14.912
			c-28.721,0-55.786-5.523-85.059,0c-8.285,0-17.122,3.313-25.407,4.971c-4.971,2.762-11.047,2.21-16.018,5.523
			c-40.873,9.941-81.745,29.826-115.99,56.891c-14.361,7.18-22.646,22.646-37.559,29.825c-16.018,8.286-14.361-9.941-11.046-16.569
			c11.046-16.018,28.168-33.141,44.187-44.739c16.018-11.046,35.349-19.884,51.919-29.826c14.913-6.628,32.588-11.599,45.292-17.121
			c16.57-2.21,20.989-11.6,37.559-9.391c3.314-1.656,7.18-3.314,11.046-2.762c2.209,0,5.523,0,8.285-2.209
			c3.866,0,12.151,0,17.123-1.657C1016.344,774.939,1044.514,772.729,1068.815,777.701z"/>
		<path style="fill:none;stroke:#FF0050;stroke-width:3;" d="M1258.566,635.04c-23.076,16.154-43.846,24.808-65.19,31.153
			c-19.615,14.423-46.153,12.692-65.191,28.846c-7.5,2.308-17.885,7.5-24.23,10.961c-11.538,0-23.076,4.038-32.884,8.653
			c1.73,0,2.885-0.577,4.039-0.577c34.037,0,65.767-5.769,101.535-0.577c10.962,0,21.924-2.885,31.731,1.153
			c17.884,0.577,39.229-3.461,54.807,6.346c1.729,2.308,5.191,5.192,5.191,12.692c-16.153,5.769-36.922,5.769-51.345,4.038
			c-9.23-2.885-20.77,1.153-31.154,1.153c-21.345,0.578-44.999-7.499-64.036,2.308c-17.309,2.308-36.346-6.346-53.077,0
			c-14.999,5.192-33.461-2.885-48.46,4.615c-27.692-4.615-65.191,0.577-95.768-4.615c-34.038,1.154-69.229,4.615-103.267-3.461
			c-17.885,1.153-31.153-6.923-47.884-10.385c-5.192-1.73-6.346-9.807-6.346-16.73c25.384-3.461,37.499-15.576,57.114-23.653
			c27.692-8.077,57.114-8.653,84.229-16.154c39.806,0.578,80.768,5.192,107.306,39.23c46.73-26.538,100.382-31.73,148.267-57.691
			c21.922-6.922,43.846-17.884,65.768-24.807C1238.375,626.386,1249.336,623.502,1258.566,635.04z M867.997,703.692
			c-6.923,2.308-16.154-0.577-23.077,5.77c-6.923-0.577-10.961,0.577-15,1.731c2.884,0.577,5.192,1.153,8.654,1.153
			c6.922,9.23,17.307,4.616,25.961,6.923c38.077-5.192,80.191,0,119.998-0.577c-1.153,0-1.73-0.577-2.307-1.154
			c-16.73-2.885-28.269-15-43.268-21.923C914.726,698.5,889.342,692.154,867.997,703.692z"/>
		<path style="fill:none;stroke:#FF0050;stroke-width:3;" d="M1272.557,417.4c10.385,0.577,22.5,1.73,27.115,9.807
			c0,2.308,0.577,5.769-1.73,8.077c-21.346,14.999-53.076,11.538-79.037,18.46c-43.269,6.347-87.7,5.35-126.345,19.039
			c-17.017,6.028-24.237,22.287-18.353,33.621c3.21,1.827,2.134,6.086,0.396,9.867c1.291,4.468-1.586,8.429-1.822,14.308
			c-0.564,11.187,2.471,22.973,0.164,36.241c28.269,5.769,58.269,5.769,84.806,12.692c20.77,5.769,47.884-2.884,68.076,6.346
			c9.808,0,20.769,5.192,28.27,13.846c2.884,7.5-5.192,8.654-11.538,8.654c-23.654-4.039-46.73,0-69.23-2.885
			c-26.538-11.538-66.345-1.731-95.191-13.269c-11.538,1.154-27.691,2.885-36.346-3.461c-27.115-6.346-58.267,2.308-83.652-9.807
			c-46.729,1.153-72.104-24.523-119.988-24.523c-3.461-1.73-2.885-6.923-7.5-7.5c-16.731-4.616-51.932,9.523-62.316-7.207
			c3.462-12.693,15.577-11.252,24.23-18.174c59.999-12.692,113.652-37.787,173.651-48.748c16.73-8.077,37.5-10.385,55.96-17.884
			c6.923-1.731,14.423-2.884,21.923,0c12.115-3.461,23.653-8.077,35.769-6.923c26.538-1.73,49.614-13.845,77.883-10.961
			c9.808-5.192,21.347-1.73,31.154-4.039c16.729-2.308,32.884-5.769,48.46-9.807c-0.576-0.578-1.154-1.154-1.73-1.731
			c16.154-5.192,27.691-10.385,36.922-6.346C1272.557,418.553,1272.557,419.707,1272.557,417.4z M955.832,500.475
			c-32.307,9.23-62.884,26.538-96.921,34.615c14.999,5.769,31.152,12.115,48.46,14.423c34.039,4.615,73.845,1.731,106.152,9.808
			c8.653,0,19.039,0,28.268,2.307c2.309-4.615,2.506-10.085,3.907-13.503c-0.584-4.037-0.224-8.954-1.134-14.097
			c-1.331-8.628-3.932-17.485-4.059-24.061c-0.159-10.777,0.363-15.14-1.455-25.429c0,0,6.551-1.965,0.781-2.543
			C1010.986,494.687,985.831,491.821,955.832,500.475z"/>
		<path style="fill:none;stroke:#FF0050;stroke-width:3;" d="M1048.415,266.411c23.832,1.787,48.259,7.149,73.283,10.129
			c31.577,3.574,64.942,7.745,93.54,22.044c16.087,15.49,36.344,26.215,48.855,47.068c2.384,12.512,9.533,9.532,7.15,23.832
			c0.596,2.384-1.191-0.595-1.191,6.554c-26.216,2.384-20.258-0.595-30.387-14.3c-10.725,1.788-21.448-3.574-31.577,0.596
			c-48.26-1.787-89.37,1.192-135.247,4.767c-12.512,5.362-29.193,6.554-43.493,3.575c-7.15-2.979-16.683,2.979-25.62,1.192
			c-30.981-0.597-64.347-1.788-94.732,2.382c-23.236,0-46.473,0-68.517,2.383c-8.341-0.596-17.875-4.766-26.215-1.191
			c-1.191,1.191-2.383,1.787-1.191,4.766c-1.788,5.362-6.554,12.512-13.107,13.108c-4.767-0.596-10.725-2.383-13.704-5.958
			c1.191-21.449,13.704-35.152,26.215-50.047c20.853-20.257,48.26-29.79,71.496-47.664c14.299-11.32,33.365-11.917,49.451-18.47
			c20.853-2.979,46.473-1.786,64.943-5.958C1014.454,269.391,1030.541,267.007,1048.415,266.411z M956.661,297.988
			c-22.641-0.596-38.131,8.937-59.58,15.491c-1.787,1.788-6.553,5.958-8.937,7.745c-13.704,10.129-29.194,14.896-40.515,25.62
			c7.15,1.787,14.299,4.767,20.853,1.191c16.683,2.979,31.577-5.958,47.664-5.958c21.448,6.554,44.089,1.192,66.134,4.171
			c20.257,2.383,39.323-3.575,60.176-3.575c38.132-14.299,81.029-4.766,119.161-8.341c15.49-1.787,35.151-2.383,53.025-1.192
			c-8.341-8.34-22.045-11.916-32.173-17.874c-34.557-9.533-68.518-13.703-104.86-18.47c-7.746-1.191-16.088,1.192-23.236-2.979
			C1022.794,295.009,985.259,284.881,956.661,297.988z"/>
		<path style="fill:none;stroke:#FF0050;stroke-width:3;" d="M1132.423,229.703c-41.11,4.171-88.179,1.192-130.481-6.554
			c-33.96,4.17-63.75-11.32-94.733-9.532c-9.532-2.979-20.256,1.787-28.001-5.958c-15.491-2.979-35.749-5.362-49.452-6.554
			c-7.15-4.171-20.257-4.171-23.832-10.129c-2.383-0.596-2.979-8.341-2.979-13.704c-1.192-10.128,9.533-7.148,13.703-13.107
			c14.299-4.17,27.407-12.512,39.919-17.279c12.511-4.766,23.831-11.916,35.748-16.086c8.937-3.575,16.683-5.362,23.832-9.533
			c35.748-10.128,72.687-19.661,108.436-29.194c3.575-2.979,9.533,0,13.107-4.766c0,0,5.362-1.192,5.959-1.192
			c16.086,0,26.811-6.553,42.302-7.149c6.554-1.787,16.086-0.596,22.64-4.766c11.916,0,25.024-2.979,38.132-7.149
			c0,0,0.596,0,0.596,0.596c8.937-4.767,16.683,0,26.215-3.575c3.575,0,11.32-0.596,14.896-1.788c0.596,0,2.979-1.19,3.574-1.19
			c10.129,1.19,22.045-4.767,32.77-2.979c4.766,1.787,8.937,7.745,13.107,16.086c-11.32,3.575-23.236,7.149-31.577,8.341
			c-15.491-1.787-28.599,7.15-42.302,8.341c-7.149,3.575-17.278,1.788-26.216,8.342c-7.149-5.362-13.106,1.787-18.47,0.596
			c-8.341,2.383-19.661,4.17-30.386,4.767c-7.149,4.169-16.682,2.382-25.023,5.958c2.383,5.361,4.767,11.32,7.746,16.682
			c2.383,2.979,12.511,14.299,17.873,20.853c4.171,5.362,3.575,7.15,5.362,9.533c4.17,4.766,1.191-0.595,4.17,1.191
			c4.768,2.979,14.3,12.512,21.449,20.853c4.172,2.383,4.767,8.937,6.554,8.937c3.575,2.979,7.15,11.32,11.917,11.32
			c14.299,7.15,33.364,2.384,49.451,4.171c8.937-3.576,19.064-3.576,28.599-0.597c2.979-1.787,7.149,0.597,10.128-4.766
			c9.533,0,17.278-7.15,23.832,0.595c2.979,5.363,6.554,13.107,4.171,18.47c-5.958,4.171-9.533,7.15-16.683,7.15
			c-5.361,1.191-9.533-1.192-13.107,1.191C1194.981,230.299,1162.809,226.724,1132.423,229.703z M1085.95,201.701
			c3.574-0.596,8.937-0.596,13.106-1.192c-1.787-1.787-4.17-2.979-4.17-3.575c-3.574-4.17-9.532-7.745-14.895-13.703
			c-5.958-7.746-10.129-16.087-15.491-21.449c-8.937-8.342-12.513-9.532-17.874-17.874c-3.575-9.533-10.725-17.278-14.299-26.215
			c-5.958-0.596-2.979,2.383-10.129,2.979c-15.491,2.979-31.577,13.107-44.089,11.916c-10.128,1.788-22.64,5.362-33.961,8.341
			c-16.086,4.767-31.577,11.321-47.664,16.683c-11.32,4.17-22.044,10.724-34.556,14.895c-1.191,0-4.766,1.787-8.341,3.575
			c11.916,2.383,25.62,5.958,39.918,8.341c11.916,2.383,25.619,2.383,34.556,3.575c13.704-0.596,24.428,7.15,38.131,4.766
			c13.107,1.191,28.598,6.554,42.897,4.767c11.32-1.787,23.237,5.362,30.982,1.787
			C1056.16,200.509,1070.459,202.892,1085.95,201.701z"/>
	</g>
	<path style="fill:none;stroke:#17192D;stroke-width:3;" d="M2048,0"/>
	<path style="fill:none;stroke:#17192D;stroke-width:3;" d="M2048,1536"/>
	<path style="fill:none;stroke:#17192D;stroke-width:3;" d="M0,1536"/>
	<path style="fill:none;stroke:#17192D;stroke-width:3;" d="M0,0"/>
</g>
<g id="Layer_1">
</g>
</svg>
