<svg xmlns="http://www.w3.org/2000/svg" width="2048" height="1536" viewBox="0 0 2048 1536"><g fill="none" stroke="#17192D" stroke-width="3"><path d="M871.664 1272.27c27.54 5.77 65.852 1.73 92.79 15.576 50.287 2.885 98.778 18.46 147.868 31.153 33.524 16.73 72.437 23.075 106.56 37.5 10.774 6.345 19.156 14.998 25.74 24.23 4.79 6.92 14.368 1.73 17.96 11.537 1.197 3.46-2.993 1.73-2.993 8.653-45.498 8.654-80.818 31.152-124.52 34.615-41.905-1.154-80.22 13.845-121.526 12.115-17.96 4.614-36.518 1.153-54.477 3.46-29.932 7.5-55.076-2.307-85.607 2.31-8.98-2.885-19.755 5.19-28.735.575-8.38 2.31-17.96-6.345-26.94 1.154-13.17-1.73-25.142 0-34.122-7.5 2.993-20.19 23.946-11.538 37.116-16.73 39.51-4.616 77.225 2.308 116.138-5.77 41.905-4.038 89.198-3.46 134.696-8.654 8.382-5.19 20.952-2.307 29.933-8.076 41.307 4.038 74.83-10.962 111.947-20.77-4.19-4.615-11.374-5.19-16.763-7.5-37.714-15.576-76.027-28.268-116.734-39.23-31.13-8.075-62.86-9.23-92.192-22.498-25.743-6.923-53.878-6.347-77.825-17.308-30.53-2.31-61.66-2.31-86.805-17.885-3.592-2.308-2.994-8.077-2.994-11.54 4.79-8.653 10.777-5.19 16.763-3.46 10.776-1.154 23.347 1.73 34.72 4.04zM1231.693 952.97c-1.154 15 0 26.537 4.04 35.768 0 5.77-2.886 12.115-7.5 14.423-7.5 12.693 5.77 32.31-15 38.078-5.192 1.73-11.54-1.73-16.155 2.884-21.922 8.076-30 2.308-50.19 4.04-16.73 1.152-37.5-8.078-54.23.575-8.653 0-16.73-3.46-24.23-5.192-23.076 8.077-46.73-4.038-69.806 1.73-16.73 1.154-30.577-5.77-46.154 1.73-2.884.578-8.076 1.155-10.384 2.31-34.038 0-69.806-4.04-103.267 0-17.885 0-36.923-1.154-53.076-9.23-7.5-6.924-1.153-19.04 6.347-22.5 5.77 0 13.846-1.154 19.038 2.884 9.808-2.886 21.346 2.307 32.307-1.154 7.5 1.73 16.154 2.308 24.807 1.153 20.768-11.54 42.114 2.307 63.46 1.153 19.614-1.154 40.383-8.077 60.575-5.77 19.615 1.73 42.692 3.462 62.884 2.308 8.076-2.884 14.422 3.463 23.652-4.037 8.077 5.77 16.73 3.46 23.077 7.5 8.075-1.73 15-3.462 25.96-6.924 4.615 6.923 11.537 2.884 15 4.615 21.346.576 24.807 3.46 45.575-2.885 12.692 5.192 5.77-9.808 16.73-11.538 2.308-1.154-2.308-.577-2.308-1.73-1.73-8.077 7.5-13.27 3.462-21.347-2.886-7.5 0-17.885-6.347-24.807-1.154-6.923 0-17.308 9.23-17.308 11.54-3.46 12.117 9.23 22.5 13.27zM1265.73 628.178c-23.075 16.154-43.845 24.808-65.19 31.153-19.614 14.424-46.152 12.693-65.19 28.847-7.5 2.308-17.885 7.5-24.23 10.96-11.538 0-23.076 4.04-32.885 8.654 1.73 0 2.885-.576 4.04-.576 34.036 0 65.767-5.77 101.535-.577 10.962 0 21.923-2.885 31.73 1.153 17.884.577 39.23-3.46 54.808 6.346 1.73 2.308 5.19 5.192 5.19 12.692-16.153 5.77-36.92 5.77-51.344 4.038-9.23-2.885-20.77 1.153-31.154 1.153-21.345.577-45-7.5-64.037 2.307-17.308 2.308-36.345-6.346-53.076 0-15 5.192-33.46-2.885-48.46 4.615-27.693-4.615-65.192.577-95.77-4.615-34.037 1.154-69.228 4.615-103.266-3.46-17.884 1.152-31.152-6.924-47.883-10.386-5.192-1.73-6.346-9.806-6.346-16.73 25.385-3.46 37.5-15.575 57.115-23.652 27.692-8.077 57.114-8.654 84.23-16.154 39.806.578 80.767 5.192 107.305 39.23 46.73-26.538 100.382-31.73 148.266-57.69 21.923-6.923 43.846-17.885 65.77-24.808 8.654-1.152 19.614-4.036 28.845 7.502zM875.163 696.83c-6.924 2.31-16.154-.576-23.077 5.77-6.923-.577-10.962.577-15 1.73 2.885.578 5.192 1.154 8.654 1.154 6.922 9.23 17.306 4.616 25.96 6.923 38.077-5.192 80.19 0 119.998-.578-1.154 0-1.73-.578-2.307-1.154-16.73-2.885-28.268-15-43.268-21.923-24.23 2.885-49.615-3.46-70.96 8.078zM1055.58 259.55c23.832 1.786 48.26 7.15 73.283 10.128 31.576 3.575 64.94 7.745 93.54 22.045 16.087 15.49 36.344 26.215 48.855 47.067 2.384 12.513 9.533 9.533 7.15 23.833.595 2.384-1.192-.595-1.192 6.553-26.215 2.384-20.257-.595-30.386-14.3-10.725 1.79-21.448-3.573-31.578.597-48.26-1.787-89.37 1.192-135.246 4.767-12.512 5.362-29.193 6.554-43.493 3.575-7.15-2.98-16.683 2.98-25.62 1.192-30.98-.597-64.347-1.788-94.732 2.382-23.235 0-46.472 0-68.517 2.382-8.34-.596-17.874-4.765-26.215-1.19-1.192 1.19-2.383 1.787-1.192 4.766-1.787 5.362-6.554 12.512-13.107 13.108-4.768-.596-10.726-2.383-13.705-5.958 1.192-21.45 13.704-35.153 26.215-50.047 20.853-20.256 48.26-29.79 71.496-47.663 14.3-11.32 33.365-11.917 49.45-18.47 20.854-2.98 46.474-1.787 64.943-5.958 16.09 4.168 32.175 1.786 50.05 1.19zm-91.754 31.576c-22.64-.596-38.13 8.937-59.58 15.49-1.787 1.788-6.554 5.96-8.937 7.746-13.705 10.13-29.195 14.896-40.516 25.62 7.15 1.787 14.3 4.767 20.854 1.19 16.683 2.98 31.577-5.957 47.664-5.957 21.448 6.553 44.09 1.19 66.133 4.17 20.257 2.383 39.323-3.575 60.176-3.575 38.133-14.3 81.03-4.767 119.16-8.34 15.492-1.788 35.153-2.384 53.026-1.193-8.34-8.34-22.044-11.916-32.172-17.874-34.557-9.532-68.518-13.703-104.86-18.47-7.747-1.19-16.088 1.19-23.237-2.98-31.578 1.194-69.113-8.934-97.71 4.173zM1269.62 1276.33c-9.23 4.038-11.39-1.153-27.542-6.347l1.73-1.73c-15.576-4.038-31.73-6.057-48.46-8.363-9.81-2.31-21.347 1.153-31.153-4.04-28.27 2.885-51.346-9.23-77.884-10.96-12.114 1.153-23.652-3.463-35.768-6.923-7.5 2.884-15 1.73-21.922 0-18.462-7.5-39.23-9.808-55.96-17.886-60-10.96-113.653-37.498-173.653-50.19-8.653-6.922-20.77-4.037-24.23-16.73 10.385-16.73 31.153-9.808 47.884-14.423 4.616-.576 4.04-5.77 7.5-7.498 47.885 0 87.69-18.464 134.42-17.31 25.385-12.115 56.54-3.46 83.654-9.808 8.653-6.346 24.808-4.616 36.346-3.46 28.845-11.54 68.653-1.73 95.19-13.27 22.5-2.885 45.576 1.153 69.23-2.885 6.345 0 14.422 1.153 11.537 8.653-7.5 8.653-18.46 13.846-28.27 13.846-20.19 9.23-47.306.577-68.074 6.346-26.538 6.923-56.538 6.923-84.807 12.692 2.308 13.27 1.154 25.385 3.46 36.346 1.155 5.77 4.616 9.23 4.04 13.845 2.308 3.462 4.04 7.5 1.154 9.81-4.04 12.113 3.46 23.652 10.96 34.036 39.808 9.81 83.077 12.693 126.345 19.04 25.96 6.923 48.31 3.462 69.656 18.46 2.31 2.31 1.73 4.327 1.73 6.635-4.614 8.077-16.728 9.23-27.113 9.807.003-2.307.003-1.154.003 2.308zm-216.192-62.594c5.77-.577 21.346 7.5 12.692-6.924-1.154-10.384-2.885-14.423-5.77-24.808-1.73-6.345-1.73-15.576-2.884-24.23-.578-5.19-2.31-9.807-2.885-13.845-2.308-2.886-4.038-8.08-6.346-12.692-9.23 2.307-19.614 2.307-28.27 2.307-32.306 8.076-72.113 5.19-106.15 9.807-17.308 2.31-33.462 8.654-48.46 14.423 34.037 8.078 64.613 25.386 96.92 34.615 30 8.653 62.308 8.653 91.154 21.346zM1075.98 770.84c20.99-2.21 35.902 6.627 51.367 9.94 1.105-.552 3.314 7.733 6.076 0 8.285 4.42 12.15 6.076 15.465 7.18 4.42 2.21 6.63 1.658 10.495 3.867 3.313 1.658 7.732 3.314 11.6 3.314 9.94 7.182 24.302 8.838 32.587 14.914 17.674 12.15 41.977 24.855 57.994 42.53 10.495 14.36 21.54 23.197 30.93 37.006-.55 6.075 4.42 12.15-1.656 19.884-12.703 1.657-13.808 2.21-17.675-3.866-.552-.553-.552-1.105-1.104-1.657-2.763 1.105-6.63 2.762-9.39 3.315-9.943 0-27.618 0-37.56 1.656-4.42-2.76-14.914 1.658-20.438-.55-27.615 2.76-60.203 3.865-90.582.55-8.285 3.315-18.227 2.21-25.96.554-28.72-.553-54.68-10.495-79.536-7.732-18.78-.553-39.77 4.97-59.652-2.21-12.705 1.105-28.17-1.656-39.216-1.656-1.656 1.104-2.208 1.656-4.97 2.21-27.064-3.315-63.518 1.103-90.03-1.658-11.6-3.314-16.018-19.33 0-20.99 54.127-4.97 119.303-6.074 176.193-.55 13.256-1.105 32.035 1.656 46.948-1.105l2.21 2.21c18.227-1.105 33.692 3.313 52.47 6.074 4.972-2.76 7.734-2.21 12.152.554 29.826 1.657 70.7-2.762 99.972-.553 16.02-7.732 31.483 4.42 47.5-2.76 2.764-1.658 6.076 0 8.838-1.658l2.21 7.18c-.552 0-.552.552-3.866.552-6.628-13.256-19.33-15.465-24.303-25.406-1.103-.553-2.76-2.21-4.97-3.867 0-2.21-1.656-3.315-1.656-3.315-.553-.552-1.658 1.105-2.21.553-1.657-2.21-3.866-4.97-3.866-3.313 3.313 0 6.076-3.314 3.866 0-9.942-1.104-9.942-9.942-19.332-9.942-2.762-4.97-7.733-4.418-10.494-6.628-5.523-1.657-8.284-7.18-14.36-7.18-8.285-7.18-20.988-6.076-28.722-10.495-4.42-.553-6.076-4.97-13.81-5.523-18.226-10.494-43.08-10.494-63.518-14.912-28.72 0-55.786-5.524-85.06 0-8.285 0-17.122 3.313-25.407 4.97-4.97 2.763-11.045 2.21-16.017 5.524-40.873 9.94-81.745 29.825-115.99 56.89-14.36 7.18-22.646 22.645-37.558 29.825-16.018 8.285-14.36-9.94-11.047-16.57 11.047-16.017 28.17-33.14 44.187-44.738 16.018-11.047 35.35-19.885 51.92-29.827 14.912-6.627 32.587-11.6 45.29-17.12 16.57-2.21 20.99-11.6 37.56-9.392 3.313-1.656 7.18-3.313 11.046-2.762 2.21 0 5.524 0 8.286-2.208 3.866 0 12.152 0 17.123-1.657 23.2-2.213 51.37-4.422 75.67.55zM1279.722 410.538c10.385.577 22.5 1.73 27.114 9.807 0 2.308.578 5.77-1.73 8.077-21.346 15-53.075 11.538-79.036 18.46-43.27 6.348-87.7 5.35-126.345 19.04-17.018 6.028-24.237 22.287-18.353 33.62 3.21 1.83 2.134 6.088.396 9.868 1.292 4.468-1.586 8.43-1.82 14.308-.565 11.187 2.47 22.973.163 36.24 28.27 5.77 58.27 5.77 84.807 12.693 20.77 5.77 47.884-2.883 68.076 6.347 9.808 0 20.77 5.192 28.27 13.846 2.884 7.5-5.193 8.654-11.54 8.654-23.652-4.04-46.73 0-69.228-2.885-26.538-11.538-66.345-1.73-95.19-13.27-11.54 1.155-27.692 2.885-36.347-3.46-27.115-6.346-58.268 2.308-83.652-9.807-46.73 1.154-72.105-24.523-119.99-24.523-3.46-1.73-2.883-6.923-7.498-7.5-16.73-4.616-51.932 9.523-62.317-7.207 3.463-12.693 15.578-11.252 24.232-18.174 60-12.692 113.652-37.786 173.65-48.747 16.73-8.077 37.5-10.385 55.96-17.884 6.924-1.732 14.424-2.886 21.924 0 12.115-3.462 23.653-8.078 35.77-6.924 26.537-1.73 49.613-13.845 77.882-10.96 9.808-5.192 21.346-1.73 31.154-4.04 16.73-2.307 32.883-5.768 48.46-9.806-.576-.578-1.154-1.154-1.73-1.73 16.153-5.193 27.69-10.386 36.922-6.347-.002 3.458-.002 4.612-.002 2.305zm-316.725 83.075c-32.308 9.23-62.884 26.538-96.92 34.615 14.998 5.77 31.152 12.115 48.46 14.423 34.038 4.616 73.844 1.732 106.152 9.81 8.653 0 19.038 0 28.267 2.306 2.31-4.615 2.506-10.085 3.907-13.503-.584-4.037-.224-8.954-1.134-14.098-1.33-8.628-3.933-17.484-4.06-24.06-.158-10.778.363-15.14-1.455-25.43 0 0 6.55-1.966.782-2.543-28.846 12.693-54 9.827-84 18.48zM1139.587 222.84c-41.11 4.172-88.18 1.193-130.48-6.553-33.96 4.17-63.75-11.32-94.732-9.533-9.533-2.98-20.257 1.788-28.002-5.958-15.49-2.98-35.75-5.362-49.452-6.554-7.15-4.17-20.256-4.17-23.83-10.13-2.384-.595-2.98-8.34-2.98-13.703-1.192-10.13 9.532-7.15 13.703-13.108 14.3-4.17 27.408-12.512 39.92-17.28 12.51-4.765 23.83-11.915 35.747-16.085 8.937-3.575 16.683-5.362 23.832-9.533C959.06 104.277 996 94.744 1031.75 85.21c3.573-2.98 9.53 0 13.105-4.766 0 0 5.362-1.192 5.96-1.192 16.085 0 26.81-6.554 42.3-7.15 6.554-1.787 16.087-.595 22.64-4.766 11.917 0 25.025-2.98 38.132-7.15 0 0 .597 0 .597.597 8.937-4.767 16.682 0 26.215-3.575 3.574 0 11.32-.596 14.895-1.788.596 0 2.98-1.19 3.574-1.19 10.127 1.19 22.044-4.768 32.768-2.98 4.767 1.787 8.938 7.744 13.108 16.086-11.32 3.575-23.237 7.15-31.577 8.34-15.492-1.785-28.6 7.15-42.304 8.342-7.148 3.575-17.278 1.788-26.215 8.34-7.148-5.36-13.106 1.788-18.47.597-8.34 2.383-19.66 4.17-30.385 4.767-7.15 4.17-16.682 2.382-25.023 5.958 2.383 5.36 4.767 11.32 7.746 16.682 2.383 2.98 12.51 14.3 17.873 20.853 4.17 5.362 3.575 7.15 5.363 9.533 4.17 4.766 1.19-.595 4.17 1.19 4.768 2.98 14.3 12.513 21.45 20.855 4.17 2.383 4.766 8.937 6.553 8.937 3.575 2.98 7.15 11.32 11.916 11.32 14.3 7.15 33.365 2.384 49.452 4.17 8.937-3.575 19.064-3.575 28.598-.596 2.98-1.787 7.15.597 10.13-4.766 9.532 0 17.277-7.15 23.83.595 2.98 5.363 6.555 13.107 4.172 18.47-5.96 4.17-9.533 7.15-16.684 7.15-5.36 1.19-9.532-1.192-13.107 1.19-30.387 4.174-62.56.6-92.946 3.578zm-46.472-28c3.574-.597 8.937-.597 13.106-1.193-1.786-1.787-4.17-2.98-4.17-3.575-3.574-4.17-9.532-7.745-14.894-13.703-5.958-7.746-10.13-16.088-15.49-21.45-8.94-8.342-12.514-9.533-17.875-17.875-3.574-9.532-10.724-17.277-14.3-26.214-5.956-.595-2.978 2.384-10.128 2.98-15.49 2.98-31.577 13.107-44.09 11.916-10.127 1.788-22.64 5.362-33.96 8.34-16.086 4.768-31.576 11.32-47.663 16.684-11.32 4.17-22.046 10.724-34.557 14.896-1.192 0-4.766 1.786-8.34 3.574 11.915 2.383 25.62 5.958 39.917 8.34 11.917 2.384 25.62 2.384 34.556 3.576 13.704-.596 24.43 7.15 38.132 4.766 13.107 1.192 28.598 6.554 42.897 4.766 11.32-1.787 23.236 5.362 30.982 1.788 16.087 1.19 30.387 3.574 45.878 2.383zM2048 0M2048 1536M0 1536M0 0"/></g></svg>