<svg xmlns="http://www.w3.org/2000/svg" width="2048" height="1536" viewBox="0 0 2048 1536"><g fill="none" stroke-width="3"><g stroke="#FF0050"><path d="M864.5 1279.132c27.538 5.77 65.852 1.73 92.79 15.576 50.287 2.885 98.778 18.46 147.868 31.152 33.524 16.73 72.437 23.076 106.56 37.5 10.774 6.346 19.156 15 25.74 24.23 4.79 6.923 14.37 1.73 17.96 11.538 1.197 3.46-2.992 1.73-2.992 8.654-45.498 8.653-80.818 31.152-124.52 34.614-41.904-1.153-80.22 13.846-121.526 12.116-17.96 4.613-36.517 1.153-54.477 3.46-29.932 7.5-55.076-2.307-85.607 2.31-8.98-2.886-19.755 5.19-28.735.575-8.38 2.31-17.957-6.345-26.938 1.153-13.17-1.73-25.143 0-34.123-7.498 2.992-20.192 23.945-11.54 37.115-16.73 39.51-4.617 77.226 2.308 116.14-5.77 41.904-4.04 89.197-3.46 134.695-8.654 8.382-5.19 20.952-2.308 29.933-8.076 41.307 4.038 74.832-10.962 111.947-20.77-4.19-4.615-11.374-5.19-16.763-7.5-37.715-15.576-76.028-28.27-116.735-39.23-31.13-8.076-62.86-9.23-92.192-22.5-25.743-6.922-53.878-6.346-77.825-17.306-30.53-2.31-61.66-2.31-86.803-17.886-3.593-2.307-2.994-8.076-2.994-11.538 4.79-8.653 10.776-5.19 16.763-3.462 10.774-1.152 23.345 1.733 34.72 4.042zM1262.455 1283.192c-9.23 4.038-11.39-1.153-27.542-6.347l1.73-1.73c-15.576-4.04-31.73-6.057-48.46-8.364-9.81-2.308-21.347 1.154-31.153-4.038-28.27 2.884-51.346-9.23-77.884-10.96-12.115 1.152-23.653-3.463-35.77-6.924-7.498 2.885-14.998 1.73-21.92 0-18.463-7.5-39.23-9.808-55.962-17.885-60-10.96-113.652-37.5-173.65-50.19-8.655-6.923-20.77-4.04-24.23-16.73 10.384-16.73 31.152-9.81 47.883-14.424 4.616-.577 4.038-5.77 7.5-7.5 47.884 0 87.69-18.462 134.42-17.31 25.384-12.113 56.538-3.46 83.653-9.807 8.653-6.345 24.808-4.615 36.346-3.46 28.846-11.54 68.653-1.73 95.19-13.27 22.5-2.885 45.577 1.153 69.23-2.885 6.345 0 14.422 1.153 11.538 8.654-7.5 8.653-18.462 13.845-28.27 13.845-20.19 9.23-47.307.577-68.075 6.347-26.54 6.923-56.54 6.923-84.807 12.69 2.307 13.27 1.153 25.386 3.46 36.347 1.154 5.77 4.616 9.232 4.04 13.847 2.307 3.462 4.038 7.5 1.153 9.81-4.04 12.113 3.46 23.65 10.96 34.036 39.808 9.808 83.077 12.69 126.346 19.038 25.96 6.924 48.31 3.463 69.655 18.462 2.31 2.31 1.73 4.327 1.73 6.634-4.614 8.078-16.73 9.23-27.114 9.808.002-2.308.002-1.154.002 2.308zm-216.192-62.593c5.77-.58 21.346 7.497 12.692-6.926-1.154-10.383-2.885-14.423-5.77-24.807-1.73-6.346-1.73-15.577-2.884-24.23-.577-5.19-2.307-9.808-2.884-13.846-2.308-2.883-4.04-8.076-6.347-12.69-9.23 2.307-19.616 2.307-28.27 2.307-32.308 8.076-72.115 5.192-106.152 9.808-17.308 2.31-33.46 8.653-48.46 14.423 34.037 8.077 64.614 25.385 96.92 34.614 30.002 8.653 62.31 8.653 91.155 21.347zM1224.53 959.83c-1.155 15 0 26.54 4.037 35.77 0 5.77-2.884 12.115-7.5 14.423-7.5 12.692 5.77 32.308-15 38.076-5.19 1.73-11.538-1.73-16.153 2.884-21.923 8.076-30 2.308-50.19 4.038-16.73 1.153-37.5-8.077-54.23.577-8.654 0-16.73-3.463-24.23-5.193-23.077 8.076-46.73-4.038-69.807 1.73-16.73 1.154-30.577-5.77-46.153 1.73-2.885.577-8.076 1.154-10.384 2.308-34.038 0-69.806-4.038-103.267 0-17.885 0-36.923-1.153-53.076-9.23-7.5-6.923-1.154-19.037 6.346-22.5 5.77 0 13.846-1.153 19.04 2.885 9.806-2.884 21.344 2.31 32.306-1.153 7.5 1.73 16.153 2.308 24.807 1.153 20.77-11.538 42.115 2.31 63.46 1.154 19.615-1.154 40.385-8.076 60.577-5.77 19.614 1.73 42.692 3.462 62.884 2.308 8.076-2.885 14.422 3.462 23.652-4.038 8.077 5.77 16.73 3.462 23.077 7.5 8.076-1.73 15-3.462 25.96-6.923 4.616 6.924 11.54 2.886 15 4.616 21.347.577 24.81 3.462 45.576-2.885 12.692 5.193 5.77-9.807 16.73-11.537 2.308-1.154-2.307-.576-2.307-1.73-1.73-8.077 7.5-13.27 3.46-21.346-2.884-7.5 0-17.885-6.345-24.808-1.153-6.924 0-17.308 9.23-17.308 11.537-3.46 12.115 9.23 22.5 13.27zM1068.815 777.7c20.99-2.208 35.902 6.63 51.367 9.943 1.105-.553 3.314 7.732 6.076 0 8.285 4.417 12.15 6.075 15.466 7.18 4.418 2.21 6.628 1.657 10.494 3.866 3.314 1.656 7.732 3.312 11.6 3.312 9.94 7.18 24.302 8.838 32.587 14.914 17.674 12.15 41.977 24.854 57.995 42.528 10.494 14.362 21.54 23.2 30.93 37.008-.552 6.075 4.42 12.15-1.656 19.883-12.704 1.657-13.81 2.21-17.676-3.866-.552-.553-.552-1.105-1.104-1.658-2.762 1.105-6.63 2.762-9.39 3.314-9.942 0-27.617 0-37.56 1.657-4.418-2.762-14.912 1.657-20.436-.552-27.616 2.762-60.204 3.867-90.583.553-8.285 3.314-18.227 2.21-25.96.552-28.72-.552-54.68-10.494-79.536-7.732-18.78-.552-39.77 4.97-59.653-2.21-12.704 1.105-28.17-1.656-39.216-1.656-1.656 1.104-2.207 1.657-4.97 2.21-27.064-3.314-63.518 1.104-90.03-1.658-11.6-3.314-16.017-19.332 0-20.99 54.128-4.97 119.304-6.075 176.194-.552 13.256-1.104 32.036 1.658 46.95-1.104l2.208 2.21c18.228-1.106 33.693 3.312 52.473 6.074 4.97-2.762 7.732-2.21 12.15.553 29.826 1.658 70.7-2.76 99.973-.552 16.018-7.732 31.482 4.418 47.5-2.762 2.763-1.656 6.076 0 8.837-1.656l2.21 7.18c-.552 0-.552.553-3.866.553-6.63-13.256-19.332-15.466-24.304-25.407-1.104-.553-2.762-2.21-4.97-3.867 0-2.21-1.657-3.314-1.657-3.314-.554-.553-1.66 1.104-2.21.553-1.658-2.21-3.867-4.973-3.867-3.315 3.313 0 6.076-3.314 3.866 0-9.942-1.104-9.942-9.942-19.332-9.942-2.763-4.97-7.733-4.418-10.495-6.627-5.523-1.657-8.284-7.18-14.36-7.18-8.285-7.18-20.988-6.076-28.722-10.496-4.417-.552-6.075-4.97-13.808-5.523-18.227-10.493-43.08-10.493-63.52-14.912-28.72 0-55.785-5.523-85.058 0-8.285 0-17.122 3.313-25.407 4.97-4.97 2.763-11.047 2.21-16.018 5.524-40.874 9.94-81.746 29.825-115.99 56.89-14.362 7.18-22.647 22.646-37.56 29.825-16.018 8.286-14.36-9.94-11.046-16.57 11.046-16.017 28.168-33.14 44.187-44.738 16.02-11.046 35.35-19.884 51.92-29.826 14.913-6.627 32.588-11.598 45.292-17.12 16.57-2.21 20.99-11.6 37.56-9.39 3.313-1.657 7.18-3.315 11.045-2.763 2.21 0 5.523 0 8.285-2.21 3.866 0 12.15 0 17.123-1.656 23.2-2.21 51.37-4.42 75.67.55zM1258.566 635.04c-23.076 16.154-43.846 24.808-65.19 31.153-19.615 14.423-46.153 12.692-65.19 28.846-7.5 2.307-17.886 7.5-24.23 10.96-11.54 0-23.077 4.038-32.885 8.653 1.73 0 2.886-.577 4.04-.577 34.037 0 65.767-5.77 101.535-.577 10.962 0 21.924-2.886 31.73 1.152 17.885.577 39.23-3.46 54.808 6.346 1.73 2.308 5.19 5.192 5.19 12.692-16.152 5.77-36.92 5.77-51.344 4.038-9.23-2.885-20.77 1.153-31.155 1.153-21.345.58-45-7.498-64.036 2.31-17.31 2.307-36.347-6.347-53.078 0-15 5.19-33.46-2.886-48.46 4.614-27.692-4.615-65.19.577-95.768-4.615-34.038 1.153-69.23 4.614-103.267-3.462-17.885 1.153-31.153-6.923-47.884-10.385-5.192-1.73-6.346-9.807-6.346-16.73 25.384-3.46 37.5-15.576 57.114-23.653 27.693-8.077 57.115-8.653 84.23-16.154 39.806.578 80.768 5.192 107.306 39.23 46.73-26.538 100.382-31.73 148.267-57.69 21.922-6.923 43.846-17.885 65.768-24.808 8.655-1.152 19.616-4.036 28.846 7.502zm-390.57 68.652c-6.922 2.308-16.153-.577-23.076 5.77-6.923-.577-10.96.577-15 1.73 2.884.578 5.192 1.154 8.654 1.154 6.922 9.23 17.307 4.616 25.96 6.923 38.078-5.193 80.192 0 120-.578-1.154 0-1.73-.577-2.308-1.154-16.73-2.885-28.27-15-43.268-21.923-24.232 2.885-49.616-3.46-70.96 8.077zM1272.557 417.4c10.385.577 22.5 1.73 27.115 9.807 0 2.308.577 5.77-1.73 8.077-21.346 15-53.076 11.538-79.037 18.46-43.27 6.347-87.7 5.35-126.345 19.04-17.017 6.027-24.237 22.286-18.353 33.62 3.21 1.827 2.134 6.086.396 9.867 1.29 4.47-1.586 8.43-1.822 14.31-.563 11.186 2.472 22.972.165 36.24 28.27 5.77 58.27 5.77 84.806 12.692 20.77 5.77 47.885-2.884 68.077 6.346 9.808 0 20.77 5.192 28.27 13.846 2.884 7.5-5.192 8.654-11.538 8.654-23.655-4.04-46.73 0-69.23-2.885-26.54-11.538-66.346-1.73-95.192-13.27-11.538 1.155-27.69 2.886-36.346-3.46-27.115-6.346-58.267 2.308-83.652-9.807-46.73 1.153-72.104-24.523-119.988-24.523-3.46-1.73-2.885-6.923-7.5-7.5-16.73-4.616-51.932 9.523-62.316-7.207 3.462-12.693 15.577-11.252 24.23-18.174 60-12.692 113.652-37.787 173.65-48.748 16.73-8.077 37.5-10.385 55.96-17.884 6.924-1.73 14.424-2.884 21.924 0 12.115-3.46 23.653-8.077 35.77-6.923 26.537-1.73 49.613-13.845 77.882-10.96 9.808-5.193 21.347-1.73 31.154-4.04 16.73-2.308 32.884-5.77 48.46-9.807-.576-.578-1.154-1.154-1.73-1.73 16.154-5.193 27.69-10.386 36.922-6.347v2.307zm-316.725 83.075c-32.307 9.23-62.884 26.538-96.92 34.615 14.998 5.77 31.15 12.115 48.46 14.423 34.038 4.615 73.844 1.73 106.15 9.808 8.654 0 19.04 0 28.27 2.308 2.308-4.615 2.505-10.085 3.906-13.503-.584-4.037-.224-8.954-1.134-14.097-1.33-8.628-3.932-17.485-4.06-24.06-.158-10.778.364-15.14-1.454-25.43 0 0 6.55-1.965.78-2.543-28.844 12.692-54 9.826-83.998 18.48zM1048.415 266.41c23.832 1.788 48.26 7.15 73.283 10.13 31.577 3.574 64.942 7.745 93.54 22.044 16.087 15.49 36.344 26.215 48.855 47.068 2.384 12.512 9.533 9.532 7.15 23.832.596 2.384-1.19-.595-1.19 6.554-26.217 2.384-20.26-.595-30.388-14.3-10.725 1.788-21.448-3.574-31.577.596-48.26-1.787-89.37 1.192-135.247 4.767-12.51 5.363-29.192 6.555-43.492 3.576-7.15-2.98-16.683 2.98-25.62 1.192-30.98-.597-64.347-1.788-94.732 2.382-23.236 0-46.473 0-68.517 2.383-8.342-.596-17.876-4.766-26.216-1.19-1.19 1.19-2.383 1.786-1.19 4.765-1.79 5.362-6.555 12.512-13.108 13.108-4.767-.596-10.725-2.383-13.704-5.958 1.19-21.45 13.704-35.152 26.215-50.047 20.853-20.256 48.26-29.79 71.496-47.663 14.3-11.32 33.365-11.917 49.45-18.47 20.854-2.98 46.474-1.786 64.944-5.958 16.087 4.17 32.174 1.787 50.048 1.19zM956.66 297.99c-22.64-.596-38.13 8.937-59.58 15.49-1.786 1.79-6.552 5.96-8.936 7.746-13.704 10.13-29.194 14.896-40.515 25.62 7.15 1.787 14.298 4.767 20.852 1.19 16.683 2.98 31.577-5.957 47.664-5.957 21.448 6.554 44.09 1.192 66.134 4.17 20.257 2.384 39.323-3.574 60.176-3.574 38.132-14.3 81.03-4.766 119.16-8.34 15.49-1.788 35.152-2.384 53.026-1.193-8.34-8.34-22.045-11.916-32.173-17.874-34.558-9.533-68.52-13.703-104.86-18.47-7.747-1.19-16.09 1.192-23.237-2.98-31.58 1.193-69.114-8.935-97.712 4.172zM1132.423 229.703c-41.11 4.17-88.18 1.192-130.48-6.554-33.96 4.17-63.75-11.32-94.734-9.533-9.533-2.98-20.257 1.787-28.002-5.958-15.49-2.98-35.75-5.363-49.452-6.555-7.15-4.17-20.257-4.17-23.832-10.13-2.383-.595-2.98-8.34-2.98-13.703-1.19-10.128 9.534-7.148 13.704-13.107 14.3-4.17 27.407-12.512 39.92-17.28 12.51-4.765 23.83-11.915 35.747-16.085 8.937-3.575 16.683-5.362 23.832-9.533 35.748-10.128 72.687-19.66 108.436-29.194 3.575-2.98 9.533 0 13.107-4.766 0 0 5.362-1.192 5.96-1.192 16.085 0 26.81-6.553 42.3-7.15 6.555-1.786 16.087-.595 22.64-4.765 11.917 0 25.025-2.98 38.133-7.15 0 0 .596 0 .596.597 8.936-4.767 16.682 0 26.214-3.575 3.575 0 11.32-.596 14.896-1.788.596 0 2.98-1.19 3.574-1.19 10.13 1.19 22.045-4.767 32.77-2.98 4.766 1.788 8.937 7.746 13.107 16.087-11.32 3.576-23.235 7.15-31.576 8.342-15.49-1.787-28.6 7.15-42.302 8.34-7.15 3.576-17.278 1.79-26.216 8.343-7.15-5.362-13.106 1.787-18.47.596-8.34 2.384-19.66 4.17-30.386 4.768-7.15 4.17-16.682 2.382-25.023 5.958 2.383 5.36 4.767 11.32 7.746 16.682 2.383 2.98 12.51 14.3 17.873 20.853 4.17 5.363 3.575 7.15 5.362 9.534 4.17 4.766 1.19-.595 4.17 1.19 4.768 2.98 14.3 12.513 21.45 20.854 4.17 2.383 4.766 8.937 6.553 8.937 3.576 2.98 7.15 11.32 11.918 11.32 14.3 7.15 33.364 2.384 49.45 4.17 8.938-3.575 19.065-3.575 28.6-.596 2.98-1.788 7.15.596 10.128-4.767 9.533 0 17.278-7.15 23.832.595 2.98 5.363 6.554 13.107 4.17 18.47-5.957 4.17-9.532 7.15-16.682 7.15-5.36 1.19-9.533-1.192-13.107 1.19-30.39 4.17-62.56.596-92.947 3.575zM1085.95 201.7c3.574-.595 8.937-.595 13.106-1.19-1.787-1.788-4.17-2.98-4.17-3.576-3.574-4.17-9.532-7.745-14.895-13.703-5.957-7.745-10.128-16.086-15.49-21.448-8.937-8.342-12.513-9.532-17.874-17.874-3.575-9.533-10.725-17.278-14.3-26.215-5.957-.596-2.978 2.383-10.128 2.98-15.49 2.978-31.577 13.106-44.09 11.915-10.127 1.788-22.64 5.362-33.96 8.34-16.086 4.768-31.577 11.322-47.664 16.684-11.32 4.17-22.044 10.724-34.556 14.895-1.19 0-4.766 1.787-8.34 3.575 11.915 2.383 25.62 5.958 39.917 8.34 11.916 2.384 25.62 2.384 34.556 3.576 13.705-.596 24.43 7.15 38.132 4.766 13.107 1.19 28.598 6.554 42.897 4.767 11.32-1.786 23.236 5.363 30.98 1.788 16.09 1.19 30.39 3.574 45.88 2.383z"/></g><path d="M2048 0M2048 1536M0 1536M0 0" stroke="#17192D"/></g></svg>