<?xml version="1.0" encoding="iso-8859-1"?>
<!-- Generator: Adobe Illustrator 15.1.0, SVG Export Plug-In . SVG Version: 6.00 Build 0)  -->
<!DOCTYPE svg PUBLIC "-//W3C//DTD SVG 1.1//EN" "http://www.w3.org/Graphics/SVG/1.1/DTD/svg11.dtd">
<svg version="1.1" xmlns="http://www.w3.org/2000/svg" xmlns:xlink="http://www.w3.org/1999/xlink" x="0px" y="0px" width="2048px"
	 height="1536px" viewBox="0 0 2048 1536" style="enable-background:new 0 0 2048 1536;" xml:space="preserve">
<g id="titela">
	<g>
		<path style="fill:none;stroke:#17192D;stroke-width:3;" d="M871.664,1272.27c27.539,5.77,65.852,1.731,92.791,15.576
			c50.286,2.885,98.777,18.461,147.867,31.153c33.524,16.73,72.437,23.076,106.56,37.5c10.774,6.346,19.156,14.999,25.741,24.23
			c4.789,6.922,14.367,1.73,17.959,11.538c1.197,3.461-2.993,1.73-2.993,8.653c-45.497,8.654-80.817,31.152-124.519,34.615
			c-41.905-1.154-80.219,13.845-121.526,12.115c-17.959,4.614-36.518,1.153-54.477,3.461c-29.932,7.5-55.076-2.308-85.607,2.309
			c-8.979-2.885-19.755,5.191-28.735,0.575c-8.381,2.309-17.959-6.345-26.939,1.154c-13.17-1.729-25.143,0-34.123-7.499
			c2.993-20.191,23.946-11.538,37.116-16.731c39.511-4.615,77.226,2.309,116.139-5.769c41.905-4.038,89.198-3.461,134.696-8.654
			c8.382-5.191,20.952-2.307,29.933-8.076c41.307,4.038,74.831-10.962,111.947-20.77c-4.19-4.615-11.374-5.191-16.763-7.5
			c-37.715-15.576-76.028-28.268-116.735-39.229c-31.13-8.076-62.859-9.23-92.192-22.499c-25.743-6.923-53.878-6.347-77.825-17.308
			c-30.53-2.309-61.66-2.309-86.804-17.885c-3.592-2.307-2.994-8.076-2.994-11.538c4.79-8.654,10.776-5.191,16.762-3.462
			C847.719,1267.076,860.29,1269.961,871.664,1272.27z"/>
		<path style="fill:none;stroke:#17192D;stroke-width:3;" d="M1231.693,952.97c-1.154,14.999,0,26.537,4.039,35.768
			c0,5.77-2.885,12.115-7.5,14.423c-7.5,12.692,5.77,32.308-15,38.077c-5.191,1.73-11.538-1.731-16.154,2.884
			c-21.922,8.076-29.999,2.308-50.19,4.039c-16.73,1.153-37.499-8.077-54.229,0.576c-8.654,0-16.731-3.461-24.231-5.192
			c-23.076,8.077-46.73-4.038-69.806,1.731c-16.73,1.153-30.577-5.77-46.154,1.73c-2.884,0.577-8.076,1.154-10.384,2.308
			c-34.038,0-69.806-4.038-103.267,0c-17.885,0-36.923-1.153-53.076-9.23c-7.5-6.923-1.154-19.038,6.346-22.5
			c5.769,0,13.846-1.153,19.038,2.885c9.808-2.885,21.346,2.308,32.307-1.153c7.5,1.73,16.154,2.308,24.807,1.153
			c20.769-11.538,42.115,2.308,63.46,1.154c19.615-1.154,40.384-8.077,60.576-5.77c19.615,1.73,42.692,3.462,62.884,2.308
			c8.077-2.885,14.423,3.462,23.653-4.038c8.077,5.769,16.73,3.461,23.077,7.5c8.076-1.731,15-3.462,25.961-6.924
			c4.615,6.924,11.537,2.885,15,4.616c21.346,0.576,24.807,3.461,45.575-2.885c12.692,5.192,5.769-9.808,16.731-11.538
			c2.307-1.154-2.309-0.577-2.309-1.731c-1.73-8.076,7.5-13.269,3.462-21.346c-2.885-7.5,0-17.885-6.346-24.807
			c-1.154-6.923,0-17.308,9.23-17.308C1220.732,936.239,1221.31,948.931,1231.693,952.97z"/>
		<path style="fill:none;stroke:#17192D;stroke-width:3;" d="M1265.731,628.178c-23.076,16.154-43.846,24.808-65.191,31.153
			c-19.614,14.423-46.152,12.692-65.19,28.846c-7.5,2.308-17.885,7.5-24.23,10.961c-11.538,0-23.076,4.038-32.885,8.653
			c1.73,0,2.885-0.577,4.039-0.577c34.037,0,65.768-5.769,101.536-0.577c10.962,0,21.923-2.885,31.731,1.153
			c17.883,0.577,39.229-3.461,54.807,6.346c1.729,2.308,5.191,5.192,5.191,12.692c-16.154,5.769-36.922,5.769-51.345,4.038
			c-9.231-2.885-20.77,1.153-31.154,1.153c-21.345,0.578-44.999-7.5-64.037,2.308c-17.308,2.308-36.345-6.346-53.076,0
			c-14.999,5.192-33.461-2.885-48.46,4.615c-27.693-4.615-65.192,0.577-95.769-4.615c-34.038,1.154-69.229,4.615-103.267-3.461
			c-17.885,1.153-31.153-6.923-47.884-10.385c-5.192-1.73-6.346-9.807-6.346-16.73c25.384-3.461,37.5-15.576,57.114-23.653
			c27.692-8.077,57.114-8.654,84.229-16.154c39.807,0.578,80.768,5.192,107.306,39.23c46.73-26.538,100.382-31.73,148.266-57.691
			c21.923-6.922,43.846-17.884,65.769-24.807C1245.54,619.524,1256.5,616.64,1265.731,628.178z M875.162,696.831
			c-6.924,2.308-16.154-0.577-23.077,5.769c-6.923-0.577-10.962,0.577-15,1.731c2.885,0.577,5.192,1.153,8.654,1.153
			c6.923,9.23,17.307,4.616,25.961,6.923c38.077-5.192,80.191,0,119.998-0.578c-1.154,0-1.73-0.577-2.307-1.153
			c-16.73-2.885-28.269-15-43.269-21.923C921.891,691.638,896.507,685.292,875.162,696.831z"/>
		<path style="fill:none;stroke:#17192D;stroke-width:3;" d="M1055.58,259.55c23.832,1.786,48.259,7.149,73.283,10.128
			c31.576,3.575,64.941,7.745,93.54,22.045c16.087,15.49,36.344,26.215,48.855,47.067c2.384,12.513,9.533,9.533,7.149,23.833
			c0.596,2.384-1.191-0.595-1.191,6.553c-26.215,2.384-20.257-0.595-30.386-14.299c-10.725,1.788-21.448-3.574-31.578,0.596
			c-48.259-1.787-89.369,1.192-135.246,4.767c-12.512,5.362-29.193,6.554-43.493,3.575c-7.15-2.979-16.683,2.979-25.62,1.192
			c-30.981-0.597-64.347-1.788-94.732,2.382c-23.236,0-46.473,0-68.518,2.383c-8.341-0.596-17.874-4.765-26.215-1.19
			c-1.192,1.19-2.383,1.787-1.192,4.766c-1.787,5.362-6.554,12.512-13.107,13.108c-4.767-0.596-10.725-2.383-13.704-5.958
			c1.192-21.449,13.704-35.153,26.215-50.047c20.853-20.257,48.26-29.79,71.496-47.664c14.299-11.32,33.365-11.917,49.451-18.47
			c20.853-2.979,46.473-1.787,64.942-5.958C1021.619,262.528,1037.705,260.146,1055.58,259.55z M963.826,291.126
			c-22.641-0.596-38.131,8.937-59.58,15.491c-1.787,1.787-6.554,5.958-8.937,7.745c-13.704,10.129-29.194,14.896-40.515,25.62
			c7.15,1.787,14.3,4.767,20.854,1.191c16.683,2.979,31.577-5.958,47.664-5.958c21.448,6.553,44.089,1.191,66.133,4.17
			c20.257,2.383,39.323-3.575,60.176-3.575c38.132-14.299,81.029-4.767,119.16-8.341c15.491-1.787,35.152-2.383,53.025-1.192
			c-8.34-8.34-22.044-11.916-32.172-17.874c-34.557-9.532-68.518-13.703-104.861-18.47c-7.746-1.191-16.087,1.191-23.236-2.979
			C1029.959,288.147,992.424,278.019,963.826,291.126z"/>
		<path style="fill:none;stroke:#17192D;stroke-width:3;" d="M1269.62,1276.33c-9.23,4.038-11.389-1.153-27.542-6.347
			c0.577-0.576,1.154-1.153,1.73-1.73c-15.576-4.038-31.73-6.057-48.461-8.363c-9.808-2.309-21.346,1.153-31.152-4.04
			c-28.27,2.885-51.346-9.229-77.884-10.961c-12.115,1.154-23.653-3.462-35.769-6.922c-7.5,2.884-15,1.73-21.922,0
			c-18.462-7.501-39.231-9.808-55.961-17.886c-59.999-10.96-113.652-37.499-173.652-50.19c-8.653-6.923-20.769-4.038-24.23-16.731
			c10.385-16.729,31.153-9.808,47.884-14.423c4.615-0.576,4.038-5.769,7.5-7.498c47.884,0,87.69-18.463,134.42-17.31
			c25.384-12.114,56.538-3.46,83.653-9.807c8.653-6.346,24.808-4.616,36.346-3.461c28.845-11.538,68.653-1.73,95.19-13.27
			c22.5-2.884,45.576,1.154,69.229-2.884c6.346,0,14.423,1.153,11.538,8.653c-7.499,8.653-18.461,13.846-28.269,13.846
			c-20.192,9.23-47.307,0.577-68.075,6.346c-26.538,6.923-56.538,6.923-84.807,12.692c2.308,13.27,1.154,25.385,3.461,36.346
			c1.154,5.769,4.615,9.23,4.039,13.845c2.308,3.462,4.039,7.501,1.154,9.809c-4.039,12.114,3.461,23.653,10.961,34.037
			c39.807,9.808,83.076,12.692,126.344,19.039c25.961,6.923,48.311,3.462,69.656,18.461c2.309,2.309,1.73,4.326,1.73,6.634
			c-4.615,8.077-16.729,9.23-27.114,9.807C1269.62,1271.715,1269.62,1272.868,1269.62,1276.33z M1053.428,1213.736
			c5.769-0.577,21.346,7.499,12.692-6.924c-1.154-10.384-2.885-14.423-5.77-24.808c-1.73-6.345-1.73-15.576-2.884-24.23
			c-0.578-5.191-2.309-9.807-2.885-13.845c-2.309-2.885-4.039-8.078-6.347-12.691c-9.23,2.307-19.614,2.307-28.269,2.307
			c-32.307,8.076-72.114,5.191-106.152,9.807c-17.307,2.309-33.461,8.654-48.46,14.423c34.038,8.078,64.614,25.386,96.921,34.615
			C992.274,1201.043,1024.582,1201.043,1053.428,1213.736z"/>
		<path style="fill:none;stroke:#17192D;stroke-width:3;" d="M1075.98,770.839c20.989-2.209,35.902,6.628,51.367,9.942
			c1.105-0.553,3.314,7.732,6.076,0c8.285,4.418,12.15,6.075,15.465,7.18c4.419,2.209,6.629,1.657,10.495,3.866
			c3.313,1.658,7.732,3.314,11.599,3.314c9.942,7.181,24.303,8.837,32.588,14.913c17.674,12.151,41.977,24.855,57.994,42.529
			c10.495,14.361,21.541,23.198,30.931,37.007c-0.552,6.075,4.419,12.151-1.657,19.884c-12.703,1.657-13.808,2.209-17.675-3.866
			c-0.552-0.553-0.552-1.105-1.104-1.657c-2.762,1.104-6.629,2.761-9.39,3.314c-9.942,0-27.617,0-37.56,1.656
			c-4.418-2.762-14.913,1.657-20.437-0.552c-27.615,2.762-60.203,3.866-90.582,0.552c-8.285,3.314-18.227,2.21-25.959,0.553
			c-28.722-0.553-54.681-10.495-79.537-7.732c-18.779-0.553-39.769,4.97-59.652-2.21c-12.705,1.105-28.169-1.656-39.216-1.656
			c-1.656,1.104-2.208,1.656-4.97,2.209c-27.064-3.314-63.518,1.104-90.031-1.657c-11.599-3.314-16.017-19.331,0-20.989
			c54.128-4.971,119.304-6.075,176.194-0.552c13.257-1.104,32.036,1.657,46.949-1.104l2.209,2.21
			c18.228-1.105,33.693,3.313,52.472,6.074c4.971-2.761,7.733-2.209,12.151,0.554c29.826,1.656,70.699-2.763,99.972-0.554
			c16.019-7.732,31.483,4.419,47.501-2.761c2.763-1.657,6.075,0,8.837-1.657l2.21,7.181c-0.552,0-0.552,0.552-3.866,0.552
			c-6.628-13.256-19.331-15.465-24.303-25.406c-1.104-0.553-2.762-2.21-4.971-3.867c0-2.209-1.656-3.314-1.656-3.314
			c-0.553-0.552-1.658,1.105-2.21,0.553c-1.657-2.21-3.866-4.971-3.866-3.313c3.313,0,6.076-3.314,3.866,0
			c-9.942-1.104-9.942-9.942-19.332-9.942c-2.762-4.971-7.733-4.418-10.494-6.628c-5.523-1.657-8.284-7.181-14.36-7.181
			c-8.285-7.18-20.988-6.075-28.722-10.494c-4.419-0.553-6.076-4.971-13.809-5.523c-18.227-10.494-43.081-10.494-63.519-14.912
			c-28.721,0-55.786-5.524-85.06,0c-8.285,0-17.122,3.313-25.407,4.971c-4.971,2.762-11.046,2.209-16.018,5.523
			c-40.873,9.941-81.745,29.826-115.99,56.89c-14.361,7.181-22.646,22.646-37.558,29.826c-16.018,8.285-14.361-9.941-11.047-16.569
			c11.047-16.018,28.169-33.141,44.187-44.739c16.018-11.047,35.349-19.885,51.919-29.827c14.913-6.627,32.588-11.599,45.292-17.121
			c16.57-2.21,20.988-11.599,37.558-9.391c3.314-1.656,7.181-3.313,11.047-2.762c2.209,0,5.523,0,8.285-2.208
			c3.866,0,12.152,0,17.123-1.657C1023.509,768.077,1051.679,765.868,1075.98,770.839z"/>
		<path style="fill:none;stroke:#17192D;stroke-width:3;" d="M1279.722,410.538c10.385,0.577,22.5,1.73,27.114,9.807
			c0,2.308,0.578,5.769-1.729,8.077c-21.347,15-53.076,11.538-79.037,18.461c-43.269,6.347-87.7,5.35-126.345,19.039
			c-17.018,6.028-24.237,22.287-18.353,33.621c3.21,1.828,2.134,6.087,0.396,9.867c1.292,4.468-1.586,8.429-1.821,14.308
			c-0.564,11.187,2.471,22.973,0.164,36.241c28.269,5.769,58.269,5.769,84.806,12.692c20.77,5.769,47.884-2.884,68.076,6.346
			c9.808,0,20.769,5.192,28.269,13.846c2.885,7.5-5.192,8.654-11.538,8.654c-23.653-4.039-46.73,0-69.229-2.885
			c-26.538-11.538-66.345-1.731-95.191-13.269c-11.538,1.154-27.691,2.884-36.346-3.461c-27.115-6.346-58.268,2.308-83.652-9.807
			c-46.729,1.154-72.105-24.523-119.989-24.523c-3.461-1.73-2.884-6.923-7.499-7.5c-16.731-4.616-51.932,9.523-62.317-7.207
			c3.462-12.693,15.577-11.252,24.231-18.174c59.999-12.693,113.652-37.787,173.651-48.748c16.73-8.077,37.499-10.385,55.96-17.884
			c6.923-1.731,14.423-2.885,21.923,0c12.115-3.461,23.653-8.077,35.769-6.923c26.538-1.73,49.614-13.845,77.883-10.96
			c9.808-5.192,21.346-1.731,31.154-4.039c16.729-2.308,32.883-5.769,48.459-9.807c-0.575-0.578-1.153-1.154-1.729-1.731
			c16.153-5.192,27.691-10.385,36.922-6.346C1279.722,411.691,1279.722,412.845,1279.722,410.538z M962.997,493.613
			c-32.308,9.23-62.884,26.538-96.921,34.615c14.999,5.769,31.153,12.115,48.46,14.423c34.039,4.615,73.845,1.731,106.153,9.808
			c8.654,0,19.039,0,28.268,2.307c2.309-4.615,2.506-10.085,3.907-13.503c-0.584-4.037-0.224-8.954-1.134-14.098
			c-1.331-8.628-3.933-17.484-4.06-24.061c-0.158-10.777,0.363-15.14-1.455-25.429c0,0,6.551-1.966,0.782-2.543
			C1018.151,487.825,992.996,484.959,962.997,493.613z"/>
		<path style="fill:none;stroke:#17192D;stroke-width:3;" d="M1139.587,222.841c-41.11,4.171-88.179,1.192-130.48-6.554
			c-33.96,4.17-63.75-11.32-94.732-9.533c-9.533-2.979-20.257,1.788-28.002-5.958c-15.491-2.979-35.749-5.362-49.452-6.554
			c-7.15-4.171-20.257-4.171-23.832-10.129c-2.383-0.596-2.979-8.341-2.979-13.704c-1.192-10.128,9.532-7.148,13.703-13.107
			c14.299-4.17,27.408-12.512,39.919-17.279c12.512-4.766,23.832-11.916,35.748-16.086c8.937-3.575,16.683-5.362,23.832-9.533
			c35.748-10.127,72.687-19.661,108.437-29.194c3.574-2.979,9.532,0,13.106-4.766c0,0,5.362-1.192,5.959-1.192
			c16.086,0,26.811-6.554,42.302-7.149c6.553-1.788,16.086-0.596,22.64-4.767c11.916,0,25.024-2.979,38.131-7.149
			c0,0,0.597,0,0.597,0.596c8.937-4.767,16.682,0,26.215-3.575c3.575,0,11.32-0.596,14.896-1.788c0.596,0,2.979-1.191,3.574-1.191
			c10.128,1.191,22.045-4.767,32.769-2.979c4.767,1.787,8.938,7.744,13.108,16.086c-11.32,3.575-23.237,7.149-31.577,8.341
			c-15.491-1.786-28.6,7.15-42.303,8.341c-7.148,3.575-17.278,1.788-26.215,8.341c-7.149-5.362-13.107,1.787-18.47,0.596
			c-8.341,2.383-19.662,4.169-30.386,4.767c-7.149,4.169-16.682,2.382-25.023,5.958c2.383,5.361,4.767,11.32,7.746,16.682
			c2.383,2.979,12.511,14.299,17.873,20.853c4.17,5.362,3.574,7.15,5.362,9.533c4.17,4.766,1.191-0.595,4.17,1.191
			c4.768,2.979,14.3,12.512,21.449,20.854c4.171,2.383,4.767,8.937,6.554,8.937c3.575,2.979,7.15,11.32,11.916,11.32
			c14.299,7.15,33.365,2.384,49.452,4.171c8.937-3.576,19.064-3.576,28.598-0.597c2.979-1.787,7.149,0.597,10.129-4.766
			c9.533,0,17.278-7.15,23.832,0.595c2.979,5.363,6.554,13.107,4.171,18.47c-5.959,4.171-9.533,7.15-16.684,7.15
			c-5.361,1.191-9.532-1.192-13.107,1.191C1202.146,223.437,1169.973,219.862,1139.587,222.841z M1093.115,194.839
			c3.574-0.596,8.937-0.596,13.106-1.192c-1.787-1.787-4.17-2.979-4.17-3.575c-3.575-4.17-9.533-7.745-14.895-13.703
			c-5.958-7.745-10.13-16.087-15.491-21.449c-8.938-8.342-12.513-9.533-17.874-17.875c-3.575-9.532-10.725-17.277-14.3-26.214
			c-5.957-0.596-2.979,2.383-10.129,2.979c-15.491,2.979-31.577,13.107-44.089,11.916c-10.128,1.788-22.64,5.362-33.96,8.341
			c-16.087,4.767-31.577,11.32-47.664,16.683c-11.32,4.17-22.045,10.724-34.556,14.896c-1.192,0-4.766,1.786-8.341,3.574
			c11.916,2.383,25.62,5.958,39.918,8.341c11.917,2.383,25.62,2.383,34.556,3.575c13.704-0.596,24.429,7.15,38.132,4.766
			c13.107,1.192,28.598,6.554,42.897,4.766c11.32-1.787,23.236,5.362,30.982,1.788
			C1063.324,193.647,1077.624,196.03,1093.115,194.839z"/>
	</g>
	<path style="fill:none;stroke:#17192D;stroke-width:3;" d="M2048,0"/>
	<path style="fill:none;stroke:#17192D;stroke-width:3;" d="M2048,1536"/>
	<path style="fill:none;stroke:#17192D;stroke-width:3;" d="M0,1536"/>
	<path style="fill:none;stroke:#17192D;stroke-width:3;" d="M0,0"/>
</g>
<g id="Layer_1">
</g>
</svg>
